<svg width="58" height="49" viewBox="0 0 58 49" fill="none" xmlns="http://www.w3.org/2000/svg">
<g opacity="0.8" filter="url(#filter0_f_2212_17624)">
<path d="M39.315 46.941C39.2825 46.9773 39.2361 46.998 39.1874 46.998L18.6599 46.998C18.6112 46.998 18.5649 46.9773 18.5324 46.941L17.1643 45.4128C17.0656 45.3025 17.1439 45.1275 17.2918 45.1275L40.5556 45.1275C40.7035 45.1275 40.7818 45.3025 40.6831 45.4128L39.315 46.941Z" fill="url(#paint0_linear_2212_17624)"/>
</g>
<g opacity="0.8" filter="url(#filter1_f_2212_17624)">
<path d="M40.1861 44.6726C40.1308 44.6371 40.0666 44.6182 40.0009 44.6182L18.0145 44.6182C17.9488 44.6182 17.8845 44.637 17.8293 44.6726L17.1168 45.1308C16.614 45.4542 16.843 46.2337 17.4408 46.2337L40.5745 46.2337C41.1723 46.2337 41.4013 45.4542 40.8985 45.1308L40.1861 44.6726Z" fill="url(#paint1_linear_2212_17624)"/>
</g>
<mask id="mask0_2212_17624" style="mask-type:alpha" maskUnits="userSpaceOnUse" x="16" y="32" width="26" height="15">
<path d="M18.4668 32.207V42.6102C18.4668 42.7168 18.4143 42.8167 18.3277 42.8753L16.832 43.8879C16.6982 43.9785 16.6182 44.1304 16.6182 44.2929V45.6147C16.6182 45.8878 16.836 46.1076 17.1036 46.1076H40.8362C41.1052 46.1076 41.3217 45.8865 41.3217 45.6147V44.2929C41.3217 44.1304 41.2417 43.9785 41.1078 43.8879L39.6122 42.8753C39.5256 42.8167 39.4731 42.7168 39.4731 42.6102V32.207" fill="#D9D9D9"/>
</mask>
<g mask="url(#mask0_2212_17624)">
<g filter="url(#filter2_f_2212_17624)">
<path d="M18.467 32.207V42.6102C18.467 42.7168 18.4145 42.8167 18.3279 42.8753L16.581 43.8879C16.4472 43.9785 16.3672 44.1304 16.3672 44.2929V45.6147C16.3672 45.8878 16.585 46.1076 16.8526 46.1076H41.0039C41.2729 46.1076 41.4893 45.8865 41.4893 45.6147V44.2929C41.4893 44.1304 41.4093 43.9785 41.2755 43.8879L39.6124 42.8753C39.5258 42.8167 39.4733 42.7168 39.4733 42.6102V32.207" fill="url(#paint2_linear_2212_17624)"/>
</g>
</g>
<mask id="mask1_2212_17624" style="mask-type:alpha" maskUnits="userSpaceOnUse" x="16" y="32" width="26" height="13">
<mask id="path-5-inside-1_2212_17624" fill="white">
<path d="M18.4674 32.207V42.6102C18.4674 42.7168 18.4149 42.8167 18.3283 42.8753L16.7343 43.9545C16.6621 44.0025 16.6201 44.0851 16.6201 44.1717C16.6201 44.3156 16.7356 44.4328 16.8773 44.4328H41.0665C41.2082 44.4328 41.3236 44.3156 41.3236 44.1717C41.3236 44.0838 41.2803 44.0025 41.2095 43.9545L39.6154 42.8753C39.5288 42.8167 39.4764 42.7168 39.4764 42.6102V32.207"/>
</mask>
<path d="M18.4674 32.207V42.6102C18.4674 42.7168 18.4149 42.8167 18.3283 42.8753L16.7343 43.9545C16.6621 44.0025 16.6201 44.0851 16.6201 44.1717C16.6201 44.3156 16.7356 44.4328 16.8773 44.4328H41.0665C41.2082 44.4328 41.3236 44.3156 41.3236 44.1717C41.3236 44.0838 41.2803 44.0025 41.2095 43.9545L39.6154 42.8753C39.5288 42.8167 39.4764 42.7168 39.4764 42.6102V32.207" fill="url(#paint3_linear_2212_17624)"/>
<path d="M18.4674 32.207V42.6102C18.4674 42.7168 18.4149 42.8167 18.3283 42.8753L16.7343 43.9545C16.6621 44.0025 16.6201 44.0851 16.6201 44.1717C16.6201 44.3156 16.7356 44.4328 16.8773 44.4328H41.0665C41.2082 44.4328 41.3236 44.3156 41.3236 44.1717C41.3236 44.0838 41.2803 44.0025 41.2095 43.9545L39.6154 42.8753C39.5288 42.8167 39.4764 42.7168 39.4764 42.6102V32.207" fill="url(#paint4_linear_2212_17624)" fill-opacity="0.3"/>
<path d="M18.4674 32.207V42.6102C18.4674 42.7168 18.4149 42.8167 18.3283 42.8753L16.7343 43.9545C16.6621 44.0025 16.6201 44.0851 16.6201 44.1717C16.6201 44.3156 16.7356 44.4328 16.8773 44.4328H41.0665C41.2082 44.4328 41.3236 44.3156 41.3236 44.1717C41.3236 44.0838 41.2803 44.0025 41.2095 43.9545L39.6154 42.8753C39.5288 42.8167 39.4764 42.7168 39.4764 42.6102V32.207" fill="url(#paint5_radial_2212_17624)" fill-opacity="0.2"/>
<path d="M18.3283 42.8753L18.2804 42.8044L18.3283 42.8753ZM16.7343 43.9545L16.7816 44.0258L16.7822 44.0254L16.7343 43.9545ZM41.2095 43.9545L41.2575 43.8837L41.2095 43.9545ZM39.6154 42.8753L39.5674 42.9462L39.6154 42.8753ZM18.3818 32.207V42.6102H18.553V32.207H18.3818ZM18.3818 42.6102C18.3818 42.689 18.3429 42.7621 18.2804 42.8044L18.3763 42.9462C18.4869 42.8713 18.553 42.7445 18.553 42.6102H18.3818ZM18.2804 42.8044L16.6863 43.8837L16.7822 44.0254L18.3763 42.9462L18.2804 42.8044ZM16.6869 43.8833C16.5896 43.9479 16.5345 44.058 16.5345 44.1717H16.7057C16.7057 44.1122 16.7346 44.057 16.7816 44.0258L16.6869 43.8833ZM16.5345 44.1717C16.5345 44.3616 16.6871 44.5184 16.8773 44.5184V44.3473C16.7841 44.3473 16.7057 44.2696 16.7057 44.1717H16.5345ZM16.8773 44.5184H41.0665V44.3473H16.8773V44.5184ZM41.0665 44.5184C41.2567 44.5184 41.4092 44.3616 41.4092 44.1717H41.2381C41.2381 44.2696 41.1597 44.3473 41.0665 44.3473V44.5184ZM41.4092 44.1717C41.4092 44.0557 41.3521 43.9477 41.2575 43.8837L41.1615 44.0254C41.2086 44.0573 41.2381 44.1118 41.2381 44.1717H41.4092ZM41.2575 43.8837L39.6634 42.8044L39.5674 42.9462L41.1615 44.0254L41.2575 43.8837ZM39.6634 42.8044C39.6008 42.7621 39.5619 42.689 39.5619 42.6102H39.3908C39.3908 42.7445 39.4569 42.8713 39.5674 42.9462L39.6634 42.8044ZM39.5619 42.6102V32.207H39.3908V42.6102H39.5619Z" fill="url(#paint6_radial_2212_17624)" mask="url(#path-5-inside-1_2212_17624)"/>
</mask>
<g mask="url(#mask1_2212_17624)">
<mask id="path-7-inside-2_2212_17624" fill="white">
<path d="M18.4674 32.207V42.6102C18.4674 42.7168 18.4149 42.8167 18.3283 42.8753L16.7343 43.9545C16.6621 44.0025 16.6201 44.0851 16.6201 44.1717C16.6201 44.3156 16.7356 44.4328 16.8773 44.4328H41.0665C41.2082 44.4328 41.3236 44.3156 41.3236 44.1717C41.3236 44.0838 41.2803 44.0025 41.2095 43.9545L39.6154 42.8753C39.5288 42.8167 39.4764 42.7168 39.4764 42.6102V32.207"/>
</mask>
<g filter="url(#filter3_i_2212_17624)">
<path d="M18.4674 32.207V42.6102C18.4674 42.7168 18.4149 42.8167 18.3283 42.8753L16.7343 43.9545C16.6621 44.0025 16.6201 44.0851 16.6201 44.1717C16.6201 44.3156 16.7356 44.4328 16.8773 44.4328H41.0665C41.2082 44.4328 41.3236 44.3156 41.3236 44.1717C41.3236 44.0838 41.2803 44.0025 41.2095 43.9545L39.6154 42.8753C39.5288 42.8167 39.4764 42.7168 39.4764 42.6102V32.207" fill="url(#paint7_linear_2212_17624)"/>
<path d="M18.4674 32.207V42.6102C18.4674 42.7168 18.4149 42.8167 18.3283 42.8753L16.7343 43.9545C16.6621 44.0025 16.6201 44.0851 16.6201 44.1717C16.6201 44.3156 16.7356 44.4328 16.8773 44.4328H41.0665C41.2082 44.4328 41.3236 44.3156 41.3236 44.1717C41.3236 44.0838 41.2803 44.0025 41.2095 43.9545L39.6154 42.8753C39.5288 42.8167 39.4764 42.7168 39.4764 42.6102V32.207" fill="url(#paint8_linear_2212_17624)" fill-opacity="0.3"/>
<path d="M18.4674 32.207V42.6102C18.4674 42.7168 18.4149 42.8167 18.3283 42.8753L16.7343 43.9545C16.6621 44.0025 16.6201 44.0851 16.6201 44.1717C16.6201 44.3156 16.7356 44.4328 16.8773 44.4328H41.0665C41.2082 44.4328 41.3236 44.3156 41.3236 44.1717C41.3236 44.0838 41.2803 44.0025 41.2095 43.9545L39.6154 42.8753C39.5288 42.8167 39.4764 42.7168 39.4764 42.6102V32.207" fill="url(#paint9_radial_2212_17624)" fill-opacity="0.2"/>
</g>
<path d="M18.3283 42.8753L18.2804 42.8044L18.3283 42.8753ZM16.7343 43.9545L16.7816 44.0258L16.7822 44.0254L16.7343 43.9545ZM41.2095 43.9545L41.2575 43.8837L41.2095 43.9545ZM39.6154 42.8753L39.5674 42.9462L39.6154 42.8753ZM18.3818 32.207V42.6102H18.553V32.207H18.3818ZM18.3818 42.6102C18.3818 42.689 18.3429 42.7621 18.2804 42.8044L18.3763 42.9462C18.4869 42.8713 18.553 42.7445 18.553 42.6102H18.3818ZM18.2804 42.8044L16.6863 43.8837L16.7822 44.0254L18.3763 42.9462L18.2804 42.8044ZM16.6869 43.8833C16.5896 43.9479 16.5345 44.058 16.5345 44.1717H16.7057C16.7057 44.1122 16.7346 44.057 16.7816 44.0258L16.6869 43.8833ZM16.5345 44.1717C16.5345 44.3616 16.6871 44.5184 16.8773 44.5184V44.3473C16.7841 44.3473 16.7057 44.2696 16.7057 44.1717H16.5345ZM16.8773 44.5184H41.0665V44.3473H16.8773V44.5184ZM41.0665 44.5184C41.2567 44.5184 41.4092 44.3616 41.4092 44.1717H41.2381C41.2381 44.2696 41.1597 44.3473 41.0665 44.3473V44.5184ZM41.4092 44.1717C41.4092 44.0557 41.3521 43.9477 41.2575 43.8837L41.1615 44.0254C41.2086 44.0573 41.2381 44.1118 41.2381 44.1717H41.4092ZM41.2575 43.8837L39.6634 42.8044L39.5674 42.9462L41.1615 44.0254L41.2575 43.8837ZM39.6634 42.8044C39.6008 42.7621 39.5619 42.689 39.5619 42.6102H39.3908C39.3908 42.7445 39.4569 42.8713 39.5674 42.9462L39.6634 42.8044ZM39.5619 42.6102V32.207H39.3908V42.6102H39.5619Z" fill="url(#paint10_radial_2212_17624)" mask="url(#path-7-inside-2_2212_17624)"/>
<g filter="url(#filter4_f_2212_17624)">
<rect x="16.9092" y="28.8877" width="24.0296" height="5.78184" fill="#626ABD"/>
</g>
</g>
<g filter="url(#filter5_dii_2212_17624)">
<path fill-rule="evenodd" clip-rule="evenodd" d="M28.7212 36.2384C28.6176 36.2992 28.5199 36.2833 28.4696 36.196C28.4193 36.1086 28.4565 36.0141 28.5602 35.9538C28.6638 35.8935 28.8027 35.8996 28.845 35.9762C28.8872 36.0529 28.8254 36.1781 28.7212 36.2384ZM28.8989 36.4387C28.9562 36.544 29.0689 36.5593 29.1902 36.4898C29.3119 36.4183 29.3849 36.2732 29.3341 36.1832C29.2833 36.0933 29.1218 36.0846 29.0025 36.1562C28.8833 36.2277 28.8415 36.3335 28.8989 36.4387ZM29.2511 36.6026C29.1299 36.6721 29.0876 36.782 29.1475 36.8847C29.2074 36.9874 29.3196 37.0037 29.4388 36.9358C29.5581 36.8678 29.633 36.7181 29.5822 36.6292C29.5314 36.5403 29.3749 36.528 29.2511 36.6026ZM29.2318 37.1378C29.1276 37.1981 29.0924 37.2911 29.1412 37.3795C29.19 37.4679 29.2892 37.4817 29.3928 37.4224C29.4965 37.3631 29.5584 37.2364 29.5166 37.1597C29.4748 37.0831 29.3355 37.077 29.2318 37.1378ZM27.5087 40.5516C27.9372 40.9088 28.4744 41.104 29.0288 41.104C29.6637 41.1031 30.2723 40.8464 30.7211 40.3904C31.1699 39.9343 31.4223 39.3161 31.4228 38.6713C31.4228 38.512 31.367 38.3579 31.2656 38.2364C31.1642 38.1149 31.0236 38.0338 30.8688 38.0077C30.7141 37.9816 30.5552 38.0121 30.4205 38.0937C30.2858 38.1754 30.184 38.3029 30.1332 38.4536C30.1114 38.5241 30.0995 38.5974 30.098 38.6713C30.0943 38.7449 30.0869 38.8182 30.0759 38.891C30.0402 39.0677 29.9617 39.2326 29.8477 39.3709C29.7336 39.5091 29.5875 39.6164 29.4225 39.6831C29.2574 39.7498 29.0787 39.7737 28.9022 39.7528C28.7258 39.7319 28.5573 39.6668 28.4118 39.5633C28.2664 39.4598 28.1485 39.3211 28.0689 39.1599C27.9893 38.9987 27.9504 38.8198 27.9558 38.6395C27.9611 38.4593 28.0105 38.2831 28.0995 38.1271C28.1886 37.971 28.3144 37.8398 28.4657 37.7454C28.4974 37.7262 28.5317 37.7091 28.5657 37.6923C28.5842 37.6831 28.6025 37.674 28.6202 37.6647C28.7011 37.6276 28.7751 37.5768 28.8391 37.5144C28.946 37.4037 29.012 37.2589 29.0258 37.1045C29.0397 36.9501 29.0005 36.7955 28.915 36.6671C28.8296 36.5386 28.703 36.444 28.5567 36.3995C28.4105 36.3549 28.2536 36.363 28.1125 36.4225C27.6003 36.6378 27.1774 37.0268 26.916 37.5233C26.6545 38.0198 26.5707 38.5929 26.6788 39.1451C26.7869 39.6973 27.0801 40.1944 27.5087 40.5516Z" fill="url(#paint11_linear_2212_17624)"/>
</g>
<g filter="url(#filter6_i_2212_17624)">
<path d="M28.9974 3.43848C38.672 3.43848 45.5692 3.67031 49.639 3.93678C51.418 4.0527 52.5555 4.7362 53.0095 6.75208C53.4451 8.69201 57.1528 24.8416 57.9058 28.4923C58.2483 30.1511 57.5975 31.3263 56.9074 32.7386C56.0887 34.4147 54.2742 34.6359 52.7996 34.6359C45.3986 34.6359 38.7862 34.5253 29 34.5253C19.2125 34.5253 12.6001 34.6359 5.20044 34.6359C3.72445 34.6359 1.91128 34.4147 1.09259 32.7386C0.402485 31.3263 -0.248264 30.1511 0.0941665 28.4923C0.843315 24.8416 4.5497 8.69201 4.98528 6.75208C5.43791 4.7362 6.57541 4.0527 8.35579 3.93678C12.4256 3.67164 19.3227 3.43848 28.9974 3.43848Z" fill="url(#paint12_radial_2212_17624)"/>
</g>
<g filter="url(#filter7_iiii_2212_17624)">
<path d="M29.0067 32.786C32.7199 32.786 43.9813 32.8502 51.5595 32.8961C54.0543 32.9113 55.3017 32.9188 56.1731 32.4017C56.9375 31.948 57.5151 31.2306 57.801 30.3798C58.1269 29.4097 57.8714 28.1679 57.3604 25.6843L53.6268 7.53938C53.2827 5.86694 53.1107 5.03071 52.6564 4.35745C52.2684 3.78241 51.6865 3.27764 51.0665 2.97837C50.3407 2.62797 49.5308 2.58764 47.911 2.50697C44.041 2.31422 37.774 2.10059 29.0067 2.10059C20.2395 2.10059 13.9729 2.31421 10.103 2.50696C8.48335 2.58763 7.67351 2.62797 6.94769 2.97835C6.32776 3.27761 5.74584 3.78237 5.35784 4.35738C4.90357 5.03062 4.73149 5.8668 4.38734 7.53917L0.653314 25.6841C0.142205 28.1678 -0.11335 29.4096 0.212587 30.3797C0.498469 31.2306 1.07608 31.948 1.84042 32.4016C2.71186 32.9188 3.95929 32.9113 6.45416 32.8961C14.0323 32.8502 25.2936 32.786 29.0067 32.786Z" fill="url(#paint13_linear_2212_17624)"/>
</g>
<mask id="mask2_2212_17624" style="mask-type:alpha" maskUnits="userSpaceOnUse" x="0" y="2" width="58" height="31">
<path d="M29.0067 32.786C32.7199 32.786 43.9813 32.8502 51.5595 32.8961C54.0543 32.9113 55.3017 32.9188 56.1731 32.4017C56.9375 31.948 57.5151 31.2306 57.801 30.3798C58.1269 29.4097 57.8714 28.1679 57.3604 25.6843L53.6268 7.53938C53.2827 5.86694 53.1107 5.03071 52.6564 4.35745C52.2684 3.78241 51.6865 3.27764 51.0665 2.97837C50.3407 2.62797 49.5308 2.58764 47.911 2.50697C44.041 2.31422 37.774 2.10059 29.0067 2.10059C20.2395 2.10059 13.9729 2.31421 10.103 2.50696C8.48335 2.58763 7.67351 2.62797 6.94769 2.97835C6.32776 3.27761 5.74584 3.78237 5.35784 4.35738C4.90357 5.03062 4.73149 5.8668 4.38734 7.53917L0.653314 25.6841C0.142205 28.1678 -0.11335 29.4096 0.212587 30.3797C0.498469 31.2306 1.07608 31.948 1.84042 32.4016C2.71186 32.9188 3.95929 32.9113 6.45416 32.8961C14.0323 32.8502 25.2936 32.786 29.0067 32.786Z" fill="#D9D9D9"/>
</mask>
<g mask="url(#mask2_2212_17624)">
<g opacity="0.99" filter="url(#filter8_f_2212_17624)">
<path d="M56.6453 1.52579C56.6676 4.68119 55.8996 9.23472 50.461 11.1733C46.0421 12.7485 37.6327 12.0186 31.3527 12.0638C17.3437 12.1646 5.95431 7.60992 5.91393 1.89071C5.87355 -3.82851 17.1974 -8.54653 31.2065 -8.6473C45.2156 -8.74807 56.6049 -4.19343 56.6453 1.52579Z" fill="#FB5BD8"/>
</g>
<g opacity="0.6" filter="url(#filter9_f_2212_17624)">
<path d="M68.6341 40.4991C67.1468 41.2193 64.7584 41.7357 62.1955 38.6164C60.1132 36.0818 57.9152 30.425 55.9943 26.3326C51.7094 17.2034 50.4211 8.74468 53.1169 7.43947C55.8127 6.13426 61.4717 12.4768 65.7566 21.606C70.0416 30.7352 71.3299 39.1939 68.6341 40.4991Z" fill="#7896FF"/>
</g>
</g>
<g opacity="0.6" filter="url(#filter10_f_2212_17624)">
<path d="M50.0689 16.3647C43.321 11.5523 36.5782 7.94778 29.0508 4.5696L28.2962 4.33588L27.7949 4.22949V5.29233C27.7949 5.57005 28.2799 8.30123 28.6669 8.48084C38.3182 12.9575 45.9528 16.6922 48.0767 18.0586C48.9743 18.6362 50.0539 18.5118 50.3079 17.8693C50.4016 17.6317 50.5686 17.2379 50.5686 17.2379L50.0689 16.3619V16.3647Z" fill="#D715AC" fill-opacity="0.78"/>
</g>
<g opacity="0.5" filter="url(#filter11_f_2212_17624)">
<path d="M45.7154 12.485L45.2208 12.4717C45.1578 12.6795 44.9807 13.2658 45.1289 13.5762C48.5742 20.8056 48.1715 20.3325 50.8611 27.2275C51.1944 28.0802 52.1823 28.6238 53.1807 28.2454C53.9181 27.9656 54.2028 27.0396 53.9154 26.2962C51.2337 19.3265 50.802 19.7118 47.4289 12.8168L45.7141 12.485H45.7154ZM50.726 22.5882C50.5922 22.6428 50.4321 22.5455 50.3691 22.391C49.8679 21.1372 47.8462 16.1702 47.2072 14.8564C47.0681 14.57 47.5182 14.518 47.6349 14.7339C48.2607 15.9863 50.3481 20.972 50.848 22.2391C50.9018 22.375 50.8585 22.5349 50.726 22.5895V22.5882Z" fill="#B310A7"/>
</g>
<g filter="url(#filter12_f_2212_17624)">
<path d="M27.7949 6.2934C27.7949 6.9382 28.2823 7.45987 28.8834 7.45987C29.4845 7.45987 29.9718 6.9382 29.9718 6.2934V3.80371L27.7949 3.80371L27.7949 6.2934Z" fill="url(#paint14_linear_2212_17624)"/>
</g>
<g opacity="0.7">
<mask id="mask3_2212_17624" style="mask-type:alpha" maskUnits="userSpaceOnUse" x="3" y="6" width="52" height="23">
<path d="M28.9971 28.7834C43.0144 28.7834 51.0333 27.2791 53.5104 26.7249C53.9433 26.6276 54.1795 26.1506 53.9958 25.7402L45.5322 6.74733C45.4075 6.46753 45.1215 6.30232 44.8224 6.33429C43.3647 6.49418 38.5956 6.9192 28.9971 6.9192C19.3986 6.9192 14.6295 6.49418 13.1718 6.33429C12.8714 6.30098 12.5854 6.46753 12.4621 6.74733L8.23022 16.2438L3.99838 25.7402C3.8147 26.1506 4.05086 26.6276 4.48382 26.7249C6.95955 27.2791 14.9798 28.7834 28.9971 28.7834Z" fill="url(#paint15_linear_2212_17624)"/>
</mask>
<g mask="url(#mask3_2212_17624)">
<path d="M28.9971 28.7834C43.0144 28.7834 51.0333 27.2791 53.5104 26.7249C53.9433 26.6276 54.1795 26.1506 53.9958 25.7402L45.5322 6.74733C45.4075 6.46753 45.1215 6.30232 44.8224 6.33429C43.3647 6.49418 38.5956 6.9192 28.9971 6.9192C19.3986 6.9192 14.6295 6.49418 13.1718 6.33429C12.8714 6.30098 12.5854 6.46753 12.4621 6.74733L8.23022 16.2438L3.99838 25.7402C3.8147 26.1506 4.05086 26.6276 4.48382 26.7249C6.95955 27.2791 14.9798 28.7834 28.9971 28.7834Z" fill="url(#paint16_linear_2212_17624)"/>
<g opacity="0.6" filter="url(#filter13_f_2212_17624)">
<path d="M53.1137 -13.3831C54.3729 -6.80554 55.4774 2.81465 51.3942 7.72943C48.0765 11.7228 40.2988 11.5481 34.7223 12.6486C22.2826 15.1036 10.3479 7.42923 8.06539 -4.49264C5.78292 -16.4145 14.017 -28.0693 26.4568 -30.5243C38.8965 -32.9793 50.8312 -25.3049 53.1137 -13.3831Z" fill="#F523F1"/>
</g>
<g opacity="0.6" filter="url(#filter14_f_2212_17624)">
<path d="M84.4555 1.49682C85.7147 8.07434 86.8192 17.6945 82.736 22.6093C79.4183 26.6026 71.6406 26.4279 66.0641 27.5285C53.6244 29.9835 41.6897 22.3091 39.4072 10.3872C37.1247 -1.53463 45.3588 -13.1894 57.7985 -15.6444C70.2383 -18.0995 82.173 -10.4251 84.4555 1.49682Z" fill="#7F38DA"/>
</g>
</g>
</g>
<mask id="mask4_2212_17624" style="mask-type:alpha" maskUnits="userSpaceOnUse" x="3" y="6" width="51" height="23">
<path d="M28.9121 28.7853C42.9295 28.7853 50.9484 27.2811 53.4254 26.7268C53.8584 26.6295 54.0945 26.1526 53.9109 25.7422L45.4472 6.74928C45.3225 6.46948 45.0365 6.30427 44.7374 6.33625C43.2798 6.49613 38.5107 6.92116 28.9121 6.92116C19.3136 6.92116 14.5445 6.49613 13.0869 6.33625C12.7864 6.30294 12.5004 6.46948 12.3771 6.74928L8.14526 16.2457L3.91342 25.7422C3.72974 26.1526 3.9659 26.6295 4.39886 26.7268C6.87459 27.2811 14.8948 28.7853 28.9121 28.7853Z" fill="#D9D9D9"/>
</mask>
<g mask="url(#mask4_2212_17624)">
<g opacity="0.8">
<g filter="url(#filter15_f_2212_17624)">
<path d="M49.8553 17.1955C43.8269 13.4543 36.489 8.49495 29.2166 5.2373H28.932L27.7197 5.45763V6.03988C27.7197 6.30769 27.9231 6.58349 28.297 6.75669C37.7568 11.6688 45.9905 16.9826 48.0425 18.3003C48.9097 18.8573 49.9528 18.7373 50.1981 18.1178C50.2886 17.8886 50.1981 17.7907 50.1981 17.7907L49.8553 17.1955Z" fill="url(#paint17_linear_2212_17624)"/>
</g>
<g filter="url(#filter16_f_2212_17624)">
<path d="M49.8553 16.6008C43.8269 12.8596 36.489 7.90022 29.2166 4.64258H28.932L27.7197 4.86291V5.44515C27.7197 5.71296 27.9231 5.98876 28.297 6.16197C37.7568 11.0741 45.9905 16.3879 48.0425 17.7056C48.9097 18.2625 49.9528 18.1426 50.1981 17.5231C50.2886 17.2939 50.1981 17.196 50.1981 17.196L49.8553 16.6008Z" fill="url(#paint18_linear_2212_17624)"/>
</g>
<g filter="url(#filter17_f_2212_17624)">
<ellipse cx="3.02364" cy="1.82249" rx="3.02364" ry="1.82249" transform="matrix(0.890952 0.454098 -0.443055 0.896494 45.8184 13.1562)" fill="#94198C"/>
</g>
</g>
<g filter="url(#filter18_f_2212_17624)">
<path d="M43.9263 7.3893L43.4317 7.37598C43.3687 7.58383 43.1916 8.17007 43.3399 8.48051C46.7852 15.7099 49.0903 21.7789 51.7799 28.6739C52.1132 29.5266 53.1011 30.0702 54.0995 29.6918C54.8369 29.412 55.1216 28.486 54.8343 27.7426C52.1525 20.7729 49.0129 14.6161 45.6398 7.72106L43.925 7.3893H43.9263ZM51.6448 24.0346C51.511 24.0892 51.3509 23.9919 51.2879 23.8374C50.7868 22.5836 48.765 17.6166 48.126 16.3028C47.987 16.0164 48.437 15.9644 48.5537 16.1803C49.1796 17.4327 51.2669 22.4184 51.7668 23.6855C51.8206 23.8214 51.7773 23.9813 51.6448 24.0359V24.0346Z" fill="url(#paint19_linear_2212_17624)"/>
</g>
<mask id="mask5_2212_17624" style="mask-type:alpha" maskUnits="userSpaceOnUse" x="43" y="6" width="13" height="24">
<path d="M44.0094 6.87856L43.5147 6.86523C43.4518 7.07308 43.2746 7.65933 43.4229 7.96977C46.8682 15.1992 49.1734 21.2681 51.8629 28.1631C52.1962 29.0159 53.1841 29.5595 54.1825 29.1811C54.9199 28.9013 55.2046 27.9753 54.9173 27.2318C52.2355 20.2622 49.0959 14.1053 45.7228 7.21032L44.008 6.87856H44.0094ZM51.7278 23.5238C51.594 23.5785 51.4339 23.4812 51.3709 23.3266C50.8698 22.0729 48.848 17.1058 48.209 15.7921C48.07 15.5056 48.52 15.4537 48.6368 15.6695C49.2626 16.9219 51.35 21.9077 51.8498 23.1748C51.9036 23.3107 51.8603 23.4705 51.7278 23.5252V23.5238Z" fill="url(#paint20_linear_2212_17624)"/>
</mask>
<g mask="url(#mask5_2212_17624)">
<g filter="url(#filter19_d_2212_17624)">
<path d="M44.0094 6.87856L43.5147 6.86523C43.4518 7.07308 43.2746 7.65933 43.4229 7.96977C46.8682 15.1992 49.1734 21.2681 51.8629 28.1631C52.1962 29.0159 53.1841 29.5595 54.1825 29.1811C54.9199 28.9013 55.2046 27.9753 54.9173 27.2318C52.2355 20.2622 49.0959 14.1053 45.7228 7.21032L44.008 6.87856H44.0094ZM51.7278 23.5238C51.594 23.5785 51.4339 23.4812 51.3709 23.3266C50.8698 22.0729 48.848 17.1058 48.209 15.7921C48.07 15.5056 48.52 15.4537 48.6368 15.6695C49.2626 16.9219 51.35 21.9077 51.8498 23.1748C51.9036 23.3107 51.8603 23.4705 51.7278 23.5252V23.5238Z" fill="url(#paint21_linear_2212_17624)"/>
</g>
</g>
</g>
<path d="M44.1334 5.74086L43.6388 5.72754C43.5758 5.93539 43.3987 6.52163 43.5469 6.83207C46.9922 14.0615 49.2974 20.1304 51.987 27.0254C52.3202 27.8782 53.3081 28.4218 54.3066 28.0434C55.0439 27.7636 55.3286 26.8376 55.0413 26.0941C52.3596 19.1245 49.22 12.9676 45.8468 6.07262L44.1321 5.74086H44.1334ZM51.8518 22.3861C51.718 22.4408 51.5579 22.3435 51.495 22.1889C50.9938 20.9352 48.972 15.9681 48.3331 14.6544C48.194 14.3679 48.644 14.316 48.7608 14.5318C49.3866 15.7843 51.474 20.77 51.9738 22.0371C52.0276 22.173 51.9843 22.3328 51.8518 22.3875V22.3861Z" fill="url(#paint22_linear_2212_17624)"/>
<rect width="1.40773" height="10.742" transform="matrix(0.91378 -0.40621 0.395838 0.91832 48.1689 14.2383)" fill="url(#paint23_linear_2212_17624)"/>
<g filter="url(#filter20_iii_2212_17624)">
<path d="M55.1094 26.0023C52.4277 19.0327 49.4836 12.7 46.1105 5.80496C45.4807 4.61782 43.0063 4.8803 43.7594 6.45916C47.2047 13.6886 49.5597 19.8641 52.2506 26.7591C52.5838 27.6118 53.6216 28.0342 54.359 27.7411C55.0911 27.4493 55.3981 26.7471 55.1107 26.0037L55.1094 26.0023ZM52.1141 22.1171C51.9803 22.1718 51.8203 22.0745 51.7573 21.92C51.2561 20.6662 49.2343 15.6991 48.5954 14.3854C48.4563 14.099 48.9063 14.047 49.0231 14.2628C49.6489 15.5153 51.7363 20.501 52.2362 21.7681C52.29 21.904 52.2467 22.0639 52.1141 22.1185V22.1171Z" fill="url(#paint24_linear_2212_17624)"/>
</g>
<path d="M55.0695 26.0177L55.0727 26.026L55.074 26.0273C55.2108 26.3869 55.2043 26.7335 55.0779 27.0247C54.9505 27.3182 54.6999 27.5591 54.3431 27.7013C53.9872 27.8428 53.5555 27.8125 53.1707 27.6407C52.7862 27.4691 52.4524 27.158 52.2905 26.7436C52.0872 26.2228 51.8859 25.7061 51.6859 25.1928C49.2376 18.9098 46.9838 13.1257 43.798 6.44075L43.798 6.44074C43.6139 6.0548 43.6307 5.75815 43.7572 5.54582C43.8848 5.33172 44.1301 5.19273 44.4243 5.13685C45.015 5.02464 45.7687 5.25279 46.0723 5.8244C49.4451 12.7187 52.3885 19.05 55.0695 26.0177ZM51.888 22.1342C51.9439 22.166 52.0079 22.1818 52.0714 22.1728V22.1824L52.1305 22.158C52.2908 22.0919 52.3356 21.9032 52.276 21.7524C51.7761 20.4853 49.6881 15.498 49.0614 14.2437L49.0614 14.2437L49.0607 14.2425C48.9908 14.1132 48.827 14.0695 48.705 14.0938C48.6427 14.1062 48.5829 14.1376 48.5502 14.1934C48.5165 14.251 48.5179 14.3237 48.5569 14.4041L48.5569 14.4041C49.195 15.7161 51.2161 20.6814 51.7176 21.9358L51.7177 21.9361C51.7526 22.0219 51.8147 22.0924 51.888 22.1342Z" stroke="url(#paint25_linear_2212_17624)" stroke-width="0.0855749" stroke-miterlimit="10"/>
<mask id="mask6_2212_17624" style="mask-type:alpha" maskUnits="userSpaceOnUse" x="43" y="5" width="13" height="23">
<path d="M55.1094 26.0023C52.4277 19.0327 49.4836 12.7 46.1105 5.80496C45.4807 4.61782 43.0063 4.8803 43.7594 6.45916C47.2047 13.6886 49.5597 19.8641 52.2506 26.7591C52.5838 27.6118 53.6216 28.0342 54.359 27.7411C55.0911 27.4493 55.3981 26.7471 55.1107 26.0037L55.1094 26.0023ZM52.1141 22.1171C51.9803 22.1718 51.8203 22.0745 51.7573 21.92C51.2561 20.6662 49.2343 15.6991 48.5954 14.3854C48.4563 14.099 48.9063 14.047 49.0231 14.2628C49.6489 15.5153 51.7363 20.501 52.2362 21.7681C52.29 21.904 52.2467 22.0639 52.1141 22.1185V22.1171Z" fill="#D9D9D9"/>
</mask>
<g mask="url(#mask6_2212_17624)">
<g filter="url(#filter21_f_2212_17624)">
<ellipse cx="1.55069" cy="1.70829" rx="1.55069" ry="1.70829" transform="matrix(0.964392 -0.264478 0.256989 0.966414 46.3281 13.5254)" fill="url(#paint26_linear_2212_17624)"/>
</g>
<g filter="url(#filter22_f_2212_17624)">
<ellipse cx="1.29455" cy="1.0556" rx="1.29455" ry="1.0556" transform="matrix(0.989706 0.143117 -0.138858 0.990312 47.5117 13.2432)" fill="url(#paint27_linear_2212_17624)"/>
</g>
</g>
<path d="M27.7539 3.86311C27.7539 4.27482 28.3102 4.60791 28.9964 4.60791C29.6825 4.60791 30.2388 4.27482 30.2388 3.86311V2.27344H27.7539L27.7539 3.86311Z" fill="url(#paint28_linear_2212_17624)"/>
<path d="M49.8002 13.3526C43.2809 8.71194 36.3956 4.90803 29.1232 1.65039L28.765 1.75298L27.5527 2.14337V2.72561C27.5527 2.99342 27.7561 3.26922 28.13 3.44243C37.4543 7.7593 45.8236 13.6684 47.8755 14.9861C48.7427 15.543 49.7858 15.4231 50.0311 14.8035C50.1216 14.5744 50.283 14.1946 50.283 14.1946L49.8002 13.3499V13.3526Z" fill="url(#paint29_linear_2212_17624)"/>
<g filter="url(#filter23_i_2212_17624)">
<path d="M48.0175 14.444C49.0448 15.1328 50.0328 14.8583 50.2834 14.1948C50.4303 13.8071 50.3345 13.2062 49.8005 12.8278C43.2799 8.18851 36.3959 4.38459 29.1222 1.12695L28.764 1.22955C27.7604 0.924433 26.9496 2.31409 28.129 2.92032C35.038 6.13932 40.2086 9.20244 48.0175 14.444Z" fill="url(#paint30_linear_2212_17624)"/>
</g>
<path d="M50.2633 14.1872L50.2633 14.1873C50.1412 14.5107 49.8388 14.741 49.4383 14.8054C49.0379 14.8699 48.5394 14.7682 48.0295 14.4262C40.2201 9.18439 35.0485 6.12066 28.1384 2.9011C27.8478 2.7516 27.6817 2.55501 27.6097 2.35038C27.5376 2.14551 27.559 1.93032 27.6472 1.74227C27.824 1.36562 28.2674 1.10093 28.7578 1.25001L28.7566 1.25392L28.7699 1.25011L29.1206 1.14967C36.3906 4.40612 43.271 8.20839 49.7881 12.8452L49.7882 12.8453C50.3139 13.2178 50.407 13.8083 50.2633 14.1872Z" stroke="url(#paint31_linear_2212_17624)" stroke-width="0.0427875" stroke-miterlimit="10"/>
<mask id="mask7_2212_17624" style="mask-type:alpha" maskUnits="userSpaceOnUse" x="27" y="1" width="24" height="14">
<path d="M48.0185 14.444C49.0458 15.1328 50.0337 14.8583 50.2843 14.1948C50.4313 13.8071 50.3355 13.2062 49.8015 12.8278C43.2809 8.18851 36.3969 4.38459 29.1232 1.12695L28.765 1.22955C27.7613 0.924433 26.9505 2.31409 28.13 2.92032C35.039 6.13932 40.2095 9.20244 48.0185 14.444Z" fill="#D9D9D9"/>
</mask>
<g mask="url(#mask7_2212_17624)">
<g opacity="0.9" filter="url(#filter24_f_2212_17624)">
<path d="M49.5629 15.4525C49.1575 15.7968 48.1431 15.1995 47.6862 14.6447C46.7581 13.6244 47.3885 13.8195 47.5953 13.0717C48.142 12.034 48.6973 12.7028 49.1542 13.2576C49.6111 13.8124 49.9683 15.1081 49.5629 15.4525Z" fill="url(#paint32_linear_2212_17624)"/>
</g>
<g opacity="0.9" filter="url(#filter25_f_2212_17624)">
<path d="M27.9199 2.99647C27.3754 2.45117 28.0192 1.5105 28.4222 1.33846C29.17 0.947374 29.35 0.762308 29.8316 1.23065C30.4804 2.10156 30.2346 2.69691 29.8316 2.86894C29.3432 3.20905 28.5735 3.49427 27.9199 2.99647Z" fill="url(#paint33_linear_2212_17624)"/>
</g>
</g>
<path d="M27.7109 2.13837C27.7109 2.55007 28.2672 2.88317 28.9534 2.88317C29.6396 2.88317 30.1959 2.55007 30.1959 2.13837V1.72168H27.7109L27.7109 2.13837Z" fill="url(#paint34_radial_2212_17624)"/>
<g filter="url(#filter26_i_2212_17624)">
<path d="M28.9534 2.48861C29.6396 2.48861 30.1959 2.15516 30.1959 1.74382C30.1959 1.33248 29.6396 0.999023 28.9534 0.999023C28.2672 0.999023 27.7109 1.33248 27.7109 1.74382C27.7109 2.15516 28.2672 2.48861 28.9534 2.48861Z" fill="url(#paint35_linear_2212_17624)"/>
</g>
<path d="M28.9534 2.48861C29.6396 2.48861 30.1959 2.15516 30.1959 1.74382C30.1959 1.33248 29.6396 0.999023 28.9534 0.999023C28.2672 0.999023 27.7109 1.33248 27.7109 1.74382C27.7109 2.15516 28.2672 2.48861 28.9534 2.48861Z" stroke="url(#paint36_linear_2212_17624)" stroke-width="0.0256725" stroke-miterlimit="10"/>
<path d="M47.7007 12.5615L47.5981 12.8769C47.568 12.9699 47.5502 13.0672 47.5557 13.1658C47.583 13.5937 47.884 14.0535 48.3723 14.3396C49.0262 14.723 49.7771 14.655 50.1013 14.2007C50.1328 14.1563 50.156 14.1049 50.1766 14.0521L50.2942 13.7548L47.7007 12.5615Z" fill="url(#paint37_linear_2212_17624)"/>
<g filter="url(#filter27_ii_2212_17624)">
<path d="M50.2521 13.8497C50.5464 13.3321 50.2291 12.5867 49.5434 12.1846C48.8578 11.7826 48.0634 11.8763 47.7691 12.3939C47.4749 12.9115 47.7922 13.657 48.4778 14.059C49.1635 14.461 49.9579 14.3673 50.2521 13.8497Z" fill="url(#paint38_linear_2212_17624)"/>
</g>
<defs>
<filter id="filter0_f_2212_17624" x="16.0932" y="44.1005" width="25.6602" height="3.9244" filterUnits="userSpaceOnUse" color-interpolation-filters="sRGB">
<feFlood flood-opacity="0" result="BackgroundImageFix"/>
<feBlend mode="normal" in="SourceGraphic" in2="BackgroundImageFix" result="shape"/>
<feGaussianBlur stdDeviation="0.513449" result="effect1_foregroundBlur_2212_17624"/>
</filter>
<filter id="filter1_f_2212_17624" x="16.6697" y="44.447" width="24.6763" height="1.95802" filterUnits="userSpaceOnUse" color-interpolation-filters="sRGB">
<feFlood flood-opacity="0" result="BackgroundImageFix"/>
<feBlend mode="normal" in="SourceGraphic" in2="BackgroundImageFix" result="shape"/>
<feGaussianBlur stdDeviation="0.0855749" result="effect1_foregroundBlur_2212_17624"/>
</filter>
<filter id="filter2_f_2212_17624" x="16.0249" y="31.8647" width="25.8067" height="14.585" filterUnits="userSpaceOnUse" color-interpolation-filters="sRGB">
<feFlood flood-opacity="0" result="BackgroundImageFix"/>
<feBlend mode="normal" in="SourceGraphic" in2="BackgroundImageFix" result="shape"/>
<feGaussianBlur stdDeviation="0.17115" result="effect1_foregroundBlur_2212_17624"/>
</filter>
<filter id="filter3_i_2212_17624" x="16.6201" y="32.0787" width="24.7031" height="12.3539" filterUnits="userSpaceOnUse" color-interpolation-filters="sRGB">
<feFlood flood-opacity="0" result="BackgroundImageFix"/>
<feBlend mode="normal" in="SourceGraphic" in2="BackgroundImageFix" result="shape"/>
<feColorMatrix in="SourceAlpha" type="matrix" values="0 0 0 0 0 0 0 0 0 0 0 0 0 0 0 0 0 0 127 0" result="hardAlpha"/>
<feOffset dy="-0.128362"/>
<feGaussianBlur stdDeviation="0.0855749"/>
<feComposite in2="hardAlpha" operator="arithmetic" k2="-1" k3="1"/>
<feColorMatrix type="matrix" values="0 0 0 0 1 0 0 0 0 1 0 0 0 0 1 0 0 0 0.3 0"/>
<feBlend mode="normal" in2="shape" result="effect1_innerShadow_2212_17624"/>
</filter>
<filter id="filter4_f_2212_17624" x="13.4862" y="25.4647" width="30.8753" height="12.6277" filterUnits="userSpaceOnUse" color-interpolation-filters="sRGB">
<feFlood flood-opacity="0" result="BackgroundImageFix"/>
<feBlend mode="normal" in="SourceGraphic" in2="BackgroundImageFix" result="shape"/>
<feGaussianBlur stdDeviation="1.7115" result="effect1_foregroundBlur_2212_17624"/>
</filter>
<filter id="filter5_dii_2212_17624" x="26.4617" y="35.7419" width="4.96119" height="5.36207" filterUnits="userSpaceOnUse" color-interpolation-filters="sRGB">
<feFlood flood-opacity="0" result="BackgroundImageFix"/>
<feColorMatrix in="SourceAlpha" type="matrix" values="0 0 0 0 0 0 0 0 0 0 0 0 0 0 0 0 0 0 127 0" result="hardAlpha"/>
<feOffset dx="-0.0855749" dy="-0.0855749"/>
<feGaussianBlur stdDeviation="0.0427875"/>
<feComposite in2="hardAlpha" operator="out"/>
<feColorMatrix type="matrix" values="0 0 0 0 0.854902 0 0 0 0 0.823529 0 0 0 0 0.988235 0 0 0 1 0"/>
<feBlend mode="normal" in2="BackgroundImageFix" result="effect1_dropShadow_2212_17624"/>
<feBlend mode="normal" in="SourceGraphic" in2="effect1_dropShadow_2212_17624" result="shape"/>
<feColorMatrix in="SourceAlpha" type="matrix" values="0 0 0 0 0 0 0 0 0 0 0 0 0 0 0 0 0 0 127 0" result="hardAlpha"/>
<feOffset dx="-0.0855749" dy="-0.0855749"/>
<feGaussianBlur stdDeviation="0.0427875"/>
<feComposite in2="hardAlpha" operator="arithmetic" k2="-1" k3="1"/>
<feColorMatrix type="matrix" values="0 0 0 0 0.714209 0 0 0 0 0.388889 0 0 0 0 0.729167 0 0 0 1 0"/>
<feBlend mode="normal" in2="shape" result="effect2_innerShadow_2212_17624"/>
<feColorMatrix in="SourceAlpha" type="matrix" values="0 0 0 0 0 0 0 0 0 0 0 0 0 0 0 0 0 0 127 0" result="hardAlpha"/>
<feOffset dy="-0.0855749"/>
<feGaussianBlur stdDeviation="0.0427875"/>
<feComposite in2="hardAlpha" operator="arithmetic" k2="-1" k3="1"/>
<feColorMatrix type="matrix" values="0 0 0 0 0.776452 0 0 0 0 0.720972 0 0 0 0 0.966667 0 0 0 0.46 0"/>
<feBlend mode="normal" in2="effect2_innerShadow_2212_17624" result="effect3_innerShadow_2212_17624"/>
</filter>
<filter id="filter6_i_2212_17624" x="0" y="3.09618" width="58" height="31.5396" filterUnits="userSpaceOnUse" color-interpolation-filters="sRGB">
<feFlood flood-opacity="0" result="BackgroundImageFix"/>
<feBlend mode="normal" in="SourceGraphic" in2="BackgroundImageFix" result="shape"/>
<feColorMatrix in="SourceAlpha" type="matrix" values="0 0 0 0 0 0 0 0 0 0 0 0 0 0 0 0 0 0 127 0" result="hardAlpha"/>
<feOffset dy="-0.3423"/>
<feGaussianBlur stdDeviation="0.17115"/>
<feComposite in2="hardAlpha" operator="arithmetic" k2="-1" k3="1"/>
<feColorMatrix type="matrix" values="0 0 0 0 0.348991 0 0 0 0 0.0191138 0 0 0 0 0.256625 0 0 0 0.11 0"/>
<feBlend mode="normal" in2="shape" result="effect1_innerShadow_2212_17624"/>
</filter>
<filter id="filter7_iiii_2212_17624" x="0.0673828" y="1.75829" width="58.2212" height="31.4849" filterUnits="userSpaceOnUse" color-interpolation-filters="sRGB">
<feFlood flood-opacity="0" result="BackgroundImageFix"/>
<feBlend mode="normal" in="SourceGraphic" in2="BackgroundImageFix" result="shape"/>
<feColorMatrix in="SourceAlpha" type="matrix" values="0 0 0 0 0 0 0 0 0 0 0 0 0 0 0 0 0 0 127 0" result="hardAlpha"/>
<feOffset dy="0.3423"/>
<feGaussianBlur stdDeviation="0.513449"/>
<feComposite in2="hardAlpha" operator="arithmetic" k2="-1" k3="1"/>
<feColorMatrix type="matrix" values="0 0 0 0 0.47451 0 0 0 0 0.286275 0 0 0 0 0.768627 0 0 0 0.14 0"/>
<feBlend mode="normal" in2="shape" result="effect1_innerShadow_2212_17624"/>
<feColorMatrix in="SourceAlpha" type="matrix" values="0 0 0 0 0 0 0 0 0 0 0 0 0 0 0 0 0 0 127 0" result="hardAlpha"/>
<feOffset dy="-0.3423"/>
<feGaussianBlur stdDeviation="0.513449"/>
<feComposite in2="hardAlpha" operator="arithmetic" k2="-1" k3="1"/>
<feColorMatrix type="matrix" values="0 0 0 0 0.651156 0 0 0 0 0.0323882 0 0 0 0 0.557851 0 0 0 0.57 0"/>
<feBlend mode="normal" in2="effect1_innerShadow_2212_17624" result="effect2_innerShadow_2212_17624"/>
<feColorMatrix in="SourceAlpha" type="matrix" values="0 0 0 0 0 0 0 0 0 0 0 0 0 0 0 0 0 0 127 0" result="hardAlpha"/>
<feOffset dx="0.3423" dy="0.3423"/>
<feGaussianBlur stdDeviation="0.513449"/>
<feComposite in2="hardAlpha" operator="arithmetic" k2="-1" k3="1"/>
<feColorMatrix type="matrix" values="0 0 0 0 0.584314 0 0 0 0 0.152941 0 0 0 0 0.521569 0 0 0 0.14 0"/>
<feBlend mode="normal" in2="effect2_innerShadow_2212_17624" result="effect3_innerShadow_2212_17624"/>
<feColorMatrix in="SourceAlpha" type="matrix" values="0 0 0 0 0 0 0 0 0 0 0 0 0 0 0 0 0 0 127 0" result="hardAlpha"/>
<feOffset dy="-0.17115"/>
<feGaussianBlur stdDeviation="0.17115"/>
<feComposite in2="hardAlpha" operator="arithmetic" k2="-1" k3="1"/>
<feColorMatrix type="matrix" values="0 0 0 0 0.996078 0 0 0 0 0.611765 0 0 0 0 0.976471 0 0 0 1 0"/>
<feBlend mode="normal" in2="effect3_innerShadow_2212_17624" result="effect4_innerShadow_2212_17624"/>
</filter>
<filter id="filter8_f_2212_17624" x="-34.1906" y="-48.7536" width="130.941" height="101.052" filterUnits="userSpaceOnUse" color-interpolation-filters="sRGB">
<feFlood flood-opacity="0" result="BackgroundImageFix"/>
<feBlend mode="normal" in="SourceGraphic" in2="BackgroundImageFix" result="shape"/>
<feGaussianBlur stdDeviation="20.0523" result="effect1_foregroundBlur_2212_17624"/>
</filter>
<filter id="filter9_f_2212_17624" x="34.593" y="-9.84594" width="52.5649" height="68.0068" filterUnits="userSpaceOnUse" color-interpolation-filters="sRGB">
<feFlood flood-opacity="0" result="BackgroundImageFix"/>
<feBlend mode="normal" in="SourceGraphic" in2="BackgroundImageFix" result="shape"/>
<feGaussianBlur stdDeviation="8.55749" result="effect1_foregroundBlur_2212_17624"/>
</filter>
<filter id="filter10_f_2212_17624" x="26.768" y="3.20259" width="24.8272" height="16.2535" filterUnits="userSpaceOnUse" color-interpolation-filters="sRGB">
<feFlood flood-opacity="0" result="BackgroundImageFix"/>
<feBlend mode="normal" in="SourceGraphic" in2="BackgroundImageFix" result="shape"/>
<feGaussianBlur stdDeviation="0.513449" result="effect1_foregroundBlur_2212_17624"/>
</filter>
<filter id="filter11_f_2212_17624" x="44.3867" y="11.7871" width="10.3233" height="17.2652" filterUnits="userSpaceOnUse" color-interpolation-filters="sRGB">
<feFlood flood-opacity="0" result="BackgroundImageFix"/>
<feBlend mode="normal" in="SourceGraphic" in2="BackgroundImageFix" result="shape"/>
<feGaussianBlur stdDeviation="0.3423" result="effect1_foregroundBlur_2212_17624"/>
</filter>
<filter id="filter12_f_2212_17624" x="27.2815" y="3.29026" width="3.20366" height="4.68315" filterUnits="userSpaceOnUse" color-interpolation-filters="sRGB">
<feFlood flood-opacity="0" result="BackgroundImageFix"/>
<feBlend mode="normal" in="SourceGraphic" in2="BackgroundImageFix" result="shape"/>
<feGaussianBlur stdDeviation="0.256725" result="effect1_foregroundBlur_2212_17624"/>
</filter>
<filter id="filter13_f_2212_17624" x="-18.2271" y="-56.8941" width="98.4035" height="95.9127" filterUnits="userSpaceOnUse" color-interpolation-filters="sRGB">
<feFlood flood-opacity="0" result="BackgroundImageFix"/>
<feBlend mode="normal" in="SourceGraphic" in2="BackgroundImageFix" result="shape"/>
<feGaussianBlur stdDeviation="12.9563" result="effect1_foregroundBlur_2212_17624"/>
</filter>
<filter id="filter14_f_2212_17624" x="13.1147" y="-42.0142" width="98.4035" height="95.9127" filterUnits="userSpaceOnUse" color-interpolation-filters="sRGB">
<feFlood flood-opacity="0" result="BackgroundImageFix"/>
<feBlend mode="normal" in="SourceGraphic" in2="BackgroundImageFix" result="shape"/>
<feGaussianBlur stdDeviation="12.9563" result="effect1_foregroundBlur_2212_17624"/>
</filter>
<filter id="filter15_f_2212_17624" x="27.5486" y="5.06615" width="22.8609" height="13.7627" filterUnits="userSpaceOnUse" color-interpolation-filters="sRGB">
<feFlood flood-opacity="0" result="BackgroundImageFix"/>
<feBlend mode="normal" in="SourceGraphic" in2="BackgroundImageFix" result="shape"/>
<feGaussianBlur stdDeviation="0.0855749" result="effect1_foregroundBlur_2212_17624"/>
</filter>
<filter id="filter16_f_2212_17624" x="27.5486" y="4.47143" width="22.8609" height="13.7627" filterUnits="userSpaceOnUse" color-interpolation-filters="sRGB">
<feFlood flood-opacity="0" result="BackgroundImageFix"/>
<feBlend mode="normal" in="SourceGraphic" in2="BackgroundImageFix" result="shape"/>
<feGaussianBlur stdDeviation="0.0855749" result="effect1_foregroundBlur_2212_17624"/>
</filter>
<filter id="filter17_f_2212_17624" x="40.6129" y="9.75006" width="14.1835" height="12.826" filterUnits="userSpaceOnUse" color-interpolation-filters="sRGB">
<feFlood flood-opacity="0" result="BackgroundImageFix"/>
<feBlend mode="normal" in="SourceGraphic" in2="BackgroundImageFix" result="shape"/>
<feGaussianBlur stdDeviation="2.13937" result="effect1_foregroundBlur_2212_17624"/>
</filter>
<filter id="filter18_f_2212_17624" x="43.1111" y="7.20483" width="12.0044" height="22.7803" filterUnits="userSpaceOnUse" color-interpolation-filters="sRGB">
<feFlood flood-opacity="0" result="BackgroundImageFix"/>
<feBlend mode="normal" in="SourceGraphic" in2="BackgroundImageFix" result="shape"/>
<feGaussianBlur stdDeviation="0.0855749" result="effect1_foregroundBlur_2212_17624"/>
</filter>
<filter id="filter19_d_2212_17624" x="43.0229" y="6.86523" width="12.0044" height="22.7803" filterUnits="userSpaceOnUse" color-interpolation-filters="sRGB">
<feFlood flood-opacity="0" result="BackgroundImageFix"/>
<feColorMatrix in="SourceAlpha" type="matrix" values="0 0 0 0 0 0 0 0 0 0 0 0 0 0 0 0 0 0 127 0" result="hardAlpha"/>
<feOffset dx="-0.256725" dy="0.256725"/>
<feGaussianBlur stdDeviation="0.0427875"/>
<feComposite in2="hardAlpha" operator="out"/>
<feColorMatrix type="matrix" values="0 0 0 0 0.698039 0 0 0 0 0.0588235 0 0 0 0 0.65098 0 0 0 1 0"/>
<feBlend mode="normal" in2="BackgroundImageFix" result="effect1_dropShadow_2212_17624"/>
<feBlend mode="normal" in="SourceGraphic" in2="effect1_dropShadow_2212_17624" result="shape"/>
</filter>
<filter id="filter20_iii_2212_17624" x="43.6182" y="4.98083" width="11.6852" height="22.9387" filterUnits="userSpaceOnUse" color-interpolation-filters="sRGB">
<feFlood flood-opacity="0" result="BackgroundImageFix"/>
<feBlend mode="normal" in="SourceGraphic" in2="BackgroundImageFix" result="shape"/>
<feColorMatrix in="SourceAlpha" type="matrix" values="0 0 0 0 0 0 0 0 0 0 0 0 0 0 0 0 0 0 127 0" result="hardAlpha"/>
<feOffset dy="0.0855749"/>
<feGaussianBlur stdDeviation="0.0427875"/>
<feComposite in2="hardAlpha" operator="arithmetic" k2="-1" k3="1"/>
<feColorMatrix type="matrix" values="0 0 0 0 1 0 0 0 0 1 0 0 0 0 1 0 0 0 0.25 0"/>
<feBlend mode="normal" in2="shape" result="effect1_innerShadow_2212_17624"/>
<feColorMatrix in="SourceAlpha" type="matrix" values="0 0 0 0 0 0 0 0 0 0 0 0 0 0 0 0 0 0 127 0" result="hardAlpha"/>
<feOffset dy="0.0855749"/>
<feGaussianBlur stdDeviation="0.0427875"/>
<feComposite in2="hardAlpha" operator="arithmetic" k2="-1" k3="1"/>
<feColorMatrix type="matrix" values="0 0 0 0 1 0 0 0 0 0.733333 0 0 0 0 0.905724 0 0 0 1 0"/>
<feBlend mode="normal" in2="effect1_innerShadow_2212_17624" result="effect2_innerShadow_2212_17624"/>
<feColorMatrix in="SourceAlpha" type="matrix" values="0 0 0 0 0 0 0 0 0 0 0 0 0 0 0 0 0 0 127 0" result="hardAlpha"/>
<feOffset dx="0.0855749" dy="-0.0855749"/>
<feGaussianBlur stdDeviation="0.0427875"/>
<feComposite in2="hardAlpha" operator="arithmetic" k2="-1" k3="1"/>
<feColorMatrix type="matrix" values="0 0 0 0 0.15 0 0 0 0 0.146525 0 0 0 0 0.14375 0 0 0 0.09 0"/>
<feBlend mode="normal" in2="effect2_innerShadow_2212_17624" result="effect3_innerShadow_2212_17624"/>
</filter>
<filter id="filter21_f_2212_17624" x="46.0195" y="12.3799" width="4.48639" height="4.77252" filterUnits="userSpaceOnUse" color-interpolation-filters="sRGB">
<feFlood flood-opacity="0" result="BackgroundImageFix"/>
<feBlend mode="normal" in="SourceGraphic" in2="BackgroundImageFix" result="shape"/>
<feGaussianBlur stdDeviation="0.3423" result="effect1_foregroundBlur_2212_17624"/>
</filter>
<filter id="filter22_f_2212_17624" x="47.0997" y="13.1554" width="3.09353" height="2.63698" filterUnits="userSpaceOnUse" color-interpolation-filters="sRGB">
<feFlood flood-opacity="0" result="BackgroundImageFix"/>
<feBlend mode="normal" in="SourceGraphic" in2="BackgroundImageFix" result="shape"/>
<feGaussianBlur stdDeviation="0.128362" result="effect1_foregroundBlur_2212_17624"/>
</filter>
<filter id="filter23_i_2212_17624" x="27.4593" y="0.955803" width="22.8864" height="13.8894" filterUnits="userSpaceOnUse" color-interpolation-filters="sRGB">
<feFlood flood-opacity="0" result="BackgroundImageFix"/>
<feBlend mode="normal" in="SourceGraphic" in2="BackgroundImageFix" result="shape"/>
<feColorMatrix in="SourceAlpha" type="matrix" values="0 0 0 0 0 0 0 0 0 0 0 0 0 0 0 0 0 0 127 0" result="hardAlpha"/>
<feOffset dx="-0.0855749" dy="-0.17115"/>
<feGaussianBlur stdDeviation="0.17115"/>
<feComposite in2="hardAlpha" operator="arithmetic" k2="-1" k3="1"/>
<feColorMatrix type="matrix" values="0 0 0 0 1 0 0 0 0 1 0 0 0 0 1 0 0 0 0.25 0"/>
<feBlend mode="normal" in2="shape" result="effect1_innerShadow_2212_17624"/>
</filter>
<filter id="filter24_f_2212_17624" x="46.5088" y="11.8432" width="3.91607" height="4.39557" filterUnits="userSpaceOnUse" color-interpolation-filters="sRGB">
<feFlood flood-opacity="0" result="BackgroundImageFix"/>
<feBlend mode="normal" in="SourceGraphic" in2="BackgroundImageFix" result="shape"/>
<feGaussianBlur stdDeviation="0.3423" result="effect1_foregroundBlur_2212_17624"/>
</filter>
<filter id="filter25_f_2212_17624" x="27.3686" y="0.610825" width="3.20511" height="2.99612" filterUnits="userSpaceOnUse" color-interpolation-filters="sRGB">
<feFlood flood-opacity="0" result="BackgroundImageFix"/>
<feBlend mode="normal" in="SourceGraphic" in2="BackgroundImageFix" result="shape"/>
<feGaussianBlur stdDeviation="0.17115" result="effect1_foregroundBlur_2212_17624"/>
</filter>
<filter id="filter26_i_2212_17624" x="27.6982" y="0.986328" width="2.55353" height="1.55792" filterUnits="userSpaceOnUse" color-interpolation-filters="sRGB">
<feFlood flood-opacity="0" result="BackgroundImageFix"/>
<feBlend mode="normal" in="SourceGraphic" in2="BackgroundImageFix" result="shape"/>
<feColorMatrix in="SourceAlpha" type="matrix" values="0 0 0 0 0 0 0 0 0 0 0 0 0 0 0 0 0 0 127 0" result="hardAlpha"/>
<feOffset dx="0.0427875" dy="0.0427875"/>
<feGaussianBlur stdDeviation="0.0427875"/>
<feComposite in2="hardAlpha" operator="arithmetic" k2="-1" k3="1"/>
<feColorMatrix type="matrix" values="0 0 0 0 1 0 0 0 0 1 0 0 0 0 1 0 0 0 0.75 0"/>
<feBlend mode="normal" in2="shape" result="effect1_innerShadow_2212_17624"/>
</filter>
<filter id="filter27_ii_2212_17624" x="47.6164" y="11.8923" width="2.7887" height="2.45911" filterUnits="userSpaceOnUse" color-interpolation-filters="sRGB">
<feFlood flood-opacity="0" result="BackgroundImageFix"/>
<feBlend mode="normal" in="SourceGraphic" in2="BackgroundImageFix" result="shape"/>
<feColorMatrix in="SourceAlpha" type="matrix" values="0 0 0 0 0 0 0 0 0 0 0 0 0 0 0 0 0 0 127 0" result="hardAlpha"/>
<feOffset dx="-0.0427875" dy="-0.0427875"/>
<feGaussianBlur stdDeviation="0.0427875"/>
<feComposite in2="hardAlpha" operator="arithmetic" k2="-1" k3="1"/>
<feColorMatrix type="matrix" values="0 0 0 0 1 0 0 0 0 1 0 0 0 0 1 0 0 0 0.47 0"/>
<feBlend mode="normal" in2="shape" result="effect1_innerShadow_2212_17624"/>
<feColorMatrix in="SourceAlpha" type="matrix" values="0 0 0 0 0 0 0 0 0 0 0 0 0 0 0 0 0 0 127 0" result="hardAlpha"/>
<feOffset dx="0.0427875" dy="0.0427875"/>
<feGaussianBlur stdDeviation="0.0427875"/>
<feComposite in2="hardAlpha" operator="arithmetic" k2="-1" k3="1"/>
<feColorMatrix type="matrix" values="0 0 0 0 1 0 0 0 0 1 0 0 0 0 1 0 0 0 0.41 0"/>
<feBlend mode="normal" in2="effect1_innerShadow_2212_17624" result="effect2_innerShadow_2212_17624"/>
</filter>
<linearGradient id="paint0_linear_2212_17624" x1="29.2318" y1="47.2934" x2="29.2318" y2="45.1275" gradientUnits="userSpaceOnUse">
<stop offset="0.0157386" stop-color="#EFE9FF"/>
<stop offset="1" stop-color="#5F4A94"/>
</linearGradient>
<linearGradient id="paint1_linear_2212_17624" x1="29.3565" y1="42.6548" x2="29.3565" y2="46.2337" gradientUnits="userSpaceOnUse">
<stop offset="0.0157386" stop-color="#D6CCEF"/>
<stop offset="0.714808" stop-color="#5F4A94"/>
<stop offset="1" stop-color="#2D1E52"/>
</linearGradient>
<linearGradient id="paint2_linear_2212_17624" x1="16.3926" y1="45.2978" x2="41.7618" y2="45.0917" gradientUnits="userSpaceOnUse">
<stop stop-color="#E1C5F1"/>
<stop offset="0.0353714" stop-color="#AD72D3"/>
<stop offset="0.0579054" stop-color="#745BBB"/>
<stop offset="0.0822602" stop-color="#5C78BF"/>
<stop offset="0.916316" stop-color="#6168BC"/>
<stop offset="0.926872" stop-color="#817FD9"/>
<stop offset="0.935242" stop-color="#A29AEC"/>
<stop offset="0.944748" stop-color="#D9CEFF"/>
<stop offset="0.954011" stop-color="#E7DFFF"/>
<stop offset="0.966156" stop-color="#E4DCFF"/>
<stop offset="0.972648" stop-color="#D8CAF3"/>
<stop offset="1" stop-color="#A099EB"/>
</linearGradient>
<linearGradient id="paint3_linear_2212_17624" x1="28.9719" y1="32.207" x2="28.9719" y2="44.4328" gradientUnits="userSpaceOnUse">
<stop offset="0.252687" stop-color="#A3A0DF"/>
<stop offset="0.824511" stop-color="#B7B6EC"/>
<stop offset="0.848185" stop-color="#8987C1"/>
<stop offset="0.87186" stop-color="#FFFCFF"/>
<stop offset="0.928314" stop-color="#E2DBF6"/>
<stop offset="1" stop-color="#D1C8EA"/>
</linearGradient>
<linearGradient id="paint4_linear_2212_17624" x1="25.9101" y1="33.1814" x2="30.6657" y2="44.3954" gradientUnits="userSpaceOnUse">
<stop stop-color="#7E7AE0"/>
<stop offset="0.555738" stop-color="#9F9DDD" stop-opacity="0"/>
</linearGradient>
<radialGradient id="paint5_radial_2212_17624" cx="0" cy="0" r="1" gradientUnits="userSpaceOnUse" gradientTransform="translate(28.9829 45.8431) rotate(-89.9707) scale(21.547 13.6931)">
<stop stop-color="#BCB6F4" stop-opacity="0"/>
<stop offset="0.859375" stop-color="#BB8CEF"/>
<stop offset="1" stop-color="#BB8CEF"/>
</radialGradient>
<radialGradient id="paint6_radial_2212_17624" cx="0" cy="0" r="1" gradientUnits="userSpaceOnUse" gradientTransform="translate(28.9661 44.235) rotate(90) scale(6.07943 16.1235)">
<stop offset="0.215444" stop-color="white"/>
<stop offset="0.765938" stop-color="white" stop-opacity="0"/>
</radialGradient>
<linearGradient id="paint7_linear_2212_17624" x1="28.9719" y1="32.207" x2="28.9719" y2="44.4328" gradientUnits="userSpaceOnUse">
<stop offset="0.252687" stop-color="#A3A0DF"/>
<stop offset="0.824511" stop-color="#B7B6EC"/>
<stop offset="0.848185" stop-color="#8987C1"/>
<stop offset="0.87186" stop-color="#FFFCFF"/>
<stop offset="0.928314" stop-color="#E2DBF6"/>
<stop offset="1" stop-color="#D1C8EA"/>
</linearGradient>
<linearGradient id="paint8_linear_2212_17624" x1="25.9101" y1="33.1814" x2="30.6657" y2="44.3954" gradientUnits="userSpaceOnUse">
<stop stop-color="#7E7AE0"/>
<stop offset="0.555738" stop-color="#9F9DDD" stop-opacity="0"/>
</linearGradient>
<radialGradient id="paint9_radial_2212_17624" cx="0" cy="0" r="1" gradientUnits="userSpaceOnUse" gradientTransform="translate(28.9829 45.8431) rotate(-89.9707) scale(21.547 13.6931)">
<stop stop-color="#BCB6F4" stop-opacity="0"/>
<stop offset="0.859375" stop-color="#BB8CEF"/>
<stop offset="1" stop-color="#BB8CEF"/>
</radialGradient>
<radialGradient id="paint10_radial_2212_17624" cx="0" cy="0" r="1" gradientUnits="userSpaceOnUse" gradientTransform="translate(28.9661 44.235) rotate(90) scale(6.07943 16.1235)">
<stop offset="0.215444" stop-color="white"/>
<stop offset="0.765938" stop-color="white" stop-opacity="0"/>
</radialGradient>
<linearGradient id="paint11_linear_2212_17624" x1="27.7217" y1="35.9131" x2="30.8781" y2="41.2152" gradientUnits="userSpaceOnUse">
<stop stop-color="#8184C7"/>
<stop offset="1" stop-color="#9295D2"/>
</linearGradient>
<radialGradient id="paint12_radial_2212_17624" cx="0" cy="0" r="1" gradientUnits="userSpaceOnUse" gradientTransform="translate(28.9951 33.0523) scale(34.97 7.27224)">
<stop stop-color="#FFA1F6"/>
<stop offset="0.348383" stop-color="#FD99F9"/>
<stop offset="0.631055" stop-color="#E884F8"/>
<stop offset="0.793221" stop-color="#DD4DE0"/>
<stop offset="0.94" stop-color="#EF97FD"/>
</radialGradient>
<linearGradient id="paint13_linear_2212_17624" x1="28.9757" y1="-12.8235" x2="28.9757" y2="57.3749" gradientUnits="userSpaceOnUse">
<stop offset="0.0165766" stop-color="#FFF5FF"/>
<stop offset="0.0760544" stop-color="#FFD0FF"/>
<stop offset="0.426135" stop-color="#F745D0"/>
<stop offset="0.748801" stop-color="#AA1FB6"/>
<stop offset="0.902832" stop-color="#A33D92"/>
</linearGradient>
<linearGradient id="paint14_linear_2212_17624" x1="28.8834" y1="3.80371" x2="28.8834" y2="7.45987" gradientUnits="userSpaceOnUse">
<stop stop-color="#CC26BA"/>
<stop offset="0.980578" stop-color="#CC26BA" stop-opacity="0"/>
</linearGradient>
<linearGradient id="paint15_linear_2212_17624" x1="50.736" y1="22.4231" x2="4.81736" y2="8.53578" gradientUnits="userSpaceOnUse">
<stop offset="0.360512" stop-color="#FFA3E1"/>
<stop offset="0.904477" stop-color="#AE008D" stop-opacity="0"/>
</linearGradient>
<linearGradient id="paint16_linear_2212_17624" x1="28.9671" y1="-2.36227" x2="28.998" y2="28.7834" gradientUnits="userSpaceOnUse">
<stop stop-color="#FF67C2"/>
<stop offset="0.213533" stop-color="#F349CE"/>
<stop offset="1" stop-color="#C4009C"/>
</linearGradient>
<linearGradient id="paint17_linear_2212_17624" x1="47.6365" y1="16.7279" x2="28.803" y2="5.0434" gradientUnits="userSpaceOnUse">
<stop stop-color="#A3219C"/>
<stop offset="1" stop-color="#D827BA"/>
</linearGradient>
<linearGradient id="paint18_linear_2212_17624" x1="47.6365" y1="16.1332" x2="28.803" y2="4.44867" gradientUnits="userSpaceOnUse">
<stop stop-color="#B324AD"/>
<stop offset="1" stop-color="#E930C9"/>
</linearGradient>
<linearGradient id="paint19_linear_2212_17624" x1="44.6637" y1="8.05619" x2="50.651" y2="28.882" gradientUnits="userSpaceOnUse">
<stop offset="0.62802" stop-color="#A523A0"/>
<stop offset="1" stop-color="#C21FBC" stop-opacity="0"/>
</linearGradient>
<linearGradient id="paint20_linear_2212_17624" x1="44.9979" y1="6.86523" x2="52.9971" y2="27.7856" gradientUnits="userSpaceOnUse">
<stop offset="0.838968" stop-color="#D9D9D9"/>
<stop offset="0.96946" stop-color="#D9D9D9" stop-opacity="0"/>
</linearGradient>
<linearGradient id="paint21_linear_2212_17624" x1="48.347" y1="20.2145" x2="50.7024" y2="19.2204" gradientUnits="userSpaceOnUse">
<stop offset="0.0892831" stop-color="#D826D0"/>
<stop offset="0.379977" stop-color="#AA159F"/>
</linearGradient>
<linearGradient id="paint22_linear_2212_17624" x1="43.4794" y1="6.01639" x2="49.1241" y2="29.3179" gradientUnits="userSpaceOnUse">
<stop offset="0.349768" stop-color="#A47AE1"/>
<stop offset="0.487494" stop-color="#FF7BED"/>
<stop offset="0.916883" stop-color="#F88EFF"/>
<stop offset="0.960712" stop-color="#A983DB"/>
<stop offset="0.989583" stop-color="#BAA7EB"/>
</linearGradient>
<linearGradient id="paint23_linear_2212_17624" x1="0.104912" y1="5.99758" x2="1.02531" y2="5.98825" gradientUnits="userSpaceOnUse">
<stop offset="0.49061" stop-color="#4A597F"/>
<stop offset="0.698952" stop-color="#354371"/>
</linearGradient>
<linearGradient id="paint24_linear_2212_17624" x1="49.8219" y1="-0.378825" x2="51.0947" y2="29.8363" gradientUnits="userSpaceOnUse">
<stop stop-color="#EAE5FC"/>
<stop offset="1" stop-color="#A7A8D6"/>
</linearGradient>
<linearGradient id="paint25_linear_2212_17624" x1="56.4569" y1="19.492" x2="52.2538" y2="27.4741" gradientUnits="userSpaceOnUse">
<stop offset="0.801763" stop-color="white" stop-opacity="0"/>
<stop offset="0.974476" stop-color="white" stop-opacity="0.73"/>
</linearGradient>
<linearGradient id="paint26_linear_2212_17624" x1="1.86109" y1="0.392429" x2="0.518406" y2="4.27161" gradientUnits="userSpaceOnUse">
<stop offset="0.300313" stop-color="#0C304F"/>
<stop offset="0.77637" stop-color="#0C304F" stop-opacity="0"/>
</linearGradient>
<linearGradient id="paint27_linear_2212_17624" x1="1.55368" y1="0.242493" x2="0.908346" y2="2.76139" gradientUnits="userSpaceOnUse">
<stop offset="0.300313" stop-color="#0C304F"/>
<stop offset="0.77637" stop-color="#0C304F" stop-opacity="0"/>
</linearGradient>
<linearGradient id="paint28_linear_2212_17624" x1="27.3906" y1="1.89077" x2="30.2456" y2="1.95943" gradientUnits="userSpaceOnUse">
<stop offset="0.00520833" stop-color="#D954C6"/>
<stop offset="0.182292" stop-color="#853FA6"/>
<stop offset="0.338542" stop-color="#AD63DE"/>
<stop offset="0.651042" stop-color="#774EAA"/>
<stop offset="0.851223" stop-color="#A85CCC"/>
<stop offset="1" stop-color="#B1D5FF"/>
</linearGradient>
<linearGradient id="paint29_linear_2212_17624" x1="27.3332" y1="2.06253" x2="42.8044" y2="21.3881" gradientUnits="userSpaceOnUse">
<stop stop-color="#CB90D7"/>
<stop offset="0.143869" stop-color="#A85FDA"/>
<stop offset="0.526042" stop-color="#C672F1"/>
<stop offset="0.914207" stop-color="#E987F7"/>
<stop offset="0.953742" stop-color="#8989CB"/>
<stop offset="0.982412" stop-color="#BEB1EC"/>
<stop offset="1" stop-color="#DFDCF2"/>
</linearGradient>
<linearGradient id="paint30_linear_2212_17624" x1="28.8879" y1="1.54579" x2="43.2316" y2="19.1845" gradientUnits="userSpaceOnUse">
<stop stop-color="#F3F5FF"/>
<stop offset="0.174885" stop-color="#F5F2FF"/>
<stop offset="0.668603" stop-color="#CBC8E5"/>
<stop offset="0.93595" stop-color="#BDBBE2"/>
<stop offset="1" stop-color="#D6D2ED"/>
</linearGradient>
<linearGradient id="paint31_linear_2212_17624" x1="49.2268" y1="15.1981" x2="47.9375" y2="12.1512" gradientUnits="userSpaceOnUse">
<stop stop-color="white"/>
<stop offset="1" stop-color="white" stop-opacity="0"/>
</linearGradient>
<linearGradient id="paint32_linear_2212_17624" x1="48.0977" y1="12.2214" x2="49.5175" y2="16.1614" gradientUnits="userSpaceOnUse">
<stop offset="0.317571" stop-color="#150C4F"/>
<stop offset="0.918692" stop-color="#0C304F" stop-opacity="0"/>
</linearGradient>
<linearGradient id="paint33_linear_2212_17624" x1="30.8782" y1="1.27318" x2="27.8236" y2="2.14738" gradientUnits="userSpaceOnUse">
<stop stop-color="#0C304F" stop-opacity="0"/>
<stop offset="0.677509" stop-color="#150C4F"/>
</linearGradient>
<radialGradient id="paint34_radial_2212_17624" cx="0" cy="0" r="1" gradientUnits="userSpaceOnUse" gradientTransform="translate(28.2536 1.55163) rotate(10.854) scale(1.979 2.30606)">
<stop stop-color="#F1A1F0"/>
<stop offset="0.338542" stop-color="#D978CB"/>
<stop offset="0.515625" stop-color="#774EAA"/>
<stop offset="0.776042" stop-color="#2A3C76"/>
<stop offset="1" stop-color="#5C8ECC"/>
</radialGradient>
<linearGradient id="paint35_linear_2212_17624" x1="26.2457" y1="-0.659003" x2="29.8974" y2="2.68595" gradientUnits="userSpaceOnUse">
<stop stop-color="#D9E2F2"/>
<stop offset="0.818299" stop-color="#EFF1F5"/>
</linearGradient>
<linearGradient id="paint36_linear_2212_17624" x1="27.8784" y1="1.29662" x2="29.4013" y2="2.37969" gradientUnits="userSpaceOnUse">
<stop stop-color="#462D7B" stop-opacity="0.33"/>
<stop offset="1" stop-opacity="0"/>
</linearGradient>
<linearGradient id="paint37_linear_2212_17624" x1="47.5495" y1="12.1172" x2="50.0482" y2="12.4059" gradientUnits="userSpaceOnUse">
<stop stop-color="#3D5776"/>
<stop offset="0.0989583" stop-color="#4E386B"/>
<stop offset="0.224289" stop-color="#A554BB"/>
<stop offset="0.319793" stop-color="#D068DF"/>
<stop offset="0.661458" stop-color="#A59EDC"/>
<stop offset="0.869792" stop-color="#C1A6E6"/>
<stop offset="1" stop-color="#BFA9DD"/>
</linearGradient>
<linearGradient id="paint38_linear_2212_17624" x1="47.7691" y1="12.3939" x2="50.2711" y2="13.8163" gradientUnits="userSpaceOnUse">
<stop stop-color="#C4C2E4"/>
<stop offset="0.958333" stop-color="#D6D5F0"/>
</linearGradient>
</defs>
</svg>
