<svg width="19" height="18" viewBox="0 0 19 18" fill="none" xmlns="http://www.w3.org/2000/svg">
<g clip-path="url(#clip0_34_1930)">
<path d="M9.50002 18C14.4706 18 18.5 13.9706 18.5 9.00002C18.5 4.02945 14.4706 0 9.50002 0C4.52945 0 0.5 4.02945 0.5 9.00002C0.5 13.9706 4.52945 18 9.50002 18Z" fill="#4CAF50"/>
<path d="M18.5 9.00003C18.5 13.9501 14.45 18.0001 9.50001 18.0001C6.63127 18.0001 4.10002 16.7063 2.46875 14.6251C3.9875 15.8626 5.95626 16.5938 8.09374 16.5938C13.0438 16.5938 17.0938 12.5438 17.0938 7.5938C17.0938 5.45632 16.3625 3.48756 15.125 1.96881C17.2063 3.6 18.5 6.13126 18.5 9.00003Z" fill="#427972"/>
<path d="M14.3939 6.41252L8.54387 12.825C8.15011 13.2751 7.47513 13.2751 7.08136 12.825L4.60635 10.0688C4.26887 9.67502 4.26887 9.05629 4.6626 8.66252C5.05636 8.32503 5.6751 8.32503 6.06886 8.71876L7.81262 10.6875L12.9314 5.11877C13.3251 4.725 13.9439 4.66876 14.3376 5.06253C14.7314 5.40002 14.7314 6.07503 14.3939 6.41252Z" fill="white"/>
</g>
<defs>
<clipPath id="clip0_34_1930">
<rect width="18" height="18" fill="white" transform="translate(0.5)"/>
</clipPath>
</defs>
</svg>
