<svg width="27" height="18" viewBox="0 0 27 18" fill="none" xmlns="http://www.w3.org/2000/svg">
<g clip-path="url(#clip0_32_1098)">
<path fill-rule="evenodd" clip-rule="evenodd" d="M4.27607 14.0597L6.16881 16.3985C6.19956 16.4365 6.24581 16.4586 6.29469 16.4586H26.4217C26.7353 16.4586 26.9923 16.2046 26.9999 15.8925V15.8818V2.11924V2.107C26.9923 1.79492 26.7353 1.54248 26.4217 1.54248H6.29464C6.24581 1.54248 6.19956 1.56452 6.16881 1.60249L0.260191 8.89861C0.212098 8.95799 0.212098 9.043 0.260191 9.10238L0.72515 9.67665L0.834311 10.2327L1.28076 10.3626L4.27607 14.0597ZM5.17867 7.89133C5.7906 7.89133 6.28778 8.38851 6.28778 9.00049C6.28778 9.55125 5.88542 10.0071 5.35918 10.0944C5.30107 10.1035 5.23985 10.1081 5.17867 10.1081C4.56674 10.1081 4.07109 9.61247 4.07109 9.00049C4.07109 8.38851 4.56674 7.89133 5.17867 7.89133Z" fill="#4CAF50"/>
<path fill-rule="evenodd" clip-rule="evenodd" d="M25.6491 2.11924V15.8818V15.8925C25.6414 16.2046 25.3844 16.4586 25.0708 16.4586H26.4216C26.7353 16.4586 26.9923 16.2046 26.9999 15.8925V15.8818V2.11924V2.107C26.9923 1.79492 26.7353 1.54248 26.4216 1.54248H25.0708C25.3844 1.54248 25.6414 1.79492 25.6491 2.107V2.11924Z" fill="#427972"/>
<path d="M13.15 8.87904C12.1023 8.87904 11.25 7.89686 11.25 6.68952C11.25 5.48218 12.1023 4.5 13.15 4.5C14.1978 4.5 15.0501 5.48218 15.0501 6.68952C15.0501 7.89686 14.1978 8.87904 13.15 8.87904ZM13.15 5.66025C12.749 5.66025 12.4102 6.13158 12.4102 6.68952C12.4102 7.24746 12.749 7.71879 13.15 7.71879C13.5511 7.71879 13.8898 7.24746 13.8898 6.68952C13.8898 6.13158 13.5511 5.66025 13.15 5.66025Z" fill="white"/>
<path d="M14.3099 13.4763C14.2267 13.4763 14.1423 13.4583 14.0622 13.4203C13.7725 13.2833 13.6488 12.9375 13.7859 12.6478L17.4717 4.85741C17.6087 4.56771 17.9542 4.44406 18.2442 4.58108C18.5338 4.71811 18.6575 5.0639 18.5204 5.35353L14.8346 13.1441C14.7355 13.3536 14.5272 13.4763 14.3099 13.4763Z" fill="white"/>
<path d="M19.1554 13.5C18.1077 13.5 17.2554 12.5178 17.2554 11.3105C17.2554 10.1032 18.1077 9.12097 19.1554 9.12097C20.2031 9.12097 21.0555 10.1032 21.0555 11.3105C21.0555 12.5178 20.2031 13.5 19.1554 13.5ZM19.1554 10.2812C18.7544 10.2812 18.4156 10.7525 18.4156 11.3105C18.4156 11.8684 18.7544 12.3398 19.1554 12.3398C19.5564 12.3398 19.8952 11.8684 19.8952 11.3105C19.8952 10.7525 19.5564 10.2812 19.1554 10.2812Z" fill="white"/>
<path d="M5.34587 13.3149C5.08467 13.745 4.81214 14.0958 4.53471 14.3781C3.83202 15.0937 3.0997 15.3673 2.45528 15.3673C2.06294 15.3673 1.70298 15.2664 1.40181 15.1013C0.712624 14.7246 0.224251 13.9809 0.0617768 13.0613C-0.11309 12.0726 0.0849799 10.9565 0.634367 9.83505C0.661367 9.78052 0.691056 9.72546 0.725017 9.67695L0.997548 10.0132L1.28089 10.3623C0.393107 12.3149 0.866398 13.8859 1.79036 14.3911C2.47253 14.7646 3.29123 14.5082 4.01817 13.7408C4.24108 13.5055 4.45476 13.2221 4.65394 12.8945C4.95669 12.3969 5.06732 11.3025 4.95131 10.0839C4.93728 9.9306 4.91893 9.77572 4.89736 9.6192C4.86662 9.3974 5.02097 9.19285 5.24224 9.1621C5.46299 9.13136 5.66802 9.28571 5.69882 9.50751C5.71933 9.65649 5.73716 9.80325 5.75224 9.94843C5.90121 11.4028 5.75498 12.6408 5.34587 13.3149Z" fill="#427972"/>
</g>
<defs>
<clipPath id="clip0_32_1098">
<rect width="27" height="18" fill="white"/>
</clipPath>
</defs>
</svg>
