<svg width="28" height="20" viewBox="0 0 28 20" fill="none" xmlns="http://www.w3.org/2000/svg">
<g clip-path="url(#clip0_582_402)">
<path fill-rule="evenodd" clip-rule="evenodd" d="M4.43469 15.2471L6.39753 17.6725C6.42942 17.7119 6.47738 17.7348 6.52807 17.7348H27.4005C27.7257 17.7348 27.9923 17.4714 28.0002 17.1478V17.1367V2.86441V2.85173C27.9923 2.52809 27.7257 2.2663 27.4005 2.2663H6.52802C6.47738 2.2663 6.42942 2.28916 6.39753 2.32853L0.270072 9.89487C0.220197 9.95645 0.220197 10.0446 0.270072 10.1062L0.752252 10.7017L0.865455 11.2784L1.32844 11.4131L4.43469 15.2471ZM5.37072 8.85029C6.00531 8.85029 6.52091 9.36588 6.52091 10.0005C6.52091 10.5717 6.10364 11.0445 5.55792 11.1349C5.49765 11.1444 5.43416 11.1492 5.37072 11.1492C4.73613 11.1492 4.22212 10.6352 4.22212 10.0005C4.22212 9.36588 4.73613 8.85029 5.37072 8.85029Z" fill="#98BD82"/>
<path fill-rule="evenodd" clip-rule="evenodd" d="M26.5992 2.86441V17.1367V17.1478C26.5913 17.4714 26.3247 17.7348 25.9995 17.7348H27.4004C27.7256 17.7348 27.9922 17.4714 28.0001 17.1478V17.1367V2.86441V2.85173C27.9922 2.52809 27.7256 2.2663 27.4004 2.2663H25.9995C26.3247 2.2663 26.5913 2.52809 26.5992 2.85173V2.86441Z" fill="#89A571"/>
<path d="M13.637 9.8746C12.5505 9.8746 11.6666 8.85604 11.6666 7.60399C11.6666 6.35193 12.5505 5.33337 13.637 5.33337C14.7236 5.33337 15.6075 6.35193 15.6075 7.60399C15.6075 8.85604 14.7236 9.8746 13.637 9.8746ZM13.637 6.5366C13.2212 6.5366 12.8698 7.02538 12.8698 7.60399C12.8698 8.18259 13.2212 8.67137 13.637 8.67137C14.0529 8.67137 14.4042 8.18259 14.4042 7.60399C14.4042 7.02538 14.0529 6.5366 13.637 6.5366Z" fill="#2B4D66"/>
<path d="M14.8399 14.6421C14.7537 14.6421 14.6661 14.6234 14.583 14.5841C14.2826 14.442 14.1544 14.0834 14.2965 13.7829L18.1188 5.704C18.2609 5.40357 18.6192 5.27534 18.9199 5.41744C19.2203 5.55955 19.3485 5.91814 19.2064 6.21849L15.3841 14.2976C15.2813 14.5149 15.0652 14.6421 14.8399 14.6421Z" fill="#2B4D66"/>
<path d="M19.8649 14.6667C18.7784 14.6667 17.8945 13.6482 17.8945 12.3961C17.8945 11.144 18.7784 10.1255 19.8649 10.1255C20.9515 10.1255 21.8354 11.144 21.8354 12.3961C21.8354 13.6482 20.9515 14.6667 19.8649 14.6667ZM19.8649 11.3287C19.4491 11.3287 19.0978 11.8175 19.0978 12.3961C19.0978 12.9747 19.4491 13.4635 19.8649 13.4635C20.2808 13.4635 20.6321 12.9747 20.6321 12.3961C20.6321 11.8175 20.2808 11.3287 19.8649 11.3287Z" fill="#2B4D66"/>
<path d="M5.54386 14.4747C5.27299 14.9207 4.99037 15.2846 4.70266 15.5772C3.97395 16.3194 3.2145 16.6031 2.54622 16.6031C2.13935 16.6031 1.76605 16.4985 1.45373 16.3272C0.739018 15.9366 0.232557 15.1653 0.0640648 14.2117C-0.117279 13.1864 0.0881273 12.029 0.657862 10.866C0.685862 10.8094 0.716651 10.7523 0.751869 10.702L1.03449 11.0507L1.32833 11.4128C0.407666 13.4377 0.898487 15.0669 1.85667 15.5908C2.5641 15.9781 3.41313 15.7122 4.16699 14.9164C4.39816 14.6723 4.61975 14.3785 4.82631 14.0388C5.14027 13.5227 5.255 12.3878 5.13469 11.124C5.12014 10.9651 5.10111 10.8045 5.07874 10.6421C5.04686 10.4121 5.20693 10.2 5.4364 10.1681C5.66532 10.1362 5.87795 10.2963 5.90989 10.5263C5.93116 10.6808 5.94964 10.833 5.96528 10.9836C6.11978 12.4918 5.96813 13.7756 5.54386 14.4747Z" fill="#2B4D66"/>
</g>
<defs>
<clipPath id="clip0_582_402">
<rect width="28" height="18.6667" fill="white" transform="translate(0 0.666687)"/>
</clipPath>
</defs>
</svg>
