<svg width="21" height="21" viewBox="0 0 21 21" fill="none" xmlns="http://www.w3.org/2000/svg">
<path fill-rule="evenodd" clip-rule="evenodd" d="M12.0001 1.57499C12.0001 0.705146 11.3285 0 10.5001 0C9.67168 0 9.0001 0.705146 9.0001 1.57499V1.60577V1.63653V1.66726V1.69797V1.72866V1.75932V1.78996V1.82057V1.85117V1.88173V1.91228V1.9428V1.97329V2.00377V2.03422V2.06465V2.09505V2.12543V2.15579V2.18613V2.21644V2.24674V2.27701V2.30725V2.33748V2.36768V2.39786V2.42802V2.45816V2.48828V2.51837V2.54844V2.5785V2.60853V2.63853V2.66852V2.69849V2.72844V2.75836V2.78827V2.81815V2.84801V2.87786V2.90768V2.93748V2.96726V2.99703V3.02677V3.05649V3.08619V3.11588V3.14554V3.17519V3.20481V3.23442V3.264V3.29357V3.32312V3.35265V3.38216V3.41165V3.44112V3.47058V3.50001V3.52943V3.55883V3.58821V3.61758V3.64692V3.67625V3.70556V3.73485V3.76413V3.79339V3.82263V3.85185V3.88106V3.91024V3.93942V3.96857V3.99771V4.02683V4.05593V4.08502V4.11409V4.14315V4.17219V4.20121V4.23022V4.25921V4.28818V4.31714V4.34609V4.37502V4.40393V4.43283V4.46171V4.49058V4.51943V4.54826V4.57709V4.60589V4.63469V4.66347V4.69223V4.72098V4.74971V4.77843V4.80714V4.83583V4.86451V4.89318V4.92183V4.95046V4.97909V5.0077V5.03629V5.06488V5.09345V5.12201V5.15055V5.17908V5.2076V5.23611V5.2646V5.29308V5.32155V5.35001V5.37845V5.40688V5.4353V5.46371V5.49211V5.52049V5.54886V5.57722V5.60557V5.63391V5.66224V5.69056V5.71886V5.74716V5.77544V5.80371V5.83197V5.86022V5.88846V5.91669V5.94491V5.97312V6.00132V6.02951V6.05769V6.08586V6.11402V6.14217V6.17031V6.19844V6.22657V6.25468V6.28278V6.31088V6.33896V6.36704V6.39511V6.42317V6.45122V6.47926V6.50729V6.53532V6.56334V6.59135V6.61935V6.64734V6.67533V6.7033V6.73127V6.75924V6.78719V6.81514V6.84308V6.87101V6.89894V6.92686V6.95477V6.98268V7.01058V7.03847V7.06635V7.09423V7.12211V7.14997V7.17783V7.20569V7.23354V7.26138V7.28922V7.31705V7.34488V7.3727V7.40051V7.42832V7.45613V7.48393V7.51172V7.53951V7.5673V7.59508V7.62286V7.65063V7.6784V7.70616V7.73392V7.76167V7.78942V7.81717V7.84491V7.87265V7.90039V7.92812V7.95585V7.98357V8.0113V8.03901V8.06673V8.09444V8.12215V8.14986V8.17757V8.20527V8.23297V8.26066V8.28836V8.31605V8.34374V8.37143V8.39912V8.4268V8.45449V8.48217V8.50985V8.53753V8.5652V8.59288V8.62055V8.64823V8.6759V8.70357V8.73124V8.75891V8.78658V8.81425V8.84192V8.86959V8.89726V8.92493V8.9526V8.98027V8.99055H8.99038H8.96612H8.94184H8.91756H8.89326H8.86897H8.84466H8.82034H8.79602H8.7717H8.74736H8.72302H8.69867H8.67432H8.64996H8.62559H8.60122H8.57684H8.55245H8.52806H8.50366H8.47926H8.45485H8.43044H8.40602H8.3816H8.35717H8.33274H8.3083H8.28386H8.25941H8.23496H8.21051H8.18605H8.16158H8.13712H8.11265H8.08817H8.0637H8.03922H8.01473H7.99025H7.96576H7.94127H7.91677H7.89227H7.86777H7.84327H7.81877H7.79426H7.76975H7.74524H7.72073H7.69622H7.67171H7.64719H7.62267H7.59816H7.57364H7.54912H7.5246H7.50008H7.47556H7.45104H7.42652H7.40199H7.37747H7.35295H7.32843H7.30391H7.27939H7.25487H7.23036H7.20584H7.18132H7.15681H7.1323H7.10779H7.08328H7.05877H7.03426H7.00976H6.98526H6.96076H6.93626H6.91177H6.88727H6.86278H6.8383H6.81381H6.78933H6.76486H6.74038H6.71591H6.69145H6.66698H6.64252H6.61807H6.59362H6.56917H6.54473H6.52029H6.49586H6.47143H6.44701H6.42259H6.39818H6.37377H6.34937H6.32497H6.30058H6.27619H6.25181H6.22744H6.20307H6.17871H6.15436H6.13001H6.10567H6.08133H6.05701H6.03268H6.00837H5.98406H5.95977H5.93547H5.91119H5.88691H5.86265H5.83839H5.81413H5.78989H5.76566H5.74143H5.71721H5.693H5.6688H5.64461H5.62043H5.59625H5.57209H5.54794H5.52379H5.49966H5.47553H5.45142H5.42732H5.40322H5.37914H5.35506H5.331H5.30695H5.28291H5.25888H5.23486H5.21085H5.18686H5.16287H5.1389H5.11494H5.09099H5.06705H5.04313H5.01922H4.99532H4.97143H4.94756H4.92369H4.89985H4.87601H4.85219H4.82838H4.80458H4.7808H4.75703H4.73327H4.70953H4.68581H4.66209H4.6384H4.61471H4.59104H4.56739H4.54375H4.52012H4.49651H4.47292H4.44934H4.42577H4.40222H4.37869H4.35517H4.33167H4.30819H4.28472H4.26127H4.23783H4.21441H4.19101H4.16762H4.14425H4.1209H4.09757H4.07425H4.05095H4.02767H4.0044H3.98115H3.95793H3.93471H3.91152H3.88835H3.86519H3.84205H3.81893H3.79583H3.77275H3.74969H3.72665H3.70363H3.68062H3.65764H3.63467H3.61173H3.5888H3.5659H3.54301H3.52015H3.49731H3.47448H3.45168H3.4289H3.40614H3.3834H3.36068H3.33798H3.31531H3.29265H3.27002H3.24741H3.22482H3.20225H3.17971H3.15719H3.13469H3.11221H3.08976H3.06733H3.04492H3.02253H3.00017H2.97783H2.95552H2.93322H2.91096H2.88871H2.86649H2.8443H2.82212H2.79998H2.77785H2.75576H2.73368H2.71163H2.68961H2.66761H2.64564H2.62369H2.60177H2.57987H2.558H2.53615H2.51433H2.49254H2.47077H2.44903H2.42732H2.40563H2.38397H2.36233H2.34073H2.31915H2.29759H2.27607H2.25457H2.2331H2.21166H2.19024H2.16885H2.1475H2.12616H2.10486H2.08359H2.06234H2.04113H2.01994H1.99878H1.97765H1.95655H1.93548H1.91444H1.89343H1.87245H1.85149H1.83057H1.80968H1.78882H1.76799H1.74719H1.72642H1.70568H1.68497H1.66429H1.64364H1.62303H1.60244H1.58189H1.56137H1.54088H1.52043H1.5C0.671573 8.99055 0 9.6957 0 10.5655C0 11.4354 0.671573 12.1405 1.5 12.1405H1.52043H1.54088H1.56137H1.58189H1.60244H1.62303H1.64364H1.66429H1.68497H1.70568H1.72642H1.74719H1.76799H1.78882H1.80968H1.83057H1.85149H1.87245H1.89343H1.91444H1.93548H1.95655H1.97765H1.99878H2.01994H2.04113H2.06234H2.08359H2.10486H2.12616H2.1475H2.16885H2.19024H2.21166H2.2331H2.25457H2.27607H2.29759H2.31915H2.34073H2.36233H2.38397H2.40563H2.42732H2.44903H2.47077H2.49254H2.51433H2.53615H2.558H2.57987H2.60177H2.62369H2.64564H2.66761H2.68961H2.71163H2.73368H2.75576H2.77785H2.79998H2.82212H2.8443H2.86649H2.88871H2.91096H2.93322H2.95552H2.97783H3.00017H3.02253H3.04492H3.06733H3.08976H3.11221H3.13469H3.15719H3.17971H3.20225H3.22482H3.24741H3.27002H3.29265H3.31531H3.33798H3.36068H3.3834H3.40614H3.4289H3.45168H3.47448H3.49731H3.52015H3.54301H3.5659H3.5888H3.61173H3.63467H3.65764H3.68062H3.70363H3.72665H3.74969H3.77275H3.79583H3.81893H3.84205H3.86519H3.88835H3.91152H3.93471H3.95793H3.98115H4.0044H4.02767H4.05095H4.07425H4.09757H4.1209H4.14425H4.16762H4.19101H4.21441H4.23783H4.26127H4.28472H4.30819H4.33167H4.35517H4.37869H4.40222H4.42577H4.44934H4.47292H4.49651H4.52012H4.54375H4.56739H4.59104H4.61471H4.6384H4.66209H4.68581H4.70953H4.73327H4.75703H4.7808H4.80458H4.82838H4.85219H4.87601H4.89985H4.92369H4.94756H4.97143H4.99532H5.01922H5.04313H5.06705H5.09099H5.11494H5.1389H5.16287H5.18686H5.21085H5.23486H5.25888H5.28291H5.30695H5.331H5.35506H5.37914H5.40322H5.42732H5.45142H5.47553H5.49966H5.52379H5.54794H5.57209H5.59625H5.62043H5.64461H5.6688H5.693H5.71721H5.74143H5.76566H5.78989H5.81413H5.83839H5.86265H5.88691H5.91119H5.93547H5.95977H5.98406H6.00837H6.03268H6.05701H6.08133H6.10567H6.13001H6.15436H6.17871H6.20307H6.22744H6.25181H6.27619H6.30058H6.32497H6.34937H6.37377H6.39818H6.42259H6.44701H6.47143H6.49586H6.52029H6.54473H6.56917H6.59362H6.61807H6.64252H6.66698H6.69145H6.71591H6.74038H6.76486H6.78933H6.81381H6.8383H6.86278H6.88727H6.91177H6.93626H6.96076H6.98526H7.00976H7.03426H7.05877H7.08328H7.10779H7.1323H7.15681H7.18132H7.20584H7.23036H7.25487H7.27939H7.30391H7.32843H7.35295H7.37747H7.40199H7.42652H7.45104H7.47556H7.50008H7.5246H7.54912H7.57364H7.59816H7.62267H7.64719H7.67171H7.69622H7.72073H7.74524H7.76975H7.79426H7.81877H7.84327H7.86777H7.89227H7.91677H7.94127H7.96576H7.99025H8.01473H8.03922H8.0637H8.08817H8.11265H8.13712H8.16158H8.18605H8.21051H8.23496H8.25941H8.28386H8.3083H8.33274H8.35717H8.3816H8.40602H8.43044H8.45485H8.47926H8.50366H8.52806H8.55245H8.57684H8.60122H8.62559H8.64996H8.67432H8.69867H8.72302H8.74736H8.7717H8.79602H8.82034H8.84466H8.86897H8.89326H8.91756H8.94184H8.96612H8.99038H9.0001V12.1593V12.1876V12.2159V12.2443V12.2726V12.301V12.3294V12.3578V12.3861V12.4146V12.443V12.4714V12.4999V12.5283V12.5568V12.5853V12.6138V12.6423V12.6708V12.6993V12.7279V12.7564V12.785V12.8136V12.8422V12.8708V12.8994V12.928V12.9567V12.9853V13.014V13.0427V13.0714V13.1001V13.1289V13.1576V13.1864V13.2152V13.244V13.2728V13.3016V13.3304V13.3593V13.3882V13.417V13.4459V13.4748V13.5038V13.5327V13.5617V13.5906V13.6196V13.6486V13.6777V13.7067V13.7358V13.7648V13.7939V13.823V13.8522V13.8813V13.9104V13.9396V13.9688V13.998V14.0272V14.0565V14.0857V14.115V14.1443V14.1736V14.2029V14.2323V14.2616V14.291V14.3204V14.3498V14.3793V14.4087V14.4382V14.4677V14.4972V14.5267V14.5563V14.5859V14.6154V14.645V14.6747V14.7043V14.734V14.7637V14.7934V14.8231V14.8528V14.8826V14.9124V14.9422V14.972V15.0018V15.0317V15.0616V15.0915V15.1214V15.1514V15.1813V15.2113V15.2413V15.2714V15.3014V15.3315V15.3616V15.3917V15.4218V15.452V15.4822V15.5124V15.5426V15.5729V15.6031V15.6334V15.6637V15.6941V15.7244V15.7548V15.7852V15.8156V15.8461V15.8766V15.9071V15.9376V15.9681V15.9987V16.0293V16.0599V16.0905V16.1212V16.1519V16.1826V16.2133V16.2441V16.2749C9.0001 16.3595 8.99949 16.4509 8.99883 16.5477L8.99883 16.5482V16.5482C8.99579 16.9967 8.99197 17.5599 9.04522 18.0912C9.11308 18.7681 9.28314 19.5602 9.75192 20.2985C10.2115 21.0222 11.1428 21.2178 11.8321 20.7353C12.5213 20.2528 12.7076 19.275 12.2481 18.5512C12.1487 18.3946 12.0688 18.1611 12.0287 17.7615C11.9947 17.4222 11.9965 17.0806 11.9988 16.6467L11.9988 16.6461C11.9995 16.5296 12.0001 16.4064 12.0001 16.2749V16.2441V16.2133V16.1826V16.1519V16.1212V16.0905V16.0599V16.0293V15.9987V15.9681V15.9376V15.9071V15.8766V15.8461V15.8156V15.7852V15.7548V15.7244V15.6941V15.6637V15.6334V15.6031V15.5729V15.5426V15.5124V15.4822V15.452V15.4218V15.3917V15.3616V15.3315V15.3014V15.2714V15.2413V15.2113V15.1813V15.1514V15.1214V15.0915V15.0616V15.0317V15.0018V14.972V14.9422V14.9124V14.8826V14.8528V14.8231V14.7934V14.7637V14.734V14.7043V14.6747V14.645V14.6154V14.5859V14.5563V14.5267V14.4972V14.4677V14.4382V14.4087V14.3793V14.3498V14.3204V14.291V14.2616V14.2323V14.2029V14.1736V14.1443V14.115V14.0857V14.0565V14.0272V13.998V13.9688V13.9396V13.9104V13.8813V13.8522V13.823V13.7939V13.7648V13.7358V13.7067V13.6777V13.6486V13.6196V13.5906V13.5617V13.5327V13.5038V13.4748V13.4459V13.417V13.3882V13.3593V13.3304V13.3016V13.2728V13.244V13.2152V13.1864V13.1576V13.1289V13.1001V13.0714V13.0427V13.014V12.9853V12.9567V12.928V12.8994V12.8708V12.8422V12.8136V12.785V12.7564V12.7279V12.6993V12.6708V12.6423V12.6138V12.5853V12.5568V12.5283V12.4999V12.4714V12.443V12.4146V12.3861V12.3578V12.3294V12.301V12.2726V12.2443V12.2159V12.1876V12.1593V12.1405H12.0087H12.0309H12.0531H12.0752H12.0973H12.1193H12.1414H12.1634H12.1854H12.2074H12.2293H12.2513H12.2732H12.295H12.3169H12.3387H12.3605H12.3823H12.404H12.4257H12.4474H12.4691H12.4907H12.5123H12.5339H12.5554H12.577H12.5985H12.6199H12.6414H12.6628H12.6842H12.7055H12.7269H12.7482H12.7694H12.7907H12.8119H12.8331H12.8542H12.8754H12.8965H12.9175H12.9386H12.9596H12.9806H13.0015H13.0225H13.0434H13.0642H13.085H13.1058H13.1266H13.1474H13.1681H13.1887H13.2094H13.23H13.2506H13.2711H13.2917H13.3121H13.3326H13.353H13.3684H13.3837H13.3989H13.4141H13.4293H13.4445H13.4596H13.4747H13.4897H13.5047H13.5196H13.5346H13.5494H13.5643H13.5791H13.5939H13.6086H13.6233H13.638H13.6526H13.6672H13.6818H13.6963H13.7108H13.7252H13.7397H13.7541H13.7684H13.7827H13.797H13.8113H13.8255H13.8396H13.8538H13.8679H13.882H13.896H13.91H13.924H13.938H13.9519H13.9658H13.9796H13.9934H14.0072H14.021H14.0347H14.0484H14.0621H14.0757H14.0893H14.1029H14.1164H14.1299H14.1434H14.1568H14.1702H14.1836H14.197H14.2103H14.2236H14.2368H14.2501H14.2633H14.2765H14.2896H14.3027H14.3158H14.3289H14.3419H14.3549H14.3679H14.3809H14.3938H14.4067H14.4196H14.4324H14.4452H14.458H14.4708H14.4835H14.4962H14.5089H14.5215H14.5342H14.5468H14.5593H14.5719H14.5844H14.5969H14.6094H14.6218H14.6343H14.6467H14.659H14.6714H14.6837H14.696H14.7083H14.7206H14.7328H14.745H14.7572H14.7694H14.7815H14.7936H14.8057H14.8178H14.8298H14.8419H14.8539H14.8658H14.8778H14.8897H14.9017H14.9136H14.9254H14.9373H14.9491H14.9609H14.9727H14.9845H14.9962H15.008H15.0197H15.0314H15.043H15.0547H15.0663H15.0779H15.0895H15.1011H15.1127H15.1242H15.1357H15.1472H15.1587H15.1702H15.1816H15.193H15.2044H15.2158H15.2272H15.2386H15.2499H15.2612H15.2725H15.2838H15.2951H15.3063H15.3176H15.3288H15.34H15.3512H15.3624H15.3736H15.3847H15.3958H15.407H15.4181H15.4291H15.4402H15.4513H15.4623H15.4733H15.4844H15.4954H15.5064H15.5173H15.5283H15.5392H15.5502H15.5611H15.572H15.5829H15.5938H15.6047H15.6155H15.6264H15.6372H15.648H15.6589H15.6697H15.6804H15.6912H15.702H15.7128H15.7235H15.7342H15.745H15.7557H15.7664H15.7771H15.7878H15.7984H15.8091H15.8198H15.8304H15.8411H15.8517H15.8623H15.8729H15.8835H15.8941H15.9047H15.9153H15.9259H15.9364H15.947H15.9576H15.9681H15.9786H15.9892H15.9997H16.0102H16.0207H16.0312H16.0417H16.0522H16.0627H16.0732H16.0837H16.0941H16.1046H16.115H16.1255H16.1359H16.1464H16.1568H16.1673H16.1777H16.1881H16.1986H16.209H16.2194H16.2298H16.2402H16.2506H16.261H16.2714H16.2818H16.2922H16.3026H16.313H16.3234H16.3338H16.3441H16.3545H16.3649H16.3753H16.3857H16.396H16.4064H16.4168H16.4272H16.4375H16.4479H16.4583H16.4687H16.479H16.4894H16.4998H16.5102H16.5205H16.5309H16.5413H16.5517H16.5621H16.5724H16.5828H16.5932H16.6036H16.614H16.6244H16.6348H16.6452H16.6556H16.666H16.6764H16.6868H16.6972H16.7076H16.718H16.7284H16.7389H16.7493H16.7597H16.7702H16.7806H16.791H16.8015H16.812H16.8224H16.8329H16.8434H16.8538H16.8643H16.8748H16.8853H16.8958H16.9063H16.9168H16.9273H16.9379H16.9484H16.9589H16.9695H16.98H16.9906H17.0012H17.0118H17.0223H17.0329H17.0435H17.0541H17.0648H17.0754H17.086H17.0967H17.1073H17.118H17.1287H17.1393H17.15H17.1607H17.1714H17.1822H17.1929H17.2036H17.2144H17.2252H17.2359H17.2467H17.2575H17.2683H17.2791H17.29H17.3008H17.3117H17.3225H17.3334H17.3443H17.3552H17.3661H17.3771H17.388H17.399H17.4099H17.4209H17.4319H17.4429H17.4539H17.465H17.476H17.4871H17.4982H17.5093H17.5204H17.5315H17.5426H17.5538H17.565H17.5761H17.5873H17.5986H17.6098H17.621H17.6323H17.6436H17.6549H17.6662H17.6775H17.6889H17.7003H17.7116H17.723H17.7345H17.7459H17.7573H17.7688H17.7803H17.7918H17.8033H17.8149H17.8265H17.838H17.8496H17.8613H17.8729H17.8846H17.8962H17.9079H17.9197H17.9314H17.9432H17.9549H17.9667H17.9786H17.9904H18.0023H18.0142H18.0261H18.038H18.0499H18.0619H18.0739H18.0859H18.098H18.11H18.1221H18.1342H18.1463H18.1585H18.1707H18.1829H18.1951H18.2073H18.2196H18.2319H18.2442H18.2565H18.2689H18.2813H18.2937H18.3061H18.3186H18.3311H18.3436H18.3561H18.3687H18.3813H18.3939H18.4066H18.4192H18.4319H18.4446H18.4574H18.4702H18.483H18.4958H18.5086H18.5215H18.5344H18.5474H18.5603H18.5733H18.5863H18.5994H18.6125H18.6256H18.6387H18.6519H18.6651H18.6783H18.6915H18.7048H18.7181H18.7315H18.7448H18.7582H18.7717H18.7851H18.7986H18.8121H18.8257H18.8393H18.8529H18.8665H18.8802H18.8939H18.9076H18.9214H18.9352H18.949H18.9629H18.9768H18.9907H19.0047H19.0187H19.0327H19.0468H19.0609H19.075H19.0892H19.1034H19.1176H19.1319H19.1462H19.1605H19.1749H19.1893H19.2037H19.2182H19.2327H19.2472H19.2618H19.2764H19.2911H19.3058H19.3205H19.3352H19.35H19.3649H19.3797H19.3946H19.4096H19.4246H19.4396H19.4546H19.4697H19.4848H19.5C20.3284 12.1405 21 11.4354 21 10.5655C21 9.6957 20.3284 8.99055 19.5 8.99055H19.4848H19.4697H19.4546H19.4396H19.4246H19.4096H19.3946H19.3797H19.3649H19.35H19.3352H19.3205H19.3058H19.2911H19.2764H19.2618H19.2472H19.2327H19.2182H19.2037H19.1893H19.1749H19.1605H19.1462H19.1319H19.1176H19.1034H19.0892H19.075H19.0609H19.0468H19.0327H19.0187H19.0047H18.9907H18.9768H18.9629H18.949H18.9352H18.9214H18.9076H18.8939H18.8802H18.8665H18.8529H18.8393H18.8257H18.8121H18.7986H18.7851H18.7717H18.7582H18.7448H18.7315H18.7181H18.7048H18.6915H18.6783H18.6651H18.6519H18.6387H18.6256H18.6125H18.5994H18.5863H18.5733H18.5603H18.5474H18.5344H18.5215H18.5086H18.4958H18.483H18.4702H18.4574H18.4446H18.4319H18.4192H18.4066H18.3939H18.3813H18.3687H18.3561H18.3436H18.3311H18.3186H18.3061H18.2937H18.2813H18.2689H18.2565H18.2442H18.2319H18.2196H18.2073H18.1951H18.1829H18.1707H18.1585H18.1463H18.1342H18.1221H18.11H18.098H18.0859H18.0739H18.0619H18.0499H18.038H18.0261H18.0142H18.0023H17.9904H17.9786H17.9667H17.9549H17.9432H17.9314H17.9197H17.9079H17.8962H17.8846H17.8729H17.8613H17.8496H17.838H17.8265H17.8149H17.8033H17.7918H17.7803H17.7688H17.7573H17.7459H17.7345H17.723H17.7116H17.7003H17.6889H17.6775H17.6662H17.6549H17.6436H17.6323H17.621H17.6098H17.5986H17.5873H17.5761H17.565H17.5538H17.5426H17.5315H17.5204H17.5093H17.4982H17.4871H17.476H17.465H17.4539H17.4429H17.4319H17.4209H17.4099H17.399H17.388H17.3771H17.3661H17.3552H17.3443H17.3334H17.3225H17.3117H17.3008H17.29H17.2791H17.2683H17.2575H17.2467H17.2359H17.2252H17.2144H17.2036H17.1929H17.1822H17.1714H17.1607H17.15H17.1393H17.1287H17.118H17.1073H17.0967H17.086H17.0754H17.0648H17.0541H17.0435H17.0329H17.0223H17.0118H17.0012H16.9906H16.98H16.9695H16.9589H16.9484H16.9379H16.9273H16.9168H16.9063H16.8958H16.8853H16.8748H16.8643H16.8538H16.8434H16.8329H16.8224H16.812H16.8015H16.791H16.7806H16.7702H16.7597H16.7493H16.7389H16.7284H16.718H16.7076H16.6972H16.6868H16.6764H16.666H16.6556H16.6452H16.6348H16.6244H16.614H16.6036H16.5932H16.5828H16.5724H16.5621H16.5517H16.5413H16.5309H16.5205H16.5102H16.4998H16.4894H16.479H16.4687H16.4583H16.4479H16.4375H16.4272H16.4168H16.4064H16.396H16.3857H16.3753H16.3649H16.3545H16.3441H16.3338H16.3234H16.313H16.3026H16.2922H16.2818H16.2714H16.261H16.2506H16.2402H16.2298H16.2194H16.209H16.1986H16.1881H16.1777H16.1673H16.1568H16.1464H16.1359H16.1255H16.115H16.1046H16.0941H16.0837H16.0732H16.0627H16.0522H16.0417H16.0312H16.0207H16.0102H15.9997H15.9892H15.9786H15.9681H15.9576H15.947H15.9364H15.9259H15.9153H15.9047H15.8941H15.8835H15.8729H15.8623H15.8517H15.8411H15.8304H15.8198H15.8091H15.7984H15.7878H15.7771H15.7664H15.7557H15.745H15.7342H15.7235H15.7128H15.702H15.6912H15.6804H15.6697H15.6589H15.648H15.6372H15.6264H15.6155H15.6047H15.5938H15.5829H15.572H15.5611H15.5502H15.5392H15.5283H15.5173H15.5064H15.4954H15.4844H15.4733H15.4623H15.4513H15.4402H15.4291H15.4181H15.407H15.3958H15.3847H15.3736H15.3624H15.3512H15.34H15.3288H15.3176H15.3063H15.2951H15.2838H15.2725H15.2612H15.2499H15.2386H15.2272H15.2158H15.2044H15.193H15.1816H15.1702H15.1587H15.1472H15.1357H15.1242H15.1127H15.1011H15.0895H15.0779H15.0663H15.0547H15.043H15.0314H15.0197H15.008H14.9962H14.9845H14.9727H14.9609H14.9491H14.9373H14.9254H14.9136H14.9017H14.8897H14.8778H14.8658H14.8539H14.8419H14.8298H14.8178H14.8057H14.7936H14.7815H14.7694H14.7572H14.745H14.7328H14.7206H14.7083H14.696H14.6837H14.6714H14.659H14.6467H14.6343H14.6218H14.6094H14.5969H14.5844H14.5719H14.5593H14.5468H14.5342H14.5215H14.5089H14.4962H14.4835H14.4708H14.458H14.4452H14.4324H14.4196H14.4067H14.3938H14.3809H14.3679H14.3549H14.3419H14.3289H14.3158H14.3027H14.2896H14.2765H14.2633H14.2501H14.2368H14.2236H14.2103H14.197H14.1836H14.1702H14.1568H14.1434H14.1299H14.1164H14.1029H14.0893H14.0757H14.0621H14.0484H14.0347H14.021H14.0072H13.9934H13.9796H13.9658H13.9519H13.938H13.924H13.91H13.896H13.882H13.8679H13.8538H13.8396H13.8255H13.8113H13.797H13.7827H13.7684H13.7541H13.7397H13.7252H13.7108H13.6963H13.6818H13.6672H13.6526H13.638H13.6233H13.6086H13.5939H13.5791H13.5643H13.5494H13.5346H13.5196H13.5047H13.4897H13.4747H13.4596H13.4445H13.4293H13.4141H13.3989H13.3837H13.3684H13.353H13.3326H13.3121H13.2917H13.2711H13.2506H13.23H13.2094H13.1887H13.1681H13.1474H13.1266H13.1058H13.085H13.0642H13.0434H13.0225H13.0015H12.9806H12.9596H12.9386H12.9175H12.8965H12.8754H12.8542H12.8331H12.8119H12.7907H12.7694H12.7482H12.7269H12.7055H12.6842H12.6628H12.6414H12.6199H12.5985H12.577H12.5554H12.5339H12.5123H12.4907H12.4691H12.4474H12.4257H12.404H12.3823H12.3605H12.3387H12.3169H12.295H12.2732H12.2513H12.2293H12.2074H12.1854H12.1634H12.1414H12.1193H12.0973H12.0752H12.0531H12.0309H12.0087H12.0001V8.98027V8.9526V8.92493V8.89726V8.86959V8.84192V8.81425V8.78658V8.75891V8.73124V8.70357V8.6759V8.64823V8.62055V8.59288V8.5652V8.53753V8.50985V8.48217V8.45449V8.4268V8.39912V8.37143V8.34374V8.31605V8.28836V8.26066V8.23297V8.20527V8.17757V8.14986V8.12215V8.09444V8.06673V8.03901V8.0113V7.98357V7.95585V7.92812V7.90039V7.87265V7.84491V7.81717V7.78942V7.76167V7.73392V7.70616V7.6784V7.65063V7.62286V7.59508V7.5673V7.53951V7.51172V7.48393V7.45613V7.42832V7.40051V7.3727V7.34488V7.31705V7.28922V7.26138V7.23354V7.20569V7.17783V7.14997V7.12211V7.09423V7.06635V7.03847V7.01058V6.98268V6.95477V6.92686V6.89894V6.87101V6.84308V6.81514V6.78719V6.75924V6.73127V6.7033V6.67533V6.64734V6.61935V6.59135V6.56334V6.53532V6.50729V6.47926V6.45122V6.42317V6.39511V6.36704V6.33896V6.31088V6.28278V6.25468V6.22657V6.19844V6.17031V6.14217V6.11402V6.08586V6.05769V6.02951V6.00132V5.97312V5.94491V5.91669V5.88846V5.86022V5.83197V5.80371V5.77544V5.74716V5.71886V5.69056V5.66224V5.63391V5.60557V5.57722V5.54886V5.52049V5.49211V5.46371V5.4353V5.40688V5.37845V5.35001V5.32155V5.29308V5.2646V5.23611V5.2076V5.17908V5.15055V5.12201V5.09345V5.06488V5.03629V5.0077V4.97909V4.95046V4.92183V4.89318V4.86451V4.83583V4.80714V4.77843V4.74971V4.72098V4.69223V4.66347V4.63469V4.60589V4.57709V4.54826V4.51943V4.49058V4.46171V4.43283V4.40393V4.37502V4.34609V4.31714V4.28818V4.25921V4.23022V4.20121V4.17219V4.14315V4.11409V4.08502V4.05593V4.02683V3.99771V3.96857V3.93942V3.91024V3.88106V3.85185V3.82263V3.79339V3.76413V3.73485V3.70556V3.67625V3.64692V3.61758V3.58821V3.55883V3.52943V3.50001V3.47058V3.44112V3.41165V3.38216V3.35265V3.32312V3.29357V3.264V3.23442V3.20481V3.17519V3.14554V3.11588V3.08619V3.05649V3.02677V2.99703V2.96726V2.93748V2.90768V2.87786V2.84801V2.81815V2.78827V2.75836V2.72844V2.69849V2.66852V2.63853V2.60853V2.5785V2.54844V2.51837V2.48828V2.45816V2.42802V2.39786V2.36768V2.33748V2.30725V2.27701V2.24674V2.21644V2.18613V2.15579V2.12543V2.09505V2.06465V2.03422V2.00377V1.97329V1.9428V1.91228V1.88173V1.85117V1.82057V1.78996V1.75932V1.72866V1.69797V1.66726V1.63653V1.60577V1.57499Z" fill="#F9BF07"/>
</svg>
