<svg width="31" height="31" viewBox="0 0 31 31" fill="none" xmlns="http://www.w3.org/2000/svg">
<circle cx="15.5" cy="15.5" r="15" stroke="#87A4B6"/>
<circle cx="15.5" cy="15.5" r="13" fill="#1E415F" stroke="#ECECEC" stroke-width="3"/>
<path d="M14.4946 14.5664H15.4722C15.9377 14.5664 16.2826 14.45 16.5068 14.2173C16.7311 13.9845 16.8433 13.6756 16.8433 13.2905C16.8433 12.9181 16.7311 12.6283 16.5068 12.4209C16.2868 12.2135 15.9821 12.1099 15.5928 12.1099C15.2415 12.1099 14.9474 12.2072 14.7104 12.4019C14.4735 12.5923 14.355 12.842 14.355 13.1509H12.5205C12.5205 12.6685 12.6496 12.2368 12.9077 11.856C13.1701 11.4709 13.534 11.1704 13.9995 10.9546C14.4692 10.7388 14.9855 10.6309 15.5483 10.6309C16.5259 10.6309 17.2918 10.8657 17.8462 11.3354C18.4006 11.8009 18.6777 12.4442 18.6777 13.2651C18.6777 13.6883 18.5487 14.0776 18.2905 14.4331C18.0324 14.7886 17.6938 15.0615 17.2749 15.252C17.7954 15.4382 18.1826 15.7174 18.4365 16.0898C18.6947 16.4622 18.8237 16.9023 18.8237 17.4102C18.8237 18.2311 18.5233 18.8892 17.9224 19.3843C17.3257 19.8794 16.5343 20.127 15.5483 20.127C14.6258 20.127 13.8704 19.8836 13.2822 19.397C12.6982 18.9103 12.4062 18.2671 12.4062 17.4673H14.2407C14.2407 17.8143 14.3698 18.0978 14.6279 18.3179C14.8903 18.5379 15.2119 18.6479 15.5928 18.6479C16.0286 18.6479 16.3693 18.5337 16.6147 18.3052C16.8644 18.0724 16.9893 17.7656 16.9893 17.3848C16.9893 16.4622 16.4814 16.001 15.4658 16.001H14.4946V14.5664Z" fill="white"/>
</svg>
