<svg width="31" height="31" viewBox="0 0 31 31" fill="none" xmlns="http://www.w3.org/2000/svg">
<circle cx="15.5" cy="15.5" r="15" stroke="#87A4B6"/>
<circle cx="15.5" cy="15.5" r="13" fill="#1E415F" stroke="#ECECEC" stroke-width="3"/>
<path d="M18.9634 20H12.6284V18.7432L15.6182 15.5566C16.0286 15.1081 16.3312 14.7166 16.5259 14.3823C16.7248 14.048 16.8242 13.7306 16.8242 13.4302C16.8242 13.0197 16.7205 12.6981 16.5132 12.4653C16.3058 12.2284 16.0096 12.1099 15.6245 12.1099C15.2098 12.1099 14.8818 12.2537 14.6406 12.5415C14.4036 12.825 14.2852 13.1995 14.2852 13.665H12.4443C12.4443 13.1022 12.5776 12.5881 12.8442 12.1226C13.1151 11.6571 13.4959 11.2931 13.9868 11.0308C14.4777 10.7642 15.0342 10.6309 15.6562 10.6309C16.6084 10.6309 17.3468 10.8594 17.8716 11.3164C18.4006 11.7734 18.665 12.4188 18.665 13.2524C18.665 13.7095 18.5465 14.175 18.3096 14.6489C18.0726 15.1229 17.6663 15.6751 17.0908 16.3057L14.9897 18.521H18.9634V20Z" fill="white"/>
</svg>
