<svg width="92" height="24" viewBox="0 0 92 24" fill="none" xmlns="http://www.w3.org/2000/svg">
<g clip-path="url(#clip0_319_570)">
<path d="M70.844 6.30933H65.9329C65.644 6.30933 65.3551 6.60494 65.2107 6.90056L63.1885 19.9078C63.1885 20.2034 63.3329 20.3512 63.6218 20.3512H66.2218C66.5107 20.3512 66.6551 20.2034 66.6551 19.9078L67.2329 16.2126C67.2329 15.9169 67.5218 15.6213 67.9551 15.6213H69.544C72.8663 15.6213 74.744 13.9954 75.1774 10.7436C75.4663 9.41333 75.1774 8.23085 74.5996 7.4918C73.7329 6.75276 72.4329 6.30933 70.844 6.30933ZM71.4218 11.187C71.1329 12.9608 69.8329 12.9608 68.5329 12.9608H67.6663L68.244 9.56114C68.244 9.41333 68.3885 9.26552 68.6774 9.26552H68.9663C69.8329 9.26552 70.6996 9.26552 71.1329 9.85675C71.4218 10.0046 71.4218 10.448 71.4218 11.187Z" fill="#139AD6"/>
<path d="M35.4554 6.30933H30.5442C30.2554 6.30933 29.9665 6.60494 29.822 6.90056L27.7998 19.9078C27.7998 20.2034 27.9443 20.3512 28.2331 20.3512H30.5442C30.8331 20.3512 31.122 20.0556 31.2665 19.76L31.8443 16.2126C31.8443 15.9169 32.1331 15.6213 32.5665 15.6213H34.1554C37.4776 15.6213 39.3554 13.9954 39.7887 10.7436C40.0776 9.41333 39.7887 8.23085 39.2109 7.4918C38.3442 6.75276 37.1887 6.30933 35.4554 6.30933ZM36.0331 11.187C35.7443 12.9608 34.4443 12.9608 33.1442 12.9608H32.422L32.9998 9.56114C32.9998 9.41333 33.1442 9.26552 33.4331 9.26552H33.722C34.5887 9.26552 35.4554 9.26552 35.8887 9.85675C36.0331 10.0046 36.1776 10.448 36.0331 11.187Z" fill="#263B80"/>
<path d="M50.3328 11.0393H48.0217C47.8773 11.0393 47.5884 11.1871 47.5884 11.3349L47.4439 12.0739L47.2995 11.7783C46.7217 11.0393 45.7106 10.7437 44.5551 10.7437C41.9551 10.7437 39.6439 12.813 39.2106 15.6214C38.9217 17.0995 39.3551 18.4297 40.0773 19.3166C40.7995 20.2035 41.8106 20.4991 43.1106 20.4991C45.2773 20.4991 46.4328 19.1688 46.4328 19.1688L46.2884 19.9078C46.2884 20.2035 46.4328 20.3513 46.7217 20.3513H48.8884C49.1773 20.3513 49.4662 20.0557 49.6106 19.76L50.9106 11.4827C50.7662 11.3349 50.4773 11.0393 50.3328 11.0393ZM47.0106 15.7692C46.7217 17.0995 45.7106 18.1341 44.2662 18.1341C43.5439 18.1341 42.9662 17.8385 42.6773 17.5429C42.3884 17.0995 42.2439 16.5082 42.2439 15.7692C42.3884 14.4389 43.5439 13.4042 44.8439 13.4042C45.5662 13.4042 45.9995 13.6998 46.4328 13.9955C46.8662 14.4389 47.0106 15.1779 47.0106 15.7692Z" fill="#263B80"/>
<path d="M85.5779 11.0392H83.2668C83.1224 11.0392 82.8335 11.187 82.8335 11.3348L82.6891 12.0738L82.5446 11.7782C81.9668 11.0392 80.9557 10.7435 79.8002 10.7435C77.2002 10.7435 74.8891 12.8129 74.4557 15.6212C74.1668 17.0993 74.6002 18.4296 75.3224 19.3165C76.0446 20.2033 77.0557 20.499 78.3557 20.499C80.5224 20.499 81.6779 19.1687 81.6779 19.1687L81.5335 19.9077C81.5335 20.2033 81.6779 20.3512 81.9668 20.3512H84.1335C84.4224 20.3512 84.7113 20.0555 84.8557 19.7599L86.1557 11.4826C86.0113 11.3348 85.8668 11.0392 85.5779 11.0392ZM82.2557 15.7691C81.9668 17.0993 80.9557 18.134 79.5113 18.134C78.7891 18.134 78.2113 17.8384 77.9224 17.5428C77.6335 17.0993 77.4891 16.5081 77.4891 15.7691C77.6335 14.4388 78.7891 13.4041 80.0891 13.4041C80.8113 13.4041 81.2446 13.6997 81.6779 13.9953C82.2557 14.4388 82.4002 15.1778 82.2557 15.7691Z" fill="#139AD6"/>
<path d="M62.8996 11.0393H60.444C60.1551 11.0393 60.0107 11.1871 59.8662 11.3349L56.6885 16.3605L55.244 11.6305C55.0996 11.3349 54.9551 11.1871 54.5218 11.1871H52.2107C51.9218 11.1871 51.7773 11.4827 51.7773 11.7784L54.3773 19.6123L51.9218 23.1597C51.7773 23.4553 51.9218 23.8987 52.2107 23.8987H54.5218C54.8107 23.8987 54.9551 23.7509 55.0996 23.6031L63.044 11.9262C63.4773 11.4827 63.1885 11.0393 62.8996 11.0393Z" fill="#263B80"/>
<path d="M88.322 6.75278L86.2998 20.0556C86.2998 20.3513 86.4442 20.4991 86.7331 20.4991H88.7554C89.0442 20.4991 89.3331 20.2034 89.4776 19.9078L91.4998 6.90058C91.4998 6.60496 91.3554 6.45716 91.0665 6.45716H88.7554C88.6109 6.30935 88.4665 6.45716 88.322 6.75278Z" fill="#139AD6"/>
<path d="M17.1111 1.87491C16.1 0.692433 14.2222 0.101196 11.6222 0.101196H4.4C3.96667 0.101196 3.53333 0.544623 3.38889 0.988051L0.5 20.3511C0.5 20.7945 0.788889 21.0902 1.07778 21.0902H5.55556L6.71111 13.8475V14.1431C6.85556 13.6997 7.28889 13.2562 7.72222 13.2562H9.88889C14.0778 13.2562 17.2556 11.4825 18.2667 6.60482C18.2667 6.45701 18.2667 6.30919 18.2667 6.16138C18.1222 6.16138 18.1222 6.16138 18.2667 6.16138C18.4111 4.23986 18.1222 3.05739 17.1111 1.87491Z" fill="#263B80"/>
<path d="M18.1221 6.1615C18.1221 6.30931 18.1221 6.45712 18.1221 6.60493C17.111 11.6305 13.9332 13.2564 9.74429 13.2564H7.57763C7.14429 13.2564 6.71096 13.6998 6.56651 14.1432L5.12207 23.1596C5.12207 23.4552 5.26651 23.7508 5.69985 23.7508H9.4554C9.88874 23.7508 10.3221 23.4552 10.3221 23.0118V22.864L11.0443 18.2819V17.9863C11.0443 17.5428 11.4776 17.2472 11.911 17.2472H12.4887C16.0998 17.2472 18.9887 15.7691 19.711 11.3348C19.9998 9.56112 19.8554 7.93521 18.9887 6.90055C18.8443 6.60493 18.5554 6.30931 18.1221 6.1615Z" fill="#139AD6"/>
<path d="M17.1109 5.71809C16.9665 5.71809 16.822 5.57028 16.6776 5.57028C16.5332 5.57028 16.3887 5.57027 16.2443 5.42247C15.6665 5.27466 15.0887 5.27466 14.3665 5.27466H8.73316C8.58871 5.27466 8.44427 5.27466 8.29983 5.42247C8.01094 5.57027 7.86649 5.86589 7.86649 6.16151L6.71094 13.8476V14.1432C6.85538 13.6998 7.28872 13.2564 7.72205 13.2564H9.88872C14.0776 13.2564 17.2554 11.4827 18.2665 6.60494C18.2665 6.45713 18.2665 6.30932 18.4109 6.16151C18.122 6.0137 17.9776 5.8659 17.6887 5.8659C17.2554 5.71809 17.2554 5.71809 17.1109 5.71809Z" fill="#232C65"/>
</g>
<defs>
<clipPath id="clip0_319_570">
<rect width="91" height="24" fill="white" transform="translate(0.5)"/>
</clipPath>
</defs>
</svg>
