<svg width="59" height="37" viewBox="0 0 59 37" fill="none" xmlns="http://www.w3.org/2000/svg">
<g clip-path="url(#clip0_1413_5098)">
<path d="M0.935119 21.6085C0.777039 21.6159 0.6219 21.5633 0.501318 21.4605C0.398382 21.3369 0.35059 21.1763 0.368972 21.0165V5.92047C0.35059 5.76063 0.398382 5.60005 0.501318 5.47647C0.623371 5.38323 0.774833 5.33883 0.927767 5.35067H2.56004C2.86884 5.31959 3.14677 5.53789 3.19236 5.84647L3.35411 6.43847C3.82394 5.98189 4.37906 5.62225 4.98638 5.38027C5.60767 5.12719 6.27161 4.99621 6.94216 4.99547C8.27886 4.95107 9.55674 5.54973 10.3832 6.60867C11.2934 7.87111 11.7456 9.40957 11.6625 10.9673C11.6875 12.098 11.4721 13.2206 11.0302 14.2603C10.6655 15.1261 10.0729 15.8757 9.31704 16.4285C8.5862 16.9302 7.71639 17.1892 6.83188 17.1685C6.23117 17.1714 5.63414 17.0715 5.06726 16.8725C4.54596 16.6963 4.06437 16.4196 3.64822 16.0585V21.0313C3.66439 21.1896 3.62028 21.3487 3.52322 21.4753C3.39749 21.573 3.23941 21.6173 3.08207 21.6011L0.935119 21.6085ZM5.88339 14.6821C6.60983 14.7346 7.31273 14.4075 7.74359 13.8163C8.20166 12.989 8.409 12.0447 8.33915 11.1005C8.40974 10.1474 8.20533 9.19423 7.75095 8.35507C7.31861 7.75789 6.60836 7.43007 5.87604 7.48927C5.09888 7.49001 4.33715 7.70165 3.67027 8.10347V14.0605C4.332 14.4749 5.09667 14.6924 5.87604 14.6895L5.88339 14.6821Z" fill="#00A8E1"/>
<path d="M14.4571 16.9316C14.1939 16.9812 13.9402 16.8065 13.891 16.5409C13.8799 16.4817 13.8799 16.421 13.891 16.3618V5.92039C13.8726 5.76055 13.9204 5.59997 14.0233 5.47639C14.1454 5.38315 14.2968 5.33875 14.4498 5.35059H16.0747C16.3835 5.31951 16.6614 5.53781 16.707 5.84639L17.0011 7.05999C17.4842 6.49093 18.0613 6.00993 18.7069 5.63919C19.2333 5.36169 19.8186 5.21739 20.4127 5.21739H20.7288C20.8884 5.20333 21.0479 5.24773 21.1774 5.34319C21.2803 5.46677 21.3281 5.62735 21.3097 5.78719V7.69639C21.3222 7.85031 21.2781 8.00275 21.1847 8.12559C21.0619 8.22919 20.9024 8.27729 20.7436 8.25879H20.3392C20.1723 8.25879 19.962 8.25879 19.7068 8.25879C19.2819 8.26767 18.8584 8.31725 18.4422 8.40679C18.0084 8.48745 17.5849 8.61399 17.1776 8.78419V16.3692C17.1893 16.5231 17.1452 16.6756 17.0526 16.7984C16.9298 16.902 16.7702 16.9501 16.6114 16.9316H14.4571Z" fill="#00A8E1"/>
<path d="M24.567 3.54504C24.0656 3.5702 23.5737 3.40074 23.1921 3.07144C22.8377 2.7377 22.6472 2.2641 22.67 1.77644C22.645 1.28582 22.8355 0.80926 23.1921 0.47404C23.9979 -0.17494 25.1434 -0.17494 25.9493 0.47404C26.3037 0.80778 26.4941 1.28138 26.4713 1.76904C26.4941 2.2567 26.3037 2.7303 25.9493 3.06404C25.5669 3.39778 25.0721 3.5702 24.567 3.54504ZM23.4862 16.939C23.2229 16.9886 22.9693 16.814 22.92 16.5483C22.909 16.4891 22.909 16.4284 22.92 16.3692V5.92044C22.9016 5.7606 22.9494 5.60002 23.0524 5.47644C23.1744 5.3832 23.3259 5.3388 23.4788 5.35064H25.6478C25.8052 5.33436 25.9632 5.37876 26.089 5.47644C26.186 5.60298 26.2301 5.76208 26.214 5.92044V16.3692C26.2265 16.5232 26.1824 16.6756 26.089 16.7984C25.9662 16.902 25.8066 16.9501 25.6478 16.9316L23.4862 16.939Z" fill="#00A8E1"/>
<path d="M29.5743 16.9308C29.3111 16.9804 29.0574 16.8057 29.0081 16.5401C28.9971 16.4809 28.9971 16.4202 29.0081 16.361V5.91959C28.9898 5.75975 29.0376 5.59917 29.1405 5.47559C29.2625 5.38235 29.414 5.33795 29.5669 5.34979H31.1919C31.5007 5.31871 31.7786 5.53701 31.8242 5.84559L32.008 6.45979C32.6771 5.99581 33.4006 5.61841 34.1623 5.33499C34.7909 5.11447 35.4519 4.99977 36.1181 4.99459C37.2768 4.89469 38.39 5.46967 38.9856 6.47459C39.6569 6.00987 40.3862 5.63691 41.1546 5.36459C41.8325 5.13741 42.5427 5.02271 43.2574 5.02419C44.1603 4.96943 45.0456 5.29059 45.7058 5.91219C46.3146 6.58411 46.6278 7.47581 46.5734 8.38379V16.3684C46.5852 16.5223 46.5411 16.6748 46.4484 16.7976C46.3256 16.9012 46.1661 16.9493 46.0073 16.9308H43.8677C43.6045 16.9804 43.3508 16.8057 43.3015 16.5401C43.2905 16.4809 43.2905 16.4202 43.3015 16.361V9.07939C43.3015 8.04857 42.8435 7.53279 41.9266 7.53279C41.0722 7.54241 40.2304 7.74517 39.4635 8.12479V16.3684C39.476 16.5223 39.4319 16.6748 39.3385 16.7976C39.2157 16.9012 39.0562 16.9493 38.8973 16.9308H36.7357C36.4725 16.9804 36.2188 16.8057 36.1695 16.5401C36.1585 16.4809 36.1585 16.4202 36.1695 16.361V9.07939C36.1695 8.04857 35.7115 7.53279 34.7946 7.53279C33.93 7.53797 33.0785 7.74887 32.3094 8.14699V16.361C32.3212 16.5149 32.2771 16.6674 32.1845 16.7902C32.0617 16.8938 31.9021 16.9419 31.7433 16.9234L29.5743 16.9308Z" fill="#00A8E1"/>
<path d="M54.4408 17.2719C52.8564 17.3763 51.2998 16.8168 50.1396 15.7253C49.0786 14.5029 48.5485 12.9037 48.6691 11.2853C48.5632 9.60776 49.0999 7.95238 50.169 6.66034C51.2829 5.50298 52.8424 4.88952 54.4408 4.98054C55.6231 4.9095 56.7907 5.27284 57.7274 6.00174C58.52 6.68254 58.9568 7.69264 58.9112 8.73974C58.9649 9.76464 58.4789 10.7429 57.6319 11.3149C56.4915 11.9706 55.1849 12.274 53.8747 12.1881C53.1321 12.197 52.3909 12.1127 51.6689 11.9365C51.6733 12.755 52.0013 13.5379 52.5806 14.1121C53.2666 14.602 54.1019 14.8351 54.9408 14.7707C55.3511 14.7707 55.7614 14.7434 56.1687 14.6893C56.729 14.602 57.2833 14.4829 57.8304 14.3341H57.9627H58.073C58.3281 14.3341 58.4553 14.5095 58.4553 14.8595V15.9029C58.4693 16.0798 58.434 16.2567 58.3524 16.4135C58.248 16.5371 58.1098 16.6267 57.9554 16.6725C56.8304 17.0892 55.6393 17.2927 54.4408 17.2719ZM53.7056 10.1457C54.2842 10.1879 54.8629 10.0651 55.3746 9.79054C55.7261 9.54856 55.9246 9.13786 55.8966 8.71014C55.8966 7.75776 55.3327 7.28194 54.2056 7.28194C52.7593 7.28194 51.9241 8.17512 51.6983 9.96074C52.3549 10.0873 53.0225 10.1494 53.6909 10.1457H53.7056Z" fill="#00A8E1"/>
<path d="M53.2554 29.6818C46.8146 34.4622 37.4768 37.0004 29.4405 37.0004C18.7013 37.0581 8.32683 33.0821 0.346357 25.8486C-0.256554 25.301 0.280183 24.5536 1.00809 24.9754C9.87381 30.0703 19.9079 32.7461 30.1169 32.738C37.7349 32.6973 45.2705 31.1455 52.2922 28.1722C53.4098 27.706 54.3215 28.8604 53.2554 29.6818Z" fill="#00A8E1"/>
<path d="M55.9702 26.6405C55.1467 25.5823 50.5293 26.1373 48.4485 26.3889C47.8162 26.4629 47.7133 25.9153 48.2868 25.5157C51.963 22.9109 58.0142 23.6657 58.7127 24.5389C59.4112 25.4121 58.5289 31.5023 55.0364 34.4105C54.507 34.8545 53.9997 34.6177 54.235 34.0257C55.0217 32.0351 56.7643 27.6691 55.9702 26.6405Z" fill="#00A8E1"/>
</g>
<defs>
<clipPath id="clip0_1413_5098">
<rect width="58.8205" height="37" fill="white" transform="translate(0.0897217)"/>
</clipPath>
</defs>
</svg>
