<svg width="47" height="25" viewBox="0 0 47 25" fill="none" xmlns="http://www.w3.org/2000/svg">
<g clip-path="url(#clip0_1413_5047)">
<path d="M1.16099 14.6064C1.04122 14.6114 0.923681 14.5759 0.832322 14.5064C0.754333 14.4229 0.718124 14.3144 0.73205 14.2064V4.00644C0.718124 3.89844 0.754333 3.78994 0.832322 3.70644C0.924795 3.64344 1.03955 3.61344 1.15542 3.62144H2.3921C2.62607 3.60044 2.83664 3.74794 2.87118 3.95644L2.99374 4.35644C3.3497 4.04794 3.77028 3.80494 4.23042 3.64144C4.70114 3.47044 5.20417 3.38194 5.71221 3.38144C6.72496 3.35144 7.69314 3.75594 8.31928 4.47144C9.00893 5.32444 9.35152 6.36394 9.28857 7.41644C9.30751 8.18044 9.14429 8.93894 8.8095 9.64144C8.53319 10.2264 8.0842 10.7329 7.51153 11.1064C6.95781 11.4454 6.2988 11.6204 5.62865 11.6064C5.17353 11.6084 4.72119 11.5409 4.2917 11.4064C3.89674 11.2874 3.53186 11.1004 3.21656 10.8564V14.2164C3.22882 14.3234 3.19539 14.4309 3.12186 14.5164C3.0266 14.5824 2.90683 14.6124 2.78762 14.6014L1.16099 14.6064ZM4.91004 9.92644C5.46042 9.96194 5.99297 9.74094 6.31941 9.34144C6.66647 8.78244 6.82356 8.14444 6.77064 7.50644C6.82412 6.86244 6.66925 6.21844 6.32499 5.65144C5.99743 5.24794 5.45931 5.02644 4.90447 5.06644C4.31565 5.06694 3.73853 5.20994 3.23327 5.48144V9.50644C3.73463 9.78644 4.31398 9.93344 4.90447 9.93144L4.91004 9.92644Z" fill="white"/>
<path d="M11.4055 11.4406C11.2061 11.4741 11.0139 11.3561 10.9766 11.1766C10.9682 11.1366 10.9682 11.0956 10.9766 11.0556V4.00065C10.9627 3.89265 10.9989 3.78415 11.0769 3.70065C11.1693 3.63765 11.2841 3.60765 11.4 3.61565H12.6311C12.8651 3.59465 13.0756 3.74215 13.1102 3.95065L13.333 4.77065C13.699 4.38615 14.1363 4.06115 14.6254 3.81065C15.0242 3.62315 15.4677 3.52565 15.9178 3.52565H16.1573C16.2782 3.51615 16.3991 3.54615 16.4971 3.61065C16.5751 3.69415 16.6113 3.80265 16.5974 3.91065V5.20065C16.6069 5.30465 16.5734 5.40765 16.5027 5.49065C16.4097 5.56065 16.2888 5.59315 16.1684 5.58065H15.8621C15.7356 5.58065 15.5763 5.58065 15.383 5.58065C15.061 5.58665 14.7401 5.62015 14.4248 5.68065C14.0962 5.73515 13.7753 5.82065 13.4667 5.93565V11.0606C13.4756 11.1646 13.4422 11.2676 13.372 11.3506C13.279 11.4206 13.1581 11.4531 13.0377 11.4406H11.4055Z" fill="white"/>
<path d="M19.071 2.39557C18.6911 2.41257 18.3184 2.29807 18.0293 2.07557C17.7608 1.85007 17.6165 1.53007 17.6338 1.20057C17.6149 0.869075 17.7591 0.547074 18.0293 0.320574C18.6399 -0.117926 19.5078 -0.117926 20.1183 0.320574C20.3868 0.546074 20.5311 0.866075 20.5138 1.19557C20.5311 1.52507 20.3868 1.84507 20.1183 2.07057C19.8286 2.29607 19.4537 2.41257 19.071 2.39557ZM18.2521 11.4456C18.0527 11.4791 17.8605 11.3611 17.8232 11.1816C17.8148 11.1416 17.8148 11.1006 17.8232 11.0606V4.00058C17.8093 3.89258 17.8455 3.78408 17.9235 3.70058C18.0159 3.63757 18.1307 3.60757 18.2466 3.61558H19.8899C20.0091 3.60457 20.1289 3.63458 20.2242 3.70058C20.2977 3.78608 20.3311 3.89357 20.3189 4.00058V11.0606C20.3283 11.1646 20.2949 11.2676 20.2242 11.3506C20.1311 11.4206 20.0102 11.4531 19.8899 11.4406L18.2521 11.4456Z" fill="white"/>
<path d="M22.8568 11.4524C22.6573 11.4859 22.4652 11.3679 22.4278 11.1884C22.4195 11.1484 22.4195 11.1074 22.4278 11.0674V4.01245C22.4139 3.90445 22.4501 3.79595 22.5281 3.71245C22.6206 3.64945 22.7353 3.61945 22.8512 3.62745H24.0823C24.3163 3.60645 24.5269 3.75395 24.5614 3.96245L24.7007 4.37745C25.2076 4.06395 25.7557 3.80895 26.3329 3.61745C26.8092 3.46845 27.31 3.39095 27.8147 3.38745C28.6926 3.31995 29.536 3.70845 29.9872 4.38745C30.4958 4.07345 31.0484 3.82145 31.6306 3.63745C32.1442 3.48395 32.6823 3.40645 33.2238 3.40745C33.9078 3.37045 34.5785 3.58745 35.0788 4.00745C35.54 4.46145 35.7773 5.06395 35.7361 5.67745V11.0724C35.745 11.1764 35.7116 11.2794 35.6414 11.3624C35.5484 11.4324 35.4275 11.4649 35.3072 11.4524H33.6861C33.4867 11.4859 33.2945 11.3679 33.2572 11.1884C33.2488 11.1484 33.2488 11.1074 33.2572 11.0674V6.14745C33.2572 5.45095 32.9101 5.10245 32.2155 5.10245C31.5682 5.10895 30.9303 5.24595 30.3493 5.50245V11.0724C30.3588 11.1764 30.3253 11.2794 30.2546 11.3624C30.1616 11.4324 30.0407 11.4649 29.9204 11.4524H28.2826C28.0832 11.4859 27.891 11.3679 27.8537 11.1884C27.8453 11.1484 27.8453 11.1074 27.8537 11.0674V6.14745C27.8537 5.45095 27.5066 5.10245 26.8119 5.10245C26.1568 5.10595 25.5117 5.24845 24.9291 5.51745V11.0674C24.938 11.1714 24.9045 11.2744 24.8344 11.3574C24.7413 11.4274 24.6204 11.4599 24.5001 11.4474L22.8568 11.4524Z" fill="white"/>
<path d="M41.702 11.6738C40.5015 11.7443 39.3222 11.3663 38.4432 10.6288C37.6393 9.80278 37.2377 8.72228 37.3291 7.62878C37.2488 6.49528 37.6555 5.37678 38.4655 4.50378C39.3094 3.72178 40.491 3.30728 41.702 3.36878C42.5978 3.32078 43.4824 3.56628 44.1921 4.05878C44.7926 4.51878 45.1235 5.20128 45.089 5.90878C45.1296 6.60128 44.7614 7.26228 44.1197 7.64878C43.2557 8.09178 42.2658 8.29678 41.2731 8.23878C40.7104 8.24478 40.1489 8.18778 39.6019 8.06878C39.6052 8.62178 39.8537 9.15078 40.2926 9.53878C40.8124 9.86978 41.4452 10.0273 42.0808 9.98378C42.3917 9.98378 42.7025 9.96528 43.0111 9.92878C43.4356 9.86978 43.8556 9.78928 44.2701 9.68878H44.3704H44.4539C44.6472 9.68878 44.7436 9.80728 44.7436 10.0438V10.7488C44.7542 10.8683 44.7274 10.9878 44.6656 11.0938C44.5865 11.1773 44.4818 11.2378 44.3648 11.2688C43.5125 11.5503 42.61 11.6878 41.702 11.6738ZM41.145 6.85878C41.5834 6.88728 42.0218 6.80428 42.4095 6.61878C42.6758 6.45528 42.8262 6.17778 42.805 5.88878C42.805 5.24528 42.3777 4.92378 41.5238 4.92378C40.428 4.92378 39.7952 5.52728 39.6242 6.73378C40.1216 6.81928 40.6274 6.86128 41.1338 6.85878H41.145Z" fill="white"/>
<path d="M40.8007 20.0605C35.9208 23.2905 28.846 25.0055 22.7573 25.0055C14.6208 25.0445 6.76063 22.358 0.714244 17.4705C0.257451 17.1005 0.664108 16.5955 1.2156 16.8805C7.9327 20.323 15.535 22.131 23.2698 22.1255C29.0416 22.098 34.7509 21.0495 40.0709 19.0405C40.9176 18.7255 41.6084 19.5055 40.8007 20.0605Z" fill="white"/>
<path d="M42.8541 18.0049C42.2302 17.2899 38.7318 17.6649 37.1553 17.8349C36.6762 17.8849 36.5982 17.5149 37.0327 17.2449C39.8181 15.4849 44.4027 15.9949 44.9319 16.5849C45.4611 17.1749 44.7927 21.2899 42.1466 23.2549C41.7455 23.5549 41.3611 23.3949 41.5394 22.9949C42.1355 21.6499 43.4557 18.6999 42.8541 18.0049Z" fill="white"/>
</g>
<defs>
<clipPath id="clip0_1413_5047">
<rect width="45.6522" height="25" fill="white" transform="translate(0.67395)"/>
</clipPath>
</defs>
</svg>
