<svg width="13" height="13" viewBox="0 0 13 13" fill="none" xmlns="http://www.w3.org/2000/svg">
<path d="M6.78003 12.5249C7.96672 12.5249 9.12675 12.173 10.1134 11.5137C11.1001 10.8544 11.8692 9.91736 12.3233 8.821C12.7774 7.72465 12.8962 6.51825 12.6647 5.35436C12.4332 4.19048 11.8618 3.12138 11.0227 2.28226C10.1836 1.44315 9.11446 0.871705 7.95057 0.640193C6.78668 0.408682 5.58028 0.527502 4.48393 0.981628C3.38757 1.43575 2.4505 2.20479 1.79121 3.19148C1.13192 4.17818 0.780029 5.33822 0.780029 6.5249C0.780029 8.1162 1.41217 9.64233 2.53739 10.7675C3.66261 11.8928 5.18873 12.5249 6.78003 12.5249ZM6.78003 2.7729C6.93825 2.7729 7.09292 2.81982 7.22448 2.90773C7.35604 2.99563 7.45858 3.12058 7.51913 3.26676C7.57968 3.41294 7.59552 3.57379 7.56466 3.72898C7.53379 3.88416 7.45759 4.02671 7.34571 4.13859C7.23383 4.25047 7.09128 4.32666 6.9361 4.35753C6.78092 4.3884 6.62006 4.37256 6.47388 4.31201C6.3277 4.25146 6.20276 4.14892 6.11485 4.01736C6.02695 3.8858 5.98003 3.73113 5.98003 3.5729C5.98003 3.36073 6.06431 3.15725 6.21434 3.00722C6.36437 2.85719 6.56785 2.7729 6.78003 2.7729ZM5.98003 6.5249C5.98003 6.31273 6.06431 6.10925 6.21434 5.95922C6.36437 5.80919 6.56785 5.7249 6.78003 5.7249C6.9922 5.7249 7.19568 5.80919 7.34571 5.95922C7.49574 6.10925 7.58003 6.31273 7.58003 6.5249V9.7249C7.58003 9.93708 7.49574 10.1406 7.34571 10.2906C7.19568 10.4406 6.9922 10.5249 6.78003 10.5249C6.56785 10.5249 6.36437 10.4406 6.21434 10.2906C6.06431 10.1406 5.98003 9.93708 5.98003 9.7249V6.5249Z" fill="#023F88"/>
</svg>
