<svg width="78" height="78" viewBox="0 0 78 78" fill="none" xmlns="http://www.w3.org/2000/svg">
<g clip-path="url(#clip0_1443_7459)">
<path d="M38.9877 77.9002C60.5206 77.9002 77.9754 60.4728 77.9754 38.9738C77.9754 17.4747 60.5206 0.0473633 38.9877 0.0473633C17.4548 0.0473633 0 17.4747 0 38.9738C0 60.4728 17.4548 77.9002 38.9877 77.9002Z" fill="#1A99FF"/>
<path d="M15.0344 51.7185C14.8993 51.7307 14.7765 51.6939 14.6782 51.6081C14.6291 51.559 14.6045 51.4977 14.5799 51.4364C14.5554 51.3751 14.5554 51.3015 14.5554 51.2402V38.5836C14.5431 38.5222 14.5554 38.4487 14.5799 38.3873C14.6045 38.326 14.6291 38.2647 14.6782 38.2156C14.7765 38.1421 14.9116 38.1053 15.0344 38.1175H16.3979C16.5207 38.1053 16.6435 38.1421 16.7418 38.2156C16.8401 38.2892 16.9015 38.3996 16.9261 38.5345L17.0489 39.0251C17.442 38.6449 17.9087 38.3505 18.4246 38.1543C18.9528 37.9458 19.5056 37.8354 20.0706 37.8354C21.299 37.8354 22.2694 38.2892 22.9818 39.1845C23.6943 40.0798 24.0505 41.2939 24.0505 42.827C24.0505 43.8817 23.8785 44.7892 23.5223 45.5741C23.2152 46.2977 22.7239 46.9232 22.0851 47.3892C21.4709 47.8185 20.7462 48.0392 19.9969 48.027C19.4933 48.027 18.9897 47.9411 18.5106 47.7817C18.0684 47.6345 17.6631 47.4015 17.3069 47.0949V51.2524C17.3191 51.3138 17.3191 51.3873 17.3069 51.4487C17.2946 51.51 17.2577 51.5713 17.2086 51.6204C17.1595 51.6694 17.098 51.7062 17.0366 51.7185C16.9752 51.7307 16.9015 51.743 16.8401 51.7185H15.0344ZM19.1985 45.9298C19.9109 45.9298 20.4269 45.6845 20.7708 45.2062C21.1024 44.7279 21.2744 43.9675 21.2744 42.9251C21.2744 41.8704 21.1147 41.11 20.7831 40.6317C20.4514 40.1534 19.9232 39.9081 19.2108 39.9204C18.5598 39.9204 17.9087 40.0921 17.3437 40.4355V45.427C17.8965 45.7581 18.5352 45.9298 19.1985 45.9298Z" fill="white"/>
<path d="M26.4229 47.8048C26.3615 47.8171 26.2878 47.8048 26.2264 47.7926C26.165 47.768 26.1035 47.7435 26.0544 47.6945C26.0053 47.6454 25.9684 47.5963 25.9561 47.5228C25.9316 47.4614 25.9316 47.3879 25.9439 47.3265V38.5822C25.9316 38.5209 25.9439 38.4473 25.9684 38.386C25.993 38.3246 26.0176 38.2633 26.0667 38.2143C26.165 38.1407 26.3001 38.1039 26.4229 38.1039H27.7864C27.9092 38.0916 28.032 38.1284 28.1303 38.202C28.2286 38.2756 28.29 38.386 28.3146 38.5209L28.5602 39.5388C29.0761 38.9869 29.5552 38.5822 29.9974 38.3492C30.4396 38.1162 30.9309 37.9935 31.4346 37.9935H31.7048C31.8399 37.9812 31.975 38.018 32.0856 38.1039C32.1347 38.1529 32.1593 38.2143 32.1839 38.2756C32.2084 38.3369 32.2084 38.4105 32.1961 38.4718V40.0662C32.2084 40.1888 32.1716 40.3237 32.0979 40.4218C32.0487 40.4709 31.9873 40.4954 31.9259 40.5199C31.8645 40.5445 31.7908 40.5445 31.7294 40.5445C31.6434 40.5445 31.5206 40.5445 31.3854 40.5199C31.2503 40.4954 31.0661 40.5077 30.8572 40.5077C30.501 40.5199 30.1448 40.5567 29.7886 40.6303C29.4201 40.6916 29.0639 40.802 28.7199 40.9492V47.3265C28.7322 47.4614 28.6954 47.5841 28.6094 47.6822C28.5602 47.7312 28.4988 47.7558 28.4374 47.7803C28.376 47.8048 28.3023 47.8048 28.2409 47.8048H26.4229Z" fill="white"/>
<path d="M34.9228 36.6216C34.5051 36.6461 34.0875 36.499 33.7681 36.2292C33.4856 35.9348 33.3259 35.5546 33.3259 35.1499C33.3259 34.7452 33.4856 34.3527 33.7681 34.0707C34.0998 33.8131 34.5051 33.6782 34.9228 33.6782C35.3404 33.6782 35.7458 33.8131 36.0774 34.0707C36.3599 34.365 36.5196 34.7452 36.5196 35.1499C36.5196 35.5546 36.3599 35.9471 36.0774 36.2292C35.7581 36.499 35.3404 36.6339 34.9228 36.6216ZM34.0015 47.8065C33.9401 47.8188 33.8664 47.8188 33.805 47.7943C33.7436 47.7697 33.6821 47.7452 33.633 47.6961C33.5839 47.6471 33.547 47.598 33.5347 47.5244C33.5102 47.4631 33.5102 47.3895 33.5225 47.3282V38.5839C33.5102 38.5226 33.5225 38.449 33.547 38.3877C33.5716 38.3263 33.5962 38.265 33.6453 38.216C33.7436 38.1424 33.8787 38.1056 34.0015 38.1056H35.8195C35.8809 38.0933 35.9546 38.0933 36.016 38.1056C36.0774 38.1178 36.1388 38.1546 36.188 38.2037C36.2371 38.2528 36.274 38.3141 36.2862 38.3754C36.2985 38.4367 36.3108 38.5103 36.2862 38.5716V47.3405C36.2985 47.4754 36.2617 47.598 36.1757 47.6961C36.1266 47.7452 36.0651 47.7697 36.0037 47.7943C35.9423 47.8188 35.8686 47.8188 35.8072 47.8188H34.0015V47.8065Z" fill="white"/>
<path d="M39.1351 47.8058C39.0737 47.8181 39 47.8181 38.9385 47.7936C38.8771 47.769 38.8157 47.7445 38.7666 47.6954C38.7174 47.6464 38.6806 47.5973 38.6683 47.5237C38.6437 47.4624 38.6437 47.3888 38.656 47.3275V38.5832C38.6437 38.5219 38.656 38.4483 38.6806 38.387C38.7052 38.3256 38.7297 38.2643 38.7789 38.2153C38.8771 38.1417 39.0122 38.1049 39.1351 38.1049H40.4985C40.6214 38.0926 40.7442 38.1294 40.8425 38.203C40.9407 38.2766 41.0022 38.387 41.0267 38.5219L41.1741 39.037C41.7392 38.6445 42.3411 38.3379 42.9921 38.0926C43.5326 37.9087 44.0853 37.8105 44.6503 37.8228C45.7927 37.8228 46.5911 38.2275 47.0579 39.037C47.6229 38.6445 48.2371 38.3379 48.8881 38.1049C49.4532 37.9209 50.0551 37.8228 50.657 37.8228C51.5414 37.8228 52.2292 38.0681 52.7206 38.5587C53.2119 39.0492 53.4576 39.736 53.4576 40.6313V47.3398C53.4699 47.4624 53.433 47.5973 53.347 47.6954C53.2979 47.7445 53.2365 47.769 53.1751 47.7936C53.1137 47.8181 53.04 47.8181 52.9785 47.8181H51.1483C51.0869 47.8304 51.0132 47.8303 50.9518 47.8058C50.8903 47.7813 50.8289 47.7568 50.7798 47.7077C50.7307 47.6587 50.6938 47.6096 50.6815 47.536C50.657 47.4747 50.657 47.4011 50.6692 47.3398V41.2568C50.6692 40.3983 50.2885 39.969 49.5146 39.969C48.8022 39.9813 48.0897 40.1407 47.4387 40.4596V47.3398C47.451 47.4747 47.4141 47.5973 47.3281 47.6954C47.279 47.7445 47.2176 47.769 47.1562 47.7936C47.0948 47.8181 47.0211 47.8181 46.9596 47.8181H45.1417C45.0803 47.8304 45.0066 47.8303 44.9452 47.8058C44.8837 47.7813 44.8223 47.7568 44.7732 47.7077C44.724 47.6587 44.6872 47.6096 44.6749 47.536C44.6503 47.4747 44.6503 47.4011 44.6626 47.3398V41.2568C44.6626 40.3983 44.2818 39.969 43.508 39.969C42.7833 39.969 42.0708 40.153 41.4198 40.4841V47.3521C41.4321 47.4747 41.3952 47.6096 41.3092 47.7077C41.2601 47.7568 41.1987 47.7813 41.1373 47.8058C41.0759 47.8303 41.0022 47.8304 40.9407 47.8304L39.1351 47.8058Z" fill="white"/>
<path d="M60.0407 48.0871C58.4684 48.0871 57.2646 47.6579 56.4171 46.7994C55.5695 45.9409 55.1519 44.7022 55.1519 43.0956C55.1519 41.4522 55.5818 40.1645 56.4416 39.2201C57.3015 38.288 58.5052 37.8097 60.0284 37.822C61.2076 37.822 62.1289 38.1041 62.7922 38.6805C63.4555 39.2446 63.7871 40.005 63.7871 40.9616C63.7871 41.906 63.4309 42.6296 62.7185 43.1079C62.006 43.5984 60.9496 43.8437 59.5493 43.8437C58.9106 43.856 58.2841 43.7824 57.67 43.6352C57.7437 44.4814 58.0016 45.0946 58.4315 45.4503C58.8615 45.806 59.5248 46.0022 60.4215 46.0022C60.7654 46.0022 61.1093 45.9777 61.4533 45.9409C61.92 45.8673 62.3868 45.7692 62.8536 45.6465C62.8904 45.6343 62.9273 45.622 62.9641 45.622C63.001 45.622 63.0256 45.6097 63.0624 45.6097C63.2712 45.6097 63.3818 45.7569 63.3818 46.0513V46.922C63.3941 47.0692 63.3695 47.2163 63.2958 47.3513C63.2098 47.4494 63.0993 47.5352 62.9641 47.572C62.0429 47.9154 61.0479 48.0994 60.0407 48.0871ZM59.4142 42.139C60.0652 42.139 60.532 42.0409 60.8145 41.8447C61.1093 41.6484 61.2445 41.3541 61.2567 40.9371C61.2567 40.1399 60.7777 39.7475 59.8319 39.7475C58.6158 39.7475 57.9156 40.4956 57.7191 41.9796C58.2841 42.0899 58.8492 42.139 59.4142 42.139Z" fill="white"/>
<path d="M14.6545 28.2554C14.6176 28.2554 14.5685 28.2554 14.5317 28.2431C14.4948 28.2308 14.458 28.2063 14.4211 28.1818C14.3965 28.1573 14.372 28.1205 14.3597 28.0714C14.3474 28.0346 14.3474 27.9856 14.3474 27.9488V19.9771C14.3474 19.9403 14.3474 19.8912 14.3597 19.8544C14.372 19.8176 14.3965 19.7808 14.4211 19.744C14.4457 19.7195 14.4825 19.695 14.5317 19.6827C14.5685 19.6705 14.6176 19.6705 14.6545 19.6705H17.4306C17.9342 19.6582 18.4255 19.7563 18.88 19.9525C19.2731 20.1242 19.6047 20.4063 19.8504 20.7497C20.0838 21.1054 20.2066 21.5223 20.1943 21.9516C20.1943 22.8101 19.8136 23.411 19.0397 23.7422C19.5188 23.8648 19.9364 24.1346 20.2558 24.5025C20.5383 24.8827 20.6857 25.361 20.6611 25.8393C20.6734 26.1827 20.5997 26.5139 20.4646 26.8205C20.3172 27.1271 20.1084 27.3969 19.8381 27.6054C19.2854 28.0469 18.5361 28.2676 17.6025 28.2676H14.6545V28.2554ZM16.1039 23.2516H17.1849C17.9833 23.2516 18.3887 22.8837 18.3887 22.1356C18.3887 21.3752 18.0202 20.995 17.2832 20.995H16.1039V23.2516ZM16.1039 26.9308H17.5657C18.4132 26.9308 18.8309 26.5384 18.8309 25.7412C18.8309 24.9195 18.3764 24.5148 17.4797 24.5148H16.1039V26.9308Z" fill="white"/>
<path d="M23.8067 28.4415C23.2417 28.4415 22.7995 28.2698 22.4924 27.9387C22.173 27.6076 22.0256 27.1415 22.0256 26.5528V22.2236C22.0256 22.1868 22.0256 22.1377 22.0379 22.101C22.0502 22.0642 22.0748 22.0274 22.0993 21.9906C22.1239 21.9538 22.1608 21.9415 22.2099 21.9293C22.2467 21.917 22.2959 21.917 22.3327 21.917H23.5242C23.5611 21.917 23.6102 21.917 23.6471 21.9293C23.6839 21.9415 23.7208 21.966 23.7576 21.9906C23.7822 22.0151 23.8067 22.0519 23.819 22.101C23.8313 22.1377 23.8313 22.1868 23.8313 22.2236V26.05C23.8313 26.7245 24.1261 27.0557 24.7034 27.0557C25.1579 27.0434 25.6001 26.9085 25.9686 26.6632V22.2359C25.9686 22.1991 25.9686 22.15 25.9809 22.1132C25.9932 22.0764 26.0178 22.0396 26.0423 22.0028C26.0669 21.9783 26.1037 21.9538 26.1529 21.9415C26.1897 21.9293 26.2389 21.9293 26.2757 21.9293H27.4672C27.5041 21.917 27.5532 21.9293 27.59 21.9415C27.6269 21.9538 27.6637 21.9783 27.7006 22.0028C27.7252 22.0274 27.7497 22.0642 27.762 22.1132C27.7743 22.15 27.7743 22.1991 27.7743 22.2359V27.951C27.7743 27.9877 27.7743 28.0368 27.762 28.0736C27.7497 28.1104 27.7252 28.1472 27.7006 28.184C27.676 28.2085 27.6392 28.233 27.59 28.2453C27.5532 28.2576 27.5041 28.2576 27.4672 28.2576H26.5705C26.4845 28.2576 26.4108 28.233 26.3494 28.184C26.288 28.1349 26.2389 28.0613 26.2266 27.9755L26.116 27.583C25.7721 27.8651 25.3913 28.0736 24.9737 28.233C24.6052 28.3802 24.1998 28.4415 23.8067 28.4415Z" fill="white"/>
<path d="M30.3775 30.9684C30.0582 30.9684 29.7511 30.9193 29.444 30.8457C29.358 30.8212 29.2843 30.7844 29.2229 30.7108C29.1738 30.625 29.1615 30.5269 29.1738 30.4288V29.8524C29.1738 29.6684 29.2475 29.5703 29.4071 29.5703C29.4808 29.5703 29.5545 29.5703 29.6282 29.5825C29.7142 29.5948 29.8002 29.5948 29.8862 29.5948C30.181 29.6071 30.4635 29.5212 30.6969 29.3495C30.8934 29.1901 31.0531 28.908 31.176 28.5156L31.2128 28.3807L28.879 22.4448C28.8298 22.3467 28.8053 22.2363 28.793 22.1382C28.793 22.0156 28.8667 21.9542 29.0264 21.9542H30.2793C30.3775 21.942 30.4758 21.9665 30.5618 22.0278C30.6355 22.0891 30.6969 22.1873 30.7092 22.2854L32.0358 26.7005L33.2887 22.2854C33.3133 22.1873 33.3624 22.1014 33.4484 22.0401C33.5344 21.9788 33.6327 21.9542 33.7309 21.9665H34.947C35.1067 21.9665 35.1804 22.0278 35.1804 22.1505C35.1681 22.2608 35.1435 22.359 35.0944 22.4571L32.5763 29.1533C32.3306 29.8033 32.0481 30.2816 31.7042 30.5637C31.3234 30.8335 30.8566 30.9807 30.3775 30.9684Z" fill="white"/>
<path d="M42.0601 28.2543H41.0037C40.9054 28.2665 40.8072 28.242 40.7212 28.1807C40.6475 28.1071 40.5984 28.0213 40.5738 27.9354L38.7804 22.4165C38.7436 22.3184 38.719 22.2203 38.719 22.1222C38.719 21.9873 38.805 21.926 38.9647 21.926H40.2176C40.3158 21.9137 40.4141 21.9505 40.4878 21.9996C40.5615 22.0609 40.6106 22.1467 40.6229 22.2448L41.6179 26.4882L42.6866 22.2326C42.7111 22.1345 42.7603 22.0486 42.8462 21.9873C42.9322 21.926 43.0305 21.9014 43.1288 21.9137H44.0377C44.136 21.9014 44.2343 21.926 44.3203 21.9873C44.4062 22.0486 44.4554 22.1345 44.4799 22.2326L45.5732 26.5005L46.5067 22.2326C46.519 22.1345 46.5681 22.0486 46.6418 21.9873C46.7155 21.926 46.8138 21.9014 46.9121 21.9137H48.1158C48.2878 21.9137 48.3615 21.975 48.3615 22.1099C48.3615 22.2081 48.3369 22.3062 48.3001 22.4043L46.4944 27.9231C46.4821 28.0213 46.4207 28.1194 46.347 28.1684C46.261 28.2297 46.1628 28.2543 46.0645 28.242H45.0081C44.9099 28.2543 44.8116 28.2175 44.7379 28.1562C44.6642 28.0948 44.6028 28.009 44.5905 27.9109L43.571 23.7779L42.5391 27.9109C42.5146 28.009 42.4654 28.0948 42.3795 28.1562C42.2689 28.242 42.1706 28.2665 42.0601 28.2543Z" fill="white"/>
<path d="M50.3122 20.949C50.0419 20.9613 49.7594 20.8754 49.5506 20.6915C49.3663 20.5075 49.2681 20.25 49.2681 19.9802C49.2681 19.7226 49.3663 19.4651 49.5506 19.2688C49.7717 19.0971 50.0296 19.0113 50.3122 18.999C50.5824 18.999 50.8526 19.0849 51.0737 19.2566C51.258 19.4528 51.3563 19.6981 51.3563 19.9679C51.3563 20.2254 51.258 20.483 51.0737 20.6792C50.8526 20.8632 50.5824 20.9613 50.3122 20.949ZM49.7103 28.2585C49.6734 28.2585 49.6243 28.2585 49.5874 28.2462C49.5506 28.2339 49.5137 28.2094 49.4769 28.1849C49.4523 28.1603 49.4277 28.1236 49.4155 28.0745C49.4032 28.0377 49.4032 27.9886 49.4032 27.9519V22.2368C49.4032 22.2 49.4032 22.1509 49.4155 22.1141C49.4277 22.0773 49.4523 22.0405 49.4769 22.0037C49.5014 21.9669 49.5383 21.9547 49.5874 21.9424C49.6243 21.9302 49.6734 21.9302 49.7103 21.9302H50.9018C50.9386 21.9302 50.9877 21.9302 51.0246 21.9424C51.0615 21.9547 51.0983 21.9792 51.1352 22.0037C51.1597 22.0283 51.1843 22.0651 51.1966 22.1141C51.2089 22.1509 51.2089 22.2 51.2089 22.2368V27.9519C51.2089 27.9886 51.2089 28.0377 51.1966 28.0745C51.1843 28.1113 51.1597 28.1481 51.1352 28.1849C51.1106 28.2094 51.0737 28.2339 51.0246 28.2462C50.9877 28.2585 50.9386 28.2585 50.9018 28.2585H49.7103Z" fill="white"/>
<path d="M55.2891 28.3543C54.5889 28.3543 54.0607 28.1949 53.7291 27.8638C53.3974 27.5326 53.2254 27.0175 53.2254 26.3307V23.2647H52.5744C52.5376 23.2647 52.4884 23.2647 52.4516 23.2524C52.4147 23.2402 52.3779 23.2157 52.341 23.1911C52.3165 23.1666 52.2919 23.1298 52.2796 23.0807C52.2673 23.044 52.2673 22.9949 52.2673 22.9581V22.443C52.2673 22.3572 52.2919 22.2713 52.341 22.21C52.4025 22.1487 52.4762 22.0996 52.5621 22.0996L53.2746 21.9524L53.4957 20.5421C53.4957 20.444 53.5325 20.3581 53.6062 20.2845C53.6799 20.2355 53.7536 20.2109 53.8396 20.2109H54.724C54.7609 20.2109 54.81 20.2109 54.8469 20.2232C54.8837 20.2355 54.9206 20.26 54.9574 20.2845C54.9943 20.309 55.0065 20.3458 55.0188 20.3949C55.0311 20.4317 55.0311 20.4807 55.0311 20.5175V21.9157H56.4314C56.4683 21.9157 56.5174 21.9157 56.5543 21.9279C56.5911 21.9402 56.628 21.9647 56.6648 21.9892C56.7017 22.0138 56.7139 22.0506 56.7262 22.0996C56.7385 22.1364 56.7385 22.1855 56.7385 22.2223V22.9458C56.7385 22.9826 56.7385 23.0317 56.7262 23.0685C56.7139 23.1053 56.6894 23.1421 56.6648 23.1789C56.6402 23.2034 56.6034 23.2279 56.5543 23.2402C56.5174 23.2524 56.4683 23.2524 56.4314 23.2524H55.0311V26.2449C55.0311 26.5147 55.0925 26.6987 55.2276 26.7968C55.3628 26.9072 55.5839 26.9562 55.9032 26.9562C56.0261 26.9562 56.1612 26.944 56.284 26.9194C56.3823 26.9072 56.4683 26.8949 56.5665 26.8949C56.7017 26.8949 56.7754 26.9807 56.7754 27.1647V27.7657C56.7877 27.8638 56.7631 27.9619 56.7262 28.0477C56.6771 28.1213 56.5911 28.1704 56.5051 28.1826C56.3209 28.2317 56.1366 28.2807 55.9401 28.3053C55.7313 28.3421 55.5102 28.3543 55.2891 28.3543Z" fill="white"/>
<path d="M59.4026 28.2537H58.2111C58.1743 28.2537 58.1252 28.2537 58.0883 28.2414C58.0515 28.2291 58.0146 28.2046 57.9778 28.1801C57.9532 28.1556 57.9286 28.1188 57.9163 28.0697C57.9041 28.0329 57.9041 27.9839 57.9041 27.9471V19.3867C57.9041 19.3499 57.9041 19.3008 57.9163 19.264C57.9286 19.2272 57.9532 19.1905 57.9778 19.1537C58.0023 19.1291 58.0392 19.1046 58.0883 19.0923C58.1252 19.0801 58.1743 19.0801 58.2111 19.0801H59.4026C59.4395 19.0801 59.4886 19.0801 59.5255 19.0923C59.5623 19.1046 59.5992 19.1291 59.636 19.1537C59.6606 19.1782 59.6852 19.215 59.6974 19.264C59.7097 19.3008 59.7097 19.3499 59.7097 19.3867V22.4895C60.3607 22.0112 61.1346 21.7414 61.9453 21.7291C62.5349 21.7291 62.9894 21.8886 63.3088 22.2074C63.6282 22.5263 63.7878 22.9801 63.7878 23.5688V27.9471C63.7878 27.9839 63.7878 28.0329 63.7756 28.0697C63.7633 28.1065 63.7387 28.1433 63.7141 28.1801C63.6896 28.2046 63.6527 28.2291 63.6036 28.2414C63.5667 28.2537 63.5176 28.2537 63.4807 28.2537H62.2893C62.2524 28.2537 62.2033 28.2537 62.1664 28.2414C62.1296 28.2291 62.0927 28.2046 62.0559 28.1801C62.0313 28.1556 62.0067 28.1188 61.9944 28.0697C61.9822 28.0329 61.9822 27.9839 61.9822 27.9471V24.1084C61.9822 23.4584 61.6751 23.1272 61.0732 23.1272C60.5941 23.1395 60.1151 23.2867 59.722 23.5442V27.9471C59.722 27.9839 59.722 28.0329 59.7097 28.0697C59.6974 28.1065 59.6729 28.1433 59.6483 28.1801C59.6237 28.2046 59.5869 28.2291 59.5378 28.2414C59.4886 28.2537 59.4395 28.2659 59.4026 28.2537Z" fill="white"/>
<mask id="mask0_1443_7459" style="mask-type:luminance" maskUnits="userSpaceOnUse" x="14" y="33" width="51" height="32">
<path d="M64.2434 33.6035H14.6182V64.6318H64.2434V33.6035Z" fill="white"/>
</mask>
<g mask="url(#mask0_1443_7459)">
<path fill-rule="evenodd" clip-rule="evenodd" d="M59.4762 58.5046C54.0469 62.5149 46.1609 64.6366 39.3804 64.6366C29.873 64.6366 21.3114 61.1291 14.838 55.2791C14.3344 54.8253 14.7889 54.1998 15.3908 54.5432C22.3801 58.6027 31.0154 61.0555 39.9454 61.0555C45.9643 61.0555 52.5851 59.8046 58.6777 57.2291C59.599 56.8489 60.3729 57.8423 59.4762 58.5046Z" fill="white"/>
<path fill-rule="evenodd" clip-rule="evenodd" d="M61.7368 55.9271C61.0489 55.0441 57.1428 55.5101 55.3985 55.7186C54.8703 55.7799 54.7844 55.3261 55.2634 54.9827C58.3711 52.7997 63.4688 53.4252 64.0584 54.1611C64.6603 54.8969 63.8987 59.9988 60.9875 62.4394C60.533 62.8195 60.1154 62.6111 60.3119 62.1205C60.9629 60.4771 62.4247 56.8101 61.7368 55.9271Z" fill="white"/>
</g>
</g>
<defs>
<clipPath id="clip0_1443_7459">
<rect width="78" height="78" fill="white"/>
</clipPath>
</defs>
</svg>
