<svg width="30" height="25" viewBox="0 0 30 25" fill="none" xmlns="http://www.w3.org/2000/svg">
<path d="M10.4911 20.5063C10.4911 21.7541 9.50288 22.7656 8.28406 22.7656C7.06534 22.7656 6.07715 21.7541 6.07715 20.5063C6.07715 19.2585 7.06534 18.2469 8.28406 18.2469C9.50288 18.2469 10.4911 19.2585 10.4911 20.5063Z" stroke="#003068" stroke-width="1.4" stroke-miterlimit="10" stroke-linecap="round" stroke-linejoin="round"/>
<path d="M23.7214 20.5063C23.7214 21.7541 22.7333 22.7656 21.5145 22.7656C20.2957 22.7656 19.3076 21.7541 19.3076 20.5063C19.3076 19.2585 20.2957 18.2469 21.5145 18.2469C22.7333 18.2469 23.7214 19.2585 23.7214 20.5063Z" stroke="#003068" stroke-width="1.4" stroke-miterlimit="10" stroke-linecap="round" stroke-linejoin="round"/>
<path d="M14.8929 6.95014H19.3068V20.5063H10.4912" stroke="#003068" stroke-width="1.4" stroke-miterlimit="10" stroke-linecap="round" stroke-linejoin="round"/>
<path d="M5.61986 20.9102H2.68945V12.9102" stroke="#003068" stroke-width="1.4" stroke-miterlimit="10" stroke-linecap="round" stroke-linejoin="round"/>
<path d="M23.7214 20.5063H27.3997V13.7282L25.1928 9.20952H19.3076" stroke="#003068" stroke-width="1.4" stroke-miterlimit="10" stroke-linecap="round" stroke-linejoin="round"/>
<path d="M11.9629 6.94992C11.9629 9.65353 9.82199 11.8452 7.18114 11.8452C4.54035 11.8452 2.39941 9.65353 2.39941 6.94992C2.39941 4.24631 4.54035 2.05462 7.18114 2.05462C9.82199 2.05462 11.9629 4.24631 11.9629 6.94992Z" stroke="#003068" stroke-width="1.4" stroke-miterlimit="10" stroke-linecap="round" stroke-linejoin="round"/>
<path d="M8.77462 6.9502H7.18066V5.31843" stroke="#003068" stroke-width="1.4" stroke-miterlimit="10" stroke-linecap="round" stroke-linejoin="round"/>
</svg>
