<svg id="Warstwa_1" enable-background="new 0 0 283.46 283.46" height="283.46" viewBox="0 0 283.46 283.46" width="283.46" xmlns="http://www.w3.org/2000/svg"><g><path d="m280.63 235.091c-92.595-56.024-185.201 56.009-277.796 0 0-62.236 0-124.478 0-186.715 92.595 56.017 185.202-56.016 277.796 0z" fill="#cccbca"/><g><path d="m278.387 231.483c-91.089-52.447-182.158 55.052-273.239 2.698 0-60.715 0-121.441 0-182.157 91.081 52.361 182.15-55.138 273.239-2.691z" fill="#b02a3d"/><g fill="#fff"><path d="m278.387 77.338c-91.089-52.447-182.158 55.052-273.239 2.691 0-4.667 0-9.335 0-14.002 91.081 52.361 182.15-55.138 273.239-2.69z"/><path d="m278.387 105.342c-91.089-52.447-182.158 55.056-273.239 2.69 0-4.667 0-9.334 0-14.002 91.081 52.357 182.15-55.138 273.239-2.69z"/><path d="m278.387 133.347c-91.089-52.447-182.158 55.055-273.239 2.69 0-4.667 0-9.334 0-14.002 91.081 52.357 182.15-55.138 273.239-2.691z"/><path d="m278.387 161.355c-91.089-52.451-182.158 55.051-273.239 2.683 0-4.659 0-9.335 0-13.994 91.081 52.353 182.15-55.142 273.239-2.698z"/><path d="m278.387 189.359c-91.089-52.451-182.158 55.052-273.239 2.683 0-4.659 0-9.335 0-13.994 91.081 52.354 182.15-55.142 273.239-2.698z"/><path d="m278.387 217.363c-91.089-52.447-182.158 55.052-273.239 2.684 0-4.66 0-9.335 0-13.994 91.081 52.353 182.15-55.146 273.239-2.699z"/></g><path d="m141.77 50.652c-45.541 13.766-91.085 27.556-136.622 1.372v98.019c45.536 26.185 91.081 12.394 136.622-1.381 0-32.667 0-65.339 0-98.01z" fill="#434177"/><g fill="#fff"><path d="m14.075 68.544c-.408 1.075-.816 2.142-1.224 3.201-.008 0 0 .031.016.047s.031.023.047.023c1.067-.267 2.134-.549 3.201-.855 1.075 1.247 2.141 2.471 3.216 3.671 0 0 .008.016.016.016.023.016.039 0 .039-.023v-.016c-.408-1.419-.824-2.839-1.231-4.267 1.074-.33 2.142-.674 3.216-1.043.008-.016.016-.023.008-.047s-.016-.031-.039-.047c-1.318-.494-2.636-1.028-3.954-1.585-.408-1.428-.824-2.863-1.231-4.298-.008-.032-.063-.055-.079-.032-.408 1.075-.808 2.149-1.216 3.216-1.318-.596-2.644-1.231-3.961-1.89-.016-.008-.039-.016-.047.008 0 0 .008.031.016.055 1.066 1.309 2.14 2.604 3.207 3.866z"/><path d="m36.549 76.122c-.408 1.169-.815 2.337-1.224 3.499 0 .008.008.031.016.039.016.016.04.016.047.016 1.067-.534 2.141-1.075 3.208-1.64 1.066.988 2.133 1.953 3.2 2.91.008.008.016.008.031.008.016 0 .031-.008.031-.031v-.016c-.408-1.326-.815-2.651-1.224-3.977 1.067-.581 2.134-1.185 3.201-1.796.023-.016.031-.031.023-.047-.016-.023-.023-.031-.039-.039-1.318-.196-2.644-.416-3.961-.659-.408-1.333-.824-2.667-1.231-4-.008-.032-.063-.047-.071-.016-.408 1.177-.824 2.346-1.231 3.514-1.318-.274-2.644-.58-3.961-.91-.008 0-.023 0-.039.023 0 .016 0 .032.023.047 1.068 1.043 2.134 2.071 3.201 3.075z"/><path d="m59.031 78.695c-.408 1.255-.824 2.502-1.231 3.742 0 .008 0 .039.016.047s.04.008.047 0c1.066-.745 2.142-1.506 3.208-2.275 1.067.777 2.134 1.545 3.201 2.298.008.008.023.008.031.008.016 0 .04-.016.04-.039 0-.008 0-.016 0-.016-.408-1.247-.824-2.495-1.232-3.75 1.067-.785 2.142-1.584 3.208-2.393.016-.016.023-.04.016-.055-.008-.023-.016-.023-.039-.023-1.318.039-2.644.071-3.961.079-.408-1.255-.816-2.51-1.224-3.765-.016-.032-.07-.032-.078 0-.408 1.255-.824 2.51-1.231 3.757-1.318-.016-2.644-.055-3.961-.118-.016 0-.024.008-.032.031 0 .016 0 .031.016.047 1.065.825 2.139 1.633 3.206 2.425z"/><path d="m81.505 77.346c-.408 1.31-.824 2.62-1.231 3.93 0 .008.008.023.023.031.008.008.023.008.047 0 1.067-.91 2.134-1.828 3.201-2.753 1.067.62 2.142 1.232 3.208 1.835.008.008.016 0 .023 0 .023 0 .039-.023.039-.047 0 0 0-.016-.008-.016-.408-1.192-.816-2.377-1.224-3.569 1.067-.941 2.142-1.882 3.208-2.839.016-.023.023-.04.016-.055-.008-.023-.016-.023-.04-.023-1.317.228-2.636.439-3.953.636-.408-1.192-.824-2.385-1.232-3.585-.008-.031-.063-.023-.078.008-.408 1.318-.816 2.628-1.224 3.938-1.317.181-2.644.345-3.961.494-.023.008-.032.016-.04.04 0 .016 0 .031.016.047 1.069.649 2.143 1.292 3.21 1.928z"/><path d="m103.979 73.125c-.408 1.357-.816 2.707-1.224 4.056 0 .008 0 .031.016.039.008.008.031 0 .047-.008 1.067-1.027 2.134-2.047 3.201-3.083 1.067.51 2.142 1.02 3.208 1.53h.032c.016 0 .031-.031.031-.047 0-.008 0-.016-.008-.023-.408-1.153-.808-2.298-1.216-3.452 1.067-1.043 2.133-2.086 3.201-3.138.023-.023.023-.039.023-.055-.016-.016-.023-.024-.04-.016-1.326.337-2.644.675-3.969 1.004-.408-1.161-.815-2.314-1.224-3.467-.008-.031-.063-.016-.07.016-.408 1.357-.824 2.707-1.232 4.063-1.318.314-2.644.62-3.961.91-.016.008-.023.016-.039.04-.008.023 0 .031.023.047 1.068.534 2.135 1.059 3.201 1.584z"/><path d="m126.461 67.117c-.408 1.373-.824 2.753-1.231 4.126 0 0 0 .032.016.04.016 0 .031-.008.047-.016 1.067-1.083 2.142-2.173 3.208-3.263 1.067.463 2.133.917 3.2 1.38.008 0 .024 0 .032-.008.016 0 .039-.023.039-.047 0 0 0-.016-.008-.024-.408-1.129-.816-2.259-1.224-3.389 1.066-1.09 2.142-2.188 3.208-3.279.016-.023.016-.039.016-.055-.008-.024-.016-.024-.039-.016-1.318.393-2.644.785-3.961 1.177-.408-1.137-.816-2.267-1.224-3.404-.016-.023-.071-.008-.079.023-.408 1.373-.823 2.753-1.231 4.126-1.318.385-2.644.769-3.961 1.146-.016.008-.023.016-.031.039-.016.023 0 .031.008.047 1.074.471 2.141.934 3.215 1.397z"/><path d="m24.092 86.014c-.008.008 0 .024.008.055.023.016.039.016.047.016 1.066-.408 2.141-.839 3.208-1.279 1.067 1.114 2.134 2.205 3.201 3.279 0 0 .023.008.031.008.031.016.039-.008.039-.024v-.016c-.408-1.373-.824-2.745-1.231-4.118 1.067-.463 2.142-.941 3.208-1.443.016-.016.016-.031.016-.031-.008-.031-.016-.047-.039-.047-1.318-.346-2.644-.714-3.962-1.106-.408-1.38-.815-2.761-1.224-4.149-.016-.023-.07-.047-.078-.023-.408 1.129-.808 2.259-1.216 3.389-1.326-.439-2.651-.895-3.978-1.389-.008 0-.023 0-.031.016 0 0 0 .023.016.055 1.067 1.168 2.142 2.322 3.208 3.452-.407 1.119-.815 2.241-1.223 3.355z"/><path d="m46.559 91.23s.008.023.023.047c.008.008.031.016.047.008 1.067-.651 2.134-1.31 3.201-1.993 1.067.879 2.142 1.75 3.208 2.597.008 0 .016 0 .023.008.023 0 .039-.023.039-.039 0-.008 0-.016-.008-.016-.408-1.287-.816-2.565-1.224-3.852 1.067-.698 2.142-1.404 3.208-2.118.016-.023.032-.039.016-.047-.008-.023-.016-.031-.039-.031-1.318-.071-2.636-.157-3.953-.267-.408-1.294-.824-2.588-1.232-3.883-.008-.023-.063-.031-.079-.008-.408 1.216-.808 2.432-1.216 3.647-1.325-.141-2.644-.298-3.969-.486-.024-.008-.032 0-.04.024 0 0 0 .023.016.047 1.067.926 2.142 1.835 3.208 2.729-.406 1.217-.822 2.425-1.229 3.633z"/><path d="m69.04 91.92s0 .024.016.047c.008.008.032.008.047 0 1.067-.839 2.134-1.687 3.201-2.549 1.066.698 2.142 1.388 3.208 2.063h.031c.016-.008.032-.032.032-.047 0 0 0-.016-.008-.016-.408-1.216-.808-2.432-1.216-3.647 1.067-.871 2.134-1.749 3.201-2.644.024-.023.032-.039.024-.047-.016-.023-.024-.032-.04-.032-1.318.149-2.644.275-3.961.384-.408-1.224-.824-2.447-1.231-3.671-.008-.023-.063-.023-.071 0-.408 1.294-.824 2.581-1.231 3.867-1.318.086-2.644.157-3.961.212-.016 0-.023.008-.039.031 0 0 0 .023.023.047 1.067.73 2.134 1.452 3.201 2.157-.41 1.288-.818 2.567-1.226 3.845z"/><path d="m91.515 89.16s.008.023.016.047c.016.008.031 0 .047-.008 1.067-.98 2.142-1.961 3.208-2.958 1.067.573 2.134 1.13 3.201 1.679h.023.008c.016-.008.04-.039.04-.055 0 0 0-.016-.008-.008-.408-1.169-.816-2.338-1.224-3.514 1.066-.997 2.141-1.993 3.208-3.005.016-.031.016-.047.016-.047-.008-.023-.016-.031-.039-.031-1.318.298-2.644.572-3.961.847-.408-1.177-.816-2.354-1.224-3.53-.016-.024-.071-.008-.079.016-.408 1.341-.824 2.683-1.231 4.016-1.318.259-2.644.502-3.961.729-.016 0-.023.008-.031.04 0 0 0 .023.016.039 1.067.588 2.142 1.169 3.208 1.741-.41 1.334-.825 2.668-1.233 4.002z"/><path d="m113.989 84.014s0 .023.023.039c.008.008.023 0 .047-.008 1.067-1.067 2.133-2.134 3.2-3.208 1.067.486 2.142.973 3.208 1.451.008-.008.016-.008.023-.008.023-.008.039-.039.039-.055 0 0 0-.016-.008-.008-.408-1.146-.815-2.283-1.224-3.428 1.067-1.067 2.142-2.149 3.208-3.224.016-.031.016-.047.016-.047-.008-.023-.016-.031-.039-.023-1.326.376-2.644.745-3.969 1.114-.408-1.145-.808-2.291-1.216-3.436-.008-.024-.063-.008-.079.023-.408 1.365-.816 2.738-1.224 4.103-1.318.361-2.644.714-3.961 1.059-.023 0-.031.016-.039.039-.008.008 0 .023.016.039 1.066.494 2.142.988 3.208 1.475-.405 1.365-.821 2.738-1.229 4.103z"/><path d="m12.852 91.011c-.008.008 0 .039.016.055s.031.024.047.024c1.067-.275 2.134-.565 3.201-.871 1.075 1.248 2.141 2.479 3.216 3.687 0 .008.008.008.016.008.031.016.039.008.039-.023 0 0 0-.008 0-.016-.408-1.42-.824-2.84-1.231-4.268 1.074-.33 2.142-.674 3.216-1.043.008-.016.016-.023.008-.047s-.016-.031-.039-.047c-1.318-.494-2.636-1.028-3.954-1.585-.408-1.435-.824-2.871-1.231-4.306-.008-.024-.063-.055-.079-.032-.408 1.075-.808 2.157-1.216 3.224-1.318-.596-2.644-1.231-3.961-1.89-.016-.008-.039-.016-.047.008 0 .016.008.031.016.055 1.067 1.31 2.142 2.604 3.208 3.867-.41 1.074-.818 2.133-1.225 3.2z"/><path d="m35.325 98.886c0 .016.008.04.016.047.016.016.04.016.047.016 1.067-.534 2.141-1.09 3.208-1.655 1.066.988 2.133 1.961 3.2 2.926h.031c.016 0 .031 0 .031-.032 0 0 0-.008 0-.016-.408-1.326-.815-2.651-1.224-3.977 1.067-.581 2.134-1.185 3.201-1.796.023-.016.031-.031.023-.047-.016-.024-.023-.032-.039-.04-1.318-.196-2.644-.416-3.961-.659-.408-1.333-.824-2.667-1.231-4.008-.008-.024-.063-.04-.071-.016-.408 1.176-.824 2.353-1.231 3.522-1.318-.275-2.644-.581-3.961-.91-.008 0-.023 0-.039.023 0 .016 0 .032.023.047 1.067 1.043 2.134 2.071 3.2 3.075-.407 1.171-.815 2.34-1.223 3.5z"/><path d="m57.799 101.703c0 .023 0 .047.016.055s.04.008.047 0c1.066-.753 2.142-1.514 3.208-2.291 1.067.785 2.134 1.553 3.201 2.314h.031c.016 0 .04-.008.04-.039v-.016c-.408-1.247-.824-2.495-1.232-3.75 1.067-.785 2.142-1.584 3.208-2.393.016-.016.023-.04.016-.055s-.016-.031-.039-.023c-1.318.039-2.644.071-3.961.079-.408-1.255-.816-2.51-1.224-3.773-.016-.024-.07-.024-.078 0-.408 1.255-.824 2.51-1.231 3.765-1.318-.016-2.644-.055-3.961-.118-.016 0-.024.008-.032.031 0 .016 0 .031.016.047 1.067.824 2.141 1.632 3.208 2.424-.409 1.256-.825 2.503-1.233 3.743z"/><path d="m80.274 100.542c0 .016.008.039.023.039.008.008.023.008.047 0 1.067-.917 2.134-1.835 3.201-2.769 1.067.627 2.142 1.239 3.208 1.851.008-.008.016-.008.023-.008.023 0 .039-.016.039-.047 0 0 0-.016-.008-.008-.408-1.192-.816-2.385-1.224-3.577 1.067-.941 2.142-1.882 3.208-2.839.016-.023.023-.04.016-.055s-.016-.023-.04-.023c-1.317.228-2.636.439-3.953.636-.408-1.2-.824-2.393-1.232-3.593-.008-.023-.063-.016-.078.008-.408 1.318-.816 2.636-1.224 3.945-1.317.181-2.644.346-3.961.495-.023.008-.032.016-.04.039 0 .016 0 .031.016.047 1.067.651 2.141 1.294 3.208 1.93-.406 1.308-.822 2.618-1.229 3.929z"/><path d="m102.756 96.447c0 .016 0 .039.016.047.008.008.031 0 .047-.008 1.067-1.027 2.134-2.063 3.201-3.098 1.067.518 2.142 1.035 3.208 1.545.008-.008.016-.008.032-.008.016-.008.031-.016.031-.047 0 0 0-.016-.008-.016-.408-1.153-.808-2.306-1.216-3.459 1.067-1.043 2.133-2.086 3.201-3.138.023-.023.023-.039.023-.055-.016-.016-.023-.023-.04-.016-1.326.337-2.644.674-3.969 1.004-.408-1.161-.815-2.322-1.224-3.475-.008-.023-.063-.008-.07.016-.408 1.357-.824 2.714-1.232 4.071-1.318.314-2.644.62-3.961.91-.016.008-.023.016-.039.04-.008.023 0 .031.023.047 1.067.534 2.134 1.059 3.201 1.584-.408 1.358-.816 2.707-1.224 4.056z"/><path d="m125.23 90.509c0 .016 0 .039.016.047.016 0 .031 0 .047-.016 1.067-1.09 2.142-2.181 3.208-3.279 1.067.471 2.133.934 3.2 1.396.008-.008.024-.008.032-.016.016 0 .039-.016.039-.047 0 0 0-.016-.008-.016-.408-1.13-.816-2.267-1.224-3.397 1.066-1.09 2.142-2.188 3.208-3.279.016-.023.016-.039.016-.055-.008-.024-.016-.024-.039-.016-1.318.393-2.644.785-3.961 1.177-.408-1.137-.816-2.274-1.224-3.412-.016-.016-.071 0-.079.023-.408 1.381-.823 2.753-1.231 4.134-1.318.385-2.644.769-3.961 1.146-.016.008-.023.016-.031.039-.016.024 0 .032.008.047 1.075.471 2.142.933 3.216 1.396-.409 1.374-.824 2.755-1.232 4.128z"/><path d="m27.677 96.549c-.024-.047-.071-.055-.086-.023-.408 1.129-.808 2.259-1.216 3.389-1.318-.432-2.644-.886-3.961-1.365-.023-.008-.039-.008-.039-.008-.008.016 0 .047.008.055 1.067 1.177 2.141 2.33 3.208 3.459-.408 1.122-.816 2.235-1.224 3.341-.008.024 0 .04.008.055.024.016.04.016.047.016 1.066-.408 2.142-.832 3.208-1.271 1.067 1.099 2.142 2.189 3.208 3.256.016.016.016.016.023.016.016.008.047 0 .047-.016s-.008-.032-.008-.032c-.408-1.365-.816-2.73-1.224-4.095 1.067-.471 2.142-.965 3.208-1.467.008-.008.016-.031.008-.047 0 0-.023-.024-.039-.024-1.318-.337-2.644-.706-3.961-1.098-.407-1.372-.807-2.753-1.215-4.141z"/><path d="m50.151 100.973c-.016-.04-.063-.047-.086-.008-.408 1.224-.808 2.439-1.216 3.655-1.318-.133-2.644-.298-3.961-.479-.016 0-.039 0-.039 0-.008.023 0 .047.008.055 1.066.934 2.141 1.844 3.208 2.738-.408 1.208-.815 2.416-1.224 3.616-.008.024 0 .04.016.047.008.016.016.016.023.016s.023 0 .023 0c1.067-.651 2.134-1.31 3.201-1.993 1.075.878 2.142 1.734 3.216 2.581 0 0 .008.008.016.008.031 0 .047-.016.047-.032s-.008-.023-.008-.023c-.408-1.278-.808-2.557-1.216-3.844 1.067-.698 2.134-1.412 3.201-2.142.008 0 .016-.023.008-.039 0 0-.016-.023-.04-.023-1.317-.063-2.636-.149-3.953-.251-.408-1.293-.816-2.588-1.224-3.882z"/><path d="m70.539 107.366c-.408 1.279-.808 2.549-1.216 3.828-.008.023 0 .039.008.047.016.008.039.008.047 0 1.067-.839 2.134-1.679 3.201-2.542 1.075.69 2.142 1.373 3.216 2.04 0 0 .008.008.024.008.023 0 .047-.023.047-.023 0-.032-.016-.032-.016-.032-.408-1.224-.808-2.432-1.216-3.647 1.067-.871 2.134-1.757 3.201-2.659.016-.008.023-.031.016-.047 0 0-.023-.016-.04-.008-1.318.141-2.643.274-3.961.384-.408-1.224-.823-2.448-1.231-3.671-.008-.039-.063-.031-.07.008-.408 1.287-.816 2.573-1.224 3.859-1.318.094-2.644.165-3.962.22-.016.008-.039.016-.039.016-.008.023 0 .047.016.055 1.065.729 2.132 1.45 3.199 2.164z"/><path d="m93.013 104.409c-.408 1.333-.808 2.659-1.216 3.985-.008.032 0 .047.008.047.023.008.039 0 .047-.008 1.067-.973 2.142-1.953 3.208-2.942 1.067.565 2.141 1.114 3.208 1.663h.023c.023-.008.039-.023.039-.039s0-.024 0-.024c-.408-1.168-.824-2.33-1.231-3.498 1.074-1.004 2.142-2.008 3.216-3.028.008-.008.016-.039.008-.047s-.023-.016-.039-.008c-1.318.29-2.644.572-3.961.847-.408-1.177-.816-2.354-1.224-3.53-.016-.032-.071-.024-.079.016-.408 1.341-.815 2.683-1.224 4.016-1.326.259-2.644.502-3.969.737-.008 0-.023.008-.023.008-.008.032 0 .047.008.055 1.067.597 2.134 1.177 3.201 1.75z"/><path d="m117.574 92.399c-.008-.031-.071-.016-.079.024-.408 1.373-.808 2.738-1.216 4.103-1.318.361-2.644.714-3.961 1.059-.016.008-.039.016-.047.031 0 .016.008.039.016.039 1.067.502 2.142.996 3.208 1.482-.408 1.365-.815 2.73-1.224 4.087-.008.032 0 .04.016.047.008.008.016 0 .024 0 0 0 .008 0 .023-.016 1.067-1.059 2.134-2.118 3.201-3.185 1.074.479 2.141.949 3.216 1.42.008.008.008.008.008.008.031-.008.047-.023.047-.039 0-.023 0-.023 0-.023-.408-1.146-.824-2.283-1.232-3.413 1.075-1.083 2.142-2.165 3.216-3.248.008-.016.016-.039.008-.055-.008-.008-.016-.008-.039 0-1.318.376-2.636.745-3.954 1.114-.408-1.144-.824-2.29-1.231-3.435z"/><path d="m16.491 101.954c-.008-.039-.063-.071-.071-.031-.408 1.074-.816 2.149-1.224 3.224-1.326-.596-2.644-1.224-3.969-1.882-.008-.008-.023-.008-.023.008-.016.016 0 .039.008.055 1.067 1.31 2.134 2.597 3.2 3.859-.408 1.075-.808 2.134-1.216 3.201-.008.016 0 .039.008.047.016.023.04.04.047.023 1.067-.267 2.142-.557 3.208-.871 1.066 1.24 2.133 2.463 3.2 3.664.008 0 .016.008.031.016.023.008.031.008.031-.023 0-.016 0-.023 0-.023-.408-1.412-.815-2.832-1.224-4.252 1.067-.337 2.142-.69 3.208-1.067.016 0 .023-.016.016-.039 0-.016-.023-.031-.039-.04-1.318-.494-2.644-1.02-3.961-1.576-.406-1.43-.822-2.858-1.23-4.293z"/><path d="m38.973 108.943c-.016-.047-.07-.055-.078-.016-.408 1.169-.808 2.345-1.216 3.514-1.326-.267-2.644-.573-3.969-.894-.016-.008-.032 0-.04.016 0 .016 0 .039.016.047 1.067 1.043 2.141 2.063 3.208 3.067-.408 1.168-.816 2.337-1.224 3.499-.008.023 0 .039.008.047.024.023.04.023.047.016 1.066-.541 2.142-1.09 3.208-1.655 1.067.98 2.134 1.945 3.201 2.902h.031c.016.008.04 0 .04-.024 0-.016 0-.023 0-.023-.408-1.318-.824-2.644-1.232-3.961 1.075-.588 2.142-1.2 3.216-1.82.008-.008.016-.023.008-.047-.008-.016-.016-.024-.039-.024-1.318-.196-2.644-.408-3.961-.651-.408-1.334-.816-2.66-1.224-3.993z"/><path d="m61.447 111.037c-.008-.039-.063-.039-.079 0-.408 1.255-.808 2.51-1.216 3.757-1.325-.008-2.643-.047-3.969-.102 0 0-.032.008-.04.023 0 .023 0 .039.016.047 1.066.824 2.141 1.632 3.208 2.424-.408 1.248-.816 2.495-1.224 3.742-.008.023 0 .039.016.047.016.016.023.016.047 0 1.067-.753 2.134-1.514 3.201-2.291 1.067.776 2.142 1.545 3.208 2.298h.023c.023 0 .039-.008.039-.031 0-.016 0-.023 0-.023-.408-1.248-.823-2.495-1.231-3.734 1.067-.792 2.142-1.6 3.208-2.416.016-.008.031-.023.016-.047-.008-.016-.016-.023-.032-.023-1.317.047-2.644.078-3.961.094-.406-1.255-.822-2.51-1.23-3.765z"/><path d="m83.921 109.327c-.008-.039-.063-.031-.07.008-.408 1.318-.824 2.628-1.232 3.938-1.318.188-2.644.353-3.962.502-.008.008-.023.016-.039.031 0 .023 0 .04.023.047 1.067.651 2.134 1.294 3.201 1.93-.408 1.31-.816 2.62-1.224 3.922 0 .024 0 .04.016.047s.039.008.047-.008c1.067-.91 2.142-1.836 3.209-2.769 1.067.627 2.134 1.239 3.2 1.843.008 0 .016 0 .032-.008.016 0 .031-.008.031-.039v-.023c-.408-1.185-.816-2.369-1.224-3.562 1.067-.941 2.133-1.891 3.201-2.855.023-.008.023-.023.023-.047-.016-.016-.023-.023-.04-.016-1.318.228-2.644.439-3.961.643-.407-1.191-.822-2.391-1.231-3.584z"/><path d="m106.403 104.864c-.016-.039-.071-.023-.079.016-.408 1.357-.823 2.714-1.231 4.063-1.318.321-2.636.627-3.954.918-.023.008-.031.016-.039.039 0 .016 0 .031.016.039 1.067.534 2.142 1.067 3.208 1.593-.408 1.349-.824 2.698-1.231 4.047 0 .023 0 .047.016.047.016.016.031.008.047-.008 1.067-1.028 2.142-2.063 3.208-3.099 1.067.518 2.133 1.027 3.2 1.537.016-.008.024-.008.032-.008.016-.008.039-.023.039-.047 0 0 0-.023-.008-.016-.408-1.153-.816-2.298-1.224-3.452 1.066-1.043 2.142-2.094 3.208-3.146.016-.016.016-.031.016-.055-.008-.016-.016-.016-.039-.016-1.318.345-2.644.683-3.961 1.012-.408-1.15-.816-2.311-1.224-3.464z"/><path d="m128.877 98.722c-.008-.031-.063-.016-.079.023-.408 1.381-.816 2.753-1.224 4.126-1.318.384-2.644.769-3.961 1.153-.023 0-.031.016-.039.031 0 .024 0 .04.016.04 1.067.471 2.142.941 3.208 1.404-.408 1.373-.823 2.753-1.231 4.126 0 .023 0 .039.023.039.008.008.024.008.047-.016 1.067-1.083 2.133-2.173 3.201-3.263 1.066.462 2.141.917 3.208 1.38.008-.008.016-.008.023-.008.023-.008.04-.023.04-.047 0-.016 0-.023-.008-.023-.408-1.13-.815-2.259-1.224-3.389 1.067-1.098 2.142-2.188 3.208-3.287.016-.016.016-.031.016-.055-.008-.008-.023-.016-.031-.016-1.318.4-2.644.792-3.961 1.184-.408-1.135-.824-2.265-1.232-3.402z"/><path d="m17.935 125.291c-.408-1.42-.816-2.848-1.224-4.283-.016-.047-.063-.063-.079-.031-.408 1.075-.816 2.149-1.224 3.224-1.318-.588-2.644-1.216-3.961-1.867-.023-.016-.039-.016-.039 0-.008.024 0 .04.008.055 1.066 1.302 2.141 2.588 3.208 3.859-.408 1.066-.815 2.134-1.224 3.192-.008.023 0 .031.016.063.008.008.016.008.023.016.008 0 .024.008.024.008 1.067-.274 2.141-.573 3.208-.886 1.067 1.239 2.142 2.463 3.208 3.663.008.008.016.008.016.008s0 0 .008.008c.023.008.039-.008.039-.023 0-.023-.008-.031-.008-.031-.408-1.412-.808-2.824-1.216-4.244 1.067-.345 2.134-.698 3.201-1.082.008 0 .016-.016.008-.04 0-.016-.016-.031-.04-.039-1.317-.496-2.635-1.014-3.952-1.57z"/><path d="m40.408 131.935c-.408-1.333-.815-2.659-1.224-3.993-.016-.047-.063-.055-.078-.016-.408 1.177-.816 2.345-1.224 3.522-1.318-.274-2.644-.565-3.962-.886-.016-.008-.039-.008-.039.008-.008.023 0 .039.016.055 1.067 1.036 2.134 2.055 3.201 3.06-.408 1.168-.808 2.337-1.216 3.498-.016.024 0 .032.008.055.016.016.039.016.047.016 1.075-.541 2.142-1.098 3.216-1.671 1.067.989 2.134 1.954 3.201 2.899 0 0 .008 0 .016.016.031 0 .047-.016.047-.032 0-.031-.008-.031-.008-.031-.408-1.322-.808-2.64-1.216-3.965 1.067-.588 2.134-1.2 3.201-1.82.016-.008.023-.023.016-.047 0-.016-.023-.023-.039-.031-1.319-.19-2.644-.402-3.963-.637z"/><path d="m62.882 133.754c-.408-1.247-.816-2.502-1.224-3.757-.016-.04-.063-.04-.079 0-.408 1.255-.815 2.51-1.224 3.765-1.318-.016-2.636-.047-3.953-.102-.024 0-.04.008-.04.024-.008.023 0 .039.008.047 1.067.824 2.134 1.624 3.201 2.416-.408 1.255-.808 2.506-1.216 3.746-.008.016 0 .032.008.047.023.016.039.016.047.016 1.067-.769 2.142-1.522 3.208-2.311 1.067.789 2.141 1.542 3.208 2.295h.023c.023 0 .047-.016.047-.032s-.008-.031-.008-.031c-.408-1.239-.816-2.483-1.224-3.73 1.067-.792 2.142-1.6 3.208-2.416 0 0 .016-.023.008-.047 0-.016-.023-.024-.039-.024-1.315.055-2.641.087-3.959.094z"/><path d="m85.357 131.84c-.408-1.192-.816-2.393-1.224-3.585-.008-.039-.055-.031-.079.008-.408 1.318-.808 2.628-1.216 3.946-1.318.181-2.644.353-3.962.502-.023 0-.047.016-.039.031-.008.023 0 .031.008.047 1.067.651 2.142 1.294 3.209 1.922-.408 1.31-.816 2.62-1.224 3.926-.008.031 0 .031.016.047s.031.016.047 0c1.067-.914 2.134-1.839 3.201-2.773 1.074.62 2.142 1.231 3.216 1.835h.016c.032-.008.047-.031.047-.047s-.008-.023-.008-.023c-.408-1.185-.808-2.377-1.216-3.562 1.067-.949 2.133-1.898 3.2-2.863.008-.008.016-.023.008-.047 0-.016-.016-.016-.039-.016-1.318.229-2.643.448-3.961.652z"/><path d="m107.839 127.236c-.408-1.153-.824-2.306-1.231-3.459-.008-.039-.055-.031-.071.016-.408 1.357-.816 2.707-1.224 4.063-1.318.314-2.644.62-3.961.918-.016.008-.039.023-.039.031-.008.031 0 .047.016.047 1.067.533 2.133 1.066 3.201 1.584-.408 1.357-.808 2.707-1.216 4.056-.016.023 0 .031.008.055.016 0 .039 0 .047-.016 1.067-1.027 2.134-2.063 3.2-3.098 1.075.518 2.142 1.027 3.216 1.538 0-.008.008-.008.016-.008.032-.008.04-.032.04-.047v-.023c-.408-1.153-.816-2.298-1.224-3.452 1.066-1.043 2.141-2.094 3.208-3.146.016-.016.023-.031.016-.055 0-.016-.023-.016-.039-.016-1.32.345-2.645.682-3.963 1.012z"/><path d="m134.274 119.846c-1.318.393-2.644.785-3.961 1.177-.408-1.129-.816-2.267-1.224-3.404-.016-.031-.071-.016-.079.023-.408 1.381-.816 2.753-1.224 4.126-1.326.393-2.644.777-3.969 1.153-.008 0-.023.016-.031.031 0 .023 0 .04.016.047 1.066.471 2.133.933 3.2 1.396-.408 1.381-.808 2.753-1.216 4.126-.008.023 0 .031.008.047.023 0 .039 0 .047-.008 1.067-1.09 2.142-2.188 3.208-3.279 1.067.463 2.134.926 3.201 1.388.008-.008.023-.008.031-.008.023-.008.039-.039.039-.055s0-.024 0-.024c-.408-1.129-.823-2.259-1.231-3.389 1.075-1.098 2.142-2.196 3.216-3.294.008-.008.016-.023.008-.047 0-.014-.023-.014-.039-.006z"/><path d="m17.66 144.364c-.408-1.428-.816-2.855-1.224-4.299-.016-.031-.063-.063-.07-.031-.408 1.083-.824 2.165-1.232 3.232-1.317-.597-2.644-1.224-3.961-1.883-.016-.016-.04-.016-.04 0-.008 0 0 .031.008.047 1.067 1.317 2.142 2.604 3.208 3.875-.408 1.067-.816 2.134-1.224 3.2-.008 0 0 .031.016.047.016.017.031.017.055.017 1.067-.267 2.134-.55 3.201-.863 1.067 1.239 2.142 2.463 3.208 3.655.008.031.008.031.016.031h.008c.023.016.039 0 .039-.016s-.008-.031-.008-.031c-.408-1.428-.808-2.84-1.216-4.252 1.067-.345 2.134-.705 3.2-1.082.008 0 .016-.016.008-.031 0-.016-.016-.031-.04-.031-1.316-.502-2.634-1.02-3.952-1.585z"/><path d="m40.134 151.063c-.408-1.317-.815-2.667-1.224-4.001-.016-.031-.063-.047-.078-.016-.408 1.177-.816 2.354-1.224 3.53-1.318-.267-2.644-.581-3.961-.895-.016-.016-.039 0-.039.016-.008 0 0 .032.016.032 1.067 1.051 2.134 2.07 3.201 3.074-.408 1.177-.808 2.338-1.216 3.499-.008.016 0 .031.008.047.016.016.039.031.047.016 1.067-.533 2.134-1.083 3.201-1.647 1.074.973 2.142 1.945 3.216 2.902 0 0 .008.016.023.016.024 0 .047-.016.047-.031s-.016-.031-.016-.031c-.408-1.317-.808-2.636-1.216-3.969 1.067-.581 2.133-1.192 3.2-1.82.016 0 .024-.031.016-.031 0-.016-.024-.031-.04-.031-1.318-.189-2.643-.409-3.961-.66z"/><path d="m62.608 152.946c-.408-1.255-.808-2.511-1.216-3.766-.023-.031-.079-.031-.086 0-.408 1.255-.808 2.511-1.216 3.766-1.318-.016-2.644-.047-3.961-.11-.023 0-.039.016-.039.031-.008 0 0 .032.008.032 1.067.831 2.134 1.631 3.201 2.432-.408 1.255-.808 2.494-1.216 3.733-.008.031 0 .031.008.047.023.016.039.016.047 0 1.067-.737 2.142-1.506 3.208-2.274 1.067.769 2.142 1.537 3.208 2.29 0 .017.016.017.024.017.023 0 .047-.032.047-.048s-.008-.016-.008-.031c-.408-1.239-.824-2.479-1.231-3.718 1.074-.8 2.141-1.601 3.216-2.432.008 0 .016-.032.008-.032 0-.016-.023-.031-.039-.031-1.32.063-2.645.078-3.963.094z"/><path d="m85.09 151.063c-.408-1.192-.824-2.385-1.231-3.593-.008-.031-.071-.016-.079.016-.408 1.318-.808 2.636-1.216 3.938-1.318.188-2.644.361-3.962.503-.016 0-.039.016-.047.031 0 0 .008.031.016.047 1.067.644 2.142 1.302 3.208 1.93-.408 1.317-.815 2.62-1.224 3.922-.008.016 0 .031.016.047.016.017.031 0 .047-.016 1.067-.909 2.134-1.819 3.201-2.745 1.075.611 2.142 1.224 3.216 1.82 0 .016.008.016.016.016.031 0 .039-.032.039-.048s0-.016 0-.016c-.408-1.192-.808-2.385-1.216-3.577 1.067-.941 2.134-1.898 3.201-2.854.008-.017.016-.032.008-.048 0-.016-.016-.016-.039-.016-1.318.235-2.636.439-3.954.643z"/><path d="m107.564 146.498c-.408-1.161-.824-2.322-1.232-3.482-.008-.032-.063-.016-.07.016-.408 1.364-.816 2.714-1.224 4.078-1.326.314-2.644.612-3.969.91-.008.016-.032.016-.04.047 0 0 0 .017.023.032 1.067.533 2.134 1.066 3.201 1.6-.408 1.35-.808 2.698-1.216 4.048-.008.016 0 .031.008.031.016.016.04.016.047-.016 1.066-1.02 2.133-2.039 3.2-3.075 1.075.519 2.142 1.021 3.216 1.522 0 .016.008.016.023.016.023-.016.031-.031.031-.047s0-.031 0-.031c-.408-1.146-.816-2.307-1.224-3.452 1.067-1.035 2.134-2.087 3.201-3.153.023-.016.031-.031.023-.047-.016 0-.023-.016-.039 0-1.315.328-2.641.673-3.959 1.003z"/><path d="m130.039 140.3c-.408-1.145-.816-2.278-1.224-3.416-.016-.031-.07-.016-.079.023-.408 1.369-.815 2.75-1.224 4.13-1.325.392-2.644.768-3.969 1.145-.008 0-.024.016-.032.031 0 0 0 .031.016.047 1.067.471 2.134.941 3.201 1.412-.408 1.365-.808 2.746-1.216 4.11-.008.016 0 .032.008.048.023 0 .039 0 .047-.016 1.067-1.083 2.142-2.182 3.208-3.264l3.201 1.365c.008.016.023.016.031.016.016 0 .039-.031.039-.047 0-.017 0-.032 0-.032-.408-1.129-.824-2.259-1.231-3.389 1.075-1.098 2.142-2.196 3.216-3.294.008-.016.016-.031.008-.047s-.024-.016-.04-.016c-1.317.41-2.643.802-3.96 1.194z"/><path d="m28.964 119.643c-.408-1.381-.816-2.761-1.224-4.142-.016-.031-.063-.047-.086-.031-.408 1.138-.808 2.267-1.216 3.389-1.317-.423-2.644-.878-3.961-1.357-.016-.008-.04-.008-.04.016-.008.008 0 .032.008.047 1.067 1.168 2.142 2.314 3.208 3.443-.408 1.122-.816 2.244-1.224 3.357-.008.016 0 .039.016.055.016.008.039.024.047.016 1.067-.416 2.142-.839 3.208-1.294 1.067 1.114 2.142 2.204 3.208 3.279h.016c.031.008.047.008.047-.023 0-.008-.008-.008-.008-.008-.408-1.373-.808-2.746-1.216-4.118 1.067-.463 2.134-.949 3.2-1.452.008-.016.024-.023.008-.047 0-.023-.016-.039-.031-.039-1.317-.338-2.643-.699-3.96-1.091z"/><path d="m51.438 123.784c-.408-1.287-.808-2.581-1.216-3.875-.023-.031-.07-.031-.078-.008-.408 1.216-.824 2.439-1.232 3.656-1.318-.142-2.644-.298-3.961-.479-.016-.008-.031 0-.031.023-.016.016 0 .031.008.047 1.067.926 2.134 1.828 3.201 2.722-.408 1.216-.808 2.424-1.216 3.632-.008.016 0 .039.008.047.016.008.039.016.039.016 1.075-.651 2.149-1.326 3.224-2.008 1.067.878 2.134 1.741 3.2 2.588h.023c.024.008.047 0 .047-.031-.008-.008-.008-.016-.016-.016-.408-1.287-.808-2.565-1.216-3.852 1.067-.698 2.133-1.404 3.2-2.126.016-.016.024-.031.016-.047 0-.023-.024-.031-.04-.031-1.317-.062-2.643-.148-3.96-.258z"/><path d="m73.912 123.643c-.408-1.224-.816-2.447-1.224-3.679-.016-.024-.063-.016-.079.008-.408 1.286-.808 2.581-1.216 3.867-1.318.086-2.644.165-3.961.22-.023 0-.039.008-.039.031-.008.016 0 .031.008.047 1.067.729 2.142 1.443 3.208 2.149-.408 1.287-.816 2.565-1.224 3.852-.008.016 0 .039.008.047.023 0 .039 0 .047-.008 1.075-.839 2.142-1.687 3.216-2.549 1.067.69 2.142 1.381 3.208 2.055 0 0 .008 0 .016-.008.032 0 .047-.008.047-.039l-.008-.016c-.408-1.216-.816-2.432-1.224-3.647 1.066-.871 2.141-1.757 3.208-2.651.008-.016.016-.032.008-.047 0-.023-.016-.023-.039-.023-1.317.14-2.643.273-3.96.391z"/><path d="m96.394 120.27c-.408-1.177-.824-2.346-1.231-3.522-.008-.024-.063-.008-.079.016-.408 1.333-.808 2.675-1.216 4.008-1.318.259-2.644.502-3.961.737-.016 0-.039.016-.047.04 0 .016.008.031.016.047 1.066.581 2.142 1.161 3.208 1.734-.408 1.333-.815 2.667-1.224 4-.008.016 0 .039.016.047.016 0 .039 0 .047-.016 1.067-.973 2.133-1.961 3.2-2.95 1.075.565 2.142 1.122 3.216 1.671l.016-.008c.031 0 .047-.016.047-.047l-.008-.016c-.408-1.169-.808-2.338-1.216-3.506 1.067-.997 2.134-2 3.201-3.012.008-.016.023-.04.008-.047 0-.023-.016-.031-.031-.023-1.318.29-2.644.573-3.962.847z"/><path d="m118.868 114.748c-.408-1.145-.823-2.291-1.231-3.436-.008-.023-.063-.008-.07.016-.408 1.373-.816 2.745-1.224 4.11-1.326.361-2.644.714-3.97 1.059-.008.008-.023.016-.039.047 0 .016.016.023.023.04 1.067.494 2.134.98 3.201 1.467-.408 1.373-.808 2.737-1.216 4.103-.008.016 0 .039.008.047.016 0 .039-.008.047-.016 1.066-1.067 2.141-2.134 3.208-3.208 1.067.486 2.134.965 3.201 1.451.008-.008.016-.008.031-.016.023-.008.047-.016.047-.047-.008-.008-.008-.008-.016-.016-.408-1.138-.808-2.283-1.216-3.42 1.067-1.075 2.134-2.149 3.201-3.231.016-.016.023-.032.016-.047 0-.023-.023-.023-.039-.023-1.319.374-2.644.751-3.962 1.12z"/><path d="m28.893 138.763c-.408-1.369-.808-2.742-1.216-4.122-.024-.047-.071-.055-.086-.024-.408 1.13-.808 2.251-1.216 3.373-1.318-.431-2.644-.886-3.961-1.365-.023-.016-.039.008-.039.008-.008.016 0 .047.008.055 1.067 1.169 2.141 2.326 3.208 3.456-.408 1.114-.816 2.228-1.224 3.342-.008.016 0 .047.008.063.024.016.04.016.047.016 1.066-.424 2.142-.848 3.208-1.287 1.067 1.099 2.142 2.197 3.208 3.264.016.016.016.016.023.016.016.016.047 0 .047-.016l-.008-.031c-.408-1.365-.816-2.729-1.224-4.095 1.067-.471 2.142-.957 3.208-1.459.008-.016.016-.031.008-.047 0-.016-.023-.047-.039-.047-1.316-.331-2.642-.708-3.96-1.1z"/><path d="m51.375 142.936c-.408-1.286-.816-2.588-1.224-3.875-.016-.031-.063-.047-.086 0-.408 1.208-.808 2.416-1.216 3.64-1.318-.141-2.644-.298-3.961-.486-.016 0-.039.016-.039.016-.008.031 0 .047.008.063 1.066.926 2.141 1.836 3.208 2.73-.408 1.208-.815 2.416-1.224 3.624-.008.016 0 .031.016.047s.031.016.047 0c1.067-.644 2.134-1.317 3.201-1.992 1.075.878 2.142 1.741 3.216 2.589 0 0 .008.016.016.016.031 0 .047-.016.047-.047l-.008-.017c-.408-1.286-.808-2.557-1.216-3.843 1.067-.69 2.134-1.412 3.201-2.134.008 0 .016-.032.008-.048 0 0-.016-.031-.04-.031-1.318-.063-2.637-.157-3.954-.252z"/><path d="m73.849 142.795c-.408-1.224-.823-2.432-1.231-3.656-.008-.047-.055-.047-.07 0-.408 1.287-.816 2.573-1.224 3.843-1.318.095-2.644.173-3.962.22-.016.016-.039.031-.039.047-.008.017 0 .032.016.048 1.067.722 2.134 1.443 3.201 2.149-.408 1.286-.808 2.557-1.216 3.844-.008.016 0 .031.008.047h.047c1.067-.848 2.134-1.694 3.201-2.558 1.075.69 2.142 1.381 3.216 2.056h.024c.023 0 .047-.016.047-.047h-.016c-.408-1.225-.808-2.448-1.216-3.656 1.067-.878 2.134-1.757 3.201-2.651.016-.016.023-.031.016-.047 0-.016-.023-.031-.04-.031-1.32.141-2.645.282-3.963.392z"/><path d="m96.323 139.438c-.408-1.172-.816-2.341-1.224-3.518-.016-.031-.063-.023-.079.016-.408 1.333-.815 2.671-1.224 4.005-1.318.251-2.636.502-3.953.722-.024.016-.04.031-.04.031-.008.031 0 .047.008.063 1.067.581 2.134 1.161 3.201 1.741-.408 1.334-.808 2.667-1.216 3.985-.008.031 0 .047.008.047.023.016.039 0 .047 0 1.067-.988 2.142-1.961 3.208-2.965 1.067.564 2.141 1.129 3.208 1.679h.023c.023 0 .039-.016.039-.047v-.017c-.408-1.176-.816-2.337-1.224-3.498 1.066-1.004 2.142-2.008 3.208-3.028.008 0 .016-.032.008-.047 0 0-.023-.031-.039-.016-1.315.282-2.641.564-3.959.847z"/><path d="m118.805 133.912c-.408-1.138-.824-2.283-1.231-3.42-.008-.039-.071-.016-.079.023-.408 1.365-.808 2.73-1.216 4.087-1.318.361-2.644.714-3.961 1.059-.016.008-.039.031-.047.047 0 .016.008.031.016.04 1.067.502 2.142.988 3.208 1.475-.408 1.369-.815 2.734-1.224 4.098-.008.017 0 .032.016.048.016 0 .032 0 .047-.016 1.067-1.067 2.134-2.134 3.201-3.205 1.074.474 2.141.96 3.216 1.431.008.016.008.016.008.016h.008c.023-.016.04-.032.04-.063v-.016c-.408-1.129-.824-2.271-1.232-3.408 1.075-1.083 2.142-2.157 3.216-3.24.008-.016.016-.04.008-.055-.008 0-.016-.023-.039-.016-1.319.377-2.637.745-3.955 1.115z"/></g></g></g></svg>