<svg width="100" height="101" viewBox="0 0 100 101" fill="none" xmlns="http://www.w3.org/2000/svg">
<path d="M81.2924 5.54004L81.3556 5.55195C81.4567 5.65919 81.444 5.70685 81.4567 5.83791C81.4946 6.21918 81.4693 6.61236 81.4946 7.00555C81.5704 8.32808 81.6209 9.6387 81.6715 10.9612C81.8231 14.0471 81.9368 17.1331 82 20.2309C80.3448 19.0632 78.6264 17.979 76.9837 16.7875C76.3899 17.6573 75.7581 18.5032 75.0884 19.3254C64.2094 32.9201 48.7437 44.4178 32.7599 52.2338C30.1444 53.4968 27.491 54.6882 24.7996 55.7963C22.1083 56.9044 19.3791 57.941 16.6245 58.9061C13.7184 59.9069 10.787 60.8482 7.83032 61.7179C6.90794 61.992 5.94765 62.4209 5 62.54L5.05054 62.5043C8.36101 61.3128 11.6462 60.026 14.8809 58.6558C33 50.9947 50.0704 40.2595 62.7816 25.7117C66.13 21.8751 68.9856 17.7526 71.7653 13.5467C70.1733 12.5936 68.556 11.6404 67.0144 10.6157C68.4296 10.0081 69.9585 9.54338 71.4116 9.03105C74.7094 7.86341 78.0199 6.74343 81.2924 5.54004Z" fill="white"/>
<path d="M81.2924 5.54004L81.3556 5.55195C81.4567 5.65919 81.444 5.70685 81.4567 5.83791C81.4946 6.21918 81.4693 6.61236 81.4946 7.00555C81.5704 8.32808 81.6209 9.6387 81.6715 10.9612C81.8231 14.0471 81.9368 17.1331 82 20.2309C80.3448 19.0632 78.6264 17.979 76.9837 16.7875C76.3899 17.6573 75.7581 18.5032 75.0884 19.3254C64.2094 32.9201 48.7437 44.4178 32.7599 52.2338C30.1444 53.4968 27.491 54.6882 24.7996 55.7963C22.1083 56.9044 19.3791 57.941 16.6245 58.9061C13.7184 59.9069 10.787 60.8482 7.83032 61.7179C6.90794 61.992 5.94765 62.4209 5 62.54L5.05054 62.5043C8.36101 61.3128 11.6462 60.026 14.8809 58.6558C33 50.9947 50.0704 40.2595 62.7816 25.7117C66.13 21.8751 68.9856 17.7526 71.7653 13.5467C70.1733 12.5936 68.556 11.6404 67.0144 10.6157C68.4296 10.0081 69.9585 9.54338 71.4116 9.03105C74.7094 7.86341 78.0199 6.74343 81.2924 5.54004Z" fill="url(#paint0_linear_2161_21350)"/>
<path d="M73.9003 25.54H88.0407L88.0784 68.1666V93.1749C89.1564 93.1509 90.247 93.1749 91.3251 93.1749C92.1149 93.1629 92.9423 93.091 93.7195 93.1749C93.9827 93.1988 94.246 93.2587 94.4716 93.3905C94.7098 93.5342 94.8853 93.7498 94.9605 94.0133C95.0357 94.3247 95.0107 94.672 94.8226 94.9355C94.5844 95.2709 94.1582 95.4266 93.7571 95.4745C93.193 95.5464 92.5662 95.4865 91.9895 95.4865C90.9114 95.4745 89.8334 95.4625 88.7553 95.4625L76.9089 95.4386L21.5006 95.4625L11.3842 95.4745C10.1556 95.4865 6.79604 95.6422 5.88093 95.4266C5.70543 95.3787 5.49232 95.3188 5.34189 95.199C5.11624 95.0194 5.01595 94.684 5.00342 94.4205C4.97835 94.0851 5.09117 93.7139 5.34189 93.4743C5.49232 93.3306 5.66782 93.2587 5.88093 93.2228C6.65815 93.103 7.49805 93.1869 8.28781 93.1869H11.8354L11.8104 73.1371C16.5364 73.0294 21.3 73.1252 26.0385 73.1611C26.0009 75.7122 25.9884 78.2634 26.0009 80.8025L25.9633 93.1509C28.1069 93.139 30.238 93.139 32.3817 93.1509V78.5748V58.6089L46.9232 58.5969V93.103C48.9415 93.103 51.0099 93.0072 53.0156 93.1509C53.0909 86.6593 53.0156 80.1557 53.0031 73.6522L52.9906 44.3082L67.4444 44.3322V52.5485L67.4695 93.1869C69.588 93.091 71.7442 93.1629 73.8627 93.1629L73.8753 51.3148C73.8878 42.7272 73.9881 34.1276 73.9003 25.54Z" fill="url(#paint1_linear_2161_21350)"/>
<path d="M73.9003 25.54H88.0407L88.0784 68.1666V93.1749C89.1564 93.1509 90.247 93.1749 91.3251 93.1749C92.1149 93.1629 92.9423 93.091 93.7195 93.1749C93.9827 93.1988 94.246 93.2587 94.4716 93.3905C94.7098 93.5342 94.8853 93.7498 94.9605 94.0133C95.0357 94.3247 95.0107 94.672 94.8226 94.9355C94.5844 95.2709 94.1582 95.4266 93.7571 95.4745C93.193 95.5464 92.5662 95.4865 91.9895 95.4865C90.9114 95.4745 89.8334 95.4625 88.7553 95.4625L76.9089 95.4386L21.5006 95.4625L11.3842 95.4745C10.1556 95.4865 6.79604 95.6422 5.88093 95.4266C5.70543 95.3787 5.49232 95.3188 5.34189 95.199C5.11624 95.0194 5.01595 94.684 5.00342 94.4205C4.97835 94.0851 5.09117 93.7139 5.34189 93.4743C5.49232 93.3306 5.66782 93.2587 5.88093 93.2228C6.65815 93.103 7.49805 93.1869 8.28781 93.1869H11.8354L11.8104 73.1371C16.5364 73.0294 21.3 73.1252 26.0385 73.1611C26.0009 75.7122 25.9884 78.2634 26.0009 80.8025L25.9633 93.1509C28.1069 93.139 30.238 93.139 32.3817 93.1509V78.5748V58.6089L46.9232 58.5969V93.103C48.9415 93.103 51.0099 93.0072 53.0156 93.1509C53.0909 86.6593 53.0156 80.1557 53.0031 73.6522L52.9906 44.3082L67.4444 44.3322V52.5485L67.4695 93.1869C69.588 93.091 71.7442 93.1629 73.8627 93.1629L73.8753 51.3148C73.8878 42.7272 73.9881 34.1276 73.9003 25.54Z" fill="url(#paint2_linear_2161_21350)"/>
<defs>
<linearGradient id="paint0_linear_2161_21350" x1="43.5" y1="5.54004" x2="43.5" y2="62.54" gradientUnits="userSpaceOnUse">
<stop stop-color="#3B82F6"/>
<stop offset="1" stop-color="#0070F0"/>
</linearGradient>
<linearGradient id="paint1_linear_2161_21350" x1="50.0523" y1="-42.2865" x2="50.0523" y2="91.8487" gradientUnits="userSpaceOnUse">
<stop stop-color="white"/>
<stop offset="0.4625" stop-color="#FDFEFF"/>
<stop offset="0.6291" stop-color="#F6F9FD"/>
<stop offset="0.7478" stop-color="#EBF2FB"/>
<stop offset="0.8438" stop-color="#DAE7F7"/>
<stop offset="0.9251" stop-color="#C4D8F3"/>
<stop offset="0.9967" stop-color="#A9C7ED"/>
<stop offset="1" stop-color="#A8C6ED"/>
</linearGradient>
<linearGradient id="paint2_linear_2161_21350" x1="50" y1="25.54" x2="50" y2="95.54" gradientUnits="userSpaceOnUse">
<stop stop-color="#DEE8F7"/>
<stop offset="1" stop-color="#B5C8E4"/>
</linearGradient>
</defs>
</svg>
