<svg width="100" height="101" viewBox="0 0 100 101" fill="none" xmlns="http://www.w3.org/2000/svg">
<path d="M21.8699 39.5325C14.2078 39.5325 8 45.7133 8 53.3423C8 53.3423 8 63.832 8 64.6444C8 65.4567 9.77364 70.1542 21.9054 70.1542C34.0371 70.1542 35.8108 65.7393 35.8108 64.6444C35.8108 63.5495 35.8108 53.3423 35.8108 53.3423C35.7753 45.7133 29.5675 39.5325 21.8699 39.5325Z" fill="url(#paint0_linear_2161_21291)"/>
<path d="M21.5502 40.2741C27.8586 40.2741 32.9725 35.1823 32.9725 28.9013C32.9725 22.6203 27.8586 17.5286 21.5502 17.5286C15.2419 17.5286 10.1279 22.6203 10.1279 28.9013C10.1279 35.1823 15.2419 40.2741 21.5502 40.2741Z" fill="url(#paint1_linear_2161_21291)"/>
<path d="M49.5894 31.1324C41.9273 31.1324 35.7195 37.3133 35.7195 44.9422C35.7195 44.9422 35.7195 55.432 35.7195 56.2444C35.7195 57.0567 37.4932 61.7541 49.6249 61.7541C61.7566 61.7541 63.5303 57.3393 63.5303 56.2444C63.5303 55.1495 63.5303 44.9422 63.5303 44.9422C63.4948 37.3133 57.287 31.1324 49.5894 31.1324Z" fill="url(#paint2_linear_2161_21291)"/>
<path d="M49.2701 31.8742C55.5784 31.8742 60.6924 26.7824 60.6924 20.5014C60.6924 14.2204 55.5784 9.12866 49.2701 9.12866C42.9617 9.12866 37.8478 14.2204 37.8478 20.5014C37.8478 26.7824 42.9617 31.8742 49.2701 31.8742Z" fill="url(#paint3_linear_2161_21291)"/>
<path d="M78.0947 38.155C70.4325 38.155 64.1893 44.3359 64.1893 52.0001C64.1893 52.0001 64.1893 62.4899 64.1893 63.3023C64.1893 64.1146 65.9629 68.8121 78.0947 68.8121C90.1909 68.8121 92 64.3972 92 63.3023C92 62.2074 92 52.0001 92 52.0001C92 44.3359 85.7923 38.155 78.0947 38.155Z" fill="url(#paint4_linear_2161_21291)"/>
<path d="M77.7755 38.8968C84.0839 38.8968 89.1978 33.805 89.1978 27.524C89.1978 21.243 84.0839 16.1512 77.7755 16.1512C71.4672 16.1512 66.3532 21.243 66.3532 27.524C66.3532 33.805 71.4672 38.8968 77.7755 38.8968Z" fill="url(#paint5_linear_2161_21291)"/>
<path d="M36.3067 50.7963C28.6446 50.7963 22.4013 56.9771 22.4013 64.6414C22.4013 64.6414 22.4013 75.1312 22.4013 75.9435C22.4013 76.7558 24.175 81.4533 36.3067 81.4533C48.4385 81.4533 50.2121 77.0384 50.2121 75.9435C50.2121 74.8486 50.2121 64.6414 50.2121 64.6414C50.1766 56.9771 43.9689 50.7963 36.3067 50.7963Z" fill="url(#paint6_linear_2161_21291)"/>
<path d="M35.9516 51.5733C42.2599 51.5733 47.3739 46.4815 47.3739 40.2005C47.3739 33.9195 42.2599 28.8278 35.9516 28.8278C29.6432 28.8278 24.5293 33.9195 24.5293 40.2005C24.5293 46.4815 29.6432 51.5733 35.9516 51.5733Z" fill="url(#paint7_linear_2161_21291)"/>
<path d="M64.3312 50.8669C56.669 50.8669 50.4258 57.0478 50.4258 64.712C50.4258 64.712 50.4258 75.2018 50.4258 76.0142C50.4258 76.8265 52.1995 81.524 64.3312 81.524C76.4275 81.524 78.2366 77.1091 78.2366 76.0142C78.2366 74.9193 78.2366 64.712 78.2366 64.712C78.2011 57.0478 71.9933 50.8669 64.3312 50.8669Z" fill="url(#paint8_linear_2161_21291)"/>
<path d="M63.976 51.644C70.2843 51.644 75.3983 46.5522 75.3983 40.2712C75.3983 33.9902 70.2843 28.8984 63.976 28.8984C57.6676 28.8984 52.5537 33.9902 52.5537 40.2712C52.5537 46.5522 57.6676 51.644 63.976 51.644Z" fill="url(#paint9_linear_2161_21291)"/>
<path d="M50.4261 61.9342C42.7639 61.9342 36.5207 68.1151 36.5207 75.7793C36.5207 75.7793 36.5207 86.2691 36.5207 87.0814C36.5207 87.8938 38.2943 92.5912 50.4261 92.5912C62.5223 92.5912 64.3315 88.1763 64.3315 87.0814C64.3315 85.9865 64.3315 75.7793 64.3315 75.7793C64.3315 68.1151 58.1237 61.9342 50.4261 61.9342Z" fill="white"/>
<path d="M50.4259 61.9342C42.7637 61.9342 36.5205 68.1151 36.5205 75.7793C36.5205 75.7793 36.5205 86.2691 36.5205 87.0814C36.5205 87.8938 38.2942 92.5912 50.4259 92.5912C62.5222 92.5912 64.3313 88.1763 64.3313 87.0814C64.3313 85.9865 64.3313 75.7793 64.3313 75.7793C64.3313 68.1151 58.1235 61.9342 50.4259 61.9342Z" fill="url(#paint10_linear_2161_21291)"/>
<path d="M50.107 62.6758C56.4153 62.6758 61.5292 57.5841 61.5292 51.3031C61.5292 45.0221 56.4153 39.9303 50.107 39.9303C43.7986 39.9303 38.6847 45.0221 38.6847 51.3031C38.6847 57.5841 43.7986 62.6758 50.107 62.6758Z" fill="white"/>
<path d="M50.107 62.6758C56.4153 62.6758 61.5292 57.5841 61.5292 51.3031C61.5292 45.0221 56.4153 39.9303 50.107 39.9303C43.7986 39.9303 38.6847 45.0221 38.6847 51.3031C38.6847 57.5841 43.7986 62.6758 50.107 62.6758Z" fill="url(#paint11_linear_2161_21291)"/>
<defs>
<linearGradient id="paint0_linear_2161_21291" x1="21.9054" y1="39.5325" x2="21.9054" y2="70.1542" gradientUnits="userSpaceOnUse">
<stop stop-color="#DEE8F7"/>
<stop offset="1" stop-color="#B5C8E4"/>
</linearGradient>
<linearGradient id="paint1_linear_2161_21291" x1="21.5502" y1="17.5286" x2="21.5502" y2="40.2741" gradientUnits="userSpaceOnUse">
<stop stop-color="#DEE8F7"/>
<stop offset="1" stop-color="#B5C8E4"/>
</linearGradient>
<linearGradient id="paint2_linear_2161_21291" x1="49.6249" y1="31.1324" x2="49.6249" y2="61.7541" gradientUnits="userSpaceOnUse">
<stop stop-color="#DEE8F7"/>
<stop offset="1" stop-color="#B5C8E4"/>
</linearGradient>
<linearGradient id="paint3_linear_2161_21291" x1="49.2701" y1="9.12866" x2="49.2701" y2="31.8742" gradientUnits="userSpaceOnUse">
<stop stop-color="#DEE8F7"/>
<stop offset="1" stop-color="#B5C8E4"/>
</linearGradient>
<linearGradient id="paint4_linear_2161_21291" x1="78.0947" y1="38.155" x2="78.0947" y2="68.8121" gradientUnits="userSpaceOnUse">
<stop stop-color="#DEE8F7"/>
<stop offset="1" stop-color="#B5C8E4"/>
</linearGradient>
<linearGradient id="paint5_linear_2161_21291" x1="77.7755" y1="16.1512" x2="77.7755" y2="38.8968" gradientUnits="userSpaceOnUse">
<stop stop-color="#DEE8F7"/>
<stop offset="1" stop-color="#B5C8E4"/>
</linearGradient>
<linearGradient id="paint6_linear_2161_21291" x1="36.3067" y1="50.7963" x2="36.3067" y2="81.4533" gradientUnits="userSpaceOnUse">
<stop stop-color="#DEE8F7"/>
<stop offset="1" stop-color="#B5C8E4"/>
</linearGradient>
<linearGradient id="paint7_linear_2161_21291" x1="35.9516" y1="28.8278" x2="35.9516" y2="51.5733" gradientUnits="userSpaceOnUse">
<stop stop-color="#DEE8F7"/>
<stop offset="1" stop-color="#B5C8E4"/>
</linearGradient>
<linearGradient id="paint8_linear_2161_21291" x1="64.3312" y1="50.8669" x2="64.3312" y2="81.524" gradientUnits="userSpaceOnUse">
<stop stop-color="#DEE8F7"/>
<stop offset="1" stop-color="#B5C8E4"/>
</linearGradient>
<linearGradient id="paint9_linear_2161_21291" x1="63.976" y1="28.8984" x2="63.976" y2="51.644" gradientUnits="userSpaceOnUse">
<stop stop-color="#DEE8F7"/>
<stop offset="1" stop-color="#B5C8E4"/>
</linearGradient>
<linearGradient id="paint10_linear_2161_21291" x1="50.4259" y1="61.9342" x2="50.4259" y2="92.5912" gradientUnits="userSpaceOnUse">
<stop stop-color="#3B82F6"/>
<stop offset="1" stop-color="#0070F0"/>
</linearGradient>
<linearGradient id="paint11_linear_2161_21291" x1="50.107" y1="39.9303" x2="50.107" y2="62.6758" gradientUnits="userSpaceOnUse">
<stop stop-color="#3B82F6"/>
<stop offset="1" stop-color="#0070F0"/>
</linearGradient>
</defs>
</svg>
