<svg width="80" height="80" viewBox="0 0 80 80" fill="none" xmlns="http://www.w3.org/2000/svg">
<circle cx="40" cy="40" r="38.5" stroke="#517193" stroke-opacity="0.5" stroke-width="3"/>
<g clip-path="url(#clip0_2103_42824)">
<path d="M39.9606 37.8477C39.998 43.2725 44.4223 47.6744 49.8556 47.6744H56.4181V13.334H49.8556C44.4223 13.334 39.998 17.7358 39.9606 23.1602H28.8486V37.8477H33.2931V49.1787H29.4703L23.6406 66.6673H26.9345L31.7225 52.3037H33.2931V66.6673H36.4181V52.3037H37.9888L42.7764 66.6673H46.0706L40.241 49.1787H36.4181V37.8477H39.9606ZM49.8556 16.459H53.2931V44.5494H49.8556C46.1223 44.5494 43.0848 41.5119 43.0848 37.7786V23.2298C43.0848 19.4965 46.1223 16.459 49.8556 16.459ZM31.9736 26.2852H39.9598V34.7227H31.9736V26.2852Z" fill="#A6B6C7"/>
</g>
<defs>
<clipPath id="clip0_2103_42824">
<rect width="53.3333" height="53.3333" fill="white" transform="translate(13.3281 13.334)"/>
</clipPath>
</defs>
</svg>
