<svg width="80" height="80" viewBox="0 0 80 80" fill="none" xmlns="http://www.w3.org/2000/svg">
<circle cx="40" cy="40" r="38.5" stroke="url(#paint0_linear_2103_42810)" stroke-width="3"/>
<path fill-rule="evenodd" clip-rule="evenodd" d="M60.6166 51.7952C61.3042 52.2386 61.5022 53.1555 61.0588 53.8431C59.9587 55.5493 58.385 57.149 57.1379 58.2906C56.5054 58.8696 55.9382 59.3477 55.5278 59.682C55.3224 59.8494 55.1554 59.9814 55.0384 60.0726C54.9799 60.1183 54.9338 60.1537 54.9015 60.1784L54.8636 60.2073L54.8528 60.2155L54.8483 60.2189C54.8481 60.219 54.8475 60.2195 53.9577 59.035L54.8475 60.2195L53.969 60.8794L49.9658 57.9485C49.3056 57.4652 49.1623 56.5381 49.6456 55.878C50.1289 55.2178 51.0559 55.0744 51.7161 55.5578L53.9177 57.1696C54.2593 56.8854 54.6799 56.5238 55.1372 56.1051C56.3194 55.0229 57.6738 53.6253 58.5687 52.2374C59.0121 51.5498 59.929 51.3518 60.6166 51.7952Z" fill="#517193"/>
<path fill-rule="evenodd" clip-rule="evenodd" d="M24.9757 20.9032C24.6561 20.15 23.7864 19.7985 23.0332 20.1181C17.193 22.5961 14.5376 29.177 13.6777 34.8168C13.2391 37.6934 13.2357 40.4974 13.5759 42.7039C13.7452 43.8017 14.0088 44.8137 14.3856 45.6303C14.7342 46.3858 15.3195 47.2767 16.3067 47.6292C17.0772 47.9044 17.9249 47.5029 18.2001 46.7323C18.4676 45.9835 18.0958 45.1617 17.3674 44.8635C17.3426 44.8381 17.2302 44.7231 17.0759 44.3889C16.8552 43.9106 16.6492 43.192 16.5043 42.2524C16.2162 40.3842 16.207 37.8859 16.6068 35.2633C17.4238 29.9046 19.8227 24.699 24.1906 22.8457C24.9438 22.5261 25.2953 21.6564 24.9757 20.9032Z" fill="#517193"/>
<path fill-rule="evenodd" clip-rule="evenodd" d="M53.4384 20.9032C53.758 20.15 54.6277 19.7985 55.3809 20.1181C61.221 22.5961 63.8765 29.177 64.7364 34.8168C65.175 37.6934 65.1783 40.4974 64.8381 42.7039C64.6689 43.8017 64.4053 44.8137 64.0285 45.6303C63.6798 46.3858 63.0946 47.2767 62.1074 47.6292C61.3369 47.9044 60.4891 47.5029 60.214 46.7323C59.9465 45.9835 60.3183 45.1617 61.0467 44.8635C61.0714 44.8381 61.1839 44.7231 61.3381 44.3889C61.5588 43.9106 61.7649 43.192 61.9098 42.2524C62.1978 40.3842 62.2071 37.8859 61.8072 35.2633C60.9902 29.9046 58.5913 24.699 54.2235 22.8457C53.4703 22.5261 53.1188 21.6564 53.4384 20.9032Z" fill="#517193"/>
<path fill-rule="evenodd" clip-rule="evenodd" d="M37.0482 37.5401C36.3002 37.4445 35.5489 37.3207 34.794 37.1842C34.1115 37.0609 33.4416 36.9306 32.7642 36.7988C31.6973 36.5913 30.6117 36.3802 29.4294 36.1869C25.6706 35.5725 21.3714 35.2245 16.0544 36.2426C15.2508 36.3965 14.4746 35.8698 14.3207 35.0662C14.1668 34.2626 14.6935 33.4864 15.4971 33.3325C21.2644 32.2282 25.9347 32.6133 29.9074 33.2627C31.1148 33.4601 32.3024 33.6906 33.4135 33.9063C34.081 34.0358 34.7209 34.16 35.321 34.2685C36.9756 34.5675 38.4491 34.7725 39.8466 34.7725C40.6648 34.7725 41.3281 35.4357 41.3281 36.2539C41.3281 36.735 41.0989 37.1625 40.7436 37.4331C41.0989 37.7038 41.3281 38.1313 41.3281 38.6123C41.3281 39.4305 40.6648 40.0938 39.8466 40.0938H39.8466C39.0739 40.0938 38.6157 40.1114 38.2827 40.2358C38.1527 40.2844 38.0768 40.3394 38.0201 40.4021C37.9619 40.4665 37.8684 40.6006 37.792 40.8843C37.3708 42.4479 36.7717 44.1857 35.9715 45.6177C35.2194 46.9636 34.0636 48.4492 32.3546 48.791C30.3807 49.1857 27.2788 49.1909 24.3414 48.9721C21.4042 48.7533 18.363 48.2904 16.5175 47.6313C15.747 47.3562 15.3454 46.5084 15.6206 45.7379C15.8958 44.9674 16.7435 44.5658 17.5141 44.841C18.9703 45.3611 21.6844 45.803 24.5615 46.0173C27.4384 46.2316 30.2098 46.1983 31.7735 45.8855C32.1175 45.8167 32.7046 45.3898 33.385 44.1723C34.0172 43.0409 34.5403 41.5644 34.931 40.1137C35.2847 38.8004 36.0579 37.9721 37.0482 37.5401Z" fill="#517193"/>
<path fill-rule="evenodd" clip-rule="evenodd" d="M41.7799 37.5401C42.5279 37.4445 43.2792 37.3207 44.0341 37.1842C44.7166 37.0609 45.3865 36.9306 46.0639 36.7988C47.1309 36.5913 48.2164 36.3802 49.3987 36.1869C53.1575 35.5725 57.4567 35.2245 62.7738 36.2426C63.5774 36.3965 64.3535 35.8698 64.5074 35.0662C64.6613 34.2626 64.1346 33.4864 63.331 33.3325C57.5638 32.2282 52.8934 32.6133 48.9207 33.2627C47.7133 33.4601 46.5258 33.6906 45.4146 33.9063C44.7471 34.0358 44.1072 34.16 43.5072 34.2685C41.8525 34.5675 40.379 34.7725 38.9815 34.7725C38.1633 34.7725 37.5 35.4357 37.5 36.2539C37.5 36.735 37.7293 37.1625 38.0845 37.4331C37.7293 37.7038 37.5 38.1313 37.5 38.6123C37.5 39.4305 38.1633 40.0938 38.9815 40.0938H38.9815C39.7543 40.0938 40.2124 40.1114 40.5454 40.2358C40.6754 40.2844 40.7513 40.3394 40.808 40.4021C40.8663 40.4665 40.9597 40.6006 41.0361 40.8843C41.4573 42.4479 42.0564 44.1857 42.8567 45.6177C43.6088 46.9636 44.7645 48.4492 46.4736 48.791C48.4474 49.1857 51.5493 49.1909 54.4867 48.9721C57.4239 48.7533 60.4651 48.2904 62.3106 47.6313C63.0811 47.3562 63.4827 46.5084 63.2075 45.7379C62.9323 44.9674 62.0846 44.5658 61.3141 44.841C59.8578 45.3611 57.1437 45.803 54.2666 46.0173C51.3897 46.2316 48.6183 46.1983 47.0546 45.8855C46.7106 45.8167 46.1235 45.3898 45.4432 44.1723C44.8109 43.0409 44.2879 41.5644 43.8971 40.1137C43.5434 38.8004 42.7702 37.9721 41.7799 37.5401Z" fill="#517193"/>
<defs>
<linearGradient id="paint0_linear_2103_42810" x1="-400.702" y1="39.7516" x2="279.649" y2="39.7516" gradientUnits="userSpaceOnUse">
<stop stop-color="#74E6FF"/>
<stop offset="1" stop-color="#5D9EFF"/>
</linearGradient>
</defs>
</svg>
