<svg width="16" height="16" viewBox="0 0 16 16" fill="none" xmlns="http://www.w3.org/2000/svg">
<g clip-path="url(#clip0_2150_22653)">
<path d="M8 0C6.41775 0 4.87103 0.469192 3.55544 1.34824C2.23985 2.22729 1.21447 3.47672 0.608967 4.93853C0.00346629 6.40034 -0.15496 8.00888 0.153721 9.56072C0.462403 11.1126 1.22433 12.538 2.34315 13.6569C3.46197 14.7757 4.88743 15.5376 6.43928 15.8463C7.99113 16.155 9.59966 15.9965 11.0615 15.391C12.5233 14.7855 13.7727 13.7602 14.6518 12.4446C15.5308 11.129 16 9.58225 16 8C15.9977 5.87897 15.1541 3.84547 13.6543 2.34568C12.1545 0.845886 10.121 0.00229405 8 0V0ZM8 14.6667C6.68146 14.6667 5.39253 14.2757 4.2962 13.5431C3.19987 12.8106 2.34539 11.7694 1.84081 10.5512C1.33622 9.33305 1.2042 7.99261 1.46144 6.6994C1.71867 5.40619 2.35361 4.21831 3.28596 3.28596C4.21831 2.3536 5.4062 1.71867 6.6994 1.46143C7.99261 1.2042 9.33305 1.33622 10.5512 1.8408C11.7694 2.34539 12.8106 3.19987 13.5431 4.2962C14.2757 5.39253 14.6667 6.68146 14.6667 8C14.6647 9.76752 13.9617 11.4621 12.7119 12.7119C11.4621 13.9617 9.76752 14.6647 8 14.6667V14.6667Z" fill="white"/>
<path d="M7.9974 6.66797H7.33073C7.15392 6.66797 6.98435 6.73821 6.85932 6.86323C6.7343 6.98826 6.66406 7.15782 6.66406 7.33464C6.66406 7.51145 6.7343 7.68102 6.85932 7.80604C6.98435 7.93106 7.15392 8.0013 7.33073 8.0013H7.9974V12.0013C7.9974 12.1781 8.06763 12.3477 8.19266 12.4727C8.31768 12.5977 8.48725 12.668 8.66406 12.668C8.84087 12.668 9.01044 12.5977 9.13547 12.4727C9.26049 12.3477 9.33073 12.1781 9.33073 12.0013V8.0013C9.33073 7.64768 9.19025 7.30854 8.9402 7.05849C8.69016 6.80844 8.35102 6.66797 7.9974 6.66797Z" fill="white"/>
<path d="M8 5.33203C8.55228 5.33203 9 4.88432 9 4.33203C9 3.77975 8.55228 3.33203 8 3.33203C7.44772 3.33203 7 3.77975 7 4.33203C7 4.88432 7.44772 5.33203 8 5.33203Z" fill="white"/>
</g>
<defs>
<clipPath id="clip0_2150_22653">
<rect width="16" height="16" fill="white"/>
</clipPath>
</defs>
</svg>
