<svg width="95" height="95" viewBox="0 0 95 95" fill="none" xmlns="http://www.w3.org/2000/svg">
<circle cx="47.4216" cy="47.3903" r="45.8903" stroke="#517193" stroke-width="3"/>
<path fill-rule="evenodd" clip-rule="evenodd" d="M52.9978 59.94C57.0026 57.9546 59.7558 53.8247 59.7558 49.0517C59.7558 44.1505 56.8527 39.9274 52.6723 38.0081C62.5146 40.3869 67.5639 49.0498 67.5639 49.0498C67.5639 49.0498 62.1461 57.3666 52.9978 59.94ZM42.2237 59.9403C33.0745 57.3674 27.6562 49.0498 27.6562 49.0498C27.6562 49.0498 32.7059 40.3862 42.549 38.0078C38.3682 39.927 35.4648 44.1503 35.4648 49.0517C35.4648 53.825 38.2184 57.9551 42.2237 59.9403ZM56.7558 49.0517C56.7558 54.1026 52.6613 58.1972 47.6103 58.1972C42.5594 58.1972 38.4648 54.1026 38.4648 49.0517C38.4648 44.0008 42.5594 39.9062 47.6103 39.9062C48.662 39.9062 49.6721 40.0837 50.6125 40.4104C49.3191 41.115 48.4414 42.4867 48.4414 44.0633C48.4414 46.3591 50.3026 48.2203 52.5984 48.2203C54.1752 48.2203 55.5468 47.3425 56.2515 46.0489C56.5783 46.9895 56.7558 47.9999 56.7558 49.0517Z" fill="#517193"/>
<path d="M26.0781 31.5214V33.7894H29.7981V35.1094H24.6981V26.7094H29.7381V28.0294H26.0781V30.2134H29.4381V31.5214H26.0781ZM33.3682 33.4654L34.9042 29.1094H36.2842L33.9802 35.3014C33.4042 36.8534 32.4282 37.5894 31.0522 37.5094V36.2974C31.4522 36.3214 31.7762 36.2374 32.0242 36.0454C32.2722 35.8534 32.4802 35.5454 32.6482 35.1214L32.7082 35.0014L30.1642 29.1094H31.5802L33.3682 33.4654ZM42.6562 32.6614H37.8802C37.9762 33.1094 38.1922 33.4574 38.5282 33.7054C38.8722 33.9534 39.2962 34.0774 39.8002 34.0774C40.4802 34.0774 40.9962 33.8294 41.3482 33.3334L42.4162 33.9574C41.8322 34.8294 40.9562 35.2654 39.7882 35.2654C38.8202 35.2654 38.0322 34.9694 37.4242 34.3774C36.8242 33.7774 36.5242 33.0214 36.5242 32.1094C36.5242 31.2214 36.8202 30.4734 37.4122 29.8654C37.9962 29.2574 38.7562 28.9534 39.6922 28.9534C40.5642 28.9534 41.2842 29.2614 41.8522 29.8774C42.4202 30.4934 42.7042 31.2414 42.7042 32.1214C42.7042 32.2814 42.6882 32.4614 42.6562 32.6614ZM37.8682 31.6054H41.3962C41.3082 31.1334 41.1082 30.7694 40.7962 30.5134C40.4922 30.2574 40.1202 30.1294 39.6802 30.1294C39.2002 30.1294 38.8002 30.2614 38.4802 30.5254C38.1602 30.7894 37.9562 31.1494 37.8682 31.6054ZM49.7246 35.2654C48.9166 35.2654 48.2286 35.0854 47.6606 34.7254C47.1006 34.3574 46.7086 33.8494 46.4846 33.2014L47.6726 32.5054C48.0086 33.4494 48.7046 33.9214 49.7606 33.9214C50.2726 33.9214 50.6606 33.8214 50.9246 33.6214C51.1886 33.4214 51.3206 33.1534 51.3206 32.8174C51.3206 32.4814 51.1806 32.2214 50.9006 32.0374C50.6206 31.8534 50.1246 31.6534 49.4126 31.4374C48.6846 31.2214 48.0966 30.9654 47.6486 30.6694C47.1046 30.2854 46.8326 29.7214 46.8326 28.9774C46.8326 28.2334 47.0966 27.6454 47.6246 27.2134C48.1446 26.7734 48.7806 26.5534 49.5326 26.5534C50.1966 26.5534 50.7806 26.7174 51.2846 27.0454C51.7966 27.3654 52.1886 27.8174 52.4606 28.4014L51.2966 29.0734C50.9446 28.2894 50.3566 27.8974 49.5326 27.8974C49.1326 27.8974 48.8126 27.9934 48.5726 28.1854C48.3326 28.3694 48.2126 28.6214 48.2126 28.9414C48.2126 29.2534 48.3326 29.5014 48.5726 29.6854C48.8126 29.8614 49.2566 30.0494 49.9046 30.2494C50.3046 30.3854 50.5366 30.4654 50.6006 30.4894C50.7046 30.5214 50.9126 30.6014 51.2246 30.7294C51.4806 30.8334 51.6846 30.9454 51.8366 31.0654C52.4606 31.5534 52.7486 32.1294 52.7006 32.7934C52.7006 33.5534 52.4246 34.1574 51.8726 34.6054C51.3366 35.0454 50.6206 35.2654 49.7246 35.2654ZM58.7216 29.9614V29.1094H60.0176V35.1094H58.7216V34.2454C58.2336 34.9254 57.5336 35.2654 56.6216 35.2654C55.7976 35.2654 55.0936 34.9614 54.5096 34.3534C53.9256 33.7454 53.6336 32.9974 53.6336 32.1094C53.6336 31.2214 53.9256 30.4734 54.5096 29.8654C55.0936 29.2574 55.7976 28.9534 56.6216 28.9534C57.5336 28.9534 58.2336 29.2894 58.7216 29.9614ZM55.4696 33.4894C55.8296 33.8494 56.2816 34.0294 56.8256 34.0294C57.3696 34.0294 57.8216 33.8494 58.1816 33.4894C58.5416 33.1214 58.7216 32.6614 58.7216 32.1094C58.7216 31.5574 58.5416 31.1014 58.1816 30.7414C57.8216 30.3734 57.3696 30.1894 56.8256 30.1894C56.2816 30.1894 55.8296 30.3734 55.4696 30.7414C55.1096 31.1014 54.9296 31.5574 54.9296 32.1094C54.9296 32.6534 55.1096 33.1134 55.4696 33.4894ZM64.6721 26.5534V27.8014C63.7281 27.7214 63.2561 28.1174 63.2561 28.9894V29.1094H64.6721V30.3574H63.2561V35.1094H61.9601V30.3574H61.0481V29.1094H61.9601V28.9894C61.9601 28.1574 62.1921 27.5294 62.6561 27.1054C63.1201 26.6814 63.7921 26.4974 64.6721 26.5534ZM70.9452 32.6614H66.1692C66.2652 33.1094 66.4812 33.4574 66.8172 33.7054C67.1612 33.9534 67.5852 34.0774 68.0892 34.0774C68.7692 34.0774 69.2852 33.8294 69.6372 33.3334L70.7052 33.9574C70.1212 34.8294 69.2452 35.2654 68.0772 35.2654C67.1092 35.2654 66.3212 34.9694 65.7132 34.3774C65.1132 33.7774 64.8132 33.0214 64.8132 32.1094C64.8132 31.2214 65.1092 30.4734 65.7012 29.8654C66.2852 29.2574 67.0452 28.9534 67.9812 28.9534C68.8532 28.9534 69.5732 29.2614 70.1412 29.8774C70.7092 30.4934 70.9932 31.2414 70.9932 32.1214C70.9932 32.2814 70.9772 32.4614 70.9452 32.6614ZM66.1572 31.6054H69.6852C69.5972 31.1334 69.3972 30.7694 69.0852 30.5134C68.7812 30.2574 68.4092 30.1294 67.9692 30.1294C67.4892 30.1294 67.0892 30.2614 66.7692 30.5254C66.4492 30.7894 66.2452 31.1494 66.1572 31.6054Z" fill="#517193"/>
<path d="M23.7087 66.0914H24.8127V71.6914H23.7087V66.0914ZM27.0333 70.6354H29.3933V71.6914H25.9293V66.0914H29.3533V67.1474H27.0333V68.3394H29.1533V69.3794H27.0333V70.6354ZM32.8684 71.8034C32.0258 71.8034 31.3298 71.5234 30.7804 70.9634C30.2311 70.4034 29.9564 69.7127 29.9564 68.8914C29.9564 68.0647 30.2311 67.3741 30.7804 66.8194C31.3298 66.2594 32.0258 65.9794 32.8684 65.9794C33.3751 65.9794 33.8418 66.0994 34.2684 66.3394C34.7004 66.5741 35.0364 66.8941 35.2764 67.2994L34.3244 67.8514C34.1858 67.6007 33.9884 67.4061 33.7324 67.2674C33.4764 67.1234 33.1884 67.0514 32.8684 67.0514C32.3244 67.0514 31.8844 67.2221 31.5484 67.5634C31.2178 67.9047 31.0524 68.3474 31.0524 68.8914C31.0524 69.4301 31.2178 69.8701 31.5484 70.2114C31.8844 70.5527 32.3244 70.7234 32.8684 70.7234C33.1884 70.7234 33.4764 70.6541 33.7324 70.5154C33.9938 70.3714 34.1911 70.1767 34.3244 69.9314L35.2764 70.4834C35.0364 70.8887 34.7031 71.2114 34.2764 71.4514C33.8498 71.6861 33.3804 71.8034 32.8684 71.8034ZM36.2971 72.4914H35.8411L39.0411 65.2914H39.4971L36.2971 72.4914ZM41.4686 70.6354H43.8286V71.6914H40.3646V66.0914H43.7886V67.1474H41.4686V68.3394H43.5886V69.3794H41.4686V70.6354ZM47.9268 66.0914H49.0308V71.6914H48.1908L45.7908 68.2674V71.6914H44.6868V66.0914H45.5268L47.9268 69.5074V66.0914ZM53.9896 67.9074C54.571 67.9234 55.043 68.1127 55.4056 68.4754C55.7683 68.8327 55.9496 69.2914 55.9496 69.8514C55.9496 70.4221 55.7603 70.8914 55.3816 71.2594C55.003 71.6221 54.515 71.8034 53.9176 71.8034C53.3203 71.8034 52.8323 71.6221 52.4536 71.2594C52.0803 70.8967 51.8936 70.4274 51.8936 69.8514C51.8936 69.4247 52.003 69.0487 52.2216 68.7234L53.9656 66.0914H55.2296L53.9896 67.9074ZM53.2536 70.5154C53.4296 70.6807 53.651 70.7634 53.9176 70.7634C54.1843 70.7634 54.4056 70.6807 54.5816 70.5154C54.763 70.3501 54.8536 70.1287 54.8536 69.8514C54.8536 69.5794 54.763 69.3607 54.5816 69.1954C54.4056 69.0301 54.1843 68.9474 53.9176 68.9474C53.651 68.9474 53.4296 69.0301 53.2536 69.1954C53.0776 69.3554 52.9896 69.5741 52.9896 69.8514C52.9896 70.1287 53.0776 70.3501 53.2536 70.5154ZM56.3103 71.6914V70.8674L58.2223 68.8994C58.649 68.4514 58.8623 68.0781 58.8623 67.7794C58.8623 67.5607 58.793 67.3847 58.6543 67.2514C58.521 67.1181 58.3476 67.0514 58.1343 67.0514C57.713 67.0514 57.401 67.2701 57.1983 67.7074L56.2703 67.1634C56.4463 66.7794 56.6996 66.4861 57.0303 66.2834C57.361 66.0807 57.7236 65.9794 58.1183 65.9794C58.625 65.9794 59.0596 66.1394 59.4223 66.4594C59.785 66.7741 59.9663 67.2007 59.9663 67.7394C59.9663 68.3207 59.6596 68.9181 59.0463 69.5314L57.9503 70.6274H60.0543V71.6914H56.3103ZM64.8508 69.7154V70.7394H64.2508V71.6914H63.1388V70.7394H60.4908V69.7154L62.3548 66.0914H63.5388L61.6828 69.7154H63.1388V68.3874H64.2508V69.7154H64.8508ZM64.9911 66.0914H68.6071V67.0274L66.7111 71.6914H65.5431L67.3831 67.1474H64.9911V66.0914ZM70.5115 66.0914H71.4715V71.6914H70.3675V67.2594L69.3115 67.5554L69.0395 66.6114L70.5115 66.0914Z" fill="#517193"/>
<rect x="22.0156" y="22.6172" width="51.2102" height="51.2102" rx="5" stroke="#517193" stroke-width="2"/>
</svg>
