<svg width="72" height="40" viewBox="0 0 72 40" fill="none" xmlns="http://www.w3.org/2000/svg">
<rect width="72" height="40" fill="white"/>
<path d="M19 22.3261L27.5 19L36 22.3261M19 22.3261V33.0435L27.5 36.0001M19 22.3261L27.5 25.6111M36 22.3261V32.674L27.5 36.0001M36 22.3261L27.5 25.6111M27.5 36.0001V25.6111" stroke="black" stroke-width="1.5"/>
<path d="M37 22.3261L45.5 19L54 22.3261M37 22.3261V32.674L45.5 36.0001M37 22.3261L45.5 25.6111M54 22.3261V32.674L45.5 36.0001M54 22.3261L45.5 25.6111M45.5 36.0001V25.6111" stroke="black" stroke-width="1.5"/>
<path d="M28 8.32615L36.5 5L45 8.32615M28 8.32615V19.0435L36.5 22.0001M28 8.32615L36.5 11.6111M45 8.32615V18.674L36.5 22.0001M45 8.32615L36.5 11.6111M36.5 22.0001V11.6111" stroke="black" stroke-width="1.5"/>
</svg>
