<svg width="72" height="40" viewBox="0 0 72 40" fill="none" xmlns="http://www.w3.org/2000/svg">
<rect width="72" height="40" fill="white"/>
<path d="M23 12.2827L36.5 7L50 12.2827M23 12.2827V29.3044L36.5 34.0001L50 28.7175V12.2827M23 12.2827L36.5 17.5L50 12.2827" stroke="black" stroke-width="1.5"/>
<path d="M36.8536 2.14645C36.6583 1.95118 36.3417 1.95118 36.1464 2.14645L32.9645 5.32843C32.7692 5.52369 32.7692 5.84027 32.9645 6.03553C33.1597 6.2308 33.4763 6.2308 33.6716 6.03553L36.5 3.20711L39.3284 6.03553C39.5237 6.2308 39.8403 6.2308 40.0355 6.03553C40.2308 5.84027 40.2308 5.52369 40.0355 5.32843L36.8536 2.14645ZM36 2.5V35H37V2.5H36Z" fill="#56B2E3"/>
<circle cx="36.5" cy="34.5" r="2.5" fill="#56B2E3"/>
</svg>
