<svg width="72" height="40" viewBox="0 0 72 40" fill="none" xmlns="http://www.w3.org/2000/svg">
<rect width="72" height="40" fill="white"/>
<path d="M23 12.2827L36.5 7L50 12.2827M23 12.2827V29.3044L36.5 34.0001L50 28.7175V12.2827M23 12.2827L36.5 17.5L50 12.2827" stroke="black" stroke-width="1.5"/>
<path d="M23.5 28.5L36 23L49.5 28" stroke="black" stroke-opacity="0.5" stroke-dasharray="2 2"/>
<path d="M36.1464 29.3536C36.3417 29.5488 36.6583 29.5488 36.8536 29.3536L40.0355 26.1716C40.2308 25.9763 40.2308 25.6597 40.0355 25.4645C39.8403 25.2692 39.5237 25.2692 39.3284 25.4645L36.5 28.2929L33.6716 25.4645C33.4763 25.2692 33.1597 25.2692 32.9645 25.4645C32.7692 25.6597 32.7692 25.9763 32.9645 26.1716L36.1464 29.3536ZM36 12V29H37V12H36Z" fill="#56B2E3"/>
<circle cx="36.5" cy="12.5" r="2.5" fill="#56B2E3"/>
</svg>
