<svg width="24" height="24" viewBox="0 0 24 24" fill="none" xmlns="http://www.w3.org/2000/svg">
<path fill-rule="evenodd" clip-rule="evenodd" d="M11.7797 6.97028C11.71 6.90043 11.6272 6.84502 11.5361 6.80721C11.445 6.7694 11.3473 6.74994 11.2487 6.74994C11.15 6.74994 11.0523 6.7694 10.9612 6.80721C10.8701 6.84502 10.7873 6.90043 10.7177 6.97028L6.21766 11.4703C6.14781 11.5399 6.0924 11.6227 6.05459 11.7138C6.01678 11.8049 5.99732 11.9026 5.99732 12.0013C5.99732 12.0999 6.01678 12.1976 6.05459 12.2887C6.0924 12.3798 6.14781 12.4626 6.21766 12.5323L10.7177 17.0323C10.8585 17.1731 11.0495 17.2522 11.2487 17.2522C11.4478 17.2522 11.6388 17.1731 11.7797 17.0323C11.9205 16.8914 11.9996 16.7004 11.9996 16.5013C11.9996 16.3021 11.9205 16.1111 11.7797 15.9703L7.80916 12.0013L11.7797 8.03228C11.8495 7.96261 11.9049 7.87985 11.9427 7.78873C11.9805 7.69761 12 7.59993 12 7.50128C12 7.40263 11.9805 7.30495 11.9427 7.21383C11.9049 7.12271 11.8495 7.03995 11.7797 6.97028Z" fill="#183B56"/>
<path fill-rule="evenodd" clip-rule="evenodd" d="M18 12C18 11.8011 17.921 11.6103 17.7803 11.4697C17.6397 11.329 17.4489 11.25 17.25 11.25H7.5C7.30109 11.25 7.11032 11.329 6.96967 11.4697C6.82902 11.6103 6.75 11.8011 6.75 12C6.75 12.1989 6.82902 12.3897 6.96967 12.5303C7.11032 12.671 7.30109 12.75 7.5 12.75H17.25C17.4489 12.75 17.6397 12.671 17.7803 12.5303C17.921 12.3897 18 12.1989 18 12Z" fill="#183B56"/>
</svg>
