<svg width="24" height="24" viewBox="0 0 24 24" fill="none" xmlns="http://www.w3.org/2000/svg">
<path fill-rule="evenodd" clip-rule="evenodd" d="M12.2203 6.97028C12.29 6.90043 12.3728 6.84502 12.4639 6.80721C12.555 6.7694 12.6527 6.74994 12.7513 6.74994C12.85 6.74994 12.9477 6.7694 13.0388 6.80721C13.1299 6.84502 13.2127 6.90043 13.2823 6.97028L17.7823 11.4703C17.8522 11.5399 17.9076 11.6227 17.9454 11.7138C17.9832 11.8049 18.0027 11.9026 18.0027 12.0013C18.0027 12.0999 17.9832 12.1976 17.9454 12.2887C17.9076 12.3798 17.8522 12.4626 17.7823 12.5323L13.2823 17.0323C13.1415 17.1731 12.9505 17.2522 12.7513 17.2522C12.5522 17.2522 12.3612 17.1731 12.2203 17.0323C12.0795 16.8914 12.0004 16.7004 12.0004 16.5013C12.0004 16.3021 12.0795 16.1111 12.2203 15.9703L16.1908 12.0013L12.2203 8.03228C12.1505 7.96261 12.0951 7.87985 12.0573 7.78873C12.0195 7.69761 12 7.59993 12 7.50128C12 7.40263 12.0195 7.30495 12.0573 7.21383C12.0951 7.12271 12.1505 7.03995 12.2203 6.97028Z" fill="#183B56"/>
<path fill-rule="evenodd" clip-rule="evenodd" d="M6 12C6 11.8011 6.07902 11.6103 6.21967 11.4697C6.36032 11.329 6.55109 11.25 6.75 11.25H16.5C16.6989 11.25 16.8897 11.329 17.0303 11.4697C17.171 11.6103 17.25 11.8011 17.25 12C17.25 12.1989 17.171 12.3897 17.0303 12.5303C16.8897 12.671 16.6989 12.75 16.5 12.75H6.75C6.55109 12.75 6.36032 12.671 6.21967 12.5303C6.07902 12.3897 6 12.1989 6 12Z" fill="#183B56"/>
</svg>
