<svg width="42" height="22" viewBox="0 0 42 22" fill="none" xmlns="http://www.w3.org/2000/svg">
<g clip-path="url(#clip0_39_41)">
<path fill-rule="evenodd" clip-rule="evenodd" d="M36.2203 6.97028C36.29 6.90043 36.3728 6.84502 36.4639 6.80721C36.555 6.7694 36.6527 6.74994 36.7513 6.74994C36.85 6.74994 36.9477 6.7694 37.0388 6.80721C37.1299 6.84502 37.2127 6.90043 37.2823 6.97028L41.7823 11.4703C41.8522 11.5399 41.9076 11.6227 41.9454 11.7138C41.9832 11.8049 42.0027 11.9026 42.0027 12.0013C42.0027 12.0999 41.9832 12.1976 41.9454 12.2887C41.9076 12.3798 41.8522 12.4626 41.7823 12.5323L37.2823 17.0323C37.1415 17.1731 36.9505 17.2522 36.7513 17.2522C36.5522 17.2522 36.3612 17.1731 36.2203 17.0323C36.0795 16.8914 36.0004 16.7004 36.0004 16.5013C36.0004 16.3021 36.0795 16.1111 36.2203 15.9703L40.1908 12.0013L36.2203 8.03228C36.1505 7.96261 36.0951 7.87985 36.0573 7.78873C36.0195 7.69761 36 7.59993 36 7.50128C36 7.40263 36.0195 7.30495 36.0573 7.21383C36.0951 7.12271 36.1505 7.03995 36.2203 6.97028Z" fill="#183B56"/>
<path fill-rule="evenodd" clip-rule="evenodd" d="M30 12C30 11.8011 30.079 11.6103 30.2197 11.4697C30.3603 11.329 30.5511 11.25 30.75 11.25H40.5C40.6989 11.25 40.8897 11.329 41.0303 11.4697C41.171 11.6103 41.25 11.8011 41.25 12C41.25 12.1989 41.171 12.3897 41.0303 12.5303C40.8897 12.671 40.6989 12.75 40.5 12.75H30.75C30.5511 12.75 30.3603 12.671 30.2197 12.5303C30.079 12.3897 30 12.1989 30 12Z" fill="#183B56"/>
<g filter="url(#filter0_d_39_41)">
<path d="M15.7135 7.54736C15.7135 7.69611 15.7879 7.13298 16.0216 6.7611C16.1118 6.4934 16.3046 6.27248 16.5577 6.14695C16.683 6.08479 16.8193 6.04792 16.9589 6.03845C17.0984 6.02897 17.2385 6.04708 17.371 6.09173C17.5036 6.13638 17.626 6.2067 17.7314 6.29868C17.8368 6.39065 17.923 6.50249 17.9852 6.62779C18.0473 6.75309 18.0842 6.8894 18.0937 7.02895C18.1031 7.1685 18.085 7.30855 18.0404 7.4411C18.0404 8.14235 18.0404 8.11048 18.0404 8.57798C18.0404 9.04548 18.0404 9.44923 18.0404 9.85298C17.9996 10.4745 17.9143 11.0923 17.7854 11.7017C17.6145 12.2181 17.3789 12.7108 17.0841 13.168C16.5676 13.7451 16.1413 14.3971 15.8198 15.1017C15.7362 15.4494 15.7004 15.8069 15.7135 16.1642C15.7139 16.4942 15.7568 16.8227 15.841 17.1417C15.4067 17.1895 14.9685 17.1895 14.5341 17.1417C14.1198 17.078 13.5991 16.2492 13.4716 15.9942C13.4393 15.9242 13.3876 15.8649 13.3227 15.8234C13.2577 15.7818 13.1822 15.7597 13.1051 15.7597C13.028 15.7597 12.9525 15.7818 12.8875 15.8234C12.8225 15.8649 12.7708 15.9242 12.7385 15.9942C12.5048 16.398 11.9948 17.1311 11.6229 17.1736C10.9216 17.2586 9.44477 17.1736 8.29727 17.1736C8.29727 17.1736 8.48852 16.1111 8.05289 15.7286C7.61727 15.3461 7.17102 14.8999 6.83102 14.6024L5.94914 13.6249C5.32846 13.0466 4.87361 12.3129 4.63164 11.4999C4.40852 10.5011 4.42977 10.0124 4.63164 9.61923C4.85481 9.29264 5.19216 9.06142 5.57727 8.97111C5.88598 8.9167 6.20332 8.93858 6.50164 9.03485C6.71018 9.12216 6.8904 9.2656 7.02227 9.44923C7.26664 9.7786 7.34102 9.93798 7.25602 9.57673C7.17102 9.21548 7.04352 8.68423 6.82039 7.92985C6.63977 7.34548 6.45914 7.01611 6.32102 6.62298C6.18289 6.22986 6.00227 5.85798 5.78977 5.36923C5.59728 4.87018 5.43756 4.35909 5.31164 3.83923C5.26352 3.62513 5.26235 3.40315 5.3082 3.18856C5.35405 2.97396 5.44585 2.77184 5.57727 2.59611C5.76404 2.41235 5.99603 2.28118 6.24977 2.21588C6.50351 2.15058 6.77 2.15347 7.02227 2.22423C7.42319 2.39796 7.76081 2.69107 7.98914 3.06361C8.30683 3.57746 8.56356 4.12658 8.75414 4.69986C9.10437 5.61201 9.35377 6.55972 9.49789 7.52611C9.47195 6.95588 9.51836 6.38467 9.63602 5.82611C9.69499 5.65652 9.79158 5.50247 9.91854 5.37551C10.0455 5.24854 10.1996 5.15195 10.3691 5.09298C10.6848 4.9918 11.0205 4.96991 11.3466 5.02923C11.6718 5.10146 11.9591 5.29049 12.1541 5.56048C12.3981 6.18147 12.5381 6.83838 12.5685 7.50486C12.5995 6.93531 12.6994 6.37161 12.866 5.82611C13.0442 5.57658 13.3032 5.39638 13.5991 5.3161C13.9505 5.25258 14.3103 5.25258 14.6616 5.3161C14.9491 5.41359 15.2007 5.59492 15.3841 5.83673C15.6088 6.40033 15.745 6.99527 15.7879 7.60048" fill="white"/>
<path d="M15.7135 7.54736C15.7135 7.69611 15.7879 7.13298 16.0216 6.7611C16.1118 6.4934 16.3046 6.27248 16.5577 6.14695C16.683 6.08479 16.8193 6.04792 16.9589 6.03845C17.0984 6.02897 17.2385 6.04708 17.371 6.09173C17.5036 6.13638 17.626 6.2067 17.7314 6.29868C17.8368 6.39065 17.923 6.50249 17.9852 6.62779C18.0473 6.75309 18.0842 6.8894 18.0937 7.02895C18.1031 7.1685 18.085 7.30855 18.0404 7.4411C18.0404 8.14235 18.0404 8.11048 18.0404 8.57798C18.0404 9.04548 18.0404 9.44923 18.0404 9.85298C17.9996 10.4745 17.9143 11.0923 17.7854 11.7017C17.6145 12.2181 17.3789 12.7108 17.0841 13.168C16.5676 13.7451 16.1413 14.3971 15.8198 15.1017C15.7362 15.4494 15.7004 15.8069 15.7135 16.1642C15.7139 16.4942 15.7568 16.8227 15.841 17.1417C15.4067 17.1895 14.9685 17.1895 14.5341 17.1417C14.1198 17.078 13.5991 16.2492 13.4716 15.9942C13.4393 15.9242 13.3876 15.8649 13.3227 15.8234C13.2577 15.7818 13.1822 15.7597 13.1051 15.7597C13.028 15.7597 12.9525 15.7818 12.8875 15.8234C12.8225 15.8649 12.7708 15.9242 12.7385 15.9942C12.5048 16.398 11.9948 17.1311 11.6229 17.1736C10.9216 17.2586 9.44477 17.1736 8.29727 17.1736C8.29727 17.1736 8.48852 16.1111 8.05289 15.7286C7.61727 15.3461 7.17102 14.8999 6.83102 14.6024L5.94914 13.6249C5.32846 13.0466 4.87361 12.3129 4.63164 11.4999C4.40852 10.5011 4.42977 10.0124 4.63164 9.61923C4.85481 9.29264 5.19216 9.06142 5.57727 8.97111C5.88598 8.9167 6.20332 8.93858 6.50164 9.03485C6.71018 9.12216 6.8904 9.2656 7.02227 9.44923C7.26664 9.7786 7.34102 9.93798 7.25602 9.57673C7.17102 9.21548 7.04352 8.68423 6.82039 7.92985C6.63977 7.34548 6.45914 7.01611 6.32102 6.62298C6.18289 6.22986 6.00227 5.85798 5.78977 5.36923C5.59728 4.87018 5.43756 4.35909 5.31164 3.83923C5.26352 3.62513 5.26235 3.40315 5.3082 3.18856C5.35405 2.97396 5.44585 2.77184 5.57727 2.59611C5.76404 2.41235 5.99603 2.28118 6.24977 2.21588C6.50351 2.15058 6.77 2.15347 7.02227 2.22423C7.42319 2.39796 7.76081 2.69107 7.98914 3.06361C8.30683 3.57746 8.56356 4.12658 8.75414 4.69986C9.10437 5.61201 9.35377 6.55972 9.49789 7.52611C9.47195 6.95588 9.51836 6.38467 9.63602 5.82611C9.69499 5.65652 9.79158 5.50247 9.91854 5.37551C10.0455 5.24854 10.1996 5.15195 10.3691 5.09298C10.6848 4.9918 11.0205 4.96991 11.3466 5.02923C11.6718 5.10146 11.9591 5.29049 12.1541 5.56048C12.3981 6.18147 12.5381 6.83838 12.5685 7.50486C12.5995 6.93531 12.6994 6.37161 12.866 5.82611C13.0442 5.57658 13.3032 5.39638 13.5991 5.3161C13.9505 5.25258 14.3103 5.25258 14.6616 5.3161C14.9491 5.41359 15.2007 5.59492 15.3841 5.83673C15.5782 6.38745 15.6892 6.96397 15.7135 7.54736V7.54736Z" stroke="#183B56" stroke-width="0.75" stroke-linejoin="round"/>
<path d="M14.6829 14.0074V10.3311" stroke="#183B56" stroke-width="0.75" stroke-linecap="round"/>
<path d="M12.5366 14.018L12.526 10.3311" stroke="#183B56" stroke-width="0.75" stroke-linecap="round"/>
<path d="M10.4222 10.363L10.4435 13.9967" stroke="#183B56" stroke-width="0.75" stroke-linecap="round"/>
</g>
</g>
<defs>
<filter id="filter0_d_39_41" x="2.09717" y="1.79395" width="18.3739" height="19.7925" filterUnits="userSpaceOnUse" color-interpolation-filters="sRGB">
<feFlood flood-opacity="0" result="BackgroundImageFix"/>
<feColorMatrix in="SourceAlpha" type="matrix" values="0 0 0 0 0 0 0 0 0 0 0 0 0 0 0 0 0 0 127 0" result="hardAlpha"/>
<feOffset dy="2"/>
<feGaussianBlur stdDeviation="1"/>
<feColorMatrix type="matrix" values="0 0 0 0 0 0 0 0 0 0 0 0 0 0 0 0 0 0 0.25 0"/>
<feBlend mode="normal" in2="BackgroundImageFix" result="effect1_dropShadow_39_41"/>
<feBlend mode="normal" in="SourceGraphic" in2="effect1_dropShadow_39_41" result="shape"/>
</filter>
<clipPath id="clip0_39_41">
<rect width="42" height="22" fill="white"/>
</clipPath>
</defs>
</svg>
