<svg width="20" height="15" viewBox="0 0 20 15" fill="none" xmlns="http://www.w3.org/2000/svg">
<g clip-path="url(#clip0_715_6403)">
<path d="M4.69159 0H15.3058V15H4.69162L4.69159 0Z" fill="white"/>
<path d="M-0.614059 0H4.6916V15H-0.614059V0ZM15.3059 0H20.6115V15H15.3088L15.3059 0ZM6.28244 7.24806L5.86641 7.38869L7.78535 9.07325C7.93185 9.50391 7.73557 9.62988 7.60957 9.85841L9.68966 9.59472L9.63985 11.6894L10.0734 11.6777L9.97675 9.59766L12.0627 9.84669C11.9338 9.57422 11.8195 9.43066 11.9367 8.99706L13.8528 7.40037L13.5188 7.27734C13.2433 7.06641 13.6359 6.26075 13.6945 5.75097C13.6945 5.75097 12.5783 6.13475 12.5051 5.93262L12.218 5.38478L11.2014 6.50391C11.09 6.53028 11.0432 6.48631 11.0168 6.39256L11.4856 4.05469L10.7414 4.47363C10.6799 4.50294 10.6183 4.4795 10.5773 4.40625L9.85957 2.97069L9.12128 4.46194C9.06563 4.51466 9.00997 4.5205 8.9631 4.48537L8.2541 4.08694L8.68185 6.40428C8.64669 6.49803 8.56466 6.52147 8.47091 6.47169L7.49532 5.36719C7.36935 5.57228 7.28438 5.90331 7.11447 5.9795C6.94747 6.04981 6.38203 5.83887 6.0041 5.75684C6.133 6.22266 6.53732 6.99609 6.28244 7.25097V7.24806Z" fill="#D52B1E"/>
</g>
<defs>
<clipPath id="clip0_715_6403">
<rect width="20" height="15" fill="white"/>
</clipPath>
</defs>
</svg>
