<svg width="40" height="40" viewBox="0 0 40 40" fill="none" xmlns="http://www.w3.org/2000/svg">
<g clip-path="url(#clip0_422_992)">
<path d="M34.3423 31.074C33.6644 31.0745 33.0017 30.874 32.4378 30.4978C31.874 30.1215 31.4344 29.5865 31.1746 28.9604C30.9149 28.3343 30.8467 27.6453 30.9786 26.9804C31.1106 26.3155 31.4367 25.7047 31.9159 25.2252C32.395 24.7458 33.0055 24.4192 33.6703 24.2867C34.3351 24.1543 35.0242 24.222 35.6505 24.4813C36.2768 24.7406 36.8121 25.1798 37.1887 25.7434C37.5654 26.3069 37.7664 26.9695 37.7664 27.6474C37.766 28.5556 37.4052 29.4266 36.7632 30.069C36.1212 30.7115 35.2505 31.0729 34.3423 31.074ZM34.3423 25.4707C33.9116 25.4702 33.4906 25.5974 33.1323 25.8363C32.774 26.0752 32.4946 26.415 32.3295 26.8127C32.1644 27.2104 32.1209 27.6481 32.2046 28.0705C32.2883 28.4929 32.4954 28.881 32.7997 29.1856C33.104 29.4903 33.4919 29.6978 33.9142 29.782C34.3365 29.8662 34.7743 29.8233 35.1722 29.6586C35.57 29.4939 35.9101 29.2149 36.1494 28.8569C36.3887 28.4989 36.5164 28.078 36.5164 27.6474C36.5162 27.0706 36.2871 26.5174 35.8795 26.1094C35.4719 25.7013 34.919 25.4716 34.3423 25.4707Z" fill="#1C1B1B"/>
<path d="M16.2855 31.074C15.6076 31.0747 14.9448 30.8743 14.3808 30.4982C13.8169 30.122 13.3771 29.5871 13.1173 28.961C12.8574 28.3349 12.7891 27.6458 12.9209 26.9809C13.0527 26.316 13.3788 25.7051 13.8579 25.2255C14.337 24.746 14.9476 24.4193 15.6124 24.2868C16.2772 24.1543 16.9664 24.222 17.5927 24.4812C18.219 24.7405 18.7544 25.1797 19.1311 25.7433C19.5077 26.3069 19.7088 26.9695 19.7088 27.6474C19.7081 28.5554 19.3474 29.4261 18.7056 30.0685C18.0638 30.7109 17.1935 31.0725 16.2855 31.074ZM16.2855 25.4707C15.8548 25.47 15.4337 25.5971 15.0753 25.8359C14.7169 26.0747 14.4374 26.4144 14.2721 26.8121C14.1069 27.2098 14.0633 27.6475 14.1469 28.07C14.2305 28.4924 14.4375 28.8806 14.7418 29.1853C15.0461 29.4901 15.4339 29.6977 15.8563 29.782C16.2786 29.8662 16.7164 29.8233 17.1143 29.6587C17.5123 29.494 17.8524 29.215 18.0917 28.857C18.3311 28.499 18.4588 28.078 18.4588 27.6474C18.4584 27.0708 18.2294 26.5179 17.822 26.1099C17.4146 25.7019 16.862 25.472 16.2855 25.4707Z" fill="#1C1B1B"/>
<path d="M38.8507 28.2722H37.1415C36.9757 28.2722 36.8168 28.2064 36.6996 28.0892C36.5823 27.972 36.5165 27.813 36.5165 27.6472C36.5165 27.4815 36.5823 27.3225 36.6996 27.2053C36.8168 27.0881 36.9757 27.0222 37.1415 27.0222H38.674V23.7081C38.6736 23.26 38.5589 22.8194 38.3407 22.4281L34.9573 16.3622C34.9284 16.3105 34.8862 16.2674 34.8351 16.2373C34.784 16.2073 34.7258 16.1914 34.6665 16.1914H30.0557V27.0247H31.544C31.7098 27.0247 31.8687 27.0906 31.9859 27.2078C32.1031 27.325 32.169 27.484 32.169 27.6497C32.169 27.8155 32.1031 27.9745 31.9859 28.0917C31.8687 28.2089 31.7098 28.2747 31.544 28.2747H29.4307C29.2649 28.2747 29.1059 28.2089 28.9887 28.0917C28.8715 27.9745 28.8057 27.8155 28.8057 27.6497V15.5664C28.8057 15.4006 28.8715 15.2417 28.9887 15.1245C29.1059 15.0073 29.2649 14.9414 29.4307 14.9414H34.6665C34.9485 14.9413 35.2253 15.0164 35.4685 15.1591C35.7117 15.3018 35.9124 15.5069 36.0498 15.7531L39.4323 21.8197C39.7539 22.3972 39.9228 23.0471 39.9232 23.7081V27.1997C39.9227 27.484 39.8096 27.7566 39.6085 27.9576C39.4075 28.1587 39.135 28.2718 38.8507 28.2722Z" fill="#1C1B1B"/>
<path d="M13.4858 28.2715H7.49335C7.32759 28.2715 7.16862 28.2057 7.05141 28.0885C6.9342 27.9712 6.86835 27.8123 6.86835 27.6465V22.8398C6.86835 22.6741 6.9342 22.5151 7.05141 22.3979C7.16862 22.2807 7.32759 22.2148 7.49335 22.2148C7.65911 22.2148 7.81808 22.2807 7.93529 22.3979C8.0525 22.5151 8.11835 22.6741 8.11835 22.8398V27.0215H13.4858C13.6516 27.0215 13.8106 27.0874 13.9278 27.2046C14.045 27.3218 14.1108 27.4807 14.1108 27.6465C14.1108 27.8123 14.045 27.9712 13.9278 28.0885C13.8106 28.2057 13.6516 28.2715 13.4858 28.2715Z" fill="#1C1B1B"/>
<path d="M7.49335 20.6224C7.32759 20.6224 7.16862 20.5566 7.05141 20.4394C6.9342 20.3222 6.86835 20.1632 6.86835 19.9974V15.8008C6.86835 15.635 6.9342 15.476 7.05141 15.3588C7.16862 15.2416 7.32759 15.1758 7.49335 15.1758C7.65911 15.1758 7.81808 15.2416 7.93529 15.3588C8.0525 15.476 8.11835 15.635 8.11835 15.8008V19.9999C8.11769 20.1653 8.05155 20.3236 7.93441 20.4403C7.81727 20.5569 7.65868 20.6224 7.49335 20.6224Z" fill="#1C1B1B"/>
<path d="M29.4307 28.2708H19.0832C18.9174 28.2708 18.7584 28.2049 18.6412 28.0877C18.524 27.9705 18.4582 27.8115 18.4582 27.6458C18.4582 27.48 18.524 27.321 18.6412 27.2038C18.7584 27.0866 18.9174 27.0208 19.0832 27.0208H28.8057V10.6699H8.11816V13.2441C8.11816 13.4098 8.05232 13.5688 7.93511 13.686C7.8179 13.8032 7.65892 13.8691 7.49316 13.8691C7.3274 13.8691 7.16843 13.8032 7.05122 13.686C6.93401 13.5688 6.86816 13.4098 6.86816 13.2441V10.5549C6.86861 10.2539 6.98844 9.96533 7.20138 9.75255C7.41432 9.53977 7.70297 9.42014 8.004 9.41992H28.9207C29.2216 9.42036 29.51 9.54008 29.7227 9.75284C29.9355 9.9656 30.0552 10.254 30.0557 10.5549V27.6458C30.0557 27.8115 29.9898 27.9705 29.8726 28.0877C29.7554 28.2049 29.5964 28.2708 29.4307 28.2708Z" fill="#1C1B1B"/>
<path d="M9.96375 23.4648H2.03125C1.86549 23.4648 1.70652 23.399 1.58931 23.2818C1.4721 23.1646 1.40625 23.0056 1.40625 22.8398C1.40625 22.6741 1.4721 22.5151 1.58931 22.3979C1.70652 22.2807 1.86549 22.2148 2.03125 22.2148H9.96375C10.1295 22.2148 10.2885 22.2807 10.4057 22.3979C10.5229 22.5151 10.5887 22.6741 10.5887 22.8398C10.5887 23.0056 10.5229 23.1646 10.4057 23.2818C10.2885 23.399 10.1295 23.4648 9.96375 23.4648Z" fill="#1C1B1B"/>
<path d="M16.285 20.623H5.21582C5.05006 20.623 4.89109 20.5572 4.77388 20.44C4.65667 20.3228 4.59082 20.1638 4.59082 19.998C4.59082 19.8323 4.65667 19.6733 4.77388 19.5561C4.89109 19.4389 5.05006 19.373 5.21582 19.373H16.285C16.4507 19.373 16.6097 19.4389 16.7269 19.5561C16.8441 19.6733 16.91 19.8323 16.91 19.998C16.91 20.1638 16.8441 20.3228 16.7269 20.44C16.6097 20.5572 16.4507 20.623 16.285 20.623Z" fill="#1C1B1B"/>
<path d="M4.87133 17.3223H0.548828C0.383068 17.3223 0.224097 17.2564 0.106886 17.1392C-0.0103239 17.022 -0.0761719 16.863 -0.0761719 16.6973C-0.0761719 16.5315 -0.0103239 16.3725 0.106886 16.2553C0.224097 16.1381 0.383068 16.0723 0.548828 16.0723H4.87133C5.03709 16.0723 5.19606 16.1381 5.31327 16.2553C5.43048 16.3725 5.49633 16.5315 5.49633 16.6973C5.49633 16.863 5.43048 17.022 5.31327 17.1392C5.19606 17.2564 5.03709 17.3223 4.87133 17.3223Z" fill="#1C1B1B"/>
<path d="M11.8029 13.8691H4.17285C4.00709 13.8691 3.84812 13.8033 3.73091 13.6861C3.6137 13.5689 3.54785 13.4099 3.54785 13.2441C3.54785 13.0784 3.6137 12.9194 3.73091 12.8022C3.84812 12.685 4.00709 12.6191 4.17285 12.6191H11.8029C11.9686 12.6191 12.1276 12.685 12.2448 12.8022C12.362 12.9194 12.4279 13.0784 12.4279 13.2441C12.4279 13.4099 12.362 13.5689 12.2448 13.6861C12.1276 13.8033 11.9686 13.8691 11.8029 13.8691Z" fill="#1C1B1B"/>
</g>
<defs>
<clipPath id="clip0_422_992">
<rect width="40" height="40" fill="white"/>
</clipPath>
</defs>
</svg>
