<svg width="20" height="15" viewBox="0 0 20 15" fill="none" xmlns="http://www.w3.org/2000/svg">
<g clip-path="url(#clip0_715_6406)">
<path d="M0 0H20V15H0V0Z" fill="#012169"/>
<path d="M2.34375 0L9.96875 5.65625L17.5625 0H20V1.9375L12.5 7.53125L20 13.0938V15H17.5L10 9.40625L2.53125 15H0V13.125L7.46875 7.5625L0 2V0H2.34375Z" fill="white"/>
<path d="M13.25 8.78125L20 13.75V15L11.5312 8.78125H13.25ZM7.5 9.40625L7.6875 10.5L1.6875 15H0L7.5 9.40625ZM20 0V0.09375L12.2188 5.96875L12.2812 4.59375L18.4375 0H20ZM0 0L7.46875 5.5H5.59375L0 1.3125V0Z" fill="#C8102E"/>
<path d="M7.53125 0V15H12.5312V0H7.53125ZM0 5V10H20V5H0Z" fill="white"/>
<path d="M0 6.03125V9.03125H20V6.03125H0ZM8.53125 0V15H11.5312V0H8.53125Z" fill="#C8102E"/>
</g>
<defs>
<clipPath id="clip0_715_6406">
<rect width="20" height="15" fill="white"/>
</clipPath>
</defs>
</svg>
