<svg width="88" height="16" viewBox="0 0 88 16" fill="none" xmlns="http://www.w3.org/2000/svg">
<rect width="16" height="16" fill="#00B67A"/>
<path fill-rule="evenodd" clip-rule="evenodd" d="M9.41762 6.58605H14L10.2934 9.4186L10.2934 9.41865L8.0023 11.1674L10.612 10.4558L10.3083 9.46695L11.7088 14L8.00221 11.1674L4.29119 14L5.71102 9.4186L2 6.5814L6.58238 6.58605L8.00221 2L9.41762 6.58605Z" fill="white"/>
<rect x="18" width="16" height="16" fill="#00B67A"/>
<path fill-rule="evenodd" clip-rule="evenodd" d="M27.4176 6.58605H32L28.2934 9.4186L28.2934 9.41865L26.0023 11.1674L28.612 10.4558L28.3083 9.46695L29.7088 14L26.0022 11.1674L22.2912 14L23.711 9.4186L20 6.5814L24.5824 6.58605L26.0022 2L27.4176 6.58605Z" fill="white"/>
<rect x="36" width="16" height="16" fill="#00B67A"/>
<path fill-rule="evenodd" clip-rule="evenodd" d="M45.4176 6.58605H50L46.2934 9.4186L46.2934 9.41865L44.0023 11.1674L46.612 10.4558L46.3083 9.46695L47.7088 14L44.0022 11.1674L40.2912 14L41.711 9.4186L38 6.5814L42.5824 6.58605L44.0022 2L45.4176 6.58605Z" fill="white"/>
<rect x="54" width="16" height="16" fill="#00B67A"/>
<path fill-rule="evenodd" clip-rule="evenodd" d="M63.4176 6.58605H68L64.2934 9.4186L64.2934 9.41865L62.0023 11.1674L64.612 10.4558L64.3083 9.46695L65.7088 14L62.0022 11.1674L58.2912 14L59.711 9.4186L56 6.5814L60.5824 6.58605L62.0022 2L63.4176 6.58605Z" fill="white"/>
<rect x="72" width="16" height="16" fill="#00B67A"/>
<path fill-rule="evenodd" clip-rule="evenodd" d="M81.4176 6.58605H86L82.2934 9.4186L82.2934 9.41865L80.0023 11.1674L82.612 10.4558L82.3083 9.46695L83.7088 14L80.0022 11.1674L76.2912 14L77.711 9.4186L74 6.5814L78.5824 6.58605L80.0022 2L81.4176 6.58605Z" fill="white"/>
</svg>
