<svg width="89" height="16" viewBox="0 0 89 16" fill="none" xmlns="http://www.w3.org/2000/svg">
<rect x="0.5" width="16" height="16" fill="#72CF0F"/>
<path fill-rule="evenodd" clip-rule="evenodd" d="M9.91762 6.58605H14.5L10.7934 9.4186L10.7934 9.41865L8.5023 11.1674L11.112 10.4558L10.8083 9.46695L12.2088 14L8.50221 11.1674L4.79119 14L6.21102 9.4186L2.5 6.5814L7.08238 6.58605L8.50221 2L9.91762 6.58605Z" fill="white"/>
<rect x="18.5" width="16" height="16" fill="#72CF0F"/>
<path fill-rule="evenodd" clip-rule="evenodd" d="M27.9176 6.58605H32.5L28.7934 9.4186L28.7934 9.41865L26.5023 11.1674L29.112 10.4558L28.8083 9.46695L30.2088 14L26.5022 11.1674L22.7912 14L24.211 9.4186L20.5 6.5814L25.0824 6.58605L26.5022 2L27.9176 6.58605Z" fill="white"/>
<rect x="36.5" width="16" height="16" fill="#72CF0F"/>
<path fill-rule="evenodd" clip-rule="evenodd" d="M45.9176 6.58605H50.5L46.7934 9.4186L46.7934 9.41865L44.5023 11.1674L47.112 10.4558L46.8083 9.46695L48.2088 14L44.5022 11.1674L40.7912 14L42.211 9.4186L38.5 6.5814L43.0824 6.58605L44.5022 2L45.9176 6.58605Z" fill="white"/>
<rect x="54.5" width="16" height="16" fill="#72CF0F"/>
<path fill-rule="evenodd" clip-rule="evenodd" d="M63.9176 6.58605H68.5L64.7934 9.4186L64.7934 9.41865L62.5023 11.1674L65.112 10.4558L64.8083 9.46695L66.2088 14L62.5022 11.1674L58.7912 14L60.211 9.4186L56.5 6.5814L61.0824 6.58605L62.5022 2L63.9176 6.58605Z" fill="white"/>
<rect x="72.5" width="16" height="16" fill="#DCDCE6"/>
<path fill-rule="evenodd" clip-rule="evenodd" d="M81.9176 6.58605H86.5L82.7934 9.4186L82.7934 9.41865L80.5023 11.1674L83.112 10.4558L82.8083 9.46695L84.2088 14L80.5022 11.1674L76.7912 14L78.211 9.4186L74.5 6.5814L79.0824 6.58605L80.5022 2L81.9176 6.58605Z" fill="white"/>
</svg>
