<svg width="262" height="85" viewBox="0 0 262 85" fill="none" xmlns="http://www.w3.org/2000/svg">
<path d="M69.6532 47.5389V35.3078H79.6215C83.5329 35.3078 86.7038 34.2605 89.1341 32.1659C91.5645 30.0712 92.7797 27.3594 92.7797 24.0305C92.7797 20.7015 91.6214 18.0646 89.305 16.1195C86.9886 14.1371 83.7228 13.1459 79.5076 13.1459C75.5203 13.1459 72.2925 14.2119 69.8241 16.344C67.3558 18.476 66.0077 21.3187 65.7799 24.8721H49.9445C50.2483 17.3539 53.1534 11.3505 58.6597 6.86206C64.1659 2.37359 71.3621 0.129348 80.2481 0.129348C88.8303 0.129348 95.7606 2.11176 101.039 6.07658C106.356 10.0414 109.014 15.2593 109.014 21.7301C109.014 26.6301 107.457 30.7819 104.343 34.1857C101.229 37.5894 97.1277 39.7402 92.0392 40.6379V40.9745C98.229 41.4981 103.128 43.4993 106.735 46.9778C110.381 50.419 112.204 54.9262 112.204 60.4994C112.204 67.7183 109.185 73.5534 103.147 78.0044C97.1467 82.4555 89.3809 84.681 79.8494 84.681C70.6216 84.681 63.1596 82.3994 57.4635 77.8361C51.8053 73.2728 48.7673 67.2321 48.3496 59.7139H64.8115C65.0773 63.155 66.5583 65.9042 69.2545 67.9615C71.9887 70.0187 75.5962 71.0473 80.0772 71.0473C84.3683 71.0473 87.881 69.9626 90.6151 67.7931C93.3493 65.6237 94.7164 62.8371 94.7164 59.4334C94.7164 55.7304 93.3872 52.8316 90.729 50.7369C88.0708 48.6049 84.4253 47.5389 79.7924 47.5389H69.6532Z" fill="#344D79"/>
<path d="M180.477 73.2915C174.591 80.8845 166.483 84.681 156.154 84.681C145.825 84.681 137.698 80.9032 131.774 73.3476C125.85 65.7546 122.888 55.3937 122.888 42.2649C122.888 29.2109 125.85 18.9248 131.774 11.4066C137.736 3.85104 145.863 0.0732422 156.154 0.0732422C166.445 0.0732422 174.553 3.83234 180.477 11.3505C186.401 18.8687 189.363 29.1548 189.363 42.2088C189.363 55.3002 186.401 65.6611 180.477 73.2915ZM144.534 63.5291C147.344 68.5786 151.217 71.1034 156.154 71.1034C161.091 71.1034 164.945 68.5973 167.717 63.5852C170.489 58.5357 171.875 51.4289 171.875 42.2649C171.875 33.1758 170.47 26.1438 167.66 21.1691C164.888 16.157 161.053 13.6509 156.154 13.6509C151.255 13.6509 147.401 16.157 144.591 21.1691C141.781 26.1812 140.376 33.2132 140.376 42.2649C140.376 51.3915 141.762 58.4795 144.534 63.5291Z" fill="#344D79"/>
<path d="M261.999 42.4338C261.999 46.7362 260.906 50.1631 258.719 52.7144C256.532 55.2408 253.583 56.504 249.873 56.504C246.162 56.504 243.213 55.2408 241.026 52.7144C238.84 50.1631 237.746 46.7362 237.746 42.4338C237.746 38.1565 238.827 34.7672 240.99 32.2658C243.177 29.7644 246.138 28.5137 249.873 28.5137C253.608 28.5137 256.556 29.7644 258.719 32.2658C260.906 34.7672 261.999 38.1565 261.999 42.4338ZM247.034 47.9493C247.722 49.2751 248.669 49.9379 249.873 49.9379C251.077 49.9379 252.023 49.2751 252.711 47.9493C253.399 46.5986 253.743 44.7601 253.743 42.4338C253.743 40.1076 253.399 38.3066 252.711 37.0309C252.047 35.7302 251.101 35.0798 249.873 35.0798C248.669 35.0798 247.722 35.7427 247.034 37.0684C246.346 38.3691 246.002 40.1701 246.002 42.4714C246.002 44.7726 246.346 46.5986 247.034 47.9493ZM229.821 13.9933C229.821 18.2957 228.728 21.7225 226.541 24.2739C224.354 26.8003 221.405 28.0635 217.695 28.0635C213.984 28.0635 211.036 26.8003 208.849 24.2739C206.662 21.7225 205.568 18.2957 205.568 13.9933C205.568 9.716 206.65 6.32665 208.812 3.82529C210.999 1.32392 213.96 0.0732422 217.695 0.0732422C221.43 0.0732422 224.379 1.32392 226.541 3.82529C228.728 6.32665 229.821 9.716 229.821 13.9933ZM214.857 19.5088C215.545 20.8346 216.491 21.4974 217.695 21.4974C218.899 21.4974 219.845 20.8346 220.533 19.5088C221.221 18.1581 221.565 16.3196 221.565 13.9933C221.565 11.6671 221.221 9.86608 220.533 8.59039C219.87 7.28968 218.924 6.63932 217.695 6.63932C216.491 6.63932 215.545 7.30218 214.857 8.62791C214.169 9.92862 213.825 11.7296 213.825 14.0309C213.825 16.3321 214.169 18.1581 214.857 19.5088ZM218.801 55.7161H209.328L248.177 1.57406H257.613L218.801 55.7161Z" fill="#344D79"/>
<path d="M207.421 70.7674C208.663 69.3203 210.344 68.5968 212.464 68.5968C214.584 68.5968 216.262 69.3203 217.497 70.7674C218.739 72.2145 219.36 74.1799 219.36 76.6637C219.36 79.1403 218.739 81.1022 217.497 82.5493C216.255 83.9963 214.578 84.7199 212.464 84.7199C210.344 84.7199 208.663 83.9963 207.421 82.5493C206.186 81.1022 205.568 79.1403 205.568 76.6637C205.568 74.1799 206.186 72.2145 207.421 70.7674ZM215.258 72.7653C214.564 71.8005 213.633 71.3182 212.464 71.3182C211.295 71.3182 210.36 71.8005 209.66 72.7653C208.967 73.73 208.62 75.0295 208.62 76.6637C208.62 78.2908 208.967 79.5867 209.66 80.5514C210.354 81.5089 211.288 81.9877 212.464 81.9877C213.633 81.9877 214.564 81.5089 215.258 80.5514C215.952 79.5867 216.298 78.2908 216.298 76.6637C216.298 75.0295 215.952 73.73 215.258 72.7653Z" fill="#344D79"/>
<path d="M228.342 84.4499H225.35V68.8668H234.713V71.5558H228.342V75.735H234.158V78.316H228.342V84.4499Z" fill="#344D79"/>
<path d="M243.536 84.4499H240.544V68.8668H249.907V71.5558H243.536V75.735H249.352V78.316H243.536V84.4499Z" fill="#344D79"/>
<path d="M7.80653 84.4499H4.55021V71.5558H0V68.8668H12.3675V71.5558H7.80653V84.4499Z" fill="#344D79"/>
<path d="M19.2532 70.7674C20.6046 69.3203 22.4341 68.5968 24.7415 68.5968C27.049 68.5968 28.8748 69.3203 30.219 70.7674C31.5704 72.2145 32.2462 74.1799 32.2462 76.6637C32.2462 79.1403 31.5704 81.1022 30.219 82.5493C28.8676 83.9963 27.0418 84.7199 24.7415 84.7199C22.4341 84.7199 20.6046 83.9963 19.2532 82.5493C17.909 81.1022 17.2369 79.1403 17.2369 76.6637C17.2369 74.1799 17.909 72.2145 19.2532 70.7674ZM27.7822 72.7653C27.0274 71.8005 26.0139 71.3182 24.7415 71.3182C23.4692 71.3182 22.452 71.8005 21.6901 72.7653C20.9353 73.73 20.5579 75.0295 20.5579 76.6637C20.5579 78.2908 20.9353 79.5867 21.6901 80.5514C22.4449 81.5089 23.462 81.9877 24.7415 81.9877C26.0139 81.9877 27.0274 81.5089 27.7822 80.5514C28.537 79.5867 28.9144 78.2908 28.9144 76.6637C28.9144 75.0295 28.537 73.73 27.7822 72.7653Z" fill="#344D79"/>
<path d="M3.2882 42.3966V52.3143C3.2882 53.3467 3.57492 54.1667 4.14836 54.7745C4.72906 55.3749 5.54204 55.6751 6.58729 55.6751C7.62529 55.6751 8.43101 55.3749 9.00445 54.7745C9.58514 54.1667 9.87549 53.3467 9.87549 52.3143V42.3966H13.1637V52.6438C13.1637 54.401 12.5649 55.8215 11.3672 56.9052C10.1767 57.9815 8.58344 58.5197 6.58729 58.5197C4.58388 58.5197 2.98334 57.9815 1.78565 56.9052C0.595215 55.8215 0 54.401 0 52.6438V42.3966H3.2882Z" fill="#344D79"/>
<path d="M20.2475 42.3966H26.8021C28.4208 42.3966 29.731 42.8945 30.7327 43.8903C31.7417 44.8861 32.2462 46.1967 32.2462 47.8222C32.2462 49.4404 31.7272 50.751 30.6892 51.7541C29.6512 52.7499 28.301 53.2478 26.6388 53.2478H23.5357V58.2451H20.2475V42.3966ZM23.5357 45.0215V50.6558H25.9202C26.8638 50.6558 27.5969 50.4106 28.1196 49.92C28.6422 49.4294 28.9035 48.7338 28.9035 47.8332C28.9035 46.9326 28.6422 46.2407 28.1196 45.7574C27.6042 45.2668 26.8747 45.0215 25.9311 45.0215H23.5357Z" fill="#344D79"/>
</svg>
