<svg width="100" height="21" viewBox="0 0 100 21" fill="none" xmlns="http://www.w3.org/2000/svg">
<g clip-path="url(#clip0_569_19850)">
<path d="M9.99994 14.8916L13.4583 16.9833C14.0916 17.3666 14.8666 16.8 14.6999 16.0833L13.7833 12.15L16.8416 9.49997C17.3999 9.01663 17.0999 8.09997 16.3666 8.04163L12.3416 7.69997L10.7666 3.9833C10.4833 3.3083 9.5166 3.3083 9.23327 3.9833L7.65827 7.69163L3.63327 8.0333C2.89994 8.09163 2.59994 9.0083 3.15827 9.49163L6.2166 12.1416L5.29994 16.075C5.13327 16.7916 5.90827 17.3583 6.5416 16.975L9.99994 14.8916Z" fill="#FCE358"/>
</g>
<g clip-path="url(#clip1_569_19850)">
<path d="M29.9999 14.8916L33.4583 16.9833C34.0916 17.3666 34.8666 16.8 34.6999 16.0833L33.7833 12.15L36.8416 9.49997C37.3999 9.01663 37.0999 8.09997 36.3666 8.04163L32.3416 7.69997L30.7666 3.9833C30.4833 3.3083 29.5166 3.3083 29.2333 3.9833L27.6583 7.69163L23.6333 8.0333C22.8999 8.09163 22.5999 9.0083 23.1583 9.49163L26.2166 12.1416L25.2999 16.075C25.1333 16.7916 25.9083 17.3583 26.5416 16.975L29.9999 14.8916Z" fill="#FCE358"/>
</g>
<g clip-path="url(#clip2_569_19850)">
<path d="M49.9999 14.8916L53.4583 16.9833C54.0916 17.3666 54.8666 16.8 54.6999 16.0833L53.7833 12.15L56.8416 9.49997C57.3999 9.01663 57.0999 8.09997 56.3666 8.04163L52.3416 7.69997L50.7666 3.9833C50.4833 3.3083 49.5166 3.3083 49.2333 3.9833L47.6583 7.69163L43.6333 8.0333C42.8999 8.09163 42.5999 9.0083 43.1583 9.49163L46.2166 12.1416L45.2999 16.075C45.1333 16.7916 45.9083 17.3583 46.5416 16.975L49.9999 14.8916Z" fill="#FCE358"/>
</g>
<g clip-path="url(#clip3_569_19850)">
<path d="M69.9999 14.8916L73.4583 16.9833C74.0916 17.3666 74.8666 16.8 74.6999 16.0833L73.7833 12.15L76.8416 9.49997C77.3999 9.01663 77.0999 8.09997 76.3666 8.04163L72.3416 7.69997L70.7666 3.9833C70.4833 3.3083 69.5166 3.3083 69.2333 3.9833L67.6583 7.69163L63.6333 8.0333C62.8999 8.09163 62.5999 9.0083 63.1583 9.49163L66.2166 12.1416L65.2999 16.075C65.1333 16.7916 65.9083 17.3583 66.5416 16.975L69.9999 14.8916Z" fill="#FCE358"/>
</g>
<g clip-path="url(#clip4_569_19850)">
<path d="M89.9999 14.8916L93.4583 16.9833C94.0916 17.3666 94.8666 16.8 94.6999 16.0833L93.7833 12.15L96.8416 9.49997C97.3999 9.01663 97.0999 8.09997 96.3666 8.04163L92.3416 7.69997L90.7666 3.9833C90.4833 3.3083 89.5166 3.3083 89.2333 3.9833L87.6583 7.69163L83.6333 8.0333C82.8999 8.09163 82.5999 9.0083 83.1583 9.49163L86.2166 12.1416L85.2999 16.075C85.1333 16.7916 85.9083 17.3583 86.5416 16.975L89.9999 14.8916Z" fill="#FCE358"/>
</g>
<defs>
<clipPath id="clip0_569_19850">
<rect width="20" height="20" fill="white" transform="translate(0 0.5)"/>
</clipPath>
<clipPath id="clip1_569_19850">
<rect width="20" height="20" fill="white" transform="translate(20 0.5)"/>
</clipPath>
<clipPath id="clip2_569_19850">
<rect width="20" height="20" fill="white" transform="translate(40 0.5)"/>
</clipPath>
<clipPath id="clip3_569_19850">
<rect width="20" height="20" fill="white" transform="translate(60 0.5)"/>
</clipPath>
<clipPath id="clip4_569_19850">
<rect width="20" height="20" fill="white" transform="translate(80 0.5)"/>
</clipPath>
</defs>
</svg>
