<svg width="105" height="24" viewBox="0 0 105 24" fill="none" xmlns="http://www.w3.org/2000/svg">
<g clip-path="url(#clip0_661_4198)">
<path d="M27.8295 8.50586H38.3599V10.352H34.2193V20.7302H31.9425V10.352H27.8203V8.50586H27.8295ZM37.91 11.879H39.8563V13.5871H39.8931C39.9573 13.3455 40.0767 13.1126 40.2511 12.8883C40.4255 12.664 40.6367 12.4483 40.8846 12.2672C41.1325 12.0774 41.4079 11.9307 41.7108 11.81C42.0138 11.6978 42.326 11.6374 42.6381 11.6374C42.8768 11.6374 43.0512 11.646 43.143 11.6547C43.2349 11.6633 43.3267 11.6806 43.4277 11.6892V13.5698C43.2808 13.544 43.1339 13.5267 42.9778 13.5095C42.8217 13.4922 42.6748 13.4836 42.5279 13.4836C42.1791 13.4836 41.8486 13.5526 41.5364 13.682C41.2243 13.8114 40.958 14.0098 40.7285 14.26C40.499 14.5188 40.3154 14.8294 40.1777 15.209C40.0399 15.5885 39.9757 16.0199 39.9757 16.5116V20.7215H37.9008V11.879H37.91ZM52.9665 20.7302H50.9284V19.4965H50.8916C50.6346 19.9451 50.2582 20.2988 49.7532 20.5662C49.2483 20.8337 48.7342 20.9717 48.2108 20.9717C46.9714 20.9717 46.0717 20.687 45.5209 20.109C44.97 19.531 44.6946 18.6597 44.6946 17.4951V11.879H46.7695V17.3053C46.7695 18.0817 46.9255 18.6338 47.2469 18.953C47.559 19.2722 48.0089 19.4361 48.5781 19.4361C49.0188 19.4361 49.3768 19.3757 49.6706 19.2463C49.9644 19.1169 50.2031 18.953 50.3775 18.7373C50.5611 18.5303 50.6897 18.2715 50.7723 17.9782C50.8549 17.6849 50.8916 17.3657 50.8916 17.0206V11.8876H52.9665V20.7302ZM56.5011 17.8919C56.5654 18.4613 56.7949 18.8581 57.1897 19.091C57.5936 19.3153 58.071 19.4361 58.631 19.4361C58.8238 19.4361 59.0442 19.4189 59.2921 19.393C59.5399 19.3671 59.7786 19.3067 59.9898 19.2291C60.2101 19.1514 60.3846 19.0307 60.5315 18.8754C60.6692 18.7201 60.7334 18.5217 60.7243 18.2715C60.7151 18.0213 60.6141 17.8143 60.4305 17.659C60.2469 17.4951 60.0173 17.3743 59.7327 17.2708C59.4481 17.1759 59.1268 17.0896 58.7596 17.0206C58.3923 16.9516 58.0251 16.8739 57.6487 16.7963C57.2631 16.7187 56.8867 16.6151 56.5286 16.503C56.1706 16.3908 55.8493 16.2355 55.5647 16.0371C55.2801 15.8473 55.0505 15.5972 54.8853 15.2952C54.7108 14.9933 54.6282 14.6223 54.6282 14.1737C54.6282 13.6906 54.7568 13.2938 55.0046 12.966C55.2525 12.6381 55.5738 12.3793 55.9503 12.1809C56.3358 11.9825 56.7582 11.8445 57.2264 11.7582C57.6946 11.6806 58.1445 11.6374 58.5668 11.6374C59.0534 11.6374 59.5216 11.6892 59.9623 11.7841C60.4029 11.879 60.8069 12.0343 61.1649 12.2586C61.523 12.4742 61.8168 12.7589 62.0555 13.104C62.2942 13.4491 62.4411 13.8718 62.5053 14.3635H60.3387C60.2377 13.8977 60.0173 13.5785 59.6593 13.4232C59.3012 13.2593 58.8881 13.1816 58.4291 13.1816C58.2822 13.1816 58.1077 13.1903 57.9058 13.2161C57.7038 13.242 57.5202 13.2852 57.3365 13.3455C57.1621 13.4059 57.0152 13.5008 56.8867 13.6216C56.7673 13.7424 56.7031 13.8977 56.7031 14.0961C56.7031 14.3376 56.7949 14.5274 56.9693 14.6741C57.1438 14.8207 57.3733 14.9415 57.6579 15.045C57.9425 15.1399 58.2638 15.2262 58.631 15.2952C58.9983 15.3642 59.3747 15.4419 59.7603 15.5195C60.1367 15.5972 60.5039 15.7007 60.8712 15.8128C61.2384 15.925 61.5597 16.0803 61.8443 16.2787C62.1289 16.4771 62.3584 16.7187 62.5329 17.012C62.7073 17.3053 62.7991 17.6762 62.7991 18.1076C62.7991 18.6338 62.6706 19.0738 62.4135 19.4448C62.1565 19.8071 61.826 20.109 61.422 20.3333C61.018 20.5576 60.559 20.7302 60.0632 20.8337C59.5675 20.9372 59.0717 20.989 58.5851 20.989C57.9884 20.989 57.4375 20.9286 56.9326 20.7992C56.4277 20.6698 55.987 20.48 55.6197 20.2298C55.2525 19.971 54.9587 19.6518 54.7476 19.2722C54.5364 18.8926 54.4262 18.4354 54.4079 17.9092H56.5011V17.8919ZM63.35 11.879H64.9199V9.22189H66.9947V11.879H68.8676V13.3369H66.9947V18.0644C66.9947 18.2715 67.0039 18.444 67.0223 18.5993C67.0406 18.746 67.0865 18.8754 67.1508 18.9789C67.2151 19.0824 67.3161 19.1601 67.4538 19.2118C67.5915 19.2636 67.7659 19.2895 68.0046 19.2895C68.1515 19.2895 68.2984 19.2895 68.4453 19.2808C68.5922 19.2722 68.7391 19.255 68.886 19.2205V20.7302C68.6565 20.756 68.4269 20.7733 68.2158 20.7992C67.9954 20.8251 67.7751 20.8337 67.5456 20.8337C66.9947 20.8337 66.5541 20.7819 66.2236 20.687C65.893 20.5921 65.6268 20.4455 65.4432 20.2557C65.2504 20.0659 65.131 19.833 65.0576 19.5483C64.9933 19.2636 64.9474 18.9358 64.9382 18.5734V13.3542H63.3683V11.879H63.35ZM70.3365 11.879H72.3012V13.0781H72.338C72.6317 12.5605 73.0357 12.1982 73.559 11.9739C74.0823 11.7496 74.6423 11.6374 75.2574 11.6374C76.0011 11.6374 76.6438 11.7582 77.1946 12.0084C77.7454 12.2499 78.2045 12.5864 78.5717 13.0177C78.939 13.4491 79.2052 13.9494 79.3888 14.5188C79.5724 15.0882 79.6642 15.7007 79.6642 16.3477C79.6642 16.943 79.5816 17.521 79.4163 18.0731C79.2511 18.6338 79.0032 19.1256 78.6727 19.5569C78.3422 19.9882 77.9199 20.3247 77.4058 20.5835C76.8916 20.8423 76.2949 20.9717 75.5971 20.9717C75.2942 20.9717 74.9912 20.9458 74.6882 20.8941C74.3853 20.8423 74.0915 20.756 73.8161 20.6439C73.5406 20.5317 73.2744 20.3851 73.0449 20.2039C72.8062 20.0228 72.6134 19.8157 72.4481 19.5828H72.4114V23.9997H70.3365V11.879ZM77.5894 16.3132C77.5894 15.9164 77.5343 15.5281 77.4241 15.1486C77.314 14.769 77.1487 14.4412 76.9284 14.1478C76.708 13.8545 76.4326 13.6216 76.1113 13.4491C75.7808 13.2765 75.4043 13.1816 74.982 13.1816C74.1098 13.1816 73.4488 13.4663 73.0082 14.0357C72.5675 14.6051 72.3471 15.3642 72.3471 16.3132C72.3471 16.7618 72.4022 17.1759 72.5216 17.5555C72.6409 17.935 72.8062 18.2629 73.0449 18.5389C73.2744 18.815 73.5498 19.0307 73.8712 19.1859C74.1925 19.3499 74.5689 19.4275 74.9912 19.4275C75.4686 19.4275 75.8634 19.3326 76.1939 19.1514C76.5244 18.9703 76.7906 18.7287 77.0018 18.444C77.213 18.1507 77.369 17.8229 77.4608 17.4519C77.5435 17.081 77.5894 16.7014 77.5894 16.3132ZM81.2525 8.50586H83.3274V10.352H81.2525V8.50586ZM81.2525 11.879H83.3274V20.7302H81.2525V11.879ZM85.1819 8.50586H87.2567V20.7302H85.1819V8.50586ZM93.619 20.9717C92.8662 20.9717 92.196 20.8509 91.6084 20.618C91.0209 20.3851 90.5251 20.0573 90.112 19.6518C89.708 19.2377 89.3959 18.746 89.1847 18.1766C88.9736 17.6072 88.8634 16.9775 88.8634 16.2959C88.8634 15.623 88.9736 15.0019 89.1847 14.4325C89.3959 13.8632 89.708 13.3714 90.112 12.9573C90.5159 12.5432 91.0209 12.224 91.6084 11.9911C92.196 11.7582 92.8662 11.6374 93.619 11.6374C94.3718 11.6374 95.0421 11.7582 95.6296 11.9911C96.2172 12.224 96.713 12.5519 97.1261 12.9573C97.5301 13.3714 97.8422 13.8632 98.0534 14.4325C98.2645 15.0019 98.3747 15.623 98.3747 16.2959C98.3747 16.9775 98.2645 17.6072 98.0534 18.1766C97.8422 18.746 97.5301 19.2377 97.1261 19.6518C96.7221 20.0659 96.2172 20.3851 95.6296 20.618C95.0421 20.8509 94.3718 20.9717 93.619 20.9717ZM93.619 19.4275C94.0781 19.4275 94.482 19.3326 94.8217 19.1514C95.1614 18.9703 95.4368 18.7287 95.6572 18.4354C95.8775 18.1421 96.0336 17.8056 96.1438 17.4347C96.2447 17.0637 96.2998 16.6841 96.2998 16.2959C96.2998 15.9164 96.2447 15.5454 96.1438 15.1658C96.0428 14.7862 95.8775 14.4584 95.6572 14.1651C95.4368 13.8718 95.1614 13.6389 94.8217 13.4577C94.482 13.2765 94.0781 13.1816 93.619 13.1816C93.16 13.1816 92.756 13.2765 92.4163 13.4577C92.0767 13.6389 91.8012 13.8804 91.5809 14.1651C91.3606 14.4584 91.2045 14.7862 91.0943 15.1658C90.9933 15.5454 90.9382 15.9164 90.9382 16.2959C90.9382 16.6841 90.9933 17.0637 91.0943 17.4347C91.1953 17.8056 91.3606 18.1421 91.5809 18.4354C91.8012 18.7287 92.0767 18.9703 92.4163 19.1514C92.756 19.3412 93.16 19.4275 93.619 19.4275ZM98.9806 11.879H100.551V9.22189H102.625V11.879H104.498V13.3369H102.625V18.0644C102.625 18.2715 102.635 18.444 102.653 18.5993C102.671 18.746 102.717 18.8754 102.781 18.9789C102.846 19.0824 102.947 19.1601 103.084 19.2118C103.222 19.2636 103.397 19.2895 103.635 19.2895C103.782 19.2895 103.929 19.2895 104.076 19.2808C104.223 19.2722 104.37 19.255 104.517 19.2205V20.7302C104.287 20.756 104.058 20.7733 103.846 20.7992C103.626 20.8251 103.406 20.8337 103.176 20.8337C102.625 20.8337 102.185 20.7819 101.854 20.687C101.524 20.5921 101.257 20.4455 101.074 20.2557C100.881 20.0659 100.762 19.833 100.688 19.5483C100.624 19.2636 100.578 18.9358 100.569 18.5734V13.3542H98.999V11.879H98.9806Z" fill="#191919"/>
<path d="M25.4075 8.50611H15.8962L12.9583 0L10.0113 8.50611L0.5 8.49748L8.20268 13.7599L5.25565 22.2574L12.9583 17.0036L20.6518 22.2574L17.714 13.7599L25.4075 8.50611Z" fill="#00B67A"/>
<path d="M18.3737 15.6836L17.7127 13.7598L12.957 17.0035L18.3737 15.6836Z" fill="#005128"/>
</g>
<defs>
<clipPath id="clip0_661_4198">
<rect width="104" height="24" fill="white" transform="translate(0.5)"/>
</clipPath>
</defs>
</svg>
