<svg width="20" height="15" viewBox="0 0 20 15" fill="none" xmlns="http://www.w3.org/2000/svg">
<g clip-path="url(#clip0_715_6396)">
<path fill-rule="evenodd" clip-rule="evenodd" d="M0 0H28.5V1.15431H0V0ZM0 2.30859H28.5V3.46291H0V2.30859ZM0 4.61425H28.5V5.77147H0V4.61425ZM0 6.92284H28.5V8.07716H0V6.92284ZM0 9.23144H28.5V10.3857H0V9.23144ZM0 11.5371H28.5V12.6914H0V11.5371ZM0 13.8457H28.5V15H0V13.8457Z" fill="#BD3D44"/>
<path fill-rule="evenodd" clip-rule="evenodd" d="M0 1.1543H28.5V2.30858H0V1.1543ZM0 3.46286H28.5V4.61423H0V3.46286ZM0 5.76855H28.5V6.92283H0V5.76855ZM0 8.07714H28.5V9.23142H0V8.07714ZM0 10.3857H28.5V11.54H0V10.3857ZM0 12.6914H28.5V13.8457H0V12.6914Z" fill="white"/>
<path fill-rule="evenodd" clip-rule="evenodd" d="M0 0H11.3994V8.07716H0V0Z" fill="#192F5D"/>
<path fill-rule="evenodd" clip-rule="evenodd" d="M0.949218 0.345703L1.05469 0.664984H1.38869L1.11912 0.861297L1.22169 1.18355L0.949218 0.984328L0.679687 1.18061L0.782218 0.861297L0.509781 0.664984H0.849625L0.949218 0.345703ZM2.85059 0.345703L2.95312 0.664984H3.29003L3.01756 0.861297L3.12012 1.18355L2.85059 0.984328L2.57812 1.18061L2.68066 0.861297L2.41112 0.664984H2.74512L2.85059 0.345703ZM4.74903 0.345703L4.8545 0.665016H5.18556L4.91603 0.861328L5.01853 1.18358L4.74609 0.984359L4.47656 1.18064L4.57909 0.861328L4.30662 0.665016H4.64356L4.74903 0.345703ZM6.65041 0.345703L6.75291 0.665016H7.08984L6.81737 0.861328L6.92284 1.18358L6.65037 0.984359L6.37794 1.18064L6.48341 0.861328L6.21094 0.665016H6.54494L6.65041 0.345703ZM8.54884 0.345703L8.65431 0.665016H8.98828L8.71875 0.861328L8.82128 1.18358L8.54881 0.984359L8.27928 1.18064L8.38184 0.861328L8.11231 0.665016H8.44628L8.54884 0.345703ZM10.4502 0.345703L10.5527 0.665016H10.8897L10.6172 0.861328L10.7227 1.18358L10.4502 0.984359L10.1777 1.18064L10.2832 0.861328L10.0107 0.665016H10.3477L10.4502 0.345703ZM1.90137 1.15423L2.00391 1.47361H2.34081L2.06834 1.66986L2.16797 1.98923L1.90428 1.79292L1.63184 1.9892L1.7285 1.66989L1.46484 1.47358H1.79884L1.90137 1.15423ZM3.79981 1.15423L3.90528 1.47361H4.23925L3.96678 1.66986L4.07228 1.98923L3.79978 1.79292L3.52734 1.9892L3.63281 1.66989L3.36034 1.47358H3.69725L3.79981 1.15423ZM5.70119 1.15423L5.80369 1.47361H6.14062L5.86816 1.66986L5.97069 1.98923L5.70116 1.79292L5.42872 1.9892L5.53125 1.66992L5.26172 1.47361H5.59572L5.70119 1.15423ZM7.59962 1.15423L7.70509 1.47361H8.03906L7.76659 1.66986L7.87206 1.98923L7.59959 1.79292L7.33006 1.9892L7.43262 1.66989L7.16016 1.47358H7.5L7.59962 1.15423ZM9.50097 1.15423L9.6035 1.47361H9.94044L9.66797 1.66986L9.7705 1.98923L9.50097 1.79292L9.2285 1.9892L9.33106 1.66989L9.06153 1.47358H9.3955L9.50097 1.15423ZM0.949218 1.95998L1.05469 2.28517H1.38869L1.11912 2.48145L1.22169 2.8008L0.949218 2.60158L0.679687 2.8008L0.782218 2.47852L0.509781 2.28227H0.849625L0.949218 1.95998ZM2.85059 1.95998L2.95312 2.28217H3.29003L3.01756 2.47845L3.12012 2.79783L2.85059 2.59858L2.57812 2.7978L2.68066 2.47555L2.41112 2.27927H2.74512L2.85059 1.95998ZM4.74903 1.95998L4.8545 2.28223H5.18556L4.91603 2.47852L5.01853 2.79789L4.74609 2.59864L4.47656 2.79786L4.57909 2.47561L4.30662 2.27933H4.64356L4.74903 1.95998ZM6.65041 1.95998L6.75291 2.28223H7.08984L6.81737 2.47852L6.92284 2.79789L6.65037 2.59864L6.37794 2.79786L6.48341 2.47561L6.21094 2.27933H6.54494L6.65041 1.95998ZM8.54884 1.95998L8.65431 2.28223H8.98828L8.71875 2.47848L8.82128 2.79786L8.54881 2.59861L8.27928 2.79783L8.38184 2.47558L8.11231 2.2793H8.44628L8.54884 1.95998ZM10.4502 1.95998L10.5527 2.28223H10.8897L10.6172 2.47852L10.7227 2.79789L10.4502 2.59864L10.1777 2.79786L10.2832 2.47561L10.0107 2.27933H10.3477L10.4502 1.95998ZM1.90137 2.76855L2.00391 3.08789H2.34081L2.06834 3.28414L2.17091 3.60642L1.90137 3.4072L1.62891 3.60348L1.73144 3.28417L1.46191 3.08789H1.79594L1.90137 2.76855ZM3.79981 2.76855L3.90528 3.08789H4.23925L3.96678 3.28414L4.07228 3.60642L3.79978 3.4072L3.52734 3.60348L3.63281 3.28417L3.36034 3.08789H3.69725L3.79981 2.76855ZM5.70119 2.76855L5.80369 3.08789H6.14062L5.86816 3.28414L5.97069 3.60642L5.70116 3.4072L5.42872 3.60348L5.53125 3.28417L5.26172 3.08789H5.59572L5.70119 2.76855ZM7.59962 2.76855L7.70509 3.08789H8.03906L7.76953 3.28414L7.87206 3.60642L7.59959 3.4072L7.33006 3.60348L7.43262 3.28417L7.16016 3.08789H7.5L7.59962 2.76855ZM9.50097 2.76855L9.6035 3.08789H9.94044L9.66797 3.28414L9.7705 3.60642L9.50097 3.4072L9.2285 3.60348L9.33106 3.28417L9.06153 3.08789H9.3955L9.50097 2.76855ZM0.949218 3.57714L1.05469 3.89648H1.38869L1.11912 4.09273L1.22169 4.41502L0.949218 4.2158L0.679687 4.41208L0.782218 4.09277L0.509781 3.89648H0.849625L0.949218 3.57714ZM2.85059 3.57714L2.95312 3.89648H3.29003L3.01756 4.09273L3.12012 4.41211L2.85059 4.2158L2.57812 4.41208L2.68066 4.09277L2.41112 3.89648H2.74512L2.85059 3.57714ZM4.74903 3.57714L4.8545 3.89648H5.18556L4.91603 4.09273L5.01853 4.41502L4.74609 4.2158L4.47656 4.41208L4.57909 4.09277L4.30662 3.89648H4.64356L4.74903 3.57714ZM6.65041 3.57714L6.75291 3.89648H7.08984L6.81737 4.09273L6.92284 4.41502L6.65037 4.2158L6.37794 4.41208L6.48341 4.09277L6.21094 3.89648H6.54494L6.65041 3.57714ZM8.54884 3.57714L8.65431 3.89648H8.98828L8.71875 4.09273L8.82128 4.41502L8.54881 4.2158L8.27928 4.41208L8.38184 4.09277L8.11231 3.89648H8.44628L8.54884 3.57714ZM10.4502 3.57714L10.5527 3.89648H10.8897L10.6172 4.09273L10.7227 4.41502L10.4502 4.2158L10.1777 4.41208L10.2832 4.09277L10.0107 3.89648H10.3477L10.4502 3.57714ZM1.90137 4.38573L2.00391 4.70508H2.34081L2.06834 4.90133L2.17091 5.2207L1.90137 5.02148L1.62891 5.2207L1.73144 4.89842L1.46191 4.70214H1.79594L1.90137 4.38573ZM3.79981 4.38573L3.90528 4.70508H4.23925L3.96678 4.90133L4.07228 5.2207L3.79978 5.02148L3.52734 5.2207L3.63281 4.89842L3.36034 4.70214H3.69725L3.79981 4.38573ZM5.70119 4.38573L5.80369 4.70508H6.14062L5.86816 4.90133L5.97069 5.2207L5.70116 5.02148L5.42872 5.2207L5.53125 4.89842L5.26172 4.70214H5.59572L5.70119 4.38573ZM7.59962 4.38573L7.70509 4.70508H8.03906L7.76953 4.90133L7.87206 5.2207L7.59959 5.02148L7.33006 5.2207L7.43262 4.89842L7.16016 4.70214H7.5L7.59962 4.38573ZM9.50097 4.38573L9.6035 4.70508H9.94044L9.66797 4.90133L9.7705 5.2207L9.50097 5.02148L9.2285 5.2207L9.33106 4.89842L9.06153 4.70214H9.3955L9.50097 4.38573ZM0.949218 5.19139L1.05469 5.51367H1.38869L1.11912 5.70992L1.22169 6.02636L0.949218 5.83008L0.679687 6.02633L0.782218 5.70702L0.509781 5.51073H0.849625L0.949218 5.19139ZM2.85059 5.19139L2.95312 5.51367H3.29003L3.01756 5.70992L3.12306 6.02636L2.85056 5.83008L2.57812 6.02633L2.68359 5.70702L2.41112 5.51073H2.74512L2.85059 5.19139ZM4.74903 5.19139L4.8545 5.51367H5.18556L4.91603 5.70992L5.01853 6.02636L4.74609 5.83008L4.47656 6.02633L4.57909 5.70702L4.30662 5.51073H4.64356L4.74903 5.19139ZM6.65041 5.19139L6.75291 5.51367H7.08984L6.81737 5.70992L6.92284 6.02636L6.65037 5.83008L6.37794 6.02633L6.48341 5.70702L6.21094 5.51073H6.54494L6.65041 5.19139ZM8.54884 5.19139L8.65431 5.51367H8.98828L8.71875 5.70992L8.82128 6.02636L8.54881 5.83008L8.27928 6.02633L8.38184 5.70702L8.11231 5.51073H8.44628L8.54884 5.19139ZM10.4502 5.19139L10.5527 5.51367H10.8897L10.6172 5.70992L10.7227 6.02636L10.4502 5.83008L10.1777 6.02633L10.2832 5.70702L10.0107 5.51073H10.3477L10.4502 5.19139ZM1.90137 5.99998L2.00391 6.31933H2.34081L2.06834 6.51561L2.17091 6.83789L1.90137 6.63867L1.62891 6.83492L1.73144 6.51561L1.46191 6.31933H1.79594L1.90137 5.99998ZM3.79981 5.99998L3.90528 6.31933H4.23925L3.96678 6.51561L4.07228 6.83789L3.79978 6.63867L3.52734 6.83492L3.63281 6.51561L3.36034 6.31933H3.69725L3.79981 5.99998ZM5.70119 5.99998L5.80369 6.31933H6.14062L5.86816 6.51561L5.97069 6.83789L5.70116 6.63867L5.42872 6.83492L5.53125 6.51561L5.26172 6.31933H5.59572L5.70119 5.99998ZM7.59962 5.99998L7.70509 6.31933H8.03906L7.76953 6.51561L7.87206 6.83789L7.59959 6.63867L7.33006 6.83492L7.43262 6.51561L7.16016 6.31933H7.5L7.59962 5.99998ZM9.50097 5.99998L9.6035 6.31933H9.94044L9.66797 6.51561L9.7705 6.83789L9.50097 6.63867L9.2285 6.83492L9.33106 6.51561L9.06153 6.31933H9.3955L9.50097 5.99998ZM0.949218 6.80858L1.05469 7.12792H1.38869L1.11912 7.3242L1.22169 7.64355L0.949218 7.44727L0.679687 7.64352L0.782218 7.32127L0.509781 7.12498H0.849625L0.949218 6.80858ZM2.85059 6.80858L2.95312 7.12792H3.29003L3.01756 7.3242L3.12306 7.64355L2.85056 7.44727L2.57812 7.64352L2.68359 7.32127L2.41112 7.12498H2.74512L2.85059 6.80858ZM4.74903 6.80858L4.8545 7.12792H5.18556L4.92187 7.3242L5.02441 7.64355L4.75194 7.44727L4.48241 7.64352L4.58497 7.32127L4.3125 7.12498H4.64941L4.74903 6.80858ZM6.65041 6.80858L6.75291 7.12792H7.08984L6.81737 7.3242L6.92284 7.64355L6.65037 7.44727L6.37794 7.64352L6.48341 7.32127L6.21094 7.12498H6.54494L6.65041 6.80858ZM8.54884 6.80858L8.65431 7.12792H8.98828L8.71875 7.3242L8.82128 7.64355L8.54881 7.44727L8.27928 7.64352L8.38184 7.32127L8.11231 7.12498H8.44628L8.54884 6.80858ZM10.4502 6.80858L10.5527 7.12792H10.8897L10.6172 7.3242L10.7227 7.64355L10.4502 7.44727L10.1777 7.64352L10.2832 7.32127L10.0107 7.12498H10.3477L10.4502 6.80858Z" fill="white"/>
</g>
<defs>
<clipPath id="clip0_715_6396">
<rect width="20" height="15" fill="white"/>
</clipPath>
</defs>
</svg>
