<svg width="377" height="652" viewBox="0 0 377 652" fill="none" xmlns="http://www.w3.org/2000/svg">
<path d="M194.008 395.103C129.539 458.651 63.9955 521.247 1.18072 586.366C-2.45805 590.129 3.12445 595.668 6.92925 592.113C66.807 536.008 124.66 477.669 182.967 419.91C150.68 494.113 116.05 567.275 79.1306 639.288C64.7879 626.961 49.7525 615.462 34.0979 604.847C59.1162 578.841 84.1758 552.835 109.194 526.87C99.1449 552.132 87.732 576.733 74.9952 600.795C74.1679 600.093 73.3001 599.39 72.4722 598.646C67.6349 594.594 60.6046 601.54 65.4839 605.633C68.0069 607.783 70.5299 609.891 73.0928 612.042C75.4091 613.985 79.2545 614.026 80.8677 611.049C98.8771 577.644 114.399 542.958 127.306 507.273C129.002 502.559 122.344 499.045 119.036 502.477L23.0569 602.16C20.7405 604.558 21.4024 608.155 24.0494 609.933C42.782 622.295 60.4393 635.774 77.2695 650.617C79.5025 652.601 83.4726 652.601 85.0023 649.624C126.894 568.214 165.859 485.332 201.824 401.139C203.891 396.302 198.391 390.927 194.091 395.186L194.008 395.103ZM359.087 354.709C344.779 350.161 331.257 344.455 318.065 337.344C315.915 336.186 312.483 336.599 311.325 339.122C301.731 360.042 294.577 381.459 289.904 404.033C288.995 408.334 294.867 413.088 298.175 408.829C307.934 396.178 318.479 384.601 330.14 373.644C334.772 369.262 327.783 362.316 323.152 366.657C316.618 372.818 310.456 379.185 304.543 385.801C308.144 373.017 312.635 360.5 317.983 348.342C328.321 353.634 338.824 358.099 349.741 361.903C328.321 389.852 302.806 413.791 276.754 437.275C282.75 402.132 290.359 367.278 295.901 332.093C296.396 328.909 292.013 327.545 291.021 330.728C278.739 369.014 271.751 409.202 265.051 448.769C264.225 453.565 269.352 456.873 273.198 453.524C305.288 425.326 336.632 396.426 362.065 361.944C364.05 359.257 361.857 355.577 359.128 354.709H359.087ZM317.817 199.346C253.927 170.901 196.199 131.664 146.287 82.6698C144.261 80.6856 139.878 80.6856 138.596 83.6623C125.652 113.72 111.344 143.737 100.965 174.829C99.8068 178.343 105.183 180.617 106.96 177.35C121.269 150.765 132.599 122.361 144.509 94.5775C189.583 137.907 240.819 173.506 297.1 200.587C270.055 201.91 242.514 196.989 215.842 194.137L130.573 184.999C139.495 171.452 147.547 157.352 154.681 142.786C166.508 152.01 178.559 160.944 190.823 169.578C182.884 169.247 174.944 168.875 167.005 168.585C160.719 168.338 160.76 178.053 167.005 178.343C180.568 179.046 194.173 179.583 207.737 180.203C212.947 180.452 214.064 173.547 210.218 170.983C191.775 158.58 173.869 145.556 156.418 131.747C154.144 129.969 150.174 129.555 148.644 132.739C139.804 151.466 129.474 169.453 117.753 186.529C115.438 189.92 118.622 193.599 122.013 193.971C155.881 197.609 189.748 201.248 223.658 204.887C254.589 208.194 285.645 213.445 316.659 208.442C320.711 207.781 321.621 201.082 317.859 199.429L317.817 199.346ZM375.545 117.689C348.046 88.1271 321.497 57.7801 295.694 26.7717C293.626 24.2905 289.573 25.283 288.085 27.7635C276.961 46.0383 265.3 63.9408 254.051 82.1736C252.356 84.9026 256.492 88.2517 258.601 85.6879C270.882 70.5557 282.006 54.5962 292.716 38.3063C314.054 64.1886 336.137 89.4094 358.798 114.093C334.399 110.123 310.002 106.113 285.603 102.144C288.46 95.0326 291.479 87.9881 294.66 81.0159C301.275 86.5538 307.584 92.4474 313.558 98.6706C317.983 103.26 324.972 96.2727 320.546 91.6834C312.99 83.7974 304.893 76.4477 296.314 69.6878C294.039 67.91 290.028 67.4964 288.54 70.6803C283.246 81.8433 278.45 93.1714 273.984 104.707C273.074 107.022 274.976 110.371 277.416 110.785C308.513 115.87 339.651 120.955 370.748 126.041C375.504 126.827 379.143 121.617 375.545 117.772V117.689ZM87.2767 11.5149C77.4348 5.51942 62.5897 4.48564 51.424 1.88126C48.1992 1.13726 45.5522 3.36999 45.3042 6.55393C44.5183 16.5585 45.2216 25.9857 47.4959 35.7432C48.1571 38.5961 50.5148 39.4234 52.6651 38.9264C53.657 39.464 55.1461 39.2162 55.808 38.2237C57.4618 35.7019 58.7443 33.0143 60.522 30.5751C62.4244 28.0112 64.9467 26.6884 65.3186 23.298C65.5252 21.1486 63.1269 19.7845 61.3079 20.2387C58.3303 20.9414 56.7998 24.2492 55.4767 26.9362C54.8646 22.1103 54.6019 17.2465 54.6908 12.3828C62.755 13.7882 72.1829 15.0705 79.2545 18.1711C76.3183 27.0601 69.1234 36.8596 64.9053 44.3018C60.9766 51.2478 56.7998 58.0699 52.4578 64.7674C42.8646 44.3018 34.7591 23.4219 27.0683 2.12975C25.7444 -1.55043 20.162 -0.102992 21.1545 3.74163C27.6055 28.7973 37.1161 52.9843 47.8272 76.5092C49.357 79.8996 53.9883 79.0317 55.7247 76.5092C62.8376 66.2148 69.33 55.6307 75.4505 44.7148C80.1644 36.2808 87.608 26.4819 89.427 16.9309C89.841 14.7807 89.1377 12.7139 87.2353 11.5555L87.2767 11.5149ZM212.492 267.525C194.463 255.658 176.474 243.751 158.362 232.009C155.55 230.19 151.001 232.547 151.332 236.061C153.11 255.038 155.55 274.346 160.678 292.745C161.546 295.846 166.964 295.391 166.55 291.96C164.647 276.331 162.538 260.868 161.339 245.24C174.106 253.753 186.898 262.229 199.715 270.667C193.884 273.189 188.218 276.083 182.719 279.308C181.313 275.794 179.906 272.279 178.624 268.724C176.557 263.018 167.418 265.416 169.445 271.246C171.388 276.786 173.414 282.285 175.647 287.701C176.763 290.43 179.865 292.497 182.801 290.596C191.857 284.724 201.286 280.011 211.417 276.331C215.387 274.884 216.173 269.84 212.575 267.484L212.492 267.525Z" fill="#F5BC22"/>
</svg>
