<svg width="18" height="18" viewBox="0 0 18 18" fill="none" xmlns="http://www.w3.org/2000/svg">
<path d="M5.71321 13.8473C5.65675 13.9036 5.625 13.9803 5.625 14.0602C5.625 14.1402 5.65675 14.2169 5.71321 14.2732L6.34539 14.9091C6.39951 14.9671 6.47506 15 6.55413 15C6.63321 15 6.70876 14.9671 6.76287 14.9091L12.2438 9.39594C12.3277 9.31164 12.3749 9.19728 12.375 9.07799V8.92201C12.3749 8.80272 12.3277 8.68836 12.2438 8.60406L6.76287 3.0909C6.70876 3.0329 6.63321 3 6.55413 3C6.47506 3 6.39951 3.0329 6.34539 3.0909L5.71321 3.7268C5.65675 3.78312 5.625 3.85979 5.625 3.93977C5.625 4.01975 5.65675 4.09641 5.71321 4.15274L10.5321 9L5.71321 13.8473Z" fill="#344D57"/>
</svg>
