<svg width="18" height="18" viewBox="0 0 18 18" fill="none" xmlns="http://www.w3.org/2000/svg">
<path d="M12.2868 13.8473C12.3432 13.9036 12.375 13.9803 12.375 14.0602C12.375 14.1402 12.3432 14.2169 12.2868 14.2732L11.6546 14.9091C11.6005 14.9671 11.5249 15 11.4459 15C11.3668 15 11.2912 14.9671 11.2371 14.9091L5.75621 9.39594C5.6723 9.31164 5.6251 9.19728 5.625 9.07799V8.92201C5.6251 8.80272 5.6723 8.68836 5.75621 8.60406L11.2371 3.0909C11.2912 3.0329 11.3668 3 11.4459 3C11.5249 3 11.6005 3.0329 11.6546 3.0909L12.2868 3.7268C12.3432 3.78312 12.375 3.85979 12.375 3.93977C12.375 4.01975 12.3432 4.09641 12.2868 4.15274L7.46788 9L12.2868 13.8473Z" fill="#344D57"/>
</svg>
