<svg width="35" height="26" viewBox="0 0 35 26" fill="none" xmlns="http://www.w3.org/2000/svg">
<path d="M26.4337 16.5454C24.0011 16.5454 22.022 18.666 22.022 21.2727C22.022 23.8794 24.0011 26 26.4337 26C28.8668 26 30.8455 23.8794 30.8455 21.2727C30.8455 18.666 28.8664 16.5454 26.4337 16.5454ZM26.4337 23.6363C25.2172 23.6363 24.2279 22.5762 24.2279 21.2727C24.2279 19.9692 25.2172 18.909 26.4337 18.909C27.6503 18.909 28.6396 19.9692 28.6396 21.2727C28.6396 22.5763 27.6503 23.6363 26.4337 23.6363Z" fill="#666666"/>
<path d="M11.3599 16.5454C8.92721 16.5454 6.94815 18.666 6.94815 21.2727C6.94815 23.8794 8.92721 26 11.3599 26C13.7926 26 15.7717 23.8794 15.7717 21.2727C15.7717 18.666 13.7926 16.5454 11.3599 16.5454ZM11.3599 23.6363C10.1434 23.6363 9.15403 22.5762 9.15403 21.2727C9.15403 19.9692 10.1434 18.909 11.3599 18.909C12.5761 18.909 13.5658 19.9692 13.5658 21.2727C13.5658 22.5763 12.5764 23.6363 11.3599 23.6363Z" fill="#666666"/>
<path d="M29.4049 3.01454C29.2174 2.61548 28.8362 2.36372 28.4192 2.36372H22.6104V4.72741H27.7391L30.7424 11.1282L32.7137 10.0661L29.4049 3.01454Z" fill="#666666"/>
<path d="M23.1245 20.1305H14.7789V22.494H23.1245V20.1305Z" fill="#666666"/>
<path d="M8.0516 20.1305H4.22815C3.61893 20.1305 3.12524 20.6596 3.12524 21.3123C3.12524 21.965 3.619 22.494 4.22815 22.494H8.05167C8.66089 22.494 9.15458 21.965 9.15458 21.3123C9.15458 20.6595 8.66082 20.1305 8.0516 20.1305Z" fill="#666666"/>
<path d="M34.7684 12.9054L32.599 9.91149C32.3905 9.62311 32.0688 9.4545 31.728 9.4545H23.7133V1.18178C23.7133 0.528997 23.2196 0 22.6104 0H4.22815C3.61893 0 3.12524 0.529071 3.12524 1.18178C3.12524 1.8345 3.619 2.36357 4.22815 2.36357H21.5075V10.6363C21.5075 11.2891 22.0012 11.8181 22.6104 11.8181H31.1879L32.7941 14.0351V20.1302H29.7427C29.1334 20.1302 28.6398 20.6593 28.6398 21.312C28.6398 21.9648 29.1335 22.4938 29.7427 22.4938H33.897C34.5063 22.4938 34.9999 21.9647 35 21.312V13.6303C35 13.3679 34.9184 13.1127 34.7684 12.9054Z" fill="#666666"/>
<path d="M7.97792 14.1425H2.90439C2.29517 14.1425 1.80148 14.6716 1.80148 15.3243C1.80148 15.9771 2.29524 16.5062 2.90439 16.5062H7.97786C8.58707 16.5062 9.08076 15.9771 9.08076 15.3243C9.08083 14.6716 8.58707 14.1425 7.97792 14.1425Z" fill="#666666"/>
<path d="M10.5146 9.49357H1.10291C0.493758 9.49357 0 10.0226 0 10.6754C0 11.3282 0.493758 11.8572 1.10291 11.8572H10.5146C11.1239 11.8572 11.6176 11.3281 11.6176 10.6754C11.6176 10.0227 11.1239 9.49357 10.5146 9.49357Z" fill="#666666"/>
<path d="M12.3161 4.84526H2.90439C2.29517 4.84526 1.80148 5.37437 1.80148 6.02712C1.80148 6.67995 2.29524 7.20899 2.90439 7.20899H12.3161C12.9253 7.20899 13.419 6.67988 13.419 6.02712C13.4191 5.37437 12.9253 4.84526 12.3161 4.84526Z" fill="#666666"/>
</svg>
