<svg width="24" height="24" viewBox="0 0 24 24" fill="none" xmlns="http://www.w3.org/2000/svg">
<path fill-rule="evenodd" clip-rule="evenodd" d="M15.6506 5.65309C14.5108 5.23043 13.2813 5 11.9993 5C7.44911 5 3.56036 7.90264 1.99927 12C2.63981 13.6812 3.67224 15.1613 4.98144 16.3222L6.39847 14.9052C5.478 14.1117 4.71678 13.1246 4.17477 12C5.61296 9.01598 8.59455 7 11.9993 7C12.7053 7 13.3932 7.0867 14.0529 7.25076L15.6506 5.65309ZM14.1864 9.94569C14.1871 9.9464 14.1877 9.9471 14.1884 9.9478L16.0894 8.04683C16.0885 8.04634 16.0876 8.04586 16.0867 8.04538L17.5489 6.58316C17.5498 6.58368 17.5506 6.5842 17.5515 6.58472L20.1993 3.93694C20.5898 3.54641 21.2229 3.54641 21.6135 3.93694C22.004 4.32746 22.004 4.96063 21.6135 5.35115L19.1589 7.80574C20.4009 8.94667 21.382 10.38 21.9993 12C20.4382 16.0974 16.5494 19 11.9993 19C10.7913 19 9.62994 18.7954 8.54638 18.4182L5.61346 21.3512C5.22294 21.7417 4.58977 21.7417 4.19925 21.3512C3.80873 20.9606 3.80873 20.3275 4.19925 19.9369L6.61736 17.5188C6.61651 17.5183 6.61565 17.5178 6.6148 17.5173L8.08522 16.0469C8.08612 16.0473 8.08702 16.0478 8.08792 16.0483L9.94791 14.1883C9.94721 14.1876 9.9465 14.187 9.9458 14.1863L14.1864 9.94569ZM12.2899 9.01381C12.1945 9.00467 12.0979 9 12.0001 9C10.3433 9 9.00011 10.3431 9.00011 12C9.00011 12.0977 9.00478 12.1944 9.01392 12.2897L12.2899 9.01381ZM17.7435 9.22115L14.9999 11.9647L15.0001 12C15.0001 13.6569 13.657 15 12.0001 15L11.9648 14.9998L10.1641 16.8005C10.7567 16.9313 11.3708 17 11.9993 17C15.404 17 18.3856 14.984 19.8238 12C19.3102 10.9343 18.5997 9.99216 17.7435 9.22115Z" fill="#A8A8A8"/>
</svg>
