<svg width="24" height="24" viewBox="0 0 24 24" fill="none" xmlns="http://www.w3.org/2000/svg">
<path fill-rule="evenodd" clip-rule="evenodd" d="M11.9993 17C8.59455 17 5.61296 14.984 4.17477 12C5.61296 9.01598 8.59455 7 11.9993 7C15.404 7 18.3856 9.01598 19.8238 12C18.3856 14.984 15.404 17 11.9993 17ZM11.9993 5C16.5494 5 20.4382 7.90265 21.9993 12C20.4382 16.0974 16.5494 19 11.9993 19C7.44911 19 3.56036 16.0974 1.99927 12C3.56036 7.90264 7.44911 5 11.9993 5ZM12.0001 15C13.657 15 15.0001 13.6569 15.0001 12C15.0001 10.3431 13.657 9 12.0001 9C10.3433 9 9.00011 10.3431 9.00011 12C9.00011 13.6569 10.3433 15 12.0001 15Z" fill="#A8A8A8"/>
</svg>
