<svg width="17" height="18" viewBox="0 0 17 18" fill="none" xmlns="http://www.w3.org/2000/svg">
<g clip-path="url(#clip0_1523_21129)">
<path d="M16.3044 9.00664C16.3051 8.43985 16.2572 7.87403 16.1612 7.31543H8.31738V10.5188H12.81C12.718 11.0304 12.5234 11.5181 12.238 11.9525C11.9525 12.3869 11.582 12.759 11.1488 13.0464V15.1257H13.83C15.3999 13.6783 16.3044 11.5377 16.3044 9.00664Z" fill="#4285F4"/>
<path d="M8.31715 17.1348C10.5617 17.1348 12.4516 16.3977 13.8298 15.127L11.1486 13.0477C10.4023 13.5536 9.44116 13.8424 8.31715 13.8424C6.14768 13.8424 4.30629 12.38 3.64783 10.4092H0.885742V12.5521C1.57802 13.9296 2.63954 15.0877 3.95181 15.8969C5.26408 16.7061 6.77543 17.1347 8.31715 17.1348Z" fill="#34A853"/>
<path d="M3.64775 10.4087C3.29964 9.37597 3.29964 8.25763 3.64775 7.22493V5.08203H0.885661C0.303296 6.24088 0 7.51985 0 8.8168C0 10.1137 0.303296 11.3927 0.885661 12.5516L3.64775 10.4087Z" fill="#FBBC04"/>
<path d="M8.31715 3.79189C9.5033 3.77251 10.6494 4.22067 11.5078 5.03951L13.8818 2.66557C12.3764 1.25169 10.3822 0.47545 8.31715 0.499569C6.77543 0.499639 5.26408 0.928212 3.95181 1.73744C2.63954 2.54667 1.57802 3.7047 0.885742 5.08225L3.64783 7.22515C4.30629 5.25438 6.14768 3.79189 8.31715 3.79189Z" fill="#EA4335"/>
</g>
<defs>
<clipPath id="clip0_1523_21129">
<rect width="17" height="17" fill="white" transform="translate(0 0.5)"/>
</clipPath>
</defs>
</svg>
