<svg width="12" height="12" viewBox="0 0 12 12" fill="none" xmlns="http://www.w3.org/2000/svg">
<path d="M5.19816 4.72514H4.36365C4.39206 3.88352 4.97089 3.27273 6.02558 3.27273C6.99859 3.27273 7.64845 3.83381 7.64845 4.61861C7.64845 5.16193 7.37856 5.5419 6.89561 5.82955C6.43041 6.10298 6.29902 6.28409 6.29902 6.63565V6.83807H5.47515L5.4716 6.59659C5.43964 6.06392 5.64561 5.74432 6.13566 5.45668C6.57601 5.19034 6.72515 5.00213 6.72515 4.65057C6.72515 4.28125 6.42686 4.01491 5.97941 4.01491C5.52132 4.01491 5.22657 4.2919 5.19816 4.72514Z" fill="#344D57"/>
<path d="M6.51564 7.96733C6.51564 8.30824 6.28836 8.53196 5.92615 8.53196C5.57103 8.53196 5.33666 8.30824 5.33666 7.96733C5.33666 7.62287 5.57103 7.39915 5.92615 7.39915C6.28836 7.39915 6.51564 7.62287 6.51564 7.96733Z" fill="#344D57"/>
<path fill-rule="evenodd" clip-rule="evenodd" d="M6 11C8.76142 11 11 8.76142 11 6C11 3.23858 8.76142 1 6 1C3.23858 1 1 3.23858 1 6C1 7.32608 1.52678 8.59785 2.46447 9.53553C3.40215 10.4732 4.67392 11 6 11ZM6 1.90909C8.25935 1.90909 10.0909 3.74065 10.0909 6C10.0909 8.25935 8.25935 10.0909 6 10.0909C3.74065 10.0909 1.90909 8.25935 1.90909 6C1.90909 3.74065 3.74065 1.90909 6 1.90909Z" fill="#344D57"/>
</svg>
