<svg width="12" height="9" viewBox="0 0 12 9" fill="none" xmlns="http://www.w3.org/2000/svg">
<path d="M10.463 0.11761C10.5381 0.0423387 10.6403 0 10.747 0C10.8536 0 10.9558 0.0423387 11.0309 0.11761L11.8788 0.960522C11.9561 1.03267 12 1.13341 12 1.23884C12 1.34427 11.9561 1.44501 11.8788 1.51716L4.52792 8.82506C4.41552 8.93693 4.26304 8.99986 4.10398 9H3.89602C3.73696 8.99986 3.58448 8.93693 3.47208 8.82506L0.121197 5.51716C0.0438665 5.44501 0 5.34427 0 5.23884C0 5.13341 0.0438665 5.03267 0.121197 4.96052L0.969068 4.11761C1.04416 4.04234 1.14639 4 1.25302 4C1.35966 4 1.46189 4.04234 1.53698 4.11761L4 6.54283L10.463 0.11761Z" fill="white"/>
</svg>
