<svg width="185" height="40" viewBox="0 0 185 40" fill="none" xmlns="http://www.w3.org/2000/svg">
<path d="M0 0.239544V17.7605H4.12253V6.93821H4.26793L8.47599 17.6492H11.1103L15.3184 6.9981H15.4638V17.7605H19.5863V0.239544H14.3433L9.89578 11.0875H9.69051L5.24297 0.239544H0Z" fill="#1E3944"/>
<path d="M22.4679 17.7605H34.6815V14.3213H26.7016V10.7196H34.0571V7.27186H26.7016V3.67871H34.6815V0.239544H22.4679V17.7605Z" fill="#1E3944"/>
<path d="M44.0484 17.7605C49.3854 17.7605 52.6954 14.4667 52.6954 8.99144C52.6954 3.52471 49.3854 0.239544 44.0398 0.239544H37.5738V17.7605H44.0484ZM41.8075 14.1502V3.84981H43.826C46.8366 3.84981 48.4531 5.21863 48.4531 8.99144C48.4531 12.7814 46.8366 14.1502 43.8858 14.1502H41.8075Z" fill="#1E3944"/>
<path d="M59.6418 0.239544H55.4081V17.7605H59.6418V0.239544Z" fill="#1E3944"/>
<path d="M78.4404 6.58745C78.0128 2.39544 74.8909 0 70.6572 0C65.9873 0 62.3523 3.20818 62.3523 9C62.3523 14.7662 65.9018 18 70.6572 18C75.464 18 78.124 14.7319 78.4404 11.6264L74.1639 11.6008C73.8646 13.2861 72.5987 14.2871 70.7427 14.2871C68.2453 14.2871 66.6715 12.4819 66.6715 9C66.6715 5.65494 68.2111 3.71293 70.7684 3.71293C72.6928 3.71293 73.9501 4.83365 74.1639 6.58745H78.4404Z" fill="#1E3944"/>
<path d="M84.446 17.7605L85.6006 14.0817H91.6476L92.8022 17.7605H97.3524L91.4423 0.239544H85.8059L79.8958 17.7605H84.446ZM86.6099 10.865L88.5514 4.65399H88.6882L90.6383 10.865H86.6099Z" fill="#1E3944"/>
<path d="M99.4792 17.7605H111V14.3213H103.713V0.239544H99.4792V17.7605Z" fill="#1E3944"/>
<path d="M113 0.239544V17.7605H117.128V6.93821H117.274L121.488 17.6492H124.125L128.339 6.9981H128.485V17.7605H132.613V0.239544H127.363L122.909 11.0875H122.704L118.25 0.239544H113Z" fill="#96280F"/>
<path d="M135.499 17.7605H147.729V14.3213H139.738V10.7196H147.104V7.27186H139.738V3.67871H147.729V0.239544H135.499V17.7605Z" fill="#96280F"/>
<path d="M161.604 5.96293H165.895C165.467 2.47243 162.349 0 158.29 0C153.605 0 149.905 3.29373 149.905 9.02567C149.905 14.5694 153.314 18 158.341 18C162.855 18 166.084 15.2025 166.084 10.4971V8.17871H158.521V11.2671H161.998C161.955 13.115 160.671 14.2871 158.375 14.2871C155.746 14.2871 154.23 12.3451 154.23 8.97434C154.23 5.62928 155.832 3.71293 158.375 3.71293C160.071 3.71293 161.227 4.54278 161.604 5.96293Z" fill="#96280F"/>
<path d="M172.076 17.7605L173.232 14.0817H179.287L180.444 17.7605H185L179.082 0.239544H173.438L167.52 17.7605H172.076ZM174.243 10.865L176.187 4.65399H176.324L178.277 10.865H174.243Z" fill="#96280F"/>
<path d="M9.61663 29.9389L8.19935 30.3149C8.06023 29.9389 7.86314 29.5984 7.60809 29.2933C7.35304 28.9881 7.01973 28.7457 6.60817 28.5659C6.20241 28.3861 5.6981 28.2962 5.09525 28.2962C4.19097 28.2962 3.449 28.4978 2.86934 28.901C2.28967 29.3042 1.99984 29.8245 1.99984 30.462C1.99984 31.0014 2.19693 31.4401 2.5911 31.7779C2.99107 32.1103 3.60551 32.3745 4.43443 32.5707L6.45166 33.0365C7.57041 33.2926 8.40803 33.6986 8.9645 34.2543C9.52678 34.8101 9.80792 35.5075 9.80792 36.3466C9.80792 37.055 9.59924 37.6843 9.18188 38.2346C8.76452 38.7849 8.18196 39.2181 7.43419 39.5341C6.69222 39.8447 5.83142 40 4.85179 40C3.54754 40 2.47227 39.7248 1.62596 39.1745C0.779648 38.6187 0.237662 37.8178 0 36.7716L1.48684 36.4284C1.67813 37.1748 2.05201 37.7388 2.60849 38.1202C3.17076 38.5016 3.90983 38.6923 4.8257 38.6923C5.85171 38.6923 6.67193 38.4771 7.28638 38.0466C7.90082 37.6107 8.20804 37.0659 8.20804 36.412C8.20804 35.9053 8.02835 35.4803 7.66896 35.137C7.30956 34.7883 6.76468 34.5322 6.0343 34.3687L3.85187 33.8784C2.69254 33.6168 1.83464 33.2027 1.27816 32.6361C0.721682 32.0694 0.443443 31.3665 0.443443 30.5274C0.443443 29.8354 0.643427 29.2279 1.0434 28.7048C1.44336 28.1763 1.99404 27.7622 2.69544 27.4625C3.39683 27.1628 4.19677 27.013 5.09525 27.013C6.31834 27.013 7.29507 27.2745 8.02545 27.7976C8.76162 28.3152 9.29202 29.029 9.61663 29.9389Z" fill="#9AA6AB"/>
<path d="M18.5963 40C17.3501 40 16.2719 39.7276 15.3618 39.1827C14.4517 38.6324 13.7475 37.8723 13.2489 36.9024C12.7562 35.9271 12.5099 34.8046 12.5099 33.5351C12.5099 32.271 12.7562 31.1486 13.2489 30.1678C13.7475 29.1816 14.4344 28.4106 15.3097 27.8548C16.1907 27.2936 17.2081 27.013 18.3616 27.013C19.0862 27.013 19.7847 27.1383 20.4571 27.3889C21.1295 27.6341 21.7323 28.0128 22.2656 28.525C22.8047 29.0317 23.2308 29.672 23.5438 30.4457C23.8568 31.2139 24.0133 32.1239 24.0133 33.1755V33.8947H13.5794V32.6115H22.4308C22.4308 31.8051 22.2569 31.0804 21.9091 30.4375C21.5671 29.7891 21.0889 29.2769 20.4745 28.901C19.8658 28.525 19.1615 28.337 18.3616 28.337C17.5153 28.337 16.7704 28.5495 16.127 28.9745C15.4836 29.3995 14.9792 29.9607 14.6141 30.6582C14.2547 31.3556 14.0721 32.1184 14.0663 32.9466V33.7149C14.0663 34.712 14.2489 35.5838 14.6141 36.3303C14.985 37.0713 15.5096 37.6462 16.1878 38.0548C16.8661 38.4635 17.6689 38.6678 18.5963 38.6678C19.2282 38.6678 19.7818 38.5752 20.2571 38.3899C20.7382 38.2046 21.1411 37.9567 21.4657 37.6462C21.7961 37.3301 22.0453 36.9841 22.2135 36.6082L23.6829 37.0577C23.48 37.5862 23.1467 38.0739 22.683 38.5207C22.225 38.9675 21.6512 39.3271 20.9614 39.5995C20.2774 39.8665 19.489 40 18.5963 40Z" fill="#9AA6AB"/>
<path d="M32.6409 40C31.4468 40 30.4063 39.7194 29.5194 39.1582C28.6383 38.597 27.9543 37.8287 27.4674 36.8534C26.9805 35.878 26.737 34.7665 26.737 33.5187C26.737 32.2601 26.9834 31.1404 27.4761 30.1596C27.9746 29.1788 28.6644 28.4106 29.5455 27.8548C30.4266 27.2936 31.4497 27.013 32.6148 27.013C33.5075 27.013 34.3161 27.1764 35.0407 27.5034C35.7653 27.8248 36.3623 28.2798 36.8319 28.8683C37.3072 29.4513 37.6057 30.1324 37.7274 30.9115H36.1623C36 30.2032 35.6088 29.5984 34.9885 29.0971C34.3741 28.5904 33.5915 28.337 32.6409 28.337C31.7888 28.337 31.0352 28.555 30.3802 28.9909C29.7252 29.4213 29.2122 30.0234 28.8412 30.7971C28.476 31.5654 28.2934 32.4562 28.2934 33.4697C28.2934 34.4886 28.4731 35.3904 28.8325 36.175C29.1919 36.9542 29.6962 37.5644 30.3454 38.0058C31.0004 38.4471 31.7656 38.6678 32.6409 38.6678C33.2321 38.6678 33.7712 38.5643 34.2581 38.3572C34.7509 38.1447 35.1624 37.845 35.4928 37.4582C35.829 37.0713 36.0551 36.6109 36.171 36.0769H37.7361C37.6202 36.8343 37.3333 37.5099 36.8753 38.1038C36.4232 38.6923 35.8348 39.1554 35.1103 39.4933C34.3915 39.8311 33.5683 40 32.6409 40Z" fill="#9AA6AB"/>
<path d="M49.5395 34.9409V27.1846H51.0872V39.7385H49.5395V37.6543H49.4178C49.1048 38.2973 48.6092 38.834 47.931 39.2644C47.2528 39.6894 46.4239 39.9019 45.4442 39.9019C44.5921 39.9019 43.8356 39.7276 43.1748 39.3788C42.514 39.0247 41.9952 38.5071 41.6184 37.826C41.2417 37.1449 41.0533 36.3085 41.0533 35.3168V27.1846H42.601V35.2269C42.601 36.2077 42.9082 36.9978 43.5226 37.5971C44.1371 38.191 44.9254 38.488 45.8877 38.488C46.4905 38.488 47.0702 38.3518 47.6266 38.0793C48.1831 37.8069 48.6411 37.4091 49.0005 36.8861C49.3598 36.3575 49.5395 35.7091 49.5395 34.9409Z" fill="#9AA6AB"/>
<path d="M55.1847 39.7385V27.1846H56.689V29.1135H56.802C57.0687 28.4814 57.5324 27.972 58.1932 27.5851C58.8598 27.1928 59.6134 26.9966 60.4539 26.9966C60.5814 26.9966 60.7234 26.9994 60.8799 27.0048C61.0364 27.0103 61.1669 27.0157 61.2712 27.0212V28.5005C61.2017 28.4896 61.0799 28.4732 60.906 28.4514C60.7321 28.4296 60.5437 28.4187 60.3409 28.4187C59.6453 28.4187 59.025 28.5577 58.4801 28.8356C57.941 29.108 57.515 29.4867 57.202 29.9716C56.889 30.4566 56.7324 31.0096 56.7324 31.6308V39.7385H55.1847Z" fill="#9AA6AB"/>
<path d="M68.9054 40C67.6591 40 66.5809 39.7276 65.6709 39.1827C64.7608 38.6324 64.0565 37.8723 63.558 36.9024C63.0653 35.9271 62.8189 34.8046 62.8189 33.5351C62.8189 32.271 63.0653 31.1486 63.558 30.1678C64.0565 29.1816 64.7434 28.4106 65.6187 27.8548C66.4998 27.2936 67.5171 27.013 68.6706 27.013C69.3952 27.013 70.0937 27.1383 70.7661 27.3889C71.4385 27.6341 72.0414 28.0128 72.5747 28.525C73.1137 29.0317 73.5398 29.672 73.8528 30.4457C74.1658 31.2139 74.3223 32.1239 74.3223 33.1755V33.8947H63.8884V32.6115H72.7399C72.7399 31.8051 72.566 31.0804 72.2182 30.4375C71.8762 29.7891 71.3979 29.2769 70.7835 28.901C70.1749 28.525 69.4706 28.337 68.6706 28.337C67.8243 28.337 67.0794 28.5495 66.436 28.9745C65.7926 29.3995 65.2883 29.9607 64.9231 30.6582C64.5637 31.3556 64.3811 32.1184 64.3753 32.9466V33.7149C64.3753 34.712 64.5579 35.5838 64.9231 36.3303C65.2941 37.0713 65.8187 37.6462 66.4969 38.0548C67.1751 38.4635 67.9779 38.6678 68.9054 38.6678C69.5372 38.6678 70.0908 38.5752 70.5661 38.3899C71.0472 38.2046 71.4501 37.9567 71.7747 37.6462C72.1051 37.3301 72.3544 36.9841 72.5225 36.6082L73.9919 37.0577C73.7891 37.5862 73.4557 38.0739 72.992 38.5207C72.5341 38.9675 71.9602 39.3271 71.2704 39.5995C70.5864 39.8665 69.7981 40 68.9054 40Z" fill="#9AA6AB"/>
<path d="M87.8577 40C86.6636 40 85.6231 39.7194 84.7362 39.1582C83.8551 38.597 83.1711 37.8287 82.6842 36.8534C82.1973 35.878 81.9538 34.7665 81.9538 33.5187C81.9538 32.2601 82.2002 31.1404 82.6929 30.1596C83.1914 29.1788 83.8812 28.4106 84.7623 27.8548C85.6434 27.2936 86.6665 27.013 87.8316 27.013C88.7243 27.013 89.533 27.1764 90.2575 27.5034C90.9821 27.8248 91.5792 28.2798 92.0487 28.8683C92.524 29.4513 92.8225 30.1324 92.9443 30.9115H91.3792C91.2169 30.2032 90.8256 29.5984 90.2054 29.0971C89.5909 28.5904 88.8084 28.337 87.8577 28.337C87.0056 28.337 86.2521 28.555 85.597 28.9909C84.942 29.4213 84.429 30.0234 84.058 30.7971C83.6928 31.5654 83.5102 32.4562 83.5102 33.4697C83.5102 34.4886 83.6899 35.3904 84.0493 36.175C84.4087 36.9542 84.913 37.5644 85.5623 38.0058C86.2173 38.4471 86.9824 38.6678 87.8577 38.6678C88.449 38.6678 88.9881 38.5643 89.475 38.3572C89.9677 38.1447 90.3793 37.845 90.7097 37.4582C91.0459 37.0713 91.2719 36.6109 91.3879 36.0769H92.953C92.837 36.8343 92.5501 37.5099 92.0922 38.1038C91.64 38.6923 91.0517 39.1554 90.3271 39.4933C89.6083 39.8311 88.7852 40 87.8577 40Z" fill="#9AA6AB"/>
<path d="M97.8178 31.8923V39.7385H96.2701V23H97.8178V29.1543H97.9569C98.2699 28.5059 98.754 27.9883 99.409 27.6014C100.07 27.2146 100.905 27.0212 101.913 27.0212C102.817 27.0212 103.612 27.1955 104.296 27.5442C104.98 27.8929 105.513 28.4079 105.895 29.0889C106.278 29.77 106.469 30.6091 106.469 31.6062V39.7385H104.913V31.6962C104.913 30.6609 104.606 29.8463 103.991 29.2524C103.383 28.653 102.559 28.3534 101.522 28.3534C100.809 28.3534 100.174 28.495 99.6177 28.7784C99.0612 29.0617 98.6206 29.4704 98.296 30.0043C97.9772 30.5329 97.8178 31.1622 97.8178 31.8923Z" fill="#9AA6AB"/>
<path d="M115.945 40C114.698 40 113.62 39.7276 112.71 39.1827C111.8 38.6324 111.096 37.8723 110.597 36.9024C110.105 35.9271 109.858 34.8046 109.858 33.5351C109.858 32.271 110.105 31.1486 110.597 30.1678C111.096 29.1816 111.783 28.4106 112.658 27.8548C113.539 27.2936 114.556 27.013 115.71 27.013C116.434 27.013 117.133 27.1383 117.805 27.3889C118.478 27.6341 119.081 28.0128 119.614 28.525C120.153 29.0317 120.579 29.672 120.892 30.4457C121.205 31.2139 121.362 32.1239 121.362 33.1755V33.8947H110.928V32.6115H119.779C119.779 31.8051 119.605 31.0804 119.257 30.4375C118.915 29.7891 118.437 29.2769 117.823 28.901C117.214 28.525 116.51 28.337 115.71 28.337C114.864 28.337 114.119 28.5495 113.475 28.9745C112.832 29.3995 112.328 29.9607 111.962 30.6582C111.603 31.3556 111.42 32.1184 111.415 32.9466V33.7149C111.415 34.712 111.597 35.5838 111.962 36.3303C112.333 37.0713 112.858 37.6462 113.536 38.0548C114.214 38.4635 115.017 38.6678 115.945 38.6678C116.576 38.6678 117.13 38.5752 117.605 38.3899C118.086 38.2046 118.489 37.9567 118.814 37.6462C119.144 37.3301 119.394 36.9841 119.562 36.6082L121.031 37.0577C120.828 37.5862 120.495 38.0739 120.031 38.5207C119.573 38.9675 118.999 39.3271 118.31 39.5995C117.626 39.8665 116.837 40 115.945 40Z" fill="#9AA6AB"/>
<path d="M129.989 40C128.795 40 127.755 39.7194 126.868 39.1582C125.987 38.597 125.303 37.8287 124.816 36.8534C124.329 35.878 124.085 34.7665 124.085 33.5187C124.085 32.2601 124.332 31.1404 124.824 30.1596C125.323 29.1788 126.013 28.4106 126.894 27.8548C127.775 27.2936 128.798 27.013 129.963 27.013C130.856 27.013 131.664 27.1764 132.389 27.5034C133.114 27.8248 133.711 28.2798 134.18 28.8683C134.655 29.4513 134.954 30.1324 135.076 30.9115H133.511C133.348 30.2032 132.957 29.5984 132.337 29.0971C131.722 28.5904 130.94 28.337 129.989 28.337C129.137 28.337 128.383 28.555 127.728 28.9909C127.073 29.4213 126.56 30.0234 126.189 30.7971C125.824 31.5654 125.642 32.4562 125.642 33.4697C125.642 34.4886 125.821 35.3904 126.181 36.175C126.54 36.9542 127.044 37.5644 127.694 38.0058C128.349 38.4471 129.114 38.6678 129.989 38.6678C130.58 38.6678 131.12 38.5643 131.606 38.3572C132.099 38.1447 132.511 37.845 132.841 37.4582C133.177 37.0713 133.403 36.6109 133.519 36.0769H135.084C134.968 36.8343 134.682 37.5099 134.224 38.1038C133.771 38.6923 133.183 39.1554 132.459 39.4933C131.74 39.8311 130.917 40 129.989 40Z" fill="#9AA6AB"/>
<path d="M139.81 34.9981L139.793 33.0937H140.141L146.401 27.1846H148.357L142.175 33.0038L142.036 33.0284L139.81 34.9981ZM138.402 39.7385V23H139.949V39.7385H138.402ZM146.723 39.7385L141.297 33.2899L142.41 32.2846L148.705 39.7385H146.723Z" fill="#9AA6AB"/>
<path d="M155.907 40C154.753 40 153.733 39.7248 152.846 39.1745C151.965 38.6242 151.275 37.8641 150.777 36.8942C150.278 35.9189 150.029 34.7937 150.029 33.5187C150.029 32.2329 150.278 31.1022 150.777 30.1269C151.275 29.1462 151.965 28.3833 152.846 27.8385C153.733 27.2881 154.753 27.013 155.907 27.013C157.06 27.013 158.077 27.2881 158.959 27.8385C159.84 28.3888 160.529 29.1516 161.028 30.1269C161.532 31.1022 161.784 32.2329 161.784 33.5187C161.784 34.7937 161.535 35.9189 161.037 36.8942C160.538 37.8641 159.845 38.6242 158.959 39.1745C158.077 39.7248 157.06 40 155.907 40ZM155.907 38.6678C156.834 38.6678 157.62 38.4335 158.263 37.9649C158.906 37.4963 159.393 36.8724 159.724 36.0933C160.06 35.3141 160.228 34.4559 160.228 33.5187C160.228 32.5816 160.06 31.7207 159.724 30.9361C159.393 30.1514 158.906 29.5221 158.263 29.0481C157.62 28.574 156.834 28.337 155.907 28.337C154.985 28.337 154.2 28.574 153.55 29.0481C152.907 29.5221 152.417 30.1514 152.081 30.9361C151.75 31.7207 151.585 32.5816 151.585 33.5187C151.585 34.4559 151.75 35.3141 152.081 36.0933C152.417 36.8724 152.907 37.4963 153.55 37.9649C154.194 38.4335 154.979 38.6678 155.907 38.6678Z" fill="#9AA6AB"/>
<path d="M173.668 34.9409V27.1846H175.216V39.7385H173.668V37.6543H173.547C173.234 38.2973 172.738 38.834 172.06 39.2644C171.382 39.6894 170.553 39.9019 169.573 39.9019C168.721 39.9019 167.964 39.7276 167.304 39.3788C166.643 39.0247 166.124 38.5071 165.747 37.826C165.37 37.1449 165.182 36.3085 165.182 35.3168V27.1846H166.73V35.2269C166.73 36.2077 167.037 36.9978 167.651 37.5971C168.266 38.191 169.054 38.488 170.016 38.488C170.619 38.488 171.199 38.3518 171.755 38.0793C172.312 37.8069 172.77 37.4091 173.129 36.8861C173.489 36.3575 173.668 35.7091 173.668 34.9409Z" fill="#9AA6AB"/>
<path d="M184.574 27.1846V28.4514H178.201V27.1846H184.574ZM180.192 24.1769H181.748V36.4611C181.748 36.9841 181.844 37.3955 182.035 37.6952C182.226 37.9894 182.476 38.1992 182.783 38.3245C183.09 38.4444 183.418 38.5043 183.765 38.5043C183.968 38.5043 184.142 38.4934 184.287 38.4716C184.432 38.4444 184.559 38.4171 184.67 38.3899L185 39.7058C184.849 39.7603 184.664 39.8093 184.444 39.8529C184.223 39.9019 183.951 39.9264 183.626 39.9264C183.058 39.9264 182.51 39.8093 181.983 39.575C181.461 39.3407 181.032 38.992 180.696 38.5288C180.36 38.0657 180.192 37.4909 180.192 36.8043V24.1769Z" fill="#9AA6AB"/>
</svg>
