<svg width="163" height="18" viewBox="0 0 163 18" fill="none" xmlns="http://www.w3.org/2000/svg">
<path d="M0 1.21293V16.7871H3.63971V7.1673H3.76808L7.4833 16.6882H9.80909L13.5243 7.22053H13.6527V16.7871H17.2924V1.21293H12.6635L8.73681 10.8555H8.55558L4.62892 1.21293H0Z" fill="#1E3944"/>
<path d="M19.8365 16.7871H30.6197V13.73H23.5744V10.5285H30.0685V7.46388H23.5744V4.26996H30.6197V1.21293H19.8365V16.7871Z" fill="#1E3944"/>
<path d="M38.8895 16.7871C43.6015 16.7871 46.5239 13.8593 46.5239 8.9924C46.5239 4.13308 43.6015 1.21293 38.882 1.21293H33.1732V16.7871H38.8895ZM36.9111 13.5779V4.42205H38.6932C41.3512 4.42205 42.7784 5.63878 42.7784 8.9924C42.7784 12.3612 41.3512 13.5779 38.7461 13.5779H36.9111Z" fill="#1E3944"/>
<path d="M52.6567 1.21293H48.9188V16.7871H52.6567V1.21293Z" fill="#1E3944"/>
<path d="M69.2537 6.85551C68.8761 3.12928 66.1199 1 62.382 1C58.259 1 55.0498 3.85171 55.0498 9C55.0498 14.1255 58.1835 17 62.382 17C66.6258 17 68.9743 14.0951 69.2537 11.3346L65.4781 11.3118C65.2138 12.8099 64.0962 13.6996 62.4576 13.6996C60.2526 13.6996 58.8632 12.0951 58.8632 9C58.8632 6.02662 60.2224 4.30038 62.4802 4.30038C64.1792 4.30038 65.2893 5.29658 65.4781 6.85551H69.2537Z" fill="#1E3944"/>
<path d="M74.5559 16.7871L75.5753 13.5171H80.914L81.9335 16.7871H85.9507L80.7328 1.21293H75.7565L70.5386 16.7871H74.5559ZM76.4664 10.6578L78.1805 5.13688H78.3013L80.023 10.6578H76.4664Z" fill="#1E3944"/>
<path d="M87.8284 16.7871H98V13.73H91.5663V1.21293H87.8284V16.7871Z" fill="#1E3944"/>
<path d="M100 1.21293V16.7871H103.612V7.1673H103.74L107.427 16.6882H109.735L113.422 7.22053H113.549V16.7871H117.161V1.21293H112.568L108.671 10.8555H108.491L104.594 1.21293H100Z" fill="#96280F"/>
<path d="M119.686 16.7871H130.388V13.73H123.396V10.5285H129.841V7.46388H123.396V4.26996H130.388V1.21293H119.686V16.7871Z" fill="#96280F"/>
<path d="M142.529 6.30038H146.283C145.909 3.19772 143.181 1 139.629 1C135.529 1 132.292 3.92776 132.292 9.02281C132.292 13.9506 135.275 17 139.674 17C143.623 17 146.448 14.5133 146.448 10.3308V8.26996H139.831V11.0152H142.874C142.836 12.6578 141.712 13.6996 139.704 13.6996C137.403 13.6996 136.076 11.9734 136.076 8.97719C136.076 6.0038 137.478 4.30038 139.704 4.30038C141.187 4.30038 142.199 5.03802 142.529 6.30038Z" fill="#96280F"/>
<path d="M151.691 16.7871L152.703 13.5171H158.001L159.013 16.7871H163L157.822 1.21293H152.883L147.705 16.7871H151.691ZM153.587 10.6578L155.289 5.13688H155.409L157.117 10.6578H153.587Z" fill="#96280F"/>
</svg>
