<svg width="12" height="13" fill="none" xmlns="http://www.w3.org/2000/svg"><g clip-path="url(#clip0_114_1930)"><path d="M5.588 7.214v.381h.686v-.33c0-.474.144-.838.567-1.177.534-.415.839-.737.839-1.39 0-.847-.559-1.389-1.516-1.389-1.16 0-1.55.856-1.576 1.517h.686c.043-.407.28-.873.89-.873.55 0 .821.322.821.77 0 .416-.186.61-.686 1-.593.466-.711.915-.711 1.491zm.381 2.152a.552.552 0 000-1.101.559.559 0 00-.56.559.56.56 0 00.56.542z" fill="#E9EBEC"/><path d="M6 11.794A5.294 5.294 0 106 1.206a5.294 5.294 0 000 10.588z" stroke="#E9EBEC" stroke-linecap="round" stroke-linejoin="round"/></g><defs><clipPath id="clip0_114_1930"><path fill="#fff" transform="translate(0 .5)" d="M0 0h12v12H0z"/></clipPath></defs></svg>