<svg width="172" height="15" viewBox="0 0 172 15" fill="none" xmlns="http://www.w3.org/2000/svg">
<path d="M0.579545 4.21023V3.27273H7.125V4.21023H4.38068V12H3.32386V4.21023H0.579545ZM7.93999 12V5.45455H8.91158V6.44318H8.97976C9.09908 6.11932 9.31499 5.85653 9.62749 5.65483C9.93999 5.45312 10.2923 5.35227 10.6843 5.35227C10.7582 5.35227 10.8505 5.35369 10.9613 5.35653C11.0721 5.35937 11.1559 5.36364 11.2127 5.36932V6.39205C11.1786 6.38352 11.1005 6.37074 10.9783 6.35369C10.859 6.33381 10.7326 6.32386 10.5991 6.32386C10.2809 6.32386 9.9968 6.39062 9.7468 6.52415C9.49964 6.65483 9.30362 6.83665 9.15874 7.0696C9.01669 7.29972 8.94567 7.5625 8.94567 7.85795V12H7.93999ZM16.5298 9.32386V5.45455H17.5355V12H16.5298V10.892H16.4616C16.3082 11.2244 16.0696 11.5071 15.7457 11.7401C15.4219 11.9702 15.0128 12.0852 14.5185 12.0852C14.1094 12.0852 13.7457 11.9957 13.4276 11.8168C13.1094 11.6349 12.8594 11.3622 12.6776 10.9986C12.4957 10.6321 12.4048 10.1705 12.4048 9.61364V5.45455H13.4105V9.54545C13.4105 10.0227 13.544 10.4034 13.8111 10.6875C14.081 10.9716 14.4247 11.1136 14.8423 11.1136C15.0923 11.1136 15.3466 11.0497 15.6051 10.9219C15.8665 10.794 16.0852 10.598 16.2614 10.3338C16.4403 10.0696 16.5298 9.73295 16.5298 9.32386ZM24.0138 6.92045L23.1104 7.17614C23.0536 7.02557 22.9698 6.87926 22.859 6.73722C22.7511 6.59233 22.6033 6.47301 22.4158 6.37926C22.2283 6.28551 21.9883 6.23864 21.6957 6.23864C21.2951 6.23864 20.9613 6.33097 20.6942 6.51562C20.43 6.69744 20.2979 6.92898 20.2979 7.21023C20.2979 7.46023 20.3888 7.65767 20.5707 7.80256C20.7525 7.94744 21.0366 8.06818 21.4229 8.16477L22.3945 8.40341C22.9798 8.54545 23.4158 8.76278 23.7028 9.0554C23.9897 9.34517 24.1332 9.71875 24.1332 10.1761C24.1332 10.5511 24.0252 10.8864 23.8093 11.1818C23.5962 11.4773 23.2979 11.7102 22.9144 11.8807C22.5309 12.0511 22.0849 12.1364 21.5763 12.1364C20.9087 12.1364 20.3562 11.9915 19.9187 11.7017C19.4812 11.4119 19.2042 10.9886 19.0877 10.4318L20.0423 10.1932C20.1332 10.5455 20.305 10.8097 20.5579 10.9858C20.8136 11.1619 21.1474 11.25 21.5593 11.25C22.0281 11.25 22.4002 11.1506 22.6758 10.9517C22.9542 10.75 23.0934 10.5085 23.0934 10.2273C23.0934 10 23.0138 9.80966 22.8548 9.65625C22.6957 9.5 22.4513 9.38352 22.1218 9.30682L21.0309 9.05114C20.4315 8.90909 19.9911 8.68892 19.7099 8.39062C19.4315 8.08949 19.2923 7.71307 19.2923 7.26136C19.2923 6.89205 19.396 6.56534 19.6033 6.28125C19.8136 5.99716 20.0991 5.77415 20.4599 5.61222C20.8235 5.45028 21.2354 5.36932 21.6957 5.36932C22.3434 5.36932 22.8519 5.51136 23.2212 5.79545C23.5934 6.07955 23.8576 6.45455 24.0138 6.92045ZM28.4936 5.45455V6.30682H25.1016V5.45455H28.4936ZM26.0902 3.88636H27.0959V10.125C27.0959 10.4091 27.1371 10.6222 27.2195 10.7642C27.3047 10.9034 27.4126 10.9972 27.5433 11.0455C27.6768 11.0909 27.8175 11.1136 27.9652 11.1136C28.076 11.1136 28.1669 11.108 28.2379 11.0966C28.3089 11.0824 28.3658 11.071 28.4084 11.0625L28.6129 11.9659C28.5447 11.9915 28.4496 12.017 28.3274 12.0426C28.2053 12.071 28.0504 12.0852 27.8629 12.0852C27.5788 12.0852 27.3004 12.0241 27.0277 11.902C26.7578 11.7798 26.5334 11.5938 26.3544 11.3438C26.1783 11.0938 26.0902 10.7784 26.0902 10.3977V3.88636ZM34.9155 5.45455C34.8643 5.02273 34.657 4.6875 34.2933 4.44886C33.9297 4.21023 33.4837 4.09091 32.9553 4.09091C32.5689 4.09091 32.2308 4.15341 31.9411 4.27841C31.6541 4.40341 31.4297 4.57528 31.2678 4.79403C31.1087 5.01278 31.0291 5.26136 31.0291 5.53977C31.0291 5.77273 31.0845 5.97301 31.1953 6.14062C31.3089 6.3054 31.4538 6.44318 31.63 6.55398C31.8061 6.66193 31.9908 6.75142 32.1839 6.82244C32.3771 6.89062 32.5547 6.94602 32.7166 6.98864L33.603 7.22727C33.8303 7.28693 34.0831 7.36932 34.3615 7.47443C34.6428 7.57955 34.9112 7.72301 35.1669 7.90483C35.4254 8.08381 35.6385 8.31392 35.8061 8.59517C35.9737 8.87642 36.0575 9.22159 36.0575 9.63068C36.0575 10.1023 35.9339 10.5284 35.6868 10.9091C35.4425 11.2898 35.0845 11.5923 34.6129 11.8168C34.1442 12.0412 33.5746 12.1534 32.9041 12.1534C32.2791 12.1534 31.7379 12.0526 31.2805 11.8509C30.826 11.6491 30.468 11.3679 30.2067 11.0071C29.9482 10.6463 29.8018 10.2273 29.7678 9.75H30.8587C30.8871 10.0795 30.9979 10.3523 31.1911 10.5682C31.3871 10.7812 31.6342 10.9403 31.9325 11.0455C32.2337 11.1477 32.5575 11.1989 32.9041 11.1989C33.3075 11.1989 33.6697 11.1335 33.9908 11.0028C34.3118 10.8693 34.5661 10.6847 34.7536 10.4489C34.9411 10.2102 35.0348 9.93182 35.0348 9.61364C35.0348 9.32386 34.9538 9.08807 34.7919 8.90625C34.63 8.72443 34.4169 8.5767 34.1527 8.46307C33.8885 8.34943 33.603 8.25 33.2962 8.16477L32.2223 7.85795C31.5405 7.66193 31.0007 7.3821 30.603 7.01847C30.2053 6.65483 30.0064 6.17898 30.0064 5.59091C30.0064 5.10227 30.1385 4.67614 30.4027 4.3125C30.6697 3.94602 31.0277 3.66193 31.4766 3.46023C31.9283 3.25568 32.4325 3.15341 32.9893 3.15341C33.5518 3.15341 34.0518 3.25426 34.4893 3.45597C34.9268 3.65483 35.2734 3.92756 35.5291 4.27415C35.7876 4.62074 35.924 5.0142 35.9382 5.45455H34.9155ZM40.3178 12.1364C39.7042 12.1364 39.1758 11.9915 38.7326 11.7017C38.2894 11.4119 37.9485 11.0128 37.7099 10.5043C37.4712 9.99574 37.3519 9.41477 37.3519 8.76136C37.3519 8.09659 37.4741 7.50994 37.7184 7.00142C37.9656 6.49006 38.3093 6.09091 38.7496 5.80398C39.1928 5.5142 39.7099 5.36932 40.3008 5.36932C40.761 5.36932 41.1758 5.45455 41.5451 5.625C41.9144 5.79545 42.217 6.03409 42.4528 6.34091C42.6886 6.64773 42.8349 7.00568 42.8917 7.41477H41.886C41.8093 7.11648 41.6388 6.85227 41.3746 6.62216C41.1133 6.3892 40.761 6.27273 40.3178 6.27273C39.9258 6.27273 39.582 6.375 39.2866 6.57955C38.994 6.78125 38.7653 7.06676 38.6005 7.43608C38.4386 7.80256 38.3576 8.23295 38.3576 8.72727C38.3576 9.23295 38.4371 9.6733 38.5962 10.0483C38.7582 10.4233 38.9854 10.7145 39.2781 10.9219C39.5735 11.1293 39.9201 11.233 40.3178 11.233C40.5792 11.233 40.8164 11.1875 41.0295 11.0966C41.2425 11.0057 41.4229 10.875 41.5707 10.7045C41.7184 10.5341 41.8235 10.3295 41.886 10.0909H42.8917C42.8349 10.4773 42.6942 10.8253 42.4698 11.1349C42.2482 11.4418 41.9542 11.6861 41.5877 11.8679C41.2241 12.0469 40.8008 12.1364 40.3178 12.1364ZM47.021 12.1364C46.43 12.1364 45.9116 11.9957 45.4656 11.7145C45.0224 11.4332 44.6758 11.0398 44.4258 10.5341C44.1786 10.0284 44.055 9.4375 44.055 8.76136C44.055 8.07955 44.1786 7.48437 44.4258 6.97585C44.6758 6.46733 45.0224 6.07244 45.4656 5.79119C45.9116 5.50994 46.43 5.36932 47.021 5.36932C47.6119 5.36932 48.1289 5.50994 48.5721 5.79119C49.0181 6.07244 49.3647 6.46733 49.6119 6.97585C49.8619 7.48437 49.9869 8.07955 49.9869 8.76136C49.9869 9.4375 49.8619 10.0284 49.6119 10.5341C49.3647 11.0398 49.0181 11.4332 48.5721 11.7145C48.1289 11.9957 47.6119 12.1364 47.021 12.1364ZM47.021 11.233C47.4698 11.233 47.8391 11.1179 48.1289 10.8878C48.4187 10.6577 48.6332 10.3551 48.7724 9.98011C48.9116 9.60511 48.9812 9.19886 48.9812 8.76136C48.9812 8.32386 48.9116 7.91619 48.7724 7.53835C48.6332 7.16051 48.4187 6.85511 48.1289 6.62216C47.8391 6.3892 47.4698 6.27273 47.021 6.27273C46.5721 6.27273 46.2028 6.3892 45.913 6.62216C45.6232 6.85511 45.4087 7.16051 45.2695 7.53835C45.1303 7.91619 45.0607 8.32386 45.0607 8.76136C45.0607 9.19886 45.1303 9.60511 45.2695 9.98011C45.4087 10.3551 45.6232 10.6577 45.913 10.8878C46.2028 11.1179 46.5721 11.233 47.021 11.233ZM51.522 12V5.45455H52.4936V6.44318H52.5618C52.6811 6.11932 52.897 5.85653 53.2095 5.65483C53.522 5.45312 53.8743 5.35227 54.2663 5.35227C54.3402 5.35227 54.4325 5.35369 54.5433 5.35653C54.6541 5.35937 54.7379 5.36364 54.7947 5.36932V6.39205C54.7607 6.38352 54.6825 6.37074 54.5604 6.35369C54.4411 6.33381 54.3146 6.32386 54.1811 6.32386C53.8629 6.32386 53.5788 6.39062 53.3288 6.52415C53.0817 6.65483 52.8857 6.83665 52.7408 7.0696C52.5987 7.29972 52.5277 7.5625 52.5277 7.85795V12H51.522ZM58.532 12.1364C57.9013 12.1364 57.3572 11.9972 56.8999 11.7188C56.4453 11.4375 56.0945 11.0455 55.8473 10.5426C55.603 10.0369 55.4808 9.44886 55.4808 8.77841C55.4808 8.10795 55.603 7.51705 55.8473 7.00568C56.0945 6.49148 56.4382 6.09091 56.8786 5.80398C57.3217 5.5142 57.8388 5.36932 58.4297 5.36932C58.7706 5.36932 59.1072 5.42614 59.4396 5.53977C59.772 5.65341 60.0746 5.83807 60.3473 6.09375C60.62 6.34659 60.8374 6.68182 60.9993 7.09943C61.1612 7.51705 61.2422 8.03125 61.2422 8.64205V9.06818H56.1967V8.19886H60.2195C60.2195 7.82955 60.1456 7.5 59.9979 7.21023C59.853 6.92045 59.6456 6.69176 59.3757 6.52415C59.1087 6.35653 58.7933 6.27273 58.4297 6.27273C58.0291 6.27273 57.6825 6.37216 57.3899 6.57102C57.1001 6.76705 56.8771 7.02273 56.7209 7.33807C56.5646 7.65341 56.4865 7.99148 56.4865 8.35227V8.93182C56.4865 9.42614 56.5717 9.84517 56.7422 10.1889C56.9155 10.5298 57.1555 10.7898 57.4624 10.9688C57.7692 11.1449 58.1257 11.233 58.532 11.233C58.7962 11.233 59.0348 11.196 59.2479 11.1222C59.4638 11.0455 59.6499 10.9318 59.8061 10.7812C59.9624 10.6278 60.0831 10.4375 60.1683 10.2102L61.1399 10.483C61.0376 10.8125 60.8658 11.1023 60.6243 11.3523C60.3828 11.5994 60.0845 11.7926 59.7294 11.9318C59.3743 12.0682 58.9751 12.1364 58.532 12.1364Z" fill="#344D57"/>
<path d="M65.9474 10.1108V8.64418L70.2678 1.81818H71.4908V3.90625H70.745L67.8366 8.51491V8.59446H73.8672V10.1108H65.9474ZM70.8047 12V9.66335L70.8246 9.0071V1.81818H72.5646V12H70.8047ZM76.2971 12.1094C75.9954 12.1094 75.7369 12.0033 75.5215 11.7912C75.306 11.5791 75.2 11.3205 75.2033 11.0156C75.2 10.7173 75.306 10.4621 75.5215 10.25C75.7369 10.0379 75.9954 9.93182 76.2971 9.93182C76.5887 9.93182 76.8423 10.0379 77.0577 10.25C77.2765 10.4621 77.3875 10.7173 77.3908 11.0156C77.3875 11.2178 77.3345 11.4018 77.2317 11.5675C77.1323 11.7332 76.9997 11.8658 76.834 11.9652C76.6716 12.0613 76.4926 12.1094 76.2971 12.1094ZM79.2738 12L83.604 3.42898V3.35938H78.5778V1.81818H85.5131V3.39418L81.1879 12H79.2738Z" fill="#091114"/>
<path d="M95.3253 3.27273V12H93.7443V4.81108H93.6932L91.652 6.11506V4.66619L93.821 3.27273H95.3253ZM98.8888 10.8068L98.8335 11.2756C98.7937 11.6335 98.7227 11.9972 98.6204 12.3665C98.521 12.7386 98.4158 13.081 98.305 13.3935C98.1942 13.706 98.1048 13.9517 98.0366 14.1307H96.9968C97.0366 13.9574 97.0906 13.7216 97.1587 13.4233C97.2298 13.125 97.2979 12.7898 97.3633 12.4176C97.4286 12.0455 97.4727 11.6676 97.4954 11.2841L97.5252 10.8068H98.8888ZM103.501 3.15341C103.918 3.15625 104.325 3.23011 104.719 3.375C105.117 3.51705 105.475 3.75 105.793 4.07386C106.112 4.39489 106.364 4.82528 106.552 5.36506C106.739 5.90483 106.833 6.57244 106.833 7.3679C106.836 8.1179 106.756 8.78835 106.594 9.37926C106.435 9.96733 106.207 10.4645 105.908 10.8707C105.61 11.277 105.251 11.5866 104.83 11.7997C104.41 12.0128 103.937 12.1193 103.411 12.1193C102.86 12.1193 102.371 12.0114 101.945 11.7955C101.522 11.5795 101.18 11.2841 100.918 10.9091C100.657 10.5341 100.496 10.1051 100.437 9.62216H101.992C102.072 9.96875 102.234 10.2443 102.478 10.4489C102.725 10.6506 103.036 10.7514 103.411 10.7514C104.016 10.7514 104.482 10.4886 104.809 9.96307C105.136 9.4375 105.299 8.70739 105.299 7.77273H105.239C105.1 8.02273 104.92 8.23864 104.698 8.42045C104.477 8.59943 104.225 8.73722 103.944 8.83381C103.665 8.9304 103.37 8.97869 103.058 8.97869C102.546 8.97869 102.086 8.85653 101.677 8.61222C101.271 8.3679 100.948 8.03267 100.71 7.60653C100.474 7.1804 100.354 6.69318 100.352 6.14489C100.352 5.5767 100.482 5.06676 100.744 4.61506C101.008 4.16051 101.376 3.80256 101.847 3.54119C102.319 3.27699 102.87 3.14773 103.501 3.15341ZM103.505 4.43182C103.198 4.43182 102.921 4.5071 102.674 4.65767C102.43 4.8054 102.237 5.0071 102.094 5.26278C101.955 5.51562 101.886 5.7983 101.886 6.1108C101.888 6.42045 101.958 6.7017 102.094 6.95455C102.234 7.20739 102.423 7.40767 102.661 7.5554C102.903 7.70312 103.178 7.77699 103.488 7.77699C103.718 7.77699 103.933 7.73295 104.131 7.64489C104.33 7.55682 104.504 7.43466 104.651 7.27841C104.802 7.11932 104.918 6.93892 105.001 6.73722C105.086 6.53551 105.127 6.32244 105.124 6.09801C105.124 5.79972 105.053 5.52415 104.911 5.27131C104.772 5.01847 104.58 4.81534 104.336 4.66193C104.094 4.50852 103.817 4.43182 103.505 4.43182ZM108.094 10.3807V9.12358L111.798 3.27273H112.846V5.0625H112.207L109.714 9.01278V9.08097H114.883V10.3807H108.094ZM112.258 12V9.99716L112.275 9.43466V3.27273H113.766V12H112.258ZM116.087 10.3807V9.12358L119.79 3.27273H120.838V5.0625H120.199L117.706 9.01278V9.08097H122.875V10.3807H116.087ZM120.25 12V9.99716L120.267 9.43466V3.27273H121.759V12H120.25ZM127.23 12V5.45455H128.726V6.54545H128.794C128.913 6.16761 129.118 5.87642 129.408 5.67188C129.7 5.46449 130.034 5.3608 130.409 5.3608C130.494 5.3608 130.589 5.36506 130.695 5.37358C130.803 5.37926 130.892 5.3892 130.963 5.40341V6.82244C130.898 6.79972 130.794 6.77983 130.652 6.76278C130.513 6.7429 130.378 6.73295 130.247 6.73295C129.966 6.73295 129.713 6.79403 129.489 6.91619C129.267 7.03551 129.092 7.2017 128.964 7.41477C128.837 7.62784 128.773 7.87358 128.773 8.15199V12H127.23ZM134.616 12.1278C133.96 12.1278 133.393 11.9915 132.916 11.7188C132.441 11.4432 132.076 11.054 131.821 10.5511C131.565 10.0455 131.437 9.45028 131.437 8.76562C131.437 8.09233 131.565 7.50142 131.821 6.9929C132.079 6.48153 132.44 6.08381 132.903 5.79972C133.366 5.51278 133.91 5.36932 134.535 5.36932C134.939 5.36932 135.319 5.43466 135.677 5.56534C136.038 5.69318 136.356 5.89205 136.632 6.16193C136.91 6.43182 137.129 6.77557 137.288 7.19318C137.447 7.60795 137.527 8.10227 137.527 8.67614V9.14915H132.162V8.10938H136.048C136.045 7.81392 135.981 7.55114 135.856 7.32102C135.731 7.08807 135.556 6.90483 135.332 6.77131C135.11 6.63778 134.852 6.57102 134.556 6.57102C134.241 6.57102 133.964 6.64773 133.725 6.80114C133.487 6.9517 133.301 7.15057 133.167 7.39773C133.037 7.64205 132.97 7.91051 132.967 8.20312V9.1108C132.967 9.49148 133.037 9.81818 133.176 10.0909C133.315 10.3608 133.51 10.5682 133.76 10.7131C134.01 10.8551 134.302 10.9261 134.637 10.9261C134.862 10.9261 135.065 10.8949 135.247 10.8324C135.429 10.767 135.586 10.6719 135.72 10.5469C135.853 10.4219 135.954 10.267 136.022 10.0824L137.463 10.2443C137.372 10.625 137.199 10.9574 136.943 11.2415C136.69 11.5227 136.366 11.7415 135.971 11.8977C135.576 12.0511 135.125 12.1278 134.616 12.1278ZM144.491 5.45455L142.16 12H140.455L138.124 5.45455H139.769L141.273 10.3168H141.342L142.85 5.45455H144.491ZM145.558 12V5.45455H147.101V12H145.558ZM146.334 4.52557C146.089 4.52557 145.879 4.4446 145.703 4.28267C145.527 4.1179 145.439 3.92045 145.439 3.69034C145.439 3.45739 145.527 3.25994 145.703 3.09801C145.879 2.93324 146.089 2.85085 146.334 2.85085C146.581 2.85085 146.791 2.93324 146.964 3.09801C147.141 3.25994 147.229 3.45739 147.229 3.69034C147.229 3.92045 147.141 4.1179 146.964 4.28267C146.791 4.4446 146.581 4.52557 146.334 4.52557ZM151.585 12.1278C150.929 12.1278 150.362 11.9915 149.885 11.7188C149.41 11.4432 149.045 11.054 148.789 10.5511C148.534 10.0455 148.406 9.45028 148.406 8.76562C148.406 8.09233 148.534 7.50142 148.789 6.9929C149.048 6.48153 149.409 6.08381 149.872 5.79972C150.335 5.51278 150.879 5.36932 151.504 5.36932C151.907 5.36932 152.288 5.43466 152.646 5.56534C153.007 5.69318 153.325 5.89205 153.6 6.16193C153.879 6.43182 154.098 6.77557 154.257 7.19318C154.416 7.60795 154.495 8.10227 154.495 8.67614V9.14915H149.13V8.10938H153.017C153.014 7.81392 152.95 7.55114 152.825 7.32102C152.7 7.08807 152.525 6.90483 152.301 6.77131C152.079 6.63778 151.821 6.57102 151.525 6.57102C151.21 6.57102 150.933 6.64773 150.694 6.80114C150.456 6.9517 150.27 7.15057 150.136 7.39773C150.005 7.64205 149.939 7.91051 149.936 8.20312V9.1108C149.936 9.49148 150.005 9.81818 150.145 10.0909C150.284 10.3608 150.478 10.5682 150.728 10.7131C150.978 10.8551 151.271 10.9261 151.606 10.9261C151.831 10.9261 152.034 10.8949 152.216 10.8324C152.397 10.767 152.555 10.6719 152.689 10.5469C152.822 10.4219 152.923 10.267 152.991 10.0824L154.431 10.2443C154.341 10.625 154.167 10.9574 153.912 11.2415C153.659 11.5227 153.335 11.7415 152.94 11.8977C152.545 12.0511 152.093 12.1278 151.585 12.1278ZM157.116 12L155.267 5.45455H156.839L157.99 10.0568H158.049L159.225 5.45455H160.781L161.957 10.0312H162.021L163.154 5.45455H164.731L162.877 12H161.271L160.044 7.5767H159.954L158.727 12H157.116ZM170.982 7.18466L169.575 7.33807C169.536 7.19602 169.466 7.0625 169.366 6.9375C169.27 6.8125 169.139 6.71165 168.974 6.63494C168.81 6.55824 168.608 6.51989 168.369 6.51989C168.048 6.51989 167.778 6.58949 167.56 6.72869C167.344 6.8679 167.237 7.0483 167.24 7.26989C167.237 7.46023 167.307 7.61506 167.449 7.73438C167.594 7.85369 167.832 7.9517 168.165 8.02841L169.281 8.26705C169.901 8.40057 170.361 8.61222 170.662 8.90199C170.966 9.19176 171.119 9.57102 171.122 10.0398C171.119 10.4517 170.999 10.8153 170.76 11.1307C170.524 11.4432 170.196 11.6875 169.776 11.8636C169.355 12.0398 168.872 12.1278 168.327 12.1278C167.526 12.1278 166.881 11.9602 166.392 11.625C165.903 11.2869 165.612 10.8168 165.518 10.2145L167.023 10.0696C167.091 10.3651 167.236 10.5881 167.457 10.7386C167.679 10.8892 167.967 10.9645 168.322 10.9645C168.689 10.9645 168.983 10.8892 169.205 10.7386C169.429 10.5881 169.541 10.402 169.541 10.1804C169.541 9.9929 169.469 9.83807 169.324 9.71591C169.182 9.59375 168.96 9.5 168.659 9.43466L167.543 9.20028C166.915 9.0696 166.45 8.84943 166.149 8.53977C165.848 8.22727 165.699 7.83239 165.702 7.35511C165.699 6.9517 165.808 6.60227 166.03 6.30682C166.254 6.00852 166.565 5.77841 166.963 5.61648C167.364 5.4517 167.825 5.36932 168.348 5.36932C169.115 5.36932 169.719 5.53267 170.159 5.85938C170.602 6.18608 170.876 6.62784 170.982 7.18466Z" fill="#344D57"/>
<path d="M91 14.3864H171.604V15.2045H91V14.3864Z" fill="#344D57"/>
</svg>
