<svg width="142" height="15" viewBox="0 0 142 15" fill="none" xmlns="http://www.w3.org/2000/svg">
<path d="M15.244 5.31555H21.1117V6.46626H18.8014V12.953H17.535V6.46626H15.2344L15.244 5.31555ZM20.8604 7.42349H21.943V8.49274H21.9624C22.001 8.33999 22.0687 8.19742 22.1654 8.05486C22.262 7.91229 22.378 7.77991 22.523 7.66789C22.6584 7.54569 22.813 7.45404 22.987 7.38276C23.1514 7.31148 23.3254 7.27074 23.4994 7.27074C23.6347 7.27074 23.7314 7.28093 23.7797 7.28093C23.828 7.29111 23.886 7.3013 23.9344 7.3013V8.47237C23.857 8.45201 23.77 8.44182 23.683 8.43164C23.596 8.42146 23.5187 8.41127 23.4317 8.41127C23.2384 8.41127 23.0547 8.45201 22.8807 8.53347C22.7067 8.61494 22.5617 8.73714 22.4264 8.88989C22.3007 9.05282 22.1944 9.2463 22.117 9.48052C22.0397 9.71474 22.001 9.98969 22.001 10.2952V12.9225H20.841L20.8604 7.42349ZM29.251 12.953H28.1104V12.1791H28.091C27.946 12.4642 27.7334 12.6781 27.453 12.8512C27.1727 13.0243 26.8827 13.1058 26.5927 13.1058C25.9064 13.1058 25.4037 12.9327 25.0944 12.5661C24.785 12.2096 24.6304 11.6597 24.6304 10.9367V7.42349H25.7904V10.8145C25.7904 11.3033 25.8774 11.6496 26.061 11.843C26.235 12.0467 26.4864 12.1485 26.8054 12.1485C27.047 12.1485 27.25 12.1078 27.4144 12.0263C27.5787 11.9449 27.714 11.843 27.8107 11.7107C27.917 11.5783 27.9847 11.4153 28.033 11.232C28.0814 11.0487 28.1007 10.8451 28.1007 10.6312V7.42349H29.2607V12.953H29.251ZM31.223 11.1811C31.2617 11.5375 31.3874 11.7819 31.6097 11.9347C31.832 12.0773 32.1027 12.1485 32.412 12.1485C32.5184 12.1485 32.644 12.1384 32.7794 12.118C32.9147 12.0976 33.05 12.0671 33.166 12.0162C33.2917 11.9652 33.3884 11.894 33.4657 11.7921C33.543 11.6903 33.5817 11.5681 33.572 11.4153C33.5624 11.2626 33.514 11.1302 33.4077 11.0284C33.3014 10.9265 33.1757 10.8553 33.021 10.784C32.8664 10.7229 32.6827 10.672 32.4797 10.6312C32.2767 10.5905 32.0737 10.5396 31.861 10.4887C31.6484 10.4377 31.4357 10.3767 31.2327 10.3054C31.0297 10.2341 30.8557 10.1424 30.6914 10.01C30.5367 9.88785 30.4014 9.7351 30.3144 9.54162C30.2177 9.34814 30.1694 9.1241 30.1694 8.83897C30.1694 8.53347 30.237 8.28907 30.382 8.08541C30.5174 7.88174 30.701 7.71881 30.9137 7.59661C31.1264 7.47441 31.368 7.38276 31.629 7.33184C31.89 7.28093 32.1414 7.26056 32.3734 7.26056C32.644 7.26056 32.905 7.29111 33.1467 7.35221C33.3884 7.41331 33.6204 7.50496 33.8137 7.64753C34.0167 7.77991 34.181 7.96321 34.3067 8.17706C34.442 8.39091 34.5194 8.65567 34.558 8.96117H33.3497C33.2917 8.66586 33.166 8.47237 32.9727 8.37054C32.7697 8.26871 32.5474 8.21779 32.2864 8.21779C32.209 8.21779 32.1027 8.22797 31.9964 8.23816C31.8804 8.25852 31.7837 8.27889 31.6774 8.31962C31.5807 8.36036 31.4937 8.42146 31.426 8.49274C31.3584 8.56402 31.3197 8.66585 31.3197 8.78805C31.3197 8.9408 31.368 9.05282 31.4647 9.14447C31.5614 9.23612 31.687 9.3074 31.8514 9.37869C32.006 9.43979 32.1897 9.4907 32.3927 9.53144C32.5957 9.57217 32.8084 9.62309 33.021 9.674C33.2337 9.72492 33.4367 9.78602 33.6397 9.8573C33.8427 9.92858 34.0264 10.0202 34.181 10.1526C34.3357 10.2748 34.471 10.4276 34.5677 10.6109C34.6644 10.7942 34.7127 11.0284 34.7127 11.2931C34.7127 11.619 34.645 11.894 34.5 12.1282C34.355 12.3522 34.1714 12.5457 33.949 12.6883C33.7267 12.8308 33.4657 12.9327 33.195 13.0039C32.9147 13.065 32.644 13.1058 32.3734 13.1058C32.0447 13.1058 31.7354 13.065 31.455 12.9836C31.1747 12.9021 30.9234 12.7799 30.7204 12.6272C30.5174 12.4642 30.353 12.2707 30.237 12.0263C30.121 11.7921 30.0534 11.507 30.0437 11.1709H31.2134V11.1811H31.223ZM35.0414 7.42349H35.921V5.75343H37.081V7.41331H38.125V8.31962H37.081V11.2728C37.081 11.4052 37.0907 11.507 37.1004 11.6088C37.11 11.7005 37.139 11.7819 37.168 11.843C37.2067 11.9041 37.2647 11.9551 37.3324 11.9856C37.4097 12.0162 37.5064 12.0365 37.6417 12.0365C37.719 12.0365 37.806 12.0365 37.8834 12.0263C37.9607 12.0162 38.0477 12.006 38.125 11.9856V12.9327C37.9994 12.953 37.8737 12.9632 37.748 12.9734C37.6224 12.9938 37.5064 12.9938 37.371 12.9938C37.0617 12.9938 36.82 12.9632 36.6364 12.9021C36.4527 12.841 36.3077 12.7494 36.2014 12.6373C36.095 12.5151 36.0274 12.3726 35.9887 12.1995C35.95 12.0263 35.9307 11.8125 35.921 11.5885V8.32981H35.0414V7.40313V7.42349ZM38.937 7.42349H40.0294V8.17706H40.0487C40.213 7.85119 40.4354 7.62716 40.7254 7.48459C41.0154 7.34203 41.3247 7.27074 41.6727 7.27074C42.0884 7.27074 42.446 7.34203 42.7554 7.50496C43.0647 7.65771 43.316 7.86137 43.519 8.13632C43.722 8.40109 43.8767 8.71677 43.9734 9.07319C44.07 9.4296 44.128 9.81657 44.128 10.2137C44.128 10.5905 44.0797 10.9469 43.9927 11.2931C43.896 11.6394 43.7607 11.9551 43.577 12.2198C43.3934 12.4846 43.1614 12.6984 42.8714 12.8614C42.5814 13.0243 42.2527 13.1058 41.866 13.1058C41.7017 13.1058 41.5277 13.0854 41.3634 13.0549C41.199 13.0243 41.0347 12.9734 40.88 12.9021C40.7254 12.8308 40.5804 12.7392 40.4547 12.6272C40.3194 12.5151 40.213 12.3828 40.126 12.2402H40.1067V14.9999H38.9467V7.42349H38.937ZM42.9874 10.1934C42.9874 9.94895 42.9584 9.70455 42.8907 9.47034C42.8327 9.23612 42.736 9.03245 42.6104 8.84915C42.4847 8.66586 42.33 8.52329 42.156 8.41127C41.9724 8.29926 41.7597 8.24834 41.5277 8.24834C41.0444 8.24834 40.677 8.42146 40.4257 8.77787C40.184 9.13429 40.0584 9.6129 40.0584 10.2035C40.0584 10.4887 40.0874 10.7432 40.155 10.9775C40.2227 11.2117 40.3097 11.4153 40.445 11.5885C40.5707 11.7616 40.7254 11.894 40.909 11.9958C41.0927 12.0976 41.2957 12.1485 41.5374 12.1485C41.808 12.1485 42.0207 12.0874 42.2044 11.9754C42.388 11.8634 42.533 11.7107 42.6587 11.5375C42.7747 11.3542 42.8617 11.1506 42.91 10.9164C42.9584 10.672 42.9874 10.4378 42.9874 10.1934ZM45.027 5.31555H46.187V6.46626H45.027V5.31555ZM45.027 7.42349H46.187V12.953H45.027V7.42349ZM47.2214 5.31555H48.3814V12.953H47.2214V5.31555ZM51.9194 13.1058C51.5037 13.1058 51.1267 13.0345 50.798 12.8817C50.4694 12.729 50.1987 12.5355 49.9667 12.2809C49.7444 12.0263 49.5704 11.7107 49.4544 11.3542C49.3384 10.9978 49.2707 10.6007 49.2707 10.1832C49.2707 9.76565 49.3287 9.37869 49.4544 9.02227C49.5704 8.66586 49.7444 8.36036 49.9667 8.09559C50.189 7.84101 50.4694 7.63734 50.798 7.49478C51.1267 7.35221 51.5037 7.27074 51.9194 7.27074C52.335 7.27074 52.7121 7.34203 53.0407 7.49478C53.3694 7.63734 53.64 7.84101 53.872 8.09559C54.0944 8.35017 54.2684 8.66586 54.3844 9.02227C54.5004 9.37869 54.5681 9.76565 54.5681 10.1832C54.5681 10.6109 54.51 10.9978 54.3844 11.3542C54.2587 11.7107 54.0944 12.0162 53.872 12.2809C53.6497 12.5355 53.3694 12.7392 53.0407 12.8817C52.7121 13.0243 52.3447 13.1058 51.9194 13.1058ZM51.9194 12.1384C52.1707 12.1384 52.4027 12.0773 52.5864 11.9652C52.7797 11.8532 52.9247 11.7005 53.0504 11.5172C53.176 11.3339 53.263 11.12 53.321 10.896C53.379 10.6618 53.4081 10.4276 53.4081 10.1832C53.4081 9.94895 53.379 9.71474 53.321 9.48052C53.263 9.2463 53.176 9.04264 53.0504 8.85934C52.9247 8.67604 52.7701 8.53347 52.5864 8.42146C52.393 8.30944 52.1707 8.24834 51.9194 8.24834C51.668 8.24834 51.4361 8.30944 51.2524 8.42146C51.059 8.53347 50.9141 8.68622 50.7884 8.85934C50.6627 9.04264 50.5757 9.2463 50.5177 9.48052C50.4597 9.71474 50.4307 9.94895 50.4307 10.1832C50.4307 10.4276 50.4597 10.6618 50.5177 10.896C50.5757 11.1302 50.6627 11.3339 50.7884 11.5172C50.9141 11.7005 51.0687 11.8532 51.2524 11.9652C51.4457 12.0874 51.668 12.1384 51.9194 12.1384ZM54.916 7.42349H55.7957V5.75343H56.9557V7.41331H57.9997V8.31962H56.9557V11.2728C56.9557 11.4052 56.9654 11.507 56.9751 11.6088C56.9847 11.7005 57.0137 11.7819 57.0427 11.843C57.0814 11.9041 57.1394 11.9551 57.207 11.9856C57.2844 12.0162 57.3811 12.0365 57.5164 12.0365C57.5937 12.0365 57.6807 12.0365 57.758 12.0263C57.8354 12.0162 57.9224 12.006 57.9997 11.9856V12.9327C57.8741 12.953 57.7484 12.9632 57.6227 12.9734C57.497 12.9938 57.3811 12.9938 57.2457 12.9938C56.9364 12.9938 56.6947 12.9632 56.511 12.9021C56.3274 12.841 56.1824 12.7494 56.076 12.6373C55.9697 12.5151 55.9021 12.3726 55.8634 12.1995C55.8247 12.0263 55.8054 11.8125 55.7957 11.5885V8.32981H54.916V7.40313V7.42349Z" fill="#091114"/>
<path d="M13.891 5.31568H8.584L6.95033 0L5.307 5.31568L0 5.3055L4.292 8.59471L2.64867 13.9104L6.94067 10.6212L11.2327 13.9104L9.599 8.59471L13.891 5.31568Z" fill="#00B67A"/>
<path d="M9.9662 9.79611L9.59886 8.59448L6.9502 10.621L9.9662 9.79611Z" fill="#005128"/>
<g clip-path="url(#clip0_957_16227)">
<path d="M66 0.504211H80.25V14.4967H66V0.504211ZM81.4375 0.504211H95.6875V14.4967H81.4375V0.504211ZM96.875 0.504211H111.125V14.4967H96.875V0.504211ZM112.312 0.504211H126.562V14.4967H112.312V0.504211ZM127.75 0.504211H142V14.4967H127.75V0.504211Z" fill="#00B67A"/>
<rect x="135.838" y="0.5" width="6.16217" height="14" fill="#DCE0E1"/>
<path d="M73.1252 9.93395L75.2924 9.39466L76.1979 12.1349L73.1252 9.93395ZM78.1127 6.39209H74.2979L73.1252 2.86481L71.9525 6.39209H68.1377L71.2252 8.57843L70.0525 12.1057L73.14 9.91938L75.04 8.57843L78.1127 6.39209ZM88.5627 9.93395L90.7299 9.39466L91.6354 12.1349L88.5627 9.93395ZM93.5502 6.39209H89.7354L88.5627 2.86481L87.39 6.39209H83.5752L86.6627 8.57843L85.49 12.1057L88.5775 9.91938L90.4775 8.57843L93.5502 6.39209ZM104 9.93395L106.167 9.39466L107.073 12.1349L104 9.93395ZM108.988 6.39209H105.173L104 2.86481L102.828 6.39209H99.0127L102.1 8.57843L100.928 12.1057L104.015 9.91938L105.915 8.57843L108.988 6.39209ZM119.438 9.93395L121.605 9.39466L122.51 12.1349L119.438 9.93395ZM124.425 6.39209H120.61L119.438 2.86481L118.265 6.39209H114.45L117.538 8.57843L116.365 12.1057L119.453 9.91938L121.353 8.57843L124.425 6.39209ZM134.875 9.93395L137.042 9.39466L137.948 12.1349L134.875 9.93395ZM139.863 6.39209H136.048L134.875 2.86481L133.703 6.39209H129.888L132.975 8.57843L131.803 12.1057L134.89 9.91938L136.79 8.57843L139.863 6.39209Z" fill="white"/>
</g>
<defs>
<clipPath id="clip0_957_16227">
<rect width="76" height="14" fill="white" transform="translate(66 0.5)"/>
</clipPath>
</defs>
</svg>
