<svg width="28" height="28" viewBox="0 0 28 28" fill="none" xmlns="http://www.w3.org/2000/svg">
<path fill-rule="evenodd" clip-rule="evenodd" d="M16.4501 9.33332C16.4501 7.97999 15.3534 6.88332 14.0001 6.88332C12.6467 6.88332 11.5501 7.97999 11.5501 9.33332C11.5501 10.6867 12.6467 11.7833 14.0001 11.7833C15.3534 11.7833 16.4501 10.6867 16.4501 9.33332ZM21.1167 19.8333C21.1167 19.0867 17.4651 17.3833 14.0001 17.3833C10.5351 17.3833 6.88341 19.0867 6.88341 19.8333V22.9833L4.66675 23.3333V19.8333C4.66675 16.73 10.8851 15.1667 14.0001 15.1667C17.1151 15.1667 23.3334 16.73 23.3334 19.8333V23.3333L21.1167 22.9833V19.8333ZM9.33341 9.33332C9.33341 6.75499 11.4217 4.66666 14.0001 4.66666C16.5784 4.66666 18.6667 6.75499 18.6667 9.33332C18.6667 11.9117 16.5784 14 14.0001 14C11.4217 14 9.33341 11.9117 9.33341 9.33332Z" fill="#171717"/>
</svg>
