<svg width="42" height="43" viewBox="0 0 42 43" fill="none" xmlns="http://www.w3.org/2000/svg">
<g clip-path="url(#clip0_6_1019)">
<g clip-path="url(#clip1_6_1019)">
<path d="M34.125 37.52H4.375C1.9635 37.52 0 35.5565 0 33.145V31.395C0 28.0175 2.7475 25.27 6.125 25.27H24.2375C24.7205 25.27 25.1125 25.662 25.1125 26.145C25.1125 26.628 24.7205 27.02 24.2375 27.02H6.125C3.7135 27.02 1.75 28.9835 1.75 31.395V33.145C1.75 34.5923 2.92775 35.77 4.375 35.77H34.125C35.5723 35.77 36.75 34.5923 36.75 33.145V31.395C36.75 30.2995 36.3423 29.2548 35.6003 28.4533C35.2713 28.098 35.294 27.545 35.6493 27.216C36.001 26.887 36.5575 26.908 36.8865 27.265C37.926 28.392 38.5 29.8585 38.5 31.395V33.145C38.5 35.5565 36.5365 37.52 34.125 37.52Z" fill="white"/>
<path d="M3.5 42.77C1.56975 42.77 0 41.2003 0 39.27V33.145C0 32.662 0.392 32.27 0.875 32.27C1.358 32.27 1.75 32.662 1.75 33.145V39.27C1.75 40.2343 2.53575 41.02 3.5 41.02C4.46425 41.02 5.25 40.2343 5.25 39.27V36.645C5.25 36.162 5.642 35.77 6.125 35.77C6.608 35.77 7 36.162 7 36.645V39.27C7 41.2003 5.43025 42.77 3.5 42.77Z" fill="white"/>
<path d="M35 42.77C33.0697 42.77 31.5 41.2003 31.5 39.27V36.645C31.5 36.162 31.892 35.77 32.375 35.77C32.858 35.77 33.25 36.162 33.25 36.645V39.27C33.25 40.2343 34.0357 41.02 35 41.02C35.9643 41.02 36.75 40.2343 36.75 39.27V33.145C36.75 32.662 37.142 32.27 37.625 32.27C38.108 32.27 38.5 32.662 38.5 33.145V39.27C38.5 41.2003 36.9303 42.77 35 42.77Z" fill="white"/>
<path d="M4.37519 27.02C4.26319 27.02 4.14944 26.999 4.03919 26.9518C3.59294 26.7663 3.38294 26.2535 3.56844 25.8073L7.05094 17.4598C7.73519 15.827 9.31544 14.77 11.0777 14.77H17.0102C17.4932 14.77 17.8852 15.162 17.8852 15.645C17.8852 16.128 17.4949 16.52 17.0102 16.52H11.0777C10.0382 16.52 9.07045 17.1693 8.66619 18.1353L5.18369 26.4828C5.04194 26.817 4.71644 27.02 4.37519 27.02Z" fill="white"/>
<path d="M11.375 32.27H6.125C5.642 32.27 5.25 31.878 5.25 31.395C5.25 30.912 5.642 30.52 6.125 30.52H11.375C11.858 30.52 12.25 30.912 12.25 31.395C12.25 31.878 11.858 32.27 11.375 32.27Z" fill="white"/>
<path d="M32.375 32.27H27.125C26.642 32.27 26.25 31.878 26.25 31.395C26.25 30.912 26.642 30.52 27.125 30.52H32.375C32.858 30.52 33.25 30.912 33.25 31.395C33.25 31.878 32.858 32.27 32.375 32.27Z" fill="white"/>
<path d="M31.5 25.27C31.3845 25.27 31.269 25.2472 31.1605 25.2C30.744 25.0267 21 20.8145 21 12.208V4.89472C21 4.52022 21.2398 4.18597 21.595 4.06522L31.22 0.815469C31.402 0.754219 31.598 0.754219 31.78 0.815469L41.405 4.06522C41.7603 4.18597 42 4.52022 42 4.89472V12.208C42 20.8145 32.256 25.0267 31.8395 25.2017C31.731 25.2472 31.6155 25.27 31.5 25.27ZM22.75 5.52297V12.208C22.75 18.8317 29.8462 22.6345 31.5 23.4325C33.152 22.6327 40.25 18.816 40.25 12.208V5.52297L31.5 2.56897L22.75 5.52297Z" fill="white"/>
<path d="M30.6249 16.52C30.6091 16.52 30.5916 16.52 30.5759 16.5182C30.3274 16.5042 30.0964 16.3852 29.9406 16.191L26.4406 11.816C26.1396 11.438 26.2009 10.8885 26.5771 10.5857C26.9551 10.283 27.5046 10.346 27.8074 10.7222L30.6966 14.3342L36.1304 8.90047C36.4716 8.55922 37.0264 8.55922 37.3676 8.90047C37.7089 9.24172 37.7089 9.79647 37.3676 10.1377L31.2426 16.2627C31.0799 16.429 30.8559 16.52 30.6249 16.52Z" fill="white"/>
</g>
</g>
<defs>
<clipPath id="clip0_6_1019">
<rect width="42" height="42" fill="white" transform="translate(0 0.77002)"/>
</clipPath>
<clipPath id="clip1_6_1019">
<rect width="42" height="42" fill="white" transform="translate(0 0.77002)"/>
</clipPath>
</defs>
</svg>
