<svg width="14" height="14" viewBox="0 0 14 14" fill="none" xmlns="http://www.w3.org/2000/svg">
<circle cx="7" cy="7" r="7" fill="#526EFF"/>
<path fill-rule="evenodd" clip-rule="evenodd" d="M9.7616 5.14029C9.63973 5.03948 9.48147 4.98967 9.32164 5.00179C9.16181 5.01392 9.0135 5.08699 8.90935 5.20494L6.30678 8.15121L4.90644 7.01981C4.67224 6.83072 4.32403 6.86088 4.12826 7.08722C4.03445 7.19585 3.98911 7.33612 4.00222 7.47712C4.01534 7.61812 4.08583 7.74829 4.19818 7.83897L6.07462 9.35502C6.19166 9.44944 6.34401 9.49251 6.49517 9.47393C6.65526 9.46201 6.80385 9.38887 6.90809 9.2707L9.82841 5.96459C10.0453 5.71904 10.0153 5.34988 9.7616 5.14003" fill="white"/>
</svg>
