<svg width="18" height="15" viewBox="0 0 18 15" fill="none" xmlns="http://www.w3.org/2000/svg">
<path d="M6.26189 0.625C6.03876 0.6252 5.8327 0.744294 5.72114 0.9375L3.01489 5.625H0.883576C0.531264 5.62 0.244639 5.90759 0.250076 6.25611C0.256326 6.60463 0.538889 6.87972 0.883576 6.875H17.1161C17.9613 6.88694 17.9613 5.61304 17.1161 5.625H14.9861L12.2798 0.9375C12.168 0.743907 11.9614 0.62475 11.7378 0.625H6.26189Z" fill="#555555"/>
<path d="M4.625 8.125C2.9065 8.125 1.5 9.53151 1.5 11.25C1.5 12.9685 2.9065 14.375 4.625 14.375C5.95231 14.375 7.08563 13.5323 7.53638 12.3584C7.96219 12.0495 8.47131 11.875 9 11.875C9.52856 11.875 10.0377 12.0506 10.4636 12.3596C10.9146 13.5329 12.048 14.375 13.375 14.375C15.0934 14.375 16.5 12.9685 16.5 11.25C16.5 9.53151 15.0934 8.125 13.375 8.125C11.7915 8.125 10.4754 9.31995 10.2781 10.852C9.87094 10.7042 9.43937 10.625 9 10.625C8.56069 10.625 8.12894 10.7042 7.72188 10.852C7.5245 9.31995 6.20844 8.125 4.625 8.125ZM4.625 9.375C5.66794 9.375 6.5 10.2071 6.5 11.25C6.5 12.2929 5.66794 13.125 4.625 13.125C3.58206 13.125 2.75 12.2929 2.75 11.25C2.75 10.2071 3.58206 9.375 4.625 9.375ZM13.375 9.375C14.4179 9.375 15.25 10.2071 15.25 11.25C15.25 12.2929 14.4179 13.125 13.375 13.125C12.3321 13.125 11.5 12.2929 11.5 11.25C11.5 10.2071 12.3321 9.375 13.375 9.375Z" fill="#555555"/>
</svg>
