<svg width="672" height="35" viewBox="0 0 672 35" fill="none" xmlns="http://www.w3.org/2000/svg">
<g clip-path="url(#clip0_1_385)">
<path fill-rule="evenodd" clip-rule="evenodd" d="M13.5121 8.37495C6.23287 8.37495 0.307312 12.5862 0.307312 17.7655C0.307312 22.9412 6.23096 27.4829 13.5121 27.4829C20.7932 27.4829 26.7149 22.9412 26.7149 17.7655C26.7168 12.5862 20.7932 8.37495 13.5121 8.37495ZM63.7439 22.5536L63.6143 22.5858C63.4427 22.6305 63.2234 22.6537 62.926 22.6537C62.1824 22.6537 61.8373 22.3394 61.8373 21.6607V17.3976H63.6753L63.7115 15.4366H61.8393V12.5415H59.3741V15.4366H58.0853V17.3976H59.3741V22.0143C59.3741 23.8431 60.3922 24.7361 62.4951 24.7361C63.1738 24.7361 63.5895 24.6629 63.9574 24.5879L64.0699 24.5682L63.7439 22.5536ZM28.1696 24.5807L36.1638 12.5434H40.0951V24.5825H37.5155L37.5136 21.482H32.9264C32.8578 21.5839 30.8864 24.5807 30.8864 24.5807H28.1696ZM91.0517 24.5807C90.4417 24.5807 90.0142 24.1825 90.0142 23.5895C90.0142 22.9984 90.4467 22.593 91.0517 22.593C91.6633 22.593 92.0883 22.9948 92.0883 23.5895C92.0867 24.1806 91.6542 24.5807 91.0517 24.5807ZM91.0517 22.709C90.5575 22.709 90.165 23.0251 90.165 23.5895C90.165 24.1485 90.5575 24.4646 91.0517 24.4646C91.5492 24.4646 91.9417 24.1485 91.9417 23.5895C91.9417 23.0251 91.545 22.709 91.0517 22.709ZM91.0075 23.6502L91.3583 24.12L91.5608 24.077L91.2208 23.6288C91.3675 23.586 91.4592 23.4824 91.4592 23.3252C91.4592 23.1198 91.2958 23.0055 91.0475 23.0055H90.6908V24.1039H90.8933V23.6502H91.0075ZM91.0458 23.1752H90.8933V23.5002H91.0383C91.17 23.5002 91.2533 23.4502 91.2533 23.3377C91.2517 23.2305 91.1792 23.1752 91.0458 23.1752ZM37.5098 19.3496H34.3563C34.5528 19.0567 37.5098 14.5561 37.5098 14.5561V19.3496ZM44.4325 12.5434H41.9253V24.5825H44.4325V12.5434ZM46.257 12.5434H48.7603V24.5825H46.257V12.5434ZM52.6649 17.844C52.6287 18.3763 52.9147 18.562 54.2779 18.896C56.5505 19.4443 57.6239 19.9194 57.662 21.9143C57.6734 22.7108 57.4275 23.352 56.9299 23.827C56.2912 24.4325 55.2578 24.7432 53.8584 24.7432C52.4152 24.7432 51.0444 24.3092 50.2437 23.8967L50.1693 23.8574L50.5163 21.841L50.665 21.934C51.6945 22.5644 52.8804 22.927 53.9328 22.927C54.9376 22.927 55.3169 22.7019 55.3246 22.109C55.336 21.4481 55.0348 21.2445 53.5553 20.9035C51.317 20.364 50.3733 19.839 50.3294 17.9834C50.3161 17.2958 50.5716 16.6779 51.0692 16.1992C51.6964 15.5991 52.6707 15.2687 53.8146 15.2687C55.0043 15.2687 56.1234 15.4813 57.0577 15.8813L57.1396 15.917L56.7945 17.9262L56.6515 17.8495C55.7403 17.3708 54.6802 17.085 53.8146 17.085C53.113 17.085 52.6936 17.3619 52.6649 17.844ZM65.4083 15.9492C66.3444 15.6045 67.5208 15.249 69.0803 15.249C71.576 15.249 72.7352 16.226 72.7409 18.3155V24.5825H70.5751C70.5751 24.5825 70.4473 23.8413 70.3997 23.5752C69.5265 24.37 68.5808 24.7593 67.4407 24.7593C65.7934 24.7593 64.7315 23.7699 64.7315 22.234C64.7315 20.1551 66.5332 18.9728 70.2357 18.6156V18.3799C70.2357 17.5548 69.7705 17.1725 68.7829 17.1725C67.8563 17.1725 66.9049 17.3905 65.782 17.8548L65.6409 17.912L65.3187 15.9813L65.4083 15.9492ZM68.2128 22.927C67.5952 22.927 67.2138 22.5733 67.2138 22.0035C67.2138 20.991 68.2567 20.3284 70.2319 20.0801V22.0625C69.6199 22.6251 68.924 22.927 68.2128 22.927ZM79.0383 22.5858L79.166 22.5536L79.4901 24.5682L79.3795 24.5879C79.0287 24.6611 78.594 24.7361 77.9172 24.7361C75.8143 24.7361 74.7886 23.8431 74.7886 22.0143V17.3976H73.5073V15.4366H74.7886V12.5415H77.2575V15.4366H79.1336L79.1012 17.3976H77.2594V21.6607C77.2594 22.3394 77.6083 22.6537 78.3538 22.6537C78.6455 22.6537 78.8667 22.6305 79.0383 22.5858ZM87.7608 21.8482C86.64 22.5769 85.7225 22.8912 84.6858 22.8912C83.3392 22.8912 82.5042 22.0375 82.3613 20.5534H88.2033L88.2275 19.9283C88.2275 16.8296 86.8533 15.2545 84.1367 15.249C82.9425 15.2455 81.9648 15.5974 81.2288 16.2885C80.3308 17.1244 79.8581 18.4245 79.8581 20.0355C79.8581 22.952 81.6178 24.7593 84.4392 24.7593C85.8175 24.7593 87.0683 24.3985 88.1575 23.6966L88.2183 23.6591L87.9133 21.7464L87.7608 21.8482ZM84.0808 16.9404C83.1183 16.9404 82.5083 17.694 82.3957 19.005H85.7725C85.7208 18.0352 85.3775 16.9404 84.0808 16.9404ZM2.08231 17.7762C2.08231 22.6055 7.21093 26.8417 13.514 26.8417C19.8189 26.8417 24.9457 22.6055 24.9457 17.7762C24.9457 12.9452 19.8189 9.01612 13.514 9.01612C7.21093 9.01612 2.08231 12.9452 2.08231 17.7762Z" fill="#151515"/>
<path fill-rule="evenodd" clip-rule="evenodd" d="M8.94275 10.3457C8.9775 10.3785 9.0895 10.484 9.0895 10.4858L9.63033 10.9517C9.63033 10.9553 9.93933 11.2265 9.93933 11.2265C10.1673 11.4321 10.2213 11.5376 10.2136 11.5795C10.205 11.6153 10.1701 11.6336 10.1338 11.6527L10.1209 11.6595C10.0803 11.6814 10.0166 11.696 10.0166 11.696L9.9915 11.8889L10.119 11.8834C10.8317 11.867 11.5018 12.322 11.9364 12.7078C12.6897 13.3848 13.2594 14.4821 13.385 15.5066L13.9741 18.3929L14.1962 18.8369L14.2387 18.9279L14.3353 19.1171C14.4183 19.3046 14.5478 19.472 14.5593 19.483C14.5728 19.4957 14.8645 19.714 14.8645 19.714L15.2894 20.1235L15.4149 20.2509L15.6178 20.442C15.6332 20.4529 16.2338 20.5257 16.2338 20.5257C17.2788 20.6895 17.2324 21.2354 17.2324 21.2354C17.2324 21.2354 17.8543 20.3365 16.371 20.0216C16.371 20.0216 15.9036 19.9379 15.8939 19.9379V19.936C15.8939 19.9251 15.7278 19.7122 15.7278 19.7122L15.6718 19.654C15.6622 19.643 15.2198 19.2318 15.2198 19.2318L15.0171 19.0498C15.0171 19.0462 14.8317 18.5821 14.8317 18.5821L14.569 17.9834C14.503 17.804 14.4609 17.5188 14.4033 17.1278L14.399 17.099C14.3952 17.0826 14.3527 16.806 14.3527 16.806L14.1576 15.5958C14.1595 15.5758 14.202 15.3592 14.202 15.3592C14.287 14.9061 14.4666 14.4039 14.7389 13.8652C15.0653 13.2191 15.7375 12.7933 15.7472 12.7897C16.2493 12.4967 16.9852 12.3347 17.3811 12.2638C17.5318 12.2492 17.5801 12.1655 17.6071 12.0818L17.6245 12.0326L17.5743 12.0254C17.356 11.9871 17.103 11.918 17.0837 11.8798C17.0798 11.8725 17.0759 11.8561 17.0759 11.8434C17.0759 11.807 17.1049 11.7487 17.1571 11.6741C17.159 11.6741 17.4796 11.383 17.4796 11.383L17.667 11.2083C17.667 11.2083 18.4511 10.493 18.5554 10.3985L17.8273 10.1673C17.7307 10.2601 17.0218 10.9535 17.0218 10.9535L16.9978 10.9778C16.4708 11.5104 15.884 12.1034 15.6119 12.2091C14.9359 12.4694 14.2426 13.0918 13.9683 13.6886C13.9683 13.6905 13.8486 13.9835 13.7828 14.1436C13.5782 13.5868 13.3213 13.1264 12.9717 12.7241C12.5893 12.2929 12.1218 11.969 11.5405 11.747C11.2257 11.4649 10.1885 10.5713 9.62642 10.1364L8.94275 10.3457ZM13.3271 18.3746C13.3271 18.3746 13.4816 18.644 13.4004 18.9188L14.4241 20.4747L14.8181 20.6367L14.9418 20.7059L15.4208 20.9861C15.4208 20.9861 15.7877 21.219 15.7877 21.2245L16.4695 21.3136C17.0258 21.3737 17.215 21.552 17.3522 21.7377C17.7191 22.2745 17.1609 22.7713 17.1609 22.7713C17.1609 22.7713 17.385 22.3473 16.9678 22.0635C16.848 21.9834 16.6163 21.8432 16.2184 21.8123L15.5578 21.7722L15.525 21.7631L15.0828 21.4847L14.5998 21.2135L14.4415 21.1299C14.4415 21.1299 14.0204 20.906 13.9934 20.8805L13.7887 20.6203C13.7887 20.6203 13.7249 20.5275 13.7249 20.5257L12.653 19.0807L12.7341 19.0389C13.0064 18.8733 13.1822 18.7004 13.2478 18.5494L13.3271 18.3746ZM12.8018 21.9742L12.8713 22.058C12.9003 22.0816 13.3328 22.2435 13.3328 22.2435C13.6226 22.3546 14.0185 22.5256 14.202 22.6312L14.6907 22.9024C14.7063 22.9083 14.7984 22.906 14.9245 22.9031C15.1094 22.8987 15.3673 22.8926 15.5637 22.9078C15.9789 22.9387 16.3014 23.0861 16.4695 23.3155C16.6955 23.6175 16.4212 23.9415 16.4212 23.9415C16.4811 23.9124 16.9504 23.6321 16.9176 23.1845C16.8867 22.755 16.4927 22.3528 15.0306 22.3691C15.0306 22.3655 14.6288 22.1453 14.6288 22.1453L14.511 22.0798L13.8621 21.7668C13.8621 21.7668 13.3348 21.5975 13.3328 21.5975C13.3328 21.5794 13.2093 21.3792 13.2093 21.3792C13.0521 21.113 12.8401 20.8499 12.6484 20.612L12.5951 20.5457L12.5313 20.4729C12.5313 20.4729 12.1721 20.0052 12.1296 19.947C12.2435 19.7159 12.1469 19.3829 12.1469 19.3829C12.1469 19.3829 12.0871 19.4939 11.9867 19.6121C11.8863 19.7322 11.6216 19.9306 11.4362 20.0252L11.3377 20.0853L12.6646 21.7923L12.8018 21.9742ZM11.1213 22.6913L11.3512 22.9115C11.3512 22.9133 11.8148 23.1553 11.8148 23.1553L12.2532 23.381L12.3092 23.41L12.6318 23.5793L13.1764 23.8595C13.2093 23.8686 13.2749 23.8686 13.2749 23.8686L13.9741 23.8268C14.3758 23.8195 14.8433 23.8268 15.1581 23.9615C15.5038 24.1289 15.3859 24.431 15.3859 24.431C15.3859 24.431 15.7433 24.1908 15.6757 23.905C15.6409 23.663 15.3318 23.3445 14.3121 23.2881C13.9915 23.27 13.5086 23.3118 13.5086 23.3118H13.4642C13.4642 23.3045 13.0064 23.0279 13.0064 23.0279L12.8153 22.9242C12.7882 22.9133 12.1818 22.6112 12.1818 22.6112C12.1818 22.6112 11.7973 22.4692 11.7954 22.4674C11.7954 22.4565 11.4517 22.0034 11.4517 22.0034L11.3261 21.836L10.9592 21.3373L10.8027 21.1208C10.793 21.108 10.5922 20.815 10.5922 20.815C10.6095 20.8187 10.8008 20.542 10.7795 20.2472C10.7594 20.277 10.7436 20.2897 10.6779 20.3421C10.6553 20.3602 10.6268 20.383 10.5903 20.4129C10.4453 20.5239 10.0166 20.7059 9.72883 20.7768L9.59942 20.8095L10.6231 22.0761L11.1213 22.6913ZM11.7104 24.9132C10.7583 25.37 10.231 24.9733 10.4628 24.4929C10.7738 24.6894 11.2547 24.8331 11.7104 24.9132ZM10.0765 24.2308C9.4275 24.3982 9.188 23.9688 9.34058 23.6194C9.46425 23.754 9.92192 24.1416 10.0765 24.2308ZM4.42126 13.412C4.42126 13.412 4.29379 13.3247 4.24358 13.292L4.76698 12.7679C4.79789 12.7842 5.41788 13.1318 5.41788 13.1318C5.65158 13.2173 5.96061 13.1245 6.23101 13.0062L6.29668 12.9771C6.66558 12.806 7.03255 12.7679 7.03255 12.7679L7.22183 12.8425L7.07697 12.9444C6.75249 13.1791 6.48403 13.4339 6.28508 13.7014C6.28508 13.7014 6.25612 13.7578 6.25418 13.7578L6.08422 14.14L5.87948 14.6405C5.54149 15.4411 5.25178 16.1326 5.19577 17.0135C5.19577 17.0135 5.20735 17.1281 5.20735 17.1299L5.30972 17.5794C5.49707 18.4075 5.68828 19.2664 5.84086 20.4256C5.84086 20.4256 5.86018 20.4947 5.86018 20.4965C6.64626 21.381 6.98619 22.047 7.38986 22.8405C7.38986 22.8405 7.53083 23.117 7.53475 23.1244C7.55208 23.1808 7.612 23.35 7.68925 23.3645C7.71817 23.3664 7.77425 23.3536 7.8785 23.2517C8.39225 22.7113 8.43092 21.7959 7.9635 21.2045C7.9635 21.2045 7.7375 21.0334 7.74142 21.0352L7.71433 21.0225L7.68925 20.9806L7.695 20.9515C7.80125 20.4347 7.7935 19.5157 7.32998 19.2427L7.21603 19.1754C7.21603 19.1754 7.38986 19.0644 7.38986 19.0625L7.39733 19.0576C7.99025 18.6664 8.87667 18.0815 8.78242 17.1809L8.767 17.0335L9.00258 17.1372C9.00258 17.1372 9.14942 17.523 9.15517 17.776C9.16292 18.311 8.85192 18.7769 8.23583 19.23C8.36334 19.4247 8.43092 19.7741 8.43092 20.1199C8.43092 20.3746 8.39417 20.6149 8.33242 20.7877C8.3865 20.8278 8.57 20.9752 8.709 21.2063C8.85583 21.4538 8.93883 21.7468 8.94658 22.0343L9.17833 22.32L9.18317 22.326C10.0082 23.3515 10.3179 23.7366 11.328 24.1435C12.2397 24.5074 13.9606 24.7767 14.8278 24.5711L14.9263 24.5493L14.878 24.6311C14.878 24.6311 14.7544 24.8059 14.737 24.8205C14.3333 25.0225 13.3618 25.1389 12.342 25.0297C12.3188 25.0534 12.2397 25.1335 12.2397 25.1335C12.203 25.1771 12.1856 25.2262 12.1856 25.2717C12.1856 25.2725 12.1855 25.2741 12.1853 25.2764C12.1825 25.3204 12.1626 25.625 12.539 25.6648C13.6168 25.7649 15.2739 25.4755 16.1315 25.057C16.9176 24.6766 17.2478 24.2508 17.7172 23.6412L17.7635 23.5775C17.7635 23.5775 17.9992 23.2809 18.005 23.29C18.005 23.2863 17.9895 22.9005 17.9895 22.9005C18.0166 22.5384 18.1537 22.027 18.6482 21.6249C18.6308 21.5302 18.623 21.4155 18.623 21.2809C18.623 20.8441 18.7099 20.2764 18.9069 20.0435L18.8876 20.0216C18.4338 19.5302 18.1248 18.9861 17.9779 18.3965C17.9316 18.2255 17.8196 17.7468 17.8196 17.199C17.8196 16.9952 17.8369 16.7841 17.8794 16.5767C17.8794 16.5767 17.9413 16.4857 17.9606 16.4711L18.1248 16.4056L18.1305 16.5458C18.1749 17.6121 18.6926 19.0407 19.751 19.8141L19.8437 19.8815L19.749 19.947C19.3782 20.1926 19.2102 21.057 19.3145 21.6212C19.328 21.6685 19.3512 21.7504 19.2893 21.794C18.9108 22.0725 18.6848 22.5147 18.6636 23.0097C18.6482 23.4155 18.7775 23.7977 18.9938 23.9815C19.0479 24.0288 19.1483 24.1161 19.1889 24.1089C19.2005 24.107 19.2295 24.0961 19.2701 24.0179C19.5308 23.421 20.1431 22.4201 21.0064 21.572L21.0258 21.5193C21.1136 21.0928 21.4949 20.0775 21.8119 19.2338L21.8427 19.1517C21.8427 19.1517 22.1537 18.3255 22.1556 18.3219C22.1556 18.3219 22.1653 18.2582 22.1653 18.2491C22.1595 17.6176 22.0455 16.8788 21.8195 15.9816L21.553 15.1008L21.4835 14.9225L21.4603 14.857L21.3328 14.5476L21.3135 14.504L21.2169 14.291C21.2169 14.291 21.1184 14.1181 21.1146 14.1109L21.0984 14.0817C20.9368 13.7889 20.8154 13.5692 20.5873 13.3138L20.4733 13.19L20.5468 13.1736C20.5468 13.1736 20.6568 13.15 20.6703 13.15C20.6703 13.15 20.7727 13.1627 20.7843 13.1645C20.7843 13.1645 20.8442 13.19 20.8635 13.2028C20.8635 13.2028 21.1976 13.3811 21.2343 13.3939C21.4873 13.4885 21.8929 13.3848 22.2947 13.1264C22.2947 13.1264 22.6462 12.897 22.6809 12.8752L23.2333 13.4448C23.2237 13.4485 23.1986 13.463 23.1986 13.463C22.7486 13.7487 22.1884 14.1054 21.9953 14.3747L22.1383 14.6204C22.1446 14.6316 22.1509 14.6429 22.1573 14.6541C22.2753 14.8621 22.3998 15.0817 22.5226 15.4339C22.7872 16.1655 22.9263 17.0316 22.9263 17.9379C22.9263 18.1363 22.9185 18.3383 22.905 18.5403C22.905 18.5403 22.8663 18.6585 22.8663 18.6622L22.6674 19.1681C22.642 19.2321 22.6145 19.301 22.5855 19.3739C22.295 20.1027 21.8485 21.2231 21.7133 21.7013C21.7133 21.7013 21.6496 21.8177 21.6496 21.8195C20.9736 22.5602 20.1103 23.6666 19.7143 24.5638C19.6332 24.7313 19.5115 24.8205 19.357 24.8477C19.1388 24.8841 18.8722 24.7676 18.5883 24.5056C18.4763 24.3928 18.3778 24.2454 18.2831 24.087C18.2663 24.109 18.2455 24.1339 18.228 24.1549C18.2093 24.1773 18.1943 24.1951 18.1923 24.1999C17.9065 24.582 17.4217 25.1261 16.5313 25.5538C16.1103 25.7595 15.0615 26.0925 13.9065 26.1816C13.1378 26.2471 12.6684 26.2125 12.3228 26.147C11.9751 26.0852 11.61 25.9578 11.4999 25.5247C10.6482 25.8814 9.74233 25.3445 9.98758 24.6766C9.56467 24.8331 8.36908 24.4255 9.04508 23.3227C9.03308 23.3098 8.99367 23.262 8.94808 23.207C8.89109 23.1379 8.8245 23.0573 8.79017 23.0188C8.61442 23.4392 8.3305 23.7868 7.92875 24.0343C7.751 24.1235 7.47871 24.118 7.33578 24.0343C7.22376 23.967 7.12912 23.8268 7.05379 23.6194C7.04663 23.6092 7.03947 23.5963 7.02957 23.5785C7.02345 23.5675 7.01629 23.5545 7.00744 23.5393C6.22328 22.0289 5.57433 21.2372 5.17645 20.8478C5.11271 20.8114 5.07215 20.7168 5.0567 20.5603C4.98717 20.0089 4.82107 19.2409 4.67428 18.5657L4.65497 18.4711C4.65497 18.4711 4.39423 17.1863 4.39229 17.1736L4.3865 17.0808C4.40388 16.5075 4.70904 15.7815 5.01228 15.0608C5.01228 15.0608 5.34448 14.1964 5.3638 14.1473C5.24405 14.0526 4.43864 13.423 4.42126 13.412Z" fill="#151515"/>
</g>
<g clip-path="url(#clip1_1_385)">
<mask id="mask0_1_385" style="mask-type:luminance" maskUnits="userSpaceOnUse" x="132" y="11" width="102" height="14">
<path d="M233.964 11.9939H132.862V24.0604H233.964V11.9939Z" fill="white"/>
</mask>
<g mask="url(#mask0_1_385)">
<path d="M181.968 18.5407C183.046 18.4275 183.819 17.9153 184.254 17.006C184.611 16.2653 185.161 15.0655 185.165 15.0522C185.711 13.9168 185.544 13.2226 185.306 12.8345C184.95 12.2601 184.252 12.0561 183.722 12.0561H178.32L172.728 24.0317H175.536L177.677 19.3279H179.182C179.308 19.3355 179.43 19.3711 179.541 19.4321C179.651 19.493 179.747 19.5779 179.821 19.6805C180.001 19.9822 179.953 20.4434 179.669 21.051C178.991 22.517 178.452 24.0361 178.452 24.0361H181.299C181.378 23.6401 181.494 23.2525 181.645 22.8785C181.865 22.3551 182.525 20.7006 182.525 20.6851C183.068 19.3435 182.395 18.8068 181.968 18.5407ZM181.671 16.5647C181.433 17.0703 181.068 17.3276 180.582 17.3276H178.623L180.109 14.0676H182.252C182.309 14.0702 182.364 14.0855 182.415 14.1124C182.465 14.1392 182.508 14.1769 182.542 14.2228C182.628 14.3647 182.597 14.602 182.454 14.9103L181.964 15.9482L181.671 16.5647Z" fill="#151515"/>
<path d="M151.998 18.5403C153.076 18.425 153.844 17.9127 154.284 17.0035C154.641 16.2628 155.191 15.063 155.198 15.0497C155.743 13.9142 155.576 13.2201 155.338 12.832C154.982 12.2665 154.284 12.0625 153.752 12.0625H148.343L142.752 24.038H145.566L147.707 19.3343H149.215C149.34 19.3419 149.463 19.3775 149.573 19.4384C149.683 19.4994 149.779 19.5842 149.853 19.6869C150.035 19.9885 149.985 20.4497 149.701 21.0575C149.023 22.5233 148.484 24.0424 148.484 24.0424H151.331C151.409 23.6464 151.524 23.2589 151.675 22.8848C151.895 22.3614 152.555 20.7071 152.555 20.6915C153.101 19.3432 152.425 18.8065 151.998 18.5403ZM151.701 16.5622C151.463 17.07 151.098 17.3162 150.614 17.3162H148.656L150.183 14.0562H152.282C152.339 14.0588 152.394 14.0741 152.445 14.101C152.495 14.1278 152.538 14.1655 152.573 14.2114C152.658 14.3533 152.627 14.5906 152.484 14.8989L151.994 15.9368L151.701 16.5622Z" fill="#151515"/>
<path d="M165.183 15.041C166.167 12.9165 165.053 11.9939 163.636 11.9939H160.226C158.791 11.9939 157.779 12.6769 157.127 14.0807C156.778 14.8348 156.194 16.0767 155.519 17.4938L154.093 20.5232C152.66 23.5614 154.804 24.0715 155.853 24.0715H158.008C160.166 24.0936 161.229 23.4794 162.063 21.7274C162.622 20.5564 163.396 18.8843 164.219 17.1123L165.183 15.041ZM162.382 14.7039L159.521 20.8447C159.123 21.6918 158.861 21.8361 158.243 21.8361H157.006C156.786 21.8361 156.346 21.7762 156.676 21.051C157.156 20.0086 159.167 15.6398 159.579 14.7616C159.858 14.1628 160.149 14.043 160.527 14.043H162.067C162.36 14.0297 162.622 14.1916 162.382 14.7039Z" fill="#151515"/>
<path d="M169.861 17.3895L168.929 19.3854H170.407L169.575 21.1972C169.333 21.7229 169.168 21.8293 168.598 21.8293H167.129C166.688 21.8293 166.534 21.6075 166.799 21.0443C167.133 20.3301 169.774 14.7726 169.774 14.7726C170.073 14.1406 170.251 14.0452 170.713 14.0452H172.231C172.599 14.0452 172.797 14.216 172.55 14.7105C172.495 14.8192 171.89 16.152 171.89 16.152L174.568 16.172L175.178 14.8524C176.069 12.9231 175.272 12.0205 173.428 11.9938H170.519C169.827 11.9756 169.144 12.1639 168.557 12.5351C167.969 12.9064 167.504 13.444 167.219 14.0807C166.688 15.2184 164.187 20.5231 164.187 20.5231C163.271 22.4636 163.801 24.0714 166.306 24.0714H168.541C170.328 24.0891 171.206 23.8075 172.022 22.0067L174.106 17.405L169.861 17.3895Z" fill="#151515"/>
<path d="M210.226 12.0248L204.628 24.0181H207.513L213.146 12.0248H210.226Z" fill="#151515"/>
<path d="M220.299 12.0273L213.765 22.5924L217.07 12.0273H214.044L211.272 24.0184H215.175L223.333 12.0273H220.299Z" fill="#151515"/>
<path d="M197.952 19.8577L197.71 15.4223C197.682 14.8878 197.811 14.1627 198.782 14.1627H200.731L201.733 12.0248H198.41C195.769 12.0248 194.889 13.6459 194.984 15.5509C195.046 16.7152 195.204 20.503 195.204 20.503C195.244 21.4168 194.896 21.8336 194.049 21.8336H191.826L190.829 24.0092H194.372C196.722 24.0225 198.106 22.4768 197.952 19.8577Z" fill="#151515"/>
<path d="M204.354 15.427C204.325 14.8925 204.455 14.1673 205.425 14.1673H207.375L208.376 12.0294H205.053C202.871 12.0294 201.502 13.2314 201.627 15.5556C201.691 16.7199 201.847 20.5077 201.847 20.5077C201.889 21.4214 201.541 21.8383 200.692 21.8383H198.527L197.53 24.0139H201.016C203.599 24.0139 204.73 22.151 204.593 19.849L204.354 15.427Z" fill="#151515"/>
<path d="M188.046 18.6582H191.657L192.583 16.6622H188.959L190.112 14.174H193.853L194.834 12.0472H188.317L182.756 24.0227H189.797L190.812 21.8517H186.541L188.046 18.6582Z" fill="#151515"/>
<path d="M218.731 24.0206H225.772L226.796 21.8517H222.516L224.021 18.6582H227.632L228.559 16.6622H224.934L226.087 14.174H229.828L230.807 12.0472H224.292L218.731 24.0206Z" fill="#151515"/>
<path d="M144.317 17.7885C144.552 17.2984 145.019 16.2827 145.549 15.1029C146.48 13.0272 145.329 12.0669 144.108 12.0625H138.765L133.22 24.0558H136.102L138.039 19.8554C138.039 19.8554 139.667 19.8554 140.847 19.8554C142.644 19.8687 143.584 19.3121 144.317 17.7885ZM142.829 15.0076C142.31 16.1164 141.914 16.9458 141.87 17.0367C141.637 17.5379 141.302 17.7597 140.798 17.7597H138.989L140.699 14.0273H142.512C142.911 14.0295 143.194 14.2314 142.829 15.0076Z" fill="#151515"/>
<path d="M233.137 12.8608C233.139 12.8144 233.13 12.7683 233.108 12.727C233.087 12.6858 233.055 12.6509 233.016 12.6257C232.935 12.5841 232.844 12.5657 232.753 12.5725H232.281V13.6636H232.414V13.1602H232.655L232.966 13.6636H233.122L232.796 13.1602C232.987 13.1558 233.137 13.0759 233.137 12.8608ZM232.62 13.056H232.418V12.659H232.728C232.863 12.659 233.01 12.679 233.01 12.8475C233.003 13.0804 232.767 13.056 232.62 13.056Z" fill="#151515"/>
<path d="M232.642 12.1424C232.451 12.142 232.263 12.1989 232.103 12.306C231.944 12.413 231.82 12.5654 231.746 12.7438C231.673 12.9222 231.654 13.1185 231.691 13.308C231.728 13.4975 231.82 13.6716 231.955 13.8082C232.091 13.9448 232.264 14.0378 232.452 14.0754C232.64 14.1129 232.835 14.0934 233.012 14.0193C233.188 13.9452 233.34 13.8198 233.446 13.659C233.552 13.4981 233.609 13.3092 233.608 13.116C233.608 12.858 233.506 12.6107 233.325 12.4282C233.143 12.2458 232.898 12.143 232.642 12.1424ZM232.642 13.9765C232.474 13.9752 232.311 13.9237 232.171 13.8286C232.032 13.7335 231.924 13.599 231.861 13.4421C231.797 13.2851 231.781 13.1128 231.815 12.9467C231.849 12.7807 231.93 12.6284 232.049 12.509C232.168 12.3897 232.32 12.3086 232.486 12.276C232.65 12.2434 232.821 12.2608 232.976 12.326C233.131 12.3911 233.264 12.5011 233.357 12.6421C233.451 12.7831 233.5 12.9488 233.5 13.1182C233.5 13.2317 233.479 13.3441 233.435 13.4489C233.393 13.5537 233.33 13.6489 233.25 13.7289C233.169 13.8089 233.075 13.8722 232.971 13.9151C232.867 13.9579 232.755 13.9796 232.642 13.9787V13.9765Z" fill="#151515"/>
</g>
</g>
<g clip-path="url(#clip2_1_385)">
<path fill-rule="evenodd" clip-rule="evenodd" d="M289.857 17.1304C290.322 17.0453 290.811 16.9984 291.318 16.9984C294.44 16.9984 296.959 18.7221 296.959 20.8857C296.959 23.0484 294.429 24.804 291.305 24.804C288.645 24.804 286.454 23.5332 285.863 21.8209C285.256 23.5332 283.027 24.804 280.368 24.804C277.243 24.804 274.767 23.0479 274.767 20.8857C274.767 18.7221 277.256 16.9984 280.38 16.9984C280.893 16.9984 281.39 17.0453 281.864 17.1325C280.858 16.4238 280.244 15.4485 280.244 14.3706C280.244 12.2048 282.735 10.4817 285.858 10.4811C288.982 10.4811 291.498 12.2043 291.498 14.37C291.498 15.4465 290.873 16.4218 289.857 17.1304ZM307.849 14.172L308.323 11.7871L308.273 11.6911C307.791 11.3894 306.762 10.7669 304.963 10.7669C303.565 10.7669 302.178 11.1769 301.296 12.3183C300.627 13.1863 300.409 14.2463 300.409 14.9848C300.413 16.8905 301.616 17.6593 302.496 18.2213L302.516 18.2342L303.076 18.5715C303.885 19.0378 304.66 19.5179 304.661 20.4762C304.661 21.5465 303.69 22.2355 302.456 22.2366C302.111 22.2366 301.303 22.1778 300.46 21.6284C300.065 21.3731 299.801 21.1555 299.591 20.8894L299.487 20.9234L299.022 23.25L299.05 23.4032C299.38 23.642 299.642 23.8189 300.188 24.0232C300.995 24.3176 301.835 24.4677 302.693 24.4677C306.191 24.4626 307.649 22.2309 307.652 20.0064C307.652 18.0597 306.304 17.1961 305.426 16.6337L305.411 16.6245L305.004 16.3986C303.956 15.7853 303.367 15.3748 303.365 14.533C303.365 14.0879 303.548 13.6892 303.869 13.4092C304.188 13.1281 304.648 12.9594 305.201 12.9594C305.906 12.9594 306.598 13.2075 307.18 13.6459C307.442 13.844 307.556 13.9456 307.745 14.2045L307.849 14.172ZM348.408 13.2601L348.494 13.1668L348.914 11.066L348.861 10.9959L346.124 11.066H341.813L341.724 11.1506C341.166 14.2282 340.997 15.1303 340.407 17.9552L339.625 21.5908L339.113 24.166L339.149 24.2403L342.1 24.166L342.176 24.0964L342.746 21.0715L343.196 18.7422L346.622 18.7494L346.713 18.6643C346.913 17.8226 346.981 17.5498 347.278 16.5848L347.224 16.5012L343.622 16.6074L344.291 13.2503L348.408 13.2601ZM329.257 16.3042L329.149 16.4084L327.589 16.3692L326.867 19.6938C326.767 20.1105 326.547 21.1509 326.547 21.4861C326.545 21.7991 326.665 22.0127 326.834 22.1395C327.001 22.268 327.21 22.3103 327.397 22.3108C327.733 22.3108 327.9 22.2398 328.093 22.1576C328.148 22.1338 328.206 22.1091 328.271 22.0849L328.322 22.1313L327.939 24.0464L327.807 24.1718L327.703 24.1932C327.22 24.2936 326.838 24.3729 326.313 24.3729C324.862 24.3646 323.815 23.8885 323.809 22.2355C323.809 21.4618 324.129 20.0533 324.367 19.0063L324.942 16.3671L323.718 16.4078L323.644 16.3037L324.002 14.4438L324.113 14.384H325.358L325.855 11.9346L325.952 11.8273C326.901 11.5901 327.336 11.4465 327.99 11.2303L327.991 11.23L327.992 11.2296C328.197 11.1621 328.423 11.0874 328.693 11.0005L328.753 11.0665L328.377 12.6443L327.987 14.4211L329.585 14.3731L329.626 14.4546L329.257 16.3042ZM336.509 14.6449L336.479 14.6919C337.689 15.4619 337.772 16.8236 337.772 17.5895C337.772 18.4524 337.626 19.1538 337.492 19.7671L337.387 19.8383C336.785 19.8336 336.287 19.8315 335.844 19.8315C334.535 19.8315 333.721 19.8518 332.207 19.8895L332.051 19.8934L332.002 19.895L331.997 19.9439L331.991 20.0163C331.977 20.1965 331.963 20.366 331.963 20.5495C331.963 21.1137 332.137 21.5692 332.491 21.877C332.847 22.1875 333.374 22.3485 334.068 22.3485C335.101 22.3485 336.012 21.876 336.846 21.2292L336.932 21.2932C336.863 21.5365 336.735 22.2187 336.625 22.799L336.625 22.7999L336.625 22.802C336.553 23.1813 336.49 23.5166 336.457 23.6565L336.386 23.7498C335.963 23.9918 335.18 24.41 333.529 24.411C331.151 24.4079 330.416 23.4326 330.112 23.0267C329.497 22.1953 329.345 21.2741 329.345 20.2864C329.345 18.9196 329.73 17.3842 330.548 16.1923C331.37 15.0039 332.621 14.1581 334.371 14.1565C335.143 14.1565 335.931 14.3262 336.477 14.6919L336.509 14.6449ZM335.399 18.0924L335.408 18.0475L335.413 18.0218C335.461 17.7505 335.511 17.4744 335.51 17.1934C335.51 17.1237 335.507 17.051 335.496 16.9819C335.474 16.7885 335.415 16.6038 335.317 16.4414C335.29 16.3934 335.262 16.3516 335.228 16.3088C335.031 16.0649 334.724 15.9008 334.304 15.9008C334.007 15.9008 333.547 15.9813 333.062 16.5002C333.008 16.5548 332.958 16.6136 332.91 16.6709C332.637 17.0077 332.483 17.3749 332.376 17.7122C332.34 17.8195 332.309 17.9252 332.28 18.023L332.27 18.0578L332.263 18.0805L332.249 18.1321L333.815 18.1119L335.399 18.0924ZM354.309 14.8007C353.737 14.4061 352.823 14.2034 351.569 14.2034C350.95 14.2034 350.326 14.2617 349.699 14.3778C349.138 14.482 348.791 14.5702 348.495 14.6532L348.413 14.7337L348.007 16.7704L348.138 16.8478C348.399 16.7302 348.782 16.5858 349.288 16.4109C349.805 16.233 350.281 16.1438 350.71 16.1438C351.339 16.1438 351.818 16.2278 352.144 16.4017C352.479 16.578 352.72 16.9654 352.718 17.3914C352.718 17.4966 352.709 17.589 352.695 17.6725C352.678 17.7509 352.668 17.8087 352.664 17.8417L352.657 17.885C352.657 17.885 352.454 17.8989 352.238 17.917C352.096 17.9304 351.914 17.9505 351.704 17.9742C351.361 18.0103 350.965 18.0578 350.62 18.1145L350.579 18.1213C349.717 18.261 347.453 18.6283 346.766 20.1276C346.033 21.3762 346.158 23.0329 346.878 23.839C347.132 24.1242 347.518 24.3925 348.041 24.4956L348.04 24.4972C348.055 24.5021 348.092 24.5079 348.123 24.5125L348.137 24.5147C348.148 24.5164 348.157 24.5178 348.161 24.5188C350.174 24.8231 351.619 23.1087 351.619 23.1087L351.403 24.1655L351.491 24.2398L353.753 24.1655L353.847 24.0856L355.179 17.5498C355.206 17.412 355.229 17.2491 355.246 17.0639C355.26 16.8762 355.27 16.724 355.27 16.6121C355.268 15.7755 354.881 15.1948 354.309 14.8007ZM350.661 22.4635C351.44 22.1659 351.981 21.3355 351.981 21.3355L352.321 19.5675C352.321 19.5675 349.963 19.6206 349.249 20.4494C348.546 21.27 348.916 21.9993 349.095 22.2304C349.315 22.5259 349.879 22.759 350.661 22.4635ZM362.962 14.0704L362.408 16.8813L362.292 16.9963C362.133 16.9685 361.932 16.9458 361.693 16.9458C360.946 16.9458 359.885 17.18 359.054 18.2559L359.045 18.2646L357.901 24.0974L357.82 24.1671L355.336 24.2409L355.271 24.1769L357.226 14.385L357.332 14.2824L359.791 14.0497L359.888 14.1524L359.605 15.5707L359.725 15.4635C360.239 15.0081 360.695 14.6934 361.204 14.4098C361.709 14.1261 362.215 13.9853 362.724 13.9853C362.773 13.9853 362.823 13.9853 362.876 13.9873L362.962 14.0704ZM375.992 18.3379C376.126 17.7401 376.262 17.1258 376.262 16.5342C376.259 14.5083 374.776 14.1637 373.977 14.1575C372.396 14.1256 370.915 15.5295 370.915 15.5295C370.915 15.5295 370.603 14.1302 369.114 14.1575C367.518 14.1885 366.266 15.5295 366.266 15.5295L366.541 14.1524L366.436 14.0497L363.842 14.2885L363.744 14.385L361.795 24.1671L361.852 24.2532L364.065 24.1805L364.466 24.1671L364.555 24.0974L365.96 17.0711C365.96 17.0711 366.634 16.428 367.283 16.428C368.112 16.428 368.267 17.2006 368.267 17.4889C368.267 17.6818 367.77 20.1239 367.382 21.9993H367.389L366.939 24.1666L366.971 24.2145L367.001 24.2543L367.496 24.2382L368.498 24.2052L369.617 24.1671L369.704 24.0974L371.108 17.0711C371.108 17.0711 371.782 16.428 372.434 16.428C373.261 16.428 373.417 17.2006 373.417 17.4889C373.417 17.8051 372.084 24.1666 372.084 24.1666L372.149 24.2563L374.749 24.1666L374.838 24.097L375.992 18.3379ZM321.961 14.8007C321.389 14.4061 320.476 14.2034 319.223 14.2034C318.602 14.2034 317.979 14.2617 317.354 14.3778C316.792 14.482 316.445 14.5702 316.148 14.6532L316.067 14.7337L315.66 16.7704L315.791 16.8478C316.053 16.7302 316.436 16.5858 316.941 16.4109C317.458 16.233 317.934 16.1438 318.363 16.1438C318.992 16.1438 319.468 16.2278 319.798 16.4017C320.132 16.578 320.371 16.9654 320.371 17.3914C320.371 17.4966 320.363 17.589 320.349 17.6725C320.331 17.7509 320.322 17.8087 320.318 17.8417L320.311 17.885C320.311 17.885 320.109 17.8989 319.893 17.917C319.751 17.9304 319.567 17.9505 319.359 17.9742C319.015 18.0103 318.619 18.0578 318.275 18.1145L318.235 18.121C317.374 18.2606 315.108 18.6274 314.42 20.1276C313.687 21.3762 313.813 23.0329 314.532 23.839C314.784 24.1242 315.172 24.3925 315.695 24.4956L315.694 24.4972C315.708 24.502 315.745 24.5077 315.775 24.5123C315.793 24.515 315.808 24.5173 315.814 24.5188C317.828 24.8231 319.273 23.1087 319.273 23.1087L319.056 24.1655L319.144 24.2398L321.408 24.1655L321.501 24.0856L322.831 17.5498C322.86 17.412 322.883 17.2491 322.901 17.0639C322.914 16.8762 322.924 16.724 322.924 16.6121C322.922 15.7755 322.537 15.1948 321.961 14.8007ZM318.314 22.4635C319.094 22.1659 319.634 21.3355 319.634 21.3355L319.976 19.5675C319.976 19.5675 317.616 19.6206 316.905 20.4494C316.2 21.27 316.57 21.9993 316.747 22.2304C316.97 22.5259 317.533 22.759 318.314 22.4635ZM314.182 16.3042L314.073 16.4084L312.515 16.3692L311.793 19.6938C311.692 20.1105 311.47 21.1509 311.47 21.4861C311.469 21.7991 311.589 22.0127 311.758 22.1395C311.926 22.268 312.134 22.3103 312.321 22.3108C312.658 22.3108 312.825 22.2395 313.018 22.1571C313.073 22.1335 313.131 22.109 313.195 22.0849L313.247 22.1313L312.864 24.0464L312.732 24.1718L312.637 24.1915C312.151 24.2927 311.766 24.3729 311.237 24.3729C309.789 24.3646 308.74 23.8885 308.734 22.2355C308.734 21.4708 309.047 20.0859 309.283 19.0429L309.292 19.0063L309.867 16.3671L308.641 16.4078L308.568 16.3037L308.927 14.4438L309.038 14.384H310.282L310.78 11.9346L310.877 11.8273C311.822 11.5907 312.257 11.4472 312.91 11.2318C313.117 11.1636 313.345 11.0883 313.619 11.0005L313.677 11.0665L313.301 12.6443L312.914 14.4221L314.509 14.3742L314.552 14.4557L314.182 16.3042ZM283.027 15.988C283.736 16.4156 284.731 16.6874 285.852 16.6874C286.972 16.6874 287.977 16.4156 288.696 15.988C289.418 15.561 289.843 14.9843 289.845 14.3757C289.843 13.7656 289.421 13.1946 288.702 12.7712C287.985 12.3482 286.983 12.0821 285.86 12.08C284.74 12.0821 283.742 12.3482 283.031 12.7712C282.318 13.1951 281.9 13.764 281.898 14.3742C281.9 14.9859 282.317 15.561 283.027 15.988ZM280.366 18.5968C281.486 18.5968 282.489 18.8634 283.206 19.2869C283.925 19.7108 284.348 20.2797 284.35 20.8878C284.348 21.498 283.923 22.0731 283.203 22.5001C282.484 22.9267 281.479 23.1985 280.357 23.2011C279.236 23.199 278.24 22.9267 277.532 22.5022C276.821 22.0731 276.404 21.498 276.403 20.8857C276.404 20.2756 276.823 19.7088 277.536 19.2848C278.247 18.8634 279.244 18.5968 280.366 18.5968ZM294.172 19.2869C293.454 18.8634 292.451 18.5968 291.33 18.5968C290.21 18.5968 289.211 18.8634 288.501 19.2848C287.788 19.7083 287.371 20.2756 287.369 20.8873C287.371 21.4975 287.786 22.0725 288.498 22.5017C289.206 22.9261 290.202 23.1985 291.322 23.2005C292.442 23.198 293.449 22.9261 294.168 22.4996C294.889 22.0725 295.314 21.4975 295.315 20.8873C295.314 20.2797 294.891 19.7108 294.172 19.2869ZM281.263 14.3685C281.266 13.3932 282.024 12.7345 282.469 12.4277C283.357 11.8103 284.561 11.4776 285.859 11.4776C287.16 11.4776 288.368 11.8118 289.264 12.4277C289.712 12.7366 290.479 13.3963 290.482 14.3685C290.468 15.9942 288.332 17.2883 285.845 17.2919C284.553 17.2919 283.354 16.954 282.469 16.332C281.698 15.792 281.263 15.0962 281.263 14.3685ZM276.989 22.8457C277.876 23.4687 279.074 23.8071 280.368 23.8071C282.854 23.8034 284.992 22.5094 285.007 20.8857C285.003 19.9125 284.235 19.2539 283.786 18.9454C282.891 18.3291 281.682 17.9949 280.38 17.9928C279.083 17.9949 277.879 18.3296 276.989 18.9429C276.547 19.2502 275.789 19.9105 275.785 20.8857C275.785 21.6119 276.222 22.3077 276.989 22.8457ZM285.864 19.9532C285.62 19.2637 285.111 18.6478 284.417 18.1604C284.872 18.2435 285.35 18.2878 285.842 18.2878C286.349 18.2878 286.838 18.2414 287.305 18.1558C286.613 18.6437 286.105 19.2601 285.864 19.9532ZM287.927 22.8457C288.813 23.4687 290.012 23.8071 291.304 23.8071C293.791 23.8034 295.928 22.5094 295.94 20.8857C295.938 19.914 295.173 19.2539 294.725 18.9454C293.827 18.3291 292.619 17.9949 291.317 17.9928C290.02 17.9949 288.815 18.3296 287.928 18.9429C287.483 19.2518 286.724 19.9105 286.72 20.8857C286.72 21.6119 287.158 22.3077 287.927 22.8457Z" fill="#151515"/>
</g>
<g clip-path="url(#clip3_1_385)">
<path d="M417.154 15.6558C417.154 11.1887 419.662 10.1349 423.877 10.1349H430.916C436.227 10.1349 436.965 12.0514 436.965 15.0232V15.5086H432.369C432.369 13.9914 431.505 13.8019 430.01 13.8019H424.931C422.569 13.8019 421.959 14.3703 421.959 16.9835V18.8796C421.959 21.4944 422.569 22.0628 424.931 22.0628H429.925C431.148 22.0628 432.369 21.8733 432.369 20.3984V19.9553H426.553V16.794H437.049V21.1358C437.049 25.5184 434.773 25.7297 429.504 25.7297H423.877C419.662 25.7297 417.154 24.676 417.154 20.2089V15.6558Z" fill="#292929"/>
<path d="M438.208 10.3026H454.899V13.8427H442.887V16.2884H454.268V19.4497H442.887V21.8938H455.173V25.5608H438.208V10.3026Z" fill="#292929"/>
<path d="M456.589 10.3024H461.269V25.5606H456.589V10.3024Z" fill="#292929"/>
<path d="M462.682 15.6555C462.682 11.1885 465.19 10.1347 469.405 10.1347H474.906C481.565 10.1347 482.431 11.5674 482.387 15.8873H477.708V15.4661C477.708 14.3701 476.908 14.0538 475.516 14.0538H470.417C467.951 14.0538 467.487 15.214 467.487 17.1101V18.7541C467.487 20.9665 467.951 21.8105 470.165 21.8105H475.159C477.267 21.8105 477.898 21.5991 477.898 19.7014H482.576V21.1356C482.576 23.7066 481.649 25.7295 476.949 25.7295H469.405C465.19 25.7295 462.682 24.6758 462.682 20.2087V15.6555Z" fill="#292929"/>
<path d="M488.204 18.7538C488.204 20.9662 488.668 21.8102 490.882 21.8102H496.866C499.078 21.8102 499.542 20.9662 499.542 18.7538V17.1098C499.542 15.2137 499.078 14.0535 496.614 14.0535H491.134C488.668 14.0535 488.204 15.2137 488.204 17.1098V18.7538ZM483.399 15.6552C483.399 11.1882 485.907 10.1344 490.122 10.1344H497.624C501.84 10.1344 504.349 11.1882 504.349 15.6552V20.2084C504.349 24.6755 501.84 25.7292 497.624 25.7292H490.122C485.907 25.7292 483.399 24.6755 483.399 20.2084V15.6552Z" fill="#292929"/>
<path d="M506.126 23.8264C506.363 23.8264 506.731 23.8655 506.731 23.5211C506.731 23.2611 506.501 23.2298 506.292 23.2298H505.81V23.8264H506.126ZM506.917 24.7674H506.673L506.189 23.9892H505.81V24.7674H505.603V23.078H506.341C506.482 23.078 506.624 23.0873 506.751 23.1609C506.876 23.233 506.941 23.3833 506.941 23.5258C506.941 23.8577 506.707 23.9814 506.407 23.9892L506.917 24.7674ZM507.49 23.9203C507.49 23.1891 506.897 22.5973 506.166 22.5973C505.43 22.5973 504.838 23.1891 504.838 23.9203C504.838 24.6609 505.43 25.2528 506.166 25.2528C506.897 25.2528 507.49 24.6609 507.49 23.9203ZM504.651 23.9203C504.651 23.0905 505.328 22.4141 506.166 22.4141C506.999 22.4141 507.672 23.0905 507.672 23.9203C507.672 24.758 506.999 25.436 506.166 25.436C505.328 25.436 504.651 24.758 504.651 23.9203Z" fill="#292929"/>
</g>
<g clip-path="url(#clip4_1_385)">
<path d="M597.377 4.17239C595.931 1.66664 588.562 3.01362 578.557 7.59912L578.389 7.67868L578.539 7.78744C579.023 8.15614 579.48 8.55995 579.906 8.99567L579.955 9.0549H580.024C587.449 5.92515 592.901 5.09346 594.02 6.95496C595.318 9.19296 590.177 14.8187 581.54 20.6425L581.431 20.7114L581.679 20.9792L581.758 20.9297C592.603 13.8684 599.011 6.99539 597.377 4.17239Z" fill="#292929"/>
<path d="M562.766 30.2507C557.17 32.2314 553.307 32.4594 552.425 30.9339C551.653 29.5967 553.228 26.9724 556.744 23.6252L556.873 23.5067L555.882 23.1317L555.04 22.7754H554.911C550.513 26.8164 548.641 29.9852 549.622 31.6892C550.78 33.6699 555.614 33.2739 562.904 30.5604L563.043 30.511L562.835 30.2109L562.766 30.2507Z" fill="#292929"/>
<path d="M565.324 3.58889C555.724 3.58889 547.911 8.44208 547.911 14.4038C547.911 20.3656 555.726 25.2189 565.324 25.2189C574.922 25.2189 582.737 20.3656 582.737 14.4038C582.737 8.44208 574.919 3.58889 565.324 3.58889ZM562.352 18.6429H566.513L567.979 23.8929C567.109 24.0076 566.232 24.0672 565.354 24.0713C563.888 24.0704 562.427 23.9111 560.996 23.5959L562.352 18.6429ZM562.769 17.1077L564.413 11.1159L566.087 17.1077H562.769ZM564.443 4.76708L561.115 16.8422L557.995 6.14632C560.041 5.33081 562.212 4.87417 564.413 4.79638L564.443 4.76708ZM565.997 4.76708C568.222 4.82232 570.42 5.26135 572.495 6.06466L569.524 16.8399L565.997 4.76708ZM571.187 17.1174L572.822 11.1256L574.496 17.1174H571.187ZM570.425 19.9202L570.771 18.6526H574.872L575.547 21.0788C574.253 21.9829 572.826 22.6812 571.318 23.1489L570.425 19.9202ZM578.348 18.2663L575.189 7.47091C577.952 9.28366 579.539 11.7991 579.539 14.4038C579.516 15.7792 579.093 17.1182 578.321 18.2566L578.348 18.2663ZM559.298 23.1413C557.174 22.502 555.23 21.3715 553.623 19.8413L553.95 18.6533H558.031L559.298 23.1413ZM554.348 17.1204L555.992 11.1286L557.636 17.1204H554.348ZM555.23 7.65237L552.317 18.2198C551.571 17.0903 551.166 15.7702 551.149 14.4166C551.099 11.8516 552.595 9.46666 555.22 7.64266L555.23 7.65237Z" fill="#292929"/>
</g>
<g clip-path="url(#clip5_1_385)">
<path fill-rule="evenodd" clip-rule="evenodd" d="M664.304 24.644C664.304 24.644 665.146 25.205 665.953 25.205C666.778 25.205 667.492 24.6185 667.492 24.6185V21.7625C667.492 21.7625 666.769 22.2725 665.962 22.2725C665.154 22.2725 664.304 21.72 664.304 21.72L655.915 16.7815L656.697 20.1645L664.304 24.644ZM641.669 15.8295C641.669 15.8295 640.861 15.2685 640.011 15.2685C639.17 15.2685 638.481 15.8635 638.481 15.8635V18.711C638.481 18.711 639.17 18.201 640.011 18.201C640.861 18.201 641.669 18.762 641.669 18.762L648.596 22.842L649.191 20.258L641.669 15.838V15.8295ZM664.304 20.9125C664.304 20.9125 665.146 21.4735 665.953 21.4735C666.778 21.4735 667.492 20.8785 667.492 20.8785V18.031C667.492 18.031 666.769 18.541 665.962 18.541C665.154 18.541 664.304 17.9885 664.304 17.9885L654.929 12.4635L655.702 15.8465L664.304 20.9125ZM641.669 12.098C641.669 12.098 640.861 11.537 640.011 11.537C639.17 11.537 638.481 12.1235 638.481 12.1235V14.9795C638.481 14.9795 639.17 14.4695 640.011 14.4695C640.861 14.4695 641.669 15.022 641.669 15.022L649.353 19.544L649.948 16.9685L641.669 12.098ZM664.304 17.181C664.304 17.181 665.146 17.7335 665.953 17.7335C666.778 17.7335 667.492 17.1555 667.492 17.1555V14.2995C667.492 14.2995 666.769 14.8095 665.962 14.8095C665.154 14.8095 664.304 14.257 664.304 14.257L653.934 8.13695L654.716 11.537L664.304 17.181ZM641.669 8.36646C641.669 8.36646 640.861 7.80546 640.011 7.80546C639.17 7.80546 638.481 8.39195 638.481 8.39195V11.2395C638.481 11.2395 639.17 10.7295 640.011 10.7295C640.861 10.7295 641.669 11.2905 641.669 11.2905L650.101 16.2545L650.696 13.679L641.669 8.36646ZM653.722 7.21045L664.304 13.441C664.304 13.441 665.146 14.002 665.953 14.002C666.778 14.002 667.492 13.4155 667.492 13.4155V10.5595C667.492 10.5595 666.769 11.078 665.962 11.078C665.154 11.078 664.304 10.517 664.304 10.517L656.119 5.69746L655.558 3.53846C655.558 3.44496 655.643 3.40246 655.668 3.39396L657.054 2.96046C657.241 2.96046 657.343 3.12196 657.343 3.25796L657.428 3.41096C657.47 3.43646 657.691 3.36846 657.691 3.32596V2.47596C657.7 1.90646 657.249 1.40496 656.646 1.40496H655.252C655.252 1.40496 655.056 0.928955 654.461 0.928955H651.826C651.146 0.928955 650.976 1.59196 650.976 1.59196L649.14 9.03796L641.669 4.63496C641.669 4.63496 640.861 4.07396 640.011 4.07396C639.17 4.07396 638.481 4.65196 638.481 4.65196V7.50796C638.481 7.50796 639.17 6.99796 640.011 6.99796C640.861 6.99796 641.669 7.55896 641.669 7.55896L650.857 12.965L652.948 3.84446L653.722 7.21045ZM652.056 32.2345C652.056 33.7815 650.789 34.912 649.038 34.912C647.194 34.912 646.582 34.5975 646.582 34.5975L646.429 32.8805C646.429 32.8805 647.449 33.5605 648.953 33.5605C649.378 33.5605 650.313 33.2715 650.313 32.4215C650.313 31.614 649.574 31.359 649.395 31.2655C649.03 31.07 648.588 30.8745 648.231 30.696C647.551 30.356 646.548 29.7185 646.548 28.367C646.548 26.412 648.307 25.698 649.693 25.698C650.815 25.698 651.801 26.191 651.801 26.191V27.789C651.486 27.6105 650.968 27.0325 649.693 27.0325C648.826 27.0325 648.239 27.4915 648.239 28.1375C648.239 28.7325 648.732 29.132 649.208 29.353C649.684 29.574 649.999 29.7185 650.551 29.9905C651.24 30.3305 652.056 31.036 652.056 32.2345ZM643.811 31.495C643.811 32.209 643.573 33.552 641.941 33.5265C640.462 33.484 640.181 32.124 640.181 31.257V25.868H638.481V31.342C638.481 34.419 640.368 34.929 641.941 34.929C644.278 34.929 645.358 33.399 645.358 31.308V25.868H643.811V31.495ZM667.492 34.725H665.639L665.103 33.178H661.941L661.406 34.7335H658.244L657.708 33.178H654.546L654.011 34.7335H652.336L655.396 26.5565L655.099 25.868H656.952L659.927 34.2235L662.791 26.5565L662.502 25.868H664.347L667.492 34.7335V34.725ZM657.292 31.937L656.187 28.4435L654.954 31.9285H657.292V31.937ZM664.687 31.937L663.582 28.4435L662.358 31.9285H664.687V31.937ZM667.934 26.276C667.499 26.5303 667.18 26.9449 667.047 27.431C666.913 27.9171 666.976 28.4361 667.22 28.877C667.476 29.3107 667.891 29.6272 668.377 29.7591C668.863 29.8909 669.381 29.8275 669.821 29.5825C670.257 29.3266 670.575 28.9099 670.707 28.4219C670.839 27.9339 670.774 27.4136 670.526 26.973C670.355 26.6869 670.114 26.4493 669.826 26.2826C669.537 26.116 669.211 26.0259 668.877 26.021C668.554 26.021 668.24 26.106 667.942 26.276H667.934ZM669.659 26.548C670.025 26.7597 670.292 27.1067 670.403 27.514C670.514 27.9212 670.461 28.3558 670.254 28.724C670.043 29.0869 669.697 29.3524 669.292 29.4636C668.887 29.5749 668.454 29.5229 668.087 29.319C667.902 29.2173 667.74 29.08 667.609 28.9151C667.478 28.7502 667.382 28.5609 667.324 28.3582C667.267 28.1555 667.251 27.9435 667.276 27.7345C667.302 27.5255 667.369 27.3237 667.473 27.1407C667.577 26.9577 667.717 26.7972 667.883 26.6686C668.05 26.5399 668.241 26.4457 668.444 26.3914C668.647 26.337 668.86 26.3236 669.068 26.352C669.277 26.3803 669.478 26.4498 669.659 26.5565V26.548ZM668.367 28.9875V28.112H668.563C668.657 28.1076 668.749 28.1345 668.826 28.1885C668.911 28.248 669.03 28.4095 669.175 28.6645L669.362 28.9875H669.761L669.506 28.5795C669.422 28.4362 669.322 28.3023 669.209 28.18C669.159 28.1333 669.102 28.0958 669.039 28.0695C669.209 28.0525 669.353 27.993 669.464 27.8825C669.552 27.7924 669.606 27.6744 669.617 27.5489C669.628 27.4233 669.595 27.2978 669.523 27.194C669.463 27.0998 669.373 27.0282 669.268 26.99C669.096 26.9459 668.919 26.9287 668.741 26.939H668.036V28.979H668.376L668.367 28.9875ZM668.367 27.211H668.75C668.911 27.211 669.022 27.228 669.081 27.245C669.141 27.2705 669.183 27.3045 669.217 27.3555C669.251 27.4065 669.268 27.4575 669.268 27.5255C669.268 27.6105 669.234 27.6955 669.166 27.7465C669.098 27.806 668.962 27.8315 668.775 27.8315H668.367V27.211Z" fill="#292929"/>
</g>
<defs>
<clipPath id="clip0_1_385">
<rect width="92.5" height="20" fill="white" transform="translate(0 7.92896)"/>
</clipPath>
<clipPath id="clip1_1_385">
<rect width="102.267" height="13" fill="white" transform="translate(132.5 11.429)"/>
</clipPath>
<clipPath id="clip2_1_385">
<rect width="102.188" height="15" fill="white" transform="translate(274.767 10.429)"/>
</clipPath>
<clipPath id="clip3_1_385">
<rect width="90.953" height="16" fill="white" transform="translate(416.954 9.92896)"/>
</clipPath>
<clipPath id="clip4_1_385">
<rect width="49.7242" height="30" fill="white" transform="translate(547.907 2.92896)"/>
</clipPath>
<clipPath id="clip5_1_385">
<rect width="34" height="34" fill="white" transform="translate(637.631 0.928955)"/>
</clipPath>
</defs>
</svg>
