<svg width="110" height="20" viewBox="0 0 110 20" fill="none" xmlns="http://www.w3.org/2000/svg">
<path d="M19.976 13.8378L20.361 11.4918C20.3645 11.4762 20.3642 11.46 20.3601 11.4444C20.3561 11.4289 20.3484 11.4146 20.3378 11.4025C20.3271 11.3904 20.3137 11.381 20.2986 11.3749C20.2835 11.3688 20.2672 11.3663 20.251 11.3675H12.485C12.0285 11.3639 11.5852 11.5185 11.2332 11.8042C10.8811 12.0899 10.6428 12.4884 10.56 12.9296L10.175 15.1567C10.1173 15.4792 9.94433 15.7708 9.68716 15.9789C9.42999 16.1871 9.10559 16.298 8.7725 16.2918H4.895C4.5636 16.2916 4.24256 16.1783 3.98675 15.9713C3.73093 15.7642 3.55623 15.4763 3.4925 15.1567L3.0085 12.5837H6.05C6.07834 12.5813 6.1049 12.5691 6.12502 12.5493C6.14514 12.5295 6.15752 12.5034 6.16 12.4756V11.9729C6.15711 11.8104 6.08902 11.6556 5.97055 11.5422C5.85209 11.4288 5.69285 11.366 5.5275 11.3675H1.6775C1.66126 11.3663 1.64496 11.3688 1.6299 11.3749C1.61483 11.381 1.60142 11.3904 1.59074 11.4025C1.58005 11.4146 1.57239 11.4289 1.56835 11.4444C1.56432 11.46 1.56402 11.4762 1.5675 11.4918L1.98 13.8378H0.11C0.0962725 13.837 0.0825336 13.839 0.0695705 13.8435C0.0566073 13.848 0.0446747 13.8549 0.0344563 13.864C0.0242378 13.873 0.0159344 13.8839 0.0100218 13.8961C0.00410918 13.9083 0.000703537 13.9216 0 13.935L0.1375 14.6918C0.157432 14.7853 0.209107 14.8695 0.284055 14.9303C0.359002 14.9912 0.452774 15.0253 0.55 15.0269H2.2L2.354 15.9188C2.43777 16.3596 2.6764 16.7575 3.02823 17.043C3.38006 17.3285 3.82274 17.4836 4.279 17.481H9.339C9.79554 17.4846 10.2388 17.33 10.5908 17.0443C10.9429 16.7586 11.1812 16.3601 11.264 15.9188L11.6435 13.6918C11.7021 13.3679 11.8758 13.0749 12.1336 12.865C12.3915 12.6552 12.7167 12.5421 13.0515 12.5459H18.9365L18.48 15.1242C18.4212 15.4457 18.2477 15.7361 17.9906 15.9431C17.7336 16.1502 17.4098 16.2604 17.0775 16.254H15.565C15.3996 16.2525 15.2404 16.3153 15.1219 16.4287C15.0035 16.5421 14.9354 16.6969 14.9325 16.8594V17.3621C14.935 17.3899 14.9474 17.416 14.9675 17.4358C14.9876 17.4556 15.0142 17.4677 15.0425 17.4702H17.655C18.112 17.4725 18.5554 17.3167 18.9073 17.0301C19.2592 16.7436 19.4974 16.3444 19.58 15.9026L19.745 15.0161H21.34C21.4386 15.0163 21.534 14.9822 21.6095 14.9199C21.685 14.8576 21.7356 14.771 21.7525 14.6756L21.89 13.935C21.8935 13.9194 21.8932 13.9032 21.8892 13.8877C21.8851 13.8722 21.8774 13.8578 21.8668 13.8457C21.8561 13.8337 21.8427 13.8242 21.8276 13.8181C21.8125 13.812 21.7962 13.8095 21.78 13.8107H19.976" fill="#1F1B50"/>
<path d="M7.48192 14.1198C7.34159 14.1201 7.20648 14.0676 7.10423 13.9731C7.00198 13.8787 6.94034 13.7494 6.93192 13.6117C6.93505 13.5254 6.95915 13.4412 7.00221 13.3659C7.04527 13.2907 7.10603 13.2267 7.17942 13.1793C7.02502 13.1196 6.86126 13.0867 6.69542 13.082C6.44184 13.0905 6.19641 13.1721 5.98973 13.3168C5.78304 13.4614 5.62425 13.6626 5.53313 13.8954C5.44202 14.1281 5.42262 14.382 5.47735 14.6255C5.53208 14.869 5.65852 15.0913 5.84091 15.2646C6.0233 15.438 6.25357 15.5547 6.50301 15.6004C6.75246 15.646 7.01005 15.6184 7.24367 15.5211C7.47729 15.4238 7.67661 15.2611 7.81678 15.0533C7.95695 14.8454 8.03177 14.6016 8.03192 14.3522C8.03527 14.1937 8.0014 14.0364 7.93292 13.8928C7.88177 13.9634 7.8141 14.0209 7.73561 14.0604C7.65712 14.0999 7.57011 14.1203 7.48192 14.1198ZM15.5119 14.1198C15.3716 14.1201 15.2365 14.0676 15.1342 13.9731C15.032 13.8787 14.9703 13.7494 14.9619 13.6117C14.9638 13.5264 14.9862 13.4427 15.0273 13.3676C15.0684 13.2924 15.1271 13.2279 15.1984 13.1793C15.0439 13.1201 14.8802 13.0872 14.7144 13.082C14.4606 13.0894 14.2146 13.1702 14.0071 13.3142C13.7997 13.4582 13.6401 13.6591 13.5481 13.8918C13.4562 14.1244 13.436 14.3786 13.4901 14.6224C13.5443 14.8663 13.6703 15.0891 13.8525 15.263C14.0347 15.4369 14.265 15.5541 14.5146 15.6002C14.7642 15.6462 15.0221 15.6189 15.256 15.5218C15.49 15.4246 15.6896 15.2619 15.83 15.0539C15.9704 14.8459 16.0453 14.6018 16.0454 14.3522C16.0425 14.1948 16.0109 14.0392 15.9519 13.8928C15.9046 13.9646 15.8393 14.0233 15.7622 14.063C15.6852 14.1028 15.5989 14.1224 15.5119 14.1198ZM2.48792 10.2009C2.40542 8.7036 3.10942 7.49819 5.96942 7.19008C7.79542 9.18468 10.5069 9.61171 12.9984 9.61171C14.9894 9.61171 16.8484 9.33062 17.9869 9.33062C18.3726 9.28543 18.7621 9.37539 19.0869 9.58468C19.2244 9.71981 19.1804 9.96306 19.1419 10.1685C19.1361 10.1941 19.1362 10.2207 19.1424 10.2463C19.1486 10.2719 19.1606 10.2957 19.1776 10.3161C19.1946 10.3364 19.216 10.3526 19.2403 10.3636C19.2646 10.3746 19.2912 10.3799 19.3179 10.3793H20.1429C20.1859 10.38 20.2276 10.3657 20.2609 10.339C20.2941 10.3123 20.3166 10.2748 20.3244 10.2333L20.5554 8.68198C21.1054 4.81171 19.7909 1.97927 12.3494 1.72522C12.3264 1.72401 12.3041 1.71665 12.2851 1.70391C12.266 1.69118 12.2508 1.67357 12.2412 1.65298C12.2316 1.63239 12.2279 1.6096 12.2305 1.58708C12.233 1.56457 12.2419 1.54317 12.2559 1.52522C12.3329 1.41711 12.4704 1.25495 12.6794 0.984679C12.7036 0.954101 12.7195 0.91794 12.7255 0.87964C12.7314 0.841339 12.7273 0.802172 12.7136 0.765869C12.6998 0.729565 12.6768 0.697333 12.6467 0.67224C12.6167 0.647148 12.5806 0.63003 12.5419 0.622517C11.6047 0.481395 10.6575 0.414513 9.70942 0.422517C6.90442 0.422517 4.28092 1.09819 2.58692 2.54144C0.100921 4.65495 0.815921 7.94684 1.23942 10.2495C1.2459 10.2911 1.26711 10.3291 1.29931 10.3568C1.33151 10.3845 1.37264 10.4001 1.41542 10.4009H2.31192C2.35964 10.3914 2.40281 10.3666 2.43466 10.3304C2.4665 10.2942 2.48524 10.2487 2.48792 10.2009Z" fill="#1F1B50"/>
<path d="M3.35359 3.41642C4.71759 2.25425 7.03859 1.58398 9.70609 1.58398H10.0361C10.2286 1.58398 10.3276 1.7029 10.2451 1.83804C10.0911 2.09209 9.92609 2.37858 9.78859 2.62182C9.76806 2.65522 9.75736 2.69357 9.75769 2.73259C9.75802 2.77161 9.76937 2.80978 9.79046 2.84284C9.81156 2.8759 9.84158 2.90256 9.87717 2.91984C9.91277 2.93713 9.95256 2.94436 9.99209 2.94074C10.4211 2.9029 11.1251 2.86507 12.0711 2.87588C15.4811 2.92993 17.7251 3.60561 18.7261 4.78939C19.4136 5.58398 19.6226 6.74615 19.4026 8.40561C18.9527 8.22651 18.4682 8.14715 17.9836 8.17317C17.4336 8.17317 16.8011 8.22723 16.0421 8.2975C15.1236 8.37858 14.0621 8.45966 12.9786 8.45966C10.0636 8.45966 8.11109 7.81101 6.81859 6.41101L6.40609 5.96236L5.80109 6.03263C3.98609 6.23263 2.73209 6.78398 1.98959 7.7029C1.85209 5.95155 2.06109 4.49209 3.35359 3.41642Z" fill="#526EFF"/>
<path d="M18.2052 6.7456C18.1027 6.7463 18.0021 6.71884 17.9146 6.66631C17.8271 6.61378 17.7563 6.53827 17.7102 6.4483C17.1602 4.95101 14.7127 4.5456 12.7877 4.46452H11.8967C11.8315 4.47278 11.7653 4.46806 11.702 4.45063C11.6387 4.43319 11.5796 4.40341 11.5283 4.36305C11.477 4.3227 11.4344 4.27259 11.4032 4.21573C11.3721 4.15887 11.3528 4.09641 11.3467 4.03209C11.3528 3.96776 11.3721 3.90531 11.4032 3.84845C11.4344 3.79158 11.477 3.74148 11.5283 3.70112C11.5796 3.66077 11.6387 3.63098 11.702 3.61355C11.7653 3.59612 11.8315 3.59139 11.8967 3.59966H12.8427C16.0767 3.73479 18.0952 4.62128 18.7112 6.17263C18.7294 6.22908 18.7353 6.28865 18.7284 6.34748C18.7216 6.40631 18.7023 6.46306 18.6717 6.51406C18.6411 6.56505 18.5999 6.60913 18.5508 6.64344C18.5017 6.67775 18.4458 6.70151 18.3867 6.71317C18.3264 6.72046 18.2655 6.72046 18.2052 6.71317V6.7456ZM10.5877 4.78884C10.4701 4.78832 10.3564 4.74757 10.2661 4.67359C10.1757 4.59961 10.1144 4.49701 10.0927 4.38344C10.0825 4.32593 10.0839 4.26699 10.0968 4.21001C10.1098 4.15303 10.1341 4.09913 10.1684 4.05142C10.2026 4.0037 10.2461 3.9631 10.2964 3.93196C10.3466 3.90081 10.4026 3.87973 10.4612 3.86993H10.5327C10.6566 3.8562 10.781 3.89108 10.8788 3.967C10.9767 4.04291 11.0401 4.15372 11.0552 4.27533C11.0661 4.33767 11.0639 4.40154 11.0489 4.46303C11.0338 4.52451 11.0061 4.58233 10.9674 4.63293C10.9288 4.68353 10.8801 4.72585 10.8243 4.75731C10.7684 4.78877 10.7067 4.80869 10.6427 4.81587H10.5877" fill="#FFFFFE"/>
<path d="M28.0234 5.79013C28.0247 5.72211 28.052 5.65706 28.0999 5.60796C28.1478 5.55887 28.2128 5.52933 28.2819 5.52526H28.5459C28.6028 5.52526 28.6574 5.54747 28.6976 5.58701C28.7378 5.62654 28.7604 5.68016 28.7604 5.73607L28.8594 6.62256C29.1836 6.21139 29.6011 5.88042 30.0785 5.6561C30.556 5.43179 31.0803 5.32034 31.6094 5.33067C32.1458 5.29967 32.6794 5.42596 33.1425 5.6935C33.6057 5.96104 33.9776 6.35778 34.2109 6.83337C34.5688 6.38576 35.021 6.01966 35.5366 5.76025C36.0521 5.50084 36.6187 5.35428 37.1974 5.33067C39.3644 5.33067 40.3049 6.79013 40.3049 9.07662V13.455C40.305 13.5234 40.2781 13.5892 40.2299 13.6386C40.1817 13.6879 40.116 13.7171 40.0464 13.7199H39.6504C39.5294 13.7199 39.4359 13.6226 39.4359 13.455V9.07121C39.4359 7.19013 38.6439 6.20634 37.1424 6.20634C36.6256 6.22603 36.1201 6.3614 35.6645 6.60214C35.2089 6.84288 34.8152 7.18264 34.5134 7.59553C34.6288 8.07887 34.6787 8.57504 34.6619 9.07121V13.4496C34.662 13.518 34.6351 13.5838 34.5869 13.6332C34.5387 13.6825 34.473 13.7117 34.4034 13.7145H34.0459C34.0115 13.7146 33.9774 13.7077 33.9459 13.6941C33.9143 13.6805 33.886 13.6607 33.8627 13.6357C33.8394 13.6108 33.8216 13.5814 33.8106 13.5493C33.7995 13.5173 33.7954 13.4833 33.7984 13.4496V9.07121C33.7984 7.19013 32.9789 6.20634 31.4939 6.20634C30.9776 6.2207 30.4724 6.35745 30.0213 6.60497C29.5703 6.85249 29.1868 7.20345 28.9034 7.62797V13.4658C28.9087 13.5008 28.9057 13.5366 28.8947 13.5703C28.8837 13.604 28.865 13.6348 28.8401 13.6604C28.8152 13.6859 28.7846 13.7055 28.7508 13.7177C28.717 13.7299 28.6808 13.7343 28.6449 13.7307H28.2489C28.2166 13.728 28.1851 13.7189 28.1564 13.7041C28.1277 13.6892 28.1023 13.6688 28.0818 13.6441C28.0613 13.6194 28.046 13.5908 28.0369 13.5602C28.0279 13.5296 28.0251 13.4975 28.0289 13.4658V5.79013H28.0234ZM45.8819 5.31445C48.0819 5.31445 49.8804 7.2658 49.8804 9.59553C49.8804 11.9253 48.1039 13.9199 45.8819 13.9199C43.6599 13.9199 41.8889 11.9955 41.8889 9.59553C41.8889 7.19553 43.6324 5.31445 45.8819 5.31445ZM45.8819 13.0766C47.6309 13.0766 49.0059 11.5469 49.0059 9.59553C49.0059 7.64418 47.6309 6.17391 45.8819 6.17391C44.1329 6.17391 42.7359 7.70364 42.7359 9.61175C42.7359 11.5199 44.1109 13.0766 45.8819 13.0766ZM51.5964 5.79013C51.5992 5.71983 51.6293 5.65324 51.6804 5.604C51.7315 5.55476 51.7999 5.52659 51.8714 5.52526H52.0749C52.1346 5.52488 52.1924 5.5462 52.237 5.58511C52.2817 5.62402 52.3102 5.67779 52.3169 5.73607L52.3994 6.62256C52.7797 6.22664 53.236 5.90864 53.742 5.68691C54.248 5.46518 54.7936 5.34411 55.3474 5.33067C57.5474 5.33067 58.5484 6.79013 58.5484 9.07662V13.455C58.5485 13.5234 58.5216 13.5892 58.4734 13.6386C58.4252 13.6879 58.3595 13.7171 58.2899 13.7199H57.9379C57.8684 13.7171 57.8026 13.6879 57.7544 13.6386C57.7063 13.5892 57.6794 13.5234 57.6794 13.455V9.07121C57.6794 7.19013 56.8159 6.20634 55.3034 6.20634C54.7546 6.23809 54.2184 6.38072 53.7282 6.62532C53.238 6.86992 52.8044 7.21125 52.4544 7.62797V13.4658C52.4597 13.5008 52.4567 13.5366 52.4457 13.5703C52.4347 13.604 52.416 13.6348 52.3911 13.6604C52.3662 13.6859 52.3356 13.7055 52.3018 13.7177C52.268 13.7299 52.2318 13.7343 52.1959 13.7307H51.8164C51.7841 13.728 51.7526 13.7189 51.7239 13.7041C51.6952 13.6892 51.6698 13.6688 51.6493 13.6441C51.6288 13.6194 51.6135 13.5908 51.6044 13.5602C51.5954 13.5296 51.5926 13.4975 51.5964 13.4658V5.79013ZM64.0704 5.31445C66.1549 5.31445 67.6729 6.88743 67.6729 9.0604C67.6729 9.38472 67.6729 9.8604 67.3704 9.8604H60.9959C61.0784 11.628 62.3049 13.1036 64.1034 13.1036C64.9447 13.0921 65.7622 12.8281 66.4464 12.3469C66.6279 12.2172 66.7049 12.2063 66.8039 12.3469L67.0074 12.628C67.0348 12.6829 67.0415 12.7456 67.0264 12.8049C67.0113 12.8643 66.9754 12.9165 66.9249 12.9523C66.1071 13.5832 65.0991 13.9293 64.0594 13.9361C61.6284 13.9361 60.1434 12.0118 60.1434 9.61175C60.1434 7.21175 61.6449 5.31445 64.0704 5.31445ZM66.8204 9.13067C66.8204 7.50905 65.8799 6.14148 64.0704 6.14148C63.6718 6.14147 63.2771 6.21891 62.909 6.36933C62.5409 6.51974 62.2067 6.74018 61.9256 7.01797C61.6445 7.29576 61.422 7.62541 61.2709 7.98798C61.1199 8.35055 61.0433 8.73889 61.0454 9.13067H66.8204ZM68.0909 5.82797C68.0084 5.6604 68.0359 5.50364 68.2174 5.50364H68.6519C68.7085 5.50627 68.7631 5.52505 68.809 5.55769C68.8549 5.59033 68.8902 5.63542 68.9104 5.68743L72.3204 12.6063H72.3589L75.4664 5.68743C75.4871 5.63459 75.5231 5.58894 75.5701 5.55624C75.6171 5.52353 75.6729 5.50523 75.7304 5.50364H76.1649C76.3409 5.50364 76.3684 5.67121 76.2859 5.82797L70.0434 19.6658C70.0268 19.721 69.9948 19.7704 69.9511 19.8087C69.9074 19.8469 69.8536 19.8723 69.7959 19.882H69.3174C69.1524 19.882 69.0974 19.7847 69.1799 19.6009L71.8694 13.655L68.0909 5.82797Z" fill="#1F1B50"/>
<path d="M77.7857 10.9568C77.3753 10.3825 77.1579 9.69637 77.1642 8.99459C77.1642 7.11351 78.5117 5.68108 80.6732 5.68108H83.9732C84.0078 5.67959 84.0424 5.6851 84.0747 5.69727C84.1071 5.70944 84.1365 5.72801 84.1613 5.75183C84.186 5.77565 84.2055 5.80421 84.2186 5.83574C84.2317 5.86727 84.238 5.9011 84.2372 5.93514V6.15135C84.2396 6.20427 84.2225 6.25625 84.1893 6.2979C84.156 6.33954 84.1086 6.36809 84.0557 6.37838L82.6092 6.47027C82.9997 6.67568 83.8467 7.35676 83.8467 8.98378C83.8582 9.41508 83.7798 9.84412 83.6163 10.2445C83.4528 10.6449 83.2077 11.0082 82.896 11.312C82.5843 11.6158 82.2126 11.8537 81.8039 12.0111C81.3951 12.1684 80.9579 12.2419 80.5192 12.227C80.1227 12.2572 79.724 12.2097 79.3464 12.0872C78.9687 11.9647 78.6196 11.7697 78.3192 11.5135C78.0287 11.6264 77.7779 11.8199 77.5973 12.0704C77.4166 12.3209 77.3139 12.6175 77.3017 12.9243C77.3017 13.8486 78.0992 14.0649 78.8857 14.0649H81.7952C83.5167 14.0649 84.7707 14.827 84.7707 16.573C84.7707 18.2378 83.1207 19.7676 80.6732 19.7676C77.9507 19.7676 76.7517 18.2 76.7517 16.8703C76.7621 16.4492 76.8844 16.0382 77.1062 15.6779C77.3281 15.3176 77.642 15.0205 78.0167 14.8162C77.5941 14.7259 77.2128 14.5031 76.9301 14.1814C76.6474 13.8597 76.4787 13.4565 76.4492 13.0324C76.4679 12.6018 76.6011 12.1835 76.8356 11.8193C77.0702 11.4551 77.3977 11.1577 77.7857 10.9568ZM80.6402 18.9838C82.4442 18.9838 83.8302 17.9459 83.8302 16.6054C83.8302 15.7081 83.2802 14.8865 81.7842 14.8865H79.2542C79.0452 14.8865 77.6317 15.427 77.6317 16.7946C77.6482 17.8703 78.7042 18.9838 80.6402 18.9838ZM82.9942 8.96757C83.0201 8.63954 82.975 8.30985 82.8619 8.00019C82.7488 7.69052 82.5703 7.40791 82.338 7.17097C82.1057 6.93402 81.8251 6.74811 81.5144 6.62548C81.2038 6.50284 80.8702 6.44626 80.5357 6.45946C80.1971 6.44567 79.8592 6.50115 79.5436 6.62239C79.2279 6.74363 78.9413 6.92798 78.7019 7.16376C78.4625 7.39955 78.2755 7.68162 78.1529 7.99213C78.0302 8.30263 77.9745 8.63479 77.9892 8.96757C77.9892 9.61986 78.2529 10.2454 78.7222 10.7067C79.1915 11.1679 79.828 11.427 80.4917 11.427C81.1554 11.427 81.7919 11.1679 82.2613 10.7067C82.7306 10.2454 82.9942 9.61986 82.9942 8.96757ZM89.1927 5.68108C89.6754 5.66519 90.1563 5.7471 90.6054 5.92172C91.0546 6.09634 91.4623 6.35993 91.8033 6.69609C92.1443 7.03225 92.4113 7.43379 92.5876 7.87571C92.764 8.31764 92.8458 8.7905 92.8282 9.26486C92.8282 9.57297 92.8282 10.027 92.5257 10.027H86.1127C86.1156 10.8462 86.4469 11.6313 87.0347 12.2121C87.6226 12.7929 88.4197 13.1226 89.2532 13.1297C90.0946 13.1188 90.9146 12.8671 91.6127 12.4054C91.7942 12.2811 91.8767 12.2703 91.9757 12.4054L92.1792 12.6757C92.2342 12.7514 92.2177 12.8757 92.0967 12.9838C91.251 13.5911 90.2291 13.9152 89.1817 13.9081C86.7342 13.9081 85.2382 12.0703 85.2382 9.77297C85.2382 7.47568 86.7507 5.68108 89.1927 5.68108ZM91.9427 9.32973C91.9427 7.8 90.9967 6.47027 89.1927 6.47027C88.8015 6.46094 88.4122 6.52754 88.0472 6.66627C87.6822 6.80501 87.3487 7.01314 87.0656 7.27875C86.7826 7.54437 86.5556 7.86225 86.3978 8.21419C86.2399 8.56612 86.1543 8.94521 86.1457 9.32973H91.9427ZM97.8442 5.68108C98.3267 5.66514 98.8073 5.74707 99.2562 5.92174C99.705 6.09642 100.112 6.3601 100.453 6.69635C100.794 7.03259 101.06 7.43419 101.236 7.8761C101.411 8.31801 101.493 8.79076 101.474 9.26486C101.474 9.57297 101.474 10.027 101.172 10.027H94.7642C94.7642 10.8462 95.0938 11.6321 95.6811 12.2134C96.2684 12.7946 97.0657 13.124 97.8992 13.1297C98.7425 13.1196 99.5644 12.8678 100.264 12.4054C100.44 12.2811 100.528 12.2703 100.622 12.4054L100.825 12.6757C100.886 12.7514 100.869 12.8757 100.748 12.9838C99.9084 13.5975 98.8907 13.9309 97.8442 13.9351C95.4022 13.9351 93.9007 12.0973 93.9007 9.8C93.9007 7.5027 95.3967 5.68108 97.8442 5.68108ZM100.594 9.32973C100.594 7.8 99.6482 6.47027 97.8442 6.47027C97.4525 6.46021 97.0627 6.52629 96.6971 6.66469C96.3314 6.8031 95.9972 7.01111 95.7136 7.2768C95.4299 7.54249 95.2025 7.86061 95.0443 8.21291C94.8861 8.56521 94.8003 8.94474 94.7917 9.32973H100.594ZM103.124 0.259459C103.127 0.1915 103.156 0.127044 103.205 0.0789523C103.253 0.0308604 103.319 0.00266813 103.388 0L103.729 0C103.798 0.00274163 103.863 0.03112 103.911 0.0793402C103.959 0.12756 103.986 0.191985 103.988 0.259459V9.03784L108.294 6C108.383 5.92526 108.496 5.88323 108.613 5.88108H109.191C109.394 5.88108 109.405 6.13514 109.24 6.23243L104.928 9.32973L109.763 13.3838C109.795 13.4054 109.819 13.4363 109.833 13.4722C109.846 13.5081 109.848 13.5472 109.838 13.5841C109.827 13.621 109.806 13.6538 109.775 13.678C109.745 13.7022 109.708 13.7165 109.669 13.7189H109.053C108.978 13.7221 108.904 13.7093 108.834 13.6813C108.765 13.6533 108.703 13.6108 108.652 13.5568L104.015 9.66487V13.4486C104.021 13.4833 104.018 13.5187 104.007 13.5521C103.996 13.5855 103.977 13.6158 103.952 13.6406C103.927 13.6654 103.896 13.684 103.862 13.6948C103.828 13.7056 103.792 13.7083 103.757 13.7027H103.344C103.313 13.7007 103.282 13.6924 103.253 13.6785C103.225 13.6645 103.2 13.6451 103.18 13.6214C103.159 13.5977 103.144 13.5702 103.134 13.5405C103.125 13.5109 103.121 13.4796 103.124 13.4486V0.259459Z" fill="#526EFF"/>
</svg>
