<svg width="338" height="67" viewBox="0 0 338 67" fill="none" xmlns="http://www.w3.org/2000/svg">
<g clip-path="url(#clip0_1_5069)">
<path fill-rule="evenodd" clip-rule="evenodd" d="M14.035 2.30391C6.75582 2.30391 0.830261 6.51516 0.830261 11.6944C0.830261 16.8702 6.75391 21.4118 14.035 21.4118C21.3161 21.4118 27.2379 16.8702 27.2379 11.6944C27.2398 6.51516 21.3161 2.30391 14.035 2.30391ZM64.2669 16.4826L64.1372 16.5147C63.9656 16.5594 63.7464 16.5827 63.449 16.5827C62.7054 16.5827 62.3603 16.2683 62.3603 15.5897V11.3266H64.1982L64.2345 9.36558H62.3622V6.47049H59.897V9.36558H58.6082V11.3266H59.897V15.9432C59.897 17.7721 60.9151 18.6651 63.018 18.6651C63.6968 18.6651 64.1125 18.5918 64.4804 18.5168L64.5929 18.4972L64.2669 16.4826ZM28.6925 18.5097L36.6867 6.47233H40.618V18.5115H38.0385L38.0365 15.411H33.4494C33.3808 15.5128 31.4094 18.5097 31.4094 18.5097H28.6925ZM91.5746 18.5097C90.9646 18.5097 90.5371 18.1114 90.5371 17.5185C90.5371 16.9273 90.9696 16.5219 91.5746 16.5219C92.1863 16.5219 92.6113 16.9237 92.6113 17.5185C92.6096 18.1096 92.1771 18.5097 91.5746 18.5097ZM91.5746 16.638C91.0805 16.638 90.688 16.9541 90.688 17.5185C90.688 18.0775 91.0805 18.3936 91.5746 18.3936C92.0721 18.3936 92.4646 18.0775 92.4646 17.5185C92.4646 16.9541 92.068 16.638 91.5746 16.638ZM91.5305 17.5792L91.8813 18.0489L92.0838 18.006L91.7438 17.5577C91.8904 17.5149 91.9821 17.4113 91.9821 17.2542C91.9821 17.0487 91.8188 16.9345 91.5705 16.9345H91.2138V18.0328H91.4163V17.5792H91.5305ZM91.5688 17.1042H91.4163V17.4292H91.5613C91.693 17.4292 91.7763 17.3792 91.7763 17.2667C91.7746 17.1595 91.7021 17.1042 91.5688 17.1042ZM38.0328 13.2786H34.8793C35.0757 12.9857 38.0328 8.48508 38.0328 8.48508V13.2786ZM44.9555 6.47233H42.4483V18.5115H44.9555V6.47233ZM46.78 6.47233H49.2833V18.5115H46.78V6.47233ZM53.1879 11.773C53.1517 12.3052 53.4376 12.491 54.8009 12.825C57.0735 13.3732 58.1469 13.8483 58.185 15.8432C58.1964 16.6397 57.9505 17.2809 57.4529 17.756C56.8141 18.3614 55.7808 18.6722 54.3814 18.6722C52.9381 18.6722 51.5674 18.2382 50.7666 17.8257L50.6922 17.7863L51.0392 15.77L51.188 15.8629C52.2175 16.4933 53.4034 16.8559 54.4558 16.8559C55.4605 16.8559 55.8399 16.6308 55.8475 16.0379C55.859 15.3771 55.5577 15.1735 54.0783 14.8324C51.84 14.293 50.8962 13.7679 50.8524 11.9123C50.839 11.2247 51.0945 10.6068 51.5921 10.1282C52.2194 9.52808 53.1936 9.19766 54.3375 9.19766C55.5272 9.19766 56.6464 9.41024 57.5806 9.81024L57.6625 9.84599L57.3175 11.8552L57.1744 11.7784C56.2632 11.2997 55.2031 11.014 54.3375 11.014C53.636 11.014 53.2165 11.2908 53.1879 11.773ZM65.9313 9.87816C66.8674 9.53341 68.0437 9.17799 69.6033 9.17799C72.099 9.17799 73.2581 10.1549 73.2639 12.2445V18.5115H71.098C71.098 18.5115 70.9703 17.7702 70.9226 17.5042C70.0495 18.2989 69.1038 18.6882 67.9636 18.6882C66.3164 18.6882 65.2545 17.6988 65.2545 16.1629C65.2545 14.0841 67.0561 12.9017 70.7586 12.5446V12.3088C70.7586 11.4837 70.2934 11.1015 69.3059 11.1015C68.3793 11.1015 67.4279 11.3194 66.305 11.7837L66.1639 11.8409L65.8416 9.91024L65.9313 9.87816ZM68.7358 16.8559C68.1181 16.8559 67.7368 16.5022 67.7368 15.9325C67.7368 14.9199 68.7796 14.2573 70.7549 14.0091V15.9915C70.1429 16.5541 69.447 16.8559 68.7358 16.8559ZM79.5612 16.5147L79.6889 16.4826L80.013 18.4972L79.9025 18.5168C79.5516 18.5901 79.117 18.6651 78.4401 18.6651C76.3372 18.6651 75.3115 17.7721 75.3115 15.9432V11.3266H74.0303V9.36558H75.3115V6.47049H77.7805V9.36558H79.6565L79.6241 11.3266H77.7824V15.5897C77.7824 16.2683 78.1313 16.5827 78.8768 16.5827C79.1684 16.5827 79.3896 16.5594 79.5612 16.5147ZM88.2838 15.7772C87.163 16.5058 86.2455 16.8202 85.2088 16.8202C83.8621 16.8202 83.0271 15.9665 82.8843 14.4823H88.7263L88.7505 13.8572C88.7505 10.7586 87.3763 9.18341 84.6596 9.17799C83.4655 9.17449 82.4877 9.52633 81.7518 10.2175C80.8538 11.0533 80.381 12.3535 80.381 13.9644C80.381 16.8809 82.1408 18.6882 84.9621 18.6882C86.3405 18.6882 87.5913 18.3275 88.6805 17.6256L88.7413 17.5881L88.4363 15.6753L88.2838 15.7772ZM84.6038 10.8693C83.6413 10.8693 83.0313 11.623 82.9186 12.9339H86.2955C86.2438 11.9642 85.9005 10.8693 84.6038 10.8693ZM2.60526 11.7052C2.60526 16.5344 7.73388 20.7707 14.037 20.7707C20.3419 20.7707 25.4686 16.5344 25.4686 11.7052C25.4686 6.87416 20.3419 2.94508 14.037 2.94508C7.73388 2.94508 2.60526 6.87416 2.60526 11.7052Z" fill="#151515"/>
<path fill-rule="evenodd" clip-rule="evenodd" d="M9.46572 4.27466C9.50047 4.30741 9.61247 4.41291 9.61247 4.41474L10.1533 4.88066C10.1533 4.88424 10.4623 5.15541 10.4623 5.15541C10.6902 5.36107 10.7443 5.46657 10.7365 5.50849C10.728 5.54424 10.693 5.56257 10.6568 5.58166L10.6439 5.58849C10.6033 5.61032 10.5395 5.62491 10.5395 5.62491L10.5145 5.81782L10.642 5.81232C11.3546 5.79599 12.0248 6.25091 12.4594 6.63674C13.2126 7.31374 13.7824 8.41107 13.908 9.43557L14.497 12.3218L14.7191 12.7658L14.7616 12.8568L14.8582 13.0461C14.9413 13.2336 15.0707 13.401 15.0823 13.4119C15.0958 13.4247 15.3875 13.643 15.3875 13.643L15.8124 14.0525L15.9379 14.1798L16.1407 14.3709C16.1561 14.3818 16.7568 14.4547 16.7568 14.4547C17.8017 14.6184 17.7554 15.1643 17.7554 15.1643C17.7554 15.1643 18.3773 14.2654 16.894 13.9506C16.894 13.9506 16.4265 13.8668 16.4169 13.8668V13.865C16.4169 13.8541 16.2508 13.6412 16.2508 13.6412L16.1948 13.5829C16.1851 13.572 15.7428 13.1607 15.7428 13.1607L15.54 12.9787C15.54 12.9752 15.3546 12.5111 15.3546 12.5111L15.092 11.9123C15.026 11.7329 14.9839 11.4477 14.9262 11.0567L14.922 11.0279C14.9181 11.0116 14.8756 10.7349 14.8756 10.7349L14.6805 9.52474C14.6825 9.50474 14.725 9.28816 14.725 9.28816C14.81 8.83507 14.9895 8.33282 15.2619 7.79416C15.5883 7.14807 16.2605 6.72224 16.2701 6.71866C16.7723 6.42566 17.5081 6.26366 17.904 6.19274C18.0547 6.17816 18.103 6.09441 18.13 6.01074L18.1475 5.96157L18.0972 5.95432C17.879 5.91607 17.626 5.84691 17.6066 5.80874C17.6028 5.80141 17.5989 5.78507 17.5989 5.77232C17.5989 5.73591 17.6279 5.67766 17.68 5.60307C17.682 5.60307 18.0025 5.31191 18.0025 5.31191L18.19 5.13724C18.19 5.13724 18.974 4.42199 19.0784 4.32741L18.3502 4.09624C18.2536 4.18907 17.5448 4.88241 17.5448 4.88241L17.5208 4.90674C16.9938 5.43932 16.407 6.03232 16.1349 6.13807C15.4589 6.39832 14.7655 7.02074 14.4912 7.61757C14.4912 7.61941 14.3715 7.91241 14.3058 8.07257C14.1011 7.51574 13.8442 7.05532 13.4946 6.65307C13.1122 6.22182 12.6448 5.89791 12.0635 5.67591C11.7486 5.39382 10.7115 4.50024 10.1494 4.06532L9.46572 4.27466ZM13.85 12.3036C13.85 12.3036 14.0045 12.5729 13.9234 12.8477L14.9471 14.4037L15.341 14.5657L15.4647 14.6348L15.9437 14.9151C15.9437 14.9151 16.3106 15.148 16.3106 15.1534L16.9925 15.2426C17.5487 15.3027 17.738 15.481 17.8751 15.6667C18.242 16.2035 17.6839 16.7002 17.6839 16.7002C17.6839 16.7002 17.908 16.2762 17.4907 15.9924C17.371 15.9123 17.1392 15.7722 16.7414 15.7412L16.0808 15.7012L16.048 15.6921L15.6057 15.4137L15.1228 15.1425L14.9645 15.0588C14.9645 15.0588 14.5434 14.835 14.5164 14.8095L14.3116 14.5492C14.3116 14.5492 14.2479 14.4564 14.2479 14.4547L13.176 13.0097L13.257 12.9678C13.5294 12.8022 13.7051 12.6293 13.7708 12.4783L13.85 12.3036ZM13.3247 15.9032L13.3942 15.9869C13.4232 16.0106 13.8558 16.1725 13.8558 16.1725C14.1455 16.2836 14.5415 16.4546 14.725 16.5602L15.2136 16.8313C15.2293 16.8372 15.3214 16.835 15.4475 16.8321C15.6324 16.8277 15.8902 16.8216 16.0866 16.8367C16.5019 16.8677 16.8244 17.0151 16.9925 17.2444C17.2185 17.5465 16.9441 17.8704 16.9441 17.8704C17.0041 17.8413 17.4734 17.5611 17.4405 17.1134C17.4096 16.6839 17.0156 16.2817 15.5535 16.2981C15.5535 16.2945 15.1518 16.0742 15.1518 16.0742L15.034 16.0087L14.385 15.6957C14.385 15.6957 13.8577 15.5265 13.8558 15.5265C13.8558 15.5083 13.7322 15.3082 13.7322 15.3082C13.5751 15.0419 13.363 14.7788 13.1714 14.5409L13.118 14.4747L13.0543 14.4018C13.0543 14.4018 12.695 13.9342 12.6525 13.8759C12.7665 13.6448 12.6699 13.3118 12.6699 13.3118C12.6699 13.3118 12.61 13.4228 12.5096 13.5411C12.4092 13.6612 12.1445 13.8596 11.9591 13.9542L11.8606 14.0142L13.1875 15.7212L13.3247 15.9032ZM11.6443 16.6202L11.8741 16.8404C11.8741 16.8422 12.3377 17.0842 12.3377 17.0842L12.7761 17.3099L12.8321 17.339L13.1547 17.5082L13.6994 17.7885C13.7322 17.7976 13.7979 17.7976 13.7979 17.7976L14.497 17.7557C14.8988 17.7485 15.3662 17.7557 15.681 17.8904C16.0267 18.0578 15.9089 18.3599 15.9089 18.3599C15.9089 18.3599 16.2662 18.1197 16.1986 17.834C16.1639 17.592 15.8548 17.2735 14.835 17.2171C14.5145 17.1989 14.0315 17.2407 14.0315 17.2407H13.9871C13.9871 17.2335 13.5294 16.9568 13.5294 16.9568L13.3382 16.8532C13.3111 16.8422 12.7047 16.5402 12.7047 16.5402C12.7047 16.5402 12.3203 16.3982 12.3184 16.3963C12.3184 16.3854 11.9746 15.9323 11.9746 15.9323L11.849 15.7649L11.4821 15.2662L11.3256 15.0497C11.316 15.037 11.1151 14.744 11.1151 14.744C11.1325 14.7477 11.3237 14.471 11.3025 14.1762C11.2824 14.206 11.2665 14.2187 11.2009 14.2711C11.1783 14.2892 11.1498 14.312 11.1132 14.3418C10.9683 14.4528 10.5395 14.6348 10.2518 14.7057L10.1224 14.7385L11.146 16.0051L11.6443 16.6202ZM12.2334 18.8422C11.2812 19.299 10.754 18.9022 10.9857 18.4218C11.2967 18.6183 11.7776 18.7621 12.2334 18.8422ZM10.5995 18.1597C9.95047 18.3272 9.71097 17.8977 9.86355 17.5483C9.98722 17.683 10.4449 18.0706 10.5995 18.1597ZM4.94422 7.34099C4.94422 7.34099 4.81676 7.25366 4.76654 7.22091L5.28995 6.69682C5.32086 6.71316 5.94084 7.06074 5.94084 7.06074C6.17454 7.14624 6.48357 7.05349 6.75397 6.93516L6.81964 6.90607C7.18854 6.73499 7.55552 6.69682 7.55552 6.69682L7.74479 6.77141L7.59993 6.87332C7.27546 7.10807 7.00699 7.36282 6.80805 7.63032C6.80805 7.63032 6.77908 7.68674 6.77715 7.68674L6.60718 8.06891L6.40245 8.56941C6.06446 9.37007 5.77474 10.0616 5.71873 10.9424C5.71873 10.9424 5.73032 11.0571 5.73032 11.0588L5.83268 11.5083C6.02003 12.3364 6.21124 13.1953 6.36382 14.3546C6.36382 14.3546 6.38314 14.4237 6.38314 14.4255C7.16922 15.3099 7.50916 15.976 7.91282 16.7694C7.91282 16.7694 8.0538 17.046 8.05772 17.0533C8.07505 17.1097 8.13497 17.279 8.21222 17.2935C8.24113 17.2953 8.29722 17.2826 8.40147 17.1807C8.91522 16.6402 8.95388 15.7248 8.48647 15.1334C8.48647 15.1334 8.26047 14.9623 8.26438 14.9642L8.2373 14.9514L8.21222 14.9096L8.21797 14.8805C8.32422 14.3637 8.31647 13.4447 7.85295 13.1717L7.739 13.1043C7.739 13.1043 7.91282 12.9933 7.91282 12.9915L7.9203 12.9866C8.51322 12.5953 9.39963 12.0105 9.30538 11.1098L9.28997 10.9624L9.52555 11.0662C9.52555 11.0662 9.67238 11.4519 9.67813 11.7049C9.68588 12.2399 9.37488 12.7058 8.7588 13.1589C8.8863 13.3537 8.95388 13.7031 8.95388 14.0488C8.95388 14.3036 8.91713 14.5438 8.85538 14.7167C8.90947 14.7567 9.09297 14.9042 9.23197 15.1352C9.3788 15.3827 9.4618 15.6757 9.46955 15.9632L9.7013 16.249L9.70613 16.2549C10.5311 17.2805 10.8409 17.6656 11.851 18.0724C12.7626 18.4363 14.4836 18.7057 15.3507 18.5001L15.4492 18.4782L15.401 18.5601C15.401 18.5601 15.2774 18.7348 15.26 18.7494C14.8563 18.9514 13.8848 19.0678 12.865 18.9587C12.8418 18.9823 12.7626 19.0624 12.7626 19.0624C12.726 19.1061 12.7085 19.1552 12.7085 19.2007C12.7085 19.2015 12.7085 19.2031 12.7083 19.2053C12.7055 19.2493 12.6855 19.554 13.062 19.5937C14.1397 19.6938 15.7969 19.4045 16.6545 18.9859C17.4405 18.6056 17.7708 18.1797 18.2401 17.5702L18.2865 17.5064C18.2865 17.5064 18.5221 17.2098 18.528 17.2189C18.528 17.2152 18.5125 16.8295 18.5125 16.8295C18.5395 16.4673 18.6766 15.956 19.1711 15.5538C19.1537 15.4592 19.146 15.3445 19.146 15.2098C19.146 14.7731 19.2329 14.2053 19.4299 13.9724L19.4106 13.9506C18.9567 13.4592 18.6477 12.9151 18.5009 12.3255C18.4545 12.1544 18.3425 11.6757 18.3425 11.128C18.3425 10.9242 18.3599 10.7131 18.4024 10.5057C18.4024 10.5057 18.4642 10.4147 18.4836 10.4001L18.6477 10.3346L18.6535 10.4747C18.6979 11.5411 19.2155 12.9697 20.274 13.7431L20.3666 13.8104L20.272 13.8759C19.9011 14.1216 19.7331 14.986 19.8375 15.5502C19.851 15.5975 19.8741 15.6793 19.8123 15.723C19.4338 16.0015 19.2078 16.4437 19.1865 16.9387C19.1711 17.3445 19.3005 17.7267 19.5168 17.9104C19.5709 17.9577 19.6713 18.0451 19.7119 18.0378C19.7235 18.036 19.7525 18.0251 19.793 17.9468C20.0537 17.3499 20.666 16.3491 21.5294 15.501L21.5487 15.4482C21.6366 15.0217 22.0179 14.0065 22.3349 13.1627L22.3656 13.0807C22.3656 13.0807 22.6766 12.2545 22.6786 12.2508C22.6786 12.2508 22.6882 12.1872 22.6882 12.1781C22.6825 11.5466 22.5685 10.8077 22.3425 9.91057L22.076 9.02974L22.0065 8.85141L21.9832 8.78591L21.8558 8.47657L21.8365 8.43291L21.7399 8.21999C21.7399 8.21999 21.6414 8.04707 21.6375 8.03982L21.6214 8.01066C21.4597 7.71782 21.3384 7.49816 21.1102 7.24274L20.9963 7.11899L21.0697 7.10257C21.0697 7.10257 21.1798 7.07891 21.1933 7.07891C21.1933 7.07891 21.2956 7.09166 21.3072 7.09349C21.3072 7.09349 21.3671 7.11899 21.3865 7.13174C21.3865 7.13174 21.7205 7.31007 21.7573 7.32282C22.0103 7.41741 22.4159 7.31374 22.8176 7.05532C22.8176 7.05532 23.1691 6.82599 23.2039 6.80416L23.7563 7.37374C23.7466 7.37741 23.7215 7.39199 23.7215 7.39199C23.2715 7.67766 22.7114 8.03432 22.5182 8.30366L22.6612 8.54932C22.6675 8.56057 22.6739 8.57182 22.6803 8.58307C22.7983 8.79107 22.9228 9.01066 23.0455 9.36282C23.3101 10.0944 23.4492 10.9606 23.4492 11.8668C23.4492 12.0652 23.4415 12.2672 23.428 12.4692C23.428 12.4692 23.3893 12.5875 23.3893 12.5912L23.1904 13.0971C23.165 13.1611 23.1375 13.23 23.1085 13.3028C22.818 14.0317 22.3715 15.1521 22.2363 15.6302C22.2363 15.6302 22.1726 15.7467 22.1726 15.7485C21.4965 16.4892 20.6332 17.5956 20.2372 18.4927C20.1561 18.6602 20.0345 18.7494 19.88 18.7767C19.6617 18.8131 19.3951 18.6966 19.1112 18.4346C18.9992 18.3217 18.9007 18.1743 18.806 18.016C18.7893 18.0379 18.7685 18.0628 18.751 18.0838C18.7322 18.1062 18.7173 18.1241 18.7153 18.1288C18.4295 18.511 17.9446 19.0551 17.0542 19.4827C16.6332 19.6884 15.5845 20.0214 14.4295 20.1106C13.6607 20.1761 13.1914 20.1415 12.8457 20.076C12.498 20.0142 12.133 19.8867 12.0229 19.4537C11.1711 19.8103 10.2653 19.2735 10.5105 18.6056C10.0876 18.7621 8.89205 18.3545 9.56805 17.2517C9.55605 17.2387 9.51663 17.191 9.47105 17.1359C9.41405 17.0668 9.34747 16.9862 9.31313 16.9477C9.13738 17.3682 8.85347 17.7157 8.45172 17.9632C8.27397 18.0524 8.00167 18.0469 7.85875 17.9632C7.74672 17.8959 7.65208 17.7557 7.57676 17.5483C7.5696 17.5382 7.56243 17.5252 7.55253 17.5074C7.54642 17.4964 7.53926 17.4835 7.53041 17.4682C6.74625 15.9578 6.09729 15.1662 5.69942 14.7767C5.63567 14.7403 5.59512 14.6457 5.57967 14.4892C5.51013 13.9378 5.34403 13.1698 5.19724 12.4947L5.17793 12.4001C5.17793 12.4001 4.91719 11.1152 4.91526 11.1026L4.90947 11.0097C4.92684 10.4365 5.23201 9.71041 5.53524 8.98974C5.53524 8.98974 5.86745 8.12532 5.88677 8.07624C5.76702 7.98157 4.96161 7.35191 4.94422 7.34099Z" fill="#151515"/>
</g>
<g clip-path="url(#clip1_1_5069)">
<mask id="mask0_1_5069" style="mask-type:luminance" maskUnits="userSpaceOnUse" x="113" y="5" width="102" height="13">
<path d="M214.487 5.92285H113.385V17.9894H214.487V5.92285Z" fill="white"/>
</mask>
<g mask="url(#mask0_1_5069)">
<path d="M162.491 12.4696C163.569 12.3565 164.342 11.8442 164.777 10.935C165.134 10.1943 165.684 8.99447 165.688 8.98117C166.234 7.84571 166.067 7.15157 165.829 6.76347C165.473 6.18909 164.775 5.98506 164.245 5.98506H158.843L153.251 17.9606H156.059L158.2 13.2569H159.705C159.831 13.2645 159.953 13.3001 160.064 13.361C160.174 13.422 160.27 13.5069 160.343 13.6095C160.524 13.9111 160.475 14.3724 160.192 14.98C159.514 16.446 158.975 17.9651 158.975 17.9651H161.822C161.901 17.5691 162.017 17.1815 162.168 16.8074C162.388 16.2841 163.048 14.6296 163.048 14.6141C163.591 13.2724 162.918 12.7357 162.491 12.4696ZM162.194 10.4936C161.956 10.9993 161.591 11.2565 161.105 11.2565H159.146L160.632 7.99651H162.775C162.832 7.99918 162.887 8.01448 162.938 8.04132C162.988 8.06816 163.031 8.10587 163.065 8.15175C163.151 8.29369 163.12 8.53098 162.977 8.83924L162.487 9.87712L162.194 10.4936Z" fill="#151515"/>
<path d="M132.521 12.4693C133.599 12.354 134.367 11.8417 134.807 10.9324C135.164 10.1917 135.714 8.99195 135.721 8.97865C136.266 7.84318 136.099 7.14904 135.861 6.76095C135.505 6.19544 134.807 5.99141 134.275 5.99141H128.866L123.275 17.967H126.089L128.23 13.2632H129.738C129.863 13.2708 129.986 13.3064 130.096 13.3674C130.206 13.4283 130.302 13.5132 130.376 13.6158C130.558 13.9175 130.508 14.3787 130.224 14.9864C129.546 16.4523 129.007 17.9714 129.007 17.9714H131.854C131.932 17.5754 132.047 17.1878 132.198 16.8138C132.418 16.2904 133.078 14.636 133.078 14.6205C133.624 13.2721 132.948 12.7354 132.521 12.4693ZM132.224 10.4911C131.986 10.999 131.621 11.2451 131.137 11.2451H129.179L130.706 7.98512H132.805C132.862 7.98779 132.917 8.00308 132.967 8.02992C133.018 8.05677 133.061 8.09448 133.095 8.14036C133.181 8.28229 133.15 8.51958 133.007 8.82784L132.517 9.86572L132.224 10.4911Z" fill="#151515"/>
<path d="M145.706 8.96997C146.69 6.84541 145.576 5.92285 144.159 5.92285H140.749C139.314 5.92285 138.302 6.6059 137.65 8.0097C137.3 8.76372 136.717 10.0056 136.042 11.4227L134.616 14.4521C133.183 17.4904 135.327 18.0004 136.376 18.0004H138.531C140.689 18.0226 141.752 17.4083 142.586 15.6563C143.145 14.4854 143.919 12.8132 144.742 11.0413L145.706 8.96997ZM142.905 8.63288L140.044 14.7736C139.646 15.6208 139.384 15.765 138.766 15.765H137.529C137.309 15.765 136.869 15.7051 137.199 14.9799C137.679 13.9376 139.69 9.56874 140.102 8.69054C140.381 8.09176 140.672 7.972 141.05 7.972H142.59C142.883 7.9587 143.145 8.12058 142.905 8.63288Z" fill="#151515"/>
<path d="M150.384 11.3184L149.451 13.3144H150.93L150.098 15.1262C149.856 15.6518 149.691 15.7583 149.121 15.7583H147.652C147.211 15.7583 147.057 15.5365 147.321 14.9732C147.656 14.2591 150.296 8.70157 150.296 8.70157C150.596 8.06952 150.774 7.97416 151.236 7.97416H152.754C153.122 7.97416 153.32 8.14492 153.073 8.63947C153.018 8.74814 152.413 10.081 152.413 10.081L155.091 10.1009L155.701 8.7814C156.592 6.85201 155.795 5.94941 153.951 5.92279H151.042C150.35 5.90456 149.667 6.09286 149.08 6.46409C148.492 6.83533 148.027 7.37297 147.742 8.00964C147.211 9.14733 144.71 14.452 144.71 14.452C143.794 16.3926 144.324 18.0003 146.829 18.0003H149.064C150.851 18.0181 151.729 17.7364 152.545 15.9357L154.629 11.334L150.384 11.3184Z" fill="#151515"/>
<path d="M190.749 5.95375L185.151 17.947H188.036L193.669 5.95375H190.749Z" fill="#151515"/>
<path d="M200.821 5.95628L194.288 16.5214L197.593 5.95628H194.567L191.795 17.9474H195.698L203.856 5.95628H200.821Z" fill="#151515"/>
<path d="M178.475 13.7866L178.233 9.35126C178.205 8.81679 178.334 8.09161 179.305 8.09161H181.254L182.256 5.95375H178.933C176.292 5.95375 175.412 7.57489 175.507 9.47989C175.568 10.6442 175.727 14.432 175.727 14.432C175.767 15.3457 175.419 15.7626 174.572 15.7626H172.349L171.352 17.9382H174.895C177.245 17.9515 178.629 16.4058 178.475 13.7866Z" fill="#151515"/>
<path d="M184.877 9.35591C184.848 8.82145 184.978 8.09626 185.948 8.09626H187.898L188.899 5.9584H185.576C183.394 5.9584 182.025 7.16039 182.15 9.48454C182.214 10.6488 182.37 14.4367 182.37 14.4367C182.412 15.3503 182.064 15.7673 181.215 15.7673H179.05L178.053 17.9429H181.539C184.122 17.9429 185.253 16.08 185.116 13.778L184.877 9.35591Z" fill="#151515"/>
<path d="M168.569 12.5871H172.18L173.106 10.5912H169.482L170.635 8.10295H174.376L175.357 5.97618H168.84L163.279 17.9517H170.32L171.335 15.7806H167.064L168.569 12.5871Z" fill="#151515"/>
<path d="M199.254 17.9495H206.295L207.319 15.7806H203.039L204.544 12.5871H208.155L209.082 10.5912H205.457L206.61 8.10295H210.351L211.33 5.97618H204.815L199.254 17.9495Z" fill="#151515"/>
<path d="M124.84 11.7175C125.075 11.2274 125.542 10.2117 126.072 9.03187C127.003 6.95611 125.852 5.99584 124.631 5.99141H119.288L113.743 17.9847H116.625L118.562 13.7844C118.562 13.7844 120.19 13.7844 121.37 13.7844C123.167 13.7977 124.107 13.2411 124.84 11.7175ZM123.352 8.93651C122.833 10.0454 122.437 10.8748 122.393 10.9657C122.16 11.4669 121.825 11.6887 121.321 11.6887H119.512L121.222 7.95628H123.035C123.434 7.9585 123.717 8.16031 123.352 8.93651Z" fill="#151515"/>
<path d="M213.66 6.78976C213.662 6.74333 213.653 6.69721 213.631 6.65596C213.61 6.61473 213.578 6.57981 213.539 6.55468C213.458 6.51302 213.367 6.49462 213.276 6.50146H212.804V7.59256H212.937V7.08914H213.178L213.489 7.59256H213.645L213.319 7.08914C213.51 7.08471 213.66 7.00488 213.66 6.78976ZM213.143 6.98492H212.941V6.58795H213.251C213.386 6.58795 213.533 6.60791 213.533 6.77645C213.526 7.0093 213.29 6.98492 213.143 6.98492Z" fill="#151515"/>
<path d="M213.165 6.0714C212.974 6.07096 212.786 6.12787 212.626 6.23493C212.467 6.34198 212.343 6.49435 212.269 6.67274C212.196 6.85113 212.177 7.04751 212.214 7.23701C212.251 7.4265 212.343 7.60057 212.478 7.73717C212.614 7.87377 212.787 7.96674 212.975 8.00433C213.163 8.04191 213.358 8.0224 213.535 7.94826C213.711 7.87414 213.863 7.74872 213.969 7.58791C214.075 7.42711 214.132 7.23814 214.131 7.04496C214.131 6.78694 214.029 6.53965 213.848 6.35719C213.666 6.17474 213.421 6.07198 213.165 6.0714ZM213.165 7.90543C212.997 7.90412 212.834 7.85267 212.694 7.75757C212.555 7.66246 212.447 7.52797 212.384 7.37104C212.32 7.2141 212.304 7.04175 212.338 6.8757C212.372 6.70967 212.453 6.55736 212.572 6.438C212.691 6.31864 212.843 6.23755 213.009 6.20497C213.173 6.17239 213.344 6.18977 213.499 6.25492C213.654 6.32008 213.787 6.43007 213.88 6.57106C213.974 6.71206 214.023 6.87772 214.023 7.04718C214.023 7.16064 214.002 7.27303 213.958 7.37785C213.916 7.48266 213.853 7.57784 213.773 7.65786C213.692 7.73788 213.598 7.80116 213.494 7.84403C213.39 7.8869 213.278 7.90853 213.165 7.90765V7.90543Z" fill="#151515"/>
</g>
</g>
<g clip-path="url(#clip2_1_5069)">
<path fill-rule="evenodd" clip-rule="evenodd" d="M250.38 11.0594C250.845 10.9743 251.334 10.9274 251.841 10.9274C254.963 10.9274 257.482 12.6511 257.482 14.8147C257.482 16.9773 254.951 18.733 251.827 18.733C249.168 18.733 246.977 17.4622 246.386 15.7498C245.779 17.4622 243.55 18.733 240.891 18.733C237.766 18.733 235.29 16.9768 235.29 14.8147C235.29 12.6511 237.779 10.9274 240.903 10.9274C241.416 10.9274 241.913 10.9743 242.387 11.0615C241.381 10.3528 240.767 9.37747 240.767 8.29952C240.767 6.1338 243.257 4.41061 246.381 4.4101C249.505 4.4101 252.021 6.13328 252.021 8.299C252.021 9.37541 251.396 10.3507 250.38 11.0594ZM268.372 8.10094L268.846 5.71602L268.796 5.62009C268.314 5.31836 267.285 4.69583 265.486 4.69583C264.088 4.69583 262.701 5.10587 261.819 6.24726C261.149 7.1153 260.932 8.17521 260.932 8.91379C260.936 10.8194 262.139 11.5882 263.019 12.1503L263.039 12.1631L263.599 12.5005C264.408 12.9667 265.183 13.4469 265.184 14.4052C265.184 15.4754 264.213 16.1645 262.979 16.1655C262.634 16.1655 261.825 16.1068 260.983 15.5574C260.588 15.3021 260.324 15.0845 260.114 14.8183L260.01 14.8524L259.545 17.179L259.573 17.3322C259.902 17.5709 260.165 17.7478 260.71 17.9521C261.518 18.2466 262.358 18.3967 263.215 18.3967C266.714 18.3915 268.172 16.1598 268.175 13.9353C268.175 11.9887 266.827 11.1251 265.949 10.5627L265.934 10.5534L265.527 10.3275C264.479 9.71427 263.89 9.30372 263.888 8.46198C263.888 8.01687 264.071 7.61818 264.392 7.33812C264.711 7.05702 265.171 6.88836 265.724 6.88836C266.429 6.88836 267.12 7.13645 267.703 7.57486C267.965 7.77291 268.079 7.87452 268.268 8.13344L268.372 8.10094ZM308.931 7.18906L309.017 7.09571L309.437 4.99498L309.384 4.92483L306.647 4.99498H302.336L302.247 5.07956C301.689 8.15716 301.52 9.05924 300.93 11.8841L300.148 15.5198L299.636 18.095L299.672 18.1693L302.623 18.095L302.699 18.0253L303.269 15.0004L303.719 12.6712L307.145 12.6784L307.236 12.5933C307.435 11.7516 307.504 11.4787 307.801 10.5137L307.747 10.4302L304.145 10.5364L304.814 7.17926L308.931 7.18906ZM289.78 10.2331L289.672 10.3373L288.112 10.2981L287.39 13.6228C287.29 14.0395 287.069 15.0798 287.069 15.4151C287.067 15.7281 287.188 15.9417 287.357 16.0685C287.524 16.1969 287.733 16.2392 287.92 16.2398C288.256 16.2398 288.423 16.1687 288.615 16.0866C288.671 16.0628 288.729 16.038 288.794 16.0138L288.845 16.0603L288.462 17.9754L288.33 18.1007L288.226 18.1222C287.743 18.2226 287.361 18.3018 286.836 18.3018C285.385 18.2936 284.338 17.8175 284.332 16.1645C284.332 15.3908 284.652 13.9823 284.889 12.9352L285.465 10.2961L284.24 10.3368L284.167 10.2326L284.525 8.37275L284.636 8.31292H285.881L286.378 5.86354L286.475 5.75626C287.424 5.51907 287.859 5.37546 288.513 5.15926L288.514 5.15896L288.515 5.1586C288.72 5.09101 288.946 5.01633 289.216 4.92947L289.276 4.99549L288.9 6.57323L288.51 8.35006L290.108 8.30209L290.149 8.38358L289.78 10.2331ZM297.032 8.5739L297.002 8.62083C298.212 9.39088 298.295 10.7525 298.295 11.5184C298.295 12.3813 298.149 13.0828 298.015 13.696L297.91 13.7672C297.308 13.7625 296.809 13.7605 296.367 13.7605C295.058 13.7605 294.244 13.7807 292.73 13.8185L292.574 13.8223L292.525 13.8239L292.52 13.8729L292.514 13.9453C292.499 14.1254 292.486 14.2949 292.486 14.4784C292.486 15.0427 292.659 15.4981 293.014 15.806C293.37 16.1165 293.897 16.2775 294.59 16.2775C295.624 16.2775 296.535 15.805 297.369 15.1582L297.455 15.2221C297.386 15.4654 297.258 16.1476 297.148 16.7279L297.148 16.7289L297.147 16.7309C297.076 17.1103 297.013 17.4456 296.98 17.5855L296.909 17.6788C296.485 17.9207 295.703 18.3389 294.052 18.34C291.674 18.3369 290.939 17.3616 290.635 16.9557C290.019 16.1243 289.867 15.2031 289.867 14.2153C289.867 12.8486 290.253 11.3132 291.071 10.1212C291.893 8.93288 293.144 8.08701 294.894 8.08547C295.666 8.08547 296.454 8.25515 296.999 8.62083L297.032 8.5739ZM295.922 12.0213L295.931 11.9764L295.935 11.9507C295.984 11.6794 296.034 11.4033 296.033 11.1223C296.033 11.0527 296.03 10.98 296.019 10.9109C295.997 10.7174 295.938 10.5328 295.84 10.3703C295.813 10.3224 295.785 10.2806 295.751 10.2378C295.554 9.99381 295.247 9.8298 294.827 9.8298C294.53 9.8298 294.07 9.91026 293.585 10.4291C293.531 10.4838 293.481 10.5426 293.433 10.5998C293.16 10.9366 293.006 11.3039 292.899 11.6412C292.863 11.7485 292.832 11.8542 292.803 11.9519L292.793 11.9868L292.786 12.0094L292.771 12.061L294.338 12.0409L295.922 12.0213ZM314.832 8.72966C314.26 8.3351 313.346 8.1324 312.092 8.1324C311.473 8.1324 310.849 8.19068 310.222 8.30673C309.661 8.41092 309.314 8.49911 309.017 8.58215L308.936 8.66261L308.529 10.6994L308.661 10.7767C308.922 10.6592 309.305 10.5147 309.811 10.3399C310.328 10.162 310.804 10.0727 311.233 10.0727C311.862 10.0727 312.341 10.1568 312.667 10.3306C313.002 10.507 313.243 10.8943 313.241 11.3204C313.241 11.4256 313.232 11.5179 313.218 11.6015C313.201 11.6799 313.191 11.7376 313.187 11.7706L313.18 11.814C313.18 11.814 312.977 11.8279 312.761 11.8459C312.619 11.8594 312.437 11.8795 312.227 11.9032C311.883 11.9393 311.488 11.9868 311.143 12.0435L311.102 12.0502C310.24 12.1899 307.976 12.5572 307.289 14.0565C306.556 15.3052 306.681 16.9618 307.401 17.768C307.654 18.0532 308.041 18.3214 308.564 18.4245L308.563 18.4261C308.578 18.4311 308.615 18.4368 308.646 18.4414L308.66 18.4437C308.671 18.4453 308.679 18.4468 308.684 18.4478C310.697 18.7521 312.142 17.0377 312.142 17.0377L311.926 18.0944L312.014 18.1688L314.276 18.0944L314.37 18.0146L315.701 11.4787C315.729 11.341 315.752 11.178 315.769 10.9929C315.783 10.8051 315.793 10.653 315.793 10.541C315.791 9.70446 315.404 9.12371 314.832 8.72966ZM311.184 16.3924C311.963 16.0948 312.504 15.2645 312.504 15.2645L312.843 13.4964C312.843 13.4964 310.486 13.5495 309.772 14.3784C309.069 15.199 309.439 15.9283 309.617 16.1593C309.838 16.4548 310.402 16.688 311.184 16.3924ZM323.485 7.99934L322.931 10.8103L322.814 10.9253C322.656 10.8974 322.455 10.8748 322.216 10.8748C321.469 10.8748 320.408 11.1089 319.577 12.1848L319.568 12.1936L318.424 18.0264L318.343 18.096L315.859 18.1698L315.794 18.1059L317.748 8.31395L317.855 8.21132L320.314 7.9787L320.411 8.08134L320.127 9.4997L320.248 9.39243C320.762 8.93701 321.218 8.62238 321.727 8.33871C322.232 8.05503 322.738 7.91423 323.247 7.91423C323.296 7.91423 323.346 7.91423 323.399 7.91629L323.485 7.99934ZM336.515 12.2668C336.649 11.669 336.785 11.0548 336.785 10.4632C336.781 8.43723 335.299 8.09268 334.5 8.0865C332.919 8.05452 331.438 9.45844 331.438 9.45844C331.438 9.45844 331.126 8.05916 329.637 8.0865C328.041 8.11744 326.789 9.45844 326.789 9.45844L327.064 8.08134L326.959 7.9787L324.365 8.2175L324.267 8.31395L322.318 18.096L322.374 18.1822L324.588 18.1094L324.989 18.096L325.078 18.0264L326.483 11.0001C326.483 11.0001 327.157 10.3569 327.806 10.3569C328.635 10.3569 328.79 11.1295 328.79 11.4179C328.79 11.6108 328.293 14.0529 327.905 15.9283H327.912L327.461 18.0956L327.494 18.1435L327.524 18.1832L328.019 18.1672L329.021 18.1342L330.14 18.096L330.226 18.0264L331.631 11.0001C331.631 11.0001 332.305 10.3569 332.956 10.3569C333.784 10.3569 333.94 11.1295 333.94 11.4179C333.94 11.734 332.607 18.0956 332.607 18.0956L332.671 18.1853L335.272 18.0956L335.361 18.0259L336.515 12.2668ZM282.484 8.72966C281.912 8.3351 280.999 8.1324 279.746 8.1324C279.125 8.1324 278.502 8.19068 277.877 8.30673C277.315 8.41092 276.968 8.49911 276.67 8.58215L276.59 8.66261L276.183 10.6994L276.314 10.7767C276.575 10.6592 276.959 10.5147 277.464 10.3399C277.981 10.162 278.457 10.0727 278.886 10.0727C279.515 10.0727 279.991 10.1568 280.321 10.3306C280.655 10.507 280.894 10.8943 280.894 11.3204C280.894 11.4256 280.886 11.5179 280.872 11.6015C280.854 11.6799 280.845 11.7376 280.84 11.7706L280.834 11.814C280.834 11.814 280.631 11.8279 280.416 11.8459C280.274 11.8594 280.09 11.8795 279.882 11.9032C279.537 11.9393 279.142 11.9868 278.798 12.0435L278.758 12.05C277.896 12.1895 275.631 12.5564 274.943 14.0565C274.21 15.3052 274.336 16.9618 275.055 17.768C275.307 18.0532 275.695 18.3214 276.218 18.4245L276.217 18.4261C276.231 18.431 276.268 18.4366 276.298 18.4412C276.315 18.4439 276.331 18.4463 276.337 18.4478C278.351 18.7521 279.796 17.0377 279.796 17.0377L279.579 18.0944L279.667 18.1688L281.931 18.0944L282.024 18.0146L283.354 11.4787C283.383 11.341 283.406 11.178 283.424 10.9929C283.437 10.8051 283.447 10.653 283.447 10.541C283.445 9.70446 283.059 9.12371 282.484 8.72966ZM278.837 16.3924C279.617 16.0948 280.157 15.2645 280.157 15.2645L280.499 13.4964C280.499 13.4964 278.139 13.5495 277.428 14.3784C276.723 15.199 277.093 15.9283 277.27 16.1593C277.493 16.4548 278.056 16.688 278.837 16.3924ZM274.705 10.2331L274.596 10.3373L273.038 10.2981L272.316 13.6228C272.214 14.0395 271.993 15.0798 271.993 15.4151C271.992 15.7281 272.112 15.9417 272.28 16.0685C272.449 16.1969 272.657 16.2392 272.843 16.2398C273.181 16.2398 273.348 16.1684 273.541 16.086C273.596 16.0624 273.654 16.0379 273.718 16.0138L273.77 16.0603L273.387 17.9754L273.255 18.1007L273.16 18.1204C272.674 18.2217 272.289 18.3018 271.76 18.3018C270.312 18.2936 269.262 17.8175 269.257 16.1645C269.257 15.3998 269.57 14.0148 269.806 12.9718L269.814 12.9352L270.39 10.2961L269.164 10.3368L269.09 10.2326L269.45 8.37275L269.561 8.31292H270.804L271.303 5.86354L271.4 5.75626C272.345 5.51961 272.78 5.37612 273.433 5.16075C273.64 5.0926 273.868 5.01725 274.142 4.92947L274.2 4.99549L273.823 6.57323L273.437 8.35109L275.031 8.30313L275.075 8.38461L274.705 10.2331ZM243.55 9.91697C244.259 10.3445 245.254 10.6164 246.375 10.6164C247.494 10.6164 248.5 10.3445 249.219 9.91697C249.941 9.48991 250.366 8.91328 250.368 8.30467C250.366 7.69452 249.944 7.12355 249.225 6.70011C248.508 6.27718 247.506 6.01104 246.383 6.00898C245.263 6.01104 244.265 6.27718 243.553 6.70011C242.841 7.12408 242.423 7.69297 242.421 8.30313C242.423 8.91483 242.84 9.48991 243.55 9.91697ZM240.889 12.5257C242.009 12.5257 243.012 12.7924 243.729 13.2158C244.447 13.6398 244.871 14.2087 244.873 14.8168C244.871 15.427 244.446 16.002 243.726 16.4291C243.007 16.8556 242.001 17.1274 240.88 17.13C239.759 17.128 238.763 16.8556 238.055 16.4311C237.343 16.002 236.927 15.427 236.925 14.8147C236.927 14.2046 237.346 13.6377 238.058 13.2138C238.77 12.7924 239.767 12.5257 240.889 12.5257ZM254.695 13.2158C253.977 12.7924 252.974 12.5257 251.853 12.5257C250.732 12.5257 249.734 12.7924 249.024 13.2138C248.311 13.6372 247.893 14.2046 247.892 14.8163C247.893 15.4264 248.309 16.0015 249.021 16.4307C249.729 16.8551 250.725 17.1274 251.845 17.1295C252.965 17.1269 253.972 16.8551 254.691 16.4286C255.412 16.0015 255.837 15.4264 255.838 14.8163C255.837 14.2087 255.414 13.6398 254.695 13.2158ZM241.786 8.29745C241.789 7.32213 242.547 6.66349 242.991 6.35661C243.88 5.73923 245.084 5.40656 246.381 5.40656C247.683 5.40656 248.891 5.74078 249.787 6.35661C250.235 6.66556 251.002 7.32523 251.005 8.29745C250.991 9.92315 248.855 11.2172 246.368 11.2208C245.076 11.2208 243.877 10.883 242.992 10.261C242.221 9.72097 241.786 9.0252 241.786 8.29745ZM237.512 16.7746C238.399 17.3977 239.597 17.736 240.891 17.736C243.377 17.7324 245.514 16.4383 245.53 14.8147C245.526 13.8415 244.758 13.1828 244.309 12.8744C243.414 12.258 242.205 11.9238 240.903 11.9218C239.606 11.9238 238.402 12.2586 237.512 12.8718C237.07 13.1792 236.312 13.8394 236.308 14.8147C236.308 15.5409 236.744 16.2367 237.512 16.7746ZM246.387 13.8822C246.142 13.1926 245.634 12.5768 244.94 12.0894C245.395 12.1724 245.873 12.2168 246.365 12.2168C246.872 12.2168 247.361 12.1704 247.827 12.0847C247.136 12.5727 246.627 13.189 246.387 13.8822ZM248.45 16.7746C249.336 17.3977 250.535 17.736 251.827 17.736C254.314 17.7324 256.451 16.4383 256.463 14.8147C256.461 13.843 255.696 13.1828 255.248 12.8744C254.35 12.258 253.142 11.9238 251.84 11.9218C250.543 11.9238 249.338 12.2586 248.451 12.8718C248.006 13.1807 247.246 13.8394 247.243 14.8147C247.243 15.5409 247.681 16.2367 248.45 16.7746Z" fill="#151515"/>
</g>
<g clip-path="url(#clip3_1_5069)">
<path d="M61.8608 47.5847C61.8608 43.1177 64.3691 42.0639 68.5841 42.0639H75.6237C80.9347 42.0639 81.6721 43.9804 81.6721 46.9522V47.4375H77.0767C77.0767 45.9203 76.2124 45.7309 74.7171 45.7309H69.6378C67.2767 45.7309 66.666 46.2992 66.666 48.9125V50.8086C66.666 53.4234 67.2767 53.9917 69.6378 53.9917H74.6325C75.8554 53.9917 77.0767 53.8023 77.0767 52.3273V51.8842H71.2599V48.723H81.7567V53.0648C81.7567 57.4473 79.4801 57.6587 74.2114 57.6587H68.5841C64.3691 57.6587 61.8608 56.605 61.8608 52.1379V47.5847Z" fill="#292929"/>
<path d="M82.9153 42.2315H99.6061V45.7717H87.5937V48.2174H98.9751V51.3786H87.5937V53.8227H99.8801V57.4897H82.9153V42.2315Z" fill="#292929"/>
<path d="M101.296 42.2314H105.976V57.4895H101.296V42.2314Z" fill="#292929"/>
<path d="M107.389 47.5845C107.389 43.1174 109.897 42.0637 114.112 42.0637H119.613C126.272 42.0637 127.138 43.4963 127.094 47.8162H122.416V47.395C122.416 46.299 121.615 45.9827 120.223 45.9827H115.124C112.658 45.9827 112.194 47.143 112.194 49.0391V50.6831C112.194 52.8955 112.658 53.7394 114.872 53.7394H119.866C121.974 53.7394 122.605 53.5281 122.605 51.6304H127.283V53.0646C127.283 55.6355 126.356 57.6585 121.656 57.6585H114.112C109.897 57.6585 107.389 56.6047 107.389 52.1377V47.5845Z" fill="#292929"/>
<path d="M132.911 50.6828C132.911 52.8952 133.375 53.7391 135.589 53.7391H141.573C143.785 53.7391 144.249 52.8952 144.249 50.6828V49.0388C144.249 47.1427 143.785 45.9824 141.321 45.9824H135.841C133.375 45.9824 132.911 47.1427 132.911 49.0388V50.6828ZM128.106 47.5842C128.106 43.1171 130.614 42.0634 134.829 42.0634H142.331C146.547 42.0634 149.056 43.1171 149.056 47.5842V52.1374C149.056 56.6044 146.547 57.6582 142.331 57.6582H134.829C130.614 57.6582 128.106 56.6044 128.106 52.1374V47.5842Z" fill="#292929"/>
<path d="M150.834 55.7553C151.07 55.7553 151.438 55.7945 151.438 55.45C151.438 55.1901 151.208 55.1588 151 55.1588H150.517V55.7553H150.834ZM151.624 56.6963H151.38L150.896 55.9182H150.517V56.6963H150.311V55.0069H151.048C151.189 55.0069 151.331 55.0163 151.458 55.0899C151.584 55.1619 151.648 55.3122 151.648 55.4547C151.648 55.7866 151.414 55.9103 151.114 55.9182L151.624 56.6963ZM152.197 55.8493C152.197 55.1181 151.604 54.5262 150.873 54.5262C150.137 54.5262 149.545 55.1181 149.545 55.8493C149.545 56.5899 150.137 57.1817 150.873 57.1817C151.604 57.1817 152.197 56.5899 152.197 55.8493ZM149.359 55.8493C149.359 55.0194 150.035 54.343 150.873 54.343C151.706 54.343 152.379 55.0194 152.379 55.8493C152.379 56.6869 151.706 57.3649 150.873 57.3649C150.035 57.3649 149.359 56.6869 149.359 55.8493Z" fill="#292929"/>
</g>
<g clip-path="url(#clip4_1_5069)">
<path d="M222.084 36.1013C220.638 33.5956 213.269 34.9426 203.265 39.5281L203.096 39.6076L203.246 39.7164C203.731 40.0851 204.188 40.4889 204.613 40.9246L204.663 40.9839H204.732C212.157 37.8541 217.608 37.0224 218.727 38.8839C220.025 41.1219 214.884 46.7477 206.247 52.5714L206.139 52.6403L206.386 52.9081L206.466 52.8586C217.31 45.7974 223.719 38.9243 222.084 36.1013Z" fill="#292929"/>
<path d="M187.473 62.1796C181.877 64.1604 178.014 64.3884 177.132 62.8629C176.36 61.5256 177.935 58.9014 181.451 55.5541L181.58 55.4357L180.589 55.0607L179.747 54.7043H179.618C175.22 58.7453 173.348 61.9141 174.329 63.6181C175.488 65.5989 180.321 65.2028 187.611 62.4893L187.75 62.4399L187.542 62.1399L187.473 62.1796Z" fill="#292929"/>
<path d="M190.031 35.5179C180.431 35.5179 172.618 40.371 172.618 46.3328C172.618 52.2945 180.433 57.1478 190.031 57.1478C199.629 57.1478 207.444 52.2945 207.444 46.3328C207.444 40.371 199.627 35.5179 190.031 35.5179ZM187.06 50.5719H191.22L192.686 55.8219C191.816 55.9366 190.939 55.9961 190.061 56.0003C188.596 55.9994 187.134 55.84 185.703 55.5249L187.06 50.5719ZM187.476 49.0366L189.12 43.0449L190.794 49.0366H187.476ZM189.15 36.696L185.822 48.7711L182.702 38.0753C184.748 37.2598 186.92 36.8031 189.121 36.7253L189.15 36.696ZM190.705 36.696C192.929 36.7513 195.128 37.1903 197.203 37.9936L194.231 48.7688L190.705 36.696ZM195.895 49.0463L197.529 43.0546L199.203 49.0463H195.895ZM195.132 51.8491L195.478 50.5816H199.579L200.254 53.0078C198.96 53.9119 197.533 54.6102 196.025 55.0778L195.132 51.8491ZM203.056 50.1953L199.896 39.3999C202.66 41.2126 204.246 43.728 204.246 46.3328C204.223 47.7082 203.8 49.0472 203.028 50.1856L203.056 50.1953ZM184.006 55.0703C181.881 54.4309 179.937 53.3004 178.33 51.7703L178.657 50.5823H182.738L184.006 55.0703ZM179.056 49.0493L180.7 43.0576L182.344 49.0493H179.056ZM179.937 39.5813L177.025 50.1488C176.279 49.0193 175.873 47.6992 175.856 46.3456C175.807 43.7806 177.302 41.3956 179.927 39.5716L179.937 39.5813Z" fill="#292929"/>
</g>
<g clip-path="url(#clip5_1_5069)">
<path fill-rule="evenodd" clip-rule="evenodd" d="M269.012 56.5729C269.012 56.5729 269.853 57.1339 270.661 57.1339C271.485 57.1339 272.199 56.5474 272.199 56.5474V53.6914C272.199 53.6914 271.477 54.2014 270.669 54.2014C269.862 54.2014 269.012 53.6489 269.012 53.6489L260.622 48.7104L261.404 52.0934L269.012 56.5729ZM246.376 47.7584C246.376 47.7584 245.569 47.1974 244.719 47.1974C243.877 47.1974 243.189 47.7924 243.189 47.7924V50.6399C243.189 50.6399 243.877 50.1299 244.719 50.1299C245.569 50.1299 246.376 50.6909 246.376 50.6909L253.304 54.7709L253.899 52.1869L246.376 47.7669V47.7584ZM269.012 52.8414C269.012 52.8414 269.853 53.4024 270.661 53.4024C271.485 53.4024 272.199 52.8074 272.199 52.8074V49.9599C272.199 49.9599 271.477 50.4699 270.669 50.4699C269.862 50.4699 269.012 49.9174 269.012 49.9174L259.636 44.3924L260.41 47.7754L269.012 52.8414ZM246.376 44.0269C246.376 44.0269 245.569 43.4659 244.719 43.4659C243.877 43.4659 243.189 44.0524 243.189 44.0524V46.9084C243.189 46.9084 243.877 46.3984 244.719 46.3984C245.569 46.3984 246.376 46.9509 246.376 46.9509L254.06 51.4729L254.655 48.8974L246.376 44.0269ZM269.012 49.1099C269.012 49.1099 269.853 49.6624 270.661 49.6624C271.485 49.6624 272.199 49.0844 272.199 49.0844V46.2284C272.199 46.2284 271.477 46.7384 270.669 46.7384C269.862 46.7384 269.012 46.1859 269.012 46.1859L258.642 40.0659L259.424 43.4659L269.012 49.1099ZM246.376 40.2954C246.376 40.2954 245.569 39.7344 244.719 39.7344C243.877 39.7344 243.189 40.3209 243.189 40.3209V43.1684C243.189 43.1684 243.877 42.6584 244.719 42.6584C245.569 42.6584 246.376 43.2194 246.376 43.2194L254.808 48.1834L255.403 45.6079L246.376 40.2954ZM258.429 39.1394L269.012 45.3699C269.012 45.3699 269.853 45.9309 270.661 45.9309C271.485 45.9309 272.199 45.3444 272.199 45.3444V42.4884C272.199 42.4884 271.477 43.0069 270.669 43.0069C269.862 43.0069 269.012 42.4459 269.012 42.4459L260.826 37.6264L260.265 35.4674C260.265 35.3739 260.35 35.3314 260.376 35.3229L261.761 34.8894C261.948 34.8894 262.05 35.0509 262.05 35.1869L262.135 35.3399C262.178 35.3654 262.399 35.2974 262.399 35.2549V34.4049C262.407 33.8354 261.957 33.3339 261.353 33.3339H259.959C259.959 33.3339 259.764 32.8579 259.169 32.8579H256.534C255.854 32.8579 255.684 33.5209 255.684 33.5209L253.848 40.9669L246.376 36.5639C246.376 36.5639 245.569 36.0029 244.719 36.0029C243.877 36.0029 243.189 36.5809 243.189 36.5809V39.4369C243.189 39.4369 243.877 38.9269 244.719 38.9269C245.569 38.9269 246.376 39.4879 246.376 39.4879L255.565 44.8939L257.656 35.7734L258.429 39.1394ZM256.763 64.1634C256.763 65.7104 255.497 66.8409 253.746 66.8409C251.901 66.8409 251.289 66.5264 251.289 66.5264L251.136 64.8094C251.136 64.8094 252.156 65.4894 253.661 65.4894C254.086 65.4894 255.021 65.2004 255.021 64.3504C255.021 63.5429 254.281 63.2879 254.103 63.1944C253.737 62.9989 253.295 62.8034 252.938 62.6249C252.258 62.2849 251.255 61.6474 251.255 60.2959C251.255 58.3409 253.015 57.6269 254.4 57.6269C255.522 57.6269 256.508 58.1199 256.508 58.1199V59.7179C256.194 59.5394 255.675 58.9614 254.4 58.9614C253.533 58.9614 252.947 59.4204 252.947 60.0664C252.947 60.6614 253.44 61.0609 253.916 61.2819C254.392 61.5029 254.706 61.6474 255.259 61.9194C255.947 62.2594 256.763 62.9649 256.763 64.1634ZM248.518 63.4239C248.518 64.1379 248.28 65.4809 246.648 65.4554C245.169 65.4129 244.889 64.0529 244.889 63.1859V57.7969H243.189V63.2709C243.189 66.3479 245.076 66.8579 246.648 66.8579C248.986 66.8579 250.065 65.3279 250.065 63.2369V57.7969H248.518V63.4239ZM272.199 66.6539H270.346L269.811 65.1069H266.649L266.113 66.6624H262.951L262.416 65.1069H259.254L258.718 66.6624H257.044L260.104 58.4854L259.806 57.7969H261.659L264.634 66.1524L267.499 58.4854L267.21 57.7969H269.054L272.199 66.6624V66.6539ZM261.999 63.8659L260.894 60.3724L259.662 63.8574H261.999V63.8659ZM269.394 63.8659L268.289 60.3724L267.065 63.8574H269.394V63.8659ZM272.641 58.2049C272.206 58.4593 271.888 58.8738 271.754 59.3599C271.621 59.846 271.683 60.365 271.927 60.8059C272.183 61.2396 272.598 61.5562 273.084 61.688C273.57 61.8198 274.088 61.7564 274.528 61.5114C274.964 61.2556 275.282 60.8388 275.414 60.3509C275.546 59.8629 275.482 59.3426 275.234 58.9019C275.063 58.6158 274.822 58.3782 274.533 58.2116C274.244 58.045 273.918 57.9549 273.585 57.9499C273.262 57.9499 272.947 58.0349 272.65 58.2049H272.641ZM274.367 58.4769C274.732 58.6887 274.999 59.0357 275.111 59.4429C275.222 59.8501 275.168 60.2848 274.962 60.6529C274.75 61.0158 274.405 61.2814 273.999 61.3926C273.594 61.5038 273.162 61.4519 272.794 61.2479C272.61 61.1463 272.448 61.009 272.317 60.844C272.186 60.6791 272.089 60.4898 272.032 60.2871C271.975 60.0845 271.958 59.8725 271.984 59.6635C272.009 59.4545 272.076 59.2526 272.18 59.0696C272.285 58.8866 272.424 58.7262 272.591 58.5975C272.757 58.4689 272.948 58.3747 273.151 58.3203C273.355 58.266 273.567 58.2526 273.776 58.2809C273.984 58.3092 274.185 58.3788 274.367 58.4854V58.4769ZM273.075 60.9164V60.0409H273.27C273.364 60.0366 273.457 60.0635 273.534 60.1174C273.619 60.1769 273.738 60.3384 273.882 60.5934L274.069 60.9164H274.469L274.214 60.5084C274.129 60.3652 274.029 60.2313 273.916 60.1089C273.867 60.0622 273.809 60.0248 273.746 59.9984C273.916 59.9814 274.061 59.9219 274.171 59.8114C274.259 59.7213 274.314 59.6034 274.324 59.4778C274.335 59.3522 274.302 59.2268 274.231 59.1229C274.17 59.0288 274.081 58.9571 273.976 58.9189C273.804 58.8749 273.626 58.8577 273.449 58.8679H272.743V60.9079H273.083L273.075 60.9164ZM273.075 59.1399H273.457C273.619 59.1399 273.729 59.1569 273.789 59.1739C273.848 59.1994 273.891 59.2334 273.925 59.2844C273.959 59.3354 273.976 59.3864 273.976 59.4544C273.976 59.5394 273.942 59.6244 273.874 59.6754C273.806 59.7349 273.67 59.7604 273.483 59.7604H273.075V59.1399Z" fill="#292929"/>
</g>
<defs>
<clipPath id="clip0_1_5069">
<rect width="92.5" height="20" fill="white" transform="translate(0.522949 1.85791)"/>
</clipPath>
<clipPath id="clip1_1_5069">
<rect width="102.267" height="13" fill="white" transform="translate(113.023 5.35791)"/>
</clipPath>
<clipPath id="clip2_1_5069">
<rect width="102.188" height="15" fill="white" transform="translate(235.29 4.35791)"/>
</clipPath>
<clipPath id="clip3_1_5069">
<rect width="90.953" height="16" fill="white" transform="translate(61.6614 41.8579)"/>
</clipPath>
<clipPath id="clip4_1_5069">
<rect width="49.7242" height="30" fill="white" transform="translate(172.615 34.8579)"/>
</clipPath>
<clipPath id="clip5_1_5069">
<rect width="34" height="34" fill="white" transform="translate(242.339 32.8579)"/>
</clipPath>
</defs>
</svg>
