<svg width="79" height="24" viewBox="0 0 79 24" fill="none" xmlns="http://www.w3.org/2000/svg">
<path fill-rule="evenodd" clip-rule="evenodd" d="M49.007 18.8646C44.4338 22.1741 37.7807 23.9373 32.0429 23.9373C24.005 23.9373 16.7977 21.0348 11.3091 16.2061C10.8934 15.8264 11.2533 15.3109 11.7807 15.6094C17.685 18.9731 24.9751 20.9805 32.5145 20.9805C37.5873 20.9805 43.1865 19.9497 48.342 17.8067C49.1187 17.5082 49.7558 18.322 49.007 18.8646Z" fill="#FF9900"/>
<path fill-rule="evenodd" clip-rule="evenodd" d="M50.9206 16.7218C50.3384 15.9893 47.0402 16.3691 45.5706 16.559C45.127 16.6133 45.0442 16.2335 45.46 15.9622C48.0931 14.1447 52.3892 14.6873 52.8887 15.284C53.3872 15.8808 52.7501 20.1126 50.2825 22.12C49.8947 22.4184 49.5348 22.2557 49.7013 21.8488C50.2556 20.4924 51.5029 17.4813 50.9206 16.7218Z" fill="#FF9900"/>
<path fill-rule="evenodd" clip-rule="evenodd" d="M45.654 3.21249V1.44927C45.654 1.17801 45.8474 1.01524 46.0967 1.01524H54.1356C54.3849 1.01524 54.6072 1.20513 54.6072 1.44927V2.94124C54.6072 3.18536 54.3848 3.51095 53.997 4.05344L49.8395 9.85864C51.3918 9.83151 53.0269 10.0485 54.4128 10.8081C54.7178 10.9708 54.8006 11.2421 54.8285 11.4862V13.358C54.8285 13.6292 54.5513 13.9277 54.2463 13.7648C51.7797 12.4899 48.4806 12.3543 45.7647 13.792C45.4875 13.9277 45.1824 13.6563 45.1824 13.3851V11.5947C45.1824 11.3235 45.1824 10.8352 45.4875 10.4011L50.3101 3.64657H46.1246C45.8754 3.64657 45.654 3.4567 45.654 3.21249ZM16.3539 14.1447H13.9152C13.6929 14.1176 13.4995 13.9548 13.4716 13.7377V1.47641C13.4716 1.23226 13.6929 1.04237 13.9422 1.04237H16.2154C16.4646 1.04237 16.6311 1.23226 16.659 1.44927V3.04974H16.7148C17.2971 1.50353 18.4327 0.771105 19.9302 0.771105C21.4546 0.771105 22.4247 1.50353 23.0897 3.04974C23.672 1.50353 25.0299 0.771105 26.4716 0.771105C27.4975 0.771105 28.6062 1.17801 29.2991 2.12741C30.0758 3.15824 29.9093 4.65027 29.9093 5.97946V13.7377C29.9093 13.9819 29.6869 14.1718 29.4377 14.1718H27.0259C26.7767 14.1447 26.5823 13.9548 26.5823 13.7377V7.22728C26.5823 6.71192 26.6381 5.40976 26.5274 4.92151C26.333 4.10769 25.8066 3.86357 25.0858 3.86357C24.5035 3.86357 23.8664 4.24331 23.6171 4.86727C23.3669 5.49122 23.3948 6.52205 23.3948 7.22728V13.7377C23.3948 13.9819 23.1735 14.1718 22.9233 14.1718H20.4845C20.2353 14.1447 20.0409 13.9548 20.0409 13.7377V7.22728C20.0409 5.87097 20.2622 3.83644 18.5444 3.83644C16.7976 3.83644 16.8534 5.78959 16.8534 7.22728V13.7377C16.8255 13.9548 16.6311 14.1447 16.3539 14.1447ZM61.5364 0.771105C65.1685 0.771105 67.1366 3.80932 67.1366 7.68849C67.1366 11.432 64.9741 14.4159 61.5364 14.4159C57.989 14.4159 56.0488 11.3777 56.0488 7.57999C56.0209 3.75507 57.989 0.771105 61.5364 0.771105ZM61.5364 3.29386C59.7348 3.29386 59.6241 5.70822 59.6241 7.20016C59.6241 8.69219 59.5962 11.8932 61.5094 11.8932C63.3938 11.8932 63.5045 9.31605 63.5045 7.74274C63.5045 6.71192 63.4496 5.4641 63.1446 4.48752C62.8674 3.61945 62.3131 3.29386 61.5364 3.29386ZM71.8205 14.1447H69.3818C69.1316 14.1176 68.9382 13.9277 68.9382 13.7106V1.42215C68.9661 1.20513 69.1595 1.01524 69.4088 1.01524H71.682C71.9043 1.01524 72.0698 1.17801 72.1256 1.3679V3.23961H72.1814C72.8743 1.55779 73.8166 0.771105 75.5075 0.771105C76.5882 0.771105 77.67 1.15088 78.3629 2.20879C79 3.18536 79 4.84014 79 6.03371V13.7648C78.9721 13.9819 78.7786 14.1447 78.5284 14.1447H76.0897C75.8674 14.1176 75.674 13.9548 75.646 13.7648V7.09166C75.646 5.73534 75.8126 3.78219 74.1216 3.78219C73.5394 3.78219 72.985 4.16194 72.7078 4.75877C72.3749 5.51835 72.32 6.25071 72.32 7.09166V13.7106C72.2921 13.9548 72.0698 14.1447 71.8205 14.1447ZM39.2503 8.28523C39.2503 9.20756 39.2782 9.99426 38.8066 10.8352C38.4187 11.5133 37.8086 11.9203 37.1157 11.9203C36.1735 11.9203 35.6191 11.215 35.6191 10.1841C35.6191 8.14961 37.4766 7.76987 39.2503 7.76987V8.28523ZM41.7178 14.1176C41.5513 14.2532 41.329 14.2803 41.1356 14.1718C40.331 13.5207 40.1655 13.1952 39.7218 12.5713C38.3908 13.9006 37.4207 14.3074 35.7019 14.3074C33.651 14.3074 32.0438 13.0596 32.0438 10.591C32.0438 8.63794 33.1246 7.33578 34.649 6.68479C35.9791 6.11509 37.8365 6.00659 39.2503 5.84384V5.54547C39.2503 4.97576 39.3061 4.29756 38.9452 3.80932C38.641 3.37533 38.0858 3.18536 37.5872 3.18536C36.6451 3.18536 35.8135 3.64657 35.6191 4.62315C35.5633 4.84014 35.4248 5.05714 35.2034 5.05714L32.8474 4.81302C32.653 4.75877 32.4317 4.62315 32.4865 4.32468C33.0409 1.50353 35.6191 0.662598 37.9472 0.662598C39.1396 0.662598 40.6919 0.960995 41.6341 1.85617C42.8265 2.94124 42.7158 4.40615 42.7158 5.97946V9.69589C42.7158 10.8081 43.1864 11.2963 43.6301 11.9203C43.7966 12.1373 43.8245 12.4085 43.6301 12.5441C43.1037 12.9511 42.2163 13.7106 41.7178 14.1176ZM7.23431 8.28523C7.23431 9.20756 7.26222 9.99426 6.79065 10.8352C6.4028 11.5133 5.79264 11.9203 5.09972 11.9203C4.15754 11.9203 3.60319 11.215 3.60319 10.1841C3.60319 8.14961 5.46062 7.76987 7.23431 7.76987V8.28523ZM9.67398 14.1176C9.50749 14.2532 9.28613 14.2803 9.09172 14.1718C8.28812 13.5207 8.12164 13.1952 7.67797 12.5713C6.34794 13.9006 5.37689 14.3074 3.65902 14.3074C1.6072 14.3074 0 13.0596 0 10.591C0 8.63794 1.08077 7.33578 2.6052 6.68479C3.93619 6.11509 5.79264 6.00659 7.20639 5.84384V5.54547C7.20639 4.97576 7.26222 4.29756 6.90228 3.80932C6.5972 3.37533 6.04286 3.18536 5.54338 3.18536C4.6012 3.18536 3.76969 3.64657 3.57529 4.62315C3.52043 4.84014 3.38184 5.05714 3.15953 5.05714L0.80359 4.81302C0.609187 4.75877 0.387843 4.62315 0.443662 4.32468C0.998001 1.50353 3.57529 0.662598 5.90428 0.662598C7.09572 0.662598 8.64806 0.960995 9.59025 1.85617C10.7827 2.94124 10.672 4.40615 10.672 5.97946V9.69589C10.672 10.8081 11.1426 11.2963 11.5863 11.9203C11.7528 12.1373 11.7807 12.4085 11.5863 12.5441C11.0598 12.9511 10.1725 13.7106 9.67398 14.1176Z" fill="black"/>
</svg>
