<svg width="196" height="169" viewBox="0 0 196 169" fill="none" xmlns="http://www.w3.org/2000/svg">
<ellipse cx="87.8701" cy="84.5" rx="84.6041" ry="84.5" fill="#DAF3F8"/>
<path d="M1.25206 3.98486C0.0820032 17.3303 19.98 48.1795 29.6305 27.6585C36.7916 12.4311 4.88171 14.6155 1.25199 32.7396C-0.140728 39.6938 3.36141 68.2264 34.3737 65.96" stroke="#7ACDDD" stroke-width="2" stroke-linecap="round" stroke-dasharray="5.5 5.5"/>
<path d="M117.998 129.225C131.36 128.058 178.252 106.516 156.749 104.396C139.987 102.742 151.775 132.078 170.276 132.501C177.375 132.663 195.645 113.966 188.025 83.8565" stroke="#7ACDDD" stroke-width="2" stroke-linecap="round" stroke-dasharray="5.5 5.5"/>
<ellipse cx="152.593" cy="46.8902" rx="19.8815" ry="19.857" fill="#9EE4F1"/>
<ellipse cx="36.3013" cy="139.33" rx="25.532" ry="25.5006" fill="#7ACDDD"/>
<path d="M150.221 84.4997C150.221 118.888 122.3 146.774 87.87 146.774C53.4396 146.774 25.5187 118.888 25.5187 84.4997C25.5187 50.1117 53.4396 22.2251 87.87 22.2251C122.3 22.2251 150.221 50.1117 150.221 84.4997Z" fill="#00A2BB"/>
<path d="M137.752 84.5003C137.752 112.019 115.424 134.32 87.8714 134.32C60.3183 134.32 37.9903 112.019 37.9903 84.5003C37.9903 56.9812 60.3214 34.6807 87.8714 34.6807C115.421 34.6807 137.752 56.9843 137.752 84.5003Z" fill="white"/>
<path d="M84.7535 47.139C84.7535 45.4173 86.1493 44.0215 87.8711 44.0215C89.5929 44.0215 90.9886 45.4173 90.9886 47.1391V81.3824C90.9886 83.1042 89.5929 84.5 87.8711 84.5C86.1493 84.5 84.7535 83.1042 84.7535 81.3824V47.139Z" fill="#094D6A"/>
<path d="M87.872 89.6445C86.4494 88.2236 86.4493 85.9199 87.8719 84.499C89.2945 83.0781 91.6011 83.0781 93.0237 84.4989L108.136 99.5916C109.558 101.012 109.558 103.316 108.136 104.737C106.713 106.158 104.406 106.158 102.984 104.737L87.872 89.6445Z" fill="#094D6A"/>
<path d="M97.2236 84.4999C97.2236 89.6593 93.0336 93.8411 87.8709 93.8411C82.7051 93.8411 78.5182 89.6593 78.5182 84.4999C78.5182 79.3404 82.7051 75.1587 87.8709 75.1587C93.0336 75.1587 97.2236 79.3404 97.2236 84.4999Z" fill="#094D6A"/>
<path d="M90.9886 84.5C90.9886 86.2156 89.592 87.6137 87.8711 87.6137C86.1502 87.6137 84.7535 86.2156 84.7535 84.5C84.7535 82.7781 86.1502 81.3862 87.8711 81.3862C89.592 81.3862 90.9886 82.7781 90.9886 84.5Z" fill="#00A2BB"/>
</svg>
