<svg width="114" height="24" viewBox="0 0 114 24" fill="none" xmlns="http://www.w3.org/2000/svg">
<path fill-rule="evenodd" clip-rule="evenodd" d="M20.9786 8.67305L27.9108 12.9945L20.9304 17.3464L13.9554 12.9979L6.98039 17.3464L0 12.9945L6.93111 8.67316L0 4.35178L6.98039 0L13.9554 4.34853L20.9304 0L27.9108 4.35178L20.9786 8.67305ZM20.8812 8.67316L13.9554 4.35503L7.02967 8.67305L13.9554 12.9912L20.8812 8.67316ZM7.02539 18.7886L14.0058 14.4372L20.9862 18.7886L14.0058 23.1404L7.02539 18.7886Z" fill="#0061FF"/>
<path fill-rule="evenodd" clip-rule="evenodd" d="M102.406 16.9318L106.583 11.4171L102.73 6.20654H106.029L108.26 9.45764L110.511 6.20654H113.79L109.881 11.3985L114 16.9318H110.758L108.222 13.4326L105.762 16.9318H102.406Z" fill="black"/>
<path fill-rule="evenodd" clip-rule="evenodd" d="M97.2757 17.2117C93.7288 17.2117 91.7266 15.3268 91.7266 11.7811V11.4824C91.7266 7.86209 94.0726 5.92114 97.2757 5.92114C100.556 5.92114 102.844 7.89942 102.844 11.4824V11.7811C102.844 15.3268 100.595 17.2117 97.2757 17.2117ZM97.2757 14.767C98.9351 14.767 99.9464 13.7033 99.9464 11.7438V11.4824C99.9464 9.46694 98.9158 8.2913 97.295 8.2913C95.6935 8.2913 94.6254 9.39229 94.6254 11.4824V11.7438C94.6254 13.6846 95.6367 14.767 97.2757 14.767Z" fill="black"/>
<path fill-rule="evenodd" clip-rule="evenodd" d="M85.8361 17.2117C84.0246 17.2117 82.8419 16.3533 82.2516 14.9723L82.0224 16.9318H79.5435V2.56201H82.347V8.08597C82.9565 6.6864 84.1767 5.9212 85.9122 5.9212C88.525 5.93986 90.4704 7.71275 90.4704 11.2959V11.6131C90.4704 15.1962 88.6396 17.2117 85.8361 17.2117ZM84.9212 14.7857C86.5796 14.7857 87.5908 13.7406 87.5908 11.6131V11.3519C87.5908 9.37369 86.4842 8.29135 84.9587 8.29135C83.3765 8.29135 82.2891 9.54164 82.2891 11.3892V11.6131C82.2891 13.6286 83.3379 14.7857 84.9212 14.7857Z" fill="black"/>
<path fill-rule="evenodd" clip-rule="evenodd" d="M67.0557 20.5784V6.20651H69.4585L69.7445 8.21665C70.3348 6.83564 71.5561 5.92114 73.3676 5.92114C76.17 5.92114 78.0008 7.89941 78.0008 11.5197V11.8184C78.0008 15.3642 75.9611 17.2117 73.3676 17.2117C71.6128 17.2117 70.4494 16.4466 69.8581 15.1962V20.5784H67.0557ZM72.4141 14.8043C74.0543 14.8043 75.103 13.7406 75.103 11.7624V11.5197C75.103 9.37363 73.9771 8.30996 72.4709 8.30996C70.8694 8.30996 69.8013 9.50426 69.8013 11.5011V11.7065C69.8013 13.61 70.8308 14.8043 72.4141 14.8043Z" fill="black"/>
<path fill-rule="evenodd" clip-rule="evenodd" d="M60.0137 17.2117C56.4667 17.2117 54.4463 15.3268 54.4463 11.7811V11.4824C54.4463 7.86209 56.8106 5.92114 60.0137 5.92114C63.2939 5.92114 65.5639 7.89942 65.5639 11.4824V11.7811C65.5639 15.3268 63.3325 17.2117 60.0137 17.2117ZM59.9955 14.767C61.6356 14.767 62.6651 13.7033 62.6651 11.7438V11.4824C62.6651 9.46694 61.6356 8.2913 60.0137 8.2913C58.4121 8.2913 57.3441 9.39229 57.3441 11.4824V11.7438C57.3441 13.6846 58.3553 14.767 59.9955 14.767Z" fill="black"/>
<path fill-rule="evenodd" clip-rule="evenodd" d="M46.8564 16.9319H49.7167V12.0051C49.7167 9.72832 50.2888 8.92589 52.6531 8.92589H53.8358V6.07056H53.1298C51.089 6.07056 49.9642 6.94773 49.5261 8.66464L49.164 6.20653H46.8564V16.9319Z" fill="black"/>
<path fill-rule="evenodd" clip-rule="evenodd" d="M34.1509 16.9317V3.62573H39.2855C42.6032 3.62573 45.3113 5.5106 45.3113 9.78417V10.6987C45.3113 14.9909 42.7564 16.9317 39.3615 16.9317H34.1509ZM39.1323 6.0331H37.0005V14.487H39.2276C41.097 14.487 42.375 13.274 42.375 10.6054V9.91479C42.375 7.24617 41.0584 6.0331 39.1323 6.0331Z" fill="black"/>
</svg>
