<svg width="73" height="25" viewBox="0 0 73 25" fill="none" xmlns="http://www.w3.org/2000/svg">
<path d="M8.99056 0.822266H9.63971C11.8934 0.870208 14.1103 1.75721 15.7026 3.32742C15.1147 3.91476 14.5145 4.47813 13.9388 5.06548C13.0447 4.27435 11.9669 3.66305 10.7911 3.44729C9.0518 3.0877 7.17782 3.41133 5.72028 4.38223C4.12801 5.40109 3.05017 7.12709 2.81745 8.97301C2.56024 10.7949 3.08691 12.7128 4.29949 14.1272C5.46307 15.5056 7.23906 16.3687 9.0763 16.4286C10.7911 16.5245 12.5793 16.0091 13.8287 14.8344C14.8084 14.0074 15.2617 12.7488 15.4086 11.5261C13.3754 11.5261 11.3422 11.5381 9.30903 11.5261V9.05695H17.8705C18.3114 11.7059 17.6746 14.6906 15.6169 16.5844C14.245 17.9269 12.3466 18.718 10.4114 18.8738C8.53737 19.0536 6.60215 18.706 4.93639 17.819C2.93993 16.7761 1.34766 15.0142 0.563775 12.9405C-0.171119 11.0347 -0.183367 8.87716 0.502534 6.95928C1.12719 5.2093 2.32752 3.66305 3.8708 2.58427C5.35283 1.51748 7.15332 0.930143 8.99056 0.822266Z" fill="#3780FF"/>
<path d="M58.106 1.44556H60.727V18.5622C59.8574 18.5622 58.9756 18.5742 58.106 18.5502C58.1181 12.8566 58.106 7.15107 58.106 1.44556Z" fill="#38B137"/>
<path d="M23.7008 7.37877C25.3176 7.07915 27.0691 7.41475 28.4042 8.36161C29.6167 9.20071 30.4619 10.5192 30.719 11.9576C31.0497 13.6237 30.6333 15.4457 29.531 16.7641C28.3429 18.2384 26.3954 19.0296 24.497 18.9097C22.7577 18.8138 21.0674 17.9628 20.0386 16.5723C18.875 15.0381 18.5933 12.9284 19.2302 11.1305C19.8672 9.20071 21.6676 7.72637 23.7008 7.37877ZM24.0683 9.65615C23.4069 9.82395 22.7945 10.1955 22.3535 10.723C21.1655 12.1134 21.2389 14.3788 22.5495 15.6733C23.2966 16.4165 24.4235 16.7641 25.4645 16.5603C26.4321 16.3925 27.2773 15.7573 27.7427 14.9182C28.5511 13.4918 28.3184 11.5261 27.0813 10.4113C26.2852 9.69213 25.1216 9.3925 24.0683 9.65615Z" fill="#FA3913"/>
<path d="M36.6833 7.37869C38.5327 7.0311 40.5538 7.5345 41.9378 8.80506C44.1915 10.7828 44.4364 14.4866 42.5134 16.764C41.3498 18.2024 39.4636 18.9935 37.6019 18.9097C35.8259 18.8617 34.0744 17.9987 33.0211 16.5722C31.8329 15.002 31.5758 12.8445 32.2494 11.0106C32.9231 9.14067 34.6868 7.7143 36.6833 7.37869ZM37.0507 9.65607C36.3893 9.82387 35.7769 10.1955 35.336 10.7109C34.1602 12.0774 34.2092 14.3068 35.4707 15.6134C36.2179 16.3924 37.3815 16.776 38.4593 16.5602C39.4147 16.3804 40.272 15.7572 40.7375 14.9181C41.5336 13.4797 41.3009 11.514 40.0515 10.3992C39.2555 9.68005 38.0919 9.39242 37.0507 9.65607Z" fill="#FCBD06"/>
<path d="M47.6945 8.07379C49.1031 7.21079 50.9771 6.97103 52.4959 7.7142C52.9735 7.91798 53.3655 8.26557 53.7452 8.61317C53.7574 8.28956 53.7452 7.95395 53.7574 7.61835C54.578 7.63034 55.3987 7.61835 56.2316 7.63034V18.2024C56.2194 19.7965 55.8029 21.4866 54.627 22.6493C53.341 23.9318 51.3691 24.3274 49.593 24.0636C47.6945 23.788 46.041 22.4335 45.3061 20.7195C46.041 20.3719 46.8127 20.0962 47.5721 19.7725C48.0008 20.7555 48.8704 21.5945 49.9605 21.7863C51.0505 21.9781 52.3122 21.7143 53.0226 20.8273C53.782 19.9164 53.782 18.6698 53.7452 17.555C53.1818 18.0944 52.5326 18.5739 51.7488 18.7537C50.0462 19.2212 48.1723 18.6458 46.8617 17.5191C45.5389 16.3924 44.755 14.6543 44.8285 12.9283C44.8652 10.9745 45.9921 9.09269 47.6945 8.07379ZM50.23 9.60809C49.4828 9.72792 48.7847 10.1355 48.307 10.6988C47.1556 12.0414 47.1556 14.1869 48.3192 15.5054C48.9806 16.2845 50.0462 16.716 51.075 16.6081C52.0427 16.5123 52.9368 15.9129 53.4145 15.0859C54.2228 13.6835 54.0881 11.7776 52.998 10.555C52.3244 9.79987 51.2465 9.42829 50.23 9.60809Z" fill="#3780FF"/>
<path d="M63.8752 8.6855C65.3449 7.34299 67.6109 6.88755 69.4971 7.59474C71.2853 8.25396 72.4244 9.92008 73.0001 11.6342C70.3422 12.7129 67.6967 13.7797 65.0388 14.8585C65.4062 15.5417 65.9696 16.165 66.729 16.4167C67.7946 16.7883 69.0684 16.6564 69.9625 15.9613C70.3178 15.6975 70.5995 15.3499 70.869 15.0143C71.5426 15.4578 72.2162 15.8893 72.8899 16.3328C71.9345 17.7352 70.33 18.7181 68.603 18.874C66.6923 19.1017 64.6591 18.3825 63.422 16.9202C61.3887 14.6187 61.5847 10.7592 63.8752 8.6855ZM65.1857 10.903C64.7693 11.4904 64.5978 12.2095 64.6101 12.9167C66.3861 12.1975 68.162 11.4784 69.9381 10.7472C69.6441 10.0759 68.9337 9.66842 68.2111 9.56049C67.0475 9.35671 65.8349 9.96805 65.1857 10.903Z" fill="#FA3913"/>
</svg>
