<svg width="16" height="16" viewBox="0 0 16 16" fill="none" xmlns="http://www.w3.org/2000/svg">
<path d="M7.33334 11.3335C7.33334 11.7017 7.63182 12.0002 8.00001 12.0002C8.3682 12.0002 8.66668 11.7017 8.66668 11.3335C8.66668 10.9653 8.3682 10.6668 8.00001 10.6668C7.63182 10.6668 7.33334 10.9653 7.33334 11.3335ZM8.00001 1.3335C4.32001 1.3335 1.33334 4.32016 1.33334 8.00016C1.33334 11.6802 4.32001 14.6668 8.00001 14.6668C11.68 14.6668 14.6667 11.6802 14.6667 8.00016C14.6667 4.32016 11.68 1.3335 8.00001 1.3335ZM8.00001 13.3335C5.06001 13.3335 2.66668 10.9402 2.66668 8.00016C2.66668 5.06016 5.06001 2.66683 8.00001 2.66683C10.94 2.66683 13.3333 5.06016 13.3333 8.00016C13.3333 10.9402 10.94 13.3335 8.00001 13.3335ZM8.00001 4.00016C6.75447 4.00016 5.70905 4.85301 5.41555 6.0069C5.32479 6.36372 5.63182 6.66683 6.00001 6.66683C6.3682 6.66683 6.65331 6.35045 6.83082 6.02787C7.05807 5.61493 7.49777 5.3335 8.00001 5.3335C8.73334 5.3335 9.33334 5.9335 9.33334 6.66683C9.33334 7.84648 7.76782 7.85199 7.40693 9.33809C7.32004 9.69588 7.63182 10.0002 8.00001 10.0002C8.3682 10.0002 8.6512 9.68651 8.81148 9.35503C9.27105 8.40462 10.6667 8.05908 10.6667 6.66683C10.6667 5.1935 9.47334 4.00016 8.00001 4.00016Z" fill="#00A2BB"/>
</svg>
