<svg width="111" height="24" viewBox="0 0 111 24" fill="none" xmlns="http://www.w3.org/2000/svg">
<path d="M39.1873 13.6756L38.5259 15.5103H38.4697C38.3599 15.0967 38.1578 14.4671 37.8271 13.7116L34.2792 4.98755H30.8062V18.892H33.1036V10.3119C33.1036 9.77234 33.1036 9.16073 33.0849 8.40525C33.0662 8.02752 33.03 7.73967 33.0113 7.52387H33.0662C33.1772 8.06342 33.3058 8.45923 33.3969 8.71106L37.6611 18.8561H39.2784L43.5064 8.62105C43.5988 8.3873 43.6899 7.91956 43.7822 7.52387H43.8371C43.7822 8.54912 43.746 9.46653 43.7273 10.0242V18.838H46.172V4.95164H42.8263L39.1873 13.6756ZM48.4882 8.87287H50.8768V18.838H48.4882V8.87287ZM49.7012 4.66379C49.2969 4.66379 48.9649 4.80778 48.6904 5.0596C48.4146 5.31143 48.2673 5.63518 48.2673 6.03087C48.2673 6.40861 48.4146 6.73237 48.6904 6.98419C48.9649 7.23602 49.2969 7.36193 49.7012 7.36193C50.1055 7.36193 50.4549 7.21806 50.712 6.98419C50.9878 6.73237 51.1338 6.40861 51.1338 6.03087C51.1338 5.65314 50.9878 5.32938 50.712 5.0596C50.4724 4.80778 50.123 4.66379 49.7012 4.66379ZM59.3502 8.78299C58.9097 8.6931 58.4493 8.63912 58.0087 8.63912C56.9243 8.63912 55.9322 8.87288 55.1048 9.34062C54.2774 9.80824 53.616 10.4559 53.1929 11.2653C52.7524 12.0927 52.5315 13.0461 52.5315 14.1432C52.5315 15.0967 52.7524 15.942 53.1742 16.7155C53.5972 17.4711 54.185 18.0825 54.9762 18.4963C55.73 18.9099 56.6123 19.1259 57.6044 19.1259C58.7438 19.1259 59.7184 18.892 60.4896 18.4603L60.5083 18.4423V16.2839L60.416 16.3558C60.0678 16.6076 59.6635 16.8234 59.2591 16.9493C58.8361 17.0932 58.4492 17.1653 58.1185 17.1653C57.1626 17.1653 56.4101 16.8954 55.876 16.3018C55.3256 15.7262 55.0499 14.9347 55.0499 13.9454C55.0499 12.9201 55.3257 12.1107 55.8947 11.5172C56.465 10.9235 57.2188 10.6177 58.1373 10.6177C58.9097 10.6177 59.6997 10.8695 60.416 11.3732L60.5083 11.4451V9.16073L60.4896 9.14277C60.1776 9.01686 59.8282 8.87287 59.3502 8.78299ZM67.236 8.71106C66.6469 8.71106 66.0966 8.89095 65.6187 9.26869C65.2143 9.59244 64.9385 10.0601 64.6989 10.6177H64.6814V8.87287H62.2916V18.838H64.6814V13.7475C64.6814 12.8841 64.8649 12.1647 65.2692 11.6431C65.6736 11.1034 66.1877 10.8336 66.8129 10.8336C67.0338 10.8336 67.2547 10.8876 67.5293 10.9235C67.7876 10.9954 67.971 11.0674 68.0996 11.1574L68.1919 11.2293V8.89095L68.137 8.87287C67.971 8.76504 67.6403 8.71106 67.236 8.71106ZM73.7428 8.65708C72.0693 8.65708 70.7277 9.14277 69.7905 10.0961C68.8346 11.0494 68.3753 12.3625 68.3753 14.0173C68.3753 15.5643 68.8533 16.8234 69.7718 17.7408C70.6915 18.6402 71.9407 19.1079 73.5031 19.1079C75.1392 19.1079 76.4445 18.6222 77.3817 17.6508C78.3376 16.6796 78.7969 15.3844 78.7969 13.7836C78.7969 12.2006 78.3564 10.9415 77.4553 10.0242C76.5918 9.10675 75.3226 8.65708 73.7428 8.65708ZM75.6546 16.3198C75.2128 16.8774 74.514 17.1472 73.6504 17.1472C72.7868 17.1472 72.088 16.8774 71.5925 16.2839C71.0958 15.7262 70.8562 14.9168 70.8562 13.8914C70.8562 12.8301 71.1146 12.0208 71.5925 11.4451C72.088 10.8695 72.7681 10.5818 73.6317 10.5818C74.4778 10.5818 75.1392 10.8516 75.6171 11.4092C76.0951 11.9668 76.3522 12.7763 76.3522 13.8376C76.316 14.9168 76.1138 15.7621 75.6546 16.3198ZM84.1268 13.01C83.3743 12.7042 82.8964 12.4705 82.6755 12.2726C82.492 12.0927 82.3997 11.8409 82.3997 11.5172C82.3997 11.2473 82.5095 10.9775 82.7853 10.7976C83.0611 10.6177 83.3743 10.5278 83.8336 10.5278C84.2379 10.5278 84.661 10.5997 85.0653 10.7077C85.4696 10.8155 85.8365 10.9775 86.131 11.1933L86.2234 11.2653V9.07084L86.1672 9.05277C85.8914 8.94493 85.5245 8.83697 85.0827 8.74696C84.6422 8.67503 84.2379 8.63912 83.9072 8.63912C82.7678 8.63912 81.8294 8.9089 81.0944 9.50244C80.3593 10.0601 80.0099 10.8155 80.0099 11.6969C80.0099 12.1647 80.0835 12.5783 80.2495 12.9201C80.4142 13.2619 80.6538 13.5857 80.9845 13.8555C81.3152 14.1073 81.7932 14.3951 82.4546 14.665C83.0062 14.8987 83.4292 15.0786 83.6863 15.2226C83.9434 15.3665 84.1094 15.5284 84.2379 15.6543C84.329 15.7982 84.3852 15.9781 84.3852 16.2118C84.3852 16.8774 83.8698 17.2012 82.8228 17.2012C82.4184 17.2012 81.9954 17.1292 81.4987 16.9673C81.0033 16.8055 80.5428 16.5716 80.1571 16.3018L80.0648 16.2299V18.5143L80.121 18.5322C80.4691 18.6942 80.8922 18.8021 81.4076 18.928C81.9217 19.0179 82.381 19.0898 82.7853 19.0898C84.017 19.0898 85.0278 18.8201 85.7454 18.2265C86.4804 17.6508 86.8661 16.9134 86.8661 15.96C86.8661 15.2945 86.6826 14.7009 86.2783 14.2512C85.7454 13.8195 85.0828 13.3698 84.1268 13.01ZM93.1707 8.65708C91.4984 8.65708 90.1556 9.14277 89.2184 10.0961C88.2812 11.0494 87.8033 12.3625 87.8033 14.0173C87.8033 15.5643 88.2812 16.8234 89.201 17.7408C90.1194 18.6402 91.3699 19.1079 92.9323 19.1079C94.5671 19.1079 95.8724 18.6222 96.8096 17.6508C97.7656 16.6796 98.2248 15.3844 98.2248 13.7836C98.2248 12.2006 97.7843 10.9415 96.8833 10.0242C96.0197 9.10675 94.7518 8.65708 93.1707 8.65708ZM95.0638 16.3198C94.6233 16.8774 93.9244 17.1472 93.0608 17.1472C92.1785 17.1472 91.4984 16.8774 91.0017 16.2839C90.5051 15.7262 90.2667 14.9168 90.2667 13.8914C90.2667 12.8301 90.5238 12.0208 91.0017 11.4451C91.4984 10.8695 92.1786 10.5818 93.0421 10.5818C93.8695 10.5818 94.5496 10.8516 95.0276 11.4092C95.5056 11.9668 95.7626 12.7763 95.7626 13.8376C95.7626 14.9168 95.523 15.7621 95.0638 16.3198ZM111 10.7976V8.87287H108.591V5.92291L108.518 5.94099L106.239 6.60645L106.184 6.62453V8.87287H102.581V7.61375C102.581 7.03817 102.729 6.5885 102.986 6.30065C103.243 6.01292 103.63 5.86893 104.108 5.86893C104.438 5.86893 104.788 5.94099 105.173 6.10281L105.264 6.15679V4.12424L105.21 4.10616C104.879 3.99832 104.438 3.92627 103.868 3.92627C103.152 3.92627 102.526 4.08821 101.956 4.35799C101.387 4.66379 100.964 5.07756 100.652 5.63518C100.339 6.17474 100.174 6.78635 100.174 7.48784V8.87287H98.5006V10.7796H100.174V18.838H102.581V10.7976H106.184V15.9241C106.184 18.0286 107.195 19.0898 109.217 19.0898C109.547 19.0898 109.897 19.0359 110.227 18.982C110.577 18.91 110.834 18.8201 110.981 18.7481L111 18.7302V16.8055L110.908 16.8774C110.76 16.9673 110.632 17.0393 110.411 17.0932C110.227 17.1472 110.063 17.1653 109.934 17.1653C109.456 17.1653 109.124 17.0573 108.886 16.7875C108.665 16.5357 108.555 16.1219 108.555 15.5103V10.7976H111Z" fill="#737373"/>
<path d="M0 0.310547H11.2676V11.337H0V0.310547Z" fill="#F25022"/>
<path d="M12.4434 0.310547H23.711V11.337H12.4434V0.310547Z" fill="#7FBA00"/>
<path d="M0 12.4885H11.2676V23.5149H0V12.4885Z" fill="#00A4EF"/>
<path d="M12.4434 12.4885H23.711V23.5149H12.4434V12.4885Z" fill="#FFB900"/>
</svg>
