<svg width="142" height="142" viewBox="0 0 142 142" fill="none" xmlns="http://www.w3.org/2000/svg">
<rect width="142" height="142" rx="25" fill="#E4F9FD"/>
<ellipse cx="98.3646" cy="46.5936" rx="22.9271" ry="22.9271" fill="#10BBD6"/>
<g clip-path="url(#clip0_647:1117)">
<path d="M109.458 89.3079C107.22 89.3243 104.982 89.3734 102.761 89.357C102.112 89.357 101.788 89.5371 101.496 90.1591C99.0956 95.4466 95.4145 99.6208 90.582 102.764C89.9009 103.206 89.6901 103.664 89.6901 104.45C89.7388 107.249 89.7064 110.048 89.7064 112.864C89.7064 113.159 89.7064 113.453 89.7064 113.797C89.4145 113.813 89.1874 113.862 88.9442 113.862C84.9063 113.862 80.8522 113.846 76.8143 113.879C76.2467 113.879 75.9548 113.699 75.7116 113.191C75.1116 111.882 74.4305 110.621 73.8143 109.312C73.6035 108.853 73.344 108.706 72.8251 108.722C69.5169 108.755 66.2088 108.755 62.8844 108.722C62.3331 108.722 62.0736 108.886 61.8466 109.361C61.2304 110.687 60.5817 111.996 59.8844 113.29C59.7547 113.535 59.3979 113.846 59.1384 113.846C54.8735 113.879 50.6086 113.862 46.3599 113.862C46.2626 113.862 46.1491 113.83 45.9707 113.797C45.9707 112.946 45.9707 112.111 45.9707 111.276C45.9707 108.886 45.9545 106.48 45.9869 104.09C45.9869 103.566 45.8572 103.271 45.4031 102.977C35.349 96.1996 30.8408 86.6233 31.603 74.4606C31.7003 72.8727 32.0246 71.2849 32.3327 69.7134C32.4462 69.1568 32.3489 68.9276 31.8462 68.6657C28.5381 66.8487 26.7219 64.0331 26.6246 60.2353C26.5273 56.4048 28.23 53.491 31.4733 51.4939C32.9652 50.5772 34.8138 50.1188 36.2733 50.2498C36.2733 51.8213 36.2733 53.3928 36.2733 54.997C33.5976 55.3572 31.83 56.7649 31.4895 59.5642C31.2462 61.5285 32.3003 63.3619 34.1003 64.295C34.1814 64.1641 34.2625 64.0495 34.3273 63.9185C38.0247 56.1265 44.1058 51.0028 52.0194 47.9908C58.5709 45.5026 65.3817 44.8969 72.3224 45.5026C74.4629 45.699 76.5711 46.1574 78.7116 46.452C78.9873 46.4848 79.4089 46.3538 79.6035 46.141C83.6901 41.6393 88.7334 39.5113 94.7821 40.0024C96.501 40.1333 98.2037 40.6244 99.9875 40.9518C99.3227 43.6364 98.7065 46.1737 98.074 48.6947C97.4902 50.9701 96.9389 53.2291 96.3551 55.4881C96.2416 55.9465 96.274 56.2739 96.6145 56.6504C99.8416 60.2026 102.031 64.3441 103.247 69.0095C103.393 69.5988 103.62 69.8116 104.22 69.7952C105.971 69.7298 107.723 69.7298 109.474 69.7134C109.458 76.2449 109.458 82.7764 109.458 89.3079ZM81.2576 52.2305C80.9171 52.1323 80.6252 52.0668 80.3495 51.9686C73.2467 49.8569 66.0628 49.6278 58.8303 51.101C53.6249 52.1651 48.8572 54.244 44.8194 57.7799C39.7598 62.2324 37.0193 67.88 36.4355 74.6079C35.9003 80.812 37.1976 86.5578 40.6842 91.747C43.068 95.2829 46.214 97.9839 49.9437 99.9646C50.6573 100.341 50.9329 100.767 50.8843 101.585C50.8032 102.977 50.8681 104.368 50.8681 105.743C50.8681 106.791 50.8681 107.855 50.8681 108.968C52.6032 108.968 54.2411 108.952 55.8789 108.984C56.4303 109.001 56.7546 108.837 56.9979 108.313C57.679 106.84 58.4411 105.399 59.1384 103.926C59.3493 103.5 59.5601 103.337 60.0628 103.419C65.2682 104.286 70.4737 104.286 75.6792 103.419C76.1494 103.337 76.3603 103.468 76.5549 103.877C77.2846 105.399 78.0305 106.905 78.7927 108.395C78.9062 108.624 79.1657 108.952 79.3765 108.952C81.1765 109.001 82.9765 108.984 84.8576 108.984C84.8576 108.641 84.8576 108.362 84.8576 108.1C84.8576 105.923 84.8901 103.746 84.8414 101.569C84.8252 100.799 85.036 100.374 85.7333 99.9973C91.7172 96.7725 95.9497 92.0089 98.1227 85.461C98.3821 84.6753 98.7389 84.4298 99.5497 84.4625C101.204 84.528 102.874 84.4789 104.561 84.4789C104.561 81.1722 104.561 77.9801 104.561 74.6734C103.069 74.6734 101.625 74.6407 100.182 74.6898C99.5659 74.7061 99.3389 74.5097 99.2578 73.8877C98.4632 67.6999 95.8686 62.4125 91.2956 58.1727C90.8901 57.7962 90.8415 57.4852 90.9712 56.9614C91.9442 53.1472 92.8685 49.3167 93.8091 45.4862C93.8577 45.2898 93.874 45.0933 93.9064 44.8314C91.9118 44.7005 90.0793 45.0279 88.2955 45.7481C85.182 47.025 82.9279 49.3004 81.2576 52.2305Z" fill="#0B2537"/>
<path d="M81.2583 52.2306C82.9286 49.3004 85.1665 47.025 88.3124 45.7809C90.0962 45.077 91.9287 44.7496 93.9233 44.8642C93.8909 45.1098 93.8747 45.3226 93.826 45.519C92.8855 49.3495 91.9449 53.1637 90.9882 56.9942C90.8584 57.5016 90.9071 57.829 91.3125 58.2055C95.8855 62.4453 98.4639 67.7327 99.2747 73.9204C99.3558 74.5425 99.5828 74.7389 100.199 74.7226C101.642 74.6735 103.102 74.7062 104.577 74.7062C104.577 77.9965 104.577 81.205 104.577 84.5116C102.875 84.5116 101.221 84.5608 99.5666 84.4953C98.7558 84.4625 98.399 84.7081 98.1396 85.4938C95.9828 92.0253 91.7341 96.7889 85.7503 100.03C85.053 100.407 84.8259 100.816 84.8584 101.602C84.907 103.779 84.8746 105.956 84.8746 108.133C84.8746 108.395 84.8746 108.657 84.8746 109.017C82.9935 109.017 81.1935 109.033 79.3934 108.984C79.1988 108.984 78.9394 108.657 78.8096 108.428C78.0475 106.938 77.2853 105.432 76.5718 103.91C76.3772 103.501 76.1664 103.386 75.6961 103.451C70.4906 104.319 65.2852 104.319 60.0797 103.451C59.577 103.37 59.3662 103.517 59.1554 103.959C58.4581 105.432 57.6959 106.873 57.0148 108.346C56.7716 108.87 56.4472 109.033 55.8959 109.017C54.258 108.984 52.6202 109.001 50.885 109.001C50.885 107.871 50.885 106.824 50.885 105.776C50.885 104.384 50.8201 102.993 50.9012 101.618C50.9499 100.8 50.658 100.374 49.9607 99.9974C46.2147 98.0167 43.0849 95.3157 40.7011 91.7798C37.2146 86.607 35.9173 80.8448 36.4524 74.6407C37.0362 67.9128 39.7768 62.2652 44.8363 57.8127C48.8904 54.2768 53.6418 52.1815 58.8473 51.1338C66.0798 49.6605 73.2636 49.9061 80.3664 52.0014C80.6421 52.0669 80.9178 52.1324 81.2583 52.2306ZM65.4473 64.9171C65.4473 66.4231 65.4149 67.8637 65.4636 69.3042C65.4798 69.9099 65.3338 70.2536 64.7338 70.5319C61.9446 71.8415 60.2905 74.8372 60.6311 77.8492C60.9716 81.0085 63.1933 83.5458 66.2419 84.2497C66.923 84.4134 67.6365 84.4134 68.3176 84.528C69.4852 84.7408 70.3285 85.7721 70.296 86.9507C70.2798 88.0966 69.4204 89.1115 68.3176 89.308C67.1338 89.5208 66.0149 88.8824 65.6095 87.7528C65.5122 87.5073 65.4636 87.229 65.3825 86.9671C63.7933 86.9671 62.2203 86.9671 60.6473 86.9671C60.5013 89.2752 61.8311 91.9271 64.0527 93.0894C65.2852 93.7278 65.5771 94.4808 65.4636 95.7249C65.3663 96.838 65.4473 97.9839 65.4473 99.0971C67.1338 99.0971 68.6906 99.0971 70.296 99.0971C70.296 97.5747 70.3285 96.1178 70.2798 94.6445C70.2636 94.0224 70.4744 93.7605 71.0096 93.4986C73.7826 92.189 75.4528 89.177 75.1123 86.165C74.7718 83.0384 72.5988 80.5011 69.5825 79.7808C68.9339 79.6171 68.2528 79.6007 67.5879 79.5189C66.3555 79.3552 65.4636 78.3566 65.4473 77.1453C65.4311 75.9667 66.2744 74.919 67.4257 74.7062C68.642 74.477 69.7447 75.1482 70.1501 76.3432C70.2312 76.5723 70.296 76.8015 70.3609 77.0307C71.9501 77.0307 73.5231 77.0307 75.0961 77.0307C75.2096 74.3461 73.5069 71.6614 70.896 70.4501C70.442 70.2373 70.2636 70.0081 70.2798 69.4843C70.3123 67.9619 70.296 66.4559 70.296 64.8844C68.6582 64.9171 67.1176 64.9171 65.4473 64.9171ZM58.831 61.1521C64.896 59.5806 70.8798 59.597 76.9123 61.1357C77.3664 59.5642 77.788 58.0418 78.2421 56.4376C71.269 54.6369 64.4095 54.6206 57.4851 56.4703C57.9391 58.0746 58.377 59.5806 58.831 61.1521ZM89.6584 69.7298C89.6584 68.1419 89.6584 66.5541 89.6584 64.9335C88.053 64.9335 86.48 64.9335 84.907 64.9335C84.907 66.5541 84.907 68.1256 84.907 69.7298C86.4962 69.7298 88.053 69.7298 89.6584 69.7298Z" fill="white"/>
<path d="M65.447 64.9175C67.1173 64.9175 68.6741 64.9175 70.2957 64.9175C70.2957 66.4726 70.3119 67.995 70.2795 69.5174C70.2633 70.0248 70.4417 70.2704 70.8957 70.4832C73.5066 71.6945 75.2093 74.3792 75.0958 77.0638C73.5228 77.0638 71.9498 77.0638 70.3606 77.0638C70.2957 76.8346 70.2309 76.6054 70.1498 76.3763C69.7444 75.1813 68.6254 74.5265 67.4254 74.7393C66.2741 74.9521 65.4308 75.9998 65.447 77.1784C65.4632 78.3897 66.3714 79.3719 67.5876 79.552C68.2525 79.6502 68.9335 79.6666 69.5822 79.8139C72.5984 80.5342 74.7714 83.0715 75.112 86.1981C75.4363 89.1937 73.766 92.2221 71.0092 93.5317C70.4741 93.7936 70.2471 94.0555 70.2795 94.6776C70.3282 96.1345 70.2957 97.6078 70.2957 99.1302C68.6741 99.1302 67.1335 99.1302 65.447 99.1302C65.447 98.017 65.3659 96.8875 65.4632 95.758C65.5768 94.5139 65.2686 93.7609 64.0524 93.1225C61.8308 91.9602 60.501 89.3083 60.647 87.0002C62.22 87.0002 63.793 87.0002 65.3822 87.0002C65.4632 87.2621 65.5119 87.524 65.6092 87.786C66.0146 88.9155 67.1335 89.5539 68.3173 89.3411C69.4363 89.1446 70.2795 88.1461 70.2957 86.9838C70.3119 85.8052 69.4849 84.7576 68.3173 84.5611C67.6362 84.4465 66.9227 84.4465 66.2416 84.2828C63.1767 83.5789 60.9713 81.0253 60.6308 77.8823C60.3064 74.8703 61.9443 71.8746 64.7335 70.565C65.3335 70.2867 65.4795 69.9593 65.4632 69.3373C65.4146 67.8804 65.447 66.4399 65.447 64.9175Z" fill="#0B2537"/>
<path d="M58.8309 61.1526C58.3769 59.5811 57.939 58.0751 57.4688 56.4545C64.3931 54.6048 71.2689 54.6211 78.2419 56.4382C77.7879 58.0424 77.35 59.5648 76.9122 61.1363C70.8959 59.5975 64.8959 59.5811 58.8309 61.1526Z" fill="#0B2537"/>
<path d="M89.6584 69.7304C88.053 69.7304 86.4962 69.7304 84.907 69.7304C84.907 68.1262 84.907 66.5547 84.907 64.9341C86.4962 64.9341 88.0692 64.9341 89.6584 64.9341C89.6584 66.5547 89.6584 68.1425 89.6584 69.7304Z" fill="#0B2537"/>
</g>
<defs>
<clipPath id="clip0_647:1117">
<rect width="82.8333" height="73.9583" fill="white" transform="translate(26.625 39.9375)"/>
</clipPath>
</defs>
</svg>
