<svg width="10" height="22" viewBox="0 0 10 22" fill="none" xmlns="http://www.w3.org/2000/svg">
<circle cx="5" cy="10" r="5" fill="#00A2BB"/>
<path d="M5.664 11.12H4.56C4.56 10.9013 4.62667 10.6853 4.76 10.472C4.89333 10.2587 5.05067 10.08 5.232 9.936C5.68 9.57333 5.904 9.24267 5.904 8.944C5.904 8.75733 5.84 8.61333 5.712 8.512C5.584 8.41067 5.40533 8.36 5.176 8.36C4.728 8.36 4.41067 8.59733 4.224 9.072L3.28 8.528C3.44 8.13867 3.69333 7.83467 4.04 7.616C4.38667 7.39733 4.77867 7.288 5.216 7.288C5.696 7.288 6.11467 7.42933 6.472 7.712C6.82933 7.98933 7.008 8.37333 7.008 8.864C7.008 9.08267 6.96 9.29067 6.864 9.488C6.77333 9.68 6.66133 9.84533 6.528 9.984C6.4 10.1173 6.26933 10.2453 6.136 10.368C6.008 10.4853 5.896 10.608 5.8 10.736C5.70933 10.864 5.664 10.992 5.664 11.12ZM5.792 12.424C5.792 12.6107 5.72533 12.7707 5.592 12.904C5.45867 13.0373 5.29867 13.104 5.112 13.104C4.92533 13.104 4.76533 13.0373 4.632 12.904C4.49867 12.7707 4.432 12.6107 4.432 12.424C4.432 12.2373 4.49867 12.0773 4.632 11.944C4.76533 11.8107 4.92533 11.744 5.112 11.744C5.29867 11.744 5.45867 11.8107 5.592 11.944C5.72533 12.0773 5.792 12.2373 5.792 12.424Z" fill="white"/>
</svg>
