<svg width="10" height="22" viewBox="0 0 10 22" fill="none" xmlns="http://www.w3.org/2000/svg">
<circle cx="5" cy="10" r="5" fill="white"/>
<path d="M5.8 11H4.52C4.52 10.8293 4.56267 10.6667 4.648 10.512C4.73867 10.352 4.84533 10.2133 4.968 10.096C5.096 9.97333 5.22133 9.856 5.344 9.744C5.472 9.632 5.57867 9.512 5.664 9.384C5.75467 9.256 5.8 9.128 5.8 9C5.8 8.69067 5.60267 8.536 5.208 8.536C4.824 8.536 4.536 8.76 4.344 9.208L3.24 8.576C3.416 8.176 3.68267 7.86133 4.04 7.632C4.40267 7.40267 4.808 7.288 5.256 7.288C5.74667 7.288 6.17333 7.432 6.536 7.72C6.89867 8.008 7.08 8.39733 7.08 8.888C7.08 9.10667 7.03467 9.312 6.944 9.504C6.85867 9.696 6.752 9.85867 6.624 9.992C6.50133 10.1253 6.376 10.248 6.248 10.36C6.12533 10.472 6.01867 10.584 5.928 10.696C5.84267 10.8027 5.8 10.904 5.8 11ZM5.92 12.352C5.92 12.56 5.84533 12.7387 5.696 12.888C5.54667 13.0373 5.368 13.112 5.16 13.112C4.952 13.112 4.77333 13.0373 4.624 12.888C4.47467 12.7387 4.4 12.56 4.4 12.352C4.4 12.144 4.47467 11.9653 4.624 11.816C4.77333 11.6667 4.952 11.592 5.16 11.592C5.368 11.592 5.54667 11.6667 5.696 11.816C5.84533 11.9653 5.92 12.144 5.92 12.352Z" fill="#00A2BB"/>
</svg>
