<svg width="34" height="24" viewBox="0 0 34 24" fill="none" xmlns="http://www.w3.org/2000/svg">
<path d="M14.1486 2.55813C15.2453 1.44003 16.7719 0.746551 18.4602 0.746551C20.7047 0.746551 22.6629 1.97131 23.7056 3.78948C24.6117 3.39327 25.6147 3.17284 26.6705 3.17284C30.7185 3.17284 34 6.41254 34 10.4086C34 14.4052 30.7185 17.6449 26.6705 17.6449C26.1854 17.6451 25.7015 17.598 25.2264 17.5041C24.3084 19.1071 22.5584 20.1901 20.5499 20.1901C19.7092 20.1901 18.9139 20.0001 18.2053 19.6622C17.2747 21.805 15.1056 23.3075 12.578 23.3075C9.94584 23.3075 7.7026 21.6775 6.84116 19.3915C6.46487 19.4697 6.07472 19.5104 5.67515 19.5104C2.54088 19.5105 0 16.9984 0 13.8991C0 11.822 1.14144 10.0086 2.83788 9.03835C2.48865 8.25204 2.29423 7.3842 2.29423 6.47172C2.29423 2.90742 5.25105 0.0180664 8.89815 0.0180664C11.0395 0.0180664 12.9423 1.01437 14.1486 2.55813Z" fill="#00A1E0"/>
<path d="M4.92425 12.0956C4.90286 12.1501 4.93181 12.1615 4.93873 12.171C5.00292 12.2165 5.06772 12.2492 5.13316 12.2857C5.47988 12.4658 5.80708 12.5183 6.15002 12.5183C6.84723 12.5183 7.28016 12.1553 7.28016 11.5709V11.5596C7.28016 11.0191 6.79123 10.8229 6.33251 10.6812L6.27336 10.6623C5.92728 10.5523 5.62901 10.4575 5.62901 10.2347V10.2229C5.62901 10.0324 5.80331 9.89204 6.07388 9.89204C6.37403 9.89204 6.7302 9.98971 6.95987 10.1139C6.95987 10.1139 7.0272 10.1565 7.05174 10.0925C7.06558 10.0584 7.18198 9.75226 7.19394 9.71906C7.20715 9.68304 7.18388 9.6565 7.15997 9.64228C6.8982 9.48629 6.53575 9.37964 6.16072 9.37964L6.09088 9.38013C5.45282 9.38013 5.00733 9.75743 5.00733 10.2982V10.3096C5.00733 10.8798 5.49877 11.0646 5.95937 11.1936L6.03361 11.2159C6.369 11.3168 6.65846 11.4036 6.65846 11.6349V11.6463C6.65846 11.8577 6.47031 12.015 6.16702 12.015C6.04935 12.015 5.67432 12.0127 5.26908 11.7618C5.22 11.7339 5.19106 11.7136 5.15331 11.6913C5.1338 11.679 5.08345 11.6576 5.06205 11.7221L4.92425 12.0956ZM15.1344 12.0956C15.113 12.1501 15.1426 12.1615 15.1489 12.171C15.213 12.2165 15.2779 12.2492 15.3433 12.2857C15.69 12.4658 16.0172 12.5183 16.3602 12.5183C17.0574 12.5183 17.4903 12.1553 17.4903 11.5709V11.5596C17.4903 11.0191 17.0014 10.8229 16.5427 10.6812L16.4835 10.6623C16.1374 10.5523 15.8391 10.4575 15.8391 10.2347V10.2229C15.8391 10.0324 16.0134 9.89204 16.284 9.89204C16.5842 9.89204 16.9403 9.98971 17.17 10.1139C17.17 10.1139 17.2373 10.1565 17.2619 10.0925C17.2757 10.0584 17.3921 9.75226 17.4041 9.71906C17.4173 9.68304 17.394 9.6565 17.3701 9.64228C17.1083 9.48629 16.7459 9.37964 16.3709 9.37964L16.301 9.38013C15.663 9.38013 15.2174 9.75743 15.2174 10.2982V10.3096C15.2174 10.8798 15.7089 11.0646 16.1695 11.1936L16.2438 11.2159C16.5791 11.3168 16.8692 11.4036 16.8692 11.6349V11.6463C16.8692 11.8577 16.6805 12.015 16.3772 12.015C16.2595 12.015 15.8845 12.0127 15.4786 11.7618C15.4301 11.7339 15.4012 11.7145 15.3641 11.6913C15.3515 11.6832 15.2923 11.6609 15.2722 11.7221L15.1344 12.0956ZM22.1045 10.9508C22.1045 11.2812 22.0416 11.5414 21.9177 11.7253C21.795 11.9074 21.61 11.996 21.3513 11.996C21.0921 11.996 20.9077 11.9078 20.7869 11.7253C20.6648 11.5419 20.6032 11.2812 20.6032 10.9508C20.6032 10.621 20.6648 10.3612 20.7869 10.1792C20.9077 9.99913 21.0921 9.91144 21.3513 9.91144C21.61 9.91144 21.7956 9.99913 21.9183 10.1792C22.0416 10.3612 22.1045 10.621 22.1045 10.9508ZM22.6872 10.3385C22.63 10.1493 22.5406 9.9825 22.4223 9.84364C22.3034 9.70429 22.153 9.59246 21.9749 9.51093C21.7975 9.42989 21.5873 9.38863 21.3513 9.38863C21.1147 9.38863 20.9046 9.42989 20.7271 9.51093C20.5484 9.59246 20.3987 9.70429 20.2791 9.84364C20.1614 9.98299 20.0721 10.1498 20.0142 10.3385C19.9576 10.5266 19.9292 10.7323 19.9292 10.9508C19.9292 11.1694 19.9576 11.3756 20.0142 11.5632C20.0721 11.7519 20.1608 11.9187 20.2797 12.058C20.3987 12.1974 20.5491 12.3088 20.7271 12.3879C20.9052 12.4671 21.1147 12.5074 21.3513 12.5074C21.5873 12.5074 21.7968 12.4671 21.9749 12.3879C22.153 12.3088 22.3034 12.1974 22.4223 12.058C22.5406 11.9192 22.63 11.7524 22.6872 11.5632C22.7439 11.3751 22.7728 11.1689 22.7728 10.9508C22.7728 10.7328 22.7439 10.5266 22.6872 10.3385ZM27.4676 11.9077C27.4481 11.8523 27.3934 11.8731 27.3934 11.8731C27.309 11.9049 27.2184 11.9343 27.1228 11.949C27.0252 11.9636 26.9183 11.9713 26.8037 11.9713C26.5218 11.9713 26.2978 11.8892 26.1374 11.7272C25.9769 11.565 25.8869 11.303 25.8876 10.9484C25.8888 10.6256 25.9681 10.383 26.111 10.1981C26.2532 10.0142 26.469 9.91987 26.7572 9.91987C26.9975 9.91987 27.1807 9.94691 27.372 10.0061C27.372 10.0061 27.4185 10.0255 27.4399 9.9668C27.4909 9.82837 27.5286 9.72935 27.5828 9.57719C27.5985 9.53402 27.5607 9.51554 27.5469 9.51031C27.4714 9.48143 27.2933 9.43451 27.1586 9.41462C27.0328 9.39565 26.8855 9.38567 26.7219 9.38567C26.4772 9.38567 26.2595 9.42644 26.0726 9.50797C25.8869 9.58901 25.729 9.7009 25.6038 9.84025C25.4792 9.97961 25.3842 10.1464 25.3206 10.335C25.2577 10.5232 25.2256 10.7299 25.2256 10.9484C25.2256 11.421 25.3558 11.803 25.6132 12.0827C25.8706 12.3632 26.2576 12.5059 26.7622 12.5059C27.0611 12.5059 27.3669 12.4467 27.5865 12.3618C27.5865 12.3618 27.6287 12.3419 27.6104 12.2941L27.4676 11.9077ZM28.4863 10.6344C28.514 10.4509 28.5656 10.2983 28.6455 10.1794C28.7664 9.99876 28.9501 9.89974 29.2087 9.89974C29.4673 9.89974 29.6385 9.99925 29.7612 10.1794C29.8424 10.2983 29.8776 10.4576 29.8921 10.6344H28.4863ZM30.4464 10.231C30.3967 10.0485 30.2747 9.86415 30.1941 9.77972C30.067 9.64609 29.943 9.55274 29.8203 9.50058C29.6593 9.43327 29.4667 9.38875 29.2553 9.38875C29.0092 9.38875 28.7859 9.42903 28.6046 9.5124C28.4234 9.59584 28.2705 9.70964 28.151 9.85134C28.0314 9.9926 27.9414 10.1608 27.8842 10.3519C27.8269 10.542 27.7973 10.7491 27.7973 10.9675C27.7973 11.1898 27.8275 11.397 27.8873 11.5833C27.9471 11.771 28.0434 11.9364 28.173 12.0733C28.302 12.2112 28.4687 12.3194 28.6682 12.3946C28.8664 12.4696 29.1074 12.5084 29.3836 12.5079C29.9531 12.506 30.2526 12.3819 30.376 12.315C30.398 12.3032 30.4188 12.2824 30.3923 12.2226L30.264 11.8695C30.2445 11.8169 30.1897 11.8363 30.1897 11.8363C30.0488 11.8875 29.848 11.9795 29.3805 11.9785C29.0753 11.978 28.8488 11.8899 28.7066 11.7519C28.5606 11.6107 28.4895 11.4031 28.4769 11.1102L30.4477 11.1121C30.4477 11.1121 30.4993 11.1111 30.505 11.0618C30.5069 11.0411 30.5729 10.6657 30.4464 10.231ZM12.7036 10.6344C12.7313 10.4509 12.7829 10.2983 12.8628 10.1794C12.983 9.99876 13.1674 9.89974 13.426 9.89974C13.6846 9.89974 13.8558 9.99925 13.9785 10.1794C14.0596 10.2983 14.0949 10.4576 14.1087 10.6344H12.7036ZM14.6631 10.231C14.6134 10.0485 14.4913 9.86415 14.4114 9.77972C14.2843 9.64609 14.1603 9.55274 14.037 9.50058C13.8765 9.43327 13.684 9.38875 13.4725 9.38875C13.2271 9.38875 13.0031 9.42903 12.8219 9.5124C12.6407 9.59584 12.4878 9.70964 12.3682 9.85134C12.2487 9.9926 12.1587 10.1608 12.1014 10.3519C12.0442 10.542 12.0146 10.7491 12.0146 10.9675C12.0146 11.1898 12.0448 11.397 12.1046 11.5833C12.1644 11.771 12.26 11.9364 12.3903 12.0733C12.5193 12.2112 12.686 12.3194 12.8855 12.3946C13.0837 12.4696 13.324 12.5084 13.6009 12.5079C14.1698 12.506 14.4699 12.3819 14.5932 12.315C14.6153 12.3032 14.636 12.2824 14.6096 12.2226L14.4812 11.8695C14.4617 11.8169 14.407 11.8363 14.407 11.8363C14.266 11.8875 14.0659 11.9795 13.5978 11.9785C13.2926 11.978 13.0654 11.8899 12.9239 11.7519C12.7779 11.6107 12.7068 11.4031 12.6942 11.1102L14.665 11.1121C14.665 11.1121 14.7166 11.1111 14.7222 11.0618C14.7241 11.0411 14.7896 10.6657 14.6631 10.231ZM8.44363 11.8972C8.36687 11.837 8.35617 11.8218 8.32974 11.783C8.29136 11.7237 8.27121 11.6394 8.27121 11.5322C8.27121 11.3625 8.32847 11.2407 8.44676 11.1587C8.44551 11.1592 8.61668 11.0141 9.01876 11.0194C9.30067 11.0231 9.55299 11.0639 9.55299 11.0639V11.9408H9.55361C9.55361 11.9408 9.30318 11.9934 9.02128 12.0099C8.62045 12.0337 8.44237 11.8967 8.44363 11.8972ZM9.22767 10.5421C9.14776 10.5364 9.04393 10.533 8.91996 10.533C8.75133 10.533 8.58773 10.5539 8.43482 10.5942C8.28065 10.6344 8.14223 10.6976 8.0233 10.7809C7.90437 10.864 7.8062 10.9729 7.73761 11.0989C7.66777 11.226 7.63254 11.3758 7.63254 11.5436C7.63254 11.7142 7.66209 11.8625 7.7225 11.9839C7.78228 12.1057 7.86913 12.2071 7.97988 12.2854C8.08937 12.3636 8.22403 12.4209 8.38134 12.4555C8.5355 12.4901 8.71105 12.5076 8.90297 12.5076C9.10496 12.5076 9.30633 12.4916 9.50139 12.4588C9.69457 12.4266 9.9318 12.3797 9.99787 12.365C10.0438 12.3541 10.0897 12.3425 10.1357 12.3304C10.1848 12.3186 10.181 12.2673 10.181 12.2673L10.1797 10.5036C10.1797 10.1169 10.0746 9.83009 9.86635 9.65237C9.65996 9.47515 9.35541 9.38549 8.9615 9.38549C8.81363 9.38549 8.57576 9.40544 8.43355 9.4334C8.43355 9.4334 8.00315 9.51493 7.8257 9.65047C7.8257 9.65047 7.7867 9.67417 7.80809 9.72732L7.94777 10.0941C7.96476 10.1416 8.01197 10.1254 8.01197 10.1254C8.01197 10.1254 8.02707 10.1198 8.04469 10.1098C8.4235 9.90787 8.90297 9.91403 8.90297 9.91403C9.11628 9.91403 9.27988 9.95572 9.39063 10.0387C9.49823 10.1193 9.55299 10.2411 9.55299 10.4979V10.5795C9.3831 10.5558 9.22767 10.5421 9.22767 10.5421ZM25.1224 9.5483C25.1375 9.50471 25.106 9.48383 25.0928 9.47915C25.0595 9.46634 24.8921 9.43173 24.7631 9.42367C24.5152 9.40895 24.378 9.44972 24.2547 9.50378C24.1326 9.55779 23.9973 9.64498 23.9218 9.74407V9.50945C23.9218 9.47675 23.8979 9.4507 23.8652 9.4507H23.3599C23.3265 9.4507 23.3033 9.47675 23.3033 9.50945V12.386C23.3033 12.4183 23.3303 12.4448 23.363 12.4448H23.8809C23.8966 12.4448 23.9117 12.4385 23.9231 12.4275C23.9344 12.4164 23.9407 12.4015 23.9407 12.386V10.9489C23.9407 10.7561 23.9621 10.5636 24.0061 10.4427C24.0483 10.3233 24.1068 10.2276 24.1785 10.1588C24.2503 10.0906 24.3321 10.0427 24.422 10.0157C24.5133 9.98817 24.6146 9.97918 24.6863 9.97918C24.7895 9.97918 24.9028 10.0052 24.9028 10.0052C24.9405 10.0095 24.9619 9.98675 24.9745 9.95313C25.0085 9.86495 25.1042 9.60096 25.1224 9.5483Z" fill="white"/>
<path d="M20.263 8.21487C20.2001 8.19591 20.1429 8.1831 20.0686 8.16937C19.9931 8.15613 19.9031 8.14941 19.8005 8.14941C19.4444 8.14941 19.1631 8.248 18.9662 8.44235C18.7698 8.63577 18.6371 8.93006 18.5697 9.31733L18.5458 9.44769H18.0984C18.0984 9.44769 18.0437 9.44579 18.0324 9.50361L17.9594 9.90504C17.9537 9.94298 17.9707 9.96718 18.0229 9.96718H18.4584L18.0166 12.3807C17.9827 12.575 17.943 12.7347 17.8983 12.8561C17.8556 12.9755 17.8134 13.0651 17.7612 13.1305C17.7108 13.1931 17.663 13.2395 17.5812 13.2665C17.5132 13.2888 17.4346 13.2992 17.349 13.2992C17.3012 13.2992 17.2383 13.2916 17.1911 13.2821C17.1445 13.2731 17.12 13.2632 17.0847 13.2484C17.0847 13.2484 17.0338 13.2295 17.013 13.2793C16.9973 13.3205 16.8808 13.6329 16.867 13.6713C16.8532 13.7097 16.8727 13.7395 16.8972 13.7485C16.9557 13.7684 16.9985 13.7817 17.0778 13.8002C17.1873 13.8253 17.2798 13.8267 17.3666 13.8267C17.5472 13.8267 17.7133 13.8016 17.8499 13.7533C17.9877 13.7044 18.1079 13.6196 18.2142 13.5049C18.3294 13.3807 18.4011 13.2508 18.4703 13.0731C18.5383 12.8977 18.5968 12.6797 18.6434 12.4257L19.0876 9.96718H19.7364C19.7364 9.96718 19.7911 9.96903 19.8024 9.91077L19.8761 9.50977C19.8811 9.4714 19.8647 9.44769 19.8119 9.44769H19.1814C19.1852 9.43396 19.2135 9.21683 19.2858 9.01264C19.3167 8.92587 19.3745 8.85524 19.4236 8.8069C19.4721 8.75948 19.5281 8.72586 19.5891 8.7064C19.6514 8.68645 19.7225 8.67703 19.8005 8.67703C19.8597 8.67703 19.9182 8.68362 19.9623 8.69261C20.0233 8.70548 20.0472 8.71207 20.0629 8.71687C20.1278 8.73577 20.1366 8.7173 20.1491 8.687L20.2995 8.28224C20.3153 8.23852 20.2769 8.22005 20.263 8.21487ZM11.4593 12.3859C11.4593 12.4181 11.4354 12.4442 11.4026 12.4442H10.8797C10.847 12.4442 10.8237 12.4181 10.8237 12.3859V8.26986C10.8237 8.23766 10.847 8.21155 10.8797 8.21155H11.4026C11.4354 8.21155 11.4593 8.23766 11.4593 8.26986V12.3859Z" fill="white"/>
</svg>
