<svg width="43" height="57" viewBox="0 0 43 57" fill="none" xmlns="http://www.w3.org/2000/svg">
<path d="M1.09788 11.9055C0.578368 11.9921 0.194027 12.5284 0.239429 13.1034C0.28483 13.6783 0.742782 14.0742 1.26229 13.9876L1.09788 11.9055ZM27.5878 18.0092L26.9951 18.8683L27.5878 18.0092ZM31.9636 50.8295C32.0812 51.3867 32.5883 51.7037 33.0964 51.5376L41.3758 48.8305C41.8839 48.6644 42.2005 48.078 42.0829 47.5208C41.9653 46.9636 41.4582 46.6466 40.9501 46.8127L33.5906 49.219L31.8877 41.1476C31.7701 40.5903 31.263 40.2733 30.7549 40.4394C30.2468 40.6055 29.9303 41.1919 30.0478 41.7491L31.9636 50.8295ZM35.0122 48.1273C35.2213 47.5811 35.0034 46.9767 34.5257 46.7772C34.0479 46.5778 33.4912 46.8589 33.2821 47.405L35.0122 48.1273ZM34.7236 41.7655C34.6413 42.3443 34.992 42.8587 35.5069 42.9146C36.0219 42.9704 36.5061 42.5464 36.5884 41.9677L34.7236 41.7655ZM36.8388 35.6826C36.8038 35.106 36.3537 34.6994 35.8334 34.7744C35.3131 34.8494 34.9196 35.3777 34.9545 35.9543L36.8388 35.6826ZM34.0375 30.3014C34.1851 30.8477 34.7102 31.1293 35.2104 30.9303C35.7105 30.7314 35.9964 30.1272 35.8488 29.5808L34.0375 30.3014ZM33.6474 23.9538C33.3894 23.4673 32.8129 23.3312 32.3597 23.6497C31.9065 23.9683 31.7481 24.6208 32.0061 25.1073L33.6474 23.9538ZM28.9085 20.6894C29.2695 21.0832 29.8672 21.0555 30.2436 20.6276C30.6199 20.1998 30.6324 19.5338 30.2714 19.14L28.9085 20.6894ZM25.2668 15.0094C24.8277 14.7267 24.2437 14.9094 23.9622 15.4175C23.6808 15.9256 23.8085 16.5667 24.2475 16.8494L25.2668 15.0094ZM18.1801 14.0439C18.6756 14.1904 19.2091 13.8529 19.3716 13.2902C19.5341 12.7275 19.2642 12.1526 18.7686 12.0062L18.1801 14.0439ZM11.7208 10.942C11.2012 10.9285 10.7439 11.3888 10.6993 11.9701C10.6548 12.5514 11.0399 13.0336 11.5595 13.047L11.7208 10.942ZM4.71348 13.4691C5.23421 13.4016 5.63352 12.8787 5.60537 12.3012C5.57723 11.7237 5.13227 11.3102 4.61154 11.3777L4.71348 13.4691ZM33.6846 51.0294C34.1856 50.1013 34.6282 49.1305 35.0122 48.1273L33.2821 47.405C32.9333 48.3163 32.5331 49.1935 32.0825 50.028L33.6846 51.0294ZM36.5884 41.9677C36.8817 39.9047 36.9664 37.7884 36.8388 35.6826L34.9545 35.9543C35.0728 37.9065 34.994 39.8638 34.7236 41.7655L36.5884 41.9677ZM35.8488 29.5808C35.3197 27.6222 34.5877 25.727 33.6474 23.9538L32.0061 25.1073C32.8716 26.7394 33.5478 28.4885 34.0375 30.3014L35.8488 29.5808ZM30.2714 19.14C29.6232 18.433 28.9264 17.7676 28.1806 17.1501L26.9951 18.8683C27.6775 19.4333 28.3151 20.0422 28.9085 20.6894L30.2714 19.14ZM28.1806 17.1501C27.2102 16.3467 26.2395 15.6358 25.2668 15.0094L24.2475 16.8494C25.1606 17.4374 26.0759 18.1073 26.9951 18.8683L28.1806 17.1501ZM18.7686 12.0062C16.4373 11.3173 14.0933 11.0034 11.7208 10.942L11.5595 13.047C13.8112 13.1054 16.0089 13.4023 18.1801 14.0439L18.7686 12.0062ZM4.61154 11.3777C3.45213 11.528 2.28115 11.7082 1.09788 11.9055L1.26229 13.9876C2.43196 13.7926 3.58106 13.6159 4.71348 13.4691L4.61154 11.3777Z" fill="url(#paint0_linear_193_584)"/>
<path d="M31.9632 50.8317C32.0807 51.3889 32.5879 51.7059 33.096 51.5398L41.3754 48.8327C41.8835 48.6666 42.2 48.0802 42.0825 47.523C41.9649 46.9658 41.4577 46.6488 40.9497 46.8149L33.5902 49.2212L31.8873 41.1498C31.7697 40.5925 31.2625 40.2755 30.7544 40.4416C30.2464 40.6077 29.9298 41.1941 30.0474 41.7513L31.9632 50.8317ZM36.8611 39.0702C36.8885 38.4888 36.4886 38.0221 35.9678 38.0277C35.4471 38.0334 35.0027 38.5094 34.9753 39.0908L36.8611 39.0702ZM34.9753 39.0908C34.7896 43.03 33.8048 46.8392 32.0821 50.0302L33.6841 51.0316C35.5971 47.4883 36.6609 43.3193 36.8611 39.0702L34.9753 39.0908Z" fill="#B5A6F2"/>
<defs>
<linearGradient id="paint0_linear_193_584" x1="35.9876" y1="34.9634" x2="14.2329" y2="17.2272" gradientUnits="userSpaceOnUse">
<stop stop-color="#B5A6F2"/>
<stop offset="1" stop-color="#9985EB" stop-opacity="0.2"/>
</linearGradient>
</defs>
</svg>
