<svg width="70" height="47" viewBox="0 0 70 47" fill="none" xmlns="http://www.w3.org/2000/svg">
<path d="M26.8337 45.106C38.3909 44.7288 50.3125 43.6577 61.8844 44.777C63.7406 44.9566 66.0235 45.3825 67.8888 44.9618C70.4892 44.3752 62.3223 29.0913 61.3385 26.9106C60.49 25.0295 51.8789 0.429692 49.3046 5.02178C47.8505 7.61565 41.6588 19.0595 38.8744 17.4986C29.8284 12.4275 21.4066 6.56108 12.3497 1.48381C9.56474 -0.0773914 4.44191 9.46105 2.89646 12.2179C1.66398 14.4164 -0.325069 16.1381 2.39043 17.6604C8.36111 21.0075 14.3318 24.3546 20.3025 27.7017C21.214 28.2127 34.5533 34.1595 33.9426 35.6028C32.8359 38.2184 26.8426 43.4802 24.6024 45.0004" stroke="#B5A6F2" stroke-width="2" stroke-linecap="round" stroke-dasharray="8 8"/>
</svg>
