<svg width="101" height="21" viewBox="0 0 101 21" fill="none" xmlns="http://www.w3.org/2000/svg">
<g clip-path="url(#clip0_287_5487)">
<path d="M0.0327148 6.1635C0.0327148 2.08702 2.79252 0.0302734 7.88724 0.0302734H22.7778V8.74354H21.5599C21.047 3.68331 18.5928 1.60308 13.6065 1.60308H10.5329C8.13988 1.60308 6.97688 2.70134 6.97688 4.86967V16.1307C6.97688 18.299 8.13924 19.3973 10.5329 19.3973H13.6084C18.5214 19.3973 21.0209 17.1937 21.5593 11.9731H22.7772V20.9701H7.88788C2.79315 20.9701 0.0333534 18.9133 0.0333534 14.8368V6.1635H0.0327148Z" fill="#EFECFB"/>
<path d="M49.0674 0.0308613V20.9706H43.0119L28.1315 4.29998V11.8057C28.1315 17.327 30.5372 19.3744 35.9663 19.9188V20.9706H26.3223V0.0308613H33.2875L47.2581 15.6867V9.12059C47.2581 3.63633 44.8422 1.56843 39.5471 1.08214V0.0302734H49.0674V0.0308613Z" fill="#EFECFB"/>
<path d="M52.6694 0.0302734H75.4152V8.74354H74.1973C73.6818 3.66452 71.2302 1.58017 66.2439 1.58017H59.4024V9.43245H61.7201C65.5893 9.43245 67.2346 7.8338 67.6263 4.40452H68.8646V15.9145H67.6263C67.2372 12.4688 65.597 10.8819 61.7201 10.8819H59.4024V19.4207H66.2464C71.1593 19.4207 73.6589 17.2107 74.1973 11.9731H75.4152V20.9701H52.6694V0.0302734Z" fill="#EFECFB"/>
<path d="M100.963 0.0302734V8.74354H99.7447C99.219 3.95054 97.0429 1.72406 92.9562 1.31941V16.0443C92.9562 18.6038 93.9367 19.6275 97.5252 19.8413V20.9695H81.6541V19.8413C85.2433 19.6269 86.2238 18.6038 86.2238 16.0443V1.31882C82.137 1.72347 79.961 3.94995 79.4353 8.74295H78.2168V0.0302734H100.963Z" fill="#EFECFB"/>
</g>
<defs>
<clipPath id="clip0_287_5487">
<rect width="101" height="21" fill="white"/>
</clipPath>
</defs>
</svg>
