<svg width="25" height="24" viewBox="0 0 25 24" fill="none" xmlns="http://www.w3.org/2000/svg">
<path d="M12.5 2C6.9775 2 2.5 6.4775 2.5 12C2.5 17.5225 6.9775 22 12.5 22C18.0225 22 22.5 17.5225 22.5 12C22.5 6.4775 18.0225 2 12.5 2ZM13.125 16.325V17C13.125 17.345 12.845 17.625 12.5 17.625C12.155 17.625 11.875 17.345 11.875 17V16.3225C11.235 16.2175 10.6488 15.9563 10.21 15.5675C9.95125 15.3375 9.92875 14.9437 10.1575 14.685C10.3863 14.4262 10.7812 14.405 11.04 14.6325C11.3925 14.945 11.925 15.125 12.5 15.125C13.5162 15.125 14.375 14.5525 14.375 13.875C14.375 13.1975 13.5162 12.625 12.5 12.625C10.7775 12.625 9.375 11.5037 9.375 10.125C9.375 8.9175 10.45 7.9075 11.875 7.675V7C11.875 6.655 12.155 6.375 12.5 6.375C12.845 6.375 13.125 6.655 13.125 7V7.6775C13.765 7.7825 14.3512 8.04375 14.79 8.4325C15.0475 8.6625 15.0725 9.0575 14.8425 9.315C14.6125 9.5725 14.2188 9.595 13.96 9.3675C13.6075 9.055 13.075 8.875 12.5 8.875C11.4838 8.875 10.625 9.4475 10.625 10.125C10.625 10.8025 11.4838 11.375 12.5 11.375C14.2238 11.375 15.625 12.4963 15.625 13.875C15.625 15.0825 14.55 16.0925 13.125 16.325Z" fill="#4622DA"/>
</svg>
