<svg width="93" height="25" viewBox="0 0 93 25" fill="none" xmlns="http://www.w3.org/2000/svg">
<g clip-path="url(#clip0_287_5462)">
<path d="M8.9533 2.32942H10.9906C12.2313 2.14183 13.4983 2.30676 14.6541 2.80631C16.1041 3.70168 17.1558 5.14314 17.5849 6.82318C17.8887 7.7036 17.8887 7.7036 18.6214 7.39178H19.1933V0.421864H0.0178698V1.65077H0.804188C1.14589 1.64834 1.48378 1.72452 1.79303 1.8737C2.10228 2.02288 2.37505 2.24127 2.59127 2.51284C3.32398 3.7234 3.44908 5.08071 3.44908 12.1423C3.44908 19.6442 3.28824 21.4784 2.59127 22.4138C2.41921 22.6543 2.19645 22.8518 1.93961 22.9915C1.68277 23.1313 1.39849 23.2096 1.10799 23.2208C0.0178698 23.4226 0.0178698 23.4043 0.0178698 23.8995C-0.0424149 24.0651 -0.0424149 24.2475 0.0178698 24.4131H12.1164C12.1965 24.2511 12.2382 24.072 12.2382 23.8903C12.2382 23.7087 12.1965 23.5296 12.1164 23.3676C11.8234 23.2839 11.5248 23.2226 11.2229 23.1842C10.8964 23.1443 10.5736 23.0768 10.2579 22.9824C9.80577 22.6436 9.44762 22.1896 9.21883 21.6653C8.99003 21.141 8.89851 20.5644 8.9533 19.9927C8.7746 18.7821 8.68524 16.5627 8.68524 14.7285V13.2795H9.40008C10.2907 13.2516 11.1808 13.3503 12.045 13.573C12.459 13.8356 12.8114 14.1887 13.0771 14.6073C13.3427 15.0258 13.5151 15.4993 13.5819 15.9941L13.7427 16.5627H14.8328V8.43727H13.8321L13.6712 9.22597C13.6035 9.73196 13.4212 10.2146 13.1387 10.6351C12.8563 11.0556 12.4817 11.4022 12.045 11.6471C11.6221 11.7763 11.1765 11.8076 10.7404 11.7388H8.68524V9.75789C8.68524 7.7036 8.79247 3.37491 8.86395 2.69626L8.9533 2.32942ZM92.589 16.8745C91.7442 15.4791 90.4267 14.4535 88.8897 13.9949C87.7114 13.6168 86.6222 12.9923 85.6908 12.1607C85.4812 11.9526 85.3244 11.6951 85.2341 11.4105C85.1438 11.126 85.1226 10.8231 85.1726 10.5282C85.1739 9.94991 85.3989 9.39577 85.798 8.98753C86.0686 8.69673 86.4109 8.48682 86.7887 8.38021C87.1664 8.27361 87.5652 8.27431 87.9425 8.38225C88.7238 8.61077 89.4303 9.05192 89.9871 9.65898C90.544 10.266 90.9305 11.0164 91.1057 11.8305C91.3916 12.6559 91.4274 12.6559 91.9456 12.4358L92.2673 12.3074V7.74028L92.035 7.63023C90.2756 6.99602 88.4093 6.73397 86.5486 6.85987C84.9462 6.90154 83.4167 7.55563 82.2596 8.69406C81.7348 9.19826 81.3238 9.8141 81.0552 10.4985C80.7866 11.1828 80.6671 11.9191 80.7048 12.6559C80.7149 13.7823 81.1506 14.8608 81.9201 15.664C82.7705 16.5224 83.8139 17.1524 84.9581 17.4982C87.7281 18.617 88.5323 19.3324 88.5323 20.6346C88.5442 21.1838 88.3737 21.7208 88.049 22.1574C87.7242 22.5941 87.2645 22.9044 86.7452 23.0374C86.1212 23.1781 85.4749 23.1781 84.8509 23.0374C84.0339 22.712 83.3044 22.191 82.7232 21.5179C82.1419 20.8447 81.7256 20.0388 81.509 19.1673L81.2767 18.5803H80.955C80.8013 18.5921 80.6504 18.6292 80.5083 18.6904H80.3296V23.8995H80.6334C81.8407 24.3117 83.0864 24.5945 84.3505 24.7432H86.1376C86.9126 24.8016 87.6917 24.7272 88.4429 24.5231C89.3967 24.3425 90.2877 23.9088 91.0276 23.2653C91.7675 22.6218 92.3304 21.7907 92.6605 20.8547C92.8737 20.332 92.9831 19.7707 92.9821 19.204C93.0525 18.4055 92.9169 17.6021 92.589 16.8745ZM75.7546 7.39178C74.6837 6.93032 73.5299 6.70647 72.3688 6.73492C71.2076 6.76337 70.0655 7.04347 69.0173 7.55686C68.032 8.05151 67.1587 8.75271 66.4538 9.6152C65.7489 10.4777 65.2281 11.4823 64.9249 12.5642C64.5383 13.7444 64.3745 14.9894 64.4423 16.2326C64.4296 16.909 64.4834 17.5849 64.6032 18.2502C64.8918 19.8859 65.6612 21.3918 66.8081 22.5657C67.9549 23.7395 69.4243 24.5249 71.0188 24.8166C72.0572 24.9508 73.1079 24.9508 74.1462 24.8166C75.2237 24.6217 76.2549 24.217 77.1843 23.6244C77.953 23.1821 78.6036 22.5521 79.0786 21.7902C79.0481 21.6706 78.9944 21.5586 78.9207 21.4609C78.847 21.3632 78.7548 21.2818 78.6497 21.2216C78.4457 21.2974 78.2532 21.4023 78.0778 21.5334C77.1889 22.1346 76.1393 22.436 75.0755 22.3955C74.3694 22.4444 73.6616 22.3316 73.0032 22.0651C72.3448 21.7987 71.7525 21.3852 71.269 20.8547C70.895 20.4982 70.5864 20.0758 70.3576 19.6075C69.8023 18.4672 69.5031 17.2137 69.4819 15.9391V15.2238H79.3824V14.8569C79.4043 14.4904 79.4043 14.1229 79.3824 13.7564C79.3788 12.4613 79.0413 11.1902 78.4041 10.0724C77.767 8.95447 76.8528 8.02962 75.7546 7.39178ZM70.7686 13.7381H69.5177V12.6559C69.9287 9.88628 70.9473 8.23551 72.1983 8.23551C73.4493 8.23551 73.9854 9.86794 74.2177 12.8577V13.7014H73.1455L70.7686 13.7381ZM45.0703 6.7865C44.4528 6.76192 43.839 6.89423 43.2832 7.17168C42.0754 7.77371 41.0998 8.775 40.5133 10.0147L40.2809 10.4549V6.7865H40.1916C39.9771 6.7865 33.3649 8.1438 33.1505 8.23551C32.936 8.32722 33.0075 8.34556 33.0075 8.67572C33.0075 9.00587 33.0075 9.0609 33.1505 9.07924L33.8474 9.22597C34.0426 9.23089 34.2342 9.28133 34.4076 9.37349C34.581 9.46565 34.7316 9.5971 34.8482 9.75789C35.295 10.3632 35.3843 11.427 35.3843 15.9574C35.4726 17.997 35.3889 20.0406 35.1341 22.0653C35.0742 22.3706 34.9233 22.6493 34.7024 22.8628C34.4816 23.0764 34.2015 23.2143 33.901 23.2575L33.2934 23.3859H33.0611V23.8995C32.9963 24.0705 32.9963 24.2603 33.0611 24.4314H43.0509V23.8995C43.0856 23.724 43.0856 23.5431 43.0509 23.3676C42.4494 23.3435 41.8513 23.2637 41.2638 23.1291C40.9439 22.9574 40.6822 22.6902 40.5131 22.3628C40.344 22.0354 40.2756 21.6631 40.3167 21.2949C40.1737 20.2311 40.1022 17.113 40.138 14.7285C40.1737 12.3441 40.138 12.1974 40.3345 12.0323C40.9326 11.5617 41.6725 11.3215 42.4254 11.3536C43.1351 11.3695 43.8319 11.5514 44.4627 11.8855C44.6814 12.0102 44.916 12.1028 45.1597 12.1607C45.1597 12.1607 46.9468 7.72194 46.9468 7.52018C46.7181 7.24742 46.4267 7.0375 46.0991 6.90939C45.7715 6.78129 45.4179 6.73905 45.0703 6.7865ZM33.0254 14.4901C32.963 13.1794 32.5964 11.903 31.956 10.7671C31.3156 9.63133 30.4201 8.66902 29.344 7.96038C28.0651 7.25229 26.6423 6.86186 25.1898 6.82045C23.7373 6.77904 22.2956 7.0878 20.9804 7.72194C19.1209 8.72832 17.7169 10.4391 17.0667 12.4908C16.395 14.788 16.395 17.237 17.0667 19.5341C17.4188 20.7896 18.0769 21.9322 18.9789 22.854C20.1022 23.979 21.5507 24.6998 23.107 24.9083C24.1061 24.994 25.1103 24.994 26.1093 24.9083C26.477 24.8509 26.841 24.7713 27.1995 24.6698C28.6541 24.2522 29.9627 23.418 30.9723 22.2649C31.9819 21.1118 32.6506 19.6874 32.9003 18.1585C33.0787 16.9446 33.1207 15.7138 33.0254 14.4901ZM25.5911 23.661C23.804 24.2113 22.4637 22.4321 22.0169 18.6904C21.8528 16.7314 21.8528 14.7616 22.0169 12.8026C22.3743 9.79457 23.2857 8.27219 24.6975 8.27219C24.9824 8.25408 25.2673 8.30623 25.5285 8.4243C25.7896 8.54237 26.0194 8.72292 26.1987 8.95084C27.396 10.1798 27.9858 12.6192 27.9858 16.2876C28.1345 18.3637 27.8165 20.4471 27.0565 22.3771C26.7209 22.94 26.2016 23.3624 25.5911 23.5693V23.661ZM57.7586 7.15334C57.2544 7.08674 56.7439 7.08674 56.2396 7.15334C55.2716 7.15249 54.3148 7.36517 53.4339 7.77696L52.8799 8.01541V4.03522C52.9767 2.69198 52.9767 1.34324 52.8799 0C52.6655 0 45.8388 1.33896 45.7316 1.39398C45.6788 1.5294 45.6788 1.68043 45.7316 1.81585C45.7316 2.20103 45.7316 2.18269 46.5357 2.3661C46.7615 2.41808 46.9784 2.50464 47.1791 2.62289C47.5279 2.95957 47.7601 3.40396 47.8403 3.88848C48.0438 5.28434 48.1097 6.6977 48.0369 8.10712V24.2113L48.5194 24.3213C49.2342 24.4864 51.2537 24.8349 51.9149 24.9083C53.2352 25.0161 54.5618 25.0161 55.8822 24.9083C57.3477 24.7547 58.7447 24.1935 59.9224 23.2853C61.1002 22.377 62.0142 21.1562 62.5659 19.7542C62.8948 18.8544 63.1227 17.9191 63.245 16.9663C63.3514 15.6756 63.3094 14.3767 63.1199 13.0961C62.9282 11.6607 62.3109 10.3206 61.3519 9.25747C60.3928 8.19438 59.1383 7.45978 57.7586 7.15334ZM53.0765 23.3492C53.0765 23.1108 52.8978 15.077 52.9335 11.8672V9.35437L53.4518 9.22597C53.8014 9.17455 54.1565 9.17455 54.5061 9.22597C54.8929 9.18562 55.2819 9.27577 55.6141 9.48276C56.2815 9.9555 56.8357 10.5775 57.235 11.3018C57.6344 12.0262 57.8684 12.8341 57.9195 13.6647C58.0497 15.0003 58.0497 16.346 57.9195 17.6816C57.8125 19.6228 57.0838 21.4734 55.8465 22.9457C55.4953 23.2881 55.0543 23.5176 54.5776 23.606C54.217 23.6704 53.8482 23.6704 53.4875 23.606C53.148 23.606 53.148 23.496 53.148 23.3492H53.0765Z" fill="#EFECFB"/>
</g>
<defs>
<clipPath id="clip0_287_5462">
<rect width="93" height="25" fill="white"/>
</clipPath>
</defs>
</svg>
