<svg width="190" height="37" viewBox="0 0 190 37" fill="none" xmlns="http://www.w3.org/2000/svg">
<g clip-path="url(#clip0_287_5464)">
<path d="M51.442 25.3123V19.6273H46.1532V25.3758C46.1532 25.5981 45.989 25.7887 45.7262 25.7887H43.2625C43.0325 25.7887 42.8354 25.6299 42.8354 25.3758V11.5286C42.8354 11.3063 42.9997 11.1157 43.2625 11.1157H45.7262C45.9561 11.1157 46.1532 11.2745 46.1532 11.5286V16.8007H51.442V11.5286C51.442 11.3063 51.6062 11.1157 51.869 11.1157H54.3327C54.5626 11.1157 54.7597 11.2745 54.7597 11.5286V25.3123C54.7597 25.5346 54.5955 25.7252 54.3327 25.7252H51.869C51.6062 25.7569 51.442 25.5981 51.442 25.3123Z" fill="#EFECFB"/>
<path d="M61.5921 25.9794C58.143 25.9794 56.1392 24.582 56.1392 20.2309C56.1392 15.7528 58.1758 14.4507 61.3293 14.4507C64.3186 14.4507 66.1253 15.5305 66.2567 20.5803C66.2567 20.8026 66.0925 20.9932 65.8297 20.9932L59.4241 21.6284C59.5883 22.994 60.2453 23.5022 61.5921 23.5022C62.6762 23.5022 63.5959 23.3434 64.5157 22.867C64.7457 22.7717 65.0413 22.867 65.107 23.0893L65.764 24.455C65.8297 24.6138 65.764 24.8678 65.5997 24.9631C64.3515 25.6618 63.1032 25.9794 61.5921 25.9794ZM63.0704 19.1829C63.0047 17.5314 62.4134 16.8962 61.2308 16.8962C59.9497 16.8962 59.227 17.6902 59.227 19.437V19.7863L63.0704 19.1829Z" fill="#EFECFB"/>
<path d="M74.5023 25.6618C74.338 25.2489 74.2066 24.8361 74.0752 24.3597C73.4183 25.4078 72.4985 26.0112 70.7903 26.0112C67.9324 26.0112 66.7827 24.6455 66.7827 22.6129C66.7827 20.4532 68.1295 19.3099 73.6482 18.9605C73.5825 17.3726 72.7613 16.9597 71.4802 16.9597C70.5604 16.9597 69.6077 17.182 68.7208 17.5314C68.4909 17.6266 68.2281 17.5314 68.1295 17.309L67.4725 15.8481C67.4068 15.6258 67.4725 15.3717 67.6368 15.3399C68.9179 14.7047 70.3304 14.4824 71.9072 14.4824C74.8965 14.4824 76.7032 16.1975 76.7032 18.8653V21.5966C76.7032 22.7399 76.7032 23.9468 76.9331 25.0584C76.9988 25.2807 76.8346 25.5348 76.6703 25.5348L74.9622 25.9477C74.8308 25.9159 74.6008 25.8206 74.5023 25.6618ZM73.6811 20.9614C70.9874 21.1202 69.9691 21.5966 69.9691 22.4859C69.9691 23.2799 70.3961 23.6292 71.6116 23.6292C72.6956 23.6292 73.254 23.0575 73.6811 22.1683V20.9614Z" fill="#EFECFB"/>
<path d="M79.8567 25.7569C79.6925 25.7569 79.4954 25.6616 79.4297 25.5028C79.1341 24.55 79.0684 23.3114 79.0684 22.0092V11.4968C79.0684 11.2745 79.2326 11.0839 79.4954 11.0839L81.762 10.7981C81.9919 10.7346 82.2547 10.9569 82.2547 11.2109V22.168C82.2547 23.1208 82.2547 24.3277 82.419 25.2805C82.4847 25.5028 82.2547 25.7569 81.9919 25.7569H79.8239H79.8567Z" fill="#EFECFB"/>
<path d="M88.0031 26.0429C87.9045 26.1382 87.6417 26.1382 87.5104 26.0429C85.6379 24.8361 85.3423 22.7082 85.3423 20.6755V16.8961H84.094C83.8641 16.8961 83.667 16.7374 83.667 16.4833V15.0858C83.667 14.8635 83.8312 14.673 84.094 14.673H85.3423V11.9099C85.3423 11.6876 85.5065 11.497 85.7036 11.497L87.9702 11.2112C88.2002 11.1476 88.463 11.37 88.463 11.624V14.7047H90.3354C90.5653 14.7047 90.8281 14.927 90.7624 15.1811L90.5982 16.5785C90.5982 16.8009 90.3682 16.9279 90.1711 16.9279H88.463V20.7391C88.463 22.2635 88.6929 23.4069 89.5799 24.4232C89.7441 24.582 89.6784 24.8996 89.5142 25.0584L88.0031 26.0429Z" fill="#EFECFB"/>
<path d="M99.4019 25.7569C99.172 25.7569 98.9749 25.5981 98.9749 25.3441V19.6591C98.9749 17.7853 98.5478 16.9277 97.3324 16.9277C96.2155 16.9277 95.6899 17.4041 95.2301 18.2299V25.3123C95.2301 25.5346 95.0658 25.7252 94.803 25.7252H92.5364C92.3065 25.7252 92.1094 25.5664 92.1094 25.3123V11.4016C92.1094 11.1793 92.2736 10.9887 92.4707 10.9887L94.7373 10.7029C94.9673 10.6393 95.2301 10.8617 95.2301 11.1157V15.8797C95.8213 14.7998 96.8068 14.3552 98.3507 14.3552C101.701 14.3552 102.128 16.896 102.128 19.1192V25.2488C102.128 25.4711 101.964 25.6616 101.701 25.6616H99.4348L99.4019 25.7569Z" fill="#EFECFB"/>
<path d="M104.625 27.1863C105.545 26.7734 106.202 26.297 106.563 25.4712L103.048 15.4987C102.983 15.2764 103.114 14.9906 103.41 14.927L105.939 14.5777C106.169 14.5142 106.366 14.673 106.432 14.927L108.6 23.2163L110.834 14.8635C110.899 14.6412 111.064 14.5142 111.326 14.5142L113.56 14.7365C113.856 14.7365 114.053 15.0223 113.921 15.3082L110.866 24.1691C110.111 26.3605 108.698 28.2978 105.939 29.2189C105.775 29.2824 105.512 29.2189 105.413 29.0601L104.592 27.7579C104.362 27.5991 104.395 27.2815 104.625 27.1863Z" fill="#EFECFB"/>
<path d="M127.718 25.3123V19.6273H122.429V25.3758C122.429 25.5981 122.265 25.7887 122.002 25.7887H119.538C119.308 25.7887 119.111 25.6299 119.111 25.3758V11.5286C119.111 11.3063 119.276 11.1157 119.538 11.1157H122.002C122.232 11.1157 122.429 11.2745 122.429 11.5286V16.8007H127.718V11.5286C127.718 11.3063 127.882 11.1157 128.145 11.1157H130.609C130.839 11.1157 131.036 11.2745 131.036 11.5286V25.3123C131.036 25.5346 130.871 25.7252 130.609 25.7252H128.112C127.948 25.7569 127.718 25.5981 127.718 25.3123Z" fill="#EFECFB"/>
<path d="M137.869 25.9794C134.419 25.9794 132.416 24.582 132.416 20.2309C132.416 15.7528 134.452 14.4507 137.606 14.4507C140.595 14.4507 142.402 15.5305 142.533 20.5803C142.533 20.8026 142.369 20.9932 142.106 20.9932L135.7 21.6284C135.865 22.994 136.522 23.5022 137.869 23.5022C138.953 23.5022 139.872 23.3434 140.792 22.867C141.022 22.7717 141.318 22.867 141.383 23.0893L142.04 24.455C142.106 24.6138 142.04 24.8678 141.876 24.9631C140.694 25.6618 139.412 25.9794 137.869 25.9794ZM139.412 19.1829C139.347 17.5314 138.755 16.8962 137.573 16.8962C136.292 16.8962 135.569 17.6902 135.569 19.437V19.7863L139.412 19.1829Z" fill="#EFECFB"/>
<path d="M150.844 25.6618C150.679 25.2489 150.548 24.8361 150.417 24.3597C149.76 25.4078 148.84 26.0112 147.132 26.0112C144.274 26.0112 143.124 24.6455 143.124 22.6129C143.124 20.4532 144.471 19.3099 149.99 18.9605C149.924 17.3726 149.103 16.9597 147.821 16.9597C146.902 16.9597 145.949 17.182 145.062 17.5314C144.832 17.6266 144.569 17.5314 144.471 17.309L143.814 15.8481C143.748 15.6258 143.814 15.3717 143.978 15.3399C145.259 14.7047 146.672 14.4824 148.248 14.4824C151.238 14.4824 153.044 16.1975 153.044 18.8653V21.5966C153.044 22.7399 153.044 23.9468 153.274 25.0584C153.34 25.2807 153.176 25.5348 152.979 25.5348L151.271 25.9477C151.172 25.9159 150.909 25.8206 150.844 25.6618ZM149.99 20.9614C147.296 21.1202 146.278 21.5966 146.278 22.4859C146.278 23.2799 146.705 23.6292 147.92 23.6292C149.004 23.6292 149.562 23.0575 149.99 22.1683V20.9614Z" fill="#EFECFB"/>
<path d="M155.64 25.757C155.41 25.757 155.213 25.5982 155.213 25.3441V18.9286C155.213 17.7853 155.213 16.5784 154.983 15.4668C154.917 15.2445 155.082 14.9904 155.279 14.9904L156.987 14.5776C157.217 14.5141 157.414 14.6411 157.512 14.7999C157.677 15.308 157.939 15.8797 158.038 16.3879C158.564 15.4986 159.385 14.7364 160.896 14.4505C161.126 14.387 161.389 14.5458 161.421 14.7999L161.783 17.563H161.356C159.779 17.563 158.892 18.0394 158.301 19.2145V25.2806C158.301 25.5029 158.137 25.6935 157.874 25.6935H155.64V25.757Z" fill="#EFECFB"/>
<path d="M162.768 11.9415C162.768 10.8616 163.458 10.417 164.64 10.417C165.823 10.417 166.513 10.8934 166.513 11.9415C166.513 13.0848 165.823 13.4659 164.64 13.4659C163.458 13.4342 162.768 12.9895 162.768 11.9415ZM163.885 25.7569C163.721 25.7569 163.524 25.6616 163.458 25.5028C163.195 24.55 163.097 23.3114 163.097 22.0093V15.4668C163.097 15.2445 163.261 15.0539 163.524 15.0539L165.79 14.7681C166.02 14.7045 166.283 14.9269 166.283 15.1809V22.1681C166.283 23.1209 166.283 24.3277 166.447 25.2805C166.513 25.5028 166.283 25.7569 166.02 25.7569H163.852H163.885Z" fill="#EFECFB"/>
<path d="M175.809 25.7571C175.579 25.7571 175.382 25.5983 175.382 25.3442V19.6593C175.382 17.7855 174.955 16.9279 173.74 16.9279C172.623 16.9279 172.097 17.4043 171.637 18.2301V25.3125C171.637 25.5348 171.473 25.7254 171.21 25.7254H168.944C168.714 25.7254 168.517 25.5666 168.517 25.3125V18.897C168.517 17.7537 168.517 16.5468 168.287 15.4352C168.221 15.2129 168.385 14.9588 168.582 14.9588L170.291 14.546C170.52 14.4824 170.718 14.6095 170.816 14.8C170.98 15.2129 171.112 15.6576 171.243 16.1022C171.9 15.0541 172.82 14.4507 174.594 14.4507C178.306 14.4507 178.634 16.9915 178.634 19.2146V25.2807C178.634 25.503 178.47 25.6936 178.207 25.6936H175.776H175.809V25.7571Z" fill="#EFECFB"/>
<path d="M184.383 26.6464C185.828 26.6464 186.847 26.1382 186.847 23.9786V23.3434C186.19 24.4867 185.335 24.9949 183.726 24.9949C181.262 24.9949 179.718 23.5339 179.718 19.7228C179.718 15.8163 181.591 14.4507 185.073 14.4507C186.781 14.4507 188.259 14.6095 189.704 15.0224C189.869 15.0859 189.967 15.2447 189.967 15.4352V23.8833C189.967 27.2816 187.865 29.2189 184.514 29.2189C183.66 29.2189 182.642 29.1236 181.656 28.7425C181.426 28.679 181.295 28.4567 181.361 28.2344L181.788 26.6464C181.853 26.4241 182.051 26.297 182.313 26.3606C182.97 26.6146 183.66 26.6464 184.383 26.6464ZM186.847 17.1503C186.255 16.9279 185.598 16.9279 185.007 16.9279C183.594 16.9279 182.839 17.6584 182.839 19.8181C182.839 21.5966 183.102 22.6447 184.777 22.6447C185.763 22.6447 186.288 22.1683 186.847 21.4061V17.1503Z" fill="#EFECFB"/>
<path d="M22.4358 16.2292C22.6658 16.3245 23.0271 15.594 23.0928 15.2764C23.3556 14.133 23.3228 12.7674 22.7315 11.6876C21.9102 10.0996 19.9721 9.17854 18.1983 9.30558C16.7529 9.3691 15.3404 10.1949 14.4863 11.4017C13.4023 12.9262 13.5665 14.9906 14.552 16.515C15.4718 17.9125 16.0631 17.4678 16.9172 16.5785C17.7384 15.6893 18.8553 16.4833 19.1509 17.4043C19.3152 17.9124 18.7896 18.2936 18.4611 18.6112C17.8041 19.1193 17.4756 19.6592 17.2785 20.485C17.18 21.0567 17.1143 22.6764 16.1616 22.6764C15.6689 22.6764 15.4718 22.1683 15.4061 21.8189C14.9791 19.6275 15.0448 19.6592 14.9791 19.5322C14.9791 19.5322 14.9791 19.5322 14.9791 19.4687C14.8148 19.2464 14.4535 19.4052 14.4535 19.691C14.5192 20.2627 14.552 20.9931 14.552 21.0884C14.6506 22.1365 15.0776 24.582 16.7201 24.0421C18.1326 23.5339 18.0669 21.7554 18.2968 20.5803C18.5596 19.1828 19.7422 18.9288 20.3335 17.6266C20.9248 16.3245 20.4977 14.8953 19.4137 14.4824C17.7712 13.8154 16.95 15.2764 16.0631 16.0704C15.8331 16.2292 15.5375 16.1657 15.4061 15.9116C14.9134 14.5459 15.2419 12.7356 16.3916 11.7828C17.6399 10.703 19.6765 10.7348 21.0233 11.624C22.2059 12.418 22.8957 13.8155 22.5344 15.2129C22.4358 15.6893 22.173 16.1021 22.4358 16.2292Z" fill="#EFECFB"/>
<path d="M10.9715 14.7685C10.5445 10.862 12.9096 7.55902 17.0158 6.98735C20.4649 6.47919 23.9798 8.28949 25.2281 11.529C25.8194 13.0534 25.7537 14.7685 25.1295 16.2929C24.374 18.0079 22.8958 19.1831 21.9432 20.771C20.5306 23.2165 21.3519 29.1238 16.8187 28.6157C16.2931 28.5521 15.8332 28.5204 15.3733 28.2028C14.5521 27.7264 14.0265 27.0594 13.7308 26.0431C13.6652 25.8843 13.5666 25.4715 13.3038 25.4715C13.2053 25.4715 13.1396 25.5668 13.1396 25.6938C13.1396 25.9161 13.2381 26.4243 13.4024 26.9324C13.7637 27.8217 14.2236 28.5204 15.0448 28.965C16.8844 30.0131 19.8408 30.0131 21.3847 28.0122C22.7972 26.1384 22.2388 24.2011 23.2243 22.3908C24.2098 20.4534 25.9179 18.9925 26.7391 16.9599C27.3961 15.3084 27.3961 13.244 26.8377 11.8466C25.5894 8.38477 22.206 5.93928 18.6254 5.71696C14.5849 5.3676 10.5773 8.16246 9.88749 12.1324C9.72324 13.1805 9.72324 14.2285 9.95319 15.2766C10.216 16.3564 10.4788 16.8646 10.7744 16.9916C11.0044 17.0869 11.5299 16.9281 11.3657 16.42C11.1686 15.753 11.0044 15.1178 10.9715 14.7685Z" fill="#EFECFB"/>
<path d="M18.0342 -8.43287e-05C8.21232 0.0951946 0.164255 7.87631 8.75967e-06 17.3725C-0.0656897 22.4858 2.06951 27.0909 5.58438 30.3621C5.74863 30.5209 5.81432 30.7115 5.74863 30.9338C5.68293 31.3467 5.51868 32.0772 5.09164 33.0935C4.92739 33.5064 4.5989 34.2368 4.43466 34.6815C4.27041 35.0308 3.94192 35.6342 3.90907 35.9836C3.84337 36.2059 3.84337 36.46 3.97477 36.6506C4.13901 36.8729 4.4675 36.9999 4.7303 36.9999C5.15734 36.9999 5.91287 36.8411 6.6684 36.5235C7.48963 36.2377 8.44226 35.8566 9.26349 35.5707C9.95333 35.2849 11.3001 34.7767 12.1871 34.4909C12.2856 34.4274 12.417 34.4274 12.5484 34.4909C14.388 35.0626 16.2604 35.3802 18.2642 35.3802C28.3489 35.3802 36.5284 27.5038 36.5284 17.7218C36.5941 7.81279 28.2175 -0.190642 18.0342 -8.43287e-05ZM9.98618 34.0145C9.16495 34.3639 6.7998 35.3167 5.81432 35.7295C5.58438 35.8248 5.32159 35.666 5.45298 35.4755C6.04427 34.4274 6.70125 32.5853 6.96405 31.8231L7.25969 30.6162C7.32539 30.3939 7.25969 30.1398 7.09544 30.0445C3.38348 27.0274 1.11688 22.6128 1.11688 17.6583C1.11688 8.09862 9.52629 1.07975 17.9685 1.07975C26.6736 1.07975 34.5903 8.06686 34.5903 17.6583C34.5903 26.1063 27.0678 33.7287 17.8371 33.7287C16.0633 33.7287 14.4208 33.5064 12.8441 32.9982C12.7455 32.9347 12.5813 32.9347 12.417 32.9982L9.98618 34.0145Z" fill="#EFECFB"/>
</g>
<defs>
<clipPath id="clip0_287_5464">
<rect width="190" height="37" fill="white"/>
</clipPath>
</defs>
</svg>
