<svg width="48" height="48" viewBox="0 0 48 48" fill="none" xmlns="http://www.w3.org/2000/svg">
<rect x="10" y="13" width="28" height="21" fill="white"/>
<path fill-rule="evenodd" clip-rule="evenodd" d="M15.5693 29.7721V18.2277C15.5693 17.8688 15.6655 17.5275 15.8494 17.2299C16.0244 16.9411 16.2783 16.696 16.5977 16.5122C16.9128 16.3327 17.2541 16.2365 17.5999 16.2233C17.9456 16.2102 18.2913 16.2758 18.6195 16.429L31.2317 22.1968C31.6037 22.3675 31.8968 22.6169 32.1025 22.9189C32.3169 23.234 32.4308 23.606 32.4308 23.9998C32.4308 24.3937 32.3169 24.7612 32.1025 25.0763C31.8968 25.3826 31.6037 25.6321 31.2317 25.7984L18.6195 31.5706C18.2913 31.7194 17.9455 31.7894 17.5999 31.7763C17.2541 31.7587 16.9128 31.6625 16.5977 31.4874C16.2783 31.3037 16.0244 31.0586 15.8494 30.7697C15.6655 30.4723 15.5693 30.1309 15.5693 29.7721ZM41.2532 5.63306H6.74681C4.90444 5.63306 3.22837 6.38577 2.01178 7.59796C0.799594 8.81456 0.046875 10.4862 0.046875 12.333V35.6668C0.046875 37.5092 0.799594 39.1852 2.01178 40.3975C3.22837 41.6141 4.90444 42.3668 6.74681 42.3668H41.2532C43.0956 42.3668 44.7716 41.6141 45.9839 40.3975C47.2005 39.1853 47.9532 37.5093 47.9532 35.6668V12.333C47.9532 10.4862 47.2005 8.81456 45.9839 7.59796C44.7716 6.38568 43.0956 5.63306 41.2532 5.63306Z" fill="#FF2E1F"/>
</svg>
