<svg width="589" height="170" viewBox="0 0 589 170" fill="none" xmlns="http://www.w3.org/2000/svg">
<path d="M88 4C88 1.79086 89.7909 0 92 0H584C586.209 0 588 1.79086 588 4V156H88V4Z" fill="#F7F6FD"/>
<path d="M4.732 34.168C4.06933 34.168 3.45333 34.0467 2.884 33.804C2.324 33.5613 1.83867 33.2253 1.428 32.796C1.02667 32.3573 0.732667 31.8487 0.546 31.27L2.128 30.584C2.38 31.1813 2.744 31.6527 3.22 31.998C3.696 32.334 4.23267 32.502 4.83 32.502C5.166 32.502 5.45533 32.4507 5.698 32.348C5.95 32.236 6.14133 32.0867 6.272 31.9C6.412 31.7133 6.482 31.4893 6.482 31.228C6.482 30.92 6.38867 30.668 6.202 30.472C6.02467 30.2667 5.754 30.108 5.39 29.996L3.388 29.352C2.576 29.1 1.96467 28.722 1.554 28.218C1.14333 27.714 0.938 27.1213 0.938 26.44C0.938 25.8427 1.08267 25.3153 1.372 24.858C1.67067 24.4007 2.08133 24.046 2.604 23.794C3.136 23.5327 3.74267 23.402 4.424 23.402C5.04933 23.402 5.62333 23.514 6.146 23.738C6.66867 23.9527 7.11667 24.256 7.49 24.648C7.87267 25.0307 8.15733 25.4833 8.344 26.006L6.776 26.706C6.57067 26.1833 6.26267 25.782 5.852 25.502C5.44133 25.2127 4.96533 25.068 4.424 25.068C4.10667 25.068 3.82667 25.124 3.584 25.236C3.34133 25.3387 3.15 25.488 3.01 25.684C2.87933 25.8707 2.814 26.0947 2.814 26.356C2.814 26.6453 2.90733 26.902 3.094 27.126C3.28067 27.3407 3.56533 27.5087 3.948 27.63L5.866 28.232C6.69667 28.5027 7.31733 28.876 7.728 29.352C8.148 29.828 8.358 30.416 8.358 31.116C8.358 31.7133 8.204 32.2407 7.896 32.698C7.588 33.1553 7.16333 33.5147 6.622 33.776C6.08067 34.0373 5.45067 34.168 4.732 34.168ZM13.5305 34.168C12.7465 34.168 12.0605 33.9907 11.4725 33.636C10.8845 33.2813 10.4271 32.8007 10.1005 32.194C9.77379 31.5873 9.61045 30.9153 9.61045 30.178C9.61045 29.4127 9.77379 28.736 10.1005 28.148C10.4365 27.5507 10.8891 27.0793 11.4585 26.734C12.0371 26.3887 12.6811 26.216 13.3905 26.216C13.9878 26.216 14.5105 26.314 14.9585 26.51C15.4158 26.706 15.8031 26.9767 16.1205 27.322C16.4378 27.6673 16.6805 28.064 16.8485 28.512C17.0165 28.9507 17.1005 29.4267 17.1005 29.94C17.1005 30.0707 17.0911 30.206 17.0725 30.346C17.0631 30.486 17.0398 30.6073 17.0025 30.71H11.1225V29.31H15.9665L15.0985 29.968C15.1825 29.5387 15.1591 29.156 15.0285 28.82C14.9071 28.484 14.7018 28.218 14.4125 28.022C14.1325 27.826 13.7918 27.728 13.3905 27.728C13.0078 27.728 12.6671 27.826 12.3685 28.022C12.0698 28.2087 11.8411 28.4887 11.6825 28.862C11.5331 29.226 11.4771 29.6693 11.5145 30.192C11.4771 30.6587 11.5378 31.074 11.6965 31.438C11.8645 31.7927 12.1071 32.068 12.4245 32.264C12.7511 32.46 13.1245 32.558 13.5445 32.558C13.9645 32.558 14.3191 32.4693 14.6085 32.292C14.9071 32.1147 15.1405 31.8767 15.3085 31.578L16.7925 32.306C16.6431 32.67 16.4098 32.992 16.0925 33.272C15.7751 33.552 15.3971 33.7713 14.9585 33.93C14.5291 34.0887 14.0531 34.168 13.5305 34.168ZM20.65 34L17.654 26.384H19.656L21.826 32.376H21.084L23.268 26.384H25.27L22.274 34H20.65ZM29.759 34.168C28.975 34.168 28.289 33.9907 27.701 33.636C27.113 33.2813 26.6556 32.8007 26.329 32.194C26.0023 31.5873 25.839 30.9153 25.839 30.178C25.839 29.4127 26.0023 28.736 26.329 28.148C26.665 27.5507 27.1176 27.0793 27.687 26.734C28.2656 26.3887 28.9096 26.216 29.619 26.216C30.2163 26.216 30.739 26.314 31.187 26.51C31.6443 26.706 32.0316 26.9767 32.349 27.322C32.6663 27.6673 32.909 28.064 33.077 28.512C33.245 28.9507 33.329 29.4267 33.329 29.94C33.329 30.0707 33.3196 30.206 33.301 30.346C33.2916 30.486 33.2683 30.6073 33.231 30.71H27.351V29.31H32.195L31.327 29.968C31.411 29.5387 31.3876 29.156 31.257 28.82C31.1356 28.484 30.9303 28.218 30.641 28.022C30.361 27.826 30.0203 27.728 29.619 27.728C29.2363 27.728 28.8956 27.826 28.597 28.022C28.2983 28.2087 28.0696 28.4887 27.911 28.862C27.7616 29.226 27.7056 29.6693 27.743 30.192C27.7056 30.6587 27.7663 31.074 27.925 31.438C28.093 31.7927 28.3356 32.068 28.653 32.264C28.9796 32.46 29.353 32.558 29.773 32.558C30.193 32.558 30.5476 32.4693 30.837 32.292C31.1356 32.1147 31.369 31.8767 31.537 31.578L33.021 32.306C32.8716 32.67 32.6383 32.992 32.321 33.272C32.0036 33.552 31.6256 33.7713 31.187 33.93C30.7576 34.0887 30.2816 34.168 29.759 34.168ZM34.7192 34V26.384H36.4412V28.078L36.3012 27.826C36.4786 27.2567 36.7539 26.86 37.1272 26.636C37.5099 26.412 37.9672 26.3 38.4992 26.3H38.9472V27.924H38.2892C37.7666 27.924 37.3466 28.0873 37.0292 28.414C36.7119 28.7313 36.5532 29.1793 36.5532 29.758V34H34.7192ZM43.5676 34.168C42.7836 34.168 42.0976 33.9907 41.5096 33.636C40.9216 33.2813 40.4642 32.8007 40.1376 32.194C39.8109 31.5873 39.6476 30.9153 39.6476 30.178C39.6476 29.4127 39.8109 28.736 40.1376 28.148C40.4736 27.5507 40.9262 27.0793 41.4956 26.734C42.0742 26.3887 42.7182 26.216 43.4276 26.216C44.0249 26.216 44.5476 26.314 44.9956 26.51C45.4529 26.706 45.8402 26.9767 46.1576 27.322C46.4749 27.6673 46.7176 28.064 46.8856 28.512C47.0536 28.9507 47.1376 29.4267 47.1376 29.94C47.1376 30.0707 47.1282 30.206 47.1096 30.346C47.1002 30.486 47.0769 30.6073 47.0396 30.71H41.1596V29.31H46.0036L45.1356 29.968C45.2196 29.5387 45.1962 29.156 45.0656 28.82C44.9442 28.484 44.7389 28.218 44.4496 28.022C44.1696 27.826 43.8289 27.728 43.4276 27.728C43.0449 27.728 42.7042 27.826 42.4056 28.022C42.1069 28.2087 41.8782 28.4887 41.7196 28.862C41.5702 29.226 41.5142 29.6693 41.5516 30.192C41.5142 30.6587 41.5749 31.074 41.7336 31.438C41.9016 31.7927 42.1442 32.068 42.4616 32.264C42.7882 32.46 43.1616 32.558 43.5816 32.558C44.0016 32.558 44.3562 32.4693 44.6456 32.292C44.9442 32.1147 45.1776 31.8767 45.3456 31.578L46.8296 32.306C46.6802 32.67 46.4469 32.992 46.1296 33.272C45.8122 33.552 45.4342 33.7713 44.9956 33.93C44.5662 34.0887 44.0902 34.168 43.5676 34.168Z" fill="#2E168D"/>
<path d="M4.732 74.168C4.06933 74.168 3.45333 74.0467 2.884 73.804C2.324 73.5613 1.83867 73.2253 1.428 72.796C1.02667 72.3573 0.732667 71.8487 0.546 71.27L2.128 70.584C2.38 71.1813 2.744 71.6527 3.22 71.998C3.696 72.334 4.23267 72.502 4.83 72.502C5.166 72.502 5.45533 72.4507 5.698 72.348C5.95 72.236 6.14133 72.0867 6.272 71.9C6.412 71.7133 6.482 71.4893 6.482 71.228C6.482 70.92 6.38867 70.668 6.202 70.472C6.02467 70.2667 5.754 70.108 5.39 69.996L3.388 69.352C2.576 69.1 1.96467 68.722 1.554 68.218C1.14333 67.714 0.938 67.1213 0.938 66.44C0.938 65.8427 1.08267 65.3153 1.372 64.858C1.67067 64.4007 2.08133 64.046 2.604 63.794C3.136 63.5327 3.74267 63.402 4.424 63.402C5.04933 63.402 5.62333 63.514 6.146 63.738C6.66867 63.9527 7.11667 64.256 7.49 64.648C7.87267 65.0307 8.15733 65.4833 8.344 66.006L6.776 66.706C6.57067 66.1833 6.26267 65.782 5.852 65.502C5.44133 65.2127 4.96533 65.068 4.424 65.068C4.10667 65.068 3.82667 65.124 3.584 65.236C3.34133 65.3387 3.15 65.488 3.01 65.684C2.87933 65.8707 2.814 66.0947 2.814 66.356C2.814 66.6453 2.90733 66.902 3.094 67.126C3.28067 67.3407 3.56533 67.5087 3.948 67.63L5.866 68.232C6.69667 68.5027 7.31733 68.876 7.728 69.352C8.148 69.828 8.358 70.416 8.358 71.116C8.358 71.7133 8.204 72.2407 7.896 72.698C7.588 73.1553 7.16333 73.5147 6.622 73.776C6.08067 74.0373 5.45067 74.168 4.732 74.168ZM13.5305 74.168C12.7465 74.168 12.0605 73.9907 11.4725 73.636C10.8845 73.2813 10.4271 72.8007 10.1005 72.194C9.77379 71.5873 9.61045 70.9153 9.61045 70.178C9.61045 69.4127 9.77379 68.736 10.1005 68.148C10.4365 67.5507 10.8891 67.0793 11.4585 66.734C12.0371 66.3887 12.6811 66.216 13.3905 66.216C13.9878 66.216 14.5105 66.314 14.9585 66.51C15.4158 66.706 15.8031 66.9767 16.1205 67.322C16.4378 67.6673 16.6805 68.064 16.8485 68.512C17.0165 68.9507 17.1005 69.4267 17.1005 69.94C17.1005 70.0707 17.0911 70.206 17.0725 70.346C17.0631 70.486 17.0398 70.6073 17.0025 70.71H11.1225V69.31H15.9665L15.0985 69.968C15.1825 69.5387 15.1591 69.156 15.0285 68.82C14.9071 68.484 14.7018 68.218 14.4125 68.022C14.1325 67.826 13.7918 67.728 13.3905 67.728C13.0078 67.728 12.6671 67.826 12.3685 68.022C12.0698 68.2087 11.8411 68.4887 11.6825 68.862C11.5331 69.226 11.4771 69.6693 11.5145 70.192C11.4771 70.6587 11.5378 71.074 11.6965 71.438C11.8645 71.7927 12.1071 72.068 12.4245 72.264C12.7511 72.46 13.1245 72.558 13.5445 72.558C13.9645 72.558 14.3191 72.4693 14.6085 72.292C14.9071 72.1147 15.1405 71.8767 15.3085 71.578L16.7925 72.306C16.6431 72.67 16.4098 72.992 16.0925 73.272C15.7751 73.552 15.3971 73.7713 14.9585 73.93C14.5291 74.0887 14.0531 74.168 13.5305 74.168ZM18.4907 74V66.384H20.2127V68.078L20.0727 67.826C20.2501 67.2567 20.5254 66.86 20.8987 66.636C21.2814 66.412 21.7387 66.3 22.2707 66.3H22.7187V67.924H22.0607C21.5381 67.924 21.1181 68.0873 20.8007 68.414C20.4834 68.7313 20.3247 69.1793 20.3247 69.758V74H18.4907ZM23.727 74V66.384H25.561V74H23.727ZM23.727 65.53V63.57H25.561V65.53H23.727ZM30.9784 74.168C30.2317 74.168 29.5504 73.9953 28.9344 73.65C28.3277 73.3047 27.8424 72.8333 27.4784 72.236C27.1237 71.6387 26.9464 70.9573 26.9464 70.192C26.9464 69.4267 27.1237 68.7453 27.4784 68.148C27.8424 67.5507 28.3277 67.0793 28.9344 66.734C29.5411 66.3887 30.2224 66.216 30.9784 66.216C31.7251 66.216 32.4017 66.3887 33.0084 66.734C33.6151 67.0793 34.0957 67.5507 34.4504 68.148C34.8144 68.736 34.9964 69.4173 34.9964 70.192C34.9964 70.9573 34.8144 71.6387 34.4504 72.236C34.0864 72.8333 33.6011 73.3047 32.9944 73.65C32.3877 73.9953 31.7157 74.168 30.9784 74.168ZM30.9784 72.488C31.3891 72.488 31.7484 72.39 32.0564 72.194C32.3737 71.998 32.6211 71.7273 32.7984 71.382C32.9851 71.0273 33.0784 70.6307 33.0784 70.192C33.0784 69.744 32.9851 69.352 32.7984 69.016C32.6211 68.6707 32.3737 68.4 32.0564 68.204C31.7484 67.9987 31.3891 67.896 30.9784 67.896C30.5584 67.896 30.1897 67.9987 29.8724 68.204C29.5551 68.4 29.3031 68.6707 29.1164 69.016C28.9391 69.352 28.8504 69.744 28.8504 70.192C28.8504 70.6307 28.9391 71.0273 29.1164 71.382C29.3031 71.7273 29.5551 71.998 29.8724 72.194C30.1897 72.39 30.5584 72.488 30.9784 72.488ZM39.1032 74.168C38.5152 74.168 38.0019 74.0373 37.5632 73.776C37.1339 73.5147 36.8025 73.1507 36.5692 72.684C36.3452 72.2173 36.2332 71.6713 36.2332 71.046V66.384H38.0672V70.892C38.0672 71.2093 38.1279 71.4893 38.2492 71.732C38.3799 71.9653 38.5619 72.152 38.7952 72.292C39.0379 72.4227 39.3085 72.488 39.6072 72.488C39.9059 72.488 40.1719 72.4227 40.4052 72.292C40.6385 72.152 40.8205 71.9607 40.9512 71.718C41.0819 71.4753 41.1472 71.186 41.1472 70.85V66.384H42.9812V74H41.2452V72.502L41.3992 72.768C41.2219 73.2347 40.9279 73.5847 40.5172 73.818C40.1159 74.0513 39.6445 74.168 39.1032 74.168ZM47.584 74.168C46.772 74.168 46.0627 73.9767 45.456 73.594C44.8587 73.202 44.448 72.6747 44.224 72.012L45.596 71.354C45.792 71.7833 46.0627 72.1193 46.408 72.362C46.7627 72.6047 47.1547 72.726 47.584 72.726C47.92 72.726 48.186 72.6513 48.382 72.502C48.578 72.3527 48.676 72.1567 48.676 71.914C48.676 71.7647 48.634 71.6433 48.55 71.55C48.4754 71.4473 48.368 71.3633 48.228 71.298C48.0974 71.2233 47.9527 71.1627 47.794 71.116L46.548 70.766C45.904 70.5793 45.414 70.2947 45.078 69.912C44.7514 69.5293 44.588 69.0767 44.588 68.554C44.588 68.0873 44.7047 67.6813 44.938 67.336C45.1807 66.9813 45.512 66.706 45.932 66.51C46.3614 66.314 46.8514 66.216 47.402 66.216C48.1207 66.216 48.7554 66.3887 49.306 66.734C49.8567 67.0793 50.2487 67.5647 50.482 68.19L49.082 68.848C48.9514 68.5027 48.732 68.2273 48.424 68.022C48.116 67.8167 47.7707 67.714 47.388 67.714C47.08 67.714 46.8374 67.784 46.66 67.924C46.4827 68.064 46.394 68.246 46.394 68.47C46.394 68.61 46.4314 68.7313 46.506 68.834C46.5807 68.9367 46.6834 69.0207 46.814 69.086C46.954 69.1513 47.1127 69.212 47.29 69.268L48.508 69.632C49.1334 69.8187 49.614 70.0987 49.95 70.472C50.2954 70.8453 50.468 71.3027 50.468 71.844C50.468 72.3013 50.3467 72.7073 50.104 73.062C49.8614 73.4073 49.5254 73.678 49.096 73.874C48.6667 74.07 48.1627 74.168 47.584 74.168Z" fill="#2E168D"/>
<path d="M1.008 114V103.57H2.828L6.734 108.876H5.866L9.688 103.57H11.508V114H9.59V105.74L10.332 105.922L6.37 111.2H6.146L2.282 105.922L2.912 105.74V114H1.008ZM17.0741 114.168C16.3274 114.168 15.6461 113.995 15.0301 113.65C14.4234 113.305 13.9381 112.833 13.5741 112.236C13.2194 111.639 13.0421 110.957 13.0421 110.192C13.0421 109.427 13.2194 108.745 13.5741 108.148C13.9381 107.551 14.4234 107.079 15.0301 106.734C15.6368 106.389 16.3181 106.216 17.0741 106.216C17.8208 106.216 18.4974 106.389 19.1041 106.734C19.7108 107.079 20.1914 107.551 20.5461 108.148C20.9101 108.736 21.0921 109.417 21.0921 110.192C21.0921 110.957 20.9101 111.639 20.5461 112.236C20.1821 112.833 19.6968 113.305 19.0901 113.65C18.4834 113.995 17.8114 114.168 17.0741 114.168ZM17.0741 112.488C17.4848 112.488 17.8441 112.39 18.1521 112.194C18.4694 111.998 18.7168 111.727 18.8941 111.382C19.0808 111.027 19.1741 110.631 19.1741 110.192C19.1741 109.744 19.0808 109.352 18.8941 109.016C18.7168 108.671 18.4694 108.4 18.1521 108.204C17.8441 107.999 17.4848 107.896 17.0741 107.896C16.6541 107.896 16.2854 107.999 15.9681 108.204C15.6508 108.4 15.3988 108.671 15.2121 109.016C15.0348 109.352 14.9461 109.744 14.9461 110.192C14.9461 110.631 15.0348 111.027 15.2121 111.382C15.3988 111.727 15.6508 111.998 15.9681 112.194C16.2854 112.39 16.6541 112.488 17.0741 112.488ZM26.0249 114.168C25.2876 114.168 24.6296 113.995 24.0509 113.65C23.4722 113.295 23.0149 112.815 22.6789 112.208C22.3429 111.601 22.1749 110.929 22.1749 110.192C22.1749 109.445 22.3429 108.773 22.6789 108.176C23.0149 107.579 23.4722 107.103 24.0509 106.748C24.6389 106.393 25.2922 106.216 26.0109 106.216C26.5896 106.216 27.1029 106.333 27.5509 106.566C28.0082 106.79 28.3676 107.107 28.6289 107.518L28.3489 107.896V103.402H30.1829V114H28.4469V112.53L28.6429 112.894C28.3816 113.305 28.0176 113.622 27.5509 113.846C27.0842 114.061 26.5756 114.168 26.0249 114.168ZM26.2209 112.488C26.6409 112.488 27.0096 112.39 27.3269 112.194C27.6442 111.998 27.8916 111.727 28.0689 111.382C28.2556 111.037 28.3489 110.64 28.3489 110.192C28.3489 109.753 28.2556 109.361 28.0689 109.016C27.8916 108.661 27.6442 108.386 27.3269 108.19C27.0096 107.994 26.6409 107.896 26.2209 107.896C25.8102 107.896 25.4416 107.999 25.1149 108.204C24.7882 108.4 24.5316 108.671 24.3449 109.016C24.1676 109.352 24.0789 109.744 24.0789 110.192C24.0789 110.64 24.1676 111.037 24.3449 111.382C24.5316 111.727 24.7882 111.998 25.1149 112.194C25.4416 112.39 25.8102 112.488 26.2209 112.488ZM35.5012 114.168C34.7172 114.168 34.0312 113.991 33.4432 113.636C32.8552 113.281 32.3978 112.801 32.0712 112.194C31.7445 111.587 31.5812 110.915 31.5812 110.178C31.5812 109.413 31.7445 108.736 32.0712 108.148C32.4072 107.551 32.8598 107.079 33.4292 106.734C34.0078 106.389 34.6518 106.216 35.3612 106.216C35.9585 106.216 36.4812 106.314 36.9292 106.51C37.3865 106.706 37.7738 106.977 38.0912 107.322C38.4085 107.667 38.6512 108.064 38.8192 108.512C38.9872 108.951 39.0712 109.427 39.0712 109.94C39.0712 110.071 39.0618 110.206 39.0432 110.346C39.0338 110.486 39.0105 110.607 38.9732 110.71H33.0932V109.31H37.9372L37.0692 109.968C37.1532 109.539 37.1298 109.156 36.9992 108.82C36.8778 108.484 36.6725 108.218 36.3832 108.022C36.1032 107.826 35.7625 107.728 35.3612 107.728C34.9785 107.728 34.6378 107.826 34.3392 108.022C34.0405 108.209 33.8118 108.489 33.6532 108.862C33.5038 109.226 33.4478 109.669 33.4852 110.192C33.4478 110.659 33.5085 111.074 33.6672 111.438C33.8352 111.793 34.0778 112.068 34.3952 112.264C34.7218 112.46 35.0952 112.558 35.5152 112.558C35.9352 112.558 36.2898 112.469 36.5792 112.292C36.8778 112.115 37.1112 111.877 37.2792 111.578L38.7632 112.306C38.6138 112.67 38.3805 112.992 38.0632 113.272C37.7458 113.552 37.3678 113.771 36.9292 113.93C36.4998 114.089 36.0238 114.168 35.5012 114.168ZM40.4614 114V106.384H42.1834V108.078L42.0434 107.826C42.2208 107.257 42.4961 106.86 42.8694 106.636C43.2521 106.412 43.7094 106.3 44.2414 106.3H44.6894V107.924H44.0314C43.5088 107.924 43.0888 108.087 42.7714 108.414C42.4541 108.731 42.2954 109.179 42.2954 109.758V114H40.4614ZM48.0078 114.168C47.4758 114.168 47.0138 114.079 46.6218 113.902C46.2298 113.725 45.9264 113.473 45.7118 113.146C45.4971 112.81 45.3898 112.423 45.3898 111.984C45.3898 111.564 45.4831 111.191 45.6698 110.864C45.8564 110.528 46.1458 110.248 46.5378 110.024C46.9298 109.8 47.4244 109.641 48.0218 109.548L50.5138 109.142V110.542L48.3718 110.906C48.0078 110.971 47.7371 111.088 47.5598 111.256C47.3824 111.424 47.2938 111.643 47.2938 111.914C47.2938 112.175 47.3918 112.385 47.5878 112.544C47.7931 112.693 48.0451 112.768 48.3438 112.768C48.7264 112.768 49.0624 112.689 49.3518 112.53C49.6504 112.362 49.8791 112.133 50.0378 111.844C50.2058 111.555 50.2898 111.237 50.2898 110.892V108.932C50.2898 108.605 50.1591 108.335 49.8978 108.12C49.6458 107.896 49.3098 107.784 48.8898 107.784C48.4978 107.784 48.1478 107.891 47.8398 108.106C47.5411 108.311 47.3218 108.587 47.1818 108.932L45.6838 108.204C45.8331 107.803 46.0664 107.457 46.3838 107.168C46.7104 106.869 47.0931 106.636 47.5318 106.468C47.9704 106.3 48.4464 106.216 48.9597 106.216C49.5851 106.216 50.1358 106.333 50.6118 106.566C51.0878 106.79 51.4564 107.107 51.7178 107.518C51.9884 107.919 52.1238 108.391 52.1238 108.932V114H50.3878V112.698L50.7798 112.67C50.5838 112.997 50.3504 113.272 50.0798 113.496C49.8091 113.711 49.5011 113.879 49.1558 114C48.8104 114.112 48.4278 114.168 48.0078 114.168ZM57.1541 114.084C56.2955 114.084 55.6281 113.851 55.1521 113.384C54.6855 112.908 54.4521 112.241 54.4521 111.382V108.022H53.1361V106.384H53.2761C53.6495 106.384 53.9388 106.286 54.1441 106.09C54.3495 105.894 54.4521 105.609 54.4521 105.236V104.648H56.2861V106.384H58.0361V108.022H56.2861V111.284C56.2861 111.536 56.3281 111.751 56.4121 111.928C56.5055 112.105 56.6455 112.241 56.8321 112.334C57.0281 112.427 57.2755 112.474 57.5741 112.474C57.6395 112.474 57.7141 112.469 57.7981 112.46C57.8915 112.451 57.9801 112.441 58.0641 112.432V114C57.9335 114.019 57.7841 114.037 57.6161 114.056C57.4481 114.075 57.2941 114.084 57.1541 114.084ZM63.009 114.168C62.225 114.168 61.539 113.991 60.951 113.636C60.363 113.281 59.9056 112.801 59.579 112.194C59.2523 111.587 59.089 110.915 59.089 110.178C59.089 109.413 59.2523 108.736 59.579 108.148C59.915 107.551 60.3676 107.079 60.937 106.734C61.5156 106.389 62.1596 106.216 62.869 106.216C63.4663 106.216 63.989 106.314 64.437 106.51C64.8943 106.706 65.2816 106.977 65.599 107.322C65.9163 107.667 66.159 108.064 66.327 108.512C66.495 108.951 66.579 109.427 66.579 109.94C66.579 110.071 66.5696 110.206 66.551 110.346C66.5416 110.486 66.5183 110.607 66.481 110.71H60.601V109.31H65.445L64.577 109.968C64.661 109.539 64.6376 109.156 64.507 108.82C64.3856 108.484 64.1803 108.218 63.891 108.022C63.611 107.826 63.2703 107.728 62.869 107.728C62.4863 107.728 62.1456 107.826 61.847 108.022C61.5483 108.209 61.3196 108.489 61.161 108.862C61.0116 109.226 60.9556 109.669 60.993 110.192C60.9556 110.659 61.0163 111.074 61.175 111.438C61.343 111.793 61.5856 112.068 61.903 112.264C62.2296 112.46 62.603 112.558 63.023 112.558C63.443 112.558 63.7976 112.469 64.087 112.292C64.3856 112.115 64.619 111.877 64.787 111.578L66.271 112.306C66.1216 112.67 65.8883 112.992 65.571 113.272C65.2536 113.552 64.8756 113.771 64.437 113.93C64.0076 114.089 63.5316 114.168 63.009 114.168Z" fill="#2E168D"/>
<path d="M1.008 154V143.57H2.828L6.734 148.876H5.866L9.688 143.57H11.508V154H9.59V145.74L10.332 145.922L6.37 151.2H6.146L2.282 145.922L2.912 145.74V154H1.008ZM13.3501 154V146.384H15.1841V154H13.3501ZM13.3501 145.53V143.57H15.1841V145.53H13.3501ZM16.8774 154V143.402H18.7114V154H16.8774ZM23.9468 154.168C23.2094 154.168 22.5514 153.995 21.9728 153.65C21.3941 153.295 20.9368 152.815 20.6008 152.208C20.2648 151.601 20.0968 150.929 20.0968 150.192C20.0968 149.445 20.2648 148.773 20.6008 148.176C20.9368 147.579 21.3941 147.103 21.9728 146.748C22.5608 146.393 23.2141 146.216 23.9328 146.216C24.5114 146.216 25.0248 146.333 25.4728 146.566C25.9301 146.79 26.2894 147.107 26.5508 147.518L26.2708 147.896V143.402H28.1048V154H26.3688V152.53L26.5648 152.894C26.3034 153.305 25.9394 153.622 25.4728 153.846C25.0061 154.061 24.4974 154.168 23.9468 154.168ZM24.1428 152.488C24.5628 152.488 24.9314 152.39 25.2488 152.194C25.5661 151.998 25.8134 151.727 25.9908 151.382C26.1774 151.037 26.2708 150.64 26.2708 150.192C26.2708 149.753 26.1774 149.361 25.9908 149.016C25.8134 148.661 25.5661 148.386 25.2488 148.19C24.9314 147.994 24.5628 147.896 24.1428 147.896C23.7321 147.896 23.3634 147.999 23.0368 148.204C22.7101 148.4 22.4534 148.671 22.2668 149.016C22.0894 149.352 22.0008 149.744 22.0008 150.192C22.0008 150.64 22.0894 151.037 22.2668 151.382C22.4534 151.727 22.7101 151.998 23.0368 152.194C23.3634 152.39 23.7321 152.488 24.1428 152.488Z" fill="#2E168D"/>
<path d="M147.048 70H88V155H588C398.213 147.872 303.405 126.685 147.048 70Z" fill="#DCD6F6"/>
<path d="M88 70H147.048C303.405 126.685 398.213 147.872 588 155" stroke="#2E168D"/>
<g filter="url(#filter0_d_830_3777)">
<circle cx="147" cy="70" r="5" fill="#2E168D"/>
<circle cx="147" cy="70" r="4.5" stroke="white"/>
</g>
<line x1="88" y1="155.5" x2="588" y2="155.5" stroke="#C1BADE"/>
<rect x="107" y="29" width="89" height="26" rx="5" fill="#2E168D"/>
<path d="M116.796 47V42.632L113.481 37.315H115.21L117.862 41.618H117.251L119.89 37.315H121.619L118.317 42.632V47H116.796ZM124.787 47.156C124.111 47.156 123.491 46.9957 122.928 46.675C122.373 46.3543 121.931 45.9167 121.602 45.362C121.273 44.8073 121.108 44.179 121.108 43.477C121.108 42.7663 121.273 42.138 121.602 41.592C121.931 41.0373 122.373 40.604 122.928 40.292C123.483 39.9713 124.102 39.811 124.787 39.811C125.48 39.811 126.1 39.9713 126.646 40.292C127.201 40.604 127.638 41.0373 127.959 41.592C128.288 42.138 128.453 42.7663 128.453 43.477C128.453 44.1877 128.288 44.8203 127.959 45.375C127.63 45.9297 127.188 46.3673 126.633 46.688C126.078 47 125.463 47.156 124.787 47.156ZM124.787 45.791C125.203 45.791 125.571 45.6913 125.892 45.492C126.213 45.2927 126.464 45.0197 126.646 44.673C126.837 44.3177 126.932 43.919 126.932 43.477C126.932 43.035 126.837 42.6407 126.646 42.294C126.464 41.9473 126.213 41.6743 125.892 41.475C125.571 41.2757 125.203 41.176 124.787 41.176C124.38 41.176 124.011 41.2757 123.682 41.475C123.361 41.6743 123.106 41.9473 122.915 42.294C122.733 42.6407 122.642 43.035 122.642 43.477C122.642 43.919 122.733 44.3177 122.915 44.673C123.106 45.0197 123.361 45.2927 123.682 45.492C124.011 45.6913 124.38 45.791 124.787 45.791ZM132.396 47.156C131.868 47.156 131.404 47.039 131.005 46.805C130.607 46.5623 130.295 46.2287 130.069 45.804C129.853 45.3707 129.744 44.8723 129.744 44.309V39.967H131.213V44.179C131.213 44.4997 131.278 44.7813 131.408 45.024C131.538 45.2667 131.72 45.4573 131.954 45.596C132.188 45.726 132.457 45.791 132.76 45.791C133.072 45.791 133.345 45.7217 133.579 45.583C133.813 45.4443 133.995 45.2493 134.125 44.998C134.264 44.7467 134.333 44.452 134.333 44.114V39.967H135.789V47H134.398V45.622L134.554 45.804C134.39 46.2373 134.117 46.571 133.735 46.805C133.354 47.039 132.908 47.156 132.396 47.156ZM141.883 47.156C141.406 47.156 140.986 47.0737 140.622 46.909C140.267 46.7357 139.989 46.5017 139.79 46.207C139.591 45.9037 139.491 45.5483 139.491 45.141C139.491 44.7597 139.573 44.4173 139.738 44.114C139.911 43.8107 140.176 43.555 140.531 43.347C140.886 43.139 141.333 42.9917 141.87 42.905L144.314 42.502V43.659L142.156 44.036C141.766 44.1053 141.48 44.231 141.298 44.413C141.116 44.5863 141.025 44.8117 141.025 45.089C141.025 45.3577 141.125 45.5787 141.324 45.752C141.532 45.9167 141.796 45.999 142.117 45.999C142.516 45.999 142.862 45.9123 143.157 45.739C143.46 45.5657 143.694 45.336 143.859 45.05C144.024 44.7553 144.106 44.4303 144.106 44.075V42.268C144.106 41.9213 143.976 41.6397 143.716 41.423C143.465 41.1977 143.127 41.085 142.702 41.085C142.312 41.085 141.97 41.189 141.675 41.397C141.389 41.5963 141.177 41.8563 141.038 42.177L139.816 41.566C139.946 41.2193 140.158 40.916 140.453 40.656C140.748 40.3873 141.09 40.1793 141.48 40.032C141.879 39.8847 142.299 39.811 142.741 39.811C143.296 39.811 143.785 39.915 144.21 40.123C144.643 40.331 144.977 40.6213 145.211 40.994C145.454 41.358 145.575 41.7827 145.575 42.268V47H144.171V45.726L144.47 45.765C144.305 46.051 144.093 46.298 143.833 46.506C143.582 46.714 143.291 46.8743 142.962 46.987C142.641 47.0997 142.282 47.156 141.883 47.156ZM147.293 47V39.967H148.697V41.384L148.567 41.176C148.723 40.7167 148.974 40.3873 149.321 40.188C149.667 39.98 150.083 39.876 150.569 39.876H150.998V41.215H150.387C149.901 41.215 149.507 41.3667 149.204 41.67C148.909 41.9647 148.762 42.3893 148.762 42.944V47H147.293ZM155.305 47.156C154.603 47.156 153.979 46.9957 153.433 46.675C152.895 46.3457 152.475 45.9037 152.172 45.349C151.868 44.7857 151.717 44.1573 151.717 43.464C151.717 42.7533 151.868 42.125 152.172 41.579C152.484 41.033 152.9 40.604 153.42 40.292C153.94 39.9713 154.529 39.811 155.188 39.811C155.716 39.811 156.189 39.902 156.605 40.084C157.021 40.266 157.372 40.5173 157.658 40.838C157.944 41.15 158.16 41.5097 158.308 41.917C158.464 42.3243 158.542 42.7577 158.542 43.217C158.542 43.3297 158.537 43.4467 158.529 43.568C158.52 43.6893 158.503 43.802 158.477 43.906H152.874V42.736H157.645L156.943 43.269C157.029 42.8443 156.999 42.4673 156.852 42.138C156.713 41.8 156.496 41.5357 156.202 41.345C155.916 41.1457 155.578 41.046 155.188 41.046C154.798 41.046 154.451 41.1457 154.148 41.345C153.844 41.5357 153.61 41.813 153.446 42.177C153.281 42.5323 153.216 42.9657 153.251 43.477C153.207 43.9537 153.272 44.3697 153.446 44.725C153.628 45.0803 153.879 45.3577 154.2 45.557C154.529 45.7563 154.902 45.856 155.318 45.856C155.742 45.856 156.102 45.7607 156.397 45.57C156.7 45.3793 156.938 45.1323 157.112 44.829L158.308 45.414C158.169 45.7433 157.952 46.0423 157.658 46.311C157.372 46.571 157.025 46.779 156.618 46.935C156.219 47.0823 155.781 47.156 155.305 47.156ZM162.248 47V37.159H163.717V41.345L163.483 41.163C163.656 40.721 163.933 40.3873 164.315 40.162C164.696 39.928 165.138 39.811 165.641 39.811C166.161 39.811 166.62 39.9237 167.019 40.149C167.417 40.3743 167.729 40.6863 167.955 41.085C168.18 41.4837 168.293 41.9387 168.293 42.45V47H166.837V42.853C166.837 42.4977 166.767 42.1987 166.629 41.956C166.499 41.7047 166.317 41.514 166.083 41.384C165.849 41.2453 165.58 41.176 165.277 41.176C164.982 41.176 164.713 41.2453 164.471 41.384C164.237 41.514 164.05 41.7047 163.912 41.956C163.782 42.2073 163.717 42.5063 163.717 42.853V47H162.248ZM173.167 47.156C172.465 47.156 171.841 46.9957 171.295 46.675C170.758 46.3457 170.337 45.9037 170.034 45.349C169.731 44.7857 169.579 44.1573 169.579 43.464C169.579 42.7533 169.731 42.125 170.034 41.579C170.346 41.033 170.762 40.604 171.282 40.292C171.802 39.9713 172.391 39.811 173.05 39.811C173.579 39.811 174.051 39.902 174.467 40.084C174.883 40.266 175.234 40.5173 175.52 40.838C175.806 41.15 176.023 41.5097 176.17 41.917C176.326 42.3243 176.404 42.7577 176.404 43.217C176.404 43.3297 176.4 43.4467 176.391 43.568C176.382 43.6893 176.365 43.802 176.339 43.906H170.736V42.736H175.507L174.805 43.269C174.892 42.8443 174.861 42.4673 174.714 42.138C174.575 41.8 174.359 41.5357 174.064 41.345C173.778 41.1457 173.44 41.046 173.05 41.046C172.66 41.046 172.313 41.1457 172.01 41.345C171.707 41.5357 171.473 41.813 171.308 42.177C171.143 42.5323 171.078 42.9657 171.113 43.477C171.07 43.9537 171.135 44.3697 171.308 44.725C171.49 45.0803 171.741 45.3577 172.062 45.557C172.391 45.7563 172.764 45.856 173.18 45.856C173.605 45.856 173.964 45.7607 174.259 45.57C174.562 45.3793 174.801 45.1323 174.974 44.829L176.17 45.414C176.031 45.7433 175.815 46.0423 175.52 46.311C175.234 46.571 174.887 46.779 174.48 46.935C174.081 47.0823 173.644 47.156 173.167 47.156ZM177.837 47V39.967H179.241V41.384L179.111 41.176C179.267 40.7167 179.519 40.3873 179.865 40.188C180.212 39.98 180.628 39.876 181.113 39.876H181.542V41.215H180.931C180.446 41.215 180.052 41.3667 179.748 41.67C179.454 41.9647 179.306 42.3893 179.306 42.944V47H177.837ZM185.849 47.156C185.147 47.156 184.523 46.9957 183.977 46.675C183.44 46.3457 183.02 45.9037 182.716 45.349C182.413 44.7857 182.261 44.1573 182.261 43.464C182.261 42.7533 182.413 42.125 182.716 41.579C183.028 41.033 183.444 40.604 183.964 40.292C184.484 39.9713 185.074 39.811 185.732 39.811C186.261 39.811 186.733 39.902 187.149 40.084C187.565 40.266 187.916 40.5173 188.202 40.838C188.488 41.15 188.705 41.5097 188.852 41.917C189.008 42.3243 189.086 42.7577 189.086 43.217C189.086 43.3297 189.082 43.4467 189.073 43.568C189.065 43.6893 189.047 43.802 189.021 43.906H183.418V42.736H188.189L187.487 43.269C187.574 42.8443 187.544 42.4673 187.396 42.138C187.258 41.8 187.041 41.5357 186.746 41.345C186.46 41.1457 186.122 41.046 185.732 41.046C185.342 41.046 184.996 41.1457 184.692 41.345C184.389 41.5357 184.155 41.813 183.99 42.177C183.826 42.5323 183.761 42.9657 183.795 43.477C183.752 43.9537 183.817 44.3697 183.99 44.725C184.172 45.0803 184.424 45.3577 184.744 45.557C185.074 45.7563 185.446 45.856 185.862 45.856C186.287 45.856 186.647 45.7607 186.941 45.57C187.245 45.3793 187.483 45.1323 187.656 44.829L188.852 45.414C188.714 45.7433 188.497 46.0423 188.202 46.311C187.916 46.571 187.57 46.779 187.162 46.935C186.764 47.0823 186.326 47.156 185.849 47.156Z" fill="white"/>
<path d="M142 55L147 61L152 55H142Z" fill="#2E168D"/>
<g filter="url(#filter1_d_830_3777)">
<circle cx="560" cy="155" r="5" fill="#2E168D"/>
<circle cx="560" cy="155" r="4.5" stroke="white"/>
</g>
<rect x="535" y="114" width="42" height="26" rx="5" fill="#2E168D"/>
<path d="M546.653 132.156C545.968 132.156 545.331 132.03 544.742 131.779C544.161 131.528 543.65 131.181 543.208 130.739C542.774 130.288 542.436 129.76 542.194 129.153C541.951 128.546 541.83 127.879 541.83 127.151C541.83 126.432 541.947 125.769 542.181 125.162C542.423 124.547 542.761 124.018 543.195 123.576C543.628 123.125 544.135 122.779 544.716 122.536C545.296 122.285 545.933 122.159 546.627 122.159C547.311 122.159 547.922 122.276 548.46 122.51C549.006 122.744 549.465 123.052 549.838 123.433C550.21 123.806 550.479 124.213 550.644 124.655L549.279 125.318C549.079 124.789 548.75 124.365 548.291 124.044C547.831 123.715 547.277 123.55 546.627 123.55C545.985 123.55 545.418 123.702 544.924 124.005C544.43 124.308 544.044 124.729 543.767 125.266C543.498 125.803 543.364 126.432 543.364 127.151C543.364 127.87 543.502 128.503 543.78 129.049C544.066 129.586 544.456 130.007 544.95 130.31C545.444 130.605 546.011 130.752 546.653 130.752C547.19 130.752 547.68 130.644 548.122 130.427C548.572 130.202 548.932 129.89 549.201 129.491C549.469 129.084 549.604 128.611 549.604 128.074V127.411L550.293 128.035H546.627V126.735H551.125V127.645C551.125 128.356 551.003 128.993 550.761 129.556C550.518 130.111 550.189 130.583 549.773 130.973C549.357 131.363 548.88 131.658 548.343 131.857C547.805 132.056 547.242 132.156 546.653 132.156ZM555.941 132.156C555.265 132.156 554.645 131.996 554.082 131.675C553.527 131.354 553.085 130.917 552.756 130.362C552.427 129.807 552.262 129.179 552.262 128.477C552.262 127.766 552.427 127.138 552.756 126.592C553.085 126.037 553.527 125.604 554.082 125.292C554.637 124.971 555.256 124.811 555.941 124.811C556.634 124.811 557.254 124.971 557.8 125.292C558.355 125.604 558.792 126.037 559.113 126.592C559.442 127.138 559.607 127.766 559.607 128.477C559.607 129.188 559.442 129.82 559.113 130.375C558.784 130.93 558.342 131.367 557.787 131.688C557.232 132 556.617 132.156 555.941 132.156ZM555.941 130.791C556.357 130.791 556.725 130.691 557.046 130.492C557.367 130.293 557.618 130.02 557.8 129.673C557.991 129.318 558.086 128.919 558.086 128.477C558.086 128.035 557.991 127.641 557.8 127.294C557.618 126.947 557.367 126.674 557.046 126.475C556.725 126.276 556.357 126.176 555.941 126.176C555.534 126.176 555.165 126.276 554.836 126.475C554.515 126.674 554.26 126.947 554.069 127.294C553.887 127.641 553.796 128.035 553.796 128.477C553.796 128.919 553.887 129.318 554.069 129.673C554.26 130.02 554.515 130.293 554.836 130.492C555.165 130.691 555.534 130.791 555.941 130.791ZM563.147 132.156C562.67 132.156 562.25 132.074 561.886 131.909C561.531 131.736 561.253 131.502 561.054 131.207C560.855 130.904 560.755 130.548 560.755 130.141C560.755 129.76 560.837 129.417 561.002 129.114C561.175 128.811 561.44 128.555 561.795 128.347C562.15 128.139 562.597 127.992 563.134 127.905L565.578 127.502V128.659L563.42 129.036C563.03 129.105 562.744 129.231 562.562 129.413C562.38 129.586 562.289 129.812 562.289 130.089C562.289 130.358 562.389 130.579 562.588 130.752C562.796 130.917 563.06 130.999 563.381 130.999C563.78 130.999 564.126 130.912 564.421 130.739C564.724 130.566 564.958 130.336 565.123 130.05C565.288 129.755 565.37 129.43 565.37 129.075V127.268C565.37 126.921 565.24 126.64 564.98 126.423C564.729 126.198 564.391 126.085 563.966 126.085C563.576 126.085 563.234 126.189 562.939 126.397C562.653 126.596 562.441 126.856 562.302 127.177L561.08 126.566C561.21 126.219 561.422 125.916 561.717 125.656C562.012 125.387 562.354 125.179 562.744 125.032C563.143 124.885 563.563 124.811 564.005 124.811C564.56 124.811 565.049 124.915 565.474 125.123C565.907 125.331 566.241 125.621 566.475 125.994C566.718 126.358 566.839 126.783 566.839 127.268V132H565.435V130.726L565.734 130.765C565.569 131.051 565.357 131.298 565.097 131.506C564.846 131.714 564.555 131.874 564.226 131.987C563.905 132.1 563.546 132.156 563.147 132.156ZM568.557 132V122.159H570.026V132H568.557Z" fill="white"/>
<path d="M555 140L560 146L565 140H555Z" fill="#2E168D"/>
<defs>
<filter id="filter0_d_830_3777" x="132" y="55" width="30" height="30" filterUnits="userSpaceOnUse" color-interpolation-filters="sRGB">
<feFlood flood-opacity="0" result="BackgroundImageFix"/>
<feColorMatrix in="SourceAlpha" type="matrix" values="0 0 0 0 0 0 0 0 0 0 0 0 0 0 0 0 0 0 127 0" result="hardAlpha"/>
<feOffset/>
<feGaussianBlur stdDeviation="5"/>
<feComposite in2="hardAlpha" operator="out"/>
<feColorMatrix type="matrix" values="0 0 0 0 0 0 0 0 0 0 0 0 0 0 0 0 0 0 0.11 0"/>
<feBlend mode="normal" in2="BackgroundImageFix" result="effect1_dropShadow_830_3777"/>
<feBlend mode="normal" in="SourceGraphic" in2="effect1_dropShadow_830_3777" result="shape"/>
</filter>
<filter id="filter1_d_830_3777" x="545" y="140" width="30" height="30" filterUnits="userSpaceOnUse" color-interpolation-filters="sRGB">
<feFlood flood-opacity="0" result="BackgroundImageFix"/>
<feColorMatrix in="SourceAlpha" type="matrix" values="0 0 0 0 0 0 0 0 0 0 0 0 0 0 0 0 0 0 127 0" result="hardAlpha"/>
<feOffset/>
<feGaussianBlur stdDeviation="5"/>
<feComposite in2="hardAlpha" operator="out"/>
<feColorMatrix type="matrix" values="0 0 0 0 0 0 0 0 0 0 0 0 0 0 0 0 0 0 0.11 0"/>
<feBlend mode="normal" in2="BackgroundImageFix" result="effect1_dropShadow_830_3777"/>
<feBlend mode="normal" in="SourceGraphic" in2="effect1_dropShadow_830_3777" result="shape"/>
</filter>
</defs>
</svg>
