<svg width="635" height="213" viewBox="0 0 635 213" fill="none" xmlns="http://www.w3.org/2000/svg">
<path d="M81 5C81 2.23858 83.2386 0 86 0H615C617.761 0 620 2.23858 620 5V183H81V5Z" fill="#B5A6F2" fill-opacity="0.1"/>
<path d="M598.467 183H81.0001L81 82.5H137.051C305.5 163.5 420.306 183 598.467 183Z" fill="#B5A6F2" fill-opacity="0.4"/>
<path d="M81 82.5H137.051C291.5 159.5 420.306 183 598.467 183" stroke="#2E168D" stroke-width="1.5"/>
<path d="M81.5 183H620" stroke="#767687" stroke-width="1.5"/>
<path d="M138 88C141.314 88 144 85.3137 144 82C144 78.6863 141.314 76 138 76C134.686 76 132 78.6863 132 82C132 85.3137 134.686 88 138 88Z" fill="#2E168D"/>
<path d="M598 189C601.314 189 604 186.314 604 183C604 179.686 601.314 177 598 177C594.686 177 592 179.686 592 183C592 186.314 594.686 189 598 189Z" fill="#B5A6F2"/>
<path d="M623 125H573C567.477 125 563 129.477 563 135V148C563 153.523 567.477 158 573 158H623C628.523 158 633 153.523 633 148V135C633 129.477 628.523 125 623 125Z" fill="#B5A6F2"/>
<path d="M598.485 149L590 157.485L598.485 165.97L606.971 157.485L598.485 149Z" fill="#B5A6F2"/>
<path d="M187 30H89C83.4772 30 79 34.4772 79 40V53C79 58.5228 83.4772 63 89 63H187C192.523 63 197 58.5228 197 53V40C197 34.4772 192.523 30 187 30Z" fill="#2E168D"/>
<path d="M138.485 54.0001L130 62.4854L138.485 70.9706L146.971 62.4854L138.485 54.0001Z" fill="#2E168D"/>
<path d="M588.406 147.168C587.659 147.168 586.969 147.033 586.334 146.762C585.699 146.491 585.144 146.113 584.668 145.628C584.192 145.143 583.819 144.573 583.548 143.92C583.287 143.267 583.156 142.553 583.156 141.778C583.156 141.003 583.282 140.289 583.534 139.636C583.795 138.973 584.159 138.404 584.626 137.928C585.102 137.443 585.657 137.069 586.292 136.808C586.927 136.537 587.617 136.402 588.364 136.402C589.111 136.402 589.778 136.528 590.366 136.78C590.963 137.032 591.467 137.368 591.878 137.788C592.289 138.199 592.583 138.651 592.76 139.146L591.066 139.958C590.87 139.417 590.539 138.978 590.072 138.642C589.605 138.306 589.036 138.138 588.364 138.138C587.711 138.138 587.132 138.292 586.628 138.6C586.133 138.908 585.746 139.333 585.466 139.874C585.195 140.415 585.06 141.05 585.06 141.778C585.06 142.506 585.2 143.145 585.48 143.696C585.769 144.237 586.166 144.662 586.67 144.97C587.174 145.278 587.753 145.432 588.406 145.432C588.938 145.432 589.428 145.329 589.876 145.124C590.324 144.909 590.683 144.611 590.954 144.228C591.225 143.836 591.36 143.374 591.36 142.842V142.044L592.228 142.8H588.364V141.19H593.264V142.24C593.264 143.043 593.129 143.752 592.858 144.368C592.587 144.984 592.219 145.502 591.752 145.922C591.295 146.333 590.777 146.645 590.198 146.86C589.619 147.065 589.022 147.168 588.406 147.168ZM598.341 147.168C597.594 147.168 596.913 146.995 596.297 146.65C595.69 146.305 595.205 145.833 594.841 145.236C594.486 144.639 594.309 143.957 594.309 143.192C594.309 142.427 594.486 141.745 594.841 141.148C595.205 140.551 595.69 140.079 596.297 139.734C596.903 139.389 597.585 139.216 598.341 139.216C599.087 139.216 599.764 139.389 600.371 139.734C600.977 140.079 601.458 140.551 601.813 141.148C602.177 141.736 602.359 142.417 602.359 143.192C602.359 143.957 602.177 144.639 601.813 145.236C601.449 145.833 600.963 146.305 600.357 146.65C599.75 146.995 599.078 147.168 598.341 147.168ZM598.341 145.488C598.751 145.488 599.111 145.39 599.419 145.194C599.736 144.998 599.983 144.727 600.161 144.382C600.347 144.027 600.441 143.631 600.441 143.192C600.441 142.744 600.347 142.352 600.161 142.016C599.983 141.671 599.736 141.4 599.419 141.204C599.111 140.999 598.751 140.896 598.341 140.896C597.921 140.896 597.552 140.999 597.235 141.204C596.917 141.4 596.665 141.671 596.479 142.016C596.301 142.352 596.213 142.744 596.213 143.192C596.213 143.631 596.301 144.027 596.479 144.382C596.665 144.727 596.917 144.998 597.235 145.194C597.552 145.39 597.921 145.488 598.341 145.488ZM606.06 147.168C605.528 147.168 605.066 147.079 604.674 146.902C604.282 146.725 603.978 146.473 603.764 146.146C603.549 145.81 603.442 145.423 603.442 144.984C603.442 144.564 603.535 144.191 603.722 143.864C603.908 143.528 604.198 143.248 604.59 143.024C604.982 142.8 605.476 142.641 606.074 142.548L608.566 142.142V143.542L606.424 143.906C606.06 143.971 605.789 144.088 605.612 144.256C605.434 144.424 605.346 144.643 605.346 144.914C605.346 145.175 605.444 145.385 605.64 145.544C605.845 145.693 606.097 145.768 606.396 145.768C606.778 145.768 607.114 145.689 607.404 145.53C607.702 145.362 607.931 145.133 608.09 144.844C608.258 144.555 608.342 144.237 608.342 143.892V141.932C608.342 141.605 608.211 141.335 607.95 141.12C607.698 140.896 607.362 140.784 606.942 140.784C606.55 140.784 606.2 140.891 605.892 141.106C605.593 141.311 605.374 141.587 605.234 141.932L603.736 141.204C603.885 140.803 604.118 140.457 604.436 140.168C604.762 139.869 605.145 139.636 605.584 139.468C606.022 139.3 606.498 139.216 607.012 139.216C607.637 139.216 608.188 139.333 608.664 139.566C609.14 139.79 609.508 140.107 609.77 140.518C610.04 140.919 610.176 141.391 610.176 141.932V147H608.44V145.698L608.832 145.67C608.636 145.997 608.402 146.272 608.132 146.496C607.861 146.711 607.553 146.879 607.208 147C606.862 147.112 606.48 147.168 606.06 147.168ZM611.871 147V136.402H613.705V147H611.871Z" fill="#2E168D"/>
<path d="M4.73287 41.1681C4.0702 41.1681 3.45421 41.0468 2.88488 40.8041C2.32488 40.5614 1.83954 40.2254 1.42887 39.7961C1.02754 39.3574 0.733542 38.8488 0.546875 38.2701L2.12888 37.5841C2.38088 38.1814 2.74488 38.6528 3.22088 38.9981C3.69688 39.3341 4.23354 39.5021 4.83087 39.5021C5.16687 39.5021 5.4562 39.4508 5.69887 39.3481C5.95087 39.2361 6.1422 39.0868 6.27287 38.9001C6.41287 38.7134 6.48287 38.4894 6.48287 38.2281C6.48287 37.9201 6.38955 37.6681 6.20288 37.4721C6.02555 37.2668 5.75487 37.1081 5.39087 36.9961L3.38888 36.3521C2.57688 36.1001 1.96555 35.7221 1.55488 35.2181C1.14421 34.7141 0.938875 34.1214 0.938875 33.4401C0.938875 32.8428 1.08354 32.3154 1.37287 31.8581C1.67154 31.4008 2.08221 31.0461 2.60488 30.7941C3.13688 30.5328 3.74354 30.4021 4.42487 30.4021C5.0502 30.4021 5.6242 30.5141 6.14687 30.7381C6.66954 30.9528 7.11754 31.2561 7.49087 31.6481C7.87354 32.0308 8.1582 32.4834 8.34487 33.0061L6.77688 33.7061C6.57155 33.1834 6.26355 32.7821 5.85288 32.5021C5.44221 32.2128 4.9662 32.0681 4.42487 32.0681C4.10754 32.0681 3.82755 32.1241 3.58488 32.2361C3.34221 32.3388 3.15087 32.4881 3.01087 32.6841C2.8802 32.8708 2.81487 33.0948 2.81487 33.3561C2.81487 33.6454 2.90821 33.9021 3.09488 34.1261C3.28155 34.3408 3.5662 34.5088 3.94887 34.6301L5.86688 35.2321C6.69755 35.5028 7.31821 35.8761 7.72888 36.3521C8.14888 36.8281 8.35887 37.4161 8.35887 38.1161C8.35887 38.7134 8.20487 39.2408 7.89687 39.6981C7.58887 40.1554 7.16421 40.5148 6.62288 40.7761C6.08155 41.0374 5.45154 41.1681 4.73287 41.1681ZM13.5314 41.1681C12.7474 41.1681 12.0614 40.9908 11.4734 40.6361C10.8854 40.2814 10.428 39.8008 10.1014 39.1941C9.77467 38.5874 9.61132 37.9154 9.61132 37.1781C9.61132 36.4128 9.77467 35.7361 10.1014 35.1481C10.4374 34.5508 10.89 34.0794 11.4594 33.7341C12.038 33.3888 12.682 33.2161 13.3914 33.2161C13.9887 33.2161 14.5114 33.3141 14.9594 33.5101C15.4167 33.7061 15.804 33.9768 16.1214 34.3221C16.4387 34.6674 16.6814 35.0641 16.8494 35.5121C17.0174 35.9508 17.1014 36.4268 17.1014 36.9401C17.1014 37.0708 17.092 37.2061 17.0734 37.3461C17.064 37.4861 17.0407 37.6074 17.0034 37.7101H11.1234V36.3101H15.9674L15.0994 36.9681C15.1834 36.5388 15.16 36.1561 15.0294 35.8201C14.908 35.4841 14.7027 35.2181 14.4134 35.0221C14.1334 34.8261 13.7927 34.7281 13.3914 34.7281C13.0087 34.7281 12.668 34.8261 12.3694 35.0221C12.0707 35.2088 11.842 35.4888 11.6834 35.8621C11.534 36.2261 11.478 36.6694 11.5154 37.1921C11.478 37.6588 11.5387 38.0741 11.6974 38.4381C11.8654 38.7928 12.108 39.0681 12.4254 39.2641C12.752 39.4601 13.1254 39.5581 13.5454 39.5581C13.9654 39.5581 14.32 39.4694 14.6094 39.2921C14.908 39.1148 15.1414 38.8768 15.3094 38.5781L16.7934 39.3061C16.644 39.6701 16.4107 39.9921 16.0934 40.2721C15.776 40.5521 15.398 40.7714 14.9594 40.9301C14.53 41.0888 14.054 41.1681 13.5314 41.1681ZM20.6509 41.0001L17.6549 33.3841H19.6569L21.8269 39.3761H21.0849L23.2689 33.3841H25.2709L22.2749 41.0001H20.6509ZM29.7599 41.1681C28.9759 41.1681 28.2899 40.9908 27.7019 40.6361C27.1139 40.2814 26.6565 39.8008 26.3299 39.1941C26.0032 38.5874 25.8399 37.9154 25.8399 37.1781C25.8399 36.4128 26.0032 35.7361 26.3299 35.1481C26.6659 34.5508 27.1185 34.0794 27.6879 33.7341C28.2665 33.3888 28.9105 33.2161 29.6199 33.2161C30.2172 33.2161 30.7399 33.3141 31.1879 33.5101C31.6452 33.7061 32.0325 33.9768 32.3499 34.3221C32.6672 34.6674 32.9099 35.0641 33.0779 35.5121C33.2459 35.9508 33.3299 36.4268 33.3299 36.9401C33.3299 37.0708 33.3205 37.2061 33.3019 37.3461C33.2925 37.4861 33.2692 37.6074 33.2319 37.7101H27.3519V36.3101H32.1959L31.3279 36.9681C31.4119 36.5388 31.3885 36.1561 31.2579 35.8201C31.1365 35.4841 30.9312 35.2181 30.6419 35.0221C30.3619 34.8261 30.0212 34.7281 29.6199 34.7281C29.2372 34.7281 28.8965 34.8261 28.5979 35.0221C28.2992 35.2088 28.0705 35.4888 27.9119 35.8621C27.7625 36.2261 27.7065 36.6694 27.7439 37.1921C27.7065 37.6588 27.7672 38.0741 27.9259 38.4381C28.0939 38.7928 28.3365 39.0681 28.6539 39.2641C28.9805 39.4601 29.3539 39.5581 29.7739 39.5581C30.1939 39.5581 30.5485 39.4694 30.8379 39.2921C31.1365 39.1148 31.3699 38.8768 31.5379 38.5781L33.0219 39.3061C32.8725 39.6701 32.6392 39.9921 32.3219 40.2721C32.0045 40.5521 31.6265 40.7714 31.1879 40.9301C30.7585 41.0888 30.2825 41.1681 29.7599 41.1681ZM34.7201 41.0001V33.3841H36.4421V35.0781L36.3021 34.8261C36.4795 34.2568 36.7548 33.8601 37.1281 33.6361C37.5108 33.4121 37.9681 33.3001 38.5001 33.3001H38.9481V34.9241H38.2901C37.7675 34.9241 37.3475 35.0874 37.0301 35.4141C36.7128 35.7314 36.5541 36.1794 36.5541 36.7581V41.0001H34.7201ZM43.5685 41.1681C42.7845 41.1681 42.0985 40.9908 41.5105 40.6361C40.9225 40.2814 40.4651 39.8008 40.1385 39.1941C39.8118 38.5874 39.6485 37.9154 39.6485 37.1781C39.6485 36.4128 39.8118 35.7361 40.1385 35.1481C40.4745 34.5508 40.9271 34.0794 41.4965 33.7341C42.0751 33.3888 42.7191 33.2161 43.4285 33.2161C44.0258 33.2161 44.5485 33.3141 44.9965 33.5101C45.4538 33.7061 45.8411 33.9768 46.1585 34.3221C46.4758 34.6674 46.7185 35.0641 46.8865 35.5121C47.0545 35.9508 47.1385 36.4268 47.1385 36.9401C47.1385 37.0708 47.1291 37.2061 47.1105 37.3461C47.1011 37.4861 47.0778 37.6074 47.0405 37.7101H41.1605V36.3101H46.0045L45.1365 36.9681C45.2205 36.5388 45.1971 36.1561 45.0665 35.8201C44.9451 35.4841 44.7398 35.2181 44.4505 35.0221C44.1705 34.8261 43.8298 34.7281 43.4285 34.7281C43.0458 34.7281 42.7051 34.8261 42.4065 35.0221C42.1078 35.2088 41.8791 35.4888 41.7205 35.8621C41.5711 36.2261 41.5151 36.6694 41.5525 37.1921C41.5151 37.6588 41.5758 38.0741 41.7345 38.4381C41.9025 38.7928 42.1451 39.0681 42.4625 39.2641C42.7891 39.4601 43.1625 39.5581 43.5825 39.5581C44.0025 39.5581 44.3571 39.4694 44.6465 39.2921C44.9451 39.1148 45.1785 38.8768 45.3465 38.5781L46.8305 39.3061C46.6811 39.6701 46.4478 39.9921 46.1305 40.2721C45.8131 40.5521 45.4351 40.7714 44.9965 40.9301C44.5671 41.0888 44.0911 41.1681 43.5685 41.1681Z" fill="#2E168D"/>
<path d="M4.73287 89.1681C4.0702 89.1681 3.45421 89.0468 2.88488 88.8041C2.32488 88.5614 1.83954 88.2254 1.42887 87.7961C1.02754 87.3574 0.733542 86.8488 0.546875 86.2701L2.12888 85.5841C2.38088 86.1814 2.74488 86.6528 3.22088 86.9981C3.69688 87.3341 4.23354 87.5021 4.83087 87.5021C5.16687 87.5021 5.4562 87.4508 5.69887 87.3481C5.95087 87.2361 6.1422 87.0868 6.27287 86.9001C6.41287 86.7134 6.48287 86.4894 6.48287 86.2281C6.48287 85.9201 6.38955 85.6681 6.20288 85.4721C6.02555 85.2668 5.75487 85.1081 5.39087 84.9961L3.38888 84.3521C2.57688 84.1001 1.96555 83.7221 1.55488 83.2181C1.14421 82.7141 0.938875 82.1214 0.938875 81.4401C0.938875 80.8428 1.08354 80.3154 1.37287 79.8581C1.67154 79.4008 2.08221 79.0461 2.60488 78.7941C3.13688 78.5328 3.74354 78.4021 4.42487 78.4021C5.0502 78.4021 5.6242 78.5141 6.14687 78.7381C6.66954 78.9528 7.11754 79.2561 7.49087 79.6481C7.87354 80.0308 8.1582 80.4834 8.34487 81.0061L6.77688 81.7061C6.57155 81.1834 6.26355 80.7821 5.85288 80.5021C5.44221 80.2128 4.9662 80.0681 4.42487 80.0681C4.10754 80.0681 3.82755 80.1241 3.58488 80.2361C3.34221 80.3388 3.15087 80.4881 3.01087 80.6841C2.8802 80.8708 2.81487 81.0948 2.81487 81.3561C2.81487 81.6454 2.90821 81.9021 3.09488 82.1261C3.28155 82.3408 3.5662 82.5088 3.94887 82.6301L5.86688 83.2321C6.69755 83.5028 7.31821 83.8761 7.72888 84.3521C8.14888 84.8281 8.35887 85.4161 8.35887 86.1161C8.35887 86.7134 8.20487 87.2408 7.89687 87.6981C7.58887 88.1554 7.16421 88.5148 6.62288 88.7761C6.08155 89.0374 5.45154 89.1681 4.73287 89.1681ZM13.5314 89.1681C12.7474 89.1681 12.0614 88.9908 11.4734 88.6361C10.8854 88.2814 10.428 87.8008 10.1014 87.1941C9.77467 86.5874 9.61132 85.9154 9.61132 85.1781C9.61132 84.4128 9.77467 83.7361 10.1014 83.1481C10.4374 82.5508 10.89 82.0794 11.4594 81.7341C12.038 81.3888 12.682 81.2161 13.3914 81.2161C13.9887 81.2161 14.5114 81.3141 14.9594 81.5101C15.4167 81.7061 15.804 81.9768 16.1214 82.3221C16.4387 82.6674 16.6814 83.0641 16.8494 83.5121C17.0174 83.9508 17.1014 84.4268 17.1014 84.9401C17.1014 85.0708 17.092 85.2061 17.0734 85.3461C17.064 85.4861 17.0407 85.6074 17.0034 85.7101H11.1234V84.3101H15.9674L15.0994 84.9681C15.1834 84.5388 15.16 84.1561 15.0294 83.8201C14.908 83.4841 14.7027 83.2181 14.4134 83.0221C14.1334 82.8261 13.7927 82.7281 13.3914 82.7281C13.0087 82.7281 12.668 82.8261 12.3694 83.0221C12.0707 83.2088 11.842 83.4888 11.6834 83.8621C11.534 84.2261 11.478 84.6694 11.5154 85.1921C11.478 85.6588 11.5387 86.0741 11.6974 86.4381C11.8654 86.7928 12.108 87.0681 12.4254 87.2641C12.752 87.4601 13.1254 87.5581 13.5454 87.5581C13.9654 87.5581 14.32 87.4694 14.6094 87.2921C14.908 87.1148 15.1414 86.8768 15.3094 86.5781L16.7934 87.3061C16.644 87.6701 16.4107 87.9921 16.0934 88.2721C15.776 88.5521 15.398 88.7714 14.9594 88.9301C14.53 89.0888 14.054 89.1681 13.5314 89.1681ZM18.4916 89.0001V81.3841H20.2136V83.0781L20.0736 82.8261C20.251 82.2568 20.5263 81.8601 20.8996 81.6361C21.2823 81.4121 21.7396 81.3001 22.2716 81.3001H22.7196V82.9241H22.0616C21.539 82.9241 21.119 83.0874 20.8016 83.4141C20.4843 83.7314 20.3256 84.1794 20.3256 84.7581V89.0001H18.4916ZM23.7279 89.0001V81.3841H25.5619V89.0001H23.7279ZM23.7279 80.5301V78.5701H25.5619V80.5301H23.7279ZM30.9793 89.1681C30.2326 89.1681 29.5513 88.9954 28.9353 88.6501C28.3286 88.3048 27.8433 87.8334 27.4793 87.2361C27.1246 86.6388 26.9473 85.9574 26.9473 85.1921C26.9473 84.4268 27.1246 83.7454 27.4793 83.1481C27.8433 82.5508 28.3286 82.0794 28.9353 81.7341C29.542 81.3888 30.2233 81.2161 30.9793 81.2161C31.726 81.2161 32.4026 81.3888 33.0093 81.7341C33.616 82.0794 34.0966 82.5508 34.4513 83.1481C34.8153 83.7361 34.9973 84.4174 34.9973 85.1921C34.9973 85.9574 34.8153 86.6388 34.4513 87.2361C34.0873 87.8334 33.602 88.3048 32.9953 88.6501C32.3886 88.9954 31.7166 89.1681 30.9793 89.1681ZM30.9793 87.4881C31.39 87.4881 31.7493 87.3901 32.0573 87.1941C32.3746 86.9981 32.622 86.7274 32.7993 86.3821C32.986 86.0274 33.0793 85.6308 33.0793 85.1921C33.0793 84.7441 32.986 84.3521 32.7993 84.0161C32.622 83.6708 32.3746 83.4001 32.0573 83.2041C31.7493 82.9988 31.39 82.8961 30.9793 82.8961C30.5593 82.8961 30.1906 82.9988 29.8733 83.2041C29.556 83.4001 29.304 83.6708 29.1173 84.0161C28.94 84.3521 28.8513 84.7441 28.8513 85.1921C28.8513 85.6308 28.94 86.0274 29.1173 86.3821C29.304 86.7274 29.556 86.9981 29.8733 87.1941C30.1906 87.3901 30.5593 87.4881 30.9793 87.4881ZM39.1041 89.1681C38.5161 89.1681 38.0028 89.0374 37.5641 88.7761C37.1348 88.5148 36.8034 88.1508 36.5701 87.6841C36.3461 87.2174 36.2341 86.6714 36.2341 86.0461V81.3841H38.0681V85.8921C38.0681 86.2094 38.1288 86.4894 38.2501 86.7321C38.3808 86.9654 38.5628 87.1521 38.7961 87.2921C39.0388 87.4228 39.3094 87.4881 39.6081 87.4881C39.9068 87.4881 40.1728 87.4228 40.4061 87.2921C40.6394 87.1521 40.8214 86.9608 40.9521 86.7181C41.0828 86.4754 41.1481 86.1861 41.1481 85.8501V81.3841H42.9821V89.0001H41.2461V87.5021L41.4001 87.7681C41.2228 88.2348 40.9288 88.5848 40.5181 88.8181C40.1168 89.0514 39.6454 89.1681 39.1041 89.1681ZM47.5849 89.1681C46.7729 89.1681 46.0636 88.9768 45.4569 88.5941C44.8596 88.2021 44.4489 87.6748 44.2249 87.0121L45.5969 86.3541C45.7929 86.7834 46.0636 87.1194 46.4089 87.3621C46.7636 87.6048 47.1556 87.7261 47.5849 87.7261C47.9209 87.7261 48.1869 87.6514 48.3829 87.5021C48.5789 87.3528 48.6769 87.1568 48.6769 86.9141C48.6769 86.7648 48.6349 86.6434 48.5509 86.5501C48.4763 86.4474 48.3689 86.3634 48.2289 86.2981C48.0983 86.2234 47.9536 86.1628 47.7949 86.1161L46.5489 85.7661C45.9049 85.5794 45.4149 85.2948 45.0789 84.9121C44.7523 84.5294 44.5889 84.0768 44.5889 83.5541C44.5889 83.0874 44.7056 82.6814 44.9389 82.3361C45.1816 81.9814 45.5129 81.7061 45.9329 81.5101C46.3623 81.3141 46.8523 81.2161 47.4029 81.2161C48.1216 81.2161 48.7563 81.3888 49.3069 81.7341C49.8576 82.0794 50.2496 82.5648 50.4829 83.1901L49.0829 83.8481C48.9523 83.5028 48.7329 83.2274 48.4249 83.0221C48.1169 82.8168 47.7716 82.7141 47.3889 82.7141C47.0809 82.7141 46.8383 82.7841 46.6609 82.9241C46.4836 83.0641 46.3949 83.2461 46.3949 83.4701C46.3949 83.6101 46.4323 83.7314 46.5069 83.8341C46.5816 83.9368 46.6843 84.0208 46.8149 84.0861C46.9549 84.1514 47.1136 84.2121 47.2909 84.2681L48.5089 84.6321C49.1343 84.8188 49.6149 85.0988 49.9509 85.4721C50.2963 85.8454 50.4689 86.3028 50.4689 86.8441C50.4689 87.3014 50.3476 87.7074 50.1049 88.0621C49.8623 88.4074 49.5263 88.6781 49.0969 88.8741C48.6676 89.0701 48.1636 89.1681 47.5849 89.1681Z" fill="#2E168D"/>
<path d="M1.00781 137V126.57H2.82781L6.73381 131.876H5.86581L9.68781 126.57H11.5078V137H9.58981V128.74L10.3318 128.922L6.36981 134.2H6.14581L2.28181 128.922L2.91181 128.74V137H1.00781ZM17.0739 137.168C16.3272 137.168 15.6459 136.995 15.0299 136.65C14.4232 136.305 13.9379 135.833 13.5739 135.236C13.2192 134.639 13.0419 133.957 13.0419 133.192C13.0419 132.427 13.2192 131.745 13.5739 131.148C13.9379 130.551 14.4232 130.079 15.0299 129.734C15.6366 129.389 16.3179 129.216 17.0739 129.216C17.8206 129.216 18.4972 129.389 19.1039 129.734C19.7106 130.079 20.1912 130.551 20.5459 131.148C20.9099 131.736 21.0919 132.417 21.0919 133.192C21.0919 133.957 20.9099 134.639 20.5459 135.236C20.1819 135.833 19.6966 136.305 19.0899 136.65C18.4832 136.995 17.8112 137.168 17.0739 137.168ZM17.0739 135.488C17.4846 135.488 17.8439 135.39 18.1519 135.194C18.4692 134.998 18.7166 134.727 18.8939 134.382C19.0806 134.027 19.1739 133.631 19.1739 133.192C19.1739 132.744 19.0806 132.352 18.8939 132.016C18.7166 131.671 18.4692 131.4 18.1519 131.204C17.8439 130.999 17.4846 130.896 17.0739 130.896C16.6539 130.896 16.2852 130.999 15.9679 131.204C15.6506 131.4 15.3986 131.671 15.2119 132.016C15.0346 132.352 14.9459 132.744 14.9459 133.192C14.9459 133.631 15.0346 134.027 15.2119 134.382C15.3986 134.727 15.6506 134.998 15.9679 135.194C16.2852 135.39 16.6539 135.488 17.0739 135.488ZM26.0247 137.168C25.2874 137.168 24.6294 136.995 24.0507 136.65C23.472 136.295 23.0147 135.815 22.6787 135.208C22.3427 134.601 22.1747 133.929 22.1747 133.192C22.1747 132.445 22.3427 131.773 22.6787 131.176C23.0147 130.579 23.472 130.103 24.0507 129.748C24.6387 129.393 25.292 129.216 26.0107 129.216C26.5894 129.216 27.1027 129.333 27.5507 129.566C28.008 129.79 28.3674 130.107 28.6287 130.518L28.3487 130.896V126.402H30.1827V137H28.4467V135.53L28.6427 135.894C28.3814 136.305 28.0174 136.622 27.5507 136.846C27.084 137.061 26.5754 137.168 26.0247 137.168ZM26.2207 135.488C26.6407 135.488 27.0094 135.39 27.3267 135.194C27.644 134.998 27.8914 134.727 28.0687 134.382C28.2554 134.037 28.3487 133.64 28.3487 133.192C28.3487 132.753 28.2554 132.361 28.0687 132.016C27.8914 131.661 27.644 131.386 27.3267 131.19C27.0094 130.994 26.6407 130.896 26.2207 130.896C25.81 130.896 25.4414 130.999 25.1147 131.204C24.788 131.4 24.5314 131.671 24.3447 132.016C24.1674 132.352 24.0787 132.744 24.0787 133.192C24.0787 133.64 24.1674 134.037 24.3447 134.382C24.5314 134.727 24.788 134.998 25.1147 135.194C25.4414 135.39 25.81 135.488 26.2207 135.488ZM35.501 137.168C34.717 137.168 34.031 136.991 33.443 136.636C32.855 136.281 32.3976 135.801 32.071 135.194C31.7443 134.587 31.581 133.915 31.581 133.178C31.581 132.413 31.7443 131.736 32.071 131.148C32.407 130.551 32.8596 130.079 33.429 129.734C34.0076 129.389 34.6516 129.216 35.361 129.216C35.9583 129.216 36.481 129.314 36.929 129.51C37.3863 129.706 37.7736 129.977 38.091 130.322C38.4083 130.667 38.651 131.064 38.819 131.512C38.987 131.951 39.071 132.427 39.071 132.94C39.071 133.071 39.0616 133.206 39.043 133.346C39.0336 133.486 39.0103 133.607 38.973 133.71H33.093V132.31H37.937L37.069 132.968C37.153 132.539 37.1296 132.156 36.999 131.82C36.8776 131.484 36.6723 131.218 36.383 131.022C36.103 130.826 35.7623 130.728 35.361 130.728C34.9783 130.728 34.6376 130.826 34.339 131.022C34.0403 131.209 33.8116 131.489 33.653 131.862C33.5036 132.226 33.4476 132.669 33.485 133.192C33.4476 133.659 33.5083 134.074 33.667 134.438C33.835 134.793 34.0776 135.068 34.395 135.264C34.7216 135.46 35.095 135.558 35.515 135.558C35.935 135.558 36.2896 135.469 36.579 135.292C36.8776 135.115 37.111 134.877 37.279 134.578L38.763 135.306C38.6136 135.67 38.3803 135.992 38.063 136.272C37.7456 136.552 37.3676 136.771 36.929 136.93C36.4996 137.089 36.0236 137.168 35.501 137.168ZM40.4612 137V129.384H42.1832V131.078L42.0432 130.826C42.2206 130.257 42.4959 129.86 42.8692 129.636C43.2519 129.412 43.7092 129.3 44.2412 129.3H44.6892V130.924H44.0312C43.5086 130.924 43.0886 131.087 42.7712 131.414C42.4539 131.731 42.2952 132.179 42.2952 132.758V137H40.4612ZM48.0076 137.168C47.4756 137.168 47.0136 137.079 46.6216 136.902C46.2296 136.725 45.9262 136.473 45.7116 136.146C45.4969 135.81 45.3896 135.423 45.3896 134.984C45.3896 134.564 45.4829 134.191 45.6696 133.864C45.8562 133.528 46.1456 133.248 46.5376 133.024C46.9296 132.8 47.4242 132.641 48.0216 132.548L50.5136 132.142V133.542L48.3716 133.906C48.0076 133.971 47.7369 134.088 47.5596 134.256C47.3822 134.424 47.2936 134.643 47.2936 134.914C47.2936 135.175 47.3916 135.385 47.5876 135.544C47.7929 135.693 48.0449 135.768 48.3436 135.768C48.7262 135.768 49.0622 135.689 49.3516 135.53C49.6502 135.362 49.8789 135.133 50.0376 134.844C50.2056 134.555 50.2896 134.237 50.2896 133.892V131.932C50.2896 131.605 50.1589 131.335 49.8976 131.12C49.6456 130.896 49.3096 130.784 48.8896 130.784C48.4976 130.784 48.1476 130.891 47.8396 131.106C47.5409 131.311 47.3216 131.587 47.1816 131.932L45.6836 131.204C45.8329 130.803 46.0662 130.457 46.3836 130.168C46.7102 129.869 47.0929 129.636 47.5316 129.468C47.9702 129.3 48.4462 129.216 48.9595 129.216C49.5849 129.216 50.1356 129.333 50.6116 129.566C51.0876 129.79 51.4562 130.107 51.7176 130.518C51.9882 130.919 52.1236 131.391 52.1236 131.932V137H50.3876V135.698L50.7796 135.67C50.5836 135.997 50.3502 136.272 50.0796 136.496C49.8089 136.711 49.5009 136.879 49.1556 137C48.8102 137.112 48.4276 137.168 48.0076 137.168ZM57.1539 137.084C56.2953 137.084 55.6279 136.851 55.1519 136.384C54.6853 135.908 54.4519 135.241 54.4519 134.382V131.022H53.1359V129.384H53.2759C53.6493 129.384 53.9386 129.286 54.1439 129.09C54.3493 128.894 54.4519 128.609 54.4519 128.236V127.648H56.2859V129.384H58.0359V131.022H56.2859V134.284C56.2859 134.536 56.3279 134.751 56.4119 134.928C56.5053 135.105 56.6453 135.241 56.8319 135.334C57.0279 135.427 57.2753 135.474 57.5739 135.474C57.6393 135.474 57.7139 135.469 57.7979 135.46C57.8913 135.451 57.9799 135.441 58.0639 135.432V137C57.9333 137.019 57.7839 137.037 57.6159 137.056C57.4479 137.075 57.2939 137.084 57.1539 137.084ZM63.0088 137.168C62.2248 137.168 61.5388 136.991 60.9508 136.636C60.3628 136.281 59.9054 135.801 59.5788 135.194C59.2521 134.587 59.0888 133.915 59.0888 133.178C59.0888 132.413 59.2521 131.736 59.5788 131.148C59.9148 130.551 60.3674 130.079 60.9368 129.734C61.5154 129.389 62.1594 129.216 62.8688 129.216C63.4661 129.216 63.9888 129.314 64.4368 129.51C64.8941 129.706 65.2814 129.977 65.5988 130.322C65.9161 130.667 66.1588 131.064 66.3268 131.512C66.4948 131.951 66.5788 132.427 66.5788 132.94C66.5788 133.071 66.5694 133.206 66.5508 133.346C66.5414 133.486 66.5181 133.607 66.4808 133.71H60.6008V132.31H65.4448L64.5768 132.968C64.6608 132.539 64.6374 132.156 64.5068 131.82C64.3854 131.484 64.1801 131.218 63.8908 131.022C63.6108 130.826 63.2701 130.728 62.8688 130.728C62.4861 130.728 62.1454 130.826 61.8468 131.022C61.5481 131.209 61.3194 131.489 61.1608 131.862C61.0114 132.226 60.9554 132.669 60.9928 133.192C60.9554 133.659 61.0161 134.074 61.1748 134.438C61.3428 134.793 61.5854 135.068 61.9028 135.264C62.2294 135.46 62.6028 135.558 63.0228 135.558C63.4428 135.558 63.7974 135.469 64.0868 135.292C64.3854 135.115 64.6188 134.877 64.7868 134.578L66.2708 135.306C66.1214 135.67 65.8881 135.992 65.5708 136.272C65.2534 136.552 64.8754 136.771 64.4368 136.93C64.0074 137.089 63.5314 137.168 63.0088 137.168Z" fill="#2E168D"/>
<path d="M1.00781 185V174.57H2.82781L6.73381 179.876H5.86581L9.68781 174.57H11.5078V185H9.58981V176.74L10.3318 176.922L6.36981 182.2H6.14581L2.28181 176.922L2.91181 176.74V185H1.00781ZM13.3499 185V177.384H15.1839V185H13.3499ZM13.3499 176.53V174.57H15.1839V176.53H13.3499ZM16.8772 185V174.402H18.7112V185H16.8772ZM23.9466 185.168C23.2092 185.168 22.5512 184.995 21.9726 184.65C21.3939 184.295 20.9366 183.815 20.6006 183.208C20.2646 182.601 20.0966 181.929 20.0966 181.192C20.0966 180.445 20.2646 179.773 20.6006 179.176C20.9366 178.579 21.3939 178.103 21.9726 177.748C22.5606 177.393 23.2139 177.216 23.9326 177.216C24.5112 177.216 25.0246 177.333 25.4726 177.566C25.9299 177.79 26.2892 178.107 26.5506 178.518L26.2706 178.896V174.402H28.1046V185H26.3686V183.53L26.5646 183.894C26.3032 184.305 25.9392 184.622 25.4726 184.846C25.0059 185.061 24.4972 185.168 23.9466 185.168ZM24.1426 183.488C24.5626 183.488 24.9312 183.39 25.2486 183.194C25.5659 182.998 25.8132 182.727 25.9906 182.382C26.1772 182.037 26.2706 181.64 26.2706 181.192C26.2706 180.753 26.1772 180.361 25.9906 180.016C25.8132 179.661 25.5659 179.386 25.2486 179.19C24.9312 178.994 24.5626 178.896 24.1426 178.896C23.7319 178.896 23.3632 178.999 23.0366 179.204C22.7099 179.4 22.4532 179.671 22.2666 180.016C22.0892 180.352 22.0006 180.744 22.0006 181.192C22.0006 181.64 22.0892 182.037 22.2666 182.382C22.4532 182.727 22.7099 182.998 23.0366 183.194C23.3632 183.39 23.7319 183.488 24.1426 183.488Z" fill="#2E168D"/>
<path d="M99.682 51.0001V46.3801L96.168 40.5701H98.338L101.026 45.1061H100.256L102.93 40.5701H105.1L101.6 46.3661V51.0001H99.682ZM108.549 51.1681C107.802 51.1681 107.121 50.9954 106.505 50.6501C105.898 50.3048 105.413 49.8334 105.049 49.2361C104.694 48.6388 104.517 47.9574 104.517 47.1921C104.517 46.4268 104.694 45.7454 105.049 45.1481C105.413 44.5508 105.898 44.0794 106.505 43.7341C107.111 43.3888 107.793 43.2161 108.549 43.2161C109.295 43.2161 109.972 43.3888 110.579 43.7341C111.185 44.0794 111.666 44.5508 112.021 45.1481C112.385 45.7361 112.567 46.4174 112.567 47.1921C112.567 47.9574 112.385 48.6388 112.021 49.2361C111.657 49.8334 111.171 50.3048 110.565 50.6501C109.958 50.9954 109.286 51.1681 108.549 51.1681ZM108.549 49.4881C108.959 49.4881 109.319 49.3901 109.627 49.1941C109.944 48.9981 110.191 48.7274 110.369 48.3821C110.555 48.0274 110.649 47.6308 110.649 47.1921C110.649 46.7441 110.555 46.3521 110.369 46.0161C110.191 45.6708 109.944 45.4001 109.627 45.2041C109.319 44.9988 108.959 44.8961 108.549 44.8961C108.129 44.8961 107.76 44.9988 107.443 45.2041C107.125 45.4001 106.873 45.6708 106.687 46.0161C106.509 46.3521 106.421 46.7441 106.421 47.1921C106.421 47.6308 106.509 48.0274 106.687 48.3821C106.873 48.7274 107.125 48.9981 107.443 49.1941C107.76 49.3901 108.129 49.4881 108.549 49.4881ZM116.674 51.1681C116.086 51.1681 115.572 51.0374 115.134 50.7761C114.704 50.5148 114.373 50.1508 114.14 49.6841C113.916 49.2174 113.804 48.6714 113.804 48.0461V43.3841H115.638V47.8921C115.638 48.2094 115.698 48.4894 115.82 48.7321C115.95 48.9654 116.132 49.1521 116.366 49.2921C116.608 49.4228 116.879 49.4881 117.178 49.4881C117.476 49.4881 117.742 49.4228 117.976 49.2921C118.209 49.1521 118.391 48.9608 118.522 48.7181C118.652 48.4754 118.718 48.1861 118.718 47.8501V43.3841H120.552V51.0001H118.816V49.5021L118.97 49.7681C118.792 50.2348 118.498 50.5848 118.088 50.8181C117.686 51.0514 117.215 51.1681 116.674 51.1681ZM127.055 51.1681C126.523 51.1681 126.061 51.0794 125.669 50.9021C125.277 50.7248 124.973 50.4728 124.759 50.1461C124.544 49.8101 124.437 49.4228 124.437 48.9841C124.437 48.5641 124.53 48.1908 124.717 47.8641C124.903 47.5281 125.193 47.2481 125.585 47.0241C125.977 46.8001 126.471 46.6414 127.069 46.5481L129.561 46.1421V47.5421L127.419 47.9061C127.055 47.9714 126.784 48.0881 126.607 48.2561C126.429 48.4241 126.341 48.6434 126.341 48.9141C126.341 49.1754 126.439 49.3854 126.635 49.5441C126.84 49.6934 127.092 49.7681 127.391 49.7681C127.773 49.7681 128.109 49.6888 128.399 49.5301C128.697 49.3621 128.926 49.1334 129.085 48.8441C129.253 48.5548 129.337 48.2374 129.337 47.8921V45.9321C129.337 45.6054 129.206 45.3348 128.945 45.1201C128.693 44.8961 128.357 44.7841 127.937 44.7841C127.545 44.7841 127.195 44.8914 126.887 45.1061C126.588 45.3114 126.369 45.5868 126.229 45.9321L124.731 45.2041C124.88 44.8028 125.113 44.4574 125.431 44.1681C125.757 43.8694 126.14 43.6361 126.579 43.4681C127.017 43.3001 127.493 43.2161 128.007 43.2161C128.632 43.2161 129.183 43.3328 129.659 43.5661C130.135 43.7901 130.503 44.1074 130.765 44.5181C131.035 44.9194 131.171 45.3908 131.171 45.9321V51.0001H129.435V49.6981L129.827 49.6701C129.631 49.9968 129.397 50.2721 129.127 50.4961C128.856 50.7108 128.548 50.8788 128.203 51.0001C127.857 51.1121 127.475 51.1681 127.055 51.1681ZM132.866 51.0001V43.3841H134.588V45.0781L134.448 44.8261C134.625 44.2568 134.9 43.8601 135.274 43.6361C135.656 43.4121 136.114 43.3001 136.646 43.3001H137.094V44.9241H136.436C135.913 44.9241 135.493 45.0874 135.176 45.4141C134.858 45.7314 134.7 46.1794 134.7 46.7581V51.0001H132.866ZM141.714 51.1681C140.93 51.1681 140.244 50.9908 139.656 50.6361C139.068 50.2814 138.611 49.8008 138.284 49.1941C137.957 48.5874 137.794 47.9154 137.794 47.1781C137.794 46.4128 137.957 45.7361 138.284 45.1481C138.62 44.5508 139.073 44.0794 139.642 43.7341C140.221 43.3888 140.865 43.2161 141.574 43.2161C142.171 43.2161 142.694 43.3141 143.142 43.5101C143.599 43.7061 143.987 43.9768 144.304 44.3221C144.621 44.6674 144.864 45.0641 145.032 45.5121C145.2 45.9508 145.284 46.4268 145.284 46.9401C145.284 47.0708 145.275 47.2061 145.256 47.3461C145.247 47.4861 145.223 47.6074 145.186 47.7101H139.306V46.3101H144.15L143.282 46.9681C143.366 46.5388 143.343 46.1561 143.212 45.8201C143.091 45.4841 142.885 45.2181 142.596 45.0221C142.316 44.8261 141.975 44.7281 141.574 44.7281C141.191 44.7281 140.851 44.8261 140.552 45.0221C140.253 45.2088 140.025 45.4888 139.866 45.8621C139.717 46.2261 139.661 46.6694 139.698 47.1921C139.661 47.6588 139.721 48.0741 139.88 48.4381C140.048 48.7928 140.291 49.0681 140.608 49.2641C140.935 49.4601 141.308 49.5581 141.728 49.5581C142.148 49.5581 142.503 49.4694 142.792 49.2921C143.091 49.1148 143.324 48.8768 143.492 48.5781L144.976 49.3061C144.827 49.6701 144.593 49.9921 144.276 50.2721C143.959 50.5521 143.581 50.7714 143.142 50.9301C142.713 51.0888 142.237 51.1681 141.714 51.1681ZM149.163 51.0001V40.4021H150.997V44.8821L150.745 44.6161C150.922 44.1588 151.211 43.8134 151.613 43.5801C152.023 43.3374 152.499 43.2161 153.041 43.2161C153.601 43.2161 154.095 43.3374 154.525 43.5801C154.963 43.8228 155.304 44.1634 155.547 44.6021C155.789 45.0314 155.911 45.5308 155.911 46.1001V51.0001H154.077V46.5341C154.077 46.1981 154.011 45.9088 153.881 45.6661C153.75 45.4234 153.568 45.2368 153.335 45.1061C153.111 44.9661 152.845 44.8961 152.537 44.8961C152.238 44.8961 151.972 44.9661 151.739 45.1061C151.505 45.2368 151.323 45.4234 151.193 45.6661C151.062 45.9088 150.997 46.1981 150.997 46.5341V51.0001H149.163ZM161.073 51.1681C160.289 51.1681 159.603 50.9908 159.015 50.6361C158.427 50.2814 157.97 49.8008 157.643 49.1941C157.317 48.5874 157.153 47.9154 157.153 47.1781C157.153 46.4128 157.317 45.7361 157.643 45.1481C157.979 44.5508 158.432 44.0794 159.001 43.7341C159.58 43.3888 160.224 43.2161 160.933 43.2161C161.531 43.2161 162.053 43.3141 162.501 43.5101C162.959 43.7061 163.346 43.9768 163.663 44.3221C163.981 44.6674 164.223 45.0641 164.391 45.5121C164.559 45.9508 164.643 46.4268 164.643 46.9401C164.643 47.0708 164.634 47.2061 164.615 47.3461C164.606 47.4861 164.583 47.6074 164.545 47.7101H158.665V46.3101H163.509L162.641 46.9681C162.725 46.5388 162.702 46.1561 162.571 45.8201C162.45 45.4841 162.245 45.2181 161.955 45.0221C161.675 44.8261 161.335 44.7281 160.933 44.7281C160.551 44.7281 160.21 44.8261 159.911 45.0221C159.613 45.2088 159.384 45.4888 159.225 45.8621C159.076 46.2261 159.02 46.6694 159.057 47.1921C159.02 47.6588 159.081 48.0741 159.239 48.4381C159.407 48.7928 159.65 49.0681 159.967 49.2641C160.294 49.4601 160.667 49.5581 161.087 49.5581C161.507 49.5581 161.862 49.4694 162.151 49.2921C162.45 49.1148 162.683 48.8768 162.851 48.5781L164.335 49.3061C164.186 49.6701 163.953 49.9921 163.635 50.2721C163.318 50.5521 162.94 50.7714 162.501 50.9301C162.072 51.0888 161.596 51.1681 161.073 51.1681ZM166.034 51.0001V43.3841H167.756V45.0781L167.616 44.8261C167.793 44.2568 168.068 43.8601 168.442 43.6361C168.824 43.4121 169.282 43.3001 169.814 43.3001H170.262V44.9241H169.604C169.081 44.9241 168.661 45.0874 168.344 45.4141C168.026 45.7314 167.868 46.1794 167.868 46.7581V51.0001H166.034ZM174.882 51.1681C174.098 51.1681 173.412 50.9908 172.824 50.6361C172.236 50.2814 171.779 49.8008 171.452 49.1941C171.125 48.5874 170.962 47.9154 170.962 47.1781C170.962 46.4128 171.125 45.7361 171.452 45.1481C171.788 44.5508 172.241 44.0794 172.81 43.7341C173.389 43.3888 174.033 43.2161 174.742 43.2161C175.339 43.2161 175.862 43.3141 176.31 43.5101C176.767 43.7061 177.155 43.9768 177.472 44.3221C177.789 44.6674 178.032 45.0641 178.2 45.5121C178.368 45.9508 178.452 46.4268 178.452 46.9401C178.452 47.0708 178.443 47.2061 178.424 47.3461C178.415 47.4861 178.391 47.6074 178.354 47.7101H172.474V46.3101H177.318L176.45 46.9681C176.534 46.5388 176.511 46.1561 176.38 45.8201C176.259 45.4841 176.053 45.2181 175.764 45.0221C175.484 44.8261 175.143 44.7281 174.742 44.7281C174.359 44.7281 174.019 44.8261 173.72 45.0221C173.421 45.2088 173.193 45.4888 173.034 45.8621C172.885 46.2261 172.829 46.6694 172.866 47.1921C172.829 47.6588 172.889 48.0741 173.048 48.4381C173.216 48.7928 173.459 49.0681 173.776 49.2641C174.103 49.4601 174.476 49.5581 174.896 49.5581C175.316 49.5581 175.671 49.4694 175.96 49.2921C176.259 49.1148 176.492 48.8768 176.66 48.5781L178.144 49.3061C177.995 49.6701 177.761 49.9921 177.444 50.2721C177.127 50.5521 176.749 50.7714 176.31 50.9301C175.881 51.0888 175.405 51.1681 174.882 51.1681Z" fill="white"/>
</svg>
