<svg width="589" height="184" viewBox="0 0 589 184" fill="none" xmlns="http://www.w3.org/2000/svg">
<path d="M88 18C88 15.7909 89.7909 14 92 14H584C586.209 14 588 15.7909 588 18V170H88V18Z" fill="#F7F6FD"/>
<path d="M4.732 48.168C4.06933 48.168 3.45333 48.0467 2.884 47.804C2.324 47.5613 1.83867 47.2253 1.428 46.796C1.02667 46.3573 0.732667 45.8487 0.546 45.27L2.128 44.584C2.38 45.1813 2.744 45.6527 3.22 45.998C3.696 46.334 4.23267 46.502 4.83 46.502C5.166 46.502 5.45533 46.4507 5.698 46.348C5.95 46.236 6.14133 46.0867 6.272 45.9C6.412 45.7133 6.482 45.4893 6.482 45.228C6.482 44.92 6.38867 44.668 6.202 44.472C6.02467 44.2667 5.754 44.108 5.39 43.996L3.388 43.352C2.576 43.1 1.96467 42.722 1.554 42.218C1.14333 41.714 0.938 41.1213 0.938 40.44C0.938 39.8427 1.08267 39.3153 1.372 38.858C1.67067 38.4007 2.08133 38.046 2.604 37.794C3.136 37.5327 3.74267 37.402 4.424 37.402C5.04933 37.402 5.62333 37.514 6.146 37.738C6.66867 37.9527 7.11667 38.256 7.49 38.648C7.87267 39.0307 8.15733 39.4833 8.344 40.006L6.776 40.706C6.57067 40.1833 6.26267 39.782 5.852 39.502C5.44133 39.2127 4.96533 39.068 4.424 39.068C4.10667 39.068 3.82667 39.124 3.584 39.236C3.34133 39.3387 3.15 39.488 3.01 39.684C2.87933 39.8707 2.814 40.0947 2.814 40.356C2.814 40.6453 2.90733 40.902 3.094 41.126C3.28067 41.3407 3.56533 41.5087 3.948 41.63L5.866 42.232C6.69667 42.5027 7.31733 42.876 7.728 43.352C8.148 43.828 8.358 44.416 8.358 45.116C8.358 45.7133 8.204 46.2407 7.896 46.698C7.588 47.1553 7.16333 47.5147 6.622 47.776C6.08067 48.0373 5.45067 48.168 4.732 48.168ZM13.5305 48.168C12.7465 48.168 12.0605 47.9907 11.4725 47.636C10.8845 47.2813 10.4271 46.8007 10.1005 46.194C9.77379 45.5873 9.61045 44.9153 9.61045 44.178C9.61045 43.4127 9.77379 42.736 10.1005 42.148C10.4365 41.5507 10.8891 41.0793 11.4585 40.734C12.0371 40.3887 12.6811 40.216 13.3905 40.216C13.9878 40.216 14.5105 40.314 14.9585 40.51C15.4158 40.706 15.8031 40.9767 16.1205 41.322C16.4378 41.6673 16.6805 42.064 16.8485 42.512C17.0165 42.9507 17.1005 43.4267 17.1005 43.94C17.1005 44.0707 17.0911 44.206 17.0725 44.346C17.0631 44.486 17.0398 44.6073 17.0025 44.71H11.1225V43.31H15.9665L15.0985 43.968C15.1825 43.5387 15.1591 43.156 15.0285 42.82C14.9071 42.484 14.7018 42.218 14.4125 42.022C14.1325 41.826 13.7918 41.728 13.3905 41.728C13.0078 41.728 12.6671 41.826 12.3685 42.022C12.0698 42.2087 11.8411 42.4887 11.6825 42.862C11.5331 43.226 11.4771 43.6693 11.5145 44.192C11.4771 44.6587 11.5378 45.074 11.6965 45.438C11.8645 45.7927 12.1071 46.068 12.4245 46.264C12.7511 46.46 13.1245 46.558 13.5445 46.558C13.9645 46.558 14.3191 46.4693 14.6085 46.292C14.9071 46.1147 15.1405 45.8767 15.3085 45.578L16.7925 46.306C16.6431 46.67 16.4098 46.992 16.0925 47.272C15.7751 47.552 15.3971 47.7713 14.9585 47.93C14.5291 48.0887 14.0531 48.168 13.5305 48.168ZM20.65 48L17.654 40.384H19.656L21.826 46.376H21.084L23.268 40.384H25.27L22.274 48H20.65ZM29.759 48.168C28.975 48.168 28.289 47.9907 27.701 47.636C27.113 47.2813 26.6556 46.8007 26.329 46.194C26.0023 45.5873 25.839 44.9153 25.839 44.178C25.839 43.4127 26.0023 42.736 26.329 42.148C26.665 41.5507 27.1176 41.0793 27.687 40.734C28.2656 40.3887 28.9096 40.216 29.619 40.216C30.2163 40.216 30.739 40.314 31.187 40.51C31.6443 40.706 32.0316 40.9767 32.349 41.322C32.6663 41.6673 32.909 42.064 33.077 42.512C33.245 42.9507 33.329 43.4267 33.329 43.94C33.329 44.0707 33.3196 44.206 33.301 44.346C33.2916 44.486 33.2683 44.6073 33.231 44.71H27.351V43.31H32.195L31.327 43.968C31.411 43.5387 31.3876 43.156 31.257 42.82C31.1356 42.484 30.9303 42.218 30.641 42.022C30.361 41.826 30.0203 41.728 29.619 41.728C29.2363 41.728 28.8956 41.826 28.597 42.022C28.2983 42.2087 28.0696 42.4887 27.911 42.862C27.7616 43.226 27.7056 43.6693 27.743 44.192C27.7056 44.6587 27.7663 45.074 27.925 45.438C28.093 45.7927 28.3356 46.068 28.653 46.264C28.9796 46.46 29.353 46.558 29.773 46.558C30.193 46.558 30.5476 46.4693 30.837 46.292C31.1356 46.1147 31.369 45.8767 31.537 45.578L33.021 46.306C32.8716 46.67 32.6383 46.992 32.321 47.272C32.0036 47.552 31.6256 47.7713 31.187 47.93C30.7576 48.0887 30.2816 48.168 29.759 48.168ZM34.7192 48V40.384H36.4412V42.078L36.3012 41.826C36.4786 41.2567 36.7539 40.86 37.1272 40.636C37.5099 40.412 37.9672 40.3 38.4992 40.3H38.9472V41.924H38.2892C37.7666 41.924 37.3466 42.0873 37.0292 42.414C36.7119 42.7313 36.5532 43.1793 36.5532 43.758V48H34.7192ZM43.5676 48.168C42.7836 48.168 42.0976 47.9907 41.5096 47.636C40.9216 47.2813 40.4642 46.8007 40.1376 46.194C39.8109 45.5873 39.6476 44.9153 39.6476 44.178C39.6476 43.4127 39.8109 42.736 40.1376 42.148C40.4736 41.5507 40.9262 41.0793 41.4956 40.734C42.0742 40.3887 42.7182 40.216 43.4276 40.216C44.0249 40.216 44.5476 40.314 44.9956 40.51C45.4529 40.706 45.8402 40.9767 46.1576 41.322C46.4749 41.6673 46.7176 42.064 46.8856 42.512C47.0536 42.9507 47.1376 43.4267 47.1376 43.94C47.1376 44.0707 47.1282 44.206 47.1096 44.346C47.1002 44.486 47.0769 44.6073 47.0396 44.71H41.1596V43.31H46.0036L45.1356 43.968C45.2196 43.5387 45.1962 43.156 45.0656 42.82C44.9442 42.484 44.7389 42.218 44.4496 42.022C44.1696 41.826 43.8289 41.728 43.4276 41.728C43.0449 41.728 42.7042 41.826 42.4056 42.022C42.1069 42.2087 41.8782 42.4887 41.7196 42.862C41.5702 43.226 41.5142 43.6693 41.5516 44.192C41.5142 44.6587 41.5749 45.074 41.7336 45.438C41.9016 45.7927 42.1442 46.068 42.4616 46.264C42.7882 46.46 43.1616 46.558 43.5816 46.558C44.0016 46.558 44.3562 46.4693 44.6456 46.292C44.9442 46.1147 45.1776 45.8767 45.3456 45.578L46.8296 46.306C46.6802 46.67 46.4469 46.992 46.1296 47.272C45.8122 47.552 45.4342 47.7713 44.9956 47.93C44.5662 48.0887 44.0902 48.168 43.5676 48.168Z" fill="#2E168D"/>
<path d="M4.732 88.168C4.06933 88.168 3.45333 88.0467 2.884 87.804C2.324 87.5613 1.83867 87.2253 1.428 86.796C1.02667 86.3573 0.732667 85.8487 0.546 85.27L2.128 84.584C2.38 85.1813 2.744 85.6527 3.22 85.998C3.696 86.334 4.23267 86.502 4.83 86.502C5.166 86.502 5.45533 86.4507 5.698 86.348C5.95 86.236 6.14133 86.0867 6.272 85.9C6.412 85.7133 6.482 85.4893 6.482 85.228C6.482 84.92 6.38867 84.668 6.202 84.472C6.02467 84.2667 5.754 84.108 5.39 83.996L3.388 83.352C2.576 83.1 1.96467 82.722 1.554 82.218C1.14333 81.714 0.938 81.1213 0.938 80.44C0.938 79.8427 1.08267 79.3153 1.372 78.858C1.67067 78.4007 2.08133 78.046 2.604 77.794C3.136 77.5327 3.74267 77.402 4.424 77.402C5.04933 77.402 5.62333 77.514 6.146 77.738C6.66867 77.9527 7.11667 78.256 7.49 78.648C7.87267 79.0307 8.15733 79.4833 8.344 80.006L6.776 80.706C6.57067 80.1833 6.26267 79.782 5.852 79.502C5.44133 79.2127 4.96533 79.068 4.424 79.068C4.10667 79.068 3.82667 79.124 3.584 79.236C3.34133 79.3387 3.15 79.488 3.01 79.684C2.87933 79.8707 2.814 80.0947 2.814 80.356C2.814 80.6453 2.90733 80.902 3.094 81.126C3.28067 81.3407 3.56533 81.5087 3.948 81.63L5.866 82.232C6.69667 82.5027 7.31733 82.876 7.728 83.352C8.148 83.828 8.358 84.416 8.358 85.116C8.358 85.7133 8.204 86.2407 7.896 86.698C7.588 87.1553 7.16333 87.5147 6.622 87.776C6.08067 88.0373 5.45067 88.168 4.732 88.168ZM13.5305 88.168C12.7465 88.168 12.0605 87.9907 11.4725 87.636C10.8845 87.2813 10.4271 86.8007 10.1005 86.194C9.77379 85.5873 9.61045 84.9153 9.61045 84.178C9.61045 83.4127 9.77379 82.736 10.1005 82.148C10.4365 81.5507 10.8891 81.0793 11.4585 80.734C12.0371 80.3887 12.6811 80.216 13.3905 80.216C13.9878 80.216 14.5105 80.314 14.9585 80.51C15.4158 80.706 15.8031 80.9767 16.1205 81.322C16.4378 81.6673 16.6805 82.064 16.8485 82.512C17.0165 82.9507 17.1005 83.4267 17.1005 83.94C17.1005 84.0707 17.0911 84.206 17.0725 84.346C17.0631 84.486 17.0398 84.6073 17.0025 84.71H11.1225V83.31H15.9665L15.0985 83.968C15.1825 83.5387 15.1591 83.156 15.0285 82.82C14.9071 82.484 14.7018 82.218 14.4125 82.022C14.1325 81.826 13.7918 81.728 13.3905 81.728C13.0078 81.728 12.6671 81.826 12.3685 82.022C12.0698 82.2087 11.8411 82.4887 11.6825 82.862C11.5331 83.226 11.4771 83.6693 11.5145 84.192C11.4771 84.6587 11.5378 85.074 11.6965 85.438C11.8645 85.7927 12.1071 86.068 12.4245 86.264C12.7511 86.46 13.1245 86.558 13.5445 86.558C13.9645 86.558 14.3191 86.4693 14.6085 86.292C14.9071 86.1147 15.1405 85.8767 15.3085 85.578L16.7925 86.306C16.6431 86.67 16.4098 86.992 16.0925 87.272C15.7751 87.552 15.3971 87.7713 14.9585 87.93C14.5291 88.0887 14.0531 88.168 13.5305 88.168ZM18.4907 88V80.384H20.2127V82.078L20.0727 81.826C20.2501 81.2567 20.5254 80.86 20.8987 80.636C21.2814 80.412 21.7387 80.3 22.2707 80.3H22.7187V81.924H22.0607C21.5381 81.924 21.1181 82.0873 20.8007 82.414C20.4834 82.7313 20.3247 83.1793 20.3247 83.758V88H18.4907ZM23.727 88V80.384H25.561V88H23.727ZM23.727 79.53V77.57H25.561V79.53H23.727ZM30.9784 88.168C30.2317 88.168 29.5504 87.9953 28.9344 87.65C28.3277 87.3047 27.8424 86.8333 27.4784 86.236C27.1237 85.6387 26.9464 84.9573 26.9464 84.192C26.9464 83.4267 27.1237 82.7453 27.4784 82.148C27.8424 81.5507 28.3277 81.0793 28.9344 80.734C29.5411 80.3887 30.2224 80.216 30.9784 80.216C31.7251 80.216 32.4017 80.3887 33.0084 80.734C33.6151 81.0793 34.0957 81.5507 34.4504 82.148C34.8144 82.736 34.9964 83.4173 34.9964 84.192C34.9964 84.9573 34.8144 85.6387 34.4504 86.236C34.0864 86.8333 33.6011 87.3047 32.9944 87.65C32.3877 87.9953 31.7157 88.168 30.9784 88.168ZM30.9784 86.488C31.3891 86.488 31.7484 86.39 32.0564 86.194C32.3737 85.998 32.6211 85.7273 32.7984 85.382C32.9851 85.0273 33.0784 84.6307 33.0784 84.192C33.0784 83.744 32.9851 83.352 32.7984 83.016C32.6211 82.6707 32.3737 82.4 32.0564 82.204C31.7484 81.9987 31.3891 81.896 30.9784 81.896C30.5584 81.896 30.1897 81.9987 29.8724 82.204C29.5551 82.4 29.3031 82.6707 29.1164 83.016C28.9391 83.352 28.8504 83.744 28.8504 84.192C28.8504 84.6307 28.9391 85.0273 29.1164 85.382C29.3031 85.7273 29.5551 85.998 29.8724 86.194C30.1897 86.39 30.5584 86.488 30.9784 86.488ZM39.1032 88.168C38.5152 88.168 38.0019 88.0373 37.5632 87.776C37.1339 87.5147 36.8025 87.1507 36.5692 86.684C36.3452 86.2173 36.2332 85.6713 36.2332 85.046V80.384H38.0672V84.892C38.0672 85.2093 38.1279 85.4893 38.2492 85.732C38.3799 85.9653 38.5619 86.152 38.7952 86.292C39.0379 86.4227 39.3085 86.488 39.6072 86.488C39.9059 86.488 40.1719 86.4227 40.4052 86.292C40.6385 86.152 40.8205 85.9607 40.9512 85.718C41.0819 85.4753 41.1472 85.186 41.1472 84.85V80.384H42.9812V88H41.2452V86.502L41.3992 86.768C41.2219 87.2347 40.9279 87.5847 40.5172 87.818C40.1159 88.0513 39.6445 88.168 39.1032 88.168ZM47.584 88.168C46.772 88.168 46.0627 87.9767 45.456 87.594C44.8587 87.202 44.448 86.6747 44.224 86.012L45.596 85.354C45.792 85.7833 46.0627 86.1193 46.408 86.362C46.7627 86.6047 47.1547 86.726 47.584 86.726C47.92 86.726 48.186 86.6513 48.382 86.502C48.578 86.3527 48.676 86.1567 48.676 85.914C48.676 85.7647 48.634 85.6433 48.55 85.55C48.4754 85.4473 48.368 85.3633 48.228 85.298C48.0974 85.2233 47.9527 85.1627 47.794 85.116L46.548 84.766C45.904 84.5793 45.414 84.2947 45.078 83.912C44.7514 83.5293 44.588 83.0767 44.588 82.554C44.588 82.0873 44.7047 81.6813 44.938 81.336C45.1807 80.9813 45.512 80.706 45.932 80.51C46.3614 80.314 46.8514 80.216 47.402 80.216C48.1207 80.216 48.7554 80.3887 49.306 80.734C49.8567 81.0793 50.2487 81.5647 50.482 82.19L49.082 82.848C48.9514 82.5027 48.732 82.2273 48.424 82.022C48.116 81.8167 47.7707 81.714 47.388 81.714C47.08 81.714 46.8374 81.784 46.66 81.924C46.4827 82.064 46.394 82.246 46.394 82.47C46.394 82.61 46.4314 82.7313 46.506 82.834C46.5807 82.9367 46.6834 83.0207 46.814 83.086C46.954 83.1513 47.1127 83.212 47.29 83.268L48.508 83.632C49.1334 83.8187 49.614 84.0987 49.95 84.472C50.2954 84.8453 50.468 85.3027 50.468 85.844C50.468 86.3013 50.3467 86.7073 50.104 87.062C49.8614 87.4073 49.5254 87.678 49.096 87.874C48.6667 88.07 48.1627 88.168 47.584 88.168Z" fill="#2E168D"/>
<path d="M1.008 128V117.57H2.828L6.734 122.876H5.866L9.688 117.57H11.508V128H9.59V119.74L10.332 119.922L6.37 125.2H6.146L2.282 119.922L2.912 119.74V128H1.008ZM17.0741 128.168C16.3274 128.168 15.6461 127.995 15.0301 127.65C14.4234 127.305 13.9381 126.833 13.5741 126.236C13.2194 125.639 13.0421 124.957 13.0421 124.192C13.0421 123.427 13.2194 122.745 13.5741 122.148C13.9381 121.551 14.4234 121.079 15.0301 120.734C15.6368 120.389 16.3181 120.216 17.0741 120.216C17.8208 120.216 18.4974 120.389 19.1041 120.734C19.7108 121.079 20.1914 121.551 20.5461 122.148C20.9101 122.736 21.0921 123.417 21.0921 124.192C21.0921 124.957 20.9101 125.639 20.5461 126.236C20.1821 126.833 19.6968 127.305 19.0901 127.65C18.4834 127.995 17.8114 128.168 17.0741 128.168ZM17.0741 126.488C17.4848 126.488 17.8441 126.39 18.1521 126.194C18.4694 125.998 18.7168 125.727 18.8941 125.382C19.0808 125.027 19.1741 124.631 19.1741 124.192C19.1741 123.744 19.0808 123.352 18.8941 123.016C18.7168 122.671 18.4694 122.4 18.1521 122.204C17.8441 121.999 17.4848 121.896 17.0741 121.896C16.6541 121.896 16.2854 121.999 15.9681 122.204C15.6508 122.4 15.3988 122.671 15.2121 123.016C15.0348 123.352 14.9461 123.744 14.9461 124.192C14.9461 124.631 15.0348 125.027 15.2121 125.382C15.3988 125.727 15.6508 125.998 15.9681 126.194C16.2854 126.39 16.6541 126.488 17.0741 126.488ZM26.0249 128.168C25.2876 128.168 24.6296 127.995 24.0509 127.65C23.4722 127.295 23.0149 126.815 22.6789 126.208C22.3429 125.601 22.1749 124.929 22.1749 124.192C22.1749 123.445 22.3429 122.773 22.6789 122.176C23.0149 121.579 23.4722 121.103 24.0509 120.748C24.6389 120.393 25.2922 120.216 26.0109 120.216C26.5896 120.216 27.1029 120.333 27.5509 120.566C28.0082 120.79 28.3676 121.107 28.6289 121.518L28.3489 121.896V117.402H30.1829V128H28.4469V126.53L28.6429 126.894C28.3816 127.305 28.0176 127.622 27.5509 127.846C27.0842 128.061 26.5756 128.168 26.0249 128.168ZM26.2209 126.488C26.6409 126.488 27.0096 126.39 27.3269 126.194C27.6442 125.998 27.8916 125.727 28.0689 125.382C28.2556 125.037 28.3489 124.64 28.3489 124.192C28.3489 123.753 28.2556 123.361 28.0689 123.016C27.8916 122.661 27.6442 122.386 27.3269 122.19C27.0096 121.994 26.6409 121.896 26.2209 121.896C25.8102 121.896 25.4416 121.999 25.1149 122.204C24.7882 122.4 24.5316 122.671 24.3449 123.016C24.1676 123.352 24.0789 123.744 24.0789 124.192C24.0789 124.64 24.1676 125.037 24.3449 125.382C24.5316 125.727 24.7882 125.998 25.1149 126.194C25.4416 126.39 25.8102 126.488 26.2209 126.488ZM35.5012 128.168C34.7172 128.168 34.0312 127.991 33.4432 127.636C32.8552 127.281 32.3978 126.801 32.0712 126.194C31.7445 125.587 31.5812 124.915 31.5812 124.178C31.5812 123.413 31.7445 122.736 32.0712 122.148C32.4072 121.551 32.8598 121.079 33.4292 120.734C34.0078 120.389 34.6518 120.216 35.3612 120.216C35.9585 120.216 36.4812 120.314 36.9292 120.51C37.3865 120.706 37.7738 120.977 38.0912 121.322C38.4085 121.667 38.6512 122.064 38.8192 122.512C38.9872 122.951 39.0712 123.427 39.0712 123.94C39.0712 124.071 39.0618 124.206 39.0432 124.346C39.0338 124.486 39.0105 124.607 38.9732 124.71H33.0932V123.31H37.9372L37.0692 123.968C37.1532 123.539 37.1298 123.156 36.9992 122.82C36.8778 122.484 36.6725 122.218 36.3832 122.022C36.1032 121.826 35.7625 121.728 35.3612 121.728C34.9785 121.728 34.6378 121.826 34.3392 122.022C34.0405 122.209 33.8118 122.489 33.6532 122.862C33.5038 123.226 33.4478 123.669 33.4852 124.192C33.4478 124.659 33.5085 125.074 33.6672 125.438C33.8352 125.793 34.0778 126.068 34.3952 126.264C34.7218 126.46 35.0952 126.558 35.5152 126.558C35.9352 126.558 36.2898 126.469 36.5792 126.292C36.8778 126.115 37.1112 125.877 37.2792 125.578L38.7632 126.306C38.6138 126.67 38.3805 126.992 38.0632 127.272C37.7458 127.552 37.3678 127.771 36.9292 127.93C36.4998 128.089 36.0238 128.168 35.5012 128.168ZM40.4614 128V120.384H42.1834V122.078L42.0434 121.826C42.2208 121.257 42.4961 120.86 42.8694 120.636C43.2521 120.412 43.7094 120.3 44.2414 120.3H44.6894V121.924H44.0314C43.5088 121.924 43.0888 122.087 42.7714 122.414C42.4541 122.731 42.2954 123.179 42.2954 123.758V128H40.4614ZM48.0078 128.168C47.4758 128.168 47.0138 128.079 46.6218 127.902C46.2298 127.725 45.9264 127.473 45.7118 127.146C45.4971 126.81 45.3898 126.423 45.3898 125.984C45.3898 125.564 45.4831 125.191 45.6698 124.864C45.8564 124.528 46.1458 124.248 46.5378 124.024C46.9298 123.8 47.4244 123.641 48.0218 123.548L50.5138 123.142V124.542L48.3718 124.906C48.0078 124.971 47.7371 125.088 47.5598 125.256C47.3824 125.424 47.2938 125.643 47.2938 125.914C47.2938 126.175 47.3918 126.385 47.5878 126.544C47.7931 126.693 48.0451 126.768 48.3438 126.768C48.7264 126.768 49.0624 126.689 49.3518 126.53C49.6504 126.362 49.8791 126.133 50.0378 125.844C50.2058 125.555 50.2898 125.237 50.2898 124.892V122.932C50.2898 122.605 50.1591 122.335 49.8978 122.12C49.6458 121.896 49.3098 121.784 48.8898 121.784C48.4978 121.784 48.1478 121.891 47.8398 122.106C47.5411 122.311 47.3218 122.587 47.1818 122.932L45.6838 122.204C45.8331 121.803 46.0664 121.457 46.3838 121.168C46.7104 120.869 47.0931 120.636 47.5318 120.468C47.9704 120.3 48.4464 120.216 48.9597 120.216C49.5851 120.216 50.1358 120.333 50.6118 120.566C51.0878 120.79 51.4564 121.107 51.7178 121.518C51.9884 121.919 52.1238 122.391 52.1238 122.932V128H50.3878V126.698L50.7798 126.67C50.5838 126.997 50.3504 127.272 50.0798 127.496C49.8091 127.711 49.5011 127.879 49.1558 128C48.8104 128.112 48.4278 128.168 48.0078 128.168ZM57.1541 128.084C56.2955 128.084 55.6281 127.851 55.1521 127.384C54.6855 126.908 54.4521 126.241 54.4521 125.382V122.022H53.1361V120.384H53.2761C53.6495 120.384 53.9388 120.286 54.1441 120.09C54.3495 119.894 54.4521 119.609 54.4521 119.236V118.648H56.2861V120.384H58.0361V122.022H56.2861V125.284C56.2861 125.536 56.3281 125.751 56.4121 125.928C56.5055 126.105 56.6455 126.241 56.8321 126.334C57.0281 126.427 57.2755 126.474 57.5741 126.474C57.6395 126.474 57.7141 126.469 57.7981 126.46C57.8915 126.451 57.9801 126.441 58.0641 126.432V128C57.9335 128.019 57.7841 128.037 57.6161 128.056C57.4481 128.075 57.2941 128.084 57.1541 128.084ZM63.009 128.168C62.225 128.168 61.539 127.991 60.951 127.636C60.363 127.281 59.9056 126.801 59.579 126.194C59.2523 125.587 59.089 124.915 59.089 124.178C59.089 123.413 59.2523 122.736 59.579 122.148C59.915 121.551 60.3676 121.079 60.937 120.734C61.5156 120.389 62.1596 120.216 62.869 120.216C63.4663 120.216 63.989 120.314 64.437 120.51C64.8943 120.706 65.2816 120.977 65.599 121.322C65.9163 121.667 66.159 122.064 66.327 122.512C66.495 122.951 66.579 123.427 66.579 123.94C66.579 124.071 66.5696 124.206 66.551 124.346C66.5416 124.486 66.5183 124.607 66.481 124.71H60.601V123.31H65.445L64.577 123.968C64.661 123.539 64.6376 123.156 64.507 122.82C64.3856 122.484 64.1803 122.218 63.891 122.022C63.611 121.826 63.2703 121.728 62.869 121.728C62.4863 121.728 62.1456 121.826 61.847 122.022C61.5483 122.209 61.3196 122.489 61.161 122.862C61.0116 123.226 60.9556 123.669 60.993 124.192C60.9556 124.659 61.0163 125.074 61.175 125.438C61.343 125.793 61.5856 126.068 61.903 126.264C62.2296 126.46 62.603 126.558 63.023 126.558C63.443 126.558 63.7976 126.469 64.087 126.292C64.3856 126.115 64.619 125.877 64.787 125.578L66.271 126.306C66.1216 126.67 65.8883 126.992 65.571 127.272C65.2536 127.552 64.8756 127.771 64.437 127.93C64.0076 128.089 63.5316 128.168 63.009 128.168Z" fill="#2E168D"/>
<path d="M1.008 168V157.57H2.828L6.734 162.876H5.866L9.688 157.57H11.508V168H9.59V159.74L10.332 159.922L6.37 165.2H6.146L2.282 159.922L2.912 159.74V168H1.008ZM13.3501 168V160.384H15.1841V168H13.3501ZM13.3501 159.53V157.57H15.1841V159.53H13.3501ZM16.8774 168V157.402H18.7114V168H16.8774ZM23.9468 168.168C23.2094 168.168 22.5514 167.995 21.9728 167.65C21.3941 167.295 20.9368 166.815 20.6008 166.208C20.2648 165.601 20.0968 164.929 20.0968 164.192C20.0968 163.445 20.2648 162.773 20.6008 162.176C20.9368 161.579 21.3941 161.103 21.9728 160.748C22.5608 160.393 23.2141 160.216 23.9328 160.216C24.5114 160.216 25.0248 160.333 25.4728 160.566C25.9301 160.79 26.2894 161.107 26.5508 161.518L26.2708 161.896V157.402H28.1048V168H26.3688V166.53L26.5648 166.894C26.3034 167.305 25.9394 167.622 25.4728 167.846C25.0061 168.061 24.4974 168.168 23.9468 168.168ZM24.1428 166.488C24.5628 166.488 24.9314 166.39 25.2488 166.194C25.5661 165.998 25.8134 165.727 25.9908 165.382C26.1774 165.037 26.2708 164.64 26.2708 164.192C26.2708 163.753 26.1774 163.361 25.9908 163.016C25.8134 162.661 25.5661 162.386 25.2488 162.19C24.9314 161.994 24.5628 161.896 24.1428 161.896C23.7321 161.896 23.3634 161.999 23.0368 162.204C22.7101 162.4 22.4534 162.671 22.2668 163.016C22.0894 163.352 22.0008 163.744 22.0008 164.192C22.0008 164.64 22.0894 165.037 22.2668 165.382C22.4534 165.727 22.7101 165.998 23.0368 166.194C23.3634 166.39 23.7321 166.488 24.1428 166.488Z" fill="#2E168D"/>
<path d="M147.048 43H88V169H588C398.213 158.434 303.405 127.027 147.048 43Z" fill="#DCD6F6"/>
<path d="M88 43H147.048C303.405 127.027 398.213 158.434 588 169" stroke="#2E168D"/>
<g filter="url(#filter0_d_830_3777)">
<circle cx="147" cy="43" r="5" fill="#2E168D"/>
<circle cx="147" cy="43" r="4.5" stroke="white"/>
</g>
<line x1="88" y1="169.5" x2="588" y2="169.5" stroke="#C1BADE"/>
<rect x="108" y="2" width="89" height="26" rx="5" fill="#2E168D"/>
<path d="M117.796 20V15.632L114.481 10.315H116.21L118.862 14.618H118.251L120.89 10.315H122.619L119.317 15.632V20H117.796ZM125.787 20.156C125.111 20.156 124.491 19.9957 123.928 19.675C123.373 19.3543 122.931 18.9167 122.602 18.362C122.273 17.8073 122.108 17.179 122.108 16.477C122.108 15.7663 122.273 15.138 122.602 14.592C122.931 14.0373 123.373 13.604 123.928 13.292C124.483 12.9713 125.102 12.811 125.787 12.811C126.48 12.811 127.1 12.9713 127.646 13.292C128.201 13.604 128.638 14.0373 128.959 14.592C129.288 15.138 129.453 15.7663 129.453 16.477C129.453 17.1877 129.288 17.8203 128.959 18.375C128.63 18.9297 128.188 19.3673 127.633 19.688C127.078 20 126.463 20.156 125.787 20.156ZM125.787 18.791C126.203 18.791 126.571 18.6913 126.892 18.492C127.213 18.2927 127.464 18.0197 127.646 17.673C127.837 17.3177 127.932 16.919 127.932 16.477C127.932 16.035 127.837 15.6407 127.646 15.294C127.464 14.9473 127.213 14.6743 126.892 14.475C126.571 14.2757 126.203 14.176 125.787 14.176C125.38 14.176 125.011 14.2757 124.682 14.475C124.361 14.6743 124.106 14.9473 123.915 15.294C123.733 15.6407 123.642 16.035 123.642 16.477C123.642 16.919 123.733 17.3177 123.915 17.673C124.106 18.0197 124.361 18.2927 124.682 18.492C125.011 18.6913 125.38 18.791 125.787 18.791ZM133.396 20.156C132.868 20.156 132.404 20.039 132.005 19.805C131.607 19.5623 131.295 19.2287 131.069 18.804C130.853 18.3707 130.744 17.8723 130.744 17.309V12.967H132.213V17.179C132.213 17.4997 132.278 17.7813 132.408 18.024C132.538 18.2667 132.72 18.4573 132.954 18.596C133.188 18.726 133.457 18.791 133.76 18.791C134.072 18.791 134.345 18.7217 134.579 18.583C134.813 18.4443 134.995 18.2493 135.125 17.998C135.264 17.7467 135.333 17.452 135.333 17.114V12.967H136.789V20H135.398V18.622L135.554 18.804C135.39 19.2373 135.117 19.571 134.735 19.805C134.354 20.039 133.908 20.156 133.396 20.156ZM142.883 20.156C142.406 20.156 141.986 20.0737 141.622 19.909C141.267 19.7357 140.989 19.5017 140.79 19.207C140.591 18.9037 140.491 18.5483 140.491 18.141C140.491 17.7597 140.573 17.4173 140.738 17.114C140.911 16.8107 141.176 16.555 141.531 16.347C141.886 16.139 142.333 15.9917 142.87 15.905L145.314 15.502V16.659L143.156 17.036C142.766 17.1053 142.48 17.231 142.298 17.413C142.116 17.5863 142.025 17.8117 142.025 18.089C142.025 18.3577 142.125 18.5787 142.324 18.752C142.532 18.9167 142.796 18.999 143.117 18.999C143.516 18.999 143.862 18.9123 144.157 18.739C144.46 18.5657 144.694 18.336 144.859 18.05C145.024 17.7553 145.106 17.4303 145.106 17.075V15.268C145.106 14.9213 144.976 14.6397 144.716 14.423C144.465 14.1977 144.127 14.085 143.702 14.085C143.312 14.085 142.97 14.189 142.675 14.397C142.389 14.5963 142.177 14.8563 142.038 15.177L140.816 14.566C140.946 14.2193 141.158 13.916 141.453 13.656C141.748 13.3873 142.09 13.1793 142.48 13.032C142.879 12.8847 143.299 12.811 143.741 12.811C144.296 12.811 144.785 12.915 145.21 13.123C145.643 13.331 145.977 13.6213 146.211 13.994C146.454 14.358 146.575 14.7827 146.575 15.268V20H145.171V18.726L145.47 18.765C145.305 19.051 145.093 19.298 144.833 19.506C144.582 19.714 144.291 19.8743 143.962 19.987C143.641 20.0997 143.282 20.156 142.883 20.156ZM148.293 20V12.967H149.697V14.384L149.567 14.176C149.723 13.7167 149.974 13.3873 150.321 13.188C150.667 12.98 151.083 12.876 151.569 12.876H151.998V14.215H151.387C150.901 14.215 150.507 14.3667 150.204 14.67C149.909 14.9647 149.762 15.3893 149.762 15.944V20H148.293ZM156.305 20.156C155.603 20.156 154.979 19.9957 154.433 19.675C153.895 19.3457 153.475 18.9037 153.172 18.349C152.868 17.7857 152.717 17.1573 152.717 16.464C152.717 15.7533 152.868 15.125 153.172 14.579C153.484 14.033 153.9 13.604 154.42 13.292C154.94 12.9713 155.529 12.811 156.188 12.811C156.716 12.811 157.189 12.902 157.605 13.084C158.021 13.266 158.372 13.5173 158.658 13.838C158.944 14.15 159.16 14.5097 159.308 14.917C159.464 15.3243 159.542 15.7577 159.542 16.217C159.542 16.3297 159.537 16.4467 159.529 16.568C159.52 16.6893 159.503 16.802 159.477 16.906H153.874V15.736H158.645L157.943 16.269C158.029 15.8443 157.999 15.4673 157.852 15.138C157.713 14.8 157.496 14.5357 157.202 14.345C156.916 14.1457 156.578 14.046 156.188 14.046C155.798 14.046 155.451 14.1457 155.148 14.345C154.844 14.5357 154.61 14.813 154.446 15.177C154.281 15.5323 154.216 15.9657 154.251 16.477C154.207 16.9537 154.272 17.3697 154.446 17.725C154.628 18.0803 154.879 18.3577 155.2 18.557C155.529 18.7563 155.902 18.856 156.318 18.856C156.742 18.856 157.102 18.7607 157.397 18.57C157.7 18.3793 157.938 18.1323 158.112 17.829L159.308 18.414C159.169 18.7433 158.952 19.0423 158.658 19.311C158.372 19.571 158.025 19.779 157.618 19.935C157.219 20.0823 156.781 20.156 156.305 20.156ZM163.248 20V10.159H164.717V14.345L164.483 14.163C164.656 13.721 164.933 13.3873 165.315 13.162C165.696 12.928 166.138 12.811 166.641 12.811C167.161 12.811 167.62 12.9237 168.019 13.149C168.417 13.3743 168.729 13.6863 168.955 14.085C169.18 14.4837 169.293 14.9387 169.293 15.45V20H167.837V15.853C167.837 15.4977 167.767 15.1987 167.629 14.956C167.499 14.7047 167.317 14.514 167.083 14.384C166.849 14.2453 166.58 14.176 166.277 14.176C165.982 14.176 165.713 14.2453 165.471 14.384C165.237 14.514 165.05 14.7047 164.912 14.956C164.782 15.2073 164.717 15.5063 164.717 15.853V20H163.248ZM174.167 20.156C173.465 20.156 172.841 19.9957 172.295 19.675C171.758 19.3457 171.337 18.9037 171.034 18.349C170.731 17.7857 170.579 17.1573 170.579 16.464C170.579 15.7533 170.731 15.125 171.034 14.579C171.346 14.033 171.762 13.604 172.282 13.292C172.802 12.9713 173.391 12.811 174.05 12.811C174.579 12.811 175.051 12.902 175.467 13.084C175.883 13.266 176.234 13.5173 176.52 13.838C176.806 14.15 177.023 14.5097 177.17 14.917C177.326 15.3243 177.404 15.7577 177.404 16.217C177.404 16.3297 177.4 16.4467 177.391 16.568C177.382 16.6893 177.365 16.802 177.339 16.906H171.736V15.736H176.507L175.805 16.269C175.892 15.8443 175.861 15.4673 175.714 15.138C175.575 14.8 175.359 14.5357 175.064 14.345C174.778 14.1457 174.44 14.046 174.05 14.046C173.66 14.046 173.313 14.1457 173.01 14.345C172.707 14.5357 172.473 14.813 172.308 15.177C172.143 15.5323 172.078 15.9657 172.113 16.477C172.07 16.9537 172.135 17.3697 172.308 17.725C172.49 18.0803 172.741 18.3577 173.062 18.557C173.391 18.7563 173.764 18.856 174.18 18.856C174.605 18.856 174.964 18.7607 175.259 18.57C175.562 18.3793 175.801 18.1323 175.974 17.829L177.17 18.414C177.031 18.7433 176.815 19.0423 176.52 19.311C176.234 19.571 175.887 19.779 175.48 19.935C175.081 20.0823 174.644 20.156 174.167 20.156ZM178.837 20V12.967H180.241V14.384L180.111 14.176C180.267 13.7167 180.519 13.3873 180.865 13.188C181.212 12.98 181.628 12.876 182.113 12.876H182.542V14.215H181.931C181.446 14.215 181.052 14.3667 180.748 14.67C180.454 14.9647 180.306 15.3893 180.306 15.944V20H178.837ZM186.849 20.156C186.147 20.156 185.523 19.9957 184.977 19.675C184.44 19.3457 184.02 18.9037 183.716 18.349C183.413 17.7857 183.261 17.1573 183.261 16.464C183.261 15.7533 183.413 15.125 183.716 14.579C184.028 14.033 184.444 13.604 184.964 13.292C185.484 12.9713 186.074 12.811 186.732 12.811C187.261 12.811 187.733 12.902 188.149 13.084C188.565 13.266 188.916 13.5173 189.202 13.838C189.488 14.15 189.705 14.5097 189.852 14.917C190.008 15.3243 190.086 15.7577 190.086 16.217C190.086 16.3297 190.082 16.4467 190.073 16.568C190.065 16.6893 190.047 16.802 190.021 16.906H184.418V15.736H189.189L188.487 16.269C188.574 15.8443 188.544 15.4673 188.396 15.138C188.258 14.8 188.041 14.5357 187.746 14.345C187.46 14.1457 187.122 14.046 186.732 14.046C186.342 14.046 185.996 14.1457 185.692 14.345C185.389 14.5357 185.155 14.813 184.99 15.177C184.826 15.5323 184.761 15.9657 184.795 16.477C184.752 16.9537 184.817 17.3697 184.99 17.725C185.172 18.0803 185.424 18.3577 185.744 18.557C186.074 18.7563 186.446 18.856 186.862 18.856C187.287 18.856 187.647 18.7607 187.941 18.57C188.245 18.3793 188.483 18.1323 188.656 17.829L189.852 18.414C189.714 18.7433 189.497 19.0423 189.202 19.311C188.916 19.571 188.57 19.779 188.162 19.935C187.764 20.0823 187.326 20.156 186.849 20.156Z" fill="white"/>
<path d="M143 28L148 34L153 28H143Z" fill="#2E168D"/>
<g filter="url(#filter1_d_830_3777)">
<circle cx="560" cy="169" r="5" fill="#2E168D"/>
<circle cx="560" cy="169" r="4.5" stroke="white"/>
</g>
<rect x="535" y="128" width="42" height="26" rx="5" fill="#2E168D"/>
<path d="M546.653 146.156C545.968 146.156 545.331 146.03 544.742 145.779C544.161 145.528 543.65 145.181 543.208 144.739C542.774 144.288 542.436 143.76 542.194 143.153C541.951 142.546 541.83 141.879 541.83 141.151C541.83 140.432 541.947 139.769 542.181 139.162C542.423 138.547 542.761 138.018 543.195 137.576C543.628 137.125 544.135 136.779 544.716 136.536C545.296 136.285 545.933 136.159 546.627 136.159C547.311 136.159 547.922 136.276 548.46 136.51C549.006 136.744 549.465 137.052 549.838 137.433C550.21 137.806 550.479 138.213 550.644 138.655L549.279 139.318C549.079 138.789 548.75 138.365 548.291 138.044C547.831 137.715 547.277 137.55 546.627 137.55C545.985 137.55 545.418 137.702 544.924 138.005C544.43 138.308 544.044 138.729 543.767 139.266C543.498 139.803 543.364 140.432 543.364 141.151C543.364 141.87 543.502 142.503 543.78 143.049C544.066 143.586 544.456 144.007 544.95 144.31C545.444 144.605 546.011 144.752 546.653 144.752C547.19 144.752 547.68 144.644 548.122 144.427C548.572 144.202 548.932 143.89 549.201 143.491C549.469 143.084 549.604 142.611 549.604 142.074V141.411L550.293 142.035H546.627V140.735H551.125V141.645C551.125 142.356 551.003 142.993 550.761 143.556C550.518 144.111 550.189 144.583 549.773 144.973C549.357 145.363 548.88 145.658 548.343 145.857C547.805 146.056 547.242 146.156 546.653 146.156ZM555.941 146.156C555.265 146.156 554.645 145.996 554.082 145.675C553.527 145.354 553.085 144.917 552.756 144.362C552.427 143.807 552.262 143.179 552.262 142.477C552.262 141.766 552.427 141.138 552.756 140.592C553.085 140.037 553.527 139.604 554.082 139.292C554.637 138.971 555.256 138.811 555.941 138.811C556.634 138.811 557.254 138.971 557.8 139.292C558.355 139.604 558.792 140.037 559.113 140.592C559.442 141.138 559.607 141.766 559.607 142.477C559.607 143.188 559.442 143.82 559.113 144.375C558.784 144.93 558.342 145.367 557.787 145.688C557.232 146 556.617 146.156 555.941 146.156ZM555.941 144.791C556.357 144.791 556.725 144.691 557.046 144.492C557.367 144.293 557.618 144.02 557.8 143.673C557.991 143.318 558.086 142.919 558.086 142.477C558.086 142.035 557.991 141.641 557.8 141.294C557.618 140.947 557.367 140.674 557.046 140.475C556.725 140.276 556.357 140.176 555.941 140.176C555.534 140.176 555.165 140.276 554.836 140.475C554.515 140.674 554.26 140.947 554.069 141.294C553.887 141.641 553.796 142.035 553.796 142.477C553.796 142.919 553.887 143.318 554.069 143.673C554.26 144.02 554.515 144.293 554.836 144.492C555.165 144.691 555.534 144.791 555.941 144.791ZM563.147 146.156C562.67 146.156 562.25 146.074 561.886 145.909C561.531 145.736 561.253 145.502 561.054 145.207C560.855 144.904 560.755 144.548 560.755 144.141C560.755 143.76 560.837 143.417 561.002 143.114C561.175 142.811 561.44 142.555 561.795 142.347C562.15 142.139 562.597 141.992 563.134 141.905L565.578 141.502V142.659L563.42 143.036C563.03 143.105 562.744 143.231 562.562 143.413C562.38 143.586 562.289 143.812 562.289 144.089C562.289 144.358 562.389 144.579 562.588 144.752C562.796 144.917 563.06 144.999 563.381 144.999C563.78 144.999 564.126 144.912 564.421 144.739C564.724 144.566 564.958 144.336 565.123 144.05C565.288 143.755 565.37 143.43 565.37 143.075V141.268C565.37 140.921 565.24 140.64 564.98 140.423C564.729 140.198 564.391 140.085 563.966 140.085C563.576 140.085 563.234 140.189 562.939 140.397C562.653 140.596 562.441 140.856 562.302 141.177L561.08 140.566C561.21 140.219 561.422 139.916 561.717 139.656C562.012 139.387 562.354 139.179 562.744 139.032C563.143 138.885 563.563 138.811 564.005 138.811C564.56 138.811 565.049 138.915 565.474 139.123C565.907 139.331 566.241 139.621 566.475 139.994C566.718 140.358 566.839 140.783 566.839 141.268V146H565.435V144.726L565.734 144.765C565.569 145.051 565.357 145.298 565.097 145.506C564.846 145.714 564.555 145.874 564.226 145.987C563.905 146.1 563.546 146.156 563.147 146.156ZM568.557 146V136.159H570.026V146H568.557Z" fill="white"/>
<path d="M555 154L560 160L565 154H555Z" fill="#2E168D"/>
<defs>
<filter id="filter0_d_830_3777" x="132" y="28" width="30" height="30" filterUnits="userSpaceOnUse" color-interpolation-filters="sRGB">
<feFlood flood-opacity="0" result="BackgroundImageFix"/>
<feColorMatrix in="SourceAlpha" type="matrix" values="0 0 0 0 0 0 0 0 0 0 0 0 0 0 0 0 0 0 127 0" result="hardAlpha"/>
<feOffset/>
<feGaussianBlur stdDeviation="5"/>
<feComposite in2="hardAlpha" operator="out"/>
<feColorMatrix type="matrix" values="0 0 0 0 0 0 0 0 0 0 0 0 0 0 0 0 0 0 0.11 0"/>
<feBlend mode="normal" in2="BackgroundImageFix" result="effect1_dropShadow_830_3777"/>
<feBlend mode="normal" in="SourceGraphic" in2="effect1_dropShadow_830_3777" result="shape"/>
</filter>
<filter id="filter1_d_830_3777" x="545" y="154" width="30" height="30" filterUnits="userSpaceOnUse" color-interpolation-filters="sRGB">
<feFlood flood-opacity="0" result="BackgroundImageFix"/>
<feColorMatrix in="SourceAlpha" type="matrix" values="0 0 0 0 0 0 0 0 0 0 0 0 0 0 0 0 0 0 127 0" result="hardAlpha"/>
<feOffset/>
<feGaussianBlur stdDeviation="5"/>
<feComposite in2="hardAlpha" operator="out"/>
<feColorMatrix type="matrix" values="0 0 0 0 0 0 0 0 0 0 0 0 0 0 0 0 0 0 0.11 0"/>
<feBlend mode="normal" in2="BackgroundImageFix" result="effect1_dropShadow_830_3777"/>
<feBlend mode="normal" in="SourceGraphic" in2="effect1_dropShadow_830_3777" result="shape"/>
</filter>
</defs>
</svg>
