<svg width="635" height="228" viewBox="0 0 635 228" fill="none" xmlns="http://www.w3.org/2000/svg">
<path d="M81 20C81 17.2386 83.2386 15 86 15H615C617.761 15 620 17.2386 620 20V198H81V20Z" fill="#B5A6F2" fill-opacity="0.1"/>
<path d="M598.467 198H81V52.5H137.051C210.617 131.484 420.306 198 598.467 198Z" fill="#B5A6F2" fill-opacity="0.4"/>
<path d="M81 52.5H137.051C210.617 131.484 420.306 198 598.467 198" stroke="#2E168D" stroke-width="1.5"/>
<path d="M81.5 198H620" stroke="#767687" stroke-width="1.5"/>
<path d="M138 58C141.314 58 144 55.3137 144 52C144 48.6863 141.314 46 138 46C134.686 46 132 48.6863 132 52C132 55.3137 134.686 58 138 58Z" fill="#2E168D"/>
<path d="M598 204C601.314 204 604 201.314 604 198C604 194.686 601.314 192 598 192C594.686 192 592 194.686 592 198C592 201.314 594.686 204 598 204Z" fill="#B5A6F2"/>
<path d="M623 140H573C567.477 140 563 144.477 563 150V163C563 168.523 567.477 173 573 173H623C628.523 173 633 168.523 633 163V150C633 144.477 628.523 140 623 140Z" fill="#B5A6F2"/>
<path d="M598.485 164L590 172.485L598.485 180.97L606.971 172.485L598.485 164Z" fill="#B5A6F2"/>
<path d="M187 0H89C83.4772 0 79 4.47715 79 10V23C79 28.5228 83.4772 33 89 33H187C192.523 33 197 28.5228 197 23V10C197 4.47715 192.523 0 187 0Z" fill="#2E168D"/>
<path d="M138.485 24.0001L130 32.4854L138.485 40.9706L146.971 32.4854L138.485 24.0001Z" fill="#2E168D"/>
<path d="M588.406 162.168C587.659 162.168 586.969 162.033 586.334 161.762C585.699 161.491 585.144 161.113 584.668 160.628C584.192 160.143 583.819 159.573 583.548 158.92C583.287 158.267 583.156 157.553 583.156 156.778C583.156 156.003 583.282 155.289 583.534 154.636C583.795 153.973 584.159 153.404 584.626 152.928C585.102 152.443 585.657 152.069 586.292 151.808C586.927 151.537 587.617 151.402 588.364 151.402C589.111 151.402 589.778 151.528 590.366 151.78C590.963 152.032 591.467 152.368 591.878 152.788C592.289 153.199 592.583 153.651 592.76 154.146L591.066 154.958C590.87 154.417 590.539 153.978 590.072 153.642C589.605 153.306 589.036 153.138 588.364 153.138C587.711 153.138 587.132 153.292 586.628 153.6C586.133 153.908 585.746 154.333 585.466 154.874C585.195 155.415 585.06 156.05 585.06 156.778C585.06 157.506 585.2 158.145 585.48 158.696C585.769 159.237 586.166 159.662 586.67 159.97C587.174 160.278 587.753 160.432 588.406 160.432C588.938 160.432 589.428 160.329 589.876 160.124C590.324 159.909 590.683 159.611 590.954 159.228C591.225 158.836 591.36 158.374 591.36 157.842V157.044L592.228 157.8H588.364V156.19H593.264V157.24C593.264 158.043 593.129 158.752 592.858 159.368C592.587 159.984 592.219 160.502 591.752 160.922C591.295 161.333 590.777 161.645 590.198 161.86C589.619 162.065 589.022 162.168 588.406 162.168ZM598.341 162.168C597.594 162.168 596.913 161.995 596.297 161.65C595.69 161.305 595.205 160.833 594.841 160.236C594.486 159.639 594.309 158.957 594.309 158.192C594.309 157.427 594.486 156.745 594.841 156.148C595.205 155.551 595.69 155.079 596.297 154.734C596.903 154.389 597.585 154.216 598.341 154.216C599.087 154.216 599.764 154.389 600.371 154.734C600.977 155.079 601.458 155.551 601.813 156.148C602.177 156.736 602.359 157.417 602.359 158.192C602.359 158.957 602.177 159.639 601.813 160.236C601.449 160.833 600.963 161.305 600.357 161.65C599.75 161.995 599.078 162.168 598.341 162.168ZM598.341 160.488C598.751 160.488 599.111 160.39 599.419 160.194C599.736 159.998 599.983 159.727 600.161 159.382C600.347 159.027 600.441 158.631 600.441 158.192C600.441 157.744 600.347 157.352 600.161 157.016C599.983 156.671 599.736 156.4 599.419 156.204C599.111 155.999 598.751 155.896 598.341 155.896C597.921 155.896 597.552 155.999 597.235 156.204C596.917 156.4 596.665 156.671 596.479 157.016C596.301 157.352 596.213 157.744 596.213 158.192C596.213 158.631 596.301 159.027 596.479 159.382C596.665 159.727 596.917 159.998 597.235 160.194C597.552 160.39 597.921 160.488 598.341 160.488ZM606.06 162.168C605.528 162.168 605.066 162.079 604.674 161.902C604.282 161.725 603.978 161.473 603.764 161.146C603.549 160.81 603.442 160.423 603.442 159.984C603.442 159.564 603.535 159.191 603.722 158.864C603.908 158.528 604.198 158.248 604.59 158.024C604.982 157.8 605.476 157.641 606.074 157.548L608.566 157.142V158.542L606.424 158.906C606.06 158.971 605.789 159.088 605.612 159.256C605.434 159.424 605.346 159.643 605.346 159.914C605.346 160.175 605.444 160.385 605.64 160.544C605.845 160.693 606.097 160.768 606.396 160.768C606.778 160.768 607.114 160.689 607.404 160.53C607.702 160.362 607.931 160.133 608.09 159.844C608.258 159.555 608.342 159.237 608.342 158.892V156.932C608.342 156.605 608.211 156.335 607.95 156.12C607.698 155.896 607.362 155.784 606.942 155.784C606.55 155.784 606.2 155.891 605.892 156.106C605.593 156.311 605.374 156.587 605.234 156.932L603.736 156.204C603.885 155.803 604.118 155.457 604.436 155.168C604.762 154.869 605.145 154.636 605.584 154.468C606.022 154.3 606.498 154.216 607.012 154.216C607.637 154.216 608.188 154.333 608.664 154.566C609.14 154.79 609.508 155.107 609.77 155.518C610.04 155.919 610.176 156.391 610.176 156.932V162H608.44V160.698L608.832 160.67C608.636 160.997 608.402 161.272 608.132 161.496C607.861 161.711 607.553 161.879 607.208 162C606.862 162.112 606.48 162.168 606.06 162.168ZM611.871 162V151.402H613.705V162H611.871Z" fill="#2E168D"/>
<path d="M4.73287 56.1681C4.0702 56.1681 3.45421 56.0468 2.88488 55.8041C2.32488 55.5614 1.83954 55.2254 1.42887 54.7961C1.02754 54.3574 0.733542 53.8488 0.546875 53.2701L2.12888 52.5841C2.38088 53.1814 2.74488 53.6528 3.22088 53.9981C3.69688 54.3341 4.23354 54.5021 4.83087 54.5021C5.16687 54.5021 5.4562 54.4508 5.69887 54.3481C5.95087 54.2361 6.1422 54.0868 6.27287 53.9001C6.41287 53.7134 6.48287 53.4894 6.48287 53.2281C6.48287 52.9201 6.38955 52.6681 6.20288 52.4721C6.02555 52.2668 5.75487 52.1081 5.39087 51.9961L3.38888 51.3521C2.57688 51.1001 1.96555 50.7221 1.55488 50.2181C1.14421 49.7141 0.938875 49.1214 0.938875 48.4401C0.938875 47.8428 1.08354 47.3154 1.37287 46.8581C1.67154 46.4008 2.08221 46.0461 2.60488 45.7941C3.13688 45.5328 3.74354 45.4021 4.42487 45.4021C5.0502 45.4021 5.6242 45.5141 6.14687 45.7381C6.66954 45.9528 7.11754 46.2561 7.49087 46.6481C7.87354 47.0308 8.1582 47.4834 8.34487 48.0061L6.77688 48.7061C6.57155 48.1834 6.26355 47.7821 5.85288 47.5021C5.44221 47.2128 4.9662 47.0681 4.42487 47.0681C4.10754 47.0681 3.82755 47.1241 3.58488 47.2361C3.34221 47.3388 3.15087 47.4881 3.01087 47.6841C2.8802 47.8708 2.81487 48.0948 2.81487 48.3561C2.81487 48.6454 2.90821 48.9021 3.09488 49.1261C3.28155 49.3408 3.5662 49.5088 3.94887 49.6301L5.86688 50.2321C6.69755 50.5028 7.31821 50.8761 7.72888 51.3521C8.14888 51.8281 8.35887 52.4161 8.35887 53.1161C8.35887 53.7134 8.20487 54.2408 7.89687 54.6981C7.58887 55.1554 7.16421 55.5148 6.62288 55.7761C6.08155 56.0374 5.45154 56.1681 4.73287 56.1681ZM13.5314 56.1681C12.7474 56.1681 12.0614 55.9908 11.4734 55.6361C10.8854 55.2814 10.428 54.8008 10.1014 54.1941C9.77467 53.5874 9.61132 52.9154 9.61132 52.1781C9.61132 51.4128 9.77467 50.7361 10.1014 50.1481C10.4374 49.5508 10.89 49.0794 11.4594 48.7341C12.038 48.3888 12.682 48.2161 13.3914 48.2161C13.9887 48.2161 14.5114 48.3141 14.9594 48.5101C15.4167 48.7061 15.804 48.9768 16.1214 49.3221C16.4387 49.6674 16.6814 50.0641 16.8494 50.5121C17.0174 50.9508 17.1014 51.4268 17.1014 51.9401C17.1014 52.0708 17.092 52.2061 17.0734 52.3461C17.064 52.4861 17.0407 52.6074 17.0034 52.7101H11.1234V51.3101H15.9674L15.0994 51.9681C15.1834 51.5388 15.16 51.1561 15.0294 50.8201C14.908 50.4841 14.7027 50.2181 14.4134 50.0221C14.1334 49.8261 13.7927 49.7281 13.3914 49.7281C13.0087 49.7281 12.668 49.8261 12.3694 50.0221C12.0707 50.2088 11.842 50.4888 11.6834 50.8621C11.534 51.2261 11.478 51.6694 11.5154 52.1921C11.478 52.6588 11.5387 53.0741 11.6974 53.4381C11.8654 53.7928 12.108 54.0681 12.4254 54.2641C12.752 54.4601 13.1254 54.5581 13.5454 54.5581C13.9654 54.5581 14.32 54.4694 14.6094 54.2921C14.908 54.1148 15.1414 53.8768 15.3094 53.5781L16.7934 54.3061C16.644 54.6701 16.4107 54.9921 16.0934 55.2721C15.776 55.5521 15.398 55.7714 14.9594 55.9301C14.53 56.0888 14.054 56.1681 13.5314 56.1681ZM20.6509 56.0001L17.6549 48.3841H19.6569L21.8269 54.3761H21.0849L23.2689 48.3841H25.2709L22.2749 56.0001H20.6509ZM29.7599 56.1681C28.9759 56.1681 28.2899 55.9908 27.7019 55.6361C27.1139 55.2814 26.6565 54.8008 26.3299 54.1941C26.0032 53.5874 25.8399 52.9154 25.8399 52.1781C25.8399 51.4128 26.0032 50.7361 26.3299 50.1481C26.6659 49.5508 27.1185 49.0794 27.6879 48.7341C28.2665 48.3888 28.9105 48.2161 29.6199 48.2161C30.2172 48.2161 30.7399 48.3141 31.1879 48.5101C31.6452 48.7061 32.0325 48.9768 32.3499 49.3221C32.6672 49.6674 32.9099 50.0641 33.0779 50.5121C33.2459 50.9508 33.3299 51.4268 33.3299 51.9401C33.3299 52.0708 33.3205 52.2061 33.3019 52.3461C33.2925 52.4861 33.2692 52.6074 33.2319 52.7101H27.3519V51.3101H32.1959L31.3279 51.9681C31.4119 51.5388 31.3885 51.1561 31.2579 50.8201C31.1365 50.4841 30.9312 50.2181 30.6419 50.0221C30.3619 49.8261 30.0212 49.7281 29.6199 49.7281C29.2372 49.7281 28.8965 49.8261 28.5979 50.0221C28.2992 50.2088 28.0705 50.4888 27.9119 50.8621C27.7625 51.2261 27.7065 51.6694 27.7439 52.1921C27.7065 52.6588 27.7672 53.0741 27.9259 53.4381C28.0939 53.7928 28.3365 54.0681 28.6539 54.2641C28.9805 54.4601 29.3539 54.5581 29.7739 54.5581C30.1939 54.5581 30.5485 54.4694 30.8379 54.2921C31.1365 54.1148 31.3699 53.8768 31.5379 53.5781L33.0219 54.3061C32.8725 54.6701 32.6392 54.9921 32.3219 55.2721C32.0045 55.5521 31.6265 55.7714 31.1879 55.9301C30.7585 56.0888 30.2825 56.1681 29.7599 56.1681ZM34.7201 56.0001V48.3841H36.4421V50.0781L36.3021 49.8261C36.4795 49.2568 36.7548 48.8601 37.1281 48.6361C37.5108 48.4121 37.9681 48.3001 38.5001 48.3001H38.9481V49.9241H38.2901C37.7675 49.9241 37.3475 50.0874 37.0301 50.4141C36.7128 50.7314 36.5541 51.1794 36.5541 51.7581V56.0001H34.7201ZM43.5685 56.1681C42.7845 56.1681 42.0985 55.9908 41.5105 55.6361C40.9225 55.2814 40.4651 54.8008 40.1385 54.1941C39.8118 53.5874 39.6485 52.9154 39.6485 52.1781C39.6485 51.4128 39.8118 50.7361 40.1385 50.1481C40.4745 49.5508 40.9271 49.0794 41.4965 48.7341C42.0751 48.3888 42.7191 48.2161 43.4285 48.2161C44.0258 48.2161 44.5485 48.3141 44.9965 48.5101C45.4538 48.7061 45.8411 48.9768 46.1585 49.3221C46.4758 49.6674 46.7185 50.0641 46.8865 50.5121C47.0545 50.9508 47.1385 51.4268 47.1385 51.9401C47.1385 52.0708 47.1291 52.2061 47.1105 52.3461C47.1011 52.4861 47.0778 52.6074 47.0405 52.7101H41.1605V51.3101H46.0045L45.1365 51.9681C45.2205 51.5388 45.1971 51.1561 45.0665 50.8201C44.9451 50.4841 44.7398 50.2181 44.4505 50.0221C44.1705 49.8261 43.8298 49.7281 43.4285 49.7281C43.0458 49.7281 42.7051 49.8261 42.4065 50.0221C42.1078 50.2088 41.8791 50.4888 41.7205 50.8621C41.5711 51.2261 41.5151 51.6694 41.5525 52.1921C41.5151 52.6588 41.5758 53.0741 41.7345 53.4381C41.9025 53.7928 42.1451 54.0681 42.4625 54.2641C42.7891 54.4601 43.1625 54.5581 43.5825 54.5581C44.0025 54.5581 44.3571 54.4694 44.6465 54.2921C44.9451 54.1148 45.1785 53.8768 45.3465 53.5781L46.8305 54.3061C46.6811 54.6701 46.4478 54.9921 46.1305 55.2721C45.8131 55.5521 45.4351 55.7714 44.9965 55.9301C44.5671 56.0888 44.0911 56.1681 43.5685 56.1681Z" fill="#2E168D"/>
<path d="M4.73287 104.168C4.0702 104.168 3.45421 104.047 2.88488 103.804C2.32488 103.561 1.83954 103.225 1.42887 102.796C1.02754 102.357 0.733542 101.849 0.546875 101.27L2.12888 100.584C2.38088 101.181 2.74488 101.653 3.22088 101.998C3.69688 102.334 4.23354 102.502 4.83087 102.502C5.16687 102.502 5.4562 102.451 5.69887 102.348C5.95087 102.236 6.1422 102.087 6.27287 101.9C6.41287 101.713 6.48287 101.489 6.48287 101.228C6.48287 100.92 6.38955 100.668 6.20288 100.472C6.02555 100.267 5.75487 100.108 5.39087 99.9961L3.38888 99.3521C2.57688 99.1001 1.96555 98.7221 1.55488 98.2181C1.14421 97.7141 0.938875 97.1214 0.938875 96.4401C0.938875 95.8428 1.08354 95.3154 1.37287 94.8581C1.67154 94.4008 2.08221 94.0461 2.60488 93.7941C3.13688 93.5328 3.74354 93.4021 4.42487 93.4021C5.0502 93.4021 5.6242 93.5141 6.14687 93.7381C6.66954 93.9528 7.11754 94.2561 7.49087 94.6481C7.87354 95.0308 8.1582 95.4834 8.34487 96.0061L6.77688 96.7061C6.57155 96.1834 6.26355 95.7821 5.85288 95.5021C5.44221 95.2128 4.9662 95.0681 4.42487 95.0681C4.10754 95.0681 3.82755 95.1241 3.58488 95.2361C3.34221 95.3388 3.15087 95.4881 3.01087 95.6841C2.8802 95.8708 2.81487 96.0948 2.81487 96.3561C2.81487 96.6454 2.90821 96.9021 3.09488 97.1261C3.28155 97.3408 3.5662 97.5088 3.94887 97.6301L5.86688 98.2321C6.69755 98.5028 7.31821 98.8761 7.72888 99.3521C8.14888 99.8281 8.35887 100.416 8.35887 101.116C8.35887 101.713 8.20487 102.241 7.89687 102.698C7.58887 103.155 7.16421 103.515 6.62288 103.776C6.08155 104.037 5.45154 104.168 4.73287 104.168ZM13.5314 104.168C12.7474 104.168 12.0614 103.991 11.4734 103.636C10.8854 103.281 10.428 102.801 10.1014 102.194C9.77467 101.587 9.61132 100.915 9.61132 100.178C9.61132 99.4128 9.77467 98.7361 10.1014 98.1481C10.4374 97.5508 10.89 97.0794 11.4594 96.7341C12.038 96.3888 12.682 96.2161 13.3914 96.2161C13.9887 96.2161 14.5114 96.3141 14.9594 96.5101C15.4167 96.7061 15.804 96.9768 16.1214 97.3221C16.4387 97.6674 16.6814 98.0641 16.8494 98.5121C17.0174 98.9508 17.1014 99.4268 17.1014 99.9401C17.1014 100.071 17.092 100.206 17.0734 100.346C17.064 100.486 17.0407 100.607 17.0034 100.71H11.1234V99.3101H15.9674L15.0994 99.9681C15.1834 99.5388 15.16 99.1561 15.0294 98.8201C14.908 98.4841 14.7027 98.2181 14.4134 98.0221C14.1334 97.8261 13.7927 97.7281 13.3914 97.7281C13.0087 97.7281 12.668 97.8261 12.3694 98.0221C12.0707 98.2088 11.842 98.4888 11.6834 98.8621C11.534 99.2261 11.478 99.6694 11.5154 100.192C11.478 100.659 11.5387 101.074 11.6974 101.438C11.8654 101.793 12.108 102.068 12.4254 102.264C12.752 102.46 13.1254 102.558 13.5454 102.558C13.9654 102.558 14.32 102.469 14.6094 102.292C14.908 102.115 15.1414 101.877 15.3094 101.578L16.7934 102.306C16.644 102.67 16.4107 102.992 16.0934 103.272C15.776 103.552 15.398 103.771 14.9594 103.93C14.53 104.089 14.054 104.168 13.5314 104.168ZM18.4916 104V96.3841H20.2136V98.0781L20.0736 97.8261C20.251 97.2568 20.5263 96.8601 20.8996 96.6361C21.2823 96.4121 21.7396 96.3001 22.2716 96.3001H22.7196V97.9241H22.0616C21.539 97.9241 21.119 98.0874 20.8016 98.4141C20.4843 98.7314 20.3256 99.1794 20.3256 99.7581V104H18.4916ZM23.7279 104V96.3841H25.5619V104H23.7279ZM23.7279 95.5301V93.5701H25.5619V95.5301H23.7279ZM30.9793 104.168C30.2326 104.168 29.5513 103.995 28.9353 103.65C28.3286 103.305 27.8433 102.833 27.4793 102.236C27.1246 101.639 26.9473 100.957 26.9473 100.192C26.9473 99.4268 27.1246 98.7454 27.4793 98.1481C27.8433 97.5508 28.3286 97.0794 28.9353 96.7341C29.542 96.3888 30.2233 96.2161 30.9793 96.2161C31.726 96.2161 32.4026 96.3888 33.0093 96.7341C33.616 97.0794 34.0966 97.5508 34.4513 98.1481C34.8153 98.7361 34.9973 99.4174 34.9973 100.192C34.9973 100.957 34.8153 101.639 34.4513 102.236C34.0873 102.833 33.602 103.305 32.9953 103.65C32.3886 103.995 31.7166 104.168 30.9793 104.168ZM30.9793 102.488C31.39 102.488 31.7493 102.39 32.0573 102.194C32.3746 101.998 32.622 101.727 32.7993 101.382C32.986 101.027 33.0793 100.631 33.0793 100.192C33.0793 99.7441 32.986 99.3521 32.7993 99.0161C32.622 98.6708 32.3746 98.4001 32.0573 98.2041C31.7493 97.9988 31.39 97.8961 30.9793 97.8961C30.5593 97.8961 30.1906 97.9988 29.8733 98.2041C29.556 98.4001 29.304 98.6708 29.1173 99.0161C28.94 99.3521 28.8513 99.7441 28.8513 100.192C28.8513 100.631 28.94 101.027 29.1173 101.382C29.304 101.727 29.556 101.998 29.8733 102.194C30.1906 102.39 30.5593 102.488 30.9793 102.488ZM39.1041 104.168C38.5161 104.168 38.0028 104.037 37.5641 103.776C37.1348 103.515 36.8034 103.151 36.5701 102.684C36.3461 102.217 36.2341 101.671 36.2341 101.046V96.3841H38.0681V100.892C38.0681 101.209 38.1288 101.489 38.2501 101.732C38.3808 101.965 38.5628 102.152 38.7961 102.292C39.0388 102.423 39.3094 102.488 39.6081 102.488C39.9068 102.488 40.1728 102.423 40.4061 102.292C40.6394 102.152 40.8214 101.961 40.9521 101.718C41.0828 101.475 41.1481 101.186 41.1481 100.85V96.3841H42.9821V104H41.2461V102.502L41.4001 102.768C41.2228 103.235 40.9288 103.585 40.5181 103.818C40.1168 104.051 39.6454 104.168 39.1041 104.168ZM47.5849 104.168C46.7729 104.168 46.0636 103.977 45.4569 103.594C44.8596 103.202 44.4489 102.675 44.2249 102.012L45.5969 101.354C45.7929 101.783 46.0636 102.119 46.4089 102.362C46.7636 102.605 47.1556 102.726 47.5849 102.726C47.9209 102.726 48.1869 102.651 48.3829 102.502C48.5789 102.353 48.6769 102.157 48.6769 101.914C48.6769 101.765 48.6349 101.643 48.5509 101.55C48.4763 101.447 48.3689 101.363 48.2289 101.298C48.0983 101.223 47.9536 101.163 47.7949 101.116L46.5489 100.766C45.9049 100.579 45.4149 100.295 45.0789 99.9121C44.7523 99.5294 44.5889 99.0768 44.5889 98.5541C44.5889 98.0874 44.7056 97.6814 44.9389 97.3361C45.1816 96.9814 45.5129 96.7061 45.9329 96.5101C46.3623 96.3141 46.8523 96.2161 47.4029 96.2161C48.1216 96.2161 48.7563 96.3888 49.3069 96.7341C49.8576 97.0794 50.2496 97.5648 50.4829 98.1901L49.0829 98.8481C48.9523 98.5028 48.7329 98.2274 48.4249 98.0221C48.1169 97.8168 47.7716 97.7141 47.3889 97.7141C47.0809 97.7141 46.8383 97.7841 46.6609 97.9241C46.4836 98.0641 46.3949 98.2461 46.3949 98.4701C46.3949 98.6101 46.4323 98.7314 46.5069 98.8341C46.5816 98.9368 46.6843 99.0208 46.8149 99.0861C46.9549 99.1514 47.1136 99.2121 47.2909 99.2681L48.5089 99.6321C49.1343 99.8188 49.6149 100.099 49.9509 100.472C50.2963 100.845 50.4689 101.303 50.4689 101.844C50.4689 102.301 50.3476 102.707 50.1049 103.062C49.8623 103.407 49.5263 103.678 49.0969 103.874C48.6676 104.07 48.1636 104.168 47.5849 104.168Z" fill="#2E168D"/>
<path d="M1.00781 152V141.57H2.82781L6.73381 146.876H5.86581L9.68781 141.57H11.5078V152H9.58981V143.74L10.3318 143.922L6.36981 149.2H6.14581L2.28181 143.922L2.91181 143.74V152H1.00781ZM17.0739 152.168C16.3272 152.168 15.6459 151.995 15.0299 151.65C14.4232 151.305 13.9379 150.833 13.5739 150.236C13.2192 149.639 13.0419 148.957 13.0419 148.192C13.0419 147.427 13.2192 146.745 13.5739 146.148C13.9379 145.551 14.4232 145.079 15.0299 144.734C15.6366 144.389 16.3179 144.216 17.0739 144.216C17.8206 144.216 18.4972 144.389 19.1039 144.734C19.7106 145.079 20.1912 145.551 20.5459 146.148C20.9099 146.736 21.0919 147.417 21.0919 148.192C21.0919 148.957 20.9099 149.639 20.5459 150.236C20.1819 150.833 19.6966 151.305 19.0899 151.65C18.4832 151.995 17.8112 152.168 17.0739 152.168ZM17.0739 150.488C17.4846 150.488 17.8439 150.39 18.1519 150.194C18.4692 149.998 18.7166 149.727 18.8939 149.382C19.0806 149.027 19.1739 148.631 19.1739 148.192C19.1739 147.744 19.0806 147.352 18.8939 147.016C18.7166 146.671 18.4692 146.4 18.1519 146.204C17.8439 145.999 17.4846 145.896 17.0739 145.896C16.6539 145.896 16.2852 145.999 15.9679 146.204C15.6506 146.4 15.3986 146.671 15.2119 147.016C15.0346 147.352 14.9459 147.744 14.9459 148.192C14.9459 148.631 15.0346 149.027 15.2119 149.382C15.3986 149.727 15.6506 149.998 15.9679 150.194C16.2852 150.39 16.6539 150.488 17.0739 150.488ZM26.0247 152.168C25.2874 152.168 24.6294 151.995 24.0507 151.65C23.472 151.295 23.0147 150.815 22.6787 150.208C22.3427 149.601 22.1747 148.929 22.1747 148.192C22.1747 147.445 22.3427 146.773 22.6787 146.176C23.0147 145.579 23.472 145.103 24.0507 144.748C24.6387 144.393 25.292 144.216 26.0107 144.216C26.5894 144.216 27.1027 144.333 27.5507 144.566C28.008 144.79 28.3674 145.107 28.6287 145.518L28.3487 145.896V141.402H30.1827V152H28.4467V150.53L28.6427 150.894C28.3814 151.305 28.0174 151.622 27.5507 151.846C27.084 152.061 26.5754 152.168 26.0247 152.168ZM26.2207 150.488C26.6407 150.488 27.0094 150.39 27.3267 150.194C27.644 149.998 27.8914 149.727 28.0687 149.382C28.2554 149.037 28.3487 148.64 28.3487 148.192C28.3487 147.753 28.2554 147.361 28.0687 147.016C27.8914 146.661 27.644 146.386 27.3267 146.19C27.0094 145.994 26.6407 145.896 26.2207 145.896C25.81 145.896 25.4414 145.999 25.1147 146.204C24.788 146.4 24.5314 146.671 24.3447 147.016C24.1674 147.352 24.0787 147.744 24.0787 148.192C24.0787 148.64 24.1674 149.037 24.3447 149.382C24.5314 149.727 24.788 149.998 25.1147 150.194C25.4414 150.39 25.81 150.488 26.2207 150.488ZM35.501 152.168C34.717 152.168 34.031 151.991 33.443 151.636C32.855 151.281 32.3976 150.801 32.071 150.194C31.7443 149.587 31.581 148.915 31.581 148.178C31.581 147.413 31.7443 146.736 32.071 146.148C32.407 145.551 32.8596 145.079 33.429 144.734C34.0076 144.389 34.6516 144.216 35.361 144.216C35.9583 144.216 36.481 144.314 36.929 144.51C37.3863 144.706 37.7736 144.977 38.091 145.322C38.4083 145.667 38.651 146.064 38.819 146.512C38.987 146.951 39.071 147.427 39.071 147.94C39.071 148.071 39.0616 148.206 39.043 148.346C39.0336 148.486 39.0103 148.607 38.973 148.71H33.093V147.31H37.937L37.069 147.968C37.153 147.539 37.1296 147.156 36.999 146.82C36.8776 146.484 36.6723 146.218 36.383 146.022C36.103 145.826 35.7623 145.728 35.361 145.728C34.9783 145.728 34.6376 145.826 34.339 146.022C34.0403 146.209 33.8116 146.489 33.653 146.862C33.5036 147.226 33.4476 147.669 33.485 148.192C33.4476 148.659 33.5083 149.074 33.667 149.438C33.835 149.793 34.0776 150.068 34.395 150.264C34.7216 150.46 35.095 150.558 35.515 150.558C35.935 150.558 36.2896 150.469 36.579 150.292C36.8776 150.115 37.111 149.877 37.279 149.578L38.763 150.306C38.6136 150.67 38.3803 150.992 38.063 151.272C37.7456 151.552 37.3676 151.771 36.929 151.93C36.4996 152.089 36.0236 152.168 35.501 152.168ZM40.4612 152V144.384H42.1832V146.078L42.0432 145.826C42.2206 145.257 42.4959 144.86 42.8692 144.636C43.2519 144.412 43.7092 144.3 44.2412 144.3H44.6892V145.924H44.0312C43.5086 145.924 43.0886 146.087 42.7712 146.414C42.4539 146.731 42.2952 147.179 42.2952 147.758V152H40.4612ZM48.0076 152.168C47.4756 152.168 47.0136 152.079 46.6216 151.902C46.2296 151.725 45.9262 151.473 45.7116 151.146C45.4969 150.81 45.3896 150.423 45.3896 149.984C45.3896 149.564 45.4829 149.191 45.6696 148.864C45.8562 148.528 46.1456 148.248 46.5376 148.024C46.9296 147.8 47.4242 147.641 48.0216 147.548L50.5136 147.142V148.542L48.3716 148.906C48.0076 148.971 47.7369 149.088 47.5596 149.256C47.3822 149.424 47.2936 149.643 47.2936 149.914C47.2936 150.175 47.3916 150.385 47.5876 150.544C47.7929 150.693 48.0449 150.768 48.3436 150.768C48.7262 150.768 49.0622 150.689 49.3516 150.53C49.6502 150.362 49.8789 150.133 50.0376 149.844C50.2056 149.555 50.2896 149.237 50.2896 148.892V146.932C50.2896 146.605 50.1589 146.335 49.8976 146.12C49.6456 145.896 49.3096 145.784 48.8896 145.784C48.4976 145.784 48.1476 145.891 47.8396 146.106C47.5409 146.311 47.3216 146.587 47.1816 146.932L45.6836 146.204C45.8329 145.803 46.0662 145.457 46.3836 145.168C46.7102 144.869 47.0929 144.636 47.5316 144.468C47.9702 144.3 48.4462 144.216 48.9595 144.216C49.5849 144.216 50.1356 144.333 50.6116 144.566C51.0876 144.79 51.4562 145.107 51.7176 145.518C51.9882 145.919 52.1236 146.391 52.1236 146.932V152H50.3876V150.698L50.7796 150.67C50.5836 150.997 50.3502 151.272 50.0796 151.496C49.8089 151.711 49.5009 151.879 49.1556 152C48.8102 152.112 48.4276 152.168 48.0076 152.168ZM57.1539 152.084C56.2953 152.084 55.6279 151.851 55.1519 151.384C54.6853 150.908 54.4519 150.241 54.4519 149.382V146.022H53.1359V144.384H53.2759C53.6493 144.384 53.9386 144.286 54.1439 144.09C54.3493 143.894 54.4519 143.609 54.4519 143.236V142.648H56.2859V144.384H58.0359V146.022H56.2859V149.284C56.2859 149.536 56.3279 149.751 56.4119 149.928C56.5053 150.105 56.6453 150.241 56.8319 150.334C57.0279 150.427 57.2753 150.474 57.5739 150.474C57.6393 150.474 57.7139 150.469 57.7979 150.46C57.8913 150.451 57.9799 150.441 58.0639 150.432V152C57.9333 152.019 57.7839 152.037 57.6159 152.056C57.4479 152.075 57.2939 152.084 57.1539 152.084ZM63.0088 152.168C62.2248 152.168 61.5388 151.991 60.9508 151.636C60.3628 151.281 59.9054 150.801 59.5788 150.194C59.2521 149.587 59.0888 148.915 59.0888 148.178C59.0888 147.413 59.2521 146.736 59.5788 146.148C59.9148 145.551 60.3674 145.079 60.9368 144.734C61.5154 144.389 62.1594 144.216 62.8688 144.216C63.4661 144.216 63.9888 144.314 64.4368 144.51C64.8941 144.706 65.2814 144.977 65.5988 145.322C65.9161 145.667 66.1588 146.064 66.3268 146.512C66.4948 146.951 66.5788 147.427 66.5788 147.94C66.5788 148.071 66.5694 148.206 66.5508 148.346C66.5414 148.486 66.5181 148.607 66.4808 148.71H60.6008V147.31H65.4448L64.5768 147.968C64.6608 147.539 64.6374 147.156 64.5068 146.82C64.3854 146.484 64.1801 146.218 63.8908 146.022C63.6108 145.826 63.2701 145.728 62.8688 145.728C62.4861 145.728 62.1454 145.826 61.8468 146.022C61.5481 146.209 61.3194 146.489 61.1608 146.862C61.0114 147.226 60.9554 147.669 60.9928 148.192C60.9554 148.659 61.0161 149.074 61.1748 149.438C61.3428 149.793 61.5854 150.068 61.9028 150.264C62.2294 150.46 62.6028 150.558 63.0228 150.558C63.4428 150.558 63.7974 150.469 64.0868 150.292C64.3854 150.115 64.6188 149.877 64.7868 149.578L66.2708 150.306C66.1214 150.67 65.8881 150.992 65.5708 151.272C65.2534 151.552 64.8754 151.771 64.4368 151.93C64.0074 152.089 63.5314 152.168 63.0088 152.168Z" fill="#2E168D"/>
<path d="M1.00781 200V189.57H2.82781L6.73381 194.876H5.86581L9.68781 189.57H11.5078V200H9.58981V191.74L10.3318 191.922L6.36981 197.2H6.14581L2.28181 191.922L2.91181 191.74V200H1.00781ZM13.3499 200V192.384H15.1839V200H13.3499ZM13.3499 191.53V189.57H15.1839V191.53H13.3499ZM16.8772 200V189.402H18.7112V200H16.8772ZM23.9466 200.168C23.2092 200.168 22.5512 199.995 21.9726 199.65C21.3939 199.295 20.9366 198.815 20.6006 198.208C20.2646 197.601 20.0966 196.929 20.0966 196.192C20.0966 195.445 20.2646 194.773 20.6006 194.176C20.9366 193.579 21.3939 193.103 21.9726 192.748C22.5606 192.393 23.2139 192.216 23.9326 192.216C24.5112 192.216 25.0246 192.333 25.4726 192.566C25.9299 192.79 26.2892 193.107 26.5506 193.518L26.2706 193.896V189.402H28.1046V200H26.3686V198.53L26.5646 198.894C26.3032 199.305 25.9392 199.622 25.4726 199.846C25.0059 200.061 24.4972 200.168 23.9466 200.168ZM24.1426 198.488C24.5626 198.488 24.9312 198.39 25.2486 198.194C25.5659 197.998 25.8132 197.727 25.9906 197.382C26.1772 197.037 26.2706 196.64 26.2706 196.192C26.2706 195.753 26.1772 195.361 25.9906 195.016C25.8132 194.661 25.5659 194.386 25.2486 194.19C24.9312 193.994 24.5626 193.896 24.1426 193.896C23.7319 193.896 23.3632 193.999 23.0366 194.204C22.7099 194.4 22.4532 194.671 22.2666 195.016C22.0892 195.352 22.0006 195.744 22.0006 196.192C22.0006 196.64 22.0892 197.037 22.2666 197.382C22.4532 197.727 22.7099 197.998 23.0366 198.194C23.3632 198.39 23.7319 198.488 24.1426 198.488Z" fill="#2E168D"/>
<path d="M100.682 21.0001V16.3801L97.168 10.5701H99.338L102.026 15.1061H101.256L103.93 10.5701H106.1L102.6 16.3661V21.0001H100.682ZM109.549 21.1681C108.802 21.1681 108.121 20.9954 107.505 20.6501C106.898 20.3048 106.413 19.8334 106.049 19.2361C105.694 18.6388 105.517 17.9574 105.517 17.1921C105.517 16.4268 105.694 15.7454 106.049 15.1481C106.413 14.5508 106.898 14.0794 107.505 13.7341C108.111 13.3888 108.793 13.2161 109.549 13.2161C110.295 13.2161 110.972 13.3888 111.579 13.7341C112.185 14.0794 112.666 14.5508 113.021 15.1481C113.385 15.7361 113.567 16.4174 113.567 17.1921C113.567 17.9574 113.385 18.6388 113.021 19.2361C112.657 19.8334 112.171 20.3048 111.565 20.6501C110.958 20.9954 110.286 21.1681 109.549 21.1681ZM109.549 19.4881C109.959 19.4881 110.319 19.3901 110.627 19.1941C110.944 18.9981 111.191 18.7274 111.369 18.3821C111.555 18.0274 111.649 17.6308 111.649 17.1921C111.649 16.7441 111.555 16.3521 111.369 16.0161C111.191 15.6708 110.944 15.4001 110.627 15.2041C110.319 14.9988 109.959 14.8961 109.549 14.8961C109.129 14.8961 108.76 14.9988 108.443 15.2041C108.125 15.4001 107.873 15.6708 107.687 16.0161C107.509 16.3521 107.421 16.7441 107.421 17.1921C107.421 17.6308 107.509 18.0274 107.687 18.3821C107.873 18.7274 108.125 18.9981 108.443 19.1941C108.76 19.3901 109.129 19.4881 109.549 19.4881ZM117.674 21.1681C117.086 21.1681 116.572 21.0374 116.134 20.7761C115.704 20.5148 115.373 20.1508 115.14 19.6841C114.916 19.2174 114.804 18.6714 114.804 18.0461V13.3841H116.638V17.8921C116.638 18.2094 116.698 18.4894 116.82 18.7321C116.95 18.9654 117.132 19.1521 117.366 19.2921C117.608 19.4228 117.879 19.4881 118.178 19.4881C118.476 19.4881 118.742 19.4228 118.976 19.2921C119.209 19.1521 119.391 18.9608 119.522 18.7181C119.652 18.4754 119.718 18.1861 119.718 17.8501V13.3841H121.552V21.0001H119.816V19.5021L119.97 19.7681C119.792 20.2348 119.498 20.5848 119.088 20.8181C118.686 21.0514 118.215 21.1681 117.674 21.1681ZM128.055 21.1681C127.523 21.1681 127.061 21.0794 126.669 20.9021C126.277 20.7248 125.973 20.4728 125.759 20.1461C125.544 19.8101 125.437 19.4228 125.437 18.9841C125.437 18.5641 125.53 18.1908 125.717 17.8641C125.903 17.5281 126.193 17.2481 126.585 17.0241C126.977 16.8001 127.471 16.6414 128.069 16.5481L130.561 16.1421V17.5421L128.419 17.9061C128.055 17.9714 127.784 18.0881 127.607 18.2561C127.429 18.4241 127.341 18.6434 127.341 18.9141C127.341 19.1754 127.439 19.3854 127.635 19.5441C127.84 19.6934 128.092 19.7681 128.391 19.7681C128.773 19.7681 129.109 19.6888 129.399 19.5301C129.697 19.3621 129.926 19.1334 130.085 18.8441C130.253 18.5548 130.337 18.2374 130.337 17.8921V15.9321C130.337 15.6054 130.206 15.3348 129.945 15.1201C129.693 14.8961 129.357 14.7841 128.937 14.7841C128.545 14.7841 128.195 14.8914 127.887 15.1061C127.588 15.3114 127.369 15.5868 127.229 15.9321L125.731 15.2041C125.88 14.8028 126.113 14.4574 126.431 14.1681C126.757 13.8694 127.14 13.6361 127.579 13.4681C128.017 13.3001 128.493 13.2161 129.007 13.2161C129.632 13.2161 130.183 13.3328 130.659 13.5661C131.135 13.7901 131.503 14.1074 131.765 14.5181C132.035 14.9194 132.171 15.3908 132.171 15.9321V21.0001H130.435V19.6981L130.827 19.6701C130.631 19.9968 130.397 20.2721 130.127 20.4961C129.856 20.7108 129.548 20.8788 129.203 21.0001C128.857 21.1121 128.475 21.1681 128.055 21.1681ZM133.866 21.0001V13.3841H135.588V15.0781L135.448 14.8261C135.625 14.2568 135.9 13.8601 136.274 13.6361C136.656 13.4121 137.114 13.3001 137.646 13.3001H138.094V14.9241H137.436C136.913 14.9241 136.493 15.0874 136.176 15.4141C135.858 15.7314 135.7 16.1794 135.7 16.7581V21.0001H133.866ZM142.714 21.1681C141.93 21.1681 141.244 20.9908 140.656 20.6361C140.068 20.2814 139.611 19.8008 139.284 19.1941C138.957 18.5874 138.794 17.9154 138.794 17.1781C138.794 16.4128 138.957 15.7361 139.284 15.1481C139.62 14.5508 140.073 14.0794 140.642 13.7341C141.221 13.3888 141.865 13.2161 142.574 13.2161C143.171 13.2161 143.694 13.3141 144.142 13.5101C144.599 13.7061 144.987 13.9768 145.304 14.3221C145.621 14.6674 145.864 15.0641 146.032 15.5121C146.2 15.9508 146.284 16.4268 146.284 16.9401C146.284 17.0708 146.275 17.2061 146.256 17.3461C146.247 17.4861 146.223 17.6074 146.186 17.7101H140.306V16.3101H145.15L144.282 16.9681C144.366 16.5388 144.343 16.1561 144.212 15.8201C144.091 15.4841 143.885 15.2181 143.596 15.0221C143.316 14.8261 142.975 14.7281 142.574 14.7281C142.191 14.7281 141.851 14.8261 141.552 15.0221C141.253 15.2088 141.025 15.4888 140.866 15.8621C140.717 16.2261 140.661 16.6694 140.698 17.1921C140.661 17.6588 140.721 18.0741 140.88 18.4381C141.048 18.7928 141.291 19.0681 141.608 19.2641C141.935 19.4601 142.308 19.5581 142.728 19.5581C143.148 19.5581 143.503 19.4694 143.792 19.2921C144.091 19.1148 144.324 18.8768 144.492 18.5781L145.976 19.3061C145.827 19.6701 145.593 19.9921 145.276 20.2721C144.959 20.5521 144.581 20.7714 144.142 20.9301C143.713 21.0888 143.237 21.1681 142.714 21.1681ZM150.163 21.0001V10.4021H151.997V14.8821L151.745 14.6161C151.922 14.1588 152.211 13.8134 152.613 13.5801C153.023 13.3374 153.499 13.2161 154.041 13.2161C154.601 13.2161 155.095 13.3374 155.525 13.5801C155.963 13.8228 156.304 14.1634 156.547 14.6021C156.789 15.0314 156.911 15.5308 156.911 16.1001V21.0001H155.077V16.5341C155.077 16.1981 155.011 15.9088 154.881 15.6661C154.75 15.4234 154.568 15.2368 154.335 15.1061C154.111 14.9661 153.845 14.8961 153.537 14.8961C153.238 14.8961 152.972 14.9661 152.739 15.1061C152.505 15.2368 152.323 15.4234 152.193 15.6661C152.062 15.9088 151.997 16.1981 151.997 16.5341V21.0001H150.163ZM162.073 21.1681C161.289 21.1681 160.603 20.9908 160.015 20.6361C159.427 20.2814 158.97 19.8008 158.643 19.1941C158.317 18.5874 158.153 17.9154 158.153 17.1781C158.153 16.4128 158.317 15.7361 158.643 15.1481C158.979 14.5508 159.432 14.0794 160.001 13.7341C160.58 13.3888 161.224 13.2161 161.933 13.2161C162.531 13.2161 163.053 13.3141 163.501 13.5101C163.959 13.7061 164.346 13.9768 164.663 14.3221C164.981 14.6674 165.223 15.0641 165.391 15.5121C165.559 15.9508 165.643 16.4268 165.643 16.9401C165.643 17.0708 165.634 17.2061 165.615 17.3461C165.606 17.4861 165.583 17.6074 165.545 17.7101H159.665V16.3101H164.509L163.641 16.9681C163.725 16.5388 163.702 16.1561 163.571 15.8201C163.45 15.4841 163.245 15.2181 162.955 15.0221C162.675 14.8261 162.335 14.7281 161.933 14.7281C161.551 14.7281 161.21 14.8261 160.911 15.0221C160.613 15.2088 160.384 15.4888 160.225 15.8621C160.076 16.2261 160.02 16.6694 160.057 17.1921C160.02 17.6588 160.081 18.0741 160.239 18.4381C160.407 18.7928 160.65 19.0681 160.967 19.2641C161.294 19.4601 161.667 19.5581 162.087 19.5581C162.507 19.5581 162.862 19.4694 163.151 19.2921C163.45 19.1148 163.683 18.8768 163.851 18.5781L165.335 19.3061C165.186 19.6701 164.953 19.9921 164.635 20.2721C164.318 20.5521 163.94 20.7714 163.501 20.9301C163.072 21.0888 162.596 21.1681 162.073 21.1681ZM167.034 21.0001V13.3841H168.756V15.0781L168.616 14.8261C168.793 14.2568 169.068 13.8601 169.442 13.6361C169.824 13.4121 170.282 13.3001 170.814 13.3001H171.262V14.9241H170.604C170.081 14.9241 169.661 15.0874 169.344 15.4141C169.026 15.7314 168.868 16.1794 168.868 16.7581V21.0001H167.034ZM175.882 21.1681C175.098 21.1681 174.412 20.9908 173.824 20.6361C173.236 20.2814 172.779 19.8008 172.452 19.1941C172.125 18.5874 171.962 17.9154 171.962 17.1781C171.962 16.4128 172.125 15.7361 172.452 15.1481C172.788 14.5508 173.241 14.0794 173.81 13.7341C174.389 13.3888 175.033 13.2161 175.742 13.2161C176.339 13.2161 176.862 13.3141 177.31 13.5101C177.767 13.7061 178.155 13.9768 178.472 14.3221C178.789 14.6674 179.032 15.0641 179.2 15.5121C179.368 15.9508 179.452 16.4268 179.452 16.9401C179.452 17.0708 179.443 17.2061 179.424 17.3461C179.415 17.4861 179.391 17.6074 179.354 17.7101H173.474V16.3101H178.318L177.45 16.9681C177.534 16.5388 177.511 16.1561 177.38 15.8201C177.259 15.4841 177.053 15.2181 176.764 15.0221C176.484 14.8261 176.143 14.7281 175.742 14.7281C175.359 14.7281 175.019 14.8261 174.72 15.0221C174.421 15.2088 174.193 15.4888 174.034 15.8621C173.885 16.2261 173.829 16.6694 173.866 17.1921C173.829 17.6588 173.889 18.0741 174.048 18.4381C174.216 18.7928 174.459 19.0681 174.776 19.2641C175.103 19.4601 175.476 19.5581 175.896 19.5581C176.316 19.5581 176.671 19.4694 176.96 19.2921C177.259 19.1148 177.492 18.8768 177.66 18.5781L179.144 19.3061C178.995 19.6701 178.761 19.9921 178.444 20.2721C178.127 20.5521 177.749 20.7714 177.31 20.9301C176.881 21.0888 176.405 21.1681 175.882 21.1681Z" fill="white"/>
</svg>
