<svg width="107" height="20" viewBox="0 0 107 20" fill="none" xmlns="http://www.w3.org/2000/svg">
<g clip-path="url(#clip0_287_5396)">
<path d="M0.0185547 20.1435H19.7813V0H0.0185547V20.1435Z" fill="#00B67A"/>
<path d="M16.8659 8.57027L5.65672 16.8699L7.29237 11.7404L3.01074 8.57027H8.30304L9.93835 3.44043L11.5736 8.57027H16.8659ZM9.93875 13.7001L13 13.0438L14.2197 16.8699L9.93875 13.7001Z" fill="white"/>
<path d="M21.8579 20.1435H41.6207V0H21.8579V20.1435Z" fill="#00B67A"/>
<path d="M21.8579 20.1435H31.7393V0H21.8579V20.1435Z" fill="#00B67A"/>
<path d="M31.976 13.6215L34.601 13.0432L35.8152 16.9563L31.6985 13.8246L27.4213 16.9563L29.0814 11.8082L24.7354 8.62649H30.1072L31.7666 3.47803L33.4267 8.62649H38.7982L31.976 13.6215Z" fill="white"/>
<path d="M43.7124 20.1435H63.4752V0H43.7124V20.1435Z" fill="#00B67A"/>
<path d="M43.7124 20.1435H53.5938V0H43.7124V20.1435Z" fill="#00B67A"/>
<path d="M60.5598 8.57027L49.3506 16.8699L50.9862 11.7404L46.7046 8.57027H51.9969L53.6322 3.44043L55.2675 8.57027L60.5598 8.57027ZM53.6326 13.7001L56.6939 13.0438L57.9135 16.8699L53.6326 13.7001Z" fill="white"/>
<path d="M65.5664 20.1435H85.3292V0H65.5664V20.1435Z" fill="#00B67A"/>
<path d="M65.5664 20.1435H75.4478V0H65.5664V20.1435Z" fill="#00B67A"/>
<path d="M82.4133 8.57027L71.2044 16.8699L72.8397 11.7404L68.5581 8.57027H73.8504L75.4857 3.44043L77.121 8.57027L82.4133 8.57027ZM75.4861 13.7001L78.5474 13.0438L79.7671 16.8699L75.4861 13.7001Z" fill="white"/>
<path d="M87.4062 20.1435H107.169V0H87.4062V20.1435Z" fill="#00B67A"/>
<path d="M87.4062 20.1435H97.2876V0H87.4062V20.1435Z" fill="#00B67A"/>
<path d="M104.253 8.57027L93.0443 16.8699L94.6796 11.7404L90.3979 8.57027H95.6902L97.3255 3.44043L98.9608 8.57027H104.253ZM97.326 13.7001L100.387 13.0438L101.607 16.8699L97.326 13.7001Z" fill="white"/>
</g>
<defs>
<clipPath id="clip0_287_5396">
<rect width="107" height="20" fill="white"/>
</clipPath>
</defs>
</svg>
