<svg width="15" height="9" viewBox="0 0 15 9" fill="none" xmlns="http://www.w3.org/2000/svg">
<path d="M7.78125 8.52344C7.97656 8.52344 8.17188 8.44531 8.30469 8.29688L14.3516 2.10156C14.4844 1.96875 14.5625 1.79688 14.5625 1.60156C14.5625 1.19531 14.2578 0.882812 13.8516 0.882812C13.6562 0.882812 13.4766 0.960938 13.3438 1.08594L7.78125 6.77344L2.21094 1.08594C2.08594 0.960938 1.90625 0.882812 1.70312 0.882812C1.29688 0.882812 0.992188 1.19531 0.992188 1.60156C0.992188 1.79688 1.07031 1.96875 1.20312 2.10938L7.25 8.29688C7.39844 8.44531 7.57812 8.52344 7.78125 8.52344Z" fill="#9CABB5"/>
</svg>
