<svg width="390" height="339" viewBox="0 0 390 339" fill="none" xmlns="http://www.w3.org/2000/svg">
<g clip-path="url(#clip0_170_2254)">
<rect width="390" height="353" fill="#253139"/>
<path fill-rule="evenodd" clip-rule="evenodd" d="M523 161V389.576H-7V224.74C185.814 265.368 358.064 243.102 523 161Z" fill="#60C169"/>
<path fill-rule="evenodd" clip-rule="evenodd" d="M32.0013 260.856C37.7253 260.856 42.2833 262.545 42.2833 264.55C42.2833 266.66 37.7253 268.243 32.0013 268.243C26.2773 268.243 21.6133 266.555 21.6133 264.55C21.6133 262.545 26.2773 260.856 32.0013 260.856Z" fill="#429955"/>
<path fill-rule="evenodd" clip-rule="evenodd" d="M361.202 275.26C367.46 275.26 372.521 273.802 372.521 271.946C372.521 270.156 367.46 268.632 361.202 268.632C354.943 268.632 349.883 270.09 349.883 271.946C349.883 273.802 355.01 275.26 361.202 275.26Z" fill="#854F2D"/>
<path fill-rule="evenodd" clip-rule="evenodd" d="M371.993 273.006C370.462 274.332 366.201 275.26 361.273 275.26C356.613 275.26 352.618 274.465 350.887 273.271C352.418 272.012 356.679 271.084 361.606 271.084C366.267 271.084 370.195 271.879 371.993 273.006Z" fill="#593621"/>
<path fill-rule="evenodd" clip-rule="evenodd" d="M346.887 136.794C342.826 136.927 331.641 137.921 330.109 144.35C328.179 152.238 329.244 158.071 322.852 161.385C316.461 164.633 312 161.915 312 161.915C312 161.915 317.193 173.449 327.912 172.72C338.632 172.057 336.701 161.518 341.028 158.999C343.891 157.275 346.954 157.275 348.685 157.541L346.887 136.794Z" fill="#FFC803"/>
<path fill-rule="evenodd" clip-rule="evenodd" d="M330.181 144.085C330.181 144.218 330.115 144.284 330.115 144.35C328.184 152.238 329.249 158.071 322.858 161.385C320.86 162.379 319.129 162.843 317.531 162.976C317.598 163.175 317.731 163.44 317.798 163.639C320.86 170.002 327.784 171.394 332.378 171.593C334.842 170.267 336.107 168.08 337.039 165.892C333.777 160.59 331.047 148.062 330.181 144.085ZM346.893 136.794C346.293 136.794 345.428 136.86 344.562 136.927L346.227 157.342C347.159 157.275 348.024 157.342 348.69 157.408L346.893 136.794Z" fill="#E8B606"/>
<path d="M346.821 135.866C346.754 134.872 347.486 134.076 348.419 134.01C349.351 133.944 350.216 134.607 350.283 135.601L362.134 275.26C361.801 275.26 361.535 275.26 361.202 275.26C360.336 275.26 359.471 275.26 358.605 275.194L346.821 135.866Z" fill="#D9E1E8"/>
<path fill-rule="evenodd" clip-rule="evenodd" d="M26.7438 267.428C30.4707 267.428 33.4877 264.424 33.4877 260.714C33.4877 257.004 30.4707 254 26.7438 254C23.017 254 20 257.004 20 260.714C20 264.424 23.017 267.428 26.7438 267.428Z" fill="#D3D3D3"/>
<path fill-rule="evenodd" clip-rule="evenodd" d="M26.7438 254C27.5425 254 28.2523 254.177 28.9622 254.353C29.9383 255.502 30.4707 257.004 30.4707 258.505C30.4707 262.216 27.4537 265.219 23.7269 265.219C22.9283 265.219 22.2184 265.043 21.5085 264.866C20.5324 263.717 20 262.216 20 260.626C20 257.004 23.017 254 26.7438 254Z" fill="white"/>
</g>
<defs>
<clipPath id="clip0_170_2254">
<rect width="390" height="339" fill="white"/>
</clipPath>
</defs>
</svg>
