<svg width="20" height="20" viewBox="0 0 20 20" fill="none" xmlns="http://www.w3.org/2000/svg">
<g clip-path="url(#clip0_38_506)">
<path d="M3.1875 17.6641C3.63281 17.6641 4 17.3047 4 16.8438V12.625C4.22656 12.5469 4.84375 12.3438 5.74219 12.3438C8.55469 12.3438 10.5156 13.7656 13.2734 13.7656C14.4609 13.7656 15.0703 13.6016 15.6875 13.3203C16.2578 13.0547 16.5703 12.5781 16.5703 11.8438V4.14844C16.5703 3.57812 16.1562 3.21094 15.5703 3.21094C15.0938 3.21094 14.3984 3.49219 13.2031 3.49219C10.5078 3.49219 8.48438 2.0625 5.67188 2.0625C4.50781 2.0625 3.92969 2.21875 3.27344 2.51562C2.71094 2.77344 2.375 3.17969 2.375 3.89062V16.8438C2.375 17.2969 2.74219 17.6641 3.1875 17.6641Z" fill="#49BB54"/>
</g>
<defs>
<clipPath id="clip0_38_506">
<rect width="20" height="20" fill="white"/>
</clipPath>
</defs>
</svg>
