<svg width="21" height="23" viewBox="0 0 21 23" fill="none" xmlns="http://www.w3.org/2000/svg">
<circle cx="8" cy="15" r="7.5" stroke="#D9E1E8"/>
<path d="M5 15H11" stroke="#D9E1E8" stroke-width="1.5" stroke-linecap="round"/>
<rect x="4" width="17" height="10" rx="2" fill="#FFC803"/>
<path d="M6.46875 2.36328H8.76172C9.34245 2.36328 9.8125 2.54036 10.1719 2.89453C10.5339 3.2487 10.7148 3.71484 10.7148 4.29297C10.7148 4.86849 10.5286 5.33464 10.1562 5.69141C9.78385 6.04557 9.29948 6.22266 8.70312 6.22266H7.64844V8H6.46875V2.36328ZM7.64844 3.29688V5.30078H8.44531C8.78385 5.30078 9.04688 5.21354 9.23438 5.03906C9.42188 4.86458 9.51562 4.61719 9.51562 4.29688C9.51562 3.97656 9.42188 3.73047 9.23438 3.55859C9.04948 3.38411 8.78776 3.29688 8.44922 3.29688H7.64844ZM11.3164 8V3.8125H12.418V4.56641H12.4414C12.5143 4.30078 12.6367 4.09766 12.8086 3.95703C12.9805 3.81641 13.1901 3.74609 13.4375 3.74609C13.5573 3.74609 13.6654 3.76042 13.7617 3.78906V4.79297C13.6549 4.7487 13.5169 4.72656 13.3477 4.72656C13.0664 4.72656 12.8477 4.80859 12.6914 4.97266C12.5352 5.13672 12.457 5.36589 12.457 5.66016V8H11.3164ZM17.5273 7.51172C17.1549 7.89714 16.6497 8.08984 16.0117 8.08984C15.3737 8.08984 14.8685 7.89583 14.4961 7.50781C14.1237 7.11979 13.9375 6.58464 13.9375 5.90234C13.9375 5.22786 14.125 4.69661 14.5 4.30859C14.8776 3.91797 15.3815 3.72266 16.0117 3.72266C16.6445 3.72266 17.1484 3.91797 17.5234 4.30859C17.8984 4.69661 18.0859 5.22786 18.0859 5.90234C18.0859 6.58724 17.8997 7.1237 17.5273 7.51172ZM16.0117 7.21875C16.293 7.21875 16.5156 7.10417 16.6797 6.875C16.8438 6.64583 16.9258 6.32292 16.9258 5.90625C16.9258 5.49479 16.8438 5.17318 16.6797 4.94141C16.5156 4.70964 16.293 4.59375 16.0117 4.59375C15.7305 4.59375 15.5065 4.70964 15.3398 4.94141C15.1758 5.17318 15.0938 5.49479 15.0938 5.90625C15.0938 6.32292 15.1758 6.64583 15.3398 6.875C15.5039 7.10417 15.7279 7.21875 16.0117 7.21875Z" fill="#2B2B2B"/>
</svg>
