<svg width="24" height="24" viewBox="0 0 24 24" fill="none" xmlns="http://www.w3.org/2000/svg">
<path fill-rule="evenodd" clip-rule="evenodd" d="M0 12C0 8.8174 1.26428 5.76516 3.51472 3.51472C5.76516 1.26428 8.8174 0 12 0C15.1826 0 18.2348 1.26428 20.4853 3.51472C22.7357 5.76516 24 8.8174 24 12C24 15.1826 22.7357 18.2348 20.4853 20.4853C18.2348 22.7357 15.1826 24 12 24C8.8174 24 5.76516 22.7357 3.51472 20.4853C1.26428 18.2348 0 15.1826 0 12ZM12 1.72127C9.27391 1.72127 6.65948 2.80421 4.73184 4.73184C2.80421 6.65948 1.72127 9.27391 1.72127 12C1.72127 14.7261 2.80421 17.3405 4.73184 19.2682C6.65948 21.1958 9.27391 22.2787 12 22.2787C14.7261 22.2787 17.3405 21.1958 19.2682 19.2682C21.1958 17.3405 22.2787 14.7261 22.2787 12C22.2787 9.27391 21.1958 6.65948 19.2682 4.73184C17.3405 2.80421 14.7261 1.72127 12 1.72127ZM16.2651 7.73668C16.435 7.90656 16.5304 8.13695 16.5304 8.37717C16.5304 8.61739 16.435 8.84778 16.2651 9.01767L13.281 12L16.2651 14.9823C16.4352 15.1524 16.5308 15.3832 16.5308 15.6237C16.5308 15.8643 16.4352 16.095 16.2651 16.2651C16.095 16.4352 15.8643 16.5308 15.6237 16.5308C15.3832 16.5308 15.1524 16.4352 14.9823 16.2651L12 13.281L9.01767 16.2651C8.93344 16.3494 8.83344 16.4162 8.72339 16.4618C8.61334 16.5074 8.49538 16.5308 8.37626 16.5308C8.25715 16.5308 8.13919 16.5074 8.02914 16.4618C7.91909 16.4162 7.81909 16.3494 7.73486 16.2651C7.65063 16.1809 7.58382 16.0809 7.53823 15.9709C7.49265 15.8608 7.46919 15.7429 7.46919 15.6237C7.46919 15.5046 7.49265 15.3867 7.53823 15.2766C7.58382 15.1666 7.65063 15.0666 7.73486 14.9823L10.719 12L7.73486 9.01767C7.56475 8.84756 7.46919 8.61684 7.46919 8.37626C7.46919 8.13569 7.56475 7.90497 7.73486 7.73486C7.90497 7.56475 8.13569 7.46919 8.37626 7.46919C8.61684 7.46919 8.84756 7.56475 9.01767 7.73486L12 10.719L14.9823 7.73486C15.0665 7.6505 15.1665 7.58356 15.2765 7.53789C15.3866 7.49222 15.5046 7.46871 15.6237 7.46871C15.7429 7.46871 15.8609 7.49222 15.9709 7.53789C16.081 7.58356 16.181 7.65231 16.2651 7.73668Z" fill="white"/>
</svg>
