<svg width="22" height="22" viewBox="0 0 22 22" fill="none" xmlns="http://www.w3.org/2000/svg">
<path d="M11 0C8.82441 0 6.69767 0.645139 4.88873 1.85383C3.07979 3.06253 1.66989 4.7805 0.83733 6.79048C0.00476631 8.80047 -0.213071 11.0122 0.211367 13.146C0.635805 15.2798 1.68345 17.2398 3.22183 18.7782C4.7602 20.3165 6.72022 21.3642 8.85401 21.7886C10.9878 22.213 13.1995 21.9952 15.2095 21.1627C17.2195 20.3301 18.9375 18.9202 20.1461 17.1112C21.3549 15.3024 22 13.1756 22 11C21.9966 8.08366 20.8366 5.28774 18.7744 3.22558C16.7123 1.16342 13.9164 0.00339645 11 0ZM17.3498 7.51667L11.0752 16.0316C11.0011 16.1299 10.9082 16.2124 10.8018 16.2744C10.6955 16.3364 10.5779 16.3766 10.4559 16.3927C10.3339 16.4087 10.2098 16.4003 10.0911 16.3678C9.97242 16.3355 9.86132 16.2797 9.76433 16.2039L5.28368 12.6216C5.18965 12.5463 5.11138 12.4534 5.05331 12.3479C4.99525 12.2424 4.95853 12.1265 4.94524 12.0068C4.91843 11.765 4.98872 11.5226 5.14068 11.3328C5.29262 11.1429 5.51377 11.0212 5.75548 10.9943C5.87515 10.981 5.99627 10.9915 6.11192 11.025C6.22758 11.0586 6.33549 11.1145 6.42951 11.1897L10.1658 14.179L15.8739 6.43225C15.9427 6.32913 16.0316 6.24101 16.1353 6.17323C16.239 6.10544 16.3554 6.0594 16.4775 6.03786C16.5995 6.01633 16.7246 6.01977 16.8453 6.04796C16.9659 6.07615 17.0796 6.12851 17.1795 6.20189C17.2794 6.27526 17.3633 6.36813 17.4263 6.47486C17.4893 6.58159 17.5299 6.69998 17.5458 6.82287C17.5617 6.94576 17.5525 7.07061 17.5189 7.18985C17.4851 7.3091 17.4277 7.42028 17.3498 7.51667Z" fill="#00A3FA"/>
</svg>
