<svg width="255" height="102" viewBox="0 0 255 102" fill="none" xmlns="http://www.w3.org/2000/svg">
<g filter="url(#filter0_d_150_777)">
<path d="M233 19C233 15.134 229.866 12 226 12H37.3893C34.7051 12 32.2573 13.5349 31.0882 15.9511L19.4753 39.9511C18.5434 41.8769 18.5434 44.1231 19.4753 46.0489L31.0882 70.0489C32.2573 72.4651 34.7051 74 37.3893 74H226C229.866 74 233 70.866 233 67V43V19Z" fill="white"/>
</g>
<path d="M48.2139 36.4365C48.2139 35.999 48.0589 35.6618 47.749 35.4248C47.4437 35.1878 46.89 34.9486 46.0879 34.707C45.2858 34.4655 44.6478 34.1966 44.1738 33.9004C43.2669 33.3307 42.8135 32.5879 42.8135 31.6719C42.8135 30.8698 43.1393 30.209 43.791 29.6895C44.4473 29.1699 45.2972 28.9102 46.3408 28.9102C47.0335 28.9102 47.651 29.0378 48.1934 29.293C48.7357 29.5482 49.1618 29.9128 49.4717 30.3867C49.7816 30.8561 49.9365 31.3779 49.9365 31.9521H48.2139C48.2139 31.4326 48.0498 31.027 47.7217 30.7354C47.3981 30.4391 46.9333 30.291 46.3271 30.291C45.762 30.291 45.3223 30.4118 45.0078 30.6533C44.6979 30.8949 44.543 31.2321 44.543 31.665C44.543 32.0296 44.7116 32.335 45.0488 32.5811C45.3861 32.8226 45.9421 33.0596 46.7168 33.292C47.4915 33.5199 48.1136 33.7819 48.583 34.0781C49.0524 34.3698 49.3965 34.707 49.6152 35.0898C49.834 35.4681 49.9434 35.9124 49.9434 36.4229C49.9434 37.2523 49.6243 37.9131 48.9863 38.4053C48.3529 38.8929 47.4915 39.1367 46.4023 39.1367C45.6823 39.1367 45.0192 39.0046 44.4131 38.7402C43.8115 38.4714 43.3421 38.1022 43.0049 37.6328C42.6722 37.1634 42.5059 36.6165 42.5059 35.9922H44.2354C44.2354 36.5573 44.4222 36.9948 44.7959 37.3047C45.1696 37.6146 45.7051 37.7695 46.4023 37.7695C47.0039 37.7695 47.4551 37.6488 47.7559 37.4072C48.0612 37.1611 48.2139 36.8376 48.2139 36.4365ZM54.5576 39.1367C53.5049 39.1367 52.6504 38.8063 51.9941 38.1455C51.3424 37.4801 51.0166 36.596 51.0166 35.4932V35.2881C51.0166 34.5498 51.1579 33.8913 51.4404 33.3125C51.7275 32.7292 52.1286 32.2757 52.6436 31.9521C53.1585 31.6286 53.7327 31.4668 54.3662 31.4668C55.3734 31.4668 56.1504 31.7881 56.6973 32.4307C57.2487 33.0732 57.5244 33.9824 57.5244 35.1582V35.8281H52.6914C52.7415 36.4388 52.9443 36.9219 53.2998 37.2773C53.6598 37.6328 54.111 37.8105 54.6533 37.8105C55.4144 37.8105 56.0342 37.5029 56.5127 36.8877L57.4082 37.7422C57.112 38.1842 56.7155 38.5283 56.2188 38.7744C55.7266 39.016 55.1729 39.1367 54.5576 39.1367ZM54.3594 32.7998C53.9036 32.7998 53.5345 32.9593 53.252 33.2783C52.974 33.5973 52.7962 34.0417 52.7188 34.6113H55.8838V34.4883C55.8473 33.9323 55.6992 33.513 55.4395 33.2305C55.1797 32.9434 54.8197 32.7998 54.3594 32.7998ZM60.3613 31.6035L60.4092 32.458C60.9561 31.7972 61.6738 31.4668 62.5625 31.4668C64.1029 31.4668 64.8867 32.3486 64.9141 34.1123V39H63.2529V34.208C63.2529 33.7386 63.1504 33.3923 62.9453 33.1689C62.7448 32.9411 62.4144 32.8271 61.9541 32.8271C61.2842 32.8271 60.7852 33.1302 60.457 33.7363V39H58.7959V31.6035H60.3613ZM66.3018 35.2471C66.3018 34.1077 66.5661 33.194 67.0947 32.5059C67.6234 31.8132 68.332 31.4668 69.2207 31.4668C70.0046 31.4668 70.638 31.7402 71.1211 32.2871V28.5H72.7822V39H71.2783L71.1963 38.2344C70.6995 38.8359 70.0365 39.1367 69.207 39.1367C68.3411 39.1367 67.6393 38.7881 67.1016 38.0908C66.5684 37.3936 66.3018 36.4456 66.3018 35.2471ZM67.9629 35.3906C67.9629 36.1426 68.1064 36.7305 68.3936 37.1543C68.6852 37.5736 69.0977 37.7832 69.6309 37.7832C70.3099 37.7832 70.8066 37.4801 71.1211 36.874V33.7158C70.8158 33.1234 70.3236 32.8271 69.6445 32.8271C69.1068 32.8271 68.6921 33.0413 68.4004 33.4697C68.1087 33.8936 67.9629 34.5339 67.9629 35.3906ZM82.4209 39C82.348 38.8587 82.2842 38.6286 82.2295 38.3096C81.7008 38.861 81.0537 39.1367 80.2881 39.1367C79.5452 39.1367 78.9391 38.9248 78.4697 38.501C78.0003 38.0771 77.7656 37.5531 77.7656 36.9287C77.7656 36.1403 78.0573 35.5365 78.6406 35.1172C79.2285 34.6934 80.0671 34.4814 81.1562 34.4814H82.1748V33.9961C82.1748 33.6133 82.0677 33.3079 81.8535 33.0801C81.6393 32.8477 81.3135 32.7314 80.876 32.7314C80.4977 32.7314 80.1878 32.8271 79.9463 33.0186C79.7048 33.2054 79.584 33.4447 79.584 33.7363H77.9229C77.9229 33.3307 78.0573 32.9525 78.3262 32.6016C78.5951 32.2461 78.9596 31.9681 79.4199 31.7676C79.8848 31.5671 80.402 31.4668 80.9717 31.4668C81.8376 31.4668 82.528 31.6855 83.043 32.123C83.5579 32.556 83.8223 33.1667 83.8359 33.9551V37.291C83.8359 37.9564 83.9294 38.4873 84.1162 38.8838V39H82.4209ZM80.5957 37.8037C80.9238 37.8037 81.2314 37.724 81.5186 37.5645C81.8102 37.4049 82.029 37.1908 82.1748 36.9219V35.5273H81.2793C80.6641 35.5273 80.2015 35.6344 79.8916 35.8486C79.5817 36.0628 79.4268 36.3659 79.4268 36.7578C79.4268 37.0768 79.5316 37.332 79.7412 37.5234C79.9554 37.7103 80.2402 37.8037 80.5957 37.8037ZM88.751 35.2471C88.751 34.1077 89.0153 33.194 89.5439 32.5059C90.0726 31.8132 90.7812 31.4668 91.6699 31.4668C92.4538 31.4668 93.0872 31.7402 93.5703 32.2871V28.5H95.2314V39H93.7275L93.6455 38.2344C93.1488 38.8359 92.4857 39.1367 91.6562 39.1367C90.7904 39.1367 90.0885 38.7881 89.5508 38.0908C89.0176 37.3936 88.751 36.4456 88.751 35.2471ZM90.4121 35.3906C90.4121 36.1426 90.5557 36.7305 90.8428 37.1543C91.1344 37.5736 91.5469 37.7832 92.0801 37.7832C92.7591 37.7832 93.2559 37.4801 93.5703 36.874V33.7158C93.265 33.1234 92.7728 32.8271 92.0938 32.8271C91.556 32.8271 91.1413 33.0413 90.8496 33.4697C90.5579 33.8936 90.4121 34.5339 90.4121 35.3906ZM96.6533 35.2334C96.6533 34.5088 96.7969 33.8571 97.084 33.2783C97.3711 32.695 97.7744 32.2484 98.2939 31.9385C98.8135 31.624 99.4105 31.4668 100.085 31.4668C101.083 31.4668 101.892 31.7881 102.512 32.4307C103.136 33.0732 103.473 33.9255 103.523 34.9873L103.53 35.377C103.53 36.1061 103.389 36.7578 103.106 37.332C102.828 37.9062 102.427 38.3506 101.903 38.665C101.384 38.9795 100.782 39.1367 100.099 39.1367C99.055 39.1367 98.2188 38.7904 97.5898 38.0977C96.9655 37.4004 96.6533 36.473 96.6533 35.3154V35.2334ZM98.3145 35.377C98.3145 36.138 98.4717 36.735 98.7861 37.168C99.1006 37.5964 99.5381 37.8105 100.099 37.8105C100.659 37.8105 101.094 37.5918 101.404 37.1543C101.719 36.7168 101.876 36.0765 101.876 35.2334C101.876 34.486 101.714 33.8936 101.391 33.4561C101.072 33.0186 100.636 32.7998 100.085 32.7998C99.5426 32.7998 99.112 33.0163 98.793 33.4492C98.474 33.8776 98.3145 34.5202 98.3145 35.377ZM107.974 37.8105C108.388 37.8105 108.732 37.6898 109.006 37.4482C109.279 37.2067 109.425 36.9082 109.443 36.5527H111.009C110.991 37.013 110.847 37.4437 110.578 37.8447C110.309 38.2412 109.945 38.5557 109.484 38.7881C109.024 39.0205 108.527 39.1367 107.994 39.1367C106.96 39.1367 106.139 38.8018 105.533 38.1318C104.927 37.4619 104.624 36.5368 104.624 35.3564V35.1855C104.624 34.0599 104.925 33.1598 105.526 32.4854C106.128 31.8063 106.948 31.4668 107.987 31.4668C108.867 31.4668 109.582 31.7243 110.134 32.2393C110.69 32.7497 110.981 33.4219 111.009 34.2559H109.443C109.425 33.832 109.279 33.4834 109.006 33.21C108.737 32.9365 108.393 32.7998 107.974 32.7998C107.436 32.7998 107.021 32.9958 106.729 33.3877C106.438 33.7751 106.29 34.3652 106.285 35.1582V35.4248C106.285 36.2269 106.429 36.8262 106.716 37.2227C107.007 37.6146 107.427 37.8105 107.974 37.8105ZM116.744 38.2754C116.257 38.8496 115.564 39.1367 114.666 39.1367C113.864 39.1367 113.256 38.902 112.841 38.4326C112.431 37.9632 112.226 37.2842 112.226 36.3955V31.6035H113.887V36.375C113.887 37.3138 114.276 37.7832 115.056 37.7832C115.862 37.7832 116.407 37.4938 116.689 36.915V31.6035H118.351V39H116.785L116.744 38.2754ZM121.604 31.6035L121.652 32.376C122.172 31.7699 122.883 31.4668 123.785 31.4668C124.774 31.4668 125.451 31.8451 125.815 32.6016C126.353 31.8451 127.11 31.4668 128.085 31.4668C128.901 31.4668 129.507 31.6924 129.903 32.1436C130.304 32.5947 130.509 33.2601 130.519 34.1396V39H128.857V34.1875C128.857 33.7181 128.755 33.374 128.55 33.1553C128.345 32.9365 128.005 32.8271 127.531 32.8271C127.153 32.8271 126.843 32.9297 126.602 33.1348C126.365 33.3353 126.198 33.5996 126.103 33.9277L126.109 39H124.448V34.1328C124.425 33.2624 123.981 32.8271 123.115 32.8271C122.45 32.8271 121.978 33.0983 121.7 33.6406V39H120.039V31.6035H121.604ZM135.481 39.1367C134.429 39.1367 133.574 38.8063 132.918 38.1455C132.266 37.4801 131.94 36.596 131.94 35.4932V35.2881C131.94 34.5498 132.082 33.8913 132.364 33.3125C132.651 32.7292 133.052 32.2757 133.567 31.9521C134.082 31.6286 134.657 31.4668 135.29 31.4668C136.297 31.4668 137.074 31.7881 137.621 32.4307C138.173 33.0732 138.448 33.9824 138.448 35.1582V35.8281H133.615C133.665 36.4388 133.868 36.9219 134.224 37.2773C134.584 37.6328 135.035 37.8105 135.577 37.8105C136.338 37.8105 136.958 37.5029 137.437 36.8877L138.332 37.7422C138.036 38.1842 137.639 38.5283 137.143 38.7744C136.65 39.016 136.097 39.1367 135.481 39.1367ZM135.283 32.7998C134.827 32.7998 134.458 32.9593 134.176 33.2783C133.898 33.5973 133.72 34.0417 133.643 34.6113H136.808V34.4883C136.771 33.9323 136.623 33.513 136.363 33.2305C136.104 32.9434 135.743 32.7998 135.283 32.7998ZM141.285 31.6035L141.333 32.458C141.88 31.7972 142.598 31.4668 143.486 31.4668C145.027 31.4668 145.811 32.3486 145.838 34.1123V39H144.177V34.208C144.177 33.7386 144.074 33.3923 143.869 33.1689C143.669 32.9411 143.338 32.8271 142.878 32.8271C142.208 32.8271 141.709 33.1302 141.381 33.7363V39H139.72V31.6035H141.285ZM149.618 29.8057V31.6035H150.924V32.834H149.618V36.9629C149.618 37.2454 149.673 37.4505 149.782 37.5781C149.896 37.7012 150.097 37.7627 150.384 37.7627C150.575 37.7627 150.769 37.7399 150.965 37.6943V38.9795C150.587 39.0843 150.222 39.1367 149.871 39.1367C148.595 39.1367 147.957 38.4326 147.957 37.0244V32.834H146.74V31.6035H147.957V29.8057H149.618ZM156.27 39V32.834H155.142V31.6035H156.27V30.9268C156.27 30.1064 156.497 29.473 156.953 29.0264C157.409 28.5798 158.047 28.3564 158.867 28.3564C159.159 28.3564 159.469 28.3975 159.797 28.4795L159.756 29.7783C159.574 29.7419 159.362 29.7236 159.12 29.7236C158.327 29.7236 157.931 30.1315 157.931 30.9473V31.6035H159.435V32.834H157.931V39H156.27ZM160.337 35.2334C160.337 34.5088 160.48 33.8571 160.768 33.2783C161.055 32.695 161.458 32.2484 161.978 31.9385C162.497 31.624 163.094 31.4668 163.769 31.4668C164.767 31.4668 165.576 31.7881 166.195 32.4307C166.82 33.0732 167.157 33.9255 167.207 34.9873L167.214 35.377C167.214 36.1061 167.073 36.7578 166.79 37.332C166.512 37.9062 166.111 38.3506 165.587 38.665C165.067 38.9795 164.466 39.1367 163.782 39.1367C162.739 39.1367 161.902 38.7904 161.273 38.0977C160.649 37.4004 160.337 36.473 160.337 35.3154V35.2334ZM161.998 35.377C161.998 36.138 162.155 36.735 162.47 37.168C162.784 37.5964 163.222 37.8105 163.782 37.8105C164.343 37.8105 164.778 37.5918 165.088 37.1543C165.402 36.7168 165.56 36.0765 165.56 35.2334C165.56 34.486 165.398 33.8936 165.074 33.4561C164.755 33.0186 164.32 32.7998 163.769 32.7998C163.226 32.7998 162.796 33.0163 162.477 33.4492C162.158 33.8776 161.998 34.5202 161.998 35.377ZM172.491 33.1211C172.272 33.0846 172.047 33.0664 171.814 33.0664C171.053 33.0664 170.541 33.3581 170.276 33.9414V39H168.615V31.6035H170.201L170.242 32.4307C170.643 31.7881 171.199 31.4668 171.91 31.4668C172.147 31.4668 172.343 31.4987 172.498 31.5625L172.491 33.1211ZM42.54 53.2334C42.54 52.5088 42.6836 51.8571 42.9707 51.2783C43.2578 50.695 43.6611 50.2484 44.1807 49.9385C44.7002 49.624 45.2972 49.4668 45.9717 49.4668C46.9697 49.4668 47.7786 49.7881 48.3984 50.4307C49.0228 51.0732 49.36 51.9255 49.4102 52.9873L49.417 53.377C49.417 54.1061 49.2757 54.7578 48.9932 55.332C48.7152 55.9062 48.3141 56.3506 47.79 56.665C47.2705 56.9795 46.6689 57.1367 45.9854 57.1367C44.9417 57.1367 44.1055 56.7904 43.4766 56.0977C42.8522 55.4004 42.54 54.473 42.54 53.3154V53.2334ZM44.2012 53.377C44.2012 54.138 44.3584 54.735 44.6729 55.168C44.9873 55.5964 45.4248 55.8105 45.9854 55.8105C46.5459 55.8105 46.9811 55.5918 47.291 55.1543C47.6055 54.7168 47.7627 54.0765 47.7627 53.2334C47.7627 52.486 47.6009 51.8936 47.2773 51.4561C46.9583 51.0186 46.5231 50.7998 45.9717 50.7998C45.4294 50.7998 44.9987 51.0163 44.6797 51.4492C44.3607 51.8776 44.2012 52.5202 44.2012 53.377ZM52.9033 47.8057V49.6035H54.209V50.834H52.9033V54.9629C52.9033 55.2454 52.958 55.4505 53.0674 55.5781C53.1813 55.7012 53.3818 55.7627 53.6689 55.7627C53.8604 55.7627 54.054 55.7399 54.25 55.6943V56.9795C53.8717 57.0843 53.5072 57.1367 53.1562 57.1367C51.8802 57.1367 51.2422 56.4326 51.2422 55.0244V50.834H50.0254V49.6035H51.2422V47.8057H52.9033ZM57.1211 50.4102C57.6634 49.7812 58.3493 49.4668 59.1787 49.4668C60.7555 49.4668 61.5553 50.3669 61.5781 52.167V57H59.917V52.2285C59.917 51.7181 59.8053 51.3581 59.582 51.1484C59.3633 50.9342 59.0397 50.8271 58.6113 50.8271C57.946 50.8271 57.4492 51.1234 57.1211 51.7158V57H55.46V46.5H57.1211V50.4102ZM66.5205 57.1367C65.4678 57.1367 64.6133 56.8063 63.957 56.1455C63.3053 55.4801 62.9795 54.596 62.9795 53.4932V53.2881C62.9795 52.5498 63.1208 51.8913 63.4033 51.3125C63.6904 50.7292 64.0915 50.2757 64.6064 49.9521C65.1214 49.6286 65.6956 49.4668 66.3291 49.4668C67.3363 49.4668 68.1133 49.7881 68.6602 50.4307C69.2116 51.0732 69.4873 51.9824 69.4873 53.1582V53.8281H64.6543C64.7044 54.4388 64.9072 54.9219 65.2627 55.2773C65.6227 55.6328 66.0739 55.8105 66.6162 55.8105C67.3773 55.8105 67.9971 55.5029 68.4756 54.8877L69.3711 55.7422C69.0749 56.1842 68.6784 56.5283 68.1816 56.7744C67.6895 57.016 67.1357 57.1367 66.5205 57.1367ZM66.3223 50.7998C65.8665 50.7998 65.4974 50.9593 65.2148 51.2783C64.9368 51.5973 64.7591 52.0417 64.6816 52.6113H67.8467V52.4883C67.8102 51.9323 67.6621 51.513 67.4023 51.2305C67.1426 50.9434 66.7826 50.7998 66.3223 50.7998ZM74.6553 51.1211C74.4365 51.0846 74.2109 51.0664 73.9785 51.0664C73.2174 51.0664 72.7048 51.3581 72.4404 51.9414V57H70.7793V49.6035H72.3652L72.4062 50.4307C72.8073 49.7881 73.3633 49.4668 74.0742 49.4668C74.3112 49.4668 74.5072 49.4987 74.6621 49.5625L74.6553 51.1211ZM79.8506 54.9902C79.8506 54.694 79.7275 54.4684 79.4814 54.3135C79.2399 54.1585 78.8366 54.0218 78.2715 53.9033C77.7064 53.7848 77.2347 53.6344 76.8564 53.4521C76.027 53.0511 75.6123 52.4701 75.6123 51.709C75.6123 51.071 75.8812 50.5378 76.4189 50.1094C76.9567 49.681 77.6403 49.4668 78.4697 49.4668C79.3538 49.4668 80.0671 49.6855 80.6094 50.123C81.1562 50.5605 81.4297 51.1279 81.4297 51.8252H79.7686C79.7686 51.5062 79.6501 51.2419 79.4131 51.0322C79.1761 50.818 78.8617 50.7109 78.4697 50.7109C78.1051 50.7109 77.8066 50.7952 77.5742 50.9639C77.3464 51.1325 77.2324 51.3581 77.2324 51.6406C77.2324 51.8958 77.3395 52.0941 77.5537 52.2354C77.7679 52.3766 78.2008 52.5202 78.8525 52.666C79.5042 52.8073 80.0146 52.9782 80.3838 53.1787C80.7575 53.3747 81.0332 53.6117 81.2109 53.8896C81.3932 54.1676 81.4844 54.5049 81.4844 54.9014C81.4844 55.5667 81.2087 56.1068 80.6572 56.5215C80.1058 56.9316 79.3835 57.1367 78.4902 57.1367C77.8841 57.1367 77.3441 57.0273 76.8701 56.8086C76.3962 56.5898 76.027 56.2891 75.7627 55.9062C75.4984 55.5234 75.3662 55.111 75.3662 54.6689H76.9795C77.0023 55.0609 77.1504 55.3639 77.4238 55.5781C77.6973 55.7878 78.0596 55.8926 78.5107 55.8926C78.9482 55.8926 79.2809 55.8105 79.5088 55.6465C79.7367 55.4779 79.8506 55.2591 79.8506 54.9902ZM90.8428 57C90.7699 56.8587 90.7061 56.6286 90.6514 56.3096C90.1227 56.861 89.4756 57.1367 88.71 57.1367C87.9671 57.1367 87.361 56.9248 86.8916 56.501C86.4222 56.0771 86.1875 55.5531 86.1875 54.9287C86.1875 54.1403 86.4792 53.5365 87.0625 53.1172C87.6504 52.6934 88.4889 52.4814 89.5781 52.4814H90.5967V51.9961C90.5967 51.6133 90.4896 51.3079 90.2754 51.0801C90.0612 50.8477 89.7354 50.7314 89.2979 50.7314C88.9196 50.7314 88.6097 50.8271 88.3682 51.0186C88.1266 51.2054 88.0059 51.4447 88.0059 51.7363H86.3447C86.3447 51.3307 86.4792 50.9525 86.748 50.6016C87.0169 50.2461 87.3815 49.9681 87.8418 49.7676C88.3066 49.5671 88.8239 49.4668 89.3936 49.4668C90.2594 49.4668 90.9499 49.6855 91.4648 50.123C91.9798 50.556 92.2441 51.1667 92.2578 51.9551V55.291C92.2578 55.9564 92.3512 56.4873 92.5381 56.8838V57H90.8428ZM89.0176 55.8037C89.3457 55.8037 89.6533 55.724 89.9404 55.5645C90.2321 55.4049 90.4508 55.1908 90.5967 54.9219V53.5273H89.7012C89.0859 53.5273 88.6234 53.6344 88.3135 53.8486C88.0036 54.0628 87.8486 54.3659 87.8486 54.7578C87.8486 55.0768 87.9535 55.332 88.1631 55.5234C88.3773 55.7103 88.6621 55.8037 89.0176 55.8037ZM95.5391 49.6035L95.5869 50.458C96.1338 49.7972 96.8516 49.4668 97.7402 49.4668C99.2806 49.4668 100.064 50.3486 100.092 52.1123V57H98.4307V52.208C98.4307 51.7386 98.3281 51.3923 98.123 51.1689C97.9225 50.9411 97.5921 50.8271 97.1318 50.8271C96.4619 50.8271 95.9629 51.1302 95.6348 51.7363V57H93.9736V49.6035H95.5391ZM101.479 53.2471C101.479 52.1077 101.744 51.194 102.272 50.5059C102.801 49.8132 103.51 49.4668 104.398 49.4668C105.182 49.4668 105.816 49.7402 106.299 50.2871V46.5H107.96V57H106.456L106.374 56.2344C105.877 56.8359 105.214 57.1367 104.385 57.1367C103.519 57.1367 102.817 56.7881 102.279 56.0908C101.746 55.3936 101.479 54.4456 101.479 53.2471ZM103.141 53.3906C103.141 54.1426 103.284 54.7305 103.571 55.1543C103.863 55.5736 104.275 55.7832 104.809 55.7832C105.488 55.7832 105.984 55.4801 106.299 54.874V51.7158C105.993 51.1234 105.501 50.8271 104.822 50.8271C104.285 50.8271 103.87 51.0413 103.578 51.4697C103.286 51.8936 103.141 52.5339 103.141 53.3906ZM115.767 54.6211L117.271 49.6035H119.041L116.102 58.1211C115.65 59.3652 114.885 59.9873 113.805 59.9873C113.563 59.9873 113.297 59.9463 113.005 59.8643V58.5791L113.319 58.5996C113.739 58.5996 114.053 58.5221 114.263 58.3672C114.477 58.2168 114.646 57.9616 114.769 57.6016L115.008 56.9658L112.41 49.6035H114.201L115.767 54.6211ZM119.581 53.2334C119.581 52.5088 119.725 51.8571 120.012 51.2783C120.299 50.695 120.702 50.2484 121.222 49.9385C121.741 49.624 122.338 49.4668 123.013 49.4668C124.011 49.4668 124.82 49.7881 125.439 50.4307C126.064 51.0732 126.401 51.9255 126.451 52.9873L126.458 53.377C126.458 54.1061 126.317 54.7578 126.034 55.332C125.756 55.9062 125.355 56.3506 124.831 56.665C124.312 56.9795 123.71 57.1367 123.026 57.1367C121.983 57.1367 121.146 56.7904 120.518 56.0977C119.893 55.4004 119.581 54.473 119.581 53.3154V53.2334ZM121.242 53.377C121.242 54.138 121.399 54.735 121.714 55.168C122.028 55.5964 122.466 55.8105 123.026 55.8105C123.587 55.8105 124.022 55.5918 124.332 55.1543C124.646 54.7168 124.804 54.0765 124.804 53.2334C124.804 52.486 124.642 51.8936 124.318 51.4561C123.999 51.0186 123.564 50.7998 123.013 50.7998C122.47 50.7998 122.04 51.0163 121.721 51.4492C121.402 51.8776 121.242 52.5202 121.242 53.377ZM132.344 56.2754C131.856 56.8496 131.163 57.1367 130.266 57.1367C129.464 57.1367 128.855 56.902 128.44 56.4326C128.03 55.9632 127.825 55.2842 127.825 54.3955V49.6035H129.486V54.375C129.486 55.3138 129.876 55.7832 130.655 55.7832C131.462 55.7832 132.007 55.4938 132.289 54.915V49.6035H133.95V57H132.385L132.344 56.2754ZM139.515 51.1211C139.296 51.0846 139.07 51.0664 138.838 51.0664C138.077 51.0664 137.564 51.3581 137.3 51.9414V57H135.639V49.6035H137.225L137.266 50.4307C137.667 49.7881 138.223 49.4668 138.934 49.4668C139.171 49.4668 139.367 49.4987 139.521 49.5625L139.515 51.1211ZM144.71 54.9902C144.71 54.694 144.587 54.4684 144.341 54.3135C144.099 54.1585 143.696 54.0218 143.131 53.9033C142.566 53.7848 142.094 53.6344 141.716 53.4521C140.886 53.0511 140.472 52.4701 140.472 51.709C140.472 51.071 140.741 50.5378 141.278 50.1094C141.816 49.681 142.5 49.4668 143.329 49.4668C144.213 49.4668 144.926 49.6855 145.469 50.123C146.016 50.5605 146.289 51.1279 146.289 51.8252H144.628C144.628 51.5062 144.509 51.2419 144.272 51.0322C144.035 50.818 143.721 50.7109 143.329 50.7109C142.965 50.7109 142.666 50.7952 142.434 50.9639C142.206 51.1325 142.092 51.3581 142.092 51.6406C142.092 51.8958 142.199 52.0941 142.413 52.2354C142.627 52.3766 143.06 52.5202 143.712 52.666C144.364 52.8073 144.874 52.9782 145.243 53.1787C145.617 53.3747 145.893 53.6117 146.07 53.8896C146.253 54.1676 146.344 54.5049 146.344 54.9014C146.344 55.5667 146.068 56.1068 145.517 56.5215C144.965 56.9316 144.243 57.1367 143.35 57.1367C142.743 57.1367 142.203 57.0273 141.729 56.8086C141.256 56.5898 140.886 56.2891 140.622 55.9062C140.358 55.5234 140.226 55.111 140.226 54.6689H141.839C141.862 55.0609 142.01 55.3639 142.283 55.5781C142.557 55.7878 142.919 55.8926 143.37 55.8926C143.808 55.8926 144.14 55.8105 144.368 55.6465C144.596 55.4779 144.71 55.2591 144.71 54.9902ZM151.054 57.1367C150.001 57.1367 149.146 56.8063 148.49 56.1455C147.839 55.4801 147.513 54.596 147.513 53.4932V53.2881C147.513 52.5498 147.654 51.8913 147.937 51.3125C148.224 50.7292 148.625 50.2757 149.14 49.9521C149.655 49.6286 150.229 49.4668 150.862 49.4668C151.869 49.4668 152.646 49.7881 153.193 50.4307C153.745 51.0732 154.021 51.9824 154.021 53.1582V53.8281H149.188C149.238 54.4388 149.44 54.9219 149.796 55.2773C150.156 55.6328 150.607 55.8105 151.149 55.8105C151.91 55.8105 152.53 55.5029 153.009 54.8877L153.904 55.7422C153.608 56.1842 153.212 56.5283 152.715 56.7744C152.223 57.016 151.669 57.1367 151.054 57.1367ZM150.855 50.7998C150.4 50.7998 150.031 50.9593 149.748 51.2783C149.47 51.5973 149.292 52.0417 149.215 52.6113H152.38V52.4883C152.343 51.9323 152.195 51.513 151.936 51.2305C151.676 50.9434 151.316 50.7998 150.855 50.7998ZM157.083 57H155.422V46.5H157.083V57ZM159.482 57V50.834H158.354V49.6035H159.482V48.9268C159.482 48.1064 159.71 47.473 160.166 47.0264C160.622 46.5798 161.26 46.3564 162.08 46.3564C162.372 46.3564 162.682 46.3975 163.01 46.4795L162.969 47.7783C162.786 47.7419 162.575 47.7236 162.333 47.7236C161.54 47.7236 161.144 48.1315 161.144 48.9473V49.6035H162.647V50.834H161.144V57H159.482ZM169.429 47.8057V49.6035H170.734V50.834H169.429V54.9629C169.429 55.2454 169.483 55.4505 169.593 55.5781C169.707 55.7012 169.907 55.7627 170.194 55.7627C170.386 55.7627 170.579 55.7399 170.775 55.6943V56.9795C170.397 57.0843 170.033 57.1367 169.682 57.1367C168.406 57.1367 167.768 56.4326 167.768 55.0244V50.834H166.551V49.6035H167.768V47.8057H169.429ZM171.493 53.2334C171.493 52.5088 171.637 51.8571 171.924 51.2783C172.211 50.695 172.614 50.2484 173.134 49.9385C173.653 49.624 174.25 49.4668 174.925 49.4668C175.923 49.4668 176.732 49.7881 177.352 50.4307C177.976 51.0732 178.313 51.9255 178.363 52.9873L178.37 53.377C178.37 54.1061 178.229 54.7578 177.946 55.332C177.668 55.9062 177.267 56.3506 176.743 56.665C176.224 56.9795 175.622 57.1367 174.938 57.1367C173.895 57.1367 173.059 56.7904 172.43 56.0977C171.805 55.4004 171.493 54.473 171.493 53.3154V53.2334ZM173.154 53.377C173.154 54.138 173.312 54.735 173.626 55.168C173.94 55.5964 174.378 55.8105 174.938 55.8105C175.499 55.8105 175.934 55.5918 176.244 55.1543C176.559 54.7168 176.716 54.0765 176.716 53.2334C176.716 52.486 176.554 51.8936 176.23 51.4561C175.911 51.0186 175.476 50.7998 174.925 50.7998C174.382 50.7998 173.952 51.0163 173.633 51.4492C173.314 51.8776 173.154 52.5202 173.154 53.377ZM187.407 54.9902C187.407 54.694 187.284 54.4684 187.038 54.3135C186.797 54.1585 186.393 54.0218 185.828 53.9033C185.263 53.7848 184.791 53.6344 184.413 53.4521C183.584 53.0511 183.169 52.4701 183.169 51.709C183.169 51.071 183.438 50.5378 183.976 50.1094C184.513 49.681 185.197 49.4668 186.026 49.4668C186.91 49.4668 187.624 49.6855 188.166 50.123C188.713 50.5605 188.986 51.1279 188.986 51.8252H187.325C187.325 51.5062 187.207 51.2419 186.97 51.0322C186.733 50.818 186.418 50.7109 186.026 50.7109C185.662 50.7109 185.363 50.7952 185.131 50.9639C184.903 51.1325 184.789 51.3581 184.789 51.6406C184.789 51.8958 184.896 52.0941 185.11 52.2354C185.325 52.3766 185.757 52.5202 186.409 52.666C187.061 52.8073 187.571 52.9782 187.94 53.1787C188.314 53.3747 188.59 53.6117 188.768 53.8896C188.95 54.1676 189.041 54.5049 189.041 54.9014C189.041 55.5667 188.765 56.1068 188.214 56.5215C187.662 56.9316 186.94 57.1367 186.047 57.1367C185.441 57.1367 184.901 57.0273 184.427 56.8086C183.953 56.5898 183.584 56.2891 183.319 55.9062C183.055 55.5234 182.923 55.111 182.923 54.6689H184.536C184.559 55.0609 184.707 55.3639 184.98 55.5781C185.254 55.7878 185.616 55.8926 186.067 55.8926C186.505 55.8926 186.838 55.8105 187.065 55.6465C187.293 55.4779 187.407 55.2591 187.407 54.9902ZM192.261 57H190.6V49.6035H192.261V57ZM190.497 47.6826C190.497 47.4274 190.577 47.2155 190.736 47.0469C190.9 46.8783 191.133 46.7939 191.434 46.7939C191.734 46.7939 191.967 46.8783 192.131 47.0469C192.295 47.2155 192.377 47.4274 192.377 47.6826C192.377 47.9333 192.295 48.1429 192.131 48.3115C191.967 48.4756 191.734 48.5576 191.434 48.5576C191.133 48.5576 190.9 48.4756 190.736 48.3115C190.577 48.1429 190.497 47.9333 190.497 47.6826ZM193.785 53.2471C193.785 52.0986 194.054 51.1826 194.592 50.499C195.134 49.8109 195.852 49.4668 196.745 49.4668C197.588 49.4668 198.251 49.7607 198.734 50.3486L198.81 49.6035H200.307V56.7744C200.307 57.7451 200.004 58.5107 199.397 59.0713C198.796 59.6318 197.982 59.9121 196.957 59.9121C196.415 59.9121 195.884 59.7982 195.364 59.5703C194.849 59.347 194.457 59.0531 194.188 58.6885L194.975 57.6904C195.485 58.2965 196.114 58.5996 196.861 58.5996C197.413 58.5996 197.848 58.4492 198.167 58.1484C198.486 57.8522 198.646 57.4147 198.646 56.8359V56.3369C198.167 56.8701 197.529 57.1367 196.731 57.1367C195.866 57.1367 195.157 56.7926 194.605 56.1045C194.059 55.4163 193.785 54.4639 193.785 53.2471ZM195.439 53.3906C195.439 54.1335 195.59 54.7191 195.891 55.1475C196.196 55.5713 196.618 55.7832 197.155 55.7832C197.825 55.7832 198.322 55.4961 198.646 54.9219V51.668C198.331 51.1074 197.839 50.8271 197.169 50.8271C196.622 50.8271 196.196 51.0436 195.891 51.4766C195.59 51.9095 195.439 52.5475 195.439 53.3906ZM203.561 49.6035L203.608 50.458C204.155 49.7972 204.873 49.4668 205.762 49.4668C207.302 49.4668 208.086 50.3486 208.113 52.1123V57H206.452V52.208C206.452 51.7386 206.35 51.3923 206.145 51.1689C205.944 50.9411 205.614 50.8271 205.153 50.8271C204.483 50.8271 203.984 51.1302 203.656 51.7363V57H201.995V49.6035H203.561Z" fill="#2D3C4A"/>
<defs>
<filter id="filter0_d_150_777" x="0.777344" y="0" width="254.223" height="102" filterUnits="userSpaceOnUse" color-interpolation-filters="sRGB">
<feFlood flood-opacity="0" result="BackgroundImageFix"/>
<feColorMatrix in="SourceAlpha" type="matrix" values="0 0 0 0 0 0 0 0 0 0 0 0 0 0 0 0 0 0 127 0" result="hardAlpha"/>
<feOffset dx="2" dy="8"/>
<feGaussianBlur stdDeviation="10"/>
<feComposite in2="hardAlpha" operator="out"/>
<feColorMatrix type="matrix" values="0 0 0 0 0 0 0 0 0 0.32549 0 0 0 0 0.658824 0 0 0 0.17 0"/>
<feBlend mode="normal" in2="BackgroundImageFix" result="effect1_dropShadow_150_777"/>
<feBlend mode="normal" in="SourceGraphic" in2="effect1_dropShadow_150_777" result="shape"/>
</filter>
</defs>
</svg>
