<svg width="226" height="102" viewBox="0 0 226 102" fill="none" xmlns="http://www.w3.org/2000/svg">
<g filter="url(#filter0_d_150_905)">
<path d="M204 19C204 15.134 200.866 12 197 12H42.0905C39.7911 12 37.6384 13.1292 36.3314 15.0209L19.7492 39.0209C18.0947 41.4156 18.0947 44.5844 19.7492 46.9791L36.3314 70.9791C37.6384 72.8708 39.7911 74 42.0905 74H197C200.866 74 204 70.866 204 67V43V19Z" fill="white"/>
</g>
<path d="M57.2139 36.4365C57.2139 35.999 57.0589 35.6618 56.749 35.4248C56.4437 35.1878 55.89 34.9486 55.0879 34.707C54.2858 34.4655 53.6478 34.1966 53.1738 33.9004C52.2669 33.3307 51.8135 32.5879 51.8135 31.6719C51.8135 30.8698 52.1393 30.209 52.791 29.6895C53.4473 29.1699 54.2972 28.9102 55.3408 28.9102C56.0335 28.9102 56.651 29.0378 57.1934 29.293C57.7357 29.5482 58.1618 29.9128 58.4717 30.3867C58.7816 30.8561 58.9365 31.3779 58.9365 31.9521H57.2139C57.2139 31.4326 57.0498 31.027 56.7217 30.7354C56.3981 30.4391 55.9333 30.291 55.3271 30.291C54.762 30.291 54.3223 30.4118 54.0078 30.6533C53.6979 30.8949 53.543 31.2321 53.543 31.665C53.543 32.0296 53.7116 32.335 54.0488 32.5811C54.3861 32.8226 54.9421 33.0596 55.7168 33.292C56.4915 33.5199 57.1136 33.7819 57.583 34.0781C58.0524 34.3698 58.3965 34.707 58.6152 35.0898C58.834 35.4681 58.9434 35.9124 58.9434 36.4229C58.9434 37.2523 58.6243 37.9131 57.9863 38.4053C57.3529 38.8929 56.4915 39.1367 55.4023 39.1367C54.6823 39.1367 54.0192 39.0046 53.4131 38.7402C52.8115 38.4714 52.3421 38.1022 52.0049 37.6328C51.6722 37.1634 51.5059 36.6165 51.5059 35.9922H53.2354C53.2354 36.5573 53.4222 36.9948 53.7959 37.3047C54.1696 37.6146 54.7051 37.7695 55.4023 37.7695C56.0039 37.7695 56.4551 37.6488 56.7559 37.4072C57.0612 37.1611 57.2139 36.8376 57.2139 36.4365ZM63.5576 39.1367C62.5049 39.1367 61.6504 38.8063 60.9941 38.1455C60.3424 37.4801 60.0166 36.596 60.0166 35.4932V35.2881C60.0166 34.5498 60.1579 33.8913 60.4404 33.3125C60.7275 32.7292 61.1286 32.2757 61.6436 31.9521C62.1585 31.6286 62.7327 31.4668 63.3662 31.4668C64.3734 31.4668 65.1504 31.7881 65.6973 32.4307C66.2487 33.0732 66.5244 33.9824 66.5244 35.1582V35.8281H61.6914C61.7415 36.4388 61.9443 36.9219 62.2998 37.2773C62.6598 37.6328 63.111 37.8105 63.6533 37.8105C64.4144 37.8105 65.0342 37.5029 65.5127 36.8877L66.4082 37.7422C66.112 38.1842 65.7155 38.5283 65.2188 38.7744C64.7266 39.016 64.1729 39.1367 63.5576 39.1367ZM63.3594 32.7998C62.9036 32.7998 62.5345 32.9593 62.252 33.2783C61.974 33.5973 61.7962 34.0417 61.7188 34.6113H64.8838V34.4883C64.8473 33.9323 64.6992 33.513 64.4395 33.2305C64.1797 32.9434 63.8197 32.7998 63.3594 32.7998ZM69.3613 31.6035L69.4092 32.458C69.9561 31.7972 70.6738 31.4668 71.5625 31.4668C73.1029 31.4668 73.8867 32.3486 73.9141 34.1123V39H72.2529V34.208C72.2529 33.7386 72.1504 33.3923 71.9453 33.1689C71.7448 32.9411 71.4144 32.8271 70.9541 32.8271C70.2842 32.8271 69.7852 33.1302 69.457 33.7363V39H67.7959V31.6035H69.3613ZM75.3018 35.2471C75.3018 34.1077 75.5661 33.194 76.0947 32.5059C76.6234 31.8132 77.332 31.4668 78.2207 31.4668C79.0046 31.4668 79.638 31.7402 80.1211 32.2871V28.5H81.7822V39H80.2783L80.1963 38.2344C79.6995 38.8359 79.0365 39.1367 78.207 39.1367C77.3411 39.1367 76.6393 38.7881 76.1016 38.0908C75.5684 37.3936 75.3018 36.4456 75.3018 35.2471ZM76.9629 35.3906C76.9629 36.1426 77.1064 36.7305 77.3936 37.1543C77.6852 37.5736 78.0977 37.7832 78.6309 37.7832C79.3099 37.7832 79.8066 37.4801 80.1211 36.874V33.7158C79.8158 33.1234 79.3236 32.8271 78.6445 32.8271C78.1068 32.8271 77.6921 33.0413 77.4004 33.4697C77.1087 33.8936 76.9629 34.5339 76.9629 35.3906ZM91.4209 39C91.348 38.8587 91.2842 38.6286 91.2295 38.3096C90.7008 38.861 90.0537 39.1367 89.2881 39.1367C88.5452 39.1367 87.9391 38.9248 87.4697 38.501C87.0003 38.0771 86.7656 37.5531 86.7656 36.9287C86.7656 36.1403 87.0573 35.5365 87.6406 35.1172C88.2285 34.6934 89.0671 34.4814 90.1562 34.4814H91.1748V33.9961C91.1748 33.6133 91.0677 33.3079 90.8535 33.0801C90.6393 32.8477 90.3135 32.7314 89.876 32.7314C89.4977 32.7314 89.1878 32.8271 88.9463 33.0186C88.7048 33.2054 88.584 33.4447 88.584 33.7363H86.9229C86.9229 33.3307 87.0573 32.9525 87.3262 32.6016C87.5951 32.2461 87.9596 31.9681 88.4199 31.7676C88.8848 31.5671 89.402 31.4668 89.9717 31.4668C90.8376 31.4668 91.528 31.6855 92.043 32.123C92.5579 32.556 92.8223 33.1667 92.8359 33.9551V37.291C92.8359 37.9564 92.9294 38.4873 93.1162 38.8838V39H91.4209ZM89.5957 37.8037C89.9238 37.8037 90.2314 37.724 90.5186 37.5645C90.8102 37.4049 91.029 37.1908 91.1748 36.9219V35.5273H90.2793C89.6641 35.5273 89.2015 35.6344 88.8916 35.8486C88.5817 36.0628 88.4268 36.3659 88.4268 36.7578C88.4268 37.0768 88.5316 37.332 88.7412 37.5234C88.9554 37.7103 89.2402 37.8037 89.5957 37.8037ZM97.751 35.2471C97.751 34.1077 98.0153 33.194 98.5439 32.5059C99.0726 31.8132 99.7812 31.4668 100.67 31.4668C101.454 31.4668 102.087 31.7402 102.57 32.2871V28.5H104.231V39H102.728L102.646 38.2344C102.149 38.8359 101.486 39.1367 100.656 39.1367C99.7904 39.1367 99.0885 38.7881 98.5508 38.0908C98.0176 37.3936 97.751 36.4456 97.751 35.2471ZM99.4121 35.3906C99.4121 36.1426 99.5557 36.7305 99.8428 37.1543C100.134 37.5736 100.547 37.7832 101.08 37.7832C101.759 37.7832 102.256 37.4801 102.57 36.874V33.7158C102.265 33.1234 101.773 32.8271 101.094 32.8271C100.556 32.8271 100.141 33.0413 99.8496 33.4697C99.5579 33.8936 99.4121 34.5339 99.4121 35.3906ZM105.653 35.2334C105.653 34.5088 105.797 33.8571 106.084 33.2783C106.371 32.695 106.774 32.2484 107.294 31.9385C107.813 31.624 108.41 31.4668 109.085 31.4668C110.083 31.4668 110.892 31.7881 111.512 32.4307C112.136 33.0732 112.473 33.9255 112.523 34.9873L112.53 35.377C112.53 36.1061 112.389 36.7578 112.106 37.332C111.828 37.9062 111.427 38.3506 110.903 38.665C110.384 38.9795 109.782 39.1367 109.099 39.1367C108.055 39.1367 107.219 38.7904 106.59 38.0977C105.965 37.4004 105.653 36.473 105.653 35.3154V35.2334ZM107.314 35.377C107.314 36.138 107.472 36.735 107.786 37.168C108.101 37.5964 108.538 37.8105 109.099 37.8105C109.659 37.8105 110.094 37.5918 110.404 37.1543C110.719 36.7168 110.876 36.0765 110.876 35.2334C110.876 34.486 110.714 33.8936 110.391 33.4561C110.072 33.0186 109.636 32.7998 109.085 32.7998C108.543 32.7998 108.112 33.0163 107.793 33.4492C107.474 33.8776 107.314 34.5202 107.314 35.377ZM116.974 37.8105C117.388 37.8105 117.732 37.6898 118.006 37.4482C118.279 37.2067 118.425 36.9082 118.443 36.5527H120.009C119.991 37.013 119.847 37.4437 119.578 37.8447C119.309 38.2412 118.945 38.5557 118.484 38.7881C118.024 39.0205 117.527 39.1367 116.994 39.1367C115.96 39.1367 115.139 38.8018 114.533 38.1318C113.927 37.4619 113.624 36.5368 113.624 35.3564V35.1855C113.624 34.0599 113.925 33.1598 114.526 32.4854C115.128 31.8063 115.948 31.4668 116.987 31.4668C117.867 31.4668 118.582 31.7243 119.134 32.2393C119.69 32.7497 119.981 33.4219 120.009 34.2559H118.443C118.425 33.832 118.279 33.4834 118.006 33.21C117.737 32.9365 117.393 32.7998 116.974 32.7998C116.436 32.7998 116.021 32.9958 115.729 33.3877C115.438 33.7751 115.29 34.3652 115.285 35.1582V35.4248C115.285 36.2269 115.429 36.8262 115.716 37.2227C116.007 37.6146 116.427 37.8105 116.974 37.8105ZM125.744 38.2754C125.257 38.8496 124.564 39.1367 123.666 39.1367C122.864 39.1367 122.256 38.902 121.841 38.4326C121.431 37.9632 121.226 37.2842 121.226 36.3955V31.6035H122.887V36.375C122.887 37.3138 123.276 37.7832 124.056 37.7832C124.862 37.7832 125.407 37.4938 125.689 36.915V31.6035H127.351V39H125.785L125.744 38.2754ZM130.604 31.6035L130.652 32.376C131.172 31.7699 131.883 31.4668 132.785 31.4668C133.774 31.4668 134.451 31.8451 134.815 32.6016C135.353 31.8451 136.11 31.4668 137.085 31.4668C137.901 31.4668 138.507 31.6924 138.903 32.1436C139.304 32.5947 139.509 33.2601 139.519 34.1396V39H137.857V34.1875C137.857 33.7181 137.755 33.374 137.55 33.1553C137.345 32.9365 137.005 32.8271 136.531 32.8271C136.153 32.8271 135.843 32.9297 135.602 33.1348C135.365 33.3353 135.198 33.5996 135.103 33.9277L135.109 39H133.448V34.1328C133.425 33.2624 132.981 32.8271 132.115 32.8271C131.45 32.8271 130.978 33.0983 130.7 33.6406V39H129.039V31.6035H130.604ZM144.481 39.1367C143.429 39.1367 142.574 38.8063 141.918 38.1455C141.266 37.4801 140.94 36.596 140.94 35.4932V35.2881C140.94 34.5498 141.082 33.8913 141.364 33.3125C141.651 32.7292 142.052 32.2757 142.567 31.9521C143.082 31.6286 143.657 31.4668 144.29 31.4668C145.297 31.4668 146.074 31.7881 146.621 32.4307C147.173 33.0732 147.448 33.9824 147.448 35.1582V35.8281H142.615C142.665 36.4388 142.868 36.9219 143.224 37.2773C143.584 37.6328 144.035 37.8105 144.577 37.8105C145.338 37.8105 145.958 37.5029 146.437 36.8877L147.332 37.7422C147.036 38.1842 146.639 38.5283 146.143 38.7744C145.65 39.016 145.097 39.1367 144.481 39.1367ZM144.283 32.7998C143.827 32.7998 143.458 32.9593 143.176 33.2783C142.898 33.5973 142.72 34.0417 142.643 34.6113H145.808V34.4883C145.771 33.9323 145.623 33.513 145.363 33.2305C145.104 32.9434 144.743 32.7998 144.283 32.7998ZM150.285 31.6035L150.333 32.458C150.88 31.7972 151.598 31.4668 152.486 31.4668C154.027 31.4668 154.811 32.3486 154.838 34.1123V39H153.177V34.208C153.177 33.7386 153.074 33.3923 152.869 33.1689C152.669 32.9411 152.338 32.8271 151.878 32.8271C151.208 32.8271 150.709 33.1302 150.381 33.7363V39H148.72V31.6035H150.285ZM158.618 29.8057V31.6035H159.924V32.834H158.618V36.9629C158.618 37.2454 158.673 37.4505 158.782 37.5781C158.896 37.7012 159.097 37.7627 159.384 37.7627C159.575 37.7627 159.769 37.7399 159.965 37.6943V38.9795C159.587 39.0843 159.222 39.1367 158.871 39.1367C157.595 39.1367 156.957 38.4326 156.957 37.0244V32.834H155.74V31.6035H156.957V29.8057H158.618ZM165.27 39V32.834H164.142V31.6035H165.27V30.9268C165.27 30.1064 165.497 29.473 165.953 29.0264C166.409 28.5798 167.047 28.3564 167.867 28.3564C168.159 28.3564 168.469 28.3975 168.797 28.4795L168.756 29.7783C168.574 29.7419 168.362 29.7236 168.12 29.7236C167.327 29.7236 166.931 30.1315 166.931 30.9473V31.6035H168.435V32.834H166.931V39H165.27ZM169.337 35.2334C169.337 34.5088 169.48 33.8571 169.768 33.2783C170.055 32.695 170.458 32.2484 170.978 31.9385C171.497 31.624 172.094 31.4668 172.769 31.4668C173.767 31.4668 174.576 31.7881 175.195 32.4307C175.82 33.0732 176.157 33.9255 176.207 34.9873L176.214 35.377C176.214 36.1061 176.073 36.7578 175.79 37.332C175.512 37.9062 175.111 38.3506 174.587 38.665C174.067 38.9795 173.466 39.1367 172.782 39.1367C171.739 39.1367 170.902 38.7904 170.273 38.0977C169.649 37.4004 169.337 36.473 169.337 35.3154V35.2334ZM170.998 35.377C170.998 36.138 171.155 36.735 171.47 37.168C171.784 37.5964 172.222 37.8105 172.782 37.8105C173.343 37.8105 173.778 37.5918 174.088 37.1543C174.402 36.7168 174.56 36.0765 174.56 35.2334C174.56 34.486 174.398 33.8936 174.074 33.4561C173.755 33.0186 173.32 32.7998 172.769 32.7998C172.226 32.7998 171.796 33.0163 171.477 33.4492C171.158 33.8776 170.998 34.5202 170.998 35.377ZM181.491 33.1211C181.272 33.0846 181.047 33.0664 180.814 33.0664C180.053 33.0664 179.541 33.3581 179.276 33.9414V39H177.615V31.6035H179.201L179.242 32.4307C179.643 31.7881 180.199 31.4668 180.91 31.4668C181.147 31.4668 181.343 31.4987 181.498 31.5625L181.491 33.1211ZM51.54 53.2334C51.54 52.5088 51.6836 51.8571 51.9707 51.2783C52.2578 50.695 52.6611 50.2484 53.1807 49.9385C53.7002 49.624 54.2972 49.4668 54.9717 49.4668C55.9697 49.4668 56.7786 49.7881 57.3984 50.4307C58.0228 51.0732 58.36 51.9255 58.4102 52.9873L58.417 53.377C58.417 54.1061 58.2757 54.7578 57.9932 55.332C57.7152 55.9062 57.3141 56.3506 56.79 56.665C56.2705 56.9795 55.6689 57.1367 54.9854 57.1367C53.9417 57.1367 53.1055 56.7904 52.4766 56.0977C51.8522 55.4004 51.54 54.473 51.54 53.3154V53.2334ZM53.2012 53.377C53.2012 54.138 53.3584 54.735 53.6729 55.168C53.9873 55.5964 54.4248 55.8105 54.9854 55.8105C55.5459 55.8105 55.9811 55.5918 56.291 55.1543C56.6055 54.7168 56.7627 54.0765 56.7627 53.2334C56.7627 52.486 56.6009 51.8936 56.2773 51.4561C55.9583 51.0186 55.5231 50.7998 54.9717 50.7998C54.4294 50.7998 53.9987 51.0163 53.6797 51.4492C53.3607 51.8776 53.2012 52.5202 53.2012 53.377ZM61.9033 47.8057V49.6035H63.209V50.834H61.9033V54.9629C61.9033 55.2454 61.958 55.4505 62.0674 55.5781C62.1813 55.7012 62.3818 55.7627 62.6689 55.7627C62.8604 55.7627 63.054 55.7399 63.25 55.6943V56.9795C62.8717 57.0843 62.5072 57.1367 62.1562 57.1367C60.8802 57.1367 60.2422 56.4326 60.2422 55.0244V50.834H59.0254V49.6035H60.2422V47.8057H61.9033ZM66.1211 50.4102C66.6634 49.7812 67.3493 49.4668 68.1787 49.4668C69.7555 49.4668 70.5553 50.3669 70.5781 52.167V57H68.917V52.2285C68.917 51.7181 68.8053 51.3581 68.582 51.1484C68.3633 50.9342 68.0397 50.8271 67.6113 50.8271C66.946 50.8271 66.4492 51.1234 66.1211 51.7158V57H64.46V46.5H66.1211V50.4102ZM75.5205 57.1367C74.4678 57.1367 73.6133 56.8063 72.957 56.1455C72.3053 55.4801 71.9795 54.596 71.9795 53.4932V53.2881C71.9795 52.5498 72.1208 51.8913 72.4033 51.3125C72.6904 50.7292 73.0915 50.2757 73.6064 49.9521C74.1214 49.6286 74.6956 49.4668 75.3291 49.4668C76.3363 49.4668 77.1133 49.7881 77.6602 50.4307C78.2116 51.0732 78.4873 51.9824 78.4873 53.1582V53.8281H73.6543C73.7044 54.4388 73.9072 54.9219 74.2627 55.2773C74.6227 55.6328 75.0739 55.8105 75.6162 55.8105C76.3773 55.8105 76.9971 55.5029 77.4756 54.8877L78.3711 55.7422C78.0749 56.1842 77.6784 56.5283 77.1816 56.7744C76.6895 57.016 76.1357 57.1367 75.5205 57.1367ZM75.3223 50.7998C74.8665 50.7998 74.4974 50.9593 74.2148 51.2783C73.9368 51.5973 73.7591 52.0417 73.6816 52.6113H76.8467V52.4883C76.8102 51.9323 76.6621 51.513 76.4023 51.2305C76.1426 50.9434 75.7826 50.7998 75.3223 50.7998ZM83.6553 51.1211C83.4365 51.0846 83.2109 51.0664 82.9785 51.0664C82.2174 51.0664 81.7048 51.3581 81.4404 51.9414V57H79.7793V49.6035H81.3652L81.4062 50.4307C81.8073 49.7881 82.3633 49.4668 83.0742 49.4668C83.3112 49.4668 83.5072 49.4987 83.6621 49.5625L83.6553 51.1211ZM88.8506 54.9902C88.8506 54.694 88.7275 54.4684 88.4814 54.3135C88.2399 54.1585 87.8366 54.0218 87.2715 53.9033C86.7064 53.7848 86.2347 53.6344 85.8564 53.4521C85.027 53.0511 84.6123 52.4701 84.6123 51.709C84.6123 51.071 84.8812 50.5378 85.4189 50.1094C85.9567 49.681 86.6403 49.4668 87.4697 49.4668C88.3538 49.4668 89.0671 49.6855 89.6094 50.123C90.1562 50.5605 90.4297 51.1279 90.4297 51.8252H88.7686C88.7686 51.5062 88.6501 51.2419 88.4131 51.0322C88.1761 50.818 87.8617 50.7109 87.4697 50.7109C87.1051 50.7109 86.8066 50.7952 86.5742 50.9639C86.3464 51.1325 86.2324 51.3581 86.2324 51.6406C86.2324 51.8958 86.3395 52.0941 86.5537 52.2354C86.7679 52.3766 87.2008 52.5202 87.8525 52.666C88.5042 52.8073 89.0146 52.9782 89.3838 53.1787C89.7575 53.3747 90.0332 53.6117 90.2109 53.8896C90.3932 54.1676 90.4844 54.5049 90.4844 54.9014C90.4844 55.5667 90.2087 56.1068 89.6572 56.5215C89.1058 56.9316 88.3835 57.1367 87.4902 57.1367C86.8841 57.1367 86.3441 57.0273 85.8701 56.8086C85.3962 56.5898 85.027 56.2891 84.7627 55.9062C84.4984 55.5234 84.3662 55.111 84.3662 54.6689H85.9795C86.0023 55.0609 86.1504 55.3639 86.4238 55.5781C86.6973 55.7878 87.0596 55.8926 87.5107 55.8926C87.9482 55.8926 88.2809 55.8105 88.5088 55.6465C88.7367 55.4779 88.8506 55.2591 88.8506 54.9902ZM97.5049 47.8057V49.6035H98.8105V50.834H97.5049V54.9629C97.5049 55.2454 97.5596 55.4505 97.6689 55.5781C97.7829 55.7012 97.9834 55.7627 98.2705 55.7627C98.4619 55.7627 98.6556 55.7399 98.8516 55.6943V56.9795C98.4733 57.0843 98.1087 57.1367 97.7578 57.1367C96.4818 57.1367 95.8438 56.4326 95.8438 55.0244V50.834H94.627V49.6035H95.8438V47.8057H97.5049ZM99.5693 53.2334C99.5693 52.5088 99.7129 51.8571 100 51.2783C100.287 50.695 100.69 50.2484 101.21 49.9385C101.729 49.624 102.326 49.4668 103.001 49.4668C103.999 49.4668 104.808 49.7881 105.428 50.4307C106.052 51.0732 106.389 51.9255 106.439 52.9873L106.446 53.377C106.446 54.1061 106.305 54.7578 106.022 55.332C105.744 55.9062 105.343 56.3506 104.819 56.665C104.3 56.9795 103.698 57.1367 103.015 57.1367C101.971 57.1367 101.135 56.7904 100.506 56.0977C99.8815 55.4004 99.5693 54.473 99.5693 53.3154V53.2334ZM101.23 53.377C101.23 54.138 101.388 54.735 101.702 55.168C102.017 55.5964 102.454 55.8105 103.015 55.8105C103.575 55.8105 104.01 55.5918 104.32 55.1543C104.635 54.7168 104.792 54.0765 104.792 53.2334C104.792 52.486 104.63 51.8936 104.307 51.4561C103.988 51.0186 103.552 50.7998 103.001 50.7998C102.459 50.7998 102.028 51.0163 101.709 51.4492C101.39 51.8776 101.23 52.5202 101.23 53.377ZM115.483 54.9902C115.483 54.694 115.36 54.4684 115.114 54.3135C114.873 54.1585 114.469 54.0218 113.904 53.9033C113.339 53.7848 112.868 53.6344 112.489 53.4521C111.66 53.0511 111.245 52.4701 111.245 51.709C111.245 51.071 111.514 50.5378 112.052 50.1094C112.59 49.681 113.273 49.4668 114.103 49.4668C114.987 49.4668 115.7 49.6855 116.242 50.123C116.789 50.5605 117.062 51.1279 117.062 51.8252H115.401C115.401 51.5062 115.283 51.2419 115.046 51.0322C114.809 50.818 114.494 50.7109 114.103 50.7109C113.738 50.7109 113.439 50.7952 113.207 50.9639C112.979 51.1325 112.865 51.3581 112.865 51.6406C112.865 51.8958 112.972 52.0941 113.187 52.2354C113.401 52.3766 113.834 52.5202 114.485 52.666C115.137 52.8073 115.647 52.9782 116.017 53.1787C116.39 53.3747 116.666 53.6117 116.844 53.8896C117.026 54.1676 117.117 54.5049 117.117 54.9014C117.117 55.5667 116.841 56.1068 116.29 56.5215C115.739 56.9316 115.016 57.1367 114.123 57.1367C113.517 57.1367 112.977 57.0273 112.503 56.8086C112.029 56.5898 111.66 56.2891 111.396 55.9062C111.131 55.5234 110.999 55.111 110.999 54.6689H112.612C112.635 55.0609 112.783 55.3639 113.057 55.5781C113.33 55.7878 113.692 55.8926 114.144 55.8926C114.581 55.8926 114.914 55.8105 115.142 55.6465C115.369 55.4779 115.483 55.2591 115.483 54.9902ZM120.337 57H118.676V49.6035H120.337V57ZM118.573 47.6826C118.573 47.4274 118.653 47.2155 118.812 47.0469C118.977 46.8783 119.209 46.7939 119.51 46.7939C119.811 46.7939 120.043 46.8783 120.207 47.0469C120.371 47.2155 120.453 47.4274 120.453 47.6826C120.453 47.9333 120.371 48.1429 120.207 48.3115C120.043 48.4756 119.811 48.5576 119.51 48.5576C119.209 48.5576 118.977 48.4756 118.812 48.3115C118.653 48.1429 118.573 47.9333 118.573 47.6826ZM121.861 53.2471C121.861 52.0986 122.13 51.1826 122.668 50.499C123.21 49.8109 123.928 49.4668 124.821 49.4668C125.664 49.4668 126.327 49.7607 126.811 50.3486L126.886 49.6035H128.383V56.7744C128.383 57.7451 128.08 58.5107 127.474 59.0713C126.872 59.6318 126.059 59.9121 125.033 59.9121C124.491 59.9121 123.96 59.7982 123.44 59.5703C122.925 59.347 122.534 59.0531 122.265 58.6885L123.051 57.6904C123.561 58.2965 124.19 58.5996 124.938 58.5996C125.489 58.5996 125.924 58.4492 126.243 58.1484C126.562 57.8522 126.722 57.4147 126.722 56.8359V56.3369C126.243 56.8701 125.605 57.1367 124.808 57.1367C123.942 57.1367 123.233 56.7926 122.682 56.1045C122.135 55.4163 121.861 54.4639 121.861 53.2471ZM123.516 53.3906C123.516 54.1335 123.666 54.7191 123.967 55.1475C124.272 55.5713 124.694 55.7832 125.231 55.7832C125.901 55.7832 126.398 55.4961 126.722 54.9219V51.668C126.407 51.1074 125.915 50.8271 125.245 50.8271C124.698 50.8271 124.272 51.0436 123.967 51.4766C123.666 51.9095 123.516 52.5475 123.516 53.3906ZM131.637 49.6035L131.685 50.458C132.231 49.7972 132.949 49.4668 133.838 49.4668C135.378 49.4668 136.162 50.3486 136.189 52.1123V57H134.528V52.208C134.528 51.7386 134.426 51.3923 134.221 51.1689C134.02 50.9411 133.69 50.8271 133.229 50.8271C132.56 50.8271 132.061 51.1302 131.732 51.7363V57H130.071V49.6035H131.637Z" fill="#2D3C4A"/>
<defs>
<filter id="filter0_d_150_905" x="0.507812" y="0" width="225.492" height="102" filterUnits="userSpaceOnUse" color-interpolation-filters="sRGB">
<feFlood flood-opacity="0" result="BackgroundImageFix"/>
<feColorMatrix in="SourceAlpha" type="matrix" values="0 0 0 0 0 0 0 0 0 0 0 0 0 0 0 0 0 0 127 0" result="hardAlpha"/>
<feOffset dx="2" dy="8"/>
<feGaussianBlur stdDeviation="10"/>
<feComposite in2="hardAlpha" operator="out"/>
<feColorMatrix type="matrix" values="0 0 0 0 0 0 0 0 0 0.32549 0 0 0 0 0.658824 0 0 0 0.17 0"/>
<feBlend mode="normal" in2="BackgroundImageFix" result="effect1_dropShadow_150_905"/>
<feBlend mode="normal" in="SourceGraphic" in2="effect1_dropShadow_150_905" result="shape"/>
</filter>
</defs>
</svg>
