<svg width="254" height="82" viewBox="0 0 254 82" fill="none" xmlns="http://www.w3.org/2000/svg">
<g filter="url(#filter0_d_150_941)">
<path d="M232 19C232 15.134 228.866 12 225 12H35.6023C33.3417 12 31.2202 13.0918 29.9062 14.9313L19.9062 28.9313C18.1677 31.3652 18.1677 34.6348 19.9062 37.0687L29.9062 51.0687C31.2202 52.9082 33.3417 54 35.6023 54H225C228.866 54 232 50.866 232 47V19Z" fill="white"/>
</g>
<path d="M58.2139 36.4365C58.2139 35.999 58.0589 35.6618 57.749 35.4248C57.4437 35.1878 56.89 34.9486 56.0879 34.707C55.2858 34.4655 54.6478 34.1966 54.1738 33.9004C53.2669 33.3307 52.8135 32.5879 52.8135 31.6719C52.8135 30.8698 53.1393 30.209 53.791 29.6895C54.4473 29.1699 55.2972 28.9102 56.3408 28.9102C57.0335 28.9102 57.651 29.0378 58.1934 29.293C58.7357 29.5482 59.1618 29.9128 59.4717 30.3867C59.7816 30.8561 59.9365 31.3779 59.9365 31.9521H58.2139C58.2139 31.4326 58.0498 31.027 57.7217 30.7354C57.3981 30.4391 56.9333 30.291 56.3271 30.291C55.762 30.291 55.3223 30.4118 55.0078 30.6533C54.6979 30.8949 54.543 31.2321 54.543 31.665C54.543 32.0296 54.7116 32.335 55.0488 32.5811C55.3861 32.8226 55.9421 33.0596 56.7168 33.292C57.4915 33.5199 58.1136 33.7819 58.583 34.0781C59.0524 34.3698 59.3965 34.707 59.6152 35.0898C59.834 35.4681 59.9434 35.9124 59.9434 36.4229C59.9434 37.2523 59.6243 37.9131 58.9863 38.4053C58.3529 38.8929 57.4915 39.1367 56.4023 39.1367C55.6823 39.1367 55.0192 39.0046 54.4131 38.7402C53.8115 38.4714 53.3421 38.1022 53.0049 37.6328C52.6722 37.1634 52.5059 36.6165 52.5059 35.9922H54.2354C54.2354 36.5573 54.4222 36.9948 54.7959 37.3047C55.1696 37.6146 55.7051 37.7695 56.4023 37.7695C57.0039 37.7695 57.4551 37.6488 57.7559 37.4072C58.0612 37.1611 58.2139 36.8376 58.2139 36.4365ZM63.0674 39H61.4062V31.6035H63.0674V39ZM61.3037 29.6826C61.3037 29.4274 61.3835 29.2155 61.543 29.0469C61.707 28.8783 61.9395 28.7939 62.2402 28.7939C62.541 28.7939 62.7734 28.8783 62.9375 29.0469C63.1016 29.2155 63.1836 29.4274 63.1836 29.6826C63.1836 29.9333 63.1016 30.1429 62.9375 30.3115C62.7734 30.4756 62.541 30.5576 62.2402 30.5576C61.9395 30.5576 61.707 30.4756 61.543 30.3115C61.3835 30.1429 61.3037 29.9333 61.3037 29.6826ZM64.5918 35.2471C64.5918 34.0986 64.8607 33.1826 65.3984 32.499C65.9408 31.8109 66.6585 31.4668 67.5518 31.4668C68.3949 31.4668 69.0579 31.7607 69.541 32.3486L69.6162 31.6035H71.1133V38.7744C71.1133 39.7451 70.8102 40.5107 70.2041 41.0713C69.6025 41.6318 68.7891 41.9121 67.7637 41.9121C67.2214 41.9121 66.6904 41.7982 66.1709 41.5703C65.6559 41.347 65.264 41.0531 64.9951 40.6885L65.7812 39.6904C66.2917 40.2965 66.9206 40.5996 67.668 40.5996C68.2194 40.5996 68.6546 40.4492 68.9736 40.1484C69.2926 39.8522 69.4521 39.4147 69.4521 38.8359V38.3369C68.9736 38.8701 68.3356 39.1367 67.5381 39.1367C66.6722 39.1367 65.9635 38.7926 65.4121 38.1045C64.8652 37.4163 64.5918 36.4639 64.5918 35.2471ZM66.2461 35.3906C66.2461 36.1335 66.3965 36.7191 66.6973 37.1475C67.0026 37.5713 67.4242 37.7832 67.9619 37.7832C68.6318 37.7832 69.1286 37.4961 69.4521 36.9219V33.668C69.1377 33.1074 68.6455 32.8271 67.9756 32.8271C67.4287 32.8271 67.0026 33.0436 66.6973 33.4766C66.3965 33.9095 66.2461 34.5475 66.2461 35.3906ZM74.3672 31.6035L74.415 32.458C74.9619 31.7972 75.6797 31.4668 76.5684 31.4668C78.1087 31.4668 78.8926 32.3486 78.9199 34.1123V39H77.2588V34.208C77.2588 33.7386 77.1562 33.3923 76.9512 33.1689C76.7507 32.9411 76.4202 32.8271 75.96 32.8271C75.29 32.8271 74.791 33.1302 74.4629 33.7363V39H72.8018V31.6035H74.3672ZM88.5244 39C88.4515 38.8587 88.3877 38.6286 88.333 38.3096C87.8044 38.861 87.1572 39.1367 86.3916 39.1367C85.6488 39.1367 85.0426 38.9248 84.5732 38.501C84.1038 38.0771 83.8691 37.5531 83.8691 36.9287C83.8691 36.1403 84.1608 35.5365 84.7441 35.1172C85.332 34.6934 86.1706 34.4814 87.2598 34.4814H88.2783V33.9961C88.2783 33.6133 88.1712 33.3079 87.957 33.0801C87.7428 32.8477 87.417 32.7314 86.9795 32.7314C86.6012 32.7314 86.2913 32.8271 86.0498 33.0186C85.8083 33.2054 85.6875 33.4447 85.6875 33.7363H84.0264C84.0264 33.3307 84.1608 32.9525 84.4297 32.6016C84.6986 32.2461 85.0632 31.9681 85.5234 31.7676C85.9883 31.5671 86.5055 31.4668 87.0752 31.4668C87.9411 31.4668 88.6315 31.6855 89.1465 32.123C89.6615 32.556 89.9258 33.1667 89.9395 33.9551V37.291C89.9395 37.9564 90.0329 38.4873 90.2197 38.8838V39H88.5244ZM86.6992 37.8037C87.0273 37.8037 87.335 37.724 87.6221 37.5645C87.9137 37.4049 88.1325 37.1908 88.2783 36.9219V35.5273H87.3828C86.7676 35.5273 86.305 35.6344 85.9951 35.8486C85.6852 36.0628 85.5303 36.3659 85.5303 36.7578C85.5303 37.0768 85.6351 37.332 85.8447 37.5234C86.0589 37.7103 86.3438 37.8037 86.6992 37.8037ZM94.8545 35.2471C94.8545 34.1077 95.1188 33.194 95.6475 32.5059C96.1761 31.8132 96.8848 31.4668 97.7734 31.4668C98.5573 31.4668 99.1908 31.7402 99.6738 32.2871V28.5H101.335V39H99.8311L99.749 38.2344C99.2523 38.8359 98.5892 39.1367 97.7598 39.1367C96.8939 39.1367 96.1921 38.7881 95.6543 38.0908C95.1211 37.3936 94.8545 36.4456 94.8545 35.2471ZM96.5156 35.3906C96.5156 36.1426 96.6592 36.7305 96.9463 37.1543C97.238 37.5736 97.6504 37.7832 98.1836 37.7832C98.8626 37.7832 99.3594 37.4801 99.6738 36.874V33.7158C99.3685 33.1234 98.8763 32.8271 98.1973 32.8271C97.6595 32.8271 97.2448 33.0413 96.9531 33.4697C96.6615 33.8936 96.5156 34.5339 96.5156 35.3906ZM102.757 35.2334C102.757 34.5088 102.9 33.8571 103.188 33.2783C103.475 32.695 103.878 32.2484 104.397 31.9385C104.917 31.624 105.514 31.4668 106.188 31.4668C107.187 31.4668 107.995 31.7881 108.615 32.4307C109.24 33.0732 109.577 33.9255 109.627 34.9873L109.634 35.377C109.634 36.1061 109.493 36.7578 109.21 37.332C108.932 37.9062 108.531 38.3506 108.007 38.665C107.487 38.9795 106.886 39.1367 106.202 39.1367C105.159 39.1367 104.322 38.7904 103.693 38.0977C103.069 37.4004 102.757 36.473 102.757 35.3154V35.2334ZM104.418 35.377C104.418 36.138 104.575 36.735 104.89 37.168C105.204 37.5964 105.642 37.8105 106.202 37.8105C106.763 37.8105 107.198 37.5918 107.508 37.1543C107.822 36.7168 107.979 36.0765 107.979 35.2334C107.979 34.486 107.818 33.8936 107.494 33.4561C107.175 33.0186 106.74 32.7998 106.188 32.7998C105.646 32.7998 105.215 33.0163 104.896 33.4492C104.577 33.8776 104.418 34.5202 104.418 35.377ZM114.077 37.8105C114.492 37.8105 114.836 37.6898 115.109 37.4482C115.383 37.2067 115.529 36.9082 115.547 36.5527H117.112C117.094 37.013 116.951 37.4437 116.682 37.8447C116.413 38.2412 116.048 38.5557 115.588 38.7881C115.128 39.0205 114.631 39.1367 114.098 39.1367C113.063 39.1367 112.243 38.8018 111.637 38.1318C111.031 37.4619 110.728 36.5368 110.728 35.3564V35.1855C110.728 34.0599 111.028 33.1598 111.63 32.4854C112.231 31.8063 113.052 31.4668 114.091 31.4668C114.97 31.4668 115.686 31.7243 116.237 32.2393C116.793 32.7497 117.085 33.4219 117.112 34.2559H115.547C115.529 33.832 115.383 33.4834 115.109 33.21C114.84 32.9365 114.496 32.7998 114.077 32.7998C113.539 32.7998 113.125 32.9958 112.833 33.3877C112.541 33.7751 112.393 34.3652 112.389 35.1582V35.4248C112.389 36.2269 112.532 36.8262 112.819 37.2227C113.111 37.6146 113.53 37.8105 114.077 37.8105ZM122.848 38.2754C122.36 38.8496 121.667 39.1367 120.77 39.1367C119.967 39.1367 119.359 38.902 118.944 38.4326C118.534 37.9632 118.329 37.2842 118.329 36.3955V31.6035H119.99V36.375C119.99 37.3138 120.38 37.7832 121.159 37.7832C121.966 37.7832 122.51 37.4938 122.793 36.915V31.6035H124.454V39H122.889L122.848 38.2754ZM127.708 31.6035L127.756 32.376C128.275 31.7699 128.986 31.4668 129.889 31.4668C130.878 31.4668 131.554 31.8451 131.919 32.6016C132.457 31.8451 133.213 31.4668 134.188 31.4668C135.004 31.4668 135.61 31.6924 136.007 32.1436C136.408 32.5947 136.613 33.2601 136.622 34.1396V39H134.961V34.1875C134.961 33.7181 134.858 33.374 134.653 33.1553C134.448 32.9365 134.109 32.8271 133.635 32.8271C133.257 32.8271 132.947 32.9297 132.705 33.1348C132.468 33.3353 132.302 33.5996 132.206 33.9277L132.213 39H130.552V34.1328C130.529 33.2624 130.085 32.8271 129.219 32.8271C128.553 32.8271 128.082 33.0983 127.804 33.6406V39H126.143V31.6035H127.708ZM141.585 39.1367C140.532 39.1367 139.678 38.8063 139.021 38.1455C138.37 37.4801 138.044 36.596 138.044 35.4932V35.2881C138.044 34.5498 138.185 33.8913 138.468 33.3125C138.755 32.7292 139.156 32.2757 139.671 31.9521C140.186 31.6286 140.76 31.4668 141.394 31.4668C142.401 31.4668 143.178 31.7881 143.725 32.4307C144.276 33.0732 144.552 33.9824 144.552 35.1582V35.8281H139.719C139.769 36.4388 139.972 36.9219 140.327 37.2773C140.687 37.6328 141.138 37.8105 141.681 37.8105C142.442 37.8105 143.062 37.5029 143.54 36.8877L144.436 37.7422C144.139 38.1842 143.743 38.5283 143.246 38.7744C142.754 39.016 142.2 39.1367 141.585 39.1367ZM141.387 32.7998C140.931 32.7998 140.562 32.9593 140.279 33.2783C140.001 33.5973 139.824 34.0417 139.746 34.6113H142.911V34.4883C142.875 33.9323 142.727 33.513 142.467 33.2305C142.207 32.9434 141.847 32.7998 141.387 32.7998ZM147.389 31.6035L147.437 32.458C147.983 31.7972 148.701 31.4668 149.59 31.4668C151.13 31.4668 151.914 32.3486 151.941 34.1123V39H150.28V34.208C150.28 33.7386 150.178 33.3923 149.973 33.1689C149.772 32.9411 149.442 32.8271 148.981 32.8271C148.312 32.8271 147.812 33.1302 147.484 33.7363V39H145.823V31.6035H147.389ZM155.722 29.8057V31.6035H157.027V32.834H155.722V36.9629C155.722 37.2454 155.776 37.4505 155.886 37.5781C156 37.7012 156.2 37.7627 156.487 37.7627C156.679 37.7627 156.872 37.7399 157.068 37.6943V38.9795C156.69 39.0843 156.326 39.1367 155.975 39.1367C154.699 39.1367 154.061 38.4326 154.061 37.0244V32.834H152.844V31.6035H154.061V29.8057H155.722ZM164.376 36.6211L165.88 31.6035H167.65L164.711 40.1211C164.26 41.3652 163.494 41.9873 162.414 41.9873C162.173 41.9873 161.906 41.9463 161.614 41.8643V40.5791L161.929 40.5996C162.348 40.5996 162.662 40.5221 162.872 40.3672C163.086 40.2168 163.255 39.9616 163.378 39.6016L163.617 38.9658L161.02 31.6035H162.811L164.376 36.6211ZM168.19 35.2334C168.19 34.5088 168.334 33.8571 168.621 33.2783C168.908 32.695 169.312 32.2484 169.831 31.9385C170.351 31.624 170.948 31.4668 171.622 31.4668C172.62 31.4668 173.429 31.7881 174.049 32.4307C174.673 33.0732 175.01 33.9255 175.061 34.9873L175.067 35.377C175.067 36.1061 174.926 36.7578 174.644 37.332C174.366 37.9062 173.965 38.3506 173.44 38.665C172.921 38.9795 172.319 39.1367 171.636 39.1367C170.592 39.1367 169.756 38.7904 169.127 38.0977C168.503 37.4004 168.19 36.473 168.19 35.3154V35.2334ZM169.852 35.377C169.852 36.138 170.009 36.735 170.323 37.168C170.638 37.5964 171.075 37.8105 171.636 37.8105C172.196 37.8105 172.632 37.5918 172.941 37.1543C173.256 36.7168 173.413 36.0765 173.413 35.2334C173.413 34.486 173.251 33.8936 172.928 33.4561C172.609 33.0186 172.174 32.7998 171.622 32.7998C171.08 32.7998 170.649 33.0163 170.33 33.4492C170.011 33.8776 169.852 34.5202 169.852 35.377ZM180.953 38.2754C180.465 38.8496 179.773 39.1367 178.875 39.1367C178.073 39.1367 177.465 38.902 177.05 38.4326C176.64 37.9632 176.435 37.2842 176.435 36.3955V31.6035H178.096V36.375C178.096 37.3138 178.485 37.7832 179.265 37.7832C180.071 37.7832 180.616 37.4938 180.898 36.915V31.6035H182.56V39H180.994L180.953 38.2754ZM188.124 33.1211C187.905 33.0846 187.68 33.0664 187.447 33.0664C186.686 33.0664 186.174 33.3581 185.909 33.9414V39H184.248V31.6035H185.834L185.875 32.4307C186.276 31.7881 186.832 31.4668 187.543 31.4668C187.78 31.4668 187.976 31.4987 188.131 31.5625L188.124 33.1211ZM193.319 36.9902C193.319 36.694 193.196 36.4684 192.95 36.3135C192.709 36.1585 192.305 36.0218 191.74 35.9033C191.175 35.7848 190.703 35.6344 190.325 35.4521C189.496 35.0511 189.081 34.4701 189.081 33.709C189.081 33.071 189.35 32.5378 189.888 32.1094C190.425 31.681 191.109 31.4668 191.938 31.4668C192.823 31.4668 193.536 31.6855 194.078 32.123C194.625 32.5605 194.898 33.1279 194.898 33.8252H193.237C193.237 33.5062 193.119 33.2419 192.882 33.0322C192.645 32.818 192.33 32.7109 191.938 32.7109C191.574 32.7109 191.275 32.7952 191.043 32.9639C190.815 33.1325 190.701 33.3581 190.701 33.6406C190.701 33.8958 190.808 34.0941 191.022 34.2354C191.237 34.3766 191.67 34.5202 192.321 34.666C192.973 34.8073 193.483 34.9782 193.853 35.1787C194.226 35.3747 194.502 35.6117 194.68 35.8896C194.862 36.1676 194.953 36.5049 194.953 36.9014C194.953 37.5667 194.677 38.1068 194.126 38.5215C193.575 38.9316 192.852 39.1367 191.959 39.1367C191.353 39.1367 190.813 39.0273 190.339 38.8086C189.865 38.5898 189.496 38.2891 189.231 37.9062C188.967 37.5234 188.835 37.111 188.835 36.6689H190.448C190.471 37.0609 190.619 37.3639 190.893 37.5781C191.166 37.7878 191.528 37.8926 191.979 37.8926C192.417 37.8926 192.75 37.8105 192.978 37.6465C193.205 37.4779 193.319 37.2591 193.319 36.9902ZM199.663 39.1367C198.61 39.1367 197.756 38.8063 197.1 38.1455C196.448 37.4801 196.122 36.596 196.122 35.4932V35.2881C196.122 34.5498 196.263 33.8913 196.546 33.3125C196.833 32.7292 197.234 32.2757 197.749 31.9521C198.264 31.6286 198.838 31.4668 199.472 31.4668C200.479 31.4668 201.256 31.7881 201.803 32.4307C202.354 33.0732 202.63 33.9824 202.63 35.1582V35.8281H197.797C197.847 36.4388 198.05 36.9219 198.405 37.2773C198.765 37.6328 199.216 37.8105 199.759 37.8105C200.52 37.8105 201.14 37.5029 201.618 36.8877L202.514 37.7422C202.217 38.1842 201.821 38.5283 201.324 38.7744C200.832 39.016 200.278 39.1367 199.663 39.1367ZM199.465 32.7998C199.009 32.7998 198.64 32.9593 198.357 33.2783C198.079 33.5973 197.902 34.0417 197.824 34.6113H200.989V34.4883C200.953 33.9323 200.805 33.513 200.545 33.2305C200.285 32.9434 199.925 32.7998 199.465 32.7998ZM205.692 39H204.031V28.5H205.692V39ZM208.092 39V32.834H206.964V31.6035H208.092V30.9268C208.092 30.1064 208.32 29.473 208.775 29.0264C209.231 28.5798 209.869 28.3564 210.689 28.3564C210.981 28.3564 211.291 28.3975 211.619 28.4795L211.578 29.7783C211.396 29.7419 211.184 29.7236 210.942 29.7236C210.149 29.7236 209.753 30.1315 209.753 30.9473V31.6035H211.257V32.834H209.753V39H208.092Z" fill="#2D3C4A"/>
<defs>
<filter id="filter0_d_150_941" x="0.601562" y="0" width="253.398" height="82" filterUnits="userSpaceOnUse" color-interpolation-filters="sRGB">
<feFlood flood-opacity="0" result="BackgroundImageFix"/>
<feColorMatrix in="SourceAlpha" type="matrix" values="0 0 0 0 0 0 0 0 0 0 0 0 0 0 0 0 0 0 127 0" result="hardAlpha"/>
<feOffset dx="2" dy="8"/>
<feGaussianBlur stdDeviation="10"/>
<feComposite in2="hardAlpha" operator="out"/>
<feColorMatrix type="matrix" values="0 0 0 0 0 0 0 0 0 0.32549 0 0 0 0 0.658824 0 0 0 0.17 0"/>
<feBlend mode="normal" in2="BackgroundImageFix" result="effect1_dropShadow_150_941"/>
<feBlend mode="normal" in="SourceGraphic" in2="effect1_dropShadow_150_941" result="shape"/>
</filter>
</defs>
</svg>
