<svg width="32" height="32" viewBox="0 0 32 32" fill="none" xmlns="http://www.w3.org/2000/svg">
<path d="M15.198 0.0049005C12.63 0.0359005 7.109 0.457901 4.021 3.2909C1.724 5.5669 0.921997 8.9319 0.827997 13.0929C0.749997 17.2389 0.655997 25.0249 8.161 27.1449V30.3739C8.161 30.3739 8.114 31.6659 8.968 31.9309C10.02 32.2639 10.619 31.2699 11.619 30.2019L13.484 28.0929C18.619 28.5199 22.552 27.5359 23.005 27.3899C24.047 27.0569 29.916 26.3069 30.875 18.5199C31.859 10.4779 30.396 5.4109 27.755 3.1189H27.739C26.942 2.3849 23.739 0.0509005 16.583 0.0249005C16.583 0.0249005 16.052 -0.0110995 15.198 0.0039005V0.0049005ZM15.286 2.2659C16.015 2.2609 16.458 2.2919 16.458 2.2919C22.515 2.3079 25.406 4.1309 26.088 4.7449C28.312 6.6509 29.458 11.2189 28.619 17.9329C27.822 24.4429 23.062 24.8549 22.181 25.1359C21.806 25.2559 18.342 26.1099 13.978 25.8289C13.978 25.8289 10.728 29.7509 9.712 30.7609C9.551 30.9379 9.363 30.9899 9.243 30.9639C9.071 30.9219 9.019 30.7089 9.029 30.4169L9.06 25.0579C2.695 23.2979 3.07 16.6569 3.138 13.1879C3.216 9.7189 3.867 6.8809 5.805 4.9589C8.414 2.5999 13.102 2.2819 15.284 2.2659H15.286ZM15.766 5.7339C15.7136 5.73337 15.6616 5.74322 15.6131 5.76287C15.5645 5.78252 15.5203 5.81159 15.483 5.8484C15.4458 5.88521 15.4161 5.92904 15.3959 5.97735C15.3756 6.02567 15.3651 6.07751 15.365 6.1299C15.365 6.3539 15.547 6.5309 15.766 6.5309C16.7575 6.51204 17.7429 6.68967 18.6654 7.05353C19.588 7.41739 20.4293 7.96028 21.141 8.6509C22.594 10.0619 23.302 11.9579 23.329 14.4369C23.329 14.6559 23.506 14.8379 23.73 14.8379V14.8219C23.8356 14.8222 23.937 14.7807 24.0121 14.7065C24.0872 14.6323 24.1299 14.5315 24.131 14.4259C24.1796 13.2591 23.9903 12.0945 23.5748 11.0031C23.1593 9.91162 22.5262 8.91606 21.714 8.0769C20.131 6.5299 18.125 5.7329 15.766 5.7329V5.7339ZM10.495 6.6509C10.2119 6.60954 9.92326 6.66636 9.677 6.8119H9.656C9.08426 7.14704 8.56921 7.57062 8.13 8.0669C7.765 8.4889 7.567 8.9159 7.515 9.3269C7.484 9.5719 7.505 9.8169 7.578 10.0509L7.604 10.0669C8.015 11.2749 8.552 12.4369 9.208 13.5309C10.053 15.0679 11.0929 16.4893 12.302 17.7599L12.338 17.8119L12.395 17.8539L12.431 17.8959L12.473 17.9319C13.7482 19.1445 15.1731 20.1893 16.713 21.0409C18.473 21.9989 19.541 22.4519 20.182 22.6399V22.6499C20.37 22.7069 20.541 22.7329 20.713 22.7329C21.2593 22.6929 21.7764 22.4711 22.182 22.1029C22.676 21.6636 23.0949 21.1464 23.422 20.5719V20.5619C23.729 19.9839 23.625 19.4369 23.182 19.0669C22.2948 18.2914 21.3354 17.6026 20.317 17.0099C19.635 16.6399 18.942 16.8639 18.661 17.2389L18.062 17.9939C17.755 18.3689 17.197 18.3169 17.197 18.3169L17.181 18.3269C13.02 17.2639 11.91 13.0509 11.91 13.0509C11.91 13.0509 11.858 12.4779 12.243 12.1859L12.993 11.5819C13.352 11.2899 13.602 10.5979 13.217 9.9149C12.6284 8.89505 11.9411 7.93545 11.165 7.0499C10.9953 6.84113 10.7573 6.69909 10.493 6.6489L10.495 6.6509ZM16.458 7.8389C15.927 7.8389 15.927 8.6409 16.463 8.6409C17.1233 8.65161 17.775 8.79234 18.3808 9.05503C18.9867 9.31773 19.5349 9.69725 19.994 10.1719C20.4128 10.6339 20.7347 11.1753 20.9404 11.7639C21.1462 12.3526 21.2318 12.9766 21.192 13.5989C21.1938 13.7042 21.2368 13.8046 21.3118 13.8787C21.3867 13.9527 21.4877 13.9944 21.593 13.9949L21.609 14.0159C21.7151 14.0151 21.8166 13.9726 21.8917 13.8976C21.9667 13.8226 22.0092 13.721 22.01 13.6149C22.046 12.0259 21.552 10.6929 20.583 9.6249C19.609 8.5569 18.25 7.9579 16.515 7.8389H16.458ZM17.115 9.9949C16.568 9.9789 16.547 10.7969 17.089 10.8129C18.407 10.8809 19.047 11.5469 19.131 12.9169C19.1328 13.0209 19.1753 13.12 19.2493 13.1931C19.3233 13.2662 19.423 13.3074 19.527 13.3079H19.543C19.5965 13.3056 19.649 13.2927 19.6974 13.2699C19.7458 13.2471 19.7892 13.2149 19.825 13.1751C19.8609 13.1354 19.8884 13.0889 19.9061 13.0384C19.9238 12.9879 19.9312 12.9343 19.928 12.8809C19.834 11.0949 18.86 10.0889 17.131 9.9959H17.115V9.9949Z" fill="black"/>
</svg>
