<svg width="40" height="40" viewBox="0 0 40 40" fill="none" xmlns="http://www.w3.org/2000/svg">
<circle cx="20" cy="20" r="20" fill="#FFE9D2"/>
<g clip-path="url(#clip0_621_2739)">
<path d="M17.9374 15.3334H15.8541C15.5666 15.3334 15.3333 15.5667 15.3333 15.8542V22.1042C15.3333 22.3917 15.5666 22.625 15.8541 22.625H17.9374C18.2249 22.625 18.4583 22.3917 18.4583 22.1042V15.8542C18.4583 15.5667 18.2249 15.3334 17.9374 15.3334Z" fill="#EB731A"/>
<path d="M13.7707 18.4584H11.6873C11.3999 18.4584 11.1665 18.6917 11.1665 18.9792V22.1042C11.1665 22.3917 11.3999 22.625 11.6873 22.625H13.7707C14.0582 22.625 14.2915 22.3917 14.2915 22.1042V18.9792C14.2915 18.6917 14.0582 18.4584 13.7707 18.4584Z" fill="#EB731A"/>
<path d="M22.1039 12.2084H20.0206C19.7331 12.2084 19.4998 12.4417 19.4998 12.7292V22.1041C19.4998 22.3916 19.7331 22.625 20.0206 22.625H22.1039C22.3914 22.625 22.6248 22.3916 22.6248 22.1041V12.7292C22.6248 12.4417 22.3914 12.2084 22.1039 12.2084Z" fill="#EB731A"/>
<path d="M31.6945 30.2218L25.4769 24.0041C26.9478 22.2083 27.8331 19.9145 27.8331 17.4167C27.8331 11.673 23.1603 7.00012 17.4166 7.00012C11.6729 7.00012 7 11.673 7 17.4167C7 23.1604 11.6729 27.8332 17.4165 27.8332C19.9144 27.8332 22.2082 26.9478 24.004 25.477L30.2216 31.6947C30.4248 31.8978 30.6914 31.9999 30.9581 31.9999C31.2248 31.9999 31.4915 31.8978 31.6946 31.6947C32.1019 31.2874 32.1019 30.629 31.6945 30.2218ZM17.4165 25.7499C12.8218 25.7499 9.08328 22.0114 9.08328 17.4167C9.08328 12.8219 12.8218 9.0834 17.4165 9.0834C22.0113 9.0834 25.7498 12.8219 25.7498 17.4167C25.7498 22.0114 22.0113 25.7499 17.4165 25.7499Z" fill="#EB731A"/>
</g>
<defs>
<clipPath id="clip0_621_2739">
<rect width="25" height="25" fill="white" transform="translate(7 7)"/>
</clipPath>
</defs>
</svg>
