<svg width="40" height="40" viewBox="0 0 40 40" fill="none" xmlns="http://www.w3.org/2000/svg">
<circle cx="20" cy="20" r="20" fill="#FFE9D2"/>
<g clip-path="url(#clip0_621_2751)">
<path d="M19.5 21.3334C20.4688 20.3125 21.0625 18.9375 21.0625 17.4167V22.2709C20.6458 22.1563 20.2083 22.1042 19.7604 22.1042H19.5V21.3334Z" fill="#EB731A"/>
<path d="M32 9.08333V24.7083C32 25.8542 31.0625 26.7917 29.9167 26.7917H25.1667C25.0938 26.2396 24.9271 25.7083 24.6979 25.2292H29.1354C29.8542 25.2292 30.4375 24.6458 30.4375 23.9271V9.86458C30.4375 9.14583 29.8542 8.5625 29.1354 8.5625C28.9896 8.5625 28.875 8.67708 28.875 8.82292C28.875 9.82292 28.0521 10.6458 27.0521 10.6458H24.4479C23.4479 10.6458 22.625 9.82292 22.625 8.82292C22.625 8.67708 22.5104 8.5625 22.3646 8.5625C21.6458 8.5625 21.0625 9.14583 21.0625 9.86458V17.4167C21.0625 15.8958 20.4688 14.5208 19.5 13.4896V9.08333C19.5 7.9375 20.4375 7 21.5833 7H29.9167C31.0625 7 32 7.9375 32 9.08333Z" fill="#EB731A"/>
<path d="M25.75 16.375C24.8885 16.375 24.1875 15.674 24.1875 14.8125C24.1875 13.951 24.8885 13.25 25.75 13.25C26.6115 13.25 27.3125 13.951 27.3125 14.8125C27.3125 15.674 26.6115 16.375 25.75 16.375Z" fill="#EB731A"/>
<path d="M28.0938 20.5417H23.4062C22.975 20.5417 22.625 20.1917 22.625 19.7604C22.625 18.4677 23.676 17.4167 24.9688 17.4167H26.5312C27.824 17.4167 28.875 18.4677 28.875 19.7604C28.875 20.1917 28.525 20.5417 28.0938 20.5417Z" fill="#EB731A"/>
<path d="M15.3334 21.5833C13.0355 21.5833 11.1667 19.7146 11.1667 17.4167C11.1667 15.1188 13.0355 13.25 15.3334 13.25C17.6313 13.25 19.5001 15.1188 19.5001 17.4167C19.5001 19.7146 17.6313 21.5833 15.3334 21.5833Z" fill="#EB731A"/>
<path d="M22.8854 32H7.78125C7.35 32 7 31.65 7 31.2188V27.5729C7 25.4188 8.75208 23.6667 10.9063 23.6667H19.7604C21.9146 23.6667 23.6667 25.4188 23.6667 27.5729V31.2188C23.6667 31.65 23.3167 32 22.8854 32Z" fill="#EB731A"/>
</g>
<defs>
<clipPath id="clip0_621_2751">
<rect width="25" height="25" fill="white" transform="translate(7 7)"/>
</clipPath>
</defs>
</svg>
