<svg width="40" height="40" viewBox="0 0 40 40" fill="none" xmlns="http://www.w3.org/2000/svg">
<circle cx="20" cy="20" r="20" fill="#FFE9D2"/>
<g clip-path="url(#clip0_621_2762)">
<path d="M28.8745 24.1879H17.9375H7.7817C7.35047 24.1879 7.00049 24.5378 7.00049 24.9691V31.2188C7.00049 31.65 7.35047 32 7.7817 32H10.1254V29.6564C10.1254 29.2251 10.4753 28.8752 10.9066 28.8752C11.3378 28.8752 11.6878 29.2251 11.6878 29.6564V32H13.2502V28.0939C13.2502 27.6627 13.6002 27.3127 14.0314 27.3127C14.4627 27.3127 14.8127 27.6627 14.8127 28.0939V32H16.3751V29.6564C16.3751 29.2251 16.7251 28.8752 17.1563 28.8752C17.5875 28.8752 17.9375 29.2251 17.9375 29.6564V32H19.5V29.6564C19.5 29.2251 19.8499 28.8752 20.2812 28.8752C20.7124 28.8752 21.0624 29.2251 21.0624 29.6564V32H22.6248V28.0939C22.6248 27.6627 22.9748 27.3127 23.406 27.3127C23.8373 27.3127 24.1873 27.6627 24.1873 28.0939V32H25.7497V29.6564C25.7497 29.2251 26.0997 28.8752 26.5309 28.8752C26.9621 28.8752 27.3121 29.2251 27.3121 29.6564V32H28.8745C30.601 32 31.9994 30.6016 31.9994 28.8752V21.063C31.9994 22.7879 30.601 24.1879 28.8745 24.1879Z" fill="#EB731A"/>
<path d="M24.0749 15.1507C22.0344 12.5086 19.272 13.2633 17.6236 13.7164C17.3361 13.7945 17.0705 13.8617 16.8315 13.9133C16.4205 12.8477 15.8909 10.3103 19.0985 8.4588C19.472 8.24319 19.6001 7.76508 19.3845 7.39166C19.1673 7.01668 18.6892 6.88856 18.3173 7.10574C17.0346 7.84633 16.2049 8.71348 15.6878 9.61032C15.5362 9.35564 15.3706 9.10721 15.1706 8.87597C14.1269 7.66665 12.6082 7.00105 10.8958 7.00105C10.4645 7.00105 10.1146 7.35104 10.1146 7.78227C10.1146 9.49469 10.7802 11.0134 11.9895 12.0586C12.8801 12.8289 13.966 13.2461 15.0456 13.2508C15.0722 13.4148 15.1034 13.5726 15.1409 13.7273C15.1268 13.7226 15.1159 13.7195 15.1034 13.7164C13.455 13.2664 10.6942 12.5102 8.65212 15.1507C6.97563 17.324 6.56315 20.0552 7.47092 22.6254H25.2577C26.1639 20.0552 25.7529 17.324 24.0749 15.1507Z" fill="#EB731A"/>
<path d="M28.0933 17.9381H27.059C27.3965 19.4599 27.3418 21.0552 26.8809 22.6254H28.0933C29.387 22.6254 30.437 21.5755 30.437 20.2818C30.437 18.9881 29.387 17.9381 28.0933 17.9381Z" fill="#EB731A"/>
</g>
<defs>
<clipPath id="clip0_621_2762">
<rect width="25" height="25" fill="white" transform="translate(7 7)"/>
</clipPath>
</defs>
</svg>
