<svg width="40" height="40" viewBox="0 0 40 40" fill="none" xmlns="http://www.w3.org/2000/svg">
<circle cx="20" cy="20" r="20" fill="#FFE9D2"/>
<g clip-path="url(#clip0_621_2776)">
<path d="M30.8922 16.1953C29.511 14.3203 27.6235 14.8063 26.5579 15.1109C26.6532 14.3719 26.9563 13.2719 27.8985 12.2062C28.1844 11.8828 28.1532 11.3891 27.8297 11.1031C27.5079 10.8187 27.0157 10.8437 26.7266 11.1703C26.2485 11.7109 25.9079 12.2625 25.6516 12.7937C25.2797 11.0109 23.5969 9.34375 21.0626 9.34375C21.0626 12.2031 23.1797 13.9859 25.1969 14.0078C25.086 14.4203 25.0157 14.8016 24.9844 15.1219C23.9266 14.8187 22.0047 14.2969 20.6079 16.1953C19.3094 17.9563 19.1422 20.2125 20.161 22.2266C21.2422 24.3672 23.436 25.75 25.7501 25.75C28.0626 25.75 30.2579 24.3672 31.3391 22.2281C32.3579 20.2125 32.1907 17.9563 30.8922 16.1953Z" fill="#EB731A"/>
<path d="M18.7188 10.125H14.0312C13.6 10.125 13.25 10.475 13.25 10.9062C13.25 11.3375 13.6 11.6875 14.0312 11.6875H18.7188C19.15 11.6875 19.5 11.3375 19.5 10.9062C19.5 10.475 19.15 10.125 18.7188 10.125Z" fill="#EB731A"/>
<path d="M18.7188 13.25H14.0312C13.6 13.25 13.25 13.6 13.25 14.0312C13.25 14.4625 13.6 14.8125 14.0312 14.8125H18.7188C19.15 14.8125 19.5 14.4625 19.5 14.0312C19.5 13.6 19.15 13.25 18.7188 13.25Z" fill="#EB731A"/>
<path d="M17.1562 16.375H14.0312C13.6 16.375 13.25 16.725 13.25 17.1562C13.25 17.5875 13.6 17.9375 14.0312 17.9375H17.1562C17.5875 17.9375 17.9375 17.5875 17.9375 17.1562C17.9375 16.725 17.5875 16.375 17.1562 16.375Z" fill="#EB731A"/>
<path d="M27.3125 10.125V8.5625C27.3125 7.7 26.6125 7 25.75 7H11.6875C10.825 7 10.125 7.7 10.125 8.5625V27.3125H7.78126C7.34532 27.3125 6.99844 27.6766 7.00001 28.1125C7.01094 30.2594 8.75782 32 10.9063 32H23.4063C25.5641 32 27.3125 30.2516 27.3125 28.0938V27.3125H25.75V28.0938C25.75 29.3859 24.6984 30.4375 23.4063 30.4375C22.1141 30.4375 21.0625 29.3859 21.0625 28.0938C21.0625 27.6625 20.7125 27.3125 20.2813 27.3125H11.6875V8.5625H25.75V10.125H27.3125Z" fill="#EB731A"/>
</g>
<defs>
<clipPath id="clip0_621_2776">
<rect width="25" height="25" fill="white" transform="translate(7 7)"/>
</clipPath>
</defs>
</svg>
