<svg width="40" height="40" viewBox="0 0 40 40" fill="none" xmlns="http://www.w3.org/2000/svg">
<rect width="40" height="40" rx="20" fill="#1375D6"/>
<path d="M19.8007 18.5795C21.9649 18.5795 23.7286 16.8159 23.7286 14.6482C23.7286 12.4805 21.9649 10.7168 19.8007 10.7168C17.633 10.7168 15.8694 12.4805 15.8694 14.6482C15.8694 16.8159 17.633 18.5795 19.8007 18.5795Z" fill="white"/>
<path d="M12.8762 27.3979H22.0916V24.9456C22.0916 24.3413 22.4534 23.8178 22.9699 23.5824V23.059C22.9699 21.9769 23.6198 21.0423 24.5508 20.6313C23.8376 20.2308 23.0226 20.0059 22.1723 20.0059H17.4294C14.7242 20.0059 12.5249 22.2052 12.5249 24.9105V27.0465C12.5249 27.2398 12.6795 27.3979 12.8762 27.3979Z" fill="white"/>
<path d="M23.6725 23.0589V24.148H23.5952C23.1526 24.148 22.7942 24.5064 22.7942 24.9456V27.4856C22.7942 27.9248 23.1526 28.2832 23.5952 28.2832H27.6776C28.1203 28.2832 28.4752 27.9248 28.4752 27.4856V24.9456C28.4752 24.5064 28.1203 24.148 27.6776 24.148H27.5968V23.0589C27.5968 21.9768 26.7185 21.0985 25.6364 21.0985C24.5544 21.0985 23.6725 21.9768 23.6725 23.0589ZM24.3752 23.0589C24.3752 22.3668 24.9408 21.8012 25.6364 21.8012C26.3321 21.8012 26.8942 22.3668 26.8942 23.0589V24.148H24.3752V23.0589Z" fill="white"/>
</svg>
