<svg width="28" height="28" viewBox="0 0 28 28" fill="none" xmlns="http://www.w3.org/2000/svg">
<path d="M16.5724 10.8787C20.1105 10.8787 22.986 13.6817 22.986 17.1308V23.3827H16.3794C12.9508 23.3827 10.1589 20.6612 10.1589 17.3189V17.1308C10.1589 13.6817 13.0343 10.8787 16.5724 10.8787ZM16.5724 6.48853C10.5451 6.48853 5.65533 11.2501 5.65533 17.1308V17.3189C5.65533 23.0929 10.4564 27.773 16.3794 27.773H25.757C26.7119 27.773 27.4842 27.02 27.4842 26.0891V17.1359C27.4842 11.2551 22.5997 6.48853 16.5724 6.48853Z" fill="#EB731A"/>
<path d="M0.524723 4.60838C0.524723 7.02984 2.53908 8.98836 5.01786 8.98836C7.50187 8.98836 9.51099 7.02473 9.51099 4.60838V4.53208C9.51099 2.1564 7.53316 0.228394 5.09612 0.228394H0.519531L0.524723 4.60838Z" fill="#EB731A"/>
<path d="M12.9612 0.228394C11.7662 0.228394 10.8008 1.1695 10.8008 2.33445V3.12803C10.8008 4.29297 11.7662 5.23409 12.9612 5.23409H13.8223C14.9912 5.23409 15.9357 4.30823 15.9357 3.17381V0.228394H12.9612Z" fill="#EB731A"/>
</svg>
