<svg width="12" height="12" viewBox="0 0 12 12" fill="none" xmlns="http://www.w3.org/2000/svg">
<path d="M11.647 1.76366C11.8423 1.5684 11.8423 1.25182 11.647 1.05656L10.9441 0.353663C10.7489 0.1584 10.4323 0.158401 10.237 0.353666L6.35412 4.23662C6.15887 4.43187 5.8423 4.43188 5.64703 4.23664L1.76355 0.353602C1.56829 0.158358 1.25172 0.158367 1.05647 0.353621L0.353573 1.05651C0.158303 1.25178 0.158312 1.56838 0.353593 1.76364L4.237 5.64661C4.43228 5.84187 4.43229 6.15846 4.23703 6.35373L0.354216 10.2367C0.15896 10.4319 0.158963 10.7485 0.354223 10.9438L1.05712 11.6467C1.25238 11.8419 1.56897 11.8419 1.76423 11.6467L5.64703 7.76373C5.84229 7.56846 6.15888 7.56846 6.35415 7.76373L10.2369 11.6467C10.4322 11.8419 10.7488 11.8419 10.9441 11.6467L11.647 10.9438C11.8422 10.7485 11.8422 10.4319 11.647 10.2367L7.76413 6.35371C7.56887 6.15844 7.56887 5.84187 7.76413 5.64661L11.647 1.76366Z" fill="#141729"/>
</svg>
