<svg width="110" height="76" viewBox="0 0 110 76" fill="none" xmlns="http://www.w3.org/2000/svg">
<mask id="mask0" style="mask-type:alpha" maskUnits="userSpaceOnUse" x="60" y="11" width="8" height="7">
<path d="M67 17.7002H60.85C60.4367 17.7002 60.1 17.3635 60.1 16.9502V12.4502C60.1 12.0369 60.4367 11.7002 60.85 11.7002H62.35C62.3898 11.7002 62.4279 11.716 62.4561 11.7441C62.4842 11.7723 62.5 11.8104 62.5 11.8502C62.5 11.89 62.4842 11.9281 62.4561 11.9563C62.4279 11.9844 62.3898 12.0002 62.35 12.0002H60.85C60.7909 12.0002 60.7324 12.0118 60.6778 12.0345C60.6232 12.0571 60.5736 12.0902 60.5318 12.132C60.49 12.1738 60.4569 12.2234 60.4343 12.278C60.4116 12.3326 60.4 12.3911 60.4 12.4502V16.9502C60.4 17.0695 60.4474 17.184 60.5318 17.2684C60.6162 17.3528 60.7307 17.4002 60.85 17.4002H67C67.0398 17.4002 67.0779 17.416 67.1061 17.4441C67.1342 17.4723 67.15 17.5104 67.15 17.5502C67.15 17.59 67.1342 17.6281 67.1061 17.6563C67.0779 17.6844 67.0398 17.7002 67 17.7002Z" fill="white"/>
</mask>
<g mask="url(#mask0)">
<path d="M67 17.6997H60.85C60.4366 17.6997 60.1 17.363 60.1 16.9497V12.4497C60.1 12.0364 60.4366 11.6997 60.85 11.6997H62.35C62.3898 11.6997 62.4279 11.7155 62.456 11.7436C62.4842 11.7718 62.5 11.8099 62.5 11.8497C62.5 11.8895 62.4842 11.9276 62.456 11.9558C62.4279 11.9839 62.3898 11.9997 62.35 11.9997H60.85C60.7909 11.9997 60.7324 12.0113 60.6778 12.034C60.6232 12.0566 60.5736 12.0897 60.5318 12.1315C60.49 12.1733 60.4568 12.2229 60.4342 12.2775C60.4116 12.3321 60.4 12.3906 60.4 12.4497V16.9497C60.4 17.0691 60.4474 17.1835 60.5318 17.2679C60.6162 17.3523 60.7306 17.3997 60.85 17.3997H67C67.0398 17.3997 67.0779 17.4155 67.106 17.4436C67.1342 17.4718 67.15 17.5099 67.15 17.5497C67.15 17.5895 67.1342 17.6276 67.106 17.6558C67.0779 17.6839 67.0398 17.6997 67 17.6997Z" fill="#333333"/>
<path d="M67 17.0332H60.85V18.3665H67V17.0332ZM60.85 17.0332C60.8047 17.0332 60.7667 16.9952 60.7667 16.9499H59.4333C59.4333 17.7319 60.068 18.3665 60.85 18.3665V17.0332ZM60.7667 16.9499V12.4499H59.4333V16.9499H60.7667ZM60.7667 12.4499C60.7667 12.4042 60.8047 12.3665 60.85 12.3665V11.0332C60.068 11.0332 59.4333 11.6679 59.4333 12.4499H60.7667ZM60.85 12.3665H62.35V11.0332H60.85V12.3665ZM62.35 12.3665C62.213 12.3665 62.0815 12.3121 61.9846 12.2152C61.8878 12.1183 61.8333 11.9869 61.8333 11.8499H63.1667C63.1667 11.6333 63.0806 11.4256 62.9275 11.2724C62.7743 11.1192 62.5666 11.0332 62.35 11.0332V12.3665ZM61.8333 11.8499C61.8333 11.7128 61.8878 11.5814 61.9846 11.4845C62.0815 11.3876 62.213 11.3332 62.35 11.3332V12.6665C62.5666 12.6665 62.7743 12.5805 62.9275 12.4273C63.0806 12.2742 63.1667 12.0665 63.1667 11.8499H61.8333ZM62.35 11.3332H60.85V12.6665H62.35V11.3332ZM60.85 11.3332C60.2333 11.3332 59.7333 11.8332 59.7333 12.4499H61.0667C61.0667 12.5073 61.0438 12.5624 61.0032 12.6031C60.9626 12.6437 60.9074 12.6665 60.85 12.6665V11.3332ZM59.7333 12.4499V16.9499H61.0667V12.4499H59.7333ZM59.7333 16.9499C59.7333 17.5665 60.2333 18.0665 60.85 18.0665V16.7332C60.9074 16.7332 60.9626 16.756 61.0032 16.7967C61.0438 16.8373 61.0667 16.8924 61.0667 16.9499H59.7333ZM60.85 18.0665H67V16.7332H60.85V18.0665ZM67 18.0665C66.863 18.0665 66.7315 18.0121 66.6346 17.9152C66.5378 17.8183 66.4833 17.6869 66.4833 17.5499H67.8167C67.8167 17.4426 67.7955 17.3364 67.7545 17.2373C67.7134 17.1383 67.6533 17.0482 67.5775 16.9724C67.5016 16.8966 67.4116 16.8364 67.3125 16.7954C67.2134 16.7543 67.1072 16.7332 67 16.7332V18.0665ZM66.4833 17.5499C66.4833 17.4128 66.5378 17.2814 66.6346 17.1845C66.7315 17.0876 66.863 17.0332 67 17.0332V18.3665C67.1072 18.3665 67.2134 18.3454 67.3125 18.3044C67.4116 18.2633 67.5016 18.2032 67.5775 18.1273C67.6533 18.0515 67.7134 17.9615 67.7545 17.8624C67.7955 17.7633 67.8167 17.6571 67.8167 17.5499H66.4833Z" fill="#333333"/>
</g>
<mask id="mask1" style="mask-type:alpha" maskUnits="userSpaceOnUse" x="51" y="22" width="9" height="2">
<path d="M51.25 23.3998H59.3533L59.3613 22.7998H51.25V23.3998Z" fill="white"/>
</mask>
<g mask="url(#mask1)">
<path d="M51.25 23.3998H59.3533L59.3613 22.7998H51.25V23.3998Z" fill="#333333"/>
<path d="M51.25 23.4H50.5833V24.0666H51.25V23.4ZM59.3533 23.4V24.0666H60.011L60.02 23.409L59.3533 23.4ZM59.3613 22.8L60.028 22.809L60.037 22.1333H59.3613V22.8ZM51.2497 22.8V22.1333H50.583V22.8H51.2497ZM51.2497 24.0666H59.353V22.7333H51.25V24.0666H51.2497ZM60.0197 23.409L60.0277 22.809L58.6943 22.791L58.6863 23.391L60.0197 23.409ZM59.3617 22.1333H51.25V23.4666H59.3617V22.1333ZM50.5833 22.8V23.4H51.9167V22.8H50.5833Z" fill="#333333"/>
</g>
<mask id="mask2" style="mask-type:alpha" maskUnits="userSpaceOnUse" x="50" y="6" width="18" height="18">
<path d="M67.086 15.1276L64.9667 11.1922C64.5517 10.4032 63.74 9.90157 62.8473 9.8999H58V8.6999C58 7.70724 57.1927 6.8999 56.2 6.8999H50.7067L50.7743 7.4999H56.2C56.8617 7.4999 57.4 8.03824 57.4 8.6999V10.1999C57.4 10.2794 57.4315 10.3556 57.4876 10.4118C57.5437 10.468 57.6199 10.4997 57.6993 10.4999H62.846C63.5153 10.5012 64.1243 10.8799 64.437 11.4742L66.557 15.4119C66.6498 15.5851 66.6987 15.7784 66.6993 15.9749V21.6002C66.699 22.2616 66.161 22.8002 65.4993 22.8002H64.455L64.447 23.4002H65.5C66.4923 23.4002 67.2993 22.5929 67.2993 21.6002V15.9736C67.2984 15.6782 67.225 15.3876 67.0857 15.1272L67.086 15.1276Z" fill="white"/>
</mask>
<g mask="url(#mask2)">
<path d="M67.086 15.1276L64.9667 11.1922C64.5517 10.4032 63.74 9.90157 62.8473 9.8999H58V8.6999C58 7.70724 57.1927 6.8999 56.2 6.8999H50.7067L50.7743 7.4999H56.2C56.8617 7.4999 57.4 8.03824 57.4 8.6999V10.1999C57.4 10.2794 57.4315 10.3556 57.4876 10.4118C57.5437 10.468 57.6199 10.4997 57.6993 10.4999H62.846C63.5153 10.5012 64.1243 10.8799 64.437 11.4742L66.557 15.4119C66.6498 15.5851 66.6987 15.7784 66.6993 15.9749V21.6002C66.699 22.2616 66.161 22.8002 65.4993 22.8002H64.455L64.447 23.4002H65.5C66.4923 23.4002 67.2993 22.5929 67.2993 21.6002V15.9736C67.2984 15.6782 67.225 15.3876 67.0857 15.1272L67.086 15.1276Z" fill="#333333"/>
<path d="M67.086 15.1274L67.6727 14.8114L67.086 15.1274ZM64.9667 11.1921L64.3767 11.5021L64.3783 11.5054L64.38 11.5087L64.9667 11.1927V11.1921ZM62.8477 9.90006L62.849 9.2334H62.8477V9.90006ZM58 9.90006H57.3333V10.5667H58V9.90006ZM50.7067 6.90006V6.2334H49.96L50.0433 6.97506L50.7057 6.90006H50.7067ZM50.7743 7.50006L50.112 7.57506L50.1787 8.16673H50.7743V7.50006ZM57.699 10.5001L57.6977 11.1667H57.699V10.5001ZM62.8457 10.5001L62.847 9.8334H62.8457V10.5001ZM64.4367 11.4744L63.8467 11.7844L63.85 11.7901L64.4367 11.4741V11.4744ZM66.5567 15.4121L65.97 15.7281V15.7284L66.5567 15.4117V15.4121ZM66.699 15.9754H67.3657V15.9734L66.699 15.9754ZM64.455 22.8007V22.1341H63.7973L63.7883 22.7917L64.455 22.8007ZM64.447 23.4007L63.7803 23.3917L63.7713 24.0674H64.447V23.4007ZM67.3 15.9734H67.9667V15.9707L67.3 15.9734ZM67.6733 14.8111L65.554 10.8761L64.38 11.5084L66.4993 15.4434L67.6733 14.8111ZM65.5567 10.8821C65.029 9.88206 63.9933 9.2354 62.8487 9.2334L62.846 10.5667C63.486 10.5681 64.0743 10.9281 64.376 11.5027L65.556 10.8821H65.5567ZM62.8477 9.2334H58V10.5667H62.8477V9.2334ZM58.6667 9.90006V8.70006H57.3333V9.90006H58.6667ZM58.6667 8.70006C58.6658 8.04613 58.4056 7.41924 57.9432 6.95684C57.4808 6.49444 56.8539 6.23428 56.2 6.2334V7.56673C56.8247 7.56673 57.3333 8.0754 57.3333 8.70006H58.6667ZM56.2 6.2334H50.7067V7.56673H56.2V6.2334ZM50.0447 6.97506L50.1123 7.57506L51.4373 7.42506L51.3697 6.82506L50.0447 6.97506ZM50.7747 8.16673H56.2V6.8334H50.775V8.16673H50.7747ZM56.2 8.16673C56.4933 8.16673 56.7333 8.40673 56.7333 8.70006H58.0667C58.0667 7.66673 57.2333 6.8334 56.2 6.8334V8.16673ZM56.7333 8.70006V10.2001H58.0667V8.70006H56.7333ZM56.7333 10.2001C56.7333 10.4562 56.8349 10.7018 57.0159 10.883C57.1968 11.0642 57.4422 11.1663 57.6983 11.1667L57.7007 9.8334C57.7978 9.83357 57.8909 9.87228 57.9595 9.94103C58.0281 10.0098 58.0667 10.1029 58.0667 10.2001H56.7333ZM57.6993 11.1667H62.846V9.8334H57.6993V11.1667ZM62.8453 11.1667C63.26 11.1674 63.6463 11.4024 63.8473 11.7847L65.0273 11.1641C64.6033 10.3574 63.7717 9.83506 62.8473 9.8334L62.845 11.1667H62.8453ZM63.8503 11.7901L65.9703 15.7277L67.1443 15.0954L65.0243 11.1581L63.8503 11.7904V11.7901ZM65.9703 15.7277C66.0103 15.8021 66.0323 15.8891 66.0327 15.9767L67.366 15.9727C67.3651 15.6665 67.2888 15.3652 67.144 15.0954L65.9707 15.7281L65.9703 15.7277ZM66.0327 15.9744V21.6001H67.366V15.9747H66.0327V15.9744ZM66.0327 21.5994C66.0327 21.8934 65.7927 22.1327 65.4993 22.1327V23.4661C66.5327 23.4661 67.3653 22.6294 67.366 21.6001H66.0327V21.5994ZM65.4993 22.1327H64.455V23.4661H65.5V22.1327H65.4993ZM63.7883 22.7904L63.7803 23.3904L65.1137 23.4084L65.1217 22.8084L63.7883 22.7904ZM64.4467 24.0661H65.5V22.7327H64.4477V24.0661H64.4467ZM65.499 24.0661C66.8597 24.0661 67.965 22.9601 67.965 21.5994H66.6317C66.6317 22.2237 66.123 22.7327 65.499 22.7327V24.0661ZM67.965 21.5994V15.9734H66.6317V21.6001H67.965V21.5994ZM67.965 15.9701C67.9635 15.5654 67.8628 15.1674 67.6717 14.8107L66.4977 15.4424C66.5851 15.6065 66.6311 15.7895 66.6317 15.9754L67.965 15.9701Z" fill="#333333"/>
</g>
<mask id="mask3" style="mask-type:alpha" maskUnits="userSpaceOnUse" x="43" y="10" width="4" height="14">
<path d="M43.9 11.4632L43.3 10.9648V22.7998C43.3 22.959 43.3632 23.1116 43.4758 23.2241C43.5883 23.3366 43.7409 23.3998 43.9 23.3998H46.15V22.7998H43.9V11.4632Z" fill="white"/>
</mask>
<g mask="url(#mask3)">
<path d="M43.9 11.4632L43.3 10.9648V22.7998C43.3 22.959 43.3632 23.1116 43.4757 23.2241C43.5882 23.3366 43.7409 23.3998 43.9 23.3998H46.15V22.7998H43.9V11.4632Z" fill="#333333"/>
<path d="M43.9 11.4634H44.5667V11.1501L44.326 10.9501L43.9 11.4634ZM43.3 10.9651L43.726 10.4517L42.6333 9.54541V10.9654H43.3V10.9651ZM46.15 23.4001V24.0667H46.8167V23.4001H46.15ZM46.15 22.8001H46.8167V22.1334H46.15V22.8001ZM43.9 22.8001H43.2333V23.4667H43.9V22.8001ZM44.326 10.9511L43.726 10.4527L42.874 11.4784L43.474 11.9767L44.326 10.9511ZM42.6333 10.9657V22.8001H43.9667V10.9657H42.6333ZM42.6333 22.8001C42.6333 23.4991 43.201 24.0667 43.9 24.0667V22.7334C43.9373 22.7334 43.9667 22.7627 43.9667 22.8001H42.6333ZM43.9 24.0667H46.15V22.7334H43.9V24.0667ZM46.8167 23.4001V22.8001H45.4833V23.4001H46.8167ZM46.15 22.1334H43.9V23.4667H46.15V22.1334ZM44.5667 22.8001V11.4634H43.2333V22.8001H44.5667Z" fill="#333333"/>
</g>
<mask id="mask4" style="mask-type:alpha" maskUnits="userSpaceOnUse" x="57" y="10" width="1" height="14">
<path d="M57.7 10.2002H57.4V23.1002H57.7V10.2002Z" fill="white"/>
</mask>
<g mask="url(#mask4)">
<path d="M57.7 10.1997H57.4V23.0997H57.7V10.1997Z" fill="#333333"/>
<path d="M57.4 10.1999V9.5332H56.7333V10.1999H57.4ZM57.7 10.1999H58.3667V9.5332H57.7V10.1999ZM57.7 23.0999V23.7665H58.3667V23.0999H57.7ZM57.4 23.0999H56.7333V23.7665H57.4V23.0999ZM57.4 10.8665H57.7V9.5332H57.4V10.8665ZM57.0333 10.1999V23.0999H58.3667V10.1999H57.0333ZM57.7 22.4332H57.4V23.7665H57.7V22.4332ZM58.0667 23.0999V10.1999H56.7333V23.0999H58.0667Z" fill="#333333"/>
</g>
<mask id="mask5" style="mask-type:alpha" maskUnits="userSpaceOnUse" x="43" y="19" width="3" height="3">
<path d="M44.95 21.8998H43.75C43.7102 21.8998 43.6721 21.884 43.6439 21.8559C43.6158 21.8277 43.6 21.7896 43.6 21.7498V19.9498C43.6 19.91 43.6158 19.8719 43.6439 19.8437C43.6721 19.8156 43.7102 19.7998 43.75 19.7998H44.95C45.3633 19.7998 45.7 20.1365 45.7 20.5498V21.1498C45.7 21.5631 45.3633 21.8998 44.95 21.8998ZM43.9 21.5998H44.95C45.0694 21.5998 45.1838 21.5524 45.2682 21.468C45.3526 21.3836 45.4 21.2692 45.4 21.1498V20.5498C45.4 20.4305 45.3526 20.316 45.2682 20.2316C45.1838 20.1472 45.0694 20.0998 44.95 20.0998H43.9V21.5998Z" fill="white"/>
</mask>
<g mask="url(#mask5)">
<path d="M44.95 21.8998H43.75C43.7102 21.8998 43.6721 21.884 43.6439 21.8559C43.6158 21.8277 43.6 21.7896 43.6 21.7498V19.9498C43.6 19.91 43.6158 19.8719 43.6439 19.8437C43.6721 19.8156 43.7102 19.7998 43.75 19.7998H44.95C45.3633 19.7998 45.7 20.1365 45.7 20.5498V21.1498C45.7 21.5631 45.3633 21.8998 44.95 21.8998ZM43.9 21.5998H44.95C45.0694 21.5998 45.1838 21.5524 45.2682 21.468C45.3526 21.3836 45.4 21.2692 45.4 21.1498V20.5498C45.4 20.4305 45.3526 20.316 45.2682 20.2316C45.1838 20.1472 45.0694 20.0998 44.95 20.0998H43.9V21.5998Z" fill="#333333"/>
<path d="M43.9 21.6H43.2333V22.2666H43.9V21.6ZM43.9 20.1V19.4333H43.2333V20.1H43.9ZM44.95 21.2333H43.75V22.5666H44.95V21.2333ZM43.75 21.2333C43.887 21.2333 44.0185 21.2877 44.1154 21.3846C44.2122 21.4815 44.2667 21.6129 44.2667 21.75H42.9333C42.9333 21.9666 43.0194 22.1743 43.1725 22.3274C43.3257 22.4806 43.5334 22.5666 43.75 22.5666V21.2333ZM44.2667 21.75V19.95H42.9333V21.75H44.2667ZM44.2667 19.95C44.2667 20.087 44.2122 20.2184 44.1154 20.3153C44.0185 20.4122 43.887 20.4666 43.75 20.4666V19.1333C43.5334 19.1333 43.3257 19.2193 43.1725 19.3725C43.0194 19.5257 42.9333 19.7334 42.9333 19.95H44.2667ZM43.75 20.4666H44.95V19.1333H43.75V20.4666ZM44.95 20.4666C44.9957 20.4666 45.0333 20.5046 45.0333 20.55H46.3667C46.3667 19.768 45.732 19.1333 44.95 19.1333V20.4666ZM45.0333 20.55V21.15H46.3667V20.55H45.0333ZM45.0333 21.15C45.0333 21.1956 44.9957 21.2333 44.95 21.2333V22.5666C45.732 22.5666 46.3667 21.932 46.3667 21.15H45.0333ZM43.9 22.2666H44.95V20.9333H43.9V22.2666ZM44.95 22.2666C45.5667 22.2666 46.0667 21.7666 46.0667 21.15H44.7333C44.7333 21.0925 44.7562 21.0374 44.7968 20.9968C44.8374 20.9561 44.8926 20.9333 44.95 20.9333V22.2666ZM46.0667 21.15V20.55H44.7333V21.15H46.0667ZM46.0667 20.55C46.0667 19.9333 45.5667 19.4333 44.95 19.4333V20.7666C44.8926 20.7666 44.8374 20.7438 44.7968 20.7032C44.7562 20.6625 44.7333 20.6074 44.7333 20.55H46.0667ZM44.95 19.4333H43.9V20.7666H44.95V19.4333ZM43.2333 20.1V21.6H44.5667V20.1H43.2333Z" fill="#333333"/>
</g>
<mask id="mask6" style="mask-type:alpha" maskUnits="userSpaceOnUse" x="64" y="19" width="3" height="3">
<path d="M66.85 21.8998H65.65C65.2367 21.8998 64.9 21.5631 64.9 21.1498V20.5498C64.9 20.1365 65.2367 19.7998 65.65 19.7998H66.85C66.8898 19.7998 66.9279 19.8156 66.9561 19.8437C66.9842 19.8719 67 19.91 67 19.9498V21.7498C67 21.7695 66.9961 21.789 66.9886 21.8072C66.981 21.8254 66.97 21.8419 66.9561 21.8559C66.9421 21.8698 66.9256 21.8809 66.9074 21.8884C66.8892 21.8959 66.8697 21.8998 66.85 21.8998ZM65.65 20.0998C65.5306 20.0998 65.4162 20.1472 65.3318 20.2316C65.2474 20.316 65.2 20.4305 65.2 20.5498V21.1498C65.2 21.2692 65.2474 21.3836 65.3318 21.468C65.4162 21.5524 65.5306 21.5998 65.65 21.5998H66.7V20.0998H65.65Z" fill="white"/>
</mask>
<g mask="url(#mask6)">
<path d="M66.85 21.8998H65.65C65.2367 21.8998 64.9 21.5631 64.9 21.1498V20.5498C64.9 20.1365 65.2367 19.7998 65.65 19.7998H66.85C66.8898 19.7998 66.928 19.8156 66.9561 19.8437C66.9842 19.8719 67 19.91 67 19.9498V21.7498C67 21.7695 66.9961 21.789 66.9886 21.8072C66.9811 21.8254 66.97 21.8419 66.9561 21.8559C66.9422 21.8698 66.9256 21.8809 66.9074 21.8884C66.8892 21.8959 66.8697 21.8998 66.85 21.8998ZM65.65 20.0998C65.5307 20.0998 65.4162 20.1472 65.3318 20.2316C65.2474 20.316 65.2 20.4305 65.2 20.5498V21.1498C65.2 21.2692 65.2474 21.3836 65.3318 21.468C65.4162 21.5524 65.5307 21.5998 65.65 21.5998H66.7V20.0998H65.65Z" fill="#333333"/>
<path d="M66.7 21.6V22.2666H67.3667V21.6H66.7ZM66.7 20.1H67.3667V19.4333H66.7V20.1ZM66.85 21.2333H65.65V22.5666H66.85V21.2333ZM65.65 21.2333C65.6047 21.2333 65.5667 21.1956 65.5667 21.15H64.2333C64.2333 21.932 64.868 22.5666 65.65 22.5666V21.2333ZM65.5667 21.15V20.55H64.2333V21.15H65.5667ZM65.5667 20.55C65.5667 20.5046 65.6043 20.4666 65.65 20.4666V19.1333C64.868 19.1333 64.2333 19.768 64.2333 20.55H65.5667ZM65.65 20.4666H66.85V19.1333H65.65V20.4666ZM66.85 20.4666C66.713 20.4666 66.5816 20.4122 66.4847 20.3153C66.3878 20.2184 66.3333 20.087 66.3333 19.95H67.6667C67.6667 19.8427 67.6455 19.7365 67.6045 19.6374C67.5635 19.5384 67.5033 19.4483 67.4275 19.3725C67.3516 19.2967 67.2616 19.2365 67.1625 19.1955C67.0634 19.1544 66.9573 19.1333 66.85 19.1333V20.4666ZM66.3333 19.95V21.75H67.6667V19.95H66.3333ZM66.3333 21.75C66.3333 21.6129 66.3878 21.4815 66.4847 21.3846C66.5816 21.2877 66.713 21.2333 66.85 21.2333V22.5666C66.9573 22.5666 67.0634 22.5455 67.1625 22.5045C67.2616 22.4634 67.3516 22.4033 67.4275 22.3274C67.5033 22.2516 67.5635 22.1616 67.6045 22.0625C67.6455 21.9634 67.6667 21.8572 67.6667 21.75H66.3333ZM65.65 19.4333C65.0333 19.4333 64.5333 19.9333 64.5333 20.55H65.8667C65.8667 20.5784 65.8611 20.6066 65.8502 20.6329C65.8393 20.6592 65.8233 20.6831 65.8032 20.7032C65.7831 20.7233 65.7592 20.7393 65.7329 20.7501C65.7066 20.761 65.6785 20.7666 65.65 20.7666V19.4333ZM64.5333 20.55V21.15H65.8667V20.55H64.5333ZM64.5333 21.15C64.5333 21.7666 65.0333 22.2666 65.65 22.2666V20.9333C65.6785 20.9333 65.7066 20.9389 65.7329 20.9498C65.7592 20.9607 65.7831 20.9766 65.8032 20.9968C65.8233 21.0169 65.8393 21.0408 65.8502 21.0671C65.8611 21.0933 65.8667 21.1215 65.8667 21.15H64.5333ZM65.65 22.2666H66.7V20.9333H65.65V22.2666ZM67.3667 21.6V20.1H66.0333V21.6H67.3667ZM66.7 19.4333H65.65V20.7666H66.7V19.4333Z" fill="#333333"/>
</g>
<mask id="mask7" style="mask-type:alpha" maskUnits="userSpaceOnUse" x="46" y="20" width="6" height="6">
<path d="M48.7 25.7999C47.9842 25.799 47.2979 25.5143 46.7918 25.0081C46.2856 24.502 46.0009 23.8157 46 23.0999C46.0009 22.3841 46.2856 21.6978 46.7918 21.1917C47.2979 20.6855 47.9842 20.4008 48.7 20.3999C49.4158 20.4008 50.1021 20.6855 50.6082 21.1917C51.1144 21.6978 51.3991 22.3841 51.4 23.0999C51.3991 23.8157 51.1144 24.502 50.6082 25.0081C50.1021 25.5143 49.4158 25.799 48.7 25.7999ZM48.7 20.6999C48.0638 20.7008 47.4538 20.9539 47.0039 21.4038C46.554 21.8537 46.3009 22.4637 46.3 23.0999C46.3009 23.7362 46.554 24.3461 47.0039 24.796C47.4538 25.2459 48.0638 25.499 48.7 25.4999C49.3362 25.499 49.9462 25.2459 50.3961 24.796C50.846 24.3461 51.0991 23.7362 51.1 23.0999C51.0991 22.4637 50.846 21.8537 50.3961 21.4038C49.9462 20.9539 49.3362 20.7008 48.7 20.6999Z" fill="white"/>
</mask>
<g mask="url(#mask7)">
<path d="M48.7 25.7999C47.9842 25.799 47.2979 25.5143 46.7918 25.0081C46.2856 24.502 46.0009 23.8157 46 23.0999C46.0009 22.3841 46.2856 21.6978 46.7918 21.1917C47.2979 20.6855 47.9842 20.4008 48.7 20.3999C49.4158 20.4008 50.1021 20.6855 50.6082 21.1917C51.1144 21.6978 51.3991 22.3841 51.4 23.0999C51.3991 23.8157 51.1144 24.502 50.6082 25.0081C50.1021 25.5143 49.4158 25.799 48.7 25.7999ZM48.7 20.6999C48.0638 20.7008 47.4538 20.9539 47.0039 21.4038C46.554 21.8537 46.3009 22.4637 46.3 23.0999C46.3009 23.7362 46.554 24.3461 47.0039 24.796C47.4538 25.2459 48.0638 25.499 48.7 25.4999C49.3362 25.499 49.9462 25.2459 50.3961 24.796C50.846 24.3461 51.0991 23.7362 51.1 23.0999C51.0991 22.4637 50.846 21.8537 50.3961 21.4038C49.9462 20.9539 49.3362 20.7008 48.7 20.6999Z" fill="#333333"/>
<path d="M48.7 25.1334C48.161 25.1325 47.6443 24.918 47.2632 24.5369C46.8821 24.1557 46.6676 23.6391 46.6667 23.1001H45.3333C45.3342 23.9927 45.6892 24.8485 46.3204 25.4797C46.9516 26.1109 47.8074 26.4659 48.7 26.4667V25.1334ZM46.6667 23.1001C46.6676 22.5611 46.8821 22.0444 47.2632 21.6633C47.6443 21.2821 48.161 21.0676 48.7 21.0667V19.7334C47.8074 19.7343 46.9516 20.0893 46.3204 20.7204C45.6892 21.3516 45.3342 22.2074 45.3333 23.1001H46.6667ZM48.7 21.0667C49.239 21.0676 49.7557 21.2821 50.1368 21.6633C50.518 22.0444 50.7325 22.5611 50.7333 23.1001H52.0667C52.0658 22.2074 51.7108 21.3516 51.0796 20.7204C50.4484 20.0893 49.5926 19.7343 48.7 19.7334V21.0667ZM50.7333 23.1001C50.7325 23.6391 50.518 24.1557 50.1368 24.5369C49.7557 24.918 49.239 25.1325 48.7 25.1334V26.4667C49.5926 26.4659 50.4484 26.1109 51.0796 25.4797C51.7108 24.8485 52.0658 23.9927 52.0667 23.1001H50.7333ZM48.7 20.0334C47.887 20.0343 47.1074 20.3577 46.5325 20.9326C45.9576 21.5075 45.6342 22.287 45.6333 23.1001H46.9667C46.9676 22.6406 47.1505 22.2003 47.4753 21.8754C47.8002 21.5505 48.2406 21.3676 48.7 21.3667V20.0334ZM45.6333 23.1001C45.6342 23.9131 45.9576 24.6926 46.5325 25.2676C47.1074 25.8425 47.887 26.1659 48.7 26.1667V24.8334C48.2406 24.8325 47.8002 24.6496 47.4753 24.3247C47.1505 23.9999 46.9676 23.5595 46.9667 23.1001H45.6333ZM48.7 26.1667C49.5131 26.1659 50.2926 25.8425 50.8675 25.2676C51.4424 24.6926 51.7658 23.9131 51.7667 23.1001H50.4333C50.4325 23.5595 50.2496 23.9999 49.9247 24.3247C49.5998 24.6496 49.1594 24.8325 48.7 24.8334V26.1667ZM51.7667 23.1001C51.7658 22.287 51.4424 21.5075 50.8675 20.9326C50.2926 20.3577 49.5131 20.0343 48.7 20.0334V21.3667C49.1594 21.3676 49.5998 21.5505 49.9247 21.8754C50.2496 22.2003 50.4325 22.6406 50.4333 23.1001H51.7667Z" fill="#333333"/>
</g>
<mask id="mask8" style="mask-type:alpha" maskUnits="userSpaceOnUse" x="47" y="21" width="3" height="4">
<path d="M48.7 24.2999C48.0383 24.2999 47.5 23.7616 47.5 23.0999C47.5 22.4382 48.0383 21.8999 48.7 21.8999C49.3617 21.8999 49.9 22.4382 49.9 23.0999C49.9 23.7616 49.3617 24.2999 48.7 24.2999ZM48.7 22.1999C48.2033 22.1999 47.8 22.6032 47.8 23.0999C47.8 23.5966 48.2033 23.9999 48.7 23.9999C49.1967 23.9999 49.6 23.5966 49.6 23.0999C49.6 22.6032 49.1967 22.1999 48.7 22.1999Z" fill="white"/>
</mask>
<g mask="url(#mask8)">
<path d="M48.7 24.2999C48.0383 24.2999 47.5 23.7616 47.5 23.0999C47.5 22.4382 48.0383 21.8999 48.7 21.8999C49.3617 21.8999 49.9 22.4382 49.9 23.0999C49.9 23.7616 49.3617 24.2999 48.7 24.2999ZM48.7 22.1999C48.2033 22.1999 47.8 22.6032 47.8 23.0999C47.8 23.5966 48.2033 23.9999 48.7 23.9999C49.1967 23.9999 49.6 23.5966 49.6 23.0999C49.6 22.6032 49.1967 22.1999 48.7 22.1999Z" fill="#333333"/>
<path d="M48.7 23.6334C48.4067 23.6334 48.1667 23.3934 48.1667 23.1001H46.8333C46.8333 24.1334 47.6667 24.9667 48.7 24.9667V23.6334ZM48.1667 23.1001C48.1667 22.8067 48.4067 22.5667 48.7 22.5667V21.2334C47.6667 21.2334 46.8333 22.0667 46.8333 23.1001H48.1667ZM48.7 22.5667C48.9933 22.5667 49.2333 22.8067 49.2333 23.1001H50.5667C50.5667 22.0667 49.7333 21.2334 48.7 21.2334V22.5667ZM49.2333 23.1001C49.2333 23.3934 48.9933 23.6334 48.7 23.6334V24.9667C49.7333 24.9667 50.5667 24.1334 50.5667 23.1001H49.2333ZM48.7 21.5334C47.8357 21.5334 47.1333 22.2357 47.1333 23.1001H48.4667C48.4667 22.9721 48.572 22.8667 48.7 22.8667V21.5334ZM47.1333 23.1001C47.1333 23.9644 47.8357 24.6667 48.7 24.6667V23.3334C48.572 23.3334 48.4667 23.2281 48.4667 23.1001H47.1333ZM48.7 24.6667C49.5643 24.6667 50.2667 23.9644 50.2667 23.1001H48.9333C48.9333 23.2281 48.828 23.3334 48.7 23.3334V24.6667ZM50.2667 23.1001C50.2667 22.2357 49.5643 21.5334 48.7 21.5334V22.8667C48.828 22.8667 48.9333 22.9721 48.9333 23.1001H50.2667Z" fill="#333333"/>
</g>
<mask id="mask9" style="mask-type:alpha" maskUnits="userSpaceOnUse" x="59" y="20" width="6" height="6">
<path d="M61.9 25.7999C61.1842 25.799 60.498 25.5143 59.9918 25.0081C59.4856 24.502 59.2009 23.8157 59.2 23.0999C59.2009 22.3841 59.4856 21.6978 59.9918 21.1917C60.498 20.6855 61.1842 20.4008 61.9 20.3999C62.6158 20.4008 63.3021 20.6855 63.8082 21.1917C64.3144 21.6978 64.5991 22.3841 64.6 23.0999C64.5991 23.8157 64.3144 24.502 63.8082 25.0081C63.3021 25.5143 62.6158 25.799 61.9 25.7999ZM61.9 20.6999C61.2638 20.7008 60.6538 20.9539 60.2039 21.4038C59.754 21.8537 59.5009 22.4637 59.5 23.0999C59.5009 23.7362 59.754 24.3461 60.2039 24.796C60.6538 25.2459 61.2638 25.499 61.9 25.4999C62.5363 25.499 63.1462 25.2459 63.5961 24.796C64.046 24.3461 64.2991 23.7362 64.3 23.0999C64.2991 22.4637 64.046 21.8537 63.5961 21.4038C63.1462 20.9539 62.5363 20.7008 61.9 20.6999Z" fill="white"/>
</mask>
<g mask="url(#mask9)">
<path d="M61.9 25.7999C61.1842 25.799 60.498 25.5143 59.9918 25.0081C59.4856 24.502 59.2009 23.8157 59.2 23.0999C59.2009 22.3841 59.4856 21.6978 59.9918 21.1917C60.498 20.6855 61.1842 20.4008 61.9 20.3999C62.6158 20.4008 63.3021 20.6855 63.8082 21.1917C64.3144 21.6978 64.5991 22.3841 64.6 23.0999C64.5991 23.8157 64.3144 24.502 63.8082 25.0081C63.3021 25.5143 62.6158 25.799 61.9 25.7999ZM61.9 20.6999C61.2638 20.7008 60.6538 20.9539 60.2039 21.4038C59.754 21.8537 59.5009 22.4637 59.5 23.0999C59.5009 23.7362 59.754 24.3461 60.2039 24.796C60.6538 25.2459 61.2638 25.499 61.9 25.4999C62.5363 25.499 63.1462 25.2459 63.5961 24.796C64.046 24.3461 64.2991 23.7362 64.3 23.0999C64.2991 22.4637 64.046 21.8537 63.5961 21.4038C63.1462 20.9539 62.5363 20.7008 61.9 20.6999Z" fill="#333333"/>
<path d="M61.9 25.1334C61.361 25.1325 60.8443 24.918 60.4632 24.5369C60.082 24.1557 59.8675 23.6391 59.8667 23.1001H58.5333C58.5342 23.9927 58.8892 24.8485 59.5204 25.4797C60.1516 26.1109 61.0074 26.4659 61.9 26.4667V25.1334ZM59.8667 23.1001C59.8675 22.5611 60.082 22.0444 60.4632 21.6633C60.8443 21.2821 61.361 21.0676 61.9 21.0667V19.7334C61.0074 19.7343 60.1516 20.0893 59.5204 20.7204C58.8892 21.3516 58.5342 22.2074 58.5333 23.1001H59.8667ZM61.9 21.0667C62.439 21.0676 62.9557 21.2821 63.3368 21.6633C63.7179 22.0444 63.9324 22.5611 63.9333 23.1001H65.2667C65.2658 22.2074 64.9108 21.3516 64.2796 20.7204C63.6484 20.0893 62.7926 19.7343 61.9 19.7334V21.0667ZM63.9333 23.1001C63.9324 23.6391 63.7179 24.1557 63.3368 24.5369C62.9557 24.918 62.439 25.1325 61.9 25.1334V26.4667C62.7926 26.4659 63.6484 26.1109 64.2796 25.4797C64.9108 24.8485 65.2658 23.9927 65.2667 23.1001H63.9333ZM61.9 20.0334C61.0869 20.0343 60.3074 20.3577 59.7325 20.9326C59.1576 21.5075 58.8342 22.287 58.8333 23.1001H60.1667C60.1675 22.6406 60.3504 22.2003 60.6753 21.8754C61.0002 21.5505 61.4406 21.3676 61.9 21.3667V20.0334ZM58.8333 23.1001C58.8342 23.9131 59.1576 24.6926 59.7325 25.2676C60.3074 25.8425 61.0869 26.1659 61.9 26.1667V24.8334C61.4406 24.8325 61.0002 24.6496 60.6753 24.3247C60.3504 23.9999 60.1675 23.5595 60.1667 23.1001H58.8333ZM61.9 26.1667C62.713 26.1659 63.4926 25.8425 64.0675 25.2676C64.6424 24.6926 64.9658 23.9131 64.9667 23.1001H63.6333C63.6324 23.5595 63.4495 23.9999 63.1247 24.3247C62.7998 24.6496 62.3594 24.8325 61.9 24.8334V26.1667ZM64.9667 23.1001C64.9658 22.287 64.6424 21.5075 64.0675 20.9326C63.4926 20.3577 62.713 20.0343 61.9 20.0334V21.3667C62.3594 21.3676 62.7998 21.5505 63.1247 21.8754C63.4495 22.2003 63.6324 22.6406 63.6333 23.1001H64.9667Z" fill="#333333"/>
</g>
<mask id="mask10" style="mask-type:alpha" maskUnits="userSpaceOnUse" x="60" y="21" width="4" height="4">
<path d="M61.9 24.2999C61.2383 24.2999 60.7 23.7616 60.7 23.0999C60.7 22.4382 61.2383 21.8999 61.9 21.8999C62.5616 21.8999 63.1 22.4382 63.1 23.0999C63.1 23.7616 62.5616 24.2999 61.9 24.2999ZM61.9 22.1999C61.4033 22.1999 61 22.6032 61 23.0999C61 23.5966 61.4033 23.9999 61.9 23.9999C62.3966 23.9999 62.8 23.5966 62.8 23.0999C62.8 22.6032 62.3966 22.1999 61.9 22.1999Z" fill="white"/>
</mask>
<g mask="url(#mask10)">
<path d="M61.9 24.2999C61.2383 24.2999 60.7 23.7616 60.7 23.0999C60.7 22.4382 61.2383 21.8999 61.9 21.8999C62.5616 21.8999 63.1 22.4382 63.1 23.0999C63.1 23.7616 62.5616 24.2999 61.9 24.2999ZM61.9 22.1999C61.4033 22.1999 61 22.6032 61 23.0999C61 23.5966 61.4033 23.9999 61.9 23.9999C62.3966 23.9999 62.8 23.5966 62.8 23.0999C62.8 22.6032 62.3966 22.1999 61.9 22.1999Z" fill="#333333"/>
<path d="M61.9 23.6334C61.6067 23.6334 61.3667 23.3934 61.3667 23.1001H60.0333C60.0333 24.1334 60.8667 24.9667 61.9 24.9667V23.6334ZM61.3667 23.1001C61.3667 22.8067 61.6067 22.5667 61.9 22.5667V21.2334C60.8667 21.2334 60.0333 22.0667 60.0333 23.1001H61.3667ZM61.9 22.5667C62.1933 22.5667 62.4333 22.8067 62.4333 23.1001H63.7667C63.7667 22.0667 62.9333 21.2334 61.9 21.2334V22.5667ZM62.4333 23.1001C62.4333 23.3934 62.1933 23.6334 61.9 23.6334V24.9667C62.9333 24.9667 63.7667 24.1334 63.7667 23.1001H62.4333ZM61.9 21.5334C61.0357 21.5334 60.3333 22.2357 60.3333 23.1001H61.6667C61.6667 22.9721 61.772 22.8667 61.9 22.8667V21.5334ZM60.3333 23.1001C60.3333 23.9644 61.0357 24.6667 61.9 24.6667V23.3334C61.772 23.3334 61.6667 23.2281 61.6667 23.1001H60.3333ZM61.9 24.6667C62.7643 24.6667 63.4667 23.9644 63.4667 23.1001H62.1333C62.1333 23.2281 62.028 23.3334 61.9 23.3334V24.6667ZM63.4667 23.1001C63.4667 22.2357 62.7643 21.5334 61.9 21.5334V22.8667C62.028 22.8667 62.1333 22.9721 62.1333 23.1001H63.4667Z" fill="#333333"/>
</g>
<mask id="mask11" style="mask-type:alpha" maskUnits="userSpaceOnUse" x="41" y="3" width="11" height="10">
<path d="M46.45 12.5998C45.2173 12.598 44.0356 12.1076 43.1639 11.2359C42.2923 10.3642 41.8018 9.18252 41.8 7.94981C41.8018 6.71709 42.2923 5.53537 43.1639 4.66371C44.0356 3.79204 45.2173 3.30157 46.45 3.2998C47.6827 3.30157 48.8645 3.79204 49.7361 4.66371C50.6078 5.53537 51.0983 6.71709 51.1 7.94981C51.0983 9.18252 50.6078 10.3642 49.7361 11.2359C48.8645 12.1076 47.6827 12.598 46.45 12.5998ZM46.45 3.8998C44.2167 3.8998 42.4 5.71647 42.4 7.94981C42.4 10.1831 44.2167 11.9998 46.45 11.9998C48.6834 11.9998 50.5 10.1831 50.5 7.94981C50.5 5.71647 48.6834 3.8998 46.45 3.8998Z" fill="white"/>
</mask>
<g mask="url(#mask11)">
<path d="M46.45 12.5998C45.2173 12.598 44.0356 12.1076 43.1639 11.2359C42.2922 10.3642 41.8018 9.18252 41.8 7.94981C41.8018 6.71709 42.2922 5.53537 43.1639 4.66371C44.0356 3.79204 45.2173 3.30157 46.45 3.2998C47.6827 3.30157 48.8644 3.79204 49.7361 4.66371C50.6077 5.53537 51.0982 6.71709 51.1 7.94981C51.0982 9.18252 50.6077 10.3642 49.7361 11.2359C48.8644 12.1076 47.6827 12.598 46.45 12.5998ZM46.45 3.8998C44.2167 3.8998 42.4 5.71647 42.4 7.94981C42.4 10.1831 44.2167 11.9998 46.45 11.9998C48.6833 11.9998 50.5 10.1831 50.5 7.94981C50.5 5.71647 48.6833 3.8998 46.45 3.8998Z" fill="#333333"/>
<path d="M46.45 11.9333C45.3941 11.9315 44.3819 11.5113 43.6353 10.7647C42.8887 10.018 42.4684 9.00587 42.4667 7.94997H41.1333C41.1351 9.35949 41.6958 10.7108 42.6925 11.7075C43.6892 12.7042 45.0405 13.2649 46.45 13.2666V11.9333ZM42.4667 7.94997C42.4684 6.89406 42.8887 5.88191 43.6353 5.13527C44.3819 4.38863 45.3941 3.9684 46.45 3.96663V2.6333C45.0405 2.63506 43.6892 3.19578 42.6925 4.19246C41.6958 5.18915 41.1351 6.54044 41.1333 7.94997H42.4667ZM46.45 3.96663C47.5059 3.9684 48.5181 4.38863 49.2647 5.13527C50.0113 5.88191 50.4316 6.89406 50.4333 7.94997H51.7667C51.7649 6.54044 51.2042 5.18915 50.2075 4.19246C49.2108 3.19578 47.8595 2.63506 46.45 2.6333V3.96663ZM50.4333 7.94997C50.4316 9.00587 50.0113 10.018 49.2647 10.7647C48.5181 11.5113 47.5059 11.9315 46.45 11.9333V13.2666C47.8595 13.2649 49.2108 12.7042 50.2075 11.7075C51.2042 10.7108 51.7649 9.35949 51.7667 7.94997H50.4333ZM46.45 3.2333C43.8487 3.2333 41.7333 5.34863 41.7333 7.94997H43.0667C43.0667 6.08497 44.585 4.56663 46.45 4.56663V3.2333ZM41.7333 7.94997C41.7333 10.5516 43.8487 12.6666 46.45 12.6666V11.3333C44.585 11.3333 43.0667 9.81497 43.0667 7.94997H41.7333ZM46.45 12.6666C49.0513 12.6666 51.1667 10.5513 51.1667 7.94997H49.8333C49.8333 9.81497 48.315 11.3333 46.45 11.3333V12.6666ZM51.1667 7.94997C51.1667 5.34863 49.0513 3.2333 46.45 3.2333V4.56663C48.315 4.56663 49.8333 6.08497 49.8333 7.94997H51.1667Z" fill="#333333"/>
</g>
<mask id="mask12" style="mask-type:alpha" maskUnits="userSpaceOnUse" x="43" y="4" width="7" height="8">
<path d="M46.45 5.0998C48.0214 5.0998 49.3 6.37847 49.3 7.9498C49.3 9.52114 48.0214 10.7998 46.45 10.7998C44.8787 10.7998 43.6 9.52114 43.6 7.9498C43.6 6.37847 44.8787 5.0998 46.45 5.0998ZM46.45 4.7998C44.7134 4.7998 43.3 6.21314 43.3 7.9498C43.3 9.68647 44.7134 11.0998 46.45 11.0998C48.1867 11.0998 49.6 9.68647 49.6 7.9498C49.6 6.21314 48.1867 4.7998 46.45 4.7998Z" fill="white"/>
</mask>
<g mask="url(#mask12)">
<path d="M46.45 5.0998C48.0213 5.0998 49.3 6.37847 49.3 7.9498C49.3 9.52114 48.0213 10.7998 46.45 10.7998C44.8787 10.7998 43.6 9.52114 43.6 7.9498C43.6 6.37847 44.8787 5.0998 46.45 5.0998ZM46.45 4.7998C44.7133 4.7998 43.3 6.21314 43.3 7.9498C43.3 9.68647 44.7133 11.0998 46.45 11.0998C48.1867 11.0998 49.6 9.68647 49.6 7.9498C49.6 6.21314 48.1867 4.7998 46.45 4.7998Z" fill="#333333"/>
<path d="M46.45 5.76663C47.65 5.76663 48.6333 6.74663 48.6333 7.94997H49.9667C49.9667 6.00997 48.39 4.4333 46.45 4.4333V5.76663ZM48.6333 7.94997C48.6333 9.14997 47.6533 10.1333 46.45 10.1333V11.4666C48.39 11.4666 49.9667 9.88997 49.9667 7.94997H48.6333ZM46.45 10.1333C45.25 10.1333 44.2667 9.1533 44.2667 7.94997H42.9333C42.9333 9.88997 44.51 11.4666 46.45 11.4666V10.1333ZM44.2667 7.94997C44.2667 6.74997 45.2467 5.76663 46.45 5.76663V4.4333C44.51 4.4333 42.9333 6.00997 42.9333 7.94997H44.2667ZM46.45 4.1333C44.3447 4.1333 42.6333 5.84463 42.6333 7.94997H43.9667C43.9667 6.5813 45.0813 5.46663 46.45 5.46663V4.1333ZM42.6333 7.94997C42.6333 10.0553 44.3447 11.7666 46.45 11.7666V10.4333C45.0813 10.4333 43.9667 9.31864 43.9667 7.94997H42.6333ZM46.45 11.7666C48.5553 11.7666 50.2667 10.0553 50.2667 7.94997H48.9333C48.9333 9.31864 47.819 10.4333 46.45 10.4333V11.7666ZM50.2667 7.94997C50.2667 5.84463 48.5553 4.1333 46.45 4.1333V5.46663C47.819 5.46663 48.9333 6.5813 48.9333 7.94997H50.2667Z" fill="#333333"/>
</g>
<mask id="mask13" style="mask-type:alpha" maskUnits="userSpaceOnUse" x="46" y="5" width="3" height="5">
<path d="M47.95 9.60004C47.9303 9.60011 47.9107 9.59629 47.8925 9.5888C47.8742 9.5813 47.8576 9.57029 47.8437 9.55637L46.3437 8.05637C46.3157 8.02804 46.3003 7.98971 46.3003 7.94971V5.84971C46.3003 5.80992 46.3161 5.77177 46.3443 5.74364C46.3724 5.71551 46.4105 5.69971 46.4503 5.69971C46.4901 5.69971 46.5283 5.71551 46.5564 5.74364C46.5845 5.77177 46.6003 5.80992 46.6003 5.84971V7.88771L48.057 9.34437C48.078 9.36537 48.0922 9.39212 48.098 9.42123C48.1038 9.45034 48.1008 9.48051 48.0894 9.50791C48.078 9.53532 48.0587 9.55873 48.034 9.57519C48.0094 9.59165 47.9803 9.60041 47.9507 9.60037L47.95 9.60004Z" fill="white"/>
</mask>
<g mask="url(#mask13)">
<path d="M47.95 9.60004C47.9303 9.60011 47.9107 9.59629 47.8925 9.5888C47.8742 9.5813 47.8576 9.57028 47.8437 9.55637L46.3437 8.05637C46.3157 8.02804 46.3003 7.98971 46.3003 7.94971V5.84971C46.3003 5.80992 46.3161 5.77177 46.3443 5.74364C46.3724 5.71551 46.4105 5.69971 46.4503 5.69971C46.4901 5.69971 46.5283 5.71551 46.5564 5.74364C46.5845 5.77177 46.6003 5.80992 46.6003 5.84971V7.88771L48.057 9.34437C48.078 9.36537 48.0922 9.39212 48.098 9.42123C48.1038 9.45034 48.1008 9.4805 48.0894 9.50791C48.078 9.53532 48.0587 9.55873 48.034 9.57519C48.0094 9.59165 47.9803 9.60041 47.9507 9.60037L47.95 9.60004Z" fill="#333333"/>
<path d="M47.8433 9.55605L47.372 10.0274L47.3743 10.0297L47.8433 9.55572V9.55605ZM46.3433 8.05605L45.8667 8.52505L45.8693 8.52772L46.3407 8.05638L46.3433 8.05605ZM46.6 7.88772H45.9333V8.16372L46.1287 8.35905L46.6 7.88772ZM48.0567 9.55605L48.5257 10.0301L48.528 10.0277L48.0567 9.55638V9.55605ZM47.95 8.93272C48.0858 8.9328 48.216 8.98633 48.3127 9.08172L47.3747 10.0334C47.5277 10.1851 47.7345 10.2702 47.95 10.2701V8.93672V8.93272ZM48.3153 9.08405L46.8153 7.58405L45.8727 8.52672L47.3727 10.0267L48.3153 9.08405ZM46.818 7.58672C46.912 7.68172 46.967 7.81138 46.967 7.94938H45.6337C45.6337 8.16705 45.7203 8.37272 45.867 8.52438L46.815 7.58672H46.818ZM46.967 7.94938V5.84938H45.6337V7.94938H46.967ZM46.967 5.84938C46.967 5.98641 46.9126 6.11783 46.8157 6.21472C46.7188 6.31161 46.5874 6.36605 46.4503 6.36605V5.03271C46.2337 5.03271 46.026 5.11876 45.8729 5.27191C45.7197 5.42507 45.6337 5.63279 45.6337 5.84938H46.967ZM46.4503 6.36605C46.3133 6.36605 46.1819 6.31161 46.085 6.21472C45.9881 6.11783 45.9337 5.98641 45.9337 5.84938H47.267C47.267 5.63279 47.181 5.42507 47.0278 5.27191C46.8746 5.11876 46.6669 5.03271 46.4503 5.03271V6.36605ZM45.9337 5.84938V7.88738H47.267V5.85005H45.9337V5.84938ZM46.129 8.35872L47.5857 9.81538L48.5283 8.87272L47.0717 7.41605L46.129 8.35872ZM47.5857 9.81538C47.4888 9.71849 47.4343 9.58708 47.4343 9.45005C47.4343 9.31302 47.4888 9.18161 47.5857 9.08472L48.5283 10.0274C48.6042 9.95155 48.6643 9.86152 48.7054 9.76243C48.7464 9.66334 48.7676 9.55714 48.7676 9.44988C48.7676 9.34263 48.7464 9.23643 48.7054 9.13734C48.6643 9.03825 48.6042 8.94822 48.5283 8.87238L47.5857 9.81505V9.81538ZM47.588 9.08205C47.6846 8.98666 47.8149 8.93314 47.9507 8.93305V10.2664C48.166 10.2664 48.3727 10.1813 48.5257 10.0297L47.5877 9.08205H47.588Z" fill="#333333"/>
</g>
<path d="M13.364 46C13.284 46 13.244 45.96 13.244 45.88V37.72C13.244 37.64 13.284 37.6 13.364 37.6H15.332C15.996 37.6 16.524 37.804 16.916 38.212C17.308 38.62 17.504 39.172 17.504 39.868V43.732C17.504 44.428 17.308 44.98 16.916 45.388C16.524 45.796 15.996 46 15.332 46H13.364ZM14.396 44.956C14.396 44.988 14.412 45.004 14.444 45.004L15.32 44.992C15.624 44.992 15.868 44.876 16.052 44.644C16.236 44.404 16.332 44.08 16.34 43.672V39.928C16.34 39.52 16.248 39.196 16.064 38.956C15.88 38.716 15.632 38.596 15.32 38.596H14.444C14.412 38.596 14.396 38.612 14.396 38.644V44.956ZM22.9991 38.476C22.9991 38.556 22.9591 38.596 22.8791 38.596H20.1791C20.1471 38.596 20.1311 38.612 20.1311 38.644V41.248C20.1311 41.28 20.1471 41.296 20.1791 41.296H21.8351C21.9151 41.296 21.9551 41.336 21.9551 41.416V42.172C21.9551 42.252 21.9151 42.292 21.8351 42.292H20.1791C20.1471 42.292 20.1311 42.308 20.1311 42.34V44.956C20.1311 44.988 20.1471 45.004 20.1791 45.004H22.8791C22.9591 45.004 22.9991 45.044 22.9991 45.124V45.88C22.9991 45.96 22.9591 46 22.8791 46H19.0991C19.0191 46 18.9791 45.96 18.9791 45.88V37.72C18.9791 37.64 19.0191 37.6 19.0991 37.6H22.8791C22.9591 37.6 22.9991 37.64 22.9991 37.72V38.476ZM24.4593 46C24.3793 46 24.3393 45.96 24.3393 45.88V37.72C24.3393 37.64 24.3793 37.6 24.4593 37.6H25.3713C25.4513 37.6 25.4913 37.64 25.4913 37.72V44.956C25.4913 44.988 25.5073 45.004 25.5393 45.004H28.2273C28.3073 45.004 28.3473 45.044 28.3473 45.124V45.88C28.3473 45.96 28.3073 46 28.2273 46H24.4593ZM29.5264 46C29.4464 46 29.4064 45.96 29.4064 45.88V37.72C29.4064 37.64 29.4464 37.6 29.5264 37.6H30.4384C30.5184 37.6 30.5584 37.64 30.5584 37.72V45.88C30.5584 45.96 30.5184 46 30.4384 46H29.5264ZM33.7116 46C33.6396 46 33.5956 45.964 33.5796 45.892L31.8516 37.732V37.708C31.8516 37.636 31.8876 37.6 31.9596 37.6H32.9556C33.0356 37.6 33.0796 37.636 33.0876 37.708L34.2276 43.936C34.2356 43.952 34.2436 43.96 34.2516 43.96C34.2596 43.96 34.2676 43.952 34.2756 43.936L35.3916 37.708C35.4076 37.636 35.4516 37.6 35.5236 37.6H36.4836C36.5716 37.6 36.6076 37.644 36.5916 37.732L34.8636 45.892C34.8556 45.964 34.8116 46 34.7316 46H33.7116ZM41.9084 38.476C41.9084 38.556 41.8684 38.596 41.7884 38.596H39.0884C39.0564 38.596 39.0404 38.612 39.0404 38.644V41.248C39.0404 41.28 39.0564 41.296 39.0884 41.296H40.7444C40.8244 41.296 40.8644 41.336 40.8644 41.416V42.172C40.8644 42.252 40.8244 42.292 40.7444 42.292H39.0884C39.0564 42.292 39.0404 42.308 39.0404 42.34V44.956C39.0404 44.988 39.0564 45.004 39.0884 45.004H41.7884C41.8684 45.004 41.9084 45.044 41.9084 45.124V45.88C41.9084 45.96 41.8684 46 41.7884 46H38.0084C37.9284 46 37.8884 45.96 37.8884 45.88V37.72C37.8884 37.64 37.9284 37.6 38.0084 37.6H41.7884C41.8684 37.6 41.9084 37.64 41.9084 37.72V38.476ZM46.5846 46C46.5126 46 46.4646 45.968 46.4406 45.904L45.3366 42.328C45.3286 42.304 45.3126 42.292 45.2886 42.292H44.4486C44.4166 42.292 44.4006 42.308 44.4006 42.34V45.88C44.4006 45.96 44.3606 46 44.2806 46H43.3686C43.2886 46 43.2486 45.96 43.2486 45.88V37.72C43.2486 37.64 43.2886 37.6 43.3686 37.6H45.5166C45.9246 37.6 46.2846 37.7 46.5966 37.9C46.9086 38.1 47.1486 38.384 47.3166 38.752C47.4926 39.112 47.5806 39.524 47.5806 39.988C47.5806 40.492 47.4766 40.932 47.2686 41.308C47.0606 41.676 46.7766 41.944 46.4166 42.112C46.3926 42.136 46.3846 42.16 46.3926 42.184L47.6166 45.868L47.6286 45.916C47.6286 45.972 47.5926 46 47.5206 46H46.5846ZM44.4486 38.596C44.4166 38.596 44.4006 38.612 44.4006 38.644V41.332C44.4006 41.364 44.4166 41.38 44.4486 41.38H45.3366C45.6646 41.38 45.9286 41.256 46.1286 41.008C46.3286 40.752 46.4286 40.416 46.4286 40C46.4286 39.568 46.3286 39.228 46.1286 38.98C45.9286 38.724 45.6646 38.596 45.3366 38.596H44.4486ZM52.8865 38.476C52.8865 38.556 52.8465 38.596 52.7665 38.596H50.0665C50.0345 38.596 50.0185 38.612 50.0185 38.644V41.248C50.0185 41.28 50.0345 41.296 50.0665 41.296H51.7225C51.8025 41.296 51.8425 41.336 51.8425 41.416V42.172C51.8425 42.252 51.8025 42.292 51.7225 42.292H50.0665C50.0345 42.292 50.0185 42.308 50.0185 42.34V44.956C50.0185 44.988 50.0345 45.004 50.0665 45.004H52.7665C52.8465 45.004 52.8865 45.044 52.8865 45.124V45.88C52.8865 45.96 52.8465 46 52.7665 46H48.9865C48.9065 46 48.8665 45.96 48.8665 45.88V37.72C48.8665 37.64 48.9065 37.6 48.9865 37.6H52.7665C52.8465 37.6 52.8865 37.64 52.8865 37.72V38.476ZM54.3467 46C54.2667 46 54.2267 45.96 54.2267 45.88V37.72C54.2267 37.64 54.2667 37.6 54.3467 37.6H56.3147C56.9787 37.6 57.5067 37.804 57.8987 38.212C58.2907 38.62 58.4867 39.172 58.4867 39.868V43.732C58.4867 44.428 58.2907 44.98 57.8987 45.388C57.5067 45.796 56.9787 46 56.3147 46H54.3467ZM55.3787 44.956C55.3787 44.988 55.3947 45.004 55.4267 45.004L56.3027 44.992C56.6067 44.992 56.8507 44.876 57.0347 44.644C57.2187 44.404 57.3147 44.08 57.3227 43.672V39.928C57.3227 39.52 57.2307 39.196 57.0467 38.956C56.8627 38.716 56.6147 38.596 56.3027 38.596H55.4267C55.3947 38.596 55.3787 38.612 55.3787 38.644V44.956ZM62.7349 46C62.6549 46 62.6149 45.96 62.6149 45.88V37.72C62.6149 37.64 62.6549 37.6 62.7349 37.6H63.6469C63.7269 37.6 63.7669 37.64 63.7669 37.72V45.88C63.7669 45.96 63.7269 46 63.6469 46H62.7349ZM68.8161 37.72C68.8161 37.64 68.8561 37.6 68.9361 37.6H69.8361C69.9161 37.6 69.9561 37.64 69.9561 37.72V45.88C69.9561 45.96 69.9161 46 69.8361 46H68.8041C68.7401 46 68.6961 45.968 68.6721 45.904L66.6321 40.42C66.6241 40.404 66.6121 40.4 66.5961 40.408C66.5801 40.408 66.5721 40.416 66.5721 40.432L66.5841 45.88C66.5841 45.96 66.5441 46 66.4641 46H65.5521C65.4721 46 65.4321 45.96 65.4321 45.88V37.72C65.4321 37.64 65.4721 37.6 65.5521 37.6H66.5721C66.6361 37.6 66.6801 37.632 66.7041 37.696L68.7561 43.18C68.7641 43.204 68.7761 43.216 68.7921 43.216C68.8081 43.208 68.8161 43.192 68.8161 43.168V37.72ZM77.4951 46C77.4231 46 77.3791 45.964 77.3631 45.892L77.0991 44.512C77.0991 44.496 77.0911 44.484 77.0751 44.476C77.0671 44.468 77.0551 44.464 77.0391 44.464H75.0831C75.0671 44.464 75.0511 44.468 75.0351 44.476C75.0271 44.484 75.0231 44.496 75.0231 44.512L74.7711 45.892C74.7631 45.964 74.7191 46 74.6391 46H73.7271C73.6871 46 73.6551 45.988 73.6311 45.964C73.6151 45.94 73.6111 45.908 73.6191 45.868L75.4071 37.708C75.4231 37.636 75.4671 37.6 75.5391 37.6H76.6071C76.6871 37.6 76.7311 37.636 76.7391 37.708L78.5391 45.868V45.892C78.5391 45.964 78.5031 46 78.4311 46H77.4951ZM75.2271 43.504C75.2271 43.536 75.2391 43.552 75.2631 43.552H76.8591C76.8831 43.552 76.8951 43.536 76.8951 43.504L76.0791 39.244C76.0711 39.228 76.0631 39.22 76.0551 39.22C76.0471 39.22 76.0391 39.228 76.0311 39.244L75.2271 43.504ZM82.3169 46C82.2369 46 82.1969 45.96 82.1969 45.88V37.72C82.1969 37.64 82.2369 37.6 82.3169 37.6H84.2849C84.9489 37.6 85.4769 37.804 85.8689 38.212C86.2609 38.62 86.4569 39.172 86.4569 39.868V43.732C86.4569 44.428 86.2609 44.98 85.8689 45.388C85.4769 45.796 84.9489 46 84.2849 46H82.3169ZM83.3489 44.956C83.3489 44.988 83.3649 45.004 83.3969 45.004L84.2729 44.992C84.5769 44.992 84.8209 44.876 85.0049 44.644C85.1889 44.404 85.2849 44.08 85.2929 43.672V39.928C85.2929 39.52 85.2009 39.196 85.0169 38.956C84.8329 38.716 84.5849 38.596 84.2729 38.596H83.3969C83.3649 38.596 83.3489 38.612 83.3489 38.644V44.956ZM91.0325 46C90.9605 46 90.9165 45.964 90.9005 45.892L90.6365 44.512C90.6365 44.496 90.6285 44.484 90.6125 44.476C90.6045 44.468 90.5925 44.464 90.5765 44.464H88.6205C88.6045 44.464 88.5885 44.468 88.5725 44.476C88.5645 44.484 88.5605 44.496 88.5605 44.512L88.3085 45.892C88.3005 45.964 88.2565 46 88.1765 46H87.2645C87.2245 46 87.1925 45.988 87.1685 45.964C87.1525 45.94 87.1485 45.908 87.1565 45.868L88.9445 37.708C88.9605 37.636 89.0045 37.6 89.0765 37.6H90.1445C90.2245 37.6 90.2685 37.636 90.2765 37.708L92.0765 45.868V45.892C92.0765 45.964 92.0405 46 91.9685 46H91.0325ZM88.7645 43.504C88.7645 43.536 88.7765 43.552 88.8005 43.552H90.3965C90.4205 43.552 90.4325 43.536 90.4325 43.504L89.6165 39.244C89.6085 39.228 89.6005 39.22 89.5925 39.22C89.5845 39.22 89.5765 39.228 89.5685 39.244L88.7645 43.504ZM94.0996 45.988C94.0196 45.988 93.9796 45.948 93.9796 45.868V42.436L93.9676 42.376L92.2996 37.732L92.2876 37.684C92.2876 37.628 92.3236 37.6 92.3956 37.6H93.3556C93.4276 37.6 93.4756 37.632 93.4996 37.696L94.5196 41.008C94.5276 41.024 94.5396 41.032 94.5556 41.032C94.5716 41.032 94.5836 41.024 94.5916 41.008L95.6116 37.696C95.6356 37.632 95.6836 37.6 95.7556 37.6H96.7156C96.8036 37.6 96.8356 37.644 96.8116 37.732L95.1436 42.376L95.1316 42.436V45.868C95.1316 45.948 95.0916 45.988 95.0116 45.988H94.0996Z" fill="#333333"/>
<path d="M8.6039 61L7.2539 54H7.9939L8.8439 58.81L8.9639 59.51C8.9839 59.43 9.04723 59.2033 9.1539 58.83L10.5339 54H11.0539L12.4139 58.83C12.4806 59.07 12.5306 59.2567 12.5639 59.39L12.6839 58.8L13.6939 54H14.4239L12.9039 61H12.4639L10.9639 55.98C10.8839 55.7133 10.8239 55.5067 10.7839 55.36C10.7439 55.5067 10.6839 55.7133 10.6039 55.98L9.0839 61H8.6039ZM17.9258 61.12C17.2592 61.12 16.7225 60.86 16.3158 60.34C15.9092 59.82 15.7058 59.1867 15.7058 58.44C15.7058 57.6067 15.9092 56.9533 16.3158 56.48C16.7225 56.0067 17.2592 55.77 17.9258 55.77C18.5125 55.77 18.9958 55.98 19.3758 56.4C19.7558 56.8133 19.9458 57.4267 19.9458 58.24C19.9458 58.42 19.9392 58.5833 19.9258 58.73H16.4458C16.5058 59.2633 16.6658 59.6867 16.9258 60C17.1858 60.3133 17.5292 60.47 17.9558 60.47C18.3625 60.47 18.7458 60.3367 19.1058 60.07L19.4858 60.54C19.0192 60.9267 18.4992 61.12 17.9258 61.12ZM16.4258 58.1H19.2358C19.2292 57.48 19.0925 57.0433 18.8258 56.79C18.5658 56.53 18.2658 56.4 17.9258 56.4C17.4992 56.4 17.1492 56.5433 16.8758 56.83C16.6025 57.1167 16.4525 57.54 16.4258 58.1ZM27.1144 61V60.51C26.9411 60.7367 26.7544 60.8967 26.5544 60.99C26.3611 61.0767 26.1244 61.12 25.8444 61.12C25.1844 61.12 24.7044 60.9333 24.4044 60.56C24.1111 60.1867 23.9644 59.58 23.9644 58.74V55.89H24.6644V59.01C24.6644 59.5167 24.7711 59.89 24.9844 60.13C25.1977 60.37 25.4844 60.49 25.8444 60.49C26.6911 60.49 27.1144 60.0033 27.1144 59.03V55.89H27.8144V61H27.1144ZM31.2305 61.12C30.5572 61.12 29.9705 60.8233 29.4705 60.23L29.9605 59.8C30.3539 60.2667 30.7972 60.5 31.2905 60.5C31.5839 60.5 31.8239 60.4367 32.0105 60.31C32.1972 60.1767 32.2905 59.9933 32.2905 59.76C32.2905 59.6133 32.2572 59.4833 32.1905 59.37C32.1239 59.25 32.0172 59.1433 31.8705 59.05C31.7305 58.95 31.6039 58.8733 31.4905 58.82C31.3772 58.7667 31.2205 58.7 31.0205 58.62C30.7805 58.52 30.5839 58.43 30.4305 58.35C30.2772 58.27 30.1205 58.17 29.9605 58.05C29.8005 57.93 29.6805 57.79 29.6005 57.63C29.5272 57.4633 29.4905 57.2767 29.4905 57.07C29.4905 56.6833 29.6439 56.37 29.9505 56.13C30.2572 55.89 30.6539 55.77 31.1405 55.77C31.8139 55.77 32.3672 56.03 32.8005 56.55L32.3405 56.94C31.9739 56.5733 31.5672 56.39 31.1205 56.39C30.8272 56.39 30.5905 56.45 30.4105 56.57C30.2372 56.69 30.1505 56.8533 30.1505 57.06C30.1505 57.16 30.1739 57.2533 30.2205 57.34C30.2672 57.4267 30.3205 57.5 30.3805 57.56C30.4405 57.6133 30.5339 57.6767 30.6605 57.75C30.7872 57.8167 30.8872 57.8667 30.9605 57.9C31.0339 57.9267 31.1539 57.9733 31.3205 58.04C31.5205 58.12 31.6772 58.1867 31.7905 58.24C31.9039 58.2867 32.0439 58.3633 32.2105 58.47C32.3839 58.57 32.5139 58.6733 32.6005 58.78C32.6939 58.88 32.7739 59.0133 32.8405 59.18C32.9139 59.34 32.9505 59.52 32.9505 59.72C32.9505 60.1467 32.7939 60.4867 32.4805 60.74C32.1739 60.9933 31.7572 61.12 31.2305 61.12ZM36.4699 61.12C35.8032 61.12 35.2666 60.86 34.8599 60.34C34.4532 59.82 34.2499 59.1867 34.2499 58.44C34.2499 57.6067 34.4532 56.9533 34.8599 56.48C35.2666 56.0067 35.8032 55.77 36.4699 55.77C37.0566 55.77 37.5399 55.98 37.9199 56.4C38.2999 56.8133 38.4899 57.4267 38.4899 58.24C38.4899 58.42 38.4832 58.5833 38.4699 58.73H34.9899C35.0499 59.2633 35.2099 59.6867 35.4699 60C35.7299 60.3133 36.0732 60.47 36.4999 60.47C36.9066 60.47 37.2899 60.3367 37.6499 60.07L38.0299 60.54C37.5632 60.9267 37.0432 61.12 36.4699 61.12ZM34.9699 58.1H37.7799C37.7732 57.48 37.6366 57.0433 37.3699 56.79C37.1099 56.53 36.8099 56.4 36.4699 56.4C36.0432 56.4 35.6932 56.5433 35.4199 56.83C35.1466 57.1167 34.9966 57.54 34.9699 58.1ZM42.7085 61V54H45.2785C46.0385 54 46.5885 54.1867 46.9285 54.56C47.2685 54.9267 47.4385 55.38 47.4385 55.92C47.4385 56.3933 47.2985 56.81 47.0185 57.17C46.7385 57.5233 46.3018 57.7467 45.7085 57.84L47.2585 61H46.4885L44.9885 57.87H43.4085V61H42.7085ZM43.4085 57.24H45.2985C45.8051 57.24 46.1751 57.1167 46.4085 56.87C46.6485 56.6167 46.7685 56.31 46.7685 55.95C46.7685 55.61 46.6518 55.3067 46.4185 55.04C46.1918 54.7667 45.8185 54.63 45.2985 54.63H43.4085V57.24ZM50.9168 61.12C50.2501 61.12 49.7168 60.8867 49.3168 60.42C48.9235 59.9467 48.7268 59.29 48.7268 58.45C48.7268 57.6167 48.9268 56.9633 49.3268 56.49C49.7268 56.01 50.2568 55.77 50.9168 55.77C51.5835 55.77 52.1135 56.0067 52.5068 56.48C52.9068 56.9467 53.1068 57.6 53.1068 58.44C53.1068 59.2733 52.9068 59.93 52.5068 60.41C52.1068 60.8833 51.5768 61.12 50.9168 61.12ZM50.9168 60.49C51.3768 60.49 51.7335 60.31 51.9868 59.95C52.2468 59.5833 52.3768 59.08 52.3768 58.44C52.3768 57.8 52.2501 57.3 51.9968 56.94C51.7501 56.58 51.3901 56.4 50.9168 56.4C50.4435 56.4 50.0801 56.5767 49.8268 56.93C49.5801 57.2767 49.4568 57.7833 49.4568 58.45C49.4568 59.09 49.5801 59.59 49.8268 59.95C50.0801 60.31 50.4435 60.49 50.9168 60.49ZM55.3458 62.94L56.1058 60.84L54.2358 55.89H54.9458L56.2358 59.52C56.2558 59.5867 56.2858 59.68 56.3258 59.8C56.3658 59.92 56.3924 60 56.4058 60.04L56.5858 59.52L57.8958 55.89H58.6458L56.0358 62.94H55.3458ZM62.8758 61V60.5C62.4158 60.9133 61.9158 61.12 61.3758 61.12C60.8424 61.12 60.4191 60.9733 60.1058 60.68C59.7924 60.38 59.6358 59.95 59.6358 59.39C59.6358 58.8367 59.8124 58.4167 60.1658 58.13C60.5258 57.8433 60.9691 57.7 61.4958 57.7C61.9691 57.7 62.4291 57.82 62.8758 58.06V57.63C62.8758 56.7967 62.5024 56.38 61.7558 56.38C61.2758 56.38 60.7691 56.5633 60.2358 56.93L60.0358 56.33C60.6224 55.9567 61.2191 55.77 61.8258 55.77C62.0324 55.77 62.2258 55.7967 62.4058 55.85C62.5858 55.8967 62.7624 55.9833 62.9358 56.11C63.1158 56.23 63.2591 56.4133 63.3658 56.66C63.4724 56.9 63.5258 57.1933 63.5258 57.54V61H62.8758ZM61.4458 60.51C61.9724 60.51 62.4491 60.2467 62.8758 59.72V58.73C62.4558 58.45 62.0191 58.31 61.5658 58.31C61.1991 58.31 60.8924 58.4033 60.6458 58.59C60.4058 58.77 60.2858 59.0367 60.2858 59.39C60.2858 59.73 60.3858 60.0033 60.5858 60.21C60.7924 60.41 61.0791 60.51 61.4458 60.51ZM65.3517 61V54.12L66.0517 53.78V61H65.3517ZM76.635 61H75.935V56.24V55.82C75.915 55.8667 75.8817 55.9367 75.835 56.03C75.795 56.1233 75.765 56.1933 75.745 56.24L73.595 61.12L71.575 56.24C71.5617 56.2 71.535 56.1367 71.495 56.05C71.455 55.9633 71.4283 55.8967 71.415 55.85V56.24V61H70.715V54H71.315L73.485 59.06C73.505 59.1 73.5317 59.1633 73.565 59.25C73.605 59.3367 73.635 59.4033 73.655 59.45C73.675 59.4033 73.7017 59.3367 73.735 59.25C73.775 59.1633 73.805 59.1 73.825 59.06L76.025 54H76.635V61ZM81.703 61V60.5C81.243 60.9133 80.743 61.12 80.203 61.12C79.6697 61.12 79.2464 60.9733 78.933 60.68C78.6197 60.38 78.463 59.95 78.463 59.39C78.463 58.8367 78.6397 58.4167 78.993 58.13C79.353 57.8433 79.7964 57.7 80.323 57.7C80.7964 57.7 81.2564 57.82 81.703 58.06V57.63C81.703 56.7967 81.3297 56.38 80.583 56.38C80.103 56.38 79.5964 56.5633 79.063 56.93L78.863 56.33C79.4497 55.9567 80.0464 55.77 80.653 55.77C80.8597 55.77 81.053 55.7967 81.233 55.85C81.413 55.8967 81.5897 55.9833 81.763 56.11C81.943 56.23 82.0864 56.4133 82.193 56.66C82.2997 56.9 82.353 57.1933 82.353 57.54V61H81.703ZM80.273 60.51C80.7997 60.51 81.2764 60.2467 81.703 59.72V58.73C81.283 58.45 80.8464 58.31 80.393 58.31C80.0264 58.31 79.7197 58.4033 79.473 58.59C79.233 58.77 79.113 59.0367 79.113 59.39C79.113 59.73 79.213 60.0033 79.413 60.21C79.6197 60.41 79.9064 60.51 80.273 60.51ZM84.819 54.71C84.7324 54.7967 84.6224 54.84 84.489 54.84C84.3557 54.84 84.2457 54.7967 84.159 54.71C84.0724 54.6233 84.029 54.5133 84.029 54.38C84.029 54.2467 84.0724 54.1333 84.159 54.04C84.2524 53.9467 84.3624 53.9 84.489 53.9C84.6224 53.9 84.7324 53.9467 84.819 54.04C84.9057 54.1333 84.949 54.2467 84.949 54.38C84.949 54.5133 84.9057 54.6233 84.819 54.71ZM84.139 61V55.89H84.839V61H84.139ZM86.879 61V54.12L87.579 53.78V61H86.879ZM92.8322 61V55.27H91.6422V54.87C92.4089 54.87 92.8889 54.58 93.0822 54H93.5322V61H92.8322ZM96.9549 61.12C96.2816 61.12 95.6949 60.8233 95.1949 60.23L95.6849 59.8C96.0782 60.2667 96.5216 60.5 97.0149 60.5C97.3082 60.5 97.5482 60.4367 97.7349 60.31C97.9216 60.1767 98.0149 59.9933 98.0149 59.76C98.0149 59.6133 97.9816 59.4833 97.9149 59.37C97.8482 59.25 97.7416 59.1433 97.5949 59.05C97.4549 58.95 97.3282 58.8733 97.2149 58.82C97.1016 58.7667 96.9449 58.7 96.7449 58.62C96.5049 58.52 96.3082 58.43 96.1549 58.35C96.0016 58.27 95.8449 58.17 95.6849 58.05C95.5249 57.93 95.4049 57.79 95.3249 57.63C95.2516 57.4633 95.2149 57.2767 95.2149 57.07C95.2149 56.6833 95.3682 56.37 95.6749 56.13C95.9816 55.89 96.3782 55.77 96.8649 55.77C97.5382 55.77 98.0916 56.03 98.5249 56.55L98.0649 56.94C97.6982 56.5733 97.2916 56.39 96.8449 56.39C96.5516 56.39 96.3149 56.45 96.1349 56.57C95.9616 56.69 95.8749 56.8533 95.8749 57.06C95.8749 57.16 95.8982 57.2533 95.9449 57.34C95.9916 57.4267 96.0449 57.5 96.1049 57.56C96.1649 57.6133 96.2582 57.6767 96.3849 57.75C96.5116 57.8167 96.6116 57.8667 96.6849 57.9C96.7582 57.9267 96.8782 57.9733 97.0449 58.04C97.2449 58.12 97.4016 58.1867 97.5149 58.24C97.6282 58.2867 97.7682 58.3633 97.9349 58.47C98.1082 58.57 98.2382 58.6733 98.3249 58.78C98.4182 58.88 98.4982 59.0133 98.5649 59.18C98.6382 59.34 98.6749 59.52 98.6749 59.72C98.6749 60.1467 98.5182 60.4867 98.2049 60.74C97.8982 60.9933 97.4816 61.12 96.9549 61.12ZM101.604 61.12C100.931 61.12 100.594 60.73 100.594 59.95V56.52H99.7242V55.89H100.594V54.13L101.294 53.78V55.89H102.594V56.52H101.294V59.65C101.294 59.91 101.331 60.11 101.404 60.25C101.478 60.39 101.624 60.46 101.844 60.46C102.064 60.46 102.321 60.36 102.614 60.16L102.534 60.89C102.248 61.0433 101.938 61.12 101.604 61.12ZM25.0517 73.12C24.5517 73.12 24.1084 73.02 23.7217 72.82C23.3417 72.6133 23.0384 72.3367 22.8117 71.99C22.5917 71.6433 22.425 71.26 22.3117 70.84C22.205 70.42 22.1517 69.9733 22.1517 69.5C22.1517 68.8333 22.2484 68.2367 22.4417 67.71C22.6417 67.1767 22.965 66.74 23.4117 66.4C23.8584 66.0533 24.405 65.88 25.0517 65.88C25.625 65.88 26.0717 65.9833 26.3917 66.19C26.7117 66.39 26.9784 66.6633 27.1917 67.01L26.5717 67.37C26.385 67.1033 26.175 66.8933 25.9417 66.74C25.715 66.5867 25.4184 66.51 25.0517 66.51C24.6717 66.51 24.335 66.6 24.0417 66.78C23.7484 66.9533 23.5217 67.19 23.3617 67.49C23.2017 67.7833 23.0817 68.1 23.0017 68.44C22.9217 68.78 22.8817 69.1333 22.8817 69.5C22.8817 70.04 22.9517 70.53 23.0917 70.97C23.2384 71.4033 23.4784 71.7667 23.8117 72.06C24.1517 72.3467 24.565 72.49 25.0517 72.49C25.7717 72.49 26.3117 72.1933 26.6717 71.6L27.2917 71.84C27.1117 72.2067 26.8317 72.5133 26.4517 72.76C26.0784 73 25.6117 73.12 25.0517 73.12ZM29.0177 73V66.12L29.7177 65.78V73H29.0177ZM34.6858 73V72.5C34.2258 72.9133 33.7258 73.12 33.1858 73.12C32.6525 73.12 32.2291 72.9733 31.9158 72.68C31.6025 72.38 31.4458 71.95 31.4458 71.39C31.4458 70.8367 31.6225 70.4167 31.9758 70.13C32.3358 69.8433 32.7791 69.7 33.3058 69.7C33.7791 69.7 34.2391 69.82 34.6858 70.06V69.63C34.6858 68.7967 34.3125 68.38 33.5658 68.38C33.0858 68.38 32.5791 68.5633 32.0458 68.93L31.8458 68.33C32.4325 67.9567 33.0291 67.77 33.6358 67.77C33.8425 67.77 34.0358 67.7967 34.2158 67.85C34.3958 67.8967 34.5725 67.9833 34.7458 68.11C34.9258 68.23 35.0691 68.4133 35.1758 68.66C35.2825 68.9 35.3358 69.1933 35.3358 69.54V73H34.6858ZM33.2558 72.51C33.7825 72.51 34.2591 72.2467 34.6858 71.72V70.73C34.2658 70.45 33.8291 70.31 33.3758 70.31C33.0091 70.31 32.7025 70.4033 32.4558 70.59C32.2158 70.77 32.0958 71.0367 32.0958 71.39C32.0958 71.73 32.1958 72.0033 32.3958 72.21C32.6025 72.41 32.8891 72.51 33.2558 72.51ZM38.5518 73.12C37.8785 73.12 37.2918 72.8233 36.7918 72.23L37.2818 71.8C37.6751 72.2667 38.1185 72.5 38.6118 72.5C38.9051 72.5 39.1451 72.4367 39.3318 72.31C39.5185 72.1767 39.6118 71.9933 39.6118 71.76C39.6118 71.6133 39.5785 71.4833 39.5118 71.37C39.4451 71.25 39.3385 71.1433 39.1918 71.05C39.0518 70.95 38.9251 70.8733 38.8118 70.82C38.6985 70.7667 38.5418 70.7 38.3418 70.62C38.1018 70.52 37.9051 70.43 37.7518 70.35C37.5985 70.27 37.4418 70.17 37.2818 70.05C37.1218 69.93 37.0018 69.79 36.9218 69.63C36.8485 69.4633 36.8118 69.2767 36.8118 69.07C36.8118 68.6833 36.9651 68.37 37.2718 68.13C37.5785 67.89 37.9751 67.77 38.4618 67.77C39.1351 67.77 39.6885 68.03 40.1218 68.55L39.6618 68.94C39.2951 68.5733 38.8885 68.39 38.4418 68.39C38.1485 68.39 37.9118 68.45 37.7318 68.57C37.5585 68.69 37.4718 68.8533 37.4718 69.06C37.4718 69.16 37.4951 69.2533 37.5418 69.34C37.5885 69.4267 37.6418 69.5 37.7018 69.56C37.7618 69.6133 37.8551 69.6767 37.9818 69.75C38.1085 69.8167 38.2085 69.8667 38.2818 69.9C38.3551 69.9267 38.4751 69.9733 38.6418 70.04C38.8418 70.12 38.9985 70.1867 39.1118 70.24C39.2251 70.2867 39.3651 70.3633 39.5318 70.47C39.7051 70.57 39.8351 70.6733 39.9218 70.78C40.0151 70.88 40.0951 71.0133 40.1618 71.18C40.2351 71.34 40.2718 71.52 40.2718 71.72C40.2718 72.1467 40.1151 72.4867 39.8018 72.74C39.4951 72.9933 39.0785 73.12 38.5518 73.12ZM43.3611 73.12C42.6878 73.12 42.1011 72.8233 41.6011 72.23L42.0911 71.8C42.4845 72.2667 42.9278 72.5 43.4211 72.5C43.7145 72.5 43.9545 72.4367 44.1411 72.31C44.3278 72.1767 44.4211 71.9933 44.4211 71.76C44.4211 71.6133 44.3878 71.4833 44.3211 71.37C44.2545 71.25 44.1478 71.1433 44.0011 71.05C43.8611 70.95 43.7345 70.8733 43.6211 70.82C43.5078 70.7667 43.3511 70.7 43.1511 70.62C42.9111 70.52 42.7145 70.43 42.5611 70.35C42.4078 70.27 42.2511 70.17 42.0911 70.05C41.9311 69.93 41.8111 69.79 41.7311 69.63C41.6578 69.4633 41.6211 69.2767 41.6211 69.07C41.6211 68.6833 41.7745 68.37 42.0811 68.13C42.3878 67.89 42.7845 67.77 43.2711 67.77C43.9445 67.77 44.4978 68.03 44.9311 68.55L44.4711 68.94C44.1045 68.5733 43.6978 68.39 43.2511 68.39C42.9578 68.39 42.7211 68.45 42.5411 68.57C42.3678 68.69 42.2811 68.8533 42.2811 69.06C42.2811 69.16 42.3045 69.2533 42.3511 69.34C42.3978 69.4267 42.4511 69.5 42.5111 69.56C42.5711 69.6133 42.6645 69.6767 42.7911 69.75C42.9178 69.8167 43.0178 69.8667 43.0911 69.9C43.1645 69.9267 43.2845 69.9733 43.4511 70.04C43.6511 70.12 43.8078 70.1867 43.9211 70.24C44.0345 70.2867 44.1745 70.3633 44.3411 70.47C44.5145 70.57 44.6445 70.6733 44.7311 70.78C44.8245 70.88 44.9045 71.0133 44.9711 71.18C45.0445 71.34 45.0811 71.52 45.0811 71.72C45.0811 72.1467 44.9245 72.4867 44.6111 72.74C44.3045 72.9933 43.8878 73.12 43.3611 73.12ZM49.3656 66H51.2256C51.7923 66 52.289 66.1 52.7156 66.3C53.1423 66.5 53.4723 66.77 53.7056 67.11C53.939 67.45 54.1123 67.82 54.2256 68.22C54.339 68.62 54.3956 69.0467 54.3956 69.5C54.3956 69.84 54.3656 70.17 54.3056 70.49C54.2456 70.8033 54.139 71.1167 53.9856 71.43C53.8323 71.7367 53.639 72.0067 53.4056 72.24C53.1723 72.4667 52.8656 72.65 52.4856 72.79C52.1056 72.93 51.6723 73 51.1856 73H49.3656V66ZM51.2356 72.37C51.6823 72.37 52.069 72.2867 52.3956 72.12C52.729 71.9533 52.9823 71.7267 53.1556 71.44C53.3356 71.1533 53.4656 70.85 53.5456 70.53C53.6256 70.21 53.6656 69.8667 53.6656 69.5C53.6656 68.7 53.4723 68.0233 53.0856 67.47C52.699 66.91 52.119 66.63 51.3456 66.63H50.0656V72.37H51.2356ZM58.0434 73.12C57.3768 73.12 56.8401 72.86 56.4334 72.34C56.0268 71.82 55.8234 71.1867 55.8234 70.44C55.8234 69.6067 56.0268 68.9533 56.4334 68.48C56.8401 68.0067 57.3768 67.77 58.0434 67.77C58.6301 67.77 59.1134 67.98 59.4934 68.4C59.8734 68.8133 60.0634 69.4267 60.0634 70.24C60.0634 70.42 60.0568 70.5833 60.0434 70.73H56.5634C56.6234 71.2633 56.7834 71.6867 57.0434 72C57.3034 72.3133 57.6468 72.47 58.0734 72.47C58.4801 72.47 58.8634 72.3367 59.2234 72.07L59.6034 72.54C59.1368 72.9267 58.6168 73.12 58.0434 73.12ZM56.5434 70.1H59.3534C59.3468 69.48 59.2101 69.0433 58.9434 68.79C58.6834 68.53 58.3834 68.4 58.0434 68.4C57.6168 68.4 57.2668 68.5433 56.9934 68.83C56.7201 69.1167 56.5701 69.54 56.5434 70.1ZM61.6969 73V66.12L62.3969 65.78V73H61.6969ZM65.115 66.71C65.0283 66.7967 64.9183 66.84 64.785 66.84C64.6516 66.84 64.5416 66.7967 64.455 66.71C64.3683 66.6233 64.325 66.5133 64.325 66.38C64.325 66.2467 64.3683 66.1333 64.455 66.04C64.5483 65.9467 64.6583 65.9 64.785 65.9C64.9183 65.9 65.0283 65.9467 65.115 66.04C65.2016 66.1333 65.245 66.2467 65.245 66.38C65.245 66.5133 65.2016 66.6233 65.115 66.71ZM64.435 73V67.89H65.135V73H64.435ZM68.4949 73L66.6249 67.89H67.3449L68.5849 71.37C68.5983 71.41 68.6149 71.4667 68.6349 71.54C68.6616 71.6067 68.6849 71.67 68.7049 71.73C68.7249 71.79 68.7449 71.85 68.7649 71.91C68.7849 71.85 68.8049 71.79 68.8249 71.73C68.8449 71.67 68.8649 71.6067 68.8849 71.54C68.9116 71.4667 68.9316 71.41 68.9449 71.37L70.1549 67.89H70.8549L68.9849 73H68.4949ZM74.2047 73.12C73.538 73.12 73.0014 72.86 72.5947 72.34C72.188 71.82 71.9847 71.1867 71.9847 70.44C71.9847 69.6067 72.188 68.9533 72.5947 68.48C73.0014 68.0067 73.538 67.77 74.2047 67.77C74.7914 67.77 75.2747 67.98 75.6547 68.4C76.0347 68.8133 76.2247 69.4267 76.2247 70.24C76.2247 70.42 76.218 70.5833 76.2047 70.73H72.7247C72.7847 71.2633 72.9447 71.6867 73.2047 72C73.4647 72.3133 73.808 72.47 74.2347 72.47C74.6414 72.47 75.0247 72.3367 75.3847 72.07L75.7647 72.54C75.298 72.9267 74.778 73.12 74.2047 73.12ZM72.7047 70.1H75.5147C75.508 69.48 75.3714 69.0433 75.1047 68.79C74.8447 68.53 74.5447 68.4 74.2047 68.4C73.778 68.4 73.428 68.5433 73.1547 68.83C72.8814 69.1167 72.7314 69.54 72.7047 70.1ZM77.8081 73V67.89H78.5081V68.61C78.7681 68.05 79.1981 67.77 79.7981 67.77C80.0848 67.77 80.3248 67.84 80.5181 67.98L80.4081 68.66C80.2014 68.5333 79.9814 68.47 79.7481 68.47C79.4348 68.47 79.1481 68.6033 78.8881 68.87C78.6348 69.13 78.5081 69.5433 78.5081 70.11V73H77.8081ZM82.4072 74.94L83.1672 72.84L81.2972 67.89H82.0072L83.2972 71.52C83.3172 71.5867 83.3472 71.68 83.3872 71.8C83.4272 71.92 83.4538 72 83.4672 72.04L83.6472 71.52L84.9572 67.89H85.7072L83.0972 74.94H82.4072ZM87.8625 72.95C87.7425 73.0767 87.5958 73.14 87.4225 73.14C87.2491 73.14 87.0991 73.0767 86.9724 72.95C86.8524 72.8233 86.7924 72.6767 86.7924 72.51C86.7924 72.3433 86.8524 72.1967 86.9724 72.07C87.0991 71.9433 87.2491 71.88 87.4225 71.88C87.5958 71.88 87.7425 71.9433 87.8625 72.07C87.9891 72.1967 88.0525 72.3433 88.0525 72.51C88.0525 72.6767 87.9891 72.8233 87.8625 72.95Z" fill="#333333"/>
</svg>
