<svg width="21" height="19" viewBox="0 0 21 19" fill="none" xmlns="http://www.w3.org/2000/svg">
<path d="M9.55489 17.3004L9.55381 17.2994C6.96371 14.9507 4.87476 13.0547 3.42429 11.2814C1.98243 9.5186 1.25 7.96864 1.25 6.325C1.25 3.65921 3.33421 1.575 6 1.575C7.51291 1.575 8.97668 2.28295 9.92899 3.40125L10.5 4.0718L11.071 3.40125C12.0233 2.28295 13.4871 1.575 15 1.575C17.6658 1.575 19.75 3.65921 19.75 6.325C19.75 7.96865 19.0176 9.51865 17.5756 11.2829C16.1251 13.0574 14.0363 14.9557 11.4464 17.3092C11.4461 17.3095 11.4459 17.3097 11.4456 17.3099L10.5019 18.1625L9.55489 17.3004Z" stroke="#141729" stroke-width="1.5"/>
</svg>
