<svg width="24" height="24" viewBox="0 0 24 24" fill="none" xmlns="http://www.w3.org/2000/svg">
<path d="M15.397 7C15.6197 7 15.7312 6.73068 15.5737 6.5732L12.1768 3.17722C12.0791 3.07961 11.9209 3.07962 11.8232 3.17724L8.42747 6.57311C8.26998 6.7306 8.38151 6.99987 8.60423 6.99988L10.7507 6.99999C10.8888 6.99999 11.0007 7.11193 11.0007 7.24999L11.0005 16.7512C11.0005 16.8893 10.8885 17.0012 10.7505 17.0012L8.60419 17.0011C8.38146 17.0011 8.26991 17.2704 8.4274 17.4279L11.8232 20.8237C11.9209 20.9214 12.0791 20.9214 12.1768 20.8237L15.5731 17.428C15.7306 17.2705 15.6191 17.0012 15.3964 17.0012L13.2497 17.0012C13.1117 17.0012 12.9997 16.8893 12.9997 16.7512L13 7.24999C13 7.11192 13.1119 7 13.25 7L15.397 7Z" fill="#141729"/>
</svg>
