<svg width="24" height="24" viewBox="0 0 24 24" fill="none" xmlns="http://www.w3.org/2000/svg">
<path d="M17.0005 15.397C17.0005 15.6197 17.2698 15.7312 17.4273 15.5737L20.8233 12.1768C20.9209 12.0791 20.9209 11.9209 20.8232 11.8232L17.4274 8.42747C17.2699 8.26998 17.0006 8.38151 17.0006 8.60423L17.0005 10.7507C17.0005 10.8888 16.8886 11.0007 16.7505 11.0007L7.24928 11.0005C7.11121 11.0005 6.99928 10.8885 6.99928 10.7505L6.99938 8.60419C6.99939 8.38146 6.73009 8.26991 6.5726 8.4274L3.17676 11.8232C3.07914 11.9209 3.07913 12.0791 3.17674 12.1768L6.57248 15.5731C6.72997 15.7306 6.99928 15.6191 6.99928 15.3964L6.99928 13.2497C6.99928 13.1117 7.11121 12.9997 7.24928 12.9997L16.7505 13C16.8886 13 17.0005 13.1119 17.0005 13.25L17.0005 15.397Z" fill="#141729"/>
</svg>
