<svg width="29" height="30" viewBox="0 0 29 30" fill="none" xmlns="http://www.w3.org/2000/svg">
<path d="M13.4231 11.7215H1.57692C1.29131 11.7215 1.01738 11.6064 0.815423 11.4015C0.61346 11.1966 0.5 10.9186 0.5 10.6288C0.5 10.339 0.61346 10.061 0.815423 9.85609C1.01738 9.65116 1.29131 9.53603 1.57692 9.53603H13.4231C14.0621 9.53603 14.6867 9.34376 15.218 8.98354C15.7493 8.62332 16.1634 8.11132 16.4079 7.51229C16.6524 6.91326 16.7164 6.25411 16.5918 5.61819C16.4671 4.98226 16.1594 4.39813 15.7076 3.93965C15.2557 3.48118 14.6801 3.16895 14.0534 3.04246C13.4267 2.91597 12.7771 2.98089 12.1867 3.22901C11.5964 3.47714 11.0918 3.89732 10.7368 4.43643C10.3818 4.97554 10.1923 5.60937 10.1923 6.25775C10.1923 6.54757 10.0788 6.82551 9.87689 7.03045C9.67492 7.23538 9.401 7.35051 9.11539 7.35051C8.82977 7.35051 8.55585 7.23538 8.35388 7.03045C8.15192 6.82551 8.03846 6.54757 8.03846 6.25775C8.03846 5.17711 8.35426 4.12074 8.94593 3.22222C9.5376 2.32371 10.3786 1.6234 11.3625 1.20985C12.3464 0.796313 13.4291 0.688111 14.4736 0.898933C15.5181 1.10976 16.4775 1.63013 17.2306 2.39426C17.9836 3.15838 18.4965 4.13194 18.7042 5.19181C18.912 6.25169 18.8054 7.35028 18.3978 8.34865C17.9903 9.34703 17.3001 10.2004 16.4146 10.8007C15.5291 11.4011 14.4881 11.7215 13.4231 11.7215Z" fill="#9059A4"/>
<path d="M10.1923 29.2059C8.76474 29.2042 7.39614 28.628 6.3867 27.6037C5.37726 26.5794 4.8094 25.1907 4.80769 23.7421C4.80769 23.4523 4.92115 23.1744 5.12311 22.9694C5.32508 22.7645 5.599 22.6494 5.88461 22.6494C6.17023 22.6494 6.44415 22.7645 6.64612 22.9694C6.84808 23.1744 6.96154 23.4523 6.96154 23.7421C6.96154 24.3905 7.15102 25.0243 7.50602 25.5634C7.86102 26.1025 8.3656 26.5227 8.95595 26.7709C9.54629 27.019 10.1959 27.0839 10.8226 26.9574C11.4493 26.8309 12.025 26.5187 12.4768 26.0602C12.9286 25.6017 13.2363 25.0176 13.361 24.3817C13.4857 23.7458 13.4217 23.0866 13.1771 22.4876C12.9326 21.8885 12.5185 21.3766 11.9872 21.0163C11.4559 20.6561 10.8313 20.4638 10.1923 20.4638H1.57692C1.29131 20.4638 1.01738 20.3487 0.815423 20.1438C0.61346 19.9388 0.5 19.6609 0.5 19.3711C0.5 19.0813 0.61346 18.8033 0.815423 18.5984C1.01738 18.3934 1.29131 18.2783 1.57692 18.2783H10.1923C11.6204 18.2783 12.99 18.854 13.9998 19.8786C15.0096 20.9033 15.5769 22.293 15.5769 23.7421C15.5769 25.1912 15.0096 26.5809 13.9998 27.6056C12.99 28.6303 11.6204 29.2059 10.1923 29.2059Z" fill="#9059A4"/>
<path d="M23.1154 24.8348C21.6878 24.8331 20.3192 24.2569 19.3098 23.2326C18.3003 22.2083 17.7325 20.8196 17.7308 19.371C17.7308 19.0812 17.8442 18.8033 18.0462 18.5983C18.2482 18.3934 18.5221 18.2783 18.8077 18.2783C19.0933 18.2783 19.3672 18.3934 19.5692 18.5983C19.7712 18.8033 19.8846 19.0812 19.8846 19.371C19.8846 20.0194 20.0741 20.6532 20.4291 21.1923C20.7841 21.7315 21.2887 22.1516 21.879 22.3998C22.4694 22.6479 23.119 22.7128 23.7457 22.5863C24.3724 22.4598 24.9481 22.1476 25.3999 21.6891C25.8517 21.2306 26.1594 20.6465 26.2841 20.0106C26.4087 19.3747 26.3448 18.7155 26.1002 18.1165C25.8557 17.5175 25.4416 17.0055 24.9103 16.6452C24.379 16.285 23.7544 16.0927 23.1154 16.0927H1.57692C1.29131 16.0927 1.01738 15.9776 0.815423 15.7727C0.61346 15.5678 0.5 15.2898 0.5 15C0.5 14.7102 0.61346 14.4322 0.815423 14.2273C1.01738 14.0224 1.29131 13.9072 1.57692 13.9072H23.1154C24.5435 13.9072 25.9131 14.4829 26.9229 15.5075C27.9327 16.5322 28.5 17.9219 28.5 19.371C28.5 20.8201 27.9327 22.2099 26.9229 23.2345C25.9131 24.2592 24.5435 24.8348 23.1154 24.8348Z" fill="#9059A4"/>
</svg>
