<svg width="14" height="8" viewBox="0 0 14 8" fill="none" xmlns="http://www.w3.org/2000/svg">
<path fill-rule="evenodd" clip-rule="evenodd" d="M1.29289 0.792893C0.902369 1.18342 0.902369 1.81658 1.29289 2.20711L6.29289 7.20711C6.68342 7.59763 7.31658 7.59763 7.70711 7.20711L12.7071 2.20711C13.0976 1.81658 13.0976 1.18342 12.7071 0.792893C12.3166 0.402369 11.6834 0.402369 11.2929 0.792893L7 5.08579L2.70711 0.792893C2.31658 0.402369 1.68342 0.402369 1.29289 0.792893Z" fill="#858DA5"/>
<path fill-rule="evenodd" clip-rule="evenodd" d="M0.93934 0.43934C0.353553 1.02513 0.353553 1.97487 0.93934 2.56066L5.93934 7.56066C6.52513 8.14645 7.47487 8.14645 8.06066 7.56066L13.0607 2.56066C13.6464 1.97487 13.6464 1.02513 13.0607 0.43934C12.4749 -0.146447 11.5251 -0.146447 10.9393 0.43934L7 4.37868L3.06066 0.43934C2.47487 -0.146447 1.52513 -0.146447 0.93934 0.43934ZM1.64645 1.85355C1.45118 1.65829 1.45118 1.34171 1.64645 1.14645C1.84171 0.951185 2.15829 0.951185 2.35355 1.14645L6.64645 5.43934C6.74021 5.53311 6.86739 5.58579 7 5.58579C7.13261 5.58579 7.25979 5.53311 7.35355 5.43934L11.6464 1.14645C11.8417 0.951185 12.1583 0.951185 12.3536 1.14645L12.7071 0.792893L12.3536 1.14645C12.5488 1.34171 12.5488 1.65829 12.3536 1.85355L12.675 2.17497L12.3536 1.85355L7.35355 6.85355C7.15829 7.04882 6.84171 7.04882 6.64645 6.85355L1.64645 1.85355Z" fill="#858DA5"/>
</svg>
