<svg width="123" height="105" viewBox="0 0 123 105" fill="none" xmlns="http://www.w3.org/2000/svg">
<g clip-path="url(#clip0_2060_3752)">
<path d="M13.4378 77.1304C15.712 80.9219 18.6337 83.9442 22.2504 86.3227C22.3214 86.3698 22.3846 86.4169 22.4557 86.4562C29.9575 91.3075 40.3731 93.4348 53.9395 93.898C54.3896 93.9137 54.8476 93.9294 55.3056 93.9372C56.877 93.9765 58.488 94 60.1384 94C63.0285 94 65.7923 93.9215 68.4298 93.7645C81.8856 92.9874 92.1355 90.3576 99.3293 87.1627C105.457 84.4466 109.366 81.3066 111.135 78.5591C111.19 78.4727 111.237 78.3942 111.293 78.3079C111.332 78.2372 111.38 78.1666 111.419 78.0959C112.193 76.8321 112.777 75.5211 113.196 74.1866C113.196 74.1788 113.204 74.1788 113.204 74.1709C116.599 63.3693 108.868 50.6445 95.1204 40.1176C92.7909 38.3357 90.2955 36.6165 87.6502 34.9837C85.2259 33.4844 82.6832 32.0635 80.0378 30.7212C79.6351 30.5171 79.2324 30.313 78.8218 30.1167C78.3795 29.9048 77.9452 29.685 77.4951 29.4809C77.3451 29.4102 77.195 29.3396 77.045 29.2689C76.8871 29.1983 76.7291 29.1198 76.5791 29.0491C76.5633 29.0413 76.5396 29.0334 76.5238 29.0256C71.9043 26.8982 70.3724 23.0988 68.0192 19.5349C65.9345 16.3871 63.2101 13.4119 57.1376 11.9361C55.1161 11.4416 53.1341 11.159 51.2073 11.0491C50.5124 11.0098 49.8254 10.9941 49.1384 11.002C48.9409 11.002 48.7435 11.0098 48.5461 11.0177C47.3064 11.0569 46.0982 11.1668 44.9058 11.3395C44.7242 11.3631 44.5425 11.3945 44.3609 11.4259C40.46 12.0696 36.8196 13.4198 33.4715 15.2331C33.3293 15.3116 33.1793 15.3901 33.0372 15.4765C32.2712 15.9082 31.521 16.3557 30.7787 16.8267C30.6287 16.9287 30.4787 17.0229 30.3286 17.125C29.9654 17.3683 29.6021 17.6117 29.2468 17.8629C29.002 18.0356 28.7572 18.2083 28.5203 18.381C28.4018 18.4673 28.2913 18.5537 28.1728 18.6322C18.9575 25.5245 12.8297 35.439 11.1003 41.091C7.91012 51.4609 8.09963 68.2206 13.4378 77.1304Z" fill="#DEE5F9"/>
<g clip-path="url(#clip1_2060_3752)">
<path d="M102.632 94.0225C101.819 95.6297 100.701 97.0083 99.4507 97.2855C96.7838 97.8743 92.4432 95.8099 91.5542 93.9394C90.6653 92.0689 85.2412 75.5326 85.2412 75.5326L86.0399 75.2208L94.0058 72.138L99.7354 69.9211C99.7354 69.9211 99.8535 70.4061 100.048 71.2166C100.999 75.2 103.826 87.1226 103.993 88.9237C104.09 90.0737 103.555 92.1936 102.632 94.0225Z" fill="#B0775C"/>
<path d="M100.041 71.2095C99.2838 71.7984 97.4573 73.9459 93.8876 75.4146C87.5329 78.0263 85.7202 76.7517 85.7202 76.7517L86.0397 75.2206L94.0056 72.1378L99.7352 69.921C99.7352 69.914 99.8533 70.399 100.041 71.2095Z" fill="#965A42"/>
<path d="M101.319 68.4455C101.319 68.4455 96.777 72.8722 95.2005 73.3641C93.624 73.856 83.7551 76.1213 83.7551 76.1213L81.4841 70.4129C81.505 70.5168 81.4911 71.2789 81.4563 72.4635C81.4286 73.3433 81.3938 74.4656 81.3522 75.7195C81.3105 76.8764 81.2619 78.1442 81.2133 79.4535C81.1785 80.3888 81.1438 81.3448 81.1091 82.2939C81.0466 83.9427 80.9841 85.5707 80.9216 87.0255C80.873 88.2448 80.8313 89.3463 80.7896 90.233C80.7341 91.667 80.6924 92.5607 80.6924 92.5607C80.6924 92.5607 80.7827 93.5306 80.9146 94.9438C80.998 95.8583 81.1021 96.9528 81.2063 98.089C81.3313 99.4953 81.4633 100.964 81.5675 102.211C81.6439 103.112 81.6994 103.894 81.7411 104.462C81.7619 104.83 81.7758 105.107 81.7758 105.259C81.7758 106.638 79.3103 109 79.3103 109H43.3005C42.6129 108.903 39.6474 106.735 39.6474 105.952C39.6474 105.772 39.7238 104.982 39.8349 103.887C39.9113 103.139 40.0085 102.239 40.1127 101.29C40.2794 99.7932 40.4599 98.1583 40.6197 96.7658C40.7586 95.5257 40.8836 94.4658 40.953 93.8492C40.9947 93.4751 41.0225 93.2535 41.0225 93.2535L40.71 88.4318L40.5086 85.3005L40.2238 80.9222L40.0363 77.9918L39.8418 75.0475L37.7722 76.918C37.7722 76.918 37.6958 76.6894 37.543 76.3153C36.9249 74.8536 35.0151 71.1819 31.1606 70.3229C26.3268 69.2421 22.771 70.9117 22.771 70.9117C22.771 70.9117 24.7156 65.4389 26.4935 60.825C26.8963 59.7789 27.2922 58.7744 27.6533 57.8877C28.2645 56.3982 28.7784 55.2413 29.084 54.7702C29.4243 54.2437 29.7646 53.5579 30.1605 52.782C30.7855 51.5627 31.5564 50.1287 32.7371 48.7917C33.5983 47.8079 34.6886 46.8727 36.0985 46.1106C36.1818 46.0622 36.3138 46.0067 36.4874 45.9305C37.5014 45.501 39.8974 44.6628 42.3073 43.8384C45.509 42.7438 48.7245 41.6839 48.7245 41.6839C48.7245 41.6839 55.1417 45.5218 57.2113 46.1106C59.2809 46.6995 68.4622 47.0944 69.9415 46.6995C71.3583 46.3254 75.7128 42.0372 76.0879 41.6631L85.7345 45.023L86.4984 45.5357L90.4224 48.1751L94.8116 51.1263L95.3325 52.5049L96.7701 56.329L98.9439 62.1066L99.7842 64.3512L101.319 68.4455Z" fill="#FCB552"/>
<g opacity="0.5">
<path d="M90.4153 48.1681C88.3735 49.1172 83.1508 51.5211 80.7965 52.3039C77.8379 53.2877 62.2464 53.7795 56.8154 53.7795C51.3913 53.7795 40.9252 47.2814 38.6611 46.8865C37.9666 46.7687 37.2096 46.3877 36.4873 45.9166C37.5013 45.4871 39.8973 44.6489 42.3072 43.8245C43.8768 44.926 50.0301 48.8955 58.5933 49.7407C68.5594 50.7244 77.3448 48.757 79.8103 48.2651C81.3799 47.9534 84.4565 46.5263 86.4983 45.5287L90.4153 48.1681Z" fill="#E89D43"/>
<path d="M96.7634 56.3221C94.0896 57.4928 90.1587 59.0862 87.3043 59.682C82.5678 60.6657 61.1563 62.0443 58.8853 61.7464C56.6143 61.4485 44.5786 59.0862 39.6407 57.5136C36.7446 56.5922 32.8693 54.41 30.1538 52.7682C30.7789 51.5489 31.5498 50.1149 32.7304 48.7778C36.0987 50.392 43.8633 54.0775 45.1689 54.4655C46.8496 54.9573 58.0936 57.5136 62.337 57.5136C66.5804 57.5136 89.2767 54.7564 89.2767 54.7564L95.3189 52.498L96.7634 56.3221Z" fill="#E89D43"/>
<path d="M43.0992 63.9147L42.9047 66.9629C42.9047 66.9629 39.9461 64.4066 37.182 63.4159C35.3555 62.7647 29.9523 61.5524 26.4937 60.8111C26.8965 59.765 27.2923 58.7605 27.6535 57.8738C30.2231 58.1717 33.5637 58.6289 35.4041 59.19C38.6613 60.1738 43.0992 63.9147 43.0992 63.9147Z" fill="#E89D43"/>
<path d="M99.7843 64.3443C97.5689 65.3696 93.513 67.1708 91.36 67.6558C88.3042 68.3416 79.8174 68.8404 79.8174 68.8404C79.8174 68.8404 59.0935 68.6464 56.8225 68.6464C54.5515 68.6464 42.9116 66.9699 42.9116 66.9699L43.1061 63.9217L54.357 64.9055L76.7547 65.9862C76.7547 65.9862 86.818 65.6883 89.7835 65.1964C91.7976 64.8639 96.291 63.1528 98.944 62.1067L99.7843 64.3443Z" fill="#E89D43"/>
<path d="M81.4563 72.4636C81.4286 73.3434 81.3938 74.4657 81.3522 75.7196C78.5047 75.962 70.5457 76.6132 67.9691 76.6132C64.8091 76.6132 52.1831 76.2184 50.6969 75.9274C49.2176 75.6295 38.6612 73.2672 38.6612 73.2672L38.1611 70.1636C38.1611 70.1636 54.3569 73.5581 58.2044 73.3642C62.052 73.1702 65.212 73.5581 69.1567 73.5581C72.5667 73.5651 79.609 72.6991 81.4563 72.4636Z" fill="#E89D43"/>
<path d="M81.2136 79.4534C81.1789 80.3887 81.1441 81.3447 81.1094 82.2938L75.0742 83.2152C75.0742 83.2152 60.5661 83.707 58.1978 83.5131C56.1907 83.3468 43.9467 81.4902 40.2241 80.9221L40.0366 77.9917C42.3632 78.3589 50.8917 79.689 52.0793 79.7721C53.4613 79.8691 65.8929 80.4579 67.8653 80.361C69.4765 80.2778 78.0606 79.6751 81.2136 79.4534Z" fill="#E89D43"/>
<path d="M80.9218 87.0254C80.8732 88.2446 80.8315 89.3461 80.7899 90.2329C78.2063 90.5377 71.7752 91.279 69.7403 91.279C67.1776 91.279 58.4894 91.4729 57.0101 91.085C55.885 90.7871 45.5925 89.1799 40.7102 88.4248L40.5088 85.2935C43.7104 85.8962 49.4956 86.9492 50.6971 86.9492C52.3778 86.9492 65.6983 87.7389 68.6569 87.7389C71.0668 87.7389 78.3035 87.2193 80.9218 87.0254Z" fill="#E89D43"/>
<path d="M81.2136 98.0889C78.9842 98.4907 74.9353 99.1834 71.817 99.4536C67.275 99.8485 56.4199 99.6476 53.4613 99.0587C51.3639 98.6431 44.4745 97.4307 40.627 96.7657C40.7659 95.5256 40.8909 94.4657 40.9603 93.8491C44.6967 94.5419 52.489 95.9413 56.5241 96.3084C61.9481 96.8003 72.4143 95.9136 74.088 95.9136C75.227 95.9136 78.762 95.3247 80.9219 94.9506C81.0122 95.8581 81.1094 96.9527 81.2136 98.0889Z" fill="#E89D43"/>
<path d="M81.748 104.462C80.4701 104.691 78.838 104.961 77.6435 105.065C75.3725 105.259 53.1693 105.654 51.0997 105.557C49.6829 105.488 43.5713 104.504 39.8418 103.887C39.9182 103.139 40.0154 102.239 40.1196 101.29C42.8143 101.615 48.8981 102.349 52.5789 102.8C57.4127 103.389 72.2194 103.389 72.2194 103.389L81.5813 102.211C81.6508 103.112 81.7063 103.894 81.748 104.462Z" fill="#E89D43"/>
</g>
<path d="M56.7181 109H43.3004C42.6128 108.903 39.6473 106.735 39.6473 105.952C39.6473 105.772 39.7237 104.982 39.8348 103.887C39.9112 103.139 40.0084 102.239 40.1126 101.289C40.2793 99.7931 40.4599 98.1582 40.6196 96.7657C40.7585 95.5257 40.8835 94.4657 40.953 93.8492C40.9946 93.4751 41.0224 93.2534 41.0224 93.2534L40.7099 88.4317L40.5085 85.3004L40.2237 80.9221L40.0362 77.9917L39.8418 75.0475L37.7722 76.918C37.7722 76.918 37.6958 76.6893 37.543 76.3152C38.043 74.1261 38.8278 72.5882 40.0432 72.5674C43.5087 72.4981 43.3837 87.926 43.6754 90.7733C43.7726 91.7362 43.8838 92.7338 44.3769 93.5651C45.4881 95.4356 48.3494 96.2184 48.5578 98.3799C46.8493 98.2621 45.1408 98.1443 43.4323 98.0335C43.6615 101.276 46.0228 104.268 49.1272 105.259C50.7246 105.772 52.4609 105.786 54.0304 106.374C55.2319 106.825 56.3848 107.808 56.7181 109Z" fill="#E89D43"/>
<path d="M67.7051 62.6124C67.7051 62.6124 68.1704 68.9443 68.7607 69.7341C69.358 70.5238 73.657 72.6368 73.657 72.6368C73.657 72.6368 79.2755 70.129 79.4769 69.3392C79.6783 68.5495 79.4769 62.0859 79.4769 62.0859L67.7051 62.6124Z" fill="#FCB552"/>
<path d="M73.6501 72.8722L73.5598 72.8307C73.1153 72.609 69.1983 70.6762 68.5941 69.8656C67.983 69.0482 67.5454 63.2843 67.4968 62.6331L67.4829 62.4184L79.6853 61.8711L79.6922 62.0859C79.6992 62.3491 79.8867 68.5909 79.6853 69.4015C79.6436 69.5747 79.5395 69.9903 76.5948 71.4798C75.178 72.2003 73.7612 72.8307 73.7473 72.8376L73.6501 72.8722ZM67.9274 62.8133C68.1219 65.3349 68.5316 69.0828 68.9275 69.6162C69.3789 70.2189 72.4139 71.7985 73.657 72.415C73.9904 72.2626 75.1919 71.7153 76.3934 71.1057C79.0325 69.7686 79.2547 69.3599 79.2686 69.2976C79.4214 68.6949 79.3242 64.2404 79.2686 62.3075L67.9274 62.8133Z" fill="#E89D43"/>
<path d="M76.088 41.6561C75.7129 42.0302 71.3584 46.3184 69.9416 46.6925C69.0943 46.9211 65.6982 46.8865 62.573 46.6994C60.2603 46.5678 58.0934 46.3531 57.2114 46.0967C55.1418 45.5079 48.7246 41.67 48.7246 41.67C48.7246 41.67 52.4749 38.8158 52.8708 37.6311C53.1764 36.7167 53.4819 31.798 53.607 29.6158L53.6208 29.2971C53.6278 29.2417 53.6278 29.1932 53.6278 29.1447V29.0962C53.6278 29.0616 53.6347 29.0339 53.6347 28.9992C53.6347 28.9715 53.6417 28.9438 53.6417 28.9161L53.6486 28.8053C53.6486 28.7845 53.6486 28.7637 53.6486 28.7429L53.6556 28.5767L67.2747 30.0523C67.2747 30.0523 68.1637 37.4372 68.6568 38.026C69.1499 38.6149 73.5878 40.7832 73.5878 40.7832L76.088 41.6561Z" fill="#B0775C"/>
<path d="M76.088 41.656C75.7129 42.0301 71.3584 46.3183 69.9416 46.6924C69.0943 46.921 65.6982 46.8864 62.573 46.6993L57.2114 46.0966C57.2114 46.0966 67.5664 46.1451 69.0596 45.584C70.5528 45.0228 73.8795 40.9009 73.8795 40.9009L76.088 41.656Z" fill="#965A42"/>
<path d="M68.6568 38.0259C68.6568 38.0259 63.9203 39.5985 62.2396 39.0096C60.5589 38.4208 53.4819 31.7425 53.4819 31.7425L53.5931 29.6226L53.6069 29.304L53.6139 29.1516V29.1031L53.6208 29.0061L53.6278 28.923L53.6347 28.8121V28.7498L53.6417 28.5835L67.2608 30.0591C67.2747 30.0522 68.1637 37.4371 68.6568 38.0259Z" fill="#965A42"/>
<path d="M53.6626 29.9553C53.6626 29.9553 60.8646 35.0748 62.0522 35.0748C63.2398 35.0748 67.8304 33.8555 67.8304 33.8555L67.2818 30.0523L53.6626 28.5767V29.9553Z" fill="#35231F"/>
<path d="M66.8854 7.41254L66.4896 9.35921L64.5797 11.0634L52.8704 21.4896L48.2311 22.4733L42.9043 11.7423C44.4808 5.34809 50.5021 1.0183 50.5021 1.0183C60.2738 -1.15006 64.0241 0.824323 64.0241 0.824323L66.8854 7.41254Z" fill="#39302B"/>
<path d="M66.8852 7.41251L66.4893 9.35919L64.5795 11.0634C58.0998 10.2459 49.3977 8.92967 50.2102 7.80739C51.4951 6.0339 58.3984 4.65529 58.8915 4.26042C59.3846 3.86554 59.6832 2.19597 59.6832 2.19597C57.8081 1.51013 50.5089 1.01134 50.5089 1.01134C60.2805 -1.15702 64.0308 0.817365 64.0308 0.817365L66.8852 7.41251Z" fill="black"/>
<path d="M69.7954 30.4955C69.6009 31.0844 64.5658 33.2528 62.8851 32.9549C61.2044 32.657 54.4955 29.2139 53.6065 28.5281C52.7176 27.8422 51.6342 25.6739 50.8424 24.3923C50.0507 23.1106 49.4465 21.4757 49.4465 21.4757L51.4397 20.8453C51.4397 20.8453 52.03 17.2013 51.5369 16.2176C51.0438 15.2339 48.9742 12.2827 48.7728 11.9848C48.5714 11.6869 49.759 8.24385 50.1549 7.75199C50.5507 7.26012 58.1486 6.76826 59.5306 6.37338C60.3293 6.14477 61.5308 5.42429 62.392 4.85622C62.9754 4.4752 63.406 4.16345 63.4685 4.11496L63.4754 4.10803C63.4754 4.10803 65.8645 8.12608 66.8715 10.2737C67.0243 10.5993 67.1424 10.8764 67.2188 11.0981C67.2396 11.1604 67.2674 11.2366 67.2952 11.3128C67.9758 13.2733 69.9898 19.4182 70.1773 20.6444C70.3857 21.9329 69.9898 29.9067 69.7954 30.4955Z" fill="#B0775C"/>
<path d="M69.7953 30.4955C69.7953 30.4955 69.455 22.3209 69.455 20.9215C69.455 19.5221 67.2117 13.2733 66.8367 12.061C66.4894 10.9249 62.8433 5.52128 62.3919 4.85622C62.3641 4.81465 62.3433 4.78694 62.3433 4.78694L63.4614 4.11496L63.4684 4.10803C63.4684 4.10803 65.8574 8.12608 66.8645 10.2737C67.0173 10.5993 67.1353 10.8764 67.2117 11.0981C67.2326 11.1604 67.2603 11.2366 67.2881 11.3128C67.9687 13.2733 69.9828 19.4182 70.1703 20.6444C70.3856 21.9329 69.9897 29.9067 69.7953 30.4955Z" fill="#965A42"/>
<path d="M64.9408 22.8404C64.2394 22.8404 63.5241 22.6811 63.4824 22.6672C63.3782 22.6395 63.3088 22.5356 63.3366 22.4317C63.3643 22.3278 63.4685 22.2585 63.5727 22.2862C63.5866 22.2862 64.8158 22.5702 65.552 22.3832C66.0382 22.2654 66.5451 21.4895 66.7535 21.1016L63.2602 15.1923C63.2046 15.0953 63.2393 14.9775 63.3296 14.9221C63.4268 14.8667 63.5449 14.9013 63.6005 14.9914L67.2049 21.0877L67.1563 21.1847C67.0869 21.3232 66.441 22.5633 65.6492 22.7642C65.4339 22.8196 65.1839 22.8404 64.9408 22.8404Z" fill="#844B36"/>
<path d="M61.26 25.4244C61.2322 25.4244 61.1975 25.4175 61.1697 25.4036C61.0725 25.3551 61.0308 25.2374 61.0795 25.1404C61.0933 25.1127 61.4336 24.4407 62.0448 24.4407C62.1837 24.4407 62.4198 24.4753 62.7532 24.5238C63.7047 24.6624 65.302 24.9048 66.2188 24.5515C66.3229 24.51 66.4341 24.5654 66.4757 24.6624C66.5174 24.7663 66.4618 24.8771 66.3646 24.9187C65.3506 25.3066 63.6908 25.0642 62.6976 24.9118C62.4059 24.8702 62.1559 24.8286 62.0448 24.8286C61.6837 24.8286 61.4336 25.3066 61.4336 25.3136C61.3989 25.3898 61.3295 25.4244 61.26 25.4244Z" fill="#844B36"/>
<path d="M59.9751 15.0953C59.8223 15.22 55.8289 15.5872 55.8289 15.5872L54.3496 16.4739C54.3496 16.4739 54.9399 14.6035 55.433 14.2086C55.9261 13.8137 60.4682 13.4188 60.4682 13.4188C60.4682 13.4188 60.4682 14.7004 59.9751 15.0953Z" fill="black"/>
<path d="M67.3022 11.3197L67.2605 11.4097C67.2605 11.4097 66.8785 11.4444 66.6841 11.4444C66.5452 11.4444 65.3506 12.1648 64.6423 12.6013C64.3297 12.7953 63.9269 12.7745 63.6352 12.5459L63.2324 12.2341L65.7951 10.3637L66.8786 10.2805C67.0313 10.6061 67.1494 10.8832 67.2258 11.1049C67.2536 11.1742 67.2744 11.2435 67.3022 11.3197Z" fill="black"/>
<path d="M56.3223 23.3601H53.6554C53.5443 23.3601 53.4609 23.2701 53.4609 23.1661C53.4609 23.0553 53.5512 22.9722 53.6554 22.9722H56.3223C56.4334 22.9722 56.5167 23.0622 56.5167 23.1661C56.5237 23.2701 56.4334 23.3601 56.3223 23.3601Z" fill="#965A42"/>
<path d="M56.718 24.2468H54.2526C54.1414 24.2468 54.0581 24.1568 54.0581 24.0529C54.0581 23.942 54.1484 23.8589 54.2526 23.8589H56.718C56.8292 23.8589 56.9125 23.9489 56.9125 24.0529C56.9125 24.1568 56.8292 24.2468 56.718 24.2468Z" fill="#965A42"/>
<path d="M58.2327 19.7191C58.7389 19.5188 58.9131 18.7624 58.6217 18.0298C58.3303 17.2972 57.6837 16.8658 57.1774 17.0662C56.6711 17.2665 56.497 18.0228 56.7884 18.7554C57.0798 19.488 57.7264 19.9195 58.2327 19.7191Z" fill="#35231F"/>
<path d="M66.1312 16.5312C66.6604 16.4028 66.938 15.6778 66.7512 14.9121C66.5644 14.1463 65.984 13.6296 65.4548 13.758C64.9256 13.8865 64.648 14.6114 64.8348 15.3772C65.0216 16.143 65.602 16.6596 66.1312 16.5312Z" fill="#35231F"/>
<path d="M56.3847 17.9288C56.3361 17.9288 56.2805 17.908 56.2458 17.8734C56.1694 17.7972 56.1694 17.6725 56.2458 17.5963C56.2874 17.5547 57.2389 16.6264 58.746 16.7996C58.8571 16.8134 58.9335 16.9104 58.9196 17.0143C58.9057 17.1252 58.8085 17.2014 58.7043 17.1875C57.3917 17.0421 56.5375 17.8664 56.5305 17.8734C56.4819 17.908 56.4333 17.9288 56.3847 17.9288Z" fill="#35231F"/>
<path d="M64.4755 14.5826C64.4269 14.5826 64.3713 14.5618 64.3366 14.5272C64.2602 14.451 64.2602 14.3263 64.3366 14.2501C64.3783 14.2085 65.3297 13.2802 66.8368 13.4534C66.9479 13.4673 67.0243 13.5642 67.0104 13.6682C66.9965 13.779 66.8993 13.8552 66.7951 13.8413C65.4825 13.6959 64.6283 14.5203 64.6213 14.5272C64.5727 14.5618 64.5241 14.5826 64.4755 14.5826Z" fill="#35231F"/>
<path d="M22.7708 70.9046C22.7708 70.9046 22.0833 73.2669 23.6598 75.4353C25.2363 77.6036 31.0632 81.0467 33.6259 80.8458C36.1886 80.6518 38.3624 79.4672 37.772 76.9109C37.1817 74.3476 34.0217 66.6718 22.7708 70.9046Z" fill="#39302B"/>
<path d="M48.0369 61.3584L51.2941 59.4879C51.2941 59.4879 55.343 55.941 57.2182 58.2063L53.3707 62.0442L49.7176 64.3096C49.7176 64.3096 47.2521 66.6719 46.2659 68.0505C46.2659 68.0505 43.3073 71.3966 40.446 71.2026C37.5847 71.0087 36.6957 70.4129 36.6957 70.4129C36.6957 70.4129 34.2302 70.115 33.1398 69.3322C32.0564 68.5424 30.2785 64.4135 30.2785 63.3259C30.2785 62.2452 30.6744 56.7307 30.6744 56.7307L29.9729 51.6112L29.1673 46.1799C29.1187 45.8404 29.3062 45.5148 29.6187 45.3832L29.716 45.3416C30.1257 45.1684 30.591 45.3763 30.7299 45.7989L32.3481 50.8283L33.8274 55.359L34.7164 55.0612L34.6191 48.66L34.89 41.3513C34.9039 40.9772 35.2025 40.6655 35.5775 40.6447L35.6817 40.6377C36.0776 40.61 36.4248 40.901 36.4665 41.2959L37.1818 48.0711L37.5777 53.2877L38.2653 53.1907L38.6611 46.8934L39.4737 39.5778C39.5154 39.2037 39.8348 38.9197 40.2099 38.9197C40.6127 38.9197 40.9391 39.2384 40.946 39.6402L41.1266 46.8934L41.0294 53.1907H41.7169L42.4045 47.6763L43.6546 40.5892C43.731 40.1667 44.1546 39.8965 44.5713 40.0073L44.7033 40.042C45.0367 40.132 45.2658 40.4368 45.2519 40.7832L44.9741 48.1681L44.4811 53.4816C44.4811 53.4816 44.8769 56.4328 44.6755 57.3196L45.3631 60.0768L48.0369 61.3584Z" fill="#B0775C"/>
<path d="M34.4178 61.1574C34.3553 61.1574 34.2928 61.1297 34.2581 61.0743C34.1956 60.9842 34.2164 60.8595 34.3067 60.7972C34.3414 60.7764 37.8556 58.4002 42.1962 58.0053C42.3074 57.9984 42.3977 58.0746 42.4115 58.1854C42.4185 58.2963 42.3421 58.3863 42.231 58.4002C37.9945 58.7812 34.5637 61.102 34.529 61.1228C34.4942 61.1505 34.4526 61.1574 34.4178 61.1574Z" fill="#965A42"/>
<path d="M39.4461 65.2933C39.4322 65.2933 39.4183 65.2933 39.4044 65.2863C39.3003 65.2655 39.2308 65.1547 39.2586 65.0508C40.1614 61.0397 43.0297 60.3053 43.1547 60.2776C43.2589 60.2499 43.37 60.3192 43.3909 60.4231C43.4187 60.527 43.3492 60.6379 43.245 60.6586C43.2381 60.6586 42.5505 60.8318 41.7657 61.4692C41.0435 62.058 40.085 63.1665 39.6406 65.1339C39.6197 65.2309 39.5364 65.2933 39.4461 65.2933Z" fill="#965A42"/>
<path d="M102.729 93.6621C102.701 93.7799 102.667 93.8976 102.632 94.0154C101.819 95.6226 100.701 97.0012 99.451 97.2783C96.7841 97.8672 92.4435 95.8028 91.5545 93.9323C90.6656 92.0618 85.2415 75.5254 85.2415 75.5254L82.6094 67.427L91.3601 67.6556C91.3601 67.6556 92.4991 69.5815 94.0061 72.1378C96.7286 76.7517 100.653 83.4161 101.229 84.4899C102.111 86.1594 103.535 90.4407 102.729 93.6621Z" fill="#B0775C"/>
<path d="M101.222 84.6838C101.153 84.6838 101.083 84.6491 101.048 84.5798C100.458 83.4714 96.2772 76.3706 93.8326 72.2347C92.3255 69.6784 91.1865 67.7525 91.1865 67.7525C91.131 67.6555 91.1587 67.5378 91.256 67.4823C91.3463 67.4269 91.4713 67.4546 91.5268 67.5516C91.5268 67.5516 92.6658 69.4775 94.1729 72.0338C96.6175 76.1697 100.805 83.2774 101.396 84.3928C101.444 84.4898 101.41 84.6076 101.312 84.656C101.285 84.6768 101.257 84.6838 101.222 84.6838Z" fill="#965A42"/>
<path d="M85.9983 68.7364C85.9983 68.7364 81.7827 67.8705 81.1854 67.5726C80.5951 67.2747 76.942 61.5663 76.942 61.5663L75.2613 58.9061C75.2613 58.9061 73.2472 57.4859 71.6985 54.7148C71.4624 54.2922 71.5179 53.7657 71.8513 53.4124L71.9068 53.3501C72.261 52.9691 72.8305 52.879 73.282 53.1422C74.2682 53.7103 75.9002 54.7287 76.4767 55.5877C77.3309 56.8486 78.0254 57.5344 78.0254 57.5344L81.1854 58.2202L82.1716 56.5437V50.3435V43.8245C82.1716 43.4643 82.4772 43.1803 82.8383 43.201L83.3245 43.2287C83.63 43.2495 83.8801 43.4781 83.9148 43.783L84.7065 50.1772L85.2691 54.5624L86.3941 54.3754L87.4081 49.2628L89.1096 42.2173C89.2069 41.8086 89.6166 41.5592 90.0194 41.6562L90.3181 41.7254C90.6862 41.8086 90.9362 42.155 90.9015 42.5291L90.2695 49.5537L89.0819 54.8672L89.9708 55.1651L91.6515 49.7546L93.7211 44.9052C93.8323 44.642 94.1309 44.5104 94.4017 44.6074L94.8462 44.7667C95.1032 44.8568 95.256 45.1269 95.1935 45.3971L93.9225 50.9323L92.4433 56.4467L93.2211 57.0772L95.2074 53.8904L98.3812 49.5468C98.534 49.339 98.8327 49.2905 99.041 49.4429L99.4299 49.7269C99.6105 49.8585 99.673 50.101 99.5827 50.3019L97.2423 55.4907L94.7143 60.3886C94.7143 60.3886 93.6308 65.1133 93.235 66C92.8391 66.8868 91.9502 67.9675 90.5681 68.6602C89.186 69.353 85.9983 68.7364 85.9983 68.7364Z" fill="#B0775C"/>
<path d="M91.1584 60.8805C91.1237 60.8805 91.082 60.8667 91.0473 60.8459C88.7416 59.3149 84.3593 58.5182 84.3106 58.5113C84.2065 58.4905 84.1301 58.3866 84.1509 58.2826C84.1717 58.1787 84.269 58.1025 84.3801 58.1233C84.5607 58.1579 88.8874 58.9338 91.2626 60.5134C91.3529 60.5757 91.3807 60.6935 91.3182 60.7835C91.2834 60.8528 91.2209 60.8805 91.1584 60.8805Z" fill="#965A42"/>
<path d="M85.5328 64.3235C85.4287 64.3235 85.3453 64.2473 85.3384 64.1434C85.0536 60.9567 82.602 59.7859 82.5743 59.772C82.477 59.7235 82.4354 59.6127 82.477 59.5088C82.5256 59.4118 82.6368 59.3702 82.7409 59.4118C82.8521 59.4603 85.4287 60.6865 85.7342 64.1088C85.7412 64.2196 85.6648 64.3097 85.5537 64.3235C85.5467 64.3235 85.5398 64.3235 85.5328 64.3235Z" fill="#965A42"/>
<path d="M36.4735 73.3363L28.202 94.2371L20.0068 86.0624L23.7224 73.1007L24.5072 70.3504C30.8133 68.3206 34.5219 71.2164 35.8831 72.6366C36.279 73.0522 36.4735 73.3363 36.4735 73.3363Z" fill="#B0775C"/>
<path d="M35.8834 72.6366C29.8898 69.4638 24.4172 72.6643 23.7227 73.1008L24.5074 70.3505C30.8135 68.3276 34.5291 71.2234 35.8834 72.6366Z" fill="#965A42"/>
<path d="M33.133 69.332L20.0069 86.0693C20.0069 86.0693 17.7359 90.9879 20.0069 95.3247C22.2779 99.6545 26.9172 99.2596 30.2716 95.3247C33.6261 91.3897 41.3211 70.5167 41.3211 70.5167L33.133 69.332Z" fill="#B0775C"/>
<path d="M22.1458 83.4161C22.1042 83.4161 22.0625 83.4022 22.0208 83.3745C21.9375 83.3052 21.9236 83.1805 21.9861 83.0974L32.9801 69.2074C33.0495 69.1243 33.1745 69.1104 33.2579 69.1728C33.3412 69.2421 33.3551 69.3668 33.2926 69.4499L22.3056 83.3399C22.2639 83.3953 22.2084 83.4161 22.1458 83.4161Z" fill="#965A42"/>
<path d="M52.968 27.7729L51.8568 28.6181C51.5095 28.8814 51.0234 28.8675 50.6969 28.5835L47.1203 25.4937C46.8911 25.2928 46.773 25.0019 46.8077 24.697L47.0717 22.3555C47.1203 21.9052 47.4953 21.5588 47.9467 21.538L48.7176 21.5034L49.4677 21.4688L52.968 27.7729Z" fill="#B0775C"/>
<path d="M51.4401 25.9164C51.3984 25.9164 51.3568 25.9025 51.322 25.8748C50.1067 24.9534 48.9955 25.0712 48.9816 25.0712C48.8705 25.0851 48.7732 25.0019 48.7593 24.898C48.7454 24.7872 48.8288 24.6902 48.933 24.6763C48.9816 24.6694 50.2178 24.5378 51.5582 25.5562C51.6485 25.6254 51.6623 25.7501 51.5998 25.8333C51.5651 25.8887 51.5026 25.9164 51.4401 25.9164Z" fill="#965A42"/>
<path d="M50.2594 26.4775C50.2386 26.4775 50.2108 26.4706 50.19 26.4637C50.0858 26.4221 50.0372 26.3113 50.0788 26.2074C50.1344 26.0619 50.433 25.3483 50.8497 25.2098C50.9539 25.1751 51.065 25.2306 51.1067 25.3345C51.1414 25.4384 51.0859 25.5492 50.9817 25.5908C50.8011 25.6531 50.565 26.0827 50.4539 26.3598C50.4192 26.429 50.3428 26.4775 50.2594 26.4775Z" fill="#965A42"/>
<path d="M52.9681 27.7728L52.5166 28.1262L48.2246 21.531L49.4608 21.4756L52.9681 27.7728Z" fill="#965A42"/>
</g>
</g>
<defs>
<clipPath id="clip0_2060_3752">
<rect width="123" height="105" fill="white"/>
</clipPath>
<clipPath id="clip1_2060_3752">
<rect width="85" height="109" fill="white" transform="translate(19)"/>
</clipPath>
</defs>
</svg>
