<svg width="100" height="105" viewBox="0 0 100 105" fill="none" xmlns="http://www.w3.org/2000/svg">
<g clip-path="url(#clip0_2060_3422)">
<path d="M99.7356 64.8626C99.3157 75.9156 94.4912 83.7056 87.0631 88.9114C86.4753 89.3204 85.878 89.7108 85.2715 90.092C85.1128 90.1849 84.9542 90.2872 84.7862 90.3801C84.7489 90.3987 84.7209 90.4266 84.6836 90.4452C84.5996 90.4917 84.5249 90.5475 84.4409 90.5847C84.3103 90.659 84.189 90.7334 84.0583 90.8078C83.6198 91.0495 83.1812 91.2911 82.7332 91.5143C74.456 95.7811 63.9299 97.6031 52.9558 97.6403C51.3694 97.6496 49.7737 97.6217 48.178 97.5566C45.6584 97.4544 43.1389 97.2685 40.6193 96.9989C36.2614 96.5341 32.0342 95.3814 28.0682 93.6709C25.9593 92.7599 23.9249 91.6909 21.9746 90.4824C21.9186 90.4452 21.8533 90.408 21.788 90.3708C21.6387 90.2779 21.4987 90.1849 21.3587 90.092C21.3401 90.0827 21.3214 90.0734 21.3027 90.0548C5.24291 79.7269 -4.49937 59.7963 2.07947 40.8232C6.31605 28.6082 14.4533 22.5287 27.0324 25.7172C28.5161 26.089 30.1212 26.1727 31.8009 25.9961C34.8524 25.6893 38.1278 24.5645 41.2632 22.9563C41.6645 22.7518 42.0471 22.5472 42.439 22.3241C43.2882 21.85 44.1187 21.3481 44.9212 20.8182C45.1919 20.6416 45.4532 20.4649 45.7144 20.2883C46.153 19.9908 46.5916 19.6748 47.0302 19.368C47.4501 19.0612 47.8794 18.7545 48.3087 18.4477C48.8312 18.0759 49.3538 17.6947 49.867 17.3136C50.2496 17.0347 50.6322 16.7651 51.0148 16.4863C53.2544 14.878 55.5127 13.3163 57.9016 12.0428C58.5175 11.7174 59.1334 11.4106 59.7586 11.1225C60.7758 10.6577 61.8209 10.2579 62.8941 9.93257C63.37 9.78384 63.8552 9.6537 64.3405 9.54214C66.9814 8.92861 69.6316 8.85424 72.2164 9.22608C82.0707 10.6484 91.0478 18.5779 95.275 27.9482C100.613 39.8006 100.221 51.904 99.7356 64.8626Z" fill="url(#paint0_linear_2060_3422)"/>
<g clip-path="url(#clip1_2060_3422)">
<path d="M10.585 95.8671C14.7421 99.3052 19.3674 102.21 24.3534 104.475C24.6445 102.509 25.2234 98.7936 25.6379 95.5957C25.8277 94.1263 25.9859 92.7629 26.065 91.7364C26.0839 91.4993 26.0966 91.2778 26.1061 91.0782C26.1377 90.3512 26.1092 89.8957 25.989 89.8427C21.9775 88.1237 17.8267 86.7197 13.5873 85.6465C13.5525 85.7151 13.5177 85.7838 13.4829 85.8524C13.3848 86.0489 13.2899 86.2455 13.1982 86.4452C12.8692 87.1503 12.5718 87.8709 12.306 88.601C12.1194 89.1126 11.9485 89.6274 11.7903 90.1484C11.2272 92.0016 10.8381 93.9172 10.585 95.8671Z" fill="#F7B297"/>
<path d="M73.6094 91.0594C73.6505 91.986 73.796 93.3556 73.989 94.8968C74.4161 98.3037 75.0773 102.54 75.381 104.606C80.3639 102.372 84.9924 99.5017 89.159 96.098C88.8426 93.549 88.3016 91.0625 87.4442 88.6883C87.4348 88.6571 87.4221 88.629 87.4126 88.5978C87.0773 87.6806 86.6976 86.7821 86.261 85.9054C86.2167 85.818 86.1756 85.7307 86.1313 85.6433C85.429 85.8211 84.733 86.0083 84.0369 86.2018C80.5252 87.1876 77.08 88.4044 73.7328 89.8395C73.6568 89.8707 73.6157 90.0704 73.6062 90.3949C73.5936 90.5789 73.5999 90.8004 73.6094 91.0594Z" fill="#F7B297"/>
<path d="M10.5566 89.3996C10.9616 89.6554 11.3729 89.9019 11.7873 90.1452C12.9611 90.8316 14.1664 91.4649 15.3939 92.0483C18.6589 93.602 22.101 94.7938 25.6348 95.5925C25.7013 95.6081 25.7646 95.6206 25.831 95.6362C26.4005 95.0964 27.1692 94.4537 27.7355 93.914C27.6881 98.0041 28.3272 101.168 27.5552 105.208C27.5362 105.308 27.5046 105.507 27.4666 105.785C34.4458 108.502 42.0481 109.997 50.0048 109.997C58.0027 109.997 65.6462 108.487 72.6538 105.744C72.2552 101.492 72.021 97.2366 72.3501 93.0248C72.9354 93.6082 73.179 94.3508 73.2169 95.1682C73.4732 95.0777 73.7263 94.9872 73.9794 94.8936C78.5889 93.2027 83.0814 91.0188 87.4346 88.6851C88.5957 88.0643 89.7441 87.434 90.883 86.7976C92.0504 86.1487 83.5116 69.6508 82.4866 68.0972C78.8926 62.6592 73.9161 57.9139 67.5602 55.8486C66.8864 55.6302 66.2093 55.443 65.5355 55.2683C64.5073 55.0031 63.4854 54.7691 62.4888 54.5039C60.0496 53.855 57.7686 53.0282 55.9684 51.1251V39.3757C55.7533 39.4912 55.5382 39.6004 55.3199 39.7064C55.2376 39.747 55.1554 39.7844 55.0763 39.825C54.6618 40.0215 54.2379 40.1994 53.8076 40.3616C53.7475 40.3834 53.6906 40.4053 53.6304 40.4271C53.4153 40.5051 53.2002 40.58 52.9851 40.6518C52.9091 40.6767 52.83 40.7017 52.7541 40.7266C52.6624 40.7547 52.5674 40.7828 52.4757 40.8109C52.3397 40.8514 52.2036 40.8889 52.0676 40.9263C51.6405 41.0449 51.2102 41.1447 50.7768 41.232C49.5176 41.4848 48.2332 41.6127 46.9487 41.6064C46.3666 41.6033 45.7813 41.5752 45.2023 41.5191C45.1138 41.5097 45.0252 41.5004 44.9366 41.491C44.8607 41.4816 44.7847 41.4723 44.7088 41.4629C44.6297 41.4536 44.5475 41.4411 44.4684 41.4317C44.0286 41.3724 43.5889 41.2944 43.1523 41.2009C43.3547 41.9839 43.4939 42.7795 43.5889 43.5813C43.7375 44.8667 43.766 46.1645 43.7249 47.4593C43.7249 47.4967 43.7217 47.5342 43.7217 47.5716C43.7217 47.5934 43.7186 47.6184 43.7186 47.6402C43.7186 47.6496 43.7186 47.6558 43.7186 47.6652C43.7186 47.6933 43.7154 47.7214 43.7154 47.7463C43.7154 47.7557 43.7154 47.765 43.7122 47.7775C43.7122 47.8025 43.7091 47.8306 43.7059 47.8555C43.7027 47.8898 43.6996 47.921 43.6996 47.9553C43.6996 47.9709 43.6964 47.9865 43.6964 48.0021C43.6933 48.0271 43.6933 48.0521 43.6901 48.077C43.6901 48.0833 43.6901 48.0895 43.6869 48.0989C43.6838 48.1269 43.6806 48.1519 43.6774 48.18C43.6743 48.2049 43.6711 48.2268 43.6711 48.2517C43.6679 48.2798 43.6648 48.311 43.6616 48.3391C43.6585 48.3765 43.6521 48.414 43.6458 48.4514C43.6458 48.4576 43.6458 48.4639 43.6426 48.467C43.6395 48.5013 43.6331 48.5356 43.6268 48.5731C43.6237 48.5856 43.6237 48.6012 43.6205 48.6136C43.6173 48.6386 43.6142 48.6604 43.6078 48.6854C43.6047 48.701 43.6015 48.7166 43.6015 48.7322C43.5952 48.7665 43.5889 48.8039 43.5825 48.8383C43.5762 48.8788 43.5667 48.9225 43.5604 48.9631C43.5541 49.0036 43.5446 49.0442 43.5351 49.0879C43.5256 49.1284 43.5193 49.169 43.5098 49.2127C43.5034 49.247 43.4939 49.2813 43.4876 49.3156C43.4813 49.3468 43.475 49.3749 43.4655 49.4061C43.4623 49.4248 43.456 49.4404 43.4528 49.4591C43.4433 49.4997 43.4307 49.5402 43.4212 49.5808C43.4149 49.5995 43.4117 49.6214 43.4054 49.6401C43.3959 49.6713 43.3864 49.7056 43.3801 49.7368C43.3737 49.7555 43.3706 49.7773 43.3642 49.7961C43.3547 49.8241 43.3484 49.8553 43.3389 49.8834C43.3358 49.899 43.3294 49.9146 43.3231 49.9302C43.3073 49.977 43.2946 50.0238 43.2788 50.0675C43.2725 50.0862 43.2662 50.1018 43.2598 50.1205C43.2535 50.1392 43.2472 50.1611 43.2377 50.1798C43.2314 50.1985 43.225 50.2204 43.2155 50.2391C43.2092 50.2578 43.2029 50.2796 43.1934 50.2984C43.1871 50.3171 43.1776 50.3389 43.1712 50.3576C43.1649 50.3764 43.1554 50.3982 43.1491 50.4169C43.1333 50.4575 43.1175 50.498 43.1016 50.5386C43.0953 50.5542 43.089 50.5698 43.0827 50.5854C43.07 50.6135 43.0605 50.6415 43.0479 50.6696C43.0384 50.6883 43.032 50.7102 43.0226 50.7289C43.0036 50.7695 42.9878 50.81 42.9688 50.8506C42.9624 50.8662 42.9529 50.8818 42.9466 50.8974C42.9403 50.9099 42.9371 50.9192 42.9308 50.9317C42.9213 50.9504 42.9118 50.9691 42.9055 50.9879C42.896 51.0066 42.8865 51.0253 42.877 51.044C42.858 51.0814 42.8391 51.1189 42.8201 51.1563C42.8106 51.175 42.8011 51.1938 42.7916 51.2125C42.7821 51.2312 42.7726 51.2499 42.7631 51.2686C42.7536 51.2874 42.7441 51.3061 42.7347 51.3248C42.6999 51.3872 42.6651 51.4496 42.6271 51.512C42.6144 51.5338 42.6018 51.5525 42.5891 51.5744C42.5512 51.6368 42.5132 51.6992 42.4721 51.7616C42.4626 51.7772 42.4531 51.7897 42.4436 51.8053C42.4373 51.8146 42.4309 51.8271 42.4214 51.8365C42.412 51.8489 42.4056 51.8614 42.3961 51.877C42.3835 51.8957 42.3677 51.9176 42.355 51.9363C42.3455 51.9488 42.336 51.9612 42.3265 51.9768C42.3139 51.9956 42.3012 52.0112 42.2886 52.0299C42.2696 52.0548 42.2506 52.0798 42.2316 52.1079C42.2158 52.1297 42.2 52.1484 42.1842 52.1703C42.1747 52.1859 42.162 52.1984 42.1494 52.214C42.143 52.2233 42.1367 52.2296 42.1304 52.2389C42.1209 52.2514 42.1114 52.2639 42.0988 52.2764C42.0576 52.3263 42.0165 52.3762 41.9754 52.4261C41.9627 52.4417 41.9501 52.4573 41.9374 52.4729C41.9279 52.4823 41.9184 52.4947 41.9089 52.5041C41.8868 52.5291 41.8615 52.5571 41.8393 52.5821C41.8267 52.5946 41.814 52.6102 41.8014 52.6227C41.7919 52.632 41.7824 52.6445 41.7697 52.6539C41.7254 52.7007 41.6811 52.7474 41.6337 52.7911C41.621 52.8067 41.6052 52.8192 41.5926 52.8317C41.5862 52.8379 41.5799 52.8442 41.5736 52.8504C41.5578 52.8629 41.5451 52.8785 41.5293 52.891C41.5198 52.9003 41.5071 52.9128 41.4976 52.9222C41.4787 52.9409 41.4565 52.9596 41.4375 52.9783C41.4154 52.997 41.3932 53.0189 41.3711 53.0376C41.3679 53.0407 41.3616 53.047 41.3584 53.0501C41.3363 53.0688 41.311 53.0906 41.2888 53.1094C40.2195 54.0048 38.8939 54.4665 37.5209 54.819C36.7742 55.0093 36.0149 55.1716 35.2746 55.3525C34.9646 55.4274 34.6577 55.5085 34.3508 55.5896C27.9349 57.3149 22.4332 60.5284 18.7854 66.141C14.8055 72.2715 11.4773 78.9917 9.31963 85.9646C8.73434 87.8958 8.83242 88.317 10.5566 89.3996Z" fill="#F9C1AC"/>
<path d="M34.3604 55.5959C34.4426 55.7675 34.5312 55.9391 34.6293 56.1075C37.7898 61.6796 44.3039 65.2238 50.7705 64.8931C56.9524 64.5748 62.8052 60.7312 65.5418 55.2683C64.5136 55.0031 63.4917 54.7691 62.4952 54.5039C60.0559 53.855 57.7749 53.0282 55.9748 51.1251V39.3757C52.1024 41.4567 47.4676 42.1306 43.1554 41.2102C43.6806 43.2506 43.7913 45.3659 43.7281 47.4686C43.6616 49.5746 42.9245 51.7522 41.2952 53.1156C40.2259 54.011 38.9003 54.4727 37.5272 54.8253C36.7806 55.0187 36.0213 55.1778 35.281 55.3588C34.9741 55.4337 34.6672 55.5116 34.3604 55.5959Z" fill="#FDEAE3"/>
<path d="M68.576 45.684C67.706 46.1021 66.7157 46.3797 66.0798 47.0973C65.4724 47.7837 65.1845 48.8538 64.3018 49.119C63.6564 49.3124 62.9667 48.9661 62.296 49.0379C61.7171 49.1034 61.2299 49.4684 60.7395 49.7741C57.9491 51.5088 54.4437 51.5431 51.144 51.5244C45.7024 51.4901 40.1691 51.6024 34.7275 51.6117C33.5063 51.6149 32.2314 51.6024 31.1367 51.0658C29.7573 50.3888 28.862 48.8787 28.8778 47.3594C28.843 50.8786 24.205 49.6556 22.7244 47.7525C21.5191 46.205 21.2533 44.1022 21.5665 42.1742C21.8797 40.2461 22.7149 38.4459 23.5407 36.6739C24.7365 34.1031 25.1099 31.0269 27.3181 29.2236C29.5264 27.4204 32.2693 26.3783 35.0186 25.5828C38.8878 24.4627 42.8741 23.767 46.892 23.4082C47.879 23.3209 48.9515 23.3895 49.8943 23.1305C50.9858 22.831 51.9665 22.4286 53.1118 22.3038C55.3327 22.0573 57.6169 22.4099 59.6733 23.2585C62.8655 24.5782 65.5072 27.0241 67.3674 29.9038C68.9588 32.3716 70.2654 35.1295 70.7399 38.0372C71.1228 40.4177 71.1196 44.461 68.576 45.684Z" fill="#562912"/>
<path d="M37.5303 54.8253C40.5706 58.7906 45.6515 61.2116 50.7008 60.9527C55.3482 60.7156 59.7838 58.2166 62.4951 54.5039C58.8062 53.5212 56.3923 52.0424 55.8323 48.1176C55.7374 47.4499 55.6963 46.776 55.6868 46.099C55.6741 45.1818 55.7184 44.2646 55.769 43.3536C55.7943 42.9043 55.7279 39.5192 55.9747 39.3757C52.1023 41.4567 47.4675 42.1306 43.1585 41.2102C43.6837 43.2506 43.7944 45.3659 43.7311 47.4686C43.69 48.8008 43.38 50.1642 42.7409 51.3279C42.3739 52.0049 41.8962 52.6133 41.2982 53.1125C40.2289 54.011 38.9033 54.4727 37.5303 54.8253Z" fill="#F7B297"/>
<path d="M73.7609 69.6197C73.7482 72.6398 73.6565 75.6567 73.4793 78.6704C73.3053 81.6686 73.0491 84.6637 72.7137 87.6494C72.5239 89.3372 72.3087 91.022 72.0683 92.7036C72.043 92.8783 71.8184 92.9719 71.6634 92.9313C71.4735 92.8814 71.4071 92.7067 71.4324 92.532C71.8563 89.5712 72.198 86.6011 72.4606 83.6217C72.7232 80.6453 72.9067 77.6596 73.0079 74.6739C73.0649 72.9923 73.0965 71.3076 73.1028 69.6229C73.1028 69.4481 73.2547 69.2984 73.4319 69.2984C73.609 69.2953 73.7609 69.445 73.7609 69.6197Z" fill="#E89274"/>
<path d="M26.1187 69.6197C26.1314 72.6398 26.2231 75.6567 26.4003 78.6704C26.5743 81.6686 26.8305 84.6637 27.1659 87.6494C27.3557 89.3372 27.5708 91.022 27.8113 92.7036C27.8366 92.8783 28.0612 92.9719 28.2162 92.9313C28.4061 92.8814 28.4725 92.7067 28.4472 92.532C28.0232 89.5712 27.6816 86.6011 27.419 83.6217C27.1564 80.6453 26.9729 77.6596 26.8717 74.6739C26.8147 72.9923 26.7831 71.3076 26.7768 69.6229C26.7768 69.4481 26.6249 69.2984 26.4477 69.2984C26.2706 69.2953 26.1155 69.445 26.1187 69.6197Z" fill="#E89274"/>
<path d="M89.6621 84.2892C87.6436 85.2782 85.6062 86.2235 83.5466 87.1252C81.4744 88.033 79.3832 88.8973 77.273 89.7147C76.093 90.1733 74.9097 90.6163 73.717 91.0437C73.5557 91.103 73.35 90.9782 73.3121 90.816C73.2709 90.6319 73.369 90.479 73.543 90.4166C75.6469 89.6585 77.7318 88.8567 79.8008 88.0112C81.8604 87.1688 83.9041 86.2766 85.9257 85.3469C87.0678 84.8196 88.2036 84.2799 89.3299 83.7276C89.4881 83.6496 89.6874 83.6871 89.7823 83.8431C89.8677 83.9866 89.8234 84.2081 89.6621 84.2892Z" fill="#E89274"/>
<path d="M26.1791 91.7581C24.0372 91.2746 21.9334 90.6225 19.8928 89.8113C17.8522 89.0002 15.8749 88.0361 13.9862 86.9192C12.9263 86.2953 11.8981 85.6214 10.8984 84.9038C10.756 84.8008 10.6832 84.6199 10.7813 84.4577C10.8636 84.3173 11.0882 84.2361 11.2337 84.3422C13.0022 85.6089 14.8688 86.7414 16.8177 87.7179C18.757 88.6944 20.7312 89.4994 22.8066 90.1639C23.974 90.5383 25.1603 90.8596 26.3562 91.131C26.5302 91.1716 26.6315 91.3681 26.5872 91.5304C26.5366 91.7082 26.3531 91.7987 26.1791 91.7581Z" fill="#E89274"/>
<path d="M42.7412 51.3311C45.2152 51.434 47.7114 50.9973 49.9924 50.0457C52.1437 49.1472 54.0926 47.7869 55.6871 46.1022C55.6744 45.185 55.7187 44.2677 55.7693 43.3567C55.7946 42.9075 55.7282 39.5224 55.975 39.3789C52.1026 41.4599 47.4678 42.1337 43.1588 41.2134C43.684 43.2538 43.7947 45.369 43.7315 47.4718C43.6872 48.804 43.3771 50.1643 42.7412 51.3311Z" fill="#F59673"/>
<path d="M64.2005 28.2379C63.7987 29.6418 63.0553 31.5044 61.4576 31.8788C61.2456 35.1983 60.0466 38.4336 58.2559 41.2383C56.7152 43.65 54.5797 46.8697 51.745 47.8961C49.8373 48.5856 47.6733 48.2424 45.8289 47.4063C43.744 46.461 41.5453 44.9229 39.8084 43.441C37.9861 41.8873 36.5371 39.9093 35.6386 37.7035C34.9046 37.9001 34.0947 37.5351 33.4936 37.0702C32.8925 36.6085 32.4591 35.9689 32.0573 35.3324C31.298 34.1282 30.6083 32.8834 29.9914 31.6042C29.0708 29.6886 29.3587 27.2926 29.3302 25.1711C29.3017 23.0527 29.6181 20.8937 30.5514 18.9844C31.3993 17.2497 32.7185 15.7928 33.8511 14.2266C34.2909 13.6182 34.5914 13.0473 35.2147 12.6386C35.8949 12.1925 36.708 11.8337 37.4451 11.4874C39.0554 10.7324 40.748 10.1521 42.4817 9.75584C46.0029 8.9478 49.7044 8.89164 53.2415 9.64041C55.0574 10.0241 56.8955 10.6544 58.2148 11.9429C60.3788 14.055 61.9227 16.7474 63.0078 19.5335C64.0676 22.2197 65.0199 25.3707 64.2005 28.2379Z" fill="#F7B297"/>
<path d="M52.8143 25.9417C52.9946 25.7763 53.1907 25.6235 53.3932 25.4924C53.5989 25.3583 53.814 25.2428 54.0418 25.1524C54.1557 25.1056 54.2696 25.0681 54.3898 25.0338C54.4499 25.0182 54.5068 25.0026 54.5701 24.9901C54.5986 24.9839 54.6302 24.9776 54.6619 24.9714L54.7568 24.9558C55.013 24.9152 55.282 24.8934 55.554 24.8903C55.6901 24.8872 55.8293 24.8903 55.9653 24.8965C56.0349 24.8996 56.1014 24.9028 56.1678 24.909H56.1899L56.2152 24.9121L56.2659 24.9184C56.3007 24.9215 56.3323 24.9277 56.3671 24.9308C56.5031 24.9496 56.6392 24.9714 56.7847 24.9995C56.9302 25.0244 57.0916 25.0525 57.2624 25.0494C57.4333 25.0463 57.5946 25.012 57.7465 24.962C57.8983 24.909 58.0375 24.8373 58.1609 24.7499C58.414 24.5752 58.6102 24.3568 58.7747 24.1197C58.664 24.2133 58.5501 24.3006 58.433 24.3755C58.3128 24.4504 58.1894 24.5159 58.0597 24.5627C57.9331 24.6095 57.8003 24.6407 57.6737 24.6532C57.544 24.6657 57.4174 24.6563 57.3004 24.6282C57.1833 24.6001 57.0694 24.5502 56.9397 24.4941C56.81 24.4379 56.674 24.3755 56.5316 24.3194C56.4968 24.3069 56.462 24.2913 56.424 24.2788L56.3703 24.2601L56.3418 24.2507L56.3102 24.2414C56.2342 24.2164 56.1615 24.1946 56.0887 24.1727C55.9432 24.129 55.7945 24.0916 55.6458 24.0542C55.3484 23.9855 55.0415 23.9325 54.722 23.9044C54.6808 23.9013 54.6429 23.8982 54.6018 23.8951C54.5606 23.8919 54.5195 23.8888 54.4784 23.8888C54.3961 23.8857 54.3107 23.8857 54.2284 23.8888C54.0608 23.8919 53.8963 23.9075 53.7286 23.9294C53.3964 23.9731 53.0705 24.0542 52.7542 24.1602C52.4378 24.2663 52.1309 24.4005 51.8398 24.5565L51.8114 24.5721C51.3906 24.7967 51.2324 25.3146 51.4602 25.7295C51.688 26.1445 52.2132 26.3005 52.6339 26.0758C52.7035 26.0322 52.7636 25.9885 52.8143 25.9417Z" fill="#542F2B"/>
<path d="M61.0558 23.3739C61.3247 23.8855 61.1317 24.4315 60.8913 24.912C60.7806 25.1335 60.6508 25.3612 60.616 25.6108C60.5907 25.798 60.635 25.9509 60.7173 26.0913C60.7679 26.1786 60.8027 26.2223 60.8596 26.2878C60.9324 26.3721 61.0083 26.4501 61.0874 26.5249C61.2298 26.6653 61.3785 26.8026 61.5114 26.9555C61.8088 27.3049 61.9796 27.7198 61.9669 28.1785C61.9543 28.6776 61.7392 29.1768 61.35 29.5013C61.2298 29.6011 61.0558 29.6167 60.9387 29.5013C60.8343 29.3983 60.8185 29.1955 60.9387 29.0957C61.214 28.868 61.369 28.5404 61.3848 28.2097C61.4038 27.8478 61.2804 27.5514 61.0337 27.2831C60.7647 26.9898 60.442 26.7433 60.2301 26.4001C59.9706 25.9821 59.9896 25.5047 60.1763 25.0617C60.2839 24.809 60.4294 24.5719 60.5211 24.313C60.5971 24.1039 60.6572 23.8637 60.5496 23.6578C60.4768 23.5205 60.5148 23.3458 60.654 23.2647C60.7869 23.1961 60.983 23.2366 61.0558 23.3739Z" fill="#F59673"/>
<path d="M32.1899 28.5279C32.4746 28.8805 32.7657 29.2424 32.9523 29.6573C33.1517 30.1035 33.2086 30.5652 33.0821 31.0425C32.9745 31.4606 32.7467 31.8818 32.7309 32.2874C32.7182 32.6337 32.8037 32.955 32.9808 33.2545C33.1706 33.579 33.4712 33.8629 33.8097 34.0002C33.9552 34.0595 34.0565 34.1905 34.0122 34.3527C33.9742 34.4869 33.8002 34.6117 33.6547 34.5524C32.8891 34.2466 32.3164 33.554 32.1836 32.7429C32.1108 32.2936 32.1836 31.8724 32.3354 31.445C32.481 31.0332 32.6455 30.6276 32.5316 30.1877C32.4082 29.7135 32.0855 29.3079 31.7818 28.9304C31.6837 28.8087 31.6616 28.6434 31.7818 28.5248C31.8799 28.4281 32.0918 28.4063 32.1899 28.5279Z" fill="#F59673"/>
<path d="M51.8366 19.2183C53.3995 18.8813 55.3294 19.4897 56.6265 20.3445C56.9017 20.5255 57.1928 20.7813 57.1738 21.1058C55.5445 21.3928 53.7254 20.3477 52.1941 21.1526C51.5203 21.5082 50.2706 22.3475 49.9574 21.0403C49.7233 20.0856 51.0837 19.3805 51.8366 19.2183Z" fill="#7A4525"/>
<path d="M41.0387 28.0444C40.8077 27.9571 40.5704 27.8853 40.33 27.8385C40.0896 27.7886 39.846 27.7605 39.5992 27.7605C39.4758 27.7605 39.3524 27.7636 39.2322 27.7761C39.1721 27.7824 39.1088 27.7886 39.0487 27.8011C39.0171 27.8042 38.9886 27.8104 38.957 27.8167L38.862 27.8354C38.6089 27.8916 38.3527 27.9696 38.0964 28.0663C37.9699 28.1131 37.8433 28.1661 37.7168 28.2223C37.6535 28.2503 37.5902 28.2784 37.5333 28.3065L37.5143 28.3159L37.4922 28.3283L37.4479 28.3533C37.4162 28.3689 37.3878 28.3845 37.3593 28.4032C37.2391 28.4687 37.122 28.5405 36.9955 28.6185C36.8721 28.6934 36.7297 28.7807 36.5684 28.84C36.407 28.8993 36.2457 28.9273 36.0843 28.9336C35.923 28.9398 35.7679 28.9211 35.6192 28.8868C35.3219 28.8182 35.0529 28.684 34.8125 28.528C34.9485 28.5748 35.0877 28.6154 35.2269 28.6403C35.3661 28.6653 35.5053 28.6809 35.6414 28.6778C35.7774 28.6746 35.9103 28.6559 36.0337 28.6216C36.1571 28.5842 36.2741 28.5311 36.3722 28.4625C36.4703 28.3939 36.5589 28.3065 36.6569 28.2035C36.755 28.1037 36.8594 27.9945 36.9701 27.8916C36.9986 27.8666 37.0271 27.8385 37.0556 27.8136L37.0967 27.7761L37.1188 27.7574L37.1441 27.7356C37.2043 27.6856 37.2644 27.6388 37.3245 27.592C37.4447 27.4985 37.5649 27.408 37.6915 27.3206C37.9414 27.1459 38.2072 26.9868 38.495 26.8433C38.5298 26.8246 38.5678 26.809 38.6058 26.7902C38.6437 26.7715 38.6785 26.7559 38.7165 26.7403C38.7924 26.706 38.8715 26.6779 38.9475 26.6499C39.1056 26.5937 39.2638 26.5438 39.4252 26.5063C39.751 26.4252 40.0832 26.3815 40.4154 26.3659C40.7508 26.3503 41.083 26.3628 41.4151 26.4003L41.4468 26.4034C41.9213 26.4564 42.263 26.8807 42.2061 27.3487C42.1523 27.8167 41.722 28.1536 41.2475 28.0975C41.1779 28.085 41.1051 28.0663 41.0387 28.0444Z" fill="#542F2B"/>
<path d="M39.9096 21.1247C38.3119 21.2089 36.6162 22.3009 35.5943 23.4646C35.3792 23.711 35.1672 24.0324 35.2716 24.3412C36.9199 24.1915 38.3942 22.7064 40.0867 23.0808C40.8302 23.2462 42.2634 23.7298 42.2128 22.3851C42.1811 21.4086 40.6784 21.0841 39.9096 21.1247Z" fill="#7A4525"/>
<path d="M45.4398 39.8655C45.1708 39.4942 44.0446 37.8158 44.0098 37.847C44.2913 37.5943 44.8102 37.4539 45.1487 37.2105C45.367 37.0545 46.0219 36.4461 46.2813 36.4461C46.6388 36.2028 47.0153 35.9563 47.4424 35.8908C47.8726 35.8253 48.3725 36 48.5339 36.3993C48.5117 35.9844 49.0875 35.6475 49.5083 35.6163C49.9291 35.5851 50.334 35.7567 50.7295 35.9033C51.5837 36.2153 52.4822 36.4056 53.3901 36.468C52.9093 38.0342 52.2291 39.6783 50.8813 40.6361C50.0683 41.2164 49.0179 41.4598 48.0245 41.3006C47.0469 41.1447 46.101 40.6985 45.4809 39.931C45.4746 39.9154 45.4587 39.8936 45.4398 39.8655Z" fill="#C94936"/>
<path d="M44.0317 37.819C47.1796 37.9625 50.3528 37.5132 53.3299 36.4993C53.159 36.7801 51.7575 38.9796 48.9228 39.3477C46.1799 39.7034 44.2912 38.053 44.0317 37.819Z" fill="white"/>
<path d="M47.341 27.0273C47.4612 27.5234 47.67 27.9851 47.9643 28.4032C48.2395 28.7932 48.6065 29.0927 48.9482 29.4234C49.3215 29.7853 49.6284 30.2033 49.6916 30.7275C49.7549 31.2391 49.5683 31.7757 49.2709 32.1938C48.9039 32.7055 48.3914 33.0798 47.882 33.4449C47.7555 33.5353 47.5593 33.4667 47.4834 33.3419C47.398 33.1984 47.4612 33.0424 47.5878 32.9488C47.9896 32.6618 48.404 32.3654 48.7141 31.9754C48.9798 31.6416 49.1728 31.1986 49.1127 30.768C49.0557 30.35 48.7552 30.038 48.4546 29.7541C48.1035 29.4234 47.7555 29.1051 47.4739 28.712C47.1449 28.2534 46.9108 27.7293 46.7779 27.1833C46.6925 26.8214 47.2524 26.6685 47.341 27.0273Z" fill="#F59673"/>
<path d="M47.0529 13.9957C48.0242 14.4293 49.122 14.4293 50.1818 14.5385C51.2417 14.6477 52.3679 14.916 53.0576 15.7147C53.9245 16.7193 53.8359 18.3635 54.9337 19.1996C55.4715 19.6083 56.1422 19.574 56.7908 19.783C57.5691 20.0326 58.2999 20.4226 58.9326 20.9342C59.3281 21.2525 59.8975 21.4771 60.4069 21.449C60.9163 21.4209 61.4319 21.2868 61.9318 21.3866C62.6278 21.5239 63.1562 22.0823 63.5295 22.6782C65.1366 25.2396 63.8996 27.9258 63.1688 30.5465C64.3679 30.7587 65.0069 32.1657 65.1936 33.3544C65.3802 34.5431 65.1398 35.7505 65.1177 36.9516C65.0955 38.1527 65.3549 39.4662 66.2882 40.2368C67.1013 40.9045 68.294 41.0542 68.9837 41.8467C69.9043 42.9043 69.4836 44.511 69.0122 45.8245C69.3096 46.1209 70.0119 45.993 70.303 45.6903C70.594 45.3846 70.7396 44.9759 71.0021 44.6452C71.7678 43.678 73.2262 43.6718 74.4696 43.7747C75.7097 43.8777 77.1524 43.9276 77.9781 43.0072C78.5128 42.4145 78.6267 41.5721 78.7184 40.7828C78.8228 39.8749 78.633 39.226 79.0886 38.3306C79.3859 37.7472 79.7529 37.1825 79.8985 36.546C80.044 35.9096 79.908 35.1514 79.367 34.7739C81.3032 35.869 82.2428 38.4242 81.1291 40.3335C82.9799 39.3539 84.122 37.2105 83.8879 35.1514C83.6538 33.0923 82.0656 31.2485 80.044 30.6932C79.329 30.4966 78.5001 30.4093 78.0382 29.8352C77.4339 29.0864 77.8073 28.0038 77.9718 27.0616C78.2217 25.6296 77.8927 24.104 77.067 22.8998C76.3646 21.8733 75.3491 21.1027 74.3588 20.3383C73.3717 19.574 72.372 18.7753 71.7235 17.7145C70.9262 16.4073 71.3818 15.1188 70.9452 13.7617C70.5371 12.4888 69.5437 11.428 68.4237 10.7136C67.4113 10.0678 66.3831 9.85874 65.5163 8.97582C64.738 8.1865 64.1622 7.22246 63.5738 6.29274C62.6531 4.83889 61.549 3.32264 59.8912 2.81722C58.3853 2.3586 56.7908 2.8141 55.2691 2.49275C53.9909 2.22444 52.6147 1.51624 51.5327 0.804909C50.3495 0.0249442 48.8151 -0.205925 47.4515 0.190297C46.088 0.586519 44.9237 1.59735 44.3574 2.88274C42.6047 2.17765 40.7825 1.5412 38.8906 1.57863C36.9987 1.61607 35.0372 2.3742 33.9584 3.90917C33.3794 4.72969 33.0567 5.75301 32.2594 6.37074C31.5002 6.96039 30.4751 7.05711 29.564 7.37533C27.207 8.19586 25.603 10.7479 25.9067 13.1939C25.932 13.1689 25.7517 13.3093 25.777 13.2843C26.1345 14.1985 25.6726 15.228 25.062 15.9986C24.4514 16.7692 23.6099 17.3246 22.8221 17.9173C22.0344 18.5101 21.2592 19.1902 20.8764 20.0919C20.2152 21.6424 20.8543 23.4114 20.7689 25.093C20.5949 28.5904 17.0294 29.7728 16.1942 32.9426C15.7639 34.5774 16.0012 36.3713 16.8396 37.8439C17.5039 39.0138 18.1588 40.3741 17.9152 41.7562C17.8235 42.2772 17.5988 42.7639 17.4248 43.26C17.2477 43.7591 17.118 44.2926 17.2192 44.8105C17.3932 45.6997 18.0797 45.7777 18.7599 46.1146C19.7533 46.6076 20.6835 47.3969 21.6041 48.0115C21.9901 48.2673 22.3855 48.5294 22.8379 48.6355C23.2903 48.7415 23.8187 48.6573 24.1224 48.311C24.4672 47.921 24.4293 47.322 24.2489 46.8353C24.0655 46.3486 23.7617 45.9087 23.6194 45.4127C23.3251 44.4049 23.7965 43.2288 24.7077 42.689C25.4733 42.2366 26.4699 42.2023 27.1311 41.6127C28.0612 40.7828 27.6341 40.0683 27.5012 39.1012C27.3462 37.9718 28.1245 36.7363 29.1021 36.1935C29.8266 35.7941 30.8421 35.5102 30.9339 34.6959C30.9655 34.4058 30.8611 34.1219 30.8168 33.8317C30.646 32.6805 31.4748 31.651 32.1803 30.715C32.8827 29.7822 33.5218 28.5342 32.9681 27.5078C32.3259 26.3191 32.9649 24.5876 33.8508 23.5643C34.3981 22.9341 35.1416 22.4848 35.6604 21.8296C36.4893 20.7782 36.6159 19.365 36.8278 18.0484C37.0809 16.4822 37.3941 15.3591 39.131 14.8817C40.1339 14.6072 41.2001 14.6165 42.1935 14.3139C43.6931 13.8584 44.775 12.8819 45.4837 11.5372C45.4204 11.6589 45.8001 12.8101 45.8823 12.9692C46.1101 13.4123 46.5973 13.7929 47.0529 13.9957Z" fill="#7A4525"/>
<path d="M57.3509 13.2157C57.063 15.4526 58.5848 17.7083 60.676 18.5444C61.0145 18.6786 61.372 18.7815 61.7358 18.8408C62.2135 18.9188 62.7134 18.9438 63.1848 18.9812C63.827 19.0374 64.4851 19.1154 64.9944 19.5085C66.2346 20.5536 65.8328 22.5285 66.2504 23.9792C66.5415 25.1772 67.383 26.0227 68.3954 26.6748C69.0471 27.1053 69.8286 27.4922 70.4676 27.9352C71.1067 28.3689 71.6825 28.918 71.983 29.6355C72.1887 30.116 72.2614 30.6557 72.1159 31.1674C72.5683 30.2782 72.2551 29.1863 71.6888 28.4125C71.2744 27.8478 70.7176 27.3955 70.1513 26.9899C69.1294 26.2536 67.9272 25.5953 67.364 24.4347C67.0508 23.7452 67.016 23.0245 66.9559 22.2446C66.88 21.0029 66.649 19.5802 65.5734 18.7659C64.6781 18.0858 63.4885 18.117 62.4287 18.0796C61.6599 18.0608 60.9259 17.908 60.2457 17.5523C58.6196 16.7162 57.4648 15.0377 57.3509 13.2157Z" fill="#562912"/>
<path d="M65.3298 28.2908C64.9849 28.8523 65.0419 29.5886 65.2507 30.1939C65.5417 31.0955 66.1935 31.8505 66.6617 32.6555C66.9274 33.1141 67.1552 33.6413 67.1331 34.1686C67.1204 34.5523 66.9686 35.0078 66.8515 35.4103C66.706 35.9188 66.5858 36.4679 66.7091 37.0077C66.8737 37.7627 67.4748 38.2837 68.136 38.6269C68.6959 38.9326 69.2749 39.0948 69.7874 39.4567C70.1449 39.7063 70.4803 40.0246 70.6068 40.4489C70.6511 40.5924 70.6638 40.7515 70.6511 40.9012C70.7112 40.7733 70.7429 40.6329 70.7524 40.4925C70.7745 39.959 70.4613 39.4755 70.1006 39.1042C69.8697 38.8671 69.5976 38.6581 69.316 38.4834C68.5694 37.9967 67.4937 37.4944 67.6013 36.4804C67.6235 36.2121 67.6994 35.9438 67.7816 35.6755C67.9272 35.195 68.0854 34.7052 68.0885 34.1904C68.1012 33.1203 67.4463 32.2156 66.7882 31.4481C66.0258 30.5651 65.0862 29.5387 65.3298 28.2908Z" fill="#562912"/>
<path d="M70.0752 24.8059C71.7899 24.4814 73.7388 25.5141 74.2228 27.1957C74.419 27.8852 74.4031 28.5747 74.4601 29.2985C74.4854 29.6385 74.5234 29.9848 74.5961 30.3218C74.6119 30.4091 74.6499 30.5308 74.6689 30.6182C74.6942 30.718 74.7385 30.8459 74.7701 30.9426C75.4883 33.0361 77.4751 34.6802 77.2916 37.0139C77.2473 37.5536 77.0638 38.0621 76.6968 38.4864C76.855 38.3835 77.0005 38.2556 77.1271 38.1121C77.2536 37.9654 77.3644 37.8032 77.4529 37.6285C77.8136 36.9203 77.8484 36.0935 77.725 35.3229C77.4719 33.7193 76.3931 32.4214 75.8078 30.9676C75.7699 30.8771 75.7287 30.7586 75.6939 30.665C75.6781 30.6275 75.6496 30.5246 75.637 30.484C75.3491 29.5855 75.4187 28.5185 75.2004 27.5201C75.0707 26.9087 74.8176 26.3377 74.4031 25.8573C73.3876 24.6624 71.5337 24.1039 70.0752 24.8059Z" fill="#562912"/>
<path d="M38.277 11.506C35.3158 12.0894 32.8481 14.4231 31.899 17.2278C31.7472 17.6927 31.6301 18.17 31.5605 18.6536C31.4529 19.3992 31.4498 20.1667 31.3897 20.9061C31.3137 21.8951 31.1271 22.9621 30.3266 23.6204C30.0799 23.8263 29.7857 24.0041 29.4661 24.1695C28.226 24.7997 26.951 25.277 26.5429 26.7621C26.2803 27.7324 26.4353 28.7463 26.6884 29.6916C26.6979 29.7322 26.7232 29.8352 26.7358 29.8757C26.7485 29.935 26.7612 30.0005 26.7738 30.0598C26.7801 30.1035 26.7928 30.1971 26.7991 30.2407C26.8023 30.2782 26.8118 30.3842 26.8118 30.4217C26.8118 30.4716 26.8149 30.5496 26.8118 30.5995C26.8054 31.0394 26.6441 31.4637 26.4005 31.8256L26.3309 31.9317C26.2898 31.9847 26.2202 32.0846 26.1759 32.1345C25.6792 32.7397 25.0591 33.2358 24.5181 33.8192C24.11 34.2529 23.7493 34.7489 23.5279 35.3043C23.0185 36.5772 23.145 38.0778 23.8316 39.254C24.0214 39.5847 24.2587 39.8905 24.5339 40.1525C24.6699 40.2836 24.8186 40.4021 24.9737 40.5113C24.3884 39.9622 23.9929 39.2634 23.7936 38.5146C23.4867 37.3634 23.6291 36.0686 24.303 35.0703C24.9958 34.0719 26.1031 33.4542 26.8814 32.5182C27.5015 31.7851 27.783 30.9552 27.6596 30.0005C27.6438 29.8539 27.6122 29.6885 27.5774 29.5419C27.3686 28.6558 27.1977 27.6513 27.5394 26.7902C27.7862 26.1724 28.3177 25.8261 28.9125 25.511C29.5863 25.1585 30.3583 24.8403 30.9531 24.3255C31.6143 23.7733 32.0002 22.9434 32.1458 22.126C32.4242 20.6472 32.1616 19.1528 32.5444 17.6927C33.2499 14.8629 35.4772 12.4607 38.277 11.506Z" fill="#562912"/>
<path d="M26.5745 21.4895C26.6282 22.4192 26.1885 23.2397 25.5937 23.9292C25.0021 24.625 24.2618 25.1678 23.5468 25.7356C22.5882 26.5031 21.6201 27.3892 21.231 28.5841C20.9842 29.311 21.0222 30.1066 21.1361 30.8491C21.2784 31.9036 21.6771 33.0735 21.2341 34.0781C21.0696 34.4338 20.826 34.7177 20.5476 35.0079C20.1395 35.4353 19.6776 35.8565 19.3612 36.3744C18.7759 37.3321 18.7253 38.5832 19.1841 39.5909C19.377 40.0246 19.6713 40.4208 20.0414 40.7172C19.6112 40.1681 19.377 39.5254 19.3327 38.8515C19.2758 37.9998 19.5352 37.1231 20.1205 36.4991C20.5951 35.9875 21.1835 35.5913 21.6391 35.0391C22.7432 33.7381 22.3288 32.2156 22.0883 30.7118C22.0124 30.2126 21.9618 29.7166 22.0409 29.2236C22.2971 27.6512 23.86 26.5343 24.9357 25.4548C25.9607 24.4253 26.9921 22.9964 26.5745 21.4895Z" fill="#562912"/>
<path d="M44.3386 3.42249C43.8799 3.9903 44.0918 4.82954 44.4462 5.40048C44.8954 6.13052 45.6041 6.62346 45.9299 7.39719C46.4931 8.72937 46.0786 10.2082 45.9553 11.5934C46.183 11.2752 46.376 10.9413 46.5469 10.5919C47.1923 9.30966 47.3758 7.68109 46.4931 6.44875C46.0755 5.86533 45.4712 5.46911 44.9903 4.99177C44.8258 4.8233 44.6803 4.64235 44.5601 4.43956C44.3797 4.13381 44.2817 3.79375 44.3386 3.42249Z" fill="#562912"/>
<path d="M59.6382 5.26318C60.5082 7.28797 62.5709 8.70439 64.7919 8.90406C66.225 9.08813 67.7847 8.94774 69.0565 9.69962L69.1799 9.7745L69.297 9.85874C69.3634 9.89929 69.4646 9.98665 69.5248 10.0366C71.2711 11.5747 71.4325 13.9988 72.3215 16.0392C73.1314 17.9548 74.6689 19.4679 76.3394 20.6784C77.0069 21.162 77.763 21.5426 78.2281 22.1884C79.1234 23.4644 78.7754 25.4175 78.6046 26.8807C78.5002 27.7418 78.4179 28.6372 78.535 29.5076C78.69 30.8117 79.4208 31.9879 79.9302 33.1516C80.2719 33.9222 80.525 34.7521 80.4142 35.6069C80.5218 35.1889 80.5376 34.749 80.487 34.3216C80.2845 32.7273 79.3196 31.3327 79.1203 29.7572C79.0064 28.8275 79.1456 27.904 79.3006 26.9805C79.5252 25.6858 79.7815 24.338 79.5094 23.0245C79.4271 22.619 79.2784 22.2071 79.0602 21.8484C78.7849 21.3897 78.3736 20.9998 77.9497 20.6846C77.5163 20.3571 77.067 20.0794 76.6431 19.7487C75.0992 18.5538 73.7008 17.0937 73.0238 15.2467C72.3468 13.4715 71.9861 11.5123 70.6732 10.0334C69.4298 8.61391 67.9113 8.408 66.1206 8.39552C65.4214 8.38304 64.7381 8.38616 64.0547 8.28321C63.8997 8.25825 63.8174 8.23953 63.6719 8.21145C63.5454 8.18649 63.4188 8.14905 63.2923 8.11786L62.9949 8.02426C61.5965 7.52508 60.3943 6.54857 59.6382 5.26318Z" fill="#7A4525"/>
<path d="M46.5405 2.94198C47.7396 2.21817 49.3246 2.20881 50.5173 2.93262C50.8463 3.13229 51.1121 3.385 51.3652 3.67515C51.9346 4.33344 52.4472 5.0978 53.2571 5.50962C54.2758 6.03688 55.4653 5.86841 56.5631 5.84657C57.0472 5.83721 57.5312 5.88401 58.0026 5.99008C59.4516 6.31767 60.7709 7.15379 61.72 8.27694C62.2515 8.89779 62.6564 9.61224 62.9348 10.3828C62.8969 9.94294 62.7893 9.50304 62.6374 9.07874C62.2325 7.99303 61.5048 7.03523 60.5874 6.31455C59.6762 5.59386 58.5626 5.11028 57.3984 4.95429C56.9111 4.88877 56.3986 4.89501 55.9146 4.91373C55.1521 4.93557 54.3644 4.99797 53.681 4.67974C53.3615 4.52687 53.0672 4.2804 52.8173 4.02769C52.2194 3.41932 51.6562 2.69551 50.8558 2.32425C49.4764 1.65036 47.632 1.84379 46.5405 2.94198Z" fill="#562912"/>
</g>
</g>
<defs>
<linearGradient id="paint0_linear_2060_3422" x1="44.1637" y1="13.9298" x2="93.7746" y2="65.1616" gradientUnits="userSpaceOnUse">
<stop stop-color="#FF7A93"/>
<stop offset="1" stop-color="#FF0062"/>
</linearGradient>
<clipPath id="clip0_2060_3422">
<rect width="100" height="105" fill="white"/>
</clipPath>
<clipPath id="clip1_2060_3422">
<rect width="82" height="110" fill="white" transform="translate(9)"/>
</clipPath>
</defs>
</svg>
