<svg width="100" height="105" viewBox="0 0 100 105" fill="none" xmlns="http://www.w3.org/2000/svg">
<g clip-path="url(#clip0_2060_3619)">
<path d="M99.7356 64.8626C99.3157 75.9156 94.4912 83.7056 87.0631 88.9114C86.4753 89.3204 85.878 89.7108 85.2715 90.092C85.1128 90.1849 84.9542 90.2872 84.7862 90.3801C84.7489 90.3987 84.7209 90.4266 84.6836 90.4452C84.5996 90.4917 84.5249 90.5475 84.4409 90.5847C84.3103 90.659 84.189 90.7334 84.0583 90.8078C83.6198 91.0495 83.1812 91.2911 82.7332 91.5143C74.456 95.7811 63.9299 97.6031 52.9558 97.6403C51.3694 97.6496 49.7737 97.6217 48.178 97.5566C45.6584 97.4544 43.1389 97.2685 40.6193 96.9989C36.2614 96.5341 32.0342 95.3814 28.0682 93.6709C25.9593 92.7599 23.9249 91.6909 21.9746 90.4824C21.9186 90.4452 21.8533 90.408 21.788 90.3708C21.6387 90.2779 21.4987 90.1849 21.3587 90.092C21.3401 90.0827 21.3214 90.0734 21.3027 90.0548C5.24291 79.7269 -4.49937 59.7963 2.07947 40.8232C6.31605 28.6082 14.4533 22.5287 27.0324 25.7172C28.5161 26.089 30.1212 26.1727 31.8009 25.9961C34.8524 25.6893 38.1278 24.5645 41.2632 22.9563C41.6645 22.7518 42.0471 22.5472 42.439 22.3241C43.2882 21.85 44.1187 21.3481 44.9212 20.8182C45.1919 20.6416 45.4532 20.4649 45.7144 20.2883C46.153 19.9908 46.5916 19.6748 47.0302 19.368C47.4501 19.0612 47.8794 18.7545 48.3087 18.4477C48.8312 18.0759 49.3538 17.6947 49.867 17.3136C50.2496 17.0347 50.6322 16.7651 51.0148 16.4863C53.2544 14.878 55.5127 13.3163 57.9016 12.0428C58.5175 11.7174 59.1334 11.4106 59.7586 11.1225C60.7758 10.6577 61.8209 10.2579 62.8941 9.93257C63.37 9.78384 63.8552 9.6537 64.3405 9.54214C66.9814 8.92861 69.6316 8.85424 72.2164 9.22608C82.0707 10.6484 91.0478 18.5779 95.275 27.9482C100.613 39.8006 100.221 51.904 99.7356 64.8626Z" fill="url(#paint0_linear_2060_3619)"/>
<g clip-path="url(#clip1_2060_3619)">
<path d="M46.014 34.1831C46.014 34.1831 44.2455 35.273 44.1544 35.7532C44.0558 36.2333 45.5965 38.436 45.5965 38.436L46.014 34.1831Z" fill="#E5C093"/>
<path d="M58.8184 34.0232C58.8184 34.0232 60.3515 34.5034 60.9284 35.1817C60.9284 35.1817 60.4881 37.2243 59.3648 39.2364L58.8184 34.0232Z" fill="#E5C093"/>
<path d="M59.4861 40.852C59.4861 40.852 57.1864 55.7142 51.881 55.8819C45.9381 56.0725 45.293 41.8123 45.293 41.8123L45.9609 35.0062L46.2569 31.9956L58.7196 32.8645L58.9624 35.3644L59.4861 40.852Z" fill="#B0775C"/>
<path d="M58.9549 35.3643C57.6267 37.2012 55.547 39.3276 55.0689 39.602C54.4009 39.9907 50.9475 39.9907 50.2796 39.602C49.7939 39.32 47.3878 36.9039 45.9609 35.0137L46.2569 32.0032L58.7196 32.872L58.9549 35.3643Z" fill="#965A42"/>
<path d="M73.1935 95.4384C73.2921 99.3864 74.0587 109.013 74.0587 109.013C71.7589 111.421 58.0515 113.54 57.6644 113.342C57.2774 113.151 54.7879 111.802 54.7879 111.802C54.7879 111.802 53.7404 100.492 53.5811 98.8148C53.4217 97.138 51.9492 54.7692 51.9492 54.7692C51.9948 54.6701 53.3609 51.4385 53.5431 50.684C53.7329 49.9142 54.6968 44.0455 54.6968 44.0455L63.4176 39.8079C63.4176 39.8079 75.3035 44.9068 76.9353 45.7756C78.5671 46.6445 80.5785 49.434 80.5785 49.434L73.7703 62.1393C73.7703 62.1393 73.4515 76.1022 73.2845 86.0638C73.2086 90.5377 73.1631 94.2113 73.1935 95.4384Z" fill="#D79612"/>
<path d="M32.5494 67.81L28.6482 77.4971C21.1721 80.0961 14.2349 84.852 14.2349 84.852C15.1912 82.4436 23.5325 52.6047 23.5325 52.6047C23.5325 52.6047 28.2307 55.8744 29.096 57.3225C29.946 58.7402 32.4659 67.528 32.5494 67.81Z" fill="#D79612"/>
<path d="M54.7878 111.802C54.7878 111.802 50.9549 113.822 49.8012 113.921C48.6475 114.02 39.6383 111.131 38.3025 110.263C36.959 109.394 32.739 105.834 32.739 105.834C32.739 105.834 33.9838 96.9779 33.794 94.2875C33.7713 93.9674 33.7333 93.3348 33.6878 92.4812C33.5512 89.8517 33.3235 85.0653 33.1109 80.4084C32.8149 73.9986 32.5417 67.8175 32.5417 67.8175L23.54 52.597C23.54 52.597 23.9423 51.5528 24.4432 50.4019C24.9518 49.2282 25.5514 47.9325 25.9385 47.4981C26.705 46.6292 41.8546 40.8596 41.8546 40.8596L50.0972 43.9388C50.0972 43.9388 51.5317 50.7754 51.6304 51.7357C51.6532 51.9339 51.7518 53.0467 51.896 54.6929C52.2376 58.5571 52.8372 65.3633 53.2622 70.2183C53.5203 73.1679 53.71 75.401 53.7404 75.7973C53.7632 76.1556 53.8087 77.5884 53.8618 79.5396C54.006 84.9586 54.2186 94.4094 54.2186 96.1091C54.211 98.4184 54.7878 111.802 54.7878 111.802Z" fill="#D79612"/>
<path d="M54.7877 111.993C54.689 111.993 54.6055 111.916 54.5979 111.817C54.5903 111.703 53.5429 100.484 53.3911 98.83C53.2317 97.1685 51.8124 56.4993 51.7593 54.7692V54.731L51.7669 54.7006C51.7972 54.6015 51.9111 54.5405 52.0097 54.5786C52.0932 54.6091 52.1464 54.6853 52.1388 54.7768C52.1767 55.8362 53.6188 97.1532 53.7706 98.7919C53.93 100.446 54.9698 111.673 54.9774 111.779C54.985 111.886 54.9091 111.977 54.8028 111.985C54.8028 111.993 54.7953 111.993 54.7877 111.993Z" fill="#C17E08"/>
<path d="M80.5785 49.4188L73.7703 62.1241C73.7703 62.1241 73.4515 76.087 73.2845 86.0486C73.2542 86.0638 73.2238 86.0486 73.201 86.0333C71.2656 85.0577 69.9905 83.9678 70.1727 82.1386C70.3548 80.3171 72.8367 46.9951 73.0189 46.0882C73.201 45.1736 63.9565 41.3246 63.9565 41.3246C63.9565 41.3246 63.5694 49.7313 62.6662 51.0118C61.7554 52.2846 59.3039 55.2951 59.3039 55.2951L56.488 51.7511C55.7594 52.8486 51.9492 54.7616 51.9492 54.7616C51.9644 54.7311 52.0707 54.472 52.23 54.0909C52.6475 53.0772 53.4065 51.2252 53.5431 50.6764C53.7329 49.9066 54.6968 44.0379 54.6968 44.0379L55.3192 43.7331L63.4176 39.8003C63.4176 39.8003 75.3035 44.8992 76.9353 45.7681C78.5595 46.6293 80.5785 49.4188 80.5785 49.4188Z" fill="#C17E08"/>
<path d="M67.1824 63.5952C65.4747 63.5952 64.1161 63.5723 64.0857 63.5723C63.9795 63.5723 63.896 63.4809 63.896 63.3742C63.896 63.2675 63.9871 63.1836 64.0857 63.1836C64.1465 63.1836 70.1881 63.2903 72.8066 63.0464C72.9128 63.0388 73.0039 63.115 73.0115 63.2217C73.0191 63.3284 72.9432 63.4199 72.8369 63.4275C71.4556 63.5647 69.0951 63.5952 67.1824 63.5952Z" fill="#C17E08"/>
<path d="M68.3056 77.7485L68.2145 77.7028C66.78 76.933 63.7213 74.7989 63.5922 74.7075L63.5163 74.6541L62.9243 64.342C62.9167 64.2353 63.0002 64.1438 63.1065 64.1362C63.2127 64.1286 63.3038 64.2124 63.3114 64.3191L63.8882 74.4407C64.3664 74.7761 66.9849 76.5824 68.3056 77.3141C68.8369 77.0245 71.5617 75.5154 72.5711 74.4179C72.6394 74.3416 72.7609 74.334 72.8444 74.4102C72.9203 74.4788 72.9278 74.6008 72.8519 74.6846C71.6907 75.9422 68.5257 77.6342 68.3891 77.7104L68.3056 77.7485Z" fill="#C17E08"/>
<path d="M70.7039 66.6515C70.036 66.6515 65.3302 66.278 65.1253 66.2628C65.019 66.2552 64.9431 66.1637 64.9507 66.057C64.9583 65.9503 65.0494 65.8741 65.1556 65.8817C65.2012 65.8893 70.0436 66.2628 70.7039 66.2628C71.2276 66.2628 72.7 65.714 73.2237 65.5082C73.3224 65.4701 73.4363 65.5159 73.4742 65.615C73.5122 65.714 73.4666 65.8284 73.368 65.8665C73.2845 65.9046 71.4022 66.6515 70.7039 66.6515Z" fill="#C17E08"/>
<path d="M32.4281 68.0844C32.3219 68.0844 32.2384 68.0005 32.2384 67.8938C32.2384 66.0646 31.783 57.4598 31.7754 57.3759C31.7678 57.2692 31.8513 57.1778 31.9575 57.1702C32.0638 57.1625 32.1549 57.2464 32.1625 57.3531C32.1701 57.4369 32.6255 66.0494 32.6255 67.8938C32.6179 68.0005 32.5344 68.0844 32.4281 68.0844Z" fill="#C17E08"/>
<path d="M32.739 68.3204C32.6328 68.3204 32.5493 68.2366 32.5493 68.1299C32.4734 64.5858 33.3159 60.6149 33.3234 60.5768C33.3462 60.4701 33.4449 60.4092 33.5511 60.432C33.6574 60.4549 33.7181 60.554 33.6954 60.6607C33.6878 60.6988 32.8529 64.6316 32.9288 68.1299C32.9288 68.229 32.8453 68.3128 32.739 68.3204Z" fill="#C17E08"/>
<path d="M51.8883 54.6929L49.581 51.5757L45.5811 55.6761C45.5811 55.6761 42.7652 51.6671 42.0366 50.9355C41.308 50.2038 41.566 42.2696 41.566 42.2696C41.566 42.2696 29.1261 47.1551 24.4355 50.4019C24.9441 49.2282 25.5437 47.9325 25.9308 47.4981C26.6973 46.6292 41.8469 40.8596 41.8469 40.8596L48.9586 43.5196L50.0895 43.9388C50.0895 43.9388 51.524 50.7754 51.6227 51.7357C51.6379 51.911 51.7138 52.7494 51.8276 54.0146C51.8504 54.228 51.8732 54.449 51.8883 54.6929Z" fill="#C17E08"/>
<path d="M56.8674 107.359C57.4794 107.359 57.9755 106.819 57.9755 106.154C57.9755 105.489 57.4794 104.95 56.8674 104.95C56.2554 104.95 55.7593 105.489 55.7593 106.154C55.7593 106.819 56.2554 107.359 56.8674 107.359Z" fill="#C17E08"/>
<path d="M56.116 96.1626C56.7364 96.1626 57.2393 95.6235 57.2393 94.9584C57.2393 94.2933 56.7364 93.7542 56.116 93.7542C55.4956 93.7542 54.9927 94.2933 54.9927 94.9584C54.9927 95.6235 55.4956 96.1626 56.116 96.1626Z" fill="#C17E08"/>
<path d="M56.4347 96.2616C57.0299 96.2616 57.5125 95.7429 57.5125 95.1031C57.5125 94.4633 57.0299 93.9446 56.4347 93.9446C55.8395 93.9446 55.3569 94.4633 55.3569 95.1031C55.3569 95.7429 55.8395 96.2616 56.4347 96.2616Z" fill="#FADCB2"/>
<path d="M55.3342 85.0579C55.9001 85.0579 56.3589 84.5187 56.3589 83.8536C56.3589 83.1886 55.9001 82.6494 55.3342 82.6494C54.7683 82.6494 54.3096 83.1886 54.3096 83.8536C54.3096 84.5187 54.7683 85.0579 55.3342 85.0579Z" fill="#C17E08"/>
<path d="M55.7592 85.1341C56.3041 85.1341 56.7458 84.6155 56.7458 83.9756C56.7458 83.3358 56.3041 82.8171 55.7592 82.8171C55.2142 82.8171 54.7725 83.3358 54.7725 83.9756C54.7725 84.6155 55.2142 85.1341 55.7592 85.1341Z" fill="#FADCB2"/>
<path d="M55.9035 73.0383C56.4694 73.0383 56.9282 72.4992 56.9282 71.8341C56.9282 71.169 56.4694 70.6299 55.9035 70.6299C55.3377 70.6299 54.8789 71.169 54.8789 71.8341C54.8789 72.4992 55.3377 73.0383 55.9035 73.0383Z" fill="#C17E08"/>
<path d="M56.3285 73.1146C56.8734 73.1146 57.3152 72.5959 57.3152 71.9561C57.3152 71.3163 56.8734 70.7976 56.3285 70.7976C55.7836 70.7976 55.3418 71.3163 55.3418 71.9561C55.3418 72.5959 55.7836 73.1146 56.3285 73.1146Z" fill="#FADCB2"/>
<path d="M54.7497 60.958C55.3156 60.958 55.7744 60.4189 55.7744 59.7538C55.7744 59.0887 55.3156 58.5496 54.7497 58.5496C54.1838 58.5496 53.7251 59.0887 53.7251 59.7538C53.7251 60.4189 54.1838 60.958 54.7497 60.958Z" fill="#C17E08"/>
<path d="M55.1747 61.0343C55.7196 61.0343 56.1614 60.5156 56.1614 59.8758C56.1614 59.236 55.7196 58.7173 55.1747 58.7173C54.6297 58.7173 54.188 59.236 54.188 59.8758C54.188 60.5156 54.6297 61.0343 55.1747 61.0343Z" fill="#FADCB2"/>
<path d="M54.4841 79.3568C54.3854 79.4254 54.1653 79.4864 53.8617 79.5397C52.1616 79.8217 47.8505 79.8217 47.8505 79.8217C47.8505 79.8217 36.8982 88.0303 36.2834 88.8001C35.7142 89.5165 33.9381 92.1079 33.6877 92.4737C33.5511 89.8442 33.3234 85.0578 33.1108 80.401L53.2545 70.2184L54.4765 69.6011C54.4841 69.5935 55.0989 78.8919 54.4841 79.3568Z" fill="#C17E08"/>
<path d="M42.2341 8.99347C42.2341 8.99347 40.5112 11.3028 40.5112 12.4613C40.5112 13.6198 41.756 20.0678 41.756 20.0678L52.1011 21.6988L62.8408 19.4885C62.8408 19.4885 64.5637 12.85 64.4727 12.0726C64.3816 11.2952 63.319 8.51331 63.319 8.51331L42.2341 8.99347Z" fill="#39302B"/>
<path d="M63.8959 7.74353C63.6075 8.80294 61.118 10.8227 61.118 10.8227L53.1637 13.2997L52.769 13.4217L44.5264 10.9218C44.5264 10.9218 41.6498 9.76327 41.3613 9.19165C41.0729 8.6124 40.5948 5.72379 40.7845 4.86254C40.9743 4.00129 50.5679 0.327649 51.6229 0.0380253C52.3516 -0.160138 55.4559 0.419109 57.6873 1.02122C58.6892 1.28798 59.5089 1.56236 59.8656 1.77577C61.0193 2.44647 64.1843 6.68412 63.8959 7.74353Z" fill="#39302B"/>
<path d="M63.8958 7.7435C63.6074 8.80291 61.1179 10.8226 61.1179 10.8226L53.1636 13.2997C52.1618 12.9415 51.5166 12.4842 51.7216 11.8821C52.3895 9.86232 57.285 8.32274 58.1426 7.93404C59.0003 7.54533 60.0629 5.43413 59.8656 4.66434C59.7441 4.16131 58.5221 2.27876 57.6872 1.02881C58.6891 1.29557 59.5088 1.56995 59.8656 1.78335C61.0192 2.44644 64.1842 6.68408 63.8958 7.7435Z" fill="black"/>
<path d="M64.1846 22.5296L62.8032 26.3023C62.6514 26.7062 62.2491 26.9577 61.8241 26.912L60.7539 26.7977V26.7901L61.2321 22.5067L61.566 19.519H61.5812L62.4389 19.458L62.8715 19.4275C63.3421 19.3971 63.7671 19.7172 63.8582 20.1821L64.2225 21.996C64.2605 22.1866 64.2453 22.3619 64.1846 22.5296Z" fill="#B0775C"/>
<path d="M62.4463 19.4734L61.3306 26.8283L60.7613 26.7978H60.731L61.2395 22.5221L61.5886 19.5267L62.4463 19.4734Z" fill="#965A42"/>
<path d="M61.4975 25.0675C61.4823 25.0675 61.4671 25.0675 61.4595 25.0599C61.3533 25.037 61.2925 24.9379 61.3153 24.8312C61.8087 22.5371 63.023 22.1103 63.0686 22.0874C63.1672 22.0569 63.2811 22.1103 63.3115 22.2094C63.3418 22.3084 63.2887 22.4151 63.19 22.4533C63.1748 22.4609 62.1274 22.8572 61.6872 24.9074C61.6644 25.0065 61.5885 25.0675 61.4975 25.0675Z" fill="#965A42"/>
<path d="M62.7421 25.1667C62.651 25.1667 62.5751 25.1057 62.5523 25.0143C62.5371 24.9533 62.3929 24.435 61.6339 24.5798C61.5277 24.6027 61.429 24.5341 61.4062 24.4274C61.3835 24.3207 61.4518 24.2216 61.558 24.1987C62.4688 24.0158 62.8483 24.5951 62.9242 24.9228C62.947 25.0295 62.8787 25.1286 62.78 25.1515C62.7724 25.1591 62.7572 25.1667 62.7421 25.1667Z" fill="#965A42"/>
<path d="M40.8531 22.4306L42.2344 26.211C42.3862 26.6149 42.7885 26.8664 43.2135 26.8207L44.2837 26.7064V26.6988L43.8056 22.4154L43.4716 19.4277H43.4564L42.5988 19.3667L42.1661 19.3362C41.6956 19.3057 41.2705 19.6259 41.1794 20.0908L40.8151 21.9047C40.7772 22.0877 40.7924 22.263 40.8531 22.4306Z" fill="#B0775C"/>
<path d="M42.5913 19.3743L43.707 26.7292L44.2763 26.7063H44.3066L43.7981 22.4229L43.449 19.4352L42.5913 19.3743Z" fill="#965A42"/>
<path d="M43.5398 24.9686C43.4487 24.9686 43.3728 24.9076 43.3501 24.8161C42.9023 22.7583 41.8548 22.3619 41.8472 22.3619C41.7486 22.3238 41.6954 22.2171 41.7258 22.1181C41.7638 22.019 41.87 21.9656 41.9687 21.9961C42.0218 22.0114 43.2286 22.4458 43.722 24.7399C43.7447 24.8466 43.6764 24.9457 43.5778 24.9686C43.5626 24.9686 43.555 24.9686 43.5398 24.9686Z" fill="#965A42"/>
<path d="M42.2953 25.0678C42.2801 25.0678 42.265 25.0678 42.2574 25.0601C42.1511 25.0373 42.0904 24.9306 42.1132 24.8315C42.1891 24.5038 42.561 23.9245 43.4793 24.1074C43.5856 24.1303 43.6539 24.2294 43.6311 24.3361C43.6084 24.4428 43.5097 24.5114 43.4034 24.4885C42.6293 24.3361 42.4927 24.8925 42.4851 24.9153C42.4623 25.0068 42.3788 25.0678 42.2953 25.0678Z" fill="#965A42"/>
<path d="M60.0632 31.4242C59.7521 32.8189 57.1487 35.2045 55.7977 36.2868C55.4713 36.5535 55.2133 36.7365 55.0842 36.8127C54.4163 37.2014 50.9629 37.2014 50.295 36.8127C49.6271 36.424 45.3464 32.8799 44.9289 31.3251C44.6405 30.2657 43.0087 15.3424 43.1073 14.3821C43.206 13.4218 44.5418 10.9143 44.5418 10.9143C47.4184 11.684 51.7295 11.8746 51.7295 11.8746C51.8206 11.8289 54.8034 10.4341 55.3727 10.5255C55.9495 10.6246 61.1258 10.8152 61.1258 10.8152C61.1258 10.8152 61.8924 13.9934 61.9911 15.0528C62.0746 16.1122 60.4427 29.6864 60.0632 31.4242Z" fill="#B0775C"/>
<path d="M60.063 31.4242C59.7518 32.8189 57.1485 35.2045 55.7975 36.2868C56.7766 35.1512 58.3477 33.2534 59.1219 31.8738C60.2983 29.7779 60.2983 12.2633 60.2983 12.2633C60.2983 12.2633 56.8449 11.4401 55.6684 11.2572C54.5072 11.0819 51.7976 11.8517 51.7217 11.8746C51.8128 11.8289 54.7956 10.4341 55.3648 10.5255C55.9417 10.6246 61.118 10.8152 61.118 10.8152C61.118 10.8152 61.8846 13.9934 61.9833 15.0528C62.0744 16.1122 60.4425 29.6864 60.063 31.4242Z" fill="#965A42"/>
<path d="M54.6895 19.1989C54.6895 19.1989 55.2663 20.1592 56.6097 20.0678C57.9531 19.9687 59.0992 19.1989 59.0992 19.1989L60.9208 18.8102C60.9208 18.8102 59.3876 18.231 59.0992 18.231C58.8108 18.231 54.6895 19.1989 54.6895 19.1989Z" fill="black"/>
<path d="M48.2683 29.8389C48.1317 29.8389 48.0254 29.7322 48.0254 29.595C48.0254 29.1224 48.5187 28.6118 48.5795 28.5584C48.6781 28.4594 48.8299 28.4594 48.9286 28.5584C49.0273 28.6575 49.0273 28.81 48.9286 28.9014C48.7616 29.0691 48.5187 29.3968 48.5187 29.595C48.5111 29.7246 48.4049 29.8389 48.2683 29.8389Z" fill="#965A42"/>
<path d="M56.8981 29.8388C56.8753 29.8388 56.8601 29.8388 56.8373 29.8312C56.7083 29.8007 56.6248 29.6636 56.6628 29.534C56.6931 29.4044 56.4351 29.1072 56.1846 28.9243C56.0784 28.848 56.048 28.6956 56.1315 28.5813C56.2074 28.4746 56.3592 28.4441 56.473 28.5279C56.6096 28.627 57.27 29.13 57.1409 29.6559C57.1106 29.7626 57.0043 29.8388 56.8981 29.8388Z" fill="#965A42"/>
<path d="M48.8452 29.2063C48.8452 29.2063 51.3347 29.3968 52.5871 29.3968C53.8318 29.3968 56.5186 29.2063 56.5186 29.2063C56.5186 29.2063 54.7957 31.4166 54.4086 31.6147C54.0216 31.8129 51.2436 31.7138 50.8641 31.6147C50.4771 31.5157 48.8452 29.2063 48.8452 29.2063Z" fill="white"/>
<path d="M52.3897 27.2399C51.5624 27.2399 51.2891 27.0265 50.94 26.7597C50.8565 26.6988 50.773 26.6302 50.6744 26.5616C50.348 26.5082 50.1658 26.3329 50.0747 26.1957C49.7863 25.7689 49.9381 25.1744 49.9533 25.1058C49.9913 24.9763 50.1203 24.9 50.2569 24.9305C50.3859 24.9686 50.4618 25.0982 50.4315 25.2278C50.4011 25.3497 50.348 25.7079 50.4846 25.9137C50.5453 26.0052 50.6516 26.0585 50.7958 26.0738L50.8565 26.0814L50.9096 26.1119C51.0463 26.2033 51.1525 26.2872 51.2512 26.3634C51.57 26.6073 51.7445 26.7445 52.4049 26.7445C53.3232 26.7445 53.7331 26.2719 53.7559 26.2567L53.809 26.1957L53.8925 26.1805C53.8925 26.1805 54.2113 26.1119 54.3555 25.8756C54.439 25.7384 54.4466 25.5555 54.3782 25.3421C54.3403 25.2125 54.4162 25.0753 54.5452 25.0372C54.6742 24.9991 54.8109 25.0753 54.8488 25.2049C54.9551 25.5631 54.9323 25.8756 54.7729 26.1347C54.5756 26.4625 54.2264 26.5997 54.0746 26.6454C53.8849 26.7978 53.346 27.2399 52.3897 27.2399Z" fill="#965A42"/>
<path d="M54.3102 33.444C54.2874 33.444 54.2647 33.4364 54.2419 33.4287C52.6101 32.7885 51.0465 33.4211 51.0314 33.4287C50.9327 33.4668 50.8188 33.4211 50.7809 33.322C50.7429 33.2229 50.7885 33.1086 50.8872 33.0705C50.9555 33.04 52.6101 32.3769 54.3861 33.0705C54.4848 33.1086 54.5303 33.2229 54.4924 33.322C54.462 33.3982 54.3861 33.444 54.3102 33.444Z" fill="#965A42"/>
<path d="M46.4468 26.4167C46.4013 26.4167 46.3558 26.4015 46.3178 26.3634L45.0731 25.2049C44.9972 25.1363 44.9896 25.0143 45.0655 24.9305C45.1338 24.8543 45.2552 24.8467 45.3387 24.9229L46.5835 26.0814C46.6594 26.15 46.667 26.2719 46.5911 26.3558C46.5531 26.3939 46.5 26.4167 46.4468 26.4167Z" fill="#965A42"/>
<path d="M46.1587 27.4761C46.1131 27.4761 46.0752 27.4608 46.0372 27.4303L44.8911 26.47C44.8077 26.4014 44.8001 26.2795 44.8684 26.1956C44.9367 26.1118 45.0581 26.1042 45.1416 26.1728L46.2953 27.1331C46.3788 27.2017 46.3864 27.3236 46.3181 27.4075C46.2725 27.4532 46.2194 27.4761 46.1587 27.4761Z" fill="#965A42"/>
<path d="M58.7199 26.996C58.6744 26.996 58.6212 26.9808 58.5833 26.9427C58.5074 26.8664 58.5074 26.7445 58.5833 26.6683L60.1165 25.1287C60.1924 25.0525 60.3138 25.0525 60.3897 25.1287C60.4656 25.2049 60.4656 25.3269 60.3897 25.4031L58.8565 26.935C58.8186 26.9731 58.7654 26.996 58.7199 26.996Z" fill="#965A42"/>
<path d="M59.0994 27.8573C59.0387 27.8573 58.9855 27.8345 58.9476 27.7811C58.8869 27.6973 58.902 27.5753 58.9855 27.5144L60.1392 26.6455C60.2227 26.5845 60.3441 26.5998 60.4048 26.6836C60.4656 26.7674 60.4504 26.8894 60.3669 26.9504L59.2208 27.8192C59.1829 27.8497 59.1449 27.8573 59.0994 27.8573Z" fill="#965A42"/>
<path d="M50.5682 19.199C50.5682 19.199 49.9003 20.2584 48.7467 20.0679C47.593 19.8773 46.2572 19.0085 46.2572 19.0085L44.3369 18.8179C44.3369 18.8179 46.0598 18.0481 46.8264 18.0481C47.6006 18.0405 50.5682 19.199 50.5682 19.199Z" fill="black"/>
<path d="M59.0081 21.8894C58.9626 21.8894 58.917 21.8742 58.8867 21.8437C57.771 20.8986 56.4958 21.8132 56.4427 21.8513C56.3592 21.9123 56.2378 21.8971 56.1771 21.8056C56.1163 21.7218 56.1315 21.5998 56.215 21.5388C56.2302 21.5312 57.7937 20.4032 59.1371 21.5465C59.2206 21.6151 59.2282 21.737 59.1599 21.8209C59.1144 21.8666 59.0612 21.8894 59.0081 21.8894Z" fill="#35231F"/>
<path d="M48.944 21.7981C48.8985 21.7981 48.8453 21.7828 48.8074 21.7447C48.7695 21.7066 47.8359 20.8073 46.4545 21.6761C46.3634 21.7295 46.2496 21.7066 46.1889 21.6152C46.1357 21.5237 46.1585 21.4094 46.2496 21.3484C47.8966 20.3195 49.0655 21.4627 49.073 21.4703C49.1489 21.5466 49.1489 21.6685 49.073 21.7447C49.0427 21.7752 48.9896 21.7981 48.944 21.7981Z" fill="#35231F"/>
<path d="M54.1354 21.2189C54.105 21.2189 54.0671 21.2113 54.0367 21.196C52.5111 20.3043 51.1222 21.1579 51.0615 21.196C50.9704 21.2494 50.8565 21.2265 50.7958 21.1351C50.7427 21.0436 50.7654 20.9293 50.8565 20.8683C50.9248 20.8302 52.496 19.8546 54.2265 20.8683C54.3175 20.9216 54.3479 21.036 54.2948 21.1351C54.2644 21.1808 54.2037 21.2189 54.1354 21.2189Z" fill="#35231F"/>
<path d="M59.9415 23.5282H55.0536C54.6969 23.5282 54.3857 23.2767 54.3174 22.9261L53.8772 20.7692C53.8316 20.5482 53.8848 20.3195 54.029 20.1442C54.1732 19.9689 54.3781 19.8622 54.6058 19.8622L61.0497 19.7708L60.7005 22.8575C60.6474 23.2386 60.3286 23.5282 59.9415 23.5282ZM60.6095 20.1595L54.6058 20.2433C54.492 20.2433 54.3933 20.2966 54.325 20.3805C54.2567 20.4643 54.2263 20.5786 54.2491 20.6854L54.6893 22.8423C54.7273 23.01 54.8791 23.1395 55.0536 23.1395H59.9415C60.1313 23.1395 60.2831 22.9947 60.3059 22.8118L60.6095 20.1595Z" fill="#35231F"/>
<path d="M60.8297 20.1595C60.769 20.1595 60.7007 20.129 60.6703 20.068C60.6172 19.9765 60.64 19.8622 60.731 19.8012L61.4976 19.3211C61.5887 19.2677 61.7025 19.2906 61.7633 19.382C61.8164 19.4735 61.7936 19.5878 61.7025 19.6488L60.936 20.129C60.898 20.1518 60.8601 20.1595 60.8297 20.1595Z" fill="#35231F"/>
<path d="M49.9533 23.5282H45.0654C44.6859 23.5282 44.3595 23.2386 44.314 22.8575L43.9648 19.7708L50.4087 19.8622C50.6364 19.8622 50.8413 19.9689 50.9855 20.1442C51.1297 20.3195 51.1829 20.5482 51.1373 20.7692L50.6971 22.9261C50.6136 23.2767 50.31 23.5282 49.9533 23.5282ZM44.6935 22.8118C44.7162 23.0023 44.8756 23.1395 45.0578 23.1395H49.9457C50.1203 23.1395 50.2721 23.0176 50.31 22.8423L50.7502 20.6854C50.773 20.5786 50.7427 20.4643 50.6743 20.3805C50.606 20.2966 50.4998 20.2433 50.3935 20.2433L44.3899 20.1595L44.6935 22.8118Z" fill="#35231F"/>
<path d="M44.1773 20.1595C44.1394 20.1595 44.109 20.1518 44.0787 20.129L43.3121 19.6488C43.221 19.5954 43.1982 19.4735 43.2514 19.382C43.3045 19.2906 43.4259 19.2677 43.517 19.3211L44.2836 19.8012C44.3747 19.8546 44.3975 19.9765 44.3443 20.068C44.3064 20.129 44.2381 20.1595 44.1773 20.1595Z" fill="#35231F"/>
<path d="M47.5851 76.4683C47.5851 76.4683 41.1792 81.0946 40.6935 80.9041C40.2077 80.7135 36.4735 76.956 36.1851 74.8372L38.7732 73.3967L47.5851 76.4683Z" fill="#B0775C"/>
<path d="M84.7913 37.0259C84.5939 37.7119 81.9602 43.8778 81.7705 44.6628C81.6946 44.9753 81.6035 45.3716 81.5276 45.7451C81.4062 46.3167 81.3075 46.8198 81.3075 46.8198C80.9432 46.7283 75.0837 47.1323 75.0837 47.1323V44.9067C75.0837 44.9067 74.7422 44.076 74.2564 43.1919C73.7707 42.3077 73.7707 39.3734 73.7707 39.3734C73.7707 39.3734 72.5032 38.5884 72.2072 37.125C71.9111 35.654 75.4253 31.0505 75.4253 31.0505C75.4253 31.0505 79.9109 32.0261 80.4954 32.5215C81.0798 33.0093 82.2486 34.2821 82.2486 34.2821C82.2486 34.2821 84.9886 36.34 84.7913 37.0259Z" fill="#B0775C"/>
<path d="M73.7708 39.5715C73.7328 39.5715 73.7025 39.5639 73.6721 39.541C73.581 39.4877 73.5506 39.3657 73.6038 39.2742C73.7556 39.0227 75.099 36.782 75.5089 36.4771C75.9111 36.1722 77.8086 35.3186 77.8845 35.2805C77.9832 35.2348 78.097 35.2805 78.1426 35.3796C78.1881 35.4787 78.1426 35.593 78.0439 35.6387C77.505 35.8826 76.0477 36.5609 75.7441 36.7896C75.4785 36.9877 74.4994 38.5426 73.9453 39.4724C73.9074 39.541 73.8391 39.5715 73.7708 39.5715Z" fill="#965A42"/>
<path d="M75.6304 36.8278C75.5773 36.8278 75.5317 36.8049 75.4938 36.7668C75.0764 36.3476 74.6134 34.6251 74.5678 34.4269C74.5375 34.3202 74.6058 34.2135 74.7044 34.1907C74.8107 34.1602 74.917 34.2288 74.9397 34.3278C75.1219 35.029 75.509 36.2333 75.767 36.4924C75.8429 36.5686 75.8429 36.6906 75.767 36.7668C75.7291 36.8125 75.676 36.8278 75.6304 36.8278Z" fill="#965A42"/>
<path d="M80.943 38.5808C80.9126 38.5808 80.8747 38.5732 80.8443 38.5579C80.7532 38.5046 80.7153 38.3826 80.7684 38.2912L81.6033 36.8049C81.6564 36.7135 81.7779 36.6754 81.869 36.7287C81.96 36.7821 81.998 36.904 81.9449 36.9955L81.11 38.4817C81.072 38.5427 81.0113 38.5808 80.943 38.5808Z" fill="#965A42"/>
<path d="M82.7875 38.8551C82.7571 38.8551 82.7267 38.8475 82.6964 38.8323C82.6053 38.7789 82.5673 38.6646 82.6205 38.5655L83.1745 37.5442C83.2277 37.4527 83.3415 37.4146 83.4402 37.468C83.5313 37.5213 83.5692 37.6357 83.5161 37.7347L82.962 38.756C82.9241 38.817 82.8558 38.8551 82.7875 38.8551Z" fill="#965A42"/>
<path d="M81.5274 45.7451C81.4059 46.3167 81.3072 46.8198 81.3072 46.8198C80.9429 46.7283 75.0835 47.1323 75.0835 47.1323V46.05C75.8121 46.1491 77.9677 46.4158 78.7798 46.2634C79.4705 46.1338 80.7911 45.8899 81.5274 45.7451Z" fill="#965A42"/>
<path d="M86.9996 80.6143C86.9996 82.8246 83.3564 89.1811 82.6885 89.6613C82.0206 90.1414 77.2237 90.05 76.4572 89.6613C75.6906 89.2726 72.6242 85.5227 72.1461 83.884C71.8501 82.8704 72.5408 69.0675 73.1176 58.6716C73.1707 57.6503 73.2314 56.6595 73.2846 55.7144C73.5654 50.7374 73.7855 47.1171 73.7855 47.1171C73.7855 47.1171 77.4287 47.2162 78.2939 47.1095C79.1668 47.0028 82.7948 46.637 82.7948 46.637C82.7948 46.637 83.2881 50.3411 83.9332 55.3104C84.085 56.4537 84.2368 57.6579 84.4038 58.9078C85.5803 68.0996 86.9996 79.3263 86.9996 80.6143Z" fill="#D79612"/>
<path d="M84.3885 58.9003C82.6656 59.1824 77.5727 60.2494 76.4646 60.1503C75.6145 60.0741 74.0434 59.1519 73.1099 58.6793C73.163 57.658 73.2237 56.6672 73.2768 55.7221L83.9255 55.3105C84.0697 56.4462 84.2215 57.6504 84.3885 58.9003Z" fill="#C17E08"/>
<path d="M73.1934 57.5893C73.1934 57.5893 76.9276 58.9536 78.0813 59.0451C79.2349 59.1442 84.3354 57.5893 84.3354 57.5893L82.7794 46.6294C82.7794 46.6294 75.4931 47.2086 73.7702 47.1096L73.1934 57.5893Z" fill="#FADCB2"/>
<path d="M44.8605 75.7061C44.8605 75.7061 47.4031 77.5886 46.6745 78.2593C45.9458 78.93 42.5 78.4422 42.5 78.4422L44.8605 75.7061Z" fill="#E5C093"/>
<path d="M46.1583 78.4956L40.4431 83.3582L37.6197 85.7591L26.1285 95.5377C26.1285 95.5377 18.8422 96.7876 17.1192 95.5377C15.3887 94.2801 13.2787 87.2529 14.2427 84.8445C14.2427 84.8445 18.7511 80.7059 26.2272 78.1069C27.0317 77.8249 29.3618 76.9484 31.8058 76.0338C31.9879 75.9652 32.1701 75.8966 32.3598 75.828C35.5704 74.6162 38.7885 73.3967 38.7885 73.3967C38.7885 73.3967 40.1319 76.1863 41.4753 76.956C42.8036 77.7258 46.1583 78.4956 46.1583 78.4956Z" fill="#D79612"/>
<path d="M26.1283 95.7206C26.0752 95.7206 26.022 95.6978 25.9841 95.652C25.9158 95.5682 25.9234 95.4462 26.0069 95.3777L46.0443 78.3356C46.1278 78.267 46.2492 78.2746 46.3175 78.3585C46.3858 78.4423 46.3783 78.5643 46.2948 78.6328L26.2573 95.6749C26.2118 95.7054 26.1738 95.7206 26.1283 95.7206Z" fill="#C17E08"/>
<path d="M38.7807 73.3891C38.7807 73.3891 26.2422 78.4422 21.248 82.0244C20.2992 82.7027 19.7148 83.3658 19.1759 83.5487C18.6295 83.7317 17.9919 81.5443 19.6313 80.3553C21.2632 79.1663 24.1701 78.6175 24.8001 77.9544C26.4167 76.2472 32.4356 67.8862 32.4356 67.8862L28.6482 77.2609L38.7807 73.3891Z" fill="#C17E08"/>
<path d="M41.0426 81.3003L40.443 83.3505L37.6196 85.7513C36.5266 85.2636 35.2894 84.7224 34.9631 84.5776C34.3255 84.3032 32.6026 80.6601 32.2383 80.0199C31.9575 79.5321 31.8436 77.1389 31.8057 76.0261C31.9878 75.9575 32.17 75.8889 32.3597 75.8203L41.0426 81.3003Z" fill="#C17E08"/>
<path d="M32.1475 75.706C32.1475 75.706 32.1475 78.2592 33.3619 80.0808C34.5762 81.9024 36.0259 84.3337 39.4186 84.3337L46.6822 78.2516C46.6822 78.2516 42.6747 77.5809 41.4679 76.9407C40.2611 76.3005 38.5685 73.3433 38.5685 73.3433L32.1475 75.706Z" fill="#FADCB2"/>
<path d="M58.9091 47.7422C58.9091 47.7422 57.338 49.4418 56.7308 49.9296C56.1843 50.3716 52.8524 53.5041 52.23 54.091C52.6474 53.0773 53.4064 51.2253 53.543 50.6765C53.7328 49.9067 54.6967 44.038 54.6967 44.038L55.3191 43.7332H56.3665L58.9091 47.7422Z" fill="#E5C093"/>
<path d="M54.6895 44.0304C54.6895 44.0304 56.3213 44.221 56.7008 44.7012C57.0803 45.1813 59.1903 52.018 59.1903 52.018C59.1903 52.018 60.344 50.8595 61.3914 49.8077C62.4464 48.7483 63.4027 39.7928 63.4027 39.7928L60.9132 35.1741C60.9208 35.1741 59.9645 40.8522 54.6895 44.0304Z" fill="#FADCB2"/>
<path d="M51.8279 54.0148C51.3042 53.2298 49.141 49.9525 48.6097 48.7787C48.0026 47.4449 46.6743 44.5258 46.6743 44.5258C46.6743 44.5258 47.8052 44.0076 48.9589 43.5198L50.0898 43.939C50.0898 43.939 51.5243 50.7756 51.623 51.7359C51.6457 51.9036 51.7216 52.742 51.8279 54.0148Z" fill="#E5C093"/>
<path d="M50.0898 43.9313C50.0898 43.9313 46.0672 39.7927 44.1469 35.7456L41.8472 40.8521C41.8472 40.8521 42.2343 49.3198 42.5151 50.1887C42.8035 51.0575 45.2019 52.6886 45.2019 52.6886C45.2019 52.6886 47.0235 45.7605 47.3119 45.2727C47.6003 44.7849 50.0898 43.9313 50.0898 43.9313Z" fill="#FADCB2"/>
<path d="M51.8203 76.9177H44.033C43.2589 76.9177 42.6061 76.3461 42.5378 75.6068L41.1489 61.2933C41.0654 60.4473 41.7637 59.708 42.6441 59.708H53.2093C54.0973 59.708 54.788 60.4397 54.7045 61.2933L53.3155 75.6068C53.2472 76.3461 52.6021 76.9177 51.8203 76.9177Z" fill="#3E8A72"/>
<path d="M51.8203 78.1753H44.033C43.2589 78.1753 42.6061 77.6037 42.5378 76.8644L41.1489 62.5509C41.0654 61.7049 41.7637 60.9656 42.6441 60.9656H53.2093C54.0973 60.9656 54.788 61.6973 54.7045 62.5509L53.3155 76.8567C53.2472 77.6037 52.6021 78.1753 51.8203 78.1753Z" fill="#287056"/>
<path d="M42.6287 62.688L42.9095 64.5477C42.9399 64.7459 43.1145 64.8907 43.3194 64.8983L46.9929 64.944C47.2282 64.944 47.418 64.7687 47.418 64.5477L47.4559 62.7033C47.4635 62.4746 47.2737 62.2917 47.0385 62.2917L43.0462 62.2307C42.7881 62.2155 42.5908 62.4365 42.6287 62.688Z" fill="#999999"/>
<path d="M44.4835 64.2828C44.8332 64.0431 44.9001 63.5303 44.6331 63.1375C44.366 62.7446 43.8661 62.6205 43.5164 62.8602C43.1668 63.0999 43.0998 63.6127 43.3669 64.0055C43.6339 64.3983 44.1339 64.5225 44.4835 64.2828Z" fill="#333333"/>
<path d="M45.8318 63.2217C45.8546 63.4503 45.6952 63.6409 45.4751 63.6409C45.255 63.6409 45.0576 63.4503 45.0349 63.2217C45.0121 62.993 45.1715 62.8025 45.3916 62.8025C45.6117 62.8025 45.8091 62.993 45.8318 63.2217Z" fill="#333333"/>
<path d="M46.9402 63.2217C46.963 63.4503 46.8036 63.6409 46.5835 63.6409C46.3634 63.6409 46.166 63.4503 46.1433 63.2217C46.1205 62.993 46.2799 62.8025 46.5 62.8025C46.7201 62.8025 46.9175 62.993 46.9402 63.2217Z" fill="#333333"/>
<path d="M44.3425 64.0755C44.5918 63.9046 44.6406 63.5406 44.4515 63.2625C44.2625 62.9844 43.9071 62.8974 43.6579 63.0683C43.4086 63.2392 43.3598 63.6031 43.5489 63.8813C43.7379 64.1594 44.0933 64.2463 44.3425 64.0755Z" fill="#666666"/>
<path d="M55.9644 70.7291C55.8733 70.569 55.7519 70.5005 55.6684 70.47C55.6077 70.4471 55.5621 70.4471 55.5621 70.4471C56.0251 69.6697 55.5166 68.3892 55.5166 68.3892C55.5166 68.3892 55.5166 68.3588 55.5242 68.2978C55.547 68.0691 55.7139 67.3146 55.7139 66.6363C55.7139 66.2247 55.5014 65.8436 55.2737 65.3101C55.0308 64.7309 54.5375 64.1516 54.5375 64.1516L54.3857 65.897C53.2017 66.6591 52.9133 66.8573 52.9133 66.8573L49.4219 68.595L51.2435 66.9564L53.4521 64.3726L54.4312 63.2294L54.5223 63.1227L54.5527 63.0846L54.6969 62.9169C54.6969 62.9169 53.3535 61.8575 52.2074 62.9169C51.0537 63.9763 49.2321 65.5159 49.2321 65.5159C49.2321 65.5159 46.2569 67.3451 45.3006 68.0158C44.5567 68.5417 42.6668 68.1911 41.8547 68.0158C41.8092 68.0082 41.7712 67.9929 41.7333 67.9853L41.4297 64.4565C41.4297 64.4565 41.0881 64.8147 40.7162 65.2186C40.3747 65.5845 40.0104 65.9808 39.8358 66.1866C39.4715 66.621 38.2647 69.6926 38.3026 70.7139C38.3026 70.7291 38.3026 70.7443 38.3026 70.7596L38.5607 74.0903C38.5607 74.0903 40.3747 78.1679 43.8281 78.2669C47.2815 78.366 49.7027 76.7807 51.0461 76.3996C52.5793 76.2091 53.1561 74.86 53.1561 74.86L55.7519 72.8098C55.7519 72.8098 56.0403 72.5202 56.101 71.6132C56.1314 71.1712 56.0631 70.8968 55.9644 70.7291ZM54.1732 71.4608L54.1125 71.4836L54.1732 71.4455V71.4608Z" fill="#B0775C"/>
<path d="M50.9549 70.912C50.8866 70.912 50.8183 70.8739 50.788 70.8129C50.7348 70.7215 50.7728 70.5995 50.8639 70.5538L55.2432 68.214C55.2964 68.1301 55.5468 67.6957 55.4861 66.4915C55.4558 66.3619 55.2053 65.3025 54.5602 64.3879C54.4994 64.304 54.5222 64.1821 54.6057 64.1211C54.6892 64.0601 54.8106 64.083 54.8713 64.1669C55.6076 65.2034 55.858 66.3771 55.8656 66.4305V66.461C55.9415 68.0082 55.5468 68.4578 55.5013 68.5036L55.4785 68.5264L51.0384 70.9044C51.0157 70.9044 50.9853 70.912 50.9549 70.912Z" fill="#965A42"/>
<path d="M54.545 63.0923C54.545 63.0923 53.8468 62.7264 53.5735 62.7569L52.7842 63.5496C52.7842 63.5496 53.0878 64.2508 53.4521 64.388L54.545 63.0923Z" fill="#C6927D"/>
<path d="M52.3974 72.7946C52.3367 72.7946 52.2759 72.7641 52.238 72.7107C52.1773 72.6193 52.2076 72.505 52.2911 72.444L55.4941 70.348C55.5472 70.0965 55.7066 69.2048 55.3423 68.4731C55.2967 68.3816 55.3347 68.2597 55.4258 68.214C55.5168 68.1682 55.6383 68.2063 55.6838 68.2978C56.1772 69.2886 55.8584 70.47 55.8432 70.5157L55.8204 70.5843L52.4961 72.7565C52.4733 72.787 52.4353 72.7946 52.3974 72.7946Z" fill="#965A42"/>
<path d="M46.4391 70.8664C46.3708 70.8664 46.3025 70.8283 46.2722 70.7597C46.2266 70.6682 46.257 70.5463 46.3557 70.5005L47.3499 69.9746C47.441 69.9289 47.5625 69.9594 47.608 70.0585C47.6535 70.1499 47.6232 70.2719 47.5245 70.3176L46.5302 70.8435C46.4999 70.8588 46.4695 70.8664 46.4391 70.8664Z" fill="#965A42"/>
<path d="M47.6838 72.7794C47.6155 72.7794 47.5472 72.7413 47.5168 72.6727C47.4713 72.5812 47.5016 72.4593 47.6003 72.4136L49.0651 71.6514C49.1562 71.6057 49.2777 71.6362 49.3232 71.7352C49.3687 71.8267 49.3384 71.9486 49.2397 71.9944L47.7749 72.7565C47.7445 72.7718 47.7141 72.7794 47.6838 72.7794Z" fill="#965A42"/>
<path d="M49.3611 74.2656C49.2624 74.2656 49.179 74.1894 49.1714 74.0979C49.1562 73.9912 49.2321 73.8998 49.3383 73.8845L50.2719 73.7778C50.3782 73.7626 50.4692 73.8388 50.4844 73.9455C50.4996 74.0522 50.4237 74.1437 50.3174 74.1589L49.3839 74.2656C49.3763 74.2656 49.3687 74.2656 49.3611 74.2656Z" fill="#965A42"/>
<path d="M49.5662 75.7059C49.4675 75.7059 49.384 75.6297 49.3765 75.523C49.3689 75.4163 49.4524 75.3249 49.5586 75.3172L51.0387 75.2334C51.1449 75.2258 51.236 75.3096 51.2436 75.4163C51.2512 75.523 51.1677 75.6145 51.0614 75.6221L49.5814 75.7059C49.5738 75.7059 49.5738 75.7059 49.5662 75.7059Z" fill="#965A42"/>
<path d="M41.4219 64.4565L41.7255 67.9854C41.0425 67.6424 40.792 65.958 40.7085 65.2187C41.0804 64.8224 41.4219 64.4565 41.4219 64.4565Z" fill="#965A42"/>
<path d="M41.847 68.0234C41.8091 68.0234 41.7711 68.0158 41.7256 67.9929C41.7635 68.0005 41.8015 68.0082 41.847 68.0234Z" fill="#965A42"/>
</g>
</g>
<defs>
<linearGradient id="paint0_linear_2060_3619" x1="44.1637" y1="13.9298" x2="93.7746" y2="65.1616" gradientUnits="userSpaceOnUse">
<stop stop-color="#FF7A93"/>
<stop offset="1" stop-color="#FF0062"/>
</linearGradient>
<clipPath id="clip0_2060_3619">
<rect width="100" height="105" fill="white"/>
</clipPath>
<clipPath id="clip1_2060_3619">
<rect width="73" height="122" fill="white" transform="translate(14)"/>
</clipPath>
</defs>
</svg>
