<svg width="29" height="28" viewBox="0 0 29 28" fill="none" xmlns="http://www.w3.org/2000/svg">
<path d="M28.45 0.936026C25.458 7.36828 27.2637 16.6812 19.7462 22.4C16.3857 24.9436 10.0007 25.8351 6.04315 22.3149C0.912756 17.7497 1.98252 9.42015 7.70212 4.95465C15.0964 -0.82352 25.2104 -0.0932695 28.0164 0.191215C28.101 0.197628 28.1828 0.224507 28.2546 0.269534C28.3265 0.31456 28.3864 0.376385 28.429 0.449681C28.4717 0.522976 28.4959 0.605544 28.4995 0.690269C28.5032 0.774994 28.4862 0.859336 28.45 0.936026Z" fill="#75DB9C"/>
<path d="M1.61957 28C1.42871 27.9999 1.24103 27.951 1.07435 27.858C0.907679 27.765 0.767531 27.631 0.66721 27.4687C0.566889 27.3063 0.509722 27.121 0.501135 26.9304C0.492547 26.7397 0.532823 26.55 0.61814 26.3793C4.74934 18.1181 12.9087 11.7071 13.2548 11.4361C13.4898 11.2614 13.7839 11.1856 14.074 11.2251C14.3642 11.2645 14.6274 11.4159 14.8072 11.647C14.987 11.8781 15.0692 12.1704 15.0362 12.4613C15.0031 12.7522 14.8575 13.0186 14.6304 13.2034C14.5508 13.2662 6.52257 19.5808 2.62325 27.3806C2.53012 27.567 2.38685 27.7237 2.20954 27.8331C2.03224 27.9425 1.82793 28.0003 1.61957 28Z" fill="#67B886"/>
</svg>
