<svg width="21" height="28" viewBox="0 0 21 28" fill="none" xmlns="http://www.w3.org/2000/svg">
<path d="M9.55501 0.0687895C11.4721 1.41454 13.1061 3.17052 14.3533 5.22536C15.6005 7.2802 16.4337 9.58905 16.8 12.0055C16.8 12.0055 17.6243 11.5575 18.1776 9.46561C18.1975 9.38776 18.2382 9.31777 18.2948 9.26419C18.3513 9.21061 18.4213 9.17575 18.4961 9.16388C18.5709 9.152 18.6474 9.16362 18.7161 9.19731C18.7849 9.23101 18.8429 9.28532 18.8832 9.35362C20.2444 11.6507 20.9775 14.3074 21 17.0247C20.9863 18.4807 20.7038 19.9195 20.1687 21.259C19.6336 22.5985 18.8563 23.8125 17.8813 24.8316C16.9063 25.8507 15.7526 26.655 14.4861 27.1985C13.2196 27.7421 11.8651 28.0142 10.5 27.9994C9.1349 28.0142 7.78043 27.7421 6.51395 27.1985C5.24746 26.655 4.09376 25.8507 3.11874 24.8316C2.14371 23.8125 1.36645 22.5985 0.831334 21.259C0.296222 19.9195 0.0137408 18.4807 2.14471e-05 17.0247C-0.00239582 15.5138 0.199533 14.0104 0.599571 12.5609C0.623674 12.4677 0.674879 12.3851 0.745819 12.3249C0.816759 12.2647 0.903776 12.23 0.994349 12.2259C1.08492 12.2218 1.17438 12.2484 1.24986 12.302C1.32533 12.3556 1.38293 12.4333 1.41437 12.524C1.54835 12.9957 1.77145 13.4332 2.06995 13.8096C2.36845 14.1859 2.73601 14.4931 3.15002 14.7122C3.0424 13.5535 3.1747 12.3837 3.53757 11.2856C3.90044 10.1874 4.48503 9.18764 5.25002 8.35694C7.70491 5.65469 8.78221 3.96481 8.91136 0.447306C8.91147 0.367288 8.93167 0.28876 8.96987 0.219889C9.00807 0.151017 9.06286 0.0943159 9.12856 0.0556788C9.19426 0.0170418 9.26847 -0.00211994 9.34346 0.000186093C9.41846 0.00249213 9.49151 0.0261795 9.55501 0.0687895Z" fill="#FF5B5B"/>
<path d="M9.80069 13.4771C10.9294 14.2434 11.863 15.2955 12.5183 16.5397C13.1735 17.7839 13.5302 19.1816 13.5565 20.6084C13.5582 20.6567 13.5732 20.7034 13.5998 20.7426C13.6264 20.7818 13.6633 20.8117 13.7058 20.8285C13.7483 20.8452 13.7945 20.8482 13.8386 20.8369C13.8827 20.8257 13.9227 20.8007 13.9534 20.7652C14.2542 20.3945 14.4632 19.9495 14.5614 19.4706C14.5713 19.4259 14.5931 19.3853 14.6243 19.3537C14.6554 19.322 14.6946 19.3008 14.7369 19.2924C14.7792 19.2841 14.8229 19.2891 14.8626 19.3069C14.9022 19.3246 14.9362 19.3542 14.9604 19.3922C15.4825 20.2487 15.757 21.2499 15.75 22.2714C15.7342 23.799 15.1501 25.2574 14.1262 26.3258C13.1022 27.3941 11.7223 27.9849 10.29 27.9682C9.64942 28.0032 9.00875 27.9009 8.40592 27.6672C7.8031 27.4335 7.25036 27.0731 6.78042 26.6075C6.31048 26.1419 5.9329 25.5805 5.67002 24.9565C5.40715 24.3325 5.26432 23.6586 5.25 22.9747C5.24075 21.9778 5.44386 20.9918 5.84401 20.0909C6.24417 19.19 6.83091 18.3978 7.55999 17.774C8.13713 17.2788 8.60634 16.6556 8.93506 15.9476C9.26378 15.2397 9.44415 14.4639 9.46364 13.6742C9.46439 13.6326 9.47541 13.5919 9.49561 13.5563C9.5158 13.5208 9.54444 13.4915 9.57864 13.4715C9.61284 13.4515 9.65138 13.4415 9.69037 13.4424C9.72936 13.4434 9.76741 13.4554 9.80069 13.4771Z" fill="#F4BF00"/>
</svg>
