<svg width="17" height="16" viewBox="0 0 17 16" fill="none" xmlns="http://www.w3.org/2000/svg">
<path d="M7.51772 0.502743C7.79562 -0.167581 8.70437 -0.167581 8.98228 0.502743L10.6634 4.55821C10.779 4.8372 11.0305 5.02834 11.3199 5.05719L15.5265 5.4765C16.2219 5.5458 16.5026 6.44989 15.9791 6.93345L12.8115 9.85918C12.5936 10.0605 12.4975 10.3697 12.5607 10.6665L13.4794 14.9812C13.6312 15.6944 12.8961 16.2531 12.2946 15.8816L8.65577 13.6343C8.40547 13.4798 8.09452 13.4798 7.84423 13.6343L4.20542 15.8816C3.60396 16.2531 2.86877 15.6944 3.02062 14.9812L3.9393 10.6665C4.0025 10.3697 3.90644 10.0605 3.68853 9.85918L0.520926 6.93345C-0.00263712 6.44989 0.278176 5.5458 0.97348 5.4765L5.18008 5.05719C5.46947 5.02834 5.72097 4.8372 5.83662 4.55821L7.51772 0.502743Z" fill="#F4BF00"/>
</svg>
