<svg width="100" height="105" viewBox="0 0 100 105" fill="none" xmlns="http://www.w3.org/2000/svg">
<g clip-path="url(#clip0_2060_3183)">
<path d="M99.7356 64.8626C99.3157 75.9155 94.4912 83.7056 87.0631 88.9113C86.4753 89.3203 85.878 89.7108 85.2715 90.0919C85.1128 90.1849 84.9542 90.2871 84.7862 90.3801C84.7489 90.3987 84.7209 90.4266 84.6836 90.4452C84.5996 90.4916 84.5249 90.5474 84.4409 90.5846C84.3103 90.659 84.189 90.7333 84.0583 90.8077C83.6198 91.0494 83.1812 91.2911 82.7332 91.5142C74.456 95.7811 63.9299 97.6031 52.9558 97.6403C51.3694 97.6496 49.7737 97.6217 48.178 97.5566C45.6584 97.4543 43.1389 97.2684 40.6193 96.9988C36.2614 96.534 32.0342 95.3813 28.0682 93.6709C25.9593 92.7598 23.9249 91.6908 21.9746 90.4823C21.9186 90.4452 21.8533 90.408 21.788 90.3708C21.6387 90.2778 21.4987 90.1849 21.3587 90.0919C21.3401 90.0826 21.3214 90.0733 21.3027 90.0547C5.24291 79.7269 -4.49937 59.7962 2.07947 40.8231C6.31605 28.6082 14.4533 22.5286 27.0324 25.7171C28.5161 26.089 30.1212 26.1726 31.8009 25.996C34.8524 25.6892 38.1278 24.5644 41.2632 22.9562C41.6645 22.7517 42.0471 22.5472 42.439 22.3241C43.2882 21.85 44.1187 21.348 44.9212 20.8181C45.1919 20.6415 45.4532 20.4649 45.7144 20.2883C46.153 19.9908 46.5916 19.6747 47.0302 19.368C47.4501 19.0612 47.8794 18.7544 48.3087 18.4476C48.8312 18.0758 49.3538 17.6947 49.867 17.3135C50.2496 17.0347 50.6322 16.7651 51.0148 16.4862C53.2544 14.878 55.5127 13.3163 57.9016 12.0427C58.5175 11.7173 59.1334 11.4106 59.7586 11.1224C60.7758 10.6576 61.8209 10.2579 62.8941 9.93251C63.37 9.78378 63.8552 9.65363 64.3405 9.54208C66.9814 8.92855 69.6316 8.85418 72.2164 9.22602C82.0707 10.6483 91.0478 18.5778 95.275 27.9482C100.613 39.8006 100.221 51.9039 99.7356 64.8626Z" fill="url(#paint0_linear_2060_3183)"/>
<path d="M51.6634 1.01933C51.6634 1.01933 49.3245 -0.76467 46.9336 0.00619458C43.4735 1.12211 38.6174 7.72218 37.6744 12.4061C36.7314 17.0827 36.1003 30.3415 35.781 32.0521C35.4691 33.7701 34.437 37.0444 34.437 37.0444L64.3976 36.8095C64.3976 36.8095 63.6848 29.0935 63.6848 27.3388C63.6848 25.5842 63.3284 14.8802 62.972 12.9567C62.6156 11.0259 57.366 1.41578 55.9478 0.953257C54.5444 0.476055 51.6634 1.01933 51.6634 1.01933Z" fill="#4C332D"/>
<path d="M60.6181 31.5457L60.3805 36.8096L39.7979 37.162C39.7979 37.162 40.7408 25.1145 40.8597 20.203C40.9785 15.2914 42.0403 12.1346 42.0403 12.1346L53.1929 6.17322C53.1929 6.17322 56.3486 8.50784 58.1232 12.8394C58.4425 13.6102 58.7172 14.3224 58.9548 14.9831C59.4375 16.3193 59.7716 17.4352 60.0092 18.3896C60.3062 19.6083 60.4324 20.5627 60.4918 21.3703C60.6181 23.1249 60.6181 31.5457 60.6181 31.5457Z" fill="#543B30"/>
<path d="M61.2121 16.4732C61.123 16.4732 61.0413 16.4072 61.0265 16.3117C60.4919 12.7657 55.1606 5.04975 54.3661 4.42572C53.7052 3.90447 51.9603 4.27155 51.344 4.45509C51.2475 4.48445 51.1361 4.43306 51.1064 4.33028C51.0767 4.23484 51.1287 4.12472 51.2327 4.09535C51.3292 4.06598 53.6458 3.37588 54.6037 4.12472C55.0715 4.49179 56.6011 6.59148 58.1455 9.12432C59.2296 10.9083 61.0933 14.1973 61.3977 16.2456C61.4126 16.3484 61.3383 16.4439 61.2418 16.4585C61.227 16.4732 61.2195 16.4732 61.2121 16.4732Z" fill="#543B30"/>
<path d="M38.8552 30.327C38.7512 30.327 38.6621 30.2462 38.6621 30.1361C38.6621 28.2273 39.1893 16.5615 39.1967 16.4441C39.2041 16.3413 39.2858 16.2605 39.3972 16.2679C39.5012 16.2752 39.5828 16.3633 39.5754 16.4661C39.568 16.5835 39.0408 28.2346 39.0408 30.1434C39.0482 30.2462 38.9591 30.327 38.8552 30.327Z" fill="#543B30"/>
<path d="M37.2586 33.1388C37.2438 33.1388 37.2289 33.1388 37.2141 33.1315C37.1101 33.1095 37.0507 33.0067 37.073 32.9113C37.422 31.3695 37.6002 24.9457 37.6002 24.8796C37.6002 24.7768 37.6893 24.696 37.7858 24.696C37.7858 24.696 37.7858 24.696 37.7933 24.696C37.8972 24.696 37.9789 24.7841 37.9789 24.8869C37.9715 25.1512 37.7933 31.4136 37.4443 32.992C37.422 33.0801 37.3477 33.1388 37.2586 33.1388Z" fill="#543B30"/>
<path d="M79.7308 57.6596C79.7308 57.6596 77.9562 59.7666 73.8723 60.1117C69.7885 60.4641 68.6301 60.4641 68.6301 60.4641C68.6301 60.4641 68.1995 77.4451 68.1995 80.9544C68.1995 84.4636 67.6426 84.6839 67.6426 84.6839C67.6426 84.6839 59.5566 86.4091 54.2327 86.9377C48.9088 87.4663 36.7316 84.3829 36.7316 84.3829C36.7316 84.3829 34.9347 84.9775 36.6276 72.3868C36.5459 71.6893 35.1723 69.5529 34.8604 67.3871C34.4669 64.6487 35.1277 61.8589 35.1277 61.8589C35.1277 61.8589 31.9349 61.8589 29.6257 61.6828C27.3239 61.5139 22 59.7593 22 59.7593C22 59.7593 24.131 46.427 25.1928 43.0939C26.2546 39.7608 28.9203 37.3014 30.5167 36.9564C32.1131 36.604 35.4841 36.604 37.2587 36.604C38.0978 36.604 39.5234 36.2516 40.8377 35.8111C42.3079 35.3118 43.637 34.6951 43.8226 34.3281C44.179 33.6233 45.1666 27.3316 45.1666 27.3316L54.8267 26.9645L55.8885 33.6306C55.8885 33.6306 56.6013 34.5116 59.9724 35.0329C60.4327 35.1063 60.8337 35.1723 61.2049 35.2311C63.5662 35.6349 64.4349 35.8404 67.5015 35.3853C71.0507 34.8567 74.5183 37.6538 75.5875 38.711C76.6419 39.7608 79.7308 57.6596 79.7308 57.6596Z" fill="#FCB552"/>
<path d="M39.1299 36.3323C39.1299 36.3323 42.2262 41.8678 47.7282 43.0939C53.2303 44.3199 56.9577 42.3891 59.0813 40.6344C61.2049 38.8798 62.5118 35.4293 62.5118 35.4293L61.1975 35.2237L40.8302 35.8037L39.1299 36.3323Z" fill="#E0B789"/>
<path d="M35.3728 61.9396L34.8901 61.8002C34.905 61.7561 36.3009 57.0795 36.3009 55.7287C36.3009 54.3631 35.254 48.8129 35.2391 48.7542L35.7366 48.6588C35.7812 48.8863 36.8058 54.3118 36.8058 55.7213C36.7984 57.1529 35.4322 61.7414 35.3728 61.9396Z" fill="#E0B789"/>
<path d="M23.7151 60.2294C23.7151 60.2294 22.3785 76.814 23.0023 80.3453C23.3512 82.3128 24.6581 86.3066 26.5515 86.7765C28.4449 87.2463 33.5163 86.7398 35.1721 85.8074C36.828 84.875 56.7052 65.2216 56.7052 65.2216L52.3689 60.2587C52.3689 60.2587 45.7159 65.1409 42.1667 67.2479C38.6174 69.3549 36.2562 70.5222 36.2562 70.5222C36.2562 70.5222 35.1053 68.2023 34.9568 67.3654C34.7118 65.9998 35.135 61.8078 35.135 61.8078C35.135 61.8078 29.6924 61.8665 28.9276 61.6316C28.1479 61.3967 23.7151 60.2294 23.7151 60.2294Z" fill="#FED0B9"/>
<path d="M28.92 75.9183C28.868 75.9183 28.8086 75.9036 28.7641 75.8669C28.6527 75.7862 28.6304 75.6246 28.7195 75.5145C28.8012 75.4044 30.8283 72.8642 36.1447 70.2947C41.3869 67.7618 52.1163 60.1339 52.2202 60.0532C52.3316 59.9724 52.4875 59.9944 52.5692 60.1119C52.6509 60.222 52.6286 60.3835 52.5098 60.457C52.3984 60.5304 41.6393 68.1876 36.36 70.7425C31.1624 73.2533 29.1353 75.7935 29.1131 75.8155C29.0685 75.8816 28.9943 75.9183 28.92 75.9183Z" fill="#E29F4D"/>
<path d="M56.1262 65.662C56.1262 65.662 59.616 65.0013 60.4254 64.2011C61.2347 63.4008 67.2788 55.8317 67.2788 55.8317L70.635 50.9202C70.635 50.9202 70.635 49.283 70.1895 49.6354C69.744 49.9878 66.7887 52.8216 66.7887 52.8216C66.7887 52.8216 70.0113 48.7471 70.1895 48.3947C70.3677 48.0423 69.8331 46.8896 69.8331 46.8896L67.8654 48.659C67.8654 48.659 68.8529 46.9777 69.1202 46.5372C69.3875 46.0968 68.5856 44.856 68.5856 44.856L62.6752 50.3475C62.6752 50.3475 66.165 45.6563 66.2541 45.2158C66.3432 44.7753 65.8086 43.975 65.8086 43.975L59.6309 50.0832L54.255 54.6864C54.255 54.6864 51.9235 57.9607 51.8344 58.761L51.2998 60.8827L56.1262 65.662Z" fill="#FED0B9"/>
<path d="M36.3378 87.0476C36.3378 87.0476 34.2439 92.5024 33.7538 94.6094C33.2712 96.7165 32.7886 106.591 32.7886 106.591L71.251 107.002C71.251 107.002 70.9466 95.8722 70.2932 93.8753C69.4467 91.3057 67.7092 86.4456 67.7092 86.4456L52.0272 88.5233L36.3378 87.0476Z" fill="#767092"/>
<path d="M51.7079 100.475L51.6113 99.9763C52.2796 99.8515 54.0913 99.3229 54.4403 98.3831C54.819 97.37 54.5591 91.8712 54.4255 89.8302L54.9378 89.8008C54.9601 90.1018 55.4204 97.2379 54.923 98.5593C54.3958 99.9616 51.8192 100.453 51.7079 100.475Z" fill="#70838E"/>
<path d="M69.7808 96.1219C69.6768 96.1146 67.2859 95.8723 66.2687 95.0134C65.2663 94.1691 63.2615 89.6173 63.1724 89.4264L63.6401 89.2282C64.2045 90.513 65.838 93.9929 66.5954 94.6316C67.4938 95.3878 69.803 95.6227 69.8253 95.6227L69.7808 96.1219Z" fill="#70838E"/>
<path d="M35.1351 97.3185L35.0386 96.8193C36.4122 96.555 38.7066 96.0484 39.0482 95.8135C39.3675 95.4978 40.7337 92.0252 41.8697 88.9124L42.3524 89.0813C42.345 89.096 41.7361 90.7698 41.0827 92.4657C39.7239 95.953 39.4788 96.1365 39.36 96.2173C38.8477 96.5844 35.7514 97.1937 35.1351 97.3185Z" fill="#70838E"/>
<path d="M36.8614 92.9641L36.7026 93.4457L39.9714 94.4988L40.1301 94.0172L36.8614 92.9641Z" fill="#70838E"/>
<path d="M36.6495 84.4855C36.6495 84.4855 36.2188 85.7042 36.3376 87.0477C36.3376 87.0477 48.0917 89.5806 53.1779 89.4044C58.2568 89.2282 67.709 86.4457 67.709 86.4457L67.5457 84.6838C67.5457 84.6838 56.2594 86.945 52.9923 86.945C49.7252 86.9523 36.6495 84.4855 36.6495 84.4855Z" fill="#3A2624"/>
<path d="M68.6391 92.3539L65.6289 93.29L65.7826 93.7732L68.7928 92.8371L68.6391 92.3539Z" fill="#70838E"/>
<path d="M72.9813 62.2115L70.0929 56.4997C70.0929 56.4997 69.8256 53.5778 69.4246 52.7849C69.0236 51.9847 63.9151 47.7412 63.9151 47.7412L60.2916 44.4229C60.2916 44.4229 59.757 45.6195 59.8907 46.2803C60.0243 46.941 60.8337 48.2698 60.8337 48.2698L56.2597 46.1408L49.681 44.6137C49.681 44.6137 49.2801 45.2084 49.8815 45.6783C50.483 46.1408 52.8367 47.4035 52.8367 47.4035L47.7356 45.6783C47.7356 45.6783 47.4015 46.0747 47.6688 46.5446C47.9361 47.0071 48.6118 47.543 48.6118 47.543L47.4461 47.3448C47.4461 47.3448 47.2679 48.2772 47.8693 48.6736C48.2257 48.9086 51.4928 50.465 51.4928 50.465L54.5148 52.5206L52.5694 51.7204L48.3371 50.1272C48.3371 50.1272 48.1366 51.1257 48.6712 51.5221C49.2058 51.9186 51.8937 53.3796 51.8937 53.3796C51.8937 53.3796 55.5172 56.1694 56.0593 56.8301C56.5939 57.4908 61.5019 61.1469 62.5712 61.3452C63.6478 61.5434 65.2591 61.5434 65.2591 61.5434L66.6698 66.866C66.6773 66.866 71.4145 65.3463 72.9813 62.2115Z" fill="#FED0B9"/>
<path d="M59.5863 50.3253C59.5418 50.3253 59.5046 50.318 59.4601 50.2959L55.651 48.4532L52.0869 47.396C51.9384 47.352 51.8493 47.1905 51.8938 47.0436C51.9384 46.8968 52.1017 46.8087 52.2502 46.8527L55.8366 47.9173C55.8515 47.9246 55.8663 47.9246 55.8812 47.932L59.7125 49.782C59.8536 49.8481 59.913 50.0243 59.8462 50.1638C59.7942 50.2666 59.6903 50.3253 59.5863 50.3253Z" fill="#E29F4D"/>
<path d="M57.5515 51.6247C57.5069 51.6247 57.4698 51.6174 57.4327 51.5954L51.9381 49.0405L48.5076 47.7998C48.3591 47.7484 48.2849 47.5795 48.3368 47.4327C48.3888 47.2859 48.5596 47.2125 48.7081 47.2638L52.146 48.5119C52.1534 48.5119 52.1608 48.5193 52.1682 48.5193L57.6703 51.0815C57.8114 51.1475 57.8782 51.3164 57.804 51.4559C57.7594 51.566 57.6554 51.6247 57.5515 51.6247Z" fill="#E29F4D"/>
<path d="M56.475 53.6804C56.4304 53.6804 56.3933 53.6731 56.3562 53.651L53.5569 52.3516C53.4158 52.2855 53.349 52.1166 53.4232 51.9772C53.4901 51.8377 53.6608 51.7716 53.8019 51.845L56.5938 53.1445C56.7349 53.2105 56.8017 53.3794 56.7274 53.5189C56.6829 53.6217 56.5789 53.6804 56.475 53.6804Z" fill="#E29F4D"/>
<path d="M63.655 50.2445C63.603 50.2445 63.551 50.2298 63.5065 50.2005L60.6849 48.5046C60.5512 48.4238 60.5067 48.2476 60.5884 48.1155C60.67 47.9833 60.8482 47.9393 60.9819 48.02L63.8035 49.7159C63.9371 49.7967 63.9817 49.9729 63.9 50.105C63.8406 50.2005 63.7515 50.2445 63.655 50.2445Z" fill="#E29F4D"/>
<path d="M65.2589 61.8296C65.1921 61.8296 63.6106 61.8296 62.5191 61.624C61.3682 61.4111 56.423 57.733 55.8364 57.0062C55.4132 56.4849 52.7549 54.3926 51.7377 53.6144C51.4704 53.4675 49.0275 52.1387 48.5003 51.7423C47.8246 51.243 48.0474 50.1124 48.0548 50.0684C48.0697 49.9876 48.1216 49.9142 48.1959 49.8775C48.2701 49.8335 48.3592 49.8335 48.4335 49.8628L52.1758 51.2724L51.3442 50.7071C50.9284 50.5089 48.0622 49.1433 47.7058 48.9011C46.9485 48.4019 47.1489 47.33 47.1564 47.2859C47.1861 47.1318 47.3346 47.0363 47.4905 47.0583L47.7281 47.1024C47.6093 46.9702 47.4979 46.8234 47.4162 46.6839C47.1267 46.1847 47.342 45.7002 47.5128 45.5019C47.587 45.4138 47.7132 45.3771 47.8246 45.4138L50.1264 46.192C49.9482 46.0819 49.8072 45.9865 49.7032 45.9057C49.0572 45.4065 49.2503 44.7457 49.4359 44.4594C49.5027 44.364 49.6215 44.3126 49.7403 44.342L56.319 45.869C56.3413 45.8764 56.3562 45.8837 56.3784 45.891L60.143 47.6383C59.9202 47.2052 59.6752 46.6913 59.601 46.3315C59.4525 45.5974 59.9648 44.4301 60.0242 44.2979C60.0613 44.2172 60.1356 44.1511 60.2321 44.1364C60.3212 44.1144 60.4177 44.1437 60.4846 44.2025L64.108 47.5209C64.6575 47.9834 69.2685 51.8304 69.6844 52.6526C70.1002 53.4749 70.36 56.1692 70.3823 56.4702C70.3972 56.6244 70.2784 56.7639 70.1224 56.7786C69.9665 56.7933 69.8254 56.6758 69.8106 56.5216C69.7363 55.7214 69.4765 53.5189 69.1646 52.9022C68.8899 52.359 65.6822 49.5765 63.7294 47.9467L63.7219 47.9393L60.4029 44.8999C60.2544 45.3037 60.0985 45.8764 60.1653 46.2141C60.2692 46.7206 60.8558 47.7558 61.0712 48.1155C61.138 48.2257 61.1231 48.3578 61.0414 48.4532C60.9598 48.5487 60.8187 48.5707 60.7073 48.5193L56.1705 46.4049L49.8517 44.9366C49.822 45.0761 49.8369 45.267 50.067 45.4432C50.6462 45.891 52.9629 47.1318 52.9851 47.1464C53.1188 47.2199 53.1708 47.374 53.1114 47.5062C53.052 47.6383 52.896 47.7117 52.7549 47.6604L47.884 46.0085C47.8543 46.1039 47.8469 46.2434 47.9286 46.3829C48.1291 46.728 48.6265 47.1611 48.7973 47.3006C48.9013 47.3814 48.931 47.5209 48.879 47.6383C48.827 47.7558 48.7008 47.8219 48.5671 47.7998L47.7132 47.653C47.7132 47.8953 47.7727 48.2403 48.0325 48.4092C48.285 48.5707 50.3195 49.5618 51.6263 50.1859C51.6412 50.1932 51.656 50.2005 51.6634 50.2079L54.6855 52.2635C54.8043 52.3443 54.8414 52.5058 54.7746 52.6306C54.7078 52.7554 54.5518 52.8141 54.4108 52.7554L52.4654 51.9625L48.5894 50.5015C48.5894 50.7805 48.634 51.1182 48.8493 51.2724C49.3616 51.6542 52.0124 53.0931 52.0421 53.1078C52.057 53.1151 52.0644 53.1225 52.0793 53.1298C52.2278 53.2473 55.7399 55.949 56.2893 56.6318C56.772 57.2264 61.6503 60.8605 62.6304 61.044C63.6625 61.2349 65.2515 61.2349 65.2664 61.2349C65.4223 61.2349 65.556 61.3597 65.556 61.5212C65.5485 61.7048 65.4223 61.8296 65.2589 61.8296Z" fill="#E29F4D"/>
<path d="M78.832 58.357C78.832 58.357 84.2227 80.4257 83.9925 82.0629C83.7549 83.7001 81.6758 87.5984 80.02 88.2959C78.3642 89.0007 74.3398 87.5911 72.4538 85.4914C70.5603 83.3844 64.6499 60.8164 64.6499 60.8164L68.9045 56.3748L70.9762 60.2952C70.9762 60.2952 74.5848 60.0015 75.7654 59.7666C76.9386 59.5316 78.832 58.357 78.832 58.357Z" fill="#FED0B9"/>
<path d="M78.7284 73.9504C78.6393 73.9504 78.5428 73.899 78.5057 73.8109L69.7662 56.4995C69.7068 56.3747 69.7514 56.2279 69.8776 56.1618C70.0038 56.1031 70.1523 56.1471 70.2192 56.2719L78.9512 73.5907C79.0106 73.7155 78.966 73.8623 78.8398 73.9284C78.8027 73.9431 78.7656 73.9504 78.7284 73.9504Z" fill="#E29F4D"/>
<path d="M61.1977 35.2311C61.0492 35.6863 58.9405 41.6917 50.9213 41.6917C43.1545 41.6917 41.0829 36.5232 40.8379 35.8111C42.3081 35.3118 43.6372 34.6951 43.8228 34.3281C44.1792 33.6233 45.1668 27.3316 45.1668 27.3316L54.8269 26.9645L55.8887 33.6306C55.8887 33.6306 56.6016 34.5116 59.9726 35.0329C60.4255 35.0989 60.8339 35.165 61.1977 35.2311Z" fill="#FED0B9"/>
<path d="M44.9888 28.4768C44.9888 28.4768 47.298 30.8481 48.0999 31.1565C50.8918 32.221 55.5177 31.2739 55.5177 31.2739L54.8271 26.9571L45.167 27.3242L44.9888 28.4768Z" fill="#EB9F83"/>
<path d="M43.9492 33.7995L44.1497 32.8157C44.1497 32.8157 50.8101 35.143 55.7553 32.7496L56.0226 33.7995C56.0226 33.7995 51.4487 37.3455 43.9492 33.7995Z" fill="#3A2624"/>
<path d="M51.1588 5.93081C51.1588 5.93081 48.6862 5.02045 47.6244 5.7179C46.5626 6.42269 42.8797 9.90259 42.0555 12.1271C41.2239 14.3516 42.1743 22.185 42.5307 23.3523C42.8871 24.5197 46.5997 28.8365 47.4313 29.3064C48.2629 29.7762 52.3394 29.5413 53.0522 29.3064C53.765 29.0714 56.9652 24.2847 57.2029 22.9999C57.4405 21.7152 58.6211 14.3442 58.1458 12.8245C57.6706 11.3048 54.2402 6.27586 53.5348 5.92346C52.8146 5.58575 51.1588 5.93081 51.1588 5.93081Z" fill="#FED0B9"/>
<path d="M52.1017 20.2175C51.9904 20.2175 51.8864 20.1441 51.8567 20.034C51.8344 19.9532 51.3147 18.1252 51.2553 17.1194C51.1959 16.1136 51.478 13.8377 51.4929 13.7422C51.5077 13.6028 51.634 13.5073 51.775 13.522C51.9161 13.5367 52.0126 13.6615 51.9978 13.801C51.9978 13.823 51.7082 16.1283 51.7602 17.09C51.8196 18.0444 52.3394 19.8871 52.3394 19.9018C52.3765 20.034 52.3022 20.1735 52.1611 20.2102C52.1463 20.2175 52.124 20.2175 52.1017 20.2175Z" fill="#AD6842"/>
<path d="M50.2679 21.1499C49.1096 21.1499 48.3448 20.4084 48.3151 20.3717C48.2185 20.2763 48.2185 20.1148 48.3151 20.0193C48.4116 19.9239 48.575 19.9239 48.6715 20.0193C48.6789 20.0267 49.3249 20.6507 50.2679 20.6507C51.1366 20.6507 51.545 20.2249 51.5599 20.2102C51.6564 20.1074 51.8123 20.1001 51.9163 20.1955C52.0202 20.291 52.0277 20.4451 51.9386 20.5479C51.9163 20.57 51.3817 21.1499 50.2679 21.1499Z" fill="#AD6842"/>
<path d="M44.4616 15.717C44.5804 15.6216 44.6843 15.5629 44.8105 15.4968C44.9294 15.438 45.0556 15.3867 45.1818 15.3426C45.4343 15.2545 45.709 15.2031 45.9837 15.1958C46.2585 15.1811 46.5406 15.2251 46.8079 15.3132C47.0752 15.394 47.3128 15.5482 47.5207 15.7244C47.6247 15.8125 47.6395 15.974 47.5504 16.0768C47.4762 16.1575 47.3648 16.1795 47.2757 16.1502L47.246 16.1355C47.0381 16.0621 46.845 15.974 46.6371 15.9446C46.4367 15.9079 46.2288 15.8859 46.0134 15.8932C45.8055 15.9006 45.5902 15.9299 45.3749 15.974C45.2709 15.996 45.1595 16.018 45.0556 16.0547C44.9516 16.0768 44.8328 16.1208 44.7437 16.1428L44.7066 16.1502C44.5729 16.1869 44.4319 16.1061 44.3947 15.974C44.3502 15.8785 44.3873 15.7758 44.4616 15.717Z" fill="#1E2833"/>
<path d="M52.8445 15.5776C52.9707 15.4968 53.0821 15.4454 53.2083 15.394C53.3346 15.3426 53.4608 15.3059 53.587 15.2692C53.8469 15.2031 54.1142 15.1738 54.3815 15.1738C54.6488 15.1738 54.931 15.2105 55.1983 15.2839C55.4656 15.3573 55.7255 15.4821 55.9482 15.651C56.0596 15.7391 56.0819 15.8932 55.9928 16.0034C55.9334 16.0841 55.8369 16.1135 55.7403 16.0988L55.7106 16.0915C55.4879 16.0474 55.2725 16.0034 55.0572 15.9887C54.8345 15.974 54.6191 15.9593 54.3964 15.9667C54.1736 15.974 53.9434 15.9887 53.7133 16.0034C53.4831 16.018 53.2455 16.0401 53.0153 16.0474H52.993C52.8519 16.0474 52.7331 15.9373 52.7331 15.7978C52.7257 15.7097 52.7777 15.6289 52.8445 15.5776Z" fill="#1E2833"/>
<path d="M43.0581 12.8905C43.0581 12.8905 43.7115 12.1857 44.1793 12.0683C44.6545 11.9508 48.085 12.5381 48.085 12.5381C48.085 12.5381 47.6691 13.2429 47.142 13.3017C46.6073 13.3604 44.7733 12.8612 44.1273 12.8318C43.8749 12.8244 43.0581 12.8905 43.0581 12.8905Z" fill="#844B38"/>
<path d="M56.9951 12.8905C56.9951 12.8905 56.3417 12.1857 55.8739 12.0683C55.3987 11.9508 51.9683 12.5381 51.9683 12.5381C51.9683 12.5381 52.3841 13.2429 52.9113 13.3017C53.4459 13.3604 55.2799 12.8612 55.9259 12.8318C56.1709 12.8244 56.9951 12.8905 56.9951 12.8905Z" fill="#844B38"/>
<path d="M46.3101 22.1924C46.3101 22.1924 48.5599 22.5374 50.1563 22.486C52.0274 22.4273 53.6461 22.2511 53.6461 22.2511C53.6461 22.2511 52.2279 24.4756 51.7527 24.5931C51.2775 24.7105 49.6217 24.7693 48.9163 24.5931C48.2035 24.4095 46.3101 22.1924 46.3101 22.1924Z" fill="white"/>
<path d="M46.0725 22.9852C45.9388 22.9852 45.8349 22.8825 45.82 22.7576C45.7681 22.1042 46.4957 21.6491 46.5329 21.627C46.6517 21.5536 46.8076 21.5903 46.8818 21.7078C46.9561 21.8253 46.919 21.9794 46.8002 22.0529C46.6591 22.141 46.3027 22.4273 46.325 22.7209C46.3324 22.8604 46.2284 22.9779 46.0948 22.9926C46.0873 22.9852 46.0799 22.9852 46.0725 22.9852Z" fill="#AD6842"/>
<path d="M53.9955 23.0662C53.8767 23.0662 53.7727 22.9781 53.7505 22.8606C53.7059 22.6183 53.3495 22.2513 53.1267 22.0751C53.0154 21.987 53.0005 21.8328 53.0896 21.7227C53.1787 21.6125 53.3346 21.5979 53.446 21.6859C53.5203 21.7447 54.1514 22.2659 54.2479 22.7725C54.2702 22.9047 54.1811 23.0368 54.0475 23.0662C54.0252 23.0588 54.0103 23.0662 53.9955 23.0662Z" fill="#AD6842"/>
<path d="M60.0248 18.3894C59.8317 19.1823 59.4753 20.5405 59.1858 20.6874C58.7699 20.8929 57.4111 20.4524 57.4111 20.4524L58.0497 15.4088L58.9704 14.9903C59.4531 16.3118 59.7872 17.4277 60.0248 18.3894Z" fill="#EB9F83"/>
<path d="M42.0928 20.7608L40.7637 20.8049C40.7637 20.8049 41.0681 16.0695 41.224 15.7539C41.38 15.4455 41.38 14.8949 41.38 14.8949L41.6918 15.1298L42.0928 20.7608Z" fill="#EB9F83"/>
<path d="M50.3943 22.7356C50.3127 22.7356 50.231 22.7356 50.1493 22.7356C48.8054 22.6989 46.3105 22.442 46.2882 22.442C46.1471 22.4273 46.0506 22.3025 46.0655 22.1703C46.0803 22.0309 46.2065 21.9354 46.3402 21.9501C46.3625 21.9501 48.8425 22.2071 50.1642 22.2438C51.471 22.2805 53.4164 21.9721 53.4387 21.9721C53.5723 21.9501 53.706 22.0455 53.7283 22.1777C53.7505 22.3172 53.654 22.442 53.5204 22.464C53.4312 22.464 51.7235 22.7356 50.3943 22.7356Z" fill="#FED0B9"/>
<path d="M57.9902 19.8137C57.9754 19.8137 57.9605 19.8137 57.9457 19.8137C57.8046 19.7917 57.7155 19.6595 57.7378 19.5274C57.7378 19.5053 57.8195 19.0355 57.9828 18.4041C58.1536 17.7213 59.0372 16.6935 59.0743 16.6495C59.1634 16.5467 59.3268 16.532 59.4307 16.6201C59.5347 16.7082 59.5495 16.8697 59.4604 16.9725C59.2302 17.2441 58.5917 18.059 58.4729 18.5289C58.3169 19.1383 58.2353 19.6081 58.2353 19.6155C58.2204 19.7256 58.109 19.8137 57.9902 19.8137Z" fill="#AD6842"/>
<path d="M59.1855 18.7125C59.141 18.7125 59.1039 18.7052 59.0593 18.6831C59.0519 18.6758 58.6435 18.4556 58.3836 18.6611C58.2722 18.7492 58.1163 18.7272 58.0272 18.6244C57.9381 18.5143 57.9604 18.3601 58.0643 18.272C58.5915 17.8536 59.2746 18.2353 59.3043 18.25C59.4231 18.3161 59.4677 18.4702 59.4009 18.5877C59.3563 18.6611 59.2746 18.7125 59.1855 18.7125Z" fill="#AD6842"/>
</g>
<defs>
<linearGradient id="paint0_linear_2060_3183" x1="44.1637" y1="13.9297" x2="93.7746" y2="65.1616" gradientUnits="userSpaceOnUse">
<stop stop-color="#FF7A93"/>
<stop offset="1" stop-color="#FF0062"/>
</linearGradient>
<clipPath id="clip0_2060_3183">
<rect width="100" height="105" fill="white"/>
</clipPath>
</defs>
</svg>
