<svg width="123" height="105" viewBox="0 0 123 105" fill="none" xmlns="http://www.w3.org/2000/svg">
<g clip-path="url(#clip0_2060_3241)">
<path d="M13.4378 77.1303C15.712 80.9218 18.6337 83.9441 22.2504 86.3226C22.3214 86.3698 22.3846 86.4168 22.4557 86.4561C29.9575 91.3074 40.3731 93.4347 53.9395 93.8979C54.3896 93.9136 54.8476 93.9293 55.3056 93.9371C56.877 93.9764 58.488 93.9999 60.1384 93.9999C63.0285 93.9999 65.7923 93.9214 68.4298 93.7644C81.8856 92.9873 92.1355 90.3575 99.3293 87.1626C105.457 84.4465 109.366 81.3065 111.135 78.559C111.19 78.4726 111.237 78.3941 111.293 78.3078C111.332 78.2371 111.38 78.1665 111.419 78.0958C112.193 76.832 112.777 75.521 113.196 74.1865C113.196 74.1787 113.204 74.1787 113.204 74.1708C116.599 63.3692 108.868 50.6444 95.1204 40.1175C92.7909 38.3356 90.2955 36.6164 87.6502 34.9837C85.2259 33.4843 82.6832 32.0634 80.0378 30.7211C79.6351 30.517 79.2324 30.3129 78.8218 30.1166C78.3795 29.9047 77.9452 29.6849 77.4951 29.4808C77.3451 29.4101 77.195 29.3395 77.045 29.2689C76.8871 29.1982 76.7291 29.1197 76.5791 29.049C76.5633 29.0412 76.5396 29.0333 76.5238 29.0255C71.9043 26.8982 70.3724 23.0988 68.0192 19.5349C65.9345 16.387 63.2101 13.4119 57.1376 11.9361C55.1161 11.4415 53.1341 11.1589 51.2073 11.049C50.5124 11.0098 49.8254 10.9941 49.1384 11.0019C48.9409 11.0019 48.7435 11.0098 48.5461 11.0176C47.3064 11.0569 46.0982 11.1668 44.9058 11.3395C44.7242 11.363 44.5425 11.3944 44.3609 11.4258C40.46 12.0695 36.8196 13.4197 33.4715 15.2331C33.3293 15.3116 33.1793 15.3901 33.0372 15.4764C32.2712 15.9082 31.521 16.3556 30.7787 16.8266C30.6287 16.9287 30.4787 17.0229 30.3286 17.1249C29.9654 17.3683 29.6021 17.6116 29.2468 17.8628C29.002 18.0355 28.7572 18.2082 28.5203 18.3809C28.4018 18.4673 28.2913 18.5536 28.1728 18.6321C18.9575 25.5244 12.8297 35.439 11.1003 41.091C7.91012 51.4608 8.09963 68.2205 13.4378 77.1303Z" fill="#DEE5F9"/>
<g clip-path="url(#clip1_2060_3241)">
<path d="M99.1944 41.3072C98.4827 43.1059 97.5599 45.1795 97.5599 45.1795L89.7551 40.1211L88.9965 36.5002C88.9965 36.5002 86.4784 34.1438 86.0639 31.9524C85.6416 29.761 84.8048 22.9353 84.8048 22.9353L81.0119 11.1849L79.9405 7.85454C79.9405 7.85454 79.6042 4.82267 79.9405 4.23358C80.2768 3.64449 86.1499 -0.31422 93.7826 1.95575C93.7826 1.95575 99.1553 15.2693 99.3195 16.8716C99.4837 18.4739 98.5609 32.7143 98.5609 32.7143C98.5609 32.7143 99.906 38.024 99.9843 38.778C100.031 39.0686 99.6558 40.129 99.1944 41.3072Z" fill="#4C332D"/>
<path d="M99.3272 40.2861L99.1942 41.2993C98.4826 43.098 97.5598 45.1716 97.5598 45.1716L89.755 40.1133L88.9964 36.4923C88.9964 36.4923 86.4782 34.1359 86.0637 31.9445C86.009 31.6539 85.9464 31.2847 85.876 30.8527C85.4772 28.4256 85.0001 26.352 85.0001 24.8989C85.0001 23.1317 84.0461 14.0675 84.0461 14.0675L83.2484 13.4862L83.4048 18.6074L81.0039 11.177L83.3735 9.27618C83.3735 9.27618 86.7285 9.77888 87.229 10.1166C87.7295 10.4544 91.9291 22.2519 92.0933 23.2652C92.2653 24.2784 91.757 29.8395 91.757 31.1905L99.3272 40.2861Z" fill="#35231F"/>
<path d="M84.8516 13.9104L87.9876 19.4086L86.9553 25.975C86.8693 26.5327 86.6112 27.0433 86.2123 27.4438L85.4381 28.2214L83.8584 20.6104L84.1399 14.4209L84.8516 13.9104Z" fill="black"/>
<path d="M99.3272 16.8637C99.3272 16.8637 97.6067 24.9932 97.2313 26.0064C96.8559 27.0197 98.5764 32.7064 98.5764 32.7064L99.3272 16.8637Z" fill="#35231F"/>
<path d="M80.3549 4.3985L79.9482 4.25712C80.7928 1.83006 88.2457 0.0706302 88.5585 -6.10352e-05L88.6524 0.424086C88.6367 0.431941 86.7286 0.871797 84.75 1.59442C82.1849 2.53697 80.6677 3.50308 80.3549 4.3985Z" fill="#39302B"/>
<path d="M55.5408 73.8644L53.4997 80.0067L50.9659 87.6334L48.0019 97.0747C44.2246 96.3206 41.7925 93.9564 41.7925 93.9564L44.0135 84.3424L45.1318 78.1137L46.211 72.0735C50.8564 70.9032 54.2504 72.9061 55.5408 73.8644Z" fill="#FED0B9"/>
<path d="M50.9659 87.6335L47.8299 97.0747C44.0526 96.3206 41.7925 93.9564 41.7925 93.9564L44.0135 84.3345C44.9989 85.01 48.0645 87.0993 50.9659 87.6335Z" fill="#FCB552"/>
<path d="M47.2042 96.1871C47.2042 96.1871 48.0097 101.693 48.0097 103.437H23C23 103.437 23.1329 100.083 24.7361 99.2739C26.3393 98.4649 31.8215 97.3967 35.1686 95.7787C38.5079 94.1685 40.5178 92.9589 40.5178 92.9589C40.5178 92.9589 44.5297 96.1871 47.2042 96.1871Z" fill="#624C3F"/>
<path d="M23 104.914V103.437H48.0019V104.78L23 104.914Z" fill="#39302B"/>
<path d="M47.5408 99.1247C47.5408 99.1247 43.2004 100.978 42.7234 101.214C42.2463 101.45 41.5347 103.421 41.5347 103.421L47.9943 103.437C48.0022 103.437 47.9005 100.853 47.5408 99.1247Z" fill="#1A1A1A"/>
<path d="M30.187 97.6323C30.187 97.6323 31.2115 98.9755 32.8147 98.7084C34.4179 98.4413 41.816 96.0221 42.6215 94.4119C42.9656 93.7207 43.2393 93.1552 43.4426 92.7232C43.6773 92.2284 43.4896 91.6393 43.0125 91.3722L41.1825 90.3511L40.5178 92.9589C40.5178 92.9589 35.9585 95.598 34.41 96.1949C32.8616 96.7997 30.187 97.6323 30.187 97.6323Z" fill="#39302B"/>
<path d="M59.3414 62.4124L55.5407 73.8644C54.2503 72.9061 50.8563 70.8954 46.2109 72.0735L48.1426 61.2735L59.3414 62.4124Z" fill="#767092"/>
<path d="M56.1114 74.3357L54.0155 80.3208C53.8669 80.2109 53.6948 80.1088 53.4993 80.0145C51.3956 78.9463 46.7738 78.3101 45.1315 78.1137C44.7561 78.0666 44.5371 78.0509 44.5371 78.0509L45.3739 72.317C45.6554 72.2228 45.937 72.1442 46.2107 72.0735C50.856 70.9032 54.2501 72.9061 55.5405 73.8644C55.9158 74.1471 56.1114 74.3357 56.1114 74.3357Z" fill="#767092"/>
<path d="M54.1174 80.6351L53.8984 80.478C53.7655 80.3837 53.6012 80.2816 53.4057 80.1873C51.3646 79.1505 46.9148 78.53 45.1004 78.3101C44.725 78.263 44.5139 78.2473 44.5061 78.2473L44.3027 78.2237L45.1943 72.16L45.3116 72.1207C45.5931 72.0264 45.8746 71.9479 46.1562 71.8772C50.9032 70.6754 54.3833 72.7569 55.6502 73.7073C56.0334 73.9901 56.2367 74.1864 56.2445 74.1943L56.3384 74.2807L54.1174 80.6351ZM44.7641 77.8702C44.8658 77.8781 44.9909 77.8938 45.1552 77.9174C46.993 78.1373 51.4975 78.7735 53.5934 79.8339C53.7107 79.8889 53.8202 79.9517 53.914 80.0145L55.8848 74.3985C55.791 74.32 55.6424 74.1864 55.4234 74.0294C54.1956 73.1104 50.8406 71.1075 46.2578 72.2699C46.0232 72.3328 45.7886 72.3956 45.554 72.4663L44.7641 77.8702Z" fill="#59546E"/>
<path d="M88.543 39.4063L77.4693 44.8417C77.4693 44.8417 74.9511 43.4515 74.0674 41.425L77.6882 40.5374L76.3979 36.453L81.2778 28.0251L82.3023 27.6873C82.3023 27.6873 82.576 28.4649 82.881 29.2739C83.5614 31.1041 84.711 34.1595 84.883 34.5993C85.1489 35.2356 88.543 39.4063 88.543 39.4063Z" fill="#FED0B9"/>
<path d="M82.6308 34.2223C82.2554 35.3613 77.6961 40.5453 77.6961 40.5453L76.4058 36.4609L81.2857 28.0329L82.3102 27.6952C82.3102 27.6952 82.5839 28.4728 82.8889 29.2818C82.9124 30.4443 82.928 33.3191 82.6308 34.2223Z" fill="#EB9F83"/>
<path d="M78.7988 9.2212C78.7988 9.2212 79.4714 7.81523 80.0892 7.70527C80.707 7.5953 84.062 9.44898 84.062 9.44898C84.062 9.44898 85.6808 11.5854 85.8529 12.4259C86.0171 13.2663 84.234 14.7273 84.234 14.7273L78.7988 9.2212Z" fill="#767092"/>
<path d="M87.409 19.4714C87.409 20.2333 86.1499 25.708 85.6494 26.7997C85.1489 27.8915 83.0765 29.7216 83.0765 29.7216L82.7167 27.0511L79.526 22.9196C79.526 22.9196 78.7674 23.0845 78.3529 23.006C77.9384 22.9196 75.9051 20.469 75.8347 20.3983L74.1533 20.9874L63.1656 21.0738C63.1656 21.0738 61.8205 19.5578 61.6563 19.2201C61.4921 18.8823 63.3377 14.3345 64.0024 13.2349C64.675 12.1431 76.085 8.76563 76.8436 8.68709C77.6022 8.60069 81.966 9.77887 81.966 9.77887C82.0442 9.92025 87.409 18.7252 87.409 19.4714Z" fill="#4C332D"/>
<path d="M87.4092 19.4714C87.4092 20.2333 86.1501 25.7079 85.6496 26.7997C85.1491 27.8915 83.0766 29.7216 83.0766 29.7216L81.927 27.5302L79.5262 22.9274C79.5262 22.9274 78.7676 23.0924 78.3531 23.0138C77.9386 22.9274 75.9053 20.4768 75.8349 20.4061L74.9121 18.6545C74.9121 18.6545 82.2086 16.196 82.2633 15.4656C82.3181 14.7351 81.9583 9.79456 81.9583 9.79456C82.0443 9.92023 87.4092 18.7252 87.4092 19.4714Z" fill="#35231F"/>
<path d="M96.8091 79.2212C96.8091 79.2212 93.7904 80.2345 92.281 80.3994C92.0777 80.423 91.8196 80.423 91.5146 80.4151C89.5908 80.3523 86.0716 79.7239 86.0716 79.7239L81.4185 70.6598L78.4311 64.8474L77.1485 62.3418L75.1621 58.493L75.6392 58.2102L94.7132 46.8682L97.5598 45.1795C97.5598 45.1795 98.9832 52.932 99.3194 54.4479C99.6635 55.9638 96.8091 79.2212 96.8091 79.2212Z" fill="#FCB552"/>
<path d="M91.7727 53.2697L77.1407 62.3496L75.1621 58.493L75.6392 58.2102L91.7727 53.2697Z" fill="#E29F4D"/>
<path d="M96.8092 79.2212C96.8092 79.2212 93.7905 80.2345 92.2811 80.3994C92.0778 80.423 85.3679 81.3341 85.0707 81.3263C85.4461 79.8732 80.9493 71.241 78.6892 70.754L78.4312 64.8473L84.9847 66.9131C84.9847 66.9131 89.5127 65.0594 89.849 63.7084C90.1853 62.3574 91.4444 50.5599 91.4444 50.5599L94.7211 46.8604L97.5678 45.1716C97.5678 45.1716 98.9911 52.9241 99.3274 54.44C99.6636 55.9638 96.8092 79.2212 96.8092 79.2212Z" fill="#E29F4D"/>
<path d="M63.1655 21.0738L65.5977 27.648L64.6749 31.1905C64.6749 31.1905 65.5977 32.0309 67.4433 31.6931C67.4433 31.6931 69.3906 36.5159 71.3535 38.1889C73.9577 38.2439 74.3488 37.914 75.2325 37.4427C76.3821 36.83 80.4487 32.7064 81.0352 31.1041C81.6218 29.5017 81.2855 28.0251 81.2855 28.0251L79.5259 22.9274L74.9118 18.631L63.1655 21.0738Z" fill="#FED0B9"/>
<path d="M76.6321 28.6613C76.593 28.6613 76.5617 28.6534 76.5304 28.622C76.46 28.567 76.4444 28.4649 76.507 28.3864L77.9303 26.572C77.985 26.5013 78.0945 26.4856 78.1649 26.5484C78.2353 26.6034 78.2509 26.7055 78.1884 26.784L76.765 28.5984C76.7259 28.6377 76.679 28.6613 76.6321 28.6613Z" fill="#EB9F83"/>
<path d="M77.3048 29.3289C77.2735 29.3289 77.2344 29.3211 77.2109 29.2975C77.1406 29.2425 77.1171 29.1404 77.1718 29.0697L78.4309 27.3024C78.4857 27.2317 78.5873 27.2082 78.6577 27.2632C78.7281 27.3181 78.7516 27.4203 78.6968 27.4909L77.4377 29.2582C77.4065 29.3054 77.3517 29.3289 77.3048 29.3289Z" fill="#EB9F83"/>
<path d="M68.7259 34.2223C68.6555 34.2223 68.593 34.1752 68.5695 34.1045C68.546 34.0181 68.593 33.9238 68.679 33.9003C68.765 33.8767 70.6967 33.2797 71.0877 33.1698C71.51 33.052 72.2451 33.1619 72.2764 33.1619C72.3702 33.1776 72.425 33.264 72.4172 33.3504C72.4015 33.4447 72.3155 33.4997 72.2295 33.4918C72.0339 33.4604 71.4709 33.4054 71.1815 33.484C70.7983 33.5939 68.7963 34.2066 68.7806 34.2144C68.7572 34.2144 68.7415 34.2223 68.7259 34.2223Z" fill="#D97D5F"/>
<path d="M68.7884 30.6799C68.7884 30.6799 68.2878 31.4654 67.4432 31.6932C66.6064 31.921 65.0345 31.5832 64.6748 31.1905C64.6748 31.1905 66.8254 31.4104 68.7884 30.6799Z" fill="#EB9F83"/>
<path d="M67.4431 31.8581C67.3805 31.8581 67.318 31.8188 67.2945 31.756C67.2632 31.6696 67.3023 31.5753 67.3805 31.5361C68.0765 31.2454 68.5536 30.8134 68.6318 30.6171C68.6709 30.5307 68.4363 30.1694 68.1626 29.8945C68.1 29.8316 68.1 29.7217 68.1626 29.6588C68.2251 29.596 68.3346 29.596 68.3972 29.6588C68.5614 29.8238 69.0775 30.3814 68.9368 30.7349C68.796 31.0805 68.186 31.5518 67.5056 31.8345C67.4822 31.8581 67.4665 31.8581 67.4431 31.8581Z" fill="#D97D5F"/>
<path d="M74.0677 41.425C74.0677 41.425 71.7763 41.1265 68.4839 43.2551C65.6685 45.0852 51.1616 54.4479 51.1616 54.4479L55.1891 58.9956L78.6817 44.8417L74.0677 41.425Z" fill="#FCB552"/>
<path d="M74.0679 41.425C74.0679 41.425 75.1549 44.504 76.7503 45.0067L78.1736 44.504L74.0679 41.425Z" fill="#E29F4D"/>
<path d="M61.9069 34.9843C61.9069 34.9843 61.8052 35.5812 61.1561 37.7805C60.6869 39.3593 59.9283 41.7549 58.724 45.3523C55.8304 53.9452 54.7747 61.2736 52.0923 63.7556C48.9172 66.6932 43.8652 63.2922 44.3735 59.6712C44.569 58.2888 45.1868 56.2152 46.4303 53.6468C47.2045 52.0444 53.3513 41.1501 56.589 35.4398C57.7699 33.3505 58.5598 31.9603 58.5598 31.9603L61.2422 33.0992L61.9069 34.9843Z" fill="#FCB552"/>
<path d="M61.9068 34.9843C61.9068 34.9843 61.8051 35.5812 61.156 37.7805C61.1247 37.7726 61.1013 37.7726 61.07 37.7648C58.8959 37.3563 57.1598 35.9504 56.5811 35.432C57.7619 33.3427 58.5518 31.9524 58.5518 31.9524L61.2342 33.0913L61.9068 34.9843Z" fill="#FED0B9"/>
<path d="M79.3149 23.1395L79.8937 22.0399C80.183 21.49 80.8165 21.1994 81.4186 21.3408L82.1381 21.5136C82.7794 21.6628 83.2252 22.2519 83.1939 22.9117L83.0453 26.6426C83.0218 27.3181 82.5057 27.8758 81.8409 27.9544L81.2779 28.025L79.3149 23.1395Z" fill="#FED0B9"/>
<path d="M81.004 26.6662C80.918 26.6662 80.8476 26.6034 80.8398 26.517C80.6678 24.7654 81.1917 23.0924 81.2074 23.0217C81.2387 22.9353 81.3247 22.8882 81.4107 22.9117C81.4967 22.9432 81.5437 23.0296 81.5202 23.116C81.5124 23.1317 81.004 24.789 81.1605 26.4777C81.1683 26.572 81.1057 26.6505 81.0119 26.6584C81.0197 26.6662 81.0119 26.6662 81.004 26.6662Z" fill="#EB9F83"/>
<path d="M80.9804 25.8493C80.9179 25.8493 80.8631 25.8179 80.8319 25.7629C80.7849 25.6844 80.8162 25.5823 80.9022 25.5352L82.0518 24.9147C82.13 24.8675 82.2317 24.8989 82.2786 24.9853C82.3256 25.0639 82.2943 25.166 82.2082 25.2131L81.0586 25.8336C81.0352 25.8415 81.0039 25.8493 80.9804 25.8493Z" fill="#EB9F83"/>
<path d="M77.7663 25.2367C78.0634 25.1974 78.3684 25.1738 78.6265 25.0403C79.2209 24.7261 79.2131 23.2966 79.3069 22.7154L74.9196 18.631L63.1733 21.0738L65.6055 27.648L65.3396 28.6534C66.7864 28.2843 68.2801 28.135 69.7738 28.1115C70.9938 28.0957 72.6595 28.5513 73.7857 27.9936C74.2862 27.7501 74.5599 27.3731 74.8884 26.9333C75.1933 26.5248 75.5531 26.2106 75.9989 25.9279C76.3977 25.6765 76.82 25.4802 77.2579 25.3309C77.4065 25.2838 77.5864 25.2602 77.7663 25.2367Z" fill="#EB9F83"/>
<path d="M98.827 94.2235C98.827 95.9122 96.1524 101.772 94.471 103.453C93.0243 104.906 81.2467 105.487 75.8428 104.537C74.9903 104.387 71.6041 103.916 71.6041 103.916C71.6041 103.916 68.3117 103.963 67.0526 102.534C66.2706 101.638 58.0435 82.5908 58.0435 82.5908L67.9441 60.0089L75.1624 58.493L86.0719 79.7318L93.2276 79.394L96.8094 79.2291C96.8094 79.2212 98.827 92.5426 98.827 94.2235Z" fill="#767092"/>
<path d="M63.5184 77.3022L63.1445 77.4418L69.353 94.2126L69.7269 94.073L63.5184 77.3022Z" fill="#59546E"/>
<path d="M96.8094 79.2212L94.08 79.3469L86.0641 79.7239C86.0641 79.7239 88.0348 83.5176 90.1776 84.7822C90.1776 84.7822 88.9185 82.6301 88.6683 81.7504L94.1035 81.012C94.4945 81.6404 94.9637 82.4966 94.9637 83.0071C94.9637 83.8947 94.3303 94.0035 94.3303 94.0035C94.3303 94.0035 87.5343 100.703 85.7747 101.332C84.195 101.897 77.2739 104.222 75.8428 104.521C81.2389 105.471 93.0164 104.898 94.4711 103.437C96.1524 101.748 98.827 95.8886 98.827 94.2077C98.827 92.5269 96.8094 79.2212 96.8094 79.2212Z" fill="#59546E"/>
<path d="M95.6675 88.6467C94.0174 88.2226 92.4924 86.8244 91.249 84.6094C90.3183 82.9521 89.8804 81.4519 89.8647 81.3891L90.2479 81.2791C90.2636 81.342 92.0232 87.2879 95.7692 88.2618L95.6675 88.6467Z" fill="#59546E"/>
<path d="M95.3628 89.2829C92.3441 89.2829 89.2628 84.0282 89.1221 83.7926L89.4662 83.5884C89.4975 83.6434 92.8681 89.4008 95.7616 88.8431L95.8398 89.2358C95.6834 89.2672 95.527 89.2829 95.3628 89.2829Z" fill="#59546E"/>
<path d="M70.9631 64.054C70.9631 64.054 71.7998 66.9209 71.2993 68.2641C70.7988 69.6151 65.7625 79.8967 65.7625 80.7371C65.7625 81.5776 67.4439 88.1519 67.4439 88.1519L63.5806 78.208L64.5034 76.857L64.0811 76.4328L70.9631 64.054Z" fill="#59546E"/>
<path d="M64.3779 79.8574C64.3779 79.8574 60.1002 84.1539 60.6007 88.3247L58.5908 83.9025L63.5803 78.2158L64.3779 79.8574Z" fill="#59546E"/>
<path d="M71.6354 17.7905L67.1621 18.3796L64.0261 19.7856C64.0261 19.7856 61.8129 21.5843 61.3124 21.922C60.8119 22.2598 60.4756 22.5975 60.3896 23.438C60.3035 24.2784 60.2253 25.2916 60.2253 25.2916L58.5439 31.9523L61.8989 34.9842C61.8989 34.9842 63.5803 34.6465 64.1668 34.0574C64.7534 33.4683 66.0125 29.2504 66.0125 29.2504C66.0125 29.2504 66.4348 28.4099 66.599 27.5616L70.04 26.6348C70.04 26.6348 73.3949 27.0589 74.1535 26.2106L74.654 25.1974L70.2042 24.4355H68.7809L70.7125 23.76C70.7125 23.76 72.5269 24.1527 73.6765 23.87C74.3099 23.7207 74.4429 23.2573 74.654 22.6604L70.04 22.0713C70.04 22.0713 73.567 21.9063 74.2317 21.5686C74.9043 21.2308 74.9903 20.2176 74.9903 20.2176L69.1719 19.7149C69.1719 19.7149 70.5327 19.1258 71.0019 19.0001C71.8074 18.8038 71.6354 17.7905 71.6354 17.7905Z" fill="#FED0B9"/>
<path d="M64.6437 21.5765C64.5734 21.5765 64.5108 21.5372 64.4873 21.4665C64.4561 21.3801 64.503 21.2858 64.5812 21.2544L69.1092 19.5657C69.1952 19.5343 69.2891 19.5814 69.3204 19.6599C69.3516 19.7463 69.3047 19.8406 69.2265 19.872L64.6985 21.5608C64.6828 21.5765 64.6672 21.5765 64.6437 21.5765Z" fill="#EB9F83"/>
<path d="M65.7621 23.1552C65.6839 23.1552 65.6135 23.1003 65.5979 23.0217C65.5822 22.9353 65.637 22.8411 65.723 22.8253L70.0008 21.9299C70.0868 21.9142 70.1807 21.9692 70.1963 22.0556C70.2119 22.142 70.1572 22.2362 70.0712 22.252L65.7934 23.1474C65.7856 23.1474 65.7777 23.1552 65.7621 23.1552Z" fill="#EB9F83"/>
<path d="M65.7621 24.9461C65.676 24.9461 65.6056 24.8832 65.5978 24.7968C65.59 24.7026 65.6526 24.624 65.7464 24.6162L68.7651 24.2784C68.8589 24.2706 68.9372 24.3334 68.945 24.4277C68.9528 24.5219 68.8902 24.6005 68.7964 24.6083L65.7777 24.9461C65.7777 24.9461 65.7699 24.9461 65.7621 24.9461Z" fill="#EB9F83"/>
<path d="M74.1456 25.2995L73.8485 25.9593C73.8485 25.9593 72.8553 25.8886 72.5503 25.7237C72.2453 25.5587 72.5815 25.0246 72.5815 25.0246L74.1456 25.2995Z" fill="#F9DED2"/>
<path d="M72.48 22.5504C72.48 22.5504 72.3784 23.0767 72.6443 23.2023C72.918 23.328 73.8408 23.3045 73.8408 23.3045C73.8408 23.3045 74.0754 22.9039 74.0754 22.7546L72.48 22.5504Z" fill="#F9DED2"/>
<path d="M72.7457 20.194C72.7457 20.194 72.6284 20.6967 72.7535 20.8852C72.8786 21.0737 74.2238 20.9716 74.2238 20.9716C74.2238 20.9716 74.474 20.5475 74.5209 20.3433L72.7457 20.194Z" fill="#F9DED2"/>
<path d="M71.0959 18.0419C71.0959 18.0419 71.1272 18.2697 71.0646 18.4503L70.1105 18.6153C70.1105 18.6153 69.9854 18.3482 69.9463 18.1833L71.0959 18.0419Z" fill="#F9DED2"/>
<path d="M61.9068 35.1492C61.8286 35.1492 61.7582 35.0942 61.7426 35.0156C61.7269 34.9292 61.7817 34.835 61.8755 34.8193C61.8912 34.8193 63.51 34.4815 64.0574 33.9396C64.5188 33.4761 65.512 30.3657 65.864 29.2032C65.864 29.1954 65.8718 29.1875 65.8718 29.1797C65.8796 29.1718 66.2863 28.3471 66.4427 27.5381C66.4583 27.4752 66.4974 27.4281 66.56 27.4124L70.001 26.4856C70.0244 26.4777 70.0401 26.4777 70.0635 26.4777C70.9629 26.5877 73.4185 26.7448 74.0207 26.1243L74.4117 25.3309L70.1965 24.6162H68.781C68.7028 24.6162 68.6324 24.5612 68.6167 24.4748C68.6011 24.3884 68.648 24.3177 68.7262 24.2941L70.6579 23.6186C70.6892 23.6108 70.7204 23.6029 70.7517 23.6108C70.7674 23.6186 72.6052 24.0349 73.7157 23.7286C74.1536 23.6108 74.2787 23.2809 74.4352 22.8175L70.0244 22.2519C69.9384 22.2441 69.8758 22.1655 69.8837 22.0791C69.8837 21.9927 69.954 21.9221 70.0401 21.9221C71.0098 21.8749 73.6453 21.6943 74.1693 21.4351C74.5994 21.223 74.7558 20.6653 74.8105 20.3826L69.172 19.8956C69.0938 19.8877 69.039 19.8327 69.0234 19.7542C69.0078 19.6756 69.0547 19.605 69.1173 19.5735C69.172 19.55 70.4937 18.9766 70.9707 18.8509C71.4477 18.7252 71.5025 18.2383 71.4947 17.9791L67.2169 18.5446L64.1278 19.927C63.9088 20.1076 61.9068 21.7335 61.4219 22.0556C60.9136 22.3933 60.6477 22.6997 60.5695 23.4537C60.4835 24.2863 60.4053 25.2917 60.4053 25.3074C60.3975 25.4016 60.3193 25.4645 60.2254 25.4566C60.1316 25.4488 60.069 25.3702 60.0768 25.276C60.0768 25.2681 60.1629 24.2549 60.2411 23.4223C60.3271 22.5504 60.6712 22.1655 61.2343 21.7807C61.7269 21.4508 63.9167 19.6756 63.9323 19.6521C63.9401 19.6442 63.9558 19.6364 63.9714 19.6285L67.1074 18.2226C67.123 18.2147 67.1387 18.2147 67.1543 18.2068L71.6276 17.6177C71.7136 17.6099 71.7997 17.6649 71.8153 17.7513C71.8857 18.1519 71.8075 18.9609 71.0645 19.1572C70.8143 19.2201 70.2903 19.4322 69.868 19.605L75.0217 20.0527C75.1155 20.0605 75.1781 20.1391 75.1703 20.2333C75.1703 20.2805 75.0686 21.3408 74.3257 21.7178C73.9503 21.9063 72.7929 22.0399 71.7762 22.1263L74.6932 22.4954C74.7401 22.5033 74.7871 22.5269 74.8105 22.574C74.834 22.6133 74.8418 22.6682 74.8262 22.7154C74.8105 22.7625 74.7949 22.8096 74.7792 22.8646C74.6072 23.3752 74.443 23.8621 73.8252 24.0349C72.7225 24.3413 71.0489 24.0035 70.7439 23.9328L69.782 24.2706H70.2278C70.2356 24.2706 70.2434 24.2706 70.259 24.2706L74.7089 25.0325C74.7636 25.0403 74.8027 25.0717 74.8262 25.1189C74.8496 25.166 74.8496 25.221 74.8262 25.2681L74.3257 26.2813C74.3178 26.2971 74.31 26.3049 74.3022 26.3206C73.5358 27.1768 70.5562 26.8547 70.0792 26.7998L66.7711 27.6952C66.5991 28.4649 66.255 29.1954 66.2002 29.3054C66.0516 29.8002 64.9099 33.5704 64.3155 34.1673C63.6977 34.7879 62.0398 35.1256 61.9694 35.1413C61.9225 35.1492 61.9146 35.1492 61.9068 35.1492Z" fill="#EB9F83"/>
<path d="M62.4464 78.9699L58.1842 87.9241L53.7579 97.0747C50.8643 97.0747 47.4624 94.0428 47.4624 94.0428L49.222 84.8294L51.1067 76.0165L62.4464 78.9699Z" fill="#FED0B9"/>
<path d="M58.1764 87.9241L53.75 97.0746C50.8565 97.0746 47.4546 94.0428 47.4546 94.0428L49.2142 84.8293C50.0119 85.4184 54.8058 87.4763 58.1764 87.9241Z" fill="#FCB552"/>
<path d="M49.033 84.7905L47.272 94.001L47.6637 94.0765L49.4247 84.866L49.033 84.7905Z" fill="#C5C1DB"/>
<path d="M49.2218 84.9943C49.214 84.9943 49.1983 84.9943 49.1905 84.9943C49.1045 84.9786 49.0419 84.8922 49.0576 84.7979L50.2385 78.3022C50.2541 78.2158 50.3401 78.153 50.434 78.1687C50.52 78.1844 50.5826 78.2708 50.5669 78.365L49.386 84.8608C49.3704 84.9393 49.3 84.9943 49.2218 84.9943Z" fill="#EB9F83"/>
<path d="M53.758 97.0747L52.7727 97.3024C51.975 97.491 51.1304 97.2946 50.4891 96.784L48.2368 94.9853L48.6591 94.2234L53.758 97.0747Z" fill="#DCD9E8"/>
<path d="M54.3678 96.1871C54.3678 96.1871 55.1733 101.693 55.1733 103.437H30.1636C30.1636 103.437 30.2965 100.083 31.8997 99.2739C33.5029 98.4649 38.985 97.3967 42.3322 95.7787C45.6715 94.1685 47.6813 92.9589 47.6813 92.9589C47.6813 92.9589 51.6932 96.1871 54.3678 96.1871Z" fill="#624C3F"/>
<path d="M30.1636 104.914V103.437H55.1655V104.78L30.1636 104.914Z" fill="#39302B"/>
<path d="M54.7043 99.1247C54.7043 99.1247 50.364 100.978 49.8869 101.214C49.4099 101.45 48.6982 103.421 48.6982 103.421L55.1579 103.437C55.1657 103.437 55.0641 100.853 54.7043 99.1247Z" fill="#39302B"/>
<path d="M37.3584 97.6323C37.3584 97.6323 38.3829 98.9755 39.9861 98.7084C41.5893 98.4413 48.9874 96.0221 49.7929 94.4119C50.137 93.7207 50.4107 93.1552 50.614 92.7232C50.8486 92.2284 50.661 91.6393 50.1839 91.3722L48.3539 90.3511L47.6892 92.9589C47.6892 92.9589 43.1299 95.598 41.5814 96.1949C40.033 96.7997 37.3584 97.6323 37.3584 97.6323Z" fill="#39302B"/>
<path d="M30.1792 103.437C30.1713 103.295 30.101 99.9416 31.8058 99.0854C32.5018 98.7398 33.8782 98.3471 35.4814 97.8915C37.6399 97.2789 40.3223 96.517 42.2383 95.5901C45.5307 94.0035 47.5484 92.7939 47.5718 92.7782L47.6969 92.6996L47.8142 92.7939C47.8533 92.8253 51.8027 95.9672 54.3678 95.9672V96.3913C51.8731 96.3913 48.3539 93.7522 47.6657 93.2102C47.173 93.5008 45.2726 94.5926 42.426 95.9672C40.4709 96.9097 37.7728 97.6716 35.5987 98.2921C34.019 98.7398 32.6582 99.1247 31.9935 99.4546C30.5311 100.193 30.5936 103.382 30.6015 103.413L30.1792 103.437Z" fill="#39302B"/>
<path d="M55.6975 60.1817L51.1069 76.0244L61.9852 79.8181C61.9852 79.8181 70.6267 65.405 70.963 64.2268C71.2993 63.0486 70.7988 59.3412 70.7988 59.3412L55.6975 60.1817Z" fill="#767092"/>
<path d="M62.0788 80.0538L50.8643 76.1422L55.5409 59.9775L55.6816 59.9696L70.9706 59.1135L70.9941 59.2941C71.0175 59.4434 71.5024 63.0565 71.1583 64.2661C70.822 65.46 62.5167 79.3154 62.157 79.9045L62.0788 80.0538ZM51.3491 75.8987L61.8989 79.5746C64.9019 74.5634 70.517 65.0751 70.7751 64.1718C71.0566 63.19 70.7203 60.3074 70.6265 59.5455L55.8459 60.3702L51.3491 75.8987Z" fill="#59546E"/>
<path d="M51.4981 72.0578L50.0435 79.0641C50.0435 79.0641 58.6303 80.148 60.8044 82.9285L64.4956 76.8648C64.5034 76.8648 60.3977 70.7147 51.4981 72.0578Z" fill="#767092"/>
<path d="M60.8355 83.282L60.6556 83.0542C58.5519 80.368 50.0589 79.2762 49.9729 79.2683L49.7539 79.2447L51.3336 71.885L51.4666 71.8614C56.1197 71.1545 59.4591 72.5212 61.4376 73.7858C63.5883 75.1604 64.6206 76.6842 64.6597 76.747L64.73 76.857L60.8355 83.282ZM50.2388 78.8991C51.5839 79.0877 58.5284 80.148 60.7885 82.5908L64.2686 76.8727C64.0027 76.5114 62.9861 75.2468 61.2187 74.1157C59.3183 72.9061 56.1197 71.6022 51.6699 72.2385L50.2388 78.8991Z" fill="#59546E"/>
<path d="M88.5433 39.4064L62.4935 52.1701H45.1243C45.1243 52.1701 42.481 55.202 42.3558 56.7179C42.2307 58.2338 43.3647 60.6373 43.3647 60.6373L63.0565 62.9309C65.082 63.1665 67.1388 62.9073 69.047 62.169C75.4128 59.7105 90.2325 54.0081 92.3284 53.3011C94.9717 52.4136 98.4518 49.3032 97.1145 44.449C95.2142 37.6391 88.5433 39.4064 88.5433 39.4064Z" fill="#FCB552"/>
<path d="M63.3536 63.2215C63.3458 63.2215 63.338 63.2215 63.338 63.2215L43.2629 60.7865L43.2238 60.708C43.1769 60.6059 42.0742 58.2495 42.1993 56.71C42.3245 55.1627 44.8974 52.1936 45.0069 52.068L45.0538 52.013H62.4543L88.4885 39.2571H88.5041C88.5745 39.2414 90.2325 38.8094 92.1485 39.2257C93.9237 39.6106 96.2542 40.8202 97.2552 44.4255C98.0216 47.206 97.177 49.2482 96.3324 50.4735C95.3939 51.8323 93.9081 52.9555 92.3674 53.4661C92.2814 53.4896 92.1954 53.4504 92.1719 53.364C92.1485 53.2854 92.1876 53.1912 92.2736 53.1676C94.8778 52.2957 98.2719 49.2717 96.958 44.5119C96.1916 41.7392 94.5572 40.0662 92.0859 39.5321C90.3341 39.155 88.7622 39.5163 88.598 39.5556L62.5247 52.3272H45.1946C44.8426 52.7356 42.6216 55.3904 42.5122 56.7336C42.4027 58.0374 43.2786 60.0718 43.4663 60.4959L63.3693 62.9073C63.4553 62.9151 63.5179 62.9937 63.5022 63.0801C63.4944 63.1665 63.4318 63.2215 63.3536 63.2215Z" fill="#E29F4D"/>
<path d="M66.5989 53.4268C66.5754 53.4268 66.5441 53.419 66.5207 53.4033C65.0504 52.5785 62.11 52.3822 62.0865 52.3822L60.5693 52.2879L62.0709 52.068C62.2273 52.0444 65.9107 51.5182 68.2959 52.3822C68.3741 52.4136 68.4211 52.5 68.3898 52.5864C68.3585 52.6649 68.2725 52.712 68.1864 52.6806C66.81 52.1858 64.941 52.1701 63.6349 52.2408C64.6125 52.39 65.8403 52.6571 66.6693 53.1283C66.7475 53.1676 66.7709 53.2697 66.7318 53.3404C66.7084 53.3954 66.6536 53.4268 66.5989 53.4268Z" fill="#E29F4D"/>
</g>
</g>
<defs>
<clipPath id="clip0_2060_3241">
<rect width="123" height="105" fill="white"/>
</clipPath>
<clipPath id="clip1_2060_3241">
<rect width="77" height="105" fill="white" transform="translate(23 -6.10352e-05)"/>
</clipPath>
</defs>
</svg>
