<svg width="100" height="105" viewBox="0 0 100 105" fill="none" xmlns="http://www.w3.org/2000/svg">
<g clip-path="url(#clip0_2060_3907)">
<path d="M99.7356 63.8626C99.3157 74.9155 94.4912 82.7056 87.0631 87.9113C86.4753 88.3203 85.878 88.7108 85.2715 89.0919C85.1128 89.1849 84.9542 89.2871 84.7862 89.3801C84.7489 89.3987 84.7209 89.4266 84.6836 89.4452C84.5996 89.4916 84.5249 89.5474 84.4409 89.5846C84.3103 89.659 84.189 89.7333 84.0583 89.8077C83.6198 90.0494 83.1812 90.2911 82.7332 90.5142C74.456 94.7811 63.9299 96.6031 52.9558 96.6403C51.3694 96.6496 49.7737 96.6217 48.178 96.5566C45.6584 96.4543 43.1389 96.2684 40.6193 95.9988C36.2614 95.534 32.0342 94.3813 28.0682 92.6709C25.9593 91.7598 23.9249 90.6908 21.9746 89.4823C21.9186 89.4452 21.8533 89.408 21.788 89.3708C21.6387 89.2778 21.4987 89.1849 21.3587 89.0919C21.3401 89.0826 21.3214 89.0733 21.3027 89.0547C5.24291 78.7269 -4.49937 58.7962 2.07947 39.8231C6.31605 27.6082 14.4533 21.5286 27.0324 24.7171C28.5161 25.089 30.1212 25.1726 31.8009 24.996C34.8524 24.6892 38.1278 23.5644 41.2632 21.9562C41.6645 21.7517 42.0471 21.5472 42.439 21.3241C43.2882 20.85 44.1187 20.348 44.9212 19.8181C45.1919 19.6415 45.4532 19.4649 45.7144 19.2883C46.153 18.9908 46.5916 18.6747 47.0302 18.368C47.4501 18.0612 47.8794 17.7544 48.3087 17.4476C48.8312 17.0758 49.3538 16.6947 49.867 16.3135C50.2496 16.0347 50.6322 15.7651 51.0148 15.4862C53.2544 13.878 55.5127 12.3163 57.9016 11.0427C58.5175 10.7173 59.1334 10.4106 59.7586 10.1224C60.7758 9.6576 61.8209 9.25787 62.8941 8.93251C63.37 8.78378 63.8552 8.65363 64.3405 8.54208C66.9814 7.92855 69.6316 7.85418 72.2164 8.22602C82.0707 9.64831 91.0478 17.5778 95.275 26.9482C100.613 38.8006 100.221 50.9039 99.7356 63.8626Z" fill="url(#paint0_linear_2060_3907)"/>
<g clip-path="url(#clip1_2060_3907)">
<path d="M37.9512 97.0728V107.795H64.1207L62.6434 97.3358L37.9512 97.0728Z" fill="#B3B3B3"/>
<path d="M52.1613 100.891C51.9439 100.891 51.752 100.884 51.5857 100.865C49.7119 100.64 45.7084 100.307 45.6701 100.307C45.5741 100.3 45.4974 100.21 45.5102 100.114C45.5166 100.018 45.6061 99.9409 45.702 99.9537C45.7404 99.9601 49.7503 100.294 51.6305 100.512C53.4787 100.73 59.4519 99.5174 59.5095 99.5046C59.6054 99.4853 59.7014 99.5495 59.7205 99.6457C59.7397 99.742 59.6758 99.8382 59.5798 99.8575C59.3496 99.896 54.4572 100.891 52.1613 100.891Z" fill="#999999"/>
<path d="M50.3707 107.705C50.2747 107.705 50.198 107.628 50.1916 107.531L49.9678 100.692C49.9678 100.595 50.0381 100.512 50.1404 100.506C50.2364 100.499 50.3195 100.576 50.3259 100.679L50.5497 107.519C50.5561 107.615 50.4794 107.698 50.3707 107.705C50.3771 107.705 50.3771 107.705 50.3707 107.705Z" fill="#999999"/>
<path d="M56.5232 101.59C56.4977 101.59 56.4657 101.583 56.4401 101.571C56.3506 101.526 56.3186 101.417 56.3634 101.333C56.3697 101.32 57.118 99.851 57.0157 98.6833C57.0093 98.587 57.0796 98.4972 57.1756 98.4908C57.2715 98.4843 57.361 98.5549 57.3674 98.6512C57.4825 99.9216 56.7087 101.436 56.6767 101.494C56.6447 101.558 56.5872 101.59 56.5232 101.59Z" fill="#999999"/>
<path d="M47.9724 101.648C47.9149 101.648 47.8509 101.616 47.8189 101.558C47.237 100.563 47.3968 99.1517 47.4032 99.0939C47.416 98.9977 47.5056 98.9271 47.6015 98.9399C47.6974 98.9528 47.7678 99.0426 47.755 99.1388C47.755 99.1517 47.6015 100.493 48.1259 101.385C48.1771 101.468 48.1451 101.577 48.0619 101.628C48.03 101.641 47.998 101.648 47.9724 101.648Z" fill="#999999"/>
<path d="M64.9329 40.8651L62.6434 97.3423C62.6434 97.3423 60.6033 97.5219 58.1347 97.7337C57.5208 97.785 56.8876 97.8427 56.2417 97.8941C53.1592 98.1572 50.0191 98.4074 49.5458 98.4074C49.3988 98.4074 49.0278 98.3753 48.5098 98.324C47.0964 98.1828 44.5639 97.8812 42.332 97.6118C39.9721 97.323 37.9512 97.0728 37.9512 97.0728L39.1023 41.0511L64.9329 40.8651Z" fill="#FCB552"/>
<path d="M62.8928 43.5599L58.1283 97.7272C57.5144 97.7786 56.8812 97.8363 56.2353 97.8876C56.2161 94.7372 56.0435 69.8929 56.0435 69.1486C56.0435 68.3465 59.2539 46.5692 59.2539 46.5692L62.8928 43.5599Z" fill="#E89D43"/>
<path d="M33.7045 71.144L32.6429 107.814H25.5633C25.5633 107.814 24.3865 90.7141 24.3865 89.4693C24.3865 88.4363 23.0052 76.7584 22.5319 71.7536C22.436 70.7334 22.3784 70.1238 22.3784 70.1238L32.5725 71.0414L33.7045 71.144Z" fill="#FED0B9"/>
<path d="M25.5633 108C25.4673 108 25.3842 107.923 25.3778 107.827L24.2011 88.6095C24.1947 88.5068 24.2714 88.4234 24.3737 88.417C24.4761 88.4106 24.5592 88.4876 24.5656 88.5902L25.7423 107.807C25.7487 107.91 25.672 107.993 25.5696 108H25.5633Z" fill="#EEA489"/>
<path d="M33.0202 74.41C33.0202 74.41 30.0017 74.8335 29.1639 74.6602C28.5563 74.5383 24.636 72.7289 22.5256 71.7536C22.4296 70.7334 22.3721 70.1238 22.3721 70.1238L32.5662 71.0414L33.0202 74.41Z" fill="#EEA489"/>
<path d="M28.4096 88.9817C28.3073 88.9817 28.2241 88.8982 28.2241 88.7956C28.2241 88.6929 28.3073 88.6095 28.4096 88.6095C28.448 88.6095 31.9782 88.5967 32.9183 87.6535C32.9886 87.5829 33.1037 87.5829 33.1805 87.6535C33.2508 87.724 33.2508 87.8395 33.1805 87.9165C32.1316 88.9688 28.5631 88.9817 28.4096 88.9817Z" fill="#EEA489"/>
<path d="M30.9036 87.8395C29.7716 87.8395 28.7356 87.4225 28.678 87.3968C28.5821 87.3583 28.5373 87.2492 28.5757 87.1594C28.6141 87.0631 28.7228 87.0182 28.8123 87.0567C28.8315 87.0631 30.5583 87.7561 31.8757 87.3326C31.9716 87.3005 32.0739 87.3519 32.1059 87.4545C32.1379 87.5508 32.0867 87.6534 31.9844 87.6855C31.6327 87.7946 31.2617 87.8395 30.9036 87.8395Z" fill="#EEA489"/>
<path d="M28.2175 46.1072C28.2175 46.1072 23.6129 50.9901 23.1716 53.0305C22.7304 55.0774 20.5176 69.8159 20.5176 69.8159C20.5176 69.8159 27.9489 71.9461 29.2791 72.1258C30.6094 72.3054 33.7047 71.1505 33.7047 71.1505L28.2175 46.1072Z" fill="#FCB552"/>
<path d="M87.1758 82.0391L78.7084 76.5146L73.234 75.5778L71.5009 68.6096L71.3154 67.8588L83.5752 63.7844C83.5752 63.7844 83.7863 64.8431 84.1188 66.4601C84.9886 70.7911 86.6578 79.1389 87.1758 82.0391Z" fill="#FED0B9"/>
<path d="M84.1124 66.4601C83.1915 67.0889 81.484 68.2182 80.9148 68.3465C80.2177 68.5005 73.266 68.5903 71.5009 68.6096L71.3154 67.8588L83.5752 63.7844C83.5752 63.7844 83.7863 64.8431 84.1124 66.4601Z" fill="#EEA489"/>
<path d="M72.377 43.6241C72.377 43.6241 74.5898 44.6892 75.7409 45.1319C76.8921 45.5747 84.6816 62.8926 84.6816 62.8926C84.6816 62.8926 81.938 65.6452 80.8764 66.2676C79.8147 66.89 71.3218 67.8653 71.3218 67.8653L72.377 43.6241Z" fill="#FCB552"/>
<mask id="mask0_2060_3907" style="mask-type:luminance" maskUnits="userSpaceOnUse" x="20" y="40" width="65" height="59">
<path d="M75.741 45.132C74.5898 44.6892 72.3771 43.6241 72.3771 43.6241L64.5236 51.0158L64.9329 40.8651L39.1023 41.0511L38.757 57.8557L28.2175 46.1073C28.2175 46.1073 23.6129 50.9901 23.1716 53.0306C22.7304 55.0774 20.5176 69.8159 20.5176 69.8159C20.5176 69.8159 27.9489 71.9461 29.2791 72.1258C29.9187 72.2092 34.2099 71.2467 38.5012 70.2265L37.9512 97.0728C37.9512 97.0728 48.5738 98.4074 49.5458 98.4074C50.5179 98.4074 62.6434 97.3423 62.6434 97.3423L64.0887 61.7248L71.3154 67.8653C71.3154 67.8653 79.8084 66.89 80.87 66.2676C81.9316 65.6452 84.6752 62.8926 84.6752 62.8926C84.6752 62.8926 76.8857 45.5747 75.741 45.132Z" fill="white"/>
</mask>
<g mask="url(#mask0_2060_3907)">
<path d="M57.8277 49.5336C56.798 49.5336 55.7748 49.4823 54.7643 49.431L46.5975 49.0203C44.7877 48.9305 42.9138 48.8342 41.1104 48.3979C36.7743 47.352 33.1994 44.3748 30.8843 42.2253L31.1273 41.9623C33.4104 44.0797 36.9342 47.0184 41.1935 48.0514C42.965 48.4813 44.8196 48.5712 46.6167 48.661L54.7835 49.0716C57.0155 49.1871 59.3306 49.3026 61.5561 48.8471C64.4532 48.2503 67.0881 46.704 69.6398 45.2025C72.1276 43.7396 74.6921 42.2317 77.538 41.5773L77.6147 41.9238C74.8264 42.5654 72.281 44.0604 69.8189 45.5105C67.2479 47.0248 64.5875 48.5904 61.6265 49.1935C60.3666 49.4566 59.0939 49.5336 57.8277 49.5336Z" fill="#E89D43"/>
<path d="M64.8497 53.0691C64.2102 53.0691 63.5706 53.0434 62.9375 53.0241L56.1265 52.7739C51.0103 52.5878 45.715 52.3889 40.6051 51.311C34.8429 50.0918 30.1168 47.8782 26.561 44.7406L26.7977 44.4711C30.3087 47.5702 34.9772 49.7518 40.6819 50.9581C45.7597 52.036 51.0358 52.2285 56.1393 52.4146L62.9503 52.6648C64.6003 52.7226 66.3078 52.7867 67.9386 52.421C69.934 51.9719 71.7246 50.9067 73.4578 49.8801L80.6908 45.5875L80.8699 45.8955L73.6368 50.1881C71.8781 51.234 70.0619 52.3119 68.0154 52.7739C66.9729 53.0049 65.9049 53.0691 64.8497 53.0691Z" fill="#E89D43"/>
<path d="M48.9319 56.6815C48.4906 56.6815 48.0557 56.6815 47.6208 56.6751C46.3098 56.6559 44.7941 56.6173 43.3232 56.3479C41.8331 56.072 40.4133 55.5779 38.8337 55.0004C33.1994 52.9343 27.546 50.695 22.0269 48.3338L22.1676 48.0065C27.6803 50.3678 33.3273 52.6071 38.9552 54.6668C40.5157 55.2378 41.9226 55.7319 43.3872 56.0014C44.8261 56.2644 46.329 56.3029 47.6208 56.3222C54.3103 56.4056 61.0382 55.8538 67.6253 54.686C69.4672 54.3588 71.4114 53.9674 73.1509 53.0819C73.8416 52.729 74.5067 52.2991 75.1526 51.882C75.8369 51.4393 76.5404 50.9837 77.2822 50.6116C79.0473 49.739 80.9915 49.3796 82.8717 49.0332L82.9357 49.3796C81.081 49.7261 79.1561 50.079 77.4421 50.926C76.7131 51.2853 76.0224 51.7345 75.3445 52.1772C74.6921 52.6007 74.0142 53.037 73.3108 53.3963C71.5265 54.301 69.5503 54.6988 67.6829 55.0325C61.5114 56.1297 55.2057 56.6815 48.9319 56.6815Z" fill="#E89D43"/>
<path d="M65.0989 59.7229C65.003 59.7229 64.9135 59.7229 64.8239 59.7229L47.5694 59.7036C45.913 59.7036 44.1991 59.6972 42.5299 59.3764C41.1997 59.1197 39.9078 58.6577 38.6544 58.2086C38.3538 58.0995 38.0468 57.9904 37.7462 57.8878C32.4253 56.0334 26.7911 55.0068 21.3423 54.0123L21.4062 53.6658C26.8678 54.6603 32.5149 55.6933 37.8613 57.5541C38.1683 57.6632 38.4689 57.7723 38.7759 57.8813C40.0166 58.3241 41.2956 58.7796 42.6003 59.0363C44.2311 59.3507 45.9322 59.3571 47.5694 59.3571L64.8239 59.3764C66.2245 59.3764 67.6698 59.3764 69.0448 59.0363C70.3814 58.7026 71.6349 58.0482 72.85 57.4129C73.0866 57.291 73.3233 57.1627 73.5599 57.0408C77.9151 54.8079 82.5773 53.3 87.4185 52.5557L87.4697 52.9086C82.6732 53.6465 78.043 55.1415 73.7198 57.3552C73.4832 57.4771 73.2465 57.599 73.0099 57.7209C71.7756 58.369 70.5029 59.0299 69.1216 59.3764C67.7977 59.7036 66.4291 59.7229 65.0989 59.7229Z" fill="#E89D43"/>
<path d="M50.9461 65.1511C50.9141 65.1511 50.8821 65.1511 50.8565 65.1511C47.3135 65.1383 43.8473 64.24 40.4961 63.3802L18.0742 57.6055L18.1638 57.259L40.5857 63.0337C43.9176 63.8935 47.3647 64.779 50.8565 64.7918C52.5896 64.7982 54.3484 64.5865 56.0431 64.3876C57.853 64.1694 59.7268 63.9449 61.5878 63.9834C61.9396 63.9898 62.2977 64.009 62.6431 64.0219C63.5192 64.0604 64.4273 64.1053 65.3035 63.9898C66.6273 63.823 67.8936 63.3032 69.1151 62.8092L85.2185 56.2452L85.3528 56.5724L69.243 63.1428C68.0023 63.6497 66.7169 64.1759 65.3483 64.3491C64.4401 64.4646 63.5192 64.4261 62.6303 64.3812C62.2849 64.3683 61.9332 64.3491 61.5878 64.3427C59.7524 64.3042 57.8913 64.5288 56.0943 64.7469C54.4059 64.9458 52.6664 65.1511 50.9461 65.1511Z" fill="#E89D43"/>
<path d="M53.5555 70.4896C49.5521 70.4896 45.4719 70.0789 41.6859 68.6031C39.8504 67.8909 38.0917 66.9285 36.3969 65.9981C34.4464 64.933 32.4319 63.8293 30.3086 63.1043C26.3627 61.7697 22.1354 61.7376 18.0488 61.7055V61.3526C22.1674 61.3847 26.4203 61.4104 30.4173 62.7642C32.5726 63.4957 34.5999 64.6057 36.5632 65.6773C38.2516 66.6012 39.9975 67.5573 41.8138 68.2631C48.0236 70.6757 55.052 70.2008 61.2491 69.7774C61.8374 69.7389 62.5089 69.6939 63.0461 69.3988C63.3403 69.2384 63.5961 69.0138 63.8647 68.77C64.0118 68.6352 64.1653 68.5005 64.3252 68.3722C65.0159 67.8396 65.8345 67.538 66.6211 67.2429L90.8721 58.2984L90.9936 58.6321L66.7362 67.5894C65.9752 67.8717 65.1822 68.1604 64.5362 68.6673C64.3828 68.7828 64.2357 68.9176 64.095 69.0459C63.8264 69.2897 63.545 69.5399 63.2124 69.7196C62.6049 70.0468 61.895 70.0982 61.2683 70.1367C58.7997 70.3099 56.1904 70.4896 53.5555 70.4896Z" fill="#E89D43"/>
<path d="M46.8852 73.1139C44.5318 73.1139 42.2358 73.0497 40.0614 72.4081C38.4243 71.9269 36.8894 71.1184 35.4057 70.342L35.1435 70.2008C29.8034 67.4097 23.5616 64.4582 17.0256 64.9009L17 64.548C23.6255 64.0988 29.9249 67.0696 35.3033 69.8864L35.5656 70.0276C37.0365 70.7976 38.5522 71.5932 40.1574 72.068C42.3382 72.7097 44.6533 72.761 47.0387 72.761C52.3724 72.7546 57.7764 72.5428 63.0909 72.1386L63.1165 72.4915C57.7892 72.9022 52.3788 73.1139 47.0323 73.1139C46.994 73.1139 46.9364 73.1139 46.8852 73.1139Z" fill="#E89D43"/>
<path d="M38.2645 78.0738C37.9575 78.0738 37.6505 78.0481 37.3499 77.9647C35.4186 77.4578 34.6703 75.3212 34.0052 73.4347C33.9604 73.3128 33.9221 73.1909 33.8773 73.0754C33.5831 72.2413 33.1802 71.3237 32.4128 70.8233C32.0163 70.5666 31.5366 70.4254 31.1145 70.3099C26.9128 69.1165 22.596 68.1219 18.2983 67.3584L18.3623 67.0055C22.6791 67.769 27.0023 68.7636 31.2168 69.9635C31.6645 70.0918 32.1761 70.2329 32.6174 70.5217C33.468 71.0799 33.9029 72.0616 34.2226 72.9535C34.2674 73.0754 34.3058 73.1973 34.3505 73.3192C34.9837 75.1222 35.6999 77.1691 37.4459 77.6246C38.079 77.7915 38.7505 77.7081 39.3964 77.6311L62.5858 74.8014L62.6305 75.1543L39.4412 77.984C39.0639 78.0289 38.6674 78.0738 38.2645 78.0738Z" fill="#E89D43"/>
<path d="M43.2911 80.2554C41.2318 80.2554 39.1725 80.2361 37.1196 80.1912L37.126 79.8383C46.137 80.0244 55.2695 79.7998 64.2613 79.1838L64.2869 79.5367C57.3352 80.0116 50.2939 80.2554 43.2911 80.2554Z" fill="#E89D43"/>
<path d="M70.4967 83.5534C58.7038 83.4058 46.7446 83.3224 34.9517 83.3096V82.9567C46.7446 82.9695 58.7102 83.0529 70.5031 83.2005L70.4967 83.5534Z" fill="#E89D43"/>
<path d="M57.706 87.8973C55.4932 87.8973 53.2741 87.6856 51.0933 87.4802C50.1851 87.3968 49.245 87.307 48.3241 87.23C44.4485 86.9284 40.5154 86.9028 36.6335 87.1594L36.6079 86.8065C40.5026 86.5499 44.4549 86.5691 48.3497 86.8771C49.2706 86.9477 50.2107 87.0375 51.1252 87.1273C54.7322 87.4674 58.4606 87.8267 62.0612 87.1979L62.1188 87.5508C60.6606 87.8075 59.1833 87.8973 57.706 87.8973Z" fill="#E89D43"/>
<path d="M49.7949 91.4456C49.7565 91.4456 49.7182 91.4456 49.6734 91.4456C48.9571 91.4327 48.2472 91.3172 47.5565 91.2017C47.3647 91.1697 47.1728 91.1376 46.981 91.1119C43.6874 90.605 40.3043 90.759 37.0299 90.9002L37.0171 90.5473C40.3107 90.3997 43.713 90.2521 47.0385 90.7654C47.2304 90.7975 47.4286 90.8296 47.6205 90.8617C48.2984 90.9708 48.9955 91.0862 49.6862 91.0991C50.703 91.1183 51.7327 90.9066 52.7303 90.7013C52.9094 90.6628 53.0821 90.6307 53.2548 90.5922C55.8385 90.0853 58.4797 89.8222 61.1146 89.8158V90.1687C58.5053 90.1751 55.8832 90.4318 53.3251 90.9387C53.1524 90.9707 52.9734 91.0093 52.8007 91.0478C51.8158 91.2402 50.8117 91.4456 49.7949 91.4456Z" fill="#E89D43"/>
<path d="M52.5772 95.1735C51.797 95.1735 51.0104 95.0773 50.2557 94.9875L40.6372 93.8197L40.682 93.4668L50.3005 94.6346C51.0871 94.7308 51.9057 94.827 52.7051 94.8206C53.9394 94.8014 55.1801 94.5255 56.376 94.256C56.6127 94.2047 56.8429 94.1533 57.0795 94.102C59.6121 93.5566 62.2085 93.2165 64.7922 93.0882L64.8114 93.4411C62.2405 93.563 59.6696 93.9031 57.1563 94.4485C56.926 94.4998 56.6894 94.5511 56.4592 94.6025C55.2441 94.872 53.9842 95.1543 52.7179 95.1735C52.6668 95.1735 52.622 95.1735 52.5772 95.1735Z" fill="#E89D43"/>
</g>
<path d="M48.5099 98.324C47.0965 98.1828 44.564 97.8812 42.332 97.6117V58.8502C42.332 58.8502 46.1372 74.564 46.489 75.1864C46.8407 75.8088 47.5506 91.9653 47.5506 92.4979C47.5506 92.8443 48.1134 96.0975 48.5099 98.324Z" fill="#E89D43"/>
<path d="M58.5376 27.0184L60.1108 26.7746C60.4434 26.7233 60.7248 26.4859 60.8335 26.1651L62.362 21.6222C62.4643 21.3143 62.4004 20.9742 62.1829 20.7304L61.2812 19.6973C61.0062 19.3829 60.5585 19.2995 60.1876 19.4856L58.9469 20.1144L58.5376 27.0184Z" fill="#FED0B9"/>
<path d="M60.0277 19.569C59.9637 19.832 59.2091 26.8452 59.2091 26.8452L58.5376 27.012L58.9597 20.0887L60.0277 19.569Z" fill="#EEA489"/>
<path d="M59.0431 24.824C59.0239 24.824 59.0047 24.824 58.9855 24.8176C58.8896 24.7855 58.8448 24.6829 58.8704 24.593C59.3948 23.021 60.6675 22.3281 60.725 22.296C60.8082 22.2511 60.9169 22.2831 60.9616 22.3666C61.0064 22.45 60.9744 22.559 60.8913 22.604C60.8785 22.6104 59.6826 23.2713 59.2093 24.7021C59.1837 24.7791 59.1134 24.824 59.0431 24.824Z" fill="#EEA489"/>
<path d="M60.3859 25.0807C60.3411 25.0807 60.2899 25.0615 60.258 25.023C60.2516 25.0165 59.7399 24.4711 59.1963 24.3556C59.1004 24.3364 59.0365 24.2402 59.0556 24.1439C59.0748 24.0477 59.1708 23.9835 59.2667 24.0027C59.9254 24.1375 60.4946 24.747 60.5202 24.7727C60.5841 24.8433 60.5841 24.9588 60.5074 25.023C60.4754 25.0679 60.4306 25.0807 60.3859 25.0807Z" fill="#EEA489"/>
<path d="M42.6967 27.0313L41.0595 26.7746C40.7269 26.7233 40.4455 26.4859 40.3368 26.1651L38.8083 21.6222C38.706 21.3143 38.77 20.9742 38.9874 20.7304L39.8892 19.6973C40.1642 19.3829 40.6118 19.2995 40.9828 19.4856L42.2234 20.1144L42.6967 27.0313Z" fill="#FED0B9"/>
<path d="M41.1362 19.569C41.2002 19.832 41.9548 26.9093 41.9548 26.9093L42.6967 27.0313L42.2106 20.0951L41.1362 19.569Z" fill="#EEA489"/>
<path d="M42.1277 24.824C42.051 24.824 41.987 24.7791 41.9614 24.7021C41.4882 23.2712 40.2923 22.6103 40.2795 22.6039C40.1963 22.559 40.158 22.4499 40.2091 22.3665C40.2539 22.2831 40.3626 22.2446 40.4458 22.2959C40.4969 22.328 41.776 23.021 42.3004 24.593C42.3324 24.6893 42.2812 24.7855 42.1853 24.8176C42.1597 24.824 42.1405 24.824 42.1277 24.824Z" fill="#EEA489"/>
<path d="M40.7781 25.0807C40.7334 25.0807 40.695 25.0679 40.6566 25.0358C40.5863 24.9716 40.5799 24.8561 40.6438 24.7855C40.6694 24.7599 41.2386 24.1503 41.8973 24.0156C41.9932 23.9963 42.0892 24.0605 42.1084 24.1567C42.1275 24.253 42.0636 24.3492 41.9677 24.3685C41.4241 24.4775 40.9124 25.0294 40.906 25.0358C40.8741 25.0614 40.8229 25.0807 40.7781 25.0807Z" fill="#EEA489"/>
<path d="M64.9327 40.8651C64.5554 41.6671 62.7135 43.5471 61.0188 45.0806C59.6886 46.2869 58.4543 47.2815 58.0833 47.397C57.2456 47.6472 45.3055 45.0293 44.4741 44.824L44.455 44.8176C43.7835 44.6508 39.0957 41.0319 39.0957 41.0319L43.2207 37.7403L43.905 32.1067L56.8554 31.6639L57.1752 36.0271C57.2392 36.8805 57.7572 37.6248 58.5374 37.9777L60.8269 39.0107L60.9293 39.0556L64.9327 40.8651Z" fill="#FED0B9"/>
<path d="M43.6685 33.6145C43.6685 33.6145 47.1987 38.5102 47.9981 38.8696C48.7975 39.2225 53.5748 39.0492 54.1951 38.6899C54.8155 38.337 57.2009 35.6293 57.2009 35.6293L56.8556 31.6703L43.9115 32.0938L43.6685 33.6145Z" fill="#EEA489"/>
<path d="M61.6265 39.4022L61.0189 45.0807C59.6887 46.287 58.4544 47.2815 58.0835 47.397C57.2457 47.6472 45.3057 45.0293 44.4743 44.824L44.4551 44.8176L57.9044 46.0624C57.9044 46.0624 59.6759 44.6444 59.9381 44.1118C60.2003 43.5921 60.7951 39.184 60.8206 39.0108C60.8206 39.0043 60.8206 39.0043 60.8206 39.0043L60.923 39.0557L61.6265 39.4022Z" fill="#EEA489"/>
<path d="M61.2302 12.4917C61.2302 12.4917 61.6523 13.7557 61.6523 14.2626C61.6523 14.7695 60.9808 17.7275 60.6419 18.3178C60.3029 18.9081 60.0535 19.5818 60.0535 19.5818L57.182 21.1795L51.0937 24.5738L41.117 19.5818C41.117 19.5818 40.3624 18.6514 40.1065 17.4708C39.8571 16.2902 39.1792 12.0682 39.1792 12.0682C39.1792 12.0682 38.4246 11.9848 37.9194 11.4779C37.4141 10.971 37.8362 10.7208 37.6699 10.2973C37.5037 9.87379 37.2478 10.047 37.0816 9.03324C36.9153 8.01945 39.0193 7.51255 40.0298 7.34572C41.0403 7.1789 42.1339 7.00565 42.217 6.08169C42.3001 5.15131 42.217 2.87349 43.3106 2.87349C44.385 2.87349 45.9518 3.8552 46.003 3.88728C45.9966 3.87445 45.9582 3.77178 45.971 3.61779C45.9902 3.33547 46.1821 2.89274 47.0966 2.62325C48.5292 2.19976 50.2111 3.13014 50.4605 3.29697C50.71 3.4638 52.2256 4.22735 52.5646 3.54721C52.9035 2.87349 52.7309 1.94311 52.0594 1.8597C51.3879 1.77628 51.8931 0.929316 52.4814 1.01273C53.0698 1.09614 54.6686 2.70024 54.8349 3.97069C54.8349 3.97069 55.6791 2.70666 56.2675 3.21356C56.8558 3.72045 57.1948 5.40797 57.1948 5.40797C57.1948 5.40797 58.1221 5.49138 58.4547 5.83145C58.7936 6.17152 58.4547 7.18531 58.9599 7.35214C59.4651 7.51897 60.1366 6.67842 60.4756 7.60238C60.8145 8.53276 61.0639 9.71338 61.0639 9.71338C61.0639 9.71338 62.0744 9.45672 62.4133 10.6438C62.7459 11.8115 61.2302 12.4917 61.2302 12.4917Z" fill="#6D2931"/>
<path d="M61.23 12.4917C61.23 12.4917 61.6521 13.7557 61.6521 14.2626C61.6521 14.7695 60.9806 17.7275 60.6416 18.3178C60.3027 18.9081 60.0532 19.5818 60.0532 19.5818L57.1818 21.1795C57.1562 21.0769 57.137 20.9742 57.1178 20.8779C56.9451 19.9155 56.8044 18.953 56.7021 17.9777C56.6126 17.1179 56.5486 16.2453 56.28 15.424C55.6661 13.5183 54.0672 12.1195 52.4428 10.9646C52.1231 10.74 51.7777 10.4898 51.6498 10.1176C51.5219 9.74548 51.7585 9.23216 52.1487 9.245C52.3533 9.25141 52.526 9.39899 52.6923 9.5209C53.4789 10.0984 54.5277 10.2909 55.4678 10.0406C55.794 9.9508 56.1521 9.76472 56.2033 9.42465C56.2289 9.245 56.1585 9.05892 56.0754 8.89851C55.6725 8.12854 54.8731 7.58315 54.0161 7.48048C53.7986 7.45482 53.562 7.45482 53.3702 7.34574C53.1783 7.23666 53.0568 6.96075 53.1975 6.78751C53.2998 6.65918 53.4853 6.64635 53.6324 6.57577C54.0033 6.38328 53.9905 5.78655 53.6899 5.4914C53.3893 5.19624 52.9353 5.13208 52.5132 5.13208C52.0911 5.13208 51.6626 5.18341 51.2597 5.0615C50.8056 4.92034 50.4539 4.56743 50.0702 4.29153C49.0214 3.53439 47.9597 3.53439 46.7382 3.61139C46.3225 3.63706 46.1371 3.75897 45.958 3.60497C45.9772 3.32265 46.1691 2.87992 47.0836 2.61043C48.5161 2.18695 50.1981 3.11733 50.4475 3.28415C50.6969 3.45098 52.2126 4.21453 52.5516 3.53439C52.8905 2.86067 52.7178 1.93029 52.0463 1.84688C51.3748 1.76346 51.8801 0.916499 52.4684 0.999912C53.0568 1.08333 54.6556 2.68743 54.8219 3.95788C54.8219 3.95788 55.6661 2.69384 56.2544 3.20074C56.8428 3.70764 57.1818 5.39515 57.1818 5.39515C57.1818 5.39515 58.1091 5.47856 58.4416 5.81863C58.7806 6.1587 58.4416 7.1725 58.9469 7.33932C59.4521 7.50615 60.1236 6.6656 60.4625 7.58956C60.8015 8.51994 61.0509 9.70056 61.0509 9.70056C61.0509 9.70056 62.0614 9.4439 62.4003 10.6309C62.7457 11.8116 61.23 12.4917 61.23 12.4917Z" fill="#591E26"/>
<path d="M59.3756 14.5193C59.3756 14.5193 59.0623 19.2867 58.7553 23.6113C58.7425 23.7846 58.7297 23.9514 58.7169 24.1182C58.5059 27.0505 58.3012 29.6748 58.1989 30.3101C57.9431 31.9142 54.6623 35.8859 54.1571 36.303C53.6519 36.7265 49.1048 36.8099 47.9281 36.4698C46.7513 36.1297 43.2979 31.4843 43.0484 30.5603C42.9397 30.1561 42.6839 27.0634 42.4345 23.6947C42.1083 19.3316 41.7886 14.5129 41.7886 14.5129C42.799 10.7144 45.9967 9.36049 45.9967 9.36049C45.9967 9.36049 46.3356 9.02042 47.1734 9.61715C47.8897 10.1176 48.235 9.64923 48.7403 9.02684C48.8298 8.91776 48.9257 8.80226 49.0281 8.68677C49.6996 7.92963 51.2984 8.26328 52.2257 9.02684C53.153 9.78397 52.6478 10.2909 53.4856 10.7978C54.3298 11.3047 55.7559 10.4577 56.5169 10.7978C57.278 11.1378 59.3756 14.5193 59.3756 14.5193Z" fill="#FED0B9"/>
<path d="M59.3756 14.5193C59.3756 14.5193 59.0622 19.2867 58.7553 23.6113C58.7425 23.7846 58.7297 23.9514 58.7169 24.1182C58.5122 25.6582 58.2756 27.1981 58.0134 28.7252C57.5977 28.7252 56.7344 29.1936 56.3123 29.1936C57.1948 26.7939 58.0198 24.7214 57.9942 23.2456C57.975 21.8596 57.9623 14.423 57.425 13.4413C57.1948 13.0243 56.8751 12.6521 56.4594 12.4275C55.4297 11.8821 54.0611 12.3698 53.0762 11.7474C52.2704 11.2405 52.0146 10.169 51.3303 9.50165C50.7484 8.93701 49.9553 8.80868 49.1815 8.93701C49.0152 8.96267 48.8681 9.00117 48.7402 9.02684C48.8298 8.91776 48.9257 8.80226 49.028 8.68677C49.6995 7.92963 51.2984 8.26328 52.2257 9.02684C53.153 9.78397 52.6478 10.2909 53.4855 10.7978C54.3297 11.3047 55.7559 10.4577 56.5169 10.7978C57.278 11.1378 59.3756 14.5193 59.3756 14.5193Z" fill="#EEA489"/>
<path d="M58.7554 23.6049C58.749 23.7268 58.7362 23.8487 58.7298 23.9771C58.5124 26.9607 58.3013 29.662 58.199 30.31C57.9432 31.9142 54.6624 35.8859 54.1572 36.303C53.6519 36.7265 49.1049 36.8099 47.9281 36.4698C46.7514 36.1297 43.2979 31.4843 43.0485 30.5603C42.9398 30.1561 42.684 27.0633 42.4346 23.6947L42.4665 23.5664L44.2316 28.276L45.9968 28.6161L47.1735 26.4217L49.6421 25.8635H52.5647L54.7455 26.5885L55.6728 28.4429L56.5682 28.2568L57.2717 28.1092L58.4548 24.5096L58.7554 23.6049Z" fill="#6D2931"/>
<path d="M52.3088 20.7625L52.8972 25.5748C52.8972 25.5748 52.2257 26.4217 51.0425 26.4217C49.8658 26.4217 49.5269 25.6646 49.5269 25.6646L52.3088 20.7625Z" fill="#FED0B9"/>
<path d="M51.0488 26.6014C49.7697 26.6014 49.386 25.7737 49.3732 25.7352C49.3348 25.6454 49.3732 25.5427 49.4627 25.4978C49.5523 25.4593 49.6546 25.4978 49.6994 25.5876C49.7122 25.6133 50.0127 26.2421 51.0552 26.2421C51.9633 26.2421 52.5581 25.6903 52.7243 25.517L52.1424 20.7817C52.1296 20.6855 52.1999 20.5956 52.2959 20.5828C52.3918 20.57 52.4813 20.6406 52.4941 20.7368L53.0953 25.6261L53.0505 25.6839C53.0057 25.7288 52.2959 26.6014 51.0488 26.6014Z" fill="#DB8A75"/>
<path d="M44.9863 20.4352C44.9288 20.4352 44.8776 20.4095 44.8392 20.3582C44.7817 20.2812 44.8009 20.1657 44.884 20.108C46.3997 19.0364 47.7683 20.0181 47.7811 20.0245C47.8578 20.0823 47.877 20.1914 47.8194 20.2748C47.7619 20.3518 47.6532 20.371 47.57 20.3133C47.5189 20.2748 46.3869 19.4727 45.0823 20.3967C45.0567 20.4224 45.0247 20.4352 44.9863 20.4352Z" fill="#35231F"/>
<path d="M56.6002 20.5186C56.5682 20.5186 56.5298 20.5058 56.5042 20.4865C55.1165 19.5562 53.9781 20.3646 53.9269 20.3967C53.8502 20.4545 53.7351 20.4352 53.6775 20.3582C53.62 20.2812 53.6391 20.1657 53.7159 20.108C53.7287 20.0951 55.0973 19.1199 56.6961 20.185C56.7792 20.2363 56.7984 20.3518 56.7473 20.4288C56.7153 20.493 56.6577 20.5186 56.6002 20.5186Z" fill="#35231F"/>
<path d="M48.2671 17.5543C48.2671 17.5543 47.3398 16.5405 46.2462 16.2902C44.059 16.5405 43.2212 17.5543 43.2212 17.5543C43.2212 17.5543 44.9032 17.5543 45.5747 17.5543C46.2462 17.5543 48.2671 17.5543 48.2671 17.5543Z" fill="#591E26"/>
<path d="M46.457 23.9001C44.7559 23.9001 43.3745 22.5141 43.3745 20.8074C43.3745 19.1006 44.7559 17.7147 46.457 17.7147C48.1582 17.7147 49.5396 19.1006 49.5396 20.8074C49.5396 22.5141 48.1582 23.9001 46.457 23.9001ZM46.457 18.074C44.9542 18.074 43.7326 19.2995 43.7326 20.8074C43.7326 22.3152 44.9542 23.5408 46.457 23.5408C47.9599 23.5408 49.1814 22.3152 49.1814 20.8074C49.1878 19.2995 47.9599 18.074 46.457 18.074Z" fill="#35231F"/>
<path d="M55.3784 23.9001C53.6773 23.9001 52.2959 22.5141 52.2959 20.8074C52.2959 19.1006 53.6773 17.7147 55.3784 17.7147C57.0796 17.7147 58.461 19.1006 58.461 20.8074C58.461 22.5141 57.0796 23.9001 55.3784 23.9001ZM55.3784 18.074C53.8755 18.074 52.654 19.2995 52.654 20.8074C52.654 22.3152 53.8755 23.5408 55.3784 23.5408C56.8813 23.5408 58.1028 22.3152 58.1028 20.8074C58.1092 19.2995 56.8813 18.074 55.3784 18.074Z" fill="#35231F"/>
<path d="M49.2583 20.1208C49.2007 20.1208 49.1496 20.0952 49.1112 20.0438C49.0537 19.9668 49.0728 19.8513 49.156 19.7936C49.1752 19.7808 50.8571 18.6194 52.6798 19.7679C52.7629 19.8193 52.7885 19.9283 52.7373 20.0117C52.6862 20.0952 52.5775 20.1208 52.4943 20.0695C50.8763 19.0493 49.4246 20.0438 49.367 20.0887C49.3286 20.108 49.2903 20.1208 49.2583 20.1208Z" fill="#35231F"/>
<path d="M57.0219 24.407C56.9836 24.407 56.9452 24.3942 56.9132 24.3685C56.8365 24.3043 56.8237 24.1953 56.8876 24.1183L57.8981 22.8542C57.962 22.7772 58.0708 22.7644 58.1475 22.8286C58.2242 22.8927 58.237 23.0018 58.1731 23.0788L57.1626 24.3364C57.1243 24.3813 57.0731 24.407 57.0219 24.407Z" fill="#EEA489"/>
<path d="M57.2713 25.0807C57.233 25.0807 57.201 25.0679 57.169 25.0486C57.0923 24.9909 57.0731 24.8818 57.1306 24.7984L58.058 23.5344C58.1155 23.4574 58.2242 23.4381 58.3074 23.4959C58.3841 23.5536 58.4033 23.6627 58.3457 23.7461L57.4184 25.0101C57.3801 25.055 57.3289 25.0807 57.2713 25.0807Z" fill="#EEA489"/>
<path d="M44.0588 24.9138C44.0012 24.9138 43.9501 24.8882 43.9181 24.8433L42.8245 23.3226C42.7669 23.2456 42.7861 23.1301 42.8629 23.0723C42.9396 23.0146 43.0547 23.0338 43.1123 23.1108L44.2059 24.6315C44.2634 24.7085 44.2442 24.824 44.1675 24.8818C44.1355 24.901 44.0971 24.9138 44.0588 24.9138Z" fill="#EEA489"/>
<path d="M44.6471 24.2337C44.6024 24.2337 44.5512 24.2145 44.5192 24.176L42.8373 22.4051C42.7669 22.3345 42.7733 22.219 42.8437 22.1548C42.914 22.0842 43.0291 22.0907 43.0931 22.1612L44.775 23.9322C44.8454 24.0027 44.839 24.1182 44.7687 24.1824C44.7367 24.2209 44.6919 24.2337 44.6471 24.2337Z" fill="#EEA489"/>
<path d="M53.0635 17.6376C53.0635 17.6376 54.6623 16.3736 55.1675 16.3736C55.6728 16.3736 57.4379 16.7971 58.1989 17.9777C58.1989 17.9777 54.0739 17.3874 53.0635 17.6376Z" fill="#591E26"/>
<path d="M43.5727 20.4929C43.5599 20.4929 43.5471 20.4929 43.5407 20.4865L42.2105 20.217C42.1146 20.1978 42.0506 20.1015 42.0698 20.0053C42.089 19.909 42.1849 19.8449 42.2809 19.8641L43.6111 20.1336C43.707 20.1529 43.771 20.2491 43.7518 20.3454C43.7262 20.4352 43.6558 20.4929 43.5727 20.4929Z" fill="#35231F"/>
<path d="M58.314 20.5635C58.2501 20.5635 58.1861 20.525 58.1542 20.4673C58.1094 20.3775 58.1478 20.2748 58.2309 20.2299L58.8896 19.8962C58.9792 19.8513 59.0815 19.8898 59.1262 19.9732C59.171 20.0631 59.1326 20.1657 59.0495 20.2106L58.3908 20.5443C58.3652 20.5571 58.3396 20.5635 58.314 20.5635Z" fill="#35231F"/>
<path d="M58.7299 23.9771C58.5124 26.9607 58.3014 29.662 58.1991 30.31C57.9433 31.9141 54.6625 35.8859 54.1572 36.303C53.652 36.7265 49.105 36.8099 47.9282 36.4698C47.9282 36.4698 53.5561 35.6357 54.1445 34.8785C54.7072 34.1535 56.434 28.6867 56.5683 28.2568L57.2718 28.1092L58.4549 24.5096L58.7299 23.9771Z" fill="#591E26"/>
<path d="M47.4292 28.1093C47.4292 28.1093 49.1112 27.4869 50.9338 27.4484C52.7565 27.4099 54.3297 28.1093 54.3297 28.1093H47.4292Z" fill="#591E26"/>
<path d="M47.4292 28.1093H54.3297C54.3297 28.1093 53.0699 29.8802 52.5646 30.2203C52.0594 30.5603 50.2112 30.5603 49.6164 30.3037C49.028 30.0534 47.4292 28.1093 47.4292 28.1093Z" fill="white"/>
<path d="M48.8105 32.4981C48.8105 32.4981 51.3239 29.9764 53.2553 32.697C53.2553 32.6906 51.5477 31.3752 48.8105 32.4981Z" fill="#591E26"/>
<path d="M28.2173 46.1072C28.2173 46.1072 31.7603 68.924 32.112 71.9461C32.4638 74.9618 32.7324 88.6352 32.7324 88.6352L32.6428 107.814H47.8636C47.8636 107.814 45.5613 83.6625 45.4718 80.0244C45.3823 76.3863 43.3486 67.506 42.9968 65.549C42.6451 63.592 42.159 43.3739 42.159 43.3739L40.816 39.5048C40.816 39.5048 30.4301 44.4197 28.2173 46.1072Z" fill="#759C7B"/>
<path d="M35.8724 106.223C35.7892 106.223 35.7189 106.165 35.6997 106.088L34.9131 103.014L35.0282 102.944C35.0474 102.931 36.6974 101.93 37.8357 100.627C38.9741 99.3185 40.2787 95.8665 40.2915 95.8344L40.3299 95.7381L44.0648 95.0965L45.12 105.863C45.1328 105.966 45.056 106.049 44.9601 106.062C44.8578 106.075 44.7746 105.998 44.7618 105.902L43.7258 95.5136L40.5857 96.0525C40.3619 96.6429 39.1851 99.6136 38.1043 100.858C37.0875 102.02 35.7317 102.925 35.3288 103.181L36.0514 105.998C36.077 106.094 36.0195 106.197 35.9235 106.223C35.898 106.223 35.8852 106.223 35.8724 106.223Z" fill="#517348"/>
<path d="M41.2062 93.6913C41.1102 93.6913 41.0335 93.6207 41.0271 93.5245C41.0079 93.2806 39.3451 69.1678 39.1277 67.2878C38.9998 66.197 39.1277 61.9172 39.2364 58.138C39.3196 55.2763 39.3963 52.5685 39.3515 51.7986C39.2428 50.0276 38.2451 40.5763 38.2324 40.48C38.2196 40.3774 38.2963 40.2875 38.3922 40.2811C38.4946 40.2683 38.5841 40.3453 38.5905 40.4415C38.6033 40.5378 39.6009 50.002 39.7097 51.7793C39.7608 52.5685 39.6841 55.1544 39.5946 58.1508C39.4858 61.9173 39.3579 66.1777 39.4858 67.2493C39.7097 69.1357 41.3724 93.255 41.3852 93.4988C41.3916 93.6015 41.3149 93.6849 41.219 93.6913C41.219 93.6913 41.2126 93.6913 41.2062 93.6913Z" fill="#517348"/>
<path d="M43.4216 75.6324C43.5301 74.9572 43.0725 74.3216 42.3996 74.2127C41.7266 74.1038 41.0931 74.5629 40.9846 75.2381C40.8761 75.9132 41.3336 76.5488 42.0066 76.6577C42.6795 76.7666 43.313 76.3075 43.4216 75.6324Z" fill="#517348"/>
<path d="M41.9352 76.136C42.5215 76.136 42.9968 75.6592 42.9968 75.0709C42.9968 74.4827 42.5215 74.0058 41.9352 74.0058C41.3488 74.0058 40.8735 74.4827 40.8735 75.0709C40.8735 75.6592 41.3488 76.136 41.9352 76.136Z" fill="#CCCCCC"/>
<path d="M43.3476 84.279C43.9411 83.9426 44.1505 83.1871 43.8151 82.5916C43.4798 81.9961 42.7268 81.7861 42.1333 82.1225C41.5398 82.459 41.3304 83.2144 41.6657 83.8099C42.0011 84.4054 42.754 84.6155 43.3476 84.279Z" fill="#517348"/>
<path d="M42.4659 83.8999C43.0522 83.8999 43.5275 83.423 43.5275 82.8348C43.5275 82.2465 43.0522 81.7697 42.4659 81.7697C41.8796 81.7697 41.4043 82.2465 41.4043 82.8348C41.4043 83.423 41.8796 83.8999 42.4659 83.8999Z" fill="#CCCCCC"/>
<path d="M43.2397 93.0754C43.9213 93.0754 44.474 92.5209 44.474 91.837C44.474 91.1531 43.9213 90.5986 43.2397 90.5986C42.558 90.5986 42.0054 91.1531 42.0054 91.837C42.0054 92.5209 42.558 93.0754 43.2397 93.0754Z" fill="#517348"/>
<path d="M42.9713 92.5428C43.5576 92.5428 44.0329 92.0659 44.0329 91.4777C44.0329 90.8894 43.5576 90.4125 42.9713 90.4125C42.385 90.4125 41.9097 90.8894 41.9097 91.4777C41.9097 92.0659 42.385 92.5428 42.9713 92.5428Z" fill="#CCCCCC"/>
<path d="M61.6651 39.447C61.6651 39.447 58.9215 65.1062 58.7424 67.1466C58.5633 69.1871 58.3011 92.716 58.3011 92.716L58.1221 107.807H71.9359C71.9359 107.807 71.5842 88.8084 71.3156 86.8514C71.047 84.9008 71.3156 67.8525 71.3156 67.8525L72.3772 43.6113L61.6651 39.447Z" fill="#759C7B"/>
<path d="M66.9157 106.364C66.9029 106.364 66.8901 106.364 66.8773 106.357C66.7814 106.338 66.7174 106.242 66.7366 106.139L68.1628 99.3185C65.4448 97.8043 64.5175 95.5008 64.3256 94.9169H61.0448L60.1686 104.625C60.1623 104.728 60.0727 104.798 59.9704 104.792C59.8681 104.785 59.7977 104.695 59.8041 104.593L60.7122 94.5576H64.5942L64.6326 94.6923C64.639 94.718 65.4384 97.4449 68.457 99.0683L68.5785 99.1325L67.0948 106.223C67.0756 106.3 67.0052 106.364 66.9157 106.364Z" fill="#517348"/>
<path d="M59.9895 91.1119H59.9831C59.8808 91.1055 59.804 91.0221 59.8104 90.9194L60.143 84.4132L60.9232 72.0744C60.9488 71.4713 61.486 57.2461 61.7098 55.4624C61.9273 53.6914 63.0401 40.7945 63.0528 40.6661C63.0592 40.5635 63.1488 40.4929 63.2511 40.4993C63.3534 40.5057 63.4238 40.5956 63.4174 40.6982C63.4046 40.8265 62.2982 53.7299 62.0744 55.5073C61.8569 57.2718 61.3005 71.9397 61.2941 72.0873L60.5139 84.426L60.1814 90.9258C60.1622 91.0349 60.0854 91.1119 59.9895 91.1119Z" fill="#517348"/>
<path d="M70.1451 62.5974L66.7748 62.5268L62.9888 61.25L63.4812 59.1326L70.5352 60.1464L70.1451 62.5974ZM66.8387 62.1675L69.8381 62.2253L70.1195 60.4479L63.7626 59.5368L63.4173 61.0062L66.8387 62.1675Z" fill="#517348"/>
<path d="M70.5351 59.37C70.5287 59.37 70.5159 59.37 70.5095 59.37L63.5067 58.4011C63.4043 58.3883 63.3404 58.2984 63.3532 58.1958C63.366 58.0931 63.4555 58.029 63.5578 58.0418L70.5543 59.0042C70.6566 59.0171 70.7206 59.1069 70.7078 59.2096C70.7014 59.3058 70.6246 59.37 70.5351 59.37Z" fill="#517348"/>
<path d="M87.3294 83.0401C87.3294 83.7524 85.7497 88.1219 82.0213 88.4556C81.1003 88.539 51.5732 80.0308 51.5732 80.0308L53.2296 73.2038L73.2661 75.6677L73.2405 75.5714L78.7149 76.5082L87.1823 82.0328C87.2718 82.5974 87.3294 82.9567 87.3294 83.0401Z" fill="#FED0B9"/>
<path d="M79.8536 77.0472C79.8408 77.0472 79.8344 77.0472 79.8216 77.0472L73.2792 75.8922L53.198 73.4091C53.102 73.3963 53.0317 73.3064 53.0445 73.2102C53.0573 73.1139 53.1468 73.0434 53.2427 73.0562L73.3368 75.5458H73.3432L79.8919 76.7007C79.9879 76.72 80.0518 76.8098 80.0326 76.906C80.0134 76.9895 79.9367 77.0472 79.8536 77.0472Z" fill="#EEA489"/>
<path d="M53.7414 73.1717C53.7414 73.1717 52.1809 70.1752 50.8955 69.3026C49.2774 68.2054 47.3461 65.4784 47.3461 65.4784C47.3461 65.4784 46.9112 63.2391 47.0839 61.8788C47.0839 61.8788 45.8687 61.6478 45.2036 62.7129C44.8071 63.3546 44.66 64.5224 44.9414 66.3125L46.5594 69.7838C46.5594 69.7838 45.4658 70.4447 44.3275 70.7912C43.1891 71.1441 42.5304 71.3623 42.5304 71.3623C42.5304 71.3623 41.4816 72.1066 41.9612 73.5567C41.9612 73.5567 41.2194 74.5255 42.0955 76.2836C42.0955 76.2836 41.4816 77.2076 42.2682 78.831C42.2682 78.831 41.9165 79.8383 42.5304 80.942L45.4211 81.2499C45.4211 81.2499 49.3158 82.2573 50.3263 82.0392C51.3303 81.821 53.7861 80.5891 53.7861 80.5891L53.7414 73.1717Z" fill="#FED0B9"/>
<path d="M41.9612 73.7813C41.8525 73.7813 41.763 73.6978 41.7566 73.5888C41.7438 73.4733 41.8333 73.3706 41.9484 73.3642L43.4386 73.2294C43.5537 73.2166 43.656 73.3064 43.6624 73.4219C43.6688 73.5374 43.5856 73.6401 43.4705 73.6465L41.9804 73.7813C41.974 73.7813 41.9676 73.7813 41.9612 73.7813Z" fill="#EEA489"/>
<path d="M42.0892 76.5018C41.9805 76.5018 41.891 76.4184 41.8846 76.3029C41.8782 76.1874 41.9677 76.0911 42.0765 76.0847L43.5218 75.9949C43.6369 75.9885 43.7328 76.0783 43.7392 76.1874C43.7456 76.3029 43.6561 76.3991 43.5474 76.4055L42.102 76.4954C42.102 76.5018 42.0956 76.5018 42.0892 76.5018Z" fill="#EEA489"/>
<path d="M42.268 79.0491C42.1592 79.0491 42.0697 78.9657 42.0633 78.8631C42.0505 78.7476 42.1337 78.6449 42.2488 78.6385L43.6493 78.5037C43.7645 78.4909 43.8668 78.5743 43.8732 78.6898C43.886 78.8053 43.8028 78.908 43.6877 78.9144L42.2871 79.0491C42.2808 79.0491 42.2744 79.0491 42.268 79.0491Z" fill="#EEA489"/>
<path d="M46.988 62.2702C46.988 62.2702 46.2973 62.3023 46.1311 62.5654C45.9648 62.8284 46.0991 64.2465 46.0991 64.2465C46.0991 64.2465 46.9177 64.3427 47.1479 64.1823C47.1479 64.1823 46.9177 62.8284 46.988 62.2702Z" fill="#FFEAE3"/>
<path d="M46.5595 74.609C46.4571 74.609 46.3676 74.532 46.3548 74.4293C46.3356 74.3138 46.4188 74.2112 46.5339 74.1919L47.9153 73.993C48.0304 73.9738 48.1327 74.0572 48.1519 74.1727C48.1711 74.2882 48.0879 74.3908 47.9728 74.4101L46.5914 74.609C46.5786 74.609 46.5659 74.609 46.5595 74.609Z" fill="#EEA489"/>
<path d="M46.4955 77.137C46.3868 77.137 46.2908 77.0472 46.2908 76.9381C46.2845 76.8226 46.374 76.7264 46.4891 76.7199L48.0623 76.6558C48.1775 76.6494 48.2734 76.7392 48.2798 76.8547C48.2862 76.9702 48.1966 77.0664 48.0815 77.0728L46.5083 77.137C46.4955 77.137 46.4955 77.137 46.4955 77.137Z" fill="#EEA489"/>
<path d="M48.0688 79.5753C48.0624 79.5753 48.056 79.5753 48.0496 79.5753L46.6042 79.4405C46.4891 79.4277 46.406 79.3314 46.4188 79.2159C46.4316 79.1004 46.5275 79.017 46.6426 79.0299L48.088 79.1646C48.2031 79.1774 48.2862 79.2737 48.2734 79.3892C48.267 79.4983 48.1775 79.5753 48.0688 79.5753Z" fill="#EEA489"/>
<path d="M48.1327 72.4594C48.1263 72.4594 48.12 72.4594 48.1136 72.4594L46.2078 72.2605C46.0926 72.2477 46.0095 72.145 46.0223 72.0295C46.0351 71.914 46.1374 71.8306 46.2525 71.8435L48.1583 72.0424C48.2734 72.0552 48.3566 72.1579 48.3438 72.2734C48.331 72.3824 48.2415 72.4594 48.1327 72.4594Z" fill="#EEA489"/>
<path d="M50.237 82.3022C50.1602 82.3022 50.0835 82.2573 50.0515 82.1803C50.0067 82.0777 50.0515 81.9622 50.1538 81.9172L52.6736 80.8136C52.7375 80.7687 53.134 80.4607 53.3387 79.787C53.3707 79.6779 53.4858 79.6202 53.5881 79.6523C53.6968 79.6843 53.7544 79.7998 53.7224 79.9025C53.4474 80.788 52.8974 81.1409 52.8782 81.1601L52.8526 81.1729L50.3201 82.283C50.2881 82.3022 50.2625 82.3022 50.237 82.3022Z" fill="#EEA489"/>
</g>
</g>
<defs>
<linearGradient id="paint0_linear_2060_3907" x1="44.1637" y1="12.9297" x2="93.7746" y2="64.1616" gradientUnits="userSpaceOnUse">
<stop stop-color="#FF7A93"/>
<stop offset="1" stop-color="#FF0062"/>
</linearGradient>
<clipPath id="clip0_2060_3907">
<rect width="100" height="105" fill="white"/>
</clipPath>
<clipPath id="clip1_2060_3907">
<rect width="74" height="107" fill="white" transform="translate(17 0.999939)"/>
</clipPath>
</defs>
</svg>
