<svg width="123" height="105" viewBox="0 0 123 105" fill="none" xmlns="http://www.w3.org/2000/svg">
<g clip-path="url(#clip0_2060_4025)">
<path d="M5.19814 81.6053C7.862 86.0548 11.2843 89.6015 15.5206 92.3928C15.6038 92.448 15.6778 92.5033 15.7611 92.5494C24.5481 98.2425 36.7482 100.739 52.6389 101.282C53.1661 101.301 53.7026 101.319 54.239 101.329C56.0797 101.375 57.9666 101.402 59.8997 101.402C63.2851 101.402 66.5224 101.31 69.6117 101.126C85.3729 100.214 97.3788 97.1278 105.805 93.3784C112.983 90.191 117.561 86.5062 119.633 83.2819C119.698 83.1806 119.753 83.0885 119.818 82.9872C119.864 82.9042 119.92 82.8213 119.966 82.7384C120.873 81.2553 121.557 79.7168 122.047 78.1508C122.047 78.1416 122.056 78.1416 122.056 78.1324C126.034 65.4564 116.978 50.5236 100.875 38.1701C98.1465 36.0789 95.2236 34.0615 92.125 32.1453C89.2854 30.3858 86.3071 28.7184 83.2085 27.1431C82.7368 26.9036 82.2651 26.6641 81.7841 26.4338C81.2661 26.1851 80.7574 25.9271 80.2302 25.6876C80.0544 25.6047 79.8787 25.5218 79.7029 25.4389C79.518 25.356 79.333 25.2639 79.1572 25.181C79.1387 25.1717 79.111 25.1625 79.0925 25.1533C73.6815 22.6568 71.8871 18.1982 69.1308 14.0158C66.6889 10.3218 63.4978 6.83037 56.3849 5.09849C54.0171 4.51812 51.6954 4.18648 49.4385 4.05751C48.6246 4.01145 47.8199 3.99303 47.0152 4.00224C46.7839 4.00224 46.5527 4.01145 46.3215 4.02067C44.8693 4.06673 43.4541 4.1957 42.0574 4.39836C41.8447 4.426 41.632 4.46285 41.4192 4.4997C36.85 5.25509 32.5859 6.83958 28.6641 8.96759C28.4977 9.05971 28.3219 9.15183 28.1554 9.25316C27.2582 9.75983 26.3795 10.2849 25.5101 10.8377C25.3343 10.9574 25.1586 11.068 24.9828 11.1877C24.5574 11.4733 24.1319 11.7589 23.7157 12.0537C23.4289 12.2563 23.1422 12.459 22.8647 12.6617C22.726 12.763 22.5965 12.8643 22.4577 12.9564C11.6635 21.0447 4.48593 32.6796 2.46029 39.3124C-1.27652 51.4816 -1.05453 71.1496 5.19814 81.6053Z" fill="#DEE5F9"/>
<g clip-path="url(#clip1_2060_4025)">
<path d="M90.0721 84.0924C87.9531 86.5815 84.0597 85.5098 84.0597 85.5098C84.0597 85.5098 84.051 85.7086 84.0252 86.037C83.9821 86.668 83.896 87.8002 83.7496 89.0102C83.5084 90.998 83.1035 93.2106 82.4661 93.8502C81.2257 95.0948 71.8539 97.7568 64.7733 98.2926C57.7013 98.8198 47.0805 95.985 47.0805 95.985C47.0805 95.985 46.021 94.9219 45.6678 93.8588C45.4266 93.1415 45.2716 89.7362 45.194 87.61C45.1596 86.5902 45.1337 85.8642 45.1337 85.8642C45.1337 85.8642 44.9959 85.8815 44.7117 85.8901C44.0053 85.9074 42.3601 85.8901 39.4744 85.5098C35.4087 84.974 32.2216 83.9109 30.8089 82.6663C29.3876 81.4304 28.8536 74.326 29.0345 69.8922C29.0948 68.3451 29.603 66.5042 30.2835 64.6546C30.7314 63.4273 31.2568 62.1914 31.7651 61.0419C32.213 60.0307 32.6523 59.0886 33.0313 58.2675C33.4448 57.36 33.7893 56.5995 33.9788 56.0463C34.4353 54.7672 34.8402 52.8744 35.3312 50.852C35.7877 48.9505 36.3046 46.9368 36.9937 45.2168C38.1307 42.356 40.7751 39.4953 44.0656 37.8358C44.8581 37.4383 45.685 37.1098 46.5464 36.8678C50.9739 35.6233 53.6184 34.7417 55.3928 33.4971C57.1586 32.2525 59.2863 32.9613 59.2863 32.9613C59.2863 32.9613 71.3198 33.4971 73.0856 34.0243C74.8515 34.5602 76.6259 35.4418 79.6321 36.332C82.6384 37.2222 87.9445 40.057 89.5381 43.4364C90.2788 45.0094 90.7182 47.196 91.0541 49.4086C91.1144 49.7716 91.1661 50.1433 91.2178 50.5063C91.5279 52.667 91.7863 54.7499 92.1911 56.2105C92.3806 56.902 92.5615 57.6885 92.7166 58.5528C92.8458 59.2615 92.9664 60.022 93.087 60.8085C93.2162 61.6988 93.3281 62.6322 93.4401 63.5829C93.6555 65.4584 93.8277 67.3857 93.9656 69.1748C94.3187 73.6173 92.1911 81.6119 90.0721 84.0924Z" fill="#759C7B"/>
<path opacity="0.5" d="M48.0709 53.5658C48.2174 57.5674 48.3552 61.5691 48.5016 65.5621C48.5361 66.5733 48.5792 67.6104 48.9926 68.5266C49.3975 69.4514 50.2675 70.2379 51.2753 70.2465C49.2683 70.0996 47.2699 69.9613 45.2628 69.8144C43.9621 69.7193 46.0122 57.7576 46.2534 56.5994C46.5635 55.1474 46.2793 55.1388 45.995 53.8337C45.8744 53.2806 45.5212 52.399 45.8055 51.8459C46.8047 49.8321 48.0193 52.2262 48.0709 53.5658Z" fill="#5E542A"/>
<path opacity="0.5" d="M84.0253 86.037C83.9822 86.668 83.8961 87.8002 83.7496 89.0102C80.6573 86.8408 78.0904 83.9195 76.3417 80.5661C70.2173 82.4675 64.9629 87.6446 58.5628 87.3421C56.2026 87.2297 53.9027 86.3568 51.5425 86.4346C49.3977 86.5037 47.2959 87.3594 45.1855 87.61C45.151 86.5902 45.1252 85.8642 45.1252 85.8642C45.1252 85.8642 44.9874 85.8815 44.7031 85.8901C46.2536 84.974 48.1831 85.3283 49.5527 85.1555C52.49 84.7925 54.8416 84.9394 57.7789 84.7147C60.0444 84.5418 62.172 84.5677 64.3254 83.8244C67.4867 82.7354 71.5008 80.6007 74.6707 79.5117C74.9894 79.3993 75.3425 79.2956 75.6526 79.4079C75.7991 79.4598 75.9197 79.5549 76.0403 79.6499C78.4607 81.5773 80.8812 83.5047 83.3017 85.432C83.5429 85.6308 83.7927 85.8296 84.0253 86.037Z" fill="#5E542A"/>
<path opacity="0.5" d="M91.0627 49.4172C87.264 45.2514 83.8012 40.5583 78.7191 38.2247C76.4622 37.1876 74.0073 36.6863 71.5782 36.1937C68.3136 35.5282 65.0489 34.8627 61.7843 34.2058C59.9926 33.8428 58.0545 33.4884 56.3748 34.2144C55.255 34.6984 54.3591 35.6232 53.2221 36.0899C51.6716 36.7295 49.9144 36.427 48.2433 36.6258C46.8393 36.7987 45.4524 37.3345 44.0742 37.8272C44.8667 37.4296 45.6936 37.1012 46.555 36.8592C50.9825 35.6146 53.627 34.733 55.4014 33.4884C57.1672 32.2439 59.2949 32.9526 59.2949 32.9526C59.2949 32.9526 71.3284 33.4884 73.0942 34.0157C74.8601 34.5515 76.6345 35.4331 79.6407 36.3233C82.647 37.2135 87.9531 40.0484 89.5467 43.4277C90.2788 45.0094 90.7181 47.2047 91.0627 49.4172Z" fill="#5E542A"/>
<path d="M73.5164 70.1082C73.5164 70.1601 73.5164 70.2206 73.5164 70.2724L71.9056 72.7356C71.9056 72.7356 70.6997 72.2949 68.6582 72.7356C68.6582 72.7356 67.5987 71.4911 65.2988 71.3182C62.9989 71.1367 59.1916 70.428 58.0459 70.5144C57.0037 70.5922 55.367 71.3355 53.7562 71.0676C53.8165 70.0736 53.9113 68.9328 53.9802 67.7574C54.1525 64.741 52.3005 55.7438 53.9802 54.6202C55.5738 53.5572 61.5862 53.73 64.2393 54.2659C65.5744 54.5338 67.8485 54.5338 69.778 54.5338C69.7005 56.029 69.7005 57.4896 69.8986 58.3539C70.4326 60.6616 71.8453 63.8594 72.9048 67.7574C73.1374 68.5784 73.3355 69.3563 73.5164 70.1082Z" fill="#EACDB2"/>
<path d="M45.1338 86.2185C44.9615 86.2185 44.8065 86.0889 44.7893 85.9074C44.772 85.7173 44.9099 85.5444 45.0994 85.5185C46.357 85.3802 47.4682 85.1814 48.5363 84.9999C50.1385 84.7233 51.6459 84.4554 53.2739 84.4554C55.8667 84.4554 59.0968 84.4554 61.7413 84.2825C63.955 84.1356 67.6762 81.8712 68.6065 81.2835C68.038 79.0968 68.2533 73.9457 68.305 72.8999C68.038 72.7011 67.28 72.2258 65.7467 71.8368C63.6536 71.3096 58.3991 70.7824 55.436 71.1368C53.4806 71.3701 52.0852 71.154 50.3193 70.8861C49.3115 70.7305 48.1659 70.5577 46.6929 70.428C42.8167 70.091 40.0603 72.1134 40.0344 72.1307C39.8794 72.243 39.664 72.2171 39.5434 72.0615C39.4315 71.906 39.4573 71.6899 39.6123 71.5689C39.7329 71.4825 42.6013 69.365 46.7532 69.728C48.2434 69.8576 49.4063 70.0391 50.4227 70.1947C52.1972 70.4626 53.4892 70.6614 55.3498 70.4453C58.3905 70.0823 63.7655 70.6268 65.9104 71.1627C68.0983 71.7158 68.8735 72.4678 68.908 72.4937L69.02 72.606L69.0114 72.7616C69.0114 72.8308 68.6668 79.287 69.3473 81.3267L69.4334 81.586L69.2095 81.7329C69.02 81.8539 64.4977 84.8011 61.7844 84.9826C59.1227 85.1641 55.8753 85.1641 53.2653 85.1641C51.6976 85.1641 50.216 85.4234 48.6483 85.7C47.5629 85.8901 46.4431 86.0889 45.1683 86.2272C45.1597 86.2185 45.1424 86.2185 45.1338 86.2185Z" fill="#5E542A"/>
<path d="M65.5139 40.4632C62.8953 40.4632 60.1561 39.815 58.4591 38.9161C55.8233 37.5246 55.2548 35.0614 55.2289 34.9577C55.1859 34.7676 55.3065 34.5774 55.496 34.5342C55.6855 34.491 55.875 34.612 55.9094 34.8021C55.9181 34.8367 56.4521 37.0666 58.7865 38.2939C61.1466 39.5384 65.712 40.2558 68.7354 39.331C71.5952 38.4581 72.6289 36.5912 72.6461 36.5739C72.7409 36.4011 72.9476 36.3406 73.1199 36.4356C73.2922 36.5307 73.3525 36.7381 73.2663 36.911C73.2232 36.9974 72.1034 39.0458 68.9422 40.0138C67.8999 40.3249 66.7198 40.4632 65.5139 40.4632Z" fill="#5E542A"/>
<path d="M46.8997 56.0463C46.8997 57.8181 46.2709 61.0592 45.9866 63.2717C45.3923 62.589 43.8762 61.0246 41.1112 59.2355C38.5184 57.5588 34.9523 57.9045 33.04 58.2589C33.4535 57.3514 33.7981 56.5908 33.9876 56.0377C34.4441 54.7585 34.8489 52.8657 35.3399 50.8433C36.0118 50.8347 41.6797 50.7655 44.2983 51.6471C45.2545 51.9669 46.0039 52.3904 46.581 52.8225C46.7533 53.8942 46.8997 55.0956 46.8997 56.0463Z" fill="#EACDB2"/>
<path d="M45.8401 64.9398C45.8401 65.8386 45.7454 67.1351 45.6592 68.1981C44.5222 67.3252 41.9811 65.5275 39.5089 64.8361C37.1918 64.1879 32.7471 64.4385 30.2749 64.6546C30.7228 63.4273 31.2483 62.1914 31.7565 61.0419C33.4103 60.7653 36.7956 60.4109 39.7673 61.3703C42.6358 62.2951 44.7892 63.9891 45.8401 64.9398Z" fill="#D3B297"/>
<path d="M92.7251 58.5614C91.5623 58.449 89.7964 58.3799 88.4871 58.7083C87.5568 58.9417 86.6524 59.2269 85.9288 59.4689C85.2828 57.5675 85.1708 55.0437 84.0596 52.667C83.8357 52.1916 83.5428 51.699 83.1982 51.2063C85.7652 49.9099 89.4174 50.2383 91.2263 50.5149C91.5364 52.6756 91.7949 54.7585 92.1997 56.2192C92.3892 56.9106 92.5615 57.7057 92.7251 58.5614Z" fill="#EACDB2"/>
<path d="M93.4399 63.5915C92.4666 63.4705 91.3123 63.3927 90.2097 63.5051C89.2794 63.6001 88.5042 63.773 87.9012 63.9631C87.5825 63.2112 87.2294 62.4334 86.9106 61.716C87.5825 61.4567 88.3147 61.232 89.021 61.1024C90.4079 60.8604 92.0445 60.8171 93.0954 60.8171C93.216 61.7074 93.3366 62.6408 93.4399 63.5915Z" fill="#D3B297"/>
<path d="M68.813 81.802L68.701 81.5946C67.3831 79.0795 68.2703 72.9431 68.3134 72.6838L68.3478 72.4418L68.589 72.3986C69.7777 72.1652 71.845 72.3813 71.9398 72.3899L72.2843 72.4245L72.2499 72.7702C72.2499 72.7961 72.0345 75.1383 72.1293 76.8583C72.1724 77.6707 72.2843 78.4053 72.3705 78.9844C72.5341 80.0475 72.6289 80.6957 72.2585 81.0587C71.8192 81.4995 69.8552 81.7156 69.0369 81.7847L68.813 81.802ZM68.9766 73.0381C68.8302 74.1876 68.2961 78.9066 69.2264 81.0587C70.3462 80.9463 71.578 80.7389 71.7761 80.5574C71.8881 80.4364 71.7675 79.6586 71.69 79.0881C71.6038 78.4918 71.4919 77.7398 71.4402 76.8928C71.3627 75.5013 71.4746 73.7814 71.5263 73.0468C70.9578 73.0036 69.7949 72.9344 68.9766 73.0381Z" fill="#5E542A"/>
<path d="M45.4867 70.4194C45.4781 70.4194 45.4608 70.4194 45.4522 70.4194C45.2627 70.4021 45.1163 70.2292 45.1421 70.0304C45.1421 70.0218 45.2283 69.2007 45.3144 68.1636C45.435 66.7548 45.4953 65.6658 45.4953 64.9398V64.9225C45.4953 64.5336 45.547 63.9718 45.6417 63.2285C45.7279 62.5457 45.8485 61.7765 45.9777 60.9641C46.2619 59.1404 46.5548 57.2476 46.5548 56.0463C46.5548 55.2511 46.4428 54.1881 46.2275 52.883C45.9777 51.3878 45.6762 50.1086 45.6762 50.0914C45.6331 49.9012 45.7451 49.7111 45.9346 49.6679C46.1241 49.6246 46.3136 49.737 46.3567 49.9271C46.3567 49.9444 46.6668 51.2409 46.9166 52.762C47.1405 54.1016 47.2525 55.2079 47.2525 56.0376C47.2525 57.2995 46.951 59.2096 46.6668 61.0678C46.5376 61.8802 46.4256 62.6408 46.3308 63.3149C46.2361 64.0323 46.193 64.5595 46.193 64.9139V64.9311C46.193 65.6831 46.1327 66.7894 46.0121 68.2154C45.926 69.2526 45.8398 70.0823 45.8398 70.0909C45.814 70.2897 45.6676 70.4194 45.4867 70.4194Z" fill="#5E542A"/>
<path d="M71.8711 49.9012C71.3543 49.9012 70.8116 49.8753 70.2259 49.8234L69.9589 49.7975L69.2095 45.6749L69.6574 45.7094C69.6746 45.7094 71.4835 45.8218 73.904 45.0612C75.1099 44.6809 75.9627 44.2401 76.6432 43.8944C77.3926 43.5141 77.9267 43.2376 78.4435 43.324C79.124 43.4364 79.3049 44.4303 79.3824 45.1736C79.4599 45.9169 79.4427 46.6256 79.4427 46.6601V46.7466L79.3996 46.8244C79.3307 46.9454 77.5563 49.9012 71.8711 49.9012ZM70.5532 49.1493C76.3676 49.5901 78.4349 46.9886 78.7536 46.5305C78.7536 46.3231 78.7536 45.8045 78.7019 45.2773C78.5899 44.1451 78.3401 44.0154 78.3315 44.0154C78.0387 43.9636 77.5907 44.1969 76.9619 44.5167C76.29 44.8624 75.377 45.3291 74.1194 45.7354C72.2674 46.3231 70.7686 46.4181 70.0536 46.4268L70.5532 49.1493Z" fill="#5E542A"/>
<path d="M84.0594 85.8642C84.025 85.8642 83.9819 85.8555 83.9474 85.8469C82.2333 85.2764 80.3555 84.2047 78.7964 82.9256C77.5301 81.8798 75.8763 80.2117 75.2389 78.1634C74.6187 76.1928 74.1794 74.3346 73.7056 72.364C73.5419 71.6639 73.3697 70.9379 73.1802 70.1947C72.9648 69.3131 72.7667 68.5698 72.5772 67.8524C72.0345 65.8646 71.3971 64.0496 70.8372 62.4507C70.2945 60.9036 69.8294 59.5726 69.5623 58.4317C69.3815 57.6452 69.3384 56.3315 69.4331 54.5165C69.5623 52.0447 69.9069 49.4518 69.9069 49.4259L69.9586 49.0629L70.3117 49.1234C70.329 49.1234 72.3963 49.4518 74.946 48.7777C77.4612 48.1035 78.8222 46.4268 78.8308 46.4095L79.0634 46.1157L79.339 46.3663C79.4424 46.4614 81.8974 48.6999 83.4823 50.9989C83.8613 51.5434 84.1542 52.0533 84.3695 52.5114C85.0586 53.9979 85.3773 55.5537 85.6616 56.9279C85.8253 57.7403 85.9889 58.5095 86.2043 59.1923L86.256 59.3565C86.3335 59.5812 86.411 59.7887 86.4971 59.9788C86.5919 60.1862 86.6953 60.4196 86.8072 60.6616C86.9364 60.9468 87.0743 61.2493 87.2207 61.5604C87.4791 62.1309 87.8667 62.9779 88.2199 63.8162C88.9176 65.467 89.2794 66.5387 89.3569 67.1783C89.3828 67.3684 89.245 67.5499 89.0555 67.5672C88.8659 67.5932 88.6851 67.4549 88.6678 67.2647C88.5989 66.7029 88.2285 65.6399 87.5739 64.0928C87.2207 63.2631 86.8417 62.4161 86.5833 61.8543C86.4368 61.5345 86.299 61.2407 86.1698 60.9554C86.0578 60.7134 85.9545 60.4801 85.8597 60.2727C85.7908 60.1257 85.7305 59.9788 85.6788 59.8232L85.5927 59.5812C85.3343 58.8207 85.162 57.9737 84.9811 57.0748C84.6969 55.6747 84.3954 54.2313 83.7407 52.8139C83.5426 52.3904 83.267 51.915 82.9138 51.4051C81.6648 49.5987 79.8042 47.7751 79.1323 47.1355C78.6069 47.6887 77.2459 48.89 75.1355 49.4604C73.0509 50.0136 71.3023 49.9358 70.5702 49.8667C70.4754 50.6445 70.2428 52.6324 70.1395 54.5511C70.0447 56.2969 70.0878 57.5502 70.2514 58.2675C70.5099 59.3738 70.9664 60.6875 71.5005 62.2173C72.069 63.8249 72.7064 65.6485 73.2577 67.6623C73.4558 68.3883 73.6453 69.1316 73.8693 70.0218C74.0588 70.7737 74.231 71.4997 74.3947 72.1998C74.8599 74.1531 75.2992 75.994 75.9107 77.9473C76.8927 81.0674 80.8895 84.0751 84.18 85.1727C84.3609 85.2332 84.4643 85.432 84.404 85.6135C84.3437 85.7691 84.2059 85.8642 84.0594 85.8642Z" fill="#5E542A"/>
<path d="M86.618 118.75C86.5319 119.053 86.0323 119.39 85.2743 119.71C83.7152 120.375 81.0621 121.006 78.6588 121.274C75.0755 121.671 69.5885 121.585 68.6582 120.652C67.7279 119.718 68.038 119.217 67.771 116.555C67.5039 113.893 67.6418 114.714 66.1774 114.844C64.7217 114.973 64.1876 119.675 63.5243 120.47C62.8611 121.265 61.3967 121.533 54.497 121.931C47.5974 122.328 46.5379 120.202 46.5379 120.202C46.5379 120.202 46.2708 119.666 46.4086 112.216C46.512 106.425 46.8566 99.8223 47.003 97.169C47.0461 96.4084 47.0719 95.9676 47.0719 95.9676L54.3248 95.5355L65.1265 94.8873L82.4575 93.8415C82.4575 93.8415 83.8702 97.2122 84.4043 100.056C84.9469 102.925 86.8851 117.825 86.618 118.75Z" fill="#7F556F"/>
<path opacity="0.5" d="M86.6183 118.75C86.5321 119.053 86.0325 119.39 85.2745 119.71C84.9816 114.584 84.1806 109.494 82.8971 104.533C82.4492 102.821 81.6912 100.885 80.3043 99.9866C79.9339 99.7446 79.5205 99.5803 79.0467 99.5112C78.6763 99.4593 78.3059 99.468 77.9441 99.5285C77.1861 99.6495 76.4281 99.952 75.6873 100.194C72.8964 101.084 69.8902 101.05 66.9701 100.79C66.2638 100.73 65.5574 100.652 64.8511 100.566C61.9913 100.22 59.1574 99.6927 56.3406 99.1223C56.1597 99.0877 55.9789 99.0445 55.7894 99.0099H55.7807C54.7815 98.8025 53.7823 98.595 52.7831 98.379C50.8881 97.9728 48.8724 97.7135 46.9946 97.1863C47.0377 96.4257 47.0635 95.9849 47.0635 95.9849L54.3164 95.5528C57.9256 95.57 61.5434 95.4318 65.1181 94.9045L82.4492 93.8588C82.4492 93.8588 83.8618 97.2295 84.3959 100.073C84.9472 102.925 86.8853 117.825 86.6183 118.75Z" fill="#663E59"/>
<path d="M67.1164 111.836C67.0647 111.836 67.0216 111.827 66.9699 111.81C66.901 111.784 65.3419 111.205 64.7476 110.004C64.6356 109.779 64.3686 109.243 64.4375 103.098C64.4719 100.108 64.5667 97.2036 64.5667 97.1776C64.5753 96.9443 64.7734 96.7628 64.9974 96.7714C65.2299 96.7801 65.4108 96.9788 65.4022 97.2036C65.2127 102.735 65.1783 108.975 65.4884 109.632C65.9363 110.531 67.237 111.015 67.2456 111.023C67.4609 111.101 67.5729 111.343 67.4954 111.568C67.4523 111.724 67.2887 111.836 67.1164 111.836Z" fill="#663E59"/>
<path d="M79.3653 100.462C79.0724 100.462 78.7967 100.445 78.5728 100.393C77.1429 100.073 76.7036 97.7826 76.6605 97.5234C76.6174 97.29 76.7725 97.0739 77.0051 97.0307C77.2376 96.9875 77.453 97.1431 77.496 97.3764C77.5908 97.895 78.0215 99.3989 78.7623 99.5717C79.6667 99.7705 81.803 99.3556 82.5524 99.1741C82.7763 99.1223 83.0089 99.2606 83.0606 99.4853C83.1123 99.71 82.9744 99.9434 82.7505 99.9952C82.6385 100.012 80.7435 100.462 79.3653 100.462Z" fill="#663E59"/>
<path d="M54.5227 102.018C52.7052 102.018 48.6567 101.361 48.4758 101.335C48.2432 101.3 48.0881 101.084 48.1312 100.851C48.1657 100.618 48.381 100.462 48.6136 100.505C48.6653 100.514 53.489 101.292 54.8758 101.171C55.7545 101.093 55.9526 99.3816 55.9526 98.7939C55.9526 98.5605 56.1421 98.3704 56.3746 98.3704C56.6072 98.3704 56.7967 98.5605 56.7967 98.7939C56.7967 98.9149 56.7795 101.845 54.9534 102.009C54.8242 102.009 54.6863 102.018 54.5227 102.018Z" fill="#663E59"/>
<path d="M64.1533 100.211C62.9215 100.211 61.6036 100.151 60.1737 99.9952C53.8512 99.3383 48.3642 97.9987 48.3039 97.99C48.0799 97.9382 47.9421 97.7048 47.9938 97.4801C48.0454 97.2554 48.278 97.1171 48.502 97.169C48.5537 97.1863 53.989 98.5 60.2599 99.1568C66.1517 99.7705 70.183 98.8975 73.7319 98.1197C73.9731 98.0678 74.2143 98.016 74.4555 97.9641C78.0733 97.1863 81.3638 95.6133 81.3982 95.596C81.6049 95.4923 81.8547 95.5873 81.9581 95.7948C82.0615 96.0022 81.9667 96.2528 81.76 96.3566C81.6222 96.4257 78.3575 97.9814 74.6364 98.7852C74.3952 98.837 74.154 98.8889 73.9128 98.9408C71.1564 99.5544 68.1157 100.211 64.1533 100.211Z" fill="#663E59"/>
<path d="M59.4156 28.3546C59.4156 28.3546 58.5629 32.7798 57.6929 34.5688C57.6929 34.5688 59.3381 38.0605 64.515 38.2939C70.7601 38.5791 71.7593 35.8134 71.7593 35.8134C71.7593 35.8134 71.2252 31.0166 71.096 30.2215C70.9668 29.4177 59.4156 28.3546 59.4156 28.3546Z" fill="#FED0B9"/>
<path d="M72.1641 72.5282L73.2839 70.5058C73.2839 70.5058 75.0755 77.5065 75.4287 78.3967C75.7819 79.2869 74.6707 80.1944 74.1452 80.5488C73.6112 80.9032 72.3363 80.6871 72.3363 80.6871C72.3363 80.6871 71.5266 76.5385 72.1641 72.5282Z" fill="#FED0B9"/>
<path d="M81.846 17.6115C81.7598 19.2969 79.279 20.0056 78.1334 20.9822C76.9791 21.9589 76.9791 21.6045 75.9196 24.353C74.8601 27.1014 71.2337 31.8982 69.7263 32.6933C68.2189 33.4885 64.6872 33.9379 62.9989 33.1341C61.3192 32.3303 58.3991 30.2042 57.9598 27.983C57.8995 27.6718 57.865 27.2915 57.8564 26.8767C57.7961 24.3616 58.5972 20.3081 58.6661 18.4845C58.7523 16.3497 57.8823 14.8977 57.4257 13.0654C56.4524 9.17609 59.1141 7.84509 60.4406 7.04995C61.7671 6.25481 61.2331 4.47438 63.0936 2.60752C64.9456 0.749308 67.8657 0.567808 69.3731 1.72595C70.536 2.62481 71.4921 2.65938 72.4397 2.51245C72.7153 2.46924 72.9909 2.40874 73.2666 2.34824C74.507 2.08031 79.0206 4.82874 80.1663 6.52274C81.3119 8.20809 80.6056 10.4293 80.8726 12.8234C81.1396 15.2175 81.9321 15.9262 81.846 17.6115Z" fill="#6D2931"/>
<path d="M81.846 17.6115C81.7598 19.2969 79.2791 20.0056 78.1334 20.9823C76.9792 21.9589 76.9792 21.6045 75.9197 24.353C74.8602 27.1014 71.2337 31.8982 69.7263 32.6933C68.2189 33.4885 64.6872 33.9379 62.9989 33.1341C61.3192 32.3303 58.3991 30.2042 57.9598 27.983C57.8995 27.6718 57.8651 27.2915 57.8564 26.8767C58.089 27.1187 58.3302 27.378 58.58 27.6286C58.5283 28.4843 59.7256 28.3028 60.0013 29.1065C60.096 29.3918 60.2253 29.6856 60.4492 29.9017C60.6559 30.1005 60.9402 30.2128 61.2072 30.3165C62.1892 30.7055 63.1798 31.0944 64.1704 31.4747C64.7906 31.7167 65.4366 31.9673 66.0999 31.9328C67.3058 31.8809 68.2964 30.9302 68.8391 29.8498C69.3818 28.7695 69.5713 27.5595 69.8986 26.4013C70.0709 25.779 70.3551 25.1049 70.9495 24.8629C71.1734 24.7678 71.4232 24.7505 71.6644 24.6814C72.8187 24.3703 73.4475 23.1516 73.9385 22.054C74.5501 20.6711 75.1789 19.2105 75.0669 17.698C74.9205 15.883 73.7404 14.3532 72.9479 12.7197C72.7412 12.2962 72.5861 11.7258 72.9393 11.406C73.2321 11.138 73.7145 11.2418 74.016 11.501C74.3175 11.7517 74.5156 12.1147 74.774 12.4085C75.4459 13.1864 76.6777 13.463 77.5563 12.9444C78.1937 11.3109 76.6346 9.62554 76.6346 7.87968C76.6346 6.99811 77.0222 6.07332 76.6604 5.27818C76.2728 4.42254 75.2478 4.13732 74.395 3.76568C73.6801 3.45454 73.0254 3.0224 72.4569 2.49518C72.7325 2.45197 73.0082 2.39147 73.2838 2.33097C74.5242 2.06304 79.0379 4.81147 80.1835 6.50547C81.3291 8.19082 80.6228 10.412 80.8898 12.8061C81.1396 15.2175 81.9321 15.9262 81.846 17.6115Z" fill="#683528"/>
<path d="M68.572 8.11302C66.832 8.89088 66.5822 7.31788 64.9886 7.44752C63.395 7.57717 61.9393 9.1761 61.5345 11.4405C61.1382 13.705 61.1382 16.2373 60.742 17.698C60.3458 19.1586 59.0192 23.1602 60.2079 23.9554C61.4053 24.7505 62.7318 22.754 63.5243 22.3565C64.3167 21.9589 65.1178 23.022 66.0481 23.5578C66.9784 24.0937 69.2352 23.2899 69.6315 23.8257C70.0277 24.3616 70.0277 24.3616 70.0277 24.3616C70.0277 24.3616 69.2352 27.1619 70.0277 27.6891C70.8202 28.225 74.2743 24.8888 74.8084 22.7627C75.3424 20.6365 76.4019 19.0376 77.0652 17.0411C77.7285 15.0446 75.3424 15.0446 74.8084 13.0481C74.2743 11.0516 74.6792 8.65752 73.6111 8.12167C72.5602 7.58581 69.7693 7.58581 68.572 8.11302Z" fill="#FED0B9"/>
<path d="M70.8548 19.7204C71.1821 19.8586 71.3113 20.2908 71.3888 20.6711C71.475 21.0514 71.5525 21.4316 71.6386 21.8119C71.6903 22.0453 71.742 22.2873 71.8971 22.4515C72.0521 22.6157 72.3277 22.6849 72.4828 22.512C72.4914 22.5034 72.5 22.4861 72.5086 22.4688C72.5259 22.4256 72.5 22.3737 72.4742 22.3391C72.3364 22.0971 72.2502 21.8119 72.2416 21.5267C72.233 21.2934 72.2761 21.0514 72.4139 20.8699C72.5517 20.6884 72.7843 20.5933 72.9824 20.6797C73.0772 20.4896 73.1633 20.2908 73.1891 20.0747C73.215 19.8586 73.1547 19.6166 72.9996 19.487C72.8187 19.3401 72.5775 19.366 72.3536 19.3746C71.7678 19.4092 71.096 19.0203 70.5619 19.0894C69.7781 19.2018 70.493 19.5734 70.8548 19.7204Z" fill="#FBE5CF"/>
<path d="M68.9336 21.086C68.925 21.086 68.925 21.086 68.9164 21.086C68.7613 21.0773 68.6407 20.9477 68.6494 20.7921C68.6494 20.7143 68.7441 18.8647 69.2006 17.8449C69.64 16.8769 70.4324 15.278 70.441 15.2607C70.51 15.1224 70.6822 15.0619 70.82 15.131C70.9579 15.2002 71.0182 15.373 70.9493 15.5113C70.9406 15.5286 70.1482 17.1189 69.7175 18.0782C69.304 18.9944 69.2093 20.8007 69.2093 20.818C69.2006 20.9736 69.0801 21.086 68.9336 21.086Z" fill="#AD6842"/>
<path d="M66.5049 23.9727C66.3499 23.9727 66.1862 23.9468 66.0225 23.8603C65.5832 23.6443 65.3076 23.3072 65.2214 23.1862C65.0664 23.0738 64.6099 22.6849 64.6099 22.1577C64.6099 21.6132 64.9372 21.086 64.9458 21.06C65.0319 20.9304 65.2042 20.8872 65.3334 20.9736C65.4626 21.06 65.5057 21.2329 65.4196 21.3625C65.4196 21.3625 65.1698 21.7774 65.1698 22.1577C65.1698 22.4256 65.4712 22.6849 65.5746 22.754L65.6177 22.7886L65.6521 22.8318C65.6521 22.8318 65.8761 23.1689 66.2723 23.3677C66.591 23.5233 66.9873 23.2726 66.9959 23.264L67.0734 23.2121L67.1682 23.2208C67.4955 23.2467 67.9262 23.2208 68.064 23.143C68.1502 23.0738 68.2621 22.633 68.2794 22.2441C68.288 22.0885 68.4258 21.9675 68.5722 21.9848C68.7273 21.9935 68.8479 22.1318 68.8306 22.2787C68.8134 22.6071 68.7187 23.3936 68.3397 23.627C68.0382 23.8085 67.4438 23.7998 67.2026 23.7912C67.082 23.8517 66.815 23.9727 66.5049 23.9727Z" fill="#AD6842"/>
<path d="M63.5931 24.8024C63.283 25.4247 65.4192 24.8629 66.1255 26.1074C66.8319 27.352 66.9524 27.8274 67.4779 27.5249C68.0119 27.231 67.8311 25.8049 66.9438 25.2172C66.0652 24.6209 63.8859 24.206 63.5931 24.8024Z" fill="white"/>
<path d="M62.9561 13.7049C62.9561 14.2149 64.4118 13.5234 65.523 13.7049C66.6255 13.8864 66.9787 14.4137 67.3836 13.7914C67.7798 13.1691 66.6772 12.4604 65.2646 12.59C63.8519 12.7197 62.9561 13.2642 62.9561 13.7049Z" fill="#834B38"/>
<path d="M71.0098 15.3471C70.4843 15.6842 71.3629 16.7645 72.2502 16.8596C73.1374 16.946 74.016 16.7299 74.8171 17.3004C75.6096 17.8794 75.8335 17.6547 75.7904 17.2572C75.7474 16.8596 75.0841 16.1941 73.6198 15.9262C72.1554 15.6582 71.9831 14.7248 71.0098 15.3471Z" fill="#834B38"/>
<path d="M64.9627 14.9495C65.6088 15.1397 65.2987 17.2399 64.2392 17.188C63.1797 17.1275 63.4639 14.5001 64.9627 14.9495Z" fill="#42312F"/>
<path d="M72.8447 20.3081C72.7413 20.3081 72.6466 20.2562 72.5949 20.1525C72.5088 19.9796 72.3968 19.8154 72.2676 19.6858C71.6215 18.9944 70.6826 19.0549 70.674 19.0549C70.519 19.0635 70.3898 18.9511 70.3725 18.7956C70.3639 18.64 70.4759 18.5104 70.631 18.4931C70.6826 18.4931 71.8369 18.4066 72.6724 19.2969C72.8361 19.4697 72.9739 19.6685 73.0945 19.8932C73.1634 20.0315 73.1117 20.2044 72.9739 20.2735C72.9308 20.2994 72.8878 20.3081 72.8447 20.3081Z" fill="#42312F"/>
<path d="M72.3278 17.6375C71.8023 17.5165 71.1994 19.0895 71.9488 19.4698C72.7068 19.8414 73.5423 17.9227 72.3278 17.6375Z" fill="#42312F"/>
<path d="M66.479 18.8734C66.4359 18.8734 66.4015 18.8647 66.3584 18.8474C66.2206 18.7783 66.1603 18.6141 66.2206 18.4758C66.2292 18.4585 66.9183 16.946 67.0906 16.3842C67.2543 15.8484 67.194 14.8372 67.194 14.8199C67.1853 14.6643 67.3059 14.5347 67.461 14.526C67.616 14.5174 67.7452 14.6384 67.7539 14.7939C67.7539 14.8372 67.8142 15.9175 67.6247 16.5484C67.4438 17.1534 66.7547 18.6487 66.7288 18.7178C66.6857 18.8042 66.591 18.8734 66.479 18.8734Z" fill="#AD6842"/>
<path d="M63.8863 18.182C63.8519 18.8734 63.938 19.5648 64.0241 20.2476C64.05 20.4723 64.0844 20.7143 64.205 20.9045C64.2395 20.9563 64.2739 21.0082 64.3342 21.0168C64.3859 21.0255 64.429 20.9995 64.472 20.9736C64.7477 20.7835 64.808 20.4032 64.7821 20.0747C64.7563 19.7463 64.6616 19.4092 64.7132 19.0808C64.7391 18.9339 64.8166 18.7697 64.963 18.7265C65.0147 18.7092 65.075 18.7178 65.1267 18.7005C65.2904 18.64 65.3076 18.4067 65.2301 18.2511C65.1525 18.0955 65.0061 17.9832 64.9286 17.8276C64.8424 17.672 64.8511 17.4473 65.0061 17.3695C65.1784 17.2917 65.3937 17.456 65.5574 17.3522C65.678 17.2745 65.6608 17.067 65.5574 16.9633C65.454 16.8596 65.299 16.825 65.1525 16.7991C64.8597 16.7559 63.3953 16.5312 63.1886 16.8769C62.9646 17.2485 63.4556 17.2399 63.5848 17.4041C63.8088 17.698 63.9035 17.7671 63.8863 18.182Z" fill="#FBE5CF"/>
<path d="M63.0334 17.4819C62.9386 17.4819 62.8525 17.4387 62.8008 17.3522C62.7147 17.2226 62.7491 17.0497 62.8783 16.9633C63.0851 16.825 63.309 16.7213 63.5416 16.6522C64.7045 16.2978 65.6778 16.9374 65.7123 16.9719C65.8415 17.0584 65.876 17.2312 65.7898 17.3609C65.7037 17.4905 65.5314 17.5251 65.4022 17.4387C65.3936 17.43 64.6097 16.9201 63.7053 17.1967C63.5244 17.2485 63.3521 17.3349 63.1884 17.4387C63.1368 17.4646 63.0851 17.4819 63.0334 17.4819Z" fill="#42312F"/>
<path d="M70.9667 46.0638V41.8029C70.9667 41.8029 69.8124 39.1841 69.8124 38.2939C69.8124 37.4036 71.9315 33.1427 71.9315 33.1427L71.3974 31.0166L69.7177 31.1981C69.7177 31.1981 69.5368 32.5291 69.2784 33.0649C69.0114 33.6008 67.8657 33.1514 67.8657 33.1514C67.8657 33.1514 67.9519 30.0486 68.305 29.3312C68.6582 28.6225 69.8986 28.441 69.8986 28.441C69.8986 28.441 70.0795 26.9285 70.6911 26.5741C71.3113 26.2198 71.9315 26.1334 71.9315 26.1334C71.9315 26.1334 71.8712 24.7332 72.7067 24.4912C73.7231 24.206 75.2047 24.1801 75.2047 24.1801C75.2047 24.1801 73.6973 21.786 73.6112 20.8958C73.525 20.0056 74.6707 19.0289 74.6707 19.0289L76.7897 21.5181L78.2023 24.8888L79.2618 28.0866C79.2618 28.0866 80.0543 29.9535 80.2352 30.5758C80.4161 31.1981 79.615 32.7019 79.4427 33.0649C79.2618 33.4193 76.9619 38.8384 76.8758 39.3656C76.7897 39.9014 77.4099 44.0673 77.4099 44.0673C77.4099 44.0673 72.7325 46.4614 70.9667 46.0638Z" fill="#FED0B9"/>
<path d="M74.5928 31.2931C74.4895 31.2931 74.3947 31.2413 74.343 31.1462C74.0243 30.5499 73.4644 29.6337 73.206 29.4781C72.9304 29.3139 71.0784 28.9336 69.8552 28.7176L69.5796 28.6657L69.6313 28.3891C69.6485 28.3027 70.0361 26.1939 71.8881 25.8568C72.0431 25.8309 72.1896 25.9259 72.2154 26.0815C72.2413 26.2371 72.1465 26.384 71.9915 26.4099C70.8803 26.6174 70.4151 27.7064 70.2515 28.2163C71.1042 28.3719 73.094 28.7521 73.4989 28.9941C73.9813 29.288 74.7048 30.619 74.8426 30.8783C74.9116 31.0166 74.8599 31.1894 74.722 31.2586C74.679 31.2845 74.6359 31.2931 74.5928 31.2931Z" fill="#AD6842"/>
<path d="M76.4449 29.5214C76.3329 29.5214 76.2295 29.4522 76.1865 29.3399C75.7988 28.3114 75.0839 26.7643 74.7135 26.5569C74.3173 26.3321 72.8098 26.3494 71.9571 26.4186L71.647 26.4445L71.6556 26.1334C71.6987 24.3789 73.5076 23.9208 74.4723 23.9294C74.6704 23.9121 75.9367 23.8344 76.5138 24.2233C77.0823 24.6036 77.892 26.9458 78.1246 27.6545C78.1763 27.8014 78.0901 27.957 77.9437 28.0089C77.7973 28.0607 77.6422 27.9743 77.5905 27.8274C77.134 26.4618 76.4793 24.8715 76.1951 24.69C75.8678 24.4739 74.9805 24.4566 74.4895 24.4912H74.4809H74.4723C74.3862 24.4912 72.5256 24.4999 72.2413 25.8395C72.939 25.8049 74.4465 25.7617 74.9891 26.0729C75.661 26.4618 76.5396 28.7003 76.7033 29.1497C76.755 29.2966 76.6861 29.4609 76.5396 29.5127C76.5138 29.5127 76.4793 29.5214 76.4449 29.5214Z" fill="#AD6842"/>
<path d="M75.2133 24.4653C75.11 24.4653 75.0152 24.4134 74.9635 24.3184C74.9118 24.2146 73.6198 21.8033 73.3527 20.9909C73.034 20.0315 74.3519 18.9425 74.507 18.8215C74.6276 18.7264 74.7999 18.7437 74.9032 18.8647C74.998 18.9857 74.9808 19.1586 74.8602 19.2623C74.5587 19.5043 73.7231 20.3167 73.8868 20.818C74.1452 21.5872 75.4459 24.0331 75.4631 24.0591C75.532 24.1974 75.489 24.3702 75.3512 24.4394C75.2995 24.448 75.2564 24.4653 75.2133 24.4653Z" fill="#AD6842"/>
<path d="M68.572 33.4884C68.2619 33.4884 67.9604 33.4452 67.8226 33.4279L67.5728 33.3847L67.59 33.1341C67.6072 32.797 67.8053 29.8152 68.0551 29.2275C68.348 28.5361 69.5195 28.1298 69.9329 28.1731C70.088 28.1903 70.2 28.3286 70.1827 28.4842C70.1655 28.6398 70.0277 28.7521 69.8726 28.7348C69.6659 28.7176 68.7356 29.046 68.5633 29.4522C68.4169 29.8066 68.2446 31.6648 68.1585 32.918C68.5547 32.9612 68.9768 32.9439 69.0888 32.8575C69.2352 32.6587 69.4161 31.4746 69.4936 30.4721C69.5023 30.3165 69.6401 30.2041 69.7951 30.2128C69.9502 30.2214 70.0622 30.3597 70.0535 30.5153C69.9846 31.4228 69.8124 32.9871 69.4506 33.2896C69.2611 33.4366 68.9079 33.4884 68.572 33.4884Z" fill="#AD6842"/>
<path d="M70.1396 31.5351C70.0276 31.5351 69.9501 31.5265 69.9415 31.5265C69.7864 31.5178 69.6745 31.3796 69.6831 31.224C69.6917 31.0684 69.8295 30.9561 69.9846 30.9647C69.9932 30.9647 70.7426 31.0166 71.2853 30.7573C71.5006 30.6536 71.5954 30.5758 71.6298 30.5412C71.6298 30.4461 71.6729 30.3597 71.7504 30.2992C71.8796 30.2128 72.0519 30.2473 72.138 30.377C72.1639 30.4202 72.2242 30.5239 72.1811 30.6795C72.1208 30.8869 71.9141 31.0684 71.5264 31.2586C71.0355 31.5006 70.4411 31.5351 70.1396 31.5351Z" fill="#AD6842"/>
<path d="M70.9666 46.3404C70.8116 46.3404 70.6824 46.2107 70.6824 46.0552V41.8547C70.4584 41.3621 69.33 38.8297 69.5712 37.7494C69.7952 36.7468 71.337 33.6959 71.6385 33.0995L71.1303 31.0685C71.0959 30.9215 71.182 30.766 71.337 30.7314C71.4835 30.6968 71.6385 30.7832 71.673 30.9388L72.2329 33.1687L72.1812 33.2637C72.164 33.2983 70.3378 36.8505 70.1139 37.8704C69.9416 38.6655 70.8461 40.8867 71.2164 41.6732L71.2423 41.7337V46.0552C71.2423 46.2107 71.1217 46.3404 70.9666 46.3404Z" fill="#AD6842"/>
</g>
</g>
<defs>
<clipPath id="clip0_2060_4025">
<rect width="123" height="105" fill="white"/>
</clipPath>
<clipPath id="clip1_2060_4025">
<rect width="65" height="121" fill="white" transform="translate(29 0.999939)"/>
</clipPath>
</defs>
</svg>
