<svg width="45" height="36" viewBox="0 0 45 36" fill="none" xmlns="http://www.w3.org/2000/svg">
<path d="M13 23.4614C18.5228 23.4614 23 18.7095 23 12.8479C23 6.98619 18.5228 2.23438 13 2.23438C7.47715 2.23438 3 6.98619 3 12.8479C3 18.7095 7.47715 23.4614 13 23.4614Z" fill="#FFEAEA"/>
<path d="M12.3511 18.5711C-6.12872 13.4193 2.39429 -1.86345 8.88914 4.98074C11.2613 -4.36262 25.9077 4.38982 12.3511 18.5711Z" fill="#FF0000"/>
<path d="M36.1906 35.806C32.7717 35.806 30.0002 32.8644 30.0002 29.2358C30.0002 25.6071 32.7717 22.6655 36.1906 22.6655C39.6095 22.6655 42.3811 25.6071 42.3811 29.2358C42.3811 32.8644 39.6095 35.806 36.1906 35.806Z" fill="#FFEAEA"/>
<path d="M36.5924 32.7786C48.0323 29.5894 42.7561 20.1287 38.7355 24.3656C37.267 18.5816 28.2002 23.9998 36.5924 32.7786Z" fill="#FF0000"/>
</svg>
