<svg width="77" height="4" viewBox="0 0 77 4" fill="none" xmlns="http://www.w3.org/2000/svg">
<g id="Frame 336760">
<path id="Line 1 (Stroke)" fill-rule="evenodd" clip-rule="evenodd" d="M43.529 1.70738C34.2954 1.49646 23.6649 1.89333 15.335 2.34383C11.1718 2.56899 7.58663 2.80736 5.04252 2.98941C3.77052 3.08044 2.75889 3.15738 2.06552 3.21154C1.71884 3.23862 1.45174 3.26 1.27145 3.27461L1.06703 3.29129L0.99925 3.2969C0.999094 3.29691 0.998258 3.29698 0.941957 2.58144C0.885657 1.86589 0.885776 1.86588 0.885986 1.86586L0.956195 1.86005L1.16246 1.84322C1.344 1.82851 1.61241 1.80703 1.96044 1.77984C2.65651 1.72547 3.67112 1.6483 4.94634 1.55705C7.4967 1.37454 11.09 1.13564 15.2626 0.90997C23.6046 0.458813 34.2759 0.0597689 43.5618 0.271875L75.5949 1.00334C75.595 1.00335 75.5955 1.00336 75.5792 1.72111C75.5628 2.43886 75.5627 2.43886 75.5626 2.43886L43.529 1.70738ZM76.2799 1.7371C76.2709 2.13351 75.9496 2.44769 75.5626 2.43886L75.5792 1.72111L75.5949 1.00334C75.9819 1.01218 76.289 1.3407 76.2799 1.7371ZM0.243291 2.63989C0.212197 2.2447 0.500124 1.89815 0.885986 1.86586L0.941957 2.58144L0.99925 3.2969C0.613387 3.32918 0.274385 3.03507 0.243291 2.63989Z" fill="#066FDE"/>
</g>
</svg>
