<svg width="123" height="105" viewBox="0 0 123 105" fill="none" xmlns="http://www.w3.org/2000/svg">
<g clip-path="url(#clip0_2060_4393)">
<path d="M117.802 86.8714C115.138 91.3209 111.716 94.8675 107.479 97.6588C107.396 97.7141 107.322 97.7694 107.239 97.8154C98.4519 103.509 86.2518 106.005 70.3611 106.549C69.8339 106.567 69.2974 106.585 68.761 106.595C66.9203 106.641 65.0334 106.668 63.1003 106.668C59.7149 106.668 56.4776 106.576 53.3883 106.392C37.6271 105.48 25.6212 102.394 17.1949 98.6445C10.0173 95.4571 5.43881 91.7723 3.36692 88.548C3.30218 88.4467 3.24668 88.3546 3.18193 88.2532C3.13569 88.1703 3.08019 88.0874 3.03394 88.0045C2.12749 86.5213 1.44303 84.9829 0.952801 83.4168C0.952801 83.4076 0.943552 83.4076 0.943552 83.3984C-3.03374 70.7225 6.02153 55.7896 22.1249 43.4361C24.8535 41.345 27.7764 39.3275 30.875 37.4114C33.7146 35.6519 36.6929 33.9845 39.7915 32.4092C40.2632 32.1697 40.7349 31.9302 41.2159 31.6999C41.7339 31.4511 42.2426 31.1932 42.7698 30.9537C42.9456 30.8708 43.1213 30.7879 43.2971 30.705C43.482 30.6221 43.667 30.5299 43.8428 30.447C43.8613 30.4378 43.889 30.4286 43.9075 30.4194C49.3185 27.9229 51.1129 23.4642 53.8692 19.2819C56.3111 15.5878 59.5022 12.0964 66.6151 10.3646C68.9829 9.78419 71.3046 9.45255 73.5615 9.32358C74.3754 9.27752 75.1801 9.2591 75.9848 9.26831C76.2161 9.26831 76.4473 9.27752 76.6785 9.28673C78.1307 9.33279 79.5459 9.46176 80.9426 9.66443C81.1553 9.69207 81.368 9.72892 81.5808 9.76577C86.15 10.5212 90.4141 12.1056 94.3359 14.2337C94.5023 14.3258 94.6781 14.4179 94.8446 14.5192C95.7418 15.0259 96.6205 15.551 97.4899 16.1037C97.6657 16.2235 97.8414 16.334 98.0172 16.4538C98.4426 16.7394 98.8681 17.0249 99.2843 17.3197C99.5711 17.5224 99.8578 17.7251 100.135 17.9277C100.274 18.0291 100.404 18.1304 100.542 18.2225C111.336 26.3108 118.514 37.9457 120.54 44.5785C124.277 56.7477 124.055 76.4156 117.802 86.8714Z" fill="#DEE5F9"/>
<path d="M61.5091 78.3996C61.5884 78.3996 61.6677 78.37 61.7272 78.3108C61.8461 78.1923 61.8461 78.0047 61.7272 77.8863C61.0829 77.2446 58.9121 75.1713 57.7127 75.2701C57.5441 75.2799 57.4252 75.428 57.4351 75.5959C57.445 75.7637 57.5937 75.8822 57.7622 75.8723C58.4561 75.8131 60.0817 77.1063 61.301 78.3206C61.3505 78.37 61.4298 78.3996 61.5091 78.3996Z" fill="#303257"/>
<path d="M47.7307 20.814C47.6316 19.0863 45.7978 18.7803 45.4905 17.0625C44.8759 13.7157 46.5115 13.6071 46.1051 11.8893C45.3914 8.74004 47.4333 6.6076 48.7517 5.3933C52.4193 1.74051 56.2951 3.5669 56.2951 3.5669C56.2951 3.5669 60.3691 1.11855 65.8804 2.34272C69.548 3.15226 71.0745 4.47516 72.6109 6.09424C74.0383 7.51586 76.2785 9.13493 76.8931 12.0868C77.2995 14.4167 76.1794 15.5421 76.1794 16.8551C76.1794 17.4672 76.794 19.2936 76.1794 21.3175C75.3666 23.756 73.6319 23.5486 73.3246 26.1944C72.9182 29.8472 66.8022 30.558 66.8022 30.558C66.8022 30.558 66.3958 30.4593 64.562 30.1533C57.4152 29.0377 47.8397 22.6404 47.7307 20.814Z" fill="#BD5755"/>
<path d="M62.9263 21.2186C62.9263 21.2186 61.1916 22.2355 58.7433 22.1367C57.1077 22.038 55.4821 21.3272 54.2628 19.8069C53.341 18.6913 51.1008 19.5995 50.2879 16.8649C49.4751 14.0216 50.9025 12.294 49.267 12.4026C48.1469 12.4026 47.8396 15.1471 47.6314 16.4601C47.3241 20.1129 47.8396 22.0479 47.6314 23.8743C47.4233 25.5032 45.5894 26.1054 45.5894 27.0236C45.5894 28.0404 46.9177 28.3465 47.225 28.85C47.4332 29.4621 47.6314 30.4789 48.0378 31.8907C48.4442 33.3123 48.9597 35.2374 49.7725 36.353C50.4862 37.3699 51.6063 37.6759 52.7264 37.6759C54.1538 37.7746 55.1748 37.4686 56.1958 37.2711C57.0086 37.0638 57.7223 36.7676 58.3368 36.353C60.5771 34.7241 62.4109 31.476 62.9263 27.7245C63.3327 24.3679 62.9263 21.2186 62.9263 21.2186Z" fill="#FFA28D"/>
<path d="M67.0998 23.9632C67.1989 22.1368 65.9797 20.9225 64.9587 20.7152C63.3232 20.5078 62.1039 21.732 60.4783 22.0381C60.2701 22.0381 61.4001 24.7826 62.213 26.609C62.9267 28.2379 63.7395 28.5341 63.7395 28.5341C63.7395 28.5341 66.7925 27.4087 67.0998 23.9632Z" fill="#FFA28D"/>
<path d="M71.4711 39.3445C68.5668 39.5025 68.0216 30.252 68.0216 30.252C68.0216 30.252 67.3079 29.5412 66.8023 28.6231C66.0886 27.4088 66.0886 26.4906 66.0886 26.4906L63.2339 26.7967L56.0969 37.3503C56.0969 37.3503 58.6246 41.3683 53.3412 42.4642C53.1331 46.2157 45.3518 48.5061 45.3518 48.5061L76.8833 49.829C76.8833 49.829 75.2477 47.9039 73.1166 45.4654C75.4163 43.1849 71.9766 40.6674 71.4711 39.3445Z" fill="#FFA28D"/>
<path d="M62.312 33.3026C62.312 33.3026 61.5983 34.5169 59.4572 35.8398C57.7225 36.8567 56.196 37.3602 56.196 37.3602L56.6024 38.9891C56.6024 38.9891 57.9307 38.6831 59.6555 37.1628C61.0829 35.7313 62.312 33.3026 62.312 33.3026Z" fill="#CE634A"/>
<path d="M63.8386 25.2764C63.9872 25.2764 64.1161 25.1678 64.1359 25.0098C64.2053 24.4372 64.5126 24.0522 65.0677 23.835C65.2263 23.7758 65.2957 23.5981 65.2362 23.4401C65.1767 23.2822 64.9983 23.2131 64.8397 23.2723C64.0864 23.5783 63.6304 24.1509 63.5313 24.9309C63.5115 25.0987 63.6304 25.2468 63.789 25.2665C63.8187 25.2764 63.8287 25.2764 63.8386 25.2764Z" fill="#D0634C"/>
<path d="M49.2673 31.7724C49.3168 31.7724 49.3565 31.7625 49.3961 31.7427C49.406 31.7427 50.4072 31.2886 52.5582 31.7033C52.7267 31.7329 52.8853 31.6243 52.915 31.4663C52.9448 31.2985 52.8357 31.1405 52.6771 31.1109C50.2981 30.6469 49.178 31.18 49.1285 31.1998C48.9798 31.2689 48.9203 31.4564 48.9897 31.6045C49.0492 31.7131 49.1483 31.7724 49.2673 31.7724Z" fill="#D0634C"/>
<path d="M52.3204 17.5759C52.1915 17.1909 51.1606 17.0033 50.1 17.3587C48.8411 17.7833 48.1373 18.5533 48.2662 18.9383C48.395 19.3233 49.3566 18.6816 50.4271 18.3164C51.3886 18.0004 52.4492 17.961 52.3204 17.5759Z" fill="#612D22"/>
<path d="M50.2881 10.0531C50.4269 10.0531 50.5558 9.95435 50.5855 9.81614C50.5954 9.78652 51.21 6.98276 54.1044 5.45254C54.2531 5.37356 54.3027 5.19586 54.2333 5.04777C54.154 4.89969 53.9756 4.85032 53.8269 4.91943C50.6846 6.58787 50.0304 9.56933 50.0007 9.6878C49.9709 9.84576 50.0701 10.0136 50.2386 10.0432C50.2386 10.0432 50.2584 10.0531 50.2881 10.0531Z" fill="#6D2F2F"/>
<path d="M72.7895 21.5149C74.3061 19.9452 74.0186 18.9382 73.6915 17.7733C73.523 17.1612 73.3446 16.5393 73.4239 15.7889C73.4437 15.6409 73.4734 15.4928 73.5131 15.3249C73.6122 14.8215 73.7311 14.2489 73.7311 13.4986C73.7311 13.3307 73.86 13.1925 74.0285 13.1925C74.197 13.1925 74.3358 13.3307 74.3358 13.4986C74.3358 14.2982 74.2069 14.9301 74.1078 15.4434C74.0781 15.6014 74.0483 15.7396 74.0285 15.8679C73.969 16.4899 74.1177 17.0329 74.2862 17.6153C74.6332 18.8494 74.99 20.1131 73.2355 21.9395C73.176 21.9987 73.0968 22.0283 73.0175 22.0283C72.9382 22.0283 72.8688 21.9987 72.8093 21.9395C72.6804 21.8309 72.6804 21.6334 72.7895 21.5149ZM70.4898 8.0095C70.5493 7.85154 70.7277 7.78243 70.8863 7.85154C72.0163 8.31554 72.8489 8.94738 73.414 9.78653C73.8501 10.4381 74.1177 11.218 74.2367 12.146C74.2565 12.3139 74.1376 12.462 73.969 12.4817C73.9591 12.4817 73.9492 12.4817 73.9294 12.4817C73.7807 12.4817 73.6518 12.3731 73.632 12.2151C73.5032 11.218 73.1959 10.4282 72.6705 9.78653C72.1947 9.20406 71.5306 8.74993 70.6583 8.39452C70.4997 8.34516 70.4303 8.16746 70.4898 8.0095Z" fill="#6D2F2F"/>
<path d="M68.7354 27.2014C68.8246 27.2014 68.9138 27.1619 68.9733 27.083C70.0141 25.7107 70.252 23.4598 69.4986 22.1863C69.4193 22.0382 69.231 21.9987 69.0823 22.0777C68.9336 22.1566 68.894 22.3442 68.9733 22.4923C69.5977 23.5684 69.3698 25.5429 68.4876 26.7276C68.3884 26.8559 68.4182 27.0533 68.547 27.1521C68.6065 27.1817 68.666 27.2014 68.7354 27.2014Z" fill="#6D2F2F"/>
<path d="M59.9133 19.9255C60.5973 19.9255 61.1722 19.6886 61.7075 19.4714C62.6789 19.0765 63.5908 18.7112 65.0975 19.6491C65.2363 19.738 65.4246 19.6985 65.5139 19.5504C65.6031 19.4122 65.5634 19.2246 65.4147 19.1357C63.6503 18.0399 62.4906 18.5039 61.4795 18.9087C60.4882 19.3134 59.6259 19.659 58.1886 18.731C57.7821 18.4644 57.5641 18.1485 57.3163 17.7931C56.8702 17.1514 56.3548 16.4307 54.6696 15.7594C52.7565 15.0288 52.925 12.2251 52.925 12.2053C52.935 12.0375 52.8061 11.8993 52.6475 11.8894C52.479 11.8697 52.3402 12.0079 52.3303 12.1658C52.3204 12.304 52.142 15.4435 54.4615 16.3221C55.9682 16.9243 56.4043 17.5463 56.8306 18.1386C57.0982 18.5138 57.3658 18.8988 57.8714 19.2345C58.6544 19.7478 59.3285 19.9255 59.9133 19.9255Z" fill="#6D2F2F"/>
<path d="M67.9126 19.6886C67.9423 19.6886 67.9622 19.6886 67.9919 19.6787C68.1505 19.6392 68.2496 19.4714 68.2001 19.3036C67.6549 17.3686 64.9091 15.6903 62.0345 16.3517L62.0048 16.3616C60.3692 16.6676 59.0806 16.9046 57.9803 15.0782C57.8911 14.94 57.7127 14.8906 57.564 14.9795C57.4252 15.0683 57.3757 15.246 57.4649 15.3941C58.7832 17.5858 60.4783 17.2699 62.1237 16.9638L62.1634 16.9539C64.6911 16.3715 67.1692 17.8326 67.6251 19.4813C67.6648 19.6096 67.7837 19.6886 67.9126 19.6886Z" fill="#6D2F2F"/>
<path d="M68.2198 11.2675C68.2694 11.2675 68.3189 11.2576 68.3685 11.228C68.5172 11.149 68.5668 10.9614 68.4775 10.8133C67.0303 8.29587 65.2758 8.44396 63.7295 8.5723C62.996 8.63153 62.3021 8.69077 61.7073 8.44396C61.2613 8.23664 60.9044 7.85161 60.5377 7.44684C59.7546 6.58795 58.8724 5.62045 56.7511 5.98573C56.5826 6.01535 56.4736 6.1733 56.5033 6.33126C56.533 6.49909 56.6916 6.60769 56.8502 6.57807C58.6444 6.27203 59.3482 7.0322 60.0916 7.85161C60.4881 8.286 60.8945 8.73026 61.4595 8.99681C62.1931 9.30286 62.996 9.23375 63.779 9.17451C65.2857 9.04617 66.7032 8.9277 67.9522 11.1095C68.0117 11.2181 68.1207 11.2675 68.2198 11.2675Z" fill="#6D2F2F"/>
<path d="M51.2002 23.0453C51.2002 22.3344 50.6947 21.6236 50.1792 21.6236C49.5646 21.6236 49.1582 22.2357 49.1582 23.0453C49.1582 23.7561 49.6638 24.4669 50.1792 24.4669C50.7938 24.4669 51.2002 23.8548 51.2002 23.0453Z" fill="#612D22"/>
<path d="M39.9299 104.68C49.3467 110.781 62.4213 113.457 79.4508 114.039C79.4707 114.207 79.4806 114.365 79.4905 114.523C80.1546 114.404 80.7196 114.266 81.1657 114.089C81.9289 113.792 82.3552 113.397 82.4047 112.874C83.1977 105.598 80.5709 84.8366 82.484 67.4217C82.5534 66.7504 82.6129 66.0889 82.6625 65.4373C83.2572 57.7566 82.4543 50.9842 83.6438 45.8011C83.9511 44.4388 83.2869 43.0369 82.0281 42.4248C81.9488 42.3853 81.8695 42.3458 81.7902 42.3063C78.8462 40.9637 73.3745 40.1245 70.6188 38.6338C70.5197 38.5745 70.3909 38.6042 70.3215 38.693C70.3016 38.7226 70.2719 38.7523 70.2521 38.7819C66.5547 43.333 62.5105 46.8575 57.9507 46.3046C55.5618 46.0085 54.9274 44.7251 56.1566 41.0328C52.7566 42.4939 43.8255 45.3569 42.6261 46.5909C42.5765 46.6403 42.5468 46.6798 42.527 46.7193C41.4069 48.832 40.1976 63.1864 40.7923 67.7376C40.9212 68.7446 40.941 71.2621 40.8815 74.6384C40.8617 75.6454 40.8419 76.7412 40.8121 77.8864C40.7923 78.6269 40.7725 79.3969 40.7527 80.1867C40.7427 80.5816 40.7328 80.9765 40.7229 81.3813C40.7229 81.4306 40.713 81.48 40.713 81.5294C40.7031 81.6972 40.7031 81.865 40.6932 82.0328C40.6139 84.7478 40.5148 87.6404 40.4156 90.5429C40.4156 90.6416 40.4057 90.7403 40.4057 90.8489C40.4057 90.9476 40.3958 91.0463 40.3958 91.1451C40.3859 91.4314 40.376 91.7275 40.3661 92.0138C40.2075 96.5157 40.0489 100.968 39.9299 104.68Z" fill="#7DB6BD"/>
<path d="M87.7275 54.4394C84.724 63.8774 70.6385 86.3766 66.3959 89.21C62.1633 92.0434 59.1896 89.4766 57.6135 87.3145C54.3325 82.8226 58.3074 74.1348 58.3074 74.1348C58.3074 74.1348 64.4432 66.8391 66.3464 60.4912C68.2496 54.1432 71.7586 43.5304 75.5055 42.4148C79.2524 41.2992 82.801 42.0101 85.0809 44.2906C89.254 48.437 87.7275 54.4394 87.7275 54.4394Z" fill="#7DB6BD"/>
<path d="M57.7323 75.8723C57.8413 75.8723 57.9503 75.813 57.9999 75.7044C58.0594 75.5761 58.6938 74.6086 59.4174 73.4831C61.2512 70.63 64.334 65.8617 65.2261 64.1044C66.4949 61.6264 68.7946 54.923 68.8838 54.6367C68.9333 54.4788 68.854 54.311 68.6954 54.2517C68.5368 54.1925 68.3683 54.2813 68.3088 54.4393C68.289 54.5084 65.9299 61.3796 64.6809 63.8279C63.7987 65.5556 60.7357 70.3141 58.9019 73.1475C57.9801 74.579 57.534 75.2701 57.4547 75.4181C57.3754 75.5662 57.4349 75.7439 57.5836 75.8229C57.6431 75.8624 57.6827 75.8723 57.7323 75.8723Z" fill="#303257"/>
<path d="M43.5677 46.0775C43.5677 46.0775 39.801 47.3609 37.7789 54.5282C36.6984 58.3686 30.2454 74.4606 28.9568 77.4322C27.6781 80.4038 28.2332 82.8521 31.2366 84.4219C34.2302 85.9916 41.0995 81.6477 43.4686 76.0204C45.8377 70.3833 43.5677 46.0775 43.5677 46.0775Z" fill="#7DB6BD"/>
<path d="M41.3474 75.4677C41.5159 75.4677 41.6547 75.3295 41.6547 75.1616C41.6051 71.1831 42.3287 60.5011 44.8266 54.6665C44.896 54.5184 44.8167 54.3407 44.6681 54.2716C44.5095 54.2025 44.3409 54.2815 44.2716 54.4296C41.734 60.353 40.9905 71.1534 41.05 75.1715C41.05 75.3393 41.1888 75.4677 41.3474 75.4677Z" fill="#303257"/>
<path d="M29.9875 74.9344C29.9875 74.9344 25.1304 83.0692 30.602 87.7784C33.9624 90.671 39.8206 91.3621 48.4841 90.6414C50.2683 90.4933 52.459 88.4201 52.459 88.4201L43.6468 83.3259L29.9875 74.9344Z" fill="#7DB6BD"/>
<path d="M41.3474 75.1715C41.4762 74.6088 40.9707 74.5594 39.5136 74.6483C37.2535 74.7865 35.2711 78.6663 35.2711 78.6663L40.3958 81.5984C40.3859 81.5984 40.3958 79.466 41.3474 75.1715Z" fill="#FFA28D"/>
<path d="M40.3858 91.145C40.3957 91.145 40.4057 91.145 40.4156 91.145C43.8255 90.8489 50.5164 88.9237 53.1927 87.818C53.3513 87.7588 53.4207 87.5811 53.3612 87.4231C53.3017 87.2652 53.1233 87.1961 52.9647 87.2553C50.328 88.3413 43.7263 90.2368 40.366 90.5329C40.1975 90.5428 40.0785 90.6909 40.0885 90.8587C40.0984 91.0266 40.2272 91.145 40.3858 91.145Z" fill="#303257"/>
<path d="M40.1281 81.4405C40.138 81.4306 40.138 81.4208 40.1479 81.4109C40.1975 81.3418 40.2371 81.2924 40.3065 81.2825C40.3263 81.2727 40.3561 81.2727 40.3957 81.2825C40.475 81.2924 40.5742 81.322 40.7129 81.3911C41.0202 81.5294 41.5456 81.7959 42.4575 82.2698C45.8178 84.0172 53.4306 87.9958 59.2095 89.062C60.9541 89.3878 62.5203 89.4371 63.7594 89.0916C67.1891 88.1241 70.2322 83.7408 72.4526 80.5322C73.0275 79.703 73.533 78.9724 73.9791 78.3998C76.2292 75.5072 81.0665 68.1424 81.9883 66.0593C82.0577 65.9112 82.2362 65.8421 82.3848 65.9112C82.3948 65.9112 82.3948 65.9211 82.4047 65.9211C82.5434 66.0001 82.6029 66.158 82.5434 66.3061C81.7901 67.9943 78.7866 72.6639 76.4572 76.0205C76.4473 76.0304 76.4473 76.0403 76.4374 76.0502C75.6642 77.1657 74.9703 78.1234 74.4648 78.7848C74.0287 79.3475 73.533 80.0682 72.9581 80.8975C70.6882 84.1752 67.5756 88.6671 63.9378 89.684C63.3034 89.8617 62.5897 89.9505 61.8165 89.9505C61.3506 89.9505 60.8748 89.9209 60.3792 89.8617C58.1489 89.6148 55.5915 88.8547 53.0638 87.897C52.7863 87.7884 52.5087 87.6897 52.2312 87.5713C50.2685 86.7913 48.3356 85.9028 46.6108 85.0637C44.8662 84.2146 43.3397 83.415 42.18 82.8128C41.5753 82.4968 41.0301 82.2204 40.6931 82.0526C40.5543 81.9835 40.4453 81.9341 40.3858 81.9144C40.3164 81.9144 40.257 81.8946 40.1975 81.8551C40.0884 81.7465 40.0587 81.5688 40.1281 81.4405Z" fill="#303257"/>
<path d="M29.9877 80.6999C30.0571 80.6999 30.1265 80.6703 30.186 80.6209C31.544 79.4165 33.4273 78.8044 35.2314 78.9821C35.3999 79.0018 35.5486 78.8735 35.5585 78.7155C35.5784 78.5477 35.4495 78.3996 35.2909 78.3897C33.3183 78.2022 31.2664 78.8735 29.7895 80.1766C29.6606 80.2852 29.6507 80.4728 29.7697 80.6012C29.8192 80.6703 29.9084 80.6999 29.9877 80.6999Z" fill="#303257"/>
<path d="M55.6113 75.6059C55.6113 75.6059 58.2084 73.661 58.9122 73.3846C59.6159 73.1082 61.2812 72.4369 61.5092 73.049C61.7372 73.661 60.9046 74.4212 60.0422 74.6779C58.8725 75.0333 57.7326 75.5664 57.7326 75.5664L55.6113 75.6059Z" fill="#FFA28D"/>
<path d="M53.6585 75.6551C53.6585 75.6551 56.7016 71.7258 58.1389 70.4227C58.694 69.9192 61.2514 68.695 62.3418 68.2211C63.4321 67.7473 64.4333 67.1154 65.1569 67.5992C65.3155 67.7078 65.2263 68.3495 65.2263 68.3495L65.8409 68.4087C66.1581 68.4383 66.3067 68.6259 66.396 68.932C66.4257 69.0406 66.4356 69.1393 66.4059 69.238C66.2869 69.5638 65.1668 70.1759 65.1668 70.1759C65.1668 70.1759 65.3353 70.5708 65.2164 70.9459C65.0974 71.3211 64.7208 71.6469 64.0269 71.8542C63.333 72.0615 62.6491 72.2491 62.2823 72.4663C61.9155 72.6835 61.41 72.9895 61.41 72.9895L55.6211 75.6057L53.6585 75.6551Z" fill="#FFA28D"/>
<path d="M56.8205 73.8288C58.6841 72.2887 62.7581 70.0971 65.2362 70.176L65.2461 69.8799C62.6887 69.8108 58.5354 72.0321 56.6322 73.6018L56.8205 73.8288Z" fill="#FFCEA5"/>
<path d="M56.8997 73.9177C56.9691 73.9177 57.0484 73.888 57.1078 73.8387C59.3282 71.7852 62.2127 70.5413 65.236 70.3241C65.4045 70.3142 65.5235 70.1661 65.5136 69.9983C65.5037 69.8305 65.355 69.712 65.1865 69.7219C62.0343 69.949 59.011 71.262 56.6915 73.3944C56.5726 73.503 56.5626 73.7005 56.6717 73.8189C56.7312 73.888 56.8204 73.9177 56.8997 73.9177Z" fill="#D0634C"/>
<path d="M56.5825 72.7921C56.642 72.7921 56.7114 72.7724 56.7609 72.7329C59.7247 70.4918 63.095 68.8826 65.3352 68.6457C65.5037 68.626 65.6226 68.4779 65.6028 68.31C65.583 68.1422 65.4343 68.0237 65.2658 68.0435C62.9166 68.3002 59.4373 69.9489 56.3842 72.2491C56.2554 72.3478 56.2257 72.5354 56.3248 72.6736C56.4041 72.7526 56.4933 72.7921 56.5825 72.7921Z" fill="#D0634C"/>
<path d="M55.4625 75.3787C55.4823 75.3589 55.5022 75.3293 55.522 75.3096C56.2852 74.4309 57.6532 73.6806 58.8823 73.1969C58.9616 73.1673 59.0409 73.1376 59.1202 73.108C59.3581 73.0192 59.5861 72.9501 59.8042 72.881C60.3295 72.723 60.7855 72.6341 61.0829 72.6341C61.2415 72.6341 61.4595 72.6539 61.5983 72.8118C61.6082 72.8217 61.6181 72.8316 61.628 72.8513C61.7073 72.9797 61.6776 73.1376 61.5686 73.2364C61.5587 73.2462 61.5587 73.2462 61.5487 73.2462C61.4397 73.3252 61.291 73.3252 61.182 73.2364C61.1126 73.2166 60.9738 73.2265 60.7954 73.266C60.4286 73.3252 59.8835 73.4733 59.2788 73.7004C58.9814 73.809 58.6543 73.9373 58.3371 74.0854C58.3272 74.0854 58.3173 74.0953 58.2975 74.1051C57.6532 74.4013 56.9989 74.7765 56.4835 75.2108C56.4537 75.2405 56.424 75.2602 56.3943 75.2898C56.2753 75.3885 56.1663 75.4971 56.0672 75.6057C56.0176 75.6551 55.968 75.7143 55.9284 75.7637C55.8689 75.8328 55.7797 75.8723 55.7004 75.8723C55.631 75.8723 55.5616 75.8525 55.5121 75.8032C55.4526 75.7538 55.4129 75.6847 55.403 75.6156C55.3832 75.5366 55.403 75.4478 55.4625 75.3787Z" fill="#D0634C"/>
<path d="M60.8946 78.6168C60.9343 78.6168 60.9838 78.607 61.0235 78.5872C61.1722 78.5181 61.2416 78.3404 61.1722 78.1923C60.4981 76.7213 59.2095 75.6057 57.8119 75.28C57.792 75.2701 57.7623 75.2701 57.7425 75.2701C56.7413 75.2701 55.5419 75.3096 54.2731 75.3491C50.0802 75.4873 44.8761 75.6551 41.4464 74.6481C41.2878 74.5988 41.1193 74.6876 41.0697 74.8554C41.0202 75.0134 41.1094 75.1812 41.2779 75.2306C44.7968 76.2672 50.0702 76.0994 54.2929 75.9612C55.5419 75.9217 56.7215 75.8822 57.7028 75.8822C58.9121 76.1783 60.0323 77.1656 60.627 78.4589C60.6667 78.5576 60.7757 78.6168 60.8946 78.6168Z" fill="#303257"/>
</g>
<defs>
<clipPath id="clip0_2060_4393">
<rect width="123" height="105" fill="white"/>
</clipPath>
</defs>
</svg>
