<svg width="123" height="105" viewBox="0 0 123 105" fill="none" xmlns="http://www.w3.org/2000/svg">
<g clip-path="url(#clip0_2060_4249)">
<path d="M117.802 85.8715C115.138 90.3209 111.716 93.8676 107.479 96.6589C107.396 96.7142 107.322 96.7694 107.239 96.8155C98.4519 102.509 86.2518 105.005 70.3611 105.549C69.8339 105.567 69.2974 105.585 68.761 105.595C66.9203 105.641 65.0334 105.668 63.1003 105.668C59.7149 105.668 56.4776 105.576 53.3883 105.392C37.6271 104.48 25.6212 101.394 17.1949 97.6446C10.0173 94.4572 5.43881 90.7723 3.36692 87.5481C3.30218 87.4468 3.24668 87.3546 3.18193 87.2533C3.13569 87.1704 3.08019 87.0875 3.03394 87.0046C2.12749 85.5214 1.44303 83.983 0.952801 82.4169C0.952801 82.4077 0.943552 82.4077 0.943552 82.3985C-3.03374 69.7226 6.02153 54.7897 22.1249 42.4362C24.8535 40.3451 27.7764 38.3276 30.875 36.4115C33.7146 34.652 36.6929 32.9846 39.7915 31.4093C40.2632 31.1698 40.7349 30.9303 41.2159 30.7C41.7339 30.4512 42.2426 30.1933 42.7698 29.9538C42.9456 29.8709 43.1213 29.788 43.2971 29.705C43.482 29.6221 43.667 29.53 43.8428 29.4471C43.8613 29.4379 43.889 29.4287 43.9075 29.4195C49.3185 26.923 51.1129 22.4643 53.8692 18.282C56.3111 14.5879 59.5022 11.0965 66.6151 9.36463C68.9829 8.78427 71.3046 8.45263 73.5615 8.32366C74.3754 8.2776 75.1801 8.25917 75.9848 8.26839C76.2161 8.26839 76.4473 8.2776 76.6785 8.28681C78.1307 8.33287 79.5459 8.46184 80.9426 8.66451C81.1553 8.69214 81.368 8.72899 81.5808 8.76584C86.15 9.52124 90.4141 11.1057 94.3359 13.2337C94.5023 13.3259 94.6781 13.418 94.8446 13.5193C95.7418 14.026 96.6205 14.5511 97.4899 15.1038C97.6657 15.2236 97.8414 15.3341 98.0172 15.4539C98.4426 15.7394 98.8681 16.025 99.2843 16.3198C99.5711 16.5225 99.8578 16.7251 100.135 16.9278C100.274 17.0291 100.404 17.1305 100.542 17.2226C111.336 25.3109 118.514 36.9458 120.54 43.5785C124.277 55.7478 124.055 75.4157 117.802 85.8715Z" fill="#DEE5F9"/>
<path d="M80.3614 11.982C80.243 11.8543 80.1149 11.7168 79.9965 11.5793C79.5528 11.0588 79.2668 10.3909 78.7934 9.89984C76.693 7.74894 71.1312 6.32484 70.8551 6.37394C70.5691 6.42305 70.3226 6.45251 70.0859 6.45251C70.0859 6.48198 70.0761 6.50162 70.0563 6.48198C65.2046 6.30519 61.0037 7.64091 57.8974 10.6954C57.4832 11.0588 52.4047 12.3061 51.5467 16.932C54.7812 59.3999 37.8494 52.407 45.6004 63.6427C45.8864 64.0651 84.0002 74.741 84.0002 74.741C109.866 62.4151 84.0101 38.4409 83.4282 21.1552C83.3691 19.2007 82.2547 14.8891 80.3614 11.982Z" fill="#D45034"/>
<path d="M60.4714 46.1116C60.4714 46.1116 56.5761 43.3125 48.3716 53.5464C40.8573 62.9259 30.5424 74.4268 31.0157 79.9268C31.4595 85.0241 35.049 86.1339 47.0304 86.1339C59.0119 86.1339 60.4714 46.1116 60.4714 46.1116Z" fill="#FBE0C2"/>
<path d="M88.7733 71.9418C86.7714 77.4124 84.5132 82.657 83.3496 86.7427C81.0223 94.9534 81.4168 106.022 82.8269 113.202C66.0233 112.229 53.2234 108.939 44.2397 104.942C44.6638 100.925 45.0878 96.3677 45.2259 93.3427C45.2752 92.2133 45.3541 91.0445 45.4231 89.8856C45.433 89.7383 45.4428 89.6008 45.4527 89.4534C45.4625 89.4043 45.4625 89.3454 45.4625 89.2865C45.502 88.7758 45.5316 88.2552 45.571 87.7445C45.6006 87.2338 45.64 86.7427 45.6696 86.2418C45.6696 86.2025 45.6795 86.1633 45.6795 86.124C45.6894 85.9374 45.6992 85.7606 45.7189 85.5838C45.8669 83.099 45.9359 80.7615 45.7781 78.9052C45.6894 77.815 45.5119 76.8918 45.2259 76.1847C45.0286 75.7034 44.8807 75.1633 44.7723 74.574C44.7624 74.5347 44.7525 74.4954 44.7525 74.4561C44.7525 74.4365 44.7427 74.4168 44.7427 74.3972C44.7328 74.3481 44.7328 74.3088 44.7229 74.2695C44.7032 74.132 44.6835 73.9945 44.6736 73.8472C44.6342 73.4838 44.6145 73.1106 44.6046 72.7275C44.6046 72.6588 44.6046 72.5999 44.6046 72.5311C44.6046 72.1383 44.6243 71.7356 44.6539 71.3231C44.6736 71.0481 44.7032 70.7731 44.7427 70.4981C45.0484 68.3668 45.8471 66.1275 47.2376 64.2124C47.4151 63.957 47.6123 63.7213 47.8095 63.4856C49.1507 61.9141 50.1072 60.0677 50.8764 58.182C50.8862 58.1722 50.8862 58.1623 50.8961 58.1525C52.8191 53.3891 53.4798 48.3802 55.7183 46.7498C55.9352 46.5927 56.162 46.4748 56.3987 46.3864C56.5072 46.3472 56.6156 46.3079 56.7438 46.2588C57.0594 46.1507 57.4341 46.0329 57.8483 45.9052C60.0572 45.2275 63.5185 44.3338 66.7826 43.5186C66.8615 43.4989 66.9305 43.4793 67.0094 43.4597C67.108 43.44 67.2165 43.4106 67.3151 43.3811C67.5419 43.3222 67.7786 43.2632 68.0054 43.2141L68.5478 43.0766C71.5456 42.34 74.1293 41.7213 75.076 41.5052L75.1844 41.4757C75.2436 41.4561 75.2929 41.4463 75.3323 41.4364L75.3718 41.4266L75.4408 41.407H75.4605L79.8685 42.2123L83.0636 42.7918C83.0636 42.7918 90.854 43.9704 92.4515 51.9356C92.5896 52.6034 92.6783 53.3106 92.7178 54.0766C92.7276 54.1552 92.7276 54.224 92.7276 54.2927C92.9051 59.6061 90.9921 65.9115 88.7733 71.9418Z" fill="#FBE0C2"/>
<path d="M75.8944 87.4206C75.7169 86.7429 75.214 85.9081 74.7111 85.1911C74.5927 85.309 74.4645 85.4366 74.3363 85.5447C74.2081 85.692 74.0799 85.8393 73.9123 85.9866C73.7348 86.1536 72.0485 88.059 71.2202 88.8545C70.0368 89.984 67.9758 91.359 66.1909 91.8009C66.3783 92.0268 66.6938 92.3018 67.0094 92.5473C67.5321 92.95 68.2322 93.0188 68.814 92.734C68.814 92.734 69.6818 93.8241 70.8257 93.7259C71.8612 93.6375 72.1373 92.7143 72.1373 92.7143C72.1373 92.7143 72.936 92.7438 73.3502 92.1741C73.7644 91.6045 73.5277 90.7206 73.5277 90.7206C73.5277 90.7206 74.2377 90.9072 74.6716 90.4161C75.1055 89.925 74.8097 88.7661 74.8097 88.7661C74.8097 88.7661 76.2987 88.9723 75.8944 87.4206Z" fill="#FFA28D"/>
<path d="M68.824 93.0384C68.6859 93.0384 68.5676 92.95 68.5281 92.8125C68.4591 92.5572 68.2323 91.6929 67.966 91.2215C67.8871 91.0741 67.9365 90.8973 68.0844 90.809C68.2323 90.7304 68.4098 90.7795 68.4985 90.9268C68.7944 91.4473 69.0311 92.3116 69.1198 92.6652C69.1592 92.8223 69.0606 92.9893 68.9029 93.0286C68.8733 93.0384 68.8535 93.0384 68.824 93.0384Z" fill="#D0634C"/>
<path d="M72.1275 93.0386C71.9895 93.0386 71.8711 92.9502 71.8415 92.8127C71.5753 91.7913 70.954 90.8189 70.3229 89.9252C70.2243 89.7877 70.2637 89.6011 70.3919 89.5127C70.53 89.4145 70.7174 89.4538 70.8061 89.5814C71.4668 90.5243 72.1275 91.5457 72.4234 92.6654C72.4628 92.8225 72.374 92.9895 72.2064 93.0288C72.1768 93.0386 72.1571 93.0386 72.1275 93.0386Z" fill="#D0634C"/>
<path d="M73.577 91.2118C73.439 91.2118 73.3108 91.1135 73.2812 90.976C73.1136 90.1609 72.4529 89.4046 71.871 88.7368L71.7231 88.5698C71.6146 88.4421 71.6344 88.2555 71.7527 88.1475C71.8809 88.0394 72.0683 88.0591 72.1767 88.1769L72.3247 88.3439C72.9558 89.0707 73.6658 89.8859 73.863 90.8582C73.8926 91.0153 73.794 91.1823 73.6263 91.2118C73.6165 91.2019 73.5968 91.2118 73.577 91.2118Z" fill="#D0634C"/>
<path d="M74.8195 89.0706C74.6913 89.0706 74.5828 88.9921 74.5335 88.8742C74.2771 88.1376 73.7446 87.3126 73.2516 86.6054C73.1529 86.4679 73.1924 86.2813 73.3304 86.1929C73.4685 86.0947 73.6559 86.134 73.7446 86.2715C74.2574 87.0081 74.8195 87.8724 75.0956 88.6876C75.1548 88.8447 75.066 89.0117 74.9082 89.0706C74.8885 89.0608 74.8589 89.0706 74.8195 89.0706Z" fill="#D0634C"/>
<path d="M57.8287 82.4016C57.7104 82.4016 57.592 82.3231 57.5427 82.2052C56.7045 79.8972 62.1381 73.582 68.4394 66.2748C71.5359 62.6704 74.7507 58.948 77.285 55.5989C77.3836 55.4712 77.571 55.4418 77.709 55.54C77.8372 55.6382 77.8668 55.8248 77.7682 55.9623C75.224 59.3311 72.0092 63.0632 68.9029 66.6677C63.2426 73.2382 57.3948 80.0248 58.1147 82.0088C58.1739 82.1659 58.095 82.3329 57.9372 82.3918C57.8977 82.3918 57.8583 82.4016 57.8287 82.4016Z" fill="#303257"/>
<path d="M64.5932 92.3409C64.4355 92.3409 64.3073 92.2231 64.2974 92.0561C64.2875 91.8892 64.4157 91.7517 64.5834 91.7418C69.376 91.4472 72.2752 87.5775 73.6656 85.7213C73.9319 85.3579 74.1488 85.0731 74.3165 84.8963C81.1306 77.6579 89.3056 66.0686 91.0215 62.3365C91.0905 62.1891 91.268 62.1204 91.4159 62.1891C91.5638 62.2579 91.6329 62.4347 91.5638 62.582C89.8283 66.3436 81.6039 78.0213 74.7504 85.299C74.6024 85.4561 74.4052 85.7213 74.139 86.0749C72.6894 88.0097 69.6718 92.0267 64.613 92.3311C64.6031 92.3409 64.6031 92.3409 64.5932 92.3409Z" fill="#303257"/>
<path d="M63.6665 91.948C63.6665 91.948 58.9232 92.9302 51.7639 91.1623C44.6046 89.3945 35.9859 87.1257 37.3369 82.6864C38.6879 78.2373 54.8604 78.3454 59.8896 77.1079C64.909 75.8703 63.6665 91.948 63.6665 91.948Z" fill="#FBE0C2"/>
<path d="M67.9957 43.2044C67.9957 43.2044 58.6176 50.649 64.5935 53.016C72.1867 56.0213 83.044 42.8017 83.044 42.8017L75.4508 41.4169L67.9957 43.2044Z" fill="#FFA28D"/>
<path d="M36.7056 73.4937C36.7056 73.4937 56.0435 74.7509 64.2974 78.758C72.5612 82.7554 67.739 89.0509 63.8044 89.0509C59.8598 89.0509 41.1924 88.3143 36.2322 85.3482C31.272 82.3821 36.7056 73.4937 36.7056 73.4937Z" fill="#FBE0C2"/>
<path d="M61.842 92.5571C55.4223 92.5571 45.8371 90.0036 45.3737 89.8759C45.2159 89.8366 45.1173 89.6696 45.1666 89.5125C45.206 89.3554 45.3737 89.2571 45.5314 89.2964C45.6596 89.3357 58.7751 92.8321 64.544 91.7518C64.7116 91.7223 64.8694 91.8304 64.899 91.9875C64.9286 92.1545 64.8201 92.3018 64.6623 92.3411C63.834 92.4884 62.8774 92.5571 61.842 92.5571Z" fill="#303257"/>
<path d="M69.6128 24.1411C69.6128 24.1411 64.8597 26.6358 61.9407 25.4376C59.2388 24.3867 58.3019 21.8724 57.5821 20.5563C56.4086 18.3661 55.5408 18.3367 55.2154 18.6804C54.4955 19.4858 54.1799 21.4599 54.3081 22.6876C54.6434 26.0858 55.4323 27.7652 55.5506 29.4742C55.6394 30.9965 54.0616 31.8608 54.2095 32.6956C54.3771 33.6286 55.6394 33.6876 56.0043 34.1001C56.6551 35.0429 57.5722 39.001 59.7811 40.5233C60.4418 40.9751 61.6449 41.2403 62.5817 41.0733C64.4652 40.8278 66.3586 40.101 67.325 39.0599C69.1099 37.2036 70.2439 33.9233 70.0862 30.3974C69.9087 27.3626 69.6128 24.1411 69.6128 24.1411Z" fill="#FFA28D"/>
<path d="M73.2911 26.3605C73.0742 24.6713 71.7528 23.7579 70.7864 23.7382C69.2579 23.8266 68.5577 24.7204 67.2856 25.1427C67.0983 25.1722 68.2027 28.0498 69.1593 29.6016C70.0862 30.9668 70.885 31.1141 70.885 31.1141C70.885 31.1141 73.6856 29.5525 73.2911 26.3605Z" fill="#FFA28D"/>
<path d="M79.8489 42.2223C73.1136 40.1009 72.3149 29.9947 72.3149 29.9947L70.4412 29.7589L65.6782 40.1991C65.6782 40.1991 67.2363 43.2241 67.4631 45.6697C67.9069 49.1465 66.2403 52.2107 66.2403 52.2107C66.2403 52.2107 80.263 42.35 79.8489 42.2223Z" fill="#FFA28D"/>
<path d="M70.6878 35.4455C70.6878 35.4455 69.7313 37.0562 67.9859 38.6276C66.5658 39.8455 65.6685 40.199 65.6685 40.199L66.3094 41.6231C66.3094 41.6231 67.4731 41.1223 68.8043 39.4428C69.9778 37.8812 70.6878 35.4455 70.6878 35.4455Z" fill="#CE634A"/>
<path d="M70.5892 28.2071C70.4314 28.2071 70.2933 28.0794 70.2933 27.9223C70.2539 27.1759 70.5694 26.5669 71.2203 26.1643C71.3583 26.0759 71.5457 26.1151 71.6345 26.2625C71.7232 26.4 71.6838 26.5866 71.5359 26.675C71.0724 26.9696 70.8554 27.3625 70.885 27.8928C70.8949 28.0598 70.7667 28.1973 70.599 28.2071H70.5892Z" fill="#D0634C"/>
<path d="M58.6666 28.1481C58.5482 27.4999 57.9664 26.9302 57.4931 27.0186C56.931 27.1168 56.6647 27.7454 56.7929 28.4918C56.931 29.2383 57.4931 29.7097 57.9664 29.6213C58.4397 29.5329 58.8046 28.8847 58.6666 28.1481Z" fill="#612D22"/>
<path d="M58.7161 23.1195C58.6076 22.8543 57.6708 22.8249 56.7044 23.2177C55.5605 23.6793 54.9984 24.3177 55.1463 24.6713C55.2548 24.9365 56.0634 24.4061 57.0298 24.0133C57.9568 23.5222 58.9133 23.3454 58.7161 23.1195Z" fill="#612D22"/>
<path d="M58.3021 36.4865C58.2134 36.4865 58.1345 36.4473 58.0753 36.3785C57.9668 36.2508 57.9865 36.0642 58.1147 35.9562C58.1345 35.9365 58.164 35.9169 58.1838 35.8874C58.5388 35.524 59.0516 35.2294 61.2408 35.5339C61.4084 35.5535 61.5169 35.7107 61.4972 35.8678C61.4774 36.0348 61.3197 36.1428 61.1619 36.1232C59.0811 35.8383 58.7853 36.133 58.6078 36.3098C58.5684 36.349 58.5388 36.3785 58.4993 36.4178C58.4402 36.4571 58.3711 36.4865 58.3021 36.4865Z" fill="#D0634C"/>
<path d="M66.8025 23.3161C64.6528 23.2277 63.3807 21.6269 62.148 20.0849C60.7674 18.3563 59.4559 16.726 57.0103 17.0206C56.8426 17.0402 56.6947 16.9224 56.675 16.7554C56.6553 16.5885 56.7736 16.4411 56.9413 16.4215C59.7221 16.0777 61.2013 17.9242 62.6213 19.7019C63.8244 21.2045 64.9585 22.6286 66.8223 22.7072C66.9899 22.717 67.1181 22.8545 67.1082 23.0215C67.0984 23.1983 66.9603 23.3161 66.8025 23.3161Z" fill="#A02E1C"/>
<path d="M70.885 21.3516C68.4098 21.3516 65.8853 20.0257 64.8104 18.8275C64.7019 18.6998 64.7118 18.5132 64.8301 18.4052C64.9583 18.2972 65.1457 18.307 65.2542 18.4248C66.4967 19.8097 69.8101 21.2927 72.3937 20.5463C72.5515 20.4972 72.7192 20.5954 72.7685 20.7525C72.8178 20.9097 72.7192 21.0766 72.5614 21.1257C72.019 21.2829 71.4569 21.3516 70.885 21.3516Z" fill="#A02E1C"/>
<path d="M79.2178 24.2392C79.1586 24.2392 79.0995 24.2196 79.0502 24.1901C78.9121 24.1017 78.8727 23.9151 78.9713 23.7776C80.9928 20.7625 79.8785 16.5 79.8687 16.4508C79.8292 16.2937 79.918 16.1267 80.0856 16.0875C80.2434 16.0482 80.411 16.1366 80.4505 16.3035C80.4998 16.4901 81.6535 20.8705 79.4742 24.1116C79.415 24.2 79.3164 24.2392 79.2178 24.2392Z" fill="#A02E1C"/>
<path d="M71.8514 34.6106C71.8416 34.6106 71.8317 34.6106 71.8218 34.6106C71.6542 34.591 71.5359 34.4437 71.5556 34.2767C71.7923 32.0276 70.9245 31.1633 69.82 30.0633C68.7057 28.9535 67.4434 27.6963 67.0194 24.799C66.9997 24.6321 67.1082 24.4847 67.2758 24.4553C67.4434 24.4356 67.5914 24.5437 67.6209 24.7106C68.0252 27.4213 69.2086 28.5999 70.2539 29.641C71.3682 30.7508 72.4234 31.8017 72.1571 34.3356C72.1374 34.4928 71.9993 34.6106 71.8514 34.6106Z" fill="#A02E1C"/>
<path d="M67.8279 48.0365C67.6603 48.0365 67.5321 47.899 67.5321 47.7418C67.5321 46.2391 67.2855 44.9133 66.7925 43.6659C66.7333 43.5088 66.8023 43.3418 66.9601 43.2731C67.1179 43.2141 67.2855 43.2829 67.3546 43.44C67.8871 44.7561 68.1435 46.1606 68.1435 47.732C68.1336 47.9088 67.9956 48.0365 67.8279 48.0365Z" fill="#D0634C"/>
<path d="M41.5477 87.6759C41.4096 87.6759 41.2913 87.5875 41.2518 87.45C41.2124 87.2929 41.311 87.1259 41.4786 87.0866C43.8947 86.517 54.5646 82.4509 59.6037 76.6366C59.7121 76.5089 59.8995 76.4991 60.0277 76.6071C60.1559 76.7152 60.1658 76.9018 60.0573 77.0295C54.9294 82.9616 44.0722 87.0964 41.6167 87.6759C41.597 87.6661 41.5674 87.6759 41.5477 87.6759Z" fill="#303257"/>
<path d="M40.4036 74.3677C40.5909 74.3186 40.7783 74.2695 40.9558 74.24C40.9065 74.1811 40.867 74.1221 40.8177 74.0632C40.0288 73.0418 37.9678 70.9793 37.3071 71.5489C36.8141 71.9712 38.1453 73.9552 38.8751 74.9668C39.3878 74.7802 39.8612 74.5248 40.4036 74.3677Z" fill="#FFA28D"/>
<path d="M40.433 74.3579C41.3008 74.1222 42.0404 74.1222 42.9378 74.0731C43.0956 74.0632 43.2533 74.0534 43.4111 74.0338C42.1587 72.2463 40.0583 69.4963 39.0327 69.5748C37.5141 69.6927 39.3285 72.3838 39.3285 72.3838L40.433 74.3579Z" fill="#FFA28D"/>
<path d="M44.506 72.4132C41.9716 69.565 40.4136 67.8757 39.5359 68.9659C39.1809 69.398 41.2419 72.0498 42.938 74.0828C43.4607 74.0632 43.9833 73.9846 44.506 73.9355C44.4567 73.4248 44.4567 72.9239 44.506 72.4132Z" fill="#FFA28D"/>
<path d="M44.8019 70.5472C42.4648 68.3079 42.0605 68.4061 41.3012 68.7793C40.7095 69.0641 42.9973 72.1284 44.5159 73.9356C44.3976 72.8159 44.5554 71.6766 44.8019 70.5472Z" fill="#FFA28D"/>
<path d="M40.4724 74.3187C40.3837 74.3187 40.2949 74.2794 40.2357 74.2008L38.9735 72.6098C38.8749 72.4821 38.8946 72.2955 39.0228 72.1874C39.151 72.0892 39.3384 72.1089 39.4468 72.2365L40.7091 73.8276C40.8077 73.9553 40.788 74.1419 40.6598 74.2499C40.6006 74.2892 40.5414 74.3187 40.4724 74.3187Z" fill="#D0634C"/>
<path d="M43.1152 74.1024C43.0166 74.1024 42.9279 74.0533 42.8687 73.9748C42.0206 72.7471 40.9753 71.3426 39.6737 70.2328C39.5455 70.1247 39.5356 69.9381 39.6342 69.8105C39.7427 69.6828 39.93 69.673 40.0582 69.781C41.4191 70.9301 42.494 72.3739 43.3618 73.6408C43.4604 73.7783 43.4209 73.9649 43.2829 74.0533C43.2336 74.0828 43.1744 74.1024 43.1152 74.1024Z" fill="#D0634C"/>
<path d="M44.3186 72.9336C44.2299 72.9336 44.1411 72.8944 44.082 72.8158C43.224 71.7354 42.228 70.6453 40.9559 69.3783C40.8376 69.2604 40.8376 69.0738 40.9559 68.956C41.0743 68.8381 41.2616 68.8381 41.38 68.956C42.6718 70.2426 43.6777 71.3426 44.5553 72.4426C44.6539 72.5703 44.6342 72.7569 44.506 72.8649C44.4468 72.914 44.3877 72.9336 44.3186 72.9336Z" fill="#D0634C"/>
<path d="M59.6924 77.2848C59.6628 77.2848 59.6332 77.2848 59.6036 77.2749C54.742 75.8017 49.7029 74.849 44.6243 74.4464C44.4567 74.4365 44.3384 74.2892 44.3482 74.1223C44.3581 73.9553 44.506 73.8374 44.6737 73.8473C49.7917 74.2499 54.8702 75.2124 59.7811 76.7053C59.9389 76.7544 60.0277 76.9214 59.9784 77.0785C59.9389 77.2062 59.8206 77.2848 59.6924 77.2848Z" fill="#303257"/>
<path d="M37.4453 76.0962C37.3467 76.0962 37.2481 76.0471 37.1988 75.9587C37.11 75.8212 37.1495 75.6346 37.2875 75.5462C39.4274 74.1319 42.1097 73.5132 44.6637 73.8471C44.8314 73.8667 44.9399 74.0141 44.9201 74.181C44.9004 74.348 44.7426 74.456 44.5849 74.4364C42.1787 74.1221 39.6444 74.7114 37.6228 76.0471C37.5538 76.0766 37.4946 76.0962 37.4453 76.0962Z" fill="#303257"/>
<path d="M44.802 74.5838C44.6738 74.5838 44.5555 74.4954 44.516 74.3677C43.8849 72.2267 44.161 67.316 47.5829 63.2892C49.7622 60.716 51.1823 58.0642 52.3065 54.4008C52.3558 54.2436 52.5234 54.1552 52.6812 54.2043C52.839 54.2534 52.9277 54.4204 52.8784 54.5776C51.7246 58.3195 50.275 61.0401 48.0365 63.6722C44.7724 67.5222 44.4963 72.1677 45.088 74.191C45.1373 74.3481 45.0387 74.5151 44.8809 74.5642C44.8513 74.574 44.8217 74.5838 44.802 74.5838Z" fill="#303257"/>
</g>
<defs>
<clipPath id="clip0_2060_4249">
<rect width="123" height="105" fill="white"/>
</clipPath>
</defs>
</svg>
