<svg width="123" height="105" viewBox="0 0 123 105" fill="none" xmlns="http://www.w3.org/2000/svg">
<g clip-path="url(#clip0_2060_2950)">
<path d="M117.802 84.8715C115.138 89.3209 111.716 92.8676 107.479 95.6589C107.396 95.7142 107.322 95.7694 107.239 95.8155C98.4519 101.509 86.2518 104.005 70.3611 104.549C69.8339 104.567 69.2974 104.585 68.761 104.595C66.9203 104.641 65.0334 104.668 63.1003 104.668C59.7149 104.668 56.4776 104.576 53.3883 104.392C37.6271 103.48 25.6212 100.394 17.1949 96.6446C10.0173 93.4572 5.43881 89.7723 3.36692 86.5481C3.30218 86.4468 3.24668 86.3546 3.18193 86.2533C3.13569 86.1704 3.08019 86.0875 3.03394 86.0046C2.12749 84.5214 1.44303 82.983 0.952801 81.4169C0.952801 81.4077 0.943552 81.4077 0.943552 81.3985C-3.03374 68.7226 6.02153 53.7897 22.1249 41.4362C24.8535 39.3451 27.7764 37.3276 30.875 35.4115C33.7146 33.652 36.6929 31.9846 39.7915 30.4093C40.2632 30.1698 40.7349 29.9303 41.2159 29.7C41.7339 29.4512 42.2426 29.1933 42.7698 28.9538C42.9456 28.8709 43.1213 28.788 43.2971 28.705C43.482 28.6221 43.667 28.53 43.8428 28.4471C43.8613 28.4379 43.889 28.4287 43.9075 28.4195C49.3185 25.923 51.1129 21.4643 53.8692 17.282C56.3111 13.5879 59.5022 10.0965 66.6151 8.36463C68.9829 7.78427 71.3046 7.45263 73.5615 7.32366C74.3754 7.2776 75.1801 7.25917 75.9848 7.26839C76.2161 7.26839 76.4473 7.2776 76.6785 7.28681C78.1307 7.33287 79.5459 7.46184 80.9426 7.66451C81.1553 7.69214 81.368 7.72899 81.5808 7.76584C86.15 8.52124 90.4141 10.1057 94.3359 12.2337C94.5023 12.3259 94.6781 12.418 94.8446 12.5193C95.7418 13.026 96.6205 13.5511 97.4899 14.1038C97.6657 14.2236 97.8414 14.3341 98.0172 14.4539C98.4426 14.7394 98.8681 15.025 99.2843 15.3198C99.5711 15.5225 99.8578 15.7251 100.135 15.9278C100.274 16.0291 100.404 16.1305 100.542 16.2226C111.336 24.3109 118.514 35.9458 120.54 42.5785C124.277 54.7478 124.055 74.4157 117.802 84.8715Z" fill="#DEE5F9"/>
<path d="M51.0668 9.44244C50.9558 9.32268 50.8356 9.19371 50.7246 9.06474C50.3084 8.5765 50.0401 7.95007 49.5962 7.48947C47.626 5.47201 42.4093 4.13625 42.1503 4.18231C41.8821 4.22837 41.6508 4.256 41.4288 4.256C41.4288 4.28364 41.4196 4.30206 41.4011 4.28364C36.8503 4.11782 32.91 5.37067 29.9964 8.23565C29.608 8.5765 24.8445 9.74644 24.0398 14.0854C27.0736 53.9187 11.1922 47.3596 18.4623 57.8983C18.7305 58.2944 54.4799 68.308 54.4799 68.308C78.7414 56.7468 54.4892 34.26 53.9434 18.0466C53.8879 16.2134 52.8427 12.1692 51.0668 9.44244Z" fill="#D45034"/>
<path d="M32.4106 41.4546C32.4106 41.4546 28.7571 38.8292 21.0615 48.4282C14.0133 57.2258 4.33835 68.0132 4.78233 73.172C5.19855 77.9531 8.56538 78.9941 19.8035 78.9941C31.0417 78.9941 32.4106 41.4546 32.4106 41.4546Z" fill="#FBE0C2"/>
<path d="M58.9568 65.6826C57.0792 70.8137 54.961 75.733 53.8696 79.5653C51.6867 87.2666 52.0567 97.6487 53.3794 104.383C37.6182 103.471 25.6123 100.385 17.186 96.6354C17.5838 92.8676 17.9815 88.5932 18.111 85.7558C18.1572 84.6964 18.2312 83.6002 18.296 82.5132C18.3052 82.375 18.3145 82.246 18.3237 82.1078C18.333 82.0618 18.333 82.0065 18.333 81.9512C18.37 81.4722 18.3977 80.9839 18.4347 80.5049C18.4625 80.0259 18.4995 79.5653 18.5272 79.0954C18.5272 79.0586 18.5365 79.0218 18.5365 78.9849C18.5457 78.8099 18.555 78.6441 18.5735 78.4782C18.7122 76.1476 18.777 73.9551 18.629 72.214C18.5457 71.1914 18.3792 70.3255 18.111 69.6622C17.926 69.2108 17.7873 68.7042 17.6855 68.1514C17.6763 68.1146 17.667 68.0777 17.667 68.0409C17.667 68.0225 17.6578 68.004 17.6578 67.9856C17.6485 67.9395 17.6485 67.9027 17.6393 67.8659C17.6208 67.7369 17.6023 67.6079 17.593 67.4697C17.556 67.1289 17.5375 66.7788 17.5283 66.4195C17.5283 66.3551 17.5283 66.2998 17.5283 66.2353C17.5283 65.8668 17.5468 65.4891 17.5745 65.1022C17.593 64.8443 17.6208 64.5863 17.6578 64.3284C17.9445 62.3294 18.6937 60.229 19.9979 58.4326C20.1644 58.1931 20.3494 57.972 20.5344 57.7509C21.7923 56.277 22.6895 54.5451 23.411 52.7764C23.4202 52.7672 23.4202 52.7579 23.4295 52.7487C25.2331 48.2808 25.8528 43.5826 27.9525 42.0534C28.156 41.906 28.3687 41.7955 28.5907 41.7126C28.6924 41.6757 28.7942 41.6389 28.9144 41.5928C29.2104 41.4915 29.5619 41.3809 29.9504 41.2612C32.0222 40.6255 35.2688 39.7872 38.3304 39.0226C38.4044 39.0042 38.4692 38.9858 38.5432 38.9674C38.6356 38.9489 38.7374 38.9213 38.8299 38.8937C39.0426 38.8384 39.2646 38.7831 39.4774 38.7371L39.9861 38.6081C42.7979 37.9172 45.2213 37.3368 46.1093 37.1341L46.211 37.1065C46.2665 37.0881 46.3127 37.0789 46.3497 37.0697L46.3867 37.0604L46.4515 37.042H46.47L50.6045 37.7974L53.6014 38.3409C53.6014 38.3409 60.9085 39.4464 62.4069 46.9174C62.5364 47.5439 62.6196 48.2071 62.6566 48.9257C62.6659 48.9994 62.6659 49.0639 62.6659 49.1284C62.8324 54.1121 61.038 60.0263 58.9568 65.6826Z" fill="#FBE0C2"/>
<path d="M46.8769 80.2009C46.7104 79.5653 46.2387 78.7822 45.767 78.1097C45.656 78.2203 45.5357 78.3401 45.4155 78.4414C45.2952 78.5796 45.175 78.7177 45.0178 78.8559C44.8513 79.0125 43.2696 80.7997 42.4926 81.5459C41.3827 82.6053 39.4496 83.895 37.7754 84.3095C37.9511 84.5214 38.2471 84.7793 38.5431 85.0096C39.0333 85.3873 39.69 85.4518 40.2358 85.1847C40.2358 85.1847 41.0497 86.2072 42.1227 86.1151C43.0939 86.0322 43.3528 85.1662 43.3528 85.1662C43.3528 85.1662 44.1021 85.1939 44.4905 84.6596C44.879 84.1253 44.657 83.2962 44.657 83.2962C44.657 83.2962 45.323 83.4712 45.73 83.0106C46.1369 82.55 45.8595 81.463 45.8595 81.463C45.8595 81.463 47.2561 81.6564 46.8769 80.2009Z" fill="#FFA28D"/>
<path d="M40.245 85.4703C40.1155 85.4703 40.0045 85.3873 39.9675 85.2584C39.9028 85.0189 39.69 84.2082 39.4403 83.766C39.3663 83.6278 39.4125 83.462 39.5513 83.3791C39.69 83.3054 39.8565 83.3515 39.9398 83.4896C40.2172 83.9779 40.4392 84.7886 40.5225 85.1202C40.5595 85.2676 40.467 85.4242 40.319 85.461C40.2912 85.4703 40.2727 85.4703 40.245 85.4703Z" fill="#D0634C"/>
<path d="M43.3437 85.4702C43.2142 85.4702 43.1032 85.3873 43.0754 85.2584C42.8257 84.3003 42.243 83.3883 41.651 82.55C41.5585 82.421 41.5955 82.246 41.7158 82.1631C41.8453 82.071 42.021 82.1078 42.1042 82.2276C42.724 83.1119 43.3437 84.07 43.6212 85.1202C43.6582 85.2676 43.5749 85.4242 43.4177 85.461C43.3899 85.4703 43.3714 85.4702 43.3437 85.4702Z" fill="#D0634C"/>
<path d="M44.7032 83.7568C44.5737 83.7568 44.4535 83.6647 44.4257 83.5357C44.2685 82.7711 43.6488 82.0618 43.103 81.4353L42.9643 81.2787C42.8626 81.159 42.8811 80.9839 42.992 80.8826C43.1123 80.7813 43.288 80.7997 43.3898 80.9102L43.5285 81.0668C44.1205 81.7485 44.7865 82.5132 44.9714 83.4252C44.9992 83.5725 44.9067 83.7292 44.7495 83.7568C44.7402 83.7476 44.7217 83.7568 44.7032 83.7568Z" fill="#D0634C"/>
<path d="M45.8687 81.7485C45.7485 81.7485 45.6467 81.6749 45.6005 81.5643C45.36 80.8734 44.8605 80.0996 44.3981 79.4363C44.3056 79.3073 44.3426 79.1323 44.4721 79.0494C44.6015 78.9573 44.7773 78.9941 44.8605 79.1231C45.3415 79.814 45.8687 80.6247 46.1277 81.3893C46.1832 81.5367 46.1 81.6933 45.952 81.7485C45.9335 81.7393 45.9057 81.7485 45.8687 81.7485Z" fill="#D0634C"/>
<path d="M29.9316 75.4935C29.8206 75.4935 29.7096 75.4198 29.6634 75.3093C28.8772 73.1444 33.9737 67.221 39.8841 60.3672C42.7885 56.9863 45.8038 53.4949 48.1809 50.3536C48.2734 50.2338 48.4492 50.2062 48.5786 50.2983C48.6989 50.3904 48.7266 50.5654 48.6341 50.6944C46.2478 53.8542 43.2324 57.3548 40.3188 60.7356C35.0096 66.8986 29.5247 73.2642 30.1999 75.125C30.2554 75.2724 30.1814 75.429 30.0334 75.4843C29.9964 75.4843 29.9594 75.4935 29.9316 75.4935Z" fill="#303257"/>
<path d="M36.277 84.8162C36.129 84.8162 36.0088 84.7057 35.9995 84.549C35.9903 84.3924 36.1105 84.2635 36.2678 84.2543C40.763 83.9779 43.4824 80.3483 44.7866 78.6072C45.0363 78.2664 45.2398 77.9992 45.397 77.8334C51.7884 71.044 59.4563 60.1737 61.0657 56.6731C61.1304 56.5349 61.2969 56.4704 61.4357 56.5349C61.5744 56.5994 61.6392 56.7652 61.5744 56.9034C59.9465 60.4317 52.2324 71.3849 45.804 78.2111C45.6653 78.3585 45.4803 78.6072 45.2305 78.9389C43.8709 80.7536 41.0405 84.5214 36.2955 84.807C36.2863 84.8162 36.2863 84.8162 36.277 84.8162Z" fill="#303257"/>
<path d="M35.4076 84.4477C35.4076 84.4477 30.9586 85.3689 24.2435 83.7107C17.5283 82.0525 9.44425 79.9245 10.7114 75.7607C11.9786 71.5876 27.1478 71.6889 31.8651 70.5282C36.5731 69.3674 35.4076 84.4477 35.4076 84.4477Z" fill="#FBE0C2"/>
<path d="M39.4682 38.7278C39.4682 38.7278 30.6719 45.7107 36.2771 47.9308C43.3992 50.7497 53.5829 38.3501 53.5829 38.3501L46.4608 37.0512L39.4682 38.7278Z" fill="#FFA28D"/>
<path d="M10.1194 67.1381C10.1194 67.1381 28.2577 68.3172 35.9995 72.0758C43.7506 75.8251 39.2276 81.7301 35.5371 81.7301C31.8373 81.7301 14.3279 81.0392 9.67543 78.2571C5.02293 75.4751 10.1194 67.1381 10.1194 67.1381Z" fill="#FBE0C2"/>
<path d="M33.6964 85.0189C27.6749 85.0189 18.6844 82.6237 18.2497 82.5039C18.1017 82.4671 18.0092 82.3105 18.0554 82.1631C18.0924 82.0157 18.2497 81.9236 18.3977 81.9604C18.5179 81.9973 30.8198 85.2768 36.2307 84.2635C36.388 84.2358 36.536 84.3371 36.5637 84.4845C36.5915 84.6411 36.4897 84.7793 36.3417 84.8162C35.5648 84.9544 34.6676 85.0189 33.6964 85.0189Z" fill="#303257"/>
<path d="M40.9848 20.8471C40.9848 20.8471 36.5265 23.187 33.7886 22.0631C31.2543 21.0774 30.3756 18.7191 29.7004 17.4846C28.5997 15.4303 27.7857 15.4027 27.4805 15.7251C26.8053 16.4805 26.5093 18.3322 26.6295 19.4837C26.944 22.6711 27.684 24.2463 27.795 25.8493C27.8782 27.2771 26.3983 28.0878 26.537 28.8708C26.6943 29.746 27.8782 29.8013 28.2204 30.1882C28.8309 31.0725 29.6911 34.785 31.763 36.2129C32.3827 36.6367 33.5112 36.8854 34.3899 36.7288C36.1565 36.4985 37.9324 35.8168 38.8389 34.8403C40.513 33.0992 41.5767 30.0224 41.4287 26.7152C41.2622 23.8686 40.9848 20.8471 40.9848 20.8471Z" fill="#FFA28D"/>
<path d="M44.4348 22.929C44.2314 21.3445 42.9919 20.4878 42.0855 20.4694C40.6518 20.5523 39.9951 21.3906 38.8019 21.7867C38.6262 21.8143 39.6621 24.5135 40.5593 25.969C41.4288 27.2495 42.178 27.3877 42.178 27.3877C42.178 27.3877 44.8048 25.923 44.4348 22.929Z" fill="#FFA28D"/>
<path d="M50.586 37.8066C44.2686 35.8168 43.5194 26.3375 43.5194 26.3375L41.7619 26.1164L37.2944 35.9089C37.2944 35.9089 38.7559 38.7463 38.9686 41.0401C39.3848 44.3012 37.8217 47.1754 37.8217 47.1754C37.8217 47.1754 50.9745 37.9264 50.586 37.8066Z" fill="#FFA28D"/>
<path d="M41.9932 31.4502C41.9932 31.4502 41.096 32.961 39.4588 34.435C38.1269 35.5773 37.2852 35.9089 37.2852 35.9089L37.8864 37.2447C37.8864 37.2447 38.9778 36.7749 40.2265 35.1996C41.3272 33.7349 41.9932 31.4502 41.9932 31.4502Z" fill="#CE634A"/>
<path d="M41.9007 24.6609C41.7527 24.6609 41.6232 24.5411 41.6232 24.3937C41.5862 23.6936 41.8822 23.1225 42.4927 22.7448C42.6222 22.6619 42.7979 22.6987 42.8811 22.8369C42.9644 22.9659 42.9274 23.1409 42.7886 23.2238C42.3539 23.5002 42.1504 23.8687 42.1782 24.3661C42.1874 24.5227 42.0672 24.6517 41.9099 24.6609H41.9007Z" fill="#D0634C"/>
<path d="M30.7178 24.6056C30.6068 23.9976 30.0611 23.4633 29.6171 23.5462C29.0899 23.6384 28.8401 24.2279 28.9604 24.9281C29.0899 25.6282 29.6171 26.0704 30.0611 25.9874C30.5051 25.9045 30.8473 25.2965 30.7178 24.6056Z" fill="#612D22"/>
<path d="M30.7642 19.889C30.6624 19.6403 29.7837 19.6126 28.8773 19.9811C27.8043 20.4141 27.2771 21.0129 27.4159 21.3445C27.5176 21.5932 28.2761 21.0958 29.1825 20.7273C30.052 20.2667 30.9492 20.1009 30.7642 19.889Z" fill="#612D22"/>
<path d="M30.3755 32.4267C30.2922 32.4267 30.2182 32.3899 30.1627 32.3254C30.061 32.2056 30.0795 32.0306 30.1997 31.9293C30.2182 31.9109 30.246 31.8924 30.2645 31.8648C30.5975 31.524 31.0784 31.2476 33.1318 31.5332C33.2891 31.5516 33.3908 31.699 33.3723 31.8464C33.3538 32.003 33.2058 32.1043 33.0578 32.0859C31.1062 31.8187 30.8287 32.0951 30.6622 32.2609C30.6252 32.2978 30.5974 32.3254 30.5605 32.3623C30.505 32.3991 30.4402 32.4267 30.3755 32.4267Z" fill="#D0634C"/>
<path d="M38.3484 20.0733C36.332 19.9904 35.1388 18.4888 33.9827 17.0425C32.6877 15.4211 31.4575 13.8919 29.1637 14.1683C29.0064 14.1867 28.8677 14.0762 28.8492 13.9196C28.8307 13.7629 28.9417 13.6248 29.0989 13.6063C31.7073 13.2839 33.0947 15.0158 34.4266 16.6832C35.5551 18.0927 36.6188 19.4284 38.3669 19.5021C38.5242 19.5113 38.6444 19.6403 38.6352 19.7969C38.6259 19.9627 38.4964 20.0733 38.3484 20.0733Z" fill="#A02E1C"/>
<path d="M42.1777 18.2308C39.8561 18.2308 37.4882 16.9872 36.48 15.8633C36.3783 15.7436 36.3876 15.5685 36.4985 15.4672C36.6188 15.3659 36.7945 15.3751 36.8963 15.4856C38.0617 16.7845 41.1695 18.1756 43.5929 17.4754C43.7409 17.4294 43.8982 17.5215 43.9444 17.6689C43.9906 17.8163 43.8982 17.9729 43.7502 18.019C43.2414 18.1663 42.7142 18.2308 42.1777 18.2308Z" fill="#A02E1C"/>
<path d="M49.9936 20.9392C49.9381 20.9392 49.8826 20.9208 49.8363 20.8931C49.7068 20.8102 49.6698 20.6352 49.7623 20.5062C51.6585 17.6781 50.6133 13.68 50.604 13.634C50.567 13.4866 50.6503 13.33 50.8075 13.2931C50.9555 13.2563 51.1127 13.3392 51.1497 13.4958C51.196 13.6708 52.2782 17.7794 50.234 20.8194C50.1785 20.9023 50.0861 20.9392 49.9936 20.9392Z" fill="#A02E1C"/>
<path d="M43.0842 30.6672C43.075 30.6672 43.0657 30.6672 43.0565 30.6672C42.8992 30.6488 42.7882 30.5106 42.8067 30.354C43.0287 28.2444 42.2148 27.4338 41.1788 26.402C40.1336 25.361 38.9497 24.1819 38.552 21.4643C38.5335 21.3077 38.6352 21.1695 38.7925 21.1419C38.9497 21.1234 39.0884 21.2248 39.1162 21.3814C39.4954 23.9239 40.6054 25.0294 41.5858 26.0059C42.631 27.0468 43.6207 28.0325 43.371 30.4093C43.3525 30.5567 43.223 30.6672 43.0842 30.6672Z" fill="#A02E1C"/>
<path d="M39.3107 43.2602C39.1535 43.2602 39.0332 43.1312 39.0332 42.9838C39.0332 41.5744 38.802 40.3307 38.3395 39.1608C38.284 39.0134 38.3488 38.8568 38.4968 38.7923C38.6448 38.737 38.802 38.8015 38.8667 38.9489C39.3662 40.1833 39.6067 41.5007 39.6067 42.9746C39.5974 43.1404 39.468 43.2602 39.3107 43.2602Z" fill="#D0634C"/>
<path d="M14.6606 80.4404C14.5311 80.4404 14.4201 80.3575 14.3831 80.2286C14.3461 80.0812 14.4386 79.9246 14.5959 79.8877C16.862 79.3534 26.87 75.5396 31.5965 70.086C31.6982 69.9662 31.874 69.957 31.9942 70.0583C32.1144 70.1597 32.1237 70.3347 32.0219 70.4545C27.2122 76.0186 17.0285 79.8969 14.7254 80.4404C14.7069 80.4312 14.6791 80.4404 14.6606 80.4404Z" fill="#303257"/>
<path d="M13.5876 67.958C13.7634 67.9119 13.9391 67.8658 14.1056 67.8382C14.0594 67.7829 14.0224 67.7277 13.9761 67.6724C13.2362 66.7143 11.303 64.7798 10.6833 65.3141C10.2208 65.7102 11.4695 67.571 12.154 68.5199C12.6349 68.3449 13.0789 68.1054 13.5876 67.958Z" fill="#FFA28D"/>
<path d="M13.6152 67.9487C14.4291 67.7277 15.1229 67.7277 15.9646 67.6816C16.1126 67.6724 16.2605 67.6632 16.4085 67.6447C15.2339 65.9681 13.2637 63.3887 12.3018 63.4624C10.8773 63.573 12.5792 66.0971 12.5792 66.0971L13.6152 67.9487Z" fill="#FFA28D"/>
<path d="M17.4354 66.1248C15.0583 63.4532 13.5968 61.8687 12.7736 62.8913C12.4407 63.2966 14.3738 65.7839 15.9647 67.6908C16.4549 67.6724 16.9452 67.5987 17.4354 67.5526C17.3891 67.0736 17.3891 66.6038 17.4354 66.1248Z" fill="#FFA28D"/>
<path d="M17.7131 64.3744C15.5209 62.2741 15.1417 62.3662 14.4295 62.7163C13.8745 62.9834 16.0204 65.8576 17.4448 67.5526C17.3338 66.5024 17.4818 65.4338 17.7131 64.3744Z" fill="#FFA28D"/>
<path d="M13.6524 67.9119C13.5692 67.9119 13.4859 67.8751 13.4304 67.8014L12.2465 66.309C12.154 66.1892 12.1725 66.0142 12.2927 65.9129C12.413 65.8208 12.5887 65.8392 12.6905 65.9589L13.8744 67.4513C13.9669 67.5711 13.9484 67.7461 13.8282 67.8474C13.7727 67.8843 13.7172 67.9119 13.6524 67.9119Z" fill="#D0634C"/>
<path d="M16.1315 67.7092C16.039 67.7092 15.9558 67.6632 15.9003 67.5895C15.1048 66.438 14.1244 65.1206 12.9034 64.0797C12.7832 63.9783 12.7739 63.8033 12.8664 63.6835C12.9682 63.5638 13.1439 63.5546 13.2641 63.6559C14.5406 64.7337 15.5488 66.0879 16.3627 67.2763C16.4552 67.4052 16.4182 67.5803 16.2887 67.6632C16.2425 67.6908 16.187 67.7092 16.1315 67.7092Z" fill="#D0634C"/>
<path d="M17.2598 66.613C17.1765 66.613 17.0933 66.5761 17.0378 66.5024C16.2331 65.4891 15.2989 64.4666 14.1057 63.2782C13.9947 63.1677 13.9947 62.9926 14.1057 62.8821C14.2167 62.7715 14.3924 62.7715 14.5034 62.8821C15.7151 64.0889 16.6586 65.1206 17.4818 66.1524C17.5743 66.2721 17.5558 66.4472 17.4355 66.5485C17.38 66.5946 17.3245 66.613 17.2598 66.613Z" fill="#D0634C"/>
<path d="M31.6799 70.694C31.6521 70.694 31.6244 70.694 31.5966 70.6848C27.0366 69.3029 22.3101 68.4094 17.5466 68.0317C17.3894 68.0225 17.2784 67.8843 17.2876 67.7277C17.2969 67.5711 17.4356 67.4605 17.5929 67.4697C22.3934 67.8474 27.1569 68.7502 31.7631 70.1505C31.9111 70.1965 31.9944 70.3531 31.9481 70.5005C31.9111 70.6203 31.8001 70.694 31.6799 70.694Z" fill="#303257"/>
<path d="M10.8128 69.5793C10.7203 69.5793 10.6278 69.5332 10.5816 69.4503C10.4983 69.3214 10.5353 69.1463 10.6648 69.0634C12.6719 67.7369 15.1878 67.1565 17.5834 67.4697C17.7407 67.4881 17.8424 67.6263 17.8239 67.7829C17.8054 67.9395 17.6574 68.0409 17.5094 68.0224C15.2526 67.7277 12.8754 68.2804 10.9793 69.5332C10.9145 69.5609 10.859 69.5793 10.8128 69.5793Z" fill="#303257"/>
<path d="M17.7129 68.1606C17.5927 68.1606 17.4817 68.0777 17.4447 67.958C16.8527 65.9497 17.1117 61.3437 20.3213 57.5667C22.3654 55.1531 23.6973 52.6658 24.7518 49.2297C24.798 49.0823 24.9553 48.9994 25.1033 49.0454C25.2513 49.0915 25.3345 49.2481 25.2883 49.3955C24.2061 52.9053 22.8464 55.4571 20.7467 57.9259C17.6852 61.5371 17.4262 65.8945 17.9811 67.7922C18.0274 67.9396 17.9349 68.0962 17.7869 68.1422C17.7592 68.1514 17.7314 68.1606 17.7129 68.1606Z" fill="#303257"/>
<path d="M87.1031 71.2928C87.0291 71.2928 86.9551 71.2651 86.8997 71.2099C86.7887 71.0993 86.7887 70.9243 86.8997 70.8137C87.5009 70.2149 89.5265 68.2804 90.6457 68.3725C90.8029 68.3817 90.9139 68.5199 90.9047 68.6765C90.8954 68.8331 90.7567 68.9437 90.5995 68.9345C89.952 68.8792 88.4351 70.086 87.2974 71.2191C87.2511 71.2651 87.1771 71.2928 87.1031 71.2928Z" fill="#303257"/>
<path d="M99.96 17.5583C100.052 15.9462 101.764 15.6606 102.05 14.0577C102.624 10.9348 101.098 10.8335 101.477 9.23057C102.143 6.29189 100.237 4.30207 99.0073 3.16898C95.585 -0.239516 91.9684 1.46473 91.9684 1.46473C91.9684 1.46473 88.1669 -0.819881 83.0241 0.322424C79.6018 1.07782 78.1774 2.31225 76.7437 3.82304C75.4118 5.14959 73.3214 6.66038 72.7479 9.41481C72.3687 11.5889 73.4139 12.6391 73.4139 13.8643C73.4139 14.4354 72.8404 16.1397 73.4139 18.0282C74.1723 20.3036 75.791 20.1101 76.0777 22.579C76.457 25.9875 82.1639 26.6507 82.1639 26.6507C82.1639 26.6507 82.5432 26.5586 84.2543 26.273C90.9232 25.2321 99.8582 19.2626 99.96 17.5583Z" fill="#BD5755"/>
<path d="M85.7804 17.936C85.7804 17.936 87.399 18.8849 89.6837 18.7928C91.2098 18.7006 92.7267 18.0374 93.8644 16.6187C94.7246 15.5777 96.815 16.4252 97.5735 13.8735C98.3319 11.2204 97 9.60826 98.5262 9.70959C99.5714 9.70959 99.8581 12.2706 100.052 13.4958C100.339 16.9043 99.8581 18.7099 100.052 20.4141C100.247 21.9341 101.958 22.496 101.958 23.3528C101.958 24.3016 100.718 24.5872 100.432 25.057C100.237 25.6282 100.052 26.577 99.6731 27.8944C99.2939 29.2209 98.8129 31.0173 98.0545 32.0582C97.3885 33.0071 96.3433 33.2927 95.2981 33.2927C93.9662 33.3848 93.0135 33.0992 92.0608 32.915C91.3023 32.7215 90.6364 32.4452 90.0629 32.0582C87.9725 30.5382 86.2613 27.5075 85.7804 24.0068C85.4011 20.8747 85.7804 17.936 85.7804 17.936Z" fill="#FFA28D"/>
<path d="M81.8866 20.497C81.7941 18.7928 82.9318 17.6597 83.8845 17.4662C85.4107 17.2728 86.5484 18.4151 88.0653 18.7006C88.2596 18.7006 87.2051 21.2616 86.4466 22.9659C85.7807 24.4859 85.0222 24.7622 85.0222 24.7622C85.0222 24.7622 82.1734 23.7121 81.8866 20.497Z" fill="#FFA28D"/>
<path d="M77.8076 34.8495C80.5177 34.9969 81.0264 26.3651 81.0264 26.3651C81.0264 26.3651 81.6924 25.7019 82.1641 24.8451C82.83 23.712 82.83 22.8553 82.83 22.8553L85.4939 23.1409L92.1535 32.9887C92.1535 32.9887 89.7949 36.738 94.7249 37.7606C94.9192 41.2612 102.18 43.3984 102.18 43.3984L72.7573 44.6328C72.7573 44.6328 74.2835 42.8365 76.2721 40.5611C74.1263 38.433 77.3358 36.084 77.8076 34.8495Z" fill="#FFA28D"/>
<path d="M86.354 29.2117C86.354 29.2117 87.02 30.3448 89.0179 31.5792C90.6365 32.5281 92.061 32.9979 92.061 32.9979L91.6817 34.5179C91.6817 34.5179 90.4423 34.2323 88.8329 32.8136C87.5009 31.4779 86.354 29.2117 86.354 29.2117Z" fill="#CE634A"/>
<path d="M84.9293 21.7222C84.7906 21.7222 84.6704 21.6209 84.6519 21.4735C84.5871 20.9392 84.3004 20.5799 83.7824 20.3773C83.6344 20.322 83.5697 20.1562 83.6252 20.0088C83.6807 19.8614 83.8471 19.7969 83.9951 19.8522C84.6981 20.1377 85.1236 20.672 85.2161 21.3998C85.2346 21.5564 85.1236 21.6946 84.9756 21.713C84.9478 21.7222 84.9386 21.7222 84.9293 21.7222Z" fill="#D0634C"/>
<path d="M98.5261 27.7838C98.4798 27.7838 98.4428 27.7746 98.4058 27.7562C98.3966 27.7562 97.4624 27.3324 95.4552 27.7193C95.298 27.747 95.15 27.6456 95.1222 27.4982C95.0945 27.3416 95.1962 27.1942 95.3442 27.1666C97.5641 26.7336 98.6093 27.2311 98.6556 27.2495C98.7943 27.314 98.8498 27.489 98.785 27.6272C98.7296 27.7285 98.6371 27.7838 98.5261 27.7838Z" fill="#D0634C"/>
<path d="M95.6775 14.5368C95.7977 14.1775 96.7596 14.0025 97.7493 14.3341C98.924 14.7302 99.5807 15.4488 99.4605 15.808C99.3403 16.1673 98.4431 15.5685 97.4441 15.2277C96.5469 14.9329 95.5572 14.896 95.6775 14.5368Z" fill="#612D22"/>
<path d="M97.5734 7.51711C97.4439 7.51711 97.3237 7.42498 97.2959 7.29601C97.2867 7.26838 96.7132 4.65213 94.0123 3.22425C93.8736 3.15055 93.8273 2.98473 93.8921 2.84655C93.9661 2.70837 94.1326 2.66231 94.2713 2.72679C97.2034 4.28364 97.8139 7.06571 97.8416 7.17626C97.8694 7.32365 97.7769 7.48026 97.6196 7.50789C97.6196 7.50789 97.6011 7.51711 97.5734 7.51711Z" fill="#6D2F2F"/>
<path d="M76.5772 18.2124C75.162 16.7477 75.4302 15.808 75.7355 14.721C75.8927 14.1499 76.0592 13.5695 75.9852 12.8694C75.9667 12.7312 75.939 12.593 75.902 12.4364C75.8095 11.9666 75.6985 11.4323 75.6985 10.7322C75.6985 10.5755 75.5782 10.4466 75.421 10.4466C75.2637 10.4466 75.1342 10.5755 75.1342 10.7322C75.1342 11.4783 75.2545 12.0679 75.347 12.5469C75.3747 12.6943 75.4025 12.8233 75.421 12.9431C75.4765 13.5234 75.3377 14.0301 75.1805 14.5736C74.8568 15.7251 74.5238 16.9043 76.1609 18.6085C76.2164 18.6638 76.2904 18.6914 76.3644 18.6914C76.4384 18.6914 76.5032 18.6638 76.5587 18.6085C76.6789 18.5072 76.6789 18.323 76.5772 18.2124ZM78.7231 5.6102C78.6676 5.46281 78.5011 5.39832 78.3531 5.46281C77.2986 5.89578 76.5217 6.48535 75.9945 7.26839C75.5875 7.87639 75.3377 8.60415 75.2267 9.47009C75.2082 9.62669 75.3192 9.76488 75.4765 9.7833C75.4857 9.7833 75.495 9.7833 75.5135 9.7833C75.6522 9.7833 75.7725 9.68197 75.791 9.53457C75.9112 8.60415 76.1979 7.86717 76.6882 7.26839C77.1321 6.72487 77.7519 6.30111 78.5658 5.96947C78.7138 5.92341 78.7786 5.75759 78.7231 5.6102Z" fill="#6D2F2F"/>
<path d="M80.3604 23.5186C80.2772 23.5186 80.1939 23.4818 80.1384 23.4081C79.1672 22.1276 78.9452 20.0272 79.6482 18.8388C79.7222 18.7007 79.8979 18.6638 80.0367 18.7375C80.1754 18.8112 80.2124 18.9862 80.1384 19.1244C79.5557 20.1285 79.7684 21.971 80.5916 23.0764C80.6841 23.1962 80.6564 23.3804 80.5362 23.4725C80.4807 23.5002 80.4252 23.5186 80.3604 23.5186Z" fill="#6D2F2F"/>
<path d="M88.5923 16.7292C87.954 16.7292 87.4176 16.5082 86.9181 16.3055C86.0117 15.937 85.1607 15.5962 83.7548 16.4713C83.6253 16.5542 83.4495 16.5174 83.3663 16.3792C83.283 16.2502 83.32 16.0752 83.4588 15.9923C85.1052 14.9697 86.1874 15.4027 87.1308 15.7804C88.0558 16.1581 88.8605 16.4805 90.2017 15.6146C90.5809 15.3659 90.7844 15.0711 91.0156 14.7394C91.4319 14.1406 91.9128 13.4682 93.4853 12.8417C95.2704 12.16 95.1132 9.54378 95.1132 9.52535C95.1039 9.36875 95.2242 9.23978 95.3722 9.23057C95.5294 9.21214 95.6589 9.34111 95.6681 9.48851C95.6774 9.61748 95.8439 12.5469 93.6795 13.3668C92.2736 13.9288 91.8666 14.5091 91.4689 15.0619C91.2191 15.4119 90.9694 15.7712 90.4977 16.0844C89.767 16.5634 89.138 16.7292 88.5923 16.7292Z" fill="#6D2F2F"/>
<path d="M81.1279 16.5082C81.1001 16.5082 81.0816 16.5082 81.0539 16.4989C80.9059 16.4621 80.8134 16.3055 80.8596 16.1489C81.3684 14.3433 83.9305 12.7772 86.6128 13.3945L86.6406 13.4037C88.1667 13.6892 89.3692 13.9103 90.3959 12.2061C90.4791 12.0771 90.6456 12.0311 90.7844 12.114C90.9139 12.1969 90.9601 12.3627 90.8769 12.5009C89.6467 14.546 88.065 14.2512 86.5296 13.9656L86.4926 13.9564C84.134 13.4129 81.8216 14.7763 81.3961 16.3147C81.3591 16.4345 81.2481 16.5082 81.1279 16.5082Z" fill="#6D2F2F"/>
<path d="M80.841 8.6502C80.7948 8.6502 80.7485 8.64098 80.7023 8.61335C80.5635 8.53965 80.5173 8.36462 80.6005 8.22644C81.951 5.87734 83.5881 6.01552 85.0311 6.13528C85.7155 6.19055 86.363 6.24583 86.918 6.01552C87.3342 5.82207 87.6672 5.46279 88.0094 5.0851C88.7401 4.28364 89.5633 3.38085 91.5427 3.7217C91.7 3.74934 91.8017 3.89673 91.7739 4.04412C91.7462 4.20073 91.5982 4.30206 91.4502 4.27443C89.7761 3.98885 89.1193 4.69819 88.4256 5.46279C88.0556 5.86813 87.6764 6.28267 87.1492 6.5314C86.4647 6.81698 85.7155 6.75249 84.9848 6.69722C83.5789 6.57746 82.2562 6.46692 81.0908 8.5028C81.0353 8.60413 80.9335 8.6502 80.841 8.6502Z" fill="#6D2F2F"/>
<path d="M96.7227 19.6403C96.7227 18.977 97.1944 18.3137 97.6754 18.3137C98.2488 18.3137 98.6281 18.8849 98.6281 19.6403C98.6281 20.3036 98.1563 20.9668 97.6754 20.9668C97.1019 20.9668 96.7227 20.3957 96.7227 19.6403Z" fill="#612D22"/>
<path d="M107.239 95.8155C98.4522 101.509 86.2521 104.005 70.3614 104.549C70.3429 104.705 70.3337 104.853 70.3244 105C69.7047 104.889 69.1775 104.76 68.7613 104.595C68.049 104.318 67.6513 103.95 67.6051 103.462C66.8651 96.6722 69.3162 77.2991 67.5311 61.0489C67.4663 60.4224 67.4108 59.8052 67.3646 59.1972C66.8096 52.0302 67.5588 45.7106 66.4489 40.8743C66.1621 39.603 66.7819 38.2949 67.9565 37.7237C68.0305 37.6869 68.1045 37.65 68.1785 37.6132C70.9256 36.3603 76.0314 35.5773 78.6027 34.1863C78.6952 34.131 78.8155 34.1586 78.8802 34.2415C78.8987 34.2692 78.9265 34.2968 78.945 34.3244C82.395 38.5712 86.1688 41.86 90.4236 41.3441C92.6527 41.0677 93.2447 39.8701 92.0978 36.4248C95.2704 37.7882 103.604 40.4597 104.723 41.6112C104.77 41.6573 104.797 41.6942 104.816 41.731C105.861 43.7024 106.989 57.0969 106.435 61.3437C106.314 62.2833 106.296 64.6324 106.351 67.7829C106.37 68.7226 106.388 69.7451 106.416 70.8137C106.435 71.5046 106.453 72.2232 106.472 72.9602C106.481 73.3287 106.49 73.6971 106.499 74.0748C106.499 74.1209 106.509 74.167 106.509 74.213C106.518 74.3696 106.518 74.5262 106.527 74.6828C106.601 77.2162 106.694 79.9153 106.786 82.6237C106.786 82.7158 106.795 82.8079 106.795 82.9093C106.795 83.0014 106.804 83.0935 106.804 83.1856C106.814 83.4528 106.823 83.7292 106.832 83.9963C106.98 88.197 107.128 92.3517 107.239 95.8155Z" fill="#7DB6BD"/>
<path d="M62.6381 48.9349C65.4407 57.7417 78.5842 78.7362 82.543 81.3801C86.4925 84.0239 89.2674 81.6288 90.7381 79.6113C93.7997 75.4198 90.0906 67.3131 90.0906 67.3131C90.0906 67.3131 84.3652 60.5053 82.5892 54.5819C80.8133 48.6585 77.539 38.7555 74.0427 37.7145C70.5464 36.6735 67.2351 37.3368 65.1077 39.4648C61.2136 43.3339 62.6381 48.9349 62.6381 48.9349Z" fill="#7DB6BD"/>
<path d="M90.6269 68.9345C90.5252 68.9345 90.4234 68.8792 90.3772 68.7779C90.3217 68.6581 89.7297 67.7553 89.0545 66.7051C87.3433 64.0428 84.4667 59.5933 83.6343 57.9536C82.4503 55.6413 80.3045 49.3863 80.2212 49.1191C80.175 48.9718 80.249 48.8151 80.397 48.7599C80.5449 48.7046 80.7022 48.7875 80.7577 48.9349C80.7762 48.9994 82.9776 55.411 84.143 57.6956C84.9662 59.3078 87.8243 63.748 89.5355 66.3919C90.3957 67.7277 90.8119 68.3725 90.8859 68.5107C90.9599 68.6489 90.9044 68.8147 90.7656 68.8884C90.7102 68.9252 90.6732 68.9345 90.6269 68.9345Z" fill="#303257"/>
<path d="M103.845 41.1322C103.845 41.1322 107.36 42.3298 109.246 49.0178C110.255 52.6013 116.276 67.6171 117.479 70.39C118.672 73.1628 118.154 75.4474 115.351 76.9122C112.558 78.3769 106.148 74.3236 103.937 69.0726C101.727 63.8125 103.845 41.1322 103.845 41.1322Z" fill="#7DB6BD"/>
<path d="M105.917 68.5568C105.76 68.5568 105.63 68.4278 105.63 68.2712C105.676 64.5587 105.001 54.5912 102.67 49.1468C102.605 49.0086 102.679 48.8428 102.818 48.7783C102.966 48.7138 103.123 48.7875 103.188 48.9257C105.556 54.453 106.25 64.5311 106.194 68.2804C106.194 68.437 106.065 68.5568 105.917 68.5568Z" fill="#303257"/>
<path d="M116.516 68.0593C116.516 68.0593 121.049 75.6501 115.943 80.0443C112.807 82.7435 107.341 83.3883 99.2569 82.7158C97.592 82.5776 95.5479 80.6431 95.5479 80.6431L103.771 75.8896L116.516 68.0593Z" fill="#7DB6BD"/>
<path d="M105.916 68.2804C105.796 67.7553 106.268 67.7092 107.628 67.7922C109.737 67.9211 111.586 71.5415 111.586 71.5415L106.804 74.2775C106.814 74.2775 106.804 72.2877 105.916 68.2804Z" fill="#FFA28D"/>
<path d="M106.814 83.1856C106.805 83.1856 106.795 83.1856 106.786 83.1856C103.604 82.9093 97.3608 81.1129 94.8635 80.0811C94.7155 80.0259 94.6507 79.8601 94.7062 79.7127C94.7617 79.5653 94.9282 79.5008 95.0762 79.556C97.5366 80.5694 103.697 82.3381 106.832 82.6145C106.99 82.6237 107.101 82.7619 107.091 82.9185C107.082 83.0751 106.962 83.1856 106.814 83.1856Z" fill="#303257"/>
<path d="M107.054 74.1301C107.045 74.1209 107.045 74.1117 107.036 74.1025C106.989 74.038 106.952 73.9919 106.888 73.9827C106.869 73.9735 106.841 73.9735 106.804 73.9827C106.73 73.9919 106.638 74.0196 106.508 74.084C106.222 74.213 105.732 74.4617 104.881 74.9039C101.745 76.5345 94.6413 80.247 89.2489 81.2419C87.621 81.5459 86.1595 81.5919 85.0034 81.2695C81.803 80.3667 78.9634 76.2765 76.8915 73.2826C76.3551 72.5088 75.8833 71.8271 75.4671 71.2928C73.3675 68.5936 68.8537 61.7214 67.9935 59.7776C67.9288 59.6394 67.7623 59.5749 67.6235 59.6394C67.6143 59.6394 67.6143 59.6486 67.605 59.6486C67.4755 59.7223 67.42 59.8697 67.4755 60.0079C68.1785 61.5832 70.9811 65.9405 73.1547 69.0726C73.164 69.0819 73.164 69.0911 73.1732 69.1003C73.8947 70.1412 74.5422 71.0348 75.0139 71.652C75.4209 72.1771 75.8833 72.8496 76.4198 73.6234C78.5379 76.6819 81.4423 80.8734 84.8369 81.8222C85.4288 81.9881 86.0948 82.071 86.8163 82.071C87.251 82.071 87.695 82.0433 88.1574 81.9881C90.2386 81.7578 92.625 81.0484 94.9836 80.1548C95.2426 80.0535 95.5016 79.9614 95.7605 79.8508C97.5919 79.1231 99.3956 78.294 101.005 77.511C102.633 76.7187 104.057 75.9725 105.14 75.4106C105.704 75.1158 106.212 74.8579 106.527 74.7013C106.656 74.6368 106.758 74.5907 106.814 74.5723C106.878 74.5723 106.934 74.5539 106.989 74.517C107.091 74.4157 107.119 74.2499 107.054 74.1301Z" fill="#303257"/>
<path d="M116.517 73.4392C116.452 73.4392 116.387 73.4116 116.332 73.3655C115.064 72.2416 113.307 71.6705 111.624 71.8363C111.466 71.8547 111.328 71.7349 111.318 71.5876C111.3 71.4309 111.42 71.2928 111.568 71.2836C113.409 71.1085 115.323 71.7349 116.702 72.951C116.822 73.0523 116.831 73.2273 116.72 73.3471C116.674 73.4116 116.591 73.4392 116.517 73.4392Z" fill="#303257"/>
<path d="M92.6064 68.6857C92.6064 68.6857 90.1831 66.8709 89.5264 66.613C88.8696 66.3551 87.3157 65.7286 87.103 66.2998C86.8902 66.8709 87.6672 67.5803 88.4719 67.8198C89.5633 68.1514 90.627 68.6489 90.627 68.6489L92.6064 68.6857Z" fill="#FFA28D"/>
<path d="M94.4287 68.7318C94.4287 68.7318 91.5891 65.0654 90.2479 63.8493C89.73 63.3795 87.3436 62.2372 86.3261 61.795C85.3087 61.3529 84.3745 60.7633 83.6993 61.2147C83.5513 61.316 83.6345 61.9148 83.6345 61.9148L83.0611 61.9701C82.7651 61.9977 82.6263 62.1727 82.5431 62.4583C82.5153 62.5597 82.5061 62.6518 82.5338 62.7439C82.6448 63.0479 83.69 63.619 83.69 63.619C83.69 63.619 83.5328 63.9875 83.6438 64.3376C83.7548 64.6877 84.1063 64.9917 84.7537 65.1851C85.4012 65.3786 86.0394 65.5536 86.3816 65.7563C86.7239 65.9589 87.1956 66.2445 87.1956 66.2445L92.5973 68.6857L94.4287 68.7318Z" fill="#FFA28D"/>
<path d="M91.4783 67.0275C89.7394 65.5904 85.9378 63.5454 83.6255 63.6191L83.6162 63.3427C86.0026 63.2782 89.8781 65.3509 91.654 66.8157L91.4783 67.0275Z" fill="#FFCEA5"/>
<path d="M91.4041 67.1105C91.3393 67.1105 91.2653 67.0828 91.2098 67.0368C89.138 65.1206 86.4463 63.9599 83.6252 63.7572C83.468 63.748 83.357 63.6098 83.3663 63.4532C83.3755 63.2966 83.5143 63.1861 83.6715 63.1953C86.6128 63.4072 89.4339 64.6324 91.5983 66.6222C91.7093 66.7236 91.7186 66.9078 91.6168 67.0183C91.5613 67.0828 91.4781 67.1105 91.4041 67.1105Z" fill="#D0634C"/>
<path d="M91.7003 66.0603C91.6448 66.0603 91.5801 66.0418 91.5338 66.005C88.7682 63.9138 85.6234 62.4123 83.533 62.1912C83.3758 62.1727 83.2648 62.0346 83.2833 61.878C83.3018 61.7214 83.4405 61.6108 83.5977 61.6292C85.7899 61.8687 89.0365 63.4072 91.8853 65.5536C92.0056 65.6457 92.0333 65.8208 91.9408 65.9497C91.8668 66.0234 91.7836 66.0603 91.7003 66.0603Z" fill="#D0634C"/>
<path d="M92.7452 68.4738C92.7267 68.4554 92.7082 68.4278 92.6897 68.4094C91.9775 67.5895 90.7011 66.8894 89.5541 66.438C89.4801 66.4103 89.4061 66.3827 89.3321 66.3551C89.1101 66.2721 88.8974 66.2077 88.6939 66.1432C88.2037 65.9958 87.7782 65.9129 87.5007 65.9129C87.3527 65.9129 87.1492 65.9313 87.0197 66.0787C87.0105 66.0879 87.0013 66.0971 86.992 66.1155C86.918 66.2353 86.9458 66.3827 87.0475 66.4748C87.0567 66.484 87.0567 66.484 87.066 66.484C87.1677 66.5577 87.3065 66.5577 87.4082 66.4748C87.473 66.4564 87.6025 66.4656 87.769 66.5025C88.1112 66.5577 88.6199 66.6959 89.1841 66.9078C89.4616 67.0091 89.7669 67.1289 90.0628 67.2671C90.0721 67.2671 90.0813 67.2763 90.0998 67.2855C90.7011 67.5618 91.3115 67.9119 91.7925 68.3172C91.8202 68.3449 91.848 68.3633 91.8757 68.3909C91.9867 68.4831 92.0885 68.5844 92.181 68.6857C92.2272 68.7318 92.2735 68.7871 92.3105 68.8331C92.366 68.8976 92.4492 68.9345 92.5232 68.9345C92.588 68.9345 92.6527 68.916 92.699 68.87C92.7544 68.8239 92.7914 68.7594 92.8007 68.6949C92.8192 68.6212 92.8007 68.5383 92.7452 68.4738Z" fill="#D0634C"/>
<path d="M87.6763 71.4954C87.6393 71.4954 87.5931 71.4862 87.5561 71.4678C87.4173 71.4033 87.3526 71.2375 87.4173 71.0993C88.0463 69.7267 89.2487 68.6857 90.5529 68.3817C90.5714 68.3725 90.5992 68.3725 90.6176 68.3725C91.5518 68.3725 92.671 68.4094 93.855 68.4462C97.7675 68.5752 102.624 68.7318 105.824 67.7922C105.972 67.7461 106.129 67.829 106.175 67.9856C106.222 68.133 106.138 68.2896 105.981 68.3357C102.698 69.3029 97.7768 69.1463 93.8365 69.0174C92.671 68.9805 91.5703 68.9437 90.6546 68.9437C89.5262 69.22 88.481 70.1412 87.926 71.348C87.889 71.4402 87.7873 71.4954 87.6763 71.4954Z" fill="#303257"/>
</g>
<defs>
<clipPath id="clip0_2060_2950">
<rect width="123" height="105" fill="white"/>
</clipPath>
</defs>
</svg>
