<svg width="100" height="105" viewBox="0 0 100 105" fill="none" xmlns="http://www.w3.org/2000/svg">
<g clip-path="url(#clip0_2060_3035)">
<path d="M99.7356 72.2019C99.3157 83.2549 94.4912 91.0449 87.0631 96.2507C86.4753 96.6597 85.878 97.0501 85.2715 97.4313C85.1128 97.5242 84.9542 97.6265 84.7862 97.7194C84.7489 97.738 84.7209 97.7659 84.6836 97.7845C84.5996 97.831 84.5249 97.8868 84.4409 97.924C84.3103 97.9983 84.189 98.0727 84.0583 98.1471C83.6198 98.3888 83.1812 98.6305 82.7332 98.8536C74.456 103.12 63.9299 104.942 52.9558 104.98C51.3694 104.989 49.7737 104.961 48.178 104.896C45.6584 104.794 43.1389 104.608 40.6193 104.338C36.2614 103.873 32.0342 102.721 28.0682 101.01C25.9593 100.099 23.9249 99.0302 21.9746 97.8217C21.9186 97.7845 21.8533 97.7473 21.788 97.7102C21.6387 97.6172 21.4987 97.5242 21.3587 97.4313C21.3401 97.422 21.3214 97.4127 21.3027 97.3941C5.24291 87.0662 -4.49937 67.1356 2.07947 48.1625C6.31605 35.9475 14.4533 29.868 27.0324 33.0565C28.5161 33.4283 30.1212 33.512 31.8009 33.3354C34.8524 33.0286 38.1278 31.9038 41.2632 30.2956C41.6645 30.0911 42.0471 29.8866 42.439 29.6634C43.2882 29.1894 44.1187 28.6874 44.9212 28.1575C45.1919 27.9809 45.4532 27.8043 45.7144 27.6276C46.153 27.3302 46.5916 27.0141 47.0302 26.7073C47.4501 26.4006 47.8794 26.0938 48.3087 25.787C48.8312 25.4152 49.3538 25.034 49.867 24.6529C50.2496 24.374 50.6322 24.1044 51.0148 23.8256C53.2544 22.2174 55.5127 20.6556 57.9016 19.3821C58.5175 19.0567 59.1334 18.7499 59.7586 18.4618C60.7758 17.997 61.8209 17.5972 62.8941 17.2719C63.37 17.1231 63.8552 16.993 64.3405 16.8815C66.9814 16.2679 69.6316 16.1935 72.2164 16.5654C82.0707 17.9877 91.0478 25.9172 95.275 35.2875C100.613 47.1399 100.221 59.2433 99.7356 72.2019Z" fill="url(#paint0_linear_2060_3035)"/>
<path d="M58.5922 38.8386C57.771 34.8413 53.4505 32.9449 53.4505 32.9449C53.4505 32.9449 51.4348 29.2916 44.884 28.1575C40.5261 27.3673 35.403 28.362 30.7838 34.6275C28.8241 37.3698 28.1709 38.4853 26.2859 40.642C24.1116 42.966 21.5454 43.3657 20.323 45.4387C18.9792 47.9673 19.5671 49.278 18.5873 50.8583C17.3275 53.015 14.9759 54.0282 13.7441 55.4784C11.1313 61.0653 18.6059 65.2578 18.6059 65.2578L45.9664 76.1062C45.9664 76.1062 48.1407 73.9867 48.4953 72.2112C48.8126 70.3148 48.3927 69.4875 49.2045 67.6283C50.2217 65.3508 52.032 64.5885 52.7972 61.7811C53.6371 58.8064 52.6759 57.003 53.8424 53.1544C54.5236 50.9234 56.4553 48.6737 57.6311 46.0709C58.5082 44.035 59.2734 41.8412 58.5922 38.8386Z" fill="#D45034"/>
<path d="M13.7346 55.9246C12.1576 56.6218 12.1389 58.8993 12.8575 60.4703C13.576 62.0321 14.7705 63.4729 14.8265 65.1927C14.8918 67.4702 12.9508 69.2643 12.2229 71.421C11.579 73.3267 11.971 75.5484 13.2307 77.1288C14.4905 78.6998 16.5808 79.5736 18.5965 79.3691C20.7521 79.1553 22.6464 77.8074 24.7834 77.4355C28.0588 76.8592 31.2596 78.6161 34.5536 79.0344C37.1945 79.3691 40.022 78.7649 42.0283 77.0358C44.044 75.3067 45.0518 72.3599 44.156 69.8686C43.0455 66.8102 39.6674 65.3042 36.6253 64.1237C29.1879 61.2419 21.7506 58.3601 14.3132 55.4784L13.7346 55.9246Z" fill="#D45034"/>
<path d="M53.2915 39.0058C53.2448 39.0058 53.2075 38.9965 53.1702 38.9779C53.0302 38.9129 52.9742 38.7362 53.0396 38.5968C53.6741 37.3047 53.4875 35.3618 52.9089 34.6088C52.8156 34.488 52.8343 34.302 52.9649 34.2091C53.0862 34.1161 53.2728 34.1347 53.3662 34.2649C54.066 35.1852 54.2993 37.3325 53.5528 38.8478C53.4968 38.95 53.3942 39.0058 53.2915 39.0058Z" fill="#A02E1C"/>
<path d="M35.3 41.0137C35.1506 41.0137 35.02 40.8928 35.02 40.7441C35.0107 40.5861 35.1413 40.4559 35.2906 40.4466C36.8024 40.3909 38.1088 40.3444 40.0871 38.3457C41.4402 36.8677 42.4574 36.8119 43.5398 36.7561C44.2864 36.7189 45.0516 36.6725 46.0594 36.1426C46.1994 36.0682 46.3673 36.124 46.442 36.2541C46.5166 36.3936 46.4607 36.5609 46.33 36.6353C45.2195 37.2302 44.3424 37.2767 43.5772 37.3139C42.532 37.3697 41.7108 37.4161 40.507 38.7269C38.3607 40.9021 36.8863 40.9486 35.3186 41.0044C35.3093 41.0137 35.3 41.0137 35.3 41.0137Z" fill="#A02E1C"/>
<path d="M35.1601 39.0246C34.4509 39.0246 33.6297 38.8573 32.6405 38.411C32.5005 38.346 32.4352 38.1786 32.5005 38.0392C32.5659 37.8998 32.7338 37.8347 32.8738 37.8998C35.1787 38.9223 36.4945 38.3367 37.4743 37.6395C37.7356 37.4629 37.9876 37.2305 38.2489 36.9888C38.7528 36.524 39.3313 36.0034 40.1245 35.6873C40.2738 35.6315 40.4325 35.6966 40.4978 35.8453C40.5538 35.9941 40.4885 36.1521 40.3392 36.2172C39.6393 36.4961 39.126 36.9609 38.6315 37.4164C38.3515 37.6674 38.0902 37.9091 37.8009 38.1136C37.1104 38.5877 36.2892 39.0246 35.1601 39.0246Z" fill="#A02E1C"/>
<path d="M45.2476 70.9097C45.1823 70.9097 45.117 70.8912 45.061 70.8447C44.9397 70.7424 44.921 70.5658 45.0237 70.4449C45.6862 69.6641 45.6396 68.9855 45.5836 68.1302C45.5462 67.5353 45.4996 66.866 45.7049 66.0944C46.0128 64.9789 46.5261 64.4862 47.0393 64.0028C47.6459 63.4265 48.2804 62.8222 48.6444 60.9723C48.6723 60.8143 48.8217 60.7213 48.9803 60.7492C49.1389 60.7771 49.2323 60.9258 49.2043 61.0839C48.8123 63.1197 48.0845 63.8076 47.4406 64.4211C46.9553 64.8859 46.5261 65.2857 46.2648 66.2432C46.0875 66.9311 46.1248 67.526 46.1621 68.0931C46.2181 68.9948 46.2741 69.85 45.4623 70.8075C45.4063 70.8726 45.3316 70.9097 45.2476 70.9097Z" fill="#A02E1C"/>
<path d="M20.1083 55.5807C19.9964 55.5807 19.8937 55.5156 19.8471 55.4133C19.7817 55.2739 19.8471 55.1066 19.9964 55.0415C22.7026 53.8609 23.0198 52.4851 23.4024 50.8955C23.6077 50.0123 23.8317 49.092 24.4476 48.1346C25.4834 46.5078 26.5939 45.95 27.4897 45.5131C28.1709 45.1691 28.7122 44.9088 29.0294 44.2488C29.0948 44.1094 29.2721 44.0536 29.412 44.1187C29.552 44.1838 29.608 44.3604 29.5427 44.4998C29.1414 45.3272 28.4602 45.6618 27.7417 46.0244C26.8645 46.4613 25.8753 46.954 24.9235 48.4506C24.3543 49.3337 24.149 50.1983 23.953 51.0349C23.5611 52.6989 23.1878 54.2699 20.2203 55.5714C20.183 55.5714 20.1457 55.5807 20.1083 55.5807Z" fill="#A02E1C"/>
<path d="M23.7289 57.2444C23.6169 57.2444 23.5143 57.1794 23.4676 57.0678C23.4116 56.9191 23.477 56.761 23.6263 56.696C24.6434 56.2777 25.1193 54.9669 25.5766 53.6934C26.0245 52.4384 26.4911 51.1463 27.5176 50.6071C27.6575 50.5327 27.8255 50.5885 27.9002 50.7279C27.9748 50.8674 27.9188 51.0347 27.7789 51.1091C26.9483 51.5367 26.5377 52.6801 26.1085 53.8793C25.6046 55.2644 25.0913 56.7053 23.8316 57.2166C23.7942 57.2351 23.7569 57.2444 23.7289 57.2444Z" fill="#A02E1C"/>
<path d="M38.3611 31.216C38.2678 31.216 38.1651 31.1696 38.1185 31.0766C38.0345 30.9465 38.0812 30.7698 38.2211 30.6862C40.4327 29.3754 43.9135 29.3197 46.6756 30.556C46.8156 30.6211 46.8809 30.7884 46.8156 30.9279C46.7503 31.0673 46.5823 31.1324 46.4424 31.0673C43.8295 29.896 40.5727 29.9425 38.5104 31.1603C38.4544 31.2067 38.4078 31.216 38.3611 31.216Z" fill="#A02E1C"/>
<path d="M56.0353 45.3738C55.9887 45.3738 55.9514 45.3645 55.914 45.3459C55.7741 45.2809 55.7181 45.1042 55.7834 44.9648C55.7927 44.9462 56.8005 42.8174 55.5408 40.4841C55.4661 40.3447 55.5221 40.1774 55.6527 40.103C55.7927 40.0286 55.9607 40.0844 56.0353 40.2145C57.4351 42.8174 56.334 45.1135 56.2873 45.2158C56.2406 45.3181 56.138 45.3738 56.0353 45.3738Z" fill="#A02E1C"/>
<path d="M47.1514 52.1318C47.0581 52.1318 46.9554 52.0853 46.9088 51.9924C46.8341 51.8529 46.8714 51.6856 47.0114 51.6019C47.786 51.1557 47.8513 50.8954 47.8606 50.8489C47.8699 50.7095 47.8046 50.5608 47.7113 50.3749C47.59 50.1146 47.45 49.7985 47.4687 49.3523C47.59 48.1996 48.7378 46.6936 48.7844 46.6286C48.8778 46.5077 49.0551 46.4798 49.1857 46.5728C49.307 46.6657 49.335 46.8424 49.2417 46.9725C49.2324 46.9911 48.1406 48.4134 48.0379 49.3988C48.0192 49.687 48.1219 49.9101 48.2339 50.1425C48.3365 50.3749 48.4485 50.6165 48.4298 50.914C48.3738 51.3045 48.0099 51.6856 47.3007 52.0946C47.254 52.1225 47.1981 52.1318 47.1514 52.1318Z" fill="#D0634C"/>
<path d="M33.4243 48.9525C33.4243 48.9525 31.1753 47.6511 31.9405 44.6392C32.2578 43.3563 33.4523 42.6034 34.4041 42.7614C35.2719 42.873 35.8972 43.4865 36.5317 44.1C37.1103 44.7972 33.4243 48.9525 33.4243 48.9525Z" fill="#FFA28D"/>
<path d="M33.3872 49.0363C33.3872 49.0363 33.5272 50.849 34.8336 53.4333C36.1867 56.3522 39.4808 59.4943 42.3083 60.4611C44.5946 61.2698 46.6942 59.7174 48.3366 58.2672C49.9416 56.6869 51.0801 54.9857 52.2186 52.8755C53.3197 50.849 54.0102 49.027 54.6541 46.8703C56.4271 41.5809 53.4597 37.974 49.4097 38.8757C46.5542 39.4335 45.0891 42.0085 41.0112 44.0257C39.3595 44.8624 37.4558 44.3418 35.5802 43.3285C34.7403 42.9195 33.3872 49.0363 33.3872 49.0363Z" fill="#FFA28D"/>
<path d="M34.1525 46.926C33.9939 46.926 33.8726 46.8051 33.8726 46.6471C33.8632 45.8569 33.6673 45.5595 33.3127 45.3178C33.182 45.2248 33.154 45.0482 33.2473 44.918C33.3406 44.7879 33.518 44.76 33.6486 44.853C34.2085 45.2527 34.4325 45.764 34.4418 46.6378C34.4325 46.7958 34.3111 46.926 34.1525 46.926Z" fill="#D0634C"/>
<path d="M43.4558 45.9406C43.7451 45.3642 44.361 44.9459 44.8555 45.1876C45.3501 45.4293 45.5274 46.1265 45.2381 46.7121C44.9582 47.2885 44.333 47.7068 43.8384 47.4651C43.3438 47.2234 43.2598 46.5634 43.4558 45.9406Z" fill="#612D22"/>
<path d="M50.1469 48.8968C50.4361 48.3204 51.136 47.9393 51.5093 48.2275C52.0039 48.4692 52.0972 49.1292 51.7706 49.7892C51.4906 50.3656 50.8281 50.663 50.4081 50.4585C49.9975 50.254 49.8669 49.4731 50.1469 48.8968Z" fill="#612D22"/>
<path d="M44.2024 41.4786C44.3237 41.2276 45.2755 41.1811 46.2273 41.5437C47.3471 41.9899 47.935 42.6871 47.8977 42.9753C47.7764 43.2263 46.9832 42.7336 46.0687 42.2874C45.0329 41.8876 44.0811 41.7296 44.2024 41.4786Z" fill="#612D22"/>
<path d="M54.6352 45.8478C54.7565 45.5968 54.2153 45.0297 53.3847 44.6207C52.4702 44.1745 51.6024 44.2675 51.4811 44.5092C51.3598 44.7602 52.1903 44.9554 53.0581 45.2807C53.842 45.5596 54.5139 46.0895 54.6352 45.8478Z" fill="#612D22"/>
<path d="M24.7645 63.1849C29.2063 58.2673 33.4989 47.9394 33.4989 47.9394L35.9812 47.5304L40.6377 59.4479C40.6377 59.4479 38.2394 64.133 38.2021 64.6257C37.9315 67.2658 41.3562 69.7571 44.1091 72.5366C46.7406 75.3626 47.0485 77.4635 47.0485 77.4635C47.0485 77.4635 22.8701 64.9325 24.7645 63.1849Z" fill="#FFA28D"/>
<path d="M34.2734 51.2208C34.2734 51.2208 34.8333 53.4425 36.6717 55.9803C38.2674 58.1928 40.5163 59.6987 40.5163 59.6987L39.8258 61.1024C39.8258 61.1024 38.0808 60.0427 36.4384 57.3004C34.4601 53.9817 34.2734 51.2208 34.2734 51.2208Z" fill="#CE634A"/>
<path d="M47.0675 52.299C46.9555 52.299 46.8529 52.234 46.8062 52.1317C46.7409 51.9923 46.8062 51.8249 46.9462 51.7599C47.6274 51.4531 47.8327 51.1835 47.8514 51.0627C47.8514 51.0534 47.8514 51.0441 47.8607 51.0255C47.8887 50.9139 47.8327 50.7838 47.73 50.57C47.5994 50.3097 47.4501 49.9936 47.4688 49.5567C47.5901 48.404 48.7379 46.8981 48.7845 46.833C48.8778 46.7121 49.0551 46.6843 49.1858 46.7772C49.3071 46.8702 49.3351 47.0468 49.2418 47.1769C49.2325 47.1955 48.1406 48.6178 48.038 49.6032C48.0287 49.8728 48.1313 50.0866 48.2433 50.319C48.3646 50.5607 48.4952 50.8303 48.4206 51.1463C48.3366 51.6576 47.7114 52.0387 47.1888 52.2619C47.1515 52.2897 47.1142 52.299 47.0675 52.299Z" fill="#D0634C"/>
<path d="M42.6817 51.9273C43.0084 51.6763 43.8855 52.6152 45.5559 53.4239C47.2169 54.2327 48.0008 54.1026 48.0101 54.5116C48.1408 55.0879 46.0412 56.6311 44.6227 55.7386C42.4578 54.4837 42.2711 52.3456 42.6817 51.9273Z" fill="white"/>
<path d="M45.5185 24.2346C45.5185 24.2346 41.4125 23.8813 40.8806 20.5069C40.61 18.4432 38.9116 18.3223 38.5757 16.835C38.0811 14.762 38.8743 14.0741 39.3782 12.7633C39.7328 11.843 39.5742 10.272 39.6488 9.69564C39.9941 8.01306 41.2259 6.36767 42.1964 5.8285C44.6879 4.28537 46.3023 4.2203 46.405 3.96001C46.6009 3.65324 46.7689 2.8166 48.346 1.67319C51.2574 -0.399815 53.6744 -0.167415 55.8953 0.381049C57.8923 0.910921 60.0946 -0.288263 62.8007 0.371753C64.3031 0.790073 65.3203 2.31462 66.2255 3.11407C67.6439 4.32255 69.9861 5.1406 70.7607 6.87895C71.8711 9.11929 71.0873 9.57479 70.9473 10.7275C70.8727 11.3038 72.5897 13.163 72.3844 15.8868C72.2257 17.4857 70.658 18.406 70.4621 19.9119C70.0795 22.4869 69.4729 23.0819 67.5319 24.3833C66.3375 25.1363 62.2128 23.0354 62.2128 23.0354L45.5185 24.2346Z" fill="#BD5755"/>
<path d="M59.5531 18.0899C59.5531 18.0899 54.6913 21.6781 51.4346 21.2691C49.2043 20.953 47.7672 19.9491 46.6567 18.6941C46.4048 18.3688 46.1062 18.9358 44.9584 18.5733C43.6239 18.2944 43.7546 17.3555 43.6333 18.0713C43.5586 18.6476 43.8946 19.382 44.0065 19.8747C45.1637 23.1841 46.4328 24.8016 46.9927 26.5306C47.4593 28.0738 46.0595 29.3473 46.4328 30.1654C46.8434 31.0764 48.1498 30.8161 48.6351 31.1508C49.0643 31.6156 49.6522 32.4429 50.5947 33.5584C51.5279 34.6739 52.769 36.1985 53.9448 36.8771C54.9899 37.4999 56.1191 37.3326 57.1269 36.8771C58.452 36.3937 59.2359 35.7151 60.0757 35.1294C60.7289 34.6182 61.2422 34.0604 61.6248 33.4562C62.9872 31.1043 63.3231 27.4509 62.2687 23.8813C61.1395 20.888 59.5531 18.0899 59.5531 18.0899Z" fill="#FFA28D"/>
<path d="M64.3593 19.0196C63.7154 17.337 62.129 16.7328 61.1305 16.9559C59.5815 17.4207 59.0869 18.5176 57.8924 19.2706C57.7058 19.3542 59.5628 22.0222 60.9439 23.3794C62.241 24.5507 63.0902 24.5042 63.0902 24.5042C63.0902 24.5042 65.5257 22.1059 64.3593 19.0196Z" fill="#FFA28D"/>
<path d="M73.2803 32.5361C71.7686 31.1324 67.9053 24.2162 67.9053 24.2162C67.9053 24.2162 67.1307 24.4486 66.2069 24.0954C65.2831 23.7421 64.1166 22.6173 64.1166 22.6173L62.2129 23.0263L60.0573 35.3528C60.0573 35.3528 62.8008 38.718 60.5426 42.1854C60.2999 48.1069 57.2578 49.8639 57.2578 49.8639L78.2634 45.1136C78.2634 45.1136 81.5015 37.1748 78.5994 35.8455C75.7905 34.479 74.2695 33.5215 73.2803 32.5361Z" fill="#FFA28D"/>
<path d="M63.7808 29.2171C63.7808 29.2171 63.6315 30.5929 62.2411 32.638C61.0933 34.237 59.8335 35.3525 59.8335 35.3525L60.8506 36.6446C60.8506 36.6446 61.9145 35.8452 62.857 33.7815C63.7061 31.9873 63.7808 29.2171 63.7808 29.2171Z" fill="#CE634A"/>
<path d="M61.8397 21.5108C61.7184 21.5108 61.6065 21.4364 61.5691 21.3063C61.3452 20.5626 61.5131 19.8747 62.073 19.2983C62.185 19.1868 62.3623 19.1868 62.4743 19.2891C62.5863 19.4006 62.5863 19.5772 62.4836 19.6888C62.073 20.1071 61.9517 20.5905 62.1197 21.1297C62.1664 21.2784 62.0824 21.4364 61.9331 21.4829C61.8957 21.5108 61.8677 21.5108 61.8397 21.5108Z" fill="#D0634C"/>
<path d="M49.811 24.5042C49.5217 23.8628 48.7845 23.4352 48.3272 23.6397C47.87 23.8442 47.6554 24.5972 47.982 25.3223C48.2712 25.9637 49.0084 26.3913 49.4657 26.1868C49.9323 25.9823 50.1003 25.1457 49.811 24.5042Z" fill="#612D22"/>
<path d="M51.3788 33.1681C51.2388 33.1681 51.1175 33.0658 51.0989 32.9264C51.0802 32.7683 51.1829 32.6289 51.3415 32.601C51.6681 32.5545 53.3385 32.2478 54.6076 30.621C54.7009 30.5001 54.8875 30.4722 55.0088 30.5745C55.1302 30.6675 55.1582 30.8534 55.0555 30.9742C53.6837 32.7219 51.9201 33.0937 51.4161 33.1681C51.4068 33.1681 51.3881 33.1681 51.3788 33.1681Z" fill="#D0634C"/>
<path d="M48.8965 19.7726C48.7285 19.41 47.702 19.3171 46.7035 19.7633C45.5184 20.2931 44.8932 21.1112 45.0611 21.483C45.2291 21.8456 46.1063 21.1298 47.1141 20.6743C48.0286 20.2745 49.0644 20.1444 48.8965 19.7726Z" fill="#612D22"/>
<path d="M52.4613 18.8244C51.0989 18.8244 50.0911 18.0156 49.2886 17.3649C48.962 17.0953 48.6447 16.8444 48.3741 16.7142C47.9168 16.5004 47.3289 16.4818 46.7037 16.4632C45.108 16.4167 43.1203 16.361 41.9352 12.7913C41.8885 12.6426 41.9632 12.4845 42.1125 12.4288C42.2618 12.3823 42.4204 12.4566 42.4764 12.6054C43.5402 15.7939 45.1546 15.8404 46.7224 15.8869C47.4036 15.9055 48.0475 15.924 48.6167 16.1936C48.9526 16.361 49.2886 16.6305 49.6432 16.9187C50.7443 17.8111 52.1161 18.9174 54.309 17.7089C54.449 17.6345 54.617 17.681 54.6916 17.8204C54.7663 17.9599 54.7196 18.1272 54.5796 18.2016C53.7958 18.6478 53.0866 18.8244 52.4613 18.8244Z" fill="#6D2F2F"/>
<path d="M55.3449 17.0861C54.0665 17.0861 52.5641 16.6957 50.987 15.4965C50.8657 15.4036 50.8377 15.2269 50.931 15.0968C51.0243 14.9759 51.2017 14.9481 51.3323 15.041C55.4289 18.1738 58.8536 15.4222 58.9936 15.3106C59.1149 15.2083 59.2922 15.2269 59.3949 15.3478C59.4975 15.4686 59.4789 15.6453 59.3575 15.7475C59.3296 15.7661 57.7058 17.0861 55.3449 17.0861Z" fill="#6D2F2F"/>
<path d="M58.6388 4.83397C58.5828 4.70382 58.4241 4.63875 58.2935 4.68523C58.2562 4.67594 58.1722 4.64805 58.1068 4.62016C57.4536 4.42494 56.959 4.16466 56.4831 3.90437C55.6059 3.43027 54.7754 2.98406 53.2917 3.19787C51.9479 3.3745 51.1734 3.94155 50.4269 4.48072C49.5683 5.11285 48.8311 5.65202 47.2728 5.56835C47.1048 5.55906 46.9835 5.6799 46.9741 5.83794C46.9648 5.99597 47.0861 6.12611 47.2448 6.13541C47.3661 6.1447 47.4874 6.1447 47.5994 6.1447C49.1298 6.1447 49.9603 5.53117 50.7628 4.94552C51.4813 4.41565 52.1626 3.92296 53.3663 3.76493C54.6728 3.57901 55.354 3.94155 56.2125 4.40635C56.6884 4.65734 57.2297 4.95482 57.9202 5.15933C58.0882 5.2244 58.2935 5.30806 58.4988 5.2151C58.6388 5.15003 58.7041 4.9827 58.6388 4.83397ZM65.2736 5.71709C63.8085 4.20184 62.4741 4.41565 61.0463 4.63875C60.5611 4.71312 60.0572 4.79678 59.5346 4.80608C59.376 4.80608 59.2546 4.93622 59.2546 5.09426C59.2546 5.25229 59.3946 5.38243 59.5439 5.37314C60.1132 5.36384 60.6264 5.28018 61.1396 5.19651C62.5207 4.9827 63.6032 4.80608 64.863 6.10752C64.919 6.1633 64.9936 6.19118 65.0683 6.19118C65.1429 6.19118 65.2083 6.1633 65.2642 6.11682C65.3762 6.00526 65.3856 5.82864 65.2736 5.71709Z" fill="#6D2F2F"/>
<path d="M67.868 11.9453C67.84 11.9453 67.8213 11.9453 67.7933 11.936C66.3749 11.5641 65.7497 10.5974 65.1431 9.65847C64.3499 8.4314 63.6687 7.37166 61.2705 7.67842C60.8319 7.7249 60.44 7.78068 60.0854 7.81786C58.275 8.05026 57.2765 8.18041 56.1007 7.31588C55.9701 7.22292 55.9421 7.0463 56.0354 6.91615C56.1287 6.78601 56.306 6.75812 56.4367 6.85108C57.4352 7.57617 58.2377 7.47391 60.0107 7.25081C60.3653 7.20433 60.7666 7.15785 61.1958 7.10207C63.9487 6.75812 64.7979 8.06886 65.6191 9.34241C66.1883 10.2255 66.7295 11.0622 67.9333 11.3782C68.0826 11.4154 68.1759 11.5734 68.1386 11.7222C68.1106 11.8616 67.9893 11.9453 67.868 11.9453Z" fill="#6D2F2F"/>
<path d="M67.2336 21.297C67.1496 21.297 67.0563 21.2599 67.0003 21.1762C66.9069 21.0461 66.9349 20.8694 67.0656 20.7765C68.8386 19.5029 67.8214 17.3648 67.7748 17.2812C67.7095 17.1417 67.7655 16.9744 67.9054 16.9C68.0454 16.835 68.2134 16.8907 68.288 17.0302C68.2974 17.0581 69.5665 19.6795 67.4015 21.2413C67.3455 21.2878 67.2895 21.297 67.2336 21.297Z" fill="#6D2F2F"/>
<path d="M45.1546 13.4232C45.1359 13.4232 45.1079 13.4232 45.0893 13.4139C45.0613 13.4046 42.4297 12.7725 42.4204 9.63975C42.4204 9.48172 42.5511 9.35158 42.7004 9.35158C42.859 9.35158 42.9896 9.48172 42.9896 9.63046C42.999 12.3077 45.1266 12.8376 45.2199 12.8562C45.3692 12.8934 45.4719 13.0421 45.4345 13.2001C45.3972 13.3303 45.2852 13.4232 45.1546 13.4232Z" fill="#6D2F2F"/>
<path d="M84.1707 99.3098C84.1518 99.3098 84.133 99.3192 84.1235 99.3192C84.1424 99.291 84.1518 99.2535 84.1707 99.2253C84.1707 99.2535 84.1707 99.2816 84.1707 99.3098Z" fill="#7DB6BD"/>
<path d="M85.8871 74.6375C85.2992 77.7238 84.8233 80.2895 84.4594 82.6228C83.8062 86.8432 83.5356 90.2827 83.7689 94.6332C83.7875 94.8656 83.7968 95.098 83.8155 95.3397C83.8715 96.2414 83.9555 97.1803 84.0488 98.1657C83.6102 98.4074 83.1716 98.6491 82.7237 98.8722C74.4465 103.139 63.9203 104.961 52.9463 104.998C51.3599 105.008 49.7642 104.98 48.1685 104.915C48.5137 103.13 48.8497 101.28 49.1576 99.4392C49.5215 97.264 49.8575 95.098 50.1188 93.0436C50.4267 90.6359 50.632 88.377 50.6973 86.4435C50.716 86.053 50.716 85.6812 50.716 85.3186C50.716 84.4448 50.716 83.5338 50.7253 82.5856C50.7253 82.3718 50.7347 82.1487 50.7347 81.9256C50.7347 81.8791 50.7347 81.8233 50.7347 81.7769C50.7907 76.8593 50.9866 71.0958 51.4066 65.8156C51.4439 65.3229 51.4905 64.8302 51.5279 64.3376C52.0131 58.7879 52.769 53.9261 53.8981 51.3789C55.1766 48.5065 56.5296 46.6194 58.4613 43.8027C59.3292 42.5477 60.2997 41.1162 61.4288 39.322C61.4848 39.7032 63.3418 40.4469 68.5115 36.3659C70.1726 35.0552 72.8228 32.5917 73.1027 32.5917C73.1027 32.5917 73.2147 32.6103 73.4107 32.6754C74.2132 32.8985 76.4808 33.7166 78.9444 36.0684C79.0377 36.1521 79.1217 36.2358 79.2057 36.3287C81.3333 38.4482 83.5542 41.7111 85.0753 46.7309C87.2962 54.0283 87.8655 64.2074 85.8871 74.6375Z" fill="#7DB6BD"/>
<path d="M21.4799 97.264C19.8655 96.2321 18.7364 94.4752 18.4751 92.5881C18.3165 91.4168 18.5311 90.0874 19.4363 89.3252C20.2481 88.6373 21.4053 88.5629 22.4691 88.5257C22.8797 90.9706 23.2903 93.4991 22.6837 95.8974C22.5904 96.2693 22.4691 96.6504 22.2265 96.9572C21.9838 97.264 21.6106 97.4871 21.228 97.4499L21.4799 97.264Z" fill="#FFA28D"/>
<path d="M81.4828 95.7766C78.9353 97.1525 70.91 94.6704 63.3887 91.7794C63.3327 91.7608 63.2767 91.7329 63.2207 91.7143C63.0901 91.6678 62.9594 91.612 62.8288 91.5656C57.9576 89.6692 53.3665 87.6519 50.6976 86.4342C49.1952 85.7556 48.2993 85.3279 48.2993 85.3279L50.119 93.0343L51.4535 98.6677L51.5188 98.9466L51.5841 99.2255L52.9465 104.998C51.3601 105.008 49.7644 104.98 48.1687 104.915C45.6492 104.812 43.1296 104.626 40.61 104.357C36.2521 103.892 32.0249 102.739 28.0589 101.029C25.0448 100.769 22.8892 100.146 22.3573 99.0488C22.2359 98.7978 22.1146 98.5375 22.0027 98.2773C21.9933 98.1378 21.9747 97.9984 21.9653 97.8496C21.9467 97.6544 21.928 97.4592 21.9093 97.264C21.6574 94.5961 21.3868 92.0025 21.1161 89.7807C21.0695 89.3996 21.0228 89.0277 20.9762 88.6652C20.8175 87.4381 20.6589 86.3505 20.4909 85.4674C20.1736 83.7197 20.099 81.4608 20.2483 79.0067C20.4909 75.093 21.3308 70.6589 22.7492 66.9312C23.7943 64.1888 25.1568 61.837 26.8365 60.3496C26.9205 60.2659 27.0138 60.1916 27.1071 60.1172C27.9656 59.42 28.8988 58.9366 29.9253 58.7507C32.0715 58.351 35.123 58.918 38.5197 60.0335C39.033 60.2009 39.5462 60.3868 40.0781 60.5727C40.0875 60.5727 40.0875 60.582 40.0968 60.582C42.4577 61.4465 44.9399 62.5434 47.3662 63.724C47.5435 63.8077 47.7208 63.9007 47.8981 63.9843C48.8406 64.4491 49.7644 64.9325 50.6789 65.4159C50.9309 65.5461 51.1735 65.6855 51.4255 65.8156C53.0305 66.6895 54.5609 67.5819 55.9607 68.4278C56.1006 68.5115 56.2406 68.6044 56.3806 68.6881C56.4086 68.7067 56.4366 68.7253 56.4646 68.7346C58.7975 70.1848 60.7198 71.5234 61.9143 72.5274C65.3577 75.4091 68.2878 77.9748 70.7701 80.243C70.882 80.3453 70.9847 80.4382 71.0873 80.5405C71.1247 80.5777 71.1713 80.6149 71.2086 80.6521C71.2926 80.7264 71.3673 80.8008 71.4419 80.8659C81.7161 90.3757 83.7131 94.5682 81.4828 95.7766Z" fill="#FBE0C2"/>
<path d="M82.8265 60.1914C82.8265 60.2007 82.8171 60.21 82.8171 60.2192C81.3894 63.1196 76.4436 72.1181 71.0779 80.531C68.437 84.6677 65.7028 88.665 63.2299 91.7141C61.1303 94.3077 59.2266 96.2226 57.7522 96.9663C56.3711 97.6635 54.1782 98.3328 51.528 98.9371C51.4347 98.9557 51.3413 98.9836 51.248 99.0021C50.5761 99.1509 49.8856 99.2903 49.1671 99.4298C42.3829 100.731 33.7044 101.503 28.0588 101.019C25.0446 100.759 22.889 100.136 22.3571 99.0393C22.2358 98.7883 22.1145 98.528 22.0025 98.2678C21.9185 98.0911 21.8532 97.9052 21.7785 97.7286C21.7319 97.6171 21.6946 97.5055 21.6479 97.3939C20.5468 94.475 20.1642 91.3794 21.116 89.7805C21.4333 89.2506 21.8905 88.8881 22.5158 88.7487C22.5251 88.7487 22.5344 88.7487 22.5437 88.7394C29.0199 87.345 38.5756 85.5137 45.0798 83.7195C45.1078 83.7102 45.1451 83.7009 45.1731 83.6916C45.3597 83.6452 45.537 83.5894 45.7143 83.5429C47.2354 83.106 48.5698 82.6784 49.6243 82.2601C50.0442 82.0927 50.4175 81.9347 50.7441 81.7674C50.8561 81.7116 50.9587 81.6558 51.0521 81.6093C51.584 81.3119 51.9572 81.033 52.1159 80.7541C53.0117 79.2296 54.5141 74.3863 56.3618 68.6786C58.2748 62.7756 60.5517 55.9431 62.922 50.8954C63.3606 49.9658 63.7991 49.1012 64.2377 48.2925C64.9749 46.9353 65.7121 45.7547 66.4213 44.7228C69.7901 39.8331 72.5803 38.4015 72.5803 38.4015C72.5803 38.4015 75.865 36.4494 79.495 39.5542C79.5697 39.6193 79.6444 39.6937 79.7283 39.7681C79.9896 40.019 80.2416 40.3165 80.4842 40.6605C81.1934 41.6365 81.828 42.938 82.3599 44.4253C82.7985 45.671 83.1717 47.0375 83.4423 48.4598C83.5823 49.1849 83.7036 49.9286 83.7876 50.6723C84.2075 54.2233 83.9929 57.8023 82.8265 60.1914Z" fill="#7DB6BD"/>
<path d="M51.5186 99.2256C51.388 99.2256 51.2667 99.1327 51.2387 99.0025C51.2013 98.8538 51.304 98.6957 51.4533 98.6679C54.0942 98.0915 56.0911 97.4687 57.3696 96.8272C64.0697 93.4435 79.6443 65.6299 82.3132 60.2103C82.3785 60.0709 82.5558 60.0151 82.6958 60.0802C82.8358 60.1452 82.8917 60.3219 82.8264 60.4613C80.0362 66.1319 64.555 93.8432 57.6309 97.3385C56.3058 98.0078 54.2715 98.64 51.5746 99.2256C51.5559 99.2256 51.5373 99.2256 51.5186 99.2256Z" fill="#303257"/>
<path d="M45.4343 83.8591C45.313 83.8591 45.201 83.7847 45.1637 83.6639C45.1171 83.5152 45.1917 83.3571 45.341 83.3013C47.4966 82.567 48.7284 82.381 49.5496 82.2602C50.6881 82.0929 50.8374 82.065 51.6399 80.7078C52.4051 79.4063 53.6929 75.4276 55.1766 70.8168C57.2203 64.4677 59.7678 56.5568 62.4367 50.8769C63.5098 48.5994 64.6856 46.5171 65.9361 44.6951C66.02 44.5649 66.1973 44.537 66.328 44.6207C66.4586 44.7137 66.4866 44.881 66.4026 45.0111C65.1709 46.8053 64.0044 48.8597 62.9499 51.1093C60.2904 56.7613 57.7522 64.6443 55.7179 70.9841C54.1595 75.8181 52.937 79.6294 52.1345 80.9866C51.22 82.5298 50.9214 82.6227 49.6336 82.818C48.8404 82.9388 47.6366 83.1154 45.5276 83.8312C45.4903 83.8498 45.4623 83.8591 45.4343 83.8591Z" fill="#303257"/>
<path d="M70.9751 81.1633C71.7777 79.2855 81.4173 86.5085 84.1142 82.9017C85.3553 81.247 86.1391 86.7502 85.9618 89.5948C85.7845 92.4394 84.9727 94.6239 81.4733 95.7766C79.3923 96.4738 69.3234 85.0026 70.9751 81.1633Z" fill="#FBE0C2"/>
<path d="M45.4344 83.8593C45.3878 83.8593 45.3411 83.8501 45.3038 83.8222L33.5832 77.6124C33.4432 77.5381 33.3872 77.3707 33.4619 77.2313C33.5365 77.0919 33.7045 77.0361 33.8445 77.1105L45.5651 83.3202C45.7051 83.3945 45.7611 83.5619 45.6864 83.7013C45.6304 83.8036 45.5371 83.8593 45.4344 83.8593Z" fill="#303257"/>
<path d="M85.5698 95.5162C85.5698 95.5255 85.5605 95.5441 85.5605 95.5534C85.5138 95.7021 85.4672 95.8508 85.4205 95.9996C85.2339 96.5852 85.0192 97.1616 84.7766 97.7286C84.7393 97.7472 84.7113 97.7751 84.674 97.7937C84.59 97.8402 84.5153 97.896 84.4313 97.9331C84.3287 98.1469 83.1716 98.6396 82.7236 98.8627C82.8916 97.9052 83.1716 96.9756 83.5635 96.0832C83.6288 95.9438 83.7035 95.637 83.8154 95.321C84.0581 94.6609 84.4687 93.908 85.2992 94.3728C85.6538 94.5773 85.7004 95.0886 85.5698 95.5162Z" fill="#FFA28D"/>
<path d="M84.1707 99.3098C84.1518 99.3098 84.133 99.3192 84.1235 99.3192C84.1424 99.291 84.1518 99.2535 84.1707 99.2253C84.1707 99.2535 84.1707 99.2816 84.1707 99.3098Z" fill="#FFA28D"/>
<path d="M87.0632 96.2601C86.4753 96.6692 85.878 97.0596 85.2715 97.4407C85.1129 97.5337 84.9542 97.6359 84.7862 97.7289C84.7489 97.7475 84.7209 97.7754 84.6836 97.794C84.8516 97.1618 84.9356 96.6784 85.2155 96.2694C85.2808 96.1765 85.3461 96.0835 85.4301 95.9998C85.5141 95.9162 85.5981 95.8325 85.6821 95.7581C85.962 95.535 86.2793 95.4235 86.5873 95.5629C86.8579 95.6745 86.9979 95.9534 87.0632 96.2601Z" fill="#FFA28D"/>
<path d="M85.682 95.7487C85.682 95.7673 85.682 95.7952 85.682 95.8138C85.598 96.3622 85.4674 96.9107 85.2714 97.4313C85.1128 97.5242 84.9542 97.6265 84.7862 97.7195C84.7489 97.7381 84.7209 97.7659 84.6835 97.7845C84.5996 97.831 84.5249 97.8868 84.4409 97.924C84.7862 97.2361 85.0195 96.4924 85.1221 95.7394C85.1408 95.5907 85.2901 95.4791 85.4394 95.4977C85.4861 95.507 85.5327 95.5256 85.5607 95.5535C85.626 95.6 85.6727 95.6743 85.682 95.7487Z" fill="#D0634C"/>
<path d="M83.7411 50.6632C83.7318 50.6632 83.7225 50.6632 83.7225 50.6632C83.5638 50.6539 83.4518 50.5144 83.4612 50.3564C83.7225 46.7868 82.2574 43.0498 79.6352 40.6142C79.5232 40.512 79.5139 40.326 79.6259 40.2145C79.7285 40.1029 79.9151 40.0936 80.0271 40.2052C82.8173 42.7988 84.3104 46.6194 84.0304 50.4029C84.0211 50.5516 83.8904 50.6632 83.7411 50.6632Z" fill="#303257"/>
<path d="M35.4215 20.8137C35.8601 18.9173 37.3625 19.0567 37.9037 19.661C39.5088 21.4551 35.9254 25.0619 35.4122 25.6569C35.3749 25.7034 35.3095 25.7034 35.2722 25.6569C34.619 24.9876 31.3062 21.6131 32.8646 19.661C33.4712 18.8894 34.9829 18.9173 35.4215 20.8137Z" fill="#E86767"/>
</g>
<defs>
<linearGradient id="paint0_linear_2060_3035" x1="44.1637" y1="21.2691" x2="93.7746" y2="72.5009" gradientUnits="userSpaceOnUse">
<stop stop-color="#FF7A93"/>
<stop offset="1" stop-color="#FF0062"/>
</linearGradient>
<clipPath id="clip0_2060_3035">
<rect width="100" height="105" fill="white"/>
</clipPath>
</defs>
</svg>
