<svg width="40" height="40" viewBox="0 0 40 40" fill="none" xmlns="http://www.w3.org/2000/svg">
<rect width="40" height="40" rx="20" fill="#FBFBFB"/>
<g clip-path="url(#clip0_1047_3574)">
<path d="M18.75 16.6667C17.075 16.6667 16.2233 16.4675 15.7117 15.955C15.2 15.4425 15 14.5917 15 12.9167C15 12.6867 14.8133 12.5 14.5833 12.5C14.3533 12.5 14.1666 12.6867 14.1666 12.9167C14.1666 14.5917 13.9675 15.4434 13.455 15.955C12.9425 16.4667 12.0916 16.6667 10.4166 16.6667C10.1867 16.6667 10 16.8533 10 17.0833C10 17.3133 10.1867 17.5 10.4167 17.5C12.0917 17.5 12.9434 17.6992 13.455 18.2117C13.9667 18.7242 14.1667 19.575 14.1667 21.25C14.1667 21.48 14.3534 21.6667 14.5834 21.6667C14.8134 21.6667 15 21.48 15 21.25C15 19.575 15.1992 18.7233 15.7117 18.2117C16.2242 17.7 17.075 17.5 18.75 17.5C18.98 17.5 19.1667 17.3133 19.1667 17.0833C19.1667 16.8533 18.98 16.6667 18.75 16.6667Z" fill="#005BBB"/>
<path d="M21.25 11.6667C20.67 11.6667 20.3592 11.6034 20.2117 11.4559C20.0633 11.3075 20 10.9967 20 10.4167C20 10.1867 19.8133 10 19.5833 10C19.3533 10 19.1666 10.1867 19.1666 10.4167C19.1666 10.9967 19.1033 11.3075 18.9558 11.455C18.8075 11.6033 18.4966 11.6667 17.9166 11.6667C17.6866 11.6667 17.4999 11.8534 17.4999 12.0834C17.4999 12.3134 17.6867 12.5 17.9167 12.5C18.4967 12.5 18.8075 12.5633 18.955 12.7108C19.1033 12.8591 19.1667 13.17 19.1667 13.75C19.1667 13.98 19.3533 14.1667 19.5833 14.1667C19.8133 14.1667 20 13.98 20 13.75C20 13.17 20.0633 12.8592 20.2108 12.7117C20.3592 12.5633 20.67 12.5 21.25 12.5C21.48 12.5 21.6667 12.3133 21.6667 12.0833C21.6667 11.8533 21.48 11.6667 21.25 11.6667Z" fill="#005BBB"/>
<path d="M13.75 26.6667C13.17 26.6667 12.8592 26.6034 12.7117 26.4559C12.5633 26.3075 12.5 25.9967 12.5 25.4167C12.5 25.1867 12.3133 25 12.0833 25C11.8533 25 11.6666 25.1867 11.6666 25.4167C11.6666 25.9967 11.6033 26.3075 11.4558 26.455C11.3075 26.6033 10.9966 26.6667 10.4166 26.6667C10.1867 26.6667 10 26.8533 10 27.0833C10 27.3133 10.1867 27.5 10.4167 27.5C10.9967 27.5 11.3075 27.5633 11.455 27.7108C11.6033 27.8591 11.6667 28.17 11.6667 28.75C11.6667 28.98 11.8534 29.1667 12.0834 29.1667C12.3134 29.1667 12.5 28.98 12.5 28.75C12.5 28.17 12.5633 27.8592 12.7108 27.7117C12.8592 27.5633 13.17 27.5 13.75 27.5C13.98 27.5 14.1667 27.3133 14.1667 27.0833C14.1667 26.8533 13.98 26.6667 13.75 26.6667Z" fill="#005BBB"/>
<path d="M29.5833 22.917C28.6408 22.917 28.1466 22.8079 27.8783 22.5387C27.61 22.2696 27.5 21.7762 27.5 20.8337C27.5 20.6037 27.3133 20.417 27.0833 20.417C26.8533 20.417 26.6666 20.6037 26.6666 20.8337C26.6666 21.7762 26.5574 22.2704 26.2883 22.5387C26.0191 22.807 25.5258 22.917 24.5833 22.917C24.3533 22.917 24.1666 23.1037 24.1666 23.3337C24.1666 23.5637 24.3533 23.7504 24.5833 23.7504C25.5258 23.7504 26.02 23.8595 26.2883 24.1287C26.5566 24.3979 26.6666 24.8912 26.6666 25.8337C26.6666 26.0637 26.8533 26.2504 27.0833 26.2504C27.3133 26.2504 27.5 26.0637 27.5 25.8337C27.5 24.8912 27.6092 24.397 27.8783 24.1287C28.1474 23.8604 28.6408 23.7504 29.5833 23.7504C29.8133 23.7504 30 23.5637 30 23.3337C30 23.1037 29.8133 22.917 29.5833 22.917Z" fill="#005BBB"/>
<path d="M21.25 14.167C21.02 14.167 20.8333 14.3537 20.8333 14.5837V17.0837C20.8333 17.3137 21.02 17.5004 21.25 17.5004C22.3975 17.5004 23.3867 17.7462 24.07 18.1812C23.3967 18.4812 22.4483 18.652 21.5208 18.8162C19.5442 19.1661 17.5 19.5286 17.5 21.2503V23.7503C17.5 24.9353 18.2442 25.5103 19.1333 25.8411C18.2158 26.0328 17.5 26.3286 17.5 27.0836V29.5836C17.5 29.8136 17.6867 30.0003 17.9167 30.0003C18.1467 30.0003 18.3334 29.8136 18.3334 29.5836C18.3334 29.302 19.4825 29.1161 20.1692 29.0045C21.5792 28.7761 23.3334 28.492 23.3334 27.0836V24.5836C23.3334 23.3936 22.0217 23.1386 20.8642 22.9136C20.4259 22.8278 19.985 22.7361 19.5909 22.6086C20.195 22.4103 20.935 22.272 21.6709 22.1428C23.6225 21.7995 25.8334 21.4095 25.8334 19.5836V17.0836C25.8333 15.6345 24.2592 14.167 21.25 14.167ZM20.705 23.7311C21.8225 23.9486 22.5 24.1145 22.5 24.5836C22.5 24.8561 22.3442 25.202 21.1492 25.4753L20.8609 25.4186C19.3342 25.1245 18.3334 24.8495 18.3334 23.7503V22.9228C18.3384 22.927 18.3434 22.9311 18.3484 22.9345C18.3492 22.9345 18.3492 22.9345 18.3492 22.9345C18.9883 23.397 19.8608 23.567 20.705 23.7311ZM24.8017 17.6711C24.0492 17.0828 22.9609 16.737 21.6667 16.677V15.0103C23.8567 15.122 25 16.1078 25 17.0836C25 17.3103 24.9375 17.4995 24.8017 17.6711Z" fill="#005BBB"/>
</g>
<defs>
<clipPath id="clip0_1047_3574">
<rect width="20" height="20" fill="white" transform="translate(10 10)"/>
</clipPath>
</defs>
</svg>
