<svg width="40" height="40" viewBox="0 0 40 40" fill="none" xmlns="http://www.w3.org/2000/svg">
<rect width="40" height="40" rx="20" fill="#FBFBFB"/>
<g clip-path="url(#clip0_1047_3621)">
<path d="M17.9717 25.6919L17.0181 25.374C16.8847 25.4953 16.7413 25.6052 16.5895 25.7026C15.9682 26.1022 15.2328 26.2865 14.4964 26.2272C13.7601 26.1678 13.0637 25.868 12.5144 25.374L11.5643 25.6919C11.1087 25.8427 10.7122 26.1334 10.4313 26.5227C10.1504 26.9119 9.99951 27.3798 10 27.8598V28.8563C9.9996 29.0973 10.0949 29.3287 10.265 29.4995C10.4352 29.6703 10.6661 29.7665 10.9072 29.767H18.6253C18.8664 29.7665 19.0973 29.6703 19.2675 29.4995C19.4376 29.3287 19.5329 29.0973 19.5325 28.8563V27.8598C19.533 27.3803 19.3825 26.9128 19.1024 26.5237C18.8222 26.1346 18.4266 25.8435 17.9717 25.6919Z" fill="#005BBB"/>
<path d="M13.3321 25.1029C14.9974 26.2516 17.4745 24.9383 17.4216 22.8744C17.4206 22.1709 17.1407 21.4965 16.6433 20.9991C16.1458 20.5016 15.4715 20.2217 14.768 20.2207C12.129 20.2168 11.1354 23.7104 13.3321 25.1029Z" fill="#005BBB"/>
<path d="M23.7922 25.1238C25.4542 26.2779 27.9402 24.9622 27.8853 22.8988C27.8849 22.1951 27.6052 21.5204 27.1076 21.0228C26.6101 20.5253 25.9353 20.2455 25.2317 20.2451C22.5977 20.2427 21.5987 23.7266 23.7922 25.1238Z" fill="#005BBB"/>
<path d="M28.4361 25.7134L27.4861 25.3955C27.3535 25.5178 27.2101 25.6278 27.0575 25.7241C26.4362 26.1256 25.6998 26.311 24.9624 26.2516C24.225 26.1922 23.5278 25.8913 22.9788 25.3955L22.0287 25.7134C21.5739 25.8662 21.1786 26.1581 20.8985 26.5477C20.6185 26.9373 20.4679 27.405 20.468 27.8849V28.8813C20.4683 29.1218 20.564 29.3524 20.734 29.5224C20.9041 29.6925 21.1346 29.7882 21.3751 29.7885H29.0933C29.3338 29.7882 29.5643 29.6925 29.7344 29.5224C29.9044 29.3524 30.0001 29.1218 30.0005 28.8813V27.8849C30.0005 27.4046 29.8495 26.9364 29.5687 26.5467C29.288 26.1569 28.8917 25.8654 28.4361 25.7134Z" fill="#005BBB"/>
<path d="M24.2396 18.9634C24.2983 19.0373 24.384 19.0848 24.4777 19.0955C24.5715 19.1063 24.6657 19.0793 24.7396 19.0206C24.8135 18.9618 24.861 18.8761 24.8717 18.7824C24.8824 18.6886 24.8554 18.5944 24.7967 18.5205L22.9859 16.2383C23.8788 15.2526 24.6431 14.0989 24.6431 13.0311C24.6847 10.6487 21.8007 9.38172 19.9859 10.8346C18.2402 9.35938 15.3256 10.6781 15.3571 12.981C15.3386 14.079 16.1077 15.2338 17.0143 16.2383L15.2035 18.5205C15.1469 18.5946 15.1216 18.6879 15.1331 18.7804C15.1445 18.873 15.1918 18.9573 15.2648 19.0153C15.3378 19.0733 15.4306 19.1004 15.5233 19.0907C15.6161 19.081 15.7013 19.0353 15.7607 18.9634L17.5107 16.7598C18.2215 17.4588 18.9857 18.1012 19.7965 18.6812C19.8562 18.7231 19.9272 18.7455 20.0001 18.7455C20.073 18.7455 20.144 18.7231 20.2037 18.6812C21.0145 18.1012 21.7787 17.4588 22.4895 16.7598L24.2396 18.9634Z" fill="#005BBB"/>
</g>
<defs>
<clipPath id="clip0_1047_3621">
<rect width="20" height="20" fill="white" transform="translate(10 10)"/>
</clipPath>
</defs>
</svg>
