<svg width="40" height="40" viewBox="0 0 40 40" fill="none" xmlns="http://www.w3.org/2000/svg">
<rect width="40" height="40" rx="20" fill="#FBFBFB"/>
<g clip-path="url(#clip0_1047_3566)">
<path d="M20 10C15.4084 10 11.6667 13.7333 11.6667 18.325C11.6667 20.375 12.4084 22.2917 13.7084 23.7833C14.2834 23.4917 14.9334 23.3333 15.625 23.3333H24.375C25.0667 23.3333 25.7167 23.4917 26.2917 23.7833C27.5917 22.2917 28.3334 20.375 28.3334 18.325C28.3334 13.7333 24.5917 10 20 10ZM25.2084 18.3333C24.8667 18.3333 24.5834 18.05 24.5834 17.7083C24.5834 15.525 22.8084 13.75 20.625 13.75C20.2834 13.75 20 13.4667 20 13.125C20 12.7833 20.2834 12.5 20.625 12.5C23.5 12.5 25.8334 14.8333 25.8334 17.7083C25.8334 18.05 25.55 18.3333 25.2084 18.3333Z" fill="#005BBB"/>
<path d="M24.375 24.583H15.625C13.9025 24.583 12.5 25.9855 12.5 27.708V29.3747C12.5 29.7197 12.78 29.9997 13.125 29.9997H26.875C27.22 29.9997 27.5 29.7197 27.5 29.3747V27.708C27.5 25.9855 26.0975 24.583 24.375 24.583Z" fill="#005BBB"/>
</g>
<defs>
<clipPath id="clip0_1047_3566">
<rect width="20" height="20" fill="white" transform="translate(10 10)"/>
</clipPath>
</defs>
</svg>
