<svg width="16" height="16" viewBox="0 0 16 16" fill="none" xmlns="http://www.w3.org/2000/svg">
<path d="M3.29999 9.61982C2.97 10.4498 2.45001 11.2698 1.75501 12.0598C1.535 12.3098 1.505 12.6698 1.685 12.9498C1.82501 13.1698 2.055 13.2898 2.305 13.2898C2.375 13.2898 2.44501 13.2848 2.51501 13.2598C3.98498 12.8298 7.42002 11.3048 7.51502 6.4148C7.54999 4.52982 6.17001 2.90983 4.375 2.72483C3.38 2.62483 2.39001 2.94981 1.655 3.60981C0.920015 4.27482 0.5 5.22483 0.5 6.21482C0.5 7.86481 1.67001 9.30982 3.29999 9.61982Z" fill="#005BBB"/>
<path d="M12.355 2.72483C11.365 2.62483 10.375 2.94981 9.64001 3.60981C8.905 4.27482 8.48499 5.22483 8.48499 6.21482C8.48499 7.86481 9.655 9.30982 11.285 9.61982C10.955 10.4498 10.435 11.2698 9.73999 12.0598C9.51999 12.3098 9.48999 12.6698 9.67002 12.9498C9.81 13.1698 10.04 13.2898 10.29 13.2898C10.36 13.2898 10.43 13.2848 10.5 13.2598C11.97 12.8298 15.405 11.3048 15.5 6.4148V6.34482C15.5 4.48981 14.135 2.90983 12.355 2.72483Z" fill="#005BBB"/>
</svg>
