<svg width="76" height="12" viewBox="0 0 76 12" fill="none" xmlns="http://www.w3.org/2000/svg">
<path d="M5.45079 0.377057C5.65922 -0.125686 6.34078 -0.125686 6.54921 0.377057L7.81003 3.41866C7.89677 3.6279 8.08538 3.77125 8.30243 3.79289L11.4574 4.10737C11.9789 4.15935 12.1895 4.83742 11.7968 5.20008L9.42109 7.39439C9.25767 7.54536 9.1856 7.77729 9.23301 7.9999L9.92205 11.2359C10.0359 11.7708 9.48454 12.1898 9.03344 11.9112L6.30432 10.2258C6.1166 10.1099 5.88339 10.1099 5.69567 10.2258L2.96656 11.9112C2.51547 12.1898 1.96408 11.7708 2.07797 11.2359L2.76698 7.9999C2.81438 7.77729 2.74233 7.54536 2.5789 7.39439L0.203195 5.20008C-0.189478 4.83742 0.0211319 4.15935 0.54261 4.10737L3.69756 3.79289C3.9146 3.77125 4.10323 3.6279 4.18997 3.41866L5.45079 0.377057Z" fill="#F4BF00"/>
<path d="M21.4508 0.377057C21.6592 -0.125686 22.3408 -0.125686 22.5492 0.377057L23.81 3.41866C23.8968 3.6279 24.0854 3.77125 24.3024 3.79289L27.4574 4.10737C27.9789 4.15935 28.1895 4.83742 27.7968 5.20008L25.4211 7.39439C25.2577 7.54536 25.1856 7.77729 25.233 7.9999L25.9221 11.2359C26.0359 11.7708 25.4845 12.1898 25.0334 11.9112L22.3043 10.2258C22.1166 10.1099 21.8834 10.1099 21.6957 10.2258L18.9666 11.9112C18.5155 12.1898 17.9641 11.7708 18.078 11.2359L18.767 7.9999C18.8144 7.77729 18.7423 7.54536 18.5789 7.39439L16.2032 5.20008C15.8105 4.83742 16.0211 4.15935 16.5426 4.10737L19.6976 3.79289C19.9146 3.77125 20.1032 3.6279 20.19 3.41866L21.4508 0.377057Z" fill="#F4BF00"/>
<path d="M37.4508 0.377057C37.6592 -0.125686 38.3408 -0.125686 38.5492 0.377057L39.81 3.41866C39.8968 3.6279 40.0854 3.77125 40.3024 3.79289L43.4574 4.10737C43.9789 4.15935 44.1895 4.83742 43.7968 5.20008L41.4211 7.39439C41.2577 7.54536 41.1856 7.77729 41.233 7.9999L41.9221 11.2359C42.0359 11.7708 41.4845 12.1898 41.0334 11.9112L38.3043 10.2258C38.1166 10.1099 37.8834 10.1099 37.6957 10.2258L34.9666 11.9112C34.5155 12.1898 33.9641 11.7708 34.078 11.2359L34.767 7.9999C34.8144 7.77729 34.7423 7.54536 34.5789 7.39439L32.2032 5.20008C31.8105 4.83742 32.0211 4.15935 32.5426 4.10737L35.6976 3.79289C35.9146 3.77125 36.1032 3.6279 36.19 3.41866L37.4508 0.377057Z" fill="#F4BF00"/>
<path d="M53.4508 0.377057C53.6592 -0.125686 54.3408 -0.125686 54.5492 0.377057L55.81 3.41866C55.8968 3.6279 56.0854 3.77125 56.3024 3.79289L59.4574 4.10737C59.9789 4.15935 60.1895 4.83742 59.7968 5.20008L57.4211 7.39439C57.2577 7.54536 57.1856 7.77729 57.233 7.9999L57.9221 11.2359C58.0359 11.7708 57.4845 12.1898 57.0334 11.9112L54.3043 10.2258C54.1166 10.1099 53.8834 10.1099 53.6957 10.2258L50.9666 11.9112C50.5155 12.1898 49.9641 11.7708 50.078 11.2359L50.767 7.9999C50.8144 7.77729 50.7423 7.54536 50.5789 7.39439L48.2032 5.20008C47.8105 4.83742 48.0211 4.15935 48.5426 4.10737L51.6976 3.79289C51.9146 3.77125 52.1032 3.6279 52.19 3.41866L53.4508 0.377057Z" fill="#F4BF00"/>
<path d="M69.4508 0.377057C69.6592 -0.125686 70.3408 -0.125686 70.5492 0.377057L71.81 3.41866C71.8968 3.6279 72.0854 3.77125 72.3024 3.79289L75.4574 4.10737C75.9789 4.15935 76.1895 4.83742 75.7968 5.20008L73.4211 7.39439C73.2577 7.54536 73.1856 7.77729 73.233 7.9999L73.9221 11.2359C74.0359 11.7708 73.4845 12.1898 73.0334 11.9112L70.3043 10.2258C70.1166 10.1099 69.8834 10.1099 69.6957 10.2258L66.9666 11.9112C66.5155 12.1898 65.9641 11.7708 66.078 11.2359L66.767 7.9999C66.8144 7.77729 66.7423 7.54536 66.5789 7.39439L64.2032 5.20008C63.8105 4.83742 64.0211 4.15935 64.5426 4.10737L67.6976 3.79289C67.9146 3.77125 68.1032 3.6279 68.19 3.41866L69.4508 0.377057Z" fill="#F4BF00"/>
</svg>
