<svg width="40" height="40" viewBox="0 0 40 40" fill="none" xmlns="http://www.w3.org/2000/svg">
<rect width="40" height="40" rx="20" fill="#FBFBFB"/>
<g clip-path="url(#clip0_1094_2018)">
<path d="M15.675 16.8583L10.4833 19.2417C10.1917 19.3833 10 19.675 10 20C10 20.325 10.1917 20.6167 10.4833 20.7583L15.675 23.1417L18.8167 20L15.675 16.8583ZM20.7583 10.4833C20.625 10.1917 20.325 10 20 10C19.675 10 19.375 10.1917 19.2417 10.4833L16.8583 15.675L20 18.8167L23.1417 15.675L20.7583 10.4833ZM20 21.1833L16.8583 24.325L19.2417 29.5167C19.375 29.8083 19.675 30 20 30C20.325 30 20.625 29.8083 20.7583 29.5167L23.1417 24.325L20 21.1833ZM29.5167 19.2417L24.325 16.8583L21.1833 20L24.325 23.1417L29.5167 20.7583C29.8083 20.6167 30 20.325 30 20C30 19.675 29.8083 19.3833 29.5167 19.2417Z" fill="#005BBB"/>
<path d="M13.7492 17.0834C13.6217 17.0834 13.4908 17.0542 13.37 16.9917C12.9608 16.7817 12.7983 16.2792 13.0083 15.87C13.6333 14.65 14.65 13.6334 15.87 13.0084C16.2775 12.7975 16.7825 12.96 16.9917 13.37C17.2017 13.7792 17.0392 14.2817 16.63 14.4917C15.7183 14.9592 14.9583 15.7184 14.4917 16.63C14.3442 16.9184 14.0517 17.0834 13.7492 17.0834Z" fill="#005BBB"/>
<path d="M23.7508 27.0835C23.4483 27.0835 23.1558 26.9185 23.0083 26.6301C22.7983 26.221 22.96 25.7185 23.37 25.5085C24.2816 25.041 25.0416 24.2818 25.5083 23.3701C25.7183 22.961 26.2225 22.7993 26.63 23.0085C27.0391 23.2185 27.2016 23.721 26.9916 24.1301C26.3666 25.3501 25.35 26.3668 24.13 26.9918C24.0091 27.0543 23.8783 27.0835 23.7508 27.0835Z" fill="#005BBB"/>
<path d="M16.2491 27.083C16.1216 27.083 15.9908 27.0538 15.87 26.9913C14.65 26.3663 13.6333 25.3497 13.0083 24.1297C12.7983 23.7205 12.96 23.218 13.37 23.008C13.7775 22.798 14.2816 22.9597 14.4916 23.3697C14.9591 24.2813 15.7191 25.0405 16.63 25.508C17.0391 25.718 17.2016 26.2205 16.9916 26.6297C16.8441 26.918 16.5516 27.083 16.2491 27.083Z" fill="#005BBB"/>
<path d="M26.2508 17.0835C25.9483 17.0835 25.6558 16.9185 25.5083 16.6301C25.0408 15.7185 24.2808 14.9593 23.37 14.4918C22.9608 14.2818 22.7983 13.7793 23.0083 13.3701C23.2175 12.961 23.7217 12.7993 24.13 13.0085C25.35 13.6335 26.3667 14.6501 26.9917 15.8701C27.2017 16.2793 27.04 16.7818 26.63 16.9918C26.5092 17.0543 26.3783 17.0835 26.2508 17.0835Z" fill="#005BBB"/>
</g>
<defs>
<clipPath id="clip0_1094_2018">
<rect width="20" height="20" fill="white" transform="translate(10 10)"/>
</clipPath>
</defs>
</svg>
