<svg width="40" height="40" viewBox="0 0 40 40" fill="none" xmlns="http://www.w3.org/2000/svg">
<rect width="40" height="40" rx="20" fill="#FBFBFB"/>
<g clip-path="url(#clip0_1094_1996)">
<path d="M20 12.8808C19.655 12.8808 19.375 12.6008 19.375 12.2558V10.625C19.375 10.28 19.655 10 20 10C20.345 10 20.625 10.28 20.625 10.625V12.2558C20.625 12.6008 20.345 12.8808 20 12.8808Z" fill="#005BBB"/>
<path d="M25.4758 15.1491C25.3158 15.1491 25.1558 15.0882 25.0341 14.9657C24.79 14.7216 24.79 14.3257 25.0341 14.0816L26.1875 12.9282C26.4316 12.6841 26.8275 12.6841 27.0716 12.9282C27.3158 13.1724 27.3158 13.5682 27.0716 13.8124L25.9183 14.9657C25.7958 15.0874 25.6358 15.1491 25.4758 15.1491Z" fill="#005BBB"/>
<path d="M29.375 20.625H27.7441C27.3991 20.625 27.1191 20.345 27.1191 20C27.1191 19.655 27.3991 19.375 27.7441 19.375H29.375C29.72 19.375 30 19.655 30 20C30 20.345 29.72 20.625 29.375 20.625Z" fill="#005BBB"/>
<path d="M26.6291 27.2541C26.4691 27.2541 26.3091 27.1932 26.1875 27.0707L25.0341 25.9174C24.79 25.6732 24.79 25.2774 25.0341 25.0332C25.2783 24.7891 25.6741 24.7891 25.9183 25.0332L27.0716 26.1866C27.3158 26.4307 27.3158 26.8266 27.0716 27.0707C26.9491 27.1932 26.7891 27.2541 26.6291 27.2541Z" fill="#005BBB"/>
<path d="M13.3708 27.2541C13.2108 27.2541 13.0508 27.1932 12.9292 27.0707C12.685 26.8266 12.685 26.4307 12.9292 26.1866L14.0825 25.0332C14.3267 24.7891 14.7225 24.7891 14.9667 25.0332C15.2108 25.2774 15.2108 25.6732 14.9667 25.9174L13.8133 27.0707C13.6908 27.1932 13.5308 27.2541 13.3708 27.2541Z" fill="#005BBB"/>
<path d="M12.2558 20.625H10.625C10.28 20.625 10 20.345 10 20C10 19.655 10.28 19.375 10.625 19.375H12.2558C12.6008 19.375 12.8808 19.655 12.8808 20C12.8808 20.345 12.6008 20.625 12.2558 20.625Z" fill="#005BBB"/>
<path d="M14.5242 15.1491C14.3642 15.1491 14.2042 15.0882 14.0825 14.9657L12.9292 13.8124C12.685 13.5682 12.685 13.1724 12.9292 12.9282C13.1733 12.6841 13.5692 12.6841 13.8133 12.9282L14.9667 14.0816C15.2108 14.3257 15.2108 14.7216 14.9667 14.9657C14.8433 15.0874 14.6842 15.1491 14.5242 15.1491Z" fill="#005BBB"/>
<path d="M22.5 27.5V28.5417C22.5 29.3417 21.8417 30 21.0417 30H18.9583C18.2583 30 17.5 29.4667 17.5 28.3V27.5H22.5Z" fill="#005BBB"/>
<path d="M23.675 15.4668C22.3083 14.3585 20.5083 13.9252 18.75 14.3002C16.5417 14.7585 14.75 16.5585 14.2917 18.7668C13.825 21.0335 14.675 23.2835 16.4917 24.6585C16.9833 25.0252 17.325 25.5918 17.4417 26.2502V26.2585C17.4583 26.2502 17.4833 26.2502 17.5 26.2502H22.5C22.5167 26.2502 22.525 26.2502 22.5417 26.2585V26.2502C22.6583 25.6168 23.0333 25.0335 23.6083 24.5835C25.0167 23.4668 25.8333 21.8002 25.8333 20.0002C25.8333 18.2335 25.05 16.5835 23.675 15.4668ZM23.125 20.4168C22.7833 20.4168 22.5 20.1335 22.5 19.7918C22.5 18.5252 21.475 17.5002 20.2083 17.5002C19.8667 17.5002 19.5833 17.2168 19.5833 16.8752C19.5833 16.5335 19.8667 16.2502 20.2083 16.2502C22.1583 16.2502 23.75 17.8418 23.75 19.7918C23.75 20.1335 23.4667 20.4168 23.125 20.4168Z" fill="#005BBB"/>
<path d="M17.4417 26.25H17.5C17.4833 26.25 17.4583 26.25 17.4417 26.2583V26.25Z" fill="#005BBB"/>
<path d="M22.5417 26.25V26.2583C22.525 26.25 22.5167 26.25 22.5 26.25H22.5417Z" fill="#005BBB"/>
</g>
<defs>
<clipPath id="clip0_1094_1996">
<rect width="20" height="20" fill="white" transform="translate(10 10)"/>
</clipPath>
</defs>
</svg>
