<svg width="40" height="40" viewBox="0 0 40 40" fill="none" xmlns="http://www.w3.org/2000/svg">
<rect width="40" height="40" rx="20" fill="#FBFBFB"/>
<g clip-path="url(#clip0_1094_1974)">
<path d="M17.0833 12.2917C17.0833 11.4167 17.4083 10.6167 17.9417 10H12.2917C11.025 10 10 11.025 10 12.2917V16.875C10 18.1417 11.025 19.1667 12.2917 19.1667H13.3333V21.0417C13.3333 21.2917 13.4833 21.5167 13.7083 21.6167C13.7917 21.65 13.875 21.6667 13.9583 21.6667C14.1167 21.6667 14.2667 21.6083 14.3833 21.5L16.9083 19.1667H17.9417C17.4083 18.55 17.0833 17.75 17.0833 16.875V12.2917Z" fill="#005BBB"/>
<path d="M13.3334 25.8333C14.2538 25.8333 15 25.0871 15 24.1667C15 23.2462 14.2538 22.5 13.3334 22.5C12.4129 22.5 11.6667 23.2462 11.6667 24.1667C11.6667 25.0871 12.4129 25.8333 13.3334 25.8333Z" fill="#005BBB"/>
<path d="M14.375 26.6665H12.2917C11.0275 26.6665 10 27.694 10 28.9582V29.3748C10 29.7198 10.28 29.9998 10.625 29.9998H16.0417C16.3867 29.9998 16.6667 29.7198 16.6667 29.3748V28.9582C16.6667 27.694 15.6392 26.6665 14.375 26.6665Z" fill="#005BBB"/>
<path d="M26.6667 25.8333C27.5871 25.8333 28.3333 25.0871 28.3333 24.1667C28.3333 23.2462 27.5871 22.5 26.6667 22.5C25.7462 22.5 25 23.2462 25 24.1667C25 25.0871 25.7462 25.8333 26.6667 25.8333Z" fill="#005BBB"/>
<path d="M27.7083 26.6665H25.625C24.3608 26.6665 23.3333 27.694 23.3333 28.9582V29.3748C23.3333 29.7198 23.6133 29.9998 23.9583 29.9998H29.375C29.72 29.9998 30 29.7198 30 29.3748V28.9582C30 27.694 28.9725 26.6665 27.7083 26.6665Z" fill="#005BBB"/>
<path d="M26.0416 21.6667C25.8875 21.6667 25.7358 21.61 25.6175 21.5008L23.0891 19.1667H20.625C19.3608 19.1667 18.3333 18.1392 18.3333 16.875V12.2917C18.3333 11.0275 19.3608 10 20.625 10H27.7083C28.9725 10 30 11.0275 30 12.2917V16.875C30 18.1392 28.9725 19.1667 27.7083 19.1667H26.6666V21.0417C26.6666 21.29 26.52 21.5142 26.2925 21.6142C26.2116 21.6492 26.1266 21.6667 26.0416 21.6667Z" fill="#005BBB"/>
</g>
<defs>
<clipPath id="clip0_1094_1974">
<rect width="20" height="20" fill="white" transform="translate(10 10)"/>
</clipPath>
</defs>
</svg>
