<svg width="40" height="40" viewBox="0 0 40 40" fill="none" xmlns="http://www.w3.org/2000/svg">
<rect width="40" height="40" rx="20" fill="#FBFBFB"/>
<g clip-path="url(#clip0_1094_1990)">
<path d="M27.3333 17.1083C26.65 17.1083 26.025 16.85 25.5583 16.425V19.5667H23.4333C23.625 19.1417 23.725 18.6667 23.725 18.1833C23.725 16.25 22.15 14.6833 20.225 14.6833C18.2917 14.6833 16.725 16.25 16.725 18.1833C16.725 18.6667 16.825 19.1417 17.0083 19.5667H14.4417V10.8917C14.4417 10.4 14.8417 10 15.3333 10H24.6667C25.1583 10 25.5583 10.4 25.5583 10.8917V12.4583C26.1583 11.9167 27 11.65 27.9083 11.8417C28.9333 12.05 29.7667 12.9083 29.95 13.9417C30.2667 15.6333 28.975 17.1083 27.3333 17.1083Z" fill="#005BBB"/>
<path d="M21.155 24.1599C20.8441 25.8574 22.1325 27.3332 23.7766 27.3332C24.4608 27.3332 25.0833 27.0757 25.5541 26.649V29.1115C25.5541 29.6007 25.1541 30.0007 24.6658 30.0007H15.3341C14.845 30.0007 14.4458 29.6007 14.4458 29.1115V26.649C13.8416 27.1915 12.9975 27.4582 12.0908 27.2715C11.0691 27.0582 10.2333 26.2048 10.0466 25.174C9.73581 23.4757 11.0241 21.9998 12.6683 21.9998C13.3525 21.9998 13.975 22.2573 14.4458 22.684V20.4023H18.7475C18.0275 19.9223 17.5566 19.1132 17.5566 18.1799C17.5566 16.704 18.7475 15.5132 20.2225 15.5132C21.6975 15.5132 22.8883 16.704 22.8883 18.1799C22.8883 19.1132 22.4175 19.9223 21.6975 20.4023H25.5541V22.684C24.95 22.1415 24.1058 21.8748 23.1991 22.0615C22.1775 22.2757 21.3416 23.129 21.155 24.1599Z" fill="#005BBB"/>
</g>
<defs>
<clipPath id="clip0_1094_1990">
<rect width="20" height="20" fill="white" transform="translate(10 10)"/>
</clipPath>
</defs>
</svg>
