<svg width="19" height="28" viewBox="0 0 19 28" fill="none" xmlns="http://www.w3.org/2000/svg">
<path d="M18.4999 18.9498C18.5061 20.1923 18.2541 21.4227 17.7598 22.5635C17.2655 23.7043 16.5396 24.7308 15.6277 25.5786C14.7157 26.4263 13.6376 27.0769 12.461 27.4893C11.2844 27.9018 10.0349 28.0673 8.79105 27.9753C7.55308 27.8504 6.3533 27.4772 5.26397 26.8782C4.17464 26.2791 3.2183 25.4666 2.45257 24.4896C1.68684 23.5125 1.12756 22.3912 0.808415 21.1931C0.489274 19.995 0.416877 18.745 0.595586 17.5183C1.41412 11.4923 7.22931 7.83195 9.22729 0.213231C9.24208 0.152442 9.27694 0.0983707 9.32629 0.0596986C9.37564 0.0210265 9.4366 0 9.49939 0C9.56217 0 9.62314 0.0210265 9.67249 0.0596986C9.72183 0.0983707 9.7567 0.152442 9.77148 0.213231C11.9269 8.41663 18.4999 12.0311 18.4999 18.9498Z" fill="#4663B7"/>
<path d="M9.125 24.6422C9.09802 24.6422 9.06879 24.6422 9.04068 24.6422C7.62326 24.534 6.30061 23.8914 5.34231 22.8454C4.38401 21.7994 3.8622 20.4287 3.88324 19.0127C3.88237 18.8642 3.9121 18.717 3.9706 18.5803C4.0291 18.4436 4.11512 18.3203 4.22335 18.2181C4.33158 18.1158 4.45971 18.0368 4.59982 17.9858C4.73994 17.9349 4.88906 17.9131 5.03796 17.9218C5.33599 17.9297 5.61867 18.0552 5.82383 18.2707C6.02898 18.4862 6.13982 18.7741 6.13196 19.071C6.11587 19.8357 6.37557 20.5809 6.86392 21.1711C7.14799 21.5264 7.50284 21.8192 7.90612 22.031C8.3094 22.2429 8.75236 22.3692 9.20708 22.4021C9.50528 22.4129 9.78694 22.5413 9.99011 22.7591C10.1933 22.9768 10.3013 23.266 10.2904 23.563C10.2795 23.8601 10.1506 24.1407 9.93207 24.3431C9.71351 24.5455 9.4232 24.6531 9.125 24.6422Z" fill="#DEE5F9"/>
</svg>
