<svg width="1440" height="407" viewBox="0 0 1440 407" fill="none" xmlns="http://www.w3.org/2000/svg">
<path opacity="0.21" fill-rule="evenodd" clip-rule="evenodd" d="M31.6133 0.0390369C42.4343 -0.691689 51.1276 8.97985 58.3255 17.01C64.4045 23.792 66.43 32.6857 68.7401 41.4588C70.9009 49.6644 73.217 57.8924 71.265 66.1491C69.1921 74.9172 64.1201 82.5038 57.5611 88.7447C50.1424 95.8037 41.8202 105.179 31.6133 103.878C21.3306 102.568 18.6846 88.4574 10.1041 82.6983C1.01941 76.6009 -15.2821 79.8845 -19.2351 69.7497C-23.1282 59.7682 -11.1489 50.7203 -6.04798 41.2869C-2.01767 33.8335 1.69764 26.7194 7.42439 20.4473C14.7062 12.472 20.7776 0.770752 31.6133 0.0390369Z" fill="#62C2D9"/>
<path opacity="0.21" fill-rule="evenodd" clip-rule="evenodd" d="M0.622742 133.103C40.3782 131.178 72.3166 156.658 98.7609 177.815C121.095 195.683 128.536 219.114 137.024 242.228C144.962 263.846 153.471 285.524 146.3 307.277C138.684 330.378 120.05 350.366 95.9527 366.808C68.6969 385.406 38.1222 410.105 0.622742 406.679C-37.1548 403.227 -46.8761 366.051 -78.4002 350.878C-111.777 334.814 -171.667 343.465 -186.19 316.764C-200.493 290.466 -156.482 266.628 -137.741 241.775C-122.934 222.138 -109.285 203.395 -88.2452 186.871C-61.4925 165.859 -39.1865 135.031 0.622742 133.103Z" fill="#62C2D9"/>
<path opacity="0.21" fill-rule="evenodd" clip-rule="evenodd" d="M1425.15 187.065C1461.82 185.855 1491.28 201.862 1515.67 215.152C1536.26 226.376 1543.13 241.096 1550.95 255.616C1558.28 269.196 1566.12 282.814 1559.51 296.479C1552.49 310.99 1535.3 323.546 1513.08 333.875C1487.94 345.558 1460.76 339.687 1425.15 358.921C1389.55 378.156 1360.59 368.453 1331.52 358.921C1300.74 348.83 1297.66 322.108 1284.26 305.335C1271.07 288.815 1280.26 270.944 1297.54 255.331C1311.2 242.996 1323.79 231.221 1343.19 220.841C1367.87 207.642 1388.44 188.276 1425.15 187.065Z" fill="#62C2D9"/>
<path opacity="0.21" fill-rule="evenodd" clip-rule="evenodd" d="M1316.6 11.0367C1327.96 10.3494 1337.09 19.4461 1344.64 26.999C1351.03 33.3779 1353.15 41.743 1355.58 49.9946C1357.85 57.7125 1360.28 65.4515 1358.23 73.2174C1356.05 81.4644 1350.73 88.6001 1343.84 94.4701C1336.05 101.11 1327.63 97.7728 1316.6 108.704C1305.57 119.635 1296.59 114.121 1287.58 108.704C1278.04 102.969 1277.09 87.7828 1272.94 78.2503C1268.85 68.8622 1271.7 58.7057 1277.06 49.833C1281.29 42.8226 1285.19 36.1313 1291.2 30.2319C1298.85 22.7307 1305.22 11.7249 1316.6 11.0367Z" fill="#62C2D9"/>
<path opacity="0.21" fill-rule="evenodd" clip-rule="evenodd" d="M1444.94 147.237C1435.21 153.136 1422.89 149.336 1412.69 146.172C1404.07 143.499 1398.29 137.087 1392.3 130.914C1386.7 125.141 1380.94 119.424 1379.14 111.598C1377.23 103.286 1378.62 94.4912 1381.98 86.0897C1385.78 76.5868 1394.79 75.6174 1399.46 60.8065C1404.13 45.9957 1414.64 46.6967 1425.13 47.2949C1436.25 47.9282 1444.16 60.9227 1452.27 67.4256C1460.26 73.8301 1462.47 84.1442 1461.87 94.4901C1461.39 102.665 1461.05 110.403 1458.48 118.423C1455.2 128.622 1454.69 141.33 1444.94 147.237Z" fill="#62C2D9"/>
</svg>
