<svg width="17" height="16" viewBox="0 0 17 16" fill="none" xmlns="http://www.w3.org/2000/svg">
<g clip-path="url(#clip0_151_523)">
<path d="M8.35913 0C3.94775 0 0.359131 3.58862 0.359131 8C0.359131 12.4114 3.94775 16 8.35913 16C12.7705 16 16.3591 12.4114 16.3591 8C16.3591 3.58862 12.7705 0 8.35913 0Z" fill="#FE8738"/>
<path d="M12.4133 6.30469L8.07996 10.6379C7.94995 10.7679 7.7793 10.8334 7.60864 10.8334C7.43799 10.8334 7.26733 10.7679 7.13733 10.6379L4.9707 8.47131C4.70996 8.21069 4.70996 7.78931 4.9707 7.52869C5.23132 7.26794 5.65259 7.26794 5.91333 7.52869L7.60864 9.224L11.4707 5.36206C11.7313 5.10132 12.1526 5.10132 12.4133 5.36206C12.674 5.62268 12.674 6.04395 12.4133 6.30469Z" fill="#FAFAFA"/>
</g>
<defs>
<clipPath id="clip0_151_523">
<rect width="16" height="16" fill="white" transform="translate(0.359131)"/>
</clipPath>
</defs>
</svg>
