<svg width="13" height="13" viewBox="0 0 13 13" fill="none" xmlns="http://www.w3.org/2000/svg">
<g clip-path="url(#clip0_11_2742)">
<path fill-rule="evenodd" clip-rule="evenodd" d="M7.54708 6.5L12.7821 1.26495C13.0663 0.980832 13.0716 0.506652 12.7825 0.217508C12.4913 -0.0736513 12.0244 -0.0714726 11.735 0.217872L6.5 5.45292L1.26495 0.217872C0.980832 -0.0662504 0.506652 -0.0716355 0.217508 0.217508C-0.0736513 0.508668 -0.0714726 0.975609 0.217872 1.26495L5.45292 6.5L0.217872 11.735C-0.0662504 12.0192 -0.0716355 12.4933 0.217508 12.7825C0.508668 13.0737 0.975609 13.0715 1.26495 12.7821L6.5 7.54708L11.735 12.7821C12.0192 13.0663 12.4933 13.0716 12.7825 12.7825C13.0737 12.4913 13.0715 12.0244 12.7821 11.735L7.54708 6.5Z" fill="black"/>
</g>
<defs>
<clipPath id="clip0_11_2742">
<rect width="13" height="13" fill="white"/>
</clipPath>
</defs>
</svg>
