<svg width="16" height="13" viewBox="0 0 16 13" fill="none" xmlns="http://www.w3.org/2000/svg">
<path d="M1.75868 12.9821C1.52415 12.9821 1.32311 12.87 1.15559 12.6458C1.02157 12.4216 0.954559 12.1525 0.954559 11.8386C0.954559 11.5247 1.00482 11.166 1.10533 10.7624L3.76898 1.54709C3.93651 1.00897 4.12079 0.627804 4.32182 0.403588C4.52285 0.134529 4.82439 0 5.22645 0H6.88495C7.15299 0 7.37078 0.134529 7.5383 0.403588C7.63882 0.582962 7.68907 0.807179 7.68907 1.07624C7.68907 1.21077 7.67232 1.3453 7.63882 1.47983L6.53315 11.0314C6.39913 12.3319 5.93006 12.9821 5.12594 12.9821H1.75868ZM9.79989 12.9821C9.56536 12.9821 9.36433 12.87 9.1968 12.6458C9.06278 12.4216 8.99577 12.1525 8.99577 11.8386C8.99577 11.3902 9.04603 11.0314 9.14654 10.7624L11.8102 1.54709C11.9777 1.00897 12.162 0.627804 12.363 0.403588C12.5641 0.134529 12.8656 0 13.2677 0H14.9262C15.1942 0 15.412 0.134529 15.5795 0.403588C15.68 0.582962 15.7303 0.807179 15.7303 1.07624C15.7303 1.21077 15.7135 1.3453 15.68 1.47983L14.5744 11.0314C14.4403 12.3319 13.9713 12.9821 13.1671 12.9821H9.79989Z" fill="black"/>
</svg>
