<svg width="375" height="305" viewBox="0 0 375 305" fill="none" xmlns="http://www.w3.org/2000/svg">
<path opacity="0.21" fill-rule="evenodd" clip-rule="evenodd" d="M397.938 275.237C388.204 281.136 375.891 277.336 365.686 274.172C357.067 271.499 351.29 265.087 345.301 258.914C339.699 253.141 333.943 247.424 332.14 239.598C330.225 231.286 331.615 222.491 334.976 214.09C338.777 204.587 347.784 203.617 352.456 188.807C357.128 173.996 367.637 174.697 378.132 175.295C389.243 175.928 397.16 188.923 405.272 195.426C413.261 201.83 415.471 212.144 414.863 222.49C414.383 230.665 414.048 238.403 411.474 246.423C408.202 256.622 407.686 269.33 397.938 275.237Z" fill="#62C2D9"/>
<path opacity="0.21" fill-rule="evenodd" clip-rule="evenodd" d="M357.597 9.03672C368.958 8.34942 378.086 17.4461 385.643 24.999C392.025 31.3779 394.152 39.743 396.577 47.9946C398.846 55.7125 401.278 63.4515 399.228 71.2174C397.052 79.4644 391.727 86.6001 384.84 92.4701C377.051 99.1095 368.629 95.7728 357.597 106.704C346.566 117.635 337.592 112.121 328.583 106.704C319.045 100.969 318.09 85.7828 313.94 76.2503C309.853 66.8622 312.7 56.7057 318.056 47.833C322.287 40.8226 326.188 34.1313 332.201 28.2319C339.846 20.7307 346.221 9.72494 357.597 9.03672Z" fill="#62C2D9"/>
<path opacity="0.21" fill-rule="evenodd" clip-rule="evenodd" d="M-134.386 158.46C-140.028 122.211 -127.708 91.033 -117.47 65.2136C-108.823 43.4073 -95.0434 34.812 -81.5788 25.2831C-68.9852 16.3705 -56.4184 6.9307 -42.0529 11.8408C-26.7974 17.055 -12.252 32.5936 0.692972 53.403C15.3348 76.9403 12.7993 104.633 36.205 137.643C59.6106 170.653 53.487 200.575 47.5476 230.59C41.2592 262.368 15.1073 268.662 0.0798957 283.99C-14.7201 299.085 -33.5732 292.128 -51.1644 276.862C-65.0634 264.801 -78.2758 253.731 -90.9305 235.727C-107.021 212.834 -128.737 194.759 -134.386 158.46Z" fill="#62C2D9"/>
</svg>
