<svg width="76" height="88" viewBox="0 0 76 88" fill="none" xmlns="http://www.w3.org/2000/svg">
<path d="M40.8956 48.4214C40.668 48.4214 40.4135 48.1769 40.1583 47.9323C39.9176 47.7018 39.6762 47.4713 39.4563 47.4456C39.6764 47.4713 39.9177 47.7018 40.1584 47.9323C40.4136 48.1769 40.668 48.4214 40.8956 48.4214ZM35.1089 48.4214C35.0994 48.4214 35.0899 48.4209 35.0805 48.42C35.0899 48.4209 35.0994 48.4214 35.1089 48.4214ZM32.1668 47.7881C31.7439 47.6295 31.6341 46.534 31.2414 46.2957C31.2414 46.2957 31.2415 46.2957 31.2415 46.2957C31.6342 46.534 31.7439 47.6295 32.1668 47.7881ZM29.4907 46.7862C29.4692 46.7815 29.4486 46.7745 29.4289 46.7657C29.012 46.5751 29.0679 45.443 28.7067 45.146C28.7068 45.146 28.7069 45.1461 28.7071 45.1461C29.0678 45.4434 29.012 46.5751 29.4291 46.7657C29.4487 46.7745 29.4693 46.7811 29.4906 46.7862H29.4907ZM48.9349 45.4088C48.739 45.4088 48.492 45.3232 48.2449 45.2376C47.9979 45.152 47.7507 45.0664 47.5543 45.0664C47.7507 45.0664 47.9979 45.152 48.245 45.2376C48.492 45.3232 48.739 45.4088 48.9349 45.4088ZM51.1773 43.6821C51.0041 43.6821 50.7987 43.6423 50.5932 43.6025C50.3877 43.5628 50.1822 43.523 50.0087 43.523C50.1822 43.523 50.3878 43.5628 50.5932 43.6025C50.7987 43.6423 51.0041 43.6821 51.1774 43.6821C51.1773 43.6821 51.1773 43.6821 51.1773 43.6821ZM55.1548 37.289C55.4522 36.9278 56.5839 36.9837 56.7746 36.5668C56.5839 36.9839 55.4522 36.9278 55.1548 37.289ZM19.263 36.6226C19.2502 36.6052 19.2392 36.5869 19.2302 36.5676C19.2392 36.5869 19.2502 36.6052 19.263 36.6226ZM17.5933 30.994C17.5856 30.973 17.5801 30.9516 17.577 30.9297C17.513 30.4801 18.4956 29.9155 18.5499 29.4474C18.4956 29.9155 17.513 30.4801 17.5772 30.9297C17.5802 30.9515 17.5857 30.9728 17.5933 30.9938C17.5933 30.9939 17.5933 30.994 17.5933 30.994ZM17.3765 28.0588C17.3733 28.0431 17.3711 28.0274 17.3702 28.0117C17.3711 28.0274 17.3733 28.0431 17.3765 28.0588ZM17.3696 27.9934C17.3696 27.5328 18.4213 27.1122 18.5411 26.6624V26.6624C18.4214 27.1122 17.3696 27.5328 17.3696 27.9934ZM17.5748 25.1217C17.5733 25.0998 17.574 25.0782 17.577 25.0568C17.6418 24.602 18.743 24.3347 18.9253 23.9054C18.743 24.3347 17.6418 24.602 17.5772 25.0568C17.5741 25.0781 17.5734 25.0997 17.5749 25.1214C17.5748 25.1215 17.5748 25.1216 17.5748 25.1217ZM18.1887 22.2429C18.1904 22.221 18.1942 22.1997 18.2003 22.1789C18.3295 21.7387 19.4578 21.6318 19.7002 21.2325C19.7002 21.2325 19.7002 21.2325 19.7002 21.2325C19.4579 21.6318 18.3297 21.7387 18.2003 22.1789C18.1942 22.1997 18.1904 22.221 18.1887 22.2429ZM56.8049 19.5679C56.8045 19.5146 56.7956 19.465 56.7751 19.4202C56.7657 19.4004 56.7545 19.3816 56.7415 19.3637C56.7545 19.3816 56.7657 19.4004 56.7751 19.4202C56.7956 19.465 56.8045 19.5146 56.8049 19.5679ZM20.6138 16.8956C20.6217 16.875 20.6314 16.8554 20.6432 16.8371C20.891 16.4522 22.0038 16.6689 22.3494 16.353C22.0038 16.6689 20.891 16.4522 20.6432 16.8371C20.6314 16.8554 20.6217 16.875 20.6138 16.8956ZM28.4506 10.9208H28.4506C28.504 10.9208 28.5536 10.9145 28.5984 10.9001C28.5984 10.9001 28.5983 10.9002 28.5983 10.9002C28.5535 10.9145 28.5039 10.9208 28.4506 10.9208ZM26.7955 10.675C26.8111 10.6597 26.8278 10.6461 26.846 10.6344C26.9079 10.5946 26.9838 10.5782 27.0694 10.5782C26.9838 10.5782 26.9079 10.5946 26.846 10.6344C26.8278 10.6461 26.8111 10.6597 26.7955 10.675ZM31.0563 9.7399C31.0563 9.7399 31.0563 9.7399 31.0563 9.7399C31.0803 9.7399 31.1035 9.73808 31.126 9.73426H31.1259C31.1035 9.73808 31.0803 9.7399 31.0563 9.7399ZM29.3723 9.25452C29.3902 9.24145 29.4091 9.22979 29.4291 9.22092C29.4741 9.20039 29.5239 9.19106 29.5775 9.19106C29.524 9.19106 29.4742 9.20039 29.4292 9.22092C29.4093 9.22979 29.3904 9.24145 29.3725 9.25452C29.3724 9.25452 29.3724 9.25452 29.3723 9.25452ZM33.7842 8.94279C33.7842 8.94279 33.7841 8.94279 33.7841 8.94279C33.7874 8.94279 33.7908 8.94279 33.7941 8.94279C33.7941 8.94279 33.7941 8.94279 33.7941 8.94279C33.7908 8.94279 33.7875 8.94279 33.7842 8.94279ZM42.0904 8.91666C42.0904 8.91666 42.0903 8.91666 42.0903 8.91666C41.8854 8.82939 41.7174 8.53259 41.5482 8.23952C41.7174 8.53259 41.8854 8.82939 42.0904 8.91666ZM32.1271 8.21666C32.1468 8.20592 32.1671 8.19752 32.1882 8.19145C32.2175 8.18305 32.2479 8.17885 32.2794 8.17885C32.2479 8.17885 32.2175 8.18305 32.1882 8.19145C32.1671 8.19752 32.1468 8.20592 32.1271 8.21666ZM35.0023 7.58432C35.0023 7.58432 35.0023 7.58432 35.0023 7.58432C35.0231 7.57685 35.0443 7.57172 35.066 7.56845C35.0802 7.56659 35.0947 7.56519 35.1091 7.56519C35.1091 7.56519 35.1091 7.56519 35.1092 7.56519C35.0947 7.56519 35.0803 7.56659 35.0661 7.56845C35.0444 7.57172 35.0232 7.57685 35.0023 7.58432ZM40.8746 7.56612C40.8817 7.56565 40.8888 7.56519 40.8958 7.56519C40.8958 7.56519 40.8958 7.56519 40.8958 7.56519C40.8888 7.56519 40.8817 7.56565 40.8746 7.56612Z" fill="url(#paint0_linear_190_1417)"/>
<path d="M38.1306 48.626C38.1093 48.626 38.0882 48.6236 38.0671 48.6194C38.5232 48.5252 38.9429 47.4761 39.3947 47.4444C39.4021 47.4439 39.4095 47.4434 39.4171 47.4434C39.4302 47.4434 39.4434 47.4444 39.4566 47.4458C39.0074 47.568 38.5933 48.6227 38.1326 48.626C38.132 48.626 38.1312 48.626 38.1306 48.626ZM35.2359 48.4393C35.2221 48.4393 35.2085 48.4388 35.1949 48.437C35.173 48.4337 35.1515 48.4286 35.1304 48.4211C35.3526 48.4066 35.5993 48.1696 35.8466 47.9325C36.1019 47.688 36.3578 47.4434 36.5883 47.4434C36.5958 47.4434 36.6033 47.4439 36.6107 47.4444C36.631 47.4458 36.6513 47.449 36.6715 47.4546C36.4515 47.4812 36.2116 47.7136 35.9722 47.9456C35.7178 48.1924 35.4641 48.4393 35.2359 48.4393ZM41.0228 48.4029C41.0161 48.4029 41.0095 48.4029 41.0028 48.4024C41.4396 48.2442 41.7063 47.1476 42.1492 47.0514C42.1691 47.0472 42.1895 47.0449 42.2103 47.0444C41.7826 47.2297 41.5222 48.332 41.0677 48.3996C41.0529 48.402 41.0378 48.4029 41.0228 48.4029ZM32.4023 47.8438C32.3717 47.8438 32.342 47.8401 32.3134 47.8317C32.2923 47.8256 32.2721 47.8172 32.2524 47.807C32.2614 47.8079 32.2704 47.8079 32.2795 47.8079C32.497 47.8079 32.7635 47.617 33.0305 47.4262C33.2975 47.2353 33.565 47.044 33.7843 47.044C33.8088 47.044 33.8327 47.0463 33.856 47.0514C33.8759 47.0556 33.8954 47.0622 33.9145 47.0701C33.912 47.0701 33.9095 47.0701 33.907 47.0701C33.6873 47.0701 33.42 47.2638 33.1532 47.457C32.8865 47.6502 32.6201 47.8438 32.4023 47.8438ZM43.8777 47.7701C44.2865 47.5503 44.3935 46.4276 44.8187 46.2688C44.838 46.2616 44.8582 46.2563 44.879 46.2527C44.4807 46.4967 44.3813 47.6264 43.9413 47.7584C43.9207 47.7645 43.8995 47.7682 43.8777 47.7701ZM29.6935 46.8484C29.6409 46.8484 29.5921 46.8396 29.5477 46.8195C29.5278 46.8106 29.509 46.7994 29.4911 46.7864H29.491C29.5187 46.7924 29.5477 46.7952 29.578 46.7952C29.7858 46.7952 30.0509 46.6583 30.3163 46.5213C30.5817 46.3842 30.8473 46.2471 31.0563 46.2471C31.1026 46.2471 31.1463 46.2538 31.1864 46.2688C31.2055 46.2759 31.224 46.285 31.2419 46.2959C31.2419 46.2959 31.2418 46.2959 31.2418 46.2959C31.22 46.2922 31.1974 46.2905 31.1742 46.2905C30.9648 46.2905 30.6987 46.4299 30.433 46.5694C30.1672 46.7089 29.9017 46.848 29.6935 46.8484ZM46.632 46.7327C47.0049 46.4575 46.9498 45.3303 47.3487 45.112C47.3667 45.1022 47.3858 45.0941 47.4057 45.0877C47.0463 45.387 47.1093 46.5185 46.6938 46.7117C46.6741 46.721 46.6535 46.728 46.632 46.7327ZM27.1751 45.4773C27.0913 45.4773 27.0169 45.4613 26.9559 45.4226C26.9376 45.4109 26.9206 45.3973 26.9048 45.3819C26.9538 45.4006 27.0092 45.4087 27.0693 45.4087C27.2652 45.4087 27.5122 45.323 27.7593 45.2374C28.0065 45.1517 28.2537 45.0661 28.4503 45.0661C28.528 45.0661 28.5977 45.0795 28.6563 45.1116C28.6743 45.1214 28.6912 45.133 28.7074 45.1463C28.7073 45.1463 28.7072 45.1462 28.7071 45.1462C28.663 45.1322 28.6142 45.126 28.5619 45.126C28.3649 45.126 28.1164 45.2138 27.8681 45.3016C27.6198 45.3895 27.3716 45.4773 27.1751 45.4773ZM49.2094 45.3119C49.5388 44.9867 49.3239 43.8787 49.6884 43.6055C49.7047 43.5933 49.7222 43.5827 49.741 43.5734C49.4276 43.9213 49.651 45.0321 49.2677 45.2821C49.2495 45.294 49.23 45.3039 49.2094 45.3119ZM24.919 43.7647C24.7842 43.7647 24.6692 43.7399 24.5891 43.6714C24.5726 43.6572 24.5577 43.6414 24.5444 43.624C24.6202 43.6661 24.7172 43.682 24.8271 43.682C25.0005 43.682 25.2061 43.6423 25.4116 43.6025C25.6172 43.5627 25.8228 43.523 25.9962 43.523C26.1251 43.523 26.2363 43.5449 26.3165 43.6051C26.3327 43.6172 26.3476 43.6309 26.3616 43.6461C26.2897 43.6115 26.2009 43.5981 26.1014 43.5981C25.9264 43.5981 25.7183 43.6397 25.5101 43.6814C25.302 43.723 25.0939 43.7647 24.919 43.7647ZM51.5584 43.5393C51.8383 43.1712 51.4684 42.1045 51.7908 41.7821C51.8052 41.7677 51.8211 41.7546 51.8384 41.7429C51.5774 42.1318 51.9556 43.1997 51.6119 43.5016C51.5955 43.5159 51.5776 43.5284 51.5584 43.5393ZM24.2532 41.8294C24.1366 41.751 23.9589 41.7302 23.7591 41.7302C23.6459 41.7302 23.5256 41.7369 23.4053 41.7436C23.2849 41.7502 23.1646 41.757 23.0513 41.757C22.8114 41.757 22.6034 41.7269 22.4948 41.6032C22.4804 41.5869 22.4678 41.5689 22.457 41.5497C22.576 41.64 22.7679 41.6625 22.984 41.6625C23.0916 41.6625 23.2053 41.6569 23.3188 41.6513C23.4325 41.6457 23.5461 41.6401 23.6538 41.6401C23.8913 41.6401 24.0996 41.6674 24.214 41.7819C24.2284 41.7963 24.2415 41.8122 24.2532 41.8294ZM53.6333 41.4516C53.857 41.0473 53.3403 40.0444 53.614 39.6795C53.6263 39.6632 53.6402 39.6481 53.6557 39.6339C53.4516 40.0563 53.9778 41.06 53.6805 41.4071C53.6664 41.4234 53.6506 41.4383 53.6333 41.4516ZM22.4234 39.7328C22.0766 39.4185 20.9643 39.6424 20.7139 39.2589C20.702 39.2406 20.6921 39.2211 20.6841 39.2005C21.0094 39.5301 22.1177 39.3149 22.3909 39.6793C22.4033 39.6958 22.4141 39.7138 22.4234 39.7328ZM55.3912 39.0915C55.5551 38.6597 54.9016 37.7406 55.1205 37.3401C55.1303 37.3222 55.142 37.3053 55.1552 37.2892C55.0133 37.7365 55.6762 38.655 55.4318 39.0405C55.4201 39.0588 55.4066 39.0757 55.3912 39.0915ZM20.9087 37.3966C20.6095 37.0373 19.4777 37.1005 19.2845 36.6848C19.2753 36.665 19.2683 36.6444 19.2634 36.6228C19.5387 36.9959 20.6662 36.9409 20.8844 37.3398C20.8942 37.3578 20.9023 37.3767 20.9087 37.3966ZM56.796 36.5054C56.8968 36.0554 56.1181 35.2385 56.2781 34.8099C56.2852 34.7909 56.2942 34.7726 56.3049 34.7548C56.2282 35.2185 57.0158 36.033 56.8291 36.4487C56.8198 36.4687 56.809 36.4875 56.796 36.5054ZM19.7432 34.8699C19.4988 34.4717 18.3697 34.3723 18.2378 33.9326C18.2316 33.912 18.2276 33.8907 18.2258 33.869C18.4457 34.2776 19.5685 34.3845 19.7272 34.8099C19.7344 34.8291 19.7397 34.8491 19.7432 34.8699ZM57.8161 33.7437C57.8516 33.2846 56.964 32.5883 57.0606 32.1405C57.0648 32.1204 57.0713 32.1008 57.0797 32.0815C57.0694 32.552 57.9664 33.2452 57.8408 33.6829C57.8348 33.7039 57.8264 33.7241 57.8161 33.7437ZM18.9517 32.2014C18.7668 31.7737 17.6641 31.5133 17.5964 31.0586C17.5932 31.0374 17.5924 31.0159 17.5937 30.9942C17.5937 30.9941 17.5937 30.994 17.5937 30.994C17.7525 31.4307 18.8487 31.6974 18.9444 32.1402C18.9487 32.1601 18.9511 32.1805 18.9517 32.2014ZM58.4302 30.8651C58.3994 30.4064 57.4213 29.8435 57.4535 29.3857C57.4549 29.3654 57.4586 29.3451 57.4638 29.3249C57.5207 29.7928 58.5072 30.351 58.4461 30.8013C58.4428 30.823 58.4377 30.8442 58.4302 30.8651ZM18.5503 29.4476C18.4278 28.9985 17.3735 28.5841 17.3706 28.1235C17.3705 28.1019 17.3727 28.0804 17.3769 28.059C17.4722 28.5147 18.52 28.9341 18.5518 29.3857C18.5533 29.4062 18.5527 29.4268 18.5503 29.4476ZM58.6286 27.928C58.5329 27.4723 57.4857 27.053 57.4535 26.6017C57.4521 26.5813 57.4526 26.5607 57.4554 26.5398C57.5776 26.9887 58.6318 27.4028 58.6346 27.8635C58.6351 27.8851 58.6328 27.9065 58.6286 27.928ZM18.5415 26.6626V26.6625C18.4843 26.1945 17.4981 25.6363 17.5594 25.1859C17.5624 25.1642 17.5677 25.1428 17.5752 25.1218C17.5752 25.1218 17.5752 25.1217 17.5752 25.1216C17.6055 25.5808 18.5839 26.1438 18.5518 26.6017C18.5504 26.6221 18.5469 26.6424 18.5415 26.6626ZM58.4116 24.9929C58.2524 24.5566 57.1567 24.29 57.0606 23.847C57.0564 23.8271 57.054 23.8067 57.0536 23.7858C57.2388 24.2133 58.3411 24.4739 58.4092 24.9289C58.412 24.9499 58.413 24.9713 58.4116 24.9929ZM18.9256 23.9056C18.9353 23.4349 18.0392 22.7419 18.1644 22.304C18.1704 22.283 18.1787 22.2627 18.1891 22.2431C18.1539 22.7025 19.0416 23.3989 18.9444 23.847C18.9401 23.8669 18.9338 23.8864 18.9256 23.9056ZM57.7792 22.1184C57.5599 21.7097 56.437 21.6029 56.2781 21.1773C56.271 21.1582 56.2657 21.1384 56.2621 21.1178C56.507 21.5156 57.6355 21.6153 57.7676 22.0549C57.7736 22.0755 57.7774 22.0967 57.7792 22.1184ZM19.7005 21.2327C19.7005 21.2327 19.7005 21.2327 19.7006 21.2326C19.7771 20.7688 18.9896 19.9544 19.1766 19.5385C19.1855 19.5186 19.1966 19.4997 19.2097 19.4819C19.1083 19.932 19.8872 20.7487 19.7276 21.1773C19.7205 21.1964 19.7114 21.2149 19.7005 21.2327ZM56.7418 19.3639C56.4662 18.9913 55.3393 19.0465 55.1209 18.6474C55.1111 18.6294 55.103 18.6103 55.0965 18.5904C55.3955 18.9499 56.5276 18.8866 56.7208 19.3026C56.7302 19.3222 56.7367 19.3426 56.7418 19.3639ZM20.8499 18.6981C20.992 18.2508 20.329 17.332 20.5736 16.947C20.5852 16.9286 20.5989 16.9116 20.6142 16.8958C20.4502 17.3274 21.1038 18.2466 20.8846 18.6471C20.8748 18.665 20.8632 18.682 20.8499 18.6981ZM55.3212 16.7868C54.9961 16.4571 53.8876 16.6723 53.6146 16.3077C53.6023 16.2913 53.5916 16.2736 53.5824 16.2548C53.9297 16.5685 55.0412 16.3449 55.2916 16.7286C55.3035 16.7468 55.3133 16.7662 55.3212 16.7868ZM22.3498 16.3532C22.5534 15.9308 22.0276 14.9274 22.3249 14.5804C22.339 14.5639 22.3548 14.549 22.3723 14.5357C22.1482 14.9401 22.6648 15.9427 22.3912 16.3077C22.379 16.324 22.3652 16.3391 22.3498 16.3532ZM53.5484 14.4376C53.4293 14.3473 53.2374 14.3247 53.0212 14.3247C52.9136 14.3247 52.8 14.3303 52.6864 14.3359C52.5728 14.3415 52.4592 14.347 52.3516 14.347C52.1141 14.347 51.9058 14.3198 51.7914 14.2053C51.7771 14.191 51.7642 14.1752 51.7525 14.1582C51.8689 14.2363 52.0462 14.2571 52.2456 14.2571C52.3589 14.2571 52.4793 14.2503 52.5998 14.2436C52.7202 14.2369 52.8407 14.2302 52.954 14.2302C53.1939 14.2302 53.4019 14.2602 53.5106 14.3839C53.525 14.4004 53.5376 14.4183 53.5484 14.4376ZM24.1671 14.2441C24.428 13.8551 24.0495 12.7875 24.3933 12.4859C24.4096 12.4715 24.4275 12.459 24.4467 12.4482C24.1671 12.8167 24.5369 13.8828 24.2145 14.205C24.2001 14.2194 24.1843 14.2324 24.1671 14.2441ZM50.0092 12.4642C49.8804 12.4642 49.7692 12.4423 49.689 12.3821C49.673 12.37 49.658 12.3564 49.644 12.3412C49.7159 12.3757 49.8045 12.3891 49.9039 12.3891C50.0788 12.3891 50.287 12.3475 50.4951 12.3058C50.7033 12.2642 50.9114 12.2225 51.0862 12.2225C51.2211 12.2225 51.3361 12.2472 51.4162 12.3158C51.4327 12.33 51.4475 12.3458 51.461 12.3633C51.3851 12.3212 51.2882 12.3053 51.1783 12.3053C51.005 12.3053 50.7994 12.345 50.5938 12.3847C50.3883 12.4245 50.1827 12.4642 50.0092 12.4642ZM26.2642 12.4138C26.5775 12.0661 26.354 10.9553 26.7372 10.7051C26.7556 10.6931 26.7752 10.6832 26.7959 10.6752C26.4661 11 26.6815 12.1087 26.317 12.3816C26.3006 12.3939 26.2831 12.4046 26.2642 12.4138ZM47.5553 10.9211C47.4776 10.9211 47.4079 10.9077 47.3493 10.8756C47.3314 10.8659 47.3145 10.8543 47.2984 10.841C47.3424 10.855 47.3911 10.8612 47.4434 10.8612C47.6405 10.8612 47.8889 10.7734 48.1372 10.6856C48.3856 10.5977 48.6337 10.5099 48.8302 10.5099C48.9141 10.5099 48.9884 10.5259 49.0495 10.5646C49.0678 10.5763 49.0848 10.5898 49.1005 10.6052C49.0515 10.5866 48.9962 10.5785 48.936 10.5785C48.7401 10.5785 48.4931 10.6641 48.246 10.7498C47.9989 10.8355 47.7516 10.9211 47.5553 10.9211ZM28.5987 10.9004C28.5987 10.9004 28.5988 10.9003 28.5988 10.9003C28.9592 10.602 28.8956 9.46886 29.3113 9.27571C29.3309 9.26638 29.3514 9.25984 29.3727 9.25471C29.3728 9.25471 29.3728 9.25471 29.3729 9.25471C29.0006 9.53074 29.0555 10.6574 28.6569 10.8756C28.6385 10.8857 28.6191 10.8939 28.5987 10.9004ZM44.9492 9.74009C44.9029 9.74009 44.8593 9.73333 44.8191 9.71835C44.8001 9.71125 44.7816 9.7022 44.7638 9.69137C44.7855 9.69497 44.8079 9.69664 44.831 9.69664C45.0405 9.69664 45.3065 9.55725 45.5723 9.41781C45.8381 9.27851 46.1036 9.13898 46.3119 9.13898C46.3644 9.13898 46.4133 9.14785 46.4577 9.16791C46.4775 9.17678 46.4963 9.18798 46.5142 9.20104C46.4866 9.19451 46.4577 9.19171 46.4276 9.19171C46.2196 9.19171 45.9545 9.32891 45.6891 9.46593C45.4237 9.60303 45.1581 9.74009 44.9492 9.74009ZM31.1263 9.73445H31.1264C31.5243 9.49047 31.624 8.36105 32.0638 8.22898C32.0845 8.22245 32.1057 8.21871 32.1275 8.21685C31.7187 8.43711 31.6117 9.55963 31.1868 9.71835C31.1674 9.72558 31.1473 9.7309 31.1263 9.73445ZM42.2209 8.94298C42.1964 8.94298 42.1724 8.94065 42.1492 8.93551C42.1294 8.93131 42.1099 8.92478 42.0907 8.91685C42.0907 8.91685 42.0907 8.91685 42.0908 8.91685C42.0933 8.91685 42.0957 8.91685 42.0982 8.91685C42.318 8.91685 42.5852 8.72364 42.852 8.52998C43.1188 8.33678 43.3852 8.14358 43.6031 8.14358C43.6338 8.14358 43.6634 8.14731 43.6921 8.15525C43.7131 8.16131 43.7334 8.16971 43.753 8.17998C43.744 8.17951 43.735 8.17904 43.7259 8.17904C43.5085 8.17904 43.2419 8.36991 42.9749 8.56124C42.7078 8.75211 42.4403 8.94298 42.2209 8.94298ZM33.7945 8.94298C33.7945 8.94298 33.7945 8.94298 33.7945 8.94298C34.2226 8.75818 34.4828 7.65498 34.9377 7.58731C34.9526 7.58498 34.9676 7.58405 34.9827 7.58405C34.9893 7.58405 34.996 7.58405 35.0026 7.58451C35.0027 7.58451 35.0027 7.58451 35.0027 7.58451C34.5657 7.74318 34.2991 8.83938 33.8563 8.93551C33.8362 8.94018 33.8156 8.94251 33.7945 8.94298ZM39.417 8.54351C39.4095 8.54351 39.4021 8.54351 39.3947 8.54305C39.3744 8.54118 39.3542 8.53791 39.334 8.53231C39.5539 8.50571 39.7938 8.27378 40.0332 8.04138C40.2876 7.79451 40.5413 7.54765 40.7695 7.54765C40.7833 7.54765 40.7969 7.54858 40.8105 7.55045C40.8324 7.55325 40.8539 7.55885 40.875 7.56631C40.6527 7.58078 40.4061 7.81785 40.1588 8.05445C39.9036 8.29898 39.6476 8.54351 39.417 8.54351ZM36.5884 8.54351C36.5753 8.54351 36.5621 8.54305 36.5489 8.54118C36.998 8.41891 37.4118 7.36425 37.8727 7.36145C37.8734 7.36145 37.8741 7.36145 37.8747 7.36145C37.896 7.36145 37.9171 7.36378 37.9382 7.36798C37.4818 7.46178 37.0625 8.51085 36.6107 8.54305C36.6033 8.54351 36.5958 8.54351 36.5884 8.54351Z" fill="url(#paint1_linear_190_1417)"/>
<path d="M38.0023 48.6255C37.5415 48.6255 37.1211 47.5736 36.6711 47.4542C36.6509 47.4486 36.6306 47.4453 36.6103 47.4439C36.6029 47.4434 36.5954 47.443 36.5879 47.443C36.3574 47.443 36.1015 47.6875 35.8463 47.932C35.5989 48.1691 35.3523 48.4062 35.13 48.4206C35.1229 48.4206 35.1159 48.4211 35.1089 48.4211C35.0994 48.4211 35.0899 48.4206 35.0805 48.4197C35.0756 48.4192 35.0707 48.4188 35.0658 48.4178C34.6107 48.3534 34.3434 47.2521 33.9142 47.0696C33.895 47.0617 33.8755 47.0552 33.8556 47.051C33.8324 47.0458 33.8084 47.0435 33.7839 47.0435C33.5646 47.0435 33.2971 47.2348 33.0301 47.4257C32.7631 47.6166 32.4966 47.8074 32.2791 47.8074C32.27 47.8074 32.261 47.8074 32.252 47.8065C32.2302 47.8051 32.2088 47.8009 32.1881 47.7948C32.1809 47.793 32.1738 47.7906 32.1668 47.7878C31.7439 47.6292 31.6342 46.5337 31.2415 46.2954C31.2237 46.2845 31.2051 46.2754 31.186 46.2684C31.1459 46.2533 31.1023 46.2466 31.0559 46.2466C30.8469 46.2466 30.5813 46.3837 30.3159 46.5208C30.0505 46.6578 29.7854 46.7948 29.5776 46.7948C29.5473 46.7948 29.5183 46.792 29.4906 46.7859C29.4693 46.7808 29.4487 46.7742 29.4291 46.7654C29.012 46.5748 29.0678 45.4431 28.7071 45.1458C28.6909 45.1325 28.6739 45.1209 28.656 45.1111C28.5973 45.079 28.5276 45.0656 28.4499 45.0656C28.2534 45.0656 28.0061 45.1512 27.7589 45.2369C27.5118 45.3225 27.2648 45.4082 27.0689 45.4082C27.0088 45.4082 26.9535 45.4001 26.9044 45.3815C26.8837 45.3736 26.8642 45.3639 26.8459 45.3521C26.4606 45.1038 26.6776 43.9908 26.3612 43.6456C26.3473 43.6304 26.3323 43.6167 26.3161 43.6046C26.2359 43.5444 26.1248 43.5225 25.9959 43.5225C25.8224 43.5225 25.6168 43.5622 25.4113 43.602C25.2058 43.6418 25.0001 43.6815 24.8268 43.6815C24.7168 43.6815 24.6199 43.6656 24.544 43.6235C24.5247 43.6127 24.5067 43.6003 24.4903 43.5861C24.3627 43.4754 24.333 43.2597 24.3329 43.012C24.3329 42.7965 24.3553 42.5569 24.3553 42.3414C24.3553 42.1338 24.3345 41.9487 24.2528 41.8289C24.2411 41.8117 24.228 41.7958 24.2137 41.7814C24.0992 41.6669 23.8909 41.6396 23.6534 41.6396C23.5457 41.6396 23.4321 41.6452 23.3185 41.6508C23.2049 41.6564 23.0912 41.662 22.9836 41.662C22.7675 41.662 22.5757 41.6395 22.4566 41.5492C22.4391 41.5359 22.4231 41.5211 22.4088 41.5047C22.3386 41.4237 22.3134 41.3062 22.3134 41.1684C22.3134 40.8217 22.4727 40.3462 22.4727 39.9991C22.4727 39.8969 22.4589 39.8058 22.4231 39.7324C22.4137 39.7133 22.403 39.6954 22.3905 39.6788C22.1174 39.3144 21.009 39.5296 20.6837 39.2C20.6683 39.1843 20.6546 39.1675 20.6429 39.1492C20.6031 39.0874 20.5867 39.0115 20.5868 38.9259C20.5869 38.5342 20.9294 37.9381 20.9295 37.5453C20.9295 37.4914 20.923 37.4413 20.9084 37.3961C20.9019 37.3762 20.8938 37.3573 20.884 37.3393C20.6658 36.9404 19.5384 36.9954 19.263 36.6223C19.2502 36.6049 19.2392 36.5866 19.2302 36.5673C19.23 36.5669 19.2299 36.5664 19.2297 36.566C19.2091 36.5212 19.2 36.4717 19.1999 36.4184C19.1993 36.0029 19.7479 35.3582 19.7486 34.94C19.7486 34.9157 19.7468 34.8921 19.7429 34.8694C19.7393 34.8486 19.734 34.8286 19.7269 34.8094C19.5681 34.384 18.4453 34.2771 18.2254 33.8685C18.2149 33.8489 18.2064 33.8285 18.2002 33.8073C18.1916 33.7779 18.1876 33.7474 18.1876 33.7157C18.1883 33.2811 18.9511 32.6505 18.9515 32.2118C18.9515 32.2082 18.9514 32.2045 18.9513 32.2009C18.9507 32.18 18.9484 32.1596 18.944 32.1397C18.8483 31.6969 17.7522 31.4302 17.5933 30.9935C17.5857 30.9725 17.5802 30.9512 17.5772 30.9294C17.513 30.4798 18.4956 29.9152 18.5499 29.4471C18.5523 29.4263 18.5529 29.4057 18.5515 29.3852C18.5196 28.9336 17.4718 28.5143 17.3765 28.0585C17.3733 28.0428 17.3711 28.0271 17.3702 28.0114C17.3698 28.0054 17.3696 27.9992 17.3696 27.9931C17.3696 27.5325 18.4214 27.1119 18.5411 26.6621C18.5465 26.6419 18.55 26.6216 18.5515 26.6012C18.5836 26.1434 17.6051 25.5803 17.5749 25.1211C17.5734 25.0994 17.5741 25.0778 17.5772 25.0565C17.6418 24.6017 18.743 24.3344 18.9253 23.9051C18.9334 23.8859 18.9397 23.8664 18.944 23.8465C19.0412 23.3984 18.1535 22.702 18.1887 22.2426C18.1904 22.2207 18.1942 22.1994 18.2003 22.1786C18.3297 21.7384 19.4579 21.6315 19.7002 21.2322C19.711 21.2144 19.7201 21.1959 19.7272 21.1768C19.8868 20.7482 19.108 19.9315 19.2093 19.4814C19.2141 19.4599 19.2209 19.4394 19.2299 19.4197C19.4205 19.0031 20.5524 19.0587 20.8496 18.6976C20.8629 18.6815 20.8744 18.6645 20.8842 18.6466C21.1034 18.2461 20.4499 17.327 20.6138 16.8953C20.6217 16.8747 20.6314 16.8551 20.6432 16.8368C20.891 16.4519 22.0038 16.6686 22.3494 16.3527C22.3648 16.3386 22.3786 16.3235 22.3908 16.3072C22.6644 15.9422 22.1478 14.9396 22.3719 14.5352C22.3826 14.5158 22.395 14.4978 22.4093 14.4813C22.5201 14.3535 22.7362 14.3239 22.9841 14.3239C23.0918 14.3239 23.2055 14.3295 23.3192 14.3351C23.4328 14.3407 23.5466 14.3463 23.6542 14.3463C23.8618 14.3463 24.047 14.3254 24.1668 14.2436C24.1839 14.2319 24.1998 14.2189 24.2141 14.2045C24.5365 13.8823 24.1668 12.8162 24.4463 12.4477C24.4596 12.4301 24.4744 12.4141 24.4909 12.3999C24.5719 12.3296 24.6894 12.3044 24.8272 12.3044C25.0005 12.3044 25.2059 12.3442 25.4114 12.3839C25.6169 12.4237 25.8225 12.4634 25.996 12.4634C26.0987 12.4634 26.1902 12.4495 26.2638 12.4133C26.2827 12.4041 26.3003 12.3934 26.3167 12.3811C26.6812 12.1082 26.4658 10.9995 26.7955 10.6747C26.8111 10.6594 26.8278 10.6458 26.846 10.6341C26.9079 10.5943 26.9838 10.5779 27.0694 10.5779C27.2654 10.5779 27.5124 10.6636 27.7596 10.7492C28.0068 10.8349 28.2541 10.9205 28.4506 10.9205H28.4506C28.5039 10.9205 28.5535 10.9142 28.5983 10.8999C28.6187 10.8934 28.6381 10.8852 28.6565 10.8751C29.0551 10.6569 29.0002 9.53025 29.3725 9.25422C29.3904 9.24115 29.4093 9.22949 29.4292 9.22062C29.4742 9.20009 29.524 9.19075 29.5775 9.19075C29.5775 9.19075 29.5775 9.19075 29.5775 9.19075C29.7854 9.19075 30.0506 9.32795 30.316 9.46525C30.5814 9.6024 30.8471 9.73956 31.0563 9.7396C31.0563 9.7396 31.0563 9.7396 31.0563 9.7396C31.0803 9.7396 31.1035 9.73778 31.1259 9.73396C31.1469 9.73041 31.167 9.72509 31.1865 9.71785C31.6113 9.55914 31.7183 8.43662 32.1271 8.21635C32.1468 8.20562 32.1671 8.19722 32.1882 8.19115C32.2175 8.18275 32.2479 8.17855 32.2794 8.17855C32.4968 8.17855 32.7633 8.36942 33.0303 8.56075C33.2973 8.75162 33.5648 8.94249 33.7841 8.94249C33.7841 8.94249 33.7842 8.94249 33.7842 8.94249C33.7875 8.94249 33.7908 8.94249 33.7941 8.94249C33.8152 8.94202 33.8358 8.93969 33.8559 8.93502C34.2988 8.83889 34.5653 7.74269 35.0023 7.58402C35.0232 7.57655 35.0444 7.57142 35.0661 7.56815C35.0803 7.56628 35.0947 7.56488 35.1092 7.56488C35.1092 7.56488 35.1092 7.56488 35.1092 7.56488C35.3367 7.56488 35.5911 7.80942 35.8463 8.05396C36.0716 8.27002 36.2975 8.48562 36.5059 8.53322C36.5202 8.53648 36.5344 8.53929 36.5485 8.54069C36.5617 8.54255 36.5749 8.54302 36.588 8.54302C36.5955 8.54302 36.6029 8.54302 36.6103 8.54255C37.0621 8.51035 37.4815 7.46128 37.9378 7.36749C37.9592 7.36282 37.9807 7.36049 38.0023 7.36049C38.4629 7.36049 38.8836 8.41282 39.3336 8.53182C39.3538 8.53742 39.374 8.54068 39.3943 8.54255C39.4018 8.54302 39.4092 8.54302 39.4166 8.54302C39.6473 8.54302 39.9032 8.29849 40.1584 8.05396C40.4057 7.81736 40.6524 7.58028 40.8746 7.56582C40.8817 7.56535 40.8888 7.56488 40.8958 7.56488C40.8959 7.56488 40.8959 7.56488 40.8959 7.56488C40.9104 7.56488 40.9248 7.56628 40.939 7.56815C41.1767 7.60175 41.3632 7.91862 41.5482 8.23922C41.7174 8.53228 41.8854 8.82909 42.0903 8.91636C42.1095 8.92429 42.129 8.93082 42.1488 8.93502C42.1721 8.94016 42.196 8.94249 42.2206 8.94249C42.4399 8.94249 42.7074 8.75162 42.9745 8.56075C43.2415 8.36942 43.5081 8.17855 43.7255 8.17855C43.7347 8.17855 43.7437 8.17902 43.7526 8.17949C43.7745 8.18135 43.7958 8.18509 43.8166 8.19115C43.8409 8.19815 43.8641 8.20842 43.8865 8.22149C44.2699 8.44222 44.3858 9.46212 44.7634 9.69088C44.7813 9.70171 44.7997 9.71076 44.8188 9.71785C44.8589 9.73283 44.9025 9.7396 44.9488 9.7396C45.1578 9.7396 45.4233 9.60254 45.6887 9.46544C45.9541 9.32842 46.2192 9.19122 46.4272 9.19122C46.4573 9.19122 46.4863 9.19402 46.5138 9.20055C46.5354 9.20522 46.556 9.21222 46.5758 9.22109C46.9925 9.41144 46.9366 10.5435 47.298 10.8405C47.3141 10.8538 47.3311 10.8654 47.3489 10.8751C47.4075 10.9072 47.4772 10.9206 47.5549 10.9206C47.7513 10.9206 47.9985 10.835 48.2456 10.7493C48.4927 10.6637 48.7398 10.578 48.9357 10.578C48.9958 10.578 49.0512 10.5861 49.1002 10.6047C49.1209 10.6126 49.1404 10.6223 49.1588 10.6341C49.1733 10.6435 49.187 10.6541 49.1998 10.6658C49.5282 10.9653 49.3388 12.0089 49.6436 12.3407C49.6576 12.3559 49.6726 12.3695 49.6887 12.3816C49.7688 12.4418 49.88 12.4637 50.0089 12.4637C50.1823 12.4637 50.3879 12.424 50.5934 12.3842C50.799 12.3445 51.0046 12.3048 51.1779 12.3048C51.2878 12.3048 51.3847 12.3207 51.4606 12.3628C51.4799 12.3735 51.4978 12.3858 51.5143 12.4001C51.6419 12.5108 51.6716 12.7266 51.6716 12.9743C51.6717 13.1897 51.6493 13.4293 51.6493 13.6449C51.6493 13.8526 51.6701 14.038 51.7521 14.1577C51.7638 14.1748 51.7767 14.1905 51.791 14.2048C51.9054 14.3193 52.1137 14.3465 52.3512 14.3465C52.4589 14.3465 52.5724 14.341 52.686 14.3354C52.7997 14.3298 52.9132 14.3242 53.0209 14.3242C53.237 14.3242 53.429 14.3468 53.548 14.4371C53.5656 14.4504 53.5815 14.4652 53.5957 14.4815C53.666 14.5626 53.6911 14.68 53.6912 14.8178C53.6912 15.1646 53.532 15.64 53.532 15.987C53.532 16.0895 53.5459 16.1808 53.582 16.2543C53.5912 16.2731 53.6019 16.2908 53.6142 16.3072C53.8872 16.6718 54.9957 16.4566 55.3209 16.7863C55.3363 16.8019 55.3499 16.8188 55.3617 16.837C55.4015 16.8989 55.4178 16.9748 55.4178 17.0604C55.4177 17.4522 55.0752 18.0483 55.0751 18.4409C55.0751 18.4948 55.0815 18.5448 55.0961 18.5899C55.1026 18.6099 55.1107 18.6289 55.1205 18.6469C55.3389 19.046 56.4658 18.9908 56.7415 19.3634C56.7545 19.3813 56.7657 19.4001 56.7751 19.4199C56.7956 19.4647 56.8045 19.5143 56.8049 19.5676C56.8054 19.9833 56.2565 20.628 56.256 21.0461C56.2559 21.0707 56.2578 21.0944 56.2618 21.1174C56.2653 21.1379 56.2706 21.1577 56.2777 21.1768C56.4367 21.6025 57.5595 21.7092 57.7789 22.1179C57.7896 22.1375 57.798 22.1578 57.8041 22.1788C57.9324 22.6159 57.0401 23.3148 57.0532 23.7853C57.0537 23.8062 57.056 23.8266 57.0602 23.8465C57.1563 24.2895 58.2521 24.5561 58.4112 24.9924C58.4191 25.0134 58.4247 25.0347 58.4275 25.0565C58.4299 25.0708 58.4308 25.0851 58.4308 25.0996C58.4303 25.5423 57.5073 26.086 57.455 26.5393C57.4522 26.5602 57.4517 26.5808 57.4531 26.6012C57.4853 27.0526 58.5325 27.4718 58.6282 27.9275C58.6324 27.9474 58.6347 27.9674 58.6352 27.9875C58.6352 27.9893 58.6352 27.9913 58.6352 27.9931C58.6352 28.4537 57.5833 28.8744 57.4634 29.3244C57.4583 29.3446 57.4545 29.3649 57.4531 29.3852C57.4209 29.843 58.3991 30.4059 58.4299 30.8646C58.4303 30.8719 58.4308 30.8792 58.4308 30.8865C58.4308 30.9009 58.4299 30.9152 58.4275 30.9294C58.3627 31.3848 57.2623 31.652 57.0793 32.081C57.0709 32.1003 57.0644 32.12 57.0602 32.14C56.9636 32.5878 57.8512 33.2841 57.8157 33.7433C57.8139 33.7652 57.8101 33.7866 57.8041 33.8073C57.6753 34.2483 56.5465 34.355 56.3046 34.7543C56.2938 34.7721 56.2848 34.7904 56.2777 34.8094C56.1178 35.238 56.8964 36.0549 56.7956 36.5049C56.7905 36.5263 56.7839 36.5468 56.7746 36.5665C56.5839 36.9834 55.4522 36.9275 55.1548 37.2887C55.1416 37.3048 55.13 37.3217 55.1202 37.3396C54.9012 37.7401 55.5548 38.6592 55.3908 39.091C55.383 39.1117 55.3732 39.1313 55.3614 39.1497C55.1133 39.5344 54.0012 39.3179 53.6553 39.6334C53.6398 39.6476 53.6259 39.6627 53.6137 39.679C53.34 40.044 53.8566 41.0468 53.6329 41.4511C53.6221 41.4706 53.6097 41.4886 53.5953 41.5051C53.4845 41.6327 53.2685 41.6624 53.0205 41.6624C52.9129 41.6624 52.7992 41.6568 52.6856 41.6512C52.572 41.6456 52.4583 41.64 52.3507 41.64C52.1431 41.64 51.9578 41.6608 51.838 41.7424C51.8207 41.7541 51.8048 41.7672 51.7904 41.7816C51.4681 42.104 51.838 43.1707 51.558 43.5388C51.5447 43.5562 51.53 43.5722 51.5137 43.5863C51.4327 43.6566 51.3152 43.6818 51.1774 43.6818C51.0041 43.6818 50.7987 43.642 50.5932 43.6022C50.3878 43.5625 50.1822 43.5227 50.0087 43.5227C49.9059 43.5227 49.8143 43.5367 49.7406 43.5729C49.7219 43.5822 49.7043 43.5928 49.688 43.605C49.3235 43.8782 49.5385 44.9862 49.209 45.3114C49.1934 45.3269 49.1765 45.3406 49.1582 45.3523C49.0963 45.3922 49.0205 45.4085 48.9349 45.4085C48.739 45.4085 48.492 45.3229 48.245 45.2373C47.9979 45.1517 47.7507 45.0661 47.5543 45.0661C47.5005 45.0661 47.4505 45.0725 47.4054 45.0872C47.3854 45.0936 47.3664 45.1017 47.3483 45.1115C46.9494 45.3298 47.0045 46.457 46.6316 46.7322C46.6138 46.7453 46.5951 46.7565 46.5753 46.7658C46.5303 46.7864 46.4805 46.7952 46.427 46.7952C46.2191 46.7952 45.954 46.6582 45.6885 46.521C45.4231 46.3838 45.1574 46.2466 44.9484 46.2466C44.9244 46.2466 44.9011 46.2484 44.8786 46.2523C44.8578 46.2558 44.8377 46.2611 44.8184 46.2684C44.3932 46.4271 44.2861 47.5498 43.8774 47.7696C43.8577 47.7804 43.8373 47.7888 43.8162 47.7948C43.7869 47.8037 43.7565 47.8074 43.725 47.8074C43.5076 47.8074 43.2412 47.6166 42.9742 47.4257C42.7072 47.2348 42.4398 47.0435 42.2205 47.0435C42.217 47.0435 42.2135 47.0435 42.2099 47.044C42.1891 47.0444 42.1687 47.0468 42.1488 47.051C41.7059 47.1471 41.4392 48.2438 41.0024 48.402C40.9816 48.4094 40.9603 48.415 40.9387 48.4178C40.9244 48.4202 40.9101 48.4211 40.8956 48.4211C40.668 48.4211 40.4136 48.1766 40.1584 47.932C39.9177 47.7015 39.6764 47.471 39.4563 47.4453C39.443 47.4439 39.4298 47.443 39.4167 47.443C39.4092 47.443 39.4018 47.4434 39.3943 47.4439C38.9425 47.4756 38.5228 48.5247 38.0667 48.619C38.0453 48.6232 38.0239 48.6255 38.0023 48.6255ZM38.0023 10.2536C28.205 10.2536 20.2626 18.1956 20.2626 27.9931C20.2626 37.7903 28.205 45.7326 38.0023 45.7326C47.7996 45.7326 55.742 37.7903 55.742 27.9931C55.742 18.1956 47.7996 10.2536 38.0023 10.2536Z" fill="#26A9E0"/>
<path d="M47.1517 27.9933C47.1517 33.0458 43.0557 37.1416 38.0031 37.1416C32.9505 37.1416 28.8545 33.0458 28.8545 27.9933C28.8545 22.9408 32.9505 18.8449 38.0031 18.8449C43.0557 18.8449 47.1517 22.9408 47.1517 27.9933Z" fill="white"/>
<path d="M46.6193 27.9931C46.6193 32.7521 42.7611 36.6104 38.0019 36.6104C33.2428 36.6104 29.3845 32.7521 29.3845 27.9931C29.3845 23.2341 33.2428 19.3758 38.0019 19.3758C42.7611 19.3758 46.6193 23.2341 46.6193 27.9931Z" fill="#26A9E0"/>
<path d="M28.0624 20.8295C28.0656 20.8719 28.0592 20.9194 28.043 20.9724C28.0269 21.0256 27.9993 21.0809 27.9603 21.1383C27.9118 21.2092 27.8624 21.2627 27.812 21.2985C27.7617 21.3342 27.7068 21.3458 27.6473 21.3332C27.292 21.2556 26.9899 21.1878 26.741 21.1301C26.4919 21.0727 26.282 21.0197 26.1109 20.9712L26.0969 20.9916C26.2745 21.1247 26.4375 21.2467 26.586 21.3578C26.7344 21.469 26.88 21.5772 27.0224 21.6822C27.165 21.7872 27.3092 21.8943 27.4548 22.0035C27.6005 22.1129 27.7572 22.2327 27.9246 22.3626C27.9143 22.3956 27.8992 22.4353 27.8794 22.4818C27.8597 22.5285 27.8341 22.575 27.8024 22.6216C27.6775 22.8047 27.547 22.8498 27.4102 22.7566C27.3666 22.7268 27.3002 22.6788 27.2114 22.6122C27.1226 22.5457 27.0197 22.4678 26.9026 22.3779C26.7857 22.2884 26.6581 22.1893 26.5196 22.0812C26.3812 21.9729 26.2415 21.8635 26.1004 21.7534C25.9593 21.6435 25.8206 21.534 25.6846 21.4254C25.5484 21.3167 25.4217 21.2161 25.3043 21.1242C25.2918 21.0838 25.2912 21.0244 25.3026 20.946C25.3138 20.8677 25.3512 20.7821 25.4145 20.689C25.4852 20.5853 25.5597 20.5128 25.6376 20.4719C25.7155 20.431 25.8052 20.4209 25.9069 20.4421C26.0158 20.4642 26.1345 20.4901 26.2627 20.5192C26.3908 20.5485 26.5221 20.5789 26.6567 20.6106C26.7913 20.6422 26.9232 20.673 27.0527 20.7033C27.1822 20.7334 27.3042 20.7615 27.4187 20.7873L27.4299 20.7711C27.2362 20.5029 27.0503 20.2412 26.8719 19.9859C26.6938 19.7304 26.5446 19.5118 26.4243 19.3299C26.4303 19.2858 26.4455 19.234 26.4699 19.1747C26.4944 19.1155 26.5252 19.0583 26.5624 19.0036C26.6313 18.9026 26.7013 18.8321 26.7724 18.7924C26.8434 18.7527 26.9136 18.7466 26.9831 18.7739C27.0425 18.7983 27.1336 18.8424 27.2563 18.9058C27.3791 18.9696 27.5176 19.0438 27.6718 19.1288C27.826 19.2138 27.9898 19.3055 28.1632 19.4033C28.3364 19.5014 28.5028 19.5968 28.662 19.6892C28.8211 19.7816 28.9665 19.8664 29.0978 19.9438C29.2292 20.0214 29.3313 20.083 29.4041 20.1286C29.4019 20.1791 29.3925 20.2277 29.3767 20.2747C29.3605 20.3218 29.3329 20.3743 29.2938 20.4317C29.2454 20.5027 29.1888 20.5552 29.1237 20.5889C29.0587 20.6227 28.9847 20.6153 28.9016 20.5668C28.722 20.4603 28.5466 20.3551 28.3756 20.2506C28.2047 20.1461 28.0434 20.0463 27.8921 19.9511C27.7408 19.8563 27.6011 19.7691 27.4729 19.6897C27.3448 19.6106 27.2346 19.5416 27.1426 19.4827L27.1286 19.5031C27.2274 19.6345 27.3497 19.806 27.4958 20.0175C27.6419 20.2291 27.8308 20.4998 28.0624 20.8295Z" fill="#404041"/>
<path d="M30.5333 17.3202C30.318 17.0521 30.0939 16.8959 29.861 16.8515C29.6282 16.8072 29.4113 16.8658 29.21 17.0275C29.0114 17.1869 28.9081 17.3843 28.9 17.6199C28.8919 17.8555 28.9966 18.1089 29.2141 18.3797C29.4315 18.6505 29.6555 18.8078 29.886 18.8519C30.1164 18.896 30.3323 18.8371 30.5334 18.6757C30.7346 18.514 30.8392 18.3154 30.8474 18.0798C30.8555 17.8444 30.7508 17.5911 30.5333 17.3202ZM31.0479 16.9072C31.2094 17.1083 31.3226 17.3102 31.3875 17.5125C31.4525 17.7148 31.4747 17.9102 31.4541 18.0985C31.4335 18.2868 31.3723 18.4654 31.2703 18.6343C31.1683 18.8031 31.0334 18.9549 30.8659 19.0894C30.6982 19.2243 30.5209 19.323 30.334 19.3861C30.1471 19.4492 29.9596 19.4705 29.7712 19.45C29.5829 19.4293 29.3968 19.3655 29.2133 19.2583C29.0296 19.1513 28.8571 18.997 28.6956 18.7959C28.5341 18.5946 28.4221 18.393 28.3594 18.1909C28.2967 17.9888 28.2764 17.7932 28.2983 17.6037C28.3201 17.4144 28.3815 17.2357 28.4822 17.0679C28.5828 16.9001 28.7157 16.75 28.8808 16.6174C29.0458 16.4848 29.2212 16.3875 29.4068 16.3254C29.5924 16.2633 29.7799 16.2421 29.9697 16.2615C30.1593 16.2813 30.346 16.3434 30.5299 16.4481C30.7137 16.5531 30.8863 16.7059 31.0479 16.9072Z" fill="#404041"/>
<path d="M32.6659 17.8102C32.5532 17.8581 32.4653 17.8708 32.4022 17.8492C32.3391 17.8272 32.287 17.7678 32.2457 17.6703L31.2156 15.2345C31.2311 15.1778 31.2665 15.1233 31.3217 15.0711C31.3768 15.019 31.4441 14.9764 31.5233 14.9429C31.6177 14.903 31.7094 14.884 31.7982 14.8857C31.8869 14.8877 31.9814 14.9266 32.0818 15.0028L33.2405 15.9079C33.3478 15.992 33.4544 16.0807 33.5605 16.1741C33.6663 16.2675 33.7613 16.354 33.8452 16.4334L33.8615 16.421C33.7703 16.2478 33.6867 16.0775 33.6105 15.9104C33.5345 15.7433 33.4616 15.5775 33.3921 15.4129L32.9533 14.3756C32.975 14.3594 33.0095 14.3367 33.0565 14.3076C33.1036 14.2788 33.153 14.2534 33.2048 14.2314C33.3175 14.1841 33.4062 14.1708 33.4708 14.1917C33.5355 14.2129 33.5883 14.2723 33.6296 14.3697L34.6733 16.8373C34.6539 16.8851 34.6168 16.9312 34.5622 16.976C34.5074 17.0206 34.4374 17.0611 34.3522 17.0971C34.2607 17.1357 34.171 17.1549 34.0828 17.1545C33.9946 17.1542 33.9003 17.1158 33.8 17.0399L32.6414 16.1345C32.5353 16.0536 32.4287 15.9651 32.3214 15.8685C32.2141 15.7719 32.1186 15.6839 32.0346 15.6046L32.0091 15.6206C32.0953 15.7818 32.1781 15.9499 32.2573 16.1246C32.3366 16.2993 32.4099 16.4659 32.4767 16.6244L32.9156 17.6616C32.8936 17.6782 32.8603 17.7011 32.8155 17.7309C32.7706 17.7607 32.7207 17.7871 32.6659 17.8102Z" fill="#404041"/>
<path d="M35.3454 16.6944C35.2753 16.6417 35.2322 16.5631 35.2159 16.4584L34.8582 14.1542C34.8419 14.0496 34.8593 13.9624 34.9104 13.8927C34.9615 13.8227 35.0393 13.7798 35.1439 13.7635L36.7668 13.5114C36.7872 13.5351 36.8073 13.5671 36.8269 13.6075C36.8466 13.6482 36.8605 13.6945 36.8686 13.7468C36.8818 13.8318 36.8724 13.9 36.8402 13.952C36.8081 14.0038 36.7577 14.0351 36.6891 14.0457L35.5025 14.2298L35.6107 14.926L36.8069 14.7401C36.8274 14.7638 36.8481 14.7949 36.8691 14.8336C36.8902 14.872 36.9047 14.9176 36.9129 14.9698C36.9404 15.1463 36.8788 15.2463 36.7284 15.2695L35.6891 15.4309L35.807 16.191L37.17 15.9793C37.1904 16.0029 37.2114 16.0357 37.233 16.0776C37.2546 16.1192 37.2694 16.1666 37.2775 16.2188C37.305 16.3953 37.2434 16.495 37.093 16.5185L35.6075 16.7491C35.5029 16.7654 35.4155 16.7472 35.3454 16.6944Z" fill="#404041"/>
<path d="M40.2731 13.8689C40.2705 13.9051 40.2482 13.9643 40.2062 14.0459C40.164 14.1275 40.1002 14.2347 40.0148 14.3682C39.9293 14.5015 39.8204 14.663 39.6879 14.853C39.5555 15.0427 39.3961 15.2623 39.2099 15.5112L39.1379 16.5556C39.1109 16.5606 39.07 16.566 39.0149 16.5721C38.9598 16.5783 38.9025 16.5793 38.8431 16.5751C38.7177 16.5665 38.6319 16.5374 38.5856 16.4879C38.5392 16.4381 38.5197 16.3607 38.5269 16.255L38.5809 15.4728C38.5006 15.3379 38.4164 15.1896 38.328 15.0277C38.2398 14.8658 38.1532 14.7024 38.0684 14.5373C37.9836 14.3724 37.9053 14.2103 37.8334 14.0513C37.7614 13.8924 37.7017 13.7482 37.6543 13.6188C37.6841 13.571 37.7285 13.5286 37.7875 13.4912C37.8464 13.4539 37.9187 13.4382 38.0046 13.4441C38.1002 13.4505 38.1755 13.4774 38.2303 13.5242C38.285 13.571 38.3369 13.6494 38.3857 13.7588C38.4089 13.8068 38.4457 13.8864 38.4961 13.9976C38.5464 14.109 38.5997 14.2258 38.6558 14.349C38.712 14.4722 38.7653 14.5888 38.8159 14.6982C38.8662 14.8079 38.9016 14.8833 38.9221 14.9244L38.9469 14.9262C39.0178 14.8084 39.0854 14.6962 39.1491 14.5895C39.2127 14.4828 39.2747 14.3776 39.335 14.2741C39.3951 14.1706 39.4545 14.0654 39.5134 13.9584C39.5722 13.8512 39.6337 13.7403 39.698 13.6255C39.7391 13.605 39.7856 13.5917 39.8375 13.5853C39.8894 13.5789 39.9383 13.5774 39.9846 13.5803C40.0737 13.5865 40.1454 13.6149 40.2001 13.6649C40.2546 13.7152 40.279 13.7832 40.2731 13.8689Z" fill="#404041"/>
<path d="M42.5162 15.5128L42.9803 15.7021C43.1458 15.7696 43.2827 15.7861 43.3914 15.7519C43.4999 15.7176 43.5788 15.6407 43.6275 15.5212C43.726 15.2792 43.5886 15.0821 43.2149 14.9297C43.1383 14.8985 43.0643 14.8718 42.9929 14.8499C42.9215 14.828 42.8594 14.8115 42.8067 14.8006L42.5162 15.5128ZM43.2248 16.7717C43.2747 16.6492 43.2704 16.5348 43.2118 16.4289C43.1533 16.3226 43.0413 16.2359 42.8758 16.1686L42.3384 15.9493L42.0255 16.7167C42.0773 16.7556 42.1426 16.7948 42.2214 16.834C42.3 16.8732 42.3793 16.9091 42.4588 16.9414C42.6457 17.0178 42.8053 17.0444 42.9379 17.0218C43.0704 16.9988 43.166 16.9156 43.2248 16.7717ZM44.2416 15.7233C44.1854 15.8613 44.1006 15.966 43.9875 16.0377C43.8743 16.1095 43.7332 16.1467 43.5642 16.1491C43.7181 16.2798 43.8158 16.4214 43.8573 16.574C43.8986 16.7265 43.8868 16.8825 43.8219 17.0417C43.7033 17.3328 43.5094 17.5058 43.2407 17.5605C42.9719 17.6152 42.6369 17.5608 42.2355 17.3971C42.1774 17.3734 42.116 17.3466 42.0515 17.3165C41.9868 17.2867 41.9224 17.2542 41.8582 17.2189C41.7938 17.184 41.7308 17.1457 41.6692 17.1044C41.6073 17.0632 41.5511 17.0215 41.5004 16.9794C41.3733 16.8705 41.3367 16.7502 41.3904 16.6184L42.3064 14.3718C42.3302 14.3136 42.3636 14.2755 42.4067 14.2572C42.4497 14.239 42.5027 14.2321 42.5653 14.236C42.6831 14.2449 42.8138 14.2705 42.9574 14.3129C43.1008 14.3553 43.2476 14.4071 43.3977 14.4684C43.7682 14.6195 44.0287 14.7999 44.1791 15.0093C44.3293 15.2188 44.3502 15.4569 44.2416 15.7233Z" fill="#404041"/>
<path d="M46.2439 16.7292C46.1708 16.7783 46.09 16.8337 46.0011 16.8956C45.9124 16.9577 45.8198 17.022 45.7235 17.0885C45.6272 17.1553 45.5293 17.2228 45.4297 17.2911C45.33 17.3596 45.2331 17.4269 45.1391 17.4932L45.8343 18.0051L46.2639 16.744L46.2439 16.7292ZM45.6382 18.489L44.7432 17.8301C44.6413 17.9072 44.5345 17.9868 44.4228 18.0686C44.3109 18.1507 44.2191 18.2185 44.1468 18.2722C44.1123 18.263 44.0768 18.2515 44.0404 18.237C44.0038 18.2222 43.9628 18.1983 43.9176 18.165C43.827 18.0982 43.7696 18.0282 43.7456 17.955C43.7214 17.8818 43.7339 17.8121 43.7829 17.7453C43.8065 17.7135 43.834 17.6856 43.866 17.6617C43.8979 17.6381 43.9351 17.611 43.978 17.5809C44.0541 17.522 44.149 17.4532 44.2624 17.3744C44.3757 17.2958 44.4986 17.2095 44.6312 17.1161C44.7636 17.0227 44.9024 16.9276 45.0474 16.8313C45.1925 16.7346 45.3326 16.6405 45.4677 16.5491C45.6029 16.4576 45.7307 16.3731 45.8514 16.2955C45.9722 16.2181 46.0756 16.1516 46.1618 16.0958C46.2101 16.1028 46.2752 16.1217 46.3569 16.1531C46.4385 16.1846 46.5139 16.2258 46.5833 16.2768C46.6764 16.3453 46.7513 16.4222 46.808 16.5069C46.8647 16.5917 46.881 16.6725 46.8573 16.7497C46.8027 16.9352 46.7373 17.1469 46.661 17.3845C46.5847 17.6221 46.5046 17.866 46.4208 18.1164C46.3371 18.3671 46.2541 18.612 46.1723 18.8516C46.0904 19.0911 46.0165 19.306 45.9507 19.4955C45.9024 19.5054 45.8478 19.5029 45.7865 19.4886C45.7252 19.4743 45.6625 19.4435 45.5986 19.3964C45.5053 19.3279 45.4517 19.2626 45.4376 19.201C45.4235 19.1392 45.4322 19.0645 45.4639 18.977L45.6382 18.489Z" fill="#404041"/>
<path d="M49.5449 19.8256C49.4942 19.8683 49.4389 19.8912 49.3789 19.8943C49.3187 19.8976 49.2636 19.8899 49.2135 19.8717C49.2009 19.7697 49.1783 19.6632 49.1454 19.5525C49.1124 19.4416 49.0458 19.3268 48.9455 19.2083C48.7641 18.9934 48.55 18.8807 48.3033 18.8704C48.0565 18.8603 47.8018 18.966 47.5388 19.188C47.271 19.4143 47.1256 19.6497 47.1025 19.8941C47.0795 20.1386 47.1619 20.372 47.3497 20.5945C47.4479 20.7108 47.5485 20.7978 47.6516 20.856C47.7546 20.9139 47.8554 20.9575 47.954 20.9871C47.961 21.0416 47.9546 21.0967 47.9346 21.1527C47.9147 21.2086 47.8794 21.2577 47.8289 21.3003C47.7859 21.3368 47.7371 21.3585 47.6825 21.3656C47.6279 21.3727 47.5644 21.3614 47.4918 21.3318C47.4187 21.3067 47.33 21.2594 47.2256 21.1897C47.1211 21.1197 47.0113 21.0166 46.8962 20.8801C46.7553 20.7133 46.6492 20.5376 46.5778 20.3532C46.5066 20.1689 46.4761 19.9816 46.4863 19.7911C46.4965 19.6006 46.5518 19.4111 46.6523 19.2223C46.7527 19.0335 46.9053 18.8529 47.1101 18.6799C47.3071 18.5136 47.5065 18.3972 47.708 18.331C47.9096 18.2647 48.1059 18.2405 48.2969 18.259C48.4878 18.2775 48.669 18.3344 48.8406 18.43C49.012 18.5254 49.1639 18.6516 49.2962 18.8083C49.388 18.9167 49.4617 19.0235 49.5175 19.1279C49.5732 19.2324 49.6113 19.33 49.6319 19.421C49.6522 19.5119 49.6549 19.592 49.6398 19.661C49.6244 19.7302 49.5928 19.7852 49.5449 19.8256Z" fill="#404041"/>
<path d="M49.197 21.8745L48.0478 22.45C48.0257 22.4278 47.9987 22.394 47.9668 22.3489C47.935 22.3038 47.9049 22.2531 47.8768 22.1969C47.8205 22.0845 47.8009 21.9955 47.818 21.9297C47.8348 21.8637 47.8936 21.8058 47.9943 21.7552L50.4477 20.5267C50.4653 20.5475 50.4917 20.5815 50.5264 20.6288C50.5613 20.6761 50.5912 20.7249 50.6164 20.7752C50.6698 20.8816 50.6897 20.9696 50.6765 21.0393C50.6632 21.1088 50.6048 21.1695 50.5013 21.2212L49.5874 21.6789L51.2917 22.1572C51.3628 22.2991 51.3862 22.416 51.3619 22.5079C51.3376 22.5995 51.2869 22.6646 51.2101 22.7031C51.1479 22.7344 51.0847 22.7464 51.0203 22.7398C50.956 22.7334 50.8772 22.7144 50.7839 22.6834L49.6632 22.3068C49.542 22.656 49.432 22.9646 49.3332 23.2324C49.2341 23.5001 49.1588 23.7229 49.1072 23.9005C49.0081 23.9463 48.9159 23.9528 48.8309 23.9195C48.7459 23.8862 48.6818 23.8266 48.6388 23.7408C48.5959 23.655 48.5826 23.5713 48.5988 23.4892C48.6149 23.4069 48.6386 23.3231 48.6697 23.2371L49.197 21.8745Z" fill="#404041"/>
<path d="M27.1017 37.5459C27.0349 37.5947 26.9733 37.6183 26.9168 37.6166C26.8602 37.6149 26.7934 37.595 26.7165 37.557C26.6697 37.538 26.6187 37.5087 26.5634 37.4693C26.5079 37.4299 26.4512 37.383 26.3934 37.3291C26.3355 37.2751 26.2782 37.2177 26.2214 37.1568C26.1646 37.0959 26.1118 37.0321 26.0631 36.9653C25.9244 36.7755 25.8209 36.5818 25.7523 36.3842C25.6837 36.1866 25.6581 35.9901 25.6754 35.7952C25.6927 35.6003 25.7571 35.4108 25.8686 35.2271C25.9802 35.0431 26.1466 34.8703 26.3684 34.7084C26.5794 34.5541 26.7906 34.4521 27.002 34.4023C27.2133 34.3523 27.4158 34.3478 27.6095 34.3885C27.8031 34.4294 27.9849 34.5086 28.1548 34.6261C28.3246 34.7439 28.4759 34.8932 28.6087 35.0751C28.6964 35.1951 28.7659 35.3115 28.8172 35.4236C28.8683 35.5357 28.903 35.6392 28.9214 35.7346C28.9396 35.8297 28.939 35.913 28.9197 35.9845C28.9002 36.0562 28.8651 36.1104 28.8145 36.1474C28.761 36.1866 28.7035 36.206 28.6421 36.2058C28.5805 36.2058 28.5254 36.1947 28.4767 36.173C28.4713 36.0703 28.452 35.9554 28.4185 35.8285C28.385 35.7013 28.3156 35.5655 28.2103 35.4214C28.1244 35.3038 28.026 35.2096 27.9151 35.1392C27.8042 35.0687 27.6868 35.0243 27.563 35.0064C27.4392 34.9881 27.3092 34.9982 27.1731 35.0362C27.037 35.0741 26.9008 35.1429 26.7645 35.2422C26.6177 35.3496 26.5054 35.4622 26.4278 35.5805C26.3503 35.6986 26.3019 35.8189 26.2829 35.9414C26.2638 36.0638 26.2732 36.186 26.311 36.3078C26.3488 36.4298 26.4097 36.5481 26.4936 36.6629C26.5501 36.7405 26.6086 36.8063 26.6687 36.8608C26.729 36.915 26.7811 36.9527 26.8251 36.9739L27.382 36.5671L27.0074 36.0542C27.019 36.0251 27.0382 35.9926 27.0652 35.9566C27.0921 35.9206 27.1269 35.8871 27.1697 35.8558C27.2391 35.8051 27.3034 35.7836 27.3625 35.7918C27.4216 35.7996 27.4707 35.8304 27.5098 35.8839L28.0014 36.557C28.0502 36.6237 28.0701 36.6903 28.061 36.7564C28.0517 36.8224 28.0139 36.8798 27.9471 36.9286L27.1017 37.5459Z" fill="#404041"/>
<path d="M28.5111 39.5122C28.3579 39.3862 28.2385 39.2526 28.1529 39.1119C28.0674 38.971 28.0152 38.8275 27.9962 38.6814C27.9771 38.5353 27.9905 38.3901 28.0364 38.2457C28.0821 38.1013 28.1606 37.9616 28.272 37.826L29.5034 36.3269C29.5281 36.3387 29.5659 36.3589 29.6169 36.3881C29.6679 36.4171 29.7151 36.4496 29.7586 36.4854C29.8507 36.5608 29.9041 36.6327 29.9191 36.7005C29.9339 36.7683 29.9045 36.8472 29.8311 36.9366L28.7822 38.2131C28.65 38.3741 28.5933 38.5343 28.6126 38.6935C28.6315 38.8522 28.7101 38.9885 28.8483 39.1018C28.9863 39.2152 29.1351 39.266 29.295 39.2539C29.4547 39.2415 29.6008 39.1551 29.7331 38.9942L30.9488 37.5145C30.976 37.5284 31.0145 37.549 31.0643 37.5771C31.1139 37.6052 31.1605 37.637 31.204 37.6727C31.2961 37.7484 31.35 37.8206 31.3663 37.8896C31.3824 37.9583 31.3537 38.0377 31.2803 38.1272L30.2158 39.4227C30.1044 39.5583 29.9824 39.6622 29.8498 39.7352C29.717 39.8081 29.5765 39.849 29.4281 39.8577C29.2797 39.8663 29.1281 39.8424 28.9734 39.786C28.8186 39.7293 28.6645 39.6381 28.5111 39.5122Z" fill="#404041"/>
<path d="M32.6632 39.137C32.6008 39.1988 32.5318 39.2686 32.4562 39.3462C32.3807 39.4238 32.3019 39.5044 32.2199 39.5879C32.1378 39.6715 32.0543 39.7563 31.9694 39.8423C31.8845 39.9281 31.8021 40.0126 31.7222 40.0954L32.5013 40.4672L32.6856 39.1478L32.6632 39.137ZM32.3998 40.9796L31.3968 40.5008C31.3113 40.5956 31.2213 40.694 31.127 40.7955C31.0327 40.897 30.9551 40.9811 30.8943 41.0471C30.8587 41.0449 30.8216 41.04 30.783 41.0326C30.7443 41.0252 30.6997 41.0094 30.649 40.985C30.5474 40.9368 30.4779 40.8788 30.4405 40.8115C30.403 40.744 30.402 40.673 30.4377 40.5984C30.4548 40.5626 30.4767 40.5301 30.5036 40.5008C30.5303 40.4714 30.5618 40.4377 30.5982 40.4002C30.662 40.328 30.7421 40.2425 30.8387 40.1439C30.9353 40.0451 31.0398 39.9374 31.1524 39.8206C31.2648 39.7041 31.3832 39.5845 31.5075 39.4623C31.6318 39.3403 31.7517 39.2215 31.8671 39.1062C31.9826 38.9908 32.0922 38.8839 32.1962 38.7853C32.3002 38.6865 32.3892 38.6015 32.4634 38.5307C32.5122 38.5282 32.5796 38.5349 32.6657 38.5502C32.7518 38.5657 32.8337 38.5918 32.9113 38.6288C33.0158 38.6788 33.1037 38.74 33.1755 38.8124C33.247 38.8851 33.2784 38.9615 33.2696 39.0416C33.2509 39.2343 33.2265 39.4544 33.1963 39.7021C33.1661 39.9497 33.1333 40.2043 33.0983 40.4663C33.0631 40.728 33.0278 40.9843 32.9926 41.2349C32.9572 41.4856 32.9252 41.7103 32.8962 41.9092C32.8507 41.9277 32.7966 41.9358 32.7336 41.9331C32.6706 41.9306 32.6034 41.9124 32.5318 41.8782C32.4272 41.8283 32.3622 41.7744 32.3368 41.7165C32.3113 41.6583 32.3059 41.5834 32.3204 41.4914L32.3998 40.9796Z" fill="#404041"/>
<path d="M35.153 40.9632C35.3374 41.0021 35.4941 40.9932 35.6229 40.9358C35.7517 40.8786 35.8335 40.7675 35.8685 40.6024C35.9377 40.2756 35.754 40.0659 35.3172 39.9735C35.2524 39.9596 35.1894 39.9495 35.1282 39.9434C35.067 39.9372 35.0098 39.9318 34.9566 39.9273L34.755 40.8786L35.153 40.9632ZM34.4426 42.4001C34.4121 42.4004 34.3692 42.3997 34.3137 42.3982C34.2583 42.3964 34.1997 42.3891 34.1383 42.3759C34.0153 42.3501 33.9336 42.309 33.893 42.253C33.8525 42.1971 33.8435 42.1157 33.8662 42.009L34.3827 39.5725C34.3956 39.5109 34.4218 39.4675 34.4611 39.4419C34.5002 39.4165 34.551 39.4002 34.6134 39.3931C34.7245 39.3795 34.8521 39.3803 34.9958 39.3955C35.1396 39.4108 35.2861 39.4342 35.4349 39.4658C35.8621 39.5563 36.1637 39.7124 36.3399 39.934C36.516 40.1555 36.5712 40.4217 36.5054 40.7325C36.4622 40.9363 36.3712 41.1022 36.2326 41.23C36.0939 41.3577 35.9221 41.4422 35.7173 41.4834C35.8206 41.698 35.9201 41.9026 36.0159 42.097C36.1115 42.2915 36.1817 42.4423 36.2267 42.55C36.1828 42.6286 36.1237 42.6846 36.049 42.7178C35.9744 42.7508 35.8982 42.7592 35.8206 42.7429C35.7203 42.7215 35.6482 42.6825 35.6044 42.6259C35.5606 42.5694 35.521 42.4967 35.4858 42.408L35.1112 41.4715L34.6597 41.3759L34.4426 42.4001Z" fill="#404041"/>
<path d="M38.3266 40.3329C38.2992 40.4164 38.2695 40.5099 38.2376 40.6134C38.2056 40.7166 38.1721 40.8243 38.1371 40.9362C38.1021 41.0481 38.0664 41.1614 38.0298 41.2765C37.9932 41.3919 37.9582 41.5045 37.9248 41.6144L38.7879 41.591L38.3514 40.3322L38.3266 40.3329ZM38.9306 42.0932L37.8196 42.1235C37.7866 42.247 37.7512 42.3754 37.7135 42.5087C37.6757 42.6421 37.6449 42.7522 37.6207 42.8389C37.5881 42.853 37.5528 42.8656 37.5152 42.8764C37.4773 42.8875 37.4304 42.8936 37.3742 42.8952C37.2617 42.8984 37.1734 42.8784 37.1095 42.8355C37.0454 42.7926 37.0123 42.7298 37.0099 42.647C37.0089 42.6073 37.0136 42.5684 37.0241 42.5302C37.0347 42.4917 37.0475 42.4476 37.0627 42.3976C37.0866 42.3041 37.1191 42.1915 37.1603 42.0597C37.2013 41.9279 37.2453 41.7845 37.2924 41.6292C37.3394 41.4742 37.3906 41.314 37.4455 41.1486C37.5006 40.9833 37.5533 40.8231 37.6037 40.6678C37.654 40.5126 37.7029 40.3672 37.7506 40.2319C37.7982 40.0966 37.8388 39.9805 37.8726 39.8836C37.9149 39.8593 37.9781 39.8344 38.0617 39.809C38.1454 39.7836 38.2301 39.7695 38.3162 39.7673C38.4319 39.7641 38.5381 39.7786 38.6351 39.8107C38.7318 39.8427 38.7945 39.8965 38.8231 39.9719C38.8942 40.152 38.9727 40.359 39.0584 40.5934C39.1442 40.8275 39.2311 41.0693 39.3189 41.3184C39.4068 41.5673 39.492 41.8116 39.5747 42.0508C39.6574 42.2901 39.7311 42.505 39.7958 42.695C39.7638 42.7325 39.719 42.7643 39.662 42.7906C39.6047 42.8171 39.5366 42.8313 39.4572 42.8333C39.3414 42.8365 39.2589 42.818 39.2099 42.7781C39.1609 42.7381 39.1219 42.6738 39.093 42.5851L38.9306 42.0932Z" fill="#404041"/>
<path d="M41.1279 42.5566C41.0101 42.5899 40.9212 42.5916 40.8613 42.5623C40.8015 42.5327 40.7571 42.4672 40.7284 42.3651L40.0098 39.8201C40.0322 39.7657 40.074 39.7161 40.1354 39.6713C40.1966 39.6265 40.2685 39.5925 40.3513 39.569C40.4499 39.5412 40.5434 39.5338 40.6312 39.5466C40.719 39.5596 40.808 39.6102 40.8982 39.6982L41.935 40.7406C42.0311 40.8375 42.1257 40.9387 42.2194 41.0444C42.3128 41.1504 42.3962 41.248 42.4695 41.3375L42.4873 41.3271C42.4184 41.144 42.3565 40.9646 42.3019 40.7892C42.2472 40.6139 42.1956 40.4402 42.1471 40.2684L41.8411 39.1844C41.8647 39.1711 41.9017 39.1528 41.952 39.1299C42.0022 39.1072 42.0544 39.0882 42.1086 39.0729C42.2262 39.0396 42.316 39.0374 42.3774 39.0665C42.439 39.0956 42.4841 39.1609 42.5128 39.2629L43.2408 41.8414C43.2157 41.8863 43.1732 41.9275 43.1133 41.9652C43.0535 42.0026 42.9789 42.0339 42.8898 42.059C42.7943 42.0862 42.7029 42.0938 42.6155 42.0824C42.528 42.0711 42.4392 42.0214 42.3491 41.9333L41.3123 40.8907C41.2171 40.7972 41.1225 40.696 41.0281 40.5868C40.9336 40.4779 40.8498 40.3786 40.7765 40.2894L40.7491 40.3022C40.8144 40.4727 40.8757 40.6496 40.9326 40.833C40.9894 41.0164 41.0413 41.1908 41.088 41.3562L41.394 42.4403C41.3702 42.4536 41.3344 42.4726 41.2862 42.4965C41.2379 42.5204 41.1852 42.5403 41.1279 42.5566Z" fill="#404041"/>
<path d="M44.8791 37.8057C44.914 37.8374 44.9444 37.8764 44.9703 37.9225C45.014 38.0003 45.0292 38.0696 45.0158 38.1302C45.0025 38.1908 44.964 38.2389 44.9005 38.2746L44.3035 38.6098L45.5181 40.7728C45.4983 40.7915 45.4662 40.8188 45.4221 40.8551C45.3779 40.8913 45.33 40.9241 45.278 40.9532C45.1683 41.0148 45.0791 41.0382 45.0104 41.0236C44.9416 41.0094 44.8804 40.9544 44.827 40.8593L43.7412 38.9255L43.0144 39.3336C42.9853 39.3156 42.9539 39.2917 42.9198 39.2613C42.8858 39.2313 42.8558 39.1931 42.8299 39.1468C42.7846 39.0662 42.769 38.9962 42.7831 38.937C42.7973 38.8779 42.8362 38.8303 42.8997 38.7951L44.7858 37.7359C44.8132 37.7509 44.8444 37.7741 44.8791 37.8057Z" fill="#404041"/>
<path d="M47.0759 39.6431C46.9885 39.6365 46.9099 39.5931 46.84 39.5135L45.3013 37.7616C45.2315 37.6819 45.1993 37.5991 45.205 37.5126C45.2105 37.4264 45.2532 37.3482 45.3327 37.2782L46.5668 36.1947C46.5967 36.2038 46.6308 36.2201 46.6691 36.2435C46.7074 36.2671 46.744 36.2989 46.779 36.3386C46.8357 36.4031 46.8644 36.466 46.8651 36.5269C46.8658 36.588 46.8401 36.6415 46.788 36.6873L45.8857 37.4794L46.3506 38.009L47.2603 37.21C47.2902 37.2192 47.3243 37.2341 47.3628 37.2554C47.4014 37.2768 47.438 37.3071 47.4728 37.347C47.5908 37.4811 47.5925 37.5984 47.4782 37.6989L46.6878 38.3929L47.1953 38.9706L48.2316 38.0607C48.2616 38.0698 48.2968 38.0861 48.3375 38.1098C48.3781 38.1334 48.416 38.1652 48.4508 38.2049C48.5688 38.3392 48.5705 38.4565 48.4562 38.557L47.3264 39.5488C47.2469 39.6185 47.1634 39.65 47.0759 39.6431Z" fill="#404041"/>
<path d="M49.3026 37.4993C49.2157 37.5109 49.1298 37.4847 49.045 37.4214L47.1775 36.0246C47.0927 35.9613 47.0441 35.8868 47.0318 35.8011C47.0195 35.7155 47.0449 35.6303 47.1083 35.5455L48.092 34.2303C48.1231 34.2329 48.1598 34.2418 48.2022 34.2569C48.2444 34.2721 48.2869 34.2956 48.3292 34.3271C48.3982 34.3786 48.4392 34.4341 48.4525 34.4937C48.4658 34.5533 48.4517 34.6107 48.41 34.6664L47.6909 35.6281L48.2551 36.0499L48.9803 35.0805C49.0114 35.0832 49.048 35.0908 49.09 35.1036C49.132 35.1164 49.1742 35.1386 49.2166 35.1704C49.3596 35.2774 49.3856 35.3917 49.2944 35.5137L48.6645 36.356L49.2803 36.8166L50.1064 35.7121C50.1375 35.7146 50.1754 35.7234 50.2201 35.7382C50.2648 35.753 50.3084 35.7762 50.3508 35.8079C50.4938 35.9149 50.5197 36.0293 50.4286 36.1513L49.5281 37.3551C49.4648 37.4399 49.3896 37.4879 49.3026 37.4993Z" fill="#404041"/>
<path d="M33.156 27.3982L34.3722 27.2509C34.4109 27.5609 34.5152 27.7977 34.6852 27.9616C34.8551 28.1257 35.0608 28.2075 35.3021 28.2075C35.5615 28.2075 35.7798 28.1093 35.9572 27.9126C36.1345 27.716 36.2232 27.4505 36.2232 27.1166C36.2232 26.8006 36.1383 26.5503 35.9684 26.3654C35.7985 26.1806 35.5912 26.0882 35.3469 26.0882C35.186 26.0882 34.9937 26.1195 34.7701 26.1821L34.9087 25.1583C35.2485 25.1673 35.5079 25.0936 35.6867 24.937C35.8655 24.7806 35.955 24.5726 35.955 24.3133C35.955 24.0928 35.8894 23.9168 35.7583 23.7857C35.6271 23.6546 35.4527 23.5888 35.2351 23.5888C35.0204 23.5888 34.8372 23.6635 34.6852 23.8126C34.5331 23.9617 34.4407 24.179 34.4079 24.4654L33.2499 24.2685C33.3304 23.8722 33.4519 23.5553 33.6143 23.3185C33.7768 23.0814 34.0033 22.8951 34.2939 22.7595C34.5845 22.624 34.9102 22.556 35.2708 22.556C35.8879 22.556 36.3826 22.7529 36.7553 23.1462C37.0623 23.4683 37.2159 23.8318 37.2159 24.2372C37.2159 24.8126 36.9013 25.2717 36.2724 25.6143C36.6479 25.6949 36.9482 25.8753 37.1734 26.1555C37.3983 26.4357 37.511 26.774 37.511 27.1703C37.511 27.7457 37.3008 28.2359 36.8805 28.6413C36.4601 29.0467 35.9371 29.2495 35.3111 29.2495C34.7179 29.2495 34.2261 29.0787 33.8357 28.7374C33.4451 28.3961 33.2186 27.9498 33.156 27.3982Z" fill="white"/>
<path d="M40.4173 23.5979C40.2653 23.5979 40.1296 23.6464 40.0105 23.7431C39.8912 23.8401 39.7988 24.0137 39.7332 24.264C39.6467 24.5891 39.6036 25.1359 39.6036 25.9051C39.6036 26.674 39.6423 27.2023 39.7198 27.4899C39.7973 27.7778 39.8949 27.9693 40.0127 28.0646C40.1303 28.16 40.2653 28.2075 40.4173 28.2075C40.5694 28.2075 40.7049 28.1593 40.8242 28.0624C40.9434 27.9656 41.0358 27.7918 41.1015 27.5414C41.1878 27.2196 41.2311 26.674 41.2311 25.9051C41.2311 25.1359 41.1922 24.6076 41.1148 24.32C41.0373 24.0324 40.9397 23.8401 40.822 23.7431C40.7042 23.6464 40.5694 23.5979 40.4173 23.5979ZM40.4173 22.556C41.0521 22.556 41.5485 22.7827 41.9062 23.2356C42.3324 23.7722 42.5456 24.662 42.5456 25.9051C42.5456 27.1449 42.3309 28.0363 41.9018 28.5787C41.547 29.0257 41.0521 29.2495 40.4173 29.2495C39.7795 29.2495 39.2652 29.0043 38.8747 28.5139C38.4843 28.0237 38.2891 27.1496 38.2891 25.8915C38.2891 24.6576 38.5036 23.7692 38.9329 23.2268C39.2875 22.7797 39.7823 22.556 40.4173 22.556Z" fill="white"/>
<path d="M33.8727 32.9622H34.5825C34.8016 32.9622 34.9736 32.9417 35.0983 32.9011C35.223 32.8602 35.3224 32.8028 35.3965 32.7288C35.5008 32.6243 35.582 32.4843 35.6402 32.3081C35.6984 32.1319 35.7275 31.9185 35.7275 31.6676C35.7275 31.3199 35.6704 31.0528 35.5563 30.866C35.4422 30.6794 35.3035 30.5542 35.1403 30.4909C35.0224 30.4455 34.8326 30.4229 34.5712 30.4229H33.8727V32.9622ZM33.4329 33.3545V30.0306H34.578C34.8365 30.0306 35.0337 30.0463 35.1697 30.0781C35.3601 30.122 35.5227 30.2013 35.6572 30.3162C35.8326 30.4642 35.9637 30.6538 36.0507 30.8842C36.1376 31.1146 36.181 31.3781 36.181 31.6743C36.181 31.9269 36.1515 32.1504 36.0926 32.3456C36.0337 32.5405 35.958 32.702 35.8658 32.8296C35.7737 32.9572 35.6728 33.0578 35.5631 33.1312C35.4535 33.2044 35.3212 33.2601 35.1663 33.2978C35.0115 33.3355 34.8334 33.3545 34.6324 33.3545H33.4329Z" fill="white"/>
<path d="M37.3803 31.9895H38.5071L38.1603 31.069C38.0544 30.7893 37.9758 30.5596 37.9245 30.3797C37.882 30.5929 37.8224 30.8044 37.7453 31.0145L37.3803 31.9895ZM36.4211 33.3545L37.6977 30.0306H38.1716L39.532 33.3545H39.0309L38.6432 32.3478H37.2533L36.8881 33.3545H36.4211Z" fill="white"/>
<path d="M40.4757 33.3545V31.9463L39.1946 30.0306H39.7297L40.385 31.0328C40.5058 31.2201 40.6185 31.4076 40.7229 31.5949C40.8226 31.4212 40.9435 31.2255 41.0856 31.0077L41.7296 30.0306H42.242L40.9156 31.9463V33.3545H40.4757Z" fill="white"/>
<path d="M24.9789 26.7106L25.3566 27.8731H26.5789L25.5902 28.5914L25.9677 29.7539L24.9789 29.0355L23.9901 29.7539L24.3677 28.5914L23.3789 27.8731H24.6013L24.9789 26.7106Z" fill="#231F20"/>
<path d="M25.2096 26.7977L25.556 27.8635H26.6768L25.7701 28.5225L26.1164 29.5884L25.2096 28.9296L24.3029 29.5884L24.6491 28.5225L23.7424 27.8635H24.8632L25.2096 26.7977Z" fill="#26A9E0"/>
<path d="M51.1659 26.7106L51.5436 27.8731H52.7659L51.7771 28.5914L52.1549 29.7539L51.1659 29.0355L50.1771 29.7539L50.5546 28.5914L49.5659 27.8731H50.7883L51.1659 26.7106Z" fill="#231F20"/>
<path d="M51.397 26.7977L51.7435 27.8635H52.8643L51.9574 28.5225L52.3039 29.5884L51.397 28.9296L50.4901 29.5884L50.8365 28.5225L49.9297 27.8635H51.0507L51.397 26.7977Z" fill="#26A9E0"/>
<path d="M1.83008 62.4688H3.14258L5.60938 69.0488L8.07031 62.4688H9.38281L6.125 71H5.08203L1.83008 62.4688ZM1.23242 62.4688H2.48047L2.69727 68.1641V71H1.23242V62.4688ZM8.73242 62.4688H9.98633V71H8.51562V68.1641L8.73242 62.4688ZM18.5352 66.5V66.9688C18.5352 67.6133 18.4512 68.1914 18.2832 68.7031C18.1152 69.2148 17.875 69.6504 17.5625 70.0098C17.2539 70.3691 16.8828 70.6445 16.4492 70.8359C16.0156 71.0234 15.5352 71.1172 15.0078 71.1172C14.4844 71.1172 14.0059 71.0234 13.5723 70.8359C13.1426 70.6445 12.7695 70.3691 12.4531 70.0098C12.1367 69.6504 11.8906 69.2148 11.7148 68.7031C11.543 68.1914 11.457 67.6133 11.457 66.9688V66.5C11.457 65.8555 11.543 65.2793 11.7148 64.7715C11.8867 64.2598 12.1289 63.8242 12.4414 63.4648C12.7578 63.1016 13.1309 62.8262 13.5605 62.6387C13.9941 62.4473 14.4727 62.3516 14.9961 62.3516C15.5234 62.3516 16.0039 62.4473 16.4375 62.6387C16.8711 62.8262 17.2441 63.1016 17.5566 63.4648C17.8691 63.8242 18.1094 64.2598 18.2773 64.7715C18.4492 65.2793 18.5352 65.8555 18.5352 66.5ZM17.0645 66.9688V66.4883C17.0645 66.0117 17.0176 65.5918 16.9238 65.2285C16.834 64.8613 16.6992 64.5547 16.5195 64.3086C16.3438 64.0586 16.127 63.8711 15.8691 63.7461C15.6113 63.6172 15.3203 63.5527 14.9961 63.5527C14.6719 63.5527 14.3828 63.6172 14.1289 63.7461C13.875 63.8711 13.6582 64.0586 13.4785 64.3086C13.3027 64.5547 13.168 64.8613 13.0742 65.2285C12.9805 65.5918 12.9336 66.0117 12.9336 66.4883V66.9688C12.9336 67.4453 12.9805 67.8672 13.0742 68.2344C13.168 68.6016 13.3047 68.9121 13.4844 69.166C13.668 69.416 13.8867 69.6055 14.1406 69.7344C14.3945 69.8594 14.6836 69.9219 15.0078 69.9219C15.3359 69.9219 15.627 69.8594 15.8809 69.7344C16.1348 69.6055 16.3496 69.416 16.5254 69.166C16.7012 68.9121 16.834 68.6016 16.9238 68.2344C17.0176 67.8672 17.0645 67.4453 17.0645 66.9688ZM26.7734 62.4688V71H25.3027L21.4766 64.8887V71H20.0059V62.4688H21.4766L25.3145 68.5918V62.4688H26.7734ZM34.1094 69.834V71H29.5801V69.834H34.1094ZM29.9961 62.4688V71H28.5254V62.4688H29.9961ZM33.5176 66.0312V67.1797H29.5801V66.0312H33.5176ZM34.0801 62.4688V63.6406H29.5801V62.4688H34.0801ZM36.125 62.4688L38.1055 66.541L40.0859 62.4688H41.7148L38.8438 67.8594V71H37.3613V67.8594L34.4902 62.4688H36.125ZM48.834 67.1445H46.6602L46.6484 66.0723H48.5469C48.8672 66.0723 49.1387 66.0254 49.3613 65.9316C49.5879 65.834 49.7598 65.6953 49.877 65.5156C49.9941 65.332 50.0527 65.1113 50.0527 64.8535C50.0527 64.5684 49.998 64.3359 49.8887 64.1562C49.7793 63.9766 49.6113 63.8457 49.3848 63.7637C49.1621 63.6816 48.877 63.6406 48.5293 63.6406H47.1055V71H45.6348V62.4688H48.5293C48.998 62.4688 49.416 62.5137 49.7832 62.6035C50.1543 62.6934 50.4688 62.834 50.7266 63.0254C50.9883 63.2129 51.1855 63.4512 51.3184 63.7402C51.4551 64.0293 51.5234 64.373 51.5234 64.7715C51.5234 65.123 51.4395 65.4453 51.2715 65.7383C51.1035 66.0273 50.8555 66.2637 50.5273 66.4473C50.1992 66.6309 49.791 66.7402 49.3027 66.7754L48.834 67.1445ZM48.7695 71H46.1973L46.8594 69.834H48.7695C49.1016 69.834 49.3789 69.7793 49.6016 69.6699C49.8242 69.5566 49.9902 69.4023 50.0996 69.207C50.2129 69.0078 50.2695 68.7754 50.2695 68.5098C50.2695 68.2324 50.2207 67.9922 50.123 67.7891C50.0254 67.582 49.8711 67.4238 49.6602 67.3145C49.4492 67.2012 49.1738 67.1445 48.834 67.1445H47.1816L47.1934 66.0723H49.3438L49.6777 66.4766C50.1465 66.4922 50.5312 66.5957 50.832 66.7871C51.1367 66.9785 51.3633 67.2266 51.5117 67.5312C51.6602 67.8359 51.7344 68.1641 51.7344 68.5156C51.7344 69.0586 51.6152 69.5137 51.377 69.8809C51.1426 70.248 50.8047 70.5273 50.3633 70.7188C49.9219 70.9062 49.3906 71 48.7695 71ZM56.5391 63.6055L53.9902 71H52.4492L55.6602 62.4688H56.6445L56.5391 63.6055ZM58.6719 71L56.1172 63.6055L56.0059 62.4688H56.9961L60.2188 71H58.6719ZM58.5488 67.8359V69.002H53.9082V67.8359H58.5488ZM66.1191 68.2227H67.584C67.5371 68.7812 67.3809 69.2793 67.1152 69.7168C66.8496 70.1504 66.4766 70.4922 65.9961 70.7422C65.5156 70.9922 64.9316 71.1172 64.2441 71.1172C63.7168 71.1172 63.2422 71.0234 62.8203 70.8359C62.3984 70.6445 62.0371 70.375 61.7363 70.0273C61.4355 69.6758 61.2051 69.252 61.0449 68.7559C60.8887 68.2598 60.8105 67.7051 60.8105 67.0918V66.3828C60.8105 65.7695 60.8906 65.2148 61.0508 64.7188C61.2148 64.2227 61.4492 63.7988 61.7539 63.4473C62.0586 63.0918 62.4238 62.8203 62.8496 62.6328C63.2793 62.4453 63.7617 62.3516 64.2969 62.3516C64.9766 62.3516 65.5508 62.4766 66.0195 62.7266C66.4883 62.9766 66.8516 63.3223 67.1094 63.7637C67.3711 64.2051 67.5312 64.7109 67.5898 65.2812H66.125C66.0859 64.9141 66 64.5996 65.8672 64.3379C65.7383 64.0762 65.5469 63.877 65.293 63.7402C65.0391 63.5996 64.707 63.5293 64.2969 63.5293C63.9609 63.5293 63.668 63.5918 63.418 63.7168C63.168 63.8418 62.959 64.0254 62.791 64.2676C62.623 64.5098 62.4961 64.8086 62.4102 65.1641C62.3281 65.5156 62.2871 65.918 62.2871 66.3711V67.0918C62.2871 67.5215 62.3242 67.9121 62.3984 68.2637C62.4766 68.6113 62.5938 68.9102 62.75 69.1602C62.9102 69.4102 63.1133 69.6035 63.3594 69.7402C63.6055 69.877 63.9004 69.9453 64.2441 69.9453C64.6621 69.9453 65 69.8789 65.2578 69.7461C65.5195 69.6133 65.7168 69.4199 65.8496 69.166C65.9863 68.9082 66.0762 68.5938 66.1191 68.2227ZM70.3906 62.4688V71H68.9199V62.4688H70.3906ZM75.5176 62.4688L72.0605 66.5762L70.0918 68.6621L69.834 67.2031L71.2402 65.4688L73.7246 62.4688H75.5176ZM73.9355 71L71.1289 66.957L72.1426 65.9551L75.6816 71H73.9355ZM11.1172 80.6406V83.8984C10.9961 84.0586 10.8066 84.2344 10.5488 84.4258C10.2949 84.6133 9.95703 84.7754 9.53516 84.9121C9.11328 85.0488 8.58789 85.1172 7.95898 85.1172C7.42383 85.1172 6.93359 85.0273 6.48828 84.8477C6.04297 84.6641 5.6582 84.3965 5.33398 84.0449C5.01367 83.6934 4.76562 83.2656 4.58984 82.7617C4.41406 82.2539 4.32617 81.6758 4.32617 81.0273V80.4355C4.32617 79.791 4.40625 79.2168 4.56641 78.7129C4.73047 78.2051 4.96484 77.7754 5.26953 77.4238C5.57422 77.0723 5.94141 76.8066 6.37109 76.627C6.80469 76.4434 7.29492 76.3516 7.8418 76.3516C8.54102 76.3516 9.11914 76.4688 9.57617 76.7031C10.0371 76.9336 10.3926 77.2539 10.6426 77.6641C10.8926 78.0742 11.0508 78.543 11.1172 79.0703H9.67578C9.62891 78.7734 9.53711 78.5078 9.40039 78.2734C9.26758 78.0391 9.07617 77.8555 8.82617 77.7227C8.58008 77.5859 8.25977 77.5176 7.86523 77.5176C7.52539 77.5176 7.22656 77.582 6.96875 77.7109C6.71094 77.8398 6.49609 78.0293 6.32422 78.2793C6.15625 78.5293 6.0293 78.834 5.94336 79.1934C5.85742 79.5527 5.81445 79.9629 5.81445 80.4238V81.0273C5.81445 81.4961 5.86328 81.9121 5.96094 82.2754C6.0625 82.6387 6.20703 82.9453 6.39453 83.1953C6.58594 83.4453 6.81836 83.6348 7.0918 83.7637C7.36523 83.8887 7.67383 83.9512 8.01758 83.9512C8.35352 83.9512 8.62891 83.9238 8.84375 83.8691C9.05859 83.8105 9.22852 83.7422 9.35352 83.6641C9.48242 83.582 9.58203 83.5039 9.65234 83.4297V81.7363H7.87695V80.6406H11.1172ZM17.5332 76.4688H18.998V82.1699C18.998 82.8184 18.8574 83.3613 18.5762 83.7988C18.2949 84.2363 17.9121 84.5664 17.4277 84.7891C16.9473 85.0078 16.4102 85.1172 15.8164 85.1172C15.2031 85.1172 14.6562 85.0078 14.1758 84.7891C13.6953 84.5664 13.3164 84.2363 13.0391 83.7988C12.7656 83.3613 12.6289 82.8184 12.6289 82.1699V76.4688H14.0938V82.1699C14.0938 82.5801 14.1641 82.918 14.3047 83.1836C14.4453 83.4453 14.6445 83.6387 14.9023 83.7637C15.1602 83.8887 15.4648 83.9512 15.8164 83.9512C16.168 83.9512 16.4707 83.8887 16.7246 83.7637C16.9824 83.6387 17.1816 83.4453 17.3223 83.1836C17.4629 82.918 17.5332 82.5801 17.5332 82.1699V76.4688ZM23.791 77.6055L21.2422 85H19.7012L22.9121 76.4688H23.8965L23.791 77.6055ZM25.9238 85L23.3691 77.6055L23.2578 76.4688H24.248L27.4707 85H25.9238ZM25.8008 81.8359V83.002H21.1602V81.8359H25.8008ZM28.4258 76.4688H31.4434C32.0918 76.4688 32.6445 76.5664 33.1016 76.7617C33.5586 76.957 33.9082 77.2461 34.1504 77.6289C34.3965 78.0078 34.5195 78.4766 34.5195 79.0352C34.5195 79.4609 34.4414 79.8359 34.2852 80.1602C34.1289 80.4844 33.9082 80.7578 33.623 80.9805C33.3379 81.1992 32.998 81.3691 32.6035 81.4902L32.1582 81.707H29.4453L29.4336 80.541H31.4668C31.8184 80.541 32.1113 80.4785 32.3457 80.3535C32.5801 80.2285 32.7559 80.0586 32.873 79.8438C32.9941 79.625 33.0547 79.3789 33.0547 79.1055C33.0547 78.8086 32.9961 78.5508 32.8789 78.332C32.7656 78.1094 32.5898 77.9395 32.3516 77.8223C32.1133 77.7012 31.8105 77.6406 31.4434 77.6406H29.8965V85H28.4258V76.4688ZM33.2949 85L31.291 81.168L32.832 81.1621L34.8652 84.9238V85H33.2949ZM39.3066 77.6055L36.7578 85H35.2168L38.4277 76.4688H39.4121L39.3066 77.6055ZM41.4395 85L38.8848 77.6055L38.7734 76.4688H39.7637L42.9863 85H41.4395ZM41.3164 81.8359V83.002H36.6758V81.8359H41.3164ZM50.709 76.4688V85H49.2383L45.4121 78.8887V85H43.9414V76.4688H45.4121L49.25 82.5918V76.4688H50.709ZM55.7949 76.4688V85H54.3359V76.4688H55.7949ZM58.4727 76.4688V77.6406H51.6816V76.4688H58.4727ZM65.1816 83.834V85H60.6523V83.834H65.1816ZM61.0684 76.4688V85H59.5977V76.4688H61.0684ZM64.5898 80.0312V81.1797H60.6523V80.0312H64.5898ZM65.1523 76.4688V77.6406H60.6523V76.4688H65.1523ZM71.9668 83.834V85H67.4375V83.834H71.9668ZM67.8535 76.4688V85H66.3828V76.4688H67.8535ZM71.375 80.0312V81.1797H67.4375V80.0312H71.375ZM71.9375 76.4688V77.6406H67.4375V76.4688H71.9375Z" fill="#0D415F"/>
<defs>
<linearGradient id="paint0_linear_190_1417" x1="17.3696" y1="27.9934" x2="58.635" y2="27.9934" gradientUnits="userSpaceOnUse">
<stop stop-color="#BB812B"/>
<stop offset="0.0273858" stop-color="#BB812B"/>
<stop offset="0.317043" stop-color="#FFF4A8"/>
<stop offset="0.322581" stop-color="#FFF4A8"/>
<stop offset="0.5" stop-color="#F5E395"/>
<stop offset="0.741936" stop-color="#CFA34B"/>
<stop offset="0.984052" stop-color="#F0DB81"/>
<stop offset="1" stop-color="#F0DB81"/>
</linearGradient>
<linearGradient id="paint1_linear_190_1417" x1="21.1872" y1="39.9263" x2="54.8179" y2="16.0607" gradientUnits="userSpaceOnUse">
<stop stop-color="#BB812B"/>
<stop offset="0.0273858" stop-color="#BB812B"/>
<stop offset="0.491133" stop-color="#F5E395"/>
<stop offset="0.5" stop-color="#F5E395"/>
<stop offset="0.741936" stop-color="#CFA34B"/>
<stop offset="0.984052" stop-color="#F0DB81"/>
<stop offset="1" stop-color="#F0DB81"/>
</linearGradient>
</defs>
</svg>
