<svg width="75" height="74" viewBox="0 0 75 74" fill="none" xmlns="http://www.w3.org/2000/svg">
<g clip-path="url(#clip0_190_1420)">
<path d="M65.5 45.3048C65.5 45.9533 64.9694 46.4838 64.3212 46.4838H10.679C10.0305 46.4837 9.5 45.9532 9.5 45.3048V10.6951C9.5 10.0467 10.0305 9.51611 10.679 9.51611H64.3212C64.9695 9.51611 65.5 10.0467 65.5 10.6951V45.3048Z" fill="#FFF7EE"/>
<path d="M64.3212 9.51611H32.4001V13.0717H65.5001V10.695C65.5001 10.0466 64.9694 9.51611 64.3212 9.51611Z" fill="#E02424"/>
<path d="M32.4 22.8809V25.0993C32.4 25.8348 31.802 26.4364 31.071 26.4364H65.5V22.881H32.4V22.8809Z" fill="#E02424"/>
<path d="M65.5 29.5635H9.5V33.1189H65.5V29.5635Z" fill="#E02424"/>
<path opacity="0.1" d="M13.0958 29.5635H9.5V33.1189H13.0958V29.5635Z" fill="black"/>
<path d="M65.5 36.2456H9.5V39.8011H65.5V36.2456Z" fill="#E02424"/>
<path d="M65.5 45.3048V42.9282H9.5V45.3048C9.5 45.9533 10.0305 46.4838 10.679 46.4838H64.3212C64.9693 46.4837 65.5 45.9532 65.5 45.3048Z" fill="#E02424"/>
<path d="M65.4988 16.1987H32.3994V19.7542H65.4988V16.1987Z" fill="#E02424"/>
<path d="M10.679 9.51611C10.0305 9.51611 9.5 10.0466 9.5 10.695V26.4363H32.3283C33.0593 26.4363 33.6572 25.8346 33.6572 25.0992V9.51611H10.679Z" fill="#0853A4"/>
<path opacity="0.1" d="M14.3926 9.51611H10.679C10.0305 9.51611 9.5 10.0466 9.5 10.695V26.4363H13.2137V10.695C13.2137 10.0466 13.7442 9.51611 14.3926 9.51611Z" fill="black"/>
<path d="M14.7187 14.228C14.6921 14.228 14.665 14.2218 14.6402 14.2082L14.3188 14.0351L13.9974 14.2082C13.9727 14.2217 13.9458 14.228 13.919 14.228C13.884 14.228 13.8491 14.2171 13.8195 14.1951C13.7677 14.1565 13.7416 14.091 13.7526 14.0262L13.8139 13.6593L13.5539 13.3997C13.5079 13.3537 13.4913 13.285 13.5112 13.2224C13.531 13.1598 13.5838 13.1142 13.6476 13.1048L14.0068 13.0513L14.1677 12.7176C14.1961 12.6585 14.2547 12.6211 14.319 12.6211C14.3832 12.6211 14.4419 12.6585 14.4702 12.7176L14.631 13.0513L14.9903 13.1048C15.054 13.1143 15.1067 13.1598 15.1266 13.2224C15.1465 13.285 15.1299 13.3537 15.0837 13.3997L14.8238 13.6593L14.8851 14.0262C14.8961 14.091 14.87 14.1565 14.8182 14.1951C14.7888 14.217 14.7538 14.228 14.7187 14.228Z" fill="white"/>
<path d="M14.7187 17.2273C14.6921 17.2273 14.665 17.2212 14.6402 17.2075L14.3188 17.0343L13.9974 17.2075C13.9727 17.2211 13.9458 17.2273 13.919 17.2273C13.884 17.2273 13.8491 17.2164 13.8195 17.1944C13.7677 17.1558 13.7416 17.0903 13.7526 17.0253L13.8139 16.6586L13.5539 16.3989C13.5079 16.3532 13.4913 16.2842 13.5112 16.2217C13.531 16.1592 13.5838 16.1137 13.6476 16.1039L14.0068 16.0506L14.1677 15.7169C14.1961 15.6579 14.2547 15.6206 14.319 15.6206C14.3832 15.6206 14.4419 15.6579 14.4702 15.7169L14.631 16.0506L14.9903 16.1039C15.054 16.1137 15.1067 16.1592 15.1266 16.2217C15.1465 16.2842 15.1299 16.3532 15.0837 16.3989L14.8238 16.6586L14.8851 17.0253C14.8961 17.0904 14.87 17.1557 14.8182 17.1944C14.7888 17.2165 14.7538 17.2273 14.7187 17.2273Z" fill="white"/>
<path d="M14.7187 20.2262C14.6921 20.2262 14.665 20.2198 14.6402 20.2064L14.3188 20.0334L13.9974 20.2064C13.9727 20.2199 13.9458 20.2262 13.919 20.2262C13.884 20.2262 13.8491 20.2152 13.8195 20.1933C13.7677 20.1546 13.7416 20.0891 13.7526 20.0244L13.8139 19.6576L13.5539 19.3982C13.5079 19.352 13.4913 19.2831 13.5112 19.2206C13.531 19.1581 13.5838 19.1124 13.6476 19.1028L14.0068 19.0495L14.1677 18.7158C14.1961 18.6569 14.2547 18.6196 14.319 18.6196C14.3832 18.6196 14.4419 18.6569 14.4702 18.7158L14.631 19.0495L14.9903 19.1028C15.054 19.1125 15.1067 19.1582 15.1266 19.2206C15.1465 19.2831 15.1299 19.352 15.0837 19.3982L14.8238 19.6576L14.8851 20.0244C14.8961 20.0891 14.87 20.1546 14.8182 20.1933C14.7888 20.2152 14.7538 20.2262 14.7187 20.2262Z" fill="white"/>
<path d="M14.7187 23.2255C14.6921 23.2255 14.665 23.219 14.6402 23.2057L14.3188 23.0324L13.9974 23.2057C13.9727 23.2191 13.9458 23.2255 13.919 23.2255C13.884 23.2255 13.8491 23.2145 13.8195 23.1925C13.7677 23.1538 13.7416 23.0882 13.7526 23.0235L13.8139 22.6568L13.5539 22.3972C13.5079 22.3512 13.4913 22.2823 13.5112 22.2198C13.531 22.1572 13.5838 22.1115 13.6476 22.102L14.0068 22.0486L14.1677 21.7149C14.1961 21.6561 14.2547 21.6187 14.319 21.6187C14.3832 21.6187 14.4419 21.6562 14.4702 21.7149L14.631 22.0486L14.9903 22.102C15.054 22.1116 15.1067 22.1573 15.1266 22.2198C15.1465 22.2823 15.1299 22.3512 15.0837 22.3972L14.8238 22.6568L14.8851 23.0235C14.8961 23.0882 14.87 23.1538 14.8182 23.1925C14.7888 23.2145 14.7538 23.2255 14.7187 23.2255Z" fill="white"/>
<path d="M12.8192 12.7286C12.7926 12.7286 12.7655 12.7224 12.7406 12.7087L12.4192 12.5357L12.0978 12.7087C12.073 12.7223 12.0461 12.7286 12.0192 12.7286C11.9842 12.7286 11.9494 12.7176 11.9199 12.6956C11.8679 12.6571 11.8418 12.5914 11.8529 12.5266L11.9141 12.1598L11.6542 11.9002C11.6083 11.8542 11.5917 11.7854 11.6116 11.7228C11.6314 11.6601 11.684 11.6145 11.7479 11.605L12.1071 11.5516L12.2679 11.2178C12.2962 11.1589 12.3549 11.1216 12.4192 11.1216C12.4835 11.1216 12.5421 11.159 12.5703 11.2178L12.7312 11.5516L13.0905 11.605C13.1542 11.6146 13.207 11.6601 13.2268 11.7228C13.2467 11.7854 13.2302 11.8542 13.1842 11.9002L12.9242 12.1598L12.9855 12.5266C12.9965 12.5914 12.9704 12.657 12.9185 12.6956C12.8891 12.7175 12.8543 12.7286 12.8192 12.7286Z" fill="white"/>
<path d="M12.8192 15.7275C12.7926 15.7275 12.7655 15.721 12.7406 15.7077L12.4192 15.5346L12.0978 15.7077C12.073 15.7211 12.0461 15.7275 12.0192 15.7275C11.9842 15.7275 11.9494 15.7164 11.9199 15.6946C11.8679 15.6558 11.8418 15.5904 11.8529 15.5256L11.9141 15.1588L11.6542 14.8991C11.6083 14.8532 11.5917 14.7844 11.6116 14.7217C11.6314 14.6592 11.684 14.6137 11.7479 14.6042L12.1071 14.5507L12.2679 14.217C12.2962 14.158 12.3549 14.1206 12.4192 14.1206C12.4835 14.1206 12.5421 14.1581 12.5703 14.217L12.7312 14.5507L13.0905 14.6042C13.1542 14.6137 13.207 14.6593 13.2268 14.7217C13.2467 14.7844 13.2302 14.8532 13.1842 14.8991L12.9242 15.1588L12.9855 15.5256C12.9965 15.5904 12.9704 15.6558 12.9185 15.6946C12.8891 15.7164 12.8543 15.7275 12.8192 15.7275Z" fill="white"/>
<path d="M12.8192 18.7269C12.7926 18.7269 12.7655 18.7205 12.7406 18.7073L12.4192 18.534L12.0978 18.7073C12.073 18.7205 12.0461 18.7269 12.0192 18.7269C11.9842 18.7269 11.9494 18.7158 11.9199 18.694C11.8679 18.6554 11.8418 18.5898 11.8529 18.5249L11.9141 18.1582L11.6542 17.8985C11.6083 17.8526 11.5917 17.7838 11.6116 17.7212C11.6314 17.6586 11.684 17.613 11.7479 17.6036L12.1071 17.5502L12.2679 17.2163C12.2962 17.1574 12.3549 17.1201 12.4192 17.1201C12.4835 17.1201 12.5421 17.1574 12.5703 17.2163L12.7312 17.5502L13.0905 17.6036C13.1542 17.6132 13.207 17.6587 13.2268 17.7212C13.2467 17.7838 13.2302 17.8526 13.1842 17.8985L12.9242 18.1582L12.9855 18.5249C12.9965 18.5898 12.9704 18.6554 12.9185 18.694C12.8891 18.7158 12.8543 18.7269 12.8192 18.7269Z" fill="white"/>
<path d="M12.8192 21.7256C12.7926 21.7256 12.7655 21.7194 12.7406 21.7058L12.4192 21.5327L12.0978 21.7058C12.073 21.7192 12.0461 21.7256 12.0192 21.7256C11.9842 21.7256 11.9494 21.7147 11.9199 21.6927C11.8679 21.6541 11.8418 21.5883 11.8529 21.5237L11.9141 21.1568L11.6542 20.8973C11.6083 20.8515 11.5917 20.7826 11.6116 20.7198C11.6314 20.6572 11.684 20.6117 11.7479 20.6022L12.1071 20.5489L12.2679 20.2151C12.2962 20.1562 12.3549 20.1187 12.4192 20.1187C12.4835 20.1187 12.5421 20.1562 12.5703 20.2151L12.7312 20.5489L13.0905 20.6022C13.1542 20.6118 13.207 20.6573 13.2268 20.7198C13.2467 20.7824 13.2302 20.8514 13.1842 20.8973L12.9242 21.1568L12.9855 21.5237C12.9965 21.5883 12.9704 21.6539 12.9185 21.6927C12.8891 21.7147 12.8543 21.7256 12.8192 21.7256Z" fill="white"/>
<path d="M12.8192 24.7249C12.7926 24.7249 12.7655 24.7184 12.7406 24.7051L12.4192 24.5321L12.0978 24.7051C12.073 24.7184 12.0461 24.7249 12.0192 24.7249C11.9842 24.7249 11.9494 24.7139 11.9199 24.692C11.8679 24.6535 11.8418 24.5877 11.8529 24.523L11.9141 24.1562L11.6542 23.8968C11.6083 23.8508 11.5917 23.7819 11.6116 23.7193C11.6314 23.6566 11.684 23.611 11.7479 23.6015L12.1071 23.5481L12.2679 23.2145C12.2962 23.1556 12.3549 23.1182 12.4192 23.1182C12.4835 23.1182 12.5421 23.1556 12.5703 23.2145L12.7312 23.5481L13.0905 23.6015C13.1542 23.611 13.207 23.6566 13.2268 23.7193C13.2467 23.7819 13.2302 23.8508 13.1842 23.8968L12.9242 24.1562L12.9855 24.523C12.9965 24.5877 12.9704 24.6535 12.9185 24.692C12.8891 24.7141 12.8543 24.7249 12.8192 24.7249Z" fill="white"/>
<path d="M18.4067 14.228C18.3799 14.228 18.3529 14.2218 18.328 14.2082L18.0067 14.0351L17.6853 14.2082C17.6606 14.2217 17.6336 14.228 17.6068 14.228C17.5717 14.228 17.537 14.2171 17.5074 14.1951C17.4556 14.1565 17.4293 14.091 17.4405 14.0262L17.5017 13.6593L17.2417 13.3997C17.1957 13.3537 17.1791 13.285 17.199 13.2224C17.2189 13.1598 17.2717 13.1142 17.3353 13.1048L17.6948 13.0513L17.8554 12.7176C17.8838 12.6585 17.9425 12.6211 18.0067 12.6211C18.0709 12.6211 18.1296 12.6585 18.158 12.7176L18.3187 13.0513L18.678 13.1048C18.7417 13.1143 18.7945 13.1598 18.8143 13.2224C18.8343 13.285 18.8176 13.3537 18.7716 13.3997L18.5116 13.6593L18.5729 14.0262C18.5839 14.091 18.5577 14.1565 18.5059 14.1951C18.4765 14.217 18.4417 14.228 18.4067 14.228Z" fill="white"/>
<path d="M18.4067 17.2273C18.3799 17.2273 18.3529 17.2212 18.328 17.2075L18.0067 17.0343L17.6853 17.2075C17.6606 17.2211 17.6336 17.2273 17.6068 17.2273C17.5717 17.2273 17.537 17.2164 17.5074 17.1944C17.4556 17.1558 17.4293 17.0903 17.4405 17.0253L17.5017 16.6586L17.2417 16.3989C17.1957 16.3532 17.1791 16.2842 17.199 16.2217C17.2189 16.1592 17.2717 16.1137 17.3353 16.1039L17.6948 16.0506L17.8554 15.7169C17.8838 15.6579 17.9425 15.6206 18.0067 15.6206C18.0709 15.6206 18.1296 15.6579 18.158 15.7169L18.3187 16.0506L18.678 16.1039C18.7417 16.1137 18.7945 16.1592 18.8143 16.2217C18.8343 16.2842 18.8176 16.3532 18.7716 16.3989L18.5116 16.6586L18.5729 17.0253C18.5839 17.0904 18.5577 17.1557 18.5059 17.1944C18.4765 17.2165 18.4417 17.2273 18.4067 17.2273Z" fill="white"/>
<path d="M18.4067 20.2262C18.3799 20.2262 18.3529 20.2198 18.328 20.2064L18.0067 20.0334L17.6853 20.2064C17.6606 20.2199 17.6336 20.2262 17.6068 20.2262C17.5717 20.2262 17.537 20.2152 17.5074 20.1933C17.4556 20.1546 17.4293 20.0891 17.4405 20.0244L17.5017 19.6576L17.2417 19.3982C17.1957 19.352 17.1791 19.2831 17.199 19.2206C17.2189 19.1581 17.2717 19.1124 17.3353 19.1028L17.6948 19.0495L17.8554 18.7158C17.8838 18.6569 17.9425 18.6196 18.0067 18.6196C18.0709 18.6196 18.1296 18.6569 18.158 18.7158L18.3187 19.0495L18.678 19.1028C18.7417 19.1125 18.7945 19.1582 18.8143 19.2206C18.8343 19.2831 18.8176 19.352 18.7716 19.3982L18.5116 19.6576L18.5729 20.0244C18.5839 20.0891 18.5577 20.1546 18.5059 20.1933C18.4765 20.2152 18.4417 20.2262 18.4067 20.2262Z" fill="white"/>
<path d="M18.4067 23.2255C18.3799 23.2255 18.3529 23.219 18.328 23.2057L18.0067 23.0324L17.6853 23.2057C17.6606 23.2191 17.6336 23.2255 17.6068 23.2255C17.5717 23.2255 17.537 23.2145 17.5074 23.1925C17.4556 23.1538 17.4293 23.0882 17.4405 23.0235L17.5017 22.6568L17.2417 22.3972C17.1957 22.3512 17.1791 22.2823 17.199 22.2198C17.2189 22.1572 17.2717 22.1115 17.3353 22.102L17.6948 22.0486L17.8554 21.7149C17.8838 21.6561 17.9425 21.6187 18.0067 21.6187C18.0709 21.6187 18.1296 21.6562 18.158 21.7149L18.3187 22.0486L18.678 22.102C18.7417 22.1116 18.7945 22.1573 18.8143 22.2198C18.8343 22.2823 18.8176 22.3512 18.7716 22.3972L18.5116 22.6568L18.5729 23.0235C18.5839 23.0882 18.5577 23.1538 18.5059 23.1925C18.4765 23.2145 18.4417 23.2255 18.4067 23.2255Z" fill="white"/>
<path d="M16.5069 12.7286C16.4801 12.7286 16.4532 12.7224 16.4283 12.7087L16.1069 12.5357L15.7855 12.7087C15.7607 12.7223 15.7339 12.7286 15.707 12.7286C15.6719 12.7286 15.6372 12.7176 15.6077 12.6956C15.5558 12.6571 15.5296 12.5914 15.5406 12.5266L15.6019 12.1598L15.342 11.9002C15.296 11.8542 15.2795 11.7854 15.2993 11.7228C15.3191 11.6601 15.3719 11.6145 15.4356 11.605L15.7949 11.5516L15.9556 11.2178C15.9841 11.1589 16.0427 11.1216 16.107 11.1216C16.1712 11.1216 16.2299 11.159 16.2583 11.2178L16.419 11.5516L16.7783 11.605C16.8421 11.6146 16.8948 11.6601 16.9146 11.7228C16.9345 11.7854 16.9179 11.8542 16.8717 11.9002L16.6119 12.1598L16.6733 12.5266C16.6843 12.5914 16.6581 12.657 16.6062 12.6956C16.5766 12.7175 16.5418 12.7286 16.5069 12.7286Z" fill="white"/>
<path d="M16.5069 15.7275C16.4801 15.7275 16.4532 15.721 16.4283 15.7077L16.1069 15.5346L15.7855 15.7077C15.7607 15.7211 15.7339 15.7275 15.707 15.7275C15.6719 15.7275 15.6372 15.7164 15.6077 15.6946C15.5558 15.6558 15.5296 15.5904 15.5406 15.5256L15.6019 15.1588L15.342 14.8991C15.296 14.8532 15.2795 14.7844 15.2993 14.7217C15.3191 14.6592 15.3719 14.6137 15.4356 14.6042L15.7949 14.5507L15.9556 14.217C15.9841 14.158 16.0427 14.1206 16.107 14.1206C16.1712 14.1206 16.2299 14.1581 16.2583 14.217L16.419 14.5507L16.7783 14.6042C16.8421 14.6137 16.8948 14.6593 16.9146 14.7217C16.9345 14.7844 16.9179 14.8532 16.8717 14.8991L16.6119 15.1588L16.6733 15.5256C16.6843 15.5904 16.6581 15.6558 16.6062 15.6946C16.5766 15.7164 16.5418 15.7275 16.5069 15.7275Z" fill="white"/>
<path d="M16.5069 18.7269C16.4801 18.7269 16.4532 18.7205 16.4283 18.7073L16.1069 18.534L15.7855 18.7073C15.7607 18.7205 15.7339 18.7269 15.707 18.7269C15.6719 18.7269 15.6372 18.7158 15.6077 18.694C15.5558 18.6554 15.5296 18.5898 15.5406 18.5249L15.6019 18.1582L15.342 17.8985C15.296 17.8526 15.2795 17.7838 15.2993 17.7212C15.3191 17.6586 15.3719 17.613 15.4356 17.6036L15.7949 17.5502L15.9556 17.2163C15.9841 17.1574 16.0427 17.1201 16.107 17.1201C16.1712 17.1201 16.2299 17.1574 16.2583 17.2163L16.419 17.5502L16.7783 17.6036C16.8421 17.6132 16.8948 17.6587 16.9146 17.7212C16.9345 17.7838 16.9179 17.8526 16.8717 17.8985L16.6119 18.1582L16.6733 18.5249C16.6843 18.5898 16.6581 18.6554 16.6062 18.694C16.5766 18.7158 16.5418 18.7269 16.5069 18.7269Z" fill="white"/>
<path d="M16.5069 21.7256C16.4801 21.7256 16.4532 21.7194 16.4283 21.7058L16.1069 21.5327L15.7855 21.7058C15.7607 21.7192 15.7339 21.7256 15.707 21.7256C15.6719 21.7256 15.6372 21.7147 15.6077 21.6927C15.5558 21.6541 15.5296 21.5883 15.5406 21.5237L15.6019 21.1568L15.342 20.8973C15.296 20.8515 15.2795 20.7826 15.2993 20.7198C15.3191 20.6572 15.3719 20.6117 15.4356 20.6022L15.7949 20.5489L15.9556 20.2151C15.9841 20.1562 16.0427 20.1187 16.107 20.1187C16.1712 20.1187 16.2299 20.1562 16.2583 20.2151L16.419 20.5489L16.7783 20.6022C16.8421 20.6118 16.8948 20.6573 16.9146 20.7198C16.9345 20.7824 16.9179 20.8514 16.8717 20.8973L16.6119 21.1568L16.6733 21.5237C16.6843 21.5883 16.6581 21.6539 16.6062 21.6927C16.5766 21.7147 16.5418 21.7256 16.5069 21.7256Z" fill="white"/>
<path d="M16.5069 24.7249C16.4801 24.7249 16.4532 24.7184 16.4283 24.7051L16.1069 24.5321L15.7855 24.7051C15.7607 24.7184 15.7339 24.7249 15.707 24.7249C15.6719 24.7249 15.6372 24.7139 15.6077 24.692C15.5558 24.6535 15.5296 24.5877 15.5406 24.523L15.6019 24.1562L15.342 23.8968C15.296 23.8508 15.2795 23.7819 15.2993 23.7193C15.3191 23.6566 15.3719 23.611 15.4356 23.6015L15.7949 23.5481L15.9556 23.2145C15.9841 23.1556 16.0427 23.1182 16.107 23.1182C16.1712 23.1182 16.2299 23.1556 16.2583 23.2145L16.419 23.5481L16.7783 23.6015C16.8421 23.611 16.8948 23.6566 16.9146 23.7193C16.9345 23.7819 16.9179 23.8508 16.8717 23.8968L16.6119 24.1562L16.6733 24.523C16.6843 24.5877 16.6581 24.6535 16.6062 24.692C16.5766 24.7141 16.5418 24.7249 16.5069 24.7249Z" fill="white"/>
<path d="M22.094 14.228C22.0674 14.228 22.0403 14.2218 22.0154 14.2082L21.694 14.0351L21.3727 14.2082C21.3478 14.2217 21.321 14.228 21.2941 14.228C21.2591 14.228 21.2243 14.2171 21.1948 14.1951C21.143 14.1565 21.1168 14.091 21.1279 14.0262L21.189 13.6593L20.9291 13.3997C20.8831 13.3537 20.8666 13.285 20.8865 13.2224C20.9064 13.1598 20.9589 13.1142 21.0229 13.1048L21.3822 13.0513L21.5429 12.7176C21.5712 12.6585 21.6299 12.6211 21.6941 12.6211C21.7584 12.6211 21.817 12.6585 21.8454 12.7176L22.0062 13.0513L22.3656 13.1048C22.4292 13.1143 22.482 13.1598 22.5018 13.2224C22.5217 13.285 22.5051 13.3537 22.4591 13.3997L22.1991 13.6593L22.2606 14.0262C22.2714 14.091 22.2454 14.1565 22.1934 14.1951C22.1639 14.217 22.129 14.228 22.094 14.228Z" fill="white"/>
<path d="M22.094 17.2273C22.0674 17.2273 22.0403 17.2212 22.0154 17.2075L21.694 17.0343L21.3727 17.2075C21.3478 17.2211 21.321 17.2273 21.2941 17.2273C21.2591 17.2273 21.2243 17.2164 21.1948 17.1944C21.143 17.1558 21.1168 17.0903 21.1279 17.0253L21.189 16.6586L20.9291 16.3989C20.8831 16.3532 20.8666 16.2842 20.8865 16.2217C20.9064 16.1592 20.9589 16.1137 21.0229 16.1039L21.3822 16.0506L21.5429 15.7169C21.5712 15.6579 21.6299 15.6206 21.6941 15.6206C21.7584 15.6206 21.817 15.6579 21.8454 15.7169L22.0062 16.0506L22.3656 16.1039C22.4292 16.1137 22.482 16.1592 22.5018 16.2217C22.5217 16.2842 22.5051 16.3532 22.4591 16.3989L22.1991 16.6586L22.2606 17.0253C22.2714 17.0904 22.2454 17.1557 22.1934 17.1944C22.1639 17.2165 22.129 17.2273 22.094 17.2273Z" fill="white"/>
<path d="M22.094 20.2262C22.0674 20.2262 22.0403 20.2198 22.0154 20.2064L21.694 20.0334L21.3727 20.2064C21.3478 20.2199 21.321 20.2262 21.2941 20.2262C21.2591 20.2262 21.2243 20.2152 21.1948 20.1933C21.143 20.1546 21.1168 20.0891 21.1279 20.0244L21.189 19.6576L20.9291 19.3982C20.8831 19.352 20.8666 19.2831 20.8865 19.2206C20.9064 19.1581 20.9589 19.1124 21.0229 19.1028L21.3822 19.0495L21.5429 18.7158C21.5712 18.6569 21.6299 18.6196 21.6941 18.6196C21.7584 18.6196 21.817 18.6569 21.8454 18.7158L22.0062 19.0495L22.3656 19.1028C22.4292 19.1125 22.482 19.1582 22.5018 19.2206C22.5217 19.2831 22.5051 19.352 22.4591 19.3982L22.1991 19.6576L22.2606 20.0244C22.2714 20.0891 22.2454 20.1546 22.1934 20.1933C22.1639 20.2152 22.129 20.2262 22.094 20.2262Z" fill="white"/>
<path d="M22.094 23.2255C22.0674 23.2255 22.0403 23.219 22.0154 23.2057L21.694 23.0324L21.3727 23.2057C21.3478 23.2191 21.321 23.2255 21.2941 23.2255C21.2591 23.2255 21.2243 23.2145 21.1948 23.1925C21.143 23.1538 21.1168 23.0882 21.1279 23.0235L21.189 22.6568L20.9291 22.3972C20.8831 22.3512 20.8666 22.2823 20.8865 22.2198C20.9064 22.1572 20.9589 22.1115 21.0229 22.102L21.3822 22.0486L21.5429 21.7149C21.5712 21.6561 21.6299 21.6187 21.6941 21.6187C21.7584 21.6187 21.817 21.6562 21.8454 21.7149L22.0062 22.0486L22.3656 22.102C22.4292 22.1116 22.482 22.1573 22.5018 22.2198C22.5217 22.2823 22.5051 22.3512 22.4591 22.3972L22.1991 22.6568L22.2606 23.0235C22.2714 23.0882 22.2454 23.1538 22.1934 23.1925C22.1639 23.2145 22.129 23.2255 22.094 23.2255Z" fill="white"/>
<path d="M20.1944 12.7286C20.1676 12.7286 20.1407 12.7224 20.1159 12.7087L19.7945 12.5357L19.4731 12.7087C19.4484 12.7223 19.4215 12.7286 19.3946 12.7286C19.3596 12.7286 19.3247 12.7176 19.2952 12.6956C19.2434 12.6571 19.2171 12.5914 19.2282 12.5266L19.2894 12.1598L19.0296 11.9002C18.9835 11.8542 18.9669 11.7854 18.9868 11.7228C19.0066 11.6601 19.0594 11.6145 19.1232 11.605L19.4826 11.5516L19.6432 11.2178C19.6717 11.1589 19.7302 11.1216 19.7945 11.1216C19.8586 11.1216 19.9175 11.159 19.9457 11.2178L20.1065 11.5516L20.4659 11.605C20.5296 11.6146 20.5823 11.6601 20.6019 11.7228C20.6218 11.7854 20.6052 11.8542 20.5592 11.9002L20.2993 12.1598L20.3607 12.5266C20.3716 12.5914 20.3455 12.657 20.2936 12.6956C20.2644 12.7175 20.2294 12.7286 20.1944 12.7286Z" fill="white"/>
<path d="M20.1944 15.7275C20.1676 15.7275 20.1407 15.721 20.1159 15.7077L19.7945 15.5346L19.4731 15.7077C19.4484 15.7211 19.4215 15.7275 19.3946 15.7275C19.3596 15.7275 19.3247 15.7164 19.2952 15.6946C19.2434 15.6558 19.2171 15.5904 19.2282 15.5256L19.2894 15.1588L19.0296 14.8991C18.9835 14.8532 18.9669 14.7844 18.9868 14.7217C19.0066 14.6592 19.0594 14.6137 19.1232 14.6042L19.4826 14.5507L19.6432 14.217C19.6717 14.158 19.7302 14.1206 19.7945 14.1206C19.8586 14.1206 19.9175 14.1581 19.9457 14.217L20.1065 14.5507L20.4659 14.6042C20.5296 14.6137 20.5823 14.6593 20.6019 14.7217C20.6218 14.7844 20.6052 14.8532 20.5592 14.8991L20.2993 15.1588L20.3607 15.5256C20.3716 15.5904 20.3455 15.6558 20.2936 15.6946C20.2644 15.7164 20.2294 15.7275 20.1944 15.7275Z" fill="white"/>
<path d="M20.1944 18.7269C20.1676 18.7269 20.1407 18.7205 20.1159 18.7073L19.7945 18.534L19.4731 18.7073C19.4484 18.7205 19.4215 18.7269 19.3946 18.7269C19.3596 18.7269 19.3247 18.7158 19.2952 18.694C19.2434 18.6554 19.2171 18.5898 19.2282 18.5249L19.2894 18.1582L19.0296 17.8985C18.9835 17.8526 18.9669 17.7838 18.9868 17.7212C19.0066 17.6586 19.0594 17.613 19.1232 17.6036L19.4826 17.5502L19.6432 17.2163C19.6717 17.1574 19.7302 17.1201 19.7945 17.1201C19.8586 17.1201 19.9175 17.1574 19.9457 17.2163L20.1065 17.5502L20.4659 17.6036C20.5296 17.6132 20.5823 17.6587 20.6019 17.7212C20.6218 17.7838 20.6052 17.8526 20.5592 17.8985L20.2993 18.1582L20.3607 18.5249C20.3716 18.5898 20.3455 18.6554 20.2936 18.694C20.2644 18.7158 20.2294 18.7269 20.1944 18.7269Z" fill="white"/>
<path d="M20.1944 21.7256C20.1676 21.7256 20.1407 21.7194 20.1159 21.7058L19.7945 21.5327L19.4731 21.7058C19.4484 21.7192 19.4215 21.7256 19.3946 21.7256C19.3596 21.7256 19.3247 21.7147 19.2952 21.6927C19.2434 21.6541 19.2171 21.5883 19.2282 21.5237L19.2894 21.1568L19.0296 20.8973C18.9835 20.8515 18.9669 20.7826 18.9868 20.7198C19.0066 20.6572 19.0594 20.6117 19.1232 20.6022L19.4826 20.5489L19.6432 20.2151C19.6717 20.1562 19.7302 20.1187 19.7945 20.1187C19.8586 20.1187 19.9175 20.1562 19.9457 20.2151L20.1065 20.5489L20.4659 20.6022C20.5296 20.6118 20.5823 20.6573 20.6019 20.7198C20.6218 20.7824 20.6052 20.8514 20.5592 20.8973L20.2993 21.1568L20.3607 21.5237C20.3716 21.5883 20.3455 21.6539 20.2936 21.6927C20.2644 21.7147 20.2294 21.7256 20.1944 21.7256Z" fill="white"/>
<path d="M20.1944 24.7249C20.1676 24.7249 20.1407 24.7184 20.1159 24.7051L19.7945 24.5321L19.4731 24.7051C19.4484 24.7184 19.4215 24.7249 19.3946 24.7249C19.3596 24.7249 19.3247 24.7139 19.2952 24.692C19.2434 24.6535 19.2171 24.5877 19.2282 24.523L19.2894 24.1562L19.0296 23.8968C18.9835 23.8508 18.9669 23.7819 18.9868 23.7193C19.0066 23.6566 19.0594 23.611 19.1232 23.6015L19.4826 23.5481L19.6432 23.2145C19.6717 23.1556 19.7302 23.1182 19.7945 23.1182C19.8586 23.1182 19.9175 23.1556 19.9457 23.2145L20.1065 23.5481L20.4659 23.6015C20.5296 23.611 20.5823 23.6566 20.6019 23.7193C20.6218 23.7819 20.6052 23.8508 20.5592 23.8968L20.2993 24.1562L20.3607 24.523C20.3716 24.5877 20.3455 24.6535 20.2936 24.692C20.2644 24.7141 20.2294 24.7249 20.1944 24.7249Z" fill="white"/>
<path d="M25.7817 14.228C25.755 14.228 25.7279 14.2218 25.7031 14.2082L25.3817 14.0351L25.0604 14.2082C25.0356 14.2217 25.0087 14.228 24.9818 14.228C24.9468 14.228 24.912 14.2171 24.8824 14.1951C24.8306 14.1565 24.8043 14.091 24.8155 14.0262L24.8768 13.6593L24.6168 13.3997C24.5707 13.3537 24.554 13.285 24.574 13.2224C24.5938 13.1598 24.6465 13.1142 24.7103 13.1048L25.0696 13.0513L25.2304 12.7176C25.2588 12.6585 25.3174 12.6211 25.3816 12.6211C25.4458 12.6211 25.5046 12.6585 25.5329 12.7176L25.6938 13.0513L26.053 13.1048C26.1166 13.1143 26.1693 13.1598 26.189 13.2224C26.2091 13.285 26.1924 13.3537 26.1463 13.3997L25.8863 13.6593L25.9478 14.0262C25.9586 14.091 25.9326 14.1565 25.8806 14.1951C25.8516 14.217 25.8167 14.228 25.7817 14.228Z" fill="white"/>
<path d="M25.7817 17.2273C25.755 17.2273 25.7279 17.2212 25.7031 17.2075L25.3817 17.0343L25.0604 17.2075C25.0356 17.2211 25.0087 17.2273 24.9818 17.2273C24.9468 17.2273 24.912 17.2164 24.8824 17.1944C24.8306 17.1558 24.8043 17.0903 24.8155 17.0253L24.8768 16.6586L24.6168 16.3989C24.5707 16.3532 24.554 16.2842 24.574 16.2217C24.5938 16.1592 24.6465 16.1137 24.7103 16.1039L25.0696 16.0506L25.2304 15.7169C25.2588 15.6579 25.3174 15.6206 25.3816 15.6206C25.4458 15.6206 25.5046 15.6579 25.5329 15.7169L25.6938 16.0506L26.053 16.1039C26.1166 16.1137 26.1693 16.1592 26.189 16.2217C26.2091 16.2842 26.1924 16.3532 26.1463 16.3989L25.8863 16.6586L25.9478 17.0253C25.9586 17.0904 25.9326 17.1557 25.8806 17.1944C25.8516 17.2165 25.8167 17.2273 25.7817 17.2273Z" fill="white"/>
<path d="M25.7817 20.2262C25.755 20.2262 25.7279 20.2198 25.7031 20.2064L25.3817 20.0334L25.0604 20.2064C25.0356 20.2199 25.0087 20.2262 24.9818 20.2262C24.9468 20.2262 24.912 20.2152 24.8824 20.1933C24.8306 20.1546 24.8043 20.0891 24.8155 20.0244L24.8768 19.6576L24.6168 19.3982C24.5707 19.352 24.554 19.2831 24.574 19.2206C24.5938 19.1581 24.6465 19.1124 24.7103 19.1028L25.0696 19.0495L25.2304 18.7158C25.2588 18.6569 25.3174 18.6196 25.3816 18.6196C25.4458 18.6196 25.5046 18.6569 25.5329 18.7158L25.6938 19.0495L26.053 19.1028C26.1166 19.1125 26.1693 19.1582 26.189 19.2206C26.2091 19.2831 26.1924 19.352 26.1463 19.3982L25.8863 19.6576L25.9478 20.0244C25.9586 20.0891 25.9326 20.1546 25.8806 20.1933C25.8516 20.2152 25.8167 20.2262 25.7817 20.2262Z" fill="white"/>
<path d="M25.7817 23.2255C25.755 23.2255 25.7279 23.219 25.7031 23.2057L25.3817 23.0324L25.0604 23.2057C25.0356 23.2191 25.0087 23.2255 24.9818 23.2255C24.9468 23.2255 24.912 23.2145 24.8824 23.1925C24.8306 23.1538 24.8043 23.0882 24.8155 23.0235L24.8768 22.6568L24.6168 22.3972C24.5707 22.3512 24.554 22.2823 24.574 22.2198C24.5938 22.1572 24.6465 22.1115 24.7103 22.102L25.0696 22.0486L25.2304 21.7149C25.2588 21.6561 25.3174 21.6187 25.3816 21.6187C25.4458 21.6187 25.5046 21.6562 25.5329 21.7149L25.6938 22.0486L26.053 22.102C26.1166 22.1116 26.1693 22.1573 26.189 22.2198C26.2091 22.2823 26.1924 22.3512 26.1463 22.3972L25.8863 22.6568L25.9478 23.0235C25.9586 23.0882 25.9326 23.1538 25.8806 23.1925C25.8516 23.2145 25.8167 23.2255 25.7817 23.2255Z" fill="white"/>
<path d="M23.8819 12.7286C23.8553 12.7286 23.8282 12.7224 23.8033 12.7087L23.4819 12.5357L23.1606 12.7087C23.1359 12.7223 23.1087 12.7286 23.0822 12.7286C23.0471 12.7286 23.0123 12.7176 22.9826 12.6956C22.9308 12.6571 22.9046 12.5914 22.9157 12.5266L22.9769 12.1598L22.7171 11.9002C22.671 11.8542 22.6544 11.7854 22.6743 11.7228C22.6942 11.6601 22.747 11.6145 22.8107 11.605L23.1701 11.5516L23.3308 11.2178C23.3592 11.1589 23.4179 11.1216 23.482 11.1216C23.5463 11.1216 23.605 11.159 23.6333 11.2178L23.7941 11.5516L24.1534 11.605C24.217 11.6146 24.27 11.6601 24.2897 11.7228C24.3097 11.7854 24.2931 11.8542 24.2469 11.9002L23.9869 12.1598L24.0483 12.5266C24.0592 12.5914 24.0331 12.657 23.9812 12.6956C23.9519 12.7175 23.917 12.7286 23.8819 12.7286Z" fill="white"/>
<path d="M23.8819 15.7275C23.8553 15.7275 23.8282 15.721 23.8033 15.7077L23.4819 15.5346L23.1606 15.7077C23.1359 15.7211 23.1087 15.7275 23.0822 15.7275C23.0471 15.7275 23.0123 15.7164 22.9826 15.6946C22.9308 15.6558 22.9046 15.5904 22.9157 15.5256L22.9769 15.1588L22.7171 14.8991C22.671 14.8532 22.6544 14.7844 22.6743 14.7217C22.6942 14.6592 22.747 14.6137 22.8107 14.6042L23.1701 14.5507L23.3308 14.217C23.3592 14.158 23.4179 14.1206 23.482 14.1206C23.5463 14.1206 23.605 14.1581 23.6333 14.217L23.7941 14.5507L24.1534 14.6042C24.217 14.6137 24.27 14.6593 24.2897 14.7217C24.3097 14.7844 24.2931 14.8532 24.2469 14.8991L23.9869 15.1588L24.0483 15.5256C24.0592 15.5904 24.0331 15.6558 23.9812 15.6946C23.9519 15.7164 23.917 15.7275 23.8819 15.7275Z" fill="white"/>
<path d="M23.8819 18.7269C23.8553 18.7269 23.8282 18.7205 23.8033 18.7073L23.4819 18.534L23.1606 18.7073C23.1359 18.7205 23.1087 18.7269 23.0822 18.7269C23.0471 18.7269 23.0123 18.7158 22.9826 18.694C22.9308 18.6554 22.9046 18.5898 22.9157 18.5249L22.9769 18.1582L22.7171 17.8985C22.671 17.8526 22.6544 17.7838 22.6743 17.7212C22.6942 17.6586 22.747 17.613 22.8107 17.6036L23.1701 17.5502L23.3308 17.2163C23.3592 17.1574 23.4179 17.1201 23.482 17.1201C23.5463 17.1201 23.605 17.1574 23.6333 17.2163L23.7941 17.5502L24.1534 17.6036C24.217 17.6132 24.27 17.6587 24.2897 17.7212C24.3097 17.7838 24.2931 17.8526 24.2469 17.8985L23.9869 18.1582L24.0483 18.5249C24.0592 18.5898 24.0331 18.6554 23.9812 18.694C23.9519 18.7158 23.917 18.7269 23.8819 18.7269Z" fill="white"/>
<path d="M23.8819 21.7256C23.8553 21.7256 23.8282 21.7194 23.8033 21.7058L23.4819 21.5327L23.1606 21.7058C23.1359 21.7192 23.1087 21.7256 23.0822 21.7256C23.0471 21.7256 23.0123 21.7147 22.9826 21.6927C22.9308 21.6541 22.9046 21.5883 22.9157 21.5237L22.9769 21.1568L22.7171 20.8973C22.671 20.8515 22.6544 20.7826 22.6743 20.7198C22.6942 20.6572 22.747 20.6117 22.8107 20.6022L23.1701 20.5489L23.3308 20.2151C23.3592 20.1562 23.4179 20.1187 23.482 20.1187C23.5463 20.1187 23.605 20.1562 23.6333 20.2151L23.7941 20.5489L24.1534 20.6022C24.217 20.6118 24.27 20.6573 24.2897 20.7198C24.3097 20.7824 24.2931 20.8514 24.2469 20.8973L23.9869 21.1568L24.0483 21.5237C24.0592 21.5883 24.0331 21.6539 23.9812 21.6927C23.9519 21.7147 23.917 21.7256 23.8819 21.7256Z" fill="white"/>
<path d="M23.8819 24.7249C23.8553 24.7249 23.8282 24.7184 23.8033 24.7051L23.4819 24.5321L23.1606 24.7051C23.1359 24.7184 23.1087 24.7249 23.0822 24.7249C23.0471 24.7249 23.0123 24.7139 22.9826 24.692C22.9308 24.6535 22.9046 24.5877 22.9157 24.523L22.9769 24.1562L22.7171 23.8968C22.671 23.8508 22.6544 23.7819 22.6743 23.7193C22.6942 23.6566 22.747 23.611 22.8107 23.6015L23.1701 23.5481L23.3308 23.2145C23.3592 23.1556 23.4179 23.1182 23.482 23.1182C23.5463 23.1182 23.605 23.1556 23.6333 23.2145L23.7941 23.5481L24.1534 23.6015C24.217 23.611 24.27 23.6566 24.2897 23.7193C24.3097 23.7819 24.2931 23.8508 24.2469 23.8968L23.9869 24.1562L24.0483 24.523C24.0592 24.5877 24.0331 24.6535 23.9812 24.692C23.9519 24.7141 23.917 24.7249 23.8819 24.7249Z" fill="white"/>
<path d="M29.4693 14.228C29.4425 14.228 29.4156 14.2218 29.3907 14.2082L29.0692 14.0351L28.7479 14.2082C28.723 14.2217 28.6961 14.228 28.6694 14.228C28.6343 14.228 28.5995 14.2171 28.5702 14.1951C28.5182 14.1565 28.4918 14.091 28.5032 14.0262L28.5643 13.6593L28.3045 13.3997C28.2585 13.3537 28.2418 13.285 28.2617 13.2224C28.2816 13.1598 28.3344 13.1142 28.3981 13.1048L28.7574 13.0513L28.9182 12.7176C28.9465 12.6585 29.0051 12.6211 29.0693 12.6211C29.1337 12.6211 29.1925 12.6585 29.2207 12.7176L29.3815 13.0513L29.7409 13.1048C29.8044 13.1143 29.8572 13.1598 29.8768 13.2224C29.8967 13.285 29.8802 13.3537 29.8341 13.3997L29.5742 13.6593L29.6355 14.0262C29.6465 14.091 29.6205 14.1565 29.5686 14.1951C29.5393 14.217 29.5044 14.228 29.4693 14.228Z" fill="white"/>
<path d="M29.4693 17.2273C29.4425 17.2273 29.4156 17.2212 29.3907 17.2075L29.0692 17.0343L28.7479 17.2075C28.723 17.2211 28.6961 17.2273 28.6694 17.2273C28.6343 17.2273 28.5995 17.2164 28.5702 17.1944C28.5182 17.1558 28.4918 17.0903 28.5032 17.0253L28.5643 16.6586L28.3045 16.3989C28.2585 16.3532 28.2418 16.2842 28.2617 16.2217C28.2816 16.1592 28.3344 16.1137 28.3981 16.1039L28.7574 16.0506L28.9182 15.7169C28.9465 15.6579 29.0051 15.6206 29.0693 15.6206C29.1337 15.6206 29.1925 15.6579 29.2207 15.7169L29.3815 16.0506L29.7409 16.1039C29.8044 16.1137 29.8572 16.1592 29.8768 16.2217C29.8967 16.2842 29.8802 16.3532 29.8341 16.3989L29.5742 16.6586L29.6355 17.0253C29.6465 17.0904 29.6205 17.1557 29.5686 17.1944C29.5393 17.2165 29.5044 17.2273 29.4693 17.2273Z" fill="white"/>
<path d="M29.4693 20.2262C29.4425 20.2262 29.4156 20.2198 29.3907 20.2064L29.0692 20.0334L28.7479 20.2064C28.723 20.2199 28.6961 20.2262 28.6694 20.2262C28.6343 20.2262 28.5995 20.2152 28.5702 20.1933C28.5182 20.1546 28.4918 20.0891 28.5032 20.0244L28.5643 19.6576L28.3045 19.3982C28.2585 19.352 28.2418 19.2831 28.2617 19.2206C28.2816 19.1581 28.3344 19.1124 28.3981 19.1028L28.7574 19.0495L28.9182 18.7158C28.9465 18.6569 29.0051 18.6196 29.0693 18.6196C29.1337 18.6196 29.1925 18.6569 29.2207 18.7158L29.3815 19.0495L29.7409 19.1028C29.8044 19.1125 29.8572 19.1582 29.8768 19.2206C29.8967 19.2831 29.8802 19.352 29.8341 19.3982L29.5742 19.6576L29.6355 20.0244C29.6465 20.0891 29.6205 20.1546 29.5686 20.1933C29.5393 20.2152 29.5044 20.2262 29.4693 20.2262Z" fill="white"/>
<path d="M29.4693 23.2255C29.4425 23.2255 29.4156 23.219 29.3907 23.2057L29.0692 23.0324L28.7479 23.2057C28.723 23.2191 28.6961 23.2255 28.6694 23.2255C28.6343 23.2255 28.5995 23.2145 28.5702 23.1925C28.5182 23.1538 28.4918 23.0882 28.5032 23.0235L28.5643 22.6568L28.3045 22.3972C28.2585 22.3512 28.2418 22.2823 28.2617 22.2198C28.2816 22.1572 28.3344 22.1115 28.3981 22.102L28.7574 22.0486L28.9182 21.7149C28.9465 21.6561 29.0051 21.6187 29.0693 21.6187C29.1337 21.6187 29.1925 21.6562 29.2207 21.7149L29.3815 22.0486L29.7409 22.102C29.8044 22.1116 29.8572 22.1573 29.8768 22.2198C29.8967 22.2823 29.8802 22.3512 29.8341 22.3972L29.5742 22.6568L29.6355 23.0235C29.6465 23.0882 29.6205 23.1538 29.5686 23.1925C29.5393 23.2145 29.5044 23.2255 29.4693 23.2255Z" fill="white"/>
<path d="M27.5695 12.7286C27.5429 12.7286 27.5158 12.7224 27.4911 12.7087L27.1696 12.5357L26.8483 12.7087C26.8236 12.7223 26.7965 12.7286 26.7697 12.7286C26.7347 12.7286 26.6999 12.7176 26.6704 12.6956C26.6186 12.6571 26.5923 12.5914 26.6034 12.5266L26.6646 12.1598L26.4049 11.9002C26.3587 11.8542 26.3422 11.7854 26.362 11.7228C26.3819 11.6601 26.4344 11.6145 26.4984 11.605L26.8577 11.5516L27.0185 11.2178C27.0469 11.1589 27.1055 11.1216 27.1697 11.1216C27.234 11.1216 27.2927 11.159 27.321 11.2178L27.4818 11.5516L27.8412 11.605C27.9047 11.6146 27.9576 11.6601 27.9772 11.7228C27.9972 11.7854 27.9805 11.8542 27.9345 11.9002L27.6745 12.1598L27.736 12.5266C27.7469 12.5914 27.7208 12.657 27.6689 12.6956C27.6394 12.7175 27.6046 12.7286 27.5695 12.7286Z" fill="white"/>
<path d="M27.5695 15.7275C27.5429 15.7275 27.5158 15.721 27.4911 15.7077L27.1696 15.5346L26.8483 15.7077C26.8236 15.7211 26.7965 15.7275 26.7697 15.7275C26.7347 15.7275 26.6999 15.7164 26.6704 15.6946C26.6186 15.6558 26.5923 15.5904 26.6034 15.5256L26.6646 15.1588L26.4049 14.8991C26.3587 14.8532 26.3422 14.7844 26.362 14.7217C26.3819 14.6592 26.4344 14.6137 26.4984 14.6042L26.8577 14.5507L27.0185 14.217C27.0469 14.158 27.1055 14.1206 27.1697 14.1206C27.234 14.1206 27.2927 14.1581 27.321 14.217L27.4818 14.5507L27.8412 14.6042C27.9047 14.6137 27.9576 14.6593 27.9772 14.7217C27.9972 14.7844 27.9805 14.8532 27.9345 14.8991L27.6745 15.1588L27.736 15.5256C27.7469 15.5904 27.7208 15.6558 27.6689 15.6946C27.6394 15.7164 27.6046 15.7275 27.5695 15.7275Z" fill="white"/>
<path d="M27.5695 18.7269C27.5429 18.7269 27.5158 18.7205 27.4911 18.7073L27.1696 18.534L26.8483 18.7073C26.8236 18.7205 26.7965 18.7269 26.7697 18.7269C26.7347 18.7269 26.6999 18.7158 26.6704 18.694C26.6186 18.6554 26.5923 18.5898 26.6034 18.5249L26.6646 18.1582L26.4049 17.8985C26.3587 17.8526 26.3422 17.7838 26.362 17.7212C26.3819 17.6586 26.4344 17.613 26.4984 17.6036L26.8577 17.5502L27.0185 17.2163C27.0469 17.1574 27.1055 17.1201 27.1697 17.1201C27.234 17.1201 27.2927 17.1574 27.321 17.2163L27.4818 17.5502L27.8412 17.6036C27.9047 17.6132 27.9576 17.6587 27.9772 17.7212C27.9972 17.7838 27.9805 17.8526 27.9345 17.8985L27.6745 18.1582L27.736 18.5249C27.7469 18.5898 27.7208 18.6554 27.6689 18.694C27.6394 18.7158 27.6046 18.7269 27.5695 18.7269Z" fill="white"/>
<path d="M27.5695 21.7256C27.5429 21.7256 27.5158 21.7194 27.4911 21.7058L27.1696 21.5327L26.8483 21.7058C26.8236 21.7192 26.7965 21.7256 26.7697 21.7256C26.7347 21.7256 26.6999 21.7147 26.6704 21.6927C26.6186 21.6541 26.5923 21.5883 26.6034 21.5237L26.6646 21.1568L26.4049 20.8973C26.3587 20.8515 26.3422 20.7826 26.362 20.7198C26.3819 20.6572 26.4344 20.6117 26.4984 20.6022L26.8577 20.5489L27.0185 20.2151C27.0469 20.1562 27.1055 20.1187 27.1697 20.1187C27.234 20.1187 27.2927 20.1562 27.321 20.2151L27.4818 20.5489L27.8412 20.6022C27.9047 20.6118 27.9576 20.6573 27.9772 20.7198C27.9972 20.7824 27.9805 20.8514 27.9345 20.8973L27.6745 21.1568L27.736 21.5237C27.7469 21.5883 27.7208 21.6539 27.6689 21.6927C27.6394 21.7147 27.6046 21.7256 27.5695 21.7256Z" fill="white"/>
<path d="M27.5695 24.7249C27.5429 24.7249 27.5158 24.7184 27.4911 24.7051L27.1696 24.5321L26.8483 24.7051C26.8236 24.7184 26.7965 24.7249 26.7697 24.7249C26.7347 24.7249 26.6999 24.7139 26.6704 24.692C26.6186 24.6535 26.5923 24.5877 26.6034 24.523L26.6646 24.1562L26.4049 23.8968C26.3587 23.8508 26.3422 23.7819 26.362 23.7193C26.3819 23.6566 26.4344 23.611 26.4984 23.6015L26.8577 23.5481L27.0185 23.2145C27.0469 23.1556 27.1055 23.1182 27.1697 23.1182C27.234 23.1182 27.2927 23.1556 27.321 23.2145L27.4818 23.5481L27.8412 23.6015C27.9047 23.611 27.9576 23.6566 27.9772 23.7193C27.9972 23.7819 27.9805 23.8508 27.9345 23.8968L27.6745 24.1562L27.736 24.523C27.7469 24.5877 27.7208 24.6535 27.6689 24.692C27.6394 24.7141 27.6046 24.7249 27.5695 24.7249Z" fill="white"/>
<path d="M31.2574 12.7286C31.2305 12.7286 31.2035 12.7224 31.1788 12.7087L30.8574 12.5357L30.536 12.7087C30.5111 12.7223 30.4841 12.7286 30.4575 12.7286C30.4224 12.7286 30.3876 12.7176 30.358 12.6956C30.3062 12.6571 30.2799 12.5914 30.291 12.5266L30.3523 12.1598L30.0922 11.9002C30.0462 11.8542 30.0297 11.7854 30.0496 11.7228C30.0694 11.6601 30.1223 11.6145 30.1858 11.605L30.5451 11.5516L30.7058 11.2178C30.7343 11.1589 30.793 11.1216 30.8572 11.1216C30.9214 11.1216 30.98 11.159 31.0083 11.2178L31.1693 11.5516L31.5285 11.605C31.5922 11.6146 31.6449 11.6601 31.6648 11.7228C31.6848 11.7854 31.6683 11.8542 31.6222 11.9002L31.362 12.1598L31.4235 12.5266C31.4344 12.5914 31.4081 12.657 31.3563 12.6956C31.3271 12.7175 31.2922 12.7286 31.2574 12.7286Z" fill="white"/>
<path d="M31.2574 15.7275C31.2305 15.7275 31.2035 15.721 31.1788 15.7077L30.8574 15.5346L30.536 15.7077C30.5111 15.7211 30.4841 15.7275 30.4575 15.7275C30.4224 15.7275 30.3876 15.7164 30.358 15.6946C30.3062 15.6558 30.2799 15.5904 30.291 15.5256L30.3523 15.1588L30.0922 14.8991C30.0462 14.8532 30.0297 14.7844 30.0496 14.7217C30.0694 14.6592 30.1223 14.6137 30.1858 14.6042L30.5451 14.5507L30.7058 14.217C30.7343 14.158 30.793 14.1206 30.8572 14.1206C30.9214 14.1206 30.98 14.1581 31.0083 14.217L31.1693 14.5507L31.5285 14.6042C31.5922 14.6137 31.6449 14.6593 31.6648 14.7217C31.6848 14.7844 31.6683 14.8532 31.6222 14.8991L31.362 15.1588L31.4235 15.5256C31.4344 15.5904 31.4081 15.6558 31.3563 15.6946C31.3271 15.7164 31.2922 15.7275 31.2574 15.7275Z" fill="white"/>
<path d="M31.2574 18.7269C31.2305 18.7269 31.2035 18.7205 31.1788 18.7073L30.8574 18.534L30.536 18.7073C30.5111 18.7205 30.4841 18.7269 30.4575 18.7269C30.4224 18.7269 30.3876 18.7158 30.358 18.694C30.3062 18.6554 30.2799 18.5898 30.291 18.5249L30.3523 18.1582L30.0922 17.8985C30.0462 17.8526 30.0297 17.7838 30.0496 17.7212C30.0694 17.6586 30.1223 17.613 30.1858 17.6036L30.5451 17.5502L30.7058 17.2163C30.7343 17.1574 30.793 17.1201 30.8572 17.1201C30.9214 17.1201 30.98 17.1574 31.0083 17.2163L31.1693 17.5502L31.5285 17.6036C31.5922 17.6132 31.6449 17.6587 31.6648 17.7212C31.6848 17.7838 31.6683 17.8526 31.6222 17.8985L31.362 18.1582L31.4235 18.5249C31.4344 18.5898 31.4081 18.6554 31.3563 18.694C31.3271 18.7158 31.2922 18.7269 31.2574 18.7269Z" fill="white"/>
<path d="M31.2574 21.7256C31.2305 21.7256 31.2035 21.7194 31.1788 21.7058L30.8574 21.5327L30.536 21.7058C30.5111 21.7192 30.4841 21.7256 30.4575 21.7256C30.4224 21.7256 30.3876 21.7147 30.358 21.6927C30.3062 21.6541 30.2799 21.5883 30.291 21.5237L30.3523 21.1568L30.0922 20.8973C30.0462 20.8515 30.0297 20.7826 30.0496 20.7198C30.0694 20.6572 30.1223 20.6117 30.1858 20.6022L30.5451 20.5489L30.7058 20.2151C30.7343 20.1562 30.793 20.1187 30.8572 20.1187C30.9214 20.1187 30.98 20.1562 31.0083 20.2151L31.1693 20.5489L31.5285 20.6022C31.5922 20.6118 31.6449 20.6573 31.6648 20.7198C31.6848 20.7824 31.6683 20.8514 31.6222 20.8973L31.362 21.1568L31.4235 21.5237C31.4344 21.5883 31.4081 21.6539 31.3563 21.6927C31.3271 21.7147 31.2922 21.7256 31.2574 21.7256Z" fill="white"/>
<path d="M31.2574 24.7249C31.2305 24.7249 31.2035 24.7184 31.1788 24.7051L30.8574 24.5321L30.536 24.7051C30.5111 24.7184 30.4841 24.7249 30.4575 24.7249C30.4224 24.7249 30.3876 24.7139 30.358 24.692C30.3062 24.6535 30.2799 24.5877 30.291 24.523L30.3523 24.1562L30.0922 23.8968C30.0462 23.8508 30.0297 23.7819 30.0496 23.7193C30.0694 23.6566 30.1223 23.611 30.1858 23.6015L30.5451 23.5481L30.7058 23.2145C30.7343 23.1556 30.793 23.1182 30.8572 23.1182C30.9214 23.1182 30.98 23.1556 31.0083 23.2145L31.1693 23.5481L31.5285 23.6015C31.5922 23.611 31.6449 23.6566 31.6648 23.7193C31.6848 23.7819 31.6683 23.8508 31.6222 23.8968L31.362 24.1562L31.4235 24.523C31.4344 24.5877 31.4081 24.6535 31.3563 24.692C31.3271 24.7141 31.2922 24.7249 31.2574 24.7249Z" fill="white"/>
<path opacity="0.1" d="M13.0958 36.2456H9.5V39.8011H13.0958V36.2456Z" fill="black"/>
<path opacity="0.1" d="M13.0958 45.3048V42.9282H9.5V45.3048C9.5 45.9533 10.0305 46.4838 10.679 46.4838H14.2748C13.6263 46.4837 13.0958 45.9532 13.0958 45.3048Z" fill="black"/>
</g>
<path d="M1.88672 62.4688H3.19922L5.66602 69.0488L8.12695 62.4688H9.43945L6.18164 71H5.13867L1.88672 62.4688ZM1.28906 62.4688H2.53711L2.75391 68.1641V71H1.28906V62.4688ZM8.78906 62.4688H10.043V71H8.57227V68.1641L8.78906 62.4688ZM15.2168 63.6055L12.668 71H11.127L14.3379 62.4688H15.3223L15.2168 63.6055ZM17.3496 71L14.7949 63.6055L14.6836 62.4688H15.6738L18.8965 71H17.3496ZM17.2266 67.8359V69.002H12.5859V67.8359H17.2266ZM22.3301 71H20.5078L20.5195 69.834H22.3301C22.8574 69.834 23.2988 69.7188 23.6543 69.4883C24.0137 69.2578 24.2832 68.9277 24.4629 68.498C24.6465 68.0684 24.7383 67.5566 24.7383 66.9629V66.5C24.7383 66.0391 24.6855 65.6309 24.5801 65.2754C24.4785 64.9199 24.3262 64.6211 24.123 64.3789C23.9238 64.1367 23.6777 63.9531 23.3848 63.8281C23.0957 63.7031 22.7617 63.6406 22.3828 63.6406H20.4727V62.4688H22.3828C22.9492 62.4688 23.4668 62.5645 23.9355 62.7559C24.4043 62.9434 24.8086 63.2148 25.1484 63.5703C25.4922 63.9258 25.7559 64.3516 25.9395 64.8477C26.123 65.3438 26.2148 65.8984 26.2148 66.5117V66.9629C26.2148 67.5762 26.123 68.1309 25.9395 68.627C25.7559 69.123 25.4922 69.5488 25.1484 69.9043C24.8047 70.2559 24.3945 70.5273 23.918 70.7188C23.4453 70.9062 22.916 71 22.3301 71ZM21.3223 62.4688V71H19.8516V62.4688H21.3223ZM33.2754 69.834V71H28.7461V69.834H33.2754ZM29.1621 62.4688V71H27.6914V62.4688H29.1621ZM32.6836 66.0312V67.1797H28.7461V66.0312H32.6836ZM33.2461 62.4688V63.6406H28.7461V62.4688H33.2461ZM39.0352 62.4688V71H37.5645V62.4688H39.0352ZM47.6309 62.4688V71H46.1602L42.334 64.8887V71H40.8633V62.4688H42.334L46.1719 68.5918V62.4688H47.6309ZM57.1582 62.4688H58.623V68.1699C58.623 68.8184 58.4824 69.3613 58.2012 69.7988C57.9199 70.2363 57.5371 70.5664 57.0527 70.7891C56.5723 71.0078 56.0352 71.1172 55.4414 71.1172C54.8281 71.1172 54.2812 71.0078 53.8008 70.7891C53.3203 70.5664 52.9414 70.2363 52.6641 69.7988C52.3906 69.3613 52.2539 68.8184 52.2539 68.1699V62.4688H53.7188V68.1699C53.7188 68.5801 53.7891 68.918 53.9297 69.1836C54.0703 69.4453 54.2695 69.6387 54.5273 69.7637C54.7852 69.8887 55.0898 69.9512 55.4414 69.9512C55.793 69.9512 56.0957 69.8887 56.3496 69.7637C56.6074 69.6387 56.8066 69.4453 56.9473 69.1836C57.0879 68.918 57.1582 68.5801 57.1582 68.1699V62.4688ZM64.7109 68.8027C64.7109 68.627 64.6836 68.4707 64.6289 68.334C64.5781 68.1973 64.4863 68.0723 64.3535 67.959C64.2207 67.8457 64.0332 67.7363 63.791 67.6309C63.5527 67.5215 63.248 67.4102 62.877 67.2969C62.4707 67.1719 62.0957 67.0332 61.752 66.8809C61.4121 66.7246 61.1152 66.5449 60.8613 66.3418C60.6074 66.1348 60.4102 65.8984 60.2695 65.6328C60.1289 65.3633 60.0586 65.0527 60.0586 64.7012C60.0586 64.3535 60.1309 64.0371 60.2754 63.752C60.4238 63.4668 60.6328 63.2207 60.9023 63.0137C61.1758 62.8027 61.498 62.6406 61.8691 62.5273C62.2402 62.4102 62.6504 62.3516 63.0996 62.3516C63.7324 62.3516 64.2773 62.4688 64.7344 62.7031C65.1953 62.9375 65.5488 63.252 65.7949 63.6465C66.0449 64.041 66.1699 64.4766 66.1699 64.9531H64.7109C64.7109 64.6719 64.6504 64.4238 64.5293 64.209C64.4121 63.9902 64.2324 63.8184 63.9902 63.6934C63.752 63.5684 63.4492 63.5059 63.082 63.5059C62.7344 63.5059 62.4453 63.5586 62.2148 63.6641C61.9844 63.7695 61.8125 63.9121 61.6992 64.0918C61.5859 64.2715 61.5293 64.4746 61.5293 64.7012C61.5293 64.8613 61.5664 65.0078 61.6406 65.1406C61.7148 65.2695 61.8281 65.3906 61.9805 65.5039C62.1328 65.6133 62.3242 65.7168 62.5547 65.8145C62.7852 65.9121 63.0566 66.0059 63.3691 66.0957C63.8418 66.2363 64.2539 66.3926 64.6055 66.5645C64.957 66.7324 65.25 66.9238 65.4844 67.1387C65.7188 67.3535 65.8945 67.5977 66.0117 67.8711C66.1289 68.1406 66.1875 68.4473 66.1875 68.791C66.1875 69.1504 66.1152 69.4746 65.9707 69.7637C65.8262 70.0488 65.6191 70.293 65.3496 70.4961C65.084 70.6953 64.7637 70.8496 64.3887 70.959C64.0176 71.0645 63.6035 71.1172 63.1465 71.1172C62.7363 71.1172 62.332 71.0625 61.9336 70.9531C61.5391 70.8438 61.1797 70.6777 60.8555 70.4551C60.5312 70.2285 60.2734 69.9473 60.082 69.6113C59.8906 69.2715 59.7949 68.875 59.7949 68.4219H61.2656C61.2656 68.6992 61.3125 68.9355 61.4062 69.1309C61.5039 69.3262 61.6387 69.4863 61.8105 69.6113C61.9824 69.7324 62.1816 69.8223 62.4082 69.8809C62.6387 69.9395 62.8848 69.9688 63.1465 69.9688C63.4902 69.9688 63.7773 69.9199 64.0078 69.8223C64.2422 69.7246 64.418 69.5879 64.5352 69.4121C64.6523 69.2363 64.7109 69.0332 64.7109 68.8027ZM70.8105 63.6055L68.2617 71H66.7207L69.9316 62.4688H70.916L70.8105 63.6055ZM72.9434 71L70.3887 63.6055L70.2773 62.4688H71.2676L74.4902 71H72.9434ZM72.8203 67.8359V69.002H68.1797V67.8359H72.8203Z" fill="#0D415F"/>
<defs>
<clipPath id="clip0_190_1420">
<rect width="56" height="56" fill="white" transform="translate(9.5)"/>
</clipPath>
</defs>
</svg>
