<svg width="86" height="74" viewBox="0 0 86 74" fill="none" xmlns="http://www.w3.org/2000/svg">
<path d="M54.2234 17.2432H20.5532C20.0367 17.2432 19.6179 17.662 19.6179 18.1784V37.8193H22.4237C23.4568 37.8193 24.2942 38.6567 24.2942 39.6899C24.2942 40.7229 23.4567 41.5604 22.4237 41.5604H19.6179V44.3662C19.6179 44.8827 20.0367 45.3015 20.5532 45.3015H55.1587V18.1784C55.1587 17.6619 54.7399 17.2432 54.2234 17.2432Z" fill="#26A9E0"/>
<path d="M66.3821 32.208H55.1587V45.3019H70.1232V35.9492C70.1232 33.883 68.4482 32.208 66.3821 32.208Z" fill="#26A9E0"/>
<path d="M55.1587 35.0137H65.291C66.3241 35.0137 67.1615 35.851 67.1615 36.8842V45.3017H55.1587V35.0137Z" fill="#0096DC"/>
<path d="M62.6409 20.9844H55.1587V24.7255H65.4468V23.7903C65.4468 22.2405 64.1906 20.9844 62.6409 20.9844Z" fill="#26A9E0"/>
<path d="M66.3821 32.2078L64.5115 24.7256H55.1587V32.2078H66.3821Z" fill="#B4E6FF"/>
<path d="M66.3821 35.9492H70.1233V39.6904H68.2527C67.2196 39.6904 66.3822 38.853 66.3822 37.8199V35.9492H66.3821Z" fill="#F1F4FB"/>
<path d="M61.7057 38.7549C58.8868 38.7549 56.4344 40.3151 55.1587 42.6177V45.3019H69.1233C68.662 41.612 65.5206 38.7549 61.7057 38.7549Z" fill="#007DC8"/>
<path d="M67.1614 41.1235V45.3019H69.1232C68.9224 43.6954 68.2129 42.2473 67.1614 41.1235Z" fill="#0096DC"/>
<path d="M61.7057 50.9134C64.2885 50.9134 66.3822 48.8197 66.3822 46.237C66.3822 43.6543 64.2885 41.5605 61.7057 41.5605C59.123 41.5605 57.0293 43.6543 57.0293 46.237C57.0293 48.8197 59.123 50.9134 61.7057 50.9134Z" fill="white"/>
<path d="M58.8998 27.5314H65.2129L64.5115 24.7256H55.1587V32.2078H57.9645V28.4666C57.9644 27.95 58.3832 27.5314 58.8998 27.5314Z" fill="#9BD6FF"/>
<path d="M30.8413 38.7549C28.4796 38.7549 26.3767 39.8517 25.0056 41.5607H22.4238H19.6179V44.3665C19.6179 44.8829 20.0367 45.3017 20.5532 45.3017H55.1587V41.5606H36.677C35.3059 39.8518 33.2031 38.7549 30.8413 38.7549Z" fill="#00AAF0"/>
<path d="M30.8412 50.9134C33.424 50.9134 35.5177 48.8197 35.5177 46.237C35.5177 43.6543 33.424 41.5605 30.8412 41.5605C28.2585 41.5605 26.1648 43.6543 26.1648 46.237C26.1648 48.8197 28.2585 50.9134 30.8412 50.9134Z" fill="white"/>
<path d="M67.0798 31.3839L65.6296 25.5832C66.0261 25.4989 66.3236 25.1472 66.3236 24.7258V23.7905C66.3236 21.7598 64.6715 20.1079 62.6409 20.1079H56.0355V18.1788C56.0355 17.1796 55.2227 16.3667 54.2234 16.3667H41.9412L49.405 13.3812C49.8546 13.2014 50.0733 12.691 49.8935 12.2414C49.7137 11.7918 49.2035 11.573 48.7537 11.7529L42.6425 14.1973C44.5047 13.0025 46.3471 11.6875 47.0485 10.7679C48.4141 8.97752 48.0682 6.41005 46.2779 5.0445C44.4875 3.67885 41.92 4.0248 40.5545 5.81516C39.5568 7.1235 38.2403 10.7997 37.3883 13.3903C36.5363 10.7999 35.2198 7.1235 34.2221 5.81516C32.8567 4.0248 30.2891 3.67907 28.4987 5.0445C26.7084 6.40994 26.3626 8.97741 27.7281 10.7679C28.4295 11.6876 30.2718 13.0025 32.1341 14.1973L26.0229 11.7529C25.5731 11.5728 25.0629 11.7917 24.8831 12.2414C24.7032 12.691 24.922 13.2014 25.3716 13.3812L32.8353 16.3667H20.5532C19.5539 16.3667 18.7411 17.1796 18.7411 18.1788V34.0786C18.7411 34.5628 19.1336 34.9555 19.6179 34.9555C20.1022 34.9555 20.4948 34.563 20.4948 34.0786V18.1788C20.4948 18.1465 20.5209 18.1204 20.5532 18.1204H54.2233C54.2556 18.1204 54.2817 18.1465 54.2817 18.1788V34.0789C54.2817 34.5631 54.6743 34.9557 55.1586 34.9557C55.6428 34.9557 56.0354 34.5632 56.0354 34.0789V33.0849H66.3786C66.3796 33.0849 66.3803 33.0851 66.3813 33.0851C66.3823 33.0851 66.3832 33.085 66.3842 33.085C67.6568 33.086 68.7375 33.9214 69.1085 35.0724H66.382C65.8978 35.0724 65.5051 35.465 65.5051 35.9493V37.8198C65.5051 39.3348 66.7375 40.5672 68.2525 40.5672H69.2463V44.4252H66.9536C66.2004 42.2505 64.1331 40.684 61.7055 40.684C59.278 40.684 57.2105 42.2505 56.4575 44.4252H56.0353V37.8197C56.0353 37.3355 55.6428 36.9429 55.1585 36.9429C54.6742 36.9429 54.2816 37.3354 54.2816 37.8197V44.4251H36.0894C35.3362 42.2504 33.2689 40.6839 30.8413 40.6839C28.4138 40.6839 26.3463 42.2504 25.5933 44.4251H20.5532C20.5209 44.4251 20.4948 44.3989 20.4948 44.3667V42.4376H24.2944C24.7786 42.4376 25.1712 42.0451 25.1712 41.5608C25.1712 41.0766 24.7787 40.6839 24.2944 40.6839H15.8769C15.3927 40.6839 15 41.0765 15 41.5608C15 42.045 15.3925 42.4376 15.8769 42.4376H18.7412V44.3667C18.7412 45.3659 19.554 46.1788 20.5533 46.1788H25.2897C25.2895 46.1983 25.2881 46.2176 25.2881 46.2372C25.2881 49.2992 27.7794 51.7904 30.8413 51.7904C33.9033 51.7904 36.3945 49.2992 36.3945 46.2372C36.3945 46.2175 36.3932 46.1983 36.393 46.1788H56.1538C56.1535 46.1983 56.1522 46.2176 56.1522 46.2372C56.1522 49.2992 58.6435 51.7904 61.7054 51.7904C64.7674 51.7904 67.2586 49.2992 67.2586 46.2372C67.2586 46.2175 67.2573 46.1983 67.2571 46.1788H70.123C70.6072 46.1788 70.9999 45.7863 70.9999 45.3019V35.9492C71 33.6398 69.2963 31.7212 67.0798 31.3839ZM41.949 6.87861C42.7281 5.85716 44.193 5.65996 45.2144 6.43893C46.236 7.218 46.4332 8.68286 45.6542 9.70432C45.3505 10.1026 44.3245 11.0915 40.866 13.2407C40.1676 13.6747 39.4874 14.0827 38.8955 14.4311C39.7725 11.7339 41.1008 7.99096 41.949 6.87861ZM29.1225 9.70432C28.3434 8.68286 28.5407 7.218 29.5623 6.43893C29.9834 6.1178 30.4797 5.9626 30.9725 5.9626C31.6749 5.9626 32.3698 6.27825 32.8278 6.87872C33.676 7.99085 35.0044 11.734 35.8813 14.4313C35.2894 14.0829 34.6091 13.675 33.9108 13.241C30.4522 11.0916 29.4262 10.1027 29.1225 9.70432ZM56.0355 25.6025H63.8269L65.259 31.3311H56.0355V25.6025ZM62.6409 21.8613C63.7046 21.8613 64.57 22.7267 64.57 23.7904V23.8488H56.0355V21.8613H62.6409ZM30.8413 50.0368C28.7463 50.0368 27.0417 48.3323 27.0417 46.2372C27.0417 44.1421 28.7463 42.4376 30.8413 42.4376C32.9364 42.4376 34.6409 44.1421 34.6409 46.2372C34.6409 48.3322 32.9364 50.0368 30.8413 50.0368ZM61.7056 50.0368C59.6106 50.0368 57.9061 48.3323 57.9061 46.2372C57.9061 44.1421 59.6106 42.4376 61.7056 42.4376C63.8007 42.4376 65.5052 44.1421 65.5052 46.2372C65.5052 48.3322 63.8007 50.0368 61.7056 50.0368ZM68.2526 38.8134C67.7046 38.8134 67.2588 38.3676 67.2588 37.8196V36.8258H69.2463V38.8133H68.2526V38.8134Z" fill="#404041"/>
<path d="M30.8414 44.4253C29.8422 44.4253 29.0293 45.2382 29.0293 46.2374C29.0293 47.2367 29.8422 48.0495 30.8414 48.0495C31.8407 48.0495 32.6535 47.2367 32.6535 46.2374C32.6535 45.2382 31.8407 44.4253 30.8414 44.4253Z" fill="#404041"/>
<path d="M61.7057 44.4253C60.7064 44.4253 59.8936 45.2382 59.8936 46.2374C59.8936 47.2367 60.7064 48.0495 61.7057 48.0495C62.7049 48.0495 63.5178 47.2367 63.5178 46.2374C63.5178 45.2382 62.7049 44.4253 61.7057 44.4253Z" fill="#404041"/>
<path d="M37.4468 41.5609C37.4468 42.0451 37.8393 42.4378 38.3236 42.4378H51.4175C51.9017 42.4378 52.2943 42.0453 52.2943 41.5609C52.2943 41.0767 51.9018 40.6841 51.4175 40.6841H38.3235C37.8393 40.6841 37.4468 41.0767 37.4468 41.5609Z" fill="#404041"/>
<path d="M17.7475 38.6966H28.9709C29.4551 38.6966 29.8477 38.304 29.8477 37.8197C29.8477 37.3354 29.4552 36.9429 28.9709 36.9429H17.7475C17.2633 36.9429 16.8706 37.3354 16.8706 37.8197C16.8706 38.304 17.2633 38.6966 17.7475 38.6966Z" fill="#404041"/>
<path d="M28.9708 25.6024C29.455 25.6024 29.8477 25.2098 29.8477 24.7255C29.8477 24.2412 29.4551 23.8486 28.9708 23.8486H25.2296C24.7454 23.8486 24.3528 24.2412 24.3528 24.7255V32.2077C24.3528 32.6919 24.7453 33.0846 25.2296 33.0846C25.7138 33.0846 26.1065 32.692 26.1065 32.2077V29.3434H28.0355C28.5198 29.3434 28.9124 28.9509 28.9124 28.4666C28.9124 27.9824 28.5199 27.5897 28.0355 27.5897H26.1065V25.6024H28.9708Z" fill="white"/>
<path d="M37.3298 27.0637C37.3298 25.2909 35.8876 23.8486 34.1147 23.8486H31.7765C31.2923 23.8486 30.8997 24.2412 30.8997 24.7255V32.2077C30.8997 32.6919 31.2922 33.0846 31.7765 33.0846C32.2607 33.0846 32.6534 32.692 32.6534 32.2077V30.2787H34.1131L35.7233 32.694C35.8923 32.9474 36.1702 33.0846 36.4536 33.0846C36.6208 33.0846 36.7897 33.0369 36.9391 32.9371C37.3421 32.6686 37.451 32.1242 37.1823 31.7213L35.871 29.7544C36.7486 29.1798 37.3298 28.1886 37.3298 27.0637ZM32.6534 25.6024H34.1147C34.9206 25.6024 35.5761 26.2578 35.5761 27.0637C35.5761 27.8696 34.9206 28.5251 34.1147 28.5251H32.6534V25.6024Z" fill="white"/>
<path d="M43.0001 25.6024C43.4843 25.6024 43.877 25.2098 43.877 24.7255C43.877 24.2412 43.4844 23.8486 43.0001 23.8486H39.2589C38.7747 23.8486 38.3821 24.2412 38.3821 24.7255V32.2077C38.3821 32.6919 38.7746 33.0846 39.2589 33.0846H43.0001C43.4843 33.0846 43.877 32.692 43.877 32.2077C43.877 31.7235 43.4844 31.3309 43.0001 31.3309H40.1358V29.3405C40.1552 29.3418 40.1745 29.3434 40.1942 29.3434H42.0647C42.5489 29.3434 42.9416 28.9509 42.9416 28.4666C42.9416 27.9824 42.549 27.5897 42.0647 27.5897H40.1942C40.1744 27.5897 40.1552 27.5913 40.1358 27.5926V25.6024H43.0001Z" fill="white"/>
<path d="M49.547 25.6024C50.0312 25.6024 50.4238 25.2098 50.4238 24.7255C50.4238 24.2412 50.0313 23.8486 49.547 23.8486H45.8058C45.3216 23.8486 44.929 24.2412 44.929 24.7255V32.2077C44.929 32.6919 45.3215 33.0846 45.8058 33.0846H49.547C50.0312 33.0846 50.4238 32.692 50.4238 32.2077C50.4238 31.7235 50.0313 31.3309 49.547 31.3309H46.6827V29.3434H47.6765C48.1607 29.3434 48.5533 28.9509 48.5533 28.4666C48.5533 27.9824 48.1608 27.5897 47.6765 27.5897H46.6827V25.6024H49.547Z" fill="white"/>
<path d="M2.33789 62.4688V71H0.867188V62.4688H2.33789ZM5.81836 66.2012V67.3672H1.96289V66.2012H5.81836ZM6.30469 62.4688V63.6406H1.96289V62.4688H6.30469ZM7.47656 62.4688H10.4941C11.1426 62.4688 11.6953 62.5664 12.1523 62.7617C12.6094 62.957 12.959 63.2461 13.2012 63.6289C13.4473 64.0078 13.5703 64.4766 13.5703 65.0352C13.5703 65.4609 13.4922 65.8359 13.3359 66.1602C13.1797 66.4844 12.959 66.7578 12.6738 66.9805C12.3887 67.1992 12.0488 67.3691 11.6543 67.4902L11.209 67.707H8.49609L8.48438 66.541H10.5176C10.8691 66.541 11.1621 66.4785 11.3965 66.3535C11.6309 66.2285 11.8066 66.0586 11.9238 65.8438C12.0449 65.625 12.1055 65.3789 12.1055 65.1055C12.1055 64.8086 12.0469 64.5508 11.9297 64.332C11.8164 64.1094 11.6406 63.9395 11.4023 63.8223C11.1641 63.7012 10.8613 63.6406 10.4941 63.6406H8.94727V71H7.47656V62.4688ZM12.3457 71L10.3418 67.168L11.8828 67.1621L13.916 70.9238V71H12.3457ZM20.6191 69.834V71H16.0898V69.834H20.6191ZM16.5059 62.4688V71H15.0352V62.4688H16.5059ZM20.0273 66.0312V67.1797H16.0898V66.0312H20.0273ZM20.5898 62.4688V63.6406H16.0898V62.4688H20.5898ZM27.4043 69.834V71H22.875V69.834H27.4043ZM23.291 62.4688V71H21.8203V62.4688H23.291ZM26.8125 66.0312V67.1797H22.875V66.0312H26.8125ZM27.375 62.4688V63.6406H22.875V62.4688H27.375ZM36.082 68.8027C36.082 68.627 36.0547 68.4707 36 68.334C35.9492 68.1973 35.8574 68.0723 35.7246 67.959C35.5918 67.8457 35.4043 67.7363 35.1621 67.6309C34.9238 67.5215 34.6191 67.4102 34.248 67.2969C33.8418 67.1719 33.4668 67.0332 33.123 66.8809C32.7832 66.7246 32.4863 66.5449 32.2324 66.3418C31.9785 66.1348 31.7812 65.8984 31.6406 65.6328C31.5 65.3633 31.4297 65.0527 31.4297 64.7012C31.4297 64.3535 31.502 64.0371 31.6465 63.752C31.7949 63.4668 32.0039 63.2207 32.2734 63.0137C32.5469 62.8027 32.8691 62.6406 33.2402 62.5273C33.6113 62.4102 34.0215 62.3516 34.4707 62.3516C35.1035 62.3516 35.6484 62.4688 36.1055 62.7031C36.5664 62.9375 36.9199 63.252 37.166 63.6465C37.416 64.041 37.541 64.4766 37.541 64.9531H36.082C36.082 64.6719 36.0215 64.4238 35.9004 64.209C35.7832 63.9902 35.6035 63.8184 35.3613 63.6934C35.123 63.5684 34.8203 63.5059 34.4531 63.5059C34.1055 63.5059 33.8164 63.5586 33.5859 63.6641C33.3555 63.7695 33.1836 63.9121 33.0703 64.0918C32.957 64.2715 32.9004 64.4746 32.9004 64.7012C32.9004 64.8613 32.9375 65.0078 33.0117 65.1406C33.0859 65.2695 33.1992 65.3906 33.3516 65.5039C33.5039 65.6133 33.6953 65.7168 33.9258 65.8145C34.1562 65.9121 34.4277 66.0059 34.7402 66.0957C35.2129 66.2363 35.625 66.3926 35.9766 66.5645C36.3281 66.7324 36.6211 66.9238 36.8555 67.1387C37.0898 67.3535 37.2656 67.5977 37.3828 67.8711C37.5 68.1406 37.5586 68.4473 37.5586 68.791C37.5586 69.1504 37.4863 69.4746 37.3418 69.7637C37.1973 70.0488 36.9902 70.293 36.7207 70.4961C36.4551 70.6953 36.1348 70.8496 35.7598 70.959C35.3887 71.0645 34.9746 71.1172 34.5176 71.1172C34.1074 71.1172 33.7031 71.0625 33.3047 70.9531C32.9102 70.8438 32.5508 70.6777 32.2266 70.4551C31.9023 70.2285 31.6445 69.9473 31.4531 69.6113C31.2617 69.2715 31.166 68.875 31.166 68.4219H32.6367C32.6367 68.6992 32.6836 68.9355 32.7773 69.1309C32.875 69.3262 33.0098 69.4863 33.1816 69.6113C33.3535 69.7324 33.5527 69.8223 33.7793 69.8809C34.0098 69.9395 34.2559 69.9688 34.5176 69.9688C34.8613 69.9688 35.1484 69.9199 35.3789 69.8223C35.6133 69.7246 35.7891 69.5879 35.9062 69.4121C36.0234 69.2363 36.082 69.0332 36.082 68.8027ZM44.4961 66.0312V67.1973H39.9668V66.0312H44.4961ZM40.3301 62.4688V71H38.8594V62.4688H40.3301ZM45.627 62.4688V71H44.1621V62.4688H45.627ZM48.9492 62.4688V71H47.4785V62.4688H48.9492ZM54.0176 67.8184H51.7969V66.6523H54.0176C54.4043 66.6523 54.7168 66.5898 54.9551 66.4648C55.1934 66.3398 55.3672 66.168 55.4766 65.9492C55.5898 65.7266 55.6465 65.4727 55.6465 65.1875C55.6465 64.918 55.5898 64.666 55.4766 64.4316C55.3672 64.1934 55.1934 64.002 54.9551 63.8574C54.7168 63.7129 54.4043 63.6406 54.0176 63.6406H52.248V71H50.7773V62.4688H54.0176C54.6777 62.4688 55.2383 62.5859 55.6992 62.8203C56.1641 63.0508 56.5176 63.3711 56.7598 63.7812C57.002 64.1875 57.123 64.6523 57.123 65.1758C57.123 65.7266 57.002 66.1992 56.7598 66.5938C56.5176 66.9883 56.1641 67.291 55.6992 67.502C55.2383 67.7129 54.6777 67.8184 54.0176 67.8184ZM61.6816 67.8184H59.4609V66.6523H61.6816C62.0684 66.6523 62.3809 66.5898 62.6191 66.4648C62.8574 66.3398 63.0312 66.168 63.1406 65.9492C63.2539 65.7266 63.3105 65.4727 63.3105 65.1875C63.3105 64.918 63.2539 64.666 63.1406 64.4316C63.0312 64.1934 62.8574 64.002 62.6191 63.8574C62.3809 63.7129 62.0684 63.6406 61.6816 63.6406H59.9121V71H58.4414V62.4688H61.6816C62.3418 62.4688 62.9023 62.5859 63.3633 62.8203C63.8281 63.0508 64.1816 63.3711 64.4238 63.7812C64.666 64.1875 64.7871 64.6523 64.7871 65.1758C64.7871 65.7266 64.666 66.1992 64.4238 66.5938C64.1816 66.9883 63.8281 67.291 63.3633 67.502C62.9023 67.7129 62.3418 67.8184 61.6816 67.8184ZM67.6758 62.4688V71H66.2051V62.4688H67.6758ZM76.2715 62.4688V71H74.8008L70.9746 64.8887V71H69.5039V62.4688H70.9746L74.8125 68.5918V62.4688H76.2715ZM84.5742 66.6406V69.8984C84.4531 70.0586 84.2637 70.2344 84.0059 70.4258C83.752 70.6133 83.4141 70.7754 82.9922 70.9121C82.5703 71.0488 82.0449 71.1172 81.416 71.1172C80.8809 71.1172 80.3906 71.0273 79.9453 70.8477C79.5 70.6641 79.1152 70.3965 78.791 70.0449C78.4707 69.6934 78.2227 69.2656 78.0469 68.7617C77.8711 68.2539 77.7832 67.6758 77.7832 67.0273V66.4355C77.7832 65.791 77.8633 65.2168 78.0234 64.7129C78.1875 64.2051 78.4219 63.7754 78.7266 63.4238C79.0312 63.0723 79.3984 62.8066 79.8281 62.627C80.2617 62.4434 80.752 62.3516 81.2988 62.3516C81.998 62.3516 82.5762 62.4688 83.0332 62.7031C83.4941 62.9336 83.8496 63.2539 84.0996 63.6641C84.3496 64.0742 84.5078 64.543 84.5742 65.0703H83.1328C83.0859 64.7734 82.9941 64.5078 82.8574 64.2734C82.7246 64.0391 82.5332 63.8555 82.2832 63.7227C82.0371 63.5859 81.7168 63.5176 81.3223 63.5176C80.9824 63.5176 80.6836 63.582 80.4258 63.7109C80.168 63.8398 79.9531 64.0293 79.7812 64.2793C79.6133 64.5293 79.4863 64.834 79.4004 65.1934C79.3145 65.5527 79.2715 65.9629 79.2715 66.4238V67.0273C79.2715 67.4961 79.3203 67.9121 79.418 68.2754C79.5195 68.6387 79.6641 68.9453 79.8516 69.1953C80.043 69.4453 80.2754 69.6348 80.5488 69.7637C80.8223 69.8887 81.1309 69.9512 81.4746 69.9512C81.8105 69.9512 82.0859 69.9238 82.3008 69.8691C82.5156 69.8105 82.6855 69.7422 82.8105 69.6641C82.9395 69.582 83.0391 69.5039 83.1094 69.4297V67.7363H81.334V66.6406H84.5742Z" fill="#0D415F"/>
</svg>
