<svg width="41" height="9" viewBox="0 0 41 9" fill="none" xmlns="http://www.w3.org/2000/svg">
<g clip-path="url(#clip0_11_550)">
<path fill-rule="evenodd" clip-rule="evenodd" d="M5.66481 2.14672C3.76478 2.74413 2.37387 3.53749 1.72256 4.31918L1.46549 4.10499L1.72283 4.31886C1.69971 4.34668 1.66607 4.4137 1.64198 4.53689C1.61906 4.65412 1.61027 4.79352 1.61308 4.93616L1.61311 4.93774C1.61782 5.25219 1.76375 5.54877 2.01552 5.74745L2.01841 5.74973C2.61052 6.22763 3.63674 7.02235 4.30881 7.43837L4.31334 7.44123C4.62802 7.64305 5.00074 7.75759 5.39007 7.77967C6.04976 7.81064 7.07703 7.84714 7.83466 7.82289C8.05126 7.81384 8.26463 7.72092 8.52345 7.54374C8.68845 7.43078 8.84416 7.30489 9.01955 7.16309C9.1361 7.06886 9.26134 6.96761 9.40377 6.85845C10.0897 6.33277 10.9833 5.7882 12.3741 5.77482L12.3773 5.77479L12.5301 5.7748C13.921 5.78819 14.8131 6.33286 15.4983 6.85857C15.6395 6.96696 15.764 7.06761 15.8798 7.16133C16.056 7.30387 16.2124 7.43036 16.378 7.54365C16.6369 7.72065 16.8511 7.81384 17.0696 7.82289C17.8209 7.84713 18.848 7.81065 19.5142 7.77967C19.902 7.75767 20.2698 7.6437 20.593 7.43986L20.5999 7.43564C20.8444 7.28955 21.1387 7.08365 21.4446 6.85889L19.9982 2.40636C18.0067 1.66542 15.3728 1.16922 12.5331 1.16922H12.3836C9.88923 1.16922 7.55042 1.55384 5.66481 2.14672ZM5.46408 1.50831C7.41724 0.894191 9.82393 0.5 12.3836 0.5H12.5331C15.5175 0.5 18.2944 1.03357 20.3868 1.83788C20.481 1.87408 20.5538 1.95086 20.585 2.04683L22.1554 6.88103C22.1997 7.01735 22.1522 7.16673 22.0374 7.2525C21.6644 7.53111 21.2736 7.81237 20.9466 8.0081C20.5232 8.27423 20.0453 8.42014 19.5502 8.44792L19.547 8.4481C18.8799 8.47914 17.8275 8.517 17.0466 8.49171L17.044 8.49163C16.6428 8.47557 16.3036 8.30347 16.0003 8.09605C15.8174 7.97097 15.6206 7.81236 15.4249 7.65451C15.3123 7.56376 15.2 7.47325 15.0909 7.38951C14.4661 6.91011 13.7134 6.45585 12.5252 6.44402H12.379C11.1907 6.45585 10.4364 6.9102 9.81085 7.38962C9.70089 7.47389 9.58772 7.56507 9.47429 7.65646C9.27915 7.81368 9.08322 7.97154 8.90148 8.09595C8.59878 8.30318 8.26019 8.47553 7.86028 8.49162L7.85758 8.49173C7.07045 8.51701 6.0182 8.47913 5.35712 8.44808L5.35407 8.44794C4.85993 8.42021 4.3741 8.27462 3.95436 8.00602C3.24353 7.56566 2.19099 6.749 1.59942 6.27158C1.19178 5.94916 0.95196 5.46472 0.943981 4.94857C0.940602 4.77494 0.950538 4.58573 0.985205 4.40845C1.01876 4.23688 1.08171 4.04326 1.20815 3.89112L1.20842 3.8908C1.9842 2.95972 3.52534 2.1179 5.46408 1.50831Z" fill="#1E415F"/>
<path fill-rule="evenodd" clip-rule="evenodd" d="M20.312 1.82484C20.439 1.84214 20.545 1.93052 20.5849 2.05239L22.1678 6.8928C22.2015 6.9959 22.1831 7.10895 22.1185 7.19608C22.0539 7.28322 21.9511 7.33364 21.8426 7.33134C21.2568 7.31892 20.6608 7.30025 20.2308 7.27512C19.7164 7.25145 19.2289 6.99913 18.9241 6.5789L18.9231 6.57748V6.57747C18.8248 6.44046 18.7208 6.28156 18.6442 6.11778C18.5711 5.96162 18.5053 5.76464 18.525 5.56005C18.5944 4.55377 19.1084 3.29484 19.9882 1.97117C20.0592 1.86438 20.1849 1.80755 20.312 1.82484ZM20.1711 2.94011C19.563 3.978 19.2401 4.90212 19.1923 5.61062C19.192 5.61485 19.1917 5.61908 19.1912 5.62329C19.1882 5.65198 19.1965 5.71909 19.2504 5.83417C19.3014 5.94322 19.3779 6.06331 19.4664 6.18667C19.6472 6.43559 19.9436 6.59243 20.2631 6.60668L20.2677 6.60688V6.60692C20.5721 6.62474 20.9665 6.63941 21.3846 6.65086L20.1711 2.94011Z" fill="#1E415F"/>
<path fill-rule="evenodd" clip-rule="evenodd" d="M10.4981 3.75241C10.4977 3.75321 10.4972 3.75475 10.4972 3.75748C10.4972 3.7602 10.4977 3.76174 10.4981 3.76254C10.4985 3.76346 10.499 3.76425 10.4997 3.76493C10.5004 3.76561 10.5012 3.76623 10.5024 3.76671C10.5034 3.76714 10.5053 3.7677 10.5083 3.7677H13.8361C13.8392 3.7677 13.8411 3.76714 13.8421 3.76671C13.8432 3.76623 13.8441 3.76561 13.8448 3.76493C13.8455 3.76425 13.846 3.76346 13.8464 3.76254C13.8467 3.76174 13.8472 3.7602 13.8472 3.75748C13.8472 3.75475 13.8467 3.75321 13.8464 3.75241C13.846 3.7515 13.8455 3.75071 13.8448 3.75003C13.8441 3.74934 13.8432 3.74872 13.8421 3.74824C13.8411 3.74781 13.8392 3.74725 13.8361 3.74725H10.5083C10.5053 3.74725 10.5034 3.74781 10.5024 3.74824C10.5012 3.74872 10.5004 3.74934 10.4997 3.75003C10.499 3.75071 10.4985 3.7515 10.4981 3.75241ZM10.0957 3.75748C10.0957 3.52789 10.2799 3.34572 10.5083 3.34572H13.8361C14.0646 3.34572 14.2488 3.52789 14.2488 3.75748C14.2488 3.98706 14.0646 4.16923 13.8361 4.16923H10.5083C10.2799 4.16923 10.0957 3.98706 10.0957 3.75748Z" fill="#1E415F"/>
<path fill-rule="evenodd" clip-rule="evenodd" d="M24.3725 6.72108C24.2153 6.59002 24.1941 6.35639 24.3252 6.19923L27.1728 2.78456C27.3038 2.6274 27.5375 2.60624 27.6946 2.7373C27.8518 2.86835 27.8729 3.10199 27.7419 3.25915L24.8943 6.67382C24.7633 6.83098 24.5296 6.85214 24.3725 6.72108Z" fill="#1E415F"/>
<path fill-rule="evenodd" clip-rule="evenodd" d="M27.6939 6.68797C27.5399 6.82269 27.3058 6.80704 27.1711 6.65301L24.2439 3.30634C24.1092 3.15232 24.1249 2.91824 24.2789 2.78353C24.4329 2.64881 24.667 2.66446 24.8017 2.81848L27.7289 6.16515C27.8636 6.31918 27.8479 6.55325 27.6939 6.68797Z" fill="#1E415F"/>
<path d="M33.5859 4.6751C34.0979 4.4351 34.3779 4.0191 34.3779 3.4671C34.3779 2.5311 33.5619 1.9471 32.3459 1.9471C31.1379 1.9471 30.3299 2.5311 30.3299 3.4671C30.3299 4.0191 30.6019 4.4351 31.1139 4.6751C30.4819 4.9151 30.1299 5.3871 30.1299 6.0271C30.1299 7.0431 30.9859 7.6751 32.3459 7.6751C33.7139 7.6751 34.5779 7.0431 34.5779 6.0271C34.5779 5.3871 34.2259 4.9231 33.5859 4.6751ZM32.3459 2.5951C33.0979 2.5951 33.5939 2.9391 33.5939 3.4991C33.5939 4.0511 33.1219 4.3951 32.3459 4.3951C31.5779 4.3951 31.1219 4.0511 31.1219 3.4991C31.1219 2.9391 31.5939 2.5951 32.3459 2.5951ZM32.3459 7.0271C31.4579 7.0271 30.9299 6.6351 30.9299 6.0031C30.9299 5.3871 31.4579 5.0031 32.3459 5.0031C33.2339 5.0031 33.7779 5.3871 33.7779 6.0031C33.7779 6.6351 33.2339 7.0271 32.3459 7.0271Z" fill="#1E415F"/>
<path d="M40.1825 5.5471H39.1185V4.3311H38.3665V5.5471H36.2145L38.9585 2.0111H38.0945L35.2305 5.6751V6.2351H38.3425V7.6111H39.1185V6.2351H40.1825V5.5471Z" fill="#1E415F"/>
</g>
<defs>
<clipPath id="clip0_11_550">
<rect width="41" height="8" fill="white" transform="translate(0 0.5)"/>
</clipPath>
</defs>
</svg>
