<svg width="41" height="9" viewBox="0 0 41 9" fill="none" xmlns="http://www.w3.org/2000/svg">
<g clip-path="url(#clip0_11_714)">
<path fill-rule="evenodd" clip-rule="evenodd" d="M4.59547 2.14672C2.81177 2.74413 1.50602 3.53749 0.894581 4.31918L0.653249 4.10499L0.894834 4.31886C0.87313 4.34668 0.841549 4.4137 0.818934 4.53689C0.797417 4.65412 0.789165 4.79352 0.791803 4.93616L0.791831 4.93774C0.796253 5.25219 0.933249 5.54877 1.16961 5.74745L1.17232 5.74973C1.72818 6.22763 2.69157 7.02235 3.32249 7.43837L3.32675 7.44123C3.62216 7.64305 3.97206 7.75759 4.33755 7.77967C4.95685 7.81064 5.92123 7.84714 6.63248 7.82289C6.83581 7.81384 7.03612 7.72092 7.27909 7.54374C7.43399 7.43078 7.58017 7.30489 7.74482 7.16309C7.85424 7.06886 7.97181 6.96761 8.10552 6.85845C8.74945 6.33277 9.58834 5.7882 10.894 5.77482L10.897 5.77479L11.0405 5.7748C12.3462 5.78819 13.1837 6.33286 13.827 6.85857C13.9595 6.96696 14.0764 7.06761 14.1851 7.16133C14.3505 7.30387 14.4973 7.43036 14.6528 7.54365C14.8958 7.72065 15.0969 7.81384 15.3021 7.82289C16.0074 7.84713 16.9716 7.81065 17.597 7.77967C17.961 7.75767 18.3063 7.6437 18.6097 7.43986L18.6162 7.43564C18.8457 7.28955 19.122 7.08365 19.4092 6.85889L18.0513 2.40636C16.1818 1.66542 13.7091 1.16922 11.0433 1.16922H10.9029C8.56126 1.16922 6.36564 1.55384 4.59547 2.14672ZM4.40703 1.50831C6.24061 0.894191 8.49995 0.5 10.9029 0.5H11.0433C13.845 0.5 16.4519 1.03357 18.4162 1.83788C18.5046 1.87408 18.5729 1.95086 18.6022 2.04683L20.0765 6.88103C20.1181 7.01735 20.0735 7.16673 19.9657 7.2525C19.6155 7.53111 19.2487 7.81237 18.9417 8.0081C18.5442 8.27423 18.0956 8.42014 17.6308 8.44792L17.6278 8.4481C17.0015 8.47914 16.0136 8.517 15.2805 8.49171L15.278 8.49163C14.9014 8.47557 14.5829 8.30347 14.2982 8.09605C14.1265 7.97097 13.9418 7.81236 13.758 7.65451C13.6523 7.56376 13.5469 7.47325 13.4445 7.38951C12.8579 6.91011 12.1513 6.45585 11.0359 6.44402H10.8986C9.78304 6.45585 9.07492 6.9102 8.48767 7.38962C8.38445 7.47389 8.27821 7.56507 8.17172 7.65646C7.98853 7.81368 7.80459 7.97154 7.63398 8.09595C7.34981 8.30318 7.03195 8.47553 6.65653 8.49162L6.65399 8.49173C5.91505 8.51701 4.92723 8.47913 4.30662 8.44808L4.30376 8.44794C3.83987 8.42021 3.38379 8.27462 2.98974 8.00602C2.32243 7.56566 1.33434 6.749 0.77898 6.27158C0.396297 5.94916 0.17116 5.46472 0.16367 4.94857C0.160497 4.77494 0.169825 4.58573 0.20237 4.40845C0.23387 4.23688 0.292966 4.04326 0.411665 3.89112L0.411918 3.8908C1.14021 2.95972 2.58699 2.1179 4.40703 1.50831Z" fill="#1E415F"/>
<path fill-rule="evenodd" clip-rule="evenodd" d="M18.346 1.82484C18.4652 1.84214 18.5647 1.93052 18.6022 2.05239L20.0882 6.8928C20.1198 6.9959 20.1025 7.10895 20.0419 7.19608C19.9812 7.28322 19.8847 7.33364 19.7829 7.33134C19.2329 7.31892 18.6734 7.30025 18.2698 7.27512C17.7869 7.25145 17.3292 6.99913 17.0431 6.5789L17.0421 6.57748V6.57747C16.9498 6.44046 16.8522 6.28156 16.7803 6.11778C16.7117 5.96162 16.6499 5.76464 16.6684 5.56005C16.7336 4.55377 17.2161 3.29484 18.042 1.97117C18.1087 1.86438 18.2267 1.80755 18.346 1.82484ZM18.2137 2.94011C17.6428 3.978 17.3397 4.90212 17.2948 5.61062C17.2946 5.61485 17.2943 5.61908 17.2938 5.62329C17.291 5.65198 17.2988 5.71909 17.3494 5.83417C17.3973 5.94322 17.4691 6.06331 17.5522 6.18667C17.7219 6.43559 18.0001 6.59243 18.3001 6.60668L18.3044 6.60688V6.60692C18.5902 6.62474 18.9604 6.63941 19.3529 6.65086L18.2137 2.94011Z" fill="#1E415F"/>
<path fill-rule="evenodd" clip-rule="evenodd" d="M9.13264 3.75239C9.13227 3.75319 9.1318 3.75473 9.1318 3.75746C9.1318 3.76018 9.13227 3.76172 9.13264 3.76252C9.13302 3.76344 9.13349 3.76423 9.13415 3.76491C9.1348 3.76559 9.13555 3.76621 9.13668 3.76669C9.13762 3.76712 9.1394 3.76768 9.14222 3.76768H12.2663C12.2692 3.76768 12.271 3.76712 12.2719 3.76669C12.2729 3.76621 12.2738 3.76559 12.2744 3.76491C12.2751 3.76423 12.2756 3.76344 12.2759 3.76252C12.2762 3.76172 12.2767 3.76018 12.2767 3.75746C12.2767 3.75473 12.2762 3.75319 12.2759 3.75239C12.2756 3.75148 12.2751 3.75069 12.2744 3.75001C12.2738 3.74932 12.2729 3.7487 12.2719 3.74822C12.271 3.74779 12.2692 3.74723 12.2663 3.74723H9.14222C9.1394 3.74723 9.13762 3.74779 9.13668 3.74822C9.13555 3.7487 9.1348 3.74932 9.13415 3.75001C9.13349 3.75069 9.13302 3.75148 9.13264 3.75239ZM8.75488 3.75746C8.75488 3.52787 8.9278 3.3457 9.14222 3.3457H12.2663C12.4808 3.3457 12.6537 3.52787 12.6537 3.75746C12.6537 3.98704 12.4808 4.16921 12.2663 4.16921H9.14222C8.9278 4.16921 8.75488 3.98704 8.75488 3.75746Z" fill="#1E415F"/>
<path fill-rule="evenodd" clip-rule="evenodd" d="M22.1583 6.72106C22.0107 6.59 21.9908 6.35637 22.1139 6.19921L24.7871 2.78454C24.9101 2.62738 25.1295 2.60622 25.277 2.73728C25.4246 2.86833 25.4444 3.10197 25.3214 3.25913L22.6481 6.6738C22.5252 6.83096 22.3058 6.85212 22.1583 6.72106Z" fill="#1E415F"/>
<path fill-rule="evenodd" clip-rule="evenodd" d="M25.2759 6.68797C25.1313 6.82269 24.9115 6.80704 24.7851 6.65301L22.0371 3.30634C21.9107 3.15232 21.9254 2.91824 22.07 2.78353C22.2145 2.64881 22.4343 2.66446 22.5608 2.81848L25.3087 6.16515C25.4352 6.31918 25.4205 6.55325 25.2759 6.68797Z" fill="#1E415F"/>
<path d="M28.5235 4.30468H29.0665C29.4076 4.29947 29.6758 4.20964 29.8711 4.03516C30.0665 3.86068 30.1641 3.62499 30.1641 3.32811C30.1641 2.66145 29.8321 2.32811 29.168 2.32811C28.8555 2.32811 28.6055 2.41797 28.418 2.59766C28.2331 2.77474 28.1407 3.01041 28.1407 3.30468H27.418C27.418 2.85416 27.5821 2.48047 27.9102 2.18359C28.2409 1.88411 28.6602 1.73438 29.168 1.73438C29.7045 1.73438 30.125 1.87629 30.4297 2.16015C30.7344 2.444 30.8868 2.83854 30.8868 3.34374C30.8868 3.59115 30.806 3.83072 30.6446 4.06249C30.4857 4.29427 30.2683 4.46744 29.9922 4.58202C30.3047 4.68098 30.5456 4.84505 30.7149 5.07422C30.8868 5.30339 30.9727 5.58332 30.9727 5.91405C30.9727 6.42447 30.806 6.82943 30.4727 7.12891C30.1394 7.42839 29.7058 7.57812 29.1719 7.57812C28.6381 7.57812 28.2032 7.43358 27.8672 7.14452C27.5339 6.85546 27.3672 6.47396 27.3672 6H28.0938C28.0938 6.29948 28.1915 6.53906 28.3868 6.71875C28.5821 6.89844 28.8438 6.98827 29.1719 6.98827C29.5209 6.98827 29.7878 6.89714 29.9727 6.71484C30.1576 6.53255 30.25 6.27082 30.25 5.92968C30.25 5.59895 30.1485 5.34505 29.9454 5.16797C29.7422 4.99089 29.4493 4.89973 29.0665 4.89452H28.5235V4.30468Z" fill="#1E415F"/>
<path d="M34.8007 1.80859V2.42188H34.6679C34.1054 2.43229 33.6575 2.59896 33.3242 2.92188C32.9908 3.24479 32.7981 3.69922 32.746 4.28516C33.0455 3.94141 33.4544 3.76953 33.9726 3.76953C34.4674 3.76953 34.8619 3.94401 35.1562 4.29297C35.4531 4.64193 35.6015 5.09245 35.6015 5.64453C35.6015 6.23047 35.4414 6.69922 35.121 7.05078C34.8033 7.40234 34.3762 7.57812 33.8398 7.57812C33.2955 7.57812 32.8541 7.36979 32.5156 6.95312C32.177 6.53385 32.0078 5.99479 32.0078 5.33594V5.05859C32.0078 4.01172 32.2304 3.21224 32.6757 2.66016C33.1236 2.10547 33.789 1.82161 34.6718 1.80859H34.8007ZM33.8515 4.37109C33.6041 4.37109 33.3762 4.44531 33.1679 4.59375C32.9596 4.74219 32.815 4.92839 32.7343 5.15234V5.41797C32.7343 5.88672 32.8398 6.26432 33.0507 6.55078C33.2617 6.83724 33.5247 6.98047 33.8398 6.98047C34.1653 6.98047 34.4205 6.86068 34.6054 6.62109C34.7929 6.38151 34.8867 6.06771 34.8867 5.67969C34.8867 5.28906 34.7916 4.97396 34.6015 4.73438C34.414 4.49219 34.164 4.37109 33.8515 4.37109Z" fill="#1E415F"/>
<path d="M36.789 4.64844L37.0781 1.8125H39.9921V2.48047H37.6914L37.5195 4.03125C37.7981 3.86719 38.1145 3.78516 38.4687 3.78516C38.9869 3.78516 39.3984 3.95703 39.7031 4.30078C40.0078 4.64193 40.1601 5.10417 40.1601 5.6875C40.1601 6.27344 40.0012 6.73568 39.6835 7.07422C39.3684 7.41016 38.927 7.57812 38.3593 7.57812C37.8567 7.57812 37.4466 7.4388 37.1289 7.16016C36.8111 6.88151 36.6302 6.49609 36.5859 6.00391H37.2695C37.3137 6.32943 37.4296 6.57552 37.6171 6.74219C37.8046 6.90625 38.052 6.98828 38.3593 6.98828C38.6953 6.98828 38.9583 6.8737 39.1484 6.64453C39.3411 6.41536 39.4374 6.09896 39.4374 5.69531C39.4374 5.3151 39.3333 5.01042 39.1249 4.78125C38.9192 4.54948 38.6445 4.43359 38.3007 4.43359C37.9856 4.43359 37.7382 4.5026 37.5585 4.64062L37.3671 4.79688L36.789 4.64844Z" fill="#1E415F"/>
</g>
<defs>
<clipPath id="clip0_11_714">
<rect width="41" height="8" fill="white" transform="translate(0 0.5)"/>
</clipPath>
</defs>
</svg>
