<svg width="40" height="9" viewBox="0 0 40 9" fill="none" xmlns="http://www.w3.org/2000/svg">
<g clip-path="url(#clip0_37_49)">
<path fill-rule="evenodd" clip-rule="evenodd" d="M5.66481 2.14672C3.76478 2.74413 2.37387 3.53749 1.72256 4.31918L1.46549 4.10499L1.72283 4.31886C1.69971 4.34668 1.66607 4.4137 1.64198 4.53689C1.61906 4.65412 1.61027 4.79352 1.61308 4.93616L1.61311 4.93774C1.61782 5.25219 1.76375 5.54877 2.01552 5.74745L2.01841 5.74973C2.61052 6.22763 3.63674 7.02235 4.30881 7.43837L4.31334 7.44123C4.62802 7.64305 5.00074 7.75759 5.39007 7.77967C6.04976 7.81064 7.07703 7.84714 7.83466 7.82289C8.05126 7.81384 8.26463 7.72092 8.52345 7.54374C8.68845 7.43078 8.84416 7.30489 9.01955 7.16309C9.1361 7.06886 9.26134 6.96761 9.40377 6.85845C10.0897 6.33277 10.9833 5.7882 12.3741 5.77482L12.3773 5.77479L12.5301 5.7748C13.921 5.78819 14.8131 6.33286 15.4983 6.85857C15.6395 6.96696 15.764 7.06761 15.8798 7.16133C16.056 7.30387 16.2124 7.43036 16.378 7.54365C16.6369 7.72065 16.8511 7.81384 17.0696 7.82289C17.8209 7.84713 18.848 7.81065 19.5142 7.77967C19.902 7.75767 20.2698 7.6437 20.593 7.43986L20.5999 7.43564C20.8444 7.28955 21.1387 7.08365 21.4446 6.85889L19.9982 2.40636C18.0067 1.66542 15.3728 1.16922 12.5331 1.16922H12.3836C9.88923 1.16922 7.55042 1.55384 5.66481 2.14672ZM5.46408 1.50831C7.41724 0.894191 9.82393 0.5 12.3836 0.5H12.5331C15.5175 0.5 18.2944 1.03357 20.3868 1.83788C20.481 1.87408 20.5538 1.95086 20.585 2.04683L22.1554 6.88103C22.1997 7.01735 22.1522 7.16673 22.0374 7.2525C21.6644 7.53111 21.2736 7.81237 20.9466 8.0081C20.5232 8.27423 20.0453 8.42014 19.5502 8.44792L19.547 8.4481C18.8799 8.47914 17.8275 8.517 17.0466 8.49171L17.044 8.49163C16.6428 8.47557 16.3036 8.30347 16.0003 8.09605C15.8174 7.97097 15.6206 7.81236 15.4249 7.65451C15.3123 7.56376 15.2 7.47325 15.0909 7.38951C14.4661 6.91011 13.7134 6.45585 12.5252 6.44402H12.379C11.1907 6.45585 10.4364 6.9102 9.81085 7.38962C9.70089 7.47389 9.58772 7.56507 9.47429 7.65646C9.27915 7.81368 9.08322 7.97154 8.90148 8.09595C8.59878 8.30318 8.26019 8.47553 7.86028 8.49162L7.85758 8.49173C7.07045 8.51701 6.0182 8.47913 5.35712 8.44808L5.35407 8.44794C4.85993 8.42021 4.3741 8.27462 3.95436 8.00602C3.24353 7.56566 2.19099 6.749 1.59942 6.27158C1.19178 5.94916 0.95196 5.46472 0.943981 4.94857C0.940602 4.77494 0.950538 4.58573 0.985205 4.40845C1.01876 4.23688 1.08171 4.04326 1.20815 3.89112L1.20842 3.8908C1.9842 2.95972 3.52534 2.1179 5.46408 1.50831Z" fill="#1E415F"/>
<path fill-rule="evenodd" clip-rule="evenodd" d="M20.312 1.82484C20.439 1.84214 20.545 1.93052 20.5849 2.05239L22.1678 6.8928C22.2015 6.9959 22.1831 7.10895 22.1185 7.19608C22.0539 7.28322 21.9511 7.33364 21.8426 7.33134C21.2568 7.31892 20.6608 7.30025 20.2308 7.27512C19.7164 7.25145 19.2289 6.99913 18.9241 6.5789L18.9231 6.57748V6.57747C18.8248 6.44046 18.7208 6.28156 18.6442 6.11778C18.5711 5.96162 18.5053 5.76464 18.525 5.56005C18.5944 4.55377 19.1084 3.29484 19.9882 1.97117C20.0592 1.86438 20.1849 1.80755 20.312 1.82484ZM20.1711 2.94011C19.563 3.978 19.2401 4.90212 19.1923 5.61062C19.192 5.61485 19.1917 5.61908 19.1912 5.62329C19.1882 5.65198 19.1965 5.71909 19.2504 5.83417C19.3014 5.94322 19.3779 6.06331 19.4664 6.18667C19.6472 6.43559 19.9436 6.59243 20.2631 6.60668L20.2677 6.60688V6.60692C20.5721 6.62474 20.9665 6.63941 21.3846 6.65086L20.1711 2.94011Z" fill="#1E415F"/>
<path fill-rule="evenodd" clip-rule="evenodd" d="M10.4981 3.75239C10.4977 3.75319 10.4972 3.75473 10.4972 3.75746C10.4972 3.76018 10.4977 3.76172 10.4981 3.76252C10.4985 3.76344 10.499 3.76423 10.4997 3.76491C10.5004 3.76559 10.5012 3.76621 10.5024 3.76669C10.5034 3.76712 10.5053 3.76768 10.5083 3.76768H13.8361C13.8392 3.76768 13.8411 3.76712 13.8421 3.76669C13.8432 3.76621 13.8441 3.76559 13.8448 3.76491C13.8455 3.76423 13.846 3.76344 13.8464 3.76252C13.8467 3.76172 13.8472 3.76018 13.8472 3.75746C13.8472 3.75473 13.8467 3.75319 13.8464 3.75239C13.846 3.75148 13.8455 3.75069 13.8448 3.75001C13.8441 3.74932 13.8432 3.7487 13.8421 3.74822C13.8411 3.74779 13.8392 3.74723 13.8361 3.74723H10.5083C10.5053 3.74723 10.5034 3.74779 10.5024 3.74822C10.5012 3.7487 10.5004 3.74932 10.4997 3.75001C10.499 3.75069 10.4985 3.75148 10.4981 3.75239ZM10.0957 3.75746C10.0957 3.52787 10.2799 3.3457 10.5083 3.3457H13.8361C14.0646 3.3457 14.2488 3.52787 14.2488 3.75746C14.2488 3.98704 14.0646 4.16921 13.8361 4.16921H10.5083C10.2799 4.16921 10.0957 3.98704 10.0957 3.75746Z" fill="#1E415F"/>
<path fill-rule="evenodd" clip-rule="evenodd" d="M24.3725 6.72105C24.2153 6.59 24.1941 6.35636 24.3252 6.1992L27.1728 2.78454C27.3038 2.62738 27.5375 2.60622 27.6946 2.73728C27.8518 2.86833 27.8729 3.10197 27.7419 3.25913L24.8943 6.67379C24.7633 6.83095 24.5296 6.85211 24.3725 6.72105Z" fill="#1E415F"/>
<path fill-rule="evenodd" clip-rule="evenodd" d="M27.6939 6.68797C27.5399 6.82269 27.3058 6.80704 27.1711 6.65301L24.2439 3.30634C24.1092 3.15232 24.1249 2.91824 24.2789 2.78353C24.4329 2.64881 24.667 2.66446 24.8017 2.81848L27.7289 6.16515C27.8636 6.31918 27.8479 6.55325 27.6939 6.68797Z" fill="#1E415F"/>
<path d="M34.3203 6.804V7.5H30.2963V6.956L32.5763 4.756C32.8536 4.48933 33.0403 4.26 33.1363 4.068C33.2323 3.87066 33.2803 3.67333 33.2803 3.476C33.2803 3.18266 33.1763 2.956 32.9683 2.796C32.7656 2.63066 32.4723 2.548 32.0883 2.548C31.4696 2.548 30.9923 2.75067 30.6563 3.156L30.1123 2.684C30.331 2.41733 30.6163 2.20933 30.9683 2.06C31.3256 1.91066 31.723 1.836 32.1603 1.836C32.747 1.836 33.2136 1.97733 33.5603 2.26C33.907 2.53733 34.0803 2.916 34.0803 3.396C34.0803 3.69466 34.0163 3.97733 33.8883 4.244C33.7603 4.51066 33.5176 4.81466 33.1603 5.156L31.4483 6.804H34.3203Z" fill="#1E415F"/>
<path d="M38.2822 4.564C38.6022 4.68666 38.8475 4.86266 39.0182 5.092C39.1888 5.32133 39.2742 5.596 39.2742 5.916C39.2742 6.252 39.1835 6.54533 39.0022 6.796C38.8208 7.04133 38.5622 7.23067 38.2262 7.364C37.8902 7.49733 37.4955 7.564 37.0422 7.564C36.5942 7.564 36.2022 7.49733 35.8662 7.364C35.5355 7.23067 35.2795 7.04133 35.0982 6.796C34.9168 6.54533 34.8262 6.252 34.8262 5.916C34.8262 5.596 34.9088 5.32133 35.0742 5.092C35.2448 4.86266 35.4902 4.68666 35.8102 4.564C35.5542 4.44133 35.3595 4.27867 35.2262 4.076C35.0928 3.87333 35.0262 3.63333 35.0262 3.356C35.0262 3.04666 35.1088 2.77733 35.2742 2.548C35.4448 2.31866 35.6822 2.14266 35.9862 2.02C36.2902 1.89733 36.6422 1.836 37.0422 1.836C37.4475 1.836 37.8022 1.89733 38.1062 2.02C38.4155 2.14266 38.6528 2.31866 38.8182 2.548C38.9888 2.77733 39.0742 3.04666 39.0742 3.356C39.0742 3.628 39.0048 3.868 38.8662 4.076C38.7328 4.27867 38.5382 4.44133 38.2822 4.564ZM37.0422 2.484C36.6635 2.484 36.3648 2.56667 36.1462 2.732C35.9275 2.892 35.8182 3.11066 35.8182 3.388C35.8182 3.66533 35.9248 3.884 36.1382 4.044C36.3568 4.204 36.6582 4.284 37.0422 4.284C37.4315 4.284 37.7355 4.204 37.9542 4.044C38.1782 3.884 38.2902 3.66533 38.2902 3.388C38.2902 3.11066 38.1755 2.892 37.9462 2.732C37.7222 2.56667 37.4208 2.484 37.0422 2.484ZM37.0422 6.916C37.4848 6.916 37.8342 6.82533 38.0902 6.644C38.3462 6.45733 38.4742 6.20666 38.4742 5.892C38.4742 5.58266 38.3462 5.34 38.0902 5.164C37.8342 4.98266 37.4848 4.892 37.0422 4.892C36.5995 4.892 36.2528 4.98266 36.0022 5.164C35.7515 5.34 35.6262 5.58266 35.6262 5.892C35.6262 6.20666 35.7515 6.45733 36.0022 6.644C36.2528 6.82533 36.5995 6.916 37.0422 6.916Z" fill="#1E415F"/>
</g>
<defs>
<clipPath id="clip0_37_49">
<rect width="40" height="8" fill="white" transform="translate(0 0.5)"/>
</clipPath>
</defs>
</svg>
