<svg width="85" height="85" viewBox="0 0 85 85" fill="none" xmlns="http://www.w3.org/2000/svg">
<path d="M19.7782 9.84267C36.11 9.84267 47.3253 1.38281 55.1949 1.38281C63.0645 1.38281 79.5923 5.9067 79.5923 42.1096C79.5923 78.3125 57.3577 83.625 48.7019 83.625C8.16866 83.6274 -9.14538 9.84267 19.7782 9.84267Z" fill="#EFEFEF"/>
<path d="M69.0612 19.4779C67.1086 19.4779 65.5195 17.8888 65.5195 15.9362C65.5195 13.9836 67.1086 12.3945 69.0612 12.3945C71.0138 12.3945 72.6029 13.9836 72.6029 15.9362C72.6029 17.8888 71.0138 19.4779 69.0612 19.4779ZM69.0612 14.7556C68.4119 14.7556 67.8806 15.2845 67.8806 15.9362C67.8806 16.5879 68.4119 17.1168 69.0612 17.1168C69.7105 17.1168 70.2418 16.5879 70.2418 15.9362C70.2418 15.2845 69.7105 14.7556 69.0612 14.7556Z" fill="#A4AFC1"/>
<path d="M23.8238 69.3594H19.1016V71.7205H23.8238V69.3594Z" fill="#A4AFC1"/>
<path d="M10.2457 69.3594H5.52344V71.7205H10.2457V69.3594Z" fill="#A4AFC1"/>
<path d="M16.1502 61.0938H13.7891V65.816H16.1502V61.0938Z" fill="#A4AFC1"/>
<path d="M16.1502 74.6719H13.7891V79.3941H16.1502V74.6719Z" fill="#A4AFC1"/>
<path d="M42.5 69.0625C57.1701 69.0625 69.0625 57.1701 69.0625 42.5C69.0625 27.8299 57.1701 15.9375 42.5 15.9375C27.8299 15.9375 15.9375 27.8299 15.9375 42.5C15.9375 57.1701 27.8299 69.0625 42.5 69.0625Z" fill="#F3F3F1"/>
<path d="M52.536 59.6189H32.4666C31.1632 59.6189 30.1055 58.5611 30.1055 57.2578V48.9939C30.1055 47.6906 31.1632 46.6328 32.4666 46.6328H52.536C53.8394 46.6328 54.8971 47.6906 54.8971 48.9939V57.2578C54.8971 58.5611 53.8394 59.6189 52.536 59.6189Z" fill="#9EE1F1"/>
<path d="M21.25 42.5C21.25 28.7276 31.7333 17.4038 45.1563 16.0721C44.2826 15.9847 43.3972 15.9375 42.5 15.9375C27.8304 15.9375 15.9375 27.8304 15.9375 42.5C15.9375 57.1696 27.8304 69.0625 42.5 69.0625C43.3972 69.0625 44.2826 69.0153 45.1563 68.9279C31.7333 67.5963 21.25 56.2724 21.25 42.5Z" fill="#D5DBE1"/>
<path d="M35.418 57.2578V48.9939C35.418 47.6906 36.4757 46.6328 37.7791 46.6328H32.4666C31.1632 46.6328 30.1055 47.6906 30.1055 48.9939V57.2578C30.1055 58.5611 31.1632 59.6189 32.4666 59.6189H37.7791C36.4757 59.6189 35.418 58.5611 35.418 57.2578Z" fill="#52A3C3"/>
<path d="M42.5013 70.8346C26.8778 70.8346 14.168 58.1248 14.168 42.5013C14.168 26.8778 26.8778 14.168 42.5013 14.168C58.1248 14.168 70.8346 26.8778 70.8346 42.5013C70.8346 58.1248 58.1248 70.8346 42.5013 70.8346ZM42.5013 17.7096C28.8305 17.7096 17.7096 28.8305 17.7096 42.5013C17.7096 56.1721 28.8305 67.293 42.5013 67.293C56.1721 67.293 67.293 56.1721 67.293 42.5013C67.293 28.8305 56.1721 17.7096 42.5013 17.7096Z" fill="black"/>
<path d="M36.0083 34.2383H25.3833V37.7799H36.0083V34.2383Z" fill="black"/>
<path d="M59.6194 34.2383H48.9944V37.7799H59.6194V34.2383Z" fill="black"/>
<path d="M52.536 61.3911H32.4665C30.1881 61.3911 28.3346 59.5376 28.3346 57.2591V48.9952C28.3346 46.7168 30.1881 44.8633 32.4665 44.8633H52.536C54.8145 44.8633 56.6679 46.7168 56.6679 48.9952V57.2591C56.6679 59.5376 54.8145 61.3911 52.536 61.3911ZM32.4665 48.4049C32.1407 48.4049 31.8763 48.6694 31.8763 48.9952V57.2591C31.8763 57.5849 32.1407 57.8494 32.4665 57.8494H52.536C52.8618 57.8494 53.1263 57.5849 53.1263 57.2591V48.9952C53.1263 48.6694 52.8618 48.4049 52.536 48.4049H32.4665Z" fill="black"/>
<path d="M29.5154 50.7656H18.0876V54.3073H29.5154V50.7656Z" fill="black"/>
<path d="M66.9152 50.7656H55.4874V54.3073H66.9152V50.7656Z" fill="black"/>
</svg>
