<svg width="85" height="85" viewBox="0 0 85 85" fill="none" xmlns="http://www.w3.org/2000/svg">
<path d="M19.7782 75.1597C36.11 75.1597 47.3253 83.6196 55.1949 83.6196C63.0645 83.6196 79.5923 79.0957 79.5923 42.8928C79.5923 6.68986 57.3577 1.375 48.7019 1.375C8.16866 1.375 -9.14538 75.1597 19.7782 75.1597Z" fill="#EFEFEF"/>
<path d="M21.5734 9.71942L18.2344 13.0586L19.904 14.7281L23.243 11.3889L21.5734 9.71942Z" fill="#A4AFC1"/>
<path d="M11.9719 19.321L8.63281 22.6602L10.3024 24.3297L13.6415 20.9905L11.9719 19.321Z" fill="#A4AFC1"/>
<path d="M10.3021 9.30284L8.63281 10.9727L11.9725 14.3112L13.6417 12.6414L10.3021 9.30284Z" fill="#A4AFC1"/>
<path d="M77.7135 33.056C75.7609 33.056 74.1719 31.467 74.1719 29.5143C74.1719 27.5617 75.7609 25.9727 77.7135 25.9727C79.6662 25.9727 81.2552 27.5617 81.2552 29.5143C81.2552 31.467 79.6662 33.056 77.7135 33.056ZM77.7135 28.3338C77.0619 28.3338 76.533 28.8627 76.533 29.5143C76.533 30.166 77.0619 30.6949 77.7135 30.6949C78.3652 30.6949 78.8941 30.166 78.8941 29.5143C78.8941 28.8627 78.3628 28.3338 77.7135 28.3338Z" fill="#A4AFC1"/>
<path d="M42.5 69.0625C57.1701 69.0625 69.0625 57.1701 69.0625 42.5C69.0625 27.8299 57.1701 15.9375 42.5 15.9375C27.8299 15.9375 15.9375 27.8299 15.9375 42.5C15.9375 57.1701 27.8299 69.0625 42.5 69.0625Z" fill="#F3F3F1"/>
<path d="M21.25 42.5C21.25 28.7276 31.7333 17.4038 45.1563 16.0721C44.2826 15.9847 43.3972 15.9375 42.5 15.9375C27.8304 15.9375 15.9375 27.8304 15.9375 42.5C15.9375 57.1696 27.8304 69.0625 42.5 69.0625C43.3972 69.0625 44.2826 69.0153 45.1563 68.9279C31.7333 67.5963 21.25 56.2724 21.25 42.5Z" fill="#D5DBE1"/>
<path d="M42.5013 70.8346C26.8778 70.8346 14.168 58.1248 14.168 42.5013C14.168 26.8778 26.8778 14.168 42.5013 14.168C47.4148 14.168 52.255 15.4477 56.5027 17.8631L54.7507 20.942C51.0367 18.8288 46.8009 17.7096 42.5013 17.7096C28.8305 17.7096 17.7096 28.8305 17.7096 42.5013C17.7096 56.1721 28.8305 67.293 42.5013 67.293C56.1721 67.293 67.293 56.1721 67.293 42.5013C67.293 37.9184 66.0321 33.4441 63.6498 29.5577L66.6673 27.7066C69.3944 32.1478 70.8346 37.2644 70.8346 42.5013C70.8346 58.1248 58.1248 70.8346 42.5013 70.8346Z" fill="black"/>
<path d="M31.8754 44.8598C28.6218 44.8598 25.9727 42.2106 25.9727 38.957H29.5143C29.5143 40.258 30.5745 41.3181 31.8754 41.3181C33.1764 41.3181 34.2365 40.258 34.2365 38.957H37.7782C37.7782 42.2106 35.129 44.8598 31.8754 44.8598ZM53.1254 44.8598C49.8718 44.8598 47.2227 42.2106 47.2227 38.957H50.7643C50.7643 40.258 51.8245 41.3181 53.1254 41.3181C54.4264 41.3181 55.4865 40.258 55.4865 38.957H59.0282C59.0282 42.2106 56.379 44.8598 53.1254 44.8598Z" fill="black"/>
<path d="M50.1753 54.3047H34.8281V57.8464H50.1753V54.3047Z" fill="black"/>
<path d="M69.0603 23.6124H63.1576C62.4421 23.6124 61.7952 23.1803 61.5213 22.5192C61.2474 21.8581 61.3985 21.0955 61.9062 20.5902L64.7867 17.7096H63.1576V14.168H69.0603C69.7758 14.168 70.4227 14.6001 70.6966 15.2612C70.9705 15.9223 70.8194 16.6849 70.3117 17.1902L67.4312 20.0707H69.058V23.6124H69.0603ZM57.2548 35.418H51.352C50.6885 35.418 50.0817 35.0473 49.7771 34.457C49.4749 33.8667 49.5269 33.156 49.9117 32.6177L53.8146 27.1541H51.352V23.6124H57.2548C57.9182 23.6124 58.5251 23.9831 58.8296 24.5734C59.1319 25.1637 59.0799 25.8744 58.6951 26.4127L54.7945 31.8763H57.2548V35.418Z" fill="black"/>
</svg>
