<svg width="85" height="85" viewBox="0 0 85 85" fill="none" xmlns="http://www.w3.org/2000/svg">
<path d="M64.7361 9.23978C48.409 9.54437 37.0355 1.29464 29.1683 1.44339C21.3011 1.59214 4.85831 6.42298 5.53594 42.6212C6.21358 78.8194 28.5426 83.714 37.1984 83.5534C77.7222 82.7955 93.655 8.69909 64.7361 9.23978Z" fill="#EFEFEF"/>
<path d="M23.1008 9.71942L19.7617 13.0586L21.4313 14.7281L24.7704 11.3889L23.1008 9.71942Z" fill="#A4AFC1"/>
<path d="M13.5031 19.321L10.1641 22.6602L11.8336 24.3297L15.1727 20.9905L13.5031 19.321Z" fill="#A4AFC1"/>
<path d="M11.8336 9.29916L10.1641 10.9688L13.5032 14.3078L15.1728 12.6382L11.8336 9.29916Z" fill="#A4AFC1"/>
<path d="M69.0612 71.7474C67.1086 71.7474 65.5195 70.1584 65.5195 68.2057C65.5195 66.2531 67.1086 64.6641 69.0612 64.6641C71.0138 64.6641 72.6029 66.2531 72.6029 68.2057C72.6029 70.1584 71.0138 71.7474 69.0612 71.7474ZM69.0612 67.0252C68.4095 67.0252 67.8806 67.5541 67.8806 68.2057C67.8806 68.8574 68.4095 69.3863 69.0612 69.3863C69.7129 69.3863 70.2418 68.8574 70.2418 68.2057C70.2418 67.5541 69.7129 67.0252 69.0612 67.0252Z" fill="#A4AFC1"/>
<path d="M56.6265 63.4289C55.4082 62.2106 53.6869 56.0787 53.6869 56.0787C53.6869 56.0787 59.8188 57.8 61.0371 59.0183C61.5022 59.4835 61.7336 60.069 61.8422 60.6687L61.9083 60.6097C66.3472 55.8875 69.0625 49.4889 69.0625 42.5C69.0625 27.8375 57.1625 15.9375 42.5 15.9375C27.8375 15.9375 15.9375 27.8399 15.9375 42.5024C15.9375 57.1649 27.8375 69.0649 42.5 69.0649C48.2139 69.0649 53.5028 67.2468 57.8472 64.1774L57.8708 64.1561C57.4175 64.0097 56.9854 63.7901 56.6265 63.4289Z" fill="#F3F3F1"/>
<path d="M61.0376 59.0177C62.256 60.236 62.256 62.2099 61.0376 63.4283C59.8193 64.6466 57.8454 64.6466 56.6271 63.4283C55.4087 62.2099 53.6875 56.0781 53.6875 56.0781C53.6875 56.0781 59.8193 57.7994 61.0376 59.0177Z" fill="#9EE1F1"/>
<path d="M21.25 42.5C21.25 28.7347 31.7404 17.4061 45.1563 16.0721C44.2826 15.9847 43.3972 15.9375 42.5 15.9375C27.8375 15.9375 15.9375 27.8375 15.9375 42.5C15.9375 57.1625 27.8375 69.0625 42.5 69.0625C43.3736 69.0625 44.2331 69.0058 45.0831 68.9232C31.7026 67.5561 21.25 56.2417 21.25 42.5Z" fill="#D5DBE1"/>
<path d="M42.5013 70.8346C26.8778 70.8346 14.168 58.1248 14.168 42.5013C14.168 26.8778 26.8778 14.168 42.5013 14.168C58.1248 14.168 70.8346 26.8778 70.8346 42.5013C70.8346 49.7239 68.1241 56.5853 63.2012 61.8246L60.6205 59.3998C64.9224 54.8192 67.293 48.8196 67.293 42.5013C67.293 28.8305 56.1721 17.7096 42.5013 17.7096C28.8305 17.7096 17.7096 28.8305 17.7096 42.5013C17.7096 56.1721 28.8305 67.293 42.5013 67.293C47.6485 67.293 52.6021 65.7157 56.8262 62.7289L58.8685 65.6237C54.0448 69.0331 48.3852 70.8346 42.5013 70.8346Z" fill="black"/>
<path d="M53.7165 54.3066H32.4666V57.8483H53.7165V54.3066Z" fill="black"/>
<path d="M38.9596 51.3555H35.418V59.6194H38.9596V51.3555Z" fill="black"/>
<path d="M44.2721 51.3555H40.7305V59.6194H44.2721V51.3555Z" fill="black"/>
<path d="M49.5846 51.3555H46.043V59.6194H49.5846V51.3555Z" fill="black"/>
<path d="M58.8346 66.1094C57.5832 66.1094 56.3318 65.6324 55.3779 64.6809C53.9825 63.2855 52.5399 58.5349 51.9827 56.5563C51.8103 55.9401 51.9827 55.279 52.436 54.8256C52.8893 54.3723 53.5504 54.1999 54.1667 54.3723C56.1453 54.9272 60.8982 56.3698 62.2913 57.7652C64.1967 59.673 64.1967 62.7731 62.2913 64.6809C61.3397 65.6324 60.086 66.1094 58.8346 66.1094ZM56.4003 58.7899C56.9953 60.4852 57.5761 61.8381 57.8878 62.1829C58.4096 62.7047 59.262 62.6999 59.7885 62.1781C60.3127 61.654 60.3127 60.8016 59.7909 60.2751C59.4178 59.9374 58.0247 59.3566 56.4003 58.7899Z" fill="black"/>
<path d="M36.0078 34.2344H25.3828V37.776H36.0078V34.2344Z" fill="black"/>
<path d="M59.6172 34.2344H48.9922V37.776H59.6172V34.2344Z" fill="black"/>
</svg>
