<svg width="85" height="85" viewBox="0 0 85 85" fill="none" xmlns="http://www.w3.org/2000/svg">
<path d="M64.736 9.23588C48.4089 9.54046 37.0355 1.29074 29.1682 1.43949C21.301 1.58824 4.85824 6.41907 5.53588 42.6173C6.21352 78.8155 28.5425 83.7101 37.1984 83.5495C77.7221 82.7916 93.6549 8.69518 64.736 9.23588Z" fill="#EFEFEF"/>
<path d="M51.6482 8.41016H46.926V10.7713H51.6482V8.41016Z" fill="#A4AFC1"/>
<path d="M38.0737 8.41016H33.3514V10.7713H38.0737V8.41016Z" fill="#A4AFC1"/>
<path d="M43.9746 0.148438H41.6135V4.87066H43.9746V0.148438Z" fill="#A4AFC1"/>
<path d="M62.5691 77.6478C60.6164 77.6478 59.0274 76.0588 59.0274 74.1061C59.0274 72.1535 60.6164 70.5645 62.5691 70.5645C64.5217 70.5645 66.1107 72.1535 66.1107 74.1061C66.1107 76.0588 64.5217 77.6478 62.5691 77.6478ZM62.5691 72.9256C61.9174 72.9256 61.3885 73.4545 61.3885 74.1061C61.3885 74.7578 61.9174 75.2867 62.5691 75.2867C63.2207 75.2867 63.7496 74.7578 63.7496 74.1061C63.7496 73.4545 63.2207 72.9256 62.5691 72.9256Z" fill="#A4AFC1"/>
<path d="M51.3542 54.6857C51.3542 54.6857 61.3629 51.1157 64.5858 51.9775C65.4217 52.2018 66.1654 52.5961 66.7982 53.1061L67.006 52.8251C68.3235 49.6612 69.0625 46.1739 69.0625 42.5C69.0625 27.8328 57.1672 15.9375 42.5 15.9375C27.8328 15.9375 15.9375 27.8328 15.9375 42.5C15.9375 57.1672 27.8328 69.0625 42.5 69.0625C49.0356 69.0625 54.995 66.7061 59.5921 62.8268L59.6676 62.7253C56.2039 60.3831 51.3542 54.6857 51.3542 54.6857Z" fill="#F3F3F1"/>
<path d="M64.5866 51.9766C61.3637 51.1125 51.3549 54.6848 51.3549 54.6848C51.3549 54.6848 58.2376 62.7811 61.4581 63.6452C64.6787 64.5094 67.9913 62.5969 68.8555 59.374C69.7196 56.1511 67.8071 52.8408 64.5866 51.9766ZM36.0077 61.9169C36.9451 59.2418 39.5021 57.3175 42.5007 57.3175C45.4994 57.3175 48.0564 59.2394 48.9938 61.9169H43.7805H36.0077Z" fill="#9EE1F1"/>
<path d="M65.2824 52.2467C65.8325 52.4733 66.3496 52.7472 66.7982 53.1061L67.006 52.8251C67.1287 52.5324 67.2185 52.2231 67.3294 51.9256C66.6896 51.9964 65.9978 52.105 65.2824 52.2467ZM21.25 42.5C21.25 28.73 31.7357 17.4061 45.1562 16.0721C44.2826 15.9847 43.3972 15.9375 42.5 15.9375C27.8328 15.9375 15.9375 27.8328 15.9375 42.5C15.9375 57.1672 27.8328 69.0625 42.5 69.0625C43.3854 69.0625 44.259 69.0106 45.1232 68.9256C31.7192 67.5774 21.25 56.2582 21.25 42.5Z" fill="#D5DBE1"/>
<path d="M56.6674 54.6848C56.6674 54.6848 61.3117 53.0297 65.2926 52.2458C65.0588 52.1514 64.8345 52.0451 64.5842 51.9766C61.3613 51.1125 51.3526 54.6848 51.3526 54.6848C51.3526 54.6848 58.2352 62.7811 61.4557 63.6452C62.948 64.0443 64.4473 63.8294 65.7246 63.1848C62.268 61.2629 56.6674 54.6848 56.6674 54.6848ZM45.157 57.8723C44.3377 57.5276 43.4452 57.3175 42.5007 57.3175C39.5021 57.3175 36.9451 59.2394 36.0077 61.9169H41.3202C41.9624 60.0823 43.3744 58.6232 45.157 57.8723Z" fill="#52A3C3"/>
<path d="M31.8726 49.5825C28.619 49.5825 25.9698 46.9333 25.9698 43.6797H29.5115C29.5115 44.9807 30.5716 46.0408 31.8726 46.0408C33.1735 46.0408 34.2337 44.9807 34.2337 43.6797H37.7753C37.7753 46.9333 35.1262 49.5825 31.8726 49.5825ZM53.1226 49.5825C49.869 49.5825 47.2198 46.9333 47.2198 43.6797H50.7615C50.7615 44.9807 51.8216 46.0408 53.1226 46.0408C54.4235 46.0408 55.4837 44.9807 55.4837 43.6797H59.0253C59.0253 46.9333 56.3762 49.5825 53.1226 49.5825Z" fill="black"/>
<path d="M42.4978 70.8307C26.8743 70.8307 14.1645 58.1209 14.1645 42.4974C14.1645 26.8739 26.8743 14.1641 42.4978 14.1641C58.1213 14.1641 70.8312 26.8739 70.8312 42.4974C70.8312 46.3059 70.0945 50.0081 68.64 53.5025L65.3699 52.1425C66.6449 49.0802 67.2895 45.836 67.2895 42.4974C67.2895 28.8266 56.1687 17.7057 42.4978 17.7057C28.827 17.7057 17.7062 28.8266 17.7062 42.4974C17.7062 56.1682 28.827 67.2891 42.4978 67.2891C48.3392 67.2891 54.0035 65.2231 58.4471 61.4713L60.7327 64.1771C55.6492 68.4673 49.1727 70.8307 42.4978 70.8307Z" fill="black"/>
<path d="M48.9923 63.683H36.0062C35.4325 63.683 34.8942 63.4044 34.5612 62.9369C34.2283 62.4694 34.1457 61.8697 34.3346 61.3266C35.5482 57.8676 38.8278 55.5443 42.4993 55.5443C46.1708 55.5443 49.4504 57.8676 50.664 61.3266C50.8553 61.8673 50.7703 62.467 50.4373 62.9369C50.1044 63.4044 49.5661 63.683 48.9923 63.683ZM39.3873 60.1413H45.6112C43.8664 58.8026 41.1322 58.8026 39.3873 60.1413ZM63.0174 65.6168C62.3515 65.6168 61.6739 65.5294 61.001 65.35C57.4262 64.3913 51.2142 57.249 50.0053 55.8252C49.6275 55.3813 49.4929 54.7816 49.644 54.2197C49.7951 53.6577 50.213 53.2068 50.7608 53.0108C52.5199 52.3827 61.4661 49.3062 65.0432 50.2601C67.0596 50.8008 68.743 52.0923 69.7843 53.9009C70.8279 55.7072 71.1042 57.8133 70.5658 59.8273C69.6308 63.3123 66.4646 65.6168 63.0174 65.6168ZM54.4583 55.5112C57.1075 58.3847 60.4201 61.5273 61.9147 61.9287C64.1885 62.5473 66.533 61.185 67.1422 58.9088C67.4374 57.8086 67.2862 56.6587 66.7172 55.6694C66.1458 54.6825 65.2274 53.9765 64.1247 53.6813C62.6372 53.2823 58.1889 54.3472 54.4583 55.5112Z" fill="black"/>
</svg>
