<svg width="72" height="12" viewBox="0 0 72 12" fill="none" xmlns="http://www.w3.org/2000/svg">
<path d="M6 0L7.83389 3.47587L11.7063 4.1459L8.9673 6.96413L9.52671 10.8541L6 9.12L2.47329 10.8541L3.0327 6.96413L0.293661 4.1459L4.16611 3.47587L6 0Z" fill="#E9B742"/>
<path d="M21 0L22.8339 3.47587L26.7063 4.1459L23.9673 6.96413L24.5267 10.8541L21 9.12L17.4733 10.8541L18.0327 6.96413L15.2937 4.1459L19.1661 3.47587L21 0Z" fill="#E9B742"/>
<path d="M36 0L37.8339 3.47587L41.7063 4.1459L38.9673 6.96413L39.5267 10.8541L36 9.12L32.4733 10.8541L33.0327 6.96413L30.2937 4.1459L34.1661 3.47587L36 0Z" fill="#E9B742"/>
<path d="M51 0L52.8339 3.47587L56.7063 4.1459L53.9673 6.96413L54.5267 10.8541L51 9.12L47.4733 10.8541L48.0327 6.96413L45.2937 4.1459L49.1661 3.47587L51 0Z" fill="#E9B742"/>
<path d="M66 0L67.8339 3.47587L71.7063 4.1459L68.9673 6.96413L69.5267 10.8541L66 9.12L62.4733 10.8541L63.0327 6.96413L60.2937 4.1459L64.1661 3.47587L66 0Z" fill="#E9B742"/>
</svg>
