<svg width="52" height="42" viewBox="0 0 52 42" fill="none" xmlns="http://www.w3.org/2000/svg">
<g clip-path="url(#clip0_586_4660)">
<path fill-rule="evenodd" clip-rule="evenodd" d="M11.9509 4.64345C7.31333 6.19199 3.91838 8.24845 2.32864 10.2747L1.70118 9.71947L2.3293 10.2738C2.27287 10.346 2.19076 10.5197 2.13196 10.839C2.07602 11.1429 2.05456 11.5042 2.06142 11.8739L2.06149 11.878C2.07299 12.6931 2.42918 13.4619 3.04371 13.9769L3.05076 13.9828C4.49599 15.2215 7.00081 17.2815 8.6412 18.3599L8.65227 18.3673C9.42034 18.8904 10.3301 19.1873 11.2804 19.2446C12.8905 19.3249 15.3979 19.4195 17.2472 19.3566C17.7758 19.3331 18.2966 19.0923 18.9284 18.633C19.3311 18.3402 19.7112 18.0139 20.1393 17.6463C20.4237 17.4021 20.7294 17.1396 21.0771 16.8567C22.7513 15.4941 24.9324 14.0825 28.327 14.0478L28.3348 14.0477L28.7079 14.0478C32.1027 14.0825 34.2802 15.4943 35.9528 16.857C36.2973 17.138 36.6013 17.3989 36.8839 17.6418C37.3139 18.0113 37.6956 18.3391 38.0999 18.6328C38.7317 19.0916 39.2546 19.3331 39.7881 19.3566C41.6219 19.4194 44.1288 19.3249 45.7548 19.2446C46.7012 19.1875 47.599 18.8921 48.3878 18.3638L48.4047 18.3528C49.0014 17.9741 49.7198 17.4404 50.4665 16.8578L46.936 5.31646C42.0753 3.39588 35.6463 2.10967 28.7152 2.10967H28.3502C22.262 2.10967 16.5534 3.10665 11.9509 4.64345ZM11.461 2.98863C16.2283 1.39678 22.1026 0.375 28.3502 0.375H28.7152C35.9996 0.375 42.7776 1.75805 47.8847 3.84291C48.1146 3.93674 48.2922 4.13576 48.3683 4.38453L52.2015 16.9152C52.3097 17.2686 52.1937 17.6558 51.9134 17.8781C51.0029 18.6003 50.0492 19.3293 49.251 19.8367C48.2175 20.5265 47.0512 20.9047 45.8427 20.9767L45.8349 20.9772C44.2065 21.0577 41.638 21.1558 39.7319 21.0903L39.7254 21.09C38.7463 21.0484 37.9182 20.6023 37.1779 20.0647C36.7315 19.7404 36.2513 19.3293 35.7734 18.9202C35.4986 18.6849 35.2246 18.4503 34.9583 18.2332C33.4332 16.9906 31.596 15.8131 28.696 15.7824H28.339C25.4386 15.8131 23.5975 16.9908 22.0707 18.2335C21.8023 18.452 21.5261 18.6883 21.2492 18.9252C20.7729 19.3327 20.2947 19.7419 19.8511 20.0644C19.1122 20.6016 18.2858 21.0483 17.3097 21.09L17.3031 21.0903C15.3819 21.1558 12.8135 21.0576 11.1999 20.9772L11.1925 20.9768C9.98639 20.9049 8.80058 20.5275 7.77605 19.8313C6.04104 18.6898 3.47201 16.573 2.02808 15.3355C1.03311 14.4997 0.44775 13.244 0.428276 11.9061C0.420026 11.456 0.444279 10.9656 0.528896 10.5061C0.610796 10.0613 0.764445 9.55946 1.07306 9.1651L1.07372 9.16427C2.96727 6.75082 6.7289 4.56875 11.461 2.98863Z" fill="#1E415F"/>
<path fill-rule="evenodd" clip-rule="evenodd" d="M47.6995 3.80921C48.0094 3.85406 48.2681 4.08315 48.3656 4.39904L52.2292 16.9458C52.3114 17.2131 52.2664 17.5061 52.1088 17.732C51.951 17.9578 51.7001 18.0885 51.4354 18.0826C50.0054 18.0504 48.5507 18.002 47.5014 17.9368C46.2458 17.8755 45.0558 17.2215 44.312 16.1322L44.3093 16.1285V16.1285C44.0694 15.7733 43.8156 15.3614 43.6287 14.9369C43.4503 14.5321 43.2896 14.0215 43.3377 13.4912C43.5073 10.8829 44.7618 7.61959 46.9091 4.18851C47.0825 3.9117 47.3893 3.7644 47.6995 3.80921ZM47.3555 6.7001C45.8712 9.3904 45.0831 11.7858 44.9664 13.6223C44.9659 13.6333 44.9651 13.6442 44.9638 13.6551C44.9565 13.7295 44.9768 13.9035 45.1083 14.2018C45.2329 14.4844 45.4196 14.7957 45.6356 15.1155C46.0768 15.7607 46.8002 16.1672 47.5802 16.2042L47.5913 16.2047V16.2048C48.3344 16.251 49.2969 16.289 50.3174 16.3187L47.3555 6.7001Z" fill="#1E415F"/>
<path fill-rule="evenodd" clip-rule="evenodd" d="M23.7449 8.80564C23.7439 8.80772 23.7427 8.81171 23.7427 8.81879C23.7427 8.82584 23.7439 8.82983 23.7449 8.8319C23.7459 8.83429 23.7471 8.83633 23.7488 8.8381C23.7505 8.83986 23.7524 8.84147 23.7554 8.84271C23.7578 8.84382 23.7624 8.84528 23.7698 8.84528H31.8924C31.9 8.84528 31.9046 8.84382 31.907 8.84271C31.9096 8.84147 31.9119 8.83986 31.9135 8.8381C31.9153 8.83633 31.9166 8.83429 31.9174 8.8319C31.9182 8.82983 31.9195 8.82584 31.9195 8.81879C31.9195 8.81171 31.9182 8.80772 31.9174 8.80564C31.9166 8.80328 31.9153 8.80124 31.9135 8.79947C31.9119 8.79769 31.9096 8.79608 31.907 8.79483C31.9046 8.79372 31.9 8.79227 31.8924 8.79227H23.7698C23.7624 8.79227 23.7578 8.79372 23.7554 8.79483C23.7524 8.79608 23.7505 8.79769 23.7488 8.79947C23.7471 8.80124 23.7459 8.80328 23.7449 8.80564ZM22.7627 8.81879C22.7627 8.22367 23.2123 7.75146 23.7698 7.75146H31.8924C32.4501 7.75146 32.8997 8.22367 32.8997 8.81879C32.8997 9.41388 32.4501 9.88608 31.8924 9.88608H23.7698C23.2123 9.88608 22.7627 9.41388 22.7627 8.81879Z" fill="#1E415F"/>
</g>
<path fill-rule="evenodd" clip-rule="evenodd" d="M9.46032 35.7703C9.12529 35.5368 9.08012 35.1204 9.35954 34.8403L15.4274 28.755C15.7066 28.4749 16.2046 28.4372 16.5394 28.6708C16.8744 28.9043 16.9193 29.3207 16.6401 29.6008L10.5721 35.6861C10.2931 35.9662 9.79513 36.0039 9.46032 35.7703Z" fill="#1E415F"/>
<path fill-rule="evenodd" clip-rule="evenodd" d="M16.5594 35.7575C16.2383 36.0016 15.7502 35.9733 15.4695 35.6942L9.36715 29.6308C9.08646 29.3518 9.1191 28.9277 9.44021 28.6836C9.7611 28.4395 10.2492 28.4679 10.5301 28.7469L16.6323 34.8103C16.9132 35.0894 16.8805 35.5135 16.5594 35.7575Z" fill="#1E415F"/>
<path d="M21.6865 30.9033H22.6709C23.0537 30.9033 23.3704 30.8372 23.6211 30.7051C23.8763 30.5729 24.0654 30.3906 24.1885 30.1582C24.3115 29.9258 24.373 29.6592 24.373 29.3584C24.373 29.0439 24.3161 28.7751 24.2021 28.5518C24.0928 28.3239 23.9242 28.1484 23.6963 28.0254C23.473 27.9023 23.1882 27.8408 22.8418 27.8408C22.5501 27.8408 22.2858 27.9001 22.0488 28.0186C21.8164 28.1325 21.6318 28.2965 21.4951 28.5107C21.3584 28.7204 21.29 28.971 21.29 29.2627H19.6357C19.6357 28.734 19.7747 28.2646 20.0527 27.8545C20.3307 27.4443 20.709 27.123 21.1875 26.8906C21.6706 26.6536 22.2129 26.5352 22.8145 26.5352C23.457 26.5352 24.0176 26.6423 24.4961 26.8564C24.9792 27.0661 25.3551 27.3805 25.624 27.7998C25.8929 28.2191 26.0273 28.7386 26.0273 29.3584C26.0273 29.641 25.9613 29.9281 25.8291 30.2197C25.6969 30.5114 25.501 30.778 25.2412 31.0195C24.9814 31.2565 24.6579 31.4502 24.2705 31.6006C23.8831 31.7464 23.4342 31.8193 22.9238 31.8193H21.6865V30.9033ZM21.6865 32.1885V31.2861H22.9238C23.5072 31.2861 24.0039 31.3545 24.4141 31.4912C24.8288 31.6279 25.166 31.8171 25.4258 32.0586C25.6855 32.2956 25.8747 32.5667 25.9932 32.8721C26.1162 33.1774 26.1777 33.501 26.1777 33.8428C26.1777 34.3076 26.0934 34.7223 25.9248 35.0869C25.7607 35.4469 25.526 35.7523 25.2207 36.0029C24.9154 36.2536 24.5576 36.4427 24.1475 36.5703C23.7419 36.6979 23.2998 36.7617 22.8213 36.7617C22.3929 36.7617 21.9827 36.7025 21.5908 36.584C21.1989 36.4655 20.848 36.29 20.5381 36.0576C20.2282 35.8206 19.9821 35.5267 19.7998 35.1758C19.6221 34.8203 19.5332 34.4102 19.5332 33.9453H21.1807C21.1807 34.2415 21.249 34.5036 21.3857 34.7314C21.527 34.9548 21.723 35.1302 21.9736 35.2578C22.2288 35.3854 22.5205 35.4492 22.8486 35.4492C23.195 35.4492 23.4935 35.3877 23.7441 35.2646C23.9948 35.1416 24.1862 34.9593 24.3184 34.7178C24.4551 34.4762 24.5234 34.1846 24.5234 33.8428C24.5234 33.4554 24.4482 33.141 24.2979 32.8994C24.1475 32.6579 23.9333 32.4801 23.6553 32.3662C23.3773 32.2477 23.0492 32.1885 22.6709 32.1885H21.6865ZM32.6855 26.6104H32.8906V27.957H32.7744C32.1865 27.957 31.6784 28.0482 31.25 28.2305C30.8262 28.4128 30.4775 28.6634 30.2041 28.9824C29.9307 29.3014 29.7256 29.6751 29.5889 30.1035C29.4567 30.5273 29.3906 30.9785 29.3906 31.457V33.0225C29.3906 33.4189 29.4339 33.7699 29.5205 34.0752C29.6071 34.376 29.7279 34.6289 29.8828 34.834C30.0423 35.0345 30.2246 35.1872 30.4297 35.292C30.6348 35.3968 30.8558 35.4492 31.0928 35.4492C31.3389 35.4492 31.5622 35.3991 31.7627 35.2988C31.9632 35.194 32.1341 35.0505 32.2754 34.8682C32.4167 34.6859 32.5238 34.4694 32.5967 34.2188C32.6696 33.9681 32.7061 33.6947 32.7061 33.3984C32.7061 33.1159 32.6696 32.8516 32.5967 32.6055C32.5283 32.3548 32.4258 32.1361 32.2891 31.9492C32.1523 31.7578 31.9814 31.6097 31.7764 31.5049C31.5758 31.3955 31.3434 31.3408 31.0791 31.3408C30.751 31.3408 30.4525 31.4183 30.1836 31.5732C29.9193 31.7282 29.7051 31.931 29.541 32.1816C29.3815 32.4277 29.2949 32.6898 29.2812 32.9678L28.6523 32.7627C28.6888 32.3389 28.7822 31.9583 28.9326 31.6211C29.0876 31.2839 29.2904 30.9967 29.541 30.7598C29.7917 30.5228 30.0811 30.3428 30.4092 30.2197C30.7419 30.0921 31.1064 30.0283 31.5029 30.0283C31.986 30.0283 32.4053 30.1195 32.7607 30.3018C33.1162 30.484 33.4102 30.7324 33.6426 31.0469C33.8796 31.3568 34.055 31.7122 34.1689 32.1133C34.2874 32.5098 34.3467 32.9245 34.3467 33.3574C34.3467 33.8359 34.2738 34.2826 34.1279 34.6973C33.9821 35.1074 33.7679 35.4674 33.4854 35.7773C33.2074 36.0872 32.8678 36.3288 32.4668 36.502C32.0703 36.6751 31.6191 36.7617 31.1133 36.7617C30.5801 36.7617 30.1038 36.6592 29.6846 36.4541C29.2699 36.249 28.9167 35.9665 28.625 35.6064C28.3379 35.2464 28.1191 34.8317 27.9688 34.3623C27.8184 33.8929 27.7432 33.3962 27.7432 32.8721V32.1885C27.7432 31.432 27.8389 30.7188 28.0303 30.0488C28.2217 29.3743 28.5156 28.7796 28.9121 28.2646C29.3132 27.7497 29.8258 27.3464 30.4502 27.0547C31.0745 26.7585 31.8197 26.6104 32.6855 26.6104ZM42.5225 33.0771V34.3896H35.3447L35.29 33.3984L39.583 26.6719H40.9023L39.4736 29.1191L37.0059 33.0771H42.5225ZM41.2783 26.6719V36.625H39.6309V26.6719H41.2783Z" fill="#1E415F"/>
<defs>
<clipPath id="clip0_586_4660">
<rect width="52" height="20.7367" fill="white" transform="translate(0 0.375)"/>
</clipPath>
</defs>
</svg>
