<svg width="50" height="37" viewBox="0 0 50 37" fill="none" xmlns="http://www.w3.org/2000/svg">
<path fill-rule="evenodd" clip-rule="evenodd" d="M12.758 35.8691C12.4537 35.6255 12.4127 35.1913 12.6664 34.8992L18.1767 28.5528C18.4303 28.2607 18.8825 28.2214 19.1866 28.465C19.4908 28.7085 19.5316 29.1428 19.2781 29.4349L13.7676 35.7813C13.5142 36.0734 13.062 36.1127 12.758 35.8691Z" fill="#1E415F"/>
<path fill-rule="evenodd" clip-rule="evenodd" d="M19.2048 35.8558C18.9132 36.1103 18.4699 36.0807 18.215 35.7897L12.6733 29.4662C12.4184 29.1751 12.4481 28.7329 12.7397 28.4783C13.0311 28.2238 13.4743 28.2533 13.7295 28.5444L19.2709 34.8679C19.526 35.1589 19.4964 35.6012 19.2048 35.8558Z" fill="#1E415F"/>
<path d="M29.031 34.9011V36.3493H22.4121V35.1048L25.6266 31.2052C25.9792 30.7627 26.2573 30.3805 26.4607 30.0587C26.6642 29.7369 26.8066 29.4478 26.888 29.1913C26.9739 28.9298 27.0168 28.6759 27.0168 28.4295C27.0168 28.0825 26.958 27.7783 26.8405 27.5168C26.7275 27.2503 26.5602 27.0416 26.3387 26.8908C26.1171 26.7349 25.8481 26.657 25.5316 26.657C25.1654 26.657 24.858 26.745 24.6093 26.921C24.3607 27.097 24.173 27.3408 24.0464 27.6526C23.9198 27.9593 23.8566 28.3113 23.8566 28.7086H22.2222C22.2222 28.07 22.3533 27.4867 22.6155 26.9587C22.8777 26.4257 23.2575 26.0033 23.7548 25.6915C24.2522 25.3747 24.8512 25.2163 25.552 25.2163C26.2121 25.2163 26.7727 25.3395 27.2338 25.5859C27.695 25.8323 28.0454 26.1818 28.285 26.6343C28.5291 27.0869 28.6512 27.6224 28.6512 28.2409C28.6512 28.5829 28.6015 28.9223 28.502 29.2592C28.4025 29.5961 28.2601 29.933 28.0748 30.2699C27.8939 30.6018 27.6792 30.9362 27.4305 31.2731C27.1818 31.605 26.9083 31.9419 26.6099 32.2838L24.4737 34.9011H29.031Z" fill="#1E415F"/>
<path d="M36.7621 33.3549C36.7621 34.0388 36.6197 34.6145 36.3349 35.0822C36.05 35.5498 35.6612 35.9043 35.1684 36.1457C34.6801 36.382 34.1285 36.5002 33.5137 36.5002C32.8988 36.5002 32.345 36.382 31.8522 36.1457C31.3594 35.9043 30.9705 35.5498 30.6857 35.0822C30.4009 34.6145 30.2585 34.0388 30.2585 33.3549C30.2585 32.9023 30.3376 32.4925 30.4958 32.1254C30.6541 31.7533 30.8779 31.434 31.1672 31.1675C31.4611 30.896 31.8047 30.6873 32.198 30.5415C32.5959 30.3956 33.0299 30.3227 33.5001 30.3227C34.124 30.3227 34.6824 30.4509 35.1752 30.7074C35.668 30.9638 36.0545 31.3184 36.3349 31.7709C36.6197 32.2235 36.7621 32.7515 36.7621 33.3549ZM35.1209 33.2644C35.1209 32.8973 35.0531 32.5755 34.9175 32.2989C34.7818 32.0223 34.592 31.8086 34.3478 31.6578C34.1037 31.5069 33.8211 31.4315 33.5001 31.4315C33.1746 31.4315 32.892 31.5069 32.6524 31.6578C32.4128 31.8086 32.2252 32.0223 32.0895 32.2989C31.9584 32.5755 31.8928 32.8973 31.8928 33.2644C31.8928 33.6365 31.9584 33.9583 32.0895 34.2298C32.2206 34.4963 32.4083 34.7 32.6524 34.8408C32.8965 34.9816 33.1836 35.052 33.5137 35.052C33.8437 35.052 34.1285 34.9816 34.3682 34.8408C34.6078 34.7 34.7931 34.4963 34.9243 34.2298C35.0554 33.9583 35.1209 33.6365 35.1209 33.2644ZM36.5383 28.256C36.5383 28.8041 36.4072 29.2919 36.145 29.7193C35.8873 30.1467 35.5301 30.4836 35.0735 30.73C34.6168 30.9714 34.0969 31.0921 33.5137 31.0921C32.9259 31.0921 32.4015 30.9714 31.9403 30.73C31.4837 30.4836 31.1243 30.1467 30.862 29.7193C30.6043 29.2919 30.4755 28.8041 30.4755 28.256C30.4755 27.6023 30.6043 27.0517 30.862 26.6042C31.1243 26.1516 31.4837 25.8072 31.9403 25.5708C32.397 25.3345 32.9191 25.2163 33.5069 25.2163C34.0946 25.2163 34.6168 25.3345 35.0735 25.5708C35.5301 25.8072 35.8873 26.1516 36.145 26.6042C36.4072 27.0517 36.5383 27.6023 36.5383 28.256ZM34.9039 28.3164C34.9039 27.9895 34.8451 27.7029 34.7276 27.4565C34.6146 27.2051 34.4541 27.009 34.2461 26.8682C34.0381 26.7274 33.7917 26.657 33.5069 26.657C33.2221 26.657 32.9757 26.7248 32.7677 26.8606C32.5597 26.9964 32.3992 27.1875 32.2862 27.4339C32.1732 27.6803 32.1166 27.9744 32.1166 28.3164C32.1166 28.6533 32.1732 28.9474 32.2862 29.1989C32.3992 29.4452 32.5597 29.6388 32.7677 29.7796C32.9802 29.9204 33.2288 29.9908 33.5137 29.9908C33.7985 29.9908 34.0449 29.9204 34.2529 29.7796C34.4608 29.6388 34.6213 29.4452 34.7344 29.1989C34.8474 28.9474 34.9039 28.6533 34.9039 28.3164Z" fill="#1E415F"/>
<g clip-path="url(#clip0_584_915)">
<path fill-rule="evenodd" clip-rule="evenodd" d="M11.1505 4.63361C6.73967 6.13324 3.51077 8.12474 1.9988 10.0869L1.40203 9.54928L1.99943 10.0861C1.94576 10.156 1.86766 10.3242 1.81174 10.6334C1.75853 10.9277 1.73813 11.2776 1.74465 11.6357L1.74472 11.6397C1.75565 12.429 2.09442 13.1735 2.67889 13.6722L2.68559 13.6779C4.06014 14.8776 6.44243 16.8725 8.0026 17.9168L8.01311 17.9239C8.74362 18.4306 9.60886 18.7181 10.5127 18.7735C12.0441 18.8512 14.4288 18.9429 16.1876 18.882C16.6904 18.8593 17.1858 18.626 17.7866 18.1813C18.1696 17.8977 18.5311 17.5817 18.9382 17.2258C19.2088 16.9892 19.4995 16.7351 19.8302 16.461C21.4225 15.1415 23.497 13.7745 26.7256 13.7409L26.733 13.7408L27.0877 13.7409C30.3166 13.7745 32.3876 15.1417 33.9782 16.4613C34.306 16.7334 34.595 16.9861 34.8638 17.2213C35.2729 17.5791 35.6359 17.8967 36.0204 18.181C36.6214 18.6254 37.1186 18.8593 37.6259 18.882C39.37 18.9428 41.7543 18.8513 43.3008 18.7735C44.2011 18.7183 45.0549 18.4322 45.8052 17.9205L45.8212 17.9099C46.3888 17.5432 47.072 17.0263 47.7821 16.4622L44.4244 5.28537C39.8013 3.42545 33.6869 2.17988 27.0947 2.17988H26.7476C20.9571 2.17988 15.5278 3.14536 11.1505 4.63361ZM10.6845 3.03107C15.2186 1.4895 20.8056 0.5 26.7476 0.5H27.0947C34.0228 0.5 40.4692 1.83937 45.3265 3.85836C45.5452 3.94923 45.7142 4.14196 45.7866 4.38287L49.4322 16.5177C49.535 16.8599 49.4248 17.2349 49.1583 17.4502C48.2924 18.1496 47.3852 18.8556 46.626 19.3469C45.6432 20.015 44.5337 20.3812 43.3844 20.451L43.377 20.4514C41.8284 20.5293 39.3853 20.6244 37.5725 20.5609L37.5664 20.5607C36.6351 20.5204 35.8476 20.0884 35.1436 19.5677C34.719 19.2537 34.2621 18.8556 33.8078 18.4593C33.5464 18.2315 33.2857 18.0043 33.0325 17.7941C31.582 16.5907 29.8347 15.4504 27.0764 15.4207H26.737C23.9784 15.4504 22.2274 16.591 20.7752 17.7944C20.5199 18.0059 20.2572 18.2348 19.9939 18.4642C19.5409 18.8589 19.0861 19.2551 18.6642 19.5674C17.9615 20.0876 17.1754 20.5203 16.2471 20.5606L16.2408 20.5609C14.4135 20.6244 11.9708 20.5293 10.4362 20.4514L10.4291 20.451C9.28198 20.3814 8.15416 20.0159 7.17977 19.3417C5.52962 18.2363 3.08623 16.1863 1.71294 14.9879C0.766632 14.1785 0.209907 12.9625 0.191384 11.6668C0.18354 11.231 0.206606 10.756 0.287083 10.311C0.364978 9.88035 0.511112 9.39433 0.804634 9.01243L0.805261 9.01162C2.60618 6.67442 6.18383 4.56127 10.6845 3.03107Z" fill="#1E415F"/>
<path fill-rule="evenodd" clip-rule="evenodd" d="M45.1528 3.82556C45.4476 3.86899 45.6937 4.09084 45.7863 4.39676L49.4609 16.5472C49.5392 16.806 49.4964 17.0898 49.3465 17.3085C49.1965 17.5272 48.9579 17.6538 48.706 17.648C47.3461 17.6169 45.9625 17.57 44.9643 17.5069C43.7702 17.4475 42.6385 16.8141 41.9309 15.7593L41.9286 15.7557V15.7557C41.7004 15.4117 41.459 15.0129 41.2811 14.6017C41.1114 14.2098 40.9587 13.7153 41.0044 13.2017C41.1655 10.6758 42.3587 7.51557 44.4011 4.19288C44.566 3.92482 44.8578 3.78216 45.1528 3.82556ZM44.8257 6.62513C43.4141 9.23045 42.6645 11.5502 42.5535 13.3287C42.5528 13.3393 42.5521 13.3499 42.551 13.3605C42.544 13.4325 42.5633 13.601 42.6884 13.8898C42.8068 14.1636 42.9844 14.465 43.1898 14.7747C43.6095 15.3995 44.2976 15.7932 45.0393 15.829L45.05 15.8295V15.8296C45.7566 15.8743 46.6722 15.9111 47.6428 15.9399L44.8257 6.62513Z" fill="#1E415F"/>
<path fill-rule="evenodd" clip-rule="evenodd" d="M22.3705 8.66443C22.3696 8.66644 22.3685 8.67031 22.3685 8.67716C22.3685 8.68399 22.3696 8.68785 22.3705 8.68986C22.3715 8.69217 22.3726 8.69415 22.3743 8.69586C22.3759 8.69757 22.3777 8.69912 22.3805 8.70033C22.3828 8.70141 22.3873 8.70281 22.3942 8.70281H30.1195C30.1267 8.70281 30.1311 8.70141 30.1334 8.70033C30.136 8.69912 30.138 8.69757 30.1397 8.69586C30.1413 8.69415 30.1425 8.69217 30.1434 8.68986C30.1441 8.68785 30.1452 8.68399 30.1452 8.67716C30.1452 8.67031 30.1441 8.66644 30.1434 8.66443C30.1425 8.66215 30.1413 8.66016 30.1397 8.65846C30.138 8.65673 30.136 8.65517 30.1334 8.65396C30.1311 8.65289 30.1267 8.65148 30.1195 8.65148H22.3942C22.3873 8.65148 22.3828 8.65289 22.3805 8.65396C22.3777 8.65517 22.3759 8.65673 22.3743 8.65846C22.3726 8.66016 22.3715 8.66215 22.3705 8.66443ZM21.4364 8.67716C21.4364 8.10084 21.864 7.64355 22.3942 7.64355H30.1195C30.6499 7.64355 31.0775 8.10084 31.0775 8.67716C31.0775 9.25345 30.6499 9.71074 30.1195 9.71074H22.3942C21.864 9.71074 21.4364 9.25345 21.4364 8.67716Z" fill="#1E415F"/>
</g>
<defs>
<clipPath id="clip0_584_915">
<rect width="50" height="20.0817" fill="white" transform="translate(0 0.5)"/>
</clipPath>
</defs>
</svg>
