<svg width="52" height="36" viewBox="0 0 52 36" fill="none" xmlns="http://www.w3.org/2000/svg">
<g clip-path="url(#clip0_584_950)">
<path fill-rule="evenodd" clip-rule="evenodd" d="M13.1505 3.96356C8.73967 5.40149 5.51077 7.31107 3.9988 9.19255L3.40203 8.67701L3.99943 9.19178C3.94576 9.25874 3.86766 9.42005 3.81174 9.71656C3.75853 9.99873 3.73813 10.3343 3.74465 10.6776L3.74472 10.6814C3.75565 11.4383 4.09442 12.1521 4.67889 12.6303L4.68559 12.6358C6.06014 13.7861 8.44243 15.6989 10.0026 16.7003L10.0131 16.7071C10.7436 17.1929 11.6089 17.4686 12.5127 17.5218C14.0441 17.5963 16.4288 17.6841 18.1876 17.6258C18.6904 17.604 19.1858 17.3803 19.7866 16.9539C20.1696 16.682 20.5311 16.379 20.9382 16.0377C21.2088 15.8109 21.4995 15.5672 21.8302 15.3044C23.4225 14.0391 25.497 12.7284 28.7256 12.6962L28.733 12.6961L29.0877 12.6961C32.3166 12.7284 34.3876 14.0394 35.9782 15.3047C36.306 15.5656 36.595 15.8079 36.8638 16.0334C37.2729 16.3765 37.6359 16.681 38.0204 16.9537C38.6214 17.3797 39.1186 17.604 39.6259 17.6258C41.37 17.6841 43.7543 17.5963 45.3008 17.5218C46.2011 17.4688 47.0549 17.1945 47.8052 16.7038L47.8212 16.6937C48.3888 16.3421 49.072 15.8465 49.7821 15.3055L46.4244 4.5885C41.8013 2.8051 35.6869 1.61077 29.0947 1.61077H28.7476C22.9571 1.61077 17.5278 2.53653 13.1505 3.96356ZM12.6845 2.42694C17.2186 0.948795 22.8056 0 28.7476 0H29.0947C36.0228 0 42.4692 1.28427 47.3265 3.2202C47.5452 3.30733 47.7142 3.49214 47.7866 3.72313L51.4322 15.3588C51.535 15.6869 51.4248 16.0464 51.1583 16.2529C50.2924 16.9235 49.3852 17.6005 48.626 18.0716C47.6432 18.7121 46.5337 19.0633 45.3844 19.1302L45.377 19.1306C43.8284 19.2053 41.3853 19.2965 39.5725 19.2356L39.5664 19.2354C38.6351 19.1967 37.8476 18.7825 37.1436 18.2833C36.719 17.9822 36.2621 17.6004 35.8078 17.2205C35.5464 17.0021 35.2857 16.7842 35.0325 16.5827C33.582 15.4288 31.8347 14.3354 29.0764 14.3069H28.737C25.9784 14.3354 24.2274 15.429 22.7752 16.5829C22.5199 16.7858 22.2572 17.0052 21.9939 17.2252C21.5409 17.6036 21.0861 17.9836 20.6642 18.283C19.9615 18.7818 19.1754 19.1966 18.2471 19.2354L18.2408 19.2356C16.4135 19.2965 13.9708 19.2053 12.4362 19.1306L12.4291 19.1302C11.282 19.0635 10.1542 18.7131 9.17977 18.0666C7.52962 17.0066 5.08623 15.041 3.71294 13.8919C2.76663 13.1158 2.20991 11.9498 2.19138 10.7075C2.18354 10.2895 2.20661 9.83412 2.28708 9.40742C2.36498 8.99446 2.51111 8.52843 2.80463 8.16223L2.80526 8.16146C4.60618 5.92041 8.18383 3.89419 12.6845 2.42694Z" fill="#F0752D"/>
<path fill-rule="evenodd" clip-rule="evenodd" d="M47.1528 3.18902C47.4476 3.23066 47.6937 3.44338 47.7863 3.73672L51.4609 15.3873C51.5392 15.6355 51.4964 15.9076 51.3465 16.1173C51.1965 16.327 50.9579 16.4484 50.706 16.4428C49.3461 16.413 47.9625 16.368 46.9643 16.3075C45.7702 16.2506 44.6385 15.6432 43.9309 14.6318L43.9286 14.6283V14.6283C43.7004 14.2985 43.459 13.9161 43.2811 13.5219C43.1114 13.146 42.9587 12.6719 43.0044 12.1795C43.1655 9.7574 44.3587 6.72722 46.4011 3.54122C46.566 3.28419 46.8578 3.1474 47.1528 3.18902ZM46.8257 5.87341C45.4141 8.37155 44.6645 10.5959 44.5535 12.3012C44.5528 12.3114 44.5521 12.3215 44.551 12.3317C44.544 12.4007 44.5633 12.5623 44.6884 12.8392C44.8068 13.1017 44.9844 13.3908 45.1898 13.6877C45.6095 14.2868 46.2976 14.6643 47.0393 14.6986L47.05 14.6991V14.6992C47.7566 14.7421 48.6722 14.7774 49.6428 14.805L46.8257 5.87341Z" fill="#F0752D"/>
<path fill-rule="evenodd" clip-rule="evenodd" d="M24.3705 7.82849C24.3696 7.83041 24.3685 7.83412 24.3685 7.84069C24.3685 7.84724 24.3696 7.85095 24.3705 7.85287C24.3715 7.85509 24.3726 7.85699 24.3743 7.85862C24.3759 7.86026 24.3777 7.86175 24.3805 7.86291C24.3828 7.86394 24.3873 7.86529 24.3942 7.86529H32.1195C32.1267 7.86529 32.1311 7.86394 32.1334 7.86291C32.136 7.86175 32.138 7.86026 32.1397 7.85862C32.1413 7.85699 32.1425 7.85509 32.1434 7.85287C32.1441 7.85095 32.1452 7.84724 32.1452 7.84069C32.1452 7.83412 32.1441 7.83041 32.1434 7.82849C32.1425 7.8263 32.1413 7.8244 32.1397 7.82276C32.138 7.8211 32.136 7.81961 32.1334 7.81845C32.1311 7.81742 32.1267 7.81607 32.1195 7.81607H24.3942C24.3873 7.81607 24.3828 7.81742 24.3805 7.81845C24.3777 7.81961 24.3759 7.8211 24.3743 7.82276C24.3726 7.8244 24.3715 7.8263 24.3705 7.82849ZM23.4364 7.84069C23.4364 7.28808 23.864 6.84961 24.3942 6.84961H32.1195C32.6499 6.84961 33.0775 7.28808 33.0775 7.84069C33.0775 8.39328 32.6499 8.83175 32.1195 8.83175H24.3942C23.864 8.83175 23.4364 8.39328 23.4364 7.84069Z" fill="#F0752D"/>
</g>
<path fill-rule="evenodd" clip-rule="evenodd" d="M13.2682 35.3953C12.9519 35.1618 12.9092 34.7454 13.173 34.4653L18.9039 28.38C19.1676 28.0999 19.6379 28.0622 19.9541 28.2958C20.2704 28.5293 20.3129 28.9457 20.0493 29.2258L14.3184 35.3111C14.0547 35.5912 13.5844 35.6289 13.2682 35.3953Z" fill="#F0752D"/>
<path fill-rule="evenodd" clip-rule="evenodd" d="M19.973 35.3825C19.6698 35.6266 19.2088 35.5983 18.9436 35.3192L13.1803 29.2558C12.9151 28.9768 12.946 28.5527 13.2493 28.3086C13.5525 28.0645 14.0134 28.0929 14.2786 28.3719L20.0419 34.4353C20.3071 34.7144 20.2762 35.1385 19.973 35.3825Z" fill="#F0752D"/>
<path d="M29.8749 32.9844C29.8749 33.6402 29.7268 34.1922 29.4305 34.6406C29.1343 35.0891 28.7299 35.429 28.2174 35.6604C27.7096 35.887 27.136 36.0003 26.4965 36.0003C25.857 36.0003 25.281 35.887 24.7685 35.6604C24.256 35.429 23.8516 35.0891 23.5554 34.6406C23.2592 34.1922 23.1111 33.6402 23.1111 32.9844C23.1111 32.5505 23.1934 32.1575 23.3579 31.8055C23.5225 31.4487 23.7553 31.1426 24.0562 30.887C24.3618 30.6267 24.7192 30.4266 25.1282 30.2867C25.542 30.1469 25.9934 30.077 26.4824 30.077C27.1313 30.077 27.712 30.2 28.2245 30.4459C28.737 30.6918 29.139 31.0317 29.4305 31.4656C29.7268 31.8996 29.8749 32.4058 29.8749 32.9844ZM28.168 32.8976C28.168 32.5457 28.0975 32.2371 27.9565 31.9719C27.8154 31.7067 27.6179 31.5018 27.364 31.3571C27.1101 31.2125 26.8162 31.1402 26.4824 31.1402C26.1439 31.1402 25.85 31.2125 25.6008 31.3571C25.3516 31.5018 25.1564 31.7067 25.0154 31.9719C24.879 32.2371 24.8108 32.5457 24.8108 32.8976C24.8108 33.2544 24.879 33.563 25.0154 33.8234C25.1517 34.0789 25.3469 34.2742 25.6008 34.4092C25.8547 34.5442 26.1533 34.6117 26.4965 34.6117C26.8397 34.6117 27.136 34.5442 27.3852 34.4092C27.6344 34.2742 27.8272 34.0789 27.9635 33.8234C28.0999 33.563 28.168 33.2544 28.168 32.8976ZM29.6421 28.0953C29.6421 28.6209 29.5058 29.0886 29.233 29.4984C28.965 29.9082 28.5936 30.2313 28.1187 30.4675C27.6438 30.699 27.1031 30.8147 26.4965 30.8147C25.8852 30.8147 25.3398 30.699 24.8602 30.4675C24.3853 30.2313 24.0115 29.9082 23.7388 29.4984C23.4708 29.0886 23.3368 28.6209 23.3368 28.0953C23.3368 27.4685 23.4708 26.9405 23.7388 26.5114C24.0115 26.0775 24.3853 25.7472 24.8602 25.5206C25.3351 25.294 25.8782 25.1807 26.4894 25.1807C27.1007 25.1807 27.6438 25.294 28.1187 25.5206C28.5936 25.7472 28.965 26.0775 29.233 26.5114C29.5058 26.9405 29.6421 27.4685 29.6421 28.0953ZM27.9424 28.1532C27.9424 27.8398 27.8812 27.5649 27.759 27.3287C27.6414 27.0876 27.4745 26.8996 27.2582 26.7646C27.0419 26.6296 26.7857 26.5621 26.4894 26.5621C26.1932 26.5621 25.937 26.6271 25.7207 26.7573C25.5044 26.8875 25.3375 27.0707 25.2199 27.307C25.1024 27.5432 25.0436 27.8253 25.0436 28.1532C25.0436 28.4762 25.1024 28.7583 25.2199 28.9994C25.3375 29.2356 25.5044 29.4213 25.7207 29.5563C25.9417 29.6913 26.2003 29.7588 26.4965 29.7588C26.7927 29.7588 27.049 29.6913 27.2653 29.5563C27.4816 29.4213 27.6485 29.2356 27.766 28.9994C27.8836 28.7583 27.9424 28.4762 27.9424 28.1532Z" fill="#F0752D"/>
<path d="M38.4442 32.1021V33.4907H31.0386L30.9822 32.442L35.4114 25.3253H36.7727L35.2986 27.9145L32.7525 32.1021H38.4442ZM37.1606 25.3253V35.8557H35.4608V25.3253H37.1606Z" fill="#F0752D"/>
<defs>
<clipPath id="clip0_584_950">
<rect width="52" height="19.2555" fill="white"/>
</clipPath>
</defs>
</svg>
