<svg width="16" height="11" viewBox="0 0 16 11" fill="none" xmlns="http://www.w3.org/2000/svg">
<g clip-path="url(#clip0_62_1711)">
<path d="M20 0H0V10.5263H20V0Z" fill="#B22234"/>
<path d="M0 1.2146H20H0ZM20 2.83403H0H20ZM0 4.45347H20H0ZM20 6.0729H0H20ZM0 7.69233H20H0ZM20 9.31177H0H20Z" fill="black"/>
<path d="M20 9.31177H0M0 1.2146H20H0ZM20 2.83403H0H20ZM0 4.45347H20H0ZM20 6.0729H0H20ZM0 7.69233H20H0Z" stroke="white" stroke-width="0.809717"/>
<path d="M8 0H0V5.66802H8V0Z" fill="#3C3B6E"/>
<path d="M0.650503 0.243164L0.840879 0.82908L0.342468 0.466964H0.958537L0.460127 0.82908L0.650503 0.243164Z" fill="white"/>
<path d="M0.650503 1.33105L0.840879 1.91697L0.342468 1.55485H0.958537L0.460127 1.91697L0.650503 1.33105Z" fill="white"/>
<path d="M0.650503 2.41895L0.840879 3.00486L0.342468 2.64275H0.958537L0.460127 3.00486L0.650503 2.41895Z" fill="white"/>
<path d="M0.650503 3.50684L0.840879 4.09275L0.342468 3.73064H0.958537L0.460127 4.09275L0.650503 3.50684Z" fill="white"/>
<path d="M0.650503 4.59473L0.840879 5.18064L0.342468 4.81853H0.958537L0.460127 5.18064L0.650503 4.59473Z" fill="white"/>
<path d="M1.60662 0.243164L1.79699 0.82908L1.29858 0.466964H1.91465L1.41624 0.82908L1.60662 0.243164Z" fill="white"/>
<path d="M1.60662 1.33105L1.79699 1.91697L1.29858 1.55485H1.91465L1.41624 1.91697L1.60662 1.33105Z" fill="white"/>
<path d="M1.60662 2.41895L1.79699 3.00486L1.29858 2.64275H1.91465L1.41624 3.00486L1.60662 2.41895Z" fill="white"/>
<path d="M1.60662 3.50684L1.79699 4.09275L1.29858 3.73064H1.91465L1.41624 4.09275L1.60662 3.50684Z" fill="white"/>
<path d="M1.60662 4.59473L1.79699 5.18064L1.29858 4.81853H1.91465L1.41624 5.18064L1.60662 4.59473Z" fill="white"/>
<path d="M2.5628 0.243164L2.75317 0.82908L2.25476 0.466964H2.87083L2.37242 0.82908L2.5628 0.243164Z" fill="white"/>
<path d="M2.5628 1.33105L2.75317 1.91697L2.25476 1.55485H2.87083L2.37242 1.91697L2.5628 1.33105Z" fill="white"/>
<path d="M2.5628 2.41895L2.75317 3.00486L2.25476 2.64275H2.87083L2.37242 3.00486L2.5628 2.41895Z" fill="white"/>
<path d="M2.5628 3.50684L2.75317 4.09275L2.25476 3.73064H2.87083L2.37242 4.09275L2.5628 3.50684Z" fill="white"/>
<path d="M2.5628 4.59473L2.75317 5.18064L2.25476 4.81853H2.87083L2.37242 5.18064L2.5628 4.59473Z" fill="white"/>
<path d="M3.51891 0.243164L3.70929 0.82908L3.21088 0.466964H3.82695L3.32854 0.82908L3.51891 0.243164Z" fill="white"/>
<path d="M3.51891 1.33105L3.70929 1.91697L3.21088 1.55485H3.82695L3.32854 1.91697L3.51891 1.33105Z" fill="white"/>
<path d="M3.51891 2.41895L3.70929 3.00486L3.21088 2.64275H3.82695L3.32854 3.00486L3.51891 2.41895Z" fill="white"/>
<path d="M3.51891 3.50684L3.70929 4.09275L3.21088 3.73064H3.82695L3.32854 4.09275L3.51891 3.50684Z" fill="white"/>
<path d="M3.51891 4.59473L3.70929 5.18064L3.21088 4.81853H3.82695L3.32854 5.18064L3.51891 4.59473Z" fill="white"/>
<path d="M4.47509 0.243164L4.66546 0.82908L4.16705 0.466964H4.78312L4.28471 0.82908L4.47509 0.243164Z" fill="white"/>
<path d="M4.47509 1.33105L4.66546 1.91697L4.16705 1.55485H4.78312L4.28471 1.91697L4.47509 1.33105Z" fill="white"/>
<path d="M4.47509 2.41895L4.66546 3.00486L4.16705 2.64275H4.78312L4.28471 3.00486L4.47509 2.41895Z" fill="white"/>
<path d="M4.47509 3.50684L4.66546 4.09275L4.16705 3.73064H4.78312L4.28471 4.09275L4.47509 3.50684Z" fill="white"/>
<path d="M4.47509 4.59473L4.66546 5.18064L4.16705 4.81853H4.78312L4.28471 5.18064L4.47509 4.59473Z" fill="white"/>
<path d="M5.4312 0.243164L5.62158 0.82908L5.12317 0.466964H5.73924L5.24083 0.82908L5.4312 0.243164Z" fill="white"/>
<path d="M5.4312 1.33105L5.62158 1.91697L5.12317 1.55485H5.73924L5.24083 1.91697L5.4312 1.33105Z" fill="white"/>
<path d="M5.4312 2.41895L5.62158 3.00486L5.12317 2.64275H5.73924L5.24083 3.00486L5.4312 2.41895Z" fill="white"/>
<path d="M5.4312 3.50684L5.62158 4.09275L5.12317 3.73064H5.73924L5.24083 4.09275L5.4312 3.50684Z" fill="white"/>
<path d="M5.4312 4.59473L5.62158 5.18064L5.12317 4.81853H5.73924L5.24083 5.18064L5.4312 4.59473Z" fill="white"/>
<path d="M6.38738 0.243164L6.57776 0.82908L6.07935 0.466964H6.69541L6.197 0.82908L6.38738 0.243164Z" fill="white"/>
<path d="M6.38738 1.33105L6.57776 1.91697L6.07935 1.55485H6.69541L6.197 1.91697L6.38738 1.33105Z" fill="white"/>
<path d="M6.38738 2.41895L6.57776 3.00486L6.07935 2.64275H6.69541L6.197 3.00486L6.38738 2.41895Z" fill="white"/>
<path d="M6.38738 3.50684L6.57776 4.09275L6.07935 3.73064H6.69541L6.197 4.09275L6.38738 3.50684Z" fill="white"/>
<path d="M6.38738 4.59473L6.57776 5.18064L6.07935 4.81853H6.69541L6.197 5.18064L6.38738 4.59473Z" fill="white"/>
<path d="M7.3435 0.243164L7.53387 0.82908L7.03546 0.466964H7.65153L7.15312 0.82908L7.3435 0.243164Z" fill="white"/>
<path d="M7.3435 1.33105L7.53387 1.91697L7.03546 1.55485H7.65153L7.15312 1.91697L7.3435 1.33105Z" fill="white"/>
<path d="M7.3435 2.41895L7.53387 3.00486L7.03546 2.64275H7.65153L7.15312 3.00486L7.3435 2.41895Z" fill="white"/>
<path d="M7.3435 3.50684L7.53387 4.09275L7.03546 3.73064H7.65153L7.15312 4.09275L7.3435 3.50684Z" fill="white"/>
<path d="M7.3435 4.59473L7.53387 5.18064L7.03546 4.81853H7.65153L7.15312 5.18064L7.3435 4.59473Z" fill="white"/>
</g>
<defs>
<clipPath id="clip0_62_1711">
<rect width="16" height="11" fill="white"/>
</clipPath>
</defs>
</svg>
