<svg width="375" height="1550" viewBox="0 0 375 1550" fill="none" xmlns="http://www.w3.org/2000/svg">
<g clip-path="url(#clip0_354_1711)">
<path d="M630 0H-189V1550H630V0Z" fill="white"/>
<path opacity="0.5" d="M329.692 1035.27C351.488 955.954 362.378 905.456 387.125 835.353C403.528 788.899 412.286 758.976 431.479 726.054C445.688 701.69 454.162 688.942 469.866 678.41C481.114 670.864 487.69 667.943 499.153 670.002C507.571 671.516 512.362 673.618 520.478 681.213C527.85 688.121 531.879 693.783 538.671 705.502C547.424 720.608 551.834 732.333 559.427 753.145C568.049 776.776 572.545 791.755 579.615 820.406C589.965 862.342 594.296 890.083 601.224 939.048C609.011 994.075 611.426 1027.86 616.007 1086.65C621.27 1154.1 622.998 1193.08 625.391 1262.27C627.391 1320.02 627.886 1352.76 628.807 1410.81C629.665 1465.14 630 1550 630 1550H200.323C200.323 1550 276.425 1229.11 329.692 1035.27Z" fill="#A2FAA8"/>
<path opacity="0.5" d="M-189 0H-45.7131H138.514C138.514 0 138.898 95.7696 136.239 156.216C133.47 219.174 130.478 254.026 124.298 314.302C115.837 396.839 108.674 440.641 95.584 516.356C77.6967 619.822 63.0707 668.282 41.2828 763.307C-3.80141 959.94 -33.2036 1059.84 -80.3975 1250.66C-95.422 1311.41 -116.788 1411.56 -116.788 1411.56C-116.788 1411.56 -119.631 1427.46 -120.484 1437.75C-120.902 1442.8 -120.282 1446.17 -119.346 1446.17C-118.494 1446.17 -114.265 1437.96 -111.102 1432.14C-106.533 1423.72 -104.491 1419.07 -100.298 1408.75C-97.2589 1401.27 -94.6127 1392.85 -90.6325 1380.69C-64.6632 1301.35 -23.2534 1178.64 -23.2534 1178.64L23.9406 1034.58C23.9406 1034.58 50.0633 953.42 67.1543 902.685C81.1131 861.248 88.3875 835.755 103.26 797.917C116.465 764.324 124.102 746.115 138.514 718.407C150.86 694.667 157.562 678.218 171.208 664.152C183.018 651.98 190.109 648.274 202.481 647.315C212.51 646.537 218.514 644.733 228.068 654.797C237.353 664.58 242.619 673.818 249.675 695.958C258.595 723.945 261.269 748.069 265.027 786.693C269.807 835.828 268.757 867.22 267.301 918.587C265.791 971.871 262.923 1001.49 257.066 1051.42C250.446 1107.86 244.607 1136.91 234.322 1187.06C203.05 1339.53 147.042 1550 147.042 1550H-189V695.958C-189 695.958 -176.339 656.951 -169.383 628.606C-159.514 588.385 -154.717 563.181 -148.061 516.356C-140.906 466.017 -137.228 435.797 -134.983 380.719C-132.619 322.716 -131.048 285.89 -137.257 231.051C-142.354 186.039 -146.945 159.037 -158.58 130.024C-168.751 104.66 -189 90.7363 -189 90.7363V0Z" fill="#A2FAA8"/>
</g>
<defs>
<clipPath id="clip0_354_1711">
<rect width="819" height="1550" fill="white" transform="translate(-189)"/>
</clipPath>
</defs>
</svg>
