<svg width="375" height="23" viewBox="0 0 375 23" fill="none" xmlns="http://www.w3.org/2000/svg">
<mask id="mask0_618_4810" style="mask-type:alpha" maskUnits="userSpaceOnUse" x="0" y="0" width="375" height="23">
<path d="M0 0L0 23L375 23V0L0 0Z" fill="#C4C4C4"/>
</mask>
<g mask="url(#mask0_618_4810)">
<path d="M-2.27271 -141.039L-2.27271 173.358L383.442 173.358V-141.039H-2.27271Z" fill="#76CABB"/>
<path d="M-2.27258 141.577V-4.10367C-2.27258 -4.10367 24.2793 3.04964 40.091 10.827C62.2608 21.7315 71.9485 33.0512 91.9368 47.9404C126.702 73.8368 144.054 91.4627 178.884 117.262C187.654 123.757 201.478 133.685 201.478 133.685C201.478 133.685 182.956 110.919 170.613 96.785C145.898 68.4833 104.444 27.2508 104.444 27.2508C104.444 27.2508 72.5638 -0.542755 66.9219 -26.2863C63.0891 -43.7766 64.181 -57.2144 76.0001 -68.7323C85.7095 -78.1942 95.4764 -80.8008 108.681 -80.89C125.896 -81.0064 135.886 -72.5966 150.44 -62.973C213.986 -20.9541 294.074 47.9404 294.074 47.9404C294.074 47.9404 287.427 27.753 279.146 17.0126C253.323 -16.4749 230.45 -29.4552 197.242 -57.2141C168.712 -81.0627 149.479 -91.6032 121.995 -116.937C112.288 -125.885 97.7871 -141.039 97.7871 -141.039L259.981 -141.039C259.981 -141.039 286.29 -84.95 305.774 -50.6021C319.643 -26.1531 328.461 -12.9322 342.893 10.827C359.083 37.4794 383.442 78.8683 383.442 78.8683V173.358H304.967L227.502 110.649L272.892 173.358H75.9998C75.9998 173.358 56.0845 153.28 40.091 146.91C24.5001 140.699 -2.27258 141.577 -2.27258 141.577Z" fill="#A2FAA8"/>
</g>
</svg>
