<svg width="375" height="23" viewBox="0 0 375 23" fill="none" xmlns="http://www.w3.org/2000/svg">
<mask id="mask0_618_4803" style="mask-type:alpha" maskUnits="userSpaceOnUse" x="0" y="0" width="375" height="23">
<path d="M375 0V23L0 23V0L375 0Z" fill="#C4C4C4"/>
</mask>
<g mask="url(#mask0_618_4803)">
<path d="M377.273 -141.039V173.358L-8.44153 173.358V-141.039H377.273Z" fill="#76CABB"/>
<path d="M377.273 141.577V-4.10367C377.273 -4.10367 350.721 3.04964 334.909 10.827C312.739 21.7315 303.052 33.0512 283.063 47.9404C248.298 73.8368 230.946 91.4627 196.116 117.262C187.346 123.757 173.522 133.685 173.522 133.685C173.522 133.685 192.044 110.919 204.387 96.785C229.102 68.4833 270.556 27.2508 270.556 27.2508C270.556 27.2508 302.436 -0.542755 308.078 -26.2863C311.911 -43.7766 310.819 -57.2144 299 -68.7323C289.29 -78.1942 279.524 -80.8008 266.319 -80.89C249.104 -81.0064 239.114 -72.5966 224.56 -62.973C161.014 -20.9541 80.9262 47.9404 80.9262 47.9404C80.9262 47.9404 87.5726 27.753 95.8544 17.0126C121.677 -16.4749 144.55 -29.4552 177.758 -57.2141C206.288 -81.0627 225.521 -91.6032 253.005 -116.937C262.712 -125.885 277.213 -141.039 277.213 -141.039L115.019 -141.039C115.019 -141.039 88.71 -84.95 69.2255 -50.6021C55.357 -26.1531 46.5392 -12.9322 32.1068 10.827C15.917 37.4794 -8.44165 78.8683 -8.44165 78.8683V173.358H70.0327L147.498 110.649L102.108 173.358H299C299 173.358 318.915 153.28 334.909 146.91C350.5 140.699 377.273 141.577 377.273 141.577Z" fill="#A2FAA8"/>
</g>
</svg>
