<svg width="375" height="941" viewBox="0 0 375 941" fill="none" xmlns="http://www.w3.org/2000/svg">
<path d="M389.652 119.882C376.124 124.559 338.961 145.194 310.681 164.004C284.243 181.416 265.03 196.141 238.66 218.882C197.892 254.191 165.837 286.979 99.2028 361.766C44.7798 422.897 17.8191 451.777 9.17168 458.535C-5.98029 470.314 -17.2703 473.763 -26.7678 469.716C-33.4952 466.848 -36.9531 460.698 -41.6201 443.122C-62.5413 366.401 -123.259 339.9 -203.383 372.464C-227.388 382.34 -250.273 396.903 -283.414 423.46C-312.57 446.884 -326.69 456.609 -341.25 463.341C-356.374 470.3 -368.946 472.736 -380.491 470.932C-388.985 469.65 -390.173 469.144 -395.265 464.636C-402.263 458.38 -406.448 446.621 -405.944 434.833C-405.652 430.125 -404.286 416.679 -402.634 404.758C-392.911 333.304 -391.95 286.796 -399.314 248.119C-409.969 192.296 -431.21 153.628 -468.874 121.676C-521.513 76.9516 -596.548 55.8825 -661.953 67.4422C-693.423 72.8901 -706.46 78.2446 -705.824 85.5298C-705.344 90.2547 -701.728 90.5487 -687.482 87.1123C-638.929 75.2286 -594.619 79.1503 -546.076 99.8395C-492.784 122.553 -457.263 156.24 -437.041 203.515C-426.769 227.689 -421.185 251.891 -419.091 282.087C-416.127 323.409 -417.738 356.079 -425.798 411.564C-430.756 446.236 -429.332 461.183 -420.215 472.706C-409.701 486.072 -391.465 491.195 -369.086 487.328C-341.305 482.49 -314.543 467.242 -270.558 430.966C-237.644 403.844 -218.708 391.963 -193.892 382.744C-182.02 378.295 -173.533 376.301 -163.047 375.471C-142.584 373.905 -133.638 375.224 -117.017 382.307C-101.244 389.186 -92.5315 396.172 -82.9213 409.465C-73.1597 423.133 -69.717 431.147 -59.7863 463.437C-51.7695 489.611 -26.7933 494.644 5.91327 476.786C26.1124 465.599 36.7103 454.997 111.479 371.363C154.669 323.057 163.705 313.192 192.076 283.198C235.064 237.924 283.822 196.668 324.966 170.716C356.144 150.959 359.247 149.164 377.19 139.978C398.633 129.165 400.532 127.636 400.203 123.287C399.798 118.751 396.332 117.741 389.652 119.882Z" fill="#95CFC4" fill-opacity="0.25"/>
<path d="M391.192 239.153C386.298 240.029 374.485 245.438 352.742 256.59C344.578 260.748 333.669 266.23 328.609 268.594C316.175 274.362 265.65 307.694 243.618 324.646C193.705 362.761 149.354 404.648 66.3639 491.48C16.5359 543.659 -20.3502 580.467 -29.5253 587C-39.9221 594.571 -52.0187 599.547 -59.9073 599.77C-66.0075 599.82 -66.5352 599.595 -71.2516 594.935C-74.7223 591.741 -77.179 587.265 -78.7339 581.77C-88.4051 547.409 -102.064 524.598 -122.542 509.011C-130.085 503.303 -153.829 493.183 -164.094 491.302C-173.379 489.682 -192.64 489.89 -207.172 491.802C-250.899 497.482 -286.937 515.479 -345.874 560.502C-380.615 587.157 -390.506 593.541 -409.695 601.261C-440.417 613.73 -462.923 610.217 -471.829 591.614C-475.875 583.187 -475.41 570.759 -469.866 537.271C-461.233 485.928 -458.68 453.972 -459.809 416.393C-461.054 377.986 -474.248 333.239 -493.116 303.999C-523.127 257.383 -579.079 222.626 -646.87 208.697C-686.557 200.511 -734.546 202.659 -773.666 214.354C-785.276 217.823 -790.146 221.203 -790.23 226.155C-790.41 230.599 -784.214 231.057 -770.364 227.452C-739.746 219.615 -706.367 218.098 -673.502 222.909C-649.451 226.457 -633.363 231.132 -608.168 241.87C-579.336 254.314 -558.937 267.528 -539.864 286.412C-520.036 306.086 -507.588 325.887 -497.799 353.752C-480.755 402.634 -479.684 458.269 -494.49 548.599C-496.758 563.063 -498.611 578.017 -498.565 581.933C-498.219 604.526 -487.138 618.757 -466.681 623.423C-448.636 627.529 -420.855 622.691 -397.964 611.405C-381.185 603.124 -335.643 573.435 -323.821 562.887C-318.878 558.603 -305.529 548.861 -294.172 541.231C-268.055 523.838 -235.98 510.387 -214.37 507.595C-192.629 504.859 -181.631 506.117 -162.751 513.385C-148.336 519.061 -145.81 520.449 -138.529 527.137C-133.851 531.157 -127.719 537.979 -124.773 542.04C-117.976 551.328 -109.015 569.799 -106.113 580.544C-98.7532 607.529 -98.5262 608.094 -88.9875 613.874C-73.5669 623.408 -47.2544 618.723 -20.7973 601.631C-4.90793 591.413 15.65 571.338 91.1996 492.09C113.671 468.622 139.732 441.853 149.184 432.476C213.468 368.689 268.3 323.787 319.921 292.636C332.257 285.269 346.136 276.843 350.837 273.859C355.482 271.007 367.989 264.335 378.598 259.193C398.367 249.381 402.201 245.872 398.501 241.021C395.934 237.901 396.461 238.126 391.192 239.153Z" fill="#95CFC4" fill-opacity="0.25"/>
<path d="M308.086 382.212C277.723 395.302 264.031 402.559 240.677 417.857C213.806 435.553 165.514 473.89 166.048 477.391C166.219 478.087 165.598 478.446 164.807 478.109C164.015 477.771 163.394 478.13 163.565 478.827C163.68 479.655 161.068 482.127 157.816 484.637C141.967 496.587 106.046 535.521 48.4159 603.079C27.2462 627.88 1.84897 657.115 -8.03315 667.867C-17.9153 678.619 -26.9324 688.804 -27.9833 690.538C-31.2312 695.233 -58.2352 721.289 -77.9887 738.744C-121.65 777.185 -158.283 799.137 -180.141 799.953C-190.138 800.368 -199.316 796.301 -203.565 789.813C-207.966 782.95 -208.943 764.764 -207.305 717.765C-205.572 671.275 -205.992 659.094 -209.634 645.695C-218.492 613.084 -249.251 597.48 -293.749 603.143C-310.013 605.096 -344.123 617.835 -357.699 627.013C-369.544 635.058 -387.345 649.76 -397.511 660.08C-402.359 664.872 -407.094 669.4 -408.223 669.854C-409.408 670.44 -410.009 671.119 -409.482 671.344C-408.426 671.794 -434.033 699.692 -447.507 712.654C-463.293 727.748 -480.285 742.017 -498.484 755.459C-536.479 783.532 -561.522 792.187 -581.026 784.186C-593.425 778.902 -599.526 769.443 -601.33 752.464C-601.888 746.459 -597.828 686.464 -590.365 595.81C-578.146 444.99 -576.41 418.608 -578.193 403.041C-578.749 398.128 -579.477 391.427 -579.86 388.302C-581.779 370.494 -589.821 350.232 -600.431 336.358C-619.949 311.205 -654.722 294.047 -689.632 292.573C-711.663 291.6 -736.615 298.579 -738.916 306.171C-740.562 311.861 -736.02 313.64 -725.952 311.229C-705.74 306.595 -684.723 308.85 -662.562 318.295C-634.729 330.157 -620.05 345.454 -607.525 376.044C-602.094 389.269 -598.98 411.951 -599.687 435.186C-599.877 443.678 -605.66 517.59 -612.556 599.601C-619.617 684.192 -624.675 753.113 -624.249 759.062C-623.245 771.336 -619.723 781.722 -613.89 788.884C-608.681 795.313 -590.91 803.355 -580.666 803.824C-549.616 805.211 -508.688 784.155 -456.076 739.709C-435.363 722.195 -421.664 708.705 -396.433 680.958C-385.649 669.188 -370.428 654.321 -362.12 647.262C-348.85 636.24 -344.938 634.01 -329.079 627.521C-309.589 619.461 -297.185 617.421 -278.467 618.852C-265.756 619.75 -252.34 624.844 -245.267 631.288C-229.347 645.867 -226.375 663.032 -229.535 720.916C-233.953 799.307 -232.907 804.897 -212.668 813.367C-201.4 818.014 -198.048 818.195 -180.394 814.808C-139.044 807.025 -85.9653 770.26 -20.7064 704.551C-8.41755 692.175 3.75892 680.063 6.44675 677.779C9.05897 675.307 24.6324 657.785 41.0125 638.735C98.9623 571.158 137.699 527.813 157.749 507.834C169.024 496.74 181.068 484.572 184.695 480.818C188.189 477.007 198.865 467.685 208.282 459.852C237.851 435.825 265.53 417.694 299.988 400.115C319.06 390.474 321.692 388.323 319.951 383.996C318.361 380.045 314.218 379.526 308.086 382.212Z" fill="#95CFC4" fill-opacity="0.25"/>
<path d="M330.67 508.427C303.186 520.25 266.362 541.185 235.978 562.372C176.075 604.177 135.03 642.33 45.7539 739.889C-51.9017 846.501 -96.1227 887.353 -156.595 927.202C-178.407 941.442 -184.652 944.391 -205.258 949.949C-215.946 952.72 -230.764 953.107 -236.624 950.765C-241.504 948.685 -246.863 942.972 -248.794 937.629C-250.821 931.777 -250.825 929.593 -247.44 871.181C-244.224 813.165 -245.463 795.958 -254.327 779.087C-266.593 755.934 -291.976 745.272 -329.817 747.381C-369.069 749.512 -407.954 766.14 -445.361 796.491C-451.113 801.209 -468.12 817.341 -483.134 832.453C-513.537 862.827 -526.73 875.13 -545.679 889.966C-552.86 895.479 -561.508 902.237 -565.061 905.087C-581.058 917.752 -609.247 934.886 -622.793 940.336C-652.894 952.446 -679.544 948.414 -688.618 930.206C-694.893 917.867 -694.576 907.248 -685.664 825.628C-682.76 799.432 -677.734 752.164 -674.257 720.6C-670.913 688.981 -666.68 649.791 -664.848 633.426C-656.341 556.778 -657.611 524.283 -670.603 495.521C-681.838 470.313 -699.795 453.931 -730.53 440.832C-754.274 430.712 -778.682 427.635 -804.733 431.34C-827.395 434.775 -840.261 440.825 -838.328 447.261C-837.19 451.175 -835.834 451.285 -823.13 448.906C-789.215 442.474 -756.309 449.017 -728.443 467.752C-702.123 485.36 -686.7 515.002 -684.479 552.579C-683.274 571.33 -684.277 587.58 -689.435 634.793C-704.96 779.839 -718.025 912.529 -717.199 920.831C-716.063 933.161 -712.355 942.379 -705.391 950.179C-700.165 955.836 -698.298 956.943 -687.992 960.556C-677.874 964.245 -674.898 964.578 -661.965 963.855C-637.83 962.451 -610.006 950.929 -574.354 927.624C-532.103 899.805 -505.618 877.893 -466.347 838.049C-426.174 797.186 -409.424 784.218 -383.894 774.056C-353.661 762.002 -324.914 760.382 -303.149 769.658C-274.524 781.858 -267.649 801.934 -272.544 858.767C-273.223 867.674 -274.382 881.365 -275.063 889.18C-277.214 915.073 -277.864 938.176 -276.419 945.027C-274.233 955.623 -268.571 962.089 -257.359 966.867C-252.215 969.06 -244.83 971.116 -240.894 971.391C-213.401 973.444 -173.143 956.155 -125.2 921.566C-63.9091 877.234 -22.603 838.102 67.6119 739.073C125.062 675.959 159.468 641.679 197.154 609.576C242.604 570.963 282.561 544.504 329.587 522.306C348.322 513.457 351.819 510.739 350.605 506.636C349.089 501.782 345.513 502.128 330.67 508.427Z" fill="#95CFC4" fill-opacity="0.25"/>
</svg>
