<svg width="1440" height="28" viewBox="0 0 1440 28" fill="none" xmlns="http://www.w3.org/2000/svg">
<g clip-path="url(#clip0_617_4757)">
<mask id="mask0_617_4757" style="mask-type:alpha" maskUnits="userSpaceOnUse" x="0" y="0" width="1440" height="28">
<path d="M0 0L0 28L1440 28V0L0 0Z" fill="#C4C4C4"/>
</mask>
<g mask="url(#mask0_617_4757)">
<path d="M0.00341797 -171.7L0.00341797 211.045L1448.44 211.045V-171.7H0.00341797Z" fill="#76CABB"/>
<path d="M0 229.775V-37.1233C0 -37.1233 99.6779 -24.0179 159.036 -9.76917C242.263 10.2087 278.631 30.9471 353.669 58.2253C484.18 105.669 549.321 137.961 680.075 185.227C712.997 197.127 764.895 215.316 764.895 215.316C764.895 215.316 695.361 173.607 649.025 147.712C556.243 95.8614 400.623 20.3204 400.623 20.3204C400.623 20.3204 280.941 -30.5995 259.761 -77.7636C245.373 -109.807 249.472 -134.426 293.842 -155.528C330.292 -172.863 366.957 -177.638 416.527 -177.802C481.153 -178.015 518.658 -162.608 573.293 -144.976C811.849 -67.9946 1112.51 58.2253 1112.51 58.2253C1112.51 58.2253 1087.56 21.2405 1056.46 1.56323C959.527 -59.7884 873.658 -83.5692 748.991 -134.426C641.889 -178.118 569.688 -197.429 466.511 -243.842C430.069 -260.235 375.632 -288 375.632 -288L984.519 -287.999C984.519 -287.999 1083.29 -185.24 1156.43 -122.312C1208.49 -77.5196 1241.6 -53.2979 1295.78 -9.76917C1356.56 39.06 1448 114.888 1448 114.888V288H1153.4L862.59 173.112L1032.99 288H293.84C293.84 288 219.077 251.216 159.036 239.544C100.507 228.166 0 229.775 0 229.775Z" fill="#A2FAA8"/>
</g>
</g>
<defs>
<clipPath id="clip0_617_4757">
<rect width="1440" height="28" fill="white" transform="matrix(-1 0 0 1 1440 0)"/>
</clipPath>
</defs>
</svg>
