<svg width="68" height="12" viewBox="0 0 68 12" fill="none" xmlns="http://www.w3.org/2000/svg">
<path d="M5.99955 1.55542L7.13067 5.03667H10.7911L7.82976 7.18823L8.96089 10.6695L5.99955 8.51794L3.03821 10.6695L4.08769 7.43947L4.16933 7.18823L1.20801 5.03667H4.86842L5.99955 1.55542Z" fill="#F8EDDF"/>
<path fill-rule="evenodd" clip-rule="evenodd" d="M5.99956 0.378662L7.39489 4.67301L11.9102 4.67302L8.25728 7.32709L9.65259 11.6215L5.99959 8.9674L2.34656 11.6215L3.74187 7.32708L0.0888672 4.67302H4.60423L5.99956 0.378662ZM4.08769 7.43947L4.00605 7.41292L4.08769 7.43947ZM5.13264 5.40029H2.32718L4.59682 7.04936L3.72991 9.71744L5.99956 8.06847L8.26923 9.71744L7.4023 7.04933L9.67195 5.40029H6.86649L5.99956 2.73215L5.13264 5.40029Z" fill="#F8EDDF"/>
<path d="M19.9995 1.55542L21.1307 5.03667H24.7911L21.8298 7.18823L22.9609 10.6695L19.9995 8.51794L17.0382 10.6695L18.0877 7.43947L18.1693 7.18823L15.208 5.03667H18.8684L19.9995 1.55542Z" fill="#F8EDDF"/>
<path fill-rule="evenodd" clip-rule="evenodd" d="M19.9996 0.378662L21.3949 4.67301L25.9102 4.67302L22.2573 7.32709L23.6526 11.6215L19.9996 8.9674L16.3466 11.6215L17.7419 7.32708L14.0889 4.67302H18.6042L19.9996 0.378662ZM18.0877 7.43947L18.006 7.41292L18.0877 7.43947ZM19.1326 5.40029H16.3272L18.5968 7.04936L17.7299 9.71744L19.9996 8.06847L22.2692 9.71744L21.4023 7.04933L23.6719 5.40029H20.8665L19.9996 2.73215L19.1326 5.40029Z" fill="#F8EDDF"/>
<path d="M33.9995 1.55542L35.1307 5.03667H38.7911L35.8298 7.18823L36.9609 10.6695L33.9995 8.51794L31.0382 10.6695L32.0877 7.43947L32.1693 7.18823L29.208 5.03667H32.8684L33.9995 1.55542Z" fill="#F8EDDF"/>
<path fill-rule="evenodd" clip-rule="evenodd" d="M33.9996 0.378662L35.3949 4.67301L39.9102 4.67302L36.2573 7.32709L37.6526 11.6215L33.9996 8.9674L30.3466 11.6215L31.7419 7.32708L28.0889 4.67302H32.6042L33.9996 0.378662ZM32.0877 7.43947L32.006 7.41292L32.0877 7.43947ZM33.1326 5.40029H30.3272L32.5968 7.04936L31.7299 9.71744L33.9996 8.06847L36.2692 9.71744L35.4023 7.04933L37.6719 5.40029H34.8665L33.9996 2.73215L33.1326 5.40029Z" fill="#F8EDDF"/>
<path d="M47.9995 1.55542L49.1307 5.03667H52.7911L49.8298 7.18823L50.9609 10.6695L47.9995 8.51794L45.0382 10.6695L46.0877 7.43947L46.1693 7.18823L43.208 5.03667H46.8684L47.9995 1.55542Z" fill="#F8EDDF"/>
<path fill-rule="evenodd" clip-rule="evenodd" d="M47.9996 0.378662L49.3949 4.67301L53.9102 4.67302L50.2573 7.32709L51.6526 11.6215L47.9996 8.9674L44.3466 11.6215L45.7419 7.32708L42.0889 4.67302H46.6042L47.9996 0.378662ZM46.0877 7.43947L46.006 7.41292L46.0877 7.43947ZM47.1326 5.40029H44.3272L46.5968 7.04936L45.7299 9.71744L47.9996 8.06847L50.2692 9.71744L49.4023 7.04933L51.6719 5.40029H48.8665L47.9996 2.73215L47.1326 5.40029Z" fill="#F8EDDF"/>
<path d="M61.9995 1.55542L63.1307 5.03667H66.7911L63.8298 7.18823L64.9609 10.6695L61.9995 8.51794L59.0382 10.6695L60.0877 7.43947L60.1693 7.18823L57.208 5.03667H60.8684L61.9995 1.55542Z" fill="#F8EDDF"/>
<path fill-rule="evenodd" clip-rule="evenodd" d="M61.9996 0.378662L63.3949 4.67301L67.9102 4.67302L64.2573 7.32709L65.6526 11.6215L61.9996 8.9674L58.3466 11.6215L59.7419 7.32708L56.0889 4.67302H60.6042L61.9996 0.378662ZM60.0877 7.43947L60.006 7.41292L60.0877 7.43947ZM61.1326 5.40029H58.3272L60.5968 7.04936L59.7299 9.71744L61.9996 8.06847L64.2692 9.71744L63.4023 7.04933L65.6719 5.40029H62.8665L61.9996 2.73215L61.1326 5.40029Z" fill="#F8EDDF"/>
</svg>
