<svg width="1217" height="547" viewBox="0 0 1217 547" fill="none" xmlns="http://www.w3.org/2000/svg">
<path d="M427.22 -403.12C378.598 -388.698 305.577 -343.65 258.38 -298.78C230.062 -271.893 215.28 -249.636 204.415 -217.765C199.072 -202.63 198.538 -198.713 198.538 -180.195C198.36 -160.787 198.716 -159.006 203.703 -149.035C211.361 -133.9 217.061 -131.586 243.776 -131.942L264.257 -132.12L280.465 -124.285C291.863 -118.766 298.453 -114.314 302.193 -109.685C315.016 -93.3036 320.359 -74.9639 320.359 -46.8311C320.359 -21.9034 315.729 -3.20752 303.618 21.7203C288.657 51.9897 284.383 57.1534 203.703 143.688C98.6236 256.219 72.2647 286.845 48.7554 324.593C26.3147 360.382 9.75131 402.937 2.98348 441.753C-0.0442381 459.737 -0.40044 468.462 0.311963 494.458C1.02437 521.522 1.73677 527.754 5.83309 541.643C22.2184 596.84 58.729 615.892 112.694 597.374C151.876 584.02 241.104 527.042 344.047 449.41C359.541 437.836 372.721 428.755 373.433 429.468C375.214 431.07 371.474 436.234 331.936 486.623C214.389 636.368 209.046 643.847 204.594 670.911C201.922 686.758 203.169 715.603 207.087 730.382C211.896 748.009 224.007 770.088 234.871 781.305C246.447 792.879 255.53 798.933 270.847 805.165C299.699 816.56 324.277 817.985 348.855 809.794C402.464 791.811 525.709 724.15 685.288 624.973C726.963 598.977 745.486 589.005 848.25 537.725C912.01 505.853 969.359 476.474 975.77 472.201C996.252 458.847 1007.29 457.422 1020.83 465.969C1036.86 476.118 1045.76 494.458 1059.48 545.382C1068.03 576.898 1075.68 595.772 1084.23 606.099C1095.81 619.987 1112.37 623.014 1128.05 613.933C1149.6 601.647 1173.46 562.831 1190.92 511.907C1219.77 428.577 1225.29 309.636 1204.45 226.484C1191.63 175.738 1171.32 137.635 1142.29 110.214C1119.85 89.0253 1097.23 78.698 1068.74 76.7394C1019.76 73.1783 968.29 100.243 911.654 159.001C886.363 185.353 876.924 196.749 795.888 298.597C687.959 434.453 650.914 478.077 620.637 504.963C589.113 532.918 574.153 543.779 542.629 561.941C524.107 572.446 519.832 574.405 519.832 571.378C519.832 570.488 565.96 512.263 622.24 441.753C678.698 371.421 731.06 304.829 738.718 294.145C767.036 254.439 780.215 229.867 789.833 197.995C794.285 183.395 794.642 179.299 794.82 152.591C794.998 126.061 794.642 122.322 790.901 113.241C781.64 90.2717 768.283 77.4517 747.089 71.3978C731.06 66.9464 701.495 68.5489 682.794 75.1369C641.119 89.5594 601.224 119.473 524.107 193.722C488.486 228.087 402.998 309.458 373.255 337.235C357.76 351.835 342.622 362.341 340.484 360.204C339.95 359.67 340.841 356.287 342.8 352.726C348.677 341.508 394.805 281.503 433.275 234.497C527.312 120.007 549.397 91.8741 575.578 52.7019C611.732 -1.60504 632.214 -51.9948 642.009 -110.041C645.749 -132.298 646.284 -186.961 643.078 -209.574C631.145 -291.479 587.867 -362.524 533.19 -389.944C527.312 -392.971 515.736 -397.601 507.365 -400.271C494.186 -404.545 488.843 -405.257 465.511 -405.791C443.071 -406.325 436.837 -405.969 427.22 -403.12Z" fill="#B5F5AF" fill-opacity="0.12"/>
</svg>
