<svg width="392" height="12" viewBox="0 0 392 12" fill="none" xmlns="http://www.w3.org/2000/svg">
<g clip-path="url(#clip0_322_2683)">
<path d="M0 2.22222V4.4L2.692 4.88889C4.35146 5.15556 6.15842 5.86667 7.55974 6.71111C14.7876 11.2889 17.0371 11.9556 22.3842 11.2C25.2237 10.7556 26.4775 10.1778 31.124 7.02222C32.3778 6.22222 34.406 5.28889 35.6598 5.02222C39.3844 4.22222 41.302 4.75556 46.6491 7.95556C50.558 10.3111 51.9225 10.8889 54.1351 11.2C58.8184 11.9111 61.4736 11.2 66.9313 7.95556C72.2416 4.75556 74.3067 4.22222 77.81 5.02222C78.9163 5.28889 80.5757 5.95556 81.4976 6.53333C87.988 10.5778 88.3567 10.7556 91.1962 11.2C92.9294 11.4222 95.1052 11.4667 96.7277 11.2C99.3091 10.8444 100.12 10.4444 106.205 6.53333C108.307 5.15556 111.663 4.44444 114.097 4.8C115.351 4.97778 117.6 6.04444 120.771 7.95556C126.192 11.2 128.958 11.9111 133.42 11.2444C136.481 10.7556 137.661 10.2222 141.681 7.55556C147.618 3.6 150.9 3.68889 158.017 7.95556C163.475 11.2444 166.13 11.9111 170.85 11.2C173.026 10.8889 174.353 10.3111 178.41 7.82222C178.41 7.82222 182.946 4.8 186.523 4.84444C190.1 4.88889 191.833 5.55556 195.631 8.31111C198.618 10.5333 201.2 11.3333 205.035 11.3333C209.017 11.3333 211.341 10.5333 215.582 7.73333C219.232 5.28889 222.404 4.35556 225.465 4.8C226.718 4.97778 228.968 6.04444 232.139 7.95556C237.597 11.2444 240.252 11.9111 244.972 11.2C247.148 10.8889 248.476 10.3111 252.495 7.82222C257.363 4.88889 257.437 4.84444 260.424 4.84444C264.001 4.84444 265.439 5.33333 269.237 7.91111C272.962 10.4889 275.654 11.3778 279.563 11.3778C283.361 11.3333 285.942 10.4889 288.929 8.31111C292.728 5.55556 294.461 4.88889 298.038 4.84444C298.038 4.84444 300.619 4.44444 306.151 7.82222C311.682 11.2 314.374 11.9111 318.91 11.2444C321.971 10.7556 323.114 10.2222 327.097 7.6C333.108 3.6 336.39 3.68889 343.507 7.95556C348.965 11.2444 351.62 11.9111 356.34 11.2C358.516 10.8889 359.843 10.3111 363.863 7.86667C363.863 7.86667 366.668 5.68942 368.768 5.24444C370.014 4.97991 371.976 4.88889 371.976 4.88889C375.627 4.88889 377.176 5.46667 381.453 8.53333C383.924 10.2667 385.62 10.8889 389.714 11.4667L391.668 11.7778L391.557 9.42222L391.447 7.02222L389.013 6.75556C387.427 6.62222 385.915 6.08889 384.772 5.37778C378.282 1.33333 377.692 1.02222 374.963 0.488889C370.39 -0.355556 367.698 0.355555 362.314 3.73333C362.314 3.73333 359.532 5.30733 357.705 6.13333C356.23 6.8 355.861 7.16507 354.017 7.24444C352.502 7.30964 351.62 7.46667 350.219 6.88889C348.214 6.06227 345.388 3.91111 345.388 3.91111C341.405 1.51111 340.004 0.888889 337.717 0.488889C332.702 -0.355556 329.9 0.533333 322.856 5.11111C320.643 6.13333 320.238 6.57778 317.251 6.71111C313.305 6.88889 311.756 6.4 307.921 3.73333C303.975 1.02222 302.021 0.355556 297.78 0.4C293.502 0.444444 291.769 1.06667 287.639 3.91111C283.951 6.48889 282.513 6.93333 278.567 6.71111C275.691 6.57778 274.99 6.4 273.072 5.11111C267.983 1.77778 266.176 0.933333 263.448 0.444444C258.949 -0.311111 256.293 0.4 250.578 3.91111C250.578 3.91111 247.796 6.10613 245.784 6.8C244.452 7.25911 243.742 7.47182 242.28 7.46667C240.832 7.46156 239.964 7.05671 238.593 6.57778C236.588 5.87778 233.909 3.86667 233.909 3.86667C228.267 0.399999 225.612 -0.311111 221.076 0.488889C218.274 0.933333 217.462 1.33333 211.673 5.02222C209.349 6.53333 208.354 7.46667 205.219 7.46667C202.822 7.46667 201.052 6.53333 198.766 5.06667C192.939 1.42222 192.091 1.02222 189.399 0.488889C184.937 -0.355556 182.208 0.355556 176.713 3.77778C176.713 3.77778 172.03 7.46667 168.047 7.46667C164.065 7.46667 163.843 6.53333 161.705 5.11111C154.624 0.488889 151.895 -0.355556 146.917 0.488889C144.52 0.888889 143.192 1.46667 139.173 3.91111C139.173 3.91111 134.01 7.24 130.507 7.15556C127.14 7.0744 122.246 3.73333 122.246 3.73333C116.862 0.355555 114.17 -0.355556 109.598 0.488889C106.869 1.02222 105.873 1.51111 100.342 5.06667C98.0553 6.53333 97.1703 7.46667 93.8514 7.46667C90.9012 7.46667 89.6474 6.53333 87.361 5.06667C81.8295 1.51111 80.8339 1.02222 78.105 0.488889C73.5323 -0.355556 70.8771 0.355555 65.0875 3.91111C65.0875 3.91111 60.1169 7.26182 56.7165 7.24444C53.3397 7.2272 48.4192 3.86667 48.4192 3.86667C40.2325 -1.15556 36.1392 -1.15556 27.9526 3.86667C25.0762 5.63124 23.791 7.02222 20.651 7.02222C16.9633 7.02222 14.8982 6.31111 11.0999 3.73333C7.70724 1.42222 5.78965 0.666667 2.58137 0.311111L0 0V2.22222Z" fill="#006A5C"/>
</g>
<defs>
<clipPath id="clip0_322_2683">
<rect width="392" height="12" fill="white"/>
</clipPath>
</defs>
</svg>
