<svg width="197" height="6" viewBox="0 0 197 6" fill="none" xmlns="http://www.w3.org/2000/svg">
<g clip-path="url(#clip0_358_1133)">
<path d="M0 1.11111V2.2L1.35287 2.44444C2.18683 2.57778 3.09492 2.93333 3.79915 3.35556C7.43151 5.64444 8.56199 5.97778 11.2492 5.6C12.6762 5.37778 13.3063 5.08889 15.6414 3.51111C16.2715 3.11111 17.2908 2.64444 17.9209 2.51111C19.7927 2.11111 20.7563 2.37778 23.4436 3.97778C25.408 5.15556 26.0937 5.44444 27.2056 5.6C29.5593 5.95556 30.8936 5.6 33.6364 3.97778C36.3051 2.37778 37.3429 2.11111 39.1035 2.51111C39.6595 2.64444 40.4934 2.97778 40.9567 3.26667C44.2184 5.28889 44.4038 5.37778 45.8308 5.6C46.7018 5.71111 47.7952 5.73333 48.6106 5.6C49.9079 5.42222 50.3156 5.22222 53.3735 3.26667C54.4298 2.57778 56.1163 2.22222 57.3394 2.4C57.9695 2.48889 59.1 3.02222 60.6938 3.97778C63.4181 5.6 64.808 5.95556 67.0504 5.62222C68.5886 5.37778 69.1816 5.11111 71.2017 3.77778C74.1854 1.8 75.8348 1.84444 79.4116 3.97778C82.1544 5.62222 83.4887 5.95556 85.8609 5.6C86.9543 5.44444 87.6214 5.15556 89.66 3.91111C89.66 3.91111 91.9395 2.4 93.7371 2.42222C95.5348 2.44444 96.4058 2.77778 98.3147 4.15556C99.8158 5.26667 101.113 5.66667 103.04 5.66667C105.042 5.66667 106.209 5.26667 108.341 3.86667C110.175 2.64444 111.769 2.17778 113.307 2.4C113.938 2.48889 115.068 3.02222 116.662 3.97778C119.405 5.62222 120.739 5.95556 123.111 5.6C124.204 5.44444 124.872 5.15556 126.892 3.91111C129.338 2.44444 129.375 2.42222 130.876 2.42222C132.674 2.42222 133.397 2.66667 135.305 3.95556C137.177 5.24444 138.53 5.68889 140.495 5.68889C142.403 5.66667 143.701 5.24444 145.202 4.15556C147.111 2.77778 147.982 2.44444 149.779 2.42222C149.779 2.42222 151.077 2.22222 153.856 3.91111C156.636 5.6 157.989 5.95556 160.269 5.62222C161.807 5.37778 162.381 5.11111 164.383 3.8C167.404 1.8 169.053 1.84444 172.63 3.97778C175.373 5.62222 176.707 5.95556 179.079 5.6C180.173 5.44444 180.84 5.15556 182.86 3.93333C182.86 3.93333 184.269 2.84471 185.325 2.62222C185.951 2.48996 186.937 2.44444 186.937 2.44444C188.772 2.44444 189.55 2.73333 191.7 4.26667C192.941 5.13333 193.794 5.44444 195.851 5.73333L196.833 5.88889L196.778 4.71111L196.722 3.51111L195.499 3.37778C194.702 3.31111 193.942 3.04444 193.368 2.68889C190.106 0.666667 189.809 0.511111 188.438 0.244444C186.14 -0.177778 184.787 0.177778 182.081 1.86667C182.081 1.86667 180.683 2.65367 179.765 3.06667C179.023 3.4 178.838 3.58253 177.912 3.62222C177.15 3.65482 176.707 3.73333 176.003 3.44444C174.995 3.03113 173.575 1.95556 173.575 1.95556C171.573 0.755556 170.869 0.444444 169.72 0.244444C167.2 -0.177778 165.791 0.266667 162.252 2.55556C161.14 3.06667 160.936 3.28889 159.435 3.35556C157.452 3.44444 156.673 3.2 154.746 1.86667C152.763 0.511111 151.781 0.177778 149.65 0.2C147.5 0.222222 146.629 0.533333 144.553 1.95556C142.7 3.24444 141.977 3.46667 139.994 3.35556C138.549 3.28889 138.197 3.2 137.233 2.55556C134.675 0.888889 133.767 0.466667 132.396 0.222222C130.135 -0.155556 128.801 0.2 125.928 1.95556C125.928 1.95556 124.53 3.05307 123.519 3.4C122.85 3.62956 122.493 3.73591 121.758 3.73333C121.03 3.73078 120.594 3.52836 119.905 3.28889C118.898 2.93889 117.551 1.93333 117.551 1.93333C114.716 0.2 113.382 -0.155556 111.102 0.244444C109.694 0.466667 109.286 0.666667 106.376 2.51111C105.209 3.26667 104.708 3.73333 103.133 3.73333C101.928 3.73333 101.039 3.26667 99.8899 2.53333C96.9618 0.711111 96.5355 0.511111 95.1827 0.244444C92.9402 -0.177778 91.5689 0.177778 88.8075 1.88889C88.8075 1.88889 86.4539 3.73333 84.4524 3.73333C82.4509 3.73333 82.3397 3.26667 81.2648 2.55556C77.7066 0.244445 76.3352 -0.177778 73.8333 0.244444C72.6287 0.444444 71.9615 0.733333 69.9415 1.95556C69.9415 1.95556 67.3467 3.62 65.5863 3.57778C63.8945 3.5372 61.4351 1.86667 61.4351 1.86667C58.7293 0.177778 57.3765 -0.177778 55.0785 0.244444C53.7071 0.511111 53.2067 0.755555 50.4268 2.53333C49.2778 3.26667 48.833 3.73333 47.1651 3.73333C45.6825 3.73333 45.0524 3.26667 43.9034 2.53333C41.1235 0.755555 40.6231 0.511111 39.2517 0.244444C36.9537 -0.177778 35.6194 0.177778 32.7098 1.95556C32.7098 1.95556 30.2118 3.63091 28.5029 3.62222C26.8059 3.6136 24.3331 1.93333 24.3331 1.93333C20.2189 -0.577778 18.1618 -0.577778 14.0476 1.93333C12.6021 2.81562 11.9562 3.51111 10.3782 3.51111C8.52493 3.51111 7.48711 3.15556 5.57827 1.86667C3.87328 0.711111 2.9096 0.333333 1.29727 0.155555L0 0V1.11111Z" fill="#A2FAA8"/>
</g>
<defs>
<clipPath id="clip0_358_1133">
<rect width="197" height="6" fill="white"/>
</clipPath>
</defs>
</svg>
