<svg width="25" height="24" viewBox="0 0 25 24" fill="none" xmlns="http://www.w3.org/2000/svg">
<path d="M22.0299 10.8699L20.5099 9.34988C20.2499 9.08988 20.0399 8.57988 20.0399 8.21988V6.05988C20.0399 5.17988 19.3199 4.45988 18.4399 4.45988H16.2899C15.9299 4.45988 15.4199 4.24988 15.1599 3.98988L13.6399 2.46988C13.0199 1.84988 11.9999 1.84988 11.3799 2.46988L9.83988 3.98988C9.58988 4.24988 9.07988 4.45988 8.70988 4.45988H6.55988C5.67988 4.45988 4.95988 5.17988 4.95988 6.05988V8.20988C4.95988 8.56988 4.74988 9.07988 4.48988 9.33988L2.96988 10.8599C2.34988 11.4799 2.34988 12.4999 2.96988 13.1199L4.48988 14.6399C4.74988 14.8999 4.95988 15.4099 4.95988 15.7699V17.9199C4.95988 18.7999 5.67988 19.5199 6.55988 19.5199H8.70988C9.06988 19.5199 9.57988 19.7299 9.83988 19.9899L11.3599 21.5099C11.9799 22.1299 12.9999 22.1299 13.6199 21.5099L15.1399 19.9899C15.3999 19.7299 15.9099 19.5199 16.2699 19.5199H18.4199C19.2999 19.5199 20.0199 18.7999 20.0199 17.9199V15.7699C20.0199 15.4099 20.2299 14.8999 20.4899 14.6399L22.0099 13.1199C22.6599 12.5099 22.6599 11.4899 22.0299 10.8699ZM8.49988 8.99988C8.49988 8.44988 8.94988 7.99988 9.49988 7.99988C10.0499 7.99988 10.4999 8.44988 10.4999 8.99988C10.4999 9.54988 10.0599 9.99988 9.49988 9.99988C8.94988 9.99988 8.49988 9.54988 8.49988 8.99988ZM10.0299 15.5299C9.87988 15.6799 9.68988 15.7499 9.49988 15.7499C9.30988 15.7499 9.11988 15.6799 8.96988 15.5299C8.67988 15.2399 8.67988 14.7599 8.96988 14.4699L14.9699 8.46988C15.2599 8.17988 15.7399 8.17988 16.0299 8.46988C16.3199 8.75988 16.3199 9.23988 16.0299 9.52988L10.0299 15.5299ZM15.4999 15.9999C14.9399 15.9999 14.4899 15.5499 14.4899 14.9999C14.4899 14.4499 14.9399 13.9999 15.4899 13.9999C16.0399 13.9999 16.4899 14.4499 16.4899 14.9999C16.4899 15.5499 16.0499 15.9999 15.4999 15.9999Z" fill="#862B04"/>
</svg>
