<svg width="30" height="31" viewBox="0 0 30 31" fill="none" xmlns="http://www.w3.org/2000/svg">
<mask id="path-1-inside-1_19_102" fill="white">
<path d="M21.1094 9.79907C19.5937 9.79907 18.2245 10.4244 17.2452 11.4311L16.6182 12.0755C16.2406 12.4637 16.2406 13.0821 16.6183 13.4702L16.6344 13.4867C17.027 13.8903 17.6753 13.8902 18.0679 13.4866L18.6953 12.8416C19.3076 12.2123 20.1638 11.8206 21.1094 11.8206C22.9669 11.8206 24.4785 13.3322 24.4785 15.1901C24.4785 17.0477 22.9669 18.5593 21.1094 18.5593C20.1638 18.5593 19.3076 18.1676 18.6953 17.5378C13.4153 12.1101 12.7626 11.4391 12.7548 11.4311C11.7755 10.4244 10.4063 9.79907 8.89062 9.79907C5.91365 9.79907 3.5 12.2127 3.5 15.1901C3.5 18.1671 5.91365 20.5808 8.89062 20.5808C10.4063 20.5808 11.7755 19.9555 12.7548 18.9488L13.3818 18.3043C13.7594 17.9161 13.7594 17.2978 13.3817 16.9096L13.3655 16.893C12.9729 16.4895 12.3247 16.4895 11.9321 16.893L11.3047 17.5378C10.6924 18.1676 9.83623 18.5593 8.89062 18.5593C7.03311 18.5593 5.52148 17.0477 5.52148 15.1901C5.52148 13.3322 7.03311 11.8206 8.89062 11.8206C9.83623 11.8206 10.6924 12.2123 11.3047 12.8416C11.5361 13.0795 17.1897 18.8917 17.2452 18.9488C18.2245 19.9555 19.5937 20.5808 21.1094 20.5808C24.0863 20.5808 26.5 18.1671 26.5 15.1901C26.5 12.2127 24.0863 9.79907 21.1094 9.79907Z"/>
</mask>
<path d="M21.1094 9.79907C19.5937 9.79907 18.2245 10.4244 17.2452 11.4311L16.6182 12.0755C16.2406 12.4637 16.2406 13.0821 16.6183 13.4702L16.6344 13.4867C17.027 13.8903 17.6753 13.8902 18.0679 13.4866L18.6953 12.8416C19.3076 12.2123 20.1638 11.8206 21.1094 11.8206C22.9669 11.8206 24.4785 13.3322 24.4785 15.1901C24.4785 17.0477 22.9669 18.5593 21.1094 18.5593C20.1638 18.5593 19.3076 18.1676 18.6953 17.5378C13.4153 12.1101 12.7626 11.4391 12.7548 11.4311C11.7755 10.4244 10.4063 9.79907 8.89062 9.79907C5.91365 9.79907 3.5 12.2127 3.5 15.1901C3.5 18.1671 5.91365 20.5808 8.89062 20.5808C10.4063 20.5808 11.7755 19.9555 12.7548 18.9488L13.3818 18.3043C13.7594 17.9161 13.7594 17.2978 13.3817 16.9096L13.3655 16.893C12.9729 16.4895 12.3247 16.4895 11.9321 16.893L11.3047 17.5378C10.6924 18.1676 9.83623 18.5593 8.89062 18.5593C7.03311 18.5593 5.52148 17.0477 5.52148 15.1901C5.52148 13.3322 7.03311 11.8206 8.89062 11.8206C9.83623 11.8206 10.6924 12.2123 11.3047 12.8416C11.5361 13.0795 17.1897 18.8917 17.2452 18.9488C18.2245 19.9555 19.5937 20.5808 21.1094 20.5808C24.0863 20.5808 26.5 18.1671 26.5 15.1901C26.5 12.2127 24.0863 9.79907 21.1094 9.79907Z" fill="black"/>
<path d="M17.2452 11.4311L17.3885 11.5705L17.3886 11.5705L17.2452 11.4311ZM18.6953 12.8416L18.5519 12.7022L18.5519 12.7022L18.6953 12.8416ZM18.6953 17.5378L18.8387 17.3984L18.8386 17.3983L18.6953 17.5378ZM12.7548 11.4311L12.8982 11.2917L12.8982 11.2916L12.7548 11.4311ZM12.7548 18.9488L12.6115 18.8093L12.6114 18.8093L12.7548 18.9488ZM11.3047 17.5378L11.1614 17.3983L11.1613 17.3984L11.3047 17.5378ZM11.3047 12.8416L11.4481 12.7022L11.4481 12.7022L11.3047 12.8416ZM17.2452 18.9488L17.3886 18.8093L17.3885 18.8093L17.2452 18.9488ZM13.3655 16.893L13.2222 17.0325L13.3655 16.893ZM11.9321 16.893L11.7888 16.7535L11.9321 16.893ZM13.3818 18.3043L13.5251 18.4438L13.3818 18.3043ZM13.3817 16.9096L13.525 16.7701L13.3817 16.9096ZM16.6344 13.4867L16.491 13.6262L16.6344 13.4867ZM18.0679 13.4866L18.2113 13.6261L18.0679 13.4866ZM16.6182 12.0755L16.4749 11.9361L16.6182 12.0755ZM16.6183 13.4702L16.7616 13.3307L16.6183 13.4702ZM21.1094 9.59907C19.5375 9.59907 18.1172 10.2478 17.1018 11.2916L17.3886 11.5705C18.3317 10.601 19.6499 9.99907 21.1094 9.99907V9.59907ZM17.1018 11.2916L16.4749 11.9361L16.7616 12.215L17.3885 11.5705L17.1018 11.2916ZM16.475 13.6097L16.491 13.6262L16.7777 13.3473L16.7616 13.3307L16.475 13.6097ZM18.2113 13.6261L18.8386 12.9811L18.5519 12.7022L17.9245 13.3472L18.2113 13.6261ZM18.8386 12.9811C19.4149 12.3887 20.2201 12.0206 21.1094 12.0206V11.6206C20.1074 11.6206 19.2002 12.0358 18.5519 12.7022L18.8386 12.9811ZM21.1094 12.0206C22.8564 12.0206 24.2785 13.4426 24.2785 15.1901H24.6785C24.6785 13.2217 23.0774 11.6206 21.1094 11.6206V12.0206ZM24.2785 15.1901C24.2785 16.9372 22.8564 18.3593 21.1094 18.3593V18.7593C23.0774 18.7593 24.6785 17.1581 24.6785 15.1901H24.2785ZM21.1094 18.3593C20.2201 18.3593 19.415 17.9911 18.8387 17.3984L18.5519 17.6772C19.2002 18.344 20.1074 18.7593 21.1094 18.7593V18.3593ZM18.8386 17.3983C13.5587 11.9706 12.906 11.2997 12.8982 11.2917L12.6114 11.5705C12.6192 11.5786 13.272 12.2496 18.5519 17.6772L18.8386 17.3983ZM12.8982 11.2916C11.8828 10.2478 10.4625 9.59907 8.89062 9.59907V9.99907C10.3501 9.99907 11.6683 10.601 12.6114 11.5705L12.8982 11.2916ZM8.89062 9.59907C5.80318 9.59907 3.3 12.1023 3.3 15.1901H3.7C3.7 12.3232 6.02412 9.99907 8.89062 9.99907V9.59907ZM3.3 15.1901C3.3 18.2776 5.8032 20.7808 8.89062 20.7808V20.3808C6.02411 20.3808 3.7 18.0567 3.7 15.1901H3.3ZM8.89062 20.7808C10.4625 20.7808 11.8828 20.132 12.8982 19.0882L12.6114 18.8093C11.6683 19.7789 10.3501 20.3808 8.89062 20.3808V20.7808ZM12.8982 19.0882L13.5251 18.4438L13.2384 18.1649L12.6115 18.8093L12.8982 19.0882ZM13.525 16.7701L13.5088 16.7535L13.2222 17.0325L13.2384 17.0491L13.525 16.7701ZM11.7888 16.7535L11.1614 17.3983L11.4481 17.6772L12.0754 17.0325L11.7888 16.7535ZM11.1613 17.3984C10.585 17.9911 9.77987 18.3593 8.89062 18.3593V18.7593C9.89259 18.7593 10.7998 18.344 11.4481 17.6772L11.1613 17.3984ZM8.89062 18.3593C7.14356 18.3593 5.72148 16.9372 5.72148 15.1901H5.32148C5.32148 17.1581 6.92265 18.7593 8.89062 18.7593V18.3593ZM5.72148 15.1901C5.72148 13.4426 7.14358 12.0206 8.89062 12.0206V11.6206C6.92263 11.6206 5.32148 13.2217 5.32148 15.1901H5.72148ZM8.89062 12.0206C9.77988 12.0206 10.5851 12.3887 11.1614 12.9811L11.4481 12.7022C10.7998 12.0358 9.89258 11.6206 8.89062 11.6206V12.0206ZM11.1614 12.9811C11.3927 13.219 17.0463 19.0312 17.1019 19.0882L17.3885 18.8093C17.333 18.7522 11.6795 12.9401 11.4481 12.7022L11.1614 12.9811ZM17.1018 19.0882C18.1172 20.132 19.5375 20.7808 21.1094 20.7808V20.3808C19.6499 20.3808 18.3317 19.7789 17.3886 18.8093L17.1018 19.0882ZM21.1094 20.7808C24.1968 20.7808 26.7 18.2776 26.7 15.1901H26.3C26.3 18.0567 23.9759 20.3808 21.1094 20.3808V20.7808ZM26.7 15.1901C26.7 12.1023 24.1968 9.59907 21.1094 9.59907V9.99907C23.9759 9.99907 26.3 12.3232 26.3 15.1901H26.7ZM13.5088 16.7535C13.0377 16.2693 12.2599 16.2693 11.7888 16.7535L12.0754 17.0325C12.3895 16.7097 12.9081 16.7097 13.2222 17.0325L13.5088 16.7535ZM13.5251 18.4438C13.9783 17.9779 13.9783 17.236 13.525 16.7701L13.2384 17.0491C13.5405 17.3596 13.5406 17.8543 13.2384 18.1649L13.5251 18.4438ZM16.491 13.6262C16.9622 14.1105 17.7402 14.1104 18.2113 13.6261L17.9245 13.3472C17.6105 13.6701 17.0919 13.6701 16.7777 13.3473L16.491 13.6262ZM16.4749 11.9361C16.0217 12.4019 16.0217 13.1439 16.475 13.6097L16.7616 13.3307C16.4595 13.0202 16.4594 12.5255 16.7616 12.215L16.4749 11.9361Z" fill="white" mask="url(#path-1-inside-1_19_102)"/>
</svg>
