<svg width="25" height="26" viewBox="0 0 25 26" fill="none" xmlns="http://www.w3.org/2000/svg">
<g clip-path="url(#clip0_5067_1290)">
<path d="M24.1004 13.0001C24.1004 11.8001 22.7004 10.8001 22.4004 9.80011C22.0004 8.70011 22.6004 7.10011 21.9004 6.20011C21.2004 5.30011 19.6004 5.30011 18.6004 4.60011C17.7004 3.90011 17.2004 2.30011 16.1004 2.00011C15.0004 1.60011 13.7004 2.50011 12.5004 2.50011C11.3004 2.50011 10.0004 1.50011 8.90039 1.90011C7.80039 2.30011 7.30039 3.90011 6.40039 4.50011C5.40039 5.20011 3.80039 5.20011 3.10039 6.20011C2.40039 7.10011 2.90039 8.70011 2.60039 9.80011C2.30039 10.9001 0.900391 11.8001 0.900391 13.0001C0.900391 14.2001 2.30039 15.2001 2.60039 16.2001C3.00039 17.3001 2.40039 18.9001 3.10039 19.8001C3.80039 20.7001 5.40039 20.7001 6.40039 21.4001C7.30039 22.1001 7.80039 23.7001 8.90039 24.0001C10.0004 24.3001 11.3004 23.4001 12.5004 23.4001C13.7004 23.4001 15.0004 24.4001 16.1004 24.0001C17.2004 23.6001 17.7004 22.1001 18.6004 21.4001C19.5004 20.7001 21.2004 20.7001 21.9004 19.8001C22.6004 18.9001 22.1004 17.3001 22.4004 16.2001C22.8004 15.2001 24.1004 14.2001 24.1004 13.0001ZM12.5004 22.0001C7.50039 22.0001 3.50039 18.0001 3.50039 13.0001C3.50039 8.00011 7.50039 4.00011 12.5004 4.00011C17.5004 4.00011 21.5004 8.00011 21.5004 13.0001C21.5004 18.0001 17.5004 22.0001 12.5004 22.0001Z" fill="#B68B51"/>
<path d="M18.2004 7.30039C16.7004 5.80039 14.7004 4.90039 12.5004 4.90039C10.3004 4.90039 8.30039 5.80039 6.80039 7.30039C5.30039 8.80039 4.40039 10.8004 4.40039 13.0004C4.40039 15.2004 5.20039 17.2004 6.80039 18.7004C8.30039 20.2004 10.3004 21.1004 12.5004 21.1004C14.7004 21.1004 16.7004 20.3004 18.2004 18.7004C19.7004 17.2004 20.6004 15.2004 20.6004 13.0004C20.6004 10.8004 19.7004 8.80039 18.2004 7.30039Z" fill="#B68B51"/>
</g>
<defs>
<clipPath id="clip0_5067_1290">
<rect width="25" height="25" fill="white" transform="translate(0 0.5)"/>
</clipPath>
</defs>
</svg>
