<svg width="25" height="26" viewBox="0 0 25 26" fill="none" xmlns="http://www.w3.org/2000/svg">
<g clip-path="url(#clip0_5067_1302)">
<path d="M20.8734 3H4.03797C2.88608 3 2 3.92827 2 5.02532V20.9747C2 22.0717 2.97468 23 4.12658 23H20.8734C22.0253 23 23 22.0717 23 20.9747V5.02532C22.9114 3.92827 22.0253 3 20.8734 3ZM12.4557 19.5401C9.44304 19.5401 6.96203 17.1772 6.96203 14.308H8.29114C8.29114 16.5021 10.1519 18.1899 12.3671 18.1899C14.6709 18.1899 16.443 16.4177 16.443 14.308C16.443 12.1139 14.5823 10.4262 12.3671 10.4262V13.0422L9.08861 9.75106L12.5443 6.45992V9.07595C15.557 9.07595 18.038 11.4388 18.038 14.308C17.9494 17.1772 15.4684 19.5401 12.4557 19.5401Z" fill="#B68B51"/>
</g>
<defs>
<clipPath id="clip0_5067_1302">
<rect width="25" height="25" fill="white" transform="translate(0 0.5)"/>
</clipPath>
</defs>
</svg>
