<svg width="30" height="31" viewBox="0 0 30 31" fill="none" xmlns="http://www.w3.org/2000/svg">
<g clip-path="url(#clip0_19_117)">
<path fill-rule="evenodd" clip-rule="evenodd" d="M17.6105 12.6593H10.1612L11.4234 13.8268C11.7713 14.1507 11.7945 14.694 11.472 15.0405C11.1481 15.3885 10.6045 15.4114 10.2579 15.0889L7.38653 12.4401L7.38506 12.4388C7.20345 12.2777 7.1001 12.0403 7.1001 11.8034C7.1001 11.5628 7.20342 11.3288 7.38193 11.1675L10.2544 8.51771C10.6012 8.19495 11.1484 8.2191 11.4682 8.56638C11.7909 8.91318 11.767 9.46016 11.4197 9.77993L10.1574 10.9476H17.6105C20.5264 10.9476 22.9 13.3212 22.9001 16.2371C22.8963 19.1493 20.5265 21.5192 17.6105 21.5192H11.8024C11.3279 21.5192 10.9427 21.134 10.9427 20.6595C10.9427 20.185 11.3279 19.7998 11.8024 19.7998H17.6105C19.5773 19.7998 21.1807 18.2004 21.1807 16.2295C21.1807 14.2588 19.5812 12.6593 17.6105 12.6593Z" fill="black"/>
</g>
<defs>
<clipPath id="clip0_19_117">
<rect width="16" height="14" fill="white" transform="translate(7 8.18994)"/>
</clipPath>
</defs>
</svg>
