<svg width="336" height="24" viewBox="0 0 336 24" fill="none" xmlns="http://www.w3.org/2000/svg">
<g clip-path="url(#clip0_55_7586)">
<path d="M94.8468 10.2888C94.8468 10.0643 94.6733 9.92149 94.3264 9.86026L89.5815 9.15618L87.4693 4.87047C87.3468 4.62557 87.1937 4.50312 87.0101 4.50312C86.8264 4.50312 86.6733 4.62557 86.5509 4.87047L84.4386 9.15618L79.6937 9.86026C79.3468 9.92149 79.1733 10.0643 79.1733 10.2888C79.1733 10.4317 79.255 10.5848 79.4182 10.748L82.8468 14.0848L82.0203 18.799C82.0203 18.8807 82.0203 18.9419 82.0203 18.9827C82.0203 19.1052 82.0509 19.2123 82.1121 19.3041C82.1733 19.396 82.2754 19.4419 82.4182 19.4419C82.5203 19.4419 82.6427 19.4011 82.7856 19.3194L87.0101 17.1154L91.2346 19.3194C91.3774 19.4011 91.4999 19.4419 91.6019 19.4419C91.7448 19.4419 91.8468 19.396 91.908 19.3041C91.9693 19.2123 91.9999 19.1052 91.9999 18.9827C91.9999 18.9011 91.9999 18.8399 91.9999 18.799L91.1733 14.0848L94.6019 10.748C94.7652 10.5848 94.8468 10.4317 94.8468 10.2888Z" fill="#D4A442"/>
</g>
<g clip-path="url(#clip1_55_7586)">
<path d="M114.847 10.2888C114.847 10.0643 114.673 9.92149 114.326 9.86026L109.582 9.15618L107.469 4.87047C107.347 4.62557 107.194 4.50312 107.01 4.50312C106.826 4.50312 106.673 4.62557 106.551 4.87047L104.439 9.15618L99.6937 9.86026C99.3468 9.92149 99.1733 10.0643 99.1733 10.2888C99.1733 10.4317 99.255 10.5848 99.4182 10.748L102.847 14.0848L102.02 18.799C102.02 18.8807 102.02 18.9419 102.02 18.9827C102.02 19.1052 102.051 19.2123 102.112 19.3041C102.173 19.396 102.275 19.4419 102.418 19.4419C102.52 19.4419 102.643 19.4011 102.786 19.3194L107.01 17.1154L111.235 19.3194C111.377 19.4011 111.5 19.4419 111.602 19.4419C111.745 19.4419 111.847 19.396 111.908 19.3041C111.969 19.2123 112 19.1052 112 18.9827C112 18.9011 112 18.8399 112 18.799L111.173 14.0848L114.602 10.748C114.765 10.5848 114.847 10.4317 114.847 10.2888Z" fill="#D4A442"/>
</g>
<g clip-path="url(#clip2_55_7586)">
<path d="M134.847 10.2888C134.847 10.0643 134.673 9.92149 134.326 9.86026L129.582 9.15618L127.469 4.87047C127.347 4.62557 127.194 4.50312 127.01 4.50312C126.826 4.50312 126.673 4.62557 126.551 4.87047L124.439 9.15618L119.694 9.86026C119.347 9.92149 119.173 10.0643 119.173 10.2888C119.173 10.4317 119.255 10.5848 119.418 10.748L122.847 14.0848L122.02 18.799C122.02 18.8807 122.02 18.9419 122.02 18.9827C122.02 19.1052 122.051 19.2123 122.112 19.3041C122.173 19.396 122.275 19.4419 122.418 19.4419C122.52 19.4419 122.643 19.4011 122.786 19.3194L127.01 17.1154L131.235 19.3194C131.377 19.4011 131.5 19.4419 131.602 19.4419C131.745 19.4419 131.847 19.396 131.908 19.3041C131.969 19.2123 132 19.1052 132 18.9827C132 18.9011 132 18.8399 132 18.799L131.173 14.0848L134.602 10.748C134.765 10.5848 134.847 10.4317 134.847 10.2888Z" fill="#D4A442"/>
</g>
<g clip-path="url(#clip3_55_7586)">
<path d="M154.847 10.2888C154.847 10.0643 154.673 9.92149 154.326 9.86026L149.582 9.15618L147.469 4.87047C147.347 4.62557 147.194 4.50312 147.01 4.50312C146.826 4.50312 146.673 4.62557 146.551 4.87047L144.439 9.15618L139.694 9.86026C139.347 9.92149 139.173 10.0643 139.173 10.2888C139.173 10.4317 139.255 10.5848 139.418 10.748L142.847 14.0848L142.02 18.799C142.02 18.8807 142.02 18.9419 142.02 18.9827C142.02 19.1052 142.051 19.2123 142.112 19.3041C142.173 19.396 142.275 19.4419 142.418 19.4419C142.52 19.4419 142.643 19.4011 142.786 19.3194L147.01 17.1154L151.235 19.3194C151.377 19.4011 151.5 19.4419 151.602 19.4419C151.745 19.4419 151.847 19.396 151.908 19.3041C151.969 19.2123 152 19.1052 152 18.9827C152 18.9011 152 18.8399 152 18.799L151.173 14.0848L154.602 10.748C154.765 10.5848 154.847 10.4317 154.847 10.2888Z" fill="#D4A442"/>
</g>
<g clip-path="url(#clip4_55_7586)">
<path d="M174.602 10.748C174.806 10.5439 174.883 10.3552 174.832 10.1817C174.78 10.0082 174.612 9.90108 174.326 9.86026L169.582 9.15618L167.469 4.87047C167.347 4.62557 167.194 4.50312 167.01 4.50312C166.826 4.50312 166.673 4.62557 166.551 4.87047L164.439 9.15618L159.694 9.86026C159.408 9.90108 159.24 10.0082 159.189 10.1817C159.138 10.3552 159.214 10.5439 159.418 10.748L162.847 14.0848L162.02 18.799C162 19.0031 162.02 19.1613 162.082 19.2735C162.143 19.3858 162.255 19.4419 162.418 19.4419C162.52 19.4419 162.643 19.4011 162.786 19.3194L167.01 17.1154L171.235 19.3194C171.377 19.4011 171.5 19.4419 171.602 19.4419C171.765 19.4419 171.877 19.3858 171.939 19.2735C172 19.1613 172.02 19.0031 172 18.799L171.173 14.0848L174.602 10.748ZM170.347 13.197L169.888 13.6562L170.01 14.2684L170.561 17.6052L167.561 16.0439L167.01 15.7378V6.67659L168.51 9.7072L168.786 10.2582L169.398 10.3807L172.765 10.8705L170.347 13.197Z" fill="#D4A442"/>
</g>
<path d="M187.052 15.3067H183.356C183.258 15.3067 183.216 15.2647 183.216 15.1667V14.3967C183.216 14.3407 183.23 14.2847 183.258 14.2287L186.338 7.56466C186.38 7.49466 186.436 7.45266 186.534 7.45266H187.472C187.57 7.45266 187.612 7.49466 187.57 7.57866L184.532 14.2007V14.2287H187.052C187.108 14.2287 187.136 14.2007 187.136 14.1447V11.6527C187.136 11.5547 187.178 11.5127 187.276 11.5127H188.172C188.27 11.5127 188.312 11.5547 188.312 11.6527V14.1447C188.312 14.2007 188.34 14.2287 188.396 14.2287H189.264C189.362 14.2287 189.404 14.2707 189.404 14.3687V15.1667C189.404 15.2647 189.362 15.3067 189.264 15.3067H188.396C188.34 15.3067 188.312 15.3347 188.312 15.3907V16.8327C188.312 16.9307 188.27 16.9727 188.172 16.9727H187.276C187.178 16.9727 187.136 16.9307 187.136 16.8327V15.3907C187.136 15.3347 187.108 15.3067 187.052 15.3067ZM191.042 16.8327V15.6287C191.042 15.5307 191.084 15.4887 191.182 15.4887H192.246C192.344 15.4887 192.386 15.5307 192.386 15.6287V16.8327C192.386 16.9307 192.344 16.9727 192.246 16.9727H191.182C191.084 16.9727 191.042 16.9307 191.042 16.8327ZM195.429 16.8187L198.677 8.58666V8.54466H195.779C195.723 8.54466 195.695 8.57266 195.695 8.62866V9.81866C195.695 9.91666 195.653 9.95866 195.555 9.95866H194.715C194.617 9.95866 194.575 9.91666 194.575 9.81866V7.59266C194.575 7.49466 194.617 7.45266 194.715 7.45266H199.797C199.895 7.45266 199.937 7.49466 199.937 7.59266V8.46066C199.937 8.50266 199.923 8.54466 199.909 8.60066L196.633 16.8467C196.591 16.9307 196.535 16.9727 196.451 16.9727H195.513C195.415 16.9727 195.387 16.9167 195.429 16.8187ZM202.079 16.8327V16.1047C202.079 16.0347 202.107 15.9647 202.149 15.9087L205.579 11.5407C206.027 10.9667 206.251 10.4207 206.251 9.88866C206.251 9.00666 205.663 8.39066 204.753 8.39066C203.871 8.39066 203.353 8.85266 203.199 9.79066C203.185 9.88866 203.129 9.91666 203.045 9.90266L202.191 9.72066C202.107 9.69266 202.065 9.63666 202.079 9.55266C202.149 8.93666 202.415 8.40466 202.877 7.97066C203.353 7.52266 203.983 7.29866 204.781 7.29866C205.593 7.29866 206.237 7.53666 206.727 8.02666C207.217 8.51666 207.455 9.13266 207.455 9.88866C207.455 10.6307 207.147 11.3867 206.531 12.1707L203.591 15.8667V15.8807H207.315C207.413 15.8807 207.455 15.9227 207.455 16.0207V16.8327C207.455 16.9307 207.413 16.9727 207.315 16.9727H202.219C202.121 16.9727 202.079 16.9307 202.079 16.8327ZM212.876 15.3207C212.722 14.8727 212.652 14.2987 212.652 13.6127C212.652 12.9267 212.722 12.3667 212.876 11.9187C213.226 10.7847 214.22 10.1127 215.522 10.1127C216.824 10.1127 217.818 10.7847 218.168 11.9187C218.322 12.3667 218.392 12.9267 218.392 13.6127C218.392 14.2987 218.322 14.8727 218.168 15.3207C217.79 16.4547 216.824 17.1267 215.522 17.1267C214.22 17.1267 213.254 16.4547 212.876 15.3207ZM217.034 14.9847C217.132 14.6487 217.188 14.1867 217.188 13.6127C217.188 13.0387 217.132 12.5907 217.034 12.2547C216.796 11.5547 216.292 11.2047 215.522 11.2047C214.752 11.2047 214.248 11.5547 214.01 12.2547C213.912 12.5907 213.856 13.0387 213.856 13.6127C213.856 14.1867 213.912 14.6487 214.01 14.9847C214.248 15.6847 214.752 16.0347 215.522 16.0347C216.292 16.0347 216.796 15.6847 217.034 14.9847ZM225.387 16.9727H224.491C224.393 16.9727 224.351 16.9307 224.351 16.8327V16.2027H224.337C223.959 16.8187 223.343 17.1267 222.503 17.1267C221.047 17.1267 220.179 16.1467 220.179 14.5927V10.4067C220.179 10.3087 220.221 10.2667 220.319 10.2667H221.215C221.313 10.2667 221.355 10.3087 221.355 10.4067V14.3127C221.355 15.4607 221.845 16.0347 222.839 16.0347C223.749 16.0347 224.351 15.3907 224.351 14.3827V10.4067C224.351 10.3087 224.393 10.2667 224.491 10.2667H225.387C225.485 10.2667 225.527 10.3087 225.527 10.4067V16.8327C225.527 16.9307 225.485 16.9727 225.387 16.9727ZM230.288 17.0427H229.77C228.482 17.0427 227.964 16.4687 227.964 15.1387V11.3027C227.964 11.2467 227.936 11.2187 227.88 11.2187H227.32C227.222 11.2187 227.18 11.1767 227.18 11.0787V10.4067C227.18 10.3087 227.222 10.2667 227.32 10.2667H227.88C227.936 10.2667 227.964 10.2387 227.964 10.1827V8.29266C227.964 8.19466 228.006 8.15266 228.104 8.15266H229C229.098 8.15266 229.14 8.19466 229.14 8.29266V10.1827C229.14 10.2387 229.168 10.2667 229.224 10.2667H230.288C230.386 10.2667 230.428 10.3087 230.428 10.4067V11.0787C230.428 11.1767 230.386 11.2187 230.288 11.2187H229.224C229.168 11.2187 229.14 11.2467 229.14 11.3027V15.0967C229.14 15.7547 229.378 15.9507 229.994 15.9507H230.288C230.386 15.9507 230.428 15.9927 230.428 16.0907V16.9027C230.428 17.0007 230.386 17.0427 230.288 17.0427ZM235.434 15.3207C235.28 14.8727 235.21 14.2987 235.21 13.6127C235.21 12.9267 235.28 12.3667 235.434 11.9187C235.784 10.7847 236.778 10.1127 238.08 10.1127C239.382 10.1127 240.376 10.7847 240.726 11.9187C240.88 12.3667 240.95 12.9267 240.95 13.6127C240.95 14.2987 240.88 14.8727 240.726 15.3207C240.348 16.4547 239.382 17.1267 238.08 17.1267C236.778 17.1267 235.812 16.4547 235.434 15.3207ZM239.592 14.9847C239.69 14.6487 239.746 14.1867 239.746 13.6127C239.746 13.0387 239.69 12.5907 239.592 12.2547C239.354 11.5547 238.85 11.2047 238.08 11.2047C237.31 11.2047 236.806 11.5547 236.568 12.2547C236.47 12.5907 236.414 13.0387 236.414 13.6127C236.414 14.1867 236.47 14.6487 236.568 14.9847C236.806 15.6847 237.31 16.0347 238.08 16.0347C238.85 16.0347 239.354 15.6847 239.592 14.9847ZM244.095 16.9727H243.199C243.101 16.9727 243.059 16.9307 243.059 16.8327V11.3027C243.059 11.2467 243.031 11.2187 242.975 11.2187H242.401C242.303 11.2187 242.261 11.1767 242.261 11.0787V10.4067C242.261 10.3087 242.303 10.2667 242.401 10.2667H242.975C243.031 10.2667 243.059 10.2387 243.059 10.1827V9.60866C243.059 8.05466 243.689 7.45266 245.103 7.45266H245.621C245.719 7.45266 245.761 7.49466 245.761 7.59266V8.40466C245.761 8.50266 245.719 8.54466 245.621 8.54466H245.257C244.417 8.54466 244.235 8.72666 244.235 9.55266V10.1827C244.235 10.2387 244.263 10.2667 244.319 10.2667H245.621C245.719 10.2667 245.761 10.3087 245.761 10.4067V11.0787C245.761 11.1767 245.719 11.2187 245.621 11.2187H244.319C244.263 11.2187 244.235 11.2467 244.235 11.3027V16.8327C244.235 16.9307 244.193 16.9727 244.095 16.9727ZM250.74 15.1387C250.726 15.0407 250.754 14.9847 250.852 14.9707L251.678 14.7607C251.776 14.7467 251.832 14.7887 251.86 14.8727C252.028 15.5867 252.56 16.0347 253.414 16.0347C254.128 16.0347 254.604 15.7267 254.814 15.0967C254.898 14.8727 254.94 14.4807 254.94 13.9067C254.94 13.3607 254.898 12.9547 254.8 12.7027C254.59 12.0867 254.128 11.7787 253.414 11.7787C252.7 11.7787 252.182 12.1707 252.014 12.6607C251.972 12.7587 251.916 12.8007 251.846 12.8007H251.02C250.922 12.8007 250.88 12.7587 250.88 12.6607V7.59266C250.88 7.49466 250.922 7.45266 251.02 7.45266H255.808C255.906 7.45266 255.948 7.49466 255.948 7.59266V8.40466C255.948 8.50266 255.906 8.54466 255.808 8.54466H252.056C252 8.54466 251.972 8.57266 251.972 8.62866V11.3027H252.014C252.336 10.8967 252.854 10.6867 253.582 10.6867C254.758 10.6867 255.598 11.2467 255.934 12.2547C256.074 12.7027 256.144 13.2487 256.144 13.9067C256.144 14.5367 256.074 15.0547 255.948 15.4467C255.612 16.5107 254.632 17.1267 253.414 17.1267C251.958 17.1267 250.922 16.3147 250.74 15.1387Z" fill="black"/>
<defs>
<clipPath id="clip0_55_7586">
<rect width="16" height="15" fill="white" transform="matrix(1 0 0 -1 79.01 19.4727)"/>
</clipPath>
<clipPath id="clip1_55_7586">
<rect width="16" height="15" fill="white" transform="matrix(1 0 0 -1 99.01 19.4727)"/>
</clipPath>
<clipPath id="clip2_55_7586">
<rect width="16" height="15" fill="white" transform="matrix(1 0 0 -1 119.01 19.4727)"/>
</clipPath>
<clipPath id="clip3_55_7586">
<rect width="16" height="15" fill="white" transform="matrix(1 0 0 -1 139.01 19.4727)"/>
</clipPath>
<clipPath id="clip4_55_7586">
<rect width="16" height="15" fill="white" transform="matrix(1 0 0 -1 159.01 19.4727)"/>
</clipPath>
</defs>
</svg>
