<svg width="96" height="19" viewBox="0 0 96 19" fill="none" xmlns="http://www.w3.org/2000/svg">
<g clip-path="url(#clip0_2_633)">
<path d="M15.8366 7.00624C15.8366 6.78175 15.6631 6.63889 15.3161 6.57767L10.5712 5.87359L8.459 1.58787C8.33656 1.34297 8.18349 1.22053 7.99982 1.22053C7.81615 1.22053 7.66309 1.34297 7.54064 1.58787L5.42839 5.87359L0.683494 6.57767C0.336555 6.63889 0.163086 6.78175 0.163086 7.00624C0.163086 7.1491 0.244719 7.30216 0.407984 7.46542L3.83656 10.8022L3.01002 15.5164C3.01002 15.5981 3.01002 15.6593 3.01002 15.7001C3.01002 15.8226 3.04064 15.9297 3.10186 16.0215C3.16309 16.1134 3.26513 16.1593 3.40798 16.1593C3.51002 16.1593 3.63247 16.1185 3.77533 16.0369L7.99982 13.8328L12.2243 16.0369C12.3672 16.1185 12.4896 16.1593 12.5917 16.1593C12.7345 16.1593 12.8366 16.1134 12.8978 16.0215C12.959 15.9297 12.9896 15.8226 12.9896 15.7001C12.9896 15.6185 12.9896 15.5573 12.9896 15.5164L12.1631 10.8022L15.5917 7.46542C15.7549 7.30216 15.8366 7.1491 15.8366 7.00624Z" fill="#D4A442"/>
</g>
<g clip-path="url(#clip1_2_633)">
<path d="M35.8366 7.00624C35.8366 6.78175 35.6631 6.63889 35.3161 6.57767L30.5712 5.87359L28.459 1.58787C28.3366 1.34297 28.1835 1.22053 27.9998 1.22053C27.8161 1.22053 27.6631 1.34297 27.5406 1.58787L25.4284 5.87359L20.6835 6.57767C20.3366 6.63889 20.1631 6.78175 20.1631 7.00624C20.1631 7.1491 20.2447 7.30216 20.408 7.46542L23.8366 10.8022L23.01 15.5164C23.01 15.5981 23.01 15.6593 23.01 15.7001C23.01 15.8226 23.0406 15.9297 23.1019 16.0215C23.1631 16.1134 23.2651 16.1593 23.408 16.1593C23.51 16.1593 23.6325 16.1185 23.7753 16.0369L27.9998 13.8328L32.2243 16.0369C32.3672 16.1185 32.4896 16.1593 32.5917 16.1593C32.7345 16.1593 32.8366 16.1134 32.8978 16.0215C32.959 15.9297 32.9896 15.8226 32.9896 15.7001C32.9896 15.6185 32.9896 15.5573 32.9896 15.5164L32.1631 10.8022L35.5917 7.46542C35.7549 7.30216 35.8366 7.1491 35.8366 7.00624Z" fill="#D4A442"/>
</g>
<g clip-path="url(#clip2_2_633)">
<path d="M55.8366 7.00624C55.8366 6.78175 55.6631 6.63889 55.3161 6.57767L50.5712 5.87359L48.459 1.58787C48.3366 1.34297 48.1835 1.22053 47.9998 1.22053C47.8161 1.22053 47.6631 1.34297 47.5406 1.58787L45.4284 5.87359L40.6835 6.57767C40.3366 6.63889 40.1631 6.78175 40.1631 7.00624C40.1631 7.1491 40.2447 7.30216 40.408 7.46542L43.8366 10.8022L43.01 15.5164C43.01 15.5981 43.01 15.6593 43.01 15.7001C43.01 15.8226 43.0406 15.9297 43.1019 16.0215C43.1631 16.1134 43.2651 16.1593 43.408 16.1593C43.51 16.1593 43.6325 16.1185 43.7753 16.0369L47.9998 13.8328L52.2243 16.0369C52.3672 16.1185 52.4896 16.1593 52.5917 16.1593C52.7345 16.1593 52.8366 16.1134 52.8978 16.0215C52.959 15.9297 52.9896 15.8226 52.9896 15.7001C52.9896 15.6185 52.9896 15.5573 52.9896 15.5164L52.1631 10.8022L55.5917 7.46542C55.7549 7.30216 55.8366 7.1491 55.8366 7.00624Z" fill="#D4A442"/>
</g>
<g clip-path="url(#clip3_2_633)">
<path d="M75.8366 7.00624C75.8366 6.78175 75.6631 6.63889 75.3161 6.57767L70.5712 5.87359L68.459 1.58787C68.3366 1.34297 68.1835 1.22053 67.9998 1.22053C67.8161 1.22053 67.6631 1.34297 67.5406 1.58787L65.4284 5.87359L60.6835 6.57767C60.3366 6.63889 60.1631 6.78175 60.1631 7.00624C60.1631 7.1491 60.2447 7.30216 60.408 7.46542L63.8366 10.8022L63.01 15.5164C63.01 15.5981 63.01 15.6593 63.01 15.7001C63.01 15.8226 63.0406 15.9297 63.1019 16.0215C63.1631 16.1134 63.2651 16.1593 63.408 16.1593C63.51 16.1593 63.6325 16.1185 63.7753 16.0369L67.9998 13.8328L72.2243 16.0369C72.3672 16.1185 72.4896 16.1593 72.5917 16.1593C72.7345 16.1593 72.8366 16.1134 72.8978 16.0215C72.959 15.9297 72.9896 15.8226 72.9896 15.7001C72.9896 15.6185 72.9896 15.5573 72.9896 15.5164L72.1631 10.8022L75.5917 7.46542C75.7549 7.30216 75.8366 7.1491 75.8366 7.00624Z" fill="#D4A442"/>
</g>
<g clip-path="url(#clip4_2_633)">
<path d="M95.8366 7.00624C95.8366 6.78175 95.6631 6.63889 95.3161 6.57767L90.5712 5.87359L88.459 1.58787C88.3366 1.34297 88.1835 1.22053 87.9998 1.22053C87.8161 1.22053 87.6631 1.34297 87.5406 1.58787L85.4284 5.87359L80.6835 6.57767C80.3366 6.63889 80.1631 6.78175 80.1631 7.00624C80.1631 7.1491 80.2447 7.30216 80.408 7.46542L83.8366 10.8022L83.01 15.5164C83.01 15.5981 83.01 15.6593 83.01 15.7001C83.01 15.8226 83.0406 15.9297 83.1019 16.0215C83.1631 16.1134 83.2651 16.1593 83.408 16.1593C83.51 16.1593 83.6325 16.1185 83.7753 16.0369L87.9998 13.8328L92.2243 16.0369C92.3672 16.1185 92.4896 16.1593 92.5917 16.1593C92.7345 16.1593 92.8366 16.1134 92.8978 16.0215C92.959 15.9297 92.9896 15.8226 92.9896 15.7001C92.9896 15.6185 92.9896 15.5573 92.9896 15.5164L92.1631 10.8022L95.5917 7.46542C95.7549 7.30216 95.8366 7.1491 95.8366 7.00624Z" fill="#D4A442"/>
</g>
<defs>
<clipPath id="clip0_2_633">
<rect width="16" height="15" fill="white" transform="matrix(1 0 0 -1 0 16.1899)"/>
</clipPath>
<clipPath id="clip1_2_633">
<rect width="16" height="15" fill="white" transform="matrix(1 0 0 -1 20 16.1899)"/>
</clipPath>
<clipPath id="clip2_2_633">
<rect width="16" height="15" fill="white" transform="matrix(1 0 0 -1 40 16.1899)"/>
</clipPath>
<clipPath id="clip3_2_633">
<rect width="16" height="15" fill="white" transform="matrix(1 0 0 -1 60 16.1899)"/>
</clipPath>
<clipPath id="clip4_2_633">
<rect width="16" height="15" fill="white" transform="matrix(1 0 0 -1 80 16.1899)"/>
</clipPath>
</defs>
</svg>
