<svg width="119" height="20" viewBox="0 0 119 20" fill="none" xmlns="http://www.w3.org/2000/svg">
<path d="M9.5 13.015L14.135 15.8125L12.905 10.54L17 6.9925L11.6075 6.535L9.5 1.5625L7.3925 6.535L2 6.9925L6.095 10.54L4.865 15.8125L9.5 13.015Z" fill="#F3AD3C" stroke="#F3AD3C" stroke-width="0.833333"/>
<path d="M28 13.015L32.635 15.8125L31.405 10.54L35.5 6.9925L30.1075 6.535L28 1.5625L25.8925 6.535L20.5 6.9925L24.595 10.54L23.365 15.8125L28 13.015Z" fill="#F3AD3C" stroke="#F3AD3C" stroke-width="0.833333"/>
<path d="M46.5 13.015L51.135 15.8125L49.905 10.54L54 6.9925L48.6075 6.535L46.5 1.5625L44.3925 6.535L39 6.9925L43.095 10.54L41.865 15.8125L46.5 13.015Z" fill="#F3AD3C" stroke="#F3AD3C" stroke-width="0.833333"/>
<path d="M65 13.015L69.635 15.8125L68.405 10.54L72.5 6.9925L67.1075 6.535L65 1.5625L62.8925 6.535L57.5 6.9925L61.595 10.54L60.365 15.8125L65 13.015Z" fill="#F3AD3C" stroke="#F3AD3C" stroke-width="0.833333"/>
<path d="M83.5 13.015L88.135 15.8125L86.905 10.54L91 6.9925L85.6075 6.535L83.5 1.5625L81.3925 6.535L76 6.9925L80.095 10.54L78.865 15.8125L83.5 13.015Z" fill="#F3AD3C" stroke="#F3AD3C" stroke-width="0.833333"/>
<path d="M105.352 10.876H103.96V13.5H102.648V10.876H97.624V9.74L102.712 2.588H103.96V9.66H105.352V10.876ZM101.864 5.644L99.032 9.66H102.648V5.708C102.648 5.196 102.653 4.79067 102.664 4.492H102.616C102.477 4.748 102.227 5.132 101.864 5.644ZM106.944 13.5V11.74H108.704V13.5H106.944ZM118.121 6.156C118.121 7.15867 117.737 8.188 116.969 9.244L113.881 13.5H112.409L115.097 9.868C114.809 9.996 114.398 10.06 113.865 10.06C112.809 10.06 111.929 9.68133 111.225 8.924C110.521 8.16667 110.169 7.244 110.169 6.156C110.169 5.068 110.553 4.14533 111.321 3.388C112.089 2.62 113.033 2.236 114.153 2.236C115.283 2.236 116.227 2.60933 116.985 3.356C117.742 4.092 118.121 5.02533 118.121 6.156ZM116.745 6.14C116.745 5.36133 116.499 4.716 116.009 4.204C115.518 3.68133 114.899 3.42 114.153 3.42C113.406 3.42 112.782 3.68133 112.281 4.204C111.79 4.716 111.545 5.36133 111.545 6.14C111.545 6.91867 111.785 7.57467 112.265 8.108C112.745 8.63067 113.374 8.892 114.153 8.892C114.921 8.892 115.545 8.636 116.025 8.124C116.505 7.612 116.745 6.95067 116.745 6.14Z" fill="#F3AD3C"/>
</svg>
