<svg width="42" height="42" viewBox="0 0 42 42" fill="none" xmlns="http://www.w3.org/2000/svg">
<path d="M40.6044 36.5699L37.4544 29.8977C37.3291 29.6202 37.0544 29.4406 36.7501 29.4368H34.0867L31.1543 23.2254C31.029 22.9483 30.7543 22.7683 30.45 22.7646H27.7866L24.8542 16.5531C24.7289 16.276 24.4542 16.096 24.1499 16.0923H17.8498C17.5456 16.096 17.2708 16.276 17.1455 16.5531L14.2132 22.7646H11.5501C11.2455 22.7683 10.9707 22.9483 10.8454 23.2254L7.91307 29.4368H5.25C4.94539 29.4406 4.671 29.6202 4.54535 29.8977L1.39531 36.5699C1.27374 36.8301 1.28664 37.133 1.42995 37.3816C1.5668 37.6233 1.82218 37.7741 2.09996 37.7772H39.9001C40.1779 37.7741 40.4329 37.6233 40.5698 37.3816C40.7134 37.133 40.7263 36.8301 40.6044 36.5699ZM32.3256 29.4368H22.2744L24.6369 24.4326H29.963L32.3256 29.4368ZM27.3 35.0778L25.4244 31.1049H29.1755L27.3 35.0778ZM20.9999 28.4055L19.1243 24.4326H22.8758L20.9999 28.4055ZM18.3368 17.7604H23.6633L26.0258 22.7646H15.9743L18.3368 17.7604ZM12.0367 24.4326H17.3632L19.7257 29.4368H9.67419L12.0367 24.4326ZM14.6998 35.0778L12.8242 31.1049H16.5757L14.6998 35.0778ZM3.3741 36.1091L5.73664 31.1049H11.0631L13.4256 36.1091H3.3741ZM15.9743 36.1091L18.3368 31.1049H23.6633L26.0258 36.1091H15.9743ZM28.5741 36.1091L30.9366 31.1049H36.2631L38.6256 36.1091H28.5741Z" fill="black"/>
<path d="M6.26791 23.3542C6.41122 23.5101 6.61328 23.5987 6.82484 23.5987C7.03641 23.5987 7.23812 23.5101 7.38143 23.3542C7.6891 23.0214 7.6891 22.508 7.38143 22.1748L3.44388 18.0047C3.30091 17.8491 3.09885 17.7605 2.88729 17.7605C2.67572 17.7605 2.47367 17.8491 2.33036 18.0047C2.02269 18.3378 2.02269 18.8513 2.33036 19.1841L6.26791 23.3542Z" fill="black"/>
<path d="M10.1072 17.389C10.2471 17.6179 10.495 17.7585 10.7633 17.7605C10.9195 17.7602 11.072 17.7113 11.1993 17.6203C11.5637 17.3517 11.6588 16.847 11.4177 16.464L8.26765 11.4598C8.15932 11.2777 7.97968 11.149 7.77219 11.1052C7.56504 11.0611 7.34872 11.1059 7.17553 11.2285C6.81114 11.4971 6.71606 12.0017 6.95717 12.3848L10.1072 17.389Z" fill="black"/>
<path d="M34.6184 23.3542C34.7618 23.5101 34.9638 23.5987 35.1754 23.5987C35.3869 23.5987 35.5887 23.5101 35.732 23.3542L39.6695 19.1841C39.9772 18.8513 39.9772 18.3378 39.6695 18.0047C39.5262 17.8491 39.3245 17.7605 39.1129 17.7605C38.901 17.7605 38.6993 17.8491 38.556 18.0047L34.6184 22.1748C34.3108 22.508 34.3108 23.0214 34.6184 23.3542Z" fill="black"/>
<path d="M31.2368 17.7604C31.5047 17.7584 31.753 17.6178 31.8925 17.3889L35.0426 12.3847C35.2837 12.0016 35.1886 11.497 34.8242 11.2284C34.6514 11.1058 34.4351 11.061 34.2276 11.1048C34.0201 11.1489 33.8408 11.2773 33.7321 11.4597L30.5821 16.4639C30.341 16.8469 30.4364 17.3516 30.8008 17.6202C30.9278 17.7112 31.0802 17.7601 31.2368 17.7604Z" fill="black"/>
<path d="M14.3467 13.02C14.4438 13.3531 14.7467 13.5844 15.0938 13.5905C15.1787 13.5905 15.2629 13.5759 15.3431 13.5474C15.7638 13.3847 15.9828 12.9205 15.8409 12.4923L14.2659 7.48807C14.2085 7.28296 14.0693 7.11045 13.8808 7.01061C13.6926 6.91111 13.4716 6.89311 13.2695 6.96069C12.8488 7.12335 12.6297 7.58757 12.7717 8.0158L14.3467 13.02Z" fill="black"/>
<path d="M26.6574 13.5474C26.7372 13.5759 26.8214 13.5905 26.9066 13.5905C27.2537 13.5844 27.5563 13.3531 27.6537 13.02L29.2288 8.01578C29.3704 7.58755 29.1513 7.12333 28.7306 6.96067C28.5285 6.89309 28.3078 6.91109 28.1193 7.01093C27.9312 7.11043 27.792 7.28294 27.7342 7.48805L26.1592 12.4923C26.0176 12.9205 26.2366 13.3847 26.6574 13.5474Z" fill="black"/>
<path d="M20.9997 12.7562C21.4473 12.743 21.7998 12.3698 21.7872 11.9222V6.08395C21.8042 5.7919 21.6579 5.51446 21.4072 5.36334C21.1566 5.21222 20.8428 5.21222 20.5926 5.36334C20.3419 5.51446 20.1956 5.7919 20.2122 6.08395V11.9222C20.2 12.3698 20.5521 12.743 20.9997 12.7562Z" fill="black"/>
</svg>
