<svg width="32" height="32" viewBox="0 0 32 32" fill="none" xmlns="http://www.w3.org/2000/svg">
<path d="M29.9489 19.0803C29.6257 18.83 29.2493 18.6582 28.8491 18.5786C28.449 18.4989 28.0359 18.5135 27.6423 18.6211L26.0972 18.9789C29.349 16.1717 30.9962 13.4009 30.9962 10.7238C30.9962 7.56801 28.4749 5.00018 25.3771 5.00018C24.4426 4.99266 23.521 5.22002 22.696 5.66162C21.871 6.10322 21.1687 6.74509 20.6527 7.52899C20.1367 6.74509 19.4343 6.10322 18.6093 5.66162C17.7843 5.22002 16.8627 4.99266 15.9283 5.00018C12.8304 5.00018 10.3092 7.56801 10.3092 10.7238C10.3092 12.2653 10.8406 13.773 11.9654 15.4068C11.0561 15.4409 10.1934 15.8207 9.5515 16.4696L6.4743 19.5694H2.55153C2.14004 19.5694 1.7454 19.7339 1.45443 20.0266C1.16346 20.3194 1 20.7164 1 21.1304V26.3337C1 26.7477 1.16346 27.1448 1.45443 27.4375C1.7454 27.7303 2.14004 27.8947 2.55153 27.8947H15.9981C16.0417 27.895 16.0851 27.8898 16.1274 27.8791L24.4022 25.7978C24.4286 25.7909 24.4545 25.7822 24.4798 25.7718L29.499 23.6202L29.5274 23.6072C29.9318 23.4038 30.2781 23.1002 30.5336 22.725C30.7892 22.3498 30.9456 21.9153 30.9882 21.4625C31.0307 21.0096 30.958 20.5534 30.7769 20.1366C30.5957 19.7198 30.3121 19.3563 29.9528 19.0803H29.9489ZM15.9283 6.04084C16.8325 6.02948 17.7196 6.28979 18.476 6.78847C19.2324 7.28716 19.8237 8.00154 20.1743 8.84022C20.2132 8.93565 20.2795 9.01728 20.3647 9.07472C20.4499 9.13217 20.5501 9.16284 20.6527 9.16284C20.7552 9.16284 20.8554 9.13217 20.9406 9.07472C21.0258 9.01728 21.0921 8.93565 21.1311 8.84022C21.4817 8.00154 22.073 7.28716 22.8294 6.78847C23.5857 6.28979 24.4728 6.02948 25.3771 6.04084C27.8621 6.04084 29.9618 8.1859 29.9618 10.7238C29.9618 13.4907 27.8763 16.4475 23.7635 19.5187L21.2668 20.0898C21.5421 19.6162 21.6871 19.0774 21.687 18.5288C21.687 17.7008 21.3601 16.9067 20.7782 16.3212C20.1962 15.7357 19.4069 15.4068 18.584 15.4068H13.2428C11.9499 13.7157 11.3435 12.2198 11.3435 10.7238C11.3435 8.1859 13.4432 6.04084 15.9283 6.04084ZM2.03435 26.3337V21.1304C2.03435 20.9924 2.08884 20.8601 2.18583 20.7625C2.28282 20.6649 2.41436 20.6101 2.55153 20.6101H6.17175V26.8541H2.55153C2.41436 26.8541 2.28282 26.7992 2.18583 26.7017C2.08884 26.6041 2.03435 26.4717 2.03435 26.3337ZM29.0736 22.6693L24.1074 24.7988L15.9347 26.8541H7.20611V20.3057L10.2833 17.2097C10.5228 16.9673 10.8077 16.7751 11.1215 16.6443C11.4353 16.5134 11.7718 16.4465 12.1115 16.4475H18.584C19.1326 16.4475 19.6588 16.6667 20.0468 17.0571C20.4347 17.4474 20.6527 17.9768 20.6527 18.5288C20.6527 19.0808 20.4347 19.6102 20.0468 20.0005C19.6588 20.3908 19.1326 20.6101 18.584 20.6101H14.9637C14.8266 20.6101 14.695 20.6649 14.598 20.7625C14.5011 20.8601 14.4466 20.9924 14.4466 21.1304C14.4466 21.2684 14.5011 21.4008 14.598 21.4984C14.695 21.5959 14.8266 21.6508 14.9637 21.6508H19.1011C19.1403 21.6509 19.1793 21.6466 19.2175 21.6377L27.8802 19.6332H27.9009C28.2891 19.5296 28.7016 19.574 29.0592 19.7577C29.4169 19.9414 29.6945 20.2516 29.8388 20.6287C29.983 21.0057 29.9838 21.4231 29.8409 21.8007C29.698 22.1783 29.4215 22.4895 29.0645 22.6745L29.0736 22.6693Z" fill="black"/>
</svg>
