<svg width="32" height="32" viewBox="0 0 32 32" fill="none" xmlns="http://www.w3.org/2000/svg">
<path d="M15.5563 22.6772C15.1865 22.6851 14.8187 22.6231 14.4743 22.4947C14.1299 22.3662 13.8157 22.174 13.55 21.9291C13.3708 21.7741 13.227 21.5857 13.1276 21.3756C13.0282 21.1654 12.9753 20.9381 12.9722 20.7077C12.9722 20.4526 12.8657 20.208 12.6761 20.0276C12.4864 19.8472 12.2292 19.7458 11.9611 19.7458C11.829 19.7458 11.6983 19.7708 11.5765 19.8193C11.4547 19.8679 11.3443 19.939 11.2517 20.0285C11.1591 20.118 11.0861 20.2242 11.037 20.3408C10.988 20.4574 10.9638 20.5821 10.9659 20.7077C10.9668 21.1909 11.0711 21.6689 11.2725 22.1126C11.474 22.5562 11.7683 22.9561 12.1376 23.2879C13.0515 24.1341 14.281 24.6008 15.5563 24.5857C15.6987 24.6028 15.8433 24.591 15.9805 24.5509C16.1177 24.5108 16.2443 24.4433 16.352 24.3531C16.4597 24.2628 16.5459 24.1518 16.605 24.0274C16.6641 23.9029 16.6946 23.768 16.6946 23.6314C16.6946 23.4949 16.6641 23.36 16.605 23.2355C16.5459 23.1111 16.4597 23.0001 16.352 22.9098C16.2443 22.8196 16.1177 22.7521 15.9805 22.712C15.8433 22.6719 15.6987 22.6601 15.5563 22.6772Z" fill="white"/>
<path d="M18.5735 5.50161C17.8353 4.64041 17.171 3.87763 16.6542 3.23789C16.6296 3.18867 16.5804 3.16407 16.5558 3.13946C16.2852 2.91801 15.8915 2.96722 15.67 3.23789C15.1533 3.87763 14.4889 4.64041 13.7508 5.50161C10.5028 9.26627 6 14.4827 6 18.8379C6 21.6429 7.13186 24.1773 8.97728 26.0227C10.8227 27.8435 13.3571 29 16.1621 29C18.9672 29 21.5016 27.8681 23.347 26.0227C25.1924 24.1773 26.3243 21.6429 26.3243 18.8379C26.3243 14.4827 21.8214 9.26627 18.5735 5.50161ZM22.4612 25.1123C20.8372 26.7363 18.6227 27.7451 16.1621 27.7451C13.7016 27.7451 11.4871 26.7363 9.86309 25.1369C8.26372 23.5375 7.25489 21.2984 7.25489 18.8379C7.25489 14.9502 11.5855 9.93062 14.7104 6.31359C15.2271 5.69845 15.7192 5.13252 16.1621 4.5912C16.605 5.13252 17.0971 5.69845 17.6139 6.28899C20.7388 9.90602 25.0694 14.901 25.0694 18.8133C25.0694 21.2738 24.0605 23.4883 22.4612 25.1123Z" fill="black"/>
<path d="M16.2115 24.5219C14.6859 24.5219 13.308 23.9067 12.3238 22.9225C11.3396 21.9383 10.7244 20.5604 10.7244 19.0348C10.7244 18.6903 10.4538 18.4197 10.1093 18.4197C9.7648 18.4197 9.49414 18.6903 9.49414 19.0348C9.49414 20.9048 10.2569 22.578 11.4626 23.8083C12.6437 24.9894 14.3415 25.7522 16.2115 25.7522C16.556 25.7522 16.8266 25.4815 16.8266 25.137C16.8266 24.7925 16.556 24.5219 16.2115 24.5219Z" fill="black"/>
</svg>
