<svg width="24" height="24" viewBox="0 0 24 24" fill="none" xmlns="http://www.w3.org/2000/svg">
<path d="M22.3561 21.748H3.75285C3.46667 21.748 3.25203 21.5333 3.25203 21.2472V2.60813C3.25203 2.25041 2.96585 2 2.60813 2C2.25041 2 2 2.25041 2 2.60813V21.2114C2 22.1772 2.78699 22.9642 3.75285 22.9642H22.3561C22.7138 22.9642 23 22.678 23 22.3203C23 21.9626 22.7138 21.748 22.3561 21.748Z" fill="black"/>
<path d="M23 7.5673C23 7.41684 22.9402 7.27255 22.8338 7.16616C22.7275 7.05977 22.5832 7 22.4327 7H17.7525C17.6021 7 17.4578 7.05977 17.3514 7.16616C17.245 7.27255 17.1852 7.41684 17.1852 7.5673C17.1852 7.71775 17.245 7.86205 17.3514 7.96843C17.4578 8.07482 17.6021 8.13459 17.7525 8.13459H21.0513L16.3456 12.7864L12.054 9.72869C11.9439 9.65022 11.8094 9.61367 11.6747 9.62563C11.54 9.6376 11.414 9.69728 11.3194 9.79393L6.14281 15.1123C6.0461 15.2214 5.99509 15.3635 6.00037 15.5092C6.00565 15.6549 6.06681 15.793 6.17116 15.8948C6.27551 15.9965 6.41504 16.0543 6.56081 16.0559C6.70658 16.0576 6.84739 16.0031 6.95404 15.9037L11.7931 10.9342L16.0762 13.9862C16.1852 14.0639 16.3181 14.1005 16.4515 14.0896C16.5849 14.0787 16.7102 14.021 16.8051 13.9267L21.8654 8.92597V12.2475C21.8654 12.3979 21.9252 12.5422 22.0316 12.6486C22.138 12.755 22.2822 12.8148 22.4327 12.8148C22.5832 12.8148 22.7275 12.755 22.8338 12.6486C22.9402 12.5422 23 12.3979 23 12.2475V7.5673Z" fill="black"/>
</svg>
