<svg width="24" height="24" viewBox="0 0 24 24" fill="none" xmlns="http://www.w3.org/2000/svg">
<path d="M23 12C23 18.0654 18.0654 23 12 23C5.93465 23 1 18.0654 1 12C1 11.6203 1.30754 11.3125 1.6875 11.3125C2.06746 11.3125 2.375 11.6203 2.375 12C2.375 17.3073 6.69273 21.625 12 21.625C17.3073 21.625 21.625 17.3073 21.625 12C21.625 6.69273 17.3073 2.375 12 2.375C9.44227 2.375 7.06696 3.36935 5.28037 5.125H7.875C8.25496 5.125 8.5625 5.43277 8.5625 5.8125C8.5625 6.19223 8.25496 6.5 7.875 6.5H3.75C3.37004 6.5 3.0625 6.19223 3.0625 5.8125V1.6875C3.0625 1.30777 3.37004 1 3.75 1C4.12996 1 4.4375 1.30777 4.4375 1.6875V4.03256C6.46585 2.09656 9.13106 1 12 1C18.0654 1 23 5.93465 23 12ZM12.6875 11.3125H11.3125C10.9332 11.3125 10.625 11.004 10.625 10.625C10.625 10.246 10.9332 9.9375 11.3125 9.9375H14.0625C14.4425 9.9375 14.75 9.62973 14.75 9.25C14.75 8.87027 14.4425 8.5625 14.0625 8.5625H12.6875V7.875C12.6875 7.49527 12.38 7.1875 12 7.1875C11.62 7.1875 11.3125 7.49527 11.3125 7.875V8.5625C10.1751 8.5625 9.25 9.48765 9.25 10.625C9.25 11.7624 10.1751 12.6875 11.3125 12.6875H12.6875C13.0668 12.6875 13.375 12.996 13.375 13.375C13.375 13.754 13.0668 14.0625 12.6875 14.0625H9.9375C9.55754 14.0625 9.25 14.3703 9.25 14.75C9.25 15.1297 9.55754 15.4375 9.9375 15.4375H11.3125V16.125C11.3125 16.5047 11.62 16.8125 12 16.8125C12.38 16.8125 12.6875 16.5047 12.6875 16.125V15.4375C13.8249 15.4375 14.75 14.5124 14.75 13.375C14.75 12.2376 13.8249 11.3125 12.6875 11.3125Z" fill="black"/>
</svg>
