<svg width="16" height="16" viewBox="0 0 16 16" fill="none" xmlns="http://www.w3.org/2000/svg">
<path d="M8.36776 15.174C8.29493 15.2469 8.20212 15.2965 8.10108 15.3166C8.00004 15.3367 7.8953 15.3264 7.80012 15.287C7.70493 15.2476 7.62358 15.1808 7.56635 15.0952C7.50912 15.0095 7.47858 14.9088 7.47859 14.8058L7.47859 1.1942C7.47859 1.05605 7.53347 0.923562 7.63116 0.825876C7.72884 0.728189 7.86133 0.67331 7.99948 0.67331C8.13763 0.67331 8.27012 0.728189 8.36781 0.825875C8.4655 0.923561 8.52037 1.05605 8.52038 1.1942L8.52038 14.8058C8.52045 14.8742 8.507 14.9419 8.48081 15.0051C8.45462 15.0683 8.4162 15.1257 8.36776 15.174Z" fill="black"/>
<path d="M15.1735 8.36828C15.1252 8.41672 15.0678 8.45514 15.0046 8.48133C14.9414 8.50752 14.8737 8.52096 14.8052 8.52089L1.19368 8.52089C1.05554 8.52089 0.923044 8.46601 0.825358 8.36833C0.727672 8.27064 0.672792 8.13815 0.672792 8C0.672792 7.86185 0.727672 7.72936 0.825358 7.63167C0.923044 7.53399 1.05554 7.47911 1.19368 7.47911L14.8052 7.47911C14.9083 7.4791 15.009 7.50964 15.0946 7.56687C15.1803 7.6241 15.2471 7.70545 15.2865 7.80063C15.3259 7.89582 15.3362 8.00055 15.3161 8.10159C15.296 8.20264 15.2464 8.29544 15.1735 8.36828Z" fill="black"/>
</svg>
