<svg width="24" height="24" viewBox="0 0 24 24" fill="none" xmlns="http://www.w3.org/2000/svg">
<path d="M10.5735 22.0014C10.5731 22.0014 10.5724 22.0014 10.5718 22.0014C9.94593 22.0009 9.35739 21.7568 8.91498 21.3136L2.68358 15.0733C1.77214 14.1602 1.77214 12.6743 2.68358 11.7613L11.0836 3.34519C11.9492 2.47782 13.1011 2 14.3267 2H19.6561C20.9484 2 22 3.05134 22 4.34391V9.65691C22 10.8817 21.5227 12.0331 20.6562 12.8986L12.23 21.3159C11.7874 21.758 11.1991 22.0014 10.5735 22.0014ZM14.3267 3.56261C13.5191 3.56261 12.7601 3.87745 12.1896 4.44902L3.78949 12.8651C3.48564 13.1696 3.48564 13.6648 3.78949 13.9692L10.0209 20.2095C10.1682 20.3571 10.3643 20.4387 10.5731 20.4388H10.5737C10.7822 20.4388 10.9782 20.3576 11.1257 20.2104L19.5518 11.7932C20.1229 11.2228 20.4374 10.464 20.4374 9.65691V4.34391C20.4374 3.9131 20.0869 3.56261 19.6561 3.56261H14.3267ZM16.3354 9.93024C15.043 9.93024 13.9915 8.8789 13.9915 7.58633C13.9915 6.29376 15.043 5.24242 16.3354 5.24242C17.6279 5.24242 18.6793 6.29376 18.6793 7.58633C18.6793 8.8789 17.6279 9.93024 16.3354 9.93024ZM16.3354 6.80502C15.9046 6.80502 15.5541 7.15551 15.5541 7.58633C15.5541 8.01715 15.9046 8.36763 16.3354 8.36763C16.7664 8.36763 17.1167 8.01715 17.1167 7.58633C17.1167 7.15551 16.7664 6.80502 16.3354 6.80502Z" fill="black"/>
</svg>
