<svg width="32" height="32" viewBox="0 0 32 32" fill="none" xmlns="http://www.w3.org/2000/svg">
<path d="M27.9581 4.33708C27.8741 4.13311 27.6744 4 27.4541 4C6.28539 4 4 12.7729 4 16.5452C4 21.4389 7.72649 24.7268 13.2725 24.7268C20.2771 24.7268 21.7444 18.0615 22.5331 14.4812C23.5934 9.66058 25.9268 6.84609 27.8403 4.93158C27.9962 4.77562 28.0432 4.54106 27.9581 4.33708ZM21.4673 14.2467C20.4669 18.7891 18.9277 23.636 13.2725 23.636C8.37882 23.636 5.09087 20.7865 5.09087 16.5452C5.09087 13.1754 7.17663 5.43557 26.1668 5.10176C24.3636 7.08612 22.4251 9.88859 21.4673 14.2467Z" fill="black"/>
<path d="M19.2179 9.76209C19.0859 9.49153 18.7597 9.37919 18.4891 9.50902C9.6235 13.805 4 24.2109 4 27.4541C4 27.7552 4.24438 27.9995 4.54546 27.9995C4.84654 27.9995 5.09092 27.7552 5.09092 27.4541C5.09092 24.9047 10.0119 14.8292 18.9648 10.4908C19.2353 10.3588 19.3488 10.0326 19.2179 9.76209Z" fill="black"/>
</svg>
