<svg width="25" height="24" viewBox="0 0 25 24" fill="none" xmlns="http://www.w3.org/2000/svg">
<g id="24_ no">
<g id="Group 339">
<path id="Vector" d="M12.5 22C6.97712 22 2.5 17.5229 2.5 12C2.5 6.47712 6.97712 2 12.5 2C18.0229 2 22.5 6.47712 22.5 12C22.5 17.5229 18.0229 22 12.5 22ZM12.5 3.42857C7.76612 3.42857 3.92857 7.26612 3.92857 12C3.92857 16.7339 7.76612 20.5714 12.5 20.5714C17.2339 20.5714 21.0714 16.7339 21.0714 12C21.0714 7.26612 17.2339 3.42857 12.5 3.42857Z" fill="black"/>
<path id="Vector_2" d="M11.6853 16.2857C11.5083 16.2852 11.3377 16.2191 11.2067 16.0999L7.82814 12.9785C7.55536 12.6935 7.5653 12.2414 7.85034 11.9686C8.1097 11.7203 8.51298 11.7032 8.79242 11.9285L11.5924 14.5214L16.5924 7.98566C16.8311 7.67002 17.2804 7.60766 17.596 7.84637C17.9116 8.08508 17.974 8.53431 17.7353 8.84994L12.2924 15.9928C12.173 16.1584 11.9884 16.265 11.7853 16.2857H11.6853Z" fill="black"/>
</g>
</g>
</svg>
