<svg width="88" height="31" viewBox="0 0 88 31" fill="none" xmlns="http://www.w3.org/2000/svg">
<mask id="mask0_732_16258" style="mask-type:luminance" maskUnits="userSpaceOnUse" x="0" y="0" width="30" height="31">
<path d="M14.9999 0.25C6.71577 0.25 0 6.96585 0 15.2501C0 22.8562 5.66145 29.1391 13.0001 30.117V27.0945C13.0001 26.2422 12.4625 25.4763 11.6546 25.2052C7.42043 23.7827 4.39131 19.7357 4.50287 14.997C4.6387 9.2281 9.33801 4.69231 15.1082 4.75046C20.8574 4.80861 25.5001 9.48716 25.5001 15.2501C25.5001 15.3814 25.4968 15.5121 25.492 15.6421C25.4908 15.6712 25.4899 15.7006 25.4887 15.7298C25.4832 15.8506 25.4758 15.9712 25.4663 16.0909C25.4636 16.1291 25.4597 16.1671 25.4562 16.2052C25.4488 16.2888 25.4403 16.3719 25.4308 16.4549C25.4202 16.5491 25.4079 16.6427 25.3948 16.7359C25.389 16.7786 25.3832 16.8213 25.3768 16.8636C24.0912 25.3318 13.0618 30.0913 13.0012 30.1173C13.6553 30.2043 14.3223 30.25 14.9999 30.25C23.2843 30.25 30 23.5343 30 15.2501C30 6.96585 23.2843 0.25 14.9999 0.25Z" fill="white"/>
</mask>
<g mask="url(#mask0_732_16258)">
<path d="M-2.27734 32.5321H32.2776V-2.02052H-2.27734V32.5321Z" fill="#5FCAF4"/>
</g>
<path d="M38.184 10.098H38.2L39.528 5.586H40.4L41.72 10.098H41.736L42.984 5.586H43.824L42.16 11.25H41.336L39.96 6.698H39.944L38.568 11.25H37.744L36.08 5.586H36.936L38.184 10.098ZM50.2125 8.41C50.2125 8.84733 50.1352 9.25 49.9805 9.618C49.8312 9.98067 49.6232 10.2953 49.3565 10.562C49.0898 10.8233 48.7725 11.0287 48.4045 11.178C48.0365 11.322 47.6365 11.394 47.2045 11.394C46.7725 11.394 46.3725 11.322 46.0045 11.178C45.6418 11.0287 45.3272 10.8233 45.0605 10.562C44.7938 10.2953 44.5858 9.98067 44.4365 9.618C44.2872 9.25 44.2125 8.84733 44.2125 8.41C44.2125 7.96733 44.2872 7.56467 44.4365 7.202C44.5858 6.834 44.7938 6.522 45.0605 6.266C45.3272 6.00467 45.6418 5.802 46.0045 5.658C46.3725 5.514 46.7725 5.442 47.2045 5.442C47.6365 5.442 48.0365 5.514 48.4045 5.658C48.7725 5.802 49.0898 6.00467 49.3565 6.266C49.6232 6.522 49.8312 6.834 49.9805 7.202C50.1352 7.56467 50.2125 7.96733 50.2125 8.41ZM49.3565 8.41C49.3565 8.10067 49.3058 7.81 49.2045 7.538C49.1032 7.26067 48.9592 7.018 48.7725 6.81C48.5858 6.602 48.3592 6.43933 48.0925 6.322C47.8312 6.19933 47.5352 6.138 47.2045 6.138C46.8792 6.138 46.5832 6.19933 46.3165 6.322C46.0552 6.43933 45.8312 6.602 45.6445 6.81C45.4632 7.018 45.3218 7.26067 45.2205 7.538C45.1192 7.81 45.0685 8.10067 45.0685 8.41C45.0685 8.72467 45.1192 9.02067 45.2205 9.298C45.3218 9.57533 45.4658 9.818 45.6525 10.026C45.8392 10.2287 46.0632 10.3887 46.3245 10.506C46.5858 10.6233 46.8792 10.682 47.2045 10.682C47.5298 10.682 47.8258 10.6233 48.0925 10.506C48.3592 10.3887 48.5858 10.2287 48.7725 10.026C48.9592 9.818 49.1032 9.57533 49.2045 9.298C49.3058 9.02067 49.3565 8.72467 49.3565 8.41ZM52.0816 11.25H51.2896V5.586H53.1056C53.3776 5.586 53.6362 5.61533 53.8816 5.674C54.1269 5.72733 54.3402 5.81533 54.5216 5.938C54.7082 6.06067 54.8549 6.22333 54.9616 6.426C55.0682 6.62333 55.1216 6.866 55.1216 7.154C55.1216 7.57 54.9936 7.906 54.7376 8.162C54.4816 8.418 54.1509 8.58067 53.7456 8.65L55.3296 11.25H54.3696L52.9296 8.73H52.0816V11.25ZM52.0816 8.066H52.9936C53.1802 8.066 53.3536 8.05 53.5136 8.018C53.6736 7.986 53.8122 7.93533 53.9296 7.866C54.0522 7.79133 54.1482 7.698 54.2176 7.586C54.2869 7.46867 54.3216 7.32467 54.3216 7.154C54.3216 6.98333 54.2869 6.842 54.2176 6.73C54.1482 6.61267 54.0549 6.51933 53.9376 6.45C53.8256 6.38067 53.6922 6.33267 53.5376 6.306C53.3829 6.274 53.2202 6.258 53.0496 6.258H52.0816V8.066ZM56.9956 8.082H57.0116L59.5396 5.586H60.6356L57.8836 8.178L60.8036 11.25H59.6676L57.0116 8.322H56.9956V11.25H56.2036V5.586H56.9956V8.082ZM64.2931 6.634C64.1811 6.47933 64.0291 6.354 63.8371 6.258C63.6451 6.15667 63.4291 6.106 63.1891 6.106C63.0611 6.106 62.9304 6.12467 62.7971 6.162C62.6691 6.194 62.5517 6.25 62.4451 6.33C62.3384 6.40467 62.2504 6.50067 62.1811 6.618C62.1171 6.73 62.0851 6.866 62.0851 7.026C62.0851 7.18067 62.1144 7.31133 62.1731 7.418C62.2371 7.51933 62.3197 7.60733 62.4211 7.682C62.5277 7.75133 62.6504 7.81267 62.7891 7.866C62.9331 7.914 63.0851 7.96467 63.2451 8.018C63.4371 8.07667 63.6317 8.14333 63.8291 8.218C64.0264 8.29267 64.2051 8.39133 64.3651 8.514C64.5251 8.63667 64.6557 8.79133 64.7571 8.978C64.8584 9.15933 64.9091 9.39133 64.9091 9.674C64.9091 9.96733 64.8531 10.2233 64.7411 10.442C64.6344 10.6553 64.4904 10.834 64.3091 10.978C64.1277 11.1167 63.9171 11.2207 63.6771 11.29C63.4424 11.3593 63.1997 11.394 62.9491 11.394C62.5917 11.394 62.2451 11.3247 61.9091 11.186C61.5784 11.0473 61.3037 10.842 61.0851 10.57L61.7011 10.05C61.8344 10.2473 62.0131 10.4073 62.2371 10.53C62.4611 10.6527 62.7037 10.714 62.9651 10.714C63.0984 10.714 63.2317 10.6953 63.3651 10.658C63.4984 10.6207 63.6184 10.562 63.7251 10.482C63.8371 10.402 63.9277 10.3033 63.9971 10.186C64.0664 10.0633 64.1011 9.91667 64.1011 9.746C64.1011 9.57533 64.0637 9.434 63.9891 9.322C63.9197 9.20467 63.8237 9.106 63.7011 9.026C63.5784 8.946 63.4344 8.87933 63.2691 8.826C63.1091 8.76733 62.9384 8.70867 62.7571 8.65C62.5757 8.59667 62.3971 8.53267 62.2211 8.458C62.0451 8.378 61.8877 8.27933 61.7491 8.162C61.6104 8.03933 61.4984 7.89 61.4131 7.714C61.3277 7.538 61.2851 7.31933 61.2851 7.058C61.2851 6.77533 61.3411 6.53267 61.4531 6.33C61.5704 6.12733 61.7197 5.95933 61.9011 5.826C62.0877 5.69267 62.2957 5.59667 62.5251 5.538C62.7597 5.474 62.9944 5.442 63.2291 5.442C63.5597 5.442 63.8691 5.50067 64.1571 5.618C64.4451 5.73533 64.6771 5.89267 64.8531 6.09L64.2931 6.634ZM69.434 10.098H69.45L70.778 5.586H71.65L72.97 10.098H72.986L74.234 5.586H75.074L73.41 11.25H72.586L71.21 6.698H71.194L69.818 11.25H68.994L67.33 5.586H68.186L69.434 10.098ZM76.6363 11.25H75.8443V5.586H76.6363V11.25ZM80.0001 11.25H79.2081V6.282H77.3921V5.586H81.8161V6.282H80.0001V11.25ZM82.5708 5.586H83.3628V7.954H86.2268V5.586H87.0268V11.25H86.2268V8.658H83.3628V11.25H82.5708V5.586Z" fill="#5B5B5B"/>
<mask id="mask1_732_16258" style="mask-type:luminance" maskUnits="userSpaceOnUse" x="36" y="16" width="35" height="13">
<path d="M67.8169 24.1493C66.2281 24.1493 65.4337 24.7216 65.4337 25.8658C65.4337 26.8619 65.9956 27.3598 67.1191 27.3598C67.55 27.3598 68.0153 27.2806 68.5148 27.1213C69.0142 26.9627 69.5192 26.7295 70.0301 26.4222V24.4354C69.2582 24.2446 68.5204 24.1493 67.8169 24.1493ZM68.0554 19.7784C70.0186 19.7784 71 20.568 71 22.1468V27.773C71 27.9321 70.9149 28.0115 70.7448 28.0115H70.3875C70.217 28.0115 70.1261 27.9321 70.1151 27.773L70.047 27.0897C69.0708 27.8207 68.0495 28.1865 66.9831 28.1865C66.1997 28.1865 65.5785 27.9772 65.1189 27.5585C64.659 27.1402 64.4293 26.5811 64.4293 25.8817C64.4293 25.1085 64.7106 24.499 65.272 24.0541C65.8338 23.6088 66.6083 23.3866 67.5958 23.3866C67.9587 23.3866 68.3559 23.4183 68.7872 23.4817C69.2183 23.5453 69.6326 23.6354 70.0301 23.7521V22.4171C70.0301 21.7706 69.8652 21.3069 69.5361 21.0262C69.2068 20.7456 68.6623 20.605 67.902 20.605C67.1985 20.605 66.4551 20.7109 65.6722 20.9229C65.5472 20.9547 65.4479 20.9837 65.3744 21.0104C65.3 21.0369 65.2408 21.0499 65.1957 21.0499C65.0592 21.0499 64.9911 20.9811 64.9911 20.8434V20.5892C64.9911 20.43 65.0648 20.3244 65.2127 20.2713C65.6437 20.1121 66.1063 19.9906 66.5999 19.9057C67.0936 19.8209 67.5785 19.7784 68.0554 19.7784ZM59.7875 24.4831L57.3192 27.8365C57.2283 27.9535 57.1093 28.0115 56.9618 28.0115H56.4852C56.3374 28.0115 56.2638 27.9535 56.2638 27.8365C56.2638 27.7944 56.3033 27.7253 56.3829 27.6301L59.2939 23.8473L56.6383 20.3824C56.5702 20.2871 56.5362 20.2237 56.5362 20.1918C56.5362 20.0752 56.6099 20.0168 56.7573 20.0168H57.2851C57.4326 20.0168 57.5518 20.0752 57.6427 20.1918L59.8728 23.1481L62.1025 20.1918C62.193 20.0752 62.307 20.0168 62.443 20.0168H62.9025C63.0501 20.0168 63.1239 20.0752 63.1239 20.1918C63.1239 20.2344 63.09 20.3029 63.0218 20.3983L60.4002 23.7838L63.3114 27.6301C63.3794 27.7253 63.4133 27.7944 63.4133 27.8365C63.4133 27.9535 63.3392 28.0115 63.1918 28.0115H62.6645C62.5281 28.0115 62.4145 27.9535 62.3239 27.8365L59.7875 24.4831ZM51.926 20.5892C51.0751 20.5892 50.4024 20.8221 49.9089 21.2884C49.4151 21.7547 49.1173 22.4381 49.0154 23.3386C49.4578 23.4448 49.8977 23.5243 50.3345 23.577C50.771 23.6302 51.2111 23.6564 51.6535 23.6564C52.5048 23.6564 53.1288 23.5401 53.5262 23.3069C53.9233 23.0738 54.122 22.7028 54.122 22.1944C54.122 21.124 53.39 20.5892 51.926 20.5892ZM54.0879 27.1532C54.2354 27.111 54.3434 27.0767 54.4114 27.0498C54.4795 27.0235 54.5418 27.0103 54.5987 27.0103C54.7349 27.0103 54.8029 27.0793 54.8029 27.217V27.4393C54.8029 27.6091 54.7405 27.7202 54.6158 27.773C53.7983 28.0908 52.9305 28.25 52.0111 28.25C50.7062 28.25 49.7101 27.8977 49.0237 27.1929C48.337 26.4885 47.9941 25.4581 47.9941 24.1017C47.9941 23.4341 48.0847 22.8326 48.266 22.2977C48.4475 21.7627 48.7113 21.3069 49.0576 20.9306C49.4037 20.5547 49.8265 20.2686 50.3258 20.0726C50.8253 19.8766 51.387 19.7784 52.0111 19.7784C52.9984 19.7784 53.7616 19.9906 54.3006 20.4141C54.8396 20.8383 55.1093 21.4313 55.1093 22.1944C55.1093 22.9469 54.8227 23.5004 54.2498 23.8554C53.6766 24.2101 52.7884 24.3878 51.5856 24.3878C51.1541 24.3878 50.7199 24.3638 50.2835 24.3163C49.8465 24.2686 49.4123 24.1866 48.981 24.0699C48.981 25.214 49.2391 26.0591 49.7556 26.6048C50.272 27.1509 51.0465 27.4234 52.0792 27.4234C52.7489 27.4234 53.4183 27.3336 54.0879 27.1532ZM44.8176 16.4884C44.8176 16.3296 44.9027 16.25 45.0731 16.25H45.5326C45.7026 16.25 45.7879 16.3296 45.7879 16.4884V26.6288C45.7879 26.8619 45.836 27.0261 45.9327 27.1213C46.0289 27.217 46.2021 27.2647 46.4519 27.2647C46.5198 27.2647 46.5967 27.2593 46.6817 27.2487C46.7667 27.238 46.8375 27.2328 46.8943 27.2328C47.053 27.2328 47.1328 27.307 47.1328 27.4553V27.7572C47.1328 27.8845 47.0589 27.9639 46.9114 27.9956C46.8433 28.0167 46.7438 28.0325 46.6136 28.0432C46.4827 28.0536 46.3666 28.0592 46.2644 28.0592C45.8105 28.0592 45.4558 27.9347 45.2005 27.6854C44.9453 27.4369 44.8176 27.0897 44.8176 26.6447V16.4884ZM39.3874 24.1493C37.7987 24.1493 37.0042 24.7216 37.0042 25.8658C37.0042 26.8619 37.5662 27.3598 38.6896 27.3598C39.1205 27.3598 39.586 27.2806 40.0853 27.1213C40.5848 26.9627 41.0896 26.7295 41.6005 26.4222V24.4354C40.8287 24.2446 40.0909 24.1493 39.3874 24.1493ZM39.6258 19.7784C41.5892 19.7784 42.5704 20.568 42.5704 22.1468V27.773C42.5704 27.9321 42.4856 28.0115 42.3155 28.0115H41.9579C41.7876 28.0115 41.6967 27.9321 41.6855 27.773L41.6176 27.0897C40.6412 27.8207 39.6199 28.1865 38.5535 28.1865C37.7703 28.1865 37.149 27.9772 36.6895 27.5585C36.2297 27.1402 36 26.5811 36 25.8817C36 25.1085 36.281 24.499 36.8426 24.0541C37.4045 23.6088 38.179 23.3866 39.1663 23.3866C39.5293 23.3866 39.9263 23.4183 40.3578 23.4817C40.7888 23.5453 41.2031 23.6354 41.6005 23.7521V22.4171C41.6005 21.7706 41.4357 21.3069 41.1066 21.0262C40.7773 20.7456 40.2327 20.605 39.4723 20.605C38.769 20.605 38.0257 20.7109 37.2427 20.9229C37.1177 20.9547 37.0184 20.9837 36.9451 21.0104C36.8706 21.0369 36.8113 21.0499 36.7662 21.0499C36.6298 21.0499 36.5617 20.9811 36.5617 20.8434V20.5892C36.5617 20.43 36.6354 20.3244 36.7832 20.2713C37.2143 20.1121 37.6769 19.9906 38.1704 19.9057C38.6642 19.8209 39.149 19.7784 39.6258 19.7784Z" fill="white"/>
</mask>
<g mask="url(#mask1_732_16258)">
<path d="M34.6523 29.5084H72.3485V14.9924H34.6523V29.5084Z" fill="#1B1B1B"/>
</g>
</svg>
