<svg width="106" height="31" viewBox="0 0 106 31" fill="none" xmlns="http://www.w3.org/2000/svg">
<g clip-path="url(#clip0_732_16273)">
<path d="M9.76638 19.4175C15.1602 19.4175 19.5328 15.1267 19.5328 9.83377C19.5328 4.5408 15.1602 0.25 9.76638 0.25C4.37256 0.25 0 4.5408 0 9.83377C0 15.1267 4.37256 19.4175 9.76638 19.4175Z" fill="#4285F4"/>
<path d="M31.9974 10.7682C31.9974 11.8442 31.1085 12.7162 30.0124 12.7162C28.9163 12.7162 28.0273 11.8442 28.0273 10.7682C28.0273 9.69235 28.9163 8.82031 30.0124 8.82031C31.1085 8.82031 31.9974 9.69235 31.9974 10.7682Z" fill="#34A853"/>
<path d="M28.4284 15.5209C28.4284 17.6724 26.6511 19.4166 24.4584 19.4166C22.2655 19.4166 20.4883 17.6724 20.4883 15.5209C20.4883 13.3693 22.2655 11.625 24.4584 11.625C26.6512 11.625 28.4284 13.3693 28.4284 15.5209Z" fill="#EA4335"/>
<path d="M29.2196 25.5734C29.2196 28.1553 27.0869 30.2482 24.4555 30.2482C21.8241 30.2482 19.6914 28.1553 19.6914 25.5734C19.6914 22.9915 21.8241 20.8984 24.4555 20.8984C27.0869 20.8984 29.2196 22.9915 29.2196 25.5734Z" fill="#FBBC05"/>
</g>
<path d="M38.184 10.098H38.2L39.528 5.586H40.4L41.72 10.098H41.736L42.984 5.586H43.824L42.16 11.25H41.336L39.96 6.698H39.944L38.568 11.25H37.744L36.08 5.586H36.936L38.184 10.098ZM50.2125 8.41C50.2125 8.84733 50.1352 9.25 49.9805 9.618C49.8312 9.98067 49.6232 10.2953 49.3565 10.562C49.0898 10.8233 48.7725 11.0287 48.4045 11.178C48.0365 11.322 47.6365 11.394 47.2045 11.394C46.7725 11.394 46.3725 11.322 46.0045 11.178C45.6418 11.0287 45.3272 10.8233 45.0605 10.562C44.7938 10.2953 44.5858 9.98067 44.4365 9.618C44.2872 9.25 44.2125 8.84733 44.2125 8.41C44.2125 7.96733 44.2872 7.56467 44.4365 7.202C44.5858 6.834 44.7938 6.522 45.0605 6.266C45.3272 6.00467 45.6418 5.802 46.0045 5.658C46.3725 5.514 46.7725 5.442 47.2045 5.442C47.6365 5.442 48.0365 5.514 48.4045 5.658C48.7725 5.802 49.0898 6.00467 49.3565 6.266C49.6232 6.522 49.8312 6.834 49.9805 7.202C50.1352 7.56467 50.2125 7.96733 50.2125 8.41ZM49.3565 8.41C49.3565 8.10067 49.3058 7.81 49.2045 7.538C49.1032 7.26067 48.9592 7.018 48.7725 6.81C48.5858 6.602 48.3592 6.43933 48.0925 6.322C47.8312 6.19933 47.5352 6.138 47.2045 6.138C46.8792 6.138 46.5832 6.19933 46.3165 6.322C46.0552 6.43933 45.8312 6.602 45.6445 6.81C45.4632 7.018 45.3218 7.26067 45.2205 7.538C45.1192 7.81 45.0685 8.10067 45.0685 8.41C45.0685 8.72467 45.1192 9.02067 45.2205 9.298C45.3218 9.57533 45.4658 9.818 45.6525 10.026C45.8392 10.2287 46.0632 10.3887 46.3245 10.506C46.5858 10.6233 46.8792 10.682 47.2045 10.682C47.5298 10.682 47.8258 10.6233 48.0925 10.506C48.3592 10.3887 48.5858 10.2287 48.7725 10.026C48.9592 9.818 49.1032 9.57533 49.2045 9.298C49.3058 9.02067 49.3565 8.72467 49.3565 8.41ZM52.0816 11.25H51.2896V5.586H53.1056C53.3776 5.586 53.6362 5.61533 53.8816 5.674C54.1269 5.72733 54.3402 5.81533 54.5216 5.938C54.7082 6.06067 54.8549 6.22333 54.9616 6.426C55.0682 6.62333 55.1216 6.866 55.1216 7.154C55.1216 7.57 54.9936 7.906 54.7376 8.162C54.4816 8.418 54.1509 8.58067 53.7456 8.65L55.3296 11.25H54.3696L52.9296 8.73H52.0816V11.25ZM52.0816 8.066H52.9936C53.1802 8.066 53.3536 8.05 53.5136 8.018C53.6736 7.986 53.8122 7.93533 53.9296 7.866C54.0522 7.79133 54.1482 7.698 54.2176 7.586C54.2869 7.46867 54.3216 7.32467 54.3216 7.154C54.3216 6.98333 54.2869 6.842 54.2176 6.73C54.1482 6.61267 54.0549 6.51933 53.9376 6.45C53.8256 6.38067 53.6922 6.33267 53.5376 6.306C53.3829 6.274 53.2202 6.258 53.0496 6.258H52.0816V8.066ZM56.9956 8.082H57.0116L59.5396 5.586H60.6356L57.8836 8.178L60.8036 11.25H59.6676L57.0116 8.322H56.9956V11.25H56.2036V5.586H56.9956V8.082ZM64.2931 6.634C64.1811 6.47933 64.0291 6.354 63.8371 6.258C63.6451 6.15667 63.4291 6.106 63.1891 6.106C63.0611 6.106 62.9304 6.12467 62.7971 6.162C62.6691 6.194 62.5517 6.25 62.4451 6.33C62.3384 6.40467 62.2504 6.50067 62.1811 6.618C62.1171 6.73 62.0851 6.866 62.0851 7.026C62.0851 7.18067 62.1144 7.31133 62.1731 7.418C62.2371 7.51933 62.3197 7.60733 62.4211 7.682C62.5277 7.75133 62.6504 7.81267 62.7891 7.866C62.9331 7.914 63.0851 7.96467 63.2451 8.018C63.4371 8.07667 63.6317 8.14333 63.8291 8.218C64.0264 8.29267 64.2051 8.39133 64.3651 8.514C64.5251 8.63667 64.6557 8.79133 64.7571 8.978C64.8584 9.15933 64.9091 9.39133 64.9091 9.674C64.9091 9.96733 64.8531 10.2233 64.7411 10.442C64.6344 10.6553 64.4904 10.834 64.3091 10.978C64.1277 11.1167 63.9171 11.2207 63.6771 11.29C63.4424 11.3593 63.1997 11.394 62.9491 11.394C62.5917 11.394 62.2451 11.3247 61.9091 11.186C61.5784 11.0473 61.3037 10.842 61.0851 10.57L61.7011 10.05C61.8344 10.2473 62.0131 10.4073 62.2371 10.53C62.4611 10.6527 62.7037 10.714 62.9651 10.714C63.0984 10.714 63.2317 10.6953 63.3651 10.658C63.4984 10.6207 63.6184 10.562 63.7251 10.482C63.8371 10.402 63.9277 10.3033 63.9971 10.186C64.0664 10.0633 64.1011 9.91667 64.1011 9.746C64.1011 9.57533 64.0637 9.434 63.9891 9.322C63.9197 9.20467 63.8237 9.106 63.7011 9.026C63.5784 8.946 63.4344 8.87933 63.2691 8.826C63.1091 8.76733 62.9384 8.70867 62.7571 8.65C62.5757 8.59667 62.3971 8.53267 62.2211 8.458C62.0451 8.378 61.8877 8.27933 61.7491 8.162C61.6104 8.03933 61.4984 7.89 61.4131 7.714C61.3277 7.538 61.2851 7.31933 61.2851 7.058C61.2851 6.77533 61.3411 6.53267 61.4531 6.33C61.5704 6.12733 61.7197 5.95933 61.9011 5.826C62.0877 5.69267 62.2957 5.59667 62.5251 5.538C62.7597 5.474 62.9944 5.442 63.2291 5.442C63.5597 5.442 63.8691 5.50067 64.1571 5.618C64.4451 5.73533 64.6771 5.89267 64.8531 6.09L64.2931 6.634ZM69.434 10.098H69.45L70.778 5.586H71.65L72.97 10.098H72.986L74.234 5.586H75.074L73.41 11.25H72.586L71.21 6.698H71.194L69.818 11.25H68.994L67.33 5.586H68.186L69.434 10.098ZM76.6363 11.25H75.8443V5.586H76.6363V11.25ZM80.0001 11.25H79.2081V6.282H77.3921V5.586H81.8161V6.282H80.0001V11.25ZM82.5708 5.586H83.3628V7.954H86.2268V5.586H87.0268V11.25H86.2268V8.658H83.3628V11.25H82.5708V5.586Z" fill="#5B5B5B"/>
<path d="M36 16.2617H37.788V20.0646H41.7911V16.2617H43.5791V25.7756H41.7911V21.7592H37.788V25.7756H36V16.2617Z" fill="#1B1B1B"/>
<path d="M46.6217 25.5217C46.0746 25.2148 45.661 24.7878 45.3541 24.2407C45.0472 23.6936 44.9004 23.0798 44.9004 22.3993C44.9004 21.7588 45.0472 21.1583 45.3541 20.5979C45.661 20.0508 46.0746 19.5972 46.6084 19.2769C47.1421 18.9433 47.7292 18.7832 48.383 18.7832C49.0769 18.7832 49.6907 18.93 50.1844 19.2369C50.6915 19.5438 51.0784 19.9441 51.332 20.4778C51.5988 20.9982 51.7189 21.5853 51.7189 22.2125C51.7189 22.4126 51.7056 22.6128 51.6789 22.7996H46.5817C46.6751 23.3467 46.8886 23.747 47.2222 24.0272C47.5691 24.3074 47.9694 24.4409 48.4498 24.4409C48.8501 24.4409 49.197 24.3608 49.4772 24.1873C49.7574 24.0139 49.9976 23.787 50.1577 23.4935L51.5721 24.1873C50.8783 25.3882 49.8375 25.9887 48.4231 25.9887C47.7692 25.9887 47.1554 25.8286 46.6217 25.5217ZM50.051 21.5587C50.0376 21.3452 49.9576 21.1317 49.8241 20.9315C49.6907 20.718 49.4906 20.5445 49.2504 20.4111C49.0102 20.2777 48.7166 20.211 48.3964 20.211C47.9827 20.211 47.6225 20.3311 47.3289 20.5712C47.0353 20.8114 46.8219 21.145 46.6884 21.5587H50.051Z" fill="#1B1B1B"/>
<path d="M54.8449 25.2724L52.0273 18.7031H53.9759L55.7007 22.9921H55.806L57.4781 18.7031H59.3872L55.253 28.5163H53.4098L54.8449 25.2724Z" fill="#1B1B1B"/>
<path d="M64.3636 25.43C63.5984 25.008 62.9809 24.4144 62.5245 23.6758C62.0681 22.924 61.8398 22.093 61.8398 21.1566C61.8398 20.2333 62.0681 19.3891 62.5245 18.6373C62.9809 17.8855 63.5984 17.3052 64.3636 16.8831C65.1288 16.461 65.9745 16.25 66.9008 16.25C67.6525 16.25 68.3372 16.3819 68.9547 16.6325C69.5722 16.8963 70.1092 17.2524 70.5522 17.7272L69.3037 18.9275C68.9815 18.5978 68.6325 18.3472 68.2432 18.1757C67.8539 18.0042 67.3975 17.9251 66.8874 17.9251C66.2967 17.9251 65.7597 18.057 65.263 18.3208C64.7663 18.5846 64.377 18.9671 64.0951 19.4683C63.7998 19.9695 63.6655 20.5235 63.6655 21.1566C63.6655 21.7897 63.8132 22.3436 64.1085 22.8448C64.4039 23.3461 64.7932 23.7154 65.2899 23.9923C65.7866 24.2561 66.3235 24.388 66.9142 24.388C67.8002 24.388 68.5385 24.1242 69.1024 23.6098C69.2769 23.4516 69.438 23.2537 69.5722 23.0031C69.7065 22.7525 69.8004 22.4887 69.8675 22.1985H66.8605V20.6949H71.559C71.6261 20.9455 71.653 21.2225 71.653 21.5259C71.653 22.1458 71.559 22.7261 71.3711 23.2537C71.1831 23.7813 70.8878 24.2561 70.4985 24.665C70.0689 25.1267 69.5588 25.4696 68.9413 25.707C68.3372 25.9444 67.6525 26.0631 66.9142 26.0631C65.9745 26.0631 65.1422 25.8521 64.3636 25.43Z" fill="#1B1B1B"/>
<path d="M74.2151 25.524C73.668 25.2037 73.2411 24.7767 72.9342 24.2296C72.6273 23.6826 72.4805 23.0688 72.4805 22.3882C72.4805 21.7211 72.6273 21.1073 72.9342 20.5602C73.2411 20.0131 73.668 19.5728 74.2151 19.2659C74.7622 18.9456 75.3894 18.7988 76.0832 18.7988C76.7771 18.7988 77.3909 18.959 77.938 19.2659C78.4851 19.5861 78.912 20.0131 79.2189 20.5602C79.5258 21.1073 79.6726 21.7211 79.6726 22.3882C79.6726 23.0688 79.5258 23.6826 79.2189 24.2296C78.912 24.7767 78.4851 25.2037 77.938 25.524C77.3909 25.8442 76.7637 25.991 76.0832 25.991C75.3894 25.991 74.7622 25.8309 74.2151 25.524ZM77.0173 24.1496C77.2975 23.9895 77.5243 23.7626 77.6978 23.4557C77.8713 23.1488 77.9513 22.8019 77.9513 22.3882C77.9513 21.9879 77.8713 21.641 77.6978 21.3341C77.5243 21.0272 77.2975 20.8004 77.0173 20.6402C76.737 20.4801 76.4168 20.4 76.0832 20.4C75.7496 20.4 75.4427 20.4801 75.1492 20.6402C74.869 20.8004 74.6421 21.0272 74.4687 21.3341C74.2952 21.641 74.2151 21.9879 74.2151 22.3882C74.2151 22.7885 74.2952 23.1355 74.4687 23.4424C74.6421 23.7493 74.869 23.9761 75.1492 24.1362C75.4294 24.2964 75.7363 24.3764 76.0832 24.3764C76.4301 24.3898 76.737 24.3097 77.0173 24.1496Z" fill="#1B1B1B"/>
<path d="M82.1272 25.524C81.5802 25.2037 81.1532 24.7767 80.8463 24.2296C80.5394 23.6826 80.3926 23.0688 80.3926 22.3882C80.3926 21.7211 80.5394 21.1073 80.8463 20.5602C81.1532 20.0131 81.5802 19.5728 82.1272 19.2659C82.6743 18.9456 83.3015 18.7988 83.9953 18.7988C84.6892 18.7988 85.303 18.959 85.8501 19.2659C86.3972 19.5861 86.8242 20.0131 87.1311 20.5602C87.438 21.1073 87.5847 21.7211 87.5847 22.3882C87.5847 23.0688 87.438 23.6826 87.1311 24.2296C86.8242 24.7767 86.3972 25.2037 85.8501 25.524C85.303 25.8442 84.6758 25.991 83.9953 25.991C83.2881 25.991 82.6743 25.8309 82.1272 25.524ZM84.9294 24.1496C85.2096 23.9895 85.4364 23.7626 85.6099 23.4557C85.7834 23.1488 85.8634 22.8019 85.8634 22.3882C85.8634 21.9879 85.7834 21.641 85.6099 21.3341C85.4364 21.0272 85.2096 20.8004 84.9294 20.6402C84.6492 20.4801 84.3289 20.4 83.9953 20.4C83.6617 20.4 83.3548 20.4801 83.0613 20.6402C82.7811 20.8004 82.5542 21.0272 82.3808 21.3341C82.2073 21.641 82.1272 21.9879 82.1272 22.3882C82.1272 22.7885 82.2073 23.1355 82.3808 23.4424C82.5542 23.7493 82.7811 23.9761 83.0613 24.1362C83.3415 24.2964 83.6484 24.3764 83.9953 24.3764C84.3289 24.3898 84.6358 24.3097 84.9294 24.1496Z" fill="#1B1B1B"/>
<path d="M89.6403 28.2857C89.0799 27.8988 88.6929 27.4318 88.4928 26.898L90.134 26.2308C90.2808 26.5644 90.4943 26.8313 90.7879 27.0314C91.0814 27.2316 91.415 27.325 91.7886 27.325C92.3357 27.325 92.7761 27.1515 93.0963 26.818C93.4165 26.4844 93.5767 26.004 93.5767 25.3769V24.8431H93.4699C93.2564 25.15 92.9762 25.3769 92.6293 25.537C92.2823 25.6971 91.8954 25.7772 91.4417 25.7772C90.8813 25.7772 90.3609 25.6304 89.8805 25.3502C89.4002 25.0566 89.0132 24.6563 88.7196 24.1226C88.4261 23.6022 88.2793 22.9884 88.2793 22.2812C88.2793 21.5873 88.4261 20.9735 88.7196 20.4398C89.0132 19.9194 89.4002 19.5057 89.8805 19.2121C90.3609 18.9186 90.8813 18.7852 91.4417 18.7852C91.882 18.7852 92.2823 18.8652 92.6293 19.0253C92.9762 19.1855 93.2564 19.4123 93.4699 19.7192H93.5767V18.9987H95.258V25.3101C95.258 26.0307 95.1112 26.6712 94.831 27.1916C94.5507 27.7253 94.1504 28.139 93.6167 28.4192C93.0963 28.7127 92.4825 28.8462 91.7886 28.8462C90.9213 28.8595 90.2141 28.6727 89.6403 28.2857ZM93.0563 23.6822C93.4032 23.3353 93.5767 22.8683 93.5767 22.2812C93.5767 21.6674 93.4032 21.2003 93.0696 20.8667C92.7227 20.5332 92.309 20.373 91.8153 20.373C91.3216 20.373 90.8946 20.5465 90.5477 20.8801C90.2008 21.2137 90.0273 21.6807 90.0273 22.2945C90.0273 22.895 90.2008 23.362 90.5477 23.7089C90.8946 24.0425 91.3083 24.216 91.8153 24.216C92.2957 24.2026 92.7093 24.0292 93.0563 23.6822Z" fill="#1B1B1B"/>
<path d="M96.1875 16.25H97.823V26.0631H96.1875V16.25Z" fill="#1B1B1B"/>
<path d="M101.109 25.5859C100.584 25.2725 100.187 24.8363 99.8923 24.2775C99.5979 23.7187 99.457 23.0918 99.457 22.3967C99.457 21.7425 99.5979 21.1291 99.8923 20.5567C100.187 19.9979 100.584 19.5345 101.096 19.2074C101.608 18.8667 102.171 18.7031 102.798 18.7031C103.464 18.7031 104.053 18.853 104.527 19.1665C105.013 19.48 105.385 19.8889 105.628 20.4341C105.884 20.9656 105.999 21.5653 105.999 22.2059C105.999 22.4103 105.986 22.6147 105.961 22.8056H101.07C101.16 23.3644 101.365 23.7732 101.685 24.0595C102.018 24.3457 102.402 24.482 102.862 24.482C103.247 24.482 103.579 24.4002 103.848 24.223C104.13 24.0458 104.348 23.8141 104.501 23.5143L105.858 24.223C105.193 25.4497 104.194 26.063 102.837 26.063C102.21 26.063 101.621 25.8994 101.109 25.5859ZM104.399 21.538C104.386 21.32 104.309 21.1019 104.181 20.8974C104.053 20.6794 103.861 20.5022 103.631 20.3659C103.4 20.2296 103.119 20.1615 102.811 20.1615C102.414 20.1615 102.069 20.2841 101.787 20.5295C101.505 20.7748 101.301 21.1155 101.173 21.538H104.399Z" fill="#1B1B1B"/>
<defs>
<clipPath id="clip0_732_16273">
<rect width="32" height="30" fill="white" transform="translate(0 0.25)"/>
</clipPath>
</defs>
</svg>
