<svg width="24" height="24" viewBox="0 0 24 24" fill="none" xmlns="http://www.w3.org/2000/svg">
<g clip-path="url(#clip0_1094_350)">
<path fill-rule="evenodd" clip-rule="evenodd" d="M10.6687 0.907355L13.7025 2.65889L3.86672 8.33756V12.5455C3.86672 12.7136 3.95006 12.858 4.0957 12.9421L6.37561 14.2584C6.44841 14.3004 6.53175 14.3004 6.60459 14.2584C6.67739 14.2163 6.71906 14.1442 6.71906 14.0601V9.98437L16.5548 4.3057L19.5886 6.05723C19.8798 6.22537 20.0466 6.51412 20.0466 6.8504V12.114C19.2229 11.8362 18.3514 11.6863 17.481 11.6332V11.2803C17.481 10.8959 17.2615 10.5511 16.9131 10.3884C16.5649 10.2258 16.1595 10.2788 15.8648 10.5254L12.3727 13.4482C12.083 13.6907 11.9247 14.0442 11.9368 14.4217C11.9489 14.8009 12.1282 15.1411 12.434 15.3655L15.9143 17.9189C16.2149 18.1394 16.609 18.1718 16.9415 18.0033C17.2744 17.8347 17.481 17.4984 17.481 17.1253V16.7356C18.2054 16.822 18.9224 17.0447 19.5112 17.471C19.6254 17.5537 19.7337 17.6437 19.8345 17.7405C19.7671 17.8195 19.6846 17.888 19.5887 17.9434L10.6687 23.0933C10.3775 23.2614 10.044 23.2614 9.75281 23.0933L0.832969 17.9434C0.541687 17.7753 0.375 17.4865 0.375 17.1502V6.85045C0.375 6.51412 0.541687 6.22537 0.832969 6.05728L9.75286 0.907355C10.0441 0.739215 10.3775 0.739215 10.6687 0.907355ZM16.731 15.9422C21.6289 15.9422 23.017 20.6203 18.9938 22.723C18.9718 22.7344 18.9623 22.7608 18.9725 22.7835C18.9819 22.8046 19.0043 22.8158 19.0268 22.8102C25.711 21.1661 25.2437 12.3607 16.731 12.3607V11.2803C16.731 11.1871 16.6802 11.1074 16.5958 11.068C16.5113 11.0286 16.4176 11.0408 16.3462 11.1006L12.854 14.0234C12.7398 14.119 12.6816 14.2491 12.6863 14.3979C12.6911 14.5467 12.7575 14.6728 12.8776 14.7608L16.358 17.3143C16.431 17.3678 16.5217 17.3753 16.6025 17.3344C16.6833 17.2934 16.731 17.2158 16.731 17.1253V15.9422Z" fill="#023F88"/>
</g>
<defs>
<clipPath id="clip0_1094_350">
<rect width="24" height="24" fill="white"/>
</clipPath>
</defs>
</svg>
