<svg width="24" height="24" viewBox="0 0 24 24" fill="none" xmlns="http://www.w3.org/2000/svg">
<g clip-path="url(#clip0_1094_344)">
<path d="M12 7.03125C9.28638 7.03125 7.07812 9.23951 7.07812 11.9531C7.07812 14.6668 9.28638 16.875 12 16.875C14.7136 16.875 16.9219 14.6668 16.9219 11.9531C16.9219 9.23951 14.7136 7.03125 12 7.03125ZM15.3096 11.044L11.794 14.5596C11.6567 14.697 11.4767 14.7656 11.2969 14.7656C11.1171 14.7656 10.9371 14.697 10.7997 14.5596L8.69037 12.4503C8.41571 12.1756 8.41571 11.7307 8.69037 11.456C8.96503 11.1813 9.40998 11.1813 9.68464 11.456L11.2969 13.0682L14.3154 10.0497C14.59 9.77509 15.035 9.77509 15.3096 10.0497C15.5843 10.3244 15.5843 10.7694 15.3096 11.044Z" fill="#023F88"/>
<path d="M20.4375 2.8125H18.7903C16.413 2.8125 14.1781 1.84003 12.4971 0.159119C12.2225 -0.11554 11.7775 -0.11554 11.5029 0.159119C9.82197 1.84003 7.58698 2.8125 5.20972 2.8125H3.5625C3.17377 2.8125 2.85938 3.1269 2.85938 3.51563V11.9531C2.85938 18.2716 7.45716 21.2106 10.4996 23.1242C10.7778 23.2987 11.7039 23.9532 12 23.9532C12.2954 23.9532 13.197 23.3156 13.4742 23.1415C16.5271 21.2265 21.1407 18.2846 21.1407 11.9531V3.51563C21.1407 3.1269 20.8261 2.8125 20.4375 2.8125ZM12 18.2813C8.51038 18.2813 5.67188 15.4426 5.67188 11.9531C5.67188 8.46351 8.51038 5.62501 12 5.62501C15.4895 5.62501 18.3281 8.46351 18.3281 11.9531C18.3281 15.4426 15.4895 18.2813 12 18.2813Z" fill="#023F88"/>
</g>
<defs>
<clipPath id="clip0_1094_344">
<rect width="24" height="24" fill="white"/>
</clipPath>
</defs>
</svg>
