<svg width="25" height="24" viewBox="0 0 25 24" fill="none" xmlns="http://www.w3.org/2000/svg">
<path d="M8 2.5C8 1.94772 7.55228 1.5 7 1.5C6.44772 1.5 6 1.94772 6 2.5V3.5C6 4.05228 6.44772 4.5 7 4.5C7.55228 4.5 8 4.05228 8 3.5V2.5Z" fill="#A165F5"/>
<path d="M19 2.5C19 1.94772 18.5523 1.5 18 1.5C17.4477 1.5 17 1.94772 17 2.5V3.5C17 4.05228 17.4477 4.5 18 4.5C18.5523 4.5 19 4.05228 19 3.5V2.5Z" fill="#A165F5"/>
<path d="M2.5 9V20.5C2.5 21.6045 3.3955 22.5 4.5 22.5H20.5C21.6045 22.5 22.5 21.6045 22.5 20.5V9H2.5ZM8.5 19C8.5 19.5525 8.0525 20 7.5 20H6.5C5.9475 20 5.5 19.5525 5.5 19V18C5.5 17.4475 5.9475 17 6.5 17H7.5C8.0525 17 8.5 17.4475 8.5 18V19ZM8.5 13.5C8.5 14.0525 8.0525 14.5 7.5 14.5H6.5C5.9475 14.5 5.5 14.0525 5.5 13.5V12.5C5.5 11.9475 5.9475 11.5 6.5 11.5H7.5C8.0525 11.5 8.5 11.9475 8.5 12.5V13.5ZM14 19C14 19.5525 13.5525 20 13 20H12C11.4475 20 11 19.5525 11 19V18C11 17.4475 11.4475 17 12 17H13C13.5525 17 14 17.4475 14 18V19ZM14 13.5C14 14.0525 13.5525 14.5 13 14.5H12C11.4475 14.5 11 14.0525 11 13.5V12.5C11 11.9475 11.4475 11.5 12 11.5H13C13.5525 11.5 14 11.9475 14 12.5V13.5ZM19.5 19C19.5 19.5525 19.0525 20 18.5 20H17.5C16.9475 20 16.5 19.5525 16.5 19V18C16.5 17.4475 16.9475 17 17.5 17H18.5C19.0525 17 19.5 17.4475 19.5 18V19ZM19.5 13.5C19.5 14.0525 19.0525 14.5 18.5 14.5H17.5C16.9475 14.5 16.5 14.0525 16.5 13.5V12.5C16.5 11.9475 16.9475 11.5 17.5 11.5H18.5C19.0525 11.5 19.5 11.9475 19.5 12.5V13.5Z" fill="#A165F5"/>
<path d="M22.5 8V5C22.5 3.8955 21.6045 3 20.5 3H20V3.5C20 4.603 19.103 5.5 18 5.5C16.897 5.5 16 4.603 16 3.5V3H9V3.5C9 4.603 8.103 5.5 7 5.5C5.897 5.5 5 4.603 5 3.5V3H4.5C3.3955 3 2.5 3.8955 2.5 5V8H22.5Z" fill="#A165F5"/>
</svg>
