<svg width="46" height="46" viewBox="0 0 46 46" fill="none" xmlns="http://www.w3.org/2000/svg">
<path d="M23.3335 2.51831C19.2543 2.51831 15.2666 3.72795 11.8749 5.99425C8.48311 8.26055 5.83955 11.4817 4.27849 15.2505C2.71743 19.0192 2.30899 23.1662 3.10481 27.167C3.90063 31.1679 5.86497 34.8429 8.74943 37.7274C11.6339 40.6118 15.3089 42.5762 19.3098 43.372C23.3106 44.1678 27.4576 43.7594 31.2264 42.1983C34.9951 40.6373 38.2163 37.9937 40.4826 34.6019C42.7489 31.2102 43.9585 27.2225 43.9585 23.1433C43.9585 17.6732 41.7855 12.4272 37.9176 8.55923C34.0496 4.6913 28.8036 2.51831 23.3335 2.51831ZM14.9494 6.39019L16.0679 7.16644C16.3152 7.33878 16.5157 7.57015 16.651 7.83956L16.9323 8.40206C17.0814 8.70101 17.311 8.95245 17.5952 9.12816C17.8794 9.30386 18.2069 9.39687 18.541 9.39675H20.5407C21.0178 9.39675 21.4754 9.58629 21.8128 9.92368C22.1502 10.2611 22.3398 10.7187 22.3398 11.1958V11.2314C22.34 11.5656 22.247 11.8931 22.0713 12.1773C21.8956 12.4615 21.6441 12.6911 21.3451 12.8402L16.5479 15.2402C16.4807 15.2729 16.4159 15.3102 16.3538 15.3517L13.8985 16.9886C13.6379 17.1627 13.427 17.4014 13.2863 17.6814L12.9216 18.4146C12.7956 18.6638 12.7299 18.9392 12.7299 19.2185C12.7299 19.4978 12.7956 19.7731 12.9216 20.0224C13.0902 20.3604 13.1483 20.7429 13.0875 21.1157C13.0268 21.4885 12.8504 21.8328 12.5832 22.0999L12.5298 22.1542C12.2461 22.438 11.8757 22.6186 11.4775 22.6676C11.0793 22.7165 10.6762 22.6308 10.3323 22.4242L7.19444 20.5399C6.82637 20.3186 6.54942 19.9732 6.41351 19.5658L5.64194 17.2502C5.60632 17.2502 5.58101 17.2389 5.54819 17.238C7.12175 12.5198 10.5028 8.61846 14.9494 6.39019ZM25.2844 29.8211C25.2846 29.9514 25.2637 30.0809 25.2226 30.2046L24.3929 32.6927C24.3337 32.8714 24.2335 33.0339 24.1004 33.1671L22.6004 34.6671C22.4306 34.8364 22.3151 35.0525 22.2685 35.2877L21.4744 39.2552C21.4377 39.4358 21.3603 39.6057 21.248 39.7519C21.1358 39.8981 20.9917 40.0168 20.8266 40.0989L20.176 40.4252C19.9479 40.5384 19.69 40.5773 19.4386 40.5365C19.1872 40.4956 18.955 40.377 18.7744 40.1974L17.5688 38.9917C17.4767 38.8991 17.3998 38.7925 17.341 38.6758L16.5751 37.1439C16.4914 36.9752 16.4478 36.7895 16.4476 36.6011V32.733C16.4471 32.5075 16.3842 32.2866 16.2657 32.0947C16.1472 31.9029 15.9778 31.7477 15.7763 31.6464L14.7713 31.1449C14.5817 31.0508 14.42 30.9085 14.3026 30.7324L12.721 28.3596C12.5878 28.1603 12.5167 27.9261 12.5166 27.6864V26.8427C12.5172 26.6174 12.5803 26.3966 12.6988 26.205C12.8173 26.0133 12.9866 25.8583 13.1879 25.7571L14.1188 25.2883C14.354 25.1712 14.5446 24.9807 14.6616 24.7455L15.1304 23.8146C15.2314 23.6137 15.386 23.4447 15.5771 23.3262C15.7682 23.2077 15.9884 23.1444 16.2132 23.1433H17.9063C18.0658 23.1432 18.2237 23.1745 18.3711 23.2355C18.5184 23.2964 18.6523 23.3859 18.7651 23.4986L19.036 23.7696C19.2639 23.9971 19.5727 24.1252 19.8948 24.1258H20.146C20.4684 24.1271 20.7772 24.256 21.0048 24.4844C21.2323 24.7129 21.3601 25.0221 21.3601 25.3446C21.3606 25.5698 21.4235 25.7905 21.5418 25.9821C21.6601 26.1737 21.8292 26.3288 22.0304 26.4302L24.6179 27.723C24.8192 27.8244 24.9884 27.9797 25.1067 28.1715C25.225 28.3633 25.2879 28.5842 25.2882 28.8096L25.2844 29.8211ZM30.2251 12.0002C30.3087 11.7977 30.4314 11.6135 30.586 11.4583L32.2651 9.78019C32.3916 9.65377 32.5375 9.54838 32.6973 9.468L34.4598 8.58675C34.6137 8.5133 34.7782 8.46428 34.9473 8.44144C36.9718 10.0376 38.6465 12.0329 39.8673 14.3036H39.0385C38.5966 14.3037 38.1728 14.1283 37.8601 13.8161L37.6576 13.6136C37.3449 13.3012 36.9211 13.1255 36.4791 13.1252H35.206C34.9457 13.1245 34.6888 13.1848 34.456 13.3014L32.8041 14.1283C32.5713 14.2445 32.3144 14.3046 32.0541 14.3036H31.7569C31.483 14.3034 31.2134 14.2357 30.9719 14.1066C30.7304 13.9774 30.5244 13.7907 30.3722 13.5629C30.22 13.3352 30.1263 13.0735 30.0993 12.8009C30.0724 12.5283 30.113 12.2533 30.2176 12.0002H30.2251ZM37.2929 35.6299L37.171 35.3308C37.1045 35.1303 37.0707 34.9205 37.0707 34.7093V32.5446C37.0706 32.2397 36.9997 31.9389 36.8635 31.6661L35.3129 28.5667C35.1767 28.2939 35.1058 27.9932 35.1057 27.6883V27.4014C35.1056 27.0668 35.0201 26.7376 34.8571 26.4453C34.6941 26.153 34.4592 25.9072 34.1745 25.7311C33.8898 25.5551 33.5649 25.4548 33.2306 25.4397C32.8962 25.4245 32.5636 25.495 32.2641 25.6446L31.5919 25.9811C31.3194 26.1171 31.019 26.1881 30.7144 26.1883H30.6291C30.2168 26.1876 29.8151 26.0575 29.4808 25.8163C29.1464 25.5751 28.8961 25.235 28.7654 24.8439L28.3323 23.5436C28.2654 23.3432 28.2312 23.1333 28.231 22.9221V21.3461C28.231 21.0228 28.3108 20.7044 28.4634 20.4194C28.616 20.1343 28.8366 19.8913 29.1057 19.7121L30.8944 18.5196C31.0817 18.3946 31.2891 18.303 31.5076 18.2486L34.5507 17.4874C34.9135 17.3968 35.2946 17.4114 35.6494 17.5296L37.7494 18.2299C37.9502 18.2967 38.1604 18.3309 38.3719 18.3311H41.4366C42.2503 21.3308 42.2972 24.4869 41.5732 27.5095C40.8492 30.5321 39.3773 33.3244 37.2929 35.6299Z" fill="#A165F5"/>
</svg>
