<svg width="46" height="46" viewBox="0 0 46 46" fill="none" xmlns="http://www.w3.org/2000/svg">
<path d="M32.8118 29.3833C32.5001 27.2655 31.4397 25.3296 29.8228 23.9267C28.206 22.5239 26.1399 21.747 23.9993 21.7371H22.0043C19.8637 21.747 17.7976 22.5239 16.1807 23.9267C14.5639 25.3296 13.5034 27.2655 13.1918 29.3833L12.2355 36.0696C12.205 36.2857 12.2252 36.506 12.2945 36.7129C12.3638 36.9199 12.4803 37.1079 12.6349 37.2621C13.0099 37.6371 15.3105 39.5496 23.0036 39.5496C30.6968 39.5496 32.9918 37.6446 33.3724 37.2621C33.5269 37.1079 33.6435 36.9199 33.7128 36.7129C33.7821 36.506 33.8023 36.2857 33.7718 36.0696L32.8118 29.3833Z" fill="#A165F5"/>
<path d="M14.6746 22.7683C12.8625 24.4388 11.6834 26.6844 11.3371 29.1246L10.6434 33.9246C5.0746 33.8871 3.3871 31.8621 3.10585 31.4496C2.99714 31.2997 2.91955 31.1296 2.87769 30.9492C2.83582 30.7689 2.83052 30.582 2.8621 30.3996L3.2746 28.0746C3.48952 26.8595 3.99427 25.7141 4.74605 24.7356C5.49784 23.7571 6.47449 22.9743 7.59319 22.4536C8.7119 21.9329 9.93967 21.6896 11.1724 21.7444C12.4051 21.7992 13.6065 22.1504 14.6746 22.7683Z" fill="#A165F5"/>
<path d="M43.1377 30.3996C43.1693 30.582 43.164 30.7689 43.1221 30.9492C43.0802 31.1296 43.0027 31.2997 42.8939 31.4496C42.6127 31.8621 40.9252 33.8871 35.3564 33.9246L34.6627 29.1246C34.3164 26.6844 33.1373 24.4388 31.3252 22.7683C32.3933 22.1504 33.5946 21.7992 34.8274 21.7444C36.0601 21.6896 37.2879 21.9329 38.4066 22.4536C39.5253 22.9743 40.502 23.7571 41.2537 24.7356C42.0055 25.7141 42.5103 26.8595 42.7252 28.0746L43.1377 30.3996Z" fill="#A165F5"/>
<path d="M14.9938 18.6433C14.5218 19.3127 13.8952 19.8582 13.1673 20.2336C12.4393 20.609 11.6315 20.8032 10.8125 20.7996C9.99548 20.7996 9.19016 20.6054 8.4629 20.2331C7.73563 19.8608 7.10725 19.321 6.62953 18.6582C6.15181 17.9954 5.83844 17.2286 5.71522 16.4209C5.59201 15.6132 5.66249 14.7879 5.92085 14.0128C6.17922 13.2377 6.61807 12.5351 7.20124 11.9629C7.78442 11.3906 8.49522 10.9652 9.27507 10.7216C10.0549 10.478 10.8815 10.4232 11.6867 10.5617C12.4919 10.7002 13.2526 11.0281 13.9063 11.5183C13.7183 12.2535 13.6238 13.0095 13.625 13.7683C13.6264 15.488 14.0999 17.1742 14.9938 18.6433Z" fill="#A165F5"/>
<path d="M40.3434 15.6433C40.3439 16.3206 40.2108 16.9913 39.9519 17.6171C39.6929 18.2429 39.3131 18.8115 38.8342 19.2904C38.3553 19.7693 37.7867 20.1491 37.1609 20.4081C36.5351 20.667 35.8644 20.8001 35.1871 20.7996C34.3681 20.8032 33.5603 20.609 32.8323 20.2336C32.1044 19.8582 31.4778 19.3127 31.0059 18.6433C31.8997 17.1742 32.3732 15.488 32.3746 13.7683C32.3759 13.0095 32.2814 12.2535 32.0934 11.5183C32.8594 10.9438 33.7703 10.5939 34.724 10.5079C35.6778 10.4219 36.6366 10.6032 37.4931 11.0314C38.3495 11.4597 39.0699 12.1179 39.5733 12.9325C40.0767 13.7471 40.3434 14.6857 40.3434 15.6433Z" fill="#A165F5"/>
<path d="M23 20.7996C26.8833 20.7996 30.0312 17.6516 30.0312 13.7683C30.0312 9.88506 26.8833 6.73706 23 6.73706C19.1167 6.73706 15.9688 9.88506 15.9688 13.7683C15.9688 17.6516 19.1167 20.7996 23 20.7996Z" fill="#A165F5"/>
</svg>
