<svg width="43" height="34" viewBox="0 0 43 34" fill="none" xmlns="http://www.w3.org/2000/svg">
<path opacity="0.1" d="M37.3646 0.245928C38.3428 0.368892 39.4432 0.98372 40.6659 2.09041C41.8886 3.1971 42.5 5.22603 42.5 8.17721C42.5 11.0054 41.8886 14.5099 40.6659 18.6908C39.5655 22.7486 38.4651 25.8228 37.3646 27.9132L35.714 31.2333C34.6135 33.0778 33.8188 34 33.3297 34H32.9629C31.8624 34 31.3122 33.5696 31.3122 32.7089C31.3122 24.3472 29.845 16.7848 26.9105 10.0217C25.81 7.68535 25.2598 6.39421 25.2598 6.14828C25.2598 4.3038 26.2991 2.82821 28.3777 1.72152C30.5786 0.614828 32.4127 0.061482 33.8799 0.061482C35.3472 -0.061482 36.5087 0 37.3646 0.245928ZM12.6048 0.245928C13.583 0.368892 14.6834 0.98372 15.9061 2.09041C17.1288 3.1971 17.7402 5.22603 17.7402 8.17721C17.7402 11.0054 17.19 14.5099 16.0895 18.6908C14.9891 22.7486 13.8275 25.8228 12.6048 27.9132L10.9541 31.2333C9.85371 33.0778 9.05895 34 8.56987 34H8.20306C7.10262 34 6.5524 33.5696 6.5524 32.7089C6.5524 24.8391 5.02402 17.2767 1.96725 10.0217C0.989083 7.68535 0.5 6.39421 0.5 6.14828C0.5 4.3038 1.5393 2.82821 3.6179 1.72152C5.81878 0.614828 7.65284 0.061482 9.12009 0.061482C10.5873 -0.061482 11.7489 0 12.6048 0.245928Z" fill="#00042E"/>
</svg>
