<svg width="46" height="46" viewBox="0 0 46 46" fill="none" xmlns="http://www.w3.org/2000/svg">
<g clip-path="url(#clip0_254_794)">
<path d="M4.4165 41.8933V10.0183H0.666504V43.7683C0.666504 44.2656 0.864048 44.7425 1.21568 45.0941C1.56731 45.4458 2.04422 45.6433 2.5415 45.6433H45.6665V41.8933H4.4165Z" fill="#A165F5"/>
<path d="M17.5415 26.8933C17.5415 26.396 17.344 25.9191 16.9923 25.5675C16.6407 25.2159 16.1638 25.0183 15.6665 25.0183H10.0415C9.54422 25.0183 9.06731 25.2159 8.71568 25.5675C8.36405 25.9191 8.1665 26.396 8.1665 26.8933V40.0183H17.5415V26.8933Z" fill="#A165F5"/>
<path d="M30.6665 19.3933C30.6665 18.896 30.469 18.4191 30.1173 18.0675C29.7657 17.7159 29.2888 17.5183 28.7915 17.5183H23.1665C22.6692 17.5183 22.1923 17.7159 21.8407 18.0675C21.489 18.4191 21.2915 18.896 21.2915 19.3933V40.0183H30.6665V19.3933Z" fill="#A165F5"/>
<path d="M43.7915 11.8933C43.7915 11.396 43.594 10.9191 43.2423 10.5675C42.8907 10.2159 42.4138 10.0183 41.9165 10.0183H36.2915C35.7942 10.0183 35.3173 10.2159 34.9657 10.5675C34.614 10.9191 34.4165 11.396 34.4165 11.8933V40.0183H43.7915V11.8933Z" fill="#A165F5"/>
</g>
<defs>
<clipPath id="clip0_254_794">
<rect width="45" height="45" fill="white" transform="translate(0.666504 0.643311)"/>
</clipPath>
</defs>
</svg>
