<svg width="49" height="48" viewBox="0 0 49 48" fill="none" xmlns="http://www.w3.org/2000/svg">
<path d="M24.5 1C11.7975 1 1.5 11.2975 1.5 24C1.5 36.7025 11.7975 47 24.5 47C37.2025 47 47.5 36.7025 47.5 24C47.5 11.2975 37.2025 1 24.5 1Z" stroke="#2C50D3"/>
<path d="M27.4822 24L20.8661 30.049C20.378 30.4953 20.378 31.219 20.8661 31.6653C21.3543 32.1116 22.1457 32.1116 22.6339 31.6653L30.1339 24.8081C30.622 24.3618 30.622 23.6382 30.1339 23.1919L22.6339 16.3347C22.1457 15.8884 21.3543 15.8884 20.8661 16.3347C20.378 16.7811 20.378 17.5047 20.8661 17.951L27.4822 24Z" fill="#2C50D3"/>
</svg>
