<svg width="48" height="48" viewBox="0 0 48 48" fill="none" xmlns="http://www.w3.org/2000/svg">
<g clip-path="url(#clip0_194_757)">
<path d="M24 1C11.2975 1 1 11.2975 1 24C1 36.7025 11.2975 47 24 47C36.7025 47 47 36.7025 47 24C47 11.2975 36.7025 1 24 1Z" stroke="#A165F5"/>
<path d="M26.9822 24L20.3661 30.049C19.878 30.4953 19.878 31.219 20.3661 31.6653C20.8543 32.1116 21.6457 32.1116 22.1339 31.6653L29.6339 24.8081C30.122 24.3618 30.122 23.6382 29.6339 23.1919L22.1339 16.3347C21.6457 15.8884 20.8543 15.8884 20.3661 16.3347C19.878 16.7811 19.878 17.5047 20.3661 17.951L26.9822 24Z" fill="#A165F5"/>
</g>
<defs>
<clipPath id="clip0_194_757">
<rect width="48" height="48" fill="white" transform="matrix(-1 0 0 -1 48 48)"/>
</clipPath>
</defs>
</svg>
