<svg width="48" height="49" viewBox="0 0 48 49" fill="none" xmlns="http://www.w3.org/2000/svg">
<g clip-path="url(#clip0_194_976)">
<path d="M24 1.64331C11.2975 1.64331 1 11.9408 1 24.6433C1 37.3459 11.2975 47.6433 24 47.6433C36.7025 47.6433 47 37.3459 47 24.6433C47 11.9408 36.7025 1.64331 24 1.64331Z" stroke="white"/>
<path d="M26.9822 24.6433L20.3661 30.6923C19.878 31.1386 19.878 31.8623 20.3661 32.3086C20.8543 32.7549 21.6457 32.7549 22.1339 32.3086L29.6339 25.4514C30.122 25.0051 30.122 24.2815 29.6339 23.8352L22.1339 16.978C21.6457 16.5317 20.8543 16.5317 20.3661 16.978C19.878 17.4244 19.878 18.148 20.3661 18.5943L26.9822 24.6433Z" fill="white"/>
</g>
<defs>
<clipPath id="clip0_194_976">
<rect width="48" height="48" fill="white" transform="matrix(-1 0 0 -1 48 48.6433)"/>
</clipPath>
</defs>
</svg>
