<svg width="109" height="21" viewBox="0 0 109 21" fill="none" xmlns="http://www.w3.org/2000/svg">
<path d="M9.85797 1.60684C10.0076 1.14618 10.6593 1.14618 10.809 1.60684L12.4664 6.70765C12.5333 6.91366 12.7253 7.05314 12.9419 7.05314H18.3052C18.7896 7.05314 18.991 7.67295 18.5991 7.95765L14.2601 11.1101C14.0849 11.2374 14.0115 11.4631 14.0785 11.6691L15.7358 16.77C15.8855 17.2306 15.3583 17.6137 14.9664 17.329L10.6274 14.1765C10.4521 14.0492 10.2148 14.0492 10.0396 14.1765L5.70059 17.329C5.30874 17.6137 4.7815 17.2306 4.93117 16.77L6.58853 11.6691C6.65546 11.4631 6.58213 11.2374 6.40689 11.1101L2.06788 7.95765C1.67602 7.67295 1.87741 7.05314 2.36177 7.05314H7.72508C7.9417 7.05314 8.13368 6.91366 8.20061 6.70765L9.85797 1.60684Z" fill="#00B67A"/>
<path d="M31.858 1.60684C32.0076 1.14618 32.6593 1.14618 32.809 1.60684L34.4664 6.70765C34.5333 6.91366 34.7253 7.05314 34.9419 7.05314H40.3052C40.7896 7.05314 40.991 7.67295 40.5991 7.95765L36.2601 11.1101C36.0849 11.2374 36.0115 11.4631 36.0785 11.6691L37.7358 16.77C37.8855 17.2306 37.3583 17.6137 36.9664 17.329L32.6274 14.1765C32.4521 14.0492 32.2148 14.0492 32.0396 14.1765L27.7006 17.329C27.3087 17.6137 26.7815 17.2306 26.9312 16.77L28.5885 11.6691C28.6555 11.4631 28.5821 11.2374 28.4069 11.1101L24.0679 7.95765C23.676 7.67295 23.8774 7.05314 24.3618 7.05314H29.7251C29.9417 7.05314 30.1337 6.91366 30.2006 6.70765L31.858 1.60684Z" fill="#00B67A"/>
<path d="M53.858 1.60684C54.0076 1.14618 54.6593 1.14618 54.809 1.60684L56.4664 6.70765C56.5333 6.91366 56.7253 7.05314 56.9419 7.05314H62.3052C62.7896 7.05314 62.991 7.67295 62.5991 7.95765L58.2601 11.1101C58.0849 11.2374 58.0115 11.4631 58.0785 11.6691L59.7358 16.77C59.8855 17.2306 59.3583 17.6137 58.9664 17.329L54.6274 14.1765C54.4521 14.0492 54.2148 14.0492 54.0396 14.1765L49.7006 17.329C49.3087 17.6137 48.7815 17.2306 48.9312 16.77L50.5885 11.6691C50.6555 11.4631 50.5821 11.2374 50.4069 11.1101L46.0679 7.95765C45.676 7.67295 45.8774 7.05314 46.3618 7.05314H51.7251C51.9417 7.05314 52.1337 6.91366 52.2006 6.70765L53.858 1.60684Z" fill="#00B67A"/>
<path d="M75.858 1.60684C76.0076 1.14618 76.6593 1.14618 76.809 1.60684L78.4664 6.70765C78.5333 6.91366 78.7253 7.05314 78.9419 7.05314H84.3052C84.7896 7.05314 84.991 7.67295 84.5991 7.95765L80.2601 11.1101C80.0849 11.2374 80.0115 11.4631 80.0785 11.6691L81.7358 16.77C81.8855 17.2306 81.3583 17.6137 80.9664 17.329L76.6274 14.1765C76.4521 14.0492 76.2148 14.0492 76.0396 14.1765L71.7006 17.329C71.3087 17.6137 70.7815 17.2306 70.9312 16.77L72.5885 11.6691C72.6555 11.4631 72.5821 11.2374 72.4069 11.1101L68.0679 7.95765C67.676 7.67295 67.8774 7.05314 68.3618 7.05314H73.7251C73.9417 7.05314 74.1337 6.91366 74.2006 6.70765L75.858 1.60684Z" fill="#00B67A"/>
<path d="M97.858 1.60684C98.0076 1.14618 98.6593 1.14618 98.809 1.60684L100.466 6.70765C100.533 6.91366 100.725 7.05314 100.942 7.05314H106.305C106.79 7.05314 106.991 7.67295 106.599 7.95765L102.26 11.1101C102.085 11.2374 102.012 11.4631 102.078 11.6691L103.736 16.77C103.885 17.2306 103.358 17.6137 102.966 17.329L98.6274 14.1765C98.4521 14.0492 98.2148 14.0492 98.0396 14.1765L93.7006 17.329C93.3087 17.6137 92.7815 17.2306 92.9312 16.77L94.5885 11.6691C94.6555 11.4631 94.5821 11.2374 94.4069 11.1101L90.0679 7.95765C89.676 7.67295 89.8774 7.05314 90.3618 7.05314H95.7251C95.9417 7.05314 96.1337 6.91366 96.2006 6.70765L97.858 1.60684Z" fill="#00B67A"/>
</svg>
