<svg width="107" height="20" viewBox="0 0 107 20" fill="none" xmlns="http://www.w3.org/2000/svg">
<g clip-path="url(#clip0_254_309)">
<path d="M0.0185547 20.1435H19.7813V0H0.0185547V20.1435Z" fill="#00B67A"/>
<path d="M16.8659 8.57027L5.65672 16.8699L7.29237 11.7404L3.01074 8.57027H8.30304L9.93835 3.44043L11.5736 8.57027H16.8659ZM9.93875 13.7001L13 13.0438L14.2197 16.8699L9.93875 13.7001Z" fill="white"/>
<path d="M21.8574 20.1435H41.6202V0H21.8574V20.1435Z" fill="#00B67A"/>
<path d="M21.8574 20.1435H31.7388V0H21.8574V20.1435Z" fill="#00B67A"/>
<path d="M31.975 13.6215L34.6001 13.0432L35.8142 16.9563L31.6975 13.8246L27.4203 16.9563L29.0804 11.8082L24.7344 8.62649H30.1062L31.7656 3.47803L33.4257 8.62649H38.7972L31.975 13.6215Z" fill="white"/>
<path d="M43.7119 20.1435H63.4747V0H43.7119V20.1435Z" fill="#00B67A"/>
<path d="M43.7119 20.1435H53.5933V0H43.7119V20.1435Z" fill="#00B67A"/>
<path d="M60.5593 8.57027L49.3501 16.8699L50.9857 11.7404L46.7041 8.57027H51.9964L53.6317 3.44043L55.267 8.57027L60.5593 8.57027ZM53.6321 13.7001L56.6934 13.0438L57.9131 16.8699L53.6321 13.7001Z" fill="white"/>
<path d="M65.5664 20.1435H85.3292V0H65.5664V20.1435Z" fill="#00B67A"/>
<path d="M65.5664 20.1435H75.4478V0H65.5664V20.1435Z" fill="#00B67A"/>
<path d="M82.4128 8.57027L71.2039 16.8699L72.8392 11.7404L68.5576 8.57027H73.8499L75.4852 3.44043L77.1205 8.57027L82.4128 8.57027ZM75.4856 13.7001L78.5469 13.0438L79.7666 16.8699L75.4856 13.7001Z" fill="white"/>
<path d="M87.4062 20.1435H107.169V0H87.4062V20.1435Z" fill="#00B67A"/>
<path d="M87.4062 20.1435H97.2876V0H87.4062V20.1435Z" fill="#00B67A"/>
<path d="M104.253 8.57027L93.0438 16.8699L94.6791 11.7404L90.3975 8.57027H95.6898L97.3251 3.44043L98.9604 8.57027H104.253ZM97.3255 13.7001L100.387 13.0438L101.606 16.8699L97.3255 13.7001Z" fill="white"/>
</g>
<defs>
<clipPath id="clip0_254_309">
<rect width="107" height="20" fill="white"/>
</clipPath>
</defs>
</svg>
