<svg width="20" height="20" viewBox="0 0 20 20" fill="none" xmlns="http://www.w3.org/2000/svg">
<path d="M10.0003 1.6665C7.81699 1.6665 6.04199 3.4415 6.04199 5.62484C6.04199 7.7665 7.71699 9.49984 9.90033 9.57484C9.96699 9.5665 10.0337 9.5665 10.0837 9.57484C10.1003 9.57484 10.1087 9.57484 10.1253 9.57484C10.1337 9.57484 10.1337 9.57484 10.142 9.57484C12.2753 9.49984 13.9503 7.7665 13.9587 5.62484C13.9587 3.4415 12.1837 1.6665 10.0003 1.6665Z" fill="#CCCCCC"/>
<path d="M14.2338 11.7919C11.9088 10.2419 8.11712 10.2419 5.77546 11.7919C4.71712 12.5002 4.13379 13.4586 4.13379 14.4836C4.13379 15.5086 4.71712 16.4586 5.76712 17.1586C6.93379 17.9419 8.46712 18.3336 10.0005 18.3336C11.5338 18.3336 13.0671 17.9419 14.2338 17.1586C15.2838 16.4502 15.8671 15.5002 15.8671 14.4669C15.8588 13.4419 15.2838 12.4919 14.2338 11.7919Z" fill="#CCCCCC"/>
</svg>
