<svg width="45" height="46" viewBox="0 0 45 46" fill="none" xmlns="http://www.w3.org/2000/svg">
<g clip-path="url(#clip0_254_805)">
<path d="M44.3726 12.4214C44.1364 10.451 42.2795 8.56154 40.3366 8.30841C28.4891 6.83632 16.5087 6.83632 4.66497 8.30841C2.72046 8.56099 0.863515 10.451 0.627304 12.4214C-0.209101 19.643 -0.209101 26.6451 0.627304 33.865C0.863515 35.8354 2.72046 37.7266 4.66497 37.978C16.5087 39.4501 28.4895 39.4501 40.3366 37.978C42.2795 37.7271 44.1364 35.8354 44.3726 33.865C45.2092 26.6457 45.2092 19.643 44.3726 12.4214ZM18.7497 30.6446V15.6441L29.9999 23.1446L18.7497 30.6446Z" fill="#A165F5"/>
</g>
<defs>
<clipPath id="clip0_254_805">
<rect width="45" height="45" fill="white" transform="translate(0 0.643311)"/>
</clipPath>
</defs>
</svg>
