<svg width="33" height="32" viewBox="0 0 33 32" fill="none" xmlns="http://www.w3.org/2000/svg">
<path d="M22.8234 27.7417C26.9975 25.4892 29.8337 21.0758 29.8337 16.0001C29.8337 8.63626 23.8641 2.66675 16.5003 2.66675C9.1827 2.66675 3.2419 8.56169 3.16771 15.8618L3.16699 16.8282" stroke="#1F1F5B" stroke-width="1.8" stroke-miterlimit="10"/>
<path d="M16.499 13.8737V7.14819" stroke="#1F1F5B" stroke-width="1.8" stroke-miterlimit="10"/>
<path d="M13.873 9.50876L16.499 6.88281L19.1249 9.50876" stroke="#1F1F5B" stroke-width="1.8" stroke-miterlimit="10"/>
<path d="M16.4512 21.7769V29.3333" stroke="#1F1F5B" stroke-width="1.8" stroke-miterlimit="10" stroke-linecap="square"/>
<path d="M20.8154 21.7769V29.3333" stroke="#1F1F5B" stroke-width="1.8" stroke-miterlimit="10" stroke-linecap="square"/>
<path d="M16.4512 25.4255H20.8154" stroke="#1F1F5B" stroke-width="1.8" stroke-miterlimit="10" stroke-linecap="square"/>
<path d="M16.5003 18.1266C17.6747 18.1266 18.6267 17.1745 18.6267 16.0001C18.6267 14.8257 17.6747 13.8737 16.5003 13.8737C15.3258 13.8737 14.3738 14.8257 14.3738 16.0001C14.3738 17.1745 15.3258 18.1266 16.5003 18.1266Z" stroke="#1F1F5B" stroke-width="1.8" stroke-miterlimit="10" stroke-linecap="square"/>
<path d="M3.16699 16.0001H7.05817" stroke="#1F1F5B" stroke-width="1.8" stroke-miterlimit="10"/>
<path d="M29.8338 16.0001H25.9426" stroke="#1F1F5B" stroke-width="1.8" stroke-miterlimit="10"/>
<path d="M10.4462 23.3571C10.4462 22.8275 10.9109 22.3857 11.5 22.3857C12.0891 22.3857 12.5538 22.8275 12.5538 23.3571C12.5538 23.8868 12.0891 24.3286 11.5 24.3286C10.9109 24.3286 10.4462 23.8868 10.4462 23.3571ZM13.4732 24.9885C13.8863 24.5554 14.1385 23.9842 14.1385 23.3571C14.1385 21.9933 12.9501 20.9 11.5 20.9C10.0499 20.9 8.86154 21.9933 8.86154 23.3571C8.86154 23.9842 9.11372 24.5554 9.5268 24.9885C8.84014 25.5165 8.4 26.3166 8.4 27.2143C8.4 28.8149 9.79502 30.1 11.5 30.1C13.205 30.1 14.6 28.8149 14.6 27.2143C14.6 26.3166 14.1599 25.5165 13.4732 24.9885ZM9.98462 27.2143C9.98462 26.4479 10.656 25.8143 11.5 25.8143C12.344 25.8143 13.0154 26.4479 13.0154 27.2143C13.0154 27.9806 12.344 28.6143 11.5 28.6143C10.656 28.6143 9.98462 27.9806 9.98462 27.2143Z" fill="#1F1F5B" stroke="#1F1F5B" stroke-width="0.2"/>
</svg>
