<svg width="151" height="28" viewBox="0 0 151 28" fill="none" xmlns="http://www.w3.org/2000/svg">
<path d="M27 0.5H0V27.5H27V0.5Z" fill="#00B67E"/>
<path d="M13.4998 3.5L16.2154 10.2623L23.4859 10.7553L17.8937 15.4277L19.6715 22.4947L13.4998 18.62L7.32807 22.4947L9.10587 15.4277L3.51367 10.7553L10.7842 10.2623L13.4998 3.5Z" fill="white"/>
<path d="M58 0.5H31V27.5H58V0.5Z" fill="#00B67E"/>
<path d="M44.4998 3.5L47.2154 10.2623L54.4859 10.7553L48.8937 15.4277L50.6715 22.4947L44.4998 18.62L38.3281 22.4947L40.1059 15.4277L34.5137 10.7553L41.7842 10.2623L44.4998 3.5Z" fill="white"/>
<path d="M89 0.5H62V27.5H89V0.5Z" fill="#00B67E"/>
<path d="M75.4998 3.5L78.2158 10.2623L85.4858 10.7553L79.8938 15.4277L81.6718 22.4947L75.4998 18.62L69.3281 22.4947L71.1059 15.4277L65.5137 10.7553L72.7842 10.2623L75.4998 3.5Z" fill="white"/>
<path d="M120 0.5H93V27.5H120V0.5Z" fill="#00B67E"/>
<path d="M106.5 3.5L109.216 10.2623L116.486 10.7553L110.894 15.4277L112.672 22.4947L106.5 18.62L100.328 22.4947L102.106 15.4277L96.5137 10.7553L103.784 10.2623L106.5 3.5Z" fill="white"/>
<path d="M151 0.5H124V27.5H151V0.5Z" fill="#00B67E"/>
<path d="M137.5 3.5L140.216 10.2623L147.486 10.7553L141.894 15.4277L143.672 22.4947L137.5 18.62L131.328 22.4947L133.106 15.4277L127.514 10.7553L134.784 10.2623L137.5 3.5Z" fill="white"/>
</svg>
