<svg width="31" height="30" viewBox="0 0 31 30" fill="none" xmlns="http://www.w3.org/2000/svg">
<mask id="mask0_2008_194" style="mask-type:luminance" maskUnits="userSpaceOnUse" x="0" y="0" width="31" height="30">
<path d="M0.833252 0.333294H30.1666V29.6666H0.833252V0.333294Z" fill="white"/>
</mask>
<g mask="url(#mask0_2008_194)">
<path d="M8.625 16.5969C8.625 15.5076 9.50809 14.6245 10.5975 14.6245C11.6868 14.6245 12.5699 15.5076 12.5699 16.5969" stroke="#1F1F5B" stroke-width="2" stroke-miterlimit="10"/>
<path d="M18.4219 16.5969C18.4219 15.5076 19.305 14.6245 20.3943 14.6245C21.4837 14.6245 22.3668 15.5076 22.3668 16.5969" stroke="#1F1F5B" stroke-width="2" stroke-miterlimit="10"/>
<path d="M12.0625 20.5474C12.7487 21.7102 14.0137 22.4908 15.4617 22.4908C16.9097 22.4908 18.1747 21.7102 18.8608 20.5474" stroke="#1F1F5B" stroke-width="2" stroke-miterlimit="10"/>
<path d="M29.3072 16.256C29.3072 17.8705 28.0141 19.1831 26.4065 19.2134C25.1072 24.0185 20.7163 27.554 15.4999 27.554C10.2835 27.554 5.89268 24.0185 4.5933 19.2134C2.9857 19.1831 1.69263 17.8705 1.69263 16.256C1.69263 15.4391 2.02377 14.6994 2.55888 14.1637C3.08195 13.6412 3.79924 13.3135 4.5933 13.2986C5.89268 8.49359 10.2835 4.95812 15.4999 4.95812C20.7163 4.95812 25.1072 8.49359 26.4065 13.2986C27.2006 13.3135 27.9179 13.6412 28.441 14.1637C28.9761 14.6994 29.3072 15.4391 29.3072 16.256Z" stroke="#1F1F5B" stroke-width="2" stroke-miterlimit="10"/>
<path d="M11.8153 8.63787C11.8153 10.6683 13.4613 12.3143 15.4918 12.3143C17.5223 12.3143 19.1683 10.6683 19.1683 8.63787C19.1683 6.60739 17.5223 4.9614 15.4918 4.9614H14.9156C13.0551 4.9614 11.5469 3.45314 11.5469 1.5926" stroke="#1F1F5B" stroke-width="2" stroke-miterlimit="10"/>
<path d="M15.5407 4.95239H11.0196C9.15908 4.95239 7.65088 3.44413 7.65088 1.58364" stroke="#1F1F5B" stroke-width="2" stroke-miterlimit="10"/>
</g>
</svg>
