<svg width="29" height="28" viewBox="0 0 29 28" fill="none" xmlns="http://www.w3.org/2000/svg">
<path d="M26.7816 5.4578L26.2324 4.03033L25.2693 5.21812C25.2392 5.25615 22.1932 8.96455 18.1859 9.53677C17.4253 9.64556 16.7151 9.78707 16.0288 9.94538C16.2171 6.82954 14.9453 3.85699 12.2434 1.08961L11.1759 0L10.7602 1.46903C10.7505 1.49999 9.82893 4.67243 7.48786 6.10078C4.92302 7.67063 3.28948 9.40588 2.50234 11.4011C1.70719 13.287 1.68685 15.4101 2.44574 17.3109C2.97684 18.6148 4.00598 19.6531 5.30509 20.1959C5.43228 20.2444 5.56185 20.2863 5.69335 20.3215C5.62547 21.2035 5.70319 22.0906 5.92331 22.9473C5.4466 22.9889 4.99112 23.0101 4.56483 23.0101C3.39484 23.0328 2.22845 22.8732 1.1076 22.537L0.5 24.1997C1.8157 24.6123 3.18982 24.808 4.56836 24.779C5.25335 24.7764 5.93762 24.7337 6.61758 24.6507C6.90834 25.1609 7.2652 25.6305 7.67889 26.0473C9.11133 27.3778 11.0173 28.0786 12.9704 27.993C15.9586 27.9247 18.8443 26.8906 21.1956 25.0452L21.4547 24.8418C23.8869 22.9367 31.2781 17.149 26.7816 5.4578ZM5.99052 18.5623L5.97637 18.557C5.10245 18.1941 4.41337 17.4919 4.06689 16.6113C3.49273 15.1411 3.52004 13.504 4.14295 12.0539C4.78505 10.4256 6.17714 8.97251 8.40678 7.61049C9.96232 6.56941 11.1811 5.098 11.9144 3.37586C13.6447 5.30313 14.4709 7.87698 14.1856 10.4513C12.2151 11.052 10.4146 12.1103 8.93124 13.5397C7.52528 14.9253 6.51073 16.6581 5.99052 18.5623ZM20.3678 23.4453L20.1024 23.6549C16.5055 26.5036 11.1821 27.0475 8.93124 24.7967C8.78238 24.6474 8.64353 24.4884 8.51556 24.3209C12.1355 23.4966 16.5479 21.3651 21.0797 16.4698L19.7814 15.2679C15.3504 20.0553 11.0901 22.0116 7.68774 22.697C7.44513 21.8708 7.37376 21.0038 7.47813 20.149C7.74771 18.1084 8.70035 16.2193 10.1809 14.7894C12.0037 12.9657 14.7048 11.8204 18.4362 11.2879C21.1586 10.7611 23.6568 9.41975 25.6 7.44157C28.6035 16.996 22.6655 21.6463 20.3678 23.4453Z" fill="#1F1F5B"/>
</svg>
