<svg width="93" height="20" viewBox="0 0 93 20" fill="none" xmlns="http://www.w3.org/2000/svg">
<path d="M9.98599 0.375L12.702 7.1373L19.972 7.6303L14.38 12.3027L16.158 19.3697L9.98599 15.495L3.814 19.3697L5.592 12.3027L0 7.6303L7.26999 7.1373L9.98599 0.375Z" fill="#00B67E"/>
<path d="M33.7749 6.5938H30.228V16.375H28.267V6.5938H24.752V5H33.7749V6.5938ZM39.002 9.6562C38.752 9.6146 38.494 9.5938 38.228 9.5938C37.358 9.5938 36.772 9.9271 36.47 10.5938V16.375H34.572V7.9219H36.384L36.431 8.8672C36.89 8.1328 37.525 7.7656 38.338 7.7656C38.608 7.7656 38.832 7.8021 39.009 7.875L39.002 9.6562ZM45.322 15.5469C44.765 16.2031 43.973 16.5312 42.947 16.5312C42.03 16.5312 41.3349 16.263 40.8609 15.7266C40.3919 15.1901 40.158 14.4141 40.158 13.3984V7.9219H42.056V13.375C42.056 14.4479 42.502 14.9844 43.392 14.9844C44.314 14.9844 44.937 14.6536 45.259 13.9922V7.9219H47.158V16.375H45.369L45.322 15.5469ZM53.83 14.0781C53.83 13.7396 53.689 13.4818 53.408 13.3047C53.132 13.1276 52.6709 12.9714 52.0249 12.8359C51.3789 12.7005 50.84 12.5286 50.408 12.3203C49.46 11.862 48.9859 11.1979 48.9859 10.3281C48.9859 9.599 49.293 8.9896 49.908 8.5C50.522 8.0104 51.304 7.7656 52.252 7.7656C53.262 7.7656 54.077 8.0156 54.697 8.5156C55.322 9.0156 55.634 9.6641 55.634 10.4609H53.7359C53.7359 10.0964 53.601 9.7943 53.33 9.5547C53.059 9.3099 52.7 9.1875 52.252 9.1875C51.835 9.1875 51.494 9.2839 51.228 9.4766C50.968 9.6693 50.838 9.9271 50.838 10.25C50.838 10.5417 50.96 10.7682 51.205 10.9297C51.45 11.0911 51.9439 11.2552 52.6889 11.4219C53.434 11.5833 54.0169 11.7786 54.4389 12.0078C54.8659 12.2318 55.181 12.5026 55.384 12.8203C55.593 13.138 55.697 13.5234 55.697 13.9766C55.697 14.737 55.382 15.3542 54.752 15.8281C54.121 16.2969 53.2959 16.5312 52.2749 16.5312C51.5819 16.5312 50.965 16.4062 50.424 16.1562C49.882 15.9062 49.46 15.5625 49.158 15.125C48.856 14.6875 48.705 14.2161 48.705 13.7109H50.549C50.5749 14.1589 50.744 14.5052 51.056 14.75C51.369 14.9896 51.7829 15.1094 52.299 15.1094C52.799 15.1094 53.1789 15.0156 53.4389 14.8281C53.6999 14.6354 53.83 14.3854 53.83 14.0781ZM59.7359 5.8672V7.9219H61.228V9.3281H59.7359V14.0469C59.7359 14.3698 59.799 14.6042 59.924 14.75C60.054 14.8906 60.2829 14.9609 60.6109 14.9609C60.8299 14.9609 61.0509 14.9349 61.2749 14.8828V16.3516C60.8429 16.4714 60.4259 16.5312 60.0249 16.5312C58.5669 16.5312 57.838 15.7266 57.838 14.1172V9.3281H56.447V7.9219H57.838V5.8672H59.7359ZM70.088 12.2344C70.088 13.5417 69.7909 14.5859 69.1969 15.3672C68.6029 16.1432 67.806 16.5312 66.806 16.5312C65.879 16.5312 65.1369 16.2266 64.5799 15.6172V19.625H62.681V7.9219H64.431L64.509 8.7812C65.067 8.1042 65.8249 7.7656 66.7829 7.7656C67.8139 7.7656 68.6209 8.151 69.2049 8.9219C69.7929 9.6875 70.088 10.7526 70.088 12.1172V12.2344ZM68.1969 12.0703C68.1969 11.2266 68.028 10.5573 67.6889 10.0625C67.3559 9.5677 66.877 9.3203 66.252 9.3203C65.476 9.3203 64.9179 9.6406 64.5799 10.2812V14.0312C64.9239 14.6875 65.486 15.0156 66.267 15.0156C66.871 15.0156 67.343 14.7734 67.681 14.2891C68.025 13.7995 68.1969 13.0599 68.1969 12.0703ZM73.72 16.375H71.8219V7.9219H73.72V16.375ZM71.7049 5.7266C71.7049 5.4349 71.796 5.1927 71.978 5C72.166 4.8073 72.4309 4.7109 72.7749 4.7109C73.1189 4.7109 73.3839 4.8073 73.5719 5C73.7589 5.1927 73.853 5.4349 73.853 5.7266C73.853 6.013 73.7589 6.2526 73.5719 6.4453C73.3839 6.6328 73.1189 6.7266 72.7749 6.7266C72.4309 6.7266 72.166 6.6328 71.978 6.4453C71.796 6.2526 71.7049 6.013 71.7049 5.7266ZM77.8139 16.375H75.9159V4.375H77.8139V16.375ZM79.5329 12.0703C79.5329 11.2422 79.6969 10.4974 80.0249 9.8359C80.3529 9.1693 80.8139 8.6589 81.4079 8.3047C82.0019 7.9453 82.6839 7.7656 83.4549 7.7656C84.5949 7.7656 85.52 8.1328 86.228 8.8672C86.942 9.6016 87.327 10.5755 87.384 11.7891L87.392 12.2344C87.392 13.0677 87.2309 13.8125 86.9079 14.4688C86.5899 15.125 86.1319 15.6328 85.5329 15.9922C84.9389 16.3516 84.252 16.5312 83.47 16.5312C82.278 16.5312 81.322 16.1354 80.603 15.3438C79.8899 14.5469 79.5329 13.487 79.5329 12.1641V12.0703ZM81.431 12.2344C81.431 13.1042 81.611 13.7865 81.97 14.2812C82.33 14.7708 82.83 15.0156 83.47 15.0156C84.111 15.0156 84.608 14.7656 84.963 14.2656C85.322 13.7656 85.502 13.0339 85.502 12.0703C85.502 11.2161 85.3169 10.5391 84.9469 10.0391C84.5819 9.5391 84.0849 9.2891 83.4549 9.2891C82.8349 9.2891 82.343 9.5365 81.978 10.0312C81.614 10.5208 81.431 11.2552 81.431 12.2344ZM91.377 5.8672V7.9219H92.8689V9.3281H91.377V14.0469C91.377 14.3698 91.4389 14.6042 91.5639 14.75C91.6939 14.8906 91.924 14.9609 92.252 14.9609C92.47 14.9609 92.6919 14.9349 92.9159 14.8828V16.3516C92.4829 16.4714 92.0669 16.5312 91.6659 16.5312C90.2069 16.5312 89.478 15.7266 89.478 14.1172V9.3281H88.088V7.9219H89.478V5.8672H91.377Z" fill="#0C0B0B"/>
</svg>
