<svg width="46" height="46" viewBox="0 0 46 46" fill="none" xmlns="http://www.w3.org/2000/svg">
<g clip-path="url(#clip0_872_600)">
<path d="M3.83362 46H36.0338C38.0232 45.9937 39.6758 44.4639 39.8357 42.481C40.8414 41.9532 41.5605 41.0057 41.7983 39.895L45.9153 20.3933C46.1276 19.3988 45.9355 18.3606 45.3813 17.508C44.8272 16.6554 43.9564 16.0583 42.9614 15.8485L28.2413 12.7427L29.1613 11.8112C29.8474 11.1132 30.0809 10.0878 29.7647 9.16158C29.4827 8.27329 28.7233 7.62049 27.8028 7.47494L22.7842 6.71674C22.4789 6.66446 22.2199 6.46312 22.0942 6.18011L19.8317 1.41909C19.4414 0.555147 18.5815 0 17.6337 0C16.6858 0 15.8258 0.555147 15.4356 1.41891L13.1732 6.18379C13.0474 6.4668 12.7885 6.66823 12.4832 6.72043L7.46458 7.47862C6.54404 7.62417 5.78468 8.27707 5.50266 9.16527C5.1865 10.0915 5.42 11.1169 6.10605 11.8149L6.82516 12.5439L5.58927 18.3998H3.83362C1.71761 18.4023 0.00284962 20.1171 0.000244141 22.2332V42.1666C0.00275978 44.2827 1.71752 45.9975 3.83362 46ZM36.0338 44.4666H3.83362C2.56341 44.4666 1.53361 43.4368 1.53361 42.1666V40.6333H26.7716L37.2543 42.8474C37.5164 42.9033 37.7836 42.9316 38.0517 42.9317C38.1007 42.9317 38.1482 42.921 38.1966 42.9194C37.8783 43.843 37.0104 44.4638 36.0338 44.4666ZM37.5724 41.3479L6.07002 34.6931C5.47292 34.5682 4.95012 34.2109 4.61679 33.7001C4.28356 33.1891 4.16721 32.5667 4.29362 31.9699L4.60952 30.4704L40.6154 38.0773L40.2987 39.5792C40.0332 40.8197 38.8134 41.611 37.5724 41.3479ZM6.95777 9.6445C7.05813 9.30381 7.34428 9.05045 7.69458 8.99205L12.7132 8.23385C13.5218 8.10654 14.2137 7.58437 14.5578 6.84154L16.8202 2.07594C16.9568 1.74729 17.2778 1.5331 17.6337 1.5331C17.9895 1.5331 18.3105 1.74729 18.4471 2.07594L20.7096 6.84154C21.0537 7.58428 21.7456 8.10654 22.5542 8.23385L27.5728 8.99205C27.9231 9.05045 28.2092 9.30381 28.3096 9.6445C28.4411 10.0237 28.348 10.4447 28.0689 10.7331L24.4655 14.3817C23.8872 14.9766 23.6276 15.8118 23.7671 16.6296L24.6204 21.807C24.6942 22.2001 24.5355 22.6006 24.2125 22.8366C23.9491 23.0311 23.5958 23.0524 23.3109 22.891L18.776 20.4124C18.0644 20.0224 17.203 20.0224 16.4914 20.4124L11.9604 22.891C11.6754 23.052 11.3224 23.0307 11.0588 22.8366C10.7358 22.6006 10.5771 22.2 10.6509 21.807L11.5004 16.6304C11.6389 15.8118 11.3779 14.9761 10.7981 14.3818L7.19855 10.7332C6.91941 10.4447 6.82624 10.0238 6.95777 9.6445ZM9.70709 15.4589C9.94239 15.703 10.047 16.0449 9.98848 16.3789L9.13514 21.5563C8.96264 22.5282 9.36452 23.5127 10.1678 24.0863C10.9094 24.62 11.8917 24.6796 12.6924 24.2397L17.2265 21.761C17.48 21.6213 17.7873 21.6213 18.0407 21.761L22.5747 24.2397C23.3753 24.6801 24.358 24.6203 25.0994 24.0863C25.9028 23.5127 26.3046 22.5282 26.132 21.5563L25.2787 16.3782C25.2201 16.0442 25.3246 15.7023 25.5601 15.4582L26.9616 14.0376L42.6468 17.3481C43.2432 17.474 43.7649 17.8323 44.0967 18.3437C44.4285 18.8551 44.5429 19.4776 44.4148 20.0736L40.9311 36.5746L4.92613 28.9677L8.11703 13.8482L9.70709 15.4589ZM3.83362 19.9333H5.26574L3.26778 29.3978V29.4017L2.79395 31.6465C2.58165 32.6415 2.77409 33.6801 3.3287 34.5331C3.88331 35.3861 4.75461 35.9833 5.75018 36.1929L19.5134 39.1001H1.53361V22.2333C1.53361 20.963 2.56332 19.9333 3.83362 19.9333Z" fill="black"/>
<path d="M33.8303 25.6708L38.3338 26.6223C38.9309 26.7487 39.5537 26.6327 40.0652 26.2997C40.5767 25.9666 40.9348 25.4439 41.0608 24.8467L41.6941 21.8467C41.8203 21.2498 41.7042 20.6273 41.3714 20.116C41.0385 19.6047 40.5161 19.2466 39.9192 19.1205L35.4189 18.1699C34.8219 18.0436 34.1991 18.1598 33.6878 18.4929C33.1765 18.8259 32.8185 19.3484 32.6926 19.9455L32.0593 22.9454C31.7969 24.1879 32.591 25.408 33.8334 25.6709H33.8303V25.6708ZM33.5567 23.262L34.19 20.262C34.2646 19.9074 34.5774 19.6535 34.9398 19.6533C34.9932 19.6536 35.0463 19.6592 35.0985 19.6702L39.5988 20.6208C39.7979 20.6628 39.9722 20.7822 40.0833 20.9528C40.1943 21.1233 40.233 21.331 40.1907 21.5301L39.5606 24.5332C39.5186 24.7322 39.3992 24.9065 39.2286 25.0176C39.0581 25.1286 38.8504 25.1673 38.6513 25.125L34.1509 24.1736C33.7369 24.0858 33.4723 23.6792 33.5598 23.2651L33.5567 23.262Z" fill="black"/>
<path d="M25.5373 27.8376L39.0391 30.6896C39.4535 30.7773 39.8604 30.5125 39.948 30.0982C40.0356 29.6839 39.7708 29.2769 39.3565 29.1893L25.8547 26.3373C25.4404 26.2496 25.0334 26.5145 24.9459 26.9288C24.8582 27.3431 25.1229 27.75 25.5373 27.8376Z" fill="black"/>
<path d="M38.7224 32.1899L31.9704 30.7631C31.556 30.6754 31.1491 30.9403 31.0615 31.3546C30.9739 31.7689 31.2387 32.1758 31.653 32.2634L38.4043 33.6902C38.4568 33.7008 38.5102 33.7062 38.5638 33.7063C38.9557 33.7053 39.2837 33.4088 39.3243 33.0191C39.3649 32.6293 39.105 32.2716 38.7217 32.1898H38.7224V32.1899Z" fill="black"/>
</g>
<defs>
<clipPath id="clip0_872_600">
<rect width="46" height="46" fill="white"/>
</clipPath>
</defs>
</svg>
