<svg width="46" height="46" viewBox="0 0 46 46" fill="none" xmlns="http://www.w3.org/2000/svg">
<path d="M26.0666 0H10.7334C8.6196 0 6.89999 1.71961 6.89999 3.83336V31.4334C6.89999 33.547 8.6196 35.2667 10.7334 35.2667H24.5334V33.7334H10.7334C9.4653 33.7334 8.43336 32.7014 8.43336 31.4334V3.83336C8.43336 2.56531 9.4653 1.53336 10.7334 1.53336H26.0667C27.3348 1.53336 28.3667 2.56531 28.3667 3.83336V26.0667H29.9V3.83336C29.9 1.71961 28.1804 0 26.0666 0Z" fill="black"/>
<path d="M37.2531 20.4208L29.7321 11.0215L28.5337 11.9798L36.0547 21.3784C37.0307 22.5974 37.5674 24.1292 37.5666 25.6909V44.4665H26.3504C22.3898 44.4665 19.1667 41.2442 19.1667 37.2829V34.4999H17.6334V37.2829C17.6334 42.0891 21.5442 45.9999 26.3504 45.9999H38.3334C38.7573 45.9999 39.1 45.6572 39.1 45.2333V25.6917C39.1008 23.7842 38.4453 21.912 37.2531 20.4208Z" fill="black"/>
<path d="M19.9303 18.0803C20.4685 18.0957 20.9692 18.3195 21.3379 18.7105L31.6412 29.6585L32.7582 28.6074L22.4534 17.6586C21.8025 16.9693 20.9216 16.5746 19.974 16.5477C19.0164 16.5155 18.1248 16.8643 17.444 17.5076C17.4355 17.516 17.3742 17.5743 17.3665 17.5827C16.0563 18.8968 15.9681 20.9591 17.1634 22.3836L23.7667 30.1806V32.5526C23.7659 36.7892 26.4301 40.6326 30.3976 42.1183L30.9358 40.6823C27.564 39.4197 25.2993 36.1529 25.3 32.5526V29.9C25.3 29.7191 25.2356 29.5427 25.1183 29.404L18.3357 21.3946C17.6572 20.5865 17.707 19.4127 18.489 18.63C18.8799 18.2605 19.3905 18.0772 19.9303 18.0803Z" fill="black"/>
<path d="M25.3 1.53345H23.7666V20.7001H25.3V1.53345Z" fill="black"/>
<path d="M21.4667 25.3H19.9333V34.5H21.4667V25.3Z" fill="black"/>
<path d="M21.4667 0.766602H19.9333V17.6332H21.4667V0.766602Z" fill="black"/>
<path d="M12.2667 3.83325H10.7334V13.7999H12.2667V3.83325Z" fill="black"/>
<path d="M16.1 3.83325H14.5667V9.96662H16.1V3.83325Z" fill="black"/>
<path d="M16.1 25.3H11.5C11.0768 25.3 10.7334 25.6427 10.7334 26.0667V30.6667C10.7334 31.0907 11.0768 31.4333 11.5 31.4333H16.1C16.5232 31.4333 16.8666 31.0907 16.8666 30.6667V26.0667C16.8666 25.6427 16.5232 25.3 16.1 25.3ZM15.3334 29.9H12.2667V26.8334H15.3334V29.9Z" fill="black"/>
</svg>
