<svg width="35" height="46" viewBox="0 0 35 46" fill="none" xmlns="http://www.w3.org/2000/svg">
<path fill-rule="evenodd" clip-rule="evenodd" d="M21.2109 31.5207C21.4483 31.7896 21.4483 32.2255 21.2109 32.4944L14.6489 39.926C14.4115 40.1948 14.0266 40.1948 13.7892 39.926C13.5518 39.6571 13.5518 39.2212 13.7892 38.9523L20.3512 31.5207C20.5886 31.2519 20.9735 31.2519 21.2109 31.5207Z" fill="black"/>
<path fill-rule="evenodd" clip-rule="evenodd" d="M14.0972 31.8061C13.559 31.8061 13.1226 32.2453 13.1226 32.7871C13.1226 33.329 13.559 33.7682 14.0972 33.7682C14.6354 33.7682 15.0717 33.329 15.0717 32.7871C15.0717 32.2453 14.6354 31.8061 14.0972 31.8061ZM11.6666 32.7871C11.6666 31.4358 12.7548 30.3403 14.0972 30.3403C15.4395 30.3403 16.5277 31.4358 16.5277 32.7871C16.5277 34.1385 15.4395 35.2339 14.0972 35.2339C12.7548 35.2339 11.6666 34.1385 11.6666 32.7871Z" fill="black"/>
<path fill-rule="evenodd" clip-rule="evenodd" d="M20.9027 37.6784C20.3645 37.6784 19.9282 38.1176 19.9282 38.6595C19.9282 39.2013 20.3645 39.6405 20.9027 39.6405C21.4409 39.6405 21.8773 39.2013 21.8773 38.6595C21.8773 38.1176 21.4409 37.6784 20.9027 37.6784ZM18.4722 38.6595C18.4722 37.3081 19.5604 36.2126 20.9027 36.2126C22.2451 36.2126 23.3333 37.3081 23.3333 38.6595C23.3333 40.0108 22.2451 41.1063 20.9027 41.1063C19.5604 41.1063 18.4722 40.0108 18.4722 38.6595Z" fill="black"/>
<path fill-rule="evenodd" clip-rule="evenodd" d="M27.3978 0.566194C26.831 -0.188805 25.6692 -0.18864 25.1024 0.566141L27.3978 0.566194ZM27.3978 0.566228L34.7259 10.3266C34.7259 10.3266 34.7259 10.3266 34.7259 10.3266C35.4084 11.2355 34.7382 12.5106 33.5781 12.5106H30.3955C30.3941 12.5106 30.3936 12.5107 30.3935 12.5107L30.3934 12.5108C30.3932 12.5109 30.3923 12.5113 30.3913 12.5123C30.3902 12.5133 30.3898 12.5141 30.3897 12.5143L30.3897 12.5145C30.3897 12.5145 30.3895 12.5151 30.3895 12.5164V24.0718C30.3895 24.8311 29.7541 25.4468 28.9704 25.4468H23.5297C22.746 25.4468 22.1105 24.8313 22.1105 24.0718V12.5164C22.1105 12.5152 22.1104 12.5146 22.1104 12.5146L22.1103 12.5145C22.1102 12.5143 22.1098 12.5134 22.1087 12.5124C22.1077 12.5114 22.1068 12.5109 22.1066 12.5109L22.1065 12.5108C22.1064 12.5108 22.1059 12.5107 22.1046 12.5107H18.9218C17.7616 12.5107 17.0918 11.2355 17.7741 10.3267L17.7741 10.3266L25.1023 0.566191L25.1024 0.566141M26.2452 1.37181C26.2452 1.37179 26.2452 1.37178 26.2453 1.37176C26.246 1.37077 26.2466 1.37012 26.2469 1.36973C26.2475 1.36958 26.2486 1.36938 26.2501 1.36938C26.2516 1.36938 26.2526 1.36957 26.2532 1.36971C26.2536 1.37011 26.2541 1.37075 26.2548 1.37172L26.2549 1.37176L33.583 11.1322L33.583 11.1322C33.5838 11.1333 33.5844 11.1341 33.5849 11.1348C33.5846 11.1358 33.5842 11.1369 33.5835 11.1381C33.5829 11.1393 33.5822 11.1403 33.5816 11.1411C33.5816 11.1411 33.5815 11.1411 33.5815 11.1411C33.5806 11.1412 33.5795 11.1412 33.5781 11.1412H30.3955C29.6116 11.1412 28.9762 11.7569 28.9762 12.5164V24.0718C28.9762 24.0723 28.9762 24.0726 28.9762 24.0729C28.9761 24.0734 28.9761 24.0736 28.9761 24.0736L28.976 24.0737C28.976 24.0739 28.9755 24.0747 28.9745 24.0758C28.9734 24.0768 28.9726 24.0772 28.9724 24.0773L28.9723 24.0773C28.9722 24.0773 28.9717 24.0774 28.9704 24.0774H23.5297C23.5283 24.0774 23.5278 24.0773 23.5277 24.0773L23.5276 24.0773C23.5274 24.0772 23.5266 24.0768 23.5255 24.0758C23.5249 24.0752 23.5245 24.0746 23.5243 24.0743C23.5241 24.074 23.524 24.0738 23.524 24.0738L23.524 24.0736C23.524 24.0736 23.5238 24.0731 23.5238 24.0718V12.5164C23.5238 11.7569 22.8883 11.1413 22.1046 11.1413H18.9218C18.9204 11.1413 18.9193 11.1413 18.9184 11.1412C18.9178 11.1404 18.9172 11.1394 18.9165 11.1382C18.9159 11.137 18.9154 11.1358 18.9151 11.1349C18.9156 11.1342 18.9162 11.1333 18.917 11.1322C18.917 11.1322 18.917 11.1322 18.917 11.1321L26.2452 1.37181Z" fill="black"/>
<path fill-rule="evenodd" clip-rule="evenodd" d="M9.89773 0.566194C9.89774 0.566205 9.89775 0.566217 9.89776 0.566228L17.2259 10.3266L17.226 10.3267C17.9082 11.2355 17.2384 12.5107 16.0782 12.5107H12.8954C12.8941 12.5107 12.8935 12.5108 12.8935 12.5108L12.8934 12.5109C12.8932 12.5109 12.8923 12.5113 12.8913 12.5124C12.8903 12.5134 12.8898 12.5142 12.8898 12.5143L12.8897 12.5145C12.8897 12.5145 12.8896 12.5151 12.8896 12.5164V24.0718C12.8896 24.8312 12.2542 25.4468 11.4704 25.4468H10.3989C10.0086 25.4468 9.69223 25.1403 9.69223 24.7621C9.69223 24.384 10.0086 24.0774 10.3989 24.0774H11.4704C11.4717 24.0774 11.4723 24.0773 11.4723 24.0773L11.4724 24.0773C11.4725 24.0772 11.4727 24.0772 11.4729 24.077C11.4733 24.0768 11.4739 24.0764 11.4745 24.0758C11.4756 24.0747 11.476 24.0739 11.4761 24.0737L11.4761 24.0736C11.4761 24.0736 11.4763 24.073 11.4763 24.0718V12.5164C11.4763 11.7568 12.1117 11.1413 12.8954 11.1413H16.0782C16.0796 11.1413 16.0807 11.1413 16.0816 11.1412C16.0819 11.1408 16.0822 11.1403 16.0826 11.1398C16.0829 11.1393 16.0832 11.1388 16.0835 11.1382C16.0841 11.137 16.0846 11.1358 16.0849 11.1349C16.0844 11.1342 16.0838 11.1333 16.083 11.1322C16.083 11.1322 16.083 11.1322 16.083 11.1321L8.75481 1.37176L8.75478 1.37172C8.75405 1.37075 8.75349 1.37011 8.75312 1.36971C8.75254 1.36957 8.75151 1.36938 8.75004 1.36938C8.74852 1.36938 8.74745 1.36958 8.74688 1.36973C8.7465 1.37013 8.74592 1.37079 8.74515 1.37181L1.41702 11.1321C1.41701 11.1322 1.417 11.1322 1.41699 11.1322C1.41618 11.1333 1.41556 11.1342 1.4151 11.1349C1.41541 11.1358 1.41586 11.137 1.41651 11.1382C1.41715 11.1394 1.41782 11.1404 1.41842 11.1412C1.41929 11.1413 1.42041 11.1413 1.4218 11.1413H4.60456C5.3882 11.1413 6.02384 11.7569 6.02384 12.5164V24.0717C6.02384 24.073 6.02397 24.0735 6.02397 24.0736L6.02401 24.0737C6.02405 24.0738 6.02414 24.074 6.02433 24.0742C6.02457 24.0746 6.02496 24.0751 6.02554 24.0757C6.02658 24.0767 6.02743 24.0771 6.02762 24.0772L6.02775 24.0772C6.02779 24.0772 6.02835 24.0773 6.02968 24.0773H7.1011C7.49138 24.0773 7.80777 24.3839 7.80777 24.762C7.80777 25.1402 7.49138 25.4467 7.1011 25.4467H6.02968C5.24598 25.4467 4.6105 24.8312 4.6105 24.0717V12.5164C4.6105 12.5151 4.61038 12.5146 4.61037 12.5146L4.61034 12.5145C4.6103 12.5144 4.61016 12.5141 4.60989 12.5137C4.60964 12.5133 4.60928 12.5129 4.60877 12.5124C4.6077 12.5114 4.60683 12.5109 4.60662 12.5109L4.60647 12.5108C4.60644 12.5108 4.60588 12.5107 4.60456 12.5107H1.4218C0.261616 12.5107 -0.408219 11.2355 0.274036 10.3267L0.274066 10.3266L7.60227 0.566194L7.60231 0.566141C8.16912 -0.18864 9.33091 -0.188805 9.89773 0.566194Z" fill="black"/>
<path fill-rule="evenodd" clip-rule="evenodd" d="M6.80557 35.7233C6.80557 30.0563 11.6316 25.4468 17.5649 25.4468C22.9122 25.4468 27.3575 29.1898 28.1855 34.076C28.2465 34.4362 27.9902 34.7755 27.6131 34.8338C27.2359 34.8921 26.8807 34.6474 26.8196 34.2871C26.0982 30.0297 22.2215 26.7683 17.5649 26.7683C12.3958 26.7683 8.18919 30.7861 8.18919 35.7233C8.18919 40.6606 12.3958 44.6784 17.5649 44.6784C22.2216 44.6784 26.0982 41.417 26.8196 37.1595C26.8807 36.7993 27.2359 36.5545 27.6131 36.6128C27.9902 36.6711 28.2465 37.0104 28.1855 37.3707C27.3575 42.2569 22.9123 46 17.5649 46C11.6316 46 6.80557 41.3904 6.80557 35.7233Z" fill="black"/>
</svg>
