<svg width="79" height="16" viewBox="0 0 79 16" fill="none" xmlns="http://www.w3.org/2000/svg">
<path d="M7 12.0391L11.326 14.6501L10.178 9.7291L14 6.4181L8.967 5.9911L7 1.3501L5.033 5.9911L0 6.4181L3.822 9.7291L2.674 14.6501L7 12.0391Z" fill="#00B3F0" stroke="#00B3F0" stroke-width="0.777778"/>
<path d="M23 12.0391L27.326 14.6501L26.178 9.7291L30 6.4181L24.967 5.9911L23 1.3501L21.033 5.9911L16 6.4181L19.822 9.7291L18.674 14.6501L23 12.0391Z" fill="#00B3F0" stroke="#00B3F0" stroke-width="0.777778"/>
<path d="M39 12.0391L43.326 14.6501L42.178 9.7291L46 6.4181L40.967 5.9911L39 1.3501L37.033 5.9911L32 6.4181L35.822 9.7291L34.674 14.6501L39 12.0391Z" fill="#00B3F0" stroke="#00B3F0" stroke-width="0.777778"/>
<path d="M55 12.0391L59.326 14.6501L58.178 9.7291L62 6.4181L56.967 5.9911L55 1.3501L53.033 5.9911L48 6.4181L51.822 9.7291L50.674 14.6501L55 12.0391Z" fill="#00B3F0" stroke="#00B3F0" stroke-width="0.777778"/>
<path d="M71 12.0391L75.326 14.6501L74.178 9.7291L78 6.4181L72.967 5.9911L71 1.3501L69.033 5.9911L64 6.4181L67.822 9.7291L66.674 14.6501L71 12.0391Z" fill="url(#paint0_linear_4751_139)" stroke="#00B3F0" stroke-width="0.777778"/>
<defs>
<linearGradient id="paint0_linear_4751_139" x1="64" y1="1.3501" x2="78" y2="1.3501" gradientUnits="userSpaceOnUse">
<stop offset="0.51" stop-color="white"/>
</linearGradient>
</defs>
</svg>
