<svg width="79" height="14" viewBox="0 0 79 14" fill="none" xmlns="http://www.w3.org/2000/svg">
<path d="M7.5 10.689L11.826 13.3L10.678 8.379L14.5 5.068L9.467 4.641L7.5 0L5.533 4.641L0.5 5.068L4.322 8.379L3.174 13.3L7.5 10.689Z" fill="#00B0EE"/>
<path d="M23.5 10.689L27.826 13.3L26.678 8.379L30.5 5.068L25.467 4.641L23.5 0L21.533 4.641L16.5 5.068L20.322 8.379L19.174 13.3L23.5 10.689Z" fill="#00B0EE"/>
<path d="M39.5 10.689L43.826 13.3L42.678 8.379L46.5 5.068L41.467 4.641L39.5 0L37.533 4.641L32.5 5.068L36.322 8.379L35.174 13.3L39.5 10.689Z" fill="#00B0EE"/>
<path d="M55.5 10.689L59.826 13.3L58.678 8.379L62.5 5.068L57.467 4.641L55.5 0L53.533 4.641L48.5 5.068L52.322 8.379L51.174 13.3L55.5 10.689Z" fill="#00B0EE"/>
<path d="M71.5 10.689L75.826 13.3L74.678 8.379L78.5 5.068L73.467 4.641L71.5 0L69.533 4.641L64.5 5.068L68.322 8.379L67.174 13.3L71.5 10.689Z" fill="#00B0EE"/>
</svg>
