<svg width="24" height="24" viewBox="0 0 24 24" fill="none" xmlns="http://www.w3.org/2000/svg">
<path d="M21.2127 22.0534L19.6476 15.2713C19.4731 14.5733 18.8485 14.0859 18.1291 14.0859H15.0881C14.6579 13.3796 14.097 12.7602 13.4338 12.262V7.82546C13.4338 6.6459 12.1705 5.92454 11.1687 6.4254L8.03845 7.99051C7.50478 8.25722 7.17858 8.79371 7.17858 9.39057V11.3924C7.16888 11.3957 7.15903 11.3968 7.14942 11.4005C4.62881 12.385 3 14.7702 3 17.477C3 21.0729 5.92542 23.9984 9.52134 23.9984C13.1415 23.9984 16.182 21.0007 16.0311 17.2162H16.9072L18.1758 22.813C18.3848 23.6475 19.2249 24.1653 20.0742 23.9517C20.9109 23.7426 21.4216 22.891 21.2127 22.0534ZM9.52125 22.4333C6.78839 22.4333 4.56506 20.2099 4.56506 17.4771C4.56506 15.6223 5.57677 13.9742 7.17853 13.1178V15.1294C7.17853 15.9924 7.87537 16.6945 8.73844 16.6945C9.6015 16.6945 10.3035 15.9924 10.3035 15.1294V12.5678C10.3423 12.5815 10.3813 12.5947 10.423 12.6024C12.7722 13.0339 14.4775 15.0841 14.4775 17.4771C14.4774 20.2099 12.2541 22.4333 9.52125 22.4333Z" fill="white"/>
<path d="M12.1298 0C10.8352 0 9.7821 1.05309 9.7821 2.34769C9.7821 3.64228 10.8352 4.69537 12.1298 4.69537C13.4244 4.69537 14.4775 3.64228 14.4775 2.34769C14.4775 1.05309 13.4243 0 12.1298 0Z" fill="white"/>
</svg>
