<svg width="24" height="24" viewBox="0 0 24 24" fill="none" xmlns="http://www.w3.org/2000/svg">
<g id="Component 4">
<path id="Vector" d="M18.1563 3.33625C16.2648 1.8228 13.9141 0.998804 11.4916 1C8.63599 1 5.9688 2.10016 3.97474 4.09797C2.04771 6.0311 0.991613 8.58344 1.00005 11.283C1.00012 13.2622 1.58117 15.1978 2.67114 16.8498L2.68005 16.8625C2.69318 16.8817 2.70677 16.9009 2.72036 16.9197C2.73396 16.9384 2.75083 16.9628 2.75458 16.9689L2.76489 16.9877C2.81786 17.0814 2.85864 17.1958 2.82255 17.3111L1.95911 20.4358C1.92457 20.552 1.90565 20.6723 1.90286 20.7934C1.90224 21.1123 2.02806 21.4183 2.25275 21.6445C2.47744 21.8707 2.78265 21.9985 3.10146 22C3.26992 21.9944 3.43594 21.9581 3.5913 21.8927L6.75489 20.7508L6.79474 20.7353C6.8808 20.6992 6.97328 20.6808 7.06661 20.6814C7.15267 20.6816 7.23797 20.6975 7.31833 20.7283C7.39427 20.7578 8.0838 21.0217 8.8113 21.2252C9.41599 21.3939 10.6741 21.647 11.6599 21.647C14.456 21.647 17.0669 20.5642 19.0113 18.5973C20.9388 16.6455 22 14.0509 22 11.2886C22.0003 10.5795 21.9252 9.87242 21.776 9.17922C21.2913 6.90016 20.006 4.82453 18.1563 3.33625ZM7.00005 13C6.70338 13 6.41337 12.912 6.16669 12.7472C5.92002 12.5824 5.72776 12.3481 5.61423 12.074C5.5007 11.7999 5.47099 11.4983 5.52887 11.2074C5.58675 10.9164 5.72961 10.6491 5.93939 10.4393C6.14917 10.2296 6.41644 10.0867 6.70741 10.0288C6.99839 9.97095 7.29999 10.0007 7.57407 10.1142C7.84816 10.2277 8.08243 10.42 8.24725 10.6666C8.41208 10.9133 8.50005 11.2033 8.50005 11.5C8.50005 11.8978 8.34201 12.2794 8.06071 12.5607C7.77941 12.842 7.39787 13 7.00005 13ZM11.5 13C11.2034 13 10.9134 12.912 10.6667 12.7472C10.42 12.5824 10.2278 12.3481 10.1142 12.074C10.0007 11.7999 9.97099 11.4983 10.0289 11.2074C10.0868 10.9164 10.2296 10.6491 10.4394 10.4393C10.6492 10.2296 10.9164 10.0867 11.2074 10.0288C11.4984 9.97095 11.8 10.0007 12.0741 10.1142C12.3482 10.2277 12.5824 10.42 12.7473 10.6666C12.9121 10.9133 13 11.2033 13 11.5C13 11.8978 12.842 12.2794 12.5607 12.5607C12.2794 12.842 11.8979 13 11.5 13ZM16 13C15.7034 13 15.4134 12.912 15.1667 12.7472C14.92 12.5824 14.7278 12.3481 14.6142 12.074C14.5007 11.7999 14.471 11.4983 14.5289 11.2074C14.5868 10.9164 14.7296 10.6491 14.9394 10.4393C15.1492 10.2296 15.4164 10.0867 15.7074 10.0288C15.9984 9.97095 16.3 10.0007 16.5741 10.1142C16.8482 10.2277 17.0824 10.42 17.2473 10.6666C17.4121 10.9133 17.5 11.2033 17.5 11.5C17.5 11.8978 17.342 12.2794 17.0607 12.5607C16.7794 12.842 16.3979 13 16 13Z" fill="white"/>
</g>
</svg>
