<svg width="28" height="28" viewBox="0 0 28 28" fill="none" xmlns="http://www.w3.org/2000/svg">
<g id="Group">
<path id="Vector" d="M24.7299 7.71444C24.7299 8.8932 25.1982 10.0237 26.0317 10.8571C27.7673 12.5928 27.7673 15.4069 26.0317 17.1425C25.1982 17.976 24.7299 19.1065 24.7299 20.2852C24.7299 22.7398 22.74 24.7297 20.2855 24.7297C19.1067 24.7297 17.9763 25.1979 17.1428 26.0314C15.4071 27.7671 12.5931 27.7671 10.8574 26.0314C10.0239 25.1979 8.89339 24.7297 7.71469 24.7297C5.26007 24.7297 3.27024 22.7398 3.27024 20.2852C3.27024 19.1065 2.80197 17.976 1.9685 17.1425C0.232832 15.4069 0.232832 12.5928 1.9685 10.8571C2.80197 10.0237 3.27024 8.89315 3.27024 7.71444C3.27024 5.25983 5.26013 3.27 7.71469 3.27C8.89345 3.27 10.0239 2.80173 10.8574 1.96825C12.5931 0.232588 15.4071 0.232588 17.1428 1.96825C17.9763 2.80173 19.1068 3.27 20.2855 3.27C22.7401 3.26994 24.7299 5.25983 24.7299 7.71444Z" stroke="#00B0EE" stroke-width="1.2" stroke-miterlimit="10"/>
<path id="Vector_2" d="M13.9998 21.5241C18.1553 21.5241 21.5241 18.1553 21.5241 13.9998C21.5241 9.8443 18.1553 6.47559 13.9998 6.47559C9.8443 6.47559 6.47559 9.8443 6.47559 13.9998C6.47559 18.1553 9.8443 21.5241 13.9998 21.5241Z" stroke="#00B0EE" stroke-width="1.2" stroke-miterlimit="10"/>
<path id="Vector_3" d="M17.8144 11.5059L12.8265 16.4938L10.1858 13.8531" stroke="#00B0EE" stroke-width="1.2" stroke-miterlimit="10" stroke-linecap="round"/>
</g>
</svg>
