<svg width="24" height="24" viewBox="0 0 24 24" fill="none" xmlns="http://www.w3.org/2000/svg">
<g id="Group">
<path id="Vector" d="M8.5689 10.9649C9.12296 10.9649 9.57212 10.5158 9.57212 9.96172C9.57212 9.40765 9.12296 8.9585 8.5689 8.9585C8.01483 8.9585 7.56567 9.40765 7.56567 9.96172C7.56567 10.5158 8.01483 10.9649 8.5689 10.9649Z" fill="white"/>
<path id="Vector_2" d="M14.9423 15.0367C15.4964 15.0367 15.9455 14.5876 15.9455 14.0335C15.9455 13.4794 15.4964 13.0303 14.9423 13.0303C14.3882 13.0303 13.9391 13.4794 13.9391 14.0335C13.9391 14.5876 14.3882 15.0367 14.9423 15.0367Z" fill="white"/>
<path id="Vector_3" d="M23.214 13.3253L22.8501 12.8286C22.4566 12.2877 22.4468 11.5549 22.8353 11.0041L23.1894 10.5025C23.7303 9.73536 23.4795 8.66821 22.6484 8.22069L22.1075 7.93054C21.5173 7.61581 21.1928 6.95683 21.3059 6.29293L21.4092 5.68805C21.5665 4.76351 20.8731 3.90782 19.9338 3.86847L19.3191 3.84388C18.6503 3.81438 18.07 3.36194 17.8831 2.71772L17.711 2.12759C17.4504 1.22272 16.457 0.755531 15.5914 1.12928L15.0259 1.37025C14.4112 1.63581 13.6932 1.47844 13.2457 0.97683L12.8375 0.519479C12.2129 -0.178843 11.1163 -0.173926 10.4966 0.53915L10.0934 1.00142C9.65079 1.50795 8.93771 1.67515 8.31808 1.41943L7.74761 1.18338C6.87717 0.82438 5.89362 1.31124 5.64281 2.21611L5.48053 2.81116C5.30349 3.4603 4.73303 3.92257 4.06421 3.95699L3.44949 3.99142C2.5102 4.04551 1.83155 4.91104 2.00367 5.83558L2.11678 6.44046C2.23972 7.09944 1.92499 7.76334 1.33977 8.08791L0.803737 8.3879C-0.0175293 8.84525 -0.253582 9.91732 0.302125 10.6747L0.666039 11.1713C1.05946 11.7123 1.0693 12.445 0.680793 12.9958L0.326714 13.4974C-0.21424 14.2646 0.0365661 15.3318 0.867668 15.7793L1.40862 16.0694C1.99875 16.3842 2.32332 17.0432 2.21022 17.7071L2.10694 18.3119C1.94957 19.2365 2.64298 20.0922 3.58227 20.1315L4.19699 20.1561C4.86581 20.1856 5.4461 20.638 5.63298 21.2823L5.8051 21.8724C6.06574 22.7773 7.05913 23.2445 7.92465 22.8707L8.4902 22.6297C9.10492 22.3642 9.82291 22.5215 10.2704 23.0232L10.6786 23.4805C11.3081 24.1788 12.4047 24.1739 13.0195 23.4608L13.4227 22.9986C13.8653 22.492 14.5784 22.3248 15.198 22.5806L15.7685 22.8166C16.6389 23.1756 17.6225 22.6887 17.8733 21.7839L18.0356 21.1888C18.2126 20.5397 18.7831 20.0774 19.4519 20.043L20.0666 20.0086C21.0059 19.9545 21.6845 19.0889 21.5124 18.1644L21.3993 17.5595C21.2764 16.9005 21.5911 16.2366 22.1763 15.9121L22.7124 15.6121C23.5336 15.1597 23.7697 14.0876 23.214 13.3253ZM6.14442 9.96158C6.14442 8.62395 7.22633 7.54204 8.56396 7.54204C9.90159 7.54204 10.9835 8.62395 10.9835 9.96158C10.9835 11.2992 9.90159 12.3811 8.56396 12.3811C7.22633 12.3811 6.14442 11.2943 6.14442 9.96158ZM9.03115 16.2022C8.8246 16.453 8.45085 16.4874 8.20005 16.2809C7.94924 16.0744 7.91482 15.7006 8.12136 15.4498L14.4702 7.80268C14.6767 7.55188 15.0505 7.51745 15.3013 7.724C15.5521 7.93054 15.5865 8.30429 15.38 8.5551L9.03115 16.2022ZM14.9423 16.453C13.6047 16.453 12.5228 15.3711 12.5228 14.0335C12.5228 12.6959 13.6047 11.6139 14.9423 11.6139C16.2799 11.6139 17.3618 12.6959 17.3618 14.0335C17.3618 15.3711 16.2799 16.453 14.9423 16.453Z" fill="white"/>
</g>
</svg>
