<svg width="146" height="25" viewBox="0 0 146 25" fill="none" xmlns="http://www.w3.org/2000/svg">
<g clip-path="url(#clip0)">
<path d="M13.3424 2.73145L6.41992 4.78352L13.3424 6.84603V2.73145Z" fill="#EEF1F3"/>
<path d="M14.6914 21.2422C13.6666 21.2422 12.8301 22.0755 12.8301 23.0964C12.8301 24.1172 13.6666 24.9505 14.6914 24.9505C15.7162 24.9505 16.5528 24.1172 16.5528 23.0964C16.5528 22.0755 15.7266 21.2422 14.6914 21.2422Z" fill="#EEF1F3"/>
<path d="M25.8701 18.1377C24.8454 18.1377 24.0088 18.971 24.0088 19.9919C24.0088 21.0127 24.8454 21.846 25.8701 21.846C26.8949 21.846 27.7315 21.0127 27.7315 19.9919C27.7315 18.971 26.9054 18.1377 25.8701 18.1377Z" fill="#EEF1F3"/>
<path d="M3.52345 18.1377C2.49867 18.1377 1.66211 18.971 1.66211 19.9919C1.66211 21.0127 2.49867 21.846 3.52345 21.846C4.54823 21.846 5.38478 21.0127 5.38478 19.9919C5.37433 18.971 4.54823 18.1377 3.52345 18.1377Z" fill="#EEF1F3"/>
<path d="M1.66307 14.0343C1.66307 14.8885 2.22775 15.6489 3.05385 15.8989L14.1382 19.2219C14.5042 19.326 14.8911 19.326 15.2676 19.2219L26.3519 15.8989C27.178 15.6489 27.7427 14.8989 27.7427 14.0343V4.77394L14.7029 8.64894L3.26299 5.24269L1.66307 4.77394L14.7029 0.919774V7.07601L25.1494 3.98226L26.7389 3.51351L14.9852 -0.00732422C14.797 -0.0594076 14.6088 -0.0594076 14.4206 -0.00732422L0.983372 4.01352C0.30367 4.22185 -0.0936928 4.94059 0.115446 5.61768C0.24093 6.03434 0.565094 6.35726 0.983372 6.48226L1.66307 6.6906V14.0343Z" fill="white"/>
<path d="M36.4971 17.7474C36.3716 17.6641 36.3193 17.5182 36.3507 17.3828L36.8526 15.3932C36.884 15.2891 36.9572 15.1953 37.0618 15.1536C37.1036 15.1328 37.1454 15.1328 37.1872 15.1328C37.25 15.1328 37.3127 15.1536 37.365 15.1849C38.0656 15.6224 39.927 16.6224 42.0706 16.6224C44.4235 16.6224 44.5699 15.6016 44.5699 14.7474C44.5699 13.7786 43.932 13.1432 41.5164 12.5286C38.5153 11.7786 36.8003 10.112 36.8003 7.95572C36.8003 5.87239 38.2643 3.4349 42.4053 3.4349C44.8627 3.4349 46.954 4.62239 47.0377 4.67448C47.1736 4.74739 47.2364 4.91406 47.1946 5.05989L46.6926 6.98698C46.6613 7.09114 46.5881 7.18489 46.4835 7.22656C46.4417 7.23698 46.3998 7.24739 46.358 7.24739C46.2848 7.24739 46.2221 7.22656 46.1698 7.1849C45.1659 6.51823 43.681 6.08073 42.4053 6.08073C40.2721 6.08073 40.0002 7.09114 40.0002 7.79948C40.0002 8.14322 39.8224 9.01823 42.6562 9.71614C46.0652 10.5391 47.9475 12.1432 47.9475 14.2266C47.9475 17.3099 45.6156 19.3099 42.0079 19.3099C38.8499 19.2995 36.5912 17.8099 36.4971 17.7474ZM120.111 17.0599C118.814 18.4453 116.911 19.2578 114.893 19.2578C110.857 19.2578 107.699 15.7891 107.699 11.3516C107.699 6.91406 110.857 3.45573 114.893 3.45573C116.932 3.44531 118.877 4.29948 120.236 5.80989L120.299 4.1849C120.31 3.9974 120.456 3.85156 120.644 3.85156H122.84C123.028 3.85156 123.185 4.00781 123.185 4.19531V16.2266C123.185 17.0807 123.572 17.0807 123.802 17.0911C123.896 17.0911 123.99 17.0807 124.085 17.0599C124.137 17.0391 124.2 17.0182 124.262 17.0182C124.325 17.0182 124.388 17.0391 124.44 17.0599C124.545 17.1224 124.618 17.237 124.618 17.362V18.4557C124.597 18.5807 124.524 18.6953 124.43 18.7786C123.97 19.1224 123.844 19.2578 122.892 19.2578C121.387 19.2682 120.425 18.487 120.111 17.0599ZM110.689 11.4141C110.689 14.5911 112.645 16.2161 115.322 16.2161C118.051 16.2161 119.745 14.5911 119.745 11.4141C119.745 8.27864 118.04 6.61198 115.322 6.61198C112.603 6.61198 110.689 8.27864 110.689 11.4141ZM61.3219 17.0599C60.0252 18.4453 58.1221 19.2578 56.1039 19.2578C52.0675 19.2578 48.9095 15.7891 48.9095 11.3516C48.9095 6.91406 52.0675 3.45573 56.1039 3.45573C58.143 3.44531 60.088 4.29948 61.4474 5.80989L61.5101 4.1849C61.5206 3.9974 61.667 3.85156 61.8552 3.85156H64.0512C64.2394 3.85156 64.3962 4.00781 64.3962 4.19531V16.2266C64.3962 17.0807 64.7832 17.0807 65.0132 17.0911C65.1073 17.0911 65.2014 17.0807 65.2956 17.0599C65.3478 17.0391 65.4106 17.0182 65.4733 17.0182C65.5361 17.0182 65.5988 17.0391 65.6511 17.0599C65.7557 17.1224 65.8289 17.237 65.8289 17.362V18.4557C65.8079 18.5807 65.7347 18.6953 65.6406 18.7786C65.1805 19.1224 65.055 19.2578 64.1035 19.2578C62.5977 19.2682 61.6461 18.487 61.3219 17.0599ZM51.9106 11.4141C51.9106 14.5911 53.8661 16.2161 56.5431 16.2161C59.2723 16.2161 60.9664 14.5911 60.9664 11.4141C60.9664 8.27864 59.2619 6.61198 56.5431 6.61198C53.8243 6.61198 51.9106 8.27864 51.9106 11.4141ZM138.264 14.2474V6.26823H136.8C136.612 6.26823 136.455 6.11198 136.455 5.92448V4.20573C136.455 4.01823 136.612 3.86198 136.8 3.86198H138.264V0.78906C138.264 0.622393 138.379 0.486975 138.547 0.455725L141.077 -0.0442734C141.098 -0.0442734 141.119 -0.0546875 141.14 -0.0546875C141.224 -0.0546875 141.297 -0.0234388 141.359 0.0286446C141.443 0.0911446 141.485 0.195309 141.485 0.299475V3.86198H144.768C144.957 3.86198 145.114 4.01823 145.114 4.20573V5.92448C145.114 6.11198 144.957 6.26823 144.768 6.26823H141.485V14.5078C141.485 16.2474 141.945 16.5807 142.803 16.5807C143.545 16.5911 144.266 16.3828 144.883 15.9661C144.936 15.9349 144.998 15.9141 145.072 15.9141C145.113 15.9141 145.155 15.9245 145.197 15.9349C145.302 15.9766 145.375 16.0599 145.406 16.1745L145.741 17.4974C145.772 17.612 145.741 17.737 145.647 17.8203C144.988 18.4766 143.629 19.2474 141.976 19.2474C138.651 19.2682 138.264 16.4036 138.264 14.2474ZM90.0681 19.1641C89.8171 19.1016 89.5766 18.9974 89.3465 18.8724C88.6459 18.4557 88.1545 17.7682 87.9871 16.9766V10.2161C87.9871 6.96614 86.9519 6.32031 85.2683 6.32031C83.3861 6.32031 81.1901 7.96614 81.1901 10.0807V18.5286C81.1901 18.7161 81.0333 18.8724 80.845 18.8724H78.3249C78.1367 18.8724 77.9798 18.7161 77.9798 18.5286V10.2057C77.9798 6.95573 76.9446 6.30989 75.261 6.30989C73.3788 6.30989 71.1828 7.95573 71.1828 10.0703V18.5182C71.1828 18.7057 71.026 18.862 70.8377 18.862H68.3072C68.1189 18.862 67.9621 18.7057 67.9621 18.5182V6.83073C67.9621 5.97656 67.5647 5.93489 67.3451 5.91406C67.251 5.91406 67.1464 5.92448 67.0523 5.94531C67 5.96614 66.9373 5.98698 66.8745 5.98698C66.8118 5.98698 66.7595 5.96614 66.6968 5.94531C66.5922 5.88281 66.5295 5.76823 66.519 5.64323V4.54948C66.5399 4.42448 66.6131 4.30989 66.7072 4.22656C67.1673 3.88281 67.2928 3.7474 68.2444 3.7474C68.5267 3.7474 68.8091 3.77864 69.081 3.84114C70.0744 4.09114 70.6913 4.83073 70.9423 5.96614C72.2808 4.34114 74.0271 3.45573 75.9407 3.45573C78.3145 3.45573 79.8516 4.40365 80.615 6.35156C82.1417 4.45573 83.9926 3.45573 85.9899 3.45573C89.4929 3.45573 91.1974 5.59115 91.1974 9.9974V16.3307C91.2393 17.0391 91.6053 17.0807 91.8039 17.1016C91.898 17.1016 92.0026 17.0911 92.0967 17.0703C92.149 17.0495 92.2118 17.0286 92.2745 17.0286C92.3372 17.0286 92.4 17.0495 92.4523 17.0703C92.5568 17.1328 92.6196 17.2474 92.63 17.3724V18.4661C92.6091 18.5911 92.5359 18.7057 92.4418 18.7891C91.9817 19.1328 91.8562 19.2682 90.9046 19.2682C90.6223 19.2578 90.34 19.2266 90.0681 19.1641ZM93.2784 11.7057C93.0379 7.05989 96.0808 3.64323 100.682 3.40365C102.826 3.28906 104.363 3.65365 105.973 4.65365C106.067 4.71615 106.13 4.82031 106.14 4.92448L106.255 7.20573C106.266 7.34115 106.193 7.46614 106.067 7.52864C106.025 7.54948 105.984 7.55989 105.931 7.55989C105.848 7.55989 105.754 7.53906 105.691 7.47656C104.195 6.23698 102.345 6.22656 101.058 6.28906C98.2141 6.43489 96.5619 8.77864 96.6664 11.5182C96.771 14.2578 98.7578 16.3932 101.602 16.2474C102.888 16.1849 104.708 15.9766 106.067 14.5911C106.13 14.5286 106.214 14.487 106.297 14.487C106.35 14.487 106.391 14.487 106.433 14.5078C106.559 14.5599 106.653 14.6745 106.653 14.8099L106.768 17.0911C106.778 17.2057 106.726 17.3099 106.632 17.3828C105.126 18.5391 103.641 19.0599 101.498 19.1745C101.33 19.1849 101.163 19.1849 100.996 19.1849C96.6664 19.2057 93.5189 16.1849 93.2784 11.7057ZM126.814 18.862C126.626 18.862 126.469 18.7057 126.469 18.5182V4.20573C126.469 4.01823 126.626 3.86198 126.814 3.86198H129.01C129.188 3.86198 129.344 4.00781 129.355 4.1849L129.459 5.91406C130.672 4.43489 132.722 3.80989 134.761 3.80989C134.949 3.80989 135.106 3.96614 135.106 4.15364V6.35156C135.106 6.45573 135.064 6.54948 134.981 6.61198C134.918 6.66406 134.845 6.69531 134.761 6.69531C134.74 6.69531 134.719 6.69531 134.698 6.6849C134.385 6.6224 134.061 6.60156 133.736 6.60156C131.457 6.60156 129.679 8.53906 129.679 10.3516V18.5286C129.679 18.7161 129.522 18.8724 129.334 18.8724L126.814 18.862Z" fill="white"/>
</g>
<defs>
<clipPath id="clip0">
<rect width="146" height="25" fill="white"/>
</clipPath>
</defs>
</svg>
