<svg width="121" height="60" fill="none" xmlns="http://www.w3.org/2000/svg"><path d="M38.584 0H.359v48.65h38.225V0zm40.894 0H41.253v48.65h38.225V0zm41.096 0H82.349v48.65h38.225V0z" fill="#001733"/><path d="M27.83 38.778l-8.093-20.862h-.531l-7.8 20.1a5.3 5.3 0 01-1.26 2.105 3.32 3.32 0 01-1.36.78v.663c.358-.046.717-.074 1.078-.083.387-.01.856-.016 1.408-.017.575 0 1.2.006 1.874.017.674.011 1.32.039 1.94.083v-.663a4.432 4.432 0 01-2.123-.464 1.607 1.607 0 01-.763-1.443 7.682 7.682 0 01.663-2.8l1.353-3.516h8.02l2.036 5.439c.442 1.128.509 1.863.2 2.206a3.228 3.228 0 01-2.156.58v.663a24.101 24.101 0 011.824-.083c.75-.011 1.556-.017 2.421-.017.64 0 1.282.006 1.924.017a20.26 20.26 0 011.625.083v-.663a2.43 2.43 0 01-1.161-.448 3.492 3.492 0 01-1.119-1.677zm-13.349-6.766l3.811-9.9 3.706 9.9h-7.517zm52.8-13.831c-.752 0-1.515-.011-2.289-.033-.774-.022-1.415-.044-1.924-.066v.663a5.667 5.667 0 011.708.248 1.246 1.246 0 01.78.8 6.03 6.03 0 01.2 1.808v7.822h-10.78v-7.826a6.019 6.019 0 01.2-1.808 1.245 1.245 0 01.78-.8 5.658 5.658 0 011.708-.248v-.663c-.509.022-1.145.044-1.908.066a83.072 83.072 0 01-4.726 0c-.752-.022-1.36-.044-1.824-.066v.663a5.667 5.667 0 011.708.248 1.244 1.244 0 01.779.8 6.03 6.03 0 01.2 1.808v16.447a6.038 6.038 0 01-.2 1.791 1.2 1.2 0 01-.779.8 6.79 6.79 0 01-1.708.265v.663a24.101 24.101 0 011.824-.083 161.137 161.137 0 014.726 0c.763.011 1.399.039 1.908.083V40.9a6.782 6.782 0 01-1.708-.265 1.2 1.2 0 01-.78-.8 6.037 6.037 0 01-.2-1.791v-7.96h10.78v7.96a6.038 6.038 0 01-.2 1.791 1.2 1.2 0 01-.78.8 6.79 6.79 0 01-1.708.265v.663c.509-.044 1.15-.072 1.924-.083a156.833 156.833 0 014.711 0c.752.011 1.36.039 1.824.083V40.9a6.782 6.782 0 01-1.708-.265 1.195 1.195 0 01-.779-.8 6.037 6.037 0 01-.2-1.791V21.599a6.019 6.019 0 01.2-1.808 1.243 1.243 0 01.779-.8 5.66 5.66 0 011.708-.248v-.663c-.467.022-1.075.044-1.824.066-.75.022-1.557.034-2.422.035zm44.827 21.36a6.09 6.09 0 01-.813.9 1.53 1.53 0 01-.946.363 1.081 1.081 0 01-1.078-.613 8.919 8.919 0 01-.682-2.106l-.829-3.383a6.136 6.136 0 00-1.443-3.035 5.8 5.8 0 00-3.2-1.343c-.127-.021-.266-.034-.4-.053a9.345 9.345 0 001.989-.494 7.382 7.382 0 002.67-1.642 5.776 5.776 0 001.376-2.123 6.39 6.39 0 00.4-2.123 5.154 5.154 0 00-1.99-4.113c-1.327-1.105-3.327-1.657-6-1.658-.4 0-1.074.011-2.023.033-.949.022-1.944.033-2.985.033-.73 0-1.47-.011-2.222-.033a105.69 105.69 0 01-1.825-.066v.663a5.667 5.667 0 011.708.248 1.246 1.246 0 01.78.8c.158.589.225 1.199.2 1.808v16.45a6.038 6.038 0 01-.2 1.791 1.2 1.2 0 01-.78.8c-.556.16-1.13.25-1.708.265v.663a24.113 24.113 0 011.825-.083 161.273 161.273 0 014.721 0c.76.011 1.396.039 1.908.083v-.663a6.782 6.782 0 01-1.708-.265 1.195 1.195 0 01-.779-.8 6.034 6.034 0 01-.2-1.791v-7.628h3.151a2.96 2.96 0 012.006.6 3.914 3.914 0 011.061 1.642c.285.806.513 1.632.682 2.471l.73 3.317a4.898 4.898 0 001.393 2.852 3.39 3.39 0 002.156.73 3.513 3.513 0 002.106-.547 6.308 6.308 0 001.443-1.576l-.494-.374zm-12.006-9.784H97.88V21.6a3.873 3.873 0 01.464-2.289 2.567 2.567 0 011.99-.563c2.012 0 3.433.48 4.262 1.442a6.03 6.03 0 011.244 4.063 8.113 8.113 0 01-.448 2.771 3.785 3.785 0 01-1.691 1.99 7.1 7.1 0 01-3.599.743z" fill="#fff"/><path d="M1.597 56.911v1.391a1.08 1.08 0 00.062.425.33.33 0 00.216.178c.164.039.332.06.5.062v.154a21.231 21.231 0 00-1.136-.023c-.443 0-.772.008-.989.023v-.154c.137-.002.273-.023.405-.062a.278.278 0 00.174-.178 1.4 1.4 0 00.045-.425V54.47a1.4 1.4 0 00-.045-.425.278.278 0 00-.174-.178 1.537 1.537 0 00-.4-.064v-.153c.216.015.53.023.942.023h.834c.098-.005.209-.008.332-.008.496-.034.987.113 1.383.413a1.39 1.39 0 01.479 1.107c0 .283-.065.561-.19.815a1.545 1.545 0 01-.641.652 2.38 2.38 0 01-1.2.263l-.597-.004zm.57-3.107a.912.912 0 00-.359.054.306.306 0 00-.166.193c-.036.136-.05.276-.045.417v2.29h.517a1.2 1.2 0 001.045-.405c.208-.322.309-.702.289-1.085a1.7 1.7 0 00-.3-1.1 1.217 1.217 0 00-.982-.364h.001zm11.825 4.929a1.34 1.34 0 01-.355.378.852.852 0 01-.471.116.747.747 0 01-.521-.185 1.21 1.21 0 01-.305-.649l-.17-.772a5.19 5.19 0 00-.174-.618.8.8 0 00-.243-.348.707.707 0 00-.454-.131h-.736v1.777a1.4 1.4 0 00.045.425.279.279 0 00.174.178c.132.039.268.06.405.062v.154a16.127 16.127 0 00-.981-.023c-.443 0-.772.008-.989.023v-.154c.137-.002.273-.023.405-.062a.278.278 0 00.174-.178 1.4 1.4 0 00.045-.425V54.47a1.4 1.4 0 00-.045-.425.278.278 0 00-.174-.178 1.539 1.539 0 00-.405-.062v-.153c.216.015.53.023.942.023l.836-.007c.098-.005.209-.008.332-.008.489-.031.974.1 1.379.375a1.172 1.172 0 01.483.97 1.42 1.42 0 01-.143.605c-.11.22-.275.41-.479.548-.262.177-.563.29-.877.328l.091.015c.272.027.53.135.741.309.18.2.298.446.34.711l.193.788c.03.172.084.338.162.494a.26.26 0 00.232.139.346.346 0 00.22-.07c.076-.066.143-.141.2-.224l.123.085zm-2.858-4.929a.913.913 0 00-.359.056.306.306 0 00-.166.193c-.036.136-.05.277-.045.417v1.9h.517a1.323 1.323 0 001.05-.34 1.42 1.42 0 00.283-.942 1.363 1.363 0 00-.3-.958 1.286 1.286 0 00-.98-.326zm9.508 0a1.539 1.539 0 00-.405.062.278.278 0 00-.174.178 1.4 1.4 0 00-.045.425v3.834a1.4 1.4 0 00.045.425.279.279 0 00.174.178c.132.039.268.06.405.062v.154a16.127 16.127 0 00-.981-.023c-.443 0-.772.008-.989.023v-.154c.137-.003.273-.023.405-.062a.278.278 0 00.174-.178 1.4 1.4 0 00.045-.425V54.47a1.4 1.4 0 00-.045-.425.278.278 0 00-.174-.178 1.539 1.539 0 00-.405-.062v-.153c.216.015.546.023.989.023.412 0 .739-.008.981-.023v.152zm9.114-.131c.232 0 .425-.008.579-.023v.154c-.257.06-.46.285-.61.672l-1.817 4.68h-.124l-1.88-4.855c-.125-.32-.304-.486-.535-.5v-.151c.206.015.481.023.826.023.443 0 .772-.008.989-.023v.154a1.26 1.26 0 00-.421.073.213.213 0 00-.127.212c.009.125.04.248.091.363l1.4 3.715 1.257-3.266c.085-.201.137-.415.154-.633a.384.384 0 00-.166-.348.984.984 0 00-.5-.116v-.154c.293.017.59.025.888.025l-.004-.002zm8.86 4.8c.123.32.301.484.533.494v.156a11.699 11.699 0 00-.826-.023c-.443 0-.772.008-.989.023v-.154c.143 0 .286-.025.421-.073a.214.214 0 00.128-.213 1.061 1.061 0 00-.091-.363l-.471-1.267h-1.873l-.318.818a2.023 2.023 0 00-.154.633.383.383 0 00.166.348.99.99 0 00.506.116v.156c-.293-.015-.59-.023-.888-.023a6.03 6.03 0 00-.579.023v-.154c.257-.06.46-.285.61-.672l1.817-4.68h.124l1.884 4.855zm-1.36-1.576l-.863-2.309-.879 2.306 1.742.003zm10.481-3.247a10.17 10.17 0 00-.054.989c0 .257.008.468.023.633h-.175a4.742 4.742 0 00-.154-.885.724.724 0 00-.324-.425 1.454 1.454 0 00-.711-.136h-.418v4.395c-.008.16.013.32.062.471a.35.35 0 00.216.2c.163.045.331.069.5.07v.158a21.231 21.231 0 00-1.136-.023c-.515 0-.896.008-1.143.023v-.154c.169-.001.337-.025.5-.07a.35.35 0 00.216-.2c.05-.152.07-.311.062-.471v-4.392h-.417a1.454 1.454 0 00-.711.136.724.724 0 00-.324.425c-.08.29-.13.586-.154.885h-.181c.015-.165.023-.376.023-.633 0-.293-.018-.623-.054-.989.427.015 1.153.023 2.178.023s1.748-.008 2.171-.025l.005-.005zm8.951 4.48c0 .293.018.623.054.989-.35-.015-.94-.023-1.769-.023-.989 0-1.735.008-2.24.023v-.154c.138-.002.274-.023.406-.062a.278.278 0 00.174-.178 1.4 1.4 0 00.045-.425v-3.83a1.4 1.4 0 00-.045-.425.278.278 0 00-.174-.178 1.538 1.538 0 00-.406-.062v-.153c.505.015 1.251.023 2.24.023.757 0 1.295-.008 1.614-.023a8.72 8.72 0 00-.054.911c-.002.16.005.32.023.479h-.178a3.604 3.604 0 00-.139-.746.623.623 0 00-.286-.355 1.291 1.291 0 00-.61-.112h-.641a1.4 1.4 0 00-.405.043.265.265 0 00-.174.174 1.4 1.4 0 00-.045.425v1.822h.51a.587.587 0 00.614-.429 2.7 2.7 0 00.081-.436l.023-.154h.178c-.015.216-.023.458-.023.727v.371c0 .263.015.63.045 1.1h-.178a21.54 21.54 0 01-.045-.374.76.76 0 00-.212-.483.68.68 0 00-.482-.162h-.51v1.854a1.4 1.4 0 00.045.425.265.265 0 00.174.174 1.4 1.4 0 00.405.043h.564c.25.013.5-.03.73-.127a.766.766 0 00.367-.409 3.1 3.1 0 00.17-.83h.18a5.28 5.28 0 00-.022.554l-.004-.007zm17.417-4.457c.232 0 .425-.008.579-.023v.154a.87.87 0 00-.61.672l-1.46 4.68h-.124l-1.342-3.975-1.227 3.978h-.124l-1.64-4.858c-.108-.32-.286-.484-.533-.494v-.155c.212.015.487.023.826.023.37 0 .649-.008.834-.023v.153a.6.6 0 00-.293.077.224.224 0 00-.085.193c.01.13.039.257.085.378l1.128 3.445.942-2.989-.209-.61c-.103-.32-.254-.484-.454-.494v-.155c.185.015.435.023.749.023.443 0 .772-.008.989-.023v.154c-.139 0-.277.023-.409.066a.207.207 0 00-.116.212c.007.127.033.252.077.371L72.8 57.89l.95-2.989a2.09 2.09 0 00.124-.626.4.4 0 00-.154-.359.963.963 0 00-.5-.112v-.155c.293.017.588.025.887.025l-.002-.001zm9.291 4.46c0 .293.018.623.054.989-.35-.015-.94-.023-1.769-.023-.989 0-1.735.008-2.24.023v-.154c.138-.002.274-.023.406-.062a.278.278 0 00.174-.178 1.4 1.4 0 00.045-.425V54.47a1.4 1.4 0 00-.045-.425.278.278 0 00-.174-.178 1.538 1.538 0 00-.406-.062v-.153c.505.015 1.251.023 2.24.023.757 0 1.295-.008 1.614-.023a8.72 8.72 0 00-.054.911c-.002.16.005.32.023.479h-.178a3.597 3.597 0 00-.139-.746.623.623 0 00-.286-.355 1.291 1.291 0 00-.61-.112h-.637a1.4 1.4 0 00-.406.043.265.265 0 00-.174.174 1.4 1.4 0 00-.045.425v1.822h.51a.585.585 0 00.614-.429 2.7 2.7 0 00.081-.436l.02-.155h.178c-.015.216-.023.458-.023.727v.371c0 .263.015.63.045 1.1h-.178a21.54 21.54 0 01-.045-.374.76.76 0 00-.212-.483.682.682 0 00-.483-.162h-.508v1.854a1.4 1.4 0 00.045.425.265.265 0 00.174.174 1.4 1.4 0 00.407.038h.564c.25.013.5-.03.73-.127a.766.766 0 00.367-.409 3.1 3.1 0 00.168-.832h.178c-.017.185-.025.37-.022.556l-.003.002zm9.253.34c.123.32.301.484.533.494v.156a11.699 11.699 0 00-.826-.023c-.443 0-.772.008-.989.023v-.154c.143 0 .286-.025.421-.073a.214.214 0 00.128-.213 1.061 1.061 0 00-.091-.363l-.471-1.27h-1.87l-.318.818a2.023 2.023 0 00-.154.633.383.383 0 00.166.348.99.99 0 00.506.116v.156c-.293-.015-.59-.023-.888-.023a6.03 6.03 0 00-.579.023v-.154c.257-.06.46-.285.61-.672l1.815-4.68h.124l1.883 4.858zm-1.358-1.579l-.863-2.309-.882 2.309h1.745zm8.434-3.09a1.538 1.538 0 00-.406.062.278.278 0 00-.174.178 1.4 1.4 0 00-.045.425v3.834a1.4 1.4 0 00.045.425.266.266 0 00.174.174 1.4 1.4 0 00.406.043h.564c.251.014.501-.033.73-.136a.798.798 0 00.367-.437c.094-.282.151-.576.17-.873h.178c-.015.16-.023.37-.023.633 0 .293.018.623.054.989-.35-.015-.94-.023-1.769-.023-.989 0-1.735.008-2.24.023v-.154c.138-.002.274-.023.406-.062a.278.278 0 00.174-.178 1.4 1.4 0 00.045-.425V54.47a1.4 1.4 0 00-.045-.425.278.278 0 00-.174-.178 1.538 1.538 0 00-.406-.062v-.153c.216.015.546.023.989.023.412 0 .739-.008.981-.023l-.001.152zm10.728-.154a10.17 10.17 0 00-.054.989c0 .257.008.468.023.633h-.178a4.742 4.742 0 00-.154-.885.726.726 0 00-.324-.425 1.454 1.454 0 00-.711-.136h-.417v4.395c-.008.16.013.32.062.471a.351.351 0 00.216.2c.163.045.331.069.5.07v.158a21.231 21.231 0 00-1.136-.023c-.515 0-.896.008-1.143.023v-.154c.169-.001.337-.025.5-.07a.35.35 0 00.216-.2c.049-.152.07-.311.062-.471v-4.392h-.415a1.454 1.454 0 00-.711.136.726.726 0 00-.324.425c-.079.29-.131.586-.154.885h-.178c.015-.165.023-.376.023-.633 0-.293-.018-.623-.054-.989a70.07 70.07 0 002.178.023 62.72 62.72 0 002.17-.025l.003-.005zm10.2.154a1.542 1.542 0 00-.405.062.275.275 0 00-.174.178 1.385 1.385 0 00-.045.425v3.834c-.007.143.008.287.045.425a.279.279 0 00.174.178c.132.039.268.06.405.062v.154a15.392 15.392 0 00-.989-.023c-.417 0-.744.008-.981.023v-.154c.137-.003.273-.023.405-.062a.275.275 0 00.174-.178c.037-.139.052-.282.045-.425v-1.855h-2.51v1.855c-.007.143.008.287.045.425a.279.279 0 00.174.178c.132.039.269.06.406.062v.154a16.141 16.141 0 00-.981-.023c-.443 0-.772.008-.989.023v-.154c.138-.002.274-.023.406-.062a.275.275 0 00.174-.178c.037-.139.052-.282.045-.425V54.47a1.385 1.385 0 00-.045-.425.278.278 0 00-.174-.178 1.535 1.535 0 00-.406-.062v-.153c.216.015.546.023.989.023.412 0 .739-.008.981-.023v.153a1.541 1.541 0 00-.406.062.275.275 0 00-.174.178 1.385 1.385 0 00-.045.425v1.821h2.51V54.47a1.385 1.385 0 00-.045-.425.278.278 0 00-.174-.178 1.534 1.534 0 00-.4-.064v-.153c.237.015.564.023.981.023.443 0 .772-.008.989-.023l-.005.154z" fill="#001733" stroke="#001733" stroke-width=".5"/></svg>