<svg width="11" height="12" viewBox="0 0 11 12" fill="none" xmlns="http://www.w3.org/2000/svg">
<path d="M4.67693 1.21811L5.22196 0.673084C5.45274 0.442305 5.82591 0.442305 6.05423 0.673084L10.8269 5.44331C11.0577 5.67409 11.0577 6.04726 10.8269 6.27558L6.05423 11.0482C5.82345 11.279 5.45029 11.279 5.22196 11.0482L4.67693 10.5033C4.4437 10.27 4.44861 9.88946 4.68676 9.66114L7.64514 6.84271H0.58922C0.262694 6.84271 0 6.58002 0 6.25349V5.46786C0 5.14133 0.262694 4.87864 0.58922 4.87864H7.64514L4.68676 2.06021C4.44616 1.83188 4.44124 1.45134 4.67693 1.21811Z" fill="#0D3B5B"/>
</svg>
