<svg width="20" height="20" viewBox="0 0 20 20" fill="none" xmlns="http://www.w3.org/2000/svg">
<path fill-rule="evenodd" clip-rule="evenodd" d="M15 0C15.5523 0 16 0.447715 16 1V4L19.0593 4.00168C19.3157 4.0163 19.5391 4.12515 19.7039 4.2893C19.7496 4.33473 19.7911 4.38468 19.8275 4.4384L19.8916 4.547L19.9271 4.62453L19.9611 4.72177L19.9859 4.82782L19.9994 4.9448L20 19C20 19.5523 19.5523 20 19 20H1C0.447715 20 0 19.5523 0 19V5L0.00210839 4.93454L0.0141497 4.82776L0.0389256 4.72182L0.072861 4.62455L0.12173 4.52172C0.168482 4.43576 0.227632 4.35744 0.296687 4.28912C0.444004 4.14204 0.638921 4.03932 0.862537 4.00916L1 4H4V1C4 0.447715 4.44772 0 5 0H15ZM18 9.871L16.9191 12.3939C16.7773 12.7248 16.4703 12.951 16.1187 12.993L16 13H14V14C14 14.5523 13.5523 15 13 15H7C6.44772 15 6 14.5523 6 14V13H4C3.63997 13 3.31113 12.8069 3.13408 12.5002L3.08085 12.3939L2 9.873V18H18V9.871ZM8 11H12V13H8V11ZM17.483 6H2.516L4.659 11H6V10C6 9.44771 6.44772 9 7 9H13C13.5523 9 14 9.44771 14 10V11H15.34L17.483 6ZM6 2H14V4H6V2Z" fill="#0D3B5B"/>
</svg>
