<svg width="19" height="18" viewBox="0 0 19 18" fill="none" xmlns="http://www.w3.org/2000/svg">
<path d="M16.9631 8.05501L15.9431 6.87001C15.7481 6.64501 15.5906 6.22501 15.5906 5.92501V4.65001C15.5906 3.85501 14.9381 3.20251 14.1431 3.20251H12.8681C12.5756 3.20251 12.1481 3.04501 11.9231 2.85001L10.7381 1.83001C10.2206 1.38751 9.37312 1.38751 8.84812 1.83001L7.67062 2.85751C7.44562 3.04501 7.01812 3.20251 6.72562 3.20251H5.42812C4.63312 3.20251 3.98062 3.85501 3.98062 4.65001V5.93251C3.98062 6.22501 3.82312 6.64501 3.63562 6.87001L2.62313 8.06251C2.18813 8.58001 2.18813 9.42001 2.62313 9.93751L3.63562 11.13C3.82312 11.355 3.98062 11.775 3.98062 12.0675V13.35C3.98062 14.145 4.63312 14.7975 5.42812 14.7975H6.72562C7.01812 14.7975 7.44562 14.955 7.67062 15.15L8.85562 16.17C9.37312 16.6125 10.2206 16.6125 10.7456 16.17L11.9306 15.15C12.1556 14.955 12.5756 14.7975 12.8756 14.7975H14.1506C14.9456 14.7975 15.5981 14.145 15.5981 13.35V12.075C15.5981 11.7825 15.7556 11.355 15.9506 11.13L16.9706 9.94501C17.4056 9.42751 17.4056 8.57251 16.9631 8.05501ZM12.9131 7.58251L9.29062 11.205C9.18562 11.31 9.04313 11.37 8.89313 11.37C8.74313 11.37 8.60063 11.31 8.49563 11.205L6.68062 9.39001C6.46312 9.17251 6.46312 8.81251 6.68062 8.59501C6.89812 8.37751 7.25812 8.37751 7.47562 8.59501L8.89313 10.0125L12.1181 6.78751C12.3356 6.57001 12.6956 6.57001 12.9131 6.78751C13.1306 7.00501 13.1306 7.36501 12.9131 7.58251Z" fill="white"/>
</svg>
