<svg width="90" height="16" viewBox="0 0 90 16" fill="none" xmlns="http://www.w3.org/2000/svg">
<path d="M10.6559 5.12289L14.5661 5.69711C14.8942 5.7518 15.1677 5.97055 15.277 6.29868C15.3864 6.59946 15.3044 6.95493 15.0583 7.17368L12.2145 9.99008L12.8981 13.9823C12.9528 14.3104 12.8161 14.6385 12.5427 14.8299C12.2692 15.0487 11.9137 15.0487 11.613 14.912L8.11296 13.0252L4.58562 14.912C4.31218 15.0487 3.92937 15.0487 3.68328 14.8299C3.40984 14.6385 3.27312 14.3104 3.32781 13.9823L3.98406 9.99008L1.14031 7.17368C0.894213 6.95493 0.812182 6.59946 0.921557 6.29868C1.03093 5.97055 1.30437 5.7518 1.63249 5.69711L5.56999 5.12289L7.31999 1.48618C7.45671 1.18539 7.75749 0.993988 8.11296 0.993988C8.44109 0.993988 8.74187 1.18539 8.87859 1.48618L10.6559 5.12289Z" fill="#FFCC41"/>
<path d="M29.1061 5.12289L33.0163 5.69711C33.3444 5.7518 33.6178 5.97055 33.7272 6.29868C33.8366 6.59946 33.7546 6.95493 33.5085 7.17368L30.6647 9.99008L31.3483 13.9823C31.403 14.3104 31.2663 14.6385 30.9928 14.8299C30.7194 15.0487 30.3639 15.0487 30.0632 14.912L26.5632 13.0252L23.0358 14.912C22.7624 15.0487 22.3796 15.0487 22.1335 14.8299C21.86 14.6385 21.7233 14.3104 21.778 13.9823L22.4343 9.99008L19.5905 7.17368C19.3444 6.95493 19.2624 6.59946 19.3718 6.29868C19.4811 5.97055 19.7546 5.7518 20.0827 5.69711L24.0202 5.12289L25.7702 1.48618C25.9069 1.18539 26.2077 0.993988 26.5632 0.993988C26.8913 0.993988 27.1921 1.18539 27.3288 1.48618L29.1061 5.12289Z" fill="#FFCC41"/>
<path d="M47.5573 5.12289L51.4675 5.69711C51.7956 5.7518 52.069 5.97055 52.1784 6.29868C52.2878 6.59946 52.2057 6.95493 51.9596 7.17368L49.1159 9.99008L49.7995 13.9823C49.8542 14.3104 49.7175 14.6385 49.444 14.8299C49.1706 15.0487 48.8151 15.0487 48.5143 14.912L45.0143 13.0252L41.487 14.912C41.2135 15.0487 40.8307 15.0487 40.5846 14.8299C40.3112 14.6385 40.1745 14.3104 40.2292 13.9823L40.8854 9.99008L38.0417 7.17368C37.7956 6.95493 37.7135 6.59946 37.8229 6.29868C37.9323 5.97055 38.2057 5.7518 38.5339 5.69711L42.4714 5.12289L44.2214 1.48618C44.3581 1.18539 44.6589 0.993988 45.0143 0.993988C45.3425 0.993988 45.6432 1.18539 45.78 1.48618L47.5573 5.12289Z" fill="#FFCC41"/>
<path d="M66.0075 5.12289L69.9177 5.69711C70.2458 5.7518 70.5192 5.97055 70.6286 6.29868C70.738 6.59946 70.6559 6.95493 70.4098 7.17368L67.5661 9.99008L68.2497 13.9823C68.3044 14.3104 68.1677 14.6385 67.8942 14.8299C67.6208 15.0487 67.2653 15.0487 66.9645 14.912L63.4645 13.0252L59.9372 14.912C59.6637 15.0487 59.2809 15.0487 59.0348 14.8299C58.7614 14.6385 58.6247 14.3104 58.6794 13.9823L59.3356 9.99008L56.4919 7.17368C56.2458 6.95493 56.1637 6.59946 56.2731 6.29868C56.3825 5.97055 56.6559 5.7518 56.9841 5.69711L60.9216 5.12289L62.6716 1.48618C62.8083 1.18539 63.1091 0.993988 63.4645 0.993988C63.7927 0.993988 64.0934 1.18539 64.2302 1.48618L66.0075 5.12289Z" fill="#FFCC41"/>
<path d="M84.4577 5.12289L88.3678 5.69711C88.696 5.7518 88.9694 5.97055 89.0788 6.29868C89.1882 6.59946 89.1061 6.95493 88.86 7.17368L86.0163 9.99008L86.6999 13.9823C86.7546 14.3104 86.6178 14.6385 86.3444 14.8299C86.071 15.0487 85.7155 15.0487 85.4147 14.912L81.9147 13.0252L78.3874 14.912C78.1139 15.0487 77.7311 15.0487 77.485 14.8299C77.2116 14.6385 77.0749 14.3104 77.1296 13.9823L77.7858 9.99008L74.9421 7.17368C74.696 6.95493 74.6139 6.59946 74.7233 6.29868C74.8327 5.97055 75.1061 5.7518 75.4343 5.69711L79.3718 5.12289L81.1218 1.48618C81.2585 1.18539 81.5593 0.993988 81.9147 0.993988C82.2428 0.993988 82.5436 1.18539 82.6803 1.48618L84.4577 5.12289Z" fill="#FFCC41"/>
</svg>
