<svg width="149" height="24" viewBox="0 0 149 24" fill="none" xmlns="http://www.w3.org/2000/svg">
<rect x="0.294922" y="0.25" width="23.5" height="23.5003" rx="11.75" fill="white"/>
<path d="M20.6247 10.2863H19.9199V10.25H12.0449V13.75H16.99C16.2685 15.7874 14.33 17.25 12.0449 17.25C9.14561 17.25 6.79492 14.8993 6.79492 12C6.79492 9.10069 9.14561 6.75 12.0449 6.75C13.3832 6.75 14.6008 7.25487 15.5279 8.07956L18.0028 5.60462C16.44 4.14819 14.3497 3.25 12.0449 3.25C7.21273 3.25 3.29492 7.16781 3.29492 12C3.29492 16.8322 7.21273 20.75 12.0449 20.75C16.8771 20.75 20.7949 16.8322 20.7949 12C20.7949 11.4133 20.7345 10.8406 20.6247 10.2863Z" fill="#FFC107"/>
<path d="M4.30273 7.92731L7.17755 10.0356C7.95542 8.10975 9.8393 6.75 12.0439 6.75C13.3822 6.75 14.5997 7.25488 15.5268 8.07956L18.0017 5.60463C16.439 4.14819 14.3486 3.25 12.0439 3.25C8.68298 3.25 5.76836 5.14744 4.30273 7.92731Z" fill="#FF3D00"/>
<path d="M12.0455 20.7498C14.3057 20.7498 16.3593 19.8849 17.912 18.4783L15.2039 16.1867C14.2958 16.8772 13.1863 17.2507 12.0455 17.2498C9.76967 17.2498 7.83723 15.7986 7.10923 13.7734L4.25586 15.9719C5.70398 18.8056 8.64486 20.7498 12.0455 20.7498Z" fill="#4CAF50"/>
<path d="M20.6247 10.2863H19.9199V10.25H12.0449V13.75H16.99C16.6449 14.7197 16.0233 15.567 15.2019 16.1873L15.2032 16.1864L17.9114 18.4781C17.7197 18.6522 20.7949 16.375 20.7949 12C20.7949 11.4133 20.7345 10.8406 20.6247 10.2863Z" fill="#1976D2"/>
<path d="M29.5789 11.336C29.5789 8.072 32.0429 5.512 35.3389 5.512C38.0429 5.512 39.4509 6.872 39.4509 6.872L38.6509 8.056C38.6509 8.056 37.3869 6.952 35.4669 6.952C32.8109 6.952 31.2109 8.888 31.2109 11.304C31.2109 13.928 33.0029 15.736 35.3709 15.736C37.3229 15.736 38.5709 14.328 38.5709 14.328V12.696H36.7309V11.32H40.0109V17H38.6189V16.296C38.6189 16.056 38.6349 15.816 38.6349 15.816H38.6029C38.6029 15.816 37.3709 17.192 35.1309 17.192C32.0909 17.192 29.5789 14.792 29.5789 11.336ZM41.5752 12.936C41.5752 10.488 43.5272 8.712 45.9432 8.712C48.3592 8.712 50.3112 10.488 50.3112 12.936C50.3112 15.4 48.3592 17.192 45.9432 17.192C43.5272 17.192 41.5752 15.4 41.5752 12.936ZM43.1592 12.936C43.1592 14.632 44.4232 15.848 45.9432 15.848C47.4792 15.848 48.7272 14.632 48.7272 12.936C48.7272 11.256 47.4792 10.056 45.9432 10.056C44.4232 10.056 43.1592 11.256 43.1592 12.936ZM51.5595 12.936C51.5595 10.488 53.5115 8.712 55.9275 8.712C58.3435 8.712 60.2955 10.488 60.2955 12.936C60.2955 15.4 58.3435 17.192 55.9275 17.192C53.5115 17.192 51.5595 15.4 51.5595 12.936ZM53.1435 12.936C53.1435 14.632 54.4075 15.848 55.9275 15.848C57.4635 15.848 58.7115 14.632 58.7115 12.936C58.7115 11.256 57.4635 10.056 55.9275 10.056C54.4075 10.056 53.1435 11.256 53.1435 12.936ZM62.8559 18.472C62.8559 18.472 63.8639 19.016 65.0799 19.016C66.4879 19.016 67.6399 18.392 67.6399 16.744V16.152C67.6399 15.896 67.6559 15.64 67.6559 15.64H67.6239C67.1439 16.44 66.3919 16.904 65.2239 16.904C62.9679 16.904 61.6079 15.096 61.6079 12.76C61.6079 10.44 62.9039 8.712 65.1439 8.712C67.0959 8.712 67.6879 9.912 67.6879 9.912H67.7199C67.7199 9.912 67.7039 9.8 67.7039 9.656V8.904H69.1919V16.664C69.1919 19.336 67.1599 20.36 65.1119 20.36C64.1359 20.36 63.1279 20.088 62.3439 19.688L62.8559 18.472ZM65.5279 15.56C66.6479 15.56 67.6719 14.888 67.6719 12.776C67.6719 10.664 66.6479 10.056 65.3839 10.056C63.9759 10.056 63.1759 11.08 63.1759 12.728C63.1759 14.408 64.0719 15.56 65.5279 15.56ZM71.5243 14.792V5.704H73.0763V14.52C73.0763 15.496 73.4603 15.672 73.9403 15.672C74.0843 15.672 74.2123 15.656 74.2123 15.656V17.032C74.2123 17.032 73.9723 17.064 73.7003 17.064C72.8203 17.064 71.5243 16.824 71.5243 14.792ZM75.2947 12.952C75.2947 10.376 77.0387 8.712 79.3427 8.712C81.6307 8.712 82.8467 10.408 82.8467 12.504C82.8467 12.712 82.7987 13.176 82.7987 13.176H76.8947C76.9747 14.952 78.2387 15.848 79.6787 15.848C81.0707 15.848 82.0787 14.904 82.0787 14.904L82.7187 16.04C82.7187 16.04 81.5187 17.192 79.5827 17.192C77.0387 17.192 75.2947 15.352 75.2947 12.952ZM76.9427 12.008H81.2627C81.2147 10.616 80.3507 9.944 79.3107 9.944C78.1267 9.944 77.1667 10.68 76.9427 12.008ZM89.159 17V5.704H92.615C93.799 5.704 94.295 5.8 94.727 5.96C95.879 6.392 96.631 7.528 96.631 9.016C96.631 10.456 95.831 11.672 94.599 12.072V12.104C94.599 12.104 94.727 12.248 94.935 12.616L97.335 17H95.543L93.159 12.504H90.743V17H89.159ZM90.743 11.128H93.015C94.247 11.128 95.015 10.344 95.015 9.08C95.015 8.248 94.695 7.656 94.119 7.336C93.815 7.176 93.447 7.08 92.567 7.08H90.743V11.128ZM98.529 12.952C98.529 10.376 100.273 8.712 102.577 8.712C104.865 8.712 106.081 10.408 106.081 12.504C106.081 12.712 106.033 13.176 106.033 13.176H100.129C100.209 14.952 101.473 15.848 102.913 15.848C104.305 15.848 105.313 14.904 105.313 14.904L105.953 16.04C105.953 16.04 104.753 17.192 102.817 17.192C100.273 17.192 98.529 15.352 98.529 12.952ZM100.177 12.008H104.497C104.449 10.616 103.585 9.944 102.545 9.944C101.361 9.944 100.401 10.68 100.177 12.008ZM109.884 17L106.86 8.904H108.508L110.476 14.376C110.636 14.824 110.732 15.48 110.748 15.48H110.78C110.796 15.48 110.908 14.824 111.068 14.376L113.036 8.904H114.668L111.676 17H109.884ZM115.979 7.288V5.704H117.547V7.288H115.979ZM115.995 17V8.904H117.547V17H115.995ZM119.42 12.952C119.42 10.376 121.164 8.712 123.468 8.712C125.756 8.712 126.972 10.408 126.972 12.504C126.972 12.712 126.924 13.176 126.924 13.176H121.02C121.1 14.952 122.364 15.848 123.804 15.848C125.196 15.848 126.204 14.904 126.204 14.904L126.844 16.04C126.844 16.04 125.644 17.192 123.708 17.192C121.164 17.192 119.42 15.352 119.42 12.952ZM121.068 12.008H125.388C125.34 10.616 124.476 9.944 123.436 9.944C122.252 9.944 121.292 10.68 121.068 12.008ZM130.519 17L127.911 8.904H129.559L131.239 14.584C131.367 15 131.431 15.448 131.447 15.448H131.479C131.479 15.448 131.559 15 131.687 14.584L133.447 8.92H134.871L136.615 14.584C136.743 15 136.839 15.448 136.839 15.448H136.871C136.871 15.448 136.935 15 137.063 14.584L138.759 8.904H140.391L137.783 17H136.071L134.391 11.8C134.263 11.384 134.167 10.92 134.167 10.92H134.135C134.135 10.92 134.039 11.384 133.911 11.8L132.247 17H130.519ZM141.23 16.008L141.982 14.904C141.982 14.904 142.894 15.848 144.302 15.848C144.974 15.848 145.646 15.496 145.646 14.84C145.646 13.352 141.486 13.656 141.486 11.016C141.486 9.544 142.798 8.712 144.414 8.712C146.19 8.712 147.022 9.608 147.022 9.608L146.398 10.776C146.398 10.776 145.678 10.056 144.398 10.056C143.726 10.056 143.07 10.344 143.07 11.048C143.07 12.504 147.23 12.184 147.23 14.84C147.23 16.184 146.078 17.192 144.302 17.192C142.318 17.192 141.23 16.008 141.23 16.008Z" fill="#49718C"/>
</svg>
