<svg width="136" height="26" viewBox="0 0 136 26" fill="none" xmlns="http://www.w3.org/2000/svg">
<rect width="26" height="26" rx="13" fill="white"/>
<path d="M22.8055 11.0415H22V11H13V15H18.6515C17.827 17.3285 15.6115 19 13 19C9.6865 19 7 16.3135 7 13C7 9.6865 9.6865 7 13 7C14.5295 7 15.921 7.577 16.9805 8.5195L19.809 5.691C18.023 4.0265 15.634 3 13 3C7.4775 3 3 7.4775 3 13C3 18.5225 7.4775 23 13 23C18.5225 23 23 18.5225 23 13C23 12.3295 22.931 11.675 22.8055 11.0415Z" fill="#FFC107"/>
<path d="M4.15234 8.3455L7.43784 10.755C8.32684 8.554 10.4798 7 12.9993 7C14.5288 7 15.9203 7.577 16.9798 8.5195L19.8083 5.691C18.0223 4.0265 15.6333 3 12.9993 3C9.15834 3 5.82734 5.1685 4.15234 8.3455Z" fill="#FF3D00"/>
<path d="M13.0002 22.9999C15.5832 22.9999 17.9302 22.0114 19.7047 20.4039L16.6097 17.7849C15.5719 18.5741 14.3039 19.0009 13.0002 18.9999C10.3992 18.9999 8.19066 17.3414 7.35866 15.0269L4.09766 17.5394C5.75266 20.7779 9.11366 22.9999 13.0002 22.9999Z" fill="#4CAF50"/>
<path d="M22.8055 11.0415H22V11H13V15H18.6515C18.2571 16.1082 17.5467 17.0766 16.608 17.7855L16.6095 17.7845L19.7045 20.4035C19.4855 20.6025 23 18 23 13C23 12.3295 22.931 11.675 22.8055 11.0415Z" fill="#1976D2"/>
<path d="M31.686 13.044C31.686 10.188 33.842 7.948 36.726 7.948C39.092 7.948 40.324 9.138 40.324 9.138L39.624 10.174C39.624 10.174 38.518 9.208 36.838 9.208C34.514 9.208 33.114 10.902 33.114 13.016C33.114 15.312 34.682 16.894 36.754 16.894C38.462 16.894 39.554 15.662 39.554 15.662V14.234H37.944V13.03H40.814V18H39.596V17.384C39.596 17.174 39.61 16.964 39.61 16.964H39.582C39.582 16.964 38.504 18.168 36.544 18.168C33.884 18.168 31.686 16.068 31.686 13.044ZM42.1827 14.444C42.1827 12.302 43.8907 10.748 46.0047 10.748C48.1187 10.748 49.8267 12.302 49.8267 14.444C49.8267 16.6 48.1187 18.168 46.0047 18.168C43.8907 18.168 42.1827 16.6 42.1827 14.444ZM43.5687 14.444C43.5687 15.928 44.6747 16.992 46.0047 16.992C47.3487 16.992 48.4407 15.928 48.4407 14.444C48.4407 12.974 47.3487 11.924 46.0047 11.924C44.6747 11.924 43.5687 12.974 43.5687 14.444ZM50.919 14.444C50.919 12.302 52.627 10.748 54.741 10.748C56.855 10.748 58.563 12.302 58.563 14.444C58.563 16.6 56.855 18.168 54.741 18.168C52.627 18.168 50.919 16.6 50.919 14.444ZM52.305 14.444C52.305 15.928 53.411 16.992 54.741 16.992C56.085 16.992 57.177 15.928 57.177 14.444C57.177 12.974 56.085 11.924 54.741 11.924C53.411 11.924 52.305 12.974 52.305 14.444ZM60.8034 19.288C60.8034 19.288 61.6854 19.764 62.7494 19.764C63.9814 19.764 64.9894 19.218 64.9894 17.776V17.258C64.9894 17.034 65.0034 16.81 65.0034 16.81H64.9754C64.5554 17.51 63.8974 17.916 62.8754 17.916C60.9014 17.916 59.7114 16.334 59.7114 14.29C59.7114 12.26 60.8454 10.748 62.8054 10.748C64.5134 10.748 65.0314 11.798 65.0314 11.798H65.0594C65.0594 11.798 65.0454 11.7 65.0454 11.574V10.916H66.3474V17.706C66.3474 20.044 64.5694 20.94 62.7774 20.94C61.9234 20.94 61.0414 20.702 60.3554 20.352L60.8034 19.288ZM63.1414 16.74C64.1214 16.74 65.0174 16.152 65.0174 14.304C65.0174 12.456 64.1214 11.924 63.0154 11.924C61.7834 11.924 61.0834 12.82 61.0834 14.262C61.0834 15.732 61.8674 16.74 63.1414 16.74ZM68.3882 16.068V8.116H69.7462V15.83C69.7462 16.684 70.0822 16.838 70.5022 16.838C70.6282 16.838 70.7402 16.824 70.7402 16.824V18.028C70.7402 18.028 70.5302 18.056 70.2922 18.056C69.5222 18.056 68.3882 17.846 68.3882 16.068ZM71.6873 14.458C71.6873 12.204 73.2133 10.748 75.2293 10.748C77.2313 10.748 78.2953 12.232 78.2953 14.066C78.2953 14.248 78.2533 14.654 78.2533 14.654H73.0873C73.1573 16.208 74.2633 16.992 75.5233 16.992C76.7413 16.992 77.6233 16.166 77.6233 16.166L78.1833 17.16C78.1833 17.16 77.1333 18.168 75.4393 18.168C73.2133 18.168 71.6873 16.558 71.6873 14.458ZM73.1293 13.632H76.9093C76.8673 12.414 76.1113 11.826 75.2013 11.826C74.1653 11.826 73.3253 12.47 73.1293 13.632ZM83.8186 18V8.116H86.8426C87.8786 8.116 88.3126 8.2 88.6906 8.34C89.6986 8.718 90.3566 9.712 90.3566 11.014C90.3566 12.274 89.6566 13.338 88.5786 13.688V13.716C88.5786 13.716 88.6906 13.842 88.8726 14.164L90.9726 18H89.4046L87.3186 14.066H85.2046V18H83.8186ZM85.2046 12.862H87.1926C88.2706 12.862 88.9426 12.176 88.9426 11.07C88.9426 10.342 88.6626 9.824 88.1586 9.544C87.8926 9.404 87.5706 9.32 86.8006 9.32H85.2046V12.862ZM92.0174 14.458C92.0174 12.204 93.5434 10.748 95.5594 10.748C97.5614 10.748 98.6254 12.232 98.6254 14.066C98.6254 14.248 98.5834 14.654 98.5834 14.654H93.4174C93.4874 16.208 94.5934 16.992 95.8534 16.992C97.0714 16.992 97.9534 16.166 97.9534 16.166L98.5134 17.16C98.5134 17.16 97.4634 18.168 95.7694 18.168C93.5434 18.168 92.0174 16.558 92.0174 14.458ZM93.4594 13.632H97.2394C97.1974 12.414 96.4414 11.826 95.5314 11.826C94.4954 11.826 93.6554 12.47 93.4594 13.632ZM101.953 18L99.307 10.916H100.749L102.471 15.704C102.611 16.096 102.695 16.67 102.709 16.67H102.737C102.751 16.67 102.849 16.096 102.989 15.704L104.711 10.916H106.139L103.521 18H101.953ZM107.286 9.502V8.116H108.658V9.502H107.286ZM107.3 18V10.916H108.658V18H107.3ZM110.297 14.458C110.297 12.204 111.823 10.748 113.839 10.748C115.841 10.748 116.905 12.232 116.905 14.066C116.905 14.248 116.863 14.654 116.863 14.654H111.697C111.767 16.208 112.873 16.992 114.133 16.992C115.351 16.992 116.233 16.166 116.233 16.166L116.793 17.16C116.793 17.16 115.743 18.168 114.049 18.168C111.823 18.168 110.297 16.558 110.297 14.458ZM111.739 13.632H115.519C115.477 12.414 114.721 11.826 113.811 11.826C112.775 11.826 111.935 12.47 111.739 13.632ZM120.008 18L117.726 10.916H119.168L120.638 15.886C120.75 16.25 120.806 16.642 120.82 16.642H120.848C120.848 16.642 120.918 16.25 121.03 15.886L122.57 10.93H123.816L125.342 15.886C125.454 16.25 125.538 16.642 125.538 16.642H125.566C125.566 16.642 125.622 16.25 125.734 15.886L127.218 10.916H128.646L126.364 18H124.866L123.396 13.45C123.284 13.086 123.2 12.68 123.2 12.68H123.172C123.172 12.68 123.088 13.086 122.976 13.45L121.52 18H120.008ZM129.381 17.132L130.039 16.166C130.039 16.166 130.837 16.992 132.069 16.992C132.657 16.992 133.245 16.684 133.245 16.11C133.245 14.808 129.605 15.074 129.605 12.764C129.605 11.476 130.753 10.748 132.167 10.748C133.721 10.748 134.449 11.532 134.449 11.532L133.903 12.554C133.903 12.554 133.273 11.924 132.153 11.924C131.565 11.924 130.991 12.176 130.991 12.792C130.991 14.066 134.631 13.786 134.631 16.11C134.631 17.286 133.623 18.168 132.069 18.168C130.333 18.168 129.381 17.132 129.381 17.132Z" fill="white"/>
</svg>
