<svg width="19" height="18" viewBox="0 0 19 18" fill="none" xmlns="http://www.w3.org/2000/svg">
<path d="M10.3059 14.9677C10.5119 15.0157 10.5308 15.2855 10.3301 15.3524V15.3524L9.14512 15.7424C6.16762 16.7024 4.60012 15.8999 3.63262 12.9224L2.67262 9.95994C1.71262 6.98244 2.50762 5.40744 5.48512 4.44744L5.62412 4.40141C6.02698 4.26799 6.42491 4.67423 6.31925 5.08524C6.30098 5.15632 6.28295 5.22872 6.26512 5.30244L5.53012 8.44494C4.70512 11.9774 5.91262 13.9274 9.44512 14.7674L10.3059 14.9677Z" fill="white"/>
<path d="M13.6755 2.40751L12.423 2.11501C9.91799 1.52251 8.42549 2.01001 7.54799 3.82501C7.32299 4.28251 7.14299 4.83751 6.99299 5.47501L6.25799 8.61751C5.52299 11.7525 6.49049 13.2975 9.61799 14.04L10.878 14.34C11.313 14.445 11.718 14.5125 12.093 14.5425C14.433 14.7675 15.678 13.6725 16.308 10.965L17.043 7.83001C17.778 4.69501 16.818 3.14251 13.6755 2.40751ZM12.2655 9.99751C12.198 10.2525 11.973 10.4175 11.718 10.4175C11.673 10.4175 11.628 10.41 11.5755 10.4025L9.39299 9.84751C9.09299 9.77251 8.91299 9.46501 8.98799 9.16501C9.06299 8.86501 9.37049 8.68501 9.67049 8.76001L11.853 9.31501C12.1605 9.39001 12.3405 9.69751 12.2655 9.99751ZM14.463 7.46251C14.3955 7.71751 14.1705 7.88251 13.9155 7.88251C13.8705 7.88251 13.8255 7.87501 13.773 7.86751L10.1355 6.94501C9.83549 6.87001 9.65549 6.56251 9.73049 6.26251C9.80549 5.96251 10.113 5.78251 10.413 5.85751L14.0505 6.78001C14.358 6.84751 14.538 7.15501 14.463 7.46251Z" fill="white"/>
</svg>
