<svg width="19" height="18" viewBox="0 0 19 18" fill="none" xmlns="http://www.w3.org/2000/svg">
<path d="M14.6681 3.08249L10.9256 1.67999C10.3031 1.44749 9.28309 1.44749 8.66059 1.67999L4.91809 3.08249C4.05559 3.40499 3.35059 4.42499 3.35059 5.33999V10.9125C3.35059 11.7975 3.93559 12.96 4.64809 13.4925L7.87309 15.9C8.93059 16.695 10.6706 16.695 11.7281 15.9L14.9531 13.4925C15.6656 12.96 16.2506 11.7975 16.2506 10.9125V5.33999C16.2356 4.42499 15.5306 3.40499 14.6681 3.08249ZM9.74059 5.27249C10.6256 5.27249 11.3456 5.99249 11.3456 6.87749C11.3456 7.74749 10.6631 8.44499 9.80059 8.47499H9.78559H9.77059C9.75559 8.47499 9.74059 8.47499 9.72559 8.47499C8.82559 8.44499 8.15059 7.74749 8.15059 6.87749C8.14309 5.99249 8.86309 5.27249 9.74059 5.27249ZM11.4356 12.27C10.9781 12.57 10.3856 12.7275 9.79309 12.7275C9.20059 12.7275 8.60059 12.5775 8.15059 12.27C7.72309 11.985 7.49059 11.595 7.48309 11.1675C7.48309 10.7475 7.72309 10.3425 8.15059 10.0575C9.05809 9.45749 10.5356 9.45749 11.4431 10.0575C11.8706 10.3425 12.1106 10.7325 12.1106 11.16C12.1031 11.58 11.8631 11.985 11.4356 12.27Z" fill="white"/>
</svg>
