<svg width="105" height="24" viewBox="0 0 105 24" fill="none" xmlns="http://www.w3.org/2000/svg">
<g clip-path="url(#clip0_1270_1688)">
<path d="M28.018 8.50586H38.5483V10.352H34.4078V20.7302H32.131V10.352H28.0088V8.50586H28.018ZM38.0985 11.879H40.0448V13.5871H40.0815C40.1458 13.3455 40.2651 13.1126 40.4396 12.8883C40.614 12.664 40.8252 12.4483 41.0731 12.2672C41.3209 12.0774 41.5964 11.9307 41.8993 11.81C42.2023 11.6978 42.5144 11.6374 42.8266 11.6374C43.0653 11.6374 43.2397 11.646 43.3315 11.6547C43.4233 11.6633 43.5151 11.6806 43.6161 11.6892V13.5698C43.4692 13.544 43.3223 13.5267 43.1663 13.5095C43.0102 13.4922 42.8633 13.4836 42.7164 13.4836C42.3675 13.4836 42.037 13.5526 41.7249 13.682C41.4127 13.8114 41.1465 14.0098 40.917 14.26C40.6875 14.5188 40.5038 14.8294 40.3661 15.209C40.2284 15.5885 40.1642 16.0199 40.1642 16.5116V20.7215H38.0893V11.879H38.0985ZM53.155 20.7302H51.1168V19.4965H51.0801C50.8231 19.9451 50.4466 20.2988 49.9417 20.5662C49.4368 20.8337 48.9226 20.9717 48.3993 20.9717C47.1599 20.9717 46.2602 20.687 45.7094 20.109C45.1585 19.531 44.8831 18.6597 44.8831 17.4951V11.879H46.9579V17.3053C46.9579 18.0817 47.114 18.6338 47.4353 18.953C47.7475 19.2722 48.1973 19.4361 48.7666 19.4361C49.2072 19.4361 49.5653 19.3757 49.8591 19.2463C50.1529 19.1169 50.3916 18.953 50.566 18.7373C50.7496 18.5303 50.8781 18.2715 50.9608 17.9782C51.0434 17.6849 51.0801 17.3657 51.0801 17.0206V11.8876H53.155V20.7302ZM56.6896 17.8919C56.7538 18.4613 56.9834 18.8581 57.3781 19.091C57.7821 19.3153 58.2595 19.4361 58.8195 19.4361C59.0123 19.4361 59.2327 19.4189 59.4805 19.393C59.7284 19.3671 59.9671 19.3067 60.1783 19.2291C60.3986 19.1514 60.5731 19.0307 60.7199 18.8754C60.8577 18.7201 60.9219 18.5217 60.9127 18.2715C60.9036 18.0213 60.8026 17.8143 60.6189 17.659C60.4353 17.4951 60.2058 17.3743 59.9212 17.2708C59.6366 17.1759 59.3153 17.0896 58.948 17.0206C58.5808 16.9516 58.2136 16.8739 57.8372 16.7963C57.4516 16.7187 57.0752 16.6151 56.7171 16.503C56.3591 16.3908 56.0377 16.2355 55.7531 16.0371C55.4685 15.8473 55.239 15.5972 55.0738 15.2952C54.8993 14.9933 54.8167 14.6223 54.8167 14.1737C54.8167 13.6906 54.9452 13.2938 55.1931 12.966C55.441 12.6381 55.7623 12.3793 56.1387 12.1809C56.5243 11.9825 56.9466 11.8445 57.4149 11.7582C57.8831 11.6806 58.3329 11.6374 58.7553 11.6374C59.2418 11.6374 59.7101 11.6892 60.1507 11.7841C60.5914 11.879 60.9954 12.0343 61.3534 12.2586C61.7115 12.4742 62.0053 12.7589 62.244 13.104C62.4827 13.4491 62.6295 13.8718 62.6938 14.3635H60.5271C60.4262 13.8977 60.2058 13.5785 59.8478 13.4232C59.4897 13.2593 59.0766 13.1816 58.6175 13.1816C58.4706 13.1816 58.2962 13.1903 58.0942 13.2161C57.8923 13.242 57.7086 13.2852 57.525 13.3455C57.3506 13.4059 57.2037 13.5008 57.0752 13.6216C56.9558 13.7424 56.8916 13.8977 56.8916 14.0961C56.8916 14.3376 56.9834 14.5274 57.1578 14.6741C57.3322 14.8207 57.5617 14.9415 57.8464 15.045C58.131 15.1399 58.4523 15.2262 58.8195 15.2952C59.1868 15.3642 59.5632 15.4419 59.9488 15.5195C60.3252 15.5972 60.6924 15.7007 61.0596 15.8128C61.4269 15.925 61.7482 16.0803 62.0328 16.2787C62.3174 16.4771 62.5469 16.7187 62.7214 17.012C62.8958 17.3053 62.9876 17.6762 62.9876 18.1076C62.9876 18.6338 62.8591 19.0738 62.602 19.4448C62.3449 19.8071 62.0144 20.109 61.6105 20.3333C61.2065 20.5576 60.7475 20.7302 60.2517 20.8337C59.756 20.9372 59.2602 20.989 58.7736 20.989C58.1769 20.989 57.626 20.9286 57.1211 20.7992C56.6161 20.6698 56.1755 20.48 55.8082 20.2298C55.441 19.971 55.1472 19.6518 54.936 19.2722C54.7249 18.8926 54.6147 18.4354 54.5964 17.9092H56.6896V17.8919ZM63.5384 11.879H65.1084V9.22189H67.1832V11.879H69.0561V13.3369H67.1832V18.0644C67.1832 18.2715 67.1924 18.444 67.2108 18.5993C67.2291 18.746 67.275 18.8754 67.3393 18.9789C67.4036 19.0824 67.5045 19.1601 67.6423 19.2118C67.78 19.2636 67.9544 19.2895 68.1931 19.2895C68.34 19.2895 68.4869 19.2895 68.6338 19.2808C68.7807 19.2722 68.9276 19.255 69.0745 19.2205V20.7302C68.8449 20.756 68.6154 20.7733 68.4043 20.7992C68.1839 20.8251 67.9636 20.8337 67.7341 20.8337C67.1832 20.8337 66.7425 20.7819 66.412 20.687C66.0815 20.5921 65.8153 20.4455 65.6317 20.2557C65.4389 20.0659 65.3195 19.833 65.2461 19.5483C65.1818 19.2636 65.1359 18.9358 65.1267 18.5734V13.3542H63.5568V11.879H63.5384ZM70.525 11.879H72.4897V13.0781H72.5264C72.8202 12.5605 73.2242 12.1982 73.7475 11.9739C74.2708 11.7496 74.8308 11.6374 75.4459 11.6374C76.1896 11.6374 76.8322 11.7582 77.3831 12.0084C77.9339 12.2499 78.393 12.5864 78.7602 13.0177C79.1274 13.4491 79.3937 13.9494 79.5773 14.5188C79.7609 15.0882 79.8527 15.7007 79.8527 16.3477C79.8527 16.943 79.7701 17.521 79.6048 18.0731C79.4396 18.6338 79.1917 19.1256 78.8612 19.5569C78.5307 19.9882 78.1084 20.3247 77.5942 20.5835C77.0801 20.8423 76.4834 20.9717 75.7856 20.9717C75.4827 20.9717 75.1797 20.9458 74.8767 20.8941C74.5737 20.8423 74.28 20.756 74.0045 20.6439C73.7291 20.5317 73.4629 20.3851 73.2334 20.2039C72.9947 20.0228 72.8019 19.8157 72.6366 19.5828H72.5999V23.9997H70.525V11.879ZM77.7778 16.3132C77.7778 15.9164 77.7228 15.5281 77.6126 15.1486C77.5024 14.769 77.3372 14.4412 77.1168 14.1478C76.8965 13.8545 76.6211 13.6216 76.2997 13.4491C75.9692 13.2765 75.5928 13.1816 75.1705 13.1816C74.2983 13.1816 73.6373 13.4663 73.1966 14.0357C72.756 14.6051 72.5356 15.3642 72.5356 16.3132C72.5356 16.7618 72.5907 17.1759 72.7101 17.5555C72.8294 17.935 72.9947 18.2629 73.2334 18.5389C73.4629 18.815 73.7383 19.0307 74.0596 19.1859C74.381 19.3499 74.7574 19.4275 75.1797 19.4275C75.6571 19.4275 76.0519 19.3326 76.3824 19.1514C76.7129 18.9703 76.9791 18.7287 77.1903 18.444C77.4014 18.1507 77.5575 17.8229 77.6493 17.4519C77.7319 17.081 77.7778 16.7014 77.7778 16.3132ZM81.441 8.50586H83.5158V10.352H81.441V8.50586ZM81.441 11.879H83.5158V20.7302H81.441V11.879ZM85.3704 8.50586H87.4452V20.7302H85.3704V8.50586ZM93.8075 20.9717C93.0547 20.9717 92.3845 20.8509 91.7969 20.618C91.2093 20.3851 90.7136 20.0573 90.3004 19.6518C89.8965 19.2377 89.5843 18.746 89.3732 18.1766C89.162 17.6072 89.0519 16.9775 89.0519 16.2959C89.0519 15.623 89.162 15.0019 89.3732 14.4325C89.5843 13.8632 89.8965 13.3714 90.3004 12.9573C90.7044 12.5432 91.2093 12.224 91.7969 11.9911C92.3845 11.7582 93.0547 11.6374 93.8075 11.6374C94.5603 11.6374 95.2305 11.7582 95.8181 11.9911C96.4057 12.224 96.9014 12.5519 97.3146 12.9573C97.7185 13.3714 98.0307 13.8632 98.2418 14.4325C98.453 15.0019 98.5632 15.623 98.5632 16.2959C98.5632 16.9775 98.453 17.6072 98.2418 18.1766C98.0307 18.746 97.7185 19.2377 97.3146 19.6518C96.9106 20.0659 96.4057 20.3851 95.8181 20.618C95.2305 20.8509 94.5603 20.9717 93.8075 20.9717ZM93.8075 19.4275C94.2665 19.4275 94.6705 19.3326 95.0102 19.1514C95.3499 18.9703 95.6253 18.7287 95.8456 18.4354C96.066 18.1421 96.2221 17.8056 96.3322 17.4347C96.4332 17.0637 96.4883 16.6841 96.4883 16.2959C96.4883 15.9164 96.4332 15.5454 96.3322 15.1658C96.2312 14.7862 96.066 14.4584 95.8456 14.1651C95.6253 13.8718 95.3499 13.6389 95.0102 13.4577C94.6705 13.2765 94.2665 13.1816 93.8075 13.1816C93.3485 13.1816 92.9445 13.2765 92.6048 13.4577C92.2651 13.6389 91.9897 13.8804 91.7694 14.1651C91.549 14.4584 91.393 14.7862 91.2828 15.1658C91.1818 15.5454 91.1267 15.9164 91.1267 16.2959C91.1267 16.6841 91.1818 17.0637 91.2828 17.4347C91.3838 17.8056 91.549 18.1421 91.7694 18.4354C91.9897 18.7287 92.2651 18.9703 92.6048 19.1514C92.9445 19.3412 93.3485 19.4275 93.8075 19.4275ZM99.1691 11.879H100.739V9.22189H102.814V11.879H104.687V13.3369H102.814V18.0644C102.814 18.2715 102.823 18.444 102.841 18.5993C102.86 18.746 102.906 18.8754 102.97 18.9789C103.034 19.0824 103.135 19.1601 103.273 19.2118C103.411 19.2636 103.585 19.2895 103.824 19.2895C103.971 19.2895 104.118 19.2895 104.264 19.2808C104.411 19.2722 104.558 19.255 104.705 19.2205V20.7302C104.476 20.756 104.246 20.7733 104.035 20.7992C103.815 20.8251 103.594 20.8337 103.365 20.8337C102.814 20.8337 102.373 20.7819 102.043 20.687C101.712 20.5921 101.446 20.4455 101.262 20.2557C101.07 20.0659 100.95 19.833 100.877 19.5483C100.812 19.2636 100.767 18.9358 100.757 18.5734V13.3542H99.1875V11.879H99.1691Z" fill="#49718C"/>
<path d="M25.596 8.50611H16.0847L13.1468 0L10.1998 8.50611L0.688477 8.49748L8.39116 13.7599L5.44413 22.2574L13.1468 17.0036L20.8403 22.2574L17.9025 13.7599L25.596 8.50611Z" fill="#00B67A"/>
<path d="M18.5622 15.6836L17.9012 13.7598L13.1455 17.0035L18.5622 15.6836Z" fill="#005128"/>
</g>
<defs>
<clipPath id="clip0_1270_1688">
<rect x="0.688477" width="104" height="24" rx="4" fill="white"/>
</clipPath>
</defs>
</svg>
