<svg width="89" height="16" viewBox="0 0 89 16" fill="none" xmlns="http://www.w3.org/2000/svg">
<rect x="0.0703125" width="16" height="16" fill="#00B67A"/>
<path fill-rule="evenodd" clip-rule="evenodd" d="M9.48793 6.58605H14.0703L10.3637 9.4186L10.3637 9.41865L8.07261 11.1674L10.6823 10.4558L10.3787 9.46695L11.7791 14L8.07252 11.1674L4.3615 14L5.78133 9.4186L2.07031 6.5814L6.65269 6.58605L8.07252 2L9.48793 6.58605Z" fill="white"/>
<rect x="18.0703" width="16" height="16" fill="#00B67A"/>
<path fill-rule="evenodd" clip-rule="evenodd" d="M27.4879 6.58605H32.0703L28.3637 9.4186L28.3637 9.41865L26.0726 11.1674L28.6823 10.4558L28.3787 9.46695L29.7791 14L26.0725 11.1674L22.3615 14L23.7813 9.4186L20.0703 6.5814L24.6527 6.58605L26.0725 2L27.4879 6.58605Z" fill="white"/>
<rect x="36.0703" width="16" height="16" fill="#00B67A"/>
<path fill-rule="evenodd" clip-rule="evenodd" d="M45.4879 6.58605H50.0703L46.3637 9.4186L46.3637 9.41865L44.0726 11.1674L46.6823 10.4558L46.3787 9.46695L47.7791 14L44.0725 11.1674L40.3615 14L41.7813 9.4186L38.0703 6.5814L42.6527 6.58605L44.0725 2L45.4879 6.58605Z" fill="white"/>
<rect x="54.0703" width="16" height="16" fill="#00B67A"/>
<path fill-rule="evenodd" clip-rule="evenodd" d="M63.4879 6.58605H68.0703L64.3637 9.4186L64.3637 9.41865L62.0726 11.1674L64.6823 10.4558L64.3787 9.46695L65.7791 14L62.0725 11.1674L58.3615 14L59.7813 9.4186L56.0703 6.5814L60.6527 6.58605L62.0725 2L63.4879 6.58605Z" fill="white"/>
<rect x="72.0703" width="16" height="16" fill="#00B67A"/>
<path fill-rule="evenodd" clip-rule="evenodd" d="M81.4879 6.58605H86.0703L82.3637 9.4186L82.3637 9.41865L80.0726 11.1674L82.6823 10.4558L82.3787 9.46695L83.7791 14L80.0725 11.1674L76.3615 14L77.7813 9.4186L74.0703 6.5814L78.6527 6.58605L80.0725 2L81.4879 6.58605Z" fill="white"/>
</svg>
