<svg width="105" height="24" viewBox="0 0 105 24" fill="none" xmlns="http://www.w3.org/2000/svg">
<g clip-path="url(#clip0_1270_1848)">
<path d="M27.3998 8.50586H37.9302V10.352H33.7896V20.7302H31.5128V10.352H27.3906V8.50586H27.3998ZM37.4803 11.879H39.4266V13.5871H39.4634C39.5276 13.3455 39.647 13.1126 39.8214 12.8883C39.9958 12.664 40.207 12.4483 40.4549 12.2672C40.7028 12.0774 40.9782 11.9307 41.2812 11.81C41.5841 11.6978 41.8963 11.6374 42.2084 11.6374C42.4471 11.6374 42.6216 11.646 42.7134 11.6547C42.8052 11.6633 42.897 11.6806 42.998 11.6892V13.5698C42.8511 13.544 42.7042 13.5267 42.5481 13.5095C42.392 13.4922 42.2451 13.4836 42.0982 13.4836C41.7494 13.4836 41.4189 13.5526 41.1067 13.682C40.7946 13.8114 40.5283 14.0098 40.2988 14.26C40.0693 14.5188 39.8857 14.8294 39.748 15.209C39.6103 15.5885 39.546 16.0199 39.546 16.5116V20.7215H37.4711V11.879H37.4803ZM52.5368 20.7302H50.4987V19.4965H50.462C50.2049 19.9451 49.8285 20.2988 49.3235 20.5662C48.8186 20.8337 48.3045 20.9717 47.7812 20.9717C46.5418 20.9717 45.642 20.687 45.0912 20.109C44.5403 19.531 44.2649 18.6597 44.2649 17.4951V11.879H46.3398V17.3053C46.3398 18.0817 46.4958 18.6338 46.8172 18.953C47.1293 19.2722 47.5792 19.4361 48.1484 19.4361C48.5891 19.4361 48.9471 19.3757 49.2409 19.2463C49.5347 19.1169 49.7734 18.953 49.9478 18.7373C50.1314 18.5303 50.26 18.2715 50.3426 17.9782C50.4252 17.6849 50.462 17.3657 50.462 17.0206V11.8876H52.5368V20.7302ZM56.0714 17.8919C56.1357 18.4613 56.3652 18.8581 56.76 19.091C57.1639 19.3153 57.6413 19.4361 58.2014 19.4361C58.3942 19.4361 58.6145 19.4189 58.8624 19.393C59.1103 19.3671 59.349 19.3067 59.5601 19.2291C59.7804 19.1514 59.9549 19.0307 60.1018 18.8754C60.2395 18.7201 60.3038 18.5217 60.2946 18.2715C60.2854 18.0213 60.1844 17.8143 60.0008 17.659C59.8172 17.4951 59.5877 17.3743 59.303 17.2708C59.0184 17.1759 58.6971 17.0896 58.3299 17.0206C57.9627 16.9516 57.5954 16.8739 57.219 16.7963C56.8334 16.7187 56.457 16.6151 56.099 16.503C55.7409 16.3908 55.4196 16.2355 55.135 16.0371C54.8504 15.8473 54.6208 15.5972 54.4556 15.2952C54.2812 14.9933 54.1985 14.6223 54.1985 14.1737C54.1985 13.6906 54.3271 13.2938 54.5749 12.966C54.8228 12.6381 55.1442 12.3793 55.5206 12.1809C55.9062 11.9825 56.3285 11.8445 56.7967 11.7582C57.2649 11.6806 57.7148 11.6374 58.1371 11.6374C58.6237 11.6374 59.0919 11.6892 59.5326 11.7841C59.9732 11.879 60.3772 12.0343 60.7353 12.2586C61.0933 12.4742 61.3871 12.7589 61.6258 13.104C61.8645 13.4491 62.0114 13.8718 62.0756 14.3635H59.909C59.808 13.8977 59.5877 13.5785 59.2296 13.4232C58.8716 13.2593 58.4584 13.1816 57.9994 13.1816C57.8525 13.1816 57.678 13.1903 57.4761 13.2161C57.2741 13.242 57.0905 13.2852 56.9069 13.3455C56.7324 13.4059 56.5855 13.5008 56.457 13.6216C56.3377 13.7424 56.2734 13.8977 56.2734 14.0961C56.2734 14.3376 56.3652 14.5274 56.5396 14.6741C56.7141 14.8207 56.9436 14.9415 57.2282 15.045C57.5128 15.1399 57.8341 15.2262 58.2014 15.2952C58.5686 15.3642 58.945 15.4419 59.3306 15.5195C59.707 15.5972 60.0742 15.7007 60.4415 15.8128C60.8087 15.925 61.13 16.0803 61.4146 16.2787C61.6992 16.4771 61.9288 16.7187 62.1032 17.012C62.2776 17.3053 62.3694 17.6762 62.3694 18.1076C62.3694 18.6338 62.2409 19.0738 61.9838 19.4448C61.7268 19.8071 61.3963 20.109 60.9923 20.3333C60.5884 20.5576 60.1293 20.7302 59.6336 20.8337C59.1378 20.9372 58.642 20.989 58.1555 20.989C57.5587 20.989 57.0079 20.9286 56.5029 20.7992C55.998 20.6698 55.5573 20.48 55.1901 20.2298C54.8228 19.971 54.529 19.6518 54.3179 19.2722C54.1067 18.8926 53.9966 18.4354 53.9782 17.9092H56.0714V17.8919ZM62.9203 11.879H64.4902V9.22189H66.5651V11.879H68.4379V13.3369H66.5651V18.0644C66.5651 18.2715 66.5742 18.444 66.5926 18.5993C66.611 18.746 66.6569 18.8754 66.7211 18.9789C66.7854 19.0824 66.8864 19.1601 67.0241 19.2118C67.1618 19.2636 67.3362 19.2895 67.5749 19.2895C67.7218 19.2895 67.8687 19.2895 68.0156 19.2808C68.1625 19.2722 68.3094 19.255 68.4563 19.2205V20.7302C68.2268 20.756 67.9973 20.7733 67.7861 20.7992C67.5658 20.8251 67.3454 20.8337 67.1159 20.8337C66.5651 20.8337 66.1244 20.7819 65.7939 20.687C65.4634 20.5921 65.1971 20.4455 65.0135 20.2557C64.8207 20.0659 64.7014 19.833 64.6279 19.5483C64.5636 19.2636 64.5177 18.9358 64.5086 18.5734V13.3542H62.9386V11.879H62.9203ZM69.9069 11.879H71.8715V13.0781H71.9083C72.2021 12.5605 72.606 12.1982 73.1293 11.9739C73.6526 11.7496 74.2126 11.6374 74.8278 11.6374C75.5714 11.6374 76.2141 11.7582 76.7649 12.0084C77.3158 12.2499 77.7748 12.5864 78.142 13.0177C78.5093 13.4491 78.7755 13.9494 78.9591 14.5188C79.1427 15.0882 79.2345 15.7007 79.2345 16.3477C79.2345 16.943 79.1519 17.521 78.9867 18.0731C78.8214 18.6338 78.5735 19.1256 78.243 19.5569C77.9125 19.9882 77.4902 20.3247 76.9761 20.5835C76.4619 20.8423 75.8652 20.9717 75.1675 20.9717C74.8645 20.9717 74.5615 20.9458 74.2586 20.8941C73.9556 20.8423 73.6618 20.756 73.3864 20.6439C73.111 20.5317 72.8447 20.3851 72.6152 20.2039C72.3765 20.0228 72.1837 19.8157 72.0184 19.5828H71.9817V23.9997H69.9069V11.879ZM77.1597 16.3132C77.1597 15.9164 77.1046 15.5281 76.9944 15.1486C76.8843 14.769 76.719 14.4412 76.4987 14.1478C76.2783 13.8545 76.0029 13.6216 75.6816 13.4491C75.3511 13.2765 74.9747 13.1816 74.5523 13.1816C73.6802 13.1816 73.0191 13.4663 72.5785 14.0357C72.1378 14.6051 71.9174 15.3642 71.9174 16.3132C71.9174 16.7618 71.9725 17.1759 72.0919 17.5555C72.2112 17.935 72.3765 18.2629 72.6152 18.5389C72.8447 18.815 73.1201 19.0307 73.4415 19.1859C73.7628 19.3499 74.1392 19.4275 74.5615 19.4275C75.0389 19.4275 75.4337 19.3326 75.7642 19.1514C76.0947 18.9703 76.361 18.7287 76.5721 18.444C76.7833 18.1507 76.9393 17.8229 77.0312 17.4519C77.1138 17.081 77.1597 16.7014 77.1597 16.3132ZM80.8228 8.50586H82.8977V10.352H80.8228V8.50586ZM80.8228 11.879H82.8977V20.7302H80.8228V11.879ZM84.7522 8.50586H86.8271V20.7302H84.7522V8.50586ZM93.1893 20.9717C92.4365 20.9717 91.7663 20.8509 91.1788 20.618C90.5912 20.3851 90.0954 20.0573 89.6823 19.6518C89.2783 19.2377 88.9662 18.746 88.755 18.1766C88.5439 17.6072 88.4337 16.9775 88.4337 16.2959C88.4337 15.623 88.5439 15.0019 88.755 14.4325C88.9662 13.8632 89.2783 13.3714 89.6823 12.9573C90.0862 12.5432 90.5912 12.224 91.1788 11.9911C91.7663 11.7582 92.4365 11.6374 93.1893 11.6374C93.9422 11.6374 94.6124 11.7582 95.1999 11.9911C95.7875 12.224 96.2833 12.5519 96.6964 12.9573C97.1004 13.3714 97.4125 13.8632 97.6237 14.4325C97.8348 15.0019 97.945 15.623 97.945 16.2959C97.945 16.9775 97.8348 17.6072 97.6237 18.1766C97.4125 18.746 97.1004 19.2377 96.6964 19.6518C96.2924 20.0659 95.7875 20.3851 95.1999 20.618C94.6124 20.8509 93.9422 20.9717 93.1893 20.9717ZM93.1893 19.4275C93.6484 19.4275 94.0523 19.3326 94.392 19.1514C94.7317 18.9703 95.0071 18.7287 95.2275 18.4354C95.4478 18.1421 95.6039 17.8056 95.7141 17.4347C95.8151 17.0637 95.8701 16.6841 95.8701 16.2959C95.8701 15.9164 95.8151 15.5454 95.7141 15.1658C95.6131 14.7862 95.4478 14.4584 95.2275 14.1651C95.0071 13.8718 94.7317 13.6389 94.392 13.4577C94.0523 13.2765 93.6484 13.1816 93.1893 13.1816C92.7303 13.1816 92.3263 13.2765 91.9867 13.4577C91.647 13.6389 91.3715 13.8804 91.1512 14.1651C90.9309 14.4584 90.7748 14.7862 90.6646 15.1658C90.5636 15.5454 90.5086 15.9164 90.5086 16.2959C90.5086 16.6841 90.5636 17.0637 90.6646 17.4347C90.7656 17.8056 90.9309 18.1421 91.1512 18.4354C91.3715 18.7287 91.647 18.9703 91.9867 19.1514C92.3263 19.3412 92.7303 19.4275 93.1893 19.4275ZM98.5509 11.879H100.121V9.22189H102.196V11.879H104.069V13.3369H102.196V18.0644C102.196 18.2715 102.205 18.444 102.223 18.5993C102.242 18.746 102.288 18.8754 102.352 18.9789C102.416 19.0824 102.517 19.1601 102.655 19.2118C102.792 19.2636 102.967 19.2895 103.206 19.2895C103.352 19.2895 103.499 19.2895 103.646 19.2808C103.793 19.2722 103.94 19.255 104.087 19.2205V20.7302C103.857 20.756 103.628 20.7733 103.417 20.7992C103.196 20.8251 102.976 20.8337 102.747 20.8337C102.196 20.8337 101.755 20.7819 101.425 20.687C101.094 20.5921 100.828 20.4455 100.644 20.2557C100.451 20.0659 100.332 19.833 100.259 19.5483C100.194 19.2636 100.148 18.9358 100.139 18.5734V13.3542H98.5693V11.879H98.5509Z" fill="white"/>
<path d="M24.9778 8.50611H15.4665L12.5286 0L9.58161 8.50611L0.0703125 8.49748L7.773 13.7599L4.82596 22.2574L12.5286 17.0036L20.2221 22.2574L17.2843 13.7599L24.9778 8.50611Z" fill="#00B67A"/>
<path d="M17.944 15.6836L17.283 13.7598L12.5273 17.0035L17.944 15.6836Z" fill="#005128"/>
</g>
<defs>
<clipPath id="clip0_1270_1848">
<rect width="104" height="24" fill="white" transform="translate(0.0703125)"/>
</clipPath>
</defs>
</svg>
