<svg width="18" height="22" viewBox="0 0 18 22" fill="none" xmlns="http://www.w3.org/2000/svg">
<path d="M4.63793 7.89655C4.63793 8.1727 4.86179 8.39655 5.13793 8.39655C5.41407 8.39655 5.63793 8.1727 5.63793 7.89655H4.63793ZM12.2241 7.89655C12.2241 8.1727 12.448 8.39655 12.7241 8.39655C13.0003 8.39655 13.2241 8.1727 13.2241 7.89655H12.2241ZM16.5718 17.7344L16.0738 17.7787L16.5718 17.7344ZM15.5638 6.39422L15.0657 6.43849L15.5638 6.39422ZM2.29829 6.39422L1.80025 6.34995L2.29829 6.39422ZM3.29436 5.98276H14.5677V4.98276H3.29436V5.98276ZM15.0657 6.43849L16.0738 17.7787L17.0698 17.6901L16.0618 6.34995L15.0657 6.43849ZM13.5836 20.5H4.2785V21.5H13.5836V20.5ZM1.78831 17.7787L2.79633 6.43849L1.80025 6.34995L0.792241 17.6901L1.78831 17.7787ZM5.63793 7.89655C5.63793 5.96438 5.64533 4.34799 6.07957 3.20319C6.28862 2.65206 6.58705 2.24152 7.01257 1.96214C7.44196 1.68022 8.04933 1.5 8.93103 1.5V0.5C7.91618 0.5 7.10114 0.707709 6.46372 1.12622C5.82243 1.54727 5.40966 2.14967 5.14457 2.84854C4.63053 4.20373 4.63793 6.03563 4.63793 7.89655H5.63793ZM8.93103 1.5C9.81273 1.5 10.4201 1.68022 10.8495 1.96214C11.275 2.24152 11.5734 2.65206 11.7825 3.20319C12.2167 4.34799 12.2241 5.96438 12.2241 7.89655H13.2241C13.2241 6.03563 13.2315 4.20373 12.7175 2.84854C12.4524 2.14967 12.0396 1.54727 11.3983 1.12622C10.7609 0.707709 9.94588 0.5 8.93103 0.5V1.5ZM4.2785 20.5C2.81041 20.5 1.65833 19.241 1.78831 17.7787L0.792241 17.6901C0.610264 19.7374 2.22318 21.5 4.2785 21.5V20.5ZM16.0738 17.7787C16.2037 19.241 15.0517 20.5 13.5836 20.5V21.5C15.6389 21.5 17.2518 19.7374 17.0698 17.6901L16.0738 17.7787ZM14.5677 5.98276C14.8267 5.98276 15.0428 6.18052 15.0657 6.43849L16.0618 6.34995C15.993 5.57604 15.3447 4.98276 14.5677 4.98276V5.98276ZM3.29436 4.98276C2.51741 4.98276 1.86905 5.57604 1.80025 6.34995L2.79633 6.43849C2.81926 6.18052 3.03538 5.98276 3.29436 5.98276V4.98276Z" fill="white"/>
</svg>
