<svg width="30" height="21" fill="none" xmlns="http://www.w3.org/2000/svg"><path d="M0 0v1.875h17.813v14.063H12.04c-.418-1.612-1.867-2.813-3.604-2.813-1.736 0-3.185 1.2-3.603 2.813H3.75V11.25H1.875v6.563h2.959c.418 1.611 1.867 2.812 3.604 2.812 1.736 0 3.185-1.2 3.603-2.813h7.793c.418 1.612 1.867 2.813 3.604 2.813 1.736 0 3.185-1.2 3.603-2.813H30v-7.646l-.06-.147-1.874-5.625-.203-.644h-8.175V0H0zm.938 3.75v1.875h8.437V3.75H.937zm18.75 1.875h6.825l1.612 4.805v5.508h-1.084c-.418-1.612-1.867-2.813-3.604-2.813-1.736 0-3.185 1.2-3.603 2.813h-.146V5.624zM1.875 7.5v1.875H7.5V7.5H1.875zM8.438 15a1.86 1.86 0 011.874 1.875 1.86 1.86 0 01-1.874 1.875 1.86 1.86 0 01-1.876-1.875A1.86 1.86 0 018.438 15zm15 0a1.86 1.86 0 011.875 1.875 1.86 1.86 0 01-1.875 1.875 1.86 1.86 0 01-1.875-1.875A1.86 1.86 0 0123.438 15z" fill="#2C8081"/></svg>