<svg width="24" height="22" fill="none" xmlns="http://www.w3.org/2000/svg"><path fill-rule="evenodd" clip-rule="evenodd" d="M17.75 0C15.088 0 12.89 2.473 12 3.64 11.11 2.473 8.912 0 6.25 0 2.804 0 0 3.168 0 7.063c0 2.124.843 4.104 2.32 5.459 1.475 1.355 9.327 9.332 9.327 9.332a.499.499 0 00.707 0s8.914-8.7 9.985-10.013C23.411 10.53 24 8.836 24 7.063 24 3.168 21.196 0 17.75 0zM6.25 1C3.355 1 1 3.72 1 7.063c0 1.635.57 3.166 1.584 4.305C3.6 12.508 12 20.794 12 20.794s8.546-8.372 9.508-9.515C22.47 10.135 23 8.638 23 7.063 23 3.72 20.645 1 17.75 1c-2.862 0-5.305 3.733-5.33 3.771-.184.285-.656.285-.84 0C11.555 4.733 9.112 1 6.25 1z" fill="#333"/></svg>