<svg width="33" height="29" viewBox="0 0 33 29" fill="none" xmlns="http://www.w3.org/2000/svg">
<path d="M29.3914 3.72289C28.6466 2.97769 27.7622 2.38654 26.7888 1.98322C25.8154 1.5799 24.7721 1.37231 23.7185 1.37231C22.6649 1.37231 21.6216 1.5799 20.6482 1.98322C19.6748 2.38654 18.7905 2.97769 18.0456 3.72289L16.4998 5.26873L14.9539 3.72289C13.4494 2.21834 11.4088 1.37309 9.28102 1.37309C7.15326 1.37309 5.11265 2.21834 3.6081 3.72289C2.10355 5.22744 1.2583 7.26805 1.2583 9.39581C1.2583 11.5236 2.10355 13.5642 3.6081 15.0687L5.15393 16.6146L16.4998 27.9604L27.8456 16.6146L29.3914 15.0687C30.1366 14.3239 30.7278 13.4395 31.1311 12.4661C31.5344 11.4927 31.742 10.4494 31.742 9.39581C31.742 8.34218 31.5344 7.29888 31.1311 6.3255C30.7278 5.35212 30.1366 4.46775 29.3914 3.72289V3.72289Z" stroke="#457E80" stroke-width="2" stroke-linecap="round" stroke-linejoin="round"/>
</svg>
