<svg width="22" height="19" viewBox="0 0 22 19" fill="none" xmlns="http://www.w3.org/2000/svg">
<path d="M20.4409 1.52238C19.4013 0.507317 17.9651 0 16.1316 0C15.6242 0 15.1063 0.0879786 14.5785 0.26385C14.0505 0.43985 13.5594 0.677297 13.1055 0.97602C12.6511 1.27466 12.2606 1.5551 11.933 1.81693C11.6057 2.07885 11.2946 2.35719 11 2.65174C10.7053 2.35719 10.3943 2.07885 10.067 1.81693C9.73951 1.5551 9.34881 1.27483 8.89447 0.97602C8.44022 0.677168 7.94911 0.439893 7.42124 0.26385C6.89341 0.0880216 6.37565 0 5.86824 0C4.03484 0 2.59855 0.507446 1.55915 1.52238C0.519744 2.53723 0 3.94489 0 5.74548C0 6.29386 0.0963205 6.8588 0.288575 7.4396C0.480829 8.02071 0.699915 8.51594 0.945403 8.92509C1.19085 9.33419 1.46919 9.73315 1.78021 10.122C2.09123 10.5107 2.31853 10.7787 2.46159 10.926C2.60478 11.0733 2.71736 11.1798 2.79919 11.2453L10.4598 18.636C10.6072 18.7833 10.7872 18.8572 11 18.8572C11.2127 18.8572 11.3929 18.7833 11.5402 18.636L19.1886 11.2696C21.0629 9.39568 22 7.55415 22 5.74531C22 3.94459 21.4803 2.53706 20.4409 1.52238Z" fill="white"/>
</svg>
