<svg width="21" height="21" viewBox="0 0 21 21" fill="none" xmlns="http://www.w3.org/2000/svg">
<path d="M12.2501 17.5C12.2501 19.4331 10.683 21 8.74995 21C6.81693 21 5.25 19.4331 5.25 17.5C5.25 15.567 6.81693 13.9999 8.74995 13.9999C10.683 13.9999 12.2501 15.567 12.2501 17.5Z" fill="#FFA000"/>
<path d="M14.8819 10.431C11.9157 10.0073 9.62505 7.45669 9.62505 4.37507C9.62505 3.49996 9.81219 2.66972 10.1438 1.91621C9.69587 1.81127 9.23044 1.75007 8.74995 1.75007C5.37257 1.75007 2.625 4.49747 2.625 7.87502V10.3145C2.625 12.0461 1.86637 13.6806 0.535446 14.8059C0.195145 15.0963 0 15.5207 0 15.9687C0 16.8132 0.686852 17.5001 1.5312 17.5001H15.9687C16.8132 17.5001 17.5001 16.8132 17.5001 15.9687C17.5001 15.5207 17.3049 15.0963 16.9558 14.798C15.6643 13.7052 14.9153 12.1187 14.8819 10.431Z" fill="#FFC107"/>
<path d="M20.1251 4.37505C20.1251 6.79129 18.1663 8.74995 15.7501 8.74995C13.3338 8.74995 11.375 6.79129 11.375 4.37505C11.375 1.95882 13.3338 0 15.7501 0C18.1663 0 20.1251 1.95882 20.1251 4.37505Z" fill="#F44336"/>
</svg>
