<svg width="17" height="16" viewBox="0 0 17 16" fill="none" xmlns="http://www.w3.org/2000/svg">
<g clip-path="url(#clip0)">
<path d="M8.5 0C4.07803 0 0.5 3.57834 0.5 8C0.5 12.422 4.07834 16 8.5 16C12.922 16 16.5 12.4217 16.5 8C16.5 3.57803 12.9217 0 8.5 0ZM8.5 14.75C4.76897 14.75 1.75 11.7308 1.75 8C1.75 4.26897 4.76922 1.25 8.5 1.25C12.231 1.25 15.25 4.26922 15.25 8C15.25 11.731 12.2308 14.75 8.5 14.75Z" fill="#D32F2F"/>
<path d="M8.5 4.0274C8.15481 4.0274 7.875 4.30722 7.875 4.6524V8.67719C7.875 9.02237 8.15481 9.30219 8.5 9.30219C8.84519 9.30219 9.125 9.02237 9.125 8.67719V4.6524C9.125 4.30722 8.84519 4.0274 8.5 4.0274Z" fill="#D32F2F"/>
<path d="M8.5 11.755C8.96599 11.755 9.34375 11.3772 9.34375 10.9113C9.34375 10.4453 8.96599 10.0675 8.5 10.0675C8.03401 10.0675 7.65625 10.4453 7.65625 10.9113C7.65625 11.3772 8.03401 11.755 8.5 11.755Z" fill="#D32F2F"/>
</g>
<defs>
<clipPath id="clip0">
<rect width="16" height="16" fill="white" transform="translate(0.5)"/>
</clipPath>
</defs>
</svg>
