<svg width="16" height="16" viewBox="0 0 16 16" fill="none" xmlns="http://www.w3.org/2000/svg">
<path d="M8 0C3.57837 0 0 3.57803 0 8C0 12.4217 3.57803 16 8 16C12.4216 16 16 12.422 16 8C16 3.57834 12.422 0 8 0ZM8 14.75C4.26925 14.75 1.25 11.731 1.25 8C1.25 4.26922 4.26897 1.25 8 1.25C11.7308 1.25 14.75 4.26897 14.75 8C14.75 11.7308 11.731 14.75 8 14.75Z" fill="#D32F2F"/>
<path d="M10.737 9.85319L8.88386 8.00001L10.737 6.14682C10.9811 5.90275 10.9811 5.50704 10.7371 5.26294C10.493 5.01885 10.0972 5.01888 9.8532 5.26294L7.99998 7.11613L6.14676 5.26294C5.90273 5.01885 5.50695 5.01885 5.26289 5.26294C5.01883 5.50704 5.01883 5.90275 5.26292 6.14682L7.11611 8.00001L5.26292 9.85319C5.01883 10.0973 5.01879 10.493 5.26289 10.7371C5.50704 10.9812 5.90276 10.9811 6.14676 10.7371L7.99998 8.88388L9.8532 10.7371C10.0972 10.9811 10.493 10.9812 10.7371 10.7371C10.9812 10.493 10.9811 10.0973 10.737 9.85319Z" fill="#D32F2F"/>
</svg>
