<svg width="16" height="16" viewBox="0 0 16 16" fill="none" xmlns="http://www.w3.org/2000/svg">
<path d="M11.5364 5.46155C11.7805 5.70569 11.7805 6.10144 11.5364 6.34546L7.34351 10.5385C7.09937 10.7825 6.70374 10.7825 6.45959 10.5385L4.46362 8.54236C4.21948 8.29834 4.21948 7.90259 4.46362 7.65857C4.70764 7.41443 5.10339 7.41443 5.34741 7.65857L6.90149 9.21265L10.6525 5.46155C10.8966 5.21753 11.2924 5.21753 11.5364 5.46155ZM16 8C16 12.422 12.4214 16 8 16C3.578 16 0 12.4214 0 8C0 3.578 3.57861 0 8 0C12.422 0 16 3.57861 16 8ZM14.75 8C14.75 4.26892 11.7306 1.25 8 1.25C4.26892 1.25 1.25 4.26941 1.25 8C1.25 11.7311 4.26941 14.75 8 14.75C11.7311 14.75 14.75 11.7306 14.75 8Z" fill="#50BD47"/>
</svg>
