<svg width="14" height="13" viewBox="0 0 14 13" fill="none" xmlns="http://www.w3.org/2000/svg">
<path d="M6.87305 9.722C6.59705 9.722 6.37305 9.49783 6.37305 9.22162V5.26991C6.37305 4.9937 6.59705 4.76953 6.87305 4.76953C7.14905 4.76953 7.37305 4.9937 7.37305 5.26991V9.22162C7.37305 9.49808 7.1493 9.722 6.87305 9.722Z" fill="#333333"/>
<path d="M6.87305 4.27469C6.74055 4.27469 6.61305 4.22219 6.52055 4.12719C6.42555 4.03469 6.37305 3.90719 6.37305 3.77469C6.37305 3.64219 6.42555 3.51469 6.52055 3.42219C6.70555 3.23469 7.04055 3.23469 7.22555 3.41969C7.32055 3.51469 7.37305 3.64219 7.37305 3.77469C7.37305 3.90469 7.32055 4.03469 7.22555 4.12719C7.13305 4.22219 7.00555 4.27469 6.87305 4.27469Z" fill="#333333"/>
<path d="M6.85604 13C6.28729 13 5.72354 12.9259 5.18029 12.7796C2.83929 12.1494 1.00629 10.2087 0.510545 7.83513C0.00529486 5.41706 0.937795 2.87516 2.88654 1.35927C4.01304 0.482862 5.43379 0 6.88729 0C7.89354 0 8.8928 0.234176 9.7773 0.676758C11.9615 1.77033 13.3728 4.05504 13.3728 6.49762C13.3728 8.49062 12.433 10.4116 10.859 11.636C9.72855 12.5156 8.30679 13 6.85604 13ZM6.88754 1.00075C5.65529 1.00075 4.45229 1.40856 3.50054 2.14936C1.85129 3.43232 1.06179 5.58369 1.48954 7.63022C1.90904 9.63798 3.45979 11.28 5.44029 11.8131C5.89879 11.9365 6.37529 11.9992 6.85604 11.9992H6.85629C8.08579 11.9992 9.28929 11.5897 10.2455 10.8459C11.5778 9.80961 12.373 8.18414 12.373 6.49762C12.373 4.43082 11.1788 2.49737 9.33029 1.57193C8.58379 1.1984 7.73929 1.00075 6.88754 1.00075Z" fill="#333333"/>
</svg>
