<svg width="20" height="20" viewBox="0 0 20 20" fill="none" xmlns="http://www.w3.org/2000/svg">
<path d="M9.99935 1.6665C5.39935 1.6665 1.66602 5.39984 1.66602 9.99984C1.66602 14.5998 5.39935 18.3332 9.99935 18.3332C14.5993 18.3332 18.3327 14.5998 18.3327 9.99984C18.3327 5.39984 14.5993 1.6665 9.99935 1.6665ZM10.8327 15.8332H9.16602V14.1665H10.8327V15.8332ZM12.5577 9.37484L11.8077 10.1415C11.2077 10.7498 10.8327 11.2498 10.8327 12.4998H9.16602V12.0832C9.16602 11.1665 9.54102 10.3332 10.141 9.72484L11.1743 8.67484C11.4827 8.37484 11.666 7.95817 11.666 7.49984C11.666 6.58317 10.916 5.83317 9.99935 5.83317C9.08268 5.83317 8.33268 6.58317 8.33268 7.49984H6.66602C6.66602 5.65817 8.15768 4.1665 9.99935 4.1665C11.841 4.1665 13.3327 5.65817 13.3327 7.49984C13.3327 8.23317 13.0327 8.89984 12.5577 9.37484Z" fill="#286278"/>
</svg>
