<svg width="12" height="12" viewBox="0 0 12 12" fill="none" xmlns="http://www.w3.org/2000/svg">
<path d="M6 0C2.68548 0 0 2.70968 0 6C0 9.31452 2.68548 12 6 12C9.29032 12 12 9.31452 12 6C12 2.70968 9.29032 0 6 0ZM6 10.8387C3.31452 10.8387 1.16129 8.68548 1.16129 6C1.16129 3.33871 3.31452 1.16129 6 1.16129C8.66129 1.16129 10.8387 3.33871 10.8387 6C10.8387 8.68548 8.66129 10.8387 6 10.8387ZM8.58871 4.66935C8.58871 3.45968 7.30645 2.51613 6.12097 2.51613C4.98387 2.51613 4.25806 3 3.70161 3.84677C3.60484 3.96774 3.62903 4.1371 3.75 4.23387L4.42742 4.74194C4.54839 4.83871 4.74194 4.81452 4.83871 4.69355C5.20161 4.23387 5.46774 3.96774 6.02419 3.96774C6.45968 3.96774 6.99194 4.23387 6.99194 4.66935C6.99194 4.98387 6.72581 5.12903 6.29032 5.37097C5.80645 5.66129 5.15323 6 5.15323 6.87097V7.06452C5.15323 7.23387 5.27419 7.35484 5.44355 7.35484H6.53226C6.70161 7.35484 6.82258 7.23387 6.82258 7.06452V6.91935C6.82258 6.31452 8.58871 6.29032 8.58871 4.66935ZM7.01613 8.70968C7.01613 8.15323 6.55645 7.69355 6 7.69355C5.41935 7.69355 4.98387 8.15323 4.98387 8.70968C4.98387 9.29032 5.41935 9.72581 6 9.72581C6.55645 9.72581 7.01613 9.29032 7.01613 8.70968Z" fill="#286378"/>
</svg>
