<svg width="22" height="22" viewBox="0 0 22 22" fill="none" xmlns="http://www.w3.org/2000/svg">
<g id="Group">
<path id="Vector" d="M19.0474 6.28596C19.0474 7.17003 19.3986 8.01787 20.0237 8.64298C21.3254 9.94473 21.3254 12.0553 20.0237 13.357C19.3986 13.9821 19.0474 14.83 19.0474 15.714C19.0474 17.555 17.555 19.0474 15.714 19.0474C14.83 19.0474 13.9821 19.3986 13.357 20.0237C12.0553 21.3254 9.94473 21.3254 8.64298 20.0237C8.01787 19.3986 7.16998 19.0474 6.28596 19.0474C4.44499 19.0474 2.95262 17.555 2.95262 15.714C2.95262 14.83 2.60142 13.9821 1.97631 13.357C0.674563 12.0553 0.674563 9.94473 1.97631 8.64298C2.60142 8.01787 2.95262 7.16998 2.95262 6.28596C2.95262 4.44499 4.44504 2.95262 6.28596 2.95262C7.17003 2.95262 8.01787 2.60142 8.64298 1.97631C9.94473 0.674563 12.0553 0.674563 13.357 1.97631C13.9821 2.60142 14.83 2.95262 15.714 2.95262C17.555 2.95258 19.0474 4.44499 19.0474 6.28596Z" stroke="#F7F7F7" stroke-width="1.2" stroke-miterlimit="10"/>
<path id="Vector_2" d="M10.9999 16.6432C14.1165 16.6432 16.643 14.1166 16.643 11C16.643 7.88335 14.1165 5.35681 10.9999 5.35681C7.88323 5.35681 5.35669 7.88335 5.35669 11C5.35669 14.1166 7.88323 16.6432 10.9999 16.6432Z" stroke="#F7F7F7" stroke-width="1.2" stroke-miterlimit="10"/>
<path id="Vector_3" d="M13.8606 9.12952L10.1197 12.8704L8.13916 10.89" stroke="#F7F7F7" stroke-width="1.2" stroke-miterlimit="10" stroke-linecap="round"/>
</g>
</svg>
