<svg width="24" height="24" viewBox="0 0 24 24" fill="none" xmlns="http://www.w3.org/2000/svg">
<g id="24_fire">
<path id="Vector" d="M14.3125 1C9.62406 3.70138 10.1875 11.3125 10.1875 11.3125C10.1875 11.3125 8.12501 10.625 8.12501 7.53126C5.66431 8.95811 4 11.7006 4 14.75C4 19.3063 7.69365 23 12.25 23C16.8064 23 20.5 19.3063 20.5 14.75C20.5 8.04688 14.3125 6.67187 14.3125 1ZM12.9747 20.1573C11.3169 20.5706 9.6378 19.5618 9.22438 17.9039C8.81106 16.2461 9.81989 14.5669 11.4778 14.1536C15.4803 13.1557 15.9819 10.9049 15.9819 10.9049C15.9819 10.9049 17.9778 18.9099 12.9747 20.1573Z" fill="#FF7B1A"/>
</g>
</svg>
