<svg width="24" height="24" viewBox="0 0 24 24" fill="none" xmlns="http://www.w3.org/2000/svg">
<g id="g2799">
<g id="Clip path group">
<mask id="mask0_142_446" style="mask-type:luminance" maskUnits="userSpaceOnUse" x="0" y="0" width="24" height="24">
<g id="clipPath2805">
<path id="path2803" d="M0 1.90735e-06H24V24H0V1.90735e-06Z" fill="white"/>
</g>
</mask>
<g mask="url(#mask0_142_446)">
<g id="g2801">
<g id="g2807">
<path id="path2809" d="M21.6862 17.3688H23.2968V12.4786L19.2633 8.31098H15.9629V8.31693V17.3244" stroke="#F7F7F7" stroke-width="1.2" stroke-miterlimit="10" stroke-linecap="round" stroke-linejoin="round"/>
</g>
<g id="g2811">
<path id="path2813" d="M23.2968 12.4785H15.9626" stroke="#F7F7F7" stroke-width="1.2" stroke-miterlimit="10" stroke-linecap="round" stroke-linejoin="round"/>
</g>
<g id="g2815">
<path id="path2817" d="M5.64494 15.668C6.50453 14.8084 7.89813 14.8084 8.75772 15.668C9.61727 16.5276 9.61727 17.9213 8.75772 18.7809C7.89813 19.6406 6.50453 19.6406 5.64494 18.7809C4.78535 17.9213 4.78535 16.5276 5.64494 15.668Z" stroke="#F7F7F7" stroke-width="1.2" stroke-miterlimit="10" stroke-linecap="round" stroke-linejoin="round"/>
</g>
<g id="g2819">
<path id="path2821" d="M17.9135 15.668C18.7731 14.8084 20.1666 14.8084 21.0262 15.668C21.8858 16.5276 21.8858 17.9213 21.0262 18.7809C20.1666 19.6406 18.7731 19.6406 17.9135 18.7809C17.0539 17.9213 17.0539 16.5276 17.9135 15.668Z" stroke="#F7F7F7" stroke-width="1.2" stroke-miterlimit="10" stroke-linecap="round" stroke-linejoin="round"/>
</g>
<g id="g2823">
<path id="path2825" d="M2.9231 4.57421V17.361H4.90914" stroke="#F7F7F7" stroke-width="1.2" stroke-miterlimit="10" stroke-linecap="round" stroke-linejoin="round"/>
</g>
<g id="g2827">
<path id="path2829" d="M15.9827 8.31689V4.57425H2.9231" stroke="#F7F7F7" stroke-width="1.2" stroke-miterlimit="10" stroke-linecap="round" stroke-linejoin="round"/>
</g>
<g id="g2831">
<path id="path2833" d="M7.80166 4.57422H2.9231" stroke="#F7F7F7" stroke-width="1.2" stroke-miterlimit="10" stroke-linecap="round" stroke-linejoin="round"/>
</g>
<g id="g2835">
<path id="path2837" d="M7.8017 7.38733H1.68774" stroke="#F7F7F7" stroke-width="1.2" stroke-miterlimit="10" stroke-linecap="round" stroke-linejoin="round"/>
</g>
<g id="g2839">
<path id="path2841" d="M7.28592 10.2006H0.703125" stroke="#F7F7F7" stroke-width="1.2" stroke-miterlimit="10" stroke-linecap="round" stroke-linejoin="round"/>
</g>
</g>
</g>
</g>
</g>
</svg>
