<svg width="17" height="20" viewBox="0 0 17 20" fill="none" xmlns="http://www.w3.org/2000/svg">
<g id="Group 34174">
<g id="Group">
<g id="Group_2">
<path id="Vector" d="M14.0711 2.92896C12.1823 1.0402 9.67106 0 6.99996 0C4.32886 0 1.81768 1.0402 -0.0710821 2.92896C-1.95984 4.81771 -3 7.32894 -3 10C-3 12.6711 -1.95984 15.1824 -0.0710821 17.0711C1.81768 18.9599 4.3289 20.0001 6.99996 20.0001C9.67103 20.0001 12.1823 18.9599 14.0711 17.0711C15.9598 15.1824 17 12.6711 17 10C17 7.32894 15.9598 4.81771 14.0711 2.92896ZM6.99996 18.8282C2.13213 18.8282 -1.82812 14.8679 -1.82812 10C-1.82812 5.13217 2.13213 1.17188 6.99996 1.17188C11.8678 1.17188 15.8281 5.13217 15.8281 10C15.8281 14.8679 11.8678 18.8282 6.99996 18.8282Z" fill="#F7F7F7"/>
</g>
</g>
<g id="Group_3">
<g id="Group_4">
<path id="Vector_2" d="M3.23435 5.64844C1.87309 5.64844 0.765625 6.75594 0.765625 8.11724C0.765625 8.44083 1.02797 8.70318 1.35156 8.70318C1.67516 8.70318 1.9375 8.44083 1.9375 8.11724C1.9375 7.40212 2.51926 6.82032 3.23435 6.82032C3.94943 6.82032 4.53119 7.40212 4.53119 8.11724C4.53119 8.44083 4.79353 8.70318 5.11713 8.70318C5.44072 8.70318 5.70307 8.44083 5.70307 8.11724C5.70307 6.75594 4.5956 5.64844 3.23435 5.64844Z" fill="#F7F7F7"/>
</g>
</g>
<g id="Group_5">
<g id="Group_6">
<path id="Vector_3" d="M10.7656 5.64844C9.40434 5.64844 8.29688 6.75594 8.29688 8.11724C8.29688 8.44083 8.55922 8.70318 8.88281 8.70318C9.20641 8.70318 9.46875 8.44083 9.46875 8.11724C9.46875 7.40212 10.0505 6.82032 10.7656 6.82032C11.4807 6.82032 12.0624 7.40212 12.0624 8.11724C12.0624 8.44083 12.3248 8.70318 12.6484 8.70318C12.972 8.70318 13.2343 8.44083 13.2343 8.11724C13.2343 6.75594 12.1269 5.64844 10.7656 5.64844Z" fill="#F7F7F7"/>
</g>
</g>
<g id="Group_7">
<g id="Group_8">
<path id="Vector_4" d="M12.5218 11.3304C12.2168 11.2226 11.882 11.3825 11.7741 11.6876C11.0606 13.7063 9.14207 15.0626 7.00003 15.0626C4.85799 15.0626 2.93943 13.7063 2.22595 11.6876C2.11813 11.3825 1.78329 11.2226 1.47825 11.3304C1.17313 11.4382 1.01321 11.773 1.12106 12.0781C1.99973 14.5641 4.36232 16.2344 7.00003 16.2344C9.63773 16.2344 12.0003 14.5641 12.879 12.0781C12.9868 11.773 12.827 11.4382 12.5218 11.3304Z" fill="#F7F7F7"/>
</g>
</g>
</g>
</svg>
