<svg width="20" height="20" viewBox="0 0 20 20" fill="none" xmlns="http://www.w3.org/2000/svg">
<g id="Group 34174">
<g id="Group">
<g id="Group_2">
<path id="Vector" d="M17.0711 2.92896C15.1823 1.0402 12.6711 0 9.99996 0C7.32886 0 4.81768 1.0402 2.92892 2.92896C1.04016 4.81771 0 7.32894 0 10C0 12.6711 1.04016 15.1824 2.92892 17.0711C4.81768 18.9599 7.3289 20.0001 9.99996 20.0001C12.671 20.0001 15.1823 18.9599 17.0711 17.0711C18.9598 15.1824 20 12.6711 20 10C20 7.32894 18.9598 4.81771 17.0711 2.92896ZM9.99996 18.8282C5.13213 18.8282 1.17188 14.8679 1.17188 10C1.17188 5.13217 5.13213 1.17188 9.99996 1.17188C14.8678 1.17188 18.8281 5.13217 18.8281 10C18.8281 14.8679 14.8678 18.8282 9.99996 18.8282Z" fill="#F7F7F7"/>
</g>
</g>
<g id="Group_3">
<g id="Group_4">
<path id="Vector_2" d="M6.23441 5.64844C4.87315 5.64844 3.76569 6.75594 3.76569 8.11724C3.76569 8.44083 4.02803 8.70318 4.35163 8.70318C4.67522 8.70318 4.93757 8.44083 4.93757 8.11724C4.93757 7.40212 5.51933 6.82032 6.23441 6.82032C6.94949 6.82032 7.53125 7.40212 7.53125 8.11724C7.53125 8.44083 7.79359 8.70318 8.11719 8.70318C8.44078 8.70318 8.70313 8.44083 8.70313 8.11724C8.70313 6.75594 7.59566 5.64844 6.23441 5.64844Z" fill="#F7F7F7"/>
</g>
</g>
<g id="Group_5">
<g id="Group_6">
<path id="Vector_3" d="M13.7657 5.64844C12.4044 5.64844 11.2969 6.75594 11.2969 8.11724C11.2969 8.44083 11.5593 8.70318 11.8829 8.70318C12.2065 8.70318 12.4688 8.44083 12.4688 8.11724C12.4688 7.40212 13.0506 6.82032 13.7657 6.82032C14.4807 6.82032 15.0625 7.40212 15.0625 8.11724C15.0625 8.44083 15.3248 8.70318 15.6484 8.70318C15.972 8.70318 16.2344 8.44083 16.2344 8.11724C16.2344 6.75594 15.1269 5.64844 13.7657 5.64844Z" fill="#F7F7F7"/>
</g>
</g>
<g id="Group_7">
<g id="Group_8">
<path id="Vector_4" d="M15.5217 11.3304C15.2167 11.2226 14.8819 11.3825 14.774 11.6876C14.0605 13.7063 12.142 15.0626 9.99997 15.0626C7.85793 15.0626 5.93937 13.7063 5.22589 11.6876C5.11807 11.3825 4.78323 11.2226 4.47819 11.3304C4.17307 11.4382 4.01315 11.773 4.121 12.0781C4.99967 14.5641 7.36226 16.2344 9.99997 16.2344C12.6377 16.2344 15.0002 14.5641 15.8789 12.0781C15.9868 11.773 15.8269 11.4382 15.5217 11.3304Z" fill="#F7F7F7"/>
</g>
</g>
</g>
</svg>
