<svg width="24" height="24" viewBox="0 0 24 24" fill="none" xmlns="http://www.w3.org/2000/svg">
<g id="24_star 1">
<path id="Vector" d="M5.92406 22.0831C5.68303 22.0831 5.44367 22.0079 5.2394 21.8602C4.85888 21.5844 4.68113 21.1104 4.78469 20.653L6.20001 14.4185L1.40015 10.2091C1.04732 9.90113 0.912541 9.41335 1.0574 8.96704C1.20225 8.52156 1.59636 8.20617 2.06299 8.16303L8.41379 7.58647L10.9247 1.71051C11.1098 1.2788 11.5315 1 11.9999 1C12.4684 1 12.89 1.2788 13.0752 1.70951L15.5861 7.58647L21.9359 8.16303C22.4035 8.20516 22.7976 8.52156 22.9425 8.96704C23.0873 9.41251 22.9534 9.90113 22.6005 10.2091L17.8007 14.4177L19.216 20.652C19.3197 21.1104 19.1418 21.5844 18.7615 21.8593C18.382 22.1343 17.8759 22.1554 17.4762 21.9152L11.9999 18.6426L6.52363 21.9171C6.33849 22.027 6.1322 22.0831 5.92406 22.0831ZM11.9999 17.2329C12.2081 17.2329 12.4142 17.2887 12.5995 17.3987L17.7678 20.4898L16.432 14.6055C16.3367 14.1867 16.4789 13.7494 16.8025 13.4661L21.3346 9.4914L15.3385 8.9469C14.9068 8.90745 14.5355 8.63604 14.3668 8.23823L11.9999 2.69311L9.63021 8.23907C9.46336 8.63419 9.09208 8.90561 8.66137 8.94505L2.6644 9.48956L7.19637 13.4643C7.52099 13.7484 7.663 14.1848 7.56682 14.6046L6.23207 20.4888L11.4004 17.3987C11.5855 17.2887 11.7918 17.2329 11.9999 17.2329ZM8.36528 7.7001C8.36528 7.7001 8.36528 7.70111 8.36428 7.70195L8.36528 7.7001ZM15.6327 7.69742L15.6337 7.69926C15.6337 7.69825 15.6337 7.69825 15.6327 7.69742Z" fill="#F7F7F7"/>
</g>
</svg>
