<svg width="31" height="31" viewBox="0 0 31 31" fill="none" xmlns="http://www.w3.org/2000/svg">
<path d="M24.6715 15.1009C24.6786 15.2292 24.6786 15.3646 24.6786 15.4928C24.6786 20.8377 20.3458 25.1705 15.0009 25.1705C9.65612 25.1705 5.32324 20.8448 5.32324 15.5C5.32324 10.1551 9.65612 5.82227 15.0009 5.82227C17.7731 5.82227 20.2745 6.991 22.0347 8.85813" stroke="white" stroke-width="0.75" stroke-miterlimit="10" stroke-linejoin="round"/>
<path d="M23.3888 11.2239L26.6528 9.91981C26.6528 9.91981 28.2847 9.22142 29.1114 10.0338C29.1114 10.0338 29.824 10.9603 28.5484 11.5446L18.8137 15.4428C18.8137 15.4428 17.0677 16.1056 16.2054 15.343L13.7539 13.1481C13.7539 13.1481 14.4167 12.7062 15.4144 13.0056L16.6187 13.3975C16.6187 13.3975 17.367 13.6541 18.2792 13.2479L19.8114 12.5922L16.5974 9.88417C16.5974 9.88417 17.8017 9.39958 19.1629 9.94831C19.1629 9.94119 22.5693 11.3308 23.3888 11.2239Z" stroke="white" stroke-width="0.75" stroke-miterlimit="10" stroke-linejoin="round"/>
<path d="M2.8364 16.4189C2.8364 16.4189 -3.52751 23.2817 13.7256 16.647" stroke="white" stroke-width="0.75" stroke-miterlimit="10" stroke-linecap="round" stroke-linejoin="round"/>
</svg>
