<svg width="55" height="150" fill="none" xmlns="http://www.w3.org/2000/svg"><circle cx="3.867" cy="20.768" r="3.867" transform="rotate(90 3.867 20.768)" fill="#00ADED"/><circle cx="3.867" cy="90.378" r="3.867" transform="rotate(90 3.867 90.378)" fill="#00ADED"/><circle cx="3.867" cy="78.135" r="3.867" transform="rotate(90 3.867 78.135)" fill="#00ADED"/><circle cx="3.867" cy="66.178" r="3.867" transform="rotate(90 3.867 66.178)" fill="#00ADED"/><circle cx="3.867" cy="54.79" r="3.867" transform="rotate(90 3.867 54.79)" fill="#00ADED"/><circle cx="3.867" cy="31.817" r="3.867" transform="rotate(90 3.867 31.817)" fill="#00ADED"/><circle cx="3.867" cy="102.532" r="3.867" transform="rotate(90 3.867 102.532)" fill="#00ADED"/><circle cx="3.867" cy="43.971" r="3.867" transform="rotate(90 3.867 43.971)" fill="#00ADED"/><circle cx="3.867" cy="113.581" r="3.867" transform="rotate(90 3.867 113.581)" fill="#00ADED"/><circle cx="3.867" cy="125.735" r="3.867" transform="rotate(90 3.867 125.735)" fill="#00ADED"/><circle cx="19.336" cy="90.377" r="3.867" transform="rotate(90 19.336 90.377)" fill="#00ADED"/><circle cx="19.336" cy="31.817" r="3.867" transform="rotate(90 19.336 31.817)" fill="#00ADED"/><circle cx="19.336" cy="3.867" r="3.867" transform="rotate(90 19.336 3.867)" fill="#00ADED"/><circle cx="19.336" cy="101.427" r="3.867" transform="rotate(90 19.336 101.427)" fill="#00ADED"/><circle cx="19.336" cy="42.866" r="3.867" transform="rotate(90 19.336 42.866)" fill="#00ADED"/><circle cx="19.336" cy="113.581" r="3.867" transform="rotate(90 19.336 113.581)" fill="#00ADED"/><circle cx="19.336" cy="55.02" r="3.867" transform="rotate(90 19.336 55.02)" fill="#00ADED"/><circle cx="19.336" cy="124.63" r="3.867" transform="rotate(90 19.336 124.63)" fill="#00ADED"/><circle cx="19.336" cy="66.07" r="3.867" transform="rotate(90 19.336 66.07)" fill="#00ADED"/><circle cx="19.336" cy="136.784" r="3.867" transform="rotate(90 19.336 136.784)" fill="#00ADED"/><circle cx="19.336" cy="78.224" r="3.867" transform="rotate(90 19.336 78.224)" fill="#00ADED"/><circle r="3.262" transform="matrix(0 1 1 0 51.738 48.474)" fill="#00ADED"/><circle r="3.262" transform="matrix(0 1 1 0 51.738 107.199)" fill="#00ADED"/><circle r="3.262" transform="matrix(0 1 1 0 51.738 96.87)" fill="#00ADED"/><circle r="3.262" transform="matrix(0 1 1 0 51.738 86.783)" fill="#00ADED"/><circle r="3.262" transform="matrix(0 1 1 0 51.738 77.176)" fill="#00ADED"/><circle r="3.262" transform="matrix(0 1 1 0 51.738 57.796)" fill="#00ADED"/><circle r="3.262" transform="matrix(0 1 1 0 51.738 117.452)" fill="#00ADED"/><circle r="3.262" transform="matrix(0 1 1 0 51.738 68.05)" fill="#00ADED"/><circle r="3.262" transform="matrix(0 1 1 0 51.738 126.773)" fill="#00ADED"/><circle r="3.262" transform="matrix(0 1 1 0 51.738 137.026)" fill="#00ADED"/><circle r="3.262" transform="matrix(0 1 1 0 38.688 107.198)" fill="#00ADED"/><circle r="3.262" transform="matrix(0 1 1 0 38.688 57.795)" fill="#00ADED"/><circle r="3.262" transform="matrix(0 1 1 0 38.688 34.216)" fill="#00ADED"/><circle r="3.262" transform="matrix(0 1 1 0 38.688 116.52)" fill="#00ADED"/><circle r="3.262" transform="matrix(0 1 1 0 38.688 67.117)" fill="#00ADED"/><circle r="3.262" transform="matrix(0 1 1 0 38.688 126.773)" fill="#00ADED"/><circle r="3.262" transform="matrix(0 1 1 0 38.688 77.37)" fill="#00ADED"/><circle r="3.262" transform="matrix(0 1 1 0 38.688 136.094)" fill="#00ADED"/><circle r="3.262" transform="matrix(0 1 1 0 38.688 86.692)" fill="#00ADED"/><circle r="3.262" transform="matrix(0 1 1 0 38.688 146.348)" fill="#00ADED"/><circle r="3.262" transform="matrix(0 1 1 0 38.688 96.945)" fill="#00ADED"/></svg>