<svg width="102" height="391" fill="none" xmlns="http://www.w3.org/2000/svg"><circle cx="16.865" cy="16.865" r="16.865" transform="rotate(90 16.865 16.865)" fill="#00ADED" fill-opacity=".09"/><circle cx="16.865" cy="320.427" r="16.865" transform="rotate(90 16.865 320.427)" fill="#00ADED" fill-opacity=".09"/><circle cx="16.865" cy="267.039" r="16.865" transform="rotate(90 16.865 267.039)" fill="#00ADED" fill-opacity=".09"/><circle cx="16.865" cy="214.894" r="16.865" transform="rotate(90 16.865 214.894)" fill="#00ADED" fill-opacity=".09"/><circle cx="16.865" cy="165.231" r="16.865" transform="rotate(90 16.865 165.231)" fill="#00ADED" fill-opacity=".09"/><circle cx="16.865" cy="65.049" r="16.865" transform="rotate(90 16.865 65.049)" fill="#00ADED" fill-opacity=".09"/><circle cx="16.865" cy="373.43" r="16.865" transform="rotate(90 16.865 373.43)" fill="#00ADED" fill-opacity=".09"/><circle cx="16.865" cy="118.052" r="16.865" transform="rotate(90 16.865 118.052)" fill="#00ADED" fill-opacity=".09"/><circle cx="84.323" cy="320.427" r="16.865" transform="rotate(90 84.323 320.427)" fill="#00ADED" fill-opacity=".09"/><circle cx="84.323" cy="65.048" r="16.865" transform="rotate(90 84.323 65.048)" fill="#00ADED" fill-opacity=".09"/><circle cx="84.323" cy="113.233" r="16.865" transform="rotate(90 84.323 113.233)" fill="#00ADED" fill-opacity=".09"/><circle cx="84.323" cy="166.236" r="16.865" transform="rotate(90 84.323 166.236)" fill="#00ADED" fill-opacity=".09"/><circle cx="84.323" cy="214.421" r="16.865" transform="rotate(90 84.323 214.421)" fill="#00ADED" fill-opacity=".09"/><circle cx="84.323" cy="267.424" r="16.865" transform="rotate(90 84.323 267.424)" fill="#00ADED" fill-opacity=".09"/></svg>