<svg width="93" height="37" fill="none" xmlns="http://www.w3.org/2000/svg"><circle cx="78.469" cy="2.531" r="2.531" transform="rotate(-180 78.469 2.531)" fill="#00ADED"/><circle cx="32.906" cy="2.531" r="2.531" transform="rotate(-180 32.906 2.531)" fill="#00ADED"/><circle cx="40.919" cy="2.531" r="2.531" transform="rotate(-180 40.92 2.531)" fill="#00ADED"/><circle cx="48.746" cy="2.531" r="2.531" transform="rotate(-180 48.746 2.531)" fill="#00ADED"/><circle cx="56.2" cy="2.531" r="2.531" transform="rotate(-180 56.2 2.531)" fill="#00ADED"/><circle cx="71.237" cy="2.531" r="2.531" transform="rotate(-180 71.237 2.531)" fill="#00ADED"/><circle cx="24.951" cy="2.531" r="2.531" transform="rotate(-180 24.95 2.531)" fill="#00ADED"/><circle cx="63.281" cy="2.531" r="2.531" transform="rotate(-180 63.281 2.531)" fill="#00ADED"/><circle cx="17.719" cy="2.531" r="2.531" transform="rotate(-180 17.719 2.531)" fill="#00ADED"/><circle cx="9.763" cy="2.531" r="2.531" transform="rotate(-180 9.763 2.531)" fill="#00ADED"/><circle cx="32.906" cy="12.656" r="2.531" transform="rotate(-180 32.906 12.656)" fill="#00ADED"/><circle cx="71.237" cy="12.656" r="2.531" transform="rotate(-180 71.237 12.656)" fill="#00ADED"/><circle cx="25.674" cy="12.656" r="2.531" transform="rotate(-180 25.674 12.656)" fill="#00ADED"/><circle cx="64.004" cy="12.656" r="2.531" transform="rotate(-180 64.004 12.656)" fill="#00ADED"/><circle cx="17.719" cy="12.656" r="2.531" transform="rotate(-180 17.719 12.656)" fill="#00ADED"/><circle cx="56.049" cy="12.656" r="2.531" transform="rotate(-180 56.05 12.656)" fill="#00ADED"/><circle cx="10.487" cy="12.656" r="2.531" transform="rotate(-180 10.487 12.656)" fill="#00ADED"/><circle cx="48.817" cy="12.656" r="2.531" transform="rotate(-180 48.817 12.656)" fill="#00ADED"/><circle cx="2.531" cy="12.656" r="2.531" transform="rotate(-180 2.531 12.656)" fill="#00ADED"/><circle cx="40.862" cy="12.656" r="2.531" transform="rotate(-180 40.862 12.656)" fill="#00ADED"/><circle cx="78.469" cy="23.719" r="2.531" transform="rotate(-180 78.469 23.719)" fill="#00ADED"/><circle cx="32.906" cy="23.719" r="2.531" transform="rotate(-180 32.906 23.719)" fill="#00ADED"/><circle cx="40.919" cy="23.719" r="2.531" transform="rotate(-180 40.92 23.719)" fill="#00ADED"/><circle cx="48.746" cy="23.719" r="2.531" transform="rotate(-180 48.746 23.719)" fill="#00ADED"/><circle cx="56.2" cy="23.719" r="2.531" transform="rotate(-180 56.2 23.719)" fill="#00ADED"/><circle cx="71.237" cy="23.719" r="2.531" transform="rotate(-180 71.237 23.719)" fill="#00ADED"/><circle cx="24.951" cy="23.719" r="2.531" transform="rotate(-180 24.95 23.719)" fill="#00ADED"/><circle cx="63.281" cy="23.719" r="2.531" transform="rotate(-180 63.281 23.719)" fill="#00ADED"/><circle cx="17.719" cy="23.719" r="2.531" transform="rotate(-180 17.719 23.719)" fill="#00ADED"/><circle cx="9.763" cy="23.719" r="2.531" transform="rotate(-180 9.763 23.719)" fill="#00ADED"/><circle cx="32.906" cy="33.844" r="2.531" transform="rotate(-180 32.906 33.844)" fill="#00ADED"/><circle cx="71.237" cy="33.844" r="2.531" transform="rotate(-180 71.237 33.844)" fill="#00ADED"/><circle cx="89.531" cy="33.844" r="2.531" transform="rotate(-180 89.531 33.844)" fill="#00ADED"/><circle cx="25.674" cy="33.844" r="2.531" transform="rotate(-180 25.674 33.844)" fill="#00ADED"/><circle cx="64.004" cy="33.844" r="2.531" transform="rotate(-180 64.004 33.844)" fill="#00ADED"/><circle cx="17.719" cy="33.844" r="2.531" transform="rotate(-180 17.719 33.844)" fill="#00ADED"/><circle cx="56.049" cy="33.844" r="2.531" transform="rotate(-180 56.05 33.844)" fill="#00ADED"/><circle cx="10.487" cy="33.844" r="2.531" transform="rotate(-180 10.487 33.844)" fill="#00ADED"/><circle cx="48.817" cy="33.844" r="2.531" transform="rotate(-180 48.817 33.844)" fill="#00ADED"/><circle cx="2.531" cy="33.844" r="2.531" transform="rotate(-180 2.531 33.844)" fill="#00ADED"/><circle cx="40.862" cy="33.844" r="2.531" transform="rotate(-180 40.862 33.844)" fill="#00ADED"/></svg>