<svg width="120" height="21" fill="none" xmlns="http://www.w3.org/2000/svg"><circle r="3.262" transform="matrix(1 0 0 -1 18.474 3.873)" fill="#00ADED"/><circle r="3.262" transform="matrix(1 0 0 -1 77.199 3.873)" fill="#00ADED"/><circle r="3.262" transform="matrix(1 0 0 -1 66.87 3.873)" fill="#00ADED"/><circle r="3.262" transform="matrix(1 0 0 -1 56.783 3.873)" fill="#00ADED"/><circle r="3.262" transform="matrix(1 0 0 -1 47.176 3.873)" fill="#00ADED"/><circle r="3.262" transform="matrix(1 0 0 -1 27.796 3.873)" fill="#00ADED"/><circle r="3.262" transform="matrix(1 0 0 -1 87.452 3.873)" fill="#00ADED"/><circle r="3.262" transform="matrix(1 0 0 -1 38.05 3.873)" fill="#00ADED"/><circle r="3.262" transform="matrix(1 0 0 -1 96.773 3.873)" fill="#00ADED"/><circle r="3.262" transform="matrix(1 0 0 -1 107.027 3.873)" fill="#00ADED"/><circle r="3.262" transform="matrix(1 0 0 -1 77.198 16.923)" fill="#00ADED"/><circle r="3.262" transform="matrix(1 0 0 -1 27.796 16.923)" fill="#00ADED"/><circle r="3.262" transform="matrix(1 0 0 -1 4.216 16.923)" fill="#00ADED"/><circle r="3.262" transform="matrix(1 0 0 -1 86.52 16.923)" fill="#00ADED"/><circle r="3.262" transform="matrix(1 0 0 -1 37.117 16.923)" fill="#00ADED"/><circle r="3.262" transform="matrix(1 0 0 -1 96.773 16.923)" fill="#00ADED"/><circle r="3.262" transform="matrix(1 0 0 -1 47.37 16.923)" fill="#00ADED"/><circle r="3.262" transform="matrix(1 0 0 -1 106.094 16.923)" fill="#00ADED"/><circle r="3.262" transform="matrix(1 0 0 -1 56.691 16.923)" fill="#00ADED"/><circle r="3.262" transform="matrix(1 0 0 -1 116.348 16.923)" fill="#00ADED"/><circle r="3.262" transform="matrix(1 0 0 -1 66.945 16.923)" fill="#00ADED"/></svg>