<svg width="185" height="527" fill="none" xmlns="http://www.w3.org/2000/svg"><circle cx="30.698" cy="495.552" r="30.698" transform="rotate(90 30.698 495.552)" fill="#00ADED" fill-opacity=".09"/><circle cx="30.698" cy="398.373" r="30.698" transform="rotate(90 30.698 398.373)" fill="#00ADED" fill-opacity=".09"/><circle cx="30.698" cy="303.454" r="30.698" transform="rotate(90 30.698 303.454)" fill="#00ADED" fill-opacity=".09"/><circle cx="30.698" cy="213.056" r="30.698" transform="rotate(90 30.698 213.056)" fill="#00ADED" fill-opacity=".09"/><circle cx="30.698" cy="127.178" r="30.698" transform="rotate(90 30.698 127.178)" fill="#00ADED" fill-opacity=".09"/><circle cx="153.49" cy="30.698" r="30.698" transform="rotate(90 153.49 30.698)" fill="#00ADED" fill-opacity=".09"/><circle cx="153.49" cy="118.406" r="30.698" transform="rotate(90 153.49 118.406)" fill="#00ADED" fill-opacity=".09"/><circle cx="153.49" cy="214.885" r="30.698" transform="rotate(90 153.49 214.885)" fill="#00ADED" fill-opacity=".09"/><circle cx="153.49" cy="302.594" r="30.698" transform="rotate(90 153.49 302.594)" fill="#00ADED" fill-opacity=".09"/><circle cx="153.49" cy="399.073" r="30.698" transform="rotate(90 153.49 399.073)" fill="#00ADED" fill-opacity=".09"/></svg>