<svg width="512" height="512" viewBox="0 0 512 512" fill="none" xmlns="http://www.w3.org/2000/svg">
<g clip-path="url(#clip0)">
<path d="M464 63.9998H48.0003C21.5313 63.9998 0 85.5311 0 112V400C0 426.469 21.5313 448 48.0003 448H464C490.469 448 512 426.469 512 400V112C512 85.5311 490.469 63.9998 464 63.9998V63.9998ZM464 95.9996C466.174 95.9996 468.242 96.4506 470.132 97.2383L256 282.828L41.8667 97.2383C43.7573 96.4517 45.8254 95.9996 47.9993 95.9996H464ZM464 415.999H48.0003C39.1723 415.999 31.9999 408.828 31.9999 399.999V131.047L245.515 316.093C248.531 318.702 252.266 320 256 320C259.734 320 263.469 318.703 266.485 316.093L480 131.047V400C479.999 408.828 472.828 415.999 464 415.999V415.999Z" fill="#001833"/>
</g>
<defs>
<clipPath id="clip0">
<rect width="512" height="512" fill="white"/>
</clipPath>
</defs>
</svg>
