<svg width="26" height="32" viewBox="0 0 26 32" fill="none" xmlns="http://www.w3.org/2000/svg">
<path d="M25.7999 27.6614L23.9676 7.02822C23.9283 6.57014 23.5422 6.22331 23.0907 6.22331H19.3214C19.269 2.78119 16.4551 0 12.9999 0C9.54469 0 6.73078 2.78119 6.67843 6.22331H2.90911C2.45103 6.22331 2.07148 6.57014 2.03221 7.02822L0.199903 27.6614C0.199903 27.6875 0.193359 27.7137 0.193359 27.7399C0.193359 30.0892 2.34632 32 4.99663 32H21.0032C23.6535 32 25.8065 30.0892 25.8065 27.7399C25.8065 27.7137 25.8064 27.6875 25.7999 27.6614ZM12.9999 1.76687C15.4801 1.76687 17.5022 3.75624 17.5545 6.22331H8.4453C8.49765 3.75624 10.5197 1.76687 12.9999 1.76687ZM21.0032 30.2331H4.99663C3.33446 30.2331 1.98641 29.1337 1.96023 27.7791L3.71401 7.99673H6.67189V10.6798C6.67189 11.1706 7.06453 11.5632 7.55532 11.5632C8.04612 11.5632 8.43876 11.1706 8.43876 10.6798V7.99673H17.5545V10.6798C17.5545 11.1706 17.9471 11.5632 18.4379 11.5632C18.9287 11.5632 19.3214 11.1706 19.3214 10.6798V7.99673H22.2793L24.0396 27.7791C24.0134 29.1337 22.6588 30.2331 21.0032 30.2331Z" fill="black"/>
</svg>
