<svg width="24" height="22" viewBox="0 0 24 22" fill="none" xmlns="http://www.w3.org/2000/svg">
<path d="M12 21.6648C11.6583 21.6648 11.3289 21.541 11.0722 21.3162C10.1027 20.4684 9.16791 19.6717 8.3432 18.9689L8.33899 18.9653C5.92108 16.9048 3.83313 15.1254 2.38037 13.3725C0.756409 11.4129 0 9.55493 0 7.52521C0 5.55316 0.676208 3.73383 1.90393 2.4021C3.1463 1.05463 4.85101 0.3125 6.70459 0.3125C8.08997 0.3125 9.3587 0.750488 10.4755 1.6142C11.0391 2.05017 11.5499 2.58374 12 3.20612C12.4503 2.58374 12.9609 2.05017 13.5247 1.6142C14.6415 0.750488 15.9102 0.3125 17.2956 0.3125C19.149 0.3125 20.8539 1.05463 22.0963 2.4021C23.324 3.73383 24 5.55316 24 7.52521C24 9.55493 23.2438 11.4129 21.6198 13.3723C20.1671 15.1254 18.0793 16.9046 15.6617 18.9649C14.8356 19.6688 13.8994 20.4667 12.9276 21.3165C12.6711 21.541 12.3415 21.6648 12 21.6648ZM6.70459 1.71838C5.24835 1.71838 3.91058 2.29956 2.93738 3.35498C1.94971 4.42633 1.4057 5.90729 1.4057 7.52521C1.4057 9.2323 2.04016 10.759 3.46271 12.4755C4.83765 14.1346 6.88275 15.8774 9.25067 17.8954L9.25507 17.899C10.0829 18.6046 11.0213 19.4044 11.998 20.2584C12.9805 19.4027 13.9204 18.6016 14.7499 17.895C17.1176 15.877 19.1625 14.1346 20.5375 12.4755C21.9598 10.759 22.5943 9.2323 22.5943 7.52521C22.5943 5.90729 22.0503 4.42633 21.0626 3.35498C20.0896 2.29956 18.7516 1.71838 17.2956 1.71838C16.2288 1.71838 15.2494 2.0575 14.3846 2.7262C13.6139 3.32239 13.077 4.07605 12.7623 4.60339C12.6004 4.87457 12.3155 5.03644 12 5.03644C11.6845 5.03644 11.3996 4.87457 11.2377 4.60339C10.9232 4.07605 10.3863 3.32239 9.61542 2.7262C8.75061 2.0575 7.77118 1.71838 6.70459 1.71838Z" fill="white"/>
</svg>
