<svg width="14" height="14" viewBox="0 0 14 14" fill="none" xmlns="http://www.w3.org/2000/svg">
<path fill-rule="evenodd" clip-rule="evenodd" d="M7 0C5.14348 0 3.36301 0.737498 2.05025 2.05025C0.737498 3.36301 0 5.14348 0 7C0 8.85652 0.737498 10.637 2.05025 11.9497C3.36301 13.2625 5.14348 14 7 14C8.85652 14 10.637 13.2625 11.9497 11.9497C13.2625 10.637 14 8.85652 14 7C14 5.14348 13.2625 3.36301 11.9497 2.05025C10.637 0.737498 8.85652 0 7 0ZM7 12.9231C5.4291 12.9231 3.92254 12.299 2.81175 11.1882C1.70096 10.0775 1.07692 8.5709 1.07692 7C1.07692 5.4291 1.70096 3.92254 2.81175 2.81175C3.92254 1.70096 5.4291 1.07692 7 1.07692C8.5709 1.07692 10.0775 1.70096 11.1882 2.81175C12.299 3.92254 12.9231 5.4291 12.9231 7C12.9231 8.5709 12.299 10.0775 11.1882 11.1882C10.0775 12.299 8.5709 12.9231 7 12.9231ZM8.66923 3.85538C8.48318 3.66165 8.25968 3.50776 8.01231 3.40308C7.70108 3.27846 7.36738 3.21979 7.03231 3.23077C6.70709 3.22486 6.38424 3.28723 6.08462 3.41385C5.82723 3.52154 5.6 3.68738 5.41692 3.89846C5.23858 4.09244 5.0996 4.3192 5.00769 4.56615C4.92225 4.81701 4.868 5.07743 4.84615 5.34154H6.17077C6.17687 5.17062 6.23131 5.00493 6.32775 4.86368C6.4242 4.72244 6.55872 4.61143 6.71569 4.54354C6.81974 4.50255 6.93142 4.48454 7.04308 4.49077C7.1394 4.47546 7.23753 4.47546 7.33385 4.49077C7.42233 4.52423 7.50298 4.57556 7.57077 4.64154C7.64559 4.70628 7.70454 4.78734 7.74308 4.87846C7.78719 4.98038 7.80922 5.09049 7.80769 5.20154C7.80769 5.38785 7.76785 5.57092 7.68923 5.74C7.61102 5.91542 7.51349 6.08157 7.39846 6.23538L7.02154 6.68769C6.89231 6.82769 6.76308 6.97846 6.64462 7.12923C6.52975 7.2793 6.43221 7.44187 6.35385 7.61385C6.27913 7.78334 6.24238 7.96712 6.24615 8.15231V8.86308H7.53846V8.33538C7.54211 8.17744 7.58268 8.02254 7.65692 7.88308C7.74543 7.72805 7.84627 7.58039 7.95846 7.44154L8.34615 6.96769C8.48729 6.80464 8.61684 6.63191 8.73385 6.45077C8.85761 6.26606 8.95884 6.06721 9.03539 5.85846C9.11392 5.63716 9.15399 5.40405 9.15385 5.16923C9.15577 4.92458 9.11943 4.68112 9.04615 4.44769C8.96483 4.22532 8.83623 4.02324 8.66923 3.85538ZM6.24615 9.50923H7.50615V10.7692H6.24615V9.50923Z" fill="black"/>
</svg>
