<svg width="16" height="16" viewBox="0 0 16 16" fill="none" xmlns="http://www.w3.org/2000/svg">
<path fill-rule="evenodd" clip-rule="evenodd" d="M11.7429 11.7429C14.2066 10.9962 16 8.70754 16 6C16 2.68629 13.3137 0 10 0C7.29246 0 5.0038 1.79338 4.25707 4.25707C1.79338 5.0038 0 7.29246 0 10C0 13.3137 2.68629 16 6 16C8.70754 16 10.9962 14.2066 11.7429 11.7429ZM11.03 11.03C10.6972 11.0978 10.3528 11.1333 10 11.1333C7.16494 11.1333 4.86667 8.83506 4.86667 6C4.86667 5.64723 4.90225 5.30278 4.97003 4.97003C5.30278 4.90225 5.64723 4.86667 6 4.86667C8.83506 4.86667 11.1333 7.16494 11.1333 10C11.1333 10.3528 11.0977 10.6972 11.03 11.03ZM11.9538 10.7484C11.9843 10.5032 12 10.2535 12 10C12 6.68629 9.31371 4 6 4C5.74654 4 5.49675 4.01572 5.25156 4.04623C6.02016 2.18023 7.85668 0.866667 10 0.866667C12.8351 0.866667 15.1333 3.16494 15.1333 6C15.1333 8.14332 13.8198 9.97984 11.9538 10.7484ZM10.7484 11.9538C10.5032 11.9843 10.2535 12 10 12C6.68629 12 4 9.31371 4 6C4 5.74654 4.01572 5.49675 4.04623 5.25156C2.18022 6.02016 0.866667 7.85668 0.866667 10C0.866667 12.8351 3.16494 15.1333 6 15.1333C8.14332 15.1333 9.97984 13.8198 10.7484 11.9538Z" fill="white"/>
</svg>
