<svg width="28" height="28" viewBox="0 0 28 28" fill="none" xmlns="http://www.w3.org/2000/svg">
<path d="M19.1134 9.65234H17.8309C17.552 9.65234 17.2868 9.78633 17.1227 10.016L12.8243 15.977L10.8774 13.2754C10.7133 13.0484 10.4508 12.9117 10.1692 12.9117H8.88676C8.70903 12.9117 8.60512 13.1141 8.70903 13.259L12.1161 17.984C12.1966 18.0963 12.3027 18.1879 12.4256 18.251C12.5485 18.3141 12.6847 18.3471 12.8229 18.3471C12.9611 18.3471 13.0973 18.3141 13.2202 18.251C13.3432 18.1879 13.4493 18.0963 13.5297 17.984L19.2884 9.99961C19.395 9.85469 19.2911 9.65234 19.1134 9.65234Z" fill="#078923"/>
<path d="M14 1.75C7.23516 1.75 1.75 7.23516 1.75 14C1.75 20.7648 7.23516 26.25 14 26.25C20.7648 26.25 26.25 20.7648 26.25 14C26.25 7.23516 20.7648 1.75 14 1.75ZM14 24.1719C8.38359 24.1719 3.82812 19.6164 3.82812 14C3.82812 8.38359 8.38359 3.82812 14 3.82812C19.6164 3.82812 24.1719 8.38359 24.1719 14C24.1719 19.6164 19.6164 24.1719 14 24.1719Z" fill="#078923"/>
</svg>
