<svg width="42" height="42" viewBox="0 0 42 42" fill="none" xmlns="http://www.w3.org/2000/svg">
<path d="M21 2.625C10.8527 2.625 2.625 10.8527 2.625 21C2.625 31.1473 10.8527 39.375 21 39.375C31.1473 39.375 39.375 31.1473 39.375 21C39.375 10.8527 31.1473 2.625 21 2.625ZM21 36.2578C12.5754 36.2578 5.74219 29.4246 5.74219 21C5.74219 12.5754 12.5754 5.74219 21 5.74219C29.4246 5.74219 36.2578 12.5754 36.2578 21C36.2578 29.4246 29.4246 36.2578 21 36.2578Z" fill="#4A4A4A"/>
<path d="M19.0312 28.2188C19.0313 28.7409 19.2387 29.2417 19.6079 29.6109C19.9771 29.9801 20.4779 30.1875 21 30.1875C21.5221 30.1875 22.0229 29.9801 22.3921 29.6109C22.7613 29.2417 22.9688 28.7409 22.9688 28.2188C22.9688 27.6966 22.7613 27.1958 22.3921 26.8266C22.0229 26.4574 21.5221 26.25 21 26.25C20.4779 26.25 19.9771 26.4574 19.6079 26.8266C19.2387 27.1958 19.0313 27.6966 19.0312 28.2188ZM20.0156 23.625H21.9844C22.1648 23.625 22.3125 23.4773 22.3125 23.2969V12.1406C22.3125 11.9602 22.1648 11.8125 21.9844 11.8125H20.0156C19.8352 11.8125 19.6875 11.9602 19.6875 12.1406V23.2969C19.6875 23.4773 19.8352 23.625 20.0156 23.625Z" fill="#4A4A4A"/>
</svg>
