<svg width="46" height="18" viewBox="0 0 46 18" fill="none" xmlns="http://www.w3.org/2000/svg">
<path fill-rule="evenodd" clip-rule="evenodd" d="M3.69701 10.1427C2.47904 10.1427 1.06707 10.7248 0.301796 11.3283L1.0024 12.7942C1.61677 12.2337 2.60838 11.7595 3.50299 11.7595C4.35449 11.7595 4.81796 12.0397 4.81796 12.611C4.81796 12.999 4.50539 13.193 3.92335 13.2685C1.72455 13.5487 0 14.1523 0 15.8445C0 17.181 0.959282 18.0002 2.44671 18.0002C3.51377 18.0002 4.46228 17.4074 4.91497 16.6313V17.7846H6.8982V12.9451C6.8982 10.9511 5.50778 10.1427 3.69701 10.1427ZM2.95329 16.4481C2.39281 16.4481 2.11258 16.1786 2.11258 15.726C2.11258 14.8852 3.0503 14.605 4.76407 14.4218C4.77485 15.5427 4.00958 16.4481 2.95329 16.4481ZM25.5988 11.6086V10.3583H23.6156V17.7846H25.7389V14.2062C25.7389 12.5032 26.7629 12.0074 27.485 12.0074C27.7653 12.0074 28.1425 12.0936 28.3904 12.2769L28.7784 10.3152C28.4551 10.1751 28.1102 10.1427 27.8299 10.1427C26.7413 10.1427 26.0515 10.6277 25.5988 11.6086ZM38.6299 10.1427C37.509 10.1427 36.6683 10.811 36.2263 11.4469C35.8168 10.617 34.9653 10.1427 33.9305 10.1427C32.8096 10.1427 32.0335 10.7679 31.6671 11.4792V10.3583H29.6192V17.7846H31.7425V13.9583C31.7425 12.5894 32.4647 11.9319 33.1329 11.9319C33.7365 11.9319 34.297 12.32 34.297 13.3331V17.7846H36.4311V13.9583C36.4311 12.5679 37.1317 11.9319 37.8323 11.9319C38.3928 11.9319 38.9856 12.3415 38.9856 13.3224V17.7846H41.109V12.6541C41.109 10.9834 39.988 10.1427 38.6299 10.1427ZM14.4 9.80859V10.3583H11.1772V9.6038C11.1772 8.62296 11.7377 8.34272 12.2228 8.34272C12.503 8.34272 12.8695 8.40739 13.1713 8.57984L13.8287 7.08164C13.4407 6.85529 12.8048 6.6505 11.9533 6.6505C10.5952 6.6505 9.05389 7.41577 9.05389 9.81937V10.3691H7.82515V12.0074H9.05389V17.7846H11.1772V11.9966H14.4V17.7846H16.5234V11.9966H18.4527V10.3583H16.5234V9.6038C16.5234 8.62296 17.0838 8.34272 17.5689 8.34272C18.1078 8.34272 18.5174 8.57984 18.5174 8.57984L19.1749 7.08164C19.1749 7.08164 18.5066 6.6505 17.2994 6.6505C15.9521 6.63972 14.4 7.40499 14.4 9.80859ZM19.7138 10.3583H21.8371V17.7846H19.7138V10.3583Z" fill="#060809"/>
<path fill-rule="evenodd" clip-rule="evenodd" d="M32.0882 0C26.3541 0 21.2451 3.97725 19.8008 9.09701H21.881C23.0882 5.28144 27.1948 1.94012 32.0882 1.94012C38.0379 1.94012 43.1684 6.46707 43.1684 13.5162C43.1684 15.1006 42.9637 16.5234 42.5756 17.7844H44.5912L44.6128 17.7198C44.9469 16.4156 45.1086 15.0036 45.1086 13.5162C45.1086 5.65868 39.3852 0 32.0882 0Z" fill="#0FA0EA"/>
</svg>
