<svg width="68" height="18" viewBox="0 0 68 18" fill="none" xmlns="http://www.w3.org/2000/svg">
<g clip-path="url(#clip0_444_659)">
<path d="M25.2064 3.68127H21.476C21.2207 3.68127 21.0036 3.86673 20.9638 4.11873L19.4551 13.6844C19.4251 13.8731 19.5713 14.0433 19.7627 14.0433H21.5436C21.7989 14.0433 22.016 13.8578 22.0558 13.6053L22.4627 11.0253C22.502 10.7727 22.7196 10.5873 22.9744 10.5873H24.1553C26.6125 10.5873 28.0307 9.39818 28.4011 7.04182C28.568 6.01091 28.4082 5.20091 27.9255 4.63364C27.3953 4.01073 26.4549 3.68127 25.2064 3.68127ZM25.6367 7.17491C25.4327 8.51346 24.41 8.51346 23.4211 8.51346H22.8582L23.2531 6.01364C23.2765 5.86255 23.4075 5.75127 23.5602 5.75127H23.8182C24.4918 5.75127 25.1273 5.75127 25.4556 6.13527C25.6515 6.36437 25.7115 6.70473 25.6367 7.17491Z" fill="#253B80"/>
<path d="M36.3573 7.13182H34.5709C34.4187 7.13182 34.2873 7.24309 34.2638 7.39418L34.1847 7.89382L34.0598 7.71273C33.6731 7.15146 32.8107 6.96382 31.95 6.96382C29.976 6.96382 28.29 8.45891 27.9616 10.5562C27.7909 11.6024 28.0336 12.6027 28.6271 13.3004C29.1715 13.9418 29.9504 14.2091 30.8771 14.2091C32.4676 14.2091 33.3496 13.1864 33.3496 13.1864L33.27 13.6827C33.24 13.8725 33.3862 14.0427 33.5766 14.0427H35.1856C35.4415 14.0427 35.6575 13.8573 35.6978 13.6047L36.6633 7.49073C36.6938 7.30255 36.5482 7.13182 36.3573 7.13182ZM33.8673 10.6085C33.6949 11.6291 32.8849 12.3142 31.8518 12.3142C31.3331 12.3142 30.9186 12.1478 30.6524 11.8325C30.3884 11.5195 30.288 11.0738 30.372 10.5775C30.5329 9.56564 31.3566 8.85818 32.3738 8.85818C32.8811 8.85818 33.2935 9.02673 33.5651 9.34473C33.8373 9.666 33.9453 10.1144 33.8673 10.6085Z" fill="#253B80"/>
<path d="M45.8698 7.13182H44.0747C43.9034 7.13182 43.7425 7.21691 43.6454 7.35928L41.1696 11.0062L40.1201 7.50164C40.0541 7.28237 39.8518 7.13182 39.6227 7.13182H37.8587C37.6443 7.13182 37.4954 7.34128 37.5636 7.54309L39.5408 13.3456L37.6819 15.9698C37.5358 16.1765 37.683 16.4607 37.9356 16.4607H39.7285C39.8987 16.4607 40.0579 16.3778 40.1545 16.2382L46.125 7.62C46.2679 7.41382 46.1212 7.13182 45.8698 7.13182Z" fill="#253B80"/>
<path d="M51.8138 3.68127H48.0829C47.8281 3.68127 47.6111 3.86673 47.5712 4.11873L46.0625 13.6844C46.0325 13.8731 46.1787 14.0433 46.3691 14.0433H48.2836C48.4614 14.0433 48.6136 13.9135 48.6414 13.7367L49.0696 11.0253C49.1089 10.7727 49.3265 10.5873 49.5812 10.5873H50.7616C53.2194 10.5873 54.6371 9.39818 55.008 7.04182C55.1754 6.01091 55.0145 5.20091 54.5318 4.63364C54.0021 4.01073 53.0623 3.68127 51.8138 3.68127ZM52.2441 7.17491C52.0407 8.51346 51.018 8.51346 50.0285 8.51346H49.4661L49.8616 6.01364C49.8851 5.86255 50.0149 5.75127 50.1681 5.75127H50.4261C51.0992 5.75127 51.7352 5.75127 52.0636 6.13527C52.2594 6.36437 52.3189 6.70473 52.2441 7.17491Z" fill="#179BD7"/>
<path d="M62.9643 7.13182H61.179C61.0258 7.13182 60.8954 7.24309 60.8725 7.39418L60.7934 7.89382L60.668 7.71273C60.2812 7.15146 59.4194 6.96382 58.5587 6.96382C56.5847 6.96382 54.8992 8.45891 54.5709 10.5562C54.4007 11.6024 54.6423 12.6027 55.2358 13.3004C55.7812 13.9418 56.559 14.2091 57.4858 14.2091C59.0763 14.2091 59.9583 13.1864 59.9583 13.1864L59.8787 13.6827C59.8487 13.8725 59.9949 14.0427 60.1863 14.0427H61.7949C62.0496 14.0427 62.2667 13.8573 62.3065 13.6047L63.2725 7.49073C63.302 7.30255 63.1558 7.13182 62.9643 7.13182ZM60.4743 10.6085C60.303 11.6291 59.492 12.3142 58.4589 12.3142C57.9412 12.3142 57.5256 12.1478 57.2594 11.8325C56.9954 11.5195 56.8961 11.0738 56.979 10.5775C57.141 9.56564 57.9636 8.85818 58.9809 8.85818C59.4881 8.85818 59.9005 9.02673 60.1721 9.34473C60.4454 9.666 60.5534 10.1144 60.4743 10.6085Z" fill="#179BD7"/>
<path d="M65.0702 3.94363L63.5391 13.6844C63.5091 13.8731 63.6553 14.0433 63.8456 14.0433H65.3849C65.6407 14.0433 65.8578 13.8578 65.8971 13.6053L67.4069 4.04018C67.4369 3.85145 67.2907 3.68073 67.1003 3.68073H65.3767C65.2245 3.68127 65.0936 3.79254 65.0702 3.94363Z" fill="#179BD7"/>
<path d="M3.96267 15.9022L4.24794 14.0902L3.61249 14.0755H0.578125L2.68685 0.70473C2.6934 0.664366 2.71467 0.62673 2.74576 0.600003C2.77685 0.573275 2.81667 0.558548 2.85812 0.558548H7.97449C9.67303 0.558548 10.8452 0.912002 11.4572 1.60964C11.7441 1.93691 11.9269 2.27891 12.0152 2.65528C12.1079 3.05018 12.1096 3.522 12.019 4.09746L12.0125 4.13946V4.50818L12.2994 4.67073C12.541 4.79891 12.733 4.94564 12.8803 5.11364C13.1258 5.39346 13.2845 5.74909 13.3516 6.17073C13.4209 6.60437 13.3979 7.12037 13.2845 7.70455C13.1536 8.37655 12.9419 8.96182 12.6561 9.44073C12.3932 9.882 12.0583 10.248 11.6607 10.5316C11.281 10.8011 10.8299 11.0056 10.3199 11.1365C9.82576 11.2653 9.26231 11.3302 8.64431 11.3302H8.24612C7.9614 11.3302 7.68485 11.4327 7.46776 11.6165C7.25012 11.8042 7.10612 12.0605 7.06194 12.3409L7.03194 12.504L6.52794 15.6976L6.50503 15.8149C6.49903 15.852 6.48867 15.8705 6.4734 15.8831C6.45976 15.8945 6.44012 15.9022 6.42103 15.9022H3.96267Z" fill="#253B80"/>
<path d="M12.5712 4.18201C12.5559 4.27964 12.5385 4.37946 12.5188 4.48201C11.8441 7.94619 9.53573 9.14292 6.58755 9.14292H5.08645C4.72591 9.14292 4.42209 9.40473 4.36591 9.76037L3.59736 14.6346L3.37973 16.0162C3.34318 16.2496 3.52318 16.4602 3.75882 16.4602H6.42118C6.73645 16.4602 7.00427 16.2311 7.05391 15.9202L7.08009 15.7849L7.58136 12.6038L7.61355 12.4293C7.66264 12.1173 7.931 11.8882 8.24627 11.8882H8.64445C11.2239 11.8882 13.2432 10.8409 13.8334 7.81037C14.0799 6.54437 13.9523 5.48728 13.2999 4.74382C13.1025 4.51964 12.8575 4.33364 12.5712 4.18201Z" fill="#179BD7"/>
<path d="M11.8666 3.90055C11.7636 3.87055 11.6572 3.84328 11.5481 3.81873C11.4385 3.79473 11.3261 3.77346 11.2105 3.75492C10.8057 3.68946 10.3623 3.65837 9.88719 3.65837H5.87701C5.77828 3.65837 5.68446 3.68073 5.60046 3.7211C5.41555 3.81001 5.2781 3.9851 5.24482 4.19946L4.39173 9.60274L4.36719 9.76037C4.42337 9.40474 4.72719 9.14292 5.08773 9.14292H6.58882C9.53701 9.14292 11.8454 7.94564 12.5201 4.48201C12.5403 4.37946 12.5572 4.27964 12.5725 4.18201C12.4017 4.09146 12.2168 4.01401 12.0177 3.94801C11.9686 3.93164 11.9179 3.91583 11.8666 3.90055Z" fill="#222D65"/>
<path d="M5.24399 4.19945C5.27727 3.98509 5.41472 3.81 5.59963 3.72164C5.68418 3.68127 5.77745 3.65891 5.87618 3.65891H9.88636C10.3614 3.65891 10.8049 3.69 11.2096 3.75545C11.3253 3.774 11.4376 3.79527 11.5473 3.81927C11.6564 3.84382 11.7627 3.87109 11.8658 3.90109C11.9171 3.91636 11.9678 3.93218 12.0174 3.948C12.2165 4.014 12.4014 4.092 12.5722 4.182C12.7729 2.90182 12.5705 2.03018 11.8784 1.24091C11.1153 0.372 9.73799 0 7.97563 0H2.85927C2.49927 0 2.19218 0.261818 2.13654 0.618L0.00544845 14.1262C-0.0365516 14.3935 0.16963 14.6345 0.439085 14.6345H3.59781L4.3909 9.60273L5.24399 4.19945Z" fill="#253B80"/>
</g>
<defs>
<clipPath id="clip0_444_659">
<rect width="67.6364" height="18" fill="white"/>
</clipPath>
</defs>
</svg>
