<svg width="60" height="60" viewBox="0 0 60 60" fill="none" xmlns="http://www.w3.org/2000/svg">
<g clip-path="url(#clip0_105_403)">
<path d="M53.3815 14.7478C51.9409 14.0336 50.9868 12.6094 50.8744 11.0056L50.8732 10.9876C50.7154 8.73525 48.923 6.94286 46.6707 6.78507L46.6527 6.78386C45.0487 6.67147 43.6246 5.71738 42.9105 4.27678C41.9039 2.24632 39.5518 1.27207 37.4042 1.99606C35.8806 2.50974 34.1989 2.17726 32.9852 1.12262L32.9716 1.11078C31.2673 -0.370261 28.7326 -0.370261 27.0283 1.11078L27.0147 1.12262C25.8011 2.17726 24.1194 2.50962 22.5957 1.99606C20.4481 1.27207 18.0961 2.24632 17.0895 4.27678C16.3754 5.71738 14.9512 6.67147 13.3473 6.78386L13.3293 6.78507C11.0769 6.94286 9.28452 8.73525 9.12673 10.9876L9.12553 11.0056C9.01313 12.6095 8.05905 14.0337 6.61845 14.7478C4.58798 15.7544 3.61374 18.1065 4.33772 20.254C4.85454 21.7871 6.11527 22.9525 7.6842 23.3474L29.9998 28.9654L52.3159 23.3475C53.8848 22.9525 55.1454 21.7872 55.6622 20.2542C56.3863 18.1066 55.412 15.7544 53.3815 14.7478Z" fill="#77718C"/>
<path d="M23.4945 43.3723L26.4241 51.6861L23.4945 59.9999H13.6091C13.6091 47.8761 21.0257 43.3723 21.0257 43.3723H23.4945Z" fill="#EAEAEA"/>
<path d="M46.1184 59.9999H36.233L33.9326 51.6861L36.233 43.3723H38.7018C38.7018 43.3723 46.1184 47.8761 46.1184 59.9999Z" fill="#EAEAEA"/>
<path d="M23.4944 43.3723H36.233V59.9999H23.4944V43.3723Z" fill="#81DDFD"/>
<path d="M14.7023 45.3097V38.1353H9.05748V45.3097C7.28054 46.3013 6.07812 48.1991 6.07812 50.3785C6.07812 53.5828 8.67563 56.1803 11.8799 56.1803C15.0842 56.1803 17.6817 53.5828 17.6817 50.3785C17.6817 48.199 16.4793 46.3013 14.7023 45.3097Z" fill="#81DDFD"/>
<path d="M15.5563 24.5977C15.5563 15.894 19.0067 7.99713 24.6125 2.19681C23.9444 2.28156 23.2553 2.2183 22.5957 1.99592C20.4481 1.27194 18.0961 2.24619 17.0895 4.27665C16.3753 5.71725 14.9512 6.67134 13.3473 6.78373L13.3293 6.78494C11.0769 6.94273 9.28452 8.73512 9.12674 10.9875L9.12553 11.0055C9.01313 12.6094 8.05905 14.0336 6.61845 14.7477C4.58798 15.7543 3.61374 18.1065 4.33772 20.2539C4.85454 21.787 6.11527 22.9523 7.6842 23.3472L15.5658 25.3315C15.5601 25.0876 15.5563 24.8431 15.5563 24.5977Z" fill="#6A647F"/>
<path d="M49.9674 31.6357C53.0777 31.6357 55.599 29.1143 55.599 26.004C55.599 22.8937 53.0777 20.3723 49.9674 20.3723C46.8571 20.3723 44.3357 22.8937 44.3357 26.004C44.3357 29.1143 46.8571 31.6357 49.9674 31.6357Z" fill="#FFBD86"/>
<path d="M33.0235 59.9999L31.8045 48.9565H27.9232L26.7041 59.9999H33.0235Z" fill="#77718C"/>
<path d="M27.3096 43.7422V47.3908C27.3096 48.8013 28.453 49.9448 29.8635 49.9448C31.2739 49.9448 32.4174 48.8014 32.4174 47.3908V43.7422H27.3096Z" fill="#827F98"/>
<path d="M47.9819 15.8545C46.5866 13.1506 43.4163 11.89 40.518 12.816C37.4929 13.7825 33.8803 14.3441 29.9999 14.3441C26.1196 14.3441 22.5069 13.7825 19.4819 12.816C16.5811 11.8892 13.4104 13.1537 12.0148 15.8604C10.6169 18.5716 9.81392 21.6397 9.77903 24.8921C9.65855 36.14 18.6152 45.2606 29.8636 45.3348C41.0944 45.4088 50.2219 36.3269 50.2219 25.1132C50.2219 21.7764 49.4134 18.6286 47.9819 15.8545Z" fill="#FED2A4"/>
<path d="M41.9539 59.9998V54.4174C41.9539 53.9174 41.5487 53.512 41.0485 53.512C40.5483 53.512 40.1431 53.9174 40.1431 54.4174V59.9998H41.9539Z" fill="#E2E2E2"/>
<path d="M44.7116 27.9817C45.4243 24.967 43.5581 21.9454 40.5434 21.2328C37.5287 20.5201 34.5071 22.3863 33.7945 25.401C33.0818 28.4157 34.948 31.4373 37.9627 32.1499C40.9774 32.8626 43.999 30.9964 44.7116 27.9817Z" fill="#FFD7B6"/>
<path d="M21.7487 43.5955C17.8558 38.2675 15.5563 31.7015 15.5563 24.5975C15.5563 20.3282 16.3881 16.2537 17.8953 12.5247C15.4935 12.3942 13.1585 13.6427 12.015 15.8602C11.2841 17.2775 10.7178 18.7932 10.3369 20.3809C10.2373 20.3754 10.136 20.3721 10.0325 20.3721C6.92221 20.3721 4.40088 22.8935 4.40088 26.0038C4.40088 29.1141 6.92221 31.6355 10.0325 31.6355C10.3103 31.6355 10.5732 31.6145 10.8227 31.5757C12.6206 36.9533 16.608 41.3116 21.7487 43.5955Z" fill="#FFBD86"/>
<path d="M26.2063 27.9768C26.9189 24.9621 25.0527 21.9405 22.038 21.2279C19.0233 20.5153 16.0017 22.3815 15.2891 25.3961C14.5765 28.4108 16.4427 31.4324 19.4574 32.1451C22.4721 32.8577 25.4936 30.9915 26.2063 27.9768Z" fill="#FFD7B6"/>
<path d="M20.8918 25.1794C20.3917 25.1794 19.9863 25.5848 19.9863 26.0849V27.8351C19.9863 28.3352 20.3917 28.7406 20.8918 28.7406C21.3918 28.7406 21.7972 28.3352 21.7972 27.8351V26.0849C21.7972 25.5848 21.3918 25.1794 20.8918 25.1794Z" fill="#423E4F"/>
<path d="M39.1081 25.1794C38.6079 25.1794 38.2026 25.5848 38.2026 26.0849V27.8351C38.2026 28.3352 38.6079 28.7406 39.1081 28.7406C39.6082 28.7406 40.0135 28.3352 40.0135 27.8351V26.0849C40.0135 25.5848 39.6082 25.1794 39.1081 25.1794Z" fill="#423E4F"/>
<path d="M32.69 30.8134C32.3128 30.4849 31.7409 30.5242 31.4125 30.9012C31.0559 31.3104 30.541 31.5451 29.9999 31.5451C29.4589 31.5451 28.9439 31.3104 28.5872 30.9011C28.2587 30.5242 27.6867 30.4849 27.3098 30.8134C26.9328 31.142 26.8937 31.7139 27.2221 32.0909C27.9228 32.8948 28.9352 33.356 29.9999 33.356C31.0646 33.356 32.0771 32.8948 32.7778 32.0909C33.1063 31.7139 33.0669 31.1419 32.69 30.8134Z" fill="#423E4F"/>
<path d="M39.2501 19.5459C35.6827 19.5459 32.719 22.1801 32.2023 25.6063C31.5093 25.3141 30.7608 25.1584 30.0002 25.1584C29.2397 25.1584 28.49 25.3141 27.7982 25.6063C27.2803 22.1801 24.3165 19.5459 20.7491 19.5459C16.8183 19.5459 13.6204 22.7439 13.6204 26.6747C13.6204 30.6055 16.8183 33.8034 20.7491 33.8034C24.3479 33.8034 27.331 31.1222 27.8091 27.6525C28.4501 27.2107 29.2155 26.9692 30.0002 26.9692C30.7837 26.9692 31.5491 27.2107 32.1902 27.6525C32.6695 31.1222 35.6514 33.8034 39.2501 33.8034C43.1809 33.8034 46.3789 30.6055 46.3789 26.6747C46.3789 22.7439 43.1809 19.5459 39.2501 19.5459ZM20.7491 31.9926C17.8167 31.9926 15.4312 29.6071 15.4312 26.6747C15.4312 23.7423 17.8167 21.3568 20.7491 21.3568C23.6815 21.3568 26.067 23.7423 26.067 26.6747C26.067 29.6071 23.6815 31.9926 20.7491 31.9926ZM39.2501 31.9926C36.3177 31.9926 33.9322 29.6071 33.9322 26.6747C33.9322 23.7423 36.3177 21.3568 39.2501 21.3568C42.1825 21.3568 44.568 23.7423 44.568 26.6747C44.568 29.6071 42.1825 31.9926 39.2501 31.9926Z" fill="#423E4F"/>
<path d="M14.6822 35.4431H9.07754C7.5913 35.4431 6.38647 36.6479 6.38647 38.1342C6.38647 39.6204 7.5913 40.8252 9.07754 40.8252H14.6822C16.1684 40.8252 17.3732 39.6204 17.3732 38.1342C17.3732 36.6479 16.1684 35.4431 14.6822 35.4431Z" fill="#A4E6FF"/>
<path d="M11.2396 43.6924C11.2396 41.7525 11.5487 39.885 12.1183 38.1353H9.05748V45.3097C7.28054 46.3013 6.07812 48.1991 6.07812 50.3785C6.07812 53.5828 8.67563 56.1803 11.8799 56.1803C13.1603 56.1803 14.3432 55.7646 15.3028 55.0621C12.7638 51.9671 11.2396 48.0078 11.2396 43.6924Z" fill="#5BD6FD"/>
<path d="M13.2455 35.4431H9.07754C7.5913 35.4431 6.38647 36.6479 6.38647 38.1342C6.38647 39.6204 7.5913 40.8252 9.07754 40.8252H11.4687C11.7759 38.9133 12.3847 37.1025 13.2455 35.4431Z" fill="#81DDFD"/>
<path d="M13.3589 52.7278H12.6952C10.687 52.7278 9.05908 54.3557 9.05908 56.3639C9.05908 58.372 10.687 60 12.6952 60H13.3589C15.367 60 16.995 58.372 16.995 56.3639C16.995 54.3556 15.367 52.7278 13.3589 52.7278Z" fill="#FED2A4"/>
</g>
<defs>
<clipPath id="clip0_105_403">
<rect width="60" height="60" fill="white"/>
</clipPath>
</defs>
</svg>
