<svg width="61" height="60" viewBox="0 0 61 60" fill="none" xmlns="http://www.w3.org/2000/svg">
<path d="M26.1215 27.4054C10.4729 31.6217 6.01343 26.4325 6.01343 26.4325C6.74316 24.4054 7.71613 22.6217 8.77018 21.2433C10.3918 19.1352 11.3648 16.6217 11.3648 13.946H20.4459C20.4459 16.6217 21.4188 19.1352 23.0405 21.2433C24.2567 22.8649 25.3918 24.973 26.1215 27.4054Z" fill="#ECECEC"/>
<path d="M21.3378 6.40544C20.4459 10.6217 15.9053 19.3784 15.9053 19.3784C15.9053 19.3784 11.3648 10.6217 10.4729 6.40544C10.4729 3.24327 21.3378 3.24327 21.3378 6.40544Z" fill="#774C13"/>
<path d="M27.5 35.1892C27.0946 40.6216 26.527 45.3243 25.3919 48.5676C23.9324 51.973 21.9054 54.5676 19.473 55.9459H12.3378C7.63514 53.3514 4.22974 45.8919 4.22974 36.973C4.22974 33.0811 4.87839 29.5135 6.01352 26.4324C6.01352 26.4324 10.473 31.6216 26.2027 27.4054C26.9324 29.7568 27.4189 32.4324 27.5 35.1892Z" fill="#C16527"/>
<path d="M20.4459 13.946H22.554C23.527 13.946 24.3378 13.1352 24.3378 12.1622C24.3378 11.1892 23.527 10.3784 22.554 10.3784H20.0405H11.7702H9.25668C8.28371 10.3784 7.4729 11.1892 7.4729 12.1622C7.4729 13.1352 8.28371 13.946 9.25668 13.946H11.3648H20.4459Z" fill="#ECECEC"/>
<path d="M19.635 41.7568C19.635 43.8649 17.9323 45.5676 15.8242 45.5676C13.7161 45.5676 12.0134 43.8649 12.0134 41.7568C12.0134 39.6487 15.8242 34.946 15.8242 34.946C15.8242 34.946 19.635 39.6487 19.635 41.7568Z" fill="#FF862F"/>
<path d="M51.8243 39.1622C53.6081 47.1892 47.4459 54.973 39.0946 54.973C31.8784 54.973 26.0405 49.1352 26.0405 42C26.0405 34.2163 32.8513 28.2973 40.2297 29.0271C46.0676 31.2163 50.527 34.2973 51.8243 39.1622Z" fill="#FF862F"/>
<path d="M56.7703 40.4595C56.7703 40.4595 50.9325 40.6217 46.3108 37.2973C41.7703 33.973 40.1487 28.3784 40.1487 28.3784C40.1487 28.3784 45.9865 28.2163 50.6081 31.5406C55.1487 34.8649 56.7703 40.4595 56.7703 40.4595Z" fill="#227416"/>
<path d="M49.8783 35.3514C48.3378 32.2703 42.7432 29.027 41.4459 28.2973C41.2026 27.5676 40.7972 26.1081 41.2026 25.0541C41.3648 24.6487 41.1216 24.1622 40.7161 24C40.3107 23.8379 39.8243 24.0811 39.6621 24.4865C39.1756 25.946 39.6621 27.8108 39.9053 28.6216C39.2567 29.4324 37.9594 31.3784 37.7972 33.8919C37.6351 33.8108 37.3918 33.6487 37.3107 33.4865C36.9864 33.1622 36.4999 33.1622 36.1756 33.4054C35.8513 33.7297 35.8513 34.2162 36.0945 34.5406C36.7432 35.2703 37.6351 35.6757 38.608 35.6757H38.6891C39.6621 35.6757 40.554 35.2703 41.2837 34.5406C41.608 34.2162 41.608 33.7297 41.2837 33.4054C40.9594 33.0811 40.4729 33.0811 40.1486 33.4054C39.9864 33.6487 39.7432 33.7297 39.4999 33.8919C39.6621 32.027 40.554 30.4865 41.1216 29.7568C43.2297 30.973 47.4459 33.6487 48.4999 35.9189C48.6621 36.2433 48.9053 36.4054 49.2297 36.4054C49.3107 36.4054 49.4729 36.4054 49.554 36.3243C49.9594 36.2433 50.1216 35.7568 49.8783 35.3514Z" fill="#552C00"/>
<path d="M29.6892 47.1892C29.446 47.1892 29.2838 47.1082 29.1217 46.946C29.0406 46.8649 28.9595 46.7838 28.9595 46.7028C28.8784 46.6217 28.8784 46.4595 28.8784 46.3784C28.8784 46.2973 28.8784 46.1352 28.9595 46.0541C28.9595 45.973 29.0406 45.8919 29.1217 45.8109C29.3649 45.5676 29.6892 45.4865 30.0136 45.6487C30.0946 45.6487 30.0946 45.6487 30.1757 45.7298C30.1757 45.7298 30.2568 45.8109 30.3379 45.8109C30.419 45.8919 30.5 45.973 30.5 46.0541C30.5 46.1352 30.5811 46.2973 30.5811 46.3784C30.5811 46.4595 30.5811 46.6217 30.5 46.7028C30.419 46.7838 30.419 46.8649 30.3379 46.946C30.1757 47.1082 29.9325 47.1892 29.6892 47.1892Z" fill="#BC5D1D"/>
<path d="M32.0405 50.5135C31.9595 50.5135 31.7973 50.5135 31.7162 50.4324C31.6351 50.4324 31.5541 50.3514 31.473 50.2703C31.3919 50.1892 31.3108 50.1081 31.3108 50.027C31.2297 49.946 31.2297 49.7838 31.2297 49.7027C31.2297 49.6216 31.2297 49.4595 31.3108 49.3784C31.3108 49.2973 31.3919 49.2162 31.473 49.1351C31.7973 48.8108 32.2838 48.8108 32.6081 49.1351C32.6892 49.2162 32.7703 49.2973 32.7703 49.3784C32.7703 49.4595 32.8514 49.6216 32.8514 49.7027C32.8514 49.7838 32.8514 49.946 32.7703 50.027C32.6892 50.1081 32.6892 50.1892 32.6081 50.2703C32.446 50.4324 32.2027 50.5135 32.0405 50.5135Z" fill="#BC5D1D"/>
<path d="M33.5 46.7838C33.4189 46.7838 33.2568 46.7838 33.1757 46.7027C33.0946 46.7027 33.0135 46.6216 32.9325 46.5405C32.8514 46.4595 32.7703 46.3784 32.7703 46.2973C32.6892 46.2162 32.6892 46.0541 32.6892 45.973C32.6892 45.8919 32.6892 45.7297 32.7703 45.6487C32.7703 45.5676 32.8514 45.4865 32.9325 45.4054C33.0946 45.2433 33.4189 45.1622 33.6622 45.1622C33.7433 45.1622 33.7433 45.1622 33.8243 45.2433C33.9054 45.2433 33.9054 45.3243 33.9865 45.3243C33.9865 45.3243 34.0676 45.4054 34.1487 45.4054C34.2297 45.4865 34.3108 45.5676 34.3108 45.6487C34.3919 45.7297 34.3919 45.8919 34.3919 45.973C34.3919 46.0541 34.3919 46.2162 34.3108 46.2973C34.3108 46.3784 34.2297 46.4595 34.1487 46.5405C34.0676 46.6216 33.9865 46.7027 33.9054 46.7027C33.8243 46.7027 33.5811 46.7838 33.5 46.7838Z" fill="#BC5D1D"/>
</svg>
