<svg width="16" height="17" viewBox="0 0 16 17" fill="none" xmlns="http://www.w3.org/2000/svg">
<path d="M8 16.5C12.4187 16.5 16 12.9187 16 8.5C16 4.08125 12.4187 0.5 8 0.5C3.58125 0.5 0 4.08125 0 8.5C0 12.9187 3.58125 16.5 8 16.5ZM6.75 11H7.5V9H6.75C6.33437 9 6 8.66562 6 8.25C6 7.83437 6.33437 7.5 6.75 7.5H8.25C8.66562 7.5 9 7.83437 9 8.25V11H9.25C9.66562 11 10 11.3344 10 11.75C10 12.1656 9.66562 12.5 9.25 12.5H6.75C6.33437 12.5 6 12.1656 6 11.75C6 11.3344 6.33437 11 6.75 11ZM8 6.5C7.44688 6.5 7 6.05312 7 5.5C7 4.94688 7.44688 4.5 8 4.5C8.55313 4.5 9 4.94688 9 5.5C9 6.05312 8.55313 6.5 8 6.5Z" fill="#2A7B72"/>
</svg>
