<svg width="95" height="115" viewBox="0 0 95 115" fill="none" xmlns="http://www.w3.org/2000/svg">
<path d="M10.9463 114.323C10.7678 114.846 10.1994 115.125 9.67673 114.946L1.15997 112.037C0.637344 111.858 0.358398 111.29 0.536942 110.767C0.715477 110.245 1.28388 109.966 1.80652 110.144L9.37697 112.73L11.9631 105.16C12.1417 104.637 12.7101 104.358 13.2327 104.537C13.7553 104.715 14.0343 105.284 13.8558 105.806L10.9463 114.323ZM93.752 4.96879C92.7583 4.71441 91.7686 4.48262 90.783 4.27297L91.1991 2.31674C92.2116 2.53212 93.228 2.77015 94.248 3.03127L93.752 4.96879ZM84.8254 3.26489C82.7985 3.01031 80.7918 2.84874 78.8073 2.77606L78.8805 0.777396C80.9241 0.852242 82.9896 1.01859 85.0747 1.28048L84.8254 3.26489ZM72.7731 2.82858C70.7448 2.93896 68.7432 3.14227 66.7708 3.43389L66.4783 1.45539C68.5114 1.15481 70.5743 0.945284 72.6644 0.831539L72.7731 2.82858ZM60.8485 4.59219C58.8821 5.07222 56.9492 5.64089 55.0524 6.29324L54.402 4.40197C56.3559 3.72996 58.3476 3.14398 60.3742 2.64925L60.8485 4.59219ZM49.4351 8.5136C47.5943 9.33831 45.7933 10.2435 44.0351 11.224L43.061 9.47722C44.8693 8.46878 46.7225 7.53737 48.6173 6.68841L49.4351 8.5136ZM38.8856 14.3904C37.2151 15.5172 35.5904 16.7142 34.0144 17.9764L32.7642 16.4154C34.3821 15.1196 36.0507 13.8901 37.7672 12.7323L38.8856 14.3904ZM29.4453 21.9444C27.9771 23.3243 26.5603 24.7636 25.1977 26.2571L23.7202 24.9092C25.1169 23.3783 26.5696 21.9025 28.0755 20.4871L29.4453 21.9444ZM21.2869 30.8808C20.0428 32.4678 18.8553 34.1034 17.7272 35.7824L16.0671 34.667C17.2222 32.9478 18.4384 31.2727 19.7129 29.6469L21.2869 30.8808ZM14.5322 40.9307C13.5305 42.6829 12.5905 44.4729 11.7152 46.2959L9.91226 45.4303C10.8083 43.5642 11.7704 41.7317 12.7959 39.938L14.5322 40.9307ZM9.28991 51.8488C8.54875 53.7268 7.87468 55.6324 7.27045 57.5608L5.36195 56.9628C5.98066 54.9882 6.67081 53.0371 7.42955 51.1146L9.28991 51.8488ZM5.67146 63.4035C5.21046 65.3686 4.82183 67.3514 4.50831 69.3469L2.53255 69.0365C2.85387 66.9913 3.25208 64.9598 3.72432 62.9467L5.67146 63.4035ZM3.79639 75.3593C3.63612 77.369 3.55322 79.3865 3.55038 81.4069L1.55038 81.4041C1.5533 79.3309 1.63837 77.2613 1.80272 75.2003L3.79639 75.3593ZM3.78327 87.4537C3.94146 89.4587 4.18105 91.4618 4.50469 93.4583L2.53046 93.7783C2.19796 91.7271 1.95189 89.6697 1.78947 87.611L3.78327 87.4537ZM5.71947 99.3794C6.20404 101.324 6.77234 103.258 7.42687 105.176L5.534 105.822C4.86107 103.85 4.27689 101.862 3.77882 99.863L5.71947 99.3794ZM9.61908 110.808C10.0239 111.73 10.45 112.647 10.8977 113.559L9.10227 114.441C8.64207 113.503 8.20401 112.56 7.7878 111.612L9.61908 110.808Z" fill="#BDD7B7"/>
</svg>
