<svg width="105" height="141" viewBox="0 0 105 141" fill="none" xmlns="http://www.w3.org/2000/svg">
<path d="M14.4806 140.196C14.3723 140.737 13.8454 141.089 13.3039 140.98L4.47865 139.215C3.9371 139.107 3.58588 138.58 3.69419 138.039C3.8025 137.497 4.32932 137.146 4.87089 137.254L12.7155 138.823L14.2844 130.978C14.3928 130.437 14.9196 130.086 15.4611 130.194C16.0027 130.302 16.3539 130.829 16.2456 131.371L14.4806 140.196ZM103.729 4.96222C102.759 4.68889 101.791 4.43784 100.826 4.20867L101.288 2.26279C102.28 2.49837 103.274 2.75635 104.271 3.03714L103.729 4.96222ZM95.0032 3.08262C93.0239 2.78682 91.058 2.58158 89.1077 2.46317L89.2289 0.466842C91.2377 0.588806 93.2617 0.800151 95.2988 1.10459L95.0032 3.08262ZM83.1804 2.36809C81.1901 2.42528 79.2183 2.57195 77.267 2.80402L77.0308 0.818014C79.0409 0.578948 81.0724 0.427833 83.1229 0.368918L83.1804 2.36809ZM71.4137 3.76563C69.473 4.17319 67.5557 4.66494 65.6641 5.23662L65.0855 3.32214C67.0314 2.73406 69.0046 2.22795 71.0027 1.80832L71.4137 3.76563ZM60.0566 7.1919C58.2169 7.92024 56.4053 8.72445 54.6239 9.60029L53.7415 7.80549C55.5696 6.90664 57.4301 6.08073 59.3204 5.33233L60.0566 7.1919ZM49.392 12.4274C47.6891 13.4325 46.0184 14.5038 44.3821 15.6371L43.2433 13.993C44.9185 12.8328 46.6299 11.7353 48.3754 10.705L49.392 12.4274ZM39.6093 19.1948C38.0644 20.4309 36.5554 21.7233 35.0846 23.0679L33.7351 21.5918C35.2377 20.2181 36.78 18.8972 38.3599 17.6331L39.6093 19.1948ZM30.8166 27.2264C29.4414 28.6528 28.1058 30.1262 26.8119 31.6427L25.2905 30.3446C26.6103 28.7977 27.9731 27.2943 29.3767 25.8383L30.8166 27.2264ZM23.0767 36.2921C21.8796 37.875 20.7255 39.4963 19.6167 41.1521L17.9549 40.0392C19.0849 38.3519 20.2611 36.6994 21.4815 35.0857L23.0767 36.2921ZM16.438 46.2021C15.4269 47.9134 14.4626 49.655 13.5473 51.4232L11.7712 50.5037C12.7037 48.7025 13.686 46.9282 14.716 45.1848L16.438 46.2021ZM10.9524 56.7975C10.1375 58.613 9.37351 60.4512 8.66238 62.3082L6.79465 61.5929C7.51923 59.7008 8.29762 57.8281 9.12775 55.9786L10.9524 56.7975ZM6.68764 67.9383C6.08248 69.8354 5.53263 71.7476 5.0401 73.6711L3.10262 73.1749C3.60485 71.2135 4.16543 69.2641 4.78223 67.3305L6.68764 67.9383ZM3.73321 79.4888C3.35525 81.444 3.03746 83.4066 2.78189 85.3728L0.798576 85.115C1.05952 83.1074 1.38392 81.1041 1.76956 79.1092L3.73321 79.4888ZM2.20232 91.3025C2.07269 93.2887 2.00842 95.2746 2.0116 97.2562L0.0115967 97.2594C0.00834656 95.2324 0.0740891 93.2021 0.206573 91.1723L2.20232 91.3025ZM2.22712 103.206C2.36869 105.187 2.58069 107.16 2.86522 109.121L0.885948 109.408C0.594307 107.399 0.377159 105.377 0.232201 103.348L2.22712 103.206ZM3.94009 114.969C4.37209 116.901 4.87878 118.817 5.46228 120.713L3.55079 121.301C2.95158 119.355 2.43151 117.388 1.98827 115.405L3.94009 114.969ZM7.43698 126.314C8.16755 128.145 8.97539 129.952 9.86258 131.732L8.07262 132.624C7.16051 130.795 6.33016 128.937 5.5794 127.055L7.43698 126.314ZM12.7296 136.929C13.2439 137.775 13.778 138.614 14.332 139.445L12.668 140.555C12.0983 139.7 11.5492 138.837 11.0204 137.967L12.7296 136.929Z" fill="#BDD7B7"/>
</svg>
