<?xml version="1.0" encoding="utf-8"?>
<!-- Generator: Adobe Illustrator 24.3.0, SVG Export Plug-In . SVG Version: 6.00 Build 0)  -->
<svg version="1.1" id="Layer_1" xmlns="http://www.w3.org/2000/svg" xmlns:xlink="http://www.w3.org/1999/xlink" x="0px" y="0px"
	 viewBox="0 0 1500 1500" style="enable-background:new 0 0 1500 1500;" xml:space="preserve">
<style type="text/css">
	.st0{fill-rule:evenodd;clip-rule:evenodd;fill:#277C70;}
	.st1{fill-rule:evenodd;clip-rule:evenodd;fill:#FFFFFF;}
</style>
<g>
	<path class="st0" d="M618.2,53.8c47.8-8.6,96.4-13.3,144.9-12.8c71.9-0.3,143.9,10,213.1,29.5c17.2,5.3,35.1,9.5,51.3,17.6
		c6.1,0.4,11.6,3.4,17.2,5.4c100,39.3,191.8,101.3,262,183.3c78,89.8,128.1,202,150.7,318.5c12.3,64.9,18.9,131.3,13.8,197.3
		c-8.2,110.5-52.2,216.4-117.3,305.2c-19.1,26.3-39.9,51.4-62.3,75.1c-6,5.8-11.3,12.6-18.5,17.1c-14.6,18.2-32.8,32.9-50,48.4
		c-20.4,17.6-41.5,34.3-63.2,50.3c-25.6,18.2-51.4,36.4-78.8,51.8c-26.8,17.4-55.7,31.8-84.4,46c-26.4,13.9-54.2,24.7-81.7,35.9
		c-46.6,16.8-94.6,32.7-144.4,35.6c-20.9,2.7-41.9-0.8-62.8-1.1c-95.9-6.3-191.2-27.3-279.9-64.7
		c-101.8-43.3-194.3-111.1-260.7-200.4c-52.8-69.8-88.9-151.3-110.8-235.8c-21.7-84.8-30-172.7-29.3-260.2
		c1.1-74.6,11.4-149.5,35.2-220.4c17.6-52,42.3-101.6,73.9-146.5c42.5-60.5,97.2-111.7,158.8-152.4l-0.3-0.2
		c59.8-38.3,124.5-69.7,192.5-90.2C529.6,71,573.9,61.4,618.2,53.8z"/>
	<path class="st1" d="M534.9,335c8.1-1.6,22.2-2.3,42.2-2.3c11.6,0.3,19.1,0.8,22.5,1.4c3.4,0.6,7.8,2.3,13.1,5.2
		c6.9,3.7,12.2,8.7,15.9,15c3.1,5,4.7,10,4.7,15c0,4.1-0.2,7.7-0.5,10.8c-0.9,12.2-4.4,26.4-10.3,42.7
		c-14.7,40.9-39.5,94.4-74.5,160.3c-14.4,27.5-21.6,42.7-21.6,45.5c0,5.3,2,8.5,6.1,9.6c4.1,1.1,18.3,2,42.7,2.6
		c30,0.6,47.7,2.3,53,5.2c10,4.7,15,11.9,15,21.6c0,5.6-2,10.8-6.1,15.5c-4.1,4.7-9.7,7.8-16.9,9.4c-6.9,1.2-17.2,1.9-30.9,1.9
		c-35.9,0-58.7-1.7-68.4-5.2c-6.6-2.2-13.2-5.5-19.9-10.1c-6.7-4.5-11.6-9-14.8-13.4c-5.3-7.8-8-18-8-30.5c0-5.3,0.3-9.4,0.9-12.2
		c1.2-6.6,11.2-37.4,29.8-92.6c18.6-55.2,32.1-93.8,40.5-116l9.4-23.9h-41.2h-15.5c-12.8,0-21-0.2-24.6-0.7c-3.6-0.5-7.9-2-12.9-4.5
		c-5-2.5-8.3-4.5-9.8-6.1c-1.6-1.6-2.7-3.9-3.3-7c0-0.3-0.1-0.9-0.2-1.6c-0.2-0.8-0.2-1.3-0.2-1.6c0-7.2,3.1-12.5,9.4-15.9
		c2.8-1.6,13.3-4.5,31.4-8.9C509.9,339.5,524.3,336.6,534.9,335L534.9,335z M691.1,329.9c4.1-2.5,12.5-3.7,25.3-3.7
		c11.9,0,27,0.6,45.5,1.9c20.9,1.6,35.5,3.9,43.8,7c8.3,3.1,12.4,8.4,12.4,15.9c0,0.3-0.1,0.9-0.2,1.6c-0.2,0.8-0.2,1.5-0.2,2.1
		c-1.3,9.1-7,15.2-17.3,18.3c-13.4,3.7-32,5.6-55.8,5.6h-7.5l-16.9-0.9v26.7c0,17.2,0.3,31.4,0.9,42.7l1.4,15l30.9,1.4
		c21.2,0.6,35.7,2.5,43.4,5.6c7.7,3.1,11.5,8.7,11.5,16.9c0,5.6-2.5,10.6-7.5,15c-9.7,9.4-27.3,14.1-53,14.1H723l-0.5,50.6
		c0,33.4,0.8,51.2,2.3,53.4c1.9,2.5,9.8,4.4,23.9,5.6c18.4,2.2,32.8,4.5,43.1,7c14.7,3.4,24.5,6.9,29.3,10.3
		c4.8,3.4,7.3,8.6,7.3,15.5c0,7.2-4.7,13.3-14.1,18.3c-2.5,1.6-11.1,2.3-25.8,2.3c-17.8,0-34.8-0.8-51.1-2.3
		c-21.2-1.6-35.7-5-43.4-10.3c-7.7-5.3-12.7-15.3-15.2-30c-2.5-17.2-4.8-51.7-7-103.6c-2.2-51.9-3.3-95.9-3.3-132.2
		c0-25.9,0.6-40.8,1.9-44.5C673.9,343.6,680.8,335.2,691.1,329.9L691.1,329.9z M978.5,326.1c2.8-0.9,5.5-1.4,8-1.4
		c10.9,0,18.6,7.7,23,23c3.1,10.6,7.1,51.6,12,123c4.8,71.4,7.3,124.3,7.3,158.7c0,18.4-1.5,31.1-4.4,38c-3,6.9-8.5,10.3-16.6,10.3
		c-7.8,0-14.8-5-21.1-15c-6.3-10-20.2-37.7-41.7-83l-38-79.7l-1.4,96.6c-0.6,64.4-2.2,99.2-4.7,104.5c-2.5,5.3-4.9,8.9-7.3,10.8
		c-2.3,1.9-5.9,2.8-10.5,2.8c-5.6,0-10.1-2.3-13.4-6.8c-3.3-4.5-6.5-12.9-9.6-25.1c-4.7-17.2-7-40.3-7-69.4c0-6.3,0.3-18.1,0.9-35.6
		c0.3-6.6,0.5-20.2,0.5-40.8c0-20.6-0.3-50.9-0.9-90.9c-0.6-17.5-0.9-40.1-0.9-68c0-15.3,0.2-23.4,0.5-24.4c1.2-4.7,4-8.7,8.2-12.2
		c4.2-3.4,8.5-5.2,12.9-5.2c5,0,9.7,2.3,14.1,7c2.8,2.8,6.4,8.1,10.8,15.9c4.4,7.8,9.1,16.9,14.1,27.2c5,10.3,10.2,21.3,15.7,33
		c5.5,11.7,10.6,23.1,15.5,34.2c4.8,11.1,9.3,21.2,13.4,30.5c4.1,9.2,7.2,16.5,9.4,21.8l3.7,8.4c0.3-0.3-0.9-26.2-3.7-77.8
		c-1.9-35-2.8-62.3-2.8-82v-5.6C965.6,336.9,970.4,329.2,978.5,326.1z"/>
	<g>
		<path class="st1" d="M419.6,787c-6.3-1.6-10.9-2.4-13.7-2.4c-3.5,0-7.4,0.9-11.8,2.8c-6.3,2.8-9.4,7.7-9.4,14.6
			c0,1.3,0.3,5.4,0.9,12.3c0.9,10.7,2,31.8,3.3,63.3c0.9,30.2,2.7,46.6,5.2,49.1c2.5,2.5,5.5,2.8,9,0.9c5-2.8,11.3-10.5,18.9-22.9
			c7.6-12.4,12.9-24.2,16.1-35.2c4.1-13.2,6.1-25.7,6.1-37.3c0-13.2-3-24.4-9-33.5C431.4,792.8,426.2,788.9,419.6,787L419.6,787z
			 M392.7,759.6c20.2-0.9,33.1-1.4,38.7-1.4c21.7,0,37.5,12,47.3,35.9c3.1,7.6,4.7,20.3,4.7,38.3c0,35-9.3,66-27.9,93.1
			c-4.7,6.9-13,16.1-24.8,27.4c-11.8,11.3-22.3,20.3-31.4,26.9c-2.8,1.9-4.6,19.7-5.2,53.4c-0.6,27.7-1.8,47.5-3.5,59.3
			c-1.7,11.8-4.8,22.1-9.2,31c-7.2,13.2-16.4,19.8-27.4,19.8c-9.5,0-17.8-5-25-15.1c-4.7-6-7.8-14.3-9.2-24.8
			c-1.4-10.6-2.1-32.5-2.1-65.9c0-9.8,0.3-44.3,0.9-103.5c0.9-93.6,2.7-142.7,5.2-147.4c5-10.7,11.7-17.6,19.8-20.8
			C351.7,762.6,368.1,760.5,392.7,759.6z"/>
		<path class="st1" d="M560.6,813.4c-0.9-2.8-1.9-4.3-2.8-4.3c-2.2,0-5.5,9-9.9,26.9c-8.8,37.5-13.2,64.6-13.2,81.3
			c0,0.6,0,1.4,0,2.4l0.5,1.4c0.6,1.9,5.4,2.8,14.2,2.8c10.4-0.3,16.9-1.1,19.6-2.4c2.7-1.3,4-4.6,4-9.9c0-7.6-1.7-25-5.2-52.4
			C564.3,831.8,561.9,816.5,560.6,813.4L560.6,813.4z M551.7,753.4c3.5-3.5,7.1-5.2,10.9-5.2c13.9,0,28.5,19.7,43.9,59.1
			c6.6,16.1,17.6,49,33.1,98.8c15.4,49.8,25.7,85.1,30.7,105.8c9.8,40.3,14.7,67.3,14.7,80.8c0,3.1-0.2,5-0.5,5.7
			c-3.5,10.4-15.1,16.1-35,17h-5.7c-10.1,0-17.2-2.6-21.5-7.8c-4.3-5.2-8.3-16-12-32.4c-0.6-2.8-1.6-7.5-2.8-13.9
			c-1.3-6.5-3-14.6-5.2-24.6c-2.2-9.9-3.9-17.9-5.2-23.9c-5.4-24.3-9.4-39.2-12-44.9c-2.7-5.7-8-8.5-15.8-8.5c-5,0-9.1,0.2-12.3,0.5
			c-10.7,0.6-18.1,1.7-22.2,3.1c-4.1,1.4-7.1,3.7-9,6.8c-1.6,2.8-4.7,21.3-9.4,55.3c-3.8,28-7.2,47.9-10.2,59.5
			c-3,11.7-6.8,20-11.6,25c-4.1,4.4-8.3,6.6-12.8,6.6c-0.3,0-1.1-0.1-2.4-0.2c-1.3-0.2-2.4-0.2-3.3-0.2c-7.6-0.6-11.3-4.4-11.3-11.3
			c0-6.9,4.6-35.7,13.7-86.2c9.1-50.6,17-90,23.6-118.4C520.6,816.7,537.2,767.9,551.7,753.4z"/>
		<path class="st1" d="M879.8,783.4c2.8-0.9,8.2-1.4,16.1-1.4h4.7c12.6,0.3,24.6,4.4,35.9,12.3c11.3,7.9,19.7,17.5,25,28.8
			c2.5,5.7,3.8,9.6,3.8,11.8c0,2.5-1.1,4.9-3.3,7.1c-1.9,1.9-4.1,2.8-6.6,2.8c-4.7,0-12-3.9-21.7-11.8c-17-13.9-27.2-20.8-30.7-20.8
			c-2.8,0-6.4,6.9-10.6,20.8c-4.3,13.9-7.6,29.6-10.2,47.3c-4.7,34-7.1,70.4-7.1,109.2c0,54.2,3.8,84.7,11.3,91.7
			c0.9,0.9,2,1.4,3.3,1.4c1.9,0,7.6-3.6,17-10.9c26.5-20.2,43.8-30.2,52-30.2c4.7,0,8.4,2,11.1,5.9c2.7,3.9,4,9.1,4,15.4
			c0,6-1.1,11.8-3.3,17.5c-4.4,12.9-15.2,26.4-32.4,40.4c-17.2,14-33.2,22.6-48,25.8c-5,0.9-10.1,1.4-15.1,1.4
			c-24.3,0-42.2-11-53.9-33.1c-2.5-5-4-9.5-4.5-13.5c-0.5-3.9-0.7-14.9-0.7-32.8c0.3-39.7,2.8-81.1,7.3-124.3
			c4.6-43.2,10.3-77.3,17.2-102.5C849.8,807.8,862.8,788.4,879.8,783.4z"/>
		<path class="st1" d="M1104.1,742.1c4.7-2.8,9.6-4.3,14.6-4.3c6.3,0,11.7,1.9,16.1,5.7c5.7,5,9.3,11.3,10.9,18.7
			c1.6,7.4,2.7,25.1,3.3,53.2c0.9,32.1,3,67.9,6.1,107.3c4.7,61.4,7.1,99.5,7.1,114.3c0,8.2-0.6,18-1.9,29.3
			c-2.2,16.4-4.9,27.4-8,33.1c-3.2,5.7-8.2,8.5-15.1,8.5h-2.4c-10.1-0.3-17.6-6.3-22.7-18c-2.8-5.7-4.7-12-5.7-18.9
			c-0.9-6.9-2.2-23.5-3.8-49.6c-1.6-23.6-3.2-39.3-4.7-47c-1.6-7.7-4.1-13.6-7.6-17.7c-2.5-2.8-5.5-4.3-9-4.3c-0.9,0-3.9,0.3-9,0.9
			c-4.7,0.3-8,0.8-9.7,1.4c-1.7,0.6-3.5,1.4-5.4,2.4c-1.9,0.9-3,3.4-3.3,7.3c-0.3,3.9-0.6,8-0.9,12.3c-0.3,4.3-0.5,11.4-0.5,21.5
			v6.6c0,42.2-2.7,72.8-8,91.7c-3.5,12.6-9.8,18.9-18.9,18.9c-3.8,0-7.4-1.1-10.9-3.3c-9.1-5.4-15.5-20.7-19.1-46.1
			c-3.6-25.4-5.4-67-5.4-125c0-25.8-1.1-53.9-3.3-84.1c-2.2-23.9-3.3-47.7-3.3-71.4c0-15.4,0.6-24.3,1.9-26.5
			c3.2-5.7,9.8-8.5,19.8-8.5c4.1,0,7.4,0.6,9.9,1.9c5,2.2,9.8,7.9,14.2,17c4.4,9.1,7.4,19.5,9,31.2c0,0.6,1.7,18.9,5.2,54.8
			c2.5,27.1,4.7,42.9,6.6,47.5c1.9,4.6,7.7,6.9,17.5,6.9h2.4c9.8,0,16.5-1.7,20.1-5c3.6-3.3,5.4-10,5.4-20.1c0-5-0.2-9.1-0.5-12.3
			c-0.9-13.9-1.4-34.8-1.4-62.8c0-33.1,0.6-51.7,1.9-55.8C1096.9,748.9,1099.7,745,1104.1,742.1z"/>
		<path class="st1" d="M636.5,755.6c2.5-0.6,14.6-0.9,36.4-0.9c4.7,0,12.8,0.1,24.1,0.2c11.3,0.2,20.2,0.2,26.5,0.2
			c41.9,0.3,68.8,1,80.6,2.1c11.8,1.1,21.7,3.7,29.5,7.8c7.6,4.1,11.3,9,11.3,14.7c0,3.1-1.6,6.3-4.7,9.4
			c-3.1,2.8-11.7,6.7-25.5,11.6c-13.9,4.9-25.7,8.1-35.4,9.7l-15.1,2.4v35.4c0,28.7,0.9,55.3,2.8,79.9c2.2,31.8,3.3,69.6,3.3,113.4
			c0,25.8-0.6,46.3-1.9,61.4c-1.3,11-3.3,17.8-6.1,20.3c-3.1,2.5-5.4,3.8-6.6,3.8s-3.9-1.7-8-5.2c-4.1-3.2-7.9-10.2-11.3-21.3
			c-9.8-31.8-16.5-102.7-20.3-212.6c-1.3-46.9-2.2-70.7-2.8-71.4c-0.9-0.9-12.1-2.2-33.6-3.8c-18-1.6-30.7-3.4-38.3-5.4
			c-7.6-2-12.9-5.1-16.1-9.2c-2.8-3.8-4.3-8.5-4.3-14.2c0-6.3,1.5-12.3,4.5-18C628.4,760.3,632.1,756.9,636.5,755.6z"/>
	</g>
</g>
</svg>
