<svg width="80" height="80" viewBox="0 0 80 80" fill="none" xmlns="http://www.w3.org/2000/svg">
<g clip-path="url(#clip0_4_149)">
<path d="M34.1537 43.7145C35.0452 42.4716 36.3082 41.4972 37.7397 40.9515C39.1684 40.4057 40.7599 40.2886 42.2543 40.62C43.3715 40.8686 44.4173 41.3544 45.4888 41.7601C46.5603 42.1658 47.6918 42.4944 48.8319 42.403C48.289 43.946 47.169 45.2718 45.7889 46.149C44.4088 47.0262 42.7286 47.4262 41.1028 47.2633C39.7913 47.1319 38.534 46.649 37.3768 46.0147C36.2225 45.3804 35.2167 44.4946 34.1566 43.7117L34.1537 43.7145Z" fill="#92AA51"/>
<path d="M36.6282 39.8171C37.3111 38.557 37.9483 37.2512 38.2483 35.8483C38.5483 34.4453 38.4883 32.9252 37.8254 31.6537C37.4883 31.0079 37.0082 30.445 36.6654 29.805C36.3196 29.1621 36.1196 28.382 36.391 27.7077C34.9452 28.6335 33.5794 29.8307 32.9679 31.4365C32.3565 33.0423 32.385 34.9139 33.1937 36.4311C33.9737 37.8941 35.2738 38.8599 36.6282 39.8171Z" fill="#92AA51"/>
<path d="M39.1139 37.7741C39.3625 36.0025 40.2568 34.331 41.5941 33.1423C42.9313 31.9537 44.6972 31.2622 46.4859 31.2222C48.6289 31.1765 50.8033 32.0308 52.8749 31.4822C52.0663 33.7452 50.9462 35.9454 49.1175 37.5083C47.2888 39.0685 44.7743 39.9399 42.4284 39.4171C41.3026 39.1656 40.0197 38.4941 39.1168 37.7769L39.1139 37.7741Z" fill="#92AA51"/>
<path d="M42.0857 36.2083C36.9453 39.4256 32.9993 44.4146 31.0535 50.0464C30.9306 50.4064 30.5391 50.595 30.1791 50.4721C29.8191 50.3493 29.6305 49.9578 29.7534 49.5978C29.7562 49.5892 29.7619 49.5778 29.7648 49.5664V49.5635C32.1107 43.7374 36.4624 38.8227 41.8485 35.8111C41.9599 35.7482 42.1 35.7882 42.16 35.8997C42.22 36.0082 42.1828 36.1425 42.08 36.2054L42.0857 36.2083Z" fill="#677C18"/>
<path d="M40.8084 41.4629C40.7798 41.2858 40.6198 41.1886 40.4512 41.2029C38.6482 41.3429 36.8681 41.8315 35.248 42.6373C34.7822 42.8688 34.3336 43.1259 33.8964 43.4031C33.7536 43.4945 33.7507 43.7202 33.8479 43.8431C33.9622 43.986 34.145 43.9831 34.2879 43.8917C35.7394 42.9688 37.3738 42.3287 39.0654 42.0144C39.5569 41.923 40.0512 41.8573 40.5512 41.8201C40.7198 41.8058 40.8369 41.6201 40.8112 41.4629H40.8084Z" fill="#677C18"/>
<path d="M36.7824 40.0142C37.2282 37.937 37.2882 35.7825 36.9596 33.6824C36.8967 33.2852 36.2796 33.3823 36.3424 33.7795C36.6624 35.8282 36.5967 37.9227 36.1595 39.9514C36.1253 40.1171 36.2853 40.2771 36.4396 40.2943C36.6224 40.3114 36.7453 40.18 36.7824 40.0142Z" fill="#677C18"/>
<path d="M77.9581 45.0017C78.1753 43.3301 80.0011 41.7357 80.0011 40.0042C80.0011 38.2726 78.1753 36.6782 77.9581 35.0067C77.7353 33.2951 79.0839 31.2836 78.6496 29.6492C78.2039 27.9862 76.0294 26.9204 75.3779 25.3517C74.7208 23.7659 75.5008 21.4743 74.6493 19.9999C73.7921 18.5169 71.412 18.0512 70.3747 16.6997C69.3347 15.3424 69.4947 12.9251 68.2889 11.7193C67.0802 10.5135 64.6629 10.6735 63.3085 9.63058C61.957 8.59337 61.4912 6.2132 60.0083 5.35599C58.5367 4.5045 56.2423 5.28456 54.6565 4.62737C53.0878 3.97589 52.022 1.80145 50.359 1.35571C48.7246 0.918532 46.713 2.2672 45.0015 2.04718C43.33 1.83003 41.7355 0.00418091 40.004 0.00418091C38.2724 0.00418091 36.678 1.83003 35.0036 2.04718C33.2921 2.27006 31.2834 0.921389 29.649 1.35571C27.986 1.80145 26.9202 3.97589 25.3515 4.62737C23.7657 5.28456 21.4741 4.5045 19.9997 5.35599C18.5167 6.2132 18.051 8.59337 16.6995 9.63058C15.3422 10.6735 12.9249 10.5106 11.7191 11.7193C10.5133 12.928 10.6733 15.3453 9.6304 16.6997C8.59318 18.0512 6.21301 18.5169 5.35581 19.9999C4.50432 21.4714 5.28437 23.7659 4.62719 25.3517C3.97571 26.9204 1.80127 27.9862 1.35552 29.6492C0.918349 31.2836 2.26702 33.2951 2.047 35.0067C1.82984 36.6782 0.0039978 38.2726 0.0039978 40.0042C0.0039978 41.7357 1.82984 43.3301 2.047 45.0017C2.26987 46.7132 0.921206 48.7248 1.35552 50.3592C1.80127 52.0222 3.97571 53.088 4.62719 54.6567C5.28437 56.2425 4.50432 58.5341 5.35581 60.0085C6.21301 61.4914 8.59318 61.9572 9.6304 63.3087C10.6733 64.6659 10.5105 67.0833 11.7191 68.2891C12.9249 69.4977 15.3451 69.3348 16.6995 70.3778C18.051 71.415 18.5167 73.7952 19.9997 74.6524C21.4712 75.5039 23.7657 74.7238 25.3515 75.381C26.9202 76.0325 27.986 78.2069 29.649 78.6527C31.2834 79.0898 33.2949 77.7383 35.0065 77.9612C36.678 78.1783 38.2724 80.0042 40.0069 80.0042C41.7384 80.0042 43.3328 78.1783 45.0044 77.9612C46.7159 77.7383 48.7275 79.087 50.3619 78.6527C52.0249 78.2069 53.0906 76.0325 54.6593 75.381C56.2452 74.7238 58.5368 75.5039 60.0111 74.6524C61.4941 73.7952 61.9599 71.415 63.3114 70.3778C64.6686 69.3348 67.0859 69.4977 68.2917 68.2891C69.4975 67.0833 69.3375 64.6631 70.3776 63.3087C71.4177 61.9572 73.795 61.4914 74.6522 60.0085C75.5037 58.5369 74.7236 56.2425 75.3808 54.6567C76.0323 53.088 78.2067 52.0222 78.6525 50.3592C79.0896 48.7248 77.7381 46.7132 77.961 45.0017H77.9581ZM40.0011 74.6981C20.8398 74.6981 5.30438 59.1627 5.30438 40.0013C5.30438 20.84 20.8398 5.30456 40.0011 5.30456C59.1625 5.30456 74.6979 20.84 74.6979 40.0013C74.6979 59.1627 59.1654 74.6981 40.0011 74.6981V74.6981Z" fill="#677C18"/>
<path d="M40 21.6273C29.8535 21.6273 21.6272 29.8536 21.6272 40C21.6272 50.1465 29.8535 58.3728 40 58.3728C50.1464 58.3728 58.3727 50.1465 58.3727 40C58.3727 29.8536 50.1464 21.6273 40 21.6273V21.6273ZM40 56.4898C30.8936 56.4898 23.5102 49.1064 23.5102 40C23.5102 30.8937 30.8936 23.5103 40 23.5103C49.1063 23.5103 56.4897 30.8937 56.4897 40C56.4897 49.1064 49.1063 56.4898 40 56.4898Z" fill="#677C18"/>
<path d="M40 73.671C21.4329 73.671 6.32898 58.5671 6.32898 40C6.32898 21.433 21.4329 6.32904 40 6.32904C58.5641 6.32904 73.6709 21.433 73.6709 40C73.6709 58.5671 58.567 73.671 40 73.671V73.671ZM40 6.76907C21.6758 6.76907 6.76615 21.6787 6.76615 40.0029C6.76615 58.327 21.6758 73.2367 40 73.2367C58.3241 73.2367 73.2338 58.327 73.2338 40.0029C73.2338 21.6787 58.3241 6.76907 40 6.76907Z" fill="#677C18"/>
<path d="M11.375 52.0295C11.3493 51.9723 11.3465 51.9209 11.3665 51.8752C11.3865 51.8294 11.4236 51.7952 11.475 51.7723L16.5668 49.5036C16.6183 49.4807 16.6697 49.4778 16.7154 49.4921C16.764 49.5093 16.7983 49.5436 16.824 49.6036L17.0069 50.015C17.0326 50.0722 17.0354 50.1236 17.0154 50.1693C16.9954 50.215 16.9583 50.2493 16.9069 50.2722L11.8151 52.5409C11.7636 52.5638 11.7122 52.5666 11.6665 52.5523C11.6179 52.5352 11.5836 52.5009 11.5579 52.4409L11.375 52.0295Z" fill="#92AA51"/>
<path d="M13.2294 55.7412C13.1923 55.6897 13.1808 55.6383 13.1923 55.5897C13.2037 55.5412 13.2323 55.4983 13.278 55.4669L17.8412 52.2781C17.8926 52.2438 17.944 52.2295 17.9926 52.2352C18.0412 52.2409 18.084 52.2695 18.1212 52.3209L18.3441 52.6438C18.3841 52.701 18.4012 52.7524 18.3926 52.7952C18.3869 52.841 18.3783 52.8724 18.3669 52.8867L16.4239 57.6956L19.9185 55.2554C19.9699 55.2183 20.0213 55.204 20.0699 55.2126C20.1185 55.2183 20.1642 55.2468 20.1985 55.2983L20.4328 55.6326C20.4671 55.684 20.4814 55.7355 20.4728 55.7869C20.4642 55.8383 20.4328 55.8812 20.3813 55.9183L15.8239 59.1014C15.7782 59.1357 15.7267 59.1471 15.6724 59.1386C15.6181 59.1328 15.5753 59.1043 15.5439 59.0585L15.3096 58.7242C15.2724 58.6728 15.261 58.6242 15.2696 58.5785C15.281 58.5328 15.2867 58.5042 15.2896 58.4871L17.2011 53.7067L13.7352 56.1298C13.6894 56.1641 13.638 56.1755 13.5866 56.1641C13.5351 56.1555 13.4923 56.1241 13.4551 56.0726L13.2208 55.7383L13.2294 55.7412Z" fill="#92AA51"/>
<path d="M19.6271 63.3103C19.2442 62.9817 18.9813 62.6302 18.8356 62.2616C18.6927 61.8902 18.6613 61.5159 18.7442 61.1387C18.827 60.7587 19.007 60.3872 19.2899 60.0243C19.4499 59.83 19.6185 59.6271 19.8042 59.4128C19.9871 59.1985 20.1643 58.9985 20.3357 58.8071C20.6529 58.4728 20.99 58.2385 21.3529 58.1013C21.713 57.9642 22.0873 57.9413 22.4759 58.0299C22.8645 58.1185 23.2473 58.3271 23.6274 58.6528C23.9303 58.9128 24.156 59.1814 24.3046 59.4586C24.4531 59.7386 24.5446 60.0043 24.576 60.2615C24.6074 60.5158 24.5989 60.7472 24.5474 60.9501C24.496 61.153 24.4274 61.3101 24.3389 61.4216C24.3103 61.4644 24.2703 61.4844 24.2246 61.4873C24.1788 61.4873 24.1331 61.4701 24.0903 61.433L23.7074 61.1044C23.6645 61.0673 23.6417 61.033 23.6359 60.9987C23.6302 60.9644 23.6388 60.9187 23.6588 60.8615C23.716 60.7158 23.7474 60.5501 23.7502 60.3672C23.756 60.1843 23.7131 59.9929 23.6245 59.7929C23.5359 59.5929 23.3788 59.3957 23.1502 59.2014C22.8045 58.9042 22.4501 58.7614 22.0815 58.7671C21.713 58.7728 21.3358 58.9814 20.9529 59.3928C20.61 59.7672 20.2814 60.15 19.9643 60.5444C19.6099 60.9901 19.4585 61.3987 19.5099 61.7673C19.5614 62.1359 19.7557 62.4674 20.0957 62.7588C20.3243 62.956 20.5643 63.0874 20.8186 63.1531C21.0729 63.2188 21.3244 63.2103 21.5787 63.1245C21.833 63.0388 22.0758 62.8588 22.3073 62.5874L22.5416 62.3159L21.5701 61.4844C21.5272 61.4473 21.5044 61.4016 21.4987 61.3501C21.4958 61.2987 21.5129 61.2473 21.5529 61.2015L21.7301 60.9958C21.7701 60.9472 21.8158 60.9215 21.8701 60.9187C21.9215 60.9158 21.9701 60.9301 22.013 60.9672L23.4731 62.2216C23.5217 62.2616 23.5445 62.3073 23.5474 62.3588C23.5502 62.4102 23.5302 62.4588 23.4902 62.5045L22.9559 63.1245C22.653 63.4789 22.3159 63.7246 21.9444 63.8617C21.5729 64.0017 21.1872 64.0246 20.79 63.9332C20.39 63.8417 20.0014 63.6303 19.6214 63.3046L19.6271 63.3103Z" fill="#92AA51"/>
<path d="M24.4216 66.6648C24.3645 66.6363 24.3302 66.5991 24.3159 66.5505C24.3016 66.502 24.3073 66.4534 24.3331 66.4019L26.8189 61.4216C26.8475 61.3644 26.8847 61.3302 26.9304 61.3102C26.9761 61.293 27.0275 61.2987 27.0847 61.3244L28.9477 62.2531C29.522 62.5388 29.9106 62.9017 30.1106 63.3389C30.3106 63.776 30.2792 64.2589 30.0163 64.7875C29.822 65.179 29.5649 65.4476 29.2448 65.599C28.9248 65.7476 28.5734 65.7876 28.1905 65.7162L28.3533 68.3307C28.3533 68.3678 28.3476 68.4021 28.3362 68.425C28.3162 68.465 28.2819 68.4935 28.2333 68.5078C28.1848 68.5221 28.1419 68.5192 28.099 68.4992L27.7333 68.3164C27.6476 68.2735 27.5933 68.2192 27.5761 68.1535C27.559 68.0878 27.5447 68.0249 27.539 67.9621L27.399 65.4733L26.0646 64.8075L25.0817 66.7763C25.056 66.8277 25.0188 66.862 24.9702 66.8763C24.9217 66.8934 24.8674 66.8877 24.8131 66.8591L24.4245 66.6648H24.4216ZM26.3875 64.1589L27.6476 64.7875C28.0276 64.979 28.3533 65.039 28.6219 64.9733C28.8905 64.9076 29.102 64.7161 29.2591 64.4018C29.4134 64.0904 29.4391 63.8075 29.3334 63.5532C29.2277 63.2989 28.982 63.0731 28.5962 62.8817L27.339 62.2531L26.3875 64.1589Z" fill="#92AA51"/>
<path d="M31.3936 69.605C31.3336 69.5907 31.2907 69.5621 31.265 69.5192C31.2393 69.4764 31.2336 69.425 31.2479 69.3707L32.4908 63.9446C32.5051 63.8846 32.5337 63.8388 32.5737 63.8103C32.6166 63.7817 32.6651 63.776 32.728 63.7903L36.1597 64.576C36.2197 64.5903 36.2625 64.6189 36.2882 64.6618C36.314 64.7046 36.3197 64.7561 36.3054 64.8189L36.234 65.1332C36.2197 65.1932 36.1911 65.2361 36.1511 65.2618C36.1111 65.2875 36.0597 65.2932 35.9997 65.279L33.1737 64.6303L32.7566 66.4505L35.3996 67.0562C35.4596 67.0705 35.5025 67.0991 35.5282 67.1419C35.5539 67.1848 35.5596 67.2391 35.5453 67.2991L35.4739 67.6077C35.4625 67.6648 35.4339 67.7048 35.391 67.7334C35.3482 67.762 35.2967 67.7677 35.2367 67.7563L32.5937 67.1505L32.1622 69.0364L35.0539 69.6993C35.1139 69.7135 35.1567 69.7421 35.1825 69.7821C35.2082 69.8221 35.2139 69.8736 35.1996 69.9336L35.1253 70.2564C35.1139 70.3107 35.0853 70.3536 35.0424 70.3822C34.9996 70.4107 34.9482 70.4165 34.8881 70.405L31.3908 69.6021L31.3936 69.605Z" fill="#92AA51"/>
<path d="M38.4684 70.7908C38.4055 70.7936 38.3569 70.7736 38.3226 70.7393C38.2884 70.7022 38.2712 70.6565 38.2684 70.5993L38.1798 65.0332C38.1769 64.9704 38.1941 64.9218 38.2283 64.8846C38.2626 64.8475 38.3084 64.8275 38.3712 64.8275L40.3056 64.7961C40.8914 64.7875 41.3629 64.8675 41.7257 65.0389C42.0858 65.2104 42.3515 65.4647 42.5229 65.8047C42.6944 66.1447 42.7858 66.5648 42.8001 67.0648C42.8087 67.322 42.8172 67.5448 42.8201 67.7391C42.823 67.9334 42.823 68.1534 42.823 68.4049C42.8201 68.9278 42.7401 69.3621 42.5829 69.7078C42.4258 70.0536 42.1743 70.3136 41.8286 70.4879C41.4829 70.6622 41.0228 70.7536 40.4485 70.7622L38.4712 70.7936L38.4684 70.7908ZM39.097 70.0564L40.3914 70.0364C40.7828 70.0307 41.0943 69.9707 41.3257 69.8593C41.5572 69.7478 41.7229 69.5707 41.8229 69.3307C41.9258 69.0907 41.9743 68.7735 41.9743 68.382C41.9829 68.2106 41.9858 68.062 41.9829 67.9334C41.98 67.8048 41.9772 67.6791 41.9772 67.5505C41.9743 67.422 41.9658 67.2762 41.9543 67.1105C41.9343 66.559 41.7972 66.1533 41.5429 65.8933C41.2886 65.6333 40.8657 65.5075 40.2742 65.5161L39.0227 65.5361L39.097 70.0536V70.0564Z" fill="#92AA51"/>
<path d="M46.0719 70.1708C46.009 70.1822 45.9605 70.1736 45.9176 70.1451C45.8776 70.1165 45.8519 70.0736 45.8405 70.0193L44.7232 64.5561C44.7118 64.5018 44.7204 64.4504 44.7461 64.4075C44.7718 64.3646 44.8147 64.3361 44.8775 64.3246L45.3204 64.2332C45.3804 64.2218 45.4319 64.2303 45.4719 64.2589C45.5119 64.2875 45.5404 64.3303 45.549 64.3875L46.6662 69.8479C46.6777 69.905 46.6719 69.9536 46.6434 69.9965C46.6177 70.0393 46.5748 70.0679 46.5119 70.0793L46.069 70.1708H46.0719Z" fill="#92AA51"/>
<path d="M50.032 69.1593C49.9749 69.1821 49.9206 69.1822 49.8777 69.1622C49.832 69.1421 49.8006 69.1021 49.7777 69.0507L47.7147 63.8789C47.6918 63.8218 47.689 63.7675 47.7061 63.7218C47.7233 63.676 47.7633 63.6389 47.8204 63.616L51.0921 62.3131C51.1492 62.2902 51.2035 62.2902 51.2464 62.3102C51.2921 62.3331 51.3264 62.3702 51.3492 62.4302L51.4692 62.7303C51.4921 62.7874 51.495 62.8388 51.475 62.8846C51.455 62.9303 51.4178 62.9617 51.3578 62.9846L48.6662 64.0589L49.3577 65.7933L51.875 64.7904C51.9321 64.7675 51.9836 64.7675 52.0293 64.7875C52.075 64.8104 52.1093 64.8504 52.1321 64.9076L52.2493 65.199C52.2693 65.2504 52.2722 65.3019 52.255 65.3476C52.2379 65.3962 52.1979 65.4305 52.1407 65.4533L49.6234 66.4562L50.3406 68.2535L53.0951 67.1563C53.1522 67.1334 53.2037 67.1306 53.2494 67.1506C53.2922 67.1706 53.3265 67.2077 53.3494 67.2649L53.4722 67.5735C53.4922 67.6249 53.4951 67.6763 53.478 67.722C53.4608 67.7678 53.4208 67.8049 53.3637 67.8278L50.0291 69.1564L50.032 69.1593Z" fill="#92AA51"/>
<path d="M56.524 66.1105C56.4726 66.1476 56.424 66.159 56.3726 66.1505C56.324 66.1419 56.2812 66.1133 56.2497 66.0647L53.0066 61.5416C52.9695 61.4901 52.9552 61.4416 52.9609 61.3901C52.9666 61.3416 52.9952 61.2958 53.0466 61.2615L53.3667 61.033C53.421 60.993 53.4724 60.9758 53.5181 60.9815C53.5638 60.9872 53.5953 60.9958 53.6095 61.0044L58.4413 62.8902L55.9583 59.4271C55.9211 59.3757 55.9068 59.3271 55.9126 59.2757C55.9183 59.2271 55.9468 59.1814 55.9983 59.1471L56.3297 58.9071C56.3812 58.8699 56.4326 58.8557 56.484 58.8642C56.5355 58.8728 56.5812 58.9014 56.6155 58.9528L59.8528 63.4703C59.8871 63.516 59.8986 63.5674 59.8928 63.6217C59.8871 63.676 59.8586 63.7189 59.8128 63.7531L59.4785 63.9903C59.4271 64.0275 59.3814 64.0389 59.3357 64.0303C59.2899 64.0217 59.2585 64.016 59.2442 64.0132L54.4439 62.1587L56.9069 65.5961C56.9383 65.6419 56.9526 65.6904 56.9441 65.7419C56.9355 65.7933 56.9069 65.8362 56.8555 65.8733L56.5212 66.1105H56.524Z" fill="#92AA51"/>
<path d="M63.4789 60.1243C63.4417 60.1672 63.396 60.1901 63.3446 60.1958C63.2931 60.1986 63.2446 60.1843 63.2017 60.1443L59.41 56.867L58.3385 58.1042C58.3013 58.1471 58.2556 58.1699 58.2042 58.1728C58.1528 58.1756 58.1042 58.1613 58.0613 58.1242L57.7899 57.8899C57.7413 57.8499 57.7156 57.8013 57.7127 57.7499C57.7099 57.6985 57.7242 57.6499 57.7642 57.607L60.4529 54.4982C60.4929 54.4525 60.5387 54.4268 60.5929 54.4211C60.6444 54.4182 60.6958 54.4354 60.7415 54.4782L61.013 54.7125C61.0558 54.7497 61.0787 54.7954 61.0844 54.8468C61.0873 54.8983 61.0701 54.9497 61.0273 54.9954L59.9615 56.2269L63.7532 59.5071C63.796 59.5443 63.8189 59.59 63.8246 59.6414C63.8275 59.6929 63.8075 59.7415 63.7675 59.79L63.4789 60.1243V60.1243Z" fill="#92AA51"/>
<path d="M67.6677 54.2039C67.4363 54.6411 67.1734 54.9697 66.8791 55.1954C66.5848 55.4183 66.2905 55.5555 65.9933 55.5983C65.6961 55.644 65.4275 55.6069 65.1847 55.4926C65.1447 55.4726 65.1161 55.4354 65.1018 55.384C65.0847 55.3354 65.0904 55.2869 65.1132 55.2411L65.319 54.8583C65.3504 54.7983 65.3904 54.7611 65.4361 54.7468C65.4818 54.7325 65.5276 54.7325 65.5733 54.744C65.7104 54.7783 65.8619 54.7783 66.0304 54.7468C66.199 54.7154 66.3705 54.6297 66.5419 54.4925C66.7134 54.3554 66.8762 54.1468 67.0248 53.8668C67.2534 53.4353 67.3477 53.0781 67.302 52.7924C67.2562 52.5067 67.1077 52.2981 66.8505 52.1609C66.6762 52.0666 66.5048 52.0466 66.339 52.0981C66.1733 52.1495 65.9904 52.2609 65.7876 52.4381C65.5847 52.6124 65.3418 52.8495 65.0532 53.1496C64.7532 53.461 64.4761 53.701 64.2246 53.8753C63.9703 54.0496 63.7189 54.1468 63.4703 54.1639C63.2217 54.1839 62.9559 54.1182 62.6674 53.9639C62.3959 53.821 62.193 53.6182 62.0559 53.361C61.9187 53.101 61.8616 52.801 61.8844 52.4581C61.9044 52.1152 62.0187 51.7495 62.2245 51.3637C62.3902 51.0523 62.5759 50.8008 62.7816 50.6122C62.9874 50.4237 63.2017 50.2865 63.4217 50.2036C63.6417 50.1208 63.8531 50.0836 64.0532 50.0865C64.2532 50.0893 64.4303 50.1293 64.5846 50.2036C64.6189 50.2236 64.6475 50.2522 64.6675 50.2951C64.6875 50.3379 64.6818 50.3865 64.6532 50.4408L64.4418 50.8408C64.4218 50.8751 64.3932 50.9065 64.3532 50.9351C64.3132 50.9608 64.2589 50.9694 64.1932 50.9608C63.9732 50.8808 63.736 50.9065 63.4903 51.0323C63.2445 51.158 63.0331 51.3809 62.8645 51.7037C62.6902 52.0295 62.6131 52.3295 62.6302 52.5981C62.6473 52.8695 62.7902 53.0724 63.0559 53.2153C63.2274 53.3067 63.3931 53.3324 63.556 53.2981C63.7189 53.2639 63.8989 53.1639 64.0932 53.0038C64.2875 52.8438 64.5218 52.6238 64.7932 52.3438C65.1161 52.0009 65.4075 51.7352 65.6676 51.5437C65.9276 51.3523 66.179 51.2466 66.4276 51.218C66.6762 51.1923 66.9419 51.2551 67.2305 51.4066C67.5477 51.5752 67.7706 51.8009 67.9077 52.0838C68.042 52.3695 68.0906 52.6924 68.0506 53.0524C68.0106 53.4124 67.882 53.7982 67.6648 54.2039H67.6677Z" fill="#92AA51"/>
<path d="M18.8412 30.2108C18.8041 30.2736 18.7526 30.3108 18.6869 30.3251C18.6212 30.3394 18.5583 30.3279 18.504 30.2936L13.0122 26.9505C12.9494 26.9134 12.9122 26.862 12.8951 26.7991C12.8808 26.7362 12.8894 26.6734 12.9294 26.6105L13.4751 25.7162C13.5351 25.619 13.598 25.5647 13.6637 25.5476C13.7323 25.5304 13.7808 25.5247 13.8094 25.5276L18.3069 25.4419L15.1124 23.4989C15.0495 23.4617 15.0124 23.4103 14.9952 23.3474C14.9809 23.2846 14.9924 23.2217 15.0295 23.1588L15.6467 22.1445C15.6838 22.0816 15.7353 22.0445 15.7981 22.0273C15.861 22.0102 15.9239 22.0216 15.9867 22.0616L21.47 25.399C21.5328 25.4362 21.5728 25.4876 21.59 25.5533C21.6071 25.619 21.5985 25.6819 21.5614 25.7447L21.0099 26.6477C20.9556 26.7362 20.8928 26.7905 20.8213 26.8048C20.7499 26.8191 20.7042 26.8277 20.6785 26.8277L16.2982 26.9877L19.3727 28.8593C19.4298 28.8935 19.467 28.9421 19.4841 29.0078C19.5013 29.0736 19.4927 29.1364 19.4555 29.1993L18.8383 30.2136L18.8412 30.2108Z" fill="#92AA51"/>
<path d="M23.1616 23.7703C23.1188 23.8017 23.0702 23.816 23.0102 23.8075C22.9502 23.7989 22.9045 23.776 22.8702 23.7332C22.8502 23.7075 22.833 23.6817 22.8216 23.656L20.73 17.227C20.7015 17.1584 20.6929 17.0813 20.7072 16.9984C20.7215 16.9155 20.7729 16.8412 20.8615 16.7698L22.013 15.8669C22.1016 15.7983 22.1873 15.7669 22.2701 15.7697C22.353 15.7755 22.4273 15.8012 22.4873 15.844L28.2277 19.41C28.2534 19.4214 28.2791 19.4414 28.2991 19.4671C28.3306 19.51 28.3449 19.5586 28.3363 19.6186C28.3277 19.6786 28.302 19.7272 28.2563 19.7643L27.2991 20.5158C27.2219 20.5758 27.1476 20.6044 27.079 20.5958C27.0105 20.5872 26.9562 20.5701 26.9219 20.5472L25.9961 19.9929L23.9188 21.6244L24.2446 22.6502C24.2588 22.6902 24.2617 22.7445 24.256 22.8102C24.2503 22.8788 24.2046 22.9474 24.116 23.016L23.1588 23.7675L23.1616 23.7703ZM23.3616 20.2586L24.8075 19.1243L22.473 17.6384L23.3616 20.2615V20.2586Z" fill="#92AA51"/>
<path d="M31.4393 18.4614C31.3707 18.4871 31.3079 18.4842 31.2479 18.4528C31.1879 18.4214 31.145 18.3756 31.125 18.3128L29.3677 13.501L27.7133 14.1039C27.6447 14.1296 27.5819 14.1268 27.5219 14.0953C27.4619 14.0639 27.4219 14.0182 27.399 13.9582L27.0361 12.9638C27.0104 12.8952 27.0133 12.8324 27.039 12.7724C27.0676 12.7124 27.1133 12.6724 27.1818 12.6466L32.1794 10.8208C32.2479 10.7951 32.3108 10.7979 32.3708 10.8237C32.4308 10.8522 32.4708 10.898 32.4965 10.9665L32.8594 11.9609C32.8823 12.0237 32.8794 12.0838 32.8537 12.1466C32.828 12.2095 32.7794 12.2523 32.7108 12.2781L31.0564 12.881L32.8137 17.6927C32.8365 17.7556 32.8337 17.8185 32.808 17.8785C32.7823 17.9413 32.7337 17.9842 32.6651 18.0099L31.4393 18.4585V18.4614Z" fill="#92AA51"/>
<path d="M39.8855 16.9384C39.2855 16.947 38.7626 16.8584 38.314 16.6727C37.8654 16.4841 37.5168 16.1898 37.2653 15.7897C37.0139 15.3868 36.8853 14.8754 36.8739 14.2468L36.8081 10.2122C36.8053 10.1408 36.8281 10.0808 36.8739 10.0322C36.9196 9.98646 36.9767 9.96075 37.051 9.96075L38.3283 9.94074C38.3997 9.94074 38.4625 9.96075 38.5111 10.0065C38.5626 10.0522 38.5883 10.1093 38.5883 10.1836L38.654 14.2096C38.6626 14.6382 38.7683 14.9582 38.9769 15.1697C39.1855 15.3811 39.4769 15.484 39.8512 15.4754C40.2198 15.4697 40.5084 15.3583 40.7113 15.1411C40.917 14.924 41.0142 14.6011 41.0085 14.1725L40.9427 10.1465C40.9399 10.075 40.9656 10.015 41.0142 9.96646C41.0627 9.92074 41.1199 9.89503 41.1856 9.89503L42.4714 9.87502C42.5371 9.87217 42.5943 9.89503 42.6457 9.94074C42.6971 9.98646 42.7229 10.0436 42.7229 10.1179L42.7886 14.1525C42.8 14.7782 42.6857 15.2983 42.4486 15.7069C42.2114 16.1155 41.8742 16.4212 41.4342 16.6241C40.997 16.827 40.4798 16.9298 39.8855 16.9412V16.9384Z" fill="#92AA51"/>
<path d="M45.6374 17.3927C45.5688 17.367 45.5231 17.3242 45.4945 17.2613C45.4688 17.1984 45.4659 17.1384 45.4888 17.0756L47.7004 11.038C47.7261 10.9694 47.7689 10.9208 47.8261 10.8951C47.8861 10.8665 47.949 10.8665 48.0175 10.8923L50.5434 11.818C51.3492 12.1124 51.9121 12.5295 52.235 13.0638C52.5579 13.601 52.5979 14.2068 52.3493 14.8811C52.1893 15.3212 51.9464 15.6526 51.6264 15.8812C51.3035 16.1069 50.9435 16.2355 50.5377 16.2612L50.9749 19.0128C50.9806 19.0557 50.9777 19.0957 50.9663 19.1243C50.9492 19.1729 50.912 19.21 50.8577 19.2357C50.8034 19.2614 50.7492 19.2643 50.7006 19.2471L49.4662 18.7957C49.3491 18.7528 49.2719 18.6928 49.2376 18.6128C49.2033 18.5328 49.1833 18.4642 49.1776 18.4071L48.8662 15.9755L47.9175 15.6269L47.1632 17.6899C47.1403 17.7528 47.0975 17.7985 47.0346 17.827C46.9717 17.8556 46.906 17.8585 46.8374 17.8328L45.6402 17.3927H45.6374ZM48.4004 14.3068L49.4691 14.6983C49.7605 14.804 50.0034 14.8125 50.2005 14.724C50.3977 14.6354 50.5406 14.4697 50.6291 14.2268C50.7177 13.9868 50.7206 13.7639 50.6349 13.5667C50.5491 13.3667 50.3548 13.2124 50.052 13.101L48.9833 12.7095L48.3976 14.3068H48.4004Z" fill="#92AA51"/>
<path d="M52.5492 20.2644C52.5092 20.2301 52.4864 20.1815 52.4807 20.1215C52.4749 20.0615 52.4892 20.0101 52.5235 19.9701C52.5435 19.9443 52.5664 19.9243 52.5892 19.9101L58.4782 16.587C58.5411 16.5441 58.6125 16.5241 58.6982 16.5212C58.7811 16.5184 58.8668 16.5555 58.9525 16.627L60.0669 17.5756C60.1526 17.647 60.2012 17.727 60.2126 17.8099C60.2241 17.8928 60.2126 17.9671 60.1812 18.0385L57.8239 24.3732C57.8153 24.4018 57.8039 24.4275 57.781 24.4532C57.7467 24.4932 57.6982 24.5161 57.6382 24.5218C57.5782 24.5275 57.5267 24.5104 57.481 24.4704L56.5552 23.6818C56.4809 23.616 56.4409 23.5503 56.4352 23.4789C56.4295 23.4103 56.4352 23.356 56.4495 23.316L56.8095 22.2988L54.8008 20.5844L53.8608 21.1073C53.8265 21.1273 53.775 21.1444 53.7065 21.1501C53.6379 21.1587 53.5636 21.1244 53.4779 21.053L52.5521 20.2644H52.5492ZM56.0323 19.7643L57.4324 20.9587L58.4268 18.3757L56.0323 19.7672V19.7643Z" fill="#92AA51"/>
<path d="M58.9784 26.5677C58.9413 26.5048 58.9327 26.4419 58.9527 26.3762C58.9727 26.3105 59.0099 26.2619 59.067 26.2276L64.6131 22.976C64.676 22.9388 64.7389 22.9303 64.8017 22.9446C64.8646 22.9617 64.9132 23.0017 64.9532 23.0646L65.6132 24.1904C65.6504 24.2532 65.6589 24.3161 65.6446 24.3789C65.6275 24.4418 65.5904 24.4932 65.5275 24.5275L61.0557 27.1477L62.5701 29.7336C62.6073 29.7965 62.6159 29.8593 62.5959 29.9251C62.5759 29.9908 62.5358 30.0393 62.473 30.0765L61.6186 30.5765C61.5615 30.6108 61.5015 30.6194 61.4358 30.6051C61.37 30.5908 61.3186 30.5508 61.2815 30.4879L58.9813 26.562L58.9784 26.5677Z" fill="#92AA51"/>
<path d="M68.3076 34.4653C68.1305 34.9654 67.7076 35.3397 67.2561 35.6197C66.8075 35.8997 66.3132 36.1112 65.8789 36.4169C65.0874 36.9741 64.5273 37.8484 64.3473 38.7999C64.213 39.5114 64.293 40.26 64.5645 40.9315C64.6816 40.1114 64.8817 39.3 65.2417 38.5485C65.4931 38.0256 65.8217 37.5427 66.2217 37.1341C66.6218 36.7255 67.0961 36.3912 67.619 36.1855C67.1247 36.4512 66.7046 36.8284 66.3703 37.2627C66.036 37.697 65.7817 38.1885 65.6074 38.6999C65.2931 39.6143 65.216 40.5829 65.236 41.5516C66.1046 41.4573 67.0304 41.163 67.6533 40.5829C68.4791 39.8143 69.0105 38.7399 69.122 37.617C69.2334 36.494 68.9677 35.3825 68.3076 34.4682V34.4653Z" fill="#92AA51"/>
<path d="M71.222 42.6059C70.8848 42.6202 70.562 42.4573 70.2877 42.2602C70.0134 42.0602 69.7733 41.8202 69.4876 41.6373C68.9676 41.303 68.3189 41.1801 67.7132 41.3001C67.2589 41.3916 66.836 41.6173 66.5045 41.9373C67.016 41.8116 67.5446 41.7373 68.0761 41.7716C68.4447 41.7944 68.8104 41.8744 69.1476 42.0145C69.4847 42.1516 69.7962 42.3545 70.0419 42.6145C69.7676 42.3859 69.4419 42.2259 69.1076 42.1316C68.7704 42.0373 68.419 42.003 68.0761 42.0202C67.4617 42.0545 66.8674 42.2373 66.2988 42.4802C66.5617 42.9717 66.956 43.4488 67.4475 43.6803C68.0989 43.986 68.8618 44.0432 69.5533 43.8431C70.2448 43.6403 70.8363 43.2174 71.222 42.6116V42.6059Z" fill="#92AA51"/>
<path d="M11.6921 34.4653C11.8693 34.9654 12.2922 35.3397 12.7436 35.6197C13.1951 35.8997 13.6866 36.1112 14.1209 36.4169C14.9124 36.9741 15.4724 37.8484 15.6524 38.7999C15.7867 39.5114 15.7067 40.26 15.4324 40.9315C15.3152 40.1114 15.1152 39.3 14.7552 38.5485C14.5038 38.0256 14.178 37.5427 13.778 37.1341C13.378 36.7255 12.9036 36.3912 12.3807 36.1855C12.8751 36.4512 13.2951 36.8284 13.6294 37.2627C13.9637 37.697 14.218 38.1885 14.3952 38.6999C14.7095 39.6143 14.7866 40.5829 14.7666 41.5516C13.898 41.4573 12.9722 41.163 12.3493 40.5829C11.5235 39.8143 10.9921 38.7399 10.8806 37.617C10.7692 36.494 11.0378 35.3825 11.695 34.4682L11.6921 34.4653Z" fill="#92AA51"/>
<path d="M8.77768 42.6059C9.11485 42.6202 9.43773 42.4573 9.71204 42.2602C9.98634 42.0602 10.2264 41.8202 10.5121 41.6373C11.0321 41.303 11.6807 41.1801 12.2865 41.3001C12.7408 41.3916 13.1637 41.6173 13.4952 41.9373C12.9837 41.8116 12.4551 41.7373 11.9236 41.7716C11.555 41.7944 11.1921 41.8744 10.8521 42.0145C10.515 42.1516 10.2035 42.3545 9.95777 42.6145C10.2321 42.3859 10.5578 42.2259 10.8921 42.1316C11.2293 42.0373 11.5779 42.003 11.9236 42.0202C12.538 42.0545 13.1323 42.2373 13.698 42.4802C13.4352 42.9717 13.0408 43.4488 12.5494 43.6803C11.8979 43.986 11.135 44.0432 10.4435 43.8431C9.75204 43.6403 9.15771 43.2174 8.77483 42.6116L8.77768 42.6059Z" fill="#92AA51"/>
</g>
<defs>
<clipPath id="clip0_4_149">
<rect width="80" height="80" fill="white"/>
</clipPath>
</defs>
</svg>
