<svg width="117" height="115" viewBox="0 0 117 115" fill="none" xmlns="http://www.w3.org/2000/svg">
<path d="M106.101 114.438C106.342 114.934 106.941 115.141 107.437 114.899L115.531 110.962C116.027 110.721 116.234 110.122 115.992 109.626C115.751 109.129 115.152 108.922 114.656 109.164L107.462 112.664L103.962 105.47C103.72 104.973 103.122 104.766 102.625 105.008C102.129 105.249 101.922 105.848 102.164 106.345L106.101 114.438ZM1.24456 5.00351C2.24512 4.75115 3.24198 4.51683 4.235 4.30024L3.8088 2.34618C2.79462 2.56738 1.77678 2.80664 0.755437 3.06424L1.24456 5.00351ZM10.2173 3.20026C12.249 2.89641 14.2629 2.66649 16.2577 2.5077L16.099 0.514005C14.0581 0.676467 11.9985 0.911636 9.92146 1.22225L10.2173 3.20026ZM22.3305 2.24058C24.3785 2.2239 26.4042 2.2822 28.406 2.41229L28.5357 0.416503C26.4853 0.283258 24.411 0.223573 22.3142 0.240643L22.3305 2.24058ZM34.4519 3.03061C36.474 3.31367 38.4689 3.67035 40.4349 4.09714L40.8592 2.14267C38.8448 1.70537 36.8009 1.33992 34.7291 1.04992L34.4519 3.03061ZM46.3219 5.60735C48.2743 6.18659 50.1946 6.83574 52.081 7.55105L52.7901 5.681C50.8581 4.94835 48.891 4.28338 46.8907 3.68995L46.3219 5.60735ZM57.6825 9.91329C59.5258 10.771 61.3321 11.693 63.0996 12.6754L64.0713 10.9273C62.2625 9.9219 60.4135 8.97812 58.5263 8.09998L57.6825 9.91329ZM68.3083 15.816C70.0102 16.9253 71.6705 18.0921 73.2872 19.3123L74.492 17.7159C72.8391 16.4684 71.1412 15.2752 69.4004 14.1405L68.3083 15.816ZM78.0176 23.1406C79.5529 24.471 81.042 25.8512 82.4828 27.2772L83.8897 25.8558C82.4178 24.399 80.8964 22.9887 79.3273 21.6291L78.0176 23.1406ZM86.6673 31.699C88.0155 33.2197 89.3127 34.7825 90.5569 36.383L92.1359 35.1556C90.8655 33.5213 89.5408 31.9254 88.1639 30.3722L86.6673 31.699ZM94.1378 41.3079C95.2805 42.9904 96.3674 44.7069 97.3962 46.453L99.1193 45.4377C98.0688 43.6547 96.9591 41.9021 95.7923 40.1842L94.1378 41.3079ZM100.317 51.7966C101.234 53.6127 102.091 55.4545 102.884 57.3176L104.724 56.5343C103.914 54.6308 103.039 52.7494 102.102 50.8946L100.317 51.7966ZM105.081 62.9947C105.751 64.9158 106.354 66.8541 106.889 68.805L108.818 68.2767C108.271 66.2813 107.654 64.2995 106.969 62.3358L105.081 62.9947ZM108.288 74.7242C108.686 76.718 109.01 78.72 109.259 80.7254L111.244 80.479C110.989 78.4243 110.656 76.3742 110.25 74.3333L108.288 74.7242ZM109.78 86.779C109.876 88.8061 109.893 90.832 109.829 92.8518L111.828 92.9152C111.894 90.8416 111.876 88.7629 111.777 86.684L109.78 86.779ZM109.389 98.9065C109.158 100.916 108.844 102.915 108.443 104.899L110.403 105.295C110.816 103.255 111.139 101.2 111.376 99.1342L109.389 98.9065ZM106.981 110.783C106.695 111.751 106.386 112.715 106.055 113.674L107.945 114.327C108.286 113.34 108.604 112.347 108.899 111.35L106.981 110.783Z" fill="#BDD7B7"/>
</svg>
