<svg width="130" height="117" viewBox="0 0 130 117" fill="none" xmlns="http://www.w3.org/2000/svg">
<path d="M120.148 116.524C120.438 116.995 121.054 117.141 121.524 116.852L129.189 112.135C129.659 111.845 129.806 111.229 129.517 110.759C129.227 110.289 128.611 110.142 128.141 110.432L121.328 114.624L117.135 107.811C116.845 107.341 116.229 107.194 115.759 107.483C115.289 107.773 115.142 108.389 115.431 108.859L120.148 116.524ZM1.27052 6.96288C2.21569 6.69729 3.16623 6.44387 4.12165 6.20268L3.63211 4.26352C2.65958 4.50903 1.69187 4.76702 0.729482 5.03745L1.27052 6.96288ZM9.89059 4.90622C11.8198 4.52503 13.7642 4.19234 15.72 3.90854L15.4328 1.92927C13.4436 2.21791 11.4657 2.55633 9.50291 2.94415L9.89059 4.90622ZM21.5932 3.20654C23.5541 3.02182 25.5225 2.8857 27.4945 2.79857L27.4062 0.800523C25.4011 0.889113 23.3996 1.02752 21.4056 1.21536L21.5932 3.20654ZM33.4088 2.68448C35.381 2.69554 37.3529 2.75579 39.321 2.8656L39.4324 0.868709C37.4308 0.757028 35.4254 0.695758 33.42 0.684513L33.4088 2.68448ZM45.2157 3.34471C47.1785 3.55478 49.1334 3.81507 51.0768 4.12595L51.3927 2.15105C49.4147 1.83464 47.4254 1.56978 45.4286 1.35607L45.2157 3.34471ZM56.887 5.21465C58.8174 5.63039 60.7322 6.0978 62.6274 6.6172L63.156 4.68833C61.2246 4.15901 59.274 3.68287 57.3081 3.25948L56.887 5.21465ZM68.2772 8.34069C70.1477 8.97116 71.9944 9.65498 73.8132 10.3925L74.5647 8.5391C72.708 7.7862 70.8238 7.08846 68.9159 6.44545L68.2772 8.34069ZM79.2095 12.7798C80.9861 13.6342 82.7301 14.5436 84.4376 15.5086L85.4216 13.7674C83.6749 12.7803 81.8917 11.8504 80.0763 10.9774L79.2095 12.7798ZM89.466 18.583C91.1067 19.6667 92.7063 20.8069 94.2608 22.004L95.4811 20.4195C93.8875 19.1922 92.2485 18.0239 90.5682 16.9141L89.466 18.583ZM98.7867 25.7684C100.244 27.0775 101.652 28.4437 103.008 29.8674L104.456 28.4884C103.065 27.0263 101.619 25.6238 100.123 24.2805L98.7867 25.7684ZM106.89 34.2859C108.117 35.8015 109.289 37.3735 110.402 39.0022L112.053 37.874C110.909 36.2001 109.705 34.5847 108.444 33.0274L106.89 34.2859ZM113.518 43.9881C114.479 45.6747 115.381 47.4152 116.22 49.21L118.032 48.3626C117.17 46.5192 116.243 44.7311 115.256 42.9979L113.518 43.9881ZM118.5 54.6312C119.18 56.4422 119.8 58.3031 120.356 60.2142L122.276 59.6548C121.706 57.6957 121.07 55.787 120.373 53.9285L118.5 54.6312ZM121.797 65.923C122.202 67.8124 122.549 69.7467 122.836 71.7262L124.815 71.4402C124.522 69.4165 124.167 67.4375 123.752 65.5032L121.797 65.923ZM123.492 77.5979C123.646 79.5314 123.745 81.5049 123.786 83.5186L125.786 83.4778C125.744 81.4253 125.643 79.4122 125.485 77.4384L123.492 77.5979ZM123.744 89.3995C123.678 91.3264 123.561 93.2877 123.391 95.2835L125.384 95.4528C125.557 93.4241 125.676 91.4292 125.743 89.4679L123.744 89.3995ZM122.75 101.172C122.494 103.106 122.19 105.07 121.837 107.065L123.806 107.413C124.164 105.391 124.473 103.398 124.733 101.435L122.75 101.172ZM120.698 112.827C120.486 113.801 120.262 114.781 120.027 115.768L121.973 116.232C122.211 115.232 122.437 114.239 122.652 113.253L120.698 112.827Z" fill="#BDD7B7"/>
</svg>
