<svg width="130" height="26" viewBox="0 0 130 26" fill="none" xmlns="http://www.w3.org/2000/svg">
<path d="M130 23.0505L130 3.05793V3.05793C130 1.36903 128.631 -3.85776e-08 126.942 -8.61555e-08L1.93132 -3.60783e-06C1.40764 -3.63072e-06 0.971188 0.147709 0.633987 0.385772C0.230886 0.670472 -0.000160392 1.12888 -7.08322e-08 1.62045C-9.11471e-08 2.0852 0.204106 2.58001 0.589249 3.03696L8.0829 11.9816C8.31572 12.2579 8.44913 12.6547 8.44913 13.0673C8.44913 13.4797 8.31572 13.8757 8.08226 14.1528L0.590377 23.0675C0.204112 23.5261 -0.000168895 23.9868 -0.000168915 24.4507C-0.00016895 25.2353 0.596956 26 1.93117 26L127.05 26C128.679 26 130 24.6795 130 23.0505V23.0505Z" fill="#D84432" fill-opacity="0.2"/>
</svg>
