<svg width="30" height="30" viewBox="0 0 30 30" fill="none" xmlns="http://www.w3.org/2000/svg">
<path d="M12.3586 23.7115C13.3157 22.7877 13.463 21.3406 12.6878 20.4795C11.9125 19.6183 10.5083 19.6691 9.55122 20.5929C8.59419 21.5167 8.44682 22.9637 9.22206 23.8249C9.9973 24.6861 11.4016 24.6353 12.3586 23.7115Z" fill="#773BD9"/>
<path d="M25.0207 23.7115C25.9778 22.7877 26.1251 21.3406 25.3499 20.4795C24.5747 19.6183 23.1704 19.6691 22.2133 20.5929C21.2563 21.5167 21.1089 22.9637 21.8842 23.8249C22.6594 24.6861 24.0637 24.6353 25.0207 23.7115Z" fill="#773BD9"/>
<path d="M2.30769 12.115C2.30769 11.7964 1.7911 11.5381 1.15385 11.5381C0.516594 11.5381 0 11.7964 0 12.115C0 12.4336 0.516594 12.6919 1.15385 12.6919C1.7911 12.6919 2.30769 12.4336 2.30769 12.115Z" fill="#773BD9"/>
<path d="M20.2959 21.921C20.6513 20.0707 22.3102 18.6004 24.0932 18.6004C25.8101 18.6004 27.0476 19.9641 27.0136 21.7175C28.8704 21.7687 29.3873 19.1925 29.3873 19.1925C29.5436 18.4721 29.7772 17.0678 29.9727 15.6893C30.0368 15.2638 29.9875 14.8278 29.8305 14.4299C29.3451 13.2362 28.7585 12.0909 28.0779 11.0082C27.4339 9.99612 26.3539 9.39664 25.1211 9.37505C24.3859 9.36272 23.6642 9.35532 23.1192 9.35532L23.1145 9.35038C23.0443 8.11195 22.1873 7.16338 20.9843 7.0499C20.2017 6.97651 17.1016 6.92285 15.6136 6.92285C15.0223 6.92285 14.1741 6.93149 13.316 6.94629V6.94259H13.309H2.99124C2.85992 6.94251 2.72988 6.9697 2.60854 7.02261C2.4872 7.07552 2.37695 7.15311 2.2841 7.25094C2.19124 7.34878 2.1176 7.46494 2.06738 7.59278C2.01716 7.72062 1.99135 7.85764 1.99143 7.996V8.00093C1.99143 8.27901 2.09627 8.54569 2.2829 8.74232C2.46952 8.93894 2.72263 9.04941 2.98656 9.04941H5.06638C5.31681 9.06886 5.55101 9.18736 5.722 9.38112C5.89299 9.57489 5.98813 9.82961 5.98833 10.0942V10.0997C5.98872 10.2382 5.96318 10.3754 5.91318 10.5035C5.86318 10.6316 5.7897 10.748 5.69695 10.8462C5.60419 10.9443 5.49398 11.0222 5.37262 11.0754C5.25126 11.1286 5.12114 11.1561 4.98969 11.1562H3.92315C3.65814 11.1562 3.40398 11.2671 3.21659 11.4646C3.0292 11.662 2.92392 11.9298 2.92392 12.209C2.92385 12.3473 2.94963 12.4843 2.99982 12.6121C3.05 12.7399 3.12359 12.856 3.21638 12.9539C3.30918 13.0517 3.41936 13.1293 3.54063 13.1822C3.6619 13.2352 3.79188 13.2624 3.92315 13.2624H4.98969C5.25486 13.2624 5.50917 13.3734 5.69667 13.571C5.88417 13.7685 5.9895 14.0365 5.9895 14.3158C5.9895 14.5952 5.88417 14.8632 5.69667 15.0607C5.50917 15.2583 5.25486 15.3693 4.98969 15.3693H0.999812C0.734747 15.3693 0.480529 15.4802 0.293045 15.6776C0.105561 15.875 0.00015519 16.1428 0 16.422C0 16.7014 0.105337 16.9694 0.292838 17.1669C0.480339 17.3645 0.734645 17.4755 0.999812 17.4755H4.98969C5.25486 17.4755 5.50917 17.5864 5.69667 17.784C5.88417 17.9815 5.9895 18.2495 5.9895 18.5289C5.98919 18.808 5.88372 19.0757 5.69625 19.2729C5.50879 19.4702 5.25466 19.581 4.98969 19.581H3.75573C3.49072 19.581 3.23656 19.692 3.04917 19.8894C2.86178 20.0868 2.75651 20.3546 2.75651 20.6338C2.75651 20.9131 2.86176 21.181 3.04914 21.3785C3.23651 21.576 3.49067 21.6871 3.75573 21.6873L7.69293 21.6842L8.02015 20.825C8.6904 19.5225 10.0239 18.5998 11.4358 18.5998C13.2194 18.5998 14.4861 20.0714 14.3468 21.9229H20.2954M10.3792 11.6465H9.03753C9.03626 11.6467 9.03506 11.6472 9.03411 11.6481C9.03316 11.649 9.03251 11.6502 9.03226 11.6515L8.90874 12.5766C8.90856 12.5773 8.90855 12.5781 8.9087 12.5789C8.90885 12.5796 8.90917 12.5803 8.90962 12.5809C8.91008 12.5815 8.91066 12.582 8.91132 12.5823C8.91198 12.5826 8.9127 12.5828 8.91343 12.5828H9.91207C9.96109 12.5813 10.0098 12.5914 10.0547 12.6123C10.0995 12.6332 10.1394 12.6643 10.1713 12.7035C10.2033 12.7427 10.2266 12.7889 10.2394 12.8387C10.2523 12.8886 10.2545 12.9408 10.2457 12.9917C10.2286 13.1034 10.1751 13.2054 10.0943 13.28C10.0135 13.3547 9.91058 13.3973 9.80319 13.4006H8.80338C8.80216 13.4006 8.80097 13.401 8.80001 13.4018C8.79905 13.4025 8.79838 13.4037 8.79811 13.4049L8.61899 14.7488C8.60188 14.8606 8.54832 14.9625 8.46755 15.0372C8.38678 15.1118 8.28384 15.1544 8.17645 15.1577C8.12745 15.1592 8.07875 15.1491 8.03392 15.1282C7.98908 15.1074 7.94925 15.0762 7.91732 15.037C7.8854 14.9978 7.86219 14.9516 7.84939 14.9017C7.8366 14.8518 7.83454 14.7996 7.84337 14.7488L8.30816 11.2629C8.32657 11.1449 8.38336 11.0373 8.46879 10.9585C8.55422 10.8798 8.66298 10.8348 8.77645 10.8312H10.4875C10.5365 10.8297 10.5852 10.8398 10.63 10.8607C10.6749 10.8816 10.7147 10.9127 10.7466 10.9519C10.7785 10.9911 10.8017 11.0373 10.8145 11.0872C10.8273 11.1371 10.8294 11.1893 10.8206 11.2401C10.8032 11.3513 10.7497 11.4527 10.6691 11.5268C10.5886 11.601 10.4861 11.6433 10.3792 11.6465ZM13.9652 11.1087C14.1046 11.239 14.2026 11.4113 14.2461 11.6021C14.2948 11.8184 14.3028 12.0426 14.2696 12.2621C14.2289 12.6036 14.0962 12.9257 13.8873 13.1903C13.7597 13.3492 13.5977 13.4734 13.4149 13.5523C13.4141 13.5532 13.4136 13.5544 13.4136 13.5557C13.4136 13.557 13.4141 13.5582 13.4149 13.5591L13.7474 14.5699C13.837 14.8413 13.6069 15.1577 13.3207 15.1577H13.3019C13.2325 15.1599 13.1642 15.1387 13.107 15.0972C13.0497 15.0557 13.0065 14.9961 12.9835 14.927L12.5814 13.6935C12.5808 13.6926 12.58 13.6918 12.5791 13.6913C12.5782 13.6908 12.5771 13.6905 12.5761 13.6905H11.7214C11.7203 13.6905 11.7191 13.691 11.7182 13.6917C11.7172 13.6925 11.7165 13.6936 11.7162 13.6948L11.5757 14.7482C11.5586 14.8599 11.505 14.9619 11.4243 15.0365C11.3435 15.1112 11.2405 15.1538 11.1332 15.1571C11.0842 15.1586 11.0355 15.1485 10.9906 15.1276C10.9458 15.1067 10.906 15.0756 10.874 15.0364C10.8421 14.9972 10.8189 14.951 10.8061 14.9011C10.7933 14.8512 10.7912 14.799 10.8001 14.7482L11.2649 11.2623C11.2833 11.1443 11.3401 11.0367 11.4255 10.9579C11.5109 10.8792 11.6197 10.8342 11.7332 10.8306H13.0561C13.0561 10.8306 13.6368 10.8115 13.9652 11.1087ZM17.6062 11.2111C17.5903 11.3155 17.5403 11.4108 17.4648 11.4805C17.3894 11.5502 17.2932 11.5899 17.1929 11.5929H15.654C15.6528 11.593 15.6516 11.5934 15.6507 11.5942C15.6497 11.595 15.649 11.596 15.6487 11.5972L15.5264 12.5125C15.5262 12.5132 15.5262 12.514 15.5263 12.5147C15.5265 12.5155 15.5268 12.5162 15.5272 12.5168C15.5277 12.5174 15.5283 12.5179 15.5289 12.5182C15.5296 12.5185 15.5303 12.5187 15.531 12.5186H16.7264C16.7721 12.5172 16.8176 12.5266 16.8595 12.5461C16.9014 12.5655 16.9387 12.5946 16.9685 12.6312C16.9984 12.6678 17.0201 12.711 17.0321 12.7576C17.044 12.8041 17.046 12.8529 17.0378 12.9004C17.0219 13.0048 16.9719 13.1 16.8964 13.1697C16.821 13.2394 16.7248 13.2792 16.6245 13.2822H15.4286C15.4274 13.2822 15.4263 13.2827 15.4253 13.2835C15.4244 13.2842 15.4237 13.2853 15.4233 13.2865L15.2764 14.388C15.2764 14.3895 15.2769 14.391 15.2779 14.3922C15.2789 14.3933 15.2802 14.394 15.2817 14.3942H16.8194C16.8652 14.3927 16.9107 14.4021 16.9526 14.4216C16.9945 14.4411 17.0317 14.4702 17.0616 14.5068C17.0914 14.5434 17.1131 14.5865 17.1251 14.6331C17.1371 14.6797 17.1391 14.7285 17.1308 14.7759C17.1149 14.8803 17.0649 14.9756 16.9895 15.0453C16.9141 15.115 16.8179 15.1547 16.7176 15.1577H14.8093C14.7578 15.1585 14.7068 15.1473 14.6598 15.125C14.6129 15.1026 14.5712 15.0697 14.5377 15.0285C14.5042 14.9873 14.4797 14.9389 14.4659 14.8866C14.4521 14.8343 14.4495 14.7795 14.4581 14.726L14.9199 11.2648C14.9383 11.1468 14.9951 11.0392 15.0805 10.9604C15.166 10.8816 15.2747 10.8366 15.3882 10.8331H17.2959C17.3413 10.8319 17.3863 10.8414 17.4277 10.8607C17.4692 10.8801 17.506 10.9088 17.5357 10.945C17.5653 10.9811 17.587 11.0237 17.5992 11.0697C17.6114 11.1157 17.6138 11.164 17.6062 11.2111ZM20.8029 11.2111C20.787 11.3155 20.737 11.4108 20.6615 11.4805C20.5861 11.5502 20.4899 11.5899 20.3896 11.5929H18.8507C18.8495 11.593 18.8483 11.5934 18.8474 11.5942C18.8464 11.595 18.8458 11.596 18.8454 11.5972L18.7236 12.5125C18.7235 12.5132 18.7234 12.514 18.7236 12.5147C18.7237 12.5155 18.7241 12.5162 18.7245 12.5168C18.725 12.5174 18.7256 12.5179 18.7262 12.5182C18.7269 12.5185 18.7276 12.5187 18.7283 12.5186H19.9236C19.9694 12.5172 20.0149 12.5266 20.0568 12.5461C20.0987 12.5655 20.136 12.5946 20.1658 12.6312C20.1957 12.6678 20.2174 12.711 20.2294 12.7576C20.2413 12.8041 20.2433 12.8529 20.2351 12.9004C20.2192 13.0048 20.1692 13.1 20.0937 13.1697C20.0183 13.2394 19.9221 13.2792 19.8218 13.2822H18.6253C18.6241 13.2822 18.623 13.2827 18.622 13.2835C18.6211 13.2842 18.6204 13.2853 18.62 13.2865L18.4731 14.388C18.4731 14.3895 18.4736 14.391 18.4746 14.3922C18.4756 14.3933 18.4769 14.394 18.4784 14.3942H20.0161C20.0619 14.3927 20.1074 14.4021 20.1493 14.4216C20.1912 14.4411 20.2284 14.4702 20.2583 14.5068C20.2881 14.5434 20.3099 14.5865 20.3218 14.6331C20.3338 14.6797 20.3358 14.7285 20.3276 14.7759C20.3116 14.8803 20.2617 14.9756 20.1862 15.0453C20.1108 15.115 20.0146 15.1547 19.9143 15.1577H18.006C17.9545 15.1585 17.9035 15.1473 17.8565 15.125C17.8096 15.1026 17.7679 15.0697 17.7344 15.0285C17.7009 14.9873 17.6764 14.9389 17.6626 14.8866C17.6489 14.8343 17.6462 14.7795 17.6548 14.726L18.1166 11.2648C18.135 11.1468 18.1918 11.0392 18.2772 10.9604C18.3627 10.8816 18.4714 10.8366 18.5849 10.8331H20.4926C20.538 10.8319 20.583 10.8414 20.6244 10.8607C20.6659 10.8801 20.7027 10.9088 20.7324 10.945C20.762 10.9811 20.7837 11.0237 20.7959 11.0697C20.8081 11.1157 20.8105 11.164 20.8029 11.2111ZM23.0273 10.8158C23.55 10.8158 24.2267 10.8232 24.9057 10.8349C25.7288 10.8491 26.4488 11.2475 26.8808 11.9272C27.3422 12.6601 27.757 13.4245 28.1223 14.2153C28.3155 14.6298 27.9602 15.1694 27.4948 15.1694H22.5045L23.0273 10.8158Z" fill="#773BD9"/>
<path d="M12.8099 12.6919H11.5391L11.7804 11.5386H13.0504C13.0504 11.5386 13.9827 11.4986 13.8298 12.1153C13.8338 12.1153 13.7269 12.6919 12.8099 12.6919Z" fill="#773BD9"/>
</svg>
