<svg width="43" height="42" viewBox="0 0 43 42" fill="none" xmlns="http://www.w3.org/2000/svg">
<path d="M35.7083 8.13817C28.5267 8.13817 22.3654 3.32845 22.3008 3.27701C22.0728 3.0976 21.7906 3 21.5 3C21.2094 3 20.9272 3.0976 20.6992 3.27701C20.6346 3.32845 14.4992 8.13817 7.29167 8.13817C6.9491 8.13817 6.62056 8.27366 6.37832 8.51484C6.13609 8.75601 6 9.08312 6 9.42419V20.9984C6 29.6276 9.50042 33.8586 20.9704 38.8869C21.1369 38.9615 21.3174 39 21.5 39C21.6826 39 21.8631 38.9615 22.0296 38.8869C33.4996 33.8586 37 29.6276 37 20.9984V9.42419C37 9.08312 36.8639 8.75601 36.6217 8.51484C36.3794 8.27366 36.0509 8.13817 35.7083 8.13817ZM21.5 31.2866C19.4563 31.2866 17.4584 30.6832 15.7591 29.5527C14.0598 28.4222 12.7354 26.8154 11.9532 24.9355C11.1711 23.0556 10.9665 20.987 11.3652 18.9913C11.7639 16.9956 12.7481 15.1624 14.1932 13.7235C15.6384 12.2847 17.4796 11.3049 19.4841 10.9079C21.4885 10.5109 23.5662 10.7147 25.4544 11.4934C27.3426 12.272 28.9564 13.5907 30.0919 15.2826C31.2273 16.9745 31.8333 18.9636 31.8333 20.9984C31.8333 23.727 30.7446 26.3438 28.8068 28.2732C26.8689 30.2026 24.2406 31.2866 21.5 31.2866Z" fill="white"/>
<path d="M24.4599 17.513L20.2104 21.7568L18.5441 20.085C18.4237 19.9651 18.2807 19.87 18.1234 19.8051C17.966 19.7402 17.7973 19.7068 17.627 19.7068C17.4567 19.7068 17.2881 19.7402 17.1307 19.8051C16.9734 19.87 16.8304 19.9651 16.7099 20.085C16.5895 20.2049 16.494 20.3473 16.4288 20.5039C16.3636 20.6606 16.3301 20.8285 16.3301 20.9981C16.3301 21.1677 16.3636 21.3356 16.4288 21.4922C16.494 21.6489 16.5895 21.7913 16.7099 21.9112L19.2933 24.4832C19.4134 24.6037 19.5562 24.6994 19.7136 24.7647C19.871 24.83 20.0398 24.8636 20.2104 24.8636C20.3809 24.8636 20.5497 24.83 20.7071 24.7647C20.8645 24.6994 21.0074 24.6037 21.1274 24.4832L26.2941 19.3391C26.4145 19.2192 26.5101 19.0769 26.5753 18.9202C26.6404 18.7635 26.674 18.5956 26.674 18.426C26.674 18.2565 26.6404 18.0886 26.5753 17.9319C26.5101 17.7752 26.4145 17.6329 26.2941 17.513C26.1737 17.3931 26.0307 17.298 25.8734 17.2331C25.716 17.1682 25.5473 17.1348 25.377 17.1348C25.2067 17.1348 25.0381 17.1682 24.8807 17.2331C24.7234 17.298 24.5804 17.3931 24.4599 17.513Z" fill="white"/>
</svg>
