<svg width="60" height="60" viewBox="0 0 60 60" fill="none" xmlns="http://www.w3.org/2000/svg">
<circle cx="30" cy="30" r="30" fill="#F5F5FD"/>
<path d="M41.8125 30.0001C41.8125 30.6474 42.3372 31.172 42.9844 31.172H46.1094C46.7566 31.172 47.2812 30.6473 47.2812 30.0001C47.2812 29.3529 46.7566 28.8282 46.1094 28.8282H42.9844C42.3372 28.8282 41.8125 29.3529 41.8125 30.0001Z" fill="#3D4852"/>
<path d="M40.5158 21.9539C39.9553 22.2775 39.7633 22.9942 40.0869 23.5546C40.4105 24.1151 41.1272 24.3071 41.6877 23.9836L44.394 22.4211C44.9545 22.0975 45.1465 21.3807 44.8229 20.8203C44.4993 20.2598 43.7826 20.0678 43.2221 20.3914L40.5158 21.9539Z" fill="#3D4852"/>
<path d="M36.5009 14.529L34.9384 17.2353C34.6148 17.7958 34.8069 18.5125 35.3673 18.8361C35.9278 19.1597 36.6445 18.9677 36.9681 18.4072L38.5306 15.7009C38.8542 15.1404 38.6622 14.4237 38.1017 14.1001C37.5413 13.7765 36.8245 13.9684 36.5009 14.529Z" fill="#3D4852"/>
<path d="M34.9384 42.7643L36.5009 45.4707C36.8245 46.0311 37.5413 46.2232 38.1017 45.8996C38.6622 45.576 38.8542 44.8593 38.5306 44.2988L36.9681 41.5925C36.6445 41.032 35.9278 40.84 35.3673 41.1636C34.8069 41.4871 34.6148 42.2038 34.9384 42.7643Z" fill="#3D4852"/>
<path d="M40.0869 36.4453C39.7633 37.0057 39.9553 37.7225 40.5158 38.0461L43.2221 39.6086C43.7826 39.9321 44.4993 39.7401 44.8229 39.1796C45.1465 38.6192 44.9545 37.9025 44.394 37.5789L41.6877 36.0164C41.1271 35.6928 40.4105 35.8848 40.0869 36.4453Z" fill="#3D4852"/>
<path d="M39.4688 29.9999C39.4688 25.4165 36.5297 21.5074 32.4375 20.0563V39.9435C36.5297 38.4924 39.4688 34.5832 39.4688 29.9999Z" fill="#3D4852"/>
<path d="M28.4712 13.2946L24.0841 15.1225C22.0462 15.9717 20.7187 17.9629 20.7187 20.1706L20.7188 39.8297C20.7188 42.0374 22.0462 44.0287 24.0841 44.8777L28.4712 46.7056C29.243 47.0273 30.0938 46.4602 30.0938 45.6239V14.3763C30.0938 13.5402 29.243 12.973 28.4712 13.2946Z" fill="#3D4852"/>
</svg>
