<svg width="38" height="38" viewBox="0 0 38 38" fill="none" xmlns="http://www.w3.org/2000/svg">
<g clip-path="url(#clip0_166_4197)">
<path d="M17.8249 5.95803C18.0383 6.17159 18.3182 6.2783 18.598 6.2783C18.8777 6.2783 19.1576 6.17152 19.371 5.95803C19.798 5.53112 19.798 4.83883 19.371 4.41186L17.9074 2.94819C17.4805 2.52114 16.7882 2.52121 16.3613 2.94819C15.9343 3.3751 15.9343 4.06739 16.3612 4.49437L17.8249 5.95803Z" fill="#773BD9"/>
<path d="M25.4126 6.2783C25.6924 6.2783 25.9722 6.17152 26.1857 5.95803L27.6493 4.49437C28.0763 4.06739 28.0763 3.37517 27.6493 2.94819C27.2224 2.52114 26.5301 2.52121 26.1031 2.94819L24.6395 4.41186C24.2126 4.83883 24.2126 5.53112 24.6395 5.95803C24.853 6.17159 25.1328 6.2783 25.4126 6.2783Z" fill="#773BD9"/>
<path d="M22.0054 4.5949C22.6092 4.5949 23.0988 4.10538 23.0988 3.50157V1.4317C23.0988 0.827895 22.6092 0.338379 22.0054 0.338379C21.4016 0.338379 20.9121 0.827895 20.9121 1.4317V3.50157C20.9121 4.10538 21.4016 4.5949 22.0054 4.5949Z" fill="#773BD9"/>
<path d="M36.6001 9.68813C36.3931 9.41932 36.0731 9.26174 35.7337 9.26174H9.10258L6.79633 3.46157C6.66294 2.99115 6.23341 2.6665 5.74448 2.6665H0.601133C-0.00267136 2.6665 -0.492188 3.15602 -0.492188 3.75982C-0.492188 4.36363 -0.00267136 4.85315 0.601133 4.85315H4.91807L7.22112 10.6418L10.7557 23.9976C11.364 23.7732 12.021 23.6505 12.7063 23.6505H31.347C32.0318 23.6505 32.6682 23.8618 33.1947 24.2222L36.7906 10.6349C36.8774 10.3067 36.807 9.95702 36.6001 9.68813Z" fill="#773BD9"/>
<path d="M31.6495 30.6031L22.0051 30.584H12.7064C12.0006 30.584 11.4265 30.0098 11.4265 29.304C11.4265 28.5983 12.0007 28.024 12.7064 28.024H22.0051H31.3471C31.9509 28.024 32.4404 27.5345 32.4404 26.9307C32.4404 26.3269 31.9509 25.8374 31.3471 25.8374H22.0051H12.7064C10.7949 25.8374 9.23982 27.3925 9.23982 29.304C9.23982 30.1997 9.58122 31.017 10.1408 31.633C9.50025 32.2731 9.10352 33.157 9.10352 34.132C9.10352 36.0811 10.6893 37.6668 12.6384 37.6668C14.5875 37.6668 16.1731 36.0811 16.1731 34.132C16.1731 33.6498 16.0758 33.1899 15.9002 32.7707H22.0051H28.1877C28.0121 33.1899 27.9148 33.6498 27.9148 34.132C27.9148 36.0811 29.5004 37.6668 31.4495 37.6668C33.3986 37.6668 34.9843 36.0811 34.9843 34.132C34.9842 32.2499 33.5059 30.7072 31.6495 30.6031Z" fill="#773BD9"/>
</g>
<defs>
<clipPath id="clip0_166_4197">
<rect width="37.3333" height="37.3333" fill="white" transform="translate(0.666992 0.333496)"/>
</clipPath>
</defs>
</svg>
