<svg width="32" height="32" viewBox="0 0 32 32" fill="none" xmlns="http://www.w3.org/2000/svg">
<path d="M26.4327 20.9532L22.2927 6.52563C20.4765 7.25413 18.2147 7.8815 16.0007 7.8815C13.7909 7.8815 11.5279 7.253 9.70948 6.52344L5.56836 20.9531C8.38748 21.8963 12.1839 22.8191 16.0006 22.8191C19.8174 22.8191 23.6135 21.8963 26.4327 20.9532ZM20.1937 12.0122L21.5194 13.3379L18.0294 16.8279L16.7037 15.5022L20.1937 12.0122ZM12.4044 16.8279L11.0787 15.5022L14.5687 12.0122L15.8944 13.3379L12.4044 16.8279Z" fill="#773BD9"/>
<path d="M4.32037 3.55859L0 18.6152L0.68575 18.9667C0.804188 19.0276 1.97525 19.6178 3.79912 20.3178L7.97769 5.75634C6.42081 4.99334 5.41787 4.31391 5.39519 4.29834L4.32037 3.55859Z" fill="#773BD9"/>
<path d="M26.6051 4.2982C26.5824 4.31377 25.5806 4.99458 24.0234 5.75833L28.2012 20.3176C30.0251 19.6175 31.1961 19.0274 31.3146 18.9665L32.0003 18.615L27.6799 3.55664L26.6051 4.2982Z" fill="#773BD9"/>
<path d="M26.6616 23.7284L27.7939 24.0118C25.1518 25.0852 20.6029 26.5693 16 26.5693C11.3958 26.5693 6.85675 25.0845 4.20937 24.011L5.33844 23.7284L4.88431 21.9102L0 23.1305L2.39775 27.9261L4.075 27.0875L3.38562 25.7086C6.15831 26.8493 10.9769 28.4443 16 28.4443C21.0192 28.4443 25.8446 26.8521 28.6129 25.7115L27.925 27.0875L29.6022 27.9261L32 23.1305L27.1157 21.9102L26.6616 23.7284Z" fill="#773BD9"/>
</svg>
