<svg width="28" height="28" viewBox="0 0 28 28" fill="none" xmlns="http://www.w3.org/2000/svg">
<g clip-path="url(#clip0_166_4218)">
<path d="M11.5404 21.1217C12.434 20.2886 12.5716 18.9838 11.8477 18.2072C11.1238 17.4307 9.81253 17.4764 8.91888 18.3095C8.02523 19.1425 7.88762 20.4474 8.61152 21.224C9.33542 22.0005 10.6467 21.9547 11.5404 21.1217Z" fill="#773BD9"/>
<path d="M23.3646 21.1222C24.2582 20.2891 24.3958 18.9843 23.6719 18.2077C22.948 17.4311 21.6367 17.4769 20.7431 18.31C19.8494 19.143 19.7118 20.4479 20.4357 21.2244C21.1596 22.001 22.4709 21.9552 23.3646 21.1222Z" fill="#773BD9"/>
<path d="M2.16348 10.926C2.16348 10.4103 1.74541 9.99219 1.22969 9.99219C0.71397 9.99219 0.295898 10.4103 0.295898 10.926C0.295898 11.4417 0.71397 11.8598 1.22969 11.8598C1.74541 11.8598 2.16348 11.4417 2.16348 10.926Z" fill="#773BD9"/>
<path d="M18.9486 19.5201C19.2805 17.8795 20.8304 16.5757 22.4961 16.5757C24.1001 16.5757 25.2562 17.7849 25.2245 19.3396C26.9592 19.385 27.4421 17.1007 27.4421 17.1007C27.5881 16.462 27.8063 15.2167 27.9889 13.9945C28.0488 13.6171 28.0028 13.2305 27.8561 12.8778C27.4026 11.8192 26.8546 10.8038 26.2187 9.84369C25.6171 8.94627 24.6082 8.41471 23.4564 8.39557C22.7696 8.38463 22.0953 8.37807 21.5861 8.37807L21.5818 8.37369C21.5161 7.27557 20.7155 6.43447 19.5917 6.33385C18.8605 6.26877 15.9643 6.22119 14.5741 6.22119C14.0218 6.22119 13.2293 6.22885 12.4276 6.24197V6.23869H12.4211H2.78184C2.65915 6.23862 2.53766 6.26273 2.4243 6.30965C2.31094 6.35656 2.20794 6.42536 2.12119 6.51211C2.03444 6.59886 1.96564 6.70186 1.91873 6.81522C1.87181 6.92858 1.8477 7.05007 1.84777 7.17275V7.17713C1.84777 7.4237 1.94572 7.66017 2.12007 7.83452C2.29442 8.00887 2.53089 8.10682 2.77746 8.10682H4.72051C4.95448 8.12407 5.17327 8.22913 5.33302 8.40095C5.49276 8.57276 5.58164 8.79862 5.58184 9.03322V9.03814C5.5822 9.16095 5.55834 9.28261 5.51163 9.39618C5.46491 9.50975 5.39627 9.613 5.30961 9.70001C5.22295 9.78702 5.11999 9.85609 5.00661 9.90327C4.89324 9.95044 4.77167 9.9748 4.64887 9.97494H3.65246C3.40488 9.97494 3.16743 10.0733 2.99237 10.2484C2.8173 10.4234 2.71895 10.6609 2.71895 10.9085C2.71887 11.0311 2.74297 11.1525 2.78985 11.2659C2.83673 11.3792 2.90548 11.4822 2.99217 11.5689C3.07886 11.6556 3.1818 11.7245 3.29509 11.7714C3.40839 11.8184 3.52982 11.8425 3.65246 11.8425H4.64887C4.8966 11.8425 5.13418 11.9409 5.30935 12.1161C5.48452 12.2913 5.58293 12.5289 5.58293 12.7766C5.58293 13.0243 5.48452 13.2619 5.30935 13.4371C5.13418 13.6122 4.8966 13.7106 4.64887 13.7106H0.921367C0.673733 13.7106 0.436234 13.809 0.261079 13.984C0.0859235 14.1591 -0.0125503 14.3965 -0.0126953 14.6442C-0.0126953 14.8919 0.0857145 15.1295 0.260885 15.3046C0.436056 15.4798 0.673638 15.5782 0.921367 15.5782H4.64887C4.8966 15.5782 5.13418 15.6766 5.30935 15.8518C5.48452 16.027 5.58293 16.2646 5.58293 16.5123C5.58264 16.7598 5.4841 16.9971 5.30896 17.1721C5.13382 17.347 4.89641 17.4453 4.64887 17.4453H3.49605C3.24847 17.4453 3.01103 17.5436 2.83596 17.7187C2.66089 17.8937 2.56254 18.1312 2.56254 18.3788C2.56254 18.6264 2.66087 18.8639 2.83593 19.0391C3.01098 19.2142 3.24842 19.3127 3.49605 19.3128L7.17434 19.3101L7.48004 18.5483C8.10621 17.3933 9.35199 16.5752 10.6711 16.5752C12.3374 16.5752 13.5208 17.88 13.3907 19.5217H18.948M9.68395 10.4097H8.43051C8.42932 10.4098 8.4282 10.4103 8.42731 10.4111C8.42643 10.4119 8.42582 10.4129 8.42559 10.4141L8.3102 11.2344C8.31003 11.2351 8.31001 11.2357 8.31015 11.2364C8.3103 11.2371 8.31059 11.2377 8.31102 11.2382C8.31144 11.2388 8.31198 11.2392 8.3126 11.2395C8.31322 11.2397 8.31389 11.2399 8.31457 11.2399H9.24754C9.29333 11.2386 9.33884 11.2475 9.38074 11.266C9.42265 11.2845 9.45989 11.3122 9.48976 11.3469C9.51962 11.3816 9.54136 11.4226 9.55338 11.4668C9.56541 11.511 9.56741 11.5574 9.55926 11.6024C9.54327 11.7015 9.49324 11.7919 9.41778 11.8581C9.34232 11.9243 9.24615 11.9621 9.14582 11.965H8.21176C8.21062 11.965 8.20951 11.9654 8.20861 11.9661C8.20772 11.9668 8.20709 11.9677 8.20684 11.9688L8.03949 13.1605C8.02351 13.2596 7.97348 13.35 7.89802 13.4162C7.82255 13.4823 7.72638 13.5201 7.62606 13.5231C7.58028 13.5244 7.53478 13.5155 7.4929 13.4969C7.45101 13.4784 7.4138 13.4508 7.38397 13.416C7.35415 13.3813 7.33246 13.3403 7.32051 13.2961C7.30856 13.2519 7.30663 13.2055 7.31488 13.1605L7.7491 10.0696C7.76631 9.9649 7.81936 9.86949 7.89917 9.79965C7.97899 9.72982 8.0806 9.6899 8.1866 9.68674H9.78512C9.8309 9.68542 9.87639 9.69435 9.91827 9.71287C9.96016 9.73139 9.99738 9.75904 10.0272 9.79379C10.057 9.82855 10.0787 9.86953 10.0907 9.91374C10.1026 9.95795 10.1045 10.0043 10.0963 10.0493C10.0801 10.1479 10.0301 10.2378 9.95483 10.3036C9.8796 10.3693 9.78383 10.4068 9.68395 10.4097ZM13.0341 9.93283C13.1643 10.0484 13.2559 10.2011 13.2966 10.3703C13.3421 10.5621 13.3495 10.7609 13.3185 10.9555C13.2804 11.2583 13.1565 11.5439 12.9614 11.7785C12.8422 11.9194 12.6908 12.0296 12.52 12.0996C12.5193 12.1004 12.5188 12.1014 12.5188 12.1026C12.5188 12.1037 12.5193 12.1048 12.52 12.1056L12.8307 13.0019C12.9143 13.2425 12.6994 13.5231 12.432 13.5231H12.4145C12.3496 13.525 12.2858 13.5062 12.2323 13.4694C12.1788 13.4326 12.1384 13.3798 12.117 13.3185L11.7413 12.2248C11.7408 12.224 11.74 12.2233 11.7392 12.2228C11.7383 12.2223 11.7373 12.2221 11.7364 12.2221H10.9379C10.9368 12.2221 10.9358 12.2225 10.9349 12.2232C10.934 12.2239 10.9333 12.2248 10.933 12.2259L10.8018 13.1599C10.7858 13.259 10.7357 13.3494 10.6603 13.4156C10.5848 13.4818 10.4886 13.5196 10.3883 13.5225C10.3425 13.5238 10.297 13.5149 10.2552 13.4964C10.2133 13.4779 10.1761 13.4502 10.1462 13.4155C10.1164 13.3807 10.0947 13.3397 10.0828 13.2955C10.0708 13.2513 10.0689 13.205 10.0771 13.1599L10.5114 10.069C10.5286 9.96435 10.5816 9.86894 10.6614 9.79911C10.7413 9.72927 10.8429 9.68935 10.9489 9.68619H12.1848C12.1848 9.68619 12.7273 9.66924 13.0341 9.93283ZM16.4357 10.0236C16.4208 10.1162 16.3741 10.2006 16.3036 10.2624C16.2331 10.3242 16.1433 10.3595 16.0496 10.3621H14.6118C14.6107 10.3622 14.6097 10.3626 14.6088 10.3633C14.6079 10.364 14.6072 10.3649 14.6069 10.366L14.4926 11.1775C14.4924 11.1782 14.4924 11.1789 14.4926 11.1795C14.4927 11.1802 14.493 11.1808 14.4934 11.1813C14.4939 11.1819 14.4944 11.1823 14.495 11.1826C14.4956 11.1829 14.4963 11.183 14.497 11.183H15.6137C15.6565 11.1817 15.699 11.19 15.7381 11.2073C15.7773 11.2246 15.8121 11.2504 15.8399 11.2828C15.8678 11.3153 15.8881 11.3536 15.8993 11.3948C15.9105 11.4361 15.9123 11.4794 15.9046 11.5215C15.8898 11.6141 15.8431 11.6985 15.7726 11.7603C15.7021 11.8221 15.6123 11.8574 15.5186 11.86H14.4013C14.4002 11.8601 14.3991 11.8605 14.3982 11.8612C14.3973 11.8618 14.3967 11.8628 14.3964 11.8638L14.2591 12.8406C14.2591 12.8419 14.2596 12.8432 14.2605 12.8443C14.2614 12.8453 14.2627 12.8459 14.264 12.846H15.7007C15.7434 12.8448 15.7859 12.8531 15.8251 12.8704C15.8642 12.8876 15.899 12.9134 15.9269 12.9459C15.9548 12.9783 15.9751 13.0166 15.9863 13.0579C15.9975 13.0992 15.9993 13.1425 15.9916 13.1846C15.9767 13.2771 15.93 13.3616 15.8595 13.4234C15.7891 13.4852 15.6992 13.5204 15.6055 13.5231H13.8227C13.7746 13.5237 13.7269 13.5138 13.6831 13.494C13.6392 13.4742 13.6003 13.445 13.569 13.4085C13.5377 13.372 13.5148 13.329 13.5019 13.2827C13.4891 13.2363 13.4865 13.1877 13.4946 13.1403L13.9261 10.0712C13.9433 9.96654 13.9963 9.87113 14.0761 9.80129C14.1559 9.73146 14.2575 9.69154 14.3636 9.68838H16.1458C16.1882 9.68737 16.2302 9.69575 16.2689 9.71291C16.3077 9.73007 16.3421 9.75558 16.3698 9.78763C16.3975 9.81967 16.4178 9.85744 16.4292 9.89824C16.4406 9.93904 16.4428 9.98186 16.4357 10.0236ZM19.4221 10.0236C19.4073 10.1162 19.3606 10.2006 19.2901 10.2624C19.2196 10.3242 19.1298 10.3595 19.0361 10.3621H17.5983C17.5972 10.3622 17.5961 10.3626 17.5953 10.3633C17.5944 10.364 17.5937 10.3649 17.5934 10.366L17.4796 11.1775C17.4795 11.1782 17.4795 11.1789 17.4796 11.1795C17.4797 11.1802 17.48 11.1808 17.4805 11.1813C17.4809 11.1819 17.4814 11.1823 17.4821 11.1826C17.4827 11.1829 17.4833 11.183 17.484 11.183H18.6007C18.6435 11.1817 18.686 11.19 18.7252 11.2073C18.7643 11.2246 18.7991 11.2504 18.827 11.2828C18.8549 11.3153 18.8751 11.3536 18.8863 11.3948C18.8975 11.4361 18.8994 11.4794 18.8917 11.5215C18.8768 11.6141 18.8301 11.6985 18.7596 11.7603C18.6891 11.8221 18.5993 11.8574 18.5056 11.86H17.3878C17.3867 11.8601 17.3856 11.8605 17.3847 11.8612C17.3838 11.8618 17.3832 11.8628 17.3829 11.8638L17.2456 12.8406C17.2456 12.8419 17.2461 12.8432 17.247 12.8443C17.2479 12.8453 17.2492 12.8459 17.2505 12.846H18.6871C18.7299 12.8448 18.7724 12.8531 18.8116 12.8704C18.8507 12.8876 18.8855 12.9134 18.9134 12.9459C18.9413 12.9783 18.9615 13.0166 18.9727 13.0579C18.9839 13.0992 18.9858 13.1425 18.9781 13.1846C18.9632 13.2771 18.9165 13.3616 18.846 13.4234C18.7755 13.4852 18.6857 13.5204 18.592 13.5231H16.8092C16.7611 13.5237 16.7134 13.5138 16.6696 13.494C16.6257 13.4742 16.5868 13.445 16.5555 13.4085C16.5241 13.372 16.5013 13.329 16.4884 13.2827C16.4755 13.2363 16.473 13.1877 16.4811 13.1403L16.9125 10.0712C16.9297 9.96654 16.9828 9.87113 17.0626 9.80129C17.1424 9.73146 17.244 9.69154 17.35 9.68838H19.1323C19.1747 9.68737 19.2167 9.69575 19.2554 9.71291C19.2941 9.73007 19.3286 9.75558 19.3563 9.78763C19.384 9.81967 19.4043 9.85744 19.4157 9.89824C19.427 9.93904 19.4293 9.98186 19.4221 10.0236ZM21.5003 9.67307C21.9886 9.67307 22.6208 9.67963 23.2552 9.69002C24.0241 9.7026 24.6968 10.0559 25.1004 10.6585C25.5314 11.3084 25.9189 11.9862 26.2603 12.6874C26.4407 13.0549 26.1088 13.5335 25.674 13.5335H21.0119L21.5003 9.67307Z" fill="#773BD9"/>
<path d="M11.8914 11.5458H11.0273L11.1914 10.3624H12.0549C12.0549 10.3624 12.6888 10.3213 12.5848 10.9541C12.5876 10.9541 12.5148 11.5458 11.8914 11.5458Z" fill="#773BD9"/>
</g>
<defs>
<clipPath id="clip0_166_4218">
<rect width="28" height="28" fill="white"/>
</clipPath>
</defs>
</svg>
