<svg width="28" height="28" viewBox="0 0 28 28" fill="none" xmlns="http://www.w3.org/2000/svg">
<path d="M23.625 5.24988C18.76 5.24988 14.5863 1.97738 14.5425 1.94238C14.388 1.82031 14.1969 1.75391 14 1.75391C13.8031 1.75391 13.612 1.82031 13.4575 1.94238C13.4137 1.97738 9.2575 5.24988 4.375 5.24988C4.14294 5.24988 3.92038 5.34207 3.75628 5.50616C3.59219 5.67026 3.5 5.89282 3.5 6.12488V13.9999C3.5 19.8711 5.87125 22.7499 13.6413 26.1711C13.7541 26.2218 13.8763 26.2481 14 26.2481C14.1237 26.2481 14.2459 26.2218 14.3587 26.1711C22.1287 22.7499 24.5 19.8711 24.5 13.9999V6.12488C24.5 5.89282 24.4078 5.67026 24.2437 5.50616C24.0796 5.34207 23.8571 5.24988 23.625 5.24988ZM14 20.9999C12.6155 20.9999 11.2622 20.5893 10.111 19.8202C8.95986 19.051 8.06266 17.9577 7.53284 16.6787C7.00303 15.3996 6.86441 13.9921 7.1345 12.6342C7.4046 11.2764 8.07128 10.0291 9.05025 9.05013C10.0292 8.07116 11.2765 7.40448 12.6344 7.13438C13.9922 6.86429 15.3997 7.00291 16.6788 7.53272C17.9579 8.06254 19.0511 8.95974 19.8203 10.1109C20.5895 11.262 21 12.6154 21 13.9999C21 15.8564 20.2625 17.6369 18.9497 18.9496C17.637 20.2624 15.8565 20.9999 14 20.9999Z" fill="#773BD9"/>
<path d="M16.0044 11.6284L13.1256 14.5159L11.9969 13.3784C11.9153 13.2968 11.8185 13.2321 11.7119 13.188C11.6053 13.1438 11.491 13.1211 11.3757 13.1211C11.2603 13.1211 11.146 13.1438 11.0394 13.188C10.9328 13.2321 10.836 13.2968 10.7544 13.3784C10.6728 13.46 10.6081 13.5569 10.5639 13.6635C10.5198 13.77 10.4971 13.8843 10.4971 13.9997C10.4971 14.1151 10.5198 14.2293 10.5639 14.3359C10.6081 14.4425 10.6728 14.5393 10.7544 14.6209L12.5044 16.3709C12.5857 16.4529 12.6825 16.518 12.7891 16.5625C12.8958 16.6069 13.0101 16.6297 13.1256 16.6297C13.2412 16.6297 13.3555 16.6069 13.4622 16.5625C13.5688 16.518 13.6656 16.4529 13.7469 16.3709L17.2469 12.8709C17.3285 12.7893 17.3932 12.6925 17.4374 12.5859C17.4815 12.4793 17.5042 12.3651 17.5042 12.2497C17.5042 12.1343 17.4815 12.02 17.4374 11.9135C17.3932 11.8069 17.3285 11.71 17.2469 11.6284C17.1653 11.5468 17.0685 11.4821 16.9619 11.438C16.8553 11.3938 16.741 11.3711 16.6256 11.3711C16.5103 11.3711 16.396 11.3938 16.2894 11.438C16.1828 11.4821 16.086 11.5468 16.0044 11.6284Z" fill="#773BD9"/>
</svg>
