<svg width="427" height="414" viewBox="0 0 427 414" fill="none" xmlns="http://www.w3.org/2000/svg">
<g clip-path="url(#clip0_177_4754)">
<path d="M44.2633 365.528C62.2939 381.816 85.1231 393.808 108.931 400.643C139.891 409.528 169.838 412.648 201.931 412.592C201.404 412.592 200.878 412.592 200.351 412.592C238.779 412.511 293.455 412.821 330.649 402.417C354.457 395.755 370.266 384.897 387.399 369.48C404.296 354.274 410.939 334.821 417.093 313.489C435.068 251.196 427.483 167.112 403.235 107.307C394.951 86.8826 378.899 73.8321 362.323 55.9266C354.396 47.3632 292.226 15.5642 259.614 13.3229C208.711 9.82825 152.606 -6.44729 102.409 9.359C81.7965 15.8544 66.5831 29.9874 52.6947 45.1639C38.1811 61.0135 31.0604 82.2408 22.3423 102.906C13.6304 123.572 8.80411 144.09 5.33047 167.453C-4.16163 231.297 1.37139 328.64 44.2633 365.528Z" fill="white"/>
<path d="M304.798 159.349C305.858 158.806 306.724 159.003 306.861 159.103C318.148 167.344 326.978 183.256 331.082 202.743C331.677 205.57 330.947 208.891 332.947 212.146C334.389 214.486 338.277 217.629 340.445 220.093C339.745 212.12 338.155 203.816 335.826 195.172C335.579 194.239 335.535 193.228 335.714 192.246C336.024 190.547 336.935 189.171 338.135 188.559C338.867 188.196 340.24 189.073 340.52 190.109C344.613 205.156 346.104 218.789 344.952 230.625C343.547 245.326 341.262 260.398 334.253 270.975C333.833 271.617 333.299 272.104 332.724 272.401C332.067 272.74 331.516 272.728 331.294 272.686C331.269 272.66 331.226 272.618 331.182 272.562C330.036 271.241 329.714 268.283 331.133 265.627C335.207 258.009 337.733 249.513 339.423 240.591C340.26 236.195 340.767 231.483 340.909 226.748C340.935 225.68 341.523 223.285 338.736 221.543C330.904 216.659 333.529 231.804 333.275 233.892C332.587 239.67 331.151 245.055 328.941 250.037C328.495 251.031 327.789 251.822 326.934 252.254C325.901 252.785 325.028 252.607 324.885 252.514C324.036 251.945 322.693 249.167 323.944 246.369C326.687 240.189 327.48 232.886 327.417 225.279C327.387 221.457 328.836 203.884 321.226 199.717C319.622 200.655 318.6 201.971 316.904 202.848C314.073 204.286 311.919 204.464 311.078 204.242C311.046 204.2 311.003 204.137 310.959 204.064C308.966 200.816 304.866 194.45 305.171 192.104C305.752 187.689 319.765 194.017 319.672 189.146C319.578 184.497 311.832 173.636 303.715 167.709C303.078 167.24 302.012 165.4 302.347 163.085C302.434 162.492 302.613 161.917 302.866 161.386C303.319 160.467 303.988 159.756 304.798 159.349Z" stroke="#773BD9" stroke-width="1.2"/>
<path d="M301.029 142.574C301.958 142.104 302.695 142.221 302.899 142.265C314.304 144.828 322.181 152.533 326.774 158.547C327.208 159.115 327.822 160.319 328.725 160.584C329.593 160.843 330.676 159.3 331.078 158.985C331.703 158.491 332.54 157.614 331.859 156.447C331.259 155.435 329.555 153.873 328.54 152.792C325.803 149.909 322.54 146.97 318.725 144.297C318.076 143.839 317.004 142.018 317.345 139.665C317.432 139.104 317.593 138.554 317.828 138.054C318.279 137.091 318.961 136.35 319.791 135.93C320.837 135.393 321.704 135.578 321.852 135.677C338.266 147.174 350.502 167.741 356.304 193.574C361.065 214.776 360.626 237.195 355.226 249.359C354.78 250.36 354.068 251.15 353.221 251.588C352.187 252.112 351.314 251.934 351.171 251.841C350.322 251.279 348.978 248.494 350.217 245.691C351.734 242.277 352.514 238.449 353.022 234.504C353.988 226.903 353.827 218.728 352.817 210.207C351.771 201.403 349.827 192.178 346.217 182.374C344.62 178.046 342.7 173.587 340.168 168.969C339.035 166.888 337.747 164.758 336.329 162.604C335.264 160.974 334.305 160.436 332.849 160.855C331.945 161.115 331.259 161.634 330.862 162.251C329.772 163.93 332.422 167.5 333.524 170.068C334.924 173.334 335.876 176.44 336.434 179.385C336.893 181.799 335.883 184.231 334.037 185.176C333.803 185.294 333.554 185.386 333.313 185.454C332.559 185.634 332.057 185.479 331.995 185.442C331.803 185.318 330.961 184.504 330.645 182.849C329.239 175.415 323.581 164.746 314.169 157.651C311.648 155.75 308.782 154.071 305.896 152.86C304.113 152.114 302.094 151.761 300.287 150.631C297.94 149.168 298.453 147.328 298.577 146.402L298.584 146.297C298.838 144.636 299.748 143.234 301.029 142.574Z" stroke="#773BD9" stroke-width="1.2"/>
<path d="M313.783 228.372C313.783 286.46 266.558 333.553 208.304 333.553C150.051 333.553 102.826 286.46 102.826 228.372C102.826 170.284 150.051 123.187 208.304 123.187C266.558 123.193 313.783 170.284 313.783 228.372Z" fill="url(#paint0_linear_177_4754)"/>
<path d="M65.694 103.798C63.0316 46.5891 128.745 25.4836 134.739 35.0776C141.144 45.3275 112.672 45.2706 99.5758 56.8012C76.3254 77.2762 75.1304 108.686 65.694 103.798Z" fill="white" stroke="#773BD9" stroke-width="1.2" stroke-miterlimit="10" stroke-linecap="round" stroke-linejoin="round"/>
<path d="M85.1743 106.951C83.2114 64.7781 132.486 52.2206 136.071 56.2839C134.666 66.7875 119.805 63.7955 110.146 72.3024C93.0069 87.3956 92.1277 110.552 85.1743 106.951Z" fill="white" stroke="#773BD9" stroke-width="1.2" stroke-miterlimit="10" stroke-linecap="round" stroke-linejoin="round"/>
<path d="M103.736 110.228C102.423 82.1658 135.209 73.8173 137.598 76.5179C136.664 83.5033 126.775 81.513 120.355 87.1736C108.949 97.2209 108.361 112.625 103.736 110.228Z" fill="white" stroke="#773BD9" stroke-width="1.2" stroke-miterlimit="10" stroke-linecap="round" stroke-linejoin="round"/>
<path d="M117.406 115.655C116.477 95.6876 139.802 89.7479 141.499 91.6686C140.83 96.6384 133.796 95.2248 129.226 99.25C121.115 106.4 120.7 117.354 117.406 115.655Z" fill="white" stroke="#773BD9" stroke-width="1.2" stroke-miterlimit="10" stroke-linecap="round" stroke-linejoin="round"/>
<path d="M70.0849 110.28C72.4379 113.037 72.1655 117.221 69.4781 119.63C66.7847 122.039 62.6981 121.76 60.3452 119.002C57.9922 116.251 58.2648 112.067 60.952 109.652C63.6392 107.243 67.732 107.522 70.0849 110.28Z" fill="white" stroke="#773BD9" stroke-width="1.2" stroke-linecap="round" stroke-linejoin="round"/>
<path d="M88.1997 114.894C89.7972 116.758 89.5619 119.642 87.6734 121.334C85.785 123.027 82.9614 122.881 81.3702 121.011C79.7727 119.147 80.008 116.263 81.8965 114.571C83.785 112.878 86.6085 113.024 88.1997 114.894Z" fill="white" stroke="#773BD9" stroke-width="1.2" stroke-linecap="round" stroke-linejoin="round"/>
<path d="M102.412 118.261C103.725 119.795 103.502 122.197 101.917 123.617C100.332 125.037 97.9788 124.948 96.6662 123.408C95.3535 121.874 95.5764 119.478 97.1615 118.052C98.7466 116.632 101.093 116.727 102.412 118.261Z" fill="white" stroke="#773BD9" stroke-width="1.2" stroke-linecap="round" stroke-linejoin="round"/>
<path d="M152.212 39.6698C150.397 42.8203 146.434 43.8724 143.351 42.0088C140.273 40.1515 139.246 36.0883 141.061 32.9378C142.874 29.7873 146.843 28.735 149.921 30.5923C153.01 32.456 154.032 36.5193 152.212 39.6698Z" fill="white" stroke="#773BD9" stroke-width="1.2" stroke-linecap="round" stroke-linejoin="round"/>
<path d="M153.63 58.7376C152.405 60.8739 149.656 61.5521 147.495 60.2464C145.333 58.9405 144.578 56.1513 145.81 54.0152C147.042 51.8788 149.791 51.2006 151.952 52.5065C154.107 53.806 154.856 56.6014 153.63 58.7376Z" fill="white" stroke="#773BD9" stroke-width="1.2" stroke-linecap="round" stroke-linejoin="round"/>
<path d="M154.97 73.603C153.96 75.359 151.663 75.8978 149.848 74.8011C148.034 73.7044 147.385 71.3908 148.393 69.6349C149.402 67.8789 151.7 67.3402 153.514 68.4368C155.328 69.5271 155.985 71.8408 154.97 73.603Z" fill="white" stroke="#773BD9" stroke-width="1.2" stroke-linecap="round" stroke-linejoin="round"/>
<path d="M138.645 369.196C138.583 368.27 139.227 367.251 139.84 366.294C141.561 363.603 144.211 361.831 147.202 360.805C150.329 359.731 153.666 359.404 156.948 359.151C159.907 358.922 163.424 359.175 166.28 358.305C168.353 357.669 170.57 355.939 171.436 353.897C172.558 351.253 169.919 351.723 168.136 351.821C166.334 351.921 164.527 351.964 162.719 351.921C159.771 351.846 158.459 348.364 161.351 346.957C163.939 345.697 167.758 345.882 170.526 346.209C177.363 347.023 184.18 350.34 188.755 355.513C190.514 357.143 192.192 358.91 193.752 360.854C195.047 362.472 197.547 365.09 197.988 367.146C198.34 368.801 196.316 370.092 195.071 368.942C193.399 367.399 187.319 357.459 181.004 354.155C179.282 353.254 177.585 351.612 175.524 351.933C174.124 352.149 172.026 353.637 172.187 355.23C172.309 356.458 172.434 357.687 173.109 358.237C178.409 361.429 184.074 362.102 187.096 367.387C188.167 369.765 185.306 370.53 183.517 369.758C181.189 368.757 177.399 366.844 175.121 365.64C170.57 363.238 161.641 362.521 159.759 364.665C157.029 367.77 163.27 373.833 160.502 376.179C159.208 377.278 155.097 378.611 154.732 375.043C154.446 372.271 158.465 366.405 153.339 365.801C150.1 365.331 148.032 367.19 145.883 369.271C144.391 370.715 141.722 372.056 139.716 370.765C138.986 370.295 138.688 369.758 138.645 369.196Z" stroke="#773BD9" stroke-width="1.2"/>
<path d="M194.04 373.658C194.364 374.16 194.03 374.843 193.718 375.478C192.83 377.277 190.785 378.727 188.203 379.837C185.505 380.989 182.399 381.77 179.324 382.493C176.553 383.146 173.104 383.634 170.613 384.628C168.802 385.353 167.162 386.704 166.909 387.986C166.579 389.652 168.973 388.923 170.662 388.55C172.362 388.174 174.085 387.828 175.829 387.534C178.672 387.045 180.917 388.749 178.541 390.043C176.41 391.202 173.852 395.854 171.11 396.163C164.32 396.924 154.825 395.464 148.977 393.413C146.831 392.821 142.038 391.71 139.995 390.903C138.291 390.239 138.7 386.434 137.703 385.373C136.898 384.519 138.355 383.633 139.995 383.861C140.887 383.983 142.135 384.861 142.888 385.184C143.853 385.6 145.033 385.939 145.92 386.397C149.224 388.117 153.401 388.948 157.667 389.551C159.543 389.814 161.663 390.356 163.551 389.807C164.832 389.437 166.422 388.24 165.821 387.386C165.354 386.725 164.888 386.066 164.085 385.88C158.103 385.056 152.473 385.693 148.08 383.306C146.383 382.179 148.915 381.244 150.84 381.351C153.356 381.49 157.53 381.877 160.057 382.137C165.096 382.66 173.866 381.462 175.069 379.938C176.811 377.73 169.109 375.481 171.11 373.686C172.046 372.847 175.608 371.373 176.962 373.284C178.014 374.771 175.823 378.738 180.909 378.157C184.149 377.841 185.607 376.442 187.078 374.909C188.102 373.842 190.284 372.625 192.574 372.982C193.398 373.114 193.84 373.356 194.04 373.658Z" stroke="#773BD9" stroke-width="1.2"/>
<g opacity="0.8">
<path opacity="0.8" d="M233.648 360.544C233.648 363.427 231.301 365.768 228.41 365.768C225.518 365.768 223.172 363.433 223.172 360.544C223.172 357.661 225.512 355.326 228.41 355.326C231.301 355.326 233.648 357.661 233.648 360.544Z" fill="white"/>
<path opacity="0.8" d="M233.66 360.544C233.673 361.916 233.116 363.286 232.138 364.262C231.178 365.249 229.804 365.836 228.411 365.849C227.017 365.866 225.624 365.298 224.633 364.316C223.631 363.341 223.048 361.952 223.041 360.551C223.024 359.15 223.593 357.747 224.59 356.747C225.587 355.746 226.992 355.166 228.404 355.173C229.822 355.178 231.209 355.785 232.169 356.796C233.135 357.797 233.68 359.174 233.66 360.544ZM233.63 360.544C233.624 359.18 233.036 357.834 232.051 356.913C231.073 355.987 229.741 355.463 228.411 355.488C227.079 355.481 225.76 356.024 224.819 356.969C223.865 357.895 223.309 359.216 223.302 360.551C223.29 361.884 223.829 363.217 224.782 364.169C225.723 365.125 227.06 365.688 228.411 365.688C229.76 365.712 231.116 365.169 232.089 364.212C233.06 363.261 233.63 361.909 233.63 360.544Z" fill="#212121"/>
</g>
<g opacity="0.8">
<path opacity="0.8" d="M95.6368 303.531C95.6368 306.421 93.2901 308.755 90.3985 308.755C87.5069 308.755 85.1602 306.416 85.1602 303.531C85.1602 300.648 87.5069 298.314 90.3985 298.314C93.2964 298.314 95.6368 300.648 95.6368 303.531Z" fill="white"/>
<path opacity="0.8" d="M95.6566 303.531C95.6689 304.901 95.1116 306.273 94.1333 307.248C93.1736 308.235 91.799 308.829 90.4059 308.834C89.0127 308.853 87.6196 308.285 86.6289 307.304C85.6258 306.327 85.0437 304.938 85.0375 303.537C85.019 302.135 85.5886 300.734 86.5855 299.733C87.5824 298.734 88.9879 298.147 90.3997 298.153C91.8176 298.159 93.2046 298.763 94.1643 299.777C95.1303 300.783 95.6752 302.16 95.6566 303.531ZM95.6256 303.531C95.6194 302.167 95.0311 300.82 94.0467 299.901C93.0684 298.968 91.7371 298.449 90.4059 298.473C89.0747 298.468 87.7558 299.011 86.8146 299.956C85.861 300.882 85.3038 302.197 85.2976 303.537C85.2852 304.877 85.8302 306.205 86.7775 307.155C87.7186 308.113 89.056 308.674 90.4059 308.674C91.7556 308.698 93.1117 308.155 94.0838 307.199C95.0559 306.247 95.6256 304.896 95.6256 303.531Z" fill="#212121"/>
</g>
<g opacity="0.8">
<path opacity="0.8" d="M69.4981 135.145C69.4981 138.027 67.1514 140.368 64.2598 140.368C61.3682 140.368 59.0215 138.034 59.0215 135.145C59.0215 132.261 61.3619 129.927 64.2598 129.927C67.1514 129.927 69.4981 132.261 69.4981 135.145Z" fill="white"/>
<path opacity="0.8" d="M69.51 135.144C69.5224 136.515 68.9651 137.886 67.9869 138.861C67.0271 139.848 65.6525 140.435 64.2594 140.448C62.8661 140.46 61.473 139.899 60.4823 138.917C59.4792 137.94 58.8972 136.551 58.8911 135.15C58.8724 133.749 59.4421 132.347 60.4389 131.347C61.4359 130.347 62.8414 129.766 64.2531 129.766C65.6711 129.772 67.0581 130.377 68.0178 131.396C68.9837 132.396 69.5286 133.773 69.51 135.144ZM69.479 135.144C69.4729 133.779 68.8846 132.433 67.9002 131.513C66.9218 130.587 65.5906 130.062 64.2594 130.087C62.9281 130.081 61.6093 130.624 60.6681 131.569C59.7145 132.495 59.1572 133.817 59.1511 135.15C59.1387 136.483 59.6774 137.818 60.6309 138.768C61.572 139.726 62.9095 140.287 64.2594 140.287C65.6092 140.306 66.9652 139.768 67.9373 138.812C68.9095 137.86 69.479 136.509 69.479 135.144Z" fill="#212121"/>
</g>
<path d="M418.292 166.505C406.721 47.689 298.214 12.9426 245.406 10.4214C87.6721 -18.4575 13.9711 15.9222 2.95038 198.134C-8.0703 380.347 75.2737 417.476 249.538 412.664C423.803 407.851 432.757 315.025 418.292 166.505Z" stroke="#773BD9" stroke-width="1.2"/>
<path d="M345.971 337.03C343.215 340.33 341.608 329.466 339.772 331.528C334.262 337.716 341.839 343.218 345.282 348.031C348.727 352.844 352.17 346.656 350.792 340.467C349.416 334.279 353.548 335.655 356.304 339.092C359.058 342.531 364.568 339.78 363.192 336.342C361.814 332.904 358.369 330.154 361.125 328.091C363.879 326.028 367.324 335.655 370.767 330.154C374.212 324.652 367.324 322.59 366.635 317.776C365.946 312.964 377.655 321.903 376.279 317.089C374.901 312.276 369.391 310.9 372.145 307.463C374.901 304.024 384.543 313.651 385.921 309.526C387.299 305.4 382.478 307.463 379.033 303.337C375.59 299.212 385.921 299.212 384.543 293.711C383.167 288.211 381.789 296.461 377.655 295.087C373.523 293.711 379.722 289.586 374.901 286.835C370.08 284.084 368.013 291.648 371.456 295.774C374.901 299.899 373.523 306.088 370.767 302.65C368.013 299.212 361.814 302.65 365.257 305.4C368.702 308.151 369.391 313.651 364.568 311.588C359.747 309.526 359.058 312.964 362.503 318.464C365.946 323.966 359.747 324.652 358.369 322.59C356.991 320.527 355.614 319.152 353.548 321.215C351.481 323.278 359.747 328.091 354.926 330.84C350.103 333.591 351.481 326.028 347.349 326.715C343.215 327.403 349.414 332.904 345.971 337.03Z" stroke="#773BD9" stroke-width="1.2"/>
<path d="M59.9705 322.439C57.0382 320.301 66.1153 318.366 64.2763 316.932C58.7599 312.634 54.5282 319.299 50.654 322.453C46.7796 325.607 52.1847 328.168 57.3303 326.677C62.4758 325.186 61.5385 328.734 58.787 331.235C56.0355 333.736 58.6522 338.22 61.4778 336.876C64.3035 335.533 66.4379 332.491 68.3262 334.696C70.2145 336.901 62.2804 340.313 67.1056 342.912C71.9308 345.51 73.2998 339.609 77.3225 338.772C81.3452 337.933 74.4361 348.257 78.4218 346.839C82.4075 345.423 83.2705 340.716 86.3188 342.848C89.367 344.979 81.7667 353.602 85.3208 354.538C88.8747 355.473 86.8752 351.532 90.1695 348.415C93.4639 345.298 94.0202 353.982 98.5859 352.528C103.151 351.075 96.1176 350.361 97.0549 346.812C97.9923 343.264 101.806 348.253 103.866 344.053C105.926 339.852 99.4354 338.522 96.1411 341.64C92.8467 344.756 87.5529 343.932 90.3044 341.43C93.0557 338.93 89.8221 333.904 87.6877 336.947C85.5534 339.991 80.9506 340.865 82.4308 336.702C83.9111 332.537 80.9741 332.144 76.5198 335.334C72.0656 338.525 71.1519 333.352 72.8176 332.082C74.4833 330.814 75.5691 329.582 73.7178 327.956C71.8666 326.33 68.2519 333.537 65.6725 329.632C63.0929 325.728 69.5467 326.478 68.7442 323.042C67.9417 319.605 63.6358 325.112 59.9705 322.439Z" stroke="#773BD9" stroke-width="1.2"/>
<path d="M210.277 104.493C216.672 104.493 221.857 99.3178 221.857 92.9336C221.857 86.5494 216.672 81.374 210.277 81.374C203.882 81.374 198.697 86.5494 198.697 92.9336C198.697 99.3178 203.882 104.493 210.277 104.493Z" stroke="#773BD9" stroke-width="1.2"/>
<path d="M290.175 369.903C296.571 369.903 301.755 364.727 301.755 358.343C301.755 351.959 296.571 346.784 290.175 346.784C283.78 346.784 278.596 351.959 278.596 358.343C278.596 364.727 283.78 369.903 290.175 369.903Z" stroke="#773BD9" stroke-width="1.2"/>
<path d="M188.234 89.3653C194.629 89.3653 199.814 84.1899 199.814 77.8057C199.814 71.4215 194.629 66.2461 188.234 66.2461C181.839 66.2461 176.654 71.4215 176.654 77.8057C176.654 84.1899 181.839 89.3653 188.234 89.3653Z" stroke="#773BD9" stroke-width="1.2"/>
<path d="M229.562 76.9888C235.957 76.9888 241.142 71.8134 241.142 65.4292C241.142 59.045 235.957 53.8696 229.562 53.8696C223.167 53.8696 217.982 59.045 217.982 65.4292C217.982 71.8134 223.167 76.9888 229.562 76.9888Z" stroke="#773BD9" stroke-width="1.2"/>
<path d="M202.011 65.9873C208.407 65.9873 213.591 60.8119 213.591 54.4278C213.591 48.0436 208.407 42.8682 202.011 42.8682C195.616 42.8682 190.432 48.0436 190.432 54.4278C190.432 60.8119 195.616 65.9873 202.011 65.9873Z" stroke="#773BD9" stroke-width="1.2"/>
<path d="M228.185 45.3602C232.298 45.3602 235.632 42.0319 235.632 37.9262C235.632 33.8205 232.298 30.4922 228.185 30.4922C224.072 30.4922 220.738 33.8205 220.738 37.9262C220.738 42.0319 224.072 45.3602 228.185 45.3602Z" stroke="#773BD9" stroke-width="1.2"/>
<path d="M239.207 103.118C243.32 103.118 246.654 99.7892 246.654 95.6835C246.654 91.5778 243.32 88.2495 239.207 88.2495C235.094 88.2495 231.76 91.5778 231.76 95.6835C231.76 99.7892 235.094 103.118 239.207 103.118Z" stroke="#773BD9" stroke-width="1.2"/>
<path d="M171.707 114.12C175.82 114.12 179.154 110.791 179.154 106.685C179.154 102.58 175.82 99.2515 171.707 99.2515C167.594 99.2515 164.26 102.58 164.26 106.685C164.26 110.791 167.594 114.12 171.707 114.12Z" stroke="#773BD9" stroke-width="1.2"/>
<path d="M309.465 97.6171C313.577 97.6171 316.912 94.2887 316.912 90.183C316.912 86.0773 313.577 82.749 309.465 82.749C305.352 82.749 302.018 86.0773 302.018 90.183C302.018 94.2887 305.352 97.6171 309.465 97.6171Z" stroke="#773BD9" stroke-width="1.2"/>
<path d="M276.4 138.873C280.513 138.873 283.847 135.545 283.847 131.439C283.847 127.333 280.513 124.005 276.4 124.005C272.287 124.005 268.953 127.333 268.953 131.439C268.953 135.545 272.287 138.873 276.4 138.873Z" stroke="#773BD9" stroke-width="1.2"/>
<path d="M386.607 149.874C390.72 149.874 394.054 146.546 394.054 142.44C394.054 138.334 390.72 135.006 386.607 135.006C382.494 135.006 379.16 138.334 379.16 142.44C379.16 146.546 382.494 149.874 386.607 149.874Z" stroke="#773BD9" stroke-width="1.2"/>
<path d="M64.2536 142.998C68.3665 142.998 71.7006 139.67 71.7006 135.564C71.7006 131.458 68.3665 128.13 64.2536 128.13C60.1408 128.13 56.8066 131.458 56.8066 135.564C56.8066 139.67 60.1408 142.998 64.2536 142.998Z" stroke="#773BD9" stroke-width="1.2"/>
<path d="M89.0485 310.771C93.1614 310.771 96.4955 307.442 96.4955 303.336C96.4955 299.231 93.1614 295.902 89.0485 295.902C84.9357 295.902 81.6016 299.231 81.6016 303.336C81.6016 307.442 84.9357 310.771 89.0485 310.771Z" stroke="#773BD9" stroke-width="1.2"/>
<path d="M228.185 367.154C232.298 367.154 235.632 363.825 235.632 359.72C235.632 355.614 232.298 352.286 228.185 352.286C224.072 352.286 220.738 355.614 220.738 359.72C220.738 363.825 224.072 367.154 228.185 367.154Z" stroke="#773BD9" stroke-width="1.2"/>
<path d="M171.707 49.4862C175.82 49.4862 179.154 46.1579 179.154 42.0522C179.154 37.9465 175.82 34.6182 171.707 34.6182C167.594 34.6182 164.26 37.9465 164.26 42.0522C164.26 46.1579 167.594 49.4862 171.707 49.4862Z" stroke="#773BD9" stroke-width="1.2"/>
<path d="M344.59 320.526C351.202 316.675 356.07 305.17 357.677 299.898C366.494 270.744 380.178 274.458 385.917 279.958C404.652 300.861 382.703 328.547 369.386 339.779C361.121 348.03 342.799 361.369 335.635 348.718C326.682 332.903 336.324 325.339 344.59 320.526Z" stroke="#773BD9" stroke-width="1.2"/>
<path d="M73.8149 320.392C77.4189 325.743 87.3857 329.216 91.9188 330.282C116.984 336.123 114.589 347.825 110.259 352.946C93.6366 369.819 69.1011 352.86 58.9111 342.272C51.5064 335.769 39.2683 321.087 49.554 314.385C62.411 306.006 69.31 313.704 73.8149 320.392Z" stroke="#773BD9" stroke-width="1.2"/>
<path d="M53.0226 209.059L37.7068 266.12C36.9268 269.025 38.6544 272.013 41.5654 272.792L50.4973 275.18C53.4083 275.959 56.4006 274.234 57.1805 271.328L72.4964 214.268" stroke="#773BD9" stroke-width="1.2"/>
<path d="M72.8505 214.364C72.8212 214.473 72.6837 214.7 72.1243 214.922C71.5821 215.139 70.7874 215.287 69.7666 215.332C67.735 215.422 64.997 215.094 62.0499 214.305C59.1026 213.517 56.5674 212.434 54.8528 211.343C53.9912 210.795 53.3774 210.269 53.0159 209.811C52.6431 209.34 52.6377 209.075 52.6671 208.966C52.6964 208.855 52.8339 208.629 53.3932 208.406C53.9355 208.191 54.7302 208.042 55.751 207.997C57.7826 207.908 60.5206 208.234 63.4677 209.023C66.415 209.811 68.9502 210.894 70.6648 211.986C71.5264 212.535 72.1402 213.059 72.5017 213.517C72.8745 213.99 72.8798 214.255 72.8505 214.364Z" stroke="#773BD9" stroke-width="1.2"/>
<path d="M73.8626 209.059L58.5466 266.12C57.7667 269.025 59.4942 272.013 62.4053 272.792L71.3371 275.181C74.2482 275.96 77.2404 274.234 78.0204 271.328L93.3362 214.268" stroke="#773BD9" stroke-width="1.2"/>
<path d="M93.6904 214.364C93.661 214.472 93.5235 214.7 92.9641 214.922C92.4218 215.138 91.6273 215.287 90.6064 215.332C88.5748 215.422 85.8368 215.093 82.8897 214.305C79.9425 213.516 77.4072 212.434 75.6927 211.343C74.831 210.794 74.2173 210.268 73.8557 209.811C73.4829 209.34 73.4776 209.074 73.5069 208.965C73.5362 208.855 73.6738 208.629 74.2331 208.405C74.7754 208.19 75.57 208.042 76.5909 207.997C78.6224 207.907 81.3604 208.234 84.3076 209.022C87.2548 209.811 89.7899 210.894 91.5046 211.986C92.3661 212.535 92.98 213.059 93.3414 213.516C93.7144 213.989 93.7197 214.255 93.6904 214.364Z" stroke="#773BD9" stroke-width="1.2"/>
<path d="M55.9532 198.435L37.7517 266.246C36.9718 269.152 38.6993 272.139 41.6103 272.918L50.5422 275.306C53.4532 276.085 56.4454 274.36 57.2255 271.455L75.4269 203.644" stroke="#773BD9" stroke-width="1.2"/>
<path d="M75.7802 203.739C75.7509 203.847 75.6134 204.075 75.0539 204.297C74.5116 204.513 73.7171 204.662 72.6963 204.707C70.6647 204.795 67.9267 204.468 64.9794 203.68C62.0323 202.891 59.497 201.809 57.7825 200.718C56.9209 200.169 56.3071 199.643 55.9456 199.186C55.5727 198.713 55.5674 198.449 55.5967 198.339C55.6261 198.23 55.7636 198.002 56.3229 197.78C56.8652 197.564 57.6599 197.415 58.6807 197.371C60.7123 197.282 63.4503 197.609 66.3974 198.397C69.3446 199.186 71.8798 200.269 73.5945 201.361C74.456 201.908 75.0699 202.434 75.4312 202.891C75.8042 203.364 75.8095 203.628 75.7802 203.739Z" stroke="#773BD9" stroke-width="1.2"/>
<path d="M35.2883 197.059L19.9725 254.119C19.1924 257.025 20.92 260.013 23.831 260.791L32.763 263.181C35.6739 263.958 38.6662 262.234 39.4461 259.328L54.762 202.268" stroke="#773BD9" stroke-width="1.2"/>
<path d="M55.1161 202.363C55.0868 202.472 54.9494 202.699 54.39 202.921C53.8477 203.138 53.053 203.286 52.0323 203.331C50.0006 203.42 47.2628 203.093 44.3155 202.304C41.3682 201.516 38.8331 200.433 37.1184 199.341C36.2569 198.794 35.6432 198.268 35.2817 197.81C34.9087 197.338 34.9034 197.074 34.9327 196.963C34.9622 196.854 35.0995 196.627 35.659 196.405C36.2013 196.188 36.9958 196.04 38.0166 195.995C40.0482 195.907 42.7862 196.233 45.7335 197.022C48.6806 197.81 51.2158 198.893 52.9305 199.985C53.792 200.533 54.4058 201.058 54.7673 201.516C55.1402 201.989 55.1456 202.253 55.1161 202.363Z" stroke="#773BD9" stroke-width="1.2"/>
</g>
<defs>
<linearGradient id="paint0_linear_177_4754" x1="102.826" y1="123.187" x2="313.191" y2="334.143" gradientUnits="userSpaceOnUse">
<stop stop-color="#8922D3"/>
<stop offset="1" stop-color="#D2324B"/>
</linearGradient>
<clipPath id="clip0_177_4754">
<rect width="427" height="414" fill="white"/>
</clipPath>
</defs>
</svg>
