<svg width="62" height="62" viewBox="0 0 62 62" fill="none" xmlns="http://www.w3.org/2000/svg">
<circle cx="31" cy="31" r="31" fill="#F5F5FD"/>
<path d="M43.1791 19.9754C37.0234 19.9754 31.7423 15.8528 31.687 15.8087C31.4915 15.6549 31.2497 15.5713 31.0006 15.5713C30.7514 15.5713 30.5096 15.6549 30.3141 15.8087C30.2588 15.8528 24.9998 19.9754 18.822 19.9754C18.5284 19.9754 18.2467 20.0916 18.0391 20.2983C17.8315 20.505 17.7148 20.7854 17.7148 21.0777V30.9985C17.7148 38.3949 20.7152 42.0215 30.5466 46.3315C30.6894 46.3954 30.8441 46.4284 31.0006 46.4284C31.157 46.4284 31.3118 46.3954 31.4545 46.3315C41.2859 42.0215 44.2863 38.3949 44.2863 30.9985V21.0777C44.2863 20.7854 44.1696 20.505 43.962 20.2983C43.7544 20.0916 43.4728 19.9754 43.1791 19.9754ZM31.0006 39.8169C29.2488 39.8169 27.5363 39.2997 26.0798 38.3307C24.6232 37.3617 23.488 35.9845 22.8176 34.3731C22.1472 32.7618 21.9718 30.9887 22.3136 29.2781C22.6554 27.5675 23.4989 25.9962 24.7376 24.7629C25.9763 23.5296 27.5545 22.6897 29.2726 22.3495C30.9907 22.0092 32.7716 22.1839 34.39 22.8513C36.0085 23.5188 37.3918 24.649 38.365 26.0992C39.3382 27.5494 39.8577 29.2544 39.8577 30.9985C39.8577 33.3373 38.9245 35.5803 37.2635 37.234C35.6025 38.8878 33.3496 39.8169 31.0006 39.8169Z" fill="#773BD9"/>
<path d="M33.5368 28.0117L29.8943 31.6493L28.4661 30.2163C28.3629 30.1135 28.2403 30.032 28.1055 29.9764C27.9706 29.9207 27.826 29.8921 27.68 29.8921C27.534 29.8921 27.3895 29.9207 27.2546 29.9764C27.1197 30.032 26.9972 30.1135 26.894 30.2163C26.7907 30.3191 26.7088 30.4411 26.653 30.5754C26.5971 30.7096 26.5684 30.8536 26.5684 30.9989C26.5684 31.1443 26.5971 31.2882 26.653 31.4225C26.7088 31.5568 26.7907 31.6788 26.894 31.7816L29.1082 33.9862C29.2112 34.0895 29.3336 34.1715 29.4685 34.2275C29.6035 34.2834 29.7482 34.3122 29.8943 34.3122C30.0405 34.3122 30.1852 34.2834 30.3201 34.2275C30.455 34.1715 30.5775 34.0895 30.6804 33.9862L35.109 29.5769C35.2122 29.4742 35.2941 29.3522 35.3499 29.2179C35.4058 29.0836 35.4346 28.9397 35.4346 28.7943C35.4346 28.649 35.4058 28.505 35.3499 28.3708C35.2941 28.2365 35.2122 28.1145 35.109 28.0117C35.0057 27.9089 34.8832 27.8274 34.7483 27.7718C34.6134 27.7161 34.4689 27.6875 34.3229 27.6875C34.1769 27.6875 34.0323 27.7161 33.8975 27.7718C33.7626 27.8274 33.64 27.9089 33.5368 28.0117Z" fill="#773BD9"/>
</svg>
