<svg width="62" height="62" viewBox="0 0 62 62" fill="none" xmlns="http://www.w3.org/2000/svg">
<circle cx="31" cy="31" r="31" fill="#F5F5FD"/>
<path d="M21.8456 41.9796C20.5119 41.9796 19.4269 40.8947 19.4269 39.561C19.4269 38.2272 20.5119 37.1423 21.8456 37.1423H31.102C33.5025 37.1423 35.4554 35.1894 35.4554 32.7889C35.4554 30.3885 33.5025 28.4355 31.102 28.4355H24.574V30.3702H31.102C32.4357 30.3702 33.5207 31.4552 33.5207 32.789C33.5207 34.1227 32.4357 35.2076 31.102 35.2076H21.8456C19.4451 35.2076 17.4922 37.1605 17.4922 39.561C17.4922 41.9614 19.4451 43.9143 21.8456 43.9143H37.5754V41.9796H21.8456Z" fill="#773BD9"/>
<path d="M23.5266 19.234C21.4763 17.1837 18.1523 17.1837 16.1021 19.234C14.0519 21.2842 14.0519 24.6082 16.1021 26.6584L19.8144 30.3706L23.5266 26.6584C25.5768 24.6081 25.5768 21.2842 23.5266 19.234ZM19.7833 24.5347C18.8824 24.5347 18.1522 23.8044 18.1522 22.9036C18.1522 22.0028 18.8824 21.2724 19.7833 21.2724C20.6841 21.2724 21.4145 22.0027 21.4145 22.9036C21.4145 23.8044 20.6842 24.5347 19.7833 24.5347Z" fill="#773BD9"/>
<path d="M46.0442 32.7779C43.9939 30.7277 40.6699 30.7277 38.6197 32.7779C36.5695 34.8282 36.5695 38.1521 38.6197 40.2023L42.332 43.9146L46.0443 40.2023C48.0944 38.1521 48.0944 34.8282 46.0442 32.7779ZM42.3009 38.0787C41.4 38.0787 40.6698 37.3484 40.6698 36.4476C40.6698 35.5468 41.4 34.8164 42.3009 34.8164C43.2018 34.8164 43.9321 35.5467 43.9321 36.4476C43.9321 37.3484 43.2018 38.0787 42.3009 38.0787Z" fill="#773BD9"/>
</svg>
