<svg width="62" height="62" viewBox="0 0 62 62" fill="none" xmlns="http://www.w3.org/2000/svg">
<circle cx="31" cy="31" r="31" fill="#F5F5FD"/>
<path d="M38.4111 31.7888L37.7928 21.2061H32.8023V25.9581H30.6931V21.2061H22.5692V25.9581H20.4599V21.2061H15.4694L14.3609 40.1807C14.2747 41.6581 14.7864 43.0646 15.8019 44.1411C16.8173 45.2177 18.1916 45.8105 19.6715 45.8105H31.3717C30.689 44.4812 30.3035 42.9753 30.3035 41.381C30.3035 36.569 33.8157 32.5626 38.4111 31.7888Z" fill="#773BD9"/>
<path d="M22.5683 19.1711C22.5683 16.9314 24.3904 15.1093 26.6301 15.1093C28.8698 15.1093 30.692 16.9314 30.692 19.1711V21.2065H32.8013V19.1711C32.8013 15.7684 30.033 13 26.6301 13C23.2273 13 20.459 15.7684 20.459 19.1711V21.2065H22.5683V19.1711Z" fill="#773BD9"/>
<path d="M47.6492 41.3812C47.6492 37.1804 44.2315 33.7627 40.0306 33.7627C35.8298 33.7627 32.4121 37.1804 32.4121 41.3812C32.4121 45.5821 35.8298 48.9997 40.0306 48.9997C44.2315 48.9997 47.6492 45.5821 47.6492 41.3812ZM38.89 45.1125L35.4642 41.2379L37.0444 39.8407L38.9581 42.0051L42.9213 37.8999L44.4388 39.3649L38.89 45.1125Z" fill="#773BD9"/>
</svg>
