<svg width="62" height="62" viewBox="0 0 62 62" fill="none" xmlns="http://www.w3.org/2000/svg">
<circle cx="31" cy="31" r="31" fill="#F5F5FD"/>
<g clip-path="url(#clip0_177_4560)">
<mask id="mask0_177_4560" style="mask-type:luminance" maskUnits="userSpaceOnUse" x="13" y="13" width="36" height="36">
<path d="M49 13H13V49H49V13Z" fill="white"/>
</mask>
<g mask="url(#mask0_177_4560)">
<path d="M48.6896 40.8096L44.8248 36.9443C44.4263 37.7831 43.664 38.4276 42.6969 38.6574L42.1704 38.7824L42.0453 39.3093C41.8316 40.2093 40.8266 41.9039 38.7111 41.732L38.171 41.6881L37.8894 42.1504C37.4152 42.9285 36.6192 43.4603 35.7344 43.6181L40.808 48.6912C41.0664 48.9497 41.4404 49.0559 41.7961 48.9718C42.1519 48.8879 42.4388 48.6257 42.5544 48.2789L43.985 43.9865L48.2774 42.5559C48.6243 42.4403 48.8864 42.1534 48.9703 41.7976C49.0544 41.4419 48.9481 41.0679 48.6896 40.8096Z" fill="#773BD9"/>
<path d="M24.1092 42.1503L23.8275 41.688L23.2874 41.7319C21.172 41.9039 20.1669 40.2092 19.9533 39.3093L19.8282 38.7823L19.3017 38.6573C18.3345 38.4275 17.5723 37.783 17.1737 36.9443L13.3089 40.8094C13.0505 41.0679 12.9442 41.4418 13.0283 41.7975C13.1122 42.1533 13.3745 42.4402 13.7212 42.5558L18.0136 43.9864L19.4443 48.2788C19.5599 48.6257 19.8467 48.8878 20.2025 48.9718C20.5583 49.0558 20.9322 48.9496 21.1906 48.6911L26.2643 43.618C25.3793 43.4602 24.5834 42.9285 24.1092 42.1503Z" fill="#773BD9"/>
<path d="M36.0908 41.0526L37.049 39.4804L38.8842 39.6295C39.4022 39.6714 39.8755 39.3287 39.9957 38.8219L40.4211 37.0305L42.212 36.6051C42.7186 36.4848 43.0617 36.0126 43.0195 35.4935L42.8705 33.6588L44.4425 32.7007C44.8872 32.4297 45.0676 31.8749 44.8671 31.3942L44.1587 29.695L45.3577 28.2981C45.6968 27.9029 45.6968 27.3195 45.3578 26.9243L44.1587 25.5268L44.8671 23.8275C45.0676 23.3469 44.8872 22.792 44.4425 22.5209L42.8705 21.5629L43.0195 19.7282C43.0616 19.2091 42.7186 18.737 42.212 18.6166L40.4211 18.1913L39.9957 16.3998C39.8754 15.893 39.4022 15.5502 38.8842 15.5922L37.049 15.7413L36.0908 14.1691C35.8199 13.7243 35.2646 13.5442 34.7842 13.7446L33.0851 14.4535L31.6882 13.2543C31.2931 12.9152 30.7095 12.9152 30.3144 13.2543L28.9175 14.4533L27.2185 13.7444C26.7378 13.544 26.1829 13.7242 25.9118 14.169L24.9537 15.7412L23.1185 15.5921C22.5994 15.5505 22.1273 15.8929 22.007 16.3996L21.5816 18.1911L19.7906 18.6166C19.284 18.737 18.941 19.2091 18.9832 19.7282L19.1322 21.5629L17.5601 22.5209C17.1155 22.792 16.9351 23.3469 17.1355 23.8275L17.844 25.5268L16.6449 26.9243C16.3058 27.3195 16.3059 27.9029 16.645 28.2981L17.844 29.695L17.1356 31.3942C16.9353 31.8749 17.1156 32.4297 17.5603 32.7007L19.1324 33.6588L18.9833 35.4935C18.9412 36.0126 19.2842 36.4848 19.7908 36.6051L21.5817 37.0305L22.0072 38.8219C22.1276 39.3287 22.5996 39.6711 23.1186 39.6295L24.9538 39.4804L25.912 41.0526C26.1829 41.4973 26.7379 41.6776 27.2187 41.4771L28.9177 40.7682L30.3145 41.9672C30.7097 42.3063 31.2932 42.3063 31.6884 41.9672L33.0852 40.7682L34.7842 41.4771C35.2646 41.6775 35.8199 41.4973 36.0908 41.0526ZM30.6174 35.1349C30.2057 35.5467 29.5378 35.5469 29.1259 35.1349L22.9126 28.9215C22.5007 28.5097 22.5007 27.8419 22.9126 27.43L26.1079 24.2347C26.5197 23.8228 27.1875 23.8228 27.5995 24.2347L29.8716 26.5068L34.968 21.4104C35.3798 20.9986 36.0477 20.9986 36.4595 21.4104L39.6548 24.6057C40.0667 25.0176 40.0667 25.6853 39.6548 26.0973L30.6174 35.1349Z" fill="#773BD9"/>
<path d="M30.614 28.7449C30.2022 29.1567 29.5344 29.1567 29.1225 28.7449L26.8502 26.4727L25.1465 28.1765L29.8683 32.8982L37.4142 25.3522L35.7105 23.6484L30.614 28.7449Z" fill="#773BD9"/>
</g>
</g>
<defs>
<clipPath id="clip0_177_4560">
<rect width="36" height="36" fill="white" transform="translate(13 13)"/>
</clipPath>
</defs>
</svg>
