<svg width="24" height="19" viewBox="0 0 24 19" fill="none" xmlns="http://www.w3.org/2000/svg">
<path d="M13.0351 19L19.246 4.88353L19.7061 8.31727C18.6326 8.31727 17.7125 7.93574 16.9457 7.17269C16.1789 6.40964 15.7955 5.46854 15.7955 4.3494C15.7955 3.07764 16.23 2.0348 17.099 1.22088C17.9169 0.406961 18.9137 -4.44655e-07 20.0895 -3.41871e-07C21.1629 -2.48024e-07 22.0831 0.381527 22.8498 1.14458C23.6166 1.90763 24 2.82329 24 3.89157C24 4.60375 23.8978 5.23962 23.6933 5.7992C23.4377 6.40964 23.0799 7.12182 22.6198 7.93574L16.7157 19L13.0351 19ZM1.90735e-06 19L6.21086 4.88353L6.67093 8.31727C5.59745 8.31727 4.67732 7.93574 3.91054 7.17269C3.14377 6.40964 2.76039 5.46854 2.76039 4.34939C2.76039 3.07764 3.19489 2.0348 4.0639 1.22088C4.88179 0.40696 5.8786 -1.58422e-06 7.05432 -1.48144e-06C8.1278 -1.38759e-06 9.04793 0.381526 9.8147 1.14458C10.5815 1.90763 10.9649 2.82329 10.9649 3.89157C10.9649 4.60375 10.8626 5.23962 10.6581 5.79919C10.4026 6.40964 10.0447 7.12182 9.58467 7.93574L3.68051 19L1.90735e-06 19Z" fill="#BBBBBB"/>
</svg>
