<svg width="84" height="16" viewBox="0 0 84 16" fill="none" xmlns="http://www.w3.org/2000/svg">
<path d="M13.6817 6.28944L9.99226 5.72607L8.33859 2.19753C8.21506 1.93416 7.78353 1.93416 7.66001 2.19753L6.00727 5.7249L2.31787 6.28826C2.24973 6.29879 2.18581 6.32791 2.13313 6.37244C2.08045 6.41698 2.04105 6.47519 2.01925 6.54068C1.99745 6.60618 1.99409 6.67642 2.00956 6.7437C2.02502 6.81098 2.05871 6.87269 2.10691 6.92205L4.7863 9.67409L4.15272 13.5632C4.14139 13.6327 4.14984 13.7041 4.17709 13.7691C4.20435 13.8341 4.24931 13.8901 4.30685 13.9307C4.36438 13.9713 4.43216 13.9948 4.50244 13.9987C4.57272 14.0025 4.64266 13.9865 4.70426 13.9524L7.99965 12.1287L11.295 13.9531C11.3567 13.9872 11.4267 14.0033 11.4971 13.9994C11.5674 13.9956 11.6353 13.9719 11.6928 13.9313C11.7504 13.8906 11.7954 13.8344 11.8225 13.7694C11.8497 13.7043 11.8581 13.6328 11.8466 13.5632L11.2137 9.67385L13.8931 6.92322C13.9413 6.87386 13.975 6.81215 13.9904 6.74488C14.0059 6.6776 14.0026 6.60735 13.9808 6.54186C13.959 6.47636 13.9195 6.41815 13.8669 6.37362C13.8142 6.32909 13.7498 6.29996 13.6817 6.28944Z" fill="#FFC107"/>
<path d="M31.6817 6.28944L27.9923 5.72607L26.3386 2.19753C26.2151 1.93416 25.7835 1.93416 25.66 2.19753L24.0073 5.7249L20.3179 6.28826C20.2497 6.29879 20.1858 6.32791 20.1331 6.37244C20.0805 6.41698 20.041 6.47519 20.0192 6.54068C19.9974 6.60618 19.9941 6.67642 20.0096 6.7437C20.025 6.81098 20.0587 6.87269 20.1069 6.92205L22.7863 9.67409L22.1527 13.5632C22.1414 13.6327 22.1498 13.7041 22.1771 13.7691C22.2043 13.8341 22.2493 13.8901 22.3068 13.9307C22.3644 13.9713 22.4322 13.9948 22.5024 13.9987C22.5727 14.0025 22.6427 13.9865 22.7043 13.9524L25.9996 12.1287L29.295 13.9531C29.3567 13.9872 29.4267 14.0033 29.4971 13.9994C29.5674 13.9956 29.6353 13.9719 29.6928 13.9313C29.7504 13.8906 29.7954 13.8344 29.8225 13.7694C29.8497 13.7043 29.8581 13.6328 29.8466 13.5632L29.2137 9.67385L31.8931 6.92322C31.9413 6.87386 31.975 6.81215 31.9904 6.74488C32.0059 6.6776 32.0026 6.60735 31.9808 6.54186C31.959 6.47636 31.9195 6.41815 31.8669 6.37362C31.8142 6.32909 31.7498 6.29996 31.6817 6.28944Z" fill="#FFC107"/>
<path d="M49.6817 6.28944L45.9923 5.72607L44.3386 2.19753C44.2151 1.93416 43.7835 1.93416 43.66 2.19753L42.0073 5.7249L38.3179 6.28826C38.2497 6.29879 38.1858 6.32791 38.1331 6.37244C38.0805 6.41698 38.041 6.47519 38.0192 6.54068C37.9974 6.60618 37.9941 6.67642 38.0096 6.7437C38.025 6.81098 38.0587 6.87269 38.1069 6.92205L40.7863 9.67409L40.1527 13.5632C40.1414 13.6327 40.1498 13.7041 40.1771 13.7691C40.2043 13.8341 40.2493 13.8901 40.3068 13.9307C40.3644 13.9713 40.4322 13.9948 40.5024 13.9987C40.5727 14.0025 40.6427 13.9865 40.7043 13.9524L43.9996 12.1287L47.295 13.9531C47.3567 13.9872 47.4267 14.0033 47.4971 13.9994C47.5674 13.9956 47.6353 13.9719 47.6928 13.9313C47.7504 13.8906 47.7954 13.8344 47.8225 13.7694C47.8497 13.7043 47.8581 13.6328 47.8466 13.5632L47.2137 9.67385L49.8931 6.92322C49.9413 6.87386 49.975 6.81215 49.9904 6.74488C50.0059 6.6776 50.0026 6.60735 49.9808 6.54186C49.959 6.47636 49.9195 6.41815 49.8669 6.37362C49.8142 6.32909 49.7498 6.29996 49.6817 6.28944Z" fill="#FFC107"/>
<path d="M67.6817 6.28944L63.9923 5.72607L62.3386 2.19753C62.2151 1.93416 61.7835 1.93416 61.66 2.19753L60.0073 5.7249L56.3179 6.28826C56.2497 6.29879 56.1858 6.32791 56.1331 6.37244C56.0805 6.41698 56.041 6.47519 56.0192 6.54068C55.9974 6.60618 55.9941 6.67642 56.0096 6.7437C56.025 6.81098 56.0587 6.87269 56.1069 6.92205L58.7863 9.67409L58.1527 13.5632C58.1414 13.6327 58.1498 13.7041 58.1771 13.7691C58.2043 13.8341 58.2493 13.8901 58.3068 13.9307C58.3644 13.9713 58.4322 13.9948 58.5024 13.9987C58.5727 14.0025 58.6427 13.9865 58.7043 13.9524L61.9996 12.1287L65.295 13.9531C65.3567 13.9872 65.4267 14.0033 65.4971 13.9994C65.5674 13.9956 65.6353 13.9719 65.6928 13.9313C65.7504 13.8906 65.7954 13.8344 65.8225 13.7694C65.8497 13.7043 65.8581 13.6328 65.8466 13.5632L65.2137 9.67385L67.8931 6.92322C67.9413 6.87386 67.975 6.81215 67.9904 6.74488C68.0059 6.6776 68.0026 6.60735 67.9808 6.54186C67.959 6.47636 67.9195 6.41815 67.8669 6.37362C67.8142 6.32909 67.7498 6.29996 67.6817 6.28944Z" fill="#FFC107"/>
<mask id="mask0_81_810" style="mask-type:alpha" maskUnits="userSpaceOnUse" x="72" y="2" width="12" height="12">
<path d="M79.5395 5.93825L79.6528 6.18004L79.9168 6.22034L83.3666 6.74712L80.8555 9.32497L80.6797 9.50546L80.7202 9.75415L81.312 13.3909L78.2418 11.6913L77.9997 11.5572L77.7575 11.6912L74.6875 13.3902L75.2798 9.75448L75.3203 9.50581L75.1446 9.32529L72.6332 6.7459L76.0827 6.21917L76.3467 6.17886L76.46 5.93704L77.9993 2.65183L79.5395 5.93825ZM81.5372 13.5156L81.537 13.5155C81.5371 13.5156 81.5372 13.5156 81.5373 13.5157L81.5372 13.5156Z" fill="#D9D9D9" stroke="#FFC107"/>
</mask>
<g mask="url(#mask0_81_810)">
<rect x="72" y="2" width="6" height="12" fill="#FFC107"/>
</g>
<path d="M79.5395 5.93825L79.6528 6.18004L79.9168 6.22034L83.3666 6.74712L80.8555 9.32497L80.6797 9.50546L80.7202 9.75415L81.312 13.3909L78.2418 11.6913L77.9997 11.5572L77.7575 11.6912L74.6875 13.3902L75.2798 9.75448L75.3203 9.50581L75.1446 9.32529L72.6332 6.7459L76.0827 6.21917L76.3467 6.17886L76.46 5.93704L77.9993 2.65183L79.5395 5.93825ZM81.5372 13.5156L81.537 13.5155C81.5371 13.5156 81.5372 13.5156 81.5373 13.5157L81.5372 13.5156Z" stroke="#FFC107"/>
</svg>
