<svg width="23" height="24" viewBox="0 0 23 24" fill="none" xmlns="http://www.w3.org/2000/svg">
<ellipse cx="11.0983" cy="12" rx="11.0983" ry="12" fill="white"/>
<path d="M13.1917 11.983L16.3401 8.57872C16.7494 8.17021 16.7494 7.48936 16.3401 7.08085L15.6475 6.33191C15.2696 5.88936 14.64 5.88936 14.2621 6.33191L11.1137 9.73617L7.93377 6.33191C7.55596 5.88936 6.92627 5.88936 6.54846 6.33191L5.8558 7.08085C5.4465 7.48936 5.4465 8.17021 5.8558 8.57872L9.00425 11.983L5.8558 15.4213C5.4465 15.8298 5.4465 16.5106 5.8558 16.9191L6.54846 17.6681C6.92627 18.1106 7.55596 18.1106 7.93377 17.6681L11.1137 14.2638L14.2621 17.6681C14.64 18.1106 15.2696 18.1106 15.6475 17.6681L16.3401 16.9191C16.7494 16.5106 16.7494 15.8298 16.3401 15.4213L13.1917 11.983Z" fill="#D84432"/>
</svg>
