<svg width="60" height="60" viewBox="0 0 60 60" fill="none" xmlns="http://www.w3.org/2000/svg">
<mask id="mask0_177_4964" style="mask-type:alpha" maskUnits="userSpaceOnUse" x="0" y="0" width="60" height="60">
<rect width="60" height="60" fill="#C4C4C4"/>
</mask>
<g mask="url(#mask0_177_4964)">
<path d="M30 60C46.5685 60 60 46.5685 60 30C60 13.4315 46.5685 0 30 0C13.4315 0 0 13.4315 0 30C0 46.5685 13.4315 60 30 60Z" fill="url(#paint0_linear_177_4964)"/>
</g>
<g clip-path="url(#clip0_177_4964)">
<path d="M23.5512 36.3282C23.5512 36.9939 23.0116 37.5335 22.3458 37.5335H15.7766C15.1109 37.5335 14.5713 36.9939 14.5713 36.3282C14.5713 35.6624 15.1109 35.1228 15.7766 35.1228H22.3458C23.0116 35.1228 23.5512 35.6624 23.5512 36.3282ZM15.7766 32.7121H24.1539C24.8196 32.7121 25.3592 32.1725 25.3592 31.5067C25.3592 30.841 24.8196 30.3014 24.1539 30.3014H15.7766C15.1109 30.3014 14.5713 30.841 14.5713 31.5067C14.5713 32.1725 15.1109 32.7121 15.7766 32.7121ZM20.5378 39.9442H15.7766C15.1109 39.9442 14.5713 40.4838 14.5713 41.1496C14.5713 41.8154 15.1109 42.355 15.7766 42.355H20.5378C21.2036 42.355 21.7432 41.8154 21.7432 41.1496C21.7432 40.4838 21.2036 39.9442 20.5378 39.9442ZM41.4479 22.2283C41.2812 22.0616 41.111 21.9004 40.9375 21.7436L41.9159 20.4996C42.3277 19.9765 42.2371 19.2187 41.714 18.8072C41.1906 18.3954 40.4328 18.4861 40.0213 19.0094L39.013 20.291C37.224 19.1749 35.2001 18.4943 33.0735 18.3038V16.9822H34.3391C35.0049 16.9822 35.5445 16.4426 35.5445 15.7768C35.5445 15.1111 35.0049 14.5715 34.3391 14.5715H29.5177C28.8519 14.5715 28.3124 15.1111 28.3124 15.7768C28.3124 16.4426 28.8519 16.9822 29.5177 16.9822H30.6628V18.2989C25.7133 18.7262 21.3564 21.829 19.3588 26.448C19.0947 27.0589 19.3758 27.7685 19.9867 28.0329C20.5976 28.297 21.3074 28.0159 21.5715 27.405C23.344 23.3065 27.3737 20.6585 31.838 20.6585C38.0025 20.6585 43.0177 25.6737 43.0177 31.8382C43.0177 34.0394 42.3691 36.173 41.1419 38.0086C40.7718 38.5621 40.9206 39.3107 41.4741 39.6806C41.6798 39.8183 41.9124 39.8842 42.1427 39.884C42.5318 39.884 42.9134 39.6961 43.146 39.3484C44.6391 37.1149 45.4284 34.518 45.4284 31.8382C45.4284 28.208 44.0147 24.7953 41.4479 22.2283ZM37.6019 41.4446C35.8783 42.4884 33.9392 43.0179 31.838 43.0179C29.6757 43.0179 27.6235 42.455 25.9033 41.3902C25.3371 41.0399 24.5944 41.2148 24.2438 41.7808C23.8935 42.347 24.0684 43.0897 24.6344 43.4402C26.7362 44.7409 29.2272 45.4286 31.838 45.4286C34.35 45.4286 36.7751 44.764 38.851 43.5064C39.4202 43.1615 39.6022 42.4204 39.2573 41.8509C38.9124 41.2814 38.1713 41.0997 37.6019 41.4446ZM29.5589 34.4968C28.0885 33.1679 27.971 30.8881 29.2971 29.4146C30.231 28.3773 34.7201 25.6706 36.0735 24.8657C36.5031 24.6103 37.0463 24.6466 37.438 24.9571C37.83 25.2674 37.9896 25.7877 37.8392 26.2644C37.8177 26.3322 37.3092 27.9418 36.6825 29.7013C35.508 32.9991 34.9896 33.8433 34.6377 34.2346C33.9945 34.9491 33.1119 35.37 32.1523 35.4194C32.089 35.4227 32.0259 35.4244 31.963 35.4244C31.0724 35.4242 30.2249 35.0988 29.5589 34.4968ZM31.1753 32.7081C31.41 32.9202 31.7128 33.028 32.028 33.0118C32.3421 32.9955 32.6312 32.8583 32.8428 32.6252C32.8937 32.5619 33.3139 31.9813 34.4328 28.8326C34.4529 28.7761 34.4729 28.7198 34.4926 28.6636C32.8153 29.7248 31.3938 30.6887 31.0889 31.0274C30.6503 31.5147 30.6889 32.2688 31.1753 32.7081Z" fill="white"/>
</g>
<defs>
<linearGradient id="paint0_linear_177_4964" x1="0" y1="0" x2="60" y2="60" gradientUnits="userSpaceOnUse">
<stop stop-color="#8922D3"/>
<stop offset="1" stop-color="#D2324B"/>
</linearGradient>
<clipPath id="clip0_177_4964">
<rect width="30.8571" height="30.8571" fill="white" transform="translate(14.5713 14.5715)"/>
</clipPath>
</defs>
</svg>
