<svg width="60" height="60" viewBox="0 0 60 60" fill="none" xmlns="http://www.w3.org/2000/svg">
<mask id="mask0_177_4974" style="mask-type:alpha" maskUnits="userSpaceOnUse" x="0" y="0" width="60" height="60">
<rect width="60" height="60" fill="#C4C4C4"/>
</mask>
<g mask="url(#mask0_177_4974)">
<path d="M30 60C46.5685 60 60 46.5685 60 30C60 13.4315 46.5685 0 30 0C13.4315 0 0 13.4315 0 30C0 46.5685 13.4315 60 30 60Z" fill="url(#paint0_linear_177_4974)"/>
</g>
<path d="M39.0002 43.8598H21.0002C20.3643 43.8581 19.7349 43.731 19.1482 43.4857C18.5615 43.2404 18.0289 42.8817 17.581 42.4303C17.1332 41.9788 16.7788 41.4434 16.5381 40.8547C16.2975 40.2661 16.1754 39.6357 16.1788 38.9998V23.5712C16.1856 22.297 16.6965 21.0772 17.6 20.1786C18.5035 19.28 19.7259 18.7755 21.0002 18.7755H39.0002C40.2745 18.7755 41.497 19.28 42.4004 20.1786C43.3039 21.0772 43.8148 22.297 43.8216 23.5712V38.9998C43.825 39.6357 43.7029 40.2661 43.4623 40.8547C43.2217 41.4434 42.8672 41.9788 42.4194 42.4303C41.9715 42.8817 41.4389 43.2404 40.8522 43.4857C40.2655 43.731 39.6361 43.8581 39.0002 43.8598ZM21.0002 20.7041C20.2374 20.7041 19.5055 21.0053 18.9637 21.5423C18.4219 22.0793 18.1141 22.8085 18.1074 23.5712V38.9998C18.1022 39.3829 18.1733 39.7633 18.3164 40.1187C18.4595 40.4742 18.6718 40.7976 18.9409 41.0704C19.21 41.3431 19.5307 41.5596 19.8842 41.7074C20.2377 41.8552 20.617 41.9313 21.0002 41.9312H39.0002C39.3834 41.9313 39.7627 41.8552 40.1162 41.7074C40.4698 41.5596 40.7904 41.3431 41.0595 41.0704C41.3287 40.7976 41.5409 40.4742 41.684 40.1187C41.8271 39.7633 41.8982 39.3829 41.8931 38.9998V23.5712C41.8863 22.8085 41.5785 22.0793 41.0367 21.5423C40.4949 21.0053 39.763 20.7041 39.0002 20.7041H21.0002Z" fill="white"/>
<path d="M39.0002 43.8603H21.0002C20.3643 43.8586 19.7349 43.7315 19.1482 43.4862C18.5615 43.2408 18.0289 42.8822 17.581 42.4307C17.1332 41.9793 16.7788 41.4439 16.5381 40.8552C16.2975 40.2666 16.1754 39.6362 16.1788 39.0003V26.7603C16.1788 26.5045 16.2804 26.2593 16.4612 26.0784C16.6421 25.8976 16.8873 25.796 17.1431 25.796H42.8574C43.1131 25.796 43.3584 25.8976 43.5392 26.0784C43.72 26.2593 43.8216 26.5045 43.8216 26.7603V39.0003C43.825 39.6362 43.7029 40.2666 43.4623 40.8552C43.2217 41.4439 42.8672 41.9793 42.4194 42.4307C41.9715 42.8822 41.4389 43.2408 40.8522 43.4862C40.2655 43.7315 39.6361 43.8586 39.0002 43.8603ZM18.1074 27.7246V39.0003C18.1022 39.3834 18.1733 39.7637 18.3164 40.1192C18.4595 40.4746 18.6718 40.7981 18.9409 41.0708C19.21 41.3435 19.5307 41.5601 19.8842 41.7079C20.2377 41.8557 20.617 41.9317 21.0002 41.9317H39.0002C39.3834 41.9317 39.7627 41.8557 40.1162 41.7079C40.4698 41.5601 40.7904 41.3435 41.0595 41.0708C41.3287 40.7981 41.5409 40.4746 41.684 40.1192C41.8271 39.7637 41.8982 39.3834 41.8931 39.0003V27.686L18.1074 27.7246Z" fill="white"/>
<path d="M30.8568 39.1429C31.488 39.1429 31.9997 38.6312 31.9997 38V31.1429C31.9996 30.5117 31.4879 30 30.8567 30.0001C30.5536 30.0002 30.2631 30.1206 30.0488 30.3348L27.763 32.6205C27.3224 33.0725 27.3316 33.796 27.7835 34.2367C28.2274 34.6694 28.9353 34.6694 29.3791 34.2367L29.714 33.9018V38C29.714 38.6312 30.2257 39.1429 30.8568 39.1429Z" fill="white"/>
<path d="M22.9282 23.2246C22.6778 23.2215 22.4381 23.1224 22.2587 22.9477C22.0793 22.7731 21.9737 22.5362 21.9639 22.286V17.1431C21.9639 16.8874 22.0655 16.6421 22.2463 16.4613C22.4271 16.2804 22.6724 16.1789 22.9282 16.1789C23.1839 16.1789 23.4292 16.2804 23.61 16.4613C23.7908 16.6421 23.8924 16.8874 23.8924 17.1431V22.286C23.8826 22.5362 23.777 22.7731 23.5976 22.9477C23.4182 23.1224 23.1785 23.2215 22.9282 23.2246Z" fill="white"/>
<path d="M30.0004 23.2246C29.75 23.2215 29.5104 23.1224 29.331 22.9477C29.1515 22.7731 29.046 22.5362 29.0361 22.286V17.1431C29.0361 16.8874 29.1377 16.6421 29.3186 16.4613C29.4994 16.2804 29.7447 16.1789 30.0004 16.1789C30.2562 16.1789 30.5014 16.2804 30.6823 16.4613C30.8631 16.6421 30.9647 16.8874 30.9647 17.1431V22.286C30.9548 22.5362 30.8493 22.7731 30.6699 22.9477C30.4904 23.1224 30.2508 23.2215 30.0004 23.2246Z" fill="white"/>
<path d="M37.0707 23.2246C36.8204 23.2215 36.5807 23.1224 36.4013 22.9477C36.2218 22.7731 36.1163 22.5362 36.1064 22.286V17.1431C36.1064 16.8874 36.208 16.6421 36.3889 16.4613C36.5697 16.2804 36.815 16.1789 37.0707 16.1789C37.3265 16.1789 37.5717 16.2804 37.7526 16.4613C37.9334 16.6421 38.035 16.8874 38.035 17.1431V22.286C38.0252 22.5362 37.9196 22.7731 37.7402 22.9477C37.5607 23.1224 37.3211 23.2215 37.0707 23.2246Z" fill="white"/>
<defs>
<linearGradient id="paint0_linear_177_4974" x1="0" y1="0" x2="60" y2="60" gradientUnits="userSpaceOnUse">
<stop stop-color="#8922D3"/>
<stop offset="1" stop-color="#D2324B"/>
</linearGradient>
</defs>
</svg>
