<svg width="22" height="26" viewBox="0 0 22 26" fill="none" xmlns="http://www.w3.org/2000/svg">
<path d="M10.9988 8.16406C8.33178 8.16406 6.16211 10.3337 6.16211 13.0006C6.16211 15.6676 8.33178 17.8373 10.9988 17.8373C13.6656 17.8373 15.8353 15.6676 15.8353 13.0006C15.8353 10.3337 13.6656 8.16406 10.9988 8.16406ZM13.8703 12.0897L10.4054 15.5547C10.26 15.7001 10.0692 15.7729 9.87862 15.7729C9.68805 15.7729 9.49748 15.7003 9.35203 15.5547L8.02792 14.2306C7.73703 13.9399 7.73703 13.4683 8.02792 13.1774C8.31861 12.8865 8.7902 12.8865 9.08109 13.1774L9.87862 13.9749L12.8172 11.0366C13.1079 10.7457 13.5794 10.7457 13.8703 11.0366C14.1612 11.3273 14.1612 11.7988 13.8703 12.0897Z" fill="#773BD9"/>
<path d="M21.7826 7.19512L21.7818 7.17536C21.7708 6.93154 21.7634 6.67357 21.759 6.38655C21.7382 4.9869 20.6256 3.82915 19.2258 3.75091C16.3072 3.58803 14.0494 2.63634 12.1203 0.75601L12.1038 0.740322C11.4746 0.163382 10.5254 0.163382 9.89596 0.740322L9.8795 0.75601C7.95036 2.63634 5.69257 3.58803 2.77397 3.7511C1.37433 3.82915 0.261505 4.9869 0.240783 6.38674C0.236522 6.67183 0.228969 6.92979 0.21793 7.17536L0.216768 7.22126C0.160023 10.1974 0.0895273 13.9013 1.32862 17.2632C2.00995 19.112 3.04182 20.719 4.39537 22.04C5.93698 23.5445 7.95617 24.7388 10.3968 25.5898C10.4762 25.6175 10.5587 25.64 10.6427 25.6568C10.7613 25.6804 10.8806 25.6923 10.9999 25.6923C11.1192 25.6923 11.2387 25.6804 11.357 25.6568C11.4411 25.64 11.5241 25.6173 11.6039 25.5894C14.0416 24.7369 16.0587 23.542 17.599 22.0377C18.9519 20.7163 19.9838 19.1089 20.6657 17.2597C21.9094 13.8877 21.8391 10.1768 21.7826 7.19512ZM10.9995 19.3266C7.51112 19.3266 4.67329 16.4887 4.67329 13.0003C4.67329 9.51198 7.51112 6.67415 10.9995 6.67415C14.4877 6.67415 17.3257 9.51198 17.3257 13.0003C17.3257 16.4887 14.4877 19.3266 10.9995 19.3266Z" fill="#773BD9"/>
</svg>
