<svg width="18" height="18" viewBox="0 0 18 18" fill="none" xmlns="http://www.w3.org/2000/svg">
<path d="M17.6896 14.8966H0.310359C0.138972 14.8966 0 14.7576 0 14.5863V3.41387C0 3.24249 0.138972 3.10352 0.310359 3.10352H17.6896C17.861 3.10352 18 3.24249 18 3.41387V14.5863C18 14.7577 17.861 14.8966 17.6896 14.8966Z" fill="#F5F5F5"/>
<path d="M18 4.01072H0V3.41387C0 3.24249 0.138972 3.10352 0.310359 3.10352H17.6896C17.861 3.10352 18 3.24249 18 3.41387L18 4.01072Z" fill="#FF4B55"/>
<path d="M18 6.73193H0V7.6391H18V6.73193Z" fill="#FF4B55"/>
<path d="M18 4.91797H0V5.82514H18V4.91797Z" fill="#FF4B55"/>
<path d="M18 9.45359H0.310359C0.138972 9.45359 0 9.31462 0 9.14323V8.54639H18V9.45359Z" fill="#FF4B55"/>
<path d="M18 12.1753H0V13.0825H18V12.1753Z" fill="#FF4B55"/>
<path d="M17.6896 14.8964H0.310359C0.138972 14.8964 0 14.7575 0 14.5861V13.9893H18V14.5861C18 14.7575 17.861 14.8964 17.6896 14.8964Z" fill="#FF4B55"/>
<path d="M18 10.3608H0V11.268H18V10.3608Z" fill="#FF4B55"/>
<path d="M8.06894 3.10352H0.310359C0.138972 3.10352 0 3.24245 0 3.41384V9.14324C0 9.31463 0.138972 9.4536 0.310359 9.4536H8.06898C8.24036 9.4536 8.37934 9.31463 8.37934 9.14324V3.41384C8.3793 3.24245 8.24033 3.10352 8.06894 3.10352Z" fill="#41479B"/>
<path d="M0.871395 3.81591L0.94009 4.02192L1.15725 4.02357C1.18537 4.02382 1.19701 4.05968 1.17441 4.07638L0.999715 4.2054L1.06525 4.41244C1.07375 4.43923 1.0432 4.46144 1.02032 4.44506L0.843656 4.31882L0.666997 4.4451C0.64411 4.46144 0.61363 4.43926 0.622067 4.41247L0.687598 4.20544L0.512907 4.07641C0.490302 4.05968 0.501938 4.02386 0.530063 4.02361L0.747223 4.02196L0.815918 3.81594C0.824778 3.78922 0.862465 3.78922 0.871395 3.81591Z" fill="#F5F5F5"/>
<path d="M0.871395 4.89352L0.94009 5.09953L1.15725 5.10118C1.18537 5.10143 1.19701 5.13729 1.17441 5.15399L0.999715 5.28301L1.06525 5.49005C1.07375 5.51684 1.0432 5.53905 1.02032 5.52267L0.843656 5.39643L0.666997 5.52271C0.64411 5.53906 0.61363 5.51687 0.622067 5.49008L0.687598 5.28305L0.512907 5.15402C0.490302 5.13729 0.501938 5.10147 0.530063 5.10122L0.747223 5.09957L0.815918 4.89355C0.824778 4.86687 0.862465 4.86687 0.871395 4.89352Z" fill="#F5F5F5"/>
<path d="M0.871395 5.97115L0.94009 6.17717L1.15725 6.17882C1.18537 6.17907 1.19701 6.21493 1.17441 6.23163L0.999715 6.36065L1.06525 6.56768C1.07375 6.59447 1.0432 6.61669 1.02032 6.60031L0.843656 6.47406L0.666997 6.60034C0.64411 6.61669 0.61363 6.59451 0.622067 6.56772L0.687598 6.36068L0.512907 6.23166C0.490302 6.21493 0.501938 6.1791 0.530063 6.17886L0.747223 6.1772L0.815918 5.97119C0.824778 5.94451 0.862465 5.94451 0.871395 5.97115Z" fill="#F5F5F5"/>
<path d="M0.871395 7.04882L0.94009 7.25483L1.15725 7.25648C1.18537 7.25673 1.19701 7.29259 1.17441 7.30929L0.999715 7.43831L1.06525 7.64535C1.07375 7.67214 1.0432 7.69435 1.02032 7.67797L0.843656 7.55173L0.666997 7.67801C0.64411 7.69435 0.61363 7.67217 0.622067 7.64538L0.687598 7.43835L0.512907 7.30932C0.490302 7.29259 0.501938 7.25677 0.530063 7.25652L0.747223 7.25487L0.815918 7.04885C0.824778 7.02213 0.862465 7.02213 0.871395 7.04882Z" fill="#F5F5F5"/>
<path d="M0.871395 8.12648L0.94009 8.3325L1.15725 8.33415C1.18537 8.33439 1.19701 8.37025 1.17441 8.38695L0.999715 8.51597L1.06525 8.72301C1.07375 8.7498 1.0432 8.77202 1.02032 8.75563L0.843656 8.62939L0.666997 8.75567C0.64411 8.77202 0.61363 8.74983 0.622067 8.72304L0.687598 8.51601L0.512907 8.38699C0.490302 8.37025 0.501938 8.33443 0.530063 8.33418L0.747223 8.33253L0.815918 8.12652C0.824778 8.09976 0.862465 8.09976 0.871395 8.12648Z" fill="#F5F5F5"/>
<path d="M1.70831 4.34421L1.777 4.55022L1.99416 4.55187C2.02229 4.55212 2.03393 4.58798 2.01132 4.60468L1.83663 4.7337L1.90216 4.94074C1.91067 4.96752 1.88012 4.98974 1.85723 4.97336L1.68057 4.84708L1.50391 4.97336C1.48102 4.98971 1.45054 4.96752 1.45898 4.94074L1.52451 4.7337L1.34982 4.60468C1.32722 4.58794 1.33885 4.55212 1.36698 4.55187L1.58414 4.55022L1.65283 4.34421C1.66166 4.31756 1.69941 4.31756 1.70831 4.34421Z" fill="#F5F5F5"/>
<path d="M1.70831 5.42187L1.777 5.62788L1.99416 5.62954C2.02229 5.62978 2.03393 5.66564 2.01132 5.68234L1.83663 5.81136L1.90216 6.0184C1.91067 6.04519 1.88012 6.06741 1.85723 6.05102L1.68057 5.92474L1.50391 6.05102C1.48102 6.06737 1.45054 6.04522 1.45898 6.0184L1.52451 5.81136L1.34982 5.68234C1.32722 5.66561 1.33885 5.62978 1.36698 5.62954L1.58414 5.62788L1.65283 5.42187C1.66166 5.39518 1.69941 5.39518 1.70831 5.42187Z" fill="#F5F5F5"/>
<path d="M1.70831 6.4995L1.777 6.70552L1.99416 6.70717C2.02229 6.70742 2.03393 6.74328 2.01132 6.75998L1.83663 6.889L1.90216 7.09603C1.91067 7.12282 1.88012 7.14504 1.85723 7.12866L1.68057 7.00238L1.50391 7.12866C1.48102 7.14501 1.45054 7.12282 1.45898 7.09603L1.52451 6.889L1.34982 6.75998C1.32722 6.74324 1.33885 6.70742 1.36698 6.70717L1.58414 6.70552L1.65283 6.4995C1.66166 6.47282 1.69941 6.47282 1.70831 6.4995Z" fill="#F5F5F5"/>
<path d="M1.70831 7.57712L1.777 7.78313L1.99416 7.78478C2.02229 7.78503 2.03393 7.82089 2.01132 7.83759L1.83663 7.96661L1.90216 8.17365C1.91067 8.20043 1.88012 8.22265 1.85723 8.20627L1.68057 8.07999L1.50391 8.20627C1.48102 8.22262 1.45054 8.20043 1.45898 8.17365L1.52451 7.96661L1.34982 7.83759C1.32722 7.82085 1.33885 7.78503 1.36698 7.78478L1.58414 7.78313L1.65283 7.57712C1.66166 7.55047 1.69941 7.55047 1.70831 7.57712Z" fill="#F5F5F5"/>
<path d="M2.54425 3.81591L2.61294 4.02193L2.8301 4.02358C2.85823 4.02382 2.86986 4.05968 2.84726 4.07638L2.67257 4.20541L2.7381 4.41244C2.74661 4.43923 2.71605 4.46145 2.69317 4.44507L2.51651 4.31879L2.33985 4.44507C2.31696 4.46141 2.28648 4.43923 2.29492 4.41244L2.36045 4.20541L2.18576 4.07638C2.16315 4.05965 2.17479 4.02382 2.20291 4.02358L2.42007 4.02193L2.48877 3.81591C2.49763 3.78923 2.53535 3.78923 2.54425 3.81591Z" fill="#F5F5F5"/>
<path d="M2.54425 4.89352L2.61294 5.09954L2.8301 5.10119C2.85823 5.10144 2.86986 5.13729 2.84726 5.15399L2.67257 5.28302L2.7381 5.49005C2.74661 5.51684 2.71605 5.53906 2.69317 5.52268L2.51651 5.3964L2.33985 5.52268C2.31696 5.53902 2.28648 5.51684 2.29492 5.49005L2.36045 5.28302L2.18576 5.15399C2.16315 5.13726 2.17479 5.10144 2.20291 5.10119L2.42007 5.09954L2.48877 4.89352C2.49763 4.86687 2.53535 4.86687 2.54425 4.89352Z" fill="#F5F5F5"/>
<path d="M2.54425 5.97116L2.61294 6.17717L2.8301 6.17883C2.85823 6.17907 2.86986 6.21493 2.84726 6.23163L2.67257 6.36065L2.7381 6.56769C2.74661 6.59448 2.71605 6.6167 2.69317 6.60031L2.51651 6.47403L2.33985 6.60031C2.31696 6.61666 2.28648 6.59448 2.29492 6.56769L2.36045 6.36065L2.18576 6.23163C2.16315 6.2149 2.17479 6.17907 2.20291 6.17883L2.42007 6.17717L2.48877 5.97116C2.49763 5.94451 2.53535 5.94451 2.54425 5.97116Z" fill="#F5F5F5"/>
<path d="M2.54425 7.04882L2.61294 7.25484L2.8301 7.25649C2.85823 7.25673 2.86986 7.29259 2.84726 7.30929L2.67257 7.43832L2.7381 7.64535C2.74661 7.67214 2.71605 7.69436 2.69317 7.67798L2.51651 7.55169L2.33985 7.67798C2.31696 7.69432 2.28648 7.67214 2.29492 7.64535L2.36045 7.43832L2.18576 7.30929C2.16315 7.29256 2.17479 7.25673 2.20291 7.25649L2.42007 7.25484L2.48877 7.04882C2.49763 7.02214 2.53535 7.02214 2.54425 7.04882Z" fill="#F5F5F5"/>
<path d="M2.54425 8.12648L2.61294 8.3325L2.8301 8.33415C2.85823 8.3344 2.86986 8.37026 2.84726 8.38696L2.67257 8.51598L2.7381 8.72301C2.74661 8.7498 2.71605 8.77202 2.69317 8.75564L2.51651 8.62936L2.33985 8.75564C2.31696 8.77199 2.28648 8.7498 2.29492 8.72301L2.36045 8.51598L2.18576 8.38696C2.16315 8.37022 2.17479 8.3344 2.20291 8.33415L2.42007 8.3325L2.48877 8.12648C2.49763 8.09977 2.53535 8.09977 2.54425 8.12648Z" fill="#F5F5F5"/>
<path d="M3.38116 4.34421L3.44986 4.55022L3.66702 4.55187C3.69514 4.55212 3.70678 4.58798 3.68417 4.60468L3.50948 4.7337L3.57501 4.94074C3.58352 4.96752 3.55297 4.98974 3.53008 4.97336L3.35342 4.84708L3.17676 4.97336C3.15388 4.98971 3.1234 4.96752 3.13183 4.94074L3.19736 4.7337L3.02267 4.60468C3.00007 4.58794 3.0117 4.55212 3.03983 4.55187L3.25699 4.55022L3.32568 4.34421C3.33451 4.31756 3.37227 4.31756 3.38116 4.34421Z" fill="#F5F5F5"/>
<path d="M3.38116 5.42187L3.44986 5.62788L3.66702 5.62954C3.69514 5.62978 3.70678 5.66564 3.68417 5.68234L3.50948 5.81136L3.57501 6.0184C3.58352 6.04519 3.55297 6.06741 3.53008 6.05102L3.35342 5.92474L3.17676 6.05102C3.15388 6.06737 3.1234 6.04522 3.13183 6.0184L3.19736 5.81136L3.02267 5.68234C3.00007 5.66561 3.0117 5.62978 3.03983 5.62954L3.25699 5.62788L3.32568 5.42187C3.33451 5.39518 3.37227 5.39518 3.38116 5.42187Z" fill="#F5F5F5"/>
<path d="M3.38116 6.4995L3.44986 6.70552L3.66702 6.70717C3.69514 6.70742 3.70678 6.74328 3.68417 6.75998L3.50948 6.889L3.57501 7.09603C3.58352 7.12282 3.55297 7.14504 3.53008 7.12866L3.35342 7.00238L3.17676 7.12866C3.15388 7.14501 3.1234 7.12282 3.13183 7.09603L3.19736 6.889L3.02267 6.75998C3.00007 6.74324 3.0117 6.70742 3.03983 6.70717L3.25699 6.70552L3.32568 6.4995C3.33451 6.47282 3.37227 6.47282 3.38116 6.4995Z" fill="#F5F5F5"/>
<path d="M3.38116 7.57712L3.44986 7.78313L3.66702 7.78478C3.69514 7.78503 3.70678 7.82089 3.68417 7.83759L3.50948 7.96661L3.57501 8.17365C3.58352 8.20043 3.55297 8.22265 3.53008 8.20627L3.35342 8.07999L3.17676 8.20627C3.15388 8.22262 3.1234 8.20043 3.13183 8.17365L3.19736 7.96661L3.02267 7.83759C3.00007 7.82085 3.0117 7.78503 3.03983 7.78478L3.25699 7.78313L3.32568 7.57712C3.33451 7.55047 3.37227 7.55047 3.38116 7.57712Z" fill="#F5F5F5"/>
<path d="M4.21713 3.81591L4.28583 4.02193L4.50299 4.02358C4.53111 4.02382 4.54275 4.05968 4.52014 4.07638L4.34545 4.20541L4.41098 4.41244C4.41949 4.43923 4.38894 4.46145 4.36605 4.44507L4.18936 4.31879L4.0127 4.44507C3.98981 4.46141 3.95933 4.43923 3.96777 4.41244L4.0333 4.20541L3.85861 4.07638C3.836 4.05965 3.84764 4.02382 3.87577 4.02358L4.09293 4.02193L4.16162 3.81591C4.17052 3.78923 4.20824 3.78923 4.21713 3.81591Z" fill="#F5F5F5"/>
<path d="M4.21713 4.89352L4.28583 5.09954L4.50299 5.10119C4.53111 5.10144 4.54275 5.13729 4.52014 5.15399L4.34545 5.28302L4.41098 5.49005C4.41949 5.51684 4.38894 5.53906 4.36605 5.52268L4.18936 5.3964L4.0127 5.52268C3.98981 5.53902 3.95933 5.51684 3.96777 5.49005L4.0333 5.28302L3.85861 5.15399C3.836 5.13726 3.84764 5.10144 3.87577 5.10119L4.09293 5.09954L4.16162 4.89352C4.17052 4.86687 4.20824 4.86687 4.21713 4.89352Z" fill="#F5F5F5"/>
<path d="M4.21713 5.97116L4.28583 6.17717L4.50299 6.17883C4.53111 6.17907 4.54275 6.21493 4.52014 6.23163L4.34545 6.36065L4.41098 6.56769C4.41949 6.59448 4.38894 6.6167 4.36605 6.60031L4.18936 6.47403L4.0127 6.60031C3.98981 6.61666 3.95933 6.59448 3.96777 6.56769L4.0333 6.36065L3.85861 6.23163C3.836 6.2149 3.84764 6.17907 3.87577 6.17883L4.09293 6.17717L4.16162 5.97116C4.17052 5.94451 4.20824 5.94451 4.21713 5.97116Z" fill="#F5F5F5"/>
<path d="M4.21713 7.04882L4.28583 7.25484L4.50299 7.25649C4.53111 7.25673 4.54275 7.29259 4.52014 7.30929L4.34545 7.43832L4.41098 7.64535C4.41949 7.67214 4.38894 7.69436 4.36605 7.67798L4.18936 7.55169L4.0127 7.67798C3.98981 7.69432 3.95933 7.67214 3.96777 7.64535L4.0333 7.43832L3.85861 7.30929C3.836 7.29256 3.84764 7.25673 3.87577 7.25649L4.09293 7.25484L4.16162 7.04882C4.17052 7.02214 4.20824 7.02214 4.21713 7.04882Z" fill="#F5F5F5"/>
<path d="M4.21713 8.12648L4.28583 8.3325L4.50299 8.33415C4.53111 8.3344 4.54275 8.37026 4.52014 8.38696L4.34545 8.51598L4.41098 8.72301C4.41949 8.7498 4.38894 8.77202 4.36605 8.75564L4.18936 8.62936L4.0127 8.75564C3.98981 8.77199 3.95933 8.7498 3.96777 8.72301L4.0333 8.51598L3.85861 8.38696C3.836 8.37022 3.84764 8.3344 3.87577 8.33415L4.09293 8.3325L4.16162 8.12648C4.17052 8.09977 4.20824 8.09977 4.21713 8.12648Z" fill="#F5F5F5"/>
<path d="M5.05401 4.34421L5.12271 4.55022L5.33987 4.55187C5.36799 4.55212 5.37963 4.58798 5.35702 4.60468L5.18233 4.7337L5.24786 4.94074C5.25637 4.96752 5.22582 4.98974 5.20293 4.97336L5.02627 4.84708L4.84961 4.97336C4.82673 4.98971 4.79625 4.96752 4.80468 4.94074L4.87022 4.7337L4.69552 4.60468C4.67292 4.58794 4.68456 4.55212 4.71268 4.55187L4.92984 4.55022L4.99854 4.34421C5.00743 4.31756 5.04512 4.31756 5.05401 4.34421Z" fill="#F5F5F5"/>
<path d="M5.05401 5.42187L5.12271 5.62788L5.33987 5.62954C5.36799 5.62978 5.37963 5.66564 5.35702 5.68234L5.18233 5.81136L5.24786 6.0184C5.25637 6.04519 5.22582 6.06741 5.20293 6.05102L5.02627 5.92474L4.84961 6.05102C4.82673 6.06737 4.79625 6.04522 4.80468 6.0184L4.87022 5.81136L4.69552 5.68234C4.67292 5.66561 4.68456 5.62978 4.71268 5.62954L4.92984 5.62788L4.99854 5.42187C5.00743 5.39518 5.04512 5.39518 5.05401 5.42187Z" fill="#F5F5F5"/>
<path d="M5.05401 6.4995L5.12271 6.70552L5.33987 6.70717C5.36799 6.70742 5.37963 6.74328 5.35702 6.75998L5.18233 6.889L5.24786 7.09603C5.25637 7.12282 5.22582 7.14504 5.20293 7.12866L5.02627 7.00238L4.84961 7.12866C4.82673 7.14501 4.79625 7.12282 4.80468 7.09603L4.87022 6.889L4.69552 6.75998C4.67292 6.74324 4.68456 6.70742 4.71268 6.70717L4.92984 6.70552L4.99854 6.4995C5.00743 6.47282 5.04512 6.47282 5.05401 6.4995Z" fill="#F5F5F5"/>
<path d="M5.05401 7.57712L5.12271 7.78313L5.33987 7.78478C5.36799 7.78503 5.37963 7.82089 5.35702 7.83759L5.18233 7.96661L5.24786 8.17365C5.25637 8.20043 5.22582 8.22265 5.20293 8.20627L5.02627 8.07999L4.84961 8.20627C4.82673 8.22262 4.79625 8.20043 4.80468 8.17365L4.87022 7.96661L4.69552 7.83759C4.67292 7.82085 4.68456 7.78503 4.71268 7.78478L4.92984 7.78313L4.99854 7.57712C5.00743 7.55047 5.04512 7.55047 5.05401 7.57712Z" fill="#F5F5F5"/>
<path d="M5.88995 3.81591L5.95864 4.02193L6.1758 4.02358C6.20393 4.02382 6.21557 4.05968 6.19296 4.07638L6.01827 4.20541L6.0838 4.41244C6.09231 4.43923 6.06176 4.46145 6.03887 4.44507L5.86221 4.31879L5.68555 4.44507C5.66266 4.46141 5.63218 4.43923 5.64062 4.41244L5.70615 4.20541L5.53146 4.07638C5.50886 4.05965 5.52049 4.02382 5.54862 4.02358L5.76578 4.02193L5.83447 3.81591C5.8433 3.78923 5.88105 3.78923 5.88995 3.81591Z" fill="#F5F5F5"/>
<path d="M5.88995 4.89352L5.95864 5.09954L6.1758 5.10119C6.20393 5.10144 6.21557 5.13729 6.19296 5.15399L6.01827 5.28302L6.0838 5.49005C6.09231 5.51684 6.06176 5.53906 6.03887 5.52268L5.86221 5.3964L5.68555 5.52268C5.66266 5.53902 5.63218 5.51684 5.64062 5.49005L5.70615 5.28302L5.53146 5.15399C5.50886 5.13726 5.52049 5.10144 5.54862 5.10119L5.76578 5.09954L5.83447 4.89352C5.8433 4.86687 5.88105 4.86687 5.88995 4.89352Z" fill="#F5F5F5"/>
<path d="M5.88995 5.97116L5.95864 6.17717L6.1758 6.17883C6.20393 6.17907 6.21557 6.21493 6.19296 6.23163L6.01827 6.36065L6.0838 6.56769C6.09231 6.59448 6.06176 6.6167 6.03887 6.60031L5.86221 6.47403L5.68555 6.60031C5.66266 6.61666 5.63218 6.59448 5.64062 6.56769L5.70615 6.36065L5.53146 6.23163C5.50886 6.2149 5.52049 6.17907 5.54862 6.17883L5.76578 6.17717L5.83447 5.97116C5.8433 5.94451 5.88105 5.94451 5.88995 5.97116Z" fill="#F5F5F5"/>
<path d="M5.88995 7.04882L5.95864 7.25484L6.1758 7.25649C6.20393 7.25673 6.21557 7.29259 6.19296 7.30929L6.01827 7.43832L6.0838 7.64535C6.09231 7.67214 6.06176 7.69436 6.03887 7.67798L5.86221 7.55169L5.68555 7.67798C5.66266 7.69432 5.63218 7.67214 5.64062 7.64535L5.70615 7.43832L5.53146 7.30929C5.50886 7.29256 5.52049 7.25673 5.54862 7.25649L5.76578 7.25484L5.83447 7.04882C5.8433 7.02214 5.88105 7.02214 5.88995 7.04882Z" fill="#F5F5F5"/>
<path d="M5.88995 8.12648L5.95864 8.3325L6.1758 8.33415C6.20393 8.3344 6.21557 8.37026 6.19296 8.38696L6.01827 8.51598L6.0838 8.72301C6.09231 8.7498 6.06176 8.77202 6.03887 8.75564L5.86221 8.62936L5.68555 8.75564C5.66266 8.77199 5.63218 8.7498 5.64062 8.72301L5.70615 8.51598L5.53146 8.38696C5.50886 8.37022 5.52049 8.3344 5.54862 8.33415L5.76578 8.3325L5.83447 8.12648C5.8433 8.09977 5.88105 8.09977 5.88995 8.12648Z" fill="#F5F5F5"/>
<path d="M6.72686 4.34421L6.79556 4.55022L7.01272 4.55187C7.04084 4.55212 7.05248 4.58798 7.02987 4.60468L6.85518 4.7337L6.92071 4.94074C6.92922 4.96752 6.89867 4.98974 6.87579 4.97336L6.69912 4.84708L6.52247 4.97336C6.49958 4.98971 6.4691 4.96752 6.47754 4.94074L6.54307 4.7337L6.36838 4.60468C6.34577 4.58794 6.35741 4.55212 6.38553 4.55187L6.60269 4.55022L6.67139 4.34421C6.68025 4.31756 6.718 4.31756 6.72686 4.34421Z" fill="#F5F5F5"/>
<path d="M6.72686 5.42187L6.79556 5.62788L7.01272 5.62954C7.04084 5.62978 7.05248 5.66564 7.02987 5.68234L6.85518 5.81136L6.92071 6.0184C6.92922 6.04519 6.89867 6.06741 6.87579 6.05102L6.69912 5.92474L6.52247 6.05102C6.49958 6.06737 6.4691 6.04522 6.47754 6.0184L6.54307 5.81136L6.36838 5.68234C6.34577 5.66561 6.35741 5.62978 6.38553 5.62954L6.60269 5.62788L6.67139 5.42187C6.68025 5.39518 6.718 5.39518 6.72686 5.42187Z" fill="#F5F5F5"/>
<path d="M6.72686 6.4995L6.79556 6.70552L7.01272 6.70717C7.04084 6.70742 7.05248 6.74328 7.02987 6.75998L6.85518 6.889L6.92071 7.09603C6.92922 7.12282 6.89867 7.14504 6.87579 7.12866L6.69912 7.00238L6.52247 7.12866C6.49958 7.14501 6.4691 7.12282 6.47754 7.09603L6.54307 6.889L6.36838 6.75998C6.34577 6.74324 6.35741 6.70742 6.38553 6.70717L6.60269 6.70552L6.67139 6.4995C6.68025 6.47282 6.718 6.47282 6.72686 6.4995Z" fill="#F5F5F5"/>
<path d="M6.72686 7.57712L6.79556 7.78313L7.01272 7.78478C7.04084 7.78503 7.05248 7.82089 7.02987 7.83759L6.85518 7.96661L6.92071 8.17365C6.92922 8.20043 6.89867 8.22265 6.87579 8.20627L6.69912 8.07999L6.52247 8.20627C6.49958 8.22262 6.4691 8.20043 6.47754 8.17365L6.54307 7.96661L6.36838 7.83759C6.34577 7.82085 6.35741 7.78503 6.38553 7.78478L6.60269 7.78313L6.67139 7.57712C6.68025 7.55047 6.718 7.55047 6.72686 7.57712Z" fill="#F5F5F5"/>
<path d="M7.5628 3.81591L7.6315 4.02193L7.84866 4.02358C7.87678 4.02382 7.88842 4.05968 7.86581 4.07638L7.69112 4.20541L7.75665 4.41244C7.76516 4.43923 7.73461 4.46145 7.71172 4.44507L7.53506 4.31879L7.3584 4.44507C7.33552 4.46141 7.30504 4.43923 7.31347 4.41244L7.379 4.20541L7.20431 4.07638C7.18171 4.05965 7.19334 4.02382 7.22147 4.02358L7.43863 4.02193L7.50732 3.81591C7.51618 3.78923 7.55387 3.78923 7.5628 3.81591Z" fill="#F5F5F5"/>
<path d="M7.5628 4.89352L7.6315 5.09954L7.84866 5.10119C7.87678 5.10144 7.88842 5.13729 7.86581 5.15399L7.69112 5.28302L7.75665 5.49005C7.76516 5.51684 7.73461 5.53906 7.71172 5.52268L7.53506 5.3964L7.3584 5.52268C7.33552 5.53902 7.30504 5.51684 7.31347 5.49005L7.379 5.28302L7.20431 5.15399C7.18171 5.13726 7.19334 5.10144 7.22147 5.10119L7.43863 5.09954L7.50732 4.89352C7.51618 4.86687 7.55387 4.86687 7.5628 4.89352Z" fill="#F5F5F5"/>
<path d="M7.5628 5.97116L7.6315 6.17717L7.84866 6.17883C7.87678 6.17907 7.88842 6.21493 7.86581 6.23163L7.69112 6.36065L7.75665 6.56769C7.76516 6.59448 7.73461 6.6167 7.71172 6.60031L7.53506 6.47403L7.3584 6.60031C7.33552 6.61666 7.30504 6.59448 7.31347 6.56769L7.379 6.36065L7.20431 6.23163C7.18171 6.2149 7.19334 6.17907 7.22147 6.17883L7.43863 6.17717L7.50732 5.97116C7.51618 5.94451 7.55387 5.94451 7.5628 5.97116Z" fill="#F5F5F5"/>
<path d="M7.5628 7.04882L7.6315 7.25484L7.84866 7.25649C7.87678 7.25673 7.88842 7.29259 7.86581 7.30929L7.69112 7.43832L7.75665 7.64535C7.76516 7.67214 7.73461 7.69436 7.71172 7.67798L7.53506 7.55169L7.3584 7.67798C7.33552 7.69432 7.30504 7.67214 7.31347 7.64535L7.379 7.43832L7.20431 7.30929C7.18171 7.29256 7.19334 7.25673 7.22147 7.25649L7.43863 7.25484L7.50732 7.04882C7.51618 7.02214 7.55387 7.02214 7.5628 7.04882Z" fill="#F5F5F5"/>
<path d="M7.5628 8.12648L7.6315 8.3325L7.84866 8.33415C7.87678 8.3344 7.88842 8.37026 7.86581 8.38696L7.69112 8.51598L7.75665 8.72301C7.76516 8.7498 7.73461 8.77202 7.71172 8.75564L7.53506 8.62936L7.3584 8.75564C7.33552 8.77199 7.30504 8.7498 7.31347 8.72301L7.379 8.51598L7.20431 8.38696C7.18171 8.37022 7.19334 8.3344 7.22147 8.33415L7.43863 8.3325L7.50732 8.12648C7.51618 8.09977 7.55387 8.09977 7.5628 8.12648Z" fill="#F5F5F5"/>
</svg>
