<svg width="60" height="60" viewBox="0 0 60 60" fill="none" xmlns="http://www.w3.org/2000/svg">
<circle cx="30" cy="30" r="30" fill="white"/>
<path d="M30.0008 20.0254C27.5616 20.0254 25.3247 20.9062 23.5898 22.3656C26.3572 28.1107 32.2347 32.0754 39.0383 32.0754C39.353 32.0754 39.6654 32.0663 39.9758 32.0496V30.0004C39.9758 24.5001 35.5011 20.0254 30.0008 20.0254Z" fill="#773BD9"/>
<path d="M18.15 29.9996C18.15 29.0023 18.2782 28.012 18.5254 27.0537H16.9458C15.353 27.0537 14 28.3387 14 29.9996V37.0288C14 38.6933 15.3559 39.9746 16.9458 39.9746H18.8277C18.3894 38.7385 18.15 37.4091 18.15 36.0246V29.9996Z" fill="#773BD9"/>
<path d="M22.2057 23.7832C20.842 25.4895 20.0254 27.651 20.0254 30V36.025C20.0254 41.5253 24.5001 46 30.0004 46C34.0981 46 37.6261 43.516 39.1592 39.975H36.0254C35.5076 39.975 35.0879 39.5553 35.0879 39.0375C35.0879 38.5198 35.5076 38.1 36.0254 38.1H39.7577C39.9 37.4304 39.9754 36.7365 39.9754 36.0251V33.9269C39.6648 33.942 39.3523 33.9501 39.0379 33.9501C31.7315 33.95 25.389 29.828 22.2057 23.7832ZM33.6755 37.1903C32.6811 38.1838 31.3745 38.6808 30.0682 38.6808C28.7616 38.6808 27.4556 38.1841 26.4609 37.1903C26.0946 36.8244 26.0943 36.2308 26.4603 35.8645C26.8261 35.4983 27.4198 35.4979 27.7861 35.8639C29.0445 37.1211 31.092 37.121 32.3503 35.8639C32.7166 35.498 33.3102 35.4981 33.6761 35.8645C34.0421 36.2308 34.0418 36.8244 33.6755 37.1903Z" fill="#773BD9"/>
<path d="M45.4443 25.8158C43.6001 19.0163 37.3756 14 30.0005 14C22.6253 14 16.4008 19.0163 14.5566 25.8158C15.2003 25.4467 15.9361 25.2212 16.721 25.1849C18.6943 19.7599 23.902 15.875 30.0005 15.875C36.0989 15.875 41.3066 19.7599 43.2798 25.1849C44.0647 25.2211 44.8006 25.4467 45.4443 25.8158Z" fill="#773BD9"/>
<path d="M43.0538 27.0547H41.4742C41.7215 28.013 41.8496 29.0033 41.8496 30.0006V36.0256C41.8496 37.41 41.6102 38.7394 41.1719 39.9755H43.0538C44.6437 39.9755 45.9996 38.6942 45.9996 37.0297V30.0006C45.9996 28.3397 44.6466 27.0547 43.0538 27.0547Z" fill="#773BD9"/>
</svg>
