<svg width="60" height="60" viewBox="0 0 60 60" fill="none" xmlns="http://www.w3.org/2000/svg">
<circle cx="30" cy="30" r="30" fill="white"/>
<mask id="mask0_177_4615" style="mask-type:luminance" maskUnits="userSpaceOnUse" x="14" y="14" width="32" height="32">
<path d="M46 14H14V46H46V14Z" fill="white"/>
</mask>
<g mask="url(#mask0_177_4615)">
<path d="M45.7267 38.719L42.2914 35.2832C41.9371 36.0288 41.2595 36.6017 40.3998 36.8059L39.9319 36.9171L39.8206 37.3854C39.6307 38.1854 38.7373 39.6917 36.8569 39.5389L36.3768 39.4999L36.1265 39.9108C35.705 40.6024 34.9975 41.0752 34.2109 41.2154L38.7208 45.7249C38.9506 45.9546 39.2829 46.049 39.5991 45.9743C39.9154 45.8997 40.1704 45.6666 40.2732 45.3584L41.5448 41.5429L45.3603 40.2712C45.6686 40.1685 45.9016 39.9135 45.9762 39.5972C46.0509 39.281 45.9565 38.9486 45.7267 38.719Z" fill="#773BD9"/>
<path d="M23.8748 39.9117L23.6245 39.5008L23.1444 39.5398C21.264 39.6927 20.3706 38.1862 20.1807 37.3863L20.0695 36.9179L19.6015 36.8068C18.7418 36.6026 18.0642 36.0297 17.71 35.2842L14.2746 38.7198C14.0449 38.9496 13.9504 39.2819 14.0251 39.5981C14.0997 39.9144 14.3329 40.1694 14.6411 40.2721L18.4565 41.5438L19.7282 45.3593C19.831 45.6676 20.086 45.9006 20.4022 45.9753C20.7185 46.0499 21.0508 45.9555 21.2805 45.7258L25.7905 41.2163C25.0038 41.0761 24.2964 40.6034 23.8748 39.9117Z" fill="#773BD9"/>
<path d="M34.523 38.9356L35.3747 37.5382L37.006 37.6706C37.4665 37.7079 37.8871 37.4033 37.994 36.9528L38.3722 35.3604L39.9641 34.9823C40.4144 34.8753 40.7194 34.4556 40.6818 33.9943L40.5494 32.3633L41.9467 31.5117C42.342 31.2709 42.5024 30.7777 42.3242 30.3504L41.6944 28.84L42.7602 27.5983C43.0617 27.2471 43.0617 26.7284 42.7603 26.3772L41.6944 25.135L42.3242 23.6245C42.5024 23.1973 42.342 22.704 41.9467 22.4631L40.5494 21.6115L40.6818 19.9806C40.7193 19.5192 40.4144 19.0995 39.9641 18.9925L38.3722 18.6144L37.994 17.022C37.887 16.5716 37.4665 16.2669 37.006 16.3042L35.3747 16.4367L34.523 15.0392C34.2822 14.6438 33.7886 14.4838 33.3616 14.6618L31.8512 15.292L30.6096 14.2261C30.2584 13.9246 29.7396 13.9246 29.3884 14.2261L28.1467 15.2918L26.6365 14.6617C26.2092 14.4835 25.7159 14.6438 25.475 15.0391L24.6234 16.4366L22.992 16.3041C22.5307 16.2671 22.111 16.5715 22.0041 17.0219L21.6259 18.6143L20.034 18.9925C19.5837 19.0995 19.2787 19.5192 19.3162 19.9806L19.4487 21.6115L18.0513 22.4631C17.656 22.704 17.4957 23.1972 17.6738 23.6245L18.3036 25.135L17.2377 26.3772C16.9363 26.7284 16.9364 27.2471 17.2378 27.5983L18.3036 28.84L17.674 30.3504C17.4958 30.7777 17.6561 31.2709 18.0514 31.5117L19.4488 32.3633L19.3163 33.9943C19.2789 34.4556 19.5838 34.8753 20.0341 34.9823L21.626 35.3604L22.0042 36.9528C22.1112 37.4033 22.5308 37.7076 22.9921 37.6706L24.6235 37.5382L25.4752 38.9356C25.716 39.3309 26.2093 39.4912 26.6367 39.313L28.1469 38.6828L29.3885 39.7486C29.7398 40.05 30.2585 40.05 30.6097 39.7486L31.8513 38.6828L33.3616 39.313C33.7886 39.4911 34.2822 39.3309 34.523 38.9356ZM29.6577 33.6754C29.2918 34.0415 28.6981 34.0417 28.3319 33.6754L22.8091 28.1525C22.4429 27.7864 22.4429 27.1928 22.8091 26.8267L25.6493 23.9864C26.0154 23.6203 26.609 23.6203 26.9751 23.9864L28.9948 26.006L33.5249 21.4759C33.891 21.1098 34.4847 21.1098 34.8507 21.4759L37.691 24.3162C38.0571 24.6823 38.0571 25.2759 37.691 25.642L29.6577 33.6754Z" fill="#773BD9"/>
<path d="M29.6589 27.995C29.2928 28.3611 28.6992 28.3611 28.3331 27.995L26.3133 25.9753L24.7988 27.4898L28.996 31.6868L35.7035 24.9793L34.1891 23.4648L29.6589 27.995Z" fill="#773BD9"/>
</g>
</svg>
