<svg width="60" height="60" viewBox="0 0 60 60" fill="none" xmlns="http://www.w3.org/2000/svg">
<circle cx="30" cy="30" r="30" fill="white"/>
<g clip-path="url(#clip0_177_4640)">
<path d="M29.4944 22.0903C31.0996 22.0903 32.4009 20.789 32.4009 19.1838C32.4009 17.5786 31.0996 16.2773 29.4944 16.2773C27.8892 16.2773 26.5879 17.5786 26.5879 19.1838C26.5879 20.789 27.8892 22.0903 29.4944 22.0903Z" fill="#773BD9"/>
<path d="M40.6792 37.2979C36.3653 31.8946 36.6783 32.2623 36.4809 32.1008L34.4881 23.9978L40.2067 16.2342C40.6661 15.6106 40.5329 14.7326 39.9092 14.2733C39.2858 13.814 38.4079 13.9471 37.9484 14.5708L32.1681 22.4181C32.086 22.4346 28.6421 23.2718 28.4398 23.3501L21.3539 16.1368C20.8113 15.5843 19.9233 15.5763 19.3708 16.1191C18.8183 16.6619 18.8104 17.5498 19.3531 18.1023L27.4043 26.2983L28.4608 30.5941L29.6313 35.3535L28.982 37.6518L23.3161 36.649C22.4017 36.4874 21.5277 37.0976 21.3658 38.0129C21.2038 38.9281 21.8144 39.8012 22.7296 39.9632C30.4594 41.3314 29.9771 41.2573 30.189 41.2573C30.9294 41.2573 31.5995 40.7669 31.8071 40.0317C33.4134 34.3449 33.3133 34.7385 33.3369 34.5241L34.0297 34.3537C34.1 34.4563 33.8118 34.0908 37.1782 38.3074L32.9492 43.2191C32.3428 43.9235 32.4222 44.986 33.1264 45.5924C33.8304 46.1986 34.8931 46.1198 35.4997 45.4152L40.6393 39.4459C41.1674 38.8327 41.1841 37.9304 40.6792 37.2979Z" fill="#773BD9"/>
</g>
<defs>
<clipPath id="clip0_177_4640">
<rect width="32" height="32" fill="white" transform="translate(14 14)"/>
</clipPath>
</defs>
</svg>
