<svg width="60" height="60" viewBox="0 0 60 60" fill="none" xmlns="http://www.w3.org/2000/svg">
<circle cx="30" cy="30" r="30" fill="white"/>
<g clip-path="url(#clip0_177_4628)">
<path d="M29.8239 33.5854C31.8129 33.5854 33.4252 31.973 33.4252 29.9841C33.4252 27.9952 31.8129 26.3828 29.8239 26.3828C27.835 26.3828 26.2227 27.9952 26.2227 29.9841C26.2227 31.973 27.835 33.5854 29.8239 33.5854Z" fill="#773BD9"/>
<path d="M39.3844 25.707H39.3835C38.219 25.707 37.2739 26.6521 37.2739 27.8175V29.8895C37.2739 33.9723 33.963 37.2841 29.8792 37.2841C25.7952 37.2841 22.4837 33.9722 22.4837 29.8895V27.8175C22.4837 26.6512 21.5376 25.707 20.3733 25.707C19.2088 25.707 18.2637 26.6521 18.2637 27.8175V29.851C18.2637 33.638 20.0761 37.0015 22.8805 39.1217C23.043 39.2446 23.1385 39.4365 23.1385 39.6403V45.3489C23.1385 45.7086 23.4302 46.0004 23.79 46.0004H35.8484C36.2083 46.0004 36.4999 45.7086 36.4999 45.3489V39.6983C36.4999 39.4932 36.5966 39.3003 36.7609 39.1775C39.6353 37.0312 41.494 33.5802 41.494 29.7255V27.8175C41.4939 26.6521 40.5489 25.707 39.3844 25.707Z" fill="#773BD9"/>
<path d="M26.4546 20.082C26.5664 20.2178 26.6233 20.3906 26.6142 20.5663L26.492 22.9268C26.4654 23.4396 26.9786 23.8077 27.4557 23.618L29.6187 22.7583C29.7859 22.6918 29.9721 22.6918 30.1392 22.7583L32.3023 23.618C32.7794 23.8077 33.2926 23.4396 33.266 22.9268L33.1437 20.5663C33.1346 20.3906 33.1916 20.2178 33.3034 20.082L34.7648 18.3069C35.0882 17.9141 34.9013 17.3185 34.4115 17.1808L32.141 16.5429C31.9778 16.497 31.8366 16.3939 31.7433 16.2524L30.4671 14.3167C30.1888 13.8944 29.5692 13.8944 29.2907 14.3167L28.0146 16.2524C27.9213 16.3939 27.7801 16.4971 27.6169 16.5429L25.3464 17.1809C24.8565 17.3185 24.6697 17.9141 24.9931 18.307L26.4546 20.082Z" fill="#773BD9"/>
<path d="M23.3872 22.4223C23.7689 22.0407 23.7689 21.4219 23.3872 21.0403L19.5179 17.171C19.1363 16.7894 18.5175 16.7894 18.1359 17.171C17.7542 17.5525 17.7542 18.1714 18.1359 18.553L22.0052 22.4223C22.3868 22.804 23.0056 22.8039 23.3872 22.4223Z" fill="#773BD9"/>
<path d="M41.8657 17.171C41.4841 16.7894 40.8653 16.7894 40.4837 17.171L36.6144 21.0403C36.2327 21.4219 36.2327 22.0407 36.6144 22.4223C36.996 22.804 37.6148 22.804 37.9964 22.4223L41.8657 18.553C42.2474 18.1714 42.2474 17.5526 41.8657 17.171Z" fill="#773BD9"/>
</g>
<defs>
<clipPath id="clip0_177_4628">
<rect width="32" height="32" fill="white" transform="translate(14 14)"/>
</clipPath>
</defs>
</svg>
