<svg width="14" height="14" viewBox="0 0 14 14" fill="none" xmlns="http://www.w3.org/2000/svg">
<path fill-rule="evenodd" clip-rule="evenodd" d="M1.62296 0.278418C1.25175 -0.0928063 0.649903 -0.092806 0.278694 0.278419C-0.0925147 0.649643 -0.0925162 1.25152 0.278693 1.62274L5.65576 7.00003L0.278407 12.3776C-0.0928023 12.7488 -0.0928021 13.3507 0.278407 13.7219C0.649616 14.0932 1.25146 14.0932 1.62267 13.7219L7.00002 8.34436L12.3771 13.7217C12.7483 14.0929 13.3502 14.0929 13.7214 13.7217C14.0926 13.3504 14.0926 12.7486 13.7214 12.3773L8.34429 7.00003L13.7211 1.62302C14.0923 1.2518 14.0923 0.649922 13.7211 0.278698C13.3499 -0.0925268 12.748 -0.0925284 12.3768 0.278696L7.00002 5.65571L1.62296 0.278418Z" fill="#773BD9"/>
</svg>
