<svg width="80" height="30" viewBox="0 0 80 30" fill="none" xmlns="http://www.w3.org/2000/svg">
<path d="M80 27.0505L80 3.05794C80 1.42969 80 1.5 79.9998 1.46945e-05L1.93315 -3.40948e-06C1.40902 -3.43237e-06 0.972191 0.147709 0.634705 0.385772C0.231255 0.670472 7.58001e-06 1.12888 0.000167776 1.62045C0.000167755 2.0852 0.204452 2.58001 0.589928 3.03696L10.0917 13.9816C10.3248 14.2579 10.4583 14.6547 10.4583 15.0673C10.4583 15.4797 10.3248 15.8757 10.0911 16.1528L0.591056 27.0675C0.204459 27.5261 -1.22439e-06 27.9868 -1.24469e-06 28.4507C-1.27901e-06 29.2353 0.59764 30 1.933 30L79.9998 30C80 28 80 28.6787 80 27.0505Z" fill="url(#paint0_linear_177_4207)"/>
<path d="M26.4304 20.182C25.7677 20.182 25.1447 20.0513 24.5614 19.79C23.978 19.524 23.4647 19.1577 23.0214 18.691C22.578 18.2243 22.2304 17.6853 21.9784 17.074C21.7264 16.458 21.6004 15.8 21.6004 15.1C21.6004 14.4 21.7264 13.7443 21.9784 13.133C22.2304 12.517 22.578 11.9757 23.0214 11.509C23.4647 11.0423 23.978 10.6783 24.5614 10.417C25.1447 10.151 25.7677 10.018 26.4304 10.018C27.0977 10.018 27.723 10.151 28.3064 10.417C28.8897 10.6783 29.403 11.0423 29.8464 11.509C30.2897 11.9757 30.635 12.517 30.8824 13.133C31.1344 13.7443 31.2604 14.4 31.2604 15.1C31.2604 15.8 31.1344 16.458 30.8824 17.074C30.635 17.6853 30.2897 18.2243 29.8464 18.691C29.403 19.1577 28.8897 19.524 28.3064 19.79C27.723 20.0513 27.0977 20.182 26.4304 20.182ZM26.4304 18.726C26.897 18.726 27.3334 18.6303 27.7394 18.439C28.1454 18.2477 28.5024 17.9863 28.8104 17.655C29.123 17.319 29.3657 16.934 29.5384 16.5C29.7157 16.0613 29.8044 15.5947 29.8044 15.1C29.8044 14.6053 29.7157 14.1387 29.5384 13.7C29.3657 13.2613 29.123 12.8763 28.8104 12.545C28.5024 12.209 28.1454 11.9477 27.7394 11.761C27.3334 11.5697 26.897 11.474 26.4304 11.474C25.9637 11.474 25.5274 11.5697 25.1214 11.761C24.7154 11.9523 24.356 12.216 24.0434 12.552C23.7354 12.8833 23.4927 13.2683 23.3154 13.707C23.1427 14.141 23.0564 14.6053 23.0564 15.1C23.0564 15.5993 23.1427 16.0683 23.3154 16.507C23.4927 16.941 23.7354 17.326 24.0434 17.662C24.356 17.9933 24.7154 18.2547 25.1214 18.446C25.5274 18.6327 25.9637 18.726 26.4304 18.726ZM38.8991 15.611V20H37.4431V15.968C37.4431 15.6553 37.3661 15.3707 37.2121 15.114C37.0628 14.8573 36.8598 14.6543 36.6031 14.505C36.3511 14.351 36.0665 14.274 35.7491 14.274C35.4411 14.274 35.1588 14.351 34.9021 14.505C34.6455 14.6543 34.4401 14.8573 34.2861 15.114C34.1321 15.3707 34.0551 15.6553 34.0551 15.968V20H32.5991V13H34.0551V13.742C34.2978 13.4527 34.5965 13.224 34.9511 13.056C35.3058 12.888 35.6885 12.804 36.0991 12.804C36.6171 12.804 37.0885 12.93 37.5131 13.182C37.9378 13.434 38.2738 13.7723 38.5211 14.197C38.7731 14.6217 38.8991 15.093 38.8991 15.611ZM45.7597 20.133C45.391 20.1097 45.0317 20.035 44.6817 19.909C44.3317 19.783 44.0237 19.6127 43.7577 19.398C43.4963 19.1787 43.3003 18.922 43.1697 18.628L44.4087 18.096C44.4693 18.222 44.5743 18.3457 44.7237 18.467C44.8777 18.5883 45.0573 18.6887 45.2627 18.768C45.468 18.8427 45.6827 18.88 45.9067 18.88C46.126 18.88 46.329 18.8497 46.5157 18.789C46.707 18.7237 46.8633 18.6257 46.9847 18.495C47.106 18.3643 47.1667 18.208 47.1667 18.026C47.1667 17.8207 47.0967 17.662 46.9567 17.55C46.8213 17.4333 46.651 17.3447 46.4457 17.284C46.2403 17.2233 46.035 17.165 45.8297 17.109C45.3723 17.0063 44.9523 16.8663 44.5697 16.689C44.1917 16.507 43.8907 16.276 43.6667 15.996C43.4427 15.7113 43.3307 15.3637 43.3307 14.953C43.3307 14.505 43.452 14.1177 43.6947 13.791C43.9373 13.4597 44.2547 13.2053 44.6467 13.028C45.0433 12.8507 45.4657 12.762 45.9137 12.762C46.4737 12.762 46.987 12.881 47.4537 13.119C47.9203 13.357 48.2773 13.6837 48.5247 14.099L47.3697 14.785C47.2997 14.645 47.1947 14.519 47.0547 14.407C46.9147 14.295 46.756 14.2063 46.5787 14.141C46.4013 14.071 46.217 14.0313 46.0257 14.022C45.7877 14.0127 45.566 14.0407 45.3607 14.106C45.16 14.1667 44.999 14.2647 44.8777 14.4C44.7563 14.5353 44.6957 14.708 44.6957 14.918C44.6957 15.1233 44.768 15.2773 44.9127 15.38C45.0573 15.478 45.2393 15.5573 45.4587 15.618C45.6827 15.6787 45.9113 15.7463 46.1447 15.821C46.56 15.9517 46.9497 16.1127 47.3137 16.304C47.6777 16.4907 47.9717 16.7217 48.1957 16.997C48.4197 17.2723 48.527 17.6083 48.5177 18.005C48.5177 18.4437 48.3847 18.8287 48.1187 19.16C47.8573 19.4913 47.5167 19.7433 47.0967 19.916C46.6767 20.0887 46.231 20.161 45.7597 20.133ZM55.0666 13H56.5226V20H55.0596L55.0036 18.985C54.7983 19.3443 54.5206 19.6337 54.1706 19.853C53.8206 20.0723 53.4076 20.182 52.9316 20.182C52.4183 20.182 51.9353 20.0863 51.4826 19.895C51.0299 19.699 50.6309 19.4283 50.2856 19.083C49.9449 18.7377 49.6789 18.341 49.4876 17.893C49.2963 17.4403 49.2006 16.955 49.2006 16.437C49.2006 15.9377 49.2939 15.4687 49.4806 15.03C49.6673 14.5867 49.9263 14.1993 50.2576 13.868C50.5889 13.5367 50.9716 13.2777 51.4056 13.091C51.8443 12.8997 52.3133 12.804 52.8126 12.804C53.3213 12.804 53.7693 12.9207 54.1566 13.154C54.5486 13.3827 54.8729 13.6767 55.1296 14.036L55.0666 13ZM52.8966 18.775C53.3073 18.775 53.6666 18.6747 53.9746 18.474C54.2826 18.2687 54.5206 17.9933 54.6886 17.648C54.8613 17.3027 54.9476 16.92 54.9476 16.5C54.9476 16.0753 54.8613 15.6903 54.6886 15.345C54.5159 14.9997 54.2756 14.7267 53.9676 14.526C53.6643 14.3207 53.3073 14.218 52.8966 14.218C52.4906 14.218 52.1196 14.3207 51.7836 14.526C51.4476 14.7313 51.1816 15.0067 50.9856 15.352C50.7896 15.6973 50.6916 16.08 50.6916 16.5C50.6916 16.9247 50.7919 17.3097 50.9926 17.655C51.1979 17.9957 51.4663 18.2687 51.7976 18.474C52.1336 18.6747 52.4999 18.775 52.8966 18.775ZM57.9741 20V9.5H59.4301V20H57.9741ZM64.0893 20.182C63.4453 20.182 62.8573 20.0163 62.3253 19.685C61.7979 19.3537 61.3756 18.9103 61.0583 18.355C60.7456 17.795 60.5893 17.1767 60.5893 16.5C60.5893 15.9867 60.6803 15.5083 60.8623 15.065C61.0443 14.617 61.2939 14.225 61.6113 13.889C61.9333 13.5483 62.3066 13.2823 62.7313 13.091C63.1559 12.8997 63.6086 12.804 64.0893 12.804C64.6259 12.804 65.1183 12.916 65.5663 13.14C66.0143 13.3593 66.3969 13.665 66.7143 14.057C67.0316 14.4443 67.2649 14.8923 67.4143 15.401C67.5636 15.905 67.6079 16.4417 67.5473 17.011H62.1503C62.2109 17.333 62.3276 17.6247 62.5003 17.886C62.6776 18.1427 62.9016 18.3457 63.1723 18.495C63.4476 18.6443 63.7533 18.7213 64.0893 18.726C64.4439 18.726 64.7659 18.6373 65.0553 18.46C65.3493 18.2827 65.5896 18.0377 65.7763 17.725L67.2533 18.068C66.9733 18.6887 66.5509 19.1973 65.9863 19.594C65.4216 19.986 64.7893 20.182 64.0893 20.182ZM62.1013 15.898H66.0773C66.0306 15.562 65.9116 15.2587 65.7203 14.988C65.5336 14.7127 65.2979 14.4957 65.0133 14.337C64.7333 14.1737 64.4253 14.092 64.0893 14.092C63.7579 14.092 63.4499 14.1713 63.1653 14.33C62.8853 14.4887 62.6519 14.7057 62.4653 14.981C62.2833 15.2517 62.1619 15.5573 62.1013 15.898Z" fill="white"/>
<defs>
<linearGradient id="paint0_linear_177_4207" x1="80" y1="0" x2="60.274" y2="52.6027" gradientUnits="userSpaceOnUse">
<stop stop-color="#8922D3"/>
<stop offset="1" stop-color="#D2324B"/>
</linearGradient>
</defs>
</svg>
