<svg width="24" height="24" viewBox="0 0 24 24" fill="none" xmlns="http://www.w3.org/2000/svg">
<path d="M19 18H19.5V17.5V7V6.5H19H5H4.5V7V17.5V18H5H19Z" stroke="white"/>
<path d="M6.75 13.9604V15.7104H17.25V14.8354C17.25 14.8354 17.425 13.3479 15.5 13.0854C13.8375 12.8229 13.575 13.6104 12.175 13.6104C11.2125 13.6104 11.3875 12.2104 9.375 12.2104C7.8875 12.2104 6.75 13.9604 6.75 13.9604ZM16.375 10.4604C16.3803 10.6935 16.3389 10.9252 16.2534 11.1421C16.1679 11.3589 16.0399 11.5565 15.8769 11.7232C15.714 11.8899 15.5194 12.0224 15.3046 12.1129C15.0897 12.2033 14.859 12.2499 14.6259 12.25C14.3928 12.2501 14.162 12.2035 13.9471 12.1132C13.7322 12.0228 13.5376 11.8905 13.3746 11.7238C13.2115 11.5572 13.0835 11.3597 12.9978 11.1429C12.9122 10.9261 12.8707 10.6944 12.8759 10.4613C12.886 10.0041 13.0747 9.56896 13.4016 9.24911C13.7285 8.92927 14.1677 8.75011 14.625 8.75C15.0824 8.74989 15.5216 8.92882 15.8487 9.2485C16.1757 9.56818 16.3647 10.0032 16.375 10.4604Z" fill="white"/>
</svg>
