<svg width="24" height="24" viewBox="0 0 24 24" fill="none" xmlns="http://www.w3.org/2000/svg">
<path fill-rule="evenodd" clip-rule="evenodd" d="M10.1955 5H13.8045C17.2064 5 18.9073 5 19.9648 6.05478C20.6938 6.78016 20.9197 7.81064 20.9908 9.49C21.0043 9.82299 21.0115 9.99039 20.9494 10.1011C20.8864 10.2118 20.6389 10.3513 20.1421 10.6285C19.8623 10.7845 19.6292 11.0124 19.4669 11.2886C19.3046 11.5649 19.2191 11.8795 19.2191 12.1998C19.2191 12.5202 19.3046 12.8348 19.4669 13.111C19.6292 13.3873 19.8623 13.6152 20.1421 13.7712C20.6389 14.0493 20.8873 14.1879 20.9494 14.2986C21.0115 14.4093 21.0043 14.5758 20.9899 14.9088C20.9197 16.589 20.6929 17.6195 19.9648 18.3449C18.9082 19.3997 17.2073 19.3997 13.8045 19.3997H10.1955C6.79362 19.3997 5.09266 19.3997 4.03518 18.3449C3.3062 17.6195 3.08031 16.589 3.00921 14.9097C2.99571 14.5767 2.98851 14.4093 3.05061 14.2986C3.1136 14.1879 3.3611 14.0493 3.85789 13.7712C4.13772 13.6152 4.37082 13.3873 4.53309 13.111C4.69536 12.8348 4.78092 12.5202 4.78092 12.1998C4.78092 11.8795 4.69536 11.5649 4.53309 11.2886C4.37082 11.0124 4.13772 10.7845 3.85789 10.6285C3.3611 10.3513 3.1127 10.2118 3.05061 10.1011C2.98851 9.99039 2.99571 9.82389 3.01011 9.49C3.08031 7.81064 3.3071 6.78106 4.03518 6.05478C5.09176 5 6.79272 5 10.1955 5ZM15.1931 9.02291C15.2558 9.08551 15.3056 9.15987 15.3395 9.24171C15.3734 9.32356 15.3909 9.41129 15.3909 9.4999C15.3909 9.5885 15.3734 9.67623 15.3395 9.75808C15.3056 9.83993 15.2558 9.91428 15.1931 9.97688L9.77975 15.3768C9.65273 15.5033 9.48073 15.5744 9.30141 15.5744C9.1221 15.5744 8.95009 15.5033 8.82307 15.3768C8.76038 15.3142 8.71064 15.2398 8.6767 15.158C8.64277 15.0761 8.6253 14.9884 8.6253 14.8998C8.6253 14.8112 8.64277 14.7234 8.6767 14.6416C8.71064 14.5597 8.76038 14.4854 8.82307 14.4228L14.2355 9.02291C14.3626 8.89607 14.5348 8.82482 14.7143 8.82482C14.8939 8.82482 15.0661 8.89607 15.1931 9.02291ZM14.2634 15.3498C14.385 15.3552 14.5064 15.3359 14.6204 15.2932C14.7343 15.2504 14.8384 15.185 14.9263 15.1009C15.0143 15.0168 15.0843 14.9157 15.1321 14.8038C15.1799 14.6919 15.2046 14.5715 15.2046 14.4498C15.2046 14.3281 15.1799 14.2077 15.1321 14.0958C15.0843 13.9838 15.0143 13.8828 14.9263 13.7987C14.8384 13.7146 14.7343 13.6492 14.6204 13.6064C14.5064 13.5636 14.385 13.5444 14.2634 13.5498C13.7649 13.5498 13.3608 13.953 13.3608 14.4498C13.3608 14.9466 13.7658 15.3498 14.2634 15.3498ZM9.75185 10.8499C10.2504 10.8499 10.6545 10.4467 10.6545 9.94989C10.6545 9.4531 10.2504 9.04991 9.75185 9.04991C9.63028 9.04447 9.50886 9.06372 9.39493 9.10649C9.28101 9.14927 9.17692 9.21468 9.08897 9.29879C9.00102 9.3829 8.93102 9.48395 8.88319 9.59585C8.83537 9.70776 8.81071 9.82819 8.81071 9.94989C8.81071 10.0716 8.83537 10.192 8.88319 10.3039C8.93102 10.4158 9.00102 10.5169 9.08897 10.601C9.17692 10.6851 9.28101 10.7505 9.39493 10.7933C9.50886 10.8361 9.63028 10.8553 9.75185 10.8499Z" fill="#0170B9"/>
</svg>
