<svg width="95" height="20" viewBox="0 0 95 20" fill="none" xmlns="http://www.w3.org/2000/svg">
<path d="M93.5015 13.6355C93.3967 13.6355 93.2943 13.6666 93.2071 13.7248C93.12 13.7831 93.0521 13.8658 93.012 13.9626C92.9719 14.0595 92.9614 14.166 92.9818 14.2688C93.0023 14.3716 93.0527 14.466 93.1268 14.5401C93.201 14.6142 93.2954 14.6646 93.3981 14.6851C93.5009 14.7055 93.6075 14.695 93.7043 14.6549C93.8011 14.6148 93.8839 14.5469 93.9421 14.4598C94.0003 14.3726 94.0314 14.2702 94.0314 14.1654C94.031 14.025 93.9751 13.8904 93.8758 13.7912C93.7765 13.6919 93.6419 13.6359 93.5015 13.6355ZM93.5015 14.6084C93.4134 14.6084 93.3272 14.5822 93.2539 14.5332C93.1806 14.4843 93.1234 14.4146 93.0897 14.3332C93.056 14.2517 93.0471 14.1621 93.0643 14.0756C93.0815 13.9892 93.124 13.9097 93.1863 13.8474C93.2487 13.7851 93.3281 13.7426 93.4146 13.7254C93.501 13.7082 93.5906 13.717 93.6721 13.7508C93.7535 13.7845 93.8232 13.8417 93.8721 13.915C93.9211 13.9883 93.9473 14.0744 93.9473 14.1626C93.9473 14.2212 93.9359 14.2792 93.9135 14.3333C93.8911 14.3874 93.8583 14.4366 93.8169 14.478C93.7755 14.5194 93.7263 14.5522 93.6722 14.5746C93.6181 14.5969 93.5601 14.6084 93.5015 14.6084ZM93.6725 14.0729C93.6725 13.9776 93.6052 13.9187 93.5043 13.9187H93.3361V14.4009H93.4174V14.2271H93.5071L93.594 14.4009H93.6837L93.5884 14.2075C93.6149 14.1968 93.6373 14.1781 93.6524 14.1539C93.6675 14.1297 93.6746 14.1013 93.6725 14.0729ZM93.5015 14.1514H93.4202V13.9916H93.5015C93.5576 13.9916 93.5912 14.0196 93.5912 14.0701C93.5912 14.1206 93.5548 14.1514 93.5015 14.1514ZM29.8121 8.28651V7.00813H27.8525V14.614H29.8121V10.0527C29.8121 9.22568 30.342 8.82198 31.169 8.82198H32.2428V7.00813H31.326C30.6083 7.00813 29.9832 7.38099 29.8121 8.28651ZM34.0762 4C33.4062 4 32.8904 4.52986 32.8904 5.19989C32.8904 5.35562 32.921 5.50982 32.9806 5.6537C33.0402 5.79758 33.1276 5.92831 33.2377 6.03843C33.3478 6.14854 33.4785 6.23589 33.6224 6.29549C33.7663 6.35508 33.9205 6.38576 34.0762 6.38576C34.232 6.38576 34.3862 6.35508 34.53 6.29549C34.6739 6.23589 34.8047 6.14854 34.9148 6.03843C35.0249 5.92831 35.1122 5.79758 35.1718 5.6537C35.2314 5.50982 35.2621 5.35562 35.2621 5.19989C35.2621 4.52986 34.7491 4 34.0762 4ZM33.1006 14.614H35.0575V7.00813H33.1006V14.614ZM44.3706 10.8096C44.3703 11.852 43.9561 12.8515 43.2191 13.5886C42.482 14.3256 41.4825 14.7398 40.4401 14.7401C39.6071 14.7447 38.7959 14.4736 38.1329 13.9692V16.8455H36.176V7.00813H38.1329V7.65293C38.7961 7.14887 39.6071 6.87786 40.4401 6.88197C40.9562 6.88157 41.4672 6.98286 41.9441 7.18007C42.421 7.37727 42.8543 7.66653 43.2193 8.03129C43.5843 8.39605 43.8739 8.82917 44.0714 9.3059C44.269 9.78263 44.3706 10.2936 44.3706 10.8096ZM42.4026 10.8096C42.4026 10.3871 42.2773 9.97411 42.0425 9.62281C41.8078 9.27151 41.4742 8.9977 41.0838 8.83601C40.6935 8.67432 40.2639 8.63201 39.8495 8.71444C39.4352 8.79687 39.0545 9.00033 38.7558 9.29909C38.457 9.59785 38.2535 9.97849 38.1711 10.3929C38.0887 10.8073 38.131 11.2368 38.2927 11.6272C38.4544 12.0175 38.7282 12.3511 39.0795 12.5859C39.4308 12.8206 39.8438 12.9459 40.2663 12.9459C40.5469 12.946 40.8247 12.8908 41.0839 12.7834C41.3431 12.6761 41.5786 12.5187 41.777 12.3204C41.9754 12.122 42.1328 11.8865 42.2401 11.6272C42.3474 11.368 42.4026 11.0902 42.4026 10.8096ZM78.3599 10.1424L77.2189 9.82843C76.4676 9.63218 76.176 9.4023 76.176 9.00701C76.176 8.62013 76.5881 8.351 77.1741 8.351C77.7348 8.351 78.1721 8.71825 78.1721 9.18643V9.23129H79.9747V9.18643C79.9747 7.80712 78.8505 6.87917 77.1741 6.87917C75.5144 6.87917 74.3089 7.80432 74.3089 9.0827C74.3089 10.0751 74.9677 10.8237 76.1172 11.1348L77.2105 11.432C78.0403 11.6619 78.3487 11.917 78.3487 12.374C78.3487 12.8562 77.903 13.1786 77.2385 13.1786C76.5461 13.1786 76.0807 12.7412 76.0807 12.0908V12.046H74.1687V12.0908C74.1687 13.6496 75.4247 14.7401 77.2245 14.7401C78.9571 14.7401 80.2158 13.6748 80.2158 12.2086C80.2158 11.4937 79.8934 10.5517 78.3599 10.1424ZM51.3064 7.00813H53.2632V14.614H51.3064V13.9692C50.6432 14.4732 49.8321 14.7442 48.9991 14.7401C47.9567 14.7401 46.957 14.326 46.2199 13.5889C45.4828 12.8518 45.0687 11.8521 45.0687 10.8096C45.0687 9.76722 45.4828 8.76749 46.2199 8.03038C46.957 7.29327 47.9567 6.87917 48.9991 6.87917C49.8322 6.87462 50.6434 7.14567 51.3064 7.65013V7.00813ZM51.3064 10.8096C51.3064 10.3871 51.1811 9.97411 50.9464 9.62281C50.7116 9.27151 50.378 8.9977 49.9877 8.83601C49.5973 8.67432 49.1678 8.63201 48.7534 8.71444C48.339 8.79687 47.9584 9.00033 47.6596 9.29909C47.3608 9.59785 47.1574 9.97849 47.0749 10.3929C46.9925 10.8073 47.0348 11.2368 47.1965 11.6272C47.3582 12.0175 47.632 12.3511 47.9833 12.5859C48.3346 12.8206 48.7476 12.9459 49.1701 12.9459C49.4507 12.946 49.7285 12.8908 49.9877 12.7834C50.247 12.6761 50.4825 12.5187 50.6809 12.3204C50.8793 12.122 51.0366 11.8865 51.1439 11.6272C51.2513 11.368 51.3065 11.0902 51.3064 10.8096ZM60.3252 4.29997H62.282V14.614H60.3252V13.9692C59.662 14.4732 58.8509 14.7442 58.0179 14.7401C56.9755 14.7401 55.9758 14.326 55.2387 13.5889C54.5015 12.8518 54.0874 11.8521 54.0874 10.8096C54.0874 9.76722 54.5015 8.76749 55.2387 8.03038C55.9758 7.29327 56.9755 6.87917 58.0179 6.87917C58.8509 6.87506 59.662 7.14607 60.3252 7.65013V4.29997ZM60.3252 10.8096C60.3252 10.3871 60.1999 9.97411 59.9652 9.62281C59.7304 9.27151 59.3968 8.9977 59.0064 8.83601C58.6161 8.67432 58.1866 8.63201 57.7722 8.71444C57.3578 8.79687 56.9771 9.00033 56.6784 9.29909C56.3796 9.59785 56.1762 9.97849 56.0937 10.3929C56.0113 10.8073 56.0536 11.2368 56.2153 11.6272C56.377 12.0175 56.6508 12.3511 57.0021 12.5859C57.3534 12.8206 57.7664 12.9459 58.1889 12.9459C58.4695 12.946 58.7473 12.8908 59.0065 12.7834C59.2657 12.6761 59.5013 12.5187 59.6997 12.3204C59.898 12.122 60.0554 11.8865 60.1627 11.6272C60.2701 11.368 60.3253 11.0902 60.3252 10.8096ZM71.3597 14.614H73.3165V7.00813H71.3597V14.614ZM72.3381 4C71.668 4 71.1522 4.52986 71.1522 5.19989C71.1522 5.5144 71.2771 5.81603 71.4995 6.03843C71.7219 6.26082 72.0236 6.38576 72.3381 6.38576C72.6526 6.38576 72.9542 6.26082 73.1766 6.03843C73.399 5.81603 73.5239 5.5144 73.5239 5.19989C73.5211 4.52986 73.0081 4 72.3381 4ZM88.6683 10.8096C88.6683 11.587 88.4378 12.3469 88.0059 12.9933C87.574 13.6397 86.9602 14.1434 86.242 14.4409C85.5238 14.7384 84.7335 14.8163 83.9711 14.6646C83.2086 14.5129 82.5083 14.1386 81.9586 13.5889C81.4089 13.0392 81.0346 12.3389 80.8829 11.5764C80.7312 10.814 80.8091 10.0237 81.1066 9.30552C81.4041 8.58732 81.9078 7.97346 82.5542 7.54157C83.2006 7.10969 83.9605 6.87917 84.7378 6.87917C85.7802 6.87947 86.7797 7.29366 87.5168 8.03071C88.2538 8.76775 88.668 9.76731 88.6683 10.8096ZM86.8713 10.8096C86.8713 10.3871 86.746 9.97411 86.5113 9.62281C86.2765 9.27151 85.9429 8.9977 85.5526 8.83601C85.1622 8.67432 84.7327 8.63201 84.3183 8.71444C83.9039 8.79687 83.5233 9.00033 83.2245 9.29909C82.9257 9.59785 82.7223 9.97849 82.6398 10.3929C82.5574 10.8073 82.5997 11.2368 82.7614 11.6272C82.9231 12.0175 83.1969 12.3511 83.5482 12.5859C83.8995 12.8206 84.3125 12.9459 84.735 12.9459C85.0156 12.946 85.2934 12.8908 85.5526 12.7834C85.8119 12.6761 86.0474 12.5187 86.2458 12.3204C86.4441 12.122 86.6015 11.8865 86.7088 11.6272C86.8162 11.368 86.8714 11.0902 86.8713 10.8096ZM28.8113 4.29997H21.3092V6.04373H24.0874V14.6112H26.0359V6.04373H28.8141L28.8113 4.29997ZM66.7479 12.531L65.007 7.00813H62.9548L65.5649 14.614H67.917L70.541 7.00813H68.4861L66.7479 12.531ZM91.5335 8.28651V7.00813H89.5738V14.614H91.5335V10.0527C91.5335 9.22568 92.0633 8.82198 92.8904 8.82198H93.9641V7.00813H93.0473C92.3269 7.00813 91.7045 7.38099 91.5335 8.28651Z" fill="black"/>
<path d="M10 20C15.5228 20 20 15.5228 20 10C20 4.47715 15.5228 0 10 0C4.47715 0 0 4.47715 0 10C0 15.5228 4.47715 20 10 20Z" fill="#34E0A1"/>
<path d="M16.176 8.04876L17.3815 6.73674H14.707C13.3205 5.7924 11.6817 5.28735 10.0042 5.28735C8.32659 5.28735 6.68787 5.7924 5.30134 6.73674H2.61841L3.8239 8.04876C3.46716 8.37661 3.17848 8.77151 2.97435 9.21092C2.77022 9.65033 2.65464 10.1256 2.63421 10.6097C2.61377 11.0938 2.68888 11.5772 2.85525 12.0322C3.02162 12.4873 3.27599 12.9051 3.60383 13.2618C3.93168 13.6186 4.32657 13.9072 4.76598 14.1114C5.20539 14.3155 5.68071 14.4311 6.16478 14.4515C6.64886 14.472 7.13222 14.3968 7.58727 14.2305C8.04232 14.0641 8.46015 13.8097 8.8169 13.4819L9.99996 14.7687L11.183 13.4819C11.5388 13.8153 11.9571 14.075 12.4138 14.2458C12.8705 14.4166 13.3565 14.4952 13.8437 14.477C14.331 14.4588 14.8098 14.3443 15.2525 14.1399C15.6952 13.9356 16.093 13.6455 16.423 13.2865C16.7529 12.9275 17.0084 12.5067 17.1747 12.0483C17.341 11.59 17.4148 11.1032 17.3918 10.6161C17.3689 10.1291 17.2496 9.65143 17.0409 9.21076C16.8322 8.77008 16.5383 8.37514 16.176 8.04876ZM6.31059 13.2716C5.8171 13.2716 5.3347 13.1253 4.92439 12.8511C4.51407 12.577 4.19427 12.1873 4.00542 11.7314C3.81657 11.2755 3.76716 10.7738 3.86344 10.2898C3.95971 9.80577 4.19734 9.36119 4.54629 9.01225C4.89523 8.6633 5.33982 8.42567 5.82382 8.3294C6.30782 8.23312 6.8095 8.28253 7.26542 8.47138C7.72134 8.66023 8.11102 8.98003 8.38518 9.39035C8.65935 9.80066 8.80568 10.2831 8.80568 10.7765C8.80568 11.4383 8.54281 12.0729 8.07488 12.5408C7.60696 13.0088 6.97233 13.2716 6.31059 13.2716ZM9.99996 10.7009C9.99996 9.05801 8.80568 7.64787 7.22732 7.04512C8.10529 6.6787 9.0472 6.49003 9.99856 6.49003C10.9499 6.49003 11.8918 6.6787 12.7698 7.04512C11.1942 7.65067 9.99996 9.05801 9.99996 10.7009ZM13.6893 13.2716C13.1959 13.2716 12.7135 13.1253 12.3031 12.8511C11.8928 12.577 11.573 12.1873 11.3842 11.7314C11.1953 11.2755 11.1459 10.7738 11.2422 10.2898C11.3385 9.80577 11.5761 9.36119 11.925 9.01225C12.274 8.6633 12.7186 8.42567 13.2026 8.3294C13.6866 8.23312 14.1882 8.28253 14.6442 8.47138C15.1001 8.66023 15.4898 8.98003 15.7639 9.39035C16.0381 9.80066 16.1844 10.2831 16.1844 10.7765C16.1844 11.4383 15.9216 12.0729 15.4536 12.5408C14.9857 13.0088 14.3511 13.2716 13.6893 13.2716ZM13.6893 9.46452C13.4304 9.46452 13.1773 9.5413 12.962 9.68516C12.7467 9.82902 12.5789 10.0335 12.4798 10.2727C12.3807 10.512 12.3548 10.7752 12.4053 11.0292C12.4558 11.2831 12.5805 11.5164 12.7636 11.6995C12.9467 11.8826 13.18 12.0073 13.4339 12.0578C13.6879 12.1083 13.9511 12.0824 14.1904 11.9833C14.4296 11.8842 14.6341 11.7164 14.7779 11.5011C14.9218 11.2858 14.9986 11.0327 14.9986 10.7737C14.9986 10.6018 14.9648 10.4315 14.899 10.2727C14.8332 10.1138 14.7368 9.96948 14.6152 9.8479C14.4936 9.72632 14.3493 9.62988 14.1904 9.5641C14.0315 9.49832 13.8613 9.46448 13.6893 9.46452ZM7.61981 10.7737C7.61981 11.0327 7.54303 11.2858 7.39917 11.5011C7.25531 11.7164 7.05083 11.8842 6.81161 11.9833C6.57238 12.0824 6.30913 12.1083 6.05517 12.0578C5.80121 12.0073 5.56792 11.8826 5.38483 11.6995C5.20173 11.5164 5.07704 11.2831 5.02652 11.0292C4.976 10.7752 5.00193 10.512 5.10102 10.2727C5.20011 10.0335 5.36792 9.82902 5.58322 9.68516C5.79852 9.5413 6.05165 9.46452 6.31059 9.46452C6.48253 9.46448 6.65279 9.49832 6.81165 9.5641C6.97051 9.62988 7.11485 9.72632 7.23643 9.8479C7.35801 9.96948 7.45444 10.1138 7.52023 10.2727C7.58601 10.4315 7.61985 10.6018 7.61981 10.7737Z" fill="black"/>
</svg>
