<svg width="36" height="36" viewBox="0 0 36 36" fill="none" xmlns="http://www.w3.org/2000/svg">
<path d="M13.6055 3.30458L9.60938 9.7162H3.75C2.51647 9.7162 1.5 10.7327 1.5 11.9662V13.4662C1.5 14.6997 2.51647 15.7162 3.75 15.7162H4.22461L6.21679 29.5355C6.3461 30.432 6.71286 31.2694 7.31396 31.9071C7.91507 32.5448 8.77432 32.9662 9.75 32.9662H17.0449C17.4591 32.9662 17.7949 32.6304 17.7949 32.2162C17.7949 31.802 17.4591 31.4662 17.0449 31.4662H9.75C9.18478 31.4662 8.75932 31.2544 8.40527 30.8788C8.05123 30.5032 7.79255 29.9484 7.70215 29.3217L5.73925 15.7206H30.2607L29.477 21.1449C29.4187 21.5546 29.7032 21.9342 30.1128 21.9931C30.5225 22.0524 30.9028 21.7685 30.9624 21.3588L31.7754 15.7162H32.25C33.4835 15.7162 34.5 14.6997 34.5 13.4662V11.9662C34.5 10.7327 33.4835 9.7162 32.25 9.7162H26.3906L22.3945 3.30458C22.1601 2.96104 21.7167 2.88097 21.356 3.08925C21.0092 3.31611 20.9121 3.78118 21.1392 4.12783L24.6226 9.7162H11.3774L14.8608 4.12783C15.0879 3.78118 14.9908 3.31611 14.644 3.08925C14.2641 2.87005 13.8018 2.99437 13.6055 3.30458ZM3.75 11.2162H32.25C32.6785 11.2162 33 11.5377 33 11.9662V13.4662C33 13.8947 32.6785 14.2162 32.25 14.2162H3.75C3.32152 14.2162 3 13.8947 3 13.4662V11.9662C3 11.5377 3.32152 11.2162 3.75 11.2162Z" fill="#212121"/>
<path d="M23.25 19.5248C19.531 19.5248 16.5 22.5557 16.5 26.2748C16.5 29.9938 19.531 33.0248 23.25 33.0248C26.969 33.0248 30 29.9938 30 26.2748C30 22.5557 26.969 19.5248 23.25 19.5248ZM23.25 21.0248C26.1584 21.0248 28.5 23.3664 28.5 26.2748C28.5 29.1832 26.1584 31.5248 23.25 31.5248C20.3416 31.5248 18 29.1832 18 26.2748C18 23.3664 20.3416 21.0248 23.25 21.0248Z" fill="#212121"/>
<path d="M23.25 23.2162C23.0511 23.2162 22.8603 23.2952 22.7197 23.4359C22.579 23.5765 22.5 23.7673 22.5 23.9662V25.5248H20.9414C20.7425 25.5248 20.5517 25.6038 20.4111 25.7444C20.2704 25.8851 20.1914 26.0759 20.1914 26.2748C20.1914 26.4737 20.2704 26.6645 20.4111 26.8051C20.5517 26.9458 20.7425 27.0248 20.9414 27.0248H22.5V28.5819C22.5 28.7808 22.579 28.9716 22.7197 29.1122C22.8603 29.2529 23.0511 29.3319 23.25 29.3319C23.4489 29.3319 23.6397 29.2529 23.7803 29.1122C23.921 28.9716 24 28.7808 24 28.5819V27.0248H25.5586C25.7575 27.0248 25.9483 26.9458 26.0889 26.8051C26.2296 26.6645 26.3086 26.4737 26.3086 26.2748C26.3086 26.0759 26.2296 25.8851 26.0889 25.7444C25.9483 25.6038 25.7575 25.5248 25.5586 25.5248H24V23.9662C24 23.7673 23.921 23.5765 23.7803 23.4359C23.6397 23.2952 23.4489 23.2162 23.25 23.2162Z" fill="#212121"/>
</svg>
