<svg width="16" height="16" viewBox="0 0 16 16" fill="none" xmlns="http://www.w3.org/2000/svg">
<g id="check" clip-path="url(#clip0_1808_420)">
<path id="Vector" d="M8 16C3.58892 16 0 12.4111 0 8C0 3.58892 3.58892 0 8 0C12.4111 0 16 3.58892 16 8C16 12.4111 12.4111 16 8 16ZM8 1.23077C4.26708 1.23077 1.23077 4.26708 1.23077 8C1.23077 11.7329 4.26708 14.7692 8 14.7692C11.7329 14.7692 14.7692 11.7329 14.7692 8C14.7692 4.26708 11.7329 1.23077 8 1.23077Z" fill="#00BB1E"/>
<path id="Vector_2" d="M7.22768 10.5752C7.09171 10.5752 6.95987 10.5206 6.86305 10.4248L4.80299 8.36472C4.60213 8.16386 4.60213 7.83734 4.80299 7.63649C5.00384 7.43563 5.33036 7.43563 5.53122 7.63649L7.20193 9.3072L10.4445 5.60115C10.6319 5.38587 10.9574 5.36527 11.1717 5.55273C11.3859 5.7402 11.4075 6.06569 11.2201 6.27994L7.61497 10.4001C7.52124 10.5072 7.3863 10.571 7.24416 10.5752C7.23901 10.5752 7.23283 10.5752 7.22768 10.5752Z" fill="#00BB1E"/>
</g>
<defs>
<clipPath id="clip0_1808_420">
<rect width="16" height="16" fill="white"/>
</clipPath>
</defs>
</svg>
