<svg width="283" height="109" viewBox="0 0 283 109" fill="none" xmlns="http://www.w3.org/2000/svg">
<path d="M109.507 23.164V22.405C109.507 13.711 104.424 8.32898 96.9722 8.32898C93.7982 8.32898 90.6932 9.61699 88.3472 11.986C86.0242 14.309 84.7822 17.299 84.7822 20.565C84.7822 23.877 85.9552 26.844 88.2092 29.213C90.6012 31.743 93.4762 32.962 97.0412 32.962C102.262 32.962 106.126 30.478 108.403 25.602H100.836C99.8012 26.522 98.6512 26.89 97.2712 26.89C94.2812 26.89 92.4642 25.602 91.8662 23.095L109.507 23.164ZM102.584 18.288H91.6592C92.1422 16.057 94.1892 14.585 97.0642 14.585C99.8012 14.608 101.756 15.896 102.584 18.288Z" fill="#494545"/>
<path d="M135.543 23.164V22.405C135.543 13.711 130.46 8.32898 123.008 8.32898C119.834 8.32898 116.729 9.61699 114.383 11.986C112.06 14.309 110.818 17.299 110.818 20.565C110.818 23.877 111.991 26.844 114.245 29.213C116.637 31.743 119.512 32.962 123.077 32.962C128.298 32.962 132.162 30.478 134.439 25.602H126.872C125.837 26.522 124.687 26.89 123.307 26.89C120.317 26.89 118.5 25.602 117.902 23.095L135.543 23.164ZM128.597 18.288H117.672C118.155 16.057 120.202 14.585 123.077 14.585C125.814 14.608 127.792 15.896 128.597 18.288Z" fill="#494545"/>
<path d="M75.03 14.286V32.456H81.792V14.286H84.552V9.06502H81.769V8.49002C81.769 6.35102 82.252 5.66103 84.345 5.66103H84.529V0.946024C84.138 0.946024 83.77 0.900024 83.448 0.900024C77.675 0.923024 74.984 3.20003 74.984 8.19103C74.984 8.44403 75.03 8.76602 75.03 9.06502H72.5V14.286H75.03Z" fill="#494545"/>
<path d="M138.142 14.286V32.456H144.904V14.286H147.664V9.06503H144.904V8.49003C144.904 6.35103 145.387 5.66104 147.48 5.66104H147.664V0.969034C147.273 0.969034 146.905 0.923035 146.583 0.923035C140.81 0.923035 138.119 3.20004 138.119 8.19104C138.119 8.44404 138.165 8.76603 138.165 9.06503H135.635V14.286H138.142Z" fill="#494545"/>
<path d="M172.297 20.6111C172.297 17.4371 170.963 14.1941 168.456 11.8711C166.11 9.64005 163.189 8.49005 159.785 8.49005C156.611 8.49005 153.506 9.77805 151.16 12.147C148.837 14.4701 147.595 17.4601 147.595 20.7261C147.595 23.9921 148.768 27.0051 151.022 29.3511C153.414 31.8811 156.289 33.1001 159.854 33.1001C163.373 33.1001 166.34 31.8351 168.732 29.4431C171.124 27.0511 172.297 24.1301 172.297 20.6111ZM165.466 20.7951C165.466 23.9691 162.982 26.5451 159.946 26.5451C156.956 26.5451 154.426 23.9691 154.426 20.7951C154.426 17.5751 156.91 14.999 159.946 14.999C162.982 14.999 165.466 17.5521 165.466 20.7951Z" fill="#494545"/>
<path d="M182.877 16.793C179.565 16.586 176.92 13.941 176.713 10.606H189.823H191.203V10.445C191.203 4.76405 187.569 0.946045 182.555 0.946045C177.242 0.946045 173.631 4.83305 173.631 9.89305C173.631 14.677 177.357 18.886 182.44 18.886C186.143 18.886 189.064 16.839 190.651 13.021H189.202C188.144 15.252 185.89 16.793 183.291 16.793C183.107 16.816 182.992 16.816 182.877 16.793Z" fill="#FFDD00"/>
<path d="M201.254 16.793C204.566 16.586 207.211 13.941 207.418 10.606H194.308H192.928V10.445C192.928 4.76405 196.562 0.946045 201.576 0.946045C206.889 0.946045 210.5 4.83305 210.5 9.89305C210.5 14.677 206.774 18.886 201.691 18.886C197.988 18.886 195.067 16.839 193.48 13.021H194.952C196.01 15.252 198.264 16.793 200.863 16.793C200.978 16.816 201.116 16.816 201.254 16.793Z" fill="#FFDD00"/>
<path d="M13.0869 65.1H9.87891C9.31055 64.7015 8.44043 63.6586 7.26855 61.9711C6.89355 61.432 6.50391 60.9164 6.09961 60.4242C5.69531 59.9261 5.41699 59.6244 5.26465 59.5189C5.1123 59.4076 4.875 59.3519 4.55273 59.3519H4.07812V61.9974C4.07812 62.9349 4.09863 63.5502 4.13965 63.8431C4.18652 64.1302 4.30371 64.3441 4.49121 64.4847C4.68457 64.6254 5.05078 64.6957 5.58984 64.6957H6.16113V65.1H0.457031V64.6957H0.84375C1.35352 64.6957 1.70508 64.6312 1.89844 64.5023C2.09766 64.3734 2.22363 64.1742 2.27637 63.9047C2.3291 63.6293 2.35547 62.9935 2.35547 61.9974V56.1527C2.35547 55.2035 2.3291 54.5912 2.27637 54.3158C2.22363 54.0404 2.10645 53.85 1.9248 53.7445C1.74316 53.639 1.35059 53.5863 0.74707 53.5863H0.544922V53.182L2.25 53.0941C3.38672 53.0414 4.28906 53.015 4.95703 53.015C6.09375 53.015 7.0166 53.1205 7.72559 53.3314C8.44043 53.5424 9.01758 53.8881 9.45703 54.3685C9.89648 54.849 10.1162 55.4232 10.1162 56.0912C10.1162 56.8705 9.8291 57.5355 9.25488 58.0863C8.68066 58.6371 7.83691 58.9799 6.72363 59.1146C7.22168 59.3549 8.02441 60.222 9.13184 61.7162C10.0342 62.9291 10.7432 63.723 11.2588 64.098C11.7744 64.473 12.3838 64.6722 13.0869 64.6957V65.1ZM4.07812 58.9476C4.51758 58.9359 4.97168 58.9183 5.44043 58.8949C5.90918 58.8715 6.31641 58.807 6.66211 58.7015C7.00781 58.5961 7.28613 58.4437 7.49707 58.2445C7.71387 58.0394 7.88379 57.7728 8.00684 57.4447C8.12988 57.1166 8.19141 56.7123 8.19141 56.2318C8.19141 55.3939 7.98047 54.723 7.55859 54.2191C7.14258 53.7152 6.23145 53.4633 4.8252 53.4633C4.6084 53.4633 4.35938 53.475 4.07812 53.4984V58.9476ZM21.0586 63.7816H21.3838C21.3311 64.7836 20.8389 65.2845 19.9072 65.2845C19.5088 65.2845 19.1924 65.1791 18.958 64.9681C18.7295 64.7572 18.5801 64.4437 18.5098 64.0277C17.9238 64.4437 17.3877 64.7572 16.9014 64.9681C16.4209 65.1791 15.9902 65.2845 15.6094 65.2845C15.123 65.2845 14.7041 65.1439 14.3525 64.8627C14.001 64.5814 13.8252 64.2094 13.8252 63.7465C13.8252 63.1429 14.1182 62.6156 14.7041 62.1644C15.2959 61.7133 16.1104 61.2738 17.1475 60.8461L18.5098 60.2924V59.9408C18.5098 59.4427 18.4775 59.0824 18.4131 58.8597C18.3486 58.6371 18.1816 58.4379 17.9121 58.2621C17.6426 58.0863 17.2881 57.9984 16.8486 57.9984C15.9697 57.9984 15.4805 58.2914 15.3809 58.8773C15.2871 59.475 15.041 59.7738 14.6426 59.7738C14.2852 59.7738 14.1064 59.6039 14.1064 59.264C14.1064 58.9301 14.3438 58.5726 14.8184 58.1918C15.293 57.8051 16.0312 57.6117 17.0332 57.6117C17.7773 57.6117 18.3545 57.7289 18.7646 57.9633C19.1748 58.1976 19.4443 58.4642 19.5732 58.7631C19.708 59.0619 19.7754 59.5189 19.7754 60.1342V63.0433C19.7754 63.723 19.8105 64.1595 19.8809 64.3529C19.9512 64.5463 20.1035 64.6429 20.3379 64.6429C20.7246 64.6429 20.9648 64.3558 21.0586 63.7816ZM18.5098 60.7054L17.5518 61.0922C16.04 61.7074 15.2842 62.4808 15.2842 63.4125C15.2842 63.7816 15.3809 64.0804 15.5742 64.309C15.7676 64.5316 16.0195 64.6429 16.3301 64.6429C16.6055 64.6429 16.9248 64.5521 17.2881 64.3705C17.6514 64.1888 18.0586 63.9164 18.5098 63.5531V60.7054ZM26.332 58.306H24.1611V62.6566C24.1611 63.3246 24.1904 63.7758 24.249 64.0101C24.3076 64.2386 24.4307 64.4232 24.6182 64.5638C24.8115 64.7045 25.0166 64.7748 25.2334 64.7748C25.6553 64.7748 26.0215 64.5345 26.332 64.0541L26.6133 64.2211C26.4316 64.6078 26.1621 64.9008 25.8047 65.1C25.4531 65.2933 25.0957 65.39 24.7324 65.39C24.3105 65.39 23.9385 65.267 23.6162 65.0209C23.2998 64.7689 23.1006 64.476 23.0186 64.142C22.9424 63.808 22.9043 63.222 22.9043 62.3842V58.306H21.8584V57.9017C22.3389 57.89 22.7695 57.6879 23.1504 57.2953C23.5312 56.9027 23.7744 56.3519 23.8799 55.6429H24.1611V57.9017H26.332V58.306ZM33.8379 60.3363H28.8193C28.7959 60.682 28.7842 60.9398 28.7842 61.1097C28.7842 62.3754 28.9805 63.3275 29.373 63.9662C29.7715 64.599 30.3633 64.9154 31.1484 64.9154C32.2148 64.9154 32.9707 64.4379 33.416 63.4828H33.8379C33.6504 64.0804 33.2783 64.5492 32.7217 64.889C32.165 65.223 31.5586 65.39 30.9023 65.39C30.293 65.39 29.7158 65.2377 29.1709 64.933C28.6318 64.6224 28.1895 64.1859 27.8438 63.6234C27.498 63.0609 27.3252 62.3783 27.3252 61.5756C27.3252 60.4388 27.6592 59.4955 28.3271 58.7455C28.9951 57.9896 29.8301 57.6117 30.832 57.6117C31.7754 57.6117 32.5049 57.8988 33.0205 58.473C33.5361 59.0472 33.8086 59.6683 33.8379 60.3363ZM32.2998 59.9847C32.3174 59.85 32.3262 59.7299 32.3262 59.6244C32.3262 59.1088 32.1738 58.7103 31.8691 58.4291C31.5703 58.142 31.2012 57.9984 30.7617 57.9984C29.6953 57.9984 29.0596 58.6605 28.8545 59.9847H32.2998ZM41.7129 60.3363H36.6943C36.6709 60.682 36.6592 60.9398 36.6592 61.1097C36.6592 62.3754 36.8555 63.3275 37.248 63.9662C37.6465 64.599 38.2383 64.9154 39.0234 64.9154C40.0898 64.9154 40.8457 64.4379 41.291 63.4828H41.7129C41.5254 64.0804 41.1533 64.5492 40.5967 64.889C40.04 65.223 39.4336 65.39 38.7773 65.39C38.168 65.39 37.5908 65.2377 37.0459 64.933C36.5068 64.6224 36.0645 64.1859 35.7188 63.6234C35.373 63.0609 35.2002 62.3783 35.2002 61.5756C35.2002 60.4388 35.5342 59.4955 36.2021 58.7455C36.8701 57.9896 37.7051 57.6117 38.707 57.6117C39.6504 57.6117 40.3799 57.8988 40.8955 58.473C41.4111 59.0472 41.6836 59.6683 41.7129 60.3363ZM40.1748 59.9847C40.1924 59.85 40.2012 59.7299 40.2012 59.6244C40.2012 59.1088 40.0488 58.7103 39.7441 58.4291C39.4453 58.142 39.0762 57.9984 38.6367 57.9984C37.5703 57.9984 36.9346 58.6605 36.7295 59.9847H40.1748ZM49.1572 58.6664V55.8539C49.1572 55.0863 49.1455 54.6029 49.1221 54.4037C49.1045 54.2045 49.0225 54.0521 48.876 53.9467C48.7295 53.8412 48.4688 53.7885 48.0938 53.7885H47.9092V53.3842C48.6182 53.3666 49.3945 53.2435 50.2383 53.015H50.4229V62.6918C50.4229 63.5297 50.4375 64.0394 50.4668 64.2211C50.4961 64.4027 50.5869 64.5375 50.7393 64.6254C50.8975 64.7133 51.1875 64.7572 51.6094 64.7572V65.1615C50.7598 65.1791 50.0039 65.2552 49.3418 65.39C49.2715 65.1146 49.2363 64.681 49.2363 64.0892C48.8027 64.5228 48.3545 64.848 47.8916 65.0648C47.4346 65.2816 46.96 65.39 46.4678 65.39C45.5361 65.39 44.7305 65.015 44.0508 64.265C43.377 63.515 43.04 62.6068 43.04 61.5404C43.04 60.3685 43.3857 59.4222 44.0771 58.7015C44.7686 57.975 45.5918 57.6117 46.5469 57.6117C47.0332 57.6117 47.4932 57.6996 47.9268 57.8754C48.3604 58.0511 48.7705 58.3148 49.1572 58.6664ZM49.1572 59.1761C48.7705 58.8422 48.3809 58.5931 47.9883 58.4291C47.6016 58.2592 47.2119 58.1742 46.8193 58.1742C46.1572 58.1742 45.6035 58.4291 45.1582 58.9388C44.7188 59.4486 44.499 60.2806 44.499 61.4349C44.499 62.6068 44.7246 63.4711 45.1758 64.0277C45.6328 64.5844 46.1953 64.8627 46.8633 64.8627C47.3086 64.8627 47.7217 64.7572 48.1025 64.5463C48.4834 64.3353 48.835 64.0189 49.1572 63.597V59.1761ZM64.2129 63.7816H64.5381C64.4854 64.7836 63.9932 65.2845 63.0615 65.2845C62.6631 65.2845 62.3467 65.1791 62.1123 64.9681C61.8838 64.7572 61.7344 64.4437 61.6641 64.0277C61.0781 64.4437 60.542 64.7572 60.0557 64.9681C59.5752 65.1791 59.1445 65.2845 58.7637 65.2845C58.2773 65.2845 57.8584 65.1439 57.5068 64.8627C57.1553 64.5814 56.9795 64.2094 56.9795 63.7465C56.9795 63.1429 57.2725 62.6156 57.8584 62.1644C58.4502 61.7133 59.2646 61.2738 60.3018 60.8461L61.6641 60.2924V59.9408C61.6641 59.4427 61.6318 59.0824 61.5674 58.8597C61.5029 58.6371 61.3359 58.4379 61.0664 58.2621C60.7969 58.0863 60.4424 57.9984 60.0029 57.9984C59.124 57.9984 58.6348 58.2914 58.5352 58.8773C58.4414 59.475 58.1953 59.7738 57.7969 59.7738C57.4395 59.7738 57.2607 59.6039 57.2607 59.264C57.2607 58.9301 57.498 58.5726 57.9727 58.1918C58.4473 57.8051 59.1855 57.6117 60.1875 57.6117C60.9316 57.6117 61.5088 57.7289 61.9189 57.9633C62.3291 58.1976 62.5986 58.4642 62.7275 58.7631C62.8623 59.0619 62.9297 59.5189 62.9297 60.1342V63.0433C62.9297 63.723 62.9648 64.1595 63.0352 64.3529C63.1055 64.5463 63.2578 64.6429 63.4922 64.6429C63.8789 64.6429 64.1191 64.3558 64.2129 63.7816ZM61.6641 60.7054L60.7061 61.0922C59.1943 61.7074 58.4385 62.4808 58.4385 63.4125C58.4385 63.7816 58.5352 64.0804 58.7285 64.309C58.9219 64.5316 59.1738 64.6429 59.4844 64.6429C59.7598 64.6429 60.0791 64.5521 60.4424 64.3705C60.8057 64.1888 61.2129 63.9164 61.6641 63.5531V60.7054ZM65.4521 65.3285V62.9642H65.7949C66.1934 64.3295 66.9053 65.0121 67.9307 65.0121C68.376 65.0121 68.707 64.8773 68.9238 64.6078C69.1465 64.3383 69.2578 64.0424 69.2578 63.7201C69.2578 63.3451 69.1406 63.0375 68.9062 62.7972C68.666 62.557 68.2002 62.267 67.5088 61.9271C66.7822 61.5697 66.2607 61.2181 65.9443 60.8724C65.6279 60.5326 65.4697 60.1136 65.4697 59.6156C65.4697 59.141 65.6396 58.6898 65.9795 58.2621C66.3193 57.8285 66.7969 57.6117 67.4121 57.6117C68.0391 57.6117 68.5576 57.8666 68.9678 58.3763C69.0557 58.2885 69.1699 58.0746 69.3105 57.7347H69.6357V59.9584H69.3105C69.1934 59.4252 68.9648 58.9681 68.625 58.5873C68.291 58.2006 67.8955 58.0072 67.4385 58.0072C67.0869 58.0072 66.8027 58.1156 66.5859 58.3324C66.3691 58.5492 66.2607 58.8011 66.2607 59.0883C66.2607 59.4047 66.3809 59.6771 66.6211 59.9056C66.8555 60.14 67.3037 60.4066 67.9658 60.7054C68.9619 61.1566 69.5713 61.5961 69.7939 62.0238C70.0166 62.4574 70.1279 62.8734 70.1279 63.2719C70.1279 63.8988 69.9199 64.4086 69.5039 64.8011C69.0938 65.1937 68.5752 65.39 67.9482 65.39C67.2861 65.39 66.6973 65.1176 66.1816 64.5726C66.0234 64.7484 65.8945 65.0004 65.7949 65.3285H65.4521ZM78.6094 53.1117V53.5687C77.4727 53.7914 76.9043 54.4271 76.9043 55.476C76.9043 55.8451 77.0156 56.0297 77.2383 56.0297C77.2852 56.0297 77.3438 56.0209 77.4141 56.0033C77.5488 55.9623 77.666 55.9418 77.7656 55.9418C78.0527 55.9418 78.2812 56.0326 78.4512 56.2142C78.6211 56.3959 78.7061 56.601 78.7061 56.8295C78.7061 57.058 78.6182 57.2631 78.4424 57.4447C78.2725 57.6205 78.0498 57.7084 77.7744 57.7084C77.3994 57.7084 77.0713 57.5326 76.79 57.181C76.5146 56.8295 76.377 56.3607 76.377 55.7748C76.377 55.0951 76.5703 54.5179 76.957 54.0433C77.3496 53.5629 77.9004 53.2523 78.6094 53.1117ZM82.5908 53.1117V53.5687C81.4541 53.7914 80.8857 54.4271 80.8857 55.476C80.8857 55.8451 80.9941 56.0297 81.2109 56.0297C81.2578 56.0297 81.3164 56.0209 81.3867 56.0033C81.5273 55.9623 81.6445 55.9418 81.7383 55.9418C82.0254 55.9418 82.2539 56.0326 82.4238 56.2142C82.5938 56.3959 82.6787 56.601 82.6787 56.8295C82.6787 57.058 82.5908 57.2631 82.415 57.4447C82.2451 57.6205 82.0225 57.7084 81.7471 57.7084C81.3662 57.7084 81.0381 57.5326 80.7627 57.181C80.4873 56.8236 80.3496 56.3549 80.3496 55.7748C80.3496 55.0951 80.5459 54.5179 80.9385 54.0433C81.3311 53.5629 81.8818 53.2523 82.5908 53.1117ZM90.6855 60.3363H85.667C85.6436 60.682 85.6318 60.9398 85.6318 61.1097C85.6318 62.3754 85.8281 63.3275 86.2207 63.9662C86.6191 64.599 87.2109 64.9154 87.9961 64.9154C89.0625 64.9154 89.8184 64.4379 90.2637 63.4828H90.6855C90.498 64.0804 90.126 64.5492 89.5693 64.889C89.0127 65.223 88.4062 65.39 87.75 65.39C87.1406 65.39 86.5635 65.2377 86.0186 64.933C85.4795 64.6224 85.0371 64.1859 84.6914 63.6234C84.3457 63.0609 84.1729 62.3783 84.1729 61.5756C84.1729 60.4388 84.5068 59.4955 85.1748 58.7455C85.8428 57.9896 86.6777 57.6117 87.6797 57.6117C88.623 57.6117 89.3525 57.8988 89.8682 58.473C90.3838 59.0472 90.6562 59.6683 90.6855 60.3363ZM89.1475 59.9847C89.165 59.85 89.1738 59.7299 89.1738 59.6244C89.1738 59.1088 89.0215 58.7103 88.7168 58.4291C88.418 58.142 88.0488 57.9984 87.6094 57.9984C86.543 57.9984 85.9072 58.6605 85.7021 59.9847H89.1475ZM96.0205 61.0131L98.042 63.5531C98.3936 63.9926 98.6836 64.2914 98.9121 64.4496C99.1465 64.6019 99.4248 64.684 99.7471 64.6957V65.1H96.1523V64.6957C96.7441 64.6957 97.04 64.5814 97.04 64.3529C97.04 64.2592 96.9053 64.057 96.6357 63.7465L95.2119 61.9799L93.8936 63.5443C93.5713 63.9193 93.4102 64.1537 93.4102 64.2474C93.4102 64.5404 93.7354 64.6898 94.3857 64.6957V65.1H91.4238V64.6957C91.6816 64.6957 91.9658 64.6283 92.2764 64.4935C92.5869 64.3588 92.9883 64.0013 93.4805 63.4213L94.9658 61.6635L93.375 59.6508C92.9238 59.0765 92.5811 58.7103 92.3467 58.5521C92.1123 58.3881 91.8369 58.306 91.5205 58.306V57.9017H94.9131V58.306C94.4268 58.306 94.1836 58.4144 94.1836 58.6312C94.1836 58.7308 94.292 58.9095 94.5088 59.1674L95.7744 60.7318L96.9434 59.3607C97.207 59.0443 97.3389 58.848 97.3389 58.7719C97.3389 58.4613 97.0166 58.306 96.3721 58.306V57.9017H99.2285V58.306C98.6543 58.3236 98.0596 58.684 97.4443 59.3871L96.0205 61.0131ZM106.532 63.3422H106.919C106.521 64.7074 105.524 65.39 103.931 65.39C102.905 65.39 102.041 65.0414 101.338 64.3441C100.641 63.6469 100.292 62.724 100.292 61.5756C100.292 60.3978 100.67 59.4427 101.426 58.7103C102.182 57.9779 103.075 57.6117 104.106 57.6117C104.728 57.6117 105.299 57.7494 105.82 58.0248C106.342 58.2943 106.603 58.6254 106.603 59.0179C106.603 59.1644 106.553 59.3021 106.453 59.431C106.359 59.5599 106.222 59.6244 106.04 59.6244C105.653 59.6244 105.416 59.3988 105.328 58.9476C105.258 58.6078 105.149 58.3705 105.003 58.2357C104.851 58.101 104.555 58.0336 104.115 58.0336C103.33 58.0336 102.738 58.306 102.34 58.851C101.947 59.3959 101.751 60.2162 101.751 61.3119C101.751 62.4427 101.962 63.3275 102.384 63.9662C102.812 64.6049 103.456 64.9242 104.317 64.9242C105.478 64.9242 106.216 64.3969 106.532 63.3422ZM114.539 60.3363H109.521C109.497 60.682 109.485 60.9398 109.485 61.1097C109.485 62.3754 109.682 63.3275 110.074 63.9662C110.473 64.599 111.064 64.9154 111.85 64.9154C112.916 64.9154 113.672 64.4379 114.117 63.4828H114.539C114.352 64.0804 113.979 64.5492 113.423 64.889C112.866 65.223 112.26 65.39 111.604 65.39C110.994 65.39 110.417 65.2377 109.872 64.933C109.333 64.6224 108.891 64.1859 108.545 63.6234C108.199 63.0609 108.026 62.3783 108.026 61.5756C108.026 60.4388 108.36 59.4955 109.028 58.7455C109.696 57.9896 110.531 57.6117 111.533 57.6117C112.477 57.6117 113.206 57.8988 113.722 58.473C114.237 59.0472 114.51 59.6683 114.539 60.3363ZM113.001 59.9847C113.019 59.85 113.027 59.7299 113.027 59.6244C113.027 59.1088 112.875 58.7103 112.57 58.4291C112.271 58.142 111.902 57.9984 111.463 57.9984C110.396 57.9984 109.761 58.6605 109.556 59.9847H113.001ZM117.984 53.015V62.6302C117.984 63.3978 117.993 63.8812 118.011 64.0804C118.034 64.2797 118.119 64.432 118.266 64.5375C118.412 64.6429 118.673 64.6957 119.048 64.6957H119.259V65.1H115.409V64.6957H115.655C116.007 64.6957 116.256 64.6488 116.402 64.5551C116.555 64.4554 116.646 64.3177 116.675 64.142C116.704 63.9662 116.719 63.4623 116.719 62.6302V55.5111C116.719 54.7552 116.651 54.2806 116.517 54.0873C116.382 53.8881 116.054 53.7885 115.532 53.7885V53.3842C115.89 53.3842 116.309 53.3431 116.789 53.2611C117.275 53.1791 117.609 53.097 117.791 53.015H117.984ZM122.309 53.015V62.6302C122.309 63.3978 122.317 63.8812 122.335 64.0804C122.358 64.2797 122.443 64.432 122.59 64.5375C122.736 64.6429 122.997 64.6957 123.372 64.6957H123.583V65.1H119.733V64.6957H119.979C120.331 64.6957 120.58 64.6488 120.727 64.5551C120.879 64.4554 120.97 64.3177 120.999 64.142C121.028 63.9662 121.043 63.4623 121.043 62.6302V55.5111C121.043 54.7552 120.976 54.2806 120.841 54.0873C120.706 53.8881 120.378 53.7885 119.856 53.7885V53.3842C120.214 53.3842 120.633 53.3431 121.113 53.2611C121.6 53.1791 121.934 53.097 122.115 53.015H122.309ZM131.062 60.3363H126.044C126.021 60.682 126.009 60.9398 126.009 61.1097C126.009 62.3754 126.205 63.3275 126.598 63.9662C126.996 64.599 127.588 64.9154 128.373 64.9154C129.439 64.9154 130.195 64.4379 130.641 63.4828H131.062C130.875 64.0804 130.503 64.5492 129.946 64.889C129.39 65.223 128.783 65.39 128.127 65.39C127.518 65.39 126.94 65.2377 126.396 64.933C125.856 64.6224 125.414 64.1859 125.068 63.6234C124.723 63.0609 124.55 62.3783 124.55 61.5756C124.55 60.4388 124.884 59.4955 125.552 58.7455C126.22 57.9896 127.055 57.6117 128.057 57.6117C129 57.6117 129.729 57.8988 130.245 58.473C130.761 59.0472 131.033 59.6683 131.062 60.3363ZM129.524 59.9847C129.542 59.85 129.551 59.7299 129.551 59.6244C129.551 59.1088 129.398 58.7103 129.094 58.4291C128.795 58.142 128.426 57.9984 127.986 57.9984C126.92 57.9984 126.284 58.6605 126.079 59.9847H129.524ZM134.227 57.6117H134.464C134.599 57.975 134.675 58.4701 134.692 59.097C135.114 58.599 135.557 58.2269 136.02 57.9808C136.482 57.7347 136.966 57.6117 137.47 57.6117C138.044 57.6117 138.513 57.7318 138.876 57.972C139.245 58.2123 139.482 58.5082 139.588 58.8597C139.693 59.2054 139.746 59.7123 139.746 60.3802V62.6302C139.746 63.4623 139.761 63.9691 139.79 64.1508C139.819 64.3324 139.91 64.4701 140.062 64.5638C140.221 64.6517 140.508 64.6957 140.924 64.6957V65.1H137.241V64.6957H137.408C137.83 64.6957 138.105 64.6342 138.234 64.5111C138.363 64.3881 138.437 64.2445 138.454 64.0804C138.472 63.9164 138.48 63.433 138.48 62.6302V60.3099C138.48 59.7416 138.451 59.3373 138.393 59.097C138.34 58.851 138.19 58.6342 137.944 58.4467C137.704 58.2592 137.396 58.1654 137.021 58.1654C136.594 58.1654 136.184 58.2943 135.791 58.5521C135.404 58.8041 135.038 59.1849 134.692 59.6947V62.6302C134.692 63.4623 134.707 63.9691 134.736 64.1508C134.771 64.3324 134.865 64.4701 135.018 64.5638C135.176 64.6517 135.466 64.6957 135.888 64.6957V65.1H132.249V64.6957C132.653 64.6957 132.935 64.6547 133.093 64.5726C133.251 64.4906 133.348 64.3676 133.383 64.2035C133.424 64.0336 133.444 63.5092 133.444 62.6302V60.4857C133.444 59.6478 133.427 59.141 133.392 58.9652C133.362 58.7836 133.269 58.6488 133.11 58.5609C132.958 58.4672 132.671 58.4203 132.249 58.4203V58.016C132.894 57.9457 133.553 57.8109 134.227 57.6117ZM146.25 58.306H144.079V62.6566C144.079 63.3246 144.108 63.7758 144.167 64.0101C144.226 64.2386 144.349 64.4232 144.536 64.5638C144.729 64.7045 144.935 64.7748 145.151 64.7748C145.573 64.7748 145.939 64.5345 146.25 64.0541L146.531 64.2211C146.35 64.6078 146.08 64.9008 145.723 65.1C145.371 65.2933 145.014 65.39 144.65 65.39C144.229 65.39 143.856 65.267 143.534 65.0209C143.218 64.7689 143.019 64.476 142.937 64.142C142.86 63.808 142.822 63.222 142.822 62.3842V58.306H141.776V57.9017C142.257 57.89 142.688 57.6879 143.068 57.2953C143.449 56.9027 143.692 56.3519 143.798 55.6429H144.079V57.9017H146.25V58.306ZM147.533 57.7875V57.3217C148.67 57.099 149.238 56.4633 149.238 55.4144C149.238 55.0453 149.13 54.8607 148.913 54.8607C148.866 54.8607 148.808 54.8695 148.737 54.8871C148.603 54.9281 148.485 54.9486 148.386 54.9486C148.099 54.9486 147.87 54.8578 147.7 54.6761C147.53 54.4945 147.445 54.2894 147.445 54.0609C147.445 53.8324 147.53 53.6302 147.7 53.4545C147.876 53.2728 148.102 53.182 148.377 53.182C148.752 53.182 149.077 53.3578 149.353 53.7094C149.634 54.0609 149.774 54.5326 149.774 55.1244C149.774 55.8041 149.578 56.3842 149.186 56.8646C148.799 57.3392 148.248 57.6469 147.533 57.7875ZM151.515 57.7875V57.3217C152.651 57.099 153.22 56.4633 153.22 55.4144C153.22 55.0453 153.108 54.8607 152.886 54.8607C152.845 54.8607 152.786 54.8695 152.71 54.8871C152.575 54.9281 152.458 54.9486 152.358 54.9486C152.077 54.9486 151.849 54.8578 151.673 54.6761C151.503 54.4945 151.418 54.2894 151.418 54.0609C151.418 53.8441 151.5 53.6449 151.664 53.4633C151.834 53.2758 152.062 53.182 152.35 53.182C152.725 53.182 153.05 53.3578 153.325 53.7094C153.606 54.0609 153.747 54.5326 153.747 55.1244C153.747 55.8041 153.551 56.3842 153.158 56.8646C152.771 57.3392 152.224 57.6469 151.515 57.7875ZM161.06 65.39H160.717V55.7572C160.717 55.0541 160.696 54.6 160.655 54.3949C160.62 54.1898 160.523 54.0375 160.365 53.9379C160.213 53.8383 159.943 53.7885 159.557 53.7885V53.3842C159.902 53.3842 160.318 53.3431 160.805 53.2611C161.291 53.1791 161.622 53.097 161.798 53.015H161.982V58.7103C162.393 58.3412 162.809 58.0658 163.23 57.8842C163.652 57.7025 164.08 57.6117 164.514 57.6117C165.551 57.6117 166.4 57.972 167.062 58.6927C167.725 59.4135 168.056 60.3334 168.056 61.4525C168.056 62.5775 167.716 63.515 167.036 64.265C166.356 65.015 165.475 65.39 164.391 65.39C163.857 65.39 163.389 65.2787 162.984 65.056C162.586 64.8334 162.252 64.5023 161.982 64.0629C161.602 64.4437 161.294 64.8861 161.06 65.39ZM161.982 59.2289V62.0502C161.982 62.7767 162.029 63.3011 162.123 63.6234C162.223 63.9398 162.457 64.2445 162.826 64.5375C163.195 64.8304 163.626 64.9769 164.118 64.9769C164.874 64.9769 165.475 64.6664 165.92 64.0453C166.371 63.4242 166.597 62.5306 166.597 61.3646C166.597 60.2924 166.386 59.4779 165.964 58.9213C165.548 58.3588 164.991 58.0775 164.294 58.0775C163.896 58.0775 163.503 58.1742 163.116 58.3676C162.735 58.5551 162.357 58.8422 161.982 59.2289ZM172.872 63.7377L174.542 59.7386C174.782 59.1527 174.902 58.8275 174.902 58.7631C174.902 58.4701 174.577 58.3177 173.927 58.306V57.9017H176.458V58.306C176.065 58.3236 175.778 58.4291 175.597 58.6224C175.415 58.8099 175.189 59.2289 174.92 59.8793L171.712 67.6224C171.407 68.3607 171.138 68.8617 170.903 69.1254C170.669 69.3949 170.411 69.5297 170.13 69.5297C169.749 69.5297 169.559 69.3568 169.559 69.0111C169.559 68.6127 169.863 68.2758 170.473 68.0004C170.83 67.8422 171.067 67.7074 171.185 67.5961C171.308 67.4847 171.428 67.2826 171.545 66.9896L172.23 65.2758L169.523 59.475C169.283 58.9652 169.084 58.6429 168.926 58.5082C168.768 58.3734 168.498 58.306 168.117 58.306V57.9017H171.422V58.306C170.842 58.3236 170.552 58.4437 170.552 58.6664C170.552 58.7543 170.666 59.0414 170.895 59.5277L172.872 63.7377ZM181.635 61.4877C181.635 60.3861 182.004 59.4662 182.742 58.7279C183.48 57.9838 184.389 57.6117 185.467 57.6117C186.551 57.6117 187.462 57.9838 188.2 58.7279C188.938 59.472 189.308 60.392 189.308 61.4877C189.308 62.7006 188.933 63.6556 188.183 64.3529C187.433 65.0443 186.527 65.39 185.467 65.39C184.406 65.39 183.501 65.0385 182.751 64.3353C182.007 63.6263 181.635 62.6771 181.635 61.4877ZM183.094 61.5316C183.094 62.809 183.302 63.7054 183.718 64.2211C184.134 64.7308 184.717 64.9857 185.467 64.9857C186.234 64.9857 186.82 64.7308 187.225 64.2211C187.635 63.7054 187.84 62.809 187.84 61.5316C187.84 60.266 187.638 59.3636 187.233 58.8246C186.829 58.2855 186.24 58.016 185.467 58.016C184.699 58.016 184.11 58.2855 183.7 58.8246C183.296 59.3578 183.094 60.2601 183.094 61.5316ZM197.789 57.9017V62.6215C197.789 63.4066 197.801 63.8988 197.824 64.098C197.848 64.2972 197.933 64.4467 198.079 64.5463C198.231 64.6459 198.501 64.6957 198.888 64.6957V65.1C197.997 65.1117 197.347 65.2054 196.937 65.3812H196.831C196.644 65.059 196.544 64.5023 196.532 63.7113C196.175 64.2679 195.765 64.6869 195.302 64.9681C194.845 65.2494 194.338 65.39 193.781 65.39C193.301 65.39 192.876 65.2816 192.507 65.0648C192.138 64.8422 191.883 64.5726 191.742 64.2562C191.607 63.9398 191.54 63.4623 191.54 62.8236V60.3715C191.54 59.5394 191.525 59.0326 191.496 58.851C191.467 58.6635 191.373 58.5258 191.215 58.4379C191.062 58.35 190.778 58.306 190.362 58.306V57.9017H192.806V62.8939C192.806 63.3861 192.835 63.7435 192.894 63.9662C192.952 64.1888 193.102 64.3851 193.342 64.5551C193.582 64.7191 193.86 64.8011 194.177 64.8011C194.628 64.8011 195.059 64.6547 195.469 64.3617C195.879 64.0629 196.157 63.7494 196.304 63.4213C196.456 63.0873 196.532 62.6127 196.532 61.9974V60.3715C196.532 59.5863 196.523 59.1088 196.506 58.9388C196.488 58.7689 196.412 58.6224 196.277 58.4994C196.148 58.3705 195.876 58.306 195.46 58.306H195.275V57.9017H197.789ZM202.351 59.4486C202.55 58.9271 202.872 58.4906 203.317 58.139C203.769 57.7875 204.208 57.6117 204.636 57.6117C205.022 57.6117 205.327 57.7318 205.55 57.972C205.772 58.2123 205.884 58.4584 205.884 58.7103C205.884 58.8802 205.825 59.0267 205.708 59.1498C205.597 59.2728 205.459 59.3344 205.295 59.3344C205.002 59.3344 204.779 59.1176 204.627 58.684C204.521 58.391 204.363 58.2445 204.152 58.2445C203.9 58.2445 203.599 58.4174 203.247 58.7631C202.896 59.1029 202.67 59.4574 202.57 59.8265C202.471 60.1957 202.421 60.7025 202.421 61.347V62.6302C202.421 63.3978 202.43 63.8812 202.447 64.0804C202.471 64.2797 202.556 64.432 202.702 64.5375C202.849 64.6429 203.109 64.6957 203.484 64.6957H203.73V65.1H199.907V64.6957H200.092C200.443 64.6957 200.692 64.6488 200.839 64.5551C200.991 64.4554 201.082 64.3177 201.111 64.142C201.141 63.9662 201.155 63.4623 201.155 62.6302V60.6C201.155 59.8265 201.144 59.3431 201.12 59.1498C201.103 58.9506 201.021 58.7982 200.874 58.6927C200.728 58.5814 200.467 58.5258 200.092 58.5258H199.907V58.1302C200.458 58.0658 201.179 57.8929 202.069 57.6117C202.239 58.0746 202.333 58.6869 202.351 59.4486ZM217.31 63.3422H217.696C217.298 64.7074 216.302 65.39 214.708 65.39C213.683 65.39 212.818 65.0414 212.115 64.3441C211.418 63.6469 211.069 62.724 211.069 61.5756C211.069 60.3978 211.447 59.4427 212.203 58.7103C212.959 57.9779 213.853 57.6117 214.884 57.6117C215.505 57.6117 216.076 57.7494 216.598 58.0248C217.119 58.2943 217.38 58.6254 217.38 59.0179C217.38 59.1644 217.33 59.3021 217.23 59.431C217.137 59.5599 216.999 59.6244 216.817 59.6244C216.431 59.6244 216.193 59.3988 216.105 58.9476C216.035 58.6078 215.927 58.3705 215.78 58.2357C215.628 58.101 215.332 58.0336 214.893 58.0336C214.107 58.0336 213.516 58.306 213.117 58.851C212.725 59.3959 212.528 60.2162 212.528 61.3119C212.528 62.4427 212.739 63.3275 213.161 63.9662C213.589 64.6049 214.233 64.9242 215.095 64.9242C216.255 64.9242 216.993 64.3969 217.31 63.3422ZM225.949 57.9017V62.6215C225.949 63.4066 225.961 63.8988 225.984 64.098C226.008 64.2972 226.093 64.4467 226.239 64.5463C226.392 64.6459 226.661 64.6957 227.048 64.6957V65.1C226.157 65.1117 225.507 65.2054 225.097 65.3812H224.991C224.804 65.059 224.704 64.5023 224.692 63.7113C224.335 64.2679 223.925 64.6869 223.462 64.9681C223.005 65.2494 222.498 65.39 221.941 65.39C221.461 65.39 221.036 65.2816 220.667 65.0648C220.298 64.8422 220.043 64.5726 219.902 64.2562C219.768 63.9398 219.7 63.4623 219.7 62.8236V60.3715C219.7 59.5394 219.686 59.0326 219.656 58.851C219.627 58.6635 219.533 58.5258 219.375 58.4379C219.223 58.35 218.938 58.306 218.522 58.306V57.9017H220.966V62.8939C220.966 63.3861 220.995 63.7435 221.054 63.9662C221.112 64.1888 221.262 64.3851 221.502 64.5551C221.742 64.7191 222.021 64.8011 222.337 64.8011C222.788 64.8011 223.219 64.6547 223.629 64.3617C224.039 64.0629 224.317 63.7494 224.464 63.4213C224.616 63.0873 224.692 62.6127 224.692 61.9974V60.3715C224.692 59.5863 224.684 59.1088 224.666 58.9388C224.648 58.7689 224.572 58.6224 224.438 58.4994C224.309 58.3705 224.036 58.306 223.62 58.306H223.436V57.9017H225.949ZM228.243 65.3285V62.9642H228.586C228.984 64.3295 229.696 65.0121 230.722 65.0121C231.167 65.0121 231.498 64.8773 231.715 64.6078C231.938 64.3383 232.049 64.0424 232.049 63.7201C232.049 63.3451 231.932 63.0375 231.697 62.7972C231.457 62.557 230.991 62.267 230.3 61.9271C229.573 61.5697 229.052 61.2181 228.735 60.8724C228.419 60.5326 228.261 60.1136 228.261 59.6156C228.261 59.141 228.431 58.6898 228.771 58.2621C229.11 57.8285 229.588 57.6117 230.203 57.6117C230.83 57.6117 231.349 57.8666 231.759 58.3763C231.847 58.2885 231.961 58.0746 232.102 57.7347H232.427V59.9584H232.102C231.984 59.4252 231.756 58.9681 231.416 58.5873C231.082 58.2006 230.687 58.0072 230.229 58.0072C229.878 58.0072 229.594 58.1156 229.377 58.3324C229.16 58.5492 229.052 58.8011 229.052 59.0883C229.052 59.4047 229.172 59.6771 229.412 59.9056C229.646 60.14 230.095 60.4066 230.757 60.7054C231.753 61.1566 232.362 61.5961 232.585 62.0238C232.808 62.4574 232.919 62.8734 232.919 63.2719C232.919 63.8988 232.711 64.4086 232.295 64.8011C231.885 65.1937 231.366 65.39 230.739 65.39C230.077 65.39 229.488 65.1176 228.973 64.5726C228.814 64.7484 228.686 65.0004 228.586 65.3285H228.243ZM238.465 58.306H236.294V62.6566C236.294 63.3246 236.323 63.7758 236.382 64.0101C236.44 64.2386 236.563 64.4232 236.751 64.5638C236.944 64.7045 237.149 64.7748 237.366 64.7748C237.788 64.7748 238.154 64.5345 238.465 64.0541L238.746 64.2211C238.564 64.6078 238.295 64.9008 237.938 65.1C237.586 65.2933 237.229 65.39 236.865 65.39C236.443 65.39 236.071 65.267 235.749 65.0209C235.433 64.7689 235.233 64.476 235.151 64.142C235.075 63.808 235.037 63.222 235.037 62.3842V58.306H233.991V57.9017C234.472 57.89 234.902 57.6879 235.283 57.2953C235.664 56.9027 235.907 56.3519 236.013 55.6429H236.294V57.9017H238.465V58.306ZM239.449 61.4877C239.449 60.3861 239.818 59.4662 240.557 58.7279C241.295 57.9838 242.203 57.6117 243.281 57.6117C244.365 57.6117 245.276 57.9838 246.015 58.7279C246.753 59.472 247.122 60.392 247.122 61.4877C247.122 62.7006 246.747 63.6556 245.997 64.3529C245.247 65.0443 244.342 65.39 243.281 65.39C242.221 65.39 241.315 65.0385 240.565 64.3353C239.821 63.6263 239.449 62.6771 239.449 61.4877ZM240.908 61.5316C240.908 62.809 241.116 63.7054 241.532 64.2211C241.948 64.7308 242.531 64.9857 243.281 64.9857C244.049 64.9857 244.635 64.7308 245.039 64.2211C245.449 63.7054 245.654 62.809 245.654 61.5316C245.654 60.266 245.452 59.3636 245.048 58.8246C244.644 58.2855 244.055 58.016 243.281 58.016C242.514 58.016 241.925 58.2855 241.515 58.8246C241.11 59.3578 240.908 60.2601 240.908 61.5316ZM250.304 57.6117H250.392C250.562 58.0043 250.646 58.5082 250.646 59.1234C251.039 58.6195 251.461 58.2416 251.912 57.9896C252.369 57.7377 252.858 57.6117 253.38 57.6117C253.972 57.6117 254.452 57.7465 254.821 58.016C255.19 58.2855 255.448 58.6898 255.595 59.2289C256.04 58.6898 256.497 58.2855 256.966 58.016C257.435 57.7465 257.912 57.6117 258.398 57.6117C258.955 57.6117 259.427 57.7406 259.813 57.9984C260.2 58.2562 260.435 58.5492 260.517 58.8773C260.599 59.2054 260.64 59.7357 260.64 60.4681V62.6302C260.64 63.4681 260.654 63.9779 260.684 64.1595C260.719 64.3412 260.812 64.476 260.965 64.5638C261.123 64.6517 261.413 64.6957 261.835 64.6957V65.1H258.24V64.6957C258.621 64.6957 258.888 64.6547 259.04 64.5726C259.198 64.4847 259.295 64.3558 259.33 64.1859C259.365 64.0101 259.383 63.4916 259.383 62.6302V60.2308C259.383 59.7445 259.354 59.3783 259.295 59.1322C259.242 58.8861 259.099 58.6752 258.864 58.4994C258.63 58.3236 258.325 58.2357 257.95 58.2357C257.569 58.2357 257.186 58.3646 256.799 58.6224C256.418 58.8802 256.034 59.2699 255.647 59.7914V62.6302C255.647 63.3978 255.656 63.8812 255.674 64.0804C255.697 64.2738 255.779 64.4261 255.92 64.5375C256.066 64.6429 256.324 64.6957 256.693 64.6957V65.1H253.213V64.6957C253.605 64.6957 253.878 64.6547 254.03 64.5726C254.188 64.4906 254.285 64.3646 254.32 64.1947C254.361 64.0248 254.382 63.5033 254.382 62.6302V60.6351C254.382 60.0023 254.355 59.5453 254.303 59.264C254.256 58.9769 254.106 58.7338 253.854 58.5345C253.603 58.3295 253.289 58.2269 252.914 58.2269C252.551 58.2269 252.179 58.3441 251.798 58.5785C251.423 58.8129 251.039 59.1644 250.646 59.6332V62.6302C250.646 63.4213 250.658 63.9135 250.682 64.1068C250.705 64.3002 250.793 64.4467 250.945 64.5463C251.098 64.6459 251.37 64.6957 251.763 64.6957V65.1H248.238V64.6957C248.625 64.6957 248.895 64.6547 249.047 64.5726C249.205 64.4847 249.302 64.3558 249.337 64.1859C249.372 64.016 249.39 63.4974 249.39 62.6302V60.4769C249.39 59.6566 249.375 59.1556 249.346 58.974C249.322 58.7865 249.231 58.6459 249.073 58.5521C248.921 58.4584 248.643 58.4115 248.238 58.4115V58.0072C249.07 57.9252 249.759 57.7933 250.304 57.6117ZM269.42 60.3363H264.401C264.378 60.682 264.366 60.9398 264.366 61.1097C264.366 62.3754 264.562 63.3275 264.955 63.9662C265.354 64.599 265.945 64.9154 266.73 64.9154C267.797 64.9154 268.553 64.4379 268.998 63.4828H269.42C269.232 64.0804 268.86 64.5492 268.304 64.889C267.747 65.223 267.141 65.39 266.484 65.39C265.875 65.39 265.298 65.2377 264.753 64.933C264.214 64.6224 263.771 64.1859 263.426 63.6234C263.08 63.0609 262.907 62.3783 262.907 61.5756C262.907 60.4388 263.241 59.4955 263.909 58.7455C264.577 57.9896 265.412 57.6117 266.414 57.6117C267.357 57.6117 268.087 57.8988 268.603 58.473C269.118 59.0472 269.391 59.6683 269.42 60.3363ZM267.882 59.9847C267.899 59.85 267.908 59.7299 267.908 59.6244C267.908 59.1088 267.756 58.7103 267.451 58.4291C267.152 58.142 266.783 57.9984 266.344 57.9984C265.277 57.9984 264.642 58.6605 264.437 59.9847H267.882ZM273.103 59.4486C273.302 58.9271 273.624 58.4906 274.069 58.139C274.521 57.7875 274.96 57.6117 275.388 57.6117C275.774 57.6117 276.079 57.7318 276.302 57.972C276.524 58.2123 276.636 58.4584 276.636 58.7103C276.636 58.8802 276.577 59.0267 276.46 59.1498C276.349 59.2728 276.211 59.3344 276.047 59.3344C275.754 59.3344 275.531 59.1176 275.379 58.684C275.273 58.391 275.115 58.2445 274.904 58.2445C274.652 58.2445 274.351 58.4174 273.999 58.7631C273.647 59.1029 273.422 59.4574 273.322 59.8265C273.223 60.1957 273.173 60.7025 273.173 61.347V62.6302C273.173 63.3978 273.182 63.8812 273.199 64.0804C273.223 64.2797 273.308 64.432 273.454 64.5375C273.601 64.6429 273.861 64.6957 274.236 64.6957H274.482V65.1H270.659V64.6957H270.844C271.195 64.6957 271.444 64.6488 271.591 64.5551C271.743 64.4554 271.834 64.3177 271.863 64.142C271.893 63.9662 271.907 63.4623 271.907 62.6302V60.6C271.907 59.8265 271.896 59.3431 271.872 59.1498C271.854 58.9506 271.772 58.7982 271.626 58.6927C271.479 58.5814 271.219 58.5258 270.844 58.5258H270.659V58.1302C271.21 58.0658 271.931 57.8929 272.821 57.6117C272.991 58.0746 273.085 58.6869 273.103 59.4486ZM277.585 65.3285V62.9642H277.928C278.326 64.3295 279.038 65.0121 280.063 65.0121C280.509 65.0121 280.84 64.8773 281.057 64.6078C281.279 64.3383 281.391 64.0424 281.391 63.7201C281.391 63.3451 281.273 63.0375 281.039 62.7972C280.799 62.557 280.333 62.267 279.642 61.9271C278.915 61.5697 278.394 61.2181 278.077 60.8724C277.761 60.5326 277.603 60.1136 277.603 59.6156C277.603 59.141 277.772 58.6898 278.112 58.2621C278.452 57.8285 278.93 57.6117 279.545 57.6117C280.172 57.6117 280.69 57.8666 281.101 58.3763C281.188 58.2885 281.303 58.0746 281.443 57.7347H281.769V59.9584H281.443C281.326 59.4252 281.098 58.9681 280.758 58.5873C280.424 58.2006 280.028 58.0072 279.571 58.0072C279.22 58.0072 278.936 58.1156 278.719 58.3324C278.502 58.5492 278.394 58.8011 278.394 59.0883C278.394 59.4047 278.514 59.6771 278.754 59.9056C278.988 60.14 279.437 60.4066 280.099 60.7054C281.095 61.1566 281.704 61.5961 281.927 62.0238C282.149 62.4574 282.261 62.8734 282.261 63.2719C282.261 63.8988 282.053 64.4086 281.637 64.8011C281.227 65.1937 280.708 65.39 280.081 65.39C279.419 65.39 278.83 65.1176 278.314 64.5726C278.156 64.7484 278.027 65.0004 277.928 65.3285H277.585Z" fill="black"/>
<path d="M80.2208 85.8915C80.7594 84.8138 82.2855 84.8587 82.7792 85.8915L85.7416 91.8638L92.2947 92.8068C93.4617 92.9864 93.9106 94.4234 93.0578 95.2766L88.3449 99.9018L89.467 106.413C89.6465 107.58 88.3898 108.479 87.3574 107.94L81.5224 104.841L75.6426 107.94C74.6102 108.479 73.3535 107.58 73.533 106.413L74.6551 99.9018L69.9422 95.2766C69.0894 94.4234 69.5383 92.9864 70.7053 92.8068L77.3033 91.8638L80.2208 85.8915Z" fill="#FFDD00"/>
<path d="M110.221 85.8915C110.759 84.8138 112.285 84.8587 112.779 85.8915L115.742 91.8638L122.295 92.8068C123.462 92.9864 123.911 94.4234 123.058 95.2766L118.345 99.9018L119.467 106.413C119.647 107.58 118.39 108.479 117.357 107.94L111.522 104.841L105.643 107.94C104.61 108.479 103.353 107.58 103.533 106.413L104.655 99.9018L99.9422 95.2766C99.0894 94.4234 99.5383 92.9864 100.705 92.8068L107.303 91.8638L110.221 85.8915Z" fill="#FFDD00"/>
<path d="M140.221 85.8915C140.759 84.8138 142.285 84.8587 142.779 85.8915L145.742 91.8638L152.295 92.8068C153.462 92.9864 153.911 94.4234 153.058 95.2766L148.345 99.9018L149.467 106.413C149.647 107.58 148.39 108.479 147.357 107.94L141.522 104.841L135.643 107.94C134.61 108.479 133.353 107.58 133.533 106.413L134.655 99.9018L129.942 95.2766C129.089 94.4234 129.538 92.9864 130.705 92.8068L137.303 91.8638L140.221 85.8915Z" fill="#FFDD00"/>
<path d="M170.221 85.8915C170.759 84.8138 172.285 84.8587 172.779 85.8915L175.742 91.8638L182.295 92.8068C183.462 92.9864 183.911 94.4234 183.058 95.2766L178.345 99.9018L179.467 106.413C179.647 107.58 178.39 108.479 177.357 107.94L171.522 104.841L165.643 107.94C164.61 108.479 163.353 107.58 163.533 106.413L164.655 99.9018L159.942 95.2766C159.089 94.4234 159.538 92.9864 160.705 92.8068L167.303 91.8638L170.221 85.8915Z" fill="#FFDD00"/>
<path d="M200.221 85.8915C200.759 84.8138 202.285 84.8587 202.779 85.8915L205.742 91.8638L212.295 92.8068C213.462 92.9864 213.911 94.4234 213.058 95.2766L208.345 99.9018L209.467 106.413C209.647 107.58 208.39 108.479 207.357 107.94L201.522 104.841L195.643 107.94C194.61 108.479 193.353 107.58 193.533 106.413L194.655 99.9018L189.942 95.2766C189.089 94.4234 189.538 92.9864 190.705 92.8068L197.303 91.8638L200.221 85.8915Z" fill="#FFDD00"/>
</svg>
