<svg width="16" height="16" viewBox="0 0 16 16" fill="none" xmlns="http://www.w3.org/2000/svg">
<g clip-path="url(#clip0_5002_159)">
<path d="M14.3333 2.66675H1.66666C0.747344 2.66675 0 3.41475 0 4.33344V11.6668C0 12.5854 0.747344 13.3334 1.66666 13.3334H14.3333C15.2527 13.3334 16 12.5854 16 11.6668V4.33344C16 3.41475 15.2527 2.66675 14.3333 2.66675ZM15.3333 11.6667C15.3333 12.2181 14.8847 12.6667 14.3333 12.6667H1.66666C1.11531 12.6667 0.666656 12.2181 0.666656 11.6667V4.33344C0.666656 3.78209 1.11531 3.33344 1.66666 3.33344H14.3333C14.8847 3.33344 15.3333 3.78209 15.3333 4.33344V11.6667H15.3333Z" fill="#212121"/>
<path d="M7 10.6667H2.33334C2.14934 10.6667 2 10.8161 2 11.0001C2 11.1841 2.14934 11.3334 2.33334 11.3334H7C7.184 11.3334 7.33334 11.1841 7.33334 11.0001C7.33334 10.8161 7.184 10.6667 7 10.6667Z" fill="#212121"/>
<path d="M7.37995 4.15208C6.98995 4.03543 6.55529 4.18674 6.30929 4.51808C6.12129 4.77008 6.06395 5.08408 6.15195 5.38008C6.61061 6.92274 8.05595 8.00008 9.66661 8.00008C9.85061 8.00008 9.99995 7.85074 9.99995 7.66674C9.99995 6.05608 8.92261 4.61074 7.37995 4.15208ZM6.79061 5.19008C6.75261 5.06408 6.80726 4.96474 6.84326 4.91674C6.90792 4.83008 7.00592 4.77808 7.10461 4.77808C7.13261 4.77808 7.16126 4.78274 7.18926 4.79074C8.33726 5.13208 9.16992 6.1414 9.31126 7.31208C8.13995 7.17008 7.13195 6.33743 6.79061 5.19008Z" fill="#212121"/>
<path d="M13.0239 4.518C12.7773 4.18735 12.3433 4.03535 11.9533 4.152C10.4106 4.61066 9.33325 6.056 9.33325 7.66666C9.33325 7.85066 9.4826 8 9.6666 8C11.2773 8 12.7226 6.92266 13.1813 5.38C13.2693 5.08466 13.2119 4.77 13.0239 4.518ZM12.5419 5.19C12.2013 6.338 11.1926 7.17066 10.0213 7.312C10.1626 6.14066 10.9959 5.132 12.1433 4.79066C12.1719 4.78266 12.2006 4.778 12.2286 4.778C12.3273 4.778 12.4253 4.83 12.4893 4.91666C12.5253 4.96466 12.5799 5.064 12.5419 5.19Z" fill="#212121"/>
<path d="M9.6666 2.66675C9.4826 2.66675 9.33325 2.81609 9.33325 3.00009V13.0001C9.33325 13.1841 9.4826 13.3334 9.6666 13.3334C9.8506 13.3334 9.99994 13.1841 9.99994 13.0001V3.00009C9.99994 2.81609 9.8506 2.66675 9.6666 2.66675Z" fill="#212121"/>
<path d="M9.9021 7.43124C9.7721 7.30124 9.56075 7.30124 9.43075 7.43124L7.43075 9.43124C7.30075 9.56124 7.30075 9.77258 7.43075 9.90258C7.4961 9.96724 7.58141 9.99993 7.66675 9.99993C7.7521 9.99993 7.83741 9.96727 7.9021 9.90258L9.9021 7.90258C10.0321 7.77255 10.0321 7.56124 9.9021 7.43124Z" fill="#212121"/>
<path d="M11.9021 9.43124L9.9021 7.43124C9.7721 7.30124 9.56075 7.30124 9.43075 7.43124C9.30075 7.56124 9.30075 7.77258 9.43075 7.90258L11.4308 9.90258C11.4961 9.96724 11.5814 9.99993 11.6668 9.99993C11.7521 9.99993 11.8374 9.96727 11.9021 9.90258C12.0321 9.77255 12.0321 9.56124 11.9021 9.43124Z" fill="#212121"/>
<path d="M15.6667 7.33325H0.333344C0.149344 7.33325 0 7.48256 0 7.66656C0 7.85056 0.149344 7.99991 0.333344 7.99991H15.6667C15.8507 7.99991 16 7.85056 16 7.66656C16 7.48256 15.8507 7.33325 15.6667 7.33325Z" fill="#212121"/>
</g>
<defs>
<clipPath id="clip0_5002_159">
<rect width="16" height="16" fill="white"/>
</clipPath>
</defs>
</svg>
