<svg width="82" height="20" viewBox="0 0 82 20" fill="none" xmlns="http://www.w3.org/2000/svg">
<g clip-path="url(#clip0_128_2346)">
<path d="M14.4299 0.5H10.3923C10.3923 3.93917 8.87146 7.07765 6.22805 9.14491L4.63477 10.3853L10.8269 19.1429H15.9145L10.2113 11.0806C12.909 8.29921 14.4299 4.54055 14.4299 0.5Z" fill="#212121"/>
<path d="M4.12806 0.5H0V19.1429H4.12806V0.5Z" fill="#212121"/>
<path d="M21.0021 0.5H17.1094V19.1429H21.0021V0.5Z" fill="#212121"/>
<path d="M55.1491 5.89368C53.6644 5.89368 52.2522 6.36351 51.3107 7.69783V6.25075H47.6172V19.1429H51.365V12.3774C51.365 10.4229 52.6324 9.4644 54.1533 9.4644C55.7828 9.4644 56.7243 10.4792 56.7243 12.3586V19.1617H60.4359V10.9491C60.4359 7.94214 58.1365 5.89368 55.1491 5.89368Z" fill="#212121"/>
<path d="M32.7712 6.25075V7.07765C31.7211 6.32592 30.4537 5.89368 29.0776 5.89368C25.4565 5.89368 22.5234 8.93819 22.5234 12.6968C22.5234 16.4555 25.4565 19.5 29.0776 19.5C30.4537 19.5 31.7211 19.0678 32.7712 18.316V19.1429H36.4828V6.25075H32.7712ZM29.3854 16.0045C27.5206 16.0045 26.0178 14.5198 26.0178 12.6968C26.0178 10.8739 27.5206 9.38923 29.3854 9.38923C31.2503 9.38923 32.7531 10.8739 32.7531 12.6968C32.7531 14.5198 31.2503 16.0045 29.3854 16.0045Z" fill="#212121"/>
<path d="M42.2397 7.92333V6.25073H38.4375V19.1429H42.2578V13.1291C42.2578 11.0994 44.3761 10.0094 45.8427 10.0094C45.8608 10.0094 45.8789 10.0094 45.8789 10.0094V6.25073C44.3761 6.25073 42.982 6.92729 42.2397 7.92333Z" fill="#212121"/>
<path d="M71.988 6.25075V7.07765C70.9378 6.32592 69.6705 5.89368 68.2944 5.89368C64.6733 5.89368 61.7402 8.93819 61.7402 12.6968C61.7402 16.4555 64.6733 19.5 68.2944 19.5C69.6705 19.5 70.9378 19.0678 71.988 18.316V19.1429H75.6996V6.25075H71.988ZM68.6022 16.0045C66.7374 16.0045 65.2346 14.5198 65.2346 12.6968C65.2346 10.8739 66.7374 9.38923 68.6022 9.38923C70.4671 9.38923 71.9699 10.8739 71.9699 12.6968C71.988 14.5198 70.4671 16.0045 68.6022 16.0045Z" fill="#212121"/>
<path d="M78.5781 6.62662C78.5781 6.43869 78.4514 6.32593 78.2522 6.32593H77.9082V7.30318H78.0712V6.94611H78.2522L78.3971 7.30318H78.5781L78.4152 6.90852C78.5238 6.85214 78.5781 6.75817 78.5781 6.62662ZM78.2522 6.77697H78.0712V6.47627H78.2522C78.3608 6.47627 78.4152 6.53265 78.4152 6.62662C78.4152 6.72059 78.379 6.77697 78.2522 6.77697Z" fill="#212121"/>
<path d="M78.1977 5.91248C77.7089 5.91248 77.3105 6.32593 77.3105 6.83335C77.3287 7.34076 77.7089 7.75422 78.1977 7.75422C78.6866 7.75422 79.0849 7.34076 79.0849 6.83335C79.0849 6.32593 78.6866 5.91248 78.1977 5.91248ZM78.1977 7.58508C77.7994 7.58508 77.4916 7.2468 77.4916 6.83335C77.4916 6.41989 77.8175 6.08162 78.1977 6.08162C78.596 6.08162 78.9038 6.41989 78.9038 6.83335C78.9038 7.2468 78.5779 7.58508 78.1977 7.58508Z" fill="#212121"/>
<path d="M79.6637 14.5762C78.3782 14.5762 77.3281 15.6662 77.3281 17.0005C77.3281 18.3348 78.3782 19.4248 79.6637 19.4248C80.9492 19.4248 81.9994 18.3348 81.9994 17.0005C81.9994 15.6474 80.9492 14.5762 79.6637 14.5762Z" fill="#212121"/>
</g>
<defs>
<clipPath id="clip0_128_2346">
<rect width="82" height="19" fill="white" transform="translate(0 0.5)"/>
</clipPath>
</defs>
</svg>
