<svg width="24" height="24" viewBox="0 0 24 24" fill="none" xmlns="http://www.w3.org/2000/svg">
<g clip-path="url(#clip0_712_364)">
<path d="M12.5 20H1.326C0.595 20 0 19.405 0 18.674V6.5C0 6.224 0.224 6 0.5 6H19.5C19.776 6 20 6.224 20 6.5V9.5C20 9.776 19.776 10 19.5 10C19.224 10 19 9.776 19 9.5V7H1V18.674C1 18.854 1.146 19 1.326 19H12.5C12.776 19 13 19.224 13 19.5C13 19.776 12.776 20 12.5 20Z" fill="#212121"/>
<path d="M19.5 7C19.324 7 19.153 6.907 19.062 6.741L16.042 1.259C15.955 1.099 15.787 1 15.604 1H4.39599C4.21299 1 4.04499 1.099 3.95799 1.259L0.937994 6.741C0.803994 6.984 0.497994 7.069 0.258994 6.938C0.0169936 6.805 -0.0710064 6.5 0.0619936 6.259L3.08199 0.777C3.34499 0.297 3.84899 0 4.39599 0H15.605C16.152 0 16.656 0.297 16.919 0.776L19.938 6.258C20.072 6.5 19.984 6.804 19.742 6.937C19.665 6.98 19.582 7 19.5 7Z" fill="#212121"/>
<path d="M10 7C9.724 7 9.5 6.776 9.5 6.5V0.5C9.5 0.224 9.724 0 10 0C10.276 0 10.5 0.224 10.5 0.5V6.5C10.5 6.776 10.276 7 10 7Z" fill="#212121"/>
<path d="M15.5 24C15.224 24 15 23.776 15 23.5V21.5C15 17.916 17.916 15 21.5 15H23.5C23.776 15 24 15.224 24 15.5C24 15.776 23.776 16 23.5 16H21.5C18.468 16 16 18.467 16 21.5V23.5C16 23.776 15.776 24 15.5 24Z" fill="#212121"/>
<path d="M20.0003 19.0001C19.8593 19.0001 19.7203 18.9411 19.6203 18.8251C19.4403 18.6161 19.4653 18.3001 19.6753 18.1201L22.7323 15.4991L19.6753 12.8781C19.4653 12.6981 19.4413 12.3831 19.6203 12.1731C19.8023 11.9631 20.1173 11.9401 20.3253 12.1191L23.8253 15.1191C23.9373 15.2151 24.0003 15.3541 24.0003 15.5001C24.0003 15.6461 23.9373 15.7851 23.8253 15.8791L20.3253 18.8791C20.2313 18.9601 20.1153 19.0001 20.0003 19.0001Z" fill="#212121"/>
</g>
<defs>
<clipPath id="clip0_712_364">
<rect width="24" height="24" fill="white"/>
</clipPath>
</defs>
</svg>
