<svg width="24" height="24" viewBox="0 0 24 24" fill="none" xmlns="http://www.w3.org/2000/svg">
<g clip-path="url(#clip0_712_378)">
<path d="M17.5 24C13.916 24 11 21.084 11 17.5C11 13.916 13.916 11 17.5 11C21.084 11 24 13.916 24 17.5C24 21.084 21.084 24 17.5 24ZM17.5 12C14.467 12 12 14.467 12 17.5C12 20.533 14.467 23 17.5 23C20.533 23 23 20.533 23 17.5C23 14.467 20.533 12 17.5 12Z" fill="#00BB1E"/>
<path d="M16.5 20C16.368 20 16.24 19.947 16.146 19.854L14.146 17.854C13.951 17.659 13.951 17.342 14.146 17.147C14.341 16.952 14.658 16.952 14.853 17.147L16.475 18.769L19.623 15.171C19.805 14.962 20.121 14.942 20.329 15.124C20.537 15.306 20.558 15.622 20.376 15.83L16.876 19.83C16.785 19.934 16.654 19.996 16.516 20C16.511 20 16.505 20 16.5 20Z" fill="#00BB1E"/>
<path d="M9.5 20H1.326C0.595 20 0 19.405 0 18.674V6.5C0 6.224 0.224 6 0.5 6H19.5C19.776 6 20 6.224 20 6.5V9.5C20 9.776 19.776 10 19.5 10C19.224 10 19 9.776 19 9.5V7H1V18.674C1 18.854 1.146 19 1.326 19H9.5C9.776 19 10 19.224 10 19.5C10 19.776 9.776 20 9.5 20Z" fill="#00BB1E"/>
<path d="M19.5 7C19.324 7 19.153 6.907 19.062 6.741L16.042 1.259C15.955 1.099 15.787 1 15.605 1H4.39503C4.21303 1 4.04503 1.099 3.95703 1.259L0.937025 6.741C0.803025 6.983 0.501025 7.071 0.258025 6.938C0.0170252 6.805 -0.0709748 6.5 0.0620252 6.259L3.08203 0.777C3.34503 0.297 3.84903 0 4.39503 0H15.605C16.151 0 16.655 0.297 16.918 0.776L19.938 6.258C20.071 6.5 19.983 6.804 19.741 6.937C19.665 6.98 19.582 7 19.5 7Z" fill="#00BB1E"/>
<path d="M10 7C9.724 7 9.5 6.776 9.5 6.5V0.5C9.5 0.224 9.724 0 10 0C10.276 0 10.5 0.224 10.5 0.5V6.5C10.5 6.776 10.276 7 10 7Z" fill="#00BB1E"/>
</g>
<defs>
<clipPath id="clip0_712_378">
<rect width="24" height="24" fill="white"/>
</clipPath>
</defs>
</svg>
