<svg width="16" height="16" viewBox="0 0 16 16" fill="none" xmlns="http://www.w3.org/2000/svg">
<g clip-path="url(#clip0_5002_150)">
<path d="M6.33333 16C5.88733 16 5.46867 15.8267 5.154 15.5113L0.488 10.8447C0.173333 10.5307 0 10.112 0 9.66667C0 9.23867 0.162 8.832 0.456 8.52133L7.974 0.728C8.41 0.266 9.028 0 9.66667 0H14.3333C15.2527 0 16 0.748 16 1.66667V6.33333C16 6.97133 15.7347 7.58867 15.2713 8.02733L7.48067 15.542C7.16733 15.838 6.76133 16 6.33333 16ZM9.66667 0.666667C9.204 0.666667 8.77333 0.852 8.456 1.188L0.938 8.982C0.764 9.166 0.666667 9.41 0.666667 9.66667C0.666667 9.934 0.770667 10.1847 0.959333 10.3733L5.626 15.04C5.996 15.4107 6.64 15.42 7.02 15.0593L14.81 7.546C14.8107 7.54533 14.8113 7.54467 14.812 7.544C15.1487 7.226 15.3333 6.796 15.3333 6.33333V1.66667C15.3333 1.11533 14.8847 0.666667 14.3333 0.666667H9.66667Z" fill="#212121"/>
<path d="M12.6666 4.66667C11.9313 4.66667 11.3333 4.06867 11.3333 3.33333C11.3333 2.598 11.9313 2 12.6666 2C13.4019 2 13.9999 2.598 13.9999 3.33333C13.9999 4.06867 13.4019 4.66667 12.6666 4.66667ZM12.6666 2.66667C12.2986 2.66667 11.9999 2.966 11.9999 3.33333C11.9999 3.70067 12.2986 4 12.6666 4C13.0346 4 13.3333 3.70067 13.3333 3.33333C13.3333 2.966 13.0346 2.66667 12.6666 2.66667Z" fill="#212121"/>
<path d="M6.00008 13.3334C5.26475 13.3334 4.66675 12.7354 4.66675 12.0001C4.66675 11.2647 5.26475 10.6667 6.00008 10.6667C6.73541 10.6667 7.33341 11.2647 7.33341 12.0001C7.33341 12.7354 6.73541 13.3334 6.00008 13.3334ZM6.00008 11.3334C5.63208 11.3334 5.33341 11.6327 5.33341 12.0001C5.33341 12.3674 5.63208 12.6667 6.00008 12.6667C6.36808 12.6667 6.66675 12.3674 6.66675 12.0001C6.66675 11.6327 6.36808 11.3334 6.00008 11.3334Z" fill="#212121"/>
<path d="M7.33333 7.33341C6.598 7.33341 6 6.73541 6 6.00008C6 5.26475 6.598 4.66675 7.33333 4.66675C8.06867 4.66675 8.66667 5.26475 8.66667 6.00008C8.66667 6.73541 8.06867 7.33341 7.33333 7.33341ZM7.33333 5.33341C6.96533 5.33341 6.66667 5.63275 6.66667 6.00008C6.66667 6.36741 6.96533 6.66675 7.33333 6.66675C7.70133 6.66675 8 6.36741 8 6.00008C8 5.63275 7.70133 5.33341 7.33333 5.33341Z" fill="#212121"/>
<path d="M2.99944 10.0001C2.84211 10.0001 2.70144 9.88739 2.67211 9.72606C2.63944 9.54539 2.75944 9.37139 2.94011 9.33872L10.2734 8.00539C10.4514 7.97006 10.6281 8.09139 10.6614 8.27339C10.6941 8.45406 10.5741 8.62806 10.3934 8.66072L3.06011 9.99406C3.04011 9.99872 3.01944 10.0001 2.99944 10.0001Z" fill="#212121"/>
</g>
<defs>
<clipPath id="clip0_5002_150">
<rect width="16" height="16" fill="white"/>
</clipPath>
</defs>
</svg>
