<svg width="156" height="22" viewBox="0 0 156 22" fill="none" xmlns="http://www.w3.org/2000/svg">
<path fill-rule="evenodd" clip-rule="evenodd" d="M152.001 0C154.21 0 156.001 1.79086 156.001 4V18C156.001 20.2091 154.21 22 152.001 22H15.6169C14.4777 22 13.3926 21.5143 12.6337 20.6647L6.38107 13.6647C5.02532 12.1469 5.02532 9.8531 6.38107 8.33531L12.6337 1.33531C13.3926 0.485718 14.4777 0 15.6169 0H152.001ZM13.0766 13C14.1807 13 15.0757 12.1046 15.0757 11C15.0757 9.89543 14.1807 9 13.0766 9C11.9726 9 11.0775 9.89543 11.0775 11C11.0775 12.1046 11.9726 13 13.0766 13Z" fill="#822338"/>
<path d="M3.02379 8.01673C3.39482 7.7375 3.82588 7.54866 4.28269 7.46522C4.73951 7.38178 5.20949 7.40605 5.65528 7.5361L7.02509 7.93262L6.56248 8.53943C6.35332 8.80789 6.26876 8.95544 6.08785 9.43461L5.18065 9.17627C4.98926 9.11653 4.78638 9.10336 4.58888 9.13784C4.39137 9.17233 4.20496 9.25347 4.04514 9.37453C3.88691 9.49609 3.759 9.65265 3.67144 9.83195C3.58388 10.0112 3.53905 10.2084 3.54047 10.4079C3.53923 10.6077 3.58456 10.805 3.67288 10.9842C3.7612 11.1634 3.89007 11.3196 4.04927 11.4403C4.20846 11.561 4.3936 11.6429 4.58999 11.6796C4.78638 11.7163 4.98862 11.7067 5.18065 11.6516L12.3842 9.59082C12.5292 9.55018 12.6823 9.54879 12.828 9.5868C12.9737 9.6248 13.1067 9.70083 13.2133 9.80711C13.317 9.90998 13.3917 10.0385 13.4296 10.1796C13.4898 10.3963 13.4616 10.628 13.3512 10.824C13.2409 11.0199 13.0573 11.1641 12.8408 11.225L5.65528 13.2797C5.14167 13.4277 4.59781 13.4355 4.08015 13.3024C3.56249 13.1693 3.08988 12.9001 2.71137 12.5227C2.434 12.2462 2.21419 11.9175 2.06465 11.5555C1.91512 11.1936 1.83884 10.8055 1.84022 10.4139C1.83736 9.9498 1.94287 9.49143 2.14834 9.07527C2.35382 8.65911 2.65358 8.29665 3.02379 8.01673Z" fill="#212121"/>
</svg>
