<svg width="36" height="36" viewBox="0 0 36 36" fill="none" xmlns="http://www.w3.org/2000/svg">
<path d="M26.6709 25.1647H25.3281C25.1513 25.1647 24.9817 25.0941 24.8567 24.9682C24.7317 24.8424 24.6614 24.6718 24.6614 24.4939C24.6614 24.316 24.7317 24.1454 24.8567 24.0195C24.9817 23.8937 25.1513 23.8231 25.3281 23.8231H27.4907C27.6004 23.824 27.7091 23.8032 27.8107 23.7616C27.9123 23.7201 28.0046 23.6588 28.0825 23.5811C28.1604 23.5034 28.2222 23.411 28.2644 23.3092C28.3066 23.2074 28.3283 23.0982 28.3283 22.9879C28.3283 22.8775 28.3066 22.7683 28.2644 22.6665C28.2222 22.5647 28.1604 22.4723 28.0825 22.3946C28.0046 22.317 27.9123 22.2556 27.8107 22.2141C27.7091 22.1725 27.6004 22.1517 27.4907 22.1527H26.8295V21.8352C26.8295 21.6137 26.7421 21.4013 26.5864 21.2446C26.4307 21.088 26.2196 21 25.9994 21C25.7793 21 25.5681 21.088 25.4125 21.2446C25.2568 21.4013 25.1693 21.6137 25.1693 21.8352V22.1587C24.5672 22.1998 24.0044 22.4747 23.5999 22.9254C23.1954 23.3761 22.9807 23.9673 23.0014 24.5742C23.022 25.1812 23.2762 25.7563 23.7103 26.1782C24.1445 26.6 24.7246 26.8356 25.3281 26.8352H26.6709C26.8477 26.8352 27.0173 26.9059 27.1423 27.0317C27.2673 27.1575 27.3376 27.3281 27.3376 27.506C27.3376 27.684 27.2673 27.8546 27.1423 27.9804C27.0173 28.1062 26.8477 28.1769 26.6709 28.1769H24.4972C24.2771 28.1769 24.0659 28.2649 23.9103 28.4215C23.7546 28.5781 23.6671 28.7906 23.6671 29.0121C23.6671 29.2336 23.7546 29.4461 23.9103 29.6027C24.0659 29.7593 24.2771 29.8473 24.4972 29.8473H25.1695V30.1648C25.1695 30.3863 25.2569 30.5987 25.4126 30.7554C25.5683 30.912 25.7794 31 25.9996 31C26.2197 31 26.4309 30.912 26.5865 30.7554C26.7422 30.5987 26.8297 30.3863 26.8297 30.1648V29.8413C27.432 29.8005 27.995 29.5257 28.3998 29.0749C28.8045 28.6242 29.0192 28.0328 28.9986 27.4257C28.978 26.8186 28.7237 26.2434 28.2893 25.8215C27.855 25.3996 27.2747 25.1641 26.6709 25.1647H26.6709Z" fill="#212121"/>
<path d="M26 18C24.4178 18 22.871 18.4692 21.5554 19.3482C20.2398 20.2273 19.2145 21.4767 18.609 22.9385C18.0035 24.4003 17.845 26.0089 18.1537 27.5607C18.4624 29.1126 19.2243 30.538 20.3431 31.6569C21.462 32.7757 22.8874 33.5376 24.4393 33.8463C25.9911 34.155 27.5997 33.9965 29.0615 33.391C30.5233 32.7855 31.7727 31.7602 32.6518 30.4446C33.5308 29.129 34 27.5822 34 26C33.9976 23.879 33.154 21.8456 31.6542 20.3458C30.1544 18.846 28.121 18.0024 26 18ZM26 32.4283C24.7286 32.4283 23.4858 32.0513 22.4286 31.3449C21.3715 30.6386 20.5476 29.6346 20.0611 28.46C19.5745 27.2854 19.4472 25.9929 19.6953 24.7459C19.9433 23.4989 20.5555 22.3535 21.4545 21.4545C22.3535 20.5555 23.4989 19.9433 24.7459 19.6952C25.9929 19.4472 27.2854 19.5745 28.46 20.0611C29.6346 20.5476 30.6386 21.3715 31.3449 22.4286C32.0513 23.4858 32.4283 24.7286 32.4283 26C32.4263 27.7043 31.7485 29.3382 30.5433 30.5433C29.3382 31.7485 27.7043 32.4263 26 32.4283Z" fill="#212121"/>
<path d="M27.3354 14.5804H26.0267C25.8106 14.5804 25.6035 14.6662 25.4507 14.8189C25.2979 14.9717 25.2121 15.1789 25.2121 15.3949C25.2121 15.6109 25.2979 15.8181 25.4507 15.9709C25.6035 16.1236 25.8106 16.2095 26.0267 16.2095H28.154C28.3787 16.201 28.5915 16.1068 28.7489 15.9462C28.9062 15.7857 28.9961 15.5709 29 15.3462C28.9595 11.7926 27.5194 8.39832 24.9921 5.89977C22.4648 3.40122 19.0543 1.99995 15.5003 2C8.05631 2 2 8.05608 2 15.5C2 22.944 8.05631 29 15.5003 29C15.675 29 15.845 28.9438 15.9853 28.8398C16.1256 28.7358 16.2288 28.5895 16.2796 28.4224C16.304 28.3528 16.3159 28.2794 16.3149 28.2057V25.9208C16.313 25.706 16.2263 25.5007 16.0738 25.3495C15.9212 25.1983 15.7151 25.1134 15.5003 25.1134C15.2855 25.1134 15.0794 25.1983 14.9268 25.3495C14.7743 25.5007 14.6876 25.706 14.6858 25.9208V27.3427C8.75285 26.9386 4.00303 22.1563 3.65074 16.2096H4.97413C5.19017 16.2096 5.39736 16.1238 5.55012 15.971C5.70288 15.8183 5.78871 15.6111 5.78871 15.395C5.78871 15.179 5.70288 14.9718 5.55012 14.8191C5.39736 14.6663 5.19017 14.5805 4.97413 14.5805H3.66446C4.11489 8.73139 8.82279 4.05681 14.6859 3.65749V4.86893C14.685 4.9765 14.7053 5.08318 14.7458 5.18283C14.7864 5.28248 14.8462 5.37311 14.9219 5.44951C14.9977 5.5259 15.0878 5.58654 15.1871 5.62792C15.2864 5.66931 15.3929 5.69061 15.5004 5.69061C15.608 5.69061 15.7145 5.66931 15.8138 5.62792C15.9131 5.58654 16.0032 5.5259 16.0789 5.44951C16.1547 5.37311 16.2145 5.28248 16.255 5.18283C16.2955 5.08318 16.3159 4.9765 16.315 4.86893V3.65774C22.155 4.05937 26.8831 8.74287 27.3354 14.5804Z" fill="#212121"/>
<path d="M15.2443 10C15.0439 10 14.8517 10.088 14.7099 10.2447C14.5682 10.4013 14.4886 10.6138 14.4886 10.8354V15.1852L9.37833 18.4409C9.29235 18.4957 9.21697 18.5687 9.1565 18.6556C9.09603 18.7426 9.05165 18.8419 9.02589 18.9479C9.00014 19.0538 8.99351 19.1643 9.00639 19.2731C9.01928 19.3819 9.05141 19.4868 9.10097 19.5818C9.15053 19.6768 9.21654 19.7602 9.29522 19.827C9.37391 19.8939 9.46374 19.9429 9.55958 19.9714C9.65542 19.9998 9.7554 20.0072 9.8538 19.9929C9.9522 19.9787 10.0471 19.9432 10.1331 19.8884L15.6217 16.3918C15.6355 16.3829 15.6477 16.3743 15.659 16.3659C15.7638 16.29 15.8498 16.1864 15.9094 16.0646C15.9689 15.9427 16 15.8064 16 15.668V10.8354C16 10.7257 15.9805 10.6171 15.9425 10.5157C15.9045 10.4143 15.8489 10.3223 15.7787 10.2447C15.7085 10.1671 15.6252 10.1056 15.5335 10.0636C15.4418 10.0216 15.3436 10 15.2443 10Z" fill="#212121"/>
</svg>
