<svg width="74" height="14" fill="none" xmlns="http://www.w3.org/2000/svg"><circle cx="71.041" cy="2.292" r="2.292" transform="rotate(-180 71.041 2.292)" fill="#011E41"/><circle cx="29.791" cy="2.292" r="2.292" transform="rotate(-180 29.791 2.292)" fill="#011E41"/><circle cx="64.494" cy="2.292" r="2.292" transform="rotate(-180 64.494 2.292)" fill="#011E41"/><circle cx="22.589" cy="2.292" r="2.292" transform="rotate(-180 22.589 2.292)" fill="#011E41"/><circle cx="57.291" cy="2.292" r="2.292" transform="rotate(-180 57.291 2.292)" fill="#011E41"/><circle cx="16.041" cy="2.292" r="2.292" transform="rotate(-180 16.041 2.292)" fill="#011E41"/><circle cx="8.839" cy="2.292" r="2.292" transform="rotate(-180 8.839 2.292)" fill="#011E41"/><circle cx="29.791" cy="11.458" r="2.292" transform="rotate(-180 29.791 11.458)" fill="#011E41"/><circle cx="64.494" cy="11.458" r="2.292" transform="rotate(-180 64.494 11.458)" fill="#011E41"/><circle cx="23.244" cy="11.458" r="2.292" transform="rotate(-180 23.244 11.458)" fill="#011E41"/><circle cx="57.946" cy="11.458" r="2.292" transform="rotate(-180 57.946 11.458)" fill="#011E41"/><circle cx="16.041" cy="11.458" r="2.292" transform="rotate(-180 16.041 11.458)" fill="#011E41"/><circle cx="50.744" cy="11.458" r="2.292" transform="rotate(-180 50.744 11.458)" fill="#011E41"/><circle cx="9.494" cy="11.458" r="2.292" transform="rotate(-180 9.494 11.458)" fill="#011E41"/><circle cx="44.196" cy="11.458" r="2.292" transform="rotate(-180 44.196 11.458)" fill="#011E41"/><circle cx="2.291" cy="11.458" r="2.292" transform="rotate(-180 2.291 11.458)" fill="#011E41"/><circle cx="36.994" cy="11.458" r="2.292" transform="rotate(-180 36.994 11.458)" fill="#011E41"/></svg>