<svg width="141" height="24" fill="none" xmlns="http://www.w3.org/2000/svg"><circle cx="20.768" cy="19.743" r="3.867" fill="#00ADED"/><circle cx="90.378" cy="19.743" r="3.867" fill="#00ADED"/><circle cx="78.135" cy="19.743" r="3.867" fill="#00ADED"/><circle cx="66.178" cy="19.743" r="3.867" fill="#00ADED"/><circle cx="54.79" cy="19.743" r="3.867" fill="#00ADED"/><circle cx="31.817" cy="19.743" r="3.867" fill="#00ADED"/><circle cx="102.532" cy="19.743" r="3.867" fill="#00ADED"/><circle cx="43.971" cy="19.743" r="3.867" fill="#00ADED"/><circle cx="113.581" cy="19.743" r="3.867" fill="#00ADED"/><circle cx="125.735" cy="19.743" r="3.867" fill="#00ADED"/><circle cx="90.377" cy="4.274" r="3.867" fill="#00ADED"/><circle cx="31.817" cy="4.274" r="3.867" fill="#00ADED"/><circle cx="3.867" cy="4.274" r="3.867" fill="#00ADED"/><circle cx="101.427" cy="4.274" r="3.867" fill="#00ADED"/><circle cx="42.866" cy="4.274" r="3.867" fill="#00ADED"/><circle cx="113.581" cy="4.274" r="3.867" fill="#00ADED"/><circle cx="55.02" cy="4.274" r="3.867" fill="#00ADED"/><circle cx="124.63" cy="4.274" r="3.867" fill="#00ADED"/><circle cx="66.07" cy="4.274" r="3.867" fill="#00ADED"/><circle cx="136.784" cy="4.274" r="3.867" fill="#00ADED"/><circle cx="78.224" cy="4.274" r="3.867" fill="#00ADED"/></svg>