<svg width="20" height="38" viewBox="0 0 20 38" fill="none" xmlns="http://www.w3.org/2000/svg">
<path d="M15.4549 24.1869C15.3104 24.1767 15.1677 24.2239 15.0579 24.3184C14.9481 24.4129 14.8801 24.5469 14.8686 24.6913L14.7124 26.7729C14.7018 26.9174 14.7491 27.0603 14.8438 27.17C14.9384 27.2798 15.0728 27.3475 15.2174 27.3582H15.259C15.3968 27.358 15.5295 27.3058 15.6305 27.212C15.7315 27.1182 15.7933 26.9897 15.8036 26.8522L15.9599 24.7707C15.9701 24.6263 15.9227 24.4838 15.8281 24.3744C15.7334 24.265 15.5992 24.1976 15.4549 24.1869Z" fill="#0C0B0B"/>
<path d="M19.2344 0.484375H1.26562C1.12058 0.484375 0.981485 0.541992 0.878926 0.644551C0.776367 0.74711 0.71875 0.88621 0.71875 1.03125V2.90625C0.718779 3.01469 0.751063 3.12067 0.811496 3.21071C0.871929 3.30074 0.957779 3.37077 1.05812 3.41188L3.09531 30.6138C3.121 30.927 3.24495 31.2242 3.4495 31.4628C3.65404 31.7015 3.92873 31.8695 4.23438 31.9428V36.0312C4.23487 36.4248 4.39142 36.802 4.66969 37.0803C4.94795 37.3586 5.32522 37.5151 5.71875 37.5156H14.7812C15.1748 37.5151 15.552 37.3586 15.8303 37.0803C16.1086 36.802 16.2651 36.4248 16.2656 36.0312V31.9428C16.5715 31.8695 16.8463 31.7014 17.0509 31.4626C17.2554 31.2237 17.3793 30.9263 17.4047 30.6128L19.4419 3.41188C19.5422 3.37073 19.628 3.3007 19.6884 3.21067C19.7489 3.12064 19.7812 3.01468 19.7812 2.90625V1.03125C19.7813 0.959422 19.7672 0.88829 19.7397 0.821922C19.7122 0.755553 19.672 0.69525 19.6212 0.644459C19.5704 0.593669 19.5101 0.553388 19.4437 0.52592C19.3773 0.498451 19.3062 0.484334 19.2344 0.484375ZM1.8125 1.57813H18.6875V2.35938H1.8125V1.57813ZM8.92188 36.4219V34.7031H11.5781V36.4219H8.92188ZM14.7812 36.4219H12.6719V34.1562C12.6719 34.0844 12.6578 34.0133 12.6303 33.9469C12.6029 33.8806 12.5626 33.8202 12.5118 33.7695C12.461 33.7187 12.4007 33.6784 12.3343 33.6509C12.268 33.6235 12.1968 33.6093 12.125 33.6094H8.375C8.22996 33.6094 8.09086 33.667 7.9883 33.7696C7.88574 33.8721 7.82812 34.0112 7.82812 34.1562V36.4219H5.71875C5.61515 36.4219 5.51579 36.3807 5.44254 36.3075C5.36928 36.2342 5.32812 36.1348 5.32812 36.0312V31.9875H15.1719V36.0312C15.1718 36.1348 15.1306 36.2341 15.0574 36.3074C14.9841 36.3806 14.8848 36.4218 14.7812 36.4219ZM16.3141 30.5312C16.3076 30.63 16.2638 30.7225 16.1915 30.79C16.1192 30.8575 16.0239 30.895 15.925 30.8947H4.575C4.47633 30.8947 4.38137 30.8571 4.3094 30.7896C4.23743 30.7221 4.19385 30.6297 4.1875 30.5312L2.15812 3.45312H18.3419L16.3141 30.5312Z" fill="#0C0B0B"/>
<path d="M10.25 11.4219C9.40016 11.4219 8.5694 11.6739 7.86279 12.146C7.15617 12.6182 6.60543 13.2893 6.28021 14.0744C5.95499 14.8596 5.86989 15.7235 6.03569 16.557C6.20149 17.3905 6.61072 18.1562 7.21165 18.7571C7.81258 19.358 8.57821 19.7673 9.41172 19.9331C10.2452 20.0989 11.1092 20.0138 11.8943 19.6885C12.6795 19.3633 13.3506 18.8126 13.8227 18.106C14.2949 17.3993 14.5469 16.5686 14.5469 15.7188C14.5456 14.5795 14.0925 13.4873 13.287 12.6818C12.4814 11.8762 11.3892 11.4231 10.25 11.4219ZM10.25 18.9219C9.61648 18.9219 8.99719 18.734 8.47044 18.3821C7.94369 18.0301 7.53314 17.5298 7.2907 16.9445C7.04826 16.3592 6.98483 15.7152 7.10842 15.0939C7.23202 14.4725 7.53709 13.9018 7.98505 13.4538C8.43302 13.0058 9.00376 12.7008 9.6251 12.5772C10.2464 12.4536 10.8905 12.517 11.4758 12.7594C12.0611 13.0019 12.5613 13.4124 12.9133 13.9392C13.2653 14.4659 13.4531 15.0852 13.4531 15.7188C13.4522 16.568 13.1145 17.3822 12.5139 17.9827C11.9134 18.5832 11.0992 18.921 10.25 18.9219Z" fill="#0C0B0B"/>
</svg>
