<svg width="9" height="9" viewBox="0 0 9 9" fill="none" xmlns="http://www.w3.org/2000/svg">
<path d="M6.19787 4.48723L8.75106 1.93404C9.08298 1.62766 9.08298 1.11702 8.75106 0.810638L8.18936 0.248936C7.88298 -0.0829787 7.37234 -0.0829787 7.06596 0.248936L4.51277 2.80213L1.93404 0.248936C1.62766 -0.0829787 1.11702 -0.0829787 0.810638 0.248936L0.248936 0.810638C-0.0829787 1.11702 -0.0829787 1.62766 0.248936 1.93404L2.80213 4.48723L0.248936 7.06596C-0.0829787 7.37234 -0.0829787 7.88298 0.248936 8.18936L0.810638 8.75106C1.11702 9.08298 1.62766 9.08298 1.93404 8.75106L4.51277 6.19787L7.06596 8.75106C7.37234 9.08298 7.88298 9.08298 8.18936 8.75106L8.75106 8.18936C9.08298 7.88298 9.08298 7.37234 8.75106 7.06596L6.19787 4.48723Z" fill="#6F6F6F"/>
</svg>
