<svg width="20" height="38" viewBox="0 0 20 38" fill="none" xmlns="http://www.w3.org/2000/svg">
<path d="M17.1091 12.7708L14.1481 10.3349V7.18801C14.1482 7.11618 14.1341 7.04505 14.1066 6.97868C14.0791 6.91231 14.0388 6.85201 13.988 6.80122C13.9373 6.75043 13.877 6.71015 13.8106 6.68268C13.7442 6.65521 13.6731 6.6411 13.6013 6.64114H11.4322V4.39989C12.9947 4.2952 14.905 4.17426 16.1059 4.48395C16.2172 4.51293 16.3349 4.50596 16.442 4.46403C16.5491 4.4221 16.6402 4.34736 16.7022 4.25051L17.6 2.85645C17.6416 2.79157 17.669 2.71865 17.6805 2.64245C17.692 2.56624 17.6872 2.48848 17.6666 2.41423C17.6459 2.33999 17.6099 2.27093 17.5607 2.2116C17.5115 2.15226 17.4504 2.10397 17.3813 2.06989C15.1448 0.964068 12.6795 0.40042 10.1847 0.424573C8.82321 0.414821 7.47328 0.674823 6.21282 1.18957C6.11736 1.23324 6.03649 1.30346 5.97986 1.39184C5.92323 1.48023 5.89323 1.58304 5.89344 1.68801V3.37957C5.89348 3.47874 5.92044 3.57604 5.97147 3.66107C6.02249 3.74611 6.09565 3.81569 6.18313 3.86239C6.77705 4.14129 7.41116 4.325 8.06219 4.40676V6.64176H5.89282C5.74778 6.64176 5.60868 6.69938 5.50612 6.80194C5.40356 6.9045 5.34594 7.0436 5.34594 7.18864V10.3349L2.38532 12.7708C1.78763 13.2611 1.30634 13.8781 0.976237 14.5772C0.646135 15.2763 0.475467 16.0399 0.476568 16.813V35.4671C0.477229 36.0263 0.699679 36.5625 1.09512 36.9579C1.49056 37.3533 2.0267 37.5758 2.58594 37.5765H16.9081C17.4674 37.5759 18.0036 37.3534 18.399 36.958C18.7945 36.5625 19.0169 36.0263 19.0175 35.4671V16.813C19.0186 16.04 18.848 15.2763 18.518 14.5772C18.1879 13.8782 17.7067 13.2612 17.1091 12.7708ZM6.98719 2.05864C8.01521 1.7006 9.09611 1.51795 10.1847 1.51832C12.304 1.49836 14.403 1.93192 16.3409 2.78989L15.9872 3.33926C14.6294 3.08926 12.8522 3.20801 11.2684 3.31457C10.5691 3.36145 9.90876 3.40582 9.39344 3.40832C8.57451 3.42228 7.75966 3.29 6.98719 3.0177V2.05864ZM9.15594 4.49614C9.22532 4.49614 9.29344 4.5002 9.36469 4.5002H9.39876C9.68157 4.5002 9.99938 4.48614 10.3384 4.46895V6.64176H9.15594V4.49614ZM6.43969 7.73551H13.0544V10.048H6.43969V7.73551ZM17.9238 35.4671C17.9234 35.7363 17.8163 35.9945 17.6259 36.1849C17.4355 36.3753 17.1774 36.4824 16.9081 36.4827H2.58594C2.31668 36.4824 2.05855 36.3753 1.86815 36.1849C1.67776 35.9945 1.57065 35.7363 1.57032 35.4671V16.813C1.56939 16.2015 1.70439 15.5974 1.96553 15.0445C2.22668 14.4916 2.60746 14.0036 3.08032 13.6158L6.08907 11.1402H13.4053L16.4141 13.6158C16.887 14.0035 17.2677 14.4915 17.5288 15.0445C17.7899 15.5974 17.9248 16.2015 17.9238 16.813V35.4671Z" fill="#0C0B0B"/>
<path d="M9.74344 17.7715C8.54884 17.7715 7.38107 18.1257 6.38778 18.7894C5.39449 19.453 4.62029 20.3963 4.16307 21.4999C3.70585 22.6035 3.58614 23.818 3.81908 24.9896C4.05202 26.1613 4.62715 27.2376 5.47174 28.0824C6.31634 28.9272 7.39247 29.5026 8.56408 29.7359C9.73568 29.9691 10.9501 29.8497 12.0539 29.3928C13.1576 28.9358 14.1011 28.1619 14.765 27.1688C15.4289 26.1756 15.7834 25.008 15.7838 23.8134C15.7823 22.2117 15.1456 20.6759 14.0131 19.5432C12.8807 18.4105 11.3451 17.7733 9.74344 17.7715ZM9.74344 28.7584C8.76504 28.7584 7.80861 28.4682 6.99511 27.9246C6.18162 27.381 5.54761 26.6084 5.17326 25.7044C4.79892 24.8004 4.70105 23.8058 4.89204 22.8462C5.08303 21.8866 5.5543 21.0052 6.24624 20.3135C6.93819 19.6218 7.81973 19.1508 8.77937 18.9601C9.73901 18.7694 10.7337 18.8676 11.6375 19.2422C12.5413 19.6169 13.3138 20.2511 13.8571 21.0648C14.4005 21.8784 14.6903 22.835 14.69 23.8134C14.6881 25.1245 14.1663 26.3815 13.239 27.3085C12.3117 28.2355 11.0546 28.7569 9.74344 28.7584Z" fill="#0C0B0B"/>
</svg>
