<svg width="30" height="30" viewBox="0 0 30 30" fill="none" xmlns="http://www.w3.org/2000/svg">
<g clip-path="url(#clip0_2734_8015)">
<path d="M7.0311 2.8125H9.8436L11.7186 4.6875L13.1249 8.4375L28.5936 22.9688C28.5936 22.9688 29.5 27.5 28.5936 28.5938C27.6872 29.6875 19.6874 28.5938 19.6874 28.5938L9.95304 14.6271C9.62269 14.1531 9.19835 13.7522 8.70641 13.4492C8.21448 13.1463 7.66546 12.9478 7.09353 12.8661C6.14019 12.7299 5.25675 12.2881 4.5758 11.6072L1.69734 8.72874C1.60503 8.63643 1.53184 8.5268 1.48197 8.40614C1.4321 8.28549 1.40654 8.15617 1.40674 8.02562L1.40674 8.02343C1.40715 7.76015 1.51203 7.50779 1.69834 7.32176C1.88466 7.13573 2.13718 7.03125 2.40047 7.03125C2.66386 7.03121 2.91649 7.13577 3.10281 7.32194C3.37833 7.59723 2.63484 6.85374 2.63484 6.85374C2.54251 6.76141 2.46926 6.65179 2.41929 6.53115C2.36932 6.4105 2.3436 6.2812 2.3436 6.15062C2.3436 6.02004 2.36932 5.89073 2.41929 5.77009C2.46926 5.64945 2.54251 5.53983 2.63484 5.44749C2.72718 5.35516 2.8368 5.28191 2.95744 5.23194C3.07808 5.18197 3.20739 5.15625 3.33797 5.15625C3.46855 5.15625 3.59786 5.18197 3.7185 5.23194C3.83914 5.28191 3.94876 5.35516 4.04109 5.44749L3.57234 4.97874C3.48001 4.88641 3.40676 4.77679 3.35679 4.65615C3.30682 4.5355 3.2811 4.4062 3.2811 4.27562C3.2811 4.14504 3.30682 4.01573 3.35679 3.89509C3.40676 3.77445 3.48001 3.66483 3.57234 3.57249C3.66468 3.48016 3.7743 3.40691 3.89494 3.35694C4.01558 3.30697 4.14489 3.28125 4.27547 3.28125C4.40605 3.28125 4.53536 3.30697 4.656 3.35694C4.77664 3.40691 4.88626 3.48016 4.97859 3.57249L4.50984 3.10374C4.41751 3.01141 4.34426 2.90179 4.29429 2.78115C4.24432 2.6605 4.2186 2.5312 4.2186 2.40062C4.2186 2.27004 4.24432 2.14073 4.29429 2.02009C4.34426 1.89945 4.41751 1.78983 4.50984 1.69749C4.60218 1.60516 4.7118 1.53191 4.83244 1.48194C4.95308 1.43197 5.08239 1.40625 5.21297 1.40625C5.34355 1.40625 5.47286 1.43197 5.5935 1.48194C5.71414 1.53191 5.82376 1.60516 5.91609 1.69749L7.0311 2.8125Z" fill="#FFCEB6"/>
<path d="M16 13L16.4275 12.7862C17.2121 12.3939 17.8614 11.839 18.3122 11.1755C18.7631 10.512 19 9.76249 19 9V8H14.2V8.08579C14.2 8.53415 14.094 8.97812 13.8881 9.39235C13.6822 9.80658 13.3804 10.183 13 10.5V13H16Z" fill="#999999"/>
<path d="M30 0H24L19.6364 1.8L18 6.6V7.8H19.0909L21.2727 4.8L24 4.2L22.9091 6L19.0909 7.8V9H20.1818L25.0909 8.4L27.8182 6H30V0Z" fill="#FFCEB6"/>
<path d="M9.56802 14.8952L19.1155 28.5938H20.2582L10.3371 14.3591C9.96933 13.8331 9.49758 13.3879 8.95101 13.0513C8.40445 12.7147 7.79467 12.4937 7.15935 12.402C6.30695 12.2785 5.51706 11.8835 4.90678 11.2758L2.02836 8.39735C1.92973 8.29886 1.87425 8.16523 1.87415 8.02584C1.87404 7.88646 1.92931 7.75274 2.02779 7.65411C2.12627 7.55547 2.25991 7.5 2.39929 7.49989C2.53868 7.49978 2.67239 7.55505 2.77103 7.65354L3.41793 8.30024C3.50585 8.38815 3.62508 8.43753 3.7494 8.43752C3.87373 8.43752 3.99296 8.38813 4.08086 8.30021C4.16877 8.2123 4.21815 8.09307 4.21814 7.96874C4.21814 7.84442 4.16875 7.72519 4.08083 7.63729L2.96581 6.52229C2.86724 6.42371 2.81187 6.29002 2.81187 6.15062C2.81188 6.0816 2.82547 6.01325 2.85189 5.94948C2.87831 5.88571 2.91703 5.82777 2.96584 5.77897C3.01464 5.73016 3.07259 5.69145 3.13636 5.66503C3.20013 5.63862 3.26848 5.62503 3.3375 5.62503C3.4769 5.62504 3.61059 5.68042 3.70916 5.77899L4.82418 6.89399C4.9121 6.9819 5.03133 7.03128 5.15565 7.03127C5.27998 7.03127 5.39921 6.98188 5.48711 6.89396C5.57502 6.80605 5.6244 6.68682 5.62439 6.56249C5.62439 6.43817 5.575 6.31894 5.48708 6.23104L3.90331 4.64729C3.80474 4.54871 3.74937 4.41502 3.74937 4.27562C3.74938 4.13622 3.80476 4.00253 3.90333 3.90397C4.00191 3.8054 4.1356 3.75003 4.275 3.75003C4.4144 3.75004 4.54809 3.80542 4.64666 3.90399L6.23043 5.48774C6.31835 5.57565 6.43758 5.62503 6.5619 5.62502C6.68623 5.62502 6.80546 5.57563 6.89336 5.48771C6.98127 5.3998 7.03065 5.28057 7.03064 5.15624C7.03064 5.03192 6.98125 4.91269 6.89333 4.82479L4.84081 2.77229C4.74224 2.67371 4.68687 2.54002 4.68687 2.40062C4.68688 2.26122 4.74226 2.12753 4.84083 2.02897C4.93941 1.9304 5.0731 1.87503 5.2125 1.87503C5.3519 1.87504 5.48559 1.93042 5.58416 2.02899L9.04293 5.48774C9.08646 5.53127 9.13814 5.56579 9.19501 5.58935C9.25189 5.61291 9.31285 5.62503 9.3744 5.62502C9.43596 5.62502 9.49692 5.61289 9.55379 5.58933C9.61066 5.56577 9.66234 5.53124 9.70586 5.48771C9.74939 5.44418 9.78391 5.39251 9.80747 5.33563C9.83103 5.27876 9.84315 5.2178 9.84314 5.15624C9.84314 5.09469 9.83101 5.03373 9.80746 4.97686C9.78389 4.91999 9.74936 4.86831 9.70583 4.82479L6.24706 1.36604C6.01268 1.13212 5.70591 0.984594 5.37685 0.947546C5.04779 0.910499 4.7159 0.986122 4.43537 1.16206C4.15485 1.33801 3.94227 1.60387 3.83236 1.91623C3.72245 2.2286 3.72171 2.569 3.83025 2.88184C3.64421 2.94136 3.47195 3.0375 3.32362 3.16458C3.17529 3.29167 3.05387 3.44714 2.96652 3.62185C2.87917 3.79656 2.82764 3.98697 2.81497 4.18189C2.8023 4.37681 2.82874 4.57229 2.89275 4.75684C2.7067 4.81637 2.53443 4.91251 2.3861 5.0396C2.23776 5.1667 2.11634 5.32219 2.02899 5.49691C1.94164 5.67163 1.89012 5.86206 1.87746 6.05699C1.8648 6.25192 1.89127 6.44741 1.95529 6.63197C1.66022 6.72683 1.40278 6.91273 1.21993 7.16299C1.03708 7.41325 0.938209 7.71501 0.937513 8.02495C0.936697 8.21726 0.974103 8.40782 1.04756 8.58554C1.12102 8.76327 1.22906 8.92463 1.36541 9.06025L4.24388 11.9387C4.99789 12.6895 5.97372 13.1774 7.02677 13.3302C7.53483 13.4035 8.02247 13.5802 8.45956 13.8494C8.89665 14.1185 9.2739 14.4745 9.56802 14.8952Z" fill="#FFB089"/>
<path d="M13.125 8.4375V18.75H18.75V13.7216L13.125 8.4375Z" fill="#B1712C"/>
<path d="M16.875 11.9605V13.1253H15V10.1992L16.875 11.9605Z" fill="#E3A15B"/>
<path d="M14.5312 16.4062H15.4688V17.3438H14.5312V16.4062Z" fill="#91591C"/>
<path d="M16.4062 16.4062H17.3438V17.3438H16.4062V16.4062Z" fill="#91591C"/>
<path d="M14.5312 14.5312H15.4688V15.4688H14.5312V14.5312Z" fill="#91591C"/>
<path d="M16.4062 14.5312H17.3438V15.4688H16.4062V14.5312Z" fill="#91591C"/>
</g>
<defs>
<clipPath id="clip0_2734_8015">
<rect width="30" height="30" fill="white"/>
</clipPath>
</defs>
</svg>
