<svg width="28" height="28" viewBox="0 0 28 28" fill="none" xmlns="http://www.w3.org/2000/svg">
<path d="M25.6649 5.13379V26.6005C25.6641 26.8478 25.5656 27.0847 25.3907 27.2596C25.2158 27.4345 24.9789 27.5331 24.7315 27.5338H3.26488C3.01757 27.5331 2.7806 27.4345 2.60573 27.2596C2.43085 27.0847 2.33228 26.8478 2.33154 26.6005V5.13379H25.6649Z" fill="#DDEBFD"/>
<path d="M2.33154 4.66667V1.40001C2.33228 1.1527 2.43085 0.915732 2.60573 0.740858C2.7806 0.565984 3.01757 0.467413 3.26488 0.466675H24.7315C24.9789 0.467413 25.2158 0.565984 25.3907 0.740858C25.5656 0.915732 25.6641 1.1527 25.6649 1.40001V4.66667H2.33154Z" fill="#DDEBFD"/>
<path d="M25.6685 4.20007H2.33519C1.81972 4.20007 1.40186 4.61794 1.40186 5.13341C1.40186 5.64887 1.81972 6.06674 2.33519 6.06674H25.6685C26.184 6.06674 26.6019 5.64887 26.6019 5.13341C26.6019 4.61794 26.184 4.20007 25.6685 4.20007Z" fill="#C7AEE4"/>
<path d="M21.4892 17.9627L15.1649 24.2869C14.7283 24.7244 14.2097 25.0714 13.6388 25.3082C13.0679 25.545 12.4559 25.6669 11.8378 25.6669C11.2198 25.6669 10.6078 25.545 10.0369 25.3082C9.46596 25.0714 8.94736 24.7244 8.51074 24.2869L6.51574 22.2919C6.07828 21.8553 5.73122 21.3367 5.49443 20.7658C5.25763 20.1949 5.13574 19.5829 5.13574 18.9648C5.13574 18.3468 5.25763 17.7348 5.49443 17.1639C5.73122 16.593 6.07828 16.0744 6.51574 15.6377L12.84 9.31347C13.2766 8.87601 13.7952 8.52895 14.3661 8.29216C14.937 8.05536 15.549 7.93347 16.1671 7.93347C16.7852 7.93347 17.3972 8.05536 17.9681 8.29216C18.539 8.52895 19.0576 8.87601 19.4942 9.31347L21.4892 11.3085C21.9267 11.7451 22.2737 12.2637 22.5105 12.8346C22.7473 13.4055 22.8692 14.0175 22.8692 14.6356C22.8692 15.2536 22.7473 15.8656 22.5105 16.4365C22.2737 17.0074 21.9267 17.526 21.4892 17.9627Z" fill="#DAE0E7"/>
<path d="M23.3345 2.79954H4.66784C4.54407 2.79954 4.42537 2.75038 4.33786 2.66286C4.25034 2.57534 4.20117 2.45665 4.20117 2.33288C4.20117 2.20911 4.25034 2.09041 4.33786 2.00289C4.42537 1.91538 4.54407 1.86621 4.66784 1.86621H23.3345C23.4583 1.86621 23.577 1.91538 23.6645 2.00289C23.752 2.09041 23.8012 2.20911 23.8012 2.33288C23.8012 2.45665 23.752 2.57534 23.6645 2.66286C23.577 2.75038 23.4583 2.79954 23.3345 2.79954Z" fill="#C7AEE4"/>
<path d="M14.4959 11.4444C14.4036 11.4444 14.3134 11.417 14.2367 11.3658C14.1599 11.3145 14.1001 11.2416 14.0648 11.1563C14.0295 11.0711 14.0203 10.9773 14.0383 10.8868C14.0563 10.7962 14.1007 10.7131 14.1659 10.6478L14.4987 10.3156C14.5867 10.2306 14.7046 10.1835 14.8269 10.1846C14.9493 10.1857 15.0663 10.2347 15.1528 10.3213C15.2394 10.4078 15.2884 10.5248 15.2895 10.6472C15.2906 10.7695 15.2435 10.8874 15.1585 10.9754L14.8258 11.3077C14.7826 11.3512 14.7312 11.3857 14.6745 11.4091C14.6179 11.4326 14.5572 11.4446 14.4959 11.4444Z" fill="#398BC6"/>
<path d="M15.8284 12.775C15.7361 12.775 15.6459 12.7476 15.5692 12.6963C15.4924 12.645 15.4326 12.5721 15.3973 12.4869C15.362 12.4016 15.3528 12.3078 15.3708 12.2173C15.3888 12.1268 15.4332 12.0436 15.4985 11.9784L15.8312 11.6456C15.9192 11.5606 16.0371 11.5136 16.1594 11.5147C16.2818 11.5157 16.3988 11.5648 16.4854 11.6513C16.5719 11.7379 16.621 11.8549 16.622 11.9773C16.6231 12.0996 16.5761 12.2175 16.491 12.3055L16.1583 12.6382C16.0708 12.7258 15.9521 12.775 15.8284 12.775Z" fill="#398BC6"/>
<path d="M17.1609 14.1068C17.0686 14.1067 16.9784 14.0794 16.9017 14.0281C16.825 13.9768 16.7652 13.9039 16.7299 13.8187C16.6945 13.7334 16.6853 13.6396 16.7033 13.5491C16.7213 13.4586 16.7657 13.3754 16.831 13.3102L17.1637 12.9774C17.2068 12.9329 17.2582 12.8973 17.3152 12.8728C17.3721 12.8484 17.4334 12.8355 17.4953 12.835C17.5573 12.8344 17.6187 12.8462 17.6761 12.8697C17.7334 12.8932 17.7855 12.9278 17.8294 12.9716C17.8732 13.0155 17.9078 13.0676 17.9313 13.1249C17.9548 13.1823 17.9666 13.2437 17.966 13.3057C17.9655 13.3676 17.9526 13.4289 17.9282 13.4858C17.9037 13.5428 17.8681 13.5942 17.8236 13.6373L17.4908 13.97C17.4033 14.0576 17.2847 14.1067 17.1609 14.1068Z" fill="#398BC6"/>
<path d="M18.4881 15.4371C18.3958 15.4371 18.3056 15.4097 18.2288 15.3584C18.1521 15.3071 18.0923 15.2343 18.057 15.149C18.0217 15.0637 18.0124 14.9699 18.0304 14.8794C18.0484 14.7889 18.0929 14.7058 18.1581 14.6405L18.4909 14.3078C18.5789 14.2228 18.6967 14.1757 18.8191 14.1768C18.9415 14.1778 19.0585 14.2269 19.145 14.3134C19.2316 14.4 19.2806 14.517 19.2817 14.6394C19.2828 14.7617 19.2357 14.8796 19.1507 14.9676L18.818 15.3004C18.7305 15.3879 18.6118 15.4371 18.4881 15.4371Z" fill="#398BC6"/>
<path d="M17.4895 11.1117C17.3972 11.1118 17.3069 11.0845 17.2301 11.0332C17.1533 10.982 17.0934 10.9091 17.0581 10.8238C17.0227 10.7385 17.0134 10.6447 17.0314 10.5541C17.0494 10.4636 17.0938 10.3804 17.1591 10.3151L17.4918 9.9819C17.5345 9.93623 17.586 9.89961 17.6431 9.87421C17.7003 9.84881 17.7619 9.83516 17.8244 9.83406C17.887 9.83295 17.9491 9.84443 18.0071 9.8678C18.0651 9.89116 18.1178 9.92595 18.1621 9.97008C18.2064 10.0142 18.2413 10.0668 18.2649 10.1247C18.2885 10.1826 18.3002 10.2447 18.2993 10.3072C18.2984 10.3697 18.285 10.4315 18.2598 10.4887C18.2346 10.5459 18.1981 10.5975 18.1526 10.6404L17.8199 10.9736C17.7766 11.0172 17.7252 11.0519 17.6685 11.0756C17.6118 11.0993 17.5509 11.1116 17.4895 11.1117Z" fill="#398BC6"/>
<path d="M18.8215 12.442C18.7293 12.442 18.6391 12.4146 18.5623 12.3633C18.4856 12.312 18.4258 12.2391 18.3905 12.1539C18.3552 12.0686 18.3459 11.9748 18.3639 11.8843C18.3819 11.7938 18.4264 11.7106 18.4916 11.6454L18.8243 11.3126C18.9124 11.2276 19.0302 11.1806 19.1526 11.1817C19.275 11.1827 19.392 11.2318 19.4785 11.3183C19.5651 11.4048 19.6141 11.5219 19.6152 11.6443C19.6163 11.7666 19.5692 11.8845 19.4842 11.9725L19.1515 12.3052C19.064 12.3928 18.9453 12.4419 18.8215 12.442Z" fill="#398BC6"/>
<path d="M20.154 13.7732C20.0617 13.7732 19.9713 13.7459 19.8945 13.6946C19.8177 13.6433 19.7578 13.5703 19.7225 13.485C19.6872 13.3996 19.678 13.3057 19.696 13.2151C19.7141 13.1245 19.7587 13.0413 19.8241 12.9761L20.1573 12.6434C20.2007 12.6 20.2522 12.5657 20.3089 12.5423C20.3655 12.5188 20.4263 12.5068 20.4876 12.5068C20.5489 12.5069 20.6096 12.519 20.6662 12.5425C20.7229 12.566 20.7743 12.6004 20.8176 12.6438C20.861 12.6872 20.8953 12.7387 20.9188 12.7954C20.9422 12.852 20.9542 12.9128 20.9542 12.9741C20.9541 13.0354 20.942 13.0961 20.9185 13.1528C20.895 13.2094 20.8606 13.2608 20.8172 13.3042L20.484 13.6369C20.3964 13.7242 20.2777 13.7733 20.154 13.7732Z" fill="#398BC6"/>
<path d="M7.511 21.0933C7.41872 21.0933 7.32851 21.0659 7.25179 21.0147C7.17506 20.9634 7.11526 20.8905 7.07995 20.8052C7.04464 20.72 7.0354 20.6262 7.0534 20.5357C7.07139 20.4451 7.11582 20.362 7.18107 20.2967L7.5138 19.964C7.60182 19.879 7.7197 19.832 7.84205 19.833C7.96441 19.8341 8.08146 19.8832 8.16798 19.9697C8.25451 20.0562 8.30359 20.1733 8.30465 20.2956C8.30571 20.418 8.25868 20.5359 8.17367 20.6239L7.84093 20.9566C7.79772 21.0001 7.7463 21.0346 7.68967 21.058C7.63303 21.0815 7.57231 21.0935 7.511 21.0933Z" fill="#398BC6"/>
<path d="M8.83864 22.4243C8.74635 22.4242 8.65615 22.3969 8.57942 22.3456C8.5027 22.2943 8.4429 22.2214 8.40759 22.1362C8.37228 22.0509 8.36303 21.9571 8.38103 21.8666C8.39903 21.7761 8.44346 21.6929 8.5087 21.6277L8.84144 21.2949C8.88449 21.2504 8.93598 21.2148 8.99292 21.1904C9.04985 21.1659 9.11109 21.153 9.17305 21.1525C9.23501 21.1519 9.29646 21.1638 9.35382 21.1872C9.41117 21.2107 9.46327 21.2453 9.50709 21.2892C9.55091 21.333 9.58556 21.3851 9.60902 21.4424C9.63249 21.4998 9.64429 21.5612 9.64375 21.6232C9.64322 21.6852 9.63034 21.7464 9.60589 21.8033C9.58143 21.8603 9.54588 21.9118 9.5013 21.9548L9.16857 22.2875C9.08107 22.3751 8.9624 22.4242 8.83864 22.4243Z" fill="#398BC6"/>
<path d="M10.1707 23.7535C10.0784 23.7534 9.98818 23.7261 9.91145 23.6748C9.83473 23.6235 9.77493 23.5506 9.73962 23.4654C9.70431 23.3801 9.69506 23.2863 9.71306 23.1958C9.73106 23.1053 9.77549 23.0221 9.84074 22.9569L10.1735 22.6237C10.217 22.5803 10.2687 22.5459 10.3255 22.5225C10.3823 22.4992 10.4432 22.4872 10.5046 22.4873C10.5661 22.4874 10.6269 22.4997 10.6836 22.5233C10.7403 22.5469 10.7918 22.5815 10.8352 22.6251C10.8786 22.6686 10.9129 22.7203 10.9363 22.7771C10.9597 22.8339 10.9717 22.8948 10.9716 22.9562C10.9714 23.0177 10.9592 23.0785 10.9356 23.1352C10.9119 23.1919 10.8773 23.2434 10.8338 23.2868L10.5011 23.62C10.4129 23.7064 10.2941 23.7544 10.1707 23.7535Z" fill="#398BC6"/>
<path d="M19.8206 16.7675C19.7283 16.7674 19.6381 16.7401 19.5614 16.6888C19.4846 16.6375 19.4248 16.5646 19.3895 16.4794C19.3542 16.3941 19.345 16.3003 19.363 16.2098C19.381 16.1193 19.4254 16.0361 19.4906 15.9709L19.8229 15.6381C19.9104 15.5504 20.0292 15.5011 20.153 15.501C20.2769 15.5008 20.3958 15.5499 20.4835 15.6374C20.5712 15.7249 20.6205 15.8437 20.6206 15.9676C20.6208 16.0915 20.5717 16.2103 20.4842 16.298L20.1519 16.6307C20.1084 16.6742 20.0568 16.7087 19.9999 16.7322C19.943 16.7556 19.8821 16.7676 19.8206 16.7675Z" fill="#398BC6"/>
<path d="M12.8325 13.108C12.7404 13.1073 12.6507 13.0795 12.5745 13.028C12.4982 12.9764 12.4389 12.9035 12.404 12.8184C12.3691 12.7333 12.3602 12.6397 12.3783 12.5495C12.3964 12.4593 12.4407 12.3765 12.5058 12.3114L12.8385 11.9787C12.9265 11.8936 13.0444 11.8466 13.1668 11.8477C13.2891 11.8487 13.4062 11.8978 13.4927 11.9843C13.5792 12.0709 13.6283 12.1879 13.6294 12.3103C13.6304 12.4326 13.5834 12.5505 13.4984 12.6385L13.1657 12.9713C13.1219 13.015 13.07 13.0496 13.0128 13.0731C12.9556 13.0965 12.8943 13.1084 12.8325 13.108Z" fill="#398BC6"/>
<path d="M14.1629 14.4386C14.0706 14.4386 13.9804 14.4112 13.9036 14.3599C13.8269 14.3086 13.7671 14.2357 13.7318 14.1505C13.6965 14.0652 13.6873 13.9714 13.7053 13.8809C13.7232 13.7904 13.7677 13.7072 13.8329 13.642L14.1657 13.3097C14.2537 13.2247 14.3716 13.1777 14.4939 13.1787C14.6163 13.1798 14.7333 13.2289 14.8198 13.3154C14.9064 13.4019 14.9554 13.519 14.9565 13.6413C14.9576 13.7637 14.9105 13.8816 14.8255 13.9696L14.4928 14.3018C14.4496 14.3453 14.3982 14.3798 14.3415 14.4033C14.2849 14.4267 14.2242 14.4387 14.1629 14.4386Z" fill="#398BC6"/>
<path d="M15.4954 15.7692C15.4031 15.7692 15.3129 15.7418 15.2362 15.6906C15.1594 15.6393 15.0996 15.5664 15.0643 15.4811C15.029 15.3959 15.0198 15.3021 15.0378 15.2116C15.0558 15.1211 15.1002 15.0379 15.1654 14.9726L15.4982 14.6399C15.5862 14.5549 15.7041 14.5079 15.8264 14.5089C15.9488 14.51 16.0658 14.5591 16.1524 14.6456C16.2389 14.7321 16.288 14.8492 16.289 14.9715C16.2901 15.0939 16.2431 15.2118 16.158 15.2998L15.8253 15.6325C15.7378 15.72 15.6191 15.7692 15.4954 15.7692Z" fill="#398BC6"/>
<path d="M16.8279 17.1009C16.7356 17.1009 16.6454 17.0735 16.5687 17.0222C16.492 16.971 16.4322 16.8981 16.3968 16.8128C16.3615 16.7276 16.3523 16.6337 16.3703 16.5432C16.3883 16.4527 16.4327 16.3696 16.498 16.3043L16.8302 15.9716C16.9182 15.8866 17.0361 15.8395 17.1585 15.8406C17.2808 15.8417 17.3979 15.8907 17.4844 15.9773C17.5709 16.0638 17.62 16.1808 17.6211 16.3032C17.6221 16.4255 17.5751 16.5434 17.4901 16.6314L17.1578 16.9642C17.0703 17.0517 16.9517 17.1009 16.8279 17.1009Z" fill="#398BC6"/>
<path d="M18.155 18.4312C18.0628 18.4312 17.9726 18.4038 17.8958 18.3525C17.8191 18.3013 17.7593 18.2284 17.724 18.1431C17.6887 18.0579 17.6794 17.9641 17.6974 17.8735C17.7154 17.783 17.7599 17.6999 17.8251 17.6346L18.1578 17.3019C18.2009 17.2573 18.2524 17.2218 18.3093 17.1973C18.3663 17.1729 18.4275 17.16 18.4895 17.1594C18.5514 17.1589 18.6129 17.1707 18.6702 17.1942C18.7276 17.2176 18.7797 17.2523 18.8235 17.2961C18.8673 17.3399 18.902 17.392 18.9254 17.4494C18.9489 17.5067 18.9607 17.5682 18.9602 17.6301C18.9596 17.6921 18.9467 17.7533 18.9223 17.8103C18.8978 17.8672 18.8623 17.9187 18.8177 17.9618L18.485 18.2945C18.3975 18.382 18.2788 18.4312 18.155 18.4312Z" fill="#398BC6"/>
<path d="M11.1702 14.7712C11.0779 14.7712 10.9877 14.7438 10.911 14.6925C10.8342 14.6412 10.7744 14.5684 10.7391 14.4831C10.7038 14.3978 10.6946 14.304 10.7126 14.2135C10.7306 14.123 10.775 14.0399 10.8402 13.9746L11.173 13.6419C11.261 13.5569 11.3789 13.5098 11.5012 13.5109C11.6236 13.5119 11.7406 13.561 11.8272 13.6475C11.9137 13.7341 11.9628 13.8511 11.9638 13.9735C11.9649 14.0958 11.9179 14.2137 11.8328 14.3017L11.5001 14.6345C11.4569 14.6779 11.4055 14.7124 11.3488 14.7359C11.2922 14.7594 11.2315 14.7714 11.1702 14.7712Z" fill="#398BC6"/>
<path d="M12.5032 16.1026C12.4108 16.1026 12.3206 16.0753 12.2438 16.0241C12.167 15.9728 12.1071 15.9 12.0717 15.8147C12.0364 15.7294 12.0271 15.6355 12.0451 15.545C12.0631 15.4544 12.1075 15.3712 12.1728 15.306L12.5055 14.9728C12.5489 14.9294 12.6004 14.895 12.6571 14.8716C12.7137 14.8481 12.7745 14.836 12.8358 14.8361C12.8972 14.8361 12.9579 14.8482 13.0146 14.8717C13.0712 14.8952 13.1227 14.9296 13.1661 14.973C13.2094 15.0164 13.2438 15.0679 13.2673 15.1246C13.2907 15.1812 13.3028 15.242 13.3028 15.3033C13.3027 15.3647 13.2906 15.4254 13.2671 15.4821C13.2436 15.5387 13.2092 15.5902 13.1658 15.6336L12.8331 15.9668C12.7455 16.0539 12.6268 16.1028 12.5032 16.1026Z" fill="#398BC6"/>
<path d="M13.8298 17.4336C13.7376 17.4335 13.6474 17.4062 13.5706 17.3549C13.4939 17.3036 13.4341 17.2307 13.3988 17.1455C13.3635 17.0602 13.3542 16.9664 13.3722 16.8759C13.3902 16.7854 13.4347 16.7022 13.4999 16.637L13.8322 16.3047C13.8752 16.2601 13.9267 16.2246 13.9837 16.2001C14.0406 16.1757 14.1018 16.1628 14.1638 16.1622C14.2258 16.1617 14.2872 16.1735 14.3446 16.197C14.4019 16.2204 14.454 16.2551 14.4978 16.2989C14.5416 16.3427 14.5763 16.3948 14.5998 16.4522C14.6232 16.5095 14.635 16.571 14.6345 16.633C14.634 16.6949 14.6211 16.7562 14.5966 16.8131C14.5722 16.87 14.5366 16.9215 14.492 16.9646L14.1598 17.2968C14.0723 17.3844 13.9536 17.4335 13.8298 17.4336Z" fill="#398BC6"/>
<path d="M15.1624 18.7651C15.0701 18.765 14.9799 18.7377 14.9032 18.6864C14.8264 18.6351 14.7666 18.5622 14.7313 18.477C14.696 18.3917 14.6868 18.2979 14.7048 18.2074C14.7228 18.1169 14.7672 18.0337 14.8324 17.9685L15.1656 17.6353C15.2082 17.5889 15.2597 17.5517 15.317 17.5258C15.3744 17.4999 15.4363 17.4858 15.4992 17.4845C15.5621 17.4831 15.6246 17.4945 15.683 17.5179C15.7414 17.5414 15.7945 17.5764 15.839 17.6208C15.8835 17.6653 15.9186 17.7183 15.9421 17.7766C15.9656 17.835 15.9771 17.8975 15.9758 17.9604C15.9745 18.0233 15.9606 18.0853 15.9347 18.1426C15.9089 18.2 15.8718 18.2515 15.8255 18.2942L15.4923 18.6274C15.4491 18.6709 15.3977 18.7054 15.341 18.7291C15.2844 18.7527 15.2237 18.7649 15.1624 18.7651Z" fill="#398BC6"/>
<path d="M16.4949 20.0953C16.4026 20.0953 16.3124 20.0679 16.2357 20.0166C16.1589 19.9653 16.0991 19.8925 16.0638 19.8072C16.0285 19.7219 16.0193 19.6281 16.0373 19.5376C16.0553 19.4471 16.0997 19.364 16.165 19.2987L16.4977 18.966C16.5857 18.881 16.7036 18.8339 16.8259 18.835C16.9483 18.836 17.0653 18.8851 17.1519 18.9716C17.2384 19.0582 17.2875 19.1752 17.2885 19.2976C17.2896 19.4199 17.2426 19.5378 17.1576 19.6258L16.8248 19.9586C16.7373 20.0461 16.6186 20.0953 16.4949 20.0953Z" fill="#398BC6"/>
<path d="M9.50465 16.4351C9.41237 16.4351 9.32216 16.4077 9.24544 16.3565C9.16871 16.3052 9.10892 16.2323 9.0736 16.147C9.03829 16.0618 9.02905 15.968 9.04705 15.8775C9.06505 15.7869 9.10948 15.7038 9.17472 15.6385L9.50745 15.3058C9.5505 15.2612 9.602 15.2257 9.65893 15.2012C9.71587 15.1768 9.7771 15.1639 9.83907 15.1633C9.90103 15.1628 9.96248 15.1746 10.0198 15.1981C10.0772 15.2215 10.1293 15.2562 10.1731 15.3C10.2169 15.3438 10.2516 15.3959 10.275 15.4533C10.2985 15.5106 10.3103 15.5721 10.3098 15.6341C10.3092 15.696 10.2964 15.7573 10.2719 15.8142C10.2474 15.8711 10.2119 15.9226 10.1673 15.9657L9.83459 16.2984C9.74709 16.3859 9.62841 16.4351 9.50465 16.4351Z" fill="#398BC6"/>
<path d="M10.8367 17.7662C10.7444 17.7662 10.6542 17.7388 10.5775 17.6875C10.5007 17.6362 10.4409 17.5634 10.4056 17.4781C10.3703 17.3928 10.3611 17.299 10.3791 17.2085C10.3971 17.118 10.4415 17.0349 10.5068 16.9696L10.839 16.6369C10.927 16.5519 11.0449 16.5048 11.1673 16.5059C11.2896 16.5069 11.4067 16.556 11.4932 16.6425C11.5797 16.7291 11.6288 16.8461 11.6299 16.9685C11.6309 17.0908 11.5839 17.2087 11.4989 17.2967L11.1666 17.6295C11.0791 17.717 10.9604 17.7662 10.8367 17.7662Z" fill="#398BC6"/>
<path d="M12.1692 19.0974C12.0769 19.0974 11.9867 19.07 11.91 19.0187C11.8333 18.9674 11.7735 18.8945 11.7382 18.8093C11.7028 18.724 11.6936 18.6302 11.7116 18.5397C11.7296 18.4492 11.774 18.366 11.8393 18.3008L12.1715 17.968C12.259 17.8804 12.3778 17.8311 12.5016 17.8311C12.6254 17.831 12.7442 17.8801 12.8319 17.9676C12.9195 18.0551 12.9688 18.1738 12.9689 18.2977C12.969 18.4215 12.9198 18.5403 12.8323 18.6279L12.4996 18.9606C12.4562 19.004 12.4047 19.0385 12.348 19.0619C12.2913 19.0854 12.2306 19.0974 12.1692 19.0974Z" fill="#398BC6"/>
<path d="M13.4968 20.4278C13.4046 20.4278 13.3144 20.4004 13.2376 20.3492C13.1609 20.2979 13.1011 20.225 13.0658 20.1397C13.0305 20.0545 13.0212 19.9607 13.0392 19.8702C13.0572 19.7796 13.1017 19.6965 13.1669 19.6312L13.4996 19.299C13.5877 19.214 13.7055 19.1669 13.8279 19.168C13.9503 19.169 14.0673 19.2181 14.1538 19.3047C14.2403 19.3912 14.2894 19.5082 14.2905 19.6306C14.2916 19.7529 14.2445 19.8708 14.1595 19.9588L13.8268 20.2911C13.7393 20.3786 13.6206 20.4278 13.4968 20.4278Z" fill="#398BC6"/>
<path d="M14.8289 21.7592C14.7366 21.7592 14.6464 21.7318 14.5697 21.6805C14.4929 21.6293 14.4331 21.5564 14.3978 21.4711C14.3625 21.3859 14.3533 21.292 14.3713 21.2015C14.3893 21.111 14.4337 21.0279 14.4989 20.9626L14.8317 20.6299C14.8743 20.5836 14.9259 20.5465 14.9832 20.5206C15.0406 20.4948 15.1026 20.4808 15.1655 20.4796C15.2284 20.4783 15.2909 20.4898 15.3492 20.5133C15.4076 20.5368 15.4606 20.5719 15.505 20.6164C15.5495 20.6609 15.5845 20.714 15.6079 20.7724C15.6313 20.8307 15.6427 20.8933 15.6414 20.9562C15.64 21.019 15.626 21.081 15.6001 21.1384C15.5742 21.1957 15.5369 21.2472 15.4906 21.2897L15.1579 21.6225C15.0706 21.7098 14.9523 21.7589 14.8289 21.7592Z" fill="#398BC6"/>
<path d="M7.84401 18.0982C7.75173 18.0982 7.66152 18.0708 7.58479 18.0195C7.50807 17.9683 7.44827 17.8954 7.41296 17.8101C7.37765 17.7249 7.3684 17.6311 7.3864 17.5405C7.4044 17.45 7.44883 17.3669 7.51407 17.3016L7.84681 16.9689C7.93482 16.8839 8.0527 16.8368 8.17506 16.8379C8.29742 16.839 8.41447 16.888 8.50099 16.9746C8.58751 17.0611 8.63659 17.1781 8.63766 17.3005C8.63872 17.4229 8.59168 17.5407 8.50668 17.6288L8.17394 17.9615C8.13073 18.005 8.07931 18.0394 8.02268 18.0629C7.96604 18.0864 7.90531 18.0984 7.84401 18.0982Z" fill="#398BC6"/>
<path d="M9.17165 19.4301C9.07936 19.4301 8.98916 19.4027 8.91243 19.3514C8.83571 19.3002 8.77591 19.2273 8.7406 19.142C8.70528 19.0568 8.69604 18.963 8.71404 18.8724C8.73204 18.7819 8.77647 18.6988 8.84171 18.6335L9.17445 18.3008C9.21749 18.2562 9.26899 18.2207 9.32592 18.1962C9.38286 18.1718 9.4441 18.1589 9.50606 18.1583C9.56802 18.1578 9.62947 18.1696 9.68682 18.1931C9.74418 18.2165 9.79628 18.2512 9.8401 18.295C9.88391 18.3388 9.91856 18.3909 9.94203 18.4483C9.96549 18.5056 9.9773 18.5671 9.97676 18.629C9.97622 18.691 9.96335 18.7522 9.93889 18.8092C9.91444 18.8661 9.87888 18.9176 9.83431 18.9607L9.50158 19.2934C9.41408 19.3809 9.2954 19.4301 9.17165 19.4301Z" fill="#398BC6"/>
<path d="M10.5037 20.7608C10.4114 20.7608 10.3212 20.7334 10.2445 20.6821C10.1677 20.6309 10.1079 20.558 10.0726 20.4727C10.0373 20.3875 10.0281 20.2936 10.0461 20.2031C10.0641 20.1126 10.1085 20.0295 10.1737 19.9642L10.5069 19.6315C10.55 19.5869 10.6015 19.5514 10.6584 19.5269C10.7154 19.5024 10.7766 19.4896 10.8386 19.489C10.9005 19.4885 10.962 19.5003 11.0193 19.5238C11.0767 19.5472 11.1288 19.5819 11.1726 19.6257C11.2164 19.6695 11.2511 19.7216 11.2745 19.779C11.298 19.8363 11.3098 19.8978 11.3093 19.9597C11.3087 20.0217 11.2958 20.0829 11.2714 20.1399C11.2469 20.1968 11.2114 20.2483 11.1668 20.2913L10.8336 20.6241C10.7904 20.6676 10.739 20.702 10.6823 20.7255C10.6257 20.749 10.565 20.761 10.5037 20.7608Z" fill="#398BC6"/>
<path d="M11.8362 22.0914C11.7439 22.0914 11.6537 22.064 11.577 22.0127C11.5003 21.9614 11.4405 21.8886 11.4051 21.8033C11.3698 21.718 11.3606 21.6242 11.3786 21.5337C11.3966 21.4432 11.441 21.3601 11.5063 21.2948L11.8395 20.9621C11.9275 20.877 12.0454 20.83 12.1677 20.8311C12.2901 20.8321 12.4071 20.8812 12.4936 20.9677C12.5802 21.0543 12.6292 21.1713 12.6303 21.2937C12.6314 21.416 12.5843 21.5339 12.4993 21.6219L12.1661 21.9547C12.0786 22.0422 11.96 22.0914 11.8362 22.0914Z" fill="#398BC6"/>
<path d="M13.1638 23.422C13.0715 23.422 12.9813 23.3946 12.9046 23.3433C12.8279 23.292 12.7681 23.2191 12.7328 23.1339C12.6975 23.0486 12.6882 22.9548 12.7062 22.8643C12.7242 22.7738 12.7687 22.6906 12.8339 22.6254L13.1671 22.2931C13.2551 22.2081 13.373 22.1611 13.4954 22.1621C13.6177 22.1632 13.7348 22.2123 13.8213 22.2988C13.9078 22.3853 13.9569 22.5024 13.9579 22.6247C13.959 22.7471 13.912 22.865 13.827 22.953L13.4938 23.2852C13.4506 23.3287 13.3991 23.3632 13.3425 23.3867C13.2859 23.4101 13.2251 23.4221 13.1638 23.422Z" fill="#398BC6"/>
</svg>
