<svg width="19" height="38" viewBox="0 0 19 38" fill="none" xmlns="http://www.w3.org/2000/svg">
<path d="M11.7125 10.0084V6.86617C11.7125 6.72113 11.6549 6.58203 11.5524 6.47947C11.4498 6.37691 11.3107 6.31929 11.1657 6.31929H10.2282V0.970856C10.2282 0.899028 10.2141 0.827896 10.1866 0.761527C10.1591 0.695159 10.1189 0.634855 10.0681 0.584065C10.0173 0.533275 9.95698 0.492994 9.89062 0.465526C9.82425 0.438057 9.75312 0.42394 9.68129 0.423981H5.47254C5.40071 0.42394 5.32958 0.438057 5.26321 0.465526C5.19684 0.492994 5.13654 0.533275 5.08575 0.584065C5.03496 0.634855 4.99468 0.695159 4.96721 0.761527C4.93974 0.827896 4.92562 0.899028 4.92566 0.970856V6.31929H3.98816C3.91633 6.31925 3.8452 6.33337 3.77883 6.36084C3.71247 6.38831 3.65216 6.42859 3.60137 6.47938C3.55058 6.53017 3.5103 6.59047 3.48283 6.65684C3.45536 6.72321 3.44125 6.79434 3.44129 6.86617V10.0084C2.42756 10.6833 1.59693 11.5991 1.02367 12.6736C0.450415 13.7481 0.152403 14.948 0.156287 16.1659V37.029C0.156287 37.174 0.213904 37.3131 0.316463 37.4157C0.419022 37.5182 0.558122 37.5759 0.703163 37.5759H14.45C14.5951 37.5759 14.7342 37.5182 14.8367 37.4157C14.9393 37.3131 14.9969 37.174 14.9969 37.029V16.1659C15.0009 14.948 14.7029 13.7482 14.1298 12.6737C13.5567 11.5992 12.7261 10.6834 11.7125 10.0084ZM6.01941 1.51773H9.13535V6.31929H6.01941V1.51773ZM4.53629 7.41304H10.6188V9.75679H4.53629V7.41304ZM13.9041 36.4821H1.25004V16.1659C1.24685 15.107 1.51128 14.0645 2.01876 13.1351C2.52624 12.2057 3.26033 11.4197 4.15285 10.8499H11.0022C11.8946 11.4198 12.6285 12.2059 13.1358 13.1353C13.6431 14.0646 13.9074 15.1071 13.9041 16.1659V36.4821Z" fill="#0C0B0B"/>
<path d="M17.7984 3.02737H16.9688C16.8969 3.02737 16.8258 3.04152 16.7595 3.069C16.6931 3.09649 16.6328 3.13677 16.582 3.18755C16.5313 3.23833 16.491 3.29862 16.4635 3.36497C16.436 3.43132 16.4219 3.50243 16.4219 3.57425C16.4219 3.64607 16.436 3.71718 16.4635 3.78353C16.491 3.84988 16.5313 3.91017 16.582 3.96095C16.6328 4.01173 16.6931 4.05201 16.7595 4.0795C16.8258 4.10698 16.8969 4.12112 16.9688 4.12112H17.7984C17.9435 4.12112 18.0826 4.06351 18.1851 3.96095C18.2877 3.85839 18.3453 3.71929 18.3453 3.57425C18.3453 3.42921 18.2877 3.29011 18.1851 3.18755C18.0826 3.08499 17.9435 3.02737 17.7984 3.02737Z" fill="#0C0B0B"/>
<path d="M11.7812 4.12125H14.8978C15.0429 4.12125 15.182 4.06363 15.2845 3.96107C15.3871 3.85851 15.4447 3.71941 15.4447 3.57437C15.4447 3.42933 15.3871 3.29023 15.2845 3.18767C15.182 3.08511 15.0429 3.0275 14.8978 3.0275H11.7812C11.6362 3.0275 11.4971 3.08511 11.3946 3.18767C11.292 3.29023 11.2344 3.42933 11.2344 3.57437C11.2344 3.71941 11.292 3.85851 11.3946 3.96107C11.4971 4.06363 11.6362 4.12125 11.7812 4.12125Z" fill="#0C0B0B"/>
<path d="M15.7215 0.441549L14.9434 0.644674C14.8726 0.661567 14.8059 0.692419 14.7472 0.735422C14.6885 0.778425 14.6389 0.832714 14.6015 0.895107C14.564 0.9575 14.5394 1.02674 14.529 1.09878C14.5186 1.17081 14.5228 1.24419 14.5411 1.31461C14.5595 1.38503 14.5917 1.45108 14.6359 1.50888C14.6802 1.56668 14.7355 1.61508 14.7986 1.65123C14.8618 1.68738 14.9315 1.71057 15.0038 1.71942C15.076 1.72828 15.1493 1.72263 15.2193 1.7028L15.9965 1.49999C16.1368 1.46339 16.2569 1.37255 16.3303 1.24742C16.4037 1.1223 16.4243 0.973157 16.3877 0.832799C16.3511 0.692441 16.2603 0.572368 16.1352 0.498995C16.0101 0.425621 15.8609 0.404957 15.7206 0.441549H15.7215Z" fill="#0C0B0B"/>
<path d="M11.7803 2.58298C11.827 2.58302 11.8736 2.57704 11.9188 2.56517L13.4769 2.15892C13.5477 2.14203 13.6144 2.11118 13.6731 2.06817C13.7318 2.02517 13.7813 1.97088 13.8188 1.90849C13.8563 1.84609 13.8809 1.77685 13.8912 1.70482C13.9016 1.63278 13.8975 1.55941 13.8791 1.48898C13.8607 1.41856 13.8285 1.35252 13.7843 1.29472C13.7401 1.23691 13.6848 1.18852 13.6216 1.15236C13.5584 1.11621 13.4887 1.09303 13.4165 1.08417C13.3442 1.07532 13.271 1.08097 13.2009 1.1008L11.6428 1.50705C11.5143 1.54068 11.4024 1.61997 11.328 1.73009C11.2537 1.84021 11.2219 1.97363 11.2388 2.10543C11.2556 2.23723 11.3199 2.35839 11.4195 2.44628C11.5192 2.53416 11.6474 2.58276 11.7803 2.58298Z" fill="#0C0B0B"/>
<path d="M16.0021 5.64827L15.2239 5.44545C15.1544 5.42734 15.0821 5.42308 15.0109 5.43294C14.9398 5.4428 14.8713 5.46657 14.8093 5.5029C14.7474 5.53923 14.6932 5.58741 14.6498 5.64468C14.6065 5.70196 14.5749 5.76721 14.5568 5.8367C14.5386 5.9062 14.5344 5.97859 14.5442 6.04973C14.5541 6.12087 14.5779 6.18937 14.6142 6.25133C14.6505 6.31328 14.6987 6.36747 14.756 6.41081C14.8133 6.45414 14.8785 6.48577 14.948 6.50389L15.7261 6.7067C15.8665 6.7433 16.0156 6.72263 16.1408 6.64926C16.2659 6.57588 16.3567 6.45581 16.3933 6.31545C16.4299 6.1751 16.4092 6.02595 16.3359 5.90083C16.2625 5.77571 16.1424 5.68486 16.0021 5.64827Z" fill="#0C0B0B"/>
<path d="M11.9193 4.58413C11.8498 4.56601 11.7774 4.56176 11.7062 4.57161C11.6351 4.58147 11.5666 4.60524 11.5046 4.64157C11.4427 4.6779 11.3885 4.72608 11.3451 4.78335C11.3018 4.84063 11.2702 4.90588 11.2521 4.97538C11.2339 5.04487 11.2297 5.11726 11.2395 5.1884C11.2494 5.25954 11.2732 5.32805 11.3095 5.39C11.3458 5.45195 11.394 5.50615 11.4513 5.54948C11.5086 5.59282 11.5738 5.62445 11.6433 5.64256L13.2014 6.04881C13.2465 6.06058 13.293 6.06646 13.3396 6.06631C13.4725 6.06616 13.6008 6.01762 13.7005 5.92976C13.8002 5.8419 13.8645 5.72074 13.8814 5.58892C13.8983 5.4571 13.8666 5.32364 13.7922 5.21348C13.7179 5.10333 13.6059 5.02402 13.4774 4.99038L11.9193 4.58413Z" fill="#0C0B0B"/>
<path d="M7.58 16.1739C6.48374 16.1753 5.43278 16.6114 4.65767 17.3867C3.88255 18.1619 3.44655 19.2129 3.44531 20.3092V27.0242C3.44531 28.1208 3.88096 29.1726 4.65643 29.9481C5.43189 30.7235 6.48364 31.1592 7.58031 31.1592C8.67698 31.1592 9.72874 30.7235 10.5042 29.9481C11.2797 29.1726 11.7153 28.1208 11.7153 27.0242V20.3092C11.7141 19.2128 11.278 18.1617 10.5027 17.3864C9.72748 16.6112 8.67637 16.1751 7.58 16.1739ZM10.6216 27.0242C10.6216 27.8308 10.3011 28.6043 9.7308 29.1747C9.16046 29.745 8.3869 30.0654 7.58031 30.0654C6.77372 30.0654 6.00017 29.745 5.42982 29.1747C4.85948 28.6043 4.53906 27.8308 4.53906 27.0242V20.3092C4.53906 19.5026 4.85948 18.729 5.42982 18.1587C6.00017 17.5883 6.77372 17.2679 7.58031 17.2679C8.3869 17.2679 9.16046 17.5883 9.7308 18.1587C10.3011 18.729 10.6216 19.5026 10.6216 20.3092V27.0242Z" fill="#0C0B0B"/>
<path d="M6.45625 34.086H3.3125C3.16746 34.086 3.02836 34.1436 2.9258 34.2461C2.82324 34.3487 2.76562 34.4878 2.76562 34.6328C2.76562 34.7779 2.82324 34.917 2.9258 35.0195C3.02836 35.1221 3.16746 35.1797 3.3125 35.1797H6.45625C6.60129 35.1797 6.74039 35.1221 6.84295 35.0195C6.94551 34.917 7.00313 34.7779 7.00313 34.6328C7.00313 34.4878 6.94551 34.3487 6.84295 34.2461C6.74039 34.1436 6.60129 34.086 6.45625 34.086Z" fill="#0C0B0B"/>
<path d="M9.43437 34.086H8.45312C8.30808 34.086 8.16899 34.1436 8.06643 34.2461C7.96387 34.3487 7.90625 34.4878 7.90625 34.6328C7.90625 34.7779 7.96387 34.917 8.06643 35.0195C8.16899 35.1221 8.30808 35.1797 8.45312 35.1797H9.43437C9.57942 35.1797 9.71852 35.1221 9.82108 35.0195C9.92363 34.917 9.98125 34.7779 9.98125 34.6328C9.98125 34.4878 9.92363 34.3487 9.82108 34.2461C9.71852 34.1436 9.57942 34.086 9.43437 34.086Z" fill="#0C0B0B"/>
</svg>
