<svg width="125" height="196" viewBox="0 0 125 196" fill="none" xmlns="http://www.w3.org/2000/svg">
<path d="M123.5 45.9068L122.505 46.0043L123.5 45.9068ZM66.5147 195.077C66.6089 195.622 67.1264 195.986 67.6706 195.892L76.5387 194.357C77.0828 194.262 77.4476 193.745 77.3534 193.201C77.2592 192.657 76.7416 192.292 76.1974 192.386L68.3147 193.751L66.9499 185.868C66.8556 185.324 66.3381 184.959 65.7939 185.053C65.2497 185.148 64.885 185.665 64.9792 186.209L66.5147 195.077ZM4.08336 5.0465C4.63025 4.96947 5.01114 4.46368 4.93411 3.91679C4.85708 3.36991 4.35129 2.98902 3.80441 3.06605L4.08336 5.0465ZM9.70751 2.31479C9.15885 2.37789 8.76522 2.87384 8.82833 3.4225C8.89144 3.97117 9.38738 4.36479 9.93605 4.30168L9.70751 2.31479ZM15.8877 3.68348C16.4376 3.63233 16.8419 3.14507 16.7908 2.59516C16.7396 2.04525 16.2524 1.64093 15.7025 1.69208L15.8877 3.68348ZM21.6537 1.20092C21.1028 1.24062 20.6884 1.71937 20.7281 2.27022C20.7678 2.82108 21.2466 3.23545 21.7974 3.19574L21.6537 1.20092ZM27.7626 2.82905C28.3141 2.80104 28.7386 2.3312 28.7106 1.77963C28.6826 1.22805 28.2127 0.803617 27.6611 0.831623L27.7626 2.82905ZM33.6515 0.592969C33.0994 0.608829 32.6647 1.06922 32.6806 1.62127C32.6965 2.17333 33.1568 2.608 33.7089 2.59214L33.6515 0.592969ZM39.6499 2.48998C40.2022 2.48699 40.6474 2.03686 40.6445 1.48458C40.6415 0.932308 40.1913 0.487021 39.6391 0.490007L39.6499 2.48998ZM45.6367 0.531919C45.0845 0.52103 44.628 0.959831 44.6171 1.51201C44.6062 2.06419 45.045 2.52064 45.5972 2.53153L45.6367 0.531919ZM51.5417 2.72901C52.0934 2.75502 52.5617 2.3289 52.5877 1.77722C52.6137 1.22555 52.1876 0.757245 51.6359 0.73123L51.5417 2.72901ZM57.6303 1.10321C57.0796 1.06053 56.5987 1.47231 56.556 2.02295C56.5133 2.57358 56.9251 3.05455 57.4757 3.09723L57.6303 1.10321ZM63.3912 3.65422C63.9401 3.71543 64.4347 3.32009 64.4959 2.77121C64.5571 2.22233 64.1617 1.72775 63.6129 1.66654L63.3912 3.65422ZM69.575 2.44405C69.0289 2.36202 68.5196 2.73827 68.4376 3.28443C68.3555 3.83059 68.7318 4.33984 69.2779 4.42187L69.575 2.44405ZM75.1223 5.42672C75.6644 5.53236 76.1895 5.17854 76.2951 4.63646C76.4008 4.09437 76.047 3.56928 75.5049 3.46365L75.1223 5.42672ZM81.3857 4.75933C80.8496 4.62671 80.3075 4.95382 80.1749 5.48995C80.0422 6.02608 80.3694 6.5682 80.9055 6.70081L81.3857 4.75933ZM86.601 8.28253C87.1284 8.44619 87.6887 8.15126 87.8524 7.62378C88.016 7.0963 87.7211 6.53602 87.1936 6.37236L86.601 8.28253ZM92.8963 8.35311C92.3813 8.15356 91.802 8.40927 91.6025 8.92425C91.403 9.43922 91.6587 10.0185 92.1736 10.218L92.8963 8.35311ZM97.5817 12.5649C98.0786 12.8059 98.6768 12.5985 98.9178 12.1016C99.1589 11.6047 98.9515 11.0064 98.4546 10.7654L97.5817 12.5649ZM103.786 13.6717C103.315 13.3833 102.699 13.5314 102.411 14.0024C102.122 14.4734 102.27 15.089 102.741 15.3774L103.786 13.6717ZM107.553 18.7097C107.987 19.0506 108.616 18.9748 108.957 18.5403C109.298 18.1058 109.222 17.4772 108.787 17.1363L107.553 18.7097ZM113.326 21.2081C112.941 20.8119 112.308 20.8027 111.912 21.1874C111.516 21.5722 111.507 22.2053 111.891 22.6015L113.326 21.2081ZM115.622 27.0619C115.943 27.5113 116.567 27.6156 117.017 27.2946C117.466 26.9737 117.57 26.3492 117.249 25.8997L115.622 27.0619ZM120.399 31.142C120.153 30.6475 119.553 30.4461 119.058 30.692C118.564 30.938 118.363 31.5382 118.608 32.0327L120.399 31.142ZM120.775 37.4091C120.942 37.9357 121.504 38.2276 122.03 38.0612C122.557 37.8947 122.849 37.3329 122.682 36.8063L120.775 37.4091ZM124.093 42.7384C124.003 42.1934 123.489 41.8245 122.944 41.9144C122.399 42.0043 122.03 42.5189 122.12 43.0638L124.093 42.7384ZM122.746 49.0543C122.779 49.6055 123.253 50.0254 123.804 49.9921C124.356 49.9587 124.775 49.4848 124.742 48.9335L122.746 49.0543ZM124.904 55.2221C124.908 54.6698 124.464 54.2189 123.912 54.2148C123.359 54.2108 122.908 54.6552 122.904 55.2075L124.904 55.2221ZM122.673 61.3678C122.636 61.9188 123.053 62.3953 123.604 62.432C124.155 62.4687 124.632 62.0517 124.668 61.5006L122.673 61.3678ZM124.086 67.7494C124.151 67.201 123.76 66.7036 123.211 66.6384C122.663 66.5733 122.165 66.965 122.1 67.5135L124.086 67.7494ZM121.228 73.6303C121.138 74.1752 121.507 74.69 122.052 74.7801C122.597 74.8702 123.112 74.5015 123.202 73.9566L121.228 73.6303ZM122.053 80.1152C122.165 79.5744 121.817 79.0452 121.276 78.9332C120.735 78.8211 120.206 79.1687 120.094 79.7096L122.053 80.1152ZM118.728 85.7458C118.597 86.2822 118.925 86.8236 119.462 86.955C119.998 87.0864 120.539 86.758 120.671 86.2216L118.728 85.7458ZM119.083 92.2742C119.231 91.7423 118.921 91.1906 118.389 91.042C117.857 90.8934 117.305 91.2041 117.156 91.736L119.083 92.2742ZM115.401 97.6787C115.237 98.2061 115.531 98.7666 116.059 98.9306C116.586 99.0946 117.147 98.8001 117.311 98.2727L115.401 97.6787ZM115.374 104.217C115.552 103.695 115.272 103.127 114.749 102.949C114.227 102.771 113.658 103.05 113.481 103.573L115.374 104.217ZM111.411 109.42C111.221 109.938 111.487 110.513 112.005 110.703C112.524 110.894 113.098 110.628 113.289 110.109L111.411 109.42ZM111.069 115.949C111.27 115.435 111.017 114.855 110.503 114.653C109.989 114.451 109.409 114.704 109.207 115.218L111.069 115.949ZM106.879 120.97C106.667 121.479 106.908 122.065 107.418 122.277C107.928 122.49 108.513 122.248 108.725 121.739L106.879 120.97ZM106.27 127.479C106.492 126.973 106.262 126.383 105.756 126.161C105.25 125.939 104.66 126.169 104.438 126.675L106.27 127.479ZM101.893 132.335C101.662 132.836 101.881 133.43 102.383 133.661C102.885 133.892 103.479 133.673 103.709 133.171L101.893 132.335ZM101.052 138.817C101.292 138.32 101.082 137.722 100.584 137.483C100.087 137.243 99.4891 137.453 99.2498 137.951L101.052 138.817ZM96.5156 143.525C96.2685 144.019 96.4686 144.62 96.9625 144.867C97.4564 145.114 98.0572 144.914 98.3042 144.42L96.5156 143.525ZM95.47 149.98C95.7244 149.49 95.5334 148.886 95.0432 148.632C94.553 148.377 93.9494 148.568 93.6949 149.059L95.47 149.98ZM90.7919 154.553C90.5305 155.04 90.7129 155.646 91.1994 155.908C91.6859 156.169 92.2922 155.987 92.5536 155.5L90.7919 154.553ZM89.5587 160.981C89.8269 160.498 89.6529 159.889 89.1701 159.621C88.6873 159.353 88.0785 159.527 87.8103 160.01L89.5587 160.981ZM84.7543 165.425C84.4796 165.905 84.6454 166.516 85.1246 166.79C85.6037 167.065 86.2148 166.899 86.4894 166.42L84.7543 165.425ZM83.3526 171.81C83.6336 171.334 83.4759 170.721 83.0004 170.44C82.525 170.159 81.9118 170.317 81.6308 170.792L83.3526 171.81ZM78.4537 176.089C78.1665 176.56 78.3161 177.176 78.7878 177.463C79.2595 177.75 79.8748 177.6 80.162 177.129L78.4537 176.089ZM76.8563 182.476C77.15 182.008 77.0089 181.391 76.5411 181.097C76.0734 180.803 75.4562 180.944 75.1625 181.412L76.8563 182.476ZM71.8241 186.644C71.5236 187.108 71.6556 187.727 72.1189 188.028C72.5822 188.328 73.2015 188.196 73.5021 187.733L71.8241 186.644ZM70.0637 192.935C70.3727 192.477 70.252 191.856 69.7943 191.547C69.3365 191.238 68.7149 191.358 68.406 191.816L70.0637 192.935ZM1 4.5C1.1663 5.48607 1.16628 5.48608 1.16627 5.48608C1.16627 5.48608 1.16626 5.48608 1.16626 5.48608C1.16626 5.48608 1.16627 5.48608 1.16631 5.48607C1.16637 5.48606 1.1665 5.48604 1.16669 5.48601C1.16707 5.48594 1.16771 5.48584 1.1686 5.48569C1.17039 5.48539 1.17318 5.48492 1.17699 5.48428C1.1846 5.48301 1.19625 5.48107 1.21188 5.47849C1.24315 5.47331 1.29036 5.46555 1.35314 5.45537C1.47871 5.435 1.66657 5.40495 1.91368 5.36654C2.40792 5.28972 3.13919 5.17949 4.08336 5.0465L3.80441 3.06605C2.85034 3.20043 2.10966 3.31207 1.60652 3.39027C1.35494 3.42937 1.16274 3.46011 1.03294 3.48117C0.968034 3.49169 0.918728 3.4998 0.885395 3.50531C0.868729 3.50807 0.856056 3.51018 0.847424 3.51162C0.843108 3.51235 0.839802 3.5129 0.837512 3.51328C0.836367 3.51348 0.835476 3.51363 0.83484 3.51373C0.834522 3.51379 0.834268 3.51383 0.834077 3.51386C0.833982 3.51388 0.833902 3.51389 0.833839 3.5139C0.833807 3.51391 0.833772 3.51391 0.833756 3.51392C0.833724 3.51392 0.833696 3.51393 1 4.5ZM9.93605 4.30168C11.7033 4.09841 13.6992 3.88706 15.8877 3.68348L15.7025 1.69208C13.4985 1.89709 11.4882 2.10997 9.70751 2.31479L9.93605 4.30168ZM21.7974 3.19574C23.6966 3.05885 25.6902 2.93427 27.7626 2.82905L27.6611 0.831623C25.5739 0.937601 23.5661 1.06307 21.6537 1.20092L21.7974 3.19574ZM33.7089 2.59214C35.6438 2.53655 37.6277 2.50091 39.6499 2.48998L39.6391 0.490007C37.6005 0.501032 35.601 0.536958 33.6515 0.592969L33.7089 2.59214ZM45.5972 2.53153C47.5573 2.57019 49.5418 2.6347 51.5417 2.72901L51.6359 0.73123C49.6167 0.636013 47.614 0.570914 45.6367 0.531919L45.5972 2.53153ZM57.4757 3.09723C59.4443 3.2498 61.4188 3.43426 63.3912 3.65422L63.6129 1.66654C61.6168 1.44394 59.6198 1.25741 57.6303 1.10321L57.4757 3.09723ZM69.2779 4.42187C71.2396 4.71651 73.1905 5.05027 75.1223 5.42672L75.5049 3.46365C73.5428 3.08131 71.5634 2.74271 69.575 2.44405L69.2779 4.42187ZM80.9055 6.70081C82.8361 7.17837 84.7375 7.70435 86.601 8.28253L87.1936 6.37236C85.2904 5.78184 83.3514 5.24555 81.3857 4.75933L80.9055 6.70081ZM92.1736 10.218C94.0316 10.9379 95.8375 11.7188 97.5817 12.5649L98.4546 10.7654C96.6576 9.89375 94.8013 9.09128 92.8963 8.35311L92.1736 10.218ZM102.741 15.3774C104.429 16.4105 106.036 17.5197 107.553 18.7097L108.787 17.1363C107.206 15.8952 105.534 14.7423 103.786 13.6717L102.741 15.3774ZM111.891 22.6015C113.246 23.9959 114.493 25.4809 115.622 27.0619L117.249 25.8997C116.06 24.2334 114.747 22.6715 113.326 21.2081L111.891 22.6015ZM118.608 32.0327C119.452 33.7284 120.178 35.5187 120.775 37.4091L122.682 36.8063C122.054 34.8175 121.289 32.9309 120.399 31.142L118.608 32.0327ZM122.12 43.0638C122.278 44.0213 122.406 45.0012 122.505 46.0043L124.495 45.8092C124.393 44.7634 124.258 43.7399 124.093 42.7384L122.12 43.0638ZM122.505 46.0043C122.604 47.0133 122.684 48.0301 122.746 49.0543L124.742 48.9335C124.679 47.8853 124.597 46.8436 124.495 45.8092L122.505 46.0043ZM122.904 55.2075C122.889 57.239 122.811 59.2936 122.673 61.3678L124.668 61.5006C124.809 59.3894 124.889 57.2952 124.904 55.2221L122.904 55.2075ZM122.1 67.5135C121.859 69.5394 121.568 71.5795 121.228 73.6303L123.202 73.9566C123.545 71.8774 123.842 69.8071 124.086 67.7494L122.1 67.5135ZM120.094 79.7096C119.679 81.7159 119.222 83.729 118.728 85.7458L120.671 86.2216C121.17 84.1827 121.632 82.1462 122.053 80.1152L120.094 79.7096ZM117.156 91.736C116.603 93.7176 116.017 95.6995 115.401 97.6787L117.311 98.2727C117.932 96.2758 118.524 94.2753 119.083 92.2742L117.156 91.736ZM113.481 103.573C112.815 105.529 112.124 107.478 111.411 109.42L113.289 110.109C114.007 108.154 114.703 106.189 115.374 104.217L113.481 103.573ZM109.207 115.218C108.449 117.148 107.672 119.066 106.879 120.97L108.725 121.739C109.523 119.823 110.306 117.892 111.069 115.949L109.207 115.218ZM104.438 126.675C103.602 128.581 102.752 130.468 101.893 132.335L103.709 133.171C104.573 131.294 105.428 129.396 106.27 127.479L104.438 126.675ZM99.2498 137.951C98.3435 139.836 97.4307 141.695 96.5156 143.525L98.3042 144.42C99.2239 142.581 100.141 140.713 101.052 138.817L99.2498 137.951ZM93.6949 149.059C92.724 150.929 91.7548 152.762 90.7919 154.553L92.5536 155.5C93.5208 153.701 94.4945 151.859 95.47 149.98L93.6949 149.059ZM87.8103 160.01C86.7761 161.872 85.7554 163.679 84.7543 165.425L86.4894 166.42C87.4949 164.666 88.52 162.851 89.5587 160.981L87.8103 160.01ZM81.6308 170.792C80.5342 172.648 79.472 174.416 78.4537 176.089L80.162 177.129C81.1847 175.449 82.2514 173.673 83.3526 171.81L81.6308 170.792ZM75.1625 181.412C73.9439 183.353 72.8236 185.104 71.8241 186.644L73.5021 187.733C74.5066 186.184 75.6322 184.425 76.8563 182.476L75.1625 181.412ZM68.406 191.816C67.8515 192.638 67.4198 193.267 67.1271 193.691C66.9808 193.903 66.8692 194.064 66.7944 194.171C66.7571 194.225 66.7289 194.265 66.7102 194.291C66.7008 194.305 66.6938 194.315 66.6892 194.321C66.6869 194.325 66.6852 194.327 66.6841 194.329C66.6836 194.329 66.6832 194.33 66.6829 194.33C66.6828 194.33 66.6827 194.331 66.6827 194.331C66.6826 194.331 66.6826 194.331 66.6826 194.331C66.6826 194.331 66.6826 194.331 67.5 194.907C68.3174 195.483 68.3174 195.483 68.3174 195.483C68.3174 195.483 68.3174 195.483 68.3175 195.483C68.3175 195.483 68.3175 195.483 68.3176 195.483C68.3177 195.482 68.3178 195.482 68.318 195.482C68.3184 195.481 68.3189 195.481 68.3195 195.48C68.3209 195.478 68.3228 195.475 68.3253 195.472C68.3304 195.464 68.3378 195.454 68.3476 195.44C68.3673 195.412 68.3963 195.37 68.4347 195.315C68.5113 195.206 68.6247 195.042 68.773 194.828C69.0695 194.398 69.5051 193.763 70.0637 192.935L68.406 191.816Z" fill="#FF3C7F"/>
</svg>
