<svg width="27" height="26" viewBox="0 0 27 26" fill="none" xmlns="http://www.w3.org/2000/svg">
<path d="M8.77206 23.5851C10.7592 24.3145 13.9866 25.4542 18.723 25.3024C19.3022 25.2831 19.881 25.261 20.4595 25.2361C22.5658 25.1403 24.4825 23.4748 24.9664 21.3664C25.5041 18.9777 26.0024 16.6041 26.4505 14.2481C26.9546 11.6024 24.7685 9.14489 21.984 9.08946C20.2141 9.06425 18.4441 9.04698 16.6742 9.03766C16.6742 9.03766 17.5092 7.35456 17.4631 4.54629C17.3906 1.17388 14.916 -0.00154156 13.84 1.25456e-05C12.7568 -0.00309567 12.2097 0.569851 12.1932 3.38693C12.1875 5.79527 10.0987 7.79023 8.45347 8.9843C8.45347 8.9843 7.43294 9.58315 5.59961 9.58315V21.5233C5.59961 21.5233 6.76053 22.8485 8.77206 23.5851Z" fill="#F5B48B"/>
<path d="M8.45347 8.98438C8.45347 8.98438 7.43294 9.58322 5.59961 9.58322V21.5234C5.59961 21.5234 6.76053 22.8486 8.77206 23.5852C10.7592 24.3146 13.9866 25.4543 18.723 25.3025C19.3022 25.2831 19.881 25.261 20.4595 25.2362C22.5658 25.1403 24.4825 23.4749 24.9664 21.3665C25.5041 18.9778 26.0024 16.6042 26.4505 14.2481C26.9546 11.6025 24.7685 9.14497 21.984 9.08954C20.2141 9.06433 18.4441 9.04706 16.6742 9.03773L8.45347 8.98438Z" fill="#FFC49B"/>
<path d="M0.63806 22.2591C0.858743 23.4469 2.08856 24.4602 3.53906 24.6281C4.01634 24.683 4.49432 24.7341 4.97298 24.7814C6.12302 24.8948 7.05755 24.1597 7.02026 23.189C6.83929 18.7477 6.77333 14.3067 6.82237 9.86612C6.83221 8.89376 5.84328 8.13899 4.65646 8.2198C4.16433 8.25226 3.67185 8.28818 3.17902 8.32755C1.68812 8.44825 0.471253 9.41543 0.315324 10.596C-0.198049 14.4875 -0.0804548 18.3479 0.63806 22.2591Z" fill="#4193D2"/>
<path d="M6.81466 14.7977C6.80119 13.1531 6.80343 11.5085 6.82139 9.86392C6.83123 8.89157 5.84231 8.13679 4.65549 8.2176C4.16335 8.25007 3.67087 8.28598 3.17805 8.32536C1.68714 8.44606 0.470279 9.41323 0.314351 10.5938C-0.059104 13.4272 -0.0999608 16.2944 0.192612 19.1373C2.76092 18.3355 5.05437 16.8325 6.81466 14.7977Z" fill="#48A4DF"/>
</svg>
