<svg width="28" height="28" viewBox="0 0 28 28" fill="none" xmlns="http://www.w3.org/2000/svg">
<g clip-path="url(#clip0_2734_7956)">
<path d="M8.16574 7.65308L6.86768 6.35502L8.94329 4.27941C9.14005 4.08264 9.4591 4.08264 9.65586 4.27941L10.2413 4.86489C10.4381 5.06166 10.4381 5.38071 10.2413 5.57747L8.16574 7.65308Z" fill="#A8D0D5"/>
<path d="M2.87426 3.7242L1.23779 2.89235L2.5679 0.275662C2.69401 0.0275997 2.99731 -0.0712753 3.24543 0.0547794L3.98354 0.42999C4.23161 0.5561 4.33048 0.859397 4.20443 1.10751L2.87426 3.7242Z" fill="#A8D0D5"/>
<path d="M5.64195 5.51738L4.12158 4.48855L5.76664 2.05747C5.92261 1.82702 6.23586 1.76659 6.46631 1.92255L7.15209 2.38658C7.38254 2.54255 7.44297 2.8558 7.287 3.08625L5.64195 5.51738Z" fill="#A8D0D5"/>
<path d="M1.64085 1.74485C3.87106 2.69641 9.88324 5.85385 12.4746 13.0789L10.2531 14.6898C9.04997 10.0711 5.50584 6.05537 0.684369 4.09034C0.239432 3.90905 0.0223769 3.40428 0.194971 2.9559L0.470432 2.24048C0.650135 1.77372 1.18077 1.54857 1.64085 1.74485Z" fill="#DAEAEF"/>
<path d="M19.8345 7.65308L21.1326 6.35502L19.057 4.27941C18.8602 4.08264 18.5412 4.08264 18.3444 4.27941L17.7589 4.86489C17.5621 5.06166 17.5621 5.38071 17.7589 5.57747L19.8345 7.65308Z" fill="#A8D0D5"/>
<path d="M25.1257 3.7242L26.7621 2.89235L25.432 0.275662C25.3059 0.0275997 25.0026 -0.0712753 24.7545 0.0547794L24.0164 0.42999C23.7683 0.5561 23.6694 0.859397 23.7955 1.10751L25.1257 3.7242Z" fill="#A8D0D5"/>
<path d="M22.3586 5.51733L23.879 4.48855L22.2339 2.05747C22.078 1.82702 21.7647 1.76659 21.5343 1.92255L20.8485 2.38658C20.618 2.54255 20.5576 2.8558 20.7136 3.08625L22.3586 5.51733Z" fill="#A8D0D5"/>
<path d="M26.3591 1.74485C24.1289 2.69641 18.1167 5.85385 15.5254 13.0789L17.7469 14.6898C18.9499 10.071 22.4941 6.05532 27.3156 4.09034C27.7605 3.909 27.9775 3.40423 27.8049 2.9559L27.5295 2.24048C27.3498 1.77372 26.8192 1.54857 26.3591 1.74485Z" fill="#DAEAEF"/>
<path d="M15.4395 7.42578H12.5607C11.7106 7.42578 10.9058 7.80914 10.3702 8.46922L8.64085 10.6004C7.87206 11.5478 7.77012 12.8722 8.38481 13.926L11.5556 19.362C11.7878 19.7602 12.214 20.0049 12.6749 20.0049H15.3255C15.7863 20.0049 16.2126 19.7602 16.4448 19.362L19.6155 13.926C20.2303 12.8722 20.1283 11.5477 19.3595 10.6004L17.6302 8.46922C17.0944 7.80914 16.2896 7.42578 15.4395 7.42578Z" fill="#A8D0D5"/>
<path d="M19.3592 10.6004L17.6298 8.46922C17.0942 7.80914 16.2894 7.42578 15.4394 7.42578H13.3643C14.2143 7.42578 15.0191 7.80914 15.5547 8.46922L17.2841 10.6004C18.0529 11.5478 18.1548 12.8722 17.5401 13.926L13.9943 20.0049H15.3251C15.786 20.0049 16.2122 19.7601 16.4444 19.362L19.6152 13.926C20.2299 12.8722 20.128 11.5478 19.3592 10.6004Z" fill="#8DB9C2"/>
<path d="M18.6882 22.6741L17.2467 14.7211C16.9622 13.1513 15.5952 12.0098 13.9998 12.0098C12.4043 12.0098 11.0373 13.1512 10.7528 14.7211L9.3113 22.6741C9.04694 24.1326 9.51452 25.6281 10.5627 26.6762C11.4103 27.5239 12.56 28.0001 13.7587 28.0001H14.2408C15.4396 28.0001 16.5892 27.5238 17.4369 26.6762C18.485 25.6281 18.9526 24.1326 18.6882 22.6741ZM13.9998 25.499C12.7284 25.499 11.6978 24.4684 11.6978 23.197C11.6978 21.9256 12.7284 20.8951 13.9998 20.8951C15.2711 20.8951 16.3017 21.9257 16.3017 23.197C16.3017 24.4683 15.2711 25.499 13.9998 25.499Z" fill="#8DB9C2"/>
<path d="M18.6885 22.6741L17.247 14.7211C16.9625 13.1513 15.5955 12.0098 14.0001 12.0098C13.6399 12.0098 13.2915 12.0684 12.9644 12.1766C14.086 12.5476 14.9553 13.5057 15.1756 14.7211L16.6171 22.674C16.8815 24.1326 16.4139 25.628 15.3657 26.6762C14.7079 27.334 13.8678 27.7669 12.9644 27.9283C13.225 27.9748 13.4906 28.0001 13.759 28.0001H14.2411C15.4399 28.0001 16.5895 27.5238 17.4372 26.6762C18.4853 25.6281 18.9529 24.1326 18.6885 22.6741Z" fill="#7BA0B0"/>
<path d="M14.0001 15.5417C12.9219 15.5417 12.0479 14.6676 12.0479 13.5894V8.20034C12.0479 7.12212 12.9219 6.24805 14.0001 6.24805C15.0784 6.24805 15.9524 7.12212 15.9524 8.20034V13.5894C15.9524 14.6676 15.0784 15.5417 14.0001 15.5417Z" fill="#688B96"/>
</g>
<defs>
<clipPath id="clip0_2734_7956">
<rect width="28" height="28" fill="white"/>
</clipPath>
</defs>
</svg>
