<svg width="1920" height="1210" fill="none" xmlns="http://www.w3.org/2000/svg"><g opacity=".6" filter="url(#filter0_f_72_266)"><path fill="#6F64A3" d="M370.5 435h1180v340h-1180z"/></g><g opacity=".5" filter="url(#filter1_f_72_266)"><path d="M370.5 685.736l241.431 46.461L841.57 623.28l250.74 41.891 191.16-172.896-11.79-19.042L1332.5 458l-24.83 69.311-13.65-20.565-197.37 178.228-255.08-41.891L611.931 752 370.5 706.301v-20.565z" fill="url(#paint0_linear_72_266)"/></g><g opacity=".3" filter="url(#filter2_f_72_266)"><path d="M181.5 663.078l186.72 29.394 177.6-68.907 193.92 26.502 147.84-109.383-9.12-12.047L925.5 519l-19.2 43.85-10.56-13.011L743.1 662.596l-197.28-26.503L368.22 705 181.5 676.088v-13.01z" fill="url(#paint1_linear_72_266)"/></g><g opacity=".5" filter="url(#filter3_f_72_266)"><path d="M1158.5 709.256l151.48 20.866 91.71-63.487-5.73-7.575 29.54-6.06-12.06 27.573-6.63-8.181L1312.09 738l-153.59-20.866v-7.878z" fill="url(#paint2_linear_72_266)"/></g><path d="M747.5 435h-372a5 5 0 00-5 5v287m803 48h372c2.76 0 5-2.239 5-5V483" stroke="#fff" stroke-width="2"/><defs><filter id="filter0_f_72_266" x="-64.5" y="0" width="2050" height="1210" filterUnits="userSpaceOnUse" color-interpolation-filters="sRGB"><feFlood flood-opacity="0" result="BackgroundImageFix"/><feBlend in="SourceGraphic" in2="BackgroundImageFix" result="shape"/><feGaussianBlur stdDeviation="217.5" result="effect1_foregroundBlur_72_266"/></filter><filter id="filter1_f_72_266" x="360.5" y="448" width="982" height="314" filterUnits="userSpaceOnUse" color-interpolation-filters="sRGB"><feFlood flood-opacity="0" result="BackgroundImageFix"/><feBlend in="SourceGraphic" in2="BackgroundImageFix" result="shape"/><feGaussianBlur stdDeviation="5" result="effect1_foregroundBlur_72_266"/></filter><filter id="filter2_f_72_266" x="171.5" y="509" width="764" height="206" filterUnits="userSpaceOnUse" color-interpolation-filters="sRGB"><feFlood flood-opacity="0" result="BackgroundImageFix"/><feBlend in="SourceGraphic" in2="BackgroundImageFix" result="shape"/><feGaussianBlur stdDeviation="5" result="effect1_foregroundBlur_72_266"/></filter><filter id="filter3_f_72_266" x="1148.5" y="643" width="287" height="105" filterUnits="userSpaceOnUse" color-interpolation-filters="sRGB"><feFlood flood-opacity="0" result="BackgroundImageFix"/><feBlend in="SourceGraphic" in2="BackgroundImageFix" result="shape"/><feGaussianBlur stdDeviation="5" result="effect1_foregroundBlur_72_266"/></filter><linearGradient id="paint0_linear_72_266" x1="1332.5" y1="458" x2="320.936" y2="589.359" gradientUnits="userSpaceOnUse"><stop stop-color="#8E83D7"/><stop offset="1" stop-color="#8E83D7" stop-opacity="0"/></linearGradient><linearGradient id="paint1_linear_72_266" x1="925.5" y1="519" x2="149.529" y2="642.181" gradientUnits="userSpaceOnUse"><stop stop-color="#8E83D7"/><stop offset="1" stop-color="#8E83D7" stop-opacity="0"/></linearGradient><linearGradient id="paint2_linear_72_266" x1="1405.13" y1="695.627" x2="1062.95" y2="679.748" gradientUnits="userSpaceOnUse"><stop stop-color="#8E83D7"/><stop offset="1" stop-color="#8E83D7" stop-opacity="0"/></linearGradient></defs></svg>