<svg width="25" height="24" viewBox="0 0 25 24" fill="none" xmlns="http://www.w3.org/2000/svg">
<path d="M17.1723 22.5779H15.1504L14.8598 18.7358H11.0742L10.7836 22.5779H8.76171C8.36902 22.5779 8.05066 22.8963 8.05066 23.2889C8.05066 23.6816 8.36902 24 8.76171 24H17.1723C17.565 24 17.8834 23.6816 17.8834 23.2889C17.8834 22.8963 17.565 22.5779 17.1723 22.5779Z" fill="#87ACE2"/>
<path d="M22.1709 5.28271H20.4549L15.3372 10.3829C15.4623 11.4949 15.0884 12.6232 14.2697 13.4418C13.1145 14.5969 9.49746 15.1644 7.87114 15.3469C7.39473 15.3909 7.04058 14.9963 7.08756 14.5629C7.26869 12.9628 7.83141 9.32566 8.9927 8.16437C9.827 7.33007 10.9618 6.97407 12.0521 7.09685L13.8596 5.28271H3.76126C3.3607 5.28271 3.03503 5.60838 3.03503 6.00894V16.5875C3.03503 16.9881 3.3607 17.3137 3.76126 17.3137H22.1709C22.5714 17.3137 22.8971 16.9881 22.8971 16.5875V6.00894C22.8971 5.60838 22.5714 5.28271 22.1709 5.28271Z" fill="#87ACE2"/>
<path d="M14.8307 8.88113C15.0201 8.69232 20.1797 3.55023 22.1853 1.5516C22.5252 1.19229 22.5181 0.617756 22.1678 0.267919C21.8175 -0.082393 21.2429 -0.0899776 20.8836 0.249905C20.8595 0.274128 13.6608 7.49794 13.5546 7.60455C14.0581 7.90628 14.5077 8.3421 14.8307 8.88113Z" fill="#1A215C"/>
<path d="M13.2648 9.17036C12.3614 8.26689 10.8956 8.27253 9.99869 9.17036C9.41089 9.75816 8.88803 11.9984 8.61877 13.8164C9.66056 13.6619 12.5904 13.1511 13.3155 12.3843C14.1674 11.4762 14.1441 10.0496 13.2648 9.17036Z" fill="#1A215C"/>
</svg>
