<svg width="24" height="24" viewBox="0 0 24 24" fill="none" xmlns="http://www.w3.org/2000/svg">
<g clip-path="url(#clip0_123_3074)">
<path d="M22.3594 22.5938H1.64062C1.5112 22.5938 1.40625 22.4888 1.40625 22.3594V7.66565C1.40625 7.53623 1.5112 7.43127 1.64062 7.43127H22.3594C22.4888 7.43127 22.5938 7.53623 22.5938 7.66565V22.3594C22.5938 22.4888 22.4888 22.5938 22.3594 22.5938Z" fill="#5C2E1A"/>
<path d="M20.2852 17.975C19.8968 17.975 19.582 17.6602 19.582 17.2719V12.7532C19.582 12.3649 19.8968 12.05 20.2852 12.05C20.6735 12.05 20.9883 12.3649 20.9883 12.7532V17.2719C20.9883 17.6602 20.6735 17.975 20.2852 17.975Z" fill="#E3E7F4"/>
<path d="M20.2852 17.975C20.6735 17.975 20.9883 17.6601 20.9883 17.2718V15.0125H19.582V17.2718C19.582 17.6601 19.8968 17.975 20.2852 17.975Z" fill="#D0D6EB"/>
<path d="M13.5067 20.9876C13.1184 20.9876 12.8036 20.6728 12.8036 20.2845C12.8036 19.8962 13.1184 19.5813 13.5067 19.5813C14.2393 19.5813 14.7315 19.2247 14.7315 18.6939C14.7315 17.5976 12.9422 16.4688 9.74105 16.4688C2.33424 16.4688 1.96139 12.1394 4.42571 10.5848C6.15075 9.4967 8.94478 9.76581 11.7144 12.2277C12.0046 12.4857 12.0308 12.9302 11.7728 13.2204C11.5148 13.5106 11.0704 13.5368 10.7802 13.2788C8.33246 11.103 6.23147 11.1085 5.17603 11.7742C3.53639 12.8086 4.58822 15.0626 9.74105 15.0626C14.2598 15.0626 16.1378 16.9997 16.1378 18.6939C16.1378 20.0229 15.0313 20.9876 13.5067 20.9876Z" fill="#FED07A"/>
<path d="M14.7306 18.6937C14.7306 19.2245 14.2384 19.5812 13.5058 19.5812C13.1175 19.5812 12.8026 19.896 12.8026 20.2843C12.8026 20.6727 13.1175 20.9875 13.5058 20.9875C15.0303 20.9875 16.1369 20.0228 16.1369 18.6937C16.1369 16.9994 14.2589 15.0625 9.74011 15.0625C9.28819 15.0625 8.86852 15.0448 8.4787 15.0125H4.14844C5.16811 15.8577 6.95775 16.4687 9.74011 16.4687C12.9412 16.4687 14.7306 17.5975 14.7306 18.6937Z" fill="#FCD33D"/>
<path d="M11.2461 13.4563C10.8578 13.4563 10.543 13.1415 10.543 12.7531C10.543 11.1919 11.151 9.72403 12.2551 8.61956L20.2268 0.647109C20.6381 0.235781 21.2078 0 21.7899 0C22.9823 0 23.9992 0.960984 23.9992 2.20936C23.9992 2.79966 23.7697 3.35433 23.3529 3.77119L15.3808 11.7441C14.2932 12.8321 12.7861 13.4563 11.2461 13.4563Z" fill="#D7B784"/>
<path d="M11.2478 13.4562C12.7878 13.4562 14.2949 12.8321 15.3825 11.744L23.3546 3.77117C23.7714 3.35427 24.0009 2.79964 24.0009 2.2093C24.0009 1.59022 23.7506 1.04206 23.3531 0.646484L10.75 13.2496C10.8773 13.3772 11.0533 13.4562 11.2478 13.4562Z" fill="#CD8941"/>
</g>
<defs>
<clipPath id="clip0_123_3074">
<rect width="24" height="24" fill="white"/>
</clipPath>
</defs>
</svg>
