<svg width="25" height="24" viewBox="0 0 25 24" fill="none" xmlns="http://www.w3.org/2000/svg">
<g id="fi_11743805">
<path id="Vector" d="M20.1846 2H4.18457C3.08 2 2.18457 2.89543 2.18457 4V20C2.18457 21.1046 3.08 22 4.18457 22H20.1846C21.2891 22 22.1846 21.1046 22.1846 20V4C22.1846 2.89543 21.2891 2 20.1846 2Z" fill="white"/>
<path id="Vector_2" d="M4.18457 2H20.1846C21.2846 2 22.1846 2.9 22.1846 4V6H2.18457V4C2.18457 2.9 3.08457 2 4.18457 2Z" fill="#1A215C"/>
<g id="Group">
<path id="Vector_3" d="M8.5141 17.2501C8.3241 17.2501 8.1341 17.1801 7.9841 17.0301L5.4841 14.5301C5.1941 14.2401 5.1941 13.7601 5.4841 13.4701L7.9841 10.9701C8.2741 10.6801 8.7541 10.6801 9.0441 10.9701C9.3341 11.2601 9.3341 11.7401 9.0441 12.0301L7.0741 14.0001L9.0441 15.9701C9.3341 16.2601 9.3341 16.7401 9.0441 17.0301C8.8941 17.1801 8.7041 17.2501 8.5141 17.2501Z" fill="#0063EB"/>
<path id="Vector_4" d="M15.8541 17.2501C15.6641 17.2501 15.4741 17.1801 15.3241 17.0301C15.0341 16.7401 15.0341 16.2601 15.3241 15.9701L17.2941 14.0001L15.3241 12.0301C15.0341 11.7401 15.0341 11.2601 15.3241 10.9701C15.6141 10.6801 16.0941 10.6801 16.3841 10.9701L18.8841 13.4701C19.1741 13.7601 19.1741 14.2401 18.8841 14.5301L16.3841 17.0301C16.2341 17.1801 16.0441 17.2501 15.8541 17.2501Z" fill="#0063EB"/>
<path id="Vector_5" d="M10.9646 18.7501C10.8946 18.7501 10.8146 18.7401 10.7446 18.7201C10.3446 18.6001 10.1246 18.1801 10.2446 17.7801L12.6946 9.78006C12.8146 9.39006 13.2346 9.16006 13.6346 9.28006C14.0346 9.40006 14.2546 9.82006 14.1346 10.2201L11.6846 18.2201C11.5846 18.5401 11.2846 18.7501 10.9646 18.7501Z" fill="#0063EB"/>
</g>
</g>
</svg>
