<svg width="25" height="24" viewBox="0 0 25 24" fill="none" xmlns="http://www.w3.org/2000/svg">
<g clip-path="url(#clip0_128_5026)">
<path d="M21.8772 6.86265C18.7072 1.65458 13.9319 5.2779 13.9319 5.2779C13.6222 5.51196 13.0512 5.70441 12.6631 5.7053L11.3841 5.7062C10.996 5.70664 10.425 5.5142 10.1157 5.28013C10.1157 5.28013 5.33997 1.65592 2.16957 6.86399C-0.999942 12.0703 0.277349 17.7402 0.277349 17.7402C0.501121 19.1285 1.23867 20.0549 2.63054 19.9385C4.01837 19.8226 7.03079 16.1998 7.03079 16.1998C7.27962 15.9012 7.80101 15.6573 8.18814 15.6573L15.8564 15.656C16.2439 15.656 16.7649 15.8999 17.0133 16.1984C17.0133 16.1984 20.0261 19.8213 21.4162 19.9372C22.8063 20.0536 23.5456 19.1263 23.768 17.7389C23.768 17.7389 25.0471 12.0698 21.8772 6.86265ZM9.14141 11.1018H7.49713V12.6865C7.49713 12.6865 7.14894 12.9524 6.6101 12.9457C6.07215 12.9376 5.82869 12.6557 5.82869 12.6557V11.1022H4.27571C4.27571 11.1022 4.08192 10.9035 4.03001 10.3803C3.97899 9.85717 4.24438 9.43424 4.24438 9.43424H5.8891V7.78996C5.8891 7.78996 6.22745 7.60871 6.71393 7.62258C7.20086 7.6378 7.55755 7.82084 7.55755 7.82084L7.55084 9.43379H9.10382C9.10382 9.43379 9.37503 9.78198 9.3974 10.2027C9.41978 10.6238 9.14141 11.1018 9.14141 11.1018ZM16.6834 12.9081C15.9633 12.9081 15.3829 12.3258 15.3829 11.6066C15.3829 10.8861 15.9633 10.3052 16.6834 10.3052C17.4004 10.3052 17.9853 10.8861 17.9853 11.6066C17.9853 12.3263 17.4004 12.9081 16.6834 12.9081ZM16.6834 9.32727C15.9633 9.32727 15.3829 8.74547 15.3829 8.02626C15.3829 7.30572 15.9633 6.72481 16.6834 6.72481C17.4004 6.72481 17.9853 7.30572 17.9853 8.02626C17.9853 8.74591 17.4004 9.32727 16.6834 9.32727ZM19.9245 11.2495C19.2044 11.2495 18.624 10.6677 18.624 9.94802C18.624 9.22792 19.2044 8.64656 19.9245 8.64656C20.6415 8.64656 21.2264 9.22792 21.2264 9.94802C21.2264 10.6677 20.6415 11.2495 19.9245 11.2495Z" fill="#534DCA"/>
</g>
<defs>
<clipPath id="clip0_128_5026">
<rect width="24" height="24" fill="white" transform="translate(0.0231934)"/>
</clipPath>
</defs>
</svg>
