<svg width="24" height="24" viewBox="0 0 24 24" fill="none" xmlns="http://www.w3.org/2000/svg">
<g clip-path="url(#clip0_123_3086)">
<path d="M14.129 2.94458C14.4579 2.65006 14.8977 2.47681 15.3782 2.49585C16.2928 2.53203 17.0373 3.27777 17.0718 4.19244C17.1099 5.19927 16.3049 6.02746 15.3066 6.02746C14.8541 6.02746 14.4415 5.85711 14.1289 5.57731V8.97163H17.5232C17.2287 9.3006 17.0555 9.74038 17.0745 10.2209C17.1107 11.1355 17.8564 11.8799 18.7711 11.9145C19.7779 11.9525 20.606 11.1476 20.606 10.1493C20.606 9.69674 20.4357 9.28414 20.1559 8.97158H23.5895V0.688674C23.5895 0.0382363 23.0623 -0.489014 22.4119 -0.489014H14.129V2.94458Z" fill="#6912B4"/>
<path d="M11.9952 15.2996C11.9762 14.819 12.1495 14.3793 12.4439 14.0503H9.04962V17.4446C8.72066 17.1501 8.28087 16.9768 7.80036 16.9959C6.88578 17.0321 6.14131 17.7778 6.10677 18.6925C6.0687 19.6993 6.87364 20.5274 7.87198 20.5274C8.32452 20.5274 8.73711 20.3571 9.04967 20.0773V23.5109H17.3326C17.983 23.5109 18.5103 22.9836 18.5103 22.3332V14.0503H15.0767C15.3565 14.3629 15.5268 14.7754 15.5268 15.228C15.5268 16.2263 14.6986 17.0312 13.6918 16.9932C12.7771 16.9586 12.0313 16.2142 11.9952 15.2996Z" fill="#52128A"/>
<path d="M10.2281 7.57325C9.77555 7.57325 9.36295 7.74359 9.05039 8.02344V4.58984H0.767531C0.117094 4.58984 -0.410156 5.11709 -0.410156 5.76748V12.6441H1.17516C1.28991 11.0465 2.60761 9.76316 4.21814 9.70231C4.25887 9.70077 4.29933 9.70002 4.33978 9.70002C6.01237 9.70002 7.3868 11.001 7.50436 12.6441H9.05044V10.6561C9.37941 10.9506 9.81919 11.1238 10.2997 11.1048C11.2143 11.0686 11.9587 10.3229 11.9933 9.40822C12.0314 8.40144 11.2264 7.57325 10.2281 7.57325Z" fill="#9F5FD6"/>
<path d="M5.58712 20.9616C4.98361 20.3348 4.66936 19.5101 4.70231 18.6394C4.76316 17.0289 6.04659 15.7112 7.64419 15.5965V14.0504H5.65608C5.93587 13.7378 6.10627 13.3252 6.10627 12.8727C6.10627 11.8744 5.27808 11.0695 4.2713 11.1075C3.35662 11.1421 2.61089 11.8865 2.5747 12.8011C2.55572 13.2816 2.72897 13.7214 3.02344 14.0504H-0.410156V22.3333C-0.410156 22.9837 0.117094 23.511 0.767531 23.511H7.64423V21.9254C6.8685 21.8686 6.12905 21.5244 5.58712 20.9616Z" fill="#9437E5"/>
</g>
<defs>
<clipPath id="clip0_123_3086">
<rect width="24" height="24" fill="white" transform="translate(-0.410156 -0.489014)"/>
</clipPath>
</defs>
</svg>
