<svg width="25" height="24" viewBox="0 0 25 24" fill="none" xmlns="http://www.w3.org/2000/svg">
<g clip-path="url(#clip0_123_3110)">
<path d="M2.60938 11.2969H9.6875C10.8507 11.2969 11.7969 10.3507 11.7969 9.1875V2.10938C11.7969 0.946219 10.8507 0 9.6875 0H2.60938C1.44622 0 0.5 0.946219 0.5 2.10938V9.1875C0.5 10.3507 1.44622 11.2969 2.60938 11.2969ZM4.0625 4.96875H5.46875V3.5625C5.46875 3.17386 5.78323 2.85938 6.17188 2.85938C6.56052 2.85938 6.875 3.17386 6.875 3.5625V4.96875H8.28125C8.66989 4.96875 8.98438 5.28323 8.98438 5.67188C8.98438 6.06052 8.66989 6.375 8.28125 6.375H6.875V7.78125C6.875 8.16989 6.56052 8.48438 6.17188 8.48438C5.78323 8.48438 5.46875 8.16989 5.46875 7.78125V6.375H4.0625C3.67386 6.375 3.35938 6.06052 3.35938 5.67188C3.35938 5.28323 3.67386 4.96875 4.0625 4.96875Z" fill="#322D96"/>
<path d="M22.3906 0H15.3125C14.1493 0 13.2031 0.946219 13.2031 2.10938V9.1875C13.2031 10.3507 14.1493 11.2969 15.3125 11.2969H22.3906C23.5538 11.2969 24.5 10.3507 24.5 9.1875V2.10938C24.5 0.946219 23.5538 0 22.3906 0ZM20.9844 6.375H16.7188C16.3301 6.375 16.0156 6.06052 16.0156 5.67188C16.0156 5.28323 16.3301 4.96875 16.7188 4.96875H20.9844C21.373 4.96875 21.6875 5.28323 21.6875 5.67188C21.6875 6.06052 21.373 6.375 20.9844 6.375Z" fill="#3731A8"/>
<path d="M22.3906 12.7031H15.3125C14.1493 12.7031 13.2031 13.6493 13.2031 14.8125V21.8906C13.2031 23.0538 14.1493 24 15.3125 24H22.3906C23.5538 24 24.5 23.0538 24.5 21.8906V14.8125C24.5 13.6493 23.5538 12.7031 22.3906 12.7031ZM20.9844 20.4375H16.7188C16.3301 20.4375 16.0156 20.123 16.0156 19.7344C16.0156 19.3457 16.3301 19.0312 16.7188 19.0312H20.9844C21.373 19.0312 21.6875 19.3457 21.6875 19.7344C21.6875 20.123 21.373 20.4375 20.9844 20.4375ZM20.9844 17.625H16.7188C16.3301 17.625 16.0156 17.3105 16.0156 16.9219C16.0156 16.5332 16.3301 16.2188 16.7188 16.2188H20.9844C21.373 16.2188 21.6875 16.5332 21.6875 16.9219C21.6875 17.3105 21.373 17.625 20.9844 17.625Z" fill="#534DCA"/>
<path d="M11.7969 21.8906V14.8125C11.7969 13.6493 10.8507 12.7031 9.6875 12.7031H2.60938C1.44622 12.7031 0.5 13.6493 0.5 14.8125V21.8906C0.5 23.0538 1.44622 24 2.60938 24H9.6875C10.8507 24 11.7969 23.0538 11.7969 21.8906ZM8.16041 19.3224C8.43505 19.597 8.43505 20.042 8.16041 20.3167C7.88577 20.5913 7.44078 20.5913 7.16614 20.3167L6.17188 19.3224L5.17761 20.3167C4.90297 20.5913 4.45798 20.5913 4.18334 20.3167C3.9087 20.042 3.9087 19.597 4.18334 19.3224L5.17761 18.3281L4.18334 17.3339C3.9087 17.0592 3.9087 16.6142 4.18334 16.3396C4.45798 16.065 4.90297 16.065 5.17761 16.3396L6.17188 17.3339L7.16614 16.3396C7.44078 16.065 7.88577 16.065 8.16041 16.3396C8.43505 16.6142 8.43505 17.0592 8.16041 17.3339L7.16614 18.3281L8.16041 19.3224Z" fill="#645FCE"/>
</g>
<defs>
<clipPath id="clip0_123_3110">
<rect width="24" height="24" fill="white" transform="translate(0.5)"/>
</clipPath>
</defs>
</svg>
