<svg width="24" height="24" viewBox="0 0 24 24" fill="none" xmlns="http://www.w3.org/2000/svg">
<path d="M12.0114 0.00104387C11.0242 0.00558689 10.0816 0.088961 9.2527 0.23438C6.80841 0.662021 6.36477 1.55676 6.36477 3.2076V5.3874H12.1385V6.11385H6.36477H4.19829C2.52024 6.11385 1.04978 7.11289 0.591076 9.01243C0.060869 11.1901 0.0373951 12.5509 0.591076 14.8245C1.00154 16.5176 1.98185 17.7231 3.6599 17.7231H5.64527V15.1103C5.64527 13.2227 7.29425 11.5569 9.25249 11.5569H15.0197C16.6252 11.5569 17.9076 10.2478 17.9076 8.65197V3.20675C17.9076 1.65701 16.5875 0.493737 15.0197 0.233527C14.0278 0.0699997 12.9986 -0.00428825 12.0112 0.000190783L12.0114 0.00104387ZM8.88875 1.75405C9.48528 1.75405 9.97221 2.2444 9.97221 2.84715C9.97221 3.44777 9.48507 3.93363 8.88875 3.93363C8.29027 3.93363 7.80529 3.44798 7.80529 2.84715C7.80529 2.2444 8.29027 1.75405 8.88875 1.75405Z" fill="url(#paint0_linear_123_3135)"/>
<path d="M18.4425 6.27698V8.79812C18.4425 10.7522 16.7958 12.3967 14.9181 12.3967H9.2832C7.7396 12.3967 6.46155 13.7257 6.46155 15.2799V20.6841C6.46155 22.2222 7.79115 23.1269 9.2832 23.5672C11.069 24.0956 12.7824 24.1911 14.9181 23.5672C16.3384 23.1536 17.7397 22.3209 17.7397 20.6841V18.5207H12.1048V17.7997H17.7397H20.5614C22.2009 17.7997 22.8128 16.6492 23.383 14.923C23.972 13.145 23.9469 11.4344 23.383 9.1546C22.9778 7.51257 22.2039 6.27782 20.5614 6.27782H18.4446L18.4425 6.27698ZM15.2737 19.9644C15.8584 19.9644 16.3323 20.4464 16.3323 21.0427C16.3323 21.6409 15.8584 22.1276 15.2737 22.1276C14.6908 22.1276 14.2151 21.6409 14.2151 21.0427C14.2151 20.4466 14.691 19.9644 15.2737 19.9644Z" fill="url(#paint1_linear_123_3135)"/>
<defs>
<linearGradient id="paint0_linear_123_3135" x1="0.184187" y1="0.000574706" x2="13.3951" y2="11.3632" gradientUnits="userSpaceOnUse">
<stop stop-color="#5A9FD4"/>
<stop offset="1" stop-color="#306998"/>
</linearGradient>
<linearGradient id="paint1_linear_123_3135" x1="15.1406" y1="20.8679" x2="10.4273" y2="14.3129" gradientUnits="userSpaceOnUse">
<stop stop-color="#FFD43B"/>
<stop offset="1" stop-color="#FFE873"/>
</linearGradient>
</defs>
</svg>
