<svg width="20" height="21" viewBox="0 0 20 21" fill="none" xmlns="http://www.w3.org/2000/svg">
<path d="M19.1924 19.414C16.2558 16.7054 13.7183 14.5101 11.0382 12.2577C12.6348 12.2006 14.374 12.1151 15.9707 11.9725C16.1417 11.944 16.3128 11.887 16.4554 11.773C17.0541 11.2883 17.9094 10.4329 18.4511 9.69164C18.5367 9.54908 18.5937 9.40653 18.5367 9.23546C17.9665 6.66944 16.9971 3.59021 15.6 0.853122C15.486 0.653543 15.2579 0.510986 15.0298 0.510986C9.86924 0.824611 4.93677 1.53739 0.574537 2.42125C0.289423 2.47827 0.0898438 2.73487 0.0898438 3.01998C0.175378 8.32309 0.460491 13.7973 0.85965 19.1859C0.888161 19.471 1.08774 19.6991 1.37285 19.7561C3.11205 20.0127 4.82273 20.2408 7.16066 20.3834C7.36024 20.3834 7.53131 20.1838 7.44577 19.9842C6.64745 17.7318 5.39295 13.2556 5.19338 12.4572C5.39295 12.4572 5.47849 12.4287 5.64956 12.4287C6.70448 14.5671 8.30111 17.5323 9.44156 19.9842C9.58412 20.2979 9.89775 20.4974 10.2399 20.4974C12.9485 20.5545 15.9136 20.4404 19.0214 19.9842C19.278 19.8987 19.392 19.5851 19.1924 19.414ZM9.15645 7.86691C8.13004 7.98096 6.56192 8.095 5.56402 8.15203C5.47849 7.52478 5.39295 6.61241 5.36444 5.95665C6.59043 5.98516 7.84493 6.01368 9.15645 6.12772C9.15645 6.69795 9.15645 7.26817 9.15645 7.86691Z" fill="#E2231A"/>
<path d="M15.543 10.9245C16.0562 10.4683 16.6549 9.89807 17.0541 9.24231C16.5124 6.84736 15.657 4.22431 14.4881 1.77234C10.0118 2.08596 5.16487 2.71321 0.94519 3.51153C1.11626 9.15678 1.37286 13.7756 1.80053 18.6225C3.14056 18.8221 4.05293 18.9362 5.56403 19.0502C4.82273 16.4272 4.25251 14.2888 3.71079 11.6373C4.42357 11.6088 5.16487 11.5802 5.90616 11.5517C7.67387 14.4029 8.70028 16.4557 10.411 19.2498C12.5208 19.2498 14.4596 19.1928 16.4269 19.0217C13.6042 16.2561 10.9812 13.8041 8.30112 11.4377C10.8671 11.2951 13.4617 11.1241 15.543 10.9245ZM4.224 9.24231C4.02442 7.81674 3.96739 6.39118 3.91037 4.96561C5.90616 4.96561 8.016 5.05114 9.98329 5.22221C10.0403 6.1916 10.0403 7.78823 9.98329 8.78613C8.13005 8.98571 6.19128 9.12827 4.224 9.24231Z" fill="white"/>
</svg>
