<svg width="19" height="24" viewBox="0 0 19 24" fill="none" xmlns="http://www.w3.org/2000/svg">
<g clip-path="url(#clip0_123_3147)">
<path fill-rule="evenodd" clip-rule="evenodd" d="M17.9968 14.7093C18.0251 17.0859 16.9994 19.3736 15.1847 20.9806C13.7405 22.2735 11.9184 23.0162 10.0236 23.0885C9.14769 23.8018 8.08563 24.2259 6.94837 24.3008C6.82693 24.3091 6.7055 24.3142 6.58407 24.3142C3.67896 24.3142 1.23431 21.9594 1.01178 18.9526C1.00932 18.9181 1.00685 18.8695 1.00439 18.8074C1.00131 18.7863 0.99884 18.7646 0.99884 18.7409C0.942131 17.4749 0.970485 16.4289 1.00685 15.7629C1.04014 15.1488 1.0611 14.044 1.06356 13.7868V13.7708C1.07897 12.872 1.29348 11.9949 1.68366 11.2087C1.57271 10.3291 1.57518 9.38803 1.69414 8.40093L1.70955 8.2474C1.71263 8.22884 1.71263 8.20709 1.71448 8.18854C1.71757 8.17255 1.72003 8.154 1.7225 8.13544C1.82051 7.29548 1.99125 5.91942 2.71491 4.50882C3.91936 2.1431 6.20437 0.731851 8.8247 0.731851H8.93565C9.7604 0.254612 10.6881 0 11.6417 0L11.7428 0C14.7767 0.0562962 17.2448 2.65808 17.2448 5.80171C17.2448 5.83626 17.1412 9.60746 17.0247 10.8978C17.6528 12.0378 17.9838 13.3307 17.9968 14.7093Z" fill="white"/>
<path fill-rule="evenodd" clip-rule="evenodd" d="M15.4173 14.7237C15.4383 16.2981 14.7405 17.8379 13.5021 18.9351C12.4505 19.8767 11.1068 20.3969 9.7242 20.3969C9.48627 20.3943 9.24587 20.3809 9.0104 20.3482C8.95616 20.4237 8.89945 20.496 8.84027 20.5657C8.3077 21.1908 7.57357 21.5612 6.77224 21.6091C6.7106 21.6143 6.65081 21.6168 6.58917 21.6168C5.02535 21.6168 3.70995 20.3457 3.59345 18.7259C3.59098 18.6939 3.58852 18.6613 3.58852 18.6267L3.58605 18.6024C3.53427 17.449 3.56016 16.4996 3.59098 15.9066C3.62982 15.2202 3.65077 14.0533 3.65324 13.8012C3.66618 13.0124 3.95774 12.2966 4.43114 11.7515C4.19568 10.9071 4.12047 9.89313 4.26533 8.69427L4.28382 8.51963C4.28629 8.50619 4.28629 8.49276 4.28875 8.47932C4.37135 7.7769 4.49525 6.73862 5.0044 5.7464C5.76442 4.25519 7.15996 3.39923 8.8298 3.39923C8.92287 3.39923 9.02088 3.40179 9.12197 3.40755C9.29765 3.41842 9.47579 3.43953 9.649 3.47216C10.1914 2.96485 10.9126 2.65074 11.7035 2.66738C13.3369 2.69681 14.6653 4.09653 14.6653 5.7867C14.6653 5.8238 14.5204 10.3384 14.4508 10.7299C14.4095 10.9743 14.3398 11.2071 14.2492 11.4272C15.0012 12.3286 15.4068 13.4526 15.4173 14.7237Z" fill="#F9A83A"/>
<path fill-rule="evenodd" clip-rule="evenodd" d="M8.89694 11.502C8.12212 11.3767 7.70851 10.8386 7.91377 9.17407L7.93781 8.97319C8.11041 7.52676 8.25526 7.20498 8.92591 7.24272C9.12192 7.25552 9.34814 7.3841 9.57375 7.57666C9.78332 7.82807 10.2487 8.1537 10.5107 8.79855C10.6987 9.27195 10.7634 9.58094 10.7905 9.91295L10.8318 10.3205V10.3185C10.8873 10.5975 11.0932 10.8265 11.378 10.8764C11.7447 10.9461 12.0985 10.6928 12.1626 10.3121C12.1713 10.2667 12.3371 5.88266 12.3371 5.81101C12.3371 5.42461 12.0387 5.11114 11.664 5.10475C11.2904 5.10283 10.9872 5.41821 10.9872 5.80333C10.9872 5.81165 10.9853 6.41683 10.973 7.02713C10.4404 6.42579 9.75867 5.88713 8.99556 5.84043C6.9528 5.7272 6.72966 7.67646 6.59529 8.79982L6.57494 8.99878C6.29941 11.2186 7.01321 12.619 8.68921 12.8909C10.5107 13.1877 11.7268 13.6221 11.7379 14.7851C11.7447 15.2374 11.5154 15.7012 11.1154 16.0582C10.6333 16.4836 9.98859 16.6749 9.38081 16.5713C9.19219 16.5412 9.01529 16.4875 8.84577 16.4292C8.60723 16.2911 8.00623 15.9117 7.70111 15.4735C7.44407 15.1037 7.35469 14.5228 7.32696 14.1544C7.33004 13.9893 7.33065 13.8799 7.33065 13.8678C7.33744 13.4794 7.03725 13.1634 6.66741 13.1545C6.29202 13.1455 5.98381 13.459 5.97703 13.8467C5.97703 13.8594 5.96039 15.2329 5.91169 16.0601C5.84204 17.3927 5.91169 18.5212 5.91169 18.5704C5.93943 18.9575 6.25996 19.2492 6.6335 19.2236C7.00581 19.2031 7.28936 18.8679 7.26347 18.4802C7.26347 18.4738 7.23018 17.9269 7.2345 17.1713C7.73008 17.4995 8.38101 17.8187 9.15583 17.9556C10.1667 18.1316 11.2004 17.8283 11.99 17.124C12.6971 16.4964 13.102 15.6385 13.0909 14.7704C13.0669 12.1789 10.2487 11.7234 8.89694 11.502Z" fill="white"/>
</g>
<defs>
<clipPath id="clip0_123_3147">
<rect width="17.0667" height="24" fill="white" transform="translate(0.966675)"/>
</clipPath>
</defs>
</svg>
