<svg width="40" height="26" viewBox="0 0 40 26" fill="none" xmlns="http://www.w3.org/2000/svg">
<rect x="1.14258" y="0.50708" width="38.2857" height="24" rx="3.5" fill="#1F72CD" stroke="#C7C7C7"/>
<path fill-rule="evenodd" clip-rule="evenodd" d="M9.31366 8.86157L6 16.4103H9.96691L10.4587 15.2067H11.5828L12.0746 16.4103H16.441V15.4917L16.8301 16.4103H19.0888L19.4779 15.4722V16.4103H28.5589L29.6631 15.2379L30.6971 16.4103L35.3613 16.42L32.0371 12.657L35.3613 8.86157H30.7694L29.6945 10.0122L28.6931 8.86157H18.8141L17.9658 10.81L17.0976 8.86157H13.139V9.74892L12.6986 8.86157H9.31366ZM10.0812 9.93314H12.0149L14.2128 15.0519V9.93314H16.3311L18.0287 13.6033L19.5933 9.93314H21.701V15.3498H20.4185L20.408 11.1053L18.5383 15.3498H17.3911L15.5109 11.1053V15.3498H12.8726L12.3724 14.1355H9.67018L9.17103 15.3488H7.75745L10.0812 9.93314ZM28.0891 9.93314H22.8743V15.3466H28.0084L29.6631 13.5525L31.2581 15.3466H32.9254L30.502 12.6556L32.9254 9.93314H31.3304L29.6841 11.7067L28.0891 9.93314ZM11.0218 10.8504L10.1315 13.0137H11.911L11.0218 10.8504ZM24.1622 12.0433V11.0545V11.0536H27.416L28.8358 12.6349L27.3531 14.2249H24.1622V13.1454H27.0071V12.0433H24.1622Z" fill="white"/>
</svg>
