<svg width="32" height="32" viewBox="0 0 32 32" fill="none" xmlns="http://www.w3.org/2000/svg">
<rect x="32" y="32" width="32" height="32" rx="16" transform="rotate(-180 32 32)" fill="#EFF2FD"/>
<path fill-rule="evenodd" clip-rule="evenodd" d="M21.7071 21.7071C21.3166 22.0976 20.6834 22.0976 20.2929 21.7071L15.2929 16.7071C14.9024 16.3166 14.9024 15.6834 15.2929 15.2929L20.2929 10.2929C20.6834 9.90237 21.3166 9.90237 21.7071 10.2929C22.0976 10.6834 22.0976 11.3166 21.7071 11.7071L17.4142 16L21.7071 20.2929C22.0976 20.6834 22.0976 21.3166 21.7071 21.7071Z" fill="#858DA5" stroke="#858DA5" stroke-linecap="round" stroke-linejoin="round"/>
<path fill-rule="evenodd" clip-rule="evenodd" d="M10.2929 21.7071C10.6834 22.0976 11.3166 22.0976 11.7071 21.7071L16.7071 16.7071C17.0976 16.3166 17.0976 15.6834 16.7071 15.2929L11.7071 10.2929C11.3166 9.90237 10.6834 9.90237 10.2929 10.2929C9.90237 10.6834 9.90237 11.3166 10.2929 11.7071L14.5858 16L10.2929 20.2929C9.90237 20.6834 9.90237 21.3166 10.2929 21.7071Z" fill="#858DA5" stroke="#858DA5" stroke-linecap="round" stroke-linejoin="round"/>
</svg>
