<svg width="40" height="25" viewBox="0 0 40 25" fill="none" xmlns="http://www.w3.org/2000/svg">
<rect x="0.927734" y="0.5" width="38.2857" height="24" rx="3.5" fill="white" stroke="#C7C7C7"/>
<path d="M21.7056 14.5831C23.1438 14.5831 24.3097 13.4173 24.3097 11.9791C24.3097 10.5409 23.1438 9.375 21.7056 9.375C20.2674 9.375 19.1016 10.5409 19.1016 11.9791C19.1016 13.4173 20.2674 14.5831 21.7056 14.5831Z" fill="#F26E21"/>
<path d="M7.68056 13.2265C7.37371 13.5012 6.97776 13.6203 6.34895 13.6203H6.08805V10.3509H6.34895C6.97767 10.3509 7.35801 10.4622 7.68056 10.7509C8.0168 11.0475 8.21741 11.5066 8.21741 11.981C8.21741 12.4556 8.0168 12.9309 7.68056 13.2265ZM6.54397 9.51367H5.11523V14.4568H6.53679C7.2912 14.4568 7.83649 14.2799 8.31496 13.8862C8.88246 13.4194 9.21937 12.7153 9.21937 11.9875C9.21929 10.5281 8.11994 9.51367 6.54397 9.51367Z" fill="#0B161F"/>
<path d="M9.66602 14.4568H10.6373V9.51367H9.66602V14.4568Z" fill="#0B161F"/>
<path d="M13.0165 11.4102C12.4328 11.1954 12.2609 11.0542 12.2609 10.7886C12.2609 10.477 12.5668 10.2398 12.9859 10.2398C13.2775 10.2398 13.5162 10.3583 13.7715 10.6392L14.2787 9.98043C13.8607 9.61672 13.36 9.43164 12.8138 9.43164C11.9325 9.43164 11.2593 10.0395 11.2593 10.8463C11.2593 11.5292 11.5728 11.8773 12.4853 12.2042C12.8665 12.337 13.0603 12.4254 13.1578 12.4857C13.3519 12.612 13.4497 12.7891 13.4497 12.9967C13.4497 13.3976 13.1281 13.6935 12.694 13.6935C12.2306 13.6935 11.8572 13.4642 11.6327 13.0342L11.0059 13.6351C11.4533 14.2863 11.9915 14.5766 12.7321 14.5766C13.7408 14.5766 14.4505 13.9085 14.4505 12.9529C14.451 12.1667 14.1228 11.8108 13.0165 11.4102Z" fill="#0B161F"/>
<path d="M14.7578 11.9872C14.7578 13.4416 15.9091 14.5682 17.3891 14.5682C17.8079 14.5682 18.166 14.486 18.6076 14.2797V13.1444C18.2185 13.5304 17.8744 13.6857 17.4335 13.6857C16.4544 13.6857 15.7591 12.9813 15.7591 11.9804C15.7591 11.032 16.4766 10.2829 17.3891 10.2829C17.8516 10.2829 18.2035 10.4457 18.6076 10.8389V9.70445C18.1819 9.49006 17.8298 9.40161 17.411 9.40161C15.939 9.40195 14.7578 10.551 14.7578 11.9872Z" fill="#0B161F"/>
<path d="M26.4857 12.8341L25.155 9.51367H24.0938L26.2098 14.5834H26.7322L28.8854 9.51367H27.8313L26.4857 12.8341Z" fill="#0B161F"/>
<path d="M29.3281 14.4568H32.0856V13.6203H30.2997V12.2847H32.0172V11.4481H30.2997V10.3509H32.0856V9.51367H29.3281V14.4568Z" fill="#0B161F"/>
<path d="M33.9802 11.789H33.6971V10.2909H33.9955C34.6021 10.2909 34.9311 10.544 34.9311 11.0249C34.9311 11.5212 34.6021 11.789 33.9802 11.789ZM35.9308 10.9725C35.9308 10.0465 35.2887 9.51367 34.1668 9.51367H32.7246V14.4568H33.6968V12.4703H33.8244L35.1687 14.4568H36.3647L34.7944 12.3743C35.528 12.2262 35.9308 11.7291 35.9308 10.9725Z" fill="#0B161F"/>
</svg>
