<svg width="40" height="26" viewBox="0 0 40 26" fill="none" xmlns="http://www.w3.org/2000/svg">
<rect x="0.857422" y="0.50708" width="38.2857" height="24" rx="3.5" fill="white" stroke="#C7C7C7"/>
<path fill-rule="evenodd" clip-rule="evenodd" d="M24.6198 19.2054C28.5208 19.2054 31.6831 16.0807 31.6831 12.2262C31.6831 8.37175 28.5208 5.24707 24.6198 5.24707C22.8715 5.24707 21.2715 5.87473 20.0381 6.91445C18.8048 5.87492 17.2049 5.24738 15.4568 5.24738C11.5559 5.24738 8.39355 8.37206 8.39355 12.2266C8.39355 16.081 11.5559 19.2057 15.4568 19.2057C17.2051 19.2057 18.8051 18.5781 20.0385 17.5383C21.2719 18.5779 22.8717 19.2054 24.6198 19.2054Z" fill="#ED0006"/>
<path fill-rule="evenodd" clip-rule="evenodd" d="M20.0381 17.538C21.5568 16.2579 22.5198 14.353 22.5198 12.226C22.5198 10.0989 21.5568 8.19413 20.0381 6.91402C21.2715 5.87441 22.8714 5.24683 24.6196 5.24683C28.5205 5.24683 31.6828 8.37151 31.6828 12.226C31.6828 16.0805 28.5205 19.2052 24.6196 19.2052C22.8714 19.2052 21.2715 18.5776 20.0381 17.538Z" fill="#F9A000"/>
<path fill-rule="evenodd" clip-rule="evenodd" d="M20.0383 17.5382C21.557 16.258 22.52 14.3533 22.52 12.2262C22.52 10.0992 21.557 8.19441 20.0383 6.91431C18.5196 8.19441 17.5566 10.0992 17.5566 12.2262C17.5566 14.3533 18.5196 16.258 20.0383 17.5382Z" fill="#FF5E00"/>
</svg>
