<svg width="40" height="26" viewBox="0 0 40 26" fill="none" xmlns="http://www.w3.org/2000/svg">
<rect x="0.571289" y="0.50708" width="38.2857" height="24" rx="3.5" fill="white" stroke="#C7C7C7"/>
<path fill-rule="evenodd" clip-rule="evenodd" d="M12.5123 16.6824H10.0603L8.22151 10.3638C8.13424 10.0731 7.94893 9.81616 7.67634 9.69505C6.99608 9.3907 6.24647 9.14849 5.42871 9.02633V8.78306H9.37881C9.92398 8.78306 10.3329 9.14849 10.401 9.57289L11.3551 14.1307L13.8059 8.78306H16.1899L12.5123 16.6824ZM17.5528 16.6824H15.2371L17.144 8.78306H19.4597L17.5528 16.6824ZM22.4557 10.9714C22.5238 10.5459 22.9327 10.3026 23.4098 10.3026C24.1594 10.2416 24.9759 10.3637 25.6574 10.667L26.0663 8.96626C25.3848 8.72299 24.6352 8.60083 23.9549 8.60083C21.7073 8.60083 20.0718 9.695 20.0718 11.2136C20.0718 12.3688 21.2303 12.9754 22.048 13.3408C22.9327 13.7052 23.2735 13.9485 23.2053 14.3129C23.2053 14.8594 22.5238 15.1027 21.8436 15.1027C21.0258 15.1027 20.2081 14.9205 19.4597 14.6162L19.0508 16.318C19.8685 16.6213 20.7532 16.7434 21.571 16.7434C24.0912 16.8034 25.6574 15.7103 25.6574 14.0696C25.6574 12.0034 22.4557 11.8823 22.4557 10.9714ZM33.7621 16.6824L31.9233 8.78306H29.9483C29.5394 8.78306 29.1305 9.02633 28.9942 9.3907L25.5893 16.6824H27.9732L28.449 15.5282H31.3781L31.6507 16.6824H33.7621ZM30.289 10.9106L30.9693 13.8877H29.0624L30.289 10.9106Z" fill="#172B85"/>
</svg>
