<svg width="10" height="6" viewBox="0 0 10 6" fill="none" xmlns="http://www.w3.org/2000/svg">
<path d="M9.8402 0.49366L9.5126 0.16382C9.4095 0.0608103 9.2724 0.00407028 9.1258 0.00407028C8.9793 0.00407028 8.8419 0.0608103 8.7389 0.16382L5.0022 3.9006L1.26131 0.15968C1.15838 0.0566704 1.02107 0 0.874558 0C0.728048 0 0.590658 0.0566704 0.487648 0.15968L0.159997 0.48748C-0.0533325 0.70066 -0.0533325 1.0479 0.159997 1.2611L4.614 5.7311C4.7169 5.834 4.8541 5.9066 5.0019 5.9066H5.0036C5.1502 5.9066 5.2874 5.8339 5.3903 5.7311L9.8402 1.2732C9.9433 1.1703 9.9998 1.029 10 0.88245C10 0.73586 9.9433 0.59651 9.8402 0.49366Z" fill="#0091D7"/>
</svg>
