<svg width="81" height="87" viewBox="0 0 81 87" fill="none" xmlns="http://www.w3.org/2000/svg">
<path d="M47.0456 60.6222C48.9562 61.7782 51.1371 62.4048 53.3837 62.4048C58.6325 62.4048 62.8875 57.8945 62.8875 52.3308C62.8875 48.4864 60.8234 44.9774 57.567 43.2852C53.9385 41.3998 51.5502 37.5879 51.3178 33.3114L50.1599 11.9982C49.8648 6.57186 45.6275 2.33154 40.4998 2.33154C35.3721 2.33154 31.1348 6.57186 30.8401 11.9982L29.682 33.3114C29.4497 37.5879 27.0613 41.3996 23.4328 43.2852C20.1762 44.9772 18.1123 48.4864 18.1123 52.3308C18.1123 57.8945 22.3673 62.4048 27.6161 62.4048C29.8543 62.4048 32.0272 61.7829 33.9327 60.6352" stroke="#0C0B0B" stroke-width="2" stroke-miterlimit="10" stroke-linecap="round" stroke-linejoin="round"/>
<path d="M52.539 55.9355C50.4416 55.9355 48.5376 57.2452 47.6941 59.2807C46.4789 62.2127 43.7152 64.2604 40.5002 64.2604C37.2852 64.2604 34.5216 62.2127 33.3064 59.2807C32.4628 57.2452 30.5588 55.9355 28.4614 55.9355" stroke="#0C0B0B" stroke-width="2" stroke-miterlimit="10" stroke-linecap="round" stroke-linejoin="round"/>
<path d="M18.8992 78.8074L16.3809 84.6678" stroke="#0C0B0B" stroke-width="2" stroke-miterlimit="10" stroke-linecap="round" stroke-linejoin="round"/>
<path d="M22.7653 69.811L21.9443 71.7215" stroke="#0C0B0B" stroke-width="2" stroke-miterlimit="10" stroke-linecap="round" stroke-linejoin="round"/>
<path d="M62.1006 78.8074L64.6189 84.6678" stroke="#0C0B0B" stroke-width="2" stroke-miterlimit="10" stroke-linecap="round" stroke-linejoin="round"/>
<path d="M58.2349 69.811L59.0558 71.7215" stroke="#0C0B0B" stroke-width="2" stroke-miterlimit="10" stroke-linecap="round" stroke-linejoin="round"/>
<path d="M59.1118 32.9702C62.0711 29.8334 62.0711 24.7477 59.1118 21.6108" stroke="#0C0B0B" stroke-width="2" stroke-miterlimit="10" stroke-linecap="round" stroke-linejoin="round"/>
<path d="M63.7305 37.8662C69.2407 32.0254 69.2407 22.5555 63.7305 16.7148" stroke="#0C0B0B" stroke-width="2" stroke-miterlimit="10" stroke-linecap="round" stroke-linejoin="round"/>
<path d="M21.8884 32.9702C18.9291 29.8334 18.9291 24.7477 21.8884 21.6108" stroke="#0C0B0B" stroke-width="2" stroke-miterlimit="10" stroke-linecap="round" stroke-linejoin="round"/>
<path d="M17.2694 37.8662C11.7592 32.0254 11.7592 22.5555 17.2694 16.7148" stroke="#0C0B0B" stroke-width="2" stroke-miterlimit="10" stroke-linecap="round" stroke-linejoin="round"/>
<path d="M31.1449 80.6733L30.7417 84.668" stroke="#0C0B0B" stroke-width="2" stroke-miterlimit="10" stroke-linecap="round" stroke-linejoin="round"/>
<path d="M32.2366 69.8582L32.0498 71.7077" stroke="#0C0B0B" stroke-width="2" stroke-miterlimit="10" stroke-linecap="round" stroke-linejoin="round"/>
<path d="M49.9624 81.7378L50.2583 84.6679" stroke="#0C0B0B" stroke-width="2" stroke-miterlimit="10" stroke-linecap="round" stroke-linejoin="round"/>
<path d="M48.6392 68.6294L49.3458 75.631" stroke="#0C0B0B" stroke-width="2" stroke-miterlimit="10" stroke-linecap="round" stroke-linejoin="round"/>
</svg>
