<svg width="155" height="28" viewBox="0 0 155 28" fill="none" xmlns="http://www.w3.org/2000/svg">
<path opacity="0.8" d="M151.752 12.6276C151.483 12.8078 151.271 13.0218 151.125 13.2572C150.98 13.4927 150.905 13.7451 150.905 14C150.905 14.2549 150.98 14.5073 151.125 14.7428C151.271 14.9782 151.483 15.1922 151.752 15.3724L153.653 16.6478C153.921 16.8279 154.134 17.0417 154.279 17.2771C154.424 17.5124 154.499 17.7647 154.499 18.0195C154.499 18.2742 154.424 18.5265 154.279 18.7618C154.134 18.9972 153.921 19.211 153.653 19.3911L151.752 20.6681C151.484 20.8481 151.271 21.062 151.126 21.2973C150.98 21.5327 150.906 21.7849 150.906 22.0397C150.906 22.2945 150.98 22.5467 151.126 22.7821C151.271 23.0174 151.484 23.2313 151.752 23.4114L153.653 24.6883C154.056 24.9597 154.33 25.3053 154.441 25.6814C154.553 26.0575 154.495 26.4472 154.277 26.8015C154.059 27.1558 153.689 27.4587 153.215 27.672C152.74 27.8853 152.183 27.9994 151.612 28L3.38811 28C2.81682 28.0001 2.25829 27.8864 1.78325 27.6733C1.30821 27.4601 0.937988 27.157 0.719483 26.8024C0.500977 26.4479 0.444016 26.0577 0.555771 25.6814C0.667526 25.305 0.942963 24.9594 1.34728 24.6883L3.24593 23.4114C3.51418 23.2313 3.72697 23.0174 3.87216 22.7821C4.01735 22.5467 4.09209 22.2945 4.09209 22.0397C4.09209 21.7849 4.01735 21.5327 3.87216 21.2973C3.72698 21.062 3.51418 20.8481 3.24593 20.668L1.34728 19.3911C1.07903 19.211 0.866242 18.9972 0.721055 18.7618C0.575868 18.5265 0.50113 18.2742 0.50113 18.0195C0.50113 17.7647 0.575868 17.5124 0.721055 17.2771C0.866242 17.0417 1.07903 16.8279 1.34728 16.6478L3.24593 15.3724C3.51425 15.1922 3.72711 14.9782 3.87233 14.7427C4.01755 14.5073 4.09229 14.2549 4.09229 14C4.09229 13.7451 4.01755 13.4927 3.87233 13.2572C3.72711 13.0217 3.51425 12.8078 3.24593 12.6276L1.34728 11.3522C1.07903 11.1721 0.866243 10.9582 0.721056 10.7229C0.575868 10.4875 0.501131 10.2353 0.501131 9.98051C0.501131 9.72575 0.575868 9.47348 0.721056 9.23813C0.866243 9.00278 1.07903 8.78894 1.34728 8.60885L3.24593 7.33192C3.51418 7.15183 3.72698 6.938 3.87216 6.70264C4.01735 6.46729 4.09209 6.21503 4.09209 5.96027C4.09209 5.70551 4.01735 5.45325 3.87216 5.21789C3.72698 4.98254 3.51418 4.7687 3.24593 4.58861L1.34728 3.31168C0.944094 3.04027 0.669634 2.69471 0.55852 2.31862C0.447405 1.94252 0.50458 1.55275 0.722903 1.19847C0.941226 0.844196 1.31087 0.541306 1.7852 0.328007C2.25954 0.114708 2.81731 0.000566573 3.38811 -1.32106e-05L151.612 -2.52487e-07C152.183 -0.000154698 152.742 0.113552 153.217 0.326727C153.692 0.539902 154.062 0.842962 154.28 1.19754C154.499 1.55212 154.556 1.94227 154.444 2.31861C154.332 2.69496 154.057 3.04057 153.653 3.3117L151.752 4.58862C151.484 4.76871 151.271 4.98255 151.126 5.2179C150.98 5.45326 150.906 5.70552 150.906 5.96028C150.906 6.21504 150.98 6.4673 151.126 6.70266C151.271 6.93801 151.484 7.15185 151.752 7.33194L153.653 8.60887C153.921 8.78896 154.134 9.00279 154.279 9.23814C154.424 9.4735 154.499 9.72576 154.499 9.98052C154.499 10.2353 154.424 10.4875 154.279 10.7229C154.134 10.9583 153.921 11.1721 153.653 11.3522L151.752 12.6276Z" fill="#0DA802"/>
</svg>
