<svg width="16" height="16" viewBox="0 0 16 16" fill="none" xmlns="http://www.w3.org/2000/svg">
<path d="M8 16C12.4183 16 16 12.4183 16 8C16 3.58172 12.4183 0 8 0C3.58172 0 0 3.58172 0 8C0 12.4183 3.58172 16 8 16Z" fill="#0091D7"/>
<path d="M7.3333 11.0523H8.6667V12.3856H7.3333V11.0523ZM6 4.98693C6 4.71678 6.0523 4.4597 6.1569 4.21569C6.2614 3.97168 6.4052 3.76253 6.5882 3.58824C6.7712 3.40523 6.9847 3.26144 7.2288 3.15686C7.4728 3.05229 7.7342 3 8.0131 3C8.3355 3 8.6275 3.06536 8.8889 3.19608C9.159 3.3268 9.3813 3.5098 9.5556 3.7451C9.6427 3.8671 9.7124 3.98039 9.7647 4.08497C9.8257 4.18954 9.8736 4.30283 9.9085 4.42484C9.9434 4.53813 9.9651 4.66885 9.9739 4.81699C9.9913 4.96514 10 5.13943 10 5.33987C10 5.56645 9.9956 5.75817 9.9869 5.91503C9.9869 6.0632 9.9782 6.1939 9.9608 6.3072C9.9434 6.4205 9.9216 6.5207 9.8954 6.6078C9.8693 6.6863 9.8344 6.7603 9.7908 6.8301L8.8889 8.3725C8.8279 8.4771 8.7756 8.5861 8.732 8.6993C8.6885 8.8039 8.6667 8.9172 8.6667 9.0392V10.085H7.3333V8.8693C7.3333 8.6776 7.3638 8.4946 7.4248 8.3203C7.4858 8.146 7.5643 7.976 7.6601 7.8105L8.4967 6.451C8.5664 6.3377 8.61 6.2157 8.6275 6.085C8.6536 5.95425 8.6667 5.82353 8.6667 5.69281V5C8.6667 4.81699 8.6013 4.66013 8.4706 4.52941C8.3486 4.39869 8.1961 4.33333 8.0131 4.33333C7.8562 4.33333 7.7037 4.38998 7.5556 4.50327C7.4074 4.61656 7.3333 4.78214 7.3333 5V5.75817H6V4.98693Z" fill="white"/>
</svg>
