<svg width="24" height="24" viewBox="0 0 24 24" fill="none" xmlns="http://www.w3.org/2000/svg">
<path d="M16.8402 9.49366L16.5126 9.16382C16.4095 9.06081 16.2724 9.00407 16.1258 9.00407C15.9793 9.00407 15.8419 9.06081 15.7389 9.16382L12.0022 12.9006L8.26131 9.15968C8.15838 9.05667 8.02107 9 7.87456 9C7.72805 9 7.59066 9.05667 7.48765 9.15968L7.16 9.48748C6.94667 9.70066 6.94667 10.0479 7.16 10.2611L11.614 14.7311C11.7169 14.834 11.8541 14.9066 12.0019 14.9066H12.0036C12.1502 14.9066 12.2874 14.8339 12.3903 14.7311L16.8402 10.2732C16.9433 10.1703 16.9998 10.029 17 9.88245C17 9.73586 16.9433 9.59651 16.8402 9.49366Z" fill="#0191D7"/>
</svg>
