<svg width="16" height="16" viewBox="0 0 16 16" fill="none" xmlns="http://www.w3.org/2000/svg">
<path fill-rule="evenodd" clip-rule="evenodd" d="M8.00033 0.666626C3.95033 0.666626 0.666992 3.94996 0.666992 7.99996C0.666992 12.05 3.95033 15.3333 8.00033 15.3333C12.0503 15.3333 15.3337 12.05 15.3337 7.99996C15.3337 3.94996 12.0503 0.666626 8.00033 0.666626ZM11.179 6.75996C11.2375 6.69305 11.2821 6.61512 11.31 6.53074C11.338 6.44636 11.3488 6.35723 11.3418 6.26862C11.3349 6.18 11.3102 6.09367 11.2694 6.01471C11.2285 5.93575 11.1723 5.86576 11.104 5.80885C11.0357 5.75194 10.9568 5.70927 10.8717 5.68333C10.7867 5.6574 10.6973 5.64873 10.6089 5.65784C10.5205 5.66695 10.4348 5.69366 10.3568 5.73638C10.2789 5.77911 10.2102 5.83699 10.155 5.90663L7.28833 9.34596L5.80499 7.86196C5.67926 7.74052 5.51086 7.67332 5.33606 7.67484C5.16126 7.67636 4.99405 7.74647 4.87045 7.87008C4.74684 7.99369 4.67673 8.16089 4.67521 8.33569C4.67369 8.51049 4.74089 8.67889 4.86233 8.80463L6.86233 10.8046C6.92783 10.8701 7.00625 10.9212 7.0926 10.9547C7.17895 10.9881 7.27132 11.0033 7.36384 10.9991C7.45635 10.9949 7.54698 10.9714 7.62993 10.9303C7.71289 10.8891 7.78636 10.8311 7.84566 10.76L11.179 6.75996Z" fill="#34A853"/>
</svg>
