<svg width="339" height="89" viewBox="0 0 339 89" fill="none" xmlns="http://www.w3.org/2000/svg">
<path d="M339 3V89H4V28.5L31 3H339Z" fill="#DA3269"/>
<g filter="url(#filter0_d)">
<path d="M4 28.5L31 3V28.5H4Z" fill="#A7034F"/>
</g>
<path d="M58.3478 33.74C59.1745 33.98 59.8078 34.4 60.2478 35C60.7011 35.5867 60.9278 36.3067 60.9278 37.16C60.9278 37.9733 60.7145 38.68 60.2878 39.28C59.8745 39.88 59.2745 40.3467 58.4878 40.68C57.7011 41 56.7878 41.16 55.7478 41.16C54.8811 41.16 54.0478 41.0333 53.2478 40.78C52.4611 40.5267 51.7811 40.1733 51.2078 39.72C51.0078 39.5733 50.8611 39.4133 50.7678 39.24C50.6878 39.0667 50.6478 38.8667 50.6478 38.64C50.6478 38.2933 50.7478 38 50.9478 37.76C51.1478 37.5067 51.3878 37.38 51.6678 37.38C51.8278 37.38 51.9745 37.4067 52.1078 37.46C52.2411 37.5 52.4078 37.58 52.6078 37.7C53.1945 38.0333 53.7011 38.2867 54.1278 38.46C54.5545 38.6333 55.0545 38.72 55.6278 38.72C56.4411 38.72 57.0345 38.5733 57.4078 38.28C57.7811 37.9733 57.9678 37.5 57.9678 36.86C57.9678 36.2333 57.7745 35.78 57.3878 35.5C57.0011 35.22 56.3811 35.08 55.5278 35.08H54.3478C54.0011 35.08 53.7278 34.96 53.5278 34.72C53.3278 34.48 53.2278 34.1933 53.2278 33.86C53.2278 33.54 53.3278 33.26 53.5278 33.02C53.7278 32.78 54.0011 32.66 54.3478 32.66H55.1878C56.0011 32.66 56.6011 32.52 56.9878 32.24C57.3878 31.96 57.5878 31.5267 57.5878 30.94C57.5878 30.38 57.4211 29.9467 57.0878 29.64C56.7545 29.32 56.2878 29.16 55.6878 29.16C55.1945 29.16 54.7345 29.2467 54.3078 29.42C53.8811 29.5933 53.3878 29.8467 52.8278 30.18C52.6278 30.3 52.4611 30.3867 52.3278 30.44C52.1945 30.48 52.0478 30.5 51.8878 30.5C51.6078 30.5 51.3678 30.38 51.1678 30.14C50.9678 29.8867 50.8678 29.5867 50.8678 29.24C50.8678 29 50.9078 28.8 50.9878 28.64C51.0811 28.4667 51.2278 28.3067 51.4278 28.16C51.9878 27.7067 52.6545 27.3533 53.4278 27.1C54.2145 26.8467 55.0145 26.72 55.8278 26.72C56.7745 26.72 57.6078 26.88 58.3278 27.2C59.0478 27.5067 59.6011 27.9467 59.9878 28.52C60.3745 29.0933 60.5678 29.76 60.5678 30.52C60.5678 31.28 60.3678 31.9467 59.9678 32.52C59.5811 33.08 59.0411 33.4867 58.3478 33.74ZM68 41.18C66.2933 41.18 64.9867 40.56 64.08 39.32C63.1867 38.08 62.74 36.2867 62.74 33.94C62.74 31.6067 63.1867 29.82 64.08 28.58C64.9867 27.34 66.2933 26.72 68 26.72C69.7067 26.72 71.0067 27.34 71.9 28.58C72.8067 29.82 73.26 31.6067 73.26 33.94C73.26 36.2867 72.8067 38.08 71.9 39.32C71.0067 40.56 69.7067 41.18 68 41.18ZM68 38.8C68.7733 38.8 69.3333 38.4133 69.68 37.64C70.04 36.8667 70.22 35.6333 70.22 33.94C70.22 32.2333 70.04 31 69.68 30.24C69.3333 29.48 68.7733 29.1 68 29.1C67.2267 29.1 66.66 29.4867 66.3 30.26C65.9533 31.02 65.78 32.2467 65.78 33.94C65.78 35.6333 65.9533 36.8667 66.3 37.64C66.66 38.4133 67.2267 38.8 68 38.8ZM82.4381 41C81.9715 41 81.6115 40.8733 81.3581 40.62C81.1048 40.3667 80.9781 40.0067 80.9781 39.54V28.36C80.9781 27.8933 81.1048 27.5333 81.3581 27.28C81.6115 27.0267 81.9715 26.9 82.4381 26.9H86.4581C87.9915 26.9 89.3115 27.18 90.4181 27.74C91.5248 28.3 92.3715 29.1067 92.9581 30.16C93.5448 31.2133 93.8381 32.4733 93.8381 33.94C93.8381 35.4067 93.5448 36.6733 92.9581 37.74C92.3848 38.7933 91.5448 39.6 90.4381 40.16C89.3315 40.72 88.0048 41 86.4581 41H82.4381ZM86.2381 38.48C89.2381 38.48 90.7381 36.9667 90.7381 33.94C90.7381 30.9267 89.2381 29.42 86.2381 29.42H84.0981V38.48H86.2381ZM108.981 39.1C109.088 39.34 109.141 39.5533 109.141 39.74C109.141 40.1133 108.988 40.4333 108.681 40.7C108.388 40.9533 108.048 41.08 107.661 41.08C107.408 41.08 107.168 41.0133 106.941 40.88C106.715 40.7333 106.541 40.52 106.421 40.24L105.361 37.88H98.5814L97.5214 40.24C97.4014 40.52 97.2281 40.7333 97.0014 40.88C96.7881 41.0133 96.5481 41.08 96.2814 41.08C95.8947 41.08 95.5481 40.9533 95.2414 40.7C94.9347 40.4333 94.7814 40.1133 94.7814 39.74C94.7814 39.5533 94.8347 39.34 94.9414 39.1L100.341 27.76C100.488 27.44 100.708 27.2 101.001 27.04C101.295 26.8667 101.608 26.78 101.941 26.78C102.288 26.78 102.608 26.8667 102.901 27.04C103.195 27.2133 103.421 27.4533 103.581 27.76L108.981 39.1ZM99.6414 35.52H104.301L101.981 30.32L99.6414 35.52ZM117.942 27.3C118.235 26.9533 118.582 26.78 118.982 26.78C119.355 26.78 119.688 26.9267 119.982 27.22C120.288 27.5 120.442 27.8267 120.442 28.2C120.442 28.5333 120.315 28.8467 120.062 29.14L115.682 34.34V39.56C115.682 40.0667 115.535 40.4533 115.242 40.72C114.948 40.9867 114.582 41.12 114.142 41.12C113.675 41.12 113.295 40.9867 113.002 40.72C112.708 40.4533 112.562 40.0667 112.562 39.56V34.34L108.222 29.14C107.968 28.8733 107.842 28.56 107.842 28.2C107.842 27.8267 107.982 27.5 108.262 27.22C108.555 26.9267 108.888 26.78 109.262 26.78C109.662 26.78 110.008 26.9533 110.302 27.3L114.122 31.96L117.942 27.3ZM126.566 41.18C125.513 41.18 124.533 41.06 123.626 40.82C122.719 40.5667 121.979 40.2133 121.406 39.76C121.206 39.6133 121.059 39.46 120.966 39.3C120.886 39.1267 120.846 38.9133 120.846 38.66C120.846 38.3267 120.946 38.0333 121.146 37.78C121.359 37.5267 121.599 37.4 121.866 37.4C122.013 37.4 122.153 37.4267 122.286 37.48C122.433 37.52 122.606 37.6 122.806 37.72C123.379 38.08 123.959 38.3467 124.546 38.52C125.133 38.68 125.779 38.76 126.486 38.76C127.366 38.76 128.039 38.6133 128.506 38.32C128.973 38.0267 129.206 37.6067 129.206 37.06C129.206 36.6467 128.986 36.3133 128.546 36.06C128.119 35.8067 127.353 35.5667 126.246 35.34C125.006 35.0867 124.013 34.78 123.266 34.42C122.533 34.06 121.993 33.6133 121.646 33.08C121.313 32.5467 121.146 31.9 121.146 31.14C121.146 30.3 121.386 29.5467 121.866 28.88C122.359 28.2 123.033 27.6733 123.886 27.3C124.753 26.9133 125.726 26.72 126.806 26.72C128.699 26.72 130.259 27.1933 131.486 28.14C131.686 28.3 131.826 28.4667 131.906 28.64C131.999 28.8 132.046 29 132.046 29.24C132.046 29.5733 131.939 29.8667 131.726 30.12C131.526 30.3733 131.293 30.5 131.026 30.5C130.879 30.5 130.739 30.48 130.606 30.44C130.486 30.4 130.313 30.3133 130.086 30.18C129.539 29.8333 129.033 29.5733 128.566 29.4C128.113 29.2267 127.533 29.14 126.826 29.14C126.013 29.14 125.373 29.3 124.906 29.62C124.439 29.9267 124.206 30.3533 124.206 30.9C124.206 31.22 124.293 31.4867 124.466 31.7C124.653 31.9 124.953 32.08 125.366 32.24C125.793 32.4 126.393 32.5667 127.166 32.74C128.979 33.14 130.279 33.6533 131.066 34.28C131.866 34.9067 132.266 35.7667 132.266 36.86C132.266 37.7133 132.026 38.4667 131.546 39.12C131.079 39.7733 130.413 40.28 129.546 40.64C128.693 41 127.699 41.18 126.566 41.18ZM141.659 41.12C141.193 41.12 140.813 40.98 140.519 40.7C140.239 40.4067 140.099 40.0267 140.099 39.56V28.36C140.099 27.8933 140.226 27.5333 140.479 27.28C140.733 27.0267 141.093 26.9 141.559 26.9H148.439C148.946 26.9 149.319 27 149.559 27.2C149.799 27.4 149.919 27.7133 149.919 28.14C149.919 28.5533 149.799 28.86 149.559 29.06C149.319 29.26 148.946 29.36 148.439 29.36H143.179V32.6H148.039C148.546 32.6 148.919 32.7 149.159 32.9C149.399 33.1 149.519 33.4133 149.519 33.84C149.519 34.2533 149.399 34.56 149.159 34.76C148.919 34.96 148.546 35.06 148.039 35.06H143.179V39.56C143.179 40.04 143.039 40.42 142.759 40.7C142.493 40.98 142.126 41.12 141.659 41.12ZM163.105 39.02C163.305 39.3133 163.405 39.6 163.405 39.88C163.405 40.2533 163.251 40.56 162.945 40.8C162.651 41.04 162.305 41.16 161.905 41.16C161.651 41.16 161.405 41.1 161.165 40.98C160.925 40.86 160.725 40.6733 160.565 40.42L157.925 36.5C157.698 36.1533 157.458 35.9067 157.205 35.76C156.951 35.6 156.631 35.52 156.245 35.52H154.625V39.56C154.625 40.04 154.485 40.42 154.205 40.7C153.938 40.98 153.571 41.12 153.105 41.12C152.625 41.12 152.245 40.98 151.965 40.7C151.685 40.42 151.545 40.04 151.545 39.56V28.36C151.545 27.8933 151.671 27.5333 151.925 27.28C152.178 27.0267 152.538 26.9 153.005 26.9H158.025C159.678 26.9 160.925 27.2667 161.765 28C162.618 28.72 163.045 29.7667 163.045 31.14C163.045 32.22 162.745 33.12 162.145 33.84C161.545 34.56 160.698 35.0333 159.605 35.26C160.005 35.34 160.358 35.5 160.665 35.74C160.985 35.9667 161.291 36.3 161.585 36.74L163.105 39.02ZM157.565 33.16C158.458 33.16 159.105 33.0067 159.505 32.7C159.905 32.38 160.105 31.8867 160.105 31.22C160.105 30.54 159.905 30.0467 159.505 29.74C159.105 29.4333 158.458 29.28 157.565 29.28H154.585V33.16H157.565ZM167.028 41C166.561 41 166.201 40.8733 165.948 40.62C165.695 40.3667 165.568 40.0067 165.568 39.54V28.36C165.568 27.8933 165.695 27.5333 165.948 27.28C166.201 27.0267 166.561 26.9 167.028 26.9H174.108C175.095 26.9 175.588 27.3 175.588 28.1C175.588 28.9133 175.095 29.32 174.108 29.32H168.608V32.62H173.708C174.695 32.62 175.188 33.0267 175.188 33.84C175.188 34.64 174.695 35.04 173.708 35.04H168.608V38.58H174.108C175.095 38.58 175.588 38.9867 175.588 39.8C175.588 40.6 175.095 41 174.108 41H167.028ZM178.883 41C178.417 41 178.057 40.8733 177.803 40.62C177.55 40.3667 177.423 40.0067 177.423 39.54V28.36C177.423 27.8933 177.55 27.5333 177.803 27.28C178.057 27.0267 178.417 26.9 178.883 26.9H185.963C186.95 26.9 187.443 27.3 187.443 28.1C187.443 28.9133 186.95 29.32 185.963 29.32H180.463V32.62H185.563C186.55 32.62 187.043 33.0267 187.043 33.84C187.043 34.64 186.55 35.04 185.563 35.04H180.463V38.58H185.963C186.95 38.58 187.443 38.9867 187.443 39.8C187.443 40.6 186.95 41 185.963 41H178.883ZM206.425 39.02C206.625 39.3133 206.725 39.6 206.725 39.88C206.725 40.2533 206.572 40.56 206.265 40.8C205.972 41.04 205.625 41.16 205.225 41.16C204.972 41.16 204.725 41.1 204.485 40.98C204.245 40.86 204.045 40.6733 203.885 40.42L201.245 36.5C201.018 36.1533 200.778 35.9067 200.525 35.76C200.272 35.6 199.952 35.52 199.565 35.52H197.945V39.56C197.945 40.04 197.805 40.42 197.525 40.7C197.258 40.98 196.892 41.12 196.425 41.12C195.945 41.12 195.565 40.98 195.285 40.7C195.005 40.42 194.865 40.04 194.865 39.56V28.36C194.865 27.8933 194.992 27.5333 195.245 27.28C195.498 27.0267 195.858 26.9 196.325 26.9H201.345C202.998 26.9 204.245 27.2667 205.085 28C205.938 28.72 206.365 29.7667 206.365 31.14C206.365 32.22 206.065 33.12 205.465 33.84C204.865 34.56 204.018 35.0333 202.925 35.26C203.325 35.34 203.678 35.5 203.985 35.74C204.305 35.9667 204.612 36.3 204.905 36.74L206.425 39.02ZM200.885 33.16C201.778 33.16 202.425 33.0067 202.825 32.7C203.225 32.38 203.425 31.8867 203.425 31.22C203.425 30.54 203.225 30.0467 202.825 29.74C202.425 29.4333 201.778 29.28 200.885 29.28H197.905V33.16H200.885ZM210.348 41C209.882 41 209.522 40.8733 209.268 40.62C209.015 40.3667 208.888 40.0067 208.888 39.54V28.36C208.888 27.8933 209.015 27.5333 209.268 27.28C209.522 27.0267 209.882 26.9 210.348 26.9H217.428C218.415 26.9 218.908 27.3 218.908 28.1C218.908 28.9133 218.415 29.32 217.428 29.32H211.928V32.62H217.028C218.015 32.62 218.508 33.0267 218.508 33.84C218.508 34.64 218.015 35.04 217.028 35.04H211.928V38.58H217.428C218.415 38.58 218.908 38.9867 218.908 39.8C218.908 40.6 218.415 41 217.428 41H210.348ZM225.74 41.1C225.273 41.1 224.893 40.96 224.6 40.68C224.32 40.4 224.18 40.0267 224.18 39.56V29.44H220.94C219.953 29.44 219.46 29.0133 219.46 28.16C219.46 27.32 219.953 26.9 220.94 26.9H230.54C231.526 26.9 232.02 27.32 232.02 28.16C232.02 29.0133 231.526 29.44 230.54 29.44H227.3V39.56C227.3 40.0267 227.16 40.4 226.88 40.68C226.6 40.96 226.22 41.1 225.74 41.1ZM239.341 41.18C237.368 41.18 235.861 40.6733 234.821 39.66C233.794 38.6333 233.281 37.14 233.281 35.18V28.34C233.281 27.8733 233.421 27.5 233.701 27.22C233.981 26.94 234.354 26.8 234.821 26.8C235.288 26.8 235.654 26.94 235.921 27.22C236.201 27.5 236.341 27.8733 236.341 28.34V35.32C236.341 36.44 236.594 37.2933 237.101 37.88C237.621 38.4667 238.368 38.76 239.341 38.76C240.314 38.76 241.061 38.4667 241.581 37.88C242.101 37.28 242.361 36.4267 242.361 35.32V28.34C242.361 27.8733 242.494 27.5 242.761 27.22C243.041 26.94 243.414 26.8 243.881 26.8C244.348 26.8 244.721 26.94 245.001 27.22C245.281 27.5 245.421 27.8733 245.421 28.34V35.18C245.421 37.1267 244.901 38.6133 243.861 39.64C242.821 40.6667 241.314 41.18 239.341 41.18ZM259.706 39.02C259.906 39.3133 260.006 39.6 260.006 39.88C260.006 40.2533 259.853 40.56 259.546 40.8C259.253 41.04 258.906 41.16 258.506 41.16C258.253 41.16 258.006 41.1 257.766 40.98C257.526 40.86 257.326 40.6733 257.166 40.42L254.526 36.5C254.299 36.1533 254.059 35.9067 253.806 35.76C253.553 35.6 253.233 35.52 252.846 35.52H251.226V39.56C251.226 40.04 251.086 40.42 250.806 40.7C250.539 40.98 250.173 41.12 249.706 41.12C249.226 41.12 248.846 40.98 248.566 40.7C248.286 40.42 248.146 40.04 248.146 39.56V28.36C248.146 27.8933 248.273 27.5333 248.526 27.28C248.779 27.0267 249.139 26.9 249.606 26.9H254.626C256.279 26.9 257.526 27.2667 258.366 28C259.219 28.72 259.646 29.7667 259.646 31.14C259.646 32.22 259.346 33.12 258.746 33.84C258.146 34.56 257.299 35.0333 256.206 35.26C256.606 35.34 256.959 35.5 257.266 35.74C257.586 35.9667 257.893 36.3 258.186 36.74L259.706 39.02ZM254.166 33.16C255.059 33.16 255.706 33.0067 256.106 32.7C256.506 32.38 256.706 31.8867 256.706 31.22C256.706 30.54 256.506 30.0467 256.106 29.74C255.706 29.4333 255.059 29.28 254.166 29.28H251.186V33.16H254.166ZM272.93 26.8C273.37 26.8 273.723 26.9467 273.99 27.24C274.27 27.52 274.41 27.8867 274.41 28.34V39.56C274.41 40.0267 274.27 40.4067 273.99 40.7C273.723 40.98 273.37 41.12 272.93 41.12C272.45 41.12 272.063 40.9467 271.77 40.6L265.07 32.02V39.56C265.07 40.0267 264.936 40.4067 264.67 40.7C264.416 40.98 264.07 41.12 263.63 41.12C263.19 41.12 262.836 40.98 262.57 40.7C262.303 40.4067 262.17 40.0267 262.17 39.56V28.34C262.17 27.8867 262.303 27.52 262.57 27.24C262.85 26.9467 263.21 26.8 263.65 26.8C264.143 26.8 264.523 26.9733 264.79 27.32L271.49 35.84V28.34C271.49 27.8867 271.623 27.52 271.89 27.24C272.156 26.9467 272.503 26.8 272.93 26.8ZM282.289 41.18C281.235 41.18 280.255 41.06 279.349 40.82C278.442 40.5667 277.702 40.2133 277.129 39.76C276.929 39.6133 276.782 39.46 276.689 39.3C276.609 39.1267 276.569 38.9133 276.569 38.66C276.569 38.3267 276.669 38.0333 276.869 37.78C277.082 37.5267 277.322 37.4 277.589 37.4C277.735 37.4 277.875 37.4267 278.009 37.48C278.155 37.52 278.329 37.6 278.529 37.72C279.102 38.08 279.682 38.3467 280.269 38.52C280.855 38.68 281.502 38.76 282.209 38.76C283.089 38.76 283.762 38.6133 284.229 38.32C284.695 38.0267 284.929 37.6067 284.929 37.06C284.929 36.6467 284.709 36.3133 284.269 36.06C283.842 35.8067 283.075 35.5667 281.969 35.34C280.729 35.0867 279.735 34.78 278.989 34.42C278.255 34.06 277.715 33.6133 277.369 33.08C277.035 32.5467 276.869 31.9 276.869 31.14C276.869 30.3 277.109 29.5467 277.589 28.88C278.082 28.2 278.755 27.6733 279.609 27.3C280.475 26.9133 281.449 26.72 282.529 26.72C284.422 26.72 285.982 27.1933 287.209 28.14C287.409 28.3 287.549 28.4667 287.629 28.64C287.722 28.8 287.769 29 287.769 29.24C287.769 29.5733 287.662 29.8667 287.449 30.12C287.249 30.3733 287.015 30.5 286.749 30.5C286.602 30.5 286.462 30.48 286.329 30.44C286.209 30.4 286.035 30.3133 285.809 30.18C285.262 29.8333 284.755 29.5733 284.289 29.4C283.835 29.2267 283.255 29.14 282.549 29.14C281.735 29.14 281.095 29.3 280.629 29.62C280.162 29.9267 279.929 30.3533 279.929 30.9C279.929 31.22 280.015 31.4867 280.189 31.7C280.375 31.9 280.675 32.08 281.089 32.24C281.515 32.4 282.115 32.5667 282.889 32.74C284.702 33.14 286.002 33.6533 286.789 34.28C287.589 34.9067 287.989 35.7667 287.989 36.86C287.989 37.7133 287.749 38.4667 287.269 39.12C286.802 39.7733 286.135 40.28 285.269 40.64C284.415 41 283.422 41.18 282.289 41.18ZM100.989 63.08C100.797 63.08 100.637 63.0267 100.509 62.92C100.391 62.8027 100.333 62.6427 100.333 62.44V55.688C100.333 55.4853 100.391 55.3307 100.509 55.224C100.637 55.1067 100.797 55.048 100.989 55.048C101.181 55.048 101.335 55.1067 101.453 55.224C101.57 55.3307 101.629 55.4853 101.629 55.688V62.44C101.629 62.6533 101.57 62.8133 101.453 62.92C101.335 63.0267 101.181 63.08 100.989 63.08ZM100.989 53.368C100.733 53.368 100.525 53.2933 100.365 53.144C100.205 52.9947 100.125 52.7973 100.125 52.552C100.125 52.3173 100.205 52.1253 100.365 51.976C100.525 51.8267 100.733 51.752 100.989 51.752C101.245 51.752 101.453 51.8267 101.613 51.976C101.773 52.1253 101.853 52.3173 101.853 52.552C101.853 52.7973 101.773 52.9947 101.613 53.144C101.453 53.2933 101.245 53.368 100.989 53.368ZM107.492 52.744C106.926 52.7867 106.5 52.968 106.212 53.288C105.924 53.5973 105.78 54.0667 105.78 54.696V55.208H107.556C107.737 55.208 107.876 55.256 107.972 55.352C108.068 55.448 108.116 55.576 108.116 55.736C108.116 55.896 108.068 56.0187 107.972 56.104C107.876 56.1893 107.737 56.232 107.556 56.232H105.78V62.44C105.78 62.6427 105.716 62.8027 105.588 62.92C105.47 63.0267 105.321 63.08 105.14 63.08C104.948 63.08 104.788 63.0267 104.66 62.92C104.542 62.8027 104.484 62.6427 104.484 62.44V56.232H103.412C103.23 56.232 103.086 56.1893 102.98 56.104C102.884 56.008 102.836 55.8853 102.836 55.736C102.836 55.576 102.884 55.448 102.98 55.352C103.086 55.256 103.23 55.208 103.412 55.208H104.484V54.92C104.484 53.96 104.724 53.208 105.204 52.664C105.684 52.1093 106.372 51.8 107.268 51.736L107.684 51.704C107.961 51.6827 108.158 51.7093 108.276 51.784C108.404 51.8587 108.468 51.992 108.468 52.184C108.468 52.4933 108.281 52.6693 107.908 52.712L107.492 52.744ZM116.051 63.112C115.56 63.112 115.091 63.0533 114.643 62.936C114.205 62.8187 113.816 62.6533 113.475 62.44C113.283 62.312 113.144 62.1947 113.059 62.088C112.984 61.9707 112.947 61.832 112.947 61.672C112.947 61.5333 112.984 61.4213 113.059 61.336C113.144 61.24 113.251 61.192 113.379 61.192C113.507 61.192 113.693 61.272 113.939 61.432C114.259 61.624 114.573 61.7787 114.883 61.896C115.203 62.0027 115.597 62.056 116.067 62.056C116.643 62.056 117.091 61.9547 117.411 61.752C117.731 61.5493 117.891 61.256 117.891 60.872C117.891 60.6373 117.832 60.4507 117.715 60.312C117.597 60.1627 117.395 60.0347 117.107 59.928C116.819 59.8107 116.397 59.6933 115.843 59.576C114.904 59.3733 114.232 59.1013 113.827 58.76C113.421 58.4187 113.219 57.9547 113.219 57.368C113.219 56.9093 113.347 56.504 113.603 56.152C113.859 55.8 114.211 55.5227 114.659 55.32C115.117 55.1173 115.635 55.016 116.211 55.016C116.627 55.016 117.027 55.0747 117.411 55.192C117.805 55.2987 118.152 55.4533 118.451 55.656C118.813 55.912 118.995 56.1787 118.995 56.456C118.995 56.5947 118.952 56.712 118.867 56.808C118.781 56.904 118.68 56.952 118.563 56.952C118.435 56.952 118.243 56.8613 117.987 56.68C117.688 56.488 117.405 56.3387 117.139 56.232C116.872 56.1253 116.541 56.072 116.147 56.072C115.645 56.072 115.24 56.184 114.931 56.408C114.632 56.632 114.483 56.9307 114.483 57.304C114.483 57.5387 114.536 57.7307 114.643 57.88C114.76 58.0187 114.947 58.1467 115.203 58.264C115.469 58.3707 115.848 58.4773 116.339 58.584C117.064 58.744 117.624 58.92 118.019 59.112C118.424 59.304 118.712 59.5387 118.883 59.816C119.053 60.0933 119.139 60.4453 119.139 60.872C119.139 61.544 118.856 62.088 118.291 62.504C117.725 62.9093 116.979 63.112 116.051 63.112ZM121.77 63.08C121.578 63.08 121.418 63.0267 121.29 62.92C121.173 62.8027 121.114 62.6427 121.114 62.44V55.688C121.114 55.4853 121.173 55.3307 121.29 55.224C121.418 55.1067 121.578 55.048 121.77 55.048C121.962 55.048 122.117 55.1067 122.234 55.224C122.351 55.3307 122.41 55.4853 122.41 55.688V62.44C122.41 62.6533 122.351 62.8133 122.234 62.92C122.117 63.0267 121.962 63.08 121.77 63.08ZM121.77 53.368C121.514 53.368 121.306 53.2933 121.146 53.144C120.986 52.9947 120.906 52.7973 120.906 52.552C120.906 52.3173 120.986 52.1253 121.146 51.976C121.306 51.8267 121.514 51.752 121.77 51.752C122.026 51.752 122.234 51.8267 122.394 51.976C122.554 52.1253 122.634 52.3173 122.634 52.552C122.634 52.7973 122.554 52.9947 122.394 53.144C122.234 53.2933 122.026 53.368 121.77 53.368ZM130.561 61.976C130.742 61.976 130.881 62.024 130.977 62.12C131.073 62.2053 131.121 62.328 131.121 62.488C131.121 62.648 131.073 62.776 130.977 62.872C130.881 62.9573 130.742 63 130.561 63H124.961C124.779 63 124.63 62.9467 124.513 62.84C124.395 62.7227 124.337 62.584 124.337 62.424C124.337 62.2533 124.401 62.088 124.529 61.928L129.265 56.232H124.881C124.699 56.232 124.555 56.1893 124.449 56.104C124.353 56.008 124.305 55.8853 124.305 55.736C124.305 55.576 124.353 55.448 124.449 55.352C124.555 55.256 124.699 55.208 124.881 55.208H130.305C130.497 55.208 130.651 55.2667 130.769 55.384C130.886 55.4907 130.945 55.624 130.945 55.784C130.945 55.9547 130.881 56.12 130.753 56.28L126.001 61.976H130.561ZM138.74 61.192C138.857 61.192 138.958 61.24 139.044 61.336C139.129 61.432 139.172 61.5547 139.172 61.704C139.172 61.9707 138.985 62.216 138.612 62.44C138.228 62.664 137.822 62.8347 137.396 62.952C136.969 63.0587 136.553 63.112 136.148 63.112C134.942 63.112 133.988 62.7547 133.284 62.04C132.59 61.3253 132.244 60.3387 132.244 59.08C132.244 58.28 132.398 57.576 132.708 56.968C133.017 56.3493 133.449 55.8693 134.004 55.528C134.569 55.1867 135.209 55.016 135.924 55.016C136.937 55.016 137.742 55.3467 138.34 56.008C138.937 56.6693 139.236 57.5653 139.236 58.696C139.236 58.9093 139.193 59.064 139.108 59.16C139.022 59.256 138.884 59.304 138.692 59.304H133.54C133.636 61.1387 134.505 62.056 136.148 62.056C136.564 62.056 136.921 62.0027 137.22 61.896C137.518 61.7787 137.838 61.624 138.18 61.432C138.457 61.272 138.644 61.192 138.74 61.192ZM135.94 56.024C135.257 56.024 134.708 56.2373 134.292 56.664C133.886 57.0907 133.646 57.6933 133.572 58.472H138.1C138.078 57.6827 137.881 57.08 137.508 56.664C137.134 56.2373 136.612 56.024 135.94 56.024ZM151.526 51.64C151.729 51.64 151.889 51.6987 152.006 51.816C152.124 51.9333 152.182 52.0827 152.182 52.264V62.44C152.182 62.632 152.124 62.7867 152.006 62.904C151.889 63.0213 151.729 63.08 151.526 63.08C151.324 63.08 151.164 63.0213 151.046 62.904C150.94 62.7867 150.886 62.632 150.886 62.44V61.576C150.652 62.0667 150.305 62.4453 149.846 62.712C149.398 62.9787 148.87 63.112 148.262 63.112C147.58 63.112 146.977 62.9413 146.454 62.6C145.932 62.2587 145.526 61.784 145.238 61.176C144.95 60.5573 144.806 59.8427 144.806 59.032C144.806 58.232 144.95 57.528 145.238 56.92C145.526 56.312 145.932 55.8427 146.454 55.512C146.977 55.1813 147.58 55.016 148.262 55.016C148.87 55.016 149.398 55.1493 149.846 55.416C150.305 55.6827 150.652 56.0613 150.886 56.552V52.264C150.886 52.072 150.94 51.9227 151.046 51.816C151.164 51.6987 151.324 51.64 151.526 51.64ZM148.518 62.04C149.276 62.04 149.857 61.784 150.262 61.272C150.678 60.7493 150.886 60.0133 150.886 59.064C150.886 58.1147 150.678 57.384 150.262 56.872C149.857 56.36 149.276 56.104 148.518 56.104C147.761 56.104 147.169 56.36 146.742 56.872C146.326 57.384 146.118 58.104 146.118 59.032C146.118 59.9813 146.326 60.7227 146.742 61.256C147.169 61.7787 147.761 62.04 148.518 62.04ZM157.815 63.112C157.079 63.112 156.428 62.9467 155.863 62.616C155.308 62.2853 154.876 61.816 154.567 61.208C154.268 60.5893 154.119 59.8747 154.119 59.064C154.119 58.2533 154.268 57.544 154.567 56.936C154.876 56.3173 155.308 55.8427 155.863 55.512C156.428 55.1813 157.079 55.016 157.815 55.016C158.551 55.016 159.201 55.1813 159.767 55.512C160.332 55.8427 160.764 56.3173 161.063 56.936C161.372 57.544 161.527 58.2533 161.527 59.064C161.527 59.8747 161.372 60.5893 161.063 61.208C160.764 61.816 160.332 62.2853 159.767 62.616C159.201 62.9467 158.551 63.112 157.815 63.112ZM157.815 62.04C158.583 62.04 159.169 61.7893 159.575 61.288C159.991 60.776 160.199 60.0347 160.199 59.064C160.199 58.1147 159.991 57.384 159.575 56.872C159.159 56.3493 158.572 56.088 157.815 56.088C157.057 56.088 156.471 56.3493 156.055 56.872C155.639 57.384 155.431 58.1147 155.431 59.064C155.431 60.024 155.633 60.76 156.039 61.272C156.455 61.784 157.047 62.04 157.815 62.04ZM169.49 61.192C169.607 61.192 169.708 61.24 169.794 61.336C169.879 61.432 169.922 61.5547 169.922 61.704C169.922 61.9707 169.735 62.216 169.362 62.44C168.978 62.664 168.572 62.8347 168.146 62.952C167.719 63.0587 167.303 63.112 166.898 63.112C165.692 63.112 164.738 62.7547 164.034 62.04C163.34 61.3253 162.994 60.3387 162.994 59.08C162.994 58.28 163.148 57.576 163.458 56.968C163.767 56.3493 164.199 55.8693 164.754 55.528C165.319 55.1867 165.959 55.016 166.674 55.016C167.687 55.016 168.492 55.3467 169.09 56.008C169.687 56.6693 169.986 57.5653 169.986 58.696C169.986 58.9093 169.943 59.064 169.858 59.16C169.772 59.256 169.634 59.304 169.442 59.304H164.29C164.386 61.1387 165.255 62.056 166.898 62.056C167.314 62.056 167.671 62.0027 167.97 61.896C168.268 61.7787 168.588 61.624 168.93 61.432C169.207 61.272 169.394 61.192 169.49 61.192ZM166.69 56.024C166.007 56.024 165.458 56.2373 165.042 56.664C164.636 57.0907 164.396 57.6933 164.322 58.472H168.85C168.828 57.6827 168.631 57.08 168.258 56.664C167.884 56.2373 167.362 56.024 166.69 56.024ZM174.519 63.112C174.029 63.112 173.559 63.0533 173.111 62.936C172.674 62.8187 172.285 62.6533 171.943 62.44C171.751 62.312 171.613 62.1947 171.527 62.088C171.453 61.9707 171.415 61.832 171.415 61.672C171.415 61.5333 171.453 61.4213 171.527 61.336C171.613 61.24 171.719 61.192 171.847 61.192C171.975 61.192 172.162 61.272 172.407 61.432C172.727 61.624 173.042 61.7787 173.351 61.896C173.671 62.0027 174.066 62.056 174.535 62.056C175.111 62.056 175.559 61.9547 175.879 61.752C176.199 61.5493 176.359 61.256 176.359 60.872C176.359 60.6373 176.301 60.4507 176.183 60.312C176.066 60.1627 175.863 60.0347 175.575 59.928C175.287 59.8107 174.866 59.6933 174.311 59.576C173.373 59.3733 172.701 59.1013 172.295 58.76C171.89 58.4187 171.687 57.9547 171.687 57.368C171.687 56.9093 171.815 56.504 172.071 56.152C172.327 55.8 172.679 55.5227 173.127 55.32C173.586 55.1173 174.103 55.016 174.679 55.016C175.095 55.016 175.495 55.0747 175.879 55.192C176.274 55.2987 176.621 55.4533 176.919 55.656C177.282 55.912 177.463 56.1787 177.463 56.456C177.463 56.5947 177.421 56.712 177.335 56.808C177.25 56.904 177.149 56.952 177.031 56.952C176.903 56.952 176.711 56.8613 176.455 56.68C176.157 56.488 175.874 56.3387 175.607 56.232C175.341 56.1253 175.01 56.072 174.615 56.072C174.114 56.072 173.709 56.184 173.399 56.408C173.101 56.632 172.951 56.9307 172.951 57.304C172.951 57.5387 173.005 57.7307 173.111 57.88C173.229 58.0187 173.415 58.1467 173.671 58.264C173.938 58.3707 174.317 58.4773 174.807 58.584C175.533 58.744 176.093 58.92 176.487 59.112C176.893 59.304 177.181 59.5387 177.351 59.816C177.522 60.0933 177.607 60.4453 177.607 60.872C177.607 61.544 177.325 62.088 176.759 62.504C176.194 62.9093 175.447 63.112 174.519 63.112ZM183.503 55.016C185.369 55.016 186.303 56.0453 186.303 58.104V62.44C186.303 62.6427 186.244 62.8027 186.127 62.92C186.02 63.0267 185.865 63.08 185.663 63.08C185.46 63.08 185.3 63.0267 185.183 62.92C185.065 62.8027 185.007 62.6427 185.007 62.44V58.184C185.007 57.4587 184.863 56.9307 184.575 56.6C184.297 56.2693 183.849 56.104 183.231 56.104C182.516 56.104 181.945 56.3227 181.519 56.76C181.092 57.1973 180.879 57.7893 180.879 58.536V62.44C180.879 62.6427 180.82 62.8027 180.703 62.92C180.596 63.0267 180.441 63.08 180.239 63.08C180.036 63.08 179.876 63.0267 179.759 62.92C179.641 62.8027 179.583 62.6427 179.583 62.44V55.688C179.583 55.496 179.641 55.3413 179.759 55.224C179.876 55.1067 180.036 55.048 180.239 55.048C180.431 55.048 180.58 55.1067 180.687 55.224C180.804 55.3413 180.863 55.4907 180.863 55.672V56.488C181.119 56.008 181.476 55.6453 181.935 55.4C182.393 55.144 182.916 55.016 183.503 55.016ZM189.253 56.232C189.135 56.232 189.039 56.1947 188.965 56.12C188.89 56.0453 188.842 55.9387 188.821 55.8L188.533 52.536L188.517 52.376C188.517 52.1413 188.586 51.96 188.725 51.832C188.863 51.704 189.039 51.64 189.253 51.64C189.498 51.64 189.685 51.72 189.813 51.88C189.951 52.04 189.999 52.2587 189.957 52.536L189.685 55.8C189.653 56.088 189.509 56.232 189.253 56.232ZM195.808 62.056C196.181 62.088 196.368 62.2587 196.368 62.568C196.368 62.7493 196.298 62.888 196.16 62.984C196.032 63.0693 195.834 63.1013 195.568 63.08L195.136 63.048C194.282 62.984 193.653 62.728 193.248 62.28C192.842 61.832 192.64 61.1547 192.64 60.248V56.232H191.568C191.386 56.232 191.242 56.1893 191.136 56.104C191.04 56.008 190.992 55.8853 190.992 55.736C190.992 55.576 191.04 55.448 191.136 55.352C191.242 55.256 191.386 55.208 191.568 55.208H192.64V53.4C192.64 53.1973 192.698 53.0427 192.816 52.936C192.933 52.8187 193.093 52.76 193.296 52.76C193.488 52.76 193.642 52.8187 193.76 52.936C193.877 53.0427 193.936 53.1973 193.936 53.4V55.208H195.712C195.882 55.208 196.016 55.256 196.112 55.352C196.218 55.448 196.272 55.576 196.272 55.736C196.272 55.8853 196.218 56.008 196.112 56.104C196.016 56.1893 195.882 56.232 195.712 56.232H193.936V60.312C193.936 60.8987 194.053 61.3253 194.288 61.592C194.533 61.848 194.896 61.992 195.376 62.024L195.808 62.056ZM210.442 55.016C212.17 55.016 213.034 56.0453 213.034 58.104V62.44C213.034 62.6427 212.976 62.8027 212.858 62.92C212.741 63.0267 212.586 63.08 212.394 63.08C212.202 63.08 212.042 63.0267 211.914 62.92C211.797 62.8027 211.738 62.6427 211.738 62.44V58.136C211.738 57.4213 211.61 56.904 211.354 56.584C211.098 56.264 210.698 56.104 210.154 56.104C209.504 56.104 208.992 56.3227 208.618 56.76C208.245 57.1973 208.058 57.7893 208.058 58.536V62.44C208.058 62.6427 207.994 62.8027 207.866 62.92C207.749 63.0267 207.594 63.08 207.402 63.08C207.21 63.08 207.056 63.0267 206.938 62.92C206.821 62.8027 206.762 62.6427 206.762 62.44V58.136C206.762 57.4213 206.634 56.904 206.378 56.584C206.122 56.264 205.717 56.104 205.162 56.104C204.522 56.104 204.01 56.3227 203.626 56.76C203.253 57.1973 203.066 57.7893 203.066 58.536V62.44C203.066 62.6427 203.008 62.8027 202.89 62.92C202.773 63.0267 202.618 63.08 202.426 63.08C202.234 63.08 202.074 63.0267 201.946 62.92C201.829 62.8027 201.77 62.6427 201.77 62.44V55.688C201.77 55.496 201.829 55.3413 201.946 55.224C202.074 55.1067 202.234 55.048 202.426 55.048C202.608 55.048 202.757 55.1067 202.874 55.224C202.992 55.3307 203.05 55.48 203.05 55.672V56.44C203.285 55.9813 203.61 55.6293 204.026 55.384C204.442 55.1387 204.922 55.016 205.466 55.016C206.682 55.016 207.477 55.528 207.85 56.552C208.074 56.0827 208.416 55.7093 208.874 55.432C209.333 55.1547 209.856 55.016 210.442 55.016ZM218.579 55.016C220.531 55.016 221.507 56.04 221.507 58.088V62.44C221.507 62.632 221.449 62.7867 221.331 62.904C221.225 63.0213 221.075 63.08 220.883 63.08C220.691 63.08 220.537 63.0213 220.419 62.904C220.302 62.7867 220.243 62.632 220.243 62.44V61.672C220.041 62.1307 219.731 62.488 219.315 62.744C218.899 62.9893 218.419 63.112 217.875 63.112C217.374 63.112 216.91 63.0107 216.483 62.808C216.067 62.6053 215.737 62.3227 215.491 61.96C215.246 61.5973 215.123 61.1973 215.123 60.76C215.123 60.1733 215.273 59.72 215.571 59.4C215.87 59.0693 216.361 58.8347 217.043 58.696C217.726 58.5467 218.675 58.472 219.891 58.472H220.243V57.944C220.243 57.304 220.11 56.8347 219.843 56.536C219.587 56.2373 219.166 56.088 218.579 56.088C217.854 56.088 217.118 56.2853 216.371 56.68C216.083 56.8613 215.881 56.952 215.763 56.952C215.635 56.952 215.529 56.904 215.443 56.808C215.358 56.712 215.315 56.5893 215.315 56.44C215.315 56.2907 215.358 56.1627 215.443 56.056C215.539 55.9387 215.689 55.8213 215.891 55.704C216.265 55.4907 216.686 55.3253 217.155 55.208C217.635 55.08 218.11 55.016 218.579 55.016ZM218.051 62.088C218.691 62.088 219.214 61.8747 219.619 61.448C220.035 61.0107 220.243 60.4507 220.243 59.768V59.304H219.955C219.017 59.304 218.302 59.3467 217.811 59.432C217.321 59.5067 216.969 59.64 216.755 59.832C216.553 60.0133 216.451 60.2853 216.451 60.648C216.451 61.064 216.601 61.4107 216.899 61.688C217.209 61.9547 217.593 62.088 218.051 62.088ZM227.48 62.056C227.853 62.088 228.04 62.2587 228.04 62.568C228.04 62.7493 227.97 62.888 227.832 62.984C227.704 63.0693 227.506 63.1013 227.24 63.08L226.808 63.048C225.954 62.984 225.325 62.728 224.92 62.28C224.514 61.832 224.312 61.1547 224.312 60.248V56.232H223.24C223.058 56.232 222.914 56.1893 222.808 56.104C222.712 56.008 222.664 55.8853 222.664 55.736C222.664 55.576 222.712 55.448 222.808 55.352C222.914 55.256 223.058 55.208 223.24 55.208H224.312V53.4C224.312 53.1973 224.37 53.0427 224.488 52.936C224.605 52.8187 224.765 52.76 224.968 52.76C225.16 52.76 225.314 52.8187 225.432 52.936C225.549 53.0427 225.608 53.1973 225.608 53.4V55.208H227.384C227.554 55.208 227.688 55.256 227.784 55.352C227.89 55.448 227.944 55.576 227.944 55.736C227.944 55.8853 227.89 56.008 227.784 56.104C227.688 56.1893 227.554 56.232 227.384 56.232H225.608V60.312C225.608 60.8987 225.725 61.3253 225.96 61.592C226.205 61.848 226.568 61.992 227.048 62.024L227.48 62.056ZM232.533 63.112C231.808 63.112 231.163 62.9467 230.597 62.616C230.043 62.2853 229.611 61.816 229.301 61.208C229.003 60.6 228.853 59.896 228.853 59.096C228.853 58.296 229.008 57.5867 229.317 56.968C229.637 56.3493 230.08 55.8693 230.645 55.528C231.211 55.1867 231.861 55.016 232.597 55.016C233.003 55.016 233.403 55.0747 233.797 55.192C234.203 55.2987 234.555 55.4587 234.853 55.672C235.045 55.8 235.179 55.928 235.253 56.056C235.339 56.1733 235.381 56.3067 235.381 56.456C235.381 56.6053 235.339 56.728 235.253 56.824C235.179 56.92 235.077 56.968 234.949 56.968C234.875 56.968 234.795 56.9467 234.709 56.904C234.624 56.8613 234.549 56.8187 234.485 56.776C234.432 56.7333 234.395 56.7067 234.373 56.696C234.096 56.5147 233.829 56.3707 233.573 56.264C233.328 56.1573 233.024 56.104 232.661 56.104C231.883 56.104 231.275 56.3707 230.837 56.904C230.411 57.4267 230.197 58.1573 230.197 59.096C230.197 60.0347 230.411 60.76 230.837 61.272C231.275 61.784 231.883 62.04 232.661 62.04C233.024 62.04 233.333 61.9867 233.589 61.88C233.856 61.7733 234.123 61.6293 234.389 61.448C234.507 61.3733 234.619 61.3093 234.725 61.256C234.832 61.2027 234.923 61.176 234.997 61.176C235.115 61.176 235.211 61.224 235.285 61.32C235.371 61.416 235.413 61.5387 235.413 61.688C235.413 61.8267 235.376 61.9547 235.301 62.072C235.227 62.1787 235.088 62.3013 234.885 62.44C234.587 62.6427 234.224 62.808 233.797 62.936C233.381 63.0533 232.96 63.112 232.533 63.112ZM240.909 55.016C241.827 55.016 242.52 55.2773 242.989 55.8C243.459 56.312 243.693 57.08 243.693 58.104V62.44C243.693 62.6427 243.635 62.8027 243.517 62.92C243.4 63.0267 243.245 63.08 243.053 63.08C242.851 63.08 242.691 63.0267 242.573 62.92C242.456 62.8027 242.397 62.6427 242.397 62.44V58.136C242.397 57.4427 242.253 56.9307 241.965 56.6C241.688 56.2693 241.24 56.104 240.621 56.104C239.907 56.104 239.336 56.3227 238.909 56.76C238.483 57.1973 238.269 57.7893 238.269 58.536V62.44C238.269 62.6427 238.211 62.8027 238.093 62.92C237.987 63.0267 237.832 63.08 237.629 63.08C237.427 63.08 237.267 63.0267 237.149 62.92C237.032 62.8027 236.973 62.6427 236.973 62.44V52.264C236.973 52.0827 237.032 51.9333 237.149 51.816C237.277 51.6987 237.437 51.64 237.629 51.64C237.832 51.64 237.987 51.6987 238.093 51.816C238.211 51.9227 238.269 52.072 238.269 52.264V56.456C238.525 55.9867 238.883 55.6293 239.341 55.384C239.8 55.1387 240.323 55.016 240.909 55.016Z" fill="white"/>
<defs>
<filter id="filter0_d" x="0" y="0" width="35" height="33.5" filterUnits="userSpaceOnUse" color-interpolation-filters="sRGB">
<feFlood flood-opacity="0" result="BackgroundImageFix"/>
<feColorMatrix in="SourceAlpha" type="matrix" values="0 0 0 0 0 0 0 0 0 0 0 0 0 0 0 0 0 0 127 0" result="hardAlpha"/>
<feOffset dy="1"/>
<feGaussianBlur stdDeviation="2"/>
<feComposite in2="hardAlpha" operator="out"/>
<feColorMatrix type="matrix" values="0 0 0 0 0 0 0 0 0 0 0 0 0 0 0 0 0 0 0.4 0"/>
<feBlend mode="normal" in2="BackgroundImageFix" result="effect1_dropShadow"/>
<feBlend mode="normal" in="SourceGraphic" in2="effect1_dropShadow" result="shape"/>
</filter>
</defs>
</svg>
