<svg width="20" height="20" viewBox="0 0 20 20" fill="none" xmlns="http://www.w3.org/2000/svg">
<path d="M17.5642 10.753C17.3338 10.9834 17.0113 11.0295 16.7348 10.7991C15.9054 10.0618 15.2142 9.46277 13.7397 9.46277C12.2651 9.46277 11.5279 10.0618 10.6984 10.7991C9.82293 11.5363 8.80919 12.4118 6.91994 12.4118C5.0307 12.4118 4.01696 11.5824 3.14146 10.7991C2.91106 10.5687 2.86498 10.2461 3.09538 9.96965C3.32577 9.73925 3.64833 9.69317 3.9248 9.92357C4.75422 10.6148 5.44541 11.2599 6.96602 11.2599C8.48663 11.2599 9.17782 10.6608 10.0072 9.92357C10.8827 9.1863 11.8965 8.3108 13.7857 8.3108C15.7211 8.3108 16.6887 9.14022 17.5642 9.92357C17.7485 10.1079 17.7946 10.4765 17.5642 10.753ZM17.7025 10.8451C17.426 11.1677 16.9191 11.2138 16.5966 10.9373C15.7671 10.2461 15.122 9.64709 13.6936 9.64709C12.2651 9.64709 11.62 10.2 10.7906 10.9373C9.86901 11.7207 8.85527 12.5962 6.87386 12.5962C4.89246 12.5962 3.87872 11.7207 2.95714 10.9373C2.8189 10.7991 2.68066 10.6148 2.68066 10.3844C2.68066 10.2 2.72674 9.96964 2.86498 9.83141C3.14146 9.50885 3.64833 9.46277 3.97088 9.73925C4.8003 10.4304 5.44541 11.0295 6.87386 11.0295C8.30232 11.0295 8.94742 10.4765 9.77685 9.73925C10.6984 8.9559 11.7122 8.0804 13.6936 8.0804C15.675 8.0804 16.6887 8.9559 17.6103 9.73925C17.7485 9.87749 17.8868 10.0618 17.8868 10.2922C17.9329 10.5226 17.8407 10.7069 17.7025 10.8451ZM17.3799 10.0618C16.5044 9.32454 15.5828 8.54119 13.7397 8.54119C11.8965 8.54119 10.9288 9.37062 10.0994 10.1079C9.26998 10.7991 8.48663 11.4903 6.91994 11.4903C5.35325 11.4903 4.56991 10.8451 3.74048 10.1079C3.60225 9.96964 3.32577 9.96964 3.23361 10.154C3.18753 10.2461 3.14146 10.3383 3.14146 10.4304C3.14146 10.5226 3.18753 10.6148 3.27969 10.7069C4.10912 11.4442 5.07678 12.2736 6.91994 12.2736C8.76311 12.2736 9.73077 11.4442 10.5602 10.7069C11.3896 10.0157 12.173 9.32454 13.7397 9.32454C15.3063 9.32454 16.0897 9.96964 16.9191 10.7069C17.0574 10.8451 17.3338 10.8451 17.426 10.6608C17.4721 10.5687 17.5181 10.4765 17.5181 10.3844C17.5181 10.2461 17.4721 10.154 17.3799 10.0618ZM17.5642 7.57353C17.3338 7.80393 17.0113 7.85001 16.7348 7.61961C15.9054 6.92842 15.2142 6.28332 13.6936 6.28332C12.219 6.28332 11.4818 6.88234 10.6524 7.61961C9.77685 8.35688 8.76311 9.23238 6.87386 9.23238C4.98462 9.23238 3.97088 8.40295 3.09538 7.61961C2.86498 7.43529 2.8189 7.06666 3.0493 6.83627C3.27969 6.60587 3.60225 6.55979 3.87872 6.79019C4.70815 7.48137 5.39933 8.0804 6.91994 8.0804C8.44055 8.0804 9.13174 7.48137 9.96116 6.74411C10.8367 6.00684 11.8504 5.13134 13.7397 5.13134C15.675 5.13134 16.6426 5.96076 17.5181 6.74411C17.7485 6.9745 17.7946 7.34314 17.5642 7.57353ZM17.7025 7.71177C17.5642 7.85001 17.3799 7.98824 17.1495 7.98824C16.9191 7.98824 16.7348 7.94216 16.5966 7.80393C15.7671 7.11274 15.122 6.51371 13.6936 6.51371C12.2651 6.51371 11.62 7.06666 10.7906 7.80393C9.91509 8.54119 8.90135 9.4167 6.91994 9.4167C4.89246 9.4167 3.87872 8.54119 2.95714 7.80393C2.8189 7.66569 2.72674 7.48137 2.72674 7.25098C2.72674 7.02058 2.77282 6.83626 2.91106 6.69803C3.0493 6.55979 3.23361 6.42155 3.46401 6.42155C3.64833 6.42155 3.87872 6.46763 4.01696 6.60587C4.84638 7.29706 5.49149 7.89608 6.91994 7.89608C8.3484 7.89608 8.9935 7.34314 9.82293 6.60587C10.7445 5.82252 11.7583 4.94702 13.7397 4.94702C15.7211 4.94702 16.7348 5.82252 17.6564 6.60587C17.7946 6.74411 17.9329 6.92842 17.9329 7.15882C17.9329 7.34314 17.8407 7.52745 17.7025 7.71177ZM17.3799 6.92842C16.5505 6.19116 15.5828 5.36173 13.7397 5.36173C11.8965 5.36173 10.9288 6.19116 10.0994 6.92842C9.26998 7.61961 8.48663 8.3108 6.91994 8.3108C5.35325 8.3108 4.56991 7.66569 3.74048 6.92842C3.64833 6.83627 3.55617 6.83627 3.51009 6.83627C3.51009 6.83627 3.51009 6.83627 3.46401 6.83627C3.37185 6.83627 3.27969 6.88234 3.18753 6.9745C3.14146 7.02058 3.09538 7.11274 3.09538 7.2049C3.09538 7.29706 3.14146 7.38921 3.23361 7.48137C4.06304 8.21864 5.0307 9.04806 6.87386 9.04806C8.71703 9.04806 9.68469 8.21864 10.5141 7.48137C11.3435 6.79019 12.1269 6.099 13.6936 6.099C15.2603 6.099 16.0436 6.74411 16.873 7.48137C16.9652 7.52745 17.0574 7.57353 17.1495 7.57353C17.2417 7.57353 17.3338 7.52745 17.426 7.43529C17.4721 7.34314 17.5181 7.25098 17.5181 7.15882C17.5181 7.06666 17.4721 6.9745 17.3799 6.92842ZM17.5642 13.8864C17.3338 14.1168 17.0113 14.1628 16.7348 13.9324C15.9054 13.2413 15.2142 12.5962 13.6936 12.5962C12.219 12.5962 11.4818 13.1952 10.6524 13.9324C9.77685 14.6697 8.76311 15.5452 6.87386 15.5452C4.98462 15.5452 3.97088 14.7158 3.09538 13.9324C2.86498 13.7481 2.8189 13.3795 3.0493 13.103C3.27969 12.8726 3.60225 12.8265 3.87872 13.0569C4.70815 13.7481 5.39933 14.3932 6.91994 14.3932C8.44055 14.3932 9.13174 13.7942 9.96116 13.0569C10.8367 12.3197 11.8504 11.4442 13.7397 11.4442C15.675 11.4442 16.6426 12.2736 17.5181 13.0569C17.7485 13.2873 17.7946 13.656 17.5642 13.8864ZM17.7025 14.0246C17.5642 14.1628 17.3799 14.3011 17.1495 14.3011C16.9191 14.3011 16.7348 14.255 16.5966 14.1168C15.7671 13.4256 15.122 12.8265 13.6936 12.8265C12.2651 12.8265 11.62 13.3795 10.7906 14.1168C9.86901 14.9001 8.85527 15.7756 6.87386 15.7756C4.89246 15.7756 3.87872 14.9001 2.95714 14.1168C2.63458 13.8403 2.58851 13.3334 2.86498 13.0109C3.14146 12.6883 3.64833 12.6422 3.97088 12.9187C4.8003 13.6099 5.44541 14.2089 6.87386 14.2089C8.30232 14.2089 8.94742 13.656 9.77685 12.9187C10.6984 12.1354 11.7122 11.2599 13.6936 11.2599C15.675 11.2599 16.6887 12.1354 17.6103 12.9187C17.7485 13.0569 17.8868 13.2413 17.8868 13.4717C17.9329 13.656 17.8407 13.8864 17.7025 14.0246ZM17.3799 13.2413C16.5505 12.504 15.5828 11.6746 13.7397 11.6746C11.8965 11.6746 10.9288 12.504 10.0994 13.2413C9.26998 13.9324 8.48663 14.6236 6.91994 14.6236C5.35325 14.6236 4.56991 13.9785 3.74048 13.2413C3.64833 13.1491 3.55617 13.1491 3.46401 13.1491C3.37185 13.1491 3.23361 13.1952 3.18753 13.2873C3.0493 13.4256 3.0493 13.7021 3.23361 13.7942C4.06304 14.5315 5.0307 15.3609 6.87386 15.3609C8.71703 15.3609 9.68469 14.5315 10.5141 13.7942C11.3435 13.103 12.1269 12.4118 13.6936 12.4118C15.2603 12.4118 16.0436 13.0569 16.873 13.7942C16.9652 13.8403 17.0574 13.8864 17.1495 13.8864C17.2417 13.8864 17.3338 13.8403 17.426 13.7481C17.4721 13.656 17.5181 13.5638 17.5181 13.4717C17.5181 13.3795 17.4721 13.2873 17.3799 13.2413Z" fill="#212121"/>
</svg>
