<svg width="32" height="22" viewBox="0 0 32 22" fill="none" xmlns="http://www.w3.org/2000/svg">
<path d="M23.623 10.8241C23.3468 10.8241 23.123 11.0479 23.123 11.3241C23.123 11.6002 23.3468 11.8241 23.623 11.8241V10.8241ZM28.2131 11.3241L28.62 11.6147L28.8276 11.3241L28.62 11.0335L28.2131 11.3241ZM26.9806 8.73838C26.8201 8.51367 26.5079 8.46163 26.2832 8.62213C26.0584 8.78263 26.0064 9.09491 26.1669 9.31962L26.9806 8.73838ZM26.1669 13.3285C26.0064 13.5532 26.0584 13.8655 26.2832 14.026C26.5079 14.1865 26.8201 14.1345 26.9806 13.9098L26.1669 13.3285ZM8.54098 11.8241C8.81713 11.8241 9.04098 11.6002 9.04098 11.3241C9.04098 11.0479 8.81713 10.8241 8.54098 10.8241V11.8241ZM3.95082 11.3241L3.54395 11.0335L3.33637 11.3241L3.54395 11.6147L3.95082 11.3241ZM5.99703 9.31962C6.15754 9.09491 6.10549 8.78263 5.88078 8.62213C5.65608 8.46163 5.3438 8.51367 5.1833 8.73838L5.99703 9.31962ZM5.1833 13.9098C5.3438 14.1345 5.65608 14.1865 5.88078 14.026C6.10549 13.8655 6.15754 13.5532 5.99703 13.3285L5.1833 13.9098ZM30.0306 0.980934L29.9675 0.484938L30.0306 0.980934ZM30.0241 20.6779L30.0891 20.1821L30.0241 20.6779ZM2.13985 20.6779L2.20491 21.1736L2.13985 20.6779ZM0.5 1.99111V19.6795H1.5V1.99111H0.5ZM31.6639 19.6795V1.97948H30.6639V19.6795H31.6639ZM29.9675 0.484938C27.2664 0.828827 20.3732 1.64375 15.7541 1.64375V2.64375C20.446 2.64375 27.3998 1.81992 30.0938 1.47693L29.9675 0.484938ZM15.7541 1.64375C11.19 1.64375 4.80311 0.847863 2.21465 0.497471L2.08051 1.48843C4.66511 1.8383 11.1141 2.64375 15.7541 2.64375V1.64375ZM2.20491 21.1736C4.84984 20.8265 11.4893 20.0208 16.082 20.0208V19.0208C11.415 19.0208 4.71416 19.8358 2.07479 20.1821L2.20491 21.1736ZM16.082 20.0208C20.6746 20.0208 27.3141 20.8265 29.959 21.1736L30.0891 20.1821C27.4498 19.8358 20.7489 19.0208 16.082 19.0208V20.0208ZM23.623 11.8241H28.2131V10.8241H23.623V11.8241ZM28.62 11.0335L26.9806 8.73838L26.1669 9.31962L27.8062 11.6147L28.62 11.0335ZM26.9806 13.9098L28.62 11.6147L27.8062 11.0335L26.1669 13.3285L26.9806 13.9098ZM8.54098 10.8241H3.95082V11.8241H8.54098V10.8241ZM4.35769 11.6147L5.99703 9.31962L5.1833 8.73838L3.54395 11.0335L4.35769 11.6147ZM3.54395 11.6147L5.1833 13.9098L5.99703 13.3285L4.35769 11.0335L3.54395 11.6147ZM31.6639 1.97948C31.6639 1.07199 30.8682 0.370259 29.9675 0.484938L30.0938 1.47693C30.3964 1.4384 30.6639 1.6739 30.6639 1.97948H31.6639ZM30.6639 19.6795C30.6639 19.9849 30.3941 20.2222 30.0891 20.1821L29.959 21.1736C30.8606 21.2919 31.6639 20.591 31.6639 19.6795H30.6639ZM0.5 19.6795C0.5 20.591 1.3033 21.2919 2.20491 21.1736L2.07479 20.1821C1.76979 20.2222 1.5 19.9849 1.5 19.6795H0.5ZM1.5 1.99111C1.5 1.68644 1.77245 1.44673 2.08051 1.48843L2.21465 0.497471C1.31262 0.375366 0.5 1.07467 0.5 1.99111H1.5Z" fill="#212121"/>
</svg>
