<svg width="20" height="20" viewBox="0 0 20 20" fill="none" xmlns="http://www.w3.org/2000/svg">
<g clip-path="url(#clip0)">
<path d="M18.6374 11.5366V16.1479C18.6374 16.4623 18.3754 16.7243 18.061 16.7243H17.3797V17.4056C17.3797 17.72 17.1177 17.982 16.8033 17.982C16.4889 17.982 16.2269 17.72 16.2269 17.4056V16.7243H4.54137V17.4056C4.54137 17.72 4.27936 17.982 3.96496 17.982C3.65055 17.982 3.38854 17.72 3.38854 17.4056V16.7243H2.65492C2.34051 16.7243 2.0785 16.4623 2.0785 16.1479V11.5366C0.978072 11.2746 0.139648 10.279 0.139648 9.07373C0.139648 7.65889 1.29248 6.55846 2.65492 6.55846H2.70732V5.24843C2.70732 3.83359 3.86015 2.73315 5.22259 2.73315H15.4933C16.9081 2.73315 18.0085 3.88599 18.0085 5.24843V6.55846H18.061C19.4758 6.55846 20.5762 7.71129 20.5762 9.07373C20.5762 10.279 19.7378 11.2746 18.6374 11.5366ZM3.23134 15.5715H17.4321V14.2091H3.23134V15.5715ZM14.8645 13.0038V12.637C14.8645 12.0606 14.3928 11.6414 13.8688 11.6414H6.84704C6.27062 11.6414 5.85141 12.113 5.85141 12.637V13.0038H14.8645ZM2.65492 7.7637C1.9213 7.7637 1.34488 8.34011 1.34488 9.07373C1.34488 9.85976 1.9213 10.4362 2.65492 10.4362C2.96933 10.4362 3.23134 10.6982 3.23134 11.0126V13.0038H4.59377V9.75495C4.64617 8.65452 3.75535 7.7637 2.65492 7.7637ZM16.8033 5.24843C16.8033 4.5148 16.2269 3.93839 15.4933 3.93839H5.22259C4.48897 3.93839 3.91255 4.5148 3.91255 5.24843V6.82047C5.06539 7.29208 5.85141 8.44492 5.85141 9.75495V10.6982C6.16582 10.541 6.48023 10.4362 6.84704 10.4362H13.9212C14.288 10.4362 14.6025 10.541 14.9169 10.6982V9.75495C14.9169 8.44492 15.7029 7.34448 16.8557 6.82047V5.24843H16.8033ZM18.061 7.7637C16.9605 7.7637 16.0697 8.65452 16.0697 9.75495V13.0038H17.4321V11.0126C17.4321 10.6982 17.6941 10.4362 18.0085 10.4362C18.7422 10.4362 19.3186 9.85976 19.3186 9.12613C19.371 8.39251 18.7946 7.7637 18.061 7.7637ZM7.16145 7.13488C6.84704 7.13488 6.58503 6.87287 6.58503 6.55846C6.58503 6.24405 6.84704 5.98205 7.16145 5.98205C7.47585 5.98205 7.73786 6.24405 7.73786 6.55846C7.73786 6.87287 7.47585 7.13488 7.16145 7.13488ZM10.3579 7.13488C10.0435 7.13488 9.78152 6.87287 9.78152 6.55846C9.78152 6.24405 10.0435 5.98205 10.3579 5.98205C10.6723 5.98205 10.9344 6.24405 10.9344 6.55846C10.9344 6.87287 10.6723 7.13488 10.3579 7.13488ZM13.5544 7.13488C13.24 7.13488 12.978 6.87287 12.978 6.55846C12.978 6.24405 13.24 5.98205 13.5544 5.98205C13.8688 5.98205 14.1308 6.24405 14.1308 6.55846C14.1832 6.87287 13.8688 7.13488 13.5544 7.13488Z" fill="#212121"/>
</g>
<defs>
<clipPath id="clip0">
<rect width="20" height="20" fill="white"/>
</clipPath>
</defs>
</svg>
