<svg width="20" height="20" viewBox="0 0 20 20" fill="none" xmlns="http://www.w3.org/2000/svg">
<path d="M16.7962 14.4868C16.6666 16.1722 15.2405 17.5119 13.5551 17.5119C12.1722 17.5119 10.9189 16.6476 10.4868 15.3079C10.4004 15.0918 10.0546 15.0918 10.0114 15.3079C9.62248 16.734 8.32601 17.728 6.8999 17.728C5.08485 17.728 3.61552 16.2586 3.65874 14.4436C3.65874 12.7582 4.9552 11.3753 6.59739 11.2456C6.81347 11.2456 6.98633 11.0296 6.98633 10.8135C6.81347 8.95521 8.23958 7.22659 10.2275 7.22659C12.129 7.22659 13.5119 8.78235 13.4687 10.5974C13.4687 10.8135 13.6415 10.9863 13.8576 11.0296C15.5862 11.1592 16.9259 12.6717 16.7962 14.4868ZM13.7712 11.8939C13.0797 11.8506 12.5611 11.2456 12.5611 10.5542C12.6043 9.25772 11.6104 8.13412 10.1843 8.13412C8.75817 8.13412 7.72099 9.38737 7.85064 10.727C7.93707 11.4617 7.37527 12.0667 6.64061 12.1532C5.43057 12.2396 4.52305 13.2768 4.47983 14.4868C4.47983 15.7833 5.517 16.8636 6.85669 16.8636C7.89386 16.8636 8.8446 16.1722 9.14711 15.135C9.27675 14.6164 9.75212 14.2707 10.2707 14.2707C10.7461 14.2707 11.1782 14.5732 11.3511 15.0486C11.6968 15.9993 12.5611 16.6476 13.5983 16.6476C14.8516 16.6476 15.8887 15.6968 15.9319 14.4436C16.0184 13.1471 15.0244 12.0235 13.7712 11.8939ZM13.5551 17.6847C12.0858 17.6847 10.7893 16.7772 10.3139 15.3943C10.3139 15.3511 10.2275 15.3079 10.2275 15.3079C10.2275 15.3079 10.1411 15.3079 10.1411 15.3943C9.75212 16.8636 8.36923 17.9008 6.85669 17.9008C5.94916 17.9008 5.08485 17.5551 4.43662 16.9069C3.78838 16.2586 3.44266 15.3943 3.44266 14.4868C3.44266 13.6225 3.78838 12.8446 4.35019 12.1964C4.91199 11.5914 5.68987 11.2024 6.55418 11.116C6.64061 11.116 6.68382 11.0728 6.72704 11.0296C6.77025 10.9863 6.77025 10.9431 6.77025 10.8567C6.68382 9.90595 6.98633 8.95521 7.67778 8.22055C8.32601 7.48589 9.23354 7.09695 10.1843 7.09695C11.135 7.09695 11.9993 7.44267 12.6476 8.13412C13.2958 8.78235 13.6415 9.68988 13.5983 10.6406C13.5983 10.7703 13.6847 10.8999 13.8144 10.8999C14.6787 10.9863 15.4998 11.3753 16.1048 12.0667C16.7098 12.7582 17.0123 13.6225 16.9259 14.53C16.8395 16.2586 15.3701 17.6847 13.5551 17.6847ZM13.8576 11.1592C13.5551 11.116 13.339 10.8999 13.339 10.5542C13.3822 9.68988 13.0365 8.912 12.4747 8.30698C11.9129 7.70196 11.0918 7.35624 10.2707 7.35624C9.4064 7.35624 8.5853 7.70196 7.98029 8.3502C7.37527 8.99843 7.07276 9.86274 7.15919 10.727C7.15919 10.8567 7.11598 11.0296 7.02955 11.116C6.94312 11.2456 6.77025 11.2888 6.64061 11.3321C5.08485 11.4617 3.8316 12.8014 3.8316 14.4004C3.8316 15.2215 4.13411 15.9993 4.73913 16.6044C5.34414 17.2094 6.12202 17.5119 6.94312 17.5119C8.32601 17.5119 9.53605 16.5611 9.92499 15.2647C9.9682 15.0918 10.1411 14.9622 10.3139 14.9622C10.4868 14.9622 10.6596 15.0486 10.7029 15.2215C11.135 16.4747 12.3018 17.2958 13.6415 17.2958C15.2837 17.2958 16.6234 16.0426 16.7098 14.4004C16.753 12.8014 15.4998 11.3321 13.8576 11.1592ZM13.5551 16.7772C12.4747 16.7772 11.524 16.0858 11.1782 15.0918C11.0486 14.7029 10.6596 14.4004 10.2275 14.4004C9.79534 14.4004 9.4064 14.7029 9.27675 15.135C8.97424 16.2154 7.98029 16.9933 6.85669 16.9933C6.16524 16.9933 5.56022 16.734 5.08485 16.2586C4.60948 15.7833 4.35019 15.135 4.35019 14.4436C4.35019 13.1471 5.38736 12.0667 6.64061 11.9803C6.94312 11.9371 7.24562 11.8074 7.41849 11.5914C7.59135 11.3753 7.72099 11.0728 7.67778 10.7703C7.63456 10.0788 7.85064 9.38737 8.32601 8.82557C8.80138 8.30698 9.44961 8.00447 10.1843 8.00447C10.8757 8.00447 11.524 8.26376 11.9993 8.73914C12.4747 9.21451 12.734 9.90595 12.6908 10.5974C12.6908 11.2024 13.1229 11.721 13.7279 11.7642C15.0676 11.8939 16.1048 13.1039 16.0184 14.4436C15.9752 15.74 14.8948 16.7772 13.5551 16.7772ZM13.7712 12.0667C12.9933 11.9803 12.3883 11.3321 12.4315 10.5542C12.4315 9.94917 12.2154 9.38737 11.8265 8.95521C11.3943 8.52306 10.8325 8.30698 10.2275 8.30698C9.62248 8.30698 9.06068 8.56627 8.62852 8.99843C8.19637 9.4738 7.98029 10.0788 8.06672 10.6838C8.10993 11.0728 7.98029 11.4617 7.72099 11.7642C7.4617 12.0667 7.11598 12.2396 6.72704 12.2828C5.60344 12.3692 4.73913 13.32 4.73913 14.4436C4.73913 15.0486 4.9552 15.6104 5.38736 15.9993C5.81951 16.4315 6.3381 16.6476 6.94312 16.6476C7.93707 16.6476 8.80138 15.9993 9.06068 15.0486C9.23354 14.4868 9.75212 14.0979 10.3139 14.0979C10.8757 14.0979 11.3511 14.4436 11.5672 15.0054C11.8697 15.9129 12.6908 16.4747 13.6415 16.4747C14.8083 16.4747 15.7591 15.5672 15.8455 14.4004C15.8455 13.2335 14.938 12.1532 13.7712 12.0667ZM9.36318 5.71405C9.23354 6.57836 8.41244 7.14016 7.54813 7.01052C6.68382 6.88087 6.12202 6.05977 6.29488 5.19546C6.42453 4.50402 7.28884 2.68897 8.2828 2.86183C9.31997 3.03469 9.49283 5.0226 9.36318 5.71405ZM8.15315 3.72614C7.80743 3.85578 7.28884 4.84974 7.20241 5.32511C7.15919 5.67083 7.37527 6.05977 7.76421 6.10299C8.10993 6.14621 8.49887 5.93013 8.54209 5.54119C8.5853 5.06582 8.41244 3.98543 8.15315 3.72614ZM9.53605 5.75727C9.4064 6.57836 8.67174 7.18338 7.85064 7.18338C7.76421 7.18338 7.63456 7.18338 7.54813 7.14016C6.59739 6.9673 5.94916 6.10299 6.12202 5.15225C6.16524 4.80652 6.42453 4.15829 6.81347 3.59649C7.28884 2.90504 7.80743 2.60253 8.32601 2.68897C8.8446 2.7754 9.23354 3.25077 9.4064 4.02865C9.57926 4.67688 9.62248 5.36833 9.53605 5.75727ZM8.2828 2.99147C7.37527 2.81861 6.55418 4.59045 6.46775 5.19546C6.3381 5.97334 6.85669 6.70801 7.59135 6.83765C8.36923 6.9673 9.10389 6.44871 9.23354 5.67084C9.36318 4.97939 9.10389 3.16434 8.2828 2.99147ZM8.32601 6.14621C8.19637 6.23264 8.0235 6.31907 7.85064 6.31907C7.80743 6.31907 7.76421 6.31907 7.72099 6.31907C7.4617 6.23264 7.28884 6.10299 7.15919 5.93013C7.02955 5.75727 6.98633 5.49797 7.02955 5.2819C7.11598 4.76331 7.67778 3.72614 8.10993 3.59649L8.19637 3.55328L8.2828 3.59649C8.62852 3.899 8.80138 5.06582 8.71495 5.5844C8.62852 5.80048 8.49887 6.01656 8.32601 6.14621ZM8.10993 3.94222C7.85064 4.15829 7.41849 4.93617 7.33206 5.32511C7.28884 5.45476 7.33206 5.5844 7.41849 5.71405C7.50492 5.8437 7.59135 5.93013 7.76421 5.93013C7.89386 5.97334 8.0235 5.93013 8.15315 5.8437C8.23958 5.80048 8.32601 5.67083 8.32601 5.54119C8.41244 5.10903 8.2828 4.24472 8.10993 3.94222ZM12.9069 7.01052C12.0425 7.14016 11.2214 6.57836 11.0918 5.71405C10.9622 5.0226 11.1782 3.03469 12.1722 2.86183C13.2094 2.68897 14.0737 4.50402 14.1601 5.19546C14.333 6.01656 13.7712 6.83765 12.9069 7.01052ZM12.3451 3.72614C12.0858 3.94222 11.9129 5.06582 11.9993 5.54119C12.0425 5.93013 12.4315 6.14621 12.7772 6.10299C13.1229 6.05977 13.3822 5.67083 13.339 5.32511C13.2094 4.84974 12.6476 3.85578 12.3451 3.72614ZM12.9501 7.14016C12.8636 7.14016 12.734 7.18338 12.6476 7.18338C11.8265 7.18338 11.0918 6.57836 10.9622 5.75727C10.9189 5.41154 10.9189 4.67688 11.0918 4.07186C11.3079 3.25077 11.6968 2.81861 12.1722 2.73218C12.6476 2.60253 13.1661 2.90504 13.6415 3.59649C14.0305 4.11508 14.2465 4.76331 14.333 5.15225C14.5058 6.10299 13.8576 6.9673 12.9501 7.14016ZM14.0305 5.19546C13.944 4.89296 13.7279 4.28794 13.3822 3.76935C13.1661 3.42363 12.6908 2.90504 12.2154 2.99147C11.3079 3.16434 11.135 5.06582 11.2647 5.67084C11.3943 6.44871 12.129 6.9673 12.9069 6.83765C13.6415 6.70801 14.1601 5.97334 14.0305 5.19546ZM12.7772 6.27585C12.734 6.27585 12.6908 6.27585 12.6476 6.27585C12.2586 6.27585 11.9129 5.97334 11.8265 5.5844C11.74 5.06582 11.9129 3.899 12.2586 3.59649L12.3451 3.55328L12.4315 3.59649C12.8204 3.76935 13.4254 4.80652 13.5119 5.2819C13.5551 5.49797 13.5119 5.71405 13.3822 5.88691C13.1661 6.10299 12.9933 6.23264 12.7772 6.27585ZM12.3883 3.94222C12.2154 4.24472 12.0858 5.10903 12.129 5.54119C12.1722 5.80048 12.4315 6.01656 12.734 5.97334C12.8636 5.93013 12.9933 5.88691 13.0797 5.75727C13.1661 5.62762 13.2094 5.49797 13.1661 5.36833C13.0797 4.93617 12.6476 4.20151 12.3883 3.94222ZM4.60948 10.2085C3.74517 10.2085 3.05372 9.51701 3.05372 8.6527C3.05372 7.96126 3.57231 6.01656 4.60948 6.01656C5.64665 6.01656 6.16524 7.96126 6.16524 8.6527C6.16524 9.51701 5.47379 10.2085 4.60948 10.2085ZM4.60948 6.92408C4.30697 7.09695 3.91803 8.17733 3.91803 8.6527C3.91803 9.04164 4.22054 9.34415 4.60948 9.34415C4.99842 9.34415 5.30093 9.04164 5.30093 8.6527C5.30093 8.13412 4.91199 7.09695 4.60948 6.92408ZM4.60948 10.3813C3.65874 10.3813 2.88086 9.60345 2.88086 8.6527C2.88086 8.26376 3.01051 7.61553 3.31301 7.01052C3.65874 6.27585 4.13411 5.8437 4.65269 5.8437C5.17128 5.8437 5.60344 6.23264 5.94916 6.9673C6.20845 7.57232 6.38131 8.22055 6.38131 8.60949C6.3381 9.60345 5.56022 10.3813 4.60948 10.3813ZM4.60948 6.18942C3.70195 6.18942 3.18337 8.04769 3.18337 8.6527C3.18337 9.43058 3.8316 10.0788 4.60948 10.0788C5.38736 10.0788 6.03559 9.43058 6.03559 8.6527C6.03559 7.91804 5.47379 6.18942 4.60948 6.18942ZM4.60948 9.4738C4.13411 9.4738 3.78838 9.08486 3.78838 8.6527C3.78838 8.13412 4.17732 7.01052 4.52305 6.79444L4.60948 6.75122L4.69591 6.79444C5.08485 7.01052 5.43057 8.13412 5.43057 8.6527C5.43057 9.08486 5.08485 9.4738 4.60948 9.4738ZM4.60948 7.14016C4.3934 7.39946 4.09089 8.22055 4.09089 8.6527C4.09089 8.95521 4.30697 9.17129 4.60948 9.17129C4.91199 9.17129 5.12807 8.95521 5.12807 8.6527C5.12807 8.22055 4.82556 7.39946 4.60948 7.14016ZM15.8455 10.2085C14.9812 10.2085 14.2898 9.51701 14.2898 8.6527C14.2898 7.96126 14.8083 6.01656 15.8455 6.01656C16.8827 6.01656 17.4013 7.96126 17.4013 8.6527C17.4013 9.51701 16.7098 10.2085 15.8455 10.2085ZM15.8455 6.92408C15.543 7.09695 15.1541 8.17733 15.1541 8.6527C15.1541 9.04164 15.4566 9.34415 15.8455 9.34415C16.2344 9.34415 16.537 9.04164 16.537 8.6527C16.537 8.13412 16.148 7.09695 15.8455 6.92408ZM15.8455 10.3813C14.8948 10.3813 14.1169 9.60345 14.1169 8.6527C14.1169 8.26376 14.2465 7.61553 14.5058 7.01052C14.8516 6.27585 15.3269 5.8437 15.8455 5.8437C16.3641 5.8437 16.7962 6.23264 17.142 6.9673C17.4013 7.57232 17.5741 8.22055 17.5741 8.60949C17.5741 9.60345 16.7962 10.3813 15.8455 10.3813ZM15.8455 6.18942C14.938 6.18942 14.4194 8.04769 14.4194 8.6527C14.4194 9.43058 15.0676 10.0788 15.8455 10.0788C16.6234 10.0788 17.2716 9.43058 17.2716 8.6527C17.2716 7.91804 16.7098 6.18942 15.8455 6.18942ZM15.8455 9.4738C15.3701 9.4738 15.0244 9.08486 15.0244 8.6527C15.0244 8.13412 15.4134 7.01052 15.7591 6.79444L15.8455 6.75122L15.9319 6.79444C16.3209 7.01052 16.6666 8.13412 16.6666 8.6527C16.6666 9.08486 16.3209 9.4738 15.8455 9.4738ZM15.8455 7.14016C15.6294 7.39946 15.3269 8.22055 15.3269 8.6527C15.3269 8.95521 15.543 9.17129 15.8455 9.17129C16.148 9.17129 16.3641 8.95521 16.3641 8.6527C16.3641 8.22055 16.0616 7.39946 15.8455 7.14016Z" fill="#212121"/>
</svg>
