<svg width="22" height="20" viewBox="0 0 22 20" fill="none" xmlns="http://www.w3.org/2000/svg">
<path d="M17.7229 8.28367L16.2502 9.80393L16.5352 11.8943C16.5827 12.2268 16.3452 12.5119 16.0601 12.5594L14.3974 12.8444V19.3055C14.3974 19.4955 14.3023 19.6856 14.1123 19.8281C13.9223 19.9231 13.7323 19.9231 13.5422 19.8756L10.3117 18.2603L7.08116 19.8756C6.98614 19.9231 6.89112 19.9231 6.79611 19.9231C6.70109 19.9231 6.55857 19.8756 6.46355 19.8281C6.32103 19.6856 6.17851 19.4955 6.17851 19.3055V12.8444L4.51573 12.5594C4.18318 12.5119 3.99315 12.2268 4.04065 11.8943L4.3257 9.80393L2.85296 8.28367C2.61542 8.04614 2.61542 7.66607 2.85296 7.47604L4.3257 5.95579L4.04065 3.81794C3.99315 3.48538 4.23069 3.20034 4.51573 3.15283L6.60608 2.77277L7.60374 0.919962C7.74627 0.634915 8.12633 0.5399 8.41138 0.682423L10.3117 1.58507L12.212 0.682423C12.497 0.5399 12.8296 0.634915 12.9721 0.919962L13.9698 2.77277L16.0601 3.15283C16.3927 3.20034 16.5827 3.48538 16.5352 3.81794L16.2502 5.90828L17.7229 7.42853C17.9604 7.66607 17.9604 8.04614 17.7229 8.28367ZM7.41371 18.3078L10.0266 16.9776C10.2167 16.8826 10.4067 16.8826 10.5492 16.9776L13.1622 18.3078V14.3647L12.9721 14.7447C12.8771 14.9348 12.6396 15.0773 12.4495 15.0773C12.3545 15.0773 12.2595 15.0773 12.1645 15.0298L10.2642 14.1271L8.36387 15.0298C8.07882 15.1723 7.69876 15.0773 7.55623 14.7922L7.3662 14.4122V18.3078H7.41371ZM15.205 6.52589C15.0625 6.38336 15.015 6.19333 15.0625 6.0033L15.3 4.198L13.4947 3.86545C13.3047 3.81794 13.1622 3.72292 13.0671 3.5804L12.212 1.96513L10.5492 2.77277C10.3592 2.86778 10.1692 2.86778 10.0266 2.77277L8.36387 1.96513L7.50873 3.5804C7.46122 3.77043 7.27119 3.86545 7.12866 3.91296L5.32337 4.24551L5.56091 6.05081C5.60841 6.24084 5.5134 6.43087 5.41838 6.57339L4.13567 7.90361L5.41838 9.23383C5.56091 9.37636 5.60841 9.56639 5.56091 9.75642L5.32337 11.5617L7.12866 11.8943C7.3187 11.9418 7.46122 12.0368 7.55623 12.1793L8.41138 13.7946L10.0741 12.9869C10.1217 12.8444 10.2167 12.8444 10.3117 12.8444C10.4067 12.8444 10.5017 12.8444 10.5967 12.8919L12.2595 13.6996L13.1146 12.0843C13.2097 11.9418 13.3522 11.7993 13.5422 11.7993L15.3475 11.4667L15.11 9.6614C15.0625 9.47137 15.1575 9.28134 15.2525 9.13882L16.5352 7.8086L15.205 6.52589ZM10.3117 11.9418C8.03131 11.9418 6.22602 10.089 6.22602 7.8561C6.22602 5.62324 8.07882 3.77043 10.3117 3.77043C12.5921 3.77043 14.3974 5.62324 14.3974 7.8561C14.3974 10.089 12.5446 11.9418 10.3117 11.9418ZM10.3117 4.95813C8.69642 4.95813 7.41371 6.24084 7.41371 7.8561C7.41371 9.47137 8.69642 10.7541 10.3117 10.7541C11.927 10.7541 13.2097 9.47137 13.2097 7.8561C13.2097 6.24084 11.8794 4.95813 10.3117 4.95813ZM12.3545 7.191L10.1692 9.37636C10.0741 9.47137 9.88412 9.56639 9.74159 9.56639C9.59907 9.56639 9.45655 9.51888 9.31402 9.37636L8.22134 8.28367C7.98381 8.04614 7.98381 7.66607 8.22134 7.42853C8.45888 7.191 8.83895 7.191 9.07649 7.42853L9.74159 8.09364L11.4994 6.33585C11.7369 6.09832 12.117 6.09832 12.3545 6.33585C12.5921 6.57339 12.5921 6.95346 12.3545 7.191Z" fill="#212121"/>
</svg>
