<svg width="20" height="20" viewBox="0 0 20 20" fill="none" xmlns="http://www.w3.org/2000/svg">
<g clip-path="url(#clip0)">
<path d="M1.44562 5.59547C1.56266 5.55291 1.76482 5.47311 1.9723 5.41991C2.1053 5.38267 2.25958 5.34011 2.39258 5.36671C3.8875 5.63803 5.38242 5.90935 6.87203 6.21259C7.12207 6.26579 7.34018 6.46263 7.62214 6.62223C7.9839 6.22855 8.8617 6.24451 9.37242 6.73395C10.5003 6.11683 11.4898 6.81375 12.4846 6.94675C12.5272 7.06911 12.5325 7.09039 12.5431 7.10635C12.3729 7.12231 12.208 7.13295 12.0005 7.15423C12.0005 7.42023 11.9526 7.70219 12.0218 7.95223C12.0484 8.05331 12.325 8.13311 12.4953 8.14375C12.9794 8.17035 13.4635 8.15439 14.0168 8.15439C14.0168 8.34591 14.0008 8.48955 14.0168 8.62787C14.0806 9.17051 13.8891 9.42055 13.3092 9.35671C12.9315 9.31415 12.5485 9.35139 12.1282 9.35139C12.1282 9.65463 12.1282 9.95255 12.1282 10.3037C14.5275 10.3037 16.9268 10.3037 19.3155 10.3037C19.2251 10.6761 19.2517 11.1389 19.0442 11.2932C18.7516 11.5166 18.2887 11.5805 17.9004 11.5858C16.198 11.6124 14.5009 11.5964 12.7985 11.5964C12.591 11.5964 12.3782 11.5964 12.1335 11.5964C12.1335 11.8997 12.1335 12.1657 12.1335 12.4902C14.3466 12.4902 16.5491 12.4902 18.7409 12.4902C18.8101 13.2456 18.2621 13.767 17.4588 13.767C14.9478 13.767 12.4421 13.767 9.93102 13.767C7.38274 13.767 4.82914 13.767 2.28086 13.767C2.3181 13.7138 2.35002 13.6553 2.38726 13.6021C1.99358 13.2722 1.56266 12.9796 1.22218 12.6072C1.02002 12.3838 0.918945 12.0486 0.839145 11.7401C0.668905 11.0804 0.461425 10.4154 0.418865 9.74507C0.381625 9.19711 0.503985 8.61723 0.647625 8.07459C0.871065 7.22339 1.18494 6.39347 1.44562 5.59547Z" fill="#212121"/>
<path d="M6.53711 14.7781C10.0057 14.7781 13.501 14.7781 17.0016 14.7781C17.092 15.1398 17.1771 15.4963 17.2995 15.9857C16.5334 15.89 15.8365 15.7995 15.1449 15.7091C15.0012 15.6931 14.8523 15.6665 14.7086 15.6772C13.4478 15.757 12.187 15.858 10.9261 15.9219C10.2292 15.9538 9.52163 15.8793 8.82471 15.9378C7.84051 16.0176 6.95739 15.9698 6.53711 14.7781Z" fill="#212121"/>
<path d="M20.3374 9.28249C19.2947 9.37825 18.2307 9.33569 17.1667 9.32505C17.156 9.20801 17.1454 9.09629 17.1348 8.97925C17.6561 8.96861 18.0977 8.86753 18.1722 8.26637C18.1775 8.21849 18.3903 8.15997 18.5073 8.15997C19.0553 8.14933 19.6032 8.15465 20.1725 8.15465C20.2257 8.53237 20.2789 8.87285 20.3374 9.28249Z" fill="#212121"/>
<path d="M15.3841 8.14918C15.6022 8.60138 15.7671 8.94186 15.9853 9.39406C15.5809 9.39406 15.299 9.44194 15.0436 9.38342C14.7829 9.31958 14.5435 9.15466 14.2988 9.0323C14.5329 8.7397 14.7457 8.42582 15.0064 8.16514C15.0702 8.08534 15.283 8.14918 15.3841 8.14918Z" fill="#212121"/>
<path d="M10.2774 17.0017C10.2774 17.3369 10.2774 17.6242 10.2774 17.9061C9.54321 17.9593 9.31977 17.7625 9.31445 17.0017C9.62301 17.0017 9.92625 17.0017 10.2774 17.0017Z" fill="#212121"/>
<path d="M16.7402 16.991C17.2616 16.991 17.5702 16.991 17.9798 16.991C17.9426 17.3368 17.9106 17.6453 17.8734 17.9592C17.8096 17.9911 17.7457 18.0177 17.6819 18.0496C17.4159 17.7464 17.1446 17.4432 16.7402 16.991Z" fill="#212121"/>
<path d="M20.8365 7.10119C20.5492 7.10119 20.2566 7.10119 19.9215 7.10119C19.8949 6.70219 19.8151 6.24467 20.3577 6.25531C20.5811 6.26063 20.7993 6.67027 21.0227 6.89903C20.9589 6.96819 20.895 7.03203 20.8365 7.10119Z" fill="#212121"/>
</g>
<defs>
<clipPath id="clip0">
<rect width="20" height="20" fill="white"/>
</clipPath>
</defs>
</svg>
