<svg width="20" height="20" viewBox="0 0 20 20" fill="none" xmlns="http://www.w3.org/2000/svg">
<path d="M15.8775 17.7717H4.92146C4.18819 17.7717 3.62745 17.2109 3.62745 16.4776V4.14136C3.62745 3.40808 4.18819 2.84734 4.92146 2.84734H15.8343C16.5676 2.84734 17.1284 3.40808 17.1284 4.14136V16.4776C17.1715 17.2109 16.5676 17.7717 15.8775 17.7717ZM16.3088 4.14136C16.3088 3.88255 16.1363 3.71002 15.8775 3.71002H4.92146C4.66266 3.71002 4.49013 3.88255 4.49013 4.14136V5.86671H16.2657V4.14136H16.3088ZM16.3088 6.72939H4.49013V16.4776C4.49013 16.7364 4.66266 16.909 4.92146 16.909H15.8343C16.0931 16.909 16.2657 16.7364 16.2657 16.4776V6.72939H16.3088ZM15.8775 17.9011H4.92146C4.14506 17.9011 3.49805 17.2541 3.49805 16.4776V4.14136C3.49805 3.32181 4.14506 2.6748 4.92146 2.6748H15.8343C16.6107 2.6748 17.2578 3.32181 17.2578 4.09822V16.4345C17.3009 17.2541 16.6539 17.9011 15.8775 17.9011ZM16.999 4.14136C16.999 3.49435 16.4813 2.97674 15.8343 2.97674H4.92146C4.27446 2.97674 3.75685 3.49435 3.75685 4.14136V16.4776C3.75685 17.1247 4.27446 17.6423 4.92146 17.6423H15.8343C16.4813 17.6423 16.999 17.1247 16.999 16.4776V4.14136ZM15.8775 17.0384H4.92146C4.61953 17.0384 4.36072 16.7796 4.36072 16.4776V6.55685H16.4382V16.4776C16.4382 16.7796 16.1794 17.0384 15.8775 17.0384ZM16.1363 6.85879H4.66266V16.4776C4.66266 16.6502 4.79206 16.7796 4.9646 16.7796H15.8775C16.05 16.7796 16.1794 16.6502 16.1794 16.4776V6.85879H16.1363ZM4.36072 4.14136C4.36072 3.83942 4.61953 3.58062 4.92146 3.58062H15.8343C16.1363 3.58062 16.3951 3.83942 16.3951 4.14136V5.99611H4.31759V4.14136H4.36072ZM4.66266 5.69418H16.1363V4.14136C16.1363 3.96882 16.0069 3.83942 15.8343 3.83942H4.92146C4.74893 3.83942 4.61953 3.96882 4.61953 4.14136V5.69418H4.66266ZM13.2894 5.2197H12.4268C12.168 5.2197 11.9954 5.04717 11.9954 4.78836C11.9954 4.52956 12.168 4.35703 12.4268 4.35703H13.2894C13.5482 4.35703 13.7208 4.52956 13.7208 4.78836C13.7208 5.00403 13.5051 5.2197 13.2894 5.2197ZM13.2894 5.34911H12.4268C12.1248 5.34911 11.866 5.0903 11.866 4.78836C11.866 4.48643 12.1248 4.22762 12.4268 4.22762H13.2894C13.5914 4.22762 13.8502 4.48643 13.8502 4.78836C13.8502 5.0903 13.5914 5.34911 13.2894 5.34911ZM13.2894 4.48643H12.4268C12.2542 4.48643 12.1248 4.61583 12.1248 4.78836C12.1248 4.9609 12.2542 5.0903 12.4268 5.0903H13.2894C13.462 5.0903 13.5914 4.9609 13.5914 4.78836C13.5482 4.61583 13.4188 4.48643 13.2894 4.48643ZM15.5755 5.2197H14.7129C14.4541 5.2197 14.2815 5.04717 14.2815 4.78836C14.2815 4.52956 14.4541 4.35703 14.7129 4.35703H15.5755C15.8343 4.35703 16.0069 4.52956 16.0069 4.78836C16.0069 5.00403 15.8343 5.2197 15.5755 5.2197ZM15.5755 5.34911H14.7129C14.4109 5.34911 14.1521 5.0903 14.1521 4.78836C14.1521 4.48643 14.4109 4.22762 14.7129 4.22762H15.5755C15.8775 4.22762 16.1363 4.48643 16.1363 4.78836C16.1363 5.0903 15.8775 5.34911 15.5755 5.34911ZM15.5755 4.48643H14.7129C14.5403 4.48643 14.4109 4.61583 14.4109 4.78836C14.4109 4.9609 14.5403 5.0903 14.7129 5.0903H15.5755C15.7481 5.0903 15.8775 4.9609 15.8775 4.78836C15.8775 4.61583 15.7481 4.48643 15.5755 4.48643ZM10.3995 15.96C8.11337 15.96 6.21548 14.1053 6.21548 11.7761C6.21548 11.6467 6.21548 11.5604 6.21548 11.431C6.38802 9.27429 8.19964 7.59207 10.3563 7.59207C12.5562 7.59207 14.3247 9.27429 14.4972 11.431C14.4972 11.5604 14.4972 11.6467 14.4972 11.7761C14.5835 14.1053 12.6856 15.96 10.3995 15.96ZM10.3995 8.49788C8.80351 8.49788 7.46636 9.61936 7.16443 11.129C7.46636 11.2153 7.6389 11.3016 7.81143 11.431C8.0271 11.5604 8.15651 11.6467 8.50158 11.6467C8.84665 11.6467 9.01918 11.5604 9.19172 11.431C9.45052 11.2584 9.75246 11.0859 10.3563 11.0859C10.9602 11.0859 11.2621 11.3016 11.5209 11.431C11.7366 11.5604 11.866 11.6467 12.2111 11.6467C12.5562 11.6467 12.7287 11.5604 12.9012 11.431C13.0738 11.3447 13.2894 11.2153 13.5482 11.129C13.3326 9.66249 11.9954 8.49788 10.3995 8.49788ZM13.4188 12.1643C13.16 12.3368 12.8581 12.5093 12.2542 12.5093C11.6503 12.5093 11.3484 12.2937 11.0896 12.1643C10.8739 12.0349 10.7445 11.9486 10.3995 11.9486C10.0544 11.9486 9.88186 12.0349 9.70933 12.1643C9.45052 12.3368 9.14858 12.5093 8.54471 12.5093C7.94084 12.5093 7.6389 12.2937 7.3801 12.1643C7.29383 12.1211 7.20756 12.0349 7.12129 12.0349C7.25069 13.7602 8.67411 15.0974 10.3995 15.0974C12.1248 15.0974 13.5914 13.7171 13.6776 12.0349C13.5914 12.078 13.5051 12.1211 13.4188 12.1643ZM10.3995 16.1326C8.0271 16.1326 6.08608 14.1916 6.08608 11.8192C6.08608 11.6898 6.08608 11.6035 6.08608 11.4741C6.17235 10.3958 6.64682 9.40369 7.46636 8.67041C8.28591 7.93714 9.32112 7.5058 10.3995 7.5058C11.4778 7.5058 12.513 7.894 13.3326 8.67041C14.109 9.40369 14.6266 10.3958 14.7129 11.4741C14.7129 11.6035 14.7129 11.6898 14.7129 11.8192C14.7129 14.1916 12.7718 16.1326 10.3995 16.1326ZM14.4109 11.4741C14.2384 9.40369 12.4699 7.7646 10.3995 7.7646C8.32904 7.7646 6.56055 9.40369 6.38802 11.4741C6.38802 11.5604 6.38802 11.6898 6.38802 11.7761C6.38802 13.9759 8.19964 15.7875 10.3995 15.7875C12.5993 15.7875 14.4109 13.9759 14.4109 11.7761C14.4109 11.6898 14.4109 11.6035 14.4109 11.4741ZM10.3995 15.2699C8.58784 15.2699 7.07816 13.8465 6.94876 12.0349V11.8192L7.16443 11.9055C7.25069 11.9486 7.3801 11.9917 7.46636 12.078C7.72517 12.2505 7.98397 12.4231 8.54471 12.4231C9.10545 12.4231 9.36425 12.2505 9.62306 12.078C9.83873 11.9486 10.0113 11.8192 10.3995 11.8192C10.7877 11.8192 10.9602 11.9486 11.1759 12.078C11.4347 12.2505 11.6935 12.4231 12.2542 12.4231C12.815 12.4231 13.0738 12.2505 13.3326 12.078C13.4188 12.0349 13.5051 11.9486 13.6345 11.9055L13.8502 11.8192V12.0349C13.7208 13.8465 12.2111 15.2699 10.3995 15.2699ZM13.5051 12.2937C13.2463 12.4662 12.9012 12.6819 12.2542 12.6819C11.6072 12.6819 11.2621 12.4662 11.0033 12.2937C10.7877 12.1643 10.6583 12.078 10.3563 12.078C10.0544 12.078 9.92499 12.1643 9.70933 12.2937C9.45052 12.4662 9.10545 12.6819 8.45844 12.6819C7.81143 12.6819 7.46636 12.4662 7.20756 12.2937C7.42323 13.8033 8.76038 14.968 10.3132 14.968C11.9523 14.968 13.2894 13.8033 13.5051 12.2937ZM13.0738 11.5604C12.8581 11.6898 12.6856 11.8192 12.2974 11.8192C11.9092 11.8192 11.7366 11.6898 11.5209 11.5604C11.2621 11.3878 11.0033 11.2153 10.4426 11.2153C9.88186 11.2153 9.62306 11.3878 9.36425 11.5604C9.14859 11.6898 8.97605 11.8192 8.58784 11.8192C8.19964 11.8192 8.0271 11.6898 7.81143 11.5604C7.6389 11.4741 7.46636 11.3447 7.20756 11.3016L7.07816 11.2584L7.12129 11.129C7.46636 9.53309 8.88978 8.36848 10.4857 8.36848C12.1248 8.36848 13.5482 9.53309 13.8502 11.129L13.8933 11.2584L13.7639 11.3016C13.4188 11.3447 13.2032 11.4741 13.0738 11.5604ZM10.3995 8.67041C8.93292 8.67041 7.68203 9.66249 7.33696 11.0428C7.59577 11.129 7.7683 11.2153 7.8977 11.3016C8.11337 11.431 8.24277 11.5173 8.54471 11.5173C8.84665 11.5173 8.97605 11.431 9.19172 11.3016C9.45052 11.129 9.79559 10.9134 10.4426 10.9134C11.0896 10.9134 11.4347 11.129 11.6935 11.3016C11.9092 11.431 12.0386 11.5173 12.3405 11.5173C12.6424 11.5173 12.7718 11.431 12.9875 11.3016C13.1169 11.2153 13.3326 11.0859 13.5482 11.0428C13.1169 9.66249 11.866 8.67041 10.3995 8.67041Z" fill="#212121"/>
</svg>
