<svg width="19" height="14" viewBox="0 0 19 14" fill="none" xmlns="http://www.w3.org/2000/svg">
<path d="M16.1 0H2.1C1.54324 0.000625303 1.00946 0.222076 0.615766 0.615766C0.222076 1.00946 0.000625303 1.54324 0 2.1V11.9C0.000625303 12.4568 0.222076 12.9905 0.615766 13.3842C1.00946 13.7779 1.54324 13.9994 2.1 14H16.1C16.6568 13.9994 17.1905 13.7779 17.5842 13.3842C17.9779 12.9905 18.1994 12.4568 18.2 11.9V2.1C18.1994 1.54324 17.9779 1.00946 17.5842 0.615766C17.1905 0.222076 16.6568 0.000625303 16.1 0ZM16.8 11.9C16.7998 12.0856 16.7259 12.2635 16.5947 12.3947C16.4635 12.5259 16.2856 12.5998 16.1 12.6H2.1C1.91442 12.5998 1.73651 12.5259 1.60528 12.3947C1.47406 12.2635 1.40023 12.0856 1.4 11.9V2.1C1.40023 1.91442 1.47406 1.73651 1.60528 1.60528C1.73651 1.47406 1.91442 1.40023 2.1 1.4H16.1C16.2856 1.40023 16.4635 1.47406 16.5947 1.60528C16.7259 1.73651 16.7998 1.91442 16.8 2.1V11.9ZM12.2882 6.4176L8.08824 3.6176C7.98282 3.54734 7.86031 3.507 7.73377 3.50089C7.60723 3.49477 7.4814 3.52312 7.3697 3.5829C7.25801 3.64267 7.16462 3.73165 7.09951 3.84032C7.03441 3.949 7.00001 4.07331 7 4.2V9.8C7.00001 9.92669 7.03441 10.051 7.09951 10.1597C7.16462 10.2684 7.25801 10.3573 7.3697 10.4171C7.4814 10.4769 7.60723 10.5052 7.73377 10.4991C7.86031 10.493 7.98282 10.4527 8.08824 10.3824L12.2882 7.5824C12.3841 7.51848 12.4628 7.43187 12.5171 7.33026C12.5715 7.22866 12.6 7.1152 12.6 6.99996C12.6 6.88471 12.5715 6.77125 12.5171 6.66965C12.4628 6.56804 12.3841 6.48152 12.2882 6.4176ZM8.4 8.49205V5.50795L10.6381 7L8.4 8.49205Z" fill="#F8F8F8"/>
</svg>
