<?xml version="1.0" encoding="utf-8"?><svg xmlns="http://www.w3.org/2000/svg" xmlns:xlink="http://www.w3.org/1999/xlink"><symbol viewBox="0 0 64 69" id="family" xmlns="http://www.w3.org/2000/svg"><path d="M61.995 15.54c-3.846-.817-7.495-1.89-10.843-3.192a1.328 1.328 0 00-.962 2.476c3.173 1.233 6.6 2.269 10.201 3.083V34.13c0 3.19-1.667 7.434-4.59 11.98v-2.52c0-5.005-2.712-7.478-5.312-8.89a8.43 8.43 0 001.235-4.402c0-4.679-3.808-8.485-8.489-8.485-4.678 0-8.484 3.806-8.484 8.485 0 1.609.45 3.115 1.231 4.398-1.476.794-2.957 1.906-3.981 3.628-1.024-1.72-2.504-2.833-3.98-3.627a8.432 8.432 0 001.232-4.4c0-4.678-3.808-8.484-8.488-8.484-4.679 0-8.485 3.806-8.485 8.485 0 1.61.451 3.117 1.233 4.401-2.598 1.411-5.31 3.884-5.31 8.892v2.525c-2.925-4.548-4.595-8.795-4.595-11.986V17.907C18.818 14.46 26.494 8.13 30.661 4.696c.486-.402.934-.77 1.34-1.092.408.322.855.691 1.343 1.093 1.554 1.283 3.488 2.88 6.07 4.59a1.328 1.328 0 001.468-2.214c-2.466-1.634-4.341-3.181-5.847-4.424-.857-.707-1.596-1.317-2.262-1.792a1.328 1.328 0 00-1.542 0c-.666.475-1.405 1.084-2.26 1.79-4.374 3.606-11.694 9.641-26.967 12.893a1.328 1.328 0 00-1.052 1.3v17.29c0 3.056 1.169 6.701 3.473 10.836 2.033 3.646 4.857 7.482 8.167 11.09 5.566 6.07 13.588 12.554 19.41 12.554 5.82 0 13.84-6.485 19.406-12.554a67.555 67.555 0 004.084-4.891c.03-.037 2.97-4.205 4.083-6.2 2.304-4.134 3.473-7.78 3.473-10.835V16.839c0-.627-.44-1.169-1.053-1.3zm-18.76 8.929a5.837 5.837 0 015.833 5.829 5.837 5.837 0 01-5.833 5.828 5.835 5.835 0 01-5.828-5.828 5.835 5.835 0 015.828-5.829zM32.002 42.287a4.022 4.022 0 014.018 4.018 4.024 4.024 0 01-4.018 4.021 4.024 4.024 0 01-4.018-4.021 4.022 4.022 0 014.018-4.018zM20.765 24.47a5.837 5.837 0 015.832 5.829 5.837 5.837 0 01-5.832 5.828 5.835 5.835 0 01-5.829-5.828 5.835 5.835 0 015.829-5.829zm1.517 31.764v5.147c-2.52-1.907-5.174-4.33-7.732-7.119a66.06 66.06 0 01-3.69-4.385V43.59c0-3.921 2.04-5.665 4.427-6.82a8.445 8.445 0 005.478 2.011 8.451 8.451 0 005.478-2.01c1.416.687 2.803 1.632 3.634 3.208-2.641.89-4.549 3.388-4.549 6.325 0 1.143.289 2.219.796 3.16-1.927 1.121-3.841 3.043-3.841 6.768zm16.783 6.993c-2.751 1.74-5.221 2.728-7.063 2.728-1.842 0-4.312-.987-7.063-2.727v-6.994c0-2.64 1.327-3.877 2.926-4.694a6.637 6.637 0 004.137 1.444 6.641 6.641 0 004.137-1.443c1.598.817 2.926 2.055 2.926 4.693v6.993zm14.08-13.355a66.12 66.12 0 01-3.694 4.39c-2.558 2.788-5.21 5.21-7.73 7.117v-5.145c0-3.723-1.914-5.645-3.842-6.767a6.64 6.64 0 00.797-3.16c0-2.939-1.91-5.438-4.551-6.327.832-1.576 2.219-2.522 3.634-3.209a8.445 8.445 0 005.476 2.012c2.087 0 4-.758 5.48-2.01 2.388 1.156 4.43 2.9 4.43 6.819v6.28z"/><path d="M44.64 12.338l.008.004a1.327 1.327 0 001.778-.596 1.332 1.332 0 00-.598-1.784 1.328 1.328 0 10-1.188 2.376z"/></symbol><symbol viewBox="0 0 18 14" id="mail" xmlns="http://www.w3.org/2000/svg"><path d="M16.418 0H1.582a1.537 1.537 0 00-.678.162l8.06 8.23L10.77 6.62 17.093.163A1.537 1.537 0 0016.418 0zm1.423.923L11.891 7l5.95 6.077c.104-.216.158-.452.16-.692V1.615a1.625 1.625 0 00-.16-.692zM.159.923A1.625 1.625 0 000 1.615v10.77c.001.24.056.476.159.691L6.109 7 .16.923z"/><path d="M11.141 7.761L9.337 9.534a.526.526 0 01-.373.158.517.517 0 01-.372-.158L6.855 7.761l-5.95 6.077c.21.105.442.16.677.162h14.836c.235-.001.467-.057.678-.162L11.14 7.761z"/></symbol><symbol viewBox="0 0 68 69" id="money-transfer" xmlns="http://www.w3.org/2000/svg"><path d="M33.674 49.254c8.075 0 14.644-6.569 14.644-14.644 0-8.074-6.57-14.644-14.644-14.644-8.075 0-14.644 6.57-14.644 14.644 0 8.075 6.57 14.644 14.644 14.644zm0-27.295c6.976 0 12.652 5.675 12.652 12.651 0 6.977-5.676 12.652-12.652 12.652-6.976 0-12.652-5.675-12.652-12.652 0-6.976 5.676-12.651 12.652-12.651z"/><path d="M30.26 39.954c.89.582 1.539.807 2.35.883v.585a.996.996 0 101.993 0v-.68c1.616-.417 2.652-1.8 2.882-3.166.296-1.764-.661-3.357-2.383-3.966a38.332 38.332 0 01-.5-.18v-3.135a3.71 3.71 0 011.051.388.996.996 0 001.058-1.688 5.72 5.72 0 00-2.108-.721v-.476a.996.996 0 10-1.992 0v.59c-.055.014-.11.028-.166.045-1.161.35-2.029 1.342-2.264 2.587-.215 1.145.157 2.252.971 2.891.38.298.842.571 1.459.855v4.068c-.424-.064-.748-.213-1.26-.547a.996.996 0 00-1.09 1.667zm5.26-2.708a1.991 1.991 0 01-.917 1.359v-3.05c1.004.443.98 1.32.917 1.69zm-3.138-4.903c-.224-.175-.319-.55-.243-.954a1.44 1.44 0 01.472-.828v1.945a3.24 3.24 0 01-.23-.163zm23.531-19.335a.996.996 0 00-1.557 1.243l1 1.25H49.02a.996.996 0 100 1.993h6.334l-.999 1.25a.996.996 0 101.557 1.244l2.291-2.868a.996.996 0 000-1.244l-2.291-2.868zM12.087 56.212a.996.996 0 001.557-1.243l-1-1.25h6.335a.996.996 0 100-1.993h-6.334l.999-1.25a.996.996 0 10-1.557-1.244l-2.291 2.869a.996.996 0 000 1.243l2.291 2.868z"/><path d="M7.897 59.428h20.748a.996.996 0 100-1.992H8.235v-2.442a.996.996 0 00-1.704-.7L.29 60.603a.996.996 0 000 1.4l6.242 6.31a.996.996 0 001.705-.7v-2.442h20.409a.996.996 0 100-1.992H7.896c-.912 0-1.654.742-1.654 1.653v.358l-3.845-3.887 3.845-3.887v.357c0 .913.742 1.654 1.654 1.654zm25.777-44.341c-10.766 0-19.524 8.758-19.524 19.523 0 3.928 1.162 7.716 3.36 10.954a.996.996 0 001.649-1.12 17.438 17.438 0 01-3.017-9.834c0-9.667 7.865-17.531 17.532-17.531s17.531 7.864 17.531 17.531c0 9.667-7.864 17.532-17.531 17.532a17.46 17.46 0 01-12.067-4.814.996.996 0 10-1.371 1.445 19.44 19.44 0 0013.438 5.36c10.765 0 19.523-8.757 19.523-19.523 0-10.765-8.758-19.523-19.523-19.523zm34.038-7.871L61.469.906a.995.995 0 00-1.704.7v2.442h-4.593a.996.996 0 100 1.993h4.932c.912 0 1.653-.742 1.653-1.654V4.03l3.846 3.886-3.846 3.887v-.357c0-.912-.741-1.654-1.653-1.654H39.356a.996.996 0 100 1.992h20.41v2.442a.996.996 0 001.703.701l6.243-6.31a.996.996 0 000-1.401z"/><path d="M39.356 6.04H51.19a.996.996 0 100-1.991H39.356a.996.996 0 100 1.992z"/></symbol><symbol viewBox="0 0 15 15" id="phone" xmlns="http://www.w3.org/2000/svg"><path d="M13.796 9.845a8.52 8.52 0 01-2.674-.426 1.222 1.222 0 00-1.19.25l-1.686 1.274a9.32 9.32 0 01-4.19-4.19l1.238-1.642a1.212 1.212 0 00.298-1.228 8.53 8.53 0 01-.427-2.68A1.205 1.205 0 003.958 0H1.204A1.205 1.205 0 000 1.204 13.812 13.812 0 0013.796 15 1.205 1.205 0 0015 13.796V11.05a1.205 1.205 0 00-1.204-1.204z"/></symbol><symbol viewBox="0 0 12 18" id="pin" xmlns="http://www.w3.org/2000/svg"><path d="M6 0A6.001 6.001 0 00.72 8.852l4.953 8.955a.376.376 0 00.656 0l4.953-8.958A6 6 0 006.001 0zm0 9a3 3 0 110-6 3 3 0 010 6z"/></symbol><symbol viewBox="0 0 68 69" id="profit" xmlns="http://www.w3.org/2000/svg"><path d="M11.927 44.177a10.614 10.614 0 10-.03 21.228 10.614 10.614 0 00.03-21.228zm0 19.633a9.02 9.02 0 11-.03-18.04 9.02 9.02 0 01.03 18.04z"/><path d="M15.115 54.044h-1.618a1.748 1.748 0 00-.719-.733v-2.368a.797.797 0 00-1.594 0v2.343a1.736 1.736 0 102.313 2.351h1.618a.797.797 0 000-1.593zm-3.16.94a.144.144 0 01-.03-.285.143.143 0 01.149.061.145.145 0 01-.119.224zm18.183-8.726h-6.635a.797.797 0 00-.797.797v17.552a.797.797 0 00.797.797h6.635a.797.797 0 00.796-.797V47.055a.797.797 0 00-.796-.797zm-.797 17.551H24.3v-8.962h5.04v8.962zm0-10.557H24.3v-5.4h5.04v5.4zm11.172-15.635H33.88a.797.797 0 00-.797.797v26.193a.797.797 0 00.797.797h6.634a.797.797 0 00.797-.797V38.414a.797.797 0 00-.797-.797zm-.796 26.193h-5.041V48.514h5.04V63.81zm0-16.89h-5.041v-7.71h5.04v7.71zM50.89 30.21h-6.635a.797.797 0 00-.797.797v33.6a.797.797 0 00.797.797h6.634a.797.797 0 00.797-.797v-33.6a.797.797 0 00-.797-.797zm-.797 33.6h-5.041V44.335h5.04V63.81zm0-21.069h-5.041V31.803h5.04v10.938zm7.979-38.924a8.599 8.599 0 108.6 8.599 8.61 8.61 0 00-8.6-8.6zm.796 1.64a6.971 6.971 0 013.559 1.477l-.717.717a5.968 5.968 0 00-2.842-1.179V5.457zm-1.593 0v1.015a5.967 5.967 0 00-2.842 1.179l-.717-.717a6.973 6.973 0 013.559-1.477zM52.589 16.77a6.968 6.968 0 01-1.477-3.557h1.015a5.968 5.968 0 001.179 2.84l-.717.717zm-.462-5.151h-1.015a6.97 6.97 0 011.477-3.558l.717.717a5.968 5.968 0 00-1.18 2.84zm5.148 7.756a6.972 6.972 0 01-3.559-1.477l.718-.718a5.966 5.966 0 002.842 1.18l-.001 1.015zm1.593 0V18.36a5.968 5.968 0 002.843-1.18l.72.721a6.95 6.95 0 01-3.563 1.473v.001zm-.796-2.554a4.405 4.405 0 114.405-4.405 4.41 4.41 0 01-4.405 4.404zm5.485-.048l-.72-.719a5.966 5.966 0 001.179-2.841h1.015a6.943 6.943 0 01-1.474 3.56zm.459-5.154a5.964 5.964 0 00-1.179-2.841l.717-.717a6.97 6.97 0 011.478 3.558h-1.016z"/><path d="M58.054 11.634a.214.214 0 01-.236-.214.215.215 0 01.236-.213.242.242 0 01.193.09.797.797 0 001.257-.98 1.822 1.822 0 00-.667-.53.796.796 0 00-1.567.002 1.802 1.802 0 00.784 3.438.217.217 0 01.218.127.215.215 0 01-.218.3.242.242 0 01-.194-.091.797.797 0 10-1.256.98c.179.23.41.412.673.534a.797.797 0 001.555-.003 1.802 1.802 0 00-.778-3.44zm3.335 10.072h-6.635a.797.797 0 00-.797.797v42.104a.797.797 0 00.797.797h6.635a.797.797 0 00.797-.797V22.503a.797.797 0 00-.797-.797zm-.797 42.104h-5.04V34.529h5.04v29.28zm0-30.875h-5.04V23.3h5.04v9.635zm-21.998-4.11h-.776a4.362 4.362 0 003.436-4.257v-2.903a.796.796 0 00.64-.782 2.94 2.94 0 00-2.934-2.935c-.227 0-.453-.034-.67-.1a5.123 5.123 0 00-1.392-.266 4.361 4.361 0 00-4.356 4.356v2.63a4.363 4.363 0 003.435 4.258h-.775a4 4 0 00-3.995 3.994v3.12a.797.797 0 00.797.796h9.787a.797.797 0 00.797-.797V32.82a4 4 0 00-3.994-3.995zm-4.458-6.887a2.765 2.765 0 012.762-2.763c.066 0 .33.014.93.197.367.112.748.169 1.132.169a1.34 1.34 0 011.079.545h-3.226a1.55 1.55 0 00-1.547 1.548.845.845 0 01-.845.845h-.285v-.541zm0 2.63v-.496h.285a2.441 2.441 0 002.438-2.392h2.801v2.888a2.763 2.763 0 11-5.524 0zm6.859 10.574H32.8V32.82a2.403 2.403 0 012.4-2.4h3.393a2.404 2.404 0 012.4 2.4v2.322z"/><path d="M39.654 31.745h-.977a.797.797 0 000 1.593h.977a.797.797 0 000-1.593zm7.002 3.249a.797.797 0 00.797-.797v-.452a.797.797 0 00-1.594 0v.452a.797.797 0 00.797.797zm0 6.764a.797.797 0 00.797-.797v-4.377a.797.797 0 00-1.594 0v4.377a.797.797 0 00.797.797zm-34.807 4.771a8.215 8.215 0 10-.024 16.429 8.215 8.215 0 00.024-16.43zm5.948 9.066h.605a6.596 6.596 0 01-1.377 3.258l-.519-.52a.807.807 0 00-1.076-.077.784.784 0 00-.058 1.161l.541.542a6.568 6.568 0 01-3.287 1.358l-.002-.69a.785.785 0 00-.785-.782h-.002a.781.781 0 00-.782.784l.001.686a6.569 6.569 0 01-3.282-1.364l.508-.51a.807.807 0 00.075-1.075.783.783 0 00-1.161-.057l-.532.534a6.595 6.595 0 01-1.368-3.248h.718a.818.818 0 00.819-.676.797.797 0 00-.775-.918h-.776a6.595 6.595 0 011.359-3.328l.554.556a.785.785 0 001.093.017.81.81 0 00-.006-1.15l-.537-.538a6.57 6.57 0 013.311-1.386l-.002.809c-.001.433.35.637.783.77h.002a.785.785 0 00.784-.783l.002-.799a6.57 6.57 0 013.306 1.373l-.544.563a.812.812 0 00.006 1.144.784.784 0 001.097-.029l.55-.567A6.593 6.593 0 0118.416 54h-.62a.797.797 0 100 1.594z"/></symbol><symbol viewBox="0 0 68 69" id="tax" xmlns="http://www.w3.org/2000/svg"><path d="M3.188 66.485h54.187a8.5 8.5 0 002.125-16.73v-.27h1.063a1.062 1.062 0 001.062-1.062v-4.25a1.062 1.062 0 00-1.063-1.063H59.5v-2.125h1.063a1.062 1.062 0 001.062-1.062v-4.25a1.062 1.062 0 00-1.063-1.063H51V5.923a1.062 1.062 0 00-1.063-1.063h-5.584l.227-.757a1.063 1.063 0 00-1.017-1.368h-4.25a1.063 1.063 0 00-1.009.727l-.466 1.398H15.287l-.467-1.398a1.062 1.062 0 00-1.008-.727h-4.25a1.062 1.062 0 00-1.017 1.368l.227.757H3.187a1.062 1.062 0 00-1.062 1.063v59.5a1.062 1.062 0 001.063 1.062zm41.437-6.375v-2.125h4.25c0 .717.09 1.431.269 2.125h-4.519zm0-8.5v-2.125h12.75a8.463 8.463 0 00-5.613 2.125h-7.137zm5.394 2.125a8.45 8.45 0 00-.875 2.125H46.75v-2.125h3.269zM44.625 43.11v-2.125h12.75v2.125h-12.75zm0-4.25h-1.063a1.062 1.062 0 00-1.062 1.063v4.25a1.062 1.062 0 001.063 1.062h1.062v2.125h-1.063a1.062 1.062 0 00-1.062 1.063v4.25a1.062 1.062 0 001.063 1.062h1.062v2.125h-1.063a1.062 1.062 0 00-1.062 1.063v3.187h-34V13.36h2.822l.41 1.368a1.061 1.061 0 001.018.757h27.625a1.062 1.062 0 001.018-.757l.41-1.368h2.822v25.5zm2.125 25.5v-2.125h3.269a8.559 8.559 0 001.743 2.125H46.75zm17-6.375a6.375 6.375 0 11-6.375-6.375 6.382 6.382 0 016.375 6.375zM59.5 47.36H46.75v-2.125H59.5v2.125zm0-10.625v2.125H46.75v-2.125H59.5zM43.716 6.985h5.159V34.61H46.75V12.298a1.062 1.062 0 00-1.063-1.063h-3.246l1.275-4.25zm-6.586 0l-.708 2.125H16.703l-.708-2.125H37.13zM13.047 4.86l1.883 5.649a1.062 1.062 0 001.008.726h21.25a1.063 1.063 0 001.008-.726l1.882-5.649h2.056l-2.55 8.5H13.54l-2.55-8.5h2.057zM4.25 6.985h5.16l1.274 4.25H7.438a1.062 1.062 0 00-1.063 1.063v48.875a1.062 1.062 0 001.063 1.062h37.187v2.125H4.25V6.985z"/><path d="M21.25 21.86a1.062 1.062 0 00-1.063-1.062h-6.375a1.062 1.062 0 100 2.125h2.126v7.437a1.062 1.062 0 102.124 0v-7.437h2.125a1.062 1.062 0 001.063-1.063zm2.125 9.563a1.063 1.063 0 001.063-1.063v-1.062h4.25v1.062a1.063 1.063 0 002.125 0v-2.125c0-.165-.039-.328-.113-.475l-3.187-6.375a1.062 1.062 0 00-1.9 0l-3.188 6.375c-.074.147-.113.31-.113.475v2.125a1.063 1.063 0 001.063 1.063zm3.188-7.187l1.468 2.937h-2.937l1.468-2.937zm13.313-3.276a1.062 1.062 0 00-1.465.337l-1.755 2.808-1.755-2.808a1.062 1.062 0 10-1.802 1.126l2.304 3.687-2.304 3.687a1.062 1.062 0 101.802 1.126l1.755-2.807 1.755 2.808a1.063 1.063 0 001.803-1.126l-2.305-3.688 2.305-3.687a1.06 1.06 0 00-.338-1.464zm-6.22 14.992a1.062 1.062 0 00-1.501.065l-11.688 12.75a1.062 1.062 0 101.567 1.436l11.687-12.75a1.062 1.062 0 00-.065-1.502zM25.5 38.86a3.187 3.187 0 10-6.375 0 3.187 3.187 0 006.375 0zm-4.25 0a1.062 1.062 0 112.124 0 1.062 1.062 0 01-2.124 0zm9.563 5.313a3.188 3.188 0 100 6.376 3.188 3.188 0 000-6.376zm0 4.25a1.062 1.062 0 110-2.125 1.062 1.062 0 010 2.125zm25.5 6.375v.287a2.124 2.124 0 001.062 3.963h-1.063a1.062 1.062 0 100 2.125 1.063 1.063 0 002.126 0v-.288a2.123 2.123 0 00-1.063-3.962h1.063a1.062 1.062 0 100-2.125 1.062 1.062 0 10-2.126 0z"/></symbol><symbol viewBox="0 0 68 69" id="time" xmlns="http://www.w3.org/2000/svg"><path d="M68 34.61c0-9.082-3.537-17.62-9.958-24.041C51.62 4.147 43.082.61 34 .61S16.38 4.147 9.958 10.57C3.537 16.99 0 25.529 0 34.61c0 9.082 3.537 17.62 9.958 24.042C16.38 65.074 24.918 68.61 34 68.61c3.627 0 7.19-.568 10.603-1.687a16.104 16.104 0 007.194 1.687C60.73 68.61 68 61.341 68 52.407a16.09 16.09 0 00-1.688-7.194A33.953 33.953 0 0068 34.61zM34 65.954c-17.283 0-31.344-14.06-31.344-31.344C2.656 17.327 16.717 3.266 34 3.266S65.344 17.327 65.344 34.61a31.4 31.4 0 01-.937 7.635 16.342 16.342 0 00-3.17-3c.257-1.524.388-3.08.388-4.635C61.625 19.378 49.232 6.985 34 6.985S6.375 19.378 6.375 34.61c0 15.233 12.393 27.625 27.625 27.625 1.555 0 3.11-.131 4.635-.389a16.338 16.338 0 003 3.171 31.404 31.404 0 01-7.635.937zm24.768-28.172a16.105 16.105 0 00-6.971-1.578c-8.935 0-16.203 7.269-16.203 16.203 0 2.494.567 4.858 1.578 6.971-1.05.133-2.11.2-3.172.2-13.768 0-24.969-11.2-24.969-24.968S20.232 9.641 34 9.641s24.969 11.201 24.969 24.97c0 1.06-.068 2.122-.201 3.17zm-6.971 28.172c-7.47 0-13.547-6.077-13.547-13.547 0-7.47 6.077-13.547 13.547-13.547 7.47 0 13.547 6.077 13.547 13.547 0 7.47-6.077 13.547-13.547 13.547z"/><path d="M16.162 34.61c0-.733-.595-1.328-1.328-1.328h-1.818a1.328 1.328 0 100 2.656h1.818c.733 0 1.328-.594 1.328-1.328zm33.76-10.73a1.328 1.328 0 101.328 2.3l1.575-.909a1.328 1.328 0 10-1.328-2.3l-1.575.91zM16.725 43.046l-1.574.91a1.328 1.328 0 101.328 2.3l1.574-.91a1.328 1.328 0 10-1.328-2.3zm6.554-24.325a1.327 1.327 0 102.3-1.328l-.91-1.574a1.328 1.328 0 10-2.3 1.328l.91 1.574zm21.865-3.389a1.328 1.328 0 00-1.814.486l-.909 1.575a1.328 1.328 0 002.3 1.328l.91-1.575a1.328 1.328 0 00-.487-1.814zM25.058 50.064a1.328 1.328 0 00-1.814.486l-.91 1.575a1.328 1.328 0 102.3 1.328l.91-1.574a1.328 1.328 0 00-.486-1.815zm-6.973-26.157l-1.575-.909a1.328 1.328 0 00-1.328 2.3l1.575.91a1.327 1.327 0 101.328-2.3zm17.257 6.671l-.014-16.905c0-.733-.595-1.327-1.328-1.327h-.001c-.733 0-1.328.596-1.327 1.33l.014 16.892a4.259 4.259 0 00-2.723 2.714h-5.534a1.328 1.328 0 100 2.656h5.534a4.25 4.25 0 008.287-1.328 4.25 4.25 0 00-2.908-4.032zM53.779 51.07a51.534 51.534 0 01-.654-.237V46.48c.498.19.817.416.837.43a1.328 1.328 0 001.596-2.123c-.062-.047-1.015-.755-2.433-1.075v-.868a1.328 1.328 0 10-2.656 0v.86c-.124.03-.25.06-.375.099-1.606.482-2.805 1.852-3.13 3.575-.3 1.582.213 3.111 1.336 3.992.556.436 1.24.835 2.169 1.252v5.805c-.691-.078-1.182-.284-1.97-.8a1.328 1.328 0 00-1.455 2.222c1.339.876 2.27 1.161 3.425 1.245v.875a1.328 1.328 0 102.656 0v-1.033c2.216-.592 3.636-2.498 3.953-4.378.416-2.478-.879-4.633-3.3-5.489zm-3.84-1.79c-.334-.262-.478-.815-.365-1.409.09-.477.37-1.036.895-1.352v3.12a5.26 5.26 0 01-.53-.359zm4.519 6.838a2.866 2.866 0 01-1.333 1.963v-4.415c1.46.639 1.423 1.914 1.333 2.452z"/></symbol></svg>