<svg width="53" height="41" viewBox="0 0 53 41" fill="none" xmlns="http://www.w3.org/2000/svg">
<path d="M4.17655 37.9447C8.78151 38.9454 14.8106 39.7091 20.8167 40.0527C23.0052 40.1779 30.2384 40.141 32.7396 39.9919C38.1849 39.6672 44.0492 38.8971 48.5475 37.9161L50.5722 37.4745L51.0514 36.3656C52.1108 33.9141 52.625 27.6415 52.4741 19.0108C52.3519 12.0256 51.9951 8.36315 51.1391 5.30715C50.8508 4.27808 50.6667 3.94402 50.0935 3.41051C49.4138 2.7778 49.3358 2.75134 46.692 2.25749C43.4674 1.65515 40.3119 1.22297 36.2911 0.832955C32.0895 0.4254 21.2115 0.425492 17.0115 0.833117C11.9565 1.32372 6.12715 2.21417 3.44361 2.90566C2.4142 3.17091 1.61997 4.73578 1.28236 7.16396L0.753906 29.9606C1.08716 33.1985 1.7757 35.9687 2.51409 37.0423C2.91133 37.6199 3.06467 37.7031 4.17655 37.9447Z" fill="white"/>
<path d="M20.8168 39.6538C14.8107 39.3102 8.78159 38.5464 4.17663 37.5458C3.06475 37.3042 2.91141 37.2209 2.51417 36.6434C1.77578 35.5697 1.08724 32.7995 0.753987 29.5617C0.307162 25.2203 0.481387 11.9729 1.03076 8.51687C1.06633 8.29312 1.17958 7.50479 1.28244 6.76504C1.62005 4.33686 2.41428 2.77199 3.44369 2.50673C6.12723 1.81525 11.9566 0.924799 17.0116 0.434192C21.2116 0.0265663 32.0895 0.0264747 36.2912 0.434029C40.312 0.824043 43.4674 1.25622 46.692 1.85856C49.3358 2.35242 49.4139 2.37888 50.0936 3.01158C50.6667 3.54509 50.8509 3.87915 51.1391 4.90823C51.9952 7.96423 52.3519 11.6267 52.4741 18.6119C52.6251 27.2425 52.1109 33.5152 51.0515 35.9666L50.5723 37.0756L48.5476 37.5171C44.0493 38.4982 38.185 39.2683 32.7397 39.593C30.2384 39.7421 23.0053 39.779 20.8168 39.6538ZM17.5189 26.9053V18.7688H21.0705H24.622V16.0838V13.3987H13.9674H3.31292V16.0838V18.7688H6.86443H10.4159V26.7968C10.4159 31.2122 10.4667 34.8736 10.5287 34.9332C10.5907 34.9929 12.1889 35.0417 14.0802 35.0417H17.5189V26.9053ZM42.3043 32.9669C43.6184 29.5778 44.0736 28.3843 44.7713 26.4984C45.1355 25.5139 45.5363 24.4887 45.662 24.2202C45.7877 23.9517 46.0238 23.3293 46.1868 22.837C46.3498 22.3448 46.5412 21.8688 46.6123 21.7793C46.6833 21.6898 46.819 21.3603 46.9138 21.047C47.1123 20.3911 47.7388 18.7269 48.863 15.8692C49.2968 14.7666 49.6753 13.5986 49.6753 13.4687C49.6753 13.2685 49.1297 13.3987 46.2339 13.4361L42.8161 13.4801L42.6104 14.0497C42.3334 14.8169 41.3609 17.8438 40.7805 19.7452C40.521 20.5954 40.1716 21.6939 40.004 22.1861C39.8365 22.6784 39.4595 23.85 39.1663 24.7898C38.2242 27.8097 37.918 28.6953 37.8161 28.6953C37.729 28.6953 37.0981 26.8503 35.7016 22.5116C35.4856 21.8403 35.1077 20.6687 34.862 19.9079C34.6162 19.1472 34.2165 17.9023 33.9737 17.1415C33.7309 16.3808 33.3579 15.2457 33.1449 14.6192L32.7575 13.4801L29.1971 13.4362C27.2139 13.4117 25.5893 13.3876 25.5893 13.4677C25.5893 13.5468 25.908 14.3672 26.2397 15.2073C26.5713 16.0474 26.9849 17.1008 27.1587 17.5483C28.1535 20.1089 28.3897 20.7241 28.689 21.5352C28.8707 22.0275 29.0942 22.5767 29.1857 22.7557C29.2772 22.9347 29.6534 23.8866 30.0217 24.8711C30.39 25.8557 30.9281 27.247 31.2176 27.963C31.5071 28.679 32.0466 30.0703 32.4166 31.0548C32.7865 32.0394 33.1918 33.0646 33.3173 33.3331C33.4427 33.6016 33.6363 34.0958 33.7476 34.4315L33.9498 35.0417H37.7248H41.4999L42.3043 32.9669ZM5.66287 9.9742L5.8678 9.31605L6.98584 9.36397C8.28761 9.25207 8.07608 9.27473 8.30153 9.98144C8.49555 10.5896 8.36834 10.6033 8.88714 10.646L9.7015 10.6498L9.03807 8.89175C8.67319 7.92481 8.30136 6.98722 8.21178 6.80822C8.1222 6.62922 7.94598 6.18985 7.82017 5.83184C7.6161 5.25113 7.53216 5.18093 7.04185 5.18093C6.44254 5.18093 6.43031 5.20126 5.42697 7.86596C5.20792 8.44771 4.87127 9.30814 4.67886 9.77802L4.32902 10.6324H4.89348C5.40652 10.6324 5.4766 10.5724 5.66287 9.9742ZM6.45158 7.99851C6.72549 7.1681 6.9939 6.6962 7.09912 6.86001C7.16069 6.95589 7.31996 7.33128 7.45305 7.69424L7.69502 8.35415H7.01465C6.392 8.35415 6.34423 8.32397 6.45158 7.99851ZM12.8429 10.1696C13.4117 9.59826 13.4232 8.76901 13.2522 8.11522C13.1868 7.86538 12.6402 7.49424 12.0924 7.23744C11.0896 6.76724 10.8058 6.23497 11.396 5.93103C11.6565 5.79689 11.8275 5.81535 12.0817 6.16411C12.3777 6.57037 12.9004 6.44266 13.2033 6.40618C13.4749 6.37347 12.8422 5.30392 12.4547 5.10439C11.5287 4.62751 10.3412 5.18205 10.1462 6.18246C9.97136 7.07916 10.3854 7.74837 11.3297 8.09537C11.9028 8.30598 12.1485 8.48885 12.2169 8.79973C12.4083 9.66938 11.481 10.032 11.0973 9.33935C10.7733 8.75463 10.8482 8.84233 10.4247 8.84233C9.84283 8.84233 9.83284 8.72133 10.1464 9.72595C10.3664 10.4308 10.8124 10.621 11.695 10.6274C12.2332 10.6313 12.4819 10.5321 12.8429 10.1696ZM19.2912 10.2437C19.81 9.7445 19.9929 8.83114 19.707 8.16705C19.5457 7.79239 19.2535 7.55985 18.5884 7.27681C17.8629 6.96808 17.6881 6.81817 17.6881 6.50474C17.6881 5.96838 18.1087 5.64141 18.4491 5.91321C18.5886 6.02463 18.7028 6.22153 18.7028 6.35077C18.7028 6.5111 18.8505 6.56939 19.1679 6.53425C19.5512 6.49181 19.6254 6.63918 19.5899 6.07594C19.5353 5.20856 18.2118 4.65568 17.3405 5.10439C16.9333 5.31409 16.4478 5.61464 16.5042 6.62492C16.5411 7.28513 17.2235 7.9629 17.8135 8.10537C18.4776 8.26577 18.7028 8.49356 18.7028 9.00506C18.7028 9.90464 17.7325 9.81872 17.5732 9.21465C17.5009 8.94075 17.3792 8.93351 16.9153 8.93351C16.5962 8.93351 16.3351 8.92037 16.3351 9.01576C16.3351 9.27514 16.6712 9.85314 17.0622 10.2662C17.5579 10.7899 18.7359 10.778 19.2912 10.2437ZM23.9455 10.2255C23.9455 9.83679 24.0662 9.81871 22.9308 9.81871H21.9161V9.00506V8.19142H22.9308C24.1136 8.21421 23.9455 8.17334 23.9455 7.78459C23.9455 7.39585 24.1373 7.37777 22.9308 7.37777H21.9161V6.64549V5.91321H22.9308C24.1136 5.936 23.9455 5.89513 23.9455 5.50639C23.9455 5.10099 24.1767 5.09956 22.3389 5.09956H20.7322V7.86596V10.6324H22.3389C24.2004 10.6324 23.9455 10.6309 23.9455 10.2255ZM28.0043 10.2255C28.0043 9.83679 28.1488 9.81871 26.9896 9.81871H25.9749V9.00506V8.19142H26.9896C28.1251 8.19142 28.0043 8.17334 28.0043 7.78459C28.0043 7.39585 28.1725 7.37777 26.9896 7.37777H25.9749V6.64549V5.91321H26.9896C28.2198 5.91321 28.0043 5.89513 28.0043 5.50639C28.0043 5.10099 28.2356 5.05398 26.3977 5.09956H24.7911V7.86596V10.6324H26.3977C28.1882 10.6324 28.0043 10.6309 28.0043 10.2255ZM30.2036 8.80165L30.2043 6.97095L30.7885 7.86596C31.1099 8.35821 31.6233 9.18116 31.9294 9.69473C32.4265 10.5286 32.5448 10.6287 33.0356 10.6304L33.5853 10.6324V7.86596V5.09956H33.0836H32.582L32.534 6.84743L32.486 8.5953L31.308 6.84743C30.2047 5.21023 30.0949 5.09956 29.5746 5.09956H29.0191V7.86596V10.6324H29.611H30.2029L30.2036 8.80165ZM41.9187 10.1017C43.209 9.15475 43.3825 7.09294 42.2714 5.90962C41.5544 5.14591 40.7511 4.86508 39.6443 4.9912C38.0638 5.17132 37.1368 6.21219 37.1368 7.80671C37.1368 8.90589 37.6173 9.76519 38.5453 10.3257C39.3579 10.8166 41.1025 10.7007 41.9187 10.1017ZM39.2167 9.50823C38.1536 8.86802 37.8641 7.674 38.5383 6.71024C39.3094 5.60814 40.5678 5.56843 41.4392 6.41947C42.0538 7.01972 42.1055 7.72956 41.8972 8.33795C41.475 9.57062 40.3693 9.94861 39.2167 9.50823ZM44.9178 8.80165L44.9193 6.97095L45.5688 7.94732C45.926 8.48433 46.466 9.30814 46.7687 9.77802C47.2577 10.5369 47.3834 10.6324 47.8935 10.6324H48.4678V7.86596V5.09956H47.8759H47.284V6.83686V8.57416L46.7343 7.81882C46.432 7.40338 45.9026 6.6216 45.5578 6.08152C44.9816 5.17898 44.8824 5.09956 44.3317 5.09956H43.7324V7.86596V10.6324H44.3244H44.9163L44.9178 8.80165Z" fill="#0050D4"/>
</svg>
