<svg width="40" height="40" viewBox="0 0 40 40" fill="none" xmlns="http://www.w3.org/2000/svg">
<g clip-path="url(#clip0_619_31396)">
<mask id="mask0_619_31396" style="mask-type:luminance" maskUnits="userSpaceOnUse" x="0" y="0" width="40" height="40">
<path d="M0 7.62939e-06H40V40H0V7.62939e-06Z" fill="white"/>
</mask>
<g mask="url(#mask0_619_31396)">
<path d="M4.31293 25.04C5.09566 26.944 7.42433 27.6563 9.13832 26.516L13.867 23.3698C15.0746 22.5737 16.4838 22.0532 17.9293 22.1068C19.3594 22.1597 20.7016 22.6374 21.7478 23.7641C22.9907 25.1024 24.2139 26.4637 25.5275 27.73C27.9051 30.0219 31.7706 30.0314 33.836 27.7351C35.7031 25.6592 37.2634 23.3165 38.1979 20.6654C39.1448 17.9793 39.1056 16.8282 37.5273 14.3091L29.3489 2.62254L29.3675 6.89903C29.3153 8.30348 27.6515 8.95426 26.476 8.2227L23.0396 5.42403C22.4856 4.92418 22.4658 4.23926 22.8269 3.55653C23.1236 2.99551 23.3807 2.41356 23.7638 1.61481C18.0508 0.816134 19.9707 0.644807 16.6922 4.82981C16.1573 5.51262 15.1817 5.60379 14.5198 5.04325C13.229 3.95004 12.7732 3.9641 11.5234 5.13325L3.41441 13.0469C1.21894 14.7485 0.595663 16.5391 1.62168 18.9114L4.31293 25.04Z" stroke="#1F4FC9" stroke-width="2" stroke-miterlimit="10" stroke-linecap="round" stroke-linejoin="round"/>
<path d="M27.1621 34.1406H33.916C33.4914 36.1638 32.1402 38.8281 30.5391 38.8281C28.9378 38.8281 27.5868 36.1638 27.1621 34.1406Z" stroke="#1F4FC9" stroke-width="2" stroke-miterlimit="10" stroke-linecap="round" stroke-linejoin="round"/>
</g>
</g>
<defs>
<clipPath id="clip0_619_31396">
<rect width="40" height="40" fill="white"/>
</clipPath>
</defs>
</svg>
