<svg width="40" height="40" viewBox="0 0 40 40" fill="none" xmlns="http://www.w3.org/2000/svg">
<mask id="mask0_619_31375" style="mask-type:luminance" maskUnits="userSpaceOnUse" x="0" y="0" width="40" height="40">
<path d="M0 7.62939e-06H40V40H0V7.62939e-06Z" fill="white"/>
</mask>
<g mask="url(#mask0_619_31375)">
<path d="M10.5859 22.1797C10.5859 20.6942 11.7902 19.49 13.2757 19.49C14.7612 19.49 15.9654 20.6942 15.9654 22.1797" stroke="#1F4FC9" stroke-width="2" stroke-miterlimit="10"/>
<path d="M24.0352 22.1797C24.0352 20.6942 25.2394 19.49 26.7248 19.49C28.2104 19.49 29.4146 20.6942 29.4146 22.1797" stroke="#1F4FC9" stroke-width="2" stroke-miterlimit="10"/>
<path d="M15.3652 27.5591C16.3009 29.1448 18.0259 30.2092 20.0005 30.2092C21.975 30.2092 23.7 29.1448 24.6357 27.5591" stroke="#1F4FC9" stroke-width="2" stroke-miterlimit="10"/>
<path d="M38.8281 21.7109C38.8281 23.9125 37.0648 25.7023 34.8726 25.7438C33.1008 32.2961 27.1133 37.1172 20 37.1172C12.8867 37.1172 6.89922 32.2961 5.12734 25.7438C2.93516 25.7023 1.17188 23.9125 1.17188 21.7109C1.17188 20.5969 1.62344 19.5883 2.35312 18.8578C3.06641 18.1453 4.04453 17.6984 5.12734 17.6781C6.89922 11.1258 12.8867 6.30469 20 6.30469C27.1133 6.30469 33.1008 11.1258 34.8726 17.6781C35.9555 17.6984 36.9336 18.1453 37.6469 18.8578C38.3766 19.5883 38.8281 20.5969 38.8281 21.7109Z" stroke="#1F4FC9" stroke-width="2" stroke-miterlimit="10"/>
<path d="M14.9872 11.3182C14.9872 14.087 17.2317 16.3315 20.0005 16.3315C22.7694 16.3315 25.014 14.087 25.014 11.3182C25.014 8.54936 22.7694 6.30482 20.0005 6.30482H19.2148C16.6778 6.30482 14.6211 4.2481 14.6211 1.711" stroke="#1F4FC9" stroke-width="2" stroke-miterlimit="10"/>
<path d="M19.9991 6.30469H13.834C11.2969 6.30469 9.24023 4.24797 9.24023 1.71094" stroke="#1F4FC9" stroke-width="2" stroke-miterlimit="10"/>
</g>
</svg>
