<svg width="25" height="25" viewBox="0 0 25 25" fill="none" xmlns="http://www.w3.org/2000/svg">
<rect x="0.167969" y="0.5" width="24" height="24" rx="12" fill="#1F4FC9"/>
<path d="M17.9555 11.9396L13.1552 6.73032C13.0182 6.58162 12.8355 6.5 12.6408 6.5C12.4458 6.5 12.2633 6.58174 12.1263 6.73032L11.6905 7.20339C11.5535 7.35185 11.4781 7.55015 11.4781 7.76159C11.4781 7.97291 11.5535 8.1779 11.6905 8.32636L14.4909 11.372H6.88607C6.48493 11.372 6.16797 11.7128 6.16797 12.1482V12.817C6.16797 13.2524 6.48493 13.6276 6.88607 13.6276H14.5227L11.6906 16.6902C11.5536 16.8389 11.4782 17.0318 11.4782 17.2432C11.4782 17.4544 11.5536 17.6501 11.6906 17.7987L12.1264 18.2703C12.2634 18.419 12.4459 18.5 12.6409 18.5C12.8356 18.5 13.0183 18.4179 13.1553 18.2692L17.9556 13.0601C18.093 12.9109 18.1685 12.7118 18.168 12.5001C18.1684 12.2877 18.093 12.0885 17.9555 11.9396Z" fill="white"/>
</svg>
