<svg width="19" height="18" viewBox="0 0 19 18" fill="none" xmlns="http://www.w3.org/2000/svg">
<path d="M9.88428 1.5C5.75178 1.5 2.38428 4.8675 2.38428 9C2.38428 13.1325 5.75178 16.5 9.88428 16.5C14.0168 16.5 17.3843 13.1325 17.3843 9C17.3843 4.8675 14.0168 1.5 9.88428 1.5ZM13.4693 7.275L9.21678 11.5275C9.11178 11.6325 8.96928 11.6925 8.81928 11.6925C8.66928 11.6925 8.52678 11.6325 8.42178 11.5275L6.29928 9.405C6.08178 9.1875 6.08178 8.8275 6.29928 8.61C6.51678 8.3925 6.87678 8.3925 7.09428 8.61L8.81928 10.335L12.6743 6.48C12.8918 6.2625 13.2518 6.2625 13.4693 6.48C13.6868 6.6975 13.6868 7.05 13.4693 7.275Z" fill="white"/>
</svg>
