<svg width="553" height="552" viewBox="0 0 553 552" fill="none" xmlns="http://www.w3.org/2000/svg">
<path d="M429.375 543.873L411.116 525.613C400.282 514.779 382.713 514.779 371.877 525.613L353.619 543.873C342.783 554.709 325.214 554.709 314.378 543.873L296.121 525.613C285.285 514.779 267.715 514.779 256.879 525.613L238.622 543.873C227.786 554.709 210.217 554.709 199.383 543.873L181.123 525.613C170.287 514.779 152.718 514.779 141.884 525.613L123.624 543.873C112.789 554.709 95.221 554.709 84.3852 543.873L8.62687 468.116C-2.20707 457.28 -2.20707 439.712 8.62687 428.876L26.8864 410.617C37.7223 399.781 37.7223 382.213 26.8864 371.378L8.62687 353.119C-2.20707 342.283 -2.20707 324.715 8.62687 313.88L26.8864 295.62C37.7223 284.784 37.7223 267.217 26.8864 256.381L8.62687 238.12C-2.20896 227.285 -2.20688 209.717 8.62895 198.881L26.8864 180.624C37.7223 169.788 37.7223 152.22 26.8864 141.384L8.62687 123.123C-2.20896 112.288 -2.20896 94.7199 8.62687 83.8853L84.3852 8.12683C95.221 -2.70898 112.789 -2.70898 123.624 8.12683L141.884 26.3855C152.718 37.2214 170.287 37.2214 181.123 26.3855L199.383 8.12683C210.217 -2.70898 227.786 -2.70898 238.622 8.12683L256.879 26.3855C267.715 37.2214 285.285 37.2214 296.121 26.3855L314.378 8.12683C325.214 -2.70898 342.783 -2.70898 353.619 8.12683L371.877 26.3855C382.713 37.2214 400.282 37.2214 411.116 26.3855L429.375 8.12683C440.211 -2.70898 457.779 -2.70898 468.615 8.12683L544.373 83.8841C555.209 94.7199 555.209 112.287 544.373 123.123L526.113 141.383C515.278 152.219 515.278 169.786 526.113 180.622L544.373 198.881C555.209 209.716 555.209 227.285 544.373 238.12L526.113 256.38C515.278 267.215 515.278 284.783 526.113 295.619L544.373 313.879C555.209 324.715 555.209 342.283 544.373 353.118L526.113 371.376C515.278 382.212 515.278 399.779 526.113 410.615L544.375 428.876C555.209 439.712 555.209 457.279 544.373 468.115L506.495 505.993L468.615 543.873C457.779 554.709 440.211 554.709 429.375 543.873Z" fill="#F0F0F4"/>
</svg>
