<svg width="217" height="217" viewBox="0 0 217 217" fill="none" xmlns="http://www.w3.org/2000/svg">
<path d="M163.785 209.75L163.784 209.75L156.97 202.934C155.497 201.461 153.499 200.634 151.416 200.634C149.333 200.634 147.335 201.461 145.863 202.934L139.048 209.75L139.048 209.75C136.637 212.161 133.368 213.515 129.958 213.515C126.549 213.515 123.28 212.161 120.868 209.751L120.867 209.75L114.054 202.936C114.054 202.936 114.054 202.936 114.054 202.936C112.582 201.463 110.584 200.636 108.501 200.636C106.418 200.636 104.42 201.463 102.945 202.937L96.1323 209.75L96.1323 209.75C93.7218 212.161 90.4524 213.515 87.0431 213.515C83.6341 213.515 80.363 212.161 77.9522 209.75L77.9521 209.75L71.1389 202.936C69.6662 201.463 67.6671 200.636 65.5852 200.636C63.5017 200.636 61.5028 201.463 60.0302 202.936C60.0302 202.936 60.0302 202.936 60.0301 202.936L53.217 209.75L53.2169 209.75C50.8061 212.161 47.535 213.515 44.126 213.515C40.7184 213.515 37.4473 212.161 35.0366 209.75C35.0366 209.75 35.0366 209.75 35.0366 209.75L6.76639 181.479C4.35359 179.068 3 175.798 3 172.389C3 168.98 4.3533 165.71 6.76566 163.299C6.7659 163.299 6.76615 163.299 6.76639 163.298L13.5789 156.485L13.58 156.484C14.3096 155.755 14.8879 154.89 15.2826 153.937C15.6773 152.984 15.8803 151.963 15.8803 150.931C15.8803 149.899 15.6773 148.878 15.2826 147.925C14.8879 146.972 14.3096 146.107 13.58 145.378L13.5788 145.377L6.76675 138.564C6.7667 138.564 6.76665 138.564 6.7666 138.564C5.57099 137.369 4.6244 135.952 3.97852 134.393L3.97848 134.392C3.33244 132.833 3 131.161 3 129.473C3 127.785 3.33241 126.114 3.97848 124.554C4.62438 122.995 5.57106 121.577 6.76687 120.383L13.5788 113.569L13.5796 113.569C15.0532 112.096 15.8803 110.099 15.8803 108.015C15.8803 105.932 15.0532 103.935 13.5796 102.462L13.5788 102.461L6.76632 95.6476C4.35359 93.2364 3 89.9664 3 86.5573C3 83.1487 4.35332 79.8788 6.76572 77.4678C6.76594 77.4675 6.76617 77.4673 6.7664 77.4671L13.5789 70.6541C15.0522 69.1806 15.8803 67.1825 15.8803 65.1C15.8803 63.0174 15.0523 61.0194 13.579 59.5459C13.579 59.5458 13.5789 59.5457 13.5789 59.5457L6.76434 52.7314L6.76417 52.7312C4.35355 50.3203 3 47.0507 3 43.6417C3 40.2327 4.35356 36.9632 6.76417 34.5522L6.76432 34.5521L35.0367 6.28021C37.4471 3.86958 40.7166 2.51514 44.126 2.51514C47.5355 2.51514 50.805 3.86958 53.2155 6.28029L60.03 13.0943L60.0301 13.0944C61.5029 14.5673 63.5004 15.3948 65.5837 15.3948C67.6671 15.3948 69.6647 14.5673 71.1375 13.0944L71.1376 13.0943L77.9522 6.28029C80.3626 3.86963 83.6319 2.51514 87.0414 2.51514C90.451 2.51514 93.72 3.86969 96.1316 6.2796L96.1323 6.28033L102.946 13.0944C104.418 14.5673 106.416 15.3948 108.499 15.3948C110.582 15.3948 112.58 14.5677 114.054 13.0945C114.055 13.0943 114.055 13.0941 114.055 13.0938C114.055 13.0938 114.055 13.0938 114.055 13.0937L120.867 6.28036L122.635 8.04799L120.868 6.28029C123.278 3.86958 126.548 2.51514 129.957 2.51514C133.367 2.51514 136.636 3.86969 139.047 6.2796L139.048 6.28033L145.861 13.0944C147.334 14.5672 149.333 15.3948 151.415 15.3948C153.498 15.3948 155.497 14.567 156.97 13.0944L163.783 6.28033L165.551 8.04799L163.783 6.2803C166.194 3.86949 169.465 2.51514 172.872 2.51514C176.281 2.51514 179.552 3.86928 181.963 6.2802C181.963 6.28023 181.963 6.28027 181.963 6.2803L210.234 34.5504L210.234 34.5508C211.426 35.7432 212.375 37.1597 213.022 38.7207C213.668 40.2803 214 41.9518 214 43.6399C214 45.3279 213.668 46.9994 213.022 48.559C212.375 50.12 211.426 51.5365 210.234 52.7289L210.234 52.7294L203.42 59.5435C203.42 59.5437 203.419 59.5437 203.419 59.5439C202.691 60.2729 202.112 61.1388 201.717 62.0919C201.323 63.0448 201.12 64.0662 201.12 65.0978C201.12 66.1293 201.323 67.1506 201.717 68.1035C202.112 69.0565 202.69 69.9223 203.419 70.6513C203.419 70.6514 203.419 70.6515 203.419 70.6516C203.419 70.6517 203.42 70.6517 203.42 70.6518L210.234 77.4642L210.234 77.4645C212.644 79.8748 214 83.1441 214 86.554C214 89.964 212.644 93.2334 210.234 95.6436L210.234 95.6439L203.419 102.458C203.419 102.458 203.419 102.458 203.419 102.458C201.947 103.931 201.12 105.928 201.12 108.012C201.12 110.095 201.947 112.093 203.419 113.566C203.419 113.566 203.419 113.566 203.419 113.566L210.234 120.38L210.234 120.381C212.644 122.791 214 126.06 214 129.47C214 132.88 212.644 136.149 210.234 138.56L203.421 145.373L201.653 143.606L203.421 145.373C201.948 146.847 201.12 148.845 201.12 150.928C201.12 153.01 201.948 155.008 203.421 156.482L210.236 163.296L210.236 163.296C212.646 165.707 214 168.977 214 172.386C214 175.795 212.646 179.064 210.236 181.475L210.236 181.475L196.1 195.611L196.099 195.611L181.963 209.75L181.963 209.75C179.553 212.161 176.283 213.515 172.874 213.515C169.465 213.515 166.195 212.161 163.785 209.75Z" fill="#1F4FC9" stroke="white" stroke-width="5"/>
<path d="M47.3231 46.0014C53.4835 46.0014 54.4705 45.2073 61.0008 45.2073C75.0485 45.2073 83.0587 54.6156 83.0587 66.5904V87.9734H68.9495V65.8573C68.9495 60.6643 65.0673 57.7317 61.0008 57.7317C56.9343 57.7317 53.0535 60.6643 53.0535 65.8573V87.9734H38.9414V45.2073C41.7003 45.7626 44.5088 46.0289 47.3231 46.0014ZM135.343 45.1464H179.396V58.1593H172.064C167.689 58.1593 164.424 61.4585 164.424 65.7964V87.9736H150.315V65.7964C150.315 61.3975 147.111 58.1593 142.675 58.1593H135.343V45.1464ZM135.343 93.0108H179.396V106.024H172.064C167.689 106.024 164.424 109.323 164.424 113.661V135.837H150.315V113.66C150.315 109.261 147.111 106.023 142.675 106.023H135.343V93.0108ZM86.0782 154.727C86.0423 158.509 87.0487 162.23 88.9913 165.486C90.9789 168.766 93.7888 171.479 97.1468 173.362C100.506 175.246 104.299 176.236 108.157 176.236C112.015 176.236 115.809 175.246 119.167 173.362C122.525 171.479 125.335 168.766 127.324 165.486C129.265 162.23 130.272 158.509 130.237 154.727H86.0782ZM115.661 66.5915C115.661 62.5592 112.518 58.8934 108.206 58.8934C103.954 58.8934 100.689 62.3761 100.689 66.5915C100.689 70.5016 103.708 74.1674 108.206 74.1674C109.198 74.1588 110.179 73.9556 111.091 73.5695C112.005 73.1835 112.83 72.6222 113.524 71.9181C114.217 71.2138 114.762 70.3807 115.129 69.4665C115.496 68.5523 115.677 67.5752 115.661 66.5915ZM108.205 45.1473C114.737 45.1473 115.661 45.9414 121.884 45.9414C124.697 45.9688 127.505 45.7026 130.263 45.1473V87.973C127.505 87.4174 124.697 87.1509 121.884 87.1779C115.661 87.1779 114.737 87.9721 108.206 87.9721C95.5755 87.9721 86.1486 78.3193 86.1486 66.589C86.1486 54.2481 96.1911 45.1449 108.206 45.1449L108.205 45.1473ZM115.661 114.454C115.661 110.422 112.518 106.756 108.206 106.756C103.954 106.756 100.691 110.239 100.691 114.454C100.691 118.365 103.708 122.03 108.206 122.03C109.198 122.021 110.179 121.818 111.091 121.432C112.005 121.046 112.832 120.485 113.524 119.781C114.217 119.077 114.762 118.243 115.129 117.329C115.496 116.415 115.677 115.438 115.661 114.454ZM108.206 93.0102C114.737 93.0102 115.661 93.8043 121.884 93.8043C124.697 93.8317 127.505 93.5654 130.263 93.0102V135.837C127.505 135.281 124.697 135.015 121.884 135.043C115.661 135.043 114.737 135.837 108.206 135.837C95.5755 135.837 86.1486 126.184 86.1486 114.453C86.1486 102.113 96.1911 93.0102 108.206 93.0102ZM62.4042 92.9842C55.9653 93.0099 54.3117 93.7142 48.1228 93.7142C45.0479 93.7181 41.9791 93.4731 38.9431 92.9818V119.33V138.514H53.052V131.263C56.0851 131.71 58.7212 132.393 62.7607 132.393C74.3835 132.393 83.0587 123.511 83.0587 112.716C83.0587 101.378 73.9341 93.0102 62.4042 92.9842ZM60.5276 120.763C59.5361 120.754 58.555 120.551 57.6428 120.165C56.7292 119.779 55.9024 119.218 55.2104 118.514C54.5169 117.809 53.9717 116.976 53.6048 116.062C53.2378 115.148 53.0566 114.171 53.0731 113.187C53.0731 109.155 56.2155 105.489 60.5276 105.489C64.7798 105.489 68.0449 108.971 68.0449 113.187C68.0449 117.097 65.0254 120.763 60.5276 120.763Z" fill="white"/>
</svg>
