<svg width="74" height="73" viewBox="0 0 74 73" fill="none" xmlns="http://www.w3.org/2000/svg">
<g filter="url(#filter0_b_4302_547)">
<path d="M39.9471 8.94825C41.8602 7.58322 44.5323 8.15376 45.721 10.1811L46.9776 12.3241C47.766 13.6687 49.2637 14.4328 50.8151 14.282L53.2951 14.041C55.637 13.8133 57.6685 15.6465 57.682 17.9994L57.696 20.4541C57.7049 22.0169 58.6231 23.4313 60.0469 24.0756L62.2968 25.0937C64.4457 26.0661 65.291 28.6771 64.1197 30.7244L62.9117 32.8359C62.1336 34.1959 62.2212 35.8849 63.1358 37.1572L64.5601 39.1384C65.9385 41.0558 65.3646 43.7438 63.3233 44.931L61.214 46.1578C59.8595 46.9455 59.0897 48.4515 59.2445 50.0107L59.4849 52.4315C59.7179 54.7786 57.8799 56.8167 55.5213 56.8266L53.0517 56.837C51.4889 56.8436 50.0731 57.7597 49.4267 59.1825L48.4114 61.4174C47.4382 63.5597 44.8351 64.4033 42.7903 63.239L40.6251 62.0061C39.2706 61.2348 37.5914 61.3207 36.3225 62.226L34.3003 63.6689C32.3873 65.0339 29.7152 64.4634 28.5265 62.4361L27.2699 60.2931C26.4815 58.9485 24.9838 58.1843 23.4324 58.3351L20.9524 58.5762C18.6105 58.8038 16.5789 56.9707 16.5655 54.6177L16.5515 52.163C16.5426 50.6003 15.6244 49.1858 14.2006 48.5416L11.9506 47.5235C9.80176 46.5511 8.95644 43.94 10.1278 41.8928L11.3358 39.7813C12.1139 38.4213 12.0263 36.7322 11.1117 35.46L9.68739 33.4787C8.30895 31.5613 8.88289 28.8734 10.9242 27.6861L13.0335 26.4594C14.388 25.6716 15.1578 24.1656 15.003 22.6065L14.7626 20.1857C14.5296 17.8386 16.3676 15.8005 18.7262 15.7905L21.1958 15.7801C22.7586 15.7736 24.1744 14.8575 24.8208 13.4346L25.8361 11.1997C26.8093 9.05744 29.4124 8.21389 31.4571 9.37816L33.6224 10.611C34.9769 11.3823 36.6561 11.2965 37.9249 10.3911L39.9471 8.94825Z" fill="#FE23A5" fill-opacity="0.65"/>
</g>
<path d="M27.9175 27.7247C27.9301 27.666 27.9577 27.6228 28.0004 27.5951C28.0574 27.5582 28.1152 27.546 28.1739 27.5585L30.2334 27.9983C30.2921 28.0108 30.334 28.0443 30.3592 28.0988C30.3987 28.144 30.4121 28.196 30.3996 28.2546L27.8587 40.1544C27.8462 40.2131 27.8115 40.2609 27.7545 40.2978C27.7118 40.3255 27.6611 40.3331 27.6024 40.3206L25.6132 39.8958C25.4959 39.8708 25.4238 39.8063 25.3969 39.7024L22.4463 31.1947C22.4304 31.1545 22.4094 31.1378 22.3834 31.1445C22.36 31.1395 22.3432 31.1604 22.3332 31.2074L20.7823 38.6435C20.7697 38.7021 20.735 38.7499 20.678 38.7868C20.6353 38.8145 20.5846 38.8221 20.5259 38.8096L18.4663 38.3698C18.4077 38.3573 18.3586 38.3284 18.3192 38.2832C18.294 38.2287 18.2877 38.1722 18.3002 38.1135L20.841 26.2137C20.8536 26.155 20.8812 26.1119 20.9239 26.0842C20.9809 26.0473 21.0387 26.0351 21.0974 26.0476L23.0865 26.4723C23.2039 26.4974 23.276 26.5618 23.3029 26.6658L26.2434 35.1344C26.2593 35.1747 26.279 35.1973 26.3025 35.2023C26.3285 35.1956 26.3465 35.1687 26.3565 35.1218L27.9175 27.7247ZM40.6353 32.2255C40.6228 32.2842 40.588 32.332 40.531 32.3689C40.4883 32.3966 40.4376 32.4042 40.3789 32.3917L34.6051 31.1588C34.5464 31.1463 34.5108 31.1694 34.4983 31.2281L33.9157 33.9566C33.9032 34.0152 33.9262 34.0508 33.9849 34.0634L37.7696 34.8715C37.8283 34.884 37.8702 34.9175 37.8954 34.9719C37.9348 35.0172 37.9483 35.0691 37.9357 35.1278L37.5712 36.8353C37.5586 36.894 37.5239 36.9418 37.4669 36.9787C37.4242 37.0064 37.3735 37.014 37.3148 37.0015L33.5301 36.1933C33.4714 36.1808 33.4358 36.2039 33.4233 36.2626L32.8144 39.1143C32.8019 39.173 32.825 39.2086 32.8836 39.2211L38.6575 40.4539C38.7162 40.4665 38.7581 40.4999 38.7833 40.5544C38.8227 40.5996 38.8362 40.6516 38.8236 40.7103L38.459 42.4178C38.4465 42.4765 38.4118 42.5243 38.3548 42.5612C38.3121 42.5889 38.2614 42.5964 38.2027 42.5839L30.07 40.8474C30.0113 40.8349 29.9623 40.806 29.9229 40.7608C29.8977 40.7063 29.8914 40.6498 29.9039 40.5911L32.4447 28.6913C32.4572 28.6326 32.4849 28.5895 32.5276 28.5618C32.5846 28.5249 32.6424 28.5127 32.7011 28.5252L40.8337 30.2617C40.8924 30.2742 40.9343 30.3077 40.9595 30.3622C40.9989 30.4074 41.0124 30.4593 40.9999 30.518L40.6353 32.2255ZM42.9704 43.6019C42.8413 43.5743 42.7717 43.4981 42.7616 43.3733L42.1904 30.7906L42.1878 30.7164C42.2104 30.6108 42.2862 30.5718 42.4153 30.5994L44.5981 31.0654C44.7154 31.0905 44.7792 31.1654 44.7893 31.2903L44.9319 38.8119C44.9336 38.8613 44.9462 38.8886 44.9696 38.8936C44.9931 38.8986 45.0157 38.8789 45.0375 38.8344L48.183 32.0333C48.2458 31.9118 48.3358 31.8635 48.4532 31.8886L50.5832 32.3434C50.7122 32.3709 50.7819 32.4471 50.792 32.572L51.0226 40.1124C51.0268 40.1501 51.0394 40.1773 51.0604 40.1941C51.0838 40.1991 51.1064 40.1794 51.1282 40.1349L54.2737 33.3338C54.3365 33.2122 54.4265 33.164 54.5439 33.189L56.6211 33.6326C56.7854 33.6676 56.8336 33.7577 56.7658 33.9028L51.3343 45.2037C51.2741 45.3135 51.1794 45.3547 51.0503 45.3271L48.9555 44.8798C48.8381 44.8548 48.7744 44.7798 48.7642 44.6549L48.5962 36.6494C48.5945 36.5999 48.5819 36.5727 48.5584 36.5677C48.535 36.5627 48.5123 36.5824 48.4906 36.6268L45.1946 43.8743C45.1435 43.9984 45.0535 44.0467 44.9244 44.0191L42.9704 43.6019Z" fill="white"/>
<defs>
<filter id="filter0_b_4302_547" x="4.93555" y="4.20361" width="64.377" height="64.21" filterUnits="userSpaceOnUse" color-interpolation-filters="sRGB">
<feFlood flood-opacity="0" result="BackgroundImageFix"/>
<feGaussianBlur in="BackgroundImageFix" stdDeviation="2"/>
<feComposite in2="SourceAlpha" operator="in" result="effect1_backgroundBlur_4302_547"/>
<feBlend mode="normal" in="SourceGraphic" in2="effect1_backgroundBlur_4302_547" result="shape"/>
</filter>
</defs>
</svg>
