<svg width="54" height="151" viewBox="0 0 54 151" fill="none" xmlns="http://www.w3.org/2000/svg">
<g clip-path="url(#clip0_4301_481)">
<path d="M16.3547 50.8887C15.9292 50.2672 15.296 49.7555 14.4352 49.4512C13.7167 49.1975 13.1961 48.515 13.2239 47.8644L13.2338 47.6371C13.2863 46.4028 13.9115 45.3318 14.9488 44.6994C15.2454 44.5182 15.2731 44.116 15.01 43.8006C14.7475 43.4851 14.2938 43.3763 13.9974 43.5571C12.6678 44.3678 11.8667 45.7397 11.7992 47.3213L11.7897 47.5489C11.7629 48.1725 11.989 48.8315 12.4262 49.4039C12.8636 49.977 13.4835 50.4266 14.1721 50.6702C14.5225 50.7941 14.8117 50.9625 15.0672 51.2633C15.4622 51.1101 15.9028 50.9787 16.3547 50.8887Z" fill="white"/>
<path d="M25.4295 58.1119C26.4479 59.2215 28.0687 59.6375 29.2345 59.08L29.44 58.9825C30.8686 58.3005 31.8169 57.0259 32.0417 55.485C32.092 55.1414 31.814 54.7666 31.4209 54.6488C31.0276 54.5303 30.6684 54.7134 30.6179 55.0573C30.4426 56.2594 29.7023 57.2544 28.5873 57.7863L28.3821 57.8845C27.8349 58.1457 27.0081 58.008 26.3983 57.3385C25.852 56.7436 25.1205 56.3388 24.3728 56.1892C24.4642 56.6268 24.5183 57.083 24.5326 57.5206C24.9098 57.6378 25.1827 57.8409 25.4295 58.1119Z" fill="white"/>
<path d="M9.03226 50.1545C9.35676 51.268 10.3907 52.2091 11.6055 52.4962C12.0578 52.6031 12.2445 52.6297 12.5266 52.7934C12.8535 52.5121 13.1976 52.2563 13.5561 52.0285C12.8294 51.4499 12.1867 51.342 11.6856 51.2238C11.0861 51.0818 10.5756 50.6175 10.4156 50.0678L9.88331 48.2399C9.77771 47.8775 9.38218 47.6024 9.00032 47.6266C8.61825 47.6502 8.39394 47.9639 8.49996 48.3266L9.03226 50.1545Z" fill="white"/>
<path d="M25.8949 60.616C25.5905 60.2023 25.2405 59.6529 24.4214 59.2098C24.3527 59.6292 24.2522 60.046 24.1213 60.4574C24.2603 60.5614 24.3855 60.6855 24.4899 60.8274L24.7557 61.1884C25.4958 62.1934 26.7669 62.7759 27.9184 62.6381L29.8087 62.4115C30.184 62.3669 30.3846 62.0377 30.2566 61.6769C30.1293 61.3161 29.7212 61.06 29.3464 61.1049L27.4561 61.3314C26.8877 61.3997 26.2605 61.112 25.8949 60.616Z" fill="white"/>
<path d="M8.51415 57.3083C7.10604 57.244 5.8212 57.6505 4.89616 58.4524L3.18042 59.9392C2.88316 60.1974 2.98392 60.6976 3.39184 60.9672C3.6824 61.1593 4.05021 61.172 4.27252 60.9791L5.98826 59.4922C6.69059 58.8829 7.6663 58.5745 8.73567 58.6236L9.28357 58.6488C9.34494 58.2148 9.43959 57.783 9.56657 57.3564L8.51415 57.3083Z" fill="white"/>
<path d="M21.905 69.6947C22.2802 68.5294 22.1508 67.188 21.5397 65.9178L21.0831 64.9684C20.7404 65.2523 20.3802 65.5087 20.005 65.7352C20.2807 66.308 21.0072 67.5875 20.5204 69.0974L19.8248 71.2586C19.7217 71.5781 19.9385 71.9742 20.328 72.144C20.7106 72.3089 21.1048 72.1796 21.2094 71.8559L21.905 69.6947Z" fill="white"/>
<path d="M10.4976 55.2275C10.7069 54.8705 10.94 54.5274 11.1901 54.2038C10.2967 53.745 9.30912 53.5318 8.37933 53.6163L4.80671 53.9414C4.42823 53.9762 4.21576 54.2976 4.33235 54.6591C4.44915 55.0212 4.85015 55.2868 5.22983 55.2523L8.80245 54.9272C9.36045 54.8764 9.94968 54.9844 10.4976 55.2275Z" fill="white"/>
<path d="M26.0905 68.0098L24.9896 64.5955C24.703 63.7069 24.1198 62.8819 23.3477 62.2397C23.1475 62.5973 22.9232 62.9462 22.6772 63.278C23.1155 63.6868 23.4458 64.1866 23.6178 64.7199L24.7187 68.1342C24.8355 68.4963 25.2365 68.7619 25.6161 68.7274C25.9944 68.693 26.2068 68.3716 26.0905 68.0098Z" fill="white"/>
<path d="M22.8872 53.1647C23.1156 53.4342 23.3224 53.7226 23.5069 54.0274C23.6456 53.7499 23.9176 53.2851 23.7684 52.5054L24.8632 51.3252C25.0889 51.0747 25.0077 50.6579 24.6822 50.3946C24.3562 50.131 23.9092 50.1205 23.6833 50.3713L23.0209 51.0721C22.6231 50.6399 22.1185 50.3134 21.592 50.1261L21.9975 49.2571C22.1392 48.9507 21.9546 48.5432 21.5846 48.3472C21.2143 48.1507 20.7994 48.2396 20.6575 48.5454L19.9813 49.9978C19.2048 50.1666 18.8773 50.6083 18.6822 50.8378C19.0348 50.8881 19.381 50.9657 19.7185 51.0702C20.9517 51.4498 22.0574 52.1822 22.8872 53.1647Z" fill="white"/>
<path d="M22.9348 59.0946C23.38 56.9847 22.9596 54.3444 20.7834 52.906C18.6084 51.4683 16.0193 52.1106 14.2468 53.3518C14.5111 58.3823 18.1965 60.8251 22.9348 59.0946Z" fill="white"/>
<path d="M22.413 60.7125C21.6254 60.8954 20.8481 60.9772 20.0896 60.9562C17.2246 60.8771 14.8451 59.3062 13.6483 56.6985C13.3317 56.0089 13.1023 55.2617 12.962 54.4654C11.481 56.0417 10.4615 58.3136 10.6335 60.6361C10.7486 62.1939 11.4198 63.7885 12.9299 64.7867C14.4398 65.7847 16.1691 65.7782 17.6488 65.2732C19.8584 64.5192 21.5461 62.6861 22.413 60.7125Z" fill="white"/>
</g>
<path d="M12.0683 68.0001C8.84991 81.9356 7.65971 111.131 37.721 113.028C80.5812 118.393 85.8132 142.664 84.8701 148.403" stroke="white" stroke-linecap="round" stroke-dasharray="2 2"/>
<path fill-rule="evenodd" clip-rule="evenodd" d="M2.84502 5.95798C1.74946 6.09876 0.975455 7.10102 1.11624 8.19658L4.74332 36.4222C4.8841 37.5177 5.88635 38.2917 6.98191 38.1509L11.9225 37.5161C12.2104 37.4791 12.5002 37.569 12.7165 37.7625L17.0823 41.6668C17.5708 42.1037 18.3405 41.9604 18.6391 41.377L20.9869 36.7895C21.1371 36.4959 21.4225 36.2953 21.7496 36.2532L50.0877 32.6117C51.1833 32.4709 51.9573 31.4687 51.8165 30.3731L48.1894 2.14752C48.0487 1.05196 47.0464 0.277957 45.9508 0.418741L2.84502 5.95798Z" fill="white"/>
<path d="M11.8 18.6994C11.2049 18.7759 10.6619 18.7247 10.1711 18.5458C9.67928 18.3589 9.27786 18.0597 8.96685 17.6479C8.66377 17.2352 8.47501 16.7392 8.40058 16.16L8.05186 13.4463C7.97845 12.875 8.04066 12.3548 8.23849 11.8858C8.4353 11.4088 8.74455 11.0222 9.16624 10.7261C9.59485 10.421 10.1067 10.2302 10.7018 10.1537C11.3049 10.0762 11.8483 10.1314 12.3322 10.3192C12.823 10.4981 13.2239 10.7935 13.5349 11.2052C13.8449 11.609 14.0366 12.0965 14.11 12.6678L14.4588 15.3815C14.5332 15.9607 14.472 16.4888 14.2752 16.9658C14.0784 17.4428 13.7657 17.8338 13.3371 18.1389C12.9154 18.4351 12.403 18.6219 11.8 18.6994ZM11.647 17.5092C12.1469 17.445 12.5277 17.2388 12.7895 16.8906C13.0512 16.5424 13.1495 16.1143 13.0842 15.6065L12.7279 12.8333C12.6616 12.3176 12.4578 11.9243 12.1165 11.6536C11.7752 11.3829 11.3547 11.2797 10.8548 11.3439C10.3628 11.4071 9.98595 11.6128 9.7242 11.961C9.46244 12.3092 9.3647 12.7412 9.43098 13.257L9.78734 16.0302C9.8526 16.538 10.0559 16.9273 10.3972 17.198C10.7384 17.4687 11.1551 17.5724 11.647 17.5092ZM18.8087 17.7746C18.1818 17.8551 17.6219 17.7658 17.1288 17.5065C16.6437 17.2462 16.2736 16.8461 16.0188 16.3062C15.8288 15.8951 15.7032 15.4514 15.6421 14.9754C15.5768 14.4675 15.5822 14.0071 15.6581 13.594C15.7693 13.0152 16.0311 12.5419 16.4436 12.1744C16.8561 11.8068 17.3798 11.5822 18.0145 11.5006C18.6176 11.4231 19.1572 11.5111 19.6334 11.7645C20.1175 12.0168 20.486 12.405 20.7388 12.9291C20.9306 13.2916 21.0601 13.7347 21.1274 14.2584C21.1916 14.7583 21.1823 15.2192 21.0994 15.6412C20.9893 16.228 20.733 16.7127 20.3305 17.0951C19.9269 17.4696 19.4196 17.6961 18.8087 17.7746ZM18.6557 16.5844C18.9493 16.5467 19.1885 16.4312 19.3734 16.2381C19.5663 16.0439 19.6909 15.79 19.7474 15.4762C19.7931 15.2042 19.7899 14.8658 19.7379 14.4611C19.6829 14.0327 19.6004 13.7045 19.4904 13.4766C19.3644 13.1863 19.1841 12.9756 18.9494 12.8444C18.7138 12.7053 18.4412 12.6557 18.1318 12.6954C17.8382 12.7332 17.595 12.8491 17.4022 13.0433C17.2083 13.2295 17.0832 13.4795 17.0267 13.7932C16.983 14.0812 16.9862 14.4195 17.0361 14.8083C17.0861 15.1971 17.1686 15.5253 17.2836 15.7928C17.4097 16.0831 17.5905 16.2978 17.8262 16.4369C18.0697 16.575 18.3463 16.6241 18.6557 16.5844ZM27.4012 11.9882C27.596 12.3746 27.7312 12.8613 27.8066 13.4485C27.879 14.0118 27.8738 14.5045 27.7909 14.9265C27.6836 15.4727 27.4544 15.9175 27.1034 16.261C26.7602 16.6036 26.2951 16.8126 25.7079 16.888C25.1445 16.9604 24.6662 16.8162 24.2731 16.4554C24.2551 16.4415 24.2388 16.4396 24.2239 16.4496C24.2091 16.4596 24.2032 16.4764 24.2062 16.5003L24.5381 19.083C24.5432 19.1227 24.5314 19.1565 24.5027 19.1843C24.483 19.2191 24.4533 19.2391 24.4136 19.2442L23.3187 19.3849C23.279 19.39 23.2412 19.3787 23.2054 19.3511C23.1786 19.3303 23.1626 19.3001 23.1575 19.2604L22.1236 11.2146C22.1185 11.1749 22.1263 11.1416 22.147 11.1148C22.1747 11.079 22.2084 11.0585 22.248 11.0534L23.343 10.9127C23.3827 10.9076 23.4165 10.9194 23.4444 10.9481C23.4792 10.9678 23.4991 10.9975 23.5042 11.0372L23.5501 11.3942C23.5531 11.418 23.5631 11.4329 23.58 11.4388C23.5969 11.4447 23.6118 11.4347 23.6246 11.4089C23.9207 10.9514 24.3504 10.6865 24.9138 10.6141C25.4771 10.5417 25.9721 10.6273 26.3986 10.8709C26.8251 11.1145 27.1593 11.487 27.4012 11.9882ZM26.2286 15.1031C26.4198 14.7075 26.4766 14.2082 26.3991 13.6051C26.3247 13.0259 26.1708 12.5819 25.9376 12.2731C25.6654 11.9129 25.3032 11.7618 24.851 11.8199C24.4383 11.8729 24.1534 12.1031 23.996 12.5105C23.8533 12.8434 23.8212 13.3154 23.8997 13.9263C23.9802 14.5532 24.1406 15.0165 24.3808 15.3164C24.6319 15.639 24.9519 15.7753 25.3407 15.7253C25.7613 15.6713 26.0572 15.4639 26.2286 15.1031ZM31.8044 16.0804C31.3045 16.1446 30.855 16.1298 30.4557 16.0359C30.0634 15.9331 29.7478 15.768 29.5089 15.5406C29.2689 15.3052 29.1286 15.0289 29.0878 14.7115L29.074 14.6044C29.0689 14.5647 29.0767 14.5314 29.0975 14.5046C29.1251 14.4687 29.1588 14.4483 29.1985 14.4432L30.2459 14.3086C30.2855 14.3035 30.3193 14.3153 30.3472 14.344C30.382 14.3637 30.4019 14.3934 30.407 14.4331L30.4101 14.4569C30.4356 14.6552 30.5651 14.816 30.7988 14.9393C31.0393 15.0535 31.3262 15.0893 31.6594 15.0464C31.9768 15.0057 32.2266 14.909 32.4086 14.7566C32.5896 14.5962 32.6674 14.4168 32.6419 14.2185C32.6185 14.036 32.5178 13.9118 32.34 13.8459C32.169 13.7711 31.8945 13.7056 31.5162 13.6493L31.0456 13.5646C30.6256 13.4976 30.2681 13.4145 29.973 13.3153C29.678 13.2161 29.4205 13.0636 29.2005 12.858C28.9794 12.6444 28.8455 12.3551 28.7986 11.9902C28.7272 11.4347 28.8888 10.9663 29.2834 10.5849C29.677 10.1956 30.2309 9.955 30.945 9.86323C31.429 9.80103 31.8637 9.82583 32.2491 9.93762C32.6335 10.0415 32.9427 10.2195 33.1767 10.4717C33.4098 10.716 33.5487 11.0127 33.5936 11.3619C33.5987 11.4015 33.5874 11.4393 33.5598 11.4751C33.539 11.502 33.5088 11.518 33.4691 11.5231L32.4574 11.6531C32.4178 11.6582 32.3805 11.6508 32.3457 11.6311C32.3179 11.6024 32.3014 11.5683 32.2963 11.5286C32.2698 11.3223 32.1447 11.1649 31.921 11.0566C31.7043 10.9392 31.4214 10.903 31.0723 10.9479C30.7628 10.9876 30.5165 11.0798 30.3335 11.2243C30.1573 11.3598 30.0825 11.5308 30.109 11.7371C30.1335 11.9275 30.2436 12.0626 30.4393 12.1423C30.642 12.213 30.9692 12.2799 31.4209 12.3428L31.6919 12.3806C32.1288 12.4535 32.4987 12.539 32.8017 12.6372C33.1036 12.7275 33.3691 12.8789 33.5981 13.0914C33.826 13.296 33.9639 13.5848 34.0119 13.9577C34.0843 14.5211 33.9192 14.994 33.5166 15.3764C33.1131 15.7509 32.5423 15.9856 31.8044 16.0804ZM36.2516 15.4605C36.0057 15.4921 35.7931 15.4388 35.614 15.3005C35.4349 15.1622 35.3296 14.97 35.298 14.7241C35.2664 14.4781 35.3197 14.2656 35.458 14.0865C35.5963 13.9074 35.7885 13.802 36.0345 13.7704C36.2804 13.7388 36.489 13.7927 36.6601 13.932C36.8392 14.0703 36.9446 14.2624 36.9762 14.5084C37.0078 14.7544 36.9545 14.9669 36.8162 15.146C36.6779 15.3251 36.4897 15.4299 36.2516 15.4605ZM39.5061 15.0423C39.2601 15.0739 39.0476 15.0206 38.8685 14.8823C38.6894 14.744 38.5841 14.5518 38.5525 14.3058C38.5209 14.0599 38.5742 13.8473 38.7125 13.6683C38.8508 13.4892 39.043 13.3838 39.2889 13.3522C39.5349 13.3206 39.7435 13.3745 39.9146 13.5138C40.0937 13.6521 40.1991 13.8442 40.2307 14.0902C40.2623 14.3362 40.2089 14.5487 40.0706 14.7278C39.9323 14.9069 39.7442 15.0117 39.5061 15.0423ZM42.7606 14.6241C42.5146 14.6557 42.3021 14.6024 42.123 14.4641C41.9439 14.3258 41.8386 14.1336 41.807 13.8876C41.7754 13.6417 41.8287 13.4291 41.967 13.25C42.1053 13.071 42.2975 12.9656 42.5434 12.934C42.7894 12.9024 42.998 12.9562 43.1691 13.0956C43.3482 13.2339 43.4536 13.426 43.4852 13.672C43.5168 13.918 43.4634 14.1305 43.3251 14.3096C43.1868 14.4887 42.9987 14.5935 42.7606 14.6241ZM13.7502 23.1108C13.7451 23.0712 13.7529 23.0379 13.7736 23.011C13.8013 22.9752 13.835 22.9548 13.8746 22.9497L14.9696 22.809C15.0093 22.8039 15.0431 22.8156 15.071 22.8443C15.1058 22.8641 15.1257 22.8938 15.1308 22.9334L16.1647 30.9793C16.1698 31.0189 16.1585 31.0567 16.1309 31.0925C16.1101 31.1194 16.0799 31.1353 16.0403 31.1404L14.981 31.2766C14.9016 31.2868 14.842 31.2622 14.8021 31.2028L10.6524 26.0254C10.6335 26.0037 10.6166 25.9978 10.6017 26.0078C10.5858 26.0098 10.5799 26.0267 10.584 26.0584L11.3206 31.6018C11.3257 31.6414 11.3144 31.6792 11.2867 31.715C11.266 31.7419 11.2358 31.7578 11.1961 31.7629L10.1011 31.9036C10.0614 31.9087 10.0242 31.9014 9.98938 31.8817C9.9615 31.853 9.94501 31.8189 9.93991 31.7792L8.90599 23.7333C8.9009 23.6937 8.90872 23.6604 8.92947 23.6335C8.95713 23.5977 8.99079 23.5773 9.03047 23.5722L10.0898 23.436C10.1691 23.4258 10.2287 23.4504 10.2686 23.5098L14.4064 28.6887C14.4254 28.7105 14.4428 28.7203 14.4586 28.7183C14.4735 28.7083 14.4789 28.6874 14.4748 28.6557L13.7502 23.1108ZM20.3842 30.679C19.7574 30.7596 19.1974 30.6702 18.7043 30.4109C18.2192 30.1507 17.8492 29.7506 17.5943 29.2106C17.4044 28.7995 17.2788 28.3559 17.2176 27.8798C17.1524 27.372 17.1577 26.9115 17.2337 26.4985C17.3448 25.9196 17.6066 25.4464 18.0191 25.0788C18.4317 24.7112 18.9553 24.4866 19.5901 24.4051C20.1931 24.3276 20.7327 24.4155 21.2089 24.6689C21.693 24.9212 22.0615 25.3095 22.3144 25.8335C22.5061 26.196 22.6357 26.6391 22.703 27.1628C22.7672 27.6627 22.7579 28.1236 22.675 28.5457C22.5649 29.1325 22.3086 29.6171 21.906 29.9995C21.5025 30.374 20.9952 30.6005 20.3842 30.679ZM20.2313 29.4888C20.5249 29.4511 20.7641 29.3357 20.949 29.1425C21.1418 28.9483 21.2665 28.6944 21.3229 28.3806C21.3686 28.1086 21.3655 27.7702 21.3135 27.3656C21.2584 26.9371 21.1759 26.6089 21.066 26.3811C20.94 26.0908 20.7596 25.88 20.525 25.7489C20.2893 25.6098 20.0168 25.5601 19.7073 25.5999C19.4137 25.6376 19.1705 25.7535 18.9777 25.9477C18.7839 26.1339 18.6587 26.3839 18.6022 26.6977C18.5586 26.9856 18.5617 27.3239 18.6117 27.7127C18.6617 28.1016 18.7442 28.4297 18.8592 28.6972C18.9852 28.9875 19.1661 29.2022 19.4017 29.3413C19.6453 29.4794 19.9218 29.5286 20.2313 29.4888ZM28.2257 29.5746C28.1384 29.5858 28.0778 29.5533 28.0438 29.477L25.5954 23.8874L25.5774 23.8414C25.5672 23.762 25.6057 23.7167 25.693 23.7055L26.8237 23.5602C26.911 23.549 26.9716 23.5815 27.0056 23.6578L28.5044 27.5062C28.5154 27.529 28.5288 27.5393 28.5447 27.5373C28.5605 27.5353 28.5709 27.5218 28.5758 27.497L29.1004 23.3886C29.114 23.3062 29.1645 23.2594 29.2518 23.2482L30.2396 23.1213C30.3269 23.11 30.3876 23.1426 30.4216 23.2189L31.9917 27.0581C32.0027 27.0808 32.0161 27.0912 32.032 27.0892C32.0478 27.0871 32.0582 27.0737 32.0631 27.0489L32.6115 22.9374C32.6252 22.855 32.6756 22.8082 32.7629 22.797L33.8847 22.677C33.9323 22.6709 33.9661 22.6827 33.9861 22.7124C34.0129 22.7332 34.0255 22.7679 34.0236 22.8165L33.0546 28.8331C33.041 28.9155 32.9945 28.9618 32.9152 28.972L31.7725 29.1188C31.6853 29.13 31.6246 29.0975 31.5906 29.0212L30.0768 25.5256C30.0658 25.5028 30.0523 25.4925 30.0365 25.4945C30.0206 25.4966 30.0102 25.51 30.0053 25.5348L29.5078 29.2888C29.4941 29.3713 29.4437 29.4181 29.3564 29.4293L28.2257 29.5746ZM37.0998 22.155C37.5997 22.0908 38.0513 22.1215 38.4546 22.2471C38.8579 22.3727 39.1826 22.577 39.4286 22.8599C39.6737 23.135 39.8212 23.4669 39.8712 23.8557L40.3866 27.8667C40.3917 27.9064 40.3804 27.9441 40.3527 27.9799C40.332 28.0068 40.3018 28.0228 40.2621 28.0279L39.1671 28.1686C39.1274 28.1737 39.0902 28.1664 39.0554 28.1466C39.0275 28.1179 39.011 28.0838 39.0059 28.0441L38.957 27.6632C38.9539 27.6394 38.9445 27.6285 38.9286 27.6306C38.9117 27.6247 38.8964 27.6307 38.8825 27.6486C38.5488 28.127 38.0129 28.4137 37.275 28.5085C36.6799 28.585 36.1686 28.4974 35.741 28.2459C35.3214 27.9933 35.0734 27.5695 34.9969 26.9743C34.9174 26.3554 35.0699 25.8479 35.4545 25.4516C35.8461 25.0464 36.4346 24.7933 37.2202 24.6924L38.4937 24.5287C38.5334 24.5236 38.5507 24.5012 38.5456 24.4616L38.5089 24.1759C38.4691 23.8664 38.3473 23.6401 38.1433 23.497C37.9384 23.3458 37.6535 23.2937 37.2885 23.3406C36.9869 23.3794 36.7481 23.4665 36.5719 23.6021C36.4027 23.7287 36.3065 23.8903 36.2834 24.0868C36.2718 24.1851 36.2213 24.2319 36.132 24.2273L34.9592 24.2328C34.9185 24.23 34.8812 24.2226 34.8475 24.2109C34.8206 24.1901 34.8091 24.1634 34.8129 24.1306C34.8142 23.6384 35.0211 23.2085 35.4336 22.841C35.8541 22.4724 36.4095 22.2437 37.0998 22.155ZM37.4795 27.3692C37.8683 27.3192 38.1883 27.1732 38.4395 26.9312C38.6907 26.6892 38.7959 26.4095 38.7551 26.0921L38.6832 25.5327C38.6781 25.4931 38.6557 25.4758 38.6161 25.4809L37.6163 25.6094C37.1957 25.6634 36.8727 25.7856 36.6471 25.9759C36.4294 26.1652 36.3395 26.4066 36.3772 26.7002C36.4098 26.9541 36.5266 27.1407 36.7274 27.2601C36.9352 27.3705 37.1859 27.4069 37.4795 27.3692ZM41.8486 30.2316C41.8248 30.2347 41.8029 30.2214 41.7829 30.1917C41.764 30.1699 41.752 30.1392 41.7469 30.0995L41.6368 29.2426C41.6317 29.2029 41.639 29.1656 41.6587 29.1309C41.6874 29.103 41.7216 29.0865 41.7612 29.0814L41.7731 29.0799C42.0975 29.0301 42.3468 28.9618 42.5211 28.8748C42.6965 28.7959 42.833 28.6654 42.9306 28.4835C43.0282 28.3015 43.1032 28.0378 43.1556 27.6923C43.1615 27.6754 43.1584 27.6516 43.1464 27.6209L40.4255 21.9817C40.4155 21.9669 40.409 21.9476 40.4059 21.9237C40.3967 21.8523 40.4318 21.8115 40.5112 21.8013L41.6776 21.6514C41.7649 21.6402 41.8255 21.6728 41.8595 21.7491L43.5881 25.7857C43.5991 25.8084 43.6125 25.8188 43.6284 25.8168C43.6443 25.8147 43.6546 25.8013 43.6595 25.7765L44.3113 21.434C44.325 21.3516 44.3754 21.3048 44.4627 21.2936L45.5934 21.1483C45.641 21.1421 45.6748 21.1539 45.6947 21.1836C45.7216 21.2044 45.7306 21.2435 45.7219 21.3011L44.4316 27.8308C44.3057 28.4197 44.1653 28.8652 44.0106 29.1674C43.8558 29.4696 43.6195 29.7016 43.3015 29.8634C42.9915 30.0243 42.5349 30.1434 41.9319 30.2209L41.8486 30.2316Z" fill="#FF209E"/>
<defs>
<clipPath id="clip0_4301_481">
<rect width="25.9577" height="20.7661" fill="white" transform="translate(12.4102 42.0352) rotate(33.4645)"/>
</clipPath>
</defs>
</svg>
