<svg width="78" height="29" viewBox="0 0 78 29" fill="none" xmlns="http://www.w3.org/2000/svg">
<path opacity="0.8" d="M1.78326 27.8017C2.25829 28.0149 2.81683 28.1286 3.38811 28.1284L77.5 28.1284L77.5 0.128418L3.38812 0.128411C2.81732 0.128991 2.25954 0.243133 1.78521 0.456431C1.31088 0.66973 0.941233 0.972621 0.72291 1.3269C0.504588 1.68117 0.447405 2.07095 0.558527 2.44704C0.669649 2.82313 0.944094 3.16869 1.34728 3.44011L3.24594 4.71703C3.51419 4.89712 3.72698 5.11096 3.87217 5.34631C4.01736 5.58167 4.0921 5.83393 4.0921 6.08869C4.0921 6.34345 4.01736 6.59571 3.87217 6.83107C3.72698 7.06642 3.51418 7.28026 3.24594 7.46035L1.34728 8.73728C1.07903 8.91737 0.866251 9.1312 0.721063 9.36656C0.575876 9.60191 0.501138 9.85417 0.501138 10.1089C0.501138 10.3637 0.575876 10.616 0.721063 10.8513C0.866251 11.0867 1.07903 11.3005 1.34728 11.4806L3.24593 12.756C3.51426 12.9362 3.72712 13.1502 3.87234 13.3856C4.01756 13.6211 4.09229 13.8735 4.09229 14.1284C4.09229 14.3833 4.01756 14.6357 3.87234 14.8712C3.72712 15.1067 3.51426 15.3206 3.24593 15.5008L1.34728 16.7762C1.07903 16.9563 0.86625 17.1701 0.721063 17.4055C0.575875 17.6409 0.501138 17.8931 0.501138 18.1479C0.501138 18.4026 0.575875 18.6549 0.721063 18.8903C0.86625 19.1256 1.07903 19.3394 1.34728 19.5195L3.24593 20.7965C3.51418 20.9766 3.72698 21.1904 3.87217 21.4257C4.01736 21.6611 4.09209 21.9134 4.09209 22.1681C4.09209 22.4229 4.01736 22.6752 3.87217 22.9105C3.72698 23.1459 3.51418 23.3597 3.24593 23.5398L1.34728 24.8167C0.942978 25.0878 0.667534 25.4335 0.555779 25.8098C0.444023 26.1861 0.500984 26.5763 0.71949 26.9309C0.937996 27.2854 1.30822 27.5885 1.78326 27.8017Z" fill="#0DA802"/>
</svg>
