<svg width="63" height="62" viewBox="0 0 63 62" fill="none" xmlns="http://www.w3.org/2000/svg">
<rect x="1.5" y="1" width="60" height="60" rx="30" stroke="#FF209E" stroke-width="2"/>
<path d="M34.3541 35.7937C34.3047 35.7521 34.2476 35.7205 34.186 35.7009C34.1244 35.6813 34.0596 35.674 33.9952 35.6795C33.9307 35.685 33.8681 35.7031 33.8106 35.7327C33.7532 35.7624 33.7022 35.8031 33.6605 35.8525L30.4285 39.6842C30.3866 39.7339 30.355 39.7914 30.3354 39.8533C30.3158 39.9152 30.3087 39.9805 30.3144 40.0452L31.2635 50.6465C31.2745 50.7688 31.3308 50.8827 31.4214 50.9656C31.512 51.0486 31.6303 51.0946 31.7532 51.0948C31.7678 51.0948 31.7828 51.0941 31.7976 51.0928C31.862 51.0871 31.9246 51.0687 31.9819 51.0387C32.0392 51.0088 32.09 50.9678 32.1315 50.9182C32.1729 50.8686 32.2042 50.8113 32.2235 50.7497C32.2428 50.688 32.2498 50.6231 32.244 50.5587L31.313 40.1621L34.4129 36.4871C34.497 36.3873 34.5381 36.2582 34.5271 36.1282C34.516 35.9982 34.4538 35.8779 34.3541 35.7937Z" fill="white"/>
<path d="M29.4176 37.626C29.3642 37.5895 29.3042 37.5639 29.241 37.5506C29.1777 37.5373 29.1124 37.5366 29.0489 37.5485C28.9854 37.5604 28.9248 37.5847 28.8707 37.62C28.8166 37.6554 28.7699 37.701 28.7334 37.7544L25.6545 42.2553C25.6189 42.3075 25.5936 42.3659 25.58 42.4276L23.8396 50.3385C23.8116 50.466 23.8353 50.5995 23.9057 50.7094C23.976 50.8194 24.0871 50.897 24.2146 50.925C24.3421 50.9531 24.4755 50.9293 24.5855 50.859C24.6955 50.7887 24.7731 50.6775 24.8011 50.55L26.5209 42.7324L29.546 38.3101C29.5825 38.2568 29.6081 38.1968 29.6214 38.1335C29.6347 38.0703 29.6354 38.005 29.6235 37.9415C29.6115 37.8779 29.5872 37.8174 29.5519 37.7633C29.5166 37.7091 29.4709 37.6625 29.4176 37.626Z" fill="white"/>
<path d="M38.0369 38.2337C37.9458 38.1402 37.8213 38.0867 37.6908 38.085C37.5603 38.0833 37.4344 38.1335 37.3409 38.2245L34.5784 40.9152C34.5178 40.9742 34.4734 41.048 34.4496 41.1293C34.4257 41.2105 34.4233 41.2966 34.4424 41.379L36.4993 50.2393C36.5137 50.3025 36.5405 50.3621 36.5781 50.4149C36.6156 50.4677 36.6632 50.5125 36.7181 50.5469C36.773 50.5812 36.8342 50.6044 36.8981 50.615C36.9619 50.6257 37.0273 50.6236 37.0904 50.609C37.1535 50.5943 37.2131 50.5674 37.2657 50.5297C37.3184 50.4919 37.3631 50.4442 37.3972 50.3892C37.4314 50.3341 37.4544 50.2729 37.4648 50.209C37.4753 50.1451 37.473 50.0797 37.4582 50.0167L35.4639 41.4265L38.0276 38.9296C38.1211 38.8385 38.1746 38.7141 38.1763 38.5836C38.1781 38.4531 38.1279 38.3272 38.0369 38.2337Z" fill="white"/>
<path d="M48.706 45.2556C48.731 45.3153 48.7675 45.3696 48.8134 45.4153C48.8594 45.4609 48.9139 45.497 48.9739 45.5215C49.0338 45.5461 49.098 45.5585 49.1628 45.5582C49.2275 45.5579 49.2916 45.5448 49.3513 45.5196C49.411 45.4945 49.4651 45.4578 49.5106 45.4117C49.5561 45.3656 49.5921 45.3109 49.6164 45.2509C49.6407 45.1909 49.653 45.1266 49.6524 45.0619C49.6519 44.9971 49.6386 44.9331 49.6132 44.8735L48.1181 41.3232L47.2109 41.705L48.706 45.2556Z" fill="white"/>
<path d="M13.4724 19.7664C13.1995 20.5692 13.3598 21.4018 13.9629 22.3117C14.0496 22.4235 15.1605 23.8157 17.8403 25.4371C20.4138 26.9949 24.9992 29.0875 32.2296 30.2125C32.2387 30.2139 32.2475 30.2162 32.2563 30.218C33.1667 30.1682 34.0791 30.1682 34.9895 30.218L34.0494 29.6723C31.1171 28.0864 28.2693 26.349 25.5177 24.467C21.2261 21.5022 18.4248 18.8977 17.1444 16.6904C16.2472 17.0612 14.0311 18.1232 13.4724 19.7664Z" fill="white"/>
<path d="M18.3339 12.198C18.3273 12.2042 18.3192 12.2113 18.3123 12.2172C17.5713 12.8316 17.2541 13.545 17.3426 14.398C17.4068 14.8961 17.5596 15.3787 17.7938 15.8229C17.8053 15.842 17.8155 15.8618 17.8243 15.8823C18.8982 17.9823 21.703 20.6304 26.0766 23.6526C28.801 25.5166 31.6207 27.237 34.5244 28.8071C34.5303 28.8102 34.536 28.8134 34.5417 28.8167L35.1946 29.1957L19.4511 11.4844C19.0487 11.6716 18.673 11.9116 18.3339 12.198Z" fill="white"/>
<path d="M41.5044 32.9414L40.2785 33.3417C39.4228 33.6216 38.6936 34.1949 38.2195 34.9603L36.6953 37.4245C38.4559 38.4058 40.172 38.7937 41.7702 38.5545C42.8305 38.3986 43.83 37.9628 44.6659 37.292C44.2448 35.4185 43.1855 33.965 41.5044 32.9414Z" fill="white"/>
<path d="M29.4682 15.6125C27.1422 12.6814 24.7648 11.1034 22.4018 10.9222C22.2519 10.9106 22.1049 10.9053 21.9616 10.9053C21.4465 10.9054 20.9338 10.9755 20.4375 11.1135L36.3721 29.0396C34.9853 23.6478 29.7142 15.9686 29.4682 15.6125Z" fill="white"/>
<path d="M31.1265 31.301L16.125 40.1253C20.3858 40.9565 24.4552 39.6577 27.2139 38.3504C30.4961 36.7957 32.6759 34.9036 32.6975 34.8847C32.7901 34.8037 32.9097 34.7603 33.0327 34.763C33.1556 34.7658 33.2731 34.8145 33.362 34.8996C34.1303 35.6443 34.9642 36.3183 35.8535 36.9134L37.3817 34.443C37.978 33.4799 38.8956 32.7586 39.9722 32.4065L40.2632 32.3114C39.3493 31.9361 38.3974 31.6611 37.4242 31.4911C34.4941 30.9529 31.673 31.2371 31.1265 31.301Z" fill="white"/>
<path d="M46.3957 37.8037C46.0393 37.8037 45.6909 37.9094 45.3946 38.1074C45.0983 38.3054 44.8673 38.5868 44.7309 38.9161C44.5945 39.2454 44.5588 39.6077 44.6284 39.9572C44.6979 40.3068 44.8695 40.6279 45.1215 40.8799C45.3736 41.1319 45.6946 41.3035 46.0442 41.373C46.3937 41.4426 46.7561 41.4069 47.0853 41.2705C47.4146 41.1341 47.696 40.9032 47.894 40.6068C48.092 40.3105 48.1977 39.9621 48.1977 39.6057C48.1972 39.1279 48.0072 38.6699 47.6693 38.3321C47.3315 37.9943 46.8735 37.8042 46.3957 37.8037Z" fill="white"/>
<rect x="9.5" y="51" width="59.9556" height="2" transform="rotate(-45 9.5 51)" fill="#FF209E"/>
</svg>
