<svg width="63" height="62" viewBox="0 0 63 62" fill="none" xmlns="http://www.w3.org/2000/svg">
<rect x="1.5" y="1" width="60" height="60" rx="30" stroke="#FF209E" stroke-width="2"/>
<path d="M28.988 16.3538C29.238 16.2817 29.4932 16.2207 29.7536 16.1707L29.688 16.0813C29.0996 15.2965 28.7902 14.3377 28.8086 13.3569L28.4105 13.5569C28.2416 13.6414 28.0952 13.7648 27.9834 13.917C27.8716 14.0692 27.7975 14.2457 27.7673 14.4321C27.7371 14.6185 27.7516 14.8094 27.8096 14.9891C27.8677 15.1688 27.9676 15.3322 28.1011 15.4657L28.988 16.3538Z" fill="white"/>
<path d="M34.9011 15.4657C35.0347 15.332 35.1345 15.1685 35.1924 14.9886C35.2503 14.8088 35.2645 14.6177 35.234 14.4312C35.2035 14.2448 35.129 14.0682 35.0168 13.9162C34.9046 13.7642 34.7578 13.641 34.5886 13.5569L34.1911 13.3569C34.2099 14.3375 33.9009 15.2963 33.313 16.0813L33.2461 16.1707C33.5048 16.2207 33.7601 16.2817 34.0117 16.3538L34.9011 15.4657Z" fill="white"/>
<path d="M22.75 29.125C22.75 31.4456 23.6719 33.6712 25.3128 35.3122C26.9538 36.9531 29.1794 37.875 31.5 37.875C33.8206 37.875 36.0462 36.9531 37.6872 35.3122C39.3281 33.6712 40.25 31.4456 40.25 29.125V24.5956C40.0369 24.1793 39.8181 23.7656 39.5875 23.3575L38.4163 21.2856C37.724 20.0608 36.7189 19.0417 35.5038 18.3327C34.2886 17.6236 32.9069 17.25 31.5 17.25C30.0931 17.25 28.7114 17.6236 27.4962 18.3327C26.2811 19.0417 25.276 20.0608 24.5838 21.2856L23.4125 23.3575C23.1819 23.7656 22.9631 24.1793 22.75 24.5956V29.125Z" fill="white"/>
<path d="M41.5 29.125C41.5 31.7772 40.4464 34.3207 38.5711 36.1961C36.6957 38.0715 34.1522 39.125 31.5 39.125C28.8478 39.125 26.3043 38.0715 24.4289 36.1961C22.5536 34.3207 21.5 31.7772 21.5 29.125V27.3213C19.8509 31.3917 19.0021 35.742 19 40.1338C19.0031 42.5173 19.9514 44.8024 21.6367 46.4879C23.3221 48.1734 25.6071 49.1217 27.9906 49.125H35.0225C37.4035 49.125 39.6869 48.1792 41.3706 46.4956C43.0542 44.812 44 42.5285 44 40.1475C43.9988 35.7514 43.1499 31.3967 41.5 27.3219V29.125Z" fill="white"/>
<path d="M43.6536 20.9376C43.758 20.8854 43.8457 20.8051 43.9067 20.7057C43.9678 20.6063 43.9999 20.4917 43.9992 20.3751V16.9594L47.4711 14.6469L46.7773 13.6069L43.0273 16.1069C42.942 16.1638 42.872 16.2409 42.8235 16.3312C42.775 16.4216 42.7495 16.5225 42.7492 16.6251V19.9888L39.918 21.4044L40.5342 22.4938L43.6536 20.9376Z" fill="white"/>
<path d="M42.0156 25.3748C42.2056 25.7886 42.3879 26.2053 42.5625 26.6248H47.125C47.2244 26.6248 47.3224 26.6009 47.4108 26.5554C47.4991 26.5099 47.5754 26.4439 47.6331 26.363L50.7581 21.988L49.7419 21.2617L46.8031 25.3748H42.0156Z" fill="white"/>
<path d="M47.1258 29.125H43.4883C43.6237 29.5396 43.7512 29.9563 43.8708 30.375H46.8039L49.7414 34.4881L50.7577 33.7619L47.6327 29.3869C47.575 29.3061 47.499 29.2403 47.4108 29.1947C47.3227 29.1492 47.225 29.1253 47.1258 29.125Z" fill="white"/>
<path d="M48.3752 38.5C48.3752 38.403 48.3526 38.3073 48.3093 38.2205C48.2659 38.1337 48.2029 38.0582 48.1252 38L44.959 35.625C45.0315 36.1875 45.084 36.75 45.1321 37.3181L47.1252 38.8125V45.375C47.1252 45.472 47.1478 45.5677 47.1912 45.6545C47.2346 45.7413 47.2976 45.8168 47.3752 45.875L49.8752 47.75L50.6252 46.75L48.3752 45.0625V38.5Z" fill="white"/>
<path d="M18.9992 20.375C18.9992 20.4911 19.0315 20.605 19.0925 20.7038C19.1536 20.8026 19.2409 20.8824 19.3448 20.9344L22.4642 22.4969L23.0805 21.4075L20.2492 19.9887V16.625C20.2492 16.5221 20.2239 16.4208 20.1753 16.3301C20.1268 16.2394 20.0567 16.1621 19.9711 16.105L16.2211 13.605L15.5273 14.645L18.9992 16.9594V20.375Z" fill="white"/>
<path d="M15.8753 26.6248H20.4378C20.6116 26.2048 20.7939 25.7882 20.9847 25.3748H16.1972L13.2597 21.2617L12.2422 21.988L15.3672 26.363C15.4249 26.4439 15.5012 26.5099 15.5896 26.5554C15.6779 26.6009 15.7759 26.6248 15.8753 26.6248Z" fill="white"/>
<path d="M16.1972 30.375H19.1303C19.2503 29.9563 19.3778 29.5396 19.5128 29.125H15.8753C15.7759 29.1251 15.6779 29.1489 15.5896 29.1944C15.5012 29.24 15.425 29.306 15.3672 29.3869L12.2422 33.7619L13.2584 34.4881L16.1972 30.375Z" fill="white"/>
<path d="M14.625 38.5V45.0625L12.375 46.75L13.125 47.75L15.625 45.875C15.7026 45.8168 15.7656 45.7413 15.809 45.6545C15.8524 45.5677 15.875 45.472 15.875 45.375V38.7806L17.8944 36.9862C17.95 36.3612 18.0244 35.74 18.1131 35.1206L14.835 38.0331C14.769 38.0917 14.7162 38.1636 14.68 38.2441C14.6438 38.3245 14.6251 38.4117 14.625 38.5Z" fill="white"/>
<rect x="8.5" y="52" width="62" height="2" transform="rotate(-45 8.5 52)" fill="#FF209E"/>
</svg>
