<svg width="375" height="167" viewBox="0 0 375 167" fill="none" xmlns="http://www.w3.org/2000/svg">
<path fill-rule="evenodd" clip-rule="evenodd" d="M82.3842 12.4151C80.9209 11.8809 79.5913 11.0978 78.4713 10.1107L70.5457 3.11719C69.4266 2.1303 68.0978 1.34742 66.6352 0.813288C65.1726 0.279157 63.605 0.00423269 62.0218 0.00423262C60.4387 0.00423255 58.871 0.279156 57.4085 0.813288C55.9459 1.34742 54.6171 2.1303 53.498 3.11719L45.5627 10.1107C44.4436 11.0975 43.1148 11.8804 41.6522 12.4146C40.1897 12.9487 38.622 13.2236 37.0389 13.2236C35.4557 13.2236 33.8881 12.9487 32.4255 12.4146C30.963 11.8804 29.6341 11.0975 28.515 10.1107L20.5798 3.11719C18.895 1.62976 16.7472 0.616328 14.4085 0.205194C12.0698 -0.20594 9.64531 0.00369231 7.44187 0.80757C5.23842 1.61145 3.35512 2.97343 2.03038 4.72108C0.705644 6.46874 -0.000960236 8.52348 9.79374e-07 10.6252L5.54552e-05 167H101.45H174H201H275H375L375 10.6252C374.996 8.52528 374.287 6.47334 372.962 4.7283C371.636 2.98326 369.754 1.62333 367.552 0.820141C365.351 0.0169504 362.928 -0.193517 360.591 0.215293C358.254 0.624103 356.107 1.63388 354.42 3.11719L346.485 10.1107C345.366 11.0975 344.037 11.8804 342.574 12.4146C341.112 12.9487 339.544 13.2236 337.961 13.2236C336.378 13.2236 334.81 12.9487 333.348 12.4146C331.885 11.8804 330.556 11.0975 329.437 10.1107L321.502 3.11719C320.383 2.1303 319.054 1.34742 317.592 0.81329C316.129 0.279159 314.561 0.00423486 312.978 0.00423478C311.395 0.00423471 309.827 0.279159 308.365 0.81329C306.902 1.34742 305.573 2.1303 304.454 3.11719L296.529 10.1107C295.409 11.0978 294.079 11.8809 292.616 12.4151C291.152 12.9494 289.584 13.2243 288 13.2243C286.416 13.2243 284.848 12.9494 283.384 12.4151C281.921 11.8809 280.591 11.0978 279.471 10.1107L271.546 3.11719C270.427 2.1303 269.098 1.34742 267.635 0.813288C266.173 0.279157 264.605 0.00423258 263.022 0.00423251C262.587 0.00423249 262.152 0.0250159 261.721 0.0662562C261.343 0.100073 260.966 0.149716 260.591 0.215293C258.254 0.624103 256.107 1.63388 254.42 3.11719L246.485 10.1107C245.366 11.0975 244.037 11.8804 242.574 12.4146C241.124 12.9442 239.57 13.219 238.001 13.2236C236.431 13.2192 234.876 12.9444 233.426 12.4146C231.963 11.8804 230.634 11.0975 229.515 10.1107L221.58 3.11719C219.895 1.62976 217.747 0.616328 215.409 0.205194C214.355 0.0200016 213.284 -0.039238 212.224 0.0250517C210.899 0.0982838 209.595 0.364145 208.365 0.81329C206.902 1.34742 205.573 2.1303 204.454 3.11719L196.529 10.1107C195.409 11.0978 194.079 11.8809 192.616 12.4151C191.152 12.9494 189.584 13.2243 188 13.2243C186.416 13.2243 184.848 12.9494 183.384 12.4151C181.921 11.8809 180.591 11.0978 179.471 10.1107L171.546 3.11719C170.427 2.1303 169.098 1.34742 167.635 0.813288C166.173 0.279157 164.605 0.00423265 163.022 0.00423258C162.809 0.00423257 162.596 0.00921533 162.384 0.0191418C161.452 -0.011126 160.515 0.0537111 159.591 0.215293C157.254 0.624103 155.107 1.63388 153.42 3.11719L145.485 10.1107C144.366 11.0975 143.037 11.8804 141.574 12.4146C140.278 12.888 138.899 13.1578 137.5 13.213C136.101 13.1578 134.722 12.888 133.426 12.4146C131.963 11.8804 130.634 11.0975 129.515 10.1107L121.58 3.11719C119.895 1.62976 117.747 0.616328 115.409 0.205194C114.433 0.0337785 113.443 -0.029727 112.461 0.0127556C112.3 0.00708066 112.139 0.0042349 111.978 0.0042349C110.395 0.00423482 108.827 0.279159 107.365 0.81329C105.902 1.34742 104.573 2.1303 103.454 3.11719L95.5286 10.1107C94.4087 11.0978 93.0791 11.8809 91.6157 12.4151C90.1524 12.9494 88.5839 13.2243 87 13.2243C85.416 13.2243 83.8476 12.9494 82.3842 12.4151Z" fill="#F0F0F4"/>
</svg>
