<svg width="375" height="167" viewBox="0 0 375 167" fill="none" xmlns="http://www.w3.org/2000/svg">
<path fill-rule="evenodd" clip-rule="evenodd" d="M82.3842 154.585C80.9209 155.119 79.5913 155.902 78.4713 156.889L70.5457 163.883C69.4266 164.87 68.0978 165.653 66.6352 166.187C65.1726 166.721 63.605 166.996 62.0218 166.996C60.4387 166.996 58.871 166.721 57.4085 166.187C55.9459 165.653 54.6171 164.87 53.498 163.883L45.5627 156.889C44.4436 155.902 43.1148 155.12 41.6522 154.585C40.1897 154.051 38.622 153.776 37.0389 153.776C35.4557 153.776 33.8881 154.051 32.4255 154.585C30.963 155.12 29.6341 155.902 28.515 156.889L20.5798 163.883C18.895 165.37 16.7472 166.384 14.4085 166.795C12.0698 167.206 9.64531 166.996 7.44186 166.192C5.23842 165.389 3.35512 164.027 2.03038 162.279C0.705643 160.531 -0.000960681 158.477 9.80282e-07 156.375L5.50104e-05 -1.52588e-05H101.45L174 0L201 -1.52588e-05L275 0H375L375 156.375C374.996 158.475 374.287 160.527 372.962 162.272C371.636 164.017 369.754 165.377 367.552 166.18C365.351 166.983 362.928 167.194 360.591 166.785C358.254 166.376 356.107 165.366 354.42 163.883L346.485 156.889C345.366 155.902 344.037 155.12 342.574 154.585C341.112 154.051 339.544 153.776 337.961 153.776C336.378 153.776 334.81 154.051 333.348 154.585C331.885 155.12 330.556 155.902 329.437 156.889L321.502 163.883C320.383 164.87 319.054 165.653 317.592 166.187C316.129 166.721 314.561 166.996 312.978 166.996C311.395 166.996 309.827 166.721 308.365 166.187C306.902 165.653 305.573 164.87 304.454 163.883L296.529 156.889C295.409 155.902 294.079 155.119 292.616 154.585C291.152 154.051 289.584 153.776 288 153.776C286.416 153.776 284.848 154.051 283.384 154.585C281.921 155.119 280.591 155.902 279.471 156.889L271.546 163.883C270.427 164.87 269.098 165.653 267.635 166.187C266.173 166.721 264.605 166.996 263.022 166.996C262.587 166.996 262.152 166.975 261.721 166.934C261.343 166.9 260.966 166.85 260.591 166.785C258.254 166.376 256.107 165.366 254.42 163.883L246.485 156.889C245.366 155.902 244.037 155.12 242.574 154.585C241.124 154.056 239.57 153.781 238.001 153.776C236.431 153.781 234.876 154.056 233.426 154.585C231.963 155.12 230.634 155.902 229.515 156.889L221.58 163.883C219.895 165.37 217.747 166.384 215.409 166.795C214.355 166.98 213.284 167.039 212.224 166.975C210.899 166.902 209.595 166.636 208.365 166.187C206.902 165.653 205.573 164.87 204.454 163.883L196.529 156.889C195.409 155.902 194.079 155.119 192.616 154.585C191.152 154.051 189.584 153.776 188 153.776C186.416 153.776 184.848 154.051 183.384 154.585C181.921 155.119 180.591 155.902 179.471 156.889L171.546 163.883C170.427 164.87 169.098 165.653 167.635 166.187C166.173 166.721 164.605 166.996 163.022 166.996C162.809 166.996 162.596 166.991 162.384 166.981C161.452 167.011 160.515 166.946 159.591 166.785C157.254 166.376 155.107 165.366 153.42 163.883L145.485 156.889C144.366 155.902 143.037 155.12 141.574 154.585C140.278 154.112 138.899 153.842 137.5 153.787C136.101 153.842 134.722 154.112 133.426 154.585C131.963 155.12 130.634 155.902 129.515 156.889L121.58 163.883C119.895 165.37 117.747 166.384 115.409 166.795C114.433 166.966 113.443 167.03 112.461 166.987C112.3 166.993 112.139 166.996 111.978 166.996C110.395 166.996 108.827 166.721 107.365 166.187C105.902 165.653 104.573 164.87 103.454 163.883L95.5286 156.889C94.4087 155.902 93.0791 155.119 91.6157 154.585C90.1524 154.051 88.5839 153.776 87 153.776C85.416 153.776 83.8476 154.051 82.3842 154.585Z" fill="#F0F0F4"/>
</svg>
