<svg width="634" height="369" viewBox="0 0 634 369" fill="none" xmlns="http://www.w3.org/2000/svg">
<path d="M9.81923 227.303C-2.60641 239.686 -2.60641 259.765 9.81923 272.148L96.694 358.729C109.12 371.112 129.264 371.109 141.69 358.729L162.628 337.858C175.054 325.475 195.202 325.475 207.627 337.858L228.566 358.729C240.991 371.109 261.136 371.109 273.562 358.729L294.5 337.858C306.926 325.475 327.073 325.475 339.499 337.858L360.438 358.726C372.863 371.109 393.008 371.109 405.433 358.726L426.372 337.858C438.797 325.475 458.942 325.475 471.37 337.858L492.309 358.726C504.732 371.109 524.879 371.109 537.305 358.726L624.181 272.148C636.606 259.765 636.606 239.686 624.181 227.303L603.242 206.435C590.817 194.052 590.817 173.976 603.242 161.593L624.181 140.725C636.606 128.342 636.606 108.263 624.181 95.8799L537.305 9.30252C524.879 -3.08084 504.732 -3.08084 492.309 9.30252L471.37 30.1699C458.942 42.5533 438.797 42.5533 426.372 30.1699L405.433 9.30252C393.008 -3.08084 372.863 -3.08084 360.438 9.30252L339.499 30.1699C327.073 42.5533 306.926 42.5533 294.5 30.1699L273.562 9.30252C261.136 -3.08084 240.991 -3.08084 228.566 9.30252L207.627 30.1699C195.202 42.5533 175.054 42.5533 162.628 30.1699L141.69 9.30252C129.264 -3.08084 109.12 -3.08084 96.694 9.30252L9.81923 95.8799C-2.60641 108.266 -2.60641 128.342 9.81923 140.725L30.7566 161.596C43.1823 173.976 43.1823 194.055 30.7566 206.438L9.81923 227.303Z" fill="white"/>
</svg>
