<svg width="375" height="286" viewBox="0 0 375 286" fill="none" xmlns="http://www.w3.org/2000/svg">
<path d="M-37.6248 168.108L-37.6247 168.108L-22.3765 152.913C-14.1114 144.677 -14.1117 131.324 -22.3764 123.09L-22.3767 123.089L-37.6248 107.891C-47.4585 98.0905 -47.4583 82.2 -37.625 72.3982L-37.6248 72.398L25.6442 9.34711C35.474 -0.449036 51.4073 -0.449036 61.2371 9.34708L76.4864 24.544C84.7552 32.7845 98.1655 32.7845 106.434 24.544L121.683 9.34711C131.513 -0.449036 147.447 -0.449036 157.276 9.34711L172.525 24.544C180.794 32.7845 194.205 32.7845 202.473 24.544L217.723 9.34711C227.553 -0.449036 243.486 -0.449036 253.316 9.34711L268.565 24.544C276.834 32.7844 290.242 32.7846 298.513 24.544L313.762 9.34726C313.762 9.3472 313.762 9.34714 313.762 9.34708C323.59 -0.449188 339.525 -0.448883 349.355 9.34708L412.625 72.398C422.458 82.1979 422.458 98.0906 412.625 107.891L397.376 123.087C389.111 131.324 389.111 144.675 397.376 152.911L412.625 168.108C417.703 173.169 420 182.229 420 190.854C420 199.48 417.703 208.54 412.625 213.601L349.355 276.652C339.525 286.448 323.59 286.448 313.762 276.651L298.513 261.455C290.242 253.214 276.834 253.214 268.565 261.455L253.316 276.652C243.486 286.448 227.553 286.448 217.723 276.652L202.473 261.455L203.885 260.038L202.473 261.455C194.205 253.214 180.794 253.214 172.525 261.455L157.277 276.654L157.276 276.654C147.447 286.448 131.513 286.448 121.684 276.654L121.683 276.654L106.434 261.455C98.1656 253.214 84.7553 253.214 76.4865 261.455C76.4865 261.455 76.4864 261.455 76.4864 261.455L61.2372 276.654L61.2369 276.654C51.4074 286.447 35.4742 286.45 25.6442 276.654L27.0559 275.237L25.6441 276.654L-37.6248 213.601C-42.7028 208.54 -45 199.48 -45 190.854C-45 182.229 -42.7028 173.169 -37.6248 168.108Z" fill="#F9BF00" stroke="white" stroke-width="4"/>
</svg>
