<svg width="560" height="560" viewBox="0 0 560 560" fill="none" xmlns="http://www.w3.org/2000/svg">
<path d="M357.121 547.875L358.534 549.287L376.791 531.028C386.846 520.974 403.149 520.974 413.202 531.027L414.616 529.613L413.202 531.028L431.461 549.287C443.078 560.904 461.912 560.904 473.529 549.287L511.409 511.408L549.287 473.529C560.904 461.912 560.904 443.079 549.289 431.462L547.875 432.876L549.289 431.462L531.028 413.201C520.973 403.146 520.973 386.845 531.028 376.791L549.287 358.532C560.904 346.916 560.904 328.081 549.287 316.465L531.028 298.205C520.973 288.15 520.973 271.848 531.028 261.794L549.287 243.535C560.904 231.918 560.904 213.083 549.287 201.467L531.028 183.208C520.973 173.153 520.973 156.852 531.028 146.797L549.287 128.537C560.904 116.92 560.904 98.0867 549.287 86.4699L473.529 10.7126C461.912 -0.904236 443.078 -0.904236 431.461 10.7126L413.202 28.9713L414.616 30.3855L413.202 28.9714C403.149 39.026 386.846 39.0262 376.791 28.9713L358.533 10.7126C346.917 -0.904236 328.081 -0.904236 316.464 10.7126L298.206 28.9713C288.151 39.0261 271.848 39.0261 261.794 28.9713L243.536 10.7126C231.919 -0.904175 213.083 -0.904358 201.468 10.7126L183.209 28.9713L184.623 30.3855L183.209 28.9713C173.154 39.0262 156.851 39.026 146.798 28.9714L145.384 30.3855L146.798 28.9713L128.539 10.7126C116.922 -0.904236 98.0878 -0.904236 86.471 10.7126L10.7127 86.471C-0.904245 98.0867 -0.904243 116.922 10.7126 128.537L28.9722 146.798L30.3864 145.384L28.9722 146.798C39.027 156.853 39.027 173.155 28.9722 183.21L10.7147 201.467C-0.901947 213.084 -0.904414 231.917 10.7126 243.535L28.9722 261.795L30.3864 260.381L28.9722 261.795C39.027 271.85 39.027 288.151 28.9722 298.206L10.7127 316.465L10.7125 316.466C-0.902288 328.082 -0.902287 346.916 10.7125 358.533L10.7126 358.533L28.9722 376.793L28.9723 376.793C39.0269 386.846 39.0271 403.148 28.9723 413.203L10.7127 431.462L10.7125 431.462C-0.902287 443.079 -0.902287 461.913 10.7125 473.53L10.7127 473.53L86.471 549.287C98.0878 560.904 116.922 560.904 128.539 549.287L146.798 531.028L145.384 529.613L146.798 531.027C156.851 520.974 173.154 520.974 183.209 531.028L357.121 547.875ZM357.121 547.875L358.533 549.287C346.917 560.904 328.081 560.904 316.464 549.287L317.878 547.873L316.464 549.287L298.206 531.027C288.152 520.974 271.848 520.974 261.793 531.028L243.536 549.287L243.536 549.287C231.919 560.904 213.083 560.904 201.468 549.287C201.468 549.287 201.468 549.287 201.468 549.287L183.209 531.028L357.121 547.875Z" fill="#F9BF00" stroke="white" stroke-width="4"/>
</svg>
