<svg width="20" height="21" viewBox="0 0 20 21" fill="none" xmlns="http://www.w3.org/2000/svg">
<path d="M5.45449 3.22724C5.45449 3.76664 5.29454 4.29393 4.99487 4.74242C4.69519 5.19091 4.26926 5.54047 3.77092 5.74689C3.27258 5.95331 2.72422 6.00732 2.19519 5.90209C1.66615 5.79685 1.1802 5.53711 0.798793 5.1557C0.417381 4.77429 0.157636 4.28834 0.0524046 3.7593C-0.0528268 3.23027 0.00118142 2.68191 0.2076 2.18357C0.414019 1.68523 0.763577 1.2593 1.21207 0.959623C1.66056 0.65995 2.18785 0.5 2.72725 0.5C3.45056 0.5 4.14424 0.787334 4.6557 1.29879C5.16716 1.81025 5.45449 2.50393 5.45449 3.22724Z" fill="#19006E"/>
<path d="M4.83616 7.77279V19.8218C4.83664 19.9106 4.81955 19.9987 4.78587 20.081C4.75218 20.1633 4.70257 20.2381 4.63989 20.3011C4.5772 20.3641 4.50268 20.4141 4.4206 20.4482C4.33853 20.4824 4.25052 20.4999 4.16163 20.4999H1.28711C1.19822 20.5002 1.11017 20.4828 1.028 20.4489C0.94583 20.415 0.871173 20.3652 0.80832 20.3024C0.745466 20.2395 0.695656 20.1649 0.661751 20.0827C0.627846 20.0005 0.610515 19.9125 0.610755 19.8236V7.77279C0.610755 7.59341 0.682014 7.42138 0.808855 7.29454C0.935697 7.16769 1.10773 7.09644 1.28711 7.09644H4.16163C4.34069 7.09692 4.51226 7.16839 4.63871 7.29518C4.76516 7.42197 4.83617 7.59373 4.83616 7.77279Z" fill="#19006E"/>
<path d="M19.8616 14.0453V19.8779C19.8619 19.9597 19.8459 20.0406 19.8148 20.1162C19.7836 20.1917 19.7378 20.2604 19.68 20.3181C19.6222 20.3759 19.5536 20.4217 19.4781 20.4529C19.4025 20.4841 19.3215 20.5 19.2398 20.4997H16.1489C16.0672 20.5 15.9862 20.4841 15.9107 20.4529C15.8351 20.4217 15.7665 20.3759 15.7087 20.3181C15.6509 20.2604 15.6051 20.1917 15.574 20.1162C15.5428 20.0406 15.5269 19.9597 15.5271 19.8779V14.2253C15.5271 13.3816 15.7744 10.5307 13.3217 10.5307C11.4217 10.5307 11.0344 12.4816 10.9581 13.358V19.8779C10.9581 20.0413 10.8938 20.1981 10.7792 20.3144C10.6645 20.4308 10.5087 20.4973 10.3454 20.4997H7.35994C7.27836 20.4997 7.1976 20.4836 7.12226 20.4524C7.04692 20.4211 6.97849 20.3753 6.92089 20.3175C6.8633 20.2597 6.81766 20.1912 6.78661 20.1157C6.75556 20.0403 6.7397 19.9595 6.73994 19.8779V7.71987C6.7397 7.6383 6.75556 7.55748 6.78661 7.48205C6.81766 7.40662 6.8633 7.33805 6.92089 7.28029C6.97849 7.22253 7.04692 7.17669 7.12226 7.14542C7.1976 7.11415 7.27836 7.09806 7.35994 7.09806H10.3454C10.5103 7.09806 10.6684 7.16357 10.785 7.28018C10.9017 7.39679 10.9672 7.55495 10.9672 7.71987V8.77077C11.6726 7.71259 12.7181 6.89624 14.9489 6.89624C19.8907 6.89624 19.8616 11.5107 19.8616 14.0453Z" fill="#19006E"/>
</svg>
