<svg width="20" height="21" viewBox="0 0 20 21" fill="none" xmlns="http://www.w3.org/2000/svg">
<path d="M12.6233 6.75C13.0055 6.75 13.291 6.39633 13.1915 6.02728C12.4794 3.38588 11.1951 1.75 10 1.75C8.80489 1.75 7.5206 3.38588 6.80852 6.02728C6.70903 6.39633 6.99446 6.75 7.37668 6.75H12.6233Z" fill="#19006E"/>
<path d="M6.25 10.5C6.24988 11.1611 6.28471 11.8217 6.35431 12.4789C6.38596 12.7778 6.64118 13 6.94169 13H13.0583C13.3588 13 13.614 12.7778 13.6457 12.4789C13.7153 11.8217 13.7501 11.1611 13.75 10.5C13.7501 9.83885 13.7153 9.17828 13.6457 8.52106C13.614 8.22222 13.3588 8 13.0583 8H6.94169C6.64118 8 6.38596 8.22222 6.35431 8.52106C6.28471 9.17828 6.24988 9.83885 6.25 10.5Z" fill="#19006E"/>
<path d="M7.37668 14.25C6.99446 14.25 6.70903 14.6037 6.80852 14.9727C7.5206 17.6141 8.80489 19.25 10 19.25C11.1951 19.25 12.4794 17.6141 13.1915 14.9727C13.291 14.6037 13.0055 14.25 12.6233 14.25H7.37668Z" fill="#19006E"/>
<path d="M14.5436 6.2674C14.6074 6.54677 14.8528 6.74989 15.1394 6.74989H17.6647C18.0978 6.74989 18.3856 6.30552 18.1736 5.92788C17.6064 4.91793 16.8564 4.01897 15.9591 3.27823C15.4343 2.84497 14.8658 2.47143 14.2644 2.16281C13.7111 1.87882 13.1731 2.68376 13.4624 3.23435C13.9125 4.09079 14.2806 5.11722 14.5436 6.2674Z" fill="#19006E"/>
<path d="M19.1447 8.44176C19.0851 8.17908 18.8468 8 18.5775 8H15.5248C15.1641 8 14.8856 8.31603 14.9181 8.67531C14.9729 9.28188 15.0002 9.89073 15 10.5C15.0001 11.1092 14.9726 11.718 14.9176 12.3245C14.8851 12.6839 15.1636 13 15.5244 13H18.5768C18.8462 13 19.0845 12.8209 19.1441 12.5582C19.4512 11.2033 19.4516 9.79669 19.1447 8.44176Z" fill="#19006E"/>
<path d="M13.4622 17.7662C13.1727 18.3167 13.7105 19.1216 14.2639 18.8378C14.8658 18.5291 15.4346 18.1554 15.9598 17.7219C16.8573 16.9811 17.6075 16.0821 18.1748 15.072C18.3869 14.6944 18.0991 14.25 17.6659 14.25H15.1404C14.8539 14.25 14.6086 14.453 14.5447 14.7322C14.2811 15.8828 13.9126 16.9096 13.4622 17.7662Z" fill="#19006E"/>
<path d="M5.45643 14.7325C5.39256 14.4531 5.14718 14.25 4.8606 14.25H2.3353C1.90219 14.25 1.61439 14.6944 1.82647 15.072C2.39373 16.0821 3.14397 16.9811 4.04146 17.7219C4.56598 18.1548 5.13405 18.5281 5.73505 18.8366C6.28854 19.1206 6.82669 18.3152 6.53724 17.7645C6.08719 16.9083 5.7193 15.8822 5.45643 14.7325Z" fill="#19006E"/>
<path d="M6.53783 3.23364C6.82729 2.68315 6.28951 1.8783 5.7361 2.16213C5.13425 2.47081 4.5654 2.8445 4.04021 3.27798C3.14272 4.01875 2.39248 4.91779 1.82522 5.92786C1.61314 6.3055 1.90094 6.74989 2.33405 6.74989H4.8596C5.14606 6.74989 5.39139 6.54693 5.45535 6.26769C5.71893 5.11707 6.0874 4.0903 6.53783 3.23364Z" fill="#19006E"/>
<path d="M5 10.5C4.99994 9.89077 5.02744 9.28197 5.08236 8.67546C5.11491 8.31613 4.83642 8 4.47562 8H1.42315C1.15382 8 0.915488 8.17908 0.855958 8.44176C0.548889 9.79669 0.548889 11.2033 0.855958 12.5582C0.915488 12.8209 1.15382 13 1.42315 13H4.47562C4.83642 13 5.11491 12.6839 5.08236 12.3245C5.02744 11.718 4.99994 11.1092 5 10.5Z" fill="#19006E"/>
</svg>
