<svg xmlns="http://www.w3.org/2000/svg" width="53" height="53" fill="none"><g clip-path="url(#a)"><mask id="b" width="52" height="52" x="0" y="0" maskUnits="userSpaceOnUse" style="mask-type:luminance"><path fill="#fff" d="M51.357.598H.512v50.845h50.845V.598Z"/></mask><g mask="url(#b)"><path fill="#8BC3C3" d="m42.12 7.723-1.18-.75c-.338-.079-.647-.192-.896-.374-1.05-.763-1.267-2.904-2.431-3.498-1.152-.588-3.011.49-4.258.085-1.226-.398-2.096-2.366-3.397-2.57-1.268-.2-2.7 1.401-4.023 1.401-1.324 0-2.756-1.6-4.024-1.401-1.301.204-2.17 2.172-3.397 2.57-1.247.405-3.106-.673-4.258-.085-1.165.595-1.382 2.735-2.431 3.499-1.054.767-3.156.316-4.076 1.236-.92.92-.469 3.022-1.236 4.076-.764 1.049-2.904 1.266-3.498 2.43-.477.935.142 2.334.177 3.495l5.356 8.183-5.357 8.201c-.04 1.158-.65 2.548-.176 3.479.595 1.164 2.735 1.381 3.499 2.43.767 1.054.316 3.157 1.236 4.077.92.92 3.022.468 4.076 1.235 1.05.764 1.266 2.904 2.43 3.498 1.153.589 3.011-.49 4.259-.084.276.09.535.26.784.47l2.06.612c14.126-1.025 25.267-12.809 25.267-27.196 0-5.55-1.659-10.712-4.507-15.019Z"/><path fill="#8BC3C3" d="m48.679 34.239-2.257-8.218 2.255-8.184c.035-1.161.654-2.56.177-3.495-.595-1.165-2.735-1.382-3.499-2.431-.767-1.054-.316-3.157-1.236-4.076-.702-.703-2.091-.604-3.18-.861a27.732 27.732 0 0 1 4.104 14.56c0 14.682-11.341 26.703-25.744 27.793.859.724 1.602 1.94 2.612 2.099 1.268.199 2.7-1.402 4.024-1.402 1.323 0 2.755 1.6 4.023 1.402 1.301-.205 2.171-2.173 3.397-2.57 1.248-.406 3.106.672 4.259.084 1.164-.595 1.381-2.735 2.43-3.499 1.054-.767 3.157-.316 4.077-1.236.92-.92.468-3.022 1.235-4.076.764-1.049 2.904-1.266 3.498-2.43.473-.925-.13-2.306-.175-3.46Z"/><path fill="#F4E0B2" d="M25.934 8.157c-.303 0-.649.05-.97.151l-13.448 4.247a1.64 1.64 0 0 0-1.146 1.564v3.718L12.64 34.24c3.091 5.637 8.61 9.145 11.837 10.784.46.233.959.349 1.458.351l1.659-19.113-1.659-18.104Z"/><path fill="#F0D28B" d="M40.387 12.555 26.94 8.308a3.277 3.277 0 0 0-1.005-.15v37.216a3.252 3.252 0 0 0 1.492-.352c3.227-1.638 8.746-5.147 11.838-10.783l2.268-16.402V14.12a1.64 1.64 0 0 0-1.146-1.564Z"/><path fill="#52A7A7" d="M44.8 17.837H3.191a2.27 2.27 0 0 1-.092.764C2.701 19.826.734 20.696.53 21.997c-.199 1.268 1.402 2.7 1.402 4.024 0 1.323-1.601 2.755-1.402 4.023.154.978 1.303 1.712 2.034 2.537l2.04.86h41.754V19.014L44.8 17.837Z"/><path fill="#4C9090" d="M51.34 21.997c-.205-1.3-2.173-2.17-2.57-3.397a2.27 2.27 0 0 1-.093-.763H44.8c.161 1.21.243 2.443.243 3.698 0 3.062-.497 6.007-1.41 8.762a3.305 3.305 0 0 1-3.13 2.284H2.563c.242.273.438.555.537.86.077.24.1.505.091.78l45.488.017a2.31 2.31 0 0 1 .09-.798c.398-1.225 2.366-2.095 2.57-3.396.2-1.268-1.4-2.7-1.4-4.024 0-1.323 1.6-2.755 1.4-4.023Z"/><path fill="#fff" d="M32.106 22.102a.982.982 0 0 0-.91-.613h-.002a.991.991 0 0 0-.921.631l-2.752 7.226a.82.82 0 0 0 1.533.584l.484-1.271h3.29l.479 1.269a.82.82 0 1 0 1.534-.58l-2.735-7.246Zm-1.944 4.916 1.028-2.699 1.02 2.7h-2.048ZM23.579 21.597h-2.014a.82.82 0 0 0-.82.822l.014 7.112a.82.82 0 0 0 .82.819h.003s1.492-.006 2.07-.016c2.097-.036 3.62-1.87 3.62-4.36 0-2.618-1.484-4.377-3.693-4.377Zm.045 7.097c-.284.005-.789.009-1.226.012l-.011-5.469h1.192c1.514 0 2.052 1.414 2.052 2.736 0 1.294-.627 2.697-2.007 2.72ZM45.168 25.261a38.583 38.583 0 0 1-2.011-.812.603.603 0 0 1-.226-.574c.022-.148.127-.508.65-.666 1.09-.328 2.091.472 2.106.484a.82.82 0 0 0 1.052-1.259c-.067-.056-1.674-1.384-3.63-.795-.977.294-1.666 1.062-1.801 2.003a2.233 2.233 0 0 0 .997 2.212.782.782 0 0 0 .113.061c.042.02 1.049.468 2.183.885.343.127 1.132.49 1.022 1.105-.08.449-.616.913-1.375.913-.756 0-1.483-.306-1.947-.817a.821.821 0 0 0-1.215 1.101c.77.85 1.951 1.356 3.162 1.356 1.498 0 2.755-.952 2.99-2.264.175-.984-.276-2.27-2.07-2.933ZM40.18 21.64a.82.82 0 0 0-1.135.24l-1.635 2.512-1.655-2.532a.82.82 0 0 0-1.372.897l2.207 3.38-.01 3.499c0 .453.366.82.819.822h.002a.82.82 0 0 0 .82-.818l.01-3.502 2.188-3.364a.82.82 0 0 0-.24-1.134ZM14.315 30.624a2.952 2.952 0 0 1-2.949-2.948V24.27a2.952 2.952 0 0 1 2.949-2.949 2.952 2.952 0 0 1 2.949 2.95v3.404a2.952 2.952 0 0 1-2.949 2.948Zm0-7.661a1.31 1.31 0 0 0-1.308 1.308v3.404a1.31 1.31 0 0 0 1.308 1.31 1.31 1.31 0 0 0 1.309-1.31v-3.404a1.31 1.31 0 0 0-1.309-1.308ZM7.468 30.625a2.798 2.798 0 0 1-2.788-2.79.82.82 0 1 1 1.64 0 1.152 1.152 0 0 0 1.148 1.149 1.15 1.15 0 0 0 1.15-1.148 1.15 1.15 0 0 0-1.15-1.15.82.82 0 1 1 0-1.64c.575 0 1.042-.467 1.042-1.041a1.042 1.042 0 0 0-2.064-.203.82.82 0 0 1-1.61-.316 2.687 2.687 0 0 1 2.633-2.163 2.685 2.685 0 0 1 2.682 2.682c0 .71-.278 1.358-.732 1.839.518.506.839 1.212.839 1.991a2.792 2.792 0 0 1-2.79 2.79Z"/></g></g><defs><clipPath id="a"><path fill="#fff" d="M.255.24h52v52h-52z"/></clipPath></defs></svg>