<svg xmlns="http://www.w3.org/2000/svg" width="53" height="53" fill="none"><g clip-path="url(#a)"><path fill="#52A7A7" d="M2.689 28.697a3.573 3.573 0 0 1 .83 4.188 3.531 3.531 0 0 0 1.993 4.857 3.573 3.573 0 0 1 2.368 3.746 3.573 3.573 0 0 0 4.014 3.546 3.52 3.52 0 0 1 3.305 2.395 3.53 3.53 0 0 0 4.884 2.02 3.599 3.599 0 0 1 2.208-.28c2.18.36 2.1 2.274 4.63 2.274 2.528 0 2.448-1.913 4.629-2.301a3.532 3.532 0 0 1 2.208.28 3.53 3.53 0 0 0 4.883-1.993 3.518 3.518 0 0 1 3.332-2.369 3.57 3.57 0 0 0 4.014-3.746 3.533 3.533 0 0 1 2.341-3.572 3.52 3.52 0 0 0 2.02-4.884 3.559 3.559 0 0 1 .804-4.161 3.549 3.549 0 0 0 .9-4.147 3.548 3.548 0 0 0-.9-1.205 3.572 3.572 0 0 1-.83-4.188 3.533 3.533 0 0 0-1.994-4.857 3.572 3.572 0 0 1-2.368-3.747 3.575 3.575 0 0 0-4.014-3.545 3.519 3.519 0 0 1-3.305-2.396 3.546 3.546 0 0 0-3.345-2.381c-1.338 0-1.672.709-3.09.709-2.717.027-2.61-2.342-5.286-2.342a3.56 3.56 0 0 0-2.676 1.191 3.559 3.559 0 0 1-4.188.83A3.532 3.532 0 0 0 15.2 4.612a3.573 3.573 0 0 1-3.746 2.369 3.572 3.572 0 0 0-3.546 4.014A3.519 3.519 0 0 1 5.512 14.3a3.547 3.547 0 0 0-2.382 3.345c0 1.338.71 1.672.71 3.09.026 2.717-2.342 2.61-2.342 5.286a3.559 3.559 0 0 0 1.19 2.676Z"/><path fill="#fff" d="M16.52 23.654c0-.85.21-1.62.629-2.311a4.595 4.595 0 0 1 1.72-1.646c.726-.406 1.54-.61 2.44-.61.998 0 1.855.24 2.57.721.727.481 1.288 1.171 1.682 2.071.395.888.592 1.966.592 3.236 0 1.59-.21 2.933-.629 4.03-.407 1.097-.992 1.93-1.756 2.496-.765.567-1.664.85-2.7.85-.826 0-1.59-.178-2.292-.535A4.923 4.923 0 0 1 17 30.42l1.423-1.553c.296.456.678.813 1.147 1.072.48.271.992.407 1.534.407.555 0 1.03-.148 1.424-.444.407-.295.721-.72.943-1.275.234-.567.357-1.245.37-2.034a2.57 2.57 0 0 1-.666.758 3.038 3.038 0 0 1-.943.517c-.345.111-.727.167-1.146.167-.85 0-1.627-.191-2.33-.573a4.577 4.577 0 0 1-1.645-1.572c-.395-.665-.592-1.411-.592-2.237Zm4.789-2.477c-.432 0-.832.117-1.202.35a2.55 2.55 0 0 0-.888.888 2.36 2.36 0 0 0-.332 1.239c0 .444.104.85.314 1.22.222.358.518.647.887.87.37.209.777.314 1.22.314.444 0 .845-.105 1.202-.315.37-.222.666-.511.888-.869.222-.37.333-.776.333-1.22 0-.444-.111-.85-.333-1.22a2.502 2.502 0 0 0-.888-.906 2.204 2.204 0 0 0-1.201-.351ZM32.707 32.242v-2.755h-5.399v-2.2l6.194-7.95h1.683v7.931h1.627v2.22h-1.627v2.754h-2.478Zm-2.921-4.973h3.198V23.09l-3.198 4.178ZM39.613 25.341c-.308 0-.589-.065-.841-.194a1.58 1.58 0 0 1-.592-.527 1.346 1.346 0 0 1-.213-.74c0-.27.071-.517.213-.739a1.58 1.58 0 0 1 .592-.527c.252-.13.533-.194.84-.194.309 0 .586.065.833.194.252.13.45.305.591.527.148.222.222.468.222.74 0 .27-.074.517-.222.74a1.49 1.49 0 0 1-.591.526c-.247.13-.524.194-.832.194Zm0-.832c.08 0 .154-.028.222-.083a.615.615 0 0 0 .157-.231.774.774 0 0 0 .065-.314.734.734 0 0 0-.065-.315.538.538 0 0 0-.157-.222.324.324 0 0 0-.222-.092c-.08 0-.154.03-.222.092a.621.621 0 0 0-.166.222.842.842 0 0 0-.056.315c0 .11.019.215.056.314a.72.72 0 0 0 .166.23.343.343 0 0 0 .222.084Zm3.966 4.66c-.308 0-.589-.065-.842-.195a1.58 1.58 0 0 1-.591-.527 1.346 1.346 0 0 1-.213-.74c0-.27.071-.517.213-.739.148-.222.345-.397.591-.527.253-.13.534-.194.842-.194.308 0 .585.065.832.194.252.13.45.305.591.527.148.222.222.469.222.74 0 .27-.074.517-.222.74a1.491 1.491 0 0 1-.591.526c-.247.13-.524.194-.832.194Zm0-.833c.08 0 .154-.027.221-.083a.614.614 0 0 0 .158-.231.774.774 0 0 0 .064-.314.734.734 0 0 0-.064-.315.538.538 0 0 0-.157-.221.323.323 0 0 0-.222-.093c-.08 0-.154.03-.222.093a.621.621 0 0 0-.167.221.84.84 0 0 0-.055.315c0 .11.018.216.055.314a.72.72 0 0 0 .167.231.343.343 0 0 0 .222.083Zm-4.835.139 2.616-2.949 2.32-3.115.768.693-2.506 2.857-2.43 3.207-.768-.693Z"/><path fill="#F4E0B2" d="M23.665 8.563a.748.748 0 0 1-.177-.747.705.705 0 0 1 .567-.497l1.43-.216a.223.223 0 0 0 .166-.126l.64-1.351c.12-.25.36-.405.629-.405.134 0 .262.038.37.108a.73.73 0 0 1 .259.297l.64 1.35a.223.223 0 0 0 .166.127l1.432.216c.265.04.482.23.565.497a.744.744 0 0 1-.178.747l-1.035 1.05a.244.244 0 0 0-.064.205l.244 1.483a.736.736 0 0 1-.278.713.68.68 0 0 1-.739.056l-1.278-.7a.219.219 0 0 0-.208 0l-1.278.699a.673.673 0 0 1-.74-.055.738.738 0 0 1-.277-.715l.244-1.481a.245.245 0 0 0-.064-.205l-1.036-1.05Z"/><path fill="#F0D28B" d="M23.665 43.23a.748.748 0 0 1-.177-.748.705.705 0 0 1 .567-.496l1.43-.216a.223.223 0 0 0 .166-.127l.64-1.35c.12-.25.36-.406.629-.406.134 0 .262.038.37.108a.73.73 0 0 1 .259.298l.64 1.35a.223.223 0 0 0 .166.127l1.432.216c.265.04.482.23.565.496a.744.744 0 0 1-.178.748l-1.035 1.05a.244.244 0 0 0-.064.204l.244 1.484a.736.736 0 0 1-.278.712.68.68 0 0 1-.739.057l-1.278-.701a.219.219 0 0 0-.208 0l-1.278.7a.673.673 0 0 1-.74-.055.738.738 0 0 1-.277-.715l.244-1.482a.245.245 0 0 0-.064-.204l-1.036-1.05Z"/><path fill="#F4E0B2" d="M32.874 11.473a.623.623 0 0 1-.147-.623c.069-.222.25-.38.472-.414l1.192-.18a.186.186 0 0 0 .138-.105l.533-1.126a.58.58 0 0 1 .525-.338.57.57 0 0 1 .524.338l.533 1.126a.186.186 0 0 0 .138.105l1.194.18c.22.033.401.192.47.414a.62.62 0 0 1-.147.623l-.864.875a.203.203 0 0 0-.053.17l.204 1.236a.613.613 0 0 1-.232.594.566.566 0 0 1-.615.047l-1.066-.584a.182.182 0 0 0-.173 0l-1.065.583a.56.56 0 0 1-.616-.046.616.616 0 0 1-.232-.595l.204-1.235a.203.203 0 0 0-.053-.17l-.864-.875Z"/><path fill="#F0D28B" d="M32.874 40.362a.623.623 0 0 1-.147-.623c.069-.222.25-.381.472-.414l1.192-.18a.186.186 0 0 0 .138-.106l.533-1.125a.58.58 0 0 1 .525-.338.57.57 0 0 1 .524.338l.533 1.125a.186.186 0 0 0 .138.106l1.194.18c.22.033.401.192.47.414a.62.62 0 0 1-.147.623l-.864.875a.203.203 0 0 0-.053.17l.204 1.236a.613.613 0 0 1-.232.594.565.565 0 0 1-.615.047l-1.066-.584a.182.182 0 0 0-.173 0l-1.065.583a.56.56 0 0 1-.616-.046.616.616 0 0 1-.232-.595l.204-1.235a.204.204 0 0 0-.053-.17l-.864-.875Z"/><path fill="#F4E0B2" d="M15.541 11.473a.623.623 0 0 1-.148-.623c.07-.222.25-.38.473-.414l1.191-.18a.186.186 0 0 0 .139-.105l.533-1.126a.58.58 0 0 1 .524-.338.57.57 0 0 1 .524.338l.534 1.126a.185.185 0 0 0 .138.105l1.193.18c.221.033.402.192.471.414a.62.62 0 0 1-.148.623l-.863.875a.203.203 0 0 0-.053.17l.204 1.236a.613.613 0 0 1-.232.594.566.566 0 0 1-.616.047l-1.065-.584a.182.182 0 0 0-.173 0l-1.066.583a.56.56 0 0 1-.615-.046.615.615 0 0 1-.232-.595l.204-1.235a.203.203 0 0 0-.054-.17l-.863-.875Z"/><path fill="#F0D28B" d="M15.541 40.362a.623.623 0 0 1-.148-.623c.07-.222.25-.381.473-.414l1.191-.18a.186.186 0 0 0 .139-.106l.533-1.125a.58.58 0 0 1 .833-.248.61.61 0 0 1 .215.248l.534 1.125a.185.185 0 0 0 .138.106l1.193.18c.221.033.402.192.471.414a.62.62 0 0 1-.148.623l-.863.875a.204.204 0 0 0-.053.17l.204 1.236a.613.613 0 0 1-.232.594.565.565 0 0 1-.616.047L18.34 42.7a.182.182 0 0 0-.173 0l-1.066.583a.56.56 0 0 1-.615-.046.615.615 0 0 1-.232-.595l.204-1.235a.204.204 0 0 0-.054-.17l-.863-.875Z"/></g><defs><clipPath id="a"><path fill="#fff" d="M.625.24h52v52h-52z"/></clipPath></defs></svg>