<svg xmlns="http://www.w3.org/2000/svg" width="32" height="32" fill="none"><g clip-path="url(#a)"><path fill="#BED9D9" d="M19.638 15.409h-3.53a.882.882 0 0 1-.623-1.506l2.023-2.024h-1.4a.882.882 0 0 1 0-1.764h3.53a.882.882 0 0 1 .624 1.506l-2.023 2.023h1.4a.882.882 0 1 1 0 1.765ZM26.697 8.35h-3.53a.882.882 0 0 1-.623-1.506l2.023-2.023h-1.4a.882.882 0 0 1 0-1.765h3.53a.882.882 0 0 1 .624 1.506l-2.023 2.023h1.399a.882.882 0 0 1 0 1.765Z"/><path fill="#BED9D9" d="M16.109 31.468c-8.304 0-15.06-6.77-15.06-15.09 0-3.841 1.446-7.495 4.07-10.287 2.712-2.885 6.463-4.568 10.563-4.74a.882.882 0 0 1 .836.507c.17.365.1.845-.371 1.15-1.03.667-4.391 3.222-4.391 8.077 0 5.32 4.327 9.647 9.647 9.647 4.702 0 7.226-3.058 8.093-4.373.425-.644.99-.47 1.164-.39.322.152.522.481.507.837-.172 4.096-1.859 7.85-4.75 10.572a14.987 14.987 0 0 1-10.308 4.09Z"/></g><defs><clipPath id="a"><path fill="#fff" d="M0 .5h32v31H0z"/></clipPath></defs></svg>