<svg width="44" height="18" viewBox="0 0 44 18" fill="none" xmlns="http://www.w3.org/2000/svg">
<path d="M13.1927 15.6121C14.8919 15.6121 16.5529 15.6902 18.2012 15.593C20.35 15.465 22.0537 14.436 23.267 12.6515C25.6101 9.20039 24.1216 4.3798 20.2537 2.82409C19.4319 2.49243 18.5535 2.32311 17.6672 2.3255C12.5706 2.3255 7.47357 2.3255 2.37629 2.3255C2.01302 2.3255 2.01302 2.3255 2.01302 2.70058C2.01302 7.56295 2.01302 12.4253 2.01302 17.2877C2.02444 17.3623 2.022 17.4383 2.00577 17.512C1.97671 17.5774 1.90224 17.6673 1.84684 17.6682C1.2874 17.6797 0.727644 17.6797 0.167603 17.6682C0.11402 17.6682 0.0468199 17.5774 0.0132174 17.5093C-0.0122115 17.4611 0.00687615 17.3903 0.00687615 17.3276C0.00687615 11.7696 0.00687615 6.21158 0.00687615 0.653554C0.00687615 0.312988 0.00686463 0.312988 0.335624 0.312988C6.0983 0.312988 11.861 0.312988 17.6237 0.312988C19.6879 0.312988 21.556 0.913292 23.1799 2.19927C24.6974 3.3789 25.7596 5.0476 26.1859 6.92178C26.2005 6.9799 26.215 7.03893 26.2331 7.09615C26.2487 7.12788 26.267 7.15826 26.2876 7.18696C26.3449 7.1016 26.3948 7.03258 26.4393 6.96083C27.7325 4.84781 29.0246 2.73388 30.3154 0.619044C30.3526 0.54208 30.4123 0.478215 30.4865 0.435892C30.5608 0.393569 30.6462 0.374781 30.7313 0.38201C31.3207 0.395633 31.912 0.386551 32.5005 0.387459C32.574 0.387459 32.6476 0.393816 32.7557 0.398357C32.735 0.460535 32.7101 0.521223 32.6812 0.579992C30.0956 4.91289 27.5327 9.26033 24.9099 13.5669C23.8437 15.3188 22.2626 16.5067 20.3264 17.1996C19.424 17.5099 18.4742 17.6599 17.5201 17.6428C15.4858 17.6385 13.4515 17.6385 11.4172 17.6428C11.1039 17.6428 11.103 17.6428 11.103 17.3267C11.1066 14.1124 11.1099 10.8987 11.1129 7.68555C11.1129 7.48575 11.1593 7.40311 11.379 7.4131C11.8922 7.42854 12.4071 7.42854 12.9229 7.4131C13.1473 7.40583 13.2026 7.48485 13.2017 7.69736C13.1963 10.2312 13.1963 12.7644 13.2017 15.297L13.1927 15.6121Z" fill="url(#paint0_radial_635_3433)"/>
<path d="M10.5202 3.10284C12.8815 3.10284 15.2427 3.1092 17.5994 3.10284C19.6773 3.09467 21.342 3.9202 22.549 5.60123C24.7659 8.68903 23.4336 13.0828 19.8899 14.4578C19.2068 14.7281 18.4785 14.8659 17.7438 14.8637C16.602 14.8577 15.4601 14.8577 14.3182 14.8637C14.1039 14.8637 14.0321 14.8083 14.033 14.5849C14.0403 12.3017 14.0376 10.0177 14.0385 7.73363C14.0385 7.42576 14.0385 7.42576 14.3518 7.42576C14.844 7.42576 15.3354 7.43665 15.8267 7.42121C16.0528 7.41395 16.1246 7.4748 16.1237 7.71002C16.1128 9.32112 16.1236 10.9322 16.1128 12.5424C16.1128 12.7676 16.1663 12.8476 16.4025 12.8376C16.9764 12.8131 17.554 12.8448 18.128 12.8022C19.8063 12.6786 21.2939 11.2583 21.5218 9.58721C21.8034 7.51839 20.5628 5.70567 18.5303 5.23342C18.257 5.17182 17.9776 5.14135 17.6975 5.1426C13.4775 5.13655 9.25755 5.13322 5.03756 5.13261C4.79871 5.13261 4.74332 5.21163 4.74877 5.43231C4.76148 6.00749 4.76148 6.58267 4.74877 7.15784C4.74332 7.36491 4.80416 7.4303 5.01395 7.4303C6.67773 7.42303 8.3415 7.4303 10.0089 7.42212C10.2251 7.42212 10.2977 7.47571 10.2914 7.69458C10.2777 8.20134 10.2804 8.7081 10.2968 9.21486C10.3032 9.43373 10.2351 9.4964 10.0171 9.49549C7.80115 9.48822 5.58518 9.49549 3.36923 9.49549C3.24754 9.49549 3.12584 9.48822 3.00596 9.49549C2.81161 9.51184 2.74715 9.441 2.74806 9.23847C2.75805 7.62011 2.75531 6.00174 2.75712 4.38337C2.75712 4.05007 2.76804 3.71677 2.75169 3.38438C2.7417 3.16278 2.82434 3.10284 3.03867 3.10375C4.82323 3.11011 6.6078 3.10375 8.3969 3.10375H10.5293L10.5202 3.10284Z" fill="url(#paint1_radial_635_3433)"/>
<path d="M36.719 12.8821L32.7775 6.31146C32.6422 6.54122 32.5296 6.72467 32.4233 6.91176C30.4157 10.4367 28.4065 13.9604 26.3958 17.4829C26.3667 17.5306 26.3277 17.5715 26.2815 17.6028C26.2353 17.6341 26.1829 17.6552 26.1278 17.6645C25.3105 17.68 24.4931 17.6745 23.6758 17.6736C23.6147 17.6677 23.5541 17.6583 23.4941 17.6455L32.7739 2.18652L40.4243 14.841C40.3172 14.8519 40.2481 14.8646 40.18 14.8646C36.8289 14.8646 33.478 14.8646 30.1275 14.8646C29.9458 14.8646 29.8704 14.822 29.8759 14.6249C29.888 14.126 29.888 13.6271 29.8759 13.1282C29.8713 12.9293 29.9349 12.8703 30.1347 12.8712C32.2235 12.8776 34.3123 12.8712 36.4011 12.8712L36.719 12.8821Z" fill="url(#paint2_radial_635_3433)"/>
<path d="M32.7699 0.395642H33.2966C33.8251 0.395642 34.3546 0.400183 34.8841 0.395642C34.951 0.388789 35.0184 0.402505 35.0773 0.434959C35.1362 0.467413 35.1838 0.517061 35.2137 0.577277C37.8075 4.82451 40.4052 9.07023 43.0068 13.3144C43.0556 13.3801 43.0819 13.4597 43.0819 13.5415C43.0819 13.6233 43.0556 13.7029 43.0068 13.7685C42.2585 15 41.5162 16.2357 40.78 17.4757C40.7445 17.5448 40.6891 17.6016 40.6209 17.6387C40.5527 17.6758 40.4749 17.6915 40.3976 17.6837C36.972 17.6837 33.5466 17.6837 30.1216 17.6837C29.93 17.6837 29.8737 17.621 29.8773 17.4357C29.8873 16.9371 29.8909 16.4367 29.8773 15.9391C29.8709 15.7166 29.95 15.6602 30.1634 15.6602C33.9214 15.6681 37.6794 15.6714 41.4375 15.6702C41.5474 15.6702 41.6563 15.6584 41.8225 15.6484L32.7699 0.395642Z" fill="url(#paint3_radial_635_3433)"/>
<path d="M6.53382 10.3266C7.6981 10.3266 8.86238 10.332 10.0276 10.322C10.2392 10.322 10.3 10.3856 10.2946 10.5945C10.2828 11.1012 10.2809 11.608 10.2946 12.1148C10.3009 12.3309 10.2374 12.3981 10.0158 12.3972C8.36743 12.389 6.71908 12.3927 5.07074 12.3927C4.75015 12.3927 4.74926 12.3927 4.74926 12.7196C4.74926 14.278 4.74925 15.8356 4.7547 17.3931C4.7547 17.6237 4.69203 17.6946 4.46136 17.6864C3.96277 17.6701 3.46237 17.6746 2.96469 17.6864C2.79122 17.6864 2.74219 17.6247 2.74219 17.463C2.74219 15.1562 2.74219 12.8498 2.74219 10.5436C2.74219 10.3429 2.84118 10.3293 2.99557 10.3293C4.17347 10.3284 5.35319 10.3266 6.53382 10.3266Z" fill="url(#paint4_radial_635_3433)"/>
<defs>
<radialGradient id="paint0_radial_635_3433" cx="0" cy="0" r="1" gradientUnits="userSpaceOnUse" gradientTransform="translate(0.702678 10.0367) scale(29.7828 473.339)">
<stop stop-color="#691BEA"/>
<stop offset="1" stop-color="#9E41EF"/>
</radialGradient>
<radialGradient id="paint1_radial_635_3433" cx="0" cy="0" r="1" gradientUnits="userSpaceOnUse" gradientTransform="translate(3.19606 9.68892) scale(18.9889 320.604)">
<stop stop-color="#691BEA"/>
<stop offset="1" stop-color="#9E41EF"/>
</radialGradient>
<radialGradient id="paint2_radial_635_3433" cx="0" cy="0" r="1" gradientUnits="userSpaceOnUse" gradientTransform="translate(23.8573 10.8602) scale(15.3936 422.224)">
<stop stop-color="#691BEA"/>
<stop offset="1" stop-color="#9E41EF"/>
</radialGradient>
<radialGradient id="paint3_radial_635_3433" cx="0" cy="0" r="1" gradientUnits="userSpaceOnUse" gradientTransform="translate(30.1602 10.0773) scale(12.0065 471.372)">
<stop stop-color="#691BEA"/>
<stop offset="1" stop-color="#9E41EF"/>
</radialGradient>
<radialGradient id="paint4_radial_635_3433" cx="0" cy="0" r="1" gradientUnits="userSpaceOnUse" gradientTransform="translate(2.90421 14.4464) scale(6.86732 200.77)">
<stop stop-color="#691BEA"/>
<stop offset="1" stop-color="#9E41EF"/>
</radialGradient>
</defs>
</svg>
