<svg width="64" height="65" viewBox="0 0 64 65" fill="none" xmlns="http://www.w3.org/2000/svg">
<path d="M32.0006 64.4827C14.3212 64.4609 -0.0579476 50.1054 0.00017559 32.366C0.0601151 14.7892 14.3775 0.455458 32.0869 0.498142C49.6665 0.540826 64.0074 14.8373 63.9993 32.5422C63.9902 50.1335 49.611 64.4827 32.0006 64.4827ZM32.0061 63.3929C49.0225 63.3983 62.7024 49.6704 62.9158 32.9127C63.1338 15.5439 49.1778 1.77322 32.4102 1.5716C15.0477 1.36272 1.12176 15.3759 1.07817 32.3842C1.0264 49.486 14.9006 63.4229 32.0079 63.3983L32.0061 63.3929Z" fill="#212121"/>
<path d="M24.1575 39.1038C25.8567 39.1038 27.5177 39.1819 29.1661 39.0847C31.3148 38.9567 33.0186 37.9277 34.2319 36.1432C36.575 32.6921 35.0865 27.8715 31.2186 26.3158C30.3967 25.9841 29.5184 25.8148 28.6321 25.8172C23.5354 25.8172 18.4384 25.8172 13.3411 25.8172C12.9779 25.8172 12.9779 25.8172 12.9779 26.1923C12.9779 31.0546 12.9779 35.917 12.9779 40.7794C12.9893 40.854 12.9868 40.93 12.9706 41.0037C12.9416 41.0691 12.8671 41.159 12.8117 41.1599C12.2522 41.1714 11.6925 41.1714 11.1324 41.1599C11.0789 41.1599 11.0117 41.0691 10.9781 41.001C10.9526 40.9528 10.9717 40.882 10.9717 40.8193C10.9717 35.2613 10.9717 29.7033 10.9717 24.1453C10.9717 23.8047 10.9717 23.8047 11.3005 23.8047C17.0631 23.8047 22.8258 23.8047 28.5885 23.8047C30.6528 23.8047 32.5209 24.405 34.1447 25.691C35.6622 26.8706 36.7244 28.5393 37.1508 30.4135C37.1653 30.4716 37.1798 30.5306 37.198 30.5878C37.2136 30.6196 37.2318 30.65 37.2525 30.6787C37.3097 30.5933 37.3596 30.5243 37.4041 30.4525C38.6974 28.3395 39.9894 26.2256 41.2802 24.1107C41.3174 24.0338 41.3771 23.9699 41.4514 23.9276C41.5256 23.8853 41.611 23.8665 41.6962 23.8737C42.2856 23.8873 42.8768 23.8783 43.4653 23.8792C43.5389 23.8792 43.6124 23.8855 43.7205 23.8901C43.6999 23.9522 43.675 24.0129 43.646 24.0717C41.0604 28.4046 38.4976 32.752 35.8748 37.0586C34.8086 38.8105 33.2275 39.9984 31.2912 40.6913C30.3888 41.0016 29.4391 41.1516 28.485 41.1345C26.4506 41.1302 24.4163 41.1302 22.382 41.1345C22.0687 41.1345 22.0678 41.1345 22.0678 40.8184C22.0714 37.6041 22.0747 34.3904 22.0778 31.1773C22.0778 30.9775 22.1241 30.8948 22.3439 30.9048C22.857 30.9202 23.3719 30.9202 23.8878 30.9048C24.1121 30.8975 24.1675 30.9765 24.1666 31.1891C24.1611 33.7229 24.1611 36.2561 24.1666 38.7887L24.1575 39.1038Z" fill="#212121"/>
<path d="M21.485 26.5945C23.8463 26.5945 26.2076 26.6009 28.5643 26.5945C30.6422 26.5864 32.3069 27.4119 33.5138 29.0929C35.7307 32.1807 34.3984 36.5745 30.8547 37.9495C30.1716 38.2198 29.4433 38.3576 28.7087 38.3554C27.5668 38.3494 26.4249 38.3494 25.283 38.3554C25.0687 38.3554 24.997 38.3 24.9979 38.0766C25.0051 35.7934 25.0024 33.5094 25.0033 31.2253C25.0033 30.9175 25.0033 30.9175 25.3167 30.9175C25.8089 30.9175 26.3002 30.9284 26.7915 30.9129C27.0177 30.9056 27.0894 30.9665 27.0885 31.2017C27.0776 32.8128 27.0885 34.4239 27.0776 36.0341C27.0776 36.2593 27.1312 36.3393 27.3673 36.3293C27.9413 36.3047 28.5189 36.3365 29.0928 36.2938C30.7711 36.1703 32.2587 34.75 32.4867 33.0789C32.7682 31.0101 31.5277 29.1974 29.4952 28.7251C29.2219 28.6635 28.9425 28.6331 28.6624 28.6343C24.4424 28.6282 20.2224 28.6249 16.0024 28.6243C15.7636 28.6243 15.7082 28.7033 15.7136 28.924C15.7263 29.4992 15.7263 30.0744 15.7136 30.6495C15.7082 30.8566 15.769 30.922 15.9788 30.922C17.6426 30.9147 19.3063 30.922 20.9738 30.9138C21.1899 30.9138 21.2626 30.9674 21.2562 31.1863C21.2426 31.693 21.2453 32.1998 21.2616 32.7066C21.268 32.9254 21.1999 32.9881 20.9819 32.9872C18.766 32.9799 16.55 32.9872 14.3341 32.9872C14.2124 32.9872 14.0907 32.9799 13.9708 32.9872C13.7765 33.0035 13.712 32.9327 13.7129 32.7302C13.7229 31.1118 13.7202 29.4934 13.722 27.8751C13.722 27.5418 13.7329 27.2085 13.7165 26.8761C13.7065 26.6545 13.7892 26.5945 14.0035 26.5955C15.7881 26.6018 17.5726 26.5955 19.3617 26.5955H21.4941L21.485 26.5945Z" fill="#212121"/>
<path d="M47.6838 36.3738L43.7423 29.8032C43.607 30.0329 43.4944 30.2164 43.3882 30.4035C41.3805 33.9284 39.3713 37.4521 37.3606 40.9746C37.3315 41.0223 37.2926 41.0632 37.2463 41.0945C37.2001 41.1258 37.1477 41.1469 37.0927 41.1562C36.2753 41.1717 35.458 41.1662 34.6406 41.1653C34.5796 41.1594 34.5189 41.15 34.459 41.1372L43.7387 25.6782L51.3892 38.3327C51.282 38.3436 51.213 38.3563 51.1449 38.3563C47.7937 38.3563 44.4429 38.3563 41.0923 38.3563C40.9107 38.3563 40.8353 38.3137 40.8407 38.1166C40.8528 37.6177 40.8528 37.1188 40.8407 36.6199C40.8362 36.421 40.8998 36.362 41.0996 36.3629C43.1884 36.3693 45.2772 36.3629 47.366 36.3629L47.6838 36.3738Z" fill="#212121"/>
<path d="M43.7327 23.8872H44.2595C44.788 23.8872 45.3175 23.8918 45.847 23.8872C45.9139 23.8804 45.9813 23.8941 46.0402 23.9265C46.0991 23.959 46.1467 24.0086 46.1766 24.0689C48.7704 28.3161 51.3681 32.5618 53.9697 36.806C54.0185 36.8716 54.0448 36.9513 54.0448 37.0331C54.0448 37.1148 54.0185 37.1945 53.9697 37.2601C53.2214 38.4916 52.4791 39.7273 51.7428 40.9673C51.7074 41.0364 51.652 41.0932 51.5838 41.1303C51.5156 41.1674 51.4378 41.1831 51.3605 41.1752C47.9349 41.1752 44.5095 41.1752 41.0845 41.1752C40.8929 41.1752 40.8366 41.1126 40.8402 40.9273C40.8502 40.4287 40.8538 39.9283 40.8402 39.4306C40.8338 39.2081 40.9128 39.1518 41.1263 39.1518C44.8843 39.1597 48.6423 39.163 52.4004 39.1618C52.5102 39.1618 52.6192 39.15 52.7854 39.14L43.7327 23.8872Z" fill="#212121"/>
<path d="M15.8047 22.0554C16.9627 20.2492 18.4185 18.6524 20.1103 17.3329C23.4188 14.7519 27.1778 13.3642 31.3717 13.2298C35.631 13.0927 39.5244 14.2615 43.0254 16.6945C45.0796 18.1259 46.8331 19.9463 48.1866 22.0527C47.7325 22.0527 47.3374 22.0582 46.9424 22.0455C46.8897 22.0455 46.8325 21.9546 46.7898 21.8929C45.5 20.0953 43.8939 18.5474 42.05 17.3248C38.3871 14.8931 33.9656 13.8748 29.608 14.4595C24.7157 15.1397 20.7488 17.4492 17.6619 21.2917C17.4966 21.4978 17.3504 21.7194 17.186 21.9274C17.1405 21.9927 17.0721 22.0384 16.9944 22.0554C16.6211 22.0618 16.2515 22.0554 15.8047 22.0554Z" fill="#212121"/>
<path d="M48.1933 42.9226C46.6948 45.2112 44.8684 47.0721 42.6479 48.5424C39.2223 50.8129 35.4461 51.889 31.3448 51.7501C27.1518 51.6084 23.3956 50.2144 20.088 47.6333C18.5014 46.3964 16.0693 43.6746 15.8613 42.9272C16.2573 42.9272 16.6469 42.9208 17.0365 42.9335C17.091 42.9335 17.1546 43.018 17.1954 43.0752C18.5767 45.0042 20.3212 46.6451 22.3312 47.9058C24.1307 49.0398 26.117 49.8458 28.198 50.2861C30.3167 50.7477 32.502 50.8179 34.646 50.4932C39.1415 49.8048 42.8768 47.7196 45.8502 44.2785C46.1807 43.8962 46.4804 43.4875 46.7847 43.0825C46.818 43.0289 46.8652 42.9853 46.9214 42.9565C46.9776 42.9277 47.0405 42.9148 47.1035 42.919C47.4467 42.9299 47.781 42.9226 48.1933 42.9226Z" fill="#212121"/>
<path d="M52.7793 13.5813C52.9609 13.8256 53.1244 14.049 53.2906 14.2724C53.7401 14.8782 54.1987 15.4794 54.6392 16.0888C55.541 17.3393 55.3894 18.6862 54.2369 19.7415C53.7002 20.2337 53.1044 20.6287 52.3824 20.7804C51.4806 20.9693 50.6968 20.6896 50.0638 20.0539C49.6679 19.6534 49.3373 19.1884 48.9904 18.7415C48.6434 18.2947 48.3156 17.8334 47.9759 17.3793C47.9033 17.2821 47.8679 17.214 47.9932 17.1214C49.5789 15.9535 51.1618 14.7792 52.7793 13.5813ZM50.2409 17.8152C50.487 18.1176 50.6886 18.4128 50.9384 18.6598C51.0713 18.7963 51.2395 18.8931 51.4243 18.9394C51.609 18.9858 51.803 18.9798 51.9846 18.9223C52.4036 18.8113 52.7766 18.5703 53.0499 18.2339C53.3868 17.8207 53.4522 17.3584 53.2079 16.8825C53.0817 16.6364 52.9 16.4184 52.7538 16.1832C52.6694 16.0488 52.594 16.0661 52.4814 16.1523C52.1345 16.4175 51.7794 16.6736 51.4279 16.9343L50.2409 17.8152Z" fill="#212121"/>
<path d="M52.1221 52.4285C51.777 52.156 51.4601 51.8972 51.144 51.6411C49.941 50.6657 48.7371 49.691 47.5322 48.7168C47.3924 48.6042 47.3851 48.5352 47.4995 48.3917C48.1089 47.6515 48.7029 46.8968 49.3159 46.1575C50.1087 45.1994 51.1177 44.8707 52.1575 45.2385C53.0078 45.5333 53.7403 46.0945 54.2463 46.8387C54.5995 47.3298 54.7519 47.9373 54.6723 48.537C54.6118 49.0357 54.4196 49.5093 54.1156 49.9092C53.4717 50.7493 52.8042 51.5694 52.1221 52.4285ZM49.7609 48.0783C49.8962 48.1928 49.9916 48.2763 50.0906 48.3562C50.7002 48.8503 51.3102 49.3437 51.9205 49.8366C51.9959 49.8983 52.0704 49.9864 52.1639 49.862C52.3573 49.6023 52.568 49.3534 52.7361 49.0782C52.8263 48.9324 52.8769 48.7655 52.8827 48.5941C52.8886 48.4227 52.8497 48.2527 52.7697 48.101C52.559 47.651 52.1839 47.2988 51.7216 47.1166C51.5097 47.02 51.2736 46.9896 51.0441 47.0294C50.8146 47.0693 50.6025 47.1776 50.4356 47.34C50.1986 47.5561 50.0006 47.815 49.7627 48.0783H49.7609Z" fill="#212121"/>
<path d="M30.0251 57.8611C30.6435 58.3661 30.6154 59.0636 30.57 59.7683C30.5482 60.0898 30.5346 60.4131 30.5155 60.7746C30.3112 60.7464 30.0768 60.7164 29.8434 60.6837C29.5446 60.6383 29.2477 60.5802 28.948 60.5448C28.7664 60.5239 28.6919 60.434 28.6955 60.2642C28.7001 60.0226 28.7082 59.781 28.7182 59.5376C28.7228 59.425 28.7409 59.3124 28.7436 59.1989C28.7591 58.6231 28.562 58.2753 27.9599 58.218C27.7424 58.1941 27.5265 58.1574 27.3133 58.1082C27.1371 58.07 27.0681 58.1363 27.0408 58.3061C26.9609 58.851 26.8592 59.3959 26.7902 59.9408C26.7647 60.1307 26.6993 60.1842 26.5132 60.1515C26.0218 60.0653 25.5296 59.9881 25.0365 59.9154C24.8975 59.8954 24.8848 59.8246 24.903 59.7111C25.0204 59.0033 25.1358 58.2952 25.249 57.5869C25.3952 56.6696 25.5369 55.7514 25.6822 54.8342C25.7267 54.5617 25.7794 54.2838 25.8211 54.0077C25.8384 53.8924 25.8884 53.8543 26.0028 53.8733C26.9945 54.0332 27.988 54.1803 28.9779 54.351C29.3548 54.4155 29.7481 54.4773 30.0914 54.6344C31.4037 55.2329 31.3201 56.6714 30.6163 57.437C30.4646 57.6032 30.2439 57.7076 30.0251 57.8611ZM28.6301 56.9838C28.74 56.9184 28.9534 56.8567 29.0642 56.7114C29.3258 56.3735 29.165 55.9385 28.7373 55.8214C28.3636 55.7305 27.9852 55.6602 27.6039 55.6107C27.5747 55.6148 27.547 55.6263 27.5235 55.6441C27.5 55.6619 27.4814 55.6854 27.4695 55.7124C27.4104 56.0239 27.3605 56.3372 27.3242 56.6514C27.329 56.6844 27.3424 56.7156 27.3629 56.7418C27.3835 56.7681 27.4105 56.7886 27.4413 56.8013C27.8055 56.8685 28.1724 56.9166 28.6301 56.9838Z" fill="#212121"/>
<path d="M26.6234 11.1556C26.5743 10.7923 26.5262 10.4554 26.4853 10.1194C26.2883 8.51552 26.0957 6.91077 25.8941 5.30603C25.8723 5.13075 25.9114 5.07172 26.0948 5.05083C27.25 4.91915 28.4034 4.76566 29.5586 4.63398C29.8215 4.59674 30.0892 4.61302 30.3456 4.68184C30.602 4.75067 30.8419 4.87062 31.0507 5.03448C31.8527 5.66385 31.8136 7.14508 31.0807 7.66002C31.045 7.69334 31.013 7.7305 30.9854 7.77082C31.7119 8.10321 31.909 8.75074 32.0407 9.44367C32.1024 9.76698 32.195 10.0848 32.2822 10.4427C31.9762 10.4863 31.6529 10.5335 31.3286 10.5789C31.1116 10.608 30.8936 10.6298 30.6766 10.6615C30.5358 10.6833 30.4441 10.6479 30.4041 10.4981C30.3324 10.2129 30.2534 9.92955 30.1789 9.64529C30.1426 9.50634 30.1171 9.36375 30.0708 9.22934C29.9273 8.81703 29.6767 8.65265 29.2417 8.6908C28.9783 8.7135 28.7176 8.76073 28.4543 8.78161C28.2862 8.79251 28.2327 8.847 28.2563 9.01956C28.3326 9.59625 28.3943 10.1748 28.4624 10.7524C28.467 10.7959 28.4706 10.8432 28.4797 10.9258L26.6234 11.1556ZM28.9501 6.17788C28.7149 6.20603 28.3998 6.23509 28.0874 6.28686C28.0521 6.30256 28.0213 6.32695 27.9979 6.35776C27.9746 6.38857 27.9594 6.42479 27.9539 6.46304C27.9729 6.76365 28.012 7.06335 28.0556 7.36123C28.0628 7.41027 28.1373 7.49291 28.1709 7.48837C28.6023 7.42662 29.0373 7.37394 29.4596 7.27132C29.6876 7.21592 29.7966 7.00976 29.7929 6.76183C29.7866 6.3468 29.545 6.15971 28.9501 6.17788Z" fill="#212121"/>
<path d="M17.4987 33.8183C18.6629 33.8183 19.8272 33.8237 20.9924 33.8137C21.204 33.8137 21.2649 33.8773 21.2594 34.0862C21.2476 34.5929 21.2458 35.0997 21.2594 35.6065C21.2658 35.8226 21.2022 35.8898 20.9806 35.8889C19.3323 35.8807 17.6839 35.8844 16.0356 35.8844C15.715 35.8844 15.7141 35.8844 15.7141 36.2113C15.7141 37.7697 15.7141 39.3273 15.7195 40.8848C15.7195 41.1154 15.6569 41.1863 15.4262 41.1781C14.9276 41.1618 14.4272 41.1663 13.9295 41.1781C13.7561 41.1781 13.707 41.1164 13.707 40.9547C13.707 38.6479 13.707 36.3415 13.707 34.0353C13.707 33.8346 13.806 33.821 13.9604 33.821C15.1383 33.8201 16.318 33.8183 17.4987 33.8183Z" fill="#212121"/>
<path d="M48.0076 51.0416L48.8504 52.2132C48.5516 52.4311 48.2682 52.64 47.9822 52.8489C47.5526 53.1568 47.1248 53.4683 46.688 53.7652C46.5363 53.8688 46.5336 53.9469 46.6372 54.0895C46.9405 54.5072 46.9378 54.5154 47.3528 54.2212C48.0367 53.7362 48.7205 53.2503 49.3971 52.7554C49.5533 52.64 49.6423 52.6382 49.754 52.8098C49.952 53.1132 50.1654 53.4074 50.3897 53.6944C50.506 53.8461 50.4806 53.9324 50.3307 54.0386C49.0496 54.9468 47.7712 55.8598 46.4955 56.7777C46.3429 56.8876 46.2812 56.8294 46.1931 56.7059C45.3382 55.5065 44.4814 54.308 43.6229 53.1105C43.385 52.779 43.1589 52.4384 42.9073 52.1178C42.7747 51.9498 42.8165 51.8744 42.9745 51.7654C44.1551 50.9281 45.3357 50.0817 46.5164 49.2398C46.8915 48.9674 46.8933 48.9737 47.1657 49.3515C47.3374 49.5913 47.4999 49.8374 47.6798 50.0699C47.7824 50.2034 47.7706 50.2788 47.6307 50.3759C46.896 50.8936 46.1713 51.4258 45.4338 51.9398C45.2595 52.0615 45.2476 52.1505 45.3712 52.3158C45.6636 52.7045 45.6581 52.7109 46.055 52.4284C46.6605 51.9998 47.2629 51.5696 47.8623 51.1379C47.895 51.107 47.934 51.0852 48.0076 51.0416Z" fill="#212121"/>
<path d="M47.4758 16.8681L44.2409 14.3515C44.0147 14.1699 43.7868 13.9955 43.5607 13.8229C43.4517 13.7412 43.419 13.6767 43.5189 13.5505C44.6928 12.052 45.8629 10.5502 47.029 9.04504C47.1316 8.91335 47.2033 8.90245 47.3378 9.00871C48.5487 9.96048 49.7644 10.9074 50.985 11.8495C51.1294 11.9612 51.1339 12.0366 51.0204 12.1728C50.7797 12.4634 50.5481 12.7631 50.3256 13.0683C50.223 13.209 50.144 13.1999 50.0187 13.0982C49.3385 12.5588 48.651 12.0275 47.9653 11.4935C47.8827 11.429 47.7982 11.3672 47.6883 11.2837C47.5494 11.4653 47.4104 11.6179 47.2996 11.7932C47.2769 11.8286 47.3368 11.9539 47.3904 11.9975C47.9944 12.4761 48.6037 12.9475 49.2068 13.4206C49.2976 13.4896 49.3811 13.5623 49.4874 13.6495C49.2068 14.0128 48.9425 14.366 48.6555 14.7075C48.6319 14.7366 48.4902 14.7075 48.4339 14.6648C47.8155 14.1926 47.2061 13.7094 46.5885 13.2344C46.3161 13.0228 46.3642 12.9693 46.1117 13.2971C45.8256 13.6676 45.8029 13.5768 46.1771 13.8684C46.8498 14.3933 47.5236 14.9173 48.1987 15.4404C48.2686 15.4958 48.3358 15.5557 48.4303 15.6338L47.4758 16.8681Z" fill="#212121"/>
<path d="M38.9743 7.80624C38.9279 8.96507 38.5574 9.96769 37.5521 10.6434C36.1426 11.5915 33.547 11.1174 32.904 9.04408C32.4636 7.62188 32.9721 5.6693 34.5306 4.95729C36.0327 4.27162 37.9471 4.91097 38.6628 6.35497C38.8837 6.80597 38.9907 7.30429 38.9743 7.80624ZM34.615 8.20947C34.6323 8.32571 34.6459 8.47647 34.6786 8.62269C34.783 9.09857 35.0573 9.43005 35.5423 9.53813C35.7531 9.59374 35.9762 9.58116 36.1795 9.5022C36.3828 9.42324 36.5558 9.28194 36.6739 9.09857C37.0762 8.53369 37.1606 7.89161 37.0616 7.21956C37.0315 6.98865 36.9314 6.77252 36.7747 6.60025C36.618 6.42798 36.4123 6.30783 36.1853 6.25598C35.7057 6.15881 35.2616 6.35497 34.9819 6.78999C34.7022 7.225 34.6577 7.6909 34.6123 8.20947H34.615Z" fill="#212121"/>
<path d="M34.9055 60.6347C33.3552 60.6565 32.1582 59.5695 31.9085 57.9738C31.8022 57.2909 31.8467 56.6297 32.1237 55.9976C32.5097 55.114 33.2017 54.589 34.1217 54.3366C35.3387 54.0014 36.6147 54.3738 37.363 55.3483C37.9824 56.1547 38.1749 57.0901 38.0187 58.09C37.8425 59.2225 37.2204 60.019 36.1424 60.415C35.7519 60.5585 35.3251 60.5966 34.9136 60.6874L34.9055 60.6347ZM36.2414 57.6087C36.1506 57.2545 36.087 56.8486 35.9372 56.4771C35.8613 56.2601 35.7168 56.0738 35.5256 55.9463C35.3344 55.8188 35.1068 55.7571 34.8773 55.7706C34.3815 55.7833 34.0182 56.0367 33.862 56.4971C33.736 56.8508 33.6955 57.2294 33.744 57.6018C33.7925 57.9742 33.9284 58.3298 34.1408 58.6395C34.2448 58.8044 34.3948 58.9353 34.5724 59.016C34.7499 59.0967 34.9471 59.1236 35.1398 59.0936C35.5784 59.0427 35.9045 58.8102 36.0534 58.3861C36.1296 58.1304 36.1923 57.8709 36.2414 57.6087Z" fill="#212121"/>
<path d="M15.1149 52.7101C14.7698 53.1414 14.4393 53.5438 14.1232 53.9561C14.0079 54.1068 13.9279 54.1432 13.7672 54.0051C13.4239 53.71 13.0688 53.4266 12.7037 53.1596C12.5221 53.0243 12.5085 52.9289 12.652 52.75C13.6836 51.4677 14.7063 50.1772 15.7325 48.8894C15.9141 48.6605 16.0958 48.4353 16.2956 48.1919C16.6189 48.448 16.9204 48.685 17.2201 48.9239C17.775 49.3671 18.339 49.7994 18.8811 50.2571C20.3569 51.5049 19.6022 53.4284 18.1964 53.9515C17.5725 54.1831 16.9831 54.0296 16.4418 53.7018C16.0958 53.492 15.7852 53.2223 15.4591 52.9753C15.3547 52.8971 15.2493 52.8118 15.1149 52.7101ZM17.9212 51.6811C17.8669 51.5632 17.7956 51.454 17.7096 51.3569C17.4571 51.1198 17.1838 50.9028 16.9095 50.6921C16.8766 50.6783 16.8406 50.6733 16.8051 50.6774C16.7697 50.6815 16.7359 50.6947 16.707 50.7157C16.4999 50.9546 16.3037 51.2043 16.1139 51.4586C16.0997 51.4845 16.0922 51.5135 16.0922 51.5431C16.0922 51.5726 16.0997 51.6016 16.1139 51.6275C16.4391 51.87 16.7497 52.1388 17.1129 52.325C17.4762 52.5112 17.9239 52.1624 17.9248 51.6775L17.9212 51.6811Z" fill="#212121"/>
<path d="M17.2275 9.18945C18.1456 9.25757 18.7714 9.74798 19.1492 10.5799C19.4961 11.3555 19.3435 12.0756 18.7859 12.6778C18.4353 13.0565 18.0012 13.3571 17.5953 13.6831C17.3346 13.8929 17.3228 13.8856 17.5199 14.1463C17.7805 14.4977 18.0385 14.8528 18.3091 15.197C18.4163 15.3323 18.3999 15.4041 18.261 15.5013C17.8686 15.7828 17.4827 16.0734 17.0994 16.3677C16.9723 16.4658 16.8923 16.4694 16.7879 16.3286C15.6533 14.8011 14.5145 13.2765 13.3714 11.755C13.2805 11.6361 13.2951 11.5734 13.4131 11.4826C14.2387 10.8723 15.0578 10.2529 15.8861 9.64536C16.274 9.35589 16.7435 9.19634 17.2275 9.18945ZM17.5989 11.627C17.5862 11.0903 17.1094 10.7924 16.7144 11.0212C16.4081 11.2142 16.1144 11.4265 15.8352 11.657C15.815 11.6821 15.8014 11.7119 15.7957 11.7436C15.79 11.7753 15.7924 11.808 15.8026 11.8386C15.9842 12.0992 16.1658 12.3544 16.3683 12.5996C16.3972 12.621 16.431 12.6347 16.4665 12.6395C16.5021 12.6442 16.5383 12.6399 16.5718 12.6269C16.8582 12.4203 17.1334 12.1987 17.3964 11.963C17.5054 11.8568 17.5562 11.6951 17.5989 11.627Z" fill="#212121"/>
<path d="M18.2344 57.1946C18.5922 56.3864 18.9373 55.6081 19.2833 54.8334C19.7283 53.8344 20.1745 52.8354 20.6219 51.8364C20.6701 51.7283 20.6946 51.6039 20.8762 51.6866C21.8307 52.1216 22.7979 52.5293 23.7443 52.9807C24.6588 53.4166 25.0875 54.1613 24.954 55.1485C24.8041 56.2574 23.8987 57.3427 22.3684 56.9522C21.8843 56.8286 21.423 56.6016 20.9625 56.3973C20.7609 56.3064 20.6755 56.3391 20.5938 56.5417C20.424 56.9612 20.226 57.369 20.0489 57.784C19.9862 57.9303 19.919 57.972 19.7574 57.8948C19.3296 57.6887 18.891 57.5043 18.4569 57.3109C18.3851 57.2782 18.3225 57.24 18.2344 57.1946ZM21.8108 53.8208C21.6473 54.184 21.4938 54.5146 21.3503 54.8525C21.3472 54.8793 21.351 54.9064 21.3614 54.9314C21.3717 54.9563 21.3882 54.9782 21.4094 54.995C21.7336 55.1518 22.0672 55.2883 22.4083 55.4037C22.7716 55.5145 23.0114 55.3719 23.1467 55.0323C23.2747 54.7099 23.2039 54.5037 22.8497 54.3057C22.5282 54.135 22.1867 53.996 21.8108 53.8208Z" fill="#212121"/>
<path d="M19.1289 7.54834C19.6656 7.32947 20.1651 7.12059 20.6728 6.92079C21.2622 6.68739 21.8407 6.41493 22.4474 6.24238C23.6471 5.9 24.7632 6.60565 25.043 7.82533C25.2782 8.85338 24.8731 9.6998 23.8814 10.1948C23.4909 10.39 23.0804 10.5471 22.6753 10.7106C22.5291 10.7696 22.501 10.8314 22.5654 10.9831C22.7516 11.4126 22.9151 11.8522 23.0994 12.2827C23.1666 12.4416 23.1539 12.5233 22.9778 12.5905C22.4719 12.7849 21.9724 12.9956 21.4339 13.2144C20.6655 11.3263 19.9045 9.4555 19.1289 7.54834ZM23.3419 8.58366C23.3519 7.99516 22.9977 7.71998 22.5464 7.87074C22.2322 7.97518 21.9252 8.10323 21.6228 8.23401C21.5931 8.25793 21.57 8.28896 21.5555 8.32421C21.5411 8.35945 21.5358 8.39778 21.5401 8.43562C21.6418 8.72715 21.7599 9.01413 21.8861 9.29567C21.9061 9.34198 22.0124 9.39738 22.0505 9.38103C22.3951 9.24989 22.7309 9.0967 23.0559 8.92241C23.1993 8.84249 23.2847 8.6554 23.3419 8.58366Z" fill="#212121"/>
<path d="M16.8036 16.4892C16.5421 16.8225 16.2987 17.1377 16.0508 17.4483C15.9055 17.6299 15.7783 17.9069 15.5967 17.9568C15.415 18.0068 15.1644 17.8342 14.95 17.7452C14.9246 17.7298 14.8964 17.7195 14.867 17.715C14.8375 17.7105 14.8075 17.7119 14.7787 17.7191C14.7498 17.7262 14.7226 17.7391 14.6987 17.7568C14.6748 17.7746 14.6547 17.7969 14.6395 17.8224C14.318 18.242 13.981 18.6498 13.6623 19.0721C13.642 19.1104 13.6309 19.1528 13.6296 19.1961C13.6284 19.2394 13.637 19.2824 13.655 19.3218C13.7513 19.5035 13.883 19.6597 13.9865 19.8349C14.0037 19.864 14.0141 19.8966 14.017 19.9302C14.0198 19.9639 14.015 19.9978 14.0028 20.0293C13.6505 20.4906 13.2881 20.9447 12.9057 21.4315C12.8095 21.2853 12.7241 21.1654 12.6497 21.0401C11.6507 19.4181 10.6671 17.7925 9.66447 16.1759C9.52461 15.9507 9.52642 15.8026 9.7017 15.6037C9.98596 15.2813 10.2466 14.9353 10.5036 14.592C10.5366 14.5375 10.5887 14.4971 10.6498 14.4788C10.7109 14.4605 10.7766 14.4656 10.8342 14.4931C12.739 15.1239 14.644 15.7539 16.5493 16.383C16.6247 16.4084 16.6974 16.4447 16.8036 16.4892ZM12.7804 18.0531L13.4861 17.1558L11.7714 16.4602L11.7333 16.5128L12.7804 18.0531Z" fill="#212121"/>
<path d="M14.8435 46.41C14.809 46.4699 14.7817 46.5235 14.7527 46.5734C13.6374 48.2717 12.5228 49.97 11.4088 51.6683C11.3116 51.8173 11.2498 51.8136 11.1481 51.6729C10.8521 51.2633 10.5515 50.8555 10.24 50.4568C10.1373 50.3233 10.1337 50.2261 10.2463 50.1026C10.3417 49.9973 10.4061 49.862 10.506 49.7602C10.655 49.6077 10.625 49.4878 10.506 49.3325C10.2027 48.9465 9.9112 48.5515 9.62421 48.1519C9.6104 48.1256 9.59148 48.1024 9.56856 48.0835C9.54564 48.0647 9.51919 48.0506 9.49076 48.0422C9.46233 48.0337 9.43249 48.031 9.403 48.0343C9.37351 48.0375 9.34497 48.0466 9.31906 48.061C9.14589 48.1358 8.96702 48.1965 8.78415 48.2427C8.74151 48.2493 8.6979 48.2462 8.65666 48.2334C8.61542 48.2207 8.57764 48.1987 8.5462 48.1691C8.23015 47.7641 7.93137 47.3463 7.62168 46.9367C7.52542 46.8096 7.56355 46.7596 7.70341 46.7188C8.60159 46.4572 9.49888 46.1902 10.3962 45.925C11.4224 45.6208 12.4504 45.3202 13.4749 45.0078C13.6756 44.9469 13.8 44.9578 13.929 45.1494C14.186 45.5318 14.4739 45.8905 14.7509 46.2601C14.7799 46.3046 14.809 46.3564 14.8435 46.41ZM10.803 47.5407L11.4887 48.4543L12.5994 46.9858L12.5676 46.9285L10.803 47.5407Z" fill="#212121"/>
<path d="M41.7805 10.1738C42.076 9.80326 42.3714 9.43273 42.6669 9.06219C43.1046 8.51275 43.5433 7.96421 43.9774 7.41113C43.9904 7.38688 44.0084 7.36566 44.0302 7.34885C44.0519 7.33204 44.077 7.32003 44.1038 7.3136C44.1305 7.30717 44.1584 7.30646 44.1854 7.31153C44.2124 7.3166 44.2381 7.32733 44.2607 7.34302C44.7793 7.58096 45.306 7.7971 45.8646 8.04231C45.7483 8.18308 45.6575 8.29842 45.5612 8.40558C44.3128 9.84231 43.0644 11.2793 41.8159 12.7167C41.7079 12.8429 41.6152 12.8656 41.469 12.7993C40.9541 12.5659 40.4364 12.3353 39.9151 12.1173C39.8577 12.1023 39.8084 12.0653 39.778 12.0144C39.7476 11.9634 39.7385 11.9025 39.7526 11.8448C39.8434 11.1474 39.926 10.4499 40.0114 9.75604C40.1361 8.7516 40.2599 7.74685 40.3828 6.7418C40.4237 6.41486 40.4682 6.08792 40.5163 5.72192C40.6525 5.77641 40.7552 5.81274 40.8542 5.85724C41.2628 6.03343 41.6715 6.22051 42.0802 6.38762C42.2146 6.44392 42.2618 6.51113 42.2373 6.66007C42.0648 7.76441 41.9004 8.87057 41.7351 9.97582C41.731 10.0339 41.731 10.0921 41.7351 10.1502L41.7805 10.1738Z" fill="#212121"/>
<path d="M37.3262 54.0967C37.8974 53.8715 38.435 53.6535 38.979 53.4556C39.0317 53.4365 39.1507 53.5228 39.2006 53.5881C39.8618 54.4709 40.5196 55.3561 41.1741 56.2437C41.2122 56.3031 41.2668 56.3501 41.3312 56.379C41.3348 56.3127 41.3348 56.2463 41.3312 56.1801C41.2113 55.0984 41.0942 54.0168 40.9625 52.937C40.9407 52.7553 40.968 52.6645 41.1441 52.5946C41.6191 52.4211 42.0868 52.2313 42.5582 52.0452C42.6163 52.0284 42.6755 52.0154 42.7353 52.0061C42.7652 52.3694 42.797 52.7099 42.8206 53.0541C42.9378 54.7352 43.0477 56.4144 43.1739 58.0972C43.1902 58.3134 43.1267 58.4078 42.9332 58.4778C42.4156 58.6667 41.901 58.8659 41.3893 59.0753C41.2531 59.1307 41.1886 59.099 41.1078 58.9945C39.8781 57.4143 38.647 55.8359 37.4143 54.2593C37.3814 54.207 37.352 54.1527 37.3262 54.0967Z" fill="#212121"/>
<path d="M54.1934 32.5077C54.1902 32.0406 54.3255 31.5831 54.5823 31.193C54.8391 30.8029 55.2059 30.4977 55.6361 30.3161C56.0664 30.1344 56.5409 30.0844 56.9996 30.1724C57.4583 30.2604 57.8805 30.4825 58.213 30.8105C58.5455 31.1385 58.7732 31.5578 58.8674 32.0152C58.9615 32.4727 58.918 32.9478 58.7421 33.3805C58.5662 33.8131 58.266 34.184 57.8794 34.446C57.4928 34.708 57.0371 34.8495 56.5701 34.8526C56.2596 34.8566 55.9513 34.7988 55.6633 34.6828C55.3752 34.5668 55.113 34.3947 54.892 34.1766C54.6709 33.9585 54.4953 33.6986 54.3754 33.4122C54.2555 33.1257 54.1936 32.8182 54.1934 32.5077Z" fill="#212121"/>
<path d="M4.55079 32.4896C4.55081 32.0234 4.68883 31.5676 4.94745 31.1798C5.20608 30.7919 5.57374 30.4892 6.00409 30.31C6.43444 30.1307 6.90822 30.0828 7.36573 30.1724C7.82324 30.262 8.24401 30.485 8.57499 30.8133C8.90596 31.1416 9.13233 31.5606 9.22559 32.0174C9.31884 32.4741 9.2748 32.9483 9.099 33.3801C8.92321 33.8119 8.62351 34.1819 8.23772 34.4437C7.85193 34.7054 7.39729 34.8471 6.93111 34.8509C6.61919 34.8542 6.30972 34.7956 6.02065 34.6784C5.73159 34.5611 5.4687 34.3876 5.24724 34.1679C5.02578 33.9483 4.85016 33.6868 4.73061 33.3986C4.61105 33.1105 4.54993 32.8015 4.55079 32.4896Z" fill="#212121"/>
</svg>
