<svg width="33" height="32" viewBox="0 0 33 32" fill="none" xmlns="http://www.w3.org/2000/svg">
<path d="M26.4443 6.7109C21.2779 6.7109 16.8498 3.23721 16.8034 3.20006C16.6394 3.07049 16.4365 3 16.2275 3C16.0186 3 15.8157 3.07049 15.6517 3.20006C15.6053 3.23721 11.1935 6.7109 6.01082 6.7109C5.76449 6.7109 5.52825 6.80875 5.35407 6.98294C5.17989 7.15712 5.08203 7.39336 5.08203 7.63969V15.9988C5.08203 22.231 7.59906 25.2868 15.8467 28.9183C15.9665 28.9722 16.0963 29 16.2275 29C16.3588 29 16.4886 28.9722 16.6084 28.9183C24.856 25.2868 27.3731 22.231 27.3731 15.9988V7.63969C27.3731 7.39336 27.2752 7.15712 27.101 6.98294C26.9268 6.80875 26.6906 6.7109 26.4443 6.7109ZM16.2275 23.4292C14.758 23.4292 13.3214 22.9934 12.0995 22.1769C10.8776 21.3605 9.92519 20.2 9.36281 18.8423C8.80042 17.4846 8.65327 15.9906 8.93998 14.5492C9.22668 13.1079 9.93435 11.7839 10.9735 10.7448C12.0127 9.70563 13.3366 8.99796 14.778 8.71126C16.2193 8.42456 17.7133 8.5717 19.071 9.13409C20.4287 9.69647 21.5892 10.6488 22.4057 11.8708C23.2221 13.0927 23.6579 14.5292 23.6579 15.9988C23.6579 17.9695 22.8751 19.8594 21.4816 21.2529C20.0881 22.6463 18.1982 23.4292 16.2275 23.4292Z" fill="#773BD9"/>
<path d="M18.3539 13.4817L15.2982 16.5468L14.1001 15.3393C13.9238 15.1712 13.6888 15.0788 13.4452 15.0817C13.2017 15.0845 12.9689 15.1826 12.7967 15.3548C12.6244 15.527 12.5264 15.7598 12.5235 16.0034C12.5206 16.2469 12.6131 16.4819 12.7812 16.6582L14.6388 18.5158C14.7247 18.6024 14.8268 18.6713 14.9393 18.7184C15.0518 18.7655 15.1725 18.79 15.2945 18.7905C15.4165 18.791 15.5374 18.7675 15.6503 18.7212C15.7632 18.675 15.8658 18.607 15.9524 18.521L15.9577 18.5158L19.6728 14.8006C19.8409 14.6244 19.9334 14.3893 19.9305 14.1458C19.9276 13.9022 19.8296 13.6695 19.6573 13.4972C19.4851 13.325 19.2524 13.227 19.0088 13.2241C18.7652 13.2212 18.5302 13.3137 18.3539 13.4817Z" fill="#773BD9"/>
</svg>
