<svg width="31" height="36" viewBox="0 0 31 36" fill="none" xmlns="http://www.w3.org/2000/svg">
<path d="M29.7083 5.13817C22.5267 5.13817 16.3654 0.328448 16.3008 0.277007C16.0728 0.0975952 15.7906 0 15.5 0C15.2094 0 14.9272 0.0975952 14.6992 0.277007C14.6346 0.328448 8.49917 5.13817 1.29167 5.13817C0.949095 5.13817 0.620555 5.27366 0.378321 5.51484C0.136086 5.75601 0 6.08312 0 6.42419V17.9984C0 26.6276 3.50042 30.8586 14.9704 35.8869C15.1369 35.9615 15.3174 36 15.5 36C15.6826 36 15.8631 35.9615 16.0296 35.8869C27.4996 30.8586 31 26.6276 31 17.9984V6.42419C31 6.08312 30.8639 5.75601 30.6217 5.51484C30.3794 5.27366 30.0509 5.13817 29.7083 5.13817ZM15.5 28.2866C13.4563 28.2866 11.4584 27.6832 9.75911 26.5527C8.0598 25.4222 6.73535 23.8154 5.95325 21.9355C5.17114 20.0556 4.96651 17.987 5.36522 15.9913C5.76393 13.9956 6.74809 12.1624 8.19323 10.7235C9.63837 9.28472 11.4796 8.30487 13.4841 7.9079C15.4885 7.51092 17.5662 7.71466 19.4544 8.49335C21.3426 9.27204 22.9564 10.5907 24.0919 12.2826C25.2273 13.9745 25.8333 15.9636 25.8333 17.9984C25.8333 20.727 24.7446 23.3438 22.8068 25.2732C20.8689 27.2026 18.2406 28.2866 15.5 28.2866Z" fill="white"/>
<path d="M18.4599 14.513L14.2104 18.7568L12.5441 17.085C12.4237 16.9651 12.2807 16.87 12.1234 16.8051C11.966 16.7402 11.7973 16.7068 11.627 16.7068C11.4567 16.7068 11.2881 16.7402 11.1307 16.8051C10.9734 16.87 10.8304 16.9651 10.7099 17.085C10.5895 17.2049 10.494 17.3473 10.4288 17.5039C10.3636 17.6606 10.3301 17.8285 10.3301 17.9981C10.3301 18.1677 10.3636 18.3356 10.4288 18.4922C10.494 18.6489 10.5895 18.7913 10.7099 18.9112L13.2933 21.4832C13.4134 21.6037 13.5562 21.6994 13.7136 21.7647C13.871 21.83 14.0398 21.8636 14.2104 21.8636C14.3809 21.8636 14.5497 21.83 14.7071 21.7647C14.8645 21.6994 15.0074 21.6037 15.1274 21.4832L20.2941 16.3391C20.4145 16.2192 20.5101 16.0769 20.5753 15.9202C20.6404 15.7635 20.674 15.5956 20.674 15.426C20.674 15.2565 20.6404 15.0886 20.5753 14.9319C20.5101 14.7752 20.4145 14.6329 20.2941 14.513C20.1737 14.3931 20.0307 14.298 19.8734 14.2331C19.716 14.1682 19.5473 14.1348 19.377 14.1348C19.2067 14.1348 19.0381 14.1682 18.8807 14.2331C18.7234 14.298 18.5804 14.3931 18.4599 14.513Z" fill="white"/>
</svg>
