<svg width="128" height="25" viewBox="0 0 128 25" fill="none" xmlns="http://www.w3.org/2000/svg">
<path d="M21.4694 9.64906L15.3204 8.71012L12.5643 2.82922C12.3584 2.39026 11.6392 2.39026 11.4333 2.82922L8.67879 8.70816L2.52978 9.6471C2.41622 9.66464 2.30969 9.71319 2.22189 9.78741C2.13409 9.86163 2.06841 9.95864 2.03208 10.0678C1.99574 10.177 1.99016 10.294 2.01593 10.4062C2.04171 10.5183 2.09784 10.6211 2.17818 10.7034L6.64383 15.2901L5.58787 21.772C5.56899 21.8879 5.58306 22.0068 5.62849 22.1151C5.67391 22.2235 5.74885 22.3168 5.84474 22.3844C5.94064 22.4521 6.0536 22.4914 6.17074 22.4978C6.28787 22.5042 6.40443 22.4774 6.5071 22.4206L11.9994 19.3812L17.4917 22.4218C17.5945 22.4787 17.7112 22.5055 17.8284 22.4991C17.9457 22.4926 18.0588 22.4532 18.1547 22.3854C18.2507 22.3176 18.3256 22.2241 18.3709 22.1156C18.4162 22.0071 18.4301 21.888 18.411 21.772L17.3562 15.2898L21.8218 10.7054C21.9022 10.6231 21.9583 10.5203 21.9841 10.4081C22.0098 10.296 22.0043 10.1789 21.9679 10.0698C21.9316 9.9606 21.8659 9.86358 21.7781 9.78936C21.6903 9.71515 21.583 9.6666 21.4694 9.64906Z" fill="#FFC107"/>
<path d="M47.4694 9.64906L41.3204 8.71012L38.5643 2.82922C38.3584 2.39026 37.6392 2.39026 37.4333 2.82922L34.6788 8.70816L28.5298 9.6471C28.4162 9.66464 28.3097 9.71319 28.2219 9.78741C28.1341 9.86163 28.0684 9.95864 28.0321 10.0678C27.9957 10.177 27.9902 10.294 28.0159 10.4062C28.0417 10.5183 28.0978 10.6211 28.1782 10.7034L32.6438 15.2901L31.5879 21.772C31.569 21.8879 31.5831 22.0068 31.6285 22.1151C31.6739 22.2235 31.7489 22.3168 31.8447 22.3844C31.9406 22.4521 32.0536 22.4914 32.1707 22.4978C32.2879 22.5042 32.4044 22.4774 32.5071 22.4206L37.9994 19.3812L43.4917 22.4218C43.5945 22.4787 43.7112 22.5055 43.8284 22.4991C43.9457 22.4926 44.0588 22.4532 44.1547 22.3854C44.2507 22.3176 44.3256 22.2241 44.3709 22.1156C44.4162 22.0071 44.4301 21.888 44.411 21.772L43.3562 15.2898L47.8218 10.7054C47.9022 10.6231 47.9583 10.5203 47.9841 10.4081C48.0098 10.296 48.0043 10.1789 47.9679 10.0698C47.9316 9.9606 47.8659 9.86358 47.7781 9.78936C47.6903 9.71515 47.583 9.6666 47.4694 9.64906Z" fill="#FFC107"/>
<path d="M73.4694 9.64906L67.3204 8.71012L64.5643 2.82922C64.3584 2.39026 63.6392 2.39026 63.4333 2.82922L60.6788 8.70816L54.5298 9.6471C54.4162 9.66464 54.3097 9.71319 54.2219 9.78741C54.1341 9.86163 54.0684 9.95864 54.0321 10.0678C53.9957 10.177 53.9902 10.294 54.0159 10.4062C54.0417 10.5183 54.0978 10.6211 54.1782 10.7034L58.6438 15.2901L57.5879 21.772C57.569 21.8879 57.5831 22.0068 57.6285 22.1151C57.6739 22.2235 57.7489 22.3168 57.8447 22.3844C57.9406 22.4521 58.0536 22.4914 58.1707 22.4978C58.2879 22.5042 58.4044 22.4774 58.5071 22.4206L63.9994 19.3812L69.4917 22.4218C69.5945 22.4787 69.7112 22.5055 69.8284 22.4991C69.9457 22.4926 70.0588 22.4532 70.1547 22.3854C70.2507 22.3176 70.3256 22.2241 70.3709 22.1156C70.4162 22.0071 70.4301 21.888 70.411 21.772L69.3562 15.2898L73.8218 10.7054C73.9022 10.6231 73.9583 10.5203 73.9841 10.4081C74.0098 10.296 74.0043 10.1789 73.9679 10.0698C73.9316 9.9606 73.8659 9.86358 73.7781 9.78936C73.6903 9.71515 73.583 9.6666 73.4694 9.64906Z" fill="#FFC107"/>
<path d="M99.4694 9.64906L93.3204 8.71012L90.5643 2.82922C90.3584 2.39026 89.6392 2.39026 89.4333 2.82922L86.6788 8.70816L80.5298 9.6471C80.4162 9.66464 80.3097 9.71319 80.2219 9.78741C80.1341 9.86163 80.0684 9.95864 80.0321 10.0678C79.9957 10.177 79.9902 10.294 80.0159 10.4062C80.0417 10.5183 80.0978 10.6211 80.1782 10.7034L84.6438 15.2901L83.5879 21.772C83.569 21.8879 83.5831 22.0068 83.6285 22.1151C83.6739 22.2235 83.7489 22.3168 83.8447 22.3844C83.9406 22.4521 84.0536 22.4914 84.1707 22.4978C84.2879 22.5042 84.4044 22.4774 84.5071 22.4206L89.9994 19.3812L95.4917 22.4218C95.5945 22.4787 95.7112 22.5055 95.8284 22.4991C95.9457 22.4926 96.0588 22.4532 96.1547 22.3854C96.2507 22.3176 96.3256 22.2241 96.3709 22.1156C96.4162 22.0071 96.4301 21.888 96.411 21.772L95.3562 15.2898L99.8218 10.7054C99.9022 10.6231 99.9583 10.5203 99.9841 10.4081C100.01 10.296 100.004 10.1789 99.9679 10.0698C99.9316 9.9606 99.8659 9.86358 99.7781 9.78936C99.6903 9.71515 99.583 9.6666 99.4694 9.64906Z" fill="#FFC107"/>
<mask id="mask0_613_16150" style="mask-type:alpha" maskUnits="userSpaceOnUse" x="105" y="2" width="22" height="21">
<path d="M125.469 9.64906L119.32 8.71012L116.564 2.82922C116.358 2.39026 115.639 2.39026 115.433 2.82922L112.679 8.70816L106.53 9.6471C106.416 9.66464 106.31 9.71319 106.222 9.78741C106.134 9.86163 106.068 9.95864 106.032 10.0678C105.996 10.177 105.99 10.294 106.016 10.4062C106.042 10.5183 106.098 10.6211 106.178 10.7034L110.644 15.2901L109.588 21.772C109.569 21.8879 109.583 22.0068 109.628 22.1151C109.674 22.2235 109.749 22.3168 109.845 22.3844C109.941 22.4521 110.054 22.4914 110.171 22.4978C110.288 22.5042 110.404 22.4774 110.507 22.4206L115.999 19.3812L121.492 22.4218C121.594 22.4787 121.711 22.5055 121.828 22.4991C121.946 22.4926 122.059 22.4532 122.155 22.3854C122.251 22.3176 122.326 22.2241 122.371 22.1156C122.416 22.0071 122.43 21.888 122.411 21.772L121.356 15.2898L125.822 10.7054C125.902 10.6231 125.958 10.5203 125.984 10.4081C126.01 10.296 126.004 10.1789 125.968 10.0698C125.932 9.9606 125.866 9.86358 125.778 9.78936C125.69 9.71515 125.583 9.6666 125.469 9.64906Z" fill="#D9D9D9" stroke="#FFC107"/>
</mask>
<g mask="url(#mask0_613_16150)">
<rect x="106" y="1.5" width="17" height="22" fill="#FFC107"/>
<path d="M125.469 9.64906L119.32 8.71012L116.564 2.82922C116.358 2.39026 115.639 2.39026 115.433 2.82922L112.679 8.70816L106.53 9.6471C106.416 9.66464 106.31 9.71319 106.222 9.78741C106.134 9.86163 106.068 9.95864 106.032 10.0678C105.996 10.177 105.99 10.294 106.016 10.4062C106.042 10.5183 106.098 10.6211 106.178 10.7034L110.644 15.2901L109.588 21.772C109.569 21.8879 109.583 22.0068 109.628 22.1151C109.674 22.2235 109.749 22.3168 109.845 22.3844C109.941 22.4521 110.054 22.4914 110.171 22.4978C110.288 22.5042 110.404 22.4774 110.507 22.4206L115.999 19.3812L121.492 22.4218C121.594 22.4787 121.711 22.5055 121.828 22.4991C121.946 22.4926 122.059 22.4532 122.155 22.3854C122.251 22.3176 122.326 22.2241 122.371 22.1156C122.416 22.0071 122.43 21.888 122.411 21.772L121.356 15.2898L125.822 10.7054C125.902 10.6231 125.958 10.5203 125.984 10.4081C126.01 10.296 126.004 10.1789 125.968 10.0698C125.932 9.9606 125.866 9.86358 125.778 9.78936C125.69 9.71515 125.583 9.6666 125.469 9.64906Z" stroke="#FFC107"/>
</g>
</svg>
