<svg width="135" height="25" viewBox="0 0 135 25" fill="none" xmlns="http://www.w3.org/2000/svg">
<path d="M24 0.5H0V24.5H24V0.5Z" fill="#00B67E"/>
<path d="M11.9996 3.16675L14.4134 9.17768L20.8761 9.61591L15.9053 13.7691L17.4855 20.0509L11.9996 16.6068L6.51362 20.0509L8.09389 13.7691L3.12305 9.61591L9.58571 9.17768L11.9996 3.16675Z" fill="white"/>
<path d="M51.5547 0.5H27.5547V24.5H51.5547V0.5Z" fill="#00B67E"/>
<path d="M39.5562 3.16675L41.9701 9.17768L48.4328 9.61591L43.4619 13.7691L45.0422 20.0509L39.5562 16.6068L34.0703 20.0509L35.6505 13.7691L30.6797 9.61591L37.1424 9.17768L39.5562 3.16675Z" fill="white"/>
<path d="M79.1113 0.5H55.1113V24.5H79.1113V0.5Z" fill="#00B67E"/>
<path d="M67.1109 3.16675L69.5251 9.17768L75.9874 9.61591L71.0167 13.7691L72.5971 20.0509L67.1109 16.6068L61.625 20.0509L63.2052 13.7691L58.2344 9.61591L64.697 9.17768L67.1109 3.16675Z" fill="white"/>
<path d="M106.666 0.5H82.666V24.5H106.666V0.5Z" fill="#00B67E"/>
<path d="M94.6675 3.16675L97.0817 9.17768L103.544 9.61591L98.5732 13.7691L100.154 20.0509L94.6675 16.6068L89.1812 20.0509L90.7617 13.7691L85.791 9.61591L92.2532 9.17768L94.6675 3.16675Z" fill="white"/>
<path d="M134.221 0.5H110.221V24.5H134.221V0.5Z" fill="#00B67E"/>
<path d="M122.222 3.16675L124.636 9.17768L131.099 9.61591L126.128 13.7691L127.708 20.0509L122.222 16.6068L116.736 20.0509L118.316 13.7691L113.346 9.61591L119.808 9.17768L122.222 3.16675Z" fill="white"/>
</svg>
