<svg width="49" height="20" viewBox="0 0 49 20" fill="none" xmlns="http://www.w3.org/2000/svg">
<g clip-path="url(#clip0_272:22206)">
<path d="M9.27438 2.5785C8.71188 3.25404 7.81188 3.78687 6.91188 3.71075C6.79938 2.79734 7.24001 1.82683 7.75563 1.2274C8.31813 0.532826 9.3025 0.038059 10.0994 0C10.1931 0.951475 9.8275 1.88392 9.27438 2.5785ZM10.09 3.89153C8.78688 3.81541 7.67126 4.6432 7.05251 4.6432C6.42438 4.6432 5.47751 3.92959 4.44626 3.94862C3.10563 3.96765 1.85876 4.73834 1.17438 5.96575C-0.231866 8.42055 0.808759 12.0552 2.16813 14.0533C2.83376 15.0428 3.63063 16.1275 4.68063 16.0894C5.67438 16.0514 6.06813 15.4329 7.26813 15.4329C8.4775 15.4329 8.82438 16.0894 9.87438 16.0704C10.9619 16.0514 11.6463 15.0809 12.3119 14.0913C13.0713 12.9686 13.3806 11.8744 13.3994 11.8173C13.3806 11.7983 11.2994 10.9895 11.2806 8.55376C11.2619 6.5176 12.9213 5.5471 12.9963 5.49001C12.0588 4.08183 10.5963 3.92959 10.09 3.89153ZM17.6181 1.13225V15.9657H19.8869V10.8944H23.0275C25.8962 10.8944 27.9119 8.89629 27.9119 6.00381C27.9119 3.11132 25.9337 1.13225 23.1025 1.13225H17.6181ZM19.8869 3.07326H22.5025C24.4712 3.07326 25.5962 4.13892 25.5962 6.01332C25.5962 7.88773 24.4712 8.96289 22.4931 8.96289H19.8869V3.07326ZM32.0556 16.0799C33.4806 16.0799 34.8025 15.3473 35.4025 14.1865H35.4494V15.9657H37.5494V8.5823C37.5494 6.44148 35.8619 5.06185 33.265 5.06185C30.8556 5.06185 29.0744 6.46051 29.0087 8.38249H31.0525C31.2212 7.46908 32.0556 6.86965 33.1994 6.86965C34.5869 6.86965 35.365 7.52617 35.365 8.73454V9.55281L32.5337 9.72407C29.8994 9.88582 28.4744 10.98 28.4744 12.883C28.4744 14.8049 29.9462 16.0799 32.0556 16.0799ZM32.665 14.3197C31.4556 14.3197 30.6869 13.7298 30.6869 12.8259C30.6869 11.8934 31.4275 11.3511 32.8431 11.2655L35.365 11.1037V11.941C35.365 13.3302 34.2025 14.3197 32.665 14.3197ZM40.3525 20C42.565 20 43.6056 19.1437 44.515 16.5461L48.4994 5.20457H46.1931L43.5212 13.9677H43.4744L40.8025 5.20457H38.4306L42.2744 16.0038L42.0681 16.6603C41.7212 17.7736 41.1587 18.2017 40.1556 18.2017C39.9775 18.2017 39.6306 18.1827 39.49 18.1637V19.9429C39.6212 19.981 40.1837 20 40.3525 20Z" fill="white"/>
</g>
<defs>
<clipPath id="clip0_272:22206">
<rect width="48" height="20" fill="white" transform="translate(0.5)"/>
</clipPath>
</defs>
</svg>
