<svg width="8" height="11" viewBox="0 0 8 11" fill="none" xmlns="http://www.w3.org/2000/svg">
<path d="M3.66742 0.717658C3.82336 0.489756 4.13452 0.431413 4.36242 0.587346C4.59032 0.743279 4.64866 1.05444 4.49273 1.28234L3.66742 0.717658ZM1.00113 5.5L0.588478 5.78234C0.472016 5.61213 0.472016 5.38787 0.588478 5.21766L1.00113 5.5ZM4.49273 9.71766C4.64866 9.94556 4.59032 10.2567 4.36242 10.4127C4.13452 10.5686 3.82336 10.5102 3.66742 10.2823L4.49273 9.71766ZM4.49273 1.28234L1.41378 5.78234L0.588478 5.21766L3.66742 0.717658L4.49273 1.28234ZM1.41378 5.21766L4.49273 9.71766L3.66742 10.2823L0.588478 5.78234L1.41378 5.21766Z" fill="#046BD9"/>
<path d="M6.1811 0.717658C6.33703 0.489756 6.64819 0.431413 6.87609 0.587346C7.10399 0.743279 7.16234 1.05444 7.0064 1.28234L6.1811 0.717658ZM3.5148 5.5L3.10215 5.78234C2.98569 5.61213 2.98569 5.38787 3.10215 5.21766L3.5148 5.5ZM7.0064 9.71766C7.16234 9.94556 7.10399 10.2567 6.87609 10.4127C6.64819 10.5686 6.33703 10.5102 6.1811 10.2823L7.0064 9.71766ZM7.0064 1.28234L3.92746 5.78234L3.10215 5.21766L6.1811 0.717658L7.0064 1.28234ZM3.92746 5.21766L7.0064 9.71766L6.1811 10.2823L3.10215 5.78234L3.92746 5.21766Z" fill="#046BD9"/>
</svg>
