<svg width="25" height="24" viewBox="0 0 25 24" fill="none" xmlns="http://www.w3.org/2000/svg">
<path fill-rule="evenodd" clip-rule="evenodd" d="M12.7203 6.97034C12.79 6.9005 12.8728 6.84508 12.9639 6.80727C13.055 6.76946 13.1527 6.75 13.2513 6.75C13.35 6.75 13.4477 6.76946 13.5388 6.80727C13.6299 6.84508 13.7127 6.9005 13.7823 6.97034L18.2823 11.4703C18.3522 11.54 18.4076 11.6228 18.4454 11.7139C18.4832 11.805 18.5027 11.9027 18.5027 12.0013C18.5027 12.1 18.4832 12.1977 18.4454 12.2888C18.4076 12.3799 18.3522 12.4627 18.2823 12.5323L13.7823 17.0323C13.6415 17.1732 13.4505 17.2523 13.2513 17.2523C13.0522 17.2523 12.8612 17.1732 12.7203 17.0323C12.5795 16.8915 12.5004 16.7005 12.5004 16.5013C12.5004 16.3022 12.5795 16.1112 12.7203 15.9703L16.6908 12.0013L12.7203 8.03234C12.6505 7.96267 12.5951 7.87991 12.5573 7.78879C12.5195 7.69767 12.5 7.59999 12.5 7.50134C12.5 7.40269 12.5195 7.30501 12.5573 7.21389C12.5951 7.12277 12.6505 7.04001 12.7203 6.97034Z" fill="white"/>
<path fill-rule="evenodd" clip-rule="evenodd" d="M6.5 12C6.5 11.8011 6.57902 11.6103 6.71967 11.4697C6.86032 11.329 7.05109 11.25 7.25 11.25H17C17.1989 11.25 17.3897 11.329 17.5303 11.4697C17.671 11.6103 17.75 11.8011 17.75 12C17.75 12.1989 17.671 12.3897 17.5303 12.5303C17.3897 12.671 17.1989 12.75 17 12.75H7.25C7.05109 12.75 6.86032 12.671 6.71967 12.5303C6.57902 12.3897 6.5 12.1989 6.5 12Z" fill="white"/>
</svg>
