<svg width="24" height="24" viewBox="0 0 24 24" fill="none" xmlns="http://www.w3.org/2000/svg">
<path fill-rule="evenodd" clip-rule="evenodd" d="M12.2203 6.97034C12.29 6.9005 12.3728 6.84508 12.4639 6.80727C12.555 6.76946 12.6527 6.75 12.7513 6.75C12.85 6.75 12.9477 6.76946 13.0388 6.80727C13.1299 6.84508 13.2127 6.9005 13.2823 6.97034L17.7823 11.4703C17.8522 11.54 17.9076 11.6228 17.9454 11.7139C17.9832 11.805 18.0027 11.9027 18.0027 12.0013C18.0027 12.1 17.9832 12.1977 17.9454 12.2888C17.9076 12.3799 17.8522 12.4627 17.7823 12.5323L13.2823 17.0323C13.1415 17.1732 12.9505 17.2523 12.7513 17.2523C12.5522 17.2523 12.3612 17.1732 12.2203 17.0323C12.0795 16.8915 12.0004 16.7005 12.0004 16.5013C12.0004 16.3022 12.0795 16.1112 12.2203 15.9703L16.1908 12.0013L12.2203 8.03234C12.1505 7.96267 12.0951 7.87991 12.0573 7.78879C12.0195 7.69767 12 7.59999 12 7.50134C12 7.40269 12.0195 7.30501 12.0573 7.21389C12.0951 7.12277 12.1505 7.04001 12.2203 6.97034Z" fill="#046BD9"/>
<path fill-rule="evenodd" clip-rule="evenodd" d="M6 12C6 11.8011 6.07902 11.6103 6.21967 11.4697C6.36032 11.329 6.55109 11.25 6.75 11.25H16.5C16.6989 11.25 16.8897 11.329 17.0303 11.4697C17.171 11.6103 17.25 11.8011 17.25 12C17.25 12.1989 17.171 12.3897 17.0303 12.5303C16.8897 12.671 16.6989 12.75 16.5 12.75H6.75C6.55109 12.75 6.36032 12.671 6.21967 12.5303C6.07902 12.3897 6 12.1989 6 12Z" fill="#046BD9"/>
</svg>
