<svg width="262" height="125" viewBox="0 0 262 125" fill="none" xmlns="http://www.w3.org/2000/svg">
<g filter="url(#filter0_f_355_5240)">
<path opacity="0.2" d="M3.44558 88.4642C5.74386 88.4642 7.60699 86.3496 7.60699 83.7411C7.60699 81.1327 5.74386 79.0181 3.44558 79.0181C1.1473 79.0181 -0.71582 81.1327 -0.71582 83.7411C-0.71582 86.3496 1.1473 88.4642 3.44558 88.4642Z" fill="white"/>
<path opacity="0.2" d="M142.915 62.6964C145.213 62.6964 147.076 60.5818 147.076 57.9733C147.076 55.3648 145.213 53.2502 142.915 53.2502C140.617 53.2502 138.754 55.3648 138.754 57.9733C138.754 60.5818 140.617 62.6964 142.915 62.6964Z" fill="white"/>
<path opacity="0.2" d="M65.8672 19.9795H70.0286V27.0641H65.8672V19.9795Z" fill="white"/>
<path opacity="0.2" d="M205.337 -5.78833H209.498V1.2963H205.337V-5.78833Z" fill="white"/>
<path opacity="0.2" d="M76.8818 49.0062L81.0427 44.2837L83.9854 47.6235L79.8245 52.346L76.8818 49.0062Z" fill="white"/>
<path opacity="0.2" d="M216.351 23.2384L220.512 18.5159L223.455 21.8557L219.294 26.5782L216.351 23.2384Z" fill="white"/>
<path opacity="0.2" d="M29.0256 35.8181L31.9683 32.4783L36.1291 37.2008L33.1865 40.5406L29.0256 35.8181Z" fill="white"/>
<path opacity="0.2" d="M168.495 10.0505L171.438 6.71069L175.599 11.4332L172.656 14.773L168.495 10.0505Z" fill="white"/>
<path opacity="0.2" d="M42.9796 81.3796H47.141V88.4642H42.9796V81.3796Z" fill="white"/>
<path opacity="0.2" d="M182.449 55.6118H186.61V62.6964H182.449V55.6118Z" fill="white"/>
<path opacity="0.2" d="M10.2878 68.8808L13.2305 65.541L17.3914 70.2635L14.4487 73.6033L10.2878 68.8808Z" fill="white"/>
<path opacity="0.2" d="M149.757 43.113L152.7 39.7732L156.861 44.4957L153.918 47.8355L149.757 43.113Z" fill="white"/>
<path opacity="0.2" d="M229.955 86.5713L232.898 83.2314L237.059 87.9539L234.116 91.2938L229.955 86.5713Z" fill="white"/>
<path opacity="0.2" d="M12.3704 91.5169L16.5312 86.7944L19.4739 90.1343L15.313 94.8568L12.3704 91.5169Z" fill="white"/>
<path opacity="0.2" d="M151.84 65.7494L156.001 61.0269L158.943 64.3667L154.782 69.0892L151.84 65.7494Z" fill="white"/>
<path opacity="0.2" d="M76.8811 89.1544L81.042 84.4319L83.9846 87.7717L79.8237 92.4942L76.8811 89.1544Z" fill="white"/>
<path opacity="0.2" d="M216.351 63.3866L220.511 58.6641L223.454 62.0039L219.293 66.7264L216.351 63.3866Z" fill="white"/>
<path opacity="0.3" d="M20.8618 14.4371C23.2831 14.4371 25.246 12.2094 25.246 9.46125C25.246 6.71314 23.2831 4.48535 20.8618 4.48535C18.4405 4.48535 16.4777 6.71314 16.4777 9.46125C16.4777 12.2094 18.4405 14.4371 20.8618 14.4371Z" fill="white"/>
<path opacity="0.3" d="M-6.9928 16.1966L-3.89266 12.678L0.490945 17.6533L-2.6092 21.1718L-6.9928 16.1966Z" fill="white"/>
<path opacity="0.3" d="M24.5002 61.4863H28.8844V68.9502H24.5002V61.4863Z" fill="white"/>
<path opacity="0.3" d="M234.454 115.475H238.838V122.938H234.454V115.475Z" fill="white"/>
<path opacity="0.3" d="M50.0013 -2.24982L54.3849 -7.2251L57.4851 -3.70652L53.1015 1.26876L50.0013 -2.24982Z" fill="white"/>
<g opacity="0.2">
<path d="M30.2734 30.092L34.657 25.1167L37.7572 28.6353L33.3736 33.6106L30.2734 30.092Z" fill="white"/>
<path d="M106.996 38.5886L110.096 35.0701L114.48 40.0453L111.38 43.5639L106.996 38.5886Z" fill="white"/>
</g>
<g opacity="0.2">
<path d="M169.743 4.32415L174.127 -0.651123L177.227 2.86746L172.843 7.84273L169.743 4.32415Z" fill="white"/>
<path d="M246.465 12.8211L249.565 9.30249L253.949 14.2778L250.849 17.7963L246.465 12.8211Z" fill="white"/>
</g>
<path opacity="0.15" d="M97.2342 -31.8801C96.536 -31.2193 95.8381 -30.5632 95.1398 -29.9119C61.486 1.32878 20.0189 19.748 -23.3782 22.7327L-24.239 22.7921L-1.20099 48.9397L9.27084 18.038L34.4032 39.4314L42.7807 6.15271L70.0074 27.5462L72.1018 -10.4867L97.2342 3.77566V-31.8801Z" fill="white"/>
</g>
<g opacity="0.15" filter="url(#filter1_f_355_5240)">
<path d="M185.043 -32.9456C185.347 -32.2357 185.654 -31.5265 185.968 -30.8216C200.696 2.75671 226.081 29.8868 258.3 46.4818L258.935 46.8065L233.108 58.3195L235.328 32.1296L208.386 39.8758L214.71 14.0623L185.803 18.2227L197.302 -8.81906L172.053 -6.87747L185.045 -32.9446" fill="white"/>
<path d="M259.15 23.6188C260.808 24.6995 263.101 24.1565 264.271 22.406C265.44 20.6555 265.044 18.3604 263.385 17.2797C261.726 16.1991 259.434 16.742 258.264 18.4925C257.095 20.243 257.491 22.5381 259.15 23.6188Z" fill="white"/>
</g>
<defs>
<filter id="filter0_f_355_5240" x="-25.7387" y="-34.4926" width="281.187" height="158.931" filterUnits="userSpaceOnUse" color-interpolation-filters="sRGB">
<feFlood flood-opacity="0" result="BackgroundImageFix"/>
<feBlend mode="normal" in="SourceGraphic" in2="BackgroundImageFix" result="shape"/>
<feGaussianBlur stdDeviation="0.749835" result="effect1_foregroundBlur_355_5240"/>
</filter>
<filter id="filter1_f_355_5240" x="170.553" y="-34.4452" width="95.8895" height="94.2645" filterUnits="userSpaceOnUse" color-interpolation-filters="sRGB">
<feFlood flood-opacity="0" result="BackgroundImageFix"/>
<feBlend mode="normal" in="SourceGraphic" in2="BackgroundImageFix" result="shape"/>
<feGaussianBlur stdDeviation="0.749835" result="effect1_foregroundBlur_355_5240"/>
</filter>
</defs>
</svg>
