<svg width="40" height="40" viewBox="0 0 40 40" fill="none" xmlns="http://www.w3.org/2000/svg">
<g clip-path="url(#clip0)">
<path d="M38.1561 38.4377H36.4426V13.5577C36.4426 12.3996 35.5004 11.4575 34.3424 11.4575H30.5124C29.3544 11.4575 28.4123 12.3997 28.4123 13.5577V38.4377H24.0613V24.8303C24.0613 23.6722 23.1192 22.7301 21.9612 22.7301H18.1312C16.9731 22.7301 16.031 23.6723 16.031 24.8303V38.4377H11.6801V31.3905C11.6801 30.2324 10.7379 29.2903 9.57992 29.2903H5.74984C4.5918 29.2903 3.64969 30.2325 3.64969 31.3905V38.4377H1.84375C1.41227 38.4377 1.0625 38.7874 1.0625 39.2189C1.0625 39.6504 1.41227 40.0002 1.84375 40.0002H38.1561C38.5876 40.0002 38.9373 39.6504 38.9373 39.2189C38.9373 38.7874 38.5876 38.4377 38.1561 38.4377ZM10.1174 38.4377H5.21211V31.3905C5.21211 31.094 5.45328 30.8528 5.74976 30.8528H9.57976C9.87625 30.8528 10.1174 31.094 10.1174 31.3905V38.4377ZM22.4987 38.4377H17.5934V24.8303C17.5934 24.5338 17.8346 24.2926 18.1311 24.2926H21.9611C22.2575 24.2926 22.4987 24.5338 22.4987 24.8303V38.4377ZM34.8801 38.4377H29.9748V13.5577C29.9748 13.2612 30.2159 13.02 30.5124 13.02H34.3424C34.6389 13.02 34.8801 13.2612 34.8801 13.5577V38.4377Z" fill="url(#paint0_linear)"/>
<path d="M34.8801 38.4377H29.9748V13.5577C29.9748 13.2612 30.2159 13.02 30.5124 13.02H34.3424C34.6389 13.02 34.8801 13.2612 34.8801 13.5577V38.4377Z" fill="url(#paint1_linear)"/>
<path d="M22.4987 38.4377H17.5934V24.8303C17.5934 24.5338 17.8346 24.2926 18.1311 24.2926H21.9611C22.2575 24.2926 22.4987 24.5338 22.4987 24.8303V38.4377Z" fill="url(#paint2_linear)"/>
<path d="M10.1174 38.4377H5.21211V31.3905C5.21211 31.094 5.45328 30.8528 5.74976 30.8528H9.57976C9.87625 30.8528 10.1174 31.094 10.1174 31.3905V38.4377Z" fill="url(#paint3_linear)"/>
<path d="M36.4411 0.821562C36.452 0.608359 36.377 0.391563 36.2142 0.22875C36.0514 0.0659375 35.8346 -0.00914063 35.6214 0.001875C35.6088 0.00132813 35.5964 0 35.5836 0H30.857C30.4255 0 30.0758 0.349766 30.0758 0.78125C30.0758 1.21273 30.4255 1.5625 30.857 1.5625H33.7755L26.0523 9.28578L23.1398 6.37328C22.9933 6.2268 22.7946 6.14445 22.5874 6.14445C22.3802 6.14445 22.1815 6.2268 22.035 6.37328L7.99053 20.4178C7.68545 20.7229 7.68545 21.2176 7.99053 21.5227C8.14311 21.6752 8.34303 21.7514 8.54295 21.7514C8.74287 21.7514 8.94287 21.6752 9.09537 21.5226L22.5874 8.03047L25.4999 10.943C25.805 11.248 26.2997 11.248 26.6048 10.943L34.8804 2.66742V5.30883C34.8804 5.74031 35.2302 6.09008 35.6617 6.09008C36.0932 6.09008 36.4429 5.74031 36.4429 5.30883V0.859375C36.4429 0.846641 36.4416 0.834219 36.4411 0.821562Z" fill="#B8D0F3"/>
<path d="M5.90918 24.4775C6.34065 24.4775 6.69043 24.1278 6.69043 23.6963C6.69043 23.2648 6.34065 22.915 5.90918 22.915C5.47771 22.915 5.12793 23.2648 5.12793 23.6963C5.12793 24.1278 5.47771 24.4775 5.90918 24.4775Z" fill="#B8D0F3"/>
</g>
<defs>
<linearGradient id="paint0_linear" x1="5.53173" y1="15.3964" x2="22.3234" y2="41.5836" gradientUnits="userSpaceOnUse">
<stop offset="0.445722" stop-color="#1D96F3"/>
<stop offset="0.784" stop-color="#4B17E6"/>
</linearGradient>
<linearGradient id="paint1_linear" x1="5.53173" y1="15.3964" x2="22.3234" y2="41.5836" gradientUnits="userSpaceOnUse">
<stop offset="0.445722" stop-color="#1D96F3"/>
<stop offset="0.784" stop-color="#4B17E6"/>
</linearGradient>
<linearGradient id="paint2_linear" x1="5.53173" y1="15.3964" x2="22.3234" y2="41.5836" gradientUnits="userSpaceOnUse">
<stop offset="0.445722" stop-color="#1D96F3"/>
<stop offset="0.784" stop-color="#4B17E6"/>
</linearGradient>
<linearGradient id="paint3_linear" x1="5.53173" y1="15.3964" x2="22.3234" y2="41.5836" gradientUnits="userSpaceOnUse">
<stop offset="0.445722" stop-color="#1D96F3"/>
<stop offset="0.784" stop-color="#4B17E6"/>
</linearGradient>
<clipPath id="clip0">
<rect width="40" height="40" fill="white"/>
</clipPath>
</defs>
</svg>
