<svg width="25" height="25" viewBox="0 0 25 25" fill="none" xmlns="http://www.w3.org/2000/svg">
<path d="M22.3694 6.57806C21.8516 6.82856 21.6349 7.45163 21.8854 7.96916C22.5698 9.38288 22.9167 10.9067 22.9167 12.5C22.9167 18.2437 18.2437 22.9167 12.5 22.9167C6.75634 22.9167 2.08333 18.2437 2.08333 12.5C2.08333 6.75634 6.75634 2.08333 12.5 2.08333C14.8801 2.08333 17.116 2.86051 18.9667 4.3307C19.4155 4.68903 20.0719 4.614 20.4302 4.16361C20.7886 3.71348 20.7136 3.05786 20.2629 2.70004C18.072 0.958761 15.315 0 12.5 0C5.60786 0 0 5.60786 0 12.5C0 19.3921 5.60786 25 12.5 25C19.3921 25 25 19.3921 25 12.5C25 10.5901 24.5829 8.75982 23.7605 7.06202C23.5105 6.54322 22.8854 6.32706 22.3694 6.57806Z" fill="white"/>
<path d="M12 7C11.448 7 11 7.448 11 8V15C11 15.552 11.448 16 12 16H17C17.552 16 18 15.552 18 15C18 14.448 17.552 14 17 14H13V8C13 7.448 12.552 7 12 7Z" fill="white"/>
</svg>
