<svg width="25" height="26" viewBox="0 0 25 26" fill="none" xmlns="http://www.w3.org/2000/svg">
<g clip-path="url(#clip0)">
<path d="M22.3694 7.07806C21.8516 7.32856 21.6349 7.95163 21.8854 8.46916C22.5698 9.88288 22.9167 11.4067 22.9167 13C22.9167 18.7437 18.2437 23.4167 12.5 23.4167C6.75634 23.4167 2.08333 18.7437 2.08333 13C2.08333 7.25634 6.75634 2.58333 12.5 2.58333C14.8801 2.58333 17.116 3.36051 18.9667 4.8307C19.4155 5.18903 20.0719 5.114 20.4302 4.66361C20.7886 4.21348 20.7136 3.55786 20.2629 3.20004C18.072 1.45876 15.315 0.5 12.5 0.5C5.60786 0.5 0 6.10786 0 13C0 19.8921 5.60786 25.5 12.5 25.5C19.3921 25.5 25 19.8921 25 13C25 11.0901 24.5829 9.25982 23.7605 7.56202C23.5105 7.04322 22.8854 6.82706 22.3694 7.07806Z" fill="#046BD9"/>
<path d="M12 7.5C11.448 7.5 11 7.948 11 8.5V15.5C11 16.052 11.448 16.5 12 16.5H17C17.552 16.5 18 16.052 18 15.5C18 14.948 17.552 14.5 17 14.5H13V8.5C13 7.948 12.552 7.5 12 7.5Z" fill="#046BD9"/>
</g>
<defs>
<clipPath id="clip0">
<rect width="25" height="25" fill="white" transform="translate(0 0.5)"/>
</clipPath>
</defs>
</svg>
