<svg width="25" height="25" viewBox="0 0 25 25" fill="none" xmlns="http://www.w3.org/2000/svg">
<path d="M22.3214 2.67857H19.6429V0.892874C19.6429 0.399745 19.2431 0 18.75 0C18.2569 0 17.8571 0.399745 17.8571 0.892874V2.67857H7.14284V0.892874C7.14284 0.399745 6.74309 0 6.25001 0C5.75694 0 5.35714 0.399745 5.35714 0.892874V2.67857H2.67857C1.19924 2.67857 0 3.8778 0 5.35714V22.3214C0 23.8008 1.19924 25 2.67857 25H22.3214C23.8008 25 25 23.8008 25 22.3214V5.35714C25 3.8778 23.8008 2.67857 22.3214 2.67857ZM23.2143 22.3214C23.2143 22.8146 22.8145 23.2143 22.3214 23.2143H2.67857C2.18544 23.2143 1.7857 22.8146 1.7857 22.3214V10.7143H23.2143V22.3214ZM23.2143 8.92858H1.7857V5.35714C1.7857 4.86401 2.18544 4.46427 2.67857 4.46427H5.35714V6.24996C5.35714 6.74309 5.75688 7.14284 6.25001 7.14284C6.74314 7.14284 7.14289 6.74309 7.14289 6.24996V4.46427H17.8572V6.24996C17.8572 6.74309 18.2569 7.14284 18.75 7.14284C19.2432 7.14284 19.6429 6.74309 19.6429 6.24996V4.46427H22.3215C22.8146 4.46427 23.2144 4.86401 23.2144 5.35714V8.92858H23.2143Z" fill="white"/>
<path d="M18.4662 12.7614C18.1202 12.4272 17.5717 12.4272 17.2257 12.7614L10.7141 19.273L7.77387 16.3328C7.41917 15.9902 6.85395 16 6.51139 16.3547C6.17719 16.7007 6.17719 17.2492 6.51139 17.5953L10.0828 21.1667C10.4315 21.5152 10.9967 21.5152 11.3453 21.1667L18.4881 14.0239C18.8307 13.6692 18.8209 13.104 18.4662 12.7614Z" fill="white"/>
</svg>
