<svg width="25" height="26" viewBox="0 0 25 26" fill="none" xmlns="http://www.w3.org/2000/svg">
<g clip-path="url(#clip0)">
<path d="M22.3214 3.17857H19.6429V1.39287C19.6429 0.899745 19.2431 0.5 18.75 0.5C18.2569 0.5 17.8571 0.899745 17.8571 1.39287V3.17857H7.14284V1.39287C7.14284 0.899745 6.74309 0.5 6.25001 0.5C5.75694 0.5 5.35714 0.899745 5.35714 1.39287V3.17857H2.67857C1.19924 3.17857 0 4.3778 0 5.85714V22.8214C0 24.3008 1.19924 25.5 2.67857 25.5H22.3214C23.8008 25.5 25 24.3008 25 22.8214V5.85714C25 4.3778 23.8008 3.17857 22.3214 3.17857ZM23.2143 22.8214C23.2143 23.3146 22.8145 23.7143 22.3214 23.7143H2.67857C2.18544 23.7143 1.7857 23.3146 1.7857 22.8214V11.2143H23.2143V22.8214ZM23.2143 9.42858H1.7857V5.85714C1.7857 5.36401 2.18544 4.96427 2.67857 4.96427H5.35714V6.74996C5.35714 7.24309 5.75688 7.64284 6.25001 7.64284C6.74314 7.64284 7.14289 7.24309 7.14289 6.74996V4.96427H17.8572V6.74996C17.8572 7.24309 18.2569 7.64284 18.75 7.64284C19.2432 7.64284 19.6429 7.24309 19.6429 6.74996V4.96427H22.3215C22.8146 4.96427 23.2144 5.36401 23.2144 5.85714V9.42858H23.2143Z" fill="#046BD9"/>
<path d="M18.4665 13.2616C18.1205 12.9274 17.5719 12.9274 17.226 13.2616L10.7143 19.7732L7.77412 16.833C7.41942 16.4905 6.8542 16.5003 6.51163 16.8549C6.17744 17.201 6.17744 17.7495 6.51163 18.0955L10.0831 21.667C10.4318 22.0155 10.9969 22.0155 11.3456 21.667L18.4884 14.5241C18.831 14.1694 18.8211 13.6042 18.4665 13.2616Z" fill="#046BD9"/>
</g>
<defs>
<clipPath id="clip0">
<rect width="25" height="25" fill="white" transform="translate(0 0.5)"/>
</clipPath>
</defs>
</svg>
