<svg width="49" height="20" viewBox="0 0 49 20" fill="none" xmlns="http://www.w3.org/2000/svg">
<path d="M22.9003 9.75189V15.3496H21.1348V1.53329H25.8076C26.3636 1.52077 26.9166 1.6191 27.4347 1.82262C27.9528 2.02615 28.4259 2.33086 28.8268 2.71923C29.2257 3.09274 29.5439 3.54512 29.7615 4.04811C29.979 4.5511 30.0913 5.0939 30.0913 5.64259C30.0913 6.19128 29.979 6.73408 29.7615 7.23707C29.5439 7.74006 29.2257 8.19244 28.8268 8.56595C28.4257 8.95405 27.9526 9.25859 27.4345 9.4621C26.9164 9.66561 26.3636 9.76409 25.8076 9.75189H22.865H22.9003ZM22.9003 3.22919V8.04413H25.8429C26.1702 8.05576 26.4962 7.99848 26.8002 7.87596C27.1042 7.75344 27.3795 7.56836 27.6085 7.33256C27.8346 7.11448 28.014 6.85199 28.1355 6.56132C28.2569 6.27065 28.318 5.95796 28.3148 5.64259C28.2918 5.00445 28.0236 4.40026 27.5668 3.95767C27.11 3.51508 26.5003 3.26874 25.8665 3.2707H22.9239L22.9003 3.22919Z" fill="white"/>
<path d="M34.7041 5.58105C35.8289 5.51778 36.9342 5.89609 37.788 6.63654C38.17 7.00748 38.4686 7.4567 38.6635 7.95386C38.8585 8.45102 38.9452 8.98454 38.918 9.51839V15.3473H37.2348V14.0309H37.1642C36.8602 14.5327 36.4317 14.9459 35.9208 15.2298C35.4099 15.5137 34.8344 15.6584 34.251 15.6497C33.295 15.6869 32.3607 15.3562 31.6379 14.7247C31.3041 14.4416 31.0369 14.0872 30.8557 13.6873C30.6745 13.2873 30.5839 12.8517 30.5904 12.4121C30.5757 11.9633 30.668 11.5176 30.8595 11.1121C31.051 10.7067 31.3361 10.3533 31.6909 10.0817C32.546 9.46539 33.5836 9.16013 34.6335 9.21597C35.5312 9.18482 36.4215 9.38915 37.2171 9.80894V9.40572C37.2193 9.10472 37.1549 8.80701 37.0287 8.53419C36.9025 8.26137 36.7176 8.02028 36.4874 7.82841C36.0204 7.40274 35.4103 7.17171 34.7807 7.18207C34.3135 7.16638 33.8504 7.27416 33.4374 7.4947C33.0244 7.71524 32.6759 8.04086 32.4266 8.43918L30.8787 7.46077C31.2985 6.84808 31.8676 6.35445 32.5313 6.02734C33.195 5.70023 33.9311 5.55063 34.6688 5.59291L34.7041 5.58105ZM32.3913 12.4536C32.3892 12.6799 32.4417 12.9034 32.5442 13.1048C32.6467 13.3061 32.7962 13.4795 32.9798 13.6099C33.3676 13.9196 33.8505 14.0831 34.3452 14.0724C35.0893 14.0715 35.8027 13.7729 36.3285 13.2423C36.6016 12.9971 36.8204 12.6966 36.9705 12.3604C37.1206 12.0243 37.1986 11.66 37.1995 11.2914C36.5309 10.8156 35.7213 10.5834 34.9042 10.6332C34.277 10.6176 33.6603 10.7978 33.1387 11.1491C32.9211 11.29 32.7413 11.4827 32.615 11.7102C32.4888 11.9377 32.42 12.193 32.4148 12.4536" fill="white"/>
<path d="M48.5002 5.8916L42.6268 19.5003H40.8082L42.9916 14.7388L39.1191 5.8916H41.0377L43.8273 12.6752H43.8626L46.5816 5.8916H48.5002Z" fill="white"/>
<path d="M15.8895 8.62426C15.8942 8.06562 15.847 7.50776 15.7483 6.95801H8.35645V10.0118H12.6115C12.5297 10.5082 12.3481 10.9825 12.0779 11.4057C11.8077 11.8288 11.4546 12.1919 11.0401 12.4727V14.4473H13.5707C14.3398 13.6937 14.944 12.7863 15.3443 11.7835C15.7447 10.7806 15.9324 9.70453 15.8954 8.62426" fill="#4285F4"/>
<path d="M11.0407 12.4722C10.2445 12.9867 9.3144 13.2509 8.36876 13.2312C7.386 13.2181 6.43196 12.8954 5.6404 12.3084C4.84883 11.7214 4.25944 10.8995 3.95484 9.95801H1.3418V11.9978C1.99537 13.311 2.99893 14.4148 4.24005 15.1856C5.48117 15.9564 6.9108 16.3638 8.36876 16.3621C10.2824 16.4186 12.1446 15.733 13.5713 14.4468L11.0407 12.4722Z" fill="#34A853"/>
<path d="M3.7013 8.44651C3.70201 7.93039 3.78548 7.41778 3.94848 6.9285V4.88867H1.33544C0.786073 5.99299 0.5 7.21123 0.5 8.44651C0.5 9.68179 0.786073 10.9 1.33544 12.0043L3.9779 9.95859C3.81472 9.47139 3.73123 8.9607 3.73072 8.44651" fill="#FABB05"/>
<path d="M8.3629 3.63734C9.48322 3.61689 10.5662 4.04314 11.3761 4.82329L13.6243 2.56406C12.201 1.21712 10.3154 0.477604 8.3629 0.500517C6.90508 0.499498 5.47572 0.907167 4.23473 1.67792C2.99373 2.44867 1.99005 3.55211 1.33594 4.8648L3.9784 6.92834C4.284 5.98793 4.87382 5.16734 5.6653 4.58148C6.45678 3.99561 7.41029 3.67378 8.39232 3.66106" fill="#E94235"/>
</svg>
