<svg width="175" height="175" viewBox="0 0 175 175" fill="none" xmlns="http://www.w3.org/2000/svg">
<rect x="0.5" y="0.5" width="174" height="174" rx="15.5" fill="#F7FAFD" stroke="#F7FAFD"/>
<g clip-path="url(#clip0)">
<path d="M122.451 122.992H119.153V75.098C119.153 72.8687 117.339 71.0552 115.11 71.0552H107.737C105.508 71.0552 103.694 72.8689 103.694 75.098V122.992H95.3186V96.7977C95.3186 94.5685 93.5051 92.7549 91.2758 92.7549H83.9031C81.6738 92.7549 79.8603 94.5686 79.8603 96.7977V122.992H71.4847V109.426C71.4847 107.197 69.671 105.383 67.4419 105.383H60.069C57.8398 105.383 56.0262 107.197 56.0262 109.426V122.992H52.5498C51.7192 122.992 51.0459 123.665 51.0459 124.496C51.0459 125.326 51.7192 126 52.5498 126H122.451C123.282 126 123.955 125.326 123.955 124.496C123.955 123.665 123.282 122.992 122.451 122.992ZM68.4766 122.992H59.0339V109.426C59.0339 108.855 59.4982 108.391 60.0689 108.391H67.4416C68.0124 108.391 68.4766 108.855 68.4766 109.426V122.992ZM92.3107 122.992H82.868V96.7977C82.868 96.227 83.3322 95.7627 83.9029 95.7627H91.2757C91.8463 95.7627 92.3107 96.227 92.3107 96.7977V122.992ZM116.145 122.992H106.702V75.098C106.702 74.5272 107.166 74.063 107.737 74.063H115.11C115.68 74.063 116.145 74.5272 116.145 75.098V122.992Z" fill="url(#paint0_linear)"/>
<path d="M116.145 122.992H106.702V75.098C106.702 74.5272 107.166 74.063 107.737 74.063H115.11C115.68 74.063 116.145 74.5272 116.145 75.098V122.992Z" fill="url(#paint1_linear)"/>
<path d="M92.3107 122.992H82.868V96.7977C82.868 96.227 83.3322 95.7627 83.9029 95.7627H91.2757C91.8463 95.7627 92.3107 96.227 92.3107 96.7977V122.992Z" fill="url(#paint2_linear)"/>
<path d="M68.4766 122.992H59.0339V109.426C59.0339 108.855 59.4982 108.391 60.0689 108.391H67.4416C68.0124 108.391 68.4766 108.855 68.4766 109.426V122.992Z" fill="url(#paint3_linear)"/>
<path d="M119.148 50.5815C119.169 50.1711 119.025 49.7538 118.711 49.4403C118.398 49.1269 117.981 48.9824 117.57 49.0036C117.546 49.0026 117.522 49 117.497 49H108.399C107.568 49 106.895 49.6733 106.895 50.5039C106.895 51.3345 107.568 52.0078 108.399 52.0078H114.017L99.1498 66.8751L93.5433 61.2686C93.2613 60.9866 92.8787 60.8281 92.4799 60.8281C92.081 60.8281 91.6984 60.9866 91.4165 61.2686L64.3809 88.3043C63.7936 88.8916 63.7936 89.8438 64.3809 90.4313C64.6746 90.7247 65.0594 90.8715 65.4443 90.8715C65.8291 90.8715 66.2141 90.7247 66.5077 90.431L92.4799 64.4587L98.0864 70.0652C98.6737 70.6525 99.626 70.6525 100.213 70.0652L116.144 54.1348V59.2195C116.144 60.0501 116.817 60.7234 117.648 60.7234C118.478 60.7234 119.152 60.0501 119.152 59.2195V50.6543C119.152 50.6298 119.149 50.6059 119.148 50.5815Z" fill="#B8D0F3"/>
<path d="M60.375 96.1187C61.2056 96.1187 61.8789 95.4453 61.8789 94.6147C61.8789 93.7842 61.2056 93.1108 60.375 93.1108C59.5444 93.1108 58.8711 93.7842 58.8711 94.6147C58.8711 95.4453 59.5444 96.1187 60.375 96.1187Z" fill="#B8D0F3"/>
</g>
<defs>
<linearGradient id="paint0_linear" x1="59.6492" y1="78.6375" x2="91.9731" y2="129.048" gradientUnits="userSpaceOnUse">
<stop offset="0.445722" stop-color="#1D96F3"/>
<stop offset="0.784" stop-color="#4B17E6"/>
</linearGradient>
<linearGradient id="paint1_linear" x1="59.6492" y1="78.6375" x2="91.9731" y2="129.048" gradientUnits="userSpaceOnUse">
<stop offset="0.445722" stop-color="#1D96F3"/>
<stop offset="0.784" stop-color="#4B17E6"/>
</linearGradient>
<linearGradient id="paint2_linear" x1="59.6492" y1="78.6375" x2="91.9731" y2="129.048" gradientUnits="userSpaceOnUse">
<stop offset="0.445722" stop-color="#1D96F3"/>
<stop offset="0.784" stop-color="#4B17E6"/>
</linearGradient>
<linearGradient id="paint3_linear" x1="59.6492" y1="78.6375" x2="91.9731" y2="129.048" gradientUnits="userSpaceOnUse">
<stop offset="0.445722" stop-color="#1D96F3"/>
<stop offset="0.784" stop-color="#4B17E6"/>
</linearGradient>
<clipPath id="clip0">
<rect width="77" height="77" fill="white" transform="translate(49 49)"/>
</clipPath>
</defs>
</svg>
