<svg width="175" height="175" viewBox="0 0 175 175" fill="none" xmlns="http://www.w3.org/2000/svg">
<rect x="0.5" y="0.5" width="174" height="174" rx="15.5" fill="#F7FAFD" stroke="#F7FAFD"/>
<g clip-path="url(#clip0)">
<path d="M72.3056 113.703H72.3029L72.2812 113.651C72.2891 113.667 72.2974 113.686 72.3056 113.703Z" fill="url(#paint0_linear)"/>
<path d="M77.3055 105.809L75.4533 113.376C75.3464 113.812 75.0721 114.189 74.6905 114.421C74.3088 114.654 73.8512 114.724 73.4181 114.617C73.1772 114.557 72.9524 114.444 72.7601 114.285C72.5678 114.127 72.4127 113.928 72.3062 113.702C72.2981 113.685 72.2901 113.666 72.282 113.65L61.3735 89.4449C61.371 89.4406 61.3692 89.4361 61.3681 89.4313C60.9994 88.7042 60.9038 87.8672 61.0989 87.0746C61.2048 86.642 61.3941 86.2346 61.6561 85.8759C61.9182 85.5171 62.2478 85.2139 62.6261 84.9837C63.0044 84.7535 63.424 84.6008 63.8608 84.5342C64.2977 84.4676 64.7432 84.4885 65.1721 84.5957L69.528 85.679C70.7717 94.009 73.5743 101.112 77.3055 105.809Z" fill="url(#paint1_linear)"/>
<path d="M114.633 89.431L103.725 113.633C103.716 113.655 103.706 113.68 103.695 113.701C103.588 113.927 103.433 114.127 103.241 114.285C103.049 114.443 102.824 114.556 102.583 114.616C102.15 114.724 101.692 114.653 101.31 114.421C100.928 114.188 100.653 113.812 100.545 113.376L98.6553 105.654C102.319 100.965 105.071 93.9435 106.306 85.7222L110.829 84.5954C111.258 84.4884 111.703 84.4676 112.14 84.5343C112.577 84.6009 112.997 84.7537 113.375 84.9839C113.753 85.2141 114.083 85.5172 114.345 85.8759C114.607 86.2345 114.796 86.6418 114.902 87.0743C115.098 87.8669 115.002 88.704 114.633 89.431Z" fill="url(#paint2_linear)"/>
<path d="M87.9207 40C82.3265 40 68.8174 56.0897 68.8174 75.9372C68.8135 79.1978 69.0511 82.4541 69.5282 85.679C70.772 94.0089 73.5745 101.112 77.3058 105.809C77.75 106.368 78.2075 106.895 78.6787 107.384C78.8351 107.542 79.0215 107.668 79.2268 107.753C79.4321 107.837 79.6522 107.88 79.8741 107.878H95.9649C96.1868 107.88 96.4069 107.838 96.6122 107.753C96.8175 107.668 97.0039 107.542 97.1602 107.384C97.687 106.833 98.1856 106.256 98.6543 105.654C102.318 100.965 105.07 93.9438 106.305 85.7224C106.786 82.4833 107.025 79.2124 107.021 75.9372C107.021 56.0884 93.5123 40 87.9207 40ZM87.9207 73.9307C86.1379 73.9307 84.4281 73.2164 83.1675 71.945C81.9068 70.6736 81.1986 68.9492 81.1986 67.1511C81.1992 65.3534 81.9076 63.6296 83.1682 62.3588C84.4289 61.0879 86.1383 60.374 87.9207 60.3742C89.7027 60.3746 91.4117 61.0887 92.6718 62.3596C93.9319 63.6304 94.6399 65.3539 94.6403 67.1511C94.6404 68.9487 93.9327 70.6728 92.6726 71.9442C91.4125 73.2156 89.7032 73.9301 87.9207 73.9307Z" fill="#B8D0F3"/>
<path d="M94.6409 67.1509C94.6411 68.9486 93.9333 70.6727 92.6732 71.9441C91.4131 73.2154 89.7038 73.93 87.9214 73.9305C86.1385 73.9305 84.4288 73.2163 83.1681 71.9448C81.9074 70.6734 81.1992 68.949 81.1992 67.1509C81.1998 65.3533 81.9083 63.6295 83.1689 62.3586C84.4295 61.0877 86.139 60.3739 87.9214 60.374C89.7034 60.3745 91.4124 61.0886 92.6724 62.3594C93.9325 63.6302 94.6405 65.3537 94.6409 67.1509Z" fill="#BDC7CF"/>
<path d="M94.6409 67.1509C94.6411 68.9486 93.9333 70.6727 92.6732 71.9441C91.4131 73.2154 89.7038 73.93 87.9214 73.9305C86.1385 73.9305 84.4288 73.2163 83.1681 71.9448C81.9074 70.6734 81.1992 68.949 81.1992 67.1509C81.1998 65.3533 81.9083 63.6295 83.1689 62.3586C84.4295 61.0877 86.139 60.3739 87.9214 60.374C89.7034 60.3745 91.4124 61.0886 92.6724 62.3594C93.9325 63.6302 94.6405 65.3537 94.6409 67.1509Z" fill="#BDC7CF"/>
<path d="M94.6409 67.1509C94.6411 68.9486 93.9333 70.6727 92.6732 71.9441C91.4131 73.2154 89.7038 73.93 87.9214 73.9305C86.1385 73.9305 84.4288 73.2163 83.1681 71.9448C81.9074 70.6734 81.1992 68.949 81.1992 67.1509C81.1998 65.3533 81.9083 63.6295 83.1689 62.3586C84.4295 61.0877 86.139 60.3739 87.9214 60.374C89.7034 60.3745 91.4124 61.0886 92.6724 62.3594C93.9325 63.6302 94.6405 65.3537 94.6409 67.1509Z" fill="url(#paint3_linear)"/>
<path d="M88.1152 135C87.6689 135 87.241 134.821 86.9254 134.503C86.6099 134.185 86.4326 133.753 86.4326 133.303V113.703C86.4326 113.253 86.6099 112.821 86.9254 112.503C87.241 112.185 87.6689 112.006 88.1152 112.006C88.5614 112.006 88.9894 112.185 89.305 112.503C89.6205 112.821 89.7978 113.253 89.7978 113.703V133.303C89.7978 133.525 89.7543 133.746 89.6697 133.952C89.5852 134.158 89.4613 134.345 89.3051 134.503C89.1488 134.66 88.9633 134.785 88.7592 134.871C88.555 134.956 88.3362 135 88.1152 135Z" fill="url(#paint4_linear)"/>
<path d="M94.4912 128.256C94.0449 128.256 93.617 128.077 93.3014 127.759C92.9859 127.441 92.8086 127.009 92.8086 126.559V119.185C92.8086 118.735 92.9859 118.304 93.3014 117.985C93.617 117.667 94.0449 117.488 94.4912 117.488C94.9374 117.488 95.3654 117.667 95.6809 117.985C95.9965 118.304 96.1738 118.735 96.1738 119.185V126.559C96.1738 127.009 95.9965 127.441 95.6809 127.759C95.3654 128.077 94.9374 128.256 94.4912 128.256Z" fill="url(#paint5_linear)"/>
<path d="M81.1894 130.965C80.7432 130.965 80.3152 130.787 79.9996 130.468C79.6841 130.15 79.5068 129.718 79.5068 129.268V119.185C79.5068 118.735 79.6841 118.303 79.9996 117.985C80.3152 117.667 80.7432 117.488 81.1894 117.488C81.6357 117.488 82.0636 117.667 82.3792 117.985C82.6947 118.303 82.872 118.735 82.872 119.185V129.268C82.872 129.718 82.6947 130.15 82.3792 130.468C82.0636 130.787 81.6357 130.965 81.1894 130.965Z" fill="url(#paint6_linear)"/>
<path d="M94.4912 135C94.0449 135 93.617 134.821 93.3014 134.503C92.9859 134.185 92.8086 133.753 92.8086 133.303V131.932C92.8086 131.482 92.9859 131.051 93.3014 130.732C93.617 130.414 94.0449 130.235 94.4912 130.235C94.9374 130.235 95.3654 130.414 95.6809 130.732C95.9965 131.051 96.1738 131.482 96.1738 131.932V133.303C96.1738 133.753 95.9965 134.185 95.6809 134.503C95.3654 134.821 94.9374 135 94.4912 135Z" fill="url(#paint7_linear)"/>
</g>
<defs>
<linearGradient id="paint0_linear" x1="72.2934" y1="113.703" x2="72.2934" y2="113.651" gradientUnits="userSpaceOnUse">
<stop stop-color="#1D96F3"/>
<stop offset="1" stop-color="#4B17E6"/>
</linearGradient>
<linearGradient id="paint1_linear" x1="69.1528" y1="114.666" x2="69.1528" y2="84.4961" gradientUnits="userSpaceOnUse">
<stop stop-color="#1D96F3"/>
<stop offset="1" stop-color="#4B17E6"/>
</linearGradient>
<linearGradient id="paint2_linear" x1="106.828" y1="114.665" x2="106.828" y2="84.4961" gradientUnits="userSpaceOnUse">
<stop stop-color="#1D96F3"/>
<stop offset="1" stop-color="#4B17E6"/>
</linearGradient>
<linearGradient id="paint3_linear" x1="82.7853" y1="62.2448" x2="91.4595" y2="72.3529" gradientUnits="userSpaceOnUse">
<stop stop-color="#1D96F3"/>
<stop offset="0.784" stop-color="#4B17E6"/>
</linearGradient>
<linearGradient id="paint4_linear" x1="86.8297" y1="115.179" x2="91.8031" y2="116.034" gradientUnits="userSpaceOnUse">
<stop stop-color="#1D96F3"/>
<stop offset="0.784" stop-color="#4B17E6"/>
</linearGradient>
<linearGradient id="paint5_linear" x1="93.2057" y1="118.974" x2="97.7175" y2="120.631" gradientUnits="userSpaceOnUse">
<stop stop-color="#1D96F3"/>
<stop offset="0.784" stop-color="#4B17E6"/>
</linearGradient>
<linearGradient id="paint6_linear" x1="79.9039" y1="119.348" x2="84.6185" y2="120.731" gradientUnits="userSpaceOnUse">
<stop stop-color="#1D96F3"/>
<stop offset="0.784" stop-color="#4B17E6"/>
</linearGradient>
<linearGradient id="paint7_linear" x1="93.2057" y1="130.893" x2="96.2373" y2="133.409" gradientUnits="userSpaceOnUse">
<stop stop-color="#1D96F3"/>
<stop offset="0.784" stop-color="#4B17E6"/>
</linearGradient>
<clipPath id="clip0">
<rect width="54" height="95" fill="white" transform="translate(61 40)"/>
</clipPath>
</defs>
</svg>
