<svg width="175" height="175" viewBox="0 0 175 175" fill="none" xmlns="http://www.w3.org/2000/svg">
<rect x="0.5" y="0.5" width="174" height="174" rx="15.5" fill="#F7FAFD" stroke="#F7FAFD"/>
<path d="M78.2026 126.485L74.4714 125.966L72.8029 122.728C72.6539 122.439 72.3464 122.256 72.0097 122.256C71.673 122.256 71.3656 122.439 71.2166 122.728L69.548 125.966L65.8169 126.485C65.4836 126.532 65.207 126.755 65.1029 127.062C64.9989 127.368 65.0856 127.705 65.3266 127.93L68.0265 130.451L67.3892 134.009C67.3322 134.327 67.4687 134.648 67.7411 134.838C68.0135 135.028 68.3746 135.052 68.6725 134.902L72.0097 133.222L75.3469 134.902C75.648 135.054 76.0087 135.026 76.2783 134.838C76.5506 134.648 76.6871 134.327 76.6301 134.009L75.9928 130.451L78.6927 127.93C78.9338 127.705 79.0204 127.368 78.9164 127.062C78.8125 126.755 78.5358 126.532 78.2026 126.485ZM74.4252 129.548C74.2169 129.743 74.1217 130.023 74.1709 130.298L74.5839 132.604L72.4214 131.516C72.1636 131.386 71.8559 131.386 71.5982 131.516L69.4357 132.604L69.8487 130.298C69.8979 130.023 69.8027 129.743 69.5943 129.548L67.8447 127.915L70.2625 127.579C70.5507 127.538 70.7996 127.365 70.9285 127.115L72.0097 125.017L73.091 127.115C73.2198 127.365 73.4689 127.538 73.757 127.579L76.1748 127.915L74.4252 129.548Z" fill="url(#paint0_linear)"/>
<path d="M74.4252 129.548C74.2169 129.743 74.1217 130.023 74.1709 130.298L74.5839 132.604L72.4214 131.516C72.1636 131.386 71.8559 131.386 71.5982 131.516L69.4357 132.604L69.8487 130.298C69.8979 130.023 69.8027 129.743 69.5943 129.548L67.8447 127.915L70.2625 127.579C70.5507 127.538 70.7996 127.365 70.9285 127.115L72.0097 125.017L73.091 127.115C73.2198 127.365 73.4689 127.538 73.757 127.579L76.1748 127.915L74.4252 129.548Z" fill="url(#paint1_linear)"/>
<path d="M108.982 126.485L105.251 125.966L103.582 122.728C103.433 122.439 103.126 122.256 102.789 122.256C102.452 122.256 102.145 122.439 101.996 122.728L100.327 125.966L96.5962 126.485C96.2629 126.532 95.9863 126.755 95.8822 127.062C95.7782 127.368 95.8649 127.705 96.1059 127.93L98.8058 130.451L98.1684 134.009C98.1115 134.327 98.248 134.648 98.5204 134.838C98.7928 135.028 99.1539 135.052 99.4518 134.902L102.789 133.222L106.126 134.902C106.427 135.054 106.788 135.026 107.058 134.838C107.33 134.648 107.466 134.327 107.409 134.009L106.772 130.451L109.472 127.93C109.713 127.705 109.8 127.368 109.696 127.062C109.592 126.755 109.315 126.532 108.982 126.485ZM105.205 129.548C104.996 129.743 104.901 130.023 104.95 130.298L105.363 132.604L103.201 131.516C102.943 131.386 102.635 131.386 102.378 131.516L100.215 132.604L100.628 130.298C100.677 130.023 100.582 129.743 100.374 129.548L98.624 127.915L101.042 127.579C101.33 127.538 101.579 127.365 101.708 127.115L102.789 125.017L103.87 127.115C103.999 127.365 104.248 127.538 104.536 127.579L106.954 127.915L105.205 129.548Z" fill="url(#paint2_linear)"/>
<path d="M105.205 129.548C104.996 129.743 104.901 130.023 104.95 130.298L105.363 132.604L103.201 131.516C102.943 131.386 102.635 131.386 102.378 131.516L100.215 132.604L100.628 130.298C100.677 130.023 100.582 129.743 100.374 129.548L98.624 127.915L101.042 127.579C101.33 127.538 101.579 127.365 101.708 127.115L102.789 125.017L103.87 127.115C103.999 127.365 104.248 127.538 104.536 127.579L106.954 127.915L105.205 129.548Z" fill="url(#paint3_linear)"/>
<path d="M94.7998 127.062C94.6882 126.755 94.3917 126.532 94.0348 126.485L90.0372 125.966L88.2494 122.728C88.0897 122.439 87.7603 122.256 87.3996 122.256C87.0388 122.256 86.7094 122.439 86.5497 122.728L84.7621 125.966L80.7645 126.485C80.4075 126.532 80.1111 126.755 79.9995 127.062C79.8881 127.368 79.981 127.705 80.2393 127.93L83.1319 130.451L82.449 134.01C82.388 134.327 82.5342 134.648 82.8261 134.838C83.1178 135.028 83.5048 135.052 83.824 134.902L87.3996 133.222L90.9752 134.902C91.1138 134.968 91.2652 135 91.416 135C92.0057 135 92.4488 134.524 92.3501 134.01L91.6672 130.451L94.5599 127.93C94.8183 127.705 94.9112 127.368 94.7998 127.062ZM89.9876 129.548C89.7643 129.743 89.6624 130.023 89.7151 130.298L90.1576 132.604L87.8406 131.516C87.5644 131.386 87.2348 131.386 86.9586 131.516L84.6416 132.604L85.0841 130.298C85.1368 130.023 85.0349 129.743 84.8116 129.548L82.9371 127.915L85.5276 127.579C85.8364 127.538 86.1031 127.365 86.2412 127.115L87.3996 125.017L88.5582 127.115C88.6963 127.365 88.963 127.538 89.2718 127.579L91.8623 127.915L89.9876 129.548Z" fill="url(#paint4_linear)"/>
<path d="M89.9876 129.548C89.7643 129.743 89.6624 130.023 89.7151 130.298L90.1576 132.604L87.8406 131.516C87.5644 131.386 87.2348 131.386 86.9586 131.516L84.6416 132.604L85.0841 130.298C85.1368 130.023 85.0349 129.743 84.8116 129.548L82.9371 127.915L85.5276 127.579C85.8364 127.538 86.1031 127.365 86.2412 127.115L87.3996 125.017L88.5582 127.115C88.6963 127.365 88.963 127.538 89.2718 127.579L91.8623 127.915L89.9876 129.548Z" fill="url(#paint5_linear)"/>
<path d="M124.591 127.062C124.494 126.755 124.237 126.532 123.928 126.485L120.463 125.966L118.914 122.728C118.775 122.439 118.49 122.256 118.177 122.256C117.865 122.256 117.579 122.439 117.441 122.728L115.891 125.966L112.427 126.485C112.117 126.532 111.861 126.755 111.764 127.062C111.667 127.368 111.748 127.705 111.972 127.93L114.479 130.451L113.887 134.01C113.834 134.327 113.961 134.648 114.214 134.838C114.466 135.028 114.802 135.052 115.078 134.902L118.177 133.222L121.276 134.902C121.396 134.968 121.527 135 121.658 135C122.169 135 122.553 134.524 122.468 134.01L121.876 130.451L124.383 127.93C124.607 127.705 124.687 127.368 124.591 127.062ZM120.42 129.548C120.227 129.743 120.138 130.023 120.184 130.298L120.568 132.604L118.559 131.516C118.32 131.386 118.034 131.386 117.795 131.516L115.787 132.604L116.171 130.298C116.216 130.023 116.128 129.743 115.934 129.548L114.31 127.915L116.555 127.579C116.822 127.538 117.054 127.365 117.173 127.115L118.177 125.017L119.181 127.115C119.301 127.365 119.532 127.538 119.8 127.579L122.045 127.915L120.42 129.548Z" fill="url(#paint6_linear)"/>
<path d="M120.42 129.548C120.227 129.743 120.138 130.023 120.184 130.298L120.568 132.604L118.559 131.516C118.32 131.386 118.034 131.386 117.795 131.516L115.787 132.604L116.171 130.298C116.216 130.023 116.128 129.743 115.934 129.548L114.31 127.915L116.555 127.579C116.822 127.538 117.054 127.365 117.173 127.115L118.177 125.017L119.181 127.115C119.301 127.365 119.532 127.538 119.8 127.579L122.045 127.915L120.42 129.548Z" fill="url(#paint7_linear)"/>
<path d="M62.3702 126.485L58.9056 125.966L57.3563 122.728C57.2179 122.439 56.9324 122.256 56.6197 122.256C56.3071 122.256 56.0216 122.439 55.8832 122.728L54.3338 125.966L50.8692 126.485C50.5598 126.532 50.3028 126.755 50.2062 127.062C50.1096 127.368 50.1902 127.705 50.414 127.93L52.921 130.451L52.3292 134.01C52.2764 134.327 52.4031 134.648 52.656 134.838C52.909 135.028 53.2442 135.052 53.5209 134.902L56.6197 133.222L59.7186 134.902C59.8387 134.968 59.97 135 60.1006 135C60.6117 135 60.9958 134.524 60.9102 134.01L60.3183 130.451L62.8253 127.93C63.0492 127.705 63.1297 127.368 63.0331 127.062C62.9366 126.755 62.6796 126.532 62.3702 126.485ZM58.8627 129.548C58.6692 129.743 58.5808 130.023 58.6265 130.298L59.0101 132.604L57.002 131.516C56.7626 131.386 56.4769 131.386 56.2376 131.516L54.2295 132.604L54.613 130.298C54.6587 130.023 54.5703 129.743 54.3768 129.548L52.7522 127.915L54.9973 127.578C55.2649 127.538 55.4961 127.365 55.6157 127.115L56.6198 125.017L57.6238 127.115C57.7435 127.365 57.9748 127.538 58.2423 127.578L60.4874 127.915L58.8627 129.548Z" fill="url(#paint8_linear)"/>
<path d="M58.8627 129.548C58.6692 129.743 58.5808 130.023 58.6265 130.298L59.0101 132.604L57.002 131.516C56.7626 131.386 56.4769 131.386 56.2376 131.516L54.2295 132.604L54.613 130.298C54.6587 130.023 54.5703 129.743 54.3768 129.548L52.7522 127.915L54.9973 127.578C55.2649 127.538 55.4961 127.365 55.6157 127.115L56.6198 125.017L57.6238 127.115C57.7435 127.365 57.9748 127.538 58.2423 127.578L60.4874 127.915L58.8627 129.548Z" fill="url(#paint9_linear)"/>
<path d="M126 78.2381C126.001 73.2171 125.007 68.2451 123.073 63.606C121.139 58.9669 118.304 54.7515 114.729 51.2006C111.155 47.6498 106.91 44.833 102.239 42.9112C97.5682 40.9894 92.5614 40.0001 87.5053 40C82.4484 39.9991 77.4409 40.9874 72.7687 42.9087C68.0966 44.83 63.8511 47.6467 60.2753 51.1976C56.6996 54.7486 53.8636 58.9642 51.9289 63.6039C49.9942 68.2436 48.999 73.2164 49 78.2381C48.9855 87.5995 52.4448 96.638 58.7169 103.627V102.99C58.7173 101.275 59.0578 99.577 59.7192 97.9928C60.3806 96.4086 61.3498 94.9693 62.5714 93.7572C63.793 92.545 65.2431 91.5837 66.8389 90.9282C68.4347 90.2727 70.1448 89.9358 71.8718 89.9367H103.128C104.855 89.9358 106.566 90.2727 108.162 90.9282C109.757 91.5837 111.207 92.545 112.429 93.7572C113.651 94.9693 114.62 96.4086 115.281 97.9928C115.943 99.577 116.283 101.275 116.284 102.99V103.627C122.556 96.6381 126.015 87.5995 126 78.2381ZM87.5053 82.7898C85.615 82.79 83.7434 82.4205 81.997 81.7023C80.2505 80.9841 78.6633 79.9313 77.3266 78.6041C75.99 77.2768 74.93 75.7011 74.2067 73.9669C73.4833 72.2326 73.1109 70.3739 73.1111 68.4968C73.1108 66.6196 73.4829 64.7607 74.2062 63.0263C74.9295 61.292 75.99 59.7162 77.3266 58.3888C78.6633 57.0614 80.25 56.0084 81.9965 55.2902C83.743 54.5719 85.6149 54.2024 87.5053 54.2027C91.3214 54.2046 94.9805 55.7115 97.6779 58.392C100.375 61.0726 101.89 64.7073 101.889 68.4968C101.89 72.2862 100.375 75.9207 97.6779 78.6011C94.9805 81.2814 91.3213 82.7881 87.5053 82.7898Z" fill="#B8D0F3"/>
<path d="M116.285 102.991V103.628C112.676 107.669 108.244 110.903 103.283 113.116C98.3224 115.329 92.9448 116.471 87.5062 116.466C82.0659 116.472 76.6863 115.331 71.7234 113.117C66.7606 110.904 62.3277 107.67 58.7178 103.628V102.991C58.7182 101.276 59.0587 99.5783 59.7201 97.9941C60.3815 96.4099 61.3507 94.9706 62.5723 93.7584C63.794 92.5463 65.244 91.585 66.8398 90.9295C68.4356 90.2739 70.1457 89.937 71.8727 89.938H103.129C104.856 89.937 106.567 90.2739 108.163 90.9295C109.758 91.585 111.208 92.5463 112.43 93.7584C113.652 94.9706 114.621 96.4099 115.282 97.9941C115.944 99.5783 116.284 101.276 116.285 102.991Z" fill="url(#paint10_linear)"/>
<path d="M101.888 68.4977C101.889 72.2871 100.374 75.9216 97.6762 78.602C94.9788 81.2823 91.3196 82.789 87.5036 82.7907C85.6133 82.7909 83.7417 82.4214 81.9953 81.7032C80.2488 80.985 78.6616 79.9322 77.3249 78.605C75.9883 77.2777 74.9283 75.702 74.205 73.9678C73.4816 72.2335 73.1092 70.3748 73.1094 68.4977C73.1091 66.6205 73.4812 64.7616 74.2045 63.0273C74.9278 61.2929 75.9882 59.7171 77.3249 58.3897C78.6616 57.0623 80.2483 56.0093 81.9948 55.2911C83.7413 54.5728 85.6132 54.2033 87.5036 54.2036C91.3197 54.2055 94.9788 55.7124 97.6762 58.3929C100.374 61.0735 101.889 64.7082 101.888 68.4977Z" fill="url(#paint11_linear)"/>
<defs>
<linearGradient id="paint0_linear" x1="66.6998" y1="124.015" x2="74.7015" y2="134.272" gradientUnits="userSpaceOnUse">
<stop stop-color="#1D96F3"/>
<stop offset="0.784" stop-color="#4B17E6"/>
</linearGradient>
<linearGradient id="paint1_linear" x1="66.6998" y1="124.015" x2="74.7015" y2="134.272" gradientUnits="userSpaceOnUse">
<stop stop-color="#1D96F3"/>
<stop offset="0.784" stop-color="#4B17E6"/>
</linearGradient>
<linearGradient id="paint2_linear" x1="97.4791" y1="124.015" x2="105.481" y2="134.272" gradientUnits="userSpaceOnUse">
<stop stop-color="#1D96F3"/>
<stop offset="0.784" stop-color="#4B17E6"/>
</linearGradient>
<linearGradient id="paint3_linear" x1="97.4791" y1="124.015" x2="105.481" y2="134.272" gradientUnits="userSpaceOnUse">
<stop stop-color="#1D96F3"/>
<stop offset="0.784" stop-color="#4B17E6"/>
</linearGradient>
<linearGradient id="paint4_linear" x1="81.7105" y1="124.015" x2="89.5616" y2="134.798" gradientUnits="userSpaceOnUse">
<stop stop-color="#1D96F3"/>
<stop offset="0.784" stop-color="#4B17E6"/>
</linearGradient>
<linearGradient id="paint5_linear" x1="81.7105" y1="124.015" x2="89.5616" y2="134.798" gradientUnits="userSpaceOnUse">
<stop stop-color="#1D96F3"/>
<stop offset="0.784" stop-color="#4B17E6"/>
</linearGradient>
<linearGradient id="paint6_linear" x1="113.247" y1="124.015" x2="121.373" y2="133.687" gradientUnits="userSpaceOnUse">
<stop stop-color="#1D96F3"/>
<stop offset="0.784" stop-color="#4B17E6"/>
</linearGradient>
<linearGradient id="paint7_linear" x1="113.247" y1="124.015" x2="121.373" y2="133.687" gradientUnits="userSpaceOnUse">
<stop stop-color="#1D96F3"/>
<stop offset="0.784" stop-color="#4B17E6"/>
</linearGradient>
<linearGradient id="paint8_linear" x1="51.6891" y1="124.015" x2="59.8152" y2="133.687" gradientUnits="userSpaceOnUse">
<stop stop-color="#1D96F3"/>
<stop offset="0.784" stop-color="#4B17E6"/>
</linearGradient>
<linearGradient id="paint9_linear" x1="51.6891" y1="124.015" x2="59.8152" y2="133.687" gradientUnits="userSpaceOnUse">
<stop stop-color="#1D96F3"/>
<stop offset="0.784" stop-color="#4B17E6"/>
</linearGradient>
<linearGradient id="paint10_linear" x1="65.5107" y1="93.5989" x2="77.1831" y2="123.368" gradientUnits="userSpaceOnUse">
<stop stop-color="#1D96F3"/>
<stop offset="0.784" stop-color="#4B17E6"/>
</linearGradient>
<linearGradient id="paint11_linear" x1="76.5052" y1="58.1486" x2="94.7524" y2="79.7376" gradientUnits="userSpaceOnUse">
<stop stop-color="#1D96F3"/>
<stop offset="0.784" stop-color="#4B17E6"/>
</linearGradient>
</defs>
</svg>
