<svg width="25" height="27" viewBox="0 0 25 27" fill="none" xmlns="http://www.w3.org/2000/svg">
<g clip-path="url(#clip0)">
<path d="M14.0631 27H10.9381C10.209 27 9.37565 26.325 9.37565 24.975V22.6125C9.37565 21.4875 8.85482 20.475 8.02148 19.6875C6.14648 18.1125 5.20898 15.8625 5.20898 13.3875C5.31315 9.1125 8.54232 5.7375 12.3965 5.625C14.3756 5.625 16.2506 6.4125 17.6048 7.875C18.959 9.3375 19.7923 11.3625 19.7923 13.5C19.7923 15.8625 18.8548 18.1125 17.084 19.575C16.1465 20.3625 15.6256 21.6 15.6256 22.725V25.3125C15.6256 26.2125 14.8965 27 14.0631 27ZM12.5006 6.75C9.16732 6.75 6.35482 9.7875 6.25065 13.3875C6.25065 15.525 7.08398 17.55 8.64648 18.7875C9.79232 19.8 10.4173 21.15 10.4173 22.6125V24.975C10.4173 25.2 10.4173 25.875 10.9381 25.875H14.0631C14.3756 25.875 14.584 25.65 14.584 25.3125V22.725C14.584 21.2625 15.3131 19.6875 16.459 18.675C17.9173 17.4375 18.7506 15.525 18.7506 13.5C18.7506 11.7 18.1256 10.0125 16.8756 8.6625C15.7298 7.425 14.1673 6.75 12.5006 6.75Z" fill="#5A7386"/>
<path d="M15.1042 23.625H9.89583C9.58333 23.625 9.375 23.4 9.375 23.0625C9.375 22.725 9.58333 22.5 9.89583 22.5H15.1042C15.4167 22.5 15.625 22.725 15.625 23.0625C15.625 23.4 15.4167 23.625 15.1042 23.625Z" fill="#5A7386"/>
<path d="M12.4994 3.375C12.1869 3.375 11.9785 3.15 11.9785 2.8125V0.5625C11.9785 0.225 12.1869 0 12.4994 0C12.8119 0 13.0202 0.225 13.0202 0.5625V2.8125C13.0202 3.15 12.8119 3.375 12.4994 3.375Z" fill="#5A7386"/>
<path d="M19.4792 6.5251C19.375 6.5251 19.1667 6.5251 19.0625 6.4126C18.8542 6.1876 18.8542 5.8501 19.0625 5.6251L20.5208 4.0501C20.7292 3.8251 21.0417 3.8251 21.25 4.0501C21.4583 4.2751 21.4583 4.6126 21.25 4.8376L19.7917 6.4126C19.7917 6.4126 19.5833 6.5251 19.4792 6.5251Z" fill="#5A7386"/>
<path d="M24.4792 14.0625H22.3958C22.0833 14.0625 21.875 13.8375 21.875 13.5C21.875 13.1625 22.0833 12.9375 22.3958 12.9375H24.4792C24.7917 12.9375 25 13.1625 25 13.5C25 13.8375 24.7917 14.0625 24.4792 14.0625Z" fill="#5A7386"/>
<path d="M20.9375 23.175C20.8333 23.175 20.625 23.175 20.5208 23.0625L19.0625 21.4875C18.8542 21.2625 18.8542 20.925 19.0625 20.7C19.2708 20.475 19.5833 20.475 19.7917 20.7L21.25 22.275C21.4583 22.5 21.4583 22.8375 21.25 23.0625C21.25 23.175 21.1458 23.175 20.9375 23.175Z" fill="#5A7386"/>
<path d="M4.06315 23.175C3.95898 23.175 3.75065 23.175 3.64648 23.0625C3.43815 22.8375 3.43815 22.5 3.64648 22.275L5.10482 20.7C5.31315 20.475 5.62565 20.475 5.83398 20.7C6.04232 20.925 6.04232 21.2625 5.83398 21.4875L4.37565 23.0625C4.27148 23.175 4.16732 23.175 4.06315 23.175Z" fill="#5A7386"/>
<path d="M2.60417 14.0625H0.520833C0.208333 14.0625 0 13.8375 0 13.5C0 13.1625 0.208333 12.9375 0.520833 12.9375H2.60417C2.91667 12.9375 3.125 13.1625 3.125 13.5C3.125 13.8375 2.91667 14.0625 2.60417 14.0625Z" fill="#5A7386"/>
<path d="M5.52148 6.5248C5.41732 6.5248 5.20898 6.5248 5.10482 6.4123L3.64648 4.7248C3.43815 4.4998 3.43815 4.1623 3.64648 3.9373C3.85482 3.7123 4.16732 3.7123 4.37565 3.9373L5.83398 5.5123C6.04232 5.7373 6.04232 6.0748 5.83398 6.2998C5.72982 6.4123 5.62565 6.5248 5.52148 6.5248Z" fill="#5A7386"/>
<path d="M16.666 14.0625C16.3535 14.0625 16.1452 13.8375 16.1452 13.5C16.1452 11.3625 14.4785 9.5625 12.4993 9.5625C12.1868 9.5625 11.9785 9.3375 11.9785 9C11.9785 8.6625 12.1868 8.4375 12.4993 8.4375C15.1035 8.4375 17.1868 10.6875 17.1868 13.5C17.1868 13.8375 16.9785 14.0625 16.666 14.0625Z" fill="#5A7386"/>
</g>
<defs>
<clipPath id="clip0">
<rect width="25" height="27" fill="white"/>
</clipPath>
</defs>
</svg>
