<svg width="40" height="54" viewBox="0 0 40 54" fill="none" xmlns="http://www.w3.org/2000/svg">
<g clip-path="url(#clip0)">
<path d="M10.9905 41.8942H10.9889L10.9766 41.8647C10.981 41.8739 10.9858 41.8848 10.9905 41.8942Z" fill="url(#paint0_linear)"/>
<path d="M13.8606 37.4071L12.7972 41.7083C12.7359 41.9565 12.5784 42.1703 12.3593 42.3025C12.1402 42.4348 11.8775 42.4748 11.6289 42.4136C11.4906 42.3796 11.3615 42.3152 11.2512 42.2253C11.1408 42.1353 11.0517 42.022 10.9906 41.8935C10.986 41.8843 10.9813 41.8735 10.9767 41.8642L4.71442 28.1055C4.71299 28.1031 4.71195 28.1005 4.71132 28.0978C4.49964 27.6845 4.44475 27.2087 4.55678 26.7581C4.61754 26.5122 4.72623 26.2807 4.87666 26.0768C5.0271 25.8729 5.21634 25.7005 5.4335 25.5697C5.65067 25.4388 5.89153 25.352 6.14233 25.3141C6.39312 25.2763 6.64888 25.2882 6.89507 25.3491L9.39568 25.9649C10.1097 30.6998 11.7186 34.7371 13.8606 37.4071Z" fill="url(#paint1_linear)"/>
<path d="M35.2896 28.0976L29.0273 41.8548C29.0227 41.8671 29.0165 41.881 29.0104 41.8934C28.9492 42.0219 28.8602 42.1352 28.7498 42.2251C28.6394 42.3151 28.5104 42.3794 28.3721 42.4135C28.1233 42.4744 27.8605 42.4344 27.6412 42.3022C27.4219 42.17 27.264 41.9564 27.2021 41.7082L26.1172 37.319C28.2206 34.6536 29.8 30.6626 30.5094 25.9894L33.1059 25.3489C33.3521 25.2881 33.6078 25.2763 33.8585 25.3142C34.1093 25.3521 34.3501 25.4389 34.5673 25.5698C34.7844 25.7006 34.9736 25.8729 35.124 26.0768C35.2745 26.2806 35.3833 26.5121 35.4442 26.758C35.5563 27.2085 35.5014 27.6843 35.2896 28.0976Z" fill="url(#paint2_linear)"/>
<path d="M19.955 0C16.7435 0 8.98831 9.14574 8.98831 20.4274C8.98604 22.2808 9.12244 24.1318 9.39634 25.9649C10.1103 30.6998 11.7192 34.7372 13.8612 37.4071C14.1163 37.725 14.3789 38.0244 14.6494 38.3022C14.7392 38.3924 14.8462 38.4637 14.9641 38.512C15.0819 38.5602 15.2083 38.5844 15.3356 38.5831H24.573C24.7004 38.5846 24.8267 38.5604 24.9446 38.5122C25.0624 38.4639 25.1694 38.3925 25.2592 38.3022C25.5616 37.9893 25.8478 37.6612 26.1169 37.3191C28.2203 34.6538 29.7997 30.6628 30.5091 25.9896C30.7849 24.1484 30.9224 22.2891 30.9202 20.4274C30.9202 9.14497 23.165 0 19.955 0ZM19.955 19.2869C18.9315 19.2869 17.95 18.8809 17.2263 18.1582C16.5026 17.4355 16.096 16.4553 16.096 15.4332C16.0963 14.4114 16.5031 13.4316 17.2267 12.7092C17.9504 11.9868 18.9318 11.581 19.955 11.5811C20.978 11.5814 21.9591 11.9873 22.6825 12.7097C23.4059 13.432 23.8123 14.4117 23.8125 15.4332C23.8126 16.4551 23.4063 17.4351 22.6829 18.1578C21.9595 18.8804 20.9783 19.2866 19.955 19.2869Z" fill="#B8D0F3"/>
<path d="M23.8122 15.4332C23.8123 16.455 23.406 17.435 22.6826 18.1577C21.9592 18.8804 20.978 19.2865 19.9547 19.2869C18.9312 19.2869 17.9497 18.8809 17.226 18.1582C16.5023 17.4354 16.0957 16.4552 16.0957 15.4332C16.096 14.4114 16.5028 13.4315 17.2264 12.7091C17.9501 11.9868 18.9315 11.581 19.9547 11.5811C20.9777 11.5813 21.9588 11.9872 22.6822 12.7096C23.4055 13.432 23.812 14.4116 23.8122 15.4332Z" fill="#BDC7CF"/>
<path d="M23.8122 15.4332C23.8123 16.455 23.406 17.435 22.6826 18.1577C21.9592 18.8804 20.978 19.2865 19.9547 19.2869C18.9312 19.2869 17.9497 18.8809 17.226 18.1582C16.5023 17.4354 16.0957 16.4552 16.0957 15.4332C16.096 14.4114 16.5028 13.4315 17.2264 12.7091C17.9501 11.9868 18.9315 11.581 19.9547 11.5811C20.9777 11.5813 21.9588 11.9872 22.6822 12.7096C23.4055 13.432 23.812 14.4116 23.8122 15.4332Z" fill="#BDC7CF"/>
<path d="M23.8122 15.4332C23.8123 16.455 23.406 17.435 22.6826 18.1577C21.9592 18.8804 20.978 19.2865 19.9547 19.2869C18.9312 19.2869 17.9497 18.8809 17.226 18.1582C16.5023 17.4354 16.0957 16.4552 16.0957 15.4332C16.096 14.4114 16.5028 13.4315 17.2264 12.7091C17.9501 11.9868 18.9315 11.581 19.9547 11.5811C20.9777 11.5813 21.9588 11.9872 22.6822 12.7096C23.4055 13.432 23.812 14.4116 23.8122 15.4332Z" fill="url(#paint3_linear)"/>
<path d="M20.0655 53.9999C19.8094 53.9999 19.5637 53.8983 19.3825 53.7174C19.2014 53.5365 19.0996 53.2912 19.0996 53.0354V41.8943C19.0996 41.6384 19.2014 41.3931 19.3825 41.2122C19.5637 41.0313 19.8094 40.9297 20.0655 40.9297C20.3217 40.9297 20.5674 41.0313 20.7485 41.2122C20.9297 41.3931 21.0315 41.6384 21.0315 41.8943V53.0352C21.0315 53.1619 21.0065 53.2873 20.958 53.4044C20.9094 53.5214 20.8383 53.6278 20.7486 53.7174C20.6589 53.807 20.5524 53.878 20.4352 53.9265C20.318 53.975 20.1924 53.9999 20.0655 53.9999Z" fill="url(#paint4_linear)"/>
<path d="M23.7257 50.1664C23.4695 50.1664 23.2238 50.0648 23.0427 49.8839C22.8615 49.703 22.7598 49.4577 22.7598 49.2018V45.0105C22.7598 44.7547 22.8615 44.5093 23.0427 44.3284C23.2238 44.1475 23.4695 44.0459 23.7257 44.0459C23.9819 44.0459 24.2276 44.1475 24.4087 44.3284C24.5899 44.5093 24.6916 44.7547 24.6916 45.0105V49.2018C24.6916 49.4577 24.5899 49.703 24.4087 49.8839C24.2276 50.0648 23.9819 50.1664 23.7257 50.1664Z" fill="url(#paint5_linear)"/>
<path d="M16.0909 51.7068C15.8347 51.7068 15.5891 51.6052 15.4079 51.4243C15.2268 51.2434 15.125 50.9981 15.125 50.7422V45.0105C15.125 44.7547 15.2268 44.5093 15.4079 44.3284C15.5891 44.1475 15.8347 44.0459 16.0909 44.0459C16.3471 44.0459 16.5928 44.1475 16.7739 44.3284C16.9551 44.5093 17.0568 44.7547 17.0568 45.0105V50.7422C17.0568 50.9981 16.9551 51.2434 16.7739 51.4243C16.5928 51.6052 16.3471 51.7068 16.0909 51.7068Z" fill="url(#paint6_linear)"/>
<path d="M23.7257 54.0002C23.4695 54.0002 23.2238 53.8986 23.0427 53.7177C22.8615 53.5368 22.7598 53.2915 22.7598 53.0356V52.2566C22.7598 52.0007 22.8615 51.7554 23.0427 51.5745C23.2238 51.3936 23.4695 51.292 23.7257 51.292C23.9819 51.292 24.2276 51.3936 24.4087 51.5745C24.5899 51.7554 24.6916 52.0007 24.6916 52.2566V53.0356C24.6916 53.2915 24.5899 53.5368 24.4087 53.7177C24.2276 53.8986 23.9819 54.0002 23.7257 54.0002Z" fill="url(#paint7_linear)"/>
</g>
<defs>
<linearGradient id="paint0_linear" x1="10.9835" y1="41.8942" x2="10.9835" y2="41.8647" gradientUnits="userSpaceOnUse">
<stop stop-color="#1D96F3"/>
<stop offset="1" stop-color="#4B17E6"/>
</linearGradient>
<linearGradient id="paint1_linear" x1="9.1803" y1="42.4416" x2="9.1803" y2="25.2925" gradientUnits="userSpaceOnUse">
<stop stop-color="#1D96F3"/>
<stop offset="1" stop-color="#4B17E6"/>
</linearGradient>
<linearGradient id="paint2_linear" x1="30.8091" y1="42.4413" x2="30.8091" y2="25.2925" gradientUnits="userSpaceOnUse">
<stop stop-color="#1D96F3"/>
<stop offset="1" stop-color="#4B17E6"/>
</linearGradient>
<linearGradient id="paint3_linear" x1="17.0063" y1="12.6445" x2="21.9292" y2="18.4383" gradientUnits="userSpaceOnUse">
<stop stop-color="#1D96F3"/>
<stop offset="0.784" stop-color="#4B17E6"/>
</linearGradient>
<linearGradient id="paint4_linear" x1="19.3276" y1="42.7334" x2="22.181" y2="43.2291" gradientUnits="userSpaceOnUse">
<stop stop-color="#1D96F3"/>
<stop offset="0.784" stop-color="#4B17E6"/>
</linearGradient>
<linearGradient id="paint5_linear" x1="22.9877" y1="44.8905" x2="25.5717" y2="45.8491" gradientUnits="userSpaceOnUse">
<stop stop-color="#1D96F3"/>
<stop offset="0.784" stop-color="#4B17E6"/>
</linearGradient>
<linearGradient id="paint6_linear" x1="15.353" y1="45.1031" x2="18.0552" y2="45.904" gradientUnits="userSpaceOnUse">
<stop stop-color="#1D96F3"/>
<stop offset="0.784" stop-color="#4B17E6"/>
</linearGradient>
<linearGradient id="paint7_linear" x1="22.9877" y1="51.6657" x2="24.714" y2="53.113" gradientUnits="userSpaceOnUse">
<stop stop-color="#1D96F3"/>
<stop offset="0.784" stop-color="#4B17E6"/>
</linearGradient>
<clipPath id="clip0">
<rect width="40" height="54" fill="white"/>
</clipPath>
</defs>
</svg>
