<svg width="111" height="58" viewBox="0 0 111 58" fill="none" xmlns="http://www.w3.org/2000/svg">
<path d="M14 28H8V38C8 38 8 40 11 40H14V28Z" fill="#D05F1D"/>
<g filter="url(#filter0_d_507_2200)">
<path d="M94.6573 6.63472C95.1933 5.98212 94.729 5 93.8845 5H17C12.0294 5 8 9.02944 8 14V38C8 34.2188 19 34.2188 19 34.2188H93.8845C94.729 34.2188 95.1933 33.2366 94.6573 32.584L85.5641 21.5135C84.655 20.4068 84.655 18.8119 85.5641 17.7052L94.6573 6.63472Z" fill="#F2813F"/>
</g>
<path d="M27.0761 20.4576V22.5962H26.1577V24H23.8223V22.5962H19.7945V20.4576L22.5365 14.816H25.1343L22.366 20.4576H23.8223V18.8045H26.1577V20.4576H27.0761ZM34.3053 22.8979C33.6405 23.7638 32.709 24.1968 31.5107 24.1968C30.3124 24.1968 29.3765 23.7638 28.703 22.8979C28.0383 22.0233 27.7059 20.8599 27.7059 19.408C27.7059 17.9561 28.0383 16.7971 28.703 15.9312C29.3765 15.0565 30.3124 14.6192 31.5107 14.6192C32.709 14.6192 33.6405 15.0565 34.3053 15.9312C34.9788 16.7971 35.3155 17.9561 35.3155 19.408C35.3155 20.8599 34.9788 22.0233 34.3053 22.8979ZM30.0544 19.408C30.0544 21.0786 30.5398 21.9139 31.5107 21.9139C32.4816 21.9139 32.967 21.0786 32.967 19.408C32.967 17.7374 32.4816 16.9021 31.5107 16.9021C30.5398 16.9021 30.0544 17.7374 30.0544 19.408ZM38.3902 19.3293C37.708 19.3293 37.1351 19.1019 36.6715 18.647C36.2079 18.1835 35.9761 17.6237 35.9761 16.9677C35.9761 16.3117 36.2079 15.7563 36.6715 15.3014C37.1351 14.8466 37.708 14.6192 38.3902 14.6192C39.0724 14.6192 39.641 14.8466 40.0958 15.3014C40.5506 15.7563 40.778 16.3117 40.778 16.9677C40.778 17.6324 40.5463 18.1922 40.0827 18.647C39.6279 19.1019 39.0637 19.3293 38.3902 19.3293ZM37.3406 22.5568L43.3758 15.9968L44.2942 16.5216L38.2459 23.0685L37.3406 22.5568ZM38.3771 17.663C38.5783 17.663 38.7401 17.5974 38.8625 17.4662C38.9937 17.3263 39.0593 17.1601 39.0593 16.9677C39.0593 16.7753 38.9937 16.6134 38.8625 16.4822C38.7401 16.351 38.5783 16.2854 38.3771 16.2854C38.1847 16.2854 38.0228 16.351 37.8916 16.4822C37.7692 16.6134 37.708 16.7753 37.708 16.9677C37.708 17.1689 37.7692 17.335 37.8916 17.4662C38.0228 17.5974 38.1847 17.663 38.3771 17.663ZM43.4676 24.1837C42.7767 24.1837 42.1994 23.9563 41.7358 23.5014C41.281 23.0466 41.0536 22.4912 41.0536 21.8352C41.0536 21.1705 41.281 20.6107 41.7358 20.1558C42.1994 19.701 42.7767 19.4736 43.4676 19.4736C44.1499 19.4736 44.7184 19.7054 45.1732 20.169C45.6281 20.6238 45.8555 21.1792 45.8555 21.8352C45.8555 22.4912 45.6237 23.0466 45.1601 23.5014C44.7053 23.9563 44.1411 24.1837 43.4676 24.1837ZM42.9691 22.3206C43.1003 22.4518 43.2621 22.5174 43.4545 22.5174C43.647 22.5174 43.8044 22.4518 43.9268 22.3206C44.058 22.1807 44.1236 22.0189 44.1236 21.8352C44.1236 21.634 44.058 21.4678 43.9268 21.3366C43.8044 21.2054 43.647 21.1398 43.4545 21.1398C43.2621 21.1398 43.1003 21.2054 42.9691 21.3366C42.8466 21.4678 42.7854 21.634 42.7854 21.8352C42.7854 22.0276 42.8466 22.1894 42.9691 22.3206ZM58.1464 22.8192C57.2192 23.7376 56.0821 24.1968 54.7352 24.1968C53.3882 24.1968 52.2467 23.7376 51.3108 22.8192C50.3837 21.8921 49.9201 20.755 49.9201 19.408C49.9201 18.061 50.3837 16.9283 51.3108 16.0099C52.2467 15.0828 53.3882 14.6192 54.7352 14.6192C56.0821 14.6192 57.2192 15.0828 58.1464 16.0099C59.0823 16.9283 59.5502 18.061 59.5502 19.408C59.5502 20.755 59.0823 21.8921 58.1464 22.8192ZM52.964 21.2054C53.4363 21.669 54.0267 21.9008 54.7352 21.9008C55.4436 21.9008 56.034 21.669 56.5064 21.2054C56.9787 20.7331 57.2148 20.134 57.2148 19.408C57.2148 18.682 56.9787 18.0873 56.5064 17.6237C56.034 17.1514 55.4436 16.9152 54.7352 16.9152C54.0267 16.9152 53.4363 17.1514 52.964 17.6237C52.4916 18.0873 52.2555 18.682 52.2555 19.408C52.2555 20.134 52.4916 20.7331 52.964 21.2054ZM66.4125 17.0858H63.1194V18.5814H66.3469V20.8512H63.1194V24H60.7709V14.816H66.4125V17.0858ZM73.3343 17.0858H70.0412V18.5814H73.2687V20.8512H70.0412V24H67.6927V14.816H73.3343V17.0858Z" fill="white"/>
<defs>
<filter id="filter0_d_507_2200" x="0.11606" y="0.68606" width="110.654" height="56.7679" filterUnits="userSpaceOnUse" color-interpolation-filters="sRGB">
<feFlood flood-opacity="0" result="BackgroundImageFix"/>
<feColorMatrix in="SourceAlpha" type="matrix" values="0 0 0 0 0 0 0 0 0 0 0 0 0 0 0 0 0 0 127 0" result="hardAlpha"/>
<feOffset dx="4" dy="7.57"/>
<feGaussianBlur stdDeviation="5.94197"/>
<feComposite in2="hardAlpha" operator="out"/>
<feColorMatrix type="matrix" values="0 0 0 0 0 0 0 0 0 0 0 0 0 0 0 0 0 0 0.18 0"/>
<feBlend mode="normal" in2="BackgroundImageFix" result="effect1_dropShadow_507_2200"/>
<feBlend mode="normal" in="SourceGraphic" in2="effect1_dropShadow_507_2200" result="shape"/>
</filter>
</defs>
</svg>
