<svg width="112" height="58" viewBox="0 0 112 58" fill="none" xmlns="http://www.w3.org/2000/svg">
<path d="M98 28H104V38C104 38 104 40 101 40H98V28Z" fill="#D05F1D"/>
<g filter="url(#filter0_d_507_1892)">
<path d="M17.3427 6.63472C16.8067 5.98212 17.271 5 18.1155 5H95C99.9706 5 104 9.02944 104 14V38C104 34.2188 93 34.2188 93 34.2188H18.1155C17.271 34.2188 16.8067 33.2366 17.3427 32.584L26.4359 21.5135C27.345 20.4068 27.345 18.8119 26.4359 17.7052L17.3427 6.63472Z" fill="#F2813F"/>
</g>
<path d="M45.7167 20.4576V22.5962H44.7983V24H42.4629V22.5962H38.4351V20.4576L41.1772 14.816H43.7749L41.0066 20.4576H42.4629V18.8045H44.7983V20.4576H45.7167ZM52.9459 22.8979C52.2812 23.7638 51.3496 24.1968 50.1513 24.1968C48.953 24.1968 48.0172 23.7638 47.3437 22.8979C46.6789 22.0233 46.3465 20.8599 46.3465 19.408C46.3465 17.9561 46.6789 16.7971 47.3437 15.9312C48.0172 15.0565 48.953 14.6192 50.1513 14.6192C51.3496 14.6192 52.2812 15.0565 52.9459 15.9312C53.6194 16.7971 53.9561 17.9561 53.9561 19.408C53.9561 20.8599 53.6194 22.0233 52.9459 22.8979ZM48.695 19.408C48.695 21.0786 49.1805 21.9139 50.1513 21.9139C51.1222 21.9139 51.6077 21.0786 51.6077 19.408C51.6077 17.7374 51.1222 16.9021 50.1513 16.9021C49.1805 16.9021 48.695 17.7374 48.695 19.408ZM57.0308 19.3293C56.3486 19.3293 55.7757 19.1019 55.3121 18.647C54.8485 18.1835 54.6167 17.6237 54.6167 16.9677C54.6167 16.3117 54.8485 15.7563 55.3121 15.3014C55.7757 14.8466 56.3486 14.6192 57.0308 14.6192C57.7131 14.6192 58.2816 14.8466 58.7364 15.3014C59.1913 15.7563 59.4187 16.3117 59.4187 16.9677C59.4187 17.6324 59.1869 18.1922 58.7233 18.647C58.2685 19.1019 57.7043 19.3293 57.0308 19.3293ZM55.9812 22.5568L62.0164 15.9968L62.9348 16.5216L56.8865 23.0685L55.9812 22.5568ZM57.0177 17.663C57.2189 17.663 57.3807 17.5974 57.5031 17.4662C57.6343 17.3263 57.6999 17.1601 57.6999 16.9677C57.6999 16.7753 57.6343 16.6134 57.5031 16.4822C57.3807 16.351 57.2189 16.2854 57.0177 16.2854C56.8253 16.2854 56.6635 16.351 56.5323 16.4822C56.4098 16.6134 56.3486 16.7753 56.3486 16.9677C56.3486 17.1689 56.4098 17.335 56.5323 17.4662C56.6635 17.5974 56.8253 17.663 57.0177 17.663ZM62.1083 24.1837C61.4173 24.1837 60.84 23.9563 60.3764 23.5014C59.9216 23.0466 59.6942 22.4912 59.6942 21.8352C59.6942 21.1705 59.9216 20.6107 60.3764 20.1558C60.84 19.701 61.4173 19.4736 62.1083 19.4736C62.7905 19.4736 63.359 19.7054 63.8139 20.169C64.2687 20.6238 64.4961 21.1792 64.4961 21.8352C64.4961 22.4912 64.2643 23.0466 63.8007 23.5014C63.3459 23.9563 62.7818 24.1837 62.1083 24.1837ZM61.6097 22.3206C61.7409 22.4518 61.9027 22.5174 62.0951 22.5174C62.2876 22.5174 62.445 22.4518 62.5675 22.3206C62.6987 22.1807 62.7643 22.0189 62.7643 21.8352C62.7643 21.634 62.6987 21.4678 62.5675 21.3366C62.445 21.2054 62.2876 21.1398 62.0951 21.1398C61.9027 21.1398 61.7409 21.2054 61.6097 21.3366C61.4873 21.4678 61.426 21.634 61.426 21.8352C61.426 22.0276 61.4873 22.1894 61.6097 22.3206ZM76.787 22.8192C75.8598 23.7376 74.7228 24.1968 73.3758 24.1968C72.0288 24.1968 70.8874 23.7376 69.9515 22.8192C69.0243 21.8921 68.5607 20.755 68.5607 19.408C68.5607 18.061 69.0243 16.9283 69.9515 16.0099C70.8874 15.0828 72.0288 14.6192 73.3758 14.6192C74.7228 14.6192 75.8598 15.0828 76.787 16.0099C77.7229 16.9283 78.1908 18.061 78.1908 19.408C78.1908 20.755 77.7229 21.8921 76.787 22.8192ZM71.6046 21.2054C72.0769 21.669 72.6673 21.9008 73.3758 21.9008C74.0843 21.9008 74.6747 21.669 75.147 21.2054C75.6193 20.7331 75.8555 20.134 75.8555 19.408C75.8555 18.682 75.6193 18.0873 75.147 17.6237C74.6747 17.1514 74.0843 16.9152 73.3758 16.9152C72.6673 16.9152 72.0769 17.1514 71.6046 17.6237C71.1323 18.0873 70.8961 18.682 70.8961 19.408C70.8961 20.134 71.1323 20.7331 71.6046 21.2054ZM85.0531 17.0858H81.76V18.5814H84.9875V20.8512H81.76V24H79.4115V14.816H85.0531V17.0858ZM91.9749 17.0858H88.6818V18.5814H91.9093V20.8512H88.6818V24H86.3333V14.816H91.9749V17.0858Z" fill="white"/>
<defs>
<filter id="filter0_d_507_1892" x="0.476254" y="0.68606" width="110.654" height="56.7679" filterUnits="userSpaceOnUse" color-interpolation-filters="sRGB">
<feFlood flood-opacity="0" result="BackgroundImageFix"/>
<feColorMatrix in="SourceAlpha" type="matrix" values="0 0 0 0 0 0 0 0 0 0 0 0 0 0 0 0 0 0 127 0" result="hardAlpha"/>
<feOffset dx="-4.75358" dy="7.57"/>
<feGaussianBlur stdDeviation="5.94197"/>
<feComposite in2="hardAlpha" operator="out"/>
<feColorMatrix type="matrix" values="0 0 0 0 0 0 0 0 0 0 0 0 0 0 0 0 0 0 0.18 0"/>
<feBlend mode="normal" in2="BackgroundImageFix" result="effect1_dropShadow_507_1892"/>
<feBlend mode="normal" in="SourceGraphic" in2="effect1_dropShadow_507_1892" result="shape"/>
</filter>
</defs>
</svg>
