<svg width="111" height="58" viewBox="0 0 111 58" fill="none" xmlns="http://www.w3.org/2000/svg">
<path d="M89 28H95V38C95 38 95 40 92 40H89V28Z" fill="#D05F1D"/>
<g filter="url(#filter0_d_647_2909)">
<path d="M8.34274 6.63472C7.80671 5.98212 8.27096 5 9.11549 5H86C90.9706 5 95 9.02944 95 14V38C95 34.2188 84 34.2188 84 34.2188H9.11549C8.27097 34.2188 7.80671 33.2366 8.34274 32.584L17.4359 21.5135C18.345 20.4068 18.345 18.8119 17.4359 17.7052L8.34274 6.63472Z" fill="#F2813F"/>
</g>
<path d="M36.7167 20.4576V22.5962H35.7983V24H33.4629V22.5962H29.4351V20.4576L32.1772 14.816H34.7749L32.0066 20.4576H33.4629V18.8045H35.7983V20.4576H36.7167ZM43.9459 22.8979C43.2812 23.7638 42.3496 24.1968 41.1513 24.1968C39.953 24.1968 39.0172 23.7638 38.3437 22.8979C37.6789 22.0233 37.3465 20.8599 37.3465 19.408C37.3465 17.9561 37.6789 16.7971 38.3437 15.9312C39.0172 15.0565 39.953 14.6192 41.1513 14.6192C42.3496 14.6192 43.2812 15.0565 43.9459 15.9312C44.6194 16.7971 44.9561 17.9561 44.9561 19.408C44.9561 20.8599 44.6194 22.0233 43.9459 22.8979ZM39.695 19.408C39.695 21.0786 40.1805 21.9139 41.1513 21.9139C42.1222 21.9139 42.6077 21.0786 42.6077 19.408C42.6077 17.7374 42.1222 16.9021 41.1513 16.9021C40.1805 16.9021 39.695 17.7374 39.695 19.408ZM48.0308 19.3293C47.3486 19.3293 46.7757 19.1019 46.3121 18.647C45.8485 18.1835 45.6167 17.6237 45.6167 16.9677C45.6167 16.3117 45.8485 15.7563 46.3121 15.3014C46.7757 14.8466 47.3486 14.6192 48.0308 14.6192C48.7131 14.6192 49.2816 14.8466 49.7364 15.3014C50.1913 15.7563 50.4187 16.3117 50.4187 16.9677C50.4187 17.6324 50.1869 18.1922 49.7233 18.647C49.2685 19.1019 48.7043 19.3293 48.0308 19.3293ZM46.9812 22.5568L53.0164 15.9968L53.9348 16.5216L47.8865 23.0685L46.9812 22.5568ZM48.0177 17.663C48.2189 17.663 48.3807 17.5974 48.5031 17.4662C48.6343 17.3263 48.6999 17.1601 48.6999 16.9677C48.6999 16.7753 48.6343 16.6134 48.5031 16.4822C48.3807 16.351 48.2189 16.2854 48.0177 16.2854C47.8253 16.2854 47.6635 16.351 47.5323 16.4822C47.4098 16.6134 47.3486 16.7753 47.3486 16.9677C47.3486 17.1689 47.4098 17.335 47.5323 17.4662C47.6635 17.5974 47.8253 17.663 48.0177 17.663ZM53.1083 24.1837C52.4173 24.1837 51.84 23.9563 51.3764 23.5014C50.9216 23.0466 50.6942 22.4912 50.6942 21.8352C50.6942 21.1705 50.9216 20.6107 51.3764 20.1558C51.84 19.701 52.4173 19.4736 53.1083 19.4736C53.7905 19.4736 54.359 19.7054 54.8139 20.169C55.2687 20.6238 55.4961 21.1792 55.4961 21.8352C55.4961 22.4912 55.2643 23.0466 54.8007 23.5014C54.3459 23.9563 53.7818 24.1837 53.1083 24.1837ZM52.6097 22.3206C52.7409 22.4518 52.9027 22.5174 53.0951 22.5174C53.2876 22.5174 53.445 22.4518 53.5675 22.3206C53.6987 22.1807 53.7643 22.0189 53.7643 21.8352C53.7643 21.634 53.6987 21.4678 53.5675 21.3366C53.445 21.2054 53.2876 21.1398 53.0951 21.1398C52.9027 21.1398 52.7409 21.2054 52.6097 21.3366C52.4873 21.4678 52.426 21.634 52.426 21.8352C52.426 22.0276 52.4873 22.1894 52.6097 22.3206ZM67.787 22.8192C66.8598 23.7376 65.7228 24.1968 64.3758 24.1968C63.0288 24.1968 61.8874 23.7376 60.9515 22.8192C60.0243 21.8921 59.5607 20.755 59.5607 19.408C59.5607 18.061 60.0243 16.9283 60.9515 16.0099C61.8874 15.0828 63.0288 14.6192 64.3758 14.6192C65.7228 14.6192 66.8598 15.0828 67.787 16.0099C68.7229 16.9283 69.1908 18.061 69.1908 19.408C69.1908 20.755 68.7229 21.8921 67.787 22.8192ZM62.6046 21.2054C63.0769 21.669 63.6673 21.9008 64.3758 21.9008C65.0843 21.9008 65.6747 21.669 66.147 21.2054C66.6193 20.7331 66.8555 20.134 66.8555 19.408C66.8555 18.682 66.6193 18.0873 66.147 17.6237C65.6747 17.1514 65.0843 16.9152 64.3758 16.9152C63.6673 16.9152 63.0769 17.1514 62.6046 17.6237C62.1323 18.0873 61.8961 18.682 61.8961 19.408C61.8961 20.134 62.1323 20.7331 62.6046 21.2054ZM76.0531 17.0858H72.76V18.5814H75.9875V20.8512H72.76V24H70.4115V14.816H76.0531V17.0858ZM82.9749 17.0858H79.6818V18.5814H82.9093V20.8512H79.6818V24H77.3333V14.816H82.9749V17.0858Z" fill="white"/>
<defs>
<filter id="filter0_d_647_2909" x="0.229342" y="0.68606" width="110.655" height="56.7679" filterUnits="userSpaceOnUse" color-interpolation-filters="sRGB">
<feFlood flood-opacity="0" result="BackgroundImageFix"/>
<feColorMatrix in="SourceAlpha" type="matrix" values="0 0 0 0 0 0 0 0 0 0 0 0 0 0 0 0 0 0 127 0" result="hardAlpha"/>
<feOffset dx="4" dy="7.57"/>
<feGaussianBlur stdDeviation="5.94197"/>
<feComposite in2="hardAlpha" operator="out"/>
<feColorMatrix type="matrix" values="0 0 0 0 0 0 0 0 0 0 0 0 0 0 0 0 0 0 0.18 0"/>
<feBlend mode="normal" in2="BackgroundImageFix" result="effect1_dropShadow_647_2909"/>
<feBlend mode="normal" in="SourceGraphic" in2="effect1_dropShadow_647_2909" result="shape"/>
</filter>
</defs>
</svg>
