<svg width="77" height="20" viewBox="0 0 77 20" fill="none" xmlns="http://www.w3.org/2000/svg">
<path d="M13.5254 5.96615C13.688 4.66276 13.5254 3.79384 12.8737 2.98698C12.1668 2.11806 10.9173 1.68359 9.34221 1.68359H4.72373C4.45213 1.68359 4.12655 1.99393 4.07142 2.30426L2.17017 16.0829C2.17017 16.3312 2.33325 16.6415 2.60486 16.6415H5.43003L5.26695 18.0069C5.21239 18.2552 5.37547 18.4414 5.59253 18.4414H7.9836C8.25578 18.4414 8.52681 18.2552 8.58137 17.9449V17.7587L9.07003 14.5313V14.4072C9.12458 14.0968 9.39619 13.8485 9.6678 13.8485H9.99454C12.3299 13.8485 14.1232 12.7934 14.6664 9.6901C14.938 8.38673 14.8301 7.3316 14.1777 6.5868C14.0147 6.33855 13.7425 6.15235 13.5254 5.96615Z" fill="#009CDE"/>
<path d="M13.5254 5.96615C13.688 4.66276 13.5254 3.79384 12.8737 2.98698C12.1668 2.11806 10.9173 1.68359 9.34221 1.68359H4.72373C4.45213 1.68359 4.12655 1.99393 4.07142 2.30426L2.17017 16.0829C2.17017 16.3312 2.33325 16.6415 2.60486 16.6415H5.43003L6.19087 11.4901L6.13633 11.6763C6.19088 11.3038 6.46248 11.0556 6.78807 11.0556H8.1461C10.8088 11.0556 12.8737 9.81424 13.5254 6.33855C13.4714 6.15235 13.5254 6.09028 13.5254 5.96615Z" fill="#012169"/>
<path d="M6.89775 5.96615C6.95115 5.77995 7.06025 5.59375 7.22333 5.46962C7.33128 5.46962 7.38584 5.40756 7.49436 5.40756H11.0804C11.5157 5.40756 11.9492 5.46962 12.2765 5.53168C12.3845 5.53168 12.4936 5.53168 12.6021 5.59375C12.7106 5.65582 12.8192 5.65582 12.8737 5.71788C12.9277 5.71788 12.9816 5.71788 13.0368 5.71788C13.1993 5.77995 13.3624 5.90408 13.5254 5.96615C13.688 4.66276 13.5254 3.79384 12.8737 2.92492C12.2214 2.05599 10.9724 1.68359 9.39619 1.68359H4.72373C4.45213 1.68359 4.12655 1.93186 4.07142 2.30426L2.17017 16.0829C2.17017 16.3312 2.33325 16.6415 2.60486 16.6415H5.43003L6.19087 11.4901L6.89775 5.96615Z" fill="#003087"/>
<path d="M26.211 3.76562H21.803C21.5204 3.76562 21.2378 3.99063 21.1813 4.27188L19.4294 15.5219C19.3729 15.7469 19.5424 15.9156 19.7685 15.9156H21.8595C22.142 15.9156 22.4246 15.6906 22.4811 15.4094L22.9332 12.3719C22.9897 12.0906 23.2158 11.8656 23.5548 11.8656H24.9677C27.8498 11.8656 29.5452 10.4594 29.9973 7.70312C30.1669 6.52188 29.9973 5.56563 29.4322 4.89062C28.8105 4.15938 27.6803 3.76562 26.211 3.76562ZM26.7196 7.87188C26.4935 9.44686 25.2502 9.44686 24.12 9.44686H23.4418L23.8939 6.52188C23.8939 6.35313 24.0635 6.24063 24.233 6.24063H24.5156C25.3067 6.24063 26.0414 6.24062 26.437 6.69062C26.7196 6.91562 26.8326 7.30938 26.7196 7.87188Z" fill="#003087"/>
<path d="M39.3222 7.81543H37.2312C37.0616 7.81543 36.8921 7.92793 36.8921 8.09668L36.7791 8.65918L36.6096 8.43418C36.1575 7.75918 35.1403 7.53418 34.123 7.53418C31.8059 7.53418 29.828 9.27793 29.4324 11.7529C29.2064 12.9905 29.4889 14.1717 30.2237 14.9592C30.8453 15.6905 31.8059 16.028 32.8797 16.028C34.7446 16.028 35.8184 14.8467 35.8184 14.8467L35.7053 15.4092C35.6489 15.6342 35.8184 15.8592 36.0444 15.8592H37.9659C38.2484 15.8592 38.531 15.6342 38.5875 15.353L39.7178 8.15293C39.7743 8.04043 39.5483 7.81543 39.3222 7.81543ZM36.44 11.8654C36.2139 13.0467 35.3098 13.8905 34.0665 13.8905C33.4449 13.8905 32.9927 13.7217 32.6536 13.328C32.3146 12.9342 32.2016 12.428 32.3146 11.8654C32.4841 10.6842 33.5013 9.84043 34.6881 9.84043C35.3098 9.84043 35.7619 10.0654 36.101 10.4029C36.3835 10.7967 36.4966 11.3029 36.44 11.8654Z" fill="#003087"/>
<path d="M50.5682 7.81543H48.4772C48.2512 7.81543 48.0816 7.92793 47.9686 8.09668L45.0299 12.3717L43.7867 8.26543C43.7301 7.98418 43.4476 7.81543 43.2215 7.81543H41.1306C40.9045 7.81543 40.6784 8.04043 40.7914 8.32168L43.1085 15.128L40.9045 18.1655C40.735 18.3905 40.9045 18.728 41.187 18.728H43.278C43.504 18.728 43.6736 18.6155 43.7867 18.4467L50.8507 8.32168C51.0203 8.15293 50.8507 7.81543 50.5682 7.81543Z" fill="#003087"/>
<path d="M57.5757 3.76562H53.1677C52.8851 3.76562 52.6026 3.99063 52.5461 4.27188L50.7941 15.4656C50.7377 15.6906 50.9072 15.8594 51.1332 15.8594H53.3938C53.6198 15.8594 53.7894 15.6906 53.7894 15.5219L54.298 12.3156C54.3544 12.0344 54.5805 11.8094 54.9196 11.8094H56.3325C59.2146 11.8094 60.91 10.4031 61.3621 7.64688C61.5316 6.46563 61.3621 5.50938 60.7969 4.83438C60.1187 4.15938 59.0451 3.76562 57.5757 3.76562ZM58.0843 7.87188C57.8583 9.44688 56.615 9.44688 55.4848 9.44688H54.8066L55.2587 6.52188C55.2587 6.35313 55.4282 6.24063 55.5978 6.24063H55.8803C56.6715 6.24063 57.4061 6.24062 57.8018 6.69062C58.0843 6.91562 58.1408 7.30938 58.0843 7.87188Z" fill="#009CDE"/>
<path d="M70.6869 7.81543H68.5959C68.4264 7.81543 68.2568 7.92793 68.2568 8.09668L68.1438 8.65918L67.9743 8.43418C67.5222 7.75918 66.505 7.53418 65.4878 7.53418C63.1707 7.53418 61.1928 9.27793 60.7971 11.7529C60.5712 12.9905 60.8537 14.1717 61.5884 14.9592C62.21 15.6905 63.1707 16.028 64.2445 16.028C66.1094 16.028 67.1832 14.8467 67.1832 14.8467L67.0701 15.4092C67.0136 15.6342 67.1832 15.8592 67.4091 15.8592H69.3306C69.6131 15.8592 69.8958 15.6342 69.9522 15.353L71.0825 8.15293C71.0825 8.04043 70.913 7.81543 70.6869 7.81543ZM67.7482 11.8654C67.5222 13.0467 66.618 13.8905 65.3747 13.8905C64.7531 13.8905 64.301 13.7217 63.9619 13.328C63.6229 12.9342 63.5098 12.428 63.6229 11.8654C63.7924 10.6842 64.8096 9.84043 65.9964 9.84043C66.618 9.84043 67.0701 10.0654 67.4091 10.4029C67.7482 10.7967 67.8613 11.3029 67.7482 11.8654Z" fill="#009CDE"/>
<path d="M73.1732 4.04688L71.3648 15.4656C71.3083 15.6906 71.4778 15.8594 71.7039 15.8594H73.5123C73.7948 15.8594 74.0775 15.6344 74.1339 15.3531L75.9424 4.15938C75.9988 3.93438 75.8293 3.76562 75.6033 3.76562H73.5689C73.3428 3.76562 73.2298 3.87812 73.1732 4.04688Z" fill="#009CDE"/>
</svg>
