<svg width="52" height="20" viewBox="0 0 52 20" fill="none" xmlns="http://www.w3.org/2000/svg">
<path fill-rule="evenodd" clip-rule="evenodd" d="M9.70285 2.57857C9.10081 3.25414 8.13754 3.78698 7.17428 3.71086C7.05387 2.79742 7.52547 1.82688 8.07734 1.22744C8.67938 0.532841 9.73295 0.0380601 10.5858 0C10.6862 0.951502 10.2949 1.88397 9.70285 2.57857ZM10.5729 3.88776C9.72428 3.84144 8.94995 4.12977 8.32451 4.36266C7.92202 4.51253 7.58118 4.63944 7.32188 4.63944C7.03089 4.63944 6.67599 4.50574 6.27751 4.35563C5.75537 4.15893 5.15842 3.93405 4.53243 3.94485C3.09756 3.96388 1.76304 4.73459 1.03056 5.96203C-0.474543 8.4169 0.639232 12.0516 2.09416 14.0498C2.80658 15.0393 3.65947 16.1241 4.78328 16.086C5.27769 16.0683 5.63333 15.9252 6.0014 15.7771C6.42514 15.6066 6.86533 15.4295 7.55266 15.4295C8.21617 15.4295 8.63711 15.602 9.04119 15.7676C9.42541 15.925 9.79437 16.0762 10.3421 16.067C11.5061 16.0479 12.2385 15.0774 12.951 14.0878C13.7198 13.0258 14.0576 11.9893 14.1089 11.832L14.1149 11.8138C14.1137 11.8126 14.1042 11.8085 14.0874 11.8012C13.8304 11.6896 11.8661 10.8369 11.8472 8.55011C11.8283 6.63072 13.4053 5.65824 13.6535 5.50515C13.6687 5.49584 13.6788 5.48955 13.6834 5.48628C12.68 4.07806 11.1147 3.92582 10.5729 3.88776ZM18.6323 15.9667V1.13281H24.5022C27.5325 1.13281 29.6496 3.11193 29.6496 6.0045C29.6496 8.89706 27.4923 10.8952 24.4219 10.8952H21.0605V15.9667H18.6323ZM21.0582 3.07031H23.8577C25.9648 3.07031 27.1689 4.13599 27.1689 6.01045C27.1689 7.88491 25.9648 8.9601 23.8476 8.9601H21.0582V3.07031ZM37.6671 14.1874C37.0249 15.3482 35.6101 16.0809 34.085 16.0809C31.8273 16.0809 30.252 14.8059 30.252 12.8838C30.252 10.9808 31.7771 9.88661 34.5967 9.72485L37.627 9.55358V8.73529C37.627 7.52689 36.7941 6.87035 35.3091 6.87035C34.085 6.87035 33.1919 7.4698 33.0113 8.38324H30.8239C30.8941 6.46121 32.8006 5.0625 35.3794 5.0625C38.1588 5.0625 39.9649 6.44218 39.9649 8.58305V15.9667H37.7173V14.1874H37.6671ZM34.7339 14.3176C33.4395 14.3176 32.6167 13.7277 32.6167 12.8238C32.6167 11.8913 33.4094 11.349 34.9245 11.2633L37.6236 11.1016V11.9389C37.6236 13.3281 36.3794 14.3176 34.7339 14.3176ZM47.4215 16.545C46.4482 19.1426 45.3345 19.999 42.9664 19.999C42.7858 19.999 42.1838 19.9799 42.0433 19.9419V18.1626C42.1938 18.1816 42.5651 18.2006 42.7557 18.2006C43.8294 18.2006 44.4314 17.7724 44.8027 16.6592L45.0234 16.0027L40.9095 5.20312H43.4481L46.3078 13.9664H46.3579L49.2176 5.20312H51.686L47.4215 16.545Z" fill="white"/>
</svg>
