<svg width="22" height="22" viewBox="0 0 22 22" fill="none" xmlns="http://www.w3.org/2000/svg">
<rect width="22" height="22" rx="11" fill="#1375D6"/>
<path d="M14.8592 12.2344L12.6087 11L14.8592 9.78125C14.9926 9.71875 15.0426 9.5625 14.9592 9.4375L14.4258 8.57812C14.3591 8.45312 14.1924 8.40625 14.059 8.48438L11.8085 9.70312V7.25C11.8085 7.125 11.6752 7 11.5418 7H10.4582C10.3248 7 10.1915 7.125 10.1915 7.25V9.70312L7.94096 8.48438C7.80759 8.42188 7.64089 8.45312 7.57421 8.57812L7.04075 9.4375C6.9574 9.5625 7.00741 9.71875 7.14077 9.78125L9.39129 11L7.14077 12.2344C7.00741 12.2969 6.9574 12.4531 7.04075 12.5781L7.57421 13.4375C7.64089 13.5625 7.80759 13.5938 7.94096 13.5312L10.1915 12.3125V14.75C10.1915 14.8906 10.3248 15 10.4582 15H11.5418C11.6752 15 11.8085 14.8906 11.8085 14.75V12.3125L14.059 13.5312C14.1924 13.5938 14.3591 13.5625 14.4258 13.4375L14.9592 12.5781C15.0426 12.4531 14.9926 12.2969 14.8592 12.2344Z" fill="white"/>
</svg>
