<svg width="24" height="24" viewBox="0 0 24 24" fill="none" xmlns="http://www.w3.org/2000/svg">
<path d="M14.2051 9.32354C17.2378 9.32354 19.7025 11.7261 19.7025 14.6825V20.0413H14.0397C11.1009 20.0413 8.70786 17.7086 8.70786 14.8438V14.6825C8.70786 11.7261 11.1724 9.32354 14.2051 9.32354ZM14.2051 5.56055C9.03885 5.56055 4.84766 9.6419 4.84766 14.6825V14.8438C4.84766 19.7928 8.96282 23.8044 14.0397 23.8044H22.0776C22.8962 23.8044 23.5581 23.159 23.5581 22.361V14.6868C23.5581 9.6462 19.3714 5.56055 14.2051 5.56055Z" fill="#EB731A"/>
<path d="M0.449763 3.94959C0.449763 6.02512 2.17635 7.70385 4.30103 7.70385C6.43017 7.70385 8.15228 6.02075 8.15228 3.94959V3.88418C8.15228 1.84789 6.457 0.195312 4.36811 0.195312H0.445312L0.449763 3.94959Z" fill="#EB731A"/>
<path d="M11.1096 0.195312C10.0853 0.195312 9.25781 1.00197 9.25781 2.0005V2.68072C9.25781 3.67924 10.0853 4.48591 11.1096 4.48591H11.8477C12.8496 4.48591 13.6592 3.69232 13.6592 2.71996V0.195312H11.1096Z" fill="#EB731A"/>
</svg>
