<svg width="14" height="14" viewBox="0 0 14 14" fill="none" xmlns="http://www.w3.org/2000/svg">
<path d="M7 0C3.14005 0 0 3.14005 0 7C0 10.86 3.14005 14 7 14C10.86 14 14 10.86 14 7C14 3.14005 10.86 0 7 0Z" fill="#50AEA6"/>
<path d="M11.1723 5.31345L6.48861 9.99702C6.34809 10.1375 6.16364 10.2083 5.97919 10.2083C5.79474 10.2083 5.61029 10.1375 5.46978 9.99702L3.12799 7.65523C2.84617 7.37354 2.84617 6.91809 3.12799 6.6364C3.40968 6.35458 3.865 6.35458 4.14682 6.6364L5.97919 8.46877L10.1535 4.29462C10.4352 4.0128 10.8905 4.0128 11.1723 4.29462C11.454 4.57631 11.454 5.03163 11.1723 5.31345Z" fill="white"/>
</svg>
