<svg width="28" height="28" viewBox="0 0 28 28" fill="none" xmlns="http://www.w3.org/2000/svg">
<g clip-path="url(#clip0_20_343)">
<path d="M14.0005 20.8701C13.5765 20.8701 13.2314 21.2152 13.2314 21.6392C13.2314 22.0632 13.5765 22.4082 14.0005 22.4082C14.4245 22.4082 14.7695 22.0632 14.7695 21.6392C14.7695 21.2152 14.4245 20.8701 14.0005 20.8701ZM11.3355 14.7178L14.0005 18.7147L16.665 14.7178H11.3355ZM18.6147 14.7178H18.5137L15.2089 19.6745C15.8677 20.0811 16.3076 20.8096 16.3076 21.6392C16.3076 22.9112 15.2725 23.9463 14.0005 23.9463C13.7308 23.9463 13.4719 23.8996 13.2314 23.814V25.6382H11.6934V21.6392C11.6934 20.8096 12.1333 20.0811 12.7921 19.675L9.48723 14.7178H9.38623C5.56973 14.7178 2.46484 17.8227 2.46484 21.6392V22.4082H7.0791V27.125H20.9219V22.4082H25.5361V21.6392C25.5361 17.8227 22.4312 14.7178 18.6147 14.7178ZM14.0005 20.8701C13.5765 20.8701 13.2314 21.2152 13.2314 21.6392C13.2314 22.0632 13.5765 22.4082 14.0005 22.4082C14.4245 22.4082 14.7695 22.0632 14.7695 21.6392C14.7695 21.2152 14.4245 20.8701 14.0005 20.8701Z" fill="#EB731A"/>
<path d="M22.4609 23.9463H25.5371V27.125H22.4609V23.9463Z" fill="#EB731A"/>
<path d="M2.46484 23.9463H5.54102V27.125H2.46484V23.9463Z" fill="#EB731A"/>
<path d="M15.5386 0.875H12.4624C10.6049 0.875 9.05144 2.19827 8.6946 3.95117H19.3064C18.9495 2.19827 17.3961 0.875 15.5386 0.875ZM16.6655 8.56543C15.8441 8.56543 15.0782 8.124 14.667 7.41392C14.5291 7.17551 14.2738 7.02734 14.0005 7.02734C13.7272 7.02734 13.4719 7.17551 13.334 7.41392C12.9228 8.124 12.1568 8.56543 11.3355 8.56543H8.61719V9.33447C8.61719 12.303 11.032 14.7178 14.0005 14.7178C16.969 14.7178 19.3838 12.303 19.3838 9.33447V8.56543H16.6655ZM12.0025 6.64333C12.4147 5.93171 13.1802 5.48926 14.0005 5.48926H8.61719V7.02734H11.3355C11.6098 7.02734 11.8656 6.8802 12.0025 6.64333ZM14.0005 5.48926C14.8208 5.48926 15.5863 5.93171 15.9985 6.64333C16.1354 6.8802 16.3912 7.02734 16.6655 7.02734H19.3838V5.48926H14.0005Z" fill="#EB731A"/>
</g>
<defs>
<clipPath id="clip0_20_343">
<rect width="26.25" height="26.25" fill="white" transform="translate(0.875 0.875)"/>
</clipPath>
</defs>
</svg>
