<svg width="20" height="20" viewBox="0 0 20 20" fill="none" xmlns="http://www.w3.org/2000/svg">
<path d="M17.4139 9.82593C16.6991 10.4365 15.7899 10.772 14.8498 10.7721C14.7805 10.7721 14.7164 10.7721 14.6523 10.7721C15.198 11.5791 15.4892 12.5312 15.4882 13.5054V16.4336H19.6164V13.5054C19.6165 12.7502 19.4116 12.0092 19.0238 11.3612C18.6359 10.7133 18.0795 10.1826 17.4139 9.82593Z" fill="#1375D6"/>
<path d="M13.0762 9.29455C13.0352 9.34583 12.9967 9.39199 12.9531 9.43814C13.502 9.83566 14.1626 10.0493 14.8403 10.0484C15.2734 10.0606 15.7046 9.9858 16.1083 9.82847C16.512 9.67114 16.8801 9.43445 17.1908 9.13241C17.5014 8.83037 17.7484 8.4691 17.917 8.06997C18.0856 7.67083 18.1725 7.24194 18.1725 6.80865C18.1725 6.37536 18.0856 5.94647 17.917 5.54734C17.7484 5.14821 17.5014 4.78694 17.1908 4.4849C16.8801 4.18285 16.512 3.94617 16.1083 3.78884C15.7046 3.63151 15.2734 3.55672 14.8403 3.56891C14.1627 3.56838 13.5022 3.78197 12.9531 4.17917C13.5804 4.87953 13.9374 5.78063 13.96 6.72058C13.9825 7.66053 13.6692 8.57772 13.0762 9.30737V9.29455Z" fill="#1375D6"/>
<path d="M5.15143 10.7696C4.21136 10.7695 3.30216 10.434 2.58733 9.82349C1.92132 10.1804 1.36468 10.7114 0.976783 11.3599C0.588883 12.0083 0.38427 12.7499 0.384767 13.5055V16.4337H4.51297V13.5055C4.51154 12.5305 4.80273 11.5774 5.34887 10.7696C5.28477 10.7696 5.22066 10.7696 5.15143 10.7696Z" fill="#1375D6"/>
<path d="M5.15118 10.0488C5.82889 10.0497 6.48949 9.83608 7.03836 9.43856C6.99477 9.39241 6.95631 9.34625 6.91529 9.29497C6.32573 8.56627 6.01442 7.65172 6.03697 6.71466C6.05951 5.77761 6.41444 4.87909 7.03836 4.17958C6.55464 3.832 5.98442 3.62456 5.39042 3.58009C4.79643 3.53561 4.20168 3.65582 3.67159 3.92749C3.14149 4.19917 2.69659 4.61178 2.38583 5.11994C2.07506 5.6281 1.91047 6.21213 1.91016 6.80779C1.91151 7.66695 2.25341 8.49053 2.86093 9.09804C3.46845 9.70556 4.29203 10.0475 5.15118 10.0488Z" fill="#1375D6"/>
<path d="M12.5632 9.82349C11.8483 10.4339 10.9391 10.7692 9.99909 10.7692C9.05906 10.7692 8.14987 10.4339 7.43499 9.82349C6.77009 10.1811 6.21431 10.7119 5.82655 11.3596C5.43879 12.0074 5.2335 12.748 5.23242 13.503V16.4312H14.7658V13.503C14.7647 12.748 14.5594 12.0074 14.1716 11.3596C13.7839 10.7119 13.2281 10.1811 12.5632 9.82349Z" fill="#1375D6"/>
<path d="M9.99945 10.0489C10.6402 10.0484 11.2665 9.85799 11.7991 9.50167C12.3317 9.14534 12.7467 8.63914 12.9917 8.04702C13.2367 7.45491 13.3006 6.80346 13.1755 6.175C13.0504 5.54654 12.7417 4.96928 12.2886 4.51617C11.8355 4.06306 11.2583 3.75443 10.6298 3.6293C10.0013 3.50416 9.3499 3.56813 8.75778 3.81311C8.16567 4.0581 7.65946 4.47311 7.30314 5.0057C6.94682 5.5383 6.75637 6.16456 6.75586 6.80536C6.75722 7.66519 7.09939 8.48943 7.70738 9.09742C8.31538 9.70542 9.13961 10.0476 9.99945 10.0489Z" fill="#1375D6"/>
</svg>
