<svg width="20" height="20" viewBox="0 0 20 20" fill="none" xmlns="http://www.w3.org/2000/svg">
<g clip-path="url(#clip0_20_276)">
<path d="M12.2289 3.79763C13.2776 3.79763 14.1277 2.9475 14.1277 1.89881C14.1277 0.850128 13.2776 0 12.2289 0C11.1802 0 10.3301 0.850128 10.3301 1.89881C10.3301 2.9475 11.1802 3.79763 12.2289 3.79763Z" fill="#1375D6"/>
<path d="M7.88911 8.29804H7.8827C7.63164 8.295 7.45171 8.22766 7.30234 8.16462C7.15516 8.09964 7.03136 8.02942 6.92224 7.96748L6.8781 7.94225C6.67252 7.82503 6.46028 7.70359 6.22769 7.61228C6.1282 7.57303 6.04085 7.51658 5.966 7.44864C5.92869 7.44687 5.89106 7.44434 5.85384 7.44434C5.21584 7.44737 4.79548 7.68578 4.35065 7.93836C4.27647 7.98039 4.20263 8.02217 4.12828 8.06276L4.06414 8.09491C3.89401 8.18091 3.68193 8.28766 3.34318 8.29771H3.3404H3.33086C3.33019 8.29771 3.32951 8.29762 3.32884 8.29762V10.0446L2.60898 18.8712C2.56214 19.4457 2.98992 19.9491 3.56412 19.9959C4.13841 20.0427 4.64206 19.6153 4.68889 19.0409L5.31584 11.3542H5.90675L6.5337 19.0409C6.58054 19.6154 7.08419 20.0428 7.65847 19.9959C8.23276 19.9491 8.66046 19.4457 8.61362 18.8712L7.89376 10.0446V8.29779C7.89266 8.29779 7.89156 8.29796 7.89038 8.29796L7.88911 8.29804Z" fill="#1375D6"/>
<path d="M5.60975 3.79763C6.65844 3.79763 7.50857 2.9475 7.50857 1.89881C7.50857 0.850128 6.65844 0 5.60975 0C4.56107 0 3.71094 0.850128 3.71094 1.89881C3.71094 2.9475 4.56107 3.79763 5.60975 3.79763Z" fill="#1375D6"/>
<path d="M2.20266 7.27889C2.34604 7.57105 2.57998 7.84626 2.9124 8.01377C3.04835 8.08306 3.20034 8.11319 3.33005 8.11319C3.33233 8.11319 3.33469 8.11319 3.33697 8.1131C3.67023 8.10331 3.85784 7.98947 4.0386 7.9006C4.56124 7.61603 5.05308 7.26311 5.85319 7.25948C5.97978 7.25948 6.1143 7.26885 6.25937 7.29062C6.62808 7.34607 6.97189 7.09196 7.02734 6.72334C7.0827 6.35438 6.82868 6.0109 6.45997 5.95546C6.24916 5.92373 6.04679 5.90921 5.85328 5.90921C5.03164 5.90769 4.38528 6.17513 3.93455 6.41371C3.72011 6.52671 3.54474 6.63312 3.42263 6.69887C3.41951 6.6933 3.41638 6.6873 3.41326 6.68114C3.39284 6.64055 3.37486 6.58873 3.36229 6.5305L3.53267 6.42383C3.62297 6.37219 3.73049 6.31125 3.84813 6.24931C4.51685 5.89546 5.17072 5.72355 5.84653 5.72355C6.06147 5.72355 6.27507 5.73975 6.48791 5.77174C6.70952 5.80507 6.89813 5.92128 7.02886 6.0834C7.24507 6.17884 7.43478 6.28037 7.60821 6.37809C7.63605 6.39396 7.66272 6.40932 7.68863 6.42409L7.85885 6.53059C7.84619 6.58865 7.82813 6.64047 7.80762 6.68106C7.8045 6.68714 7.80155 6.69304 7.79843 6.69853C7.72424 6.65819 7.62736 6.60291 7.51706 6.53987C7.41697 6.4835 7.30372 6.42113 7.17798 6.35835C7.21806 6.48122 7.23173 6.61464 7.21131 6.75077C7.14996 7.15796 6.80108 7.46683 6.39263 7.48236C6.61399 7.57857 6.81509 7.69368 7.01324 7.80684C7.12759 7.87157 7.24135 7.93588 7.37419 7.99445C7.50702 8.05065 7.66399 8.11066 7.88434 8.11327H7.88974C8.02029 8.11336 8.17262 8.08306 8.30857 8.01394C8.6415 7.84575 8.87493 7.57072 9.01848 7.27889C9.16287 6.98445 9.22827 6.6657 9.22895 6.34341C9.2276 5.86904 9.08523 5.37189 8.74201 4.96225C8.42377 4.57591 7.90661 4.30889 7.31545 4.28324C7.29089 4.28045 7.26617 4.27868 7.24085 4.27868H7.23612L7.19772 4.07884L7.22178 4.07867C7.88231 4.07867 8.50892 4.36088 8.89839 4.83339C8.99991 4.95457 9.08228 5.07922 9.14987 5.20403C9.28845 5.2372 9.41655 5.27138 9.53377 5.30539C9.69108 5.35113 9.82872 5.39645 9.94662 5.43864V10.0453L9.22676 18.872C9.17992 19.4464 9.6077 19.9498 10.1819 19.9966C10.7562 20.0434 11.2598 19.616 11.3067 19.0416L11.9336 11.3549H12.5245L13.1515 19.0416C13.1983 19.6161 13.702 20.0435 14.2763 19.9966C14.8505 19.9498 15.2782 19.4464 15.2314 18.872L14.5115 10.0453V5.56878C14.8959 5.51873 15.3675 5.42573 15.8498 5.25037C16.3547 5.06386 16.8813 4.78199 17.303 4.3191C17.7264 3.86001 18.0118 3.20193 18.0066 2.4321C18.0063 1.91816 17.8908 1.35847 17.6512 0.74216C17.5162 0.394803 17.125 0.222644 16.7774 0.357671C16.4298 0.492698 16.2577 0.883938 16.3927 1.23146C16.5855 1.72718 16.6565 2.12365 16.6562 2.43202C16.6509 2.89432 16.5175 3.16724 16.3028 3.41198C15.983 3.77511 15.3843 4.02576 14.8192 4.14602C14.258 4.27041 13.7544 4.27868 13.6693 4.27817C13.6568 4.27817 13.6534 4.278 13.6534 4.278C13.6469 4.27792 13.6406 4.27868 13.634 4.27876H10.6932C10.0714 4.02517 8.76133 3.60574 6.8675 3.58219C6.51677 3.84482 6.08147 4.00052 5.61048 4.00052C5.24254 4.00052 4.89645 3.90516 4.59534 3.73832C4.38225 3.76946 4.16528 3.80474 3.94307 3.84659C3.66855 3.89824 3.46432 4.10922 3.40811 4.36594C3.02869 4.47675 2.7042 4.6895 2.47947 4.96225C2.13608 5.37189 1.99354 5.86938 1.99219 6.34349C1.99286 6.6592 2.05624 6.97187 2.19473 7.26142C2.1976 7.26724 2.19988 7.27315 2.20266 7.27889Z" fill="#1375D6"/>
</g>
<defs>
<clipPath id="clip0_20_276">
<rect width="20" height="20" fill="white"/>
</clipPath>
</defs>
</svg>
