<svg width="27" height="28" viewBox="0 0 27 28" fill="none" xmlns="http://www.w3.org/2000/svg">
<g clip-path="url(#clip0_20_368)">
<path d="M20.6698 15.5527C17.9808 15.5527 15.793 17.7405 15.793 20.4296C16.0382 26.8905 25.3025 26.8887 25.5467 20.4296C25.5467 17.7405 23.3589 15.5527 20.6698 15.5527ZM23.4168 19.4751L20.4188 22.4731C20.1181 22.7739 19.6304 22.7739 19.3297 22.4731L17.9228 21.0662C17.622 20.7655 17.622 20.2778 17.9228 19.9771C18.2236 19.6763 18.7112 19.6763 19.0119 19.9771L19.8743 20.8395L22.3277 18.3861C22.6285 18.0853 23.1162 18.0853 23.4168 18.3861C23.7176 18.6868 23.7176 19.1744 23.4168 19.4751Z" fill="#EB731A"/>
<path d="M14.2545 20.3312C14.2903 15.0753 20.5804 12.1077 24.6347 15.3865C25.6244 13.4856 26.3124 11.2848 26.3124 9.00108C26.2969 2.38735 17.7558 -0.24689 13.9838 5.06038C13.5877 5.61427 12.7691 5.61427 12.373 5.06028C11.1407 3.33664 9.12169 2.21292 6.83975 2.21292C2.90028 2.20241 0.0635761 5.56103 0.0635761 9.51388H0.0625C0.0625 18.1016 10.3799 24.3554 12.7164 25.6616C13.0103 25.8259 13.3673 25.8295 13.6639 25.6702C14.1096 25.4307 14.8318 25.0215 15.6909 24.4717C14.7737 23.3439 14.2309 21.9001 14.2545 20.3312Z" fill="#EB731A"/>
</g>
<defs>
<clipPath id="clip0_20_368">
<rect width="26.25" height="26.25" fill="white" transform="translate(0.0625 0.875)"/>
</clipPath>
</defs>
</svg>
