<svg width="22" height="22" viewBox="0 0 22 22" fill="none" xmlns="http://www.w3.org/2000/svg">
<rect width="22" height="22" rx="11" fill="#1375D6"/>
<path d="M11.8598 5.76074L11.7236 13.1554H10.2727L10.1365 5.76074H11.8598ZM11.0008 16.2369C10.711 16.2369 10.463 16.1389 10.257 15.943C10.051 15.7436 9.94972 15.5037 9.95321 15.2233C9.94972 14.9462 10.051 14.7097 10.257 14.5137C10.463 14.3144 10.711 14.2147 11.0008 14.2147C11.2836 14.2147 11.5281 14.3144 11.7341 14.5137C11.9401 14.7097 12.0449 14.9462 12.0484 15.2233C12.0449 15.4091 11.9942 15.5797 11.8965 15.7352C11.8022 15.8872 11.6765 16.0089 11.5193 16.1001C11.3622 16.1913 11.1894 16.2369 11.0008 16.2369Z" fill="#F6F6F6"/>
</svg>
