<svg width="19" height="18" viewBox="0 0 19 18" fill="none" xmlns="http://www.w3.org/2000/svg">
<path d="M9.46371 0C7.06855 0.0362903 4.89113 0.979839 3.25806 2.50403L1.95161 1.19758C1.40726 0.653226 0.5 1.05242 0.5 1.81452V6.67742C0.5 7.18548 0.862903 7.54839 1.37097 7.54839H6.23387C6.99597 7.54839 7.39516 6.64113 6.85081 6.09677L5.32661 4.57258C6.45161 3.52016 7.90323 2.93952 9.42742 2.93952C12.7661 2.90323 15.5968 5.58871 15.5605 9.07258C15.5605 12.375 12.875 15.0968 9.5 15.0968C7.97581 15.0968 6.59677 14.5887 5.47177 13.6089C5.29032 13.4637 5.03629 13.4637 4.89113 13.6089L3.43952 15.0605C3.25806 15.2419 3.25806 15.5323 3.43952 15.7137C5.03629 17.129 7.17742 18 9.5 18C14.4355 18 18.4637 13.9718 18.5 9.03629C18.5 4.06452 14.4355 0 9.46371 0Z" fill="#EB731A"/>
</svg>
