<svg width="17" height="16" viewBox="0 0 17 16" fill="none" xmlns="http://www.w3.org/2000/svg">
<path d="M12.6475 7.33301H4.3512C3.69664 7.33301 3.16602 7.92996 3.16602 8.66634V13.333C3.16602 14.0694 3.69664 14.6663 4.3512 14.6663H12.6475C13.3021 14.6663 13.8327 14.0694 13.8327 13.333V8.66634C13.8327 7.92996 13.3021 7.33301 12.6475 7.33301Z" fill="white" stroke="white" stroke-width="0.833333" stroke-linecap="round" stroke-linejoin="round"/>
<path d="M5.16589 7.33301V4.66634C5.16589 3.78229 5.51708 2.93444 6.1422 2.30932C6.76733 1.6842 7.61517 1.33301 8.49923 1.33301C9.38328 1.33301 10.2311 1.6842 10.8563 2.30932C11.4814 2.93444 11.8326 3.78229 11.8326 4.66634V7.33301" stroke="white" stroke-width="0.833333" stroke-linecap="round" stroke-linejoin="round"/>
</svg>
