<svg width="27" height="28" viewBox="0 0 27 28" fill="none" xmlns="http://www.w3.org/2000/svg">
<g clip-path="url(#clip0_20_357)">
<path d="M19.204 4.04817C20.1623 4.07755 21.1486 4.40152 22.2936 5.06264C23.0539 5.50156 24.0646 6.17642 24.7176 7.23088L25.809 6.82201C26.8143 6.44538 27.2408 5.25619 26.7041 4.32652C26.3343 3.68606 25.6301 3.38982 24.9563 3.48447C24.9642 2.88118 24.6594 2.2845 24.0881 1.95463C23.5167 1.62477 22.8476 1.65917 22.3291 1.96766C22.0742 1.33678 21.4655 0.875 20.726 0.875C19.6524 0.875 18.8359 1.83897 19.0123 2.89789L19.204 4.04817Z" fill="#EB731A"/>
<path d="M0.6875 14.8203V18.1528C0.6875 21.1433 2.92547 23.6207 5.81445 23.9987V26.356C5.81445 26.7807 6.15878 27.125 6.5835 27.125H21.0415C21.4662 27.125 21.8105 26.7807 21.8105 26.356V23.9987C24.6995 23.6207 26.9375 21.1433 26.9375 18.1528V14.8203H0.6875Z" fill="#EB731A"/>
<path d="M26.6799 9.45678C26.4408 9.24422 26.0952 9.20187 25.8119 9.35035L25.3637 9.58522C25.3452 10.5738 25.0099 11.6379 24.3583 12.7664C24.2621 12.9331 24.1568 13.1052 24.043 13.2821H25.7485L26.8871 10.3064C27.0014 10.0076 26.9189 9.66935 26.6799 9.45678Z" fill="#EB731A"/>
<path d="M5.39509 8.94118C6.54574 7.906 8.02312 7.54947 9.08594 7.43499C9.16838 7.42612 9.2521 7.42161 9.3348 7.42161C9.98756 7.42161 10.6127 7.70077 11.0498 8.18752C11.4865 8.67381 11.6968 9.32565 11.6268 9.97591C11.5247 10.9236 11.2302 12.2008 10.4337 13.2822H12.3855C12.3855 13.1665 12.3986 13.0501 12.4252 12.9352C12.9161 10.8152 13.7457 8.58958 14.5902 7.12686C15.055 6.32193 15.5701 5.67388 16.1326 5.18308C15.5446 4.42598 14.6904 3.91098 13.7395 3.74917C13.5561 3.0435 13.1741 2.40155 12.6297 1.89762C11.9174 1.23819 10.9902 0.875 10.019 0.875C9.04784 0.875 8.12069 1.23819 7.40835 1.89767C6.86417 2.40145 6.48216 3.04334 6.29862 3.74881C4.48398 4.05617 3.09766 5.63927 3.09766 7.54004C3.09766 7.59582 3.09925 7.65191 3.10176 7.70815C3.87598 7.93394 4.69583 8.31211 5.39509 8.94118Z" fill="#EB731A"/>
<path d="M1.9356 12.7678C2.13683 12.9691 2.35857 13.1388 2.59087 13.2822H8.19833C8.43063 13.1389 8.65237 12.9691 8.8536 12.7678C9.72288 11.8986 10.0071 10.6467 10.0971 9.81117C10.1497 9.32319 9.73826 8.9117 9.25022 8.96425C8.41473 9.05423 7.16283 9.33852 6.29356 10.2077C5.87012 10.6312 5.58563 11.1454 5.39465 11.6581C5.20367 11.1454 4.91918 10.6312 4.49574 10.2077C3.62647 9.33847 2.37457 9.05423 1.53908 8.96425C1.0511 8.9117 0.639607 9.32314 0.692159 9.81117C0.782085 10.6467 1.06632 11.8986 1.9356 12.7678Z" fill="#EB731A"/>
<path d="M15.5615 8.57551L17.314 9.58731C17.6818 9.79967 17.8079 10.27 17.5954 10.6378C17.453 10.8845 17.1945 11.0224 16.9287 11.0224C16.7983 11.0224 16.666 10.9892 16.5449 10.9193L14.9417 9.99367C14.5433 11.0136 14.1839 12.159 13.9238 13.2822H22.1726C22.5072 12.8296 22.7973 12.3946 23.0266 11.9974C23.0703 11.9218 23.1115 11.8473 23.1514 11.7734L21.3788 10.75C21.0109 10.5376 20.8849 10.0673 21.0973 9.69949C21.3097 9.33163 21.78 9.20556 22.1478 9.41802L23.7265 10.3295C24.1761 8.43406 23.0773 7.29059 21.5253 6.39455C19.5635 5.26196 17.6214 4.95321 15.9225 7.89583C15.8023 8.10393 15.6816 8.33177 15.5615 8.57551Z" fill="#EB731A"/>
</g>
<defs>
<clipPath id="clip0_20_357">
<rect width="26.25" height="26.25" fill="white" transform="translate(0.6875 0.875)"/>
</clipPath>
</defs>
</svg>
