<svg width="28" height="28" viewBox="0 0 28 28" fill="none" xmlns="http://www.w3.org/2000/svg">
<path d="M17.7365 15.3296C17.0546 15.3282 16.5007 15.8799 16.4993 16.5618L16.4904 20.9395C16.4892 21.5208 16.9595 21.993 17.5409 21.9942C18.0883 21.9953 18.5453 21.5766 18.5918 21.0311L18.9643 16.6694C19.0258 15.9496 18.459 15.331 17.7365 15.3296Z" fill="#EB731A"/>
<path d="M20.1074 7.13221L18.3132 7.12857C18.3063 10.521 15.5408 13.2753 12.1484 13.2684C8.75596 13.2614 6.00166 10.4959 6.00858 7.1035L4.21435 7.09986C3.28509 7.09796 2.39044 7.48833 1.75982 8.17088C1.12921 8.85343 0.81072 9.77613 0.885984 10.7024L1.96967 24.0347C2.0376 24.8702 2.41407 25.6436 3.02977 26.2124C3.64546 26.7813 4.44619 27.0955 5.28445 27.0972L18.9559 27.125C19.7942 27.1267 20.5962 26.8158 21.2141 26.2494C21.8322 25.6831 22.2118 24.9113 22.2831 24.0761L23.4211 10.7483C23.5002 9.82243 23.1855 8.8984 22.5576 8.21328C21.9298 7.52811 21.0368 7.13411 20.1074 7.13221ZM9.31295 20.9268C9.31003 22.3576 8.14775 23.5152 6.71697 23.5123C5.36956 23.5095 4.24921 22.4744 4.14006 21.1315L3.78538 16.7682C3.65398 15.1513 4.93253 13.7674 6.55475 13.7707C8.08612 13.7738 9.32505 15.0178 9.32192 16.5491L9.31295 20.9268ZM12.897 23.2675C12.8962 23.6922 12.5512 24.0358 12.1264 24.0349C11.7017 24.034 11.3581 23.689 11.359 23.2643L11.3746 15.5738C11.3755 15.1491 11.7205 14.8055 12.1452 14.8064C12.57 14.8073 12.9136 15.1523 12.9127 15.577L12.897 23.2675ZM20.4971 16.8001L20.1246 21.1619C20.01 22.5045 18.8854 23.535 17.538 23.5322C16.1072 23.5293 14.9496 22.367 14.9525 20.9362L14.9615 16.5585C14.9646 15.0272 16.2086 13.7882 17.7399 13.7914C19.3622 13.7947 20.6351 15.1838 20.4971 16.8001Z" fill="#EB731A"/>
<path d="M6.54995 15.3088C5.82756 15.3074 5.25822 15.9236 5.31677 16.6436L5.67145 21.0069C5.7158 21.5525 6.17102 21.9731 6.71853 21.9742C7.29987 21.9754 7.77217 21.5051 7.77329 20.9237L7.78222 16.5461C7.7836 15.8642 7.23189 15.3102 6.54995 15.3088Z" fill="#EB731A"/>
<path d="M26.9 3.66899C26.6003 3.36803 26.1134 3.36706 25.8124 3.66678L25.073 4.40322L25.0785 1.64558C25.0795 1.22087 24.7359 0.875873 24.3111 0.875002C23.8864 0.87413 23.5414 1.21774 23.5405 1.64246L23.5349 4.40009L22.7984 3.66063C22.4987 3.35968 22.0118 3.3587 21.7109 3.65842C21.4099 3.95815 21.4089 4.44505 21.7086 4.74601L23.7552 6.80094C24.0549 7.10189 24.5419 7.10287 24.8428 6.80314L26.8977 4.75657C27.1987 4.45685 27.1997 3.96994 26.9 3.66899Z" fill="#EB731A"/>
<path d="M12.1518 11.7302C14.7002 11.7354 16.7703 9.67371 16.7755 7.12536C16.7807 4.57696 14.719 2.5069 12.1706 2.50172C9.62224 2.49654 7.55219 4.55819 7.54701 7.10654C7.54178 9.6549 9.60343 11.725 12.1518 11.7302ZM10.5332 5.48125C10.8342 5.18153 11.3211 5.1825 11.6208 5.48345L12.7062 6.57324C13.0059 6.87419 13.0049 7.3611 12.704 7.66082C12.403 7.96054 11.9161 7.95957 11.6164 7.65861L10.531 6.56883C10.2313 6.26788 10.2322 5.78097 10.5332 5.48125Z" fill="#EB731A"/>
</svg>
