<svg width="20" height="20" viewBox="0 0 20 20" fill="none" xmlns="http://www.w3.org/2000/svg">
<path d="M15.027 2.90805L15.2241 3.26852C15.2989 3.40521 15.4113 3.51761 15.548 3.59243L15.9084 3.78946C15.925 3.79854 15.9388 3.8119 15.9484 3.82814C15.958 3.84439 15.9631 3.86292 15.9631 3.8818C15.9631 3.90068 15.958 3.91922 15.9484 3.93546C15.9388 3.95171 15.925 3.96507 15.9084 3.97415L15.548 4.17212C15.4112 4.24683 15.2988 4.35919 15.2241 4.49587L15.027 4.85634C15.0179 4.87289 15.0046 4.8867 14.9883 4.89632C14.9721 4.90594 14.9536 4.91102 14.9347 4.91102C14.9158 4.91102 14.8973 4.90594 14.881 4.89632C14.8648 4.8867 14.8514 4.87289 14.8423 4.85634L14.6453 4.49587C14.5705 4.35919 14.4581 4.24683 14.3214 4.17212L13.9609 3.97493C13.9444 3.96585 13.9306 3.95249 13.9209 3.93625C13.9113 3.92 13.9063 3.90147 13.9062 3.88259C13.9063 3.8637 13.9113 3.84517 13.9209 3.82893C13.9306 3.81268 13.9444 3.79932 13.9609 3.79024L14.3214 3.59321C14.4581 3.51839 14.5705 3.40599 14.6453 3.2693L14.8423 2.90884C14.8513 2.89224 14.8646 2.87837 14.8809 2.86868C14.8971 2.85899 14.9156 2.85384 14.9345 2.85376C14.9533 2.85368 14.9719 2.85868 14.9882 2.86823C15.0045 2.87778 15.0179 2.89154 15.027 2.90805Z" fill="#1375D6"/>
<path d="M2.52792 8.34919L2.68823 8.642C2.74915 8.75319 2.84068 8.84457 2.95198 8.90528L3.24495 9.06544C3.25841 9.0728 3.26965 9.08365 3.27748 9.09684C3.2853 9.11004 3.28943 9.1251 3.28943 9.14044C3.28943 9.15578 3.2853 9.17084 3.27748 9.18404C3.26965 9.19724 3.25841 9.20808 3.24495 9.21544L2.95198 9.37528C2.84092 9.4361 2.7496 9.52746 2.68886 9.63857L2.52854 9.93138C2.52119 9.94484 2.51034 9.95608 2.49714 9.9639C2.48395 9.97173 2.46889 9.97586 2.45354 9.97586C2.4382 9.97586 2.42314 9.97173 2.40995 9.9639C2.39675 9.95608 2.3859 9.94484 2.37854 9.93138L2.21761 9.63888C2.15695 9.52768 2.06569 9.4362 1.95464 9.37528L1.66167 9.21513C1.64821 9.20777 1.63697 9.19692 1.62914 9.18373C1.62132 9.17053 1.61719 9.15547 1.61719 9.14013C1.61719 9.12479 1.62132 9.10973 1.62914 9.09653C1.63697 9.08333 1.64821 9.07249 1.66167 9.06513L1.95464 8.90497C2.0656 8.84422 2.15686 8.75297 2.21761 8.642L2.37776 8.34919C2.38511 8.33569 2.39596 8.32442 2.40917 8.31656C2.42238 8.30871 2.43747 8.30457 2.45284 8.30457C2.46821 8.30457 2.4833 8.30871 2.49651 8.31656C2.50972 8.32442 2.52057 8.33569 2.52792 8.34919Z" fill="#1375D6"/>
<path d="M15.582 12.2862C15.4843 11.7608 15.3226 11.2494 15.1006 10.7633C14.7422 10.0392 14.3299 9.34304 13.8671 8.68076C13.6543 8.37935 13.4406 8.09092 13.2382 7.82217C12.6757 7.07373 12.1992 6.45967 12.0632 6.04248C11.5971 4.6192 12.2462 3.0517 12.737 0.822637C12.7474 0.776874 12.7473 0.729358 12.7369 0.683615C12.7264 0.637872 12.7057 0.595078 12.6764 0.558408C12.6472 0.521738 12.61 0.492135 12.5677 0.471795C12.5254 0.451456 12.4791 0.440902 12.4321 0.440918H4.81761C4.77378 0.441012 4.73045 0.450298 4.69043 0.468177C4.65041 0.486057 4.61459 0.512131 4.58527 0.544717C4.55595 0.577303 4.5338 0.615675 4.52023 0.657356C4.50667 0.699038 4.502 0.7431 4.50652 0.786699C4.7023 2.76342 5.37667 4.98373 5.1273 6.56279C4.94579 7.61556 4.69164 8.6545 4.36667 9.67217C4.2023 10.1433 3.83542 11.4779 3.79761 11.6372C3.27027 13.8478 2.69574 17.9154 2.50074 19.3872C2.49492 19.431 2.49856 19.4757 2.5114 19.518C2.52423 19.5604 2.54598 19.5995 2.57517 19.6327C2.60437 19.666 2.64034 19.6926 2.68067 19.7109C2.721 19.7291 2.76476 19.7385 2.80902 19.7384H7.7023C7.75982 19.7382 7.81617 19.7221 7.86513 19.6919C7.91409 19.6617 7.95377 19.6186 7.9798 19.5673C8.13714 19.2604 8.37699 18.8379 8.65042 18.2103C8.79871 17.8723 8.95683 17.4737 9.11668 17.004C9.12136 16.9903 9.14183 16.9915 9.14168 17.0061C9.13808 17.4014 9.1273 19.1586 9.14652 19.4498C9.15199 19.5284 9.18713 19.6019 9.24482 19.6555C9.3025 19.7091 9.37841 19.7387 9.45714 19.7384H14.5821C14.6565 19.7383 14.7283 19.7117 14.7847 19.6632C14.8411 19.6147 14.8783 19.5477 14.8895 19.4742C15.5554 15.1389 15.9006 14.1797 15.582 12.2862ZM7.49918 6.84139C7.49918 6.77923 7.52387 6.71961 7.56782 6.67566C7.61178 6.6317 7.67139 6.60701 7.73355 6.60701C7.79571 6.60701 7.85532 6.6317 7.89928 6.67566C7.94323 6.71961 7.96793 6.77923 7.96793 6.84139V7.12139C7.96793 7.18355 7.94323 7.24316 7.89928 7.28711C7.85532 7.33107 7.79571 7.35576 7.73355 7.35576C7.67139 7.35576 7.61178 7.33107 7.56782 7.28711C7.52387 7.24316 7.49918 7.18355 7.49918 7.12139V6.84139ZM9.23668 15.2687C9.22995 15.2865 9.21844 15.3021 9.2034 15.3137C9.18837 15.3254 9.17042 15.3326 9.15152 15.3347C7.86574 15.5159 5.29308 12.7161 4.30246 11.5817C4.38261 11.2578 4.50011 10.8147 4.62871 10.3878C5.46464 10.8262 6.56761 11.1908 7.5398 11.1894C9.61793 11.1879 11.6023 9.73061 13.7109 9.25998C13.9874 9.65489 14.2348 10.0694 14.451 10.5003C12.7937 11.0217 9.69402 13.7642 9.23636 15.2687H9.23668Z" fill="#1375D6"/>
</svg>
