<svg width="78" height="14" viewBox="0 0 78 14" fill="none" xmlns="http://www.w3.org/2000/svg">
<path d="M6.52447 1.46352C6.67415 1.00287 7.32585 1.00287 7.47553 1.46353L8.45934 4.49139C8.52628 4.6974 8.71826 4.83688 8.93487 4.83688H12.1186C12.6029 4.83688 12.8043 5.45669 12.4124 5.74139L9.83679 7.61271C9.66155 7.74003 9.58822 7.96572 9.65516 8.17173L10.639 11.1996C10.7886 11.6602 10.2614 12.0433 9.86955 11.7586L7.29389 9.88729C7.11865 9.75997 6.88135 9.75997 6.70611 9.88729L4.13045 11.7586C3.73859 12.0433 3.21136 11.6602 3.36103 11.1996L4.34484 8.17173C4.41178 7.96572 4.33845 7.74003 4.16321 7.61271L1.58755 5.74139C1.1957 5.45669 1.39708 4.83688 1.88145 4.83688H5.06513C5.28174 4.83688 5.47372 4.6974 5.54066 4.49139L6.52447 1.46352Z" fill="#FFC43A"/>
<path d="M22.5245 1.46352C22.6741 1.00287 23.3259 1.00287 23.4755 1.46353L24.4593 4.49139C24.5263 4.6974 24.7183 4.83688 24.9349 4.83688H28.1186C28.6029 4.83688 28.8043 5.45669 28.4124 5.74139L25.8368 7.61271C25.6615 7.74003 25.5882 7.96572 25.6552 8.17173L26.639 11.1996C26.7886 11.6602 26.2614 12.0433 25.8695 11.7586L23.2939 9.88729C23.1186 9.75997 22.8814 9.75997 22.7061 9.88729L20.1305 11.7586C19.7386 12.0433 19.2114 11.6602 19.361 11.1996L20.3448 8.17173C20.4118 7.96572 20.3385 7.74003 20.1632 7.61271L17.5876 5.74139C17.1957 5.45669 17.3971 4.83688 17.8814 4.83688H21.0651C21.2817 4.83688 21.4737 4.6974 21.5407 4.49139L22.5245 1.46352Z" fill="#FFC43A"/>
<path d="M38.5245 1.46352C38.6741 1.00287 39.3259 1.00287 39.4755 1.46353L40.4593 4.49139C40.5263 4.6974 40.7183 4.83688 40.9349 4.83688H44.1186C44.6029 4.83688 44.8043 5.45669 44.4124 5.74139L41.8368 7.61271C41.6615 7.74003 41.5882 7.96572 41.6552 8.17173L42.639 11.1996C42.7886 11.6602 42.2614 12.0433 41.8695 11.7586L39.2939 9.88729C39.1186 9.75997 38.8814 9.75997 38.7061 9.88729L36.1305 11.7586C35.7386 12.0433 35.2114 11.6602 35.361 11.1996L36.3448 8.17173C36.4118 7.96572 36.3385 7.74003 36.1632 7.61271L33.5876 5.74139C33.1957 5.45669 33.3971 4.83688 33.8814 4.83688H37.0651C37.2817 4.83688 37.4737 4.6974 37.5407 4.49139L38.5245 1.46352Z" fill="#FFC43A"/>
<path d="M54.5245 1.46352C54.6741 1.00287 55.3259 1.00287 55.4755 1.46353L56.4593 4.49139C56.5263 4.6974 56.7183 4.83688 56.9349 4.83688H60.1186C60.6029 4.83688 60.8043 5.45669 60.4124 5.74139L57.8368 7.61271C57.6615 7.74003 57.5882 7.96572 57.6552 8.17173L58.639 11.1996C58.7886 11.6602 58.2614 12.0433 57.8695 11.7586L55.2939 9.88729C55.1186 9.75997 54.8814 9.75997 54.7061 9.88729L52.1305 11.7586C51.7386 12.0433 51.2114 11.6602 51.361 11.1996L52.3448 8.17173C52.4118 7.96572 52.3385 7.74003 52.1632 7.61271L49.5876 5.74139C49.1957 5.45669 49.3971 4.83688 49.8814 4.83688H53.0651C53.2817 4.83688 53.4737 4.6974 53.5407 4.49139L54.5245 1.46352Z" fill="#FFC43A"/>
<path d="M70.5245 1.46352C70.6741 1.00287 71.3259 1.00287 71.4755 1.46353L72.4593 4.49139C72.5263 4.6974 72.7183 4.83688 72.9349 4.83688H76.1186C76.6029 4.83688 76.8043 5.45669 76.4124 5.74139L73.8368 7.61271C73.6615 7.74003 73.5882 7.96572 73.6552 8.17173L74.639 11.1996C74.7886 11.6602 74.2614 12.0433 73.8695 11.7586L71.2939 9.88729C71.1186 9.75997 70.8814 9.75997 70.7061 9.88729L68.1305 11.7586C67.7386 12.0433 67.2114 11.6602 67.361 11.1996L68.3448 8.17173C68.4118 7.96572 68.3385 7.74003 68.1632 7.61271L65.5876 5.74139C65.1957 5.45669 65.3971 4.83688 65.8814 4.83688H69.0651C69.2817 4.83688 69.4737 4.6974 69.5407 4.49139L70.5245 1.46352Z" fill="#FFC43A"/>
</svg>
