<svg width="108" height="20" viewBox="0 0 108 20" fill="none" xmlns="http://www.w3.org/2000/svg">
<rect width="20" height="20" fill="#00B67A"/>
<path d="M17 8.34993H11.6514L10.0049 3L8.34864 8.34993L3 8.33968L7.32568 11.6501L5.66945 17L9.99513 13.6896L14.3208 17L12.6743 11.6501L17 8.34993Z" fill="white"/>
<path d="M13.5 12.6454V11.0502L10 13.5002L13.5 12.6454Z" fill="#00B67A"/>
<rect x="22" width="20" height="20" fill="#00B67A"/>
<path d="M39 8.34993H33.6514L32.0049 3L30.3486 8.34993L25 8.33968L29.3257 11.6501L27.6695 17L31.9951 13.6896L36.3208 17L34.6743 11.6501L39 8.34993Z" fill="white"/>
<path d="M35.5 12.6454V11.0502L32 13.5002L35.5 12.6454Z" fill="#00B67A"/>
<rect x="44" width="20" height="20" fill="#00B67A"/>
<path d="M61 8.34993H55.6514L54.0049 3L52.3486 8.34993L47 8.33968L51.3257 11.6501L49.6695 17L53.9951 13.6896L58.3208 17L56.6743 11.6501L61 8.34993Z" fill="white"/>
<path d="M57.5 12.6454V11.0502L54 13.5002L57.5 12.6454Z" fill="#00B67A"/>
<rect x="66" width="20" height="20" fill="#00B67A"/>
<path d="M83 8.34993H77.6514L76.0049 3L74.3486 8.34993L69 8.33968L73.3257 11.6501L71.6695 17L75.9951 13.6896L80.3208 17L78.6743 11.6501L83 8.34993Z" fill="white"/>
<path d="M79.5 12.6454V11.0502L76 13.5002L79.5 12.6454Z" fill="#00B67A"/>
<rect x="88" width="20" height="20" fill="#00B67A"/>
<path d="M105 8.34993H99.6514L98.0049 3L96.3486 8.34993L91 8.33968L95.3257 11.6501L93.6695 17L97.9951 13.6896L102.321 17L100.674 11.6501L105 8.34993Z" fill="white"/>
<path d="M101.5 12.6454V11.0502L98 13.5002L101.5 12.6454Z" fill="#00B67A"/>
</svg>
