<svg width="24" height="24" viewBox="0 0 24 24" fill="none" xmlns="http://www.w3.org/2000/svg">
<g clip-path="url(#clip0_626_16734)">
<path d="M23.6762 7.03577L12.7583 0.0875504C12.6004 -0.0123509 12.4006 -0.0163788 12.2377 0.0775275L0.247648 7.07169C0.0528103 7.1856 -0.0421264 7.41641 0.0178237 7.63419C0.0758067 7.85203 0.274673 8.00289 0.499439 8.00289H23.4803C23.4883 8.00387 23.4963 8.00289 23.5003 8.00289C23.7761 8.00289 23.9999 7.77906 23.9999 7.50329C23.9999 7.28957 23.865 7.10668 23.6762 7.03577Z" fill="#229F55"/>
<path d="M23.4804 19.9941H0.4996C0.223829 19.9941 0 20.218 0 20.4937V23.4912C0 23.767 0.223829 23.9908 0.4996 23.9908H23.4805C23.7563 23.9908 23.9801 23.767 23.9801 23.4912V20.4937C23.98 20.218 23.7572 19.9941 23.4804 19.9941Z" fill="#229F55"/>
<path d="M7.49351 17.9945H6.99391V10.0012H7.49351C7.76928 10.0012 7.99311 9.77732 7.99311 9.50155C7.99311 9.22578 7.77031 9.00195 7.49351 9.00195H6.49435H3.49685H2.49765C2.22188 9.00195 1.99805 9.22578 1.99805 9.50155C1.99805 9.77732 2.22188 10.0012 2.49765 10.0012H2.99725V17.9945H2.49765C2.22188 17.9945 1.99805 18.2183 1.99805 18.4941C1.99805 18.7699 2.22188 18.9937 2.49765 18.9937H3.4968H6.49431H7.49351C7.76928 18.9937 7.99311 18.7699 7.99311 18.4941C7.99311 18.2183 7.77026 17.9945 7.49351 17.9945Z" fill="#229F55"/>
<path d="M14.4876 17.9945H13.988V10.0012H14.4876C14.7634 10.0012 14.9872 9.77732 14.9872 9.50155C14.9872 9.22578 14.7644 9.00195 14.4876 9.00195H13.4884H10.4909H9.49179C9.21602 9.00195 8.99219 9.22578 8.99219 9.50155C8.99219 9.77732 9.21602 10.0012 9.49179 10.0012H9.99139V17.9945H9.49179C9.21602 17.9945 8.99219 18.2183 8.99219 18.4941C8.99219 18.7699 9.21602 18.9937 9.49179 18.9937H10.4909H13.4884H14.4876C14.7634 18.9937 14.9872 18.7699 14.9872 18.4941C14.9872 18.2183 14.7634 17.9945 14.4876 17.9945Z" fill="#229F55"/>
<path d="M21.4818 17.9945H20.9822V10.0012H21.4818C21.7576 10.0012 21.9814 9.77732 21.9814 9.50155C21.9814 9.22578 21.7586 9.00195 21.4818 9.00195H20.4826H17.4851H16.4859C16.2102 9.00195 15.9863 9.22578 15.9863 9.50155C15.9863 9.77732 16.2102 10.0012 16.4859 10.0012H16.9855V17.9945H16.4859C16.2102 17.9945 15.9863 18.2183 15.9863 18.4941C15.9863 18.7699 16.2102 18.9937 16.4859 18.9937H17.4851H20.4826H21.4817C21.7575 18.9937 21.9813 18.7699 21.9813 18.4941C21.9813 18.2183 21.7576 17.9945 21.4818 17.9945Z" fill="#229F55"/>
</g>
<defs>
<clipPath id="clip0_626_16734">
<rect width="24" height="24" fill="white"/>
</clipPath>
</defs>
</svg>
