<svg width="24" height="24" viewBox="0 0 24 24" fill="none" xmlns="http://www.w3.org/2000/svg">
<g clip-path="url(#clip0_626_16707)">
<path d="M10.5 10H9.50002C9.22402 10 9 10.224 9 10.5C9 10.776 9.22402 11 9.50002 11H10.5C10.776 11 11 10.776 11 10.5C11 10.224 10.776 10 10.5 10Z" fill="#229F55"/>
<path d="M14.5 10H13.5C13.224 10 13 10.224 13 10.5C13 10.776 13.224 11 13.5 11H14.5C14.776 11 15 10.776 15 10.5C15 10.224 14.776 10 14.5 10Z" fill="#229F55"/>
<path d="M17.972 8.14603C17.987 7.56403 18 6.59302 18 6.50002C18 6.22402 17.776 6 17.5 6C17.224 6 17 6.22402 17 6.50002C17 6.73003 16.974 8.298 16.959 8.45602C16.944 8.60602 16.997 8.75503 17.102 8.86102C17.208 8.96803 17.359 9.01702 17.506 9.006C17.511 9.00502 17.516 9.00502 17.521 9.00398C17.663 9.05803 18 9.58303 18 10.5C18 11.466 17.644 12.009 17.471 11.9781C17.334 11.8931 17.166 11.8791 17.019 11.9391C16.871 12 16.761 12.1271 16.722 12.282C16.021 15.1041 14.124 17.0001 12 17.0001C9.87603 17.0001 7.97905 15.1041 7.27902 12.282C7.23903 12.126 7.11402 12.01 6.96702 11.95C6.81603 11.889 6.635 11.917 6.5 12C6.37602 12 6.00003 11.4681 6.00003 10.5C6.00003 9.58303 6.33702 9.05803 6.47802 9.00403C6.48303 9.00502 6.488 9.00605 6.49302 9.00605C6.641 9.01805 6.788 8.96606 6.89502 8.86106C7.00002 8.75705 7.05402 8.60705 7.04 8.45906C7.02598 8.29805 7.00002 6.73008 7.00002 6.50006C7.00002 6.22406 6.776 6.00005 6.5 6.00005C6.224 6.00005 6.00003 6.22406 6.00003 6.50006C6.00003 6.59105 6.01302 7.53206 6.02802 8.11706C5.41803 8.43206 5 9.35208 5 10.5C5 11.8911 5.61402 12.948 6.43798 12.9981C7.34703 16.0101 9.53605 18 12 18C14.464 18 16.653 16.0101 17.562 12.9981C18.386 12.948 19 11.8911 19 10.5C19 9.38006 18.602 8.47706 17.972 8.14603Z" fill="#229F55"/>
<path d="M8.23341 15.0572C7.99139 14.9302 7.68741 15.0212 7.55742 15.2662L6.65944 16.9702C6.53044 17.2152 6.62442 17.5172 6.86845 17.6462C6.94247 17.6852 7.02244 17.7042 7.10147 17.7042C7.27945 17.7042 7.45345 17.6072 7.54449 17.4372L8.44247 15.7332C8.57138 15.4882 8.47739 15.1862 8.23341 15.0572Z" fill="#229F55"/>
<path d="M17.3411 16.9702L16.4431 15.2662C16.3131 15.0212 16.0091 14.9302 15.7671 15.0572C15.5231 15.1862 15.4291 15.4882 15.5581 15.7332L16.4561 17.4372C16.5451 17.6072 16.7191 17.7042 16.8981 17.7042C16.9781 17.7042 17.0581 17.6862 17.1321 17.6462C17.3761 17.5172 17.4701 17.2152 17.3411 16.9702Z" fill="#229F55"/>
<path d="M17.924 2.235C17.867 2.14402 16.476 0 12 0C7.524 0 6.13298 2.14402 6.07598 2.235C6.02597 2.31398 6 2.406 6 2.49998V6.49997C6 6.68498 6.102 6.85397 6.26498 6.94097C6.34598 6.98395 8.29298 7.99997 12 7.99997C15.707 7.99997 17.654 6.98395 17.735 6.94097C17.898 6.85397 18 6.68498 18 6.49997V2.49998C18 2.406 17.974 2.31398 17.924 2.235ZM16.156 3.47498C16.091 3.49697 14.53 3.99998 12 3.99998C9.47002 3.99998 7.90898 3.49697 7.84402 3.47498C7.58203 3.38897 7.44 3.10697 7.52602 2.84498C7.611 2.583 7.896 2.43797 8.15602 2.52497C8.16998 2.529 9.64298 3 12 3C14.357 3 15.83 2.529 15.845 2.52502C16.107 2.43802 16.39 2.583 16.475 2.84503C16.561 3.10702 16.418 3.38902 16.156 3.47498Z" fill="#229F55"/>
<path d="M19.635 17.6252L17.063 16.7303C16.875 16.6663 16.665 16.7173 16.53 16.8643C15.27 18.2413 13.661 18.9993 12 18.9993C10.339 18.9993 8.73 18.2413 7.47098 16.8653C7.335 16.7183 7.12598 16.6663 6.93797 16.7313L4.36598 17.6263C1.67302 18.5623 0 20.8123 0 23.4992C0 23.7752 0.224016 23.9993 0.500016 23.9993H23.5C23.776 23.9993 24 23.7752 24 23.4992C24 20.8123 22.327 18.5623 19.635 17.6252ZM10.5 21.9992C10.224 21.9992 9.99998 21.7752 9.99998 21.4992C9.99998 21.2232 10.224 20.9993 10.5 20.9993C10.776 20.9993 11 21.2233 11 21.4993C11 21.7753 10.776 21.9992 10.5 21.9992ZM13.5 21.9992C13.224 21.9992 13 21.7752 13 21.4992C13 21.2232 13.224 20.9993 13.5 20.9993C13.776 20.9993 14 21.2233 14 21.4993C14 21.7753 13.776 21.9992 13.5 21.9992Z" fill="#229F55"/>
<path d="M13.7739 14.0641C13.5399 13.9181 13.2389 13.9761 13.0929 14.2101C13.0909 14.2131 12.8439 14.5001 11.9999 14.5001C11.1979 14.5001 10.9359 14.2411 10.9089 14.2121C10.7569 13.9961 10.4609 13.9351 10.2349 14.0761C10.0009 14.2221 9.92986 14.5311 10.0759 14.7651C10.1519 14.8881 10.6059 15.5001 11.9999 15.5001C13.3938 15.5001 13.8479 14.8881 13.9238 14.7661C14.0709 14.5311 14.0079 14.2101 13.7739 14.0641Z" fill="#229F55"/>
</g>
<defs>
<clipPath id="clip0_626_16707">
<rect width="24" height="24" fill="white"/>
</clipPath>
</defs>
</svg>
