<svg width="24" height="24" viewBox="0 0 24 24" fill="none" xmlns="http://www.w3.org/2000/svg">
<g clip-path="url(#clip0_777_286122)">
<path d="M4 6.75C4 4.131 6.131 2 8.75 2H17.883C17.554 0.849 16.505 0 15.25 0H3.75C2.233 0 1 1.233 1 2.75V18.25C1 19.767 2.233 21 3.75 21H4V6.75Z" fill="#229F55"/>
<path d="M20.25 4H8.75C7.233 4 6 5.233 6 6.75V21.25C6 22.767 7.233 24 8.75 24H20.25C21.767 24 23 22.767 23 21.25V6.75C23 5.233 21.767 4 20.25 4ZM18.25 21H10.75C10.336 21 10 20.664 10 20.25C10 19.836 10.336 19.5 10.75 19.5H18.25C18.664 19.5 19 19.836 19 20.25C19 20.664 18.664 21 18.25 21ZM18.25 17H10.75C10.336 17 10 16.664 10 16.25C10 15.836 10.336 15.5 10.75 15.5H18.25C18.664 15.5 19 15.836 19 16.25C19 16.664 18.664 17 18.25 17ZM18.25 13.5H10.75C10.336 13.5 10 13.164 10 12.75C10 12.336 10.336 12 10.75 12H18.25C18.664 12 19 12.336 19 12.75C19 13.164 18.664 13.5 18.25 13.5ZM18.25 9.5H10.75C10.336 9.5 10 9.164 10 8.75C10 8.336 10.336 8 10.75 8H18.25C18.664 8 19 8.336 19 8.75C19 9.164 18.664 9.5 18.25 9.5Z" fill="#229F55"/>
</g>
<defs>
<clipPath id="clip0_777_286122">
<rect width="24" height="24" fill="white"/>
</clipPath>
</defs>
</svg>
