<svg width="24" height="24" viewBox="0 0 24 24" fill="none" xmlns="http://www.w3.org/2000/svg">
<g clip-path="url(#clip0_777_286128)">
<path d="M14 24H13C12.448 24 12 23.552 12 23V17C12 16.448 12.448 16 13 16H14C14.552 16 15 16.448 15 17V23C15 23.552 14.552 24 14 24Z" fill="#229F55"/>
<path d="M24 18.4095C24 17.0795 22.92 15.9995 21.59 15.9995H19.6C19.71 15.6495 19.81 15.1795 19.81 14.6295C19.81 13.0095 18.94 12.2695 18.14 12.2695C16.94 12.2695 16.94 13.5495 16.94 14.1695C16.94 14.9295 16.28 15.6095 15.75 16.0295C15.91 16.3195 16 16.6495 16 16.9995V22.9995C16 23.0895 15.99 23.1795 15.98 23.2695C16.85 23.6295 18.24 23.9995 20.24 23.9995H21C22.2 23.9995 23.25 23.1295 23.43 21.9795L23.39 21.9695C23.88 20.9495 24 18.4395 24 18.4095Z" fill="#229F55"/>
<path d="M17 5.95875V2.00075C17 1.44775 16.553 1.00075 16 1.00075C15.447 1.00075 15 1.44775 15 2.00075V4.00275L11.199 0.28575C10.81 -0.09525 10.189 -0.09525 9.801 0.28575L0.451 9.42875C0.164 9.70875 0 10.1007 0 10.5007C0 11.3277 0.673 12.0007 1.5 12.0007H3V17.5007C3 18.8797 4.121 20.0007 5.5 20.0007H9C9.553 20.0007 10 19.5537 10 19.0007C10 18.4478 9.553 18.0007 9 18.0007H5.5C5.225 18.0007 5 17.7757 5 17.5007V11.0007C5 10.4478 4.553 10.0007 4 10.0007H2.727L10.5 2.39875L19.15 10.8577C19.546 11.2458 20.179 11.2377 20.564 10.8417C20.951 10.4467 20.943 9.81375 20.548 9.42775L17 5.95875Z" fill="#229F55"/>
</g>
<defs>
<clipPath id="clip0_777_286128">
<rect width="24" height="24" fill="white"/>
</clipPath>
</defs>
</svg>
