<svg width="24" height="24" viewBox="0 0 24 24" fill="none" xmlns="http://www.w3.org/2000/svg">
<g clip-path="url(#clip0_626_16701)">
<path d="M23.9055 10.1355L20.7735 4.5H23.25C23.664 4.5 24 4.164 24 3.75C24 3.336 23.664 3 23.25 3H12.75V0.75C12.75 0.336 12.414 0 12 0C11.586 0 11.25 0.336 11.25 0.75V3H0.75C0.336 3 0 3.336 0 3.75C0 4.164 0.336 4.5 0.75 4.5H3.225L0.0945 10.1355C0.03 10.2525 0.0105 10.3755 0.0105 10.5H0V12C0 13.6545 1.3455 15 3 15H6C7.6545 15 9 13.6545 9 12V10.5H8.9895C8.9895 10.3755 8.97 10.2525 8.9055 10.1355L5.775 4.5H11.25V21H9.75C8.5095 21 7.5 22.0095 7.5 23.25C7.5 23.664 7.836 24 8.25 24H15.75C16.164 24 16.5 23.664 16.5 23.25C16.5 22.0095 15.4905 21 14.25 21H12.75V4.5H18.225L15.0945 10.1355C15.03 10.2525 15.0105 10.3755 15.0105 10.5H15V12C15 13.6545 16.3455 15 18 15H21C22.6545 15 24 13.6545 24 12V10.5H23.9895C23.9895 10.3755 23.97 10.2525 23.9055 10.1355ZM7.392 10.5H1.608L4.5 5.295L7.392 10.5ZM16.608 10.5L19.5 5.295L22.392 10.5H16.608Z" fill="#229F55"/>
</g>
<defs>
<clipPath id="clip0_626_16701">
<rect width="24" height="24" fill="white"/>
</clipPath>
</defs>
</svg>
