<svg width="24" height="24" viewBox="0 0 24 24" fill="none" xmlns="http://www.w3.org/2000/svg">
<g clip-path="url(#clip0_777_286119)">
<path d="M23.491 1.82601L18.241 0.0400117C18.085 -0.0139883 17.915 -0.0139883 17.759 0.0400117L12.509 1.82601C12.204 1.92901 12 2.21501 12 2.53601V6.55401C12 11.458 17.474 13.842 17.707 13.941C17.801 13.98 17.9 14 18 14C18.1 14 18.199 13.98 18.293 13.94C18.526 13.842 24 11.458 24 6.55401V2.53601C24 2.21501 23.796 1.92901 23.491 1.82601ZM21.286 5.61801L18.536 9.11801C18.368 9.33201 18.119 9.46901 17.848 9.49501C17.815 9.49901 17.782 9.50001 17.75 9.50001C17.513 9.50001 17.281 9.41601 17.1 9.25901L15.35 7.75901C14.93 7.40001 14.881 6.76801 15.242 6.34901C15.601 5.93001 16.233 5.88201 16.651 6.24101L17.609 7.06201L19.714 4.38301C20.055 3.94901 20.683 3.87201 21.118 4.21501C21.552 4.55501 21.628 5.18401 21.286 5.61801Z" fill="#229F55"/>
<path d="M0.492 12.0022C0.219 12.0072 0 12.2292 0 12.5022V21.7502C0 21.8882 0.112 22.0002 0.25 22.0002H2.622C2.846 22.0002 3.042 21.8522 3.103 21.6372L5.316 13.8392C5.459 13.3352 5.189 12.8052 4.696 12.6262C3.79 12.2962 2.4 11.9702 0.492 12.0022Z" fill="#229F55"/>
<path d="M22 17.4998C20 17.4998 16 20.0308 14 20.0308C12 20.0308 9.74998 18.4998 9.74998 18.4998C9.74998 18.4998 12.444 18.9998 14 18.9998C15.556 18.9998 16 18.4688 16 17.7498C16 15.9998 13.028 15.7278 11.524 15.4988C10.048 14.6768 9.28098 14.0268 6.83598 13.8198C6.82198 13.9628 6.79998 14.1048 6.75998 14.2458L4.75098 21.3258C7.02598 22.3608 10.944 23.9998 13 23.9998C16 23.9998 24 19.9998 24 18.9998C24 17.9998 23 17.4998 22 17.4998Z" fill="#229F55"/>
</g>
<defs>
<clipPath id="clip0_777_286119">
<rect width="24" height="24" fill="white"/>
</clipPath>
</defs>
</svg>
