<svg width="105" height="44" viewBox="0 0 105 44" fill="none" xmlns="http://www.w3.org/2000/svg">
<path d="M7.37831 19.6918H3.48454V9.98507H0.832031V6.82477H3.48444V4.57599C3.48444 1.91118 4.6576 0 8.54083 0C9.36214 0 10.6516 0.165543 10.6516 0.165543V3.10005H9.29725C7.91731 3.10005 7.37852 3.5198 7.37852 4.68026V6.82477H10.5999L10.313 9.98507H7.37842L7.37831 19.6918ZM16.3127 6.57222C16.2559 6.57222 16.1976 6.57429 16.1398 6.57573C12.5293 6.57573 10.8773 9.29159 10.8773 13.1468C10.8773 18.0034 13.0201 19.9471 16.168 19.9471C17.969 19.9471 19.1523 19.189 19.8715 17.7744V19.6931H23.5751V6.82611H19.8715V8.80488C19.2843 7.53179 18.0679 6.58731 16.3127 6.57222ZM17.2544 9.61265C18.7708 9.61265 19.681 10.6704 19.681 12.4696L19.6845 14.3072C19.6845 15.5198 18.9327 16.9385 17.2544 16.9385C14.6741 16.9385 14.743 14.1524 14.743 13.2244C14.743 10.103 16.1178 9.61265 17.2544 9.61265ZM25.0707 13.2603C25.0707 11.6967 24.9959 6.58059 31.6614 6.58059C34.3371 6.58059 35.4544 7.43135 35.4544 7.43135L34.5564 10.2165C34.5564 10.2165 33.4406 9.60211 31.9866 9.60211C30.1244 9.60211 28.9362 10.6817 28.9362 12.5811L28.9383 13.943C28.9383 15.7681 30.0848 16.9864 31.9905 16.9864C33.315 16.9864 34.5358 16.3662 34.5358 16.3662L35.4315 19.0932C35.4315 19.0932 34.41 19.9494 31.6802 19.9494C25.3335 19.9494 25.0708 15.3592 25.0708 13.2603H25.0707ZM57.1695 6.57573C60.7802 6.57573 62.4581 9.29159 62.4581 13.1468C62.4581 18.0034 60.3153 19.9471 57.1674 19.9471C55.3663 19.9471 54.035 19.1891 53.3157 17.7744V19.6931L49.6588 19.6916V0.391227L53.5415 0.0525976V8.63055C54.1019 7.12981 55.9435 6.57573 57.1695 6.57573ZM56.081 9.61265C54.5646 9.61265 53.5415 10.6704 53.5415 12.4696L53.5379 14.3072C53.5356 15.5198 54.2464 16.9385 56.081 16.9385C58.6613 16.9385 58.5923 14.1524 58.5923 13.2244C58.5923 10.103 57.2177 9.61265 56.081 9.61265ZM42.1912 6.58638C38.096 6.58638 35.9341 8.81914 35.9341 12.787V13.5242C35.9341 18.6741 38.9701 20 42.5898 20C46.108 20 47.7005 19.0159 47.7005 19.0159L46.974 16.3954C46.974 16.3954 45.1007 17.1924 43.0553 17.1924C40.9349 17.1924 40.0229 16.6519 39.7892 14.6142H48.0109V12.5118C48.0109 8.2077 45.5845 6.58627 42.1911 6.58627L42.1912 6.58638ZM42.2899 9.21047C43.7074 9.21047 44.626 10.0797 44.5756 12.0957H39.7963C39.8792 9.97391 40.8697 9.21047 42.2899 9.21047ZM70.2001 6.56871C65.9947 6.56871 63.7807 8.93859 63.7807 13.1856C63.7807 19.0126 67.5971 19.9506 70.2071 19.9506C74.028 19.9506 76.5701 17.8935 76.5701 13.2385C76.5701 8.3934 73.7118 6.56871 70.2001 6.56871ZM70.1472 9.62319C71.9964 9.62319 72.7291 11.0072 72.7291 12.5825V13.9369C72.7291 15.8453 71.7038 16.9491 70.1402 16.9491C68.6777 16.9491 67.65 15.9166 67.65 13.9369V12.5825C67.65 10.4712 68.873 9.62319 70.1472 9.62319ZM84.3051 6.56871C80.0997 6.56871 77.8857 8.93859 77.8857 13.1856C77.8857 19.0126 81.7021 19.9506 84.3121 19.9506C88.133 19.9506 90.6751 17.8935 90.6751 13.2385C90.6751 8.3934 87.8168 6.56871 84.3051 6.56871ZM84.2522 9.62319C86.1014 9.62319 86.834 11.0072 86.834 12.5825V13.9369C86.834 15.8453 85.8088 16.9491 84.2452 16.9491C82.7828 16.9491 81.755 15.9166 81.755 13.9369V12.5825C81.755 10.4712 82.978 9.62319 84.2522 9.62319ZM92.1424 19.6918V0.391227L96.0363 0.0527009V12.9891L99.8996 6.82487H104.012L99.9819 13.2092L104.167 19.6918H100.043L96.0363 13.3972V19.6918H92.1424Z" fill="#1877F2"/>
<path d="M10.6065 40.4663L16.4612 44L14.9076 37.34L20.0802 32.8589L13.2686 32.2811L10.6065 26L7.94439 32.2811L1.13281 32.8589L6.30544 37.34L4.75176 44L10.6065 40.4663Z" fill="#1877F2"/>
<path d="M31.5557 40.4663L37.4105 44L35.8568 37.34L41.0294 32.8589L34.2178 32.2811L31.5557 26L28.8936 32.2811L22.082 32.8589L27.2547 37.34L25.701 44L31.5557 40.4663Z" fill="#1877F2"/>
<path d="M52.501 40.4663L58.3558 44L56.8021 37.34L61.9747 32.8589L55.1631 32.2811L52.501 26L49.8389 32.2811L43.0273 32.8589L48.2 37.34L46.6463 44L52.501 40.4663Z" fill="#1877F2"/>
<path d="M73.4502 40.4663L79.305 44L77.7513 37.34L82.9239 32.8589L76.1124 32.2811L73.4502 26L70.7881 32.2811L63.9766 32.8589L69.1492 37.34L67.5955 44L73.4502 40.4663Z" fill="#1877F2"/>
<path d="M94.3956 40.4663L100.25 44L98.6966 37.34L103.869 32.8589L97.0577 32.2811L94.3956 26L91.7335 32.2811L84.9219 32.8589L90.0945 37.34L88.5408 44L94.3956 40.4663Z" fill="#1877F2"/>
</svg>
