<svg width="103" height="50" viewBox="0 0 103 50" fill="none" xmlns="http://www.w3.org/2000/svg">
<path d="M26.3764 0H27.174C29.1164 0.0922139 30.9577 0.893052 32.3496 2.25104C31.8179 2.76506 31.3039 3.29681 30.7721 3.81083C29.8884 2.96653 28.7583 2.4263 27.5462 2.26877C26.1564 2.08739 24.7467 2.39438 23.5582 3.13728C22.4945 3.82659 21.6805 4.83941 21.2362 6.02642C20.9523 6.80386 20.8309 7.63131 20.8797 8.45755C20.9285 9.28378 21.1464 10.0912 21.5198 10.8298C22.1324 12.0297 23.1404 12.9814 24.3735 13.524C25.6058 14.0442 26.9724 14.156 28.2729 13.843C29.3501 13.5878 30.3221 13.0059 31.0557 12.1769C31.6761 11.4502 31.9597 10.5108 32.0838 9.5891H26.7309V7.37351H34.2639C34.5306 8.97281 34.3338 10.615 33.6967 12.106C33.1472 13.3645 32.1547 14.3748 31.0026 15.1015C29.5668 16.0055 27.8298 16.3068 26.146 16.2004C24.0905 16.0553 22.1601 15.1595 20.7222 13.6835C19.3517 12.2877 18.5332 10.4429 18.418 8.49017V7.71027C18.5255 5.8512 19.2704 4.08596 20.5272 2.71189C22.0584 1.09318 24.1516 0.122689 26.3764 0Z" fill="#1470FB"/>
<path d="M61.489 6.0796C62.5522 5.45348 63.8185 5.26895 65.0162 5.56558C65.6923 5.75328 66.3049 6.12082 66.7887 6.62907C66.8064 6.31002 66.7887 6.0087 66.7887 5.68966H69.022V15.137C69.022 16.4663 68.7029 17.8666 67.8167 18.9123C67.0014 19.8695 65.7429 20.3835 64.5022 20.4721C63.4116 20.5943 62.3106 20.3643 61.3602 19.8158C60.4098 19.2672 59.6599 18.4289 59.2202 17.4235C59.8937 17.1399 60.585 16.874 61.2585 16.5904C61.5626 17.3015 62.1178 17.8757 62.8183 18.2033C63.5225 18.5009 64.3121 18.5262 65.0339 18.2742C65.3634 18.1681 65.6666 17.9931 65.9233 17.7609C66.18 17.5286 66.3843 17.2444 66.5228 16.9272C66.8418 16.2004 66.8241 15.3851 66.8064 14.6229C66.3583 15.0892 65.8053 15.4416 65.1934 15.651C64.0548 15.9912 62.8286 15.8769 61.7726 15.3319C60.7118 14.7896 59.8678 13.9018 59.3797 12.815C59.0877 12.1551 58.9309 11.4433 58.9187 10.7218C58.9066 10.0003 59.0392 9.28362 59.3088 8.61424C59.7282 7.54728 60.4967 6.65386 61.489 6.0796ZM63.4741 7.55076C62.8875 7.67973 62.3623 8.00484 61.9853 8.47245C61.1522 9.48276 61.0458 10.9539 61.5599 12.1237C61.7129 12.485 61.9414 12.8093 62.2301 13.075C62.5187 13.3406 62.8609 13.5415 63.2336 13.664C63.6062 13.7866 64.0008 13.828 64.3908 13.7855C64.7808 13.743 65.1572 13.6176 65.4948 13.4177C66.1636 13.0025 66.6414 12.34 66.8241 11.5743C67.1254 10.3513 66.8064 8.89784 65.7784 8.0825C65.4624 7.82028 65.0894 7.63562 64.6893 7.54329C64.2892 7.45096 63.8731 7.45352 63.4741 7.55076Z" fill="#1470FB"/>
<path d="M70.582 0.389648H72.9217V16.2356H70.582V0.389648Z" fill="#009F30"/>
<path d="M39.9197 5.49452C41.1297 5.29032 42.3733 5.50279 43.4469 6.09717C44.3357 6.59842 45.057 7.35058 45.5207 8.25959C46.1014 9.44309 46.2336 10.7969 45.8929 12.0704C45.5845 13.2289 44.8747 14.2403 43.89 14.9241C42.8131 15.6663 41.5014 15.9879 40.2033 15.8281C39.5063 15.7542 38.8315 15.5403 38.2193 15.1992C37.607 14.858 37.0701 14.3967 36.6406 13.8429C35.9864 12.9666 35.6155 11.9115 35.5775 10.8186C35.5395 9.7258 35.8362 8.64742 36.4279 7.72784C36.82 7.13081 37.3336 6.62327 37.9354 6.23842C38.5371 5.85357 39.2132 5.60008 39.9197 5.49452ZM40.1501 7.5506C39.5202 7.69932 38.9585 8.05508 38.5549 8.56091C38.1952 9.03901 37.9653 9.60206 37.8877 10.1953C37.81 10.7885 37.8872 11.3918 38.1117 11.9463C38.2671 12.336 38.5041 12.6879 38.8068 12.9783C39.1094 13.2687 39.4708 13.491 39.8665 13.6302C40.2687 13.7683 40.6964 13.816 41.1192 13.7701C41.5419 13.7241 41.9494 13.5856 42.3125 13.3643C42.6713 13.1386 42.9795 12.8409 43.2174 12.4901C43.4554 12.1392 43.618 11.7428 43.695 11.326C43.9432 10.1561 43.5532 8.80906 42.5606 8.08234C42.2242 7.81902 41.833 7.63455 41.4158 7.54252C40.9986 7.45049 40.5661 7.45325 40.1501 7.5506Z" fill="#FB0000"/>
<path d="M77.0167 6.29182C77.5763 5.91162 78.2076 5.64951 78.872 5.52152C79.5363 5.39352 80.2198 5.40232 80.8807 5.54738C82.0159 5.82375 83.0078 6.51238 83.6635 7.47938C84.0711 8.04658 84.3193 8.70239 84.5852 9.34048C82.2278 10.2976 79.8881 11.2548 77.5307 12.2296C77.8365 12.8583 78.3589 13.3555 79.0019 13.6299C79.4558 13.7952 79.9421 13.8525 80.4221 13.7971C80.9021 13.7417 81.3625 13.5752 81.7669 13.3108C82.1244 13.057 82.431 12.7384 82.6709 12.3714C83.2735 12.7614 83.8762 13.169 84.4788 13.559C83.7909 14.5734 82.7682 15.3138 81.5897 15.6505C80.2274 16.0466 78.7641 15.8939 77.513 15.2251C76.5754 14.7238 75.8236 13.9348 75.3683 12.9741C74.8039 11.7655 74.6908 10.3948 75.0492 9.11006C75.3583 7.9709 76.0539 6.97463 77.0167 6.29182ZM77.9561 8.24155C77.3889 8.84419 77.1585 9.67726 77.1585 10.4749C78.7537 9.83678 80.3312 9.18096 81.9264 8.52515C81.7372 8.10253 81.3954 7.767 80.9693 7.58573C79.9767 7.14261 78.7005 7.44393 77.9561 8.24155Z" fill="#FB0000"/>
<path d="M51.6153 5.49493C52.8216 5.2968 54.0594 5.51562 55.1248 6.1153C56.0006 6.59775 56.7109 7.33273 57.1631 8.22455C57.4844 8.86849 57.6748 9.56971 57.7235 10.2877C57.7722 11.0057 57.6781 11.7262 57.4467 12.4076C57.0447 13.5758 56.2322 14.5584 55.1602 15.1727C53.1573 16.3425 50.3922 16.0412 48.7438 14.3928C47.0777 12.7975 46.7409 10.0679 47.8753 8.08275C48.2601 7.39477 48.7971 6.80391 49.4454 6.35538C50.0936 5.90685 50.8358 5.61253 51.6153 5.49493ZM51.9875 7.51556C51.3752 7.62335 50.815 7.92834 50.3922 8.38407C49.5415 9.27031 49.3288 10.6528 49.7364 11.7872C49.8692 12.1776 50.0809 12.5364 50.3584 12.8414C50.6359 13.1463 50.9732 13.3908 51.3494 13.5597C51.7406 13.7297 52.165 13.8099 52.5913 13.7946C53.0176 13.7793 53.4351 13.6687 53.8131 13.4711C54.1829 13.2735 54.5078 13.0013 54.7671 12.6719C55.0264 12.3424 55.2146 11.9627 55.3197 11.5568C55.6388 10.4047 55.3375 9.03989 54.4335 8.22455C54.1051 7.93036 53.7148 7.71388 53.2913 7.59114C52.8679 7.46841 52.4223 7.44257 51.9875 7.51556Z" fill="#FFAD00"/>
<path d="M63.709 21.6548C63.7709 21.6274 63.8388 21.6164 63.9062 21.6229C63.9736 21.6294 64.0382 21.6531 64.0938 21.6918C64.1494 21.7304 64.1941 21.7827 64.2236 21.8437C64.2531 21.9046 64.2664 21.9721 64.2623 22.0397C64.2559 22.108 64.2321 22.1734 64.1931 22.2298C64.1542 22.2863 64.1014 22.3317 64.0398 22.3619C63.9783 22.3921 63.91 22.406 63.8415 22.4022C63.7731 22.3984 63.7067 22.3772 63.6488 22.3404C63.5941 22.2989 63.5507 22.2441 63.5229 22.1812C63.495 22.1184 63.4836 22.0495 63.4896 21.981C63.4956 21.9125 63.5189 21.8467 63.5572 21.7896C63.5956 21.7326 63.6478 21.6862 63.709 21.6548ZM29.2944 22.148C30.0642 21.4743 31.3273 21.4864 32.0731 22.1961C31.9983 22.3252 31.9051 22.4427 31.7964 22.5449C31.7002 22.569 31.628 22.4968 31.5438 22.4607C31.3106 22.3018 31.0388 22.209 30.7571 22.1921C30.4755 22.1751 30.1945 22.2347 29.944 22.3645C29.7569 22.4758 29.5972 22.6275 29.4765 22.8086C29.3557 22.9897 29.2771 23.1955 29.2463 23.411C29.1621 23.9042 29.2102 24.4455 29.4989 24.8785C29.6088 25.0469 29.7561 25.1876 29.9293 25.2898C30.1024 25.392 30.2968 25.453 30.4973 25.4679C30.8822 25.492 31.2912 25.4439 31.5919 25.1792C31.6641 25.1311 31.7363 25.0349 31.8325 25.0469C31.9415 25.1379 32.0422 25.2386 32.1332 25.3476C31.9643 25.5375 31.7592 25.6916 31.5299 25.8011C31.3006 25.9106 31.0518 25.9732 30.798 25.9852C30.5295 26.0138 30.258 25.9881 29.9997 25.9096C29.7414 25.831 29.5015 25.7013 29.2944 25.5281C28.9355 25.2004 28.7016 24.7582 28.6328 24.2771V23.3869C28.7068 22.911 28.9401 22.4742 29.2944 22.148ZM54.4347 21.7029C54.9039 21.7029 55.385 21.6909 55.8541 21.7029C56.2751 21.727 56.7443 21.8472 57.0089 22.2081C57.1604 22.4477 57.2263 22.7316 57.1957 23.0134C57.1651 23.2952 57.0399 23.5583 56.8405 23.7598C56.656 23.9252 56.4325 24.0411 56.1909 24.0966C56.3335 24.2208 56.4554 24.367 56.5518 24.5297C56.9006 25.0108 57.2375 25.48 57.5863 25.9611C57.3858 25.9691 57.1849 25.9651 56.9849 25.9491C56.9413 25.9444 56.8997 25.9287 56.8639 25.9034C56.8281 25.8782 56.7994 25.8442 56.7804 25.8047C56.4436 25.3236 56.0947 24.8424 55.7579 24.3613C55.6015 24.1207 55.2768 24.241 55.0482 24.2169V25.9731H54.4468C54.4347 24.5417 54.4347 23.1223 54.4347 21.7029ZM55.0362 22.184V23.7478C55.4452 23.7358 55.8902 23.8079 56.2511 23.5914C56.6841 23.3388 56.7443 22.593 56.2992 22.3164C55.9143 22.1119 55.4572 22.2081 55.0362 22.184ZM38.4724 22.0036C38.5916 21.9836 38.7125 21.9756 38.8333 21.9796V22.99H39.6753V23.399H38.8333V25.2273C38.8325 25.2661 38.8393 25.3045 38.8534 25.3406C38.8675 25.3767 38.8885 25.4096 38.9153 25.4375C38.9421 25.4654 38.9742 25.4878 39.0097 25.5034C39.0451 25.5189 39.0833 25.5273 39.122 25.5281C39.2784 25.5521 39.3866 25.4439 39.5189 25.3958C39.6392 25.4679 39.6753 25.6243 39.7595 25.7326C39.6096 25.8616 39.4276 25.9477 39.2328 25.9816C39.0379 26.0155 38.8375 25.9959 38.6529 25.925C38.3882 25.8168 38.2679 25.504 38.28 25.2394V23.399C38.1435 23.407 38.0067 23.403 37.871 23.3869C37.7747 23.3027 37.8349 23.1584 37.8108 23.0501C37.9672 23.0261 38.1356 23.002 38.292 22.99C38.3281 22.7133 38.3642 22.4367 38.4003 22.172C38.4243 22.1119 38.4243 22.0397 38.4724 22.0036ZM35.8862 23.0982C36.1415 22.9402 36.441 22.8688 36.7402 22.8948C37.0393 22.9209 37.322 23.0428 37.5462 23.2426C37.4985 23.3294 37.4463 23.4137 37.3898 23.4952C37.3056 23.5794 37.1974 23.4832 37.1252 23.4471C37.0064 23.3776 36.8741 23.3342 36.7373 23.3197C36.6004 23.3052 36.462 23.3199 36.3313 23.3629C36.2582 23.384 36.1935 23.4276 36.1467 23.4876C36.0999 23.5476 36.0732 23.6209 36.0706 23.697C36.0679 23.773 36.0894 23.848 36.1319 23.9111C36.1744 23.9743 36.2357 24.0224 36.3072 24.0485C36.6681 24.2169 37.1011 24.253 37.4019 24.5297C37.6304 24.7462 37.6424 25.095 37.5342 25.3717C37.486 25.5002 37.4089 25.616 37.3088 25.7098C37.2086 25.8037 37.0882 25.8732 36.9568 25.913C36.7016 26.0008 36.4282 26.0215 36.1628 25.973C35.8973 25.9246 35.6488 25.8086 35.4411 25.6363C35.5254 25.5281 35.5614 25.3236 35.7419 25.3356C35.8982 25.3958 36.0185 25.516 36.1869 25.5521C36.3079 25.5967 36.4379 25.6112 36.5657 25.5944C36.6935 25.5777 36.8153 25.5301 36.9207 25.4559C37.1011 25.3116 37.1372 24.9868 36.9327 24.8545C36.5598 24.6019 36.0546 24.6259 35.7298 24.2891C35.4051 23.9523 35.5133 23.3508 35.8862 23.0982ZM40.9744 22.9419C41.1962 22.8859 41.4276 22.8796 41.6522 22.9232C41.8767 22.9669 42.0889 23.0595 42.2735 23.1945C42.6104 23.4591 42.7667 23.9042 42.7908 24.3252C42.8148 24.7823 42.7066 25.2755 42.3818 25.6123C41.7804 26.2017 40.6136 26.1175 40.1685 25.3717C40.0444 25.1393 39.9678 24.8846 39.943 24.6223C39.9182 24.3601 39.9458 24.0955 40.0241 23.844C40.0799 23.6186 40.199 23.4139 40.3674 23.254C40.5358 23.0942 40.7464 22.9858 40.9744 22.9419ZM41.1067 23.3629C40.7699 23.435 40.5654 23.7719 40.5294 24.0966C40.4812 24.4816 40.4812 24.9026 40.6978 25.2394C40.9143 25.5762 41.3714 25.6123 41.7082 25.492C42.045 25.3717 42.1653 24.9988 42.2014 24.674C42.2254 24.3132 42.2134 23.9042 41.9728 23.6035C41.7683 23.3388 41.4075 23.3027 41.1067 23.3629ZM43.8614 23.3508C44.0899 23.0862 44.4147 22.8577 44.7755 22.9058C45.1124 22.9058 45.365 23.1945 45.4492 23.5072C45.6777 22.8938 46.5318 22.7253 47.037 23.0982C47.3136 23.3148 47.4099 23.6877 47.3978 24.0245V25.9611H46.8325V24.0245C46.8325 23.82 46.7844 23.5794 46.6039 23.4471C46.4693 23.3637 46.3084 23.3335 46.1527 23.3624C45.997 23.3913 45.8576 23.4773 45.7619 23.6035C45.6747 23.7438 45.6328 23.9076 45.6416 24.0726V25.9611H45.0763V23.9763C45.0763 23.7358 44.98 23.435 44.7154 23.3749C44.3906 23.2787 44.0779 23.4711 43.8854 23.7237V25.9611H43.3201V22.9539C43.4603 22.9399 43.6018 22.9439 43.7411 22.9659C43.8614 23.0501 43.8253 23.2185 43.8614 23.3508ZM48.312 23.2666C48.516 23.0788 48.7704 22.9547 49.0441 22.9098C49.3177 22.8649 49.5985 22.9012 49.8517 23.014C50.3569 23.2426 50.5975 23.844 50.5254 24.3733C50.5254 24.4575 50.4411 24.4695 50.369 24.4695H48.4323C48.427 24.781 48.5337 25.0841 48.733 25.3236C48.9857 25.5762 49.3946 25.6002 49.7194 25.504C49.8998 25.4559 50.0442 25.3356 50.2126 25.2755C50.3449 25.2875 50.4051 25.4559 50.4893 25.5401C50.1645 25.901 49.6713 26.0213 49.2022 25.9972C49.0162 25.9903 48.8337 25.9451 48.666 25.8644C48.4983 25.7837 48.3492 25.6692 48.2278 25.5281C47.9744 25.1848 47.8508 24.7629 47.879 24.3372C47.8836 23.9386 48.0382 23.5564 48.312 23.2666ZM48.8654 23.411C48.6128 23.5553 48.5045 23.844 48.4564 24.1207H50.0442C50.0445 23.9104 49.9722 23.7065 49.8397 23.5433C49.5991 23.2666 49.1661 23.2546 48.8654 23.411ZM52.0169 22.978C52.1267 22.9236 52.2468 22.8933 52.3692 22.8891C52.4916 22.885 52.6135 22.9071 52.7266 22.9539C52.7231 23.1193 52.707 23.2841 52.6785 23.4471C52.5462 23.5193 52.3898 23.423 52.2455 23.4471C51.9087 23.4591 51.6801 23.7719 51.5959 24.0726C51.5839 24.6981 51.5959 25.3236 51.5959 25.9611H51.0306V22.9539C51.1749 22.9659 51.3313 22.9298 51.4636 22.978C51.5719 23.1343 51.5237 23.3508 51.5478 23.5433C51.6681 23.3148 51.8004 23.0982 52.0169 22.978ZM58.284 23.0381C58.7892 22.7975 59.4869 22.8577 59.8597 23.3027C59.9853 23.4576 60.0761 23.6376 60.1259 23.8306C60.1757 24.0237 60.1834 24.2252 60.1484 24.4214C60.1364 24.4334 60.1003 24.4455 60.0883 24.4575C59.4147 24.4816 58.7411 24.4575 58.0675 24.4695C58.0621 24.781 58.1689 25.0841 58.3682 25.3236C58.488 25.4287 58.6321 25.5025 58.7874 25.5382C58.9428 25.5739 59.1046 25.5704 59.2583 25.5281C59.4628 25.492 59.6312 25.3717 59.8116 25.2875C59.968 25.2273 60.0402 25.4439 60.1364 25.5401C59.8116 25.8889 59.3185 26.0213 58.8493 25.9972C58.6557 25.993 58.4655 25.9455 58.2927 25.8581C58.1199 25.7706 57.9689 25.6455 57.8509 25.492C57.5756 25.0915 57.4637 24.601 57.5382 24.1207C57.5619 23.8922 57.6426 23.6734 57.7729 23.4842C57.9032 23.295 58.0789 23.1416 58.284 23.0381ZM58.5005 23.411C58.2479 23.5553 58.1396 23.844 58.0915 24.1207H59.6793C59.6843 23.8981 59.6023 23.6823 59.4508 23.5193C59.2102 23.2666 58.8012 23.2546 58.5005 23.411ZM65.0682 23.3148C65.2795 23.0978 65.5552 22.9548 65.8543 22.9071C66.1534 22.8594 66.4599 22.9096 66.7282 23.0501C67.1853 23.3027 67.3898 23.8681 67.3297 24.3733C67.3297 24.4575 67.2455 24.4695 67.1853 24.4575H65.2367C65.2313 24.769 65.3381 25.0721 65.5374 25.3116C65.79 25.5642 66.199 25.5882 66.5237 25.492C66.7042 25.4439 66.8485 25.3116 67.029 25.2634C67.1613 25.2755 67.2214 25.4439 67.3056 25.5281C66.9808 25.8769 66.4877 26.0092 66.0185 25.9852C65.8321 25.9809 65.6487 25.9369 65.4806 25.8559C65.3126 25.775 65.1638 25.6592 65.0442 25.516C64.7796 25.2033 64.6954 24.7823 64.6954 24.3733C64.6788 23.9856 64.8123 23.6064 65.0682 23.3148ZM65.6577 23.411C65.4051 23.5553 65.2968 23.844 65.2487 24.1087H66.8365C66.8368 23.8984 66.7645 23.6945 66.632 23.5313C66.3914 23.2666 65.9704 23.2546 65.6577 23.411ZM72.5622 23.0862C72.8177 22.9378 73.1137 22.8741 73.4076 22.9044C73.7015 22.9346 73.9783 23.0572 74.1982 23.2546C74.114 23.3508 74.0899 23.5433 73.9335 23.5313C73.717 23.4471 73.5125 23.3027 73.2719 23.3268C73.0434 23.3148 72.7788 23.423 72.7186 23.6636C72.7029 23.7384 72.7134 23.8164 72.7485 23.8843C72.7835 23.9522 72.841 24.006 72.9111 24.0365C73.2719 24.229 73.717 24.253 74.0298 24.5297C74.2944 24.7703 74.2824 25.1913 74.126 25.492C73.9456 25.8408 73.5366 25.9972 73.1637 25.9972C72.7735 26.0203 72.3897 25.8909 72.0931 25.6363C72.1773 25.516 72.2254 25.2995 72.4179 25.3356C72.5743 25.4078 72.7066 25.5281 72.875 25.5642C72.9877 25.5969 73.106 25.6053 73.2222 25.5887C73.3383 25.5721 73.4496 25.5309 73.5486 25.4679C73.7531 25.3236 73.7892 24.9747 73.5606 24.8424C73.1998 24.6019 72.7066 24.6139 72.3818 24.3011C72.045 23.9643 72.1533 23.3268 72.5622 23.0862ZM32.458 22.9298H33.0233V24.8785C33.0233 25.1311 33.1316 25.4318 33.3962 25.504C33.7691 25.6243 34.1541 25.4198 34.4067 25.1432V22.9298H34.972V25.9371C34.8317 25.9509 34.6903 25.9469 34.551 25.925C34.4428 25.8288 34.4788 25.6604 34.4307 25.5281C34.2443 25.7361 34.0022 25.8863 33.7331 25.9611C33.574 25.9995 33.4085 26.0021 33.2483 25.9688C33.0882 25.9356 32.9374 25.8672 32.8068 25.7686C32.5542 25.5521 32.47 25.2033 32.47 24.8905C32.458 24.229 32.47 23.5794 32.458 22.9298ZM60.2928 22.9298C60.4653 22.9218 60.6381 22.9258 60.81 22.9419C60.8942 22.9539 60.9183 23.0501 60.9423 23.1103C61.1589 23.6877 61.3874 24.265 61.616 24.8424C61.6752 25.0115 61.7234 25.1843 61.7603 25.3597C61.8517 25.0015 61.9724 24.6515 62.1212 24.3132L62.5903 23.1223C62.6264 23.0501 62.6504 22.9539 62.7346 22.9419C62.891 22.9298 63.0594 22.9419 63.2158 22.9419C62.8068 23.9403 62.4099 24.9507 62.0009 25.9491H61.4957C61.0987 24.9387 60.7018 23.9403 60.2928 22.9298ZM63.5887 22.9419H64.1541V25.9491H63.5887V22.9419ZM67.5101 22.9419C67.7026 22.9659 67.9191 22.8817 68.0875 22.99C68.1958 23.2426 68.2559 23.5313 68.3401 23.7959C68.4844 24.3132 68.6649 24.8184 68.7611 25.3476C68.9536 24.6018 69.2182 23.8801 69.4468 23.1584C69.4828 23.0742 69.4949 22.9539 69.6031 22.9419C69.7193 22.9276 69.837 22.9317 69.952 22.9539C70.0482 23.002 70.0602 23.1343 70.0963 23.2185C70.3128 23.9282 70.5654 24.6259 70.7459 25.3597C70.8902 24.6379 71.1428 23.9523 71.3353 23.2426C71.3714 23.1464 71.3834 22.978 71.5157 22.9539C71.6721 22.9419 71.8164 22.9539 71.9728 22.9539C71.648 23.9523 71.3353 24.9627 71.0105 25.9611C70.846 25.9693 70.6812 25.9653 70.5173 25.9491C70.467 25.8761 70.4303 25.7946 70.4091 25.7085C70.1925 25.0108 69.9399 24.3132 69.7475 23.6035C69.555 24.3252 69.2904 25.0229 69.0739 25.7326C69.0378 25.8047 69.0378 25.925 68.9536 25.9491C68.7972 25.9611 68.6408 25.9491 68.4965 25.9611C68.1597 24.9507 67.8349 23.9523 67.5101 22.9419Z" fill="#6D6E71"/>
<path d="M9.6065 46.4663L15.4612 50L13.9076 43.34L19.0802 38.8589L12.2686 38.2811L9.6065 32L6.94439 38.2811L0.132812 38.8589L5.30544 43.34L3.75176 50L9.6065 46.4663Z" fill="#FFAD00"/>
<path d="M30.5557 46.4663L36.4105 50L34.8568 43.34L40.0294 38.8589L33.2178 38.2811L30.5557 32L27.8936 38.2811L21.082 38.8589L26.2547 43.34L24.701 50L30.5557 46.4663Z" fill="#FFAD00"/>
<path d="M51.501 46.4663L57.3558 50L55.8021 43.34L60.9747 38.8589L54.1631 38.2811L51.501 32L48.8389 38.2811L42.0273 38.8589L47.2 43.34L45.6463 50L51.501 46.4663Z" fill="#FFAD00"/>
<path d="M72.4502 46.4663L78.305 50L76.7513 43.34L81.9239 38.8589L75.1124 38.2811L72.4502 32L69.7881 38.2811L62.9766 38.8589L68.1492 43.34L66.5955 50L72.4502 46.4663Z" fill="#FFAD00"/>
<path d="M93.3956 46.4663L99.2503 50L97.6966 43.34L102.869 38.8589L96.0577 38.2811L93.3956 32L90.7335 38.2811L83.9219 38.8589L89.0945 43.34L87.5408 50L93.3956 46.4663Z" fill="#FFAD00"/>
</svg>
