<svg width="113" height="50" viewBox="0 0 113 50" fill="none" xmlns="http://www.w3.org/2000/svg">
<path d="M112.283 16.363C112.157 16.363 112.034 16.4002 111.93 16.4701C111.825 16.54 111.744 16.6393 111.696 16.7555C111.648 16.8716 111.635 16.9995 111.66 17.1228C111.684 17.2462 111.745 17.3595 111.834 17.4484C111.922 17.5373 112.036 17.5979 112.159 17.6224C112.282 17.6469 112.41 17.6343 112.526 17.5862C112.643 17.5381 112.742 17.4566 112.812 17.352C112.882 17.2475 112.919 17.1245 112.919 16.9988C112.918 16.8303 112.851 16.6688 112.732 16.5497C112.613 16.4305 112.452 16.3634 112.283 16.363ZM112.283 17.5303C112.177 17.5303 112.074 17.4989 111.986 17.4402C111.898 17.3814 111.829 17.2979 111.789 17.2001C111.748 17.1024 111.738 16.9948 111.758 16.8911C111.779 16.7873 111.83 16.692 111.905 16.6172C111.98 16.5424 112.075 16.4914 112.179 16.4708C112.283 16.4502 112.39 16.4607 112.488 16.5012C112.586 16.5417 112.669 16.6103 112.728 16.6982C112.787 16.7862 112.818 16.8896 112.818 16.9954C112.818 17.0657 112.804 17.1353 112.777 17.2002C112.751 17.2652 112.711 17.3242 112.662 17.3738C112.612 17.4235 112.553 17.4629 112.488 17.4898C112.423 17.5166 112.353 17.5304 112.283 17.5303ZM112.488 16.8878C112.488 16.7734 112.408 16.7027 112.286 16.7027H112.085V17.2814H112.182V17.0728H112.29L112.394 17.2814H112.502L112.387 17.0492C112.419 17.0365 112.446 17.014 112.464 16.985C112.482 16.9559 112.491 16.9219 112.488 16.8878ZM112.283 16.982H112.186V16.7902H112.283C112.35 16.7902 112.391 16.8238 112.391 16.8844C112.391 16.945 112.347 16.982 112.283 16.982ZM35.8559 9.94411V8.41005H33.5043V17.537H35.8559V12.0635C35.8559 11.0711 36.4917 10.5867 37.4841 10.5867H38.7726V8.41005H37.6725C36.8113 8.41005 36.0611 8.85748 35.8559 9.94411ZM40.9728 4.80029C40.1687 4.80029 39.5497 5.43612 39.5497 6.24016C39.5497 6.42703 39.5865 6.61208 39.6581 6.78473C39.7296 6.95738 39.8344 7.11426 39.9665 7.2464C40.0987 7.37855 40.2556 7.48336 40.4282 7.55488C40.6009 7.62639 40.7859 7.6632 40.9728 7.6632C41.1597 7.6632 41.3447 7.62639 41.5174 7.55488C41.69 7.48336 41.8469 7.37855 41.979 7.2464C42.1112 7.11426 42.216 6.95738 42.2875 6.78473C42.359 6.61208 42.3958 6.42703 42.3958 6.24016C42.3958 5.43612 41.7802 4.80029 40.9728 4.80029ZM39.802 17.537H42.1502V8.41005H39.802V17.537ZM53.326 12.9719C53.3257 14.2227 52.8286 15.4221 51.9442 16.3066C51.0597 17.191 49.8603 17.6881 48.6094 17.6884C47.6098 17.6939 46.6363 17.3686 45.8407 16.7633V20.2149H43.4925V8.41005H45.8407V9.18381C46.6366 8.57894 47.6098 8.25373 48.6094 8.25866C49.2287 8.25817 49.842 8.37973 50.4142 8.61637C50.9864 8.85302 51.5064 9.20013 51.9445 9.63784C52.3825 10.0756 52.73 10.5953 52.967 11.1674C53.2041 11.7394 53.3261 12.3526 53.326 12.9719ZM50.9644 12.9719C50.9644 12.4649 50.814 11.9692 50.5323 11.5477C50.2507 11.1261 49.8503 10.7975 49.3819 10.6035C48.9135 10.4095 48.398 10.3587 47.9008 10.4576C47.4035 10.5565 46.9467 10.8007 46.5882 11.1592C46.2297 11.5177 45.9855 11.9745 45.8866 12.4718C45.7877 12.969 45.8385 13.4845 46.0325 13.9529C46.2265 14.4213 46.5551 14.8217 46.9767 15.1033C47.3982 15.385 47.8939 15.5354 48.4009 15.5354C48.7375 15.5355 49.0709 15.4692 49.382 15.3404C49.693 15.2116 49.9757 15.0228 50.2137 14.7847C50.4518 14.5467 50.6406 14.264 50.7694 13.953C50.8982 13.6419 50.9645 13.3085 50.9644 12.9719ZM94.1132 12.1712L92.744 11.7944C91.8424 11.5589 91.4925 11.2831 91.4925 10.8087C91.4925 10.3444 91.9871 10.0215 92.6902 10.0215C93.363 10.0215 93.8878 10.4622 93.8878 11.024V11.0778H96.051V11.024C96.051 9.36884 94.702 8.2553 92.6902 8.2553C90.6986 8.2553 89.252 9.36547 89.252 10.8995C89.252 12.0905 90.0426 12.9887 91.4219 13.3621L92.7339 13.7187C93.7297 13.9946 94.0998 14.3007 94.0998 14.8491C94.0998 15.4277 93.5649 15.8146 92.7676 15.8146C91.9366 15.8146 91.3782 15.2898 91.3782 14.5093V14.4555H89.0838V14.5093C89.0838 16.3798 90.5909 17.6884 92.7507 17.6884C94.8298 17.6884 96.3403 16.41 96.3403 14.6506C96.3403 13.7927 95.9534 12.6624 94.1132 12.1712ZM61.649 8.41005H63.9972V17.537H61.649V16.7633C60.8531 17.3682 59.8799 17.6934 58.8803 17.6884C57.6293 17.6884 56.4297 17.1915 55.5451 16.307C54.6606 15.4225 54.1637 14.2228 54.1637 12.9719C54.1637 11.721 54.6606 10.5213 55.5451 9.63675C56.4297 8.75222 57.6293 8.2553 58.8803 8.2553C59.8799 8.24983 60.8534 8.5751 61.649 9.18044V8.41005ZM61.649 12.9719C61.649 12.4649 61.4986 11.9692 61.2169 11.5477C60.9353 11.1261 60.5349 10.7975 60.0665 10.6035C59.5981 10.4095 59.0826 10.3587 58.5854 10.4576C58.0881 10.5565 57.6313 10.8007 57.2728 11.1592C56.9143 11.5177 56.6701 11.9745 56.5712 12.4718C56.4723 12.969 56.5231 13.4845 56.7171 13.9529C56.9111 14.4213 57.2397 14.8217 57.6613 15.1033C58.0828 15.385 58.5785 15.5354 59.0855 15.5354C59.4221 15.5355 59.7555 15.4692 60.0666 15.3404C60.3776 15.2116 60.6603 15.0228 60.8983 14.7847C61.1364 14.5467 61.3252 14.264 61.454 13.953C61.5828 13.6419 61.6491 13.3085 61.649 12.9719ZM72.4715 5.16026H74.8197V17.537H72.4715V16.7633C71.6757 17.3682 70.7024 17.6934 69.7028 17.6884C68.4519 17.6884 67.2522 17.1915 66.3677 16.307C65.4832 15.4225 64.9862 14.2228 64.9862 12.9719C64.9862 11.721 65.4832 10.5213 66.3677 9.63675C67.2522 8.75222 68.4519 8.2553 69.7028 8.2553C70.7024 8.25036 71.6757 8.57558 72.4715 9.18044V5.16026ZM72.4715 12.9719C72.4715 12.4649 72.3212 11.9692 72.0395 11.5477C71.7578 11.1261 71.3574 10.7975 70.889 10.6035C70.4206 10.4095 69.9052 10.3587 69.4079 10.4576C68.9106 10.5565 68.4539 10.8007 68.0953 11.1592C67.7368 11.5177 67.4927 11.9745 67.3938 12.4718C67.2949 12.969 67.3456 13.4845 67.5396 13.9529C67.7337 14.4213 68.0622 14.8217 68.4838 15.1033C68.9054 15.385 69.401 15.5354 69.908 15.5354C70.2447 15.5355 70.5781 15.4692 70.8891 15.3404C71.2002 15.2116 71.4828 15.0228 71.7209 14.7847C71.9589 14.5467 72.1478 14.264 72.2766 13.953C72.4054 13.6419 72.4716 13.3085 72.4715 12.9719ZM85.7129 17.537H88.0611V8.41005H85.7129V17.537ZM86.887 4.80029C86.0829 4.80029 85.4639 5.43612 85.4639 6.24016C85.4639 6.61757 85.6139 6.97953 85.8807 7.2464C86.1476 7.51328 86.5096 7.6632 86.887 7.6632C87.2644 7.6632 87.6264 7.51328 87.8932 7.2464C88.1601 6.97953 88.31 6.61757 88.31 6.24016C88.3067 5.43612 87.691 4.80029 86.887 4.80029ZM106.483 12.9719C106.483 13.9047 106.207 14.8166 105.688 15.5923C105.17 16.3679 104.434 16.9724 103.572 17.3294C102.71 17.6864 101.761 17.7798 100.847 17.5978C99.9316 17.4158 99.0912 16.9666 98.4316 16.307C97.772 15.6474 97.3228 14.8069 97.1408 13.892C96.9588 12.9771 97.0522 12.0288 97.4092 11.1669C97.7662 10.3051 98.3707 9.56844 99.1463 9.05018C99.922 8.53192 100.834 8.2553 101.767 8.2553C103.018 8.25565 104.217 8.75269 105.101 9.63714C105.986 10.5216 106.483 11.7211 106.483 12.9719ZM104.327 12.9719C104.327 12.4649 104.177 11.9692 103.895 11.5477C103.613 11.1261 103.213 10.7975 102.744 10.6035C102.276 10.4095 101.761 10.3587 101.263 10.4576C100.766 10.5565 100.309 10.8007 99.9507 11.1592C99.5922 11.5177 99.348 11.9745 99.2491 12.4718C99.1502 12.969 99.201 13.4845 99.395 13.9529C99.589 14.4213 99.9176 14.8217 100.339 15.1033C100.761 15.385 101.256 15.5354 101.763 15.5354C102.1 15.5355 102.433 15.4692 102.744 15.3404C103.056 15.2116 103.338 15.0228 103.576 14.7847C103.814 14.5467 104.003 14.264 104.132 13.953C104.261 13.6419 104.327 13.3085 104.327 12.9719ZM34.6549 5.16026H25.6523V7.25277H28.9862V17.5337H31.3243V7.25277H34.6582L34.6549 5.16026ZM80.1788 15.0375L78.0897 8.41005H75.6271L78.7592 17.537H81.5817L84.7306 8.41005H82.2646L80.1788 15.0375ZM109.921 9.94411V8.41005H107.57V17.537H109.921V12.0635C109.921 11.0711 110.557 10.5867 111.55 10.5867H112.838V8.41005H111.738C110.874 8.41005 110.127 8.85748 109.921 9.94411Z" fill="black"/>
<path d="M12.082 24C18.7094 24 24.082 18.6274 24.082 12C24.082 5.37258 18.7094 0 12.082 0C5.45461 0 0.0820312 5.37258 0.0820312 12C0.0820312 18.6274 5.45461 24 12.082 24Z" fill="#34E0A1"/>
<path d="M19.4918 9.65891L20.9384 8.08447H17.729C16.0651 6.95127 14.0987 6.34521 12.0856 6.34521C10.0725 6.34521 8.10601 6.95127 6.44217 8.08447H3.22266L4.66925 9.65891C4.24116 10.0523 3.89474 10.5262 3.64979 11.0535C3.40483 11.5808 3.26614 12.1512 3.24161 12.7321C3.21709 13.3129 3.30722 13.893 3.50687 14.439C3.70651 14.9851 4.01175 15.4865 4.40516 15.9146C4.79858 16.3427 5.27246 16.6891 5.79975 16.934C6.32704 17.179 6.89741 17.3177 7.47831 17.3422C8.0592 17.3667 8.63923 17.2766 9.18529 17.077C9.73135 16.8773 10.2327 16.5721 10.6608 16.1787L12.0805 17.7228L13.5002 16.1787C13.9271 16.5788 14.4291 16.8904 14.9771 17.0953C15.5251 17.3003 16.1084 17.3946 16.6931 17.3728C17.2778 17.351 17.8523 17.2135 18.3836 16.9683C18.9148 16.7231 19.3922 16.375 19.7881 15.9442C20.184 15.5134 20.4906 15.0084 20.6902 14.4584C20.8898 13.9083 20.9783 13.3242 20.9508 12.7398C20.9232 12.1553 20.7801 11.5821 20.5297 11.0533C20.2792 10.5245 19.9265 10.0506 19.4918 9.65891ZM7.65327 15.9264C7.06109 15.9264 6.48221 15.7508 5.98983 15.4218C5.49745 15.0928 5.11369 14.6251 4.88707 14.078C4.66045 13.5309 4.60116 12.9289 4.71669 12.3481C4.83222 11.7673 5.11738 11.2338 5.53611 10.8151C5.95485 10.3964 6.48835 10.1112 7.06915 9.99567C7.64995 9.88014 8.25197 9.93943 8.79907 10.166C9.34617 10.3927 9.81379 10.7764 10.1428 11.2688C10.4718 11.7612 10.6474 12.3401 10.6474 12.9322C10.6474 13.7263 10.3319 14.4879 9.77043 15.0494C9.20892 15.6109 8.44736 15.9264 7.65327 15.9264ZM12.0805 12.8414C12.0805 10.87 10.6474 9.17783 8.75335 8.45453C9.80691 8.01483 10.9372 7.78842 12.0788 7.78842C13.2205 7.78842 14.3508 8.01483 15.4043 8.45453C13.5137 9.18119 12.0805 10.87 12.0805 12.8414ZM16.5078 15.9264C15.9156 15.9264 15.3367 15.7508 14.8443 15.4218C14.352 15.0928 13.9682 14.6251 13.7416 14.078C13.515 13.5309 13.4557 12.9289 13.5712 12.3481C13.6867 11.7673 13.9719 11.2338 14.3906 10.8151C14.8093 10.3964 15.3428 10.1112 15.9236 9.99567C16.5044 9.88014 17.1065 9.93943 17.6536 10.166C18.2007 10.3927 18.6683 10.7764 18.9973 11.2688C19.3263 11.7612 19.5019 12.3401 19.5019 12.9322C19.5019 13.7263 19.1864 14.4879 18.6249 15.0494C18.0634 15.6109 17.3019 15.9264 16.5078 15.9264ZM16.5078 11.3578C16.197 11.3578 15.8933 11.45 15.6349 11.6226C15.3766 11.7952 15.1752 12.0406 15.0563 12.3277C14.9374 12.6147 14.9063 12.9306 14.9669 13.2354C15.0275 13.5401 15.1771 13.8201 15.3969 14.0398C15.6166 14.2595 15.8965 14.4091 16.2013 14.4698C16.506 14.5304 16.8219 14.4993 17.109 14.3804C17.3961 14.2614 17.6414 14.0601 17.8141 13.8017C17.9867 13.5434 18.0788 13.2396 18.0788 12.9289C18.0789 12.7226 18.0383 12.5182 17.9593 12.3276C17.8804 12.137 17.7647 11.9638 17.6188 11.8179C17.4729 11.672 17.2997 11.5563 17.109 11.4773C16.9184 11.3984 16.7141 11.3578 16.5078 11.3578ZM9.22434 12.9289C9.22434 13.2396 9.1322 13.5434 8.95957 13.8017C8.78693 14.0601 8.54157 14.2614 8.25449 14.3804C7.96742 14.4993 7.65153 14.5304 7.34677 14.4698C7.04201 14.4091 6.76208 14.2595 6.54236 14.0398C6.32264 13.8201 6.17301 13.5401 6.11239 13.2354C6.05177 12.9306 6.08288 12.6147 6.20179 12.3277C6.3207 12.0406 6.52207 11.7952 6.78043 11.6226C7.03879 11.45 7.34254 11.3578 7.65327 11.3578C7.8596 11.3578 8.06391 11.3984 8.25454 11.4773C8.44517 11.5563 8.61839 11.672 8.76428 11.8179C8.91018 11.9638 9.0259 12.137 9.10484 12.3276C9.18377 12.5182 9.22438 12.7226 9.22434 12.9289Z" fill="black"/>
<path d="M14.6065 46.4663L20.4612 50L18.9076 43.34L24.0802 38.8589L17.2686 38.2811L14.6065 32L11.9444 38.2811L5.13281 38.8589L10.3054 43.34L8.75176 50L14.6065 46.4663Z" fill="#00AA6C"/>
<path d="M35.5557 46.4663L41.4105 50L39.8568 43.34L45.0294 38.8589L38.2178 38.2811L35.5557 32L32.8936 38.2811L26.082 38.8589L31.2547 43.34L29.701 50L35.5557 46.4663Z" fill="#00AA6C"/>
<path d="M56.501 46.4663L62.3558 50L60.8021 43.34L65.9747 38.8589L59.1631 38.2811L56.501 32L53.8389 38.2811L47.0273 38.8589L52.2 43.34L50.6463 50L56.501 46.4663Z" fill="#00AA6C"/>
<path d="M77.4502 46.4663L83.305 50L81.7513 43.34L86.9239 38.8589L80.1124 38.2811L77.4502 32L74.7881 38.2811L67.9766 38.8589L73.1492 43.34L71.5955 50L77.4502 46.4663Z" fill="#00AA6C"/>
<path d="M98.3956 46.4663L104.25 50L102.697 43.34L107.869 38.8589L101.058 38.2811L98.3956 32L95.7335 38.2811L88.9219 38.8589L94.0945 43.34L92.5408 50L98.3956 46.4663Z" fill="#00AA6C"/>
</svg>
