<svg width="103" height="56" viewBox="0 0 103 56" fill="none" xmlns="http://www.w3.org/2000/svg">
<g clip-path="url(#clip0_1946_3623)">
<path d="M92.3614 22.379C92.0882 22.1022 91.7772 21.8655 91.4377 21.6758C91.3733 21.6399 91.2972 21.5924 91.2265 21.5512C90.8559 21.3295 90.4104 21.0952 89.891 20.8122C89.0914 20.3758 88.289 19.9461 87.4838 19.5231L86.0575 18.7672C85.9818 18.7382 85.9087 18.7029 85.839 18.6616C85.5651 18.5214 85.274 18.4174 84.9733 18.3523C84.8688 18.3327 84.7628 18.3221 84.6565 18.3206C84.5884 18.3186 84.5202 18.3225 84.4528 18.3322C84.1675 18.3765 83.9034 18.5096 83.6981 18.7126C83.4929 18.9156 83.3568 19.1782 83.3094 19.4629C83.288 19.6441 83.2948 19.8275 83.3294 20.0067C83.4136 20.3845 83.5542 20.7475 83.7465 21.0835L84.5077 22.5109C84.93 23.3154 85.3614 24.1164 85.802 24.9138C86.085 25.4333 86.3215 25.8798 86.5411 26.2483C86.5833 26.318 86.6308 26.3929 86.6677 26.4595C86.8572 26.7991 87.094 27.1101 87.3709 27.3832C87.5132 27.5202 87.6836 27.6247 87.8703 27.6894C88.0664 27.7539 88.2739 27.7769 88.4794 27.757C88.5838 27.744 88.6874 27.7257 88.7898 27.7021C88.891 27.6753 88.9908 27.6433 89.0886 27.606C89.194 27.566 89.2963 27.5184 89.3948 27.4635C89.9727 27.1387 90.5052 26.739 90.9784 26.2747C91.5526 25.7242 92.0454 25.0946 92.4417 24.405C92.4964 24.3057 92.5441 24.2027 92.5842 24.0967C92.6208 23.9988 92.6521 23.8991 92.6782 23.7979C92.7021 23.6952 92.7197 23.5912 92.731 23.4864C92.7511 23.2812 92.7277 23.074 92.6623 22.8783C92.5979 22.691 92.493 22.5201 92.3551 22.3779L92.3614 22.379ZM81.617 19.8451C81.4311 19.5788 81.1555 19.3883 80.8407 19.3085C80.5259 19.2286 80.1929 19.2647 79.9025 19.4102C79.8085 19.4583 79.7191 19.5149 79.6354 19.5791C79.3929 19.7685 79.1767 19.9894 78.9924 20.2358C78.9475 20.304 78.8978 20.369 78.8435 20.43L77.8934 21.7402C77.3528 22.474 76.8207 23.2088 76.2928 23.9573C75.9486 24.4408 75.652 24.8473 75.4165 25.2084C75.3722 25.2759 75.3257 25.352 75.2835 25.4121C75.0588 25.731 74.881 26.0805 74.7556 26.45C74.6936 26.6383 74.6741 26.8381 74.6986 27.0348C74.7252 27.2399 74.7946 27.437 74.9024 27.6134C74.9594 27.7021 75.0206 27.7876 75.085 27.8699C75.2279 28.0338 75.3887 28.1811 75.5644 28.3091C76.2236 28.7557 76.9436 29.1052 77.7023 29.3469C78.3318 29.5554 78.986 29.68 79.648 29.7175C79.7607 29.7235 79.8736 29.721 79.9859 29.7101C80.0901 29.7016 80.1937 29.6871 80.2963 29.6668C80.3987 29.6426 80.4999 29.613 80.5993 29.5782C80.7921 29.5145 80.9676 29.407 81.112 29.2641C81.2563 29.1213 81.3656 28.9469 81.4312 28.7547C81.5611 28.3881 81.6379 28.0049 81.6592 27.6166C81.6592 27.5427 81.6751 27.454 81.6814 27.3737C81.7194 26.944 81.7374 26.4405 81.7648 25.8482C81.8102 24.9371 81.8472 24.0302 81.8704 23.1201L81.9306 21.5037C81.9543 21.1135 81.9187 20.7219 81.825 20.3424C81.7794 20.1648 81.706 19.9956 81.6075 19.8409L81.617 19.8451ZM82.129 13.972C82.5577 13.4335 82.5513 12.6301 82.5936 11.9734C82.7234 9.7806 82.8575 7.58674 82.9642 5.39182C83.0064 4.56199 83.0961 3.74167 83.0444 2.90445C83.0043 2.21293 82.999 1.42006 82.563 0.852062C81.7923 -0.146684 80.1506 -0.0643344 79.0304 0.0919176C78.6873 0.139427 78.3442 0.197493 78.0032 0.285121C77.6621 0.372749 77.3243 0.456154 76.9938 0.562785C75.9191 0.914352 74.4072 1.56048 74.1517 2.79993C74.0082 3.50307 74.3502 4.21993 74.6152 4.85866C74.9372 5.63253 75.3764 6.33039 75.7766 7.05886C76.8323 8.98456 77.9124 10.8976 78.9882 12.8117C79.3049 13.3828 79.6586 14.1071 80.2804 14.4027C80.3211 14.4216 80.3631 14.4375 80.4061 14.4502C80.6841 14.5574 80.9881 14.578 81.2781 14.5093L81.3309 14.4977C81.5981 14.4236 81.8399 14.2775 82.0298 14.0754C82.0651 14.0427 82.0979 14.0074 82.128 13.9698M92.7204 11.4835C92.3476 10.6985 91.8442 9.98234 91.2318 9.36569C91.1528 9.28708 91.0681 9.21439 90.9784 9.1482C90.896 9.08472 90.8104 9.02551 90.7219 8.97084C90.6304 8.92107 90.5363 8.87631 90.44 8.83675C90.2505 8.76133 90.0471 8.72748 89.8435 8.73751C89.6484 8.74864 89.4581 8.80233 89.286 8.89482C88.9487 9.07903 88.6394 9.31047 88.3675 9.58212C88.3158 9.63491 88.2514 9.69297 88.1923 9.74682C87.8829 10.0382 87.5366 10.3982 87.127 10.8163C86.4935 11.4571 85.8706 12.1012 85.2499 12.7526L84.1403 13.9033C83.9378 14.1144 83.7532 14.3418 83.5881 14.5832C83.4475 14.7873 83.3482 15.0168 83.2957 15.2589C83.2641 15.4449 83.2684 15.6352 83.3083 15.8195L83.3147 15.8438C83.357 16.0334 83.4363 16.2128 83.548 16.3717C83.6593 16.5308 83.8002 16.667 83.9629 16.7729C84.2911 16.9841 84.6885 17.0598 85.0714 16.984C85.1316 16.9756 85.177 16.965 85.2087 16.9587L91.1209 15.5862C91.5876 15.4806 92.0606 15.3751 92.4786 15.1365C92.7605 14.9728 93.0276 14.8113 93.2103 14.4861C93.3089 14.3068 93.3683 14.1085 93.3845 13.9044C93.4753 13.0988 93.054 12.1824 92.7141 11.4761M77.4478 18.7461L78.8203 18.4294C78.8657 18.4199 78.91 18.4072 78.9544 18.3935C79.3317 18.2924 79.6551 18.0488 79.8564 17.714C80.0576 17.3792 80.1211 16.9793 80.0334 16.5987V16.5744C79.9886 16.3917 79.9098 16.219 79.8011 16.0655C79.6478 15.8706 79.4577 15.7078 79.2416 15.5862C78.9876 15.4419 78.722 15.319 78.4476 15.2188L76.9432 14.6719C76.0986 14.3552 75.254 14.0533 74.4094 13.7555C73.8593 13.5602 73.3916 13.3881 72.9851 13.2635C72.9091 13.2393 72.8247 13.216 72.756 13.1928C72.3929 13.0675 72.0134 12.9964 71.6295 12.9817C71.4344 12.9746 71.2401 13.0107 71.0605 13.0872C70.8725 13.1672 70.704 13.2868 70.5664 13.4377C70.4979 13.5161 70.4334 13.5978 70.3732 13.6827C70.2556 13.8603 70.1582 14.0504 70.0829 14.2496C69.8034 15.0729 69.6646 15.9373 69.6722 16.8067C69.6785 17.5921 69.7007 18.6015 70.1325 19.2845C70.2359 19.4601 70.3755 19.6116 70.5421 19.729C70.8493 19.9402 71.1597 19.9697 71.4849 19.9929C71.9674 20.0267 72.4351 19.9085 72.9028 19.8008L77.4489 18.745L77.4478 18.7461Z" fill="#FF1A1A"/>
<path fill-rule="evenodd" clip-rule="evenodd" d="M23.1823 20.5357L22.4876 22.0623C22.1709 22.7253 21.8605 23.4042 21.5628 24.0841C21.4677 24.2952 21.3727 24.5064 21.2745 24.7175C19.9538 27.6578 18.3881 31.1418 14.9717 31.8808C13.3184 32.2461 10.8236 31.7478 9.89876 30.1916C8.97391 28.6164 10.3453 26.8132 12.1158 27.225C12.4042 27.3054 12.6822 27.4187 12.9446 27.5628C13.406 27.7919 13.8737 28.0252 14.3794 27.9218C14.8576 27.8394 15.1564 27.491 15.5354 27.0434C15.9416 26.5705 16.2334 26.0106 16.3885 25.4069C16.3801 25.3879 16.3716 25.3679 16.3642 25.3478C16.3575 25.3283 16.3494 25.3092 16.3399 25.2908C15.9092 24.4884 15.5344 23.7705 15.2198 23.1719C15.016 22.7813 14.8376 22.4413 14.6919 22.1594L13.9687 20.7954C13.4408 19.7935 13.3532 19.6341 13.1241 19.197C12.611 18.2271 12.0715 17.2716 11.5056 16.3306C10.8933 15.3033 10.2672 14.161 10.7782 12.9522C10.873 12.7194 11.0109 12.5067 11.1847 12.325C11.3574 12.1424 11.5634 11.9944 11.7917 11.889C12.0189 11.7818 12.2642 11.7184 12.5149 11.7022C12.7647 11.6861 13.0153 11.7165 13.254 11.7919C14.3182 12.115 14.788 13.1274 15.2303 14.0734C15.3095 14.2434 15.3887 14.4123 15.4689 14.5759C16.1784 15.9843 16.8731 17.3916 17.5667 18.799C17.628 18.9404 17.7209 19.1305 17.8349 19.3617C17.9352 19.5728 18.0524 19.8093 18.178 20.0754C18.2424 20.2126 18.3047 20.3414 18.3617 20.4575C18.4335 20.6054 18.4958 20.7352 18.5412 20.8387C18.8628 20.0342 19.188 19.2332 19.5167 18.4358C19.8454 17.6383 20.1702 16.8374 20.4912 16.0329C20.4996 15.9885 20.5767 15.8217 20.6918 15.5588C20.8649 15.1756 21.0317 14.7913 21.1932 14.3975C21.6219 13.3534 22.1371 12.097 23.2836 11.7581C23.688 11.6379 24.1201 11.6489 24.5178 11.7898C24.9177 11.9254 25.2643 12.1841 25.5081 12.5288C25.7397 12.8657 25.8664 13.2635 25.8724 13.6722C25.8861 14.5516 25.4606 15.4944 25.0964 16.3053C25.0077 16.5027 24.9232 16.6917 24.8483 16.8701L24.805 16.9672C24.6994 17.1931 24.4291 17.8118 23.9604 18.8243C23.7894 19.1885 23.6257 19.5528 23.46 19.9202C23.3692 20.1218 23.2784 20.3256 23.1844 20.5304M58.0571 23.667C55.9108 23.667 54.1593 21.7952 54.1593 19.4599C54.1593 17.1066 55.8939 15.2368 58.0571 15.2368C60.2204 15.2368 61.9571 17.1087 61.9571 19.4599C61.9402 21.7941 60.2056 23.667 58.0582 23.667H58.0571ZM58.983 11.6736C57.0995 11.6736 55.3818 12.5183 54.1593 13.8907V13.8401C54.1115 13.3045 53.8613 12.8073 53.4596 12.4499C53.0578 12.0925 52.5349 11.9018 51.9974 11.9168C51.4599 11.9317 50.9483 12.1512 50.5671 12.5303C50.1859 12.9095 49.9636 13.4198 49.9457 13.9573V29.8802C49.9457 30.4412 50.1686 30.9792 50.5653 31.3759C50.9619 31.7725 51.5 31.9954 52.061 31.9954C52.6219 31.9954 53.16 31.7725 53.5566 31.3759C53.9533 30.9792 54.1762 30.4412 54.1762 29.8802V24.9128C55.3977 26.2716 57.0995 27.1299 58.9999 27.1299C62.7827 27.1299 65.856 23.7008 65.856 19.4282C65.8391 15.1534 62.7658 11.6736 58.983 11.6736ZM31.5914 16.0624C30.9318 16.5896 30.476 17.3297 30.3023 18.156H37.5036C37.3175 17.3314 36.8584 16.5937 36.2008 16.0624C35.5472 15.5292 34.7301 15.2369 33.8866 15.2347C33.0499 15.2428 32.2407 15.5346 31.5914 16.0624ZM41.2896 18.7968C41.2727 19.1273 41.1903 19.7407 40.7617 20.1883C40.3742 20.5709 39.8514 20.7853 39.3069 20.7848C37.795 20.7933 36.2818 20.7986 34.7671 20.8007C33.2525 20.8028 31.7392 20.8084 30.2274 20.8176C30.4183 21.4325 30.7589 21.9905 31.2187 22.4413C31.4764 22.6889 31.7653 22.9019 32.0781 23.0748C32.5573 23.3609 33.1036 23.5153 33.6617 23.5224C34.4884 23.5224 35.2148 23.2574 35.9253 22.889L35.9855 22.8573C36.4785 22.6028 36.9884 22.3379 37.5269 22.2418C38.0653 22.1457 38.6185 22.2597 39.0324 22.6218C39.2748 22.8258 39.4523 23.0961 39.5433 23.3996C39.6343 23.703 39.6346 24.0264 39.5444 24.3301C39.3333 25.0585 38.7178 25.6878 38.0737 26.07C37.703 26.2849 37.3145 26.4675 36.9124 26.6158C35.8902 26.9798 34.8085 27.1481 33.724 27.112C33.4485 27.1169 33.1728 27.1064 32.8984 27.0803C32.6032 27.0428 32.3105 26.9871 32.0222 26.9135C31.5662 26.8146 31.1228 26.6648 30.7003 26.4669C30.2772 26.2795 29.8731 26.0518 29.4936 25.787C29.1152 25.5154 28.7619 25.2105 28.4379 24.8759C28.1206 24.5373 27.8334 24.1716 27.5795 23.7832C26.6934 22.398 26.2653 20.7692 26.3559 19.1273C26.4178 17.5157 26.9577 15.959 27.9068 14.6551C28.0083 14.5031 28.1212 14.3591 28.2447 14.2244L28.3861 14.0597C29.5686 12.6112 31.1511 12.154 31.8026 11.965L31.8384 11.9545C33.1605 11.5712 34.5642 11.5712 35.8862 11.9545C36.2029 12.0379 37.9682 12.5879 39.3396 14.0597C39.5114 14.2481 39.6715 14.447 39.8189 14.6551C40.4087 15.4515 40.8412 16.353 41.0932 17.3114V17.3209C41.2256 17.8024 41.2923 18.2996 41.2917 18.799M43.2565 8.49476C43.2564 7.9324 43.4781 7.39269 43.8733 6.99267C44.2686 6.59265 44.8056 6.36458 45.368 6.35791C46.5093 6.35791 47.4341 7.31865 47.4795 8.51165V25.1926C47.4798 25.7551 47.2582 26.2949 46.8629 26.695C46.4676 27.0951 45.9304 27.3231 45.368 27.3295C45.0885 27.3295 44.8119 27.274 44.554 27.1664C44.2962 27.0587 44.0623 26.9009 43.8659 26.7021C43.6695 26.5033 43.5145 26.2676 43.4099 26.0084C43.3052 25.7493 43.2531 25.472 43.2565 25.1926V8.49371V8.49476Z" fill="black"/>
</g>
<path d="M9.6065 52.4663L15.4612 56L13.9076 49.34L19.0802 44.8589L12.2686 44.2811L9.6065 38L6.94439 44.2811L0.132812 44.8589L5.30544 49.34L3.75176 56L9.6065 52.4663Z" fill="#FF1A1A"/>
<path d="M30.5557 52.4663L36.4105 56L34.8568 49.34L40.0294 44.8589L33.2178 44.2811L30.5557 38L27.8936 44.2811L21.082 44.8589L26.2547 49.34L24.701 56L30.5557 52.4663Z" fill="#FF1A1A"/>
<path d="M51.501 52.4663L57.3558 56L55.8021 49.34L60.9747 44.8589L54.1631 44.2811L51.501 38L48.8389 44.2811L42.0273 44.8589L47.2 49.34L45.6463 56L51.501 52.4663Z" fill="#FF1A1A"/>
<path d="M72.4502 52.4663L78.305 56L76.7513 49.34L81.9239 44.8589L75.1124 44.2811L72.4502 38L69.7881 44.2811L62.9766 44.8589L68.1492 49.34L66.5955 56L72.4502 52.4663Z" fill="#FF1A1A"/>
<path d="M93.3956 52.4663L99.2503 56L97.6966 49.34L102.869 44.8589L96.0577 44.2811L93.3956 38L90.7335 44.2811L83.9219 44.8589L89.0945 49.34L87.5408 56L93.3956 52.4663Z" fill="#FF1A1A"/>
<defs>
<clipPath id="clip0_1946_3623">
<rect width="83.7986" height="32" fill="white" transform="translate(9.60156)"/>
</clipPath>
</defs>
</svg>
