<svg width="109" height="24" viewBox="0 0 109 24" fill="none" xmlns="http://www.w3.org/2000/svg">
<path d="M34.2827 3.75529C33.8874 2.28706 32.7298 1.12941 31.2615 0.734118C28.5792 0 17.8498 0 17.8498 0C17.8498 0 7.12035 0 4.438 0.705882C2.998 1.10118 1.81211 2.28706 1.41682 3.75529C0.710938 6.43765 0.710938 12 0.710938 12C0.710938 12 0.710938 17.5906 1.41682 20.2447C1.81211 21.7129 2.96976 22.8706 4.438 23.2659C7.14858 24 17.8498 24 17.8498 24C17.8498 24 28.5792 24 31.2615 23.2941C32.7298 22.8988 33.8874 21.7412 34.2827 20.2729C34.9886 17.5906 34.9886 12.0282 34.9886 12.0282C34.9886 12.0282 35.0168 6.43765 34.2827 3.75529Z" fill="#FF0000"/>
<path d="M14.4336 6.86133V17.139L23.3559 12.0002L14.4336 6.86133Z" fill="white"/>
<path d="M50.4924 21.8541C49.8148 21.4024 49.3348 20.6965 49.0524 19.7082C48.7701 18.7482 48.6289 17.4494 48.6289 15.8682V13.6941C48.6289 12.0847 48.7983 10.7859 49.1089 9.79765C49.4477 8.80942 49.956 8.10353 50.6336 7.65177C51.3395 7.2 52.243 6.97412 53.3724 6.97412C54.4736 6.97412 55.3771 7.2 56.0548 7.65177C56.7324 8.10353 57.2124 8.83765 57.523 9.79765C57.8336 10.7577 58.003 12.0565 58.003 13.6941V15.8682C58.003 17.4777 57.8618 18.7482 57.5513 19.7365C57.2407 20.6965 56.7607 21.4306 56.083 21.8824C55.4054 22.3341 54.4736 22.56 53.316 22.56C52.1301 22.5318 51.1701 22.3059 50.4924 21.8541ZM54.3042 19.4824C54.5018 19.0024 54.5866 18.1835 54.5866 17.0824V12.3953C54.5866 11.3224 54.5018 10.5318 54.3042 10.0235C54.1066 9.5153 53.796 9.28942 53.316 9.28942C52.8642 9.28942 52.5254 9.54353 52.356 10.0235C52.1583 10.5318 52.0736 11.3224 52.0736 12.3953V17.0824C52.0736 18.1835 52.1583 19.0024 52.356 19.4824C52.5254 19.9624 52.8642 20.2165 53.3442 20.2165C53.796 20.2165 54.1066 19.9906 54.3042 19.4824Z" fill="#282828"/>
<path d="M102.615 15.8963V16.6587C102.615 17.6187 102.643 18.3528 102.7 18.8328C102.756 19.3128 102.869 19.6798 103.067 19.8775C103.236 20.1034 103.519 20.2163 103.914 20.2163C104.422 20.2163 104.761 20.0187 104.959 19.6234C105.156 19.2281 105.241 18.5787 105.269 17.6469L108.177 17.8163C108.206 17.9575 108.206 18.1269 108.206 18.3528C108.206 19.7363 107.839 20.781 107.076 21.4587C106.314 22.1363 105.241 22.4751 103.857 22.4751C102.192 22.4751 101.034 21.9387 100.356 20.894C99.6787 19.8492 99.3398 18.2398 99.3398 16.0375V13.4116C99.3398 11.1528 99.6787 9.51513 100.385 8.47042C101.09 7.42572 102.276 6.91748 103.942 6.91748C105.1 6.91748 106.003 7.14336 106.625 7.56689C107.246 7.99042 107.669 8.66807 107.923 9.54336C108.177 10.4469 108.29 11.6892 108.29 13.2704V15.8398H102.615V15.8963ZM103.039 9.5716C102.869 9.79748 102.756 10.1363 102.7 10.6163C102.643 11.0963 102.615 11.8304 102.615 12.8187V13.8916H105.1V12.8187C105.1 11.8587 105.072 11.1245 105.015 10.6163C104.959 10.1081 104.817 9.76925 104.648 9.5716C104.479 9.37395 104.196 9.26101 103.857 9.26101C103.462 9.23277 103.208 9.34572 103.039 9.5716Z" fill="#282828"/>
<path d="M42.2463 15.6138L38.4062 1.69385H41.7662L43.1215 7.99032C43.4604 9.54326 43.7145 10.8703 43.8839 11.9715H43.9686C44.0815 11.1809 44.3357 9.88208 44.731 8.01855L46.1427 1.69385H49.5027L45.6063 15.6138V22.2774H42.2745V15.6138H42.2463Z" fill="#282828"/>
<path d="M68.9304 7.25635V22.3058H66.2763L65.9939 20.4705H65.9092C65.2033 21.854 64.1021 22.5599 62.6621 22.5599C61.6739 22.5599 60.9398 22.2211 60.4598 21.5716C59.9798 20.9222 59.7539 19.9058 59.7539 18.494V7.25635H63.1421V18.2963C63.1421 18.974 63.2268 19.454 63.368 19.7363C63.5092 20.0187 63.7633 20.1599 64.1021 20.1599C64.3845 20.1599 64.6668 20.0752 64.9492 19.8775C65.2316 19.7081 65.4292 19.4822 65.5421 19.1999V7.25635H68.9304Z" fill="#282828"/>
<path d="M86.2937 7.25635V22.3058H83.6395L83.3572 20.4705H83.2725C82.5666 21.854 81.4654 22.5599 80.0254 22.5599C79.0372 22.5599 78.3031 22.2211 77.8231 21.5716C77.3431 20.9222 77.1172 19.9058 77.1172 18.494V7.25635H80.5054V18.2963C80.5054 18.974 80.5901 19.454 80.7313 19.7363C80.8725 20.0187 81.1266 20.1599 81.4654 20.1599C81.7478 20.1599 82.0301 20.0752 82.3125 19.8775C82.5948 19.7081 82.7925 19.4822 82.9054 19.1999V7.25635H86.2937Z" fill="#282828"/>
<path d="M78.1329 4.43267H74.7729V22.2774H71.4694V4.43267H68.1094V1.69385H78.1329V4.43267Z" fill="#282828"/>
<path d="M97.5046 9.65635C97.3069 8.69635 96.9681 8.0187 96.5164 7.59517C96.0646 7.17164 95.4152 6.94576 94.6246 6.94576C94.0034 6.94576 93.4105 7.11517 92.874 7.48223C92.3375 7.82105 91.914 8.30105 91.6317 8.86576H91.6034V0.931641H88.3281V22.2775H91.1234L91.4622 20.8658H91.547C91.8011 21.374 92.1964 21.7693 92.7328 22.0799C93.2693 22.3622 93.834 22.5316 94.4834 22.5316C95.6411 22.5316 96.4599 21.9952 96.9964 20.9505C97.5328 19.9058 97.8152 18.2399 97.8152 16.0093V13.6375C97.787 11.9152 97.7022 10.5881 97.5046 9.65635ZM94.3987 15.7834C94.3987 16.8846 94.3422 17.7316 94.2575 18.3528C94.1728 18.974 94.0034 19.4258 93.8058 19.6799C93.5799 19.934 93.2975 20.0752 92.9587 20.0752C92.6764 20.0752 92.4222 20.0187 92.1964 19.8775C91.9705 19.7363 91.7728 19.5387 91.6317 19.2846V10.7575C91.7446 10.3622 91.9422 10.0234 92.2246 9.74105C92.507 9.48694 92.8175 9.34576 93.1281 9.34576C93.4669 9.34576 93.7493 9.48694 93.9187 9.74105C94.1164 10.0234 94.2293 10.4752 94.314 11.0963C94.3987 11.7458 94.427 12.6493 94.427 13.8069V15.7834H94.3987Z" fill="#282828"/>
</svg>
