<svg width="375" height="38" viewBox="0 0 375 38" fill="none" xmlns="http://www.w3.org/2000/svg">
<path d="M375 0H0V38H375V0Z" fill="#70D2F1"/>
<path d="M124.27 13.361V23.867H122.116V13.361H124.27ZM128.436 17.8491V19.5376H123.682V17.8491H128.436ZM128.939 13.361V15.0566H123.682V13.361H128.939ZM130.188 13.361H134.089C134.888 13.361 135.575 13.4812 136.15 13.7218C136.729 13.9622 137.174 14.3183 137.486 14.7897C137.797 15.2611 137.953 15.8408 137.953 16.5287C137.953 17.0915 137.857 17.575 137.665 17.979C137.479 18.3782 137.213 18.7126 136.869 18.982C136.528 19.2465 136.129 19.4582 135.669 19.6169L134.987 19.9777H131.596L131.582 18.2893H134.103C134.482 18.2893 134.795 18.2219 135.044 18.0872C135.293 17.9525 135.48 17.765 135.605 17.5244C135.734 17.2838 135.798 17.0049 135.798 16.6873C135.798 16.3506 135.736 16.0596 135.611 15.8143C135.487 15.569 135.298 15.3813 135.044 15.2515C134.79 15.1215 134.472 15.0566 134.089 15.0566H132.343V23.867H130.188V13.361ZM136.035 23.867L133.65 19.1841L135.927 19.1696L138.341 23.766V23.867H136.035ZM146.629 22.1786V23.867H141.063V22.1786H146.629ZM141.767 13.361V23.867H139.612V13.361H141.767ZM145.903 17.6399V19.2851H141.063V17.6399H145.903ZM146.622 13.361V15.0566H141.063V13.361H146.622ZM154.903 22.1786V23.867H149.337V22.1786H154.903ZM150.041 13.361V23.867H147.886V13.361H150.041ZM154.177 17.6399V19.2851H149.337V17.6399H154.177ZM154.896 13.361V15.0566H149.337V13.361H154.896ZM165.267 21.1178C165.267 20.9303 165.239 20.7619 165.181 20.6127C165.128 20.4588 165.028 20.3193 164.879 20.1942C164.731 20.0644 164.522 19.9369 164.254 19.8118C163.986 19.6867 163.639 19.5569 163.213 19.4222C162.739 19.2682 162.288 19.0951 161.863 18.9026C161.442 18.7102 161.068 18.4865 160.742 18.2315C160.421 17.9717 160.167 17.6711 159.981 17.3295C159.799 16.9881 159.708 16.5912 159.708 16.139C159.708 15.7012 159.804 15.3044 159.995 14.9484C160.187 14.5876 160.455 14.2797 160.8 14.0248C161.144 13.765 161.551 13.5654 162.021 13.4259C162.494 13.2863 163.014 13.2167 163.579 13.2167C164.35 13.2167 165.023 13.3561 165.597 13.6351C166.172 13.9142 166.617 14.2966 166.933 14.7825C167.254 15.2683 167.415 15.8239 167.415 16.4493H165.274C165.274 16.1414 165.209 15.872 165.08 15.6411C164.956 15.4054 164.764 15.2202 164.505 15.0855C164.252 14.9509 163.931 14.8835 163.543 14.8835C163.17 14.8835 162.859 14.9411 162.61 15.0566C162.361 15.1672 162.174 15.3188 162.049 15.5112C161.925 15.6988 161.863 15.9105 161.863 16.1462C161.863 16.3242 161.906 16.4853 161.992 16.6297C162.083 16.774 162.217 16.9087 162.395 17.0338C162.571 17.1589 162.79 17.2767 163.048 17.3873C163.307 17.4979 163.606 17.6062 163.945 17.712C164.515 17.8852 165.016 18.08 165.447 18.2965C165.883 18.5129 166.246 18.7559 166.538 19.0253C166.83 19.2947 167.051 19.6002 167.199 19.9416C167.347 20.2832 167.422 20.6705 167.422 21.1034C167.422 21.5604 167.333 21.9692 167.156 22.33C166.979 22.6908 166.722 22.9963 166.387 23.2465C166.052 23.4966 165.653 23.6866 165.188 23.8165C164.724 23.9464 164.204 24.0113 163.629 24.0113C163.112 24.0113 162.603 23.944 162.099 23.8093C161.597 23.6698 161.14 23.4605 160.728 23.1815C160.321 22.9026 159.995 22.5465 159.751 22.1136C159.507 21.6807 159.384 21.1684 159.384 20.5766H161.547C161.547 20.9038 161.597 21.1804 161.697 21.4064C161.798 21.6325 161.94 21.8153 162.121 21.9549C162.308 22.0943 162.528 22.1953 162.782 22.2579C163.041 22.3204 163.323 22.3518 163.629 22.3518C164.003 22.3518 164.309 22.2988 164.548 22.193C164.793 22.0871 164.973 21.9404 165.087 21.7529C165.207 21.5652 165.267 21.3535 165.267 21.1178ZM170.776 12.7837V23.867H168.707V12.7837H170.776ZM170.482 19.6891H169.914C169.918 19.1455 169.991 18.6453 170.13 18.1882C170.268 17.7264 170.467 17.3272 170.725 16.9905C170.984 16.6489 171.293 16.3843 171.652 16.1967C172.016 16.0092 172.418 15.9153 172.859 15.9153C173.242 15.9153 173.589 15.9706 173.9 16.0812C174.217 16.1871 174.487 16.3602 174.712 16.6008C174.942 16.8365 175.119 17.1468 175.243 17.5316C175.368 17.9164 175.43 18.3831 175.43 18.9315V23.867H173.347V18.917C173.347 18.5707 173.297 18.2989 173.196 18.1017C173.101 17.8997 172.959 17.7577 172.772 17.676C172.59 17.5893 172.365 17.546 172.097 17.546C171.8 17.546 171.547 17.6014 171.336 17.712C171.13 17.8227 170.965 17.9766 170.841 18.1738C170.716 18.3662 170.625 18.5923 170.568 18.8521C170.51 19.1119 170.482 19.3908 170.482 19.6891ZM179.186 16.0596V23.867H177.11V16.0596H179.186ZM176.981 14.0248C176.981 13.7218 177.087 13.4716 177.297 13.2743C177.508 13.0771 177.791 12.9785 178.145 12.9785C178.494 12.9785 178.774 13.0771 178.986 13.2743C179.201 13.4716 179.308 13.7218 179.308 14.0248C179.308 14.3279 179.201 14.578 178.986 14.7752C178.774 14.9725 178.494 15.0711 178.145 15.0711C177.791 15.0711 177.508 14.9725 177.297 14.7752C177.087 14.578 176.981 14.3279 176.981 14.0248ZM182.965 17.5605V26.8688H180.896V16.0596H182.813L182.965 17.5605ZM187.884 19.8767V20.0283C187.884 20.5959 187.816 21.1227 187.683 21.6086C187.554 22.0943 187.363 22.5177 187.108 22.8785C186.854 23.2344 186.539 23.5134 186.161 23.7154C185.787 23.9127 185.356 24.0113 184.867 24.0113C184.393 24.0113 183.982 23.9152 183.632 23.7227C183.283 23.5303 182.988 23.2609 182.749 22.9146C182.514 22.5634 182.325 22.1569 182.182 21.6951C182.038 21.2333 181.928 20.7378 181.851 20.2087V19.8118C181.928 19.2441 182.038 18.7247 182.182 18.2532C182.325 17.777 182.514 17.3656 182.749 17.0193C182.988 16.6681 183.28 16.3963 183.625 16.2039C183.974 16.0115 184.384 15.9153 184.854 15.9153C185.346 15.9153 185.779 16.0092 186.153 16.1967C186.532 16.3843 186.848 16.6537 187.101 17.0049C187.359 17.356 187.554 17.7746 187.683 18.2604C187.816 18.7463 187.884 19.2851 187.884 19.8767ZM185.809 20.0283V19.8767C185.809 19.5448 185.779 19.2394 185.723 18.9604C185.67 18.6765 185.584 18.4288 185.464 18.2172C185.348 18.0054 185.195 17.8419 185.004 17.7264C184.817 17.6062 184.59 17.546 184.322 17.546C184.039 17.546 183.798 17.5917 183.596 17.6832C183.399 17.7746 183.24 17.9068 183.115 18.08C182.991 18.2532 182.897 18.46 182.835 18.7006C182.772 18.9411 182.734 19.2129 182.72 19.5159V20.5189C182.744 20.8749 182.811 21.1948 182.921 21.4786C183.031 21.7576 183.201 21.979 183.431 22.1425C183.661 22.3061 183.963 22.3878 184.336 22.3878C184.609 22.3878 184.839 22.3277 185.026 22.2074C185.212 22.0823 185.363 21.9116 185.478 21.6951C185.597 21.4786 185.682 21.2285 185.73 20.9446C185.782 20.6609 185.809 20.3554 185.809 20.0283ZM191.239 17.5605V26.8688H189.17V16.0596H191.087L191.239 17.5605ZM196.158 19.8767V20.0283C196.158 20.5959 196.09 21.1227 195.957 21.6086C195.828 22.0943 195.637 22.5177 195.382 22.8785C195.128 23.2344 194.813 23.5134 194.435 23.7154C194.061 23.9127 193.63 24.0113 193.141 24.0113C192.667 24.0113 192.256 23.9152 191.906 23.7227C191.557 23.5303 191.262 23.2609 191.023 22.9146C190.788 22.5634 190.599 22.1569 190.456 21.6951C190.312 21.2333 190.202 20.7378 190.125 20.2087V19.8118C190.202 19.2441 190.312 18.7247 190.456 18.2532C190.599 17.777 190.788 17.3656 191.023 17.0193C191.262 16.6681 191.554 16.3963 191.899 16.2039C192.248 16.0115 192.658 15.9153 193.128 15.9153C193.62 15.9153 194.053 16.0092 194.427 16.1967C194.806 16.3843 195.122 16.6537 195.375 17.0049C195.633 17.356 195.828 17.7746 195.957 18.2604C196.09 18.7463 196.158 19.2851 196.158 19.8767ZM194.083 20.0283V19.8767C194.083 19.5448 194.053 19.2394 193.997 18.9604C193.944 18.6765 193.858 18.4288 193.738 18.2172C193.622 18.0054 193.469 17.8419 193.278 17.7264C193.091 17.6062 192.864 17.546 192.596 17.546C192.313 17.546 192.072 17.5917 191.87 17.6832C191.673 17.7746 191.514 17.9068 191.389 18.08C191.265 18.2532 191.171 18.46 191.109 18.7006C191.046 18.9411 191.008 19.2129 190.994 19.5159V20.5189C191.018 20.8749 191.085 21.1948 191.195 21.4786C191.305 21.7576 191.475 21.979 191.705 22.1425C191.935 22.3061 192.237 22.3878 192.61 22.3878C192.883 22.3878 193.113 22.3277 193.3 22.2074C193.486 22.0823 193.637 21.9116 193.752 21.6951C193.871 21.4786 193.956 21.2285 194.004 20.9446C194.056 20.6609 194.083 20.3554 194.083 20.0283ZM199.627 16.0596V23.867H197.551V16.0596H199.627ZM197.422 14.0248C197.422 13.7218 197.528 13.4716 197.738 13.2743C197.949 13.0771 198.232 12.9785 198.586 12.9785C198.936 12.9785 199.215 13.0771 199.426 13.2743C199.642 13.4716 199.749 13.7218 199.749 14.0248C199.749 14.3279 199.642 14.578 199.426 14.7752C199.215 14.9725 198.936 15.0711 198.586 15.0711C198.232 15.0711 197.949 14.9725 197.738 14.7752C197.528 14.578 197.422 14.3279 197.422 14.0248ZM203.362 17.7264V23.867H201.293V16.0596H203.233L203.362 17.7264ZM203.061 19.6891H202.5C202.5 19.1119 202.574 18.5923 202.722 18.1305C202.871 17.6639 203.08 17.2671 203.347 16.9399C203.615 16.608 203.934 16.3555 204.302 16.1823C204.677 16.0043 205.093 15.9153 205.553 15.9153C205.916 15.9153 206.249 15.9682 206.551 16.0741C206.852 16.1798 207.111 16.3483 207.326 16.5792C207.547 16.8101 207.714 17.1155 207.83 17.4956C207.949 17.8756 208.009 18.3398 208.009 18.8882V23.867H205.926V18.881C205.926 18.5346 205.879 18.2652 205.782 18.0728C205.686 17.8804 205.545 17.7456 205.358 17.6687C205.177 17.587 204.952 17.546 204.684 17.546C204.405 17.546 204.164 17.6014 203.958 17.712C203.757 17.8227 203.589 17.9766 203.456 18.1738C203.326 18.3662 203.228 18.5923 203.16 18.8521C203.094 19.1119 203.061 19.3908 203.061 19.6891ZM214.501 16.0596H216.376V23.6073C216.376 24.3192 216.218 24.9229 215.902 25.4184C215.591 25.9187 215.155 26.2963 214.595 26.5513C214.035 26.8111 213.383 26.9409 212.642 26.9409C212.316 26.9409 211.971 26.8976 211.607 26.8111C211.248 26.7244 210.903 26.5897 210.573 26.4069C210.247 26.2242 209.974 25.9932 209.754 25.7142L210.666 24.4876C210.906 24.7666 211.183 24.9831 211.5 25.137C211.816 25.2957 212.165 25.3751 212.548 25.3751C212.921 25.3751 213.237 25.3053 213.496 25.1659C213.754 25.0312 213.953 24.8315 214.093 24.567C214.231 24.3072 214.301 23.9921 214.301 23.6217V17.8636L214.501 16.0596ZM209.273 20.0571V19.9056C209.273 19.3091 209.345 18.768 209.489 18.2821C209.637 17.7914 209.845 17.3705 210.114 17.0193C210.386 16.6681 210.717 16.3963 211.105 16.2039C211.492 16.0115 211.93 15.9153 212.419 15.9153C212.936 15.9153 213.369 16.0115 213.719 16.2039C214.068 16.3963 214.355 16.6706 214.58 17.0265C214.806 17.3777 214.98 17.7938 215.105 18.2748C215.235 18.7511 215.334 19.273 215.407 19.8406V20.1726C215.334 20.7162 215.227 21.2213 215.083 21.6878C214.939 22.1545 214.75 22.5634 214.516 22.9146C214.282 23.2609 213.99 23.5303 213.64 23.7227C213.295 23.9152 212.883 24.0113 212.404 24.0113C211.925 24.0113 211.492 23.9127 211.105 23.7154C210.721 23.5183 210.393 23.2417 210.12 22.8857C209.848 22.5297 209.637 22.1112 209.489 21.6302C209.345 21.1491 209.273 20.6248 209.273 20.0571ZM211.341 19.9056V20.0571C211.341 20.3795 211.372 20.6801 211.434 20.9591C211.497 21.2381 211.593 21.4858 211.722 21.7023C211.856 21.9139 212.022 22.08 212.217 22.2002C212.419 22.3157 212.655 22.3734 212.928 22.3734C213.307 22.3734 213.616 22.294 213.855 22.1353C214.095 21.9717 214.274 21.748 214.394 21.4642C214.514 21.1804 214.583 20.8533 214.602 20.4828V19.5376C214.593 19.2345 214.552 18.9627 214.48 18.7222C214.408 18.4769 214.308 18.2676 214.179 18.0944C214.05 17.9213 213.881 17.7866 213.675 17.6903C213.47 17.5942 213.226 17.546 212.943 17.546C212.67 17.546 212.434 17.6086 212.232 17.7337C212.035 17.8539 211.87 18.0199 211.736 18.2315C211.607 18.4433 211.509 18.6933 211.442 18.982C211.375 19.2659 211.341 19.5737 211.341 19.9056ZM224.794 20.6921L226.87 13.361H227.875L227.293 16.2112L225.059 23.867H224.061L224.794 20.6921ZM222.646 13.361L224.299 20.5478L224.794 23.867H223.803L221.268 13.361H222.646ZM230.561 20.5405L232.178 13.361H233.564L231.036 23.867H230.044L230.561 20.5405ZM228.026 13.361L230.044 20.6921L230.777 23.867H229.778L227.624 16.2112L227.035 13.361H228.026ZM234.318 20.0499V19.884C234.318 19.3212 234.399 18.7992 234.562 18.3182C234.725 17.8323 234.959 17.4114 235.266 17.0554C235.572 16.6946 235.943 16.4156 236.379 16.2184C236.814 16.0163 237.303 15.9153 237.844 15.9153C238.39 15.9153 238.881 16.0163 239.316 16.2184C239.757 16.4156 240.13 16.6946 240.437 17.0554C240.748 17.4114 240.985 17.8323 241.148 18.3182C241.311 18.7992 241.392 19.3212 241.392 19.884V20.0499C241.392 20.6127 241.311 21.1347 241.148 21.6157C240.985 22.0968 240.748 22.5177 240.437 22.8785C240.13 23.2344 239.759 23.5134 239.323 23.7154C238.893 23.9127 238.404 24.0113 237.859 24.0113C237.312 24.0113 236.822 23.9127 236.386 23.7154C235.951 23.5134 235.577 23.2344 235.266 22.8785C234.959 22.5177 234.725 22.0968 234.562 21.6157C234.399 21.1347 234.318 20.6127 234.318 20.0499ZM235.646 19.884V20.0499C235.646 20.4395 235.692 20.8076 235.783 21.1539C235.874 21.4955 236.011 21.7986 236.192 22.0631C236.379 22.3277 236.612 22.5369 236.889 22.6908C237.166 22.84 237.49 22.9146 237.859 22.9146C238.222 22.9146 238.541 22.84 238.814 22.6908C239.091 22.5369 239.321 22.3277 239.503 22.0631C239.685 21.7986 239.821 21.4955 239.913 21.1539C240.008 20.8076 240.057 20.4395 240.057 20.0499V19.884C240.057 19.4991 240.008 19.1359 239.913 18.7943C239.821 18.448 239.683 18.1425 239.496 17.878C239.314 17.6086 239.084 17.3969 238.806 17.243C238.533 17.0891 238.213 17.0121 237.844 17.0121C237.48 17.0121 237.159 17.0891 236.882 17.243C236.608 17.3969 236.379 17.6086 236.192 17.878C236.011 18.1425 235.874 18.448 235.783 18.7943C235.692 19.1359 235.646 19.4991 235.646 19.884ZM244.388 17.2863V23.867H243.058V16.0596H244.351L244.388 17.2863ZM246.815 16.0163L246.807 17.2575C246.698 17.2334 246.592 17.2189 246.492 17.2142C246.395 17.2046 246.286 17.1997 246.161 17.1997C245.854 17.1997 245.584 17.2478 245.35 17.344C245.115 17.4403 244.916 17.575 244.753 17.7481C244.59 17.9213 244.461 18.1282 244.365 18.3686C244.275 18.6043 244.215 18.8641 244.186 19.148L243.813 19.3644C243.813 18.893 243.858 18.4504 243.949 18.0368C244.045 17.623 244.191 17.2575 244.388 16.9399C244.583 16.6177 244.832 16.3675 245.135 16.1895C245.44 16.0067 245.805 15.9153 246.226 15.9153C246.322 15.9153 246.432 15.9273 246.556 15.9514C246.681 15.9706 246.767 15.9923 246.815 16.0163ZM249.486 12.7837V23.867H248.151V12.7837H249.486ZM256.519 22.3518V12.7837H257.854V23.867H256.633L256.519 22.3518ZM251.289 20.0499V19.8983C251.289 19.3019 251.361 18.7607 251.505 18.2748C251.653 17.7842 251.862 17.3632 252.13 17.0121C252.403 16.661 252.726 16.3916 253.1 16.2039C253.478 16.0115 253.899 15.9153 254.364 15.9153C254.852 15.9153 255.278 16.0019 255.642 16.1751C256.01 16.3434 256.322 16.5912 256.575 16.9183C256.834 17.2406 257.038 17.6303 257.186 18.0872C257.335 18.5443 257.438 19.0614 257.495 19.6386V20.3024C257.442 20.8749 257.339 21.3896 257.186 21.8466C257.038 22.3036 256.834 22.6932 256.575 23.0156C256.322 23.3379 256.01 23.5856 255.642 23.7588C255.273 23.9272 254.842 24.0113 254.349 24.0113C253.894 24.0113 253.478 23.9127 253.1 23.7154C252.726 23.5183 252.403 23.2417 252.13 22.8857C251.862 22.5297 251.653 22.1112 251.505 21.6302C251.361 21.1443 251.289 20.6175 251.289 20.0499ZM252.625 19.8983V20.0499C252.625 20.4395 252.664 20.8052 252.74 21.1468C252.821 21.4882 252.946 21.7888 253.113 22.0486C253.281 22.3084 253.495 22.5129 253.753 22.662C254.012 22.8063 254.321 22.8785 254.68 22.8785C255.12 22.8785 255.482 22.7847 255.764 22.5971C256.051 22.4094 256.281 22.1617 256.453 21.8539C256.626 21.546 256.76 21.2117 256.856 20.8509V19.1119C256.798 18.8473 256.714 18.5923 256.605 18.347C256.499 18.0968 256.36 17.8756 256.188 17.6832C256.021 17.486 255.811 17.3295 255.562 17.2142C255.319 17.0987 255.029 17.041 254.694 17.041C254.33 17.041 254.016 17.1179 253.753 17.2719C253.495 17.421 253.281 17.6278 253.113 17.8924C252.946 18.1521 252.821 18.4552 252.74 18.8016C252.664 19.1431 252.625 19.5087 252.625 19.8983ZM261.891 22.4816L263.887 16.0596H264.763L264.591 17.3368L262.559 23.867H261.704L261.891 22.4816ZM260.547 16.0596L262.25 22.5538L262.372 23.867H261.473L259.219 16.0596H260.547ZM266.674 22.5032L268.296 16.0596H269.618L267.364 23.867H266.473L266.674 22.5032ZM264.957 16.0596L266.911 22.3734L267.133 23.867H266.286L264.196 17.3224L264.023 16.0596H264.957ZM272.427 16.0596V23.867H271.091V16.0596H272.427ZM270.99 13.9887C270.99 13.7722 271.054 13.5894 271.185 13.4404C271.318 13.2912 271.515 13.2167 271.773 13.2167C272.027 13.2167 272.221 13.2912 272.355 13.4404C272.494 13.5894 272.563 13.7722 272.563 13.9887C272.563 14.1956 272.494 14.3736 272.355 14.5227C272.221 14.667 272.027 14.7391 271.773 14.7391C271.515 14.7391 271.318 14.667 271.185 14.5227C271.054 14.3736 270.99 14.1956 270.99 13.9887ZM279.459 22.3518V12.7837H280.794V23.867H279.573L279.459 22.3518ZM274.23 20.0499V19.8983C274.23 19.3019 274.301 18.7607 274.445 18.2748C274.593 17.7842 274.802 17.3632 275.07 17.0121C275.343 16.661 275.666 16.3916 276.04 16.2039C276.418 16.0115 276.839 15.9153 277.304 15.9153C277.792 15.9153 278.218 16.0019 278.583 16.1751C278.95 16.3434 279.262 16.5912 279.516 16.9183C279.774 17.2406 279.978 17.6303 280.126 18.0872C280.275 18.5443 280.378 19.0614 280.435 19.6386V20.3024C280.382 20.8749 280.279 21.3896 280.126 21.8466C279.978 22.3036 279.774 22.6932 279.516 23.0156C279.262 23.3379 278.95 23.5856 278.583 23.7588C278.214 23.9272 277.782 24.0113 277.289 24.0113C276.834 24.0113 276.418 23.9127 276.04 23.7154C275.666 23.5183 275.343 23.2417 275.07 22.8857C274.802 22.5297 274.593 22.1112 274.445 21.6302C274.301 21.1443 274.23 20.6175 274.23 20.0499ZM275.565 19.8983V20.0499C275.565 20.4395 275.604 20.8052 275.681 21.1468C275.762 21.4882 275.887 21.7888 276.054 22.0486C276.222 22.3084 276.435 22.5129 276.693 22.662C276.952 22.8063 277.261 22.8785 277.62 22.8785C278.06 22.8785 278.422 22.7847 278.704 22.5971C278.991 22.4094 279.221 22.1617 279.394 21.8539C279.566 21.546 279.7 21.2117 279.796 20.8509V19.1119C279.738 18.8473 279.654 18.5923 279.545 18.347C279.439 18.0968 279.3 17.8756 279.128 17.6832C278.961 17.486 278.752 17.3295 278.503 17.2142C278.259 17.0987 277.969 17.041 277.634 17.041C277.27 17.041 276.956 17.1179 276.693 17.2719C276.435 17.421 276.222 17.6278 276.054 17.8924C275.887 18.1521 275.762 18.4552 275.681 18.8016C275.604 19.1431 275.565 19.5087 275.565 19.8983ZM286.087 24.0113C285.546 24.0113 285.056 23.9199 284.615 23.7372C284.179 23.5495 283.803 23.2873 283.487 22.9506C283.176 22.6139 282.936 22.2147 282.769 21.7529C282.601 21.291 282.518 20.786 282.518 20.2375V19.9344C282.518 19.2995 282.611 18.7343 282.798 18.2388C282.985 17.7385 283.238 17.3152 283.56 16.9688C283.88 16.6224 284.245 16.3602 284.651 16.1823C285.058 16.0043 285.479 15.9153 285.915 15.9153C286.471 15.9153 286.949 16.0115 287.351 16.2039C287.759 16.3963 288.091 16.6657 288.35 17.0121C288.608 17.3536 288.8 17.7577 288.924 18.2243C289.049 18.6861 289.111 19.1912 289.111 19.7396V20.3385H283.308V19.249H287.782V19.148C287.763 18.8016 287.692 18.4649 287.567 18.1378C287.447 17.8107 287.256 17.5413 286.992 17.3295C286.729 17.1179 286.37 17.0121 285.915 17.0121C285.614 17.0121 285.336 17.0771 285.082 17.2069C284.829 17.332 284.61 17.5197 284.428 17.7697C284.247 18.0199 284.105 18.3254 284.005 18.6861C283.904 19.0469 283.854 19.463 283.854 19.9344V20.2375C283.854 20.6079 283.904 20.9566 284.005 21.2838C284.11 21.6061 284.26 21.89 284.457 22.1353C284.659 22.3806 284.9 22.573 285.183 22.7125C285.47 22.852 285.795 22.9218 286.159 22.9218C286.629 22.9218 287.026 22.8255 287.351 22.6332C287.677 22.4408 287.962 22.1833 288.207 21.861L289.01 22.5032C288.843 22.7582 288.63 23.0012 288.372 23.232C288.113 23.463 287.795 23.6505 287.417 23.7948C287.042 23.9392 286.6 24.0113 286.087 24.0113Z" fill="black"/>
<path d="M110 19.6135V24.3587C110 24.7472 109.685 25.0618 109.297 25.0618H101.984C101.596 25.0618 101.282 24.7482 101.281 24.3605L101.261 15.4468C101.261 15.0587 101.576 14.7437 101.964 14.7437H105.264C105.455 14.7437 105.637 14.821 105.769 14.9579L109.802 19.1246C109.929 19.2558 110 19.4312 110 19.6135Z" fill="#F3EDEA"/>
<path d="M101.271 19.6133L101.281 24.3601C101.282 24.7478 101.596 25.0614 101.984 25.0614H109.297C109.685 25.0614 110 24.7468 110 24.3583V19.6133H101.271Z" fill="#007FFC"/>
<path d="M110 19.6135C110 19.4312 109.929 19.2558 109.802 19.1246L105.769 14.9579C105.637 14.821 105.455 14.7437 105.264 14.7437H101.964C101.576 14.7437 101.261 15.0587 101.261 15.4468L101.27 19.6137H110V19.6135Z" fill="white"/>
<path d="M102.172 11.7031V25.0616H101.984L88.9233 25.1984C88.7382 25.1984 88.5601 25.1253 88.4288 24.9945C88.2952 24.8628 88.2202 24.6828 88.2202 24.4953V11.7031C88.2202 11.315 88.5352 11 88.9233 11H101.468C101.857 11 102.172 11.315 102.172 11.7031Z" fill="#FFD900"/>
<path d="M93.2013 27.3747C92.4256 27.3747 91.6964 27.0727 91.1479 26.5242C90.5994 25.9758 90.2974 25.2465 90.2974 24.4708C90.2974 22.8696 91.6001 21.5669 93.2013 21.5669C93.9769 21.5669 94.7062 21.8689 95.2547 22.4174C95.8032 22.9658 96.1052 23.6951 96.1052 24.4708C96.1052 26.072 94.8025 27.3747 93.2013 27.3747Z" fill="#003165"/>
<path d="M93.2014 22.9731C92.3755 22.9731 91.7037 23.6451 91.7036 24.4709C91.7036 24.8709 91.8594 25.247 92.1422 25.5298C92.4251 25.8127 92.8012 25.9685 93.2012 25.9685C94.027 25.9685 94.6989 25.2966 94.6989 24.4707C94.6989 24.0707 94.5432 23.6946 94.2603 23.4118C93.9774 23.1289 93.6013 22.9731 93.2014 22.9731Z" fill="#F3EDEA"/>
<path d="M105.47 27.3747C104.694 27.3747 103.965 27.0727 103.416 26.5242C102.868 25.9758 102.566 25.2465 102.566 24.4708C102.566 22.8696 103.869 21.5669 105.47 21.5669H105.47C106.246 21.5669 106.975 21.8689 107.523 22.4174C108.072 22.9658 108.374 23.6951 108.374 24.4708C108.374 26.072 107.071 27.3747 105.47 27.3747Z" fill="#020B37"/>
<path d="M105.47 22.9731C104.644 22.9731 103.972 23.6451 103.972 24.4709C103.972 24.8709 104.128 25.247 104.411 25.5298C104.694 25.8127 105.07 25.9685 105.47 25.9685C106.296 25.9685 106.967 25.2966 106.967 24.4707C106.967 24.0707 106.812 23.6946 106.529 23.4118C106.246 23.1289 105.87 22.9731 105.47 22.9731Z" fill="#E3DCDA"/>
<path d="M93.8015 15.2007H87.6875C87.2992 15.2007 86.9844 14.8859 86.9844 14.4976C86.9844 14.1092 87.2992 13.7944 87.6875 13.7944H93.8015C94.1898 13.7944 94.5046 14.1092 94.5046 14.4976C94.5046 14.8859 94.1898 15.2007 93.8015 15.2007Z" fill="#FFC200"/>
<path d="M93.2859 18.0137H86.7031C86.3148 18.0137 86 17.6989 86 17.3105C86 16.9222 86.3148 16.6074 86.7031 16.6074H93.2859C93.6742 16.6074 93.989 16.9222 93.989 17.3105C93.989 17.6989 93.6742 18.0137 93.2859 18.0137Z" fill="#FE9900"/>
<path d="M101.468 11H98V25.1033L101.984 25.0616H102.171V11.7031C102.171 11.315 101.856 11 101.468 11Z" fill="#FFC200"/>
</svg>
