<svg width="113" height="54" viewBox="0 0 113 54" fill="none" xmlns="http://www.w3.org/2000/svg">
<path d="M1.65527 4.04688H4.9502C5.69759 4.04688 6.32878 4.16081 6.84375 4.38867C7.36328 4.61654 7.75749 4.95378 8.02637 5.40039C8.2998 5.84245 8.43652 6.38704 8.43652 7.03418C8.43652 7.48991 8.3431 7.9069 8.15625 8.28516C7.97396 8.65885 7.70964 8.97786 7.36328 9.24219C7.02148 9.50195 6.61133 9.69564 6.13281 9.82324L5.76367 9.9668H2.66699L2.65332 8.89355H4.99121C5.46517 8.89355 5.85938 8.81152 6.17383 8.64746C6.48828 8.47884 6.72526 8.25326 6.88477 7.9707C7.04427 7.68815 7.12402 7.37598 7.12402 7.03418C7.12402 6.65137 7.04883 6.31641 6.89844 6.0293C6.74805 5.74219 6.51107 5.52116 6.1875 5.36621C5.86849 5.20671 5.45605 5.12695 4.9502 5.12695H2.97461V14H1.65527V4.04688ZM7.47266 14L5.05273 9.48828L6.42676 9.48145L8.88086 13.918V14H7.47266ZM14.4521 12.7354V8.92773C14.4521 8.63607 14.3929 8.38314 14.2744 8.16895C14.1605 7.9502 13.9873 7.78158 13.7549 7.66309C13.5225 7.5446 13.2354 7.48535 12.8936 7.48535C12.5745 7.48535 12.2943 7.54004 12.0527 7.64941C11.8158 7.75879 11.6289 7.90234 11.4922 8.08008C11.36 8.25781 11.2939 8.44922 11.2939 8.6543H10.0293C10.0293 8.38997 10.0977 8.12793 10.2344 7.86816C10.3711 7.6084 10.5671 7.3737 10.8223 7.16406C11.082 6.94987 11.3919 6.78125 11.752 6.6582C12.1165 6.5306 12.5221 6.4668 12.9688 6.4668C13.5065 6.4668 13.9805 6.55794 14.3906 6.74023C14.8053 6.92253 15.1289 7.19824 15.3613 7.56738C15.5983 7.93197 15.7168 8.38997 15.7168 8.94141V12.3867C15.7168 12.6328 15.7373 12.8949 15.7783 13.1729C15.8239 13.4508 15.89 13.6901 15.9766 13.8906V14H14.6572C14.5934 13.8542 14.5433 13.6605 14.5068 13.4189C14.4704 13.1729 14.4521 12.945 14.4521 12.7354ZM14.6709 9.51562L14.6846 10.4043H13.4062C13.0462 10.4043 12.7249 10.4339 12.4424 10.4932C12.1598 10.5479 11.9229 10.6322 11.7314 10.7461C11.54 10.86 11.3942 11.0036 11.2939 11.1768C11.1937 11.3454 11.1436 11.5436 11.1436 11.7715C11.1436 12.0039 11.196 12.2158 11.3008 12.4072C11.4056 12.5986 11.5628 12.7513 11.7725 12.8652C11.9867 12.9746 12.2487 13.0293 12.5586 13.0293C12.946 13.0293 13.2878 12.9473 13.584 12.7832C13.8802 12.6191 14.1149 12.4186 14.2881 12.1816C14.4658 11.9447 14.5615 11.7145 14.5752 11.4912L15.1152 12.0996C15.0833 12.291 14.9967 12.5029 14.8555 12.7354C14.7142 12.9678 14.5251 13.1911 14.2881 13.4053C14.0557 13.6149 13.7777 13.7904 13.4541 13.9316C13.1351 14.0684 12.7751 14.1367 12.374 14.1367C11.8727 14.1367 11.4329 14.0387 11.0547 13.8428C10.681 13.6468 10.3893 13.3848 10.1797 13.0566C9.97461 12.724 9.87207 12.3525 9.87207 11.9424C9.87207 11.5459 9.94954 11.1973 10.1045 10.8965C10.2594 10.5911 10.4827 10.3382 10.7744 10.1377C11.0661 9.93262 11.417 9.77767 11.8271 9.67285C12.2373 9.56803 12.6953 9.51562 13.2012 9.51562H14.6709ZM20.8027 6.60352V7.57422H16.8037V6.60352H20.8027ZM18.1572 4.80566H19.4219V12.168C19.4219 12.4186 19.4606 12.6077 19.5381 12.7354C19.6156 12.863 19.7158 12.9473 19.8389 12.9883C19.9619 13.0293 20.0941 13.0498 20.2354 13.0498C20.3402 13.0498 20.4495 13.0407 20.5635 13.0225C20.682 12.9997 20.7708 12.9814 20.8301 12.9678L20.8369 14C20.7367 14.0319 20.6045 14.0615 20.4404 14.0889C20.2809 14.1208 20.0872 14.1367 19.8594 14.1367C19.5495 14.1367 19.2646 14.0752 19.0049 13.9521C18.7451 13.8291 18.5378 13.624 18.3828 13.3369C18.2324 13.0452 18.1572 12.6533 18.1572 12.1611V4.80566ZM25.3555 14.1367C24.8405 14.1367 24.3734 14.0501 23.9541 13.877C23.5394 13.6992 23.1816 13.4508 22.8809 13.1318C22.5846 12.8128 22.3568 12.4346 22.1973 11.9971C22.0378 11.5596 21.958 11.0811 21.958 10.5615V10.2744C21.958 9.67285 22.0469 9.13737 22.2246 8.66797C22.4023 8.19401 22.6439 7.79297 22.9492 7.46484C23.2546 7.13672 23.6009 6.88835 23.9883 6.71973C24.3757 6.55111 24.7767 6.4668 25.1914 6.4668C25.7201 6.4668 26.1758 6.55794 26.5586 6.74023C26.946 6.92253 27.2627 7.17773 27.5088 7.50586C27.7549 7.82943 27.9372 8.21224 28.0557 8.6543C28.1742 9.0918 28.2334 9.57031 28.2334 10.0898V10.6572H22.71V9.625H26.9688V9.5293C26.9505 9.20117 26.8822 8.88216 26.7637 8.57227C26.6497 8.26237 26.4674 8.00716 26.2168 7.80664C25.9661 7.60612 25.6243 7.50586 25.1914 7.50586C24.9043 7.50586 24.64 7.56738 24.3984 7.69043C24.1569 7.80892 23.9495 7.98665 23.7764 8.22363C23.6032 8.46061 23.4688 8.75 23.373 9.0918C23.2773 9.43359 23.2295 9.8278 23.2295 10.2744V10.5615C23.2295 10.9124 23.2773 11.2428 23.373 11.5527C23.4733 11.8581 23.6169 12.127 23.8037 12.3594C23.9951 12.5918 24.2253 12.7741 24.4941 12.9062C24.7676 13.0384 25.0775 13.1045 25.4238 13.1045C25.8704 13.1045 26.2487 13.0133 26.5586 12.8311C26.8685 12.6488 27.1396 12.4049 27.3721 12.0996L28.1377 12.708C27.9782 12.9495 27.7754 13.1797 27.5293 13.3984C27.2832 13.6172 26.9801 13.7949 26.6201 13.9316C26.2646 14.0684 25.8431 14.1367 25.3555 14.1367ZM34.3721 12.5645V3.5H35.6436V14H34.4814L34.3721 12.5645ZM29.3955 10.3838V10.2402C29.3955 9.67513 29.4639 9.16243 29.6006 8.70215C29.7419 8.2373 29.9401 7.83854 30.1953 7.50586C30.4551 7.17318 30.7627 6.91797 31.1182 6.74023C31.4782 6.55794 31.8792 6.4668 32.3213 6.4668C32.7861 6.4668 33.1917 6.54883 33.5381 6.71289C33.889 6.8724 34.1852 7.1071 34.4268 7.41699C34.6729 7.72233 34.8665 8.09147 35.0078 8.52441C35.1491 8.95736 35.2471 9.44727 35.3018 9.99414V10.623C35.2516 11.1654 35.1536 11.653 35.0078 12.0859C34.8665 12.5189 34.6729 12.888 34.4268 13.1934C34.1852 13.4987 33.889 13.7334 33.5381 13.8975C33.1872 14.057 32.777 14.1367 32.3076 14.1367C31.8747 14.1367 31.4782 14.0433 31.1182 13.8564C30.7627 13.6696 30.4551 13.4076 30.1953 13.0703C29.9401 12.7331 29.7419 12.3366 29.6006 11.8809C29.4639 11.4206 29.3955 10.9215 29.3955 10.3838ZM30.667 10.2402V10.3838C30.667 10.7529 30.7035 11.0993 30.7764 11.4229C30.8538 11.7464 30.9723 12.0312 31.1318 12.2773C31.2913 12.5234 31.4941 12.7171 31.7402 12.8584C31.9863 12.9951 32.2803 13.0635 32.6221 13.0635C33.0413 13.0635 33.3854 12.9746 33.6543 12.7969C33.9277 12.6191 34.1465 12.3844 34.3105 12.0928C34.4746 11.8011 34.6022 11.4844 34.6934 11.1426V9.49512C34.6387 9.24447 34.5589 9.00293 34.4541 8.77051C34.3538 8.53353 34.2217 8.32389 34.0576 8.1416C33.8981 7.95475 33.6999 7.80664 33.4629 7.69727C33.2305 7.58789 32.9548 7.5332 32.6357 7.5332C32.2894 7.5332 31.9909 7.60612 31.7402 7.75195C31.4941 7.89323 31.2913 8.08919 31.1318 8.33984C30.9723 8.58594 30.8538 8.87305 30.7764 9.20117C30.7035 9.52474 30.667 9.87109 30.667 10.2402Z" fill="#212529"/>
<path d="M49.0674 12.4004V14H43.7695V12.4004H49.0674ZM44.4395 4.04688V14H42.3887V4.04688H44.4395ZM48.377 8.10059V9.65918H43.7695V8.10059H48.377ZM49.0605 4.04688V5.65332H43.7695V4.04688H49.0605ZM51.7266 6.60352L52.9502 8.85254L54.208 6.60352H56.3066L54.2148 10.2197L56.4023 14H54.2969L52.9639 11.6211L51.6309 14H49.5254L51.7129 10.2197L49.6211 6.60352H51.7266ZM60.1826 12.5986C60.4242 12.5986 60.6383 12.5531 60.8252 12.4619C61.012 12.3662 61.1579 12.234 61.2627 12.0654C61.3721 11.8923 61.429 11.6895 61.4336 11.457H63.2861C63.2816 11.9766 63.1426 12.4391 62.8691 12.8447C62.5957 13.2458 62.2288 13.5625 61.7686 13.7949C61.3083 14.0228 60.7933 14.1367 60.2236 14.1367C59.6494 14.1367 59.1481 14.041 58.7197 13.8496C58.2959 13.6582 57.9427 13.3939 57.6602 13.0566C57.3776 12.7148 57.1657 12.3184 57.0244 11.8672C56.8831 11.4115 56.8125 10.9238 56.8125 10.4043V10.2061C56.8125 9.68197 56.8831 9.19434 57.0244 8.74316C57.1657 8.28743 57.3776 7.89095 57.6602 7.55371C57.9427 7.21191 58.2959 6.94531 58.7197 6.75391C59.1436 6.5625 59.6403 6.4668 60.21 6.4668C60.8161 6.4668 61.347 6.58301 61.8027 6.81543C62.263 7.04785 62.623 7.38053 62.8828 7.81348C63.1471 8.24186 63.2816 8.75 63.2861 9.33789H61.4336C61.429 9.0918 61.3766 8.86849 61.2764 8.66797C61.1807 8.46745 61.0394 8.30794 60.8525 8.18945C60.6702 8.06641 60.4447 8.00488 60.1758 8.00488C59.8887 8.00488 59.654 8.06641 59.4717 8.18945C59.2894 8.30794 59.1481 8.47201 59.0479 8.68164C58.9476 8.88672 58.877 9.12142 58.8359 9.38574C58.7995 9.64551 58.7812 9.91895 58.7812 10.2061V10.4043C58.7812 10.6914 58.7995 10.9671 58.8359 11.2314C58.8724 11.4958 58.9408 11.7305 59.041 11.9355C59.1458 12.1406 59.2894 12.3024 59.4717 12.4209C59.654 12.5394 59.891 12.5986 60.1826 12.5986ZM67.832 14.1367C67.2578 14.1367 66.7428 14.0456 66.2871 13.8633C65.8314 13.6764 65.444 13.4189 65.125 13.0908C64.8105 12.7627 64.569 12.3822 64.4004 11.9492C64.2318 11.5117 64.1475 11.0469 64.1475 10.5547V10.2812C64.1475 9.7207 64.2272 9.20801 64.3867 8.74316C64.5462 8.27832 64.7741 7.875 65.0703 7.5332C65.3711 7.19141 65.7357 6.92936 66.1641 6.74707C66.5924 6.56022 67.0755 6.4668 67.6133 6.4668C68.1374 6.4668 68.6022 6.55339 69.0078 6.72656C69.4134 6.89974 69.7529 7.14583 70.0264 7.46484C70.3044 7.78385 70.514 8.16667 70.6553 8.61328C70.7965 9.05534 70.8672 9.54753 70.8672 10.0898V10.9102H64.9883V9.59766H68.9326V9.44727C68.9326 9.17383 68.8825 8.93001 68.7822 8.71582C68.6865 8.49707 68.5407 8.32389 68.3447 8.19629C68.1488 8.06868 67.8981 8.00488 67.5928 8.00488C67.333 8.00488 67.1097 8.06185 66.9229 8.17578C66.736 8.28971 66.5833 8.44922 66.4648 8.6543C66.3509 8.85938 66.2643 9.10091 66.2051 9.37891C66.1504 9.65234 66.123 9.95312 66.123 10.2812V10.5547C66.123 10.8509 66.1641 11.1243 66.2461 11.375C66.3327 11.6257 66.4535 11.8421 66.6084 12.0244C66.7679 12.2067 66.9593 12.348 67.1826 12.4482C67.4105 12.5485 67.668 12.5986 67.9551 12.5986C68.3105 12.5986 68.641 12.5303 68.9463 12.3936C69.2562 12.2523 69.5228 12.0404 69.7461 11.7578L70.7031 12.7969C70.5482 13.0202 70.3363 13.2344 70.0674 13.4395C69.8031 13.6445 69.484 13.8132 69.1104 13.9453C68.7367 14.0729 68.3105 14.1367 67.832 14.1367ZM74.0664 3.5V14H72.0908V3.5H74.0664ZM77.7715 3.5V14H75.7959V3.5H77.7715ZM82.8027 14.1367C82.2285 14.1367 81.7135 14.0456 81.2578 13.8633C80.8021 13.6764 80.4147 13.4189 80.0957 13.0908C79.7812 12.7627 79.5397 12.3822 79.3711 11.9492C79.2025 11.5117 79.1182 11.0469 79.1182 10.5547V10.2812C79.1182 9.7207 79.1979 9.20801 79.3574 8.74316C79.5169 8.27832 79.7448 7.875 80.041 7.5332C80.3418 7.19141 80.7064 6.92936 81.1348 6.74707C81.5632 6.56022 82.0462 6.4668 82.584 6.4668C83.1081 6.4668 83.5729 6.55339 83.9785 6.72656C84.3841 6.89974 84.7236 7.14583 84.9971 7.46484C85.2751 7.78385 85.4847 8.16667 85.626 8.61328C85.7673 9.05534 85.8379 9.54753 85.8379 10.0898V10.9102H79.959V9.59766H83.9033V9.44727C83.9033 9.17383 83.8532 8.93001 83.7529 8.71582C83.6572 8.49707 83.5114 8.32389 83.3154 8.19629C83.1195 8.06868 82.8688 8.00488 82.5635 8.00488C82.3037 8.00488 82.0804 8.06185 81.8936 8.17578C81.7067 8.28971 81.554 8.44922 81.4355 8.6543C81.3216 8.85938 81.235 9.10091 81.1758 9.37891C81.1211 9.65234 81.0938 9.95312 81.0938 10.2812V10.5547C81.0938 10.8509 81.1348 11.1243 81.2168 11.375C81.3034 11.6257 81.4242 11.8421 81.5791 12.0244C81.7386 12.2067 81.93 12.348 82.1533 12.4482C82.3812 12.5485 82.6387 12.5986 82.9258 12.5986C83.2812 12.5986 83.6117 12.5303 83.917 12.3936C84.2269 12.2523 84.4935 12.0404 84.7168 11.7578L85.6738 12.7969C85.5189 13.0202 85.307 13.2344 85.0381 13.4395C84.7738 13.6445 84.4548 13.8132 84.0811 13.9453C83.7074 14.0729 83.2812 14.1367 82.8027 14.1367ZM88.8867 8.18262V14H86.918V6.60352H88.7637L88.8867 8.18262ZM88.5996 10.042H88.0664C88.0664 9.49512 88.137 9.00293 88.2783 8.56543C88.4196 8.12337 88.6178 7.7474 88.873 7.4375C89.1283 7.12305 89.4313 6.88379 89.7822 6.71973C90.1377 6.55111 90.5342 6.4668 90.9717 6.4668C91.318 6.4668 91.6348 6.51693 91.9219 6.61719C92.209 6.71745 92.4551 6.87695 92.6602 7.0957C92.8698 7.31445 93.0293 7.60384 93.1387 7.96387C93.2526 8.32389 93.3096 8.76367 93.3096 9.2832V14H91.3271V9.27637C91.3271 8.94824 91.2816 8.69303 91.1904 8.51074C91.0993 8.32845 90.9648 8.20085 90.7871 8.12793C90.6139 8.05046 90.3997 8.01172 90.1445 8.01172C89.8802 8.01172 89.6501 8.06413 89.4541 8.16895C89.2627 8.27376 89.1032 8.4196 88.9756 8.60645C88.8525 8.78874 88.7591 9.00293 88.6953 9.24902C88.6315 9.49512 88.5996 9.75944 88.5996 10.042ZM98.4297 6.60352V7.99805H94.123V6.60352H98.4297ZM95.1895 4.77832H97.1582V11.7715C97.1582 11.9857 97.1855 12.1497 97.2402 12.2637C97.2995 12.3776 97.3861 12.4574 97.5 12.5029C97.6139 12.5439 97.7575 12.5645 97.9307 12.5645C98.0537 12.5645 98.1631 12.5599 98.2588 12.5508C98.359 12.5371 98.4434 12.5234 98.5117 12.5098L98.5186 13.959C98.3499 14.0137 98.1676 14.057 97.9717 14.0889C97.7757 14.1208 97.5592 14.1367 97.3223 14.1367C96.8893 14.1367 96.5111 14.0661 96.1875 13.9248C95.8685 13.779 95.6224 13.5465 95.4492 13.2275C95.276 12.9085 95.1895 12.4893 95.1895 11.9697V4.77832Z" fill="#0C0B0B"/>
<path d="M2.3584 21.0469H5.65332C6.40072 21.0469 7.0319 21.1608 7.54688 21.3887C8.06641 21.6165 8.46061 21.9538 8.72949 22.4004C9.00293 22.8424 9.13965 23.387 9.13965 24.0342C9.13965 24.4899 9.04622 24.9069 8.85938 25.2852C8.67708 25.6589 8.41276 25.9779 8.06641 26.2422C7.72461 26.502 7.31445 26.6956 6.83594 26.8232L6.4668 26.9668H3.37012L3.35645 25.8936H5.69434C6.16829 25.8936 6.5625 25.8115 6.87695 25.6475C7.19141 25.4788 7.42839 25.2533 7.58789 24.9707C7.7474 24.6882 7.82715 24.376 7.82715 24.0342C7.82715 23.6514 7.75195 23.3164 7.60156 23.0293C7.45117 22.7422 7.21419 22.5212 6.89062 22.3662C6.57161 22.2067 6.15918 22.127 5.65332 22.127H3.67773V31H2.3584V21.0469ZM8.17578 31L5.75586 26.4883L7.12988 26.4814L9.58398 30.918V31H8.17578ZM13.8633 31.1367C13.3483 31.1367 12.8812 31.0501 12.4619 30.877C12.0472 30.6992 11.6895 30.4508 11.3887 30.1318C11.0924 29.8128 10.8646 29.4346 10.7051 28.9971C10.5456 28.5596 10.4658 28.0811 10.4658 27.5615V27.2744C10.4658 26.6729 10.5547 26.1374 10.7324 25.668C10.9102 25.194 11.1517 24.793 11.457 24.4648C11.7624 24.1367 12.1087 23.8883 12.4961 23.7197C12.8835 23.5511 13.2845 23.4668 13.6992 23.4668C14.2279 23.4668 14.6836 23.5579 15.0664 23.7402C15.4538 23.9225 15.7705 24.1777 16.0166 24.5059C16.2627 24.8294 16.445 25.2122 16.5635 25.6543C16.682 26.0918 16.7412 26.5703 16.7412 27.0898V27.6572H11.2178V26.625H15.4766V26.5293C15.4583 26.2012 15.39 25.8822 15.2715 25.5723C15.1576 25.2624 14.9753 25.0072 14.7246 24.8066C14.474 24.6061 14.1322 24.5059 13.6992 24.5059C13.4121 24.5059 13.1478 24.5674 12.9062 24.6904C12.6647 24.8089 12.4574 24.9867 12.2842 25.2236C12.111 25.4606 11.9766 25.75 11.8809 26.0918C11.7852 26.4336 11.7373 26.8278 11.7373 27.2744V27.5615C11.7373 27.9124 11.7852 28.2428 11.8809 28.5527C11.9811 28.8581 12.1247 29.127 12.3115 29.3594C12.5029 29.5918 12.7331 29.7741 13.002 29.9062C13.2754 30.0384 13.5853 30.1045 13.9316 30.1045C14.3783 30.1045 14.7565 30.0133 15.0664 29.8311C15.3763 29.6488 15.6475 29.4049 15.8799 29.0996L16.6455 29.708C16.486 29.9495 16.2832 30.1797 16.0371 30.3984C15.791 30.6172 15.488 30.7949 15.1279 30.9316C14.7725 31.0684 14.3509 31.1367 13.8633 31.1367ZM20.3711 29.8584L22.3945 23.6035H23.6865L21.0273 31H20.1797L20.3711 29.8584ZM18.6826 23.6035L20.7676 29.8926L20.9111 31H20.0635L17.3838 23.6035H18.6826ZM26.2773 23.6035V31H25.0059V23.6035H26.2773ZM24.9102 21.6416C24.9102 21.4365 24.9717 21.2633 25.0947 21.1221C25.2223 20.9808 25.4092 20.9102 25.6553 20.9102C25.8968 20.9102 26.0814 20.9808 26.209 21.1221C26.3411 21.2633 26.4072 21.4365 26.4072 21.6416C26.4072 21.8376 26.3411 22.0062 26.209 22.1475C26.0814 22.2842 25.8968 22.3525 25.6553 22.3525C25.4092 22.3525 25.2223 22.2842 25.0947 22.1475C24.9717 22.0062 24.9102 21.8376 24.9102 21.6416ZM31.377 31.1367C30.862 31.1367 30.3949 31.0501 29.9756 30.877C29.5609 30.6992 29.2031 30.4508 28.9023 30.1318C28.6061 29.8128 28.3783 29.4346 28.2188 28.9971C28.0592 28.5596 27.9795 28.0811 27.9795 27.5615V27.2744C27.9795 26.6729 28.0684 26.1374 28.2461 25.668C28.4238 25.194 28.6654 24.793 28.9707 24.4648C29.276 24.1367 29.6224 23.8883 30.0098 23.7197C30.3971 23.5511 30.7982 23.4668 31.2129 23.4668C31.7415 23.4668 32.1973 23.5579 32.5801 23.7402C32.9674 23.9225 33.2842 24.1777 33.5303 24.5059C33.7764 24.8294 33.9587 25.2122 34.0771 25.6543C34.1956 26.0918 34.2549 26.5703 34.2549 27.0898V27.6572H28.7314V26.625H32.9902V26.5293C32.972 26.2012 32.9036 25.8822 32.7852 25.5723C32.6712 25.2624 32.4889 25.0072 32.2383 24.8066C31.9876 24.6061 31.6458 24.5059 31.2129 24.5059C30.9258 24.5059 30.6615 24.5674 30.4199 24.6904C30.1784 24.8089 29.971 24.9867 29.7979 25.2236C29.6247 25.4606 29.4902 25.75 29.3945 26.0918C29.2988 26.4336 29.251 26.8278 29.251 27.2744V27.5615C29.251 27.9124 29.2988 28.2428 29.3945 28.5527C29.4948 28.8581 29.6383 29.127 29.8252 29.3594C30.0166 29.5918 30.2467 29.7741 30.5156 29.9062C30.7891 30.0384 31.099 30.1045 31.4453 30.1045C31.8919 30.1045 32.2702 30.0133 32.5801 29.8311C32.89 29.6488 33.1611 29.4049 33.3936 29.0996L34.1592 29.708C33.9997 29.9495 33.7969 30.1797 33.5508 30.3984C33.3047 30.6172 33.0016 30.7949 32.6416 30.9316C32.2861 31.0684 31.8646 31.1367 31.377 31.1367ZM37.6045 29.6875L39.5049 23.6035H40.3389L40.1748 24.8135L38.2402 31H37.4268L37.6045 29.6875ZM36.3262 23.6035L37.9463 29.7559L38.0625 31H37.208L35.0615 23.6035H36.3262ZM42.1572 29.708L43.7021 23.6035H44.96L42.8135 31H41.9658L42.1572 29.708ZM40.5234 23.6035L42.3828 29.585L42.5947 31H41.7881L39.7988 24.7998L39.6348 23.6035H40.5234ZM50.5654 29.0381C50.5654 28.8558 50.5244 28.6872 50.4424 28.5322C50.3649 28.3727 50.2031 28.2292 49.957 28.1016C49.7155 27.9694 49.3509 27.8555 48.8633 27.7598C48.4531 27.6732 48.0817 27.5706 47.749 27.4521C47.4209 27.3337 47.1406 27.1901 46.9082 27.0215C46.6803 26.8529 46.5049 26.6546 46.3818 26.4268C46.2588 26.1989 46.1973 25.9323 46.1973 25.627C46.1973 25.3353 46.2611 25.0596 46.3887 24.7998C46.5208 24.54 46.7054 24.3099 46.9424 24.1094C47.1839 23.9089 47.4733 23.7516 47.8105 23.6377C48.1478 23.5238 48.5238 23.4668 48.9385 23.4668C49.5309 23.4668 50.0368 23.5716 50.4561 23.7812C50.8753 23.9909 51.1966 24.2712 51.4199 24.6221C51.6432 24.9684 51.7549 25.3535 51.7549 25.7773H50.4902C50.4902 25.5723 50.4287 25.374 50.3057 25.1826C50.1872 24.9867 50.0117 24.8249 49.7793 24.6973C49.5514 24.5697 49.2712 24.5059 48.9385 24.5059C48.5876 24.5059 48.3027 24.5605 48.084 24.6699C47.8698 24.7747 47.7126 24.9092 47.6123 25.0732C47.5166 25.2373 47.4688 25.4105 47.4688 25.5928C47.4688 25.7295 47.4915 25.8525 47.5371 25.9619C47.5872 26.0667 47.6738 26.1647 47.7969 26.2559C47.9199 26.3424 48.0931 26.4245 48.3164 26.502C48.5397 26.5794 48.8245 26.6569 49.1709 26.7344C49.777 26.8711 50.276 27.0352 50.668 27.2266C51.0599 27.418 51.3516 27.6527 51.543 27.9307C51.7344 28.2087 51.8301 28.5459 51.8301 28.9424C51.8301 29.266 51.7617 29.5622 51.625 29.8311C51.4928 30.0999 51.2992 30.3324 51.0439 30.5283C50.7933 30.7197 50.4925 30.8701 50.1416 30.9795C49.7952 31.0843 49.4056 31.1367 48.9727 31.1367C48.321 31.1367 47.7695 31.0205 47.3184 30.7881C46.8672 30.5557 46.5254 30.2549 46.293 29.8857C46.0605 29.5166 45.9443 29.127 45.9443 28.7168H47.2158C47.234 29.0632 47.3343 29.3389 47.5166 29.5439C47.6989 29.7445 47.9222 29.888 48.1865 29.9746C48.4508 30.0566 48.7129 30.0977 48.9727 30.0977C49.319 30.0977 49.6084 30.0521 49.8408 29.9609C50.0778 29.8698 50.2578 29.7445 50.3809 29.585C50.5039 29.4255 50.5654 29.2432 50.5654 29.0381ZM60.9834 20.9922V31H59.7188V22.5713L57.1689 23.501V22.3594L60.7852 20.9922H60.9834ZM71.2236 29.9609V31H64.709V30.0908L67.9697 26.4609C68.3708 26.0143 68.6807 25.6361 68.8994 25.3262C69.1227 25.0117 69.2777 24.7314 69.3643 24.4854C69.4554 24.2347 69.501 23.9795 69.501 23.7197C69.501 23.3916 69.4326 23.0954 69.2959 22.8311C69.1637 22.5622 68.9678 22.348 68.708 22.1885C68.4482 22.029 68.1338 21.9492 67.7646 21.9492C67.3226 21.9492 66.9535 22.0358 66.6572 22.209C66.3656 22.3776 66.1468 22.6146 66.001 22.9199C65.8551 23.2253 65.7822 23.5762 65.7822 23.9727H64.5176C64.5176 23.4121 64.6406 22.8994 64.8867 22.4346C65.1328 21.9697 65.4974 21.6006 65.9805 21.3271C66.4635 21.0492 67.0583 20.9102 67.7646 20.9102C68.3936 20.9102 68.9313 21.0218 69.3779 21.2451C69.8245 21.4639 70.1663 21.7738 70.4033 22.1748C70.6449 22.5713 70.7656 23.0361 70.7656 23.5693C70.7656 23.861 70.7155 24.1572 70.6152 24.458C70.5195 24.7542 70.3851 25.0505 70.2119 25.3467C70.0433 25.6429 69.8451 25.9346 69.6172 26.2217C69.3939 26.5088 69.1546 26.7913 68.8994 27.0693L66.2334 29.9609H71.2236ZM79.0098 21.0469V21.7578L74.8877 31H73.5547L77.6699 22.0859H72.2832V21.0469H79.0098ZM82.2979 25.4014H83.2002C83.6423 25.4014 84.0068 25.3285 84.2939 25.1826C84.5856 25.0322 84.8021 24.8294 84.9434 24.5742C85.0892 24.3145 85.1621 24.0228 85.1621 23.6992C85.1621 23.3164 85.0983 22.9951 84.9707 22.7354C84.8431 22.4756 84.6517 22.2796 84.3965 22.1475C84.1413 22.0153 83.8177 21.9492 83.4258 21.9492C83.0703 21.9492 82.7559 22.0199 82.4824 22.1611C82.2135 22.2979 82.0016 22.4938 81.8467 22.749C81.6963 23.0042 81.6211 23.305 81.6211 23.6514H80.3564C80.3564 23.1455 80.484 22.6852 80.7393 22.2705C80.9945 21.8558 81.3522 21.5254 81.8125 21.2793C82.2773 21.0332 82.8151 20.9102 83.4258 20.9102C84.0273 20.9102 84.5537 21.0173 85.0049 21.2314C85.4561 21.4411 85.807 21.7555 86.0576 22.1748C86.3083 22.5895 86.4336 23.1068 86.4336 23.7266C86.4336 23.9772 86.3743 24.2461 86.2559 24.5332C86.1419 24.8158 85.9619 25.0801 85.7158 25.3262C85.4743 25.5723 85.1598 25.7751 84.7725 25.9346C84.3851 26.0895 83.9202 26.167 83.3779 26.167H82.2979V25.4014ZM82.2979 26.4404V25.6816H83.3779C84.0114 25.6816 84.5355 25.7568 84.9502 25.9072C85.3649 26.0576 85.6908 26.2581 85.9277 26.5088C86.1693 26.7594 86.3379 27.0352 86.4336 27.3359C86.5339 27.6322 86.584 27.9284 86.584 28.2246C86.584 28.6895 86.5042 29.1019 86.3447 29.4619C86.1898 29.8219 85.9688 30.1273 85.6816 30.3779C85.3991 30.6286 85.0664 30.8177 84.6836 30.9453C84.3008 31.0729 83.8838 31.1367 83.4326 31.1367C82.9997 31.1367 82.5918 31.0752 82.209 30.9521C81.8307 30.8291 81.4958 30.6514 81.2041 30.4189C80.9124 30.182 80.6846 29.8926 80.5205 29.5508C80.3564 29.2044 80.2744 28.8102 80.2744 28.3682H81.5391C81.5391 28.7145 81.6143 29.0176 81.7646 29.2773C81.9196 29.5371 82.1383 29.7399 82.4209 29.8857C82.708 30.027 83.0452 30.0977 83.4326 30.0977C83.82 30.0977 84.1527 30.0316 84.4307 29.8994C84.7132 29.7627 84.9297 29.5576 85.0801 29.2842C85.235 29.0107 85.3125 28.6667 85.3125 28.252C85.3125 27.8372 85.2259 27.4977 85.0527 27.2334C84.8796 26.9645 84.6335 26.7663 84.3145 26.6387C84 26.5065 83.6286 26.4404 83.2002 26.4404H82.2979Z" fill="#6F6F6F"/>
<rect x="0.5" y="34" width="20.0265" height="20" fill="#00B67E"/>
<path d="M10.5132 36.2222L12.5274 41.2313L17.9201 41.5965L13.7722 45.0575L15.0909 50.2923L10.5132 47.4222L5.93546 50.2923L7.25414 45.0575L3.10627 41.5965L8.49898 41.2313L10.5132 36.2222Z" fill="white"/>
<rect x="23.4932" y="34" width="20.0265" height="20" fill="#00B67E"/>
<path d="M33.5063 36.2222L35.5205 41.2313L40.9132 41.5965L36.7654 45.0575L38.0841 50.2923L33.5063 47.4222L28.9286 50.2923L30.2473 45.0575L26.0994 41.5965L31.4921 41.2313L33.5063 36.2222Z" fill="white"/>
<rect x="46.4868" y="34" width="20.0265" height="20" fill="#00B67E"/>
<path d="M56.5 36.2222L58.5142 41.2313L63.9069 41.5965L59.759 45.0575L61.0777 50.2923L56.5 47.4222L51.9223 50.2923L53.241 45.0575L49.0931 41.5965L54.4858 41.2313L56.5 36.2222Z" fill="white"/>
<rect x="69.48" y="34" width="20.0265" height="20" fill="#00B67E"/>
<path d="M79.4932 36.2222L81.5074 41.2313L86.9001 41.5965L82.7522 45.0575L84.0709 50.2923L79.4932 47.4222L74.9154 50.2923L76.2341 45.0575L72.0863 41.5965L77.479 41.2313L79.4932 36.2222Z" fill="white"/>
<rect x="92.4736" y="34" width="20.0265" height="20" fill="#00B67E"/>
<path d="M102.487 36.2222L104.501 41.2313L109.894 41.5965L105.746 45.0575L107.065 50.2923L102.487 47.4222L97.9091 50.2923L99.2278 45.0575L95.0799 41.5965L100.473 41.2313L102.487 36.2222Z" fill="white"/>
</svg>
