<svg width="28" height="29" viewBox="0 0 28 29" fill="none" xmlns="http://www.w3.org/2000/svg">
<path d="M16.795 23.7095C16.795 26.2208 14.7591 28.2565 12.2478 28.2565C9.73653 28.2565 7.70087 26.2208 7.70087 23.7095C7.70087 21.1983 9.73653 19.1624 12.2478 19.1624C14.7591 19.1624 16.795 21.1983 16.795 23.7095Z" fill="#6B6B6B"/>
<path d="M20.2142 14.5256C16.3606 13.9753 13.3847 10.6616 13.3847 6.65812C13.3847 5.52123 13.6278 4.44262 14.0587 3.46371C13.4767 3.32738 12.8721 3.24786 12.2478 3.24786C7.86012 3.24786 4.29063 6.81714 4.29063 11.2051V14.3743C4.29063 16.6239 3.30506 18.7474 1.57599 20.2092C1.13389 20.5866 0.880371 21.138 0.880371 21.7199C0.880371 22.8171 1.77269 23.7094 2.86962 23.7094H21.626C22.7232 23.7094 23.6155 22.8171 23.6155 21.7199C23.6155 21.138 23.362 20.5866 22.9084 20.199C21.2306 18.7793 20.2575 16.7182 20.2142 14.5256Z" fill="#BDBDBD"/>
<path d="M27.0258 6.6582C27.0258 9.79724 24.481 12.3418 21.342 12.3418C18.2029 12.3418 15.6581 9.79724 15.6581 6.6582C15.6581 3.51915 18.2029 0.974365 21.342 0.974365C24.481 0.974365 27.0258 3.51915 27.0258 6.6582Z" fill="#F44336"/>
</svg>
