<svg width="38" height="25" viewBox="0 0 38 25" fill="none" xmlns="http://www.w3.org/2000/svg">
<g id="Frame" clip-path="url(#clip0_275_883)">
<g id="credit_cards">
<g id="10-amex-/-Primitives-/-border">
<g id="amex">
<path id="Shape" fill-rule="evenodd" clip-rule="evenodd" d="M33.344 25H4.65604C2.63683 25 1 23.2476 1 21.0858V3.91418C1 1.7524 2.63683 0 4.65604 0H33.344C35.3632 0 37 1.7524 37 3.91418V21.0859C37 23.2476 35.3632 25 33.344 25Z" fill="#006FAC"/>
<g id="Group">
<path id="Fill-4" fill-rule="evenodd" clip-rule="evenodd" d="M4.93761 11.8012H6.27641L6.5783 11.0731H7.25415L7.55524 11.8012H10.1895V11.2445L10.4246 11.8035H11.7921L12.0273 11.2362V11.8012H18.5739L18.5708 10.6059H18.6975C18.7862 10.609 18.8121 10.6172 18.8121 10.7636V11.8012H22.198V11.523C22.4711 11.6693 22.8959 11.8012 23.4549 11.8012H24.8793L25.1842 11.0731H25.86L26.1582 11.8012H28.9031V11.1095L29.3188 11.8012H31.5185V7.229H29.3415V7.76895L29.0367 7.229H26.8029V7.76895L26.523 7.229H23.5057C23.0006 7.229 22.5566 7.29947 22.198 7.49595V7.229H20.1158V7.49595C19.8876 7.29347 19.5766 7.229 19.2308 7.229H11.6238L11.1133 8.40991L10.5891 7.229H8.19312V7.76895L7.92988 7.229H5.88646L4.9375 9.40284L3.81738 11.8012H4.93761ZM30.82 11.1573H29.7096L28.2243 8.69679V11.1573H26.6285L26.3236 10.426H24.6958L24.4 11.1573H23.483C23.1022 11.1573 22.6199 11.0731 22.3468 10.7947C22.0714 10.5163 21.9282 10.1393 21.9282 9.5432C21.9282 9.05698 22.0138 8.61251 22.3506 8.26128C22.6039 7.99964 23.0006 7.87904 23.5406 7.87904H24.2992V8.58144H23.5565C23.2706 8.58144 23.1091 8.62398 22.9535 8.77564C22.82 8.91372 22.7283 9.17467 22.7283 9.51824C22.7283 9.86947 22.7981 10.1227 22.9438 10.2881C23.0644 10.4179 23.2836 10.4572 23.4899 10.4572H23.8418L24.9462 7.8791H26.1202L27.4469 10.9799V7.8791H28.64L30.0174 10.1622V7.8791H30.82V11.1573ZM20.7448 11.1573H21.5443V7.87904H20.7448V11.1573ZM20.2903 8.76194C20.2903 9.28459 19.9415 9.55462 19.7382 9.6357C19.9096 9.70097 20.0561 9.81626 20.1258 9.91179C20.2364 10.0749 20.2555 10.2205 20.2555 10.5133V11.1573H19.4652L19.4622 10.7439C19.4622 10.5466 19.4811 10.2629 19.3385 10.1052C19.224 9.9899 19.0495 9.96489 18.7674 9.96489H17.9262V11.1573H17.1427V7.87904H18.945C19.3454 7.87904 19.6405 7.88961 19.8938 8.03607C20.1417 8.18248 20.2903 8.39626 20.2903 8.76194ZM16.5995 11.1573H13.9819V7.87904H16.5995V8.56169H14.7655V9.15257H16.5555V9.82459H14.7655V10.4793H16.5995V11.1573ZM13.3979 11.1573H12.5946L12.5917 8.58978L11.4554 11.1573H10.7674L9.62824 8.5875V11.1573H8.03449L7.7334 10.426H6.10191L5.79773 11.1573H4.94669L6.3499 7.87904H7.51413L8.84681 10.9828V7.87904H10.1257L11.1512 10.1029L12.0932 7.87904H13.3978L13.3979 11.1573ZM26.0565 9.74271L25.5142 8.43584L24.975 9.74271H26.0565ZM19.2657 9.22229C19.158 9.28767 19.0306 9.28984 18.8781 9.28984H17.9261V8.56169H18.891C19.0275 8.56169 19.17 8.5678 19.2626 8.62084C19.3642 8.66858 19.4271 8.77022 19.4271 8.91063C19.4271 9.0539 19.3673 9.16919 19.2657 9.22229ZM7.45052 9.74271L6.91423 8.43584L6.38096 9.74271H7.45052Z" fill="#FFFFFE"/>
<path id="Fill-5" fill-rule="evenodd" clip-rule="evenodd" d="M20.3943 14.5451C20.3943 15.4559 19.7148 15.644 19.0298 15.644H18.0521V16.7439H16.529L15.5642 15.6584L14.5614 16.7439H11.4576V13.4648H14.6092L15.5733 14.5396L16.57 13.4648H19.0738C19.6957 13.4648 20.3943 13.637 20.3943 14.5451ZM14.1648 16.0605H12.2382V15.4081H13.9585V14.7391H12.2382V14.143H14.2027L15.0598 15.0985L14.1648 16.0605ZM17.2716 16.4457L16.0686 15.11L17.2716 13.8167V16.4457ZM19.0647 14.9781H18.0521V14.143H19.0738C19.3567 14.143 19.5531 14.2584 19.5531 14.5451C19.5531 14.8287 19.3658 14.9781 19.0647 14.9781ZM24.3515 13.4648H26.9668V14.143H25.1319V14.7391H26.9219V15.4081H25.1319V16.0605L26.9668 16.0635V16.7439H24.3515V13.4648ZM23.3616 15.2201C23.536 15.2844 23.6786 15.3998 23.7455 15.4953C23.8561 15.6554 23.8721 15.8048 23.8753 16.0938V16.7439H23.0886V16.3336C23.0886 16.1364 23.1076 15.8443 22.9619 15.6918C22.8474 15.5743 22.6729 15.5462 22.3871 15.5462H21.5496V16.7439H20.7623V13.4648H22.5714C22.9681 13.4648 23.257 13.4823 23.5142 13.6196C23.7615 13.769 23.917 13.9737 23.917 14.3477C23.9169 14.8711 23.5679 15.1382 23.3616 15.2201ZM22.8884 14.812C22.7835 14.8741 22.6539 14.8795 22.5015 14.8795H21.5495V14.143H22.5144C22.6539 14.143 22.7935 14.146 22.8884 14.2023C22.9899 14.2554 23.0507 14.3569 23.0507 14.4972C23.0507 14.6375 22.9899 14.7506 22.8884 14.812ZM29.959 15.0144C30.1116 15.1724 30.1934 15.3717 30.1934 15.7092C30.1934 16.4146 29.7527 16.7439 28.9625 16.7439H27.4363V16.0407H28.9563C29.1049 16.0407 29.2103 16.0211 29.2764 15.9596C29.3303 15.9088 29.369 15.8351 29.369 15.7457C29.369 15.6501 29.3271 15.5743 29.2733 15.5289C29.2134 15.4788 29.1307 15.4561 28.9943 15.4561C28.2615 15.431 27.3438 15.4788 27.3438 14.4411C27.3438 13.9655 27.6426 13.4649 28.4641 13.4649H30.035V14.1628H28.5976C28.4551 14.1628 28.3624 14.1681 28.2836 14.222C28.1978 14.2751 28.166 14.3539 28.166 14.458C28.166 14.5817 28.2389 14.6658 28.3374 14.7022C28.4201 14.731 28.5089 14.7394 28.6424 14.7394L29.0642 14.7507C29.4896 14.7611 29.7816 14.8347 29.959 15.0144ZM33.0848 16.3244C32.8944 16.6028 32.5235 16.7439 32.0214 16.7439H30.5081V16.0407H32.0153C32.1647 16.0407 32.2694 16.0211 32.3324 15.9596C32.3869 15.9088 32.425 15.8351 32.425 15.7457C32.425 15.6501 32.3869 15.5743 32.3293 15.5289C32.2724 15.4788 32.1897 15.4561 32.0532 15.4561C31.3175 15.431 30.3996 15.4788 30.3996 14.4411C30.3996 13.9655 30.7015 13.4649 31.5238 13.4649H33.0846L33.0848 12.8125H31.6345C31.1968 12.8125 30.8789 12.9173 30.6538 13.0803V12.8125H28.5088C28.1658 12.8125 27.7632 12.8975 27.5727 13.0803V12.8125H23.7423V13.0803C23.4375 12.8604 22.9231 12.8125 22.6857 12.8125H20.1591V13.0803C19.9179 12.8467 19.3816 12.8125 19.0547 12.8125H16.2271L15.58 13.5128L14.974 12.8125H10.75V17.3878H14.8945L15.5612 16.6765L16.1893 17.3878L18.7439 17.3901V16.3138H18.9951C19.3341 16.3191 19.7338 16.3054 20.0865 16.153V17.3878H22.1936V16.1953H22.2953C22.425 16.1953 22.4378 16.2007 22.4378 16.3303V17.3877H28.8388C29.2452 17.3877 29.6701 17.2836 29.9053 17.0949V17.3877H31.9357C32.3581 17.3877 32.7708 17.3285 33.0848 17.1767V16.3244ZM33.0848 14.1626H31.6566C31.514 14.1626 31.4193 14.168 31.3395 14.2219C31.2568 14.2749 31.225 14.3538 31.225 14.4578C31.225 14.5815 31.2948 14.6656 31.3964 14.702C31.479 14.7308 31.5678 14.7392 31.6983 14.7392L32.1231 14.7506C32.5516 14.7611 32.8376 14.8348 33.0121 15.0145C33.0438 15.0395 33.0629 15.0675 33.0848 15.0956V14.1626Z" fill="#FFFFFE"/>
<path id="Rectangle" d="M34.0796 12.8125H33.0796V17.1719H34.0796V12.8125Z" fill="#FFFFFE"/>
<path id="Path" fill-rule="evenodd" clip-rule="evenodd" d="M32.2119 16.0112H30.5185V16.7456H32.2073C32.9181 16.7456 33.3391 16.3149 33.3391 15.6836C33.3391 15.0897 32.9694 14.7436 32.3196 14.7436H31.5431C31.3698 14.7436 31.2482 14.6359 31.2482 14.4722C31.2482 14.3086 31.3698 14.2056 31.5431 14.2056H32.9555L33.2781 13.4712H31.5523C30.8412 13.4712 30.4155 13.9061 30.4155 14.5004C30.4155 15.1178 30.8179 15.4733 31.4401 15.4733H32.2119C32.3848 15.4733 32.5113 15.5809 32.5113 15.7446C32.5113 15.9081 32.3848 16.0112 32.2119 16.0112Z" fill="#006FAC"/>
</g>
<path id="Shape_2" fill-rule="evenodd" clip-rule="evenodd" d="M34.0751 1C35.6879 1 37 2.3121 37 3.9249V21.0751C37 22.6879 35.6879 24 34.0751 24H3.9249C2.3121 24 1 22.6879 1 21.0751V3.9249C1 2.3121 2.3121 1 3.9249 1H34.0751ZM34.0751 0H3.9249C1.7572 0 0 1.7572 0 3.9249V21.0751C0 23.2428 1.7572 25 3.9249 25H34.0751C36.2428 25 38 23.2428 38 21.0751V3.9249C38 1.7572 36.2428 0 34.0751 0Z" fill="#E3EAED"/>
</g>
</g>
</g>
</g>
<defs>
<clipPath id="clip0_275_883">
<rect width="38" height="25" fill="white"/>
</clipPath>
</defs>
</svg>
