<svg width="38" height="25" viewBox="0 0 38 25" fill="none" xmlns="http://www.w3.org/2000/svg">
<g id="Frame" clip-path="url(#clip0_275_874)">
<g id="Group">
<path id="Vector" fill-rule="evenodd" clip-rule="evenodd" d="M33.804 24.5562H4.36301C3.36066 24.5562 2.39936 24.158 1.6905 23.4494C0.981639 22.7407 0.583273 21.7795 0.583008 20.7772V4.33615C0.583008 3.33363 0.981257 2.37218 1.69014 1.66329C2.39903 0.954401 3.36049 0.556152 4.36301 0.556152H33.803C34.2994 0.556152 34.7909 0.653925 35.2495 0.843888C35.7082 1.03385 36.1249 1.31228 36.4759 1.66329C36.8269 2.01429 37.1053 2.431 37.2953 2.88961C37.4852 3.34822 37.583 3.83976 37.583 4.33615V20.7762C37.583 21.2725 37.4852 21.7641 37.2953 22.2227C37.1053 22.6813 36.8269 23.098 36.4759 23.449C36.1249 23.8 35.7082 24.0785 35.2495 24.2684C34.7909 24.4584 34.3004 24.5562 33.804 24.5562Z" fill="white"/>
<path id="Vector_2" fill-rule="evenodd" clip-rule="evenodd" d="M34.075 1C34.8505 1.00079 35.594 1.30922 36.1424 1.85759C36.6908 2.40596 36.9992 3.14949 37 3.925V21.075C36.9992 21.8505 36.6908 22.594 36.1424 23.1424C35.594 23.6908 34.8505 23.9992 34.075 24H3.925C3.14949 23.9992 2.40596 23.6908 1.85759 23.1424C1.30922 22.594 1.00079 21.8505 1 21.075V3.925C1.00079 3.14949 1.30922 2.40596 1.85759 1.85759C2.40596 1.30922 3.14949 1.00079 3.925 1H34.075ZM34.075 0H3.925C2.88403 0 1.88569 0.413526 1.14961 1.14961C0.413526 1.88569 0 2.88403 0 3.925L0 21.075C0 21.5904 0.101523 22.1008 0.298773 22.577C0.496023 23.0532 0.785136 23.4859 1.14961 23.8504C1.51408 24.2149 1.94676 24.504 2.42297 24.7012C2.89917 24.8985 3.40956 25 3.925 25H34.075C34.5904 25 35.1008 24.8985 35.577 24.7012C36.0532 24.504 36.4859 24.2149 36.8504 23.8504C37.2149 23.4859 37.504 23.0532 37.7012 22.577C37.8985 22.1008 38 21.5904 38 21.075V3.925C38 2.88403 37.5865 1.88569 36.8504 1.14961C36.1143 0.413526 35.116 0 34.075 0Z" fill="#E3EAED"/>
<g id="Group_2">
<path id="Vector_3" d="M12.047 20.8339V19.7249C12.047 19.2999 11.788 19.0229 11.345 19.0229C11.2222 19.0181 11.1001 19.0443 10.9902 19.0992C10.8802 19.1541 10.7859 19.2359 10.716 19.3369C10.587 19.1339 10.402 19.0229 10.125 19.0229C10.0239 19.0186 9.92336 19.0401 9.83289 19.0854C9.74243 19.1307 9.66501 19.1983 9.60797 19.2819V19.0599H9.21997V20.8339H9.60797V19.8539C9.60797 19.5399 9.77397 19.3919 10.033 19.3919C10.292 19.3919 10.421 19.5589 10.421 19.8539V20.8339H10.809V19.8539C10.809 19.5399 10.994 19.3919 11.234 19.3919C11.492 19.3919 11.622 19.5589 11.622 19.8539V20.8339H12.047ZM17.794 19.0599H17.165V18.5239H16.777V19.0599H16.427V19.4109H16.777V20.2239C16.777 20.6299 16.943 20.8709 17.387 20.8709C17.553 20.8709 17.738 20.8149 17.867 20.7409L17.757 20.4089C17.6572 20.4712 17.5415 20.5032 17.424 20.5009C17.239 20.5009 17.165 20.3899 17.165 20.2049V19.4109H17.793V19.0599H17.794ZM21.083 19.0229C20.9898 19.0207 20.8978 19.0436 20.8165 19.0892C20.7352 19.1347 20.6677 19.2013 20.621 19.2819V19.0599H20.233V20.8339H20.621V19.8359C20.621 19.5399 20.75 19.3739 20.99 19.3739C21.064 19.3739 21.157 19.3919 21.23 19.4109L21.341 19.0409C21.267 19.0229 21.157 19.0229 21.083 19.0229ZM16.112 19.2079C15.927 19.0779 15.669 19.0229 15.392 19.0229C14.948 19.0229 14.652 19.2449 14.652 19.5959C14.652 19.8909 14.874 20.0579 15.262 20.1129L15.447 20.1319C15.65 20.1679 15.761 20.2239 15.761 20.3159C15.761 20.4459 15.613 20.5379 15.354 20.5379C15.096 20.5379 14.892 20.4459 14.763 20.3529L14.578 20.6489C14.782 20.7969 15.058 20.8709 15.336 20.8709C15.853 20.8709 16.149 20.6299 16.149 20.2979C16.149 19.9839 15.909 19.8169 15.539 19.7619L15.354 19.7429C15.188 19.7249 15.059 19.6879 15.059 19.5769C15.059 19.4479 15.188 19.3739 15.391 19.3739C15.613 19.3739 15.835 19.4659 15.946 19.5219L16.112 19.2079ZM26.423 19.0229C26.3298 19.0207 26.2378 19.0436 26.1565 19.0892C26.0753 19.1347 26.0077 19.2013 25.961 19.2819V19.0599H25.573V20.8339H25.961V19.8359C25.961 19.5399 26.09 19.3739 26.33 19.3739C26.404 19.3739 26.497 19.3919 26.571 19.4109L26.682 19.0409C26.608 19.0229 26.497 19.0229 26.423 19.0229ZM21.471 19.9469C21.471 20.4829 21.84 20.8709 22.413 20.8709C22.672 20.8709 22.857 20.8149 23.041 20.6669L22.857 20.3529C22.7262 20.459 22.5634 20.5178 22.395 20.5199C22.08 20.5199 21.859 20.2979 21.859 19.9469C21.859 19.6139 22.08 19.3919 22.395 19.3739C22.561 19.3739 22.709 19.4289 22.857 19.5399L23.041 19.2259C22.857 19.0779 22.672 19.0229 22.413 19.0229C21.84 19.0229 21.471 19.4109 21.471 19.9469ZM25.055 19.9469V19.0599H24.667V19.2819C24.6021 19.1976 24.5179 19.13 24.4215 19.0849C24.3251 19.0399 24.2193 19.0186 24.113 19.0229C23.614 19.0229 23.226 19.4109 23.226 19.9469C23.226 20.4829 23.614 20.8709 24.113 20.8709C24.372 20.8709 24.557 20.7779 24.667 20.6119V20.8339H25.055V19.9469ZM23.633 19.9469C23.633 19.6329 23.836 19.3739 24.168 19.3739C24.483 19.3739 24.704 19.6139 24.704 19.9469C24.704 20.2609 24.483 20.5199 24.168 20.5199C23.836 20.5009 23.633 20.2609 23.633 19.9469ZM18.995 19.0229C18.477 19.0229 18.108 19.3919 18.108 19.9469C18.108 20.5009 18.477 20.8709 19.013 20.8709C19.272 20.8709 19.53 20.7969 19.734 20.6299L19.549 20.3529C19.4006 20.4679 19.2196 20.5327 19.032 20.5379C18.791 20.5379 18.551 20.4269 18.496 20.1129H19.808V19.9649C19.826 19.3919 19.493 19.0229 18.995 19.0229ZM18.995 19.3549C19.235 19.3549 19.401 19.5029 19.438 19.7799H18.514C18.551 19.5399 18.717 19.3549 18.995 19.3549ZM28.622 19.9469V18.3579H28.234V19.2819C28.1689 19.1975 28.0845 19.13 27.988 19.0849C27.8914 19.0399 27.7854 19.0186 27.679 19.0229C27.18 19.0229 26.792 19.4109 26.792 19.9469C26.792 20.4829 27.18 20.8709 27.679 20.8709C27.938 20.8709 28.123 20.7779 28.234 20.6119V20.8339H28.622V19.9469ZM27.199 19.9469C27.199 19.6329 27.402 19.3739 27.735 19.3739C28.049 19.3739 28.271 19.6139 28.271 19.9469C28.271 20.2609 28.049 20.5199 27.735 20.5199C27.402 20.5009 27.199 20.2609 27.199 19.9469ZM14.227 19.9469V19.0599H13.839V19.2819C13.774 19.1976 13.6898 19.1301 13.5935 19.0851C13.4971 19.04 13.3913 19.0187 13.285 19.0229C12.785 19.0229 12.398 19.4109 12.398 19.9469C12.398 20.4829 12.786 20.8709 13.285 20.8709C13.543 20.8709 13.728 20.7779 13.839 20.6119V20.8339H14.227V19.9469ZM12.786 19.9469C12.786 19.6329 12.989 19.3739 13.322 19.3739C13.636 19.3739 13.857 19.6139 13.857 19.9469C13.857 20.2609 13.636 20.5199 13.322 20.5199C12.989 20.5009 12.786 20.2609 12.786 19.9469Z" fill="#161718"/>
<path id="Vector_4" d="M15.9829 5.58984H21.8029V16.0478H15.9829V5.58984Z" fill="#FF5F00"/>
<path id="Vector_5" d="M16.3519 10.8188C16.3521 9.81251 16.58 8.81931 17.0185 7.91359C17.4569 7.00786 18.0947 6.21309 18.8839 5.5888C17.903 4.81814 16.725 4.33902 15.4846 4.20623C14.2442 4.07344 12.9915 4.29233 11.8696 4.83787C10.7477 5.38342 9.80202 6.23361 9.14052 7.29125C8.47903 8.3489 8.12847 9.57133 8.12891 10.8188C8.12866 12.0662 8.47936 13.2885 9.14092 14.346C9.80249 15.4035 10.7482 16.2535 11.8701 16.7989C12.9919 17.3444 14.2445 17.5632 15.4848 17.4303C16.7251 17.2975 17.903 16.8184 18.8839 16.0478C18.0931 15.4249 17.4543 14.6304 17.0156 13.7244C16.577 12.8183 16.35 11.8244 16.3519 10.8178V10.8188Z" fill="#EB001B"/>
<path id="Vector_6" d="M29.6569 10.819C29.6571 12.0664 29.3064 13.2887 28.6448 14.3462C27.9833 15.4037 27.0375 16.2537 25.9157 16.7992C24.7939 17.3446 23.5412 17.5634 22.3009 17.4306C21.0606 17.2977 19.8827 16.8186 18.9019 16.048C20.4539 14.828 21.4339 12.944 21.4339 10.818C21.4339 8.69202 20.4359 6.80802 18.9019 5.58902C20.07 4.6664 21.5153 4.16502 23.0039 4.16602C26.6819 4.16602 29.6569 7.16002 29.6569 10.819Z" fill="#F79E1B"/>
</g>
</g>
</g>
<defs>
<clipPath id="clip0_275_874">
<rect width="38" height="25" fill="white"/>
</clipPath>
</defs>
</svg>
