<svg width="38" height="25" viewBox="0 0 38 25" fill="none" xmlns="http://www.w3.org/2000/svg">
<g id="Frame" clip-path="url(#clip0_103_2569)">
<path id="Vector" d="M0 4C0 2.93913 0.421427 1.92172 1.17157 1.17157C1.92172 0.421427 2.93913 0 4 0L34 0C35.0609 0 36.0783 0.421427 36.8284 1.17157C37.5786 1.92172 38 2.93913 38 4V21C38 22.0609 37.5786 23.0783 36.8284 23.8284C36.0783 24.5786 35.0609 25 34 25H4C2.93913 25 1.92172 24.5786 1.17157 23.8284C0.421427 23.0783 0 22.0609 0 21V4Z" fill="white"/>
<g id="Mask group">
<mask id="mask0_103_2569" style="mask-type:alpha" maskUnits="userSpaceOnUse" x="10" y="16" width="15" height="6">
<g id="Group">
<path id="Vector_2" fill-rule="evenodd" clip-rule="evenodd" d="M10 16.5898H24.445V21.0248H10V16.5898Z" fill="white"/>
</g>
</mask>
<g mask="url(#mask0_103_2569)">
<g id="Group_2">
<path id="Vector_3" fill-rule="evenodd" clip-rule="evenodd" d="M23.2976 18.0848C23.2146 18.6578 22.7996 18.6578 22.3986 18.6578H22.1706L22.3306 17.5878C22.3345 17.5572 22.3492 17.5291 22.3722 17.5085C22.3952 17.4879 22.4248 17.4763 22.4556 17.4758H22.5596C22.8326 17.4758 23.0906 17.4758 23.2236 17.6398C23.3036 17.7378 23.3276 17.8838 23.2976 18.0848ZM23.1226 16.5898H21.6096C21.5583 16.5911 21.5092 16.6108 21.4712 16.6454C21.4332 16.6799 21.4088 16.7269 21.4026 16.7778L20.7906 20.8708C20.7786 20.9508 20.8376 21.0248 20.9156 21.0248H21.6916C21.7275 21.0239 21.7618 21.0102 21.7884 20.9862C21.815 20.9622 21.8321 20.9294 21.8366 20.8938L22.0106 19.7338C22.0168 19.6829 22.0412 19.6359 22.0792 19.6014C22.1172 19.5668 22.1663 19.5471 22.2176 19.5458H22.6966C23.6926 19.5458 24.2676 19.0368 24.4186 18.0278C24.4856 17.5878 24.4206 17.2408 24.2256 16.9978C24.0096 16.7308 23.6286 16.5898 23.1226 16.5898Z" fill="#238EC2"/>
<path id="Vector_4" fill-rule="evenodd" clip-rule="evenodd" d="M12.5076 18.0848C12.4256 18.6578 12.0106 18.6578 11.6096 18.6578H11.3816L11.5416 17.5878C11.5454 17.5574 11.56 17.5294 11.5828 17.5088C11.6055 17.4883 11.6349 17.4766 11.6656 17.4758H11.7706C12.0436 17.4758 12.3006 17.4758 12.4346 17.6398C12.5146 17.7378 12.5376 17.8838 12.5076 18.0848ZM12.3336 16.5898H10.8196C10.7681 16.5909 10.7187 16.6105 10.6805 16.645C10.6423 16.6796 10.6178 16.7267 10.6116 16.7778L10.0006 20.8708C9.98858 20.9508 10.0476 21.0248 10.1246 21.0248H10.8466C10.9506 21.0248 11.0386 20.9448 11.0546 20.8368L11.2196 19.7328C11.226 19.6819 11.2506 19.635 11.2888 19.6007C11.327 19.5663 11.3762 19.5469 11.4276 19.5458H11.9056C12.9026 19.5458 13.4776 19.0368 13.6276 18.0278C13.6956 17.5878 13.6306 17.2408 13.4346 16.9978C13.2196 16.7308 12.8396 16.5898 12.3336 16.5898Z" fill="#253667"/>
</g>
</g>
</g>
<path id="Vector_5" fill-rule="evenodd" clip-rule="evenodd" d="M16.08 19.7459C16.01 20.1289 15.675 20.3859 15.248 20.3859C15.034 20.3859 14.862 20.3229 14.752 20.2049C14.6968 20.1413 14.6576 20.0655 14.6376 19.9838C14.6176 19.902 14.6174 19.8167 14.637 19.7349C14.703 19.3549 15.043 19.0909 15.464 19.0909C15.674 19.0909 15.844 19.1539 15.956 19.2729C16.069 19.3929 16.112 19.5609 16.08 19.7459ZM17.11 18.4439H16.372C16.308 18.4439 16.254 18.4859 16.244 18.5419L16.212 18.7289L16.16 18.6619C16 18.4519 15.644 18.3809 15.289 18.3809C14.473 18.3809 13.777 18.9409 13.641 19.7269C13.571 20.1189 13.671 20.4939 13.916 20.7549C14.141 20.9949 14.462 21.0949 14.846 21.0949C15.503 21.0949 15.867 20.7119 15.867 20.7119L15.834 20.8979C15.822 20.9689 15.882 21.0329 15.961 21.0329H16.626C16.731 21.0329 16.821 20.9629 16.837 20.8689L17.237 18.5789C17.249 18.5079 17.189 18.4439 17.11 18.4439Z" fill="#253667"/>
<path id="Vector_6" fill-rule="evenodd" clip-rule="evenodd" d="M26.0329 19.7459C25.9629 20.1289 25.6269 20.3859 25.1999 20.3859C24.9859 20.3859 24.8149 20.3229 24.7049 20.2049C24.6495 20.1414 24.61 20.0657 24.5898 19.9839C24.5697 19.9022 24.5693 19.8168 24.5889 19.7349C24.6559 19.3549 24.9959 19.0909 25.4159 19.0909C25.6259 19.0909 25.7959 19.1539 25.9079 19.2729C26.0209 19.3929 26.0659 19.5609 26.0329 19.7459ZM27.0619 18.4439H26.3239C26.2609 18.4439 26.2069 18.4859 26.1969 18.5419L26.1649 18.7289L26.1129 18.6619C25.9529 18.4519 25.5969 18.3809 25.2409 18.3809C24.4259 18.3809 23.7289 18.9409 23.5929 19.7269C23.5229 20.1189 23.6229 20.4939 23.8679 20.7549C24.0939 20.9949 24.4149 21.0949 24.7979 21.0949C25.4549 21.0949 25.8199 20.7119 25.8199 20.7119L25.7869 20.8979C25.7739 20.9689 25.8349 21.0329 25.9139 21.0329H26.5779C26.6839 21.0329 26.7729 20.9629 26.7899 20.8689L27.1889 18.5789C27.2009 18.5079 27.1409 18.4439 27.0619 18.4439Z" fill="#238EC2"/>
<g id="Mask group_2">
<mask id="mask1_103_2569" style="mask-type:alpha" maskUnits="userSpaceOnUse" x="17" y="16" width="12" height="6">
<g id="Group_3">
<path id="Vector_7" fill-rule="evenodd" clip-rule="evenodd" d="M17.2666 16.5898H28.9826V21.9998H17.2666V16.5898Z" fill="white"/>
</g>
</mask>
<g mask="url(#mask1_103_2569)">
<g id="Group_4">
<path id="Vector_8" fill-rule="evenodd" clip-rule="evenodd" d="M20.5312 18.0498H19.8272C19.7931 18.0502 19.7597 18.0594 19.7301 18.0763C19.7005 18.0933 19.6758 18.1176 19.6582 18.1468L18.6872 19.6908L18.2752 18.2068C18.2643 18.163 18.2393 18.1241 18.2041 18.0959C18.1688 18.0677 18.1253 18.0519 18.0802 18.0508H17.3882C17.3042 18.0508 17.2452 18.1398 17.2722 18.2248L18.0482 20.6818L17.3182 21.7918C17.2612 21.8788 17.3182 21.9998 17.4182 21.9998H18.1222C18.1557 21.9994 18.1886 21.9905 18.2177 21.9741C18.2469 21.9577 18.2715 21.9342 18.2892 21.9058L20.6312 18.2578C20.6872 18.1698 20.6292 18.0508 20.5312 18.0508" fill="#253667"/>
<path id="Vector_9" fill-rule="evenodd" clip-rule="evenodd" d="M28.0635 16.7008L27.4635 20.8248C27.4515 20.9048 27.5085 20.9768 27.5835 20.9768H28.1875C28.2875 20.9768 28.3725 20.8978 28.3875 20.7908L28.9805 16.7418C28.9925 16.6618 28.9355 16.5898 28.8605 16.5898H28.1845C28.1545 16.5909 28.1259 16.6026 28.1039 16.623C28.0818 16.6434 28.0679 16.671 28.0645 16.7008" fill="#238EC2"/>
</g>
</g>
</g>
<path id="Vector_10" fill-rule="evenodd" clip-rule="evenodd" d="M24.3081 6.218C24.4641 5.233 24.3071 4.562 23.7681 3.955C23.1741 3.286 22.1021 3 20.7301 3H16.7481C16.4681 3 16.2281 3.202 16.1851 3.476L14.5281 13.87C14.5209 13.9185 14.5243 13.968 14.538 14.015C14.5517 14.0621 14.5754 14.1056 14.6075 14.1427C14.6396 14.1797 14.6793 14.2094 14.724 14.2296C14.7686 14.2499 14.8171 14.2602 14.8661 14.26H17.3241L17.1541 15.324C17.1476 15.3665 17.1504 15.4099 17.1623 15.4513C17.1742 15.4926 17.195 15.5309 17.2231 15.5634C17.2513 15.5959 17.2861 15.6219 17.3253 15.6396C17.3645 15.6574 17.4071 15.6664 17.4501 15.666H19.5211C19.6393 15.6666 19.7539 15.6251 19.8443 15.5488C19.9346 15.4726 19.9948 15.3666 20.0141 15.25L20.0341 15.146L20.4241 12.699L20.4501 12.563C20.4694 12.4465 20.5294 12.3407 20.6196 12.2645C20.7097 12.1883 20.8241 12.1466 20.9421 12.147H21.2521C23.2591 12.147 24.8311 11.341 25.2901 9.009C25.4821 8.035 25.3831 7.221 24.8751 6.649C24.714 6.47172 24.5218 6.32632 24.3081 6.218Z" fill="#238EC2"/>
<path id="Vector_11" fill-rule="evenodd" clip-rule="evenodd" d="M24.4177 6.10316C24.5757 5.15316 24.4177 4.50616 23.8717 3.92116C23.2717 3.27616 22.1877 3.00016 20.7997 3.00016H16.7737C16.6399 2.99697 16.5093 3.04119 16.405 3.12501C16.3007 3.20882 16.2294 3.32683 16.2037 3.45816L14.5277 13.4812C14.4947 13.6782 14.6577 13.8572 14.8687 13.8572H17.3547L17.9797 10.1252L17.9597 10.2422C17.9847 10.111 18.0554 9.99291 18.1592 9.90889C18.263 9.82487 18.3932 9.78032 18.5267 9.78316H19.7087C22.0287 9.78316 23.8457 8.89516 24.3767 6.32516C24.3927 6.24916 24.4067 6.17516 24.4177 6.10316Z" fill="#20274F"/>
<path id="Vector_12" fill-rule="evenodd" clip-rule="evenodd" d="M18.6497 6.11516C18.6637 6.03769 18.6966 5.96486 18.7454 5.90312C18.7942 5.84137 18.8575 5.79262 18.9297 5.76116C18.9982 5.73015 19.0725 5.71413 19.1477 5.71416H22.3047C22.6787 5.71416 23.0267 5.73716 23.3457 5.78616C23.5195 5.81283 23.6918 5.84888 23.8617 5.89416L23.9817 5.92916C24.1377 5.97816 24.2837 6.03616 24.4177 6.10316C24.5757 5.15316 24.4177 4.50616 23.8717 3.92116C23.2717 3.27616 22.1877 3.00016 20.7997 3.00016H16.7737C16.6399 2.99697 16.5093 3.04119 16.405 3.12501C16.3007 3.20882 16.2294 3.32683 16.2037 3.45816L14.5277 13.4812C14.4947 13.6782 14.6577 13.8572 14.8687 13.8572H17.3547L18.6497 6.11516Z" fill="#253667"/>
<path id="Vector_13" d="M34 0.5H4C2.067 0.5 0.5 2.067 0.5 4V21C0.5 22.933 2.067 24.5 4 24.5H34C35.933 24.5 37.5 22.933 37.5 21V4C37.5 2.067 35.933 0.5 34 0.5Z" stroke="#DFE5EB"/>
</g>
<defs>
<clipPath id="clip0_103_2569">
<rect width="38" height="25" fill="white"/>
</clipPath>
</defs>
</svg>
