<svg width="2789" height="1223" fill="none" xmlns="http://www.w3.org/2000/svg"><g opacity=".7" filter="url(#filter0_f_46_443)"><path fill="#6F64A3" d="M435 435.834h1919v352H435z"/></g><path d="M787.499 508.334s91.469-68.831 169-93c133.871-41.733 220.031-26.247 359.001-7.5 43.68 5.893 67.03 23.6 111 20.5 45.09-3.178 65.36-27.762 109.5-37.5 96.53-21.296 160.32-26.387 253 8 54.79 20.327 114.28 20.699 128 77.5 12.37 51.185-23.05 82.996-59.5 121-86.91 90.613-196.09-6.049-321.5 0-91.4 4.408-142.02 21.514-233.5 19.5-53.68-1.182-83.43-7.992-137-11.5-97.47-6.383-154.13-26.728-250.001-8-44.072 8.609-125.953-12.359-128 32.5-1.206 26.427 38.669 23.957 56.5 43.5 63.304 69.381 146.096 13.728 240.001 15.5 132.7 2.504 203.28-.662 336 0 119.65.597 186.37 13.119 306 15.5 77.5 1.542 195.74-77.47 198.5 0 2.31 64.81-71.27 87.028-135.5 96-45.1 6.299-69.44-15.45-114.5-22-60.11-8.738-155-13-155-13l-361.5 55.5s-134.91 49.525-201.501 7.5c-117.868-74.382 57.851-243.655 182.001-307 105.57-53.869 185.06 4.506 303.5 0 79.77-3.035 204-13 204-13" stroke="#fff"/><path opacity=".14" d="M420 408.333c310.723 638.997 558.857-84.827 712.48-57.036 148.49 26.861 19.42 477.679 163.83 526.059 195.32 65.436 215.73-533.745 484.47-538.307C2088 333.834 1951.5 745.334 2354 794.833" stroke="#fff" stroke-width="5"/><path opacity=".14" d="M420 390.333c310.723 638.997 558.857-84.827 712.48-57.036 148.49 26.861 19.42 477.679 163.83 526.059 195.32 65.436 215.73-533.745 484.47-538.307C2088 315.834 1951.5 727.334 2354 776.833" stroke="#fff" stroke-width="3"/><path opacity=".14" d="M420 372.333c310.723 638.997 558.857-84.827 712.48-57.036 148.49 26.861 19.42 477.679 163.83 526.059 195.32 65.436 215.73-533.745 484.47-538.307C2088 297.834 1951.5 709.334 2354 758.833" stroke="#fff"/><path opacity=".14" d="M431 431.834c310.08 720.626 487.194 77.659 640.5 108.999 148.18 30.293 72.39 293.441 216.5 348.001 194.92 73.795 316-445.001 522.5-418.985 149 18.772 33 265.484 546.5 325.484" stroke="#fff" stroke-width="5"/><path opacity=".14" d="M430.5 415.834c310.08 720.626 487.194 77.659 640.5 108.999 148.18 30.293 72.39 293.441 216.5 348.001 194.92 73.795 316-445.001 522.5-418.985 149 18.772 33 265.484 546.5 325.484" stroke="#fff" stroke-width="3"/><path opacity=".14" d="M430.5 399.834c310.08 720.626 487.194 77.659 640.5 108.999 148.18 30.293 72.39 293.441 216.5 348.001 194.92 73.795 316-445.001 522.5-418.985 149 18.772 33 265.484 546.5 325.484" stroke="#fff"/><circle cx="1824" cy="794.834" r="6" fill="#C5C1DE"/><circle cx="888" cy="445.834" r="6" fill="#C5C1DE"/><circle cx="787" cy="637.834" r="6" fill="#C5C1DE"/><circle cx="1889" cy="434.834" r="6" fill="#C5C1DE"/><circle cx="917" cy="764.834" r="6" fill="#C5C1DE"/><circle cx="799.5" cy="608.334" r="3.5" fill="#C5C1DE"/><circle cx="1815.5" cy="407.334" r="3.5" fill="#C5C1DE"/><circle cx="1315.5" cy="617.334" r="3.5" fill="#C5C1DE"/><circle cx="1082.5" cy="554.334" r="3.5" fill="#C5C1DE"/><circle cx="927.5" cy="801.334" r="3.5" fill="#C5C1DE"/><circle cx="1906.5" cy="755.334" r="3.5" fill="#C5C1DE"/><circle cx="1885.5" cy="568.334" r="3.5" fill="#C5C1DE"/><defs><filter id="filter0_f_46_443" x="0" y=".834" width="2789" height="1222" filterUnits="userSpaceOnUse" color-interpolation-filters="sRGB"><feFlood flood-opacity="0" result="BackgroundImageFix"/><feBlend in="SourceGraphic" in2="BackgroundImageFix" result="shape"/><feGaussianBlur stdDeviation="217.5" result="effect1_foregroundBlur_46_443"/></filter></defs></svg>