<svg width="1181" height="373" fill="none" xmlns="http://www.w3.org/2000/svg"><path d="M10.5 10h1155a5 5 0 015 5v110.5c0 2.761-2.24 5-5 5H15.5a5 5 0 00-5 5V246a5 5 0 005 5h1150c2.76 0 5 2.239 5 5v102.5c0 2.761-2.24 5-5 5h-959" stroke="#fff" stroke-width="2"/><circle cx="10.5" cy="10" r="10" fill="#fff"/><circle cx="210.5" cy="363" r="10" fill="#fff"/><path d="M525 9.134a1 1 0 010 1.732l-12 6.928a1 1 0 01-1.5-.866V3.072a1 1 0 011.5-.866l12 6.928z" fill="#fff"/><path d="M537.004 9.134a1 1 0 010 1.732l-12 6.928a1 1 0 01-1.5-.866V3.072a1 1 0 011.5-.866l12 6.928zm-427 120a1 1 0 000 1.732l12 6.928a1 1 0 001.5-.866v-13.856a1 1 0 00-1.5-.866l-12 6.928z" fill="#fff"/><path d="M98 129.134a1 1 0 000 1.732l12 6.928a1 1 0 001.5-.866v-13.856a1 1 0 00-1.5-.866l-12 6.928zm968 0a1.005 1.005 0 000 1.732l12 6.928a1 1 0 001.5-.866v-13.856a1 1 0 00-1.5-.866l-12 6.928z" fill="#fff"/><path d="M1054 129.134a.997.997 0 000 1.732l12 6.928a1 1 0 001.5-.866v-13.856a1 1 0 00-1.5-.866l-12 6.928zm-25 233a1.005 1.005 0 000 1.732l12 6.928a1 1 0 001.5-.866v-13.856a1 1 0 00-1.5-.866l-12 6.928z" fill="#fff"/><path d="M1017 362.134a.997.997 0 000 1.732l12 6.928a1 1 0 001.5-.866v-13.856a1 1 0 00-1.5-.866l-12 6.928zm-391-112a1 1 0 010 1.732l-12 6.928a1 1 0 01-1.5-.866v-13.856a1 1 0 011.5-.866l12 6.928z" fill="#fff"/><path d="M638.004 250.134a1 1 0 010 1.732l-12 6.928a1 1 0 01-1.5-.866v-13.856a1 1 0 011.5-.866l12 6.928zM1171.37 72.498c-.39.667-1.35.667-1.73 0l-6.93-12a.996.996 0 01.86-1.5h13.86c.77 0 1.25.834.87 1.5l-6.93 12z" fill="#fff"/><path d="M1171.37 84.502c-.39.666-1.35.666-1.73 0l-6.93-12a.996.996 0 01.86-1.5h13.86c.77 0 1.25.833.87 1.5l-6.93 12zm0 224.998c-.39.667-1.35.667-1.73 0l-6.93-12a.996.996 0 01.86-1.5h13.86c.77 0 1.25.833.87 1.5l-6.93 12z" fill="#fff"/><path d="M1171.37 321.503c-.39.667-1.35.667-1.73 0l-6.93-12a.996.996 0 01.86-1.5h13.86c.77 0 1.25.834.87 1.5l-6.93 12zM11.366 189.5a1 1 0 01-1.732 0l-6.928-12a1 1 0 01.866-1.5h13.856a1 1 0 01.866 1.5l-6.928 12z" fill="#fff"/><path d="M11.366 201.503a1 1 0 01-1.732 0l-6.928-12a1 1 0 01.866-1.5h13.856a1 1 0 01.866 1.5l-6.928 12z" fill="#fff"/></svg>