<svg width="25" height="24" fill="none" xmlns="http://www.w3.org/2000/svg"><path d="M16.86 14c.08-.66.14-1.32.14-2 0-.68-.06-1.34-.14-2h3.38c.16.64.26 1.31.26 2s-.1 1.36-.26 2h-3.38zm-1.77 5.56c.6-1.11 1.06-2.31 1.38-3.56h2.95a8.03 8.03 0 01-4.33 3.56zM14.84 14h-4.68c-.1-.66-.16-1.32-.16-2 0-.68.06-1.35.16-2h4.68c.09.65.16 1.32.16 2 0 .68-.07 1.34-.16 2zm-2.34 5.96c-.83-1.2-1.5-2.53-1.91-3.96h3.82c-.41 1.43-1.08 2.76-1.91 3.96zM8.5 8H5.58A7.923 7.923 0 019.9 4.44C9.3 5.55 8.85 6.75 8.5 8zm-2.92 8H8.5c.35 1.25.8 2.45 1.4 3.56A8.008 8.008 0 015.58 16zm-.82-2c-.16-.64-.26-1.31-.26-2s.1-1.36.26-2h3.38c-.08.66-.14 1.32-.14 2 0 .68.06 1.34.14 2H4.76zm7.74-9.97c.83 1.2 1.5 2.54 1.91 3.97h-3.82c.41-1.43 1.08-2.77 1.91-3.97zM19.42 8h-2.95a15.65 15.65 0 00-1.38-3.56c1.84.63 3.37 1.9 4.33 3.56zM12.5 2c-5.53 0-10 4.5-10 10a10 10 0 1010-10z" fill="#C1C1C1"/></svg>