<svg width="215" height="18" viewBox="0 0 215 18" fill="none" xmlns="http://www.w3.org/2000/svg">
<path fill-rule="evenodd" clip-rule="evenodd" d="M104.237 4.80687C104.237 4.7147 104.171 4.60925 104.092 4.56966C103.907 4.46426 103.629 4.39857 103.062 4.39857C101.781 4.39857 100.659 5.03079 100.17 6.09783V4.80687C100.17 4.70141 100.078 4.60925 99.9592 4.60925H98.0575C97.9518 4.60925 97.8596 4.68836 97.8596 4.80687V13.5536C97.8596 13.6589 97.9518 13.7511 98.0705 13.7511L100.078 13.7512C100.183 13.7512 100.276 13.6589 100.276 13.5536V9.61505C100.276 7.86297 101.504 6.99354 103.075 6.99354C103.445 6.99354 103.814 7.05923 103.999 7.12529C104.131 7.16487 104.25 7.07247 104.25 6.92767V4.79363L104.237 4.80687ZM91.4555 4.38533C94.2681 4.38533 96.3677 6.32175 96.3677 9.18008C96.3677 12.0255 94.2681 13.975 91.469 13.975C88.6696 13.975 86.5834 12.0387 86.5834 9.18008C86.5704 6.32175 88.6565 4.38533 91.4555 4.38533ZM91.4555 11.6041C92.8287 11.6041 93.8853 10.6423 93.8853 9.18008C93.8853 7.71798 92.8287 6.74333 91.4555 6.74333C90.0958 6.74333 89.0393 7.71798 89.0393 9.18008C89.0528 10.6423 90.1089 11.6041 91.4555 11.6041ZM80.3382 4.38533C83.1507 4.38533 85.2368 6.32175 85.2368 9.18008C85.2368 12.0255 83.1376 13.975 80.3512 13.975C77.5391 13.975 75.4395 12.0387 75.4395 9.18008C75.4395 6.32175 77.5256 4.38533 80.3382 4.38533ZM80.3382 11.6041C81.7114 11.6041 82.7675 10.6423 82.7675 9.18008C82.7675 7.71798 81.7114 6.74333 80.3512 6.74333C78.9915 6.74333 77.9349 7.71798 77.9349 9.18008C77.9219 10.6556 78.978 11.6172 80.3382 11.6041ZM73.7497 0.960279C73.8554 0.960279 73.9476 1.03939 73.9476 1.1579V13.5536C73.9476 13.6589 73.8684 13.7511 73.7497 13.7511L71.7423 13.7512C71.6366 13.7512 71.5444 13.6589 71.5444 13.5536V12.4735C70.871 13.4219 69.841 13.9882 68.5209 13.9882C66.2629 13.9882 64.3748 12.2759 64.3748 9.18027C64.3748 6.08478 66.2629 4.37223 68.4813 4.37223C69.9072 4.37223 70.9241 5.04403 71.5444 5.92655V1.15809C71.5444 1.05263 71.6366 0.947224 71.7558 0.947224L73.7497 0.960279ZM69.2338 11.6435C70.5805 11.6435 71.624 10.6951 71.624 9.19332C71.624 7.67858 70.5805 6.74333 69.2338 6.74333C67.8737 6.74333 66.8441 7.71798 66.8441 9.19332C66.8441 10.6819 67.8737 11.6435 69.2338 11.6435ZM63.0545 10.998C63.0545 13.0794 61.5493 13.975 59.1197 13.975C57.4561 13.975 56.0037 13.5141 55.1852 12.592C55.119 12.5129 55.119 12.4075 55.1852 12.3285L56.3337 10.8137C56.413 10.7082 56.5581 10.7082 56.6374 10.8004C57.2447 11.4328 58.1953 11.8148 59.3574 11.8148C60.0308 11.8148 60.5853 11.6303 60.5853 11.1165C60.5853 10.616 60.0836 10.5106 58.5521 10.1814C57.2051 9.90465 55.5282 9.28549 55.5282 7.29644C55.5282 5.43909 56.994 4.38533 59.3706 4.38533C60.9418 4.38533 62.0642 4.8595 62.8564 5.61041C62.9357 5.68934 62.9357 5.80785 62.8697 5.88715L61.7736 7.32292C61.7077 7.41508 61.5757 7.42819 61.4833 7.36231C60.955 6.87504 60.0572 6.58506 59.1725 6.58506C58.4331 6.58506 58.0106 6.82226 58.0106 7.21751C58.0106 7.67858 58.5124 7.78385 60.1233 8.12646C61.7208 8.46889 63.0545 9.07481 63.0545 10.998ZM53.8119 10.998C53.8119 13.0794 52.3067 13.975 49.8772 13.975C48.2003 13.975 46.7613 13.5141 45.9293 12.592C45.8764 12.5129 45.8764 12.4075 45.9293 12.3285L47.0913 10.8267C47.1571 10.7214 47.3157 10.7214 47.3948 10.8137C48.0024 11.4459 48.9529 11.8279 50.1149 11.8279C50.7882 11.8279 51.3428 11.6435 51.3428 11.1297C51.3428 10.6293 50.8412 10.5238 49.3094 10.1945C47.9627 9.91789 46.2858 9.29873 46.2858 7.30949C46.2858 5.45219 47.7381 4.39857 50.1281 4.39857C51.6992 4.39857 52.8218 4.87274 53.6138 5.62365C53.6931 5.68934 53.6931 5.82109 53.6271 5.90002L52.5312 7.32292C52.4653 7.41508 52.32 7.42819 52.2407 7.36231C51.7127 6.87504 50.8146 6.58506 49.9301 6.58506C49.1905 6.58506 48.7681 6.82226 48.7681 7.21751C48.7681 7.67858 49.2698 7.78385 50.8808 8.12646C52.4653 8.46889 53.7986 9.07481 53.8119 10.998ZM40.2517 4.41162C42.9057 4.41162 44.2392 5.58407 44.2392 8.12646V13.5799C44.2392 13.6854 44.1467 13.7776 44.0279 13.7776H42.021C41.9154 13.7776 41.8231 13.6986 41.8231 13.5799V12.5392C41.3608 13.2771 40.4499 13.9619 39.0237 13.9619C37.2148 13.9619 35.9473 12.8027 35.9473 11.1165C35.9473 9.45682 37.1885 8.40301 38.8654 8.24497L41.3608 8.02087C41.6908 7.98147 41.8231 7.87602 41.8231 7.65229V7.5073C41.8231 6.9803 41.3212 6.5983 40.2385 6.5983C39.3671 6.5983 38.456 6.84856 38.06 7.58641C38.0071 7.69168 37.875 7.70492 37.7826 7.63905L36.3302 6.58506C36.2509 6.53242 36.2245 6.41396 36.2775 6.33485C36.9112 5.05713 38.3503 4.42486 40.2517 4.42486V4.41162ZM41.8231 10.0627V9.69398L39.5783 9.97071C38.8389 10.076 38.456 10.4579 38.456 10.9719C38.456 11.5646 38.918 11.9465 39.7498 11.9465C41.0174 11.9465 41.8361 11.0639 41.8231 10.0627ZM34.3099 1.1579V13.5536C34.3099 13.6721 34.2175 13.7643 34.112 13.7643H32.0917C31.9862 13.7643 31.8805 13.6721 31.8805 13.5536V1.1579C31.8805 1.05263 31.9729 0.960464 32.0786 0.960464L34.0987 0.960279C34.2175 0.960279 34.3099 1.05263 34.3099 1.1579ZM29.6887 4.59619C29.7942 4.59619 29.9001 4.68836 29.9001 4.80687V13.1451C29.9001 15.5031 28.7776 17.6372 24.9485 17.6372C23.1925 17.6372 21.9777 17.1365 21.0535 16.333C20.9874 16.2804 20.9741 16.1617 21.0931 15.9643L21.9909 14.4361C22.0439 14.3309 22.189 14.3044 22.2814 14.3965C23.0075 15.042 23.8262 15.3845 24.8561 15.3845C26.8895 15.3845 27.5232 14.3439 27.5232 13.0266V12.447C26.929 13.3032 25.9124 13.8433 24.6053 13.8433C22.1757 13.8433 20.3271 12.1835 20.3271 9.14069C20.3271 6.0844 22.2681 4.38514 24.5391 4.38514C25.9388 4.38514 26.9952 5.05713 27.5102 5.88697V4.81992C27.5102 4.71451 27.6025 4.60925 27.7213 4.60925L29.6887 4.59619ZM25.1863 11.6303C26.5461 11.6303 27.5496 10.6819 27.5496 9.18008C27.5496 7.66534 26.5461 6.73005 25.1863 6.73005C23.813 6.73005 22.7964 7.70492 22.7964 9.18008C22.7964 10.6556 23.8261 11.6303 25.1863 11.6303Z" fill="#51B35E"/>
<path fill-rule="evenodd" clip-rule="evenodd" d="M10.2538 15.432H0.012145C0.012145 16.8547 1.1541 18 2.57398 18H10.2538C11.6677 18 12.8096 16.8486 12.8096 15.432V4.87068C12.8096 4.82242 12.7674 4.77438 12.7191 4.77438H10.3444C10.296 4.77438 10.2538 4.81647 10.2538 4.87068V15.432ZM10.2538 0C11.6677 0 12.8096 1.1514 12.8096 2.57406H2.56799V13.1353C2.56799 13.1836 2.5257 13.2318 2.47134 13.2318H0.0967218C0.0483503 13.2318 0 13.1895 0 13.1353V2.57406C0 1.1514 1.14204 0 2.56199 0H10.2538Z" fill="#51B35E"/>
<rect x="114.228" y="0.954102" width="16" height="16" rx="1" fill="#51B35E"/>
<path d="M127.84 6.82751L124.242 6.32566L122.634 3.19619C122.59 3.11051 122.518 3.04115 122.429 2.99899C122.205 2.8929 121.933 2.98131 121.821 3.19619L120.213 6.32566L116.615 6.82751C116.516 6.84112 116.426 6.886 116.356 6.954C116.272 7.03681 116.226 7.14821 116.228 7.26374C116.229 7.37926 116.278 7.48945 116.365 7.5701L118.967 10.0059L118.352 13.4455C118.338 13.5255 118.347 13.6078 118.379 13.683C118.411 13.7583 118.464 13.8234 118.533 13.8712C118.601 13.9189 118.682 13.9472 118.766 13.953C118.851 13.9588 118.935 13.9417 119.01 13.9038L122.228 12.2799L125.445 13.9038C125.533 13.9487 125.635 13.9637 125.733 13.9473C125.979 13.9065 126.145 13.6821 126.103 13.4455L125.488 10.0059L128.09 7.5701C128.161 7.50346 128.208 7.41641 128.222 7.32121C128.26 7.0832 128.088 6.86288 127.84 6.82751Z" fill="white"/>
<rect x="135.228" y="0.954102" width="16" height="16" rx="1" fill="#51B35E"/>
<path d="M148.84 6.82751L145.242 6.32566L143.634 3.19619C143.59 3.11051 143.518 3.04115 143.429 2.99899C143.205 2.8929 142.933 2.98131 142.821 3.19619L141.213 6.32566L137.615 6.82751C137.516 6.84112 137.426 6.886 137.356 6.954C137.272 7.03681 137.226 7.14821 137.228 7.26374C137.229 7.37926 137.278 7.48945 137.365 7.5701L139.967 10.0059L139.352 13.4455C139.338 13.5255 139.347 13.6078 139.379 13.683C139.411 13.7583 139.464 13.8234 139.533 13.8712C139.601 13.9189 139.682 13.9472 139.766 13.953C139.851 13.9588 139.935 13.9417 140.01 13.9038L143.228 12.2799L146.445 13.9038C146.533 13.9487 146.635 13.9637 146.733 13.9473C146.979 13.9065 147.145 13.6821 147.103 13.4455L146.488 10.0059L149.09 7.5701C149.161 7.50346 149.208 7.41641 149.222 7.32121C149.26 7.0832 149.088 6.86288 148.84 6.82751Z" fill="white"/>
<rect x="156.228" y="0.954102" width="16" height="16" rx="1" fill="#51B35E"/>
<path d="M169.84 6.82751L166.242 6.32566L164.634 3.19619C164.59 3.11051 164.518 3.04115 164.429 2.99899C164.205 2.8929 163.933 2.98131 163.821 3.19619L162.213 6.32566L158.615 6.82751C158.516 6.84112 158.426 6.886 158.356 6.954C158.272 7.03681 158.226 7.14821 158.228 7.26374C158.229 7.37926 158.278 7.48945 158.365 7.5701L160.967 10.0059L160.352 13.4455C160.338 13.5255 160.347 13.6078 160.379 13.683C160.411 13.7583 160.464 13.8234 160.533 13.8712C160.601 13.9189 160.682 13.9472 160.766 13.953C160.851 13.9588 160.935 13.9417 161.01 13.9038L164.228 12.2799L167.445 13.9038C167.533 13.9487 167.635 13.9637 167.733 13.9473C167.979 13.9065 168.145 13.6821 168.103 13.4455L167.488 10.0059L170.09 7.5701C170.161 7.50346 170.208 7.41641 170.222 7.32121C170.26 7.0832 170.088 6.86288 169.84 6.82751Z" fill="white"/>
<rect x="177.228" y="0.954102" width="16" height="16" rx="1" fill="#51B35E"/>
<path d="M190.84 6.82751L187.242 6.32566L185.634 3.19619C185.59 3.11051 185.518 3.04115 185.429 2.99899C185.205 2.8929 184.933 2.98131 184.821 3.19619L183.213 6.32566L179.615 6.82751C179.516 6.84112 179.426 6.886 179.356 6.954C179.272 7.03681 179.226 7.14821 179.228 7.26374C179.229 7.37926 179.278 7.48945 179.365 7.5701L181.967 10.0059L181.352 13.4455C181.338 13.5255 181.347 13.6078 181.379 13.683C181.411 13.7583 181.464 13.8234 181.533 13.8712C181.601 13.9189 181.682 13.9472 181.766 13.953C181.851 13.9588 181.935 13.9417 182.01 13.9038L185.228 12.2799L188.445 13.9038C188.533 13.9487 188.635 13.9637 188.733 13.9473C188.979 13.9065 189.145 13.6821 189.103 13.4455L188.488 10.0059L191.09 7.5701C191.161 7.50346 191.208 7.41641 191.222 7.32121C191.26 7.0832 191.088 6.86288 190.84 6.82751Z" fill="white"/>
<g clip-path="url(#clip0_461_773)">
<rect x="198.228" y="0.954102" width="16" height="16" rx="1" fill="#D9D9D9"/>
<path d="M211.84 6.82751L208.242 6.32566L206.634 3.19619C206.59 3.11051 206.518 3.04115 206.429 2.99899C206.205 2.8929 205.933 2.98131 205.821 3.19619L204.213 6.32566L200.615 6.82751C200.516 6.84112 200.426 6.886 200.356 6.954C200.272 7.03681 200.226 7.14821 200.228 7.26374C200.229 7.37926 200.278 7.48945 200.365 7.5701L202.967 10.0059L202.352 13.4455C202.338 13.5255 202.347 13.6078 202.379 13.683C202.411 13.7583 202.464 13.8234 202.533 13.8712C202.601 13.9189 202.682 13.9472 202.766 13.953C202.851 13.9588 202.935 13.9417 203.01 13.9038L206.228 12.2799L209.445 13.9038C209.533 13.9487 209.635 13.9637 209.733 13.9473C209.979 13.9065 210.145 13.6821 210.103 13.4455L209.488 10.0059L212.09 7.5701C212.161 7.50346 212.208 7.41641 212.222 7.32121C212.26 7.0832 212.088 6.86288 211.84 6.82751Z" fill="white"/>
<rect x="198.228" y="0.954102" width="2" height="16" fill="#51B35E"/>
</g>
<defs>
<clipPath id="clip0_461_773">
<rect x="198.228" y="0.954102" width="16" height="16" rx="1" fill="white"/>
</clipPath>
</defs>
</svg>
