<svg width="41" height="40" viewBox="0 0 41 40" fill="none" xmlns="http://www.w3.org/2000/svg">
<path d="M25.0113 12.9372H24.1328C23.9691 12.9372 23.8121 12.8721 23.6964 12.7564C23.5806 12.6406 23.5156 12.4837 23.5156 12.3201C23.5159 12.2659 23.5235 12.2122 23.5385 12.1602C23.8099 12.2787 24.0756 12.4087 24.337 12.5501C24.5684 12.6729 24.7885 12.8015 25.0113 12.9372Z" fill="white"/>
<path d="M12.5646 26.0979C13.7307 26.0979 14.676 25.1525 14.676 23.9864C14.676 22.8203 13.7307 21.875 12.5646 21.875C11.3984 21.875 10.4531 22.8203 10.4531 23.9864C10.4531 25.1525 11.3984 26.0979 12.5646 26.0979Z" fill="white"/>
<path d="M20.3409 23.9865C20.3412 24.4045 20.2175 24.8133 19.9855 25.161C19.7534 25.5086 19.4235 25.7797 19.0373 25.9398C18.6512 26.0999 18.2263 26.1417 17.8163 26.0603C17.4063 25.9788 17.0297 25.7776 16.7341 25.482C16.4385 25.1864 16.2372 24.8098 16.1558 24.3998C16.0743 23.9898 16.1163 23.5648 16.2763 23.1787C16.4364 22.7926 16.7075 22.4626 17.0552 22.2306C17.4028 21.9985 17.8116 21.8747 18.2296 21.875C18.7893 21.8758 19.3259 22.0986 19.7217 22.4944C20.1175 22.8902 20.3402 23.4267 20.3409 23.9865Z" fill="white"/>
<path d="M23.8907 26.0979C25.0568 26.0979 26.0022 25.1525 26.0022 23.9864C26.0022 22.8203 25.0568 21.875 23.8907 21.875C22.7246 21.875 21.7793 22.8203 21.7793 23.9864C21.7793 25.1525 22.7246 26.0979 23.8907 26.0979Z" fill="white"/>
<path d="M30.3265 19.3022C30.2593 19.1265 30.1908 18.9566 30.115 18.7866C30.0393 18.6166 29.9622 18.4466 29.8808 18.2809C29.6808 18.3452 29.4808 18.3994 29.2765 18.4465C27.6381 18.8145 25.9242 18.635 24.3976 17.9354C22.871 17.2359 21.616 16.0549 20.8251 14.5736C20.359 13.7027 20.0678 12.7492 19.9679 11.7665C19.9479 11.5565 19.9337 11.3466 19.9308 11.138C19.7465 11.1137 19.5579 11.0936 19.3708 11.0765C19.1836 11.0593 19.0008 11.0466 18.8151 11.0423C18.6294 11.038 18.4236 11.028 18.225 11.028V11.0137C15.9171 11.0145 13.6511 11.6308 11.6606 12.7989C9.6701 13.9669 8.02701 15.6446 6.90067 17.659C5.77433 19.6734 5.20549 21.9519 5.25272 24.2593C5.29994 26.5668 5.96158 28.8198 7.1694 30.7864L6.60648 33.0308L5.6722 36.7709C5.66151 36.8136 5.65935 36.858 5.66584 36.9016C5.67233 36.9453 5.68736 36.9871 5.71005 37.0249C5.73273 37.0627 5.7626 37.0958 5.79802 37.1221C5.83345 37.1483 5.87374 37.1672 5.91652 37.1779C5.97334 37.1915 6.03252 37.1915 6.08934 37.1779L9.7865 36.1207L12.1251 35.4623C14.4634 36.7093 17.1275 37.2106 19.7592 36.8987C22.3909 36.5868 24.8639 35.4767 26.846 33.7175C28.828 31.9584 30.224 29.6346 30.8462 27.0586C31.4685 24.4826 31.2871 21.7779 30.3265 19.308V19.3022ZM29.1394 29.8209C28.3757 31.2538 27.3372 32.5223 26.0831 33.5538C24.8291 34.5853 23.3841 35.3595 21.8307 35.8323C20.2774 36.3051 18.6459 36.4673 17.0299 36.3094C15.4138 36.1516 13.8448 35.6767 12.4122 34.9122L12.195 34.7965L6.38797 36.4465L7.82797 30.6851L7.68506 30.4637C6.56049 28.6324 5.93273 26.5397 5.86359 24.3919C5.79445 22.244 6.2863 20.1152 7.29077 18.2155C8.29524 16.3157 9.77759 14.7107 11.5916 13.5585C13.4055 12.4063 15.4885 11.7468 17.6351 11.6451H18.2194C18.4222 11.6451 18.6265 11.6451 18.8294 11.6622C18.9311 12.9345 19.3091 14.1694 19.9369 15.2807C20.5647 16.392 21.4272 17.3532 22.4645 18.0971C23.5017 18.8409 24.6885 19.3496 25.9425 19.5879C27.1965 19.8261 28.4874 19.7881 29.7251 19.4765C29.8437 19.7793 29.9522 20.0907 30.0479 20.4065C30.5267 21.9577 30.6931 23.5885 30.5374 25.2045C30.3817 26.8205 29.907 28.3896 29.1407 29.8209H29.1394Z" fill="white"/>
<path d="M25.1884 12.3232C25.0056 12.2146 24.8185 12.1118 24.6314 12.0103C24.4442 11.9089 24.2385 11.8074 24.0399 11.7146C23.9223 11.733 23.8125 11.7852 23.724 11.8649C23.6355 11.9445 23.5721 12.048 23.5414 12.1631C23.5264 12.2151 23.5187 12.269 23.5185 12.3232C23.5185 12.4868 23.5835 12.6437 23.6993 12.7595C23.815 12.8752 23.9719 12.9403 24.1356 12.9403H26.1356C25.827 12.7203 25.5142 12.516 25.1884 12.3232ZM31.2399 20.046C31.1413 19.7203 31.0299 19.4003 30.9099 19.086C30.8427 18.9132 30.7742 18.7432 30.6999 18.5732C30.6256 18.4032 30.5499 18.236 30.4685 18.0702C30.2756 18.1488 30.0814 18.2203 29.8842 18.2818C29.6871 18.3432 29.4842 18.4003 29.2799 18.4474C29.3656 18.6146 29.4456 18.7861 29.5213 18.9575C29.597 19.1289 29.6641 19.3003 29.7384 19.476C29.857 19.7788 29.9656 20.0903 30.0613 20.406C30.7736 22.7451 30.7762 25.2431 30.0687 27.5837C29.3612 29.9243 27.9755 32.0025 26.0867 33.5554C24.1979 35.1083 21.8911 36.0662 19.4578 36.3079C17.0246 36.5496 14.5743 36.0642 12.417 34.9132L12.1999 34.7975L6.39275 36.4474L7.83274 30.686L7.69707 30.4646C6.5725 28.6333 5.94466 26.5406 5.87552 24.3928C5.80638 22.2449 6.29832 20.1161 7.30278 18.2164C8.30725 16.3166 9.78961 14.7116 11.6036 13.5594C13.4176 12.4072 15.5005 11.7477 17.647 11.646H18.2313C18.4342 11.646 18.6384 11.646 18.8413 11.6631C19.0442 11.6803 19.2156 11.6832 19.4013 11.7032C19.5871 11.7232 19.7784 11.7432 19.9727 11.7704C19.9527 11.5604 19.9384 11.3517 19.9356 11.1417C19.9327 10.9317 19.9356 10.7289 19.9485 10.5232C19.7642 10.4989 19.5785 10.4789 19.3913 10.4632C19.2485 10.4489 19.1056 10.4389 18.9628 10.4318V10.4004H18.2357C15.8402 10.4012 13.4874 11.0349 11.4156 12.2374C9.34378 13.4398 7.62647 15.1683 6.43748 17.2478C5.24849 19.3274 4.63006 21.6842 4.64479 24.0796C4.65952 26.475 5.30688 28.8241 6.52136 30.8888L5.08276 36.626C5.02268 36.8705 5.06184 37.1289 5.19166 37.3446C5.32149 37.5604 5.5314 37.716 5.7756 37.7774C5.85114 37.7973 5.9289 37.8074 6.00701 37.8074C6.09451 37.8072 6.18159 37.7947 6.26562 37.7703L12.0642 36.1218C14.4409 37.3336 17.1216 37.8193 19.7724 37.5185C22.4231 37.2177 24.9268 36.1437 26.9716 34.4303C29.0164 32.7169 30.5119 30.4397 31.2719 27.8824C32.0319 25.3252 32.0228 22.6009 31.2457 20.0488L31.2399 20.046Z" fill="#BEA274"/>
<path d="M18.2279 25.6043C19.1219 25.6043 19.8465 24.8797 19.8465 23.9858C19.8465 23.0918 19.1219 22.3672 18.2279 22.3672C17.334 22.3672 16.6094 23.0918 16.6094 23.9858C16.6094 24.8797 17.334 25.6043 18.2279 25.6043Z" fill="white"/>
<path d="M18.2287 21.875C17.8111 21.875 17.4028 21.9989 17.0556 22.2309C16.7084 22.4629 16.4377 22.7927 16.2779 23.1785C16.1181 23.5643 16.0763 23.9888 16.1578 24.3984C16.2392 24.8079 16.4404 25.1843 16.7357 25.4796C17.031 25.7749 17.4071 25.9758 17.8167 26.0573C18.2263 26.1388 18.6508 26.097 19.0366 25.9372C19.4224 25.7773 19.7522 25.5068 19.9842 25.1596C20.2162 24.8123 20.3401 24.4041 20.3401 23.9865C20.3393 23.4267 20.1166 22.8902 19.7208 22.4944C19.325 22.0986 18.7884 21.8758 18.2287 21.875ZM18.2287 25.1107C18.0063 25.1107 17.7889 25.0449 17.604 24.9214C17.4191 24.7978 17.275 24.6221 17.19 24.4167C17.1049 24.2112 17.0826 23.9852 17.126 23.7671C17.1693 23.549 17.2764 23.3487 17.4337 23.1914C17.5909 23.0342 17.7912 22.9272 18.0093 22.8838C18.2274 22.8404 18.4535 22.8627 18.6589 22.9478C18.8643 23.0329 19.0399 23.1769 19.1635 23.3618C19.287 23.5467 19.3529 23.7641 19.3529 23.9865C19.3526 24.2845 19.2339 24.5704 19.0232 24.7811C18.8124 24.9919 18.5267 25.1104 18.2287 25.1107Z" fill="#666666"/>
<path d="M12.5639 25.6043C13.4578 25.6043 14.1825 24.8797 14.1825 23.9858C14.1825 23.0918 13.4578 22.3672 12.5639 22.3672C11.67 22.3672 10.9453 23.0918 10.9453 23.9858C10.9453 24.8797 11.67 25.6043 12.5639 25.6043Z" fill="white"/>
<path d="M12.5645 21.875C12.1469 21.875 11.7387 21.9989 11.3915 22.2309C11.0443 22.4629 10.7737 22.7927 10.6138 23.1785C10.454 23.5643 10.4122 23.9888 10.4937 24.3984C10.5752 24.8079 10.7762 25.1843 11.0715 25.4796C11.3668 25.7749 11.7431 25.9758 12.1526 26.0573C12.5622 26.1388 12.9867 26.097 13.3726 25.9372C13.7584 25.7773 14.0881 25.5068 14.3201 25.1596C14.5521 24.8123 14.676 24.4041 14.676 23.9865C14.6752 23.4267 14.4525 22.8902 14.0567 22.4944C13.6609 22.0986 13.1243 21.8758 12.5645 21.875ZM12.5645 25.1107C12.3422 25.1107 12.1248 25.0449 11.9399 24.9214C11.755 24.7978 11.6109 24.6221 11.5258 24.4167C11.4407 24.2112 11.4185 23.9852 11.4619 23.7671C11.5053 23.549 11.6123 23.3487 11.7695 23.1914C11.9267 23.0342 12.1271 22.9272 12.3452 22.8838C12.5632 22.8404 12.7893 22.8627 12.9947 22.9478C13.2002 23.0329 13.3758 23.1769 13.4993 23.3618C13.6229 23.5467 13.6888 23.7641 13.6888 23.9865C13.6888 24.2846 13.5704 24.5706 13.3596 24.7815C13.1487 24.9923 12.8627 25.1107 12.5645 25.1107Z" fill="#666666"/>
<path d="M23.8881 25.6043C24.782 25.6043 25.5067 24.8797 25.5067 23.9858C25.5067 23.0918 24.782 22.3672 23.8881 22.3672C22.9942 22.3672 22.2695 23.0918 22.2695 23.9858C22.2695 24.8797 22.9942 25.6043 23.8881 25.6043Z" fill="white"/>
<path d="M23.8888 21.875C23.4711 21.875 23.063 21.9989 22.7157 22.2309C22.3685 22.4629 22.0979 22.7927 21.9381 23.1785C21.7783 23.5643 21.7364 23.9888 21.8179 24.3984C21.8994 24.8079 22.1005 25.1843 22.3957 25.4796C22.691 25.7749 23.0673 25.9758 23.4769 26.0573C23.8864 26.1388 24.311 26.097 24.6968 25.9372C25.0826 25.7773 25.4124 25.5068 25.6444 25.1596C25.8764 24.8123 26.0002 24.4041 26.0002 23.9865C25.9995 23.4267 25.7768 22.8902 25.381 22.4944C24.9852 22.0986 24.4485 21.8758 23.8888 21.875ZM23.8888 25.1107C23.6664 25.1107 23.4491 25.0449 23.2642 24.9214C23.0793 24.7978 22.9352 24.6221 22.8501 24.4167C22.765 24.2112 22.7427 23.9852 22.7861 23.7671C22.8295 23.549 22.9366 23.3487 23.0938 23.1914C23.251 23.0342 23.4514 22.9272 23.6695 22.8838C23.8876 22.8404 24.1136 22.8627 24.319 22.9478C24.5245 23.0329 24.7001 23.1769 24.8236 23.3618C24.9472 23.5467 25.0131 23.7641 25.0131 23.9865C25.0131 24.2846 24.8946 24.5706 24.6838 24.7815C24.4729 24.9923 24.1869 25.1107 23.8888 25.1107Z" fill="#666666"/>
<path d="M31.5894 9.8528C31.5894 10.0165 31.5244 10.1734 31.4086 10.2891C31.2929 10.4048 31.1359 10.4699 30.9722 10.4699H24.1351C24.0516 10.474 23.9683 10.4609 23.89 10.4318C23.8117 10.4026 23.7401 10.3579 23.6797 10.3003C23.6192 10.2426 23.571 10.1734 23.5381 10.0966C23.5052 10.0198 23.4883 9.93704 23.4883 9.85349C23.4883 9.76995 23.5052 9.68737 23.5381 9.61057C23.571 9.53378 23.6192 9.46435 23.6797 9.40672C23.7401 9.34908 23.8117 9.3044 23.89 9.27523C23.9683 9.24606 24.0516 9.23302 24.1351 9.23704H30.9722C31.1357 9.23704 31.2924 9.30193 31.4081 9.41735C31.5238 9.53278 31.589 9.68937 31.5894 9.8528Z" fill="white"/>
<path d="M30.975 11.705H24.1378C24.0024 11.7049 23.8706 11.7496 23.7631 11.832C23.6557 11.9144 23.5785 12.03 23.5435 12.1609C23.5286 12.2129 23.5209 12.2667 23.5207 12.3208C23.5207 12.4845 23.5857 12.6416 23.7014 12.7573C23.8171 12.873 23.9741 12.938 24.1378 12.938H30.975C31.1333 12.9303 31.2826 12.8621 31.392 12.7473C31.5014 12.6326 31.5624 12.48 31.5624 12.3215C31.5624 12.163 31.5014 12.0106 31.392 11.8958C31.2826 11.7811 31.1333 11.7127 30.975 11.705ZM30.975 11.705H24.1378C24.0024 11.7049 23.8706 11.7496 23.7631 11.832C23.6557 11.9144 23.5785 12.03 23.5435 12.1609C23.5286 12.2129 23.5209 12.2667 23.5207 12.3208C23.5207 12.4845 23.5857 12.6416 23.7014 12.7573C23.8171 12.873 23.9741 12.938 24.1378 12.938H30.975C31.1333 12.9303 31.2826 12.8621 31.392 12.7473C31.5014 12.6326 31.5624 12.48 31.5624 12.3215C31.5624 12.163 31.5014 12.0106 31.392 11.8958C31.2826 11.7811 31.1333 11.7127 30.975 11.705ZM34.9464 16.6822L34.5907 15.2608C35.3547 14.0159 35.7729 12.5899 35.8023 11.1296C35.8318 9.66922 35.4715 8.2274 34.7584 6.95267C34.0452 5.67794 33.0052 4.61625 31.7453 3.8772C30.4854 3.13815 29.0513 2.74846 27.5907 2.74805V2.7552C25.4993 2.75396 23.486 3.54995 21.9609 4.98106C20.4359 6.41218 19.5136 8.37075 19.382 10.458C19.372 10.6652 19.365 10.8694 19.3678 11.0752C19.3707 11.2809 19.3821 11.4923 19.3992 11.6995C19.5057 12.8761 19.8645 14.0161 20.4509 15.0417C21.0374 16.0674 21.8379 16.9547 22.798 17.6432C23.7581 18.3318 24.8553 18.8056 26.0148 19.0322C27.1744 19.2589 28.3691 19.233 29.5178 18.9565C29.7178 18.9065 29.9178 18.8508 30.1149 18.7865C30.312 18.7222 30.505 18.6536 30.6964 18.5722C30.9531 18.4673 31.2044 18.3496 31.4492 18.2194L32.9292 18.6365L35.2706 19.3051C35.3063 19.3139 35.3435 19.3139 35.3792 19.3051C35.4336 19.2916 35.4805 19.2571 35.5096 19.2092C35.5388 19.1614 35.5478 19.104 35.5349 19.0495L34.9464 16.6822ZM31.3892 17.6251L31.195 17.7294C30.9593 17.8556 30.7171 17.9692 30.4692 18.0694C30.2764 18.148 30.0821 18.2194 29.885 18.2808C29.6878 18.3422 29.4849 18.3993 29.2806 18.4465C27.6422 18.8145 25.9283 18.6351 24.4017 17.9355C22.8752 17.236 21.6202 16.055 20.8292 14.5737C20.3631 13.7028 20.072 12.7493 19.9721 11.7666C19.9521 11.5566 19.9378 11.3479 19.9349 11.1379C19.9321 10.9279 19.935 10.7265 19.9478 10.5194C20.0623 8.56968 20.9175 6.73747 22.3386 5.39767C23.7596 4.05787 25.639 3.31175 27.5921 3.31219H27.5992H27.8749C29.2123 3.36173 30.5134 3.76084 31.6486 4.46959C32.7839 5.17834 33.7137 6.17202 34.3454 7.35184C34.9772 8.53166 35.2889 9.85653 35.2494 11.1943C35.21 12.532 34.8208 13.836 34.1206 14.9765L34.0007 15.1765L34.8578 18.6151L31.3892 17.6251ZM30.975 11.705H24.1378C24.0024 11.7049 23.8706 11.7496 23.7631 11.832C23.6557 11.9144 23.5785 12.03 23.5435 12.1609C23.5286 12.2129 23.5209 12.2667 23.5207 12.3208C23.5207 12.4845 23.5857 12.6416 23.7014 12.7573C23.8171 12.873 23.9741 12.938 24.1378 12.938H30.975C31.1333 12.9303 31.2826 12.8621 31.392 12.7473C31.5014 12.6326 31.5624 12.48 31.5624 12.3215C31.5624 12.163 31.5014 12.0106 31.392 11.8958C31.2826 11.7811 31.1333 11.7127 30.975 11.705Z" fill="white"/>
<path d="M35.1822 15.3477C35.9524 14.015 36.3582 12.503 36.3588 10.9638C36.3593 9.4245 35.9547 7.91207 35.1854 6.57882C34.4161 5.24558 33.3094 4.13839 31.9764 3.36855C30.6435 2.5987 29.1315 2.19345 27.5922 2.19336H26.9364V2.22475C25.7202 2.31394 24.5357 2.65438 23.4579 3.22468C22.1408 3.92585 21.0246 4.95189 20.2153 6.20546C19.406 7.45903 18.9304 8.89862 18.8336 10.3876C18.8164 10.6019 18.8093 10.8162 18.8107 11.0333C18.8122 11.2505 18.8208 11.4476 18.8379 11.6519C18.9397 12.9242 19.3176 14.1591 19.9454 15.2704C20.5732 16.3817 21.4357 17.3429 22.4729 18.0867C23.5101 18.8306 24.6971 19.3393 25.9511 19.5776C27.205 19.8158 28.4958 19.7778 29.7336 19.4661C29.9336 19.4161 30.1307 19.3576 30.325 19.2933C30.5193 19.229 30.7122 19.1576 30.905 19.0762C31.0979 18.9948 31.3094 18.9033 31.5094 18.8019L35.1179 19.8276C35.1861 19.8477 35.2568 19.8578 35.3279 19.8576C35.3905 19.8575 35.4528 19.8498 35.5136 19.8348C35.7107 19.7852 35.8802 19.6593 35.9846 19.485C36.0891 19.3106 36.1201 19.102 36.0708 18.9048L35.1822 15.3477ZM31.1936 17.7277C30.958 17.8539 30.7157 17.9672 30.4679 18.0676C30.2751 18.1461 30.0808 18.2176 29.8836 18.2805C29.6865 18.3433 29.4836 18.399 29.2793 18.4461C27.6411 18.8138 25.9276 18.6342 24.4013 17.9347C22.875 17.2351 21.6202 16.0544 20.8293 14.5734C20.3633 13.7025 20.072 12.7488 19.9721 11.7661C19.9521 11.5561 19.9378 11.3462 19.935 11.1376C19.9321 10.9291 19.935 10.7262 19.9479 10.5191C20.0623 8.56937 20.9176 6.73715 22.3386 5.39736C23.7597 4.05756 25.6391 3.31143 27.5922 3.31187H27.5994H27.8751C29.2127 3.36128 30.5139 3.76027 31.6494 4.4691C32.7848 5.17793 33.7147 6.17183 34.3465 7.35188C34.9783 8.53192 35.2899 9.85689 35.2503 11.1948C35.2107 12.5328 34.8213 13.837 34.1208 14.9776L33.9993 15.1776L34.8564 18.6162L31.3908 17.6319L31.1936 17.7277Z" fill="#666666"/>
<path d="M31.5894 9.8528C31.5894 10.0165 31.5244 10.1734 31.4086 10.2891C31.2929 10.4048 31.1359 10.4699 30.9722 10.4699H24.1351C24.0516 10.474 23.9683 10.4609 23.89 10.4318C23.8117 10.4026 23.7401 10.3579 23.6797 10.3003C23.6192 10.2426 23.571 10.1734 23.5381 10.0966C23.5052 10.0198 23.4883 9.93704 23.4883 9.85349C23.4883 9.76995 23.5052 9.68737 23.5381 9.61057C23.571 9.53378 23.6192 9.46435 23.6797 9.40672C23.7401 9.34908 23.8117 9.3044 23.89 9.27523C23.9683 9.24606 24.0516 9.23302 24.1351 9.23704H30.9722C31.1357 9.23704 31.2924 9.30193 31.4081 9.41735C31.5238 9.53278 31.589 9.68937 31.5894 9.8528Z" fill="#BEA274"/>
<path d="M31.591 12.3226C31.591 12.4863 31.526 12.6434 31.4102 12.7591C31.2945 12.8749 31.1375 12.9398 30.9738 12.9398H24.1367C23.973 12.9398 23.816 12.8749 23.7003 12.7591C23.5845 12.6434 23.5195 12.4863 23.5195 12.3226C23.5198 12.2685 23.5274 12.2147 23.5424 12.1627C23.5731 12.0477 23.6365 11.944 23.725 11.8643C23.8136 11.7847 23.9233 11.7324 24.0409 11.714C24.0726 11.7091 24.1046 11.7069 24.1367 11.707H30.9738C31.1373 11.707 31.294 11.7718 31.4097 11.8872C31.5254 12.0026 31.5906 12.1592 31.591 12.3226Z" fill="#BEA274"/>
</svg>
