<svg width="40" height="40" viewBox="0 0 40 40" fill="none" xmlns="http://www.w3.org/2000/svg">
<path d="M17.075 37.9257L5.16788 30.4838C4.44448 30.0308 3.93011 29.3095 3.73745 28.478C3.54478 27.6465 3.68953 26.7725 4.13998 26.0475L18.4833 3.09822C18.9368 2.37398 19.6592 1.8593 20.4918 1.66715C21.3245 1.475 22.1994 1.62109 22.9244 2.07335L34.8315 9.51531C35.5558 9.96884 36.0704 10.6912 36.2626 11.5239C36.4547 12.3565 36.3086 13.2314 35.8564 13.9564L21.5131 36.9057C21.0588 37.6283 20.3366 38.1414 19.5048 38.3326C18.6729 38.5238 17.7992 38.3775 17.075 37.9257ZM22.2854 3.09579C21.8315 2.81302 21.284 2.72175 20.763 2.84199C20.2419 2.96224 19.7898 3.28418 19.5057 3.73725L5.16242 26.6866C4.87965 27.1404 4.78838 27.6879 4.90862 28.2089C5.02886 28.73 5.35081 29.1821 5.80388 29.4662L17.711 36.9081C18.1649 37.1923 18.713 37.2845 19.2349 37.1647C19.7569 37.0448 20.2098 36.7226 20.4943 36.269L34.8376 13.3196C35.1207 12.8651 35.2119 12.3168 35.0909 11.7952C34.9699 11.2735 34.6468 10.8212 34.1925 10.5378L22.2854 3.09579Z" fill="#666666"/>
<path d="M12.7964 31.5219C12.4576 31.3102 12.1892 31.0027 12.0251 30.6384C11.8611 30.2742 11.8087 29.8694 11.8747 29.4754C11.9407 29.0813 12.122 28.7157 12.3958 28.4247C12.6696 28.1338 13.0235 27.9305 13.4128 27.8407C13.802 27.7508 14.2092 27.7785 14.5828 27.92C14.9564 28.0616 15.2796 28.3108 15.5116 28.6361C15.7436 28.9614 15.8739 29.3481 15.886 29.7475C15.8982 30.1468 15.7917 30.5408 15.5799 30.8796C15.2955 31.3333 14.8427 31.6557 14.3209 31.7761C13.7991 31.8965 13.2509 31.8051 12.7964 31.5219ZM14.4265 28.9137C14.2494 28.803 14.0435 28.7474 13.8348 28.7537C13.6261 28.7601 13.424 28.8282 13.254 28.9494C13.084 29.0707 12.9538 29.2396 12.8798 29.4348C12.8058 29.6301 12.7913 29.8429 12.8383 30.0463C12.8852 30.2498 12.9915 30.4348 13.1435 30.5778C13.2956 30.7209 13.4867 30.8157 13.6926 30.8502C13.8986 30.8847 14.1101 30.8573 14.3005 30.7716C14.4909 30.6858 14.6516 30.5455 14.7622 30.3685C14.9102 30.1309 14.958 29.8444 14.8951 29.5717C14.8321 29.299 14.6636 29.0624 14.4265 28.9137Z" fill="#BEA274"/>
<path d="M27.4274 20.3093L16.464 13.4572C16.3284 13.3725 16.232 13.2373 16.1961 13.0815C16.1601 12.9257 16.1875 12.762 16.2723 12.6265C16.357 12.4909 16.4922 12.3945 16.6479 12.3586C16.8037 12.3226 16.9674 12.35 17.103 12.4347L28.0664 19.2869C28.202 19.3716 28.2984 19.5068 28.3344 19.6626C28.3703 19.8183 28.3429 19.982 28.2582 20.1176C28.1734 20.2532 28.0383 20.3496 27.8825 20.3855C27.7267 20.4215 27.563 20.3941 27.4274 20.3093Z" fill="#BEA274"/>
<path d="M26.3537 16.1378L20.6866 12.5959C20.5511 12.5111 20.4547 12.376 20.4187 12.2202C20.3828 12.0644 20.4102 11.9007 20.4949 11.7651C20.5797 11.6295 20.7148 11.5332 20.8706 11.4972C21.0264 11.4613 21.1901 11.4887 21.3257 11.5734L26.9927 15.1153C27.1283 15.2001 27.2247 15.3352 27.2606 15.491C27.2966 15.6468 27.2692 15.8105 27.1844 15.9461C27.0997 16.0817 26.9646 16.178 26.8088 16.214C26.653 16.2499 26.4893 16.2225 26.3537 16.1378Z" fill="#BEA274"/>
<path d="M23.7814 31.8164L7.71419 21.7744C7.60576 21.7066 7.52868 21.5986 7.49993 21.474C7.47118 21.3494 7.4931 21.2185 7.56087 21.11C7.62864 21.0016 7.73672 20.9245 7.86131 20.8958C7.98591 20.867 8.11683 20.8889 8.22526 20.9567L24.2924 30.9987C24.4009 31.0665 24.4779 31.1745 24.5067 31.2991C24.5355 31.4237 24.5135 31.5546 24.4458 31.6631C24.378 31.7715 24.2699 31.8486 24.1453 31.8773C24.0207 31.9061 23.8898 31.8842 23.7814 31.8164Z" fill="#666666"/>
<path d="M34.256 15.0566L18.1888 5.01466C18.1351 4.9811 18.0886 4.93729 18.0518 4.88574C18.015 4.83419 17.9888 4.77591 17.9745 4.71421C17.9603 4.65252 17.9584 4.58862 17.9688 4.52618C17.9793 4.46373 18.0019 4.40396 18.0355 4.35026C18.069 4.29657 18.1128 4.25001 18.1644 4.21325C18.2159 4.17649 18.2742 4.15024 18.3359 4.136C18.3976 4.12177 18.4615 4.11982 18.524 4.13028C18.5864 4.14073 18.6462 4.16338 18.6999 4.19694L34.7671 14.2389C34.8207 14.2725 34.8673 14.3163 34.9041 14.3678C34.9408 14.4194 34.9671 14.4777 34.9813 14.5394C34.9955 14.6011 34.9975 14.665 34.987 14.7274C34.9766 14.7899 34.9539 14.8496 34.9204 14.9033C34.8868 14.957 34.843 15.0036 34.7915 15.0403C34.7399 15.0771 34.6816 15.1033 34.6199 15.1176C34.5582 15.1318 34.4943 15.1338 34.4319 15.1233C34.3694 15.1129 34.3097 15.0902 34.256 15.0566Z" fill="#666666"/>
</svg>
