<svg width="16" height="17" viewBox="0 0 16 17" fill="none" xmlns="http://www.w3.org/2000/svg">
<g clip-path="url(#clip0_646_1682)">
<path d="M15.9381 4.86208L13.2715 1.66212C13.2208 1.60159 13.1459 1.56641 13.0667 1.56641H2.93345C2.85427 1.56641 2.77933 1.60134 2.72865 1.66212L0.0620254 4.86208C-0.0043799 4.94155 -0.018786 5.0522 0.0252134 5.14579C0.0692128 5.23939 0.163337 5.29939 0.266804 5.29939H15.7332C15.8367 5.29939 15.9308 5.23939 15.9748 5.14579C16.0186 5.05248 16.0045 4.9418 15.9381 4.86208ZM0.836171 4.76608L3.05827 2.09946H12.9416L15.1637 4.76608H0.836171Z" fill="#666666"/>
<path d="M8.24774 1.73094C8.20639 1.63122 8.10908 1.56641 8.00133 1.56641H2.93475C2.83928 1.56641 2.75128 1.61734 2.70356 1.70028C2.65585 1.78322 2.6561 1.88481 2.70438 1.96746L4.57101 5.16742C4.6126 5.23861 4.68488 5.28689 4.767 5.29754C4.77847 5.29889 4.78994 5.29967 4.80113 5.29967C4.87153 5.29967 4.93953 5.27195 4.98994 5.22154L8.18989 2.02159C8.26614 1.94534 8.28908 1.83065 8.24774 1.73094ZM4.85713 4.59996L3.39874 2.09974H7.35734L4.85713 4.59996Z" fill="#666666"/>
<path d="M15.9719 4.91415C15.9271 4.82322 15.8343 4.76562 15.7329 4.76562H0.266485C0.165143 4.76562 0.0726125 4.82322 0.0275506 4.91415C-0.0172612 5.00509 -0.00685514 5.11362 0.0547378 5.19415L7.78798 15.3274C7.83838 15.3935 7.91679 15.4324 7.99997 15.4324C8.08316 15.4324 8.16156 15.3935 8.21144 15.3274L15.9447 5.19415C16.0063 5.11362 16.0166 5.00509 15.9719 4.91415ZM7.99997 14.7263L0.805665 5.29924H15.1943L7.99997 14.7263Z" fill="#666666"/>
<path d="M8.25412 15.0852L5.05417 4.95203C5.01898 4.84109 4.9163 4.76562 4.79977 4.76562H0.266485C0.165143 4.76562 0.0726125 4.82322 0.0275506 4.91415C-0.0172612 5.00509 -0.00685514 5.11362 0.0547378 5.19415L7.78798 15.3274C7.83969 15.3954 7.91891 15.4324 7.99997 15.4324C8.04157 15.4324 8.08369 15.4228 8.12263 15.402C8.23759 15.3426 8.29303 15.2087 8.25412 15.0852ZM0.805415 5.29924H4.6043L7.28586 13.7909L0.805415 5.29924Z" fill="#666666"/>
<path d="M13.2989 1.70028C13.2514 1.61734 13.1632 1.56641 13.0677 1.56641H8.0011C7.89338 1.56641 7.79604 1.63122 7.7547 1.73094C7.71335 1.83065 7.73629 1.94534 7.81257 2.02159L11.0125 5.22154C11.0627 5.27195 11.1307 5.29967 11.2011 5.29967C11.2125 5.29967 11.224 5.29886 11.2355 5.29754C11.3173 5.28689 11.3899 5.23889 11.4315 5.16742L13.2981 1.96746C13.3461 1.88481 13.3464 1.78322 13.2989 1.70028ZM11.1451 4.59996L8.64481 2.09974H12.6034L11.1451 4.59996Z" fill="#666666"/>
<path d="M15.9733 4.91415C15.9285 4.82322 15.8357 4.76562 15.7344 4.76562H11.2011C11.0846 4.76562 10.9816 4.84109 10.9467 4.95203L7.74674 15.0852C7.70781 15.2084 7.76328 15.3423 7.87821 15.402C7.91715 15.4223 7.95927 15.4319 8.00087 15.4319C8.08168 15.4319 8.16086 15.3949 8.21286 15.3274L15.9461 5.19418C16.0077 5.11359 16.0181 5.00506 15.9733 4.91415ZM8.71476 13.7903L11.3963 5.29865H15.1952L8.71476 13.7903Z" fill="#666666"/>
</g>
<defs>
<clipPath id="clip0_646_1682">
<rect width="16" height="16" fill="white" transform="translate(0 0.5)"/>
</clipPath>
</defs>
</svg>
