<svg width="16" height="16" viewBox="0 0 16 16" fill="none" xmlns="http://www.w3.org/2000/svg">
<path d="M13.9825 4.71347C13.9794 4.70531 13.9756 4.69803 13.9717 4.69029C13.962 4.67075 13.95 4.65303 13.9356 4.63663C13.9304 4.6308 13.9262 4.62471 13.9205 4.61938C13.9003 4.60034 13.8778 4.58357 13.8516 4.5719L12.2508 3.86052C12.3888 3.66733 12.4816 3.44308 12.4976 3.18176C12.5356 2.55139 12.1191 2.00122 11.4609 1.81274C10.9497 1.66626 10.3738 1.78088 9.7959 2.14429C9.61847 2.256 9.44472 2.39053 9.27756 2.53928L8.10156 2.0166C8.03699 1.98792 7.96338 1.98767 7.89844 2.0166L6.72633 2.53752C6.20383 2.07816 5.59862 1.75 4.99011 1.75C4.83618 1.75 4.68433 1.77112 4.53894 1.81274C3.88062 2.00122 3.46411 2.55139 3.50244 3.18188C3.51839 3.44315 3.61118 3.66734 3.74921 3.86052L2.14844 4.5719C2.12222 4.58357 2.09975 4.60033 2.07957 4.61935C2.0739 4.62469 2.06961 4.63081 2.06444 4.63667C2.05002 4.65305 2.03801 4.67075 2.02831 4.69026C2.02444 4.69801 2.02063 4.70529 2.01756 4.71349C2.00722 4.74106 2 4.76991 2 4.80042V11.4446C2 11.5433 2.05823 11.6329 2.14844 11.673L7.89844 14.2284C7.90211 14.23 7.90622 14.2294 7.90994 14.2308C7.93901 14.2422 7.96912 14.25 8 14.25C8.03088 14.25 8.06099 14.2422 8.09006 14.2308C8.09378 14.2294 8.09789 14.23 8.10156 14.2284L13.8516 11.673C13.9419 11.6329 14 11.5433 14 11.4446V4.80042C14 4.7699 13.9928 4.74106 13.9825 4.71347ZM7.75 7.51839V13.6154L5.25 12.5043V6.40733L7.75 7.51839ZM8 7.08218L5.6241 6.02632L7.59961 5.16809C7.60352 5.1664 7.6059 5.16295 7.60968 5.16107C7.69765 5.16748 7.78629 5.17451 7.87366 5.18066C7.87366 5.18066 8.00182 5.18872 8.00439 5.18872C8.01208 5.18872 8.1261 5.18079 8.1261 5.18079C8.21358 5.17461 8.30235 5.16757 8.39043 5.16115C8.39418 5.16299 8.39651 5.16641 8.40039 5.16809L10.3759 6.02634L8 7.08218ZM10.9961 5.7507L9.41537 5.06398C9.7686 5.02002 10.1218 4.96304 10.4702 4.87561C10.8109 4.79016 11.415 4.59837 11.8762 4.24135L13.1345 4.80042L10.9961 5.7507ZM10.0623 2.5675C10.3982 2.35596 10.7148 2.24976 11.0081 2.24976C11.1165 2.24976 11.2217 2.26428 11.3232 2.29346C11.679 2.39526 12.0259 2.70007 11.9985 3.15137C11.9607 3.76953 11.1216 4.1969 10.3486 4.39075C9.69824 4.55383 9.01392 4.61523 8.34375 4.66394C8.59106 4.02917 9.25439 3.07605 10.0623 2.5675ZM8 2.51855L8.89543 2.91652C8.52307 3.32333 8.20847 3.7854 8.00211 4.20479C7.79974 3.78586 7.48927 3.32333 7.11206 2.91325L8 2.51855ZM4.67664 2.29346C4.77722 2.26465 4.88269 2.25 4.99011 2.25C6.06848 2.25 7.29871 3.72363 7.65845 4.66418C6.98755 4.61536 6.30249 4.55408 5.65137 4.39075C4.87854 4.1969 4.03918 3.76953 4.00146 3.15149C3.97412 2.7002 4.3208 2.39526 4.67664 2.29346ZM4.12376 4.24136C4.58493 4.59837 5.18903 4.79016 5.52979 4.87561C5.87822 4.96306 6.23138 5.02005 6.58461 5.064L5.00389 5.75069L2.8656 4.80042L4.12376 4.24136ZM2.5 5.18517L4.75 6.18512V12.2821L2.5 11.2821V5.18517ZM8.25 7.51839L10.75 6.40733V12.5043L8.25 13.6154V7.51839ZM11.25 12.2821V6.18512L13.5 5.18517V11.2821L11.25 12.2821Z" fill="#666666"/>
</svg>
