<svg width="68" height="12" viewBox="0 0 68 12" fill="none" xmlns="http://www.w3.org/2000/svg">
<path d="M6 0L7.79862 3.52441L11.7063 4.1459L8.91023 6.94559L9.52671 10.8541L6 9.06L2.47329 10.8541L3.08977 6.94559L0.293661 4.1459L4.20138 3.52441L6 0Z" fill="#EA7612"/>
<path d="M20 0L21.7986 3.52441L25.7063 4.1459L22.9102 6.94559L23.5267 10.8541L20 9.06L16.4733 10.8541L17.0898 6.94559L14.2937 4.1459L18.2014 3.52441L20 0Z" fill="#EA7612"/>
<path d="M34 0L35.7986 3.52441L39.7063 4.1459L36.9102 6.94559L37.5267 10.8541L34 9.06L30.4733 10.8541L31.0898 6.94559L28.2937 4.1459L32.2014 3.52441L34 0Z" fill="#EA7612"/>
<path d="M48 0L49.7986 3.52441L53.7063 4.1459L50.9102 6.94559L51.5267 10.8541L48 9.06L44.4733 10.8541L45.0898 6.94559L42.2937 4.1459L46.2014 3.52441L48 0Z" fill="#EA7612"/>
<path d="M62 0L63.7986 3.52441L67.7063 4.1459L64.9102 6.94559L65.5267 10.8541L62 9.06L58.4733 10.8541L59.0898 6.94559L56.2937 4.1459L60.2014 3.52441L62 0Z" fill="#EA7612"/>
</svg>
