<svg width="19" height="18" viewBox="0 0 19 18" fill="none" xmlns="http://www.w3.org/2000/svg">
<path d="M16.0725 9.38149C16.3678 8.99126 16.5312 8.51313 16.5312 8.01567C16.5312 7.22642 16.09 6.47935 15.3799 6.06275C15.1971 5.95551 14.9889 5.89908 14.777 5.89927H10.5617L10.6672 3.73892C10.6918 3.21686 10.5072 2.72115 10.1486 2.34322C9.97265 2.15695 9.76034 2.00874 9.52481 1.90775C9.28929 1.80677 9.03556 1.75516 8.7793 1.75612C7.86523 1.75612 7.05664 2.37135 6.81406 3.25201L5.3041 8.7188H3.03125C2.72012 8.7188 2.46875 8.97016 2.46875 9.2813V15.6797C2.46875 15.9909 2.72012 16.2422 3.03125 16.2422H13.601C13.7627 16.2422 13.9209 16.2106 14.0668 16.1473C14.9035 15.7905 15.4432 14.9731 15.4432 14.0661C15.4432 13.8446 15.4115 13.6266 15.3482 13.4157C15.6436 13.0254 15.807 12.5473 15.807 12.0498C15.807 11.8284 15.7754 11.6104 15.7121 11.3995C16.0074 11.0092 16.1709 10.5311 16.1709 10.0336C16.1674 9.81215 16.1357 9.59243 16.0725 9.38149ZM3.73438 14.9766V9.98442H5.1582V14.9766H3.73438ZM14.9211 8.77153L14.5361 9.10552L14.7805 9.552C14.861 9.69908 14.9027 9.86422 14.9018 10.0319C14.9018 10.3219 14.7752 10.5979 14.5572 10.7877L14.1723 11.1217L14.4166 11.5682C14.4971 11.7153 14.5388 11.8804 14.5379 12.0481C14.5379 12.3381 14.4113 12.6141 14.1934 12.8039L13.8084 13.1379L14.0527 13.5844C14.1332 13.7315 14.175 13.8966 14.174 14.0643C14.174 14.458 13.942 14.8131 13.5834 14.9748H6.2832V9.92817L8.03223 3.59127C8.07733 3.42885 8.17414 3.28555 8.308 3.1831C8.44185 3.08064 8.60546 3.02461 8.77402 3.0235C8.90762 3.0235 9.03945 3.06217 9.14492 3.14127C9.31894 3.27135 9.41211 3.46822 9.40156 3.6774L9.23281 7.16489H14.7594C15.0723 7.3565 15.2656 7.67993 15.2656 8.01567C15.2656 8.30571 15.1391 8.57993 14.9211 8.77153Z" fill="#E57715"/>
</svg>
