<svg width="19" height="18" viewBox="0 0 19 18" fill="none" xmlns="http://www.w3.org/2000/svg">
<path d="M16.035 3.85478C15.9312 3.70667 15.7932 3.58575 15.6328 3.50223C15.4724 3.41872 15.2942 3.37508 15.1134 3.375H2.1875C1.88923 3.37533 1.60328 3.49397 1.39237 3.70487C1.18147 3.91578 1.06283 4.20173 1.0625 4.5V13.2188H2.50679C2.60562 13.7708 2.89544 14.2705 3.32552 14.6304C3.7556 14.9903 4.29856 15.1876 4.85938 15.1876C5.42019 15.1876 5.96315 14.9903 6.39323 14.6304C6.82331 14.2705 7.11313 13.7708 7.21196 13.2188H11.5068C11.6056 13.7708 11.8954 14.2705 12.3255 14.6304C12.7556 14.9903 13.2986 15.1876 13.8594 15.1876C14.4202 15.1876 14.9631 14.9903 15.3932 14.6304C15.8233 14.2705 16.1131 13.7708 16.212 13.2188H17.9375V6.83863C17.9378 6.66548 17.8845 6.49648 17.785 6.35477L16.035 3.85478ZM6.82812 4.5H11.8906V7.875H6.82812V4.5ZM2.1875 4.5H5.70312V7.875H2.1875V4.5ZM4.85938 14.0625C4.60906 14.0625 4.36436 13.9883 4.15623 13.8492C3.9481 13.7101 3.78588 13.5125 3.69009 13.2812C3.5943 13.0499 3.56923 12.7955 3.61807 12.55C3.6669 12.3045 3.78744 12.0789 3.96444 11.9019C4.14144 11.7249 4.36696 11.6044 4.61246 11.5556C4.85797 11.5067 5.11245 11.5318 5.34371 11.6276C5.57497 11.7234 5.77263 11.8856 5.9117 12.0937C6.05077 12.3019 6.125 12.5466 6.125 12.7969C6.12463 13.1324 5.99117 13.4541 5.7539 13.6914C5.51663 13.9287 5.19493 14.0621 4.85938 14.0625ZM13.8594 14.0625C13.6091 14.0625 13.3644 13.9883 13.1562 13.8492C12.9481 13.7101 12.7859 13.5125 12.6901 13.2812C12.5943 13.0499 12.5692 12.7955 12.6181 12.55C12.6669 12.3045 12.7874 12.0789 12.9644 11.9019C13.1414 11.7249 13.367 11.6044 13.6125 11.5556C13.858 11.5067 14.1124 11.5318 14.3437 11.6276C14.575 11.7234 14.7726 11.8856 14.9117 12.0937C15.0508 12.3019 15.125 12.5466 15.125 12.7969C15.1246 13.1324 14.9912 13.4541 14.7539 13.6914C14.5166 13.9287 14.1949 14.0621 13.8594 14.0625ZM16.8125 12.0938H16.1443C15.994 11.6051 15.691 11.1775 15.2797 10.8737C14.8684 10.57 14.3706 10.4061 13.8594 10.4061C13.3481 10.4061 12.8503 10.57 12.4391 10.8737C12.0278 11.1775 11.7248 11.6051 11.5744 12.0938H7.14432C6.99399 11.6051 6.69095 11.1775 6.2797 10.8737C5.86845 10.57 5.37064 10.4061 4.85938 10.4061C4.34811 10.4061 3.8503 10.57 3.43905 10.8737C3.0278 11.1775 2.72476 11.6051 2.57443 12.0938H2.1875V9H16.8125V12.0938ZM16.8125 7.875H13.0156V4.5H15.1134L16.8125 6.92729V7.875Z" fill="#E57715"/>
</svg>
