<svg width="18" height="24" viewBox="0 0 18 24" fill="none" xmlns="http://www.w3.org/2000/svg">
<path d="M4.96301 17.7786C5.70932 18.6631 6.38857 19.5949 6.99582 20.5672C7.5143 21.4815 7.73044 22.1015 8.10936 23.2032C8.34174 23.8119 8.55176 23.9936 9.00331 23.9936C9.49536 23.9936 9.7186 23.6845 9.89108 23.2066C10.2493 22.1661 10.5303 21.3721 10.9737 20.6218C11.8437 19.1733 12.9249 17.8862 13.9871 16.6491C14.2747 16.299 16.1341 14.2592 16.9711 12.6498C16.9711 12.6498 17.9999 10.8818 17.9999 8.4127C17.9999 6.10307 16.9853 4.50122 16.9853 4.50122L14.0642 5.22881L12.2902 9.57438L11.8513 10.1736L11.7636 10.2821L11.6469 10.418L11.442 10.6351L11.1492 10.9073L9.56947 12.1043L5.62001 14.2252L4.96301 17.7786Z" fill="#34A853"/>
<path d="M0.88678 12.3527C1.85069 14.4004 3.70948 16.2005 4.96708 17.7802L11.6468 10.421C11.6468 10.421 10.7058 11.5657 8.99873 11.5657C7.09727 11.5657 5.56116 10.1535 5.56116 8.37275C5.56116 7.15163 6.35105 6.31274 6.35105 6.31274L1.81666 7.44277L0.88678 12.3526V12.3527Z" fill="#FBBC04"/>
<path d="M11.7214 0.378483C13.9399 1.04375 15.8388 2.44039 16.9874 4.49987L11.6489 10.4167C11.6489 10.4167 12.4388 9.56262 12.4388 8.34909C12.4388 6.52692 10.789 5.16566 9.00682 5.16566C7.3215 5.16566 6.35358 6.30844 6.35358 6.30844V2.58092L11.7214 0.378418V0.378483Z" fill="#4285F4"/>
<path d="M2.11041 2.99281C3.43545 1.51835 5.76701 0 8.98142 0C10.541 0 11.7159 0.380796 11.7159 0.380796L6.3485 6.31168H2.54565L2.11041 2.99288V2.99281Z" fill="#1A73E8"/>
<path d="M0.886781 12.3527C0.886781 12.3527 0 10.7376 0 8.39777C0 6.1863 0.924328 4.25322 2.11043 2.99292L6.35154 6.31232L0.886781 12.3527Z" fill="#EA4335"/>
</svg>
