<svg width="19" height="18" viewBox="0 0 19 18" fill="none" xmlns="http://www.w3.org/2000/svg">
<path d="M5.375 6.0825C4.7075 6.0825 4.1675 5.5425 4.1675 4.875C4.1675 4.55475 4.29472 4.24762 4.52117 4.02117C4.74762 3.79472 5.05475 3.6675 5.375 3.6675C6.0425 3.6675 6.5825 4.2075 6.5825 4.875C6.5825 5.19525 6.45528 5.50238 6.22883 5.72883C6.00238 5.95528 5.69525 6.0825 5.375 6.0825ZM5.375 1.5C3.5 1.5 2 3 2 4.875C2 7.4025 5.375 11.145 5.375 11.145C5.375 11.145 8.75 7.4025 8.75 4.875C8.75 3 7.25 1.5 5.375 1.5ZM13.625 6.0825C13.3048 6.0825 12.9976 5.95528 12.7712 5.72883C12.5447 5.50238 12.4175 5.19525 12.4175 4.875C12.4175 4.71643 12.4487 4.55941 12.5094 4.41291C12.5701 4.26641 12.659 4.1333 12.7712 4.02117C12.8833 3.90904 13.0164 3.8201 13.1629 3.75942C13.3094 3.69873 13.4664 3.6675 13.625 3.6675C13.7836 3.6675 13.9406 3.69873 14.0871 3.75942C14.2336 3.8201 14.3667 3.90904 14.4788 4.02117C14.591 4.1333 14.6799 4.26641 14.7406 4.41291C14.8013 4.55941 14.8325 4.71643 14.8325 4.875C14.8325 5.19525 14.7053 5.50238 14.4788 5.72883C14.2524 5.95528 13.9452 6.0825 13.625 6.0825ZM13.625 1.5C11.75 1.5 10.25 3 10.25 4.875C10.25 7.4025 13.625 11.145 13.625 11.145C13.625 11.145 17 7.4025 17 4.875C17 3 15.5 1.5 13.625 1.5ZM13.625 12C12.6725 12 11.825 12.6 11.51 13.5H7.49C7.29127 12.9387 6.87812 12.479 6.3411 12.2218C5.80408 11.9645 5.18697 11.9306 4.625 12.1275C4.34569 12.2254 4.0884 12.3773 3.86785 12.5747C3.6473 12.7721 3.46782 13.011 3.33965 13.2777C3.21149 13.5445 3.13716 13.8339 3.12092 14.1294C3.10468 14.425 3.14684 14.7208 3.245 15C3.44642 15.5628 3.86236 16.023 4.40196 16.2802C4.94157 16.5373 5.561 16.5705 6.125 16.3725C6.7625 16.1475 7.25 15.6375 7.49 15H11.5175C11.93 16.17 13.22 16.785 14.375 16.3725C14.6552 16.2756 14.9134 16.1244 15.1349 15.9274C15.3565 15.7304 15.5369 15.4916 15.6658 15.2246C15.7947 14.9577 15.8697 14.6679 15.8862 14.372C15.9028 14.076 15.8608 13.7797 15.7625 13.5C15.44 12.6 14.585 12 13.625 12ZM13.625 15.375C13.3266 15.375 13.0405 15.2565 12.8295 15.0455C12.6185 14.8345 12.5 14.5484 12.5 14.25C12.5 13.9516 12.6185 13.6655 12.8295 13.4545C13.0405 13.2435 13.3266 13.125 13.625 13.125C13.9234 13.125 14.2095 13.2435 14.4205 13.4545C14.6315 13.6655 14.75 13.9516 14.75 14.25C14.75 14.5484 14.6315 14.8345 14.4205 15.0455C14.2095 15.2565 13.9234 15.375 13.625 15.375Z" fill="#E57715"/>
</svg>
