<svg width="31" height="31" viewBox="0 0 31 31" fill="none" xmlns="http://www.w3.org/2000/svg">
<path d="M15.5 0.1875C7.04395 0.1875 0.1875 7.04395 0.1875 15.5C0.1875 23.9561 7.04395 30.8125 15.5 30.8125C23.9561 30.8125 30.8125 23.9561 30.8125 15.5C30.8125 7.04395 23.9561 0.1875 15.5 0.1875ZM15.5 28.6711C8.47949 28.6711 2.32895 22.5205 2.32895 15.5C2.32895 8.47949 8.47949 2.32895 15.5 2.32895C22.5205 2.32895 28.6711 8.47949 28.6711 15.5C28.6711 22.5205 22.5205 28.6711 15.5 28.6711ZM17.1304 14.707L16.2622 14.5054V9.91504C17.1808 10.0407 17.8514 10.6024 18.2138 11.2735C18.4636 11.7363 18.8929 12.1401 19.4189 12.1401C20.0405 12.1401 20.5364 11.5943 20.3119 11.0146C19.7035 9.44396 18.1852 8.29926 16.2759 8.10693V7.46948C16.2759 7.05325 15.9385 6.71582 15.5222 6.71582C15.106 6.71582 14.7686 7.05325 14.7686 7.46948V8.11719C12.3486 8.35303 10.4551 9.68945 10.4551 12.1846C10.4551 14.4951 12.1572 15.6094 13.9448 16.0366L14.7891 16.252V21.1294C13.6991 20.9839 12.9543 20.4061 12.5585 19.6873C12.299 19.216 11.8606 18.8086 11.3226 18.8086C10.6823 18.8086 10.1686 19.365 10.3912 19.9653C10.9392 21.443 12.3359 22.7608 14.7549 22.9375V23.5273C14.7549 23.9453 15.0938 24.2842 15.5118 24.2842C15.9313 24.2842 16.2707 23.943 16.2686 23.5235L16.2656 22.9238C18.9419 22.688 20.856 21.2559 20.856 18.6855C20.8525 16.3135 19.3452 15.2539 17.1304 14.707ZM14.7856 14.1533C14.5942 14.0986 14.4336 14.0474 14.2729 13.9824C13.1177 13.5654 12.5811 12.8921 12.5811 12.0239C12.5811 10.7832 13.521 10.0757 14.7856 9.91504V14.1533ZM16.2622 21.1396V16.5698C16.3682 16.6006 16.4639 16.6245 16.563 16.645C18.1797 17.1372 18.7231 17.8208 18.7231 18.8701C18.7231 20.2065 17.7183 21.0098 16.2622 21.1396Z" fill="#ACA49E"/>
</svg>
