<svg width="89" height="22" viewBox="0 0 89 22" fill="none" xmlns="http://www.w3.org/2000/svg">
<g clip-path="url(#clip0_95_1472)">
<path fill-rule="evenodd" clip-rule="evenodd" d="M59.1573 0.268555C57.3898 0.268555 55.957 1.68078 55.957 3.42285V17.7686C55.957 19.5106 57.3898 20.9229 59.1573 20.9229H85.2373C87.0048 20.9229 88.4375 19.5106 88.4375 17.7686V3.42285C88.4375 1.68078 87.0048 0.268555 85.2373 0.268555H59.1573ZM63.7255 14.6922V11.056H66.0466C68.1671 11.056 69.2946 9.88414 69.2946 8.1083C69.2946 6.33245 68.1671 5.26938 66.0466 5.26938H62.2303V14.6922H63.7255ZM63.7255 6.67072H65.7034C67.076 6.67072 67.7503 7.22641 67.7503 8.15663C67.7503 9.08683 67.1005 9.64254 65.7645 9.64254H63.7255V6.67072ZM71.931 14.8855C73.0708 14.8855 73.8184 14.3902 74.1617 13.5446C74.2597 14.4869 74.836 14.9701 76.0861 14.6439L76.0985 13.6412C75.5957 13.6895 75.4977 13.5083 75.4977 12.9889V10.5244C75.4977 9.07475 74.5294 8.21702 72.74 8.21702C70.9748 8.21702 69.9576 9.08683 69.9576 10.5607H71.3304C71.3304 9.85999 71.8329 9.43717 72.7155 9.43717C73.6468 9.43717 74.076 9.83583 74.0636 10.5244V10.8385L72.4825 11.0077C70.7052 11.2009 69.7248 11.8654 69.7248 13.0251C69.7248 13.9795 70.411 14.8855 71.931 14.8855ZM72.2373 13.7983C71.4652 13.7983 71.1588 13.3875 71.1588 12.9768C71.1588 12.4211 71.7963 12.1674 73.0463 12.0224L74.027 11.9137C73.9655 12.9768 73.2424 13.7983 72.2373 13.7983ZM80.6386 15.1634C80.0135 16.6614 79.0084 17.1083 77.4396 17.1083H76.7653V15.8761H77.4886C78.3464 15.8761 78.7632 15.6103 79.2169 14.8493L76.4345 8.41031H77.9787L79.9645 13.1097L81.7294 8.41031H83.237L80.6386 15.1634Z" fill="#5A31F4"/>
<path d="M8.11637 9.34712C6.06891 8.90937 5.15675 8.73807 5.15675 7.96044C5.15675 7.22903 5.77404 6.8647 7.0086 6.8647C8.09433 6.8647 8.88798 7.33236 9.47218 8.24865C9.51626 8.31936 9.6072 8.34382 9.6816 8.30576L11.9854 7.15835C12.068 7.11755 12.0984 7.01425 12.0515 6.93538C11.0953 5.30129 9.32888 4.40674 7.00308 4.40674C3.94702 4.40674 2.04834 5.89131 2.04834 8.25138C2.04834 10.7583 4.36037 11.3918 6.41061 11.8296C8.46083 12.2673 9.37572 12.4386 9.37572 13.2162C9.37572 13.9938 8.70886 14.3609 7.37784 14.3609C6.1488 14.3609 5.23668 13.8062 4.68553 12.7295C4.64421 12.6507 4.54775 12.618 4.46785 12.6588L2.16959 13.7818C2.08967 13.8226 2.05661 13.9177 2.09794 13.9993C3.01008 15.8074 4.88119 16.8243 7.3806 16.8243C10.5634 16.8243 12.4869 15.3642 12.4869 12.9307C12.4869 10.4972 10.1638 9.79033 8.11637 9.35257V9.34712Z" fill="#5A31F4"/>
<path d="M20.4619 4.40683C19.1557 4.40683 18.0011 4.86363 17.1716 5.67658C17.1192 5.72554 17.0338 5.69018 17.0338 5.6195V0.428974C17.0338 0.339248 16.9621 0.268555 16.8712 0.268555H13.9888C13.8978 0.268555 13.8262 0.339248 13.8262 0.428974V16.5389C13.8262 16.6286 13.8978 16.6993 13.9888 16.6993H16.8712C16.9621 16.6993 17.0338 16.6286 17.0338 16.5389V9.47227C17.0338 8.10737 18.0947 7.06055 19.525 7.06055C20.9552 7.06055 21.9913 8.08561 21.9913 9.47227V16.5389C21.9913 16.6286 22.0629 16.6993 22.1539 16.6993H25.0363C25.1273 16.6993 25.1989 16.6286 25.1989 16.5389V9.47227C25.1989 6.50316 23.2258 4.40956 20.4619 4.40956V4.40683Z" fill="#5A31F4"/>
<path d="M31.0519 3.94756C29.4868 3.94756 28.0153 4.41793 26.9624 5.10039C26.8909 5.14663 26.8661 5.24178 26.9103 5.3152L28.1805 7.45502C28.2274 7.53115 28.3265 7.55835 28.4037 7.51213C29.2029 7.03631 30.1178 6.78888 31.0519 6.79432C33.5678 6.79432 35.4169 8.54534 35.4169 10.8592C35.4169 12.8304 33.9371 14.2905 32.0605 14.2905C30.5312 14.2905 29.4703 13.4123 29.4703 12.1724C29.4703 11.4628 29.7761 10.8809 30.5725 10.4704C30.655 10.4269 30.6855 10.3263 30.6359 10.2474L29.4372 8.24624C29.3985 8.181 29.3159 8.15109 29.2414 8.17827C27.6349 8.76557 26.5077 10.1794 26.5077 12.0773C26.5077 14.9485 28.8254 17.0911 32.0579 17.0911C35.8331 17.0911 38.5474 14.5108 38.5474 10.8102C38.5474 6.84325 35.3895 3.94482 31.0465 3.94482L31.0519 3.94756Z" fill="#5A31F4"/>
<path d="M46.977 4.38503C45.5191 4.38503 44.2185 4.91523 43.2678 5.85056C43.2154 5.90222 43.13 5.86416 43.13 5.79347V4.66782C43.13 4.57809 43.0585 4.50738 42.9674 4.50738H40.1594C40.0686 4.50738 39.9968 4.57809 39.9968 4.66782V20.7533C39.9968 20.843 40.0686 20.9137 40.1594 20.9137H43.0417C43.1328 20.9137 43.2046 20.843 43.2046 20.7533V15.4785C43.2046 15.4077 43.29 15.3724 43.3421 15.4186C44.2902 16.2887 45.5439 16.7972 46.9798 16.7972C50.361 16.7972 52.9981 14.0972 52.9981 10.5897C52.9981 7.08225 50.3581 4.38232 46.9798 4.38232L46.977 4.38503ZM46.4342 14.0728C44.5106 14.0728 43.0528 12.5637 43.0528 10.568C43.0528 8.57226 44.5078 7.06323 46.4342 7.06323C48.3604 7.06323 49.8126 8.5478 49.8126 10.568C49.8126 12.5882 48.3795 14.0728 46.4314 14.0728H46.4342Z" fill="#5A31F4"/>
</g>
<defs>
<clipPath id="clip0_95_1472">
<rect width="88" height="21" fill="white" transform="translate(0.5 0.220215)"/>
</clipPath>
</defs>
</svg>
