<svg width="79" height="24" viewBox="0 0 79 24" fill="none" xmlns="http://www.w3.org/2000/svg">
<path d="M7.86314 0C5.29708 0 3.9334 0.172293 3.33588 0.172293C2.33878 0.172293 1.45532 0.142966 0.571865 0.142966C0.0879793 0.142966 0 0.172293 0 0.370246C0 0.711165 0.11364 0.736826 1.39667 0.736826C2.19582 0.736826 2.65037 0.993432 2.65037 3.24423V16.3531C2.65037 16.7784 2.59539 16.837 1.31236 16.837C0.685505 16.837 0.513212 16.892 0.513212 17.1779C0.513212 17.4639 0.714831 17.4932 0.997098 17.4932C1.90988 17.4932 2.53673 17.3796 3.73179 17.3796C4.98549 17.3796 6.18421 17.6618 7.39759 17.6618C11.3567 17.6618 13.996 16.1515 13.996 12.9623C13.996 10.4842 12.3171 9.51642 10.9754 8.83092C10.4072 8.54498 9.87567 8.40202 9.87567 8.34703C9.87567 8.29204 10.5025 7.94746 11.0451 7.57721C11.9395 6.95036 13.1712 5.95326 13.1712 3.92974C13.1712 1.90622 11.5693 0 7.86314 0ZM56.6769 0.0329922C55.6938 0.332596 54.6786 0.51471 53.6527 0.575531C53.2348 0.601191 53.0331 0.575531 53.0331 0.872461C53.0331 1.16939 53.2824 1.19505 53.7296 1.19505C54.8294 1.19505 54.9907 1.19505 54.9907 2.75668V16.4265C54.9907 16.87 54.5728 16.848 53.5537 16.848C52.9598 16.848 52.9342 16.9947 52.9342 17.1706C52.9342 17.3466 52.9855 17.4162 53.5537 17.4162C53.9203 17.4162 55.2143 17.3686 56.0574 17.3686C56.5047 17.3686 57.0509 17.4162 57.4211 17.4162C58.3119 17.4162 58.4879 17.4162 58.4879 17.1706C58.4879 16.925 58.5355 16.804 57.2965 16.804C56.8492 16.804 56.6769 16.5328 56.6769 14.4762C56.6769 13.7431 56.8016 11.8002 56.8016 2.35711C56.8016 1.62395 56.9262 0.722163 56.9262 0.425233C56.9262 0.128303 56.8016 0.0293264 56.6769 0.0293264V0.0329922ZM36.1045 0.054987C35.8992 0.054987 34.4329 0.601191 32.6366 0.601191C32.3617 0.601191 32.314 0.700168 32.314 0.949443C32.314 1.12174 32.413 1.19505 33.4138 1.19505C34.081 1.19505 34.2826 1.41867 34.2826 3.17825C34.2826 8.40935 34.2056 15.741 34.2056 16.4594C34.2056 16.826 33.982 16.826 33.1425 16.826C32.545 16.826 32.4093 16.9507 32.4093 17.1486C32.4093 17.3466 32.556 17.3942 33.1425 17.3942C33.4871 17.3942 34.4035 17.3466 35.2467 17.3466C36.0898 17.3466 37.1786 17.3942 37.5525 17.3942C38.0987 17.3942 38.2196 17.3942 38.2196 17.1486C38.2196 16.903 38.1207 16.826 37.5525 16.826C36.0165 16.826 36.0642 16.826 36.0642 15.6603V14.106C36.0642 13.8824 36.4307 13.7101 36.7973 13.4608C37.0667 13.2567 37.3581 13.0833 37.6661 12.9439C37.8127 12.9439 38.8538 14.5019 39.8949 15.6933C40.936 16.8847 41.1596 17.5005 41.6068 17.5005C41.9514 17.5005 42.7066 17.4785 42.9925 17.4785C43.2161 17.4785 43.5387 17.5005 43.8357 17.5005C44.3819 17.5005 44.5688 17.4529 44.5688 17.2769C44.5688 17.101 44.3709 16.958 43.777 16.958C42.9339 16.958 42.1421 15.7409 41.2989 14.7255C39.565 12.6433 39.0994 12.1595 39.0994 11.9505C39.0994 11.7416 40.6647 10.6858 41.9038 9.46143C42.6736 8.72827 43.5131 7.65419 43.5131 7.43058C43.5131 7.35726 43.4141 7.3316 43.2161 7.3316C42.9192 7.3316 41.4822 7.40492 41.1596 7.40492C40.837 7.40492 40.3935 7.3316 40.1442 7.3316C39.8216 7.3316 39.697 7.37926 39.697 7.58088C39.697 7.7825 39.8216 7.85215 40.1955 7.85215C41.2952 7.85215 41.3576 7.8998 41.3576 8.29571C41.3576 8.81625 41.134 9.23782 40.1698 10.1543C39.3744 10.8874 36.7973 13.1786 36.1778 13.1786C36.1045 13.1786 36.0788 13.1052 36.0788 13.0063C36.0788 8.97388 36.2291 6.19154 36.2291 2.42309C36.2291 1.63128 36.2768 0.590194 36.2768 0.267603C36.2768 0.120971 36.2291 0.0439896 36.1045 0.0439896V0.054987ZM7.00901 0.681839C9.60073 0.681839 10.7994 3.41653 10.7994 4.84252C10.7994 7.09332 9.85734 7.63586 9.03253 8.26271C8.0597 8.14236 7.08013 8.08481 6.09989 8.09042C5.41805 8.09042 5.04781 8.14541 5.04781 7.69085V1.51031C5.04781 0.938445 5.13212 0.681839 7.01268 0.681839H7.00901ZM19.5021 7.09333C17.2476 7.09333 14.8941 9.1755 14.8941 12.669C14.8941 16.8077 17.9184 17.8011 19.9493 17.8011C21.9801 17.8011 24.0623 16.2395 24.0623 16.1185C24.0623 16.0672 23.989 15.9206 23.8644 15.9206C23.0233 16.3023 22.1119 16.5046 21.1883 16.5144C19.3041 16.5144 16.6537 15.598 16.6537 12.1778C16.6537 11.6096 16.7271 11.485 17.123 11.4446C19.1245 11.3161 21.1127 11.0292 23.0689 10.5868C23.7397 10.4402 24.088 10.3412 24.088 10.2422C24.088 10.0443 23.6884 9.44677 23.2668 8.95189C22.3761 7.9108 20.7924 7.09333 19.5021 7.09333ZM48.3959 7.09333C46.1414 7.09333 43.788 9.1755 43.788 12.669C43.788 16.8077 46.8086 17.8011 48.8431 17.8011C50.8776 17.8011 52.9562 16.2395 52.9562 16.1185C52.9562 16.0672 52.8792 15.9206 52.7582 15.9206C51.9172 16.3023 51.0058 16.5046 50.0822 16.5144C48.198 16.5144 45.5476 15.598 45.5476 12.1778C45.5476 11.6096 45.6209 11.485 46.0168 11.4446C48.0186 11.3124 50.0068 11.0219 51.9627 10.5758C52.6336 10.4292 52.9818 10.3302 52.9818 10.2313C52.9818 10.0333 52.5822 9.43577 52.1643 8.94089C51.2699 7.8998 49.6863 7.08233 48.3959 7.08233V7.09333ZM62.6925 7.09333C60.4381 7.09333 58.0846 9.1755 58.0846 12.669C58.0846 16.8077 61.1052 17.8011 63.1398 17.8011C65.1743 17.8011 67.2528 16.2395 67.2528 16.1185C67.2528 16.0672 67.1758 15.9206 67.0548 15.9206C66.2138 16.3023 65.3024 16.5046 64.3788 16.5144C62.4946 16.5144 59.8442 15.598 59.8442 12.1778C59.8442 11.6096 59.9175 11.485 60.3134 11.4446C62.3152 11.3124 64.3034 11.0219 66.2594 10.5758C66.9302 10.4292 67.2785 10.3302 67.2785 10.2313C67.2785 10.0333 66.8789 9.43577 66.4573 8.94089C65.5665 7.8998 63.9792 7.08233 62.6925 7.08233V7.09333ZM28.124 7.26195C27.7281 7.26195 27.2589 7.38659 26.863 7.38659C26.3644 7.38659 25.8952 7.33893 25.0521 7.33893C24.6305 7.33893 24.6562 7.41225 24.6562 7.70551C24.6562 7.99878 24.6562 7.95479 25.1034 7.95479C26.4891 7.95479 26.4414 8.00244 26.4414 9.68871V16.4851C26.4414 16.8517 26.3644 16.8517 25.3417 16.8517C24.7478 16.8517 24.7222 16.8993 24.7222 17.1486C24.7222 17.3979 24.7735 17.3942 25.3417 17.3942C25.7083 17.3942 26.5331 17.2696 27.3762 17.2696C28.2193 17.2696 29.8286 17.3942 30.1732 17.3942C30.8184 17.3942 30.8441 17.4199 30.8441 17.1486C30.8441 16.8773 30.8184 16.8517 30.1732 16.8517C28.3403 16.8517 28.267 16.8517 28.267 15.6346V10.5392C28.267 9.49809 28.8132 8.90423 30.2502 8.90423C31.4892 8.90423 31.7862 9.91966 32.1344 9.91966C32.281 9.91966 32.6769 8.81992 32.6769 8.58164C32.6769 7.93646 31.5369 7.39025 31.0897 7.39025C29.9276 7.39025 28.7619 8.68062 28.3916 8.68062C28.2927 8.68062 28.267 8.50466 28.267 8.28471C28.267 8.20773 28.3183 7.66519 28.3183 7.55155C28.3183 7.3536 28.2157 7.27662 28.1167 7.27662L28.124 7.26195ZM77.6123 7.28761C77.2458 7.28761 76.5933 7.38659 76.223 7.38659C75.5558 7.38659 75.1233 7.33893 74.4378 7.33893C73.9942 7.33893 73.9172 7.33893 73.9172 7.66152C73.9172 7.90713 74.0162 7.90713 74.786 7.90713C75.6291 7.90713 75.6291 8.05743 75.6291 8.80159C75.6291 9.14617 74.7347 11.7342 74.1408 13.5085C73.7449 14.6742 73.5983 15.0188 73.4077 15.0188C73.3087 15.0188 73.0118 14.5972 72.8138 14.0767C71.3255 10.2606 70.684 9.39545 70.684 8.67695C70.684 8.10509 70.8306 7.94379 71.4171 7.94379C71.9377 7.94379 72.0367 7.91813 72.0367 7.69451C72.0367 7.4709 71.9377 7.32794 71.4171 7.32794C70.6253 7.32794 69.7565 7.40125 69.0637 7.40125C68.4698 7.40125 68.2975 7.34993 67.5974 7.34993C67.1538 7.34993 67.0805 7.47457 67.0805 7.69818C67.0805 7.9218 67.1025 7.94746 67.5974 7.94746C68.0923 7.94746 68.2169 8.07209 68.8364 9.55674C70.2001 12.779 72.1833 17.3612 72.1833 17.6215C72.1833 18.3547 70.0535 21.2873 69.159 22.387C68.3195 23.4538 67.1538 23.6041 67.1538 23.7507C67.1538 23.8974 67.3994 24 67.821 24C68.3672 24 68.5541 23.802 69.2873 23.7031C69.8335 23.6261 70.1304 23.6041 70.387 23.0579C71.1825 21.4229 72.2969 19.4141 73.8586 15.6236C75.8161 10.8581 76.9048 7.89247 77.451 7.89247C77.748 7.89247 78.0962 7.76783 78.0962 7.54422C78.0962 7.3206 77.9716 7.24729 77.5757 7.24729L77.6123 7.28761ZM19.2528 7.62853C20.3929 7.62853 21.8555 9.46143 21.8555 10.081C21.8555 10.2313 21.8335 10.2789 21.5586 10.3302C19.7 10.6125 18.362 10.9278 17.0753 10.9278C16.7747 10.9278 16.7784 10.9021 16.7784 10.7775C16.7784 10.4329 17.3722 7.60654 19.2528 7.60654V7.62853ZM48.1466 7.62853C49.2867 7.62853 50.7493 9.46143 50.7493 10.081C50.7493 10.2313 50.7237 10.2789 50.4524 10.3302C48.5939 10.6125 47.2632 10.9278 45.9691 10.9278C45.6686 10.9278 45.6686 10.9021 45.6686 10.7775C45.6686 10.4329 46.2661 7.60654 48.1466 7.60654V7.62853ZM62.4433 7.62853C63.5833 7.62853 65.046 9.46143 65.046 10.081C65.046 10.2313 65.0203 10.2789 64.749 10.3302C62.8868 10.6125 61.5598 10.9278 60.2584 10.9278C59.9615 10.9278 59.9615 10.9021 59.9615 10.7775C59.9615 10.4329 60.5554 7.60654 62.4396 7.60654L62.4433 7.62853ZM6.07057 8.63296C9.1755 8.63296 11.2833 10.6272 11.2833 13.1896C11.2833 15.6676 9.68871 17.1486 7.52222 17.1486C6.61311 17.1486 5.68932 16.9507 5.38873 16.6097C5.13212 16.3238 5.04414 14.7292 5.04414 14.4726V9.37345C5.04414 8.7466 5.27509 8.64029 6.07057 8.64029V8.63296ZM20.1986 20.2609C20.0661 20.2473 19.9322 20.2609 19.8052 20.301C19.6782 20.3411 19.5607 20.4068 19.4601 20.4941C19.3595 20.5813 19.2778 20.6883 19.22 20.8083C19.1623 20.9283 19.1298 21.0589 19.1245 21.192C19.1245 22.2917 20.5908 22.1048 20.5908 22.7243C20.5908 22.9699 20.4002 23.1825 20.0189 23.1825C19.7123 23.164 19.4173 23.0584 19.1685 22.8783L18.9265 23.3072C19.2464 23.5401 19.6306 23.6682 20.0263 23.6737C20.1662 23.6868 20.3073 23.6722 20.4415 23.6306C20.5758 23.589 20.7004 23.5213 20.8084 23.4314C20.9164 23.3414 21.0056 23.2311 21.0708 23.1066C21.1359 22.9821 21.1759 22.8459 21.1883 22.706C21.1883 21.5769 19.722 21.9178 19.722 21.1663C19.722 20.9207 19.887 20.7411 20.2059 20.7411C20.4722 20.7522 20.7316 20.8291 20.9611 20.9647L21.1663 20.5505C20.8801 20.3639 20.5475 20.2611 20.2059 20.2535L20.1986 20.2609ZM31.8778 20.2609C30.8844 20.2609 30.4371 20.972 30.4371 21.9691C30.4371 22.9662 30.877 23.6811 31.8778 23.6811C32.8786 23.6811 33.3331 22.9149 33.3331 21.9691C33.3331 21.0234 32.8749 20.2609 31.8668 20.2609H31.8778ZM39.6456 20.2609C38.6485 20.2609 38.1793 20.9757 38.1793 21.9728C38.1793 22.9699 38.6229 23.6811 39.6456 23.6811C40.0945 23.6738 40.5241 23.497 40.848 23.1862L40.5511 22.8196C40.3149 23.0466 40.0025 23.1773 39.675 23.1862C39.0628 23.1862 38.7732 22.75 38.7732 21.9655C38.7732 21.181 39.0811 20.7448 39.6676 20.7448C39.9667 20.7489 40.2533 20.8654 40.4704 21.071L40.771 20.6824C40.4686 20.4112 40.0775 20.26 39.6713 20.2572L39.6456 20.2609ZM52.234 20.2609C51.2369 20.2609 50.7933 20.972 50.7933 21.9691C50.7933 22.9662 51.2332 23.6811 52.234 23.6811C53.2348 23.6811 53.6747 22.9149 53.6747 21.9691C53.6747 21.0234 53.2311 20.2609 52.234 20.2609ZM5.96059 20.3085L5.40339 20.3672V23.6261H5.97892V21.4009L7.37559 23.6261H7.8888V20.3269H7.32427V22.5007L5.97526 20.3195L5.96059 20.3085ZM13.3435 20.3085V23.6078H15.3707L15.4147 23.1202H13.9044V22.2001H15.1471V21.7125H13.9044V20.7998H15.3011V20.3085H13.3435ZM34.0626 20.3085V23.6078H34.6345V22.2001H35.8552V21.7125H34.6345V20.7998H35.9945V20.3085H34.0626ZM42.9559 20.3085L42.285 20.3635L41.1193 23.6261H41.6582L41.9331 22.8306H43.2675L43.5424 23.6261H44.1326L42.9559 20.3269V20.3085ZM48.4875 20.3085V23.6078H49.0631V22.2001H50.2838V21.7125H49.0631V20.7998H50.4231V20.3085H48.4875ZM57.5494 20.3085L56.9922 20.3672V23.6261H57.5677V21.4009L58.9937 23.6261H59.507V20.3269H58.9314V22.5007L57.5824 20.3195L57.5494 20.3085ZM63.0958 20.3085L62.4213 20.3635L61.2555 23.6261H61.7944L62.0693 22.8306H63.3927L63.6676 23.6261H64.2578L63.0848 20.3269L63.0958 20.3085ZM2.15183 20.3085V22.475C2.1347 22.6392 2.15476 22.8052 2.21051 22.9605C2.26626 23.1159 2.35628 23.2567 2.47388 23.3726C2.59149 23.4884 2.73367 23.5763 2.88987 23.6297C3.04607 23.6831 3.21229 23.7007 3.3762 23.6811C3.53988 23.6996 3.70563 23.6811 3.8612 23.6269C4.01677 23.5728 4.1582 23.4844 4.27502 23.3683C4.39185 23.2521 4.4811 23.1113 4.53618 22.956C4.59126 22.8008 4.61076 22.6351 4.59325 22.4714V20.3159H4.00672V22.5154C4.00672 22.9259 3.83443 23.1935 3.36521 23.1935C2.89598 23.1935 2.71636 22.9259 2.71636 22.508V20.3085H2.15183ZM8.71728 20.3085V23.6078H9.29281V20.3085H8.71728ZM9.861 20.3085L11.0011 23.6078H11.6353L12.779 20.3085H12.2145L11.5803 22.1414C11.5803 22.1414 11.5179 22.3284 11.353 22.8966H11.3383C11.1807 22.3284 11.1184 22.1378 11.1184 22.1378L10.4842 20.3049L9.861 20.3085ZM16.1589 20.3085V23.6078H16.7344V22.2917H17.0093C17.2183 22.2917 17.3392 22.486 17.4346 22.684L17.8964 23.6151H18.5306L17.8964 22.42C17.8504 22.3267 17.7793 22.248 17.6912 22.1928C17.8763 22.129 18.0359 22.0071 18.1462 21.8453C18.2566 21.6834 18.3117 21.4903 18.3033 21.2946C18.3033 20.7191 17.9368 20.3159 17.2036 20.3159L16.1589 20.3085ZM21.8665 20.3085V23.6078H22.442V20.3085H21.8665ZM23.1019 20.3085V20.8254H23.978V23.6444H24.5535V20.8217H25.3893L25.4333 20.3342L23.1019 20.3085ZM25.8109 20.3085L26.8557 22.2038V23.6188H27.4312V22.2111L28.4759 20.3159H27.8344L27.3652 21.258C27.3652 21.258 27.3066 21.379 27.1416 21.7455C26.9693 21.379 26.907 21.258 26.907 21.258L26.4671 20.3159L25.8109 20.3085ZM44.5981 20.3085V23.6078H46.5593L46.6033 23.1202H45.1737V20.2975L44.5981 20.3085ZM47.1642 20.3085V23.6078H47.7397V20.3085H47.1642ZM54.1769 20.3085V23.6078H54.7524V22.2917H55.0273C55.2363 22.2917 55.3573 22.486 55.4526 22.684L55.9108 23.6151H56.545L55.9108 22.42C55.8675 22.326 55.7973 22.247 55.7092 22.1928C55.8974 22.1312 56.0602 22.0098 56.1727 21.8469C56.2853 21.684 56.3414 21.4887 56.3324 21.291C56.3324 20.7154 55.9658 20.3122 55.2326 20.3122L54.1769 20.3085ZM60.2145 20.3085V23.6078H60.79V20.3085H60.2145ZM31.8668 20.7484C32.4387 20.7484 32.7136 21.247 32.7136 21.9691C32.7136 22.6913 32.435 23.1899 31.8668 23.1899C31.2986 23.1899 31.0163 22.6876 31.0163 21.9618C31.0163 21.236 31.2986 20.7484 31.8668 20.7484ZM52.223 20.7484C52.7949 20.7484 53.0698 21.247 53.0698 21.9691C53.0698 22.6913 52.7875 23.1899 52.223 23.1899C51.6585 23.1899 51.3725 22.6876 51.3725 21.9618C51.3725 21.236 51.6511 20.7484 52.223 20.7484ZM16.7344 20.8254H17.2036C17.5958 20.8254 17.7241 21.0087 17.7241 21.3203C17.7302 21.3892 17.7208 21.4586 17.6964 21.5234C17.6721 21.5882 17.6335 21.6466 17.5835 21.6945C17.5336 21.7424 17.4735 21.7784 17.4077 21.7999C17.342 21.8214 17.2722 21.8279 17.2036 21.8188H16.7344V20.8254ZM54.7487 20.8254H55.2216C55.6139 20.8254 55.7385 21.0087 55.7385 21.3203C55.7479 21.3894 55.7414 21.4598 55.7194 21.526C55.6975 21.5922 55.6607 21.6525 55.6119 21.7024C55.5631 21.7523 55.5036 21.7903 55.4379 21.8137C55.3721 21.837 55.3019 21.8451 55.2326 21.8372H54.7487V20.8254ZM42.5893 20.9134C42.8166 21.5989 42.8569 21.7052 42.8569 21.7052L43.1135 22.4384H42.0614L42.318 21.7052C42.318 21.7052 42.3657 21.5806 42.5893 20.8951V20.9134ZM62.7255 20.9134L62.9895 21.7052L63.2461 22.4384H62.1976L62.4542 21.7052C62.4542 21.7052 62.5019 21.5806 62.7255 20.8951V20.9134Z" fill="#00326F"/>
</svg>
