<svg width="77" height="26" viewBox="0 0 77 26" fill="none" xmlns="http://www.w3.org/2000/svg">
<g id="Group 7280">
<g id="Clip path group">
<mask id="mask0_1248_3710" style="mask-type:luminance" maskUnits="userSpaceOnUse" x="0" y="0" width="18" height="26">
<g id="clip-path">
<path id="Vector" d="M17.0938 0H0V26H17.0938V0Z" fill="white"/>
</g>
</mask>
<g mask="url(#mask0_1248_3710)">
<g id="Group">
<path id="Vector_2" d="M0.473145 3.92949V13.0634L3.4453 16.0355H11.4077V20.1894H6.58372V18.0409H0.478261V22.6168L3.46321 25.635H13.7353L16.7075 22.6551V13.4112L13.6586 10.5056H6.34585V6.10106H11.1213V8.53353H16.7075V3.92949L13.3516 0.489258H3.93896L0.483376 3.92949" fill="white"/>
<path id="Vector_3" d="M4.1063 0.949219L0.906494 4.14135V12.9095L3.62799 15.6335H11.8411V20.6468H6.15765V18.4983H0.914168V22.4603L3.64078 25.2304H13.565L16.2814 22.5063V13.6154L13.4883 10.9528H5.91978V5.7016H11.5546V8.13663H16.2814V4.14135L13.1788 0.949219H4.1063Z" fill="#A90A2E"/>
<path id="Vector_4" d="M8.8272 0.497279C8.76798 0.494059 8.70883 0.504892 8.6546 0.528897C8.60037 0.552902 8.55258 0.589397 8.51515 0.635399C8.47421 0.690889 8.45265 0.758289 8.45376 0.827233C8.45499 0.874771 8.46186 0.921995 8.47422 0.967913C8.40772 1.09836 8.31308 1.30298 8.30541 1.30554H8.23123C8.15007 1.29545 8.0679 1.31325 7.99818 1.356C7.92847 1.39876 7.87536 1.46395 7.84756 1.54086C7.81622 1.60162 7.80124 1.6695 7.80408 1.73781C7.81534 1.89555 7.85795 2.04946 7.92941 2.19054L7.99847 2.28774C7.85507 2.36195 7.73764 2.47803 7.6618 2.62058C7.58596 2.76312 7.55529 2.92538 7.57388 3.08577C7.57417 3.13958 7.58826 3.19242 7.6148 3.23924C7.64215 3.2879 7.68185 3.32849 7.7299 3.35689L7.68386 3.40549C7.33856 3.66127 6.94978 3.91705 6.9421 4.23166C6.95223 4.32221 6.9819 4.40948 7.02907 4.48744C6.79375 4.6051 6.54053 4.81996 6.54309 5.08597C6.54193 5.09531 6.54193 5.10476 6.54309 5.1141C6.56866 5.44405 6.9728 5.57451 7.09557 5.6052L7.19788 5.63334L7.28996 5.57962C7.49463 5.43832 7.72927 5.34639 7.97545 5.31105C7.9752 5.31531 7.9752 5.31958 7.97545 5.32384C7.97545 5.93004 7.12626 6.19093 7.09045 6.20372H7.13394C6.78315 6.24739 6.44896 6.37848 6.16204 6.58495C5.87511 6.79143 5.64466 7.06668 5.49183 7.38542C5.35359 7.51415 5.26947 7.69063 5.25651 7.87908C5.257 7.98879 5.29799 8.09445 5.37161 8.17578L5.40231 8.20392L5.43812 8.22438C5.8269 8.41877 6.60447 7.9686 7.03418 7.69492L7.05464 7.68213L7.07511 7.66167C7.12863 7.59591 7.20573 7.55368 7.28996 7.54401C7.34961 7.55579 7.40311 7.58843 7.44087 7.63609L7.48435 7.69236L7.55597 7.72305C7.61983 7.74546 7.68147 7.77372 7.74013 7.80746C7.20965 8.00345 6.69122 8.23064 6.18755 8.48783L6.10826 8.5262L6.06989 8.60549C5.95735 8.83058 5.50718 9.08636 5.2514 9.19379C4.84215 9.37028 4.60172 9.60559 4.53522 9.88951C4.52323 9.94238 4.51723 9.99643 4.51731 10.0506C4.52244 10.2143 4.57981 10.3721 4.68101 10.5008L4.7424 10.5724L4.83448 10.5878C5.09026 10.6287 6.31544 10.355 7.02651 10.1888H7.04441H7.05976C7.36158 10.0737 7.45622 10.1146 7.46645 10.1197C7.47668 10.1248 7.46645 10.1964 7.46645 10.1964L7.50993 10.2323C7.39321 10.4909 7.22528 10.7232 7.01628 10.9152L6.9728 10.9612L6.95233 11.0226C6.9113 11.1129 6.8519 11.1937 6.77791 11.2597C6.70393 11.3258 6.61698 11.3757 6.52262 11.4063H6.54309C5.15676 11.7516 5.14141 12.2913 5.16955 12.4499L5.21303 12.6775L6.49705 12.5496L6.56099 12.4959C6.63772 12.4294 6.65819 12.4524 6.67865 12.4703L6.72725 12.5215L6.80654 12.5496L6.98047 12.5931C6.98047 12.5931 6.98047 12.5931 6.98047 12.6136C6.974 12.7652 6.9491 12.9155 6.90629 13.0612H6.24127C6.24127 13.0612 6.21569 13.2121 6.21057 13.2504C6.15177 13.2852 6.08447 13.3029 6.01618 13.3016C5.71692 13.1788 5.41254 13.5011 5.37673 13.5369L5.35115 13.5625L5.31534 13.6137C5.22623 13.6928 5.12296 13.7544 5.01097 13.7953L5.05445 13.7799C4.79867 13.8464 4.71938 13.9845 4.70147 14.0894C4.70021 14.1098 4.70021 14.1304 4.70147 14.1508C4.70572 14.2082 4.72205 14.2641 4.74937 14.3148C4.7767 14.3655 4.81442 14.4098 4.86006 14.4449C4.65543 14.4961 4.3485 14.5754 4.3485 14.8516V14.8721C4.35167 14.9209 4.36659 14.9683 4.39197 15.0102C4.41735 15.052 4.45245 15.0871 4.49429 15.1125C4.58893 15.1714 4.84471 15.3325 6.87048 14.5012H6.89095C6.83622 14.5589 6.77532 14.6103 6.70934 14.6547L6.68121 14.6726L6.65819 14.7007C6.51627 14.8423 6.33999 14.9445 6.14663 14.9974H6.16965C5.35115 15.1279 5.07491 15.4936 4.98283 15.6983C4.94052 15.7769 4.91837 15.8648 4.91837 15.954C4.91837 16.0433 4.94052 16.1312 4.98283 16.2098C5.0698 16.3454 5.0877 16.3556 6.01874 16.1894C5.97439 16.3411 5.91794 16.4891 5.84992 16.6319L5.1056 17.2994C4.2334 17.7957 3.70905 19.4045 3.65278 19.5887V19.6168V19.6449C3.65155 19.6671 3.65155 19.6893 3.65278 19.7114C3.64899 19.7858 3.66471 19.8598 3.69835 19.9262C3.732 19.9926 3.78242 20.0491 3.84461 20.09C4.11318 20.2563 4.50452 20.0567 4.66055 19.9647L4.71938 19.9289L4.83959 19.7166C4.97004 19.4915 5.35115 19.4199 5.49695 19.4071C5.90875 19.4582 6.32311 19.0669 6.40496 18.985L6.42543 18.962L6.44077 18.9364C6.4509 18.9167 6.46579 18.8998 6.48411 18.8873C6.50242 18.8748 6.52358 18.8671 6.54564 18.8648C7.13138 18.9415 7.56876 18.3047 7.70944 18.0386C7.84756 18.0028 7.96522 18.0386 8.06753 18.2561C8.15195 18.5444 8.19501 18.8432 8.19542 19.1436V19.2817L8.16984 20.1335L8.14682 20.952L8.16984 20.9213V20.9469V21.3894C8.16984 21.7551 8.13915 22.0544 8.12125 22.1797C8.0573 22.6683 7.96778 22.7245 7.93453 22.745C7.86748 22.7784 7.7972 22.805 7.72479 22.8243C7.61769 22.8559 7.51334 22.8961 7.41274 22.9445C7.23888 23.0215 7.08438 23.1363 6.96049 23.2806C6.8366 23.4248 6.74643 23.5949 6.69655 23.7783C6.65479 23.903 6.58169 24.0149 6.48426 24.1032C6.24382 24.2567 6.24382 24.2566 6.15174 24.272L5.95479 24.3078C5.80589 24.3519 5.6678 24.4265 5.54934 24.5269C5.43087 24.6273 5.33463 24.7513 5.26674 24.891L5.0877 25.2593H12.6332L12.5948 24.9293C12.5565 24.5764 12.4004 24.3487 11.6433 24.0981C11.446 24.0567 11.2699 23.946 11.1471 23.786C10.903 23.5325 10.6085 23.333 10.2826 23.2003C10.0728 23.0929 9.88357 22.635 9.77102 22.0518C9.72917 21.8977 9.72045 21.7364 9.74545 21.5786V21.5658L9.70452 20.4276V19.5119C9.70452 19.5119 9.70452 18.609 9.71987 18.233C9.90751 18.3447 10.1185 18.4113 10.3363 18.4274L11.3031 18.4658H11.321C11.518 18.4505 12.1012 18.7932 12.5207 19.1232H12.536H12.5513C12.8506 19.2945 13.2266 19.4659 13.4722 19.2689C13.5375 19.2091 13.5838 19.1314 13.6052 19.0454C13.6266 18.9594 13.6221 18.869 13.5924 18.7855V18.8265C13.3366 17.0795 12.3416 16.793 12.1779 16.7597C12.1378 16.7478 12.0985 16.7333 12.0603 16.7163L12.0909 16.6805L12.0756 16.6932C12.3774 16.4605 12.5028 16.2226 12.4465 15.9924C12.3621 15.6497 11.9221 15.555 11.8352 15.5371H11.7942H11.7533C11.4162 15.5478 11.0835 15.4589 10.7967 15.2813C10.3389 14.9284 10.2161 14.6572 10.2135 14.514C10.2117 14.4784 10.2196 14.443 10.2365 14.4117L10.2672 14.3682C10.2672 14.3682 10.2672 14.3503 10.2672 14.335C10.5799 14.4047 10.8755 14.536 11.1369 14.7212L11.1062 14.6982C11.236 14.8133 11.401 14.8811 11.5743 14.8903C11.7476 14.8996 11.9189 14.8499 12.0603 14.7493L12.1242 14.7007L12.1498 14.6189C12.2414 14.4991 12.349 14.3924 12.4695 14.3017C12.5437 14.2555 12.6057 14.192 12.6502 14.1168C12.6947 14.0416 12.7205 13.9567 12.7253 13.8694C12.7237 13.8322 12.7177 13.7953 12.7074 13.7595C12.5999 13.3962 11.9733 13.2658 11.4285 13.2223L11.055 12.9972C10.5921 12.7261 10.3261 12.5573 10.1649 12.2299C10.4898 12.258 10.7916 12.2887 10.9655 12.3066C11.1875 12.365 11.4219 12.3552 11.6382 12.2785C11.6968 12.2534 11.7467 12.2117 11.7817 12.1585C11.8167 12.1053 11.8353 12.0429 11.8352 11.9792V11.9613C11.8147 11.7055 11.5052 11.3219 10.9681 11.0814C10.6014 10.9134 10.2945 10.6377 10.0882 10.2911C10.0613 10.191 10.0484 10.0877 10.0498 9.98415C10.0485 9.89004 10.0545 9.79597 10.0677 9.70279C10.2851 9.70279 10.5205 9.97903 10.523 9.98159L10.6074 10.0839H10.7404C10.8534 10.0911 10.9631 10.1253 11.0602 10.1837L11.1599 10.2374L11.2673 10.2016C11.5193 10.187 11.772 10.205 12.0193 10.2553C12.4081 10.3115 12.5513 10.3832 12.6741 10.1632L12.7048 10.1146L12.7202 10.0455C12.7548 9.75204 12.7019 9.45487 12.5681 9.19136C12.4343 8.92786 12.2256 8.70979 11.9682 8.56457L11.8838 8.5262H11.8684C11.8148 8.46396 11.7693 8.39521 11.7329 8.32158C11.6471 8.18236 11.5224 8.07133 11.3742 8.00224C11.226 7.93314 11.0608 7.90899 10.899 7.93279C10.8009 7.85813 10.684 7.8121 10.5614 7.79979L10.4872 7.71794C10.4829 7.68125 10.4743 7.64519 10.4616 7.61051L10.5946 7.63097C11.8019 7.79979 11.9554 7.80234 12.0884 7.66934C12.1255 7.63314 12.1549 7.58975 12.1747 7.54181C12.1945 7.49387 12.2043 7.4424 12.2035 7.39054C12.2059 7.36416 12.2059 7.33763 12.2035 7.31125C12.1089 6.8841 11.1394 6.43392 10.344 6.13466C9.76335 5.91213 9.61244 5.68193 9.57663 5.6231C9.57663 5.60264 9.55361 5.56939 9.55361 5.55148C9.55153 5.53475 9.55372 5.51776 9.55998 5.50211C9.56624 5.48645 9.57637 5.47264 9.58942 5.46196C9.64809 5.43927 9.71075 5.42871 9.77361 5.4309C9.83648 5.4331 9.89825 5.44802 9.95519 5.47475H9.98588H10.014C10.5128 5.51056 10.7455 5.25222 10.8018 5.09108L10.8325 5.00667L10.8044 4.92226C10.7 4.63902 10.4901 4.40713 10.2186 4.27514C10.2727 4.23937 10.3158 4.18943 10.3433 4.13078C10.3708 4.07213 10.3817 4.00704 10.3747 3.94263C10.3361 3.80644 10.2711 3.67918 10.1833 3.56814C10.0955 3.4571 9.98672 3.36446 9.8631 3.29551C10.1496 3.20087 9.8631 2.69954 9.52803 2.43097L9.42316 2.35168C9.51398 2.31359 9.59334 2.25253 9.65343 2.1745C9.71352 2.09647 9.75228 2.00416 9.76591 1.90662C9.76591 1.88105 9.76591 1.85802 9.76591 1.83756C9.76838 1.76787 9.74724 1.69939 9.70592 1.64322C9.66461 1.58704 9.60553 1.54647 9.53826 1.52807C9.41127 1.50924 9.29042 1.46107 9.18529 1.38739C9.24668 1.38739 9.18529 1.03697 9.14436 0.97303C9.14436 0.939778 9.17506 0.860485 9.17506 0.827233C9.17843 0.780532 9.17198 0.733642 9.15612 0.689586C9.14026 0.645531 9.11535 0.605288 9.08298 0.571454C9.01093 0.513612 8.91919 0.48609 8.8272 0.494719" fill="white"/>
<path id="Vector_5" d="M9.44815 18.0515L9.43281 19.4813V20.4047L9.47117 21.5301C9.44514 21.7103 9.45558 21.8938 9.50187 22.0698C9.60162 22.5583 9.79346 23.2106 10.1567 23.3973C11.1644 23.9089 10.7705 24.0495 11.5532 24.3079C12.3359 24.5662 12.3206 24.7657 12.3359 24.978H5.48868C5.54036 24.8735 5.61214 24.7801 5.69991 24.7033C5.78769 24.6265 5.88975 24.5677 6.00024 24.5304C6.22371 24.5198 6.43754 24.4363 6.609 24.2925C6.91593 24.0981 6.86478 23.4229 7.50167 23.1518C7.69135 23.0895 7.8775 23.0169 8.05927 22.9343C8.14623 22.8806 8.28436 22.7937 8.36365 22.1875C8.38922 21.9854 8.41224 21.2692 8.42248 20.9316L8.46084 20.0619L8.42503 20.1131L8.45061 19.2537V19.1079C8.44396 18.7726 8.39234 18.4396 8.29714 18.118C8.27381 18.0421 8.2341 17.9723 8.18083 17.9135C8.12755 17.8546 8.06201 17.8082 7.98883 17.7775C7.91564 17.7467 7.8366 17.7324 7.75729 17.7356C7.67797 17.7387 7.60032 17.7593 7.52981 17.7957C7.52981 17.7957 7.08219 18.6986 6.52971 18.581C6.46506 18.5852 6.40248 18.6054 6.34757 18.6398C6.29266 18.6742 6.24714 18.7216 6.2151 18.7779C6.2151 18.7779 5.79562 19.2051 5.47845 19.1258C5.47845 19.1258 4.84412 19.1642 4.61136 19.5606L4.52184 19.7166C4.52184 19.7166 3.86193 20.1131 3.90029 19.6399C3.90029 19.6399 4.43999 17.9108 5.26871 17.476L6.05651 16.7649C6.05651 16.7649 6.49901 15.8723 6.22277 15.8339L5.19965 16.0436C5.19965 16.0436 5.23802 15.4374 6.22277 15.2763C6.46227 15.1818 6.67925 15.038 6.85966 14.8543C6.85966 14.8543 7.45051 14.4604 7.25356 14.1458C7.25356 14.1458 7.05661 14.0255 6.78037 14.2634C6.78037 14.2634 4.62926 15.1459 4.61136 14.8543C4.59857 14.688 5.24314 14.6957 5.31987 14.4987C5.31987 14.4987 5.31987 14.0665 5.04363 14.2634C5.04363 14.2634 4.80831 14.1048 5.12292 14.0255C5.12292 14.0255 5.47845 13.867 5.55774 13.7109C5.55774 13.7109 5.79306 13.4731 5.99257 13.5524C5.99257 13.5524 6.42484 13.5523 6.46576 13.317H7.09754C7.09754 13.317 7.3303 12.6162 7.17171 12.3783L6.8571 12.299C6.82735 12.2657 6.7909 12.239 6.75012 12.2208C6.70935 12.2025 6.66518 12.1931 6.62051 12.1931C6.57584 12.1931 6.53167 12.2025 6.49089 12.2208C6.45012 12.239 6.41366 12.2657 6.38391 12.299L5.43753 12.3783C5.43753 12.3783 5.35824 11.9435 6.61923 11.6289C6.75161 11.5841 6.87297 11.5116 6.97526 11.4164C7.07756 11.3211 7.15847 11.2053 7.21264 11.0764C7.21264 11.0764 8.00044 10.2886 7.7242 10.0533C7.7242 10.0533 7.68583 9.65939 6.97476 9.93563C6.97476 9.93563 5.12036 10.3705 4.88504 10.3295C4.88504 10.3295 4.45022 9.81797 5.35824 9.42151C5.35824 9.42151 6.10767 9.1069 6.30462 8.713C6.30462 8.713 7.72931 8.02751 7.8879 8.02751C7.8879 8.02751 8.39946 7.75127 7.65002 7.47503C7.60709 7.41585 7.55075 7.36769 7.48562 7.33447C7.42049 7.30126 7.34841 7.28395 7.2753 7.28395C7.20219 7.28395 7.13012 7.30126 7.06499 7.33447C6.99986 7.36769 6.94352 7.41585 6.90059 7.47503C6.90059 7.47503 5.87747 8.14773 5.5603 7.98658C5.5603 7.98658 5.40172 7.828 5.71633 7.51339C5.84968 7.22659 6.05362 6.9783 6.30904 6.79177C6.56447 6.60523 6.86305 6.48654 7.17683 6.44679C7.17683 6.44679 8.45573 6.06312 8.19995 5.08604C8.19995 5.08604 7.90836 4.91212 7.15892 5.35973C7.15892 5.35973 6.31997 5.08349 7.27147 4.66145L7.55538 4.27522C7.55538 4.27522 7.26635 4.47985 7.22287 4.27522C7.19985 4.1678 7.19218 4.01944 7.47865 3.86597C7.86488 3.6767 7.77535 3.50277 8.23064 3.4823C8.24897 3.45474 8.2606 3.42326 8.2646 3.3904C8.26859 3.35753 8.26485 3.32419 8.25366 3.29303C7.81372 3.24187 7.60398 2.68683 8.37388 2.35176L8.45061 2.02692L8.12066 2.05761C8.12066 2.05761 7.84186 1.54606 8.37644 1.56652C8.53552 1.39592 8.64977 1.18851 8.70895 0.962878C8.70895 0.962878 8.57339 0.75058 8.81126 0.75058C8.81126 0.75058 8.96984 0.68152 8.89055 1.0345C8.94821 1.16095 8.9812 1.29724 8.98775 1.43607C8.98775 1.43607 8.888 1.66116 9.46606 1.79416C9.52744 1.80951 9.53 2.22131 9.1361 2.18039C9.1361 2.18039 9.00821 2.43617 9.37909 2.73287C9.37909 2.73287 9.99552 3.30582 9.43792 3.33651C9.43792 3.33651 10.2973 3.88644 10.0492 4.13199C9.94181 4.23941 9.60929 4.0885 9.5786 4.14989C9.54791 4.21128 9.55046 4.28545 9.66812 4.33405C9.78578 4.38265 10.3843 4.53356 10.5557 5.02466C10.5557 5.02466 10.4662 5.28044 10.0262 5.23695C10.0262 5.23695 9.19749 4.93258 9.31515 5.68457C9.31515 5.68457 9.41234 6.06312 10.2411 6.37773C10.2411 6.37773 12.2566 7.14507 11.9011 7.49549C11.8064 7.59268 10.1106 7.28575 9.80624 7.28575L9.76532 7.52362C9.76532 7.52362 10.2411 7.40341 10.2411 7.83824L10.4329 8.04797C10.4329 8.04797 10.7475 8.04797 10.7884 8.20655C10.7884 8.20655 11.3 8.0889 11.4995 8.44443C11.4995 8.44443 11.6965 8.83833 11.8525 8.79741C12.0623 8.92287 12.2309 9.10683 12.3377 9.32674C12.4445 9.54664 12.4847 9.79292 12.4536 10.0354C12.4126 10.1019 11.4893 9.86401 11.1747 9.96376C11.0317 9.88246 10.871 9.83766 10.7066 9.83331C10.7066 9.83331 10.2641 9.29618 9.83182 9.50848C9.76694 9.79473 9.76694 10.0919 9.83182 10.3781C10.0578 10.8001 10.4177 11.1348 10.8549 11.3296C11.3512 11.5496 11.5634 11.8821 11.5711 11.9947C11.5711 12.1481 11.1465 12.0995 11.0775 12.0842C11.0084 12.0688 9.79857 11.9563 9.79857 11.9563C9.80813 12.0529 9.83138 12.1476 9.86763 12.2376C10.0978 12.8387 10.571 13.005 11.3409 13.4833C11.3409 13.4833 12.9574 13.6035 12.2873 14.1151C12.2873 14.1151 11.919 14.4015 11.8806 14.5601C11.786 14.6252 11.6722 14.6566 11.5576 14.6491C11.443 14.6417 11.3343 14.5959 11.2488 14.5192C11.2488 14.5192 10.0774 13.7519 9.99808 14.2634C9.99808 14.2634 9.63999 14.7443 10.6247 15.4937C10.9647 15.7072 11.3621 15.8108 11.763 15.7904C11.763 15.7904 12.6019 15.9413 11.8908 16.4938C11.8908 16.4938 11.4969 16.8494 12.0904 17.0054C12.0904 17.0054 13.0751 17.164 13.313 18.8598C13.313 18.8598 13.4716 19.3713 12.6403 18.9007C12.6403 18.9007 11.6939 18.1487 11.2616 18.1896L10.3127 18.1487C10.0936 18.1363 9.88407 18.0548 9.71416 17.916C9.71416 17.916 9.45838 17.7113 9.43025 18.0541" fill="#00684E"/>
</g>
</g>
</g>
<g id="Group 7281">
<path id="Vector_6" d="M36.1819 12.3001C34.2505 12.3001 34.0985 10.8296 34.0985 10.3997C34.0985 9.88415 34.2149 8.92916 35.4692 8.46829C36.7236 8.00742 36.992 7.95516 37.8852 7.67484V7.45865C37.9113 7.19023 37.878 6.91936 37.7878 6.6652C37.6334 6.1687 37.1464 5.83611 36.4694 5.83611C36.1693 5.83254 35.8743 5.91441 35.619 6.07215C35.3637 6.22989 35.1585 6.457 35.0274 6.72697L34.6758 6.50841C34.892 5.71496 35.7139 4.9215 37.1203 4.9215C38.0943 4.9215 38.7832 5.20182 39.1681 5.81473C39.465 6.31123 39.5006 6.97878 39.5006 7.65583C39.5006 8.26874 39.465 8.94341 39.465 9.49455C39.465 9.85565 39.4294 10.2072 39.4294 10.4068C39.4294 10.9009 39.5292 11.2976 39.9259 11.2976C40.1064 11.2976 40.1421 11.2359 40.287 11.1456L40.5032 11.4259C40.1421 11.92 39.7097 12.3168 38.997 12.3168C38.758 12.3323 38.5204 12.2695 38.3202 12.1379C38.12 12.0063 37.9682 11.8131 37.8876 11.5875C37.6524 11.9034 37.0656 12.3001 36.1819 12.3001ZM37.8852 8.55619C37.3506 8.69284 36.8321 8.88637 36.3387 9.13346C35.904 9.34964 35.7234 9.74637 35.7234 10.2619C35.7234 10.6586 35.8778 11.2976 36.7972 11.2976C37.1981 11.3017 37.591 11.1858 37.9256 10.9651V8.54668H37.8971L37.8852 8.55619ZM21.9473 11.9201C21.9473 11.2074 21.9473 10.604 21.8855 9.87465H22.3226C22.3081 10.0568 22.3302 10.24 22.3878 10.4134C22.4453 10.5868 22.5371 10.747 22.6576 10.8843C22.9545 11.2169 23.6672 11.433 24.3062 11.433C25.6508 11.433 26.2923 10.9199 26.2923 9.81051C26.2923 8.86027 25.715 8.46591 24.9215 7.91002L24.8027 7.81024L23.9452 7.23297C22.7573 6.43952 22.1421 5.82661 22.1421 4.57229C22.1421 3.95938 22.3796 1.93774 25.3539 1.93774C26.1321 1.95051 26.9088 2.01081 27.6796 2.11828C27.6796 2.21806 27.644 2.66943 27.644 3.06853C27.644 3.5294 27.644 3.6458 27.6796 4.19694H27.3114C27.3232 4.01276 27.2975 3.8281 27.2358 3.65414C27.1742 3.48019 27.0778 3.32056 26.9527 3.18493C26.6724 2.90699 26.0404 2.75257 25.3634 2.75257C23.7765 2.75257 23.5959 3.54602 23.5959 4.15893C23.5959 4.9904 24.0283 5.28735 24.9667 5.90025L26.0404 6.61294C26.9527 7.22584 27.8079 7.80074 27.8079 9.33776C27.8079 11.9082 25.3919 12.1885 24.3823 12.1885C23.5608 12.2941 22.726 12.2021 21.9473 11.9201ZM41.1612 5.39187C41.6441 5.42071 42.1288 5.38718 42.6032 5.2921C42.9306 5.23134 43.2497 5.13164 43.5534 4.99515L43.7055 5.09255V5.62943C44.3065 5.18052 45.0388 4.94253 45.7889 4.95238C47.0788 4.95238 47.9103 5.56529 48.1431 6.63907C48.212 7.06555 48.2454 7.49702 48.2429 7.92902V10.0124C48.2429 11.1765 48.307 11.5186 48.5232 11.7276C48.7296 11.8779 48.9808 11.9541 49.2359 11.9438V12.2811C48.775 12.2455 47.9459 12.2194 47.4684 12.2194C46.827 12.2194 46.0953 12.255 45.6986 12.2811V11.9486C45.9526 11.9319 46.1981 11.8501 46.4113 11.711C46.6275 11.4948 46.6489 11.0981 46.6916 10.2049C46.6916 9.92692 46.7273 9.37577 46.7273 8.97905C46.7368 8.43668 46.7162 7.8942 46.6655 7.35413C46.5657 6.44427 46.0882 6.01191 45.1593 6.01191C44.6939 6.00236 44.2329 6.10417 43.8148 6.30886V10.0433C43.8148 11.2074 43.8765 11.5495 44.0951 11.7561C44.2921 11.8964 44.5279 11.9719 44.7697 11.9723V12.3073C44.1925 12.2716 43.4798 12.2431 43.0308 12.2431C42.0806 12.2431 41.7765 12.2788 41.2253 12.3073V11.9486C41.3665 11.9519 41.5069 11.9274 41.6386 11.8765C41.7702 11.8255 41.8906 11.7491 41.9927 11.6516C42.2088 11.414 42.2302 10.794 42.2302 9.60383V7.48241C42.2302 6.59156 42.1946 6.23046 42.0782 6.04041C41.9784 5.886 41.7432 5.76009 41.2491 5.76009V5.36337H41.185V5.39187H41.1612ZM50.008 11.9129C50.1496 11.9208 50.2913 11.8984 50.4237 11.8472C50.556 11.796 50.6759 11.7172 50.7753 11.616C50.9915 11.3784 51.0128 10.7584 51.0128 9.5682V6.00478H50.1172V5.60806C50.446 5.49264 50.754 5.32499 51.0295 5.11155C51.0224 4.47608 51.0613 3.84092 51.1459 3.21107C51.4262 1.74136 52.3764 1.00729 53.9966 1.00887C54.6438 1.00402 55.2756 1.2063 55.7997 1.58615L55.8353 1.74056L55.1227 2.71456H54.9445C54.7069 2.13729 54.3292 1.8047 53.6902 1.8047C53.432 1.79759 53.1797 1.88171 52.9775 2.04226C52.6805 2.33921 52.6164 2.80959 52.6164 3.72895V5.09967H54.2033V5.9929H52.6164V9.94354C52.6164 10.8938 52.652 11.3499 52.7684 11.5304C52.949 11.8298 53.5999 11.8654 53.8968 11.8654V12.2265C53.3837 12.1909 52.5522 12.1624 51.9678 12.1624C51.0746 12.1624 50.4973 12.198 50.0365 12.2265V11.9105L50.008 11.9129ZM58.2086 12.3643C56.042 12.3643 54.7521 11.0197 54.7521 8.75574C54.7521 6.98828 55.7023 4.931 58.3606 4.931C60.5248 4.931 61.8147 6.2756 61.8147 8.53956C61.8147 10.2975 60.8597 12.3548 58.2086 12.3548V12.3643ZM58.2988 5.75297C57.9318 5.73345 57.5707 5.85211 57.2868 6.08555C56.7096 6.58205 56.4316 7.43015 56.4316 8.68447C56.4316 9.1786 56.529 11.5613 58.2703 11.5613C58.637 11.58 58.9972 11.4605 59.28 11.2264C59.8572 10.7299 60.1376 9.88415 60.1376 8.62983C60.1281 8.13333 60.0473 5.74346 58.2988 5.74346V5.75297ZM62.5464 5.35624C63.0694 5.37261 63.5927 5.33279 64.1072 5.23746C64.4047 5.21271 64.6948 5.13211 64.9624 4.9999L65.0812 5.06166V5.67457C65.2984 5.4589 65.5561 5.28827 65.8394 5.17249C66.1228 5.05671 66.4262 4.99806 66.7323 4.9999C67.1891 4.98117 67.6363 5.13558 67.9842 5.43226V5.62943L67.3713 6.73884H67.0743C66.8692 6.42514 66.5487 6.20486 66.1824 6.12572C65.816 6.04657 65.4332 6.11493 65.1168 6.31599V9.96017C65.1168 10.9104 65.1525 11.3309 65.2689 11.5186C65.4494 11.8179 66.0647 11.8535 66.3973 11.8179V12.2146C65.9008 12.179 65.0527 12.1505 64.4683 12.1505C63.8238 12.1378 63.1791 12.1592 62.5369 12.2146V11.8535C62.9337 11.8179 63.1498 11.7348 63.3043 11.5566C63.5204 11.319 63.5418 10.7251 63.5418 9.50881V7.52992C63.5418 6.63669 63.5418 6.27797 63.3898 6.08793C63.271 5.93351 63.0287 5.85036 62.5583 5.85036V5.39187L62.5417 5.35624H62.5464ZM72.5573 1.44123C73.1239 1.40967 73.6876 1.33742 74.2439 1.22506C74.5026 1.17797 74.7587 1.11771 75.0113 1.04451L75.1277 1.10628C75.0659 1.68355 75.0659 3.00676 75.0659 3.95701V9.76537C75.0659 10.623 75.0659 11.1741 75.1823 11.3547C75.2987 11.5352 75.5434 11.6326 76.0114 11.6326V11.9937C75.5005 12.0048 74.9913 12.0565 74.4886 12.1481C74.2191 12.1836 73.9535 12.244 73.6952 12.3287L73.5146 12.2645V11.6516C72.9465 12.0921 72.2475 12.3304 71.5286 12.3287C69.5735 12.3287 68.3192 10.9841 68.3192 8.87452C68.3086 8.21301 68.4314 7.55616 68.6803 6.94315C69.2932 5.65319 70.519 4.92388 72.0703 4.92388C72.5297 4.92277 72.9883 4.96172 73.441 5.04028V3.51514C73.441 2.62191 73.441 2.17055 73.2889 1.95437C73.1892 1.79995 73.0514 1.73819 72.5216 1.71681V1.42936H72.5573V1.44123ZM72.3054 11.3071C72.7129 11.3378 73.1198 11.2407 73.4695 11.0292V6.2661C73.2793 6.09418 73.0568 5.96176 72.8149 5.87653C72.5731 5.7913 72.3167 5.75495 72.0607 5.76959C70.69 5.76959 70.0154 6.71984 70.0154 8.6821C69.9868 9.50406 70.2315 11.3071 72.3054 11.3071ZM33.3953 11.5233C33.1768 11.8036 32.628 12.3548 31.464 12.3548C30.3545 12.3548 29.7511 11.9581 29.4803 11.0648C29.3615 10.7299 29.3615 10.0267 29.3615 9.62046C29.3615 8.49442 29.3615 7.57268 29.3996 6.50128V6.00478H28.4493V5.72446C28.7682 5.60029 29.0687 5.43326 29.3425 5.22796C29.9028 4.76162 30.3523 4.17657 30.6586 3.51514H30.958V5.10205H33.3668V5.99528H30.9508V9.72974C30.9508 10.8558 31.167 11.4711 32.2028 11.4711C32.5608 11.4826 32.9138 11.3848 33.2148 11.1907L33.3953 11.5233Z" fill="#8C1515"/>
<path id="Vector_7" d="M67.3 18.2022C67.1697 18.1976 67.042 18.2388 66.9389 18.3186C66.9035 18.3415 66.8754 18.374 66.8578 18.4123C66.8401 18.4505 66.8336 18.493 66.8391 18.5348C66.8532 18.6936 66.8925 18.8492 66.9555 18.9956L67.6325 20.7631C67.7323 21.0434 67.8131 21.2596 67.8487 21.4045L68.6802 18.9861C68.7484 18.8423 68.788 18.6866 68.7966 18.5276C68.7934 18.4923 68.7828 18.458 68.7657 18.4269C68.7485 18.3958 68.725 18.3687 68.6968 18.3471C68.5908 18.2727 68.4652 18.2314 68.3357 18.2283V17.9504C68.469 17.9444 68.6024 17.9564 68.7325 17.986C68.8322 17.986 69.0128 18.0216 69.1672 18.0216C69.4641 18.0216 69.8965 17.986 70.077 17.986V18.2663C69.9606 18.302 69.6803 18.2283 69.438 18.941L67.6967 23.5877C67.4591 24.2624 67.1194 25.0938 65.9292 25.0938C65.5267 25.1207 65.1294 24.9913 64.8198 24.7327V24.6163L65.2522 24.1008H65.3686C65.4291 24.2347 65.531 24.3456 65.6593 24.417C65.7877 24.4885 65.9356 24.5167 66.0813 24.4976C66.6324 24.4976 66.8747 24.0011 67.2453 23.0271L67.3451 22.7491L65.8841 18.9363C65.8711 18.8817 65.8495 18.8295 65.82 18.7818C65.7843 18.6821 65.7036 18.5015 65.7036 18.5015C65.6626 18.4234 65.5995 18.3592 65.5221 18.3169C65.4448 18.2747 65.3566 18.2562 65.2688 18.264V17.986C65.6053 18.0151 65.9431 18.027 66.2808 18.0216C66.4944 18.0252 66.708 18.0133 66.9199 17.986C67.0386 17.986 67.2548 17.9504 67.3546 17.9504V18.1879H67.3166V18.2069L67.3 18.2022ZM51.1007 18.1381C51.4284 18.1534 51.7565 18.1205 52.0747 18.0407C52.2621 18.0067 52.4458 17.955 52.6234 17.8862L52.7232 17.9219V18.3186C52.8579 18.1799 53.0194 18.07 53.1978 17.9957C53.3763 17.9214 53.568 17.8841 53.7614 17.8862C54.0523 17.8726 54.337 17.9732 54.5548 18.1666V18.3186L54.1937 19.0313H54.0132C53.9382 18.8973 53.8255 18.7882 53.6891 18.7177C53.5527 18.6472 53.3986 18.6183 53.2459 18.6346C53.0697 18.6416 52.8984 18.6948 52.7494 18.789V21.0886C52.7494 21.7015 52.7874 21.9818 52.8491 22.0982C52.9679 22.2787 53.3456 22.3144 53.5618 22.3144V22.5519C53.2649 22.5163 52.7066 22.5163 52.336 22.5163C51.9256 22.5035 51.5148 22.5241 51.1078 22.5781V22.3405C51.2898 22.3431 51.4665 22.2789 51.6043 22.16C51.7587 22.0055 51.7587 21.6444 51.7587 20.8415V19.5539C51.7587 19.0028 51.7587 18.7581 51.6589 18.6417C51.5972 18.5419 51.4214 18.4873 51.1458 18.4873V18.1547H51.1007V18.1357V18.1381ZM30.7322 22.5757C29.4446 22.5757 28.6868 22.179 28.4065 21.3237C28.2791 20.8656 28.2269 20.3898 28.2521 19.915V17.4705C28.2521 16.7412 28.2164 16.6153 28.0715 16.4965C27.9431 16.4091 27.7941 16.3567 27.6392 16.3445V16.1069C28.014 16.1473 28.3906 16.1687 28.7676 16.171C29.1568 16.187 29.5466 16.1656 29.9316 16.1069V16.3872C29.7489 16.3801 29.5706 16.4449 29.4351 16.5678C29.2807 16.7222 29.2807 17.0001 29.2807 17.7936V19.9601C29.2807 21.2501 29.3995 22.0792 30.8415 22.0792C32.2835 22.0792 32.4023 21.2216 32.4023 19.915V17.5394C32.4023 16.8101 32.3666 16.6842 32.2217 16.5654C32.0878 16.4894 31.9414 16.4379 31.7893 16.4134V16.1758C32.0673 16.1758 32.4284 16.2114 32.799 16.2114C33.158 16.2199 33.5171 16.1992 33.8728 16.1497V16.4276C33.6902 16.422 33.5125 16.4866 33.3763 16.6082C33.2218 16.7626 33.2218 17.0429 33.2218 17.8363V19.6489C33.2547 20.2353 33.1937 20.8231 33.0413 21.3903C32.7538 22.179 32.015 22.5757 30.7322 22.5757ZM39.4554 22.2977C39.6418 22.2962 39.8223 22.2327 39.9686 22.1172C40.123 21.9628 40.123 21.6017 40.123 20.7987V19.5112C40.123 18.96 40.123 18.6797 40.0232 18.5609C39.9614 18.4611 39.8427 18.4065 39.5101 18.3804V18.1C39.8581 18.1086 40.2059 18.0751 40.5458 18.0003C40.7156 17.9648 40.8818 17.9139 41.0423 17.8482L41.1421 17.948C41.1065 18.2449 41.1065 18.8982 41.1065 19.7511V21.0743C41.1065 21.6896 41.1421 21.9675 41.2063 22.0863C41.2762 22.1605 41.3617 22.2183 41.4565 22.2556C41.5514 22.293 41.6533 22.309 41.755 22.3025V22.5187C41.3862 22.4863 41.0158 22.4744 40.6456 22.483C40.1871 22.483 39.6954 22.5187 39.4578 22.5448V22.3072L39.4554 22.2977ZM40.5839 17.0714C40.5084 17.0791 40.4322 17.0703 40.3604 17.0457C40.2887 17.0211 40.2231 16.9812 40.1683 16.9288C40.1134 16.8764 40.0705 16.8128 40.0426 16.7423C40.0147 16.6717 40.0024 16.596 40.0066 16.5203C40.0044 16.441 40.0188 16.3621 40.049 16.2888C40.0791 16.2154 40.1243 16.1492 40.1816 16.0944C40.2389 16.0395 40.307 15.9973 40.3816 15.9704C40.4562 15.9435 40.5356 15.9326 40.6147 15.9382C40.6902 15.9306 40.7664 15.9393 40.8382 15.964C40.9099 15.9886 40.9755 16.0284 41.0303 16.0808C41.0852 16.1332 41.1281 16.1968 41.156 16.2674C41.1839 16.3379 41.1962 16.4136 41.192 16.4894C41.1939 16.5684 41.1792 16.6469 41.1489 16.7198C41.1186 16.7928 41.0733 16.8586 41.016 16.913C40.9587 16.9673 40.8907 17.0091 40.8162 17.0356C40.7418 17.0621 40.6626 17.0726 40.5839 17.0666V17.0714ZM58.7929 22.2977C58.9799 22.2957 59.161 22.2323 59.3084 22.1172C59.4604 21.9628 59.4604 21.6017 59.4604 20.7987V19.5112C59.4604 18.96 59.4604 18.6797 59.363 18.5609C59.2656 18.4421 59.1825 18.4065 58.8475 18.3804V18.1C59.1963 18.1085 59.5449 18.075 59.8857 18.0003C60.0567 17.9699 60.2235 17.9189 60.3822 17.8482L60.4796 17.948C60.444 18.2449 60.444 18.8982 60.444 19.7511V21.0743C60.444 21.6896 60.4796 21.9675 60.5437 22.0863C60.6147 22.1597 60.7007 22.217 60.7958 22.2543C60.8909 22.2916 60.9929 22.3081 61.0949 22.3025V22.5187C60.7196 22.487 60.343 22.4752 59.9665 22.483C59.5056 22.483 59.0162 22.5187 58.7787 22.5448V22.3072L58.7929 22.2977ZM59.9213 17.0714C59.8459 17.0791 59.7696 17.0703 59.6979 17.0457C59.6261 17.0211 59.5606 16.9812 59.5057 16.9288C59.4509 16.8764 59.408 16.8128 59.3801 16.7423C59.3522 16.6717 59.3399 16.596 59.344 16.5203C59.3425 16.4409 59.3575 16.3622 59.3882 16.2891C59.419 16.2159 59.4647 16.15 59.5224 16.0956C59.5802 16.0413 59.6487 15.9996 59.7235 15.9733C59.7984 15.947 59.8779 15.9367 59.957 15.943C60.0324 15.9353 60.1086 15.9441 60.1804 15.9687C60.2521 15.9933 60.3177 16.0332 60.3725 16.0856C60.4274 16.1379 60.4703 16.2016 60.4982 16.2721C60.5261 16.3427 60.5384 16.4184 60.5342 16.4941C60.5363 16.5734 60.5215 16.6521 60.4908 16.7252C60.4602 16.7983 60.4144 16.8641 60.3565 16.9182C60.2986 16.9723 60.2298 17.0135 60.1548 17.0391C60.0798 17.0647 60.0002 17.0741 59.9213 17.0666V17.0714ZM55.087 22.3643C55.0858 21.9675 55.0644 21.571 55.0228 21.1765H55.3221C55.307 21.3848 55.3715 21.5911 55.5027 21.7537C55.6809 21.9699 55.8994 22.0507 56.2961 22.0507H56.3579C56.8544 22.0507 57.1252 21.8345 57.1252 21.4116C57.1252 21.0767 56.909 20.9151 56.548 20.699L55.9065 20.3022C55.574 20.086 55.1772 19.7867 55.1772 19.1382C55.1629 18.9084 55.2157 18.6794 55.3292 18.4791C55.4426 18.2787 55.6118 18.1157 55.8163 18.0098C56.1052 17.8919 56.4169 17.8399 56.7285 17.8577C57.1268 17.8664 57.5239 17.9053 57.9163 17.9741C57.8868 18.1563 57.8749 18.3408 57.8807 18.5253C57.8748 18.7302 57.8867 18.9353 57.9163 19.1382H57.6194C57.6171 18.952 57.5537 18.7716 57.4388 18.625C57.3401 18.5366 57.2241 18.4698 57.0981 18.4289C56.9721 18.388 56.8389 18.3739 56.7071 18.3875C56.2486 18.3875 55.9944 18.568 55.9944 18.9648C55.9944 19.2617 56.232 19.4256 56.4553 19.5777H56.4909L57.1038 19.9388C57.5006 20.1763 58.0161 20.4899 58.0161 21.1931C58.0161 22.3809 56.9067 22.5638 56.2748 22.5638C55.8703 22.5614 55.469 22.4923 55.087 22.3595V22.3643ZM64.6915 22.0673C64.5372 22.2373 64.3474 22.3713 64.1356 22.4599C63.9238 22.5486 63.6951 22.5897 63.4657 22.5804C62.753 22.5804 62.3563 22.3429 62.2114 21.7514C62.1596 21.451 62.1389 21.1461 62.1496 20.8415V18.5585H61.5367V18.378C61.7386 18.2984 61.9319 18.199 62.114 18.081C62.4663 17.7683 62.7565 17.3919 62.9692 16.9716H63.183V17.986H64.7082V18.5372H63.183V20.9128C63.183 21.6254 63.3018 22.0412 63.9789 22.0412C64.2047 22.043 64.4264 21.9803 64.6179 21.8606L64.6915 22.0673ZM44.0024 17.9623C43.8564 17.9575 43.7105 17.9702 43.5676 18.0003C43.3301 18.0003 43.0735 18.0359 42.8929 18.0359C42.558 18.0359 42.0615 18.0003 41.9189 18.0003V18.2782C42.0156 18.2676 42.1131 18.2894 42.196 18.3401C42.279 18.3909 42.3428 18.4677 42.3774 18.5585C42.4269 18.6475 42.4667 18.7414 42.4962 18.8389C42.5276 18.8844 42.5487 18.9363 42.558 18.9909L44.0285 22.6636L44.4894 22.5638L46.1119 18.9553C46.1119 18.9196 46.1475 18.8935 46.176 18.8389C46.2045 18.7842 46.2117 18.7391 46.3281 18.5585C46.3744 18.4762 46.4412 18.4072 46.5219 18.3581C46.6026 18.309 46.6945 18.2815 46.7889 18.2782V17.986C46.6084 17.986 46.2117 18.0216 45.8957 18.0216C45.7412 18.0272 45.5866 18.0152 45.4349 17.986C45.3184 17.986 45.1379 17.948 45.0025 17.948V18.1856C45.132 18.1858 45.2583 18.2265 45.3636 18.302C45.4148 18.3503 45.4496 18.4134 45.4634 18.4825C45.4416 18.6402 45.4018 18.7948 45.3446 18.9434L44.4513 21.1076C44.4157 20.9912 44.354 20.8106 44.2732 20.5588L43.6579 18.9339C43.5858 18.7906 43.5461 18.6333 43.5415 18.473C43.5415 18.4112 43.5415 18.3566 43.6056 18.321C43.6583 18.2703 43.7205 18.2306 43.7886 18.2041C43.8566 18.1776 43.9293 18.1648 44.0024 18.1666V17.929V17.9623ZM34.0082 18.1428C34.3128 18.1692 34.6197 18.1484 34.918 18.081C35.1268 18.0374 35.3318 17.977 35.5309 17.9005L35.6307 17.9623V18.3233C36.0108 18.0402 36.4728 17.8884 36.9468 17.891C37.7783 17.891 38.2914 18.2877 38.4553 18.9648C38.4963 19.2392 38.5169 19.5163 38.5171 19.7938V21.1123C38.5171 21.8416 38.5527 22.0626 38.6976 22.2217C38.8258 22.3052 38.9772 22.3459 39.13 22.3381V22.5543C38.833 22.5543 38.3009 22.5187 38.0039 22.5187C37.5692 22.5187 37.1107 22.5543 36.8755 22.5804V22.3643C37.0367 22.3403 37.1926 22.2889 37.3364 22.2122C37.4528 22.0934 37.4884 21.8155 37.5169 21.262V20.4685C37.523 20.1221 37.5111 19.7756 37.4813 19.4304C37.4172 18.8531 37.1202 18.5752 36.5311 18.5752C36.2354 18.5713 35.9425 18.6329 35.6735 18.7557V21.1551C35.6735 21.8844 35.7091 22.1053 35.854 22.2645C35.9822 22.348 36.1336 22.3887 36.2864 22.3809V22.5971C35.9051 22.519 35.516 22.4863 35.1271 22.4997C34.7497 22.4796 34.3713 22.5011 33.9987 22.5638V22.3476C34.1812 22.3533 34.3589 22.2887 34.4952 22.1671C34.6116 22.0127 34.6472 21.6159 34.6472 20.8486V19.561C34.6472 19.0099 34.6472 18.7652 34.5498 18.6488C34.4524 18.5324 34.3313 18.4683 34.0343 18.4944V18.1523H34.0082V18.1428ZM48.8724 22.5804C47.5016 22.5804 46.7533 21.787 46.7533 20.345C46.7533 20.1074 46.8151 17.8649 48.8914 17.8649C49.5066 17.8649 50.0554 18.1024 50.3001 18.5395C50.5214 18.9093 50.625 19.3377 50.5971 19.7677V20.048H47.7463C47.748 20.2421 47.7695 20.4356 47.8105 20.6253C47.9625 21.5162 48.4495 21.9414 49.3166 21.9414C49.695 21.9625 50.0706 21.8645 50.3904 21.6611L50.5068 21.8773C50.2241 22.2787 49.6112 22.5757 48.8724 22.5757V22.5804ZM47.7725 19.523H49.5399C49.5399 18.9743 49.4401 18.3614 48.6467 18.3614C47.953 18.3922 47.8081 19.0503 47.7725 19.5183V19.523Z" fill="#8C1515"/>
</g>
</g>
</svg>
