<svg width="21" height="22" viewBox="0 0 21 22" fill="none" xmlns="http://www.w3.org/2000/svg">
<g id="Group">
<path id="Vector" d="M19.1616 6C17.4325 3.01108 14.2011 1 10.4998 1C6.79839 1 3.56698 3.01108 1.83789 6" stroke="black" stroke-miterlimit="10" stroke-linejoin="round"/>
<path id="Vector_2" d="M1.83789 16C3.56698 18.9889 6.79839 21 10.4998 21C14.2011 21 17.4325 18.9889 19.1616 16" stroke="black" stroke-miterlimit="10" stroke-linejoin="round"/>
<path id="Vector_3" d="M20.5 6H0.5V16H20.5V6Z" stroke="black" stroke-miterlimit="10" stroke-linejoin="round"/>
<path id="Vector_4" d="M7.18848 13.5001C6.4981 13.5001 5.93848 12.9405 5.93848 12.2501V9.75009C5.93848 9.05972 6.4981 8.50009 7.18848 8.50009C7.87885 8.50009 8.43848 9.05972 8.43848 9.75009V12.2501C8.43848 12.9404 7.87881 13.5001 7.18848 13.5001Z" stroke="black" stroke-miterlimit="10" stroke-linejoin="round"/>
<path id="Vector_5" d="M11.75 13.5001C11.0596 13.5001 10.5 12.9405 10.5 12.2501V9.75009C10.5 9.05972 11.0596 8.50009 11.75 8.50009C12.4404 8.50009 13 9.05972 13 9.75009V12.2501C13 12.9404 12.4404 13.5001 11.75 13.5001Z" stroke="black" stroke-miterlimit="10" stroke-linejoin="round"/>
<path id="Vector_6" d="M14.5645 9.75H15.8093" stroke="black" stroke-miterlimit="10" stroke-linejoin="round"/>
<path id="Vector_7" d="M17.0645 12.25H18.3093" stroke="black" stroke-miterlimit="10" stroke-linejoin="round"/>
<path id="Vector_8" d="M15 12.4364L17.8728 9.56372" stroke="black" stroke-miterlimit="10" stroke-linejoin="round"/>
<path id="Vector_9" d="M3.93652 14.1225V8.49991H2.68652" stroke="black" stroke-miterlimit="10" stroke-linejoin="round"/>
</g>
</svg>
