<svg width="13" height="20" viewBox="0 0 13 20" fill="none" xmlns="http://www.w3.org/2000/svg">
<g id="Group">
<path id="Vector" d="M12.2638 1.57529L10.4972 1.69681C10.1272 1.72228 9.7826 1.86028 9.50149 2.09085L8.94049 0L7.23504 0.457527C6.52878 0.646973 6.03723 1.24152 5.94314 1.92416L4.78492 0.295352L3.34591 1.31859C2.55242 1.8828 2.36588 2.98738 2.93013 3.78087L4.74035 6.32662L0 11.067L0.538673 11.6056H0.243792V16.3618L2.01947 18.1387C3.21893 19.339 4.814 20 6.51081 20C10.0119 20 12.8603 17.1516 12.8603 13.6505V11.1675L12.2638 1.57529ZM10.1746 3.07171C10.2778 2.95317 10.4211 2.88195 10.5779 2.8712L11.1601 2.83113L11.583 9.84934L10.0835 4.26022L10.0311 3.49875C10.0203 3.34191 10.0712 3.19029 10.1746 3.07171ZM7.54009 1.59448L8.10858 1.44195L9.62839 7.10681L7.67111 4.35423L7.12412 2.31545C7.04003 2.00201 7.22665 1.67857 7.54009 1.59448ZM4.02808 2.27798L4.50774 1.93692L9.64036 9.15497L7.04038 7.52992L3.88949 3.09874C3.70142 2.83419 3.76357 2.46605 4.02808 2.27798ZM11.6831 13.6505C11.6831 16.5026 9.36282 18.8228 6.51081 18.8228C5.12858 18.8228 3.82922 18.2843 2.85217 17.3066L1.42096 15.8744V12.7828H2.00955C2.33409 12.7828 2.59813 13.0468 2.59813 13.3714V15.3866L3.4165 16.205C3.75003 16.5386 4.19343 16.7222 4.66509 16.7222C5.13674 16.7222 5.58014 16.5385 5.91363 16.205L8.09473 14.0239C8.78318 13.3355 8.78314 12.2152 8.09469 11.5268L6.73075 10.1628C6.39721 9.82925 5.95381 9.64557 5.48216 9.64557C5.01051 9.64557 4.56707 9.82925 4.23357 10.1628L2.9133 11.4831C2.68379 11.7125 2.31039 11.7125 2.08088 11.4831L1.66471 11.0669L5.05465 7.67691L11.6831 11.8198V13.6505H11.6831ZM3.54026 12.4919C3.61211 12.4392 3.68085 12.3804 3.74572 12.3156L5.06595 10.9953C5.17712 10.8841 5.32493 10.8229 5.48216 10.8229C5.63935 10.8229 5.78716 10.8841 5.89833 10.9953L7.26232 12.3593C7.49183 12.5888 7.49183 12.9622 7.26232 13.1917L5.08122 15.3728C4.97005 15.4839 4.82224 15.5452 4.66505 15.5452C4.50782 15.5452 4.36004 15.4839 4.24888 15.3728L3.77526 14.8992V13.3714C3.7753 13.0514 3.68976 12.7509 3.54026 12.4919Z" fill="white"/>
</g>
</svg>
