<svg width="20" height="21" viewBox="0 0 20 21" fill="none" xmlns="http://www.w3.org/2000/svg">
<g id="Group">
<path id="Vector" d="M18.9737 3.9402L18.5772 2.90965L17.8819 3.76716C17.8602 3.79462 15.6612 6.47186 12.7681 6.88497C12.219 6.9635 11.7063 7.06566 11.2108 7.17996C11.3468 4.93051 10.4287 2.78451 8.47803 0.786634L7.70736 0L7.40726 1.06055C7.40024 1.0829 6.73492 3.37321 5.0448 4.40439C3.19315 5.53773 2.01384 6.79047 1.44557 8.23093C0.871515 9.59241 0.85683 11.1252 1.4047 12.4974C1.78812 13.4388 2.5311 14.1884 3.46898 14.5802C3.56081 14.6152 3.65435 14.6455 3.74928 14.6709C3.70028 15.3076 3.75639 15.9481 3.91529 16.5666C3.57114 16.5966 3.24231 16.6119 2.93456 16.6119C2.0899 16.6283 1.24783 16.513 0.438651 16.2703L0 17.4707C0.949852 17.7686 1.94188 17.9098 2.93711 17.8889C3.43163 17.8871 3.92563 17.8562 4.41652 17.7963C4.62643 18.1647 4.88406 18.5037 5.18272 18.8045C6.21686 19.7651 7.59283 20.271 9.00288 20.2092C11.1602 20.1599 13.2434 19.4133 14.9409 18.0811L15.128 17.9342C16.8839 16.5589 22.2199 12.3806 18.9737 3.9402ZM3.96382 13.4009L3.9536 13.397C3.32268 13.135 2.82521 12.6281 2.57508 11.9923C2.16057 10.931 2.18028 9.74909 2.62999 8.70214C3.09354 7.52666 4.09854 6.4776 5.70821 5.49431C6.83121 4.74271 7.71111 3.68045 8.24051 2.43716C9.4897 3.82854 10.0861 5.6867 9.88018 7.54518C8.4576 7.97888 7.15777 8.74289 6.08684 9.77483C5.07182 10.7752 4.33938 12.0261 3.96382 13.4009ZM14.3433 16.9261L14.1518 17.0774C11.555 19.134 7.71183 19.5267 6.08684 17.9017C5.97937 17.7939 5.87913 17.6791 5.78674 17.5582C8.40013 16.9631 11.5856 15.4243 14.8573 11.8902L13.92 11.0225C10.7211 14.4787 7.64542 15.891 5.18911 16.3859C5.01396 15.7894 4.96244 15.1634 5.03778 14.5464C5.2324 13.0732 5.92015 11.7093 6.98904 10.677C8.305 9.36044 10.255 8.53358 12.9488 8.1492C14.9142 7.76885 16.7178 6.80049 18.1207 5.37236C20.289 12.2701 16.0021 15.6273 14.3433 16.9261Z" fill="white"/>
<path id="Vector_2" d="M14.7441 10.087L15.7204 10.91C15.9929 10.5861 16.2657 10.2475 16.539 9.89419L15.5276 9.11458C15.2664 9.45362 15.0046 9.7767 14.7441 10.087Z" fill="white"/>
</g>
</svg>
