<svg width="19" height="20" viewBox="0 0 19 20" fill="none" xmlns="http://www.w3.org/2000/svg">
<g id="Group">
<g id="Group_2">
<path id="Vector" d="M4.09984 19.9993L0 15.4433L3.72414 11.7191H8.76828C10.1184 11.7191 11.2242 12.6241 11.5762 13.8108L14.325 11.062C15.4672 9.91976 17.3258 9.91969 18.4681 11.062L18.8639 11.4578L12.2113 18.7493H5.40602L4.09984 19.9993ZM1.61477 15.4858L4.16266 18.3172L4.93566 17.5774H11.6942L17.1831 11.5614C16.5248 11.2327 15.7017 11.3425 15.1536 11.8907L11.8096 15.2337H5.8273V14.0618H10.4254C10.1892 13.3921 9.54586 12.8899 8.76832 12.8899H4.20949L1.61477 15.4858Z" fill="white"/>
</g>
<g id="Group_3">
<path id="Vector_2" d="M9.93945 10.5469C7.03168 10.5469 4.66602 8.18121 4.66602 5.27344C4.66602 2.36566 7.03168 0 9.93945 0C12.8472 0 15.2129 2.36566 15.2129 5.27344C15.2129 8.18121 12.8473 10.5469 9.93945 10.5469ZM9.93945 1.17188C7.67785 1.17188 5.83789 3.01184 5.83789 5.27344C5.83789 7.53504 7.67785 9.375 9.93945 9.375C12.2011 9.375 14.041 7.53504 14.041 5.27344C14.041 3.01184 12.2011 1.17188 9.93945 1.17188Z" fill="white"/>
</g>
<g id="Group_4">
<path id="Vector_3" d="M12.8584 5.85938H9.34277V2.34375H10.5146V4.6875H12.8584V5.85938Z" fill="white"/>
</g>
</g>
</svg>
