<svg width="17" height="17" viewBox="0 0 17 17" fill="none" xmlns="http://www.w3.org/2000/svg">
<path d="M8.5 0.239258C8.76522 0.239258 9.01957 0.344615 9.20711 0.532151C9.39464 0.719688 9.5 0.974041 9.5 1.23926V7.23926H15.5C15.7652 7.23926 16.0196 7.34461 16.2071 7.53215C16.3946 7.71969 16.5 7.97404 16.5 8.23926C16.5 8.50447 16.3946 8.75883 16.2071 8.94637C16.0196 9.1339 15.7652 9.23926 15.5 9.23926H9.5V15.2393C9.5 15.5045 9.39464 15.7588 9.20711 15.9464C9.01957 16.1339 8.76522 16.2393 8.5 16.2393C8.23478 16.2393 7.98043 16.1339 7.79289 15.9464C7.60536 15.7588 7.5 15.5045 7.5 15.2393V9.23926H1.5C1.23478 9.23926 0.98043 9.1339 0.792893 8.94637C0.605357 8.75883 0.5 8.50447 0.5 8.23926C0.5 7.97404 0.605357 7.71969 0.792893 7.53215C0.98043 7.34461 1.23478 7.23926 1.5 7.23926H7.5V1.23926C7.5 0.974041 7.60536 0.719688 7.79289 0.532151C7.98043 0.344615 8.23478 0.239258 8.5 0.239258Z" fill="black"/>
</svg>
