<svg width="37" height="32" viewBox="0 0 37 32" fill="none" xmlns="http://www.w3.org/2000/svg">
<path fill-rule="evenodd" clip-rule="evenodd" d="M28.2642 6.08011L17.7183 24.3035C17.5824 24.5447 17.5235 24.6991 17.4915 24.9115L16.5701 30.9765C16.5213 31.3312 16.7065 31.7068 17.018 31.8847C17.3295 32.0627 17.748 32.032 18.0301 31.8106L22.9203 27.9086C23.0555 27.8062 23.1075 27.6896 23.1897 27.5552L32.6725 11.1979L33.3245 11.5797C33.5832 11.7552 33.5942 11.9332 33.4804 12.1452L29.4548 19.1009C29.2173 19.5117 29.376 20.101 29.788 20.3379C30.1999 20.5748 30.7907 20.4165 31.0282 20.0057L35.0396 13.05C35.6008 11.9781 35.7336 10.8838 34.2317 10.0104L33.5797 9.62868L33.7923 9.26111C34.4358 8.13143 34.0524 6.66069 32.9135 6.00945L31.5385 5.20361C30.2732 4.47081 28.8434 5.0273 28.2642 6.08011ZM30.6313 6.77287L32.0063 7.57872C32.3548 7.81677 32.394 8.0389 32.2189 8.35629L22.566 25.0387C22.2433 24.742 21.8654 24.4889 21.4745 24.2611C21.058 24.0183 20.6226 23.8163 20.1705 23.6814L29.8376 6.98494C30.0397 6.64098 30.2904 6.58098 30.6313 6.77287ZM19.2491 25.3638C19.5572 25.404 20.0795 25.5543 20.5532 25.8304C20.9879 26.0838 21.3626 26.4401 21.5596 26.6786L18.7105 28.9548L19.2491 25.3638Z" fill="black"/>
<path fill-rule="evenodd" clip-rule="evenodd" d="M26.4843 24.5952C26.365 24.595 26.2469 24.6183 26.1367 24.6637C26.0264 24.7091 25.9262 24.7757 25.8419 24.8598C25.7575 24.9438 25.6905 25.0436 25.6448 25.1535C25.5991 25.2634 25.5756 25.3812 25.5756 25.5002C25.5756 25.6191 25.5991 25.7369 25.6448 25.8468C25.6905 25.9567 25.7575 26.0565 25.8419 26.1405C25.9262 26.2246 26.0264 26.2912 26.1367 26.3366C26.2469 26.382 26.365 26.4053 26.4843 26.4051H35.1953C35.4357 26.4048 35.6662 26.3093 35.836 26.1396C36.0059 25.9699 36.1013 25.7399 36.1013 25.5002C36.1013 25.2604 36.0059 25.0304 35.836 24.8607C35.6662 24.6911 35.4357 24.5956 35.1953 24.5952H26.4843Z" fill="black"/>
<path fill-rule="evenodd" clip-rule="evenodd" d="M8.5473 0.00092308C8.10134 0.0428596 7.72324 0.45899 7.72517 0.905749V2.71535H4.56423C3.11973 2.71535 1.92301 3.28698 1.14814 4.15739C0.37328 5.02779 0 6.15512 0 7.26767C0 8.38023 0.37328 9.50754 1.14814 10.3779C1.32201 10.5732 1.51479 10.7529 1.7293 10.9152C1.51492 11.0773 1.32201 11.2571 1.14814 11.4524C0.37328 12.3228 0 13.4501 0 14.5627C0 15.6752 0.37328 16.8026 1.14814 17.673C1.32201 17.8683 1.51479 18.0479 1.7293 18.2102C1.51479 18.3724 1.32201 18.5521 1.14814 18.7474C0.37328 19.6178 0 20.7451 0 21.8577C0 22.9703 0.37328 24.0976 1.14814 24.968C1.92301 25.8384 3.11973 26.41 4.56423 26.41H15.2377C15.7074 26.4018 16.1291 25.9737 16.1291 25.5052C16.1291 25.0367 15.7074 24.6086 15.2377 24.6004H4.56423C3.57381 24.6004 2.93733 24.2634 2.49473 23.7663C2.05214 23.2691 1.81435 22.5686 1.81435 21.8577C1.81435 21.1468 2.05214 20.4463 2.49473 19.9491C2.93733 19.452 3.57381 19.115 4.56423 19.115H18.9373C19.407 19.1068 19.8287 18.6787 19.8287 18.2102C19.8287 17.7417 19.407 17.3136 18.9373 17.3054C14.1463 17.3054 9.35525 17.3054 4.56423 17.3054C3.57381 17.3054 2.93733 16.9684 2.49473 16.4713C2.05214 15.9741 1.81435 15.2735 1.81435 14.5627C1.81435 13.8518 2.05214 13.1513 2.49473 12.6541C2.93733 12.157 3.57381 11.82 4.56423 11.82C5.61788 11.82 6.67152 11.82 7.72517 11.82V14.393C7.72788 14.7246 7.92934 15.0469 8.22667 15.1952C8.52399 15.3435 8.90346 15.3109 9.17098 15.1141L13.2391 12.0603L17.3072 15.1141C17.5746 15.3189 17.9604 15.3566 18.2625 15.2074C18.5647 15.0582 18.7685 14.7293 18.7672 14.393V11.82H23.4023C23.872 11.8117 24.2937 11.3837 24.2937 10.9152C24.2937 10.4466 23.872 10.0186 23.4023 10.0104H18.7672V4.52498H35.1956C35.6653 4.51673 36.087 4.08869 36.087 3.62015C36.087 3.15162 35.6653 2.72358 35.1956 2.71535H18.7672V0.905749C18.7672 0.432004 18.335 0.000968208 17.86 0.00092308H8.63235C8.604 -0.000307693 8.57562 -0.000307693 8.5473 0.00092308ZM9.53952 1.81055H16.9528V12.5834L13.7919 10.2083C13.4801 9.9741 13.0123 9.9741 12.7005 10.2083L9.53952 12.5834V10.9152V8.90763V1.81055ZM4.56423 4.52498H7.72517V8.90763V10.0104C6.67152 10.0104 5.61788 10.0104 4.56423 10.0104C3.57381 10.0104 2.93733 9.67342 2.49473 9.17626C2.05214 8.6791 1.81435 7.97854 1.81435 7.26767C1.81435 6.55681 2.05214 5.85625 2.49473 5.35909C2.93733 4.86193 3.57381 4.52498 4.56423 4.52498Z" fill="black"/>
</svg>
