<svg width="34" height="32" viewBox="0 0 34 32" fill="none" xmlns="http://www.w3.org/2000/svg">
<path d="M29.0992 22.2302L25.2843 26.0618L23.6772 24.3126C23.3988 24.0097 22.916 23.9798 22.5993 24.2454C22.2815 24.5121 22.2502 24.9725 22.529 25.275L24.4539 27.3695C24.656 27.5903 24.9463 27.7197 25.2504 27.7258C25.2575 27.7265 25.2645 27.7265 25.272 27.7265C25.5679 27.7265 25.8545 27.6084 26.061 27.4001L30.2057 23.236C30.4964 22.9445 30.4841 22.4819 30.1789 22.205C29.8733 21.9269 29.3895 21.939 29.0992 22.2302Z" fill="black"/>
<path d="M17.9398 19.3311H11.9707C11.5486 19.3311 11.2066 19.6579 11.2066 20.0608C11.2066 20.4644 11.5486 20.7908 11.9707 20.7908H17.9391C18.3615 20.7908 18.7032 20.4644 18.7032 20.0608C18.7028 19.6579 18.3611 19.3311 17.9398 19.3311Z" fill="black"/>
<path d="M11.9707 9.73131H21.847C22.2687 9.73131 22.6104 9.40435 22.6104 9.00091C22.6104 8.59746 22.2687 8.27051 21.847 8.27051H11.9707C11.5486 8.27051 11.2066 8.59746 11.2066 9.00091C11.2066 9.40435 11.549 9.73131 11.9707 9.73131Z" fill="black"/>
<path d="M22.61 14.3933C22.61 13.9903 22.2683 13.6631 21.8467 13.6631H11.9707C11.5486 13.6631 11.2066 13.9903 11.2066 14.3933C11.2066 14.7967 11.5486 15.1235 11.9707 15.1235H21.847C22.2683 15.1235 22.61 14.7967 22.61 14.3933Z" fill="black"/>
<path d="M8.66056 6.30661L6.79293 8.18345L6.2607 7.42048C6.02696 7.08593 5.55243 6.99491 5.20145 7.21819C4.85085 7.44181 4.75594 7.8944 4.98968 8.23002L5.75043 9.32008C5.9596 9.61943 6.28526 9.80751 6.64405 9.83702C6.6768 9.83986 6.70993 9.84093 6.74305 9.84093C7.0676 9.84093 7.38173 9.71009 7.61732 9.47367L9.76745 7.31205C10.0581 7.02016 10.0458 6.55832 9.74028 6.28065C9.43508 6.00334 8.95161 6.01507 8.66056 6.30661Z" fill="black"/>
<path d="M8.66055 11.6996L6.79329 13.5767L6.2607 12.8138C6.02696 12.4785 5.55317 12.3879 5.20145 12.6111C4.85085 12.8348 4.75594 13.2873 4.98968 13.623L5.75006 14.7126C5.95922 15.012 6.28489 15.2004 6.64405 15.2303C6.6768 15.2331 6.70993 15.2342 6.74305 15.2342C7.0676 15.2342 7.38172 15.1037 7.61732 14.8666L9.76744 12.7046C10.0581 12.4128 10.0458 11.9506 9.7399 11.6736C9.4347 11.396 8.9516 11.4073 8.66055 11.6996Z" fill="black"/>
<path d="M8.66055 17.3665L6.79329 19.2427L6.26069 18.4795C6.02696 18.1442 5.55317 18.0531 5.20145 18.2772C4.85085 18.5005 4.75594 18.9532 4.98968 19.2892L5.75006 20.3792C5.95922 20.6786 6.28526 20.8667 6.64405 20.8966C6.6768 20.8994 6.7103 20.9008 6.74342 20.9008C7.0676 20.9008 7.38209 20.77 7.61769 20.5331L9.76744 18.3728C10.0577 18.0812 10.0458 17.6186 9.74027 17.3416C9.43507 17.0628 8.9516 17.0742 8.66055 17.3665Z" fill="black"/>
<path d="M26.9577 17.9054V3.50684C26.958 1.57333 25.3111 0 23.2872 0H11.3936H10.7508H4.18504C2.16108 0 0.514526 1.57333 0.514526 3.50684V24.7687C0.514526 26.7022 2.16108 28.2748 4.18504 28.2748H19.8653C21.1143 30.4903 23.5641 32 26.3771 32C30.4521 32 33.768 28.8324 33.768 24.939C33.7683 21.2324 30.7622 18.1902 26.9577 17.9054ZM19.259 26.816H4.18541C3.00334 26.816 2.04235 25.8976 2.04235 24.7687V3.50684C2.04235 2.3776 3.00334 1.45956 4.18541 1.45956H10.7512H11.3939H23.2879C24.4692 1.45956 25.4302 2.37796 25.4302 3.50684V17.9417C21.8014 18.3879 18.9862 21.3529 18.9862 24.939C18.9858 25.5904 19.0863 26.2172 19.259 26.816ZM26.3771 30.5408C23.1435 30.5408 20.5129 28.0281 20.5129 24.9387C20.5129 21.8496 23.1428 19.3362 26.3771 19.3362C29.6106 19.3362 32.2405 21.8492 32.2405 24.9387C32.2405 28.0281 29.6106 30.5408 26.3771 30.5408Z" fill="black"/>
</svg>
