<svg width="26" height="19" viewBox="0 0 26 19" fill="none" xmlns="http://www.w3.org/2000/svg">
<path d="M20.8953 18.016H2.05096C1.47053 18.016 1 17.5455 1 16.9651V5.10662C1 4.52619 1.47053 4.05566 2.05096 4.05566H20.8953C21.4757 4.05566 21.9463 4.52619 21.9463 5.10662V16.9651C21.9463 17.5455 21.4757 18.016 20.8953 18.016Z" stroke="black" stroke-miterlimit="10" stroke-linecap="round" stroke-linejoin="round"/>
<path d="M21.9453 14.9598H24.0836C24.5898 14.9598 25 14.5496 25 14.0434V1.92076C25 1.4102 24.5898 1 24.0836 1H4.97011C4.46391 1 4.05371 1.4102 4.05371 1.92076V4.05467" stroke="black" stroke-miterlimit="10" stroke-linecap="round" stroke-linejoin="round"/>
<path d="M21.9463 6.6748H1V9.72947H21.9463V6.6748Z" stroke="black" stroke-miterlimit="10" stroke-linecap="round" stroke-linejoin="round"/>
<path d="M18.2263 15.6519C19.1151 15.6519 19.8355 14.9315 19.8355 14.0427C19.8355 13.154 19.1151 12.4336 18.2263 12.4336C17.3376 12.4336 16.6172 13.154 16.6172 14.0427C16.6172 14.9315 17.3376 15.6519 18.2263 15.6519Z" stroke="black" stroke-miterlimit="10" stroke-linecap="round" stroke-linejoin="round"/>
<path d="M17.0711 15.1576C16.7787 15.4631 16.3641 15.6507 15.9103 15.6507C15.0244 15.6507 14.3 14.9307 14.3 14.0405C14.3 13.1546 15.0244 12.4346 15.9103 12.4346C16.3641 12.4346 16.7787 12.6222 17.0711 12.9277" stroke="black" stroke-miterlimit="10" stroke-linecap="round" stroke-linejoin="round"/>
<path d="M3.10986 13.1191H9.87573" stroke="black" stroke-miterlimit="10" stroke-linecap="round" stroke-linejoin="round"/>
<path d="M3.10962 15.6523H9.87548" stroke="black" stroke-miterlimit="10" stroke-linecap="round" stroke-linejoin="round"/>
</svg>
