<svg width="61" height="60" viewBox="0 0 61 60" fill="none" xmlns="http://www.w3.org/2000/svg">
<path d="M38.0598 5.89307H37.1391C27.5292 5.89307 19.7117 13.7119 19.7117 23.3218C19.7117 26.5465 20.5956 29.5679 22.1282 32.161H3.55977C1.59756 32.161 0.000915527 33.7569 0.000915527 35.7191V56.4401C0.000915527 58.4036 1.59756 59.9996 3.55977 59.9996H35.7627C37.725 59.9996 39.3216 58.4036 39.3216 56.4401V40.6066C47.9057 39.529 54.5692 32.1917 54.5692 23.3211V22.3997H38.0598V5.89307ZM36.219 7.76184V22.4004H21.5982C22.0607 14.5392 28.3579 8.22153 36.219 7.76184ZM21.5826 24.2425H34.9695L27.3178 32.161H24.3121C22.7386 29.8843 21.7544 27.1712 21.5826 24.2425ZM37.4808 56.4401C37.4808 57.3874 36.7101 58.1588 35.7627 58.1588H3.55977C2.61243 58.1588 1.84173 57.3874 1.84173 56.4401V44.4519H37.4801L37.4808 56.4401ZM35.7627 34.0018C36.7101 34.0018 37.4808 34.7718 37.4808 35.7191V36.8943H29.4921H26.2252H1.84241V35.7191C1.84241 34.7718 2.61311 34.0018 3.56046 34.0018H35.7627ZM37.4808 40.7396V42.6097H1.84241V38.7344H29.0215H34.8352H37.4808V38.8892V40.7396ZM52.7011 24.2425C52.266 31.6774 46.5873 37.7121 39.3216 38.7358V35.7185C39.3216 33.7563 37.725 32.1603 35.7627 32.1603H29.8781L37.5299 24.2419L52.7011 24.2425Z" fill="black"/>
<path d="M43.0721 0H42.1513V18.3481H60.496V17.4274C60.4967 7.81817 52.6799 0 43.0721 0ZM43.9928 10.7864L50.6004 3.7928C51.6684 4.3848 52.6533 5.10367 53.5495 5.92007L43.9928 15.888V10.7864ZM43.9928 1.86878C45.7006 1.96835 47.3286 2.35916 48.8455 2.96754L43.9928 8.10394V1.86878ZM54.8392 7.23503C55.6965 8.2233 56.4256 9.32137 57.0142 10.5027L51.1098 16.508H45.9496L54.8392 7.23503ZM53.6927 16.5073L57.7979 12.3326C58.2562 13.6543 58.5433 15.0532 58.6286 16.5073H53.6927Z" fill="black"/>
<path d="M40.0494 27.1074H38.1895V28.9489H40.0494V27.1074Z" fill="black"/>
<path d="M42.0676 32.2305H40.2084V34.0726H42.0676V32.2305Z" fill="black"/>
<path d="M46.1609 32.2305H44.3017V34.0726H46.1609V32.2305Z" fill="black"/>
<path d="M44.302 27.1074H42.4435V28.9489H44.302V27.1074Z" fill="black"/>
<path d="M48.5129 27.1074H46.6537V28.9489H48.5129V27.1074Z" fill="black"/>
<path d="M26.3068 55.5619C26.3075 55.5619 26.313 55.5619 26.313 55.5619C27.171 55.5619 27.9696 55.298 28.6305 54.8492C29.2935 55.3007 30.0928 55.566 30.9528 55.5674C30.9528 55.5674 30.9563 55.5674 30.9569 55.5674C33.2377 55.5674 35.0942 53.7116 35.0955 51.4315C35.0955 49.1495 33.2397 47.2916 30.9583 47.2889C30.0976 47.2889 29.2982 47.5528 28.6353 48.0043C27.9724 47.5514 27.1716 47.2861 26.3102 47.2861C25.2067 47.2861 24.1673 47.7151 23.3857 48.4954C22.6034 49.277 22.1723 50.3164 22.1737 51.4193C22.171 52.5235 22.5993 53.5629 23.3788 54.3445C24.1591 55.1295 25.1999 55.5613 26.3068 55.5619ZM26.3095 53.7211C25.6944 53.7198 25.1167 53.4797 24.6829 53.0446C24.2505 52.6115 24.0131 52.0351 24.0145 51.4206C24.0145 50.8082 24.2532 50.2325 24.687 49.7994C25.1214 49.365 25.6971 49.1269 26.3123 49.1269C26.6908 49.1269 27.0427 49.2279 27.3578 49.3923C27.0161 49.9931 26.8183 50.6868 26.8183 51.4261C26.8183 52.164 27.0148 52.857 27.3551 53.4586C27.0407 53.6195 26.6894 53.7211 26.313 53.7211H26.3095ZM30.9542 53.7252C30.5757 53.7252 30.2244 53.6243 29.9093 53.4613C29.6236 53.3133 29.376 53.1093 29.1761 52.8604C28.8576 52.4662 28.6592 51.9704 28.6592 51.4254C28.6592 50.8805 28.859 50.3853 29.1782 49.9904C29.3787 49.7442 29.627 49.5403 29.9121 49.3923C30.2278 49.2299 30.5798 49.1283 30.9583 49.1283C32.2242 49.1297 33.2547 50.1636 33.2547 51.4302C33.2533 52.6954 32.2228 53.7239 30.9569 53.7239" fill="black"/>
<path d="M11.4924 54.6463V53.7256H4.21783V54.6463V55.5678H11.4924V54.6463Z" fill="black"/>
<path d="M15.0155 54.6463V53.7256H13.1972V54.6463V55.5678H15.0155V54.6463Z" fill="black"/>
</svg>
