<svg width="24" height="16" viewBox="0 0 24 16" fill="none" xmlns="http://www.w3.org/2000/svg">
<path d="M17.6701 2.90104H4.48329C4.19318 2.90104 3.95582 2.66368 3.95582 2.37357C3.95582 2.08346 4.19318 1.8461 4.48329 1.8461H17.6701C17.9602 1.8461 18.1976 2.08346 18.1976 2.37357C18.1976 2.66368 17.9602 2.90104 17.6701 2.90104Z" fill="black"/>
<path d="M2.37356 9.23115C2.08345 9.23115 1.84609 8.99378 1.84609 8.70367V4.48389C1.84609 4.19378 2.08345 3.95642 2.37356 3.95642C2.66367 3.95642 2.90104 4.19378 2.90104 4.48389V8.70367C2.90104 8.99378 2.66367 9.23115 2.37356 9.23115Z" fill="black"/>
<path d="M17.6701 11.3412H4.48329C4.19318 11.3412 3.95582 11.1038 3.95582 10.8137C3.95582 10.5236 4.19318 10.2862 4.48329 10.2862H17.6701C17.9602 10.2862 18.1976 10.5236 18.1976 10.8137C18.1976 11.1038 17.9602 11.3412 17.6701 11.3412Z" fill="black"/>
<path d="M19.7805 9.23115C19.4904 9.23115 19.253 8.99378 19.253 8.70367V4.48389C19.253 4.19378 19.4904 3.95642 19.7805 3.95642C20.0706 3.95642 20.308 4.19378 20.308 4.48389V8.70367C20.308 8.99378 20.0706 9.23115 19.7805 9.23115Z" fill="black"/>
<path d="M21.6264 13.1868H0.527473C0.237363 13.1868 0 12.9495 0 12.6593V0.527473C0 0.237363 0.237363 0 0.527473 0H21.6264C21.9165 0 22.1538 0.237363 22.1538 0.527473V12.6593C22.1538 12.9495 21.9165 13.1868 21.6264 13.1868ZM1.05495 12.1319H21.0989V1.05495H1.05495V12.1319Z" fill="black"/>
<path d="M23.4725 15.0329H2.37356C2.08345 15.0329 1.84609 14.7956 1.84609 14.5054C1.84609 14.2153 2.08345 13.978 2.37356 13.978H22.945V2.37357C22.945 2.08346 23.1824 1.8461 23.4725 1.8461C23.7626 1.8461 23.9999 2.08346 23.9999 2.37357V14.5054C23.9999 14.7956 23.7626 15.0329 23.4725 15.0329Z" fill="black"/>
<path d="M19.7801 5.01094C18.3295 5.01094 17.1427 3.82412 17.1427 2.37357C17.1427 2.08346 17.3801 1.8461 17.6702 1.8461C17.9603 1.8461 18.1976 2.08346 18.1976 2.37357C18.1976 3.2439 18.9097 3.95599 19.7801 3.95599C20.0702 3.95599 20.3075 4.19335 20.3075 4.48346C20.3075 4.77357 20.0702 5.01094 19.7801 5.01094Z" fill="black"/>
<path d="M17.6702 11.3407C17.3801 11.3407 17.1427 11.1034 17.1427 10.8133C17.1427 9.36272 18.3295 8.1759 19.7801 8.1759C20.0702 8.1759 20.3075 8.41327 20.3075 8.70338C20.3075 8.99349 20.0702 9.23085 19.7801 9.23085C18.9097 9.23085 18.1976 9.94294 18.1976 10.8133C18.1976 11.1034 17.9603 11.3407 17.6702 11.3407Z" fill="black"/>
<path d="M2.37356 5.01094C2.08345 5.01094 1.84609 4.77357 1.84609 4.48346C1.84609 4.19335 2.08345 3.95599 2.37356 3.95599C3.24389 3.95599 3.95598 3.2439 3.95598 2.37357C3.95598 2.08346 4.19335 1.8461 4.48345 1.8461C4.77356 1.8461 5.01093 2.08346 5.01093 2.37357C5.01093 3.82412 3.82411 5.01094 2.37356 5.01094Z" fill="black"/>
<path d="M4.48345 11.3407C4.19335 11.3407 3.95598 11.1034 3.95598 10.8133C3.95598 9.94294 3.24389 9.23085 2.37356 9.23085C2.08345 9.23085 1.84609 8.99349 1.84609 8.70338C1.84609 8.41327 2.08345 8.1759 2.37356 8.1759C3.82411 8.1759 5.01093 9.36272 5.01093 10.8133C5.01093 11.1034 4.77356 11.3407 4.48345 11.3407Z" fill="black"/>
<path d="M11.0768 11.3406C8.88775 11.3406 7.12072 9.20434 7.12072 6.59335C7.12072 3.98236 8.88775 1.8461 11.0768 1.8461C13.2658 1.8461 15.0328 3.98236 15.0328 6.59335C15.0328 9.20434 13.2658 11.3406 11.0768 11.3406ZM11.0768 2.90104C9.46797 2.90104 8.17567 4.56258 8.17567 6.59335C8.17567 8.62412 9.46797 10.2857 11.0768 10.2857C12.6856 10.2857 13.9779 8.62412 13.9779 6.59335C13.9779 4.56258 12.6856 2.90104 11.0768 2.90104Z" fill="black"/>
<path d="M11.0767 9.49475C10.7866 9.49475 10.5493 9.25738 10.5493 8.96727V8.41343C10.5493 8.12332 10.7866 7.88596 11.0767 7.88596C11.3668 7.88596 11.6042 8.12332 11.6042 8.41343V8.96727C11.6042 9.25738 11.3668 9.49475 11.0767 9.49475Z" fill="black"/>
<path d="M11.0767 5.27459C10.7866 5.27459 10.5493 5.03722 10.5493 4.74711V4.21964C10.5493 3.92953 10.7866 3.69217 11.0767 3.69217C11.3668 3.69217 11.6042 3.92953 11.6042 4.21964V4.74711C11.6042 5.03722 11.3668 5.27459 11.0767 5.27459Z" fill="black"/>
<path d="M11.0767 8.91423C10.18 8.91423 9.65254 8.38676 9.57342 8.33401C9.36243 8.12302 9.36243 7.80654 9.57342 7.59555C9.78441 7.38456 10.1009 7.38456 10.3119 7.59555C10.3383 7.62192 10.602 7.85929 11.0767 7.85929C11.3141 7.85929 11.6569 7.78016 11.6569 7.5428C11.6569 7.38456 11.4196 7.30544 10.9185 7.1472C10.3119 6.96258 9.41518 6.67247 9.41518 5.72302C9.41518 4.93181 10.1009 4.35159 11.0503 4.35159C11.7624 4.35159 12.2635 4.69445 12.3163 4.72082C12.5536 4.87907 12.6328 5.22192 12.4481 5.45929C12.2899 5.69665 11.947 5.77577 11.7097 5.59115C11.7097 5.59115 11.3932 5.40654 11.024 5.40654C10.7866 5.40654 10.4437 5.48566 10.4437 5.72302C10.4437 5.88126 10.6811 5.96038 11.1822 6.11863C11.7888 6.30324 12.6855 6.59335 12.6855 7.5428C12.7119 8.33401 12.0262 8.91423 11.0767 8.91423Z" fill="black"/>
<path d="M5.27483 7.1205C5.56614 7.1205 5.8023 6.88434 5.8023 6.59302C5.8023 6.30171 5.56614 6.06555 5.27483 6.06555C4.98351 6.06555 4.74735 6.30171 4.74735 6.59302C4.74735 6.88434 4.98351 7.1205 5.27483 7.1205Z" fill="black"/>
<path d="M16.8792 7.1205C17.1706 7.1205 17.4067 6.88434 17.4067 6.59302C17.4067 6.30171 17.1706 6.06555 16.8792 6.06555C16.5879 6.06555 16.3518 6.30171 16.3518 6.59302C16.3518 6.88434 16.5879 7.1205 16.8792 7.1205Z" fill="black"/>
</svg>
