<svg width="61" height="60" viewBox="0 0 61 60" fill="none" xmlns="http://www.w3.org/2000/svg">
<path d="M35.2724 54.5107H56.3684C57.1025 54.5107 57.654 55.0629 57.654 55.7934V57.5968H33.9875V55.7934C33.9868 55.0629 34.5383 54.5107 35.2724 54.5107ZM45.5943 31.7069C45.8836 31.6923 46.1765 31.7069 46.4687 31.75C48.8244 32.0999 50.7418 34.3182 50.9083 37.1772C51.0756 40.0362 49.4131 42.554 47.1078 43.2465C46.4387 43.4108 46.0392 44.0996 46.2371 44.7614C46.4387 45.4188 47.1502 45.7775 47.7974 45.5445C47.961 45.4948 48.1202 45.4349 48.2765 45.3765C48.5541 47.8045 49.4708 50.1171 51.3239 52.1075H40.7281C42.9808 49.6876 43.8515 46.7935 43.8668 43.787C43.9055 43.3451 43.6959 42.9236 43.327 42.6797C41.2233 41.3174 40.1846 38.3423 41.002 35.6447C41.7171 33.2817 43.5666 31.807 45.5943 31.7069ZM46.1495 29.3103C42.8018 29.1547 39.7508 31.4929 38.7048 34.9479C37.6624 38.3992 38.7537 42.1727 41.4476 44.2925C41.3336 47.3969 40.303 49.9038 37.0386 52.1061H35.2731C33.2491 52.1061 31.5866 53.7708 31.5866 55.7926V60H60.0586V55.7926C60.0586 53.7708 58.3925 52.1061 56.3684 52.1061H55.0142C51.6322 49.819 50.6432 47.2172 50.5972 43.9499C52.4233 42.2867 53.4656 39.7301 53.3056 37.0333C53.0814 33.167 50.4262 29.9107 46.8193 29.3782C46.5943 29.3446 46.3701 29.322 46.1495 29.3103ZM27.6794 16.2923C27.014 16.2996 26.4844 16.8474 26.4924 17.5092V18.5508C25.6327 18.8306 24.9249 19.3696 24.4917 20.0913C23.9892 20.9284 23.8942 22.0555 24.396 22.9985C24.8949 23.943 25.8796 24.6237 27.2039 24.9773C28.0183 25.1971 28.3339 25.5324 28.4522 25.7647C28.5698 25.9955 28.5552 26.1942 28.4179 26.4294C28.144 26.8976 27.2083 27.5565 25.2295 26.5748C24.6356 26.2621 23.8986 26.5017 23.5977 27.1029C23.2974 27.7077 23.556 28.4381 24.1645 28.7237C24.9672 29.1233 25.7547 29.3417 26.4932 29.4089V30.235C26.4742 30.9122 27.0183 31.4717 27.6955 31.4717C28.3733 31.4717 28.9168 30.9122 28.8978 30.235V29.0437C29.5829 28.7325 30.1373 28.2519 30.496 27.6368C31.0015 26.7654 31.0782 25.6398 30.591 24.6793C30.1081 23.7246 29.122 23.0058 27.8255 22.6588C26.9424 22.4236 26.6232 22.0738 26.5202 21.8758C26.4172 21.6779 26.4252 21.5449 26.5545 21.328C26.8131 20.8941 27.7115 20.2937 29.2864 21.1066C30.7086 21.8415 31.8123 19.7042 30.3857 18.9694C29.8868 18.7137 29.3894 18.5442 28.8985 18.4398V17.5085C28.908 16.8313 28.3558 16.2791 27.6794 16.2923ZM27.2645 2.68698L51.7644 20.6362C52.0347 20.8371 52.1567 21.1227 52.1223 21.6063C52.0836 22.0927 51.8294 22.6932 51.4145 23.1088C50.5847 23.9393 49.5658 23.8736 48.6907 23.2154C48.6827 23.2081 48.679 23.2038 48.6717 23.2001L27.9643 8.33698C27.5457 8.03969 26.9862 8.03969 26.5684 8.33698L5.86023 23.2001C4.94352 23.859 3.94719 23.9393 3.1174 23.1088C2.70324 22.6939 2.44028 22.0927 2.40594 21.6063C2.36723 21.1227 2.48922 20.8371 2.76313 20.6362L27.2645 2.68698ZM27.3061 0.00185413C27.2645 -0.00252854 27.2229 0.0018541 27.1849 0.00477588H27.1805C26.9563 0.0201153 26.7393 0.100464 26.5567 0.233406L1.34534 18.6962C0.325633 19.4412 -0.0702691 20.675 0.01008 21.7852C0.0933509 22.8992 0.587863 23.9736 1.4213 24.8056C2.49871 25.883 3.92089 26.2066 5.24884 25.978V55.6677C5.24884 58.1213 7.44749 59.9847 9.96972 59.9847H21.25C21.9154 59.9803 22.4487 59.4456 22.4487 58.7831V42.0288C22.4487 39.7462 24.4954 37.8215 27.2192 37.8215C29.9467 37.8215 31.9934 39.7462 31.9934 42.0288V48.7898C31.9744 49.4662 32.5186 50.025 33.1957 50.025C33.8736 50.025 34.417 49.4655 34.398 48.7898V42.0288C34.398 38.324 31.1147 35.4249 27.2192 35.4249C23.3274 35.4249 20.0477 38.324 20.0477 42.0288V57.5778H9.96899C8.58771 57.5778 7.64471 56.6648 7.64471 55.6677V25.0007C7.64836 24.959 7.64471 24.9167 7.64032 24.875L27.2638 10.7913L47.2444 25.1292C47.2444 25.1292 47.2444 25.1292 47.2524 25.1292C48.9303 26.3922 51.4489 26.4689 53.115 24.8056C53.9484 23.9736 54.4393 22.8999 54.5226 21.7852C54.6022 20.675 54.2063 19.4412 53.191 18.6962L27.976 0.234136C27.7817 0.0880467 27.5501 0.00842815 27.3061 0.00185413Z" fill="black"/>
</svg>
