<svg width="32" height="32" viewBox="0 0 32 32" fill="none" xmlns="http://www.w3.org/2000/svg">
<path d="M27.3073 22.2305L23.6628 26.0621L22.1275 24.3129C21.8616 24.01 21.4004 23.9801 21.0979 24.2457C20.7942 24.5123 20.7643 24.9728 21.0306 25.2753L22.8696 27.3698C23.0627 27.5906 23.34 27.72 23.6305 27.726C23.6372 27.7267 23.644 27.7267 23.6511 27.7267C23.9338 27.7267 24.2075 27.6087 24.4049 27.4004L28.3643 23.2363C28.642 22.9448 28.6303 22.4822 28.3387 22.2052C28.0468 21.9272 27.5846 21.9393 27.3073 22.2305Z" fill="black"/>
<path d="M16.6469 19.3312H10.9445C10.5413 19.3312 10.2146 19.658 10.2146 20.0609C10.2146 20.4646 10.5413 20.791 10.9445 20.791H16.6462C17.0498 20.791 17.3762 20.4646 17.3762 20.0609C17.3758 19.658 17.0494 19.3312 16.6469 19.3312Z" fill="black"/>
<path d="M10.9445 9.73164H20.3795C20.7824 9.73164 21.1088 9.40469 21.1088 9.00124C21.1088 8.5978 20.7824 8.27084 20.3795 8.27084H10.9445C10.5413 8.27084 10.2146 8.5978 10.2146 9.00124C10.2146 9.40469 10.5417 9.73164 10.9445 9.73164Z" fill="black"/>
<path d="M21.1084 14.3938C21.1084 13.9908 20.782 13.6635 20.3792 13.6635H10.9445C10.5413 13.6635 10.2146 13.9908 10.2146 14.3938C10.2146 14.7971 10.5413 15.124 10.9445 15.124H20.3795C20.782 15.124 21.1084 14.7971 21.1084 14.3938Z" fill="black"/>
<path d="M7.7819 6.30569L5.99773 8.18253L5.48928 7.41957C5.26599 7.08501 4.81266 6.994 4.47737 7.21727C4.14244 7.4409 4.05177 7.89349 4.27506 8.22911L5.00181 9.31916C5.20164 9.61852 5.51275 9.80659 5.8555 9.8361C5.88679 9.83895 5.91844 9.84001 5.95008 9.84001C6.26013 9.84001 6.56021 9.70918 6.78528 9.47275L8.83933 7.31113C9.11702 7.01924 9.10528 6.55741 8.81337 6.27974C8.52182 6.00242 8.05995 6.01416 7.7819 6.30569Z" fill="black"/>
<path d="M7.7819 11.6988L5.99808 13.576L5.48928 12.813C5.26599 12.4777 4.81337 12.3871 4.47737 12.6103C4.14244 12.834 4.05177 13.2866 4.27506 13.6222L5.00146 14.7119C5.20128 15.0112 5.51239 15.1996 5.8555 15.2295C5.88679 15.2323 5.91843 15.2334 5.95008 15.2334C6.26012 15.2334 6.56021 15.1029 6.78528 14.8658L8.83932 12.7039C9.11701 12.412 9.10527 11.9498 8.81301 11.6728C8.52145 11.3952 8.05994 11.4065 7.7819 11.6988Z" fill="black"/>
<path d="M7.7819 17.3664L5.99808 19.2426L5.48928 18.4795C5.26599 18.1441 4.81337 18.0531 4.47737 18.2771C4.14244 18.5004 4.05177 18.9531 4.27506 19.2892L5.00146 20.3791C5.20128 20.6785 5.51275 20.8666 5.8555 20.8965C5.88679 20.8994 5.91879 20.9008 5.95043 20.9008C6.26012 20.9008 6.56057 20.7699 6.78563 20.5331L8.83932 18.3728C9.11665 18.0812 9.10527 17.6185 8.81336 17.3415C8.52181 17.0627 8.05994 17.0741 7.7819 17.3664Z" fill="black"/>
<path d="M25.2615 17.9054V3.50684C25.2619 1.57333 23.6885 0 21.755 0H10.3929H9.77884H3.50649C1.57298 0 0 1.57333 0 3.50684V24.7687C0 26.7022 1.57298 28.2748 3.50649 28.2748H18.486C19.6793 30.4903 22.0196 32 24.7068 32C28.5998 32 31.7675 28.8324 31.7675 24.939C31.7678 21.2324 28.896 18.1902 25.2615 17.9054ZM17.9068 26.816H3.50684C2.3776 26.816 1.45956 25.8976 1.45956 24.7687V3.50684C1.45956 2.3776 2.3776 1.45956 3.50684 1.45956H9.7792H10.3932H21.7557C22.8843 1.45956 23.8023 2.37796 23.8023 3.50684V17.9417C20.3356 18.3879 17.6462 21.3529 17.6462 24.939C17.6459 25.5904 17.7419 26.2172 17.9068 26.816ZM24.7068 30.5408C21.6178 30.5408 19.1047 28.0281 19.1047 24.9387C19.1047 21.8496 21.6171 19.3362 24.7068 19.3362C27.7959 19.3362 30.3083 21.8492 30.3083 24.9387C30.3083 28.0281 27.7959 30.5408 24.7068 30.5408Z" fill="black"/>
</svg>
