<svg width="33" height="32" viewBox="0 0 33 32" fill="none" xmlns="http://www.w3.org/2000/svg">
<path d="M20.2982 3.14258H19.8071C14.6818 3.14258 10.5125 7.31265 10.5125 12.4379C10.5125 14.1578 10.9839 15.7692 11.8013 17.1522H1.89807C0.851547 17.1522 0 18.0034 0 19.0499V30.1011C0 31.1483 0.851547 31.9995 1.89807 31.9995H19.0731C20.1196 31.9995 20.9711 31.1483 20.9711 30.1011V21.6565C25.5493 21.0818 29.1032 17.1686 29.1032 12.4376V11.9461H20.2982V3.14258ZM19.3164 4.13926V11.9465H11.5186C11.7652 7.75388 15.1238 4.38443 19.3164 4.13926ZM11.5103 12.929H18.65L14.5691 17.1522H12.966C12.1268 15.938 11.6019 14.491 11.5103 12.929ZM19.9894 30.1011C19.9894 30.6063 19.5783 31.0177 19.0731 31.0177H1.89807C1.39281 31.0177 0.981771 30.6063 0.981771 30.1011V23.7074H19.989L19.9894 30.1011ZM19.0731 18.134C19.5783 18.134 19.9894 18.5446 19.9894 19.0499V19.6766H15.7287H13.9863H0.982135V19.0499C0.982135 18.5446 1.39318 18.134 1.89843 18.134H19.0731ZM19.9894 21.7275V22.7249H0.982135V20.658H15.4777H18.5784H19.9894V20.7406V21.7275ZM28.1069 12.929C27.8748 16.8943 24.8462 20.1128 20.9711 20.6588V19.0495C20.9711 18.003 20.1196 17.1518 19.0731 17.1518H15.9346L20.0155 12.9286L28.1069 12.929Z" fill="black"/>
<path d="M22.9716 0H22.4806V9.7857H32.2644V9.29463C32.2648 4.16971 28.0958 0 22.9716 0ZM23.4627 5.75276L26.9867 2.02283C27.5564 2.33857 28.0816 2.72197 28.5596 3.15738L23.4627 8.47364V5.75276ZM23.4627 0.996685C24.3735 1.04979 25.2418 1.25822 26.0508 1.58269L23.4627 4.32212V0.996685ZM29.2475 3.8587C29.7047 4.38578 30.0936 4.97142 30.4075 5.60144L27.2585 8.80429H24.5063L29.2475 3.8587ZM28.636 8.80393L30.8254 6.57739C31.0699 7.28235 31.223 8.02841 31.2685 8.80393H28.636Z" fill="black"/>
<path d="M21.3603 14.4575H20.3683V15.4397H21.3603V14.4575Z" fill="black"/>
<path d="M22.4367 17.1895H21.4451V18.172H22.4367V17.1895Z" fill="black"/>
<path d="M24.6193 17.1895H23.6277V18.172H24.6193V17.1895Z" fill="black"/>
<path d="M23.6275 14.4575H22.6363V15.4397H23.6275V14.4575Z" fill="black"/>
<path d="M25.874 14.4575H24.8824V15.4397H25.874V14.4575Z" fill="black"/>
<path d="M14.0312 29.6335C14.0316 29.6335 14.0345 29.6335 14.0345 29.6335C14.4921 29.6335 14.9181 29.4927 15.2705 29.2534C15.6241 29.4942 16.0504 29.6357 16.5091 29.6364C16.5091 29.6364 16.5109 29.6364 16.5113 29.6364C17.7277 29.6364 18.7178 28.6467 18.7186 27.4306C18.7186 26.2135 17.7288 25.2226 16.512 25.2212C16.053 25.2212 15.6267 25.362 15.2731 25.6028C14.9195 25.3612 14.4925 25.2197 14.033 25.2197C13.4445 25.2197 12.8901 25.4485 12.4733 25.8647C12.056 26.2815 11.8262 26.8359 11.8269 27.4241C11.8254 28.013 12.0539 28.5674 12.4696 28.9842C12.8858 29.4029 13.4409 29.6332 14.0312 29.6335ZM14.0327 28.6517C13.7046 28.651 13.3965 28.523 13.1651 28.2909C12.9345 28.0599 12.8079 27.7525 12.8087 27.4248C12.8087 27.0981 12.936 26.7911 13.1673 26.5602C13.399 26.3284 13.706 26.2015 14.0341 26.2015C14.236 26.2015 14.4237 26.2553 14.5918 26.343C14.4095 26.6635 14.304 27.0334 14.304 27.4277C14.304 27.8213 14.4088 28.1909 14.5903 28.5117C14.4226 28.5975 14.2353 28.6517 14.0345 28.6517H14.0327ZM16.5098 28.6539C16.308 28.6539 16.1206 28.6001 15.9526 28.5132C15.8002 28.4342 15.6681 28.3255 15.5615 28.1927C15.3917 27.9824 15.2858 27.718 15.2858 27.4273C15.2858 27.1367 15.3924 26.8726 15.5626 26.662C15.6696 26.5307 15.802 26.4219 15.954 26.343C16.1224 26.2564 16.3101 26.2022 16.512 26.2022C17.1872 26.203 17.7368 26.7544 17.7368 27.4299C17.7361 28.1047 17.1864 28.6532 16.5113 28.6532" fill="black"/>
<path d="M6.12928 29.1454V28.6543H2.24948V29.1454V29.6368H6.12928V29.1454Z" fill="black"/>
<path d="M8.00834 29.1454V28.6543H7.03857V29.1454V29.6368H8.00834V29.1454Z" fill="black"/>
</svg>
