<svg width="32" height="32" viewBox="0 0 32 32" fill="none" xmlns="http://www.w3.org/2000/svg">
<path d="M12.2667 5.33361C12.5831 5.33361 12.8924 5.23977 13.1556 5.06394C13.4187 4.88811 13.6238 4.6382 13.7449 4.34581C13.866 4.05342 13.8976 3.73168 13.8359 3.42128C13.7742 3.11088 13.6218 2.82576 13.398 2.60198C13.1743 2.37819 12.8892 2.22579 12.5788 2.16405C12.2684 2.10231 11.9467 2.13399 11.6544 2.25511C11.362 2.37622 11.1121 2.58131 10.9363 2.84446C10.7605 3.1076 10.6667 3.41698 10.6667 3.73346C10.6667 4.15785 10.8352 4.56485 11.1353 4.86494C11.4353 5.16503 11.8423 5.33361 12.2667 5.33361ZM12.2667 3.20007C12.3721 3.20007 12.4753 3.23135 12.563 3.28996C12.6507 3.34857 12.719 3.43188 12.7594 3.52934C12.7998 3.6268 12.8103 3.73405 12.7897 3.83752C12.7692 3.94098 12.7184 4.03602 12.6438 4.11062C12.5692 4.18521 12.4742 4.23601 12.3707 4.25659C12.2672 4.27717 12.16 4.26661 12.0626 4.22624C11.9651 4.18587 11.8818 4.11751 11.8232 4.02979C11.7646 3.94208 11.7333 3.83895 11.7333 3.73346C11.7333 3.59199 11.7895 3.45633 11.8895 3.3563C11.9896 3.25627 12.1252 3.20007 12.2667 3.20007Z" fill="black"/>
<path d="M14.9333 23.4673H3.20001V24.5339H14.9333V23.4673Z" fill="black"/>
<path d="M6.40001 25.5996H3.20001V26.6663H6.40001V25.5996Z" fill="black"/>
<path d="M14.9333 25.5996H7.46667V26.6663H14.9333V25.5996Z" fill="black"/>
<path d="M9.60001 27.7339H3.20001V28.8002H9.60001V27.7339Z" fill="black"/>
<path d="M14.9333 27.7339H10.6667V28.8002H14.9333V27.7339Z" fill="black"/>
<path d="M4.8 17.0669H5.33333V21.867C5.33333 22.0085 5.38952 22.1442 5.48954 22.2442C5.58956 22.3442 5.72521 22.4004 5.86666 22.4004H12.2667C12.4081 22.4004 12.5438 22.3442 12.6438 22.2442C12.7438 22.1442 12.8 22.0085 12.8 21.867V17.0669H13.3333C13.4748 17.0669 13.6104 17.0107 13.7105 16.9107C13.8105 16.8106 13.8667 16.675 13.8667 16.5335V15.4668C13.8667 15.3677 13.8391 15.2705 13.787 15.1862C13.7349 15.1019 13.6604 15.0338 13.5717 14.9895L9.30506 12.8561C9.23104 12.8191 9.14942 12.7998 9.06666 12.7998C8.98391 12.7998 8.90229 12.8191 8.82826 12.8561L4.5616 14.9895C4.47294 15.0338 4.39838 15.1019 4.34628 15.1862C4.29419 15.2705 4.26662 15.3677 4.26666 15.4668V16.5335C4.26666 16.675 4.32285 16.8106 4.42287 16.9107C4.52289 17.0107 4.65855 17.0669 4.8 17.0669ZM8 21.3337V19.2003H10.1333V21.3337H8ZM11.7333 21.3337H11.2V18.6669C11.2 18.5255 11.1438 18.3898 11.0438 18.2898C10.9438 18.1898 10.8081 18.1336 10.6667 18.1336H7.46666C7.32521 18.1336 7.18956 18.1898 7.08954 18.2898C6.98952 18.3898 6.93333 18.5255 6.93333 18.6669V21.3337H6.4V17.0669H11.7333V21.3337ZM5.33333 15.7964L9.06666 13.9297L12.8 15.7964V16.0002H5.33333V15.7964Z" fill="black"/>
<path d="M30.5952 6.43413L29.6715 5.9008C29.3679 5.72551 29.0328 5.61179 28.6852 5.56614C28.3377 5.52048 27.9846 5.5438 27.646 5.63474C27.3075 5.72569 26.9903 5.88248 26.7124 6.09616C26.4345 6.30983 26.2015 6.57619 26.0267 6.88L24.96 8.72747L24.5333 9.4672V6.93333C24.5322 5.94354 24.1385 4.99461 23.4386 4.29472C22.7387 3.59482 21.7898 3.20113 20.8 3.2H16.5333V2.66667C16.5325 1.95968 16.2513 1.2819 15.7513 0.781984C15.2514 0.28207 14.5736 0.000846857 13.8667 0H10.6667C9.95968 0.000846857 9.2819 0.28207 8.78198 0.781984C8.28207 1.2819 8.00085 1.95968 8 2.66667V3.2H3.73333C2.74354 3.20113 1.79461 3.59482 1.09472 4.29472C0.394824 4.99461 0.00112926 5.94354 0 6.93333V28.2667C0.00112926 29.2565 0.394824 30.2054 1.09472 30.9053C1.79461 31.6052 2.74354 31.9989 3.73333 32H20.8C21.7898 31.9989 22.7387 31.6052 23.4386 30.9053C24.1385 30.2054 24.5322 29.2565 24.5333 28.2667V22.2677L29.44 13.7728L30.5067 11.9253L31.5733 10.0779C31.9262 9.46484 32.0214 8.73682 31.838 8.05365C31.6547 7.37049 31.2077 6.78802 30.5952 6.43413ZM29.3152 11.8533L28.7819 12.7771L25.0869 10.6437L25.6203 9.72L29.3152 11.8533ZM18.8619 26.7573L18.0619 28.144C17.9906 28.2655 17.8742 28.3539 17.7381 28.3899C17.6019 28.4259 17.4571 28.4066 17.3351 28.3361C17.2131 28.2657 17.124 28.1499 17.0871 28.014C17.0502 27.8781 17.0685 27.7331 17.1381 27.6107L17.9381 26.224L18.8619 26.7573ZM24.5525 11.5675L25.9392 12.3675L20.5195 21.7541L18.8128 21.5088L24.5525 11.5675ZM19.5733 25.9355L18.2933 25.1984L18.4533 22.5349L20.5109 22.8309L21.7968 24.4651L19.5733 25.9355ZM22.5099 23.6421L21.4432 22.2875L26.8624 12.9008L28.2491 13.7008L22.5099 23.6421ZM9.06666 5.86667V2.66667C9.06666 2.24232 9.23524 1.83535 9.53529 1.5353C9.83535 1.23524 10.2423 1.06667 10.6667 1.06667H13.8667C14.291 1.06667 14.698 1.23524 14.998 1.5353C15.2981 1.83535 15.4667 2.24232 15.4667 2.66667V5.86667C15.4667 6.00812 15.5229 6.14377 15.6229 6.24379C15.7229 6.34381 15.8585 6.4 16 6.4C16.707 6.40085 17.3848 6.68207 17.8847 7.18198C18.3846 7.6819 18.6658 8.35968 18.6667 9.06667V9.6H5.86667V9.06667C5.86751 8.35968 6.14874 7.6819 6.64865 7.18198C7.14856 6.68207 7.82635 6.40085 8.53333 6.4C8.67478 6.4 8.81044 6.34381 8.91046 6.24379C9.01048 6.14377 9.06666 6.00812 9.06666 5.86667ZM23.4667 28.2667C23.4658 28.9737 23.1846 29.6514 22.6847 30.1514C22.1848 30.6513 21.507 30.9325 20.8 30.9333H3.73333C3.02635 30.9325 2.34856 30.6513 1.84865 30.1514C1.34874 29.6514 1.06751 28.9737 1.06667 28.2667V6.93333C1.06751 6.22635 1.34874 5.54856 1.84865 5.04865C2.34856 4.54874 3.02635 4.26751 3.73333 4.26667H8V5.3712C7.1119 5.50062 6.29998 5.94514 5.71249 6.6236C5.12499 7.30206 4.80112 8.16919 4.8 9.06667V10.1333C4.8 10.2748 4.85619 10.4104 4.95621 10.5105C5.05623 10.6105 5.19188 10.6667 5.33333 10.6667H19.2C19.3414 10.6667 19.4771 10.6105 19.5771 10.5105C19.6771 10.4104 19.7333 10.2748 19.7333 10.1333V9.06667C19.7322 8.16919 19.4083 7.30206 18.8208 6.6236C18.2333 5.94514 17.4214 5.50062 16.5333 5.3712V4.26667H20.8C21.507 4.26751 22.1848 4.54874 22.6847 5.04865C23.1846 5.54856 23.4658 6.22635 23.4667 6.93333V11.3147L17.4933 21.6576C17.4518 21.7292 17.4277 21.8096 17.4229 21.8923L17.216 25.3376L16.2133 27.0763C16.1083 27.2584 16.0401 27.4594 16.0127 27.6678C15.9854 27.8763 15.9993 28.0881 16.0538 28.2911C16.1083 28.4942 16.2022 28.6845 16.3302 28.8512C16.4583 29.018 16.6179 29.1579 16.8 29.2629C16.9821 29.368 17.1831 29.4362 17.3915 29.4635C17.6 29.4909 17.8118 29.477 18.0148 29.4225C18.2179 29.368 18.4082 29.2741 18.575 29.146C18.7417 29.018 18.8816 28.8584 18.9867 28.6763L19.9904 26.9376L22.8704 25.0357C22.9396 24.9904 22.9972 24.9294 23.0384 24.8576L23.4651 24.1152L23.4667 28.2667ZM30.6475 9.54667L29.8475 10.9333L26.1525 8.8L26.9525 7.41333C27.0575 7.23115 27.1974 7.07144 27.3641 6.94334C27.5308 6.81524 27.7212 6.72126 27.9243 6.66677C28.1273 6.61229 28.3392 6.59836 28.5476 6.6258C28.7561 6.65323 28.9571 6.72149 29.1392 6.82667L30.0629 7.36C30.2449 7.46515 30.4044 7.60513 30.5323 7.77195C30.6602 7.93877 30.754 8.12915 30.8083 8.33222C30.8626 8.53529 30.8763 8.74706 30.8487 8.95544C30.8211 9.16382 30.7527 9.36472 30.6475 9.54667Z" fill="black"/>
</svg>
