<svg width="30" height="32" viewBox="0 0 30 32" fill="none" xmlns="http://www.w3.org/2000/svg">
<path d="M11.6364 31.2725V29.818C11.6348 28.4682 11.098 27.1742 10.1436 26.2198C9.18917 25.2654 7.89517 24.7286 6.54545 24.7271H5.09091C3.74119 24.7286 2.44719 25.2654 1.49279 26.2198C0.538397 27.1742 0.0015399 28.4682 0 29.818V31.2725C0 31.4654 0.0766233 31.6504 0.213013 31.7868C0.349404 31.9232 0.534388 31.9998 0.727273 31.9998H10.9091C11.102 31.9998 11.287 31.9232 11.4234 31.7868C11.5597 31.6504 11.6364 31.4654 11.6364 31.2725ZM10.1818 30.5452H1.45455V29.818C1.4557 28.8539 1.83919 27.9296 2.52089 27.2479C3.20259 26.5662 4.12684 26.1828 5.09091 26.1816H6.54545C7.50952 26.1828 8.43378 26.5662 9.11548 27.2479C9.79718 27.9296 10.1807 28.8539 10.1818 29.818V30.5452Z" fill="black"/>
<path d="M2.90909 20.3637V21.091C2.90909 21.8625 3.21558 22.6024 3.76114 23.148C4.3067 23.6936 5.04664 24 5.81818 24C6.58972 24 7.32966 23.6936 7.87522 23.148C8.42078 22.6024 8.72727 21.8625 8.72727 21.091V20.3637C8.72727 19.5921 8.42078 18.8522 7.87522 18.3066C7.32966 17.7611 6.58972 17.4546 5.81818 17.4546C5.04664 17.4546 4.3067 17.7611 3.76114 18.3066C3.21558 18.8522 2.90909 19.5921 2.90909 20.3637ZM7.27272 20.3637V21.091C7.27272 21.4767 7.11948 21.8467 6.8467 22.1195C6.57392 22.3923 6.20395 22.5455 5.81818 22.5455C5.43241 22.5455 5.06244 22.3923 4.78966 22.1195C4.51688 21.8467 4.36363 21.4767 4.36363 21.091V20.3637C4.36363 19.9779 4.51688 19.6079 4.78966 19.3352C5.06244 19.0624 5.43241 18.9091 5.81818 18.9091C6.20395 18.9091 6.57392 19.0624 6.8467 19.3352C7.11948 19.6079 7.27272 19.9779 7.27272 20.3637Z" fill="black"/>
<path d="M29.0909 29.818C29.0894 28.4682 28.5525 27.1742 27.5981 26.2198C26.6437 25.2654 25.3497 24.7286 24 24.7271H22.5455C21.1957 24.7286 19.9018 25.2654 18.9474 26.2198C17.993 27.1742 17.4561 28.4682 17.4546 29.818V31.2725C17.4546 31.4654 17.5312 31.6504 17.6676 31.7868C17.804 31.9232 17.9889 31.9998 18.1818 31.9998H28.3637C28.5565 31.9998 28.7415 31.9232 28.8779 31.7868C29.0143 31.6504 29.0909 31.4654 29.0909 31.2725V29.818ZM27.6364 30.5452H18.9091V29.818C18.9103 28.8539 19.2937 27.9296 19.9754 27.2479C20.6571 26.5662 21.5814 26.1828 22.5455 26.1816H24C24.9641 26.1828 25.8883 26.5662 26.57 27.2479C27.2517 27.9296 27.6352 28.8539 27.6364 29.818V30.5452Z" fill="black"/>
<path d="M23.2727 24C24.0443 24 24.7842 23.6936 25.3298 23.148C25.8753 22.6024 26.1818 21.8625 26.1818 21.091V20.3637C26.1818 19.5921 25.8753 18.8522 25.3298 18.3066C24.7842 17.7611 24.0443 17.4546 23.2727 17.4546C22.5012 17.4546 21.7613 17.7611 21.2157 18.3066C20.6701 18.8522 20.3636 19.5921 20.3636 20.3637V21.091C20.3636 21.8625 20.6701 22.6024 21.2157 23.148C21.7613 23.6936 22.5012 24 23.2727 24ZM21.8182 20.3637C21.8182 19.9779 21.9714 19.6079 22.2442 19.3352C22.517 19.0624 22.887 18.9091 23.2727 18.9091C23.6585 18.9091 24.0285 19.0624 24.3013 19.3352C24.574 19.6079 24.7273 19.9779 24.7273 20.3637V21.091C24.7273 21.4767 24.574 21.8467 24.3013 22.1195C24.0285 22.3923 23.6585 22.5455 23.2727 22.5455C22.887 22.5455 22.517 22.3923 22.2442 22.1195C21.9714 21.8467 21.8182 21.4767 21.8182 21.091V20.3637Z" fill="black"/>
<path d="M18.1818 13.0909C18.7605 13.0909 19.3154 12.861 19.7246 12.4519C20.1338 12.0427 20.3636 11.4877 20.3636 10.9091V2.18182C20.3636 1.60316 20.1338 1.04821 19.7246 0.63904C19.3154 0.22987 18.7605 0 18.1818 0H5.09091C4.51225 0 3.9573 0.22987 3.54813 0.63904C3.13896 1.04821 2.90909 1.60316 2.90909 2.18182V10.9091C2.90909 11.4877 3.13896 12.0427 3.54813 12.4519C3.9573 12.861 4.51225 13.0909 5.09091 13.0909H5.81818V15.2727C5.81814 15.4166 5.86075 15.5572 5.94063 15.6768C6.0205 15.7964 6.13404 15.8896 6.26691 15.9447C6.35515 15.9815 6.44985 16.0003 6.54545 16C6.73832 16 6.92327 15.9233 7.05963 15.7869L9.75563 13.0909H18.1818ZM8.94036 11.8495L7.27272 13.5171V12.3636C7.27272 12.1708 7.1961 11.9858 7.05971 11.8494C6.92332 11.713 6.73834 11.6364 6.54545 11.6364H5.09091C4.89802 11.6364 4.71304 11.5597 4.57665 11.4234C4.44026 11.287 4.36363 11.102 4.36363 10.9091V2.18182C4.36363 1.98893 4.44026 1.80395 4.57665 1.66756C4.71304 1.53117 4.89802 1.45455 5.09091 1.45455H18.1818C18.3747 1.45455 18.5597 1.53117 18.6961 1.66756C18.8325 1.80395 18.9091 1.98893 18.9091 2.18182V10.9091C18.9091 11.102 18.8325 11.287 18.6961 11.4234C18.5597 11.5597 18.3747 11.6364 18.1818 11.6364H9.45454C9.26167 11.6364 9.07672 11.7131 8.94036 11.8495Z" fill="black"/>
<path d="M10.9091 16.0001H16.4262L19.1222 18.6961C19.2585 18.8325 19.4435 18.9092 19.6364 18.9092C19.732 18.9095 19.8267 18.8907 19.9149 18.854C20.0478 18.7989 20.1613 18.7056 20.2412 18.586C20.3211 18.4664 20.3637 18.3258 20.3636 18.182V16.0001H21.0909C21.6696 16.0001 22.2245 15.7703 22.6337 15.3611C23.0429 14.9519 23.2727 14.397 23.2727 13.8183V5.09104C23.2727 4.89816 23.1961 4.71317 23.0597 4.57678C22.9233 4.44039 22.7383 4.36377 22.5455 4.36377C22.3526 4.36377 22.1676 4.44039 22.0312 4.57678C21.8948 4.71317 21.8182 4.89816 21.8182 5.09104V13.8183C21.8182 14.0112 21.7416 14.1962 21.6052 14.3326C21.4688 14.469 21.2838 14.5456 21.0909 14.5456H19.6364C19.4435 14.5456 19.2585 14.6222 19.1221 14.7586C18.9857 14.895 18.9091 15.08 18.9091 15.2729V16.4263L17.2415 14.7587C17.1051 14.6223 16.9201 14.5456 16.7273 14.5456H10.9091C10.7162 14.5456 10.5312 14.6222 10.3948 14.7586C10.2584 14.895 10.1818 15.08 10.1818 15.2729C10.1818 15.4657 10.2584 15.6507 10.3948 15.7871C10.5312 15.9235 10.7162 16.0001 10.9091 16.0001Z" fill="black"/>
<path d="M11.6364 7.2729C12.038 7.2729 12.3636 6.94729 12.3636 6.54563C12.3636 6.14397 12.038 5.81836 11.6364 5.81836C11.2347 5.81836 10.9091 6.14397 10.9091 6.54563C10.9091 6.94729 11.2347 7.2729 11.6364 7.2729Z" fill="black"/>
<path d="M14.5454 7.2729C14.9471 7.2729 15.2727 6.94729 15.2727 6.54563C15.2727 6.14397 14.9471 5.81836 14.5454 5.81836C14.1438 5.81836 13.8182 6.14397 13.8182 6.54563C13.8182 6.94729 14.1438 7.2729 14.5454 7.2729Z" fill="black"/>
<path d="M8.72727 7.2729C9.12893 7.2729 9.45455 6.94729 9.45455 6.54563C9.45455 6.14397 9.12893 5.81836 8.72727 5.81836C8.32561 5.81836 8 6.14397 8 6.54563C8 6.94729 8.32561 7.2729 8.72727 7.2729Z" fill="black"/>
</svg>
