<svg width="34" height="32" viewBox="0 0 34 32" fill="none" xmlns="http://www.w3.org/2000/svg">
<path d="M16.8279 7.50403L17.7423 7.61296L18.5438 7.15019C19.5302 7.90054 20.9137 8.02946 22.0588 7.36833C23.5791 6.49059 24.1035 4.55269 23.2301 3.0399C22.3567 1.52712 20.4162 1.01231 18.8959 1.89005C17.7508 2.55118 17.1707 3.81378 17.3273 5.04316L15.8512 5.8954L11.5068 8.40366L11.0242 10.0869L12.4001 10.4301L13.0546 8.85673L14.9859 8.99455L15.5915 7.35649L16.8294 7.50585C16.8289 7.50524 16.8284 7.50464 16.8279 7.50403ZM15.8584 4.20561C15.9986 2.76446 16.8121 1.4075 18.166 0.625827C20.388 -0.657022 23.224 0.09539 24.5005 2.30639C25.7771 4.51738 25.0106 7.3497 22.7887 8.63255C21.4348 9.41423 19.8529 9.44025 18.5347 8.84108L18.0463 9.12307L16.561 8.94385L15.9751 10.5287L13.9988 10.3876L13.2655 12.1504L9.20447 11.1376L10.266 7.43437L15.8584 4.20561ZM6.03622 20.2411C6.56434 19.6377 7.17859 18.9727 7.87932 18.2457C9.0933 16.986 10.8748 16.1382 12.5038 16.1382H18.7137H20.9886C20.9952 16.1382 21.0018 16.1382 21.0084 16.1383C21.0198 16.1383 21.0313 16.1383 21.0429 16.1383C22.5009 16.1574 23.7181 17.1662 24.0573 18.5215C25.2969 17.2012 26.3931 15.9897 27.3458 14.8873C28.605 13.4302 30.4527 13.2999 31.7992 14.3331C33.1417 15.3631 33.4516 17.1548 32.2751 18.5378C32.0673 18.7821 29.7028 21.7572 28.8117 22.8031C27.9245 23.8444 27.1055 24.7302 26.3231 25.476C24.5958 27.1227 23.1174 28.0312 21.7979 28.0312C16.9708 28.0312 13.2161 28.0312 10.5339 28.0312L10.7181 28.3503C10.9869 28.8158 10.8274 29.411 10.3619 29.6798L6.56924 31.8695C6.10377 32.1382 5.50857 31.9787 5.23983 31.5132L0.130546 22.6637C-0.138195 22.1982 0.0212877 21.603 0.48676 21.3343L4.27942 19.1446C4.74489 18.8759 5.34009 19.0353 5.60883 19.5008L6.03622 20.2411ZM6.8091 21.5797L9.69105 26.5714H21.7979C22.6257 26.5714 23.8435 25.8231 25.3158 24.4194C26.057 23.7128 26.8435 22.8623 27.7006 21.8563C28.5702 20.8356 30.9343 17.8611 31.1632 17.592C31.7684 16.8805 31.6226 16.0375 30.9105 15.4912C30.1622 14.917 29.1903 14.9855 28.4503 15.8418C27.0846 17.4222 25.4331 19.218 23.4954 21.2301C22.917 21.9805 22.0093 22.464 20.9886 22.464H16.1226C15.7195 22.464 15.3927 22.1372 15.3927 21.7341C15.3927 21.331 15.7195 21.0042 16.1226 21.0042H20.9886C21.4829 21.0042 21.928 20.7936 22.2391 20.4573C22.2589 20.4253 22.2817 20.3936 22.3075 20.3623C22.5535 20.0632 22.6903 19.6906 22.6917 19.295C22.6884 18.3572 21.9272 17.598 20.9886 17.598H15.9004H12.5038C11.2956 17.598 9.88299 18.2703 8.93042 19.2587C8.09297 20.1276 7.38564 20.9017 6.8091 21.5797ZM6.26075 30.3619L9.21059 28.6588L4.58791 20.6521L1.63806 22.3552L6.26075 30.3619ZM20.2865 4.73938C19.9506 4.15754 20.1499 3.41354 20.7318 3.07761C21.3136 2.74169 22.0576 2.94104 22.3935 3.52288C22.7294 4.10472 22.5301 4.84872 21.9482 5.18465C21.3664 5.52057 20.6224 5.32122 20.2865 4.73938Z" fill="black"/>
</svg>
