<svg width="63" height="60" viewBox="0 0 63 60" fill="none" xmlns="http://www.w3.org/2000/svg">
<path d="M62.371 40.5047C61.9758 38.9899 60.9879 37.7385 59.6707 37.014C58.2876 36.2895 56.7728 36.0919 55.258 36.553L41.4929 40.8999C41.0318 40.4388 40.5708 40.1095 39.978 39.912L29.5719 35.7626C26.674 34.5771 23.3809 34.3795 20.3513 35.1699L13.2382 37.014V36.0261C13.2382 35.0381 12.4479 34.2478 11.4599 34.2478H1.77827C0.79034 34.2478 0 35.0381 0 36.0261V57.2996C0 58.2875 0.79034 59.0779 1.77827 59.0779H11.3941C12.382 59.0779 13.1723 58.2875 13.1723 57.2996V56.0482L35.1043 59.8023C35.8288 59.9341 36.5532 59.9999 37.2119 59.9999C39.7805 59.9999 42.2173 59.2096 44.3908 57.6947L60.2634 46.4982C62.1076 45.1809 62.9638 42.744 62.371 40.5047ZM9.61581 55.5872H3.55653V37.8702H9.61581V55.5872ZM58.1559 43.6661L42.2832 54.8627C40.3732 56.2458 38.0022 56.7727 35.697 56.3775L13.1723 52.4916V40.7023L21.2075 38.5947C23.5126 38.0019 26.0154 38.1337 28.1888 39.0557L38.5949 43.2051C38.8584 43.3368 39.056 43.5344 39.1877 43.7978C39.3194 44.0613 39.3194 44.3247 39.1877 44.5882C38.9901 45.0492 38.5291 45.2468 38.0681 45.1809L25.8178 43.2051C24.8299 43.0733 23.9078 43.732 23.7761 44.654C23.6443 45.642 24.303 46.564 25.225 46.6958L37.4753 48.6716C37.7388 48.7375 37.9363 48.7375 38.1998 48.7375C40.0439 48.7375 41.6905 47.6837 42.4149 45.9054C42.6784 45.3785 42.7442 44.7858 42.8101 44.193L56.3117 39.9778C56.8386 39.7802 57.4314 39.8461 57.9583 40.1095C58.4852 40.373 58.8145 40.834 58.9462 41.3609C59.1438 42.283 58.8145 43.1392 58.1559 43.6661Z" fill="black"/>
<path d="M42.9419 34.2482C52.3601 34.2482 60.0659 26.5424 60.0659 17.1241C60.0659 7.70585 52.3601 0 42.9419 0C33.5237 0 25.8179 7.70585 25.8179 17.1241C25.8179 26.5424 33.4578 34.2482 42.9419 34.2482ZM42.9419 3.55654C50.3843 3.55654 56.5094 9.61584 56.5094 17.1241C56.5094 24.5665 50.3843 30.6917 42.9419 30.6917C35.4337 30.6917 29.3744 24.6324 29.3744 17.1241C29.3744 9.61584 35.4337 3.55654 42.9419 3.55654Z" fill="black"/>
<path d="M39.8463 22.0643C40.1756 22.3936 40.6366 22.5912 41.0977 22.5912C41.5587 22.5912 42.0197 22.3936 42.3491 22.0643L49.7914 14.622C50.5159 13.8975 50.5159 12.7779 49.7914 12.1193C49.0669 11.3948 47.9473 11.3948 47.2887 12.1193L41.0977 18.3102L38.5949 15.8075C37.8705 15.083 36.7508 15.083 36.0922 15.8075C35.3677 16.532 35.3677 17.6516 36.0922 18.3102L39.8463 22.0643Z" fill="black"/>
</svg>
