<svg width="20" height="20" viewBox="0 0 20 20" fill="none" xmlns="http://www.w3.org/2000/svg">
<g id="chatting (1) 1" clip-path="url(#clip0_360_5655)">
<path id="Vector" d="M7.08333 2.29167C7.08333 1.41667 7.40833 0.616667 7.94167 0H2.29167C1.025 0 0 1.025 0 2.29167V6.875C0 8.14167 1.025 9.16667 2.29167 9.16667H3.33333V11.0417C3.33333 11.2917 3.48333 11.5167 3.70833 11.6167C3.79167 11.65 3.875 11.6667 3.95833 11.6667C4.11667 11.6667 4.26667 11.6083 4.38333 11.5L6.90833 9.16667H7.94167C7.40833 8.55 7.08333 7.75 7.08333 6.875V2.29167Z" fill="#005BBB"/>
<path id="Vector_2" d="M3.33317 15.8333C4.25365 15.8333 4.99984 15.0871 4.99984 14.1667C4.99984 13.2462 4.25365 12.5 3.33317 12.5C2.4127 12.5 1.6665 13.2462 1.6665 14.1667C1.6665 15.0871 2.4127 15.8333 3.33317 15.8333Z" fill="#005BBB"/>
<path id="Vector_3" d="M4.375 16.667H2.29167C1.0275 16.667 0 17.6945 0 18.9587V19.3753C0 19.7203 0.28 20.0003 0.625 20.0003H6.04167C6.38667 20.0003 6.66667 19.7203 6.66667 19.3753V18.9587C6.66667 17.6945 5.63917 16.667 4.375 16.667Z" fill="#005BBB"/>
<path id="Vector_4" d="M16.6667 15.8333C17.5871 15.8333 18.3333 15.0871 18.3333 14.1667C18.3333 13.2462 17.5871 12.5 16.6667 12.5C15.7462 12.5 15 13.2462 15 14.1667C15 15.0871 15.7462 15.8333 16.6667 15.8333Z" fill="#005BBB"/>
<path id="Vector_5" d="M17.7085 16.667H15.6252C14.361 16.667 13.3335 17.6945 13.3335 18.9587V19.3753C13.3335 19.7203 13.6135 20.0003 13.9585 20.0003H19.3752C19.7202 20.0003 20.0002 19.7203 20.0002 19.3753V18.9587C20.0002 17.6945 18.9727 16.667 17.7085 16.667Z" fill="#005BBB"/>
<path id="Vector_6" d="M16.0418 11.6667C15.8877 11.6667 15.736 11.61 15.6177 11.5008L13.0893 9.16667H10.6252C9.361 9.16667 8.3335 8.13917 8.3335 6.875V2.29167C8.3335 1.0275 9.361 0 10.6252 0H17.7085C18.9727 0 20.0002 1.0275 20.0002 2.29167V6.875C20.0002 8.13917 18.9727 9.16667 17.7085 9.16667H16.6668V11.0417C16.6668 11.29 16.5202 11.5142 16.2927 11.6142C16.2118 11.6492 16.1268 11.6667 16.0418 11.6667Z" fill="#005BBB"/>
</g>
<defs>
<clipPath id="clip0_360_5655">
<rect width="20" height="20" fill="white"/>
</clipPath>
</defs>
</svg>
