<svg width="42" height="42" viewBox="0 0 42 42" fill="none" xmlns="http://www.w3.org/2000/svg">
<g id="chat (3) 1">
<g id="Group 34593">
<path id="Vector" d="M20.9407 3.90903C30.2835 3.76629 37.9091 11.1196 38.09 20.4618C38.1165 21.8333 37.9795 23.1685 37.6969 24.449C37.2187 26.6173 36.9344 28.8238 36.9344 31.0443V35.3364C36.9344 35.9939 36.4013 36.5271 35.7437 36.5271H31.4517C29.2312 36.5271 27.0247 36.8114 24.8564 37.2896C23.5759 37.572 22.2407 37.7092 20.8692 37.6826C11.5272 37.5017 4.17387 29.8765 4.31628 20.5338C4.4554 11.4146 11.8216 4.04823 20.9407 3.90903Z" fill="url(#paint0_linear_467_1849)"/>
<g id="Vector_2" filter="url(#filter0_d_467_1849)">
<path d="M29.153 24.2975C27.7082 24.2975 26.5369 23.1263 26.5369 21.6815C26.5369 20.2367 27.7082 19.0654 29.153 19.0654C30.5978 19.0654 31.769 20.2367 31.769 21.6815C31.769 23.1263 30.5978 24.2975 29.153 24.2975Z" fill="white"/>
</g>
<g id="Vector_3" filter="url(#filter1_d_467_1849)">
<path d="M21.7546 24.2975C20.3097 24.2975 19.1385 23.1263 19.1385 21.6815C19.1385 20.2367 20.3097 19.0654 21.7546 19.0654C23.1994 19.0654 24.3706 20.2367 24.3706 21.6815C24.3706 23.1263 23.1994 24.2975 21.7546 24.2975Z" fill="white"/>
</g>
<g id="Vector_4" filter="url(#filter2_d_467_1849)">
<path d="M14.3556 24.2975C12.9108 24.2975 11.7396 23.1263 11.7396 21.6815C11.7396 20.2367 12.9108 19.0654 14.3556 19.0654C15.8004 19.0654 16.9717 20.2367 16.9717 21.6815C16.9717 23.1263 15.8004 24.2975 14.3556 24.2975Z" fill="white"/>
</g>
</g>
</g>
<defs>
<filter id="filter0_d_467_1849" x="20.5371" y="17.0654" width="13.2319" height="13.2322" filterUnits="userSpaceOnUse" color-interpolation-filters="sRGB">
<feFlood flood-opacity="0" result="BackgroundImageFix"/>
<feColorMatrix in="SourceAlpha" type="matrix" values="0 0 0 0 0 0 0 0 0 0 0 0 0 0 0 0 0 0 127 0" result="hardAlpha"/>
<feOffset dx="-2" dy="2"/>
<feGaussianBlur stdDeviation="2"/>
<feComposite in2="hardAlpha" operator="out"/>
<feColorMatrix type="matrix" values="0 0 0 0 0 0 0 0 0 0 0 0 0 0 0 0 0 0 0.15 0"/>
<feBlend mode="normal" in2="BackgroundImageFix" result="effect1_dropShadow_467_1849"/>
<feBlend mode="normal" in="SourceGraphic" in2="effect1_dropShadow_467_1849" result="shape"/>
</filter>
<filter id="filter1_d_467_1849" x="13.1387" y="17.0654" width="13.2319" height="13.2322" filterUnits="userSpaceOnUse" color-interpolation-filters="sRGB">
<feFlood flood-opacity="0" result="BackgroundImageFix"/>
<feColorMatrix in="SourceAlpha" type="matrix" values="0 0 0 0 0 0 0 0 0 0 0 0 0 0 0 0 0 0 127 0" result="hardAlpha"/>
<feOffset dx="-2" dy="2"/>
<feGaussianBlur stdDeviation="2"/>
<feComposite in2="hardAlpha" operator="out"/>
<feColorMatrix type="matrix" values="0 0 0 0 0 0 0 0 0 0 0 0 0 0 0 0 0 0 0.15 0"/>
<feBlend mode="normal" in2="BackgroundImageFix" result="effect1_dropShadow_467_1849"/>
<feBlend mode="normal" in="SourceGraphic" in2="effect1_dropShadow_467_1849" result="shape"/>
</filter>
<filter id="filter2_d_467_1849" x="5.73975" y="17.0654" width="13.2319" height="13.2322" filterUnits="userSpaceOnUse" color-interpolation-filters="sRGB">
<feFlood flood-opacity="0" result="BackgroundImageFix"/>
<feColorMatrix in="SourceAlpha" type="matrix" values="0 0 0 0 0 0 0 0 0 0 0 0 0 0 0 0 0 0 127 0" result="hardAlpha"/>
<feOffset dx="-2" dy="2"/>
<feGaussianBlur stdDeviation="2"/>
<feComposite in2="hardAlpha" operator="out"/>
<feColorMatrix type="matrix" values="0 0 0 0 0 0 0 0 0 0 0 0 0 0 0 0 0 0 0.15 0"/>
<feBlend mode="normal" in2="BackgroundImageFix" result="effect1_dropShadow_467_1849"/>
<feBlend mode="normal" in="SourceGraphic" in2="effect1_dropShadow_467_1849" result="shape"/>
</filter>
<linearGradient id="paint0_linear_467_1849" x1="27.3743" y1="18.0659" x2="5.88481" y2="39.5554" gradientUnits="userSpaceOnUse">
<stop stop-color="#C1E1FE"/>
<stop offset="1" stop-color="#57A0EC"/>
</linearGradient>
</defs>
</svg>
