<svg width="20" height="20" viewBox="0 0 20 20" fill="none" xmlns="http://www.w3.org/2000/svg">
<g id="compass (1) 1">
<path id="Vector" d="M7.26737 11.007C7.26737 11.777 6.33065 12.1627 5.78321 11.6181L4.06993 9.91496C3.5963 9.44412 2.82867 9.44412 2.35503 9.91496C1.91952 10.3479 1.87978 11.0372 2.26298 11.5169L6.61612 16.9663C7.71668 18.0604 9.23734 18.7372 10.9174 18.7372C14.2766 18.7372 17 16.0299 17 12.6904V6.24054C17 5.57257 16.4554 5.03118 15.7835 5.03118C15.1115 5.03118 14.5669 5.57257 14.5669 6.24054V9.8686V3.82183C14.5669 3.15386 14.0223 2.61247 13.3504 2.61247C12.6785 2.61247 12.1339 3.15386 12.1339 3.82183V9.06237V8.25613V2.20935C12.1339 1.54139 11.5893 1 10.9174 1C10.2454 1 9.70083 1.54139 9.70083 2.20935V8.25613V9.06237V3.01559C9.70083 2.34762 9.15623 1.80624 8.48431 1.80624C7.81238 1.80624 7.26778 2.34762 7.26778 3.01559V9.06237L7.26737 11.007Z" stroke="#005BBB" stroke-width="1.5" stroke-miterlimit="10" stroke-linecap="round" stroke-linejoin="round"/>
</g>
</svg>
