<svg width="34" height="34" viewBox="0 0 34 34" fill="none" xmlns="http://www.w3.org/2000/svg">
<g id="infinity (1) 1" clip-path="url(#clip0_502_3175)">
<g id="Infinity">
<path id="Vector" d="M25.463 8.52118C24.2283 8.51303 23.0067 8.77455 21.8836 9.28749C20.7604 9.80042 19.7628 10.5524 18.9605 11.4909L17.7014 12.9412L20.5117 16.1871L22.1692 14.2746C22.576 13.7998 23.0814 13.4193 23.6503 13.1596C24.2191 12.9 24.8377 12.7674 25.463 12.7712C26.0239 12.7623 26.5811 12.8651 27.1019 13.0736C27.6228 13.2821 28.0969 13.5922 28.4968 13.9858C28.8966 14.3793 29.2142 14.8485 29.4309 15.366C29.6477 15.8835 29.7593 16.4389 29.7593 16.9999C29.7593 17.561 29.6477 18.1164 29.4309 18.6339C29.2142 19.1514 28.8966 19.6205 28.4968 20.0141C28.0969 20.4076 27.6228 20.7177 27.1019 20.9262C26.5811 21.1348 26.0239 21.2376 25.463 21.2287C24.8397 21.2328 24.223 21.1009 23.656 20.8421C23.0889 20.5834 22.5852 20.204 22.1798 19.7306C16.0248 12.6235 18.9493 16.0118 15.0398 11.4856C14.2364 10.5487 13.2385 9.79821 12.1155 9.28626C10.9925 8.77432 9.77148 8.51323 8.53734 8.52118C6.28864 8.52118 4.13204 9.41448 2.54196 11.0045C0.951888 12.5946 0.0585938 14.7512 0.0585938 16.9999C0.0585938 19.2486 0.951888 21.4052 2.54196 22.9953C4.13204 24.5854 6.28864 25.4787 8.53734 25.4787C9.77203 25.4868 10.9936 25.2253 12.1167 24.7124C13.2399 24.1994 14.2375 23.4475 15.0398 22.509L16.2989 21.0587L13.4886 17.8127L11.8311 19.7252C11.4243 20.2001 10.9189 20.5806 10.35 20.8402C9.7812 21.0999 9.16262 21.2324 8.53734 21.2287C7.97638 21.2376 7.41925 21.1348 6.8984 20.9262C6.37755 20.7177 5.9034 20.4076 5.50355 20.0141C5.10371 19.6205 4.78616 19.1514 4.56941 18.6339C4.35266 18.1164 4.24103 17.561 4.24103 16.9999C4.24103 16.4389 4.35266 15.8835 4.56941 15.366C4.78616 14.8485 5.10371 14.3793 5.50355 13.9858C5.9034 13.5922 6.37755 13.2821 6.8984 13.0736C7.41925 12.8651 7.97638 12.7623 8.53734 12.7712C9.16062 12.7671 9.77729 12.899 10.3443 13.1577C10.9114 13.4165 11.4151 13.7958 11.8205 14.2693C17.9755 21.3764 15.051 17.9881 18.9605 22.5143C19.8818 23.6117 21.065 24.459 22.4007 24.9776C23.7364 25.4963 25.1814 25.6696 26.6019 25.4814C28.0223 25.2933 29.3724 24.7498 30.527 23.9013C31.6816 23.0528 32.6035 21.9268 33.2074 20.6273C33.8112 19.3279 34.0774 17.8972 33.9814 16.4675C33.8854 15.0379 33.4303 13.6555 32.6582 12.4485C31.886 11.2415 30.8218 10.2488 29.5641 9.56229C28.3064 8.8758 26.8958 8.51771 25.463 8.52118Z" fill="#F5B000"/>
</g>
</g>
<defs>
<clipPath id="clip0_502_3175">
<rect width="34" height="34" fill="white"/>
</clipPath>
</defs>
</svg>
