<svg width="20" height="20" viewBox="0 0 20 20" fill="none" xmlns="http://www.w3.org/2000/svg">
<g id="lamp (1) 1" clip-path="url(#clip0_360_5671)">
<path id="Vector" d="M10 2.88083C9.655 2.88083 9.375 2.60083 9.375 2.25583V0.625C9.375 0.28 9.655 0 10 0C10.345 0 10.625 0.28 10.625 0.625V2.25583C10.625 2.60083 10.345 2.88083 10 2.88083Z" fill="#005BBB"/>
<path id="Vector_2" d="M15.4759 5.14908C15.3159 5.14908 15.1559 5.08824 15.0342 4.96574C14.79 4.72158 14.79 4.32574 15.0342 4.08158L16.1875 2.92824C16.4317 2.68408 16.8275 2.68408 17.0717 2.92824C17.3159 3.17241 17.3159 3.56824 17.0717 3.81241L15.9184 4.96574C15.7959 5.08741 15.6359 5.14908 15.4759 5.14908Z" fill="#005BBB"/>
<path id="Vector_3" d="M19.375 10.625H17.7441C17.3991 10.625 17.1191 10.345 17.1191 10C17.1191 9.655 17.3991 9.375 17.7441 9.375H19.375C19.72 9.375 20 9.655 20 10C20 10.345 19.72 10.625 19.375 10.625Z" fill="#005BBB"/>
<path id="Vector_4" d="M16.6292 17.2545C16.4692 17.2545 16.3092 17.1937 16.1875 17.0712L15.0342 15.9179C14.79 15.6737 14.79 15.2779 15.0342 15.0337C15.2784 14.7895 15.6742 14.7895 15.9184 15.0337L17.0717 16.187C17.3159 16.4312 17.3159 16.827 17.0717 17.0712C16.9492 17.1937 16.7892 17.2545 16.6292 17.2545Z" fill="#005BBB"/>
<path id="Vector_5" d="M3.37089 17.2545C3.21089 17.2545 3.05089 17.1937 2.92922 17.0712C2.68505 16.827 2.68505 16.4312 2.92922 16.187L4.08255 15.0337C4.32672 14.7895 4.72255 14.7895 4.96672 15.0337C5.21089 15.2779 5.21089 15.6737 4.96672 15.9179L3.81339 17.0712C3.69089 17.1937 3.53089 17.2545 3.37089 17.2545Z" fill="#005BBB"/>
<path id="Vector_6" d="M2.25583 10.625H0.625C0.28 10.625 0 10.345 0 10C0 9.655 0.28 9.375 0.625 9.375H2.25583C2.60083 9.375 2.88083 9.655 2.88083 10C2.88083 10.345 2.60083 10.625 2.25583 10.625Z" fill="#005BBB"/>
<path id="Vector_7" d="M4.52422 5.14908C4.36422 5.14908 4.20422 5.08824 4.08255 4.96574L2.92922 3.81241C2.68505 3.56824 2.68505 3.17241 2.92922 2.92824C3.17339 2.68408 3.56922 2.68408 3.81339 2.92824L4.96672 4.08158C5.21089 4.32574 5.21089 4.72158 4.96672 4.96574C4.84339 5.08741 4.68422 5.14908 4.52422 5.14908Z" fill="#005BBB"/>
<path id="Vector_8" d="M12.5 17.5V18.5417C12.5 19.3417 11.8417 20 11.0417 20H8.95833C8.25833 20 7.5 19.4667 7.5 18.3V17.5H12.5Z" fill="#005BBB"/>
<path id="Vector_9" d="M13.6749 5.46658C12.3083 4.35825 10.5083 3.92492 8.74993 4.29992C6.5416 4.75825 4.74993 6.55825 4.2916 8.76658C3.82493 11.0332 4.67493 13.2832 6.4916 14.6582C6.98326 15.0249 7.32493 15.5916 7.4416 16.2499V16.2582C7.45827 16.2499 7.48327 16.2499 7.49993 16.2499H12.4999C12.5166 16.2499 12.5249 16.2499 12.5416 16.2582V16.2499C12.6583 15.6166 13.0333 15.0332 13.6083 14.5832C15.0166 13.4666 15.8333 11.7999 15.8333 9.99992C15.8333 8.23325 15.0499 6.58325 13.6749 5.46658ZM13.1249 10.4166C12.7833 10.4166 12.4999 10.1332 12.4999 9.79158C12.4999 8.52492 11.4749 7.49992 10.2083 7.49992C9.8666 7.49992 9.58327 7.21658 9.58327 6.87492C9.58327 6.53325 9.8666 6.24992 10.2083 6.24992C12.1583 6.24992 13.7499 7.84158 13.7499 9.79158C13.7499 10.1332 13.4666 10.4166 13.1249 10.4166Z" fill="#005BBB"/>
<path id="Vector_10" d="M7.44189 16.25H7.50023C7.48356 16.25 7.45856 16.25 7.44189 16.2583V16.25Z" fill="#005BBB"/>
<path id="Vector_11" d="M12.5417 16.25V16.2583C12.525 16.25 12.5167 16.25 12.5 16.25H12.5417Z" fill="#005BBB"/>
</g>
<defs>
<clipPath id="clip0_360_5671">
<rect width="20" height="20" fill="white"/>
</clipPath>
</defs>
</svg>
