<svg width="36" height="35" viewBox="0 0 36 35" fill="none" xmlns="http://www.w3.org/2000/svg">
<g id="Group">
<g id="Group_2">
<path id="Vector" d="M17.5016 0C13.6785 0 9.94418 1.28095 6.92106 3.56742L7.06637 2.09868L4.8241 1.87671L4.3925 6.23784C4.32811 6.88894 4.85947 7.47542 5.51364 7.47542H9.83947V5.22231H8.46728C11.0678 3.31352 14.2396 2.25326 17.5016 2.25326C25.9088 2.25326 32.7485 9.09299 32.7485 17.5002C32.7485 17.9743 32.7266 18.4525 32.6832 18.9217L34.9269 19.1289C34.9765 18.5911 35.0017 18.0431 35.0017 17.5002C35.0017 7.96199 27.0398 0 17.5016 0Z" fill="#066FDE"/>
<path id="Vector_2" d="M2.61523 26.7089C3.0929 27.4794 3.63511 28.2189 4.22705 28.907L5.93533 27.4378C5.4193 26.8379 4.94665 26.1932 4.53038 25.5217L2.61523 26.7089Z" fill="#066FDE"/>
<path id="Vector_3" d="M10.7905 33.6688C11.6287 34.0169 12.501 34.3013 13.3834 34.514L13.9115 32.3236C13.1436 32.1384 12.3843 31.8909 11.6548 31.5879L10.7905 33.6688Z" fill="#066FDE"/>
<path id="Vector_4" d="M2.6953 21.1567L0.507324 21.695C0.724132 22.5766 1.01281 23.4481 1.36536 24.2855L3.44212 23.4114C3.13534 22.6824 2.88406 21.9239 2.6953 21.1567Z" fill="#066FDE"/>
<path id="Vector_5" d="M2.28989 16.4355L0.041935 16.2808C-0.0204375 17.1873 -0.0133327 18.0989 0.0639224 19.0043L2.30896 18.8128C2.24165 18.0225 2.23544 17.2268 2.28989 16.4355Z" fill="#066FDE"/>
<path id="Vector_6" d="M3.34662 11.8206L1.25565 10.981C0.917387 11.8234 0.643217 12.6991 0.440918 13.584L2.63742 14.0863C2.81354 13.3162 3.05211 12.5539 3.34662 11.8206Z" fill="#066FDE"/>
<path id="Vector_7" d="M6.15869 30.8283C6.84965 31.4167 7.59154 31.9551 8.36386 32.4287L9.54169 30.5077C8.8686 30.095 8.22192 29.6258 7.61958 29.1128L6.15869 30.8283Z" fill="#066FDE"/>
<path id="Vector_8" d="M31.5166 23.5089L33.5871 24.3979C33.9453 23.5636 34.24 22.6946 34.4631 21.8152L32.2789 21.2612C32.0848 22.0265 31.8283 22.7829 31.5166 23.5089Z" fill="#066FDE"/>
<path id="Vector_9" d="M28.9971 27.5155L30.6953 28.9964C31.2918 28.3124 31.8389 27.5768 32.3214 26.8101L30.4145 25.6099C29.994 26.278 29.5171 26.9192 28.9971 27.5155Z" fill="#066FDE"/>
<path id="Vector_10" d="M16.2585 32.6968L16.0776 34.9427C16.9832 35.0158 17.8947 35.0189 18.8007 34.9524L18.6358 32.7052C17.8482 32.7631 17.0421 32.7599 16.2585 32.6968Z" fill="#066FDE"/>
<path id="Vector_11" d="M20.9824 32.3477L21.4947 34.542C22.379 34.3355 23.2539 34.0572 24.0953 33.7148L23.2458 31.6277C22.5135 31.9259 21.752 32.1681 20.9824 32.3477Z" fill="#066FDE"/>
<path id="Vector_12" d="M25.3672 30.5626L26.5316 32.4916C27.3073 32.0234 28.0532 31.4898 28.7488 30.9056L27.2995 29.1802C26.6933 29.6894 26.0432 30.1545 25.3672 30.5626Z" fill="#066FDE"/>
</g>
<path id="Vector_13" d="M17.4993 6.89453C11.6416 6.89453 6.89307 11.6431 6.89307 17.5007C6.89307 23.3584 11.6416 28.1069 17.4993 28.1069C23.3569 28.1069 28.1055 23.3584 28.1055 17.5007C28.1055 11.6431 23.3569 6.89453 17.4993 6.89453ZM18.6981 22.8387V24.6106H16.2895V22.9829C15.3636 22.847 14.5405 22.4643 13.8056 21.8993L14.6693 19.4514C15.4394 20.0106 16.2504 20.516 17.2413 20.516C17.9088 20.516 18.34 20.2072 18.34 19.7293C18.34 19.3966 18.1852 19.025 17.0621 18.5629C15.591 17.9776 14.0858 17.1193 14.0858 15.1948C14.0858 13.7466 14.9687 12.5735 16.3967 12.1147V10.3908H18.7897V11.9624C19.581 12.0861 20.279 12.4365 20.9502 12.855L20.0495 15.265C19.3237 14.8296 18.6328 14.408 17.7465 14.408C17.1744 14.408 16.8464 14.6269 16.8464 15.0084C16.8464 15.2992 16.9473 15.5321 18.2969 16.0989C20.2467 16.9059 21.1162 17.9921 21.1162 19.6206C21.1162 21.1066 20.17 22.3612 18.6981 22.8387Z" fill="#066FDE"/>
</g>
</svg>
