<svg width="87" height="92" viewBox="0 0 87 92" fill="none" xmlns="http://www.w3.org/2000/svg">
<g id="Frame 336832">
<g id="Group 34574">
<g id="OBJECTS">
<g id="Group">
<path id="Vector" d="M72.392 20.0541C71.8994 19.0421 70.8009 18.2306 69.6607 18.013C68.9793 17.8831 68.2827 17.9652 67.6917 18.3432C66.6221 19.0269 66.321 20.3368 66.1046 21.5187C65.0451 27.3008 63.9858 33.0826 62.9265 38.8646C62.8333 39.373 62.3346 40.0411 61.9057 39.7095C62.1236 35.7013 62.3506 31.6932 62.5459 27.6839C62.6245 26.0663 62.5916 24.4078 62.5594 22.8038C62.5327 21.4651 62.5074 20.2003 62.5441 18.9875C62.5804 17.7831 62.6913 16.6321 62.7892 15.6167C62.8978 14.4869 62.9919 13.5113 62.9688 12.6967C62.8915 10.0015 61.0471 8.6944 59.3657 8.62036C56.8452 8.50964 55.3988 10.6954 55.1224 12.7734L54.7797 20.7264C54.7151 22.2286 54.46 23.7528 54.2136 25.2267C54.0225 26.3678 53.825 27.5476 53.7141 28.7215C53.6567 29.3267 53.6796 29.9337 53.7015 30.5204C53.7233 31.096 53.7439 31.6398 53.6955 32.1855C53.6061 33.2007 53.4289 34.2321 53.2578 35.2292C53.1754 35.7089 53.0931 36.1886 53.0195 36.6695C52.903 36.705 52.6904 36.6986 52.6451 36.6355C52.2984 33.2822 52.3611 29.8155 52.4218 26.4631C52.4305 25.9679 52.4395 25.4723 52.4473 24.977C52.4892 22.282 52.4563 19.5453 52.4243 16.8986L52.4086 15.5532C52.3907 13.9559 52.5455 12.3265 52.6956 10.7509C52.7713 9.95593 52.8496 9.13407 52.9061 8.29844C52.9061 6.00683 50.8981 4.65953 48.9143 4.51293C47.123 4.38112 45.1417 5.25862 44.7452 7.5185L44.3962 13.2902C44.3193 15.4119 44.0378 17.5268 43.7661 19.5719C43.4785 21.7332 43.1812 23.9679 43.1216 26.2271C43.0999 27.0448 43.1621 28.3371 43.2343 29.8335C43.2735 30.6435 43.3151 31.5055 43.3465 32.3651L43.1594 36.7978C43.1234 36.8174 43.0385 36.8469 42.9144 36.8483C42.7917 36.8498 42.7063 36.8223 42.672 36.8034L41.6362 29.9489C41.3956 28.3562 41.1972 26.6992 41.0052 25.0968C40.8056 23.4303 40.5993 21.7068 40.3399 19.9924C40.0593 18.1384 39.8682 16.2381 39.6834 14.3999C39.5891 13.4593 39.4943 12.5187 39.389 11.5901C39.2519 9.92871 37.7395 8.52676 35.7286 8.56591C35.02 8.57997 34.3312 8.81012 33.7575 9.19326C32.5266 10.0161 31.8222 11.3411 31.8726 12.7415C31.9387 14.5791 31.9431 16.6606 31.9483 18.8646C31.953 21.0219 31.9581 23.2529 32.0224 25.3899C32.0581 26.5748 32.1898 27.7085 32.3172 28.8046C32.4532 29.9724 32.5813 31.0758 32.5677 32.0706L32.4494 40.8063L33.1483 47.9197C33.1991 49.2804 32.6765 50.9146 31.817 51.1781C31.19 51.3689 30.3202 50.783 29.3675 49.5242L28.4686 48.3357C27.5506 47.122 25.8417 44.8626 24.7219 43.8356C23.4794 42.6957 22.11 41.6644 20.6524 40.7702C18.7287 39.5893 16.2491 39.4165 14.1561 40.3115C13.7719 40.4759 13.4269 40.7207 13.1974 41.0486C12.7036 41.7524 12.7381 42.6223 13.2266 43.273L16.8367 46.8882C17.8909 48.2956 18.7463 49.8248 19.3794 51.4339C19.4018 51.4916 21.7072 57.2579 23.7278 59.1181C27.3732 62.4747 29.217 67.3458 29.2351 67.3943L29.277 67.4753C30.2756 68.9311 31.7059 70.194 33.0894 71.4153C35.1106 73.2 37.0199 74.8855 37.2529 76.8843C37.446 78.5422 37.36 81.4378 37.2843 83.9928C37.2691 84.5018 37.2544 84.3769 37.2423 86.5839C37.1868 92.7818 64.4603 93.4861 64.4883 86.5839C64.5077 81.7841 64.7703 78.609 65.5809 76.7369C66.3419 74.979 67.5558 73.4143 68.3566 71.6715C69.5424 69.0916 69.7757 66.2373 69.9531 63.4407C70.7606 50.7141 70.7232 37.9172 72.6279 25.2902C72.8922 23.5354 73.1791 21.6707 72.392 20.0541Z" fill="#EFF2FD"/>
<path id="Vector_2" fill-rule="evenodd" clip-rule="evenodd" d="M53.9629 52.9867C56.2189 53.8522 58.5895 54.4406 60.9512 54.4973C58.4891 54.1073 56.3967 53.4988 54.3968 52.6805C53.934 52.4909 53.6059 52.0987 53.521 51.639C53.4517 51.2628 53.3724 50.9292 53.2824 50.6497L52.6422 48.9834L53.0183 50.71C53.0808 51.0086 53.1332 51.4064 53.1766 51.8778C53.1881 52.002 53.0476 52.0919 52.9271 52.0356C51.5293 51.3819 50.1436 50.6235 48.6719 49.7607C45.5892 47.9539 39.99 47.3039 36.3477 47.1952C36.3734 47.1995 36.4003 47.2038 36.426 47.208C43.7053 50.2511 47.9775 56.5555 49.7951 63.5594C50.2137 65.1721 50.3629 66.4683 50.5493 68.1002C50.7545 59.7537 45.5585 49.8349 36.444 47.2111C40.2474 47.8539 45.0408 48.2482 48.3032 50.1929C49.5953 50.963 50.9873 51.7068 52.4415 52.3546C52.9403 52.5767 53.2611 53.0358 53.2826 53.5456C53.4555 57.6607 53.2304 64.2408 52.8041 66.3695C53.7691 63.922 54.1358 57.2773 53.7268 53.1445C53.7154 53.0255 53.8433 52.9407 53.9629 52.9867Z" fill="#005BBB"/>
<path id="Vector_3" d="M36.3477 47.1952C36.3734 47.1995 36.4003 47.2038 36.426 47.208C43.7053 50.2511 47.9775 56.5555 49.7951 63.5594C50.2137 65.1721 50.3629 66.4683 50.5493 68.1002C50.7545 59.7537 45.5585 49.8349 36.444 47.2111" stroke="#FFCDCD" stroke-width="2" stroke-linejoin="bevel"/>
<path id="Vector_4" fill-rule="evenodd" clip-rule="evenodd" d="M64.2936 52.1007C62.3295 51.8093 60.7418 51.5602 58.92 50.6431C54.9882 48.6637 56.2037 48.4651 51.358 47.0894C47.9762 46.1294 48.7329 46.1498 46.2754 45.2084C49.8628 47.6225 51.6224 47.1285 54.993 48.9592C59.5987 51.4604 59.4014 51.8458 64.5286 52.2414L64.7824 52.262C64.5048 52.1343 64.5503 52.1389 64.2936 52.1007Z" fill="#005BBB"/>
<path id="Vector_5" fill-rule="evenodd" clip-rule="evenodd" d="M47.7329 69.3996C47.8263 64.1851 46.2309 60.7304 42.5532 56.8323C45.9982 62.0909 46.5866 63.3211 47.7329 69.3996Z" fill="#005BBB"/>
<path id="Vector_6" fill-rule="evenodd" clip-rule="evenodd" d="M58.6313 56.8319C57.7662 60.9767 55.5952 66.4341 52.5884 69.6478C56.3079 66.9134 58.5632 61.1256 58.6313 56.8319Z" fill="#005BBB"/>
<path id="Vector_7" fill-rule="evenodd" clip-rule="evenodd" d="M27.1344 59.3452C26.6178 58.1905 28.4858 58.2303 29.5673 56.0327C30.0372 58.2379 28.0897 57.7919 27.1344 59.3452Z" fill="#005BBB"/>
<path id="Vector_8" d="M37.7664 77.2351L37.8253 76.0801C37.7121 76.4616 37.7005 76.8522 37.7664 77.2351Z" fill="#005BBB"/>
<path id="Vector_9" d="M71.3978 26.749C71.3973 26.7525 71.3971 26.756 71.3967 26.7593C71.3174 27.5545 70.7266 28.2301 69.8927 28.4495C69.1463 28.6461 68.3408 28.6521 67.5991 28.4386C67.3706 28.3728 67.1475 28.2876 66.947 28.1676C66.7606 28.0562 66.6003 27.9193 66.4591 27.7655C66.1175 27.3935 65.9565 26.9082 65.9885 26.4221C66.0212 25.9263 66.0674 25.4443 66.1579 25.0375L67.2066 20.3287C67.4735 19.13 68.6167 18.685 69.5701 18.7811C70.7614 18.8999 72.1386 19.9012 72.1161 22.3291C72.0485 22.6264 71.6155 24.5834 71.3978 26.749ZM70.9213 34.014C70.8216 34.915 70.7246 35.7671 70.631 36.5702C70.5862 36.9546 70.381 37.3103 70.0495 37.5477C69.5771 37.8859 68.9662 38.0835 68.363 38.1202C67.3569 38.1813 66.3693 37.8746 65.4368 37.5213C65.1942 37.4295 64.9498 37.3324 64.7453 37.1813C64.7424 37.179 64.7392 37.1767 64.7363 37.1744C64.2962 36.8437 64.1284 36.2922 64.2511 35.7813C64.3006 35.5745 64.3461 35.3864 64.3461 35.3864C64.7677 33.6535 65.282 31.5333 65.6774 29.4481C65.7397 29.1191 66.0257 28.8659 66.3854 28.8242C66.8003 28.7764 67.2199 28.7791 67.6336 28.8321L69.4505 29.0651C69.8183 29.1124 70.1996 29.1639 70.511 29.3507C70.6149 29.413 70.7074 29.4883 70.7948 29.5691C71.0524 29.808 71.1852 30.1361 71.1684 30.4722C71.126 31.3132 71.0326 33.0074 70.9213 34.014ZM69.9836 43.4141C69.9755 45.6766 69.9196 47.939 69.8324 50.2002C69.6608 54.6542 69.3667 59.1027 69.0728 63.5507C68.899 66.1813 68.7117 68.8677 67.6215 71.3047C66.833 73.0667 65.5976 74.6361 64.8138 76.4C64.5815 76.9232 64.3923 77.4565 64.2384 77.9976C64.1295 78.3808 63.9351 78.7411 63.6694 79.0531C62.0122 81.0003 59.0935 81.7504 56.5692 82.1927C52.1007 82.9758 47.5516 82.2849 43.2144 81.1974C41.8243 80.8489 40.4059 80.4389 39.2957 79.593L39.2823 79.5827C38.5921 79.0525 38.2001 78.2634 38.1428 77.4375C38.1271 77.211 38.1081 76.9985 38.0852 76.8021C37.8195 74.5237 35.8035 72.7437 33.6687 70.8592C32.3337 69.6806 30.9538 68.462 30.0103 67.1007C29.8062 66.567 27.9607 61.9254 24.3197 58.5733C23.5317 57.8478 22.6023 56.299 21.7983 54.7362C21.5129 54.1817 21.5304 53.5366 21.8335 52.9901C22.0203 52.6529 22.2506 52.3341 22.5075 52.0404C23.1802 51.2716 24.0294 50.6525 24.8705 50.0402C25.1405 49.8441 25.4178 49.6453 25.7047 49.4605C26.6695 48.8393 28.0171 49.0908 28.6916 49.9794C29.905 51.5779 31.0454 52.2263 32.0815 51.9095C33.4004 51.5049 34.0464 49.5382 33.9835 47.8717L33.287 40.7764C33.287 40.7764 33.3654 34.9853 33.3656 34.9806C33.4145 31.3833 40.8676 30.4728 41.4486 34.3007L41.8449 36.9226C41.8996 37.3464 42.3601 37.6364 42.9459 37.6186C43.5318 37.6048 43.9624 37.3021 43.994 36.8713L44.1842 32.3672L44.1837 32.3532C44.1703 31.9833 44.1548 31.6126 44.1387 31.2458C44.1044 30.4726 44.5885 29.7574 45.386 29.4935C45.8971 29.3241 46.4527 29.3186 46.9957 29.3151C48.5482 29.3052 51.0669 29.2835 51.5259 31.0278C51.98 32.7543 51.6265 34.9177 51.8117 36.7086C51.8581 37.1565 52.2488 37.453 52.8072 37.4642C53.3305 37.4687 53.9216 37.2145 53.8293 36.6913C53.781 36.4168 53.8282 36.1396 53.9369 35.8799C54.4055 34.7601 53.8623 32.9791 54.5486 31.7977C55.3638 30.3953 58.9395 31.1355 60.3716 31.3264C61.7575 31.5112 61.5165 32.7911 61.3987 33.6962C61.2004 35.2208 61.1883 36.7923 61.0779 38.3258C61.0279 39.0179 60.9943 39.7715 61.5219 40.3099C61.8288 40.623 62.3173 40.7597 62.7362 40.5892C63.2093 40.3965 63.2277 39.9808 63.3621 39.6212C64.0215 37.8542 66.5118 38.0231 68.0818 38.446C70.7157 39.1551 69.9908 41.4477 69.9836 43.4141ZM19.1342 48.9891C18.1443 47.119 16.7649 45.4248 15.0934 44.025C14.7063 43.701 14.2975 43.3856 14.0224 42.9759C13.7472 42.5661 13.6262 42.0322 13.858 41.6005C14.0343 41.272 14.3842 41.0518 14.7435 40.8942C15.9135 40.3815 17.3005 40.4001 18.5384 40.7527C19.7765 41.1054 20.8842 41.7682 21.9007 42.5083C22.9844 43.2971 23.985 44.1829 24.884 45.1491C25.7159 46.0433 25.9287 47.0505 25.6812 47.9853C25.2706 49.5343 23.5742 50.8954 21.8189 50.947C20.3687 50.9895 19.6989 50.0555 19.1342 48.9891ZM33.1495 28.7224C33.0238 27.6411 32.8939 26.5231 32.8592 25.3685C32.8386 24.6858 32.8251 23.9923 32.8153 23.2946C32.8081 22.7887 33.0837 22.3148 33.5435 22.0381L33.7124 21.9364C34.3246 21.5681 35.051 21.4136 35.7813 21.4499C36.7831 21.4994 38.038 21.1757 38.9875 21.6823C39.1201 21.7531 39.2409 21.8374 39.3528 21.9314C39.662 22.1913 39.8503 22.5522 39.8987 22.935C39.9942 23.6908 40.0847 24.4417 40.1731 25.1814C40.3154 26.3695 40.4619 27.5867 40.6265 28.7886C40.7466 29.6663 40.2589 30.5285 39.3979 30.9212C38.9552 31.1229 38.4716 31.2714 38.0001 31.3906C37.0933 31.6201 36.15 31.7982 35.2166 31.6927L35.1965 31.6902C34.1616 31.5677 33.3686 30.7731 33.2709 29.8166C33.2344 29.459 33.1927 29.0944 33.1495 28.7224ZM32.7853 18.863C32.7803 16.6531 32.7759 14.5656 32.7091 12.7159C32.6681 11.5675 33.2481 10.4811 34.2608 9.80936C35.0677 9.27501 36.1256 9.1884 37.0221 9.58455C37.8939 9.96977 38.481 10.7607 38.5554 11.6594C38.6614 12.5957 38.7557 13.5332 38.85 14.4709C38.9909 15.8739 39.1376 17.3123 39.324 18.7436C39.4292 19.5518 38.9653 20.3501 38.1473 20.6586C38.1419 20.6607 38.1365 20.6625 38.1313 20.6646C37.3005 20.9725 36.3767 20.9758 35.4823 20.9321C35.1441 20.9154 34.7946 20.8869 34.4527 20.8327C33.4922 20.6801 32.788 19.9156 32.7857 19.0181C32.7855 18.9663 32.7855 18.9145 32.7853 18.863ZM43.9584 26.246C44.0173 24.0243 44.3121 21.8083 44.5968 19.6656C44.5974 19.6611 44.5979 19.6566 44.5986 19.652C44.7289 18.6729 45.6095 17.9133 46.6807 17.8852C46.7027 17.8846 46.7246 17.8842 46.7463 17.8838C47.5501 17.8679 48.3545 17.8898 49.1539 17.9667C49.3773 17.9879 49.6042 18.015 49.8299 18.0508C50.8644 18.2148 51.6126 19.0515 51.6202 20.0177C51.6334 21.6638 51.6357 23.3231 51.6101 24.9659C51.6025 25.4609 51.5936 25.9556 51.5846 26.4501C51.583 26.5419 51.5812 26.6337 51.5797 26.7255C51.5662 27.4842 51.0779 28.1886 50.3078 28.4588C50.3024 28.4605 50.297 28.4625 50.2916 28.4642C49.7688 28.6436 49.1985 28.6568 48.6405 28.6605C47.6881 28.6667 46.7204 28.6479 45.8091 28.393C45.5499 28.3204 45.2952 28.2262 45.0536 28.1103C44.3625 27.7795 43.9458 27.1068 43.9555 26.3897C43.9561 26.3402 43.9573 26.2922 43.9584 26.246ZM45.0954 15.4384C45.1581 14.7366 45.207 14.0315 45.2325 13.3245L45.575 7.62188C45.9155 5.74128 47.5471 5.18362 48.8475 5.28117C50.4485 5.39936 52.0689 6.4738 52.0698 8.27437C52.0149 9.07619 51.937 9.8935 51.8617 10.6835C51.7233 12.1379 51.581 13.6373 51.5712 15.1305C51.5691 15.4301 51.4746 15.7238 51.2882 15.9692C50.8721 16.5175 50.231 16.9383 49.5309 17.1385C48.3885 17.4654 47.1361 17.2876 46.0199 16.8921C45.9954 16.8834 45.9686 16.8723 45.9397 16.8591C45.3681 16.5976 45.043 16.024 45.0954 15.4384ZM54.6949 27.5429C54.7966 26.8042 54.9198 26.0661 55.0407 25.3441C55.239 24.1596 55.441 22.9428 55.5499 21.7197C55.5566 21.6456 55.6017 21.5794 55.6718 21.5421C56.1482 21.2883 56.674 21.1214 57.2192 21.0527C58.5431 20.8857 59.9084 21.0187 61.1686 21.426C61.4883 21.5293 61.7038 21.8055 61.7091 22.1175C61.7134 22.3487 61.7176 22.5817 61.7226 22.818C61.7541 24.4099 61.7873 26.056 61.7096 27.6493C61.698 27.8855 61.6863 28.1204 61.6748 28.3542C61.6182 29.4982 60.7139 30.4858 59.4834 30.6533C59.3999 30.6646 59.3163 30.6731 59.2327 30.6789C58.1643 30.7514 57.1097 30.4322 56.1288 30.0356C56.09 30.0197 56.0499 30.0016 56.0089 29.9816C55.0598 29.5143 54.5594 28.5258 54.6949 27.5429ZM55.9554 12.8516C56.2912 10.3732 57.885 9.32698 59.3258 9.39029C60.6769 9.44968 62.0684 10.5014 62.1318 12.717C62.1538 13.4872 62.0619 14.4425 61.9553 15.5485C61.8823 16.3084 61.7799 17.9005 61.7313 18.7077C61.7049 19.142 61.497 19.5578 61.1272 19.8288C60.9798 19.937 60.8183 20.0294 60.6494 20.1026C60.0177 20.3771 59.3004 20.4295 58.6022 20.4305C57.9589 20.4314 57.3005 20.3893 56.7096 20.1558C56.7053 20.154 56.7013 20.1525 56.6971 20.1507C56.0606 19.8956 55.6794 19.2864 55.7067 18.6479L55.9554 12.8516ZM72.3919 20.0542C71.8993 19.042 70.801 18.2307 69.6606 18.0131C68.9792 17.8832 68.2828 17.9653 67.6916 18.3431C66.6222 19.0269 66.3211 20.3367 66.1045 21.5188C65.0452 27.3006 63.9857 33.0826 62.9266 38.8647C62.8334 39.373 62.3345 40.041 61.9056 39.7096C62.1238 35.7014 62.3505 31.6933 62.5458 27.684C62.6246 26.0661 62.5915 24.4077 62.5595 22.8038C62.5328 21.465 62.5075 20.2004 62.5442 18.9875C62.5805 17.7832 62.6914 16.6322 62.789 15.6167C62.8979 14.487 62.992 13.5114 62.9687 12.6967C62.8915 10.0015 61.047 8.69429 59.3656 8.62044C56.8451 8.50967 55.3987 10.6955 55.1225 12.7733L54.7796 20.7265C54.7151 22.2287 54.4601 23.7529 54.2135 25.2268C54.0227 26.3677 53.8251 27.5477 53.7142 28.7215C53.6569 29.3268 53.6795 29.9335 53.7017 30.5205C53.7234 31.0961 53.7438 31.6397 53.6956 32.1853C53.606 33.2008 53.4288 34.232 53.2579 35.2293C53.1752 35.709 53.093 36.1887 53.0193 36.6694C52.9031 36.7049 52.6903 36.6987 52.645 36.6356C52.2983 33.2821 52.3612 29.8154 52.4217 26.4629C52.4304 25.9677 52.4394 25.4724 52.4473 24.9769C52.4893 22.2821 52.4562 19.5452 52.4244 16.8985L52.4087 15.553C52.3906 13.956 52.5456 12.3266 52.6957 10.7508C52.7714 9.95596 52.8495 9.13395 52.906 8.29853C52.906 6.00672 50.898 4.65942 48.9145 4.51276C47.1229 4.38121 45.1416 5.2587 44.7451 7.51834L44.3963 13.2903C44.3192 15.412 44.0379 17.5268 43.766 19.572C43.4786 21.7333 43.1813 23.968 43.1215 26.2272C43.1 27.0449 43.1622 28.3371 43.2344 29.8335C43.2736 30.6436 43.315 31.5056 43.3466 32.3652L43.1593 36.7979C43.1235 36.8173 43.0384 36.847 42.9143 36.8484C42.7918 36.8498 42.7062 36.8224 42.6719 36.8034L41.6363 29.949C41.3955 28.3561 41.1971 26.6993 41.0054 25.0969C40.8057 23.4301 40.5992 21.7069 40.3398 19.9925C40.0592 18.1385 39.868 16.2379 39.6835 14.4C39.589 13.4594 39.4944 12.5188 39.3889 11.5901C39.2518 9.92854 37.7394 8.5266 35.7287 8.566C35.0201 8.57981 34.3311 8.80996 33.7577 9.19335C32.5268 10.016 31.8223 11.3412 31.8727 12.7415C31.9386 14.5792 31.9432 16.6607 31.9482 18.8646C31.9531 21.022 31.958 23.2528 32.0223 25.3899C32.0579 26.5749 32.1899 27.7083 32.3171 28.8045C32.453 29.9725 32.5812 31.0756 32.5678 32.0705L32.4493 40.8063L33.1482 47.9196C33.1992 49.2805 32.6764 50.9147 31.8171 51.1782C31.1901 51.369 30.3201 50.783 29.3676 49.5242L28.4685 48.3357C27.5505 47.1221 25.8416 44.8627 24.7218 43.8356C23.4793 42.6956 22.1099 41.6643 20.6525 40.77C18.7288 39.5896 16.2495 39.4165 14.1564 40.3114C13.772 40.4759 13.427 40.7207 13.1972 41.0488C12.7037 41.7525 12.738 42.6226 13.2268 43.273L16.8368 46.888C17.891 48.2955 18.7465 49.8249 19.3793 51.4337C19.4019 51.4917 21.7074 57.2578 23.7276 59.1182C27.3731 62.4746 29.2171 67.3459 29.235 67.3944L29.2771 67.4752C30.2755 68.9312 31.706 70.1941 33.0893 71.4154C35.1107 73.1999 37.0198 74.8856 37.2528 76.8842C37.4461 78.5422 37.3601 81.4379 37.2844 83.9927C37.2492 85.1777 37.2156 86.3064 37.2147 87.1876C37.2147 87.4072 37.4098 87.5827 37.6482 87.5802C37.8095 87.4412 37.9069 87.3573 38.068 87.2181C38.1569 86.2698 38.6578 85.381 39.4848 84.7982C40.603 84.0102 42.0295 83.7691 43.4134 83.7213C44.6956 83.6768 45.978 83.7941 47.2609 83.7885C49.5782 83.7782 51.861 83.3684 54.1624 83.1735C56.4596 82.9789 58.7444 83.0799 60.9798 83.6293C62.5698 84.0199 63.729 85.2783 63.8544 86.7887C63.86 86.8533 63.8654 86.9178 63.8708 86.9822C63.8876 87.1796 64.0659 87.3317 64.2807 87.333H64.289C64.5309 87.3342 64.722 87.1451 64.7029 86.923C64.4099 83.4857 64.1981 79.9304 65.5808 76.7369C66.342 74.9788 67.5559 73.4142 68.3567 71.6716C69.5426 69.0914 69.7758 66.2374 69.9532 63.4408C70.7605 50.7142 70.7231 37.917 72.6278 25.2903C72.8923 23.5353 73.1791 21.6706 72.3919 20.0542Z" fill="#005BBB"/>
</g>
</g>
</g>
<circle id="Ellipse 282" opacity="0.3" cx="48.5" cy="10" r="9.5" fill="#FF5758"/>
</g>
</svg>
