<svg width="87" height="89" viewBox="0 0 87 89" fill="none" xmlns="http://www.w3.org/2000/svg">
<g id="Frame 336831">
<g id="Group 34574">
<g id="OBJECTS">
<g id="Group">
<path id="Vector" d="M72.392 17.5541C71.8994 16.5421 70.8009 15.7306 69.6607 15.513C68.9793 15.3831 68.2827 15.4652 67.6917 15.8432C66.6221 16.5269 66.321 17.8368 66.1046 19.0187C65.0451 24.8008 63.9858 30.5826 62.9265 36.3646C62.8333 36.873 62.3346 37.5411 61.9057 37.2095C62.1236 33.2013 62.3506 29.1932 62.5459 25.1839C62.6245 23.5663 62.5916 21.9078 62.5594 20.3038C62.5327 18.9651 62.5074 17.7003 62.5441 16.4875C62.5804 15.2831 62.6913 14.1321 62.7892 13.1167C62.8978 11.9869 62.9919 11.0113 62.9688 10.1967C62.8915 7.50146 61.0471 6.1944 59.3657 6.12036C56.8452 6.00964 55.3988 8.19543 55.1224 10.2734L54.7797 18.2264C54.7151 19.7286 54.46 21.2528 54.2136 22.7267C54.0225 23.8678 53.825 25.0476 53.7141 26.2215C53.6567 26.8267 53.6796 27.4337 53.7015 28.0204C53.7233 28.596 53.7439 29.1398 53.6955 29.6855C53.6061 30.7007 53.4289 31.7321 53.2578 32.7292C53.1754 33.2089 53.0931 33.6886 53.0195 34.1695C52.903 34.205 52.6904 34.1986 52.6451 34.1355C52.2984 30.7822 52.3611 27.3155 52.4218 23.9631C52.4305 23.4679 52.4395 22.9723 52.4473 22.477C52.4892 19.782 52.4563 17.0453 52.4243 14.3986L52.4086 13.0532C52.3907 11.4559 52.5455 9.82649 52.6956 8.25092C52.7713 7.45593 52.8496 6.63407 52.9061 5.79844C52.9061 3.50683 50.8981 2.15953 48.9143 2.01293C47.123 1.88112 45.1417 2.75862 44.7452 5.0185L44.3962 10.7902C44.3193 12.9119 44.0378 15.0268 43.7661 17.0719C43.4785 19.2332 43.1812 21.4679 43.1216 23.7271C43.0999 24.5448 43.1621 25.8371 43.2343 27.3335C43.2735 28.1435 43.3151 29.0055 43.3465 29.8651L43.1594 34.2978C43.1234 34.3174 43.0385 34.3469 42.9144 34.3483C42.7917 34.3498 42.7063 34.3223 42.672 34.3034L41.6362 27.4489C41.3956 25.8562 41.1972 24.1992 41.0052 22.5968C40.8056 20.9303 40.5993 19.2068 40.3399 17.4924C40.0593 15.6384 39.8682 13.7381 39.6834 11.8999C39.5891 10.9593 39.4943 10.0187 39.389 9.09005C39.2519 7.42871 37.7395 6.02676 35.7286 6.06591C35.02 6.07997 34.3312 6.31012 33.7575 6.69326C32.5266 7.51611 31.8222 8.84114 31.8726 10.2415C31.9387 12.0791 31.9431 14.1606 31.9483 16.3646C31.953 18.5219 31.9581 20.7529 32.0224 22.8899C32.0581 24.0748 32.1898 25.2085 32.3172 26.3046C32.4532 27.4724 32.5813 28.5758 32.5677 29.5706L32.4494 38.3063L33.1483 45.4197C33.1991 46.7804 32.6765 48.4146 31.817 48.6781C31.19 48.8689 30.3202 48.283 29.3675 47.0242L28.4686 45.8357C27.5506 44.622 25.8417 42.3626 24.7219 41.3356C23.4794 40.1957 22.11 39.1644 20.6524 38.2702C18.7287 37.0893 16.2491 36.9165 14.1561 37.8115C13.7719 37.9759 13.4269 38.2207 13.1974 38.5486C12.7036 39.2524 12.7381 40.1223 13.2266 40.773L16.8367 44.3882C17.8909 45.7956 18.7463 47.3248 19.3794 48.9339C19.4018 48.9916 21.7072 54.7579 23.7278 56.6181C27.3732 59.9747 29.217 64.8458 29.2351 64.8943L29.277 64.9753C30.2756 66.4311 31.7059 67.694 33.0894 68.9153C35.1106 70.7 37.0199 72.3855 37.2529 74.3843C37.446 76.0422 37.36 78.9378 37.2843 81.4928C37.2691 82.0018 37.2544 81.8769 37.2423 84.0839C37.1868 90.2818 64.4603 90.9861 64.4883 84.0839C64.5077 79.2841 64.7703 76.109 65.5809 74.2369C66.3419 72.479 67.5558 70.9143 68.3566 69.1715C69.5424 66.5916 69.7757 63.7373 69.9531 60.9407C70.7606 48.2141 70.7232 35.4172 72.6279 22.7902C72.8922 21.0354 73.1791 19.1707 72.392 17.5541Z" fill="#EFF2FD"/>
<path id="Vector_2" fill-rule="evenodd" clip-rule="evenodd" d="M53.9629 50.4867C56.2189 51.3522 58.5895 51.9406 60.9512 51.9973C58.4891 51.6073 56.3967 50.9988 54.3968 50.1805C53.934 49.9909 53.6059 49.5987 53.521 49.139C53.4517 48.7628 53.3724 48.4292 53.2824 48.1497L52.6422 46.4834L53.0183 48.21C53.0808 48.5086 53.1332 48.9064 53.1766 49.3778C53.1881 49.502 53.0476 49.5919 52.9271 49.5356C51.5293 48.8819 50.1436 48.1235 48.6719 47.2607C45.5892 45.4539 39.99 44.8039 36.3477 44.6952C36.3734 44.6995 36.4003 44.7038 36.426 44.708C43.7053 47.7511 47.9775 54.0555 49.7951 61.0594C50.2137 62.6721 50.3629 63.9683 50.5493 65.6002C50.7545 57.2537 45.5585 47.3349 36.444 44.7111C40.2474 45.3539 45.0408 45.7482 48.3032 47.6929C49.5953 48.463 50.9873 49.2068 52.4415 49.8546C52.9403 50.0767 53.2611 50.5358 53.2826 51.0456C53.4555 55.1607 53.2304 61.7408 52.8041 63.8695C53.7691 61.422 54.1358 54.7773 53.7268 50.6445C53.7154 50.5255 53.8433 50.4407 53.9629 50.4867Z" fill="#005BBB"/>
<path id="Vector_3" d="M36.426 44.708C36.4003 44.7038 36.3734 44.6995 36.3477 44.6952C39.99 44.8039 45.5892 45.4539 48.6719 47.2607C50.1436 48.1235 51.5293 48.8819 52.9271 49.5356C54.927 50.3539 58.4891 51.6073 60.9512 51.9973C58.5895 51.9406 56.2189 51.3522 53.9629 50.4867L52.4415 49.8546C50.9873 49.2068 49.5953 48.463 48.3032 47.6929C45.0408 45.7482 40.2474 45.3539 36.444 44.7111" stroke="#FFCDCD" stroke-width="2" stroke-linejoin="bevel"/>
<path id="Vector_4" fill-rule="evenodd" clip-rule="evenodd" d="M64.2936 49.6007C62.3295 49.3093 60.7418 49.0602 58.92 48.1431C54.9882 46.1637 56.2037 45.9651 51.358 44.5894C47.9762 43.6294 48.7329 43.6498 46.2754 42.7084C49.8628 45.1225 51.6224 44.6285 54.993 46.4592C59.5987 48.9604 59.4014 49.3458 64.5286 49.7414L64.7824 49.762C64.5048 49.6343 64.5503 49.6389 64.2936 49.6007Z" fill="#005BBB"/>
<path id="Vector_5" fill-rule="evenodd" clip-rule="evenodd" d="M47.7329 66.8996C47.8263 61.6851 46.2309 58.2304 42.5532 54.3323C45.9982 59.5909 46.5866 60.8211 47.7329 66.8996Z" fill="#005BBB"/>
<path id="Vector_6" fill-rule="evenodd" clip-rule="evenodd" d="M58.6313 54.3319C57.7662 58.4767 55.5952 63.9341 52.5884 67.1478C56.3079 64.4134 58.5632 58.6256 58.6313 54.3319Z" fill="#005BBB"/>
<path id="Vector_7" fill-rule="evenodd" clip-rule="evenodd" d="M27.1344 56.8452C26.6178 55.6905 28.4858 55.7303 29.5673 53.5327C30.0372 55.7379 28.0897 55.2919 27.1344 56.8452Z" fill="#005BBB"/>
<path id="Vector_8" d="M37.7664 74.7351L37.8253 73.5801C37.7121 73.9616 37.7005 74.3522 37.7664 74.7351Z" fill="#005BBB"/>
<path id="Vector_9" d="M71.3978 24.249C71.3973 24.2525 71.3971 24.256 71.3967 24.2593C71.3174 25.0545 70.7266 25.7301 69.8927 25.9495C69.1463 26.1461 68.3408 26.1521 67.5991 25.9386C67.3706 25.8728 67.1475 25.7876 66.947 25.6676C66.7606 25.5562 66.6003 25.4193 66.4591 25.2655C66.1175 24.8935 65.9565 24.4082 65.9885 23.9221C66.0212 23.4263 66.0674 22.9443 66.1579 22.5375L67.2066 17.8287C67.4735 16.63 68.6167 16.185 69.5701 16.2811C70.7614 16.3999 72.1386 17.4012 72.1161 19.8291C72.0485 20.1264 71.6155 22.0834 71.3978 24.249ZM70.9213 31.514C70.8216 32.415 70.7246 33.2671 70.631 34.0702C70.5862 34.4546 70.381 34.8103 70.0495 35.0477C69.5771 35.3859 68.9662 35.5835 68.363 35.6202C67.3569 35.6813 66.3693 35.3746 65.4368 35.0213C65.1942 34.9295 64.9498 34.8324 64.7453 34.6813C64.7424 34.679 64.7392 34.6767 64.7363 34.6744C64.2962 34.3437 64.1284 33.7922 64.2511 33.2813C64.3006 33.0745 64.3461 32.8864 64.3461 32.8864C64.7677 31.1535 65.282 29.0333 65.6774 26.9481C65.7397 26.6191 66.0257 26.3659 66.3854 26.3242C66.8003 26.2764 67.2199 26.2791 67.6336 26.3321L69.4505 26.5651C69.8183 26.6124 70.1996 26.6639 70.511 26.8507C70.6149 26.913 70.7074 26.9883 70.7948 27.0691C71.0524 27.308 71.1852 27.6361 71.1684 27.9722C71.126 28.8132 71.0326 30.5074 70.9213 31.514ZM69.9836 40.9141C69.9755 43.1766 69.9196 45.439 69.8324 47.7002C69.6608 52.1542 69.3667 56.6027 69.0728 61.0507C68.899 63.6813 68.7117 66.3677 67.6215 68.8047C66.833 70.5667 65.5976 72.1361 64.8138 73.9C64.5815 74.4232 64.3923 74.9565 64.2384 75.4976C64.1295 75.8808 63.9351 76.2411 63.6694 76.5531C62.0122 78.5003 59.0935 79.2504 56.5692 79.6927C52.1007 80.4758 47.5516 79.7849 43.2144 78.6974C41.8243 78.3489 40.4059 77.9389 39.2957 77.093L39.2823 77.0827C38.5921 76.5525 38.2001 75.7634 38.1428 74.9375C38.1271 74.711 38.1081 74.4985 38.0852 74.3021C37.8195 72.0237 35.8035 70.2437 33.6687 68.3592C32.3337 67.1806 30.9538 65.962 30.0103 64.6007C29.8062 64.067 27.9607 59.4254 24.3197 56.0733C23.5317 55.3478 22.6023 53.799 21.7983 52.2362C21.5129 51.6817 21.5304 51.0366 21.8335 50.4901C22.0203 50.1529 22.2506 49.8341 22.5075 49.5404C23.1802 48.7716 24.0294 48.1525 24.8705 47.5402C25.1405 47.3441 25.4178 47.1453 25.7047 46.9605C26.6695 46.3393 28.0171 46.5908 28.6916 47.4794C29.905 49.0779 31.0454 49.7263 32.0815 49.4095C33.4004 49.0049 34.0464 47.0382 33.9835 45.3717L33.287 38.2764C33.287 38.2764 33.3654 32.4853 33.3656 32.4806C33.4145 28.8833 40.8676 27.9728 41.4486 31.8007L41.8449 34.4226C41.8996 34.8464 42.3601 35.1364 42.9459 35.1186C43.5318 35.1048 43.9624 34.8021 43.994 34.3713L44.1842 29.8672L44.1837 29.8532C44.1703 29.4833 44.1548 29.1126 44.1387 28.7458C44.1044 27.9726 44.5885 27.2574 45.386 26.9935C45.8971 26.8241 46.4527 26.8186 46.9957 26.8151C48.5482 26.8052 51.0669 26.7835 51.5259 28.5278C51.98 30.2543 51.6265 32.4177 51.8117 34.2086C51.8581 34.6565 52.2488 34.953 52.8072 34.9642C53.3305 34.9687 53.9216 34.7145 53.8293 34.1913C53.781 33.9168 53.8282 33.6396 53.9369 33.3799C54.4055 32.2601 53.8623 30.4791 54.5486 29.2977C55.3638 27.8953 58.9395 28.6355 60.3716 28.8264C61.7575 29.0112 61.5165 30.2911 61.3987 31.1962C61.2004 32.7208 61.1883 34.2923 61.0779 35.8258C61.0279 36.5179 60.9943 37.2715 61.5219 37.8099C61.8288 38.123 62.3173 38.2597 62.7362 38.0892C63.2093 37.8965 63.2277 37.4808 63.3621 37.1212C64.0215 35.3542 66.5118 35.5231 68.0818 35.946C70.7157 36.6551 69.9908 38.9477 69.9836 40.9141ZM19.1342 46.4891C18.1443 44.619 16.7649 42.9248 15.0934 41.525C14.7063 41.201 14.2975 40.8856 14.0224 40.4759C13.7472 40.0661 13.6262 39.5322 13.858 39.1005C14.0343 38.772 14.3842 38.5518 14.7435 38.3942C15.9135 37.8815 17.3005 37.9001 18.5384 38.2527C19.7765 38.6054 20.8842 39.2682 21.9007 40.0083C22.9844 40.7971 23.985 41.6829 24.884 42.6491C25.7159 43.5433 25.9287 44.5505 25.6812 45.4853C25.2706 47.0343 23.5742 48.3954 21.8189 48.447C20.3687 48.4895 19.6989 47.5555 19.1342 46.4891ZM33.1495 26.2224C33.0238 25.1411 32.8939 24.0231 32.8592 22.8685C32.8386 22.1858 32.8251 21.4923 32.8153 20.7946C32.8081 20.2887 33.0837 19.8148 33.5435 19.5381L33.7124 19.4364C34.3246 19.0681 35.051 18.9136 35.7813 18.9499C36.7831 18.9994 38.038 18.6757 38.9875 19.1823C39.1201 19.2531 39.2409 19.3374 39.3528 19.4314C39.662 19.6913 39.8503 20.0522 39.8987 20.435C39.9942 21.1908 40.0847 21.9417 40.1731 22.6814C40.3154 23.8695 40.4619 25.0867 40.6265 26.2886C40.7466 27.1663 40.2589 28.0285 39.3979 28.4212C38.9552 28.6229 38.4716 28.7714 38.0001 28.8906C37.0933 29.1201 36.15 29.2982 35.2166 29.1927L35.1965 29.1902C34.1616 29.0677 33.3686 28.2731 33.2709 27.3166C33.2344 26.959 33.1927 26.5944 33.1495 26.2224ZM32.7853 16.363C32.7803 14.1531 32.7759 12.0656 32.7091 10.2159C32.6681 9.06747 33.2481 7.98105 34.2608 7.30936C35.0677 6.77501 36.1256 6.6884 37.0221 7.08455C37.8939 7.46977 38.481 8.2607 38.5554 9.15943C38.6614 10.0957 38.7557 11.0332 38.85 11.9709C38.9909 13.3739 39.1376 14.8123 39.324 16.2436C39.4292 17.0518 38.9653 17.8501 38.1473 18.1586C38.1419 18.1607 38.1365 18.1625 38.1313 18.1646C37.3005 18.4725 36.3767 18.4758 35.4823 18.4321C35.1441 18.4154 34.7946 18.3869 34.4527 18.3327C33.4922 18.1801 32.788 17.4156 32.7857 16.5181C32.7855 16.4663 32.7855 16.4145 32.7853 16.363ZM43.9584 23.746C44.0173 21.5243 44.3121 19.3083 44.5968 17.1656C44.5974 17.1611 44.5979 17.1566 44.5986 17.152C44.7289 16.1729 45.6095 15.4133 46.6807 15.3852C46.7027 15.3846 46.7246 15.3842 46.7463 15.3838C47.5501 15.3679 48.3545 15.3898 49.1539 15.4667C49.3773 15.4879 49.6042 15.515 49.8299 15.5508C50.8644 15.7148 51.6126 16.5515 51.6202 17.5177C51.6334 19.1638 51.6357 20.8231 51.6101 22.4659C51.6025 22.9609 51.5936 23.4556 51.5846 23.9501C51.583 24.0419 51.5812 24.1337 51.5797 24.2255C51.5662 24.9842 51.0779 25.6886 50.3078 25.9588C50.3024 25.9605 50.297 25.9625 50.2916 25.9642C49.7688 26.1436 49.1985 26.1568 48.6405 26.1605C47.6881 26.1667 46.7204 26.1479 45.8091 25.893C45.5499 25.8204 45.2952 25.7262 45.0536 25.6103C44.3625 25.2795 43.9458 24.6068 43.9555 23.8897C43.9561 23.8402 43.9573 23.7922 43.9584 23.746ZM45.0954 12.9384C45.1581 12.2366 45.207 11.5315 45.2325 10.8245L45.575 5.12188C45.9155 3.24128 47.5471 2.68362 48.8475 2.78117C50.4485 2.89936 52.0689 3.9738 52.0698 5.77437C52.0149 6.57619 51.937 7.3935 51.8617 8.18354C51.7233 9.63789 51.581 11.1373 51.5712 12.6305C51.5691 12.9301 51.4746 13.2238 51.2882 13.4692C50.8721 14.0175 50.231 14.4383 49.5309 14.6385C48.3885 14.9654 47.1361 14.7876 46.0199 14.3921C45.9954 14.3834 45.9686 14.3723 45.9397 14.3591C45.3681 14.0976 45.043 13.524 45.0954 12.9384ZM54.6949 25.0429C54.7966 24.3042 54.9198 23.5661 55.0407 22.8441C55.239 21.6596 55.441 20.4428 55.5499 19.2197C55.5566 19.1456 55.6017 19.0794 55.6718 19.0421C56.1482 18.7883 56.674 18.6214 57.2192 18.5527C58.5431 18.3857 59.9084 18.5187 61.1686 18.926C61.4883 19.0293 61.7038 19.3055 61.7091 19.6175C61.7134 19.8487 61.7176 20.0817 61.7226 20.318C61.7541 21.9099 61.7873 23.556 61.7096 25.1493C61.698 25.3855 61.6863 25.6204 61.6748 25.8542C61.6182 26.9982 60.7139 27.9858 59.4834 28.1533C59.3999 28.1646 59.3163 28.1731 59.2327 28.1789C58.1643 28.2514 57.1097 27.9322 56.1288 27.5356C56.09 27.5197 56.0499 27.5016 56.0089 27.4816C55.0598 27.0143 54.5594 26.0258 54.6949 25.0429ZM55.9554 10.3516C56.2912 7.87316 57.885 6.82698 59.3258 6.89029C60.6769 6.94968 62.0684 8.00144 62.1318 10.217C62.1538 10.9872 62.0619 11.9425 61.9553 13.0485C61.8823 13.8084 61.7799 15.4005 61.7313 16.2077C61.7049 16.642 61.497 17.0578 61.1272 17.3288C60.9798 17.437 60.8183 17.5294 60.6494 17.6026C60.0177 17.8771 59.3004 17.9295 58.6022 17.9305C57.9589 17.9314 57.3005 17.8893 56.7096 17.6558C56.7053 17.654 56.7013 17.6525 56.6971 17.6507C56.0606 17.3956 55.6794 16.7864 55.7067 16.1479L55.9554 10.3516ZM72.3919 17.5542C71.8993 16.542 70.801 15.7307 69.6606 15.5131C68.9792 15.3832 68.2828 15.4653 67.6916 15.8431C66.6222 16.5269 66.3211 17.8367 66.1045 19.0188C65.0452 24.8006 63.9857 30.5826 62.9266 36.3647C62.8334 36.873 62.3345 37.541 61.9056 37.2096C62.1238 33.2014 62.3505 29.1933 62.5458 25.184C62.6246 23.5661 62.5915 21.9077 62.5595 20.3038C62.5328 18.965 62.5075 17.7004 62.5442 16.4875C62.5805 15.2832 62.6914 14.1322 62.789 13.1167C62.8979 11.987 62.992 11.0114 62.9687 10.1967C62.8915 7.50155 61.047 6.19429 59.3656 6.12044C56.8451 6.00967 55.3987 8.19552 55.1225 10.2733L54.7796 18.2265C54.7151 19.7287 54.4601 21.2529 54.2135 22.7268C54.0227 23.8677 53.8251 25.0477 53.7142 26.2215C53.6569 26.8268 53.6795 27.4335 53.7017 28.0205C53.7234 28.5961 53.7438 29.1397 53.6956 29.6853C53.606 30.7008 53.4288 31.732 53.2579 32.7293C53.1752 33.209 53.093 33.6887 53.0193 34.1694C52.9031 34.2049 52.6903 34.1987 52.645 34.1356C52.2983 30.7821 52.3612 27.3154 52.4217 23.9629C52.4304 23.4677 52.4394 22.9724 52.4473 22.4769C52.4893 19.7821 52.4562 17.0452 52.4244 14.3985L52.4087 13.053C52.3906 11.456 52.5456 9.82657 52.6957 8.2508C52.7714 7.45596 52.8495 6.63395 52.906 5.79853C52.906 3.50672 50.898 2.15942 48.9145 2.01276C47.1229 1.88121 45.1416 2.7587 44.7451 5.01834L44.3963 10.7903C44.3192 12.912 44.0379 15.0268 43.766 17.072C43.4786 19.2333 43.1813 21.468 43.1215 23.7272C43.1 24.5449 43.1622 25.8371 43.2344 27.3335C43.2736 28.1436 43.315 29.0056 43.3466 29.8652L43.1593 34.2979C43.1235 34.3173 43.0384 34.347 42.9143 34.3484C42.7918 34.3498 42.7062 34.3224 42.6719 34.3034L41.6363 27.449C41.3955 25.8561 41.1971 24.1993 41.0054 22.5969C40.8057 20.9301 40.5992 19.2069 40.3398 17.4925C40.0592 15.6385 39.868 13.7379 39.6835 11.9C39.589 10.9594 39.4944 10.0188 39.3889 9.09013C39.2518 7.42854 37.7394 6.0266 35.7287 6.066C35.0201 6.07981 34.3311 6.30996 33.7577 6.69335C32.5268 7.516 31.8223 8.84122 31.8727 10.2415C31.9386 12.0792 31.9432 14.1607 31.9482 16.3646C31.9531 18.522 31.958 20.7528 32.0223 22.8899C32.0579 24.0749 32.1899 25.2083 32.3171 26.3045C32.453 27.4725 32.5812 28.5756 32.5678 29.5705L32.4493 38.3063L33.1482 45.4196C33.1992 46.7805 32.6764 48.4147 31.8171 48.6782C31.1901 48.869 30.3201 48.283 29.3676 47.0242L28.4685 45.8357C27.5505 44.6221 25.8416 42.3627 24.7218 41.3356C23.4793 40.1956 22.1099 39.1643 20.6525 38.27C18.7288 37.0896 16.2495 36.9165 14.1564 37.8114C13.772 37.9759 13.427 38.2207 13.1972 38.5488C12.7037 39.2525 12.738 40.1226 13.2268 40.773L16.8368 44.388C17.891 45.7955 18.7465 47.3249 19.3793 48.9337C19.4019 48.9917 21.7074 54.7578 23.7276 56.6182C27.3731 59.9746 29.2171 64.8459 29.235 64.8944L29.2771 64.9752C30.2755 66.4312 31.706 67.6941 33.0893 68.9154C35.1107 70.6999 37.0198 72.3856 37.2528 74.3842C37.4461 76.0422 37.3601 78.9379 37.2844 81.4927C37.2492 82.6777 37.2156 83.8064 37.2147 84.6876C37.2147 84.9072 37.4098 85.0827 37.6482 85.0802C37.8095 84.9412 37.9069 84.8573 38.068 84.7181C38.1569 83.7698 38.6578 82.881 39.4848 82.2982C40.603 81.5102 42.0295 81.2691 43.4134 81.2213C44.6956 81.1768 45.978 81.2941 47.2609 81.2885C49.5782 81.2782 51.861 80.8684 54.1624 80.6735C56.4596 80.4789 58.7444 80.5799 60.9798 81.1293C62.5698 81.5199 63.729 82.7783 63.8544 84.2887C63.86 84.3533 63.8654 84.4178 63.8708 84.4822C63.8876 84.6796 64.0659 84.8317 64.2807 84.833H64.289C64.5309 84.8342 64.722 84.6451 64.7029 84.423C64.4099 80.9857 64.1981 77.4304 65.5808 74.2369C66.342 72.4788 67.5559 70.9142 68.3567 69.1716C69.5426 66.5914 69.7758 63.7374 69.9532 60.9408C70.7605 48.2142 70.7231 35.417 72.6278 22.7903C72.8923 21.0353 73.1791 19.1706 72.3919 17.5542Z" fill="#005BBB"/>
</g>
</g>
</g>
<circle id="Ellipse 282" opacity="0.3" cx="35.5" cy="9.5" r="9.5" fill="#FF5758"/>
</g>
</svg>
