<svg width="87" height="87" viewBox="0 0 87 87" fill="none" xmlns="http://www.w3.org/2000/svg">
<g id="Frame 336831">
<g id="Group 34574">
<g id="OBJECTS">
<g id="Group">
<path id="Vector" d="M72.392 15.5541C71.8994 14.5421 70.8009 13.7306 69.6607 13.513C68.9793 13.3831 68.2827 13.4652 67.6917 13.8432C66.6221 14.5269 66.321 15.8368 66.1046 17.0187C65.0451 22.8008 63.9858 28.5826 62.9265 34.3646C62.8333 34.873 62.3346 35.5411 61.9057 35.2095C62.1236 31.2013 62.3506 27.1932 62.5459 23.1839C62.6245 21.5663 62.5916 19.9078 62.5594 18.3038C62.5327 16.9651 62.5074 15.7003 62.5441 14.4875C62.5804 13.2831 62.6913 12.1321 62.7892 11.1167C62.8978 9.98694 62.9919 9.01129 62.9688 8.19671C62.8915 5.50146 61.0471 4.1944 59.3657 4.12036C56.8452 4.00964 55.3988 6.19543 55.1224 8.27342L54.7797 16.2264C54.7151 17.7286 54.46 19.2528 54.2136 20.7267C54.0225 21.8678 53.825 23.0476 53.7141 24.2215C53.6567 24.8267 53.6796 25.4337 53.7015 26.0204C53.7233 26.596 53.7439 27.1398 53.6955 27.6855C53.6061 28.7007 53.4289 29.7321 53.2578 30.7292C53.1754 31.2089 53.0931 31.6886 53.0195 32.1695C52.903 32.205 52.6904 32.1986 52.6451 32.1355C52.2984 28.7822 52.3611 25.3155 52.4218 21.9631C52.4305 21.4679 52.4395 20.9723 52.4473 20.477C52.4892 17.782 52.4563 15.0453 52.4243 12.3986L52.4086 11.0532C52.3907 9.4559 52.5455 7.82649 52.6956 6.25092C52.7713 5.45593 52.8496 4.63407 52.9061 3.79844C52.9061 1.50683 50.8981 0.159533 48.9143 0.0129294C47.123 -0.118875 45.1417 0.758618 44.7452 3.0185L44.3962 8.7902C44.3193 10.9119 44.0378 13.0268 43.7661 15.0719C43.4785 17.2332 43.1812 19.4679 43.1216 21.7271C43.0999 22.5448 43.1621 23.8371 43.2343 25.3335C43.2735 26.1435 43.3151 27.0055 43.3465 27.8651L43.1594 32.2978C43.1234 32.3174 43.0385 32.3469 42.9144 32.3483C42.7917 32.3498 42.7063 32.3223 42.672 32.3034L41.6362 25.4489C41.3956 23.8562 41.1972 22.1992 41.0052 20.5968C40.8056 18.9303 40.5993 17.2068 40.3399 15.4924C40.0593 13.6384 39.8682 11.7381 39.6834 9.89992C39.5891 8.95932 39.4943 8.01872 39.389 7.09005C39.2519 5.42871 37.7395 4.02676 35.7286 4.06591C35.02 4.07997 34.3312 4.31012 33.7575 4.69326C32.5266 5.51611 31.8222 6.84114 31.8726 8.24145C31.9387 10.0791 31.9431 12.1606 31.9483 14.3646C31.953 16.5219 31.9581 18.7529 32.0224 20.8899C32.0581 22.0748 32.1898 23.2085 32.3172 24.3046C32.4532 25.4724 32.5813 26.5758 32.5677 27.5706L32.4494 36.3063L33.1483 43.4197C33.1991 44.7804 32.6765 46.4146 31.817 46.6781C31.19 46.8689 30.3202 46.283 29.3675 45.0242L28.4686 43.8357C27.5506 42.622 25.8417 40.3626 24.7219 39.3356C23.4794 38.1957 22.11 37.1644 20.6524 36.2702C18.7287 35.0893 16.2491 34.9165 14.1561 35.8115C13.7719 35.9759 13.4269 36.2207 13.1974 36.5486C12.7036 37.2524 12.7381 38.1223 13.2266 38.773L16.8367 42.3882C17.8909 43.7956 18.7463 45.3248 19.3794 46.9339C19.4018 46.9916 21.7072 52.7579 23.7278 54.6181C27.3732 57.9747 29.217 62.8458 29.2351 62.8943L29.277 62.9753C30.2756 64.4311 31.7059 65.694 33.0894 66.9153C35.1106 68.7 37.0199 70.3855 37.2529 72.3843C37.446 74.0422 37.36 76.9378 37.2843 79.4928C37.2691 80.0018 37.2544 79.8769 37.2423 82.0839C37.1868 88.2818 64.4603 88.9861 64.4883 82.0839C64.5077 77.2841 64.7703 74.109 65.5809 72.2369C66.3419 70.479 67.5558 68.9143 68.3566 67.1715C69.5424 64.5916 69.7757 61.7373 69.9531 58.9407C70.7606 46.2141 70.7232 33.4172 72.6279 20.7902C72.8922 19.0354 73.1791 17.1707 72.392 15.5541Z" fill="#EFF2FD"/>
<path id="Vector_2" fill-rule="evenodd" clip-rule="evenodd" d="M53.9629 48.4867C56.2189 49.3522 58.5895 49.9406 60.9512 49.9973C58.4891 49.6073 56.3967 48.9988 54.3968 48.1805C53.934 47.9909 53.6059 47.5987 53.521 47.139C53.4517 46.7628 53.3724 46.4292 53.2824 46.1497L52.6422 44.4834L53.0183 46.21C53.0808 46.5086 53.1332 46.9064 53.1766 47.3778C53.1881 47.502 53.0476 47.5919 52.9271 47.5356C51.5293 46.8819 50.1436 46.1235 48.6719 45.2607C45.5892 43.4539 39.99 42.8039 36.3477 42.6952C36.3734 42.6995 36.4003 42.7038 36.426 42.708C43.7053 45.7511 47.9775 52.0555 49.7951 59.0594C50.2137 60.6721 50.3629 61.9683 50.5493 63.6002C50.7545 55.2537 45.5585 45.3349 36.444 42.7111C40.2474 43.3539 45.0408 43.7482 48.3032 45.6929C49.5953 46.463 50.9873 47.2068 52.4415 47.8546C52.9403 48.0767 53.2611 48.5358 53.2826 49.0456C53.4555 53.1607 53.2304 59.7408 52.8041 61.8695C53.7691 59.422 54.1358 52.7773 53.7268 48.6445C53.7154 48.5255 53.8433 48.4407 53.9629 48.4867Z" fill="#005BBB"/>
<path id="Vector_3" fill-rule="evenodd" clip-rule="evenodd" d="M64.2936 47.6007C62.3295 47.3093 60.7418 47.0602 58.92 46.1431C54.9882 44.1637 56.2037 43.9651 51.358 42.5894C47.9762 41.6294 48.7329 41.6498 46.2754 40.7084C49.8628 43.1225 51.6224 42.6285 54.993 44.4592C59.5987 46.9604 59.4014 47.3458 64.5286 47.7414L64.7824 47.762C64.5048 47.6343 64.5503 47.6389 64.2936 47.6007Z" fill="#FFCDCD" stroke="#FFCDCD" stroke-width="2" stroke-linejoin="bevel"/>
<path id="Vector_4" fill-rule="evenodd" clip-rule="evenodd" d="M47.7329 64.8996C47.8263 59.6851 46.2309 56.2304 42.5532 52.3323C45.9982 57.5909 46.5866 58.8211 47.7329 64.8996Z" fill="#005BBB"/>
<path id="Vector_5" fill-rule="evenodd" clip-rule="evenodd" d="M58.6313 52.3319C57.7662 56.4767 55.5952 61.9341 52.5884 65.1478C56.3079 62.4134 58.5632 56.6256 58.6313 52.3319Z" fill="#005BBB"/>
<path id="Vector_6" fill-rule="evenodd" clip-rule="evenodd" d="M27.1344 54.8452C26.6178 53.6905 28.4858 53.7303 29.5673 51.5327C30.0372 53.7379 28.0897 53.2919 27.1344 54.8452Z" fill="#005BBB"/>
<path id="Vector_7" d="M37.7664 72.7351L37.8253 71.5801C37.7121 71.9616 37.7005 72.3522 37.7664 72.7351Z" fill="#005BBB"/>
<path id="Vector_8" d="M71.3978 22.249C71.3973 22.2525 71.3971 22.256 71.3967 22.2593C71.3174 23.0545 70.7266 23.7301 69.8927 23.9495C69.1463 24.1461 68.3408 24.1521 67.5991 23.9386C67.3706 23.8728 67.1475 23.7876 66.947 23.6676C66.7606 23.5562 66.6003 23.4193 66.4591 23.2655C66.1175 22.8935 65.9565 22.4082 65.9885 21.9221C66.0212 21.4263 66.0674 20.9443 66.1579 20.5375L67.2066 15.8287C67.4735 14.63 68.6167 14.185 69.5701 14.2811C70.7614 14.3999 72.1386 15.4012 72.1161 17.8291C72.0485 18.1264 71.6155 20.0834 71.3978 22.249ZM70.9213 29.514C70.8216 30.415 70.7246 31.2671 70.631 32.0702C70.5862 32.4546 70.381 32.8103 70.0495 33.0477C69.5771 33.3859 68.9662 33.5835 68.363 33.6202C67.3569 33.6813 66.3693 33.3746 65.4368 33.0213C65.1942 32.9295 64.9498 32.8324 64.7453 32.6813C64.7424 32.679 64.7392 32.6767 64.7363 32.6744C64.2962 32.3437 64.1284 31.7922 64.2511 31.2813C64.3006 31.0745 64.3461 30.8864 64.3461 30.8864C64.7677 29.1535 65.282 27.0333 65.6774 24.9481C65.7397 24.6191 66.0257 24.3659 66.3854 24.3242C66.8003 24.2764 67.2199 24.2791 67.6336 24.3321L69.4505 24.5651C69.8183 24.6124 70.1996 24.6639 70.511 24.8507C70.6149 24.913 70.7074 24.9883 70.7948 25.0691C71.0524 25.308 71.1852 25.6361 71.1684 25.9722C71.126 26.8132 71.0326 28.5074 70.9213 29.514ZM69.9836 38.9141C69.9755 41.1766 69.9196 43.439 69.8324 45.7002C69.6608 50.1542 69.3667 54.6027 69.0728 59.0507C68.899 61.6813 68.7117 64.3677 67.6215 66.8047C66.833 68.5667 65.5976 70.1361 64.8138 71.9C64.5815 72.4232 64.3923 72.9565 64.2384 73.4976C64.1295 73.8808 63.9351 74.2411 63.6694 74.5531C62.0122 76.5003 59.0935 77.2504 56.5692 77.6927C52.1007 78.4758 47.5516 77.7849 43.2144 76.6974C41.8243 76.3489 40.4059 75.9389 39.2957 75.093L39.2823 75.0827C38.5921 74.5525 38.2001 73.7634 38.1428 72.9375C38.1271 72.711 38.1081 72.4985 38.0852 72.3021C37.8195 70.0237 35.8035 68.2437 33.6687 66.3592C32.3337 65.1806 30.9538 63.962 30.0103 62.6007C29.8062 62.067 27.9607 57.4254 24.3197 54.0733C23.5317 53.3478 22.6023 51.799 21.7983 50.2362C21.5129 49.6817 21.5304 49.0366 21.8335 48.4901C22.0203 48.1529 22.2506 47.8341 22.5075 47.5404C23.1802 46.7716 24.0294 46.1525 24.8705 45.5402C25.1405 45.3441 25.4178 45.1453 25.7047 44.9605C26.6695 44.3393 28.0171 44.5908 28.6916 45.4794C29.905 47.0779 31.0454 47.7263 32.0815 47.4095C33.4004 47.0049 34.0464 45.0382 33.9835 43.3717L33.287 36.2764C33.287 36.2764 33.3654 30.4853 33.3656 30.4806C33.4145 26.8833 40.8676 25.9728 41.4486 29.8007L41.8449 32.4226C41.8996 32.8464 42.3601 33.1364 42.9459 33.1186C43.5318 33.1048 43.9624 32.8021 43.994 32.3713L44.1842 27.8672L44.1837 27.8532C44.1703 27.4833 44.1548 27.1126 44.1387 26.7458C44.1044 25.9726 44.5885 25.2574 45.386 24.9935C45.8971 24.8241 46.4527 24.8186 46.9957 24.8151C48.5482 24.8052 51.0669 24.7835 51.5259 26.5278C51.98 28.2543 51.6265 30.4177 51.8117 32.2086C51.8581 32.6565 52.2488 32.953 52.8072 32.9642C53.3305 32.9687 53.9216 32.7145 53.8293 32.1913C53.781 31.9168 53.8282 31.6396 53.9369 31.3799C54.4055 30.2601 53.8623 28.4791 54.5486 27.2977C55.3638 25.8953 58.9395 26.6355 60.3716 26.8264C61.7575 27.0112 61.5165 28.2911 61.3987 29.1962C61.2004 30.7208 61.1883 32.2923 61.0779 33.8258C61.0279 34.5179 60.9943 35.2715 61.5219 35.8099C61.8288 36.123 62.3173 36.2597 62.7362 36.0892C63.2093 35.8965 63.2277 35.4808 63.3621 35.1212C64.0215 33.3542 66.5118 33.5231 68.0818 33.946C70.7157 34.6551 69.9908 36.9477 69.9836 38.9141ZM19.1342 44.4891C18.1443 42.619 16.7649 40.9248 15.0934 39.525C14.7063 39.201 14.2975 38.8856 14.0224 38.4759C13.7472 38.0661 13.6262 37.5322 13.858 37.1005C14.0343 36.772 14.3842 36.5518 14.7435 36.3942C15.9135 35.8815 17.3005 35.9001 18.5384 36.2527C19.7765 36.6054 20.8842 37.2682 21.9007 38.0083C22.9844 38.7971 23.985 39.6829 24.884 40.6491C25.7159 41.5433 25.9287 42.5505 25.6812 43.4853C25.2706 45.0343 23.5742 46.3954 21.8189 46.447C20.3687 46.4895 19.6989 45.5555 19.1342 44.4891ZM33.1495 24.2224C33.0238 23.1411 32.8939 22.0231 32.8592 20.8685C32.8386 20.1858 32.8251 19.4923 32.8153 18.7946C32.8081 18.2887 33.0837 17.8148 33.5435 17.5381L33.7124 17.4364C34.3246 17.0681 35.051 16.9136 35.7813 16.9499C36.7831 16.9994 38.038 16.6757 38.9875 17.1823C39.1201 17.2531 39.2409 17.3374 39.3528 17.4314C39.662 17.6913 39.8503 18.0522 39.8987 18.435C39.9942 19.1908 40.0847 19.9417 40.1731 20.6814C40.3154 21.8695 40.4619 23.0867 40.6265 24.2886C40.7466 25.1663 40.2589 26.0285 39.3979 26.4212C38.9552 26.6229 38.4716 26.7714 38.0001 26.8906C37.0933 27.1201 36.15 27.2982 35.2166 27.1927L35.1965 27.1902C34.1616 27.0677 33.3686 26.2731 33.2709 25.3166C33.2344 24.959 33.1927 24.5944 33.1495 24.2224ZM32.7853 14.363C32.7803 12.1531 32.7759 10.0656 32.7091 8.21594C32.6681 7.06747 33.2481 5.98105 34.2608 5.30936C35.0677 4.77501 36.1256 4.6884 37.0221 5.08455C37.8939 5.46977 38.481 6.2607 38.5554 7.15943C38.6614 8.09572 38.7557 9.0332 38.85 9.97093C38.9909 11.3739 39.1376 12.8123 39.324 14.2436C39.4292 15.0518 38.9653 15.8501 38.1473 16.1586C38.1419 16.1607 38.1365 16.1625 38.1313 16.1646C37.3005 16.4725 36.3767 16.4758 35.4823 16.4321C35.1441 16.4154 34.7946 16.3869 34.4527 16.3327C33.4922 16.1801 32.788 15.4156 32.7857 14.5181C32.7855 14.4663 32.7855 14.4145 32.7853 14.363ZM43.9584 21.746C44.0173 19.5243 44.3121 17.3083 44.5968 15.1656C44.5974 15.1611 44.5979 15.1566 44.5986 15.152C44.7289 14.1729 45.6095 13.4133 46.6807 13.3852C46.7027 13.3846 46.7246 13.3842 46.7463 13.3838C47.5501 13.3679 48.3545 13.3898 49.1539 13.4667C49.3773 13.4879 49.6042 13.515 49.8299 13.5508C50.8644 13.7148 51.6126 14.5515 51.6202 15.5177C51.6334 17.1638 51.6357 18.8231 51.6101 20.4659C51.6025 20.9609 51.5936 21.4556 51.5846 21.9501C51.583 22.0419 51.5812 22.1337 51.5797 22.2255C51.5662 22.9842 51.0779 23.6886 50.3078 23.9588C50.3024 23.9605 50.297 23.9625 50.2916 23.9642C49.7688 24.1436 49.1985 24.1568 48.6405 24.1605C47.6881 24.1667 46.7204 24.1479 45.8091 23.893C45.5499 23.8204 45.2952 23.7262 45.0536 23.6103C44.3625 23.2795 43.9458 22.6068 43.9555 21.8897C43.9561 21.8402 43.9573 21.7922 43.9584 21.746ZM45.0954 10.9384C45.1581 10.2366 45.207 9.53147 45.2325 8.82453L45.575 3.12188C45.9155 1.24128 47.5471 0.683616 48.8475 0.78117C50.4485 0.899364 52.0689 1.9738 52.0698 3.77437C52.0149 4.57619 51.937 5.3935 51.8617 6.18354C51.7233 7.63789 51.581 9.13734 51.5712 10.6305C51.5691 10.9301 51.4746 11.2238 51.2882 11.4692C50.8721 12.0175 50.231 12.4383 49.5309 12.6385C48.3885 12.9654 47.1361 12.7876 46.0199 12.3921C45.9954 12.3834 45.9686 12.3723 45.9397 12.3591C45.3681 12.0976 45.043 11.524 45.0954 10.9384ZM54.6949 23.0429C54.7966 22.3042 54.9198 21.5661 55.0407 20.8441C55.239 19.6596 55.441 18.4428 55.5499 17.2197C55.5566 17.1456 55.6017 17.0794 55.6718 17.0421C56.1482 16.7883 56.674 16.6214 57.2192 16.5527C58.5431 16.3857 59.9084 16.5187 61.1686 16.926C61.4883 17.0293 61.7038 17.3055 61.7091 17.6175C61.7134 17.8487 61.7176 18.0817 61.7226 18.318C61.7541 19.9099 61.7873 21.556 61.7096 23.1493C61.698 23.3855 61.6863 23.6204 61.6748 23.8542C61.6182 24.9982 60.7139 25.9858 59.4834 26.1533C59.3999 26.1646 59.3163 26.1731 59.2327 26.1789C58.1643 26.2514 57.1097 25.9322 56.1288 25.5356C56.09 25.5197 56.0499 25.5016 56.0089 25.4816C55.0598 25.0143 54.5594 24.0258 54.6949 23.0429ZM55.9554 8.35161C56.2912 5.87316 57.885 4.82698 59.3258 4.89029C60.6769 4.94968 62.0684 6.00144 62.1318 8.21698C62.1538 8.98722 62.0619 9.94247 61.9553 11.0485C61.8823 11.8084 61.7799 13.4005 61.7313 14.2077C61.7049 14.642 61.497 15.0578 61.1272 15.3288C60.9798 15.437 60.8183 15.5294 60.6494 15.6026C60.0177 15.8771 59.3004 15.9295 58.6022 15.9305C57.9589 15.9314 57.3005 15.8893 56.7096 15.6558C56.7053 15.654 56.7013 15.6525 56.6971 15.6507C56.0606 15.3956 55.6794 14.7864 55.7067 14.1479L55.9554 8.35161ZM72.3919 15.5542C71.8993 14.542 70.801 13.7307 69.6606 13.5131C68.9792 13.3832 68.2828 13.4653 67.6916 13.8431C66.6222 14.5269 66.3211 15.8367 66.1045 17.0188C65.0452 22.8006 63.9857 28.5826 62.9266 34.3647C62.8334 34.873 62.3345 35.541 61.9056 35.2096C62.1238 31.2014 62.3505 27.1933 62.5458 23.184C62.6246 21.5661 62.5915 19.9077 62.5595 18.3038C62.5328 16.965 62.5075 15.7004 62.5442 14.4875C62.5805 13.2832 62.6914 12.1322 62.789 11.1167C62.8979 9.98702 62.992 9.01138 62.9687 8.19674C62.8915 5.50155 61.047 4.19429 59.3656 4.12044C56.8451 4.00967 55.3987 6.19552 55.1225 8.27326L54.7796 16.2265C54.7151 17.7287 54.4601 19.2529 54.2135 20.7268C54.0227 21.8677 53.8251 23.0477 53.7142 24.2215C53.6569 24.8268 53.6795 25.4335 53.7017 26.0205C53.7234 26.5961 53.7438 27.1397 53.6956 27.6853C53.606 28.7008 53.4288 29.732 53.2579 30.7293C53.1752 31.209 53.093 31.6887 53.0193 32.1694C52.9031 32.2049 52.6903 32.1987 52.645 32.1356C52.2983 28.7821 52.3612 25.3154 52.4217 21.9629C52.4304 21.4677 52.4394 20.9724 52.4473 20.4769C52.4893 17.7821 52.4562 15.0452 52.4244 12.3985L52.4087 11.053C52.3906 9.45599 52.5456 7.82657 52.6957 6.2508C52.7714 5.45596 52.8495 4.63395 52.906 3.79853C52.906 1.50672 50.898 0.159416 48.9145 0.0127625C47.1229 -0.118795 45.1416 0.7587 44.7451 3.01834L44.3963 8.79028C44.3192 10.912 44.0379 13.0268 43.766 15.072C43.4786 17.2333 43.1813 19.468 43.1215 21.7272C43.1 22.5449 43.1622 23.8371 43.2344 25.3335C43.2736 26.1436 43.315 27.0056 43.3466 27.8652L43.1593 32.2979C43.1235 32.3173 43.0384 32.347 42.9143 32.3484C42.7918 32.3498 42.7062 32.3224 42.6719 32.3034L41.6363 25.449C41.3955 23.8561 41.1971 22.1993 41.0054 20.5969C40.8057 18.9301 40.5992 17.2069 40.3398 15.4925C40.0592 13.6385 39.868 11.7379 39.6835 9.90001C39.589 8.95941 39.4944 8.01876 39.3889 7.09013C39.2518 5.42854 37.7394 4.0266 35.7287 4.066C35.0201 4.07981 34.3311 4.30996 33.7577 4.69335C32.5268 5.516 31.8223 6.84122 31.8727 8.24148C31.9386 10.0792 31.9432 12.1607 31.9482 14.3646C31.9531 16.522 31.958 18.7528 32.0223 20.8899C32.0579 22.0749 32.1899 23.2083 32.3171 24.3045C32.453 25.4725 32.5812 26.5756 32.5678 27.5705L32.4493 36.3063L33.1482 43.4196C33.1992 44.7805 32.6764 46.4147 31.8171 46.6782C31.1901 46.869 30.3201 46.283 29.3676 45.0242L28.4685 43.8357C27.5505 42.6221 25.8416 40.3627 24.7218 39.3356C23.4793 38.1956 22.1099 37.1643 20.6525 36.27C18.7288 35.0896 16.2495 34.9165 14.1564 35.8114C13.772 35.9759 13.427 36.2207 13.1972 36.5488C12.7037 37.2525 12.738 38.1226 13.2268 38.773L16.8368 42.388C17.891 43.7955 18.7465 45.3249 19.3793 46.9337C19.4019 46.9917 21.7074 52.7578 23.7276 54.6182C27.3731 57.9746 29.2171 62.8459 29.235 62.8944L29.2771 62.9752C30.2755 64.4312 31.706 65.6941 33.0893 66.9154C35.1107 68.6999 37.0198 70.3856 37.2528 72.3842C37.4461 74.0422 37.3601 76.9379 37.2844 79.4927C37.2492 80.6777 37.2156 81.8064 37.2147 82.6876C37.2147 82.9072 37.4098 83.0827 37.6482 83.0802C37.8095 82.9412 37.9069 82.8573 38.068 82.7181C38.1569 81.7698 38.6578 80.881 39.4848 80.2982C40.603 79.5102 42.0295 79.2691 43.4134 79.2213C44.6956 79.1768 45.978 79.2941 47.2609 79.2885C49.5782 79.2782 51.861 78.8684 54.1624 78.6735C56.4596 78.4789 58.7444 78.5799 60.9798 79.1293C62.5698 79.5199 63.729 80.7783 63.8544 82.2887C63.86 82.3533 63.8654 82.4178 63.8708 82.4822C63.8876 82.6796 64.0659 82.8317 64.2807 82.833H64.289C64.5309 82.8342 64.722 82.6451 64.7029 82.423C64.4099 78.9857 64.1981 75.4304 65.5808 72.2369C66.342 70.4788 67.5559 68.9142 68.3567 67.1716C69.5426 64.5914 69.7758 61.7374 69.9532 58.9408C70.7605 46.2142 70.7231 33.417 72.6278 20.7903C72.8923 19.0353 73.1791 17.1706 72.3919 15.5542Z" fill="#005BBB"/>
</g>
</g>
</g>
<circle id="Ellipse 282" opacity="0.3" cx="17.5" cy="38.5" r="9.5" fill="#FF5758"/>
</g>
</svg>
