<svg width="87" height="88" viewBox="0 0 87 88" fill="none" xmlns="http://www.w3.org/2000/svg">
<g id="Frame 336837">
<g id="Group 34574">
<g id="OBJECTS">
<g id="Group">
<path id="Vector" d="M72.392 16.5541C71.8994 15.5421 70.8009 14.7306 69.6607 14.513C68.9793 14.3831 68.2827 14.4652 67.6917 14.8432C66.6221 15.5269 66.321 16.8368 66.1046 18.0187C65.0451 23.8008 63.9858 29.5826 62.9265 35.3646C62.8333 35.873 62.3346 36.5411 61.9057 36.2095C62.1236 32.2013 62.3506 28.1932 62.5459 24.1839C62.6245 22.5663 62.5916 20.9078 62.5594 19.3038C62.5327 17.9651 62.5074 16.7003 62.5441 15.4875C62.5804 14.2831 62.6913 13.1321 62.7892 12.1167C62.8978 10.9869 62.9919 10.0113 62.9688 9.19671C62.8915 6.50146 61.0471 5.1944 59.3657 5.12036C56.8452 5.00964 55.3988 7.19543 55.1224 9.27342L54.7797 17.2264C54.7151 18.7286 54.46 20.2528 54.2136 21.7267C54.0225 22.8678 53.825 24.0476 53.7141 25.2215C53.6567 25.8267 53.6796 26.4337 53.7015 27.0204C53.7233 27.596 53.7439 28.1398 53.6955 28.6855C53.6061 29.7007 53.4289 30.7321 53.2578 31.7292C53.1754 32.2089 53.0931 32.6886 53.0195 33.1695C52.903 33.205 52.6904 33.1986 52.6451 33.1355C52.2984 29.7822 52.3611 26.3155 52.4218 22.9631C52.4305 22.4679 52.4395 21.9723 52.4473 21.477C52.4892 18.782 52.4563 16.0453 52.4243 13.3986L52.4086 12.0532C52.3907 10.4559 52.5455 8.82649 52.6956 7.25092C52.7713 6.45593 52.8496 5.63407 52.9061 4.79844C52.9061 2.50683 50.8981 1.15953 48.9143 1.01293C47.123 0.881125 45.1417 1.75862 44.7452 4.0185L44.3962 9.7902C44.3193 11.9119 44.0378 14.0268 43.7661 16.0719C43.4785 18.2332 43.1812 20.4679 43.1216 22.7271C43.0999 23.5448 43.1621 24.8371 43.2343 26.3335C43.2735 27.1435 43.3151 28.0055 43.3465 28.8651L43.1594 33.2978C43.1234 33.3174 43.0385 33.3469 42.9144 33.3483C42.7917 33.3498 42.7063 33.3223 42.672 33.3034L41.6362 26.4489C41.3956 24.8562 41.1972 23.1992 41.0052 21.5968C40.8056 19.9303 40.5993 18.2068 40.3399 16.4924C40.0593 14.6384 39.8682 12.7381 39.6834 10.8999C39.5891 9.95932 39.4943 9.01872 39.389 8.09005C39.2519 6.42871 37.7395 5.02676 35.7286 5.06591C35.02 5.07997 34.3312 5.31012 33.7575 5.69326C32.5266 6.51611 31.8222 7.84114 31.8726 9.24145C31.9387 11.0791 31.9431 13.1606 31.9483 15.3646C31.953 17.5219 31.9581 19.7529 32.0224 21.8899C32.0581 23.0748 32.1898 24.2085 32.3172 25.3046C32.4532 26.4724 32.5813 27.5758 32.5677 28.5706L32.4494 37.3063L33.1483 44.4197C33.1991 45.7804 32.6765 47.4146 31.817 47.6781C31.19 47.8689 30.3202 47.283 29.3675 46.0242L28.4686 44.8357C27.5506 43.622 25.8417 41.3626 24.7219 40.3356C23.4794 39.1957 22.11 38.1644 20.6524 37.2702C18.7287 36.0893 16.2491 35.9165 14.1561 36.8115C13.7719 36.9759 13.4269 37.2207 13.1974 37.5486C12.7036 38.2524 12.7381 39.1223 13.2266 39.773L16.8367 43.3882C17.8909 44.7956 18.7463 46.3248 19.3794 47.9339C19.4018 47.9916 21.7072 53.7579 23.7278 55.6181C27.3732 58.9747 29.217 63.8458 29.2351 63.8943L29.277 63.9753C30.2756 65.4311 31.7059 66.694 33.0894 67.9153C35.1106 69.7 37.0199 71.3855 37.2529 73.3843C37.446 75.0422 37.36 77.9378 37.2843 80.4928C37.2691 81.0018 37.2544 80.8769 37.2423 83.0839C37.1868 89.2818 64.4603 89.9861 64.4883 83.0839C64.5077 78.2841 64.7703 75.109 65.5809 73.2369C66.3419 71.479 67.5558 69.9143 68.3566 68.1715C69.5424 65.5916 69.7757 62.7373 69.9531 59.9407C70.7606 47.2141 70.7232 34.4172 72.6279 21.7902C72.8922 20.0354 73.1791 18.1707 72.392 16.5541Z" fill="#EFF2FD"/>
<path id="Vector_2" fill-rule="evenodd" clip-rule="evenodd" d="M53.9629 49.4867C56.2189 50.3522 58.5895 50.9406 60.9512 50.9973C58.4891 50.6073 56.3967 49.9988 54.3968 49.1805C53.934 48.9909 53.6059 48.5987 53.521 48.139C53.4517 47.7628 53.3724 47.4292 53.2824 47.1497L52.6422 45.4834L53.0183 47.21C53.0808 47.5086 53.1332 47.9064 53.1766 48.3778C53.1881 48.502 53.0476 48.5919 52.9271 48.5356C51.5293 47.8819 50.1436 47.1235 48.6719 46.2607C45.5892 44.4539 39.99 43.8039 36.3477 43.6952C36.3734 43.6995 36.4003 43.7038 36.426 43.708C43.7053 46.7511 47.9775 53.0555 49.7951 60.0594C50.2137 61.6721 50.3629 62.9683 50.5493 64.6002C50.7545 56.2537 45.5585 46.3349 36.444 43.7111C40.2474 44.3539 45.0408 44.7482 48.3032 46.6929C49.5953 47.463 50.9873 48.2068 52.4415 48.8546C52.9403 49.0767 53.2611 49.5358 53.2826 50.0456C53.4555 54.1607 53.2304 60.7408 52.8041 62.8695C53.7691 60.422 54.1358 53.7773 53.7268 49.6445C53.7154 49.5255 53.8433 49.4407 53.9629 49.4867Z" fill="#005BBB"/>
<path id="Vector_3" fill-rule="evenodd" clip-rule="evenodd" d="M64.2936 48.6007C62.3295 48.3093 60.7418 48.0602 58.92 47.1431C54.9882 45.1637 56.2037 44.9651 51.358 43.5894C47.9762 42.6294 48.7329 42.6498 46.2754 41.7084C49.8628 44.1225 51.6224 43.6285 54.993 45.4592C59.5987 47.9604 59.4014 48.3458 64.5286 48.7414L64.7824 48.762C64.5048 48.6343 64.5503 48.6389 64.2936 48.6007Z" fill="#005BBB"/>
<path id="Vector_4" fill-rule="evenodd" clip-rule="evenodd" d="M47.7329 65.8996C47.8263 60.6851 46.2309 57.2304 42.5532 53.3323C45.9982 58.5909 46.5866 59.8211 47.7329 65.8996Z" fill="#005BBB"/>
<path id="Vector_5" fill-rule="evenodd" clip-rule="evenodd" d="M58.6313 53.3319C57.7662 57.4767 55.5952 62.9341 52.5884 66.1478C56.3079 63.4134 58.5632 57.6256 58.6313 53.3319Z" fill="#005BBB"/>
<path id="Vector_6" fill-rule="evenodd" clip-rule="evenodd" d="M27.1344 55.8452C26.6178 54.6905 28.4858 54.7303 29.5673 52.5327C30.0372 54.7379 28.0897 54.2919 27.1344 55.8452Z" fill="#005BBB"/>
<path id="Vector_7" d="M37.7664 73.7351L37.8253 72.5801C37.7121 72.9616 37.7005 73.3522 37.7664 73.7351Z" fill="#005BBB"/>
<path id="Vector_8" d="M71.3978 23.249C71.3973 23.2525 71.3971 23.256 71.3967 23.2593C71.3174 24.0545 70.7266 24.7301 69.8927 24.9495C69.1463 25.1461 68.3408 25.1521 67.5991 24.9386C67.3706 24.8728 67.1475 24.7876 66.947 24.6676C66.7606 24.5562 66.6003 24.4193 66.4591 24.2655C66.1175 23.8935 65.9565 23.4082 65.9885 22.9221C66.0212 22.4263 66.0674 21.9443 66.1579 21.5375L67.2066 16.8287C67.4735 15.63 68.6167 15.185 69.5701 15.2811C70.7614 15.3999 72.1386 16.4012 72.1161 18.8291C72.0485 19.1264 71.6155 21.0834 71.3978 23.249ZM70.9213 30.514C70.8216 31.415 70.7246 32.2671 70.631 33.0702C70.5862 33.4546 70.381 33.8103 70.0495 34.0477C69.5771 34.3859 68.9662 34.5835 68.363 34.6202C67.3569 34.6813 66.3693 34.3746 65.4368 34.0213C65.1942 33.9295 64.9498 33.8324 64.7453 33.6813C64.7424 33.679 64.7392 33.6767 64.7363 33.6744C64.2962 33.3437 64.1284 32.7922 64.2511 32.2813C64.3006 32.0745 64.3461 31.8864 64.3461 31.8864C64.7677 30.1535 65.282 28.0333 65.6774 25.9481C65.7397 25.6191 66.0257 25.3659 66.3854 25.3242C66.8003 25.2764 67.2199 25.2791 67.6336 25.3321L69.4505 25.5651C69.8183 25.6124 70.1996 25.6639 70.511 25.8507C70.6149 25.913 70.7074 25.9883 70.7948 26.0691C71.0524 26.308 71.1852 26.6361 71.1684 26.9722C71.126 27.8132 71.0326 29.5074 70.9213 30.514ZM69.9836 39.9141C69.9755 42.1766 69.9196 44.439 69.8324 46.7002C69.6608 51.1542 69.3667 55.6027 69.0728 60.0507C68.899 62.6813 68.7117 65.3677 67.6215 67.8047C66.833 69.5667 65.5976 71.1361 64.8138 72.9C64.5815 73.4232 64.3923 73.9565 64.2384 74.4976C64.1295 74.8808 63.9351 75.2411 63.6694 75.5531C62.0122 77.5003 59.0935 78.2504 56.5692 78.6927C52.1007 79.4758 47.5516 78.7849 43.2144 77.6974C41.8243 77.3489 40.4059 76.9389 39.2957 76.093L39.2823 76.0827C38.5921 75.5525 38.2001 74.7634 38.1428 73.9375C38.1271 73.711 38.1081 73.4985 38.0852 73.3021C37.8195 71.0237 35.8035 69.2437 33.6687 67.3592C32.3337 66.1806 30.9538 64.962 30.0103 63.6007C29.8062 63.067 27.9607 58.4254 24.3197 55.0733C23.5317 54.3478 22.6023 52.799 21.7983 51.2362C21.5129 50.6817 21.5304 50.0366 21.8335 49.4901C22.0203 49.1529 22.2506 48.8341 22.5075 48.5404C23.1802 47.7716 24.0294 47.1525 24.8705 46.5402C25.1405 46.3441 25.4178 46.1453 25.7047 45.9605C26.6695 45.3393 28.0171 45.5908 28.6916 46.4794C29.905 48.0779 31.0454 48.7263 32.0815 48.4095C33.4004 48.0049 34.0464 46.0382 33.9835 44.3717L33.287 37.2764C33.287 37.2764 33.3654 31.4853 33.3656 31.4806C33.4145 27.8833 40.8676 26.9728 41.4486 30.8007L41.8449 33.4226C41.8996 33.8464 42.3601 34.1364 42.9459 34.1186C43.5318 34.1048 43.9624 33.8021 43.994 33.3713L44.1842 28.8672L44.1837 28.8532C44.1703 28.4833 44.1548 28.1126 44.1387 27.7458C44.1044 26.9726 44.5885 26.2574 45.386 25.9935C45.8971 25.8241 46.4527 25.8186 46.9957 25.8151C48.5482 25.8052 51.0669 25.7835 51.5259 27.5278C51.98 29.2543 51.6265 31.4177 51.8117 33.2086C51.8581 33.6565 52.2488 33.953 52.8072 33.9642C53.3305 33.9687 53.9216 33.7145 53.8293 33.1913C53.781 32.9168 53.8282 32.6396 53.9369 32.3799C54.4055 31.2601 53.8623 29.4791 54.5486 28.2977C55.3638 26.8953 58.9395 27.6355 60.3716 27.8264C61.7575 28.0112 61.5165 29.2911 61.3987 30.1962C61.2004 31.7208 61.1883 33.2923 61.0779 34.8258C61.0279 35.5179 60.9943 36.2715 61.5219 36.8099C61.8288 37.123 62.3173 37.2597 62.7362 37.0892C63.2093 36.8965 63.2277 36.4808 63.3621 36.1212C64.0215 34.3542 66.5118 34.5231 68.0818 34.946C70.7157 35.6551 69.9908 37.9477 69.9836 39.9141ZM19.1342 45.4891C18.1443 43.619 16.7649 41.9248 15.0934 40.525C14.7063 40.201 14.2975 39.8856 14.0224 39.4759C13.7472 39.0661 13.6262 38.5322 13.858 38.1005C14.0343 37.772 14.3842 37.5518 14.7435 37.3942C15.9135 36.8815 17.3005 36.9001 18.5384 37.2527C19.7765 37.6054 20.8842 38.2682 21.9007 39.0083C22.9844 39.7971 23.985 40.6829 24.884 41.6491C25.7159 42.5433 25.9287 43.5505 25.6812 44.4853C25.2706 46.0343 23.5742 47.3954 21.8189 47.447C20.3687 47.4895 19.6989 46.5555 19.1342 45.4891ZM33.1495 25.2224C33.0238 24.1411 32.8939 23.0231 32.8592 21.8685C32.8386 21.1858 32.8251 20.4923 32.8153 19.7946C32.8081 19.2887 33.0837 18.8148 33.5435 18.5381L33.7124 18.4364C34.3246 18.0681 35.051 17.9136 35.7813 17.9499C36.7831 17.9994 38.038 17.6757 38.9875 18.1823C39.1201 18.2531 39.2409 18.3374 39.3528 18.4314C39.662 18.6913 39.8503 19.0522 39.8987 19.435C39.9942 20.1908 40.0847 20.9417 40.1731 21.6814C40.3154 22.8695 40.4619 24.0867 40.6265 25.2886C40.7466 26.1663 40.2589 27.0285 39.3979 27.4212C38.9552 27.6229 38.4716 27.7714 38.0001 27.8906C37.0933 28.1201 36.15 28.2982 35.2166 28.1927L35.1965 28.1902C34.1616 28.0677 33.3686 27.2731 33.2709 26.3166C33.2344 25.959 33.1927 25.5944 33.1495 25.2224ZM32.7853 15.363C32.7803 13.1531 32.7759 11.0656 32.7091 9.21594C32.6681 8.06747 33.2481 6.98105 34.2608 6.30936C35.0677 5.77501 36.1256 5.6884 37.0221 6.08455C37.8939 6.46977 38.481 7.2607 38.5554 8.15943C38.6614 9.09572 38.7557 10.0332 38.85 10.9709C38.9909 12.3739 39.1376 13.8123 39.324 15.2436C39.4292 16.0518 38.9653 16.8501 38.1473 17.1586C38.1419 17.1607 38.1365 17.1625 38.1313 17.1646C37.3005 17.4725 36.3767 17.4758 35.4823 17.4321C35.1441 17.4154 34.7946 17.3869 34.4527 17.3327C33.4922 17.1801 32.788 16.4156 32.7857 15.5181C32.7855 15.4663 32.7855 15.4145 32.7853 15.363ZM43.9584 22.746C44.0173 20.5243 44.3121 18.3083 44.5968 16.1656C44.5974 16.1611 44.5979 16.1566 44.5986 16.152C44.7289 15.1729 45.6095 14.4133 46.6807 14.3852C46.7027 14.3846 46.7246 14.3842 46.7463 14.3838C47.5501 14.3679 48.3545 14.3898 49.1539 14.4667C49.3773 14.4879 49.6042 14.515 49.8299 14.5508C50.8644 14.7148 51.6126 15.5515 51.6202 16.5177C51.6334 18.1638 51.6357 19.8231 51.6101 21.4659C51.6025 21.9609 51.5936 22.4556 51.5846 22.9501C51.583 23.0419 51.5812 23.1337 51.5797 23.2255C51.5662 23.9842 51.0779 24.6886 50.3078 24.9588C50.3024 24.9605 50.297 24.9625 50.2916 24.9642C49.7688 25.1436 49.1985 25.1568 48.6405 25.1605C47.6881 25.1667 46.7204 25.1479 45.8091 24.893C45.5499 24.8204 45.2952 24.7262 45.0536 24.6103C44.3625 24.2795 43.9458 23.6068 43.9555 22.8897C43.9561 22.8402 43.9573 22.7922 43.9584 22.746ZM45.0954 11.9384C45.1581 11.2366 45.207 10.5315 45.2325 9.82453L45.575 4.12188C45.9155 2.24128 47.5471 1.68362 48.8475 1.78117C50.4485 1.89936 52.0689 2.9738 52.0698 4.77437C52.0149 5.57619 51.937 6.3935 51.8617 7.18354C51.7233 8.63789 51.581 10.1373 51.5712 11.6305C51.5691 11.9301 51.4746 12.2238 51.2882 12.4692C50.8721 13.0175 50.231 13.4383 49.5309 13.6385C48.3885 13.9654 47.1361 13.7876 46.0199 13.3921C45.9954 13.3834 45.9686 13.3723 45.9397 13.3591C45.3681 13.0976 45.043 12.524 45.0954 11.9384ZM54.6949 24.0429C54.7966 23.3042 54.9198 22.5661 55.0407 21.8441C55.239 20.6596 55.441 19.4428 55.5499 18.2197C55.5566 18.1456 55.6017 18.0794 55.6718 18.0421C56.1482 17.7883 56.674 17.6214 57.2192 17.5527C58.5431 17.3857 59.9084 17.5187 61.1686 17.926C61.4883 18.0293 61.7038 18.3055 61.7091 18.6175C61.7134 18.8487 61.7176 19.0817 61.7226 19.318C61.7541 20.9099 61.7873 22.556 61.7096 24.1493C61.698 24.3855 61.6863 24.6204 61.6748 24.8542C61.6182 25.9982 60.7139 26.9858 59.4834 27.1533C59.3999 27.1646 59.3163 27.1731 59.2327 27.1789C58.1643 27.2514 57.1097 26.9322 56.1288 26.5356C56.09 26.5197 56.0499 26.5016 56.0089 26.4816C55.0598 26.0143 54.5594 25.0258 54.6949 24.0429ZM55.9554 9.35161C56.2912 6.87316 57.885 5.82698 59.3258 5.89029C60.6769 5.94968 62.0684 7.00144 62.1318 9.21698C62.1538 9.98722 62.0619 10.9425 61.9553 12.0485C61.8823 12.8084 61.7799 14.4005 61.7313 15.2077C61.7049 15.642 61.497 16.0578 61.1272 16.3288C60.9798 16.437 60.8183 16.5294 60.6494 16.6026C60.0177 16.8771 59.3004 16.9295 58.6022 16.9305C57.9589 16.9314 57.3005 16.8893 56.7096 16.6558C56.7053 16.654 56.7013 16.6525 56.6971 16.6507C56.0606 16.3956 55.6794 15.7864 55.7067 15.1479L55.9554 9.35161ZM72.3919 16.5542C71.8993 15.542 70.801 14.7307 69.6606 14.5131C68.9792 14.3832 68.2828 14.4653 67.6916 14.8431C66.6222 15.5269 66.3211 16.8367 66.1045 18.0188C65.0452 23.8006 63.9857 29.5826 62.9266 35.3647C62.8334 35.873 62.3345 36.541 61.9056 36.2096C62.1238 32.2014 62.3505 28.1933 62.5458 24.184C62.6246 22.5661 62.5915 20.9077 62.5595 19.3038C62.5328 17.965 62.5075 16.7004 62.5442 15.4875C62.5805 14.2832 62.6914 13.1322 62.789 12.1167C62.8979 10.987 62.992 10.0114 62.9687 9.19674C62.8915 6.50155 61.047 5.19429 59.3656 5.12044C56.8451 5.00967 55.3987 7.19552 55.1225 9.27326L54.7796 17.2265C54.7151 18.7287 54.4601 20.2529 54.2135 21.7268C54.0227 22.8677 53.8251 24.0477 53.7142 25.2215C53.6569 25.8268 53.6795 26.4335 53.7017 27.0205C53.7234 27.5961 53.7438 28.1397 53.6956 28.6853C53.606 29.7008 53.4288 30.732 53.2579 31.7293C53.1752 32.209 53.093 32.6887 53.0193 33.1694C52.9031 33.2049 52.6903 33.1987 52.645 33.1356C52.2983 29.7821 52.3612 26.3154 52.4217 22.9629C52.4304 22.4677 52.4394 21.9724 52.4473 21.4769C52.4893 18.7821 52.4562 16.0452 52.4244 13.3985L52.4087 12.053C52.3906 10.456 52.5456 8.82657 52.6957 7.2508C52.7714 6.45596 52.8495 5.63395 52.906 4.79853C52.906 2.50672 50.898 1.15942 48.9145 1.01276C47.1229 0.881205 45.1416 1.7587 44.7451 4.01834L44.3963 9.79028C44.3192 11.912 44.0379 14.0268 43.766 16.072C43.4786 18.2333 43.1813 20.468 43.1215 22.7272C43.1 23.5449 43.1622 24.8371 43.2344 26.3335C43.2736 27.1436 43.315 28.0056 43.3466 28.8652L43.1593 33.2979C43.1235 33.3173 43.0384 33.347 42.9143 33.3484C42.7918 33.3498 42.7062 33.3224 42.6719 33.3034L41.6363 26.449C41.3955 24.8561 41.1971 23.1993 41.0054 21.5969C40.8057 19.9301 40.5992 18.2069 40.3398 16.4925C40.0592 14.6385 39.868 12.7379 39.6835 10.9C39.589 9.95941 39.4944 9.01876 39.3889 8.09013C39.2518 6.42854 37.7394 5.0266 35.7287 5.066C35.0201 5.07981 34.3311 5.30996 33.7577 5.69335C32.5268 6.516 31.8223 7.84122 31.8727 9.24148C31.9386 11.0792 31.9432 13.1607 31.9482 15.3646C31.9531 17.522 31.958 19.7528 32.0223 21.8899C32.0579 23.0749 32.1899 24.2083 32.3171 25.3045C32.453 26.4725 32.5812 27.5756 32.5678 28.5705L32.4493 37.3063L33.1482 44.4196C33.1992 45.7805 32.6764 47.4147 31.8171 47.6782C31.1901 47.869 30.3201 47.283 29.3676 46.0242L28.4685 44.8357C27.5505 43.6221 25.8416 41.3627 24.7218 40.3356C23.4793 39.1956 22.1099 38.1643 20.6525 37.27C18.7288 36.0896 16.2495 35.9165 14.1564 36.8114C13.772 36.9759 13.427 37.2207 13.1972 37.5488C12.7037 38.2525 12.738 39.1226 13.2268 39.773L16.8368 43.388C17.891 44.7955 18.7465 46.3249 19.3793 47.9337C19.4019 47.9917 21.7074 53.7578 23.7276 55.6182C27.3731 58.9746 29.2171 63.8459 29.235 63.8944L29.2771 63.9752C30.2755 65.4312 31.706 66.6941 33.0893 67.9154C35.1107 69.6999 37.0198 71.3856 37.2528 73.3842C37.4461 75.0422 37.3601 77.9379 37.2844 80.4927C37.2492 81.6777 37.2156 82.8064 37.2147 83.6876C37.2147 83.9072 37.4098 84.0827 37.6482 84.0802C37.8095 83.9412 37.9069 83.8573 38.068 83.7181C38.1569 82.7698 38.6578 81.881 39.4848 81.2982C40.603 80.5102 42.0295 80.2691 43.4134 80.2213C44.6956 80.1768 45.978 80.2941 47.2609 80.2885C49.5782 80.2782 51.861 79.8684 54.1624 79.6735C56.4596 79.4789 58.7444 79.5799 60.9798 80.1293C62.5698 80.5199 63.729 81.7783 63.8544 83.2887C63.86 83.3533 63.8654 83.4178 63.8708 83.4822C63.8876 83.6796 64.0659 83.8317 64.2807 83.833H64.289C64.5309 83.8342 64.722 83.6451 64.7029 83.423C64.4099 79.9857 64.1981 76.4304 65.5808 73.2369C66.342 71.4788 67.5559 69.9142 68.3567 68.1716C69.5426 65.5914 69.7758 62.7374 69.9532 59.9408C70.7605 47.2142 70.7231 34.417 72.6278 21.7903C72.8923 20.0353 73.1791 18.1706 72.3919 16.5542Z" fill="#005BBB"/>
<g id="Vector_9">
<mask id="path-9-outside-1_360_5803" maskUnits="userSpaceOnUse" x="11.8433" y="0" width="63" height="86" fill="black">
<rect fill="white" x="11.8433" width="63" height="86"/>
<path d="M71.3978 23.249C71.3973 23.2525 71.3971 23.256 71.3967 23.2593C71.3174 24.0545 70.7266 24.7301 69.8927 24.9495C69.1463 25.1461 68.3408 25.1521 67.5991 24.9386C67.3706 24.8728 67.1475 24.7876 66.947 24.6676C66.7606 24.5562 66.6003 24.4193 66.4591 24.2655C66.1175 23.8934 65.9565 23.4082 65.9885 22.9221C66.0212 22.4263 66.0674 21.9443 66.1579 21.5375L67.2066 16.8286C67.4735 15.63 68.6167 15.185 69.5701 15.2811C70.7614 15.3999 72.1386 16.4012 72.1161 18.8291C72.0485 19.1264 71.6155 21.0834 71.3978 23.249ZM70.9213 30.514C70.8216 31.415 70.7246 32.2671 70.631 33.0702C70.5862 33.4546 70.381 33.8103 70.0495 34.0477C69.5771 34.3859 68.9662 34.5835 68.363 34.6202C67.3569 34.6813 66.3693 34.3746 65.4368 34.0213C65.1942 33.9295 64.9498 33.8324 64.7453 33.6813C64.7424 33.679 64.7392 33.6767 64.7363 33.6744C64.2962 33.3437 64.1284 32.7922 64.2511 32.2813C64.3006 32.0745 64.3461 31.8864 64.3461 31.8864C64.7677 30.1535 65.282 28.0332 65.6774 25.9481C65.7397 25.6191 66.0257 25.3659 66.3854 25.3242C66.8003 25.2764 67.2199 25.2791 67.6336 25.3321L69.4505 25.5651C69.8183 25.6124 70.1996 25.6639 70.511 25.8507C70.6149 25.913 70.7074 25.9883 70.7948 26.0691C71.0524 26.308 71.1852 26.6361 71.1684 26.9722C71.126 27.8132 71.0326 29.5074 70.9213 30.514ZM19.1342 45.4891C18.1443 43.619 16.7649 41.9248 15.0934 40.525C14.7063 40.201 14.2975 39.8856 14.0224 39.4759C13.7472 39.0661 13.6262 38.5321 13.858 38.1005C14.0343 37.772 14.3842 37.5518 14.7435 37.3942C15.9135 36.8815 17.3005 36.9001 18.5384 37.2527C19.7765 37.6054 20.8842 38.2682 21.9007 39.0083C22.9844 39.7971 23.985 40.6829 24.884 41.6491C25.7159 42.5433 25.9287 43.5505 25.6812 44.4853C25.2706 46.0343 23.5742 47.3954 21.8189 47.447C20.3687 47.4895 19.6989 46.5555 19.1342 45.4891ZM32.7853 15.363C32.7803 13.1531 32.7759 11.0656 32.7091 9.21594C32.6681 8.06746 33.2481 6.98105 34.2608 6.30936C35.0677 5.77501 36.1256 5.68839 37.0221 6.08455C37.8939 6.46977 38.481 7.2607 38.5554 8.15943C38.6614 9.09572 38.7557 10.0332 38.85 10.9709C38.9909 12.3739 39.1376 13.8123 39.324 15.2436C39.4292 16.0518 38.9653 16.8501 38.1473 17.1586C38.1419 17.1607 38.1365 17.1625 38.1313 17.1646C37.3005 17.4725 36.3767 17.4758 35.4823 17.4321C35.1441 17.4154 34.7946 17.3869 34.4527 17.3327C33.4922 17.1801 32.788 16.4156 32.7857 15.5181C32.7855 15.4663 32.7855 15.4145 32.7853 15.363ZM43.9584 22.746C44.0173 20.5243 44.3121 18.3083 44.5968 16.1656C44.5974 16.1611 44.5979 16.1566 44.5986 16.152C44.7289 15.1728 45.6095 14.4133 46.6807 14.3852C46.7027 14.3846 46.7246 14.3842 46.7463 14.3838C47.5501 14.3679 48.3545 14.3898 49.1539 14.4667C49.3773 14.4879 49.6042 14.515 49.8299 14.5508C50.8644 14.7148 51.6126 15.5515 51.6202 16.5177C51.6334 18.1638 51.6357 19.8231 51.6101 21.4659C51.6025 21.9609 51.5936 22.4556 51.5846 22.9501C51.583 23.0419 51.5812 23.1337 51.5797 23.2255C51.5662 23.9842 51.0779 24.6886 50.3078 24.9588C50.3024 24.9605 50.297 24.9625 50.2916 24.9642C49.7688 25.1436 49.1985 25.1568 48.6405 25.1605C47.6881 25.1667 46.7204 25.1479 45.8091 24.893C45.5499 24.8204 45.2952 24.7262 45.0536 24.6103C44.3625 24.2795 43.9458 23.6068 43.9555 22.8897C43.9561 22.8402 43.9573 22.7922 43.9584 22.746ZM45.0954 11.9384C45.1581 11.2366 45.207 10.5315 45.2325 9.82453L45.575 4.12188C45.9155 2.24128 47.5471 1.68362 48.8475 1.78117C50.4485 1.89936 52.0689 2.9738 52.0698 4.77437C52.0149 5.57619 51.937 6.3935 51.8617 7.18354C51.7233 8.63789 51.581 10.1373 51.5712 11.6305C51.5691 11.9301 51.4746 12.2238 51.2882 12.4692C50.8721 13.0175 50.231 13.4383 49.5309 13.6385C48.3885 13.9654 47.1361 13.7876 46.0199 13.3921C45.9954 13.3834 45.9686 13.3723 45.9397 13.3591C45.3681 13.0976 45.043 12.524 45.0954 11.9384ZM54.6949 24.0429C54.7966 23.3042 54.9198 22.5661 55.0407 21.8441C55.239 20.6596 55.441 19.4428 55.5499 18.2197C55.5566 18.1456 55.6017 18.0794 55.6718 18.0421C56.1482 17.7883 56.674 17.6214 57.2192 17.5527C58.5431 17.3857 59.9084 17.5187 61.1686 17.926C61.4883 18.0293 61.7038 18.3055 61.7091 18.6175C61.7134 18.8487 61.7176 19.0817 61.7226 19.318C61.7541 20.9099 61.7873 22.556 61.7096 24.1493C61.698 24.3855 61.6863 24.6204 61.6748 24.8542C61.6182 25.9982 60.7139 26.9858 59.4834 27.1533C59.3999 27.1646 59.3163 27.1731 59.2327 27.1789C58.1642 27.2514 57.1097 26.9322 56.1288 26.5356C56.09 26.5197 56.0499 26.5016 56.0089 26.4816C55.0598 26.0143 54.5594 25.0258 54.6949 24.0429ZM55.9554 9.35161C56.2912 6.87315 57.885 5.82698 59.3258 5.89029C60.6769 5.94968 62.0684 7.00144 62.1318 9.21698C62.1538 9.98722 62.0619 10.9425 61.9553 12.0485C61.8823 12.8084 61.7799 14.4005 61.7313 15.2077C61.7049 15.642 61.497 16.0578 61.1272 16.3288C60.9798 16.437 60.8183 16.5294 60.6494 16.6026C60.0177 16.8771 59.3004 16.9295 58.6022 16.9305C57.9589 16.9314 57.3005 16.8893 56.7096 16.6558C56.7053 16.654 56.7013 16.6525 56.6971 16.6507C56.0606 16.3956 55.6794 15.7864 55.7067 15.1479L55.9554 9.35161ZM72.3919 16.5542C71.8993 15.542 70.801 14.7307 69.6606 14.5131C68.9792 14.3832 68.2828 14.4653 67.6916 14.8431C66.6222 15.5269 66.3211 16.8367 66.1045 18.0188C65.0452 23.8006 63.9857 29.5826 62.9266 35.3647C62.8334 35.873 62.3345 36.541 61.9056 36.2096C62.1238 32.2014 62.3505 28.1933 62.5458 24.184C62.6246 22.5661 62.5915 20.9077 62.5595 19.3038C62.5328 17.965 62.5075 16.7004 62.5442 15.4875C62.5805 14.2832 62.6914 13.1322 62.789 12.1167C62.8979 10.987 62.992 10.0114 62.9687 9.19674C62.8915 6.50155 61.047 5.19429 59.3656 5.12044C56.8451 5.00967 55.3987 7.19551 55.1225 9.27326L54.7796 17.2265C54.715 18.7287 54.4601 20.2529 54.2135 21.7268C54.0227 22.8677 53.8251 24.0477 53.7142 25.2215C53.6569 25.8268 53.6795 26.4335 53.7017 27.0205C53.7234 27.5961 53.7438 28.1397 53.6956 28.6853C53.606 29.7008 53.4288 30.732 53.2579 31.7293C53.1752 32.209 53.093 32.6887 53.0193 33.1694C52.9031 33.2049 52.6903 33.1987 52.645 33.1356C52.2983 29.7821 52.3612 26.3154 52.4217 22.9629C52.4304 22.4677 52.4394 21.9724 52.4473 21.4769C52.4893 18.7821 52.4562 16.0452 52.4244 13.3985L52.4087 12.053C52.3906 10.456 52.5456 8.82657 52.6957 7.2508C52.7714 6.45596 52.8495 5.63395 52.906 4.79853C52.906 2.50672 50.898 1.15942 48.9145 1.01276C47.1229 0.881205 45.1416 1.7587 44.7451 4.01834L44.3963 9.79028C44.3192 11.912 44.0379 14.0268 43.766 16.072C43.4786 18.2333 43.1813 20.468 43.1215 22.7272C43.1 23.5449 43.1622 24.8371 43.2344 26.3335C43.2736 27.1436 43.315 28.0056 43.3466 28.8652L43.1593 33.2979C43.1235 33.3173 43.0384 33.347 42.9143 33.3484C42.7918 33.3498 42.7062 33.3224 42.6719 33.3034L41.6363 26.449C41.3955 24.8561 41.1971 23.1993 41.0054 21.5969C40.8057 19.9301 40.5992 18.2069 40.3398 16.4925C40.0592 14.6385 39.868 12.7379 39.6835 10.9C39.589 9.95941 39.4944 9.01876 39.3889 8.09013C39.2518 6.42854 37.7394 5.0266 35.7287 5.066C35.0201 5.07981 34.3311 5.30996 33.7577 5.69334C32.5268 6.516 31.8223 7.84122 31.8727 9.24148C31.9386 11.0792 31.9432 13.1607 31.9482 15.3646C31.9531 17.522 31.958 19.7528 32.0223 21.8899C32.0579 23.0749 32.1899 24.2083 32.3171 25.3044C32.453 26.4725 32.5812 27.5756 32.5678 28.5705L32.4493 37.3063L33.1482 44.4196C33.1992 45.7805 32.6764 47.4146 31.8171 47.6782C31.1901 47.869 30.3201 47.283 29.3676 46.0242L28.4685 44.8357C27.5505 43.6221 25.8416 41.3627 24.7218 40.3356C23.4793 39.1956 22.1099 38.1643 20.6525 37.27C18.7288 36.0896 16.2495 35.9165 14.1564 36.8114C13.772 36.9759 13.427 37.2207 13.1972 37.5488C12.7037 38.2525 12.738 39.1226 13.2268 39.773L16.8368 43.388C17.891 44.7955 18.7465 46.3249 19.3793 47.9337C19.4019 47.9917 21.7073 53.7578 23.7276 55.6182C27.3731 58.9746 29.2171 63.8459 29.235 63.8944L29.2771 63.9752C30.2755 65.4312 31.706 66.6941 33.0893 67.9154C35.1107 69.6999 37.0198 71.3856 37.2528 73.3842C37.4461 75.0422 37.3601 77.9379 37.2844 80.4927C37.2492 81.6777 37.2156 82.8064 37.2147 83.6876C37.2147 83.9072 37.4098 84.0827 37.6482 84.0802C37.8095 83.9412 37.9069 83.8573 38.068 83.7181C38.1569 82.7698 38.6578 81.881 39.4848 81.2982C40.603 80.5102 42.0295 80.2691 43.4134 80.2213C44.6956 80.1767 45.978 80.2941 47.2609 80.2885C49.5782 80.2782 51.861 79.8684 54.1624 79.6735C56.4596 79.4789 58.7444 79.5799 60.9798 80.1293C62.5697 80.5199 63.729 81.7783 63.8544 83.2887C63.86 83.3533 63.8654 83.4178 63.8708 83.4822C63.8876 83.6795 64.0659 83.8317 64.2807 83.833H64.289C64.5309 83.8342 64.722 83.6451 64.7029 83.423C64.4099 79.9857 64.1981 76.4304 65.5808 73.2369C66.342 71.4788 67.5559 69.9142 68.3567 68.1716C69.5426 65.5914 69.7758 62.7374 69.9532 59.9408C70.7605 47.2142 70.7231 34.417 72.6278 21.7903C72.8923 20.0353 73.1791 18.1706 72.3919 16.5542Z"/>
</mask>
<path d="M69.9836 39.9141L69.4836 39.9123V39.9123L69.9836 39.9141ZM69.8324 46.7002L69.3328 46.681V46.681L69.8324 46.7002ZM69.0728 60.0507L69.5718 60.0837V60.0836L69.0728 60.0507ZM67.6215 67.8046L68.0779 68.0089L68.0779 68.0088L67.6215 67.8046ZM64.8138 72.9L64.3569 72.6969L64.3569 72.6971L64.8138 72.9ZM64.2384 74.4976L63.7575 74.3608L63.7574 74.361L64.2384 74.4976ZM63.6694 75.5531L63.2887 75.2289L63.2886 75.229L63.6694 75.5531ZM56.5692 78.6927L56.4829 78.2002H56.4829L56.5692 78.6927ZM43.2144 77.6974L43.336 77.2124H43.336L43.2144 77.6974ZM39.2957 76.093L38.9917 76.4899L38.9927 76.4907L39.2957 76.093ZM39.2823 76.0827L38.9777 76.4792L38.9783 76.4796L39.2823 76.0827ZM38.1428 73.9375L37.644 73.972L37.644 73.9721L38.1428 73.9375ZM38.0852 73.3021L38.5819 73.2443L38.5818 73.2442L38.0852 73.3021ZM33.6687 67.3592L33.3378 67.734H33.3378L33.6687 67.3592ZM30.0103 63.6007L29.5433 63.7793L29.5649 63.8358L29.5994 63.8855L30.0103 63.6007ZM24.3197 55.0733L24.6584 54.7055L24.3197 55.0733ZM21.7983 51.2362L22.2429 51.0075L22.2429 51.0075L21.7983 51.2362ZM21.8335 49.4901L22.2707 49.7326L22.2708 49.7324L21.8335 49.4901ZM22.5075 48.5404L22.8838 48.8697L22.8838 48.8697L22.5075 48.5404ZM24.8705 46.5402L24.5766 46.1357L24.5763 46.136L24.8705 46.5402ZM25.7047 45.9605L25.434 45.5401L25.4339 45.5401L25.7047 45.9605ZM28.6916 46.4794L28.2933 46.7817L28.2934 46.7817L28.6916 46.4794ZM32.0815 48.4095L32.2276 48.8876L32.2281 48.8875L32.0815 48.4095ZM33.9835 44.3717L34.4831 44.3528L34.4825 44.3378L34.4811 44.3229L33.9835 44.3717ZM33.287 37.2764L32.7871 37.2696L32.7867 37.2975L32.7894 37.3253L33.287 37.2764ZM33.3656 31.4806L33.8651 31.5032L33.8655 31.4953L33.8656 31.4874L33.3656 31.4806ZM41.4486 30.8007L41.943 30.7259L41.9429 30.7256L41.4486 30.8007ZM44.1842 28.8672L44.6837 28.8883L44.6845 28.8692L44.6839 28.85L44.1842 28.8672ZM44.1837 28.8532L44.6834 28.836L44.6834 28.8351L44.1837 28.8532ZM44.1387 27.7458L44.6382 27.7238L44.6382 27.7236L44.1387 27.7458ZM45.386 25.9935L45.5431 26.4681L45.5432 26.4681L45.386 25.9935ZM46.9957 25.8151L46.9925 25.3151L46.9957 25.8151ZM51.5259 27.5278L52.0095 27.4006L52.0094 27.4006L51.5259 27.5278ZM51.8117 33.2086L51.3144 33.26V33.26L51.8117 33.2086ZM52.8072 33.9642L52.7973 34.4641L52.8029 34.4642L52.8072 33.9642ZM53.8293 33.1913L53.3369 33.2781L53.3369 33.2781L53.8293 33.1913ZM53.9369 32.3799L53.4756 32.1869L53.4756 32.1869L53.9369 32.3799ZM54.5486 28.2976L54.1163 28.0464L54.1163 28.0465L54.5486 28.2976ZM60.3716 27.8264L60.3055 28.322H60.3055L60.3716 27.8264ZM61.3987 30.1962L60.9029 30.1316L60.9028 30.1317L61.3987 30.1962ZM61.0779 34.8258L61.5766 34.8618L61.5766 34.8617L61.0779 34.8258ZM61.5219 36.8099L61.1647 37.1599L61.1648 37.1599L61.5219 36.8099ZM62.7362 37.0892L62.9247 37.5523L62.9248 37.5523L62.7362 37.0892ZM63.3621 36.1212L63.8304 36.2962L63.8305 36.296L63.3621 36.1212ZM68.0818 34.946L67.9517 35.4288L67.9518 35.4289L68.0818 34.946ZM33.1495 25.2224L33.6462 25.1647L33.6462 25.1646L33.1495 25.2224ZM32.8592 21.8685L33.359 21.8535L33.359 21.8534L32.8592 21.8685ZM32.8153 19.7946L33.3152 19.7876V19.7876L32.8153 19.7946ZM33.5435 18.5381L33.8013 18.9665L33.8015 18.9664L33.5435 18.5381ZM33.7124 18.4364L33.4547 18.0079L33.4544 18.0081L33.7124 18.4364ZM35.7813 17.9499L35.7565 18.4493L35.7567 18.4493L35.7813 17.9499ZM38.9875 18.1823L38.7521 18.6235L38.7522 18.6235L38.9875 18.1823ZM39.3528 18.4314L39.6746 18.0487L39.6744 18.0485L39.3528 18.4314ZM39.8987 19.4349L40.3948 19.3723L40.3948 19.3722L39.8987 19.4349ZM40.1731 21.6814L39.6767 21.7408L39.6767 21.7409L40.1731 21.6814ZM40.6265 25.2886L41.1219 25.2208L41.1219 25.2207L40.6265 25.2886ZM35.1965 28.1902L35.2574 27.6939L35.2552 27.6937L35.1965 28.1902ZM33.2709 26.3166L32.7735 26.3674L32.7735 26.3674L33.2709 26.3166ZM69.4836 39.9123C69.4756 42.1678 69.4198 44.4242 69.3328 46.681L70.3321 46.7195C70.4194 44.4537 70.4755 42.1854 70.4836 39.9159L69.4836 39.9123ZM69.3328 46.681C69.1615 51.1269 68.8679 55.5686 68.5739 60.0177L69.5718 60.0836C69.8655 55.6369 70.1601 51.1814 70.3321 46.7195L69.3328 46.681ZM68.5739 60.0177C68.3991 62.6629 68.2128 65.2585 67.1651 67.6005L68.0779 68.0088C69.2106 65.4769 69.3989 62.6998 69.5718 60.0837L68.5739 60.0177ZM67.1651 67.6004C66.7858 68.4481 66.2968 69.2542 65.7884 70.0923C65.2858 70.9209 64.7639 71.7811 64.3569 72.6969L65.2708 73.103C65.6476 72.2549 66.1353 71.4485 66.6434 70.6109C67.1458 69.7828 67.6687 68.9232 68.0779 68.0089L67.1651 67.6004ZM64.3569 72.6971C64.1143 73.2434 63.9172 73.799 63.7575 74.3608L64.7193 74.6343C64.8673 74.1139 65.0488 73.6029 65.2708 73.1029L64.3569 72.6971ZM63.7574 74.361C63.6688 74.6729 63.5094 74.9697 63.2887 75.2289L64.0501 75.8772C64.3607 75.5124 64.5903 75.0887 64.7194 74.6342L63.7574 74.361ZM63.2886 75.229C61.7611 77.0239 59.0177 77.756 56.4829 78.2002L56.6555 79.1852C59.1692 78.7447 62.2633 77.9767 64.0502 75.8771L63.2886 75.229ZM56.4829 78.2002C52.117 78.9653 47.6486 78.2937 43.336 77.2124L43.0928 78.1824C47.4546 79.2761 52.0844 79.9862 56.6555 79.1852L56.4829 78.2002ZM43.336 77.2124C41.9417 76.8629 40.6178 76.4718 39.5988 75.6953L38.9927 76.4907C40.194 77.4061 41.7069 77.8349 43.0928 78.1824L43.336 77.2124ZM39.5998 75.696L39.5863 75.6857L38.9783 76.4796L38.9917 76.4899L39.5998 75.696ZM39.5869 75.6862C39.0169 75.2483 38.6896 74.5944 38.6416 73.9029L37.644 73.9721C37.7106 74.9325 38.1674 75.8567 38.9777 76.4792L39.5869 75.6862ZM38.6416 73.9029C38.6255 73.6704 38.6058 73.4499 38.5819 73.2443L37.5886 73.3599C37.6103 73.547 37.6287 73.7517 37.644 73.972L38.6416 73.9029ZM38.5818 73.2442C38.4334 71.9711 37.7986 70.8673 36.9621 69.8629C36.1288 68.8625 35.0599 67.9203 33.9996 66.9844L33.3378 67.734C34.4123 68.6826 35.4189 69.5727 36.1937 70.5029C36.9653 71.4293 37.4714 72.3547 37.5886 73.36L38.5818 73.2442ZM33.9997 66.9844C32.6536 65.7961 31.3237 64.6179 30.4213 63.3159L29.5994 63.8855C30.584 65.3061 32.0138 66.5652 33.3378 67.734L33.9997 66.9844ZM30.4773 63.4221C30.2673 62.8728 28.3883 58.1394 24.6584 54.7055L23.981 55.4412C27.5331 58.7113 29.3452 63.2611 29.5433 63.7793L30.4773 63.4221ZM24.6584 54.7055C24.3122 54.3868 23.9105 53.8616 23.486 53.199C23.0659 52.5434 22.6405 51.7803 22.2429 51.0075L21.3537 51.465C21.7601 52.255 22.2014 53.0477 22.644 53.7385C23.0822 54.4225 23.5391 55.0343 23.981 55.4412L24.6584 54.7055ZM22.2429 51.0075C22.0362 50.6057 22.0463 50.1374 22.2707 49.7326L21.3962 49.2476C21.0146 49.9359 20.9897 50.7577 21.3537 51.465L22.2429 51.0075ZM22.2708 49.7324C22.4383 49.4302 22.6471 49.1403 22.8838 48.8697L22.1312 48.2112C21.854 48.528 21.6023 48.8756 21.3961 49.2478L22.2708 49.7324ZM22.8838 48.8697C23.5134 48.1501 24.3153 47.5628 25.1648 46.9445L24.5763 46.136C23.7435 46.7422 22.847 47.3931 22.1312 48.2112L22.8838 48.8697ZM25.1645 46.9447C25.4337 46.7491 25.7013 46.5575 25.9755 46.3808L25.4339 45.5401C25.1343 45.7332 24.8473 45.9391 24.5766 46.1357L25.1645 46.9447ZM25.9754 46.3809C26.7197 45.9017 27.7761 46.1003 28.2933 46.7817L29.0899 46.1771C28.2581 45.0812 26.6193 44.777 25.434 45.5401L25.9754 46.3809ZM28.2934 46.7817C29.5187 48.3958 30.8563 49.3069 32.2276 48.8876L31.9353 47.9313C31.2346 48.1456 30.2914 47.7599 29.0899 46.1771L28.2934 46.7817ZM32.2281 48.8875C33.0887 48.6235 33.6649 47.8746 34.0109 47.0591C34.3616 46.2329 34.517 45.2502 34.4831 44.3528L33.4838 44.3906C33.5129 45.1597 33.3768 45.9937 33.0904 46.6685C32.7994 47.3541 32.3931 47.7909 31.9348 47.9315L32.2281 48.8875ZM34.4811 44.3229L33.7847 37.2276L32.7894 37.3253L33.4859 44.4205L34.4811 44.3229ZM33.287 37.2764C33.787 37.2832 33.787 37.2832 33.787 37.2831C33.787 37.2831 33.787 37.283 33.787 37.2829C33.787 37.2827 33.787 37.2825 33.787 37.2821C33.787 37.2814 33.787 37.2804 33.7871 37.279C33.7871 37.2762 33.7871 37.272 33.7872 37.2666C33.7874 37.2556 33.7876 37.2393 33.7879 37.2181C33.7885 37.1757 33.7893 37.1135 33.7904 37.0343C33.7925 36.876 33.7956 36.6497 33.7992 36.3783C33.8066 35.8353 33.8164 35.1112 33.8262 34.387C33.846 32.9282 33.8655 31.495 33.8651 31.5032L32.8662 31.458C32.8656 31.4709 32.8458 32.9357 32.8263 34.3735C32.8165 35.0977 32.8067 35.8217 32.7993 36.3647C32.7957 36.6362 32.7926 36.8624 32.7905 37.0208C32.7894 37.1 32.7885 37.1622 32.788 37.2046C32.7877 37.2258 32.7875 37.2421 32.7873 37.253C32.7872 37.2585 32.7872 37.2627 32.7871 37.2654C32.7871 37.2668 32.7871 37.2679 32.7871 37.2686C32.7871 37.2689 32.7871 37.2692 32.7871 37.2694C32.7871 37.2695 32.7871 37.2695 32.7871 37.2696C32.7871 37.2696 32.7871 37.2696 33.287 37.2764ZM33.8656 31.4874C33.8752 30.7808 34.243 30.1828 34.8659 29.7197C35.4949 29.252 36.359 28.9457 37.2585 28.8536C38.159 28.7614 39.0453 28.8888 39.721 29.232C40.3818 29.5676 40.837 30.1028 40.9543 30.8757L41.9429 30.7256C41.7697 29.5846 41.0753 28.7982 40.1738 28.3404C39.2871 27.8901 38.1981 27.7522 37.1566 27.8588C36.1141 27.9655 35.0695 28.3221 34.2692 28.9172C33.4627 29.5169 32.8805 30.3817 32.8657 31.4738L33.8656 31.4874ZM40.9542 30.8754L41.3505 33.4974L42.3393 33.3479L41.943 30.7259L40.9542 30.8754ZM44.4935 33.3924L44.6837 28.8883L43.6846 28.8461L43.4944 33.3502L44.4935 33.3924ZM44.6839 28.85L44.6834 28.836L43.684 28.8704L43.6845 28.8845L44.6839 28.85ZM44.6834 28.8351C44.6699 28.4634 44.6544 28.0914 44.6382 27.7238L43.6392 27.7677C43.6553 28.1339 43.6707 28.5031 43.684 28.8714L44.6834 28.8351ZM44.6382 27.7236C44.6141 27.181 44.9514 26.664 45.5431 26.4681L45.2288 25.5188C44.2257 25.8508 43.5947 26.7642 43.6392 27.7679L44.6382 27.7236ZM45.5432 26.4681C45.9669 26.3277 46.4423 26.3186 46.9989 26.3151L46.9925 25.3151C46.4631 25.3185 45.8273 25.3205 45.2287 25.5188L45.5432 26.4681ZM46.9989 26.3151C47.788 26.31 48.7428 26.3052 49.5542 26.4998C50.3668 26.6948 50.8829 27.049 51.0424 27.655L52.0094 27.4006C51.7099 26.2623 50.7372 25.7552 49.7875 25.5274C48.8367 25.2993 47.7559 25.3102 46.9925 25.3151L46.9989 26.3151ZM51.0423 27.655C51.2508 28.4475 51.2781 29.3605 51.2696 30.3397C51.2614 31.2941 51.218 32.3279 51.3144 33.26L52.3091 33.1571C52.2202 32.2983 52.2609 31.3551 52.2696 30.3484C52.2781 29.3666 52.2551 28.3346 52.0095 27.4006L51.0423 27.655ZM51.3144 33.26C51.3949 34.0381 52.0749 34.4497 52.7973 34.4641L52.8172 33.4643C52.4226 33.4564 52.3213 33.2749 52.3091 33.1571L51.3144 33.26ZM52.8029 34.4642C53.133 34.467 53.5137 34.3909 53.8177 34.1974C54.144 33.9896 54.4116 33.6139 54.3217 33.1044L53.3369 33.2781C53.3398 33.2946 53.3387 33.3019 53.3387 33.3024C53.3386 33.3028 53.3388 33.3023 53.3386 33.3027C53.3377 33.3044 53.3262 33.3248 53.2806 33.3539C53.1813 33.4171 53.0047 33.4659 52.8116 33.4642L52.8029 34.4642ZM54.3218 33.1045C54.2935 32.944 54.3179 32.7647 54.3981 32.5729L53.4756 32.1869C53.3386 32.5145 53.2685 32.8895 53.3369 33.2781L54.3218 33.1045ZM54.3981 32.573C54.5451 32.2216 54.6048 31.8394 54.6322 31.4732C54.6595 31.1096 54.657 30.7204 54.6611 30.3678C54.6698 29.6205 54.713 29.0102 54.981 28.5488L54.1163 28.0465C53.6979 28.7666 53.6695 29.6375 53.6611 30.3561C53.6567 30.7364 53.6592 31.0762 53.635 31.3984C53.6111 31.718 53.5629 31.9783 53.4756 32.1869L54.3981 32.573ZM54.9809 28.5489C55.0904 28.3605 55.3196 28.1971 55.7288 28.089C56.1342 27.9818 56.6478 27.9481 57.2145 27.9643C58.3547 27.997 59.5525 28.2216 60.3055 28.322L60.4377 27.3308C59.7586 27.2402 58.4526 26.9994 57.2431 26.9648C56.6349 26.9473 56.0122 26.9797 55.4732 27.1222C54.9378 27.2637 54.4144 27.5336 54.1163 28.0464L54.9809 28.5489ZM60.3055 28.322C60.574 28.3578 60.7135 28.439 60.791 28.5118C60.869 28.585 60.9265 28.6895 60.9603 28.8464C61.0358 29.1971 60.9672 29.6372 60.9029 30.1316L61.8945 30.2607C61.948 29.8501 62.0588 29.1976 61.9378 28.6359C61.8734 28.3366 61.7386 28.0299 61.4757 27.7829C61.2123 27.5355 60.8622 27.3874 60.4377 27.3308L60.3055 28.322ZM60.9028 30.1317C60.7026 31.6715 60.6862 33.3036 60.5792 34.7899L61.5766 34.8617C61.6904 33.281 61.6982 31.7701 61.8945 30.2607L60.9028 30.1317ZM60.5792 34.7898C60.5319 35.4449 60.4571 36.4375 61.1647 37.1598L61.879 36.46C61.5316 36.1054 61.524 35.5909 61.5766 34.8618L60.5792 34.7898ZM61.1648 37.1599C61.5934 37.5972 62.2924 37.8097 62.9247 37.5523L62.5476 36.6261C62.3422 36.7097 62.0641 36.6488 61.879 36.4599L61.1648 37.1599ZM62.9248 37.5523C63.2997 37.3996 63.5063 37.1432 63.6294 36.8788C63.6857 36.758 63.7238 36.6372 63.7527 36.5419C63.7845 36.4366 63.8041 36.3666 63.8304 36.2962L62.8937 35.9461C62.8528 36.0555 62.8197 36.1723 62.7956 36.2522C62.7684 36.342 62.7471 36.4047 62.7229 36.4567C62.6849 36.5383 62.6458 36.5861 62.5476 36.6261L62.9248 37.5523ZM63.8305 36.296C64.0704 35.6532 64.6437 35.32 65.4496 35.2076C66.2599 35.0945 67.2027 35.227 67.9517 35.4288L68.2119 34.4633C67.3909 34.2421 66.3035 34.0787 65.3114 34.2172C64.3147 34.3563 63.3132 34.8222 62.8936 35.9463L63.8305 36.296ZM67.9518 35.4289C68.5381 35.5867 68.8919 35.8195 69.1149 36.0742C69.3385 36.3297 69.4662 36.6479 69.5295 37.0386C69.594 37.4359 69.5881 37.8835 69.5606 38.3803C69.5342 38.8579 69.4855 39.4039 69.4836 39.9123L70.4836 39.9159C70.4853 39.4411 70.5299 38.9631 70.5591 38.4356C70.5872 37.9273 70.5994 37.3888 70.5167 36.8786C70.4329 36.3616 70.2484 35.8508 69.8674 35.4156C69.4857 34.9796 68.9425 34.6599 68.2118 34.4632L67.9518 35.4289ZM33.6462 25.1646C33.5201 24.0804 33.3929 22.9833 33.359 21.8535L32.3594 21.8835C32.3949 23.0629 32.5275 24.2018 32.6529 25.2801L33.6462 25.1646ZM33.359 21.8534C33.3384 21.1743 33.3251 20.4836 33.3152 19.7876L32.3153 19.8017C32.3252 20.501 32.3387 21.1974 32.3594 21.8836L33.359 21.8534ZM33.3152 19.7876C33.3108 19.4733 33.4818 19.1588 33.8013 18.9665L33.2857 18.1097C32.6856 18.4708 32.3055 19.1042 32.3153 19.8017L33.3152 19.7876ZM33.8015 18.9664L33.9704 18.8647L33.4544 18.0081L33.2856 18.1098L33.8015 18.9664ZM33.9701 18.8648C34.4854 18.5549 35.1106 18.4172 35.7565 18.4493L35.8061 17.4505C34.9915 17.4101 34.1638 17.5813 33.4547 18.0079L33.9701 18.8648ZM35.7567 18.4493C36.0356 18.4631 36.3246 18.4506 36.5996 18.4351C36.8829 18.419 37.1474 18.4 37.4142 18.3946C37.9497 18.3836 38.3939 18.4323 38.7521 18.6235L39.2229 17.7412C38.6315 17.4257 37.9735 17.3829 37.3938 17.3948C37.103 17.4007 36.8066 17.4217 36.5431 17.4367C36.2715 17.452 36.028 17.4615 35.806 17.4505L35.7567 18.4493ZM38.7522 18.6235C38.8501 18.6757 38.9422 18.7396 39.0313 18.8143L39.6744 18.0485C39.5395 17.9352 39.3901 17.8304 39.2228 17.7411L38.7522 18.6235ZM39.0311 18.8142C39.2412 18.9908 39.3696 19.2361 39.4027 19.4977L40.3948 19.3722C40.3311 18.8683 40.0828 18.3918 39.6746 18.0487L39.0311 18.8142ZM39.4027 19.4976C39.4979 20.2517 39.5883 21.0012 39.6767 21.7408L40.6696 21.6221C40.5811 20.8821 40.4904 20.1299 40.3948 19.3723L39.4027 19.4976ZM39.6767 21.7409C39.8189 22.9285 39.9658 24.1497 40.1312 25.3564L41.1219 25.2207C40.9579 24.0236 40.8119 22.8105 40.6696 21.622L39.6767 21.7409ZM40.1312 25.3563C40.2194 26.0016 39.8636 26.6593 39.1904 26.9663L39.6054 27.8761C40.6543 27.3977 41.2738 26.3309 41.1219 25.2208L40.1312 25.3563ZM35.2776 27.6964L35.2574 27.6939L35.1355 28.6865L35.1557 28.6889L35.2776 27.6964ZM35.2552 27.6937C34.438 27.5969 33.8407 26.9747 33.7683 26.2658L32.7735 26.3674C32.8965 27.5715 33.8851 28.5385 35.1377 28.6867L35.2552 27.6937ZM33.7683 26.2658C33.7314 25.9045 33.6894 25.5369 33.6462 25.1647L32.6529 25.2801C32.6961 25.6518 32.7374 26.0135 32.7735 26.3674L33.7683 26.2658ZM71.3978 23.249L72.3884 23.3854L72.3909 23.3672L72.3928 23.349L71.3978 23.249ZM71.3967 23.2593L70.405 23.1307L70.4031 23.1453L70.4016 23.16L71.3967 23.2593ZM69.8927 24.9495L69.6383 23.9824L69.6381 23.9825L69.8927 24.9495ZM67.5991 24.9386L67.3224 25.8995L67.3225 25.8996L67.5991 24.9386ZM66.947 24.6676L67.4607 23.8096L67.4599 23.8092L66.947 24.6676ZM66.4591 24.2655L67.1961 23.5896L67.1957 23.5891L66.4591 24.2655ZM65.9885 22.9221L64.9907 22.8563V22.8563L65.9885 22.9221ZM66.1579 21.5375L65.1818 21.3201L65.1817 21.3204L66.1579 21.5375ZM67.2066 16.8286L68.1827 17.046L68.1828 17.0459L67.2066 16.8286ZM69.5701 15.2811L69.4699 16.2761L69.4709 16.2762L69.5701 15.2811ZM72.1161 18.8291L73.0912 19.0509L73.1151 18.9459L73.1161 18.8383L72.1161 18.8291ZM70.9213 30.514L71.9152 30.6239V30.6239L70.9213 30.514ZM70.631 33.0702L69.6377 32.9544L69.6377 32.9545L70.631 33.0702ZM70.0495 34.0477L70.6316 34.8608L70.6316 34.8608L70.0495 34.0477ZM68.363 34.6202L68.4235 35.6184L68.4238 35.6184L68.363 34.6202ZM65.4368 34.0213L65.791 33.0862L65.7908 33.0861L65.4368 34.0213ZM64.7453 33.6813L64.1282 34.4681L64.1394 34.4769L64.1509 34.4854L64.7453 33.6813ZM64.7363 33.6744L65.3534 32.8875L65.3453 32.8812L65.3371 32.875L64.7363 33.6744ZM64.2511 32.2813L65.2235 32.515L65.2237 32.5141L64.2511 32.2813ZM64.3461 31.8864L63.3745 31.65L63.3741 31.6514L64.3461 31.8864ZM65.6774 25.9481L66.6598 26.1344L66.6599 26.1342L65.6774 25.9481ZM66.3854 25.3242L66.2708 24.3308L66.2704 24.3309L66.3854 25.3242ZM67.6336 25.3321L67.7609 24.3402L67.7607 24.3402L67.6336 25.3321ZM69.4505 25.5651L69.5779 24.5733L69.5778 24.5733L69.4505 25.5651ZM70.511 25.8507L69.9964 26.7082L69.9967 26.7084L70.511 25.8507ZM70.7948 26.0691L71.4746 25.3358L71.4739 25.3351L70.7948 26.0691ZM71.1684 26.9722L72.1671 27.0225L72.1672 27.0221L71.1684 26.9722ZM19.1342 45.4891L18.2504 45.9569L18.2505 45.957L19.1342 45.4891ZM15.0934 40.525L15.7355 39.7583L15.7353 39.7581L15.0934 40.525ZM14.0224 39.4759L14.8527 38.9185L14.8525 38.9183L14.0224 39.4759ZM13.858 38.1005L14.739 38.5736L14.7392 38.5734L13.858 38.1005ZM14.7435 37.3942L14.3422 36.4782L14.3418 36.4784L14.7435 37.3942ZM18.5384 37.2527L18.2644 38.2144L18.2644 38.2145L18.5384 37.2527ZM21.9007 39.0083L21.3121 39.8167L21.3122 39.8168L21.9007 39.0083ZM24.884 41.6491L25.6161 40.9679L25.6161 40.9679L24.884 41.6491ZM25.6812 44.4853L26.6478 44.7416L26.6479 44.7413L25.6812 44.4853ZM21.8189 47.447L21.8482 48.4466L21.8483 48.4466L21.8189 47.447ZM32.7853 15.363L31.7853 15.3652L31.7853 15.3672L32.7853 15.363ZM32.7091 9.21594L31.7097 9.25164L31.7098 9.25202L32.7091 9.21594ZM34.2608 6.30936L33.7086 5.4756L33.708 5.476L34.2608 6.30936ZM37.0221 6.08455L36.6179 6.99922L36.6179 6.99924L37.0221 6.08455ZM38.5554 8.15943L37.5588 8.24193L37.5601 8.25693L37.5618 8.27188L38.5554 8.15943ZM38.85 10.9709L39.845 10.871L39.8449 10.8709L38.85 10.9709ZM39.324 15.2436L38.3323 15.3727L38.3323 15.3727L39.324 15.2436ZM38.1473 17.1586L37.7944 16.223L37.7941 16.2231L38.1473 17.1586ZM38.1313 17.1646L38.4788 18.1023L38.4919 18.0974L38.505 18.0922L38.1313 17.1646ZM35.4823 17.4321L35.4329 18.4309L35.4335 18.4309L35.4823 17.4321ZM34.4527 17.3327L34.2958 18.3203L34.296 18.3203L34.4527 17.3327ZM32.7857 15.5181L33.7857 15.5156L33.7857 15.5139L32.7857 15.5181ZM43.9584 22.746L42.9587 22.7194L42.9587 22.7215L43.9584 22.746ZM44.5968 16.1656L43.6069 16.0238L43.6055 16.0339L44.5968 16.1656ZM44.5986 16.152L45.5887 16.2923L45.5898 16.284L44.5986 16.152ZM46.6807 14.3852L46.7069 15.3849L46.7077 15.3849L46.6807 14.3852ZM46.7463 14.3838L46.7266 13.384L46.7258 13.384L46.7463 14.3838ZM49.1539 14.4667L49.0581 15.4621L49.0593 15.4622L49.1539 14.4667ZM49.8299 14.5508L49.673 15.5385L49.6734 15.5385L49.8299 14.5508ZM51.6202 16.5177L50.6202 16.5255V16.5257L51.6202 16.5177ZM51.6101 21.4659L50.6103 21.4504L50.6103 21.4505L51.6101 21.4659ZM51.5846 22.9501L50.5848 22.932L50.5848 22.9331L51.5846 22.9501ZM51.5797 23.2255L52.5795 23.2432L52.5795 23.2425L51.5797 23.2255ZM50.3078 24.9588L50.5985 25.9156L50.6188 25.9095L50.6388 25.9024L50.3078 24.9588ZM50.2916 24.9642L50.001 24.0074L49.9839 24.0125L49.9671 24.0183L50.2916 24.9642ZM48.6405 25.1605L48.647 26.1605H48.6471L48.6405 25.1605ZM45.8091 24.893L45.5395 25.856L45.5397 25.856L45.8091 24.893ZM45.0536 24.6103L45.486 23.7086L45.4853 23.7083L45.0536 24.6103ZM43.9555 22.8897L44.9554 22.9032L44.9554 22.9027L43.9555 22.8897ZM45.0954 11.9384L46.0914 12.0275L46.0915 12.0273L45.0954 11.9384ZM45.2325 9.82453L44.2343 9.76458L44.2336 9.7765L44.2332 9.78843L45.2325 9.82453ZM45.575 4.12188L44.591 3.94374L44.5804 4.00241L44.5768 4.06193L45.575 4.12188ZM48.8475 1.78117L48.7727 2.77837L48.7738 2.77846L48.8475 1.78117ZM52.0698 4.77437L53.0675 4.84267L53.0698 4.80831L53.0698 4.77386L52.0698 4.77437ZM51.8617 7.18354L50.8662 7.0887L50.8662 7.08878L51.8617 7.18354ZM51.5712 11.6305L52.5711 11.6373V11.637L51.5712 11.6305ZM51.2882 12.4692L50.4919 11.8643L50.4916 11.8646L51.2882 12.4692ZM49.5309 13.6385L49.2559 12.6771L49.2559 12.6771L49.5309 13.6385ZM46.0199 13.3921L46.3539 12.4495L46.3537 12.4494L46.0199 13.3921ZM45.9397 13.3591L46.3559 12.4498L46.3557 12.4497L45.9397 13.3591ZM54.6949 24.0429L55.6855 24.1795L55.6855 24.1793L54.6949 24.0429ZM55.0407 21.8441L56.027 22.0093L56.027 22.0092L55.0407 21.8441ZM55.5499 18.2197L54.554 18.1293L54.5538 18.131L55.5499 18.2197ZM55.6718 18.0421L56.1417 18.9248L56.142 18.9247L55.6718 18.0421ZM57.2192 17.5527L57.3442 18.5449L57.3444 18.5448L57.2192 17.5527ZM61.1686 17.926L60.8611 18.8775L60.8611 18.8776L61.1686 17.926ZM61.7091 18.6175L60.7093 18.6347L60.7093 18.6359L61.7091 18.6175ZM61.7226 19.318L62.7224 19.2982L62.7224 19.2971L61.7226 19.318ZM61.7096 24.1493L62.7084 24.1985L62.7084 24.1981L61.7096 24.1493ZM61.6748 24.8542L62.6736 24.9037L62.6736 24.9032L61.6748 24.8542ZM59.4834 27.1533L59.6179 28.1442L59.6183 28.1441L59.4834 27.1533ZM59.2327 27.1789L59.3005 28.1766L59.3019 28.1765L59.2327 27.1789ZM56.1288 26.5356L55.7495 27.4609L55.754 27.4627L56.1288 26.5356ZM56.0089 26.4816L55.5672 27.3787L55.5703 27.3802L56.0089 26.4816ZM55.9554 9.35161L54.9644 9.21735L54.9583 9.26287L54.9563 9.30875L55.9554 9.35161ZM59.3258 5.89029L59.3697 4.89125L59.3697 4.89125L59.3258 5.89029ZM62.1318 9.21698L63.1314 9.18845V9.18839L62.1318 9.21698ZM61.9553 12.0485L60.9599 11.9525L60.9599 11.9529L61.9553 12.0485ZM61.7313 15.2077L62.7295 15.2684L62.7295 15.2679L61.7313 15.2077ZM61.1272 16.3288L60.5361 15.5221L60.5351 15.5228L61.1272 16.3288ZM60.6494 16.6026L60.2517 15.6851L60.2508 15.6855L60.6494 16.6026ZM58.6022 16.9305L58.6035 17.9305L58.6036 17.9305L58.6022 16.9305ZM56.7096 16.6558L56.3136 17.5741L56.3278 17.5802L56.3421 17.5859L56.7096 16.6558ZM56.6971 16.6507L57.102 15.7363L57.0857 15.7291L57.0691 15.7225L56.6971 16.6507ZM55.7067 15.1479L54.7076 15.105L54.7076 15.1052L55.7067 15.1479ZM72.3919 16.5542L71.4927 16.9917L71.4928 16.992L72.3919 16.5542ZM69.6606 14.5131L69.848 13.5309L69.8479 13.5308L69.6606 14.5131ZM67.6916 14.8431L67.1531 14.0004L67.1529 14.0006L67.6916 14.8431ZM66.1045 18.0188L65.1209 17.8386L65.1209 17.8386L66.1045 18.0188ZM62.9266 35.3647L63.9102 35.545L63.9103 35.5448L62.9266 35.3647ZM61.9056 36.2096L60.9071 36.1553L60.8785 36.6798L61.2942 37.0009L61.9056 36.2096ZM62.5458 24.184L61.547 24.1353L61.547 24.1353L62.5458 24.184ZM62.5595 19.3038L61.5597 19.3237V19.3237L62.5595 19.3038ZM62.5442 15.4875L63.5438 15.5178L63.5438 15.5177L62.5442 15.4875ZM62.789 12.1167L61.7937 12.0208L61.7936 12.021L62.789 12.1167ZM62.9687 9.19674L63.9683 9.16818L63.9683 9.16809L62.9687 9.19674ZM59.3656 5.12044L59.3217 6.11948L59.3217 6.11948L59.3656 5.12044ZM55.1225 9.27326L54.1312 9.14147L54.1254 9.18565L54.1234 9.23018L55.1225 9.27326ZM54.7796 17.2265L53.7805 17.1834L53.7805 17.1836L54.7796 17.2265ZM54.2135 21.7268L53.2272 21.5618L53.2272 21.5618L54.2135 21.7268ZM53.7142 25.2215L54.7097 25.3158L54.7098 25.3156L53.7142 25.2215ZM53.7017 27.0205L54.701 26.9828L53.7017 27.0205ZM53.6956 28.6853L54.6918 28.7733L54.6918 28.7732L53.6956 28.6853ZM53.2579 31.7293L54.2434 31.8991L54.2435 31.8982L53.2579 31.7293ZM53.0193 33.1694L53.3113 34.1258L53.9125 33.9422L54.0078 33.3209L53.0193 33.1694ZM52.645 33.1356L51.6503 33.2384L51.6777 33.5026L51.8325 33.7184L52.645 33.1356ZM52.4217 22.9629L53.4216 22.981L53.4216 22.9805L52.4217 22.9629ZM52.4473 21.4769L53.4471 21.4927L53.4471 21.4925L52.4473 21.4769ZM52.4244 13.3985L51.4245 13.4101L51.4245 13.4105L52.4244 13.3985ZM52.4087 12.053L51.4088 12.0644L51.4088 12.0647L52.4087 12.053ZM52.6957 7.2508L53.6912 7.34562V7.3456L52.6957 7.2508ZM52.906 4.79853L53.9037 4.86594L53.906 4.83227V4.79853H52.906ZM48.9145 1.01276L48.9882 0.0154844L48.9877 0.0154477L48.9145 1.01276ZM44.7451 4.01834L43.7601 3.84551L43.7503 3.9014L43.7469 3.95803L44.7451 4.01834ZM44.3963 9.79028L43.3981 9.72997L43.3974 9.74196L43.397 9.75397L44.3963 9.79028ZM43.766 16.072L44.7572 16.2038L44.7573 16.2038L43.766 16.072ZM43.1215 22.7272L42.1218 22.7007L42.1218 22.7009L43.1215 22.7272ZM43.2344 26.3335L42.2355 26.3817L42.2356 26.3819L43.2344 26.3335ZM43.3466 28.8652L44.3458 28.9074L44.3474 28.8679L44.346 28.8285L43.3466 28.8652ZM43.1593 33.2979L43.6358 34.1771L44.1345 33.9068L44.1584 33.3401L43.1593 33.2979ZM42.9143 33.3484L42.9027 32.3485L42.9026 32.3485L42.9143 33.3484ZM42.6719 33.3034L41.6832 33.4528L41.7566 33.9391L42.1867 34.1778L42.6719 33.3034ZM41.6363 26.449L42.6251 26.2996L42.6251 26.2995L41.6363 26.449ZM41.0054 21.5969L41.9983 21.4781L41.9983 21.478L41.0054 21.5969ZM40.3398 16.4925L41.3285 16.3429L41.3285 16.3428L40.3398 16.4925ZM39.6835 10.9L40.6785 10.8001L40.6785 10.8L39.6835 10.9ZM39.3889 8.09013L38.3923 8.17236L38.3936 8.1877L38.3953 8.20299L39.3889 8.09013ZM35.7287 5.066L35.7482 6.06581L35.7483 6.0658L35.7287 5.066ZM33.7577 5.69334L34.3133 6.52476L34.3134 6.52467L33.7577 5.69334ZM31.8727 9.24148L32.8721 9.20567L32.872 9.20549L31.8727 9.24148ZM31.9482 15.3646L30.9482 15.3669V15.3669L31.9482 15.3646ZM32.0223 21.8899L33.0219 21.8599L33.0219 21.8598L32.0223 21.8899ZM32.3171 25.3044L31.3238 25.4197L31.3238 25.4201L32.3171 25.3044ZM32.5678 28.5705L33.5677 28.584V28.584L32.5678 28.5705ZM32.4493 37.3063L31.4494 37.2927L31.4486 37.3485L31.4541 37.4041L32.4493 37.3063ZM33.1482 44.4196L34.1475 44.3821L34.1463 44.3519L34.1434 44.3218L33.1482 44.4196ZM31.8171 47.6782L32.1082 48.6349L32.1103 48.6342L31.8171 47.6782ZM29.3676 46.0242L28.5702 46.6276L28.5702 46.6276L29.3676 46.0242ZM28.4685 44.8357L27.671 45.439L27.671 45.439L28.4685 44.8357ZM24.7218 40.3356L24.0457 41.0725L24.0459 41.0726L24.7218 40.3356ZM20.6525 37.27L20.1295 38.1224L20.1295 38.1224L20.6525 37.27ZM14.1564 36.8114L13.7633 35.8919L13.7628 35.8921L14.1564 36.8114ZM13.1972 37.5488L14.0159 38.123L14.0162 38.1226L13.1972 37.5488ZM13.2268 39.773L12.4273 40.3737L12.4695 40.4299L12.5192 40.4797L13.2268 39.773ZM16.8368 43.388L17.6372 42.7885L17.5946 42.7316L17.5444 42.6814L16.8368 43.388ZM19.3793 47.9337L20.3108 47.5699L20.3099 47.5676L19.3793 47.9337ZM23.7276 55.6182L23.0502 56.3538L23.0503 56.3539L23.7276 55.6182ZM29.235 63.8944L28.297 64.2409L28.3189 64.3002L28.3481 64.3563L29.235 63.8944ZM29.2771 63.9752L28.3902 64.4371L28.4181 64.4908L28.4524 64.5407L29.2771 63.9752ZM33.0893 67.9154L32.4274 68.665L32.4274 68.6651L33.0893 67.9154ZM37.2528 73.3842L38.2461 73.2684L38.2461 73.2684L37.2528 73.3842ZM37.2844 80.4927L38.2839 80.5223L38.2839 80.5223L37.2844 80.4927ZM37.2147 83.6876L36.2147 83.6865V83.6876H37.2147ZM37.6482 84.0802L37.6586 85.0801L38.0241 85.0763L38.301 84.8377L37.6482 84.0802ZM38.068 83.7181L38.7218 84.4747L39.026 84.2118L39.0636 83.8115L38.068 83.7181ZM39.4848 81.2982L38.9087 80.4808L38.9087 80.4808L39.4848 81.2982ZM43.4134 80.2213L43.4479 81.2207L43.4481 81.2207L43.4134 80.2213ZM47.2609 80.2885L47.2652 81.2885L47.2653 81.2885L47.2609 80.2885ZM54.1624 79.6735L54.2468 80.67H54.2469L54.1624 79.6735ZM60.9798 80.1293L60.7411 81.1004L60.7412 81.1004L60.9798 80.1293ZM63.8544 83.2887L62.8578 83.3715L62.8582 83.375L63.8544 83.2887ZM63.8708 83.4822L62.8742 83.5654L62.8744 83.5671L63.8708 83.4822ZM64.2807 83.833L64.2749 84.833H64.2807V83.833ZM64.289 83.833L64.2941 82.833H64.289V83.833ZM64.7029 83.423L63.7065 83.5079L63.7066 83.5086L64.7029 83.423ZM65.5808 73.2369L66.4985 73.6343L66.4985 73.6342L65.5808 73.2369ZM68.3567 68.1716L67.4481 67.754L67.448 67.754L68.3567 68.1716ZM69.9532 59.9408L70.9512 60.0041V60.0041L69.9532 59.9408ZM72.6278 21.7903L73.6166 21.9395L73.6166 21.9394L72.6278 21.7903ZM70.4071 23.1126C70.4054 23.1253 70.4042 23.1359 70.4034 23.1432C70.4026 23.1501 70.4021 23.1558 70.402 23.1569C70.4018 23.1582 70.4019 23.1574 70.4019 23.1572C70.402 23.1567 70.4021 23.1551 70.4023 23.153C70.4028 23.149 70.4036 23.141 70.405 23.1307L72.3884 23.3879C72.3899 23.3759 72.391 23.3662 72.3916 23.3605C72.3919 23.3576 72.3921 23.3552 72.3922 23.3537C72.3923 23.353 72.3924 23.3524 72.3924 23.3521C72.3925 23.3513 72.3924 23.3519 72.3925 23.3515C72.3925 23.3509 72.3921 23.3549 72.3916 23.36C72.391 23.3655 72.39 23.3744 72.3884 23.3854L70.4071 23.1126ZM70.4016 23.16C70.3666 23.5107 70.0973 23.8617 69.6383 23.9824L70.1471 25.9166C71.356 25.5986 72.2681 24.5983 72.3917 23.3585L70.4016 23.16ZM69.6381 23.9825C69.0527 24.1366 68.4313 24.1375 67.8757 23.9776L67.3225 25.8996C68.2503 26.1666 69.2399 26.1555 70.1473 25.9166L69.6381 23.9825ZM67.8757 23.9776C67.6975 23.9263 67.5624 23.8705 67.4607 23.8096L66.4333 25.5256C66.7326 25.7047 67.0438 25.8193 67.3224 25.8995L67.8757 23.9776ZM67.4599 23.8092C67.368 23.7542 67.2813 23.6824 67.1961 23.5896L65.7221 24.9413C65.9192 25.1562 66.1533 25.3583 66.4341 25.526L67.4599 23.8092ZM67.1957 23.5891C67.0447 23.4246 66.9717 23.2098 66.9864 22.9879L64.9907 22.8563C64.9412 23.6065 65.1904 24.3623 65.7226 24.9418L67.1957 23.5891ZM66.9864 22.9879C67.0185 22.5 67.0611 22.0823 67.134 21.7546L65.1817 21.3204C65.0736 21.8064 65.0239 22.3527 64.9907 22.8563L66.9864 22.9879ZM67.1339 21.7549L68.1827 17.046L66.2306 16.6113L65.1818 21.3201L67.1339 21.7549ZM68.1828 17.0459C68.2498 16.7449 68.4114 16.5602 68.6249 16.4388C68.8604 16.305 69.172 16.246 69.4699 16.2761L69.6704 14.2861C68.4178 14.1599 66.6469 14.7407 66.2305 16.6114L68.1828 17.0459ZM69.4709 16.2762C69.8327 16.3122 70.2314 16.4833 70.541 16.8422C70.8444 17.1941 71.1256 17.8016 71.1162 18.8198L73.1161 18.8383C73.1291 17.4287 72.7329 16.3216 72.0556 15.5361C71.3843 14.7577 70.4988 14.3687 69.6694 14.286L69.4709 16.2762ZM71.141 18.6073C71.0699 18.9201 70.6266 20.9232 70.4028 23.1489L72.3928 23.349C72.6045 21.2436 73.0271 19.3328 73.0912 19.0509L71.141 18.6073ZM69.9274 30.404C69.8279 31.3031 69.7312 32.1532 69.6377 32.9544L71.6243 33.186C71.7181 32.381 71.8154 31.5269 71.9152 30.6239L69.9274 30.404ZM69.6377 32.9545C69.6256 33.0583 69.5701 33.161 69.4673 33.2346L70.6316 34.8608C71.1919 34.4597 71.5468 33.8509 71.6243 33.1859L69.6377 32.9545ZM69.4673 33.2346C69.1672 33.4495 68.7428 33.5952 68.3022 33.6221L68.4238 35.6184C69.1895 35.5718 69.987 35.3223 70.6316 34.8608L69.4673 33.2346ZM68.3024 33.6221C67.5231 33.6693 66.7064 33.4329 65.791 33.0862L65.0825 34.9565C66.0323 35.3162 67.1908 35.6932 68.4235 35.6184L68.3024 33.6221ZM65.7908 33.0861C65.5382 32.9905 65.4183 32.9352 65.3397 32.8771L64.1509 34.4854C64.4813 34.7296 64.8502 34.8686 65.0828 34.9566L65.7908 33.0861ZM65.3624 32.8944C65.356 32.8894 65.3507 32.8853 65.3473 32.8828C65.3441 32.8803 65.3413 32.8782 65.3409 32.8779C65.3397 32.877 65.3411 32.8781 65.3428 32.8793C65.3447 32.8808 65.3485 32.8837 65.3534 32.8875L64.1192 34.4613C64.1256 34.4663 64.1309 34.4703 64.1343 34.4729C64.1375 34.4753 64.1404 34.4775 64.1408 34.4778C64.1419 34.4786 64.1405 34.4776 64.1388 34.4763C64.1369 34.4749 64.1331 34.472 64.1282 34.4681L65.3624 32.8944ZM65.3371 32.875C65.2424 32.8038 65.1858 32.6717 65.2235 32.515L63.2788 32.0477C63.071 32.9126 63.35 33.8835 64.1355 34.4738L65.3371 32.875ZM65.2237 32.5141C65.2483 32.4114 65.2719 32.3131 65.2894 32.2406C65.2981 32.2043 65.3053 32.1745 65.3103 32.1537C65.3128 32.1434 65.3148 32.1353 65.3161 32.1298C65.3168 32.1271 65.3173 32.125 65.3176 32.1236C65.3178 32.1229 65.3179 32.1223 65.318 32.122C65.318 32.1218 65.3181 32.1217 65.3181 32.1216C65.3181 32.1216 65.3181 32.1215 65.3181 32.1215C65.3181 32.1215 65.3181 32.1215 65.3181 32.1215C65.3181 32.1215 65.3181 32.1215 65.3181 32.1215C65.3181 32.1215 65.3181 32.1215 64.3461 31.8864C63.3741 31.6514 63.3741 31.6514 63.3741 31.6514C63.3741 31.6514 63.3741 31.6514 63.3741 31.6514C63.3741 31.6514 63.3741 31.6514 63.3741 31.6514C63.3741 31.6514 63.3741 31.6515 63.3741 31.6515C63.3741 31.6516 63.3741 31.6518 63.374 31.652C63.3739 31.6523 63.3738 31.6529 63.3736 31.6536C63.3732 31.6551 63.3727 31.6572 63.3721 31.66C63.3707 31.6656 63.3687 31.6738 63.3662 31.6843C63.3611 31.7053 63.3538 31.7355 63.345 31.7721C63.3274 31.8452 63.3035 31.9445 63.2786 32.0485L65.2237 32.5141ZM65.3178 32.1228C65.7387 30.3927 66.259 28.2484 66.6598 26.1344L64.6949 25.7618C64.305 27.818 63.7967 29.9143 63.3745 31.65L65.3178 32.1228ZM66.6599 26.1342C66.6327 26.2775 66.5309 26.3141 66.5005 26.3176L66.2704 24.3309C65.5205 24.4178 64.8466 24.9607 64.6948 25.762L66.6599 26.1342ZM66.5 26.3177C66.8346 26.2791 67.173 26.2812 67.5065 26.324L67.7607 24.3402C67.2668 24.2769 66.766 24.2737 66.2708 24.3308L66.5 26.3177ZM67.5064 26.3239L69.3233 26.557L69.5778 24.5733L67.7609 24.3402L67.5064 26.3239ZM69.3232 26.557C69.7299 26.6092 69.8948 26.6472 69.9964 26.7082L71.0255 24.9932C70.5044 24.6806 69.9067 24.6155 69.5779 24.5733L69.3232 26.557ZM69.9967 26.7084C70.0214 26.7232 70.058 26.7498 70.1156 26.8032L71.4739 25.3351C71.3568 25.2268 71.2084 25.1029 71.0252 24.9931L69.9967 26.7084ZM70.1149 26.8025C70.1595 26.8438 70.1714 26.8868 70.1696 26.9224L72.1672 27.0221C72.1989 26.3853 71.9453 25.7721 71.4746 25.3358L70.1149 26.8025ZM70.1697 26.9219C70.127 27.7686 70.0348 29.4324 69.9274 30.404L71.9152 30.6239C72.0304 29.5824 72.1251 27.8578 72.1671 27.0225L70.1697 26.9219ZM20.0181 45.0212C18.9657 43.0332 17.503 41.2385 15.7355 39.7583L14.4513 41.2916C16.0269 42.6111 17.3229 44.2047 18.2504 45.9569L20.0181 45.0212ZM15.7353 39.7581C15.2926 39.3876 15.0282 39.1799 14.8527 38.9185L13.1922 40.0333C13.5669 40.5914 14.12 41.0143 14.4515 41.2918L15.7353 39.7581ZM14.8525 38.9183C14.7854 38.8183 14.7498 38.7203 14.7391 38.6486C14.7341 38.6149 14.7354 38.5935 14.7369 38.5831C14.7376 38.578 14.7384 38.5753 14.7387 38.5744C14.7389 38.5739 14.739 38.5737 14.739 38.5737C14.739 38.5737 14.739 38.5737 14.739 38.5736L12.977 37.6274C12.5031 38.5099 12.8033 39.4544 13.1923 40.0335L14.8525 38.9183ZM14.7392 38.5734C14.7407 38.5704 14.7597 38.5376 14.8322 38.4832C14.9053 38.4284 15.0088 38.3698 15.1452 38.3099L14.3418 36.4784C13.9292 36.6594 13.317 36.9939 12.9769 37.6277L14.7392 38.5734ZM15.1449 38.3101C16.0483 37.9142 17.1865 37.9074 18.2644 38.2144L18.8123 36.291C17.4145 35.8927 15.7787 35.8488 14.3422 36.4782L15.1449 38.3101ZM18.2644 38.2145C19.3407 38.521 20.3385 39.1079 21.3121 39.8167L22.4893 38.1999C21.4298 37.4285 20.2122 36.6897 18.8123 36.291L18.2644 38.2145ZM21.3122 39.8168C22.3449 40.5685 23.2973 41.4118 24.1519 42.3303L25.6161 40.9679C24.6728 39.954 23.6239 39.0258 22.4892 38.1998L21.3122 39.8168ZM24.1518 42.3302C24.7622 42.9863 24.8696 43.6436 24.7145 44.2294L26.6479 44.7413C26.9878 43.4575 26.6697 42.1003 25.6161 40.9679L24.1518 42.3302ZM24.7146 44.2291C24.5756 44.7533 24.1971 45.3054 23.6404 45.7383C23.0868 46.1689 22.4238 46.4288 21.7895 46.4474L21.8483 48.4466C22.9693 48.4136 24.0322 47.9673 24.8682 47.3171C25.7012 46.6693 26.3762 45.7663 26.6478 44.7416L24.7146 44.2291ZM21.7896 46.4474C21.3162 46.4613 21.0291 46.3262 20.7975 46.1265C20.5277 45.8939 20.2905 45.5358 20.018 45.0211L18.2505 45.957C18.5426 46.5087 18.9227 47.1508 19.4915 47.6412C20.0985 48.1645 20.8714 48.4752 21.8482 48.4466L21.7896 46.4474ZM33.7853 15.3608C33.7804 13.1555 33.776 11.0498 33.7085 9.17987L31.7098 9.25202C31.7758 11.0814 31.7803 13.1506 31.7853 15.3652L33.7853 15.3608ZM33.7085 9.18025C33.6807 8.40295 34.0705 7.63551 34.8135 7.14271L33.708 5.476C32.4256 6.32659 31.6555 7.73198 31.7097 9.25164L33.7085 9.18025ZM34.8129 7.14311C35.3318 6.7995 36.0289 6.73895 36.6179 6.99922L37.4263 5.16988C36.2223 4.63784 34.8035 4.75053 33.7086 5.4756L34.8129 7.14311ZM36.6179 6.99924C37.1812 7.24813 37.5169 7.73604 37.5588 8.24193L39.552 8.07692C39.4451 6.78536 38.6066 5.69141 37.4262 5.16986L36.6179 6.99924ZM37.5618 8.27188C37.6669 9.20095 37.7606 10.1322 37.855 11.071L39.8449 10.8709C39.7508 9.93416 39.6558 8.99049 39.5491 8.04697L37.5618 8.27188ZM37.855 11.0709C37.9958 12.473 38.1438 13.925 38.3323 15.3727L40.3156 15.1144C40.1314 13.6996 39.986 12.2748 39.845 10.871L37.855 11.0709ZM38.3323 15.3727C38.3769 15.7149 38.1839 16.0761 37.7944 16.223L38.5001 18.0943C39.7468 17.6241 40.4816 16.3887 40.3156 15.1144L38.3323 15.3727ZM37.7941 16.2231C37.7963 16.2222 37.7977 16.2217 37.7972 16.2219C37.7969 16.222 37.7967 16.2221 37.7957 16.2224C37.795 16.2227 37.7937 16.2232 37.7923 16.2237C37.7872 16.2256 37.7739 16.2305 37.7577 16.237L38.505 18.0922C38.4991 18.0946 38.4944 18.0964 38.4913 18.0975C38.4884 18.0987 38.4863 18.0994 38.4862 18.0995C38.4861 18.0995 38.4861 18.0995 38.4867 18.0993C38.487 18.0992 38.4882 18.0987 38.4892 18.0984C38.4914 18.0975 38.4955 18.096 38.5004 18.0942L37.7941 16.2231ZM37.7839 16.2269C37.1597 16.4582 36.4156 16.4765 35.5311 16.4333L35.4335 18.4309C36.3378 18.4751 37.4414 18.4867 38.4788 18.1023L37.7839 16.2269ZM35.5317 16.4333C35.2134 16.4176 34.9028 16.3916 34.6095 16.345L34.296 18.3203C34.6864 18.3822 35.0747 18.4132 35.4329 18.4309L35.5317 16.4333ZM34.6096 16.345C34.071 16.2595 33.7866 15.8613 33.7857 15.5156L31.7857 15.5206C31.7894 16.9698 32.9135 18.1007 34.2958 18.3203L34.6096 16.345ZM33.7857 15.5139C33.7856 15.4893 33.7856 15.4644 33.7855 15.4384C33.7854 15.4127 33.7854 15.3858 33.7853 15.3588L31.7853 15.3672C31.7854 15.3917 31.7855 15.4165 31.7855 15.4425C31.7856 15.4682 31.7856 15.4951 31.7857 15.5222L33.7857 15.5139ZM44.958 22.7725C45.0153 20.6124 45.3022 18.4488 45.5881 16.2973L43.6055 16.0339C43.322 18.1679 43.0193 20.4362 42.9587 22.7194L44.958 22.7725ZM45.5867 16.3074C45.5877 16.3003 45.5885 16.2943 45.589 16.2902C45.5895 16.2863 45.59 16.2829 45.5901 16.282C45.5903 16.2803 45.5902 16.2814 45.59 16.2827C45.5898 16.2843 45.5893 16.2877 45.5887 16.2923L43.6085 16.0117C43.6075 16.0185 43.6067 16.0243 43.6062 16.0281C43.6058 16.0317 43.6054 16.0351 43.6053 16.0357C43.6051 16.0371 43.6053 16.0359 43.6055 16.0343C43.6057 16.0324 43.6062 16.0287 43.6069 16.0238L45.5867 16.3074ZM45.5898 16.284C45.6494 15.8367 46.0802 15.4013 46.7069 15.3849L46.6545 13.3856C45.1388 13.4253 43.8085 14.509 43.6073 16.02L45.5898 16.284ZM46.7077 15.3849C46.7254 15.3844 46.7418 15.3841 46.7668 15.3836L46.7258 13.384C46.7074 13.3844 46.68 13.3849 46.6537 13.3856L46.7077 15.3849ZM46.7661 15.3836C47.5389 15.3683 48.304 15.3896 49.0581 15.4621L49.2497 13.4713C48.4049 13.39 47.5612 13.3675 46.7266 13.384L46.7661 15.3836ZM49.0593 15.4622C49.267 15.482 49.4725 15.5066 49.673 15.5385L49.9869 13.5632C49.7358 13.5233 49.4876 13.4939 49.2485 13.4712L49.0593 15.4622ZM49.6734 15.5385C50.269 15.6329 50.6168 16.0914 50.6202 16.5255L52.6202 16.5098C52.6084 15.0116 51.4599 13.7967 49.9865 13.5632L49.6734 15.5385ZM50.6202 16.5257C50.6334 18.1678 50.6356 19.8185 50.6103 21.4504L52.61 21.4815C52.6357 19.8277 52.6334 18.1598 52.6202 16.5096L50.6202 16.5257ZM50.6103 21.4505C50.6026 21.9439 50.5938 22.4374 50.5848 22.932L52.5844 22.9683C52.5934 22.4739 52.6024 21.9778 52.61 21.4813L50.6103 21.4505ZM50.5848 22.9331C50.584 22.9782 50.5832 23.0233 50.5823 23.0693C50.5815 23.1151 50.5806 23.1617 50.5798 23.2085L52.5795 23.2425C52.5803 23.1974 52.5811 23.1523 52.582 23.1063C52.5828 23.0605 52.5837 23.0139 52.5845 22.9671L50.5848 22.9331ZM50.5798 23.2078C50.5738 23.5486 50.352 23.8836 49.9767 24.0152L50.6388 25.9024C51.8038 25.4937 52.5587 24.4197 52.5795 23.2432L50.5798 23.2078ZM50.0171 24.002C50.0039 24.006 49.9931 24.0096 49.9861 24.0119C49.9796 24.0141 49.9739 24.0161 49.9733 24.0163C49.9712 24.017 49.9742 24.0159 49.978 24.0147C49.9823 24.0132 49.9905 24.0105 50.001 24.0074L50.5823 25.921C50.5955 25.917 50.6064 25.9134 50.6133 25.9111C50.6198 25.9089 50.6256 25.9069 50.6262 25.9067C50.6283 25.906 50.6252 25.9071 50.6214 25.9083C50.6171 25.9098 50.609 25.9124 50.5985 25.9156L50.0171 24.002ZM49.9671 24.0183C49.62 24.1374 49.2073 24.1567 48.6338 24.1605L48.6471 26.1605C49.1898 26.1569 49.9176 26.1498 50.6162 25.91L49.9671 24.0183ZM48.634 24.1605C47.6808 24.1667 46.8404 24.1431 46.0785 23.93L45.5397 25.856C46.6003 26.1527 47.6953 26.1667 48.647 26.1605L48.634 24.1605ZM46.0787 23.93C45.8716 23.872 45.6717 23.7977 45.486 23.7086L44.6211 25.5119C44.9187 25.6547 45.2283 25.7688 45.5395 25.856L46.0787 23.93ZM45.4853 23.7083C45.1332 23.5398 44.9512 23.2166 44.9554 22.9032L42.9556 22.8762C42.9405 23.9969 43.5917 25.0193 44.6218 25.5123L45.4853 23.7083ZM44.9554 22.9027C44.956 22.8595 44.957 22.8165 44.9581 22.7704L42.9587 22.7215C42.9576 22.7679 42.9563 22.8209 42.9556 22.8767L44.9554 22.9027ZM46.0915 12.0273C46.1553 11.3126 46.2056 10.5893 46.2319 9.86063L44.2332 9.78843C44.2084 10.4736 44.1609 11.1606 44.0994 11.8494L46.0915 12.0273ZM46.2307 9.88449L46.5732 4.18184L44.5768 4.06193L44.2343 9.76458L46.2307 9.88449ZM46.559 4.30003C46.6766 3.65091 46.9924 3.28794 47.3601 3.0706C47.7596 2.83447 48.2782 2.74127 48.7727 2.77837L48.9223 0.783972C48.1164 0.723512 47.169 0.860365 46.3425 1.34883C45.4842 1.85608 44.814 2.71224 44.591 3.94374L46.559 4.30003ZM48.7738 2.77846C50.0909 2.87568 51.0693 3.70682 51.0698 4.77488L53.0698 4.77386C53.0685 2.24078 50.8061 0.923043 48.9211 0.783884L48.7738 2.77846ZM51.0721 4.70608C51.0183 5.49232 50.9417 6.29624 50.8662 7.0887L52.8572 7.27838C52.9322 6.49076 53.0115 5.66006 53.0675 4.84267L51.0721 4.70608ZM50.8662 7.08878C50.7284 8.53613 50.5814 10.0793 50.5712 11.6239L52.5711 11.637C52.5806 10.1954 52.7181 8.73966 52.8572 7.27829L50.8662 7.08878ZM50.5712 11.6236C50.5706 11.7163 50.5421 11.7982 50.4919 11.8643L52.0846 13.074C52.4071 12.6494 52.5677 12.1439 52.5711 11.6373L50.5712 11.6236ZM50.4916 11.8646C50.2184 12.2247 49.7683 12.5305 49.2559 12.6771L49.806 14.5999C50.6936 14.346 51.5257 13.8104 52.0848 13.0737L50.4916 11.8646ZM49.2559 12.6771C48.3843 12.9265 47.3572 12.805 46.3539 12.4495L45.6859 14.3346C46.915 14.7702 48.3927 15.0043 49.806 14.5999L49.2559 12.6771ZM46.3537 12.4494C46.3568 12.4505 46.3591 12.4514 46.3605 12.4519C46.3619 12.4525 46.3626 12.4528 46.3626 12.4528C46.3626 12.4528 46.3621 12.4525 46.3609 12.452C46.3597 12.4515 46.3581 12.4508 46.3559 12.4498L45.5235 14.2683C45.5712 14.2902 45.6264 14.3136 45.6861 14.3347L46.3537 12.4494ZM46.3557 12.4497C46.1634 12.3617 46.0774 12.1845 46.0914 12.0275L44.0994 11.8492C44.0086 12.8636 44.5727 13.8334 45.5237 14.2684L46.3557 12.4497ZM55.6855 24.1793C55.785 23.4572 55.9057 22.7331 56.027 22.0093L54.0545 21.6789C53.9338 22.3992 53.8082 23.1512 53.7042 23.9065L55.6855 24.1793ZM56.027 22.0092C56.2245 20.8296 56.4332 19.5758 56.546 18.3083L54.5538 18.131C54.4489 19.3098 54.2536 20.4895 54.0545 21.679L56.027 22.0092ZM56.5458 18.31C56.5201 18.5935 56.3497 18.8141 56.1417 18.9248L55.2019 17.1594C54.8537 17.3447 54.5932 17.6977 54.554 18.1293L56.5458 18.31ZM56.142 18.9247C56.51 18.7286 56.9186 18.5985 57.3442 18.5449L57.0942 16.5606C56.4294 16.6443 55.7865 16.8479 55.2015 17.1596L56.142 18.9247ZM57.3444 18.5448C58.5208 18.3964 59.7385 18.5147 60.8611 18.8775L61.4762 16.9745C60.0783 16.5227 58.5653 16.3749 57.094 16.5606L57.3444 18.5448ZM60.8611 18.8776C60.8144 18.8625 60.712 18.7911 60.7093 18.6347L62.709 18.6003C62.6955 17.8199 62.1621 17.1961 61.4761 16.9744L60.8611 18.8776ZM60.7093 18.6359C60.7136 18.8667 60.7178 19.1011 60.7228 19.339L62.7224 19.2971C62.7174 19.0623 62.7132 18.8307 62.709 18.5991L60.7093 18.6359ZM60.7228 19.3379C60.7545 20.9363 60.7865 22.5476 60.7108 24.1006L62.7084 24.1981C62.7881 22.5645 62.7538 20.8835 62.7224 19.2982L60.7228 19.3379ZM60.7108 24.1002C60.6992 24.3354 60.6875 24.5716 60.676 24.8053L62.6736 24.9032C62.6851 24.6692 62.6967 24.4355 62.7084 24.1985L60.7108 24.1002ZM60.6761 24.8048C60.6443 25.4456 60.1244 26.0568 59.3486 26.1624L59.6183 28.1441C61.3033 27.9148 62.592 26.5508 62.6736 24.9037L60.6761 24.8048ZM59.349 26.1624C59.2878 26.1707 59.226 26.1769 59.1636 26.1813L59.3019 28.1765C59.4067 28.1692 59.512 28.1586 59.6179 28.1442L59.349 26.1624ZM59.165 26.1812C58.3277 26.238 57.4452 25.9892 56.5036 25.6085L55.754 27.4627C56.7742 27.8752 58.0008 28.2648 59.3005 28.1766L59.165 26.1812ZM56.508 25.6103C56.4924 25.6039 56.4723 25.595 56.4476 25.5829L55.5703 27.3802C55.6275 27.4082 55.6876 27.4355 55.7495 27.4609L56.508 25.6103ZM56.4506 25.5844C55.8899 25.3084 55.6086 24.7375 55.6855 24.1795L53.7043 23.9063C53.5101 25.3141 54.2298 26.7203 55.5672 27.3787L56.4506 25.5844ZM56.9463 9.48587C57.2229 7.44471 58.4302 6.8519 59.2819 6.88932L59.3697 4.89125C57.3397 4.80206 55.3595 6.3016 54.9644 9.21735L56.9463 9.48587ZM59.2818 6.88932C59.7154 6.90838 60.1534 7.08615 60.4898 7.43712C60.8196 7.78113 61.1066 8.34999 61.1322 9.24558L63.1314 9.18839C63.0936 7.86844 62.6532 6.80365 61.9336 6.05304C61.2206 5.30939 60.2873 4.93158 59.3697 4.89125L59.2818 6.88932ZM61.1322 9.24552C61.152 9.93948 61.0687 10.8242 60.9599 11.9525L62.9507 12.1444C63.0552 11.0608 63.1556 10.035 63.1314 9.18845L61.1322 9.24552ZM60.9599 11.9529C60.8849 12.7338 60.7815 14.3444 60.7331 15.1475L62.7295 15.2679C62.7784 14.4567 62.8797 12.8831 62.9507 12.1441L60.9599 11.9529ZM60.7331 15.147C60.7236 15.3046 60.6503 15.4385 60.5361 15.5221L61.7182 17.1354C62.3437 16.6771 62.6862 15.9794 62.7295 15.2684L60.7331 15.147ZM60.5351 15.5228C60.4493 15.5859 60.3532 15.6411 60.2517 15.6851L61.047 17.5202C61.2833 17.4177 61.5102 17.2882 61.7192 17.1347L60.5351 15.5228ZM60.2508 15.6855C59.8162 15.8743 59.2718 15.9296 58.6008 15.9305L58.6036 17.9305C59.3291 17.9295 60.2192 17.8799 61.0479 17.5198L60.2508 15.6855ZM58.6009 15.9305C57.9826 15.9313 57.4834 15.8863 57.077 15.7258L56.3421 17.5859C57.1176 17.8922 57.9352 17.9314 58.6035 17.9305L58.6009 15.9305ZM57.1055 15.7375C57.0954 15.7332 57.087 15.7297 57.0815 15.7275C57.0788 15.7264 57.0765 15.7255 57.0751 15.7249C57.0744 15.7247 57.0738 15.7244 57.0734 15.7243C57.0728 15.724 57.073 15.7241 57.0728 15.724C57.072 15.7237 57.0755 15.7251 57.08 15.7269C57.0849 15.729 57.0926 15.7322 57.102 15.7363L56.2921 17.565C56.3036 17.5701 56.3134 17.5742 56.3204 17.5771C56.327 17.5798 56.3325 17.582 56.3339 17.5825C56.3352 17.583 56.3346 17.5828 56.3346 17.5828C56.3342 17.5827 56.333 17.5822 56.3313 17.5815C56.328 17.5801 56.3217 17.5775 56.3136 17.5741L57.1055 15.7375ZM57.0691 15.7225C56.8226 15.6237 56.6968 15.4011 56.7058 15.1906L54.7076 15.1052C54.662 16.1717 55.2986 17.1675 56.325 17.5789L57.0691 15.7225ZM56.7058 15.1908L56.9545 9.39447L54.9563 9.30875L54.7076 15.105L56.7058 15.1908ZM73.2911 16.1166C72.6521 14.8035 71.279 13.8039 69.848 13.5309L69.4732 15.4954C70.3231 15.6576 71.1466 16.2805 71.4927 16.9917L73.2911 16.1166ZM69.8479 13.5308C68.9698 13.3634 68.0019 13.458 67.1531 14.0004L68.2301 15.6857C68.5637 15.4725 68.9886 15.403 69.4733 15.4954L69.8479 13.5308ZM67.1529 14.0006C65.667 14.9508 65.326 16.7192 65.1209 17.8386L67.0882 18.199C67.3163 16.9543 67.5774 16.1031 68.2304 15.6855L67.1529 14.0006ZM65.1209 17.8386C64.0616 23.6204 63.0021 29.4024 61.943 35.1845L63.9103 35.5448C64.9693 29.7628 66.0289 23.9809 67.0882 18.199L65.1209 17.8386ZM61.943 35.1843C61.9399 35.2011 61.9275 35.2447 61.8995 35.2989C61.8714 35.3535 61.8449 35.385 61.8365 35.3933C61.8209 35.4089 61.8768 35.3434 62.0174 35.3124C62.0949 35.2953 62.1896 35.2913 62.2902 35.3141C62.3906 35.3369 62.467 35.3796 62.517 35.4183L61.2942 37.0009C61.6325 37.2623 62.0462 37.3542 62.4485 37.2654C62.8062 37.1864 63.0732 36.9843 63.2475 36.8108C63.5895 36.4703 63.8289 35.9886 63.9102 35.545L61.943 35.1843ZM62.9041 36.264C63.1221 32.2586 63.3491 28.2457 63.5446 24.2326L61.547 24.1353C61.3518 28.1409 61.1254 32.1441 60.9071 36.1553L62.9041 36.264ZM63.5446 24.2327C63.6254 22.5747 63.5911 20.8816 63.5593 19.2838L61.5597 19.3237C61.5918 20.9337 61.6239 22.5576 61.547 24.1353L63.5446 24.2327ZM63.5593 19.2839C63.5325 17.9396 63.5079 16.701 63.5438 15.5178L61.5447 15.4573C61.5071 16.6998 61.5331 17.9903 61.5597 19.3237L63.5593 19.2839ZM63.5438 15.5177C63.5789 14.351 63.6865 13.2316 63.7845 12.2124L61.7936 12.021C61.6964 13.0329 61.5821 14.2153 61.5447 15.4574L63.5438 15.5177ZM63.7844 12.2127C63.8913 11.1041 63.9938 10.0588 63.9683 9.16818L61.9691 9.2253C61.9902 9.96397 61.9046 10.8699 61.7937 12.0208L63.7844 12.2127ZM63.9683 9.16809C63.8753 5.9245 61.5897 4.21716 59.4095 4.1214L59.3217 6.11948C60.5042 6.17141 61.9076 7.07859 61.9691 9.22539L63.9683 9.16809ZM59.4095 4.12141C57.8157 4.05136 56.5451 4.7202 55.6583 5.70819C54.7908 6.67459 54.2912 7.93807 54.1312 9.14147L56.1138 9.40504C56.23 8.5307 56.5917 7.66239 57.1466 7.04413C57.6822 6.44745 58.395 6.07875 59.3217 6.11948L59.4095 4.12141ZM54.1234 9.23018L53.7805 17.1834L55.7786 17.2696L56.1216 9.31634L54.1234 9.23018ZM53.7805 17.1836C53.7191 18.6138 53.4757 20.0769 53.2272 21.5618L55.1998 21.8918C55.4446 20.4288 55.711 18.8435 55.7786 17.2694L53.7805 17.1836ZM53.2272 21.5618C53.0374 22.6965 52.8335 23.912 52.7186 25.1275L54.7098 25.3156C54.8167 24.1834 55.0079 23.0388 55.1998 21.8918L53.2272 21.5618ZM52.7186 25.1273C52.6541 25.8091 52.6806 26.4813 52.7024 27.0582L54.701 26.9828C54.6784 26.3857 54.6597 25.8446 54.7097 25.3158L52.7186 25.1273ZM52.7024 27.0582C52.7245 27.6447 52.7412 28.1251 52.6995 28.5975L54.6918 28.7732C54.7463 28.1543 54.7223 27.5474 54.701 26.9828L52.7024 27.0582ZM52.6995 28.5974C52.6141 29.5651 52.4445 30.5554 52.2723 31.5604L54.2435 31.8982C54.4131 30.9085 54.5979 29.8365 54.6918 28.7733L52.6995 28.5974ZM52.2724 31.5594C52.1899 32.0385 52.1062 32.5268 52.0309 33.0178L54.0078 33.3209C54.0799 32.8506 54.1606 32.3794 54.2434 31.8991L52.2724 31.5594ZM52.7273 32.213C52.8124 32.187 52.8568 32.1906 52.8735 32.1918C52.887 32.1927 52.9366 32.1965 53.0079 32.219C53.0447 32.2307 53.1065 32.2533 53.1785 32.2959C53.2483 32.3372 53.3596 32.4161 53.4576 32.5527L51.8325 33.7184C52.0352 34.0011 52.3129 34.0969 52.4046 34.1259C52.5322 34.1663 52.6508 34.1812 52.7376 34.1871C52.9012 34.1983 53.1101 34.1872 53.3113 34.1258L52.7273 32.213ZM53.6397 33.0327C53.3003 29.7499 53.3609 26.3445 53.4216 22.981L51.4219 22.9449C51.3616 26.2862 51.2963 29.8143 51.6503 33.2384L53.6397 33.0327ZM53.4216 22.9805C53.4303 22.4861 53.4393 21.9894 53.4471 21.4927L51.4474 21.461C51.4395 21.9554 51.4306 22.4494 51.4219 22.9454L53.4216 22.9805ZM53.4471 21.4925C53.4895 18.7815 53.4561 16.0307 53.4243 13.3865L51.4245 13.4105C51.4563 16.0597 51.4892 18.7826 51.4474 21.4612L53.4471 21.4925ZM53.4243 13.3868L53.4086 12.0414L51.4088 12.0647L51.4245 13.4101L53.4243 13.3868ZM53.4086 12.0417C53.3912 10.5069 53.5402 8.93069 53.6912 7.34562L51.7002 7.15597C51.551 8.72244 51.3899 10.4051 51.4088 12.0644L53.4086 12.0417ZM53.6912 7.3456C53.7667 6.55265 53.8462 5.71723 53.9037 4.86594L51.9083 4.73111C51.8529 5.55067 51.7761 6.35927 51.7002 7.15599L53.6912 7.3456ZM53.906 4.79853C53.906 1.78785 51.2737 0.184464 48.9882 0.0154845L48.8407 2.01004C50.5223 2.13437 51.906 3.22559 51.906 4.79853H53.906ZM48.9877 0.0154477C46.8705 -0.140022 44.2743 0.915076 43.7601 3.84551L45.73 4.19116C46.0088 2.60232 47.3753 1.90243 48.8412 2.01008L48.9877 0.0154477ZM43.7469 3.95803L43.3981 9.72997L45.3945 9.85059L45.7433 4.07865L43.7469 3.95803ZM43.397 9.75397C43.3219 11.8198 43.0477 13.8872 42.7747 15.9402L44.7573 16.2038C45.0281 14.1665 45.3165 12.0042 45.3957 9.82659L43.397 9.75397ZM42.7747 15.9402C42.4884 18.0931 42.1833 20.3799 42.1218 22.7007L44.1211 22.7537C44.1793 20.556 44.4687 18.3734 44.7572 16.2038L42.7747 15.9402ZM42.1218 22.7009C42.0991 23.5655 42.1643 24.9045 42.2355 26.3817L44.2332 26.2854C44.1602 24.7697 44.1009 23.5243 44.1211 22.7535L42.1218 22.7009ZM42.2356 26.3819C42.2748 27.1925 42.3159 28.049 42.3473 28.902L44.346 28.8285C44.3141 27.9623 44.2724 27.0947 44.2332 26.2852L42.2356 26.3819ZM42.3475 28.823L42.1602 33.2557L44.1584 33.3401L44.3458 28.9074L42.3475 28.823ZM42.6829 32.4187C42.7229 32.397 42.7553 32.3837 42.7764 32.3759C42.7991 32.3675 42.8183 32.3619 42.8338 32.3581C42.8649 32.3506 42.8879 32.3486 42.9027 32.3485L42.9259 34.3483C43.1901 34.3453 43.4387 34.2839 43.6358 34.1771L42.6829 32.4187ZM42.9026 32.3485C42.918 32.3483 42.9423 32.3497 42.9756 32.3571C42.9923 32.3608 43.0141 32.3666 43.0406 32.3759C43.0642 32.3843 43.1057 32.4005 43.1572 32.429L42.1867 34.1778C42.4072 34.3001 42.6737 34.3513 42.926 34.3483L42.9026 32.3485ZM43.6607 33.154L42.6251 26.2996L40.6476 26.5984L41.6832 33.4528L43.6607 33.154ZM42.6251 26.2995C42.387 24.7246 42.1903 23.0832 41.9983 21.4781L40.0124 21.7157C40.2038 23.3154 40.4041 24.9877 40.6476 26.5985L42.6251 26.2995ZM41.9983 21.478C41.7989 19.8136 41.5906 18.0751 41.3285 16.3429L39.351 16.6421C39.6077 18.3387 39.8125 20.0467 40.0124 21.7158L41.9983 21.478ZM41.3285 16.3428C41.0523 14.5178 40.8634 12.6421 40.6785 10.8001L38.6885 10.9999C38.8726 12.8336 39.066 14.7592 39.3511 16.6421L41.3285 16.3428ZM40.6785 10.8C40.5841 9.86051 40.4889 8.91341 40.3825 7.97727L38.3953 8.20299C38.4999 9.1241 38.5939 10.0583 38.6885 11L40.6785 10.8ZM40.3855 8.00791C40.2011 5.77224 38.1982 4.01742 35.7091 4.06619L35.7483 6.0658C37.2806 6.03578 38.3026 7.08484 38.3923 8.17236L40.3855 8.00791ZM35.7092 4.06619C34.7992 4.08392 33.9256 4.37817 33.2019 4.86201L34.3134 6.52467C34.7367 6.24174 35.241 6.07569 35.7482 6.06581L35.7092 4.06619ZM33.202 4.86193C31.7029 5.86384 30.8096 7.50726 30.8733 9.27747L32.872 9.20549C32.8349 8.17519 33.3506 7.16816 34.3133 6.52476L33.202 4.86193ZM30.8733 9.2773C30.9385 11.0949 30.9432 13.1584 30.9482 15.3669L32.9482 15.3624C32.9432 13.163 32.9386 11.0635 32.8721 9.20567L30.8733 9.2773ZM30.9482 15.3669C30.9531 17.5215 30.958 19.7665 31.0228 21.92L33.0219 21.8598C32.9581 19.739 32.9531 17.5224 32.9482 15.3624L30.9482 15.3669ZM31.0228 21.9199C31.0598 23.1544 31.1972 24.3295 31.3238 25.4197L33.3104 25.1892C33.1825 24.0871 33.056 22.9954 33.0219 21.8599L31.0228 21.9199ZM31.3238 25.4201C31.4617 26.6049 31.5803 27.6396 31.5679 28.557L33.5677 28.584C33.5822 27.5117 33.4444 26.3401 33.3104 25.1888L31.3238 25.4201ZM31.5679 28.5569L31.4494 37.2927L33.4492 37.3199L33.5677 28.584L31.5679 28.5569ZM31.4541 37.4041L32.153 44.5173L34.1434 44.3218L33.4445 37.2085L31.4541 37.4041ZM32.1489 44.4571C32.1697 45.0111 32.0708 45.626 31.8889 46.1061C31.6805 46.6562 31.485 46.7341 31.5239 46.7222L32.1103 48.6342C33.0086 48.3587 33.5042 47.4877 33.7592 46.8147C34.0407 46.0716 34.1778 45.189 34.1475 44.3821L32.1489 44.4571ZM31.526 46.7215C31.6316 46.6894 31.5801 46.7726 31.2738 46.5659C30.9853 46.3712 30.6066 46.0044 30.1651 45.4209L28.5702 46.6276C29.0811 47.3029 29.6137 47.8584 30.1551 48.2237C30.6787 48.577 31.3757 48.8578 32.1082 48.6349L31.526 46.7215ZM30.1651 45.4209L29.266 44.2324L27.671 45.439L28.5702 46.6276L30.1651 45.4209ZM29.266 44.2325C28.3748 43.0542 26.6013 40.7025 25.3977 39.5987L24.0459 41.0726C25.0819 42.0228 26.7263 44.19 27.671 45.439L29.266 44.2325ZM25.3979 39.5988C24.1074 38.4147 22.6866 37.3449 21.1755 36.4177L20.1295 38.1224C21.5332 38.9836 22.8512 39.9764 24.0457 41.0725L25.3979 39.5988ZM21.1755 36.4177C18.9716 35.0653 16.1505 34.8713 13.7633 35.8919L14.5495 37.7309C16.3484 36.9618 18.4859 37.1138 20.1295 38.1224L21.1755 36.4177ZM13.7628 35.8921C13.2568 36.1087 12.7421 36.4555 12.3781 36.9751L14.0162 38.1226C14.112 37.9859 14.2872 37.8432 14.55 37.7307L13.7628 35.8921ZM12.3785 36.9747C11.6324 38.0385 11.6827 39.3827 12.4273 40.3737L14.0262 39.1723C13.7934 38.8624 13.7751 38.4665 14.0159 38.123L12.3785 36.9747ZM12.5192 40.4797L16.1292 44.0946L17.5444 42.6814L13.9344 39.0664L12.5192 40.4797ZM16.0364 43.9875C17.0379 45.3246 17.8492 46.7757 18.4487 48.2998L20.3099 47.5676C19.6437 45.8741 18.7441 44.2664 17.6372 42.7885L16.0364 43.9875ZM18.4478 48.2975C18.4664 48.3452 19.06 49.8292 19.908 51.5434C20.3322 52.4009 20.8265 53.3292 21.3504 54.1698C21.866 54.9969 22.4454 55.7969 23.0502 56.3538L24.405 54.8826C23.9997 54.5093 23.5333 53.8908 23.0477 53.1118C22.5705 52.3462 22.1082 51.4805 21.7007 50.6566C21.2941 49.8347 20.9477 49.0661 20.7014 48.499C20.5784 48.2157 20.4808 47.9836 20.4136 47.8214C20.3453 47.6566 20.3099 47.5676 20.3108 47.5699L18.4478 48.2975ZM23.0503 56.3539C24.7661 57.9336 26.0779 59.8914 26.9688 61.4848C27.857 63.0732 28.3018 64.2539 28.297 64.2409L30.173 63.5478C30.1449 63.4715 28.2345 58.4083 24.405 54.8825L23.0503 56.3539ZM28.3481 64.3563L28.3902 64.4371L30.164 63.5133L30.122 63.4325L28.3481 64.3563ZM28.4524 64.5407C29.5336 66.1176 31.0649 67.4621 32.4274 68.665L33.7511 67.1658C32.3471 65.9262 31.0174 64.7448 30.1018 63.4097L28.4524 64.5407ZM32.4274 68.6651C33.4521 69.5696 34.3759 70.3879 35.0793 71.2166C35.7816 72.044 36.1759 72.7828 36.2596 73.5L38.2461 73.2684C38.0967 71.987 37.42 70.8837 36.6041 69.9224C35.7893 68.9625 34.7479 68.0457 33.7511 67.1657L32.4274 68.6651ZM36.2596 73.4999C36.4422 75.0667 36.3617 77.8702 36.2848 80.463L38.2839 80.5223C38.3585 78.0056 38.45 75.0178 38.2461 73.2684L36.2596 73.4999ZM36.2848 80.463C36.2498 81.6428 36.2156 82.7878 36.2147 83.6865L38.2147 83.6886C38.2156 82.8249 38.2486 81.7125 38.2839 80.5223L36.2848 80.463ZM36.2147 83.6876C36.2147 84.5475 36.9517 85.0875 37.6586 85.0801L37.6378 83.0803C37.868 83.0779 38.2147 83.2669 38.2147 83.6876H36.2147ZM38.301 84.8377C38.4623 84.6987 38.5601 84.6144 38.7218 84.4747L37.4141 82.9614C37.2536 83.1001 37.1567 83.1837 36.9954 83.3227L38.301 84.8377ZM39.0636 83.8115C39.1252 83.1544 39.4727 82.5301 40.0608 82.1156L38.9087 80.4808C37.8428 81.2319 37.1885 82.3853 37.0723 83.6247L39.0636 83.8115ZM40.0608 82.1156C40.939 81.4967 42.1273 81.2663 43.4479 81.2207L43.3788 79.2219C41.9317 79.2719 40.267 79.5236 38.9087 80.4808L40.0608 82.1156ZM43.4481 81.2207C44.0507 81.1997 44.6611 81.2166 45.3009 81.2396C45.9307 81.2623 46.5982 81.2914 47.2652 81.2885L47.2565 79.2885C46.6406 79.2912 46.0255 79.2644 45.3728 79.2409C44.7302 79.2178 44.0582 79.1983 43.3786 79.2219L43.4481 81.2207ZM47.2653 81.2885C49.6242 81.278 52.0811 80.8534 54.2468 80.67L54.0781 78.6771C51.641 78.8835 49.5322 79.2784 47.2564 79.2885L47.2653 81.2885ZM54.2469 80.67C56.4599 80.4824 58.6327 80.5822 60.7411 81.1004L61.2184 79.1582C58.8562 78.5776 56.4592 78.4753 54.078 78.6771L54.2469 80.67ZM60.7412 81.1004C61.9688 81.402 62.7725 82.343 62.8579 83.3715L64.851 83.206C64.6856 81.2136 63.1707 79.6378 61.2183 79.1581L60.7412 81.1004ZM62.8582 83.375C62.8636 83.4377 62.8688 83.5005 62.8742 83.5654L64.8673 83.3989C64.862 83.3351 64.8564 83.2688 64.8507 83.2024L62.8582 83.375ZM62.8744 83.5671C62.9409 84.3471 63.6135 84.8291 64.2749 84.833L64.2865 82.833C64.5183 82.8343 64.8343 83.012 64.8672 83.3972L62.8744 83.5671ZM64.2807 84.833H64.289V82.833H64.2807V84.833ZM64.2839 84.833C65.0226 84.8367 65.7762 84.2326 65.6993 83.3374L63.7066 83.5086C63.6679 83.0575 64.0392 82.8317 64.2941 82.833L64.2839 84.833ZM65.6993 83.338C65.4042 79.8757 65.2293 76.5654 66.4985 73.6343L64.6632 72.8396C63.1668 76.2954 63.4157 80.0958 63.7065 83.5079L65.6993 83.338ZM66.4985 73.6342C66.8489 72.825 67.3087 72.0482 67.8107 71.214C68.3016 70.3984 68.8371 69.521 69.2653 68.5891L67.448 67.754C67.0755 68.5648 66.6037 69.341 66.0971 70.1828C65.6016 71.0062 65.074 71.8908 64.6632 72.8396L66.4985 73.6342ZM69.2653 68.5892C70.5391 65.8177 70.7748 62.7851 70.9512 60.0041L68.9552 59.8775C68.7768 62.6898 68.546 65.3651 67.4481 67.754L69.2653 68.5892ZM70.9512 60.0041C71.7642 47.187 71.7202 34.5113 73.6166 21.9395L71.639 21.6412C69.726 34.3228 69.7567 47.2414 68.9552 59.8775L70.9512 60.0041ZM73.6166 21.9394C73.87 20.2587 74.2387 18.0626 73.2909 16.1163L71.4928 16.992C72.1194 18.2786 71.9147 19.812 71.639 21.6413L73.6166 21.9394Z" fill="#FFCDCD" mask="url(#path-9-outside-1_360_5803)"/>
</g>
</g>
</g>
</g>
<circle id="Ellipse 282" opacity="0.3" cx="69.5" cy="19.5" r="9.5" fill="#FF5758"/>
</g>
</svg>
