<svg width="87" height="89" viewBox="0 0 87 89" fill="none" xmlns="http://www.w3.org/2000/svg">
<g id="Frame 336832">
<g id="Group 34574">
<g id="OBJECTS">
<g id="Group">
<path id="Vector" d="M72.392 17.0541C71.8994 16.0421 70.8009 15.2306 69.6607 15.013C68.9793 14.8831 68.2827 14.9652 67.6917 15.3432C66.6221 16.0269 66.321 17.3368 66.1046 18.5187C65.0451 24.3008 63.9858 30.0826 62.9265 35.8646C62.8333 36.373 62.3346 37.0411 61.9057 36.7095C62.1236 32.7013 62.3506 28.6932 62.5459 24.6839C62.6245 23.0663 62.5916 21.4078 62.5594 19.8038C62.5327 18.4651 62.5074 17.2003 62.5441 15.9875C62.5804 14.7831 62.6913 13.6321 62.7892 12.6167C62.8978 11.4869 62.9919 10.5113 62.9688 9.69671C62.8915 7.00146 61.0471 5.6944 59.3657 5.62036C56.8452 5.50964 55.3988 7.69543 55.1224 9.77342L54.7797 17.7264C54.7151 19.2286 54.46 20.7528 54.2136 22.2267C54.0225 23.3678 53.825 24.5476 53.7141 25.7215C53.6567 26.3267 53.6796 26.9337 53.7015 27.5204C53.7233 28.096 53.7439 28.6398 53.6955 29.1855C53.6061 30.2007 53.4289 31.2321 53.2578 32.2292C53.1754 32.7089 53.0931 33.1886 53.0195 33.6695C52.903 33.705 52.6904 33.6986 52.6451 33.6355C52.2984 30.2822 52.3611 26.8155 52.4218 23.4631C52.4305 22.9679 52.4395 22.4723 52.4473 21.977C52.4892 19.282 52.4563 16.5453 52.4243 13.8986L52.4086 12.5532C52.3907 10.9559 52.5455 9.32649 52.6956 7.75092C52.7713 6.95593 52.8496 6.13407 52.9061 5.29844C52.9061 3.00683 50.8981 1.65953 48.9143 1.51293C47.123 1.38112 45.1417 2.25862 44.7452 4.5185L44.3962 10.2902C44.3193 12.4119 44.0378 14.5268 43.7661 16.5719C43.4785 18.7332 43.1812 20.9679 43.1216 23.2271C43.0999 24.0448 43.1621 25.3371 43.2343 26.8335C43.2735 27.6435 43.3151 28.5055 43.3465 29.3651L43.1594 33.7978C43.1234 33.8174 43.0385 33.8469 42.9144 33.8483C42.7917 33.8498 42.7063 33.8223 42.672 33.8034L41.6362 26.9489C41.3956 25.3562 41.1972 23.6992 41.0052 22.0968C40.8056 20.4303 40.5993 18.7068 40.3399 16.9924C40.0593 15.1384 39.8682 13.2381 39.6834 11.3999C39.5891 10.4593 39.4943 9.51872 39.389 8.59005C39.2519 6.92871 37.7395 5.52676 35.7286 5.56591C35.02 5.57997 34.3312 5.81012 33.7575 6.19326C32.5266 7.01611 31.8222 8.34114 31.8726 9.74145C31.9387 11.5791 31.9431 13.6606 31.9483 15.8646C31.953 18.0219 31.9581 20.2529 32.0224 22.3899C32.0581 23.5748 32.1898 24.7085 32.3172 25.8046C32.4532 26.9724 32.5813 28.0758 32.5677 29.0706L32.4494 37.8063L33.1483 44.9197C33.1991 46.2804 32.6765 47.9146 31.817 48.1781C31.19 48.3689 30.3202 47.783 29.3675 46.5242L28.4686 45.3357C27.5506 44.122 25.8417 41.8626 24.7219 40.8356C23.4794 39.6957 22.11 38.6644 20.6524 37.7702C18.7287 36.5893 16.2491 36.4165 14.1561 37.3115C13.7719 37.4759 13.4269 37.7207 13.1974 38.0486C12.7036 38.7524 12.7381 39.6223 13.2266 40.273L16.8367 43.8882C17.8909 45.2956 18.7463 46.8248 19.3794 48.4339C19.4018 48.4916 21.7072 54.2579 23.7278 56.1181C27.3732 59.4747 29.217 64.3458 29.2351 64.3943L29.277 64.4753C30.2756 65.9311 31.7059 67.194 33.0894 68.4153C35.1106 70.2 37.0199 71.8855 37.2529 73.8843C37.446 75.5422 37.36 78.4378 37.2843 80.9928C37.2691 81.5018 37.2544 81.3769 37.2423 83.5839C37.1868 89.7818 64.4603 90.4861 64.4883 83.5839C64.5077 78.7841 64.7703 75.609 65.5809 73.7369C66.3419 71.979 67.5558 70.4143 68.3566 68.6715C69.5424 66.0916 69.7757 63.2373 69.9531 60.4407C70.7606 47.7141 70.7232 34.9172 72.6279 22.2902C72.8922 20.5354 73.1791 18.6707 72.392 17.0541Z" fill="#EFF2FD"/>
<path id="Vector_2" fill-rule="evenodd" clip-rule="evenodd" d="M53.9629 49.9867C56.2189 50.8522 58.5895 51.4406 60.9512 51.4973C58.4891 51.1073 56.3967 50.4988 54.3968 49.6805C53.934 49.4909 53.6059 49.0987 53.521 48.639C53.4517 48.2628 53.3724 47.9292 53.2824 47.6497L52.6422 45.9834L53.0183 47.71C53.0808 48.0086 53.1332 48.4064 53.1766 48.8778C53.1881 49.002 53.0476 49.0919 52.9271 49.0356C51.5293 48.3819 50.1436 47.6235 48.6719 46.7607C45.5892 44.9539 39.99 44.3039 36.3477 44.1952C36.3734 44.1995 36.4003 44.2038 36.426 44.208C43.7053 47.2511 47.9775 53.5555 49.7951 60.5594C50.2137 62.1721 50.3629 63.4683 50.5493 65.1002C50.7545 56.7537 45.5585 46.8349 36.444 44.2111C40.2474 44.8539 45.0408 45.2482 48.3032 47.1929C49.5953 47.963 50.9873 48.7068 52.4415 49.3546C52.9403 49.5767 53.2611 50.0358 53.2826 50.5456C53.4555 54.6607 53.2304 61.2408 52.8041 63.3695C53.7691 60.922 54.1358 54.2773 53.7268 50.1445C53.7154 50.0255 53.8433 49.9407 53.9629 49.9867Z" fill="#005BBB"/>
<path id="Vector_3" d="M53.2823 47.6497C53.3723 47.9292 53.4516 48.2628 53.5209 48.639L53.7267 50.1445C54.1357 54.2773 53.769 60.922 52.804 63.3695C53.2303 61.2408 53.4554 54.6607 53.2825 50.5456L53.1765 48.8778C53.1331 48.4064 53.0807 48.0086 53.0182 47.71L52.6421 45.9834L53.2823 47.6497Z" fill="#FFCDCD" stroke="#FFCDCD" stroke-width="2" stroke-linejoin="bevel"/>
<path id="Vector_4" fill-rule="evenodd" clip-rule="evenodd" d="M64.2936 49.1007C62.3295 48.8093 60.7418 48.5602 58.92 47.6431C54.9882 45.6637 56.2037 45.4651 51.358 44.0894C47.9762 43.1294 48.7329 43.1498 46.2754 42.2084C49.8628 44.6225 51.6224 44.1285 54.993 45.9592C59.5987 48.4604 59.4014 48.8458 64.5286 49.2414L64.7824 49.262C64.5048 49.1343 64.5503 49.1389 64.2936 49.1007Z" fill="#005BBB"/>
<path id="Vector_5" fill-rule="evenodd" clip-rule="evenodd" d="M47.7329 66.3996C47.8263 61.1851 46.2309 57.7304 42.5532 53.8323C45.9982 59.0909 46.5866 60.3211 47.7329 66.3996Z" fill="#005BBB"/>
<path id="Vector_6" fill-rule="evenodd" clip-rule="evenodd" d="M58.6313 53.8319C57.7662 57.9767 55.5952 63.4341 52.5884 66.6478C56.3079 63.9134 58.5632 58.1256 58.6313 53.8319Z" fill="#005BBB"/>
<path id="Vector_7" fill-rule="evenodd" clip-rule="evenodd" d="M27.1344 56.3452C26.6178 55.1905 28.4858 55.2303 29.5673 53.0327C30.0372 55.2379 28.0897 54.7919 27.1344 56.3452Z" fill="#005BBB"/>
<path id="Vector_8" d="M37.7664 74.2351L37.8253 73.0801C37.7121 73.4616 37.7005 73.8522 37.7664 74.2351Z" fill="#005BBB"/>
<path id="Vector_9" d="M71.3978 23.749C71.3973 23.7525 71.3971 23.756 71.3967 23.7593C71.3174 24.5545 70.7266 25.2301 69.8927 25.4495C69.1463 25.6461 68.3408 25.6521 67.5991 25.4386C67.3706 25.3728 67.1475 25.2876 66.947 25.1676C66.7606 25.0562 66.6003 24.9193 66.4591 24.7655C66.1175 24.3935 65.9565 23.9082 65.9885 23.4221C66.0212 22.9263 66.0674 22.4443 66.1579 22.0375L67.2066 17.3287C67.4735 16.13 68.6167 15.685 69.5701 15.7811C70.7614 15.8999 72.1386 16.9012 72.1161 19.3291C72.0485 19.6264 71.6155 21.5834 71.3978 23.749ZM70.9213 31.014C70.8216 31.915 70.7246 32.7671 70.631 33.5702C70.5862 33.9546 70.381 34.3103 70.0495 34.5477C69.5771 34.8859 68.9662 35.0835 68.363 35.1202C67.3569 35.1813 66.3693 34.8746 65.4368 34.5213C65.1942 34.4295 64.9498 34.3324 64.7453 34.1813C64.7424 34.179 64.7392 34.1767 64.7363 34.1744C64.2962 33.8437 64.1284 33.2922 64.2511 32.7813C64.3006 32.5745 64.3461 32.3864 64.3461 32.3864C64.7677 30.6535 65.282 28.5333 65.6774 26.4481C65.7397 26.1191 66.0257 25.8659 66.3854 25.8242C66.8003 25.7764 67.2199 25.7791 67.6336 25.8321L69.4505 26.0651C69.8183 26.1124 70.1996 26.1639 70.511 26.3507C70.6149 26.413 70.7074 26.4883 70.7948 26.5691C71.0524 26.808 71.1852 27.1361 71.1684 27.4722C71.126 28.3132 71.0326 30.0074 70.9213 31.014ZM69.9836 40.4141C69.9755 42.6766 69.9196 44.939 69.8324 47.2002C69.6608 51.6542 69.3667 56.1027 69.0728 60.5507C68.899 63.1813 68.7117 65.8677 67.6215 68.3047C66.833 70.0667 65.5976 71.6361 64.8138 73.4C64.5815 73.9232 64.3923 74.4565 64.2384 74.9976C64.1295 75.3808 63.9351 75.7411 63.6694 76.0531C62.0122 78.0003 59.0935 78.7504 56.5692 79.1927C52.1007 79.9758 47.5516 79.2849 43.2144 78.1974C41.8243 77.8489 40.4059 77.4389 39.2957 76.593L39.2823 76.5827C38.5921 76.0525 38.2001 75.2634 38.1428 74.4375C38.1271 74.211 38.1081 73.9985 38.0852 73.8021C37.8195 71.5237 35.8035 69.7437 33.6687 67.8592C32.3337 66.6806 30.9538 65.462 30.0103 64.1007C29.8062 63.567 27.9607 58.9254 24.3197 55.5733C23.5317 54.8478 22.6023 53.299 21.7983 51.7362C21.5129 51.1817 21.5304 50.5366 21.8335 49.9901C22.0203 49.6529 22.2506 49.3341 22.5075 49.0404C23.1802 48.2716 24.0294 47.6525 24.8705 47.0402C25.1405 46.8441 25.4178 46.6453 25.7047 46.4605C26.6695 45.8393 28.0171 46.0908 28.6916 46.9794C29.905 48.5779 31.0454 49.2263 32.0815 48.9095C33.4004 48.5049 34.0464 46.5382 33.9835 44.8717L33.287 37.7764C33.287 37.7764 33.3654 31.9853 33.3656 31.9806C33.4145 28.3833 40.8676 27.4728 41.4486 31.3007L41.8449 33.9226C41.8996 34.3464 42.3601 34.6364 42.9459 34.6186C43.5318 34.6048 43.9624 34.3021 43.994 33.8713L44.1842 29.3672L44.1837 29.3532C44.1703 28.9833 44.1548 28.6126 44.1387 28.2458C44.1044 27.4726 44.5885 26.7574 45.386 26.4935C45.8971 26.3241 46.4527 26.3186 46.9957 26.3151C48.5482 26.3052 51.0669 26.2835 51.5259 28.0278C51.98 29.7543 51.6265 31.9177 51.8117 33.7086C51.8581 34.1565 52.2488 34.453 52.8072 34.4642C53.3305 34.4687 53.9216 34.2145 53.8293 33.6913C53.781 33.4168 53.8282 33.1396 53.9369 32.8799C54.4055 31.7601 53.8623 29.9791 54.5486 28.7977C55.3638 27.3953 58.9395 28.1355 60.3716 28.3264C61.7575 28.5112 61.5165 29.7911 61.3987 30.6962C61.2004 32.2208 61.1883 33.7923 61.0779 35.3258C61.0279 36.0179 60.9943 36.7715 61.5219 37.3099C61.8288 37.623 62.3173 37.7597 62.7362 37.5892C63.2093 37.3965 63.2277 36.9808 63.3621 36.6212C64.0215 34.8542 66.5118 35.0231 68.0818 35.446C70.7157 36.1551 69.9908 38.4477 69.9836 40.4141ZM19.1342 45.9891C18.1443 44.119 16.7649 42.4248 15.0934 41.025C14.7063 40.701 14.2975 40.3856 14.0224 39.9759C13.7472 39.5661 13.6262 39.0322 13.858 38.6005C14.0343 38.272 14.3842 38.0518 14.7435 37.8942C15.9135 37.3815 17.3005 37.4001 18.5384 37.7527C19.7765 38.1054 20.8842 38.7682 21.9007 39.5083C22.9844 40.2971 23.985 41.1829 24.884 42.1491C25.7159 43.0433 25.9287 44.0505 25.6812 44.9853C25.2706 46.5343 23.5742 47.8954 21.8189 47.947C20.3687 47.9895 19.6989 47.0555 19.1342 45.9891ZM33.1495 25.7224C33.0238 24.6411 32.8939 23.5231 32.8592 22.3685C32.8386 21.6858 32.8251 20.9923 32.8153 20.2946C32.8081 19.7887 33.0837 19.3148 33.5435 19.0381L33.7124 18.9364C34.3246 18.5681 35.051 18.4136 35.7813 18.4499C36.7831 18.4994 38.038 18.1757 38.9875 18.6823C39.1201 18.7531 39.2409 18.8374 39.3528 18.9314C39.662 19.1913 39.8503 19.5522 39.8987 19.935C39.9942 20.6908 40.0847 21.4417 40.1731 22.1814C40.3154 23.3695 40.4619 24.5867 40.6265 25.7886C40.7466 26.6663 40.2589 27.5285 39.3979 27.9212C38.9552 28.1229 38.4716 28.2714 38.0001 28.3906C37.0933 28.6201 36.15 28.7982 35.2166 28.6927L35.1965 28.6902C34.1616 28.5677 33.3686 27.7731 33.2709 26.8166C33.2344 26.459 33.1927 26.0944 33.1495 25.7224ZM32.7853 15.863C32.7803 13.6531 32.7759 11.5656 32.7091 9.71594C32.6681 8.56747 33.2481 7.48105 34.2608 6.80936C35.0677 6.27501 36.1256 6.1884 37.0221 6.58455C37.8939 6.96977 38.481 7.7607 38.5554 8.65943C38.6614 9.59572 38.7557 10.5332 38.85 11.4709C38.9909 12.8739 39.1376 14.3123 39.324 15.7436C39.4292 16.5518 38.9653 17.3501 38.1473 17.6586C38.1419 17.6607 38.1365 17.6625 38.1313 17.6646C37.3005 17.9725 36.3767 17.9758 35.4823 17.9321C35.1441 17.9154 34.7946 17.8869 34.4527 17.8327C33.4922 17.6801 32.788 16.9156 32.7857 16.0181C32.7855 15.9663 32.7855 15.9145 32.7853 15.863ZM43.9584 23.246C44.0173 21.0243 44.3121 18.8083 44.5968 16.6656C44.5974 16.6611 44.5979 16.6566 44.5986 16.652C44.7289 15.6729 45.6095 14.9133 46.6807 14.8852C46.7027 14.8846 46.7246 14.8842 46.7463 14.8838C47.5501 14.8679 48.3545 14.8898 49.1539 14.9667C49.3773 14.9879 49.6042 15.015 49.8299 15.0508C50.8644 15.2148 51.6126 16.0515 51.6202 17.0177C51.6334 18.6638 51.6357 20.3231 51.6101 21.9659C51.6025 22.4609 51.5936 22.9556 51.5846 23.4501C51.583 23.5419 51.5812 23.6337 51.5797 23.7255C51.5662 24.4842 51.0779 25.1886 50.3078 25.4588C50.3024 25.4605 50.297 25.4625 50.2916 25.4642C49.7688 25.6436 49.1985 25.6568 48.6405 25.6605C47.6881 25.6667 46.7204 25.6479 45.8091 25.393C45.5499 25.3204 45.2952 25.2262 45.0536 25.1103C44.3625 24.7795 43.9458 24.1068 43.9555 23.3897C43.9561 23.3402 43.9573 23.2922 43.9584 23.246ZM45.0954 12.4384C45.1581 11.7366 45.207 11.0315 45.2325 10.3245L45.575 4.62188C45.9155 2.74128 47.5471 2.18362 48.8475 2.28117C50.4485 2.39936 52.0689 3.4738 52.0698 5.27437C52.0149 6.07619 51.937 6.8935 51.8617 7.68354C51.7233 9.13789 51.581 10.6373 51.5712 12.1305C51.5691 12.4301 51.4746 12.7238 51.2882 12.9692C50.8721 13.5175 50.231 13.9383 49.5309 14.1385C48.3885 14.4654 47.1361 14.2876 46.0199 13.8921C45.9954 13.8834 45.9686 13.8723 45.9397 13.8591C45.3681 13.5976 45.043 13.024 45.0954 12.4384ZM54.6949 24.5429C54.7966 23.8042 54.9198 23.0661 55.0407 22.3441C55.239 21.1596 55.441 19.9428 55.5499 18.7197C55.5566 18.6456 55.6017 18.5794 55.6718 18.5421C56.1482 18.2883 56.674 18.1214 57.2192 18.0527C58.5431 17.8857 59.9084 18.0187 61.1686 18.426C61.4883 18.5293 61.7038 18.8055 61.7091 19.1175C61.7134 19.3487 61.7176 19.5817 61.7226 19.818C61.7541 21.4099 61.7873 23.056 61.7096 24.6493C61.698 24.8855 61.6863 25.1204 61.6748 25.3542C61.6182 26.4982 60.7139 27.4858 59.4834 27.6533C59.3999 27.6646 59.3163 27.6731 59.2327 27.6789C58.1643 27.7514 57.1097 27.4322 56.1288 27.0356C56.09 27.0197 56.0499 27.0016 56.0089 26.9816C55.0598 26.5143 54.5594 25.5258 54.6949 24.5429ZM55.9554 9.85161C56.2912 7.37316 57.885 6.32698 59.3258 6.39029C60.6769 6.44968 62.0684 7.50144 62.1318 9.71698C62.1538 10.4872 62.0619 11.4425 61.9553 12.5485C61.8823 13.3084 61.7799 14.9005 61.7313 15.7077C61.7049 16.142 61.497 16.5578 61.1272 16.8288C60.9798 16.937 60.8183 17.0294 60.6494 17.1026C60.0177 17.3771 59.3004 17.4295 58.6022 17.4305C57.9589 17.4314 57.3005 17.3893 56.7096 17.1558C56.7053 17.154 56.7013 17.1525 56.6971 17.1507C56.0606 16.8956 55.6794 16.2864 55.7067 15.6479L55.9554 9.85161ZM72.3919 17.0542C71.8993 16.042 70.801 15.2307 69.6606 15.0131C68.9792 14.8832 68.2828 14.9653 67.6916 15.3431C66.6222 16.0269 66.3211 17.3367 66.1045 18.5188C65.0452 24.3006 63.9857 30.0826 62.9266 35.8647C62.8334 36.373 62.3345 37.041 61.9056 36.7096C62.1238 32.7014 62.3505 28.6933 62.5458 24.684C62.6246 23.0661 62.5915 21.4077 62.5595 19.8038C62.5328 18.465 62.5075 17.2004 62.5442 15.9875C62.5805 14.7832 62.6914 13.6322 62.789 12.6167C62.8979 11.487 62.992 10.5114 62.9687 9.69674C62.8915 7.00155 61.047 5.69429 59.3656 5.62044C56.8451 5.50967 55.3987 7.69552 55.1225 9.77326L54.7796 17.7265C54.7151 19.2287 54.4601 20.7529 54.2135 22.2268C54.0227 23.3677 53.8251 24.5477 53.7142 25.7215C53.6569 26.3268 53.6795 26.9335 53.7017 27.5205C53.7234 28.0961 53.7438 28.6397 53.6956 29.1853C53.606 30.2008 53.4288 31.232 53.2579 32.2293C53.1752 32.709 53.093 33.1887 53.0193 33.6694C52.9031 33.7049 52.6903 33.6987 52.645 33.6356C52.2983 30.2821 52.3612 26.8154 52.4217 23.4629C52.4304 22.9677 52.4394 22.4724 52.4473 21.9769C52.4893 19.2821 52.4562 16.5452 52.4244 13.8985L52.4087 12.553C52.3906 10.956 52.5456 9.32657 52.6957 7.7508C52.7714 6.95596 52.8495 6.13395 52.906 5.29853C52.906 3.00672 50.898 1.65942 48.9145 1.51276C47.1229 1.38121 45.1416 2.2587 44.7451 4.51834L44.3963 10.2903C44.3192 12.412 44.0379 14.5268 43.766 16.572C43.4786 18.7333 43.1813 20.968 43.1215 23.2272C43.1 24.0449 43.1622 25.3371 43.2344 26.8335C43.2736 27.6436 43.315 28.5056 43.3466 29.3652L43.1593 33.7979C43.1235 33.8173 43.0384 33.847 42.9143 33.8484C42.7918 33.8498 42.7062 33.8224 42.6719 33.8034L41.6363 26.949C41.3955 25.3561 41.1971 23.6993 41.0054 22.0969C40.8057 20.4301 40.5992 18.7069 40.3398 16.9925C40.0592 15.1385 39.868 13.2379 39.6835 11.4C39.589 10.4594 39.4944 9.51876 39.3889 8.59013C39.2518 6.92854 37.7394 5.5266 35.7287 5.566C35.0201 5.57981 34.3311 5.80996 33.7577 6.19335C32.5268 7.016 31.8223 8.34122 31.8727 9.74148C31.9386 11.5792 31.9432 13.6607 31.9482 15.8646C31.9531 18.022 31.958 20.2528 32.0223 22.3899C32.0579 23.5749 32.1899 24.7083 32.3171 25.8045C32.453 26.9725 32.5812 28.0756 32.5678 29.0705L32.4493 37.8063L33.1482 44.9196C33.1992 46.2805 32.6764 47.9147 31.8171 48.1782C31.1901 48.369 30.3201 47.783 29.3676 46.5242L28.4685 45.3357C27.5505 44.1221 25.8416 41.8627 24.7218 40.8356C23.4793 39.6956 22.1099 38.6643 20.6525 37.77C18.7288 36.5896 16.2495 36.4165 14.1564 37.3114C13.772 37.4759 13.427 37.7207 13.1972 38.0488C12.7037 38.7525 12.738 39.6226 13.2268 40.273L16.8368 43.888C17.891 45.2955 18.7465 46.8249 19.3793 48.4337C19.4019 48.4917 21.7074 54.2578 23.7276 56.1182C27.3731 59.4746 29.2171 64.3459 29.235 64.3944L29.2771 64.4752C30.2755 65.9312 31.706 67.1941 33.0893 68.4154C35.1107 70.1999 37.0198 71.8856 37.2528 73.8842C37.4461 75.5422 37.3601 78.4379 37.2844 80.9927C37.2492 82.1777 37.2156 83.3064 37.2147 84.1876C37.2147 84.4072 37.4098 84.5827 37.6482 84.5802C37.8095 84.4412 37.9069 84.3573 38.068 84.2181C38.1569 83.2698 38.6578 82.381 39.4848 81.7982C40.603 81.0102 42.0295 80.7691 43.4134 80.7213C44.6956 80.6768 45.978 80.7941 47.2609 80.7885C49.5782 80.7782 51.861 80.3684 54.1624 80.1735C56.4596 79.9789 58.7444 80.0799 60.9798 80.6293C62.5698 81.0199 63.729 82.2783 63.8544 83.7887C63.86 83.8533 63.8654 83.9178 63.8708 83.9822C63.8876 84.1796 64.0659 84.3317 64.2807 84.333H64.289C64.5309 84.3342 64.722 84.1451 64.7029 83.923C64.4099 80.4857 64.1981 76.9304 65.5808 73.7369C66.342 71.9788 67.5559 70.4142 68.3567 68.6716C69.5426 66.0914 69.7758 63.2374 69.9532 60.4408C70.7605 47.7142 70.7231 34.917 72.6278 22.2903C72.8923 20.5353 73.1791 18.6706 72.3919 17.0542Z" fill="#005BBB"/>
</g>
</g>
</g>
<circle id="Ellipse 282" opacity="0.3" cx="60.5" cy="10" r="9.5" fill="#FF5758"/>
</g>
</svg>
