<svg width="29" height="23" viewBox="0 0 29 23" fill="none" xmlns="http://www.w3.org/2000/svg">
<path id="Vector" d="M17.5002 3.94765C18.8411 4.73998 19.7814 6.08076 19.9526 7.63711C20.4994 7.87791 21.1063 8.01639 21.7498 8.01639C24.099 8.01639 26.003 6.22197 26.003 4.00836C26.003 1.79442 24.099 0 21.7498 0C19.4231 0.000682159 17.5357 1.76304 17.5002 3.94765ZM14.7139 12.1547C17.0631 12.1547 18.9671 10.3599 18.9671 8.14634C18.9671 5.93273 17.0627 4.13832 14.7139 4.13832C12.3651 4.13832 10.46 5.93307 10.46 8.14668C10.46 10.3603 12.3651 12.1547 14.7139 12.1547ZM16.518 12.4279H12.909C9.90625 12.4279 7.46335 14.7305 7.46335 17.5605V21.7199L7.47457 21.7851L7.77857 21.8748C10.6442 22.7186 13.1338 23 15.1829 23C19.1853 23 21.5052 21.9246 21.6481 21.856L21.9322 21.7206H21.9626V17.5605C21.9637 14.7305 19.5208 12.4279 16.518 12.4279ZM23.5547 8.28993H19.9736C19.9348 9.64027 19.3232 10.8562 18.3558 11.7307C21.0249 12.4787 22.9778 14.8114 22.9778 17.5666V18.8484C26.5137 18.7263 28.5512 17.7818 28.6855 17.7184L28.9696 17.5826H29V13.4218C29 10.5922 26.5571 8.28993 23.5547 8.28993ZM7.2509 8.01707C8.08294 8.01707 8.85707 7.7882 9.51285 7.39835C9.72132 6.11692 10.4502 4.99715 11.4914 4.2345C11.4958 4.15946 11.5034 4.08511 11.5034 4.00939C11.5034 1.79544 9.59899 0.00102316 7.2509 0.00102316C4.90137 0.00102316 2.99772 1.79544 2.99772 4.00939C2.99772 6.22231 4.90137 8.01707 7.2509 8.01707ZM11.0705 11.7307C10.1078 10.8606 9.49838 9.65118 9.45386 8.30903C9.32104 8.29982 9.18967 8.28993 9.05431 8.28993H5.44569C2.44291 8.28993 0 10.5922 0 13.4218V17.582L0.0112193 17.6461L0.315225 17.7365C2.61409 18.4128 4.66577 18.7246 6.44782 18.8228V17.5666C6.44855 14.8114 8.4007 12.4794 11.0705 11.7307Z" fill="#6B7BAA"/>
</svg>
