<svg width="20" height="20" viewBox="0 0 20 20" fill="none" xmlns="http://www.w3.org/2000/svg">
<g id="puzzle (1) 1" clip-path="url(#clip0_360_5665)">
<path id="Vector" d="M17.3336 7.10833C16.6502 7.10833 16.0252 6.85 15.5586 6.425V9.56667H13.4336C13.6252 9.14167 13.7252 8.66667 13.7252 8.18333C13.7252 6.25 12.1502 4.68333 10.2252 4.68333C8.29189 4.68333 6.72523 6.25 6.72523 8.18333C6.72523 8.66667 6.82523 9.14167 7.00856 9.56667H4.44189V0.891667C4.44189 0.4 4.84189 0 5.33356 0H14.6669C15.1586 0 15.5586 0.4 15.5586 0.891667V2.45833C16.1586 1.91667 17.0002 1.65 17.9086 1.84167C18.9336 2.05 19.7669 2.90833 19.9502 3.94167C20.2669 5.63333 18.9752 7.10833 17.3336 7.10833Z" fill="#005BBB"/>
<path id="Vector_2" d="M11.1549 14.1603C10.844 15.8578 12.1324 17.3337 13.7765 17.3337C14.4607 17.3337 15.0832 17.0762 15.554 16.6495V19.112C15.554 19.6012 15.154 20.0012 14.6657 20.0012H5.33402C4.84486 20.0012 4.44569 19.6012 4.44569 19.112V16.6495C3.84152 17.192 2.99736 17.4587 2.09069 17.272C1.06902 17.0587 0.233191 16.2053 0.0465243 15.1745C-0.264309 13.4762 1.02402 12.0003 2.66819 12.0003C3.35236 12.0003 3.97486 12.2578 4.44569 12.6845V10.4028H8.74736C8.02736 9.92284 7.55652 9.11367 7.55652 8.18034C7.55652 6.7045 8.74736 5.51367 10.2224 5.51367C11.6974 5.51367 12.8882 6.7045 12.8882 8.18034C12.8882 9.11367 12.4174 9.92284 11.6974 10.4028H15.554V12.6845C14.9499 12.142 14.1057 11.8753 13.199 12.062C12.1774 12.2762 11.3415 13.1295 11.1549 14.1603Z" fill="#005BBB"/>
</g>
<defs>
<clipPath id="clip0_360_5665">
<rect width="20" height="20" fill="white"/>
</clipPath>
</defs>
</svg>
