<svg width="32" height="32" viewBox="0 0 32 32" fill="none" xmlns="http://www.w3.org/2000/svg">
<g id="quote 1">
<g id="Group">
<path id="Vector" d="M6.59998 19.24C5.94 20.9 4.90002 22.54 3.51001 24.12C3.07001 24.62 3.01001 25.34 3.37 25.9C3.65003 26.34 4.10999 26.58 4.60999 26.58C4.75 26.58 4.89002 26.57 5.03003 26.52C7.96997 25.66 14.84 22.61 15.03 12.83C15.1 9.06002 12.34 5.82003 8.75 5.45003C6.76001 5.25002 4.78003 5.89998 3.31 7.21999C1.84003 8.55001 1 10.45 1 12.43C1 15.73 3.34003 18.62 6.59998 19.24Z" fill="#066FDE"/>
<path id="Vector_2" d="M24.7098 5.45003C22.7297 5.25002 20.7498 5.89998 19.2798 7.21999C17.8098 8.55001 16.9697 10.45 16.9697 12.43C16.9697 15.73 19.3098 18.62 22.5698 19.24C21.9097 20.9 20.8698 22.54 19.4797 24.12C19.0397 24.62 18.9797 25.34 19.3398 25.9C19.6198 26.34 20.0798 26.58 20.5798 26.58C20.7197 26.58 20.8597 26.57 20.9998 26.52C23.9398 25.66 30.8098 22.61 30.9998 12.83V12.69C30.9998 8.98 28.2698 5.82003 24.7098 5.45003Z" fill="#066FDE"/>
</g>
</g>
</svg>
