<svg width="20" height="20" viewBox="0 0 20 20" fill="none" xmlns="http://www.w3.org/2000/svg">
<g id="check (6) 1" clip-path="url(#clip0_360_5686)">
<g id="Group">
<path id="Vector" d="M8.49414 16.3257C8.6383 16.5215 8.85997 16.6449 9.10247 16.664C9.12414 16.6657 9.1458 16.6665 9.16664 16.6665C9.38664 16.6665 9.59914 16.5799 9.7558 16.4224L14.5475 11.6307C14.8733 11.3049 14.8733 10.7782 14.5475 10.4524C14.2216 10.1265 13.695 10.1265 13.3691 10.4524L9.26414 14.5574L7.54664 12.2157C7.27414 11.8449 6.75247 11.764 6.38164 12.0365C6.0108 12.309 5.92997 12.8307 6.20247 13.2015L8.49414 16.3257Z" fill="#005BBB"/>
<path id="Vector_2" d="M17.5 2.5H16.6667V0.833333C16.6667 0.373333 16.2933 0 15.8333 0H15C14.54 0 14.1667 0.373333 14.1667 0.833333V2.5H5.83333V0.833333C5.83333 0.373333 5.46 0 5 0H4.16667C3.70667 0 3.33333 0.373333 3.33333 0.833333V2.5H2.5C1.12167 2.5 0 3.62167 0 5V17.5C0 18.8783 1.12167 20 2.5 20H17.5C18.8783 20 20 18.8783 20 17.5V5C20 3.62167 18.8783 2.5 17.5 2.5ZM18.3333 17.5C18.3333 17.9592 17.9592 18.3333 17.5 18.3333H2.5C2.04083 18.3333 1.66667 17.9592 1.66667 17.5V8.36667H18.3333V17.5Z" fill="#005BBB"/>
</g>
</g>
<defs>
<clipPath id="clip0_360_5686">
<rect width="20" height="20" fill="white"/>
</clipPath>
</defs>
</svg>
