<svg width="14" height="14" viewBox="0 0 14 14" fill="none" xmlns="http://www.w3.org/2000/svg">
<path id="Path" d="M6.55785 0.610359C6.7947 0.0390601 7.5692 0.0390601 7.80605 0.610359L9.2388 4.06672C9.33737 4.3045 9.55171 4.4674 9.79835 4.49199L13.3835 4.84935C13.9761 4.90842 14.2154 5.67895 13.7692 6.09107L11.0696 8.5846C10.8839 8.75616 10.802 9.01972 10.8558 9.27268L11.6388 12.95C11.7682 13.5578 11.1417 14.034 10.629 13.7174L7.52777 11.8021C7.31446 11.6704 7.04944 11.6704 6.83612 11.8021L3.73486 13.7174C3.22225 14.034 2.59567 13.5578 2.72509 12.95L3.50806 9.27268C3.56192 9.01972 3.48005 8.75616 3.29434 8.5846L0.594673 6.09107C0.148454 5.67895 0.387783 4.90842 0.980372 4.84935L4.56554 4.49199C4.81218 4.4674 5.02653 4.3045 5.12509 4.06672L6.55785 0.610359Z" fill="#F4BF00"/>
</svg>
