<svg width="9" height="17" viewBox="0 0 9 17" fill="none" xmlns="http://www.w3.org/2000/svg">
<path d="M3.5 9.90625V14.8125L4.1875 15.8438C4.3125 16.0625 4.65625 16.0625 4.78125 15.8438L5.5 14.8125V9.90625C5.15625 9.96875 4.8125 10 4.5 10C4.15625 10 3.8125 9.96875 3.5 9.90625ZM4.5 0C2 0 0 2.03125 0 4.5C0 7 2 9 4.5 9C6.96875 9 9 7 9 4.5C9 2.03125 6.96875 0 4.5 0ZM4.5 2.375C3.3125 2.375 2.375 3.34375 2.375 4.5C2.375 4.71875 2.1875 4.875 2 4.875C1.78125 4.875 1.625 4.71875 1.625 4.5C1.625 2.9375 2.90625 1.625 4.5 1.625C4.6875 1.625 4.875 1.8125 4.875 2C4.875 2.21875 4.6875 2.375 4.5 2.375Z" fill="#C39958"/>
</svg>
