<svg width="47" height="44" viewBox="0 0 47 44" fill="none" xmlns="http://www.w3.org/2000/svg">
<path d="M43.3337 22.1518C43.3337 20.7413 43.1996 19.385 42.9504 18.083H23.0938V25.7866H34.4404C33.9421 28.264 32.4471 30.3617 30.2046 31.7722V36.7813H37.0471C41.0338 33.3093 43.3337 28.2098 43.3337 22.1518Z" fill="#4285F4"/>
<path d="M23.0932 41.5924C28.7857 41.5924 33.5582 39.8202 37.0465 36.7821L30.204 31.773C28.3257 32.9665 25.9298 33.6899 23.0932 33.6899C17.6115 33.6899 12.954 30.1998 11.2865 25.498H4.27148V30.6338C7.74065 37.1257 14.8515 41.5924 23.0932 41.5924Z" fill="#34A853"/>
<path d="M11.2864 25.4798C10.8648 24.2863 10.6156 23.0204 10.6156 21.7003C10.6156 20.3802 10.8648 19.1144 11.2864 17.9209V12.7852H4.27143C2.83393 15.4615 2.00977 18.4815 2.00977 21.7003C2.00977 24.9192 2.83393 27.9391 4.27143 30.6155L9.73393 26.6009L11.2864 25.4798Z" fill="#FBBC05"/>
<path d="M23.0931 9.72917C26.1982 9.72917 28.9581 10.7418 31.1623 12.6949L37.1998 6.99856C33.539 3.77969 28.7857 1.80859 23.0931 1.80859C14.8515 1.80859 7.74065 6.27522 4.27148 12.7853L11.2865 17.921C12.954 13.2193 17.6115 9.72917 23.0931 9.72917Z" fill="#EA4335"/>
</svg>
