<svg width="60" height="60" viewBox="0 0 60 60" fill="none" xmlns="http://www.w3.org/2000/svg">
<g clip-path="url(#clip0_243_333)">
<path d="M29.468 -0.314284C29.4685 -0.314341 29.469 -0.314397 29.4695 -0.314453M30.3638 0.38869H29.7016C29.6573 0.411329 29.6154 0.424032 29.552 0.431002C28.7923 0.51559 28.1189 0.838762 27.4847 1.4021C27.0653 1.77444 26.5473 1.95441 25.9621 1.94726C25.5912 1.94277 25.2572 1.84376 24.8436 1.6479C23.9066 1.2045 22.9625 1.15892 21.9993 1.51369C21.2637 1.78463 20.68 2.25142 20.2479 2.91222C19.8487 3.52331 19.3055 3.897 18.627 3.9799C18.3202 4.01741 18.0192 3.99513 17.5893 3.92506C15.9015 3.64992 14.2673 4.56999 13.6421 6.1498C13.6264 6.18928 13.6138 6.22446 13.587 6.30206C13.5865 6.30353 13.5865 6.30353 13.586 6.305C13.5473 6.4171 13.5285 6.46864 13.5004 6.53537C13.1407 7.38923 12.4829 7.88727 11.5669 7.98597C11.5066 7.99232 11.5066 7.99232 11.448 7.99819C11.4443 7.99857 11.4443 7.99857 11.4406 7.99894C11.3113 8.01191 11.2496 8.01883 11.1792 8.02904C9.7409 8.23672 8.76882 9.00835 8.21746 10.3682C8.1094 10.6346 8.06617 10.8694 8.00299 11.4225C8.00115 11.4386 8.00115 11.4386 7.9993 11.4547C7.99001 11.5357 7.99001 11.5357 7.98019 11.6178C7.87682 12.4677 7.40516 13.0919 6.61382 13.4503C6.53378 13.4865 6.47215 13.5091 6.33852 13.5542C6.33725 13.5547 6.33725 13.5547 6.33597 13.5551C6.27007 13.5774 6.24441 13.5863 6.21185 13.5984C4.60698 14.1974 3.65046 15.8335 3.91755 17.5224C3.92383 17.5622 3.92953 17.5935 3.94444 17.6722C3.9454 17.6772 3.9454 17.6772 3.94636 17.6823C3.9753 17.8349 3.98803 17.9144 3.99598 18.0146C4.06867 18.9377 3.69713 19.6786 2.91597 20.208C1.35057 21.2689 0.838831 23.1335 1.6488 24.8209C2.12751 25.8181 1.99984 26.7446 1.27083 27.5849C0.078759 28.9586 0.076041 30.9122 1.2648 32.2867C2.00109 33.1381 2.12617 34.0693 1.63871 35.0802C0.844156 36.7283 1.35747 38.6157 2.88022 39.6467C3.78587 40.2598 4.14147 41.1113 3.94525 42.1908C3.60611 44.0561 4.55969 45.6883 6.35805 46.3292C6.48435 46.3743 6.55524 46.4013 6.6364 46.4378C7.31929 46.7454 7.76353 47.282 7.94213 48.0094C7.97719 48.1523 7.99439 48.2839 8.01179 48.4934C8.01421 48.5226 8.01421 48.5226 8.01653 48.5514C8.02119 48.6089 8.02119 48.6089 8.02602 48.6642C8.06686 49.121 8.19061 49.5415 8.39932 49.9231C9.05237 51.1178 10.0371 51.7634 11.3799 51.8679C12.4057 51.9478 13.1328 52.4445 13.5117 53.3689C13.534 53.4232 13.548 53.4641 13.5759 53.5514C13.5765 53.5532 13.5765 53.5532 13.577 53.555C13.5965 53.6156 13.6034 53.6361 13.6134 53.6623C13.8556 54.2931 14.2209 54.8042 14.7194 55.1962C15.6088 55.8963 16.5979 56.141 17.7023 55.931C18.7907 55.7242 19.6657 56.0765 20.2616 56.9893C20.3031 57.0529 20.3408 57.1063 20.3784 57.1539C21.1123 58.0863 22.0474 58.5617 23.2191 58.5904C23.8064 58.6046 24.37 58.4721 24.9222 58.1955C25.4526 57.9302 25.9967 57.8562 26.5497 57.9929C26.9425 58.09 27.2661 58.2851 27.6548 58.6148C29.0271 59.7786 30.9929 59.7748 32.3482 58.6026C33.2004 57.8658 34.1322 57.7384 35.1448 58.2249C36.8023 59.0216 38.6912 58.513 39.7226 56.9933C40.3483 56.0716 41.224 55.7156 42.313 55.9374C42.7881 56.0342 43.2486 56.0347 43.692 55.9347C45.0509 55.6285 45.9519 54.8436 46.4087 53.556C46.7774 52.5163 47.5182 51.9403 48.6033 51.8717C50.4139 51.758 51.8432 50.3505 51.9778 48.5506C51.9977 48.2831 52.0289 48.0763 52.0888 47.8768C52.3214 47.1015 52.863 46.5966 53.6849 46.3088C55.4167 45.7027 56.3983 44.0005 56.0521 42.2089C55.8436 41.1308 56.1936 40.2688 57.0985 39.6534C58.6416 38.6043 59.148 36.7352 58.3431 35.0613C57.8632 34.0627 57.9897 33.1367 58.7186 32.2973C59.9099 30.9253 59.9142 28.9674 58.7273 27.5948C57.9754 26.7251 57.8518 25.7749 58.3707 24.7645C58.555 24.4052 58.6644 24.0216 58.6954 23.6232C58.8104 22.1548 58.2718 21.0254 57.0577 20.1943C56.1943 19.6033 55.8529 18.7607 56.0395 17.7236C56.0928 17.427 56.1178 17.2367 56.1224 17.0494C56.1609 15.4856 55.1992 14.1024 53.6994 13.5782C52.6148 13.1988 52.0302 12.4346 51.973 11.3034C51.9501 10.858 51.8364 10.4341 51.6338 10.0394C50.9895 8.78366 49.9694 8.11132 48.5473 7.99828C47.4866 7.91393 46.7543 7.35329 46.4295 6.35886C45.8707 4.64683 44.1163 3.58206 42.261 3.95032C41.2031 4.16041 40.3479 3.79917 39.7347 2.90123C38.6841 1.36245 36.8017 0.853258 35.1312 1.6568C34.1241 2.14128 33.187 2.01834 32.3597 1.28195C31.9132 0.884595 31.3851 0.619884 30.7763 0.48372C30.7036 0.46747 30.6507 0.455324 30.5268 0.426574C30.4994 0.420195 30.4994 0.420195 30.472 0.413828C30.4142 0.400369 30.4009 0.397281 30.3638 0.38869Z" stroke="#030303" stroke-width="0.7"/>
<path fill-rule="evenodd" clip-rule="evenodd" d="M17.3599 35.0587C17.089 35.1736 16.8705 35.2852 16.6397 35.3589C16.4065 35.4333 16.163 35.4811 15.9207 35.5215C14.7656 35.7147 13.6009 35.7287 12.4382 35.6376C11.6181 35.5733 10.7876 35.508 10.0173 35.0259C10.0173 35.3032 10.0257 35.5445 10.0147 35.7849C10.0053 35.9912 10.0911 36.1371 10.2722 36.212C10.5088 36.3096 10.7484 36.4218 10.9975 36.4629C11.6146 36.5649 12.2356 36.6604 12.8589 36.7035C14.0471 36.7856 15.2317 36.7248 16.3979 36.4631C16.6461 36.4074 16.8851 36.3035 17.1213 36.205C17.2902 36.1345 17.3705 35.9973 17.3624 35.8039C17.3522 35.5596 17.3599 35.3145 17.3599 35.0587ZM25.6074 49.9586C25.7766 50.5476 25.9625 51.0811 26.2116 51.5945C26.4238 52.0316 26.7608 52.3354 27.1989 52.5048C28.2897 52.9266 29.0159 52.3583 29.1886 51.4302C29.3307 50.6667 29.084 49.9572 28.6944 49.2968C27.6359 49.3585 26.6467 49.6731 25.6074 49.9586ZM31.1244 47.1298C30.9834 47.5256 30.8042 47.9034 30.718 48.3014C30.5987 48.852 30.5879 49.4092 30.9426 49.9087C31.2 50.2712 31.5304 50.4785 31.9855 50.4705C32.7067 50.4575 33.2666 50.1463 33.6028 49.5158C33.8216 49.1056 33.9636 48.654 34.1345 48.2189C34.186 48.088 34.2192 47.9501 34.2669 47.7954C33.2296 47.5096 32.2414 47.194 31.1244 47.1298ZM34.6817 10.6288C34.605 10.0446 34.5502 9.46559 34.4476 8.8951C34.3583 8.39762 34.1704 7.92769 33.8582 7.51986C33.7334 7.35664 33.5823 7.20056 33.3512 7.26643C33.1236 7.33133 33.1165 7.54699 33.1023 7.73454C33.0708 8.14685 33.0357 8.56 33.0314 8.973C33.0205 10.0129 33.027 11.0529 33.0234 12.0929C33.0202 13.0881 33.0237 14.0834 33.0059 15.0785C32.9766 16.7329 32.9317 18.3871 32.8961 20.0415C32.894 20.1408 32.8997 20.2452 32.9279 20.3392C32.9897 20.5462 33.1584 20.6545 33.3591 20.6368C33.5484 20.62 33.6809 20.5053 33.7176 20.2958C33.7403 20.1653 33.7386 20.0291 33.7354 19.8957C33.6855 17.9621 33.6376 16.0284 33.5781 14.095C33.5689 13.7959 33.6482 13.5544 33.844 13.3299C34.1572 12.9706 34.3908 12.5613 34.4729 12.0871C34.5565 11.6039 34.6128 11.1161 34.6817 10.6288ZM29.8999 10.955C29.7401 10.8364 29.7827 10.6713 29.7827 10.5256C29.7816 9.5523 29.787 8.57902 29.7866 7.60573C29.7863 7.36699 29.7151 7.23986 29.6056 7.26643C29.4262 7.31021 29.4604 7.46923 29.4575 7.59678C29.4319 8.72643 29.4304 9.85692 29.3778 10.9852C29.3529 11.5148 29.4541 11.9288 29.9565 12.1892C30.1374 12.2831 30.2107 12.4565 30.1997 12.6698C30.1852 12.9489 30.1929 13.2289 30.1866 13.5087C30.1386 15.6559 30.0891 17.8032 30.0423 19.9505C30.0395 20.0726 30.0429 20.1985 30.0694 20.3168C30.113 20.5106 30.263 20.6264 30.45 20.6386C30.643 20.651 30.8079 20.5627 30.8738 20.3757C30.9171 20.2524 30.936 20.1136 30.9332 19.9824C30.9078 18.7745 30.8735 17.567 30.8445 16.3592C30.8152 15.1401 30.7912 13.921 30.7594 12.7021C30.7536 12.4806 30.8281 12.311 31.011 12.1866C31.0943 12.1298 31.1733 12.0668 31.2561 12.0094C31.4979 11.8413 31.6013 11.6059 31.5945 11.3176C31.5652 10.0652 31.5353 8.81258 31.5049 7.56014C31.5036 7.50433 31.5097 7.44098 31.4855 7.39524C31.4578 7.34321 31.402 7.27594 31.3549 7.273C31.3095 7.27021 31.2303 7.33398 31.2179 7.38181C31.1903 7.48783 31.1882 7.60237 31.1882 7.71342C31.1892 8.67552 31.1931 9.63762 31.1961 10.5997C31.1966 10.7319 31.2015 10.8655 31.0584 10.9604C30.8952 10.8562 30.9366 10.7007 30.9363 10.5663C30.9343 9.60419 30.9381 8.64209 30.936 7.68C30.9357 7.57021 30.9203 7.45776 30.8913 7.35216C30.8806 7.31342 30.8097 7.26657 30.7674 7.26769C30.7238 7.26895 30.6537 7.3172 30.6441 7.35678C30.6181 7.46363 30.6094 7.57678 30.6091 7.68741C30.6068 8.64965 30.608 9.61175 30.6077 10.574C30.6077 10.6632 30.614 10.7547 30.5968 10.8411C30.5879 10.8845 30.5226 10.9558 30.5012 10.9496C30.448 10.9345 30.3767 10.8898 30.3646 10.8435C30.3399 10.7482 30.3448 10.6443 30.3451 10.5439C30.3474 9.60419 30.3517 8.66433 30.3534 7.72475C30.3535 7.61342 30.3549 7.49888 30.3298 7.39202C30.3181 7.34181 30.2454 7.27468 30.1981 7.27258C30.1526 7.27063 30.0754 7.33524 30.0622 7.38405C30.0335 7.48979 30.028 7.60419 30.0283 7.71496C30.0294 8.67706 30.0349 9.63916 30.0369 10.6013C30.0369 10.7291 30.0596 10.8709 29.8999 10.955ZM27.5951 16.1811C27.5893 16.1811 27.5833 16.1811 27.5773 16.1813C27.5773 15.8794 27.5822 15.5776 27.5764 15.2759C27.5579 14.3038 27.5411 13.3315 27.5114 12.3596C27.5026 12.0715 27.5853 11.835 27.7861 11.6326C27.8729 11.5455 27.9528 11.4515 28.0323 11.3575C28.2834 11.06 28.454 10.7224 28.4923 10.3327C28.5813 9.42853 28.3989 8.57398 27.9576 7.78349C27.8651 7.61804 27.6869 7.48881 27.5247 7.3765C27.2903 7.2144 27.0432 7.23482 26.8025 7.39426C26.5796 7.54181 26.4219 7.73944 26.3159 7.97916C26.0512 8.5786 25.9102 9.20447 25.8833 9.86126C25.8565 10.5147 26.0572 11.0757 26.5229 11.5294C26.8099 11.8089 26.909 12.1263 26.8983 12.5229C26.8323 14.992 26.7819 17.4617 26.7286 19.9312C26.7261 20.0418 26.7321 20.1555 26.7548 20.2634C26.8102 20.5243 26.9555 20.6442 27.1906 20.6422C27.4305 20.6401 27.608 20.4906 27.649 20.2366C27.6685 20.1165 27.6636 19.9916 27.6614 19.8689C27.6402 18.6397 27.6175 17.4103 27.5951 16.1811ZM25.2483 49.0069C25.5374 48.9457 25.8326 48.8895 26.1248 48.8201C26.8421 48.6494 27.5576 48.4702 28.2751 48.2997C28.4265 48.2639 28.5074 48.1997 28.5035 48.029C28.4843 47.1582 28.4876 46.2864 28.4537 45.4165C28.4345 44.9288 28.2513 44.4764 27.991 44.067C27.6789 43.5755 27.2216 43.2933 26.6344 43.2531C26.367 43.2348 26.0963 43.2357 25.8289 43.254C24.9869 43.3111 24.4138 43.7744 24.232 44.5428C24.186 44.7373 24.159 44.9394 24.1504 45.1392C24.0915 46.5403 24.6589 47.7667 25.2483 49.0069ZM34.6269 46.845C34.669 46.7894 34.6964 46.7662 34.7076 46.7366C34.9891 45.9964 35.2927 45.2635 35.5421 44.5122C35.7596 43.858 35.7915 43.1759 35.664 42.493C35.5096 41.6667 34.9385 41.1558 34.094 41.0985C33.8265 41.0803 33.5568 41.0815 33.2888 41.0909C32.6269 41.1138 32.1423 41.4397 31.8211 42.0024C31.5753 42.4334 31.4146 42.8992 31.4045 43.4013C31.388 44.2385 31.3822 45.0758 31.3733 45.9133C31.3727 45.9562 31.385 45.9994 31.3948 46.0657C32.4493 46.4354 33.5548 46.5933 34.6269 46.845ZM50.1339 31.745C50.1624 32.4015 50.1227 33.0011 50.1603 33.6183C50.7385 33.6166 51.27 33.6347 51.8009 33.6099V32.9587H51.1899V32.5589H51.8044V32.1208C51.5867 32.1101 51.3901 32.1003 51.1859 32.0902V31.7646C51.4022 31.7503 51.5993 31.7375 51.7899 31.7252C51.8603 31.3064 51.8425 30.278 51.7576 30.0263H45.4069C45.3041 29.7957 45.1463 29.6436 44.8961 29.6344C44.6537 29.6253 44.4985 29.782 44.369 29.967C43.9863 29.5055 43.6891 29.5232 43.296 30.0267C43.1867 30.0124 43.064 30.0046 42.9453 29.9799C42.5047 29.8876 42.1269 29.6705 41.8144 29.3547C41.5713 29.1088 41.3553 28.8361 41.1291 28.5733C40.7345 28.1148 40.1384 27.946 39.5785 28.1368C39.0097 28.3306 38.6323 28.8482 38.6153 29.4603C38.6128 29.5474 38.615 29.6345 38.615 29.7294C38.4976 29.748 38.3987 29.7582 38.303 29.7797C37.7487 29.9049 37.3862 30.3607 37.3972 30.914C37.4076 31.4498 37.777 31.88 38.3243 31.9941C38.4193 32.0138 38.5142 32.0327 38.617 32.0536C38.617 32.1741 38.6124 32.274 38.6178 32.3733C38.6495 32.9585 39.0465 33.4695 39.6038 33.6463C40.1818 33.8299 40.7581 33.6417 41.1688 33.1558C41.4207 32.8575 41.6792 32.5618 41.9614 32.2926C42.2492 32.0176 42.609 31.8536 43.0025 31.779C43.1783 31.7456 43.328 31.7357 43.4613 31.9347C43.6365 32.1964 43.9933 32.192 44.2263 31.9743C44.2791 31.9249 44.3225 31.8653 44.3718 31.8087C44.4333 31.8799 44.4779 31.946 44.5362 31.9966C44.7505 32.1831 45.0955 32.1877 45.2558 31.9607C45.3963 31.7618 45.5576 31.7413 45.7677 31.7421C47.0903 31.7477 48.4128 31.745 49.7355 31.745H50.1339ZM13.7872 46.5383C19.2181 41.071 24.5983 35.655 29.9604 30.2572C30.6666 30.9436 31.3529 31.6013 32.0288 32.2696C32.7134 32.9469 33.3882 33.6345 34.0672 34.3178C34.7383 34.9931 35.4094 35.6685 36.0802 36.3441C36.751 37.0196 37.4215 37.6954 38.0924 38.371C38.7711 39.0545 39.4496 39.738 40.1286 40.4214C40.7997 41.0968 41.4711 41.7719 42.1421 42.4471C42.8209 43.1302 43.4972 43.8165 44.1793 44.4966C44.849 45.1643 45.4982 45.8536 46.194 46.5064C46.264 46.4441 46.3086 46.4108 46.3456 46.3701C46.3812 46.3308 46.4089 46.2843 46.4516 46.225C41.0565 40.793 35.6703 35.3702 30.2761 29.9392C35.6909 24.4877 41.0714 19.0705 46.4715 13.6334C46.3595 13.5302 46.2753 13.4529 46.1805 13.3659C40.7762 18.8064 35.3956 24.2229 29.9966 29.6583C24.5879 24.2134 19.207 18.7964 13.8178 13.371C13.7169 13.4631 13.6308 13.5414 13.5252 13.6375C18.929 19.0778 24.3101 24.4951 29.7169 29.9389C24.3147 35.3783 18.9279 40.802 13.5104 46.2566C13.6067 46.3548 13.6825 46.4317 13.7872 46.5383ZM17.36 30.9959V31.6385C17.36 32.5558 17.346 33.4733 17.3676 34.3899C17.3753 34.7175 17.2449 34.9106 16.9574 34.992C16.5172 35.1168 16.0737 35.2523 15.6221 35.3113C14.2262 35.4934 12.8264 35.4944 11.4348 35.2587C11.0839 35.1993 10.7387 35.0933 10.3992 34.9829C10.13 34.8955 10.0036 34.7131 10.0095 34.3985C10.0294 33.325 10.017 32.2509 10.0163 31.1772C10.0163 31.122 10.0112 31.0667 10.0072 30.9883C9.30952 30.8305 8.74961 30.4744 8.40882 29.8302C8.16405 29.3678 8.0969 28.8744 8.20863 28.3653C8.33662 27.782 8.65863 27.3252 9.15952 26.9948C9.66321 26.6625 10.2212 26.6025 10.8189 26.6849C11.2461 25.1003 12.2324 24.1666 13.9072 24.271C15.3544 24.3614 16.2008 25.2636 16.5493 26.6843C17.3166 26.5709 18.0151 26.7222 18.5826 27.2863C18.9636 27.6652 19.1648 28.1285 19.2189 28.6582C19.3277 29.7235 18.6377 30.6066 17.36 30.9959ZM40.0405 31.3774C40.5406 31.38 40.9599 31.8023 40.958 32.301C40.956 32.7999 40.5328 33.2189 40.033 33.2169C39.5328 33.2151 39.1128 32.7926 39.1155 32.2939C39.1186 31.7943 39.5418 31.3747 40.0405 31.3774ZM40.0569 28.5556C40.5574 28.5688 40.9704 28.9994 40.958 29.4955C40.9454 29.9956 40.5145 30.4074 40.0167 30.3942C39.5134 30.381 39.1014 29.9517 39.1155 29.4555C39.1301 28.9541 39.5602 28.5428 40.0569 28.5556ZM38.5156 31.5092C38.1709 31.5043 37.8949 31.2318 37.8917 30.8929C37.888 30.5459 38.1868 30.2513 38.5364 30.2569C38.8908 30.2627 39.1675 30.5568 39.1542 30.9137C39.1413 31.2572 38.8656 31.5143 38.5156 31.5092ZM41.5655 30.1406C41.7416 30.3896 41.8839 30.5708 42.0001 30.7671C42.0367 30.8292 42.0343 30.9508 41.9968 31.0136C41.8798 31.2095 41.7375 31.3903 41.594 31.592C41.3621 31.4176 41.2482 31.201 41.1277 30.9961C41.0916 30.935 41.1033 30.8126 41.142 30.7473C41.2539 30.5594 41.3909 30.3864 41.5655 30.1406Z" fill="#030303"/>
</g>
<defs>
<clipPath id="clip0_243_333">
<rect width="60" height="60" fill="white"/>
</clipPath>
</defs>
</svg>
