<svg width="14" height="16" viewBox="0 0 14 16" fill="none" xmlns="http://www.w3.org/2000/svg">
<path d="M12.625 0.125C12.4758 0.125 12.3327 0.184263 12.2273 0.289752C12.1218 0.395242 12.0625 0.538316 12.0625 0.6875V4.0625C12.0625 4.21168 12.0032 4.35476 11.8977 4.46025C11.7923 4.56574 11.6492 4.625 11.5 4.625H10.9375V0.6875C10.9375 0.538316 10.8782 0.395242 10.7727 0.289752C10.6673 0.184263 10.5242 0.125 10.375 0.125C10.2258 0.125 10.0827 0.184263 9.97725 0.289752C9.87176 0.395242 9.8125 0.538316 9.8125 0.6875V4.625H9.25C9.10082 4.625 8.95774 4.56574 8.85225 4.46025C8.74676 4.35476 8.6875 4.21168 8.6875 4.0625V0.6875C8.6875 0.538316 8.62824 0.395242 8.52275 0.289752C8.41726 0.184263 8.27418 0.125 8.125 0.125C7.97582 0.125 7.83274 0.184263 7.72725 0.289752C7.62176 0.395242 7.5625 0.538316 7.5625 0.6875V4.625C7.56456 5.19863 7.74197 5.75792 8.07094 6.22785C8.39991 6.69778 8.86471 7.05588 9.403 7.25412L9.01656 14.9266C9.02076 15.059 9.05167 15.1891 9.10745 15.3092C9.16322 15.4293 9.24271 15.5369 9.34112 15.6255C9.43954 15.7141 9.55485 15.7818 9.68013 15.8247C9.80541 15.8676 9.93807 15.8847 10.0701 15.875H10.6799C10.8119 15.8847 10.9446 15.8676 11.0699 15.8247C11.1951 15.7818 11.3105 15.7141 11.4089 15.6255C11.5073 15.5369 11.5868 15.4293 11.6426 15.3092C11.6983 15.1891 11.7292 15.059 11.7334 14.9266L11.3464 7.25412C11.8851 7.05645 12.3504 6.69851 12.6795 6.22846C13.0087 5.75842 13.186 5.19883 13.1875 4.625V0.6875C13.1875 0.538316 13.1282 0.395242 13.0227 0.289752C12.9173 0.184263 12.7742 0.125 12.625 0.125Z" fill="#C39958"/>
<path d="M3.625 0.125C2.07194 0.125 0.8125 2.35812 0.8125 4.36513C0.8125 5.93 1.58144 6.88737 2.65469 7.23725L2.26656 14.9266C2.27076 15.059 2.30167 15.1891 2.35745 15.3092C2.41322 15.4293 2.49271 15.5369 2.59112 15.6255C2.68954 15.7141 2.80485 15.7818 2.93013 15.8247C3.05541 15.8676 3.18807 15.8847 3.32013 15.875H3.92987C4.06193 15.8847 4.19459 15.8676 4.31987 15.8247C4.44515 15.7818 4.56046 15.7141 4.65888 15.6255C4.75729 15.5369 4.83678 15.4293 4.89255 15.3092C4.94833 15.1891 4.97924 15.059 4.98344 14.9266L4.59531 7.23725C5.66856 6.88737 6.4375 5.93 6.4375 4.36513C6.4375 2.35812 5.17806 0.125 3.625 0.125Z" fill="#C39958"/>
</svg>
