<svg width="20" height="20" viewBox="0 0 20 20" fill="none" xmlns="http://www.w3.org/2000/svg">
<g clip-path="url(#clip0_372_354)">
<rect width="20" height="20" fill="white"/>
<path d="M5.52302 4.55146C5.23458 4.26279 4.76662 4.26279 4.47818 4.55146C3.40724 5.6224 2.88087 7.11428 3.03384 8.64482C3.07201 9.02611 3.39322 9.31033 3.76833 9.31033C3.79298 9.31033 3.81783 9.30908 3.84247 9.30662C4.24865 9.266 4.54494 8.90365 4.50431 8.49775C4.39544 7.41006 4.76689 6.35244 5.52302 5.59627C5.81169 5.30787 5.81169 4.83986 5.52302 4.55146Z" fill="#144732"/>
<path d="M8.44828 0C3.78988 0 0 3.78988 0 8.44828C0 13.1067 3.78988 16.8966 8.44828 16.8966C13.1067 16.8966 16.8966 13.1067 16.8966 8.44828C16.8966 3.78988 13.1066 0 8.44828 0ZM8.44828 15.4187C4.60469 15.4187 1.47785 12.2919 1.47785 8.44828C1.47785 4.60469 4.60469 1.47785 8.44828 1.47785C12.2916 1.47785 15.4187 4.60469 15.4187 8.44828C15.4187 12.2919 12.2919 15.4187 8.44828 15.4187Z" fill="#144732"/>
<path d="M19.7832 18.7383L14.4137 13.3688C14.125 13.0802 13.6575 13.0802 13.3688 13.3688C13.0802 13.6573 13.0802 14.1253 13.3688 14.4137L18.7383 19.7831C18.8827 19.9275 19.0716 19.9996 19.2608 19.9996C19.4499 19.9996 19.6388 19.9275 19.7832 19.7831C20.0718 19.4947 20.0718 19.0267 19.7832 18.7383Z" fill="#144732"/>
</g>
<defs>
<clipPath id="clip0_372_354">
<rect width="20" height="20" fill="white"/>
</clipPath>
</defs>
</svg>
