<svg width="18" height="16" viewBox="0 0 18 16" fill="none" xmlns="http://www.w3.org/2000/svg">
<path d="M7.96875 4.09375L5.8125 0.5C5.65625 0.21875 5.3125 0 4.96875 0H1.5C1.09375 0 0.84375 0.46875 1.0625 0.8125L4.5625 5.78125C5.46875 4.90625 6.65625 4.3125 7.96875 4.09375ZM16.4688 0H13C12.6562 0 12.3438 0.1875 12.1562 0.5L10 4.09375C11.3125 4.3125 12.5 4.90625 13.4062 5.78125L16.9062 0.8125C17.125 0.46875 16.875 0 16.4688 0ZM9 5C5.9375 5 3.5 7.46875 3.5 10.5C3.5 13.5625 5.9375 16 9 16C12.0312 16 14.5 13.5625 14.5 10.5C14.5 7.46875 12.0312 5 9 5ZM11.875 9.9375L10.6875 11.0938L10.9688 12.7188C11.0312 13 10.7188 13.2188 10.4375 13.0938L9 12.3125L7.53125 13.0938C7.25 13.2188 6.9375 13 7 12.7188L7.28125 11.0938L6.09375 9.9375C5.875 9.71875 6 9.375 6.28125 9.3125L7.9375 9.09375L8.65625 7.59375C8.71875 7.46875 8.84375 7.40625 8.96875 7.40625C9.125 7.40625 9.25 7.46875 9.3125 7.59375L10.0312 9.09375L11.6875 9.3125C11.9688 9.375 12.0938 9.71875 11.875 9.9375Z" fill="#C39958"/>
</svg>
