<svg width="205" height="46" viewBox="0 0 205 46" fill="none" xmlns="http://www.w3.org/2000/svg">
<g clip-path="url(#clip0_243_585)">
<path d="M202.947 30.7378C202.314 30.7378 201.8 31.2826 201.8 31.9533C201.8 32.6241 202.314 33.1689 202.947 33.1689C203.58 33.1689 204.094 32.6241 204.094 31.9533C204.094 31.2826 203.58 30.7378 202.947 30.7378ZM202.947 32.9761C202.414 32.9761 201.982 32.516 201.982 31.9533C201.982 31.3879 202.416 30.9305 202.947 30.9305C203.481 30.9305 203.914 31.3905 203.914 31.9533C203.914 32.5161 203.48 32.9761 202.947 32.9761ZM203.32 31.7451C203.32 31.5241 203.173 31.3931 202.954 31.3931H202.588V32.5007H202.768V32.0998H202.964L203.153 32.5007H203.347L203.138 32.0587C203.25 32.0047 203.32 31.8967 203.32 31.7451ZM202.947 31.9276H202.77V31.5602H202.947C203.068 31.5602 203.141 31.6244 203.141 31.7426C203.141 31.8634 203.066 31.9276 202.947 31.9276ZM64.7773 18.4359V15.4961H60.5251V32.9863H64.7773V22.4989C64.7773 20.5998 65.9264 19.6669 67.718 19.6669H70.0454V15.4961H68.0574C66.501 15.4961 65.1482 16.3569 64.7773 18.4359ZM74.0286 8.57809C72.574 8.57809 71.4588 9.79622 71.4588 11.3381C71.4588 12.844 72.574 14.0622 74.0286 14.0622C75.4832 14.0622 76.5984 12.844 76.5984 11.3381C76.5983 9.79615 75.4832 8.57809 74.0286 8.57809ZM71.9073 32.9864H76.1499V15.4961H71.9073V32.9864ZM96.359 24.2412C96.359 29.2344 92.5408 33.2819 87.8302 33.2819C85.9295 33.2819 84.2059 32.6215 82.8239 31.5061V38.121H78.5814V15.4961H82.8239V16.9763C84.2059 15.861 85.9295 15.2005 87.8302 15.2005C92.5408 15.2005 96.359 19.248 96.359 24.2412ZM92.0898 24.2412C92.0898 21.5301 90.0146 19.3302 87.4569 19.3302C84.8992 19.3302 82.824 21.5301 82.824 24.2412C82.824 26.9524 84.8993 29.1522 87.4569 29.1522C90.0146 29.1522 92.0898 26.955 92.0898 24.2412ZM170.097 22.707L167.622 21.9875C165.993 21.5377 165.36 21.0084 165.36 20.0961C165.36 19.2069 166.252 18.585 167.528 18.585C168.742 18.585 169.695 19.4279 169.695 20.5072V20.6074H173.606V20.5072C173.606 17.3334 171.164 15.2005 167.528 15.2005C163.928 15.2005 161.312 17.3308 161.312 20.2682C161.312 22.5528 162.74 24.2745 165.232 24.9889L167.603 25.6751C169.404 26.2045 170.073 26.7905 170.073 27.8415C170.073 28.9492 169.106 29.6944 167.666 29.6944C166.165 29.6944 165.154 28.6869 165.154 27.1913V27.0911H161.004V27.1913C161.004 30.7788 163.729 33.287 167.632 33.287C171.392 33.287 174.122 30.838 174.122 27.4663C174.122 25.8113 173.424 23.6476 170.097 22.707ZM111.409 15.4961H115.652V32.9863H111.409V31.5061C110.027 32.6214 108.304 33.2819 106.403 33.2819C101.693 33.2819 97.8743 29.2344 97.8743 24.2411C97.8743 19.2479 101.693 15.2005 106.403 15.2005C108.304 15.2005 110.027 15.8609 111.409 16.9762V15.4961ZM111.409 24.2412C111.409 21.5275 109.334 19.3302 106.776 19.3302C104.219 19.3302 102.144 21.5301 102.144 24.2412C102.144 26.9524 104.219 29.1522 106.776 29.1522C109.336 29.1522 111.409 26.955 111.409 24.2412ZM130.971 9.27193H135.214V32.9889H130.971V31.5087C129.589 32.624 127.866 33.2845 125.965 33.2845C121.254 33.2845 117.436 29.2369 117.436 24.2437C117.436 19.2505 121.254 15.203 125.965 15.203C127.866 15.203 129.589 15.8635 130.971 16.9788V9.27193ZM130.971 24.2412C130.971 21.5301 128.896 19.3302 126.338 19.3302C123.781 19.3302 121.705 21.5301 121.705 24.2412C121.705 26.9524 123.778 29.1522 126.338 29.1522C128.896 29.1522 130.971 26.955 130.971 24.2412ZM154.911 32.9864H159.154V15.4961H154.911V32.9864ZM157.033 8.57809C155.578 8.57809 154.463 9.79622 154.463 11.3381C154.463 12.844 155.578 14.0622 157.033 14.0622C158.487 14.0622 159.603 12.844 159.603 11.3381C159.603 9.79615 158.487 8.57809 157.033 8.57809ZM192.459 24.2412C192.459 29.2344 188.641 33.2819 183.931 33.2819C179.22 33.2819 175.402 29.2344 175.402 24.2412C175.402 19.248 179.22 15.2005 183.931 15.2005C188.641 15.2005 192.459 19.248 192.459 24.2412ZM188.564 24.2412C188.564 21.5301 186.488 19.3302 183.931 19.3302C181.373 19.3302 179.298 21.5301 179.298 24.2412C179.298 26.9524 181.371 29.1522 183.931 29.1522C186.488 29.1522 188.564 26.955 188.564 24.2412ZM62.6051 9.27193H46.3306V13.2835H52.3551V32.9863H56.5831V13.2835H62.6076V9.27193H62.6051ZM144.909 28.1962L141.134 15.4961H136.678L142.339 32.9864H147.444L153.139 15.4961H148.683L144.909 28.1962ZM198.675 18.4359V15.4961H194.423V32.9863H198.675V22.4989C198.675 20.5998 199.825 19.6669 201.616 19.6669H203.943V15.4961H201.956C200.399 15.4961 199.049 16.3569 198.675 18.4359Z" fill="black"/>
<path d="M21.7917 46C33.775 46 43.4895 35.7025 43.4895 23C43.4895 10.2975 33.775 0 21.7917 0C9.8084 0 0.0939941 10.2975 0.0939941 23C0.0939941 35.7025 9.8084 46 21.7917 46Z" fill="#34E0A1"/>
<path d="M35.1924 18.5132L37.8107 15.4936H32.0045C29.0977 13.3889 25.5872 12.1631 21.7907 12.1631C17.9991 12.1631 14.4984 13.3915 11.5964 15.4936H5.77563L8.39391 18.5132C6.78903 20.0653 5.78293 22.3011 5.78293 24.7836C5.78293 29.4684 9.36614 33.2666 13.7857 33.2666C15.8852 33.2666 17.7979 32.4083 19.2259 31.0051L21.7908 33.9656L24.3557 31.0077C25.7837 32.4109 27.694 33.2666 29.7935 33.2666C34.213 33.2666 37.8011 29.4684 37.8011 24.7836C37.8034 22.2986 36.7974 20.0628 35.1924 18.5132ZM13.7881 30.5246C10.7964 30.5246 8.37214 27.9548 8.37214 24.7836C8.37214 21.6124 10.7965 19.0426 13.7881 19.0426C16.7797 19.0426 19.204 21.6124 19.204 24.7836C19.204 27.9548 16.7797 30.5246 13.7881 30.5246ZM21.7932 24.6166C21.7932 20.8389 19.2016 17.5958 15.7809 16.2106C17.6306 15.3908 19.6598 14.9359 21.7907 14.9359C23.9217 14.9359 25.9533 15.3908 27.8031 16.2106C24.3848 17.5983 21.7932 20.8389 21.7932 24.6166ZM29.7959 30.5246C26.8043 30.5246 24.38 27.9548 24.38 24.7836C24.38 21.6124 26.8043 19.0426 29.7959 19.0426C32.7876 19.0426 35.2118 21.6124 35.2118 24.7836C35.2118 27.9548 32.7875 30.5246 29.7959 30.5246ZM29.7959 21.7717C28.2274 21.7717 26.957 23.1183 26.957 24.781C26.957 26.4437 28.2274 27.7903 29.7959 27.7903C31.3644 27.7903 32.6348 26.4437 32.6348 24.781C32.6347 23.1209 31.3644 21.7717 29.7959 21.7717ZM16.6269 24.7836C16.6269 26.4462 15.3566 27.7929 13.7881 27.7929C12.2195 27.7929 10.9492 26.4462 10.9492 24.7836C10.9492 23.1209 12.2195 21.7743 13.7881 21.7743C15.3566 21.7717 16.6269 23.1209 16.6269 24.7836Z" fill="black"/>
</g>
<defs>
<clipPath id="clip0_243_585">
<rect width="204" height="46" fill="white" transform="translate(0.09375)"/>
</clipPath>
</defs>
</svg>
