<svg width="20" height="10" viewBox="0 0 20 10" fill="none" xmlns="http://www.w3.org/2000/svg">
<path d="M4.75 4.40625C4.625 4.03125 4.5 3.34375 4.5 3.34375H4.46875C4.46875 3.34375 4.34375 4.03125 4.25 4.40625L3.875 5.5625H5.09375L4.75 4.40625ZM19.25 0H10.5V10H19.25C19.6562 10 20 9.6875 20 9.25V0.75C20 0.34375 19.6562 0 19.25 0ZM18.5 3.75C18.5 3.96875 18.3125 4.125 18.125 4.125H17.75C17.5312 4.875 17.0625 5.625 16.4062 6.3125C16.6875 6.53125 16.9688 6.71875 17.25 6.875C17.4062 7 17.4688 7.21875 17.375 7.40625L17.125 7.8125C17 8 16.7812 8.0625 16.5938 7.96875C16.1875 7.71875 15.8438 7.46875 15.5 7.1875C15.1562 7.46875 14.7812 7.71875 14.375 7.96875C14.1875 8.0625 13.9688 8 13.875 7.8125L13.625 7.40625C13.5 7.21875 13.5625 7 13.75 6.875C14.0312 6.71875 14.3125 6.53125 14.5625 6.3125C14.3125 6.0625 14.0938 5.78125 13.9062 5.53125C13.7812 5.34375 13.8438 5.09375 14.0312 5L14.2188 4.875L14.4375 4.71875C14.625 4.625 14.8438 4.6875 14.9375 4.84375C15.0938 5.0625 15.2812 5.28125 15.5 5.5C15.9062 5.03125 16.25 4.59375 16.4375 4.125H12.875C12.6562 4.125 12.5 3.96875 12.5 3.75V3.25C12.5 3.0625 12.6562 2.875 12.875 2.875H14.875V2.375C14.875 2.1875 15.0312 2 15.25 2H15.75C15.9375 2 16.125 2.1875 16.125 2.375V2.875H18.125C18.3125 2.875 18.5 3.0625 18.5 3.25V3.75ZM0 0.75V9.25C0 9.6875 0.3125 10 0.75 10H9.5V0H0.75C0.3125 0 0 0.34375 0 0.75ZM1.8125 7.53125L3.625 2.21875C3.6875 2.09375 3.8125 1.96875 3.96875 1.96875H5C5.15625 1.96875 5.3125 2.09375 5.34375 2.21875L7.15625 7.53125C7.21875 7.75 7.0625 8 6.78125 8H6.0625C5.90625 8 5.75 7.90625 5.71875 7.75L5.4375 6.75H3.53125L3.25 7.75C3.21875 7.90625 3.0625 8 2.90625 8H2.1875C1.9375 8 1.75 7.75 1.8125 7.53125Z" fill="#C39958"/>
</svg>
