<svg width="7" height="15" viewBox="0 0 7 15" fill="none" xmlns="http://www.w3.org/2000/svg">
<path d="M6.62392 0.368164C6.66543 0.47767 6.74086 0.586554 6.7432 0.696683C6.75489 1.33941 6.74203 1.98214 6.75256 2.62486C6.75665 2.87561 6.65316 2.95276 6.43623 2.94903C6.05617 2.94281 5.67552 2.93596 5.29663 2.95463C4.80139 2.97889 4.63708 3.17239 4.6365 3.69193C4.63591 4.12746 4.63942 4.56238 4.64235 4.99791C4.64235 5.01658 4.65579 5.03462 4.67684 5.08875C5.2253 5.08875 5.7872 5.08813 6.34911 5.08875C6.73794 5.08938 6.78179 5.14413 6.73443 5.56473C6.66017 6.22239 6.57948 6.87943 6.51516 7.53896C6.49353 7.75984 6.40641 7.84881 6.20001 7.8457C5.69423 7.83823 5.18846 7.84321 4.63591 7.84321C4.63591 7.97885 4.63591 8.09769 4.63591 8.21653C4.63591 10.1242 4.63825 12.0318 4.63065 13.9395C4.63007 14.0826 4.55756 14.2251 4.51897 14.3682C3.64191 14.3682 2.76485 14.3682 1.88779 14.3682C1.84861 14.2257 1.77552 14.0826 1.77494 13.9401C1.76734 12.0219 1.76968 10.1036 1.76968 8.18542C1.76968 8.07404 1.76968 7.96329 1.76968 7.82268C1.31302 7.82268 0.886768 7.81334 0.460516 7.82641C0.204999 7.8345 0.117293 7.72437 0.121971 7.45807C0.133665 6.79481 0.135419 6.13093 0.121386 5.46767C0.115539 5.18768 0.196229 5.07382 0.471041 5.08502C0.916004 5.10369 1.36214 5.09 1.83984 5.09C1.83984 4.51136 1.89013 3.95823 1.83049 3.41941C1.66092 1.88632 2.75316 0.688594 4.18101 0.427273C4.25585 0.413584 4.32836 0.388074 4.40203 0.368164C5.14286 0.368164 5.8831 0.368164 6.62392 0.368164Z" fill="#517193"/>
</svg>
