<svg width="11" height="21" viewBox="0 0 11 21" fill="none" xmlns="http://www.w3.org/2000/svg">
<path d="M10.0163 0.761719C10.0756 0.918156 10.1834 1.0737 10.1867 1.23103C10.2034 2.14921 10.185 3.06739 10.2001 3.98558C10.2059 4.34378 10.0581 4.454 9.74818 4.44867C9.20524 4.43978 8.66146 4.43 8.12019 4.45667C7.41269 4.49133 7.17798 4.76776 7.17714 5.50995C7.17631 6.13215 7.18132 6.75345 7.18549 7.37565C7.18549 7.40231 7.20471 7.42809 7.23478 7.50542C8.01828 7.50542 8.821 7.50453 9.62372 7.50542C10.1792 7.50631 10.2418 7.58453 10.1742 8.18539C10.0681 9.1249 9.95283 10.0635 9.86095 11.0057C9.83004 11.3212 9.70558 11.4484 9.41072 11.4439C8.68819 11.4332 7.96566 11.4404 7.17631 11.4404C7.17631 11.6341 7.17631 11.8039 7.17631 11.9737C7.17631 14.6989 7.17965 17.4241 7.16879 20.1493C7.16795 20.3537 7.06438 20.5573 7.00925 20.7617C5.7563 20.7617 4.50336 20.7617 3.25041 20.7617C3.19445 20.5582 3.09003 20.3537 3.0892 20.1502C3.07834 17.4099 3.08168 14.6695 3.08168 11.9292C3.08168 11.7701 3.08168 11.6119 3.08168 11.411C2.42931 11.411 1.82038 11.3977 1.21145 11.4164C0.846427 11.4279 0.721133 11.2706 0.727815 10.8902C0.744521 9.94264 0.747027 8.99424 0.72698 8.04673C0.718627 7.64675 0.833898 7.48409 1.22649 7.50009C1.86215 7.52675 2.49948 7.5072 3.18192 7.5072C3.18192 6.68057 3.25375 5.89038 3.16855 5.12064C2.92632 2.93051 4.48665 1.21948 6.52644 0.846159C6.63336 0.826605 6.73694 0.790162 6.84219 0.761719C7.90051 0.761719 8.95799 0.761719 10.0163 0.761719Z" fill="#517193"/>
</svg>
