<svg width="56" height="56" viewBox="0 0 56 56" fill="none" xmlns="http://www.w3.org/2000/svg">
<mask id="mask0_713_2894" style="mask-type:alpha" maskUnits="userSpaceOnUse" x="0" y="0" width="56" height="56">
<rect width="56" height="56" fill="#C4C4C4"/>
</mask>
<g mask="url(#mask0_713_2894)">
<path d="M28 56C43.464 56 56 43.464 56 28C56 12.536 43.464 0 28 0C12.536 0 0 12.536 0 28C0 43.464 12.536 56 28 56Z" fill="url(#paint0_linear_713_2894)"/>
<path fill-rule="evenodd" clip-rule="evenodd" d="M14.4922 18.0062C14.4922 15.9738 16.1398 14.3262 18.1722 14.3262H38.0708C40.1032 14.3262 41.7508 15.9738 41.7508 18.0062V37.9048C41.7508 39.9372 40.1032 41.5848 38.0708 41.5848H18.1722C16.1398 41.5848 14.4922 39.9372 14.4922 37.9048V18.0062ZM18.1722 16.7823C17.4963 16.7823 16.9483 17.3303 16.9483 18.0062V37.9048C16.9483 38.5807 17.4963 39.1286 18.1722 39.1286H38.0708C38.7467 39.1286 39.2947 38.5807 39.2947 37.9048V18.0062C39.2947 17.3303 38.7467 16.7823 38.0708 16.7823H18.1722Z" fill="white"/>
<path fill-rule="evenodd" clip-rule="evenodd" d="M33.7564 12.2324C34.4346 12.2324 34.9845 12.7822 34.9845 13.4605V17.1841C34.9845 17.8623 34.4346 18.4122 33.7564 18.4122C33.0781 18.4122 32.5283 17.8623 32.5283 17.1841V13.4605C32.5283 12.7822 33.0781 12.2324 33.7564 12.2324Z" fill="white"/>
<path fill-rule="evenodd" clip-rule="evenodd" d="M22.4878 12.2324C23.1661 12.2324 23.7159 12.7822 23.7159 13.4605V17.1841C23.7159 17.8623 23.1661 18.4122 22.4878 18.4122C21.8096 18.4122 21.2598 17.8623 21.2598 17.1841V13.4605C21.2598 12.7822 21.8096 12.2324 22.4878 12.2324Z" fill="white"/>
<path d="M22.5233 23.2009C23.1176 23.2009 23.5993 22.7191 23.5993 22.1249C23.5993 21.5306 23.1176 21.0488 22.5233 21.0488C21.929 21.0488 21.4473 21.5306 21.4473 22.1249C21.4473 22.7191 21.929 23.2009 22.5233 23.2009Z" fill="white"/>
<path d="M28.161 23.2009C28.7553 23.2009 29.237 22.7191 29.237 22.1249C29.237 21.5306 28.7553 21.0488 28.161 21.0488C27.5667 21.0488 27.085 21.5306 27.085 22.1249C27.085 22.7191 27.5667 23.2009 28.161 23.2009Z" fill="white"/>
<path d="M33.7928 23.1989C34.3871 23.1989 34.8688 22.7172 34.8688 22.1229C34.8688 21.5286 34.3871 21.0469 33.7928 21.0469C33.1985 21.0469 32.7168 21.5286 32.7168 22.1229C32.7168 22.7172 33.1985 23.1989 33.7928 23.1989Z" fill="white"/>
<path d="M22.5233 29.0622C23.1176 29.0622 23.5993 28.5805 23.5993 27.9862C23.5993 27.3919 23.1176 26.9102 22.5233 26.9102C21.929 26.9102 21.4473 27.3919 21.4473 27.9862C21.4473 28.5805 21.929 29.0622 22.5233 29.0622Z" fill="white"/>
<path d="M28.161 29.0622C28.7553 29.0622 29.237 28.5805 29.237 27.9862C29.237 27.3919 28.7553 26.9102 28.161 26.9102C27.5667 26.9102 27.085 27.3919 27.085 27.9862C27.085 28.5805 27.5667 29.0622 28.161 29.0622Z" fill="white"/>
<path d="M33.7928 29.0622C34.3871 29.0622 34.8688 28.5805 34.8688 27.9862C34.8688 27.3919 34.3871 26.9102 33.7928 26.9102C33.1985 26.9102 32.7168 27.3919 32.7168 27.9862C32.7168 28.5805 33.1985 29.0622 33.7928 29.0622Z" fill="white"/>
<path d="M22.5233 34.9333C23.1176 34.9333 23.5993 34.4515 23.5993 33.8573C23.5993 33.263 23.1176 32.7812 22.5233 32.7812C21.929 32.7812 21.4473 33.263 21.4473 33.8573C21.4473 34.4515 21.929 34.9333 22.5233 34.9333Z" fill="white"/>
<path d="M28.161 34.9333C28.7553 34.9333 29.237 34.4515 29.237 33.8573C29.237 33.263 28.7553 32.7812 28.161 32.7812C27.5667 32.7812 27.085 33.263 27.085 33.8573C27.085 34.4515 27.5667 34.9333 28.161 34.9333Z" fill="white"/>
<path d="M33.7928 34.9333C34.3871 34.9333 34.8688 34.4515 34.8688 33.8573C34.8688 33.263 34.3871 32.7812 33.7928 32.7812C33.1985 32.7812 32.7168 33.263 32.7168 33.8573C32.7168 34.4515 33.1985 34.9333 33.7928 34.9333Z" fill="white"/>
</g>
<defs>
<linearGradient id="paint0_linear_713_2894" x1="-355.649" y1="56.0005" x2="56.0001" y2="0.000728681" gradientUnits="userSpaceOnUse">
<stop stop-color="#74E6FF"/>
<stop offset="1" stop-color="#5D9EFF"/>
</linearGradient>
</defs>
</svg>
