<svg width="80" height="80" viewBox="0 0 80 80" fill="none" xmlns="http://www.w3.org/2000/svg">
<mask id="mask0_551_36907" style="mask-type:alpha" maskUnits="userSpaceOnUse" x="0" y="0" width="80" height="80">
<rect width="80" height="80" fill="#C4C4C4"/>
</mask>
<g mask="url(#mask0_551_36907)">
<path d="M40 80C62.0914 80 80 62.0914 80 40C80 17.9086 62.0914 0 40 0C17.9086 0 0 17.9086 0 40C0 62.0914 17.9086 80 40 80Z" fill="url(#paint0_linear_551_36907)"/>
<path fill-rule="evenodd" clip-rule="evenodd" d="M39.6382 24.778C39.6382 22.0825 41.9141 19.4567 45.0181 20.0335C54.1822 21.7364 61.1466 29.7631 61.1466 39.4587C61.1466 41.725 60.7573 43.8948 60.0539 45.9159C59.0159 48.8983 55.606 49.5806 53.2594 48.2425L42.2006 41.9365C40.6163 41.0331 39.6382 39.3494 39.6382 37.5256V24.778ZM43.5673 23.7232C43.3214 23.9554 43.1382 24.3325 43.1382 24.778V37.5256C43.1382 38.0923 43.4421 38.6154 43.9343 38.8961L54.9931 45.2021C55.3811 45.4233 55.8007 45.451 56.1257 45.3518C56.4304 45.2588 56.6445 45.064 56.7484 44.7654C57.3272 43.1023 57.6466 41.3209 57.6466 39.4587C57.6466 31.4841 51.919 24.8757 44.3787 23.4746C44.0704 23.4173 43.7975 23.5058 43.5673 23.7232Z" fill="white"/>
<path d="M41.2801 58.8815C42.1195 58.8815 42.8 58.2011 42.8 57.3617C42.8 56.5223 42.1195 55.8418 41.2801 55.8418C40.4407 55.8418 39.7603 56.5223 39.7603 57.3617C39.7603 58.2011 40.4407 58.8815 41.2801 58.8815Z" fill="white"/>
<path d="M50.6746 56.2897C51.514 56.2897 52.1945 55.6093 52.1945 54.7699C52.1945 53.9305 51.514 53.25 50.6746 53.25C49.8352 53.25 49.1548 53.9305 49.1548 54.7699C49.1548 55.6093 49.8352 56.2897 50.6746 56.2897Z" fill="white"/>
<path d="M25.6395 49.9206C26.4789 49.9206 27.1594 49.2401 27.1594 48.4007C27.1594 47.5613 26.4789 46.8809 25.6395 46.8809C24.8001 46.8809 24.1196 47.5613 24.1196 48.4007C24.1196 49.2401 24.8001 49.9206 25.6395 49.9206Z" fill="white"/>
<path d="M23.2689 40.8737C24.1083 40.8737 24.7887 40.1932 24.7887 39.3538C24.7887 38.5144 24.1083 37.834 23.2689 37.834C22.4295 37.834 21.749 38.5144 21.749 39.3538C21.749 40.1932 22.4295 40.8737 23.2689 40.8737Z" fill="white"/>
<path d="M31.8787 56.2897C32.7181 56.2897 33.3986 55.6093 33.3986 54.7699C33.3986 53.9305 32.7181 53.25 31.8787 53.25C31.0394 53.25 30.3589 53.9305 30.3589 54.7699C30.3589 55.6093 31.0394 56.2897 31.8787 56.2897Z" fill="white"/>
<path d="M25.6395 31.8698C26.4789 31.8698 27.1594 31.1893 27.1594 30.3499C27.1594 29.5105 26.4789 28.8301 25.6395 28.8301C24.8001 28.8301 24.1196 29.5105 24.1196 30.3499C24.1196 31.1893 24.8001 31.8698 25.6395 31.8698Z" fill="white"/>
<path d="M31.8787 25.4557C32.7181 25.4557 33.3986 24.7753 33.3986 23.9359C33.3986 23.0965 32.7181 22.416 31.8787 22.416C31.0394 22.416 30.3589 23.0965 30.3589 23.9359C30.3589 24.7753 31.0394 25.4557 31.8787 25.4557Z" fill="white"/>
</g>
<defs>
<linearGradient id="paint0_linear_551_36907" x1="-2.21144e-05" y1="79.9998" x2="588.07" y2="-0.000158547" gradientUnits="userSpaceOnUse">
<stop stop-color="#74E6FF"/>
<stop offset="1" stop-color="#5D9EFF"/>
</linearGradient>
</defs>
</svg>
