<svg width="20" height="20" viewBox="0 0 20 20" fill="none" xmlns="http://www.w3.org/2000/svg">
<path fill-rule="evenodd" clip-rule="evenodd" d="M14.281 1.54475L5.4784 5.31866L1.40138 3.64378L10.1557 0.0474178C10.3096 -0.0158059 10.4822 -0.0158059 10.6362 0.0474178L14.281 1.54475ZM7.1123 5.9904L15.9176 2.21761L19.3889 3.64362L10.3942 7.33869L7.1123 5.9904ZM9.76289 8.44582L6.20074 6.98247V9.75317C6.20074 10.1023 5.91766 10.3854 5.56851 10.3854C5.21935 10.3854 4.93627 10.1023 4.93627 9.75317V6.46301L0.833008 4.77734V15.9074C0.833008 16.1638 0.987827 16.3948 1.22499 16.4922L9.76289 19.9997V8.44582ZM11.0283 19.9997V8.44582L19.9582 4.77734V15.9074C19.9582 16.1638 19.8034 16.3948 19.5662 16.4922L11.0283 19.9997Z" fill="url(#paint0_linear_569_6129)"/>
<defs>
<linearGradient id="paint0_linear_569_6129" x1="13.0518" y1="0" x2="13.0518" y2="19.9997" gradientUnits="userSpaceOnUse">
<stop stop-color="#74E6FF"/>
<stop offset="1" stop-color="#5D9EFF"/>
</linearGradient>
</defs>
</svg>
