<svg width="56" height="56" viewBox="0 0 56 56" fill="none" xmlns="http://www.w3.org/2000/svg">
<mask id="mask0_713_2858" style="mask-type:alpha" maskUnits="userSpaceOnUse" x="0" y="0" width="56" height="56">
<rect width="56" height="56" fill="#C4C4C4"/>
</mask>
<g mask="url(#mask0_713_2858)">
<path d="M28 56C43.464 56 56 43.464 56 28C56 12.536 43.464 0 28 0C12.536 0 0 12.536 0 28C0 43.464 12.536 56 28 56Z" fill="url(#paint0_linear_713_2858)"/>
<path d="M37.0237 32.2141C38.6232 33.1261 40.7114 32.5668 41.1769 30.7853C41.4404 29.7766 41.5824 28.7188 41.5824 27.6254C41.5824 21.7888 37.6261 16.8983 32.2668 15.4533C30.4923 14.9749 28.9766 16.5094 28.9766 18.3471V25.6923C28.9766 26.8875 29.6176 27.9909 30.6558 28.583L37.0237 32.2141Z" stroke="white" stroke-width="3" stroke-linecap="round" stroke-linejoin="round"/>
<path d="M28.9008 41.2216C29.4884 41.2216 29.9647 40.7452 29.9647 40.1577C29.9647 39.5701 29.4884 39.0938 28.9008 39.0938C28.3132 39.0938 27.8369 39.5701 27.8369 40.1577C27.8369 40.7452 28.3132 41.2216 28.9008 41.2216Z" fill="white"/>
<path d="M35.477 39.4051C36.0646 39.4051 36.5409 38.9288 36.5409 38.3412C36.5409 37.7537 36.0646 37.2773 35.477 37.2773C34.8894 37.2773 34.4131 37.7537 34.4131 38.3412C34.4131 38.9288 34.8894 39.4051 35.477 39.4051Z" fill="white"/>
<path d="M17.9516 34.9481C18.5392 34.9481 19.0155 34.4718 19.0155 33.8842C19.0155 33.2966 18.5392 32.8203 17.9516 32.8203C17.364 32.8203 16.8877 33.2966 16.8877 33.8842C16.8877 34.4718 17.364 34.9481 17.9516 34.9481Z" fill="white"/>
<path d="M16.2924 28.6141C16.88 28.6141 17.3563 28.1378 17.3563 27.5502C17.3563 26.9627 16.88 26.4863 16.2924 26.4863C15.7048 26.4863 15.2285 26.9627 15.2285 27.5502C15.2285 28.1378 15.7048 28.6141 16.2924 28.6141Z" fill="white"/>
<path d="M22.3188 39.4051C22.9064 39.4051 23.3827 38.9288 23.3827 38.3412C23.3827 37.7537 22.9064 37.2773 22.3188 37.2773C21.7312 37.2773 21.2549 37.7537 21.2549 38.3412C21.2549 38.9288 21.7312 39.4051 22.3188 39.4051Z" fill="white"/>
<path d="M17.9516 22.3114C18.5392 22.3114 19.0155 21.8351 19.0155 21.2475C19.0155 20.6599 18.5392 20.1836 17.9516 20.1836C17.364 20.1836 16.8877 20.6599 16.8877 21.2475C16.8877 21.8351 17.364 22.3114 17.9516 22.3114Z" fill="white"/>
<path d="M22.3188 17.8231C22.9064 17.8231 23.3827 17.3468 23.3827 16.7592C23.3827 16.1716 22.9064 15.6953 22.3188 15.6953C21.7312 15.6953 21.2549 16.1716 21.2549 16.7592C21.2549 17.3468 21.7312 17.8231 22.3188 17.8231Z" fill="white"/>
</g>
<defs>
<linearGradient id="paint0_linear_713_2858" x1="-1.54801e-05" y1="55.9998" x2="411.649" y2="-0.000110983" gradientUnits="userSpaceOnUse">
<stop stop-color="#74E6FF"/>
<stop offset="1" stop-color="#5D9EFF"/>
</linearGradient>
</defs>
</svg>
