<svg width="112" height="20" viewBox="0 0 112 20" fill="none" xmlns="http://www.w3.org/2000/svg">
<mask id="mask0_551_37416" style="mask-type:alpha" maskUnits="userSpaceOnUse" x="91" y="0" width="21" height="20">
<rect x="91.4297" width="20" height="20" fill="url(#paint0_linear_551_37416)"/>
</mask>
<g mask="url(#mask0_551_37416)">
<path d="M100.879 3.14964C101.036 2.66756 101.718 2.66756 101.874 3.14964L103.064 6.81183C103.268 7.43945 103.853 7.86438 104.513 7.86438H108.363C108.87 7.86438 109.081 8.51302 108.671 8.81096L105.556 11.0743C105.022 11.4622 104.799 12.1498 105.002 12.7774L106.192 16.4396C106.349 16.9216 105.797 17.3225 105.387 17.0246L102.272 14.7612C101.738 14.3733 101.015 14.3733 100.481 14.7612L97.366 17.0246C96.9559 17.3225 96.4041 16.9216 96.5608 16.4396L97.7507 12.7774C97.9546 12.1498 97.7312 11.4622 97.1973 11.0743L94.0821 8.81096C93.672 8.51302 93.8828 7.86438 94.3897 7.86438H98.2403C98.9002 7.86438 99.4851 7.43945 99.689 6.81183L100.879 3.14964Z" stroke="url(#paint1_linear_551_37416)"/>
<mask id="mask1_551_37416" style="mask-type:alpha" maskUnits="userSpaceOnUse" x="93" y="2" width="17" height="16">
<path d="M100.403 2.99513C100.71 2.05239 102.043 2.05239 102.35 2.99513L103.54 6.65732C103.677 7.07893 104.07 7.36438 104.513 7.36438H108.363C109.355 7.36438 109.767 8.63282 108.965 9.21547L105.85 11.4788C105.491 11.7394 105.341 12.2013 105.478 12.6229L106.668 16.2851C106.974 17.2278 105.895 18.0117 105.093 17.4291L101.978 15.1657C101.619 14.9052 101.134 14.9052 100.775 15.1657L97.6599 17.4291C96.8579 18.0117 95.7789 17.2278 96.0852 16.2851L97.2752 12.6229C97.4121 12.2013 97.2621 11.7394 96.9034 11.4788L93.7882 9.21547C92.9863 8.63282 93.3984 7.36438 94.3897 7.36438H98.2403C98.6836 7.36438 99.0765 7.07893 99.2135 6.65732L100.403 2.99513Z" fill="white"/>
</mask>
<g mask="url(#mask1_551_37416)">
<rect x="91.2422" y="0.0390625" width="10.2191" height="19.9004" fill="url(#paint2_linear_551_37416)"/>
</g>
</g>
<mask id="mask2_551_37416" style="mask-type:alpha" maskUnits="userSpaceOnUse" x="68" y="0" width="21" height="20">
<rect x="68.5742" width="20" height="20" fill="url(#paint3_linear_551_37416)"/>
</mask>
<g mask="url(#mask2_551_37416)">
<path opacity="0.3" d="M77.5323 2.99513C77.8386 2.05239 79.1723 2.05239 79.4787 2.99513L80.6686 6.65732C80.8056 7.07893 81.1984 7.36438 81.6418 7.36438H85.4924C86.4837 7.36438 86.8958 8.63282 86.0939 9.21547L82.9786 11.4788C82.62 11.7394 82.4699 12.2013 82.6069 12.6229L83.7968 16.2851C84.1031 17.2278 83.0241 18.0117 82.2222 17.4291L79.1069 15.1657C78.7483 14.9052 78.2627 14.9052 77.904 15.1657L74.7888 17.4291C73.9868 18.0117 72.9078 17.2278 73.2141 16.2851L74.4041 12.6229C74.5411 12.2013 74.391 11.7394 74.0323 11.4788L70.9171 9.21547C70.1152 8.63282 70.5273 7.36438 71.5186 7.36438H75.3692C75.8125 7.36438 76.2054 7.07893 76.3424 6.65732L77.5323 2.99513Z" fill="#517193"/>
<mask id="mask3_551_37416" style="mask-type:alpha" maskUnits="userSpaceOnUse" x="70" y="2" width="17" height="16">
<path d="M77.5323 2.99513C77.8386 2.05239 79.1723 2.05239 79.4787 2.99513L80.6686 6.65732C80.8056 7.07893 81.1984 7.36438 81.6418 7.36438H85.4924C86.4837 7.36438 86.8958 8.63282 86.0939 9.21547L82.9786 11.4788C82.62 11.7394 82.4699 12.2013 82.6069 12.6229L83.7968 16.2851C84.1031 17.2278 83.0241 18.0117 82.2222 17.4291L79.1069 15.1657C78.7483 14.9052 78.2627 14.9052 77.904 15.1657L74.7888 17.4291C73.9868 18.0117 72.9078 17.2278 73.2141 16.2851L74.4041 12.6229C74.5411 12.2013 74.391 11.7394 74.0323 11.4788L70.9171 9.21547C70.1152 8.63282 70.5273 7.36438 71.5186 7.36438H75.3692C75.8125 7.36438 76.2054 7.07893 76.3424 6.65732L77.5323 2.99513Z" fill="white"/>
</mask>
<g mask="url(#mask3_551_37416)">
<rect x="68.5703" width="20" height="20" fill="url(#paint4_linear_551_37416)"/>
</g>
</g>
<mask id="mask4_551_37416" style="mask-type:alpha" maskUnits="userSpaceOnUse" x="45" y="0" width="21" height="20">
<rect x="45.7109" width="20" height="20" fill="url(#paint5_linear_551_37416)"/>
</mask>
<g mask="url(#mask4_551_37416)">
<path opacity="0.3" d="M54.669 2.99513C54.9753 2.05239 56.3091 2.05239 56.6154 2.99513L57.8053 6.65732C57.9423 7.07893 58.3352 7.36438 58.7785 7.36438H62.6291C63.6204 7.36438 64.0325 8.63282 63.2306 9.21547L60.1153 11.4788C59.7567 11.7394 59.6066 12.2013 59.7436 12.6229L60.9335 16.2851C61.2398 17.2278 60.1608 18.0117 59.3589 17.4291L56.2437 15.1657C55.885 14.9052 55.3994 14.9052 55.0407 15.1657L51.9255 17.4291C51.1236 18.0117 50.0445 17.2278 50.3509 16.2851L51.5408 12.6229C51.6778 12.2013 51.5277 11.7394 51.1691 11.4788L48.0538 9.21547C47.2519 8.63282 47.664 7.36438 48.6553 7.36438H52.5059C52.9492 7.36438 53.3421 7.07893 53.4791 6.65732L54.669 2.99513Z" fill="#517193"/>
<mask id="mask5_551_37416" style="mask-type:alpha" maskUnits="userSpaceOnUse" x="47" y="2" width="17" height="16">
<path d="M54.669 2.99513C54.9753 2.05239 56.3091 2.05239 56.6154 2.99513L57.8053 6.65732C57.9423 7.07893 58.3352 7.36438 58.7785 7.36438H62.6291C63.6204 7.36438 64.0325 8.63282 63.2306 9.21547L60.1153 11.4788C59.7567 11.7394 59.6066 12.2013 59.7436 12.6229L60.9335 16.2851C61.2398 17.2278 60.1608 18.0117 59.3589 17.4291L56.2437 15.1657C55.885 14.9052 55.3994 14.9052 55.0407 15.1657L51.9255 17.4291C51.1236 18.0117 50.0445 17.2278 50.3509 16.2851L51.5408 12.6229C51.6778 12.2013 51.5277 11.7394 51.1691 11.4788L48.0538 9.21547C47.2519 8.63282 47.664 7.36438 48.6553 7.36438H52.5059C52.9492 7.36438 53.3421 7.07893 53.4791 6.65732L54.669 2.99513Z" fill="white"/>
</mask>
<g mask="url(#mask5_551_37416)">
<rect x="45.707" width="20" height="20" fill="url(#paint6_linear_551_37416)"/>
</g>
</g>
<mask id="mask6_551_37416" style="mask-type:alpha" maskUnits="userSpaceOnUse" x="22" y="0" width="21" height="20">
<rect x="22.8594" width="20" height="20" fill="url(#paint7_linear_551_37416)"/>
</mask>
<g mask="url(#mask6_551_37416)">
<path opacity="0.3" d="M31.8175 2.99513C32.1238 2.05239 33.4575 2.05239 33.7638 2.99513L34.9537 6.65732C35.0907 7.07893 35.4836 7.36438 35.9269 7.36438H39.7776C40.7688 7.36438 41.181 8.63282 40.379 9.21547L37.2638 11.4788C36.9051 11.7394 36.7551 12.2013 36.8921 12.6229L38.082 16.2851C38.3883 17.2278 37.3093 18.0117 36.5073 17.4291L33.3921 15.1657C33.0335 14.9052 32.5478 14.9052 32.1892 15.1657L29.0739 17.4291C28.272 18.0117 27.193 17.2278 27.4993 16.2851L28.6892 12.6229C28.8262 12.2013 28.6761 11.7394 28.3175 11.4788L25.2023 9.21547C24.4003 8.63282 24.8125 7.36438 25.8037 7.36438H29.6544C30.0977 7.36438 30.4906 7.07893 30.6275 6.65732L31.8175 2.99513Z" fill="#517193"/>
<mask id="mask7_551_37416" style="mask-type:alpha" maskUnits="userSpaceOnUse" x="24" y="2" width="17" height="16">
<path d="M31.8175 2.99513C32.1238 2.05239 33.4575 2.05239 33.7638 2.99513L34.9537 6.65732C35.0907 7.07893 35.4836 7.36438 35.9269 7.36438H39.7776C40.7688 7.36438 41.181 8.63282 40.379 9.21547L37.2638 11.4788C36.9051 11.7394 36.7551 12.2013 36.8921 12.6229L38.082 16.2851C38.3883 17.2278 37.3093 18.0117 36.5073 17.4291L33.3921 15.1657C33.0335 14.9052 32.5478 14.9052 32.1892 15.1657L29.0739 17.4291C28.272 18.0117 27.193 17.2278 27.4993 16.2851L28.6892 12.6229C28.8262 12.2013 28.6761 11.7394 28.3175 11.4788L25.2023 9.21547C24.4003 8.63282 24.8125 7.36438 25.8037 7.36438H29.6544C30.0977 7.36438 30.4906 7.07893 30.6275 6.65732L31.8175 2.99513Z" fill="white"/>
</mask>
<g mask="url(#mask7_551_37416)">
<rect x="22.8555" width="20" height="20" fill="url(#paint8_linear_551_37416)"/>
</g>
</g>
<mask id="mask8_551_37416" style="mask-type:alpha" maskUnits="userSpaceOnUse" x="0" y="0" width="20" height="20">
<rect width="20" height="20" fill="url(#paint9_linear_551_37416)"/>
</mask>
<g mask="url(#mask8_551_37416)">
<path opacity="0.3" d="M8.96199 2.99513C9.2683 2.05239 10.602 2.05239 10.9083 2.99513L12.0983 6.65732C12.2353 7.07893 12.6281 7.36438 13.0714 7.36438H16.9221C17.9133 7.36438 18.3255 8.63282 17.5235 9.21547L14.4083 11.4788C14.0497 11.7394 13.8996 12.2013 14.0366 12.6229L15.2265 16.2851C15.5328 17.2278 14.4538 18.0117 13.6519 17.4291L10.5366 15.1657C10.178 14.9052 9.69235 14.9052 9.33371 15.1657L6.21847 17.4291C5.41652 18.0117 4.33752 17.2278 4.64383 16.2851L5.83375 12.6229C5.97074 12.2013 5.82067 11.7394 5.46203 11.4788L2.34679 9.21547C1.54484 8.63282 1.95699 7.36438 2.94824 7.36438H6.7989C7.2422 7.36438 7.63508 7.07893 7.77207 6.65732L8.96199 2.99513Z" fill="#517193"/>
<mask id="mask9_551_37416" style="mask-type:alpha" maskUnits="userSpaceOnUse" x="1" y="2" width="17" height="16">
<path d="M8.96199 2.99513C9.2683 2.05239 10.602 2.05239 10.9083 2.99513L12.0983 6.65732C12.2353 7.07893 12.6281 7.36438 13.0714 7.36438H16.9221C17.9133 7.36438 18.3255 8.63282 17.5235 9.21547L14.4083 11.4788C14.0497 11.7394 13.8996 12.2013 14.0366 12.6229L15.2265 16.2851C15.5328 17.2278 14.4538 18.0117 13.6519 17.4291L10.5366 15.1657C10.178 14.9052 9.69235 14.9052 9.33371 15.1657L6.21847 17.4291C5.41652 18.0117 4.33752 17.2278 4.64383 16.2851L5.83375 12.6229C5.97074 12.2013 5.82067 11.7394 5.46203 11.4788L2.34679 9.21547C1.54484 8.63282 1.95699 7.36438 2.94824 7.36438H6.7989C7.2422 7.36438 7.63508 7.07893 7.77207 6.65732L8.96199 2.99513Z" fill="white"/>
</mask>
<g mask="url(#mask9_551_37416)">
<rect x="-0.00390625" width="20" height="20" fill="url(#paint10_linear_551_37416)"/>
</g>
</g>
<defs>
<linearGradient id="paint0_linear_551_37416" x1="101.43" y1="0" x2="101.43" y2="20" gradientUnits="userSpaceOnUse">
<stop stop-color="#FFD80A"/>
<stop offset="0.260417" stop-color="#FFB304"/>
<stop offset="1" stop-color="#FF9900"/>
</linearGradient>
<linearGradient id="paint1_linear_551_37416" x1="101.377" y1="1.66667" x2="101.377" y2="18.3333" gradientUnits="userSpaceOnUse">
<stop stop-color="#FFA902"/>
<stop offset="1" stop-color="#FFD108"/>
</linearGradient>
<linearGradient id="paint2_linear_551_37416" x1="96.3517" y1="0.0390625" x2="96.3517" y2="19.9394" gradientUnits="userSpaceOnUse">
<stop stop-color="#FF9900"/>
<stop offset="1" stop-color="#FFD80A"/>
</linearGradient>
<linearGradient id="paint3_linear_551_37416" x1="78.5742" y1="0" x2="78.5742" y2="20" gradientUnits="userSpaceOnUse">
<stop stop-color="#FFD80A"/>
<stop offset="0.260417" stop-color="#FFB304"/>
<stop offset="1" stop-color="#FF9900"/>
</linearGradient>
<linearGradient id="paint4_linear_551_37416" x1="78.5703" y1="0" x2="78.5703" y2="20" gradientUnits="userSpaceOnUse">
<stop stop-color="#FF9900"/>
<stop offset="1" stop-color="#FFD80A"/>
</linearGradient>
<linearGradient id="paint5_linear_551_37416" x1="55.7109" y1="0" x2="55.7109" y2="20" gradientUnits="userSpaceOnUse">
<stop stop-color="#FFD80A"/>
<stop offset="0.260417" stop-color="#FFB304"/>
<stop offset="1" stop-color="#FF9900"/>
</linearGradient>
<linearGradient id="paint6_linear_551_37416" x1="55.707" y1="0" x2="55.707" y2="20" gradientUnits="userSpaceOnUse">
<stop stop-color="#FF9900"/>
<stop offset="1" stop-color="#FFD80A"/>
</linearGradient>
<linearGradient id="paint7_linear_551_37416" x1="32.8594" y1="0" x2="32.8594" y2="20" gradientUnits="userSpaceOnUse">
<stop stop-color="#FFD80A"/>
<stop offset="0.260417" stop-color="#FFB304"/>
<stop offset="1" stop-color="#FF9900"/>
</linearGradient>
<linearGradient id="paint8_linear_551_37416" x1="32.8555" y1="0" x2="32.8555" y2="20" gradientUnits="userSpaceOnUse">
<stop stop-color="#FF9900"/>
<stop offset="1" stop-color="#FFD80A"/>
</linearGradient>
<linearGradient id="paint9_linear_551_37416" x1="10" y1="0" x2="10" y2="20" gradientUnits="userSpaceOnUse">
<stop stop-color="#FFD80A"/>
<stop offset="0.260417" stop-color="#FFB304"/>
<stop offset="1" stop-color="#FF9900"/>
</linearGradient>
<linearGradient id="paint10_linear_551_37416" x1="9.99609" y1="0" x2="9.99609" y2="20" gradientUnits="userSpaceOnUse">
<stop stop-color="#FF9900"/>
<stop offset="1" stop-color="#FFD80A"/>
</linearGradient>
</defs>
</svg>
