<svg width="16" height="16" viewBox="0 0 16 16" fill="none" xmlns="http://www.w3.org/2000/svg">
<g clip-path="url(#clip0_569_6145)">
<path d="M8 0C6.41775 0 4.87104 0.469192 3.55544 1.34824C2.23985 2.22729 1.21447 3.47672 0.608967 4.93853C0.00346629 6.40034 -0.15496 8.00887 0.153721 9.56072C0.462403 11.1126 1.22433 12.538 2.34315 13.6569C3.46197 14.7757 4.88743 15.5376 6.43928 15.8463C7.99113 16.155 9.59966 15.9965 11.0615 15.391C12.5233 14.7855 13.7727 13.7602 14.6518 12.4446C15.5308 11.129 16 9.58225 16 8C15.9977 5.87897 15.1541 3.84547 13.6543 2.34568C12.1545 0.845886 10.121 0.00229405 8 0V0ZM8 14.6667C6.68146 14.6667 5.39253 14.2757 4.2962 13.5431C3.19987 12.8106 2.34539 11.7694 1.84081 10.5512C1.33622 9.33305 1.2042 7.99261 1.46144 6.6994C1.71867 5.40619 2.35361 4.21831 3.28596 3.28596C4.21831 2.35361 5.4062 1.71867 6.6994 1.46143C7.99261 1.2042 9.33305 1.33622 10.5512 1.8408C11.7694 2.34539 12.8106 3.19987 13.5431 4.2962C14.2757 5.39253 14.6667 6.68146 14.6667 8C14.6647 9.76752 13.9617 11.4621 12.7119 12.7119C11.4621 13.9617 9.76752 14.6647 8 14.6667Z" fill="#517193"/>
<path d="M8.0013 6.66699H7.33464C7.15782 6.66699 6.98826 6.73723 6.86323 6.86225C6.73821 6.98728 6.66797 7.15685 6.66797 7.33366C6.66797 7.51047 6.73821 7.68004 6.86323 7.80506C6.98826 7.93009 7.15782 8.00033 7.33464 8.00033H8.0013V12.0003C8.0013 12.1771 8.07154 12.3467 8.19656 12.4717C8.32159 12.5968 8.49116 12.667 8.66797 12.667C8.84478 12.667 9.01435 12.5968 9.13937 12.4717C9.2644 12.3467 9.33464 12.1771 9.33464 12.0003V8.00033C9.33464 7.6467 9.19416 7.30757 8.94411 7.05752C8.69406 6.80747 8.35492 6.66699 8.0013 6.66699Z" fill="#517193"/>
<path d="M8 5.33301C8.55228 5.33301 9 4.88529 9 4.33301C9 3.78072 8.55228 3.33301 8 3.33301C7.44772 3.33301 7 3.78072 7 4.33301C7 4.88529 7.44772 5.33301 8 5.33301Z" fill="#517193"/>
</g>
<defs>
<clipPath id="clip0_569_6145">
<rect width="16" height="16" fill="white"/>
</clipPath>
</defs>
</svg>
