<svg width="80" height="80" viewBox="0 0 80 80" fill="none" xmlns="http://www.w3.org/2000/svg">
<mask id="mask0_551_36928" style="mask-type:alpha" maskUnits="userSpaceOnUse" x="0" y="0" width="80" height="80">
<rect width="80" height="80" fill="#C4C4C4"/>
</mask>
<g mask="url(#mask0_551_36928)">
<path d="M40 80C62.0914 80 80 62.0914 80 40C80 17.9086 62.0914 0 40 0C17.9086 0 0 17.9086 0 40C0 62.0914 17.9086 80 40 80Z" fill="url(#paint0_linear_551_36928)"/>
<path fill-rule="evenodd" clip-rule="evenodd" d="M20.7031 25.0286C20.7031 22.1252 23.0568 19.7715 25.9603 19.7715H54.3869C57.2903 19.7715 59.644 22.1252 59.644 25.0286V53.4552C59.644 56.3587 57.2903 58.7124 54.3869 58.7124H25.9603C23.0568 58.7124 20.7031 56.3587 20.7031 53.4552V25.0286ZM25.9603 23.2803C24.9947 23.2803 24.2119 24.063 24.2119 25.0286V53.4552C24.2119 54.4208 24.9947 55.2036 25.9603 55.2036H54.3869C55.3524 55.2036 56.1352 54.4208 56.1352 53.4552V25.0286C56.1352 24.063 55.3524 23.2803 54.3869 23.2803H25.9603Z" fill="white"/>
<path fill-rule="evenodd" clip-rule="evenodd" d="M47.0703 16.7812C48.0392 16.7812 48.8247 17.5667 48.8247 18.5356V23.8551C48.8247 24.824 48.0392 25.6095 47.0703 25.6095C46.1014 25.6095 45.3159 24.824 45.3159 23.8551V18.5356C45.3159 17.5667 46.1014 16.7812 47.0703 16.7812Z" fill="white"/>
<path fill-rule="evenodd" clip-rule="evenodd" d="M30.9731 16.7812C31.9421 16.7812 32.7275 17.5667 32.7275 18.5356V23.8551C32.7275 24.824 31.9421 25.6095 30.9731 25.6095C30.0042 25.6095 29.2188 24.824 29.2188 23.8551V18.5356C29.2188 17.5667 30.0042 16.7812 30.9731 16.7812Z" fill="white"/>
<path d="M33.6488 32.6152H36.1708V47.3268H33.2705V35.6836L30.4963 36.4613L29.7817 33.9813L33.6488 32.6152Z" fill="white"/>
<path d="M49.6575 47.3268H46.526L44.2562 44.1323L41.9654 47.3268H38.8339L42.68 41.9676L39.0021 36.8185H42.1335L44.2562 39.7819L46.3789 36.8185H49.4893L45.8114 41.9466L49.6575 47.3268Z" fill="white"/>
</g>
<defs>
<linearGradient id="paint0_linear_551_36928" x1="-254.737" y1="79.9996" x2="332.982" y2="-5.88942e-05" gradientUnits="userSpaceOnUse">
<stop stop-color="#74E6FF"/>
<stop offset="1" stop-color="#5D9EFF"/>
</linearGradient>
</defs>
</svg>
