<svg width="42" height="26" viewBox="0 0 42 26" fill="none" xmlns="http://www.w3.org/2000/svg">
<rect x="0.5" y="0.5" width="41" height="25" rx="12.5" fill="#F8F9FB" stroke="url(#paint0_linear_1312_2752)"/>
<path d="M14.9137 8.34415L13.5765 10.9408L10.5524 11.3508C10.0175 11.4289 9.81182 12.0537 10.2027 12.4246L12.3628 14.4356L11.8485 17.2665C11.7662 17.7741 12.3422 18.1646 12.8153 17.9303L15.5103 16.5832L18.1847 17.9303C18.6578 18.1646 19.2338 17.7741 19.1515 17.2665L18.6372 14.4356L20.7973 12.4246C21.1882 12.0537 20.9825 11.4289 20.4476 11.3508L17.4441 10.9408L16.0863 8.34415C15.86 7.8951 15.1606 7.87557 14.9137 8.34415Z" fill="url(#paint1_linear_1312_2752)"/>
<path d="M32.882 14.738V16.236H31.762V18H30.138V16.236H25.322V14.738L28.696 8.2H30.446L27.072 14.738H30.138V12.19H31.762V14.738H32.882Z" fill="#F7A624"/>
<defs>
<linearGradient id="paint0_linear_1312_2752" x1="21" y1="0" x2="21" y2="26" gradientUnits="userSpaceOnUse">
<stop stop-color="#ECF0F4"/>
<stop offset="1" stop-color="#F8F9FB"/>
</linearGradient>
<linearGradient id="paint1_linear_1312_2752" x1="15.5" y1="8" x2="15.5" y2="18" gradientUnits="userSpaceOnUse">
<stop stop-color="#F9CD17"/>
<stop offset="1" stop-color="#F7B233"/>
</linearGradient>
</defs>
</svg>
