<svg width="20" height="20" viewBox="0 0 20 20" fill="none" xmlns="http://www.w3.org/2000/svg">
<path d="M10 20C15.5228 20 20 15.5228 20 10C20 4.47715 15.5228 0 10 0C4.47715 0 0 4.47715 0 10C0 15.5228 4.47715 20 10 20Z" fill="url(#paint0_linear_551_37822)"/>
<path fill-rule="evenodd" clip-rule="evenodd" d="M14.4283 6.20527C15.0081 6.58931 15.1744 7.3824 14.7997 7.97671C13.8792 9.4369 12.5628 10.8054 11.5202 11.7816C10.9913 12.2767 10.5171 12.6856 10.1739 12.9715C10.0021 13.1147 9.8625 13.2275 9.76462 13.3056C9.71567 13.3446 9.6771 13.375 9.6501 13.3961L9.61839 13.4208L9.60931 13.4279L9.60555 13.4308C9.60555 13.4308 9.68739 13.3669 9.63425 13.4085L9.60488 13.4313L8.86471 14L5.51269 11.49C4.95526 11.0725 4.83351 10.271 5.24074 9.69963C5.64798 9.12828 6.43 9.00348 6.98743 9.4209L8.82133 10.7942C9.10563 10.552 9.45477 10.2449 9.83413 9.8897C10.822 8.96476 11.953 7.77086 12.7 6.58599C13.0747 5.99169 13.8485 5.82124 14.4283 6.20527Z" fill="white"/>
<defs>
<linearGradient id="paint0_linear_551_37822" x1="0" y1="0" x2="20" y2="20" gradientUnits="userSpaceOnUse">
<stop stop-color="#74E6FF"/>
<stop offset="1" stop-color="#5D9EFF"/>
</linearGradient>
</defs>
</svg>
