<svg width="41" height="40" viewBox="0 0 41 40" fill="none" xmlns="http://www.w3.org/2000/svg">
<path d="M35.457 19.0918H40.0025" stroke="#517193" stroke-width="1.5"/>
<path d="M5.45703 19.0918L0.911577 19.0918" stroke="#517193" stroke-width="1.5"/>
<path d="M20.9102 4.54492L20.9102 -0.000532627" stroke="#517193" stroke-width="1.5"/>
<path d="M28.1055 6.50586L30.3782 2.56938" stroke="#517193" stroke-width="1.5"/>
<path d="M7.64062 11.9902L3.70415 9.71751" stroke="#517193" stroke-width="1.5"/>
<path d="M33.5859 26.9688L37.5224 29.2415" stroke="#517193" stroke-width="1.5"/>
<path d="M33.5859 11.9902L37.5224 9.71751" stroke="#517193" stroke-width="1.5"/>
<path d="M7.64062 26.9688L3.70415 29.2415" stroke="#517193" stroke-width="1.5"/>
<path d="M13.125 6.50586L10.8523 2.56938" stroke="#517193" stroke-width="1.5"/>
<path d="M12.7822 12.2236C8.54139 16.4645 8.54139 23.3402 12.7822 27.5811C12.7822 27.5811 15.9155 30.0377 15.9155 33.6575L25.0064 33.6575C25.0064 30.0377 28.1396 27.5811 28.1396 27.5811C32.3805 23.3402 32.3805 16.4645 28.1397 12.2236C23.8988 7.9828 17.0231 7.9828 12.7822 12.2236Z" stroke="#517193" stroke-width="1.5"/>
<path d="M24.6531 35.8054L16.4797 35.8054" stroke="#517193" stroke-width="1.5"/>
<path d="M25.0089 33.6367C25.0089 36.1471 22.9738 38.1822 20.4634 38.1822C17.953 38.1822 15.918 36.1471 15.918 33.6367" stroke="#517193" stroke-width="1.5"/>
</svg>
