<svg width="24" height="24" viewBox="0 0 24 24" fill="none" xmlns="http://www.w3.org/2000/svg">
<path fill-rule="evenodd" clip-rule="evenodd" d="M13.5161 0.512414L15.0404 1.65342C15.4573 1.96547 15.8961 2.12517 16.4161 2.15412L18.3171 2.25987C19.4555 2.32317 20.38 3.09892 20.64 4.20902L21.0743 6.06288C21.1931 6.56988 21.4266 6.97428 21.8063 7.33063L23.1946 8.63368C24.0259 9.41389 24.2355 10.6024 23.7212 11.6199L22.8622 13.3192C22.6273 13.7839 22.5462 14.2438 22.608 14.7608L22.834 16.6515C22.9693 17.7835 22.3659 18.8287 21.3179 19.2775L19.5676 20.0271C19.0889 20.2321 18.7312 20.5323 18.4462 20.9681L17.404 22.5616C16.78 23.5157 15.6459 23.9285 14.5546 23.5987L12.732 23.0479C12.2336 22.8972 11.7666 22.8972 11.2681 23.0479L9.44549 23.5987C8.35419 23.9285 7.22009 23.5157 6.59609 22.5616L5.55393 20.9681C5.26888 20.5323 4.91118 20.2321 4.43253 20.0271L2.68213 19.2774C1.63412 18.8286 1.03067 17.7834 1.16597 16.6514L1.39197 14.7607C1.45377 14.2437 1.37267 13.7838 1.13777 13.3191L0.27882 11.6198C-0.235482 10.6024 -0.0259311 9.41384 0.805371 8.63358L2.19372 7.33053C2.57343 6.97418 2.80688 6.56978 2.92563 6.06278L3.35993 4.20892C3.61993 3.09887 4.54448 2.32312 5.68283 2.25977L7.58389 2.15402C8.10384 2.12512 8.54264 1.96537 8.95954 1.65332L10.4838 0.512314C11.3965 -0.170788 12.6034 -0.170788 13.5161 0.512414ZM11.0276 12.5084L9.37339 10.8542C8.94464 10.4254 8.24919 10.4254 7.82049 10.8542C7.39174 11.2829 7.39174 11.9783 7.82049 12.4071L10.2535 14.8401C10.6823 15.2688 11.3777 15.2689 11.8064 14.8401C13.273 13.3735 14.7229 11.8905 16.1826 10.4173C16.6083 9.98769 16.6069 9.29449 16.1779 8.86784C15.7488 8.44108 15.0536 8.44228 14.6275 8.87264L11.0276 12.5084ZM11.9999 3.67807C9.74189 3.67807 7.69754 4.59337 6.21773 6.07318C4.73793 7.55303 3.82263 9.59734 3.82263 11.8554C3.82263 14.1134 4.73793 16.1578 6.21773 17.6376C7.69754 19.1174 9.74189 20.0327 11.9999 20.0327C14.258 20.0327 16.3024 19.1174 17.7822 17.6376C19.262 16.1578 20.1773 14.1134 20.1773 11.8554C20.1773 9.59734 19.262 7.55298 17.7822 6.07318C16.3024 4.59337 14.258 3.67807 11.9999 3.67807ZM17.2165 6.63883C15.8815 5.30383 14.0372 4.47807 11.9999 4.47807C9.96274 4.47807 8.11839 5.30383 6.78339 6.63883C5.44838 7.97383 4.62263 9.81819 4.62263 11.8554C4.62263 13.8926 5.44838 15.737 6.78339 17.072C8.11839 18.407 9.96274 19.2327 11.9999 19.2327C14.0372 19.2327 15.8815 18.407 17.2165 17.072C18.5515 15.737 19.3772 13.8926 19.3772 11.8554C19.3773 9.81819 18.5515 7.97383 17.2165 6.63883Z" fill="#517193"/>
</svg>
