<svg width="21" height="20" viewBox="0 0 21 20" fill="none" xmlns="http://www.w3.org/2000/svg">
<path d="M10 3.91655C12.4606 3.91655 14.7338 5.35357 15.7908 7.577L15.9268 7.86378L17.9578 6.89918L17.8213 6.61179C16.3942 3.60804 13.324 1.66699 10 1.66699C6.31349 1.66699 3.07573 3.95626 1.85165 7.39328L0 6.96868L1.74052 12.6354L5.77841 8.29583L4.06828 7.90288C5.0385 5.50441 7.37929 3.91655 10 3.91655Z" fill="url(#paint0_linear_569_6118)"/>
<path d="M14.2234 12.3493L15.9335 12.7422C14.9633 15.1408 12.6225 16.7286 10.0018 16.7286C7.54119 16.7286 5.26803 15.2916 4.21094 13.0681L4.075 12.7813L2.04395 13.746L2.1805 14.0334C3.60759 17.0371 6.67775 18.9781 10.0018 18.9781C13.6883 18.9781 16.9261 16.6889 18.1501 13.2519L20.0018 13.6764L18.2613 8.00977L14.2234 12.3493Z" fill="url(#paint1_linear_569_6118)"/>
<defs>
<linearGradient id="paint0_linear_569_6118" x1="11.473" y1="1.66699" x2="11.473" y2="12.6354" gradientUnits="userSpaceOnUse">
<stop stop-color="#74E6FF"/>
<stop offset="1" stop-color="#5D9EFF"/>
</linearGradient>
<linearGradient id="paint1_linear_569_6118" x1="13.517" y1="8.00977" x2="13.517" y2="18.9781" gradientUnits="userSpaceOnUse">
<stop stop-color="#74E6FF"/>
<stop offset="1" stop-color="#5D9EFF"/>
</linearGradient>
</defs>
</svg>
