<svg width="80" height="80" viewBox="0 0 80 80" fill="none" xmlns="http://www.w3.org/2000/svg">
<mask id="mask0_551_36944" style="mask-type:alpha" maskUnits="userSpaceOnUse" x="0" y="0" width="80" height="80">
<rect width="80" height="80" fill="#C4C4C4"/>
</mask>
<g mask="url(#mask0_551_36944)">
<path d="M40 80C62.0914 80 80 62.0914 80 40C80 17.9086 62.0914 0 40 0C17.9086 0 0 17.9086 0 40C0 62.0914 17.9086 80 40 80Z" fill="url(#paint0_linear_551_36944)"/>
<path fill-rule="evenodd" clip-rule="evenodd" d="M20.7031 25.7278C20.7031 22.8244 23.0568 20.4707 25.9603 20.4707H54.3869C57.2903 20.4707 59.644 22.8244 59.644 25.7278V54.1544C59.644 57.0579 57.2903 59.4116 54.3869 59.4116H25.9603C23.0568 59.4116 20.7031 57.0579 20.7031 54.1544V25.7278ZM25.9603 23.9795C24.9947 23.9795 24.2119 24.7622 24.2119 25.7278V54.1544C24.2119 55.12 24.9947 55.9028 25.9603 55.9028H54.3869C55.3524 55.9028 56.1352 55.12 56.1352 54.1544V25.7278C56.1352 24.7622 55.3524 23.9795 54.3869 23.9795H25.9603Z" fill="white"/>
<path fill-rule="evenodd" clip-rule="evenodd" d="M48.2226 17.4805C49.1916 17.4805 49.977 18.2659 49.977 19.2349V24.5543C49.977 25.5232 49.1916 26.3087 48.2226 26.3087C47.2537 26.3087 46.4683 25.5232 46.4683 24.5543V19.2349C46.4683 18.2659 47.2537 17.4805 48.2226 17.4805Z" fill="white"/>
<path fill-rule="evenodd" clip-rule="evenodd" d="M32.1255 17.4805C33.0944 17.4805 33.8799 18.2659 33.8799 19.2349V24.5543C33.8799 25.5232 33.0944 26.3087 32.1255 26.3087C31.1566 26.3087 30.3711 25.5232 30.3711 24.5543V19.2349C30.3711 18.2659 31.1566 17.4805 32.1255 17.4805Z" fill="white"/>
<path d="M32.1758 33.1486C33.0248 33.1486 33.713 32.4604 33.713 31.6114C33.713 30.7624 33.0248 30.0742 32.1758 30.0742C31.3269 30.0742 30.6387 30.7624 30.6387 31.6114C30.6387 32.4604 31.3269 33.1486 32.1758 33.1486Z" fill="white"/>
<path d="M40.2305 33.1486C41.0795 33.1486 41.7677 32.4604 41.7677 31.6114C41.7677 30.7624 41.0795 30.0742 40.2305 30.0742C39.3816 30.0742 38.6934 30.7624 38.6934 31.6114C38.6934 32.4604 39.3816 33.1486 40.2305 33.1486Z" fill="white"/>
<path d="M48.2755 33.1486C49.1244 33.1486 49.8126 32.4604 49.8126 31.6114C49.8126 30.7624 49.1244 30.0742 48.2755 30.0742C47.4265 30.0742 46.7383 30.7624 46.7383 31.6114C46.7383 32.4604 47.4265 33.1486 48.2755 33.1486Z" fill="white"/>
<path d="M32.1758 41.5216C33.0248 41.5216 33.713 40.8334 33.713 39.9844C33.713 39.1355 33.0248 38.4473 32.1758 38.4473C31.3269 38.4473 30.6387 39.1355 30.6387 39.9844C30.6387 40.8334 31.3269 41.5216 32.1758 41.5216Z" fill="white"/>
<path d="M40.2305 41.5216C41.0795 41.5216 41.7677 40.8334 41.7677 39.9844C41.7677 39.1355 41.0795 38.4473 40.2305 38.4473C39.3816 38.4473 38.6934 39.1355 38.6934 39.9844C38.6934 40.8334 39.3816 41.5216 40.2305 41.5216Z" fill="white"/>
<path d="M48.2755 41.5216C49.1244 41.5216 49.8126 40.8334 49.8126 39.9844C49.8126 39.1355 49.1244 38.4473 48.2755 38.4473C47.4265 38.4473 46.7383 39.1355 46.7383 39.9844C46.7383 40.8334 47.4265 41.5216 48.2755 41.5216Z" fill="white"/>
<path d="M32.1758 49.9083C33.0248 49.9083 33.713 49.2201 33.713 48.3712C33.713 47.5222 33.0248 46.834 32.1758 46.834C31.3269 46.834 30.6387 47.5222 30.6387 48.3712C30.6387 49.2201 31.3269 49.9083 32.1758 49.9083Z" fill="white"/>
<path d="M40.2305 49.9083C41.0795 49.9083 41.7677 49.2201 41.7677 48.3712C41.7677 47.5222 41.0795 46.834 40.2305 46.834C39.3816 46.834 38.6934 47.5222 38.6934 48.3712C38.6934 49.2201 39.3816 49.9083 40.2305 49.9083Z" fill="white"/>
<path d="M48.2755 49.9083C49.1244 49.9083 49.8126 49.2201 49.8126 48.3712C49.8126 47.5222 49.1244 46.834 48.2755 46.834C47.4265 46.834 46.7383 47.5222 46.7383 48.3712C46.7383 49.2201 47.4265 49.9083 48.2755 49.9083Z" fill="white"/>
</g>
<defs>
<linearGradient id="paint0_linear_551_36944" x1="-508.07" y1="80.0007" x2="80.0001" y2="0.00104097" gradientUnits="userSpaceOnUse">
<stop stop-color="#74E6FF"/>
<stop offset="1" stop-color="#5D9EFF"/>
</linearGradient>
</defs>
</svg>
