<svg width="15" height="13" viewBox="0 0 15 13" fill="none" xmlns="http://www.w3.org/2000/svg">
<path d="M7.00086 4.11719C3.59315 4.11719 0.828125 7.80333 0.828125 12.3501H13.1736C13.1736 7.80333 10.4086 4.11719 7.00086 4.11719ZM7.00086 9.61903C6.00943 9.61903 5.20733 8.81813 5.20733 7.8282C5.20733 6.83826 6.00943 6.03736 7.00086 6.03736C7.99228 6.03736 8.79438 6.83826 8.79438 7.8282C8.79438 8.81316 7.99228 9.61903 7.00086 9.61903Z" fill="white"/>
<path d="M7 0C9.10737 0 11.0961 0.433436 12.8927 1.16081C15.2204 2.10242 13.469 4.8774 11.4294 3.69666C10.1017 2.92943 8.72884 2.27679 7 2.27679" fill="white"/>
<path d="M7.00137 0C4.894 0 2.90527 0.433436 1.10864 1.16081C-1.21908 2.10242 0.532359 4.8774 2.57193 3.69666C3.89964 2.92943 5.27254 2.27679 7.00137 2.27679" fill="white"/>
</svg>
