<svg width="56" height="56" viewBox="0 0 56 56" fill="none" xmlns="http://www.w3.org/2000/svg">
<mask id="mask0_713_2878" style="mask-type:alpha" maskUnits="userSpaceOnUse" x="0" y="0" width="56" height="56">
<rect width="56" height="56" fill="#C4C4C4"/>
</mask>
<g mask="url(#mask0_713_2878)">
<path d="M28 56C43.464 56 56 43.464 56 28C56 12.536 43.464 0 28 0C12.536 0 0 12.536 0 28C0 43.464 12.536 56 28 56Z" fill="url(#paint0_linear_713_2878)"/>
<path fill-rule="evenodd" clip-rule="evenodd" d="M14.4922 17.5179C14.4922 15.4855 16.1398 13.8379 18.1722 13.8379H38.0708C40.1032 13.8379 41.7508 15.4855 41.7508 17.5179V37.4165C41.7508 39.4489 40.1032 41.0965 38.0708 41.0965H18.1722C16.1398 41.0965 14.4922 39.4489 14.4922 37.4165V17.5179ZM18.1722 16.294C17.4963 16.294 16.9483 16.842 16.9483 17.5179V37.4165C16.9483 38.0924 17.4963 38.6404 18.1722 38.6404H38.0708C38.7467 38.6404 39.2947 38.0924 39.2947 37.4165V17.5179C39.2947 16.842 38.7467 16.294 38.0708 16.294H18.1722Z" fill="white"/>
<path fill-rule="evenodd" clip-rule="evenodd" d="M32.9488 11.7441C33.627 11.7441 34.1768 12.294 34.1768 12.9722V16.6958C34.1768 17.3741 33.627 17.9239 32.9488 17.9239C32.2705 17.9239 31.7207 17.3741 31.7207 16.6958V12.9722C31.7207 12.294 32.2705 11.7441 32.9488 11.7441Z" fill="white"/>
<path fill-rule="evenodd" clip-rule="evenodd" d="M21.6812 11.7441C22.3594 11.7441 22.9093 12.294 22.9093 12.9722V16.6958C22.9093 17.3741 22.3594 17.9239 21.6812 17.9239C21.003 17.9239 20.4531 17.3741 20.4531 16.6958V12.9722C20.4531 12.294 21.003 11.7441 21.6812 11.7441Z" fill="white"/>
<path d="M23.5526 22.8301H25.318V33.1282H23.2878V24.978L21.3459 25.5223L20.8457 23.7863L23.5526 22.8301Z" fill="white"/>
<path d="M34.7587 33.1282H32.5667L30.9778 30.892L29.3743 33.1282H27.1823L29.8745 29.3767L27.2999 25.7724H29.492L30.9778 27.8467L32.4637 25.7724H34.641L32.0665 29.362L34.7587 33.1282Z" fill="white"/>
</g>
<defs>
<linearGradient id="paint0_linear_713_2878" x1="-178.316" y1="55.9997" x2="233.088" y2="-4.12259e-05" gradientUnits="userSpaceOnUse">
<stop stop-color="#74E6FF"/>
<stop offset="1" stop-color="#5D9EFF"/>
</linearGradient>
</defs>
</svg>
