<svg width="14" height="14" viewBox="0 0 14 14" fill="none" xmlns="http://www.w3.org/2000/svg">
<path d="M5.11836 13.1604C5.11045 13.1562 5.10286 13.1509 5.09447 13.1481C5.06065 13.137 5.0457 13.1122 5.04478 13.0784C5.04348 13.0314 5.0431 12.9843 5.0431 12.9373C5.04294 12.6784 5.04299 12.4195 5.04304 12.1606C5.04348 10.6651 5.04418 9.16955 5.04429 7.67406C5.04434 6.76877 5.04348 5.86353 5.04304 4.95824C5.04304 4.9383 5.04277 4.91842 5.04326 4.89848C5.04532 4.81438 5.06531 4.7939 5.15076 4.79265C5.2302 4.79145 5.30969 4.79227 5.38913 4.79238C5.8406 4.79298 6.29201 4.79385 6.74349 4.79406C6.96738 4.79417 7.19133 4.79292 7.41522 4.79232C7.42963 4.79227 7.44416 4.79232 7.45852 4.7933C7.52213 4.79781 7.54174 4.81737 7.54223 4.88126C7.54299 4.9754 7.5418 5.06955 7.5418 5.1637C7.54185 5.39545 7.54207 5.62716 7.54256 5.85891C7.54256 5.8707 7.54537 5.88254 7.54863 5.90857C7.56857 5.882 7.58152 5.86608 7.593 5.84919C7.7309 5.64644 7.88707 5.45956 8.07086 5.29669C8.44008 4.96959 8.86625 4.75641 9.3485 4.65597C9.53782 4.61652 9.72958 4.59827 9.92259 4.5867C10.1198 4.57486 10.3162 4.5823 10.5119 4.60294C10.8848 4.64228 11.249 4.72061 11.5924 4.87751C12.0869 5.1034 12.4464 5.46869 12.6896 5.95262C12.8251 6.2223 12.9134 6.5086 12.9825 6.80136C13.0308 7.00579 13.0599 7.21332 13.0788 7.42231C13.0846 7.48718 13.0882 7.55226 13.0905 7.61734C13.1025 7.95188 13.1134 8.28648 13.1255 8.62102C13.1265 8.64932 13.1335 8.67741 13.1377 8.70566C13.1377 10.1761 13.1377 11.6465 13.1377 13.1169C13.1185 13.1409 13.0939 13.1518 13.063 13.1507C13.0396 13.1498 13.0161 13.1514 12.9927 13.1514C12.4427 13.1514 11.8927 13.1513 11.3426 13.1518C11.3161 13.1518 11.2895 13.1574 11.2629 13.1604C11.0425 13.1604 10.8222 13.1604 10.6019 13.1604C10.541 13.1437 10.5204 13.1014 10.5257 13.0416C10.5275 13.0218 10.5259 13.0018 10.5259 12.9819C10.5265 12.5438 10.5281 12.1057 10.5277 11.6675C10.527 10.6844 10.5259 9.7014 10.5237 8.71832C10.5233 8.5429 10.5201 8.36759 10.4978 8.19293C10.4696 7.97269 10.4172 7.75951 10.3261 7.55677C10.169 7.20696 9.90634 6.98852 9.52742 6.918C9.27985 6.87193 9.03119 6.87372 8.78492 6.92354C8.37549 7.00639 8.0707 7.23048 7.8869 7.61169C7.77404 7.84573 7.71687 8.0952 7.68528 8.35113C7.65824 8.57044 7.65114 8.79106 7.6512 9.012C7.65147 9.9933 7.65131 10.9745 7.65131 11.9558C7.65131 12.3053 7.65131 12.6547 7.65125 13.0041C7.65125 13.0331 7.65228 13.0622 7.6499 13.091C7.64665 13.1307 7.63207 13.1451 7.59235 13.1489C7.56548 13.1514 7.53828 13.1514 7.51118 13.1514C6.9586 13.1516 6.40607 13.1514 5.85349 13.1519C5.82873 13.1519 5.80402 13.1575 5.77926 13.1605C5.55905 13.1604 5.33873 13.1604 5.11836 13.1604Z" fill="#517193"/>
<path d="M0.902088 13.1602C0.841346 13.1421 0.828125 13.099 0.828125 13.0395C0.829317 10.3252 0.829317 7.6108 0.829534 4.89644C0.829534 4.88557 0.829263 4.87471 0.829805 4.86384C0.832677 4.81028 0.844922 4.79756 0.898566 4.79479C0.925604 4.79344 0.952751 4.79371 0.97979 4.79371C1.60471 4.79365 2.22957 4.79376 2.85449 4.7936C3.00258 4.79354 3.15067 4.79246 3.29876 4.79202C3.31859 4.79197 3.33853 4.79181 3.35831 4.79344C3.41786 4.79827 3.44094 4.82201 3.445 4.88275C3.44647 4.90437 3.44549 4.92621 3.44549 4.94794C3.44544 7.24399 3.44538 9.54009 3.44533 11.8361C3.44533 12.22 3.44544 12.6039 3.44549 12.9878C3.44549 13.0041 3.44452 13.0205 3.44565 13.0367C3.44966 13.0948 3.43173 13.1395 3.37294 13.1602C3.17424 13.1602 2.9756 13.1602 2.7769 13.1602C2.75761 13.1572 2.73832 13.1517 2.71897 13.1516C2.33133 13.1511 1.94364 13.1511 1.556 13.1516C1.53671 13.1516 1.51742 13.1572 1.49807 13.1602C1.29943 13.1602 1.10079 13.1602 0.902088 13.1602Z" fill="#517193"/>
<path d="M2.20242 0.631836C2.24463 0.639279 2.28652 0.649003 2.329 0.653892C2.99244 0.730601 3.48531 1.23524 3.6107 1.84309C3.76659 2.59866 3.34167 3.34875 2.61168 3.58729C1.81527 3.84763 1.01251 3.44366 0.726361 2.71085C0.674831 2.57889 0.643349 2.44204 0.631374 2.30047C0.629044 2.2726 0.616961 2.2456 0.609375 2.21816C0.609375 2.1747 0.609375 2.13124 0.609375 2.08778C0.616853 2.06225 0.62899 2.03715 0.631157 2.01118C0.647413 1.8143 0.69813 1.62677 0.790462 1.45281C1.03554 0.991313 1.41847 0.725712 1.93529 0.654273C1.97761 0.648405 2.01949 0.639387 2.06154 0.631836C2.10852 0.631836 2.15544 0.631836 2.20242 0.631836Z" fill="#517193"/>
</svg>
