<svg width="19" height="19" viewBox="0 0 19 19" fill="none" xmlns="http://www.w3.org/2000/svg">
<path d="M7.00614 18.6077C6.99484 18.6018 6.984 18.5942 6.972 18.5902C6.9237 18.5743 6.90234 18.5389 6.90102 18.4907C6.89916 18.4235 6.89862 18.3563 6.89862 18.289C6.89839 17.9192 6.89847 17.5493 6.89854 17.1795C6.89916 15.0431 6.90017 12.9066 6.90033 10.7701C6.9004 9.47686 6.89916 8.18367 6.89854 6.89039C6.89854 6.86191 6.89816 6.83351 6.89885 6.80502C6.9018 6.68489 6.93036 6.65563 7.05243 6.65384C7.16591 6.65213 7.27947 6.6533 7.39295 6.65345C8.03791 6.65431 8.68279 6.65555 9.32775 6.65586C9.6476 6.65601 9.96752 6.65423 10.2874 6.65338C10.308 6.6533 10.3287 6.65338 10.3492 6.65477C10.4401 6.66121 10.4681 6.68915 10.4688 6.78042C10.4699 6.91492 10.4682 7.04941 10.4682 7.18391C10.4683 7.51499 10.4686 7.84599 10.4693 8.17707C10.4693 8.19391 10.4733 8.21083 10.4779 8.24801C10.5064 8.21005 10.5249 8.18732 10.5413 8.16318C10.7383 7.87354 10.9614 7.60657 11.224 7.3739C11.7515 6.90661 12.3603 6.60208 13.0492 6.45858C13.3197 6.40223 13.5936 6.37616 13.8693 6.35963C14.1511 6.34271 14.4317 6.35334 14.7111 6.38283C15.2439 6.43902 15.7642 6.55093 16.2548 6.77507C16.9611 7.09776 17.4748 7.61961 17.8221 8.31095C18.0157 8.6962 18.1419 9.1052 18.2407 9.52343C18.3097 9.81547 18.3512 10.1119 18.3782 10.4105C18.3865 10.5032 18.3916 10.5961 18.395 10.6891C18.412 11.167 18.4276 11.645 18.4449 12.1229C18.4464 12.1634 18.4563 12.2035 18.4624 12.2439C18.4624 14.3445 18.4624 16.4451 18.4624 18.5457C18.435 18.5799 18.3998 18.5955 18.3556 18.5939C18.3222 18.5926 18.2887 18.5949 18.2552 18.5949C17.4695 18.595 16.6837 18.5948 15.8979 18.5955C15.86 18.5955 15.822 18.6035 15.7841 18.6078C15.4693 18.6078 15.1545 18.6078 14.8397 18.6078C14.7527 18.5839 14.7234 18.5235 14.731 18.4381C14.7334 18.4098 14.7312 18.3812 14.7312 18.3528C14.7321 17.7268 14.7343 17.101 14.7338 16.4751C14.7328 15.0707 14.7312 13.6663 14.728 12.2619C14.7275 12.0113 14.7229 11.7609 14.691 11.5114C14.6508 11.1968 14.5759 10.8922 14.4458 10.6026C14.2214 10.1029 13.8461 9.79079 13.3048 9.69006C12.9511 9.62424 12.5959 9.6268 12.2441 9.69797C11.6592 9.81633 11.2238 10.1365 10.9612 10.681C10.8 11.0154 10.7183 11.3718 10.6732 11.7374C10.6345 12.0507 10.6244 12.3659 10.6245 12.6815C10.6249 14.0833 10.6246 15.4851 10.6246 16.887C10.6246 17.3861 10.6246 17.8853 10.6246 18.3845C10.6246 18.4259 10.626 18.4675 10.6226 18.5086C10.618 18.5654 10.5972 18.586 10.5404 18.5913C10.502 18.595 10.4632 18.595 10.4245 18.595C9.63506 18.5951 8.84573 18.595 8.05633 18.5957C8.02095 18.5957 7.98566 18.6037 7.95028 18.6079C7.6357 18.6077 7.32096 18.6077 7.00614 18.6077Z" fill="#517193"/>
<path d="M0.980661 18.6069C0.893887 18.5811 0.875 18.5194 0.875 18.4345C0.876703 14.5569 0.876703 10.6792 0.877013 6.80155C0.877013 6.78603 0.876626 6.77051 0.8774 6.75499C0.881502 6.67847 0.898996 6.6603 0.97563 6.65635C1.01426 6.65441 1.05304 6.65479 1.09166 6.65479C1.9844 6.65472 2.87707 6.65487 3.76981 6.65464C3.98136 6.65456 4.19292 6.65301 4.40447 6.65239C4.43281 6.65231 4.46129 6.65208 4.48955 6.65441C4.57462 6.66131 4.60759 6.69523 4.6134 6.782C4.61549 6.81288 4.61409 6.84408 4.61409 6.87513C4.61402 10.1552 4.61394 13.4353 4.61386 16.7154C4.61386 17.2638 4.61402 17.8123 4.61409 18.3606C4.61409 18.3839 4.6127 18.4073 4.61433 18.4305C4.62005 18.5135 4.59443 18.5773 4.51045 18.6069C4.22659 18.6069 3.94282 18.6069 3.65896 18.6069C3.63141 18.6026 3.60385 18.5947 3.57621 18.5946C3.02244 18.5939 2.46859 18.5939 1.91482 18.5946C1.88726 18.5946 1.8597 18.6026 1.83207 18.6069C1.54829 18.6069 1.26451 18.6069 0.980661 18.6069Z" fill="#517193"/>
<path d="M2.83828 0.707031C2.89858 0.717664 2.95842 0.731556 3.01911 0.73854C3.96688 0.848124 4.67098 1.56903 4.8501 2.4374C5.07281 3.51679 4.46578 4.58833 3.42294 4.92911C2.28521 5.30102 1.13841 4.72392 0.729623 3.67705C0.656008 3.48854 0.611035 3.29304 0.593927 3.09079C0.590599 3.05098 0.573337 3.01241 0.5625 2.97321C0.5625 2.91113 0.5625 2.84904 0.5625 2.78695C0.573182 2.75047 0.590522 2.71462 0.593618 2.67752C0.61684 2.39627 0.689294 2.12836 0.821196 1.87986C1.17131 1.22057 1.71835 0.84114 2.45666 0.739084C2.51712 0.730702 2.57695 0.717819 2.63702 0.707031C2.70413 0.707031 2.77117 0.707031 2.83828 0.707031Z" fill="#517193"/>
</svg>
