<svg width="20" height="20" viewBox="0 0 20 20" fill="none" xmlns="http://www.w3.org/2000/svg">
<path fill-rule="evenodd" clip-rule="evenodd" d="M10.0708 0.761719C7.47999 0.761719 7.15513 0.7727 6.13764 0.819125C5.12227 0.865437 4.42881 1.02671 3.82202 1.26255C3.19471 1.5063 2.66272 1.83249 2.13235 2.36282C1.60202 2.89319 1.27583 3.42518 1.03208 4.05249C0.796245 4.65928 0.634968 5.35274 0.588657 6.36811C0.542231 7.3856 0.53125 7.71046 0.53125 10.3013C0.53125 12.892 0.542231 13.2169 0.588657 14.2344C0.634968 15.2497 0.796245 15.9432 1.03208 16.55C1.27583 17.1773 1.60202 17.7093 2.13235 18.2397C2.66272 18.77 3.19471 19.0962 3.82202 19.34C4.42881 19.5758 5.12227 19.737 6.13764 19.7834C7.15513 19.8298 7.47999 19.8408 10.0708 19.8408C12.6616 19.8408 12.9864 19.8298 14.0039 19.7834C15.0193 19.737 15.7127 19.5758 16.3195 19.34C16.9468 19.0962 17.4788 18.77 18.0092 18.2397C18.5395 17.7093 18.8657 17.1773 19.1095 16.55C19.3453 15.9432 19.5066 15.2497 19.5529 14.2344C19.5993 13.2169 19.6103 12.892 19.6103 10.3013C19.6103 7.71046 19.5993 7.3856 19.5529 6.36811C19.5066 5.35274 19.3453 4.65928 19.1095 4.05249C18.8657 3.42518 18.5395 2.89319 18.0092 2.36282C17.4788 1.83249 16.9468 1.5063 16.3195 1.26255C15.7127 1.02671 15.0193 0.865437 14.0039 0.819125C12.9864 0.7727 12.6616 0.761719 10.0708 0.761719ZM10.0074 6.02333C7.68198 6.02333 5.79688 7.90843 5.79688 10.2339C5.79688 12.5593 7.68198 14.4444 10.0074 14.4444C12.3328 14.4444 14.2179 12.5593 14.2179 10.2339C14.2179 7.90843 12.3328 6.02333 10.0074 6.02333ZM16.8425 5.23378C16.8425 5.96048 16.2534 6.54955 15.5267 6.54955C14.8001 6.54955 14.2109 5.96048 14.2109 5.23378C14.2109 4.50708 14.8001 3.91797 15.5267 3.91797C16.2534 3.91797 16.8425 4.50708 16.8425 5.23378Z" fill="#517193"/>
</svg>
