<svg width="14" height="14" viewBox="0 0 14 14" fill="none" xmlns="http://www.w3.org/2000/svg">
<path fill-rule="evenodd" clip-rule="evenodd" d="M7.16205 0.369141C5.3485 0.369141 5.12109 0.376828 4.40885 0.409325C3.69809 0.441743 3.21266 0.554637 2.78792 0.719723C2.3488 0.890348 1.9764 1.11868 1.60515 1.48991C1.23391 1.86117 1.00558 2.23357 0.834957 2.67268C0.669871 3.09743 0.556978 3.58285 0.52456 4.29361C0.492062 5.00586 0.484375 5.23326 0.484375 7.04682C0.484375 8.86035 0.492062 9.08775 0.52456 9.8C0.556978 10.5108 0.669871 10.9962 0.834957 11.4209C1.00558 11.86 1.23391 12.2324 1.60515 12.6037C1.9764 12.9749 2.3488 13.2033 2.78792 13.3739C3.21266 13.539 3.69809 13.6519 4.40885 13.6843C5.12109 13.7168 5.3485 13.7245 7.16205 13.7245C8.97558 13.7245 9.20299 13.7168 9.91523 13.6843C10.626 13.6519 11.1114 13.539 11.5362 13.3739C11.9753 13.2033 12.3477 12.9749 12.7189 12.6037C13.0902 12.2324 13.3185 11.86 13.4891 11.4209C13.6542 10.9962 13.7671 10.5108 13.7995 9.8C13.832 9.08775 13.8397 8.86035 13.8397 7.04682C13.8397 5.23326 13.832 5.00586 13.7995 4.29361C13.7671 3.58285 13.6542 3.09743 13.4891 2.67268C13.3185 2.23357 13.0902 1.86117 12.7189 1.48991C12.3477 1.11868 11.9753 0.890348 11.5362 0.719723C11.1114 0.554637 10.626 0.441743 9.91523 0.409325C9.20299 0.376828 8.97558 0.369141 7.16205 0.369141ZM7.11535 4.05273C5.48754 4.05273 4.16797 5.37231 4.16797 7.00011C4.16797 8.6279 5.48754 9.94747 7.11535 9.94747C8.74313 9.94747 10.0627 8.6279 10.0627 7.00011C10.0627 5.37231 8.74313 4.05273 7.11535 4.05273ZM11.9007 3.50017C11.9007 4.00886 11.4883 4.42121 10.9796 4.42121C10.471 4.42121 10.0586 4.00886 10.0586 3.50017C10.0586 2.99148 10.471 2.5791 10.9796 2.5791C11.4883 2.5791 11.9007 2.99148 11.9007 3.50017Z" fill="#517193"/>
</svg>
