<svg width="17" height="17" viewBox="0 0 17 17" fill="none" xmlns="http://www.w3.org/2000/svg">
<g clip-path="url(#clip0_514_4941)">
<path d="M14.8877 0.5H5.80462C5.3775 0.501621 4.96835 0.672009 4.66633 0.974025C4.36432 1.27604 4.19393 1.6852 4.19231 2.11231V4.19231H2.11231C1.6852 4.19393 1.27604 4.36432 0.974025 4.66633C0.672009 4.96835 0.501621 5.3775 0.5 5.80462V14.8877C0.501621 15.3148 0.672009 15.724 0.974025 16.026C1.27604 16.328 1.6852 16.4984 2.11231 16.5H11.1954C11.6225 16.4984 12.0317 16.328 12.3337 16.026C12.6357 15.724 12.8061 15.3148 12.8077 14.8877V12.8077H14.8877C15.3148 12.8061 15.724 12.6357 16.026 12.3337C16.328 12.0317 16.4984 11.6225 16.5 11.1954V2.11231C16.4984 1.6852 16.328 1.27604 16.026 0.974025C15.724 0.672009 15.3148 0.501621 14.8877 0.5ZM11.5769 14.8877C11.5769 14.9889 11.5367 15.0859 11.4652 15.1575C11.3936 15.229 11.2966 15.2692 11.1954 15.2692H2.11231C2.01112 15.2692 1.91407 15.229 1.84252 15.1575C1.77097 15.0859 1.73077 14.9889 1.73077 14.8877V5.80462C1.73077 5.70343 1.77097 5.60638 1.84252 5.53483C1.91407 5.46327 2.01112 5.42308 2.11231 5.42308H11.1954C11.2966 5.42308 11.3936 5.46327 11.4652 5.53483C11.5367 5.60638 11.5769 5.70343 11.5769 5.80462V14.8877ZM15.2692 11.1954C15.2692 11.2966 15.229 11.3936 15.1575 11.4652C15.0859 11.5367 14.9889 11.5769 14.8877 11.5769H12.8077V5.80462C12.8061 5.3775 12.6357 4.96835 12.3337 4.66633C12.0317 4.36432 11.6225 4.19393 11.1954 4.19231H5.42308V2.11231C5.42308 2.01112 5.46327 1.91407 5.53483 1.84252C5.60638 1.77097 5.70343 1.73077 5.80462 1.73077H14.8877C14.9889 1.73077 15.0859 1.77097 15.1575 1.84252C15.229 1.91407 15.2692 2.01112 15.2692 2.11231V11.1954Z" fill="#859F95"/>
</g>
<defs>
<clipPath id="clip0_514_4941">
<rect width="16" height="16" fill="white" transform="translate(0.5 0.5)"/>
</clipPath>
</defs>
</svg>
