<svg width="24" height="24" viewBox="0 0 24 24" fill="none" xmlns="http://www.w3.org/2000/svg">
<path d="M20.9408 9.49726C20.5837 9.12835 20.4192 8.6255 20.492 8.1156L20.5578 7.65034C20.7552 6.25694 19.8247 4.97397 18.4383 4.73194L17.9754 4.6497C17.4702 4.56041 17.0402 4.25024 16.8006 3.79673L16.5797 3.38318C15.9194 2.14015 14.4132 1.64905 13.149 2.26939L12.7261 2.47382C12.2655 2.6994 11.7345 2.6994 11.2739 2.47382L10.8533 2.26704C9.58914 1.64905 8.08295 2.1378 7.42266 3.38083L7.20179 3.79439C6.95976 4.24789 6.5321 4.56041 6.02691 4.64735L5.564 4.72959C4.17764 4.97162 3.24714 6.25459 3.44452 7.648L3.51031 8.11325C3.58315 8.62315 3.41867 9.126 3.06151 9.49491L2.73489 9.83092C1.75504 10.8413 1.75504 12.4274 2.73489 13.4378L3.06151 13.7762C3.41867 14.1451 3.58315 14.6479 3.51031 15.1578L3.44452 15.6231C3.24714 17.0165 4.17764 18.2995 5.564 18.5415L6.02691 18.6237C6.5321 18.713 6.96211 19.0232 7.20179 19.4767L7.42266 19.8903C7.89027 20.7691 8.77848 21.2719 9.70898 21.2719C10.092 21.2719 10.4844 21.185 10.8533 21.004L11.2739 20.802C11.7345 20.5764 12.2655 20.5764 12.7261 20.802L13.1467 21.0087C14.4109 21.6267 15.9171 21.138 16.5773 19.895L16.7982 19.4814C17.0402 19.0279 17.4679 18.7154 17.9731 18.6284L18.436 18.5462C19.8224 18.3042 20.7529 17.0212 20.5555 15.6278L20.4897 15.1625C20.4168 14.6526 20.5813 14.1498 20.9385 13.7809L21.2651 13.4449C22.245 12.4345 22.245 10.8484 21.2651 9.83797L20.9408 9.49726ZM20.5907 12.7893L20.2641 13.1253C19.7049 13.7033 19.4464 14.4952 19.5592 15.2918L19.625 15.757C19.7519 16.6452 19.1574 17.463 18.2739 17.618L17.811 17.7003C17.0167 17.8389 16.3447 18.3277 15.9687 19.0396L15.7479 19.4532C15.3273 20.2451 14.3662 20.5599 13.5602 20.1652L13.1396 19.9584C12.4159 19.6036 11.5841 19.6036 10.8604 19.9584L10.4398 20.1652C9.63379 20.5599 8.67274 20.2474 8.25213 19.4532L8.03125 19.0396C7.65294 18.3277 6.98091 17.8389 6.18904 17.7003L5.72614 17.618C4.84262 17.463 4.24813 16.6452 4.37502 15.757L4.44082 15.2918C4.5536 14.4929 4.29748 13.7033 3.73589 13.1253L3.40927 12.7869C2.78423 12.1407 2.78423 11.1327 3.40927 10.4865L3.73589 10.1505C4.29513 9.57245 4.5536 8.78058 4.44082 7.98401L4.37502 7.51876C4.24813 6.63055 4.84262 5.81283 5.72614 5.65775L6.18904 5.57551C6.98326 5.43687 7.65529 4.94812 8.03125 4.23614L8.25213 3.82258C8.55055 3.26099 9.11684 2.94142 9.70898 2.94142C9.95336 2.94142 10.2024 2.99547 10.4398 3.1106L10.8604 3.31738C11.5841 3.6722 12.4159 3.6722 13.1396 3.31738L13.5602 3.1106C14.3662 2.71584 15.3273 3.02836 15.7479 3.82258L15.9687 4.23614C16.3471 4.94812 17.0191 5.43687 17.811 5.57551L18.2739 5.65775C19.1574 5.81283 19.7519 6.63055 19.625 7.51876L19.5592 7.98401C19.4464 8.78293 19.7025 9.57245 20.2641 10.1505L20.5907 10.4889C21.2158 11.1327 21.2158 12.1431 20.5907 12.7893Z" fill="#C49959"/>
<path d="M15.7394 7.89942C15.5561 7.71614 15.2577 7.71614 15.0744 7.89942L8.26246 14.7114C8.07918 14.8947 8.07918 15.1931 8.26246 15.3764C8.3541 15.468 8.47394 15.515 8.59378 15.515C8.71362 15.515 8.83345 15.468 8.92509 15.3764L15.7371 8.56441C15.9227 8.38112 15.9227 8.08271 15.7394 7.89942Z" fill="#C49959"/>
<path d="M10.0891 10.3949C10.6013 10.3949 11.1112 10.1999 11.5013 9.80984C12.2791 9.03207 12.2791 7.7632 11.5013 6.98543C10.7235 6.20766 9.45466 6.20766 8.67689 6.98543C8.29858 7.36139 8.0918 7.86424 8.0918 8.39763C8.0918 8.93103 8.29858 9.43388 8.67689 9.80984C9.06695 10.1999 9.57685 10.3949 10.0891 10.3949ZM9.34187 7.65041C9.54865 7.44363 9.81887 7.34024 10.0891 7.34024C10.3593 7.34024 10.6295 7.44363 10.8363 7.65041C11.2475 8.06162 11.2475 8.73365 10.8363 9.14486C10.4228 9.55607 9.75308 9.55607 9.34187 9.14486C9.14214 8.94513 9.0317 8.67961 9.0317 8.39763C9.0317 8.11566 9.14214 7.85014 9.34187 7.65041Z" fill="#C49959"/>
<path d="M12.4974 13.466C11.7196 14.2437 11.7196 15.5126 12.4974 16.2904C12.8875 16.6804 13.3974 16.8755 13.9096 16.8755C14.4218 16.8755 14.9317 16.6804 15.3218 16.2904C15.7001 15.9121 15.9069 15.4116 15.9069 14.8782C15.9069 14.3448 15.7001 13.8419 15.3218 13.466C14.544 12.6858 13.2775 12.6858 12.4974 13.466ZM14.6568 15.6254C14.2456 16.0366 13.5736 16.0366 13.1624 15.6254C12.7512 15.2142 12.7512 14.5421 13.1624 14.1309C13.3692 13.9242 13.6394 13.8208 13.9096 13.8208C14.1798 13.8208 14.45 13.9242 14.6568 14.1309C14.8566 14.3307 14.967 14.5962 14.967 14.8782C14.967 15.1601 14.8566 15.4257 14.6568 15.6254Z" fill="#C49959"/>
</svg>
