<svg width="19" height="20" viewBox="0 0 19 20" fill="none" xmlns="http://www.w3.org/2000/svg">
<path d="M14.4143 0C12.4666 0 10.8483 1.4373 10.5642 3.30693H0.46218L0 4.25702L6.99971 13.1783V17.9605C6.99971 18.4373 6.6119 18.8251 6.13519 18.8251H3.23123V20H11.9431V18.8251H9.03916C8.56245 18.8251 8.17464 18.4373 8.17464 17.9605V13.1783L12.7108 7.39688C13.2386 7.65419 13.8184 7.78875 14.4144 7.78875C16.5617 7.78875 18.3088 6.04175 18.3088 3.89436C18.3088 1.74697 16.5617 0 14.4143 0ZM13.5045 4.48186L11.8218 6.62655C11.4279 6.36442 10.9801 6.22441 10.511 6.22441C9.7816 6.22441 9.10288 6.56122 8.60028 7.17242L8.5874 7.18805C8.31184 7.52314 7.95548 7.70768 7.58396 7.70768C7.21245 7.70768 6.85613 7.52314 6.58088 7.18844L6.56792 7.1727C6.06505 6.56118 5.38641 6.22441 4.65701 6.22441C4.18958 6.22441 3.74326 6.36336 3.35032 6.62377L1.66978 4.48186H13.5045ZM11.0915 7.55729L7.58717 12.0237L4.08086 7.55479C4.26176 7.45323 4.45715 7.3993 4.65705 7.3993C5.02852 7.3993 5.38488 7.58385 5.66068 7.91917L5.67309 7.93429C6.17596 8.5458 6.8546 8.88258 7.584 8.88258C8.3134 8.88258 8.99204 8.5458 9.49523 7.9339L9.50753 7.9189C9.78309 7.58381 10.1394 7.39926 10.511 7.39926C10.7124 7.39934 10.9093 7.45402 11.0915 7.55729ZM14.4143 6.61382C14.085 6.61382 13.7629 6.55484 13.4603 6.4415L15.1743 4.25698L14.7121 3.30689H11.7595C12.0289 2.08895 13.1166 1.17493 14.4143 1.17493C15.9138 1.17493 17.1338 2.39487 17.1338 3.8944C17.1338 5.39393 15.9139 6.61382 14.4143 6.61382Z" fill="#C49959"/>
</svg>
