<svg width="27" height="27" viewBox="0 0 27 27" fill="none" xmlns="http://www.w3.org/2000/svg">
<path d="M18.33 18.48L20.57 16.24C20.8717 15.9421 21.2534 15.7381 21.6688 15.6529C22.0842 15.5677 22.5154 15.6049 22.91 15.76L25.64 16.85C26.0388 17.0119 26.3808 17.2882 26.6228 17.6441C26.8648 18.0001 26.9961 18.4197 27 18.85V23.85C26.9977 24.1428 26.9361 24.4321 26.8191 24.7005C26.702 24.9688 26.5318 25.2107 26.3188 25.4116C26.1058 25.6125 25.8544 25.7682 25.5796 25.8693C25.3048 25.9704 25.0124 26.0149 24.72 26C5.59001 24.81 1.73001 8.61004 1.00001 2.41004C0.966125 2.10558 0.997086 1.79739 1.09086 1.50575C1.18463 1.21411 1.33909 0.945633 1.54408 0.717977C1.74906 0.49032 1.99993 0.308646 2.28017 0.184905C2.56041 0.0611637 2.86367 -0.00183916 3.17001 4.0869e-05H8.00001C8.43102 0.00131666 8.85179 0.131508 9.20821 0.37387C9.56462 0.616232 9.84038 0.959681 10 1.36004L11.09 4.09004C11.2503 4.48311 11.2912 4.91468 11.2076 5.33085C11.124 5.74702 10.9196 6.12934 10.62 6.43004L8.38001 8.67004C8.38001 8.67004 9.67001 17.4 18.33 18.48Z" fill="black"/>
</svg>
