<svg width="91" height="94" viewBox="0 0 91 94" fill="none" xmlns="http://www.w3.org/2000/svg">
<g id="Aciety.svg" clip-path="url(#clip0_2296_6106)">
<g id="Clip path group">
<mask id="mask0_2296_6106" style="mask-type:luminance" maskUnits="userSpaceOnUse" x="-1" y="0" width="92" height="94">
<g id="clip0_11330_48636">
<path id="Vector" d="M90.1353 0H-0.709961V94H90.1353V0Z" fill="white"/>
</g>
</mask>
<g mask="url(#mask0_2296_6106)">
<g id="Group">
<path id="Vector_2" d="M3.9698 23.4885L45.1484 -0.00292969L86.3269 23.4885L86.3049 23.5422H86.4951V70.3947H86.1949L86.2375 70.4985L45.1037 93.9994L3.9698 70.4985L4.01284 70.3944H3.83008V23.5425H3.99216L3.9698 23.4885Z" fill="#32303D"/>
<path id="Vector_3" d="M7.65934 25.4325L45.132 3.88095L82.6041 25.4325L82.5842 25.4816H82.7574V68.4658H82.4841L82.5232 68.5612L45.0912 90.122L7.65934 68.561L7.69852 68.4656H7.53223V25.4822H7.67949L7.65934 25.4325Z" fill="#95CE21"/>
<path id="Vector_4" d="M11.0978 27.3596L45.1344 7.78439L79.1713 27.3596L79.1529 27.4047H79.3097V37.0373H10.9824V27.4047H11.1166L11.0978 27.3596ZM11.0978 65.9346L45.1344 85.5101L79.1713 65.9346L79.1529 65.8895H79.3097V56.2569H10.9824V65.8895H11.1166L11.0978 65.9346Z" fill="#32303D"/>
<path id="Vector_5" d="M49.3463 17.4501L45.159 13.0928L42.1039 16.2721L38.5967 19.9218L40.2185 21.6094L41.1046 19.1564H42.7839L41.6499 22.2676C40.8093 22.1211 40.2006 21.9045 40.2006 21.6094V22.5523C40.2006 23.0042 42.2367 23.4745 45.161 23.4745C48.0833 23.4745 50.1215 23.0042 50.1215 22.5523V21.6094C50.1215 21.9045 49.5148 22.119 48.6762 22.2676L47.9327 20.1384H49.5921L50.1195 21.6094L51.7234 19.9218L49.3463 17.4501ZM47.8097 22.3893C47.3022 22.445 46.7649 22.4842 46.2515 22.5069L45.161 19.2348L44.6138 20.8646L44.0508 22.5069C43.5433 22.4842 43.0119 22.445 42.5103 22.3893L44.4612 17.0375H45.8946L46.535 18.8427L47.8097 22.3893Z" fill="white"/>
<path id="Vector_6" d="M37.2114 30.6436L36.8149 29.2303H34.8542L34.4576 30.6436H33.2324L35.0802 24.6976H36.5513L38.4188 30.6436H37.2114ZM36.5513 28.172L36.1924 26.8763C36.1726 26.8371 36.1547 26.738 36.1171 26.6411C36.0794 26.5235 36.0596 26.4059 36.0219 26.2677C35.9843 26.1294 35.9466 25.9933 35.9268 25.855C35.8891 25.7168 35.8693 25.5992 35.8514 25.5022C35.8316 25.5621 35.8316 25.6404 35.8138 25.7189C35.7939 25.7973 35.7761 25.8963 35.7562 25.9747C35.7364 26.0737 35.7186 26.1521 35.6809 26.2491C35.6611 26.3481 35.6432 26.4265 35.6055 26.5049C35.5857 26.5833 35.5679 26.6617 35.5481 26.7216C35.5283 26.7813 35.5104 26.8206 35.5104 26.8598L35.1555 28.1513L36.5513 28.172ZM40.8693 30.722C40.5482 30.722 40.2666 30.6828 40.0208 30.5837C39.7749 30.4847 39.5489 30.3486 39.3804 30.1711C39.2099 29.9751 39.0592 29.7399 38.966 29.4449C38.8709 29.1499 38.8154 28.7971 38.8154 28.3844C38.8154 27.9326 38.8728 27.5592 38.966 27.2455C39.0612 26.9505 39.1921 26.6968 39.3804 26.5193C39.5509 26.3419 39.7769 26.2057 40.0208 26.1274C40.2666 26.049 40.5482 26.0097 40.8515 26.0097C41.0775 26.0097 41.3035 26.0304 41.5117 26.0882C41.7377 26.148 41.9459 26.2264 42.1342 26.3234L41.7952 27.2662C41.6247 27.1878 41.4562 27.128 41.3055 27.0703C41.1548 27.0104 41.0042 26.9918 40.8535 26.9918C40.57 26.9918 40.3638 27.1094 40.2309 27.326C40.0981 27.5613 40.0426 27.8955 40.0426 28.3473C40.0426 28.7991 40.1001 29.1313 40.2309 29.3479C40.3638 29.5646 40.57 29.6821 40.8336 29.6821C41.0597 29.6821 41.2678 29.6429 41.4562 29.5831C41.6446 29.5233 41.8328 29.4449 42.0212 29.3479V30.3877C41.926 30.4269 41.8328 30.4868 41.7377 30.526C41.6426 30.5651 41.5494 30.5858 41.4542 30.625C41.359 30.6456 41.2658 30.6642 41.1707 30.6848C41.0974 30.722 40.9843 30.722 40.8693 30.722ZM44.2278 30.6436H43.0402V26.1109H44.2278V30.6436ZM47.396 30.722C47.0748 30.722 46.7933 30.6828 46.5276 30.5837C46.264 30.4847 46.0379 30.3486 45.8496 30.1526C45.6613 29.9566 45.5106 29.7213 45.4154 29.4263C45.3024 29.1313 45.2647 28.7991 45.2647 28.4051C45.2647 28.011 45.3222 27.6602 45.4154 27.3652C45.5106 27.0702 45.6414 26.8165 45.8119 26.6204C45.9824 26.4244 46.1886 26.2677 46.4344 26.1686C46.6803 26.0696 46.944 26.0118 47.2453 26.0118C47.5288 26.0118 47.7925 26.051 48.0186 26.1501C48.2445 26.2491 48.4527 26.3667 48.6034 26.542C48.7739 26.7195 48.8869 26.934 48.9801 27.1899C49.0753 27.4457 49.1129 27.7387 49.1129 28.0729V28.6815H46.4523C46.4523 28.859 46.4899 29.0158 46.5276 29.1519C46.5851 29.2901 46.6406 29.4078 46.7358 29.5047C46.831 29.6038 46.9242 29.6821 47.0569 29.7213C47.1898 29.7812 47.3207 29.7998 47.4714 29.7998C47.6041 29.7998 47.735 29.7998 47.848 29.7791C47.9611 29.7585 48.0741 29.7399 48.187 29.7193C48.3 29.6801 48.4131 29.6594 48.5261 29.6017C48.6391 29.5625 48.7521 29.5026 48.8651 29.4449V30.4063C48.7521 30.4661 48.6569 30.5054 48.5439 30.5445C48.4309 30.5837 48.3357 30.6229 48.2049 30.6436C48.0919 30.6642 47.9591 30.6828 47.8282 30.7034C47.6973 30.722 47.5645 30.722 47.396 30.722ZM47.2453 26.8969C47.0371 26.8969 46.8687 26.9753 46.718 27.1321C46.5851 27.2889 46.4919 27.5241 46.4721 27.8583H47.9809C47.9809 27.7201 47.9611 27.5839 47.9234 27.4849C47.8857 27.3673 47.848 27.2683 47.7905 27.1899C47.733 27.1114 47.6577 27.0331 47.5645 26.9939C47.4714 26.9361 47.3762 26.8969 47.2453 26.8969ZM51.8846 29.742C51.9976 29.742 52.1106 29.7213 52.2236 29.7028C52.3366 29.6842 52.4318 29.6429 52.5448 29.6038V30.526C52.4318 30.5858 52.2989 30.6436 52.1304 30.6828C51.9599 30.722 51.7914 30.7426 51.5832 30.7426C51.3949 30.7426 51.2244 30.722 51.0558 30.6828C50.8854 30.6436 50.7545 30.5651 50.6216 30.4476C50.5086 30.33 50.4135 30.1732 50.3382 29.9772C50.2628 29.7812 50.243 29.546 50.243 29.251V27.0331H49.678V26.5029L50.3382 26.0902L50.6772 25.1288H51.4306V26.0902H52.4873V27.0125H51.4306V29.1911C51.4306 29.3686 51.4682 29.5047 51.5634 29.5831C51.6387 29.7028 51.7517 29.742 51.8846 29.742ZM52.8084 26.1109H54.109L54.8069 28.663C54.8446 28.8012 54.8822 28.958 54.9021 29.1148C54.9219 29.2716 54.9398 29.4098 54.9398 29.546H54.9596C54.9596 29.4861 54.9794 29.4078 54.9794 29.3293C54.9794 29.251 54.9992 29.1725 55.017 29.0942C55.0369 29.0158 55.0369 28.9373 55.0547 28.859C55.0745 28.7805 55.0924 28.7208 55.1122 28.6423L55.7902 26.0902H57.0908L55.3739 31.213C55.2034 31.6834 54.9972 32.0568 54.7137 32.2734C54.4302 32.5087 54.0912 32.6262 53.6768 32.6262C53.544 32.6262 53.431 32.6262 53.318 32.6056C53.2228 32.585 53.1296 32.5664 53.0721 32.5664V31.5844C53.1296 31.605 53.1852 31.605 53.2803 31.6236C53.3556 31.6442 53.4508 31.6442 53.544 31.6442C53.6768 31.6442 53.77 31.6236 53.8652 31.5844C53.9603 31.5452 54.0356 31.5059 54.0912 31.4276C54.1487 31.3677 54.2042 31.2893 54.2617 31.1924C54.2994 31.0933 54.3371 30.9964 54.3747 30.8974L54.4501 30.6622L52.8084 26.1109Z" fill="white"/>
<path id="Vector_7" d="M36.3878 38.6294V44.7963H35.1598L32.7652 40.6625V44.7963H31.5371V38.6294H32.7652L35.1639 42.7675V38.6294H36.3878ZM37.1942 42.5515V42.4626C37.1942 42.1265 37.2406 41.8173 37.3334 41.535C37.4262 41.2497 37.5613 41.0027 37.7386 40.7938C37.916 40.5848 38.1343 40.4224 38.3936 40.3066C38.6529 40.188 38.9503 40.1288 39.2859 40.1288C39.6216 40.1288 39.9204 40.188 40.1824 40.3066C40.4443 40.4224 40.6641 40.5848 40.8414 40.7938C41.0216 41.0027 41.158 41.2497 41.2507 41.535C41.3436 41.8173 41.3899 42.1265 41.3899 42.4626V42.5515C41.3899 42.8847 41.3436 43.1938 41.2507 43.4791C41.158 43.7614 41.0216 44.0085 40.8414 44.2203C40.6641 44.4292 40.4458 44.5916 40.1865 44.7074C39.9272 44.8231 39.6298 44.8811 39.2942 44.8811C38.9585 44.8811 38.6597 44.8231 38.3977 44.7074C38.1384 44.5916 37.9188 44.4292 37.7386 44.2203C37.5613 44.0085 37.4262 43.7614 37.3334 43.4791C37.2406 43.1938 37.1942 42.8847 37.1942 42.5515ZM38.3731 42.4626V42.5515C38.3731 42.7435 38.3895 42.9228 38.4223 43.0894C38.455 43.256 38.5069 43.4029 38.5778 43.5299C38.6514 43.6542 38.747 43.7515 38.8644 43.8222C38.9817 43.8928 39.125 43.9281 39.2942 43.9281C39.4579 43.9281 39.5984 43.8928 39.7157 43.8222C39.8331 43.7515 39.9272 43.6542 39.9982 43.5299C40.0691 43.4029 40.121 43.256 40.1537 43.0894C40.1892 42.9228 40.2069 42.7435 40.2069 42.5515V42.4626C40.2069 42.2762 40.1892 42.1011 40.1537 41.9373C40.121 41.7707 40.0678 41.6239 39.9941 41.4969C39.9231 41.3669 39.829 41.2653 39.7116 41.1919C39.5943 41.1184 39.4524 41.0818 39.2859 41.0818C39.1195 41.0818 38.9776 41.1184 38.8602 41.1919C38.7456 41.2653 38.6514 41.3669 38.5778 41.4969C38.5069 41.6239 38.455 41.7707 38.4223 41.9373C38.3895 42.1011 38.3731 42.2762 38.3731 42.4626ZM44.7302 43.7968V38.2905H45.9172V44.7963H44.8489L44.7302 43.7968ZM41.9303 42.5599V42.471C41.9303 42.1209 41.9685 41.8032 42.0449 41.518C42.1213 41.23 42.2332 40.9829 42.3806 40.7768C42.5279 40.5707 42.7094 40.4112 42.925 40.2982C43.1405 40.1853 43.3862 40.1288 43.6618 40.1288C43.921 40.1288 44.1475 40.1853 44.3413 40.2982C44.5378 40.4112 44.7042 40.5721 44.8407 40.7811C44.9799 40.9872 45.0917 41.2314 45.1763 41.5138C45.2609 41.7933 45.3223 42.0997 45.3606 42.4329V42.6277C45.3223 42.9468 45.2609 43.2433 45.1763 43.5172C45.0917 43.7911 44.9799 44.0311 44.8407 44.2372C44.7042 44.4405 44.5378 44.5986 44.3413 44.7116C44.1448 44.8246 43.9156 44.8811 43.6536 44.8811C43.3779 44.8811 43.1324 44.8231 42.9168 44.7074C42.7039 44.5916 42.5238 44.4292 42.3764 44.2203C42.2318 44.0114 42.1213 43.7657 42.0449 43.4833C41.9685 43.201 41.9303 42.8931 41.9303 42.5599ZM43.1092 42.471V42.5599C43.1092 42.7492 43.1228 42.9257 43.1501 43.0894C43.1801 43.2532 43.2279 43.3986 43.2933 43.5256C43.3616 43.6499 43.4489 43.7473 43.5554 43.8179C43.6645 43.8857 43.7969 43.9196 43.9524 43.9196C44.1544 43.9196 44.3208 43.873 44.4518 43.7798C44.5828 43.6838 44.6824 43.5525 44.7506 43.3859C44.8216 43.2193 44.8625 43.0273 44.8734 42.8098V42.255C44.8653 42.0771 44.8407 41.9176 44.7997 41.7764C44.7616 41.6323 44.7042 41.5096 44.6278 41.4079C44.5541 41.3062 44.4613 41.2272 44.3495 41.1707C44.2403 41.1142 44.1107 41.086 43.9606 41.086C43.8078 41.086 43.6768 41.1227 43.5677 41.1961C43.4585 41.2667 43.3698 41.3641 43.3016 41.4883C43.2361 41.6126 43.187 41.7595 43.1542 41.9289C43.1242 42.0954 43.1092 42.2762 43.1092 42.471ZM48.8768 44.8811C48.5329 44.8811 48.2245 44.8246 47.9516 44.7116C47.6788 44.5958 47.4468 44.4363 47.2558 44.233C47.0675 44.0297 46.9228 43.7939 46.8219 43.5256C46.7209 43.2546 46.6704 42.9666 46.6704 42.6616V42.4922C46.6704 42.1449 46.7182 41.8272 46.8137 41.5392C46.9092 41.2512 47.0457 41.0013 47.223 40.7895C47.4032 40.5777 47.6215 40.4153 47.878 40.3024C48.1345 40.1867 48.4238 40.1288 48.7458 40.1288C49.0596 40.1288 49.338 40.1824 49.5808 40.2897C49.8237 40.397 50.027 40.5495 50.1908 40.7471C50.3572 40.9448 50.4828 41.182 50.5674 41.4587C50.652 41.7326 50.6943 42.0376 50.6943 42.3736V42.8819H47.1739V42.0686H49.5358V41.9754C49.5358 41.806 49.5058 41.655 49.4458 41.5223C49.3884 41.3867 49.3011 41.2794 49.1837 41.2004C49.0664 41.1213 48.9163 41.0818 48.7335 41.0818C48.5779 41.0818 48.4442 41.117 48.3323 41.1877C48.2204 41.2583 48.129 41.3571 48.0581 41.4841C47.9898 41.6112 47.938 41.7609 47.9025 41.9331C47.8698 42.1025 47.8534 42.2889 47.8534 42.4922V42.6616C47.8534 42.8452 47.878 43.0146 47.9271 43.1699C47.979 43.3252 48.0513 43.4593 48.1441 43.5723C48.2396 43.6852 48.3542 43.7728 48.4879 43.8349C48.6243 43.897 48.7786 43.9281 48.9505 43.9281C49.1633 43.9281 49.3612 43.8857 49.544 43.801C49.7295 43.7134 49.8892 43.5821 50.0229 43.407L50.596 44.0509C50.5032 44.1892 50.3763 44.3219 50.2153 44.449C50.0571 44.5761 49.866 44.6806 49.6422 44.7625C49.4184 44.8415 49.1633 44.8811 48.8768 44.8811ZM51.4229 44.2076C51.4229 44.0268 51.4829 43.8758 51.603 43.7544C51.7258 43.6329 51.8882 43.5723 52.0901 43.5723C52.292 43.5723 52.453 43.6329 52.5731 43.7544C52.6959 43.8758 52.7573 44.0268 52.7573 44.2076C52.7573 44.3883 52.6959 44.5394 52.5731 44.6608C52.453 44.7822 52.292 44.8429 52.0901 44.8429C51.8882 44.8429 51.7258 44.7822 51.603 44.6608C51.4829 44.5394 51.4229 44.3883 51.4229 44.2076ZM53.8625 40.2135H55.0455V45.0716C55.0455 45.4105 54.9855 45.6971 54.8654 45.9314C54.7453 46.1658 54.5721 46.3437 54.3455 46.4651C54.1191 46.5865 53.8448 46.6472 53.5227 46.6472C53.4218 46.6472 53.3236 46.6416 53.2281 46.6303C53.1298 46.619 53.0288 46.6007 52.9251 46.5753L52.9292 45.6392C52.9947 45.6505 53.0589 45.659 53.1216 45.6646C53.1816 45.6731 53.243 45.6773 53.3058 45.6773C53.4286 45.6773 53.531 45.6561 53.6128 45.6138C53.6947 45.5715 53.7561 45.5051 53.797 45.4147C53.8407 45.3272 53.8625 45.2128 53.8625 45.0716V40.2135ZM53.7684 39.0191C53.7684 38.8411 53.8284 38.6943 53.9485 38.5785C54.0713 38.4628 54.2323 38.4049 54.4315 38.4049C54.6335 38.4049 54.7944 38.4628 54.9145 38.5785C55.0346 38.6943 55.0946 38.8411 55.0946 39.0191C55.0946 39.1969 55.0346 39.3437 54.9145 39.4595C54.7944 39.5753 54.6335 39.6332 54.4315 39.6332C54.2323 39.6332 54.0713 39.5753 53.9485 39.4595C53.8284 39.3437 53.7684 39.1969 53.7684 39.0191ZM58.3776 43.5299C58.3776 43.4424 58.3529 43.3633 58.3038 43.2927C58.2547 43.2221 58.1633 43.1572 58.0296 43.0979C57.8986 43.0357 57.7089 42.9793 57.4606 42.9284C57.2368 42.8776 57.0281 42.8141 56.8343 42.7379C56.6433 42.6588 56.4768 42.5642 56.3349 42.454C56.1958 42.344 56.0866 42.214 56.0074 42.0644C55.9283 41.9119 55.8888 41.7382 55.8888 41.5434C55.8888 41.3514 55.9283 41.1707 56.0074 41.0013C56.0893 40.8319 56.2053 40.6822 56.3554 40.5523C56.5082 40.4196 56.6938 40.3166 56.9121 40.2431C57.1331 40.1669 57.3815 40.1288 57.6571 40.1288C58.0419 40.1288 58.3721 40.1923 58.6477 40.3194C58.926 40.4464 59.1389 40.6215 59.2862 40.8446C59.4363 41.0648 59.5114 41.3161 59.5114 41.5985H58.3325C58.3325 41.4799 58.3079 41.374 58.2588 41.2808C58.2124 41.1848 58.1387 41.11 58.0378 41.0564C57.9395 40.9999 57.8113 40.9716 57.653 40.9716C57.522 40.9716 57.4088 40.9956 57.3133 41.0437C57.2177 41.0888 57.1441 41.151 57.0922 41.23C57.0431 41.3062 57.0185 41.391 57.0185 41.4841C57.0185 41.5547 57.0322 41.6182 57.0595 41.6747C57.0895 41.7284 57.1372 41.7778 57.2028 41.823C57.2682 41.8682 57.3528 41.9105 57.4566 41.95C57.5629 41.9868 57.694 42.0206 57.8495 42.0517C58.1688 42.1195 58.4539 42.2084 58.705 42.3185C58.9561 42.4258 59.1553 42.5726 59.3026 42.759C59.45 42.9425 59.5237 43.184 59.5237 43.4833C59.5237 43.6866 59.48 43.873 59.3927 44.0424C59.3054 44.2118 59.1798 44.36 59.0161 44.4872C58.8524 44.6114 58.6559 44.7088 58.4267 44.7794C58.2001 44.8471 57.945 44.8811 57.6612 44.8811C57.2491 44.8811 56.8998 44.8048 56.6133 44.6523C56.3295 44.4999 56.1139 44.3064 55.9665 44.072C55.8219 43.8349 55.7496 43.592 55.7496 43.3435H56.8671C56.8725 43.5101 56.9135 43.6442 56.9899 43.7459C57.069 43.8476 57.1686 43.9209 57.2887 43.9662C57.4115 44.0114 57.5438 44.0339 57.6857 44.0339C57.8386 44.0339 57.9655 44.0127 58.0664 43.9704C58.1674 43.9252 58.2438 43.8659 58.2957 43.7925C58.3502 43.7163 58.3776 43.6287 58.3776 43.5299Z" fill="#32303D"/>
<path id="Vector_8" d="M22.2526 53.6088H20.955L20.9632 52.6177H22.2526C22.5747 52.6177 22.8462 52.5429 23.0672 52.3932C23.2882 52.2407 23.4547 52.019 23.5666 51.7282C23.6812 51.4374 23.7386 51.0858 23.7386 50.6736V50.3728C23.7386 50.0566 23.7058 49.7784 23.6403 49.5384C23.5775 49.2985 23.4833 49.0965 23.3579 48.9327C23.2323 48.769 23.0782 48.6462 22.8953 48.5643C22.7124 48.4796 22.5024 48.4372 22.2649 48.4372H20.9304V47.4419H22.2649C22.6633 47.4419 23.0276 47.5125 23.3579 47.6536C23.6908 47.792 23.9787 47.991 24.2215 48.2509C24.4644 48.5106 24.6513 48.8212 24.7824 49.1826C24.9161 49.5412 24.9829 49.9408 24.9829 50.3813V50.6736C24.9829 51.1113 24.9161 51.5108 24.7824 51.8722C24.6513 52.2337 24.4644 52.5442 24.2215 52.8041C23.9814 53.061 23.6935 53.26 23.3579 53.4013C23.0249 53.5396 22.6565 53.6088 22.2526 53.6088ZM21.6509 47.4419V53.6088H20.4229V47.4419H21.6509ZM27.8401 53.6935C27.4963 53.6935 27.1879 53.6371 26.915 53.524C26.6421 53.4083 26.4101 53.2488 26.2191 53.0455C26.0308 52.8422 25.8862 52.6064 25.7852 52.3381C25.6843 52.067 25.6338 51.779 25.6338 51.4741V51.3047C25.6338 50.9573 25.6815 50.6396 25.777 50.3517C25.8726 50.0637 26.009 49.8138 26.1864 49.602C26.3665 49.3902 26.5848 49.2278 26.8414 49.1149C27.0979 48.9991 27.3871 48.9413 27.7091 48.9413C28.023 48.9413 28.3013 48.9949 28.5442 49.1022C28.7871 49.2094 28.9903 49.362 29.1541 49.5596C29.3206 49.7573 29.4461 49.9945 29.5307 50.2712C29.6153 50.5451 29.6576 50.85 29.6576 51.1861V51.6944H26.1372V50.8811H28.4991V50.7879C28.4991 50.6185 28.4691 50.4674 28.4091 50.3347C28.3518 50.1992 28.2644 50.0919 28.1471 50.0129C28.0298 49.9338 27.8797 49.8943 27.6969 49.8943C27.5413 49.8943 27.4076 49.9295 27.2957 50.0001C27.1838 50.0707 27.0924 50.1696 27.0214 50.2966C26.9532 50.4237 26.9014 50.5733 26.8659 50.7455C26.8331 50.915 26.8168 51.1013 26.8168 51.3047V51.4741C26.8168 51.6576 26.8414 51.8271 26.8905 51.9824C26.9423 52.1376 27.0146 52.2718 27.1074 52.3847C27.2029 52.4977 27.3175 52.5852 27.4512 52.6474C27.5877 52.7095 27.7419 52.7405 27.9138 52.7405C28.1267 52.7405 28.3245 52.6982 28.5074 52.6134C28.6929 52.5259 28.8525 52.3946 28.9863 52.2195L29.5593 52.8633C29.4666 53.0017 29.3397 53.1344 29.1786 53.2615C29.0204 53.3886 28.8294 53.4931 28.6056 53.5749C28.3818 53.654 28.1267 53.6935 27.8401 53.6935ZM31.7779 52.7193L32.7604 49.0259H33.9925L32.4984 53.6088H31.7534L31.7779 52.7193ZM31.1026 49.0259L32.0891 52.7236L32.1095 53.6088H31.3604L29.8664 49.0259H31.1026ZM36.5018 53.6935C36.1579 53.6935 35.8495 53.6371 35.5766 53.524C35.3037 53.4083 35.0718 53.2488 34.8807 53.0455C34.6924 52.8422 34.5478 52.6064 34.4469 52.3381C34.3459 52.067 34.2954 51.779 34.2954 51.4741V51.3047C34.2954 50.9573 34.3431 50.6396 34.4387 50.3517C34.5342 50.0637 34.6707 49.8138 34.848 49.602C35.0281 49.3902 35.2465 49.2278 35.503 49.1149C35.7595 48.9991 36.0487 48.9413 36.3707 48.9413C36.6846 48.9413 36.9629 48.9949 37.2058 49.1022C37.4487 49.2094 37.6519 49.362 37.8158 49.5596C37.9822 49.7573 38.1077 49.9945 38.1923 50.2712C38.2769 50.5451 38.3192 50.85 38.3192 51.1861V51.6944H34.7989V50.8811H37.1607V50.7879C37.1607 50.6185 37.1307 50.4674 37.0708 50.3347C37.0134 50.1992 36.9261 50.0919 36.8087 50.0129C36.6914 49.9338 36.5413 49.8943 36.3585 49.8943C36.2029 49.8943 36.0692 49.9295 35.9573 50.0001C35.8454 50.0707 35.754 50.1696 35.6831 50.2966C35.6148 50.4237 35.563 50.5733 35.5275 50.7455C35.4948 50.915 35.4784 51.1013 35.4784 51.3047V51.4741C35.4784 51.6576 35.503 51.8271 35.5521 51.9824C35.604 52.1376 35.6762 52.2718 35.769 52.3847C35.8646 52.4977 35.9791 52.5852 36.1129 52.6474C36.2493 52.7095 36.4035 52.7405 36.5754 52.7405C36.7883 52.7405 36.9862 52.6982 37.169 52.6134C37.3545 52.5259 37.5142 52.3946 37.6479 52.2195L38.2209 52.8633C38.1282 53.0017 38.0013 53.1344 37.8403 53.2615C37.682 53.3886 37.491 53.4931 37.2672 53.5749C37.0434 53.654 36.7883 53.6935 36.5018 53.6935ZM40.2349 47.103V53.6088H39.052V47.103H40.2349ZM41.0208 51.364V51.275C41.0208 50.939 41.0672 50.6298 41.16 50.3474C41.2528 50.0622 41.3879 49.8152 41.5653 49.6062C41.7427 49.3972 41.961 49.2349 42.2202 49.1191C42.4795 49.0005 42.7769 48.9413 43.1126 48.9413C43.4482 48.9413 43.747 49.0005 44.009 49.1191C44.271 49.2349 44.4907 49.3972 44.668 49.6062C44.8482 49.8152 44.9846 50.0622 45.0774 50.3474C45.1702 50.6298 45.2166 50.939 45.2166 51.275V51.364C45.2166 51.6971 45.1702 52.0063 45.0774 52.2915C44.9846 52.5739 44.8482 52.821 44.668 53.0328C44.4907 53.2417 44.2724 53.4041 44.0131 53.5199C43.7538 53.6356 43.4564 53.6935 43.1208 53.6935C42.7851 53.6935 42.4863 53.6356 42.2243 53.5199C41.965 53.4041 41.7454 53.2417 41.5653 53.0328C41.3879 52.821 41.2528 52.5739 41.16 52.2915C41.0672 52.0063 41.0208 51.6971 41.0208 51.364ZM42.1997 51.275V51.364C42.1997 51.556 42.2161 51.7353 42.2489 51.9019C42.2816 52.0684 42.3335 52.2153 42.4044 52.3424C42.4781 52.4666 42.5736 52.564 42.691 52.6346C42.8083 52.7052 42.9516 52.7405 43.1208 52.7405C43.2845 52.7405 43.425 52.7052 43.5423 52.6346C43.6597 52.564 43.7538 52.4666 43.8248 52.3424C43.8958 52.2153 43.9476 52.0684 43.9804 51.9019C44.0159 51.7353 44.0336 51.556 44.0336 51.364V51.275C44.0336 51.0886 44.0159 50.9136 43.9804 50.7498C43.9476 50.5832 43.8944 50.4364 43.8207 50.3093C43.7498 50.1794 43.6556 50.0778 43.5383 50.0043C43.4209 49.9309 43.279 49.8943 43.1126 49.8943C42.9461 49.8943 42.8042 49.9309 42.6868 50.0043C42.5722 50.0778 42.4781 50.1794 42.4044 50.3093C42.3335 50.4364 42.2816 50.5832 42.2489 50.7498C42.2161 50.9136 42.1997 51.0886 42.1997 51.275ZM47.12 49.907V55.3708H45.9411V49.0259H47.0341L47.12 49.907ZM49.924 51.2665V51.3555C49.924 51.6887 49.8858 51.9979 49.8094 52.2831C49.7357 52.5683 49.6265 52.8168 49.4819 53.0285C49.3373 53.2375 49.1572 53.4013 48.9415 53.5199C48.7287 53.6356 48.4831 53.6935 48.2048 53.6935C47.9346 53.6935 47.6999 53.6371 47.5007 53.524C47.3015 53.4111 47.1336 53.253 46.9972 53.0497C46.8635 52.8436 46.7557 52.605 46.6738 52.3339C46.592 52.0628 46.5292 51.772 46.4855 51.4614V51.2284C46.5292 50.8952 46.592 50.5903 46.6738 50.3135C46.7557 50.034 46.8635 49.7925 46.9972 49.5893C47.1336 49.3831 47.3001 49.2236 47.4966 49.1107C47.6958 48.9977 47.9291 48.9413 48.1965 48.9413C48.4777 48.9413 48.7246 48.9963 48.9375 49.1064C49.153 49.2166 49.3332 49.3747 49.4778 49.5808C49.6251 49.787 49.7357 50.0326 49.8094 50.3178C49.8858 50.603 49.924 50.9192 49.924 51.2665ZM48.741 51.3555V51.2665C48.741 51.0717 48.7246 50.8924 48.6919 50.7287C48.6618 50.562 48.6127 50.4166 48.5445 50.2924C48.479 50.1681 48.3917 50.0721 48.2826 50.0043C48.1761 49.9338 48.0465 49.8984 47.8936 49.8984C47.7327 49.8984 47.5948 49.9253 47.4802 49.9789C47.3684 50.0326 47.2769 50.1102 47.206 50.2119C47.135 50.3135 47.0818 50.435 47.0463 50.5761C47.0109 50.7173 46.989 50.8768 46.9808 51.0548V51.6435C46.9945 51.8525 47.0326 52.0402 47.0955 52.2068C47.1582 52.3706 47.2551 52.5005 47.3861 52.5965C47.517 52.6925 47.689 52.7405 47.9019 52.7405C48.0574 52.7405 48.1884 52.7052 48.2948 52.6346C48.4012 52.5612 48.4872 52.461 48.5527 52.3339C48.621 52.2068 48.6686 52.06 48.696 51.8934C48.726 51.7268 48.741 51.5475 48.741 51.3555ZM51.8356 49.9747V53.6088H50.6526V49.0259H51.7619L51.8356 49.9747ZM51.6719 51.1564H51.3444C51.3444 50.8373 51.3812 50.5437 51.4549 50.2754C51.5313 50.0043 51.6418 49.77 51.7865 49.5723C51.9338 49.3718 52.1153 49.2166 52.3309 49.1064C52.5465 48.9963 52.7961 48.9413 53.08 48.9413C53.2765 48.9413 53.4565 48.9723 53.6203 49.0344C53.7841 49.0937 53.9246 49.1883 54.0419 49.3182C54.162 49.4453 54.2548 49.6119 54.3203 49.8179C54.3858 50.0213 54.4185 50.2656 54.4185 50.5507V53.6088H53.2397V50.6863C53.2397 50.4773 53.2123 50.3164 53.1577 50.2034C53.1032 50.0905 53.0254 50.0114 52.9245 49.9662C52.8262 49.9211 52.7075 49.8984 52.5683 49.8984C52.4155 49.8984 52.2818 49.9309 52.1672 49.9959C52.0553 50.0608 51.9625 50.1512 51.8888 50.2669C51.8152 50.3799 51.7606 50.5126 51.7251 50.6651C51.6896 50.8176 51.6719 50.9813 51.6719 51.1564ZM54.308 51.0167L53.8864 51.0717C53.8864 50.7724 53.9218 50.4942 53.9928 50.2373C54.0665 49.9803 54.1743 49.7544 54.3162 49.5596C54.4608 49.3648 54.6396 49.2137 54.8524 49.1064C55.0653 48.9963 55.3109 48.9413 55.5892 48.9413C55.8021 48.9413 55.9958 48.9737 56.1705 49.0386C56.3451 49.1008 56.4939 49.201 56.6167 49.3394C56.7422 49.4749 56.8377 49.6528 56.9032 49.873C56.9714 50.0933 57.0055 50.3629 57.0055 50.682V53.6088H55.8226V50.682C55.8226 50.4702 55.7952 50.3093 55.7407 50.1992C55.6889 50.0862 55.6124 50.0086 55.5115 49.9662C55.4132 49.9211 55.2959 49.8984 55.1594 49.8984C55.0175 49.8984 54.8934 49.9281 54.7869 49.9874C54.6805 50.0438 54.5918 50.1229 54.5209 50.2246C54.4499 50.3263 54.3967 50.4448 54.3612 50.5804C54.3258 50.7131 54.308 50.8585 54.308 51.0167ZM59.9569 53.6935C59.613 53.6935 59.3046 53.6371 59.0318 53.524C58.7589 53.4083 58.5269 53.2488 58.3359 53.0455C58.1476 52.8422 58.003 52.6064 57.902 52.3381C57.801 52.067 57.7505 51.779 57.7505 51.4741V51.3047C57.7505 50.9573 57.7983 50.6396 57.8938 50.3517C57.9893 50.0637 58.1258 49.8138 58.3031 49.602C58.4833 49.3902 58.7016 49.2278 58.9581 49.1149C59.2146 48.9991 59.5039 48.9413 59.8259 48.9413C60.1397 48.9413 60.4181 48.9949 60.6609 49.1022C60.9038 49.2094 61.1071 49.362 61.2709 49.5596C61.4373 49.7573 61.5629 49.9945 61.6475 50.2712C61.7321 50.5451 61.7744 50.85 61.7744 51.1861V51.6944H58.254V50.8811H60.6159V50.7879C60.6159 50.6185 60.5859 50.4674 60.5259 50.3347C60.4686 50.1992 60.3812 50.0919 60.2639 50.0129C60.1465 49.9338 59.9965 49.8943 59.8136 49.8943C59.6581 49.8943 59.5244 49.9295 59.4125 50.0001C59.3006 50.0707 59.2092 50.1696 59.1382 50.2966C59.07 50.4237 59.0181 50.5733 58.9826 50.7455C58.9499 50.915 58.9335 51.1013 58.9335 51.3047V51.4741C58.9335 51.6576 58.9581 51.8271 59.0072 51.9824C59.0591 52.1376 59.1314 52.2718 59.2242 52.3847C59.3197 52.4977 59.4343 52.5852 59.568 52.6474C59.7044 52.7095 59.8587 52.7405 60.0306 52.7405C60.2434 52.7405 60.4413 52.6982 60.6241 52.6134C60.8097 52.5259 60.9693 52.3946 61.103 52.2195L61.6761 52.8633C61.5833 53.0017 61.4565 53.1344 61.2954 53.2615C61.1372 53.3886 60.9461 53.4931 60.7223 53.5749C60.4986 53.654 60.2434 53.6935 59.9569 53.6935ZM63.6 50.0043V53.6088H62.4211V49.0259H63.5263L63.6 50.0043ZM63.4281 51.1564H63.1088C63.1088 50.8176 63.1511 50.5126 63.2357 50.2415C63.3203 49.9676 63.439 49.7347 63.5918 49.5427C63.7446 49.3478 63.9261 49.1996 64.1363 49.098C64.3491 48.9935 64.5865 48.9413 64.8485 48.9413C65.0559 48.9413 65.2456 48.9723 65.4175 49.0344C65.5894 49.0965 65.7368 49.1953 65.8596 49.3309C65.9851 49.4664 66.0806 49.6457 66.1461 49.8688C66.2143 50.0919 66.2484 50.3644 66.2484 50.6863V53.6088H65.0613V50.682C65.0613 50.4787 65.0341 50.3206 64.9795 50.2077C64.9249 50.0947 64.8444 50.0156 64.738 49.9705C64.6343 49.9225 64.506 49.8984 64.3532 49.8984C64.1949 49.8984 64.0571 49.9309 63.9397 49.9959C63.8251 50.0608 63.7297 50.1512 63.6532 50.2669C63.5796 50.3799 63.5236 50.5126 63.4854 50.6651C63.4472 50.8176 63.4281 50.9813 63.4281 51.1564ZM69.3144 49.0259V49.89H66.7356V49.0259H69.3144ZM67.3741 47.8951H68.553V52.228C68.553 52.3607 68.5694 52.4624 68.6022 52.5329C68.6376 52.6036 68.6895 52.653 68.7577 52.6812C68.8259 52.7066 68.9119 52.7193 69.0156 52.7193C69.0892 52.7193 69.1548 52.7165 69.212 52.7109C69.2721 52.7024 69.3226 52.6939 69.3635 52.6855L69.3676 53.5834C69.2666 53.6172 69.1575 53.6441 69.0401 53.6639C68.9228 53.6836 68.7931 53.6935 68.6513 53.6935C68.392 53.6935 68.1655 53.6498 67.9718 53.5622C67.7807 53.4718 67.6334 53.3278 67.5297 53.1302C67.426 52.9325 67.3741 52.6728 67.3741 52.3508V47.8951Z" fill="#32303D"/>
<path id="Vector_9" d="M36.8726 61.9453V66.8275H35.9037V61.9453H36.8726ZM38.3245 61.9453V62.7333H34.4746V61.9453H38.3245ZM42.6636 64.2724V64.5038C42.6636 64.8749 42.615 65.2079 42.5178 65.503C42.4206 65.798 42.2834 66.0496 42.1063 66.2575C41.9291 66.4631 41.7174 66.6207 41.471 66.7303C41.227 66.8397 40.9559 66.8945 40.6577 66.8945C40.3617 66.8945 40.0906 66.8397 39.8443 66.7303C39.6002 66.6207 39.3884 66.4631 39.2091 66.2575C39.0298 66.0496 38.8905 65.798 38.7911 65.503C38.6939 65.2079 38.6453 64.8749 38.6453 64.5038V64.2724C38.6453 63.8991 38.6939 63.566 38.7911 63.2732C38.8883 62.9781 39.0255 62.7266 39.2027 62.5187C39.382 62.3108 39.5937 62.1521 39.8378 62.0426C40.0841 61.933 40.3552 61.8782 40.6512 61.8782C40.9493 61.8782 41.2204 61.933 41.4646 62.0426C41.7109 62.1521 41.9226 62.3108 42.0997 62.5187C42.2791 62.7266 42.4173 62.9781 42.5146 63.2732C42.6139 63.566 42.6636 63.8991 42.6636 64.2724ZM41.6817 64.5038V64.2657C41.6817 64.0064 41.6591 63.7784 41.6136 63.5816C41.5683 63.385 41.5014 63.2195 41.4128 63.0854C41.3242 62.9512 41.2162 62.8507 41.0887 62.7836C40.9612 62.7143 40.8154 62.6797 40.6512 62.6797C40.487 62.6797 40.3412 62.7143 40.2137 62.7836C40.0884 62.8507 39.9815 62.9512 39.8929 63.0854C39.8065 63.2195 39.7406 63.385 39.6952 63.5816C39.6499 63.7784 39.6272 64.0064 39.6272 64.2657V64.5038C39.6272 64.7608 39.6499 64.9888 39.6952 65.1878C39.7406 65.3845 39.8076 65.5511 39.8962 65.6874C39.9847 65.8215 40.0928 65.9232 40.2202 65.9926C40.3477 66.0618 40.4935 66.0965 40.6577 66.0965C40.8219 66.0965 40.9677 66.0618 41.0952 65.9926C41.2226 65.9232 41.3296 65.8215 41.416 65.6874C41.5024 65.5511 41.5683 65.3845 41.6136 65.1878C41.6591 64.9888 41.6817 64.7608 41.6817 64.5038ZM45.201 65.0872H43.9987V64.3026H45.201C45.3868 64.3026 45.538 64.2713 45.6547 64.2087C45.7714 64.1439 45.8567 64.0544 45.9107 63.9404C45.9647 63.8265 45.9917 63.6979 45.9917 63.5548C45.9917 63.4095 45.9647 63.2743 45.9107 63.1491C45.8567 63.0239 45.7714 62.9233 45.6547 62.8473C45.538 62.7713 45.3868 62.7333 45.201 62.7333H44.3358V66.8275H43.3636V61.9453H45.201C45.5704 61.9453 45.8869 62.0146 46.1505 62.1532C46.4162 62.2896 46.6193 62.4784 46.7597 62.7199C46.9002 62.9613 46.9704 63.2374 46.9704 63.5481C46.9704 63.8633 46.9002 64.136 46.7597 64.3663C46.6193 64.5965 46.4162 64.7742 46.1505 64.8995C45.8869 65.0246 45.5704 65.0872 45.201 65.0872ZM51.4715 61.9352V66.8275H50.5383V63.0485L49.417 63.4173V62.6562L51.3711 61.9352H51.4715ZM56.1834 63.9572V64.8022C56.1834 65.1688 56.1456 65.4851 56.07 65.7511C55.9944 66.0149 55.8853 66.2318 55.7427 66.4016C55.6022 66.5693 55.4348 66.6934 55.2404 66.7738C55.046 66.8543 54.8299 66.8945 54.5923 66.8945C54.4022 66.8945 54.225 66.8699 54.0609 66.8208C53.8966 66.7694 53.7486 66.69 53.6169 66.5827C53.4873 66.4754 53.3749 66.3402 53.2799 66.177C53.187 66.0115 53.1156 65.8149 53.066 65.5868C53.0163 65.3588 52.9914 65.0973 52.9914 64.8022V63.9572C52.9914 63.5906 53.0293 63.2765 53.1048 63.015C53.1826 62.7512 53.2917 62.5355 53.4322 62.3678C53.5748 62.2002 53.7433 62.0772 53.9376 61.999C54.1321 61.9185 54.3482 61.8782 54.5858 61.8782C54.7759 61.8782 54.952 61.9039 55.114 61.9553C55.2782 62.0045 55.4262 62.0817 55.558 62.1867C55.6898 62.2918 55.8021 62.427 55.895 62.5925C55.9879 62.7557 56.0592 62.9512 56.1089 63.1793C56.1586 63.4051 56.1834 63.6644 56.1834 63.9572ZM55.2469 64.9296V63.8265C55.2469 63.6498 55.2372 63.4956 55.2177 63.3637C55.2005 63.2318 55.1734 63.1201 55.1367 63.0284C55.1 62.9345 55.0546 62.8585 55.0006 62.8004C54.9466 62.7422 54.885 62.6998 54.8159 62.673C54.7467 62.6461 54.6701 62.6327 54.5858 62.6327C54.4799 62.6327 54.386 62.654 54.3039 62.6964C54.2239 62.7389 54.1559 62.8071 54.0997 62.9009C54.0435 62.9926 54.0003 63.1156 53.9701 63.2698C53.942 63.4218 53.9279 63.6073 53.9279 63.8265V64.9296C53.9279 65.1062 53.9366 65.2616 53.9539 65.3957C53.9733 65.5298 54.0014 65.6449 54.0381 65.741C54.077 65.835 54.1224 65.9121 54.1743 65.9725C54.2283 66.0305 54.2898 66.0731 54.3589 66.0999C54.4303 66.1267 54.5081 66.1401 54.5923 66.1401C54.696 66.1401 54.7878 66.1189 54.8677 66.0764C54.9499 66.0316 55.019 65.9624 55.0751 65.8685C55.1335 65.7723 55.1767 65.6472 55.2047 65.4929C55.2328 65.3387 55.2469 65.1509 55.2469 64.9296Z" fill="white"/>
<path id="Vector_10" d="M39.853 73.8737V74.9062H35.4362V74.025L37.5249 71.708C37.7348 71.4664 37.9003 71.2538 38.0216 71.0702C38.1428 70.8836 38.23 70.7169 38.2832 70.5701C38.3394 70.4202 38.3675 70.278 38.3675 70.1434C38.3675 69.9415 38.3349 69.7686 38.2699 69.6248C38.2049 69.478 38.1088 69.3648 37.9817 69.2853C37.8575 69.2058 37.7037 69.166 37.5205 69.166C37.3253 69.166 37.1568 69.215 37.0149 69.3129C36.876 69.4107 36.7695 69.5468 36.6956 69.7212C36.6247 69.8956 36.5892 70.0929 36.5892 70.3131H35.3076C35.3076 69.9155 35.3992 69.5515 35.5826 69.2211C35.7659 68.8876 36.0245 68.6231 36.3586 68.4273C36.6927 68.2284 37.0888 68.129 37.547 68.129C37.9994 68.129 38.3807 68.2055 38.6912 68.3585C39.0045 68.5083 39.241 68.7255 39.4007 69.01C39.5633 69.2914 39.6446 69.6279 39.6446 70.0195C39.6446 70.2397 39.6106 70.4554 39.5426 70.6665C39.4746 70.8744 39.3771 71.0825 39.2499 71.2905C39.1257 71.4954 38.975 71.7035 38.7976 71.9145C38.6202 72.1256 38.4236 72.3443 38.2078 72.5707L37.0858 73.8737H39.853ZM44.9971 70.9785V72.1348C44.9971 72.6364 44.9453 73.0693 44.8418 73.4333C44.7384 73.7944 44.589 74.0911 44.3939 74.3231C44.2018 74.553 43.9726 74.7226 43.7066 74.8328C43.4405 74.9429 43.1449 74.998 42.8197 74.998C42.5596 74.998 42.3171 74.9642 42.0924 74.8974C41.8677 74.8269 41.6652 74.7182 41.4849 74.5713C41.3075 74.4245 41.1538 74.2394 41.0237 74.0162C40.8966 73.79 40.799 73.5205 40.731 73.2085C40.663 72.8965 40.629 72.5385 40.629 72.1348V70.9785C40.629 70.4768 40.6808 70.047 40.7842 69.6891C40.8907 69.3281 41.04 69.0329 41.2322 68.8035C41.4273 68.5741 41.6578 68.4058 41.9239 68.2988C42.19 68.1887 42.4856 68.1336 42.8108 68.1336C43.071 68.1336 43.3119 68.1688 43.5337 68.2391C43.7584 68.3064 43.9608 68.4119 44.1412 68.5557C44.3215 68.6995 44.4753 68.8846 44.6024 69.111C44.7295 69.3342 44.8271 69.6019 44.8951 69.9139C44.9631 70.2229 44.9971 70.5777 44.9971 70.9785ZM43.7155 72.3091V70.7995C43.7155 70.5578 43.7022 70.3468 43.6755 70.1663C43.6519 69.9858 43.6149 69.8329 43.5647 69.7074C43.5144 69.579 43.4523 69.4749 43.3784 69.3954C43.3046 69.3159 43.2202 69.2578 43.1256 69.2211C43.0311 69.1843 42.9261 69.166 42.8108 69.166C42.6659 69.166 42.5373 69.1951 42.425 69.2531C42.3156 69.3113 42.2225 69.4046 42.1456 69.5331C42.0688 69.6585 42.0097 69.8268 41.9683 70.0378C41.9298 70.2458 41.9106 70.4997 41.9106 70.7995V72.3091C41.9106 72.5508 41.9224 72.7634 41.9461 72.9469C41.9727 73.1305 42.0112 73.288 42.0614 73.4196C42.1146 73.5484 42.1767 73.6534 42.2476 73.7364C42.3215 73.8157 42.4058 73.8737 42.5004 73.9104C42.598 73.9471 42.7044 73.9655 42.8197 73.9655C42.9616 73.9655 43.0872 73.9368 43.1966 73.8781C43.309 73.8171 43.4036 73.7224 43.4804 73.5939C43.5603 73.4624 43.6194 73.291 43.6578 73.08C43.6963 72.8689 43.7155 72.612 43.7155 72.3091ZM50.283 73.8737V74.9062H45.8662V74.025L47.9548 71.708C48.1648 71.4664 48.3303 71.2538 48.4515 71.0702C48.5727 70.8836 48.66 70.7169 48.7131 70.5701C48.7693 70.4202 48.7974 70.278 48.7974 70.1434C48.7974 69.9415 48.7649 69.7686 48.6999 69.6248C48.6348 69.478 48.5387 69.3648 48.4116 69.2853C48.2874 69.2058 48.1337 69.166 47.9504 69.166C47.7553 69.166 47.5868 69.215 47.4449 69.3129C47.3059 69.4107 47.1995 69.5468 47.1256 69.7212C47.0546 69.8956 47.0191 70.0929 47.0191 70.3131H45.7376C45.7376 69.9155 45.8292 69.5515 46.0125 69.2211C46.1959 68.8876 46.4545 68.6231 46.7885 68.4273C47.1226 68.2284 47.5188 68.129 47.977 68.129C48.4294 68.129 48.8107 68.2055 49.1211 68.3585C49.4345 68.5083 49.671 68.7255 49.8307 69.01C49.9933 69.2914 50.0745 69.6279 50.0745 70.0195C50.0745 70.2397 50.0405 70.4554 49.9725 70.6665C49.9045 70.8744 49.807 71.0825 49.6798 71.2905C49.5557 71.4954 49.405 71.7035 49.2275 71.9145C49.0502 72.1256 48.8536 72.3443 48.6377 72.5707L47.5158 73.8737H50.283ZM52.3894 70.9922H53.0723C53.291 70.9922 53.4714 70.954 53.6133 70.8775C53.7552 70.798 53.8601 70.6878 53.9281 70.5471C53.9991 70.4034 54.0346 70.2366 54.0346 70.047C54.0346 69.8757 54.002 69.7243 53.937 69.5927C53.8749 69.4581 53.7788 69.3541 53.6488 69.2807C53.5187 69.2042 53.3546 69.166 53.1565 69.166C52.9998 69.166 52.855 69.1981 52.722 69.2623C52.589 69.3266 52.4825 69.4168 52.4026 69.5331C52.3229 69.6493 52.2829 69.7901 52.2829 69.9552H51.0014C51.0014 69.5882 51.096 69.2685 51.2852 68.9962C51.4773 68.724 51.7345 68.5114 52.0568 68.3585C52.379 68.2055 52.7338 68.129 53.121 68.129C53.5586 68.129 53.9414 68.2024 54.2696 68.3493C54.5978 68.493 54.8535 68.7056 55.0367 68.9871C55.2201 69.2685 55.3117 69.6172 55.3117 70.0332C55.3117 70.2443 55.2644 70.4492 55.1698 70.6481C55.0752 70.8439 54.9392 71.0213 54.7619 71.1804C54.5874 71.3363 54.3746 71.4618 54.1232 71.5566C53.872 71.6484 53.5897 71.6943 53.2763 71.6943H52.3894V70.9922ZM52.3894 71.9971V71.3134H53.2763C53.6281 71.3134 53.937 71.3547 54.2031 71.4373C54.4692 71.5199 54.6924 71.6392 54.8727 71.7952C55.0531 71.9482 55.189 72.1302 55.2807 72.3413C55.3723 72.5492 55.4181 72.7802 55.4181 73.0341C55.4181 73.3461 55.3605 73.6247 55.2452 73.8693C55.1299 74.1109 54.9673 74.3158 54.7574 74.484C54.5504 74.6521 54.3081 74.7806 54.0301 74.8695C53.7523 74.9554 53.4492 74.998 53.121 74.998C52.8491 74.998 52.5815 74.9598 52.3184 74.8835C52.0583 74.8034 51.8217 74.6859 51.6089 74.5302C51.399 74.3709 51.2305 74.1718 51.1033 73.9332C50.9792 73.6916 50.9171 73.4057 50.9171 73.0754H52.1987C52.1987 73.2467 52.24 73.3997 52.3229 73.5344C52.4056 73.6688 52.5195 73.7746 52.6643 73.8509C52.8121 73.9273 52.9762 73.9655 53.1565 73.9655C53.3605 73.9655 53.535 73.9273 53.6798 73.8509C53.8276 73.7716 53.94 73.6615 54.0169 73.5205C54.0966 73.3767 54.1366 73.21 54.1366 73.0203C54.1366 72.7757 54.0937 72.5799 54.008 72.433C53.9222 72.2831 53.7995 72.173 53.6399 72.1027C53.4802 72.0323 53.291 71.9971 53.0723 71.9971H52.3894Z" fill="white"/>
</g>
</g>
</g>
</g>
<defs>
<clipPath id="clip0_2296_6106">
<rect width="90.8453" height="94" fill="white" transform="translate(-0.709961)"/>
</clipPath>
</defs>
</svg>
