<svg width="91" height="94" viewBox="0 0 91 94" fill="none" xmlns="http://www.w3.org/2000/svg">
<g id="AwardExpertise.com_2023.svg" clip-path="url(#clip0_2296_6269)">
<g id="Clip path group">
<mask id="mask0_2296_6269" style="mask-type:luminance" maskUnits="userSpaceOnUse" x="-1" y="0" width="92" height="94">
<g id="clip0_11330_48618">
<path id="Vector" d="M90.5191 3.05176e-05H-0.326172V94H90.5191V3.05176e-05Z" fill="white"/>
</g>
</mask>
<g mask="url(#mask0_2296_6269)">
<g id="Group">
<path id="Vector_2" d="M90.5191 47C90.5191 72.9574 70.1827 94 45.0965 94C20.0103 94 -0.326172 72.9574 -0.326172 47C-0.326172 21.0427 20.0103 3.05176e-05 45.0965 3.05176e-05C70.1827 3.05176e-05 90.5191 21.0427 90.5191 47Z" fill="white"/>
<path id="Vector_3" fill-rule="evenodd" clip-rule="evenodd" d="M45.0965 93.06C69.681 93.06 89.6107 72.4383 89.6107 47C89.6107 21.5618 69.681 0.940031 45.0965 0.940031C20.512 0.940031 0.582281 21.5618 0.582281 47C0.582281 72.4383 20.512 93.06 45.0965 93.06ZM45.0965 94C70.1827 94 90.5191 72.9574 90.5191 47C90.5191 21.0427 70.1827 3.05176e-05 45.0965 3.05176e-05C20.0103 3.05176e-05 -0.326172 21.0427 -0.326172 47C-0.326172 72.9574 20.0103 94 45.0965 94Z" fill="black" fill-opacity="0.15"/>
<path id="Vector_4" opacity="0.15" fill-rule="evenodd" clip-rule="evenodd" d="M12.5855 33.6523C12.7606 33.7235 12.8468 33.9281 12.778 34.1093C11.2944 38.0168 10.4851 42.2501 10.4851 46.7174C10.4851 62.0697 20.1965 75.0973 33.6412 79.5638C33.8203 79.6233 33.9189 79.8216 33.8614 80.0074C33.8039 80.1924 33.612 80.2945 33.4329 80.235C19.7148 75.6775 9.80371 62.3852 9.80371 46.7174C9.80371 42.1608 10.6295 37.8401 12.1438 33.8515C12.2126 33.6704 12.4103 33.5811 12.5855 33.6523ZM77.6538 33.6523C77.8291 33.5811 78.0271 33.6704 78.096 33.8515C79.6098 37.8401 80.4359 42.1608 80.4359 46.7174C80.4359 62.3852 70.5248 75.6775 56.8067 80.235C56.6276 80.2945 56.4357 80.1924 56.3782 80.0074C56.3207 79.8216 56.4193 79.6233 56.5984 79.5638C70.0432 75.0973 79.7546 62.0697 79.7546 46.7174C79.7546 42.2501 78.9455 38.0168 77.4615 34.1093C77.3926 33.9281 77.4792 33.7235 77.6538 33.6523Z" fill="black"/>
<path id="Vector_5" d="M12.7337 32.3834L15.0957 29.3284L14.7777 25.3804L12.4157 28.4824L12.7337 32.3834ZM10.0537 36.8954L11.053 33.4174L9.46325 31.2554C9.00903 32.2894 8.64565 33.4174 8.28227 34.4984L10.0537 36.8954ZM13.7784 34.2634L12.7791 37.7414L15.0502 36.9424C15.3682 35.7204 15.777 34.5454 16.1858 33.4174L13.7784 34.2634ZM8.60022 44.3684L9.05445 40.7494L7.10128 38.8694C6.87416 40.0444 6.69251 41.1724 6.55624 42.3944L8.60022 44.3684ZM11.9161 41.1254L11.4619 44.7444L14.0509 43.2874C14.1418 42.0654 14.2781 40.8904 14.4597 39.6684L11.9161 41.1254ZM8.69107 47.6584L6.2837 45.8724C6.2837 46.3424 6.23828 46.7654 6.23828 47.2354C6.23828 47.9874 6.2837 48.7394 6.2837 49.4914L8.69107 51.2774V47.6584ZM11.5527 47.6584L11.5981 51.3244L14.1872 49.3504C14.0509 48.2224 13.9601 47.0474 13.9601 45.8724L11.5527 47.6584ZM10.2354 58.2804L9.50868 54.7084L6.69251 53.3924C6.87416 54.6144 7.10128 55.7894 7.37381 56.9644L10.2354 58.2804ZM12.3249 54.0974L13.0516 57.6694L15.3682 55.0844C15.0502 53.9564 14.7777 52.8284 14.5506 51.6534L12.3249 54.0974ZM13.1879 64.6724L11.7798 61.3354L8.50938 60.6304C8.87276 61.7584 9.32699 62.8394 9.78121 63.9204L13.1879 64.6724ZM14.3689 60.1604L15.777 63.4974L17.5031 60.4424C16.958 59.3614 16.5038 58.2334 16.0495 57.1054L14.3689 60.1604ZM17.3214 70.5944L15.3228 67.5864L11.5527 67.5394C12.1432 68.5734 12.7337 69.5604 13.415 70.5474L17.3214 70.5944ZM17.6393 65.8944L19.6379 68.9024L20.7735 65.6124C20.0467 64.6724 19.3654 63.6854 18.7295 62.6514L17.6393 65.8944ZM18.5932 76.6574L22.6812 75.8114L20.0922 73.3204L16.1858 74.1664C16.958 75.0124 17.7756 75.8584 18.5932 76.6574ZM22.4541 67.5864L22.0453 71.1584L24.6344 73.6494L25.0432 70.1714C24.1348 69.3254 23.2717 68.4794 22.4541 67.5864ZM26.2696 78.3494L22.8629 80.2294C23.5443 80.6994 24.2256 81.2164 24.9524 81.6394L25.7246 82.0154L29.4946 79.9474L26.2696 78.3494ZM27.496 75.6704L30.6756 77.2684L30.0851 73.6964C28.9496 73.0384 27.8594 72.3334 26.8147 71.5344L27.496 75.6704ZM77.8243 28.4824L75.4624 25.3804L75.1444 29.3284L77.5064 32.3834L77.8243 28.4824ZM79.187 33.4174L80.1863 36.8954L81.9578 34.4984C81.5944 33.4174 81.1856 32.3364 80.7768 31.2554L79.187 33.4174ZM77.461 37.7884L76.4617 34.3104L74.0543 33.4644C74.5085 34.5924 74.8719 35.8144 75.1898 36.9894L77.461 37.7884ZM83.6839 42.3474C83.5476 41.1724 83.3659 39.9974 83.1388 38.8224L81.1856 40.7024L81.6398 44.3214L83.6839 42.3474ZM78.7782 44.7444L78.324 41.1254L75.7803 39.7154C76.0074 40.8904 76.1437 42.1124 76.1891 43.3344L78.7782 44.7444ZM81.5036 51.3244L83.911 49.5384C83.9564 48.7864 83.9564 48.0344 83.9564 47.2824C83.9564 46.8124 83.9564 46.3424 83.911 45.9194L81.5036 47.7054V51.3244ZM78.642 51.2774L78.6874 47.6114L76.28 45.7784C76.28 46.9534 76.1891 48.1284 76.0529 49.2564L78.642 51.2774ZM80.7314 54.7084L80.0046 58.2804L82.8663 56.9644C83.1388 55.7894 83.3659 54.6144 83.5476 53.3924L80.7314 54.7084ZM77.1884 57.6694L77.9152 54.0974L75.7349 51.6064C75.5078 52.7814 75.2353 53.9094 74.9173 55.0374L77.1884 57.6694ZM78.5057 61.3354L77.0976 64.6724L80.5497 63.9204C81.0039 62.8394 81.4582 61.7584 81.8215 60.6304L78.5057 61.3354ZM74.4631 63.4504L75.8712 60.1134L74.1905 57.1054C73.7817 58.2334 73.2821 59.3614 72.737 60.3954L74.4631 63.4504ZM74.9173 67.5864L72.9187 70.5944L76.8251 70.5474C77.5064 69.5604 78.0969 68.5734 78.6874 67.5394L74.9173 67.5864ZM70.5567 68.9024L72.5553 65.8944L71.4652 62.6514C70.8293 63.6854 70.1479 64.6724 69.4212 65.6124L70.5567 68.9024ZM74.0543 74.1194L70.1479 73.2734L67.5588 75.7644L71.6469 76.6104C72.4645 75.8584 73.2821 75.0124 74.0543 74.1194ZM65.1968 70.1244L65.6057 73.6024L68.1947 71.1114L67.7859 67.5394C66.9683 68.4794 66.1053 69.3254 65.1968 70.1244ZM63.9704 78.3494L60.7908 79.9474L64.5609 82.0154L65.3331 81.6394C66.0599 81.2164 66.7412 80.6994 67.4226 80.2294L63.9704 78.3494ZM59.5644 77.2684L62.744 75.6704L63.4254 71.5344C62.3806 72.3334 61.2905 73.0384 60.1549 73.6964L59.5644 77.2684Z" fill="#00CEA6"/>
<path id="Vector_6" d="M59.9955 21.855L51.9557 13.536L48.549 17.108L49.6846 18.283L51.9557 15.933L57.6789 21.855L51.9557 27.777L49.6846 25.38L48.549 24.205L46.2324 21.855L48.549 19.505L47.368 18.283L45.0969 20.633L42.8257 18.283L41.6448 17.108L38.2381 13.536L30.1982 21.855L38.2381 30.127L41.6448 26.602L40.5092 25.38L38.2381 27.777L32.5148 21.855L38.2381 15.933L40.5092 18.283L41.6448 19.505L43.9613 21.855L41.6448 24.205L42.8257 25.38L45.0969 23.03L47.368 25.38L48.549 26.602L51.9557 30.127L59.9955 21.855Z" fill="#00CEA6"/>
<path id="Vector_7" d="M45.0959 15.9329L47.3671 18.283L48.5481 19.505L50.8192 21.855L48.5481 24.2049L49.6836 25.38L53.1358 21.855L49.6836 18.283L48.5481 17.1079L45.0959 13.5359L41.6438 17.1079L42.8248 18.283L45.0959 15.9329ZM47.3671 25.38L45.0959 27.777L42.8248 25.38L41.6438 24.2049L39.3727 21.855L41.6438 19.505L40.5083 18.283L37.1016 21.855L40.5083 25.38L41.6438 26.6019L45.0959 30.1269L48.5481 26.6019L47.3671 25.38Z" fill="#024B6D"/>
<path id="Vector_8" opacity="0.15" fill-rule="evenodd" clip-rule="evenodd" d="M20.3369 47.5634C20.3369 47.3687 20.4894 47.2108 20.6776 47.2108H69.8703C70.0585 47.2108 70.211 47.3687 70.211 47.5634C70.211 47.7581 70.0585 47.9159 69.8703 47.9159H20.6776C20.4894 47.9159 20.3369 47.7581 20.3369 47.5634Z" fill="black"/>
<path id="Vector_9" d="M23.7056 53.789C23.9105 53.789 24.0699 53.7595 24.1837 53.7006C24.3627 53.6081 24.4521 53.4415 24.4521 53.2008C24.4521 52.9585 24.357 52.7952 24.1667 52.7111C24.0593 52.6639 23.8999 52.6404 23.6885 52.6404H22.8224V53.789H23.7056ZM23.869 55.5005C24.1667 55.5005 24.3789 55.4114 24.5058 55.233C24.5855 55.1202 24.6253 54.9839 24.6253 54.824C24.6253 54.5547 24.5091 54.3713 24.2764 54.2737C24.1529 54.2215 23.9894 54.1955 23.7861 54.1955H22.8224V55.5005H23.869ZM22.3467 52.2213H23.8861C24.3057 52.2213 24.6042 52.3509 24.7815 52.6101C24.8856 52.7632 24.9376 52.94 24.9376 53.1402C24.9376 53.3741 24.8734 53.566 24.7449 53.7158C24.6782 53.7949 24.5823 53.8673 24.457 53.9329C24.6408 54.0053 24.7782 54.0868 24.8693 54.1778C25.0303 54.3393 25.1109 54.5623 25.1109 54.8467C25.1109 55.0857 25.0385 55.3019 24.8937 55.4955C24.6774 55.7849 24.3334 55.9297 23.8617 55.9297H22.3467V52.2213Z" fill="#00CEA6"/>
<path id="Vector_10" d="M26.6183 53.1647C26.8037 53.1647 26.9834 53.2101 27.1575 53.301C27.3315 53.3902 27.4641 53.5064 27.5551 53.6494C27.643 53.7857 27.7016 53.9447 27.7308 54.1265C27.7568 54.251 27.7698 54.4496 27.7698 54.7223H25.8547C25.8628 54.9966 25.9255 55.217 26.0426 55.3836C26.1597 55.5486 26.341 55.6311 26.5866 55.6311C26.8159 55.6311 26.9989 55.5528 27.1355 55.3963C27.2136 55.3054 27.2689 55.2002 27.3014 55.0807H27.7333C27.7218 55.18 27.6837 55.2911 27.6186 55.414C27.5551 55.5351 27.4836 55.6344 27.4039 55.7118C27.2705 55.8465 27.1054 55.9374 26.9086 55.9845C26.8029 56.0114 26.6834 56.0249 26.55 56.0249C26.2247 56.0249 25.949 55.9029 25.723 55.6588C25.4968 55.4131 25.3838 55.0698 25.3838 54.6289C25.3838 54.1947 25.4977 53.8421 25.7254 53.5711C25.9531 53.3002 26.2507 53.1647 26.6183 53.1647ZM27.3185 54.3613C27.3006 54.1644 27.2591 54.007 27.1941 53.8892C27.0737 53.6704 26.8729 53.561 26.5915 53.561C26.3898 53.561 26.2206 53.6368 26.084 53.7882C25.9474 53.938 25.875 54.129 25.8669 54.3613H27.3185Z" fill="#00CEA6"/>
<path id="Vector_11" d="M28.4738 55.0808C28.4868 55.2323 28.5234 55.3484 28.5836 55.4292C28.6942 55.5756 28.8861 55.6489 29.1594 55.6489C29.322 55.6489 29.4651 55.6126 29.5887 55.5402C29.7124 55.4662 29.7741 55.3526 29.7741 55.1995C29.7741 55.0834 29.7246 54.995 29.6254 54.9344C29.5619 54.8974 29.4366 54.8545 29.2496 54.8056L28.9007 54.7148C28.6779 54.6576 28.5136 54.5936 28.4079 54.5229C28.2193 54.4 28.1249 54.2301 28.1249 54.013C28.1249 53.7572 28.2136 53.5502 28.3909 53.392C28.5698 53.2338 28.8097 53.1547 29.1105 53.1547C29.5041 53.1547 29.788 53.2742 29.962 53.5131C30.071 53.6646 30.1239 53.8279 30.1206 54.0029H29.7058C29.6977 53.9002 29.6628 53.8068 29.601 53.7227C29.5001 53.6032 29.3252 53.5435 29.0764 53.5435C28.9105 53.5435 28.7845 53.5763 28.6982 53.6419C28.6137 53.7075 28.5714 53.7942 28.5714 53.9019C28.5714 54.0197 28.6275 54.114 28.7397 54.1847C28.8048 54.2267 28.9007 54.2637 29.0276 54.2958L29.3179 54.3689C29.6335 54.4481 29.8449 54.5246 29.9523 54.5987C30.123 54.7148 30.2084 54.8974 30.2084 55.1465C30.2084 55.3871 30.1198 55.5949 29.9425 55.77C29.7668 55.945 29.4985 56.0326 29.1374 56.0326C28.7487 56.0326 28.473 55.9416 28.3103 55.7599C28.1493 55.5764 28.0631 55.3501 28.0518 55.0808H28.4738Z" fill="#00CEA6"/>
<path id="Vector_12" d="M30.6955 52.4705H31.1395V53.2254H31.5567V53.5965H31.1395V55.361C31.1395 55.4552 31.1705 55.5184 31.2322 55.5503C31.2664 55.5688 31.3234 55.5781 31.4031 55.5781C31.4242 55.5781 31.4469 55.5781 31.4713 55.5781C31.4957 55.5764 31.5242 55.5739 31.5567 55.5705V55.929C31.5063 55.9442 31.4534 55.9551 31.3982 55.9618C31.3445 55.9686 31.2859 55.9719 31.2225 55.9719C31.0175 55.9719 30.8785 55.918 30.8053 55.8104C30.7321 55.701 30.6955 55.5596 30.6955 55.3863V53.5965H30.3418V53.2254H30.6955V52.4705Z" fill="#00CEA6"/>
<path id="Vector_13" d="M33.486 52.2213L34.1618 55.238L34.9718 52.2213H35.4987L36.3087 55.238L36.9845 52.2213H37.5164L36.5746 55.9297H36.0648L35.2377 52.8549L34.4058 55.9297H33.8958L32.959 52.2213H33.486Z" fill="#00CEA6"/>
<path id="Vector_14" d="M38.8117 53.1647C38.9971 53.1647 39.1768 53.2101 39.3508 53.301C39.5249 53.3902 39.6574 53.5064 39.7485 53.6494C39.8363 53.7857 39.8948 53.9447 39.9242 54.1265C39.9502 54.251 39.9632 54.4496 39.9632 54.7223H38.0481C38.0561 54.9966 38.1187 55.217 38.2358 55.3836C38.353 55.5486 38.5344 55.6311 38.7799 55.6311C39.0092 55.6311 39.1922 55.5528 39.3288 55.3963C39.4069 55.3054 39.4623 55.2002 39.4948 55.0807H39.9266C39.9152 55.18 39.877 55.2911 39.8119 55.414C39.7485 55.5351 39.677 55.6344 39.5973 55.7118C39.4639 55.8465 39.2988 55.9374 39.102 55.9845C38.9963 56.0114 38.8767 56.0249 38.7433 56.0249C38.418 56.0249 38.1424 55.9029 37.9163 55.6588C37.6902 55.4131 37.5771 55.0698 37.5771 54.6289C37.5771 54.1947 37.691 53.8421 37.9187 53.5711C38.1464 53.3002 38.4441 53.1647 38.8117 53.1647ZM39.5119 54.3613C39.494 54.1644 39.4525 54.007 39.3874 53.8892C39.2671 53.6704 39.0662 53.561 38.7848 53.561C38.5831 53.561 38.414 53.6368 38.2774 53.7882C38.1407 53.938 38.0684 54.129 38.0602 54.3613H39.5119Z" fill="#00CEA6"/>
<path id="Vector_15" d="M40.3662 52.208H40.7932V53.5536C40.8891 53.424 41.0038 53.3255 41.1371 53.2582C41.2705 53.1892 41.4153 53.1547 41.5714 53.1547C41.8967 53.1547 42.1602 53.2708 42.3619 53.5031C42.5652 53.7336 42.6669 54.0745 42.6669 54.5255C42.6669 54.953 42.5668 55.3081 42.3667 55.5908C42.1667 55.8735 41.8894 56.0149 41.5348 56.0149C41.3364 56.0149 41.1688 55.9653 41.0322 55.866C40.951 55.8071 40.8639 55.7128 40.7712 55.5832V55.929H40.3662V52.208ZM41.508 55.6135C41.7454 55.6135 41.9227 55.5159 42.0398 55.3207C42.1586 55.1255 42.218 54.8679 42.218 54.5482C42.218 54.2638 42.1586 54.0282 42.0398 53.8414C41.9227 53.6545 41.7495 53.5611 41.5202 53.5611C41.3202 53.5611 41.1445 53.6377 40.9932 53.7909C40.8436 53.944 40.7688 54.1964 40.7688 54.5482C40.7688 54.8024 40.7996 55.0085 40.8615 55.1667C40.9769 55.4646 41.1925 55.6135 41.508 55.6135Z" fill="#00CEA6"/>
<path id="Vector_16" d="M45.812 55.5005C45.9763 55.5005 46.1113 55.4829 46.217 55.4476C46.4057 55.3819 46.5602 55.2557 46.6806 55.0688C46.7766 54.9191 46.8457 54.7272 46.8879 54.4933C46.9123 54.3536 46.9245 54.224 46.9245 54.1045C46.9245 53.6451 46.8359 53.2883 46.6586 53.0342C46.4829 52.7801 46.1991 52.653 45.8071 52.653H44.9459V55.5005H45.812ZM44.458 52.2213H45.9096C46.4025 52.2213 46.7846 52.4023 47.0563 52.7641C47.2986 53.0906 47.4198 53.5088 47.4198 54.0187C47.4198 54.4125 47.3482 54.7685 47.2051 55.0865C46.953 55.6486 46.5196 55.9297 45.9047 55.9297H44.458V52.2213Z" fill="#00CEA6"/>
<path id="Vector_17" d="M48.9747 53.1647C49.1601 53.1647 49.3399 53.2101 49.5139 53.301C49.6879 53.3902 49.8205 53.5064 49.9116 53.6494C49.9994 53.7857 50.0579 53.9447 50.0872 54.1265C50.1132 54.251 50.1263 54.4496 50.1263 54.7223H48.2111C48.2192 54.9966 48.2818 55.217 48.3989 55.3836C48.516 55.5486 48.6974 55.6311 48.943 55.6311C49.1723 55.6311 49.3553 55.5528 49.4919 55.3963C49.57 55.3054 49.6253 55.2002 49.6578 55.0807H50.0897C50.0783 55.18 50.04 55.2911 49.975 55.414C49.9116 55.5351 49.84 55.6344 49.7603 55.7118C49.6269 55.8465 49.4618 55.9374 49.265 55.9845C49.1593 56.0114 49.0397 56.0249 48.9064 56.0249C48.5811 56.0249 48.3055 55.9029 48.0793 55.6588C47.8533 55.4131 47.7402 55.0698 47.7402 54.6289C47.7402 54.1947 47.8541 53.8421 48.0818 53.5711C48.3095 53.3002 48.6072 53.1647 48.9747 53.1647ZM49.6749 54.3613C49.657 54.1644 49.6155 54.007 49.5505 53.8892C49.4301 53.6704 49.2292 53.561 48.9479 53.561C48.7462 53.561 48.5771 53.6368 48.4405 53.7882C48.3038 53.938 48.2314 54.129 48.2233 54.3613H49.6749Z" fill="#00CEA6"/>
<path id="Vector_18" d="M50.7853 53.2264L51.483 55.4277L52.2125 53.2264H52.6931L51.7075 55.93H51.2391L50.2754 53.2264H50.7853Z" fill="#00CEA6"/>
<path id="Vector_19" d="M54.0547 53.1647C54.2402 53.1647 54.4199 53.2101 54.5939 53.301C54.768 53.3902 54.9005 53.5064 54.9916 53.6494C55.0795 53.7857 55.138 53.9447 55.1672 54.1265C55.1933 54.251 55.2063 54.4496 55.2063 54.7223H53.2912C53.2992 54.9966 53.3619 55.217 53.479 55.3836C53.5961 55.5486 53.7775 55.6311 54.023 55.6311C54.2524 55.6311 54.4354 55.5528 54.572 55.3963C54.6501 55.3054 54.7054 55.2002 54.7379 55.0807H55.1697C55.1583 55.18 55.1201 55.2911 55.055 55.414C54.9916 55.5351 54.9201 55.6344 54.8403 55.7118C54.707 55.8465 54.5419 55.9374 54.3451 55.9845C54.2393 56.0114 54.1198 56.0249 53.9865 56.0249C53.6611 56.0249 53.3855 55.9029 53.1594 55.6588C52.9333 55.4131 52.8203 55.0698 52.8203 54.6289C52.8203 54.1947 52.9342 53.8421 53.1618 53.5711C53.3895 53.3002 53.6872 53.1647 54.0547 53.1647ZM54.755 54.3613C54.7371 54.1644 54.6956 54.007 54.6306 53.8892C54.5102 53.6704 54.3093 53.561 54.0279 53.561C53.8262 53.561 53.6571 53.6368 53.5205 53.7882C53.3838 53.938 53.3114 54.129 53.3034 54.3613H54.755Z" fill="#00CEA6"/>
<path id="Vector_20" d="M55.6592 52.2213H56.0984V55.9297H55.6592V52.2213Z" fill="#00CEA6"/>
<path id="Vector_21" d="M57.6945 55.6369C57.9856 55.6369 58.1848 55.5232 58.2922 55.296C58.4012 55.0671 58.4557 54.813 58.4557 54.5337C58.4557 54.2812 58.4166 54.0759 58.3386 53.9177C58.2149 53.6687 58.0019 53.5441 57.6994 53.5441C57.431 53.5441 57.2358 53.6502 57.1138 53.8622C56.9918 54.0743 56.9309 54.33 56.9309 54.6296C56.9309 54.9174 56.9918 55.1572 57.1138 55.3491C57.2358 55.5409 57.4293 55.6369 57.6945 55.6369ZM57.7116 53.1478C58.0482 53.1478 58.3329 53.2639 58.5655 53.4962C58.798 53.7284 58.9143 54.07 58.9143 54.521C58.9143 54.9569 58.8119 55.3171 58.6069 55.6015C58.402 55.8859 58.084 56.0281 57.653 56.0281C57.2935 56.0281 57.0081 55.9028 56.7967 55.652C56.5852 55.3995 56.4795 55.0613 56.4795 54.6372C56.4795 54.1828 56.5909 53.821 56.8138 53.5517C57.0366 53.2824 57.3359 53.1478 57.7116 53.1478Z" fill="#00CEA6"/>
<path id="Vector_22" d="M60.4445 55.6243C60.6494 55.6243 60.8194 55.5359 60.9544 55.3591C61.091 55.1808 61.1593 54.9149 61.1593 54.5615C61.1593 54.3461 61.1292 54.1609 61.0691 54.0061C60.9552 53.7082 60.747 53.5593 60.4445 53.5593C60.1403 53.5593 59.9322 53.7166 59.82 54.0313C59.7598 54.1996 59.7297 54.4133 59.7297 54.6725C59.7297 54.8812 59.7598 55.0588 59.82 55.2052C59.9338 55.4846 60.142 55.6243 60.4445 55.6243ZM59.3076 53.2386H59.7345V53.5972C59.8224 53.4743 59.9183 53.3792 60.0225 53.3119C60.1704 53.2109 60.3445 53.1604 60.5445 53.1604C60.8406 53.1604 61.0918 53.2782 61.2984 53.5138C61.5049 53.7478 61.6082 54.0827 61.6082 54.5186C61.6082 55.1075 61.4594 55.5283 61.1618 55.7808C60.9731 55.9406 60.7535 56.0206 60.5031 56.0206C60.3063 56.0206 60.1412 55.9759 60.0078 55.8868C59.9297 55.8363 59.8427 55.7496 59.7467 55.6268V57.0076H59.3076V53.2386Z" fill="#00CEA6"/>
<path id="Vector_23" d="M63.1075 53.1647C63.2929 53.1647 63.4727 53.2101 63.6467 53.301C63.8208 53.3902 63.9533 53.5064 64.0444 53.6494C64.1322 53.7857 64.1907 53.9447 64.22 54.1265C64.2461 54.251 64.2591 54.4496 64.2591 54.7223H62.344C62.352 54.9966 62.4146 55.217 62.5317 55.3836C62.6489 55.5486 62.8303 55.6311 63.0758 55.6311C63.3051 55.6311 63.4881 55.5528 63.6247 55.3963C63.7028 55.3054 63.7582 55.2002 63.7907 55.0807H64.2225C64.2111 55.18 64.1728 55.2911 64.1078 55.414C64.0444 55.5351 63.9728 55.6344 63.8931 55.7118C63.7597 55.8465 63.5946 55.9374 63.3978 55.9845C63.2921 56.0114 63.1726 56.0249 63.0392 56.0249C62.7139 56.0249 62.4383 55.9029 62.2122 55.6588C61.9861 55.4131 61.873 55.0698 61.873 54.6289C61.873 54.1947 61.9869 53.8421 62.2146 53.5711C62.4423 53.3002 62.74 53.1647 63.1075 53.1647ZM63.8078 54.3613C63.7898 54.1644 63.7484 54.007 63.6833 53.8892C63.563 53.6704 63.3621 53.561 63.0807 53.561C62.879 53.561 62.7099 53.6368 62.5733 53.7882C62.4366 53.938 62.3642 54.129 62.3561 54.3613H63.8078Z" fill="#00CEA6"/>
<path id="Vector_24" d="M64.7129 53.2253H65.1301V53.6923C65.1642 53.6014 65.248 53.4912 65.3814 53.3616C65.5147 53.2303 65.6685 53.1647 65.8425 53.1647C65.8506 53.1647 65.8644 53.1655 65.8839 53.1672C65.9035 53.1689 65.9368 53.1723 65.9839 53.1773V53.657C65.958 53.6519 65.9336 53.6485 65.9108 53.6469C65.8896 53.6452 65.8661 53.6444 65.84 53.6444C65.6189 53.6444 65.4489 53.7184 65.3301 53.8665C65.2114 54.0129 65.1521 54.1821 65.1521 54.3739V55.9289H64.7129V53.2253Z" fill="#00CEA6"/>
<path id="Vector_25" d="M66.5266 55.0808C66.5396 55.2323 66.5762 55.3484 66.6364 55.4292C66.7469 55.5756 66.9388 55.6489 67.2121 55.6489C67.3748 55.6489 67.5179 55.6126 67.6415 55.5402C67.7651 55.4662 67.8269 55.3526 67.8269 55.1995C67.8269 55.0834 67.7773 54.995 67.6781 54.9344C67.6147 54.8974 67.4895 54.8545 67.3024 54.8056L66.9535 54.7148C66.7307 54.6576 66.5664 54.5936 66.4607 54.5229C66.2721 54.4 66.1777 54.2301 66.1777 54.013C66.1777 53.7572 66.2663 53.5502 66.4436 53.392C66.6225 53.2338 66.8624 53.1547 67.1633 53.1547C67.557 53.1547 67.8408 53.2742 68.0148 53.5131C68.1237 53.6646 68.1766 53.8279 68.1734 54.0029H67.7586C67.7505 53.9002 67.7155 53.8068 67.6537 53.7227C67.5528 53.6032 67.378 53.5435 67.1292 53.5435C66.9633 53.5435 66.8372 53.5763 66.751 53.6419C66.6665 53.7075 66.6242 53.7942 66.6242 53.9019C66.6242 54.0197 66.6803 54.114 66.7925 54.1847C66.8576 54.2267 66.9535 54.2637 67.0804 54.2958L67.3707 54.3689C67.6863 54.4481 67.8977 54.5246 68.005 54.5987C68.1758 54.7148 68.2612 54.8974 68.2612 55.1465C68.2612 55.3871 68.1726 55.5949 67.9953 55.77C67.8196 55.945 67.5513 56.0326 67.1902 56.0326C66.8014 56.0326 66.5258 55.9416 66.3631 55.7599C66.2021 55.5764 66.1159 55.3501 66.1045 55.0808H66.5266Z" fill="#00CEA6"/>
<path id="Vector_26" d="M28.1885 60.9293H28.635V63.6204H28.1885V60.9293ZM28.1885 59.912H28.635V60.427H28.1885V59.912Z" fill="#00CEA6"/>
<path id="Vector_27" d="M29.2051 60.9162H29.6223V61.2999C29.7459 61.1417 29.8768 61.0281 30.015 60.9591C30.1533 60.8901 30.307 60.8556 30.4761 60.8556C30.847 60.8556 31.0975 60.9894 31.2276 61.257C31.2991 61.4034 31.3349 61.613 31.3349 61.8856V63.6199H30.8885V61.9159C30.8885 61.7509 30.8649 61.6179 30.8177 61.517C30.7397 61.3487 30.5981 61.2646 30.3932 61.2646C30.2891 61.2646 30.2037 61.2755 30.137 61.2974C30.0167 61.3344 29.911 61.4084 29.8198 61.5195C29.7467 61.6087 29.6987 61.7013 29.6759 61.7972C29.6548 61.8914 29.6442 62.0269 29.6442 62.2036V63.6199H29.2051V60.9162Z" fill="#00CEA6"/>
<path id="Vector_28" d="M33.2305 59.912H33.8038L35.6141 62.9161V59.912H36.0752V63.6204H35.5311L33.6941 60.6189V63.6204H33.2305V59.912Z" fill="#00CEA6"/>
<path id="Vector_29" d="M37.7755 60.8556C37.9609 60.8556 38.1406 60.901 38.3146 60.9919C38.4887 61.0811 38.6212 61.1972 38.7124 61.3403C38.8002 61.4766 38.8587 61.6356 38.888 61.8174C38.914 61.942 38.9271 62.1405 38.9271 62.4131H37.0118C37.02 62.6875 37.0826 62.9079 37.1997 63.0746C37.3168 63.2395 37.4982 63.3219 37.7438 63.3219C37.9731 63.3219 38.1561 63.2437 38.2927 63.0872C38.3708 62.9963 38.4261 62.8911 38.4586 62.7716H38.8904C38.8791 62.8709 38.8408 62.982 38.7757 63.1048C38.7124 63.226 38.6407 63.3253 38.561 63.4027C38.4277 63.5374 38.2626 63.6282 38.0658 63.6754C37.9601 63.7023 37.8405 63.7158 37.7072 63.7158C37.3819 63.7158 37.1062 63.5937 36.8801 63.3497C36.654 63.104 36.541 62.7607 36.541 62.3198C36.541 61.8856 36.6549 61.533 36.8825 61.262C37.1103 60.9911 37.4079 60.8556 37.7755 60.8556ZM38.4757 62.0522C38.4578 61.8553 38.4163 61.6979 38.3512 61.5801C38.2309 61.3614 38.03 61.2519 37.7486 61.2519C37.547 61.2519 37.3778 61.3277 37.2412 61.4792C37.1045 61.6289 37.0322 61.8199 37.0241 62.0522H38.4757Z" fill="#00CEA6"/>
<path id="Vector_30" d="M39.5656 60.9173L40.0682 63.0479L40.5781 60.9173H41.0709L41.5832 63.0353L42.1175 60.9173H42.5567L41.7979 63.6209H41.3417L40.8098 61.5282L40.2951 63.6209H39.8388L39.085 60.9173H39.5656Z" fill="#00CEA6"/>
<path id="Vector_31" d="M43.8604 59.912H44.4264L45.456 61.6943L46.4855 59.912H47.0539L45.6999 62.1259V63.6204H45.2144V62.1259L43.8604 59.912Z" fill="#00CEA6"/>
<path id="Vector_32" d="M47.8908 63.3275C48.1819 63.3275 48.3812 63.2139 48.4885 62.9867C48.5975 62.7578 48.652 62.5037 48.652 62.2243C48.652 61.9719 48.6129 61.7666 48.5348 61.6084C48.4113 61.3593 48.1982 61.2347 47.8957 61.2347C47.6273 61.2347 47.4321 61.3408 47.3101 61.5529C47.1881 61.7649 47.1272 62.0207 47.1272 62.3203C47.1272 62.608 47.1881 62.8479 47.3101 63.0397C47.4321 63.2316 47.6257 63.3275 47.8908 63.3275ZM47.9079 60.8384C48.2446 60.8384 48.5292 60.9546 48.7617 61.1868C48.9943 61.4191 49.1106 61.7607 49.1106 62.2117C49.1106 62.6476 49.0082 63.0077 48.8032 63.2921C48.5983 63.5766 48.2803 63.7187 47.8493 63.7187C47.4898 63.7187 47.2044 63.5934 46.993 63.3426C46.7815 63.0902 46.6758 62.7519 46.6758 62.3278C46.6758 61.8734 46.7872 61.5116 47.0101 61.2423C47.2328 60.9731 47.5321 60.8384 47.9079 60.8384Z" fill="#00CEA6"/>
<path id="Vector_33" d="M49.5488 60.9162H49.966V61.3832C50.0002 61.2923 50.084 61.1821 50.2173 61.0525C50.3507 60.9212 50.5044 60.8556 50.6784 60.8556C50.6865 60.8556 50.7004 60.8565 50.7199 60.8581C50.7394 60.8598 50.7728 60.8632 50.82 60.8682V61.3478C50.7939 61.3428 50.7695 61.3395 50.7467 61.3378C50.7256 61.3361 50.702 61.3352 50.6759 61.3352C50.4548 61.3352 50.2848 61.4093 50.1661 61.5574C50.0473 61.7038 49.988 61.8729 49.988 62.0648V63.6199H49.5488V60.9162Z" fill="#00CEA6"/>
<path id="Vector_34" d="M51.0908 59.9119H51.5128V62.0653L52.64 60.9166H53.2011L52.2008 61.9289L53.2573 63.6203H52.6961L51.8812 62.2571L51.5128 62.6055V63.6203H51.0908V59.9119Z" fill="#00CEA6"/>
<path id="Vector_35" d="M56.3587 59.8114C56.8125 59.8114 57.1646 59.9351 57.4151 60.1825C57.6656 60.4299 57.8046 60.7109 57.8323 61.0256H57.359C57.3053 60.7866 57.198 60.5973 57.0369 60.4576C56.8775 60.318 56.6531 60.2481 56.3636 60.2481C56.0106 60.2481 55.7252 60.3769 55.5072 60.6343C55.2909 60.8901 55.1827 61.2831 55.1827 61.8132C55.1827 62.2475 55.2803 62.6 55.4755 62.871C55.6723 63.1402 55.9651 63.2749 56.3538 63.2749C56.7116 63.2749 56.984 63.1327 57.1711 62.8483C57.2703 62.6984 57.3444 62.5016 57.3931 62.2575H57.8664C57.8241 62.648 57.6843 62.9753 57.4468 63.2395C57.1622 63.5576 56.7783 63.7167 56.2952 63.7167C55.8789 63.7167 55.5292 63.5862 55.2462 63.3254C54.8737 62.9804 54.6875 62.4477 54.6875 61.7274C54.6875 61.1805 54.8274 60.7319 55.1072 60.3819C55.4096 60.0015 55.8268 59.8114 56.3587 59.8114Z" fill="#00CEA6"/>
<path id="Vector_36" d="M58.2979 60.9293H58.7443V63.6204H58.2979V60.9293ZM58.2979 59.912H58.7443V60.427H58.2979V59.912Z" fill="#00CEA6"/>
<path id="Vector_37" d="M59.3996 60.1614H59.8437V60.9162H60.2609V61.2872H59.8437V63.0518C59.8437 63.1461 59.8746 63.2092 59.9364 63.2411C59.9705 63.2597 60.0275 63.269 60.1072 63.269C60.1283 63.269 60.1511 63.269 60.1755 63.269C60.1999 63.2673 60.2283 63.2647 60.2609 63.2613V63.6198C60.2104 63.635 60.1576 63.6459 60.1023 63.6527C60.0486 63.6593 59.9901 63.6627 59.9266 63.6627C59.7217 63.6627 59.5826 63.6089 59.5094 63.5012C59.4362 63.3917 59.3996 63.2504 59.3996 63.0771V61.2872H59.0459V60.9162H59.3996V60.1614Z" fill="#00CEA6"/>
<path id="Vector_38" d="M62.237 60.9173H62.7224C62.6606 61.0907 62.5232 61.4861 62.3101 62.1037C62.1507 62.5682 62.0174 62.9469 61.91 63.2397C61.6563 63.9297 61.4774 64.3505 61.3733 64.502C61.2692 64.6534 61.0903 64.7291 60.8365 64.7291C60.7747 64.7291 60.7267 64.7266 60.6926 64.7215C60.6601 64.7165 60.6194 64.7072 60.5706 64.6938V64.2798C60.647 64.3016 60.7024 64.3151 60.7365 64.3202C60.7707 64.3252 60.8008 64.3278 60.8268 64.3278C60.9082 64.3278 60.9675 64.3135 61.0049 64.2848C61.0439 64.2579 61.0764 64.2242 61.1025 64.1838C61.1106 64.1704 61.1399 64.1014 61.1903 63.9769C61.2407 63.8523 61.2774 63.7597 61.3001 63.6992L60.334 60.9173H60.8317L61.5319 63.1186L62.237 60.9173Z" fill="#00CEA6"/>
<path id="Vector_39" d="M41.3976 82.5915V83.1364H38.0951V82.6598L39.7481 80.7555C39.9514 80.5213 40.1085 80.323 40.2194 80.16C40.3326 79.9955 40.4112 79.8479 40.4551 79.7193C40.5013 79.5879 40.5244 79.4535 40.5244 79.3176C40.5244 79.1451 40.4897 78.9901 40.4204 78.8513C40.3534 78.7103 40.2541 78.598 40.1224 78.5142C39.9907 78.4305 39.8313 78.3887 39.6441 78.3887C39.4201 78.3887 39.2329 78.4342 39.0827 78.5253C38.9349 78.6134 38.824 78.7375 38.7501 78.8983C38.6761 79.0584 38.6391 79.242 38.6391 79.4506H37.998C37.998 79.1561 38.0604 78.8873 38.1852 78.6435C38.31 78.3997 38.4948 78.2058 38.7396 78.0626C38.9846 77.9165 39.2861 77.8438 39.6441 77.8438C39.963 77.8438 40.2356 77.9025 40.462 78.0193C40.6884 78.1346 40.8617 78.2969 40.9818 78.5069C41.1042 78.7155 41.1655 78.9593 41.1655 79.2383C41.1655 79.3918 41.1401 79.5468 41.0893 79.7047C41.0407 79.8603 40.9726 80.0153 40.8848 80.171C40.7993 80.3267 40.6988 80.4794 40.5833 80.63C40.4701 80.7805 40.3488 80.9289 40.2194 81.0743L38.8679 82.5915H41.3976Z" fill="#024B6D"/>
<path id="Vector_40" d="M45.2507 80.11V80.9061C45.2507 81.3342 45.2138 81.6948 45.1399 81.9893C45.0659 82.283 44.9597 82.5195 44.8211 82.6987C44.6824 82.8779 44.5149 83.0086 44.3185 83.0901C44.1245 83.1687 43.905 83.2084 43.6601 83.2084C43.4661 83.2084 43.287 83.1834 43.123 83.1327C42.959 83.0828 42.811 83.0027 42.6794 82.8926C42.55 82.7802 42.4391 82.6341 42.3467 82.4549C42.2543 82.2757 42.1838 82.0583 42.1353 81.8028C42.0868 81.5465 42.0625 81.2476 42.0625 80.9061V80.11C42.0625 79.6819 42.0995 79.3235 42.1734 79.0342C42.2497 78.7448 42.3571 78.5128 42.4957 78.3387C42.6343 78.1617 42.8007 78.0347 42.9947 77.9583C43.1911 77.8819 43.4106 77.8438 43.6532 77.8438C43.8495 77.8438 44.0297 77.8687 44.1938 77.9194C44.3601 77.9671 44.508 78.0442 44.6374 78.1522C44.7668 78.2572 44.8765 78.3982 44.9666 78.5752C45.059 78.75 45.1295 78.9637 45.178 79.217C45.2265 79.4704 45.2507 79.7678 45.2507 80.11ZM44.6062 81.0133V79.9991C44.6062 79.7649 44.5923 79.5593 44.5646 79.3823C44.5392 79.2031 44.5011 79.0496 44.4502 78.9233C44.3994 78.7962 44.3347 78.6934 44.2562 78.6148C44.1799 78.5355 44.091 78.4783 43.9893 78.4423C43.89 78.4041 43.7779 78.385 43.6532 78.385C43.5007 78.385 43.3656 78.4151 43.2477 78.4746C43.1299 78.5326 43.0306 78.6244 42.9497 78.7507C42.8712 78.8778 42.811 79.0437 42.7695 79.2493C42.7279 79.455 42.7071 79.7047 42.7071 79.9991V81.0133C42.7071 81.2476 42.7198 81.4547 42.7453 81.6339C42.7729 81.813 42.8134 81.9687 42.8666 82.1002C42.9196 82.2294 42.9844 82.3359 43.0606 82.4189C43.1368 82.5026 43.2246 82.565 43.324 82.6054C43.4256 82.6436 43.5377 82.6627 43.6601 82.6627C43.8172 82.6627 43.9547 82.6319 44.0725 82.5702C44.1903 82.5078 44.2885 82.4108 44.3671 82.2794C44.4479 82.1457 44.508 81.9746 44.5473 81.7668C44.5866 81.556 44.6062 81.3056 44.6062 81.0133Z" fill="#024B6D"/>
<path id="Vector_41" d="M49.383 82.5915V83.1364H46.0804V82.6598L47.7334 80.7555C47.9368 80.5213 48.0938 80.323 48.2048 80.16C48.318 79.9955 48.3965 79.8479 48.4404 79.7193C48.4866 79.5879 48.5098 79.4535 48.5098 79.3176C48.5098 79.1451 48.475 78.9901 48.4058 78.8513C48.3388 78.7103 48.2394 78.598 48.1078 78.5142C47.976 78.4305 47.8166 78.3887 47.6295 78.3887C47.4054 78.3887 47.2183 78.4342 47.0681 78.5253C46.9202 78.6134 46.8093 78.7375 46.7354 78.8983C46.6615 79.0584 46.6245 79.242 46.6245 79.4506H45.9834C45.9834 79.1561 46.0458 78.8873 46.1706 78.6435C46.2953 78.3997 46.4801 78.2058 46.725 78.0626C46.9699 77.9165 47.2714 77.8438 47.6295 77.8438C47.9484 77.8438 48.221 77.9025 48.4474 78.0193C48.6738 78.1346 48.847 78.2969 48.9672 78.5069C49.0896 78.7155 49.1508 78.9593 49.1508 79.2383C49.1508 79.3918 49.1254 79.5468 49.0746 79.7047C49.0261 79.8603 48.9579 80.0153 48.8701 80.171C48.7846 80.3267 48.6841 80.4794 48.5687 80.63C48.4555 80.7805 48.3342 80.9289 48.2048 81.0743L46.8532 82.5915H49.383Z" fill="#024B6D"/>
<path id="Vector_42" d="M51.0072 80.1996H51.4646C51.6888 80.1996 51.8736 80.1614 52.0191 80.0851C52.167 80.0058 52.2767 79.8993 52.3483 79.7656C52.4223 79.6297 52.4593 79.4763 52.4593 79.3066C52.4593 79.1061 52.4269 78.9372 52.3622 78.8014C52.2975 78.6648 52.2005 78.562 52.0711 78.4929C51.9417 78.4232 51.7777 78.3887 51.579 78.3887C51.3988 78.3887 51.2394 78.4261 51.1008 78.5003C50.9645 78.5715 50.857 78.6743 50.7785 78.808C50.7022 78.9424 50.6641 79.1003 50.6641 79.2817H50.023C50.023 79.0165 50.0877 78.7749 50.2171 78.5576C50.3465 78.3395 50.5278 78.1661 50.7612 78.0376C50.9968 77.9084 51.2695 77.8438 51.579 77.8438C51.8839 77.8438 52.1508 77.8996 52.3795 78.0119C52.6083 78.1221 52.7862 78.2873 52.9132 78.5069C53.0403 78.725 53.1038 78.996 53.1038 79.3213C53.1038 79.4528 53.0738 79.5938 53.0137 79.7443C52.956 79.8927 52.8647 80.0315 52.74 80.16C52.6175 80.2892 52.4581 80.3957 52.2617 80.4794C52.0654 80.5609 51.8297 80.6013 51.5548 80.6013H51.0072V80.1996ZM51.0072 80.7445V80.3465H51.5548C51.8759 80.3465 52.1416 80.3862 52.3518 80.4647C52.5621 80.544 52.7272 80.6491 52.8474 80.7805C52.9698 80.912 53.0553 81.0566 53.1038 81.2145C53.1546 81.3695 53.1801 81.5252 53.1801 81.6809C53.1801 81.9247 53.1397 82.1406 53.0588 82.3293C52.9802 82.5188 52.8682 82.6789 52.7226 82.8103C52.5794 82.9418 52.4107 83.0409 52.2167 83.1077C52.0226 83.1746 51.8112 83.2084 51.5825 83.2084C51.363 83.2084 51.1563 83.176 50.9622 83.1114C50.7704 83.0468 50.6006 82.9535 50.4527 82.8316C50.3049 82.7075 50.1894 82.5555 50.1062 82.3763C50.023 82.1942 49.9814 81.9878 49.9814 81.7558H50.6225C50.6225 81.9379 50.6607 82.0965 50.7369 82.2331C50.8154 82.369 50.9264 82.4755 51.0696 82.5518C51.2152 82.626 51.3861 82.6627 51.5825 82.6627C51.7788 82.6627 51.9475 82.6282 52.0884 82.5592C52.2317 82.4872 52.3414 82.38 52.4177 82.236C52.4962 82.0928 52.5355 81.9122 52.5355 81.6948C52.5355 81.4774 52.4916 81.299 52.4038 81.1609C52.316 81.0199 52.1913 80.9156 52.0295 80.8488C51.8701 80.779 51.6818 80.7445 51.4646 80.7445H51.0072Z" fill="#024B6D"/>
<path id="Vector_43" d="M25.0158 37.3761H22.2478V38.5254H24.7887V39.4654H22.2478V40.8571H25.1435V41.8301H21.1797V36.4178H25.0158V37.3761Z" fill="#024B6D"/>
<path id="Vector_44" d="M25.54 41.83L26.8601 39.8031L25.5968 37.835H26.8353L27.4811 38.9953L28.1128 37.835H29.3158L28.0454 39.7848L29.3655 41.83H28.1057L27.4386 40.6293L26.7679 41.83H25.54Z" fill="#024B6D"/>
<path id="Vector_45" d="M32.629 39.8293C32.629 39.5209 32.5604 39.2479 32.4231 39.0105C32.2883 38.773 32.0683 38.6543 31.7631 38.6543C31.3965 38.6543 31.1445 38.8342 31.0072 39.1941C30.9363 39.385 30.9008 39.6273 30.9008 39.9211C30.9008 40.3862 31.0203 40.713 31.2592 40.9015C31.4011 41.0116 31.5691 41.0667 31.7631 41.0667C32.0446 41.0667 32.2588 40.9541 32.4054 40.7289C32.5544 40.5037 32.629 40.2038 32.629 39.8293ZM32.0541 37.74C32.506 37.74 32.888 37.9126 33.2003 38.2577C33.515 38.6029 33.6723 39.1096 33.6723 39.7779C33.6723 40.4829 33.5185 41.0202 33.2109 41.3898C32.9058 41.7594 32.5119 41.9443 32.0292 41.9443C31.7217 41.9443 31.4662 41.8648 31.2627 41.7056C31.1516 41.6175 31.0427 41.489 30.9363 41.3201V43.4057H29.9355V37.8281H30.9043V38.4193C31.0132 38.2455 31.1291 38.1084 31.2521 38.008C31.4769 37.8294 31.7442 37.74 32.0541 37.74Z" fill="#024B6D"/>
<path id="Vector_46" d="M35.9327 38.5841C35.6985 38.5841 35.5163 38.6599 35.3862 38.8117C35.2584 38.9635 35.178 39.1691 35.1449 39.4286H36.7169C36.7004 39.1519 36.6188 38.9426 36.4721 38.8007C36.3278 38.6562 36.148 38.5841 35.9327 38.5841ZM35.9327 37.7212C36.2545 37.7212 36.5442 37.7836 36.8021 37.9084C37.06 38.0333 37.2729 38.2303 37.4408 38.4996C37.5923 38.737 37.6905 39.0124 37.7354 39.3258C37.7614 39.5094 37.7721 39.7737 37.7673 40.1189H35.12C35.1342 40.5204 35.2561 40.8019 35.4855 40.9634C35.6251 41.0638 35.7931 41.114 35.9894 41.114C36.1977 41.114 36.3668 41.0528 36.4969 40.9304C36.5679 40.8643 36.6306 40.7725 36.685 40.655H37.7176C37.6917 40.8924 37.5721 41.1336 37.3592 41.3783C37.0281 41.7676 36.5643 41.9622 35.9682 41.9622C35.4761 41.9622 35.042 41.7982 34.6658 41.4701C34.2896 41.1421 34.1016 40.6085 34.1016 39.8692C34.1016 39.1765 34.2708 38.6452 34.609 38.2756C34.9497 37.906 35.3909 37.7212 35.9327 37.7212Z" fill="#024B6D"/>
<path id="Vector_47" d="M40.5538 37.7328C40.5728 37.7328 40.5882 37.7341 40.6 37.7365C40.6142 37.7365 40.6437 37.7377 40.6887 37.7402V38.8123C40.6248 38.805 40.568 38.8001 40.5183 38.7977C40.4687 38.7952 40.4285 38.794 40.3977 38.794C39.9908 38.794 39.7176 38.9311 39.5779 39.2052C39.4999 39.3595 39.4608 39.5969 39.4608 39.9176V41.8306H38.4424V37.8283H39.4076V38.5259C39.5638 38.2591 39.6998 38.0767 39.8157 37.9788C40.005 37.8148 40.2511 37.7328 40.5538 37.7328Z" fill="#024B6D"/>
<path id="Vector_48" d="M40.8887 38.6091V37.8637H41.4281V36.7474H42.4288V37.8637H43.0569V38.6091H42.4288V40.7241C42.4288 40.8881 42.4489 40.9909 42.4891 41.0325C42.5294 41.0717 42.6523 41.0913 42.8582 41.0913C42.889 41.0913 42.9209 41.0913 42.954 41.0913C42.9895 41.0888 43.0238 41.0863 43.0569 41.0839V41.866L42.5778 41.8844C42.1 41.9015 41.7735 41.8159 41.5984 41.6274C41.4848 41.5074 41.4281 41.3226 41.4281 41.0729V38.6091H40.8887Z" fill="#024B6D"/>
<path id="Vector_49" d="M44.7394 37.3503H43.7139V36.3846H44.7394V37.3503ZM43.7139 37.8276H44.7394V41.8299H43.7139V37.8276Z" fill="#024B6D"/>
<path id="Vector_50" d="M46.5138 40.5522C46.5351 40.7382 46.5813 40.8704 46.6522 40.9488C46.7776 41.0883 47.0095 41.1581 47.3478 41.1581C47.5465 41.1581 47.7038 41.1274 47.8197 41.0663C47.9381 41.0051 47.9972 40.9133 47.9972 40.7909C47.9972 40.6734 47.9499 40.584 47.8552 40.5228C47.7606 40.4616 47.4093 40.3563 46.8013 40.207C46.3637 40.0945 46.0549 39.9537 45.8751 39.7848C45.6953 39.6183 45.6054 39.3784 45.6054 39.0651C45.6054 38.6955 45.745 38.3784 46.0241 38.1141C46.3057 37.8473 46.7008 37.7138 47.2094 37.7138C47.692 37.7138 48.0848 37.8142 48.3875 38.0149C48.6927 38.2132 48.8678 38.5571 48.9127 39.0467H47.9014C47.8872 38.9121 47.8505 38.8056 47.7913 38.7273C47.6802 38.5853 47.4909 38.5143 47.2236 38.5143C47.0036 38.5143 46.8463 38.5498 46.7516 38.6208C46.6593 38.6918 46.6132 38.775 46.6132 38.8705C46.6132 38.9904 46.6629 39.0774 46.7622 39.1312C46.8616 39.1875 47.2129 39.2842 47.8162 39.4213C48.2184 39.5192 48.52 39.6673 48.7211 39.8656C48.9198 40.0663 49.0192 40.3172 49.0192 40.6183C49.0192 41.0149 48.8761 41.3392 48.5898 41.5913C48.3059 41.841 47.8659 41.9659 47.2697 41.9659C46.6617 41.9659 46.2122 41.8337 45.9212 41.5693C45.6326 41.3025 45.4883 40.9634 45.4883 40.5522H46.5138Z" fill="#024B6D"/>
<path id="Vector_51" d="M51.2959 38.5841C51.0617 38.5841 50.8796 38.6599 50.7495 38.8117C50.6217 38.9635 50.5413 39.1691 50.5081 39.4286H52.0802C52.0637 39.1519 51.982 38.9426 51.8353 38.8007C51.6911 38.6562 51.5113 38.5841 51.2959 38.5841ZM51.2959 37.7212C51.6177 37.7212 51.9075 37.7836 52.1654 37.9084C52.4233 38.0333 52.6362 38.2303 52.8041 38.4996C52.9556 38.737 53.0537 39.0124 53.0987 39.3258C53.1247 39.5094 53.1353 39.7737 53.1306 40.1189H50.4833C50.4975 40.5204 50.6194 40.8019 50.8488 40.9634C50.9884 41.0638 51.1564 41.114 51.3527 41.114C51.561 41.114 51.7301 41.0528 51.8602 40.9304C51.9312 40.8643 51.9939 40.7725 52.0483 40.655H53.0809C53.0549 40.8924 52.9354 41.1336 52.7225 41.3783C52.3913 41.7676 51.9276 41.9622 51.3314 41.9622C50.8394 41.9622 50.4052 41.7982 50.0291 41.4701C49.6529 41.1421 49.4648 40.6085 49.4648 39.8692C49.4648 39.1765 49.634 38.6452 49.9723 38.2756C50.313 37.906 50.7542 37.7212 51.2959 37.7212Z" fill="#024B6D"/>
<path id="Vector_52" d="M53.8008 40.7363H54.876V41.8305H53.8008V40.7363Z" fill="#024B6D"/>
<path id="Vector_53" d="M58.1493 39.264C58.1304 39.1147 58.0819 38.98 58.0038 38.8601C57.8903 38.6985 57.714 38.6177 57.4751 38.6177C57.1344 38.6177 56.9014 38.7927 56.776 39.1428C56.7098 39.3288 56.6766 39.5761 56.6766 39.8845C56.6766 40.1783 56.7098 40.4145 56.776 40.5932C56.8967 40.9261 57.1238 41.0926 57.4573 41.0926C57.694 41.0926 57.8619 41.0265 57.9612 40.8943C58.0606 40.7621 58.1209 40.5908 58.1422 40.3802H59.1749C59.1512 40.6984 59.04 40.9995 58.8413 41.2835C58.5243 41.7413 58.0547 41.9702 57.4325 41.9702C56.8104 41.9702 56.3526 41.7792 56.0592 41.3973C55.7658 41.0155 55.6191 40.5198 55.6191 39.9102C55.6191 39.2224 55.7812 38.6875 56.1053 38.3056C56.4294 37.9238 56.8766 37.7328 57.4467 37.7328C57.9317 37.7328 58.328 37.8454 58.6355 38.0706C58.9454 38.2959 59.1287 38.6936 59.1855 39.264H58.1493Z" fill="#024B6D"/>
<path id="Vector_54" d="M61.6186 41.0926C61.9143 41.0926 62.1414 40.9837 62.2999 40.7658C62.4585 40.548 62.5377 40.2383 62.5377 39.8369C62.5377 39.4354 62.4585 39.1269 62.2999 38.9115C62.1414 38.6937 61.9143 38.5848 61.6186 38.5848C61.3229 38.5848 61.0946 38.6937 60.9337 38.9115C60.7752 39.1269 60.6959 39.4354 60.6959 39.8369C60.6959 40.2383 60.7752 40.548 60.9337 40.7658C61.0946 40.9837 61.3229 41.0926 61.6186 41.0926ZM63.5987 39.8369C63.5987 40.4244 63.4355 40.9274 63.109 41.346C62.7825 41.7622 62.2869 41.9702 61.6221 41.9702C60.9574 41.9702 60.4617 41.7622 60.1352 41.346C59.8087 40.9274 59.6455 40.4244 59.6455 39.8369C59.6455 39.2591 59.8087 38.7586 60.1352 38.3351C60.4617 37.9116 60.9574 37.6998 61.6221 37.6998C62.2869 37.6998 62.7825 37.9116 63.109 38.3351C63.4355 38.7586 63.5987 39.2591 63.5987 39.8369Z" fill="#024B6D"/>
<path id="Vector_55" d="M68.6496 37.74C68.8199 37.74 68.9879 37.7743 69.1535 37.8428C69.3191 37.9113 69.4693 38.0313 69.6041 38.2026C69.713 38.3422 69.7863 38.5135 69.8242 38.7167C69.8479 38.8513 69.8597 39.0484 69.8597 39.3079L69.8526 41.8305H68.8163V39.2822C68.8163 39.1304 68.7927 39.0055 68.7454 38.9076C68.6555 38.7216 68.4899 38.6286 68.2486 38.6286C67.9694 38.6286 67.7766 38.7485 67.6701 38.9884C67.6158 39.1157 67.5885 39.2687 67.5885 39.4474V41.8305H66.5701V39.4474C66.5701 39.21 66.5464 39.0374 66.4991 38.9297C66.4139 38.7363 66.2471 38.6396 65.9987 38.6396C65.7102 38.6396 65.5161 38.7363 65.4168 38.9297C65.3624 39.0398 65.3351 39.2038 65.3351 39.4217V41.8305H64.3096V37.8355H65.2925V38.4193C65.418 38.2112 65.5363 38.0631 65.6474 37.975C65.8438 37.8183 66.0981 37.74 66.4104 37.74C66.7061 37.74 66.9451 37.8073 67.1272 37.9419C67.2739 38.0668 67.3851 38.2271 67.4608 38.423C67.5933 38.188 67.7577 38.0154 67.954 37.9052C68.1623 37.7951 68.3941 37.74 68.6496 37.74Z" fill="#024B6D"/>
</g>
</g>
</g>
</g>
<defs>
<clipPath id="clip0_2296_6269">
<rect width="90.8453" height="94" fill="white" transform="translate(-0.328125)"/>
</clipPath>
</defs>
</svg>
