<svg width="91" height="94" viewBox="0 0 91 94" fill="none" xmlns="http://www.w3.org/2000/svg">
<g id="AwardGDPR.svg" clip-path="url(#clip0_2296_6122)">
<g id="Clip path group">
<mask id="mask0_2296_6122" style="mask-type:luminance" maskUnits="userSpaceOnUse" x="0" y="0" width="91" height="94">
<g id="clip0_11330_48620">
<path id="Vector" d="M90.981 -6.10352e-05H0.135742V93.9999H90.981V-6.10352e-05Z" fill="white"/>
</g>
</mask>
<g mask="url(#mask0_2296_6122)">
<g id="Group">
<path id="Vector_2" d="M45.5584 93.9999C70.6446 93.9999 90.981 72.9573 90.981 46.9999C90.981 21.0426 70.6446 -6.10352e-05 45.5584 -6.10352e-05C20.4722 -6.10352e-05 0.135742 21.0426 0.135742 46.9999C0.135742 72.9573 20.4722 93.9999 45.5584 93.9999Z" fill="#203B94"/>
<path id="Vector_3" d="M45.4731 4.81927L46.7596 8.91616H50.9227L47.5547 11.4482L48.8412 15.5451L45.4731 13.0131L42.1051 15.5451L43.3915 11.4482L40.0234 8.91616H44.1866L45.4731 4.81927Z" fill="#FFCE00"/>
<path id="Vector_4" d="M45.4731 76.0782L46.7596 80.1746H50.9227L47.5547 82.7067L48.8412 86.8038L45.4731 84.2717L42.1051 86.8038L43.3915 82.7067L40.0234 80.1746H44.1866L45.4731 76.0782Z" fill="#FFCE00"/>
<path id="Vector_5" d="M34.9028 61.1862V60.6927C35.4479 60.7162 35.9399 60.7279 36.379 60.7279C36.9014 60.7279 37.4843 60.724 38.1278 60.7162V61.0804L38.037 61.1157C37.8326 61.194 37.7266 61.2371 37.719 61.2449C37.6812 61.2606 37.6585 61.2958 37.6509 61.3507C37.6358 61.4368 37.6282 61.6914 37.6282 62.1144C37.6282 62.3572 37.6433 62.7881 37.6736 63.4069C36.5456 63.8926 35.4706 64.1354 34.4486 64.1354C33.1389 64.1354 32.0904 63.7555 31.3031 62.9957C30.5158 62.2358 30.1221 61.2253 30.1221 59.9642C30.1221 58.7343 30.5044 57.7434 31.269 56.9914C32.0639 56.2159 33.2184 55.8282 34.7325 55.8282C35.7015 55.8282 36.6667 56.0122 37.6282 56.3804C37.4919 56.8269 37.401 57.4575 37.3556 58.2722H36.9128C36.8976 57.8257 36.8824 57.5515 36.8673 57.4497C36.8522 57.34 36.8143 57.2538 36.7538 57.1912C36.292 56.7133 35.622 56.4744 34.7438 56.4744C33.843 56.4744 33.1313 56.7721 32.609 57.3674C32.0942 57.9549 31.8368 58.7617 31.8368 59.7879C31.8368 60.8846 32.1017 61.7737 32.6317 62.4552C33.1691 63.1288 33.8732 63.4657 34.7438 63.4657C35.2965 63.4657 35.7166 63.3717 36.0043 63.1837C36.0573 63.1523 36.0838 62.9761 36.0838 62.6549C36.0838 62.0439 36.0762 61.6718 36.0611 61.5387C36.046 61.3977 36.0043 61.3154 35.9362 61.2919C35.815 61.2371 35.4706 61.2018 34.9028 61.1862Z" fill="white"/>
<path id="Vector_6" d="M39.1805 63.9014V63.6194C39.2259 63.5881 39.26 63.5685 39.2827 63.5607C39.472 63.4588 39.5856 63.3883 39.6234 63.3492C39.6612 63.31 39.6878 63.2434 39.7029 63.1494C39.7407 62.9692 39.7597 61.8452 39.7597 59.7772C39.7597 57.9285 39.7369 56.9141 39.6915 56.7339C39.6612 56.6086 39.4455 56.5263 39.0442 56.4872C39.0291 56.4872 38.961 56.4793 38.8398 56.4637V55.9702C39.5742 56.0172 40.2025 56.0407 40.7249 56.0407C41.1413 56.0407 41.7052 56.0289 42.4169 56.0054C42.6591 55.9976 42.8257 55.9937 42.9165 55.9937C43.9082 55.9937 44.6236 56.072 45.0627 56.2287C45.6835 56.448 46.1642 56.8397 46.5049 57.4037C46.8456 57.9598 47.0159 58.6413 47.0159 59.4482C47.0159 60.2472 46.8493 60.9757 46.5163 61.6337C46.1907 62.2917 45.7365 62.8087 45.1536 63.1847C44.4041 63.6625 43.454 63.9014 42.3033 63.9014C42.0232 63.9014 41.6069 63.8897 41.0542 63.8662C40.8649 63.8583 40.7059 63.8544 40.5773 63.8544C40.4864 63.8544 40.3388 63.8622 40.1344 63.8779C39.93 63.8936 39.6688 63.9014 39.3508 63.9014H39.1805ZM41.3267 57.1334L41.3381 59.9299C41.3381 60.1336 41.3343 60.5096 41.3267 61.0579C41.3191 61.8726 41.3154 62.5932 41.3154 63.2199C41.603 63.2591 41.9021 63.2787 42.2125 63.2787C43.2194 63.2787 43.9612 63.0241 44.4382 62.5149C45.0363 61.8726 45.3353 60.9482 45.3353 59.7419C45.3353 58.5042 45.0022 57.6308 44.336 57.1217C43.9045 56.7927 43.2648 56.6282 42.4169 56.6282C42.1443 56.6282 41.781 56.6438 41.3267 56.6752V57.1334Z" fill="white"/>
<path id="Vector_7" d="M47.4277 63.9008V63.4308L47.5867 63.4191C47.8592 63.3956 48.0333 63.3681 48.1091 63.3368C48.1923 63.3055 48.2491 63.235 48.2794 63.1253C48.3324 62.9216 48.3589 61.6801 48.3589 59.4006C48.3589 57.6772 48.3097 56.7568 48.2113 56.6393C48.1507 56.5688 47.8933 56.5179 47.4391 56.4866V56.0048C48.2037 56.0361 48.7336 56.0518 49.0289 56.0518C49.3544 56.0518 49.8275 56.0361 50.4483 56.0048C50.7587 55.9891 51.0237 55.9813 51.2432 55.9813C52.0305 55.9813 52.6059 56.1223 52.9693 56.4043C53.3327 56.6785 53.5144 57.1211 53.5144 57.7321C53.5144 58.4449 53.2797 59.0363 52.8103 59.5063C52.3485 59.9685 51.7618 60.1996 51.0502 60.1996C50.8761 60.1996 50.6717 60.1682 50.437 60.1056C50.3916 59.9802 50.3272 59.851 50.2439 59.7178L50.3688 59.5651C50.5278 59.6277 50.6641 59.6591 50.7777 59.6591C51.1107 59.6591 51.3795 59.5181 51.5839 59.2361C51.7959 58.9541 51.9019 58.5898 51.9019 58.1433C51.9019 57.1171 51.4628 56.6041 50.5846 56.6041C50.3575 56.6041 50.1493 56.6276 49.96 56.6746C49.9222 57.1211 49.9033 58.018 49.9033 59.3653C49.9033 61.5978 49.926 62.8472 49.9714 63.1136C49.9941 63.2311 50.066 63.3133 50.1872 63.3603C50.3158 63.3995 50.5808 63.423 50.9821 63.4308V63.9008C50.49 63.8695 50.0017 63.8538 49.5172 63.8538C48.8585 63.8538 48.1621 63.8695 47.4277 63.9008Z" fill="white"/>
<path id="Vector_8" d="M56.6879 59.8707L56.7674 59.6709C56.8431 59.6866 56.9264 59.6944 57.0172 59.6944C57.4411 59.6944 57.7894 59.5417 58.0619 59.2362C58.3421 58.9307 58.4821 58.5389 58.4821 58.0612C58.4821 57.1054 58.0014 56.6277 57.0399 56.6277C56.8506 56.6277 56.6462 56.6472 56.4267 56.6864C56.3964 57.3052 56.3813 58.7897 56.3813 61.1397C56.3813 62.4243 56.423 63.1332 56.5062 63.2664C56.5592 63.3291 56.7636 63.3761 57.1194 63.4074L57.267 63.4192V63.9009C56.8052 63.8696 56.3283 63.8539 55.8362 63.8539C55.3366 63.8539 54.678 63.8657 53.8604 63.8892V63.4192C54.3449 63.3957 54.6212 63.3447 54.6893 63.2664C54.7574 63.1802 54.7953 62.8591 54.8029 62.3029L54.8256 59.5299C54.8407 57.8144 54.7878 56.8627 54.6666 56.6747C54.6136 56.5884 54.4092 56.5297 54.0534 56.4984C53.9777 56.4984 53.9134 56.4944 53.8604 56.4867V56.0167C54.4887 56.0402 54.871 56.0519 55.0073 56.0519C55.5826 56.0519 56.264 56.0402 57.0513 56.0167C57.5736 56.0009 57.8689 55.9932 57.937 55.9932C58.5881 55.9932 59.0575 56.0676 59.3451 56.2164C59.5722 56.3339 59.7539 56.5258 59.8902 56.7922C60.0341 57.0584 60.106 57.3522 60.106 57.6734C60.106 58.6369 59.5382 59.3302 58.4026 59.7532C58.8341 60.4033 59.417 61.3159 60.1514 62.4909C60.4012 62.8904 60.5829 63.1489 60.6965 63.2664C60.8176 63.3761 60.9614 63.4269 61.128 63.4192C61.1356 63.4192 61.1544 63.4152 61.1848 63.4074V63.8539C60.7684 63.8461 60.4239 63.8422 60.1514 63.8422C60 63.8422 59.6707 63.8578 59.1634 63.8892L56.6879 59.8707Z" fill="white"/>
<path id="Vector_9" d="M62.6196 9.60852L63.906 13.7054H68.0692L64.7011 16.2374L65.9877 20.3343L62.6196 17.8023L59.2515 20.3343L60.538 16.2374L57.1699 13.7054H61.333L62.6196 9.60852Z" fill="#FFCE00"/>
<path id="Vector_10" d="M62.6196 71.1698L63.906 75.2669H68.0692L64.7011 77.7983L65.9877 81.8954L62.6196 79.3633L59.2515 81.8954L60.538 77.7983L57.1699 75.2669H61.333L62.6196 71.1698Z" fill="#FFCE00"/>
<path id="Vector_11" d="M75.128 22.5806L76.4147 26.6774H80.578L77.2096 29.2095L78.4964 33.3064L75.128 30.7744L71.7603 33.3064L73.0471 29.2095L69.6787 26.6774H73.842L75.128 22.5806Z" fill="#FFCE00"/>
<path id="Vector_12" d="M75.128 58.1879L76.4147 62.2848H80.578L77.2096 64.8168L78.4964 68.9137L75.128 66.3816L71.7603 68.9137L73.0471 64.8168L69.6787 62.2848H73.842L75.128 58.1879Z" fill="#FFCE00"/>
<path id="Vector_13" d="M79.8507 40.4264L81.1374 44.5232H85.3007L81.9323 47.0553L83.219 51.1522L79.8507 48.6202L76.4823 51.1522L77.769 47.0553L74.4014 44.5232H78.5639L79.8507 40.4264Z" fill="#FFCE00"/>
<path id="Vector_14" d="M28.3237 9.60849L29.6101 13.7053H33.7733L30.4052 16.2374L31.6917 20.3343L28.3237 17.8023L24.9556 20.3343L26.242 16.2374L22.874 13.7053H27.0372L28.3237 9.60849Z" fill="#FFCE00"/>
<path id="Vector_15" d="M28.3237 71.1697L29.6101 75.2669H33.7733L30.4052 77.7983L31.6917 81.8954L28.3237 79.3632L24.9556 81.8954L26.242 77.7983L22.874 75.2669H27.0372L28.3237 71.1697Z" fill="#FFCE00"/>
<path id="Vector_16" d="M15.726 22.5805L17.0125 26.6774H21.1757L17.8076 29.2094L19.0941 33.3064L15.726 30.7743L12.3579 33.3064L13.6445 29.2094L10.2764 26.6774H14.4396L15.726 22.5805Z" fill="#FFCE00"/>
<path id="Vector_17" d="M15.726 58.1878L17.0125 62.2848H21.1757L17.8076 64.8167L19.0941 68.9137L15.726 66.3816L12.3579 68.9137L13.6445 64.8167L10.2764 62.2848H14.4396L15.726 58.1878Z" fill="#FFCE00"/>
<path id="Vector_18" d="M10.9594 40.3662L12.2459 44.463H16.4091L13.041 46.9951L14.3275 51.092L10.9594 48.56L7.59135 51.092L8.87781 46.9951L5.50977 44.463H9.67291L10.9594 40.3662Z" fill="#FFCE00"/>
<path id="Vector_19" fill-rule="evenodd" clip-rule="evenodd" d="M40.1408 37.2029V34.1581C40.2162 32.9089 41.1231 30.2982 44.1473 29.8485H46.9994C48.2142 30.1296 50.6844 31.385 50.8474 34.1581V37.2029H51.6397C51.9717 37.3356 52.6356 37.7557 52.6356 38.374V49.6633C52.5677 49.9912 52.2734 50.647 51.6397 50.647H39.3711C39.0316 50.5455 38.3525 50.2066 38.3525 49.6633V38.1398C38.4355 37.8275 38.7555 37.2029 39.3711 37.2029H40.1408ZM41.2951 34.1581V37.2029H49.6251V34.1581C49.7383 33.1354 49.0863 31.0898 45.5733 31.0898C42.0602 31.0898 41.2575 33.1354 41.2951 34.1581ZM47.1973 46.8353H43.816L44.4629 44.0952C44.2329 43.8899 43.7728 43.333 43.7728 42.7474C43.7728 42.0156 44.3852 40.9802 45.5153 40.9802C46.6452 40.9802 47.1542 42.0067 47.1542 42.7474C47.1542 43.3401 46.7516 43.8929 46.5504 44.0952L47.1973 46.8353Z" fill="white"/>
</g>
</g>
</g>
</g>
<defs>
<clipPath id="clip0_2296_6122">
<rect width="90.8453" height="94" fill="white" transform="translate(0.136719)"/>
</clipPath>
</defs>
</svg>
