<svg width="91" height="94" viewBox="0 0 91 94" fill="none" xmlns="http://www.w3.org/2000/svg">
<g id="AwardAciety_React_Development.svg" clip-path="url(#clip0_2296_6330)">
<g id="Clip path group">
<mask id="mask0_2296_6330" style="mask-type:luminance" maskUnits="userSpaceOnUse" x="-1" y="0" width="92" height="94">
<g id="clip0_11330_48638">
<path id="Vector" d="M90.3609 0H-0.484375V94H90.3609V0Z" fill="white"/>
</g>
</mask>
<g mask="url(#mask0_2296_6330)">
<g id="Group">
<path id="Vector_2" d="M4.19832 23.4886L45.377 -0.00286865L86.5554 23.4886L86.5334 23.5423H86.7236V70.3948H86.4234L86.466 70.4985L45.3322 93.9995L4.19832 70.4985L4.24136 70.3945H4.05859V23.5426H4.22067L4.19832 23.4886Z" fill="#32303D"/>
<path id="Vector_3" d="M7.88883 25.4325L45.3615 3.88098L82.8343 25.4325L82.8137 25.4817H82.9869V68.4659H82.7136L82.7527 68.5613L45.3207 90.122L7.88883 68.561L7.92801 68.4656H7.76172V25.4823H7.90899L7.88883 25.4325Z" fill="#FDBF09"/>
<path id="Vector_4" d="M11.3254 27.3593L45.362 7.78409L79.3989 27.3593L79.3804 27.4044H79.5373V37.037H11.21V27.4044H11.3441L11.3254 27.3593ZM11.3254 65.9342L45.362 85.5098L79.3989 65.9342L79.3804 65.8892H79.5373V56.2566H11.21V65.8892H11.3441L11.3254 65.9342Z" fill="#32303D"/>
<path id="Vector_5" d="M49.5748 17.4499L45.3876 13.0926L42.3324 16.2718L38.8252 19.9215L40.447 21.6092L41.3332 19.1561H43.0125L41.8784 22.2673C41.0378 22.1208 40.4291 21.9042 40.4291 21.6092V22.552C40.4291 23.0038 42.4653 23.4743 45.3895 23.4743C48.3119 23.4743 50.35 23.0038 50.35 22.552V21.6092C50.35 21.9042 49.7433 22.1188 48.9047 22.2673L48.1612 20.1382H49.8206L50.348 21.6092L51.9519 19.9215L49.5748 17.4499ZM48.0383 22.389C47.5307 22.4448 46.9935 22.484 46.48 22.5067L45.3895 19.2345L44.8423 20.8644L44.2793 22.5067C43.7718 22.484 43.2404 22.4448 42.7389 22.389L44.6897 17.0373H46.1231L46.7635 18.8425L48.0383 22.389Z" fill="white"/>
<path id="Vector_6" d="M37.44 30.6436L37.0434 29.2304H35.0827L34.6861 30.6436H33.4609L35.3087 24.6977H36.7798L38.6474 30.6436H37.44ZM36.7798 28.172L36.4209 26.8763C36.4011 26.8371 36.3832 26.738 36.3456 26.6411C36.3079 26.5235 36.2881 26.4059 36.2505 26.2677C36.2128 26.1295 36.1751 25.9932 36.1553 25.855C36.1176 25.7168 36.0978 25.5993 36.0799 25.5022C36.0601 25.5621 36.0601 25.6405 36.0423 25.7189C36.0224 25.7973 36.0046 25.8963 35.9847 25.9747C35.9649 26.0737 35.9471 26.1522 35.9094 26.2491C35.8896 26.3482 35.8717 26.4265 35.8341 26.505C35.8143 26.5833 35.7964 26.6617 35.7766 26.7216C35.7568 26.7814 35.739 26.8206 35.739 26.8598L35.384 28.1514L36.7798 28.172ZM41.0978 30.722C40.7767 30.722 40.4951 30.6828 40.2493 30.5838C40.0034 30.4848 39.7775 30.3486 39.609 30.1711C39.4384 29.9752 39.2877 29.74 39.1946 29.4449C39.0994 29.1499 39.0439 28.7971 39.0439 28.3844C39.0439 27.9327 39.1014 27.5592 39.1946 27.2456C39.2897 26.9506 39.4206 26.6968 39.609 26.5194C39.7794 26.3419 40.0054 26.2058 40.2493 26.1274C40.4951 26.049 40.7767 26.0098 41.08 26.0098C41.306 26.0098 41.532 26.0304 41.7402 26.0882C41.9663 26.148 42.1744 26.2264 42.3627 26.3233L42.0237 27.2662C41.8532 27.1879 41.6847 27.128 41.534 27.0702C41.3834 27.0104 41.2327 26.9919 41.082 26.9919C40.7985 26.9919 40.5923 27.1094 40.4594 27.3261C40.3266 27.5613 40.2711 27.8955 40.2711 28.3474C40.2711 28.7991 40.3286 29.1313 40.4594 29.3479C40.5923 29.5646 40.7985 29.6822 41.0621 29.6822C41.2882 29.6822 41.4963 29.6429 41.6847 29.5832C41.8731 29.5233 42.0614 29.4449 42.2497 29.3479V30.3877C42.1545 30.427 42.0614 30.4868 41.9663 30.526C41.8711 30.5652 41.7779 30.5858 41.6827 30.625C41.5875 30.6457 41.4944 30.6642 41.3992 30.6849C41.3259 30.722 41.2128 30.722 41.0978 30.722ZM44.4563 30.6436H43.2688V26.1109H44.4563V30.6436ZM47.6245 30.722C47.3033 30.722 47.0218 30.6828 46.7561 30.5838C46.4925 30.4848 46.2664 30.3486 46.0781 30.1526C45.8898 29.9566 45.7391 29.7214 45.6439 29.4264C45.5309 29.1313 45.4933 28.7991 45.4933 28.4051C45.4933 28.011 45.5507 27.6603 45.6439 27.3653C45.7391 27.0702 45.8699 26.8165 46.0405 26.6205C46.2109 26.4245 46.4171 26.2677 46.663 26.1686C46.9088 26.0696 47.1725 26.0118 47.4738 26.0118C47.7574 26.0118 48.021 26.051 48.2471 26.1501C48.473 26.2491 48.6812 26.3667 48.8319 26.542C49.0024 26.7195 49.1154 26.9341 49.2086 27.1899C49.3038 27.4458 49.3414 27.7387 49.3414 28.0729V28.6816H46.6808C46.6808 28.859 46.7185 29.0158 46.7561 29.1519C46.8136 29.2901 46.8691 29.4078 46.9643 29.5047C47.0595 29.6038 47.1527 29.6822 47.2855 29.7214C47.4183 29.7812 47.5492 29.7998 47.6999 29.7998C47.8327 29.7998 47.9635 29.7998 48.0765 29.7792C48.1896 29.7585 48.3026 29.74 48.4156 29.7193C48.5286 29.6801 48.6416 29.6595 48.7546 29.6017C48.8676 29.5625 48.9806 29.5027 49.0936 29.4449V30.4063C48.9806 30.4662 48.8855 30.5054 48.7724 30.5445C48.6594 30.5838 48.5643 30.623 48.4334 30.6436C48.3204 30.6642 48.1876 30.6828 48.0567 30.7035C47.9258 30.722 47.7931 30.722 47.6245 30.722ZM47.4738 26.897C47.2657 26.897 47.0972 26.9753 46.9465 27.1321C46.8136 27.2889 46.7204 27.5241 46.7006 27.8583H48.2094C48.2094 27.7201 48.1896 27.584 48.1519 27.4849C48.1142 27.3673 48.0765 27.2683 48.019 27.1899C47.9615 27.1115 47.8862 27.0331 47.7931 26.9939C47.6999 26.9361 47.6047 26.897 47.4738 26.897ZM52.1131 29.742C52.2261 29.742 52.3391 29.7214 52.4521 29.7028C52.5651 29.6842 52.6603 29.6429 52.7733 29.6038V30.526C52.6603 30.5858 52.5274 30.6436 52.359 30.6828C52.1884 30.722 52.0199 30.7426 51.8118 30.7426C51.6234 30.7426 51.4529 30.722 51.2844 30.6828C51.1139 30.6436 50.983 30.5652 50.8501 30.4476C50.7372 30.33 50.642 30.1732 50.5667 29.9772C50.4913 29.7812 50.4715 29.546 50.4715 29.251V27.0331H49.9065V26.5029L50.5667 26.0903L50.9057 25.1288H51.6591V26.0903H52.7158V27.0125H51.6591V29.1912C51.6591 29.3686 51.6967 29.5047 51.7919 29.5832C51.8673 29.7028 51.9802 29.742 52.1131 29.742ZM53.037 26.1109H54.3375L55.0354 28.663C55.0731 28.8012 55.1107 28.958 55.1306 29.1148C55.1504 29.2716 55.1683 29.4099 55.1683 29.546H55.1881C55.1881 29.4862 55.2079 29.4078 55.2079 29.3294C55.2079 29.251 55.2278 29.1726 55.2456 29.0941C55.2654 29.0158 55.2654 28.9374 55.2833 28.859C55.3031 28.7806 55.3209 28.7207 55.3407 28.6424L56.0187 26.0903H57.3193L55.6024 31.213C55.4319 31.6834 55.2258 32.0568 54.9422 32.2735C54.6587 32.5087 54.3197 32.6263 53.9053 32.6263C53.7725 32.6263 53.6595 32.6263 53.5465 32.6056C53.4513 32.585 53.3581 32.5664 53.3006 32.5664V31.5844C53.3581 31.605 53.4137 31.605 53.5089 31.6236C53.5842 31.6442 53.6793 31.6442 53.7725 31.6442C53.9053 31.6442 53.9985 31.6236 54.0937 31.5844C54.1889 31.5452 54.2642 31.506 54.3197 31.4276C54.3772 31.3678 54.4327 31.2893 54.4902 31.1924C54.5279 31.0933 54.5656 30.9964 54.6032 30.8973L54.6786 30.6622L53.037 26.1109Z" fill="white"/>
<path id="Vector_7" d="M35.3779 38.6295H37.6007C38.0564 38.6295 38.448 38.7001 38.7755 38.8412C39.1056 38.9824 39.3594 39.1914 39.5368 39.4681C39.7142 39.7448 39.8029 40.0851 39.8029 40.4888C39.8029 40.8192 39.7483 41.103 39.6391 41.3402C39.5328 41.5746 39.3813 41.7708 39.1848 41.929C38.991 42.0842 38.7632 42.2085 38.5012 42.3017L38.1123 42.5134H36.1802L36.172 41.5223H37.6088C37.8244 41.5223 38.0031 41.4828 38.1451 41.4037C38.287 41.3246 38.3934 41.2146 38.4643 41.0733C38.538 40.9322 38.5748 40.7684 38.5748 40.582C38.5748 40.3843 38.5394 40.2135 38.4684 40.0695C38.3975 39.9255 38.2897 39.8154 38.1451 39.7391C38.0004 39.6629 37.819 39.6248 37.6007 39.6248H36.606V44.7964H35.3779V38.6295ZM38.71 44.7964L37.3509 42.0476L38.6486 42.039L40.024 44.7371V44.7964H38.71ZM42.7133 44.8811C42.3695 44.8811 42.0611 44.8247 41.7882 44.7117C41.5153 44.5959 41.2833 44.4364 41.0923 44.2331C40.904 44.0298 40.7594 43.794 40.6584 43.5257C40.5575 43.2547 40.5069 42.9666 40.5069 42.6617V42.4923C40.5069 42.1449 40.5547 41.8272 40.6502 41.5393C40.7458 41.2513 40.8822 41.0014 41.0595 40.7896C41.2397 40.5778 41.458 40.4154 41.7145 40.3025C41.971 40.1867 42.2603 40.1289 42.5823 40.1289C42.8962 40.1289 43.1744 40.1825 43.4174 40.2898C43.6603 40.3971 43.8635 40.5496 44.0273 40.7472C44.1938 40.9449 44.3192 41.1821 44.4038 41.4588C44.4884 41.7327 44.5307 42.0376 44.5307 42.3737V42.882H41.0104V42.0687H43.3723V41.9755C43.3723 41.8061 43.3423 41.655 43.2823 41.5223C43.225 41.3868 43.1376 41.2795 43.0203 41.2005C42.903 41.1214 42.7529 41.0819 42.57 41.0819C42.4145 41.0819 42.2808 41.1171 42.1689 41.1877C42.057 41.2583 41.9656 41.3572 41.8946 41.4842C41.8264 41.6113 41.7745 41.7609 41.7391 41.9331C41.7063 42.1026 41.69 42.2889 41.69 42.4923V42.6617C41.69 42.8452 41.7145 43.0147 41.7636 43.17C41.8155 43.3252 41.8878 43.4594 41.9805 43.5723C42.0761 43.6853 42.1907 43.7728 42.3244 43.835C42.4609 43.8971 42.615 43.9281 42.787 43.9281C42.9999 43.9281 43.1977 43.8858 43.3805 43.801C43.5661 43.7135 43.7257 43.5822 43.8595 43.4071L44.4325 44.0509C44.3397 44.1893 44.2128 44.322 44.0518 44.4491C43.8935 44.5762 43.7026 44.6807 43.4788 44.7625C43.255 44.8416 42.9999 44.8811 42.7133 44.8811ZM47.5926 43.7629V41.7214C47.5926 41.5746 47.5694 41.4489 47.523 41.3444C47.4766 41.2371 47.4043 41.1538 47.3061 41.0946C47.2105 41.0352 47.0864 41.0056 46.9336 41.0056C46.8026 41.0056 46.6893 41.0296 46.5938 41.0776C46.4983 41.1228 46.4247 41.1891 46.3728 41.2767C46.321 41.3614 46.295 41.4616 46.295 41.5774H45.1161C45.1161 41.3826 45.1598 41.1976 45.2471 41.0225C45.3344 40.8474 45.4613 40.6936 45.6278 40.5609C45.7943 40.4253 45.9921 40.3194 46.2213 40.2432C46.4533 40.167 46.7125 40.1289 46.9991 40.1289C47.3429 40.1289 47.6486 40.1881 47.916 40.3067C48.1834 40.4253 48.3936 40.6032 48.5464 40.8404C48.702 41.0776 48.7797 41.3741 48.7797 41.7299V43.6909C48.7797 43.9422 48.7947 44.1484 48.8247 44.3093C48.8548 44.4675 48.8984 44.6058 48.9557 44.7244V44.7964H47.7645C47.7072 44.6721 47.6636 44.5168 47.6335 44.3305C47.6063 44.1413 47.5926 43.9521 47.5926 43.7629ZM47.7482 42.0052L47.7564 42.6956H47.0973C46.9418 42.6956 46.8067 42.7139 46.6921 42.7506C46.5775 42.7874 46.4833 42.8396 46.4096 42.9074C46.3359 42.9723 46.2814 43.0485 46.2459 43.1361C46.2132 43.2236 46.1968 43.3196 46.1968 43.4241C46.1968 43.5286 46.22 43.6232 46.2664 43.7078C46.3127 43.7897 46.3796 43.8547 46.4669 43.9027C46.5542 43.9479 46.6566 43.9704 46.7739 43.9704C46.9513 43.9704 47.1055 43.9337 47.2365 43.8604C47.3675 43.7869 47.4684 43.6966 47.5394 43.5892C47.6131 43.4819 47.6513 43.3803 47.654 43.2843L47.9651 43.801C47.9215 43.9168 47.8614 44.0368 47.785 44.1611C47.7113 44.2853 47.6172 44.4025 47.5026 44.5126C47.388 44.6199 47.2501 44.7089 47.0891 44.7794C46.9281 44.8472 46.7371 44.8811 46.5161 44.8811C46.235 44.8811 45.9798 44.8232 45.7506 44.7075C45.5241 44.5889 45.3439 44.4265 45.2102 44.2204C45.0793 44.0114 45.0138 43.7742 45.0138 43.5088C45.0138 43.2688 45.0574 43.0556 45.1448 42.8693C45.2321 42.6829 45.3603 42.5262 45.5295 42.3991C45.7014 42.2692 45.9157 42.1717 46.1722 42.1068C46.4287 42.039 46.7262 42.0052 47.0645 42.0052H47.7482ZM51.5182 43.9281C51.6628 43.9281 51.7911 43.8999 51.903 43.8434C52.0148 43.7841 52.1022 43.7023 52.1649 43.5978C52.2304 43.4905 52.2646 43.3648 52.2673 43.2208H53.3766C53.3739 43.5427 53.2906 43.8293 53.1269 44.0806C52.9632 44.329 52.7435 44.5253 52.4678 44.6694C52.1923 44.8105 51.8839 44.8811 51.5427 44.8811C51.1989 44.8811 50.8987 44.8218 50.6422 44.7032C50.3884 44.5846 50.1769 44.4208 50.0077 44.2119C49.8385 44.0001 49.7116 43.7545 49.627 43.4749C49.5424 43.1925 49.5001 42.8904 49.5001 42.5685V42.4457C49.5001 42.1209 49.5424 41.8188 49.627 41.5393C49.7116 41.2569 49.8385 41.0112 50.0077 40.8023C50.1769 40.5905 50.3884 40.4253 50.6422 40.3067C50.896 40.1881 51.1935 40.1289 51.5346 40.1289C51.8975 40.1289 52.2154 40.2008 52.4883 40.3448C52.7639 40.4889 52.9795 40.695 53.1351 40.9633C53.2933 41.2287 53.3739 41.5435 53.3766 41.9077H52.2673C52.2646 41.7553 52.2331 41.6169 52.1731 41.4927C52.1158 41.3684 52.0312 41.2696 51.9194 41.1962C51.8102 41.12 51.6751 41.0819 51.5141 41.0819C51.3421 41.0819 51.2016 41.12 51.0925 41.1962C50.9833 41.2696 50.8987 41.3713 50.8387 41.5011C50.7786 41.6282 50.7363 41.7736 50.7118 41.9374C50.69 42.0984 50.679 42.2678 50.679 42.4457V42.5685C50.679 42.7464 50.69 42.9172 50.7118 43.081C50.7336 43.2448 50.7746 43.3902 50.8346 43.5173C50.8974 43.6443 50.9833 43.7446 51.0925 43.818C51.2016 43.8914 51.3436 43.9281 51.5182 43.9281ZM56.2297 40.2135V41.0776H53.6508V40.2135H56.2297ZM54.2894 39.0827H55.4683V43.4156C55.4683 43.5483 55.4847 43.65 55.5174 43.7205C55.5529 43.7912 55.6048 43.8406 55.673 43.8688C55.7412 43.8942 55.8271 43.9069 55.9308 43.9069C56.0046 43.9069 56.07 43.9041 56.1274 43.8985C56.1874 43.89 56.2379 43.8815 56.2788 43.8731L56.2829 44.771C56.1819 44.8048 56.0728 44.8317 55.9555 44.8515C55.8381 44.8712 55.7085 44.8811 55.5665 44.8811C55.3073 44.8811 55.0808 44.8374 54.887 44.7498C54.696 44.6594 54.5486 44.5154 54.4449 44.3178C54.3412 44.1201 54.2894 43.8604 54.2894 43.5384V39.0827Z" fill="#32303D"/>
<path id="Vector_8" d="M23.1911 53.6089H21.8935L21.9017 52.6177H23.1911C23.5131 52.6177 23.7846 52.5429 24.0057 52.3932C24.2267 52.2408 24.3932 52.0191 24.5051 51.7283C24.6197 51.4375 24.677 51.0859 24.677 50.6736V50.3729C24.677 50.0566 24.6443 49.7785 24.5787 49.5385C24.516 49.2985 24.4218 49.0966 24.2963 48.9328C24.1708 48.769 24.0166 48.6462 23.8337 48.5644C23.6509 48.4796 23.4408 48.4372 23.2034 48.4372H21.8689V47.4419H23.2034C23.6018 47.4419 23.9661 47.5125 24.2963 47.6537C24.6293 47.792 24.9171 47.9911 25.16 48.2509C25.4029 48.5107 25.5898 48.8212 25.7208 49.1827C25.8546 49.5413 25.9214 49.9409 25.9214 50.3814V50.6736C25.9214 51.1113 25.8546 51.5108 25.7208 51.8723C25.5898 52.2337 25.4029 52.5443 25.16 52.8041C24.9199 53.0611 24.632 53.2601 24.2963 53.4013C23.9634 53.5397 23.595 53.6089 23.1911 53.6089ZM22.5894 47.4419V53.6089H21.3613V47.4419H22.5894ZM28.7786 53.6936C28.4348 53.6936 28.1264 53.6371 27.8535 53.5241C27.5806 53.4084 27.3486 53.2489 27.1576 53.0455C26.9693 52.8422 26.8247 52.6064 26.7237 52.3382C26.6228 52.0671 26.5722 51.7791 26.5722 51.4742V51.3048C26.5722 50.9574 26.62 50.6397 26.7155 50.3518C26.8111 50.0637 26.9475 49.8138 27.1248 49.602C27.305 49.3902 27.5233 49.2279 27.7798 49.1149C28.0363 48.9992 28.3256 48.9413 28.6476 48.9413C28.9615 48.9413 29.2397 48.9949 29.4827 49.1022C29.7256 49.2095 29.9288 49.362 30.0926 49.5597C30.2591 49.7574 30.3845 49.9946 30.4691 50.2713C30.5537 50.5451 30.596 50.8501 30.596 51.1862V51.6944H27.0757V50.8812H29.4376V50.788C29.4376 50.6186 29.4076 50.4675 29.3476 50.3348C29.2903 50.1992 29.2029 50.0919 29.0856 50.0129C28.9683 49.9338 28.8182 49.8943 28.6353 49.8943C28.4798 49.8943 28.3461 49.9296 28.2342 50.0001C28.1223 50.0708 28.0309 50.1696 27.9599 50.2967C27.8917 50.4237 27.8398 50.5734 27.8044 50.7456C27.7716 50.915 27.7552 51.1014 27.7552 51.3048V51.4742C27.7552 51.6577 27.7798 51.8271 27.8289 51.9824C27.8808 52.1377 27.9531 52.2719 28.0458 52.3848C28.1414 52.4977 28.256 52.5853 28.3897 52.6474C28.5262 52.7095 28.6803 52.7406 28.8523 52.7406C29.0652 52.7406 29.263 52.6982 29.4458 52.6135C29.6314 52.5259 29.791 52.3946 29.9247 52.2196L30.4978 52.8634C30.405 53.0017 30.2782 53.1344 30.1171 53.2616C29.9588 53.3886 29.7679 53.4931 29.5441 53.575C29.3203 53.654 29.0652 53.6936 28.7786 53.6936ZM32.7164 52.7194L33.6988 49.026H34.931L33.4369 53.6089H32.6919L32.7164 52.7194ZM32.041 49.026L33.0276 52.7236L33.048 53.6089H32.2989L30.8048 49.026H32.041ZM37.4402 53.6936C37.0964 53.6936 36.788 53.6371 36.5151 53.5241C36.2422 53.4084 36.0103 53.2489 35.8192 53.0455C35.6309 52.8422 35.4863 52.6064 35.3854 52.3382C35.2844 52.0671 35.2339 51.7791 35.2339 51.4742V51.3048C35.2339 50.9574 35.2816 50.6397 35.3771 50.3518C35.4727 50.0637 35.6091 49.8138 35.7865 49.602C35.9666 49.3902 36.1849 49.2279 36.4414 49.1149C36.6979 48.9992 36.9872 48.9413 37.3092 48.9413C37.6231 48.9413 37.9014 48.9949 38.1443 49.1022C38.3872 49.2095 38.5904 49.362 38.7542 49.5597C38.9207 49.7574 39.0462 49.9946 39.1308 50.2713C39.2154 50.5451 39.2577 50.8501 39.2577 51.1862V51.6944H35.7374V50.8812H38.0992V50.788C38.0992 50.6186 38.0692 50.4675 38.0092 50.3348C37.9519 50.1992 37.8646 50.0919 37.7472 50.0129C37.6299 49.9338 37.4798 49.8943 37.2969 49.8943C37.1414 49.8943 37.0077 49.9296 36.8958 50.0001C36.7839 50.0708 36.6925 50.1696 36.6216 50.2967C36.5533 50.4237 36.5015 50.5734 36.466 50.7456C36.4332 50.915 36.4169 51.1014 36.4169 51.3048V51.4742C36.4169 51.6577 36.4414 51.8271 36.4905 51.9824C36.5424 52.1377 36.6147 52.2719 36.7075 52.3848C36.803 52.4977 36.9176 52.5853 37.0513 52.6474C37.1878 52.7095 37.3419 52.7406 37.5139 52.7406C37.7268 52.7406 37.9246 52.6982 38.1075 52.6135C38.293 52.5259 38.4527 52.3946 38.5864 52.2196L39.1594 52.8634C39.0667 53.0017 38.9398 53.1344 38.7788 53.2616C38.6204 53.3886 38.4295 53.4931 38.2057 53.575C37.9819 53.654 37.7268 53.6936 37.4402 53.6936ZM41.1734 47.103V53.6089H39.9904V47.103H41.1734ZM41.9593 51.364V51.2751C41.9593 50.939 42.0057 50.6299 42.0985 50.3475C42.1913 50.0623 42.3264 49.8152 42.5037 49.6063C42.6812 49.3973 42.8995 49.2349 43.1587 49.1192C43.4179 49.0006 43.7154 48.9413 44.0511 48.9413C44.3867 48.9413 44.6855 49.0006 44.9475 49.1192C45.2095 49.2349 45.4292 49.3973 45.6065 49.6063C45.7866 49.8152 45.9231 50.0623 46.0159 50.3475C46.1087 50.6299 46.1551 50.939 46.1551 51.2751V51.364C46.1551 51.6972 46.1087 52.0064 46.0159 52.2916C45.9231 52.574 45.7866 52.821 45.6065 53.0328C45.4292 53.2417 45.2108 53.4041 44.9516 53.5199C44.6923 53.6357 44.3949 53.6936 44.0592 53.6936C43.7236 53.6936 43.4247 53.6357 43.1628 53.5199C42.9035 53.4041 42.6839 53.2417 42.5037 53.0328C42.3264 52.821 42.1913 52.574 42.0985 52.2916C42.0057 52.0064 41.9593 51.6972 41.9593 51.364ZM43.1382 51.2751V51.364C43.1382 51.5561 43.1546 51.7353 43.1873 51.9019C43.2201 52.0685 43.2719 52.2154 43.3429 52.3424C43.4166 52.4667 43.5121 52.5641 43.6294 52.6347C43.7467 52.7053 43.89 52.7406 44.0592 52.7406C44.223 52.7406 44.3635 52.7053 44.4809 52.6347C44.5982 52.5641 44.6923 52.4667 44.7633 52.3424C44.8343 52.2154 44.8861 52.0685 44.9189 51.9019C44.9543 51.7353 44.9721 51.5561 44.9721 51.364V51.2751C44.9721 51.0887 44.9543 50.9136 44.9189 50.7499C44.8861 50.5832 44.8329 50.4364 44.7592 50.3094C44.6883 50.1795 44.5941 50.0778 44.4768 50.0044C44.3594 49.931 44.2175 49.8943 44.0511 49.8943C43.8846 49.8943 43.7427 49.931 43.6253 50.0044C43.5107 50.0778 43.4166 50.1795 43.3429 50.3094C43.2719 50.4364 43.2201 50.5832 43.1873 50.7499C43.1546 50.9136 43.1382 51.0887 43.1382 51.2751ZM48.0585 49.907V55.3708H46.8796V49.026H47.9725L48.0585 49.907ZM50.8625 51.2666V51.3556C50.8625 51.6888 50.8242 51.9979 50.7479 52.2832C50.6741 52.5683 50.565 52.8168 50.4204 53.0286C50.2758 53.2376 50.0956 53.4013 49.88 53.5199C49.6672 53.6357 49.4216 53.6936 49.1432 53.6936C48.873 53.6936 48.6384 53.6371 48.4392 53.5241C48.24 53.4112 48.0721 53.2531 47.9357 53.0498C47.802 52.8436 47.6942 52.605 47.6123 52.334C47.5305 52.0628 47.4676 51.772 47.424 51.4615V51.2285C47.4676 50.8953 47.5305 50.5904 47.6123 50.3136C47.6942 50.0341 47.802 49.7926 47.9357 49.5893C48.0721 49.3832 48.2386 49.2237 48.4351 49.1107C48.6343 48.9978 48.8676 48.9413 49.135 48.9413C49.4161 48.9413 49.6631 48.9963 49.876 49.1065C50.0915 49.2166 50.2716 49.3747 50.4163 49.5809C50.5636 49.7869 50.6741 50.0327 50.7479 50.3178C50.8242 50.6031 50.8625 50.9193 50.8625 51.2666ZM49.6794 51.3556V51.2666C49.6794 51.0717 49.6631 50.8925 49.6303 50.7287C49.6003 50.5621 49.5512 50.4167 49.483 50.2924C49.4175 50.1682 49.3302 50.0722 49.221 50.0044C49.1146 49.9338 48.985 49.8985 48.8322 49.8985C48.6711 49.8985 48.5333 49.9254 48.4187 49.979C48.3068 50.0327 48.2154 50.1103 48.1444 50.2119C48.0735 50.3136 48.0203 50.435 47.9848 50.5762C47.9493 50.7174 47.9275 50.8769 47.9193 51.0548V51.6436C47.9329 51.8525 47.9711 52.0403 48.0339 52.2069C48.0967 52.3707 48.1936 52.5005 48.3246 52.5966C48.4555 52.6926 48.6275 52.7406 48.8403 52.7406C48.9959 52.7406 49.1268 52.7053 49.2333 52.6347C49.3397 52.5613 49.4256 52.461 49.4912 52.334C49.5594 52.2069 49.6071 52.0601 49.6344 51.8934C49.6645 51.7269 49.6794 51.5475 49.6794 51.3556ZM52.7741 49.9747V53.6089H51.5911V49.026H52.7004L52.7741 49.9747ZM52.6103 51.1565H52.2829C52.2829 50.8374 52.3197 50.5437 52.3934 50.2755C52.4698 50.0044 52.5803 49.7701 52.725 49.5724C52.8723 49.3719 53.0538 49.2166 53.2694 49.1065C53.4849 48.9963 53.7347 48.9413 54.0184 48.9413C54.215 48.9413 54.3951 48.9724 54.5588 49.0344C54.7226 49.0938 54.8631 49.1884 54.9804 49.3183C55.1005 49.4453 55.1933 49.6119 55.2588 49.818C55.3243 50.0214 55.357 50.2656 55.357 50.5508V53.6089H54.1781V50.6863C54.1781 50.4774 54.1508 50.3164 54.0962 50.2035C54.0416 50.0905 53.9639 50.0114 53.8629 49.9663C53.7646 49.9211 53.646 49.8985 53.5068 49.8985C53.354 49.8985 53.2203 49.931 53.1057 49.996C52.9937 50.0609 52.901 50.1513 52.8273 50.267C52.7536 50.38 52.6991 50.5127 52.6636 50.6652C52.6281 50.8176 52.6103 50.9814 52.6103 51.1565ZM55.2465 51.0167L54.8248 51.0717C54.8248 50.7725 54.8603 50.4943 54.9313 50.2373C55.005 49.9804 55.1128 49.7545 55.2546 49.5597C55.3993 49.3648 55.5781 49.2138 55.7909 49.1065C56.0038 48.9963 56.2494 48.9413 56.5277 48.9413C56.7406 48.9413 56.9344 48.9738 57.109 49.0387C57.2836 49.1008 57.4324 49.2011 57.5552 49.3394C57.6807 49.475 57.7762 49.6529 57.8417 49.8731C57.91 50.0933 57.944 50.363 57.944 50.6821V53.6089H56.761V50.6821C56.761 50.4703 56.7337 50.3094 56.6791 50.1992C56.6273 50.0863 56.5509 50.0087 56.45 49.9663C56.3517 49.9211 56.2344 49.8985 56.0979 49.8985C55.956 49.8985 55.8319 49.9282 55.7254 49.9874C55.6189 50.0439 55.5303 50.123 55.4593 50.2246C55.3884 50.3263 55.3352 50.4449 55.2997 50.5804C55.2642 50.7131 55.2465 50.8585 55.2465 51.0167ZM60.8954 53.6936C60.5515 53.6936 60.2432 53.6371 59.9703 53.5241C59.6973 53.4084 59.4654 53.2489 59.2744 53.0455C59.0861 52.8422 58.9415 52.6064 58.8405 52.3382C58.7395 52.0671 58.689 51.7791 58.689 51.4742V51.3048C58.689 50.9574 58.7368 50.6397 58.8323 50.3518C58.9278 50.0637 59.0643 49.8138 59.2416 49.602C59.4217 49.3902 59.6401 49.2279 59.8966 49.1149C60.1531 48.9992 60.4423 48.9413 60.7644 48.9413C61.0782 48.9413 61.3565 48.9949 61.5994 49.1022C61.8423 49.2095 62.0456 49.362 62.2094 49.5597C62.3758 49.7574 62.5013 49.9946 62.5859 50.2713C62.6705 50.5451 62.7128 50.8501 62.7128 51.1862V51.6944H59.1925V50.8812H61.5544V50.788C61.5544 50.6186 61.5244 50.4675 61.4643 50.3348C61.4071 50.1992 61.3197 50.0919 61.2024 50.0129C61.085 49.9338 60.935 49.8943 60.7521 49.8943C60.5966 49.8943 60.4629 49.9296 60.3509 50.0001C60.2391 50.0708 60.1477 50.1696 60.0767 50.2967C60.0085 50.4237 59.9566 50.5734 59.9211 50.7456C59.8884 50.915 59.872 51.1014 59.872 51.3048V51.4742C59.872 51.6577 59.8966 51.8271 59.9457 51.9824C59.9976 52.1377 60.0699 52.2719 60.1626 52.3848C60.2582 52.4977 60.3728 52.5853 60.5065 52.6474C60.643 52.7095 60.7971 52.7406 60.969 52.7406C61.1819 52.7406 61.3797 52.6982 61.5626 52.6135C61.7482 52.5259 61.9078 52.3946 62.0415 52.2196L62.6146 52.8634C62.5218 53.0017 62.3949 53.1344 62.2339 53.2616C62.0756 53.3886 61.8846 53.4931 61.6608 53.575C61.4371 53.654 61.1819 53.6936 60.8954 53.6936ZM64.5385 50.0044V53.6089H63.3596V49.026H64.4648L64.5385 50.0044ZM64.3666 51.1565H64.0473C64.0473 50.8176 64.0896 50.5127 64.1742 50.2416C64.2588 49.9677 64.3775 49.7347 64.5303 49.5428C64.6831 49.3479 64.8646 49.1997 65.0747 49.098C65.2876 48.9935 65.525 48.9413 65.7869 48.9413C65.9944 48.9413 66.184 48.9724 66.3559 49.0344C66.5279 49.0966 66.6753 49.1954 66.798 49.331C66.9236 49.4665 67.0191 49.6458 67.0845 49.8689C67.1528 50.0919 67.1869 50.3645 67.1869 50.6863V53.6089H65.9998V50.6821C65.9998 50.4788 65.9725 50.3207 65.918 50.2077C65.8634 50.0948 65.7829 50.0157 65.6764 49.9705C65.5728 49.9225 65.4445 49.8985 65.2917 49.8985C65.1334 49.8985 64.9956 49.931 64.8782 49.996C64.7636 50.0609 64.6681 50.1513 64.5917 50.267C64.518 50.38 64.4621 50.5127 64.4239 50.6652C64.3857 50.8176 64.3666 50.9814 64.3666 51.1565ZM70.2528 49.026V49.8901H67.6741V49.026H70.2528ZM68.3126 47.8951H69.4915V52.2281C69.4915 52.3608 69.5078 52.4624 69.5406 52.533C69.5761 52.6036 69.6279 52.6531 69.6961 52.6813C69.7644 52.7067 69.8504 52.7194 69.9541 52.7194C70.0277 52.7194 70.0932 52.7166 70.1505 52.7109C70.2105 52.7024 70.2611 52.694 70.302 52.6855L70.3061 53.5834C70.2051 53.6173 70.0959 53.6442 69.9786 53.6639C69.8613 53.6837 69.7316 53.6936 69.5897 53.6936C69.3305 53.6936 69.104 53.6498 68.9103 53.5623C68.7192 53.4719 68.5719 53.3279 68.4682 53.1303C68.3645 52.9326 68.3126 52.6728 68.3126 52.3509V47.8951Z" fill="#32303D"/>
<path id="Vector_9" d="M37.1012 61.9454V66.8276H36.1322V61.9454H37.1012ZM38.553 61.9454V62.7334H34.7031V61.9454H38.553ZM42.8921 64.2725V64.5039C42.8921 64.875 42.8435 65.208 42.7463 65.5031C42.6491 65.7982 42.5119 66.0497 42.3348 66.2576C42.1576 66.4632 41.9459 66.6208 41.6996 66.7304C41.4555 66.8399 41.1844 66.8947 40.8862 66.8947C40.5903 66.8947 40.3191 66.8399 40.0728 66.7304C39.8287 66.6208 39.6169 66.4632 39.4377 66.2576C39.2583 66.0497 39.119 65.7982 39.0196 65.5031C38.9224 65.208 38.8738 64.875 38.8738 64.5039V64.2725C38.8738 63.8992 38.9224 63.5661 39.0196 63.2733C39.1169 62.9783 39.254 62.7267 39.4312 62.5188C39.6105 62.3109 39.8222 62.1522 40.0663 62.0427C40.3126 61.9332 40.5837 61.8784 40.8798 61.8784C41.1778 61.8784 41.449 61.9332 41.6931 62.0427C41.9394 62.1522 42.1511 62.3109 42.3282 62.5188C42.5076 62.7267 42.6458 62.9783 42.7431 63.2733C42.8424 63.5661 42.8921 63.8992 42.8921 64.2725ZM41.9102 64.5039V64.2658C41.9102 64.0065 41.8876 63.7785 41.8421 63.5818C41.7968 63.3851 41.7299 63.2197 41.6413 63.0856C41.5527 62.9514 41.4447 62.8508 41.3172 62.7837C41.1898 62.7145 41.0439 62.6798 40.8798 62.6798C40.7155 62.6798 40.5697 62.7145 40.4422 62.7837C40.3169 62.8508 40.21 62.9514 40.1214 63.0856C40.035 63.2197 39.9691 63.3851 39.9237 63.5818C39.8784 63.7785 39.8557 64.0065 39.8557 64.2658V64.5039C39.8557 64.761 39.8784 64.989 39.9237 65.1879C39.9691 65.3847 40.0361 65.5512 40.1247 65.6876C40.2132 65.8217 40.3213 65.9234 40.4487 65.9927C40.5762 66.062 40.722 66.0966 40.8862 66.0966C41.0504 66.0966 41.1962 66.062 41.3237 65.9927C41.4512 65.9234 41.5581 65.8217 41.6445 65.6876C41.7309 65.5512 41.7968 65.3847 41.8421 65.1879C41.8876 64.989 41.9102 64.761 41.9102 64.5039ZM45.4295 65.0874H44.2273V64.3027H45.4295C45.6153 64.3027 45.7665 64.2714 45.8832 64.2089C45.9999 64.144 46.0852 64.0546 46.1392 63.9406C46.1932 63.8266 46.2202 63.698 46.2202 63.555C46.2202 63.4096 46.1932 63.2744 46.1392 63.1492C46.0852 63.0241 45.9999 62.9235 45.8832 62.8475C45.7665 62.7715 45.6153 62.7334 45.4295 62.7334H44.5643V66.8276H43.5921V61.9454H45.4295C45.799 61.9454 46.1154 62.0148 46.379 62.1533C46.6447 62.2897 46.8479 62.4786 46.9882 62.7201C47.1287 62.9614 47.1989 63.2376 47.1989 63.5483C47.1989 63.8635 47.1287 64.1362 46.9882 64.3665C46.8479 64.5967 46.6447 64.7744 46.379 64.8996C46.1154 65.0247 45.799 65.0874 45.4295 65.0874ZM51.7001 61.9354V66.8276H50.7668V63.0486L49.6455 63.4175V62.6563L51.5996 61.9354H51.7001ZM56.412 63.9573V64.8024C56.412 65.169 56.3741 65.4853 56.2985 65.7513C56.2229 66.0151 56.1138 66.2319 55.9712 66.4018C55.8308 66.5694 55.6633 66.6935 55.4689 66.774C55.2745 66.8544 55.0584 66.8947 54.8208 66.8947C54.6307 66.8947 54.4535 66.8701 54.2894 66.821C54.1251 66.7695 53.9772 66.6902 53.8454 66.5829C53.7158 66.4756 53.6034 66.3403 53.5084 66.1771C53.4155 66.0117 53.3442 65.815 53.2945 65.587C53.2448 65.359 53.22 65.0975 53.22 64.8024V63.9573C53.22 63.5907 53.2578 63.2766 53.3334 63.0151C53.4112 62.7513 53.5202 62.5357 53.6607 62.368C53.8033 62.2003 53.9718 62.0773 54.1662 61.9991C54.3606 61.9186 54.5767 61.8784 54.8143 61.8784C55.0044 61.8784 55.1805 61.9041 55.3425 61.9555C55.5067 62.0047 55.6548 62.0818 55.7865 62.1869C55.9183 62.292 56.0306 62.4272 56.1235 62.5926C56.2164 62.7558 56.2877 62.9514 56.3374 63.1794C56.3871 63.4052 56.412 63.6645 56.412 63.9573ZM55.4754 64.9298V63.8266C55.4754 63.65 55.4657 63.4957 55.4462 63.3638C55.429 63.232 55.4019 63.1202 55.3652 63.0285C55.3285 62.9346 55.2831 62.8586 55.2291 62.8005C55.1751 62.7424 55.1135 62.6999 55.0444 62.6731C54.9753 62.6462 54.8986 62.6329 54.8143 62.6329C54.7085 62.6329 54.6145 62.6541 54.5324 62.6966C54.4525 62.7391 54.3844 62.8072 54.3282 62.9011C54.2721 62.9927 54.2288 63.1157 54.1986 63.27C54.1705 63.422 54.1565 63.6075 54.1565 63.8266V64.9298C54.1565 65.1063 54.1651 65.2617 54.1824 65.3958C54.2019 65.53 54.2299 65.6451 54.2667 65.7412C54.3056 65.8351 54.3509 65.9122 54.4028 65.9726C54.4568 66.0307 54.5183 66.0732 54.5875 66.1C54.6588 66.1268 54.7366 66.1403 54.8208 66.1403C54.9245 66.1403 55.0163 66.119 55.0963 66.0765C55.1784 66.0318 55.2475 65.9625 55.3036 65.8686C55.362 65.7725 55.4052 65.6474 55.4332 65.4931C55.4613 65.3388 55.4754 65.1511 55.4754 64.9298Z" fill="white"/>
<path id="Vector_10" d="M40.0815 73.8737V74.9062H35.6647V74.025L37.7534 71.708C37.9633 71.4663 38.1288 71.2538 38.2501 71.0702C38.3713 70.8836 38.4585 70.7169 38.5117 70.5701C38.5679 70.4202 38.596 70.278 38.596 70.1434C38.596 69.9415 38.5634 69.7686 38.4984 69.6248C38.4334 69.478 38.3373 69.3648 38.2102 69.2853C38.086 69.2058 37.9323 69.166 37.7489 69.166C37.5538 69.166 37.3853 69.215 37.2435 69.3129C37.1045 69.4107 36.998 69.5468 36.9242 69.7212C36.8532 69.8956 36.8177 70.0929 36.8177 70.3131H35.5361C35.5361 69.9155 35.6278 69.5515 35.8111 69.2211C35.9944 68.8876 36.253 68.6231 36.5871 68.4273C36.9212 68.2284 37.3173 68.129 37.7755 68.129C38.2279 68.129 38.6093 68.2055 38.9197 68.3585C39.233 68.5083 39.4695 68.7255 39.6292 69.01C39.7918 69.2914 39.8731 69.6279 39.8731 70.0195C39.8731 70.2397 39.8391 70.4554 39.7711 70.6665C39.7031 70.8744 39.6056 71.0825 39.4784 71.2905C39.3543 71.4954 39.2035 71.7035 39.0261 71.9145C38.8487 72.1256 38.6521 72.3443 38.4363 72.5707L37.3144 73.8737H40.0815ZM45.2256 70.9785V72.1348C45.2256 72.6364 45.1738 73.0693 45.0704 73.4333C44.9669 73.7944 44.8175 74.0911 44.6224 74.3231C44.4303 74.553 44.2011 74.7226 43.9351 74.8328C43.6691 74.9429 43.3734 74.998 43.0482 74.998C42.7881 74.998 42.5456 74.9642 42.3209 74.8974C42.0962 74.8269 41.8937 74.7182 41.7134 74.5713C41.536 74.4245 41.3823 74.2394 41.2522 74.0162C41.1251 73.79 41.0275 73.5205 40.9595 73.2085C40.8915 72.8965 40.8575 72.5385 40.8575 72.1348V70.9785C40.8575 70.4768 40.9093 70.047 41.0128 69.6891C41.1192 69.3281 41.2685 69.0329 41.4607 68.8035C41.6558 68.5741 41.8864 68.4058 42.1524 68.2988C42.4185 68.1887 42.7141 68.1336 43.0393 68.1336C43.2995 68.1336 43.5405 68.1688 43.7622 68.2391C43.9869 68.3064 44.1894 68.4119 44.3697 68.5557C44.55 68.6995 44.7038 68.8846 44.8309 69.111C44.958 69.3342 45.0556 69.6019 45.1236 69.9139C45.1916 70.2229 45.2256 70.5777 45.2256 70.9785ZM43.944 72.3091V70.7995C43.944 70.5578 43.9307 70.3468 43.9041 70.1663C43.8804 69.9858 43.8434 69.8329 43.7932 69.7074C43.7429 69.579 43.6808 69.4749 43.607 69.3954C43.5331 69.3159 43.4488 69.2578 43.3542 69.2211C43.2595 69.1843 43.1546 69.166 43.0393 69.166C42.8945 69.166 42.7659 69.1951 42.6535 69.2531C42.5441 69.3113 42.451 69.4046 42.3742 69.5331C42.2973 69.6585 42.2382 69.8268 42.1968 70.0378C42.1583 70.2458 42.1391 70.4997 42.1391 70.7995V72.3091C42.1391 72.5508 42.1509 72.7634 42.1746 72.9469C42.2012 73.1305 42.2397 73.288 42.2899 73.4196C42.3431 73.5484 42.4052 73.6534 42.4761 73.7364C42.55 73.8157 42.6343 73.8737 42.729 73.9104C42.8265 73.9471 42.9329 73.9655 43.0482 73.9655C43.1901 73.9655 43.3158 73.9368 43.4251 73.8781C43.5375 73.8171 43.6321 73.7224 43.7089 73.5939C43.7888 73.4624 43.8479 73.291 43.8863 73.08C43.9248 72.8689 43.944 72.612 43.944 72.3091ZM50.5115 73.8737V74.9062H46.0947V74.025L48.1834 71.708C48.3933 71.4663 48.5588 71.2538 48.68 71.0702C48.8013 70.8836 48.8885 70.7169 48.9416 70.5701C48.9978 70.4202 49.026 70.278 49.026 70.1434C49.026 69.9415 48.9934 69.7686 48.9284 69.6248C48.8634 69.478 48.7673 69.3648 48.6401 69.2853C48.5159 69.2058 48.3622 69.166 48.179 69.166C47.9838 69.166 47.8153 69.215 47.6734 69.3129C47.5345 69.4107 47.428 69.5468 47.3541 69.7212C47.2831 69.8956 47.2477 70.0929 47.2477 70.3131H45.9661C45.9661 69.9155 46.0577 69.5515 46.241 69.2211C46.4244 68.8876 46.683 68.6231 47.0171 68.4273C47.3511 68.2284 47.7473 68.129 48.2055 68.129C48.6579 68.129 49.0392 68.2055 49.3497 68.3585C49.663 68.5083 49.8996 68.7255 50.0592 69.01C50.2218 69.2914 50.303 69.6279 50.303 70.0195C50.303 70.2397 50.269 70.4554 50.201 70.6665C50.1331 70.8744 50.0355 71.0825 49.9084 71.2905C49.7842 71.4954 49.6335 71.7035 49.456 71.9145C49.2787 72.1256 49.0821 72.3443 48.8663 72.5707L47.7443 73.8737H50.5115ZM52.6179 70.9922H53.3008C53.5195 70.9922 53.6999 70.954 53.8418 70.8775C53.9837 70.798 54.0887 70.6878 54.1567 70.5471C54.2276 70.4034 54.2631 70.2366 54.2631 70.047C54.2631 69.8757 54.2305 69.7243 54.1655 69.5927C54.1034 69.4581 54.0073 69.3541 53.8773 69.2807C53.7472 69.2042 53.5831 69.166 53.385 69.166C53.2284 69.166 53.0835 69.1981 52.9505 69.2623C52.8175 69.3266 52.711 69.4168 52.6312 69.5331C52.5514 69.6493 52.5114 69.7901 52.5114 69.9552H51.2299C51.2299 69.5882 51.3245 69.2685 51.5137 68.9962C51.7058 68.724 51.963 68.5114 52.2853 68.3585C52.6075 68.2055 52.9623 68.129 53.3496 68.129C53.7871 68.129 54.1699 68.2024 54.4981 68.3493C54.8263 68.493 55.082 68.7056 55.2652 68.9871C55.4486 69.2685 55.5402 69.6172 55.5402 70.0332C55.5402 70.2443 55.4929 70.4492 55.3983 70.6481C55.3037 70.8439 55.1677 71.0213 54.9904 71.1804C54.8159 71.3363 54.6031 71.4618 54.3518 71.5566C54.1005 71.6484 53.8182 71.6943 53.5048 71.6943H52.6179V70.9922ZM52.6179 71.9971V71.3134H53.5048C53.8566 71.3134 54.1655 71.3547 54.4316 71.4373C54.6977 71.5199 54.9209 71.6392 55.1012 71.7952C55.2816 71.9482 55.4176 72.1302 55.5092 72.3413C55.6008 72.5492 55.6467 72.7802 55.6467 73.0341C55.6467 73.3461 55.589 73.6247 55.4737 73.8693C55.3584 74.1109 55.1958 74.3158 54.9859 74.484C54.7789 74.6521 54.5366 74.7806 54.2586 74.8695C53.9808 74.9554 53.6777 74.998 53.3496 74.998C53.0776 74.998 52.81 74.9598 52.5469 74.8835C52.2868 74.8034 52.0503 74.6859 51.8374 74.5302C51.6275 74.3709 51.459 74.1718 51.3319 73.9332C51.2077 73.6916 51.1456 73.4057 51.1456 73.0754H52.4272C52.4272 73.2467 52.4686 73.3997 52.5514 73.5344C52.6341 73.6688 52.748 73.7746 52.8928 73.8509C53.0406 73.9273 53.2047 73.9655 53.385 73.9655C53.589 73.9655 53.7635 73.9273 53.9083 73.8509C54.0562 73.7716 54.1685 73.6615 54.2454 73.5205C54.3251 73.3767 54.3651 73.21 54.3651 73.0203C54.3651 72.7757 54.3222 72.5799 54.2365 72.433C54.1508 72.2831 54.0281 72.173 53.8684 72.1027C53.7087 72.0323 53.5195 71.9971 53.3008 71.9971H52.6179Z" fill="white"/>
</g>
</g>
</g>
</g>
<defs>
<clipPath id="clip0_2296_6330">
<rect width="90.8453" height="94" fill="white" transform="translate(-0.483398)"/>
</clipPath>
</defs>
</svg>
