<svg width="91" height="94" viewBox="0 0 91 94" fill="none" xmlns="http://www.w3.org/2000/svg">
<g id="AwardGoodFirms.svg" clip-path="url(#clip0_2296_6346)">
<g id="Clip path group">
<mask id="mask0_2296_6346" style="mask-type:luminance" maskUnits="userSpaceOnUse" x="-1" y="0" width="92" height="94">
<g id="clip0_11330_48623">
<path id="Vector" d="M90.2096 -3.05176e-05H-0.635742V94H90.2096V-3.05176e-05Z" fill="white"/>
</g>
</mask>
<g mask="url(#mask0_2296_6346)">
<g id="Group">
<path id="Vector_2" fill-rule="evenodd" clip-rule="evenodd" d="M7.32129 6.46142C7.32129 2.81116 10.1811 -0.147949 13.7088 -0.147949H76.3494C79.8775 -0.147949 82.737 2.81117 82.737 6.46143V65.5543C82.737 67.7626 81.671 69.8249 79.8967 71.0511L48.3741 92.8279C46.2161 94.3187 43.4011 94.3106 41.2511 92.8074L10.1327 71.0516C8.37474 69.8225 7.32129 67.7704 7.32129 65.5751V6.46142Z" fill="white"/>
<path id="Vector_3" fill-rule="evenodd" clip-rule="evenodd" d="M7.32129 6.46142C7.32129 2.81116 10.1811 -0.147949 13.7088 -0.147949H76.3494C79.8775 -0.147949 82.737 2.81117 82.737 6.46143V65.5543C82.737 67.7626 81.671 69.8249 79.8967 71.0511L48.3741 92.8279C46.2161 94.3187 43.4011 94.3106 41.2511 92.8074L10.1327 71.0516C8.37474 69.8225 7.32129 67.7704 7.32129 65.5751V6.46142ZM13.7088 1.3208C10.965 1.3208 8.74075 3.62233 8.74075 6.46142V65.5751C8.74075 67.2826 9.56013 68.8787 10.9274 69.8346L42.0458 91.5905C43.718 92.7597 45.9075 92.7663 47.5859 91.6067L79.1082 69.8296C80.4886 68.8759 81.3176 67.2718 81.3176 65.5543V6.46143C81.3176 3.62234 79.0933 1.3208 76.3494 1.3208H13.7088Z" fill="#3A7BF3"/>
<path id="Vector_4" d="M42.7956 11.8608L44.6418 8.21152L46.2123 11.8608L50.1525 12.4881L47.2318 15.4247L48.0033 19.3307L44.6418 17.5346L41.1975 19.3307L41.8864 15.4247L38.9932 12.4881L42.7956 11.8608Z" fill="#3777F3"/>
<path id="Vector_5" d="M54.8822 13.857L55.9468 11.7525L56.8525 13.857L59.1246 14.2187L57.4404 15.9122L57.8853 18.1646L55.9468 17.1288L53.9606 18.1646L54.3579 15.9122L52.6895 14.2187L54.8822 13.857Z" fill="#5C98F3"/>
<path id="Vector_6" d="M32.7747 13.857L33.8393 11.7525L34.745 13.857L37.0172 14.2187L35.333 15.9122L35.7779 18.1646L33.8393 17.1288L31.8532 18.1646L32.2504 15.9122L30.582 14.2187L32.7747 13.857Z" fill="#5C98F3"/>
<path id="Vector_7" d="M62.2621 16.1966L63.0365 14.6658L63.6953 16.1966L65.3482 16.4598L64.123 17.6917L64.4467 19.3302L63.0365 18.5767L61.5917 19.3302L61.8806 17.6917L60.667 16.4598L62.2621 16.1966Z" fill="#A0BBFC"/>
<path id="Vector_8" d="M24.9633 16.1966L25.7377 14.6658L26.3965 16.1966L28.0494 16.4598L26.8242 17.6917L27.1478 19.3302L25.7377 18.5767L24.2929 19.3302L24.5818 17.6917L23.3682 16.4598L24.9633 16.1966Z" fill="#A0BBFC"/>
<path id="Vector_9" d="M24.9562 30.8521H24.174L24.1714 30.3452H24.8641C24.9712 30.3452 25.0625 30.3234 25.138 30.2798C25.2135 30.2363 25.2706 30.1727 25.3092 30.0891C25.3496 30.0055 25.3698 29.9047 25.3698 29.7866C25.3698 29.6557 25.3522 29.5495 25.317 29.4677C25.282 29.3842 25.2266 29.3233 25.1512 29.2851C25.0774 29.247 24.9826 29.2279 24.8667 29.2279H24.3637V32.6399H23.7236V28.672H24.8667C25.0458 28.672 25.2056 28.6938 25.3461 28.7374C25.4883 28.7792 25.6085 28.8437 25.7069 28.9308C25.8052 29.0181 25.8799 29.1298 25.9307 29.2661C25.9834 29.4005 26.0097 29.5604 26.0097 29.7457C26.0097 29.9074 25.9764 30.0563 25.9097 30.1926C25.843 30.3271 25.7437 30.4379 25.6121 30.5251C25.4821 30.6105 25.3206 30.6614 25.1275 30.6777L24.9562 30.8521ZM24.9326 32.6399H23.9633L24.2583 32.0867H24.9326C25.0467 32.0867 25.1406 32.0613 25.2143 32.0104C25.2881 31.9595 25.3434 31.8886 25.3803 31.7978C25.4172 31.7069 25.4356 31.6007 25.4356 31.479C25.4356 31.3518 25.4198 31.241 25.3882 31.1464C25.3566 31.052 25.3057 30.9793 25.2354 30.9284C25.1652 30.8776 25.0721 30.8521 24.9562 30.8521H24.311L24.3163 30.3452H25.1406L25.2881 30.5387C25.4725 30.5423 25.6226 30.5896 25.7385 30.6804C25.8544 30.7695 25.9395 30.8849 25.994 31.0265C26.0484 31.1683 26.0756 31.32 26.0756 31.4817C26.0756 31.7342 26.03 31.9468 25.9386 32.1193C25.8474 32.2902 25.7166 32.4201 25.5462 32.5091C25.3777 32.5962 25.1731 32.6399 24.9326 32.6399Z" fill="#171717"/>
<path id="Vector_10" d="M28.8518 32.0867V32.6399H27.1872V32.0867H28.8518ZM27.3558 28.672V32.6399H26.7158V28.672H27.3558ZM28.6279 30.3234V30.8685H27.1872V30.3234H28.6279ZM28.836 28.672V29.2279H27.1872V28.672H28.836Z" fill="#171717"/>
<path id="Vector_11" d="M31.0264 31.6152C31.0264 31.5334 31.0176 31.4607 31.0001 31.3971C30.9843 31.3318 30.9535 31.2727 30.9079 31.22C30.8623 31.1674 30.7972 31.1156 30.713 31.0647C30.6305 31.0138 30.5234 30.962 30.3916 30.9094C30.2407 30.8494 30.0993 30.784 29.9676 30.7131C29.8377 30.6404 29.7227 30.5587 29.6226 30.4679C29.5243 30.3752 29.447 30.2671 29.3908 30.1436C29.3346 30.02 29.3065 29.8765 29.3065 29.713C29.3065 29.5513 29.3338 29.4041 29.3882 29.2715C29.4444 29.137 29.5234 29.0217 29.6253 28.9254C29.7288 28.8273 29.8517 28.7519 29.994 28.6992C30.1362 28.6447 30.2933 28.6175 30.4654 28.6175C30.713 28.6175 30.9246 28.672 31.1002 28.7809C31.2774 28.89 31.4127 29.0362 31.5058 29.2197C31.6006 29.4032 31.648 29.6067 31.648 29.8301H31.0106C31.0106 29.7012 30.9913 29.5867 30.9527 29.4868C30.914 29.3869 30.8543 29.3087 30.7735 29.2524C30.6928 29.1961 30.5883 29.1679 30.4601 29.1679C30.3425 29.1679 30.2451 29.1915 30.1678 29.2388C30.0923 29.286 30.0361 29.3505 29.9992 29.4323C29.9641 29.5141 29.9466 29.6076 29.9466 29.713C29.9466 29.7856 29.9615 29.8519 29.9913 29.9119C30.0212 29.97 30.0642 30.0236 30.1204 30.0727C30.1766 30.1218 30.2451 30.1681 30.3258 30.2117C30.4066 30.2553 30.4997 30.2971 30.605 30.3371C30.7841 30.4043 30.9403 30.4787 31.0738 30.5605C31.2073 30.6423 31.317 30.734 31.403 30.8358C31.4908 30.9357 31.5558 31.0493 31.5979 31.1764C31.6418 31.3036 31.6638 31.448 31.6638 31.6097C31.6638 31.7732 31.6366 31.9222 31.5821 32.0567C31.5295 32.1893 31.4522 32.3028 31.3503 32.3973C31.2485 32.4918 31.1256 32.5654 30.9816 32.618C30.8376 32.6689 30.6761 32.6943 30.497 32.6943C30.3319 32.6943 30.173 32.6689 30.0203 32.618C29.8693 32.5672 29.7341 32.49 29.6147 32.3864C29.4953 32.281 29.4005 32.1493 29.3302 31.9913C29.2617 31.8332 29.2275 31.6479 29.2275 31.4353H29.8676C29.8676 31.5625 29.8825 31.6715 29.9123 31.7624C29.9422 31.8514 29.9852 31.9249 30.0414 31.9831C30.0993 32.0394 30.1669 32.0812 30.2442 32.1085C30.3232 32.1339 30.4109 32.1466 30.5075 32.1466C30.6269 32.1466 30.7244 32.1248 30.7999 32.0812C30.8772 32.0358 30.9342 31.9731 30.9711 31.8931C31.008 31.8132 31.0264 31.7206 31.0264 31.6152Z" fill="#171717"/>
<path id="Vector_12" d="M33.6323 28.672V32.6399H32.9949V28.672H33.6323ZM34.6094 28.672V29.2279H32.0283V28.672H34.6094Z" fill="#171717"/>
<path id="Vector_13" d="M38.0938 31.3454H38.7312C38.7189 31.6324 38.6627 31.8768 38.5626 32.0785C38.4625 32.2783 38.3186 32.4309 38.1307 32.5363C37.9446 32.6417 37.7172 32.6943 37.4485 32.6943C37.2448 32.6943 37.0623 32.6562 36.9007 32.5799C36.7409 32.5036 36.6049 32.3937 36.4925 32.2501C36.3801 32.1048 36.2941 31.9277 36.2344 31.7187C36.1764 31.5098 36.1475 31.2727 36.1475 31.0075V30.3043C36.1475 30.0391 36.1773 29.802 36.237 29.5931C36.2985 29.3841 36.3863 29.207 36.5004 29.0617C36.6145 28.9163 36.7532 28.8064 36.9165 28.7319C37.0816 28.6556 37.2677 28.6175 37.4749 28.6175C37.74 28.6175 37.963 28.6701 38.1439 28.7755C38.3247 28.8809 38.4643 29.0353 38.5626 29.2388C38.661 29.4422 38.718 29.6902 38.7339 29.9827H38.0964C38.0876 29.7848 38.0613 29.6267 38.0175 29.5086C37.9753 29.3887 37.9104 29.3024 37.8226 29.2497C37.7365 29.197 37.6206 29.1707 37.4749 29.1707C37.3537 29.1707 37.2492 29.1943 37.1615 29.2415C37.0754 29.2888 37.0043 29.3596 36.9481 29.4541C36.8937 29.5467 36.8524 29.6639 36.8243 29.8056C36.798 29.9455 36.7849 30.1099 36.7849 30.2989V31.0075C36.7849 31.1892 36.7962 31.3499 36.8191 31.4898C36.8419 31.6297 36.8788 31.7487 36.9297 31.8468C36.9806 31.9431 37.0482 32.0167 37.1325 32.0676C37.2168 32.1166 37.3221 32.1411 37.4485 32.1411C37.5996 32.1411 37.7199 32.1166 37.8094 32.0676C37.9007 32.0185 37.9683 31.9359 38.0122 31.8196C38.0561 31.7033 38.0833 31.5453 38.0938 31.3454Z" fill="#171717"/>
<path id="Vector_14" d="M41.894 30.3316V31.0075C41.894 31.2873 41.8624 31.5325 41.7991 31.7433C41.7377 31.954 41.6481 32.1303 41.5305 32.2719C41.4146 32.4118 41.2742 32.5172 41.1091 32.5881C40.9458 32.6589 40.7632 32.6943 40.5613 32.6943C40.3611 32.6943 40.1785 32.6589 40.0135 32.5881C39.8502 32.5172 39.7089 32.4118 39.5894 32.2719C39.4718 32.1303 39.3805 31.954 39.3155 31.7433C39.2523 31.5325 39.2207 31.2873 39.2207 31.0075V30.3316C39.2207 30.0482 39.2523 29.8002 39.3155 29.5876C39.3788 29.3732 39.4692 29.1943 39.5868 29.0507C39.7062 28.9072 39.8475 28.7991 40.0108 28.7264C40.1759 28.6537 40.3576 28.6175 40.556 28.6175C40.7579 28.6175 40.9405 28.6537 41.1038 28.7264C41.2689 28.7991 41.4102 28.9072 41.5279 29.0507C41.6455 29.1943 41.7359 29.3732 41.7991 29.5876C41.8624 29.8002 41.894 30.0482 41.894 30.3316ZM41.2593 31.0075V30.3261C41.2593 30.1245 41.2434 29.9519 41.2118 29.8083C41.182 29.663 41.1372 29.5449 41.0775 29.4541C41.0178 29.3615 40.9441 29.2933 40.8563 29.2497C40.7703 29.2043 40.6701 29.1815 40.556 29.1815C40.4454 29.1815 40.3462 29.2043 40.2584 29.2497C40.1724 29.2933 40.0986 29.3615 40.0372 29.4541C39.9775 29.5449 39.9318 29.663 39.9002 29.8083C39.8704 29.9519 39.8554 30.1245 39.8554 30.3261V31.0075C39.8554 31.2055 39.8712 31.3763 39.9028 31.5198C39.9345 31.6615 39.9801 31.7778 40.0398 31.8686C40.1013 31.9576 40.1759 32.0239 40.2636 32.0676C40.3514 32.1112 40.4507 32.133 40.5613 32.133C40.6737 32.133 40.7737 32.1112 40.8615 32.0676C40.9493 32.0239 41.0222 31.9576 41.0801 31.8686C41.1398 31.7778 41.1846 31.6615 41.2145 31.5198C41.2443 31.3763 41.2593 31.2055 41.2593 31.0075Z" fill="#171717"/>
<path id="Vector_15" d="M42.7596 28.672H43.3417L44.224 31.6233L45.1036 28.672H45.6436L44.4637 32.6399H43.9817L42.7596 28.672ZM42.541 28.672H43.0783L43.1652 31.1982V32.6399H42.541V28.672ZM45.3644 28.672H45.9044V32.6399H45.2801V31.1982L45.3644 28.672Z" fill="#171717"/>
<path id="Vector_16" d="M47.8967 31.1683H47.0882V30.6151H47.8967C48.0285 30.6151 48.1347 30.586 48.2154 30.5278C48.298 30.4697 48.3576 30.3897 48.3946 30.288C48.4332 30.1862 48.4525 30.0709 48.4525 29.9419C48.4525 29.8184 48.4332 29.7021 48.3946 29.5931C48.3576 29.484 48.2988 29.396 48.218 29.3287C48.1373 29.2615 48.0302 29.2279 47.8967 29.2279H47.2673V32.6399H46.6299V28.672H47.8967C48.1496 28.672 48.3656 28.7265 48.5447 28.8354C48.7237 28.9445 48.8607 29.0944 48.9555 29.2851C49.0503 29.4741 49.0977 29.6912 49.0977 29.9365C49.0977 30.1926 49.0503 30.4124 48.9555 30.596C48.8607 30.7795 48.7237 30.9211 48.5447 31.0211C48.3656 31.1192 48.1496 31.1683 47.8967 31.1683Z" fill="#171717"/>
<path id="Vector_17" d="M50.5599 29.217L49.6328 32.6399H48.9639L50.1806 28.672H50.5967L50.5599 29.217ZM51.3 32.6399L50.3703 29.217L50.3255 28.672H50.7495L51.9716 32.6399H51.3ZM51.3158 31.1655V31.7215H49.5301V31.1655H51.3158Z" fill="#171717"/>
<path id="Vector_18" d="M55.0097 28.672V32.6399H54.3828L53.029 29.8929V32.6399H52.4102V28.672H53.029L54.3933 31.4381V28.672H55.0097Z" fill="#171717"/>
<path id="Vector_19" d="M56.0698 28.672L56.7441 30.5523L57.4183 28.672H58.1242L57.0654 31.1792V32.6399H56.4201V31.1792L55.3613 28.672H56.0698Z" fill="#171717"/>
<path id="Vector_20" d="M61.0453 28.672V32.6399H60.408V28.672H61.0453ZM62.0225 28.672V29.2279H59.4414V28.672H62.0225Z" fill="#171717"/>
<path id="Vector_21" d="M65.06 30.3316V31.0075C65.06 31.2873 65.0283 31.5325 64.9652 31.7433C64.9037 31.954 64.8141 32.1303 64.6965 32.2719C64.5806 32.4118 64.4402 32.5172 64.2751 32.5881C64.1118 32.6589 63.9292 32.6943 63.7273 32.6943C63.5271 32.6943 63.3445 32.6589 63.1795 32.5881C63.0162 32.5172 62.8748 32.4118 62.7554 32.2719C62.6378 32.1303 62.5465 31.954 62.4815 31.7433C62.4183 31.5325 62.3867 31.2873 62.3867 31.0075V30.3316C62.3867 30.0482 62.4183 29.8002 62.4815 29.5876C62.5447 29.3732 62.6351 29.1943 62.7528 29.0507C62.8722 28.9072 63.0135 28.7991 63.1769 28.7264C63.3419 28.6537 63.5236 28.6175 63.722 28.6175C63.9239 28.6175 64.1065 28.6537 64.2698 28.7264C64.4349 28.7991 64.5762 28.9072 64.6939 29.0507C64.8115 29.1943 64.9019 29.3732 64.9652 29.5876C65.0283 29.8002 65.06 30.0482 65.06 30.3316ZM64.4252 31.0075V30.3261C64.4252 30.1245 64.4094 29.9519 64.3778 29.8083C64.348 29.663 64.3032 29.5449 64.2435 29.4541C64.1838 29.3615 64.1101 29.2933 64.0223 29.2497C63.9362 29.2043 63.8361 29.1815 63.722 29.1815C63.6114 29.1815 63.5122 29.2043 63.4244 29.2497C63.3384 29.2933 63.2647 29.3615 63.2032 29.4541C63.1435 29.5449 63.0978 29.663 63.0662 29.8083C63.0363 29.9519 63.0214 30.1245 63.0214 30.3261V31.0075C63.0214 31.2055 63.0373 31.3763 63.0688 31.5198C63.1004 31.6615 63.1461 31.7778 63.2058 31.8686C63.2673 31.9576 63.3419 32.0239 63.4297 32.0676C63.5175 32.1112 63.6167 32.133 63.7273 32.133C63.8397 32.133 63.9397 32.1112 64.0275 32.0676C64.1153 32.0239 64.1882 31.9576 64.2461 31.8686C64.3058 31.7778 64.3506 31.6615 64.3805 31.5198C64.4103 31.3763 64.4252 31.2055 64.4252 31.0075Z" fill="#171717"/>
<path id="Vector_22" d="M81.4686 38.8614H7.94922V57.079H81.4686V38.8614Z" fill="#3777F3"/>
<path id="Vector_23" d="M21.0395 49.8574L22.2991 43.4972H23.0777L23.0451 45.0914L21.6828 51.6418H20.8665L21.0395 49.8574ZM20.2394 43.4972L21.2395 49.8126L21.2827 51.6418H20.4232L18.9365 43.4972H20.2394ZM24.4454 49.7902L25.4347 43.4972H26.7322L25.2509 51.6418H24.3913L24.4454 49.7902ZM23.3911 43.4972L24.64 49.8741L24.8021 51.6418H23.9858L22.6559 45.0858L22.6235 43.4972H23.3911Z" fill="white"/>
<path id="Vector_24" d="M33.0634 46.9038V48.2911C33.0634 48.8654 32.9985 49.3689 32.8688 49.8014C32.7426 50.2341 32.5588 50.5958 32.3173 50.8867C32.0795 51.1738 31.7911 51.3901 31.4524 51.5356C31.1171 51.681 30.7423 51.7537 30.3279 51.7537C29.917 51.7537 29.5422 51.681 29.2034 51.5356C28.8682 51.3901 28.5781 51.1738 28.333 50.8867C28.0915 50.5958 27.9041 50.2341 27.7708 49.8014C27.641 49.3689 27.5762 48.8654 27.5762 48.2911V46.9038C27.5762 46.322 27.641 45.8131 27.7708 45.3767C27.9005 44.9367 28.0861 44.5693 28.3276 44.2747C28.5727 43.9801 28.8628 43.7582 29.198 43.609C29.5368 43.4599 29.9098 43.3853 30.3171 43.3853C30.7316 43.3853 31.1064 43.4599 31.4415 43.609C31.7803 43.7582 32.0705 43.9801 32.3119 44.2747C32.5534 44.5693 32.739 44.9367 32.8688 45.3767C32.9985 45.8131 33.0634 46.322 33.0634 46.9038ZM31.7605 48.2911V46.8927C31.7605 46.4787 31.7281 46.1244 31.6631 45.8298C31.6019 45.5315 31.51 45.2891 31.3875 45.1026C31.2649 44.9124 31.1135 44.7726 30.9333 44.6831C30.7567 44.5898 30.5513 44.5432 30.3171 44.5432C30.09 44.5432 29.8863 44.5898 29.7061 44.6831C29.5296 44.7726 29.3782 44.9124 29.2521 45.1026C29.1295 45.2891 29.0358 45.5315 28.9709 45.8298C28.9097 46.1244 28.879 46.4787 28.879 46.8927V48.2911C28.879 48.6976 28.9115 49.0481 28.9763 49.3428C29.0412 49.6336 29.1349 49.8723 29.2574 50.0588C29.3836 50.2415 29.5368 50.3776 29.717 50.4672C29.8972 50.5566 30.1008 50.6014 30.3279 50.6014C30.5585 50.6014 30.764 50.5566 30.9442 50.4672C31.1244 50.3776 31.2739 50.2415 31.3929 50.0588C31.5154 49.8723 31.6073 49.6336 31.6686 49.3428C31.7299 49.0481 31.7605 48.6976 31.7605 48.2911Z" fill="white"/>
<path id="Vector_25" d="M34.4004 43.4972H36.7791C37.2981 43.4972 37.7378 43.5904 38.0982 43.7768C38.4586 43.9633 38.7325 44.2392 38.9199 44.6047C39.111 44.9664 39.2065 45.4159 39.2065 45.9528C39.2065 46.3593 39.147 46.7173 39.0281 47.0269C38.9128 47.3364 38.7451 47.5975 38.5253 47.81C38.3055 48.0189 38.0405 48.1811 37.7306 48.2967L37.3468 48.5149H35.3357L35.3303 47.3737H36.7467C37.0025 47.3737 37.2152 47.3159 37.3846 47.2002C37.554 47.0847 37.6801 46.9243 37.763 46.7192C37.8495 46.5141 37.8928 46.281 37.8928 46.02C37.8928 45.7402 37.8549 45.4979 37.7793 45.2928C37.7035 45.0839 37.5847 44.9235 37.4224 44.8117C37.2602 44.6961 37.0458 44.6383 36.7791 44.6383H35.7141V51.6418H34.4004V43.4972ZM38.0658 51.6418L36.5683 47.9834L37.936 47.9778L39.4714 51.5691V51.6418H38.0658Z" fill="white"/>
<path id="Vector_26" d="M41.719 43.4972V51.6418H40.4053V43.4972H41.719ZM45.6492 43.4972L43.0273 47.4296L41.4541 49.4267L41.2054 48.0058L42.292 46.3388L44.0599 43.4972H45.6492ZM44.2058 51.6418L42.211 47.7933L43.1137 46.8255L45.7574 51.6418H44.2058Z" fill="white"/>
<path id="Vector_27" d="M50.7212 49.8574L51.9808 43.4972H52.7593L52.7269 45.0914L51.3645 51.6418H50.5482L50.7212 49.8574ZM49.9211 43.4972L50.9212 49.8126L50.9645 51.6418H50.1049L48.6182 43.4972H49.9211ZM54.1271 49.7902L55.1164 43.4972H56.4138L54.9326 51.6418H54.073L54.1271 49.7902ZM53.0729 43.4972L54.3217 49.8741L54.4839 51.6418H53.6675L52.3376 45.0858L52.3052 43.4972H53.0729Z" fill="white"/>
<path id="Vector_28" d="M58.7698 43.4972V51.6418H57.4561V43.4972H58.7698Z" fill="white"/>
<path id="Vector_29" d="M62.9905 43.4972V51.6418H61.6823V43.4972H62.9905ZM64.9962 43.4972V44.6383H59.6982V43.4972H64.9962Z" fill="white"/>
<path id="Vector_30" d="M70.3534 46.887V48.0282H67.0397V46.887H70.3534ZM67.3479 43.4972V51.6418H66.0342V43.4972H67.3479ZM71.3811 43.4972V51.6418H70.0725V43.4972H71.3811Z" fill="white"/>
<path id="Vector_31" d="M26.3216 65.5135C26.3216 65.5135 25.9727 65.4775 25.9727 65.7951V67.2173H28.2613V67.6434C28.2613 67.6434 28.2683 67.8527 28.052 67.8527H25.9727V69.7009H28.4706C28.4706 69.7009 29.9847 69.4627 29.9986 67.8527V65.5135H26.3216ZM29.9288 63.2466H25.4215C23.7888 63.6437 23.7539 65.0299 23.7539 65.0299V69.7081H25.4843V65.4485C25.4843 65.0876 25.8331 65.0226 25.8331 65.0226H29.9219L29.9288 63.2466ZM35.8805 68.3653C35.7619 68.4447 35.6712 68.5097 35.6084 68.5458C35.3851 68.6902 35.1758 68.7985 34.9804 68.8851C34.6944 69.0078 34.4431 69.0656 34.2129 69.0656C33.4315 69.0656 32.7826 68.8201 32.2663 68.322C31.743 67.8238 31.4848 67.1957 31.4848 66.4449C31.4848 65.7157 31.715 65.0876 32.1895 64.5461C32.657 64.0119 33.2291 63.7447 33.8989 63.7447C34.178 63.7447 34.4781 63.7953 34.7851 63.8964C35.1898 64.0263 35.5107 64.2284 35.7759 64.4811L35.3293 64.9937C35.1409 64.7988 34.8897 64.6616 34.6037 64.575C34.3873 64.51 34.1501 64.4739 33.885 64.4739C33.4175 64.4739 33.0198 64.6688 32.6988 65.0587C32.3848 65.4558 32.2244 65.9179 32.2244 66.4665C32.2244 67.008 32.4058 67.4557 32.7686 67.8094C33.1314 68.1632 33.592 68.3437 34.1502 68.3437C34.3804 68.3437 34.6176 68.2642 34.8618 68.1198C35.0641 67.961 35.1688 67.8816 35.1688 67.8816V66.7554H33.6548L33.871 66.0551H35.8805V68.3653ZM40.4367 66.9936C40.4367 67.535 40.2483 68.0043 39.8785 68.4014C39.5087 68.7985 39.0482 69.0006 38.497 69.0006C37.9877 69.0006 37.5481 68.8057 37.1643 68.4158C36.7806 68.026 36.5922 67.5567 36.5922 67.0008C36.5922 66.4521 36.7736 65.9828 37.1364 65.5785C37.4992 65.1742 37.9458 64.9793 38.4621 64.9793C39.0413 64.9793 39.5087 65.1742 39.8785 65.5569C40.2483 65.9323 40.4367 66.416 40.4367 66.9936ZM39.732 67.008C39.732 66.6398 39.6134 66.3293 39.3761 66.0766C39.1389 65.8167 38.8459 65.694 38.49 65.694C38.1621 65.694 37.883 65.824 37.6458 66.0911C37.4155 66.351 37.2969 66.6542 37.2969 66.9936C37.2969 67.3473 37.4155 67.6506 37.6458 67.9033C37.876 68.156 38.1691 68.2859 38.5179 68.2859C38.8459 68.2859 39.1249 68.1631 39.3622 67.9105C39.6134 67.6506 39.732 67.3473 39.732 67.008ZM44.937 66.9936C44.937 67.535 44.7487 68.0043 44.3788 68.4014C44.0091 68.7985 43.5486 69.0006 42.9974 69.0006C42.488 69.0006 42.0484 68.8057 41.6647 68.4158C41.2809 68.026 41.0926 67.5567 41.0926 67.0008C41.0926 66.4521 41.274 65.9828 41.6368 65.5785C41.9996 65.1742 42.4462 64.9793 42.9624 64.9793C43.5416 64.9793 44.0091 65.1742 44.3788 65.5569C44.7487 65.9323 44.937 66.416 44.937 66.9936ZM44.2254 67.008C44.2254 66.6398 44.1067 66.3293 43.8695 66.0766C43.6323 65.8167 43.3392 65.694 42.9834 65.694C42.6555 65.694 42.3764 65.824 42.1391 66.0911C41.9089 66.351 41.7903 66.6542 41.7903 66.9936C41.7903 67.3473 41.9089 67.6506 42.1391 67.9033C42.3694 68.156 42.6624 68.2859 43.0113 68.2859C43.3392 68.2859 43.6184 68.1631 43.8556 67.9105C44.1067 67.6506 44.2254 67.3473 44.2254 67.008ZM49.0956 68.8923L48.4467 68.9934V68.3437L48.3071 68.5097C48.1815 68.6324 48.042 68.7263 47.8954 68.8057C47.6721 68.914 47.4349 68.9645 47.1907 68.9645C46.6814 68.9645 46.2488 68.7696 45.8999 68.387C45.551 68.0043 45.3696 67.535 45.3696 67.0008C45.3696 66.4449 45.5441 65.9684 45.893 65.5785C46.2418 65.1814 46.6605 64.9865 47.1698 64.9865C47.4628 64.9865 47.714 65.0371 47.9234 65.1309C48.0768 65.2031 48.2024 65.297 48.3141 65.4125C48.349 65.463 48.3838 65.5135 48.4257 65.564V63.853L49.1165 63.752L49.0956 68.8923ZM48.4885 67.0441C48.4885 66.6615 48.3629 66.3366 48.1117 66.0766C47.8606 65.8096 47.5745 65.6796 47.2466 65.6796C46.8838 65.6796 46.5977 65.8024 46.3744 66.0551C46.1651 66.2933 46.0604 66.5892 46.0604 66.9358C46.0604 67.3257 46.172 67.6506 46.3884 67.9033C46.6046 68.156 46.8767 68.2787 47.2186 68.2787C47.5466 68.2787 47.8396 68.1631 48.0977 67.9249C48.3559 67.6866 48.4885 67.3907 48.4885 67.0441ZM52.7517 64.5605H50.812V65.9251H52.3191V66.6254H50.812V68.8851L50.0584 69.0006V63.853H52.6051L52.7517 64.5605ZM54.3076 64.1634L53.8401 64.7699L53.3935 64.1634L53.861 63.5643L54.3076 64.1634ZM54.1681 68.8923L53.4773 68.9934V65.1814L54.1681 65.0731V68.8923ZM57.2938 65.0299L56.966 65.8095C56.9241 65.8024 56.8822 65.8024 56.8334 65.8024C56.7636 65.8024 56.7008 65.8096 56.631 65.8167C56.5613 65.824 56.4915 65.8529 56.4147 65.8962C56.2682 65.9611 56.1426 66.1056 56.038 66.3149C55.9193 66.5604 55.8566 66.8275 55.8566 67.1018V68.8851L55.1658 69.0006V65.1814L55.8077 65.0587V65.8529C55.8914 65.7157 55.9752 65.5785 56.0589 65.4341C56.1775 65.2898 56.3171 65.1886 56.4706 65.1237C56.5543 65.0876 56.7008 65.0659 56.931 65.0443C57.1543 65.0299 57.2799 65.0226 57.2938 65.0299ZM62.4571 68.8923L61.7663 68.9934V66.3799C61.7663 66.1416 61.7175 65.9611 61.6128 65.8529C61.5081 65.7446 61.3547 65.6868 61.1524 65.6868C60.9081 65.6868 60.7267 65.7879 60.6011 65.9973C60.5174 66.1416 60.4685 66.2933 60.4685 66.4449V68.8779L59.7778 69.0078V66.3871C59.7778 66.1561 59.7289 65.9828 59.6243 65.8601C59.5196 65.7374 59.387 65.6796 59.2127 65.6796H59.1428C58.8987 65.6796 58.7242 65.7807 58.6126 65.9973C58.5288 66.1561 58.487 66.3582 58.487 66.6037V68.8706L57.7683 69.0006V65.167L58.4172 65.0515V65.5425C58.487 65.4269 58.5638 65.3331 58.6266 65.2681C58.8149 65.0876 59.0313 65.0009 59.2754 65.0009C59.5475 65.0009 59.7499 65.0443 59.8895 65.1381C60.0081 65.2176 60.1197 65.3691 60.2383 65.5857C60.4756 65.1959 60.8104 65.0009 61.257 65.0009C61.6826 65.0009 61.9966 65.1381 62.2059 65.4197C62.3734 65.6507 62.4571 65.9901 62.4571 66.4305V68.8923ZM65.6178 67.7372C65.6178 68.091 65.4992 68.3797 65.262 68.6036C65.0247 68.8346 64.7247 68.9428 64.3619 68.9428C64.0898 68.9428 63.8456 68.8779 63.6223 68.7479C63.399 68.618 63.2316 68.4664 63.1269 68.2931L63.6153 67.8455C63.6502 67.9033 63.6851 67.9466 63.713 67.9754C63.8944 68.1703 64.1107 68.2642 64.3619 68.2642C64.5363 68.2642 64.6759 68.2137 64.7735 68.1198C64.8782 68.026 64.9271 67.896 64.9271 67.7227C64.9271 67.5278 64.8085 67.3979 64.5712 67.3257C64.1038 67.1813 63.8456 67.0946 63.8107 67.0802C63.5944 66.9647 63.4409 66.8419 63.3432 66.7048C63.2316 66.546 63.1757 66.3366 63.1757 66.0694C63.1757 65.7374 63.2944 65.4702 63.5246 65.2464C63.7549 65.0299 64.0339 64.9215 64.3549 64.9215C64.5992 64.9215 64.8224 64.9793 65.0317 65.0948C65.241 65.2103 65.3876 65.3331 65.4783 65.4702L65.0666 65.9323C65.0038 65.8673 64.934 65.8095 64.8642 65.759C64.6968 65.6363 64.5363 65.5785 64.3898 65.5785C64.2433 65.5785 64.1246 65.6146 64.0339 65.6796C63.9224 65.759 63.8665 65.8817 63.8665 66.0406C63.8665 66.1922 63.9153 66.3077 64.027 66.3799C64.1177 66.4377 64.3131 66.5027 64.627 66.5748C64.934 66.6542 65.1782 66.7842 65.3457 66.9719C65.541 67.174 65.6178 67.4195 65.6178 67.7372Z" fill="#3A7AF3"/>
<path id="Vector_32" d="M34.3678 74.3451H34.8192V76.4469C34.8192 76.7818 34.7127 77.0388 34.4998 77.218C34.2869 77.3972 34.0285 77.4868 33.7248 77.4868C33.2336 77.4868 32.8972 77.3091 32.7155 76.9536L33.1116 76.7157C33.2223 76.9419 33.4295 77.055 33.7333 77.055C33.932 77.055 34.0867 77.0006 34.1974 76.8919C34.311 76.7862 34.3678 76.6378 34.3678 76.4469V76.1781C34.1946 76.4337 33.9476 76.5615 33.6268 76.5615C33.3259 76.5615 33.0718 76.4513 32.8646 76.231C32.6573 76.0078 32.5537 75.739 32.5537 75.4247C32.5537 75.1103 32.6573 74.843 32.8646 74.6227C33.0718 74.3995 33.3259 74.2878 33.6268 74.2878C33.9476 74.2878 34.1946 74.4156 34.3678 74.6712V74.3451ZM33.2052 75.9182C33.3358 76.0503 33.4977 76.1164 33.6907 76.1164C33.8837 76.1164 34.0441 76.0503 34.1719 75.9182C34.3025 75.786 34.3678 75.6215 34.3678 75.4247C34.3678 75.2278 34.3025 75.0633 34.1719 74.9312C34.0441 74.799 33.8837 74.7329 33.6907 74.7329C33.4977 74.7329 33.3358 74.799 33.2052 74.9312C33.0775 75.0633 33.0136 75.2278 33.0136 75.4247C33.0136 75.6215 33.0775 75.786 33.2052 75.9182Z" fill="#1A1A1A"/>
<path id="Vector_33" d="M36.3635 76.6055C36.0512 76.6055 35.7858 76.4939 35.5672 76.2707C35.3486 76.0474 35.2393 75.7728 35.2393 75.4467C35.2393 75.1206 35.3486 74.846 35.5672 74.6227C35.7858 74.3995 36.0512 74.2878 36.3635 74.2878C36.6786 74.2878 36.944 74.3995 37.1598 74.6227C37.3784 74.846 37.4877 75.1206 37.4877 75.4467C37.4877 75.7728 37.3784 76.0474 37.1598 76.2707C36.944 76.4939 36.6786 76.6055 36.3635 76.6055ZM35.8908 75.9446C36.0185 76.0768 36.1761 76.1429 36.3635 76.1429C36.5508 76.1429 36.7084 76.0768 36.8361 75.9446C36.9639 75.8124 37.0278 75.6464 37.0278 75.4467C37.0278 75.2469 36.9639 75.081 36.8361 74.9488C36.7084 74.8166 36.5508 74.7505 36.3635 74.7505C36.1761 74.7505 36.0185 74.8166 35.8908 74.9488C35.763 75.081 35.6992 75.2469 35.6992 75.4467C35.6992 75.6464 35.763 75.8124 35.8908 75.9446Z" fill="#1A1A1A"/>
<path id="Vector_34" d="M38.9094 76.6055C38.5971 76.6055 38.3316 76.4939 38.1131 76.2707C37.8945 76.0474 37.7852 75.7728 37.7852 75.4467C37.7852 75.1206 37.8945 74.846 38.1131 74.6227C38.3316 74.3995 38.5971 74.2878 38.9094 74.2878C39.2245 74.2878 39.4899 74.3995 39.7057 74.6227C39.9243 74.846 40.0336 75.1206 40.0336 75.4467C40.0336 75.7728 39.9243 76.0474 39.7057 76.2707C39.4899 76.4939 39.2245 76.6055 38.9094 76.6055ZM38.4367 75.9446C38.5644 76.0768 38.722 76.1429 38.9094 76.1429C39.0967 76.1429 39.2543 76.0768 39.382 75.9446C39.5098 75.8124 39.5737 75.6464 39.5737 75.4467C39.5737 75.2469 39.5098 75.081 39.382 74.9488C39.2543 74.8166 39.0967 74.7505 38.9094 74.7505C38.722 74.7505 38.5644 74.8166 38.4367 74.9488C38.3089 75.081 38.2451 75.2469 38.2451 75.4467C38.2451 75.6464 38.3089 75.8124 38.4367 75.9446Z" fill="#1A1A1A"/>
<path id="Vector_35" d="M42.1366 73.4645H42.5965V76.5489H42.1366V76.2317C41.9634 76.4813 41.715 76.6062 41.3914 76.6062C41.099 76.6062 40.8492 76.4946 40.6419 76.2713C40.4347 76.0451 40.3311 75.7705 40.3311 75.4473C40.3311 75.1213 40.4347 74.8466 40.6419 74.6234C40.8492 74.4001 41.099 74.2885 41.3914 74.2885C41.715 74.2885 41.9634 74.4119 42.1366 74.6586V73.4645ZM40.9826 75.9541C41.1103 76.0863 41.2707 76.1523 41.4638 76.1523C41.6568 76.1523 41.8172 76.0863 41.945 75.9541C42.0727 75.8189 42.1366 75.65 42.1366 75.4473C42.1366 75.2447 42.0727 75.0772 41.945 74.945C41.8172 74.8099 41.6568 74.7423 41.4638 74.7423C41.2707 74.7423 41.1103 74.8099 40.9826 74.945C40.8548 75.0772 40.791 75.2447 40.791 75.4473C40.791 75.65 40.8548 75.8189 40.9826 75.9541Z" fill="#1A1A1A"/>
<path id="Vector_36" d="M44.9122 74.3445V76.5476H44.4523V74.8027H43.7455V76.5476H43.2856V74.8027H42.9619V74.3445H43.2856V74.3004C43.2856 73.7041 43.6063 73.4057 44.2479 73.4057C44.3984 73.4057 44.556 73.4248 44.7206 73.4632V73.8994C44.5702 73.8759 44.4126 73.8642 44.2479 73.8642C44.0776 73.8642 43.9513 73.8965 43.8689 73.9611C43.7866 74.0258 43.7455 74.1389 43.7455 74.3004V74.3445H44.9122Z" fill="#1A1A1A"/>
<path id="Vector_37" d="M45.9023 74.7148C46.0187 74.4416 46.2373 74.3051 46.5581 74.3051V74.8206C46.3821 74.8088 46.2288 74.8529 46.0982 74.9528C45.9676 75.0497 45.9023 75.2113 45.9023 75.4375V76.5478H45.4424V74.3447H45.9023V74.7148Z" fill="#1A1A1A"/>
<path id="Vector_38" d="M49.2235 74.2878C49.4648 74.2878 49.6593 74.3686 49.8069 74.5302C49.9545 74.6917 50.0283 74.9091 50.0283 75.1823V76.5483H49.5684V75.2132C49.5684 75.0604 49.5315 74.9429 49.4577 74.8607C49.3839 74.7755 49.2831 74.7329 49.1554 74.7329C49.0134 74.7329 48.8999 74.7813 48.8147 74.8783C48.7324 74.9752 48.6912 75.1206 48.6912 75.3145V76.5483H48.2313V75.2132C48.2313 75.0604 48.1958 74.9429 48.1249 74.8607C48.0567 74.7755 47.9588 74.7329 47.831 74.7329C47.6919 74.7329 47.5784 74.7828 47.4904 74.8827C47.4023 74.9796 47.3583 75.1236 47.3583 75.3145V76.5483H46.8984V74.3451H47.3583V74.6095C47.4946 74.3951 47.6976 74.2878 47.9673 74.2878C48.2398 74.2878 48.4414 74.4039 48.572 74.6359C48.7139 74.4039 48.9311 74.2878 49.2235 74.2878Z" fill="#1A1A1A"/>
<path id="Vector_39" d="M50.9364 74.9532C50.9364 75.0266 50.9747 75.0854 51.0514 75.1294C51.1309 75.1706 51.226 75.2073 51.3367 75.2396C51.4502 75.269 51.5638 75.3042 51.6774 75.3453C51.7909 75.3865 51.886 75.457 51.9627 75.5568C52.0422 75.6538 52.0819 75.7772 52.0819 75.927C52.0819 76.1385 52.0024 76.3044 51.8434 76.4249C51.6873 76.5453 51.49 76.6055 51.2515 76.6055C51.0414 76.6055 50.8612 76.56 50.7107 76.4689C50.5602 76.3779 50.4509 76.2516 50.3828 76.09L50.7788 75.8521C50.8527 76.0636 51.0102 76.1693 51.2515 76.1693C51.4928 76.1693 51.6135 76.0871 51.6135 75.9226C51.6135 75.8521 51.5737 75.7948 51.4942 75.7507C51.4176 75.7067 51.3225 75.6699 51.2089 75.6406C51.0982 75.6083 50.9861 75.5715 50.8725 75.5304C50.759 75.4893 50.6624 75.4217 50.583 75.3277C50.5063 75.2308 50.468 75.1089 50.468 74.962C50.468 74.7593 50.5418 74.5963 50.6894 74.4729C50.8399 74.3495 51.0258 74.2878 51.2473 74.2878C51.4233 74.2878 51.5794 74.329 51.7157 74.4112C51.8548 74.4905 51.9612 74.6022 52.0351 74.7461L51.6475 74.9708C51.5737 74.8034 51.4403 74.7197 51.2473 74.7197C51.1593 74.7197 51.0854 74.7402 51.0258 74.7813C50.9662 74.8195 50.9364 74.8768 50.9364 74.9532Z" fill="#1A1A1A"/>
<path id="Vector_40" d="M52.9445 76.5042C52.882 76.5688 52.8068 76.6011 52.7188 76.6011C52.6308 76.6011 52.5556 76.5688 52.4931 76.5042C52.4306 76.4396 52.3994 76.3617 52.3994 76.2707C52.3994 76.1796 52.4292 76.1018 52.4888 76.0371C52.5513 75.9725 52.6279 75.9402 52.7188 75.9402C52.8068 75.9402 52.882 75.9725 52.9445 76.0371C53.0069 76.1018 53.0382 76.1796 53.0382 76.2707C53.0382 76.3617 53.0069 76.4396 52.9445 76.5042Z" fill="#1A1A1A"/>
<path id="Vector_41" d="M54.3625 76.6055C54.0417 76.6055 53.7734 76.4939 53.5577 76.2707C53.3447 76.0474 53.2383 75.7728 53.2383 75.4467C53.2383 75.1177 53.3447 74.843 53.5577 74.6227C53.7734 74.3995 54.0417 74.2878 54.3625 74.2878C54.5697 74.2878 54.7585 74.3392 54.9289 74.4421C55.0992 74.5449 55.2269 74.6829 55.3121 74.8562L54.9161 75.0942C54.8678 74.9884 54.794 74.9062 54.6946 74.8474C54.5981 74.7857 54.486 74.7549 54.3582 74.7549C54.1709 74.7549 54.0133 74.821 53.8856 74.9532C53.7606 75.0854 53.6982 75.2499 53.6982 75.4467C53.6982 75.6435 53.7606 75.808 53.8856 75.9402C54.0133 76.0724 54.1709 76.1385 54.3582 76.1385C54.4831 76.1385 54.5953 76.1076 54.6946 76.0459C54.7968 75.9843 54.8735 75.902 54.9246 75.7992L55.3206 76.0327C55.2298 76.209 55.0992 76.3485 54.9289 76.4513C54.7585 76.5541 54.5697 76.6055 54.3625 76.6055Z" fill="#1A1A1A"/>
<path id="Vector_42" d="M56.6262 76.6055C56.3139 76.6055 56.0484 76.4939 55.8298 76.2707C55.6112 76.0474 55.502 75.7728 55.502 75.4467C55.502 75.1206 55.6112 74.846 55.8298 74.6227C56.0484 74.3995 56.3139 74.2878 56.6262 74.2878C56.9413 74.2878 57.2067 74.3995 57.4225 74.6227C57.6411 74.846 57.7504 75.1206 57.7504 75.4467C57.7504 75.7728 57.6411 76.0474 57.4225 76.2707C57.2067 76.4939 56.9413 76.6055 56.6262 76.6055ZM56.1535 75.9446C56.2812 76.0768 56.4388 76.1429 56.6262 76.1429C56.8135 76.1429 56.9711 76.0768 57.0988 75.9446C57.2266 75.8124 57.2905 75.6464 57.2905 75.4467C57.2905 75.2469 57.2266 75.081 57.0988 74.9488C56.9711 74.8166 56.8135 74.7505 56.6262 74.7505C56.4388 74.7505 56.2812 74.8166 56.1535 74.9488C56.0257 75.081 55.9619 75.2469 55.9619 75.4467C55.9619 75.6464 56.0257 75.8124 56.1535 75.9446Z" fill="#1A1A1A"/>
</g>
</g>
</g>
</g>
<defs>
<clipPath id="clip0_2296_6346">
<rect width="90.8453" height="94" fill="white" transform="translate(-0.637695)"/>
</clipPath>
</defs>
</svg>
