<svg width="91" height="94" viewBox="0 0 91 94" fill="none" xmlns="http://www.w3.org/2000/svg">
<g id="AwardClutch_2023.svg">
<path id="Vector" d="M3.37598 23.5L45.25 0L87.124 23.5V70.5L45.25 94L3.37598 70.5V23.5Z" fill="white"/>
<path id="Vector_2" d="M3.73047 70.2814V23.7185L45.2496 0.417694L86.7687 23.7185V70.2814L45.2496 93.5821L3.73047 70.2814Z" stroke="#6A797D" stroke-width="0.721947"/>
<path id="Vector_3" fill-rule="evenodd" clip-rule="evenodd" d="M45.2497 2.9375L5.50488 24.9688V69.0312L45.2497 91.0625L84.9945 69.0312V24.9688L45.2497 2.9375ZM9.36403 26.5982L45.3347 6.2172L81.2585 26.671V67.3908L45.3193 87.7439L9.41741 67.3882L9.36403 26.5982Z" fill="#6A797D"/>
<path id="Vector_4" fill-rule="evenodd" clip-rule="evenodd" d="M5.50205 34.068H9.36672L9.32641 26.5781L45.3371 6.18927L81.3572 26.6115V34.0846H84.986V59.9324H81.3572V67.4237L45.3154 87.8297L9.34394 67.4418V59.9324H5.4873L5.50205 34.068ZM9.81733 26.8737V36.4423L80.8816 36.4318V26.8799L45.3371 6.72458L9.81733 26.8737ZM9.83053 67.1438V57.5849L80.893 57.5738V67.1395L45.3154 87.2665L9.83053 67.1438Z" fill="#17313B"/>
<g id="Clip path group">
<mask id="mask0_2296_6222" style="mask-type:luminance" maskUnits="userSpaceOnUse" x="26" y="40" width="39" height="12">
<g id="clip0_11330_48628">
<path id="Vector_5" d="M64.0832 40.5943H26.2227V51.7412H64.0832V40.5943Z" fill="white"/>
</g>
</mask>
<g mask="url(#mask0_2296_6222)">
<g id="Group">
<path id="Vector_6" d="M36.0771 40.5943H37.8008V51.7413H36.0771V40.5943ZM43.8336 48.1854C43.8336 49.8913 42.4473 50.0273 42.035 50.0273C41.0047 50.0273 40.8172 49.0294 40.8172 48.4275V44.1613H39.0936V48.4186C39.0936 49.4753 39.4142 50.3475 39.976 50.9289C40.4725 51.443 41.2162 51.7239 42.0221 51.7239C42.5935 51.7239 43.4027 51.5397 43.8336 51.1327V51.7413H45.5573V44.1613H43.8336V48.1854ZM49.0046 41.486H47.2809V44.1613H45.9882V45.9449H47.2809V51.7413H49.0046V45.9449H50.2973V44.1613H49.0046V41.486ZM55.7256 49.4749C55.3502 49.824 54.8547 50.0175 54.3109 50.0175C53.1121 50.0175 52.2317 49.1066 52.2317 47.8559C52.2317 46.6052 53.084 45.7326 54.3109 45.7326C54.8452 45.7326 55.3502 45.9168 55.735 46.2659L55.9966 46.4986L57.1588 45.2966L56.8679 45.025C56.1841 44.3861 55.2761 44.0276 54.3104 44.0276C52.1558 44.0276 50.5912 45.6363 50.5912 47.8465C50.5912 50.0474 52.1933 51.7136 54.3104 51.7136C55.2942 51.7136 56.2116 51.3552 56.8868 50.7059L57.1678 50.4344L55.9875 49.2332L55.7256 49.4749ZM63.3109 44.8221C62.8145 44.3085 62.2328 44.0276 61.427 44.0276C60.8556 44.0276 60.2084 44.2118 59.7774 44.6184V40.5943H58.0538V51.7413H59.7774V47.5656C59.7774 45.8597 60.9487 45.7241 61.361 45.7241C62.3913 45.7241 62.3629 46.7224 62.3629 47.3235V51.7413H64.0866V47.3328C64.0866 46.2762 63.8733 45.404 63.3109 44.8221Z" fill="white"/>
<path id="Vector_7" d="M54.2501 46.5855C54.5806 46.5855 54.8976 46.7213 55.1313 46.9632C55.365 47.205 55.4963 47.533 55.4963 47.875C55.4963 48.217 55.365 48.5449 55.1313 48.7868C54.8976 49.0286 54.5806 49.1645 54.2501 49.1645C53.9196 49.1645 53.6026 49.0286 53.3689 48.7868C53.1352 48.5449 53.0039 48.217 53.0039 47.875C53.0039 47.533 53.1352 47.205 53.3689 46.9632C53.6026 46.7213 53.9196 46.5855 54.2501 46.5855Z" fill="#FF3D2E"/>
<path id="Vector_8" d="M33.6606 48.9421C33.0053 49.6399 32.115 50.0181 31.1781 50.0181C29.258 50.0181 27.8618 48.4575 27.8618 46.3155C27.8618 44.1637 29.258 42.6031 31.1781 42.6031C32.1059 42.6031 32.9863 42.9808 33.6516 43.6692L33.9136 43.9408L35.0659 42.7485L34.8129 42.4769C33.8576 41.459 32.5649 40.907 31.1781 40.907C28.3492 40.907 26.2227 43.2331 26.2227 46.3248C26.2227 49.4072 28.3587 51.724 31.1781 51.724C32.5743 51.724 33.8671 51.1622 34.8224 50.1442L35.0753 49.8727L33.9326 48.6612L33.6606 48.9421Z" fill="white"/>
</g>
</g>
</g>
<path id="Vector_9" d="M15.1641 34.1886V33.9648L75.3303 33.9534V34.1886H15.1641Z" fill="#17313B"/>
<path id="Vector_10" d="M15.1572 60.0581V59.8343L75.3234 59.8229V60.0581H15.1572Z" fill="#17313B"/>
<path id="Vector_11" d="M42.4729 12.2262H41.4111V15.9497H40.9038V12.2262H39.8447V11.7729H42.4729V12.2262Z" fill="#17313B"/>
<path id="Vector_12" d="M46.3225 14.2285C46.3225 14.7984 46.2052 15.2373 45.9704 15.5452C45.7357 15.8531 45.4021 16.007 44.9696 16.007C44.5538 16.007 44.2248 15.8579 43.9826 15.5596C43.7424 15.2593 43.6176 14.8357 43.6084 14.2888V13.5028C43.6084 12.9443 43.7276 12.5073 43.966 12.1917C44.2044 11.8743 44.5371 11.7156 44.9641 11.7156C45.3892 11.7156 45.72 11.8676 45.9566 12.1717C46.195 12.4738 46.317 12.9061 46.3225 13.4683V14.2285ZM45.8152 13.497C45.8152 13.0552 45.745 12.7273 45.6045 12.513C45.4659 12.297 45.2524 12.1889 44.9641 12.1889C44.685 12.1889 44.4733 12.2979 44.3292 12.5159C44.1869 12.7339 44.1148 13.0552 44.1129 13.4798V14.2285C44.1129 14.655 44.1841 14.9801 44.3264 15.2039C44.4706 15.4276 44.685 15.5395 44.9696 15.5395C45.2543 15.5395 45.465 15.4362 45.6017 15.2296C45.7385 15.0231 45.8096 14.7066 45.8152 14.2802V13.497Z" fill="#17313B"/>
<path id="Vector_13" d="M48.3247 14.3146V15.9497H47.8174V11.7729H49.1038C49.4789 11.7729 49.7738 11.8896 49.9882 12.123C50.2025 12.3544 50.3097 12.6632 50.3097 13.0495C50.3097 13.4511 50.2071 13.7609 50.002 13.9789C49.7987 14.1951 49.5113 14.3069 49.1397 14.3146H48.3247ZM48.3247 13.8642H49.1038C49.3292 13.8642 49.5021 13.7944 49.6222 13.6548C49.7423 13.5152 49.8024 13.3154 49.8024 13.0552C49.8024 12.8047 49.7405 12.6039 49.6166 12.4528C49.4928 12.3018 49.3228 12.2262 49.1065 12.2262H48.3247V13.8642Z" fill="#17313B"/>
<path id="Vector_14" d="M32.0917 22.0226C32.0917 21.8142 32.0372 21.6545 31.9281 21.5436C31.8191 21.4326 31.6223 21.3246 31.3376 21.2194C31.053 21.1142 30.8349 21.0043 30.6833 20.8896C30.5337 20.7729 30.4209 20.6409 30.3452 20.4937C30.2712 20.3445 30.2342 20.1743 30.2342 19.983C30.2342 19.6522 30.3405 19.3797 30.553 19.1655C30.7674 18.9512 31.0475 18.8442 31.3931 18.8442C31.6297 18.8442 31.8403 18.8996 32.0252 19.0106C32.21 19.1196 32.3523 19.2716 32.4521 19.4667C32.5519 19.6618 32.6019 19.876 32.6019 20.1093H32.0917C32.0917 19.8511 32.0317 19.6513 31.9115 19.5097C31.7914 19.3682 31.6186 19.2974 31.3931 19.2974C31.188 19.2974 31.029 19.3567 30.9163 19.4753C30.8035 19.5938 30.7471 19.7602 30.7471 19.9745C30.7471 20.1503 30.8081 20.2977 30.9301 20.4162C31.0521 20.5348 31.2406 20.6409 31.4957 20.7346C31.8931 20.8704 32.1768 21.0378 32.3468 21.2366C32.5187 21.4355 32.6047 21.6956 32.6047 22.0169C32.6047 22.3554 32.4983 22.6269 32.2858 22.8316C32.0733 23.0343 31.784 23.1357 31.4181 23.1357C31.1833 23.1357 30.9662 23.0831 30.7665 22.9779C30.5688 22.8708 30.4126 22.7217 30.298 22.5304C30.1853 22.3372 30.1289 22.1163 30.1289 21.8677H30.639C30.639 22.126 30.7083 22.3267 30.8469 22.4702C30.9874 22.6136 31.1778 22.6853 31.4181 22.6853C31.6417 22.6853 31.8099 22.626 31.9226 22.5075C32.0354 22.3889 32.0917 22.2273 32.0917 22.0226Z" fill="#17313B"/>
<path id="Vector_15" d="M36.6087 21.3571C36.6087 21.927 36.4913 22.3659 36.2566 22.6738C36.0219 22.9817 35.6882 23.1357 35.2557 23.1357C34.8399 23.1357 34.5109 22.9865 34.2688 22.6882C34.0285 22.3879 33.9038 21.9643 33.8945 21.4174V20.6314C33.8945 20.0729 34.0137 19.6359 34.2522 19.3203C34.4906 19.0029 34.8233 18.8442 35.2502 18.8442C35.6753 18.8442 36.0061 18.9962 36.2427 19.3003C36.4811 19.6025 36.6031 20.0347 36.6087 20.5969V21.3571ZM36.1013 20.6256C36.1013 20.1838 36.0311 19.8559 35.8906 19.6416C35.752 19.4256 35.5385 19.3175 35.2502 19.3175C34.9711 19.3175 34.7595 19.4265 34.6153 19.6445C34.473 19.8625 34.4009 20.1838 34.3991 20.6084V21.3571C34.3991 21.7836 34.4703 22.1087 34.6126 22.3325C34.7567 22.5562 34.9711 22.6681 35.2557 22.6681C35.5404 22.6681 35.7511 22.5648 35.8879 22.3583C36.0246 22.1517 36.0958 21.8352 36.1013 21.4088V20.6256Z" fill="#17313B"/>
<path id="Vector_16" d="M39.9739 21.2338H38.6099V23.0783H38.1025V18.9016H40.204V19.3548H38.6099V20.7834H39.9739V21.2338Z" fill="#17313B"/>
<path id="Vector_17" d="M43.9564 19.3548H42.8946V23.0783H42.3872V19.3548H41.3281V18.9016H43.9564V19.3548Z" fill="#17313B"/>
<path id="Vector_18" d="M46.0755 21.7616L46.1282 22.2292L46.2086 21.8161L46.8546 18.9016H47.2787L47.9053 21.8161L47.9857 22.2407L48.0439 21.7588L48.5374 18.9016H49.0447L48.2407 23.0783H47.7833L47.1096 20.0347L47.0681 19.788L47.0265 20.0347L46.3278 23.0783H45.8676L45.0664 18.9016H45.5737L46.0755 21.7616Z" fill="#17313B"/>
<path id="Vector_19" d="M52.1008 21.9883H50.7368L50.4235 23.0783H49.9023L51.2026 18.9016H51.6378L52.9408 23.0783H52.4196L52.1008 21.9883ZM50.8698 21.535H51.9705L51.4188 19.6359L50.8698 21.535Z" fill="#17313B"/>
<path id="Vector_20" d="M55.4191 21.3887H54.7094V23.0783H54.1992V18.9016H55.3304C55.7259 18.9016 56.0253 19.0087 56.2286 19.2228C56.432 19.4351 56.5336 19.7469 56.5336 20.1581C56.5336 20.4162 56.4782 20.6419 56.3672 20.835C56.2582 21.0263 56.1029 21.1707 55.9015 21.2682L56.6833 23.0439V23.0783H56.1371L55.4191 21.3887ZM54.7094 20.9383H55.3248C55.5374 20.9383 55.7065 20.8675 55.8322 20.726C55.9597 20.5845 56.0235 20.3952 56.0235 20.1581C56.0235 19.6226 55.7887 19.3548 55.3193 19.3548H54.7094V20.9383Z" fill="#17313B"/>
<path id="Vector_21" d="M59.86 21.1477H58.4322V22.6279H60.0956V23.0783H57.9248V18.9016H60.0679V19.3548H58.4322V20.6973H59.86V21.1477Z" fill="#17313B"/>
<path id="Vector_22" d="M27.3789 31.0159V26.8391H28.3409C28.8122 26.8391 29.1781 26.9921 29.4388 27.2981C29.6994 27.6021 29.8297 28.0306 29.8297 28.5833V29.2832C29.8297 29.8359 29.6975 30.2633 29.4332 30.5655C29.1689 30.8657 28.7854 31.0159 28.2827 31.0159H27.3789ZM27.8862 27.2924V30.5655H28.2937C28.6505 30.5655 28.9111 30.4603 29.0756 30.2499C29.2401 30.0376 29.3242 29.724 29.3279 29.309V28.5689C29.3279 28.129 29.2456 27.8068 29.0811 27.6021C28.9185 27.3956 28.6717 27.2924 28.3409 27.2924H27.8862Z" fill="#17313B"/>
<path id="Vector_23" d="M33.2682 29.0853H31.8403V30.5655H33.5038V31.0159H31.333V26.8391H33.476V27.2924H31.8403V28.6349H33.2682V29.0853Z" fill="#17313B"/>
<path id="Vector_24" d="M36.021 30.2097L36.9442 26.8391H37.5014L36.2456 31.0159H35.802L34.5488 26.8391H35.1033L36.021 30.2097Z" fill="#17313B"/>
<path id="Vector_25" d="M40.691 29.0853H39.2632V30.5655H40.9266V31.0159H38.7559V26.8391H40.899V27.2924H39.2632V28.6349H40.691V29.0853Z" fill="#17313B"/>
<path id="Vector_26" d="M42.8001 30.5655H44.3832V31.0159H42.29V26.8391H42.8001V30.5655Z" fill="#17313B"/>
<path id="Vector_27" d="M48.1409 29.2946C48.1409 29.8646 48.0235 30.3034 47.7888 30.6114C47.5541 30.9193 47.2205 31.0732 46.7879 31.0732C46.3721 31.0732 46.0432 30.9241 45.801 30.6257C45.5608 30.3255 45.436 29.9018 45.4268 29.3549V28.5688C45.4268 28.0104 45.5459 27.5735 45.7844 27.2579C46.0228 26.9404 46.3555 26.7817 46.7824 26.7817C47.2075 26.7817 47.5383 26.9338 47.775 27.2378C48.0134 27.54 48.1354 27.9722 48.1409 28.5345V29.2946ZM47.6335 28.5631C47.6335 28.1214 47.5633 27.7934 47.4229 27.5792C47.2843 27.3631 47.0708 27.255 46.7824 27.255C46.5033 27.255 46.2917 27.364 46.1476 27.5821C46.0053 27.8001 45.9332 28.1214 45.9313 28.5459V29.2946C45.9313 29.7211 46.0025 30.0463 46.1448 30.27C46.2889 30.4937 46.5033 30.6056 46.7879 30.6056C47.0726 30.6056 47.2833 30.5024 47.4201 30.2958C47.5569 30.0893 47.628 29.7728 47.6335 29.3462V28.5631Z" fill="#17313B"/>
<path id="Vector_28" d="M50.1431 29.3807V31.0159H49.6357V26.8391H50.9221C51.2973 26.8391 51.5921 26.9557 51.8065 27.189C52.0209 27.4204 52.1281 27.7293 52.1281 28.1157C52.1281 28.5172 52.0255 28.8271 51.8204 29.0451C51.617 29.2612 51.3297 29.3731 50.9581 29.3807H50.1431ZM50.1431 28.9303H50.9221C51.1476 28.9303 51.3204 28.8606 51.4405 28.7209C51.5607 28.5813 51.6207 28.3814 51.6207 28.1214C51.6207 27.8708 51.5588 27.6701 51.435 27.519C51.3111 27.3679 51.1411 27.2924 50.9249 27.2924H50.1431V28.9303Z" fill="#17313B"/>
<path id="Vector_29" d="M55.4302 29.0853H54.0024V30.5655H55.6659V31.0159H53.4951V26.8391H55.6381V27.2924H54.0024V28.6349H55.4302V29.0853Z" fill="#17313B"/>
<path id="Vector_30" d="M58.2472 29.3262H57.5375V31.0159H57.0273V26.8391H58.1585C58.554 26.8391 58.8534 26.9462 59.0567 27.1604C59.2601 27.3726 59.3617 27.6844 59.3617 28.0956C59.3617 28.3538 59.3063 28.5794 59.1954 28.7726C59.0863 28.9638 58.931 29.1082 58.7296 29.2057L59.5114 30.9814V31.0159H58.9653L58.2472 29.3262ZM57.5375 28.8758H58.153C58.3655 28.8758 58.5346 28.8051 58.6603 28.6635C58.7878 28.522 58.8516 28.3327 58.8516 28.0956C58.8516 27.56 58.6169 27.2924 58.1474 27.2924H57.5375V28.8758Z" fill="#17313B"/>
<path id="Vector_31" d="M62.5156 29.9602C62.5156 29.7517 62.4611 29.592 62.352 29.4811C62.243 29.3702 62.0461 29.2622 61.7615 29.1569C61.4769 29.0518 61.2588 28.9418 61.1072 28.827C60.9575 28.7104 60.8447 28.5785 60.769 28.4311C60.695 28.282 60.6581 28.1118 60.6581 27.9205C60.6581 27.5897 60.7643 27.3172 60.9769 27.103C61.1913 26.8888 61.4713 26.7817 61.8169 26.7817C62.0535 26.7817 62.2642 26.8372 62.449 26.9481C62.6339 27.0571 62.7762 27.2091 62.876 27.4042C62.9758 27.5992 63.0256 27.8135 63.0256 28.0468H62.5156C62.5156 27.7886 62.4555 27.5887 62.3354 27.4472C62.2152 27.3057 62.0424 27.2349 61.8169 27.2349C61.6118 27.2349 61.4528 27.2943 61.34 27.4128C61.2273 27.5314 61.171 27.6977 61.171 27.9119C61.171 28.0879 61.2319 28.2351 61.354 28.3537C61.476 28.4723 61.6645 28.5785 61.9195 28.6722C62.3168 28.808 62.6006 28.9752 62.7706 29.1742C62.9425 29.3731 63.0285 29.6332 63.0285 29.9545C63.0285 30.2929 62.9222 30.5645 62.7096 30.7691C62.4971 30.9719 62.2078 31.0732 61.8419 31.0732C61.6071 31.0732 61.39 31.0206 61.1904 30.9155C60.9926 30.8083 60.8364 30.6592 60.7219 30.4679C60.6091 30.2748 60.5527 30.0539 60.5527 29.8052H61.0628C61.0628 30.0634 61.1322 30.2642 61.2708 30.4076C61.4112 30.5511 61.6016 30.6228 61.8419 30.6228C62.0655 30.6228 62.2337 30.5636 62.3464 30.4449C62.4592 30.3264 62.5156 30.1648 62.5156 29.9602Z" fill="#17313B"/>
<path id="Vector_32" d="M34.8408 64.8111L35.8943 68.2191L36.9479 64.8111H37.6021V68.9879H37.0948V67.3614L37.1419 65.732L36.0856 68.9879H35.6975L34.6468 65.7434L34.6939 67.3614V68.9879H34.1865V64.8111H34.8408Z" fill="#17313B"/>
<path id="Vector_33" d="M41.5916 64.8111V67.7802C41.5879 68.176 41.4771 68.4859 41.259 68.7096C41.0409 68.9334 40.7368 69.0452 40.3468 69.0452C39.9476 69.0452 39.6426 68.9363 39.432 68.7182C39.2213 68.4983 39.114 68.1857 39.1104 67.7802V64.8111H39.615V67.7601C39.615 68.0412 39.6722 68.2516 39.7869 68.3912C39.9033 68.5289 40.0899 68.5978 40.3468 68.5978C40.6056 68.5978 40.7923 68.5289 40.9069 68.3912C41.0233 68.2516 41.0816 68.0412 41.0816 67.7601V64.8111H41.5916Z" fill="#17313B"/>
<path id="Vector_34" d="M45.7244 68.9879H45.2143L43.598 65.7693V68.9879H43.0879V64.8111H43.598L45.2198 68.0441V64.8111H45.7244V68.9879Z" fill="#17313B"/>
<path id="Vector_35" d="M47.8413 68.9879H47.334V64.8111H47.8413V68.9879Z" fill="#17313B"/>
<path id="Vector_36" d="M51.9703 67.6626C51.9482 68.1101 51.8262 68.4524 51.6044 68.6896C51.3844 68.9267 51.073 69.0452 50.6701 69.0452C50.2653 69.0452 49.9438 68.8866 49.7053 68.5691C49.4669 68.2497 49.3477 67.8175 49.3477 67.2725V66.5151C49.3477 65.972 49.4697 65.5427 49.7136 65.2271C49.9594 64.9115 50.2939 64.7538 50.7172 64.7538C51.1072 64.7538 51.4085 64.8752 51.621 65.1181C51.8354 65.3591 51.9519 65.7043 51.9703 66.1536H51.4575C51.4352 65.8133 51.366 65.5704 51.2495 65.425C51.133 65.2797 50.9556 65.207 50.7172 65.207C50.4418 65.207 50.2302 65.3189 50.0824 65.5427C49.9345 65.7645 49.8606 66.0906 49.8606 66.5208V67.2868C49.8606 67.7094 49.9289 68.0336 50.0657 68.2592C50.2043 68.4849 50.4058 68.5978 50.6701 68.5978C50.9344 68.5978 51.1247 68.5299 51.2412 68.3941C51.3576 68.2583 51.4297 68.0145 51.4575 67.6626H51.9703Z" fill="#17313B"/>
<path id="Vector_37" d="M56.0151 68.9879H55.505V67.0573H53.8804V68.9879H53.373V64.8111H53.8804V66.6069H55.505V64.8111H56.0151V68.9879Z" fill="#17313B"/>
<path id="Vector_38" d="M40.9552 76.8098H38.6985V76.4279L39.849 74.8505C40.0228 74.6074 40.1429 74.4084 40.2094 74.2534C40.2779 74.097 40.312 73.931 40.312 73.757C40.312 73.5352 40.2621 73.3556 40.1623 73.2179C40.0625 73.0802 39.9313 73.0114 39.7686 73.0114C39.5634 73.0114 39.4045 73.0849 39.2918 73.2323C39.1809 73.3776 39.1255 73.5881 39.1255 73.8635H38.6348C38.6348 73.4786 38.7364 73.1682 38.9397 72.931C39.143 72.6939 39.4193 72.5753 39.7686 72.5753C40.0902 72.5753 40.3434 72.6776 40.5283 72.8823C40.7131 73.0849 40.8055 73.3556 40.8055 73.6938C40.8055 74.1073 40.5976 74.5956 40.1817 75.1596L39.2835 76.3765H40.9552V76.8098Z" fill="#17313B"/>
<path id="Vector_39" d="M44.4222 75.0281C44.4222 75.6436 44.3354 76.1047 44.1616 76.411C43.9879 76.715 43.7153 76.867 43.3438 76.867C42.9834 76.867 42.7145 76.7201 42.5371 76.4279C42.3596 76.1356 42.2672 75.6957 42.2598 75.1082V74.3914C42.2598 73.7812 42.3466 73.3259 42.5204 73.0257C42.696 72.7254 42.9686 72.5753 43.3383 72.5753C43.7024 72.5753 43.9713 72.7177 44.145 73.0027C44.3206 73.2877 44.413 73.7188 44.4222 74.2967V75.0281ZM43.9315 74.3018C43.9315 73.8605 43.8844 73.5352 43.7902 73.3269C43.6959 73.1165 43.5452 73.0113 43.3383 73.0113C43.1368 73.0113 42.9889 73.1146 42.8947 73.3211C42.8004 73.5256 42.7514 73.8355 42.7477 74.2504V75.1111C42.7477 75.551 42.7967 75.8822 42.8947 76.104C42.9926 76.3236 43.1423 76.4337 43.3438 76.4337C43.5434 76.4337 43.6904 76.3295 43.7846 76.1209C43.8789 75.9123 43.9278 75.5943 43.9315 75.1655V74.3018Z" fill="#17313B"/>
<path id="Vector_40" d="M48.0968 76.8098H45.8401V76.4279L46.9906 74.8505C47.1644 74.6074 47.2845 74.4084 47.351 74.2534C47.4195 74.097 47.4536 73.931 47.4536 73.757C47.4536 73.5352 47.4037 73.3556 47.3039 73.2179C47.2041 73.0802 47.0729 73.0114 46.9102 73.0114C46.705 73.0114 46.5461 73.0849 46.4334 73.2323C46.3225 73.3776 46.2671 73.5881 46.2671 73.8635H45.7764C45.7764 73.4786 45.878 73.1682 46.0813 72.931C46.2846 72.6939 46.5609 72.5753 46.9102 72.5753C47.2318 72.5753 47.485 72.6776 47.6699 72.8823C47.8547 73.0849 47.9471 73.3556 47.9471 73.6938C47.9471 74.1073 47.7392 74.5956 47.3233 75.1596L46.4251 76.3765H48.0968V76.8098Z" fill="#17313B"/>
<path id="Vector_41" d="M49.9819 74.4627H50.2952C50.4967 74.4627 50.6519 74.3988 50.761 74.271C50.87 74.1425 50.9246 73.9677 50.9246 73.746C50.9246 73.2561 50.7416 73.0114 50.3756 73.0114C50.2 73.0114 50.0624 73.0773 49.9626 73.2093C49.8628 73.3412 49.8129 73.5146 49.8129 73.7283H49.325C49.325 73.3938 49.4229 73.1184 49.6188 72.9023C49.8166 72.6843 50.0688 72.5753 50.3756 72.5753C50.6935 72.5753 50.9458 72.6785 51.1325 72.8851C51.3192 73.0897 51.4125 73.3805 51.4125 73.757C51.4125 73.9501 51.3636 74.1308 51.2656 74.2997C51.1695 74.4656 51.0438 74.5883 50.8886 74.6669C51.2693 74.8115 51.4597 75.1383 51.4597 75.645C51.4597 76.0174 51.3589 76.3148 51.1575 76.5366C50.9578 76.7569 50.6963 76.867 50.3729 76.867C50.0531 76.867 49.7944 76.7628 49.5966 76.5542C49.4007 76.3434 49.3027 76.0614 49.3027 75.7082H49.7934C49.7934 75.93 49.8452 76.107 49.9487 76.2384C50.0522 76.3684 50.1936 76.4338 50.3729 76.4338C50.5558 76.4338 50.701 76.3699 50.8081 76.2414C50.9172 76.1136 50.9717 75.9182 50.9717 75.6561C50.9717 75.1493 50.7397 74.896 50.2758 74.896H49.9819V74.4627Z" fill="#17313B"/>
</g>
</svg>
