<svg width="87" height="94" viewBox="0 0 87 94" fill="none" xmlns="http://www.w3.org/2000/svg">
<g id="AwardAmplifier.svg" clip-path="url(#clip0_2296_6394)">
<path id="Vector" d="M0.350586 23.5L42.2246 0L84.0986 23.5V70.5L42.2246 94L0.350586 70.5V23.5Z" fill="white"/>
<path id="Vector_2" fill-rule="evenodd" clip-rule="evenodd" d="M42.2253 2.9375L2.48047 24.9688V69.0312L42.2253 91.0625L81.9701 69.0312V24.9688L42.2253 2.9375ZM6.33962 26.5982L42.3103 6.2172L78.2341 26.671V67.3908L42.2949 87.7439L6.39297 67.3882L6.33962 26.5982Z" fill="#E3E3E3"/>
<g id="Clip path group">
<mask id="mask0_2296_6394" style="mask-type:luminance" maskUnits="userSpaceOnUse" x="22" y="27" width="33" height="43">
<g id="clip0_11330_48632">
<path id="Vector_3" d="M54.1451 27.9063H22.917V69.0313H54.1451V27.9063Z" fill="white"/>
</g>
</mask>
<g mask="url(#mask0_2296_6394)">
<g id="Group">
<path id="Vector_4" fill-rule="evenodd" clip-rule="evenodd" d="M51.5959 28.2308C51.5959 28.0516 51.7314 27.9063 51.8985 27.9063H53.8425C54.0096 27.9063 54.1452 28.0516 54.1452 28.2308V43.3018C54.1452 43.481 54.0096 43.6262 53.8425 43.6262H51.8985C51.7314 43.6262 51.5959 43.481 51.5959 43.3018V28.2308ZM45.8614 30.965C45.8614 30.7858 45.9969 30.6404 46.164 30.6404H48.108C48.2752 30.6404 48.4107 30.7858 48.4107 30.965V47.4029C48.4107 47.5821 48.2752 47.7274 48.108 47.7274H46.164C45.9969 47.7274 45.8614 47.5821 45.8614 47.4029V30.965ZM40.1255 33.6988C40.1255 33.5196 40.2611 33.3743 40.4282 33.3743H42.3722C42.5394 33.3743 42.6748 33.5196 42.6748 33.6988V44.6688C42.6748 44.848 42.5394 44.9934 42.3722 44.9934H40.4282C40.2611 44.9934 40.1255 44.848 40.1255 44.6688V33.6988ZM34.3886 36.433C34.3886 36.2538 34.524 36.1084 34.6912 36.1084H36.6352C36.8023 36.1084 36.9379 36.2538 36.9379 36.433V48.77C36.9379 48.9493 36.8023 49.0945 36.6352 49.0945H34.6912C34.524 49.0945 34.3886 48.9493 34.3886 48.77V36.433ZM31.2033 39.1668C31.2033 38.9876 31.0678 38.8423 30.9007 38.8423H28.9566C28.7895 38.8423 28.654 38.9876 28.654 39.1668V45.3525C28.654 45.5318 28.7895 45.6771 28.9566 45.6771H30.9007C31.0678 45.6771 31.2033 45.5318 31.2033 45.3525V39.1668ZM31.2033 49.4194C31.2033 49.2401 31.0678 49.0949 30.9007 49.0949H28.9566C28.7895 49.0949 28.654 49.2401 28.654 49.4194V57.6554C28.654 57.8347 28.7895 57.98 28.9566 57.98H30.9007C31.0678 57.98 31.2033 57.8347 31.2033 57.6554V49.4194ZM36.9379 53.5195C36.9379 53.3403 36.8023 53.1949 36.6352 53.1949H34.6912C34.524 53.1949 34.3886 53.3403 34.3886 53.5195V60.3886C34.3886 60.5678 34.524 60.7132 34.6912 60.7132H36.6352C36.8023 60.7132 36.9379 60.5678 36.9379 60.3886V53.5195ZM42.6748 49.4194C42.6748 49.2401 42.5394 49.0949 42.3722 49.0949H40.4282C40.2611 49.0949 40.1255 49.2401 40.1255 49.4194V63.1234C40.1255 63.3026 40.2611 63.4479 40.4282 63.4479H42.3722C42.5394 63.4479 42.6748 63.3026 42.6748 63.1234V49.4194ZM48.4107 52.1533C48.4107 51.974 48.2752 51.8287 48.108 51.8287H46.164C45.9969 51.8287 45.8614 51.974 45.8614 52.1533V65.8572C45.8614 66.0364 45.9969 66.1818 46.164 66.1818H48.108C48.2752 66.1818 48.4107 66.0364 48.4107 65.8572V52.1533ZM54.1452 48.0515C54.1452 47.8722 54.0096 47.7269 53.8425 47.7269H51.8985C51.7314 47.7269 51.5959 47.8722 51.5959 48.0515V68.5901C51.5959 68.7694 51.7314 68.9147 51.8985 68.9147H53.8425C54.0096 68.9147 54.1452 68.7694 54.1452 68.5901V48.0515ZM22.917 41.901C22.917 41.7217 23.0525 41.5765 23.2196 41.5765H25.1636C25.3308 41.5765 25.4663 41.7217 25.4663 41.901V48.0868C25.4663 48.2659 25.3308 48.4112 25.1636 48.4112H23.2196C23.0525 48.4112 22.917 48.2659 22.917 48.0868V41.901ZM25.4663 51.4681C25.4663 51.2889 25.3308 51.1435 25.1636 51.1435H23.2196C23.0525 51.1435 22.917 51.2889 22.917 51.4681V54.9199C22.917 55.0992 23.0525 55.2443 23.2196 55.2443H25.1636C25.3308 55.2443 25.4663 55.0992 25.4663 54.9199V51.4681Z" fill="#1A202C"/>
</g>
</g>
</g>
</g>
<defs>
<clipPath id="clip0_2296_6394">
<rect width="90.8453" height="94" fill="white" transform="translate(0.207031)"/>
</clipPath>
</defs>
</svg>
