<svg width="32" height="32" viewBox="0 0 32 32" fill="none" xmlns="http://www.w3.org/2000/svg">
<g clip-path="url(#clip0_2095_30644)">
<path d="M14.8379 26.3704H8.32828M14.8379 26.3704V29.4343C14.063 29.67 12.5131 30.4242 12.5131 31.5556H10.6532C10.6532 30.4242 9.10324 29.67 8.32828 29.4343V26.3704M14.8379 26.3704C14.683 25.5847 14.8844 23.4478 16.9303 21.1852C17.0808 21.0526 17.2439 20.9007 17.4164 20.7311M8.32828 26.3704C8.40578 25.349 8.14229 22.8822 6.46838 21.1852C4.37599 19.064 0.888672 17.1784 0.888672 10.8148C1.12116 4.68687 5.77092 0.444443 11.8156 0.444443C13.7087 0.444443 15.4422 0.906794 16.9303 1.71566" stroke="#12233D" stroke-width="1.5" stroke-linecap="round" stroke-linejoin="round"/>
<path d="M23.0129 4.81396L21.9221 4.79711C21.6218 4.79246 21.3501 4.6176 21.2215 4.34611L20.7689 3.39069C20.5996 3.03318 20.1916 2.85642 19.815 2.97736L18.8931 3.27338C18.5164 3.39433 18.2876 3.77562 18.3581 4.16492L18.6246 5.63618C18.6666 5.86818 18.6026 6.10681 18.4502 6.28668L17.7717 7.08729C17.5653 7.3308 17.2325 7.42593 16.9286 7.32827L15.6064 6.90335C15.2386 6.78512 14.8392 6.95082 14.6631 7.29476L14.2768 8.04907C14.0906 8.41261 14.2128 8.85813 14.5583 9.07589L16.0235 9.99929C16.2564 10.146 16.3959 10.4036 16.3917 10.6788L16.3782 11.5496C16.374 11.8248 16.2265 12.0779 15.9893 12.2174L14.4962 13.0951C14.1441 13.302 14.0082 13.7436 14.1831 14.1127L14.5725 14.9348C14.7259 15.2585 15.0781 15.4383 15.4303 15.3725L16.9388 15.0905C17.176 15.0462 17.4204 15.1129 17.6023 15.2715L18.3914 15.96C18.6271 16.1656 18.719 16.4911 18.6257 16.7896L18.1943 18.1702C18.0808 18.5335 18.2428 18.9259 18.5794 19.1033L19.3823 19.5264C19.7183 19.7034 20.1328 19.6159 20.3685 19.318L21.487 17.9046C21.6392 17.7122 21.8724 17.6016 22.1177 17.6054L22.8236 17.6163C23.069 17.6201 23.2986 17.7378 23.4448 17.9348L24.5191 19.3822C24.7455 19.6872 25.1571 19.7875 25.4984 19.6209L26.314 19.2228C26.6559 19.0559 26.83 18.6686 26.7278 18.3021L26.3258 16.861C26.2487 16.5846 26.3278 16.2881 26.5324 16.0869L27.1526 15.4767C27.3426 15.2898 27.6142 15.2114 27.8745 15.2685L29.3295 15.5872C29.6794 15.6639 30.037 15.4951 30.2003 15.1763L30.615 14.3666C30.8011 14.003 30.679 13.5575 30.3335 13.3398L28.8682 12.4164C28.6354 12.2696 28.4958 12.0121 28.5001 11.7369L28.5139 10.8415C28.518 10.5797 28.6517 10.337 28.8708 10.1937L30.2525 9.28976C30.5565 9.09094 30.6853 8.7103 30.5647 8.36774L30.2998 7.61546C30.1637 7.22877 29.754 7.01085 29.3573 7.11408L27.8226 7.51336C27.5207 7.5919 27.2009 7.48519 27.0068 7.24114L26.3443 6.40865C26.1975 6.22416 26.141 5.98367 26.1901 5.75308L26.5137 4.23543C26.591 3.87299 26.4055 3.50562 26.068 3.3526L25.4977 3.09407C25.1631 2.94235 24.768 3.0418 24.5451 3.33387L23.652 4.50387C23.5002 4.70276 23.263 4.81782 23.0129 4.81396Z" stroke="#2969CC" stroke-width="1.5" stroke-linecap="round"/>
<path d="M24.7515 11.08C24.7515 12.2147 23.8317 13.1345 22.697 13.1345C21.5624 13.1345 20.6426 12.2147 20.6426 11.08C20.6426 9.94538 21.5624 9.02557 22.697 9.02557C23.8317 9.02557 24.7515 9.94538 24.7515 11.08Z" stroke="#2969CC" stroke-width="1.5"/>
</g>
<defs>
<clipPath id="clip0_2095_30644">
<rect width="32" height="32" fill="white"/>
</clipPath>
</defs>
</svg>
