<svg fill="none" xmlns="http://www.w3.org/2000/svg" xmlns:xlink="http://www.w3.org/1999/xlink" viewBox="0 0 350 351"><defs><path fill="#fff" d="M0 0h25v25H0z" id="reuse-0"/><path fill="#fff" d="M0 0h28v24H0z" id="reuse-1"/><path fill="#fff" d="M0 0h26v26H0z" id="reuse-2"/><path fill="#fff" d="M0 0h36v26H0z" id="reuse-3"/></defs><rect x=".5" y="1" width="349" height="349" rx="174.5" stroke="#E5E5E5"/><path fill="#E5E5E5" d="M1 174.5h348v1H1z"/><path fill="#E5E5E5" d="M174 1.5h1v348h-1z"/><g clip-path="url(#a)"><g clip-path="url(#b)"><g clip-path="url(#c)" stroke-width="1.5"><path d="m112.93 106.07 6.356 6.293c.394.39.395 1.026.003 1.418l-1.016 1.016c-.389.389-1.019.391-1.411.004l-6.362-6.3" stroke="#DE4F4F"/><path d="M105.722 110.193c4.954 0 8.971-4.017 8.971-8.971 0-4.9553-4.017-8.972-8.971-8.972-4.955 0-8.972 4.0167-8.972 8.972 0 4.954 4.017 8.971 8.972 8.971Z" stroke="#12233D"/></g></g></g><g clip-path="url(#d)"><g clip-path="url(#e)"><g clip-path="url(#f)"><path fill-rule="evenodd" clip-rule="evenodd" d="M233.769 93.3462c-.51 0-.923.4132-.923.923v2.3479h12.665c.265 0 .516-.1136.692-.3119l2.614-2.959h-15.048Zm17.512 0-3.695 4.1814c-.526.5949-1.281.9356-2.075.9356h-12.665v14.2678c0 .51.413.923.923.923h22.154c.51 0 .923-.413.923-.923V94.2692c0-.5098-.413-.923-.923-.923h-4.642Zm-20.281.923c0-1.5294 1.24-2.7692 2.769-2.7692h22.154c1.529 0 2.769 1.2398 2.769 2.7692v18.4618c0 1.529-1.24 2.769-2.769 2.769h-22.154c-1.529 0-2.769-1.24-2.769-2.769V94.2692Z" fill="#12233D"/><path d="M236.538 95.1926c0-.5098-.414-.9231-.924-.9231-.509 0-.923.4133-.923.9231s.414.9231.923.9231c.51 0 .924-.4133.924-.9231ZM239.307 95.1926c0-.5098-.413-.9231-.923-.9231s-.923.4133-.923.9231.413.9231.923.9231.923-.4133.923-.9231ZM242.077 95.1926c0-.5098-.414-.9231-.923-.9231-.51 0-.924.4133-.924.9231s.414.9231.924.9231c.509 0 .923-.4133.923-.9231Z" fill="#12233D"/><path d="M237.115 108.147c-.366 0-.678-.06-.937-.181-.254-.125-.461-.295-.62-.51-.155-.215-.269-.459-.343-.73-.073-.276-.11-.562-.11-.86v-2.339h.892v2.339c0 .255.035.496.104.724.068.228.185.414.348.556.164.142.384.213.66.213.284 0 .508-.071.672-.213.163-.147.28-.334.348-.562.069-.229.104-.468.104-.718v-2.339h.885v2.339c0 .315-.039.61-.116.886-.073.275-.192.519-.356.73-.159.207-.366.37-.62.491-.254.116-.558.174-.911.174ZM240.016 108.115v-4.588h.891v4.588h-.891ZM245.724 103.527l-3.205 4.588h-.957l3.199-4.588h.963ZM248.322 108.147c-.366 0-.678-.06-.937-.181-.254-.125-.461-.295-.62-.51-.155-.215-.269-.459-.343-.73-.073-.276-.11-.562-.11-.86v-2.339h.892v2.339c0 .255.035.496.104.724.069.228.185.414.348.556.164.142.384.213.66.213.284 0 .508-.071.672-.213.163-.147.28-.334.349-.562.068-.229.103-.468.103-.718v-2.339h.885v2.339c0 .315-.039.61-.116.886-.073.275-.192.519-.356.73-.159.207-.366.37-.62.491-.254.116-.558.174-.911.174ZM251.702 103.527l1.137 1.693 1.131-1.693h.969l-1.589 2.326 1.538 2.262h-.969l-1.08-1.628-1.085 1.628h-.976l1.538-2.262-1.589-2.326h.975Z" fill="#DE4F4F"/></g></g></g><g clip-path="url(#g)"><g clip-path="url(#h)"><g clip-path="url(#i)"><path d="m104.414 235.642 2.434-2.603c-.467-1.696.195-3.149.584-3.663 1.636-2.545 4.446-1.96 5.647-1.349l-2.288 2.169v2.072h2.288l2.142-2.072c.623 1.735.065 3.422-.292 4.048-1.519 2.275-3.878 2.266-4.868 1.977l-2.629 2.41m-7.7403 1.638-2.0446 2.073c-1.2008-.209-3.875-.145-4.9655 1.783-1.0474 1.852-.5941 4.417.6328 5.544 1.6855 1.547 4.6855 1.547 6.3773 0 .5813-.533 1.5093-2.227 1.1193-4.194l2.629-2.747" stroke="#12233D" stroke-width="2" stroke-linecap="round" stroke-linejoin="round"/><path d="M96.5 247.5c.5523 0 1-.448 1-1s-.4477-1-1-1-1 .448-1 1 .4477 1 1 1Z" fill="#12233D"/><path d="m102.175 235.498-4.3819-4.29v-1.976l-4.7221-1.543-1.071.964 1.5091 4.628h2.0447l4.4782 4.241m2.143-2.024 1.022-1.012 1.558 1.687c-.017.53.116 1.696.778 2.12.663.425 1.802.852 2.289 1.013l6.097 5.965c1.152 1.127 1.179 2.972.061 4.133m-11.805-13.906-2.143 2.024m0 0-1.1679 1.109 1.6069 1.494c.454.048 1.548.289 2.288.868.74.578.795 1.622.73 2.072l6.407 6.381c1.134 1.129 2.973 1.11 4.084-.042m0 0-7.132-7.158" stroke="#DE4F4F" stroke-width="2" stroke-linecap="round" stroke-linejoin="round"/></g></g></g><g clip-path="url(#j)"><g clip-path="url(#k)"><g clip-path="url(#l)" stroke-width="2" stroke-linecap="round" stroke-linejoin="round"><path d="m245.25 227.5-8.5 23.139" stroke="#12233D"/><path d="M231.083 231.75 224 238.833l7.083 7.084M250.918 231.75l7.083 7.083-7.083 7.084" stroke="#DE4F4F"/></g></g></g><defs><clipPath id="a"><use transform="translate(96 91.5)" xlink:href="#reuse-0"/></clipPath><clipPath id="b"><use transform="translate(96 91.5)" xlink:href="#reuse-0"/></clipPath><clipPath id="c"><use transform="translate(96 91.5)" xlink:href="#reuse-0"/></clipPath><clipPath id="d"><use transform="translate(231 91.5)" xlink:href="#reuse-1"/></clipPath><clipPath id="e"><use transform="translate(231 91.5)" xlink:href="#reuse-1"/></clipPath><clipPath id="f"><use transform="translate(231 91.5)" xlink:href="#reuse-1"/></clipPath><clipPath id="g"><use transform="translate(91 226.5)" xlink:href="#reuse-2"/></clipPath><clipPath id="h"><use transform="translate(91 226.5)" xlink:href="#reuse-2"/></clipPath><clipPath id="i"><use transform="translate(91 226.5)" xlink:href="#reuse-2"/></clipPath><clipPath id="j"><use transform="translate(223 226.5)" xlink:href="#reuse-3"/></clipPath><clipPath id="k"><use transform="translate(223 226.5)" xlink:href="#reuse-3"/></clipPath><clipPath id="l"><use transform="translate(223 226.5)" xlink:href="#reuse-3"/></clipPath></defs></svg>