<svg width="32" height="32" viewBox="0 0 32 32" fill="none" xmlns="http://www.w3.org/2000/svg">
<g id="Icons" clip-path="url(#clip0_2095_30650)">
<path id="Vector 150" d="M15.9998 31.1111H30.1395C30.676 31.1111 31.1109 30.6762 31.1109 30.1397V16.8595C31.1109 16.323 30.676 15.8881 30.1395 15.8881H26.5578C26.3723 15.8881 26.222 15.7377 26.222 15.5523V13.9646C26.222 12.4305 24.9784 11.1868 23.4442 11.1868V11.1868C21.9101 11.1868 20.6664 12.4305 20.6664 13.9646V15.5523C20.6664 15.7377 20.5161 15.8881 20.3306 15.8881H15.9998M15.9998 31.1111H1.8601C1.32359 31.1111 0.888672 30.6762 0.888672 30.1397V15.8881M15.9998 31.1111V26.7432C15.9998 26.5591 16.149 26.4099 16.3331 26.4099H17.8681C19.4136 26.4099 20.6664 25.157 20.6664 23.6115V23.6115C20.6664 22.066 19.4136 20.8132 17.8681 20.8132H16.3331C16.149 20.8132 15.9998 20.6639 15.9998 20.4798V15.8881M0.888672 15.8881V1.86031C0.888672 1.32381 1.3236 0.888885 1.8601 0.888885H15.0284C15.5649 0.888885 15.9998 1.32381 15.9998 1.86031V5.01705C15.9998 5.20991 15.8434 5.36625 15.6506 5.36625H14.0212C12.4139 5.36625 11.1109 6.66923 11.1109 8.27654V8.27654C11.1109 9.88385 12.4139 11.1868 14.0212 11.1868H15.6506C15.8434 11.1868 15.9998 11.3432 15.9998 11.536V15.8881M0.888672 15.8881H5.20355C5.39784 15.8881 5.55534 16.0456 5.55534 16.2399V18.0354C5.55534 19.5695 6.79899 20.8132 8.33312 20.8132V20.8132C9.86724 20.8132 11.1109 19.5695 11.1109 18.0354V16.2399C11.1109 16.0456 11.2684 15.8881 11.4627 15.8881H15.9998" stroke="#12233D" stroke-width="1.45714" stroke-linecap="round" stroke-linejoin="round"/>
<path id="Vector 151" d="M30.1399 0.888885H16.9716C16.4351 0.888885 16.0002 1.32381 16.0002 1.86031V5.01705C16.0002 5.20991 15.8439 5.36625 15.651 5.36625H14.0216C12.4143 5.36625 11.1113 6.66923 11.1113 8.27654C11.1113 9.88385 12.4143 11.1868 14.0216 11.1868H15.651C15.8439 11.1868 16.0002 11.3432 16.0002 11.536V14.9166C16.0002 15.4531 16.4351 15.8881 16.9716 15.8881H20.3311C20.5165 15.8881 20.6669 15.7377 20.6669 15.5523V13.9646C20.6669 12.4305 21.9105 11.1868 23.4447 11.1868C24.9788 11.1868 26.2224 12.4305 26.2224 13.9646V15.5523C26.2224 15.7377 26.3728 15.8881 26.5582 15.8881H30.1399C30.6764 15.8881 31.1113 15.4531 31.1113 14.9166V1.86031C31.1113 1.32381 30.6764 0.888885 30.1399 0.888885Z" stroke="#2969CC" stroke-width="1.45714" stroke-linecap="round" stroke-linejoin="round"/>
</g>
<defs>
<clipPath id="clip0_2095_30650">
<rect width="32" height="32" fill="white"/>
</clipPath>
</defs>
</svg>
