<svg width="1340" height="2077" viewBox="0 0 1340 2077" fill="none" xmlns="http://www.w3.org/2000/svg">
<path d="M-1 0H1309C1325.57 0 1339 13.4315 1339 30V2047C1339 2063.57 1325.57 2077 1309 2077H29C12.4314 2077 -1 2063.57 -1 2047V0Z" fill="#E7F4F7"/>
<g opacity="0.5" filter="url(#filter0_f_409_825)">
<path fill-rule="evenodd" clip-rule="evenodd" d="M1244.59 108.029C1252.47 107.495 1258.8 114.562 1264.04 120.43C1268.47 125.386 1269.94 131.886 1271.63 138.297C1273.2 144.293 1274.89 150.306 1273.46 156.34C1271.96 162.747 1268.26 168.291 1263.48 172.852C1258.08 178.01 1252.02 184.861 1244.59 183.911C1237.1 182.954 1235.17 172.642 1228.92 168.433C1222.31 163.978 1210.44 166.377 1207.56 158.971C1204.72 151.677 1213.45 145.065 1217.16 138.171C1220.1 132.725 1222.8 127.526 1226.97 122.942C1232.28 117.114 1236.7 108.563 1244.59 108.029Z" fill="white"/>
</g>
<g opacity="0.5" filter="url(#filter1_f_409_825)">
<path fill-rule="evenodd" clip-rule="evenodd" d="M1321.61 1532.04C1332.43 1531.31 1341.13 1540.98 1348.33 1549.01C1354.4 1555.79 1356.43 1564.69 1358.74 1573.46C1360.9 1581.66 1363.22 1589.89 1361.27 1598.15C1359.19 1606.92 1354.12 1614.5 1347.56 1620.74C1340.14 1627.8 1331.82 1637.18 1321.61 1635.88C1311.33 1634.57 1308.68 1620.46 1300.1 1614.7C1291.02 1608.6 1274.72 1611.88 1270.76 1601.75C1266.87 1591.77 1278.85 1582.72 1283.95 1573.29C1287.98 1565.83 1291.7 1558.72 1297.42 1552.45C1304.71 1544.47 1310.78 1532.77 1321.61 1532.04Z" fill="white"/>
</g>
<g opacity="0.5" filter="url(#filter2_f_409_825)">
<path fill-rule="evenodd" clip-rule="evenodd" d="M135.476 101.898C135.924 110.61 128.047 117.478 121.507 123.164C115.984 127.966 108.817 129.481 101.744 131.226C95.1279 132.859 88.4919 134.616 81.8877 132.941C74.8744 131.161 68.8483 126.985 63.9217 121.63C58.3492 115.573 50.929 108.76 52.1041 100.567C53.288 92.3144 45.722 78.7191 50.4561 71.892C55.4683 64.6638 71.9704 63.1595 80.1583 60.1101C88.2224 57.107 95.3332 66.8572 102.842 71.0805C108.774 74.4174 114.439 77.4965 119.401 82.1826C125.711 88.1412 135.028 93.174 135.476 101.898Z" fill="white"/>
</g>
<g opacity="0.5" filter="url(#filter3_f_409_825)">
<path fill-rule="evenodd" clip-rule="evenodd" d="M1325.84 1061.5C1326.06 1065.86 1322.11 1069.31 1318.84 1072.15C1316.07 1074.56 1312.48 1075.32 1308.93 1076.2C1305.62 1077.01 1302.29 1077.89 1298.98 1077.05C1295.47 1076.16 1292.45 1074.07 1289.98 1071.39C1287.19 1068.35 1283.47 1064.94 1284.06 1060.83C1284.65 1056.69 1280.86 1049.88 1283.23 1046.46C1285.74 1042.84 1294.01 1042.08 1298.12 1040.56C1302.16 1039.05 1305.72 1043.94 1309.48 1046.05C1312.46 1047.73 1315.29 1049.27 1317.78 1051.62C1320.94 1054.6 1325.61 1057.13 1325.84 1061.5Z" fill="white"/>
</g>
<g opacity="0.5" filter="url(#filter4_f_409_825)">
<path fill-rule="evenodd" clip-rule="evenodd" d="M1204.46 345.439C1198.97 306.019 1221.47 271.915 1240.16 243.673C1255.94 219.821 1278.61 210.3 1300.86 199.766C1321.68 189.913 1342.5 179.486 1364.81 184.669C1388.51 190.173 1410.09 206.932 1428.64 229.451C1449.61 254.921 1476.96 283.147 1476.93 320.803C1476.89 358.738 1440.74 371.767 1428.47 404.53C1415.48 439.217 1429.49 498.085 1404.2 514.953C1379.3 531.567 1351.6 489.881 1325.16 473.455C1304.27 460.476 1284.37 448.57 1266.02 429.104C1242.68 404.352 1209.97 384.913 1204.46 345.439Z" fill="white"/>
</g>
<g opacity="0.5" filter="url(#filter5_f_409_825)">
<path fill-rule="evenodd" clip-rule="evenodd" d="M-271.622 1005.91C-307.918 947.159 -306.8 882.726 -305.809 829.339C-304.972 784.25 -285.113 758.084 -266.509 730.541C-249.109 704.781 -232.132 678.121 -201.606 675.071C-169.188 671.833 -130.796 687.204 -91.6843 713.077C-47.4457 742.342 6.47778 772.725 34.8414 831.487C63.4154 890.685 30.1182 929.054 40.1918 986.291C50.8572 1046.89 105.94 1077.06 88.5 1116C71.3239 1154.35 12.8644 1157.81 -31.0694 1145.38C-65.7819 1135.56 -98.4996 1126.92 -135.078 1105.71C-181.589 1078.75 -235.278 1064.75 -271.622 1005.91Z" fill="white"/>
</g>
<defs>
<filter id="filter0_f_409_825" x="1203" y="104" width="75" height="84" filterUnits="userSpaceOnUse" color-interpolation-filters="sRGB">
<feFlood flood-opacity="0" result="BackgroundImageFix"/>
<feBlend mode="normal" in="SourceGraphic" in2="BackgroundImageFix" result="shape"/>
<feGaussianBlur stdDeviation="2" result="effect1_foregroundBlur_409_825"/>
</filter>
<filter id="filter1_f_409_825" x="1266" y="1528" width="100" height="112" filterUnits="userSpaceOnUse" color-interpolation-filters="sRGB">
<feFlood flood-opacity="0" result="BackgroundImageFix"/>
<feBlend mode="normal" in="SourceGraphic" in2="BackgroundImageFix" result="shape"/>
<feGaussianBlur stdDeviation="2" result="effect1_foregroundBlur_409_825"/>
</filter>
<filter id="filter2_f_409_825" x="44.8818" y="55.5449" width="94.6125" height="82.0742" filterUnits="userSpaceOnUse" color-interpolation-filters="sRGB">
<feFlood flood-opacity="0" result="BackgroundImageFix"/>
<feBlend mode="normal" in="SourceGraphic" in2="BackgroundImageFix" result="shape"/>
<feGaussianBlur stdDeviation="2" result="effect1_foregroundBlur_409_825"/>
</filter>
<filter id="filter3_f_409_825" x="1278.44" y="1036.27" width="51.4053" height="45.1211" filterUnits="userSpaceOnUse" color-interpolation-filters="sRGB">
<feFlood flood-opacity="0" result="BackgroundImageFix"/>
<feBlend mode="normal" in="SourceGraphic" in2="BackgroundImageFix" result="shape"/>
<feGaussianBlur stdDeviation="2" result="effect1_foregroundBlur_409_825"/>
</filter>
<filter id="filter4_f_409_825" x="1199.62" y="179.293" width="281.307" height="343.5" filterUnits="userSpaceOnUse" color-interpolation-filters="sRGB">
<feFlood flood-opacity="0" result="BackgroundImageFix"/>
<feBlend mode="normal" in="SourceGraphic" in2="BackgroundImageFix" result="shape"/>
<feGaussianBlur stdDeviation="2" result="effect1_foregroundBlur_409_825"/>
</filter>
<filter id="filter5_f_409_825" x="-310.141" y="670.643" width="406.027" height="485.172" filterUnits="userSpaceOnUse" color-interpolation-filters="sRGB">
<feFlood flood-opacity="0" result="BackgroundImageFix"/>
<feBlend mode="normal" in="SourceGraphic" in2="BackgroundImageFix" result="shape"/>
<feGaussianBlur stdDeviation="2" result="effect1_foregroundBlur_409_825"/>
</filter>
</defs>
</svg>
