<svg width="335" height="2879" viewBox="0 0 335 2879" fill="none" xmlns="http://www.w3.org/2000/svg">
<g clip-path="url(#clip0_171_1818)">
<rect width="335" height="2879" rx="15" fill="#E7F4F7"/>
<g opacity="0.5" filter="url(#filter0_f_171_1818)">
<path fill-rule="evenodd" clip-rule="evenodd" d="M363.938 289.237C354.204 295.136 341.891 291.336 331.686 288.172C323.067 285.499 317.29 279.087 311.301 272.914C305.699 267.141 299.943 261.424 298.14 253.598C296.225 245.286 297.615 236.491 300.976 228.09C304.777 218.587 313.784 217.617 318.456 202.807C323.128 187.996 333.637 188.697 344.132 189.295C355.243 189.928 363.16 202.923 371.272 209.426C379.261 215.83 381.471 226.144 380.863 236.49C380.383 244.665 380.048 252.403 377.474 260.423C374.202 270.622 373.686 283.33 363.938 289.237Z" fill="white"/>
</g>
<g opacity="0.5" filter="url(#filter1_f_171_1818)">
<path fill-rule="evenodd" clip-rule="evenodd" d="M362.938 866.237C353.204 872.136 340.891 868.336 330.686 865.172C322.067 862.499 316.29 856.087 310.301 849.914C304.699 844.141 298.943 838.424 297.14 830.598C295.225 822.286 296.615 813.491 299.976 805.09C303.777 795.587 312.784 794.617 317.456 779.807C322.128 764.996 332.637 765.697 343.132 766.295C354.243 766.928 362.16 779.923 370.272 786.426C378.261 792.83 380.471 803.144 379.863 813.49C379.383 821.665 379.048 829.403 376.474 837.423C373.202 847.622 372.686 860.33 362.938 866.237Z" fill="white"/>
</g>
<g opacity="0.5" filter="url(#filter2_f_171_1818)">
<path fill-rule="evenodd" clip-rule="evenodd" d="M34.6323 1464.75C34.0786 1476.12 24.0424 1484.2 15.7117 1490.89C8.67582 1496.54 0.128923 1497.75 -8.33774 1499.26C-16.2567 1500.67 -24.2145 1502.25 -31.7111 1499.37C-39.6721 1496.3 -46.1856 1490.23 -51.271 1482.75C-57.023 1474.28 -52.7892 1466.28 -62.4545 1454.12C-72.1197 1441.96 -65.6611 1433.64 -59.2958 1425.28C-52.5564 1416.42 -37.3566 1417.12 -27.429 1414.04C-17.6516 1411 -7.86555 1414.93 0.371342 1421.22C6.8794 1426.19 13.1063 1430.8 18.316 1437.42C24.9403 1445.83 35.1867 1453.37 34.6323 1464.75Z" fill="white"/>
</g>
<g opacity="0.5" filter="url(#filter3_f_171_1818)">
<path fill-rule="evenodd" clip-rule="evenodd" d="M397.786 1827.39C395.278 1856.61 383.671 1879.03 374.04 1897.6C365.906 1913.28 356.993 1917.82 348.109 1923.14C339.8 1928.12 331.424 1933.52 324.28 1927.42C316.693 1920.94 311.096 1906.5 307.195 1888.19C302.784 1867.49 308.467 1846.25 300.7 1816.76C292.933 1787.27 300.935 1764.85 308.851 1742.33C317.231 1718.49 332.595 1717.69 343.237 1708.08C353.718 1698.62 363.014 1707.03 370.329 1721.74C376.109 1733.35 381.665 1744.09 385.84 1760.16C391.149 1780.58 400.298 1798.13 397.786 1827.39Z" fill="white"/>
</g>
<g opacity="0.5" filter="url(#filter4_f_171_1818)">
<path fill-rule="evenodd" clip-rule="evenodd" d="M37.2755 2425.98C36.7794 2436.82 26.7893 2444.48 18.497 2450.82C11.4934 2456.17 2.95733 2457.28 -5.49705 2458.68C-13.4045 2459.99 -21.35 2461.45 -28.857 2458.66C-36.829 2455.7 -43.3695 2449.88 -48.4898 2442.71C-54.2813 2434.61 -50.0902 2426.99 -59.8113 2415.34C-69.5324 2403.7 -63.1193 2395.79 -56.7996 2387.84C-50.1086 2379.43 -34.9137 2380.18 -25.0071 2377.28C-15.2504 2374.43 -5.44989 2378.23 2.81414 2384.28C9.34364 2389.05 15.5903 2393.47 20.8305 2399.82C27.4935 2407.88 37.7722 2415.12 37.2755 2425.98Z" fill="white"/>
</g>
<g opacity="0.5" filter="url(#filter5_f_171_1818)">
<path fill-rule="evenodd" clip-rule="evenodd" d="M323.597 6.03672C334.958 5.34942 344.086 14.4461 351.643 21.999C358.025 28.3779 360.152 36.743 362.577 44.9946C364.846 52.7125 367.278 60.4515 365.228 68.2174C363.052 76.4644 357.727 83.6001 350.84 89.4701C343.051 96.1095 334.629 92.7728 323.597 103.704C312.566 114.635 303.592 109.121 294.583 103.704C285.045 97.9689 284.09 82.7828 279.94 73.2503C275.853 63.8622 278.7 53.7057 284.056 44.833C288.287 37.8226 292.188 31.1313 298.201 25.2319C305.846 17.7307 312.221 6.72494 323.597 6.03672Z" fill="white"/>
</g>
<g opacity="0.5" filter="url(#filter6_f_171_1818)">
<path fill-rule="evenodd" clip-rule="evenodd" d="M-134.386 155.46C-140.028 119.211 -127.708 88.033 -117.47 62.2136C-108.823 40.4073 -95.0434 31.812 -81.5788 22.2831C-68.9852 13.3705 -56.4184 3.9307 -42.0529 8.84077C-26.7974 14.055 -12.252 29.5936 0.692972 50.403C15.3348 73.9403 12.7993 101.633 36.205 134.643C59.6106 167.653 53.487 197.575 47.5476 227.59C41.2592 259.368 15.1073 265.662 0.0798957 280.99C-14.7201 296.085 -33.5732 289.128 -51.1644 273.862C-65.0634 261.801 -78.2758 250.731 -90.9305 232.727C-107.021 209.834 -128.737 191.759 -134.386 155.46Z" fill="white"/>
</g>
</g>
<defs>
<filter id="filter0_f_171_1818" x="295.272" y="187.049" width="87.6855" height="107.279" filterUnits="userSpaceOnUse" color-interpolation-filters="sRGB">
<feFlood flood-opacity="0" result="BackgroundImageFix"/>
<feBlend mode="normal" in="SourceGraphic" in2="BackgroundImageFix" result="shape"/>
<feGaussianBlur stdDeviation="1" result="effect1_foregroundBlur_171_1818"/>
</filter>
<filter id="filter1_f_171_1818" x="294.272" y="764.049" width="87.6855" height="107.279" filterUnits="userSpaceOnUse" color-interpolation-filters="sRGB">
<feFlood flood-opacity="0" result="BackgroundImageFix"/>
<feBlend mode="normal" in="SourceGraphic" in2="BackgroundImageFix" result="shape"/>
<feGaussianBlur stdDeviation="1" result="effect1_foregroundBlur_171_1818"/>
</filter>
<filter id="filter2_f_171_1818" x="-69.3828" y="1410.99" width="106.037" height="91.9941" filterUnits="userSpaceOnUse" color-interpolation-filters="sRGB">
<feFlood flood-opacity="0" result="BackgroundImageFix"/>
<feBlend mode="normal" in="SourceGraphic" in2="BackgroundImageFix" result="shape"/>
<feGaussianBlur stdDeviation="1" result="effect1_foregroundBlur_171_1818"/>
</filter>
<filter id="filter3_f_171_1818" x="295.534" y="1702.08" width="104.68" height="230.055" filterUnits="userSpaceOnUse" color-interpolation-filters="sRGB">
<feFlood flood-opacity="0" result="BackgroundImageFix"/>
<feBlend mode="normal" in="SourceGraphic" in2="BackgroundImageFix" result="shape"/>
<feGaussianBlur stdDeviation="1" result="effect1_foregroundBlur_171_1818"/>
</filter>
<filter id="filter4_f_171_1818" x="-66.7979" y="2374.32" width="106.091" height="87.9375" filterUnits="userSpaceOnUse" color-interpolation-filters="sRGB">
<feFlood flood-opacity="0" result="BackgroundImageFix"/>
<feBlend mode="normal" in="SourceGraphic" in2="BackgroundImageFix" result="shape"/>
<feGaussianBlur stdDeviation="1" result="effect1_foregroundBlur_171_1818"/>
</filter>
<filter id="filter5_f_171_1818" x="276" y="4" width="92" height="108" filterUnits="userSpaceOnUse" color-interpolation-filters="sRGB">
<feFlood flood-opacity="0" result="BackgroundImageFix"/>
<feBlend mode="normal" in="SourceGraphic" in2="BackgroundImageFix" result="shape"/>
<feGaussianBlur stdDeviation="1" result="effect1_foregroundBlur_171_1818"/>
</filter>
<filter id="filter6_f_171_1818" x="-137.806" y="5.49414" width="192.776" height="285.91" filterUnits="userSpaceOnUse" color-interpolation-filters="sRGB">
<feFlood flood-opacity="0" result="BackgroundImageFix"/>
<feBlend mode="normal" in="SourceGraphic" in2="BackgroundImageFix" result="shape"/>
<feGaussianBlur stdDeviation="1" result="effect1_foregroundBlur_171_1818"/>
</filter>
<clipPath id="clip0_171_1818">
<rect width="335" height="2879" rx="15" fill="white"/>
</clipPath>
</defs>
</svg>
