<svg width="16" height="16" viewBox="0 0 16 16" fill="none" xmlns="http://www.w3.org/2000/svg">
<g id="16_arrow u">
<path id="Vector" d="M8 6.22034L2.81818 10.8602C2.72727 10.9534 2.61591 11 2.48409 11C2.35227 11 2.23636 10.9534 2.13636 10.8602C2.04545 10.7754 2 10.6716 2 10.5487C2 10.4258 2.04545 10.322 2.13636 10.2373L7.65909 5.13983C7.75 5.04661 7.86364 5 8 5C8.13636 5 8.25 5.04661 8.34091 5.13983L13.8636 10.2373C13.9545 10.322 14 10.4258 14 10.5487C14 10.6716 13.9545 10.7754 13.8636 10.8602C13.7727 10.9534 13.6591 11 13.5227 11C13.3864 11 13.2727 10.9534 13.1818 10.8602L8 6.22034Z" fill="#726D75"/>
</g>
</svg>
