<svg width="16" height="16" viewBox="0 0 16 16" fill="none" xmlns="http://www.w3.org/2000/svg">
<g id="16_arrow d">
<path id="Vector" d="M8 9.77966L13.1818 5.13983C13.2727 5.04661 13.3841 5 13.5159 5C13.6477 5 13.7636 5.04661 13.8636 5.13983C13.9545 5.22458 14 5.32839 14 5.45127C14 5.57415 13.9545 5.67797 13.8636 5.76271L8.34091 10.8602C8.25 10.9534 8.13636 11 8 11C7.86364 11 7.75 10.9534 7.65909 10.8602L2.13636 5.76271C2.04545 5.67797 2 5.57415 2 5.45127C2 5.32839 2.04545 5.22458 2.13636 5.13983C2.22727 5.04661 2.34091 5 2.47727 5C2.61364 5 2.72727 5.04661 2.81818 5.13983L8 9.77966Z" fill="#726D75"/>
</g>
</svg>
