<svg width="22" height="22" viewBox="0 0 22 22" fill="none" xmlns="http://www.w3.org/2000/svg">
<g id="Group">
<path id="Vector" d="M16.8428 22C16.8009 22.0001 16.7594 21.9925 16.7203 21.9775C15.4681 21.5148 14.3546 20.7406 13.4848 19.728C11.8611 17.7857 11.662 15.3157 11.6875 14.0165C11.7049 13.1981 11.8241 12.3851 12.0424 11.5962C12.0623 11.5236 12.1056 11.4596 12.1654 11.414C12.2253 11.3684 12.2985 11.3437 12.3737 11.3438C12.3808 11.3434 12.3922 11.3438 12.4019 11.3438C12.8462 11.3443 13.2838 11.2345 13.6752 11.0242C14.1707 10.7509 14.5687 10.33 14.8138 9.82004C14.8419 9.76164 14.8858 9.71236 14.9407 9.67785C14.9955 9.64335 15.0589 9.62503 15.1237 9.625H18.5612C18.626 9.62498 18.6895 9.64329 18.7443 9.6778C18.7991 9.71231 18.843 9.76162 18.871 9.82004C19.0883 10.281 19.4335 10.6697 19.8656 10.9399C20.2977 11.21 20.7983 11.3502 21.3078 11.3438C21.3842 11.3405 21.4594 11.364 21.5204 11.41C21.5815 11.4561 21.6246 11.5219 21.6425 11.5962C21.8607 12.385 21.9801 13.1979 21.998 14.0162C22.0592 16.0682 21.4259 18.0808 20.2007 19.728C19.8652 20.1296 19.4863 20.4928 19.0708 20.811C18.4295 21.3005 17.7201 21.6935 16.965 21.9775C16.926 21.9925 16.8846 22.0001 16.8428 22ZM12.6416 12.0229C12.4784 12.6799 12.389 13.3531 12.375 14.03C12.3512 15.2334 12.5321 17.5165 14.0122 19.2869C14.7768 20.1766 15.7492 20.8638 16.8431 21.2873C17.4901 21.0319 18.0987 20.6883 18.6515 20.2661C19.0271 19.9786 19.3697 19.6503 19.673 19.2873C20.796 17.7697 21.3731 15.9171 21.3105 14.0303C21.2961 13.3533 21.2065 12.68 21.0433 12.0228C20.5669 11.9898 20.103 11.8554 19.6828 11.6284C19.125 11.323 18.6643 10.867 18.3531 10.3125H15.3315C15.0205 10.8668 14.5602 11.3228 14.0028 11.6284C13.5824 11.8553 13.1183 11.9898 12.6416 12.0229Z" fill="#1C1D1D"/>
<g id="Group_2">
<path id="Vector_2" d="M10.999 9.62501C10.9534 9.62515 10.9081 9.61601 10.8661 9.59815L3.64701 6.56986C3.07499 6.32917 2.5023 6.08915 1.92894 5.8498C1.35558 5.61011 0.78243 5.36998 0.209499 5.1294C0.147096 5.10316 0.0938307 5.05908 0.0563865 5.00268C0.0189423 4.94629 -0.00101323 4.88009 -0.000976512 4.81239C-0.000939796 4.7447 0.0190875 4.67852 0.0565929 4.62216C0.0940982 4.56581 0.147411 4.52178 0.209843 4.49561L10.8627 0.0268596C10.9048 0.00918973 10.9499 5.93042e-05 10.9955 2.8794e-07C11.0411 -5.87284e-05 11.0862 0.00895485 11.1283 0.0265159L14.4076 1.40152C15.4047 1.81744 16.4018 2.23583 17.399 2.65667L21.7879 4.49527C21.8297 4.51259 21.8676 4.53799 21.8996 4.57001C21.9315 4.60203 21.9568 4.64004 21.9741 4.68186C21.9913 4.72369 22.0001 4.7685 22 4.81374C21.9999 4.85898 21.9909 4.90375 21.9734 4.94549C21.956 4.98723 21.9305 5.02511 21.8984 5.05697C21.8662 5.08883 21.8282 5.11404 21.7863 5.13116C21.7444 5.14827 21.6996 5.15696 21.6543 5.15671C21.6091 5.15647 21.5644 5.14729 21.5227 5.12973L17.1332 3.29081C16.1358 2.87085 15.139 2.45258 14.1428 2.03599L10.9957 0.716381L1.23137 4.81251C1.55229 4.94712 1.87321 5.08151 2.19413 5.21567C2.76751 5.45536 3.34065 5.69549 3.91357 5.93607L11.132 8.96436C11.2052 8.99508 11.2655 9.05018 11.3026 9.12031C11.3398 9.19044 11.3516 9.27128 11.3359 9.3491C11.3203 9.42691 11.2781 9.49691 11.2167 9.5472C11.1553 9.5975 11.0784 9.62499 10.999 9.62501Z" fill="#1C1D1D"/>
<path id="Vector_3" d="M10.999 21.6563C10.9539 21.6563 10.9091 21.6474 10.8674 21.6302C10.8257 21.6129 10.7878 21.5876 10.7559 21.5557C10.7239 21.5237 10.6986 21.4858 10.6813 21.4441C10.6641 21.4024 10.6552 21.3577 10.6553 21.3125V9.28125C10.6553 9.21353 10.6753 9.14732 10.7128 9.09093C10.7503 9.03455 10.8036 8.99051 10.8661 8.96436L21.5223 4.49561C21.5746 4.47364 21.6314 4.46494 21.6879 4.47028C21.7443 4.47562 21.7985 4.49483 21.8457 4.5262C21.8929 4.55757 21.9316 4.60013 21.9583 4.65008C21.9851 4.70004 21.9991 4.75583 21.999 4.8125L21.9947 14.4375C21.9947 14.5287 21.9584 14.6161 21.894 14.6806C21.8295 14.745 21.7421 14.7812 21.6509 14.7813C21.5597 14.7812 21.4723 14.745 21.4078 14.6806C21.3434 14.6161 21.3072 14.5287 21.3072 14.4375L21.3112 5.32947L11.3428 9.50985V20.764L13.895 19.5283C13.9771 19.4886 14.0716 19.4831 14.1578 19.5131C14.2439 19.543 14.3146 19.606 14.3543 19.6881C14.394 19.7702 14.3995 19.8647 14.3695 19.9508C14.3395 20.0369 14.2766 20.1076 14.1945 20.1473L11.1487 21.622C11.102 21.6445 11.0509 21.6562 10.999 21.6563Z" fill="#1C1D1D"/>
<path id="Vector_4" d="M10.9987 21.6562C10.95 21.6563 10.902 21.6459 10.8577 21.6257L0.201444 16.8132C0.141134 16.786 0.0899525 16.742 0.0540455 16.6865C0.0181385 16.6309 -0.000966965 16.5662 -0.000976562 16.5V4.8125C-0.000976562 4.72133 0.0352398 4.6339 0.0997055 4.56943C0.164171 4.50497 0.251605 4.46875 0.342773 4.46875C0.433942 4.46875 0.521376 4.50497 0.585841 4.56943C0.650307 4.6339 0.686523 4.72133 0.686523 4.8125V16.2781L11.1403 20.9993C11.212 21.0316 11.2704 21.0876 11.3058 21.1578C11.3412 21.228 11.3515 21.3082 11.3349 21.385C11.3183 21.4618 11.2759 21.5307 11.2147 21.58C11.1535 21.6294 11.0773 21.6563 10.9987 21.6562Z" fill="#1C1D1D"/>
<path id="Vector_5" d="M7.21779 11.3437C7.17409 11.3438 7.13079 11.3355 7.09022 11.3192L3.65273 9.94423C3.58892 9.91872 3.53421 9.87466 3.49568 9.81776C3.45714 9.76086 3.43654 9.69371 3.43652 9.62499V6.25396C3.43651 6.18685 3.45615 6.1212 3.49302 6.06512C3.52988 6.00904 3.58236 5.96499 3.64398 5.9384L14.1384 1.40318C14.2221 1.36703 14.3168 1.36561 14.4015 1.39922C14.4862 1.43284 14.5541 1.49874 14.5903 1.58243C14.6264 1.66612 14.6279 1.76074 14.5942 1.84548C14.5606 1.93022 14.4947 1.99813 14.411 2.03428L4.12402 6.47988V9.39235L6.87402 10.4921V7.69543C6.874 7.63017 6.89256 7.56626 6.92751 7.51115C6.96246 7.45605 7.01237 7.41203 7.07141 7.38424L17.1184 2.66103C17.1593 2.6417 17.2036 2.63062 17.2487 2.62842C17.2939 2.62623 17.3391 2.63297 17.3816 2.64825C17.4242 2.66353 17.4633 2.68705 17.4968 2.71748C17.5302 2.7479 17.5574 2.78462 17.5766 2.82555C17.5959 2.86647 17.6068 2.91078 17.6089 2.95596C17.611 3.00113 17.6042 3.04627 17.5888 3.0888C17.5735 3.13133 17.5499 3.17041 17.5194 3.2038C17.4889 3.2372 17.4521 3.26425 17.4111 3.28341L7.56154 7.91362V11C7.56154 11.0912 7.52532 11.1786 7.46086 11.2431C7.39639 11.3075 7.30896 11.3437 7.21779 11.3437Z" fill="#1C1D1D"/>
</g>
<path id="Vector_6" d="M16.5039 17.1875C16.4588 17.1875 16.4141 17.1787 16.3725 17.1615C16.3308 17.1443 16.293 17.119 16.2611 17.0871L14.8811 15.7121C14.8171 15.6476 14.7812 15.5604 14.7813 15.4695C14.7813 15.3786 14.8174 15.2915 14.8816 15.2271C14.9458 15.1628 15.0328 15.1265 15.1237 15.1261C15.2146 15.1258 15.3019 15.1615 15.3665 15.2253L16.5032 16.3576L18.6617 14.1948C18.6935 14.1626 18.7314 14.1371 18.7731 14.1197C18.8148 14.1022 18.8596 14.0932 18.9048 14.093C18.95 14.0929 18.9948 14.1017 19.0366 14.1189C19.0785 14.1361 19.1165 14.1614 19.1485 14.1934C19.1805 14.2253 19.2059 14.2632 19.2233 14.305C19.2406 14.3468 19.2495 14.3916 19.2495 14.4368C19.2495 14.482 19.2406 14.5268 19.2232 14.5686C19.2059 14.6103 19.1805 14.6483 19.1484 14.6802L16.7472 17.0864C16.7153 17.1185 16.6774 17.144 16.6356 17.1613C16.5939 17.1786 16.5491 17.1875 16.5039 17.1875Z" fill="#1C1D1D"/>
</g>
</svg>
