<svg width="24" height="24" viewBox="0 0 24 24" fill="none" xmlns="http://www.w3.org/2000/svg">
<g id="24_car1">
<path id="Vector" fill-rule="evenodd" clip-rule="evenodd" d="M23.2246 14.7038H24V12.3586C24 12.2377 23.9788 12.1344 23.931 12.0217L22.3132 8.21246C22.1578 7.84656 21.7912 7.61738 21.3614 7.61738H17.6412V17.6831H18.009C18.009 16.3478 19.0919 15.265 20.4271 15.265C21.7624 15.265 22.8452 16.3479 22.8452 17.6831H23.3882C23.7251 17.6831 23.9999 17.4083 23.9999 17.0714V16.2315H23.2246C23.0693 16.2315 22.9426 16.1048 22.9426 15.9495V14.9858C22.9427 14.8305 23.0693 14.7038 23.2246 14.7038ZM18.1081 12.054V8.87113H21.2308L22.5826 12.054H18.1081ZM16.0388 5C11.4308 5 6.82284 5 2.21489 5C1.99761 5 1.82144 5.17616 1.82144 5.39344C1.82144 5.61072 1.99761 5.78689 2.21489 5.78689H4.39534C4.77743 5.78689 5.09002 6.09948 5.09002 6.48156C5.09002 6.86364 4.77743 7.17623 4.39534 7.17623H0.919918H0.393443C0.176164 7.17623 0 7.35239 0 7.56967C0 7.78695 0.176164 7.96311 0.393443 7.96311H3.77257C4.15466 7.96311 4.46725 8.2757 4.46725 8.65779C4.46725 9.03987 4.15466 9.35246 3.77257 9.35246H1.50089C1.28361 9.35246 1.10744 9.52862 1.10744 9.7459C1.10744 9.96318 1.28361 10.1393 1.50089 10.1393H4.76793C5.15002 10.1393 5.46261 10.4519 5.46261 10.834C5.46261 11.2161 5.15002 11.5287 4.76793 11.5287C3.30979 11.5287 1.85159 11.5286 0.393443 11.5287C0.176164 11.5287 0 11.7049 0 11.9221C0 12.1394 0.176164 12.3156 0.393443 12.3156H3.77257V16.8676C3.77257 17.3168 4.13897 17.6832 4.58818 17.6832H6.27566C6.27566 16.3479 7.35856 15.2651 8.69375 15.2651C10.029 15.2651 11.1119 16.3479 11.1119 17.6832H16.8543V5.81561C16.8544 5.36639 16.488 5 16.0388 5ZM10.7213 14.5558C8.85325 14.5558 7.33893 13.0415 7.33893 11.1735C7.33893 9.30549 8.85325 7.79118 10.7213 7.79118C12.5893 7.79118 14.1036 9.30549 14.1036 11.1735C14.1036 13.0415 12.5893 14.5558 10.7213 14.5558ZM10.277 11.4718L11.9217 9.81077C12.1163 9.61415 12.434 9.61361 12.63 9.80856C12.826 10.0035 12.8266 10.3202 12.6322 10.5165C11.9652 11.1895 11.3028 11.8671 10.6328 12.5371C10.437 12.733 10.1192 12.733 9.92336 12.5371L8.81179 11.4256C8.6159 11.2297 8.6159 10.912 8.81179 10.7161C9.00767 10.5202 9.32538 10.5202 9.52126 10.7161L10.277 11.4718ZM8.6938 16.0519C7.79287 16.0519 7.06259 16.7822 7.06259 17.6831C7.06259 18.584 7.79292 19.3143 8.6938 19.3143C9.59474 19.3143 10.3251 18.584 10.3251 17.6831C10.3251 16.7822 9.59474 16.0519 8.6938 16.0519ZM8.6938 18.2389C8.38662 18.2389 8.13802 17.9902 8.13802 17.6831C8.13802 17.3759 8.38662 17.1273 8.6938 17.1273C9.00098 17.1273 9.24959 17.3759 9.24959 17.6831C9.24959 17.9902 9.00098 18.2389 8.6938 18.2389ZM20.4272 16.0519C19.5263 16.0519 18.7959 16.7822 18.7959 17.6831C18.7959 18.584 19.5263 19.3143 20.4272 19.3143C21.3281 19.3143 22.0584 18.584 22.0584 17.6831C22.0585 16.7822 21.3281 16.0519 20.4272 16.0519ZM20.4272 18.2389C20.12 18.2389 19.8714 17.9902 19.8714 17.6831C19.8714 17.3759 20.12 17.1273 20.4272 17.1273C20.7344 17.1273 20.983 17.3759 20.983 17.6831C20.983 17.9902 20.7344 18.2389 20.4272 18.2389Z" fill="#726D75"/>
</g>
</svg>
