<svg width="24" height="32" viewBox="0 0 24 32" fill="none" xmlns="http://www.w3.org/2000/svg">
<g id="Group 34338">
<path id="Vector" d="M12 9C14.9174 9 17.7153 10.1589 19.7782 12.2218C21.8411 14.2847 23 17.0826 23 20C23 22.9174 21.8411 25.7153 19.7782 27.7782C17.7153 29.8411 14.9174 31 12 31C9.08262 31 6.28473 29.8411 4.22183 27.7782C2.15893 25.7153 1 22.9174 1 20C1 17.0826 2.15893 14.2847 4.22183 12.2218C6.28473 10.1589 9.08262 9 12 9Z" stroke="#507988" stroke-width="1.5" stroke-linecap="round" stroke-linejoin="round"/>
<path id="Vector_2" d="M19 11.5147L23 1H1L5 11.5147M9.50667 9.284L8 1M14.4933 9.284L16 1M12.708 13.7227L14.372 17H17.208C17.3641 16.9962 17.5178 17.0396 17.6488 17.1245C17.7799 17.2094 17.8823 17.3318 17.9427 17.4759C18.003 17.6199 18.0185 17.7788 17.9871 17.9318C17.9557 18.0848 17.8789 18.2247 17.7667 18.3333L15.1627 20.896L16.6053 24.2093C16.668 24.361 16.6817 24.5285 16.6444 24.6884C16.6071 24.8482 16.5208 24.9924 16.3975 25.1008C16.2741 25.2091 16.12 25.2761 15.9567 25.2925C15.7934 25.3088 15.629 25.2737 15.4867 25.192L12 23.2253L8.51333 25.1867C8.37105 25.2693 8.20641 25.3051 8.04265 25.2891C7.8789 25.2732 7.7243 25.2061 7.60068 25.0975C7.47707 24.989 7.39068 24.8443 7.35372 24.684C7.31675 24.5236 7.33107 24.3557 7.39467 24.204L8.83733 20.8907L6.23333 18.328C6.12113 18.2194 6.0443 18.0794 6.0129 17.9265C5.9815 17.7735 5.99699 17.6146 6.05734 17.4706C6.11769 17.3265 6.2201 17.204 6.35117 17.1191C6.48224 17.0342 6.63588 16.9909 6.792 16.9947H9.628L11.2933 13.7173C11.3618 13.5889 11.464 13.4816 11.5889 13.407C11.7138 13.3323 11.8568 13.2932 12.0023 13.2937C12.1478 13.2943 12.2904 13.3345 12.4148 13.4101C12.5391 13.4857 12.6405 13.5937 12.708 13.7227Z" stroke="#507988" stroke-width="1.5" stroke-linecap="round" stroke-linejoin="round"/>
</g>
</svg>
