<svg width="73" height="16" viewBox="0 0 73 16" fill="none" xmlns="http://www.w3.org/2000/svg">
<g clip-path="url(#clip0_311_3510)">
<path d="M23.632 6.68595C23.3153 7.11476 22.7855 7.86022 22.4631 8.29563C22.2994 8.51704 22.0037 8.91905 22.9838 8.91905H28.1439C28.1439 8.91905 28.9756 7.78766 29.6728 6.84139C30.6211 5.55414 29.7549 2.87573 26.3644 2.87573H13.0119L10.6968 6.02129H23.3149C23.9519 6.02129 23.9433 6.26374 23.632 6.68595ZM19.8411 9.69503C18.8611 9.69503 19.1567 9.2922 19.3204 9.07079C19.6428 8.63538 20.1813 7.89775 20.498 7.46894C20.8097 7.04672 20.8179 6.80428 20.1801 6.80428H14.4093L9.75959 13.1234H21.0987C24.8438 13.1234 26.9289 10.5762 27.5717 9.69544L19.8411 9.69503ZM27.2175 13.1234H33.8694L36.3911 9.69462L29.74 9.69544C29.738 9.69503 27.2175 13.1234 27.2175 13.1234ZM44.3801 2.87573L41.8287 6.34125H38.8601L41.4102 2.87573H34.7604L30.3115 8.91905H46.5815L51.0292 2.87573H44.3801ZM36.8381 13.1234H43.4875L46.0104 9.69544H39.361C39.3585 9.69503 36.8381 13.1234 36.8381 13.1234ZM0.268066 11.0474V11.7756H9.53199L10.0672 11.0474H0.268066ZM11.0629 9.69503H0.268066V10.4224H10.5265L11.0629 9.69503ZM0.268066 13.1234H8.53954L9.07226 12.3994H0.268066V13.1234ZM62.9698 11.7752H72.7318V11.047H63.5058L62.9698 11.7752ZM61.9782 13.1234H72.7318V12.3994H62.5105L61.9782 13.1234ZM64.4999 9.69503L63.9652 10.4232H72.7318V9.69503H64.4999ZM55.7902 8.91905L60.2387 2.87573H53.1959C53.1934 2.87573 48.7441 8.91905 48.7441 8.91905H55.7902ZM48.1739 9.69503C48.1739 9.69503 47.6877 10.3593 47.4515 10.6792C46.6165 11.8073 47.355 13.1234 50.0804 13.1234H60.7598L63.2828 9.69544L48.1739 9.69503Z" fill="#6A6969"/>
</g>
<defs>
<clipPath id="clip0_311_3510">
<rect width="72.4638" height="16" fill="white" transform="translate(0.268066)"/>
</clipPath>
</defs>
</svg>
