<svg width="24" height="20" viewBox="0 0 24 20" fill="none" xmlns="http://www.w3.org/2000/svg">
<g id="_x30_5_View">
<g id="Group">
<path id="Vector" d="M23.9246 12.1588C21.0419 8.33094 16.9318 5.6357 12.0419 5.62378C12.0255 5.62373 12.0089 5.62414 11.9923 5.62414C7.11266 5.6275 2.95356 8.33672 0.0754504 12.1588C0.0250834 12.2258 -0.000100233 12.3054 2.998e-07 12.385C2.998e-07 12.4646 0.0251839 12.5442 0.0758023 12.6111C3.19745 16.747 7.47609 19.1485 12.0022 19.1485C16.8077 19.1485 20.9972 16.4896 23.9242 12.6111C23.9766 12.5418 24 12.4554 24 12.385C24.0001 12.3055 23.9751 12.2258 23.9246 12.1588ZM16.3367 17.595C17.8928 16.33 18.8903 14.4021 18.8903 12.2437C18.8903 10.3696 18.1459 8.6446 16.8841 7.38422C17.2166 7.52567 17.5461 7.6819 17.8722 7.8527C19.933 8.9268 21.7228 10.5405 23.1528 12.3846C21.376 14.6761 19.0901 16.5635 16.3367 17.595ZM7.10899 7.38779C5.85143 8.64817 5.10979 10.3713 5.10979 12.2438C5.10979 14.3997 6.10582 16.3259 7.66042 17.5909C4.94517 16.5696 2.67483 14.7273 0.847745 12.384C2.50347 10.2487 4.5927 8.4561 7.10899 7.38779ZM5.85977 12.2438C5.85977 9.38447 8.05169 6.909 9.71727 6.58945C10.4068 6.45921 11.3149 6.36511 12.2213 6.3813C12.9906 6.39548 13.7435 6.48224 14.4607 6.62826C16.7028 7.60604 18.1403 9.78178 18.1403 12.2438C18.1403 15.6314 15.3872 18.3875 12.0034 18.3875C8.61588 18.3875 5.85977 15.6314 5.85977 12.2438Z" fill="black"/>
<path id="Vector_2" d="M12.0618 8.80762C10.0927 8.80762 8.49048 10.4096 8.49048 12.3789C8.49048 14.3482 10.0927 15.9504 12.0618 15.9504C14.0309 15.9504 15.633 14.3482 15.633 12.3789C15.633 10.4096 14.0309 8.80762 12.0618 8.80762ZM12.0618 15.2004C10.5061 15.2004 9.24045 13.9348 9.24045 12.3789C9.24045 10.8233 10.5061 9.55759 12.0618 9.55759C13.6175 9.55759 14.8831 10.8232 14.8831 12.3789C14.8831 13.9348 13.6175 15.2004 12.0618 15.2004Z" fill="black"/>
<path id="Vector_3" d="M12.062 10.9255C11.8547 10.9255 11.687 11.0934 11.687 11.3005C11.687 11.5076 11.8548 11.6755 12.062 11.6755C12.4498 11.6755 12.7655 11.991 12.7655 12.3788C12.7655 12.5859 12.9332 12.7538 13.1405 12.7538C13.3478 12.7538 13.5155 12.5859 13.5155 12.3788C13.5155 11.5776 12.8636 10.9255 12.062 10.9255Z" fill="black"/>
<path id="Vector_4" d="M6.65221 5.16812C6.75109 5.35174 6.9799 5.41784 7.16016 5.32007C7.34252 5.22175 7.41063 4.99434 7.31211 4.81213L5.71067 1.84545C5.61255 1.66328 5.38545 1.59552 5.20238 1.69364C5.02036 1.79197 4.95225 2.01957 5.05077 2.20174L6.65221 5.16812Z" fill="black"/>
<path id="Vector_5" d="M12 4.11527C12.2073 4.11527 12.375 3.94738 12.375 3.74028V0.374988C12.375 0.16789 12.2072 0 12 0C11.7927 0 11.625 0.16789 11.625 0.374988V3.74028C11.625 3.94738 11.7927 4.11527 12 4.11527Z" fill="black"/>
<path id="Vector_6" d="M16.8397 5.32003C17.0192 5.41735 17.2483 5.35245 17.3477 5.16823L18.9491 2.20175C19.0476 2.01958 18.9795 1.79198 18.7975 1.69365C18.6151 1.59553 18.3877 1.66324 18.2892 1.84546L16.6877 4.81189C16.5892 4.9941 16.6573 5.22171 16.8397 5.32003Z" fill="black"/>
</g>
</g>
</svg>
