<svg width="32" height="32" viewBox="0 0 32 32" fill="none" xmlns="http://www.w3.org/2000/svg">
<g id="Group 34337">
<path id="Vector" d="M20.0034 24.9928H15.0049V29.9913M30.223 25.9698C29.6936 27.517 28.6683 28.8462 27.3063 29.7512C25.9443 30.6562 24.3217 31.0864 22.6902 30.9751C21.0587 30.8637 19.5096 30.2171 18.2832 29.1354C17.0567 28.0537 16.2216 26.5975 15.9073 24.9928M26.0016 20.994H31.0001V15.9955M15.782 20.0169C16.3114 18.4697 17.3367 17.1405 18.6987 16.2355C20.0607 15.3305 21.6833 14.9003 23.3148 15.0116C24.9463 15.123 26.4954 15.7697 27.7218 16.8513C28.9482 17.933 29.7834 19.3892 30.0977 20.994" stroke="#507988" stroke-width="1.5" stroke-linecap="round" stroke-linejoin="round"/>
<path id="Vector_2" d="M10.5061 22.9934H5.75952C5.32655 22.9858 4.90885 22.8321 4.57422 22.5572C4.23959 22.2823 4.00767 21.9024 3.91608 21.4792L1.06626 9.48279C0.989966 9.19548 0.979405 8.89467 1.03537 8.60272C1.09133 8.31077 1.21237 8.03518 1.3895 7.79645C1.56663 7.55772 1.79529 7.36198 2.05848 7.22378C2.32167 7.08558 2.61262 7.00848 2.90971 6.9982H27.0998C27.3969 7.00848 27.6878 7.08558 27.951 7.22378C28.2142 7.36198 28.4429 7.55772 28.62 7.79645C28.7971 8.03518 28.9182 8.31077 28.9741 8.60272C29.0301 8.89467 29.0195 9.19548 28.9432 9.48279L28.5434 11.157M5.00775 6.9982L11.006 1M25.0018 6.9982L19.0036 1.00267" stroke="#507988" stroke-width="1.5" stroke-linecap="round" stroke-linejoin="round"/>
</g>
</svg>
