<svg width="28" height="32" viewBox="0 0 28 32" fill="none" xmlns="http://www.w3.org/2000/svg">
<g id="Group 34339">
<g id="Group 34335">
<path id="Vector" d="M1.00004 5.23166V15.3831C1.00004 21.9508 5.04516 27.8411 11.1755 30.1997L12.5634 30.733C13.4876 31.089 14.5111 31.089 15.4353 30.733L16.8232 30.1997C19.8178 29.0475 22.3931 27.015 24.2096 24.37C26.026 21.7251 26.9985 18.5918 26.9987 15.3831V5.23166C27.0011 4.8497 26.8931 4.47516 26.6878 4.15304C26.4825 3.83092 26.1886 3.57491 25.8414 3.41576C22.1079 1.78658 18.0726 0.963798 13.9994 1.00122C9.92608 0.963798 5.89077 1.78658 2.15731 3.41576C1.81007 3.57491 1.51616 3.83092 1.31087 4.15304C1.10558 4.47516 0.99765 4.8497 1.00004 5.23166Z" stroke="#507988" stroke-width="1.5" stroke-linecap="round" stroke-linejoin="round"/>
<path id="Vector_2" d="M9.99941 13.0009H17.999M9.99941 13.0009C9.469 13.0009 8.96032 13.2116 8.58527 13.5867C8.21021 13.9617 7.99951 14.4704 7.99951 15.0008V21.0005C7.99951 21.5309 8.21021 22.0396 8.58527 22.4146C8.96032 22.7897 9.469 23.0004 9.99941 23.0004H17.999C18.5294 23.0004 19.0381 22.7897 19.4131 22.4146C19.7882 22.0396 19.9989 21.5309 19.9989 21.0005V15.0008C19.9989 14.4704 19.7882 13.9617 19.4131 13.5867C19.0381 13.2116 18.5294 13.0009 17.999 13.0009M9.99941 13.0009V11.001C9.99941 9.9402 10.4208 8.92284 11.1709 8.17273C11.921 7.42263 12.9384 7.00122 13.9992 7.00122C15.06 7.00122 16.0774 7.42263 16.8275 8.17273C17.5776 8.92284 17.999 9.9402 17.999 11.001V13.0009" stroke="#507988" stroke-width="1.5" stroke-linecap="round" stroke-linejoin="round"/>
<path id="Vector_3" d="M13.9995 17.5391C14.1321 17.5391 14.2593 17.5917 14.353 17.6855C14.4468 17.7793 14.4995 17.9064 14.4995 18.039C14.4995 18.1716 14.4468 18.2988 14.353 18.3926C14.2593 18.4863 14.1321 18.539 13.9995 18.539C13.8669 18.539 13.7397 18.4863 13.646 18.3926C13.5522 18.2988 13.4995 18.1716 13.4995 18.039C13.4995 17.9064 13.5522 17.7793 13.646 17.6855C13.7397 17.5917 13.8669 17.5391 13.9995 17.5391Z" stroke="#507988" stroke-width="1.5" stroke-linecap="round" stroke-linejoin="round"/>
</g>
</g>
</svg>
