<svg width="24" height="24" viewBox="0 0 24 24" fill="none" xmlns="http://www.w3.org/2000/svg">
<g id="24_Shild">
<path id="Vector" d="M20.1681 4.68654L12.1556 1.9891C12.0547 1.95513 11.9454 1.95513 11.8445 1.9891L3.83201 4.68654C3.6336 4.75334 3.5 4.93932 3.5 5.14866V11.8459C3.5 16.8064 7.03594 21.0883 11.9077 22.0274C11.9382 22.0333 11.9691 22.0362 12 22.0362C12.0309 22.0362 12.0618 22.0333 12.0923 22.0274C16.964 21.0883 20.5 16.8064 20.5 11.8459V5.14866C20.5 4.93928 20.3664 4.7533 20.1681 4.68654ZM19.5249 11.8459C19.5249 16.3086 16.3661 20.165 12 21.0516C7.63393 20.165 4.47523 16.3086 4.47523 11.8459V5.499L12 2.96571L19.5249 5.499V11.8459ZM11.0949 13.77L16.2258 8.85749C16.4203 8.67127 16.7289 8.67798 16.9152 8.87249C17.1014 9.06699 17.0947 9.37564 16.9002 9.5619L11.4391 14.7906C11.3449 14.8808 11.2234 14.926 11.1018 14.926C10.9837 14.926 10.8654 14.8833 10.772 14.7976L7.72633 12.0005C7.528 11.8184 7.51488 11.5099 7.69699 11.3115C7.87915 11.1132 8.18763 11.1001 8.38596 11.2822L11.0949 13.77Z" fill="#1C1D1D"/>
</g>
</svg>
