<svg width="32" height="32" viewBox="0 0 32 32" fill="none" xmlns="http://www.w3.org/2000/svg">
<g id="Group 34336">
<path id="Vector" d="M5.44973 3.67029L12.6353 6.39971C13.0801 6.56649 13.451 6.88616 13.6817 7.30149C13.9123 7.71682 13.9876 8.20068 13.894 8.66644L13.4713 10.7572C13.3978 11.1273 13.221 11.469 12.9615 11.743C12.7019 12.0169 12.3702 12.2118 12.0046 12.3052L9.23251 12.9972L7.68846 16.844C7.38879 17.5957 6.86746 18.2384 6.19375 18.6867L3.555 20.4001M21.5449 4.57165L20.2422 6.32504C19.8585 6.84154 19.6052 7.44302 19.5038 8.07838C19.4023 8.71373 19.4557 9.36419 19.6595 9.97448L20.0048 10.9972M11.0046 24.8336C8.83313 24.4674 6.80433 23.5107 5.14033 22.0683C3.47633 20.626 2.24128 18.7536 1.57042 16.6562C0.899566 14.5588 0.818769 12.3172 1.33688 10.1769C1.85499 8.03662 2.95203 6.08017 4.50788 4.52178C6.06372 2.96338 8.01837 1.86314 10.1578 1.34152C12.2972 0.819905 14.5389 0.897029 16.6375 1.56445C18.736 2.23187 20.6104 3.46385 22.0555 5.12549C23.5005 6.78712 24.4605 8.81435 24.8303 10.9852" stroke="#507988" stroke-width="1.5" stroke-linecap="round" stroke-linejoin="round"/>
<path id="Vector_2" d="M20.393 24.3936L24.0611 20.7255M14.4729 22.4202C14.279 22.3556 14.1096 22.2332 13.9875 22.0694C13.8653 21.9056 13.7963 21.7084 13.7896 21.5042C13.7829 21.3 13.8389 21.0987 13.9501 20.9273C14.0613 20.7559 14.2223 20.6226 14.4115 20.5455L31 13.7866L24.2425 30.3751C24.1655 30.5643 24.0323 30.7254 23.861 30.8367C23.6897 30.948 23.4884 31.0042 23.2842 30.9977C23.08 30.9911 22.8827 30.9222 22.7189 30.8002C22.5551 30.6782 22.4325 30.5089 22.3678 30.3151L20.393 24.4003L14.4729 22.4202Z" stroke="#507988" stroke-width="1.5" stroke-linecap="round" stroke-linejoin="round"/>
</g>
</svg>
