<svg width="80" height="16" viewBox="0 0 80 16" fill="none" xmlns="http://www.w3.org/2000/svg">
<path d="M15.8594 6.39104C15.8594 6.52325 15.7812 6.66748 15.625 6.82373L12.3528 10.0148L13.128 14.522C13.134 14.5641 13.137 14.6242 13.137 14.7023C13.137 14.8285 13.1055 14.9352 13.0424 15.0223C12.9793 15.1095 12.8876 15.1531 12.7674 15.1531C12.6532 15.1531 12.5331 15.117 12.4069 15.0449L8.35938 12.9175L4.3119 15.0449C4.17969 15.117 4.0595 15.1531 3.95132 15.1531C3.82512 15.1531 3.73047 15.1095 3.66737 15.0223C3.60427 14.9352 3.57272 14.8285 3.57272 14.7023C3.57272 14.6663 3.57873 14.6062 3.59075 14.522L4.36599 10.0148L1.08474 6.82373C0.934495 6.66147 0.859375 6.51724 0.859375 6.39104C0.859375 6.16868 1.02764 6.03046 1.36418 5.97637L5.88942 5.31832L7.91767 1.21676C8.03185 0.970365 8.17909 0.847168 8.35938 0.847168C8.53966 0.847168 8.6869 0.970365 8.80108 1.21676L10.8293 5.31832L15.3546 5.97637C15.6911 6.03046 15.8594 6.16868 15.8594 6.39104Z" fill="#FF9900"/>
<path d="M31.8594 6.39104C31.8594 6.52325 31.7812 6.66748 31.625 6.82373L28.3528 10.0148L29.128 14.522C29.134 14.5641 29.137 14.6242 29.137 14.7023C29.137 14.8285 29.1055 14.9352 29.0424 15.0223C28.9793 15.1095 28.8876 15.1531 28.7674 15.1531C28.6532 15.1531 28.5331 15.117 28.4069 15.0449L24.3594 12.9175L20.3119 15.0449C20.1797 15.117 20.0595 15.1531 19.9513 15.1531C19.8251 15.1531 19.7305 15.1095 19.6674 15.0223C19.6043 14.9352 19.5727 14.8285 19.5727 14.7023C19.5727 14.6663 19.5787 14.6062 19.5907 14.522L20.366 10.0148L17.0847 6.82373C16.9345 6.66147 16.8594 6.51724 16.8594 6.39104C16.8594 6.16868 17.0276 6.03046 17.3642 5.97637L21.8894 5.31832L23.9177 1.21676C24.0319 0.970365 24.1791 0.847168 24.3594 0.847168C24.5397 0.847168 24.6869 0.970365 24.8011 1.21676L26.8293 5.31832L31.3546 5.97637C31.6911 6.03046 31.8594 6.16868 31.8594 6.39104Z" fill="#FF9900"/>
<path d="M47.8594 6.39104C47.8594 6.52325 47.7812 6.66748 47.625 6.82373L44.3528 10.0148L45.128 14.522C45.134 14.5641 45.137 14.6242 45.137 14.7023C45.137 14.8285 45.1055 14.9352 45.0424 15.0223C44.9793 15.1095 44.8876 15.1531 44.7674 15.1531C44.6532 15.1531 44.5331 15.117 44.4069 15.0449L40.3594 12.9175L36.3119 15.0449C36.1797 15.117 36.0595 15.1531 35.9513 15.1531C35.8251 15.1531 35.7305 15.1095 35.6674 15.0223C35.6043 14.9352 35.5727 14.8285 35.5727 14.7023C35.5727 14.6663 35.5787 14.6062 35.5907 14.522L36.366 10.0148L33.0847 6.82373C32.9345 6.66147 32.8594 6.51724 32.8594 6.39104C32.8594 6.16868 33.0276 6.03046 33.3642 5.97637L37.8894 5.31832L39.9177 1.21676C40.0319 0.970365 40.1791 0.847168 40.3594 0.847168C40.5397 0.847168 40.6869 0.970365 40.8011 1.21676L42.8293 5.31832L47.3546 5.97637C47.6911 6.03046 47.8594 6.16868 47.8594 6.39104Z" fill="#FF9900"/>
<path d="M63.8594 6.39104C63.8594 6.52325 63.7812 6.66748 63.625 6.82373L60.3528 10.0148L61.128 14.522C61.134 14.5641 61.137 14.6242 61.137 14.7023C61.137 14.8285 61.1055 14.9352 61.0424 15.0223C60.9793 15.1095 60.8876 15.1531 60.7674 15.1531C60.6532 15.1531 60.5331 15.117 60.4069 15.0449L56.3594 12.9175L52.3119 15.0449C52.1797 15.117 52.0595 15.1531 51.9513 15.1531C51.8251 15.1531 51.7305 15.1095 51.6674 15.0223C51.6043 14.9352 51.5727 14.8285 51.5727 14.7023C51.5727 14.6663 51.5787 14.6062 51.5907 14.522L52.366 10.0148L49.0847 6.82373C48.9345 6.66147 48.8594 6.51724 48.8594 6.39104C48.8594 6.16868 49.0276 6.03046 49.3642 5.97637L53.8894 5.31832L55.9177 1.21676C56.0319 0.970365 56.1791 0.847168 56.3594 0.847168C56.5397 0.847168 56.6869 0.970365 56.8011 1.21676L58.8293 5.31832L63.3546 5.97637C63.6911 6.03046 63.8594 6.16868 63.8594 6.39104Z" fill="#FF9900"/>
<path d="M79.8594 6.39104C79.8594 6.52325 79.7812 6.66748 79.625 6.82373L76.3528 10.0148L77.128 14.522C77.134 14.5641 77.137 14.6242 77.137 14.7023C77.137 14.8285 77.1055 14.9352 77.0424 15.0223C76.9793 15.1095 76.8876 15.1531 76.7674 15.1531C76.6532 15.1531 76.5331 15.117 76.4069 15.0449L72.3594 12.9175L68.3119 15.0449C68.1797 15.117 68.0595 15.1531 67.9513 15.1531C67.8251 15.1531 67.7305 15.1095 67.6674 15.0223C67.6043 14.9352 67.5727 14.8285 67.5727 14.7023C67.5727 14.6663 67.5787 14.6062 67.5907 14.522L68.366 10.0148L65.0847 6.82373C64.9345 6.66147 64.8594 6.51724 64.8594 6.39104C64.8594 6.16868 65.0276 6.03046 65.3642 5.97637L69.8894 5.31832L71.9177 1.21676C72.0319 0.970365 72.1791 0.847168 72.3594 0.847168C72.5397 0.847168 72.6869 0.970365 72.8011 1.21676L74.8293 5.31832L79.3546 5.97637C79.6911 6.03046 79.8594 6.16868 79.8594 6.39104Z" fill="#FF9900"/>
</svg>
