<svg width="32" height="32" viewBox="0 0 32 32" fill="none" xmlns="http://www.w3.org/2000/svg">
<rect width="32" height="32" rx="16" fill="white"/>
<path fill-rule="evenodd" clip-rule="evenodd" d="M21.0909 14.5455C21.0909 16.2221 20.4605 17.7515 19.4238 18.9095L23.8935 23.3792C24.0355 23.5212 24.0355 23.7515 23.8935 23.8935C23.7515 24.0355 23.5212 24.0355 23.3792 23.8935L18.9095 19.4238C17.7515 20.4605 16.2221 21.0909 14.5455 21.0909C10.9305 21.0909 8 18.1604 8 14.5455C8 10.9305 10.9305 8 14.5455 8C18.1604 8 21.0909 10.9305 21.0909 14.5455ZM20.3636 14.5455C20.3636 16.1214 19.7371 17.551 18.7195 18.5987C18.6954 18.6134 18.6727 18.6312 18.6519 18.6519C18.6312 18.6727 18.6134 18.6954 18.5987 18.7195C17.551 19.7371 16.1214 20.3636 14.5455 20.3636C11.3322 20.3636 8.72727 17.7588 8.72727 14.5455C8.72727 11.3322 11.3322 8.72727 14.5455 8.72727C17.7588 8.72727 20.3636 11.3322 20.3636 14.5455ZM14.5455 10.9091C14.7463 10.9091 14.9091 11.0719 14.9091 11.2727V14.1818H17.8182C18.019 14.1818 18.1818 14.3446 18.1818 14.5455C18.1818 14.7463 18.019 14.9091 17.8182 14.9091H14.9091V17.8182C14.9091 18.019 14.7463 18.1818 14.5455 18.1818C14.3446 18.1818 14.1818 18.019 14.1818 17.8182V14.9091H11.2727C11.0719 14.9091 10.9091 14.7463 10.9091 14.5455C10.9091 14.3446 11.0719 14.1818 11.2727 14.1818H14.1818V11.2727C14.1818 11.0719 14.3446 10.9091 14.5455 10.9091Z" fill="black"/>
</svg>
