<svg width="58" height="75" viewBox="0 0 58 75" fill="none" xmlns="http://www.w3.org/2000/svg">
<path d="M0.999938 -1.45061e-05C0.447654 -1.54861e-05 -6.21841e-05 0.447699 -6.3251e-05 0.999984C-6.43242e-05 1.55227 0.447648 1.99999 0.999932 1.99999L0.999938 -1.45061e-05ZM53.4999 22L52.5669 22.3599L53.4999 22ZM46.5316 73.7494C46.6694 74.2842 47.2146 74.6061 47.7494 74.4684L56.465 72.2236C56.9998 72.0859 57.3217 71.5406 57.184 71.0058C57.0462 70.471 56.501 70.1491 55.9661 70.2868L48.219 72.2822L46.2236 64.535C46.0859 64.0002 45.5406 63.6783 45.0058 63.816C44.471 63.9538 44.1491 64.499 44.2868 65.0339L46.5316 73.7494ZM0.999935 0.999986C0.999932 1.99999 0.99987 1.99999 0.999979 1.99999C1.00024 1.99999 1.00051 1.99999 1.00103 1.99999C1.00208 1.99999 1.00378 1.99999 1.00616 1.99999C1.01092 2 1.01834 2.00002 1.02839 2.00006C1.0485 2.00013 1.07911 2.00029 1.11994 2.0006C1.20158 2.00122 1.32404 2.00247 1.48485 2.00499C1.80649 2.01003 2.28148 2.02015 2.89015 2.04045C4.10765 2.08105 5.85914 2.16238 7.98743 2.32521C12.2468 2.65108 18.0018 3.3024 23.9999 4.60232C30.0051 5.9038 36.2093 7.84608 41.3921 10.733C46.5771 13.6211 50.6557 17.4062 52.5669 22.3599L54.4328 21.64C52.2931 16.0938 47.7837 12.0039 42.3654 8.98576C36.9449 5.96645 30.5304 3.97122 24.4235 2.6477C18.3093 1.32261 12.4584 0.661421 8.14 0.331035C5.97939 0.165733 4.19899 0.0829887 2.95682 0.0415603C2.33566 0.0208433 1.84887 0.01045 1.51619 0.00523663C1.34985 0.00262935 1.22201 0.00131686 1.13515 0.000656027C1.09172 0.000325066 1.05854 0.000157616 1.0359 7.29321e-05C1.02458 3.01302e-05 1.0159 8.60716e-06 1.00989 -2.16098e-06C1.00689 -7.97575e-06 1.00455 -1.08719e-05 1.00289 -1.26887e-05C1.00206 -1.31665e-05 1.00132 -1.39818e-05 1.00091 -1.37026e-05C1.00034 -1.39162e-05 0.999938 -1.45061e-05 0.999935 0.999986ZM52.5669 22.3599C57.2817 34.5805 55.8293 47.2146 53.1533 56.8576C51.8176 61.6709 50.1838 65.7143 48.8846 68.5525C48.2353 69.971 47.6704 71.0867 47.2694 71.8451C47.0689 72.2242 46.9095 72.5139 46.8011 72.7073C46.7469 72.804 46.7054 72.8766 46.678 72.9243C46.6642 72.9481 46.654 72.9657 46.6474 72.977C46.6442 72.9826 46.6418 72.9866 46.6404 72.9891C46.6396 72.9903 46.6392 72.9911 46.6389 72.9915C46.6388 72.9918 46.6388 72.9918 46.6387 72.9919C46.6388 72.9918 46.6389 72.9916 47.5 73.5C48.3611 74.0084 48.3614 74.008 48.3616 74.0075C48.3618 74.0072 48.3622 74.0066 48.3625 74.006C48.3632 74.0048 48.3642 74.0032 48.3653 74.0012C48.3677 73.9972 48.371 73.9916 48.3752 73.9844C48.3836 73.97 48.3956 73.9492 48.4112 73.9222C48.4424 73.8681 48.4876 73.7888 48.5456 73.6853C48.6617 73.4783 48.829 73.1742 49.0374 72.7799C49.4544 71.9914 50.0364 70.8415 50.7031 69.385C52.036 66.4732 53.7106 62.3291 55.0805 57.3924C57.8158 47.5355 59.3633 34.4194 54.4328 21.64L52.5669 22.3599Z" fill="#FDB948"/>
</svg>
