<svg width="187" height="78" viewBox="0 0 187 78" fill="none" xmlns="http://www.w3.org/2000/svg">
<g clip-path="url(#clip0_174_2632)">
<path d="M185.549 75.4416H131.362C130.884 75.4416 130.497 75.0545 130.497 74.5771V48.9687C130.497 44.9797 132.892 41.4446 136.6 39.9634L149.421 34.84C149.64 34.7528 149.883 34.7584 150.097 34.8538C150.311 34.9496 150.477 35.1284 150.556 35.3487L154.356 45.8419L155.625 42.1962L154.524 39.5065C154.415 39.2398 154.445 38.9366 154.606 38.6972C154.767 38.4583 155.036 38.3147 155.324 38.3147H161.587C161.876 38.3147 162.145 38.4583 162.305 38.6972C162.467 38.9362 162.497 39.2398 162.388 39.5065L161.287 42.1962L162.556 45.8419L166.356 35.3487C166.435 35.1284 166.601 34.9499 166.815 34.8538C167.029 34.7584 167.273 34.7535 167.491 34.84L180.311 39.963C184.019 41.4443 186.415 44.9793 186.415 48.9687V74.5767C186.415 75.0545 186.028 75.4416 185.549 75.4416ZM132.228 73.7122H184.684V48.9687C184.684 45.6906 182.715 42.7862 179.669 41.5691L167.679 36.7778L163.354 48.7218C163.231 49.0644 162.905 49.2921 162.541 49.2921C162.539 49.2921 162.537 49.2921 162.535 49.2921C162.168 49.2898 161.843 49.0577 161.722 48.7114L159.545 42.4552C159.475 42.2564 159.481 42.0388 159.561 41.8438L160.298 40.0433H156.614L157.351 41.8438C157.431 42.0385 157.437 42.256 157.368 42.4552L155.189 48.7114C155.069 49.0577 154.744 49.2898 154.377 49.2921C154.002 49.3028 153.682 49.0662 153.558 48.7218L149.233 36.7778L137.243 41.5691C134.197 42.7865 132.228 45.691 132.228 48.9687L132.228 73.7122ZM177.812 60.0135H167.829C167.351 60.0135 166.964 59.6264 166.964 59.1486V53.0099C166.964 52.5321 167.351 52.1454 167.829 52.1454H177.812C178.289 52.1454 178.677 52.5321 178.677 53.0099V59.1486C178.677 59.6259 178.289 60.0135 177.812 60.0135ZM168.695 58.2841H176.946V53.8743H168.695V58.2841ZM158.456 33.9802C157.094 33.9805 155.733 33.7287 154.465 33.2259C153.484 32.8375 152.672 32.3481 152.054 31.7716C150.333 30.1675 148.543 26.7208 147.899 25.4111C146.744 25.3464 144.495 24.7228 143.525 21.0154C143.035 19.1468 143.146 17.6458 143.854 16.5543C144.244 15.9535 144.735 15.6022 145.139 15.3998C145.105 13.6263 145.321 8.72047 148.443 5.02507C152.265 0.49963 158.205 0.447754 158.456 0.447754C158.707 0.447754 164.646 0.49963 168.469 5.02507C171.59 8.72078 171.807 13.6263 171.773 15.3998C172.176 15.6022 172.668 15.9535 173.058 16.5543C173.766 17.6458 173.876 19.1468 173.387 21.0154C172.417 24.7225 170.168 25.3464 169.013 25.4111C168.368 26.7208 166.579 30.1675 164.858 31.7716C164.239 32.3481 163.428 32.8375 162.447 33.2262C161.179 33.7287 159.817 33.9802 158.456 33.9802ZM148.437 23.6694C148.768 23.6694 149.077 23.8603 149.221 24.1695C149.243 24.2151 151.379 28.7766 153.236 30.5079C153.695 30.936 154.323 31.3099 155.103 31.6187C157.234 32.4636 159.678 32.4636 161.81 31.6187C162.589 31.3099 163.218 30.936 163.677 30.5075C165.533 28.7766 167.67 24.2151 167.692 24.1695C167.861 23.8063 168.257 23.6068 168.65 23.6867C168.859 23.7213 170.828 23.9596 171.713 20.5778C172.069 19.218 172.033 18.1517 171.606 17.4946C171.26 16.9617 170.743 16.8462 170.738 16.8451C170.293 16.7711 169.98 16.3675 170.018 15.9183C170.021 15.8854 170.166 14.0113 169.685 11.6775C167.413 11.8901 160.814 12.3481 157.504 10.8841C155.264 9.89428 153.723 8.71975 152.79 7.86549C152.453 8.82559 151.897 10.0513 151.046 10.9692C149.589 12.5417 147.825 13.3725 146.935 13.7197C146.825 15.017 146.893 15.8958 146.895 15.9179C146.933 16.3668 146.619 16.7708 146.175 16.8448C146.168 16.8468 145.638 16.9613 145.29 17.522C144.88 18.1808 144.849 19.2377 145.2 20.5775C146.117 24.0817 148.243 23.6908 148.264 23.6864C148.321 23.675 148.379 23.6694 148.437 23.6694ZM158.456 2.17699C158.404 2.17734 153.059 2.24132 149.766 6.14041C148.323 7.84856 147.591 9.90533 147.225 11.6906C147.986 11.2994 148.948 10.6866 149.775 9.79499C151.028 8.44272 151.518 6.03147 151.522 6.00762C151.589 5.67213 151.847 5.40722 152.18 5.33183C152.515 5.25575 152.861 5.38338 153.066 5.65726C153.08 5.67559 154.674 7.74272 158.204 9.30322C160.991 10.5362 166.862 10.1858 169.233 9.98036C168.801 8.67067 168.143 7.32186 167.145 6.14041C163.837 2.2223 158.509 2.17699 158.456 2.17699Z" fill="#FDB948"/>
<path d="M185.549 75.4416H131.362C130.884 75.4416 130.497 75.0545 130.497 74.5771V48.9687C130.497 44.9797 132.892 41.4446 136.6 39.9634L149.421 34.84C149.64 34.7528 149.883 34.7584 150.097 34.8538C150.311 34.9496 150.477 35.1284 150.556 35.3487L154.356 45.8419L155.625 42.1962L154.524 39.5065C154.415 39.2398 154.445 38.9365 154.606 38.6972C154.767 38.4583 155.036 38.3147 155.324 38.3147H161.587C161.876 38.3147 162.145 38.4583 162.305 38.6972C162.467 38.9362 162.497 39.2398 162.388 39.5065L161.287 42.1962L162.556 45.8419L166.356 35.3487C166.435 35.1284 166.601 34.9499 166.815 34.8538C167.029 34.7584 167.273 34.7535 167.491 34.84L180.311 39.963C184.019 41.4443 186.415 44.9793 186.415 48.9687V74.5767C186.415 75.0545 186.028 75.4416 185.549 75.4416ZM132.228 73.7122H184.684V48.9687C184.684 45.6906 182.715 42.7862 179.669 41.5691L167.679 36.7778L163.354 48.7218C163.231 49.0644 162.905 49.2921 162.541 49.2921C162.539 49.2921 162.537 49.2921 162.535 49.2921C162.168 49.2898 161.843 49.0577 161.722 48.7114L159.545 42.4552C159.475 42.2563 159.481 42.0388 159.561 41.8438L160.298 40.0433H156.614L157.351 41.8438C157.431 42.0385 157.437 42.256 157.368 42.4552L155.189 48.7114C155.069 49.0577 154.744 49.2898 154.377 49.2921C154.002 49.3028 153.682 49.0662 153.558 48.7218L149.233 36.7778L137.243 41.5691C134.197 42.7865 132.228 45.691 132.228 48.9687L132.228 73.7122ZM177.812 60.0135H167.829C167.351 60.0135 166.964 59.6264 166.964 59.1486V53.0099C166.964 52.5321 167.351 52.1454 167.829 52.1454H177.812C178.289 52.1454 178.677 52.5321 178.677 53.0099V59.1486C178.677 59.626 178.289 60.0135 177.812 60.0135ZM168.695 58.2841H176.946V53.8743H168.695V58.2841ZM158.456 33.9802C157.094 33.9805 155.733 33.7287 154.465 33.2259C153.484 32.8375 152.672 32.3481 152.054 31.7716C150.333 30.1675 148.543 26.7208 147.899 25.4111C146.744 25.3464 144.495 24.7228 143.525 21.0154C143.035 19.1468 143.146 17.6458 143.854 16.5543C144.244 15.9535 144.735 15.6022 145.139 15.3998C145.105 13.6263 145.321 8.72047 148.443 5.02507C152.265 0.49963 158.205 0.447754 158.456 0.447754C158.707 0.447754 164.646 0.49963 168.469 5.02507C171.59 8.72078 171.807 13.6263 171.773 15.3998C172.176 15.6022 172.668 15.9535 173.058 16.5543C173.766 17.6458 173.876 19.1468 173.387 21.0154C172.417 24.7225 170.168 25.3464 169.013 25.4111C168.368 26.7208 166.579 30.1675 164.858 31.7716C164.239 32.3481 163.428 32.8375 162.447 33.2262C161.179 33.7287 159.817 33.9802 158.456 33.9802ZM148.437 23.6694C148.768 23.6694 149.077 23.8603 149.221 24.1695C149.243 24.2151 151.379 28.7766 153.236 30.5079C153.695 30.936 154.323 31.3099 155.103 31.6187C157.234 32.4636 159.678 32.4636 161.81 31.6187C162.589 31.3099 163.218 30.936 163.677 30.5075C165.533 28.7766 167.67 24.2151 167.692 24.1695C167.861 23.8063 168.257 23.6068 168.65 23.6867C168.859 23.7213 170.828 23.9596 171.713 20.5778C172.069 19.218 172.033 18.1517 171.606 17.4946C171.26 16.9617 170.743 16.8462 170.738 16.8451C170.293 16.7711 169.98 16.3675 170.018 15.9183C170.021 15.8854 170.166 14.0113 169.685 11.6775C167.413 11.8901 160.814 12.3481 157.504 10.8841C155.264 9.89428 153.723 8.71975 152.79 7.86549C152.453 8.82559 151.897 10.0513 151.046 10.9692C149.589 12.5417 147.825 13.3725 146.935 13.7197C146.825 15.017 146.893 15.8958 146.895 15.9179C146.933 16.3668 146.619 16.7708 146.175 16.8448C146.168 16.8468 145.638 16.9613 145.29 17.522C144.88 18.1808 144.849 19.2377 145.2 20.5775C146.117 24.0817 148.243 23.6908 148.264 23.6864C148.321 23.675 148.379 23.6694 148.437 23.6694ZM158.456 2.17699C158.404 2.17734 153.059 2.24132 149.766 6.14041C148.323 7.84856 147.591 9.90533 147.225 11.6906C147.986 11.2994 148.948 10.6866 149.775 9.79499C151.028 8.44272 151.518 6.03147 151.522 6.00762C151.589 5.67213 151.847 5.40722 152.18 5.33183C152.515 5.25575 152.861 5.38338 153.066 5.65726C153.08 5.67559 154.674 7.74272 158.204 9.30322C160.991 10.5362 166.862 10.1858 169.233 9.98036C168.801 8.67067 168.143 7.32186 167.145 6.14041C163.837 2.2223 158.509 2.17699 158.456 2.17699Z" stroke="#FDB948" stroke-width="1.0163"/>
<path d="M74.104 5.39995V5.65403H74.3581H75.5974C76.1427 5.65403 76.5827 6.09497 76.5827 6.63802V26.4468C76.5827 26.9899 76.1427 27.4308 75.5974 27.4308H74.3581H74.104V27.6849V69.7789V70.0329H74.3581H75.5974C76.1428 70.0329 76.5827 70.4739 76.5827 71.0165V75.9688C76.5827 76.5119 76.1427 76.9528 75.5974 76.9528H1.23931C0.694211 76.9528 0.254076 76.5118 0.254076 75.9688V71.0165C0.254076 70.4739 0.694149 70.0329 1.23931 70.0329H2.47861H2.73268V69.7789V27.6849V27.4308H2.47861H1.23931C0.69421 27.4308 0.254076 26.9898 0.254076 26.4468V6.63802C0.254076 6.09499 0.694216 5.65403 1.23931 5.65403H2.47861H2.73268V5.39995V1.68581C2.73268 1.1428 3.17282 0.70183 3.71791 0.70183H73.1188C73.664 0.70183 74.104 1.14278 74.104 1.68581V5.39995ZM4.95721 2.66978H4.70313V2.92386V5.39995V5.65403H4.95721H71.8795H72.1335V5.39995V2.92386V2.66978H71.8795H4.95721ZM2.47861 7.62197H2.22453V7.87605V25.2088V25.4629H2.47861H74.3581H74.6122V25.2088V7.87605V7.62197H74.3581H2.47861ZM71.8795 40.3195H72.1335V40.0654V32.6371V32.383H71.8795H57.008H56.7539V32.6371V40.0654V40.3195H57.008H71.8795ZM54.5294 40.3195H54.7834V40.0654V32.6371V32.383H54.5294H39.6577H39.4037V32.6371V40.0654V40.3195H39.6577H54.5294ZM37.1791 40.3195H37.4332V40.0654V32.6371V32.383H37.1791H22.3075H22.0534V32.6371V40.0654V40.3195H22.3075H37.1791ZM19.8289 40.3195H20.083V40.0654V32.6371V32.383H19.8289H4.95721H4.70313V32.6371V40.0654V40.3195H4.95721H19.8289ZM74.3581 74.9848H74.6122V74.7307V72.2545V72.0005H74.3581H2.47861H2.22453V72.2545V74.7307V74.9848H2.47861H74.3581ZM42.1364 70.0329H42.3904V69.7789V47.4936V47.2395H42.1364H9.91441H9.66034V47.4936V69.7789V70.0329H9.91441H12.3931H12.6471V69.7789V51.2078C12.6471 50.6647 13.0873 50.2238 13.6323 50.2238H38.4184C38.9635 50.2238 39.4037 50.6647 39.4037 51.2078V69.7789V70.0329H39.6577H42.1364ZM14.6176 69.7789V70.0329H14.8717H24.7861H25.0402V69.7789V52.4459V52.1918H24.7861H14.8717H14.6176V52.4459V69.7789ZM27.2647 52.1918H27.0106V52.4459V69.7789V70.0329H27.2647H37.1791H37.4332V69.7789V52.4459V52.1918H37.1791H27.2647ZM66.9226 70.0329H67.1767V69.7789V47.4936V47.2395H66.9226H52.0507H51.7966V47.4936V69.7789V70.0329H52.0507H66.9226ZM69.1472 69.7789V70.0329H69.4013H71.8795H72.1335V69.7789V42.5415V42.2874H71.8795H4.95721H4.70313V42.5415V69.7789V70.0329H4.95721H7.43581H7.68989V69.7789V46.2555C7.68989 45.7128 8.13009 45.2715 8.67514 45.2715H43.3756C43.9207 45.2715 44.3609 45.7128 44.3609 46.2555V69.7789V70.0329H44.615H49.5721H49.8262V69.7789V46.2555C49.8262 45.7129 50.2666 45.2715 50.8114 45.2715H68.1619C68.7067 45.2715 69.1472 45.7129 69.1472 46.2555V69.7789ZM71.8795 30.415H72.1335V30.161V27.6849V27.4308H71.8795H4.95721H4.70313V27.6849V30.161V30.415H4.95721H71.8795Z" fill="black" stroke="black" stroke-width="0.508152"/>
<path d="M24.8869 16.3728L24.7346 16.5425L24.8869 16.7122C25.4368 17.325 25.7712 18.1331 25.7712 19.0187C25.7712 20.9258 24.2171 22.4787 22.3074 22.4787H17.3502C16.8051 22.4787 16.3649 22.0377 16.3649 21.4948V11.5903C16.3649 11.0473 16.8051 10.6064 17.3502 10.6064H22.3074C24.2171 10.6064 25.7712 12.1593 25.7712 14.0664C25.7712 14.952 25.4368 15.7601 24.8869 16.3728ZM18.3354 20.2567V20.5108H18.5894H22.3074C23.1317 20.5108 23.8008 19.8412 23.8008 19.0187C23.8008 18.1961 23.1317 17.5265 22.3074 17.5265H18.5894H18.3354V17.7806V20.2567ZM18.3354 15.3045V15.5586H18.5894H22.3074C23.1317 15.5586 23.8008 14.889 23.8008 14.0664C23.8008 13.2438 23.1317 12.5743 22.3074 12.5743H18.5894H18.3354V12.8284V15.3045Z" fill="black" stroke="black" stroke-width="0.508152"/>
<path d="M30.9825 18.7646H30.7284V19.0187V22.4787H28.758V15.3045C28.758 12.7139 30.8673 10.6064 33.4611 10.6064C36.055 10.6064 38.1642 12.7139 38.1642 15.3045V22.4787H36.1938V19.0187V18.7646H35.9397H30.9825ZM30.7284 16.5425V16.7966H30.9825H35.9397H36.1938V16.5425V15.3045C36.1938 13.7984 34.9681 12.5743 33.4611 12.5743C31.9541 12.5743 30.7284 13.7984 30.7284 15.3045V16.5425Z" fill="black" stroke="black" stroke-width="0.508152"/>
<path d="M48.1295 17.9335L48.5867 18.5425V17.7809V10.6067H50.5572V21.495C50.5572 21.9186 50.2872 22.2934 49.8837 22.4288C49.7805 22.4624 49.6749 22.479 49.572 22.479C49.2674 22.479 48.9729 22.3371 48.784 22.0854L48.784 22.0853L43.5788 15.1522L43.1215 14.5432V15.3048V22.479H41.151V11.5906C41.151 11.1669 41.4213 10.792 41.8249 10.6568C42.2294 10.5229 42.6704 10.6619 42.9245 11.0003C42.9245 11.0003 42.9245 11.0003 42.9245 11.0003L48.1295 17.9335Z" fill="black" stroke="black" stroke-width="0.508152"/>
<path d="M57.0803 16.7603C59.1084 17.9792 60.3824 20.1026 60.4674 22.4787H58.4951C58.4081 20.732 57.4277 19.1806 55.8909 18.3378L55.5146 18.1315V18.5606V22.4787H53.5441V10.6064H55.5146V14.5245V14.9536L55.8909 14.7473C57.4277 13.9045 58.4081 12.3531 58.4951 10.6064H60.4674C60.3824 12.9825 59.1084 15.1058 57.0803 16.3247L56.718 16.5425L57.0803 16.7603Z" fill="black" stroke="black" stroke-width="0.508152"/>
<path d="M57.0079 52.1923H56.7539V52.4464V57.3986V57.6527H57.0079H61.9652H62.2193V57.3986V52.4464V52.1923H61.9652H57.0079ZM63.2046 59.6203H55.7686C55.2233 59.6203 54.7834 59.1793 54.7834 58.6367V51.2083C54.7834 50.6652 55.2234 50.2243 55.7686 50.2243H63.2046C63.7494 50.2243 64.1898 50.6653 64.1898 51.2083V58.6367C64.1898 59.1792 63.7495 59.6203 63.2046 59.6203Z" fill="black" stroke="black" stroke-width="0.508152"/>
<path d="M75.7702 38.3259C85.1925 38.3259 92.8309 30.6953 92.8309 21.2825C92.8309 11.8696 85.1925 4.23901 75.7702 4.23901C66.3478 4.23901 58.7095 11.8696 58.7095 21.2825C58.7095 30.6953 66.3478 38.3259 75.7702 38.3259Z" fill="#F2F2F2"/>
<path d="M75.9222 4.23901C72.5176 4.23901 69.1898 5.24752 66.3591 7.137C63.5285 9.02649 61.3223 11.7121 60.0191 14.8542C58.7164 17.9962 58.3757 21.4537 59.0396 24.7893C59.704 28.125 61.3434 31.189 63.7506 33.5938C66.1578 35.9987 69.2248 37.6364 72.5638 38.2998C75.9029 38.9634 79.3637 38.6228 82.509 37.3213C85.6543 36.0199 88.3429 33.8158 90.234 30.988C92.1256 28.1602 93.1352 24.8356 93.1352 21.4346C93.1298 16.8757 91.3147 12.5049 88.0876 9.28129C84.8609 6.05763 80.4857 4.24426 75.9222 4.23901ZM75.9222 35.9848C73.0412 35.9848 70.2255 35.1314 67.8304 33.5327C65.4349 31.9339 63.5681 29.6615 62.4659 27.0027C61.3636 24.344 61.075 21.4185 61.6369 18.5961C62.1988 15.7736 63.5861 13.181 65.6233 11.1461C67.66 9.11127 70.2551 7.7255 73.0803 7.16408C75.906 6.60266 78.8342 6.89078 81.4958 7.99207C84.157 9.09331 86.432 10.9583 88.0323 13.351C89.6325 15.7438 90.4871 18.5569 90.4871 21.4346C90.4821 25.2922 88.9466 28.9904 86.2158 31.7181C83.4854 34.4458 79.7836 35.9802 75.9222 35.9848Z" fill="#FDB948"/>
<path d="M75.9227 14.821C76.6248 14.821 77.2982 15.0997 77.7949 15.5959C78.2916 16.092 78.5708 16.7649 78.5708 17.4665H81.2189C81.2144 16.2969 80.8224 15.1617 80.1036 14.2384C79.3849 13.3151 78.3802 12.6557 77.2465 12.3634V9.53003H74.5984V12.3634C73.3514 12.6839 72.2649 13.4481 71.5421 14.5123C70.8193 15.5766 70.51 16.8678 70.6723 18.1437C70.835 19.4195 71.458 20.5922 72.4245 21.4417C73.3914 22.2912 74.6352 22.759 75.9227 22.7575C76.4464 22.7575 76.9584 22.9126 77.3939 23.2033C77.8291 23.494 78.1685 23.9071 78.369 24.3906C78.5694 24.8739 78.622 25.4059 78.5195 25.919C78.4175 26.4322 78.1653 26.9036 77.7949 27.2736C77.4245 27.6435 76.953 27.8955 76.4392 27.9976C75.9254 28.0997 75.3931 28.0473 74.909 27.847C74.4253 27.6468 74.0118 27.3077 73.7205 26.8727C73.4296 26.4376 73.2741 25.9261 73.2741 25.4029H70.626C70.6305 26.5725 71.0229 27.7077 71.7412 28.631C72.46 29.5543 73.4647 30.2137 74.5984 30.5061V33.3393H77.2465V30.5061C78.4935 30.1855 79.58 29.4213 80.3032 28.3571C81.0261 27.2928 81.3349 26.0016 81.1726 24.7257C81.0099 23.4499 80.3868 22.2772 79.4204 21.4277C78.4535 20.5782 77.2101 20.1104 75.9227 20.112C75.2201 20.112 74.5467 19.8332 74.05 19.3371C73.5532 18.841 73.2741 18.1681 73.2741 17.4665C73.2741 16.7649 73.5532 16.092 74.05 15.5959C74.5467 15.0997 75.2201 14.821 75.9227 14.821Z" fill="#FDB948"/>
<path d="M100.692 7.6333C110.176 16.0434 115.879 18.8893 121.039 18.1679V11.1695L133.058 21.1052L121.039 31.041V24.0426C115.385 23.1665 107.278 26.2289 100.692 34.5772" stroke="#FDB948" stroke-width="3.04891" stroke-linecap="round" stroke-linejoin="round"/>
</g>
<defs>
<clipPath id="clip0_174_2632">
<rect width="187" height="77.2391" fill="white"/>
</clipPath>
</defs>
</svg>
