<svg width="35" height="35" viewBox="0 0 35 35" fill="none" xmlns="http://www.w3.org/2000/svg">
<path d="M17.5 0C7.86413 0 0 7.86475 0 17.5C0 27.1359 7.86475 35 17.5 35C27.1359 35 35 27.1353 35 17.5C35 7.86413 27.1353 0 17.5 0ZM2.05078 17.5C2.05078 8.98126 8.98126 2.05078 17.5 2.05078C21.3912 2.05078 24.9504 3.4974 27.6696 5.88027L24.3493 9.20062C23.4343 6.28852 20.7101 4.16992 17.5 4.16992C13.8588 4.16992 10.8422 6.89548 10.3828 10.4133C8.01541 10.8659 6.2207 12.9519 6.2207 15.4492C6.2207 18.2762 8.52065 20.5762 11.3477 20.5762H12.9737L5.88027 27.6697C3.4974 24.9504 2.05078 21.3912 2.05078 17.5ZM14.557 18.5254H11.3477C9.65145 18.5254 8.27148 17.1454 8.27148 15.4492C8.27148 13.753 9.65145 12.373 11.3477 12.373H12.373V11.3477C12.373 8.52065 14.673 6.2207 17.5 6.2207C20.1899 6.2207 22.401 8.30334 22.6093 10.9406L14.729 18.8209L14.557 18.5254ZM24.0504 12.3997C25.5592 12.5956 26.7285 13.888 26.7285 15.4492C26.7285 17.1454 25.3485 18.5254 23.6523 18.5254H20.443L20.1465 19.035C19.5848 20 18.5955 20.5762 17.5 20.5762C17.0309 20.5762 16.5817 20.4698 16.1768 20.2733L24.0504 12.3997ZM17.5 32.9492C13.6088 32.9492 10.0496 31.5026 7.33038 29.1197L14.6827 21.7673C15.5083 22.3177 16.4862 22.627 17.5 22.627C19.1034 22.627 20.6175 21.8541 21.5803 20.5762H23.6523C26.4793 20.5762 28.7793 18.2762 28.7793 15.4492C28.7793 13.35 27.5109 11.5417 25.7004 10.7496L29.1197 7.33031C31.5026 10.0496 32.9492 13.6088 32.9492 17.5C32.9492 26.0187 26.0187 32.9492 17.5 32.9492Z" fill="white"/>
<path d="M17.5 24.6777C15.8038 24.6777 14.4238 26.0577 14.4238 27.7539C14.4238 29.4501 15.8038 30.83 17.5 30.83C19.1962 30.83 20.5762 29.4501 20.5762 27.7539C20.5762 26.0577 19.1962 24.6777 17.5 24.6777ZM17.5 28.7793C16.9346 28.7793 16.4746 28.3193 16.4746 27.7539C16.4746 27.1885 16.9346 26.7285 17.5 26.7285C18.0654 26.7285 18.5254 27.1885 18.5254 27.7539C18.5254 28.3193 18.0654 28.7793 17.5 28.7793Z" fill="white"/>
</svg>
