<svg width="154" height="141" viewBox="0 0 154 141" fill="none" xmlns="http://www.w3.org/2000/svg">
<rect y="0.75293" width="154" height="139.506" rx="4.52941" fill="#FDB948"/>
<path d="M76.7059 38.7529C59.248 38.7529 45 53.002 45 70.4588C45 87.9167 59.2491 102.165 76.7059 102.165C94.1638 102.165 108.412 87.9156 108.412 70.4588C108.412 53.0009 94.1627 38.7529 76.7059 38.7529ZM48.7155 70.4588C48.7155 55.0249 61.2719 42.4685 76.7059 42.4685C83.7557 42.4685 90.2043 45.0894 95.1308 49.4066L89.1151 55.4223C87.4575 50.1462 82.5218 46.3078 76.7059 46.3078C70.109 46.3078 64.6435 51.2459 63.8112 57.6194C59.522 58.4394 56.2705 62.2188 56.2705 66.7433C56.2705 71.8651 60.4374 76.0321 65.5593 76.0321H68.5053L55.6537 88.8839C51.3365 83.9571 48.7155 77.5087 48.7155 70.4588ZM71.3738 72.3166H65.5593C62.4862 72.3166 59.986 69.8164 59.986 66.7433C59.986 63.6702 62.4862 61.17 65.5593 61.17H67.417V59.3122C67.417 54.1904 71.584 50.0234 76.7059 50.0234C81.5793 50.0234 85.5853 53.7966 85.9628 58.5747L71.6855 72.852L71.3738 72.3166ZM88.5737 61.2183C91.3072 61.5732 93.4258 63.9148 93.4258 66.7433C93.4258 69.8164 90.9256 72.3166 87.8525 72.3166H82.0379L81.5007 73.2399C80.4831 74.9883 78.6906 76.0321 76.7059 76.0321C75.856 76.0321 75.0422 75.8394 74.3086 75.4833L88.5737 61.2183ZM76.7059 98.4492C69.656 98.4492 63.2075 95.8282 58.2809 91.511L71.6016 78.1902C73.0975 79.1873 74.8692 79.7476 76.7059 79.7476C79.6108 79.7476 82.354 78.3474 84.0984 76.0321H87.8525C92.9743 76.0321 97.1413 71.8651 97.1413 66.7433C97.1413 62.9399 94.8433 59.6638 91.5631 58.2288L97.7581 52.0337C102.075 56.9605 104.696 63.409 104.696 70.4588C104.696 85.8928 92.1398 98.4492 76.7059 98.4492Z" fill="white"/>
<path d="M76.7061 83.4629C73.633 83.4629 71.1328 85.963 71.1328 89.0361C71.1328 92.1092 73.633 94.6094 76.7061 94.6094C79.7792 94.6094 82.2794 92.1092 82.2794 89.0361C82.2794 85.963 79.7792 83.4629 76.7061 83.4629ZM76.7061 90.8939C75.6817 90.8939 74.8483 90.0605 74.8483 89.0361C74.8483 88.0118 75.6817 87.1784 76.7061 87.1784C77.7305 87.1784 78.5639 88.0118 78.5639 89.0361C78.5639 90.0605 77.7305 90.8939 76.7061 90.8939Z" fill="white"/>
</svg>
