<svg width="24" height="24" viewBox="0 0 24 24" fill="none" xmlns="http://www.w3.org/2000/svg">
<g clip-path="url(#clip0_5_33)">
<mask id="path-1-inside-1_5_33" fill="white">
<path d="M19.9454 1.92543C18.1116 1.92543 16.6627 3.39699 16.6627 5.23079C16.6627 7.06458 18.1342 8.51351 19.9454 8.51351C21.7565 8.51351 23.2507 7.04194 23.2507 5.20815C23.2507 3.37435 21.7792 1.92543 19.9454 1.92543ZM19.9454 7.78905C18.5191 7.78905 17.3645 6.63443 17.3645 5.20815C17.3645 3.78186 18.5417 2.64989 19.9454 2.64989C21.3717 2.64989 22.5263 3.8045 22.5263 5.23079C22.5263 6.65707 21.3717 7.78905 19.9454 7.78905Z"/>
</mask>
<path d="M19.9454 1.92543C18.1116 1.92543 16.6627 3.39699 16.6627 5.23079C16.6627 7.06458 18.1342 8.51351 19.9454 8.51351C21.7565 8.51351 23.2507 7.04194 23.2507 5.20815C23.2507 3.37435 21.7792 1.92543 19.9454 1.92543ZM19.9454 7.78905C18.5191 7.78905 17.3645 6.63443 17.3645 5.20815C17.3645 3.78186 18.5417 2.64989 19.9454 2.64989C21.3717 2.64989 22.5263 3.8045 22.5263 5.23079C22.5263 6.65707 21.3717 7.78905 19.9454 7.78905Z" fill="white"/>
<path d="M23.2507 5.20815H21.2507H23.2507ZM19.9454 -0.0745697C16.9891 -0.0745697 14.6627 2.31042 14.6627 5.23079H18.6627C18.6627 4.48357 19.2341 3.92543 19.9454 3.92543V-0.0745697ZM14.6627 5.23079C14.6627 8.17815 17.0387 10.5135 19.9454 10.5135V6.51351C19.2298 6.51351 18.6627 5.95102 18.6627 5.23079H14.6627ZM19.9454 10.5135C22.8522 10.5135 25.2507 8.15542 25.2507 5.20815H21.2507C21.2507 5.92847 20.6609 6.51351 19.9454 6.51351V10.5135ZM25.2507 5.20815C25.2507 2.25187 22.8657 -0.0745697 19.9454 -0.0745697V3.92543C20.6926 3.92543 21.2507 4.49684 21.2507 5.20815H25.2507ZM19.9454 5.78905C19.6237 5.78905 19.3645 5.52986 19.3645 5.20815H15.3645C15.3645 7.73901 17.4145 9.78905 19.9454 9.78905V5.78905ZM19.3645 5.20815C19.3645 4.92067 19.6118 4.64989 19.9454 4.64989V0.649892C17.4717 0.649892 15.3645 2.64306 15.3645 5.20815H19.3645ZM19.9454 4.64989C20.2671 4.64989 20.5263 4.90908 20.5263 5.23079H24.5263C24.5263 2.69993 22.4762 0.649892 19.9454 0.649892V4.64989ZM20.5263 5.23079C20.5263 5.52958 20.2902 5.78905 19.9454 5.78905V9.78905C22.4532 9.78905 24.5263 7.78457 24.5263 5.23079H20.5263Z" fill="white" mask="url(#path-1-inside-1_5_33)"/>
<path d="M20.9868 5.72887C20.9641 5.66095 20.9641 5.61567 20.9189 5.54775C20.8962 5.50247 20.8736 5.43455 20.8283 5.38927C20.783 5.344 20.7604 5.29872 20.7151 5.25344C20.6698 5.20816 20.6246 5.16288 20.5566 5.14024C20.5114 5.09496 20.4434 5.07232 20.3982 5.04968C20.3302 5.02704 20.285 4.98176 20.217 4.95912C20.1491 4.93649 20.0812 4.91385 20.0359 4.89121C20.0133 4.89121 19.968 4.86857 19.9454 4.84593C19.9227 4.82329 19.8775 4.82329 19.8548 4.80065C19.8322 4.77801 19.7869 4.77801 19.7643 4.75537C19.7416 4.73273 19.719 4.71009 19.6963 4.68745C19.6737 4.66481 19.6511 4.64217 19.6511 4.59689C19.6284 4.57425 19.6284 4.52897 19.6284 4.50634C19.6284 4.46106 19.6284 4.43842 19.6284 4.39314C19.6284 4.3705 19.6511 4.32522 19.6511 4.30258C19.6737 4.27994 19.6737 4.23466 19.6963 4.21202C19.719 4.18938 19.7416 4.16674 19.7643 4.1441C19.7869 4.12146 19.8322 4.09882 19.8775 4.09882C19.9227 4.07618 19.9454 4.07618 19.9907 4.07618C20.0133 4.07618 20.0359 4.07618 20.0586 4.07618C20.0812 4.07618 20.1038 4.07618 20.1265 4.07618C20.1718 4.07618 20.1944 4.07618 20.2397 4.09882C20.285 4.09882 20.3302 4.12146 20.3529 4.12146C20.3755 4.12146 20.4208 4.1441 20.4434 4.1441C20.4887 4.1441 20.5114 4.16674 20.534 4.16674L20.6472 4.21202L20.6698 4.07618L20.7151 3.71395V3.6234L20.6246 3.60076C20.6019 3.60076 20.5566 3.57812 20.534 3.57812C20.5114 3.57812 20.4887 3.55548 20.4434 3.55548C20.4208 3.55548 20.3755 3.53284 20.3302 3.53284C20.285 3.53284 20.2623 3.5102 20.217 3.5102H20.1944V3.19325V3.08005H20.0812H19.7643H19.6511V3.19325V3.53284H19.6284C19.5605 3.55548 19.4926 3.57812 19.4247 3.6234C19.3567 3.64603 19.3115 3.69131 19.2662 3.73659C19.2209 3.78187 19.1756 3.82715 19.1304 3.89507C19.0851 3.94035 19.0624 4.00827 19.0398 4.07618C19.0172 4.1441 18.9945 4.21202 18.9719 4.27994C18.9492 4.34786 18.9492 4.43842 18.9492 4.50634C18.9492 4.57425 18.9492 4.61953 18.9719 4.68745C18.9945 4.75537 18.9945 4.80065 19.0398 4.86857C19.0624 4.91385 19.1077 4.98176 19.1304 5.02704C19.1756 5.07232 19.1983 5.1176 19.2435 5.16288C19.2888 5.20816 19.3341 5.25344 19.402 5.27608C19.4473 5.32136 19.5152 5.344 19.5605 5.36664C19.6284 5.38927 19.6963 5.43455 19.7416 5.45719C19.8095 5.47983 19.8775 5.50247 19.9227 5.52511C19.9454 5.52511 19.9907 5.54775 20.0133 5.57039C20.0359 5.59303 20.0812 5.59303 20.1038 5.61567C20.1265 5.63831 20.1491 5.66095 20.1718 5.66095C20.1944 5.68359 20.217 5.70623 20.2397 5.72887C20.2623 5.75151 20.2623 5.77415 20.285 5.81942C20.285 5.84206 20.3076 5.88734 20.3076 5.93262C20.3076 5.9779 20.3076 6.00054 20.3076 6.04582C20.3076 6.06846 20.285 6.11374 20.2623 6.13638C20.2397 6.15902 20.217 6.18166 20.1944 6.2043C20.1718 6.22694 20.1491 6.24958 20.1038 6.27221C20.0812 6.29485 20.0359 6.29485 20.0133 6.31749C19.9907 6.31749 19.9454 6.34013 19.9001 6.34013C19.8775 6.34013 19.8548 6.34013 19.8095 6.34013C19.7869 6.34013 19.7416 6.34013 19.719 6.34013C19.6737 6.34013 19.6284 6.34013 19.6058 6.34013C19.5605 6.34013 19.5152 6.31749 19.4926 6.31749C19.4473 6.31749 19.402 6.29485 19.3567 6.27221C19.3115 6.24958 19.2662 6.24957 19.2209 6.22694C19.1983 6.22694 19.1756 6.2043 19.153 6.2043C19.1304 6.2043 19.1077 6.18166 19.0851 6.18166L18.9492 6.11374L18.9266 6.27221L18.8813 6.67973V6.74764L18.9492 6.77028C19.0398 6.74764 19.0851 6.77028 19.153 6.79292C19.1983 6.81556 19.2662 6.8382 19.3115 6.8382C19.3567 6.86084 19.4247 6.86084 19.4926 6.88348C19.5605 6.90612 19.6058 6.90612 19.6737 6.90612H19.719V7.24571V7.35891H19.8322H20.1491H20.2623V7.24571V6.88348H20.285C20.3529 6.86084 20.4208 6.8382 20.4887 6.79292C20.5566 6.77028 20.6019 6.725 20.6698 6.67973C20.7151 6.63445 20.7604 6.58917 20.8057 6.52125C20.851 6.47597 20.8736 6.40805 20.9189 6.34013C20.9415 6.27221 20.9641 6.2043 20.9868 6.13638C21.0094 6.06846 21.0094 6.00054 21.0094 5.90998C21.0094 5.84206 21.0094 5.79679 20.9868 5.72887Z" fill="white"/>
<mask id="path-4-inside-2_5_33" fill="white">
<path d="M18.3606 8.94367C18.2474 8.78519 17.9984 8.76255 17.8399 8.87575L14.1723 11.7962L9.44066 9.8266C9.32747 9.78133 9.19163 9.80397 9.10107 9.87188L4.02983 13.4942C3.87135 13.6074 3.82607 13.8338 3.93927 13.9923C4.00719 14.1055 4.12038 14.1507 4.23358 14.1507C4.3015 14.1507 4.36942 14.1281 4.43734 14.0828L9.3501 10.5737L14.1044 12.5433C14.2176 12.5886 14.3761 12.566 14.4666 12.4981L18.2927 9.46437C18.4512 9.35118 18.4738 9.10214 18.3606 8.94367Z"/>
</mask>
<path d="M18.3606 8.94367C18.2474 8.78519 17.9984 8.76255 17.8399 8.87575L14.1723 11.7962L9.44066 9.8266C9.32747 9.78133 9.19163 9.80397 9.10107 9.87188L4.02983 13.4942C3.87135 13.6074 3.82607 13.8338 3.93927 13.9923C4.00719 14.1055 4.12038 14.1507 4.23358 14.1507C4.3015 14.1507 4.36942 14.1281 4.43734 14.0828L9.3501 10.5737L14.1044 12.5433C14.2176 12.5886 14.3761 12.566 14.4666 12.4981L18.2927 9.46437C18.4512 9.35118 18.4738 9.10214 18.3606 8.94367Z" fill="white"/>
<path d="M17.8399 8.87575L16.6774 7.24828L16.6349 7.27864L16.5941 7.31119L17.8399 8.87575ZM14.1723 11.7962L13.4037 13.6426L14.4942 14.0966L15.4182 13.3608L14.1723 11.7962ZM9.44066 9.8266L10.2093 7.98019L10.1964 7.97483L10.1834 7.96965L9.44066 9.8266ZM9.10107 9.87188L10.2635 11.4994L10.2825 11.4858L10.3011 11.4719L9.10107 9.87188ZM4.02983 13.4942L2.86735 11.8667H2.86735L4.02983 13.4942ZM3.93927 13.9923L5.65425 12.9633L5.61316 12.8948L5.56673 12.8298L3.93927 13.9923ZM4.43734 14.0828L5.54674 15.7469L5.57357 15.729L5.59981 15.7103L4.43734 14.0828ZM9.3501 10.5737L10.1156 8.72599L9.09051 8.30132L8.18763 8.94624L9.3501 10.5737ZM14.1044 12.5433L13.3389 14.391L13.3502 14.3957L13.3616 14.4003L14.1044 12.5433ZM14.4666 12.4981L15.6666 14.0981L15.6881 14.0819L15.7092 14.0652L14.4666 12.4981ZM18.2927 9.46437L17.1302 7.8369L17.0894 7.86606L17.0501 7.89722L18.2927 9.46437ZM19.9881 7.78119C19.1301 6.58006 17.5838 6.60086 16.6774 7.24828L19.0024 10.5032C18.638 10.7635 18.2314 10.8351 17.8836 10.7941C17.531 10.7527 17.0641 10.5695 16.7332 10.1061L19.9881 7.78119ZM16.5941 7.31119L12.9265 10.2317L15.4182 13.3608L19.0858 10.4403L16.5941 7.31119ZM14.9409 9.94982L10.2093 7.98019L8.67206 11.673L13.4037 13.6426L14.9409 9.94982ZM10.1834 7.96965C9.39292 7.65344 8.52433 7.80444 7.90107 8.27188L10.3011 11.4719C10.0559 11.6557 9.79092 11.7516 9.54522 11.7867C9.29663 11.8222 9.00099 11.8048 8.69788 11.6836L10.1834 7.96965ZM7.9386 8.24441L2.86735 11.8667L5.1923 15.1217L10.2635 11.4994L7.9386 8.24441ZM2.86735 11.8667C1.87266 12.5772 1.51276 14.0361 2.3118 15.1547L5.56673 12.8298C6.13938 13.6315 5.87004 14.6376 5.1923 15.1217L2.86735 11.8667ZM2.22428 15.0213C2.73118 15.8661 3.58292 16.1507 4.23358 16.1507V12.1507C4.65785 12.1507 5.2832 12.3448 5.65425 12.9633L2.22428 15.0213ZM4.23358 16.1507C4.77011 16.1507 5.21755 15.9664 5.54674 15.7469L3.32794 12.4187C3.52129 12.2898 3.83289 12.1507 4.23358 12.1507V16.1507ZM5.59981 15.7103L10.5126 12.2012L8.18763 8.94624L3.27486 12.4553L5.59981 15.7103ZM8.58463 12.4214L13.3389 14.391L14.8699 10.6956L10.1156 8.72599L8.58463 12.4214ZM13.3616 14.4003C13.8008 14.576 14.2255 14.589 14.5527 14.5463C14.8752 14.5043 15.2851 14.3842 15.6666 14.0981L13.2666 10.8981C13.5576 10.6798 13.843 10.605 14.0353 10.5799C14.2323 10.5543 14.5211 10.556 14.8472 10.6864L13.3616 14.4003ZM15.7092 14.0652L19.5353 11.0315L17.0501 7.89722L13.224 10.9309L15.7092 14.0652ZM19.4552 11.0918C20.6563 10.2339 20.6355 8.68757 19.9881 7.78119L16.7332 10.1061C16.4729 9.74177 16.4013 9.33513 16.4422 8.98732C16.4837 8.63476 16.6669 8.16788 17.1302 7.8369L19.4552 11.0918Z" fill="white" mask="url(#path-4-inside-2_5_33)"/>
<mask id="path-6-inside-3_5_33" fill="white">
<path d="M23.6583 21.3501H21.983C21.983 21.3501 21.983 11.0718 21.983 10.868C21.983 10.6643 21.8245 10.5058 21.6207 10.5058H18.2927C18.089 10.5058 17.9305 10.6643 17.9305 10.868V21.3501H16.708V14.4903C16.708 14.2866 16.5495 14.1281 16.3457 14.1281H12.9951C12.7913 14.1281 12.6328 14.2866 12.6328 14.4903V21.3501H11.4103V13.947C11.4103 13.7432 11.2518 13.5848 11.0481 13.5848H7.72007C7.51632 13.5848 7.35784 13.7432 7.35784 13.947V21.3501H6.13531V16.0751C6.13531 15.8714 5.97683 15.7129 5.77307 15.7129H2.42243C2.21867 15.7129 2.0602 15.8714 2.0602 16.0751V21.3501H0.362232C0.158477 21.3501 0 21.5086 0 21.7123C0 21.9161 0.158477 22.0746 0.362232 22.0746H2.39979H5.7278H7.72007H11.0481H12.9951H16.3231H18.2701H21.5981H23.6356C23.8394 22.0746 23.9979 21.9161 23.9979 21.7123C24.0205 21.5086 23.862 21.3501 23.6583 21.3501ZM5.3882 21.3501H2.78466V16.4373H5.3882V21.3501ZM10.6858 21.3501H8.0823V14.3092H10.6858V21.3501ZM15.9609 21.3501H13.3573V14.8526H15.9609V21.3501ZM21.2585 21.3501H18.655V11.2303H21.2585V21.3501Z"/>
</mask>
<path d="M23.6583 21.3501H21.983C21.983 21.3501 21.983 11.0718 21.983 10.868C21.983 10.6643 21.8245 10.5058 21.6207 10.5058H18.2927C18.089 10.5058 17.9305 10.6643 17.9305 10.868V21.3501H16.708V14.4903C16.708 14.2866 16.5495 14.1281 16.3457 14.1281H12.9951C12.7913 14.1281 12.6328 14.2866 12.6328 14.4903V21.3501H11.4103V13.947C11.4103 13.7432 11.2518 13.5848 11.0481 13.5848H7.72007C7.51632 13.5848 7.35784 13.7432 7.35784 13.947V21.3501H6.13531V16.0751C6.13531 15.8714 5.97683 15.7129 5.77307 15.7129H2.42243C2.21867 15.7129 2.0602 15.8714 2.0602 16.0751V21.3501H0.362232C0.158477 21.3501 0 21.5086 0 21.7123C0 21.9161 0.158477 22.0746 0.362232 22.0746H2.39979H5.7278H7.72007H11.0481H12.9951H16.3231H18.2701H21.5981H23.6356C23.8394 22.0746 23.9979 21.9161 23.9979 21.7123C24.0205 21.5086 23.862 21.3501 23.6583 21.3501ZM5.3882 21.3501H2.78466V16.4373H5.3882V21.3501ZM10.6858 21.3501H8.0823V14.3092H10.6858V21.3501ZM15.9609 21.3501H13.3573V14.8526H15.9609V21.3501ZM21.2585 21.3501H18.655V11.2303H21.2585V21.3501Z" fill="white"/>
<path d="M21.983 21.3501H11.983V31.3501H21.983V21.3501ZM17.9305 21.3501V31.3501H27.9305V21.3501H17.9305ZM16.708 21.3501H6.70796V31.3501H16.708V21.3501ZM12.6328 21.3501V31.3501H22.6328V21.3501H12.6328ZM11.4103 21.3501H1.41031V31.3501H11.4103V21.3501ZM7.35784 21.3501V31.3501H17.3578V21.3501H7.35784ZM6.13531 21.3501H-3.86469V31.3501H6.13531V21.3501ZM2.0602 21.3501V31.3501H12.0602V21.3501H2.0602ZM23.9979 21.7123L14.059 20.608L13.9979 21.1585V21.7123H23.9979ZM5.3882 21.3501V31.3501H15.3882V21.3501H5.3882ZM2.78466 21.3501H-7.21534V31.3501H2.78466V21.3501ZM2.78466 16.4373V6.43734H-7.21534V16.4373H2.78466ZM5.3882 16.4373H15.3882V6.43734H5.3882V16.4373ZM10.6858 21.3501V31.3501H20.6858V21.3501H10.6858ZM8.0823 21.3501H-1.9177V31.3501H8.0823V21.3501ZM8.0823 14.3092V4.30923H-1.9177V14.3092H8.0823ZM10.6858 14.3092H20.6858V4.30923H10.6858V14.3092ZM15.9609 21.3501V31.3501H25.9609V21.3501H15.9609ZM13.3573 21.3501H3.35731V31.3501H13.3573V21.3501ZM13.3573 14.8526V4.85258H3.35731V14.8526H13.3573ZM15.9609 14.8526H25.9609V4.85258H15.9609V14.8526ZM21.2585 21.3501V31.3501H31.2585V21.3501H21.2585ZM18.655 21.3501H8.65495V31.3501H18.655V21.3501ZM18.655 11.2303V1.23026H8.65495V11.2303H18.655ZM21.2585 11.2303H31.2585V1.23026H21.2585V11.2303ZM23.6583 11.3501H21.983V31.3501H23.6583V11.3501ZM21.983 21.3501C31.983 21.3501 31.983 21.3501 31.983 21.35C31.983 21.3499 31.983 21.3498 31.983 21.3496C31.983 21.3495 31.983 21.3493 31.983 21.3491C31.983 21.3488 31.983 21.3485 31.983 21.3482C31.983 21.3479 31.983 21.3476 31.983 21.3472C31.983 21.3468 31.983 21.3464 31.983 21.3459C31.983 21.3454 31.983 21.3449 31.983 21.3444C31.983 21.3439 31.983 21.3433 31.983 21.3427C31.983 21.342 31.983 21.3414 31.983 21.3407C31.983 21.34 31.983 21.3393 31.983 21.3385C31.983 21.3377 31.983 21.3369 31.983 21.3361C31.983 21.3352 31.983 21.3344 31.983 21.3334C31.983 21.3325 31.983 21.3316 31.983 21.3306C31.983 21.3296 31.983 21.3285 31.983 21.3275C31.983 21.3264 31.983 21.3253 31.983 21.3242C31.983 21.323 31.983 21.3218 31.983 21.3206C31.983 21.3194 31.983 21.3181 31.983 21.3169C31.983 21.3156 31.983 21.3142 31.983 21.3129C31.983 21.3115 31.983 21.3101 31.983 21.3087C31.983 21.3073 31.983 21.3058 31.983 21.3043C31.983 21.3028 31.983 21.3012 31.983 21.2996C31.983 21.2981 31.983 21.2964 31.983 21.2948C31.983 21.2931 31.983 21.2915 31.983 21.2897C31.983 21.288 31.983 21.2862 31.983 21.2845C31.983 21.2827 31.983 21.2808 31.983 21.279C31.983 21.2771 31.983 21.2752 31.983 21.2733C31.983 21.2713 31.983 21.2694 31.983 21.2673C31.983 21.2653 31.983 21.2633 31.983 21.2612C31.983 21.2591 31.983 21.257 31.983 21.2549C31.983 21.2527 31.983 21.2506 31.983 21.2483C31.983 21.2461 31.983 21.2439 31.983 21.2416C31.983 21.2393 31.983 21.237 31.983 21.2346C31.983 21.2323 31.983 21.2299 31.983 21.2275C31.983 21.225 31.983 21.2226 31.983 21.2201C31.983 21.2176 31.983 21.2151 31.983 21.2125C31.983 21.21 31.983 21.2074 31.983 21.2047C31.983 21.2021 31.983 21.1995 31.983 21.1968C31.983 21.1941 31.983 21.1913 31.983 21.1886C31.983 21.1858 31.983 21.183 31.983 21.1802C31.983 21.1774 31.983 21.1745 31.983 21.1716C31.983 21.1687 31.983 21.1658 31.983 21.1628C31.983 21.1599 31.983 21.1569 31.983 21.1539C31.983 21.1508 31.983 21.1478 31.983 21.1447C31.983 21.1416 31.983 21.1385 31.983 21.1353C31.983 21.1321 31.983 21.129 31.983 21.1257C31.983 21.1225 31.983 21.1193 31.983 21.116C31.983 21.1127 31.983 21.1094 31.983 21.106C31.983 21.1027 31.983 21.0993 31.983 21.0959C31.983 21.0925 31.983 21.089 31.983 21.0855C31.983 21.0821 31.983 21.0785 31.983 21.075C31.983 21.0715 31.983 21.0679 31.983 21.0643C31.983 21.0607 31.983 21.057 31.983 21.0534C31.983 21.0497 31.983 21.046 31.983 21.0423C31.983 21.0385 31.983 21.0348 31.983 21.031C31.983 21.0272 31.983 21.0234 31.983 21.0195C31.983 21.0157 31.983 21.0118 31.983 21.0079C31.983 21.0039 31.983 21 31.983 20.996C31.983 20.992 31.983 20.988 31.983 20.984C31.983 20.98 31.983 20.9759 31.983 20.9718C31.983 20.9677 31.983 20.9636 31.983 20.9594C31.983 20.9553 31.983 20.9511 31.983 20.9468C31.983 20.9426 31.983 20.9384 31.983 20.9341C31.983 20.9298 31.983 20.9255 31.983 20.9212C31.983 20.9168 31.983 20.9125 31.983 20.9081C31.983 20.9037 31.983 20.8992 31.983 20.8948C31.983 20.8903 31.983 20.8858 31.983 20.8813C31.983 20.8768 31.983 20.8723 31.983 20.8677C31.983 20.8631 31.983 20.8585 31.983 20.8539C31.983 20.8493 31.983 20.8446 31.983 20.8399C31.983 20.8352 31.983 20.8305 31.983 20.8258C31.983 20.821 31.983 20.8162 31.983 20.8114C31.983 20.8066 31.983 20.8018 31.983 20.7969C31.983 20.7921 31.983 20.7872 31.983 20.7823C31.983 20.7774 31.983 20.7724 31.983 20.7674C31.983 20.7625 31.983 20.7575 31.983 20.7524C31.983 20.7474 31.983 20.7424 31.983 20.7373C31.983 20.7322 31.983 20.7271 31.983 20.7219C31.983 20.7168 31.983 20.7116 31.983 20.7064C31.983 20.7012 31.983 20.696 31.983 20.6908C31.983 20.6855 31.983 20.6802 31.983 20.6749C31.983 20.6696 31.983 20.6643 31.983 20.659C31.983 20.6536 31.983 20.6482 31.983 20.6428C31.983 20.6374 31.983 20.632 31.983 20.6265C31.983 20.621 31.983 20.6155 31.983 20.61C31.983 20.6045 31.983 20.599 31.983 20.5934C31.983 20.5878 31.983 20.5822 31.983 20.5766C31.983 20.571 31.983 20.5653 31.983 20.5597C31.983 20.554 31.983 20.5483 31.983 20.5426C31.983 20.5368 31.983 20.5311 31.983 20.5253C31.983 20.5195 31.983 20.5137 31.983 20.5079C31.983 20.5021 31.983 20.4962 31.983 20.4903C31.983 20.4844 31.983 20.4785 31.983 20.4726C31.983 20.4667 31.983 20.4607 31.983 20.4547C31.983 20.4488 31.983 20.4427 31.983 20.4367C31.983 20.4307 31.983 20.4246 31.983 20.4185C31.983 20.4125 31.983 20.4064 31.983 20.4002C31.983 20.3941 31.983 20.3879 31.983 20.3818C31.983 20.3756 31.983 20.3694 31.983 20.3632C31.983 20.3569 31.983 20.3507 31.983 20.3444C31.983 20.3381 31.983 20.3318 31.983 20.3255C31.983 20.3192 31.983 20.3128 31.983 20.3064C31.983 20.3001 31.983 20.2937 31.983 20.2872C31.983 20.2808 31.983 20.2744 31.983 20.2679C31.983 20.2614 31.983 20.255 31.983 20.2484C31.983 20.2419 31.983 20.2354 31.983 20.2288C31.983 20.2223 31.983 20.2157 31.983 20.2091C31.983 20.2025 31.983 20.1958 31.983 20.1892C31.983 20.1825 31.983 20.1758 31.983 20.1691C31.983 20.1624 31.983 20.1557 31.983 20.149C31.983 20.1422 31.983 20.1355 31.983 20.1287C31.983 20.1219 31.983 20.1151 31.983 20.1082C31.983 20.1014 31.983 20.0945 31.983 20.0877C31.983 20.0808 31.983 20.0739 31.983 20.0669C31.983 20.06 31.983 20.0531 31.983 20.0461C31.983 20.0391 31.983 20.0321 31.983 20.0251C31.983 20.0181 31.983 20.0111 31.983 20.004C31.983 19.997 31.983 19.9899 31.983 19.9828C31.983 19.9757 31.983 19.9686 31.983 19.9614C31.983 19.9543 31.983 19.9471 31.983 19.9399C31.983 19.9328 31.983 19.9256 31.983 19.9183C31.983 19.9111 31.983 19.9039 31.983 19.8966C31.983 19.8893 31.983 19.882 31.983 19.8747C31.983 19.8674 31.983 19.8601 31.983 19.8527C31.983 19.8454 31.983 19.838 31.983 19.8306C31.983 19.8232 31.983 19.8158 31.983 19.8084C31.983 19.8009 31.983 19.7935 31.983 19.786C31.983 19.7785 31.983 19.771 31.983 19.7635C31.983 19.756 31.983 19.7485 31.983 19.7409C31.983 19.7334 31.983 19.7258 31.983 19.7182C31.983 19.7106 31.983 19.703 31.983 19.6954C31.983 19.6878 31.983 19.6801 31.983 19.6724C31.983 19.6648 31.983 19.6571 31.983 19.6494C31.983 19.6417 31.983 19.6339 31.983 19.6262C31.983 19.6184 31.983 19.6107 31.983 19.6029C31.983 19.5951 31.983 19.5873 31.983 19.5795C31.983 19.5716 31.983 19.5638 31.983 19.5559C31.983 19.5481 31.983 19.5402 31.983 19.5323C31.983 19.5244 31.983 19.5165 31.983 19.5086C31.983 19.5006 31.983 19.4927 31.983 19.4847C31.983 19.4767 31.983 19.4687 31.983 19.4607C31.983 19.4527 31.983 19.4447 31.983 19.4367C31.983 19.4286 31.983 19.4206 31.983 19.4125C31.983 19.4044 31.983 19.3963 31.983 19.3882C31.983 19.3801 31.983 19.372 31.983 19.3638C31.983 19.3557 31.983 19.3475 31.983 19.3393C31.983 19.3311 31.983 19.3229 31.983 19.3147C31.983 19.3065 31.983 19.2983 31.983 19.29C31.983 19.2818 31.983 19.2735 31.983 19.2652C31.983 19.2569 31.983 19.2486 31.983 19.2403C31.983 19.232 31.983 19.2237 31.983 19.2153C31.983 19.207 31.983 19.1986 31.983 19.1902C31.983 19.1818 31.983 19.1734 31.983 19.165C31.983 19.1566 31.983 19.1482 31.983 19.1397C31.983 19.1313 31.983 19.1228 31.983 19.1143C31.983 19.1058 31.983 19.0973 31.983 19.0888C31.983 19.0803 31.983 19.0718 31.983 19.0633C31.983 19.0547 31.983 19.0462 31.983 19.0376C31.983 19.029 31.983 19.0204 31.983 19.0118C31.983 19.0032 31.983 18.9946 31.983 18.986C31.983 18.9773 31.983 18.9687 31.983 18.96C31.983 18.9513 31.983 18.9427 31.983 18.934C31.983 18.9253 31.983 18.9166 31.983 18.9078C31.983 18.8991 31.983 18.8904 31.983 18.8816C31.983 18.8729 31.983 18.8641 31.983 18.8553C31.983 18.8465 31.983 18.8377 31.983 18.8289C31.983 18.8201 31.983 18.8113 31.983 18.8025C31.983 18.7936 31.983 18.7848 31.983 18.7759C31.983 18.767 31.983 18.7582 31.983 18.7493C31.983 18.7404 31.983 18.7315 31.983 18.7225C31.983 18.7136 31.983 18.7047 31.983 18.6957C31.983 18.6868 31.983 18.6778 31.983 18.6688C31.983 18.6599 31.983 18.6509 31.983 18.6419C31.983 18.6329 31.983 18.6239 31.983 18.6148C31.983 18.6058 31.983 18.5968 31.983 18.5877C31.983 18.5787 31.983 18.5696 31.983 18.5605C31.983 18.5514 31.983 18.5423 31.983 18.5332C31.983 18.5241 31.983 18.515 31.983 18.5059C31.983 18.4968 31.983 18.4876 31.983 18.4785C31.983 18.4693 31.983 18.4601 31.983 18.451C31.983 18.4418 31.983 18.4326 31.983 18.4234C31.983 18.4142 31.983 18.405 31.983 18.3958C31.983 18.3865 31.983 18.3773 31.983 18.368C31.983 18.3588 31.983 18.3495 31.983 18.3403C31.983 18.331 31.983 18.3217 31.983 18.3124C31.983 18.3031 31.983 18.2938 31.983 18.2845C31.983 18.2752 31.983 18.2658 31.983 18.2565C31.983 18.2472 31.983 18.2378 31.983 18.2285C31.983 18.2191 31.983 18.2097 31.983 18.2003C31.983 18.191 31.983 18.1816 31.983 18.1722C31.983 18.1628 31.983 18.1533 31.983 18.1439C31.983 18.1345 31.983 18.1251 31.983 18.1156C31.983 18.1062 31.983 18.0967 31.983 18.0872C31.983 18.0778 31.983 18.0683 31.983 18.0588C31.983 18.0493 31.983 18.0398 31.983 18.0303C31.983 18.0208 31.983 18.0113 31.983 18.0018C31.983 17.9922 31.983 17.9827 31.983 17.9732C31.983 17.9636 31.983 17.9541 31.983 17.9445C31.983 17.9349 31.983 17.9254 31.983 17.9158C31.983 17.9062 31.983 17.8966 31.983 17.887C31.983 17.8774 31.983 17.8678 31.983 17.8582C31.983 17.8486 31.983 17.8389 31.983 17.8293C31.983 17.8197 31.983 17.81 31.983 17.8004C31.983 17.7907 31.983 17.7811 31.983 17.7714C31.983 17.7617 31.983 17.752 31.983 17.7424C31.983 17.7327 31.983 17.723 31.983 17.7133C31.983 17.7036 31.983 17.6939 31.983 17.6841C31.983 17.6744 31.983 17.6647 31.983 17.655C31.983 17.6452 31.983 17.6355 31.983 17.6257C31.983 17.616 31.983 17.6062 31.983 17.5965C31.983 17.5867 31.983 17.5769 31.983 17.5671C31.983 17.5574 31.983 17.5476 31.983 17.5378C31.983 17.528 31.983 17.5182 31.983 17.5084C31.983 17.4986 31.983 17.4888 31.983 17.4789C31.983 17.4691 31.983 17.4593 31.983 17.4494C31.983 17.4396 31.983 17.4298 31.983 17.4199C31.983 17.4101 31.983 17.4002 31.983 17.3903C31.983 17.3805 31.983 17.3706 31.983 17.3607C31.983 17.3509 31.983 17.341 31.983 17.3311C31.983 17.3212 31.983 17.3113 31.983 17.3014C31.983 17.2915 31.983 17.2816 31.983 17.2717C31.983 17.2618 31.983 17.2518 31.983 17.2419C31.983 17.232 31.983 17.2221 31.983 17.2121C31.983 17.2022 31.983 17.1923 31.983 17.1823C31.983 17.1724 31.983 17.1624 31.983 17.1525C31.983 17.1425 31.983 17.1325 31.983 17.1226C31.983 17.1126 31.983 17.1026 31.983 17.0927C31.983 17.0827 31.983 17.0727 31.983 17.0627C31.983 17.0527 31.983 17.0427 31.983 17.0327C31.983 17.0227 31.983 17.0127 31.983 17.0027C31.983 16.9927 31.983 16.9827 31.983 16.9727C31.983 16.9627 31.983 16.9527 31.983 16.9426C31.983 16.9326 31.983 16.9226 31.983 16.9126C31.983 16.9025 31.983 16.8925 31.983 16.8825C31.983 16.8724 31.983 16.8624 31.983 16.8523C31.983 16.8423 31.983 16.8322 31.983 16.8222C31.983 16.8121 31.983 16.8021 31.983 16.792C31.983 16.782 31.983 16.7719 31.983 16.7618C31.983 16.7518 31.983 16.7417 31.983 16.7316C31.983 16.7215 31.983 16.7115 31.983 16.7014C31.983 16.6913 31.983 16.6812 31.983 16.6711C31.983 16.661 31.983 16.651 31.983 16.6409C31.983 16.6308 31.983 16.6207 31.983 16.6106C31.983 16.6005 31.983 16.5904 31.983 16.5803C31.983 16.5702 31.983 16.5601 31.983 16.55C31.983 16.5399 31.983 16.5298 31.983 16.5197C31.983 16.5095 31.983 16.4994 31.983 16.4893C31.983 16.4792 31.983 16.4691 31.983 16.459C31.983 16.4489 31.983 16.4387 31.983 16.4286C31.983 16.4185 31.983 16.4084 31.983 16.3982C31.983 16.3881 31.983 16.378 31.983 16.3679C31.983 16.3577 31.983 16.3476 31.983 16.3375C31.983 16.3274 31.983 16.3172 31.983 16.3071C31.983 16.297 31.983 16.2868 31.983 16.2767C31.983 16.2666 31.983 16.2564 31.983 16.2463C31.983 16.2362 31.983 16.226 31.983 16.2159C31.983 16.2058 31.983 16.1956 31.983 16.1855C31.983 16.1753 31.983 16.1652 31.983 16.1551C31.983 16.1449 31.983 16.1348 31.983 16.1247C31.983 16.1145 31.983 16.1044 31.983 16.0942C31.983 16.0841 31.983 16.074 31.983 16.0638C31.983 16.0537 31.983 16.0436 31.983 16.0334C31.983 16.0233 31.983 16.0131 31.983 16.003C31.983 15.9929 31.983 15.9827 31.983 15.9726C31.983 15.9625 31.983 15.9523 31.983 15.9422C31.983 15.9321 31.983 15.9219 31.983 15.9118C31.983 15.9017 31.983 15.8915 31.983 15.8814C31.983 15.8713 31.983 15.8611 31.983 15.851C31.983 15.8409 31.983 15.8308 31.983 15.8206C31.983 15.8105 31.983 15.8004 31.983 15.7903C31.983 15.7802 31.983 15.77 31.983 15.7599C31.983 15.7498 31.983 15.7397 31.983 15.7296C31.983 15.7195 31.983 15.7093 31.983 15.6992C31.983 15.6891 31.983 15.679 31.983 15.6689C31.983 15.6588 31.983 15.6487 31.983 15.6386C31.983 15.6285 31.983 15.6184 31.983 15.6083C31.983 15.5982 31.983 15.5881 31.983 15.578C31.983 15.5679 31.983 15.5578 31.983 15.5477C31.983 15.5377 31.983 15.5276 31.983 15.5175C31.983 15.5074 31.983 15.4973 31.983 15.4873C31.983 15.4772 31.983 15.4671 31.983 15.457C31.983 15.447 31.983 15.4369 31.983 15.4268C31.983 15.4168 31.983 15.4067 31.983 15.3967C31.983 15.3866 31.983 15.3766 31.983 15.3665C31.983 15.3565 31.983 15.3464 31.983 15.3364C31.983 15.3264 31.983 15.3163 31.983 15.3063C31.983 15.2963 31.983 15.2862 31.983 15.2762C31.983 15.2662 31.983 15.2562 31.983 15.2461C31.983 15.2361 31.983 15.2261 31.983 15.2161C31.983 15.2061 31.983 15.1961 31.983 15.1861C31.983 15.1761 31.983 15.1661 31.983 15.1561C31.983 15.1461 31.983 15.1362 31.983 15.1262C31.983 15.1162 31.983 15.1062 31.983 15.0963C31.983 15.0863 31.983 15.0763 31.983 15.0664C31.983 15.0564 31.983 15.0465 31.983 15.0365C31.983 15.0266 31.983 15.0166 31.983 15.0067C31.983 14.9967 31.983 14.9868 31.983 14.9769C31.983 14.967 31.983 14.957 31.983 14.9471C31.983 14.9372 31.983 14.9273 31.983 14.9174C31.983 14.9075 31.983 14.8976 31.983 14.8877C31.983 14.8778 31.983 14.8679 31.983 14.8581C31.983 14.8482 31.983 14.8383 31.983 14.8285C31.983 14.8186 31.983 14.8087 31.983 14.7989C31.983 14.789 31.983 14.7792 31.983 14.7693C31.983 14.7595 31.983 14.7497 31.983 14.7398C31.983 14.73 31.983 14.7202 31.983 14.7104C31.983 14.7006 31.983 14.6908 31.983 14.681C31.983 14.6712 31.983 14.6614 31.983 14.6516C31.983 14.6418 31.983 14.6321 31.983 14.6223C31.983 14.6125 31.983 14.6028 31.983 14.593C31.983 14.5833 31.983 14.5735 31.983 14.5638C31.983 14.554 31.983 14.5443 31.983 14.5346C31.983 14.5249 31.983 14.5152 31.983 14.5055C31.983 14.4957 31.983 14.486 31.983 14.4764C31.983 14.4667 31.983 14.457 31.983 14.4473C31.983 14.4376 31.983 14.428 31.983 14.4183C31.983 14.4087 31.983 14.399 31.983 14.3894C31.983 14.3798 31.983 14.3701 31.983 14.3605C31.983 14.3509 31.983 14.3413 31.983 14.3317C31.983 14.3221 31.983 14.3125 31.983 14.3029C31.983 14.2933 31.983 14.2837 31.983 14.2742C31.983 14.2646 31.983 14.255 31.983 14.2455C31.983 14.236 31.983 14.2264 31.983 14.2169C31.983 14.2074 31.983 14.1978 31.983 14.1883C31.983 14.1788 31.983 14.1693 31.983 14.1598C31.983 14.1503 31.983 14.1409 31.983 14.1314C31.983 14.1219 31.983 14.1125 31.983 14.103C31.983 14.0936 31.983 14.0841 31.983 14.0747C31.983 14.0653 31.983 14.0559 31.983 14.0465C31.983 14.0371 31.983 14.0277 31.983 14.0183C31.983 14.0089 31.983 13.9995 31.983 13.9901C31.983 13.9808 31.983 13.9714 31.983 13.9621C31.983 13.9527 31.983 13.9434 31.983 13.9341C31.983 13.9248 31.983 13.9155 31.983 13.9062C31.983 13.8969 31.983 13.8876 31.983 13.8783C31.983 13.869 31.983 13.8598 31.983 13.8505C31.983 13.8413 31.983 13.832 31.983 13.8228C31.983 13.8136 31.983 13.8044 31.983 13.7951C31.983 13.7859 31.983 13.7767 31.983 13.7676C31.983 13.7584 31.983 13.7492 31.983 13.7401C31.983 13.7309 31.983 13.7218 31.983 13.7126C31.983 13.7035 31.983 13.6944 31.983 13.6853C31.983 13.6762 31.983 13.6671 31.983 13.658C31.983 13.6489 31.983 13.6398 31.983 13.6308C31.983 13.6217 31.983 13.6127 31.983 13.6036C31.983 13.5946 31.983 13.5856 31.983 13.5766C31.983 13.5676 31.983 13.5586 31.983 13.5496C31.983 13.5406 31.983 13.5317 31.983 13.5227C31.983 13.5138 31.983 13.5048 31.983 13.4959C31.983 13.487 31.983 13.4781 31.983 13.4692C31.983 13.4603 31.983 13.4514 31.983 13.4425C31.983 13.4336 31.983 13.4248 31.983 13.4159C31.983 13.4071 31.983 13.3983 31.983 13.3895C31.983 13.3806 31.983 13.3718 31.983 13.3631C31.983 13.3543 31.983 13.3455 31.983 13.3368C31.983 13.328 31.983 13.3193 31.983 13.3105C31.983 13.3018 31.983 13.2931 31.983 13.2844C31.983 13.2757 31.983 13.267 31.983 13.2583C31.983 13.2497 31.983 13.241 31.983 13.2324C31.983 13.2237 31.983 13.2151 31.983 13.2065C31.983 13.1979 31.983 13.1893 31.983 13.1807C31.983 13.1721 31.983 13.1636 31.983 13.155C31.983 13.1465 31.983 13.138 31.983 13.1294C31.983 13.1209 31.983 13.1124 31.983 13.1039C31.983 13.0955 31.983 13.087 31.983 13.0785C31.983 13.0701 31.983 13.0617 31.983 13.0532C31.983 13.0448 31.983 13.0364 31.983 13.028C31.983 13.0196 31.983 13.0113 31.983 13.0029C31.983 12.9946 31.983 12.9862 31.983 12.9779C31.983 12.9696 31.983 12.9613 31.983 12.953C31.983 12.9447 31.983 12.9364 31.983 12.9282C31.983 12.9199 31.983 12.9117 31.983 12.9034C31.983 12.8952 31.983 12.887 31.983 12.8788C31.983 12.8707 31.983 12.8625 31.983 12.8543C31.983 12.8462 31.983 12.838 31.983 12.8299C31.983 12.8218 31.983 12.8137 31.983 12.8056C31.983 12.7975 31.983 12.7895 31.983 12.7814C31.983 12.7734 31.983 12.7654 31.983 12.7573C31.983 12.7493 31.983 12.7413 31.983 12.7334C31.983 12.7254 31.983 12.7174 31.983 12.7095C31.983 12.7016 31.983 12.6936 31.983 12.6857C31.983 12.6778 31.983 12.67 31.983 12.6621C31.983 12.6542 31.983 12.6464 31.983 12.6386C31.983 12.6307 31.983 12.6229 31.983 12.6151C31.983 12.6073 31.983 12.5996 31.983 12.5918C31.983 12.5841 31.983 12.5763 31.983 12.5686C31.983 12.5609 31.983 12.5532 31.983 12.5455C31.983 12.5379 31.983 12.5302 31.983 12.5226C31.983 12.5149 31.983 12.5073 31.983 12.4997C31.983 12.4921 31.983 12.4845 31.983 12.477C31.983 12.4694 31.983 12.4619 31.983 12.4544C31.983 12.4468 31.983 12.4393 31.983 12.4319C31.983 12.4244 31.983 12.4169 31.983 12.4095C31.983 12.4021 31.983 12.3946 31.983 12.3872C31.983 12.3798 31.983 12.3725 31.983 12.3651C31.983 12.3578 31.983 12.3504 31.983 12.3431C31.983 12.3358 31.983 12.3285 31.983 12.3212C31.983 12.314 31.983 12.3067 31.983 12.2995C31.983 12.2922 31.983 12.285 31.983 12.2778C31.983 12.2706 31.983 12.2635 31.983 12.2563C31.983 12.2492 31.983 12.2421 31.983 12.235C31.983 12.2278 31.983 12.2208 31.983 12.2137C31.983 12.2066 31.983 12.1996 31.983 12.1926C31.983 12.1856 31.983 12.1786 31.983 12.1716C31.983 12.1646 31.983 12.1577 31.983 12.1507C31.983 12.1438 31.983 12.1369 31.983 12.13C31.983 12.1231 31.983 12.1163 31.983 12.1094C31.983 12.1026 31.983 12.0958 31.983 12.089C31.983 12.0822 31.983 12.0754 31.983 12.0686C31.983 12.0619 31.983 12.0552 31.983 12.0485C31.983 12.0417 31.983 12.0351 31.983 12.0284C31.983 12.0217 31.983 12.0151 31.983 12.0085C31.983 12.0019 31.983 11.9953 31.983 11.9887C31.983 11.9822 31.983 11.9756 31.983 11.9691C31.983 11.9626 31.983 11.9561 31.983 11.9496C31.983 11.9431 31.983 11.9367 31.983 11.9302C31.983 11.9238 31.983 11.9174 31.983 11.911C31.983 11.9047 31.983 11.8983 31.983 11.892C31.983 11.8856 31.983 11.8793 31.983 11.873C31.983 11.8668 31.983 11.8605 31.983 11.8543C31.983 11.848 31.983 11.8418 31.983 11.8356C31.983 11.8295 31.983 11.8233 31.983 11.8172C31.983 11.811 31.983 11.8049 31.983 11.7988C31.983 11.7927 31.983 11.7867 31.983 11.7806C31.983 11.7746 31.983 11.7686 31.983 11.7626C31.983 11.7566 31.983 11.7506 31.983 11.7447C31.983 11.7388 31.983 11.7329 31.983 11.727C31.983 11.7211 31.983 11.7152 31.983 11.7094C31.983 11.7035 31.983 11.6977 31.983 11.692C31.983 11.6862 31.983 11.6804 31.983 11.6747C31.983 11.6689 31.983 11.6632 31.983 11.6576C31.983 11.6519 31.983 11.6462 31.983 11.6406C31.983 11.635 31.983 11.6294 31.983 11.6238C31.983 11.6182 31.983 11.6127 31.983 11.6071C31.983 11.6016 31.983 11.5961 31.983 11.5906C31.983 11.5852 31.983 11.5797 31.983 11.5743C31.983 11.5689 31.983 11.5635 31.983 11.5581C31.983 11.5528 31.983 11.5474 31.983 11.5421C31.983 11.5368 31.983 11.5315 31.983 11.5263C31.983 11.521 31.983 11.5158 31.983 11.5106C31.983 11.5054 31.983 11.5002 31.983 11.4951C31.983 11.4899 31.983 11.4848 31.983 11.4797C31.983 11.4746 31.983 11.4696 31.983 11.4645C31.983 11.4595 31.983 11.4545 31.983 11.4495C31.983 11.4445 31.983 11.4396 31.983 11.4347C31.983 11.4297 31.983 11.4248 31.983 11.42C31.983 11.4151 31.983 11.4103 31.983 11.4055C31.983 11.4006 31.983 11.3959 31.983 11.3911C31.983 11.3864 31.983 11.3816 31.983 11.3769C31.983 11.3722 31.983 11.3676 31.983 11.3629C31.983 11.3583 31.983 11.3537 31.983 11.3491C31.983 11.3445 31.983 11.34 31.983 11.3354C31.983 11.3309 31.983 11.3264 31.983 11.322C31.983 11.3175 31.983 11.3131 31.983 11.3087C31.983 11.3043 31.983 11.2999 31.983 11.2955C31.983 11.2912 31.983 11.2869 31.983 11.2826C31.983 11.2783 31.983 11.274 31.983 11.2698C31.983 11.2656 31.983 11.2614 31.983 11.2572C31.983 11.2531 31.983 11.2489 31.983 11.2448C31.983 11.2407 31.983 11.2366 31.983 11.2326C31.983 11.2285 31.983 11.2245 31.983 11.2205C31.983 11.2166 31.983 11.2126 31.983 11.2087C31.983 11.2048 31.983 11.2009 31.983 11.197C31.983 11.1931 31.983 11.1893 31.983 11.1855C31.983 11.1817 31.983 11.1779 31.983 11.1742C31.983 11.1705 31.983 11.1668 31.983 11.1631C31.983 11.1594 31.983 11.1558 31.983 11.1522C31.983 11.1485 31.983 11.145 31.983 11.1414C31.983 11.1379 31.983 11.1343 31.983 11.1309C31.983 11.1274 31.983 11.1239 31.983 11.1205C31.983 11.1171 31.983 11.1137 31.983 11.1103C31.983 11.107 31.983 11.1036 31.983 11.1003C31.983 11.097 31.983 11.0938 31.983 11.0906C31.983 11.0873 31.983 11.0841 31.983 11.081C31.983 11.0778 31.983 11.0747 31.983 11.0716C31.983 11.0685 31.983 11.0654 31.983 11.0624C31.983 11.0593 31.983 11.0563 31.983 11.0534C31.983 11.0504 31.983 11.0475 31.983 11.0445C31.983 11.0416 31.983 11.0388 31.983 11.0359C31.983 11.0331 31.983 11.0303 31.983 11.0275C31.983 11.0248 31.983 11.022 31.983 11.0193C31.983 11.0166 31.983 11.014 31.983 11.0113C31.983 11.0087 31.983 11.0061 31.983 11.0035C31.983 11.0009 31.983 10.9984 31.983 10.9959C31.983 10.9934 31.983 10.991 31.983 10.9885C31.983 10.9861 31.983 10.9837 31.983 10.9813C31.983 10.979 31.983 10.9766 31.983 10.9743C31.983 10.9721 31.983 10.9698 31.983 10.9676C31.983 10.9653 31.983 10.9632 31.983 10.961C31.983 10.9588 31.983 10.9567 31.983 10.9546C31.983 10.9525 31.983 10.9505 31.983 10.9485C31.983 10.9465 31.983 10.9445 31.983 10.9425C31.983 10.9406 31.983 10.9387 31.983 10.9368C31.983 10.9349 31.983 10.9331 31.983 10.9313C31.983 10.9295 31.983 10.9277 31.983 10.926C31.983 10.9243 31.983 10.9226 31.983 10.9209C31.983 10.9192 31.983 10.9176 31.983 10.916C31.983 10.9144 31.983 10.9129 31.983 10.9114C31.983 10.9099 31.983 10.9084 31.983 10.9069C31.983 10.9055 31.983 10.9041 31.983 10.9027C31.983 10.9013 31.983 10.9 31.983 10.8987C31.983 10.8974 31.983 10.8961 31.983 10.8949C31.983 10.8937 31.983 10.8925 31.983 10.8913C31.983 10.8902 31.983 10.8891 31.983 10.888C31.983 10.8869 31.983 10.8859 31.983 10.8849C31.983 10.8839 31.983 10.8829 31.983 10.882C31.983 10.8811 31.983 10.8802 31.983 10.8793C31.983 10.8785 31.983 10.8776 31.983 10.8769C31.983 10.8761 31.983 10.8753 31.983 10.8746C31.983 10.8739 31.983 10.8733 31.983 10.8726C31.983 10.872 31.983 10.8714 31.983 10.8709C31.983 10.8703 31.983 10.8698 31.983 10.8693C31.983 10.8689 31.983 10.8684 31.983 10.868H11.983C11.983 10.8684 11.983 10.8689 11.983 10.8693C11.983 10.8698 11.983 10.8703 11.983 10.8709C11.983 10.8714 11.983 10.872 11.983 10.8726C11.983 10.8733 11.983 10.8739 11.983 10.8746C11.983 10.8753 11.983 10.8761 11.983 10.8769C11.983 10.8776 11.983 10.8785 11.983 10.8793C11.983 10.8802 11.983 10.8811 11.983 10.882C11.983 10.8829 11.983 10.8839 11.983 10.8849C11.983 10.8859 11.983 10.8869 11.983 10.888C11.983 10.8891 11.983 10.8902 11.983 10.8913C11.983 10.8925 11.983 10.8937 11.983 10.8949C11.983 10.8961 11.983 10.8974 11.983 10.8987C11.983 10.9 11.983 10.9013 11.983 10.9027C11.983 10.9041 11.983 10.9055 11.983 10.9069C11.983 10.9084 11.983 10.9099 11.983 10.9114C11.983 10.9129 11.983 10.9144 11.983 10.916C11.983 10.9176 11.983 10.9192 11.983 10.9209C11.983 10.9226 11.983 10.9243 11.983 10.926C11.983 10.9277 11.983 10.9295 11.983 10.9313C11.983 10.9331 11.983 10.9349 11.983 10.9368C11.983 10.9387 11.983 10.9406 11.983 10.9425C11.983 10.9445 11.983 10.9465 11.983 10.9485C11.983 10.9505 11.983 10.9525 11.983 10.9546C11.983 10.9567 11.983 10.9588 11.983 10.961C11.983 10.9632 11.983 10.9653 11.983 10.9676C11.983 10.9698 11.983 10.9721 11.983 10.9743C11.983 10.9766 11.983 10.979 11.983 10.9813C11.983 10.9837 11.983 10.9861 11.983 10.9885C11.983 10.991 11.983 10.9934 11.983 10.9959C11.983 10.9984 11.983 11.0009 11.983 11.0035C11.983 11.0061 11.983 11.0087 11.983 11.0113C11.983 11.014 11.983 11.0166 11.983 11.0193C11.983 11.022 11.983 11.0248 11.983 11.0275C11.983 11.0303 11.983 11.0331 11.983 11.0359C11.983 11.0388 11.983 11.0416 11.983 11.0445C11.983 11.0475 11.983 11.0504 11.983 11.0534C11.983 11.0563 11.983 11.0593 11.983 11.0624C11.983 11.0654 11.983 11.0685 11.983 11.0716C11.983 11.0747 11.983 11.0778 11.983 11.081C11.983 11.0841 11.983 11.0873 11.983 11.0906C11.983 11.0938 11.983 11.097 11.983 11.1003C11.983 11.1036 11.983 11.107 11.983 11.1103C11.983 11.1137 11.983 11.1171 11.983 11.1205C11.983 11.1239 11.983 11.1274 11.983 11.1309C11.983 11.1343 11.983 11.1379 11.983 11.1414C11.983 11.145 11.983 11.1485 11.983 11.1522C11.983 11.1558 11.983 11.1594 11.983 11.1631C11.983 11.1668 11.983 11.1705 11.983 11.1742C11.983 11.1779 11.983 11.1817 11.983 11.1855C11.983 11.1893 11.983 11.1931 11.983 11.197C11.983 11.2009 11.983 11.2048 11.983 11.2087C11.983 11.2126 11.983 11.2166 11.983 11.2205C11.983 11.2245 11.983 11.2285 11.983 11.2326C11.983 11.2366 11.983 11.2407 11.983 11.2448C11.983 11.2489 11.983 11.2531 11.983 11.2572C11.983 11.2614 11.983 11.2656 11.983 11.2698C11.983 11.274 11.983 11.2783 11.983 11.2826C11.983 11.2869 11.983 11.2912 11.983 11.2955C11.983 11.2999 11.983 11.3043 11.983 11.3087C11.983 11.3131 11.983 11.3175 11.983 11.322C11.983 11.3264 11.983 11.3309 11.983 11.3354C11.983 11.34 11.983 11.3445 11.983 11.3491C11.983 11.3537 11.983 11.3583 11.983 11.3629C11.983 11.3676 11.983 11.3722 11.983 11.3769C11.983 11.3816 11.983 11.3864 11.983 11.3911C11.983 11.3959 11.983 11.4006 11.983 11.4055C11.983 11.4103 11.983 11.4151 11.983 11.42C11.983 11.4248 11.983 11.4297 11.983 11.4347C11.983 11.4396 11.983 11.4445 11.983 11.4495C11.983 11.4545 11.983 11.4595 11.983 11.4645C11.983 11.4696 11.983 11.4746 11.983 11.4797C11.983 11.4848 11.983 11.4899 11.983 11.4951C11.983 11.5002 11.983 11.5054 11.983 11.5106C11.983 11.5158 11.983 11.521 11.983 11.5263C11.983 11.5315 11.983 11.5368 11.983 11.5421C11.983 11.5474 11.983 11.5528 11.983 11.5581C11.983 11.5635 11.983 11.5689 11.983 11.5743C11.983 11.5797 11.983 11.5852 11.983 11.5906C11.983 11.5961 11.983 11.6016 11.983 11.6071C11.983 11.6127 11.983 11.6182 11.983 11.6238C11.983 11.6294 11.983 11.635 11.983 11.6406C11.983 11.6462 11.983 11.6519 11.983 11.6576C11.983 11.6632 11.983 11.6689 11.983 11.6747C11.983 11.6804 11.983 11.6862 11.983 11.692C11.983 11.6977 11.983 11.7035 11.983 11.7094C11.983 11.7152 11.983 11.7211 11.983 11.727C11.983 11.7329 11.983 11.7388 11.983 11.7447C11.983 11.7506 11.983 11.7566 11.983 11.7626C11.983 11.7686 11.983 11.7746 11.983 11.7806C11.983 11.7867 11.983 11.7927 11.983 11.7988C11.983 11.8049 11.983 11.811 11.983 11.8172C11.983 11.8233 11.983 11.8295 11.983 11.8356C11.983 11.8418 11.983 11.848 11.983 11.8543C11.983 11.8605 11.983 11.8668 11.983 11.873C11.983 11.8793 11.983 11.8856 11.983 11.892C11.983 11.8983 11.983 11.9047 11.983 11.911C11.983 11.9174 11.983 11.9238 11.983 11.9302C11.983 11.9367 11.983 11.9431 11.983 11.9496C11.983 11.9561 11.983 11.9626 11.983 11.9691C11.983 11.9756 11.983 11.9822 11.983 11.9887C11.983 11.9953 11.983 12.0019 11.983 12.0085C11.983 12.0151 11.983 12.0217 11.983 12.0284C11.983 12.0351 11.983 12.0417 11.983 12.0485C11.983 12.0552 11.983 12.0619 11.983 12.0686C11.983 12.0754 11.983 12.0822 11.983 12.089C11.983 12.0958 11.983 12.1026 11.983 12.1094C11.983 12.1163 11.983 12.1231 11.983 12.13C11.983 12.1369 11.983 12.1438 11.983 12.1507C11.983 12.1577 11.983 12.1646 11.983 12.1716C11.983 12.1786 11.983 12.1856 11.983 12.1926C11.983 12.1996 11.983 12.2066 11.983 12.2137C11.983 12.2208 11.983 12.2278 11.983 12.235C11.983 12.2421 11.983 12.2492 11.983 12.2563C11.983 12.2635 11.983 12.2706 11.983 12.2778C11.983 12.285 11.983 12.2922 11.983 12.2995C11.983 12.3067 11.983 12.314 11.983 12.3212C11.983 12.3285 11.983 12.3358 11.983 12.3431C11.983 12.3504 11.983 12.3578 11.983 12.3651C11.983 12.3725 11.983 12.3798 11.983 12.3872C11.983 12.3946 11.983 12.4021 11.983 12.4095C11.983 12.4169 11.983 12.4244 11.983 12.4319C11.983 12.4393 11.983 12.4468 11.983 12.4544C11.983 12.4619 11.983 12.4694 11.983 12.477C11.983 12.4845 11.983 12.4921 11.983 12.4997C11.983 12.5073 11.983 12.5149 11.983 12.5226C11.983 12.5302 11.983 12.5379 11.983 12.5455C11.983 12.5532 11.983 12.5609 11.983 12.5686C11.983 12.5763 11.983 12.5841 11.983 12.5918C11.983 12.5996 11.983 12.6073 11.983 12.6151C11.983 12.6229 11.983 12.6307 11.983 12.6386C11.983 12.6464 11.983 12.6542 11.983 12.6621C11.983 12.67 11.983 12.6778 11.983 12.6857C11.983 12.6936 11.983 12.7016 11.983 12.7095C11.983 12.7174 11.983 12.7254 11.983 12.7334C11.983 12.7413 11.983 12.7493 11.983 12.7573C11.983 12.7654 11.983 12.7734 11.983 12.7814C11.983 12.7895 11.983 12.7975 11.983 12.8056C11.983 12.8137 11.983 12.8218 11.983 12.8299C11.983 12.838 11.983 12.8462 11.983 12.8543C11.983 12.8625 11.983 12.8707 11.983 12.8788C11.983 12.887 11.983 12.8952 11.983 12.9034C11.983 12.9117 11.983 12.9199 11.983 12.9282C11.983 12.9364 11.983 12.9447 11.983 12.953C11.983 12.9613 11.983 12.9696 11.983 12.9779C11.983 12.9862 11.983 12.9946 11.983 13.0029C11.983 13.0113 11.983 13.0196 11.983 13.028C11.983 13.0364 11.983 13.0448 11.983 13.0532C11.983 13.0617 11.983 13.0701 11.983 13.0785C11.983 13.087 11.983 13.0955 11.983 13.1039C11.983 13.1124 11.983 13.1209 11.983 13.1294C11.983 13.138 11.983 13.1465 11.983 13.155C11.983 13.1636 11.983 13.1721 11.983 13.1807C11.983 13.1893 11.983 13.1979 11.983 13.2065C11.983 13.2151 11.983 13.2237 11.983 13.2324C11.983 13.241 11.983 13.2497 11.983 13.2583C11.983 13.267 11.983 13.2757 11.983 13.2844C11.983 13.2931 11.983 13.3018 11.983 13.3105C11.983 13.3193 11.983 13.328 11.983 13.3368C11.983 13.3455 11.983 13.3543 11.983 13.3631C11.983 13.3718 11.983 13.3806 11.983 13.3895C11.983 13.3983 11.983 13.4071 11.983 13.4159C11.983 13.4248 11.983 13.4336 11.983 13.4425C11.983 13.4514 11.983 13.4603 11.983 13.4692C11.983 13.4781 11.983 13.487 11.983 13.4959C11.983 13.5048 11.983 13.5138 11.983 13.5227C11.983 13.5317 11.983 13.5406 11.983 13.5496C11.983 13.5586 11.983 13.5676 11.983 13.5766C11.983 13.5856 11.983 13.5946 11.983 13.6036C11.983 13.6127 11.983 13.6217 11.983 13.6308C11.983 13.6398 11.983 13.6489 11.983 13.658C11.983 13.6671 11.983 13.6762 11.983 13.6853C11.983 13.6944 11.983 13.7035 11.983 13.7126C11.983 13.7218 11.983 13.7309 11.983 13.7401C11.983 13.7492 11.983 13.7584 11.983 13.7676C11.983 13.7767 11.983 13.7859 11.983 13.7951C11.983 13.8044 11.983 13.8136 11.983 13.8228C11.983 13.832 11.983 13.8413 11.983 13.8505C11.983 13.8598 11.983 13.869 11.983 13.8783C11.983 13.8876 11.983 13.8969 11.983 13.9062C11.983 13.9155 11.983 13.9248 11.983 13.9341C11.983 13.9434 11.983 13.9527 11.983 13.9621C11.983 13.9714 11.983 13.9808 11.983 13.9901C11.983 13.9995 11.983 14.0089 11.983 14.0183C11.983 14.0277 11.983 14.0371 11.983 14.0465C11.983 14.0559 11.983 14.0653 11.983 14.0747C11.983 14.0841 11.983 14.0936 11.983 14.103C11.983 14.1125 11.983 14.1219 11.983 14.1314C11.983 14.1409 11.983 14.1503 11.983 14.1598C11.983 14.1693 11.983 14.1788 11.983 14.1883C11.983 14.1978 11.983 14.2074 11.983 14.2169C11.983 14.2264 11.983 14.236 11.983 14.2455C11.983 14.255 11.983 14.2646 11.983 14.2742C11.983 14.2837 11.983 14.2933 11.983 14.3029C11.983 14.3125 11.983 14.3221 11.983 14.3317C11.983 14.3413 11.983 14.3509 11.983 14.3605C11.983 14.3701 11.983 14.3798 11.983 14.3894C11.983 14.399 11.983 14.4087 11.983 14.4183C11.983 14.428 11.983 14.4376 11.983 14.4473C11.983 14.457 11.983 14.4667 11.983 14.4764C11.983 14.486 11.983 14.4957 11.983 14.5055C11.983 14.5152 11.983 14.5249 11.983 14.5346C11.983 14.5443 11.983 14.554 11.983 14.5638C11.983 14.5735 11.983 14.5833 11.983 14.593C11.983 14.6028 11.983 14.6125 11.983 14.6223C11.983 14.6321 11.983 14.6418 11.983 14.6516C11.983 14.6614 11.983 14.6712 11.983 14.681C11.983 14.6908 11.983 14.7006 11.983 14.7104C11.983 14.7202 11.983 14.73 11.983 14.7398C11.983 14.7497 11.983 14.7595 11.983 14.7693C11.983 14.7792 11.983 14.789 11.983 14.7989C11.983 14.8087 11.983 14.8186 11.983 14.8285C11.983 14.8383 11.983 14.8482 11.983 14.8581C11.983 14.8679 11.983 14.8778 11.983 14.8877C11.983 14.8976 11.983 14.9075 11.983 14.9174C11.983 14.9273 11.983 14.9372 11.983 14.9471C11.983 14.957 11.983 14.967 11.983 14.9769C11.983 14.9868 11.983 14.9967 11.983 15.0067C11.983 15.0166 11.983 15.0266 11.983 15.0365C11.983 15.0465 11.983 15.0564 11.983 15.0664C11.983 15.0763 11.983 15.0863 11.983 15.0963C11.983 15.1062 11.983 15.1162 11.983 15.1262C11.983 15.1362 11.983 15.1461 11.983 15.1561C11.983 15.1661 11.983 15.1761 11.983 15.1861C11.983 15.1961 11.983 15.2061 11.983 15.2161C11.983 15.2261 11.983 15.2361 11.983 15.2461C11.983 15.2562 11.983 15.2662 11.983 15.2762C11.983 15.2862 11.983 15.2963 11.983 15.3063C11.983 15.3163 11.983 15.3264 11.983 15.3364C11.983 15.3464 11.983 15.3565 11.983 15.3665C11.983 15.3766 11.983 15.3866 11.983 15.3967C11.983 15.4067 11.983 15.4168 11.983 15.4268C11.983 15.4369 11.983 15.447 11.983 15.457C11.983 15.4671 11.983 15.4772 11.983 15.4873C11.983 15.4973 11.983 15.5074 11.983 15.5175C11.983 15.5276 11.983 15.5377 11.983 15.5477C11.983 15.5578 11.983 15.5679 11.983 15.578C11.983 15.5881 11.983 15.5982 11.983 15.6083C11.983 15.6184 11.983 15.6285 11.983 15.6386C11.983 15.6487 11.983 15.6588 11.983 15.6689C11.983 15.679 11.983 15.6891 11.983 15.6992C11.983 15.7093 11.983 15.7195 11.983 15.7296C11.983 15.7397 11.983 15.7498 11.983 15.7599C11.983 15.77 11.983 15.7802 11.983 15.7903C11.983 15.8004 11.983 15.8105 11.983 15.8206C11.983 15.8308 11.983 15.8409 11.983 15.851C11.983 15.8611 11.983 15.8713 11.983 15.8814C11.983 15.8915 11.983 15.9017 11.983 15.9118C11.983 15.9219 11.983 15.9321 11.983 15.9422C11.983 15.9523 11.983 15.9625 11.983 15.9726C11.983 15.9827 11.983 15.9929 11.983 16.003C11.983 16.0131 11.983 16.0233 11.983 16.0334C11.983 16.0436 11.983 16.0537 11.983 16.0638C11.983 16.074 11.983 16.0841 11.983 16.0942C11.983 16.1044 11.983 16.1145 11.983 16.1247C11.983 16.1348 11.983 16.1449 11.983 16.1551C11.983 16.1652 11.983 16.1753 11.983 16.1855C11.983 16.1956 11.983 16.2058 11.983 16.2159C11.983 16.226 11.983 16.2362 11.983 16.2463C11.983 16.2564 11.983 16.2666 11.983 16.2767C11.983 16.2868 11.983 16.297 11.983 16.3071C11.983 16.3172 11.983 16.3274 11.983 16.3375C11.983 16.3476 11.983 16.3577 11.983 16.3679C11.983 16.378 11.983 16.3881 11.983 16.3982C11.983 16.4084 11.983 16.4185 11.983 16.4286C11.983 16.4387 11.983 16.4489 11.983 16.459C11.983 16.4691 11.983 16.4792 11.983 16.4893C11.983 16.4994 11.983 16.5095 11.983 16.5197C11.983 16.5298 11.983 16.5399 11.983 16.55C11.983 16.5601 11.983 16.5702 11.983 16.5803C11.983 16.5904 11.983 16.6005 11.983 16.6106C11.983 16.6207 11.983 16.6308 11.983 16.6409C11.983 16.651 11.983 16.661 11.983 16.6711C11.983 16.6812 11.983 16.6913 11.983 16.7014C11.983 16.7115 11.983 16.7215 11.983 16.7316C11.983 16.7417 11.983 16.7518 11.983 16.7618C11.983 16.7719 11.983 16.782 11.983 16.792C11.983 16.8021 11.983 16.8121 11.983 16.8222C11.983 16.8322 11.983 16.8423 11.983 16.8523C11.983 16.8624 11.983 16.8724 11.983 16.8825C11.983 16.8925 11.983 16.9025 11.983 16.9126C11.983 16.9226 11.983 16.9326 11.983 16.9426C11.983 16.9527 11.983 16.9627 11.983 16.9727C11.983 16.9827 11.983 16.9927 11.983 17.0027C11.983 17.0127 11.983 17.0227 11.983 17.0327C11.983 17.0427 11.983 17.0527 11.983 17.0627C11.983 17.0727 11.983 17.0827 11.983 17.0927C11.983 17.1026 11.983 17.1126 11.983 17.1226C11.983 17.1325 11.983 17.1425 11.983 17.1525C11.983 17.1624 11.983 17.1724 11.983 17.1823C11.983 17.1923 11.983 17.2022 11.983 17.2121C11.983 17.2221 11.983 17.232 11.983 17.2419C11.983 17.2518 11.983 17.2618 11.983 17.2717C11.983 17.2816 11.983 17.2915 11.983 17.3014C11.983 17.3113 11.983 17.3212 11.983 17.3311C11.983 17.341 11.983 17.3509 11.983 17.3607C11.983 17.3706 11.983 17.3805 11.983 17.3903C11.983 17.4002 11.983 17.4101 11.983 17.4199C11.983 17.4298 11.983 17.4396 11.983 17.4494C11.983 17.4593 11.983 17.4691 11.983 17.4789C11.983 17.4888 11.983 17.4986 11.983 17.5084C11.983 17.5182 11.983 17.528 11.983 17.5378C11.983 17.5476 11.983 17.5574 11.983 17.5671C11.983 17.5769 11.983 17.5867 11.983 17.5965C11.983 17.6062 11.983 17.616 11.983 17.6257C11.983 17.6355 11.983 17.6452 11.983 17.655C11.983 17.6647 11.983 17.6744 11.983 17.6841C11.983 17.6939 11.983 17.7036 11.983 17.7133C11.983 17.723 11.983 17.7327 11.983 17.7424C11.983 17.752 11.983 17.7617 11.983 17.7714C11.983 17.7811 11.983 17.7907 11.983 17.8004C11.983 17.81 11.983 17.8197 11.983 17.8293C11.983 17.8389 11.983 17.8486 11.983 17.8582C11.983 17.8678 11.983 17.8774 11.983 17.887C11.983 17.8966 11.983 17.9062 11.983 17.9158C11.983 17.9254 11.983 17.9349 11.983 17.9445C11.983 17.9541 11.983 17.9636 11.983 17.9732C11.983 17.9827 11.983 17.9922 11.983 18.0018C11.983 18.0113 11.983 18.0208 11.983 18.0303C11.983 18.0398 11.983 18.0493 11.983 18.0588C11.983 18.0683 11.983 18.0778 11.983 18.0872C11.983 18.0967 11.983 18.1062 11.983 18.1156C11.983 18.1251 11.983 18.1345 11.983 18.1439C11.983 18.1533 11.983 18.1628 11.983 18.1722C11.983 18.1816 11.983 18.191 11.983 18.2003C11.983 18.2097 11.983 18.2191 11.983 18.2285C11.983 18.2378 11.983 18.2472 11.983 18.2565C11.983 18.2658 11.983 18.2752 11.983 18.2845C11.983 18.2938 11.983 18.3031 11.983 18.3124C11.983 18.3217 11.983 18.331 11.983 18.3403C11.983 18.3495 11.983 18.3588 11.983 18.368C11.983 18.3773 11.983 18.3865 11.983 18.3958C11.983 18.405 11.983 18.4142 11.983 18.4234C11.983 18.4326 11.983 18.4418 11.983 18.451C11.983 18.4601 11.983 18.4693 11.983 18.4785C11.983 18.4876 11.983 18.4968 11.983 18.5059C11.983 18.515 11.983 18.5241 11.983 18.5332C11.983 18.5423 11.983 18.5514 11.983 18.5605C11.983 18.5696 11.983 18.5787 11.983 18.5877C11.983 18.5968 11.983 18.6058 11.983 18.6148C11.983 18.6239 11.983 18.6329 11.983 18.6419C11.983 18.6509 11.983 18.6599 11.983 18.6688C11.983 18.6778 11.983 18.6868 11.983 18.6957C11.983 18.7047 11.983 18.7136 11.983 18.7225C11.983 18.7315 11.983 18.7404 11.983 18.7493C11.983 18.7582 11.983 18.767 11.983 18.7759C11.983 18.7848 11.983 18.7936 11.983 18.8025C11.983 18.8113 11.983 18.8201 11.983 18.8289C11.983 18.8377 11.983 18.8465 11.983 18.8553C11.983 18.8641 11.983 18.8729 11.983 18.8816C11.983 18.8904 11.983 18.8991 11.983 18.9078C11.983 18.9166 11.983 18.9253 11.983 18.934C11.983 18.9427 11.983 18.9513 11.983 18.96C11.983 18.9687 11.983 18.9773 11.983 18.986C11.983 18.9946 11.983 19.0032 11.983 19.0118C11.983 19.0204 11.983 19.029 11.983 19.0376C11.983 19.0462 11.983 19.0547 11.983 19.0633C11.983 19.0718 11.983 19.0803 11.983 19.0888C11.983 19.0973 11.983 19.1058 11.983 19.1143C11.983 19.1228 11.983 19.1313 11.983 19.1397C11.983 19.1482 11.983 19.1566 11.983 19.165C11.983 19.1734 11.983 19.1818 11.983 19.1902C11.983 19.1986 11.983 19.207 11.983 19.2153C11.983 19.2237 11.983 19.232 11.983 19.2403C11.983 19.2486 11.983 19.2569 11.983 19.2652C11.983 19.2735 11.983 19.2818 11.983 19.29C11.983 19.2983 11.983 19.3065 11.983 19.3147C11.983 19.3229 11.983 19.3311 11.983 19.3393C11.983 19.3475 11.983 19.3557 11.983 19.3638C11.983 19.372 11.983 19.3801 11.983 19.3882C11.983 19.3963 11.983 19.4044 11.983 19.4125C11.983 19.4206 11.983 19.4286 11.983 19.4367C11.983 19.4447 11.983 19.4527 11.983 19.4607C11.983 19.4687 11.983 19.4767 11.983 19.4847C11.983 19.4927 11.983 19.5006 11.983 19.5086C11.983 19.5165 11.983 19.5244 11.983 19.5323C11.983 19.5402 11.983 19.5481 11.983 19.5559C11.983 19.5638 11.983 19.5716 11.983 19.5795C11.983 19.5873 11.983 19.5951 11.983 19.6029C11.983 19.6107 11.983 19.6184 11.983 19.6262C11.983 19.6339 11.983 19.6417 11.983 19.6494C11.983 19.6571 11.983 19.6648 11.983 19.6724C11.983 19.6801 11.983 19.6878 11.983 19.6954C11.983 19.703 11.983 19.7106 11.983 19.7182C11.983 19.7258 11.983 19.7334 11.983 19.7409C11.983 19.7485 11.983 19.756 11.983 19.7635C11.983 19.771 11.983 19.7785 11.983 19.786C11.983 19.7935 11.983 19.8009 11.983 19.8084C11.983 19.8158 11.983 19.8232 11.983 19.8306C11.983 19.838 11.983 19.8454 11.983 19.8527C11.983 19.8601 11.983 19.8674 11.983 19.8747C11.983 19.882 11.983 19.8893 11.983 19.8966C11.983 19.9039 11.983 19.9111 11.983 19.9183C11.983 19.9256 11.983 19.9328 11.983 19.9399C11.983 19.9471 11.983 19.9543 11.983 19.9614C11.983 19.9686 11.983 19.9757 11.983 19.9828C11.983 19.9899 11.983 19.997 11.983 20.004C11.983 20.0111 11.983 20.0181 11.983 20.0251C11.983 20.0321 11.983 20.0391 11.983 20.0461C11.983 20.0531 11.983 20.06 11.983 20.0669C11.983 20.0739 11.983 20.0808 11.983 20.0877C11.983 20.0945 11.983 20.1014 11.983 20.1082C11.983 20.1151 11.983 20.1219 11.983 20.1287C11.983 20.1355 11.983 20.1422 11.983 20.149C11.983 20.1557 11.983 20.1624 11.983 20.1691C11.983 20.1758 11.983 20.1825 11.983 20.1892C11.983 20.1958 11.983 20.2025 11.983 20.2091C11.983 20.2157 11.983 20.2223 11.983 20.2288C11.983 20.2354 11.983 20.2419 11.983 20.2484C11.983 20.255 11.983 20.2614 11.983 20.2679C11.983 20.2744 11.983 20.2808 11.983 20.2872C11.983 20.2937 11.983 20.3001 11.983 20.3064C11.983 20.3128 11.983 20.3192 11.983 20.3255C11.983 20.3318 11.983 20.3381 11.983 20.3444C11.983 20.3507 11.983 20.3569 11.983 20.3632C11.983 20.3694 11.983 20.3756 11.983 20.3818C11.983 20.3879 11.983 20.3941 11.983 20.4002C11.983 20.4064 11.983 20.4125 11.983 20.4185C11.983 20.4246 11.983 20.4307 11.983 20.4367C11.983 20.4427 11.983 20.4488 11.983 20.4547C11.983 20.4607 11.983 20.4667 11.983 20.4726C11.983 20.4785 11.983 20.4844 11.983 20.4903C11.983 20.4962 11.983 20.5021 11.983 20.5079C11.983 20.5137 11.983 20.5195 11.983 20.5253C11.983 20.5311 11.983 20.5368 11.983 20.5426C11.983 20.5483 11.983 20.554 11.983 20.5597C11.983 20.5653 11.983 20.571 11.983 20.5766C11.983 20.5822 11.983 20.5878 11.983 20.5934C11.983 20.599 11.983 20.6045 11.983 20.61C11.983 20.6155 11.983 20.621 11.983 20.6265C11.983 20.632 11.983 20.6374 11.983 20.6428C11.983 20.6482 11.983 20.6536 11.983 20.659C11.983 20.6643 11.983 20.6696 11.983 20.6749C11.983 20.6802 11.983 20.6855 11.983 20.6908C11.983 20.696 11.983 20.7012 11.983 20.7064C11.983 20.7116 11.983 20.7168 11.983 20.7219C11.983 20.7271 11.983 20.7322 11.983 20.7373C11.983 20.7424 11.983 20.7474 11.983 20.7524C11.983 20.7575 11.983 20.7625 11.983 20.7674C11.983 20.7724 11.983 20.7774 11.983 20.7823C11.983 20.7872 11.983 20.7921 11.983 20.7969C11.983 20.8018 11.983 20.8066 11.983 20.8114C11.983 20.8162 11.983 20.821 11.983 20.8258C11.983 20.8305 11.983 20.8352 11.983 20.8399C11.983 20.8446 11.983 20.8493 11.983 20.8539C11.983 20.8585 11.983 20.8631 11.983 20.8677C11.983 20.8723 11.983 20.8768 11.983 20.8813C11.983 20.8858 11.983 20.8903 11.983 20.8948C11.983 20.8992 11.983 20.9037 11.983 20.9081C11.983 20.9125 11.983 20.9168 11.983 20.9212C11.983 20.9255 11.983 20.9298 11.983 20.9341C11.983 20.9384 11.983 20.9426 11.983 20.9468C11.983 20.9511 11.983 20.9553 11.983 20.9594C11.983 20.9636 11.983 20.9677 11.983 20.9718C11.983 20.9759 11.983 20.98 11.983 20.984C11.983 20.988 11.983 20.992 11.983 20.996C11.983 21 11.983 21.0039 11.983 21.0079C11.983 21.0118 11.983 21.0157 11.983 21.0195C11.983 21.0234 11.983 21.0272 11.983 21.031C11.983 21.0348 11.983 21.0385 11.983 21.0423C11.983 21.046 11.983 21.0497 11.983 21.0534C11.983 21.057 11.983 21.0607 11.983 21.0643C11.983 21.0679 11.983 21.0715 11.983 21.075C11.983 21.0785 11.983 21.0821 11.983 21.0855C11.983 21.089 11.983 21.0925 11.983 21.0959C11.983 21.0993 11.983 21.1027 11.983 21.106C11.983 21.1094 11.983 21.1127 11.983 21.116C11.983 21.1193 11.983 21.1225 11.983 21.1257C11.983 21.129 11.983 21.1321 11.983 21.1353C11.983 21.1385 11.983 21.1416 11.983 21.1447C11.983 21.1478 11.983 21.1508 11.983 21.1539C11.983 21.1569 11.983 21.1599 11.983 21.1628C11.983 21.1658 11.983 21.1687 11.983 21.1716C11.983 21.1745 11.983 21.1774 11.983 21.1802C11.983 21.183 11.983 21.1858 11.983 21.1886C11.983 21.1913 11.983 21.1941 11.983 21.1968C11.983 21.1995 11.983 21.2021 11.983 21.2047C11.983 21.2074 11.983 21.21 11.983 21.2125C11.983 21.2151 11.983 21.2176 11.983 21.2201C11.983 21.2226 11.983 21.225 11.983 21.2275C11.983 21.2299 11.983 21.2323 11.983 21.2346C11.983 21.237 11.983 21.2393 11.983 21.2416C11.983 21.2439 11.983 21.2461 11.983 21.2483C11.983 21.2506 11.983 21.2527 11.983 21.2549C11.983 21.257 11.983 21.2591 11.983 21.2612C11.983 21.2633 11.983 21.2653 11.983 21.2673C11.983 21.2694 11.983 21.2713 11.983 21.2733C11.983 21.2752 11.983 21.2771 11.983 21.279C11.983 21.2808 11.983 21.2827 11.983 21.2845C11.983 21.2862 11.983 21.288 11.983 21.2897C11.983 21.2915 11.983 21.2931 11.983 21.2948C11.983 21.2964 11.983 21.2981 11.983 21.2996C11.983 21.3012 11.983 21.3028 11.983 21.3043C11.983 21.3058 11.983 21.3073 11.983 21.3087C11.983 21.3101 11.983 21.3115 11.983 21.3129C11.983 21.3142 11.983 21.3156 11.983 21.3169C11.983 21.3181 11.983 21.3194 11.983 21.3206C11.983 21.3218 11.983 21.323 11.983 21.3242C11.983 21.3253 11.983 21.3264 11.983 21.3275C11.983 21.3285 11.983 21.3296 11.983 21.3306C11.983 21.3316 11.983 21.3325 11.983 21.3334C11.983 21.3344 11.983 21.3352 11.983 21.3361C11.983 21.3369 11.983 21.3377 11.983 21.3385C11.983 21.3393 11.983 21.34 11.983 21.3407C11.983 21.3414 11.983 21.342 11.983 21.3427C11.983 21.3433 11.983 21.3439 11.983 21.3444C11.983 21.3449 11.983 21.3454 11.983 21.3459C11.983 21.3464 11.983 21.3468 11.983 21.3472C11.983 21.3476 11.983 21.3479 11.983 21.3482C11.983 21.3485 11.983 21.3488 11.983 21.3491C11.983 21.3493 11.983 21.3495 11.983 21.3496C11.983 21.3498 11.983 21.3499 11.983 21.35C11.983 21.3501 11.983 21.3501 21.983 21.3501ZM31.983 10.868C31.983 5.14147 27.3474 0.505798 21.6207 0.505798V20.5058C16.3016 20.5058 11.983 16.1871 11.983 10.868H31.983ZM21.6207 0.505798H18.2927V20.5058H21.6207V0.505798ZM18.2927 0.505798C12.5661 0.505798 7.93049 5.1414 7.93049 10.868H27.9305C27.9305 16.1871 23.6118 20.5058 18.2927 20.5058V0.505798ZM7.93049 10.868V21.3501H27.9305V10.868H7.93049ZM17.9305 11.3501H16.708V31.3501H17.9305V11.3501ZM26.708 21.3501V14.4903H6.70796V21.3501H26.708ZM26.708 14.4903C26.708 8.76368 22.0723 4.12812 16.3457 4.12812V24.1281C11.0267 24.1281 6.70796 19.8095 6.70796 14.4903H26.708ZM16.3457 4.12812H12.9951V24.1281H16.3457V4.12812ZM12.9951 4.12812C7.26847 4.12812 2.63285 8.76375 2.63285 14.4903H22.6328C22.6328 19.8094 18.3142 24.1281 12.9951 24.1281V4.12812ZM2.63285 14.4903V21.3501H22.6328V14.4903H2.63285ZM12.6328 11.3501H11.4103V31.3501H12.6328V11.3501ZM21.4103 21.3501V13.947H1.41031V21.3501H21.4103ZM21.4103 13.947C21.4103 8.2204 16.7747 3.58477 11.0481 3.58477V23.5848C5.72898 23.5848 1.41031 19.2661 1.41031 13.947H21.4103ZM11.0481 3.58477H7.72007V23.5848H11.0481V3.58477ZM7.72007 3.58477C1.99346 3.58477 -2.64216 8.2204 -2.64216 13.947H17.3578C17.3578 19.2661 13.0392 23.5848 7.72007 23.5848V3.58477ZM-2.64216 13.947V21.3501H17.3578V13.947H-2.64216ZM7.35784 11.3501H6.13531V31.3501H7.35784V11.3501ZM16.1353 21.3501V16.0751H-3.86469V21.3501H16.1353ZM16.1353 16.0751C16.1353 10.3485 11.4997 5.71288 5.77307 5.71288V25.7129C0.453944 25.7129 -3.86469 21.3942 -3.86469 16.0751H16.1353ZM5.77307 5.71288H2.42243V25.7129H5.77307V5.71288ZM2.42243 5.71288C-3.30422 5.71288 -7.9398 10.3486 -7.9398 16.0751H12.0602C12.0602 21.3942 7.74157 25.7129 2.42243 25.7129V5.71288ZM-7.9398 16.0751V21.3501H12.0602V16.0751H-7.9398ZM2.0602 11.3501H0.362232V31.3501H2.0602V11.3501ZM0.362232 11.3501C-5.36434 11.3501 -10 15.9857 -10 21.7123H10C10 27.0315 5.6813 31.3501 0.362232 31.3501V11.3501ZM-10 21.7123C-10 27.4389 -5.36441 32.0746 0.362232 32.0746V12.0746C5.68137 12.0746 10 16.3933 10 21.7123H-10ZM0.362232 32.0746H2.39979V12.0746H0.362232V32.0746ZM2.39979 32.0746H5.7278V12.0746H2.39979V32.0746ZM5.7278 32.0746H7.72007V12.0746H5.7278V32.0746ZM7.72007 32.0746H11.0481V12.0746H7.72007V32.0746ZM11.0481 32.0746H12.9951V12.0746H11.0481V32.0746ZM12.9951 32.0746H16.3231V12.0746H12.9951V32.0746ZM16.3231 32.0746H18.2701V12.0746H16.3231V32.0746ZM18.2701 32.0746H21.5981V12.0746H18.2701V32.0746ZM21.5981 32.0746H23.6356V12.0746H21.5981V32.0746ZM23.6356 32.0746C29.3623 32.0746 33.9979 27.4389 33.9979 21.7123H13.9979C13.9979 16.3933 18.3165 12.0746 23.6356 12.0746V32.0746ZM33.9367 22.8167C34.6895 16.0412 29.1505 11.3501 23.6583 11.3501V31.3501C18.5736 31.3501 13.3515 26.976 14.059 20.608L33.9367 22.8167ZM5.3882 11.3501H2.78466V31.3501H5.3882V11.3501ZM12.7847 21.3501V16.4373H-7.21534V21.3501H12.7847ZM2.78466 26.4373H5.3882V6.43734H2.78466V26.4373ZM-4.6118 16.4373V21.3501H15.3882V16.4373H-4.6118ZM10.6858 11.3501H8.0823V31.3501H10.6858V11.3501ZM18.0823 21.3501V14.3092H-1.9177V21.3501H18.0823ZM8.0823 24.3092H10.6858V4.30923H8.0823V24.3092ZM0.685848 14.3092V21.3501H20.6858V14.3092H0.685848ZM15.9609 11.3501H13.3573V31.3501H15.9609V11.3501ZM23.3573 21.3501V14.8526H3.35731V21.3501H23.3573ZM13.3573 24.8526H15.9609V4.85258H13.3573V24.8526ZM5.96085 14.8526V21.3501H25.9609V14.8526H5.96085ZM21.2585 11.3501H18.655V31.3501H21.2585V11.3501ZM28.655 21.3501V11.2303H8.65495V21.3501H28.655ZM18.655 21.2303H21.2585V1.23026H18.655V21.2303ZM11.2585 11.2303V21.3501H31.2585V11.2303H11.2585Z" fill="white" mask="url(#path-6-inside-3_5_33)"/>
</g>
<defs>
<clipPath id="clip0_5_33">
<rect width="24" height="24" fill="white"/>
</clipPath>
</defs>
</svg>
