<svg width="64" height="65" viewBox="0 0 64 65" fill="none" xmlns="http://www.w3.org/2000/svg">
<path d="M31.7059 0.75293C14.248 0.75293 0 15.002 0 32.4588C0 49.9167 14.2491 64.1647 31.7059 64.1647C49.1638 64.1647 63.4118 49.9156 63.4118 32.4588C63.4118 15.0009 49.1627 0.75293 31.7059 0.75293ZM3.71553 32.4588C3.71553 17.0249 16.2719 4.46846 31.7059 4.46846C38.7557 4.46846 45.2043 7.0894 50.1308 11.4066L44.1151 17.4223C42.4575 12.1462 37.5218 8.30785 31.7059 8.30785C25.109 8.30785 19.6435 13.2459 18.8112 19.6194C14.522 20.4394 11.2705 24.2188 11.2705 28.7433C11.2705 33.8651 15.4374 38.0321 20.5593 38.0321H23.5053L10.6537 50.8839C6.33647 45.9571 3.71553 39.5087 3.71553 32.4588V32.4588ZM26.3738 34.3166H20.5593C17.4862 34.3166 14.986 31.8164 14.986 28.7433C14.986 25.6702 17.4862 23.17 20.5593 23.17H22.4171V21.3122C22.4171 16.1904 26.584 12.0234 31.7059 12.0234C36.5793 12.0234 40.5853 15.7966 40.9628 20.5747L26.6855 34.852L26.3738 34.3166ZM43.5737 23.2183C46.3072 23.5732 48.4258 25.9148 48.4258 28.7433C48.4258 31.8164 45.9256 34.3166 42.8525 34.3166H37.0379L36.5007 35.2399C35.4831 36.9883 33.6906 38.0321 31.7059 38.0321C30.856 38.0321 30.0422 37.8394 29.3086 37.4833L43.5737 23.2183ZM31.7059 60.4492C24.656 60.4492 18.2075 57.8282 13.2809 53.511L26.6016 40.1902C28.0975 41.1873 29.8692 41.7476 31.7059 41.7476C34.6108 41.7476 37.354 40.3474 39.0984 38.0321H42.8525C47.9743 38.0321 52.1413 33.8651 52.1413 28.7433C52.1413 24.9399 49.8433 21.6638 46.5631 20.2288L52.7581 14.0337C57.0753 18.9605 59.6962 25.409 59.6962 32.4588C59.6962 47.8928 47.1398 60.4492 31.7059 60.4492V60.4492Z" fill="white"/>
<path d="M31.7061 45.4629C28.633 45.4629 26.1328 47.963 26.1328 51.0361C26.1328 54.1092 28.633 56.6094 31.7061 56.6094C34.7792 56.6094 37.2794 54.1092 37.2794 51.0361C37.2794 47.963 34.7792 45.4629 31.7061 45.4629ZM31.7061 52.8939C30.6817 52.8939 29.8483 52.0605 29.8483 51.0361C29.8483 50.0118 30.6817 49.1784 31.7061 49.1784C32.7305 49.1784 33.5639 50.0118 33.5639 51.0361C33.5639 52.0605 32.7305 52.8939 31.7061 52.8939Z" fill="white"/>
</svg>
