<svg width="25" height="24" viewBox="0 0 25 24" fill="none" xmlns="http://www.w3.org/2000/svg">
<g clip-path="url(#clip0_174_2484)">
<path d="M12.5 0C12.6989 0 12.8897 0.0790176 13.0303 0.21967C13.171 0.360322 13.25 0.551088 13.25 0.75V1.521C19.4375 1.857 24.5 6.33 24.5 12C24.5 12 24.5 12.75 23.75 12.75C23.5265 12.75 23.222 12.5325 23.222 12.5325L23.216 12.5265L23.1785 12.492C22.921 12.2683 22.6421 12.0704 22.346 11.901C21.6339 11.4838 20.8253 11.2595 20 11.25C19.043 11.25 18.233 11.5695 17.654 11.901C17.3579 12.0704 17.079 12.2683 16.8215 12.492L16.784 12.5265L16.7795 12.531C16.7795 12.531 16.4735 12.75 16.25 12.75C16.0265 12.75 15.722 12.5325 15.722 12.5325L15.716 12.5265L15.6785 12.492C15.421 12.2683 15.1421 12.0704 14.846 11.901C14.3517 11.6154 13.8118 11.4175 13.25 11.316V20.25H12.5H13.25V20.3085L13.2425 20.433C13.2022 21.0078 13.0504 21.5693 12.7955 22.086C12.5361 22.6186 12.1414 23.0737 11.651 23.406C11.09 23.7765 10.3805 24 9.5 24C8.6195 24 7.9085 23.778 7.349 23.406C6.85849 23.0738 6.46383 22.6186 6.2045 22.086C5.93134 21.5315 5.77704 20.9261 5.7515 20.3085V20.271L5.75 20.2575V20.253C5.75 20.253 5.75 20.25 6.5 20.25H5.75V19.5C5.75 19.3011 5.82902 19.1103 5.96967 18.9697C6.11032 18.829 6.30109 18.75 6.5 18.75C6.69891 18.75 6.88968 18.829 7.03033 18.9697C7.17098 19.1103 7.25 19.3011 7.25 19.5V20.259L7.2545 20.325C7.28075 20.7035 7.38008 21.0733 7.547 21.414C7.6895 21.7005 7.892 21.9645 8.1815 22.1565C8.4665 22.347 8.8805 22.5 9.5 22.5C10.1195 22.5 10.5335 22.347 10.8185 22.1565C11.108 21.9645 11.3105 21.7005 11.4545 21.414C11.6309 21.0533 11.7315 20.6602 11.75 20.259V11.316C11.1882 11.4175 10.6483 11.6154 10.154 11.901C9.84332 12.0791 9.55179 12.2887 9.284 12.5265L9.278 12.5325C9.278 12.5325 8.975 12.75 8.75 12.75C8.5265 12.75 8.222 12.5325 8.222 12.5325L8.216 12.5265C7.94821 12.2887 7.65668 12.0791 7.346 11.901C6.63386 11.4838 5.82528 11.2595 5 11.25C4.043 11.25 3.2345 11.5695 2.654 11.901C2.34332 12.0791 2.05179 12.2887 1.784 12.5265L1.778 12.5325C1.778 12.5325 1.475 12.75 1.25 12.75C0.5 12.75 0.5 12 0.5 12C0.5 6.33 5.5625 1.857 11.75 1.521V0.75C11.75 0.551088 11.829 0.360322 11.9697 0.21967C12.1103 0.0790176 12.3011 0 12.5 0V0ZM10.3655 3.1845C6.116 3.9345 2.8805 6.8715 2.1545 10.4655C3.03189 10.0023 4.00785 9.75685 5 9.75C6.209 9.75 7.22 10.125 7.943 10.5165C7.96907 9.32078 8.14237 8.13283 8.459 6.9795C8.822 5.6775 9.419 4.332 10.3655 3.1845ZM9.443 10.5795C10.3737 10.0447 11.4266 9.75896 12.5 9.75C13.5734 9.75896 14.6263 10.0447 15.557 10.5795C15.5365 9.49953 15.3818 8.4263 15.0965 7.3845C14.651 5.787 13.847 4.245 12.5 3.1755C11.153 4.2435 10.349 5.7855 9.9035 7.3815C9.61805 8.42378 9.46336 9.49753 9.443 10.578V10.5795ZM14.633 3.1845C15.5795 4.332 16.178 5.6775 16.541 6.9795C16.8905 8.229 17.033 9.4695 17.057 10.5165C17.9593 10.021 18.9706 9.75763 20 9.75C21.155 9.75 22.13 10.095 22.8455 10.4655C22.1195 6.8715 18.884 3.933 14.6345 3.1845H14.633Z" fill="black"/>
</g>
<defs>
<clipPath id="clip0_174_2484">
<rect width="24" height="24" fill="white" transform="translate(0.5)"/>
</clipPath>
</defs>
</svg>
