<svg width="51" height="50" viewBox="0 0 51 50" fill="none" xmlns="http://www.w3.org/2000/svg">
<g clip-path="url(#clip0)">
<path d="M30.1875 9.375V11.6219L30.3344 11.9141L31.9453 15.625H18.3703L17.8828 16.3094L13.6344 22.3141C12.6694 22.0186 11.6654 21.8706 10.6562 21.875C7.96366 21.8783 5.3823 22.9494 3.47835 24.8534C1.5744 26.7573 0.503308 29.3387 0.5 32.0312C0.5 37.6344 5.05312 42.1875 10.6562 42.1875C15.9906 42.1875 20.3547 38.0438 20.7641 32.8125H26.1344L26.6234 32.1281L34.2406 20.8984L35.2656 23.2422C33.7244 24.1351 32.4444 25.4166 31.5533 26.9589C30.6623 28.5011 30.1913 30.2501 30.1875 32.0312C30.1875 37.6094 34.7656 42.1875 40.3438 42.1875C45.9219 42.1875 50.5 37.6094 50.5 32.0312C50.5 26.4531 45.9219 21.875 40.3438 21.875C39.5938 21.875 38.8547 21.9609 38.1469 22.1188L33.9469 12.5H38.7812C39.2266 12.5 39.5625 12.8359 39.5625 13.2812C39.5625 13.7266 39.2266 14.0625 38.7812 14.0625V17.1875C40.9172 17.1875 42.6875 15.4172 42.6875 13.2812C42.6875 11.1453 40.9172 9.375 38.7812 9.375H30.1875ZM13 10.9375V14.0625H22.375L20.8125 10.9375H13ZM21.5453 18.75H31.9453L25.6469 28.0281L21.5453 18.75ZM18.8109 20.3125L22.9125 29.6875H9.875V32.8125H17.5906C17.1938 36.3156 14.2625 39.0625 10.6562 39.0625C6.78125 39.0625 3.625 35.9062 3.625 32.0312C3.625 28.1562 6.78125 25 10.6562 25C11.8143 25.0006 12.9544 25.2859 13.9761 25.8309C14.9979 26.3758 15.87 27.1637 16.5156 28.125H20.0312C19.2915 26.3341 18.0548 24.7922 16.4672 23.6813L18.8109 20.3125ZM40.3438 25C44.2188 25 47.375 28.1562 47.375 32.0312C47.375 35.9062 44.2188 39.0625 40.3438 39.0625C36.4688 39.0625 33.3125 35.9062 33.3125 32.0312C33.3125 29.5719 34.6125 27.4297 36.5359 26.1719L39.7078 33.4469L42.5406 32.1781L39.4656 25.0969C39.7578 25.0609 40.0438 25 40.3438 25Z" fill="#262626"/>
</g>
<defs>
<clipPath id="clip0">
<rect width="50" height="50" fill="white" transform="translate(0.5)"/>
</clipPath>
</defs>
</svg>
