<svg width="70" height="70" viewBox="0 0 70 70" fill="none" xmlns="http://www.w3.org/2000/svg">
<path d="M60.9136 37.1092H56.0766L56.3322 31.4553C56.3611 30.8145 56.1397 30.189 55.7198 29.7249C55.3 29.2609 54.7177 28.9982 54.1095 28.9982H5.15664C4.54804 28.9982 3.96613 29.2609 3.5463 29.7249C3.12647 30.1894 2.90506 30.8145 2.93399 31.4553L3.922 53.303C4.16604 58.702 7.30326 63.2448 11.7111 65.3087H2.22525C0.99654 65.3087 0 66.3591 0 67.6543C0 68.9496 0.99654 70 2.22525 70H57.3547C58.5834 70 59.5799 68.9496 59.5799 67.6543C59.5799 66.3591 58.5834 65.3087 57.3547 65.3087H47.5554C51.1284 63.6354 53.864 60.3331 54.9024 56.2656H60.9136C65.9237 56.2656 70 51.9687 70 46.6874C70 41.4061 65.9237 37.1092 60.9136 37.1092ZM42.2133 61.8097H17.0532C12.4039 61.8097 8.58872 57.9749 8.3673 53.0794L7.49056 33.6888H51.7756L50.8992 53.0794C50.6778 57.9749 46.8626 61.8097 42.2133 61.8097ZM60.9136 51.5743H55.4228L55.8649 41.7955C55.8979 41.797 55.9305 41.8005 55.9639 41.8005H60.9136C63.47 41.8005 65.5495 43.9926 65.5495 46.6874C65.5495 49.3822 63.47 51.5743 60.9136 51.5743Z" fill="white"/>
<path d="M23.0944 25.1528C23.4497 25.3741 23.8395 25.4797 24.2244 25.4797C24.9855 25.4797 25.7269 25.0676 26.1422 24.3271C26.7679 23.2118 26.417 21.7735 25.3589 21.1143C24.1217 20.3434 23.2665 18.9211 23.0128 17.2126C22.7487 15.4338 23.1897 13.662 24.1914 12.4739C24.2003 12.4634 24.2092 12.4528 24.2178 12.4419C24.4599 12.144 24.7021 11.8511 24.9421 11.5607C27.0004 9.06874 29.1293 6.49276 29.7405 2.74355C29.9489 1.4667 29.1356 0.253584 27.9247 0.0342608C26.7134 -0.185062 25.5626 0.67151 25.3545 1.94835C24.9543 4.40196 23.3933 6.29142 21.586 8.47918C21.3424 8.77396 21.0969 9.07147 20.8513 9.37329C18.9855 11.597 18.1499 14.7966 18.6161 17.9371C19.0752 21.0357 20.7078 23.6657 23.0944 25.1528Z" fill="white"/>
<path d="M30.0012 19.8562C30.7359 21.8504 32.0466 23.677 33.6922 24.9992C34.095 25.3229 34.5689 25.4797 35.0396 25.4797C35.7101 25.4797 36.3733 25.1614 36.8109 24.5558C37.556 23.5257 37.3676 22.0537 36.3899 21.2683C35.4019 20.4743 34.5853 19.3409 34.1498 18.1582C33.2824 15.8035 34.1042 13.457 36.8984 10.3118C38.8793 8.08175 40.1455 5.45531 40.5597 2.71549C40.753 1.43629 39.9263 0.233708 38.7124 0.029629C37.4989 -0.17445 36.3581 0.697381 36.1645 1.97698C35.8867 3.81408 35.0407 5.53937 33.6499 7.10514C32.1905 8.74755 27.7503 13.7459 30.0012 19.8562Z" fill="white"/>
</svg>
