<svg width="51" height="50" viewBox="0 0 51 50" fill="none" xmlns="http://www.w3.org/2000/svg">
<path d="M43.7748 21.1585L40.9248 12.6064C40.5114 11.3616 39.7162 10.2787 38.6522 9.51164C37.5881 8.74457 36.3094 8.33233 34.9978 8.3335H16.0019C14.6902 8.33233 13.4115 8.74457 12.3475 9.51164C11.2835 10.2787 10.4883 11.3616 10.0748 12.6064L7.22484 21.1585C6.46778 21.4762 5.82125 22.0101 5.36618 22.6934C4.91111 23.3768 4.66773 24.1792 4.6665 25.0002V35.4168C4.6665 36.9856 5.54775 38.3377 6.83109 39.0481C6.804 39.1856 6.74984 39.3106 6.74984 39.4543V43.7502C6.74984 44.3027 6.96933 44.8326 7.36003 45.2233C7.75073 45.614 8.28064 45.8335 8.83317 45.8335H10.9165C11.469 45.8335 11.9989 45.614 12.3896 45.2233C12.7803 44.8326 12.9998 44.3027 12.9998 43.7502V39.5835H37.9998V43.7502C37.9998 44.3027 38.2193 44.8326 38.61 45.2233C39.0007 45.614 39.5306 45.8335 40.0832 45.8335H42.1665C42.719 45.8335 43.2489 45.614 43.6396 45.2233C44.0303 44.8326 44.2498 44.3027 44.2498 43.7502V39.4543C44.2498 39.3106 44.1957 39.1835 44.1686 39.0481C44.8215 38.6921 45.3669 38.1673 45.7476 37.5286C46.1284 36.8898 46.3306 36.1605 46.3332 35.4168V25.0002C46.3332 23.2731 45.2748 21.7897 43.7748 21.1585ZM8.83317 35.4168V25.0002H42.1665L42.1707 35.4168H8.83317ZM16.0019 12.5002H34.9957C35.8936 12.5002 36.6894 13.071 36.9728 13.9252L39.2769 20.8335H11.7228L14.0248 13.9252C14.1631 13.5102 14.4284 13.1492 14.7833 12.8934C15.1381 12.6376 15.5645 12.5001 16.0019 12.5002Z" fill="#262626"/>
<path d="M14.0415 33.3335C15.7674 33.3335 17.1665 31.9344 17.1665 30.2085C17.1665 28.4826 15.7674 27.0835 14.0415 27.0835C12.3156 27.0835 10.9165 28.4826 10.9165 30.2085C10.9165 31.9344 12.3156 33.3335 14.0415 33.3335Z" fill="#262626"/>
<path d="M36.9585 33.3335C38.6844 33.3335 40.0835 31.9344 40.0835 30.2085C40.0835 28.4826 38.6844 27.0835 36.9585 27.0835C35.2326 27.0835 33.8335 28.4826 33.8335 30.2085C33.8335 31.9344 35.2326 33.3335 36.9585 33.3335Z" fill="#262626"/>
</svg>
