<svg width="34" height="34" viewBox="0 0 34 34" fill="none" xmlns="http://www.w3.org/2000/svg">
<path opacity="0.7" d="M30.005 22.3971V12.0172H33.6285L20.0474 0L6.46657 12.0172H10.0901V19.9385C9.1485 20.2176 8.25409 20.6972 7.47693 21.3813L4.46426 24.0323H0V33.9899H22.3719L34 25.2414L33.4387 24.4515C32.6405 23.328 31.4161 22.582 30.005 22.3971ZM11.7223 10.0258L20.0474 2.6591L28.3726 10.0258H28.0133V22.5353C27.5173 22.6731 27.0414 22.8868 26.6019 23.1763L23.5384 25.1942C23.8536 24.541 24.0305 23.809 24.0305 23.0367V22.0409H17.8117C17.262 22.0409 17.0379 21.6438 16.6864 21.3813C15.3738 20.2262 13.7277 19.6485 12.0815 19.6485V10.0258H11.7223ZM21.7063 31.9982H1.99141V26.024H5.21548L8.7926 22.8762C10.6675 21.2261 13.4955 21.2261 15.3707 22.8762C15.634 23.0539 16.3624 24.0258 17.8117 24.0258H21.8684C21.4573 25.1848 20.3499 26.024 19.0516 26.024H15.0024V28.0154H22.8757L27.6974 24.8393C28.7583 24.1402 30.1349 24.2085 31.1238 24.913L21.7063 31.9982Z" fill="black"/>
</svg>
