<svg width="95" height="34" viewBox="0 0 95 34" fill="none" xmlns="http://www.w3.org/2000/svg">
<g clip-path="url(#clip0_174_2587)">
<path d="M28.7169 26.7688L28.6937 15.9542C28.6934 15.7022 28.6406 15.4529 28.5387 15.222C28.4368 14.9911 28.2879 14.7835 28.1013 14.6122L14.9312 2.49156C14.5879 2.17516 14.1364 1.99927 13.6674 1.99927C13.1985 1.99927 12.747 2.17516 12.4037 2.49156L0.611841 13.3685C0.426229 13.5404 0.278246 13.7482 0.177061 13.979C0.0758768 14.2099 0.0236484 14.4588 0.0236145 14.7105L0.00293135 26.7696C0.0026052 27.0112 0.0503579 27.2505 0.143459 27.4738C0.23656 27.697 0.373184 27.9 0.545522 28.0709C0.71786 28.2419 0.922533 28.3776 1.14784 28.4702C1.37315 28.5628 1.61468 28.6105 1.85862 28.6106H10.8616V18.621L17.8549 14.4655V28.6106H26.8604C27.1044 28.6106 27.3461 28.5629 27.5716 28.4703C27.797 28.3777 28.0019 28.242 28.1743 28.0709C28.3467 27.8999 28.4834 27.6968 28.5765 27.4734C28.6696 27.2499 28.7173 27.0105 28.7169 26.7688Z" fill="black"/>
<path d="M41.851 7.21655V11.1434H37.2833V7.21655H34.9561V17.1742H37.2833V13.0917H41.851V17.1742H44.1782V7.21655H41.851Z" fill="black"/>
<path d="M53.8314 9.521V17.1748H51.7052V16.2638C51.4124 16.5929 51.0492 16.8532 50.6421 17.0257C50.2194 17.2025 49.7647 17.2917 49.3059 17.2879C48.2905 17.2879 47.4861 16.9984 46.8926 16.4194C46.2992 15.8405 46.0024 14.9829 46.0024 13.8469V9.521H48.2428V13.5191C48.2428 14.7519 48.7649 15.3686 49.809 15.3691C50.3451 15.3691 50.7761 15.196 51.1021 14.8497C51.428 14.5034 51.5907 13.9889 51.5902 13.3061V9.521H53.8314Z" fill="black"/>
<path d="M62.5687 10.2613C63.1578 10.8305 63.4523 11.6746 63.4523 12.7938V17.1753H61.2111V13.1354C61.2111 12.528 61.0771 12.075 60.809 11.7762C60.541 11.4774 60.1532 11.3283 59.6458 11.3289C59.0799 11.3289 58.6299 11.5017 58.2956 11.8475C57.9614 12.1932 57.7937 12.7077 57.7926 13.391V17.1753H55.5547V9.52152H57.695V10.4178C58.0017 10.0891 58.38 9.83391 58.8011 9.67145C59.2632 9.4921 59.7559 9.4028 60.2522 9.40846C61.2097 9.40846 61.9819 9.69275 62.5687 10.2613Z" fill="black"/>
<path d="M70.1064 16.8045C69.8623 16.9766 69.5866 17.0999 69.2948 17.1675C68.9636 17.2493 68.6235 17.29 68.2822 17.2887C67.3633 17.2887 66.6521 17.0563 66.1485 16.5915C65.6449 16.1267 65.3937 15.444 65.3948 14.5433V11.3988H64.2026V9.69226H65.3948V7.82837H67.6352V9.69226H69.5604V11.3988H67.6352V14.5121C67.6352 14.8344 67.7179 15.0832 67.8834 15.2585C68.0488 15.4339 68.286 15.5218 68.5949 15.5223C68.9204 15.5314 69.2395 15.4309 69.5 15.2372L70.1064 16.8045Z" fill="black"/>
<path d="M73.0511 11.5127C72.7002 11.8094 72.4746 12.2258 72.419 12.6793H76.2247C76.1658 12.2287 75.9403 11.8157 75.5918 11.5201C75.2383 11.2275 74.789 11.0731 74.3285 11.0858C73.8642 11.0713 73.4101 11.2228 73.0494 11.5127H73.0511ZM78.293 13.9706H72.4463C72.5388 14.4263 72.8056 14.829 73.1909 15.0946C73.583 15.3677 74.0714 15.5043 74.6561 15.5043C75.0209 15.5107 75.3839 15.4504 75.7266 15.3265C76.0517 15.1994 76.3472 15.0082 76.5953 14.7644L77.7916 16.0507C77.0636 16.8755 76.0005 17.2879 74.6023 17.2879C73.7314 17.2879 72.9592 17.1194 72.2858 16.7824C71.6439 16.4721 71.1055 15.9858 70.7345 15.3814C70.3657 14.7665 70.1767 14.0622 70.1885 13.3471C70.1785 12.6355 70.3647 11.9347 70.7271 11.3201C71.081 10.7245 71.5948 10.2379 72.2113 9.91424C72.8535 9.58568 73.5651 9.41245 74.2878 9.40875C75.0106 9.40505 75.724 9.57098 76.3695 9.89294C76.9752 10.2084 77.4764 10.69 77.8132 11.28C78.1634 11.8808 78.3382 12.5802 78.3377 13.3782C78.3377 13.4072 78.3233 13.6062 78.2947 13.9755" fill="black"/>
<path d="M82.6968 9.69208C83.1962 9.49384 83.7307 9.39689 84.2687 9.40696V11.4552C84.0199 11.4361 83.8523 11.4265 83.7657 11.4265C83.1237 11.4265 82.6209 11.6043 82.2575 11.9599C81.894 12.3154 81.712 12.8491 81.7114 13.5608V17.1738H79.4702V9.52084H81.6105V10.531C81.8852 10.156 82.2612 9.86524 82.6951 9.69208" fill="black"/>
<path d="M42.7411 24.1193H44.1195V28.0028C43.6044 28.4201 43.0152 28.7386 42.3821 28.9417C41.7151 29.1609 41.0166 29.2715 40.3138 29.2694C39.3573 29.2839 38.4129 29.056 37.5704 28.6074C36.7756 28.1849 36.1125 27.5555 35.6526 26.7869C35.1961 25.99 34.9561 25.0893 34.9561 24.173C34.9561 23.2567 35.1961 22.356 35.6526 21.559C36.1113 20.7871 36.7775 20.1566 37.577 19.7378C38.396 19.3008 39.318 19.0823 40.3427 19.0823C41.0913 19.0722 41.8348 19.2049 42.5327 19.4731C43.1722 19.7228 43.745 20.1154 44.2063 20.6201L43.3161 21.5017C42.512 20.7343 41.5388 20.3503 40.3965 20.3498C39.6786 20.3384 38.9696 20.5076 38.3356 20.8413C37.7419 21.1559 37.2481 21.6276 36.9093 22.2038C36.5703 22.8036 36.3922 23.4795 36.3922 24.1669C36.3922 24.8542 36.5703 25.5301 36.9093 26.1299C37.2494 26.709 37.744 27.1841 38.339 27.503C38.9669 27.8398 39.6717 28.011 40.3858 28.0003C41.2859 28.0003 42.071 27.787 42.7411 27.3605V24.1193Z" fill="black"/>
<path d="M49.7662 27.8394C50.1465 27.6099 50.4394 27.2622 50.5993 26.8505V25.7978H48.4731C47.3049 25.7978 46.7208 26.1866 46.7208 26.9644C46.7145 27.1386 46.7518 27.3116 46.8295 27.468C46.9072 27.6244 47.0228 27.7594 47.1659 27.8607C47.4627 28.0792 47.8744 28.1884 48.4011 28.1884C48.88 28.2009 49.3529 28.0803 49.7662 27.8403V27.8394ZM51.1379 22.3133C51.6988 22.8251 51.9793 23.5881 51.9793 24.6024V29.1552H50.6713V28.159C50.4316 28.5183 50.0887 28.7983 49.6868 28.9627C49.2072 29.1578 48.692 29.2524 48.1736 29.2404C47.3215 29.2404 46.6392 29.0364 46.1268 28.6284C45.8799 28.4394 45.6815 28.1953 45.548 27.9159C45.4144 27.6366 45.3494 27.3299 45.3582 27.021C45.3582 26.3573 45.6023 25.824 46.0904 25.4209C46.5785 25.0178 47.3546 24.8162 48.4185 24.8162H50.6018V24.5459C50.6018 23.9576 50.4294 23.5073 50.0847 23.1949C49.74 22.8824 49.2323 22.726 48.5616 22.7254C48.111 22.7248 47.6635 22.7993 47.2379 22.9458C46.8403 23.0742 46.4701 23.2742 46.1458 23.5357L45.5667 22.5116C45.985 22.1856 46.4624 21.9417 46.9732 21.7931C47.5367 21.6259 48.1223 21.5431 48.7105 21.5473C49.7634 21.5473 50.5704 21.8034 51.1313 22.3158" fill="black"/>
<path d="M55.1956 18.5994H53.8164V29.1543H55.1956V18.5994Z" fill="black"/>
<path d="M58.4851 18.5994H57.106V29.1543H58.4851V18.5994Z" fill="black"/>
<path d="M64.9682 27.7115C65.3545 27.4894 65.6699 27.164 65.8782 26.7726C66.0958 26.3422 66.2091 25.8674 66.2091 25.386C66.2091 24.9046 66.0958 24.4298 65.8782 23.9993C65.6709 23.609 65.3551 23.2855 64.9682 23.067C64.5639 22.8524 64.1123 22.7401 63.6535 22.7401C63.1948 22.7401 62.7432 22.8524 62.3389 23.067C61.9505 23.2865 61.6321 23.6095 61.4198 23.9993C61.1979 24.4285 61.0822 24.9038 61.0822 25.386C61.0822 25.8682 61.1979 26.3434 61.4198 26.7726C61.633 27.1634 61.9511 27.4883 62.3389 27.7115C62.7418 27.9307 63.1939 28.0456 63.6535 28.0456C64.1132 28.0456 64.5653 27.9307 64.9682 27.7115ZM61.6142 28.743C61.0235 28.4237 60.5336 27.9487 60.1986 27.3707C59.8642 26.7616 59.689 26.0793 59.689 25.386C59.689 24.6927 59.8642 24.0104 60.1986 23.4013C60.5338 22.8254 61.025 22.354 61.6167 22.0404C62.2458 21.7174 62.9441 21.5488 63.6527 21.5488C64.3614 21.5488 65.0596 21.7174 65.6888 22.0404C66.2761 22.3577 66.763 22.8302 67.0952 23.4053C67.4297 24.0144 67.6049 24.6968 67.6049 25.3901C67.6049 26.0834 67.4297 26.7657 67.0952 27.3748C66.7619 27.951 66.2755 28.4256 65.6888 28.7471C65.0609 29.0743 64.3622 29.2452 63.6527 29.2452C62.9433 29.2452 62.2445 29.0743 61.6167 28.7471" fill="black"/>
<path d="M80.1039 21.6152L77.2596 29.1552H75.9383L73.7401 23.4365L71.5138 29.1552H70.1926L67.3623 21.6152H68.6695L70.8817 27.6182L73.18 21.6152H74.3433L76.5985 27.6469L78.8687 21.6152H80.1039Z" fill="black"/>
<path d="M84.3556 27.8394C84.7361 27.6101 85.0291 27.2624 85.1887 26.8505V25.7978H83.0625C81.8943 25.7978 81.3102 26.1867 81.3102 26.9644C81.3039 27.1386 81.3412 27.3116 81.4189 27.468C81.4966 27.6244 81.6121 27.7594 81.7553 27.8607C82.052 28.0792 82.4641 28.1885 82.9913 28.1885C83.47 28.2008 83.9426 28.0802 84.3556 27.8403V27.8394ZM85.7273 22.3133C86.2871 22.8256 86.5673 23.589 86.5679 24.6032V29.156H85.2607V28.159C85.021 28.5183 84.6781 28.7983 84.2762 28.9627C83.7961 29.1581 83.2803 29.2527 82.7613 29.2404C81.9086 29.2404 81.2261 29.0364 80.7137 28.6284C80.4663 28.4397 80.2675 28.1956 80.1335 27.9163C79.9995 27.6369 79.9341 27.3301 79.9426 27.021C79.9426 26.3573 80.187 25.824 80.6756 25.4209C81.1643 25.0178 81.9401 24.8163 83.0029 24.8163H85.1862V24.5459C85.1862 23.9576 85.0139 23.5073 84.6692 23.1949C84.3244 22.8824 83.817 22.726 83.1469 22.7254C82.6963 22.7249 82.2488 22.7994 81.8231 22.9458C81.4257 23.074 81.0558 23.274 80.7319 23.5357L80.1569 22.5116C80.5751 22.1854 81.0525 21.9415 81.5634 21.7931C82.1269 21.6258 82.7125 21.543 83.3008 21.5473C84.3542 21.5473 85.1609 21.8034 85.7207 22.3158" fill="black"/>
<path d="M94.9999 21.6152L91.3084 29.9089C90.9824 30.6774 90.6016 31.2179 90.1659 31.5303C89.7301 31.8427 89.2062 31.9992 88.5939 31.9998C88.2249 32.0006 87.8584 31.9405 87.5093 31.822C87.1834 31.7174 86.8862 31.5399 86.6406 31.3034L87.2297 30.2784C87.4088 30.4556 87.6215 30.596 87.8557 30.6913C88.0899 30.7867 88.3408 30.8351 88.5939 30.8339C88.8964 30.8441 89.1932 30.7509 89.4345 30.5701C89.6595 30.3948 89.8631 30.0944 90.0451 29.6689L90.2933 29.1421L86.9318 21.6169H88.3681L91.0263 27.6485L93.6547 21.6169L94.9999 21.6152Z" fill="black"/>
</g>
<defs>
<clipPath id="clip0_174_2587">
<rect width="95" height="30" fill="white" transform="translate(0 2)"/>
</clipPath>
</defs>
</svg>
