<svg width="79" height="83" viewBox="0 0 79 83" fill="none" xmlns="http://www.w3.org/2000/svg">
<path d="M32.0827 57.771L20.6321 46.586C19.7278 45.6649 18.4959 45.1178 17.1906 45.0576C15.8853 44.9974 14.6061 45.4288 13.6169 46.2626C12.9276 46.8632 12.424 47.6399 12.1628 48.5052L10.4334 46.8153V29.7303C10.4642 28.3957 9.9689 27.1005 9.04978 26.1122C8.13066 25.124 6.85795 24.5181 5.49452 24.4199C4.78644 24.383 4.0781 24.4875 3.41276 24.7269C2.74742 24.9664 2.13906 25.3357 1.62483 25.8125C1.1106 26.2892 0.701307 26.8633 0.421945 27.4997C0.142583 28.1361 -0.000979647 28.8214 2.64297e-05 29.5138V52.8732C-0.00242054 53.7098 0.165069 54.5385 0.492801 55.3114C0.820533 56.0844 1.302 56.7862 1.90934 57.3762L16.9543 72.0658V81.7264C16.9543 82.0641 17.0917 82.3881 17.3363 82.6269C17.5809 82.8657 17.9126 82.9999 18.2585 82.9999H35.2128C35.5587 82.9999 35.8904 82.8657 36.135 82.6269C36.3795 82.3881 36.5169 82.0641 36.5169 81.7264V72.6707C37.6497 71.5431 38.4547 70.1415 38.8493 68.6097C39.244 67.078 39.2141 65.4712 38.7627 63.9545C38.3113 62.4377 37.4547 61.0656 36.2808 59.9789C35.1069 58.8922 33.6579 58.1302 32.0827 57.771ZM34.3377 71.1795C34.2014 71.2989 34.0925 71.4449 34.0179 71.6082C33.9433 71.7714 33.9047 71.9482 33.9047 72.1269V80.4529H19.5627V71.5386C19.5626 71.2009 19.4251 70.877 19.1805 70.6382L3.75344 55.5755C3.38914 55.2213 3.10037 54.8002 2.90382 54.3363C2.70728 53.8725 2.60686 53.3752 2.60838 52.8732V29.5138C2.60785 29.1673 2.67973 28.8244 2.81961 28.506C2.95949 28.1875 3.16443 27.9003 3.4219 27.6619C3.67937 27.4235 3.98395 27.2389 4.317 27.1194C4.65005 26.9999 5.00458 26.948 5.35888 26.9668C6.05088 27.0394 6.68934 27.3643 7.14658 27.8766C7.60382 28.389 7.84614 29.051 7.82508 29.7303V47.3425C7.82515 47.6802 7.9626 48.0041 8.2072 48.2428L12.5019 52.4364L13.4239 53.3368L24.7794 64.4249L26.6235 62.6242L15.268 51.5361C15.0389 51.3123 14.8589 51.0452 14.739 50.7512C14.6191 50.4572 14.5619 50.1425 14.5708 49.8261C14.5797 49.5098 14.6546 49.1986 14.7908 48.9115C14.9271 48.6244 15.1218 48.3674 15.3632 48.1562C15.8591 47.7668 16.4872 47.5743 17.1221 47.6173C17.7569 47.6602 18.3519 47.9355 18.788 48.388L30.5177 59.8391C30.7036 60.0208 30.9414 60.1433 31.1998 60.1906C32.3961 60.4079 33.506 60.9482 34.4036 61.7504C35.3012 62.5526 35.9505 63.5844 36.2778 64.7288C36.6051 65.8731 36.5973 67.0841 36.2553 68.2244C35.9133 69.3646 35.2507 70.3884 34.3429 71.1795H34.3377Z" fill="black"/>
<path d="M38.9191 7.09896C39.2405 7.09896 39.5486 6.97431 39.7759 6.75242C40.0031 6.53054 40.1307 6.22959 40.1307 5.9158V1.18316C40.1307 0.869367 40.0031 0.568425 39.7759 0.34654C39.5486 0.124654 39.2405 0 38.9191 0C38.5978 0 38.2896 0.124654 38.0624 0.34654C37.8352 0.568425 37.7075 0.869367 37.7075 1.18316V5.9158C37.7075 6.22959 37.8352 6.53054 38.0624 6.75242C38.2896 6.97431 38.5978 7.09896 38.9191 7.09896Z" fill="black"/>
<path d="M55.1968 13.6819C55.3559 13.6821 55.5135 13.6516 55.6605 13.5921C55.8076 13.5326 55.9411 13.4453 56.0534 13.3353L59.4812 9.98926C59.7036 9.76648 59.8273 9.4671 59.8252 9.15597C59.8232 8.84484 59.6957 8.54701 59.4704 8.327C59.245 8.107 58.94 7.98253 58.6213 7.98055C58.3027 7.97858 57.996 8.09927 57.7678 8.31647L54.3401 11.6626C54.1707 11.8281 54.0553 12.0388 54.0086 12.2683C53.9619 12.4977 53.9859 12.7355 54.0776 12.9516C54.1692 13.1678 54.3245 13.3525 54.5237 13.4825C54.7229 13.6125 54.9571 13.6819 55.1967 13.6819H55.1968Z" fill="black"/>
<path d="M21.7854 13.3361C21.8974 13.4483 22.0311 13.5376 22.1787 13.5989C22.3263 13.6602 22.4849 13.6923 22.6453 13.6933C22.8057 13.6943 22.9647 13.6642 23.1131 13.6047C23.2615 13.5452 23.3963 13.4575 23.5097 13.3468C23.6231 13.236 23.7129 13.1044 23.7738 12.9595C23.8347 12.8146 23.8656 12.6594 23.8645 12.5028C23.8635 12.3461 23.8307 12.1913 23.7679 12.0472C23.7051 11.903 23.6136 11.7725 23.4988 11.6632L20.0721 8.3174C19.9598 8.20675 19.8262 8.11885 19.679 8.05874C19.5318 7.99864 19.3739 7.96752 19.2143 7.96717C19.0548 7.96681 18.8967 7.99724 18.7492 8.05669C18.6018 8.11614 18.4678 8.20345 18.3549 8.31361C18.2421 8.42377 18.1527 8.5546 18.0918 8.6986C18.0308 8.8426 17.9997 8.99692 18 9.15272C18.0003 9.30851 18.0322 9.46271 18.0937 9.60645C18.1553 9.7502 18.2453 9.88066 18.3586 9.99035L21.7854 13.3361Z" fill="black"/>
<path d="M28.9886 8.07604C29.1116 8.36589 29.3476 8.59616 29.6445 8.71618C29.9414 8.83621 30.2749 8.83615 30.5718 8.71603C30.8687 8.59592 31.1045 8.36557 31.2274 8.07568C31.3504 7.78578 31.3503 7.46008 31.2273 7.17023L29.3744 2.8023C29.2514 2.51245 29.0155 2.28217 28.7186 2.16214C28.4217 2.04211 28.0881 2.04215 27.7913 2.16225C27.4944 2.28235 27.2586 2.51268 27.1356 2.80256C27.0127 3.09244 27.0127 3.41814 27.1357 3.70799L28.9886 8.07604Z" fill="black"/>
<path d="M47.2669 8.71548C47.4139 8.7752 47.5715 8.80602 47.7307 8.80616C47.8898 8.8063 48.0475 8.77577 48.1945 8.71632C48.3416 8.65686 48.4752 8.56965 48.5877 8.45968C48.7002 8.34972 48.7893 8.21915 48.85 8.07548L50.7029 3.708C50.8259 3.41815 50.8259 3.09245 50.703 2.80257C50.5801 2.51268 50.3442 2.28235 50.0474 2.16225C49.7505 2.04215 49.4169 2.04211 49.12 2.16214C48.8231 2.28217 48.5872 2.51245 48.4642 2.80231L46.611 7.16967C46.4883 7.45961 46.4884 7.78526 46.6114 8.0751C46.7344 8.36493 46.9702 8.59526 47.2669 8.71548Z" fill="black"/>
<path d="M50.1513 48.8243C50.3277 48.8244 50.502 48.7868 50.662 48.7142C50.8221 48.6416 50.9639 48.5357 51.0776 48.404C51.1913 48.2723 51.2742 48.1179 51.3204 47.9516C51.3666 47.7853 51.3751 47.6112 51.3452 47.4414L49.3078 35.8416L57.9392 27.6269C58.1012 27.4728 58.2158 27.2775 58.2701 27.063C58.3243 26.8486 58.316 26.6236 58.2461 26.4135C58.1761 26.2035 58.0473 26.0167 57.8743 25.8745C57.7013 25.7322 57.491 25.64 57.2671 25.6084L45.3406 23.9159L40.0056 13.3627C39.8942 13.1782 39.7353 13.0253 39.5449 12.9191C39.3544 12.8129 39.1388 12.757 38.9194 12.757C38.7001 12.757 38.4845 12.8129 38.294 12.9191C38.1035 13.0253 37.9447 13.1782 37.8332 13.3627L32.4977 23.9159L20.5713 25.6084C20.3474 25.64 20.1371 25.7322 19.964 25.8745C19.791 26.0167 19.6623 26.2035 19.5923 26.4135C19.5224 26.6236 19.5141 26.8486 19.5683 27.063C19.6225 27.2775 19.7372 27.4728 19.8992 27.6269L28.5306 35.8416L26.4932 47.4414C26.4551 47.6588 26.4801 47.8823 26.5652 48.0866C26.6503 48.291 26.7923 48.468 26.975 48.5977C27.1577 48.7274 27.3739 48.8047 27.5992 48.8207C27.8245 48.8368 28.0499 48.791 28.25 48.6886L38.9192 43.2121L49.5881 48.6885C49.7618 48.7777 49.9551 48.8243 50.1513 48.8243ZM39.4823 40.828C39.3086 40.7388 39.1152 40.6922 38.9189 40.6922C38.7226 40.6922 38.5293 40.7388 38.3556 40.828L29.2962 45.4784L31.026 35.6284C31.0592 35.4393 31.0449 35.2452 30.9843 35.0628C30.9237 34.8804 30.8187 34.715 30.6782 34.581L23.348 27.6055L33.4762 26.1683C33.6707 26.1407 33.8554 26.0674 34.0143 25.9546C34.1732 25.8417 34.3017 25.6928 34.3884 25.5206L38.9192 16.5585L43.4497 25.5206C43.5365 25.6928 43.6649 25.8417 43.8238 25.9546C43.9828 26.0674 44.1674 26.1407 44.3619 26.1683L54.4901 27.6055L47.16 34.581C47.0195 34.715 46.9144 34.8804 46.8538 35.0628C46.7933 35.2452 46.7789 35.4393 46.8121 35.6284L48.5422 45.4784L39.4823 40.828Z" fill="black"/>
<path d="M76.6253 25.82C76.1111 25.3425 75.5027 24.972 74.8373 24.7312C74.1719 24.4904 73.4632 24.3842 72.7545 24.4192C71.3914 24.518 70.1192 25.1241 69.2004 26.1123C68.2816 27.1004 67.7864 28.3953 67.8169 29.7296V46.8148L66.0862 48.5035C65.8252 47.6388 65.322 46.8625 64.6334 46.2621C63.6438 45.4292 62.3648 44.9984 61.0598 45.0586C59.7548 45.1188 58.523 45.6653 57.6182 46.5856L46.1676 57.7707C44.5924 58.1299 43.1434 58.8919 41.9695 59.9786C40.7956 61.0653 39.939 62.4375 39.4876 63.9542C39.0362 65.471 39.0063 67.0778 39.401 68.6095C39.7956 70.1413 40.6006 71.543 41.7334 72.6706V81.7264C41.7334 82.0641 41.8708 82.3881 42.1153 82.6269C42.3599 82.8657 42.6917 82.9999 43.0375 82.9999H59.9918C60.3377 82.9999 60.6694 82.8657 60.914 82.6269C61.1586 82.3881 61.296 82.0641 61.296 81.7264V72.0657L76.3397 57.3759C76.9472 56.786 77.429 56.0842 77.7569 55.3113C78.0849 54.5383 78.2526 53.7095 78.2503 52.8728V29.5131C78.2488 28.8223 78.104 28.139 77.8247 27.5042C77.5454 26.8695 77.1374 26.2966 76.6253 25.82ZM75.6419 52.8728C75.6433 53.3749 75.5427 53.8723 75.3459 54.3361C75.1491 54.8 74.8601 55.2211 74.4956 55.5752L59.0698 70.6381C58.8252 70.8768 58.6877 71.2007 58.6876 71.5384V80.4529H44.3417V72.1281C44.3417 71.9493 44.3031 71.7726 44.2285 71.6093C44.1539 71.4461 44.045 71.3 43.9087 71.1806C43.0009 70.3896 42.3383 69.3659 41.9962 68.2257C41.6541 67.0856 41.6462 65.8746 41.9734 64.7303C42.3005 63.5859 42.9497 62.5541 43.8471 61.7518C44.7445 60.9496 45.8543 60.409 47.0505 60.1916C47.3089 60.1443 47.5467 60.0217 47.7326 59.8401L59.461 48.3876C59.8977 47.9355 60.4927 47.6606 61.1277 47.6176C61.7626 47.5747 62.3908 47.7668 62.8871 48.1558C63.1284 48.3671 63.323 48.6241 63.4592 48.9113C63.5953 49.1984 63.67 49.5097 63.6788 49.826C63.6876 50.1423 63.6303 50.4571 63.5103 50.751C63.3903 51.045 63.2102 51.312 62.981 51.5357L51.6268 62.624L53.4709 64.4247L64.8264 53.3364L65.7485 52.436L70.0431 48.2424C70.2877 48.0036 70.4252 47.6798 70.4252 47.3421V29.7296C70.4042 29.0503 70.6465 28.3883 71.1037 27.876C71.561 27.3636 72.1994 27.0387 72.8914 26.9662C73.2457 26.9473 73.6003 26.9992 73.9333 27.1187C74.2664 27.2382 74.5709 27.4228 74.8284 27.6612C75.0859 27.8997 75.2908 28.1869 75.4307 28.5053C75.5706 28.8237 75.6425 29.1667 75.6419 29.5131V52.8728Z" fill="black"/>
</svg>
