<svg width="79" height="60" viewBox="0 0 79 60" fill="none" xmlns="http://www.w3.org/2000/svg">
<path d="M32.0827 34.1624L20.6321 22.7078C19.7278 21.7645 18.4959 21.2042 17.1906 21.1426C15.8853 21.0809 14.6061 21.5226 13.6169 22.3766C12.9276 22.9916 12.424 23.7871 12.1628 24.6732L10.4334 22.9426V5.4458C10.4642 4.07901 9.9689 2.7526 9.04978 1.74052C8.13066 0.72845 6.85795 0.108028 5.49452 0.00740197C4.78644 -0.0303574 4.0781 0.0766331 3.41276 0.321837C2.74742 0.567041 2.13906 0.945311 1.62483 1.43354C1.1106 1.92177 0.701307 2.50971 0.421945 3.16144C0.142583 3.81317 -0.000979647 4.51501 2.64297e-05 5.22409V29.1465C-0.00242054 30.0033 0.165069 30.852 0.492801 31.6435C0.820533 32.4351 1.302 33.1538 1.90934 33.7581L16.9543 48.8017V58.6952C16.9543 59.0411 17.0917 59.3728 17.3363 59.6174C17.5809 59.8619 17.9126 59.9993 18.2585 59.9993H35.2128C35.5587 59.9993 35.8904 59.8619 36.135 59.6174C36.3795 59.3728 36.5169 59.0411 36.5169 58.6952V49.4212C37.6497 48.2664 38.4547 46.831 38.8493 45.2623C39.244 43.6937 39.2141 42.0482 38.7627 40.4949C38.3113 38.9416 37.4547 37.5364 36.2808 36.4235C35.1069 35.3106 33.6579 34.5302 32.0827 34.1624ZM34.3377 47.894C34.2014 48.0163 34.0925 48.1659 34.0179 48.3331C33.9433 48.5003 33.9047 48.6813 33.9047 48.8643V57.391H19.5627V48.2618C19.5626 47.9159 19.4251 47.5843 19.1805 47.3397L3.75344 31.914C3.38914 31.5513 3.10037 31.1199 2.90382 30.6449C2.70728 30.1699 2.60686 29.6606 2.60838 29.1465V5.22409C2.60785 4.86926 2.67973 4.51806 2.81961 4.19196C2.95949 3.86587 3.16443 3.57174 3.4219 3.32758C3.67937 3.08342 3.98395 2.89435 4.317 2.77196C4.65005 2.64956 5.00458 2.59641 5.35888 2.61575C6.05088 2.69002 6.68934 3.02278 7.14658 3.54748C7.60382 4.07218 7.84614 4.75015 7.82508 5.4458V23.4825C7.82515 23.8284 7.9626 24.16 8.2072 24.4046L12.5019 28.6992L13.4239 29.6213L24.7794 40.9767L26.6235 39.1326L15.268 27.7772C15.0389 27.548 14.8589 27.2745 14.739 26.9734C14.6191 26.6723 14.5619 26.35 14.5708 26.026C14.5797 25.7021 14.6546 25.3834 14.7908 25.0893C14.9271 24.7953 15.1218 24.5321 15.3632 24.3159C15.8591 23.917 16.4872 23.7199 17.1221 23.7639C17.7569 23.8079 18.3519 24.0898 18.788 24.5532L30.5177 36.2804C30.7036 36.4664 30.9414 36.5918 31.1998 36.6403C32.3961 36.8628 33.506 37.4162 34.4036 38.2377C35.3012 39.0592 35.9505 40.1159 36.2778 41.2878C36.6051 42.4598 36.5973 43.7 36.2553 44.8677C35.9133 46.0354 35.2507 47.0839 34.3429 47.894H34.3377Z" fill="black"/>
<path d="M76.6253 1.44223C76.1111 0.953171 75.5027 0.573798 74.8373 0.327178C74.1719 0.0805573 73.4632 -0.0281587 72.7545 0.00764018C71.3914 0.108894 70.1192 0.729547 69.2004 1.74152C68.2816 2.75349 67.7864 4.07955 67.8169 5.44605V22.9429L66.0862 24.6722C65.8252 23.7867 65.322 22.9917 64.6334 22.3768C63.6438 21.5238 62.3648 21.0827 61.0598 21.1443C59.7548 21.206 58.523 21.7656 57.6182 22.7081L46.1676 34.1627C44.5924 34.5305 43.1434 35.3109 41.9695 36.4238C40.7956 37.5367 39.939 38.9419 39.4876 40.4952C39.0362 42.0485 39.0063 43.694 39.401 45.2627C39.7956 46.8313 40.6006 48.2668 41.7334 49.4215V58.6955C41.7334 59.0414 41.8708 59.3731 42.1153 59.6177C42.3599 59.8623 42.6917 59.9997 43.0375 59.9997H59.9918C60.3377 59.9997 60.6694 59.8623 60.914 59.6177C61.1586 59.3731 61.296 59.0414 61.296 58.6955V48.802L76.3397 33.7584C76.9472 33.1542 77.429 32.4356 77.7569 31.644C78.0849 30.8524 78.2526 30.0036 78.2503 29.1468V5.22434C78.2488 4.51688 78.104 3.81705 77.8247 3.16704C77.5454 2.51703 77.1374 1.93031 76.6253 1.44223ZM75.6419 29.1468C75.6433 29.661 75.5427 30.1703 75.3459 30.6453C75.1491 31.1204 74.8601 31.5517 74.4956 31.9143L59.0698 47.3401C58.8252 47.5846 58.6877 47.9162 58.6876 48.2621V57.3913H44.3417V48.8659C44.3417 48.6829 44.3031 48.5019 44.2285 48.3347C44.1539 48.1675 44.045 48.0179 43.9087 47.8956C43.0009 47.0856 42.3383 46.0372 41.9962 44.8696C41.6541 43.702 41.6462 42.4618 41.9734 41.2899C42.3005 40.118 42.9497 39.0613 43.8471 38.2397C44.7445 37.4181 45.8543 36.8646 47.0505 36.6419C47.3089 36.5934 47.5467 36.468 47.7326 36.282L59.461 24.5535C59.8977 24.0905 60.4927 23.809 61.1277 23.765C61.7626 23.721 62.3908 23.9178 62.8871 24.3162C63.1284 24.5325 63.323 24.7957 63.4592 25.0898C63.5953 25.3839 63.67 25.7026 63.6788 26.0266C63.6876 26.3505 63.6303 26.6729 63.5103 26.9739C63.3903 27.2749 63.2102 27.5483 62.981 27.7774L51.6268 39.1329L53.4709 40.977L64.8264 29.6215L65.7485 28.6995L70.0431 24.4048C70.2877 24.1603 70.4252 23.8286 70.4252 23.4828V5.44605C70.4042 4.75039 70.6465 4.07243 71.1037 3.54772C71.561 3.02302 72.1994 2.69026 72.8914 2.61599C73.2457 2.59665 73.6003 2.64981 73.9333 2.7722C74.2664 2.8946 74.5709 3.08366 74.8284 3.32782C75.0859 3.57198 75.2908 3.86611 75.4307 4.19221C75.5706 4.5183 75.6425 4.86951 75.6419 5.22434V29.1468Z" fill="black"/>
<path d="M32.9867 25.7069C33.2313 25.9514 33.563 26.0887 33.9088 26.0887C34.2546 26.0887 34.5863 25.9514 34.8308 25.7069L39.9276 20.6115C39.9941 20.6715 40.058 20.7419 40.1258 20.7954L46.1159 25.7877C46.3503 25.9833 46.6459 26.0904 46.9512 26.0904C47.2565 26.0904 47.5521 25.9833 47.7865 25.7877L53.7766 20.7954C54.4987 20.1956 55.0796 19.4438 55.4777 18.5937C55.8758 17.7436 56.0814 16.8161 56.0798 15.8774C56.1102 14.5109 55.615 13.1848 54.6962 12.1729C53.7774 11.1609 52.5052 10.5403 51.1422 10.439C50.4336 10.4053 49.7255 10.5149 49.0604 10.7614C48.3953 11.0079 47.7868 11.3862 47.2714 11.8736C47.1592 11.9805 47.0523 12.0927 46.9505 12.2088C46.8488 12.0927 46.7419 11.9805 46.6297 11.8736C46.3105 11.5782 45.9551 11.3245 45.572 11.1185C45.4147 9.77989 44.8678 8.51695 43.9992 7.48638C42.9259 6.22532 41.4078 5.42656 39.7606 5.25626C38.6461 5.14518 37.5218 5.32381 36.4966 5.77484C35.4713 6.22587 34.58 6.93401 33.9088 7.83068C33.2382 6.9335 32.3472 6.22472 31.3222 5.773C30.2972 5.32128 29.1729 5.14194 28.0583 5.25234C26.4232 5.45146 24.9189 6.24612 23.8329 7.48444C22.7469 8.72276 22.1553 10.3179 22.1712 11.9649C22.1676 12.8927 22.3482 13.8119 22.7026 14.6694C23.057 15.5268 23.5781 16.3053 24.2357 16.9598L32.9867 25.7069ZM46.9505 16.9598C47.2964 16.9598 47.6281 16.8224 47.8727 16.5779C48.1173 16.3333 48.2547 16.0016 48.2547 15.6557C48.2536 15.3016 48.3251 14.9512 48.4648 14.6259C48.6046 14.3006 48.8096 14.0075 49.0672 13.7646C49.3247 13.5203 49.6291 13.3307 49.962 13.2074C50.2949 13.0841 50.6494 13.0297 51.0039 13.0473C51.6961 13.1213 52.3349 13.4539 52.7924 13.9787C53.2499 14.5034 53.4924 15.1815 53.4714 15.8774C53.4713 16.4327 53.3488 16.9811 53.1128 17.4837C52.8769 17.9864 52.5331 18.4309 52.1059 18.7857L46.9505 23.0894L41.7938 18.7857C41.3669 18.4307 41.0234 17.9862 40.7876 17.4835C40.5519 16.9809 40.4296 16.4326 40.4297 15.8774C40.4086 15.1817 40.6509 14.5038 41.1082 13.9791C41.5654 13.4544 42.2039 13.1216 42.8959 13.0473H43.038C43.7298 13.0473 44.3932 13.3221 44.8824 13.8113C45.3716 14.3005 45.6464 14.9639 45.6464 15.6557C45.6464 16.0016 45.7838 16.3333 46.0283 16.5779C46.2729 16.8224 46.6046 16.9598 46.9505 16.9598ZM28.3087 7.85024C28.8521 7.79673 29.4007 7.85756 29.9192 8.02884C30.4378 8.20011 30.9147 8.47803 31.3193 8.84471C31.724 9.2114 32.0474 9.65872 32.2687 10.1579C32.4901 10.6571 32.6045 11.1971 32.6046 11.7432C32.6046 12.0891 32.742 12.4208 32.9866 12.6654C33.2312 12.9099 33.5629 13.0473 33.9088 13.0473C34.2547 13.0473 34.5864 12.9099 34.831 12.6654C35.0756 12.4208 35.213 12.0891 35.213 11.7432C35.2135 11.1973 35.3279 10.6575 35.5489 10.1583C35.7699 9.65908 36.0925 9.21146 36.4963 8.84402C36.8761 8.49323 37.3231 8.22298 37.8102 8.04956C38.2973 7.87613 38.8145 7.80312 39.3305 7.83493C39.8466 7.86673 40.3509 8.0027 40.813 8.23462C41.2752 8.46654 41.6855 8.78963 42.0194 9.1844C42.3364 9.55904 42.5862 9.98571 42.7576 10.4455C41.3959 10.5471 40.125 11.1669 39.2067 12.1775C38.2883 13.188 37.7925 14.5122 37.8213 15.8774C37.8222 16.7722 38.0111 17.6568 38.3756 18.474L33.9088 22.9407L26.0837 15.1157C25.669 14.7035 25.3403 14.2131 25.1164 13.6729C24.8925 13.1327 24.778 12.5535 24.7796 11.9688C24.7588 10.9686 25.1072 9.99577 25.7582 9.23608C26.4091 8.4764 27.3171 7.98306 28.3087 7.85024Z" fill="black"/>
<path d="M18.2582 0.00650024H15.6499V2.61489H18.2582V0.00650024Z" fill="black"/>
<path d="M15.6501 2.61554H13.0417V5.22457H15.6501V2.61554Z" fill="black"/>
<path d="M18.2582 5.22327H15.6499V7.831H18.2582V5.22327Z" fill="black"/>
<path d="M20.8666 2.61554H18.2583V5.22457H20.8666V2.61554Z" fill="black"/>
<path d="M40.4291 26.0903H37.8208V28.6994H40.4291V26.0903Z" fill="black"/>
<path d="M37.821 28.7007H35.2126V31.3078H37.821V28.7007Z" fill="black"/>
<path d="M40.4291 31.3071H37.8208V33.9149H40.4291V31.3071Z" fill="black"/>
<path d="M43.0375 28.7007H40.4292V31.3078H43.0375V28.7007Z" fill="black"/>
<path d="M62.6005 5.22327H59.9922V7.831H62.6005V5.22327Z" fill="black"/>
<path d="M59.9921 7.83362H57.3838V10.4407H59.9921V7.83362Z" fill="black"/>
<path d="M62.6005 10.4388H59.9922V13.0478H62.6005V10.4388Z" fill="black"/>
<path d="M65.2089 7.83362H62.6006V10.4407H65.2089V7.83362Z" fill="black"/>
</svg>
