<svg width="60" height="60" viewBox="0 0 60 60" fill="none" xmlns="http://www.w3.org/2000/svg">
<path d="M23 10.0006C23.5933 10.0006 24.1734 9.82462 24.6667 9.49494C25.1601 9.16527 25.5446 8.69669 25.7716 8.14846C25.9987 7.60022 26.0581 6.99697 25.9424 6.41497C25.8266 5.83297 25.5409 5.29836 25.1213 4.87877C24.7018 4.45917 24.1672 4.17342 23.5853 4.05765C23.0033 3.94188 22.4001 4.0013 21.8519 4.22839C21.3038 4.45547 20.8352 4.84002 20.5056 5.33342C20.1759 5.82682 20 6.40689 20 7.00029C20 7.79602 20.3161 8.55916 20.8787 9.12182C21.4413 9.68448 22.2043 10.0006 23 10.0006ZM23 6.0002C23.1978 6.0002 23.3911 6.05885 23.5556 6.16874C23.72 6.27864 23.8482 6.43483 23.9239 6.61757C23.9996 6.80032 24.0194 7.0014 23.9808 7.1954C23.9422 7.3894 23.847 7.5676 23.7071 7.70747C23.5673 7.84733 23.3891 7.94259 23.1951 7.98117C23.0011 8.01976 22.8 7.99996 22.6173 7.92426C22.4346 7.84857 22.2784 7.72038 22.1685 7.55592C22.0586 7.39145 22 7.19809 22 7.00029C22 6.73505 22.1054 6.48067 22.2929 6.29312C22.4804 6.10556 22.7348 6.0002 23 6.0002Z" fill="black"/>
<path d="M28 44.001H6V46.001H28V44.001Z" fill="black"/>
<path d="M12 47.9995H6V49.9995H12V47.9995Z" fill="black"/>
<path d="M28 47.9995H14V49.9995H28V47.9995Z" fill="black"/>
<path d="M18 52.001H6V54.0003H18V52.001Z" fill="black"/>
<path d="M28 52.001H20V54.0003H28V52.001Z" fill="black"/>
<path d="M9 32.0003H10V41.0006C10 41.2658 10.1054 41.5202 10.2929 41.7077C10.4804 41.8953 10.7348 42.0006 11 42.0006H23C23.2652 42.0006 23.5196 41.8953 23.7071 41.7077C23.8946 41.5202 24 41.2658 24 41.0006V32.0003H25C25.2652 32.0003 25.5196 31.8949 25.7071 31.7074C25.8946 31.5198 26 31.2655 26 31.0002V29.0002C26.0001 28.8143 25.9484 28.6321 25.8507 28.474C25.753 28.3159 25.6132 28.1882 25.447 28.1051L17.447 24.105C17.3082 24.0356 17.1552 23.9995 17 23.9995C16.8448 23.9995 16.6918 24.0356 16.553 24.105L8.553 28.1051C8.38677 28.1882 8.24697 28.3159 8.14929 28.474C8.05161 28.6321 7.99991 28.8143 8 29.0002V31.0002C8 31.2655 8.10536 31.5198 8.29289 31.7074C8.48043 31.8949 8.73478 32.0003 9 32.0003ZM15 40.0005V36.0004H19V40.0005H15ZM22 40.0005H21V35.0004C21 34.7351 20.8946 34.4808 20.7071 34.2932C20.5196 34.1057 20.2652 34.0003 20 34.0003H14C13.7348 34.0003 13.4804 34.1057 13.2929 34.2932C13.1054 34.4808 13 34.7351 13 35.0004V40.0005H12V32.0003H22V40.0005ZM10 29.6182L17 26.1181L24 29.6182V30.0002H10V29.6182Z" fill="black"/>
<path d="M57.366 12.064L55.634 11.064C55.0648 10.7353 54.4365 10.5221 53.7848 10.4365C53.1332 10.3509 52.4711 10.3946 51.8363 10.5651C51.2016 10.7357 50.6067 11.0297 50.0857 11.4303C49.5647 11.8309 49.1278 12.3304 48.8 12.9L46.8 16.364L46 17.751V13C45.9979 11.1441 45.2597 9.36489 43.9474 8.05259C42.6351 6.7403 40.8559 6.00212 39 6H31V5C30.9984 3.67441 30.4711 2.40356 29.5338 1.46622C28.5964 0.528882 27.3256 0.00158786 26 0H20C18.6744 0.00158786 17.4036 0.528882 16.4662 1.46622C15.5289 2.40356 15.0016 3.67441 15 5V6H7C5.14413 6.00212 3.36489 6.7403 2.05259 8.05259C0.740295 9.36489 0.00211736 11.1441 0 13V53C0.00211736 54.8559 0.740295 56.6351 2.05259 57.9474C3.36489 59.2597 5.14413 59.9979 7 60H39C40.8559 59.9979 42.6351 59.2597 43.9474 57.9474C45.2597 56.6351 45.9979 54.8559 46 53V41.752L55.2 25.824L57.2 22.36L59.2 18.896C59.8617 17.7466 60.0402 16.3815 59.6963 15.1006C59.3525 13.8197 58.5144 12.7275 57.366 12.064ZM54.966 22.225L53.966 23.957L47.038 19.957L48.038 18.225L54.966 22.225ZM35.366 50.17L33.866 52.77C33.7324 52.9978 33.5142 53.1635 33.2589 53.231C33.0036 53.2985 32.732 53.2623 32.5033 53.1303C32.2746 52.9982 32.1074 52.7811 32.0382 52.5263C31.9691 52.2714 32.0035 51.9996 32.134 51.77L33.634 49.17L35.366 50.17ZM46.036 21.689L48.636 23.189L38.474 40.789L35.274 40.329L46.036 21.689ZM36.7 48.629L34.3 47.247L34.6 42.253L38.458 42.808L40.869 45.872L36.7 48.629ZM42.206 44.329L40.206 41.789L50.367 24.189L52.967 25.689L42.206 44.329ZM17 11V5C17 4.20435 17.3161 3.44129 17.8787 2.87868C18.4413 2.31607 19.2043 2 20 2H26C26.7956 2 27.5587 2.31607 28.1213 2.87868C28.6839 3.44129 29 4.20435 29 5V11C29 11.2652 29.1054 11.5196 29.2929 11.7071C29.4804 11.8946 29.7348 12 30 12C31.3256 12.0016 32.5964 12.5289 33.5338 13.4662C34.4711 14.4036 34.9984 15.6744 35 17V18H11V17C11.0016 15.6744 11.5289 14.4036 12.4662 13.4662C13.4036 12.5289 14.6744 12.0016 16 12C16.2652 12 16.5196 11.8946 16.7071 11.7071C16.8946 11.5196 17 11.2652 17 11ZM44 53C43.9984 54.3256 43.4711 55.5964 42.5338 56.5338C41.5964 57.4711 40.3256 57.9984 39 58H7C5.6744 57.9984 4.40356 57.4711 3.46622 56.5338C2.52888 55.5964 2.00159 54.3256 2 53V13C2.00159 11.6744 2.52888 10.4036 3.46622 9.46622C4.40356 8.52888 5.6744 8.00159 7 8H15V10.071C13.3348 10.3137 11.8125 11.1471 10.7109 12.4192C9.60936 13.6914 9.00209 15.3172 9 17V19C9 19.2652 9.10536 19.5196 9.29289 19.7071C9.48043 19.8946 9.73478 20 10 20H36C36.2652 20 36.5196 19.8946 36.7071 19.7071C36.8946 19.5196 37 19.2652 37 19V17C36.9979 15.3172 36.3906 13.6914 35.2891 12.4192C34.1875 11.1471 32.6652 10.3137 31 10.071V8H39C40.3256 8.00159 41.5964 8.52888 42.5338 9.46622C43.4711 10.4036 43.9984 11.6744 44 13V21.215L32.8 40.608C32.7221 40.7423 32.6768 40.893 32.668 41.048L32.28 47.508L30.4 50.768C30.203 51.1094 30.0752 51.4863 30.0239 51.8772C29.9726 52.268 29.9987 52.6651 30.1009 53.0458C30.203 53.4265 30.3791 53.7834 30.6192 54.0961C30.8593 54.4087 31.1586 54.671 31.5 54.868C31.8414 55.065 32.2183 55.1928 32.6091 55.2441C33 55.2954 33.3971 55.2693 33.7778 55.1671C34.1585 55.065 34.5154 54.8889 34.8281 54.6488C35.1407 54.4087 35.403 54.1094 35.6 53.768L37.482 50.508L42.882 46.942C43.0118 46.857 43.1197 46.7425 43.197 46.608L43.997 45.216L44 53ZM57.464 17.9L55.964 20.5L49.036 16.5L50.536 13.9C50.7328 13.5584 50.995 13.2589 51.3077 13.0188C51.6203 12.7786 51.9772 12.6024 52.358 12.5002C52.7388 12.398 53.136 12.3719 53.5268 12.4234C53.9177 12.4748 54.2946 12.6028 54.636 12.8L56.368 13.8C56.7093 13.9972 57.0083 14.2596 57.2481 14.5724C57.4879 14.8852 57.6637 15.2422 57.7655 15.6229C57.8673 16.0037 57.893 16.4007 57.8413 16.7915C57.7896 17.1822 57.6614 17.5589 57.464 17.9Z" fill="black"/>
</svg>
