<svg width="60" height="60" viewBox="0 0 60 60" fill="none" xmlns="http://www.w3.org/2000/svg">
<path d="M51.2009 41.6822L44.3675 48.8666L41.4889 45.5867C40.9902 45.0187 40.1255 44.9628 39.5582 45.4607C38.9889 45.9607 38.9329 46.824 39.4322 47.3913L42.8802 51.3184C43.2422 51.7324 43.7622 51.9751 44.3069 51.9864C44.3195 51.9877 44.3322 51.9877 44.3455 51.9877C44.8755 51.9877 45.3889 51.7664 45.7589 51.3758L53.1829 43.5682C53.7036 43.0215 53.6816 42.1542 53.1349 41.6349C52.5876 41.1136 51.7209 41.1363 51.2009 41.6822Z" fill="black"/>
<path d="M31.2128 36.2453H20.5208C19.7648 36.2453 19.1521 36.8581 19.1521 37.6135C19.1521 38.3703 19.7648 38.9824 20.5208 38.9824H31.2114C31.9681 38.9824 32.5801 38.3703 32.5801 37.6135C32.5794 36.8581 31.9674 36.2453 31.2128 36.2453Z" fill="black"/>
<path d="M20.5208 18.2461H38.2114C38.9668 18.2461 39.5788 17.6331 39.5788 16.8766C39.5788 16.1202 38.9668 15.5071 38.2114 15.5071H20.5208C19.7648 15.5071 19.1521 16.1202 19.1521 16.8766C19.1521 17.6331 19.7654 18.2461 20.5208 18.2461Z" fill="black"/>
<path d="M39.5781 26.9874C39.5781 26.2317 38.9661 25.6182 38.2108 25.6182H20.5208C19.7648 25.6182 19.1521 26.2317 19.1521 26.9874C19.1521 27.7436 19.7648 28.3565 20.5208 28.3565H38.2114C38.9661 28.3565 39.5781 27.7436 39.5781 26.9874Z" fill="black"/>
<path d="M14.5913 11.824L11.246 15.3431L10.2926 13.9125C9.87395 13.2853 9.02395 13.1146 8.39529 13.5332C7.76728 13.9525 7.59728 14.8012 8.01595 15.4304L9.37862 17.4743C9.75328 18.0356 10.3366 18.3882 10.9793 18.4436C11.038 18.4489 11.0973 18.4509 11.1566 18.4509C11.738 18.4509 12.3006 18.2056 12.7226 17.7623L16.574 13.7092C17.0946 13.1619 17.0726 12.296 16.5253 11.7754C15.9786 11.2554 15.1126 11.2774 14.5913 11.824Z" fill="black"/>
<path d="M14.5913 21.9358L11.2466 25.4555L10.2926 24.025C9.87395 23.3963 9.02528 23.2264 8.39528 23.645C7.76728 24.0643 7.59728 24.9129 8.01595 25.5422L9.37795 27.5853C9.75262 28.1466 10.3359 28.4999 10.9793 28.5559C11.0379 28.5612 11.0973 28.5632 11.1566 28.5632C11.7379 28.5632 12.3006 28.3186 12.7226 27.874L16.5739 23.8203C17.0946 23.273 17.0726 22.4064 16.5246 21.8871C15.9779 21.3665 15.1126 21.3879 14.5913 21.9358Z" fill="black"/>
<path d="M14.5913 32.5627L11.2466 36.0806L10.2926 34.6497C9.87395 34.021 9.02528 33.8503 8.39528 34.2703C7.76728 34.689 7.59728 35.5378 8.01595 36.1679L9.37795 38.2116C9.75262 38.773 10.3366 39.1257 10.9793 39.1817C11.0379 39.187 11.0979 39.1897 11.1573 39.1897C11.7379 39.1897 12.3013 38.9443 12.7233 38.5003L16.5739 34.4497C17.0939 33.9029 17.0726 33.0355 16.5253 32.5161C15.9786 31.9933 15.1126 32.0147 14.5913 32.5627Z" fill="black"/>
<path d="M47.3653 33.5727V6.57533C47.366 2.95 44.416 0 40.7907 0H19.4867H18.3353H6.57467C2.94933 0 0 2.95 0 6.57533V46.4413C0 50.0667 2.94933 53.0153 6.57467 53.0153H34.6613C36.8987 57.1693 41.2867 60 46.3253 60C53.6247 60 59.564 54.0607 59.564 46.7607C59.5647 39.8107 54.18 34.1067 47.3653 33.5727ZM33.5753 50.28H6.57533C4.458 50.28 2.73667 48.558 2.73667 46.4413V6.57533C2.73667 4.458 4.458 2.73667 6.57533 2.73667H18.336H19.4873H40.792C42.908 2.73667 44.6293 4.45867 44.6293 6.57533V33.6407C38.1293 34.4773 33.0867 40.0367 33.0867 46.7607C33.086 47.982 33.266 49.1573 33.5753 50.28ZM46.3253 57.264C40.5333 57.264 35.8213 52.5527 35.8213 46.76C35.8213 40.968 40.532 36.2553 46.3253 36.2553C52.1173 36.2553 56.828 40.9673 56.828 46.76C56.828 52.5527 52.1173 57.264 46.3253 57.264Z" fill="black"/>
</svg>
