<svg width="58" height="60" viewBox="0 0 58 60" fill="none" xmlns="http://www.w3.org/2000/svg">
<path d="M39.18 0C30.5365 0 23.281 6.11992 21.5144 14.2588C21.5775 14.2588 21.6406 14.2588 21.7037 14.2588C22.6501 14.4481 23.5964 14.7635 24.4166 15.2052C25.7415 8.26505 31.8614 3.02842 39.18 3.02842C47.445 3.02842 54.1958 9.77926 54.1958 18.0443C54.1958 25.1106 49.2747 31.1044 42.6501 32.6817C43.0286 33.3126 43.281 34.0066 43.4703 34.7637C43.5334 35.0161 43.5965 35.3315 43.5965 35.5839C51.4198 33.5649 57.2242 26.4986 57.2242 18.0443C57.2873 8.13887 49.1485 0 39.18 0Z" fill="black"/>
<path d="M29.6531 18.927C29.6531 24.2273 33.9433 28.518 39.243 28.518C44.5427 28.518 48.8329 24.2273 48.8329 18.927C48.8329 18.1067 48.1389 17.4126 47.3187 17.4126H31.1673C30.284 17.4126 29.6531 18.1067 29.6531 18.927ZM45.5521 20.4413C44.8581 23.3439 42.2714 25.4261 39.1799 25.4261C36.0884 25.4261 33.5017 23.2808 32.8076 20.4413H45.5521Z" fill="black"/>
<path d="M36.9716 11.7364C36.9716 10.2852 35.7728 9.08643 34.3217 9.08643C32.8706 9.08643 31.6719 10.2852 31.6719 11.7364C31.6719 13.1875 32.8706 14.3863 34.3217 14.3863C35.8359 14.3863 36.9716 13.1875 36.9716 11.7364Z" fill="black"/>
<path d="M46.6879 11.7364C46.6879 10.2852 45.4891 9.08643 44.038 9.08643C42.5869 9.08643 41.3882 10.2852 41.3882 11.7364C41.3882 13.1875 42.5869 14.3863 44.038 14.3863C45.4891 14.3863 46.6879 13.1875 46.6879 11.7364Z" fill="black"/>
<path d="M41.5142 42.4608C41.5142 41.0728 40.8833 39.811 39.8107 38.9277C40.4417 37.9183 40.694 36.7196 40.4417 35.4578C39.9369 33.3758 37.9811 31.9878 35.836 31.9878H25.0473C25.4259 30.6629 25.9937 28.7702 26.183 26.8144C26.3092 25.4264 26.2461 23.9123 25.9937 22.2088C25.6152 19.7483 23.6593 17.8556 21.1988 17.414C19.2429 17.0985 17.3502 18.3603 16.9085 20.3161L15.9622 24.6693C15.4574 26.9406 14.3218 28.9595 12.6814 30.5367L7.57098 35.3947C7.12934 35.8363 6.49843 36.0887 5.80442 36.0887H1.5142C0.694007 36.0887 0 36.7826 0 37.6028C0 38.423 0.694007 39.117 1.5142 39.117H5.80442C7.25553 39.117 8.58045 38.5492 9.653 37.6028L14.7634 32.7449C16.8454 30.726 18.2965 28.1393 18.9275 25.3002L19.8738 20.947C19.9369 20.5685 20.3155 20.3161 20.694 20.3792C21.8297 20.5685 22.776 21.5148 22.9653 22.6504C23.2177 24.0384 23.2808 25.3002 23.1546 26.4359C22.776 29.6535 21.5142 32.7449 21.5142 32.8711C21.3249 33.3127 21.388 33.8805 21.6404 34.3221C21.9559 34.7638 22.3975 35.0161 22.9022 35.0161H25.4259L25.3628 35.3316C23.47 43.2809 17.0978 42.65 16.8454 42.65C16.4669 42.5869 16.0252 42.7131 15.7098 42.9655C15.3943 43.2178 15.2051 43.5964 15.142 43.9749C15.0789 44.4166 15.2051 44.7951 15.4574 45.1105C15.7098 45.426 16.0883 45.6153 16.4669 45.6784C16.4669 45.6784 16.7193 45.7415 17.1609 45.7415C18.4227 45.7415 21.5773 45.4891 24.2902 43.1548C24.4795 44.2904 25.0473 45.2998 25.9306 45.9938C25.4259 46.7509 25.1735 47.5711 25.1735 48.4543C25.1735 49.7792 25.7413 51.041 26.8139 51.9243C26.3092 52.6814 25.9937 53.5646 25.9937 54.4479C25.9937 55.0157 26.1199 55.6466 26.3723 56.2144C23.47 56.6561 20.1262 56.9084 16.4038 56.9084H15.836C13.3754 56.9084 11.1041 55.5835 9.77919 53.5015L8.959 52.2397C8.70663 51.7981 8.2019 51.5457 7.69717 51.5457H1.5142C0.694007 51.5457 0 52.2397 0 53.0599C0 53.8801 0.694007 54.5741 1.5142 54.5741H6.81388L7.19243 55.1419C9.08518 58.1071 12.3028 59.9367 15.7729 59.9998H16.6562C19.9369 59.9998 24.7319 59.8106 29.1483 58.8011C29.653 58.9904 30.0947 59.0535 30.4732 59.0535H35.142C37.6026 59.0535 39.6215 57.0346 39.6215 54.511C39.6215 53.6277 39.3691 52.7445 38.8013 51.9874C39.8738 51.1041 40.4417 49.8423 40.4417 48.5174C40.4417 47.6342 40.1893 46.814 39.6846 46.0569C40.8833 45.1106 41.5142 43.8487 41.5142 42.4608ZM29.653 35.0161H36.0253C36.8455 35.0161 37.4764 35.647 37.4764 36.4672C37.4764 37.2874 36.8455 37.9183 36.0253 37.9183H29.653C28.8328 37.9183 28.2019 37.2874 28.2019 36.4672C28.2019 35.7101 28.8959 35.0161 29.653 35.0161ZM35.2051 55.899H30.5363C29.7161 55.899 29.0852 55.205 29.0852 54.4479C29.0852 53.6277 29.7161 52.9968 30.5363 52.9968H35.2051C36.0253 52.9968 36.6562 53.6277 36.6562 54.4479C36.6562 55.2681 35.9622 55.899 35.2051 55.899ZM36.0253 49.9054H29.653C28.8328 49.9054 28.2019 49.2745 28.2019 48.4543C28.2019 47.6342 28.8959 47.0033 29.653 47.0033H36.0253C36.8455 47.0033 37.4764 47.6342 37.4764 48.4543C37.4764 49.2745 36.8455 49.9054 36.0253 49.9054ZM37.0347 43.9749H28.7066C27.8865 43.9749 27.2555 43.344 27.2555 42.5239C27.2555 41.7037 27.8865 41.0728 28.7066 41.0728H37.0347C37.8549 41.0728 38.4858 41.7037 38.4858 42.5239C38.4858 43.2809 37.7918 43.9749 37.0347 43.9749Z" fill="black"/>
</svg>
