<svg width="70" height="70" viewBox="0 0 70 70" fill="none" xmlns="http://www.w3.org/2000/svg">
<path d="M35 0C15.7283 0 0 15.7295 0 35C0 54.2717 15.7295 70 35 70C54.2717 70 70 54.2705 70 35C70 15.7283 54.2705 0 35 0ZM4.10156 35C4.10156 17.9625 17.9625 4.10156 35 4.10156C42.7823 4.10156 49.9008 6.9948 55.3392 11.7605L48.6985 18.4012C46.8687 12.577 41.4202 8.33984 35 8.33984C27.7177 8.33984 21.6844 13.791 20.7657 20.8266C16.0308 21.7319 12.4414 25.9038 12.4414 30.8984C12.4414 36.5524 17.0413 41.1523 22.6953 41.1523H25.9474L11.7605 55.3394C6.9948 49.9007 4.10156 42.7823 4.10156 35ZM29.114 37.0508H22.6953C19.3029 37.0508 16.543 34.2908 16.543 30.8984C16.543 27.506 19.3029 24.7461 22.6953 24.7461H24.7461V22.6953C24.7461 17.0413 29.346 12.4414 35 12.4414C40.3797 12.4414 44.8019 16.6067 45.2186 21.8812L29.458 37.6418L29.114 37.0508ZM48.1008 24.7994C51.1183 25.1912 53.457 27.7761 53.457 30.8984C53.457 34.2908 50.6971 37.0508 47.3047 37.0508H40.886L40.2929 38.07C39.1696 40.0001 37.1909 41.1523 35 41.1523C34.0618 41.1523 33.1635 40.9396 32.3537 40.5465L48.1008 24.7994ZM35 65.8984C27.2177 65.8984 20.0992 63.0052 14.6608 58.2395L29.3654 43.5347C31.0167 44.6354 32.9725 45.2539 35 45.2539C38.2067 45.2539 41.2349 43.7082 43.1606 41.1523H47.3047C52.9587 41.1523 57.5586 36.5524 57.5586 30.8984C57.5586 26.6999 55.0218 23.0835 51.4008 21.4993L58.2395 14.6606C63.0052 20.0993 65.8984 27.2177 65.8984 35C65.8984 52.0375 52.0375 65.8984 35 65.8984Z" fill="white"/>
<path d="M35 49.3553C31.6076 49.3553 28.8477 52.1153 28.8477 55.5076C28.8477 58.9 31.6076 61.6599 35 61.6599C38.3924 61.6599 41.1523 58.9 41.1523 55.5076C41.1523 52.1153 38.3924 49.3553 35 49.3553ZM35 57.5584C33.8692 57.5584 32.9492 56.6384 32.9492 55.5076C32.9492 54.3768 33.8692 53.4569 35 53.4569C36.1308 53.4569 37.0508 54.3768 37.0508 55.5076C37.0508 56.6384 36.1308 57.5584 35 57.5584Z" fill="white"/>
</svg>
