<svg width="70" height="70" viewBox="0 0 70 70" fill="none" xmlns="http://www.w3.org/2000/svg">
<path d="M63.4541 0C63.3782 0 63.3029 0.00320435 63.227 0.00961304C62.7797 0.046463 52.7786 0.963974 49.0205 8.25279L35.4488 6.87439C32.1598 6.5406 28.9366 7.68936 26.6062 10.0221L3.19113 33.3466C-1.06505 37.6078 -1.06344 44.5388 3.19434 48.7979L21.1536 66.762C23.3108 68.9196 26.1408 70 28.9612 70C31.7425 69.9995 34.5148 68.949 36.6228 66.8443C37.691 65.7772 37.6921 64.0469 36.6244 62.9793C35.5573 61.9112 33.8254 61.9106 32.7573 62.9771C30.6449 65.0867 27.1748 65.0509 25.0229 62.8981L7.0631 44.934C4.93421 42.8047 4.93368 39.3392 7.05669 37.2137L30.4723 13.8887C31.6399 12.7202 33.2521 12.1455 34.8958 12.3122L55.7037 14.426L55.9747 17.0834C52.1844 18.4955 48.5775 18.7209 48.4952 18.7257C46.9889 18.8068 45.8325 20.0923 45.9116 21.5984C45.9885 23.0569 47.1957 24.188 48.64 24.188C48.6887 24.188 48.7373 24.1869 48.7859 24.1843C48.9612 24.1752 52.4607 23.9749 56.5437 22.6691L57.8166 35.1624C57.9838 36.8019 57.4121 38.4105 56.2472 39.5774L42.9063 52.7152C41.8307 53.7743 41.8179 55.5051 42.8775 56.5802C43.9377 57.6553 45.669 57.6681 46.7447 56.6085L60.0935 43.4632C60.0978 43.4589 60.102 43.4547 60.1069 43.4499C62.4441 41.116 63.593 37.8935 63.258 34.6085L61.8061 20.3642C63.6454 19.288 65.1961 18.0202 66.4358 16.575C68.803 13.8134 70.0027 10.4745 70 6.65169V6.54274C70 2.93518 67.0637 0 63.4541 0ZM64.5308 6.65329C64.533 9.7081 63.4263 12.1867 61.1724 14.1467L60.9185 11.6553C60.7871 10.365 59.7659 9.34441 58.4744 9.21303L55.3024 8.89099C58.1014 6.2207 62.7263 5.56755 63.5524 5.47035C64.1001 5.52055 64.5308 5.98251 64.5308 6.54274V6.65329ZM42.3683 40.0426C41.3006 41.1102 39.5693 41.1102 38.5011 40.0426C37.4329 38.975 37.4329 37.2446 38.5011 36.1776C38.7928 35.886 38.8458 35.5479 38.8388 35.3156C38.8281 34.9423 38.6651 34.5797 38.3803 34.2956L36.7051 32.6208C36.2707 32.1866 35.7117 31.9441 35.1314 31.9377C34.7242 31.934 34.1434 32.0392 33.6149 32.5679L33.1831 32.9994C32.2918 33.8897 32.2592 35.361 33.111 36.2128L34.8829 37.9832C36.3348 39.4343 37.1454 41.3489 37.1668 43.3751C37.1876 45.4296 36.3952 47.3656 34.9337 48.8257L34.7323 49.027C33.2542 50.5048 31.3503 51.2412 29.4341 51.2412C27.8064 51.2418 26.1707 50.7082 24.7777 49.6481L23.6325 50.7526C23.1019 51.2642 22.4174 51.5184 21.7339 51.5184C21.0179 51.5184 20.3024 51.2391 19.7659 50.6831C18.717 49.5969 18.7485 47.8665 19.8354 46.8187L20.8603 45.8302C19.7071 44.5815 19.0557 42.9922 19.0199 41.3222C18.9815 39.5021 19.6756 37.784 20.9752 36.4852C22.0433 35.4182 23.7747 35.4182 24.8429 36.4852C25.9105 37.5528 25.9105 39.2831 24.8429 40.3507C24.6003 40.5927 24.4811 40.8805 24.488 41.2057C24.4955 41.555 24.6516 41.8995 24.9284 42.1756L27.8085 45.0542C28.7105 45.9557 30.0245 46.0016 30.8651 45.162L31.0665 44.9602C31.4796 44.5479 31.7035 44.0053 31.6976 43.4317C31.6912 42.8442 31.4491 42.2819 31.0158 41.8488L29.2433 40.0778C26.2445 37.0802 26.2771 32.1711 29.3154 29.1339L29.7477 28.7024C31.1889 27.262 33.0891 26.4716 35.1063 26.4716H35.1907C36.5854 26.4871 37.9283 26.8791 39.1044 27.5985L40.2789 26.3862C41.33 25.3015 43.0608 25.2737 44.1461 26.3237C45.2308 27.3737 45.2586 29.104 44.208 30.1887L43.0485 31.3855C43.826 32.4937 44.2658 33.7962 44.3058 35.1554C44.3598 37.0043 43.6721 38.74 42.3683 40.0426Z" fill="white"/>
</svg>
