<svg width="24" height="20" viewBox="0 0 24 20" fill="none" xmlns="http://www.w3.org/2000/svg">
<path d="M24 3.04742L22.9412 0C19.5882 0.7546 17.1176 2.06064 15.5294 3.91811C14 5.71755 13.2353 8.38767 13.2353 11.9285V19.7647H21.2647V10.6224H18.0882C17.9706 8.76497 18.3529 7.25577 19.2353 6.09484C20.1765 4.87587 21.7647 3.86007 24 3.04742ZM10.7647 3.04742L9.70588 0C6.35294 0.7546 3.88235 2.06064 2.29412 3.91811C0.764706 5.71755 0 8.38767 0 11.9285V19.7647H8.11765V10.6224H4.85294C4.73529 8.76497 5.11765 7.25577 6 6.09484C6.94118 4.87587 8.52941 3.86007 10.7647 3.04742Z" fill="#FFBA3A"/>
</svg>
