<svg width="24" height="20" viewBox="0 0 24 20" fill="none" xmlns="http://www.w3.org/2000/svg">
<path d="M2.66414e-07 16.7172L1.05882 19.7646C4.41177 19.01 6.88235 17.704 8.47059 15.8465C10 14.0471 10.7647 11.377 10.7647 7.83617L10.7647 -5.45628e-05L2.7353 -5.52648e-05L2.7353 9.14221L5.91177 9.14221C6.02941 10.9997 5.64706 12.5089 4.76471 13.6698C3.82353 14.8888 2.2353 15.9046 2.66414e-07 16.7172ZM13.2353 16.7172L14.2941 19.7646C17.6471 19.01 20.1176 17.704 21.7059 15.8465C23.2353 14.0471 24 11.377 24 7.83617L24 -5.34058e-05L15.8824 -5.41154e-05L15.8824 9.14221L19.1471 9.14221C19.2647 10.9997 18.8824 12.5089 18 13.6698C17.0588 14.8888 15.4706 15.9046 13.2353 16.7172Z" fill="#FFBA3A"/>
</svg>
