<svg width="70" height="61" viewBox="0 0 70 61" fill="none" xmlns="http://www.w3.org/2000/svg">
<path d="M61.3771 42.38C60.3737 41.865 59.1344 42.2445 58.609 43.2272C54.0713 51.7119 45.1827 56.9827 35.4124 56.9827C21.0005 56.9827 9.27305 45.5125 9.24488 31.4031L10.8906 33.015C11.291 33.4072 11.8159 33.6034 12.3406 33.6034C12.8653 33.6034 13.3903 33.4073 13.7907 33.015C14.5916 32.2305 14.5916 30.9588 13.7907 30.1744L8.64578 25.1353C7.84501 24.3509 6.54645 24.3509 5.74555 25.1353L0.600676 30.1744C-0.200225 30.9587 -0.200225 32.2305 0.600676 33.015C1.40144 33.7994 2.7 33.7993 3.5009 33.015L5.14317 31.4066C5.15753 39.3054 8.30425 46.7295 14.0083 52.3164C19.7255 57.9161 27.3269 61 35.4124 61C46.7136 61 56.994 54.9042 62.2421 45.0914C62.7678 44.1086 62.3805 42.8947 61.3771 42.38Z" fill="white"/>
<path d="M69.3993 27.9848C68.5985 27.2004 67.3 27.2004 66.4991 27.9848L64.8566 29.5933C64.8423 21.6944 61.6957 14.2705 55.9915 8.68359C50.2744 3.08392 42.6729 0 34.5875 0C23.2862 0 13.0057 6.0958 7.75759 15.9085C7.2319 16.8911 7.61923 18.1052 8.62262 18.6199C9.62559 19.1346 10.8651 18.7553 11.3908 17.7727C15.9285 9.28806 24.8171 4.01727 34.5875 4.01727C48.9991 4.01727 60.7266 15.4874 60.7551 29.5964L59.1095 27.9847C58.3087 27.2002 57.0102 27.2002 56.2093 27.9847C55.4084 28.7691 55.4084 30.0409 56.2093 30.8253L61.3542 35.8644C61.7546 36.2566 62.2795 36.4528 62.8042 36.4528C63.3289 36.4528 63.8539 36.2568 64.2543 35.8644L69.3992 30.8253C70.2002 30.0409 70.2002 28.7691 69.3993 27.9848Z" fill="white"/>
<path d="M37.8042 28.193C35.9489 27.5506 33.8971 26.7749 32.7465 25.8909C32.3847 25.6132 32.2285 24.9771 32.3571 24.3082C32.4212 23.9745 32.7212 22.8592 33.886 22.5154C35.7983 21.9514 37.11 22.6996 37.5851 23.0475C38.4924 23.7115 39.7773 23.5298 40.4556 22.6413C41.1338 21.7528 40.9482 20.4941 40.041 19.8297C39.6106 19.5145 38.5323 18.8235 36.9866 18.4879V17.6703C36.9866 16.561 36.0684 15.6616 34.9358 15.6616C33.8032 15.6616 32.885 16.561 32.885 17.6703V18.6188C32.8243 18.6354 32.7641 18.6506 32.703 18.6687C30.457 19.3314 28.78 21.2073 28.3265 23.5641C27.9091 25.7335 28.6327 27.8363 30.2151 29.0519C31.5189 30.0534 33.3215 30.9019 36.4372 31.9807C38.5116 32.6988 38.4666 34.3432 38.3509 35.0168C38.1166 36.3826 36.9435 37.8585 34.9221 37.8718C32.9398 37.8855 32.3221 37.7886 30.7993 36.813C29.8516 36.2055 28.5805 36.4657 27.9603 37.3941C27.3403 38.3225 27.6059 39.5674 28.5538 40.1747C30.1962 41.2271 31.4081 41.654 32.885 41.8097V42.7278C32.885 43.8371 33.8032 44.7365 34.9358 44.7365C36.0684 44.7365 36.9866 43.8371 36.9866 42.7278V41.6167C38.1164 41.3121 39.1461 40.7556 40.026 39.9636C41.273 38.8414 42.1145 37.3212 42.3958 35.6828C42.9677 32.3519 41.1224 29.3418 37.8042 28.193Z" fill="white"/>
</svg>
