<svg width="34" height="32" viewBox="0 0 34 32" fill="none" xmlns="http://www.w3.org/2000/svg">
<path d="M26.8495 32C27.0043 32.0001 27.1571 31.9667 27.2974 31.9023C27.4378 31.8379 27.5621 31.7439 27.6618 31.6271C27.7616 31.5102 27.8342 31.3732 27.8748 31.2257C27.9153 31.0782 27.9227 30.9237 27.8965 30.773L26.1099 20.4813L33.6788 13.193C33.8209 13.0563 33.9215 12.883 33.969 12.6927C34.0166 12.5025 34.0093 12.3029 33.9479 12.1165C33.8866 11.9301 33.7737 11.7644 33.622 11.6382C33.4703 11.5119 33.2858 11.4302 33.0895 11.4022L22.631 9.90049L17.9527 0.537408C17.855 0.373726 17.7157 0.238064 17.5487 0.143817C17.3816 0.049571 17.1926 0 17.0002 0C16.8078 0 16.6188 0.049571 16.4518 0.143817C16.2847 0.238064 16.1455 0.373726 16.0477 0.537408L11.369 9.90049L0.910516 11.4022C0.714197 11.4302 0.529739 11.5119 0.378023 11.6382C0.226308 11.7644 0.113393 11.9301 0.0520614 12.1165C-0.00927006 12.3029 -0.0165676 12.5025 0.0309921 12.6927C0.0785518 12.883 0.179071 13.0563 0.32117 13.193L7.89014 20.4813L6.10351 30.773C6.07012 30.9659 6.09199 31.1642 6.16665 31.3455C6.2413 31.5268 6.36577 31.6838 6.526 31.7989C6.68622 31.914 6.87582 31.9826 7.07339 31.9968C7.27096 32.0111 7.46863 31.9705 7.64407 31.8796L17 27.0207L26.3557 31.8795C26.508 31.9587 26.6775 32 26.8495 32ZM17.4938 24.9055C17.3415 24.8263 17.1719 24.7849 16.9998 24.7849C16.8277 24.7849 16.6581 24.8263 16.5057 24.9055L8.56151 29.0314L10.0784 20.2922C10.1075 20.1244 10.0949 19.9522 10.0418 19.7904C9.98867 19.6285 9.89655 19.4818 9.77335 19.3629L3.34546 13.174L12.227 11.8989C12.3975 11.8744 12.5595 11.8094 12.6989 11.7093C12.8382 11.6091 12.9508 11.477 13.0269 11.3243L17 3.37278L20.9729 11.3243C21.049 11.477 21.1616 11.6091 21.3009 11.7093C21.4403 11.8094 21.6023 11.8744 21.7728 11.8989L30.6543 13.174L24.2264 19.3629C24.1032 19.4818 24.0111 19.6285 23.958 19.7904C23.9049 19.9522 23.8923 20.1244 23.9214 20.2922L25.4385 29.0314L17.4938 24.9055Z" fill="#FFBA3A"/>
</svg>
