<svg width="33" height="31" viewBox="0 0 33 31" fill="none" xmlns="http://www.w3.org/2000/svg">
<path d="M14.7311 2.35268C15.4815 0.930385 17.5185 0.930385 18.2689 2.35268L21.3899 8.26817C21.6793 8.81666 22.2068 9.19988 22.8179 9.30561L29.4083 10.4459C30.9929 10.7201 31.6223 12.6574 30.5015 13.8106L25.84 18.6068C25.4078 19.0516 25.2063 19.6716 25.2946 20.2855L26.2467 26.9057C26.4756 28.4974 24.8276 29.6947 23.3845 28.9852L17.3825 26.0339C16.826 25.7603 16.174 25.7603 15.6175 26.0339L9.61548 28.9852C8.17238 29.6947 6.52444 28.4974 6.75335 26.9057L7.7054 20.2854C7.79368 19.6716 7.59221 19.0516 7.15999 18.6068L2.49848 13.8106C1.37769 12.6574 2.00714 10.7201 3.59172 10.4459L10.1821 9.30561C10.7932 9.19988 11.3207 8.81666 11.6101 8.26817L14.7311 2.35268Z" stroke="white" stroke-width="2" stroke-linejoin="round"/>
</svg>
