<svg width="24" height="24" viewBox="0 0 24 24" fill="none" xmlns="http://www.w3.org/2000/svg">
<path d="M5.52732 5.52746C2.09068 8.96409 2.09068 14.5359 5.52732 17.9725C8.96395 21.4092 14.5358 21.4092 17.9724 17.9725C21.409 14.5359 21.409 8.96409 17.9724 5.52746C14.5358 2.09083 8.96395 2.09083 5.52732 5.52746ZM16.0448 5.97013L5.96998 16.0449C3.86958 13.2258 4.09911 9.21841 6.65869 6.65883C9.21827 4.09925 13.2256 3.86973 16.0448 5.97013ZM16.841 16.8412C14.1601 19.5221 9.8907 19.6466 7.06223 17.2154L17.2153 7.06237C19.6465 9.89085 19.5219 14.1602 16.841 16.8412Z" fill="white" stroke="white" stroke-width="0.1"/>
</svg>
