<svg width="44" height="44" viewBox="0 0 44 44" fill="none" xmlns="http://www.w3.org/2000/svg">
<path d="M22.6667 11.3333C22.6667 9.09182 22.002 6.90063 20.7567 5.03688C19.5113 3.17312 17.7413 1.7205 15.6704 0.862704C13.5995 0.00491079 11.3208 -0.219527 9.12231 0.217772C6.92386 0.655071 4.90446 1.73447 3.31946 3.31946C1.73447 4.90446 0.655071 6.92386 0.217772 9.12231C-0.219527 11.3208 0.00491079 13.5995 0.862704 15.6704C1.7205 17.7413 3.17312 19.5113 5.03688 20.7567C6.90063 22.002 9.09182 22.6667 11.3333 22.6667C14.3381 22.6633 17.2188 21.4682 19.3435 19.3435C21.4682 17.2188 22.6633 14.3381 22.6667 11.3333ZM2.66667 11.3333C2.66667 9.61923 3.17496 7.94362 4.12727 6.5184C5.07957 5.09317 6.43312 3.98234 8.01675 3.32638C9.60037 2.67042 11.343 2.49879 13.0241 2.8332C14.7053 3.1676 16.2495 3.99302 17.4616 5.20508C18.6736 6.41713 19.4991 7.96139 19.8335 9.64255C20.1679 11.3237 19.9963 13.0663 19.3403 14.6499C18.6843 16.2336 17.5735 17.5871 16.1483 18.5394C14.7231 19.4917 13.0474 20 11.3333 20C9.03559 19.9974 6.8327 19.0835 5.20794 17.4587C3.58319 15.834 2.66927 13.6311 2.66667 11.3333Z" fill="black"/>
<path d="M32.6666 21.3335C30.4251 21.3335 28.2339 21.9982 26.3701 23.2435C24.5064 24.4888 23.0537 26.2589 22.196 28.3297C21.3382 30.4006 21.1137 32.6794 21.551 34.8779C21.9883 37.0763 23.0677 39.0957 24.6527 40.6807C26.2377 42.2657 28.2571 43.3451 30.4556 43.7824C32.654 44.2197 34.9328 43.9953 37.0037 43.1375C39.0746 42.2797 40.8446 40.827 42.0899 38.9633C43.3352 37.0995 43.9999 34.9083 43.9999 32.6668C43.9966 29.6621 42.8014 26.7813 40.6768 24.6567C38.5521 22.532 35.6713 21.3368 32.6666 21.3335ZM32.6666 41.3335C30.9525 41.3335 29.2769 40.8252 27.8516 39.8729C26.4264 38.9206 25.3156 37.567 24.6596 35.9834C24.0037 34.3998 23.832 32.6572 24.1665 30.976C24.5009 29.2949 25.3263 27.7506 26.5383 26.5386C27.7504 25.3265 29.2946 24.5011 30.9758 24.1667C32.657 23.8323 34.3996 24.0039 35.9832 24.6599C37.5668 25.3158 38.9204 26.4267 39.8727 27.8519C40.825 29.2771 41.3333 30.9527 41.3333 32.6668C41.3307 34.9646 40.4167 37.1675 38.792 38.7922C37.1672 40.417 34.9643 41.3309 32.6666 41.3335Z" fill="black"/>
<path d="M35.3975 1.5517C35.2511 1.45568 35.0871 1.38946 34.9151 1.35683C34.743 1.32421 34.5662 1.3258 34.3948 1.36154C34.2233 1.39728 34.0606 1.46645 33.9159 1.5651C33.7712 1.66376 33.6474 1.78996 33.5515 1.9365L8.21753 40.6032C8.11827 40.7496 8.04913 40.9143 8.01414 41.0876C7.97915 41.261 7.97901 41.4397 8.01373 41.6131C8.04845 41.7865 8.11733 41.9513 8.21636 42.0979C8.31539 42.2445 8.4426 42.3698 8.59057 42.4668C8.73853 42.5637 8.90431 42.6302 9.07823 42.6624C9.25215 42.6946 9.43075 42.6919 9.60362 42.6545C9.77648 42.617 9.94017 42.5455 10.0851 42.4441C10.2301 42.3428 10.3534 42.2136 10.448 42.0641L35.782 3.39743C35.9757 3.10168 36.044 2.74108 35.9719 2.39496C35.8998 2.04883 35.6932 1.74551 35.3975 1.5517Z" fill="black"/>
<path d="M37.6098 27.7239C37.3598 27.4739 37.0206 27.3335 36.6671 27.3335C36.3135 27.3335 35.9744 27.4739 35.7243 27.7239L32.6671 30.7813L29.6098 27.7239C29.3587 27.4791 29.0212 27.3431 28.6706 27.3453C28.3199 27.3475 27.9842 27.4878 27.7362 27.7358C27.4882 27.9838 27.3479 28.3195 27.3457 28.6702C27.3435 29.0209 27.4795 29.3583 27.7243 29.6094L30.7817 32.6667L27.7243 35.7239C27.5979 35.8472 27.4973 35.9943 27.4282 36.1567C27.3591 36.3191 27.3229 36.4937 27.3218 36.6702C27.3207 36.8467 27.3546 37.0217 27.4217 37.185C27.4887 37.3483 27.5875 37.4966 27.7123 37.6214C27.8371 37.7463 27.9855 37.845 28.1488 37.9121C28.3121 37.9791 28.487 38.0131 28.6636 38.0119C28.8401 38.0108 29.0146 37.9747 29.177 37.9056C29.3395 37.8365 29.4866 37.7358 29.6098 37.6094L32.6671 34.5521L35.7243 37.6094C35.9754 37.8542 36.3129 37.9903 36.6636 37.988C37.0142 37.9858 37.3499 37.8455 37.5979 37.5975C37.8459 37.3496 37.9862 37.0139 37.9884 36.6632C37.9906 36.3125 37.8546 35.975 37.6098 35.7239L34.5525 32.6667L37.6098 29.6094C37.8598 29.3594 38.0002 29.0203 38.0002 28.6667C38.0002 28.3131 37.8598 27.974 37.6098 27.7239Z" fill="black"/>
</svg>
