<svg width="61" height="60" viewBox="0 0 61 60" fill="none" xmlns="http://www.w3.org/2000/svg">
<path d="M5.81598 18.8961C7.00824 20.8229 9.15469 22.0703 11.5063 22.2348C12.8428 24.0523 15.0608 25.1613 17.4192 25.1613C19.7776 25.1613 21.9957 24.0523 23.3321 22.2358C25.6837 22.0713 27.8292 20.8239 29.0224 18.8971C30.2195 16.9616 30.3124 14.5906 29.3011 12.5816C30.3124 10.5726 30.2195 8.20161 29.0224 6.26613C27.8302 4.33935 25.6837 3.09194 23.3321 2.92742C21.9957 1.10903 19.7786 0 17.4192 0C15.0598 0 12.8428 1.10903 11.5063 2.92548C9.15469 3.09 7.0092 4.33742 5.81598 6.26419C4.61888 8.19968 4.52598 10.5706 5.53727 12.5797C4.52598 14.5897 4.61791 16.9606 5.81598 18.8961ZM7.46791 12.0716C6.53888 10.5697 6.53598 8.78032 7.46211 7.28419C8.39307 5.77936 10.1437 4.84452 12.0318 4.84452H12.5708L12.8544 4.38581C13.7902 2.87419 15.5398 1.93548 17.4192 1.93548C19.2986 1.93548 21.0482 2.87419 21.985 4.38484L22.2686 4.84355H22.8076C24.6947 4.84452 26.4463 5.77936 27.3773 7.28323C28.3034 8.77936 28.3005 10.5697 27.3715 12.0706L27.056 12.5806L27.3705 13.0897C28.2995 14.5916 28.3024 16.381 27.3763 17.8771C26.4453 19.3819 24.6947 20.3168 22.8066 20.3168H22.2676L21.984 20.7755C21.0482 22.2871 19.2986 23.2258 17.4192 23.2258C15.5398 23.2258 13.7902 22.2871 12.8534 20.7765L12.5698 20.3177H12.0308C10.1437 20.3168 8.39211 19.3819 7.46114 17.8781C6.53501 16.3819 6.53791 14.5916 7.46695 13.0906L7.78243 12.5806L7.46791 12.0716Z" fill="black"/>
<path d="M22.5418 6.08955L10.9287 17.7026L12.2973 19.0712L23.9104 7.45813L22.5418 6.08955Z" fill="black"/>
<path d="M21.2904 13.5483C19.6898 13.5483 18.3872 14.8509 18.3872 16.4516C18.3872 18.0522 19.6898 19.3548 21.2904 19.3548C22.8911 19.3548 24.1937 18.0522 24.1937 16.4516C24.1937 14.8509 22.8911 13.5483 21.2904 13.5483ZM21.2904 17.4193C20.7562 17.4193 20.3227 16.9858 20.3227 16.4516C20.3227 15.9174 20.7562 15.4838 21.2904 15.4838C21.8246 15.4838 22.2582 15.9174 22.2582 16.4516C22.2582 16.9858 21.8246 17.4193 21.2904 17.4193Z" fill="black"/>
<path d="M13.5482 11.6131C15.1489 11.6131 16.4515 10.3105 16.4515 8.70987C16.4515 7.10922 15.1489 5.80664 13.5482 5.80664C11.9476 5.80664 10.645 7.10922 10.645 8.70987C10.645 10.3105 11.9476 11.6131 13.5482 11.6131ZM13.5482 7.74212C14.0824 7.74212 14.516 8.17567 14.516 8.70987C14.516 9.24406 14.0824 9.67761 13.5482 9.67761C13.0141 9.67761 12.5805 9.24406 12.5805 8.70987C12.5805 8.17567 13.0141 7.74212 13.5482 7.74212Z" fill="black"/>
<path d="M51.5741 22.5418L52.9424 23.9102L56.5299 20.3228L52.9424 16.7354L51.5741 18.1037L52.8253 19.355H35.8066V21.2905H52.8253L51.5741 22.5418Z" fill="black"/>
<path d="M51.5741 7.05743L52.9424 8.42581L56.5299 4.8384L52.9424 1.25098L51.5741 2.61936L52.8253 3.87065H35.8066V5.80614H52.8253L51.5741 7.05743Z" fill="black"/>
<path d="M56.696 11.6128H39.6772V13.5483H56.696L55.4447 14.7996L56.8131 16.168L60.4005 12.5806L56.8131 8.99316L55.4447 10.3616L56.696 11.6128Z" fill="black"/>
<path d="M53.1987 40.1486C53.2142 39.9928 53.2258 39.836 53.2258 39.6773C53.2258 37.7147 52.0461 36.0289 50.3632 35.2712C50.8897 33.6802 50.8742 31.9421 50.28 30.355L50.0913 29.8508C49.4729 28.2047 47.8752 27.0966 46.1148 27.0966C45.571 27.0966 45.0406 27.1983 44.5384 27.3996L43.1719 27.9463C42.3794 26.8189 41.0777 26.1289 39.6223 26.1289C38.85 26.1289 38.0923 26.3389 37.4284 26.7366L33.6029 29.0321H0.967742C0.432581 29.0321 0 29.4647 0 29.9999V56.1289C0 58.2637 1.73613 59.9999 3.87097 59.9999H30.9677C33.1026 59.9999 34.8387 58.2637 34.8387 56.1289V33.5312L48.5226 56.6225C48.7026 56.9254 49.0248 57.0966 49.3558 57.0966C49.501 57.0966 49.649 57.0637 49.7874 56.995L53.7726 55.0025C55.2261 54.2747 56.129 52.8134 56.129 51.1896C56.129 50.5644 55.9829 49.9479 55.7139 49.377L56.0023 49.2037C57.2748 48.4421 58.0645 47.0466 58.0645 45.5079C58.0645 44.6679 57.8177 43.8531 57.3513 43.1525C56.3671 41.6766 54.8874 40.6228 53.1987 40.1486ZM49.3074 42.2128L44.0506 45.2796L41.4281 40.8531L46.6365 37.6489L49.3074 42.2128ZM51.2903 39.6773C51.2903 40.1912 51.1461 40.675 50.9013 41.1047L48.3668 36.776C48.3736 36.776 48.3803 36.7741 48.3871 36.7741C49.9877 36.7741 51.2903 38.0766 51.2903 39.6773ZM45.2584 29.1966C45.5313 29.0883 45.8197 29.0321 46.1158 29.0321C47.0729 29.0321 47.9429 29.635 48.2787 30.5321L48.4674 31.0354C48.93 32.2673 48.9232 33.6241 48.4684 34.8473C48.4403 34.8463 48.4152 34.8386 48.3871 34.8386C48.0155 34.8386 47.6555 34.8899 47.309 34.9692L44.1813 29.6273L45.2584 29.1966ZM19.3548 30.9676V58.0644H15.4839V30.9676H19.3548ZM1.93548 56.1289V30.9676H13.5484V58.0644H3.87097C2.80355 58.0644 1.93548 57.1963 1.93548 56.1289ZM32.9032 56.1289C32.9032 57.1963 32.0352 58.0644 30.9677 58.0644H21.2903V30.9676H32.9032V56.1289ZM38.4252 28.3963C38.7871 28.1786 39.2013 28.0644 39.691 28.0644C40.5281 28.0644 41.3042 28.5173 41.7242 29.2586L45.6581 35.9776L40.441 39.1876L35.1948 30.3347L38.4252 28.3963ZM52.9074 53.2712L49.7284 54.8612L45.0377 46.946L50.2858 43.8841L53.8926 50.0447C54.09 50.3921 54.1936 50.7879 54.1936 51.1896C54.1936 52.077 53.7 52.8744 52.9074 53.2712ZM55.0074 47.5441L54.7587 47.6931L51.9668 42.9241C52.2261 42.6396 52.4487 42.3289 52.6306 41.996C53.8965 42.3386 55.0065 43.1244 55.741 44.2266C55.9945 44.6079 56.129 45.0512 56.129 45.5631C56.129 46.3702 55.6994 47.1289 55.0074 47.5441Z" fill="black"/>
</svg>
