<svg width="67" height="60" viewBox="0 0 67 60" fill="none" xmlns="http://www.w3.org/2000/svg">
<path d="M29.9918 41.9001C30.2964 41.9001 30.5886 41.779 30.804 41.5636C31.0195 41.3482 31.1405 41.056 31.1405 40.7514V38.454C32.3412 38.3278 33.4593 37.7835 34.2993 36.9162C35.1393 36.049 35.6476 34.914 35.7353 33.7099C35.7353 31.0793 33.2081 28.9313 30.0952 28.8853L29.8884 28.8509C27.9356 28.8509 26.3504 27.7022 26.3504 26.2204C26.3504 24.7385 27.9356 23.6243 29.8884 23.6243C31.3324 23.5821 32.7486 24.0272 33.9088 24.8879C34.1347 24.9924 34.3884 25.0207 34.6318 24.9686C34.8752 24.9164 35.095 24.7867 35.2582 24.5988C35.4215 24.4109 35.5193 24.1751 35.537 23.9269C35.5546 23.6786 35.4912 23.4314 35.3562 23.2223C34.1081 22.2498 32.6112 21.6486 31.0371 21.4877V19.1903C30.9675 18.9517 30.8224 18.7421 30.6236 18.593C30.4247 18.4439 30.1829 18.3633 29.9344 18.3633C29.6858 18.3633 29.444 18.4439 29.2451 18.593C29.0463 18.7421 28.9012 18.9517 28.8316 19.1903V21.4877C27.6309 21.6139 26.5127 22.1582 25.6728 23.0255C24.8328 23.8927 24.3245 25.0277 24.2368 26.2318C24.2368 28.8624 26.7639 31.0104 29.8769 31.0564H30.0837C32.0365 31.0564 33.6217 32.2051 33.6217 33.6869C33.6217 35.1687 32.0365 36.3174 30.0837 36.3174C28.6397 36.3596 27.2235 35.9145 26.0632 35.0538C25.8374 34.8751 25.5527 34.7877 25.2655 34.809C24.9783 34.8303 24.7095 34.9586 24.5125 35.1687C24.3323 35.3931 24.243 35.677 24.2621 35.9642C24.2813 36.2514 24.4075 36.5209 24.6159 36.7194C25.8769 37.7 27.3908 38.3016 28.9809 38.454V40.7514C28.9789 41.0336 29.0808 41.3067 29.2673 41.5185C29.4537 41.7304 29.7116 41.8662 29.9918 41.9001Z" fill="black"/>
<path d="M4.91642 28.8506H1.47033C1.29914 28.8007 1.11866 28.7913 0.943211 28.8232C0.767758 28.8551 0.602142 28.9274 0.459479 29.0344C0.316815 29.1414 0.201022 29.2802 0.121271 29.4397C0.0415196 29.5992 0 29.7751 0 29.9534C0 30.1317 0.0415196 30.3076 0.121271 30.4671C0.201022 30.6266 0.316815 30.7653 0.459479 30.8723C0.602142 30.9793 0.767758 31.0517 0.943211 31.0836C1.11866 31.1155 1.29914 31.1061 1.47033 31.0561H4.91642C5.15502 30.9865 5.36462 30.8414 5.51374 30.6426C5.66287 30.4438 5.74348 30.2019 5.74348 29.9534C5.74348 29.7048 5.66287 29.463 5.51374 29.2642C5.36462 29.0653 5.15502 28.9202 4.91642 28.8506Z" fill="black"/>
<path d="M29.9464 6.08419C30.241 6.06944 30.5186 5.94194 30.7218 5.7281C30.925 5.51425 31.0381 5.23045 31.0377 4.93549V1.48941C31.0911 1.31749 31.1033 1.13544 31.0734 0.957928C31.0435 0.780415 30.9723 0.612414 30.8656 0.467473C30.7588 0.322532 30.6195 0.204709 30.4589 0.123508C30.2982 0.0423067 30.1207 0 29.9407 0C29.7607 0 29.5832 0.0423067 29.4225 0.123508C29.2619 0.204709 29.1225 0.322532 29.0158 0.467473C28.909 0.612414 28.8378 0.780415 28.8079 0.957928C28.778 1.13544 28.7903 1.31749 28.8437 1.48941V4.93549C28.8434 5.23235 28.9581 5.51777 29.1637 5.73192C29.3693 5.94607 29.6498 6.07232 29.9464 6.08419Z" fill="black"/>
<path d="M29.9455 53.9155C29.6409 53.9155 29.3487 54.0365 29.1333 54.252C28.9178 54.4674 28.7968 54.7596 28.7968 55.0642V58.5103C28.7434 58.6822 28.7312 58.8643 28.7611 59.0418C28.791 59.2193 28.8622 59.3873 28.9689 59.5322C29.0757 59.6772 29.215 59.795 29.3757 59.8762C29.5363 59.9574 29.7138 59.9997 29.8938 59.9997C30.0738 59.9997 30.2513 59.9574 30.412 59.8762C30.5726 59.795 30.712 59.6772 30.8187 59.5322C30.9255 59.3873 30.9967 59.2193 31.0266 59.0418C31.0565 58.8643 31.0442 58.6822 30.9908 58.5103V55.0642C30.992 54.7767 30.8853 54.4991 30.6917 54.2864C30.4982 54.0738 30.2319 53.9414 29.9455 53.9155Z" fill="black"/>
<path d="M11.5095 46.9079L9.06281 49.3546C8.86581 49.567 8.75635 49.846 8.75635 50.1357C8.75635 50.4254 8.86581 50.7044 9.06281 50.9168C9.27287 51.1193 9.55215 51.2343 9.84392 51.2384C10.1357 51.2343 10.415 51.1193 10.625 50.9168L13.0603 48.4701C13.1785 48.253 13.2236 48.0035 13.1887 47.7587C13.1538 47.5139 13.0409 47.2869 12.8667 47.1114C12.6925 46.9359 12.4664 46.8214 12.2219 46.7847C11.9774 46.748 11.7275 46.7912 11.5095 46.9079Z" fill="black"/>
<path d="M47.6354 13.4134C47.9232 13.4064 48.1979 13.2916 48.405 13.0918L50.8518 10.6451C51.0488 10.4326 51.1582 10.1536 51.1582 9.86394C51.1582 9.57424 51.0488 9.29524 50.8518 9.08283C50.6394 8.88583 50.3604 8.77637 50.0707 8.77637C49.781 8.77637 49.502 8.88583 49.2895 9.08283L46.8543 11.5295C46.6573 11.742 46.5479 12.021 46.5479 12.3107C46.5479 12.6004 46.6573 12.8794 46.8543 13.0918C47.0644 13.2943 47.3437 13.4093 47.6354 13.4134Z" fill="black"/>
<path d="M11.5098 13.0918C11.717 13.2916 11.9917 13.4064 12.2794 13.4134C12.5712 13.4093 12.8505 13.2943 13.0606 13.0918C13.2575 12.8794 13.367 12.6004 13.367 12.3107C13.367 12.021 13.2575 11.742 13.0606 11.5295L10.5909 9.08283C10.3784 8.88583 10.0994 8.77637 9.80974 8.77637C9.52004 8.77637 9.24104 8.88583 9.02863 9.08283C8.83163 9.29524 8.72217 9.57424 8.72217 9.86394C8.72217 10.1536 8.83163 10.4326 9.02863 10.6451L11.5098 13.0918Z" fill="black"/>
<path d="M48.4065 46.9079C48.1885 46.7912 47.9387 46.748 47.6941 46.7847C47.4496 46.8214 47.2235 46.9359 47.0493 47.1114C46.8751 47.2869 46.7622 47.5139 46.7273 47.7587C46.6924 48.0035 46.7375 48.253 46.8557 48.4701L49.291 50.9168C49.501 51.1193 49.7803 51.2343 50.0721 51.2384C50.3639 51.2343 50.6431 51.1193 50.8532 50.9168C51.0502 50.7044 51.1597 50.4254 51.1597 50.1357C51.1597 49.846 51.0502 49.567 50.8532 49.3546L48.4065 46.9079Z" fill="black"/>
<path d="M42.5241 42.0605C40.9059 43.7642 38.9563 45.119 36.7952 46.0416C34.6341 46.9641 32.3071 47.4348 29.9573 47.4249C27.116 47.4288 24.3169 46.7379 21.8038 45.4123C19.2906 44.0868 17.1397 42.1668 15.5385 39.8197C13.9372 37.4726 12.9342 34.7695 12.6167 31.946C12.2993 29.1225 12.6771 26.2642 13.7172 23.6201C14.7573 20.9761 16.4282 18.6264 18.5843 16.7759C20.7403 14.9255 23.3162 13.6302 26.0874 13.0031C28.8586 12.3761 31.7412 12.4361 34.4839 13.1781C37.2266 13.92 39.7462 15.3214 41.8234 17.2601C42.0429 17.4495 42.326 17.5488 42.6158 17.5381C42.9055 17.5275 43.1805 17.4076 43.3856 17.2027C43.5793 16.9909 43.6868 16.7143 43.6868 16.4273C43.6868 16.1403 43.5793 15.8637 43.3856 15.6519C40.5557 13.0146 37.0093 11.2727 33.1923 10.6452C29.3753 10.0176 25.4579 10.5324 21.9326 12.1249C18.4073 13.7173 15.4314 16.3163 13.379 19.5952C11.3265 22.8741 10.2892 26.6866 10.3973 30.5534C10.5054 34.4201 11.7542 38.1687 13.9866 41.3278C16.2191 44.4869 19.3355 46.9155 22.9443 48.3085C26.5531 49.7015 30.4931 49.9966 34.2691 49.1567C38.0451 48.3169 41.4886 46.3795 44.1667 43.5882C44.2993 43.3627 44.351 43.0987 44.3133 42.8399C44.2755 42.581 44.1505 42.3428 43.9589 42.1647C43.7674 41.9865 43.5207 41.8791 43.2598 41.8601C42.9989 41.8412 42.7394 41.9118 42.5241 42.0605Z" fill="black"/>
<path d="M58.5018 18.7873C58.2271 18.695 57.9276 18.71 57.6634 18.8293C57.3992 18.9487 57.1899 19.1634 57.0775 19.4306L49.2433 40.5551C49.1511 40.8299 49.1661 41.1294 49.2854 41.3935C49.4047 41.6577 49.6195 41.867 49.8866 41.9795C50.0118 42.0249 50.144 42.0482 50.2772 42.0484C50.5013 42.0418 50.7187 41.9698 50.9024 41.8412C51.0861 41.7126 51.2281 41.5331 51.311 41.3247L59.1451 20.2002C59.2341 19.9269 59.2174 19.6302 59.0983 19.3686C58.9792 19.1071 58.7664 18.8996 58.5018 18.7873Z" fill="black"/>
<path d="M47.1188 19.8682C46.146 19.8659 45.1943 20.1523 44.3843 20.6912C43.5743 21.23 42.9423 21.997 42.5685 22.8952C42.1946 23.7933 42.0956 24.7822 42.284 25.7367C42.4724 26.6911 42.9397 27.5682 43.6268 28.257C44.314 28.9457 45.19 29.4151 46.144 29.6057C47.098 29.7963 48.0871 29.6996 48.9861 29.3279C49.8851 28.9561 50.6537 28.326 51.1944 27.5172C51.7351 26.7085 52.0238 25.7575 52.0238 24.7846C52.0238 23.4827 51.5074 22.2339 50.5878 21.3122C49.6683 20.3905 48.4208 19.8712 47.1188 19.8682ZM47.1188 27.484C46.5817 27.4863 46.056 27.329 45.6084 27.0319C45.1608 26.7349 44.8116 26.3117 44.605 25.8159C44.3984 25.32 44.3437 24.774 44.448 24.2471C44.5522 23.7201 44.8106 23.236 45.1905 22.8562C45.5703 22.4764 46.0544 22.218 46.5813 22.1137C47.1082 22.0095 47.6543 22.0642 48.1501 22.2708C48.6459 22.4774 49.0692 22.8266 49.3662 23.2742C49.6632 23.7217 49.8205 24.2475 49.8183 24.7846C49.8152 25.4996 49.5299 26.1845 49.0243 26.69C48.5187 27.1956 47.8338 27.481 47.1188 27.484Z" fill="black"/>
<path d="M61.3976 31.0454C60.4275 31.0454 59.4792 31.3331 58.6726 31.872C57.866 32.411 57.2373 33.177 56.866 34.0733C56.4948 34.9696 56.3977 35.9558 56.5869 36.9072C56.7762 37.8587 57.2433 38.7327 57.9293 39.4187C58.6153 40.1046 59.4892 40.5718 60.4407 40.761C61.3922 40.9503 62.3784 40.8532 63.2746 40.4819C64.1709 40.1107 64.937 39.482 65.4759 38.6754C66.0149 37.8688 66.3025 36.9204 66.3025 35.9503C66.2995 34.6504 65.7818 33.4046 64.8626 32.4854C63.9434 31.5662 62.6975 31.0484 61.3976 31.0454ZM61.3976 38.6613C60.861 38.6635 60.3357 38.5065 59.8884 38.21C59.4411 37.9135 59.0918 37.4909 58.8849 36.9958C58.6779 36.5006 58.6226 35.9552 58.7259 35.4285C58.8292 34.9019 59.0865 34.4178 59.4651 34.0375C59.8438 33.6573 60.3268 33.3979 60.853 33.2924C61.3792 33.1868 61.9249 33.2399 62.4209 33.4447C62.9169 33.6495 63.341 33.997 63.6394 34.443C63.9378 34.8891 64.097 35.4137 64.097 35.9503C64.0971 36.6673 63.813 37.3551 63.3071 37.8632C62.8012 38.3713 62.1146 38.6582 61.3976 38.6613Z" fill="black"/>
</svg>
