<svg width="47" height="47" viewBox="0 0 47 47" fill="none" xmlns="http://www.w3.org/2000/svg">
<path d="M40.2836 32.3876L34.974 37.9699L32.7373 35.4214C32.3498 34.9801 31.6779 34.9366 31.2371 35.3235C30.7947 35.712 30.7512 36.3828 31.1392 36.8236L33.8183 39.875C34.0996 40.1967 34.5037 40.3852 34.9269 40.394C34.9367 40.3951 34.9466 40.3951 34.9569 40.3951C35.3687 40.3951 35.7676 40.2231 36.0551 39.9196L41.8237 33.8529C42.2282 33.4282 42.2111 32.7543 41.7864 32.3508C41.3611 31.9457 40.6877 31.9633 40.2836 32.3876Z" fill="black"/>
<path d="M24.7526 28.1631H16.4448C15.8574 28.1631 15.3813 28.6392 15.3813 29.2262C15.3813 29.8142 15.8574 30.2898 16.4448 30.2898H24.7516C25.3396 30.2898 25.8151 29.8142 25.8151 29.2262C25.8146 28.6392 25.339 28.1631 24.7526 28.1631Z" fill="black"/>
<path d="M16.4448 14.1776H30.1907C30.7776 14.1776 31.2531 13.7012 31.2531 13.1134C31.2531 12.5257 30.7776 12.0493 30.1907 12.0493H16.4448C15.8574 12.0493 15.3813 12.5257 15.3813 13.1134C15.3813 13.7012 15.8579 14.1776 16.4448 14.1776Z" fill="black"/>
<path d="M31.2526 20.9696C31.2526 20.3825 30.7771 19.9058 30.1902 19.9058H16.4448C15.8574 19.9058 15.3813 20.3825 15.3813 20.9696C15.3813 21.5573 15.8574 22.0335 16.4448 22.0335H30.1907C30.7771 22.0335 31.2526 21.5573 31.2526 20.9696Z" fill="black"/>
<path d="M11.8376 9.18745L9.23818 11.9218L8.49743 10.8103C8.17212 10.3228 7.51166 10.1902 7.02318 10.5155C6.53521 10.8413 6.40312 11.5007 6.72843 11.9897L7.78724 13.5778C8.07836 14.0139 8.53162 14.2879 9.03098 14.3309C9.07656 14.335 9.12267 14.3366 9.16877 14.3366C9.62047 14.3366 10.0577 14.146 10.3856 13.8015L13.3781 10.6523C13.7827 10.227 13.7656 9.55417 13.3403 9.14964C12.9155 8.74562 12.2426 8.76272 11.8376 9.18745Z" fill="black"/>
<path d="M11.8375 17.0442L9.2387 19.7791L8.49743 18.6675C8.17212 18.1791 7.51269 18.047 7.02318 18.3723C6.53521 18.6981 6.40312 19.3574 6.72843 19.8464L7.78672 21.434C8.07784 21.8701 8.5311 22.1446 9.03098 22.1881C9.07656 22.1923 9.12266 22.1938 9.16877 22.1938C9.62047 22.1938 10.0577 22.0037 10.3856 21.6582L13.3781 18.5085C13.7827 18.0833 13.7656 17.4099 13.3398 17.0064C12.915 16.6019 12.2426 16.6185 11.8375 17.0442Z" fill="black"/>
<path d="M11.8375 25.3017L9.2387 28.0351L8.49743 26.9233C8.17212 26.4347 7.51269 26.3021 7.02318 26.6285C6.53521 26.9538 6.40312 27.6133 6.72843 28.1029L7.78672 29.6909C8.07784 30.1271 8.53162 30.4011 9.03098 30.4447C9.07656 30.4488 9.12318 30.4509 9.16928 30.4509C9.62047 30.4509 10.0582 30.2602 10.3861 29.9152L13.3781 26.7678C13.7821 26.343 13.7656 25.669 13.3403 25.2654C12.9155 24.8592 12.2426 24.8758 11.8375 25.3017Z" fill="black"/>
<path d="M37.3035 26.0864V5.10912C37.304 2.29219 35.0118 0 32.1949 0H15.6414H14.7468H5.6086C2.79167 0 0.5 2.29219 0.5 5.10912V36.0855C0.5 38.9024 2.79167 41.1936 5.6086 41.1936H27.4323C29.1707 44.4213 32.5803 46.6208 36.4954 46.6208C42.167 46.6208 46.782 42.0058 46.782 36.3336C46.7825 30.9334 42.5985 26.5013 37.3035 26.0864ZM26.5885 39.0682H5.60912C3.96392 39.0682 2.62642 37.7302 2.62642 36.0855V5.10912C2.62642 3.46392 3.96392 2.12642 5.60912 2.12642H14.7473H15.6419H32.1959C33.8401 2.12642 35.1776 3.46444 35.1776 5.10912V26.1392C30.127 26.7893 26.2088 31.109 26.2088 36.3336C26.2082 37.2826 26.3481 38.1959 26.5885 39.0682ZM36.4954 44.4949C31.9949 44.4949 28.3336 40.8341 28.3336 36.3331C28.3336 31.8327 31.9939 28.1709 36.4954 28.1709C40.9958 28.1709 44.6561 31.8321 44.6561 36.3331C44.6561 40.8341 40.9958 44.4949 36.4954 44.4949Z" fill="black"/>
</svg>
