<svg width="60" height="61" viewBox="0 0 60 61" fill="none" xmlns="http://www.w3.org/2000/svg">
<path d="M13.6932 36.2593C14.5413 35.2976 15.5277 34.2379 16.6529 33.0791C18.6024 31.0716 21.4632 29.7204 24.0791 29.7204H34.0512H37.7043C37.715 29.7204 37.7256 29.7204 37.7362 29.7205C37.7545 29.7205 37.773 29.7205 37.7916 29.7205C40.1328 29.7509 42.0874 31.3587 42.6322 33.5188C44.6228 31.4145 46.3831 29.4837 47.913 27.7267C49.9351 25.4045 52.9022 25.1968 55.0644 26.8434C57.2202 28.4851 57.7179 31.3406 55.8287 33.5447C55.495 33.934 51.698 38.6756 50.267 40.3425C48.8423 42.0021 47.527 43.4138 46.2707 44.6025C43.497 47.2269 41.1228 48.6748 39.0039 48.6748C31.2523 48.6748 25.2229 48.6748 20.9157 48.6748L21.2116 49.1835C21.6431 49.9253 21.387 50.8739 20.6396 51.3022L14.5491 54.792C13.8017 55.2203 12.8459 54.9662 12.4143 54.2243L4.20964 40.1204C3.77808 39.3785 4.03418 38.4299 4.78166 38.0016L10.8721 34.5118C11.6195 34.0835 12.5753 34.3377 13.0069 35.0795L13.6932 36.2593ZM14.9343 38.3928L19.5623 46.3483H39.0039C40.3332 46.3483 42.2888 45.1556 44.6532 42.9186C45.8434 41.7924 47.1064 40.4368 48.4827 38.8336C49.8792 37.2068 53.6755 32.4662 54.0431 32.0373C55.0149 30.9034 54.7808 29.5599 53.6374 28.6892C52.4356 27.774 50.875 27.8832 49.6867 29.248C47.4935 31.7667 44.8415 34.6288 41.7298 37.8356C40.8011 39.0316 39.3434 39.8021 37.7043 39.8021H29.8903C29.243 39.8021 28.7182 39.2813 28.7182 38.6388C28.7182 37.9963 29.243 37.4755 29.8903 37.4755H37.7043C38.4981 37.4755 39.2129 37.1399 39.7125 36.6039C39.7443 36.553 39.7808 36.5024 39.8222 36.4525C40.2173 35.9759 40.437 35.382 40.4392 34.7515C40.4339 33.2569 39.2115 32.0469 37.7043 32.0469H29.5335H24.0791C22.139 32.0469 19.8705 33.1184 18.3408 34.6936C16.996 36.0785 15.8602 37.3122 14.9343 38.3928ZM14.0538 52.3894L18.7907 49.6751L11.3675 36.9144L6.63047 39.6287L14.0538 52.3894Z" fill="black"/>
<path d="M38.3682 16.9126C38.3682 17.9982 37.9714 18.8929 37.1777 19.5967C36.3841 20.3005 35.2386 20.7347 33.7412 20.8994V23.3364H32.2476V20.9668C30.3908 20.9368 28.8672 20.6523 27.6768 20.1133V17.7437C28.3206 18.0581 29.0731 18.3239 29.9341 18.541C30.7951 18.7507 31.5662 18.8592 32.2476 18.8667V14.6665L31.3042 14.3184C30.0763 13.8467 29.1779 13.2852 28.6089 12.6338C28.0474 11.9749 27.7666 11.1626 27.7666 10.1968C27.7666 9.16357 28.1672 8.3138 28.9683 7.64746C29.7769 6.98112 30.87 6.57682 32.2476 6.43457V4.54785H33.7412V6.40088C35.2611 6.45329 36.7023 6.76025 38.0649 7.32178L37.2451 9.37695C36.0697 8.91276 34.9017 8.63574 33.7412 8.5459V12.6338L34.5947 12.9595C36.0173 13.506 37.0018 14.0825 37.5483 14.689C38.0949 15.2954 38.3682 16.0366 38.3682 16.9126ZM35.7178 17.0811C35.7178 16.6468 35.5643 16.2912 35.2573 16.0142C34.9578 15.7297 34.4525 15.4564 33.7412 15.1943V18.7769C35.0589 18.5747 35.7178 18.0094 35.7178 17.0811ZM30.4058 10.1743C30.4058 10.6011 30.5368 10.9567 30.7988 11.2412C31.0684 11.5257 31.5513 11.8065 32.2476 12.0835V8.59082C31.6486 8.68066 31.1919 8.8641 30.8774 9.14111C30.563 9.41813 30.4058 9.76253 30.4058 10.1743Z" fill="black"/>
</svg>
