<svg width="49" height="48" viewBox="0 0 49 48" fill="none" xmlns="http://www.w3.org/2000/svg">
<path d="M19.3868 8.00042C19.8615 8.00042 20.3255 7.85965 20.7202 7.59591C21.1149 7.33217 21.4225 6.9573 21.6041 6.51872C21.7858 6.08013 21.8333 5.59752 21.7407 5.13192C21.6481 4.66632 21.4195 4.23864 21.0839 3.90296C20.7482 3.56729 20.3206 3.33869 19.855 3.24607C19.3895 3.15346 18.9069 3.20099 18.4684 3.38266C18.0298 3.56433 17.655 3.87197 17.3913 4.26669C17.1276 4.6614 16.9868 5.12546 16.9868 5.60019C16.9868 6.23677 17.2397 6.84728 17.6898 7.29741C18.1398 7.74754 18.7503 8.00042 19.3868 8.00042ZM19.3868 4.80011C19.545 4.80011 19.6997 4.84703 19.8313 4.93495C19.9628 5.02286 20.0654 5.14781 20.1259 5.29401C20.1865 5.4402 20.2023 5.60107 20.1714 5.75627C20.1406 5.91147 20.0644 6.05403 19.9525 6.16593C19.8406 6.27782 19.6981 6.35402 19.5429 6.38489C19.3877 6.41576 19.2269 6.39992 19.0807 6.33936C18.9345 6.27881 18.8095 6.17626 18.7216 6.04469C18.6337 5.91311 18.5868 5.75843 18.5868 5.60019C18.5868 5.38799 18.6711 5.18449 18.8211 5.03445C18.9712 4.8844 19.1746 4.80011 19.3868 4.80011Z" fill="black"/>
<path d="M23.3866 35.2007H5.78662V36.8007H23.3866V35.2007Z" fill="black"/>
<path d="M10.5866 38.3997H5.78662V39.9996H10.5866V38.3997Z" fill="black"/>
<path d="M23.387 38.3997H12.187V39.9996H23.387V38.3997Z" fill="black"/>
<path d="M15.3866 41.6008H5.78662V43.2003H15.3866V41.6008Z" fill="black"/>
<path d="M23.3868 41.6008H16.9868V43.2003H23.3868V41.6008Z" fill="black"/>
<path d="M8.18672 25.6003H8.98672V32.8006C8.98672 33.0127 9.071 33.2162 9.22103 33.3663C9.37106 33.5163 9.57455 33.6006 9.78672 33.6006H19.3867C19.5989 33.6006 19.8024 33.5163 19.9524 33.3663C20.1024 33.2162 20.1867 33.0127 20.1867 32.8006V25.6003H20.9867C21.1989 25.6003 21.4024 25.516 21.5524 25.366C21.7024 25.2159 21.7867 25.0125 21.7867 24.8003V23.2002C21.7868 23.0516 21.7454 22.9058 21.6673 22.7793C21.5891 22.6529 21.4773 22.5507 21.3443 22.4842L14.9443 19.2841C14.8333 19.2286 14.7108 19.1997 14.5867 19.1997C14.4626 19.1997 14.3402 19.2286 14.2291 19.2841L7.82912 22.4842C7.69613 22.5507 7.58429 22.6529 7.50615 22.7793C7.42801 22.9058 7.38665 23.0516 7.38672 23.2002V24.8003C7.38672 25.0125 7.471 25.2159 7.62103 25.366C7.77106 25.516 7.97455 25.6003 8.18672 25.6003ZM12.9867 32.0005V28.8004H16.1867V32.0005H12.9867ZM18.5867 32.0005H17.7867V28.0004C17.7867 27.7882 17.7024 27.5847 17.5524 27.4347C17.4024 27.2847 17.1989 27.2004 16.9867 27.2004H12.1867C11.9745 27.2004 11.7711 27.2847 11.621 27.4347C11.471 27.5847 11.3867 27.7882 11.3867 28.0004V32.0005H10.5867V25.6003H18.5867V32.0005ZM8.98672 23.6946L14.5867 20.8945L20.1867 23.6946V24.0002H8.98672V23.6946Z" fill="black"/>
<path d="M46.8796 9.6512L45.494 8.8512C45.0387 8.58827 44.536 8.41768 44.0147 8.3492C43.4934 8.28072 42.9637 8.31569 42.4559 8.45211C41.9481 8.58853 41.4722 8.82372 41.0554 9.14423C40.6386 9.46474 40.2891 9.86428 40.0268 10.32L38.4268 13.0912L37.7868 14.2008V10.4C37.7851 8.91531 37.1946 7.49191 36.1447 6.44207C35.0949 5.39224 33.6715 4.80169 32.1868 4.8H25.7868V4C25.7855 2.93952 25.3637 1.92285 24.6138 1.17298C23.864 0.423106 22.8473 0.00127029 21.7868 0H16.9868C15.9263 0.00127029 14.9097 0.423106 14.1598 1.17298C13.4099 1.92285 12.9881 2.93952 12.9868 4V4.8H6.58682C5.10212 4.80169 3.67873 5.39224 2.62889 6.44207C1.57905 7.49191 0.98851 8.91531 0.986816 10.4V42.4C0.98851 43.8847 1.57905 45.3081 2.62889 46.3579C3.67873 47.4078 5.10212 47.9983 6.58682 48H32.1868C33.6715 47.9983 35.0949 47.4078 36.1447 46.3579C37.1946 45.3081 37.7851 43.8847 37.7868 42.4V33.4016L45.1468 20.6592L46.7468 17.888L48.3468 15.1168C48.8762 14.1973 49.019 13.1052 48.7439 12.0805C48.4688 11.0557 47.7983 10.182 46.8796 9.6512ZM44.9596 17.78L44.1596 19.1656L38.6172 15.9656L39.4172 14.58L44.9596 17.78ZM29.2796 40.136L28.0796 42.216C27.9728 42.3982 27.7982 42.5308 27.5939 42.5848C27.3897 42.6388 27.1724 42.6099 26.9895 42.5042C26.8065 42.3986 26.6728 42.2249 26.6174 42.021C26.5621 41.8171 26.5896 41.5996 26.694 41.416L27.894 39.336L29.2796 40.136ZM37.8156 17.3512L39.8956 18.5512L31.766 32.6312L29.206 32.2632L37.8156 17.3512ZM30.3468 38.9032L28.4268 37.7976L28.6668 33.8024L31.7532 34.2464L33.682 36.6976L30.3468 38.9032ZM34.7516 35.4632L33.1516 33.4312L41.2804 19.3512L43.3604 20.5512L34.7516 35.4632ZM14.5868 8.8V4C14.5868 3.36348 14.8397 2.75303 15.2898 2.30294C15.7398 1.85286 16.3503 1.6 16.9868 1.6H21.7868C22.4233 1.6 23.0338 1.85286 23.4839 2.30294C23.934 2.75303 24.1868 3.36348 24.1868 4V8.8C24.1868 9.01217 24.2711 9.21566 24.4211 9.36569C24.5712 9.51571 24.7746 9.6 24.9868 9.6C26.0473 9.60127 27.064 10.0231 27.8138 10.773C28.5637 11.5228 28.9855 12.5395 28.9868 13.6V14.4H9.78682V13.6C9.78809 12.5395 10.2099 11.5228 10.9598 10.773C11.7097 10.0231 12.7263 9.60127 13.7868 9.6C13.999 9.6 14.2025 9.51571 14.3525 9.36569C14.5025 9.21566 14.5868 9.01217 14.5868 8.8ZM36.1868 42.4C36.1855 43.4605 35.7637 44.4772 35.0138 45.227C34.264 45.9769 33.2473 46.3987 32.1868 46.4H6.58682C5.52634 46.3987 4.50966 45.9769 3.75979 45.227C3.00992 44.4772 2.58809 43.4605 2.58682 42.4V10.4C2.58809 9.33952 3.00992 8.32285 3.75979 7.57298C4.50966 6.82311 5.52634 6.40127 6.58682 6.4H12.9868V8.0568C11.6547 8.25093 10.4368 8.91771 9.55555 9.9354C8.6743 10.9531 8.18849 12.2538 8.18682 13.6V15.2C8.18682 15.4122 8.2711 15.6157 8.42113 15.7657C8.57116 15.9157 8.77464 16 8.98682 16H29.7868C29.999 16 30.2025 15.9157 30.3525 15.7657C30.5025 15.6157 30.5868 15.4122 30.5868 15.2V13.6C30.5851 12.2538 30.0993 10.9531 29.2181 9.9354C28.3368 8.91771 27.119 8.25093 25.7868 8.0568V6.4H32.1868C33.2473 6.40127 34.264 6.82311 35.0138 7.57298C35.7637 8.32285 36.1855 9.33952 36.1868 10.4V16.972L27.2268 32.4864C27.1645 32.5938 27.1283 32.7144 27.1212 32.8384L26.8108 38.0064L25.3068 40.6144C25.1492 40.8876 25.047 41.1891 25.0059 41.5017C24.9649 41.8144 24.9858 42.1321 25.0675 42.4367C25.1492 42.7412 25.2901 43.0267 25.4822 43.2769C25.6742 43.527 25.9137 43.7368 26.1868 43.8944C26.46 44.052 26.7615 44.1542 27.0741 44.1953C27.3868 44.2364 27.7045 44.2154 28.0091 44.1337C28.3136 44.052 28.5991 43.9111 28.8493 43.719C29.0994 43.527 29.3092 43.2876 29.4668 43.0144L30.9724 40.4064L35.2924 37.5536C35.3962 37.4856 35.4826 37.394 35.5444 37.2864L36.1844 36.1728L36.1868 42.4ZM46.958 14.32L45.758 16.4L40.2156 13.2L41.4156 11.12C41.5731 10.8467 41.7829 10.6072 42.033 10.415C42.2831 10.2229 42.5686 10.0819 42.8732 10.0002C43.1778 9.91843 43.4956 9.89754 43.8083 9.9387C44.121 9.97985 44.4225 10.0822 44.6956 10.24L46.0812 11.04C46.3542 11.1977 46.5935 11.4077 46.7853 11.6579C46.9771 11.9082 47.1178 12.1937 47.1992 12.4983C47.2806 12.8029 47.3013 13.1206 47.2599 13.4332C47.2185 13.7457 47.1159 14.0471 46.958 14.32Z" fill="black"/>
</svg>
