<svg width="64" height="61" viewBox="0 0 64 61" fill="none" xmlns="http://www.w3.org/2000/svg">
<path d="M48.2689 10.8237C47.5959 10.8237 46.8266 10.7276 46.2497 10.4391L46.0574 10.343L45.4805 11.4007L45.6728 11.4968C46.1535 11.6891 46.8266 11.8814 47.5959 11.8814H47.7882V12.843H49.1343V11.7853H49.3266C50.6728 11.4968 51.442 10.8237 51.442 9.95835C51.442 8.8045 50.2882 8.32373 49.0382 7.93912C47.7882 7.65065 47.4035 7.36219 47.4035 7.07373C47.4035 6.78527 47.7882 6.49681 48.7497 6.49681C49.7112 6.49681 50.2882 6.68911 50.4805 6.78527L50.6728 6.88142L51.2497 5.82373H50.9612C50.4805 5.63142 49.9997 5.53527 49.4228 5.53527H49.2305V4.57373H47.8843V5.53527H47.692C46.442 5.72758 45.6728 6.40065 45.6728 7.26604C45.6728 8.32373 46.9228 8.8045 48.2689 9.18911C49.3266 9.47758 49.7112 9.76604 49.7112 10.1507C49.7112 10.4391 49.2305 10.8237 48.2689 10.8237Z" fill="black"/>
<path d="M14.8077 47.4582C14.1347 47.4582 13.3654 47.3621 12.7885 47.0736L12.5962 46.9774L12.0193 48.0351L12.2116 48.1313C12.6924 48.3236 13.3654 48.5159 14.1347 48.5159H14.327V49.4774H15.6731V48.4198H15.8654C17.2116 48.1313 17.9808 47.4582 17.9808 46.5928C17.9808 45.439 16.827 44.9582 15.577 44.5736C14.327 44.2851 13.9424 43.9967 13.9424 43.7082C13.9424 43.4198 14.327 43.1313 15.2885 43.1313C16.2501 43.1313 16.827 43.3236 17.0193 43.4198L17.2116 43.5159L17.7885 42.4582L17.5001 42.3621C17.0193 42.1698 16.5385 42.0736 15.9616 42.0736H15.7693V41.1121H14.4231V42.0736H14.2308C12.9808 42.2659 12.2116 42.939 12.2116 43.8044C12.2116 44.8621 13.4616 45.3428 14.8077 45.7274C15.8654 46.0159 16.2501 46.3044 16.2501 46.689C16.3462 47.0736 15.7693 47.4582 14.8077 47.4582Z" fill="black"/>
<path d="M63.4614 8.70844C63.4614 4.09305 56.8268 0.439209 48.4614 0.439209C39.9999 0.439209 33.4614 4.09305 33.4614 8.70844V15.4392V22.7469V30.0546V37.3623V44.8623V52.17C33.4614 56.7854 40.096 60.4392 48.4614 60.4392C56.8268 60.4392 63.4614 56.7854 63.4614 52.17V8.70844ZM35.2884 41.5931C37.8845 44.0931 42.6922 45.7277 48.3653 45.7277C54.0383 45.7277 58.9422 44.0931 61.4422 41.5931V44.8623C61.4422 48.3238 55.4807 51.2084 48.3653 51.2084C41.2499 51.2084 35.2884 48.3238 35.2884 44.8623V41.5931ZM48.4614 43.9007C41.346 43.9007 35.3845 41.0161 35.3845 37.5546V34.2854C37.9807 36.7854 42.7884 38.42 48.4614 38.42C54.1345 38.42 59.0384 36.7854 61.5384 34.2854V37.4584C61.5384 40.92 55.5768 43.9007 48.4614 43.9007ZM48.4614 36.5931C41.346 36.5931 35.3845 33.7084 35.3845 30.2469V26.9777C37.9807 29.4777 42.7884 31.1123 48.4614 31.1123C54.1345 31.1123 59.0384 29.4777 61.5384 26.9777V30.1507C61.5384 33.6123 55.5768 36.5931 48.4614 36.5931ZM48.4614 29.1892C41.346 29.1892 35.3845 26.3046 35.3845 22.8431V19.5738C37.9807 22.0738 42.7884 23.7084 48.4614 23.7084C54.1345 23.7084 59.0384 22.0738 61.5384 19.5738V22.7469C61.5384 26.3046 55.5768 29.1892 48.4614 29.1892ZM48.4614 21.8815C41.346 21.8815 35.3845 18.9969 35.3845 15.5354V12.7469C37.9807 15.2469 42.7884 16.8815 48.4614 16.8815C54.1345 16.8815 59.0384 15.2469 61.5384 12.7469V15.4392C61.5384 18.9969 55.5768 21.8815 48.4614 21.8815ZM48.4614 2.36229C55.5768 2.36229 61.5384 5.2469 61.5384 8.70844C61.5384 12.17 55.5768 15.0546 48.4614 15.0546C41.346 15.0546 35.3845 12.17 35.3845 8.70844C35.3845 5.2469 41.346 2.36229 48.4614 2.36229ZM48.4614 58.5161C41.346 58.5161 35.3845 55.6315 35.3845 52.17V48.9969C37.9807 51.4969 42.7884 53.1315 48.4614 53.1315C54.1345 53.1315 59.0384 51.4969 61.5384 48.9969V52.17C61.5384 55.6315 55.5768 58.5161 48.4614 58.5161Z" fill="black"/>
<path d="M15 37.0735C6.63462 37.0735 0 40.7273 0 45.3427V52.1696C0 56.785 6.63462 60.4389 15 60.4389C23.4615 60.4389 30 56.785 30 52.1696V45.3427C30.0962 40.7273 23.4615 37.0735 15 37.0735ZM15 38.9966C22.1154 38.9966 28.0769 41.8812 28.0769 45.3427C28.0769 48.8043 22.1154 51.6889 15 51.6889C7.88462 51.6889 1.92308 48.8043 1.92308 45.3427C1.92308 41.8812 7.88462 38.9966 15 38.9966ZM15 58.5158C7.88462 58.5158 1.92308 55.6312 1.92308 52.1696V49.4773C4.51923 51.9773 9.32692 53.6119 15 53.6119C20.6731 53.6119 25.5769 51.9773 28.0769 49.4773V52.1696C28.1731 55.6312 22.1154 58.5158 15 58.5158Z" fill="black"/>
<path d="M14.9996 30.7277C15.5765 30.7277 15.9612 30.343 15.9612 29.7661V24.4777C15.9612 23.9007 15.5765 23.5161 14.9996 23.5161C14.4227 23.5161 14.0381 23.9007 14.0381 24.4777V29.7661C14.0381 30.343 14.5189 30.7277 14.9996 30.7277Z" fill="black"/>
<path d="M6.82668 33.4202C7.01899 33.7086 7.30745 33.9009 7.59591 33.9009C7.78822 33.9009 7.98052 33.8048 8.07668 33.7086C8.55745 33.4202 8.6536 32.8432 8.36514 32.3625L4.99976 27.074C4.71129 26.5932 4.13437 26.4971 3.6536 26.7856C3.17283 27.074 3.07668 27.6509 3.36514 28.1317L6.82668 33.4202Z" fill="black"/>
<path d="M21.9229 33.7086C22.1152 33.8048 22.3075 33.9009 22.4037 33.9009C22.6921 33.9009 23.0767 33.7086 23.1729 33.4202L26.5383 28.1317C26.8267 27.6509 26.7306 27.074 26.2498 26.7856C25.769 26.4971 25.1921 26.5932 24.9037 27.074L21.6344 32.3625C21.346 32.8432 21.4421 33.4202 21.9229 33.7086Z" fill="black"/>
</svg>
