<svg width="60" height="61" viewBox="0 0 60 61" fill="none" xmlns="http://www.w3.org/2000/svg">
<path d="M43.1574 27.536H49.3548C50.9555 27.536 52.2581 26.2334 52.2581 24.6328V15.1605L59.4203 5.42211C59.7997 4.9005 60 4.28502 60 3.63953V3.46921C60 1.79792 58.6413 0.439209 56.97 0.439209C56.1726 0.439209 55.4197 0.745983 54.8516 1.3034L52.2581 3.83985V3.34243C52.2581 1.74179 50.9555 0.439209 49.3548 0.439209H10.6452C9.04452 0.439209 7.74194 1.74179 7.74194 3.34243V3.83985L5.14935 1.3034C4.57935 0.745983 3.82742 0.439209 3.03 0.439209C1.35871 0.439209 0 1.79792 0 3.46921V3.63953C0 4.28502 0.200323 4.9005 0.582581 5.42598L7.74194 15.1615V24.6328C7.74194 26.2334 9.04452 27.536 10.6452 27.536H16.8426L21.5255 33.9037L15.1345 40.1553C13.769 39.5166 12.2506 39.1489 10.6452 39.1489C4.77581 39.1489 0 43.9247 0 49.794C0 55.6634 4.77581 60.4392 10.6452 60.4392C16.5145 60.4392 21.2903 55.6634 21.2903 49.794C21.2903 47.7037 20.6758 45.7586 19.6316 44.1115L23.91 39.8331L22.5416 38.4647L18.4394 42.567C17.9613 42.0521 17.4348 41.5847 16.8639 41.1715L22.6839 35.4782L24.3813 37.7863C24.5487 38.0128 24.8061 38.1569 25.0877 38.1773C25.3703 38.1976 25.6461 38.096 25.8455 37.8966L30 33.7431L40.3684 44.1115C39.3242 45.7586 38.7097 47.7037 38.7097 49.794C38.7097 55.6634 43.4855 60.4392 49.3548 60.4392C55.2242 60.4392 60 55.6634 60 49.794C60 43.9247 55.2242 39.1489 49.3548 39.1489C47.7494 39.1489 46.231 39.5166 44.8645 40.1553L38.4735 33.9037L43.1574 27.536ZM10.6452 58.5037C5.84323 58.5037 1.93548 54.597 1.93548 49.794C1.93548 44.9911 5.84323 41.0844 10.6452 41.0844C15.4471 41.0844 19.3548 44.9911 19.3548 49.794C19.3548 54.597 15.4471 58.5037 10.6452 58.5037ZM37.0761 32.5363L31.9645 27.536H40.7545L37.0761 32.5363ZM49.3548 25.6005H30V25.614L16.1371 12.0521H50.3226V24.6328C50.3226 25.167 49.8881 25.6005 49.3548 25.6005ZM50.3226 10.1166H14.1581L10.201 6.24566H50.3226V10.1166ZM56.2055 2.68631C56.4106 2.48502 56.6816 2.37469 56.97 2.37469C57.5739 2.37469 58.0645 2.86534 58.0645 3.46921V3.63953C58.0645 3.87276 57.9919 4.09534 57.8584 4.27921L52.2581 11.8934V6.5476L56.2055 2.68631ZM10.6452 2.37469H49.3548C49.8881 2.37469 50.3226 2.80824 50.3226 3.34243V4.31018H9.67742V3.34243C9.67742 2.80824 10.1119 2.37469 10.6452 2.37469ZM10.6452 25.6005C10.1119 25.6005 9.67742 25.167 9.67742 24.6328V17.7928L15.419 25.6005H10.6452ZM58.0645 49.794C58.0645 54.597 54.1568 58.5037 49.3548 58.5037C44.5529 58.5037 40.6452 54.597 40.6452 49.794C40.6452 44.9911 44.5529 41.0844 49.3548 41.0844C54.1568 41.0844 58.0645 44.9911 58.0645 49.794ZM41.5606 42.567L30.6842 31.6905C30.3058 31.3121 29.6942 31.3121 29.3158 31.6905L25.2735 35.7328L2.14452 4.28308C2.00806 4.09437 1.93548 3.87276 1.93548 3.63953V3.46921C1.93548 2.86534 2.42613 2.37469 3.03 2.37469C3.31839 2.37469 3.59032 2.48502 3.79548 2.68631L43.1361 41.1715C42.5652 41.5847 42.0387 42.0521 41.5606 42.567Z" fill="black"/>
<path d="M27.0966 28.5037H25.1611V30.4391H27.0966V28.5037Z" fill="black"/>
<path d="M43.5485 13.9875C42.8595 13.9875 42.2073 14.1366 41.6131 14.3979C41.0189 14.1366 40.3666 13.9875 39.6776 13.9875C37.0095 13.9875 34.8389 16.1582 34.8389 18.8263C34.8389 21.4943 37.0095 23.665 39.6776 23.665C40.3666 23.665 41.0189 23.5159 41.6131 23.2546C42.2073 23.5159 42.8595 23.665 43.5485 23.665C46.2166 23.665 48.3873 21.4943 48.3873 18.8263C48.3873 16.1582 46.2166 13.9875 43.5485 13.9875ZM42.5808 18.8263C42.5808 19.6808 42.2024 20.4424 41.6131 20.9746C41.0237 20.4434 40.6453 19.6808 40.6453 18.8263C40.6453 17.9717 41.0237 17.2101 41.6131 16.6779C42.2024 17.2101 42.5808 17.9717 42.5808 18.8263ZM36.7744 18.8263C36.7744 17.2256 38.0769 15.923 39.6776 15.923C39.6853 15.923 39.6931 15.925 39.7008 15.925C39.0873 16.7359 38.7098 17.7337 38.7098 18.8263C38.7098 19.9188 39.0873 20.9166 39.7008 21.7275C39.6931 21.7275 39.6853 21.7295 39.6776 21.7295C38.0769 21.7295 36.7744 20.4269 36.7744 18.8263ZM43.5485 21.7295C43.5408 21.7295 43.5331 21.7275 43.5253 21.7275C44.1389 20.9166 44.5163 19.9188 44.5163 18.8263C44.5163 17.7337 44.1389 16.7359 43.5253 15.925C43.5331 15.925 43.5408 15.923 43.5485 15.923C45.1492 15.923 46.4518 17.2256 46.4518 18.8263C46.4518 20.4269 45.1492 21.7295 43.5485 21.7295Z" fill="black"/>
<path d="M10.6453 43.0198C6.9098 43.0198 3.87109 46.0595 3.87109 49.794C3.87109 53.5285 6.9098 56.5682 10.6453 56.5682C14.3808 56.5682 17.4195 53.5285 17.4195 49.794C17.4195 46.0595 14.3808 43.0198 10.6453 43.0198ZM10.6453 54.6327C7.97722 54.6327 5.80658 52.462 5.80658 49.794C5.80658 47.1259 7.97722 44.9553 10.6453 44.9553C13.3134 44.9553 15.484 47.1259 15.484 49.794C15.484 52.462 13.3134 54.6327 10.6453 54.6327Z" fill="black"/>
<path d="M49.3548 56.5682C53.0902 56.5682 56.129 53.5285 56.129 49.794C56.129 46.0595 53.0902 43.0198 49.3548 43.0198C45.6193 43.0198 42.5806 46.0595 42.5806 49.794C42.5806 53.5285 45.6193 56.5682 49.3548 56.5682ZM49.3548 44.9553C52.0228 44.9553 54.1935 47.1259 54.1935 49.794C54.1935 52.462 52.0228 54.6327 49.3548 54.6327C46.6867 54.6327 44.5161 52.462 44.5161 49.794C44.5161 47.1259 46.6867 44.9553 49.3548 44.9553Z" fill="black"/>
</svg>
