<svg width="61" height="61" viewBox="0 0 61 61" fill="none" xmlns="http://www.w3.org/2000/svg">
<path d="M6.516 60.4392H42.7552C46.3485 60.4392 49.2712 57.5157 49.2712 53.9225C49.2712 50.5685 46.7242 47.8002 43.4625 47.4462V42.7122C43.4625 42.2975 43.1272 41.9622 42.7125 41.9622H36.7523V32.4702C36.7523 31.3077 36.6015 30.1812 36.3435 29.096L55.6448 9.92596V30.767H54.5565C54.1417 30.767 53.8065 31.1022 53.8065 31.517C53.8065 31.9317 54.1417 32.267 54.5565 32.267H55.6665C55.7902 33.9717 56.667 34.8725 57.3907 35.597C58.0087 36.2165 58.4978 36.7062 58.5592 37.6377C58.593 38.1477 58.4078 38.6465 58.0373 39.0425C57.615 39.4947 57.015 39.7535 56.3925 39.7535C55.1985 39.7535 54.2265 38.7815 54.2265 37.5875C54.2265 37.1727 53.8913 36.8375 53.4765 36.8375C53.0618 36.8375 52.7265 37.1727 52.7265 37.5875C52.7265 39.6087 54.3705 41.2535 56.3925 41.2535C57.4283 41.2535 58.4272 40.8215 59.133 40.067C59.79 39.365 60.1177 38.4672 60.0562 37.538C59.9565 36.0455 59.1577 35.2437 58.4527 34.5372C57.7972 33.8802 57.2693 33.3425 57.1643 32.267H58.233C58.6477 32.267 58.983 31.9317 58.983 31.517C58.983 31.1022 58.6477 30.767 58.233 30.767H57.1448V8.43571L58.8158 6.77671C58.8255 6.76696 58.8292 6.75346 58.8382 6.74296C59.5642 6.07846 60.0278 5.13196 60.0278 4.07296C60.0278 2.06896 58.398 0.439209 56.3948 0.439209C55.581 0.439209 54.8363 0.718209 54.2302 1.17196C54.2183 1.17871 54.2048 1.17946 54.1935 1.18696L27.6615 18.9387C25.9522 18.2367 24.0847 17.843 22.1257 17.843H7.725C7.31025 17.843 6.975 18.1782 6.975 18.593V41.9607H6.003C5.58825 41.9607 5.253 42.296 5.253 42.7107V47.4912C5.253 47.5047 5.25975 47.516 5.2605 47.5287C2.2665 48.116 0 50.7575 0 53.921C0 57.515 2.92275 60.4392 6.516 60.4392ZM10.6702 58.9392C12.1125 57.743 13.0335 55.9377 13.0335 53.9225C13.0335 51.9065 12.1125 50.102 10.6702 48.9065H38.601C37.1587 50.1027 36.2378 51.9072 36.2378 53.9225C36.2378 55.9385 37.1587 57.743 38.601 58.9392H10.6702ZM47.7712 53.9217C47.7712 56.6877 45.5212 58.9385 42.7552 58.9385C39.9892 58.9385 37.7378 56.6885 37.7378 53.9217C37.7378 51.155 39.9885 48.9057 42.7545 48.9057C45.5205 48.9057 47.7712 51.1557 47.7712 53.9217ZM40.578 12.101L42.336 19.769L34.0117 16.4945L40.578 12.101ZM47.7862 7.27771L48.879 13.463L42.0863 11.0915L47.7862 7.27771ZM50.3347 13.0842L49.2847 7.13746L55.023 8.42821L50.3347 13.0842ZM43.824 19.5507L42.2632 12.743L48.4897 14.9165L43.824 19.5507ZM50.0393 5.77021L52.7745 3.94021C52.773 3.98521 52.761 4.02721 52.761 4.07296C52.761 5.06446 53.1623 5.96221 53.808 6.61846L50.0393 5.77021ZM42.0817 21.2817L36.0135 27.3087L33.75 18.0035L42.0817 21.2817ZM58.5278 4.07221C58.5278 5.24821 57.5715 6.20521 56.3948 6.20521C55.218 6.20521 54.261 5.24896 54.261 4.07221C54.261 2.89546 55.218 1.93846 56.3948 1.93846C57.5715 1.93846 58.5278 2.89621 58.5278 4.07221ZM32.1427 17.7447L33.4905 23.282C32.3153 21.8307 30.8692 20.6105 29.229 19.6947L32.1427 17.7447ZM8.475 19.3437H22.1257C29.3632 19.3437 35.2523 25.2327 35.2523 32.4702V41.9615H8.475V19.3437ZM41.9625 43.4615V47.4057H6.753V43.4615H41.9625ZM6.516 48.9057C9.282 48.9057 11.5327 51.1557 11.5327 53.9217C11.5327 56.6877 9.282 58.9385 6.516 58.9385C3.75 58.9385 1.5 56.6877 1.5 53.9217C1.5 51.1557 3.75 48.9057 6.516 48.9057Z" fill="black"/>
<path d="M22.0268 22.9165H13.062C12.6473 22.9165 12.312 23.2518 12.312 23.6665V38.4498C12.312 38.8645 12.6473 39.1998 13.062 39.1998H30.6653C31.08 39.1998 31.4153 38.8645 31.4153 38.4498V32.305C31.4153 27.1285 27.2033 22.9165 22.0268 22.9165ZM29.9153 37.6998H13.812V24.4165H22.0268C26.3768 24.4165 29.9153 27.955 29.9153 32.305V37.6998Z" fill="black"/>
</svg>
