<svg width="24" height="20" viewBox="0 0 24 20" fill="none" xmlns="http://www.w3.org/2000/svg">
<path d="M18.7941 0.000467944C18.7116 0.00444814 18.6312 0.0259713 18.5588 0.063414C18.4865 0.100857 18.4241 0.153241 18.3765 0.216616L13.7397 6.36484C13.682 6.44139 13.6478 6.53137 13.6407 6.62495C13.6337 6.71853 13.6542 6.81213 13.6999 6.89554C13.7456 6.97895 13.8148 7.04897 13.9 7.09796C13.9852 7.14696 14.0831 7.17305 14.183 7.17339H16.365V19.4698C16.365 19.6057 16.4224 19.736 16.5247 19.8321C16.627 19.9282 16.7658 19.9822 16.9105 19.9822H20.7289C20.8736 19.9822 21.0124 19.9282 21.1146 19.8321C21.2169 19.736 21.2744 19.6057 21.2744 19.4698V8.71044C21.2755 8.64255 21.2621 8.57515 21.2351 8.51214C21.2082 8.44914 21.1682 8.3918 21.1174 8.34345C21.0667 8.2951 21.0062 8.2567 20.9395 8.2305C20.8728 8.20429 20.8012 8.1908 20.7289 8.1908C20.6566 8.1908 20.5851 8.20429 20.5184 8.2305C20.4517 8.2567 20.3912 8.2951 20.3405 8.34345C20.2897 8.3918 20.2497 8.44914 20.2227 8.51214C20.1958 8.57515 20.1824 8.64255 20.1834 8.71044V18.9575H17.4559V6.66104C17.4559 6.52516 17.3985 6.39485 17.2962 6.29877C17.1939 6.20268 17.0551 6.1487 16.9105 6.14869H15.2399L18.8197 1.39342L22.3995 6.14869H20.7289C20.6567 6.14773 20.5849 6.16027 20.5178 6.18559C20.4507 6.2109 20.3897 6.24849 20.3382 6.29616C20.2867 6.34383 20.2458 6.40064 20.2179 6.46328C20.19 6.52592 20.1757 6.59314 20.1757 6.66104C20.1757 6.72894 20.19 6.79616 20.2179 6.8588C20.2458 6.92144 20.2867 6.97824 20.3382 7.02591C20.3897 7.07359 20.4507 7.11117 20.5178 7.13649C20.5849 7.16181 20.6567 7.17435 20.7289 7.17339H23.4564C23.5563 7.17305 23.6542 7.14696 23.7394 7.09796C23.8245 7.04897 23.8938 6.97895 23.9395 6.89554C23.9852 6.81213 24.0057 6.71853 23.9986 6.62495C23.9916 6.53137 23.9574 6.44139 23.8996 6.36484L19.2629 0.216616C19.2102 0.146645 19.1397 0.0901965 19.0578 0.0524355C18.9759 0.0146744 18.8853 -0.0031931 18.7941 0.000467944ZM8.67684 7.68574C8.5412 7.69775 8.41526 7.75698 8.32378 7.8518C8.2323 7.94661 8.18189 8.07014 8.18248 8.19809V19.4698C8.18249 19.6057 8.23997 19.736 8.34227 19.8321C8.44457 19.9282 8.58331 19.9822 8.72798 19.9822H12.5465C12.6911 19.9822 12.8299 19.9282 12.9322 19.8321C13.0345 19.736 13.0919 19.6057 13.092 19.4698V8.19809C13.0919 8.06221 13.0345 7.9319 12.9322 7.83582C12.8299 7.73974 12.6911 7.68576 12.5465 7.68574H8.72798C8.71094 7.68499 8.69387 7.68499 8.67684 7.68574ZM9.27348 8.71044H12.001V18.9575H9.27348V8.71044ZM0.494363 10.2475C0.358731 10.2595 0.232789 10.3187 0.141305 10.4136C0.0498219 10.5084 -0.000582348 10.6319 5.07725e-06 10.7599V19.4698C1.95422e-05 19.6057 0.0574961 19.736 0.159794 19.8321C0.262091 19.9282 0.400833 19.9822 0.545503 19.9822H4.36399C4.50866 19.9822 4.6474 19.9282 4.7497 19.8321C4.852 19.736 4.90947 19.6057 4.90949 19.4698V10.7599C4.90947 10.624 4.852 10.4937 4.7497 10.3976C4.6474 10.3015 4.50866 10.2475 4.36399 10.2475H0.545503C0.528466 10.2467 0.5114 10.2467 0.494363 10.2475ZM1.091 11.2722H3.81849V18.9575H1.091V11.2722Z" fill="black"/>
</svg>
