<svg width="24" height="16" viewBox="0 0 24 16" fill="none" xmlns="http://www.w3.org/2000/svg">
<path d="M20.2645 12.7715C20.2645 13.0089 20.0692 13.1988 19.825 13.1988H14.5514C14.4049 13.6024 14.0142 13.911 13.5504 13.911H10.4496C9.98576 13.911 9.59512 13.6261 9.44863 13.1988H4.17497C3.93082 13.1988 3.7355 13.0089 3.7355 12.7715C3.7355 12.5341 3.93082 12.3442 4.17497 12.3442H9.83927C10.0834 12.3442 10.2787 12.5341 10.2787 12.7715V12.8665C10.2787 12.9614 10.352 13.0564 10.4741 13.0564H13.5748C13.6724 13.0564 13.7701 12.9852 13.7701 12.8665V12.7715C13.7701 12.5341 13.9654 12.3442 14.2096 12.3442H19.8739C20.0936 12.3442 20.2645 12.5341 20.2645 12.7715ZM24 12.7715V13.8872C24 15.0504 23.0234 16 21.8271 16H2.17294C0.976602 16 0 15.0504 0 13.8872V12.7715C0 12.5341 0.19532 12.3442 0.439471 12.3442H1.7823V1.37686C1.7823 0.617211 2.41709 0 3.19837 0H20.7772C21.5341 0 22.1689 0.569733 22.2421 1.32938C22.2421 1.35312 22.2421 1.35312 22.2421 1.37686V12.3442H23.5849C23.8291 12.3442 24 12.5341 24 12.7715ZM23.1455 13.1751H21.8026C21.5585 13.1751 21.3632 12.9852 21.3632 12.7478V1.40059C21.3143 1.06825 21.0458 0.830861 20.7528 0.830861H3.17396C2.85656 0.830861 2.61241 1.06825 2.61241 1.37686V12.7478C2.61241 12.9852 2.41709 13.1751 2.17294 13.1751H0.878942V13.8872C0.878942 14.5994 1.4649 15.1691 2.19736 15.1691H21.8515C22.5839 15.1691 23.1699 14.5994 23.1699 13.8872V13.1751H23.1455ZM6.05493 6.4095C6.12818 6.50445 6.25025 6.55193 6.37233 6.55193C6.46999 6.55193 6.56765 6.52819 6.6409 6.45697L8.64293 4.79525C8.74059 4.72404 8.78942 4.60534 8.78942 4.48665C8.78942 4.36795 8.74059 4.24926 8.64293 4.17804L6.6409 2.51632C6.46999 2.37389 6.20142 2.39763 6.03052 2.5638C5.88403 2.72997 5.90844 2.9911 6.07935 3.15727L7.69074 4.48665L6.07935 5.81602C5.93286 5.9822 5.90844 6.24332 6.05493 6.4095ZM10.2543 4.91395H17.6521C17.8962 4.91395 18.0916 4.72404 18.0916 4.48665C18.0916 4.24926 17.8962 4.05935 17.6521 4.05935H10.2543C10.0102 4.05935 9.81485 4.24926 9.81485 4.48665C9.81485 4.72404 10.0102 4.91395 10.2543 4.91395ZM17.6521 6.62315H8.39878C8.15463 6.62315 7.95931 6.81306 7.95931 7.05045C7.95931 7.28783 8.15463 7.47775 8.39878 7.47775H17.6521C17.8962 7.47775 18.0916 7.28783 18.0916 7.05045C18.0916 6.81306 17.8718 6.62315 17.6521 6.62315ZM6.37233 10.0178H17.6277C17.8718 10.0178 18.0671 9.82789 18.0671 9.59051C18.0671 9.35312 17.8718 9.18694 17.6521 9.18694H6.37233C6.12818 9.18694 5.93286 9.37686 5.93286 9.61424C5.93286 9.85163 6.15259 10.0178 6.37233 10.0178Z" fill="black"/>
</svg>
