<svg width="51" height="50" viewBox="0 0 51 50" fill="none" xmlns="http://www.w3.org/2000/svg">
<path d="M18.6457 29.7707C18.3524 29.4821 17.9804 29.2866 17.5764 29.2087C17.1724 29.1309 16.7543 29.1742 16.3748 29.3332C16.1163 29.4267 15.8815 29.576 15.6871 29.7704C15.4927 29.9648 15.3434 30.1996 15.2498 30.4582C15.1149 30.775 15.0606 31.1203 15.0917 31.4633C15.1229 31.8062 15.2386 32.1361 15.4285 32.4234C15.6184 32.7107 15.8765 32.9464 16.1798 33.1095C16.4831 33.2726 16.8221 33.358 17.1665 33.358C17.5109 33.358 17.8499 33.2726 18.1532 33.1095C18.4565 32.9464 18.7146 32.7107 18.9045 32.4234C19.0944 32.1361 19.2101 31.8062 19.2413 31.4633C19.2725 31.1203 19.2181 30.775 19.0832 30.4582C18.9778 30.2056 18.8298 29.9731 18.6457 29.7707ZM35.3123 29.7707C34.9095 29.3989 34.3814 29.1925 33.8332 29.1925C33.285 29.1925 32.7569 29.3989 32.354 29.7707C32.1699 29.9731 32.0219 30.2056 31.9165 30.4582C31.7542 30.8371 31.7091 31.2559 31.7871 31.6607C31.865 32.0654 32.0625 32.4375 32.354 32.729C32.5564 32.9131 32.789 33.0611 33.0415 33.1665C33.2909 33.2766 33.5606 33.3335 33.8332 33.3335C34.1058 33.3335 34.3754 33.2766 34.6248 33.1665C34.8771 33.0606 35.1096 32.9127 35.3123 32.729C35.6038 32.4375 35.8013 32.0654 35.8793 31.6607C35.9573 31.2559 35.9122 30.8371 35.7498 30.4582C35.6445 30.2056 35.4965 29.9731 35.3123 29.7707ZM40.729 39.3644C42.2037 38.1888 43.3294 36.6327 43.9844 34.8641C44.6394 33.0955 44.7989 31.1816 44.4457 29.329L41.3207 12.6623C40.8727 10.2747 39.6043 8.11865 37.7349 6.56724C35.8654 5.01584 33.5125 4.16663 31.0832 4.1665H19.9144C17.4855 4.16711 15.1331 5.01655 13.264 6.56791C11.395 8.11927 10.1269 10.275 9.67901 12.6623L6.55401 29.329C6.20105 31.1818 6.36089 33.0958 7.01626 34.8644C7.67164 36.633 8.79766 38.189 10.2728 39.3644L7.36026 42.2769C7.16128 42.4691 7.00257 42.699 6.89339 42.9532C6.7842 43.2073 6.72673 43.4807 6.72432 43.7573C6.72192 44.034 6.77463 44.3083 6.87938 44.5643C6.98414 44.8204 7.13883 45.053 7.33444 45.2486C7.53005 45.4442 7.76266 45.5989 8.01869 45.7036C8.27473 45.8084 8.54906 45.8611 8.82568 45.8587C9.10231 45.8563 9.37568 45.7988 9.62986 45.6896C9.88403 45.5804 10.1139 45.4217 10.3061 45.2228L14.2019 41.3269C15.0461 41.5478 15.9147 41.6619 16.7873 41.6665H34.2082C35.0821 41.6629 35.9521 41.5496 36.7978 41.329L40.6915 45.2228C41.0844 45.6022 41.6107 45.8122 42.1569 45.8075C42.7032 45.8027 43.2257 45.5836 43.612 45.1974C43.9982 44.8111 44.2173 44.2886 44.2221 43.7423C44.2268 43.1961 44.0168 42.6698 43.6373 42.2769L40.729 39.3644ZM13.7707 13.4311C14.0402 11.9982 14.8019 10.7045 15.9241 9.77367C17.0463 8.84282 18.4585 8.33329 19.9165 8.33317H31.0873C32.5446 8.33426 33.9558 8.84423 35.0772 9.775C36.1985 10.7058 36.9596 11.9989 37.229 13.4311L37.9519 17.2853C36.3965 19.0555 34.4815 20.4737 32.3347 21.4452C30.1878 22.4168 27.8584 22.9193 25.5019 22.9193C23.1455 22.9193 20.8161 22.4168 18.6692 21.4452C16.5223 20.4737 14.6073 19.0555 13.0519 17.2853L13.7707 13.4311ZM39.0144 35.2415C38.4294 35.9486 37.6955 36.5176 36.865 36.908C36.0345 37.2984 35.1279 37.5005 34.2103 37.4998H16.7894C15.8712 37.4997 14.9642 37.2971 14.1331 36.9067C13.302 36.5162 12.5671 35.9474 11.9807 35.2407C11.3944 34.534 10.971 33.7068 10.7406 32.8179C10.5102 31.929 10.4785 31.0003 10.6478 30.0978L12.129 22.1978C15.8698 25.3532 20.606 27.0839 25.4998 27.0839C30.3937 27.0839 35.1299 25.3532 38.8707 22.1978L40.3498 30.0978C40.5206 31.0004 40.4897 31.9297 40.2592 32.8189C40.0287 33.7082 39.6043 34.5355 39.0165 35.2415H39.0144Z" fill="#262626"/>
</svg>
