<svg width="51" height="50" viewBox="0 0 51 50" fill="none" xmlns="http://www.w3.org/2000/svg">
<g clip-path="url(#clip0)">
<path d="M44.7919 21.553C44.749 21.5387 44.7054 21.5261 44.6615 21.5151L37.8834 19.8188L32.2772 15.6217C35.9792 12.3726 36.3464 6.73767 33.0973 3.03568C29.8483 -0.666308 24.2133 -1.03347 20.5113 2.21556C16.9882 5.3076 16.4601 10.5994 19.3025 14.3267H19.2561C18.7831 14.3268 18.3295 14.5149 17.9951 14.8493L5.5091 27.3353C4.81272 28.0319 4.81272 29.1609 5.5091 29.8574L9.07647 33.4248C9.71913 34.0678 10.7425 34.1246 11.4524 33.5568L17.4724 28.7408V31.9515L15.9099 38.2051L11.1313 41.382C10.3117 41.9286 10.0905 43.036 10.637 43.8556C10.6371 43.8557 10.6372 43.8558 10.6372 43.856L14.2046 49.2071C14.7343 49.9981 15.7918 50.2336 16.6072 49.7422L25.5257 44.3911C25.8906 44.1721 26.1652 43.8299 26.2999 43.4261L26.9295 41.5354L32.0416 49.2053C32.5405 49.9538 33.5184 50.2137 34.323 49.8118L41.4578 46.2445C42.3393 45.8047 42.6974 44.7335 42.2576 43.852C42.2574 43.8516 42.2571 43.8512 42.2569 43.8507L36.9058 33.1484C36.8723 33.0821 36.8348 33.0177 36.7935 32.9558L34.1732 29.0316L42.1499 30.3605C42.2472 30.3758 42.3458 30.3823 42.4442 30.3802C43.2123 30.3804 43.8943 29.8889 44.1369 29.1601L45.9207 23.809C46.2319 22.8742 45.7266 21.8642 44.7919 21.553ZM26.391 3.62451C29.3463 3.62451 31.7421 6.02029 31.7421 8.97563C31.7421 11.931 29.3463 14.3267 26.391 14.3267C23.4356 14.3267 21.0399 11.931 21.0399 8.97563C21.0399 6.02029 23.4356 3.62451 26.391 3.62451ZM23.1178 41.6763L16.2239 45.8126L14.59 43.36L18.4571 40.7826C18.8262 40.5361 19.0902 40.1608 19.1974 39.7302L20.33 35.2032L24.2863 38.1695L23.1178 41.6763ZM38.2615 43.8506L34.1305 45.9161L27.8696 36.5231C27.8115 36.4504 27.7471 36.3829 27.677 36.3215C27.6228 36.257 27.5631 36.1973 27.4986 36.1431C27.479 36.127 27.4665 36.1039 27.4469 36.0878L21.0399 31.2718V25.029C21.0403 24.0438 20.2419 23.2449 19.2569 23.2446C18.8514 23.2445 18.458 23.3825 18.1414 23.6359L10.4714 29.7736L9.2924 28.5963L19.9946 17.8941H28.412L29.9762 28.8496C30.0141 29.1131 30.1103 29.3648 30.2581 29.5863L33.7631 34.8393L38.2615 43.8506ZM41.2278 26.5843L33.062 25.2251L32.3325 20.1202L36.023 22.8885C36.213 23.031 36.4295 23.134 36.6598 23.1917L41.9271 24.5081L41.2278 26.5843Z" fill="#262626"/>
</g>
<defs>
<clipPath id="clip0">
<rect width="50" height="50" fill="white" transform="translate(0.5)"/>
</clipPath>
</defs>
</svg>
