<svg width="35" height="35" viewBox="0 0 35 35" fill="none" xmlns="http://www.w3.org/2000/svg">
<path d="M17.5 0.00012207C7.86413 0.00012207 0 7.86487 0 17.5001C0 27.136 7.86475 35.0001 17.5 35.0001C27.1359 35.0001 35 27.1354 35 17.5001C35 7.86425 27.1353 0.00012207 17.5 0.00012207ZM2.05078 17.5001C2.05078 8.98138 8.98126 2.0509 17.5 2.0509C21.3912 2.0509 24.9504 3.49752 27.6696 5.8804L24.3493 9.20075C23.4343 6.28864 20.7101 4.17004 17.5 4.17004C13.8588 4.17004 10.8422 6.8956 10.3828 10.4134C8.01541 10.866 6.2207 12.952 6.2207 15.4493C6.2207 18.2763 8.52065 20.5763 11.3477 20.5763H12.9737L5.88027 27.6698C3.4974 24.9505 2.05078 21.3913 2.05078 17.5001ZM14.557 18.5255H11.3477C9.65145 18.5255 8.27148 17.1455 8.27148 15.4493C8.27148 13.7531 9.65145 12.3732 11.3477 12.3732H12.373V11.3478C12.373 8.52078 14.673 6.22083 17.5 6.22083C20.1899 6.22083 22.401 8.30346 22.6093 10.9407L14.729 18.821L14.557 18.5255ZM24.0504 12.3998C25.5592 12.5957 26.7285 13.8881 26.7285 15.4493C26.7285 17.1455 25.3485 18.5255 23.6523 18.5255H20.443L20.1465 19.0351C19.5848 20.0002 18.5955 20.5763 17.5 20.5763C17.0309 20.5763 16.5817 20.4699 16.1768 20.2734L24.0504 12.3998ZM17.5 32.9493C13.6088 32.9493 10.0496 31.5027 7.33038 29.1199L14.6827 21.7675C15.5083 22.3178 16.4862 22.6271 17.5 22.6271C19.1034 22.6271 20.6175 21.8542 21.5803 20.5763H23.6523C26.4793 20.5763 28.7793 18.2763 28.7793 15.4493C28.7793 13.3501 27.5109 11.5419 25.7004 10.7498L29.1197 7.33043C31.5026 10.0498 32.9492 13.609 32.9492 17.5001C32.9492 26.0189 26.0187 32.9493 17.5 32.9493Z" fill="white"/>
</svg>
