<svg width="104" height="104" viewBox="0 0 104 104" fill="none" xmlns="http://www.w3.org/2000/svg">
<path d="M104 52C104 80.7188 80.7188 104 52 104C23.2812 104 0 80.7188 0 52C0 23.2812 23.2812 0 52 0C80.7188 0 104 23.2812 104 52Z" fill="#3F3F3F"/>
<path fill-rule="evenodd" clip-rule="evenodd" d="M52.0742 97.9266C77.6429 97.9266 98.3705 77.1991 98.3705 51.6303C98.3705 26.0616 77.6429 5.33402 52.0742 5.33402C26.5054 5.33402 5.77787 26.0616 5.77787 51.6303C5.77787 77.1991 26.5054 97.9266 52.0742 97.9266ZM52.0742 99.4081C78.4611 99.4081 99.8519 78.0173 99.8519 51.6303C99.8519 25.2434 78.4611 3.85254 52.0742 3.85254C25.6872 3.85254 4.29639 25.2434 4.29639 51.6303C4.29639 78.0173 25.6872 99.4081 52.0742 99.4081Z" fill="white"/>
<path d="M32.963 14.2217L34.1438 17.8557H37.9649L34.8736 20.1017L36.0544 23.7358L32.963 21.4898L29.8717 23.7358L31.0525 20.1017L27.9612 17.8557H31.7823L32.963 14.2217Z" fill="#D2D2D2"/>
<path d="M51.9259 9.03613L53.1067 12.6702H56.9278L53.8365 14.9162L55.0172 18.5502L51.9259 16.3043L48.8346 18.5502L50.0154 14.9162L46.9241 12.6702H50.7451L51.9259 9.03613Z" fill="#D2D2D2"/>
<path d="M70.8891 14.2217L72.0698 17.8557H75.8909L72.7996 20.1017L73.9804 23.7358L70.8891 21.4898L67.7977 23.7358L68.9785 20.1017L65.8872 17.8557H69.7083L70.8891 14.2217Z" fill="#D2D2D2"/>
<path d="M84.5185 27.8506L85.6992 31.4846H89.5203L86.429 33.7306L87.6098 37.3647L84.5185 35.1187L81.4271 37.3647L82.6079 33.7306L79.5166 31.4846H83.3377L84.5185 27.8506Z" fill="#D2D2D2"/>
<path d="M19.6298 27.8506L20.8106 31.4846H24.6316L21.5403 33.7306L22.7211 37.3647L19.6298 35.1187L16.5385 37.3647L17.7192 33.7306L14.6279 31.4846H18.449L19.6298 27.8506Z" fill="#D2D2D2"/>
<path d="M14.2963 46.8135L15.4771 50.4475H19.2981L16.2068 52.6935L17.3876 56.3276L14.2963 54.0816L11.205 56.3276L12.3857 52.6935L9.29443 50.4475H13.1155L14.2963 46.8135Z" fill="#D2D2D2"/>
<path d="M89.5556 46.8135L90.7363 50.4475H94.5574L91.4661 52.6935L92.6469 56.3276L89.5556 54.0816L86.4642 56.3276L87.645 52.6935L84.5537 50.4475H88.3748L89.5556 46.8135Z" fill="#D2D2D2"/>
<path d="M84.5185 65.7764L85.6992 69.4104H89.5203L86.429 71.6564L87.6098 75.2905L84.5185 73.0445L81.4271 75.2905L82.6079 71.6564L79.5166 69.4104H83.3377L84.5185 65.7764Z" fill="#D2D2D2"/>
<path d="M19.6298 65.7764L20.8106 69.4104H24.6316L21.5403 71.6564L22.7211 75.2905L19.6298 73.0445L16.5385 75.2905L17.7192 71.6564L14.6279 69.4104H18.449L19.6298 65.7764Z" fill="#D2D2D2"/>
<path d="M32.963 78.9619L34.1438 82.596H37.9649L34.8736 84.8419L36.0544 88.476L32.963 86.23L29.8717 88.476L31.0525 84.8419L27.9612 82.596H31.7823L32.963 78.9619Z" fill="#D2D2D2"/>
<path d="M70.8891 78.9619L72.0698 82.596H75.8909L72.7996 84.8419L73.9804 88.476L70.8891 86.23L67.7977 88.476L68.9785 84.8419L65.8872 82.596H69.7083L70.8891 78.9619Z" fill="#D2D2D2"/>
<path d="M51.9259 84.1475L53.1067 87.7815H56.9278L53.8365 90.0275L55.0172 93.6616L51.9259 91.4156L48.8346 93.6616L50.0154 90.0275L46.9241 87.7815H50.7451L51.9259 84.1475Z" fill="#D2D2D2"/>
<path d="M31.1522 34.6229C31.7171 34.6229 32.2127 34.7334 32.639 34.9542C33.0704 35.175 33.4016 35.4909 33.6328 35.9018C33.869 36.3075 33.9871 36.78 33.9871 37.3192C33.9871 37.8585 33.869 38.331 33.6328 38.7367C33.4016 39.1373 33.0704 39.448 32.639 39.6689C32.2127 39.8897 31.7171 40.0001 31.1522 40.0001H29.2725V34.6229H31.1522ZM31.1136 39.0834C31.6786 39.0834 32.1151 38.9293 32.4233 38.6212C32.7314 38.313 32.8855 37.879 32.8855 37.3192C32.8855 36.7594 32.7314 36.3229 32.4233 36.0096C32.1151 35.6912 31.6786 35.532 31.1136 35.532H30.351V39.0834H31.1136Z" fill="white"/>
<path d="M35.873 35.4935V36.8416H37.6833V37.6967H35.873V39.1219H37.9145V40.0001H34.7945V34.6152H37.9145V35.4935H35.873Z" fill="white"/>
<path d="M40.7512 40.054C40.3762 40.054 40.0373 39.9898 39.7343 39.8615C39.4364 39.7331 39.2001 39.5482 39.0255 39.3068C38.8509 39.0654 38.761 38.7804 38.7559 38.4517H39.9115C39.9269 38.6725 40.0039 38.8471 40.1426 38.9755C40.2864 39.1039 40.4815 39.1681 40.728 39.1681C40.9797 39.1681 41.1774 39.1091 41.3212 38.9909C41.465 38.8677 41.5369 38.7085 41.5369 38.5133C41.5369 38.3541 41.4881 38.2231 41.3906 38.1204C41.293 38.0177 41.1697 37.9381 41.0208 37.8816C40.877 37.82 40.6767 37.7532 40.4199 37.6813C40.0707 37.5786 39.7856 37.4784 39.5648 37.3809C39.3491 37.2781 39.1616 37.1266 39.0024 36.9263C38.8483 36.7209 38.7713 36.4487 38.7713 36.1098C38.7713 35.7913 38.8509 35.514 39.0101 35.2778C39.1693 35.0415 39.3927 34.8618 39.6803 34.7385C39.968 34.6101 40.2966 34.5459 40.6664 34.5459C41.2211 34.5459 41.6705 34.682 42.0146 34.9542C42.3638 35.2213 42.5564 35.5962 42.5923 36.0789H41.406C41.3957 35.894 41.3161 35.7425 41.1672 35.6244C41.0234 35.5012 40.8308 35.4395 40.5894 35.4395C40.3788 35.4395 40.2093 35.4935 40.0809 35.6013C39.9577 35.7092 39.896 35.8658 39.896 36.0712C39.896 36.215 39.9423 36.3357 40.0347 36.4333C40.1323 36.5258 40.2504 36.6028 40.3891 36.6644C40.5329 36.7209 40.7332 36.7877 40.99 36.8647C41.3392 36.9674 41.6242 37.0701 41.8451 37.1729C42.0659 37.2756 42.256 37.4297 42.4152 37.6351C42.5744 37.8405 42.654 38.1101 42.654 38.444C42.654 38.7316 42.5795 38.9986 42.4306 39.2452C42.2816 39.4917 42.0634 39.6894 41.7758 39.8383C41.4881 39.9821 41.1466 40.054 40.7512 40.054Z" fill="white"/>
<path d="M44.6675 34.6229V40.0001H43.589V34.6229H44.6675Z" fill="white"/>
<path d="M49.4771 36.2407C49.3539 36.0147 49.1844 35.8427 48.9687 35.7246C48.753 35.6064 48.5013 35.5474 48.2137 35.5474C47.8953 35.5474 47.6128 35.6193 47.3663 35.7631C47.1198 35.9069 46.9272 36.1123 46.7885 36.3794C46.6499 36.6464 46.5805 36.9546 46.5805 37.3038C46.5805 37.6633 46.6499 37.9766 46.7885 38.2437C46.9323 38.5107 47.13 38.7162 47.3817 38.86C47.6334 39.0038 47.9261 39.0757 48.2599 39.0757C48.6708 39.0757 49.0072 38.9678 49.2691 38.7521C49.531 38.5313 49.7031 38.2257 49.7853 37.8354H47.9364V37.0111H50.8484V37.9509C50.7765 38.3258 50.6224 38.6725 50.3861 38.9909C50.1499 39.3094 49.8443 39.5661 49.4694 39.7613C49.0996 39.9513 48.6836 40.0463 48.2214 40.0463C47.7027 40.0463 47.2328 39.9308 46.8116 39.6997C46.3956 39.4634 46.0669 39.1373 45.8256 38.7213C45.5893 38.3053 45.4712 37.8328 45.4712 37.3038C45.4712 36.7748 45.5893 36.3023 45.8256 35.8863C46.0669 35.4652 46.3956 35.1391 46.8116 34.908C47.2328 34.6717 47.7001 34.5536 48.2137 34.5536C48.8197 34.5536 49.3461 34.7025 49.793 35.0004C50.2398 35.2932 50.5479 35.7066 50.7174 36.2407H49.4771Z" fill="white"/>
<path d="M56.2454 40.0001H55.1669L52.7248 36.31V40.0001H51.6463V34.6152H52.7248L55.1669 38.313V34.6152H56.2454V40.0001Z" fill="white"/>
<path d="M58.3898 35.4935V36.8416H60.2001V37.6967H58.3898V39.1219H60.4312V40.0001H57.3112V34.6152H60.4312V35.4935H58.3898Z" fill="white"/>
<path d="M63.2911 34.6229C63.856 34.6229 64.3516 34.7334 64.7779 34.9542C65.2093 35.175 65.5405 35.4909 65.7716 35.9018C66.0079 36.3075 66.126 36.78 66.126 37.3192C66.126 37.8585 66.0079 38.331 65.7716 38.7367C65.5405 39.1373 65.2093 39.448 64.7779 39.6689C64.3516 39.8897 63.856 40.0001 63.2911 40.0001H61.4114V34.6229H63.2911ZM63.2525 39.0834C63.8175 39.0834 64.254 38.9293 64.5622 38.6212C64.8703 38.313 65.0244 37.879 65.0244 37.3192C65.0244 36.7594 64.8703 36.3229 64.5622 36.0096C64.254 35.6912 63.8175 35.532 63.2525 35.532H62.4899V39.0834H63.2525Z" fill="white"/>
<path d="M69.8475 34.6229V40.0001H68.769V34.6229H69.8475Z" fill="white"/>
<path d="M75.5122 40.0001H74.4337L71.9916 36.31V40.0001H70.9131V34.6152H71.9916L74.4337 38.313V34.6152H75.5122V40.0001Z" fill="white"/>
<path d="M37.0417 49.6645V54.1964H45.9084V60.0681H37.0417V65.0728H47.0906V71.2598H29.3179V43.4775H47.0906V49.6645H37.0417Z" fill="white"/>
<path d="M58.4735 43.4775V59.5952C58.4735 61.0927 58.815 62.2486 59.4981 63.063C60.2074 63.8774 61.2714 64.2847 62.6901 64.2847C64.1088 64.2847 65.1728 63.8774 65.8821 63.063C66.6177 62.2223 66.9855 61.0664 66.9855 59.5952V43.4775H74.7094V59.5952C74.7094 62.1435 74.1708 64.3241 73.0937 66.1368C72.0165 67.9233 70.5453 69.2763 68.68 70.1958C66.841 71.089 64.7918 71.5356 62.5325 71.5356C60.2731 71.5356 58.2502 71.089 56.4637 70.1958C54.7035 69.2763 53.3111 67.9233 52.2865 66.1368C51.2882 64.3503 50.7891 62.1698 50.7891 59.5952V43.4775H58.4735Z" fill="white"/>
</svg>
