<svg width="104" height="104" viewBox="0 0 104 104" fill="none" xmlns="http://www.w3.org/2000/svg">
<path d="M104 52C104 80.7188 80.7188 104 52 104C23.2812 104 0 80.7188 0 52C0 23.2812 23.2812 0 52 0C80.7188 0 104 23.2812 104 52Z" fill="#00359A"/>
<path fill-rule="evenodd" clip-rule="evenodd" d="M52.0742 97.9256C77.6429 97.9256 98.3705 77.1981 98.3705 51.6293C98.3705 26.0606 77.6429 5.33304 52.0742 5.33304C26.5054 5.33304 5.77787 26.0606 5.77787 51.6293C5.77787 77.1981 26.5054 97.9256 52.0742 97.9256ZM52.0742 99.4071C78.4611 99.4071 99.8519 78.0163 99.8519 51.6293C99.8519 25.2424 78.4611 3.85156 52.0742 3.85156C25.6872 3.85156 4.29639 25.2424 4.29639 51.6293C4.29639 78.0163 25.6872 99.4071 52.0742 99.4071Z" fill="white"/>
<path d="M32.963 14.2227L34.1438 17.8567H37.9649L34.8736 20.1027L36.0544 23.7367L32.963 21.4908L29.8717 23.7367L31.0525 20.1027L27.9612 17.8567H31.7823L32.963 14.2227Z" fill="#FFCC00"/>
<path d="M51.9259 9.03711L53.1067 12.6712H56.9278L53.8365 14.9171L55.0172 18.5512L51.9259 16.3052L48.8346 18.5512L50.0154 14.9171L46.9241 12.6712H50.7451L51.9259 9.03711Z" fill="#FFCC00"/>
<path d="M70.8891 14.2227L72.0698 17.8567H75.8909L72.7996 20.1027L73.9804 23.7367L70.8891 21.4908L67.7977 23.7367L68.9785 20.1027L65.8872 17.8567H69.7083L70.8891 14.2227Z" fill="#FFCC00"/>
<path d="M84.5185 27.8516L85.6992 31.4856H89.5203L86.429 33.7316L87.6098 37.3657L84.5185 35.1197L81.4271 37.3657L82.6079 33.7316L79.5166 31.4856H83.3377L84.5185 27.8516Z" fill="#FFCC00"/>
<path d="M19.6298 27.8516L20.8106 31.4856H24.6316L21.5403 33.7316L22.7211 37.3657L19.6298 35.1197L16.5385 37.3657L17.7192 33.7316L14.6279 31.4856H18.449L19.6298 27.8516Z" fill="#FFCC00"/>
<path d="M14.2963 46.8145L15.4771 50.4485H19.2981L16.2068 52.6945L17.3876 56.3285L14.2963 54.0826L11.205 56.3285L12.3857 52.6945L9.29443 50.4485H13.1155L14.2963 46.8145Z" fill="#FFCC00"/>
<path d="M89.5556 46.8145L90.7363 50.4485H94.5574L91.4661 52.6945L92.6469 56.3285L89.5556 54.0826L86.4642 56.3285L87.645 52.6945L84.5537 50.4485H88.3748L89.5556 46.8145Z" fill="#FFCC00"/>
<path d="M84.5185 65.7773L85.6992 69.4114H89.5203L86.429 71.6574L87.6098 75.2914L84.5185 73.0455L81.4271 75.2914L82.6079 71.6574L79.5166 69.4114H83.3377L84.5185 65.7773Z" fill="#FFCC00"/>
<path d="M19.6298 65.7773L20.8106 69.4114H24.6316L21.5403 71.6574L22.7211 75.2914L19.6298 73.0455L16.5385 75.2914L17.7192 71.6574L14.6279 69.4114H18.449L19.6298 65.7773Z" fill="#FFCC00"/>
<path d="M32.963 78.9629L34.1438 82.5969H37.9649L34.8736 84.8429L36.0544 88.477L32.963 86.231L29.8717 88.477L31.0525 84.8429L27.9612 82.5969H31.7823L32.963 78.9629Z" fill="#FFCC00"/>
<path d="M70.8891 78.9629L72.0698 82.5969H75.8909L72.7996 84.8429L73.9804 88.477L70.8891 86.231L67.7977 88.477L68.9785 84.8429L65.8872 82.5969H69.7083L70.8891 78.9629Z" fill="#FFCC00"/>
<path d="M51.9259 84.1484L53.1067 87.7825H56.9278L53.8365 90.0285L55.0172 93.6625L51.9259 91.4166L48.8346 93.6625L50.0154 90.0285L46.9241 87.7825H50.7451L51.9259 84.1484Z" fill="#FFCC00"/>
<path d="M31.1522 34.622C31.7171 34.622 32.2127 34.7324 32.639 34.9532C33.0704 35.1741 33.4016 35.4899 33.6328 35.9008C33.869 36.3065 33.9871 36.779 33.9871 37.3183C33.9871 37.8575 33.869 38.33 33.6328 38.7357C33.4016 39.1363 33.0704 39.447 32.639 39.6679C32.2127 39.8887 31.7171 39.9991 31.1522 39.9991H29.2725V34.622H31.1522ZM31.1136 39.0824C31.6786 39.0824 32.1151 38.9283 32.4233 38.6202C32.7314 38.312 32.8855 37.8781 32.8855 37.3183C32.8855 36.7585 32.7314 36.3219 32.4233 36.0086C32.1151 35.6902 31.6786 35.531 31.1136 35.531H30.351V39.0824H31.1136Z" fill="white"/>
<path d="M35.873 35.4925V36.8406H37.6833V37.6957H35.873V39.1209H37.9145V39.9991H34.7945V34.6143H37.9145V35.4925H35.873Z" fill="white"/>
<path d="M40.7512 40.0531C40.3762 40.0531 40.0373 39.9889 39.7343 39.8605C39.4364 39.7321 39.2001 39.5472 39.0255 39.3058C38.8509 39.0644 38.761 38.7794 38.7559 38.4507H39.9115C39.9269 38.6715 40.0039 38.8462 40.1426 38.9746C40.2864 39.1029 40.4815 39.1671 40.728 39.1671C40.9797 39.1671 41.1774 39.1081 41.3212 38.99C41.465 38.8667 41.5369 38.7075 41.5369 38.5123C41.5369 38.3531 41.4881 38.2222 41.3906 38.1194C41.293 38.0167 41.1697 37.9371 41.0208 37.8806C40.877 37.819 40.6767 37.7522 40.4199 37.6803C40.0707 37.5776 39.7856 37.4775 39.5648 37.3799C39.3491 37.2772 39.1616 37.1257 39.0024 36.9254C38.8483 36.7199 38.7713 36.4477 38.7713 36.1088C38.7713 35.7904 38.8509 35.513 39.0101 35.2768C39.1693 35.0405 39.3927 34.8608 39.6803 34.7375C39.968 34.6091 40.2966 34.5449 40.6664 34.5449C41.2211 34.5449 41.6705 34.681 42.0146 34.9532C42.3638 35.2203 42.5564 35.5952 42.5923 36.078H41.406C41.3957 35.8931 41.3161 35.7416 41.1672 35.6234C41.0234 35.5002 40.8308 35.4386 40.5894 35.4386C40.3788 35.4386 40.2093 35.4925 40.0809 35.6003C39.9577 35.7082 39.896 35.8648 39.896 36.0703C39.896 36.2141 39.9423 36.3347 40.0347 36.4323C40.1323 36.5248 40.2504 36.6018 40.3891 36.6634C40.5329 36.7199 40.7332 36.7867 40.99 36.8637C41.3392 36.9665 41.6242 37.0692 41.8451 37.1719C42.0659 37.2746 42.256 37.4287 42.4152 37.6341C42.5744 37.8395 42.654 38.1092 42.654 38.443C42.654 38.7306 42.5795 38.9977 42.4306 39.2442C42.2816 39.4907 42.0634 39.6884 41.7758 39.8374C41.4881 39.9812 41.1466 40.0531 40.7512 40.0531Z" fill="white"/>
<path d="M44.6675 34.622V39.9991H43.589V34.622H44.6675Z" fill="white"/>
<path d="M49.4771 36.2397C49.3539 36.0138 49.1844 35.8417 48.9687 35.7236C48.753 35.6055 48.5013 35.5464 48.2137 35.5464C47.8953 35.5464 47.6128 35.6183 47.3663 35.7621C47.1198 35.9059 46.9272 36.1113 46.7885 36.3784C46.6498 36.6455 46.5805 36.9536 46.5805 37.3028C46.5805 37.6624 46.6498 37.9756 46.7885 38.2427C46.9323 38.5098 47.13 38.7152 47.3817 38.859C47.6334 39.0028 47.9261 39.0747 48.2599 39.0747C48.6708 39.0747 49.0072 38.9668 49.2691 38.7511C49.531 38.5303 49.7031 38.2247 49.7853 37.8344H47.9364V37.0101H50.8484V37.95C50.7765 38.3249 50.6224 38.6715 50.3861 38.99C50.1499 39.3084 49.8443 39.5652 49.4694 39.7603C49.0996 39.9504 48.6836 40.0454 48.2214 40.0454C47.7027 40.0454 47.2328 39.9298 46.8116 39.6987C46.3956 39.4625 46.0669 39.1363 45.8256 38.7203C45.5893 38.3043 45.4712 37.8318 45.4712 37.3028C45.4712 36.7739 45.5893 36.3014 45.8256 35.8854C46.0669 35.4642 46.3956 35.1381 46.8116 34.907C47.2328 34.6707 47.7001 34.5526 48.2137 34.5526C48.8197 34.5526 49.3461 34.7016 49.793 34.9994C50.2398 35.2922 50.5479 35.7056 50.7174 36.2397H49.4771Z" fill="white"/>
<path d="M56.2454 39.9991H55.1669L52.7248 36.3091V39.9991H51.6463V34.6143H52.7248L55.1669 38.312V34.6143H56.2454V39.9991Z" fill="white"/>
<path d="M58.3898 35.4925V36.8406H60.2001V37.6957H58.3898V39.1209H60.4312V39.9991H57.3112V34.6143H60.4312V35.4925H58.3898Z" fill="white"/>
<path d="M63.2911 34.622C63.856 34.622 64.3516 34.7324 64.7779 34.9532C65.2093 35.1741 65.5405 35.4899 65.7716 35.9008C66.0079 36.3065 66.126 36.779 66.126 37.3183C66.126 37.8575 66.0079 38.33 65.7716 38.7357C65.5405 39.1363 65.2093 39.447 64.7779 39.6679C64.3516 39.8887 63.856 39.9991 63.2911 39.9991H61.4114V34.622H63.2911ZM63.2525 39.0824C63.8175 39.0824 64.254 38.9283 64.5622 38.6202C64.8703 38.312 65.0244 37.8781 65.0244 37.3183C65.0244 36.7585 64.8703 36.3219 64.5622 36.0086C64.254 35.6902 63.8175 35.531 63.2525 35.531H62.4899V39.0824H63.2525Z" fill="white"/>
<path d="M69.8475 34.622V39.9991H68.769V34.622H69.8475Z" fill="white"/>
<path d="M75.5122 39.9991H74.4337L71.9916 36.3091V39.9991H70.9131V34.6143H71.9916L74.4337 38.312V34.6143H75.5122V39.9991Z" fill="white"/>
<path d="M37.0417 49.6635V54.1954H45.9084V60.0671H37.0417V65.0718H47.0906V71.2588H29.3179V43.4766H47.0906V49.6635H37.0417Z" fill="white"/>
<path d="M58.4735 43.4766V59.5942C58.4735 61.0917 58.815 62.2476 59.4981 63.062C60.2074 63.8765 61.2714 64.2837 62.6901 64.2837C64.1088 64.2837 65.1728 63.8765 65.8821 63.062C66.6177 62.2214 66.9855 61.0654 66.9855 59.5942V43.4766H74.7094V59.5942C74.7094 62.1425 74.1708 64.3231 73.0937 66.1358C72.0165 67.9223 70.5453 69.2753 68.68 70.1948C66.841 71.088 64.7918 71.5346 62.5325 71.5346C60.2731 71.5346 58.2502 71.088 56.4637 70.1948C54.7035 69.2753 53.3111 67.9223 52.2865 66.1358C51.2882 64.3494 50.7891 62.1688 50.7891 59.5942V43.4766H58.4735Z" fill="white"/>
</svg>
