<svg width="112" height="21" viewBox="0 0 112 21" fill="none" xmlns="http://www.w3.org/2000/svg">
<g clip-path="url(#clip0_131_2647)">
<path d="M0 2.625C0 1.17525 1.19391 0 2.66667 0H29.3333C30.8061 0 32 1.17525 32 2.625V18.375C32 19.8247 30.8061 21 29.3333 21H2.66667C1.19391 21 0 19.8247 0 18.375V2.625Z" fill="#DFE3E7"/>
<path d="M27.54 6.58545H25.8636C25.3568 6.58545 24.9669 6.73896 24.733 7.23786L21.5361 14.4144H23.7973C23.7973 14.4144 24.1872 13.455 24.2652 13.2247C24.4991 13.2247 26.7213 13.2247 27.0332 13.2247C27.1112 13.4933 27.3061 14.376 27.3061 14.376H29.3334L27.54 6.58545ZM24.889 11.6129C25.0839 11.1523 25.7467 9.42536 25.7467 9.42536C25.7467 9.46374 25.9416 8.96484 26.0196 8.69619L26.1755 9.38698C26.1755 9.38698 26.6044 11.2675 26.6823 11.6512H24.889V11.6129Z" fill="#3362AB"/>
<path d="M21.692 11.8431C21.692 13.455 20.2105 14.5295 17.9103 14.5295C16.9357 14.5295 16 14.3377 15.4932 14.1074L15.8051 12.342L16.078 12.4572C16.7797 12.7642 17.2475 12.8793 18.1052 12.8793C18.729 12.8793 19.3918 12.6491 19.3918 12.1118C19.3918 11.7664 19.1189 11.5361 18.2612 11.1524C17.4425 10.7686 16.3509 10.1545 16.3509 9.04161C16.3509 7.50652 17.8713 6.47034 20.0156 6.47034C20.8343 6.47034 21.536 6.62385 21.9649 6.81573L21.653 8.50433L21.4971 8.35082C21.1072 8.19731 20.6004 8.0438 19.8596 8.0438C19.0409 8.08218 18.6511 8.42757 18.6511 8.73459C18.6511 9.07999 19.1189 9.34863 19.8596 9.69402C21.1072 10.2697 21.692 10.9221 21.692 11.8431Z" fill="#3362AB"/>
<path d="M2.66675 6.6623L2.70573 6.50879H6.05856C6.5264 6.50879 6.87727 6.6623 6.99423 7.1612L7.73497 10.6151C6.99423 8.77304 5.27883 7.27633 2.66675 6.6623Z" fill="#F9B50B"/>
<path d="M12.4524 6.5855L9.06055 14.3761H6.76035L4.81104 7.85194C6.21454 8.73462 7.38413 10.1162 7.81298 11.0756L8.0469 11.8815L10.1522 6.54712H12.4524V6.5855Z" fill="#3362AB"/>
<path d="M13.3489 6.54712H15.4931L14.1286 14.3761H11.9844L13.3489 6.54712Z" fill="#3362AB"/>
</g>
<g clip-path="url(#clip1_131_2647)">
<path d="M40 2.625C40 1.17525 41.1939 0 42.6667 0H69.3333C70.8061 0 72 1.17525 72 2.625V18.375C72 19.8247 70.8061 21 69.3333 21H42.6667C41.1939 21 40 19.8247 40 18.375V2.625Z" fill="#DFE3E7"/>
<path d="M59.3332 4.2836L52.4526 4.30603L52.6668 16.7165L59.5473 16.694L59.3332 4.2836Z" fill="#FF5F00"/>
<path d="M52.9041 10.5372C52.8603 8.01294 54.0073 5.77017 55.8048 4.31555C54.447 3.26629 52.7452 2.63522 50.9007 2.64121C46.5309 2.65539 43.0568 6.20084 43.1325 10.5689C43.2082 14.937 46.8047 18.4595 51.1745 18.4453C53.019 18.4393 54.6988 17.7973 56.02 16.7393C54.1727 15.3185 52.9478 13.0615 52.9041 10.5372Z" fill="#EB001B"/>
<path d="M68.8675 10.4312C68.9431 14.7993 65.469 18.3448 61.0993 18.359C59.2548 18.365 57.5529 17.7339 56.1952 16.6846C58.0146 15.2299 59.1396 12.9872 59.0959 10.463C59.0522 7.9387 57.8276 5.70364 55.98 4.26084C57.3012 3.20289 58.981 2.56084 60.8255 2.55485C65.1952 2.54067 68.7922 6.08512 68.8675 10.4312Z" fill="#F79E1B"/>
</g>
<g clip-path="url(#clip2_131_2647)">
<path d="M80 2.625C80 1.17525 81.1939 0 82.6667 0H109.333C110.806 0 112 1.17525 112 2.625V18.375C112 19.8247 110.806 21 109.333 21H82.6667C81.1939 21 80 19.8247 80 18.375V2.625Z" fill="#DFE3E7"/>
<path d="M99.4994 16.6923H92.5V4.30981H99.4994V16.6923Z" fill="#6C6BBD"/>
<path d="M92.9483 10.5C92.9483 7.98815 94.143 5.75067 96.0035 4.30874C94.643 3.25434 92.9259 2.625 91.0598 2.625C86.6419 2.625 83.0608 6.1507 83.0608 10.5C83.0608 14.8493 86.6419 18.375 91.0598 18.375C92.9259 18.375 94.643 17.7457 96.0035 16.6913C94.143 15.2493 92.9483 13.0118 92.9483 10.5Z" fill="#EB001B"/>
<path d="M108.939 10.5C108.939 14.8493 105.358 18.375 100.94 18.375C99.074 18.375 97.3569 17.7457 95.9958 16.6913C97.8569 15.2493 99.0516 13.0118 99.0516 10.5C99.0516 7.98815 97.8569 5.75067 95.9958 4.30874C97.3569 3.25434 99.074 2.625 100.94 2.625C105.358 2.625 108.939 6.1507 108.939 10.5Z" fill="#0099DF"/>
</g>
<defs>
<clipPath id="clip0_131_2647">
<rect width="32" height="21" fill="white"/>
</clipPath>
<clipPath id="clip1_131_2647">
<rect width="32" height="21" fill="white" transform="translate(40)"/>
</clipPath>
<clipPath id="clip2_131_2647">
<rect width="32" height="21" fill="white" transform="translate(80)"/>
</clipPath>
</defs>
</svg>
