<svg width="38" height="50" viewBox="0 0 38 50" fill="none" xmlns="http://www.w3.org/2000/svg">
<path fill-rule="evenodd" clip-rule="evenodd" d="M16.7699 39.3732C20.2331 39.3732 23.0405 36.5658 23.0405 33.1027V14.2733C23.0405 12.9735 23.9843 11.898 25.2247 11.6689C27.7573 11.2013 30.2107 10.5203 32.1026 9.66771C33.0487 9.24138 33.8169 8.7888 34.3778 8.32632C34.944 7.85943 35.233 7.43754 35.3441 7.08581C35.7547 5.78557 36.0365 4.1047 35.8816 2.81905C35.8043 2.17745 35.6324 1.75591 35.4335 1.51462C35.2747 1.32209 35.0406 1.16661 34.5608 1.16661C34.088 1.16662 33.2692 1.30051 32.1713 1.56469C31.1021 1.82198 29.857 2.18024 28.5741 2.57973C26.01 3.3782 23.3474 4.32493 21.7391 4.91212C21.297 5.07355 20.9989 5.49715 20.9989 5.98457V25.8712C20.9989 26.9543 19.9101 27.5864 19 27.2399C18.3086 26.9768 17.5575 26.8321 16.7699 26.8321C13.3068 26.8321 10.4994 29.6396 10.4994 33.1027C10.4994 36.5658 13.3068 39.3732 16.7699 39.3732ZM24.2071 33.1027C24.2071 37.2101 20.8774 40.5398 16.7699 40.5398C12.6625 40.5398 9.33276 37.2101 9.33276 33.1027C9.33276 28.9952 12.6625 25.6655 16.7699 25.6655C17.7015 25.6655 18.5932 25.8368 19.415 26.1496C19.613 26.225 19.8323 26.0831 19.8323 25.8712V5.98457C19.8323 5.01552 20.4287 4.1486 21.339 3.81626C24.5694 2.63686 32.0701 4.28719e-05 34.5608 4.8993e-10C37.769 -5.52195e-05 37.3315 4.66637 36.4565 7.43711C35.6458 10.0045 30.6083 11.8613 25.4366 12.8162C24.7304 12.9465 24.2071 13.5552 24.2071 14.2733V33.1027Z" fill="black"/>
<path fill-rule="evenodd" clip-rule="evenodd" d="M32.6612 33.4398C32.7167 30.9846 32.1972 28.5653 31.1618 26.3688C30.7691 25.5357 29.5877 25.201 28.5825 25.9412C27.6836 26.6032 27.3729 28.0345 27.8523 29.4957C28.2569 30.7285 28.4528 32.0293 28.4231 33.3441C28.3656 35.8884 27.4665 38.342 25.8663 40.321C24.2662 42.3 22.0553 43.6929 19.5793 44.2818C17.1034 44.8707 14.5021 44.6225 12.1823 43.5758C9.86248 42.5291 7.95496 40.7431 6.75809 38.4971C5.56122 36.2511 5.14249 33.6718 5.56738 31.1625C5.99228 28.6532 7.23684 26.3555 9.10642 24.6287C10.0725 23.7364 11.1774 23.0226 12.3694 22.5101C13.7822 21.9026 14.6496 20.7225 14.5511 19.6106C14.441 18.367 13.4082 17.7028 12.5237 17.9597C10.1918 18.6369 8.03419 19.8484 6.23015 21.5146C3.672 23.8773 1.96907 27.0213 1.38768 30.4548C0.806295 33.8882 1.37925 37.4175 3.01693 40.4908C4.65461 43.564 7.26467 46.0078 10.4389 47.4399C13.6131 48.872 17.1725 49.2118 20.5603 48.406C23.9481 47.6002 26.9733 45.6943 29.1628 42.9864C31.3523 40.2784 32.5826 36.9212 32.6612 33.4398ZM32.2171 25.8714C31.4432 24.2297 29.3521 23.9256 27.8907 25.0019C26.4293 26.0781 26.178 28.1349 26.7439 29.8594C27.1074 30.9673 27.2835 32.1362 27.2568 33.3177C27.2051 35.6042 26.3971 37.8091 24.9592 39.5875C23.5212 41.3659 21.5344 42.6177 19.3094 43.1469C17.0844 43.6761 14.7468 43.453 12.6621 42.5124C10.5774 41.5718 8.86321 39.9669 7.78765 37.9485C6.71209 35.9301 6.33579 33.6122 6.71762 31.3573C7.09945 29.1023 8.21787 27.0375 9.89796 25.4857C10.7661 24.6839 11.759 24.0424 12.8302 23.5818C14.4975 22.8649 15.8733 21.3155 15.7132 19.5076C15.553 17.6998 13.9413 16.3332 12.1983 16.8394C9.69374 17.5667 7.37629 18.8679 5.43861 20.6576C2.69097 23.1953 0.861891 26.5722 0.23744 30.26C-0.387011 33.9478 0.228383 37.7385 1.98738 41.0394C3.74637 44.3403 6.54976 46.9651 9.9591 48.5033C13.3684 50.0415 17.1915 50.4064 20.8302 49.5409C24.469 48.6754 27.7183 46.6284 30.07 43.7199C32.4217 40.8114 33.7431 37.2055 33.8275 33.4661C33.8871 30.8291 33.3291 28.2306 32.2171 25.8714Z" fill="url(#paint0_linear)"/>
<defs>
<linearGradient id="paint0_linear" x1="16.9159" y1="16.2342" x2="16.9159" y2="50.0001" gradientUnits="userSpaceOnUse">
<stop stop-color="#030DFC"/>
<stop offset="1" stop-color="#EB09FF"/>
</linearGradient>
</defs>
</svg>
