<svg width="26" height="45" viewBox="0 0 26 45" fill="none" xmlns="http://www.w3.org/2000/svg">
<path fill-rule="evenodd" clip-rule="evenodd" d="M21.6399 2.82109H16.9726V0.0873413H8.76464V2.82109H4.247C2.08418 2.82109 0.339233 4.28359 0.339233 6.09203V41.6223C0.339233 43.4308 2.08418 44.8961 4.247 44.8961H21.6371C23.7886 44.8961 25.5392 43.4308 25.5392 41.6223V6.09203C25.5392 4.28078 23.7886 2.82109 21.6399 2.82109ZM22.9698 40.697C22.9698 41.6617 22.055 42.4408 20.9369 42.4408H4.90206C3.78676 42.4408 2.87194 41.6617 2.87194 40.697V7.11297C2.87194 6.14828 3.78676 5.3664 4.90206 5.3664H20.9369C22.055 5.3664 22.9698 6.14828 22.9698 7.11297V40.697Z" fill="black"/>
<rect x="4" y="25.0001" width="18" height="16" fill="black"/>
</svg>
