<svg width="32" height="32" viewBox="0 0 32 32" fill="none" xmlns="http://www.w3.org/2000/svg">
<g clip-path="url(#clip0)">
<path d="M27.9823 6.11223L18.5754 0.687162C16.9869 -0.228963 15.0131 -0.228901 13.4246 0.687162L4.01781 6.11223C2.42619 7.03004 1.4375 8.74173 1.4375 10.5792V21.4209C1.4375 23.2584 2.42619 24.9701 4.01775 25.8879L13.4246 31.313C15.0134 32.2293 16.9871 32.229 18.5754 31.313L27.9822 25.8879C29.5738 24.9701 30.5625 23.2584 30.5625 21.4209V10.5792C30.5625 8.74179 29.5738 7.0301 27.9823 6.11223ZM28.0625 21.4209C28.0625 22.3674 27.5533 23.2491 26.7334 23.7219L17.3266 29.1469C16.5083 29.6189 15.4917 29.6189 14.6734 29.1469L5.26656 23.7219C4.44675 23.249 3.9375 22.3674 3.9375 21.4209V10.5792C3.9375 9.63279 4.44675 8.7511 5.26662 8.27835L14.6734 2.85329C15.4917 2.38129 16.5086 2.38147 17.3266 2.85329L26.7334 8.27829C27.5532 8.7511 28.0625 9.63273 28.0625 10.5792V21.4209Z" fill="black"/>
<path d="M14.8121 15.0457L10.1695 11.1167C9.6426 10.6707 8.85379 10.7364 8.40785 11.2635C7.96191 11.7907 8.02766 12.5795 8.55466 13.0255L12.0695 16.0001L8.55466 18.9747C8.02766 19.4207 7.96198 20.2095 8.40785 20.7366C8.85485 21.2648 9.64385 21.3283 10.1695 20.8833L14.8121 16.9544C15.4027 16.4546 15.401 15.5441 14.8121 15.0457Z" fill="black"/>
<path d="M22.6379 18.6788H17.0132C16.3229 18.6788 15.7632 19.2385 15.7632 19.929C15.7632 20.6195 16.3229 21.1791 17.0132 21.1791H22.6379C23.3282 21.1791 23.8879 20.6195 23.8879 19.929C23.8879 19.2385 23.3283 18.6788 22.6379 18.6788Z" fill="black"/>
</g>
<defs>
<clipPath id="clip0">
<rect width="32" height="32" fill="white" transform="translate(0 0.00012207)"/>
</clipPath>
</defs>
</svg>
