<svg width="32" height="32" viewBox="0 0 32 32" fill="none" xmlns="http://www.w3.org/2000/svg">
<g clip-path="url(#clip0)">
<path d="M6 27.9998C6.34147 27.9998 6.68197 27.8699 6.94271 27.6092C7.46322 27.0887 7.46322 26.2446 6.94271 25.7241C4.30534 23.0861 2.66667 19.3598 2.66667 15.9998C2.66667 12.6394 4.30534 8.91386 6.94271 6.27584C7.46322 5.75533 7.46322 4.91125 6.94271 4.39075C6.42253 3.86991 5.57747 3.86991 5.05729 4.39075C1.89062 7.55741 0 11.8973 0 15.9998C0 20.102 1.89062 24.4425 5.05729 27.6092C5.31738 27.8699 5.65853 27.9998 6 27.9998Z" fill="black"/>
<path d="M10.2741 8.38845C9.75194 7.86859 8.90786 7.8699 8.38865 8.39268C6.44659 10.3419 5.33331 13.1147 5.33331 15.9998C5.33331 18.8852 6.44659 21.658 8.38865 23.6072C8.6494 23.8692 8.99119 23.9998 9.33331 23.9998C9.67316 23.9998 10.014 23.8705 10.2741 23.6114C10.7959 23.0919 10.7978 22.2472 10.278 21.726C8.83071 20.2719 7.99998 18.1847 7.99998 15.9998C7.99998 13.8146 8.83071 11.728 10.278 10.2739C10.7978 9.75271 10.7959 8.90798 10.2741 8.38845Z" fill="black"/>
<path d="M25.0573 4.39075C24.5368 4.91125 24.5368 5.75533 25.0573 6.27584C27.6947 8.91386 29.3334 12.6394 29.3334 15.9998C29.3334 19.3598 27.6947 23.0861 25.0573 25.7241C24.5368 26.2446 24.5368 27.0887 25.0573 27.6092C25.3181 27.8699 25.6585 27.9998 26 27.9998C26.3415 27.9998 26.6826 27.8699 26.9427 27.6092C30.1094 24.4425 32 20.102 32 15.9998C32 11.8973 30.1094 7.55741 26.9427 4.39075C26.4225 3.86991 25.5775 3.86991 25.0573 4.39075Z" fill="black"/>
<path d="M22.6666 23.9998C23.0088 23.9998 23.3506 23.8692 23.6113 23.6072C25.5534 21.658 26.6667 18.8852 26.6667 15.9998C26.6667 13.1147 25.5534 10.3419 23.6113 8.39267C23.0921 7.87053 22.2474 7.86858 21.7259 8.38844C21.2041 8.90797 21.2021 9.75269 21.722 10.2739C23.1693 11.728 24 13.8145 24 15.9998C24 18.1847 23.1693 20.2719 21.722 21.726C21.2021 22.2472 21.2041 23.0919 21.7259 23.6114C21.986 23.8705 22.3258 23.9998 22.6666 23.9998Z" fill="black"/>
<path d="M16 21.3331C18.9408 21.3331 21.3334 18.9405 21.3334 15.9997C21.3334 13.0593 18.9408 10.6664 16 10.6664C13.0593 10.6664 10.6667 13.0593 10.6667 15.9997C10.6667 18.9405 13.0593 21.3331 16 21.3331ZM16 13.3331C17.4707 13.3331 18.6667 14.5294 18.6667 15.9997C18.6667 17.4704 17.4707 18.6664 16 18.6664C14.5293 18.6664 13.3334 17.4704 13.3334 15.9997C13.3334 14.5294 14.5293 13.3331 16 13.3331Z" fill="black"/>
</g>
<defs>
<clipPath id="clip0">
<rect width="32" height="32" fill="white" transform="translate(0 0.00012207)"/>
</clipPath>
</defs>
</svg>
