<svg width="110" height="107" viewBox="0 0 110 107" fill="none" xmlns="http://www.w3.org/2000/svg">
<path d="M109.954 35.4039C108.781 16.3866 93.6035 1.22512 74.5669 0.0541691C64.2988 -0.498103 54.2551 3.19145 46.7913 10.2575C39.3274 17.3236 35.1002 27.1446 35.1008 37.4171C35.1008 38.4011 35.8993 39.1988 36.8843 39.1988C37.8693 39.1988 38.6677 38.4011 38.6677 37.4171C38.6674 28.122 42.4931 19.2357 49.2474 12.8427C56.0018 6.44964 65.0904 3.11245 74.3814 3.6139C91.6027 4.67178 105.333 18.3888 106.391 35.5927C107.132 50.5964 97.9509 64.315 83.7891 69.3656C76.0835 71.9854 70.8672 79.1724 70.7699 87.3033C70.7699 96.1591 63.5836 103.338 54.7188 103.338C45.8541 103.338 38.6677 96.1591 38.6677 87.3033C38.6677 86.3193 37.8693 85.5216 36.8843 85.5216C35.8993 85.5216 35.1008 86.3193 35.1008 87.3033C35.1008 98.127 43.8841 106.901 54.7188 106.901C65.5536 106.901 74.3368 98.127 74.3368 87.3033C74.432 80.6856 78.6902 74.8457 84.9662 72.7258C100.62 67.1479 110.771 51.987 109.954 35.4039Z" fill="black"/>
<path d="M93.9548 37.4168C93.9548 38.4008 94.7532 39.1984 95.7382 39.1984C96.7232 39.1984 97.5217 38.4008 97.5217 37.4168C97.5069 23.6472 86.3368 12.4884 72.5533 12.4737C65.2662 12.4623 58.3391 15.6377 53.5955 21.1639C48.852 26.6901 46.7672 34.0135 47.8899 41.2064C48.3876 44.5792 49.653 47.7932 51.5888 50.601C52.5746 51.976 53.6626 53.275 54.8436 54.4868C55.9844 55.6438 57.0249 56.8955 57.954 58.2282C58.883 59.5812 59.5324 61.1058 59.864 62.7126C60.0196 63.5571 60.7559 64.1705 61.6154 64.1718C61.7243 64.1728 61.833 64.1633 61.94 64.1433C62.9065 63.9631 63.5447 63.0354 63.3667 62.0695C62.951 59.9965 62.1238 58.0276 60.9341 56.2791C59.8971 54.775 58.7324 53.3628 57.4528 52.0584C56.3983 50.9768 55.4248 49.8192 54.5404 48.5949C52.9095 46.2305 51.8442 43.5234 51.4265 40.6826C50.4571 34.5165 52.2391 28.2356 56.3031 23.4948C60.3671 18.7539 66.3054 16.0287 72.5533 16.037C84.3677 16.0498 93.942 25.6144 93.9548 37.4168Z" fill="black"/>
<path d="M74.4563 28.9133C74.1014 29.8309 74.5581 30.8621 75.4764 31.217C79.5088 32.7848 81.4706 36.2145 81.4706 41.7323C81.4706 42.7162 82.2691 43.5139 83.254 43.5139C84.239 43.5139 85.0375 42.7162 85.0375 41.7323C85.0375 32.9363 80.5378 29.3516 76.764 27.8924C76.3225 27.7217 75.8312 27.7334 75.3983 27.9249C74.9654 28.1164 74.6265 28.472 74.4563 28.9133Z" fill="black"/>
<path d="M63.167 27.5412C62.3042 27.7755 61.7484 28.6116 61.867 29.4969C61.9856 30.3821 62.742 31.0429 63.636 31.0422C63.7932 31.0415 63.9497 31.0205 64.1015 30.9798C65.1818 30.7152 66.2796 30.5282 67.3867 30.4204C68.3667 30.319 69.0789 29.4432 68.9775 28.4641C68.876 27.4851 67.9993 26.7736 67.0193 26.8749C65.7204 27.0011 64.4327 27.2238 63.167 27.5412Z" fill="black"/>
<path d="M45.8942 75.2769C46.203 76.2102 47.2102 76.7173 48.1449 76.4101C48.243 76.378 57.9129 73.3011 64.1585 79.5422C64.8583 80.2174 65.9707 80.2078 66.6586 79.5205C67.3465 78.8333 67.3562 77.722 66.6803 77.023C58.8563 69.2069 47.5011 72.8699 47.0213 73.0303C46.0909 73.3418 45.5872 74.3458 45.8942 75.2769Z" fill="black"/>
<path fill-rule="evenodd" clip-rule="evenodd" d="M17.2617 25.4161C16.7975 25.4192 16.3509 25.5934 16.0074 25.9053C5.89062 34.9719 0.0772193 47.8851 0 61.4622C0.0759234 75.0408 5.88946 87.9556 16.0074 97.0229C16.7856 97.6553 17.9235 97.5673 18.5949 96.8228C19.2664 96.0782 19.2358 94.9386 18.5253 94.2311C9.13752 85.9219 3.76438 73.992 3.76645 61.4622C3.76505 48.9321 9.13803 37.0019 18.5253 28.6915C19.1021 28.1694 19.2979 27.3465 19.0179 26.6209C18.738 25.8953 18.0401 25.4165 17.2617 25.4161Z" fill="url(#paint0_linear)"/>
<path fill-rule="evenodd" clip-rule="evenodd" d="M24.3578 89.0802C25.1483 89.7555 26.3371 89.6629 27.0131 88.8732C27.6892 88.0835 27.5965 86.8959 26.806 86.2205C19.459 80.0782 15.1696 71.0324 15.066 61.4624C15.1681 51.892 19.4578 42.8456 26.806 36.7042C27.4055 36.192 27.622 35.3609 27.3483 34.6217C27.0746 33.8826 26.3689 33.3922 25.58 33.3931C25.1312 33.393 24.697 33.5532 24.3559 33.8446C16.1736 40.7027 11.4034 50.7929 11.2995 61.4624C11.4039 72.1321 16.1748 82.2224 24.3578 89.0802Z" fill="url(#paint1_linear)"/>
<path fill-rule="evenodd" clip-rule="evenodd" d="M33.8952 44.3598C33.8902 44.3598 33.8852 44.3597 33.8802 44.3596L33.8868 43.251L33.9057 43.2706L33.91 44.3596C33.9051 44.3597 33.9001 44.3598 33.8952 44.3598ZM32.5799 81.0223C33.3272 81.7497 34.5232 81.7341 35.2512 80.9875C35.9793 80.241 35.9637 79.0462 35.2164 78.3189C30.7204 73.8639 28.2089 67.7883 28.2485 61.4623C28.2075 55.1348 30.7191 49.0575 35.2164 44.6019C35.7681 44.0676 35.9396 43.252 35.6496 42.5412C35.3597 41.8303 34.6665 41.3667 33.8981 41.3698C33.4067 41.3668 32.9337 41.5558 32.5799 41.8965C27.358 47.0661 24.4393 54.1182 24.482 61.4623C24.4398 68.8046 27.3585 75.8547 32.5799 81.0223ZM33.887 43.2142L33.8981 41.3698L33.9055 43.2329L33.887 43.2142Z" fill="url(#paint2_linear)"/>
<path fill-rule="evenodd" clip-rule="evenodd" d="M44.898 66.5309C48.6175 66.5309 51.6327 63.5187 51.6327 59.803C51.6327 56.0873 48.6175 53.0752 44.898 53.0752C41.1786 53.0752 38.1634 56.0873 38.1634 59.803C38.1634 63.5187 41.1786 66.5309 44.898 66.5309ZM44.898 69.521C50.2706 69.521 54.6259 65.1701 54.6259 59.803C54.6259 54.4359 50.2706 50.085 44.898 50.085C39.5255 50.085 35.1702 54.4359 35.1702 59.803C35.1702 65.1701 39.5255 69.521 44.898 69.521Z" fill="url(#paint3_linear)"/>
<defs>
<linearGradient id="paint0_linear" x1="44.8981" y1="50.085" x2="44.8981" y2="69.5211" gradientUnits="userSpaceOnUse">
<stop stop-color="#030DFC"/>
<stop offset="1" stop-color="#EB09FF"/>
</linearGradient>
<linearGradient id="paint1_linear" x1="44.8981" y1="50.085" x2="44.8981" y2="69.5211" gradientUnits="userSpaceOnUse">
<stop stop-color="#030DFC"/>
<stop offset="1" stop-color="#EB09FF"/>
</linearGradient>
<linearGradient id="paint2_linear" x1="44.8981" y1="50.085" x2="44.8981" y2="69.5211" gradientUnits="userSpaceOnUse">
<stop stop-color="#030DFC"/>
<stop offset="1" stop-color="#EB09FF"/>
</linearGradient>
<linearGradient id="paint3_linear" x1="44.8981" y1="50.085" x2="44.8981" y2="69.5211" gradientUnits="userSpaceOnUse">
<stop stop-color="#030DFC"/>
<stop offset="1" stop-color="#EB09FF"/>
</linearGradient>
</defs>
</svg>
