<svg width="201" height="201" viewBox="0 0 201 201" fill="none" xmlns="http://www.w3.org/2000/svg">
<g clip-path="url(#clip0)">
<path d="M63.6143 140.685C96.0268 140.685 113.877 121.644 113.877 87.0705C113.877 54.7005 68.0581 3.23471 66.1078 1.06351C65.455 0.3845 64.5551 0 63.6143 0C62.6735 0 61.7719 0.3845 61.1207 1.06351C59.1704 3.23471 13.3511 54.7005 13.3511 87.0705C13.3511 121.644 31.2017 140.685 63.6143 140.685ZM63.6143 8.41156C73.2071 19.6701 107.176 61.3384 107.176 87.0705C107.176 108.472 99.6166 133.983 63.6143 133.983C27.6119 133.983 20.0528 108.472 20.0528 87.0705C20.0528 61.3384 54.0198 19.6701 63.6143 8.41156Z" fill="url(#paint0_linear)"/>
<path d="M157.439 147.386C176.605 147.386 187.597 134.596 187.597 112.289C187.597 91.3425 161.02 62.5492 159.891 61.3319C159.243 60.6774 158.36 60.3093 157.439 60.3093C156.518 60.3093 155.634 60.6774 154.986 61.3319C153.857 62.5492 127.281 91.3425 127.281 112.289C127.281 134.596 138.271 147.386 157.439 147.386ZM157.439 68.6734C163.902 76.1932 180.895 97.3849 180.895 112.289C180.895 131.131 173.004 140.685 157.439 140.685C141.874 140.685 133.983 131.131 133.983 112.289C133.983 97.3849 150.974 76.1932 157.439 68.6734Z" fill="url(#paint1_linear)"/>
<path d="M108.013 135.115C107.159 136.084 87.0703 159.028 87.0703 174.193C87.0703 191.229 95.6209 201 110.526 201C125.43 201 133.983 191.229 133.983 174.193C133.983 159.028 113.894 136.084 113.04 135.115C112.385 134.425 111.477 134.034 110.526 134.034C109.576 134.034 108.666 134.425 108.013 135.115ZM110.526 194.299C99.4119 194.299 93.7721 187.533 93.7721 174.193C93.7721 165.085 104.257 150.258 110.526 142.534C116.8 150.242 127.281 165.072 127.281 174.193C127.281 187.533 121.641 194.299 110.526 194.299Z" fill="url(#paint2_linear)"/>
<path d="M56.5769 127.265C56.6882 127.276 56.7994 127.281 56.9123 127.281C58.6974 127.281 60.1699 125.881 60.2599 124.097C60.3483 122.314 59.0246 120.774 57.2477 120.596C50.2482 120.244 43.733 116.918 39.3431 111.454C30.4309 99.8343 33.3825 81.1018 33.4087 80.9153C33.6525 79.1204 32.4254 77.4564 30.6387 77.1586C28.852 76.8625 27.152 78.0389 26.8019 79.8158C26.653 80.7009 23.3299 101.549 34.0027 115.502C39.4936 122.477 47.7138 126.761 56.5769 127.265Z" fill="url(#paint3_linear)"/>
<path d="M154.088 133.983C160.271 133.894 166.166 131.355 170.477 126.923C174.21 122.122 175.559 115.887 174.146 109.974C173.802 108.187 172.097 107.001 170.302 107.3C168.508 107.601 167.28 109.278 167.539 111.08C168.565 115.036 167.776 119.246 165.387 122.562C162.356 125.511 158.316 127.198 154.088 127.281C152.237 127.281 150.737 128.781 150.737 130.632C150.737 132.482 152.237 133.983 154.088 133.983Z" fill="url(#paint4_linear)"/>
<path d="M108.673 181.247C107.627 180.825 106.821 179.966 106.464 178.896C106.109 177.827 106.24 176.654 106.824 175.69C107.65 174.035 106.979 172.021 105.322 171.194C103.666 170.366 101.654 171.039 100.826 172.695C99.448 175.254 99.1878 178.269 100.106 181.026C101.025 183.783 103.041 186.039 105.677 187.261C107.334 188.089 109.347 187.417 110.175 185.759C111.001 184.104 110.33 182.091 108.673 181.263V181.247Z" fill="url(#paint5_linear)"/>
</g>
<defs>
<linearGradient id="paint0_linear" x1="63.6143" y1="0" x2="63.6143" y2="140.685" gradientUnits="userSpaceOnUse">
<stop stop-color="#030DFC"/>
<stop offset="1" stop-color="#EB09FF"/>
</linearGradient>
<linearGradient id="paint1_linear" x1="157.439" y1="60.3093" x2="157.439" y2="147.386" gradientUnits="userSpaceOnUse">
<stop stop-color="#030DFC"/>
<stop offset="1" stop-color="#EB09FF"/>
</linearGradient>
<linearGradient id="paint2_linear" x1="110.526" y1="134.034" x2="110.526" y2="201" gradientUnits="userSpaceOnUse">
<stop stop-color="#030DFC"/>
<stop offset="1" stop-color="#EB09FF"/>
</linearGradient>
<linearGradient id="paint3_linear" x1="43.2309" y1="77.113" x2="43.2309" y2="127.281" gradientUnits="userSpaceOnUse">
<stop stop-color="#030DFC"/>
<stop offset="1" stop-color="#EB09FF"/>
</linearGradient>
<linearGradient id="paint4_linear" x1="162.716" y1="107.254" x2="162.716" y2="133.983" gradientUnits="userSpaceOnUse">
<stop stop-color="#030DFC"/>
<stop offset="1" stop-color="#EB09FF"/>
</linearGradient>
<linearGradient id="paint5_linear" x1="105.047" y1="170.84" x2="105.047" y2="187.616" gradientUnits="userSpaceOnUse">
<stop stop-color="#030DFC"/>
<stop offset="1" stop-color="#EB09FF"/>
</linearGradient>
<clipPath id="clip0">
<rect width="201" height="201" fill="white"/>
</clipPath>
</defs>
</svg>
