<svg width="201" height="201" viewBox="0 0 201 201" fill="none" xmlns="http://www.w3.org/2000/svg">
<path d="M113.253 45.1815C109.363 40.6437 105.862 36.6244 103.14 33.2535C103.01 32.9942 102.751 32.8645 102.621 32.7349C101.195 31.568 99.1204 31.8273 97.9536 33.2535C95.2309 36.6244 91.7302 40.6437 87.8406 45.1815C70.7265 65.0184 47 92.5048 47 115.453C47 130.234 52.964 143.588 62.688 153.312C72.412 162.906 85.7662 169 100.547 169C115.327 169 128.681 163.036 138.405 153.312C148.129 143.588 154.093 130.234 154.093 115.453C154.093 92.5048 130.367 65.0184 113.253 45.1815ZM133.738 148.515C125.181 157.072 113.512 162.388 100.547 162.388C87.5813 162.388 75.9126 157.072 67.3555 148.645C58.9281 140.217 53.6123 128.419 53.6123 115.453C53.6123 94.9682 76.4312 68.519 92.8971 49.4601C95.6198 46.2188 98.2129 43.2367 100.547 40.3844C102.88 43.2367 105.473 46.2188 108.196 49.3304C124.662 68.3894 147.481 94.7089 147.481 115.324C147.481 128.289 142.165 139.958 133.738 148.515Z" fill="url(#paint0_linear)"/>
<path d="M100.806 145.403C92.7674 145.403 85.5068 142.162 80.3207 136.976C75.1346 131.79 71.8933 124.529 71.8933 116.491C71.8933 114.676 70.4671 113.249 68.652 113.249C66.8368 113.249 65.4106 114.676 65.4106 116.491C65.4106 126.344 69.4299 135.161 75.7829 141.643C82.0062 147.867 90.9523 151.886 100.806 151.886C102.621 151.886 104.047 150.46 104.047 148.645C104.047 146.829 102.621 145.403 100.806 145.403Z" fill="url(#paint1_linear)"/>
<defs>
<linearGradient id="paint0_linear" x1="100.547" y1="32" x2="100.547" y2="169" gradientUnits="userSpaceOnUse">
<stop stop-color="#030DFC"/>
<stop offset="1" stop-color="#EB09FF"/>
</linearGradient>
<linearGradient id="paint1_linear" x1="84.7289" y1="113.249" x2="84.7289" y2="151.886" gradientUnits="userSpaceOnUse">
<stop stop-color="#030DFC"/>
<stop offset="1" stop-color="#EB09FF"/>
</linearGradient>
</defs>
</svg>
