<svg width="20" height="32" viewBox="0 0 20 32" fill="none" xmlns="http://www.w3.org/2000/svg">
<path d="M4 6.00012C4 4.40882 4.63214 2.8827 5.75736 1.75748C6.88258 0.632263 8.4087 0.00012207 10 0.00012207C11.5913 0.00012207 13.1174 0.632263 14.2426 1.75748C15.3679 2.8827 16 4.40882 16 6.00012V16.0001C16 17.5914 15.3679 19.1175 14.2426 20.2428C13.1174 21.368 11.5913 22.0001 10 22.0001C8.4087 22.0001 6.88258 21.368 5.75736 20.2428C4.63214 19.1175 4 17.5914 4 16.0001V6.00012Z" fill="black"/>
<path d="M1 13.0001C1.26522 13.0001 1.51957 13.1055 1.70711 13.293C1.89464 13.4806 2 13.7349 2 14.0001V16.0001C2 18.1219 2.84285 20.1567 4.34315 21.657C5.84344 23.1573 7.87827 24.0001 10 24.0001C12.1217 24.0001 14.1566 23.1573 15.6569 21.657C17.1571 20.1567 18 18.1219 18 16.0001V14.0001C18 13.7349 18.1054 13.4806 18.2929 13.293C18.4804 13.1055 18.7348 13.0001 19 13.0001C19.2652 13.0001 19.5196 13.1055 19.7071 13.293C19.8946 13.4806 20 13.7349 20 14.0001V16.0001C20 18.4792 19.0792 20.8699 17.4162 22.7084C15.7533 24.5469 13.4666 25.7022 11 25.9501V30.0001H17C17.2652 30.0001 17.5196 30.1055 17.7071 30.293C17.8946 30.4806 18 30.7349 18 31.0001C18 31.2653 17.8946 31.5197 17.7071 31.7072C17.5196 31.8948 17.2652 32.0001 17 32.0001H3C2.73478 32.0001 2.48043 31.8948 2.29289 31.7072C2.10536 31.5197 2 31.2653 2 31.0001C2 30.7349 2.10536 30.4806 2.29289 30.293C2.48043 30.1055 2.73478 30.0001 3 30.0001H9V25.9501C6.53337 25.7022 4.24675 24.5469 2.58376 22.7084C0.920768 20.8699 -3.11433e-05 18.4792 7.90012e-10 16.0001V14.0001C7.90012e-10 13.7349 0.105357 13.4806 0.292893 13.293C0.48043 13.1055 0.734784 13.0001 1 13.0001Z" fill="black"/>
</svg>
