<svg width="110" height="90" viewBox="0 0 110 90" fill="none" xmlns="http://www.w3.org/2000/svg">
<path d="M109.969 40.4019C109.167 27.4096 98.7942 17.0514 85.7841 16.2514C78.7666 15.8741 70.3682 19.9269 65.2673 24.7544L66.9459 26.5205C71.562 22.1529 79.3076 18.3408 85.6574 18.6834C97.4269 19.4061 106.81 28.7774 107.533 40.531C108.04 50.7813 101.765 60.1538 92.0868 63.6043C86.8206 65.3941 83.2556 70.3041 83.1892 75.8591C83.1892 81.9092 78.2778 86.8139 72.2194 86.8139C69.5808 86.8139 67.1597 85.8835 65.2673 84.3334L63.0967 85.671C65.4896 87.8908 68.6958 89.2483 72.2194 89.2483C79.6242 89.2483 85.6269 83.2537 85.6269 75.8591C85.6919 71.338 88.6021 67.3482 92.8913 65.8999C103.59 62.0891 110.527 51.7313 109.969 40.4019Z" fill="black"/>
<path d="M99.0344 41.7774C99.0344 42.4497 99.5801 42.9946 100.253 42.9946C100.926 42.9946 101.472 42.4497 101.472 41.7774C101.462 32.3702 93.8281 24.7467 84.408 24.7366C79.4278 24.7288 74.6937 26.8982 71.4518 30.6736L73.3022 32.2661C76.0796 29.0272 80.138 27.1653 84.408 27.171C92.4823 27.1797 99.0256 33.7141 99.0344 41.7774Z" fill="black"/>
<path d="M85.7086 35.9677C85.4661 36.5946 85.7782 37.2991 86.4058 37.5415C89.1616 38.6127 90.5024 40.9558 90.5024 44.7255C90.5024 45.3977 91.0481 45.9427 91.7212 45.9427C92.3944 45.9427 92.9401 45.3977 92.9401 44.7255C92.9401 38.7161 89.8649 36.2671 87.2858 35.2702C86.984 35.1536 86.6482 35.1616 86.3524 35.2924C86.0565 35.4233 85.8249 35.6662 85.7086 35.9677Z" fill="black"/>
<path d="M77.9931 35.0306C77.4035 35.1906 77.0236 35.7619 77.1047 36.3666C77.1858 36.9714 77.7027 37.4228 78.3137 37.4224C78.4211 37.4219 78.5281 37.4076 78.6318 37.3798C79.3701 37.199 80.1204 37.0712 80.877 36.9976C81.5468 36.9283 82.0335 36.33 81.9642 35.6611C81.8949 34.9922 81.2957 34.5061 80.6259 34.5753C79.7382 34.6616 78.8582 34.8137 77.9931 35.0306Z" fill="black"/>
<path d="M17.489 41.1225C17.4883 41.1218 17.4877 41.1212 17.487 41.1205L17.489 41.1225ZM17.1382 69.7806C17.1378 69.781 17.1374 69.7814 17.137 69.7817L17.1382 69.7806ZM15.745 68.4081L15.743 68.41C15.7437 68.4094 15.7443 68.4087 15.745 68.4081ZM6.41532 77.9056L6.41417 77.9068L6.41532 77.9056Z" stroke="url(#paint0_linear)" stroke-width="4"/>
<defs>
<linearGradient id="paint0_linear" x1="39.8898" y1="0.382324" x2="39.8898" y2="89.246" gradientUnits="userSpaceOnUse">
<stop stop-color="#030DFC"/>
<stop offset="1" stop-color="#EB09FF"/>
</linearGradient>
</defs>
</svg>
