<svg width="28" height="32" viewBox="0 0 28 32" fill="none" xmlns="http://www.w3.org/2000/svg">
<path d="M12 0.00012207V16.0001H16V0.00012207H12ZM6.88 5.76012L5.36 7.00012C2.12 9.56012 0 13.5601 0 18.0001C0 25.7201 6.28 32.0001 14 32.0001C21.72 32.0001 28 25.7201 28 18.0001C28 13.5601 25.88 9.56012 22.64 7.00012L21.12 5.76012L18.6 8.88012L20.12 10.1201C22.44 11.9601 24 14.8001 24 18.0001C24 23.5601 19.56 28.0001 14 28.0001C8.44 28.0001 4 23.5601 4 18.0001C4 14.8001 5.44 11.9601 7.76 10.1201L9.4 8.88012L6.88 5.76012Z" fill="black"/>
</svg>
