<svg width="22" height="15" viewBox="0 0 22 15" fill="none" xmlns="http://www.w3.org/2000/svg">
<path d="M17.25 13.2C17.0167 13.5667 16.6167 13.9167 16.05 14.25C15.5167 14.55 15.0333 14.7 14.6 14.7C14.3667 14.7 14.0667 14.6 13.7 14.4C13.3667 14.1667 13.0333 13.8667 12.7 13.5C12.4 13.1333 12.1333 12.7167 11.9 12.25C11.6667 11.7833 11.55 11.3 11.55 10.8C11.55 10.0667 11.6 9.41667 11.7 8.85C11.8333 8.28333 12.0167 7.75 12.25 7.25C12.5167 6.75 12.8167 6.26667 13.15 5.8C13.5167 5.3 13.95 4.8 14.45 4.3C15.35 3.23333 16.2833 2.31667 17.25 1.55C18.2167 0.783334 19.1833 0.266667 20.15 0H21.15V0.650001C20.75 1.18333 20.3 1.71667 19.8 2.25C19.3 2.78333 18.8167 3.35 18.35 3.95C17.9167 4.55 17.55 5.2 17.25 5.9C16.95 6.6 16.8 7.36667 16.8 8.2C16.8 8.53333 16.85 8.83333 16.95 9.1C17.0833 9.36667 17.2167 9.65 17.35 9.95C17.5167 10.2167 17.65 10.5 17.75 10.8C17.8833 11.0667 17.95 11.4 17.95 11.8C17.95 12.0667 17.8667 12.3 17.7 12.5C17.5333 12.7 17.3833 12.9333 17.25 13.2ZM5.7 13.2C5.5 13.5667 5.11667 13.9167 4.55 14.25C3.98333 14.55 3.48333 14.7 3.05 14.7C2.81667 14.7 2.51667 14.6 2.15 14.4C1.81667 14.1667 1.48333 13.8667 1.15 13.5C0.850001 13.1333 0.583334 12.7167 0.35 12.25C0.116667 11.7833 0 11.3 0 10.8C0 10.0667 0.0666668 9.41667 0.2 8.85C0.333333 8.28333 0.516667 7.75 0.75 7.25C1.01667 6.75 1.31667 6.26667 1.65 5.8C2.01667 5.3 2.43333 4.8 2.9 4.3C3.83333 3.23333 4.76667 2.31667 5.7 1.55C6.66667 0.783334 7.63333 0.266667 8.6 0H9.6V0.650001C9.23333 1.18333 8.81667 1.71667 8.35 2.25C7.88333 2.78333 7.43333 3.35 7 3.95C6.56667 4.55 6.2 5.2 5.9 5.9C5.6 6.6 5.45 7.36667 5.45 8.2C5.45 8.53333 5.5 8.83333 5.6 9.1C5.7 9.36667 5.8 9.65 5.9 9.95C6.03333 10.2167 6.15 10.5 6.25 10.8C6.35 11.0667 6.4 11.4 6.4 11.8C6.4 12.0667 6.33333 12.3 6.2 12.5C6.06667 12.7 5.9 12.9333 5.7 13.2Z" fill="black"/>
</svg>
