<svg width="30" height="45" viewBox="0 0 30 45" fill="none" xmlns="http://www.w3.org/2000/svg">
<path fill-rule="evenodd" clip-rule="evenodd" d="M23.6399 2.82097H18.9726V0.0872192H10.7646V2.82097H6.247C4.08418 2.82097 2.33923 4.28347 2.33923 6.09191V41.6222C2.33923 43.4307 4.08418 44.896 6.247 44.896H23.6371C25.7886 44.896 27.5392 43.4307 27.5392 41.6222V6.09191C27.5392 4.28066 25.7886 2.82097 23.6399 2.82097ZM24.9698 40.6969C24.9698 41.6616 24.055 42.4407 22.9369 42.4407H6.90206C5.78676 42.4407 4.87194 41.6616 4.87194 40.6969V7.11284C4.87194 6.14816 5.78676 5.36628 6.90206 5.36628H22.9369C24.055 5.36628 24.9698 6.14816 24.9698 7.11284V40.6969Z" fill="black"/>
<path fill-rule="evenodd" clip-rule="evenodd" d="M19.2353 8.45441L8.05695 30.0628L13.6024 26.4938L10.8099 39.3863L21.9685 17.3897L16.0758 21.0938L19.2353 8.45441Z" fill="black"/>
</svg>
