<svg width="10" height="28" viewBox="0 0 10 28" fill="none" xmlns="http://www.w3.org/2000/svg">
<path d="M3.6667 2.00013L3.6667 3.5788C2.88731 3.85033 2.21173 4.35767 1.73368 5.03046C1.25562 5.70325 0.998778 6.50813 0.998778 7.33347C0.998778 8.1588 1.25562 8.96369 1.73368 9.63647C2.21174 10.3093 2.88731 10.8166 3.66671 11.0881L3.66671 16.9121C2.88731 17.1837 2.21174 17.691 1.73368 18.3638C1.25562 19.0366 0.998779 19.8415 0.998779 20.6668C0.998779 21.4921 1.25562 22.297 1.73368 22.9698C2.21174 23.6426 2.88731 24.1499 3.66671 24.4215L3.66671 26.0001C3.66671 26.3538 3.80718 26.6929 4.05723 26.9429C4.30728 27.193 4.64642 27.3335 5.00004 27.3335C5.35366 27.3335 5.6928 27.193 5.94285 26.9429C6.1929 26.6929 6.33337 26.3538 6.33337 26.0001L6.33337 24.4215C7.11277 24.1499 7.78834 23.6426 8.2664 22.9698C8.74446 22.297 9.0013 21.4921 9.0013 20.6668C9.0013 19.8415 8.74446 19.0366 8.2664 18.3638C7.78834 17.691 7.11276 17.1837 6.33337 16.9121L6.33337 11.0881C7.11276 10.8166 7.78834 10.3093 8.2664 9.63647C8.74446 8.96369 9.0013 8.1588 9.0013 7.33347C9.0013 6.50813 8.74446 5.70325 8.2664 5.03046C7.78834 4.35767 7.11276 3.85033 6.33337 3.5788L6.33337 2.00013C6.33337 1.64651 6.1929 1.30737 5.94285 1.05732C5.6928 0.807276 5.35366 0.666801 5.00004 0.666801C4.64642 0.666801 4.30728 0.807276 4.05723 1.05732C3.80718 1.30737 3.6667 1.64651 3.6667 2.00013ZM6.33337 20.6668C6.33337 20.9305 6.25517 21.1883 6.10866 21.4076C5.96216 21.6268 5.75392 21.7977 5.51028 21.8986C5.26665 21.9996 4.99856 22.026 4.73992 21.9745C4.48128 21.9231 4.2437 21.7961 4.05723 21.6096C3.87076 21.4231 3.74377 21.1856 3.69233 20.9269C3.64088 20.6683 3.66728 20.4002 3.7682 20.1566C3.86912 19.9129 4.04001 19.7047 4.25928 19.5582C4.47854 19.4117 4.73633 19.3335 5.00004 19.3335C5.35355 19.3338 5.69249 19.4744 5.94246 19.7244C6.19243 19.9744 6.33302 20.3133 6.33337 20.6668ZM6.33337 7.33347C6.33337 7.59718 6.25517 7.85496 6.10866 8.07423C5.96216 8.29349 5.75392 8.46439 5.51028 8.56531C5.26665 8.66622 4.99856 8.69263 4.73992 8.64118C4.48128 8.58973 4.2437 8.46275 4.05723 8.27628C3.87076 8.08981 3.74377 7.85223 3.69232 7.59359C3.64088 7.33495 3.66728 7.06686 3.7682 6.82322C3.86912 6.57959 4.04001 6.37135 4.25928 6.22484C4.47854 6.07833 4.73633 6.00013 5.00004 6.00013C5.35355 6.00049 5.69249 6.14108 5.94246 6.39105C6.19243 6.64102 6.33302 6.97995 6.33337 7.33347Z" fill="black"/>
</svg>
