<svg width="32" height="32" viewBox="0 0 32 32" fill="none" xmlns="http://www.w3.org/2000/svg">
<path d="M15.5 4.00012C9.149 4.00012 4 9.14912 4 15.5001V18.0001H8C8.26522 18.0001 8.51957 18.1055 8.70711 18.293C8.89464 18.4806 9 18.7349 9 19.0001V29.0001C9 29.2653 8.89464 29.5197 8.70711 29.7072C8.51957 29.8948 8.26522 30.0001 8 30.0001H6.5C5.30653 30.0001 4.16193 29.526 3.31802 28.6821C2.47411 27.8382 2 26.6936 2 25.5001V15.5001C2 8.04412 8.044 2.00012 15.5 2.00012C22.956 2.00012 29 8.04412 29 15.5001V25.5001C29 26.6936 28.5259 27.8382 27.682 28.6821C26.8381 29.526 25.6935 30.0001 24.5 30.0001H23C22.7348 30.0001 22.4804 29.8948 22.2929 29.7072C22.1054 29.5197 22 29.2653 22 29.0001V19.0001C22 18.7349 22.1054 18.4806 22.2929 18.293C22.4804 18.1055 22.7348 18.0001 23 18.0001H27V15.5001C27 9.14912 21.851 4.00012 15.5 4.00012Z" fill="black"/>
<path d="M12 23.0001H14L15 20.0001L17 26.0001L18 23.0001H20" stroke="black" stroke-linecap="round" stroke-linejoin="round"/>
</svg>
