<svg width="91" height="91" viewBox="0 0 91 91" fill="none" xmlns="http://www.w3.org/2000/svg">
<g clip-path="url(#clip0)">
<path d="M65.1719 36.2743C63.88 36.2743 62.9006 36.8802 62.1616 37.7602C62.1392 37.4845 62.1264 37.2473 62.1264 37.0581C62.1264 33.03 59.9015 30.4284 56.4568 30.4284C54.9324 30.4284 53.7687 30.8516 52.9015 31.4495C52.3806 29.651 50.853 27.6554 47.9292 27.6554C46.3167 27.6554 45.0776 28.1378 44.1559 28.747C44.1191 24.0488 44.0822 19.3057 44.0822 18.9498C44.0822 17.2908 42.0913 14.0625 38.4431 14.0625C35.3061 14.0625 33.5557 17.0087 33.0155 18.7479C32.9739 18.8857 32.9482 19.0284 32.945 19.171L32.1852 42.093C30.8564 39.5844 28.9537 37.1832 27.5223 36.4522C25.8713 35.6059 23.0581 36.1797 21.3911 37.7041C19.8491 39.1147 19.4451 41.1184 20.2819 43.2006C20.9503 44.858 21.3542 46.8056 21.8223 49.0609C22.4202 51.9366 23.1639 55.5143 24.746 59.8791C27.2867 66.8919 35.2196 74.2974 37.4316 76.2691V81.5395C37.4316 86.7586 41.6842 91.0032 46.9114 91.0032H57.2935C62.5207 91.0032 66.7733 86.7554 66.7733 81.5315V75.1999C69.4406 71.5436 71.0323 64.962 71.1012 64.6734C71.13 64.5516 71.1445 64.4266 71.1445 64.3016V42.3943C71.1461 38.7332 68.7449 36.2743 65.1719 36.2743ZM67.9402 64.1044C67.4401 66.1161 65.8804 71.2519 63.9297 73.637C63.6956 73.924 63.5674 74.2814 63.5674 74.6517V81.5283C63.5674 84.9826 60.7527 87.7941 57.2935 87.7941H46.9114C43.4522 87.7941 40.6375 84.9874 40.6375 81.5363V75.5381C40.6375 75.0685 40.4323 74.6228 40.0733 74.3183C39.9771 74.2349 30.3691 65.9879 27.7579 58.7843C26.2544 54.6359 25.5651 51.3274 24.9592 48.4053C24.4591 46.0009 24.0279 43.9235 23.2537 42.0016C22.8369 40.9661 23.1591 40.458 23.4845 40.131C24.1193 39.4962 25.15 39.259 25.7238 39.259C25.8713 39.259 25.9883 39.275 26.0604 39.3039C27.1408 39.8569 29.768 43.5821 30.4477 46.2766C30.725 47.3714 30.8644 48.4117 30.9862 49.327C31.2203 51.079 31.4078 52.4607 32.4545 53.2958C32.929 53.6725 33.575 53.7495 34.1248 53.4978C34.6746 53.2429 35.0336 52.7012 35.0545 52.0952L36.1332 19.5301C36.3545 18.9723 37.1399 17.2668 38.4367 17.2668C40.2945 17.2668 40.8683 18.9899 40.8699 18.9498C40.8699 19.7032 41.0206 38.294 41.0206 38.294C41.027 39.1404 41.6922 39.836 42.537 39.8809C43.3881 39.9707 44.1158 39.3087 44.2152 38.4671L44.9269 32.4C45.2235 31.9384 46.1067 30.8596 47.9212 30.8596C49.5402 30.8596 49.8415 32.2013 49.9088 32.8921L50.9139 39.3952C51.0437 40.2303 51.8051 40.8234 52.6402 40.7465C53.4818 40.6712 54.1213 39.9562 54.1005 39.1115L54.0011 34.9519C54.1726 34.5367 54.7433 33.6343 56.4472 33.6343C58.4845 33.6343 58.9109 35.4953 58.9109 37.0581C58.9109 38.9993 59.8406 44.0117 59.9464 44.5759C60.0923 45.3581 60.7959 45.94 61.5894 45.8791C62.3861 45.8454 63.0368 45.2331 63.117 44.4396C63.3446 42.1939 64.3096 39.4802 65.1639 39.4802C67.4529 39.4802 67.9322 41.0655 67.9322 42.3943L67.9402 64.1044Z" fill="black"/>
<mask id="path-2-inside-1" fill="white">
<path d="M46.9001 17.8021C46.7013 18.6645 47.2383 19.5253 48.1023 19.724L52.7877 20.806C52.9095 20.8349 53.0297 20.8461 53.1499 20.8461C53.8793 20.8461 54.5397 20.3444 54.7112 19.6038C54.9099 18.7414 54.373 17.8807 53.509 17.6819L48.8236 16.5999C47.9644 16.4028 47.1005 16.9381 46.9001 17.8021Z"/>
</mask>
<path d="M46.9001 17.8021L43.0035 16.8985L43.0023 16.9037L46.9001 17.8021ZM48.1023 19.724L49.0023 15.8266L48.9991 15.8259L48.1023 19.724ZM52.7877 20.806L53.7095 16.9137L53.6986 16.9111L53.6877 16.9086L52.7877 20.806ZM54.7112 19.6038L58.608 20.5063L58.609 20.5022L54.7112 19.6038ZM53.509 17.6819L52.609 21.5793L52.6122 21.5801L53.509 17.6819ZM48.8236 16.5999L49.7236 12.7025L49.7183 12.7013L48.8236 16.5999ZM43.0023 16.9037C42.308 19.9159 44.1845 22.9272 47.2055 23.6222L48.9991 15.8259C50.2921 16.1233 51.0946 17.4131 50.7979 18.7005L43.0023 16.9037ZM47.2023 23.6215L51.8876 24.7034L53.6877 16.9086L49.0023 15.8266L47.2023 23.6215ZM51.8658 24.6983C52.3414 24.811 52.7774 24.8461 53.1499 24.8461V16.8461C53.282 16.8461 53.4775 16.8588 53.7095 16.9137L51.8658 24.6983ZM53.1499 24.8461C55.6991 24.8461 58.0072 23.1005 58.608 20.5063L50.8143 18.7013C51.0721 17.5882 52.0594 16.8461 53.1499 16.8461V24.8461ZM58.609 20.5022C59.3033 17.49 57.4268 14.4787 54.4058 13.7837L52.6122 21.5801C51.3192 21.2826 50.5166 19.9929 50.8134 18.7054L58.609 20.5022ZM54.409 13.7845L49.7236 12.7025L47.9236 20.4974L52.609 21.5793L54.409 13.7845ZM49.7183 12.7013C46.7187 12.0129 43.7043 13.8767 43.0035 16.8985L50.7967 18.7058C50.4967 19.9996 49.2102 20.7926 47.929 20.4986L49.7183 12.7013Z" fill="url(#paint0_linear)" mask="url(#path-2-inside-1)"/>
<mask id="path-4-inside-2" fill="white">
<path d="M39.0858 8.01466C39.9707 8.01466 40.6888 7.29814 40.6888 6.41172V1.60293C40.6888 0.71651 39.9707 0 39.0858 0C38.201 0 37.4829 0.71651 37.4829 1.60293V6.41172C37.4829 7.29814 38.201 8.01466 39.0858 8.01466Z"/>
</mask>
<path d="M39.0858 12.0147C42.1772 12.0147 44.6888 9.50989 44.6888 6.41172H36.6888C36.6888 5.0864 37.7641 4.01466 39.0858 4.01466V12.0147ZM44.6888 6.41172V1.60293H36.6888V6.41172H44.6888ZM44.6888 1.60293C44.6888 -1.49524 42.1772 -4 39.0858 -4V4C37.7641 4 36.6888 2.92826 36.6888 1.60293H44.6888ZM39.0858 -4C35.9945 -4 33.4829 -1.49524 33.4829 1.60293H41.4829C41.4829 2.92826 40.4076 4 39.0858 4V-4ZM33.4829 1.60293V6.41172H41.4829V1.60293H33.4829ZM33.4829 6.41172C33.4829 9.50989 35.9945 12.0147 39.0858 12.0147V4.01466C40.4076 4.01466 41.4829 5.0864 41.4829 6.41172H33.4829Z" fill="url(#paint1_linear)" mask="url(#path-4-inside-2)"/>
<path d="M46.3659 9.73852C46.366 9.73847 46.366 9.73841 46.3661 9.73835L46.3659 9.73852Z" stroke="url(#paint2_linear)" stroke-width="4"/>
<mask id="path-7-inside-3" fill="white">
<path d="M30.5454 11.2927C30.842 11.5315 31.1994 11.6501 31.5537 11.6501C32.0201 11.6501 32.4834 11.4465 32.8008 11.0554C33.357 10.3678 33.2512 9.35793 32.5635 8.80171L28.8255 5.77538C28.1362 5.21916 27.128 5.32496 26.5702 6.01261C26.014 6.70027 26.1198 7.71012 26.8074 8.26633L30.5454 11.2927Z"/>
</mask>
<path d="M30.5454 11.2927L28.0285 14.4015L28.0364 14.4079L30.5454 11.2927ZM32.8008 11.0554L35.9068 13.5759L35.9108 13.571L32.8008 11.0554ZM32.5635 8.80171L30.0466 11.9106L30.048 11.9117L32.5635 8.80171ZM28.8255 5.77538L31.3425 2.66652L31.3375 2.66253L28.8255 5.77538ZM26.5702 6.01261L23.4637 3.49269L23.4602 3.49707L26.5702 6.01261ZM26.8074 8.26633L29.3244 5.15748L29.323 5.15634L26.8074 8.26633ZM28.0364 14.4079C29.0596 15.232 30.3071 15.6501 31.5537 15.6501V7.65012C32.0918 7.65012 32.6244 7.83102 33.0545 8.17743L28.0364 14.4079ZM31.5537 15.6501C33.1786 15.6501 34.8008 14.9388 35.9068 13.5759L29.6948 8.53498C30.166 7.95431 30.8616 7.65012 31.5537 7.65012V15.6501ZM35.9108 13.571C37.8536 11.169 37.4876 7.63988 35.0791 5.69172L30.048 11.9117C29.0148 11.076 28.8603 9.56657 29.6908 8.53989L35.9108 13.571ZM35.0805 5.69286L31.3424 2.66652L26.3086 8.88423L30.0466 11.9106L35.0805 5.69286ZM31.3375 2.66253C28.9346 0.723459 25.4128 1.09002 23.4637 3.4927L29.6766 8.53253C28.8432 9.55989 27.3379 9.71487 26.3135 8.88823L31.3375 2.66253ZM23.4602 3.49707C21.5173 5.89907 21.8834 9.42818 24.2919 11.3763L29.323 5.15634C30.3562 5.99205 30.5106 7.50147 29.6802 8.52815L23.4602 3.49707ZM24.2905 11.3752L28.0285 14.4015L33.0624 8.18381L29.3244 5.15748L24.2905 11.3752Z" fill="url(#paint3_linear)" mask="url(#path-7-inside-3)"/>
<mask id="path-9-inside-4" fill="white">
<path d="M25.0201 20.8477C25.1403 20.8477 25.2605 20.8349 25.3824 20.8076L30.0677 19.7257C30.9301 19.5269 31.4671 18.6661 31.2699 17.8037C31.0696 16.9398 30.2056 16.3996 29.3464 16.6015L24.6611 17.6835C23.7987 17.8823 23.2617 18.7431 23.4589 19.6054C23.632 20.346 24.2908 20.8477 25.0201 20.8477Z"/>
</mask>
<path d="M25.3824 20.8076L26.2555 24.7112L26.269 24.7082L26.2824 24.7051L25.3824 20.8076ZM30.0677 19.7257L29.1694 15.8278L29.1677 15.8282L30.0677 19.7257ZM31.2699 17.8037L35.1693 16.9122L35.1665 16.9001L31.2699 17.8037ZM29.3464 16.6015L30.2464 20.499L30.2541 20.4972L30.2618 20.4954L29.3464 16.6015ZM24.6611 17.6835L25.5594 21.5813L25.5611 21.581L24.6611 17.6835ZM23.4589 19.6054L19.5595 20.4969L19.5616 20.5065L19.5639 20.516L23.4589 19.6054ZM25.0201 24.8477C25.4295 24.8477 25.8427 24.8035 26.2555 24.7112L24.5092 16.9041C24.6784 16.8663 24.8511 16.8477 25.0201 16.8477V24.8477ZM26.2824 24.7051L30.9678 23.6231L29.1677 15.8282L24.4823 16.9102L26.2824 24.7051ZM30.9661 23.6235C33.987 22.9272 35.8563 19.917 35.1693 16.9122L27.3705 18.6952C27.0779 17.4152 27.8733 16.1266 29.1694 15.8278L30.9661 23.6235ZM35.1665 16.9001C34.4705 13.8989 31.4647 11.9946 28.4311 12.7077L30.2618 20.4954C28.9465 20.8046 27.6686 19.9806 27.3733 18.7074L35.1665 16.9001ZM28.4464 12.7041L23.761 13.7861L25.5611 21.581L30.2464 20.499L28.4464 12.7041ZM23.7627 13.7857C20.7418 14.482 18.8725 17.4922 19.5595 20.4969L27.3582 18.7139C27.6509 19.994 26.8555 21.2826 25.5594 21.5813L23.7627 13.7857ZM19.5639 20.516C20.1673 23.0972 22.4645 24.8477 25.0201 24.8477V16.8477C26.117 16.8477 27.0967 17.5948 27.3538 18.6949L19.5639 20.516Z" fill="url(#paint4_linear)" mask="url(#path-9-inside-4)"/>
</g>
<defs>
<linearGradient id="paint0_linear" x1="48.6109" y1="20.1735" x2="53.0152" y2="20.142" gradientUnits="userSpaceOnUse">
<stop stop-color="#030DFC"/>
<stop offset="1" stop-color="#EB09FF"/>
</linearGradient>
<linearGradient id="paint1_linear" x1="38.1945" y1="6.75715" x2="39.9833" y2="6.75437" gradientUnits="userSpaceOnUse">
<stop stop-color="#030DFC"/>
<stop offset="1" stop-color="#EB09FF"/>
</linearGradient>
<linearGradient id="paint2_linear" x1="46.5536" y1="10.6723" x2="50.4272" y2="10.6556" gradientUnits="userSpaceOnUse">
<stop stop-color="#030DFC"/>
<stop offset="1" stop-color="#EB09FF"/>
</linearGradient>
<linearGradient id="paint3_linear" x1="27.7548" y1="10.6724" x2="31.6293" y2="10.6556" gradientUnits="userSpaceOnUse">
<stop stop-color="#030DFC"/>
<stop offset="1" stop-color="#EB09FF"/>
</linearGradient>
<linearGradient id="paint4_linear" x1="25.17" y1="20.1748" x2="29.5736" y2="20.1434" gradientUnits="userSpaceOnUse">
<stop stop-color="#030DFC"/>
<stop offset="1" stop-color="#EB09FF"/>
</linearGradient>
<clipPath id="clip0">
<rect width="91" height="91" fill="white"/>
</clipPath>
</defs>
</svg>
