<svg width="32" height="32" viewBox="0 0 32 32" fill="none" xmlns="http://www.w3.org/2000/svg">
<g clip-path="url(#clip0)">
<path d="M16 4.00011C15.632 4.00011 15.3334 3.70145 15.3334 3.33345V0.666781C15.3334 0.298781 15.632 0.000114441 16 0.000114441C16.368 0.000114441 16.6667 0.298781 16.6667 0.666781V3.33345C16.6667 3.70145 16.368 4.00011 16 4.00011Z" fill="black"/>
<path d="M24.9573 7.70947C24.7866 7.70947 24.6159 7.64414 24.4853 7.51481C24.2253 7.25481 24.2253 6.83214 24.4853 6.57214L26.3706 4.68681C26.6306 4.42681 27.0533 4.42681 27.3133 4.68681C27.5733 4.94681 27.5733 5.36947 27.3133 5.62947L25.4279 7.51481C25.2986 7.64414 25.128 7.70947 24.9573 7.70947Z" fill="black"/>
<path d="M31.3333 16.6668H28.6667C28.2987 16.6668 28 16.3681 28 16.0001C28 15.6321 28.2987 15.3334 28.6667 15.3334H31.3333C31.7013 15.3334 32 15.6321 32 16.0001C32 16.3681 31.7013 16.6668 31.3333 16.6668Z" fill="black"/>
<path d="M26.8426 27.5095C26.6719 27.5095 26.5013 27.4441 26.3706 27.3148L24.4853 25.4295C24.2253 25.1695 24.2253 24.7468 24.4853 24.4868C24.7453 24.2268 25.1679 24.2268 25.4279 24.4868L27.3133 26.3721C27.5733 26.6321 27.5733 27.0548 27.3133 27.3148C27.184 27.4441 27.0133 27.5095 26.8426 27.5095Z" fill="black"/>
<path d="M16 32.0001C15.632 32.0001 15.3334 31.7015 15.3334 31.3335V28.6668C15.3334 28.2988 15.632 28.0001 16 28.0001C16.368 28.0001 16.6667 28.2988 16.6667 28.6668V31.3335C16.6667 31.7015 16.368 32.0001 16 32.0001Z" fill="black"/>
<path d="M5.15736 27.5095C4.98669 27.5095 4.81602 27.4441 4.68536 27.3148C4.42536 27.0548 4.42536 26.6321 4.68536 26.3721L6.57069 24.4868C6.83069 24.2268 7.25336 24.2268 7.51336 24.4868C7.77336 24.7468 7.77336 25.1695 7.51336 25.4295L5.62802 27.3148C5.49869 27.4441 5.32802 27.5095 5.15736 27.5095Z" fill="black"/>
<path d="M3.33333 16.6668H0.666667C0.298667 16.6668 0 16.3681 0 16.0001C0 15.6321 0.298667 15.3334 0.666667 15.3334H3.33333C3.70133 15.3334 4 15.6321 4 16.0001C4 16.3681 3.70133 16.6668 3.33333 16.6668Z" fill="black"/>
<path d="M7.0427 7.70947C6.87203 7.70947 6.70136 7.64414 6.5707 7.51481L4.6867 5.62947C4.4267 5.36947 4.4267 4.94681 4.6867 4.68681C4.9467 4.42681 5.36937 4.42681 5.62937 4.68681L7.5147 6.57214C7.7747 6.83214 7.7747 7.25481 7.5147 7.51481C7.38403 7.64414 7.21336 7.70947 7.0427 7.70947Z" fill="black"/>
<path d="M14.0973 26.6668C14.0187 26.6668 13.9413 26.6535 13.864 26.6255C13.572 26.5161 13.3947 26.2201 13.436 25.9135L14.5733 17.3335H10C9.74801 17.3335 9.51734 17.1908 9.40401 16.9655C9.29067 16.7401 9.31467 16.4695 9.46667 16.2668L17.4667 5.60012C17.652 5.35212 17.9813 5.26412 18.2627 5.38679C18.5453 5.50812 18.7093 5.80545 18.6587 6.10945L17.4533 13.3335H22C22.2453 13.3335 22.4707 13.4681 22.5867 13.6841C22.7027 13.9001 22.6907 14.1615 22.5573 14.3681L14.6547 26.3681C14.528 26.5588 14.316 26.6668 14.0973 26.6668ZM11.3333 16.0001H15.3333C15.5267 16.0001 15.708 16.0841 15.8347 16.2281C15.9613 16.3708 16.02 16.5641 15.9947 16.7548L15.14 23.2055L20.7627 14.6668H16.6667C16.4707 14.6668 16.2853 14.5815 16.1573 14.4308C16.0307 14.2815 15.976 14.0828 16.0093 13.8908L16.8933 8.58679L11.3333 16.0001Z" fill="black"/>
</g>
<defs>
<clipPath id="clip0">
<rect width="32" height="32" fill="white" transform="translate(0 0.00012207)"/>
</clipPath>
</defs>
</svg>
