<svg width="18" height="20" viewBox="0 0 18 20" fill="none" xmlns="http://www.w3.org/2000/svg">
<path d="M8.50961 0C6.39723 0 4.66346 1.73377 4.66346 3.84615V4.61538H0.865385L0.817308 5.33654L0.0480769 19.1827L0 20H17.0192L16.9712 19.1827L16.2019 5.33654L16.1538 4.61538H12.3558V3.84615C12.3558 1.73377 10.622 0 8.50961 0ZM8.50961 1.53846C9.78365 1.53846 10.8173 2.57212 10.8173 3.84615V4.61538H6.20192V3.84615C6.20192 2.57212 7.23558 1.53846 8.50961 1.53846ZM2.30769 6.15385H4.66346V8.46154H6.20192V6.15385H10.8173V8.46154H12.3558V6.15385H14.7115L15.3846 18.4615H1.63462L2.30769 6.15385Z" fill="white"/>
</svg>
