<svg width="110" height="110" viewBox="0 0 110 110" fill="none" xmlns="http://www.w3.org/2000/svg">
<g id=" voice control">
<g id=" voice control_2">
<path id="Vector" d="M14.3688 25.8595L14.3622 25.8669L14.3688 25.8595Z" stroke="url(#paint0_linear)" stroke-width="4"/>
<g id="Vector_2">
<path d="M30.9747 74.6841H32.322C38.8225 74.6841 44.1111 69.3956 44.1111 62.8951V47.1763C44.1111 40.6139 38.8225 35.275 32.322 35.275H30.9747C24.4814 35.275 19.1973 40.6023 19.1856 47.1548V62.8951C19.1856 69.3956 24.4742 74.6841 30.9747 74.6841ZM30.9747 38.6433H32.322C36.6276 38.6433 40.1867 41.9355 40.6817 46.1659H37.9358C37.0057 46.1659 36.2517 46.9199 36.2517 47.85C36.2517 48.7801 37.0057 49.5342 37.9358 49.5342H40.7428V53.3516H36.1394C35.2093 53.3516 34.4553 54.1056 34.4553 55.0357C34.4553 55.9658 35.2093 56.7199 36.1394 56.7199H40.7428V60.5373H37.9358C37.0057 60.5373 36.2517 61.2913 36.2517 62.2214C36.2517 63.1515 37.0057 63.9056 37.9358 63.9056H40.68C40.1789 68.0738 36.6231 71.3158 32.322 71.3158H30.9747C26.6737 71.3158 23.1178 68.0738 22.6167 63.9056H25.3609C26.291 63.9056 27.045 63.1515 27.045 62.2214C27.045 61.2913 26.291 60.5373 25.3609 60.5373H22.5539V56.7199H27.1573C28.0874 56.7199 28.8414 55.9658 28.8414 55.0357C28.8414 54.1056 28.0874 53.3516 27.1573 53.3516H22.5539V49.5342H25.3609C26.291 49.5342 27.045 48.7801 27.045 47.85C27.045 46.9199 26.291 46.1659 25.3609 46.1659H22.615C23.1101 41.9355 26.6691 38.6433 30.9747 38.6433Z" fill="black"/>
<path d="M51.2968 62.2214C51.2968 61.2913 50.5428 60.5372 49.6127 60.5372C48.6826 60.5372 47.9285 61.2913 47.9285 62.2214C47.9285 71.1982 40.6253 78.5015 31.6484 78.5015C22.6716 78.5015 15.3683 71.1982 15.3683 62.2214C15.3683 61.2913 14.6142 60.5372 13.6841 60.5372C12.754 60.5372 12 61.2913 12 62.2214C12 72.4882 19.9156 80.9397 29.9643 81.7968V89.3923H20.8699C19.9398 89.3923 19.1857 90.1463 19.1857 91.0764C19.1857 92.0065 19.9398 92.7606 20.8699 92.7606H42.427C43.3571 92.7606 44.1111 92.0065 44.1111 91.0764C44.1111 90.1463 43.3571 89.3923 42.427 89.3923H33.3326V81.7968C43.3812 80.9397 51.2968 72.4882 51.2968 62.2214Z" fill="black"/>
</g>
</g>
<g id="Group">
<g id="Group_2">
<path id="Vector_3" d="M92.0371 47.1429C90.9635 47.1429 90.1496 47.6464 89.5356 48.3777C89.5169 48.1486 89.5063 47.9515 89.5063 47.7943C89.5063 44.447 87.6575 42.2852 84.795 42.2852C83.5283 42.2852 82.5613 42.6368 81.8407 43.1337C81.4078 41.6392 80.1384 39.9808 77.7088 39.9808C76.3689 39.9808 75.3392 40.3818 74.5733 40.8879C74.5427 36.9838 74.5121 33.0425 74.5121 32.7468C74.5121 31.3682 72.8577 28.6855 69.8261 28.6855C67.2194 28.6855 65.7649 31.1337 65.316 32.579C65.2814 32.6935 65.2601 32.8121 65.2574 32.9306L64.626 51.9781C63.5218 49.8935 61.9407 47.8982 60.7513 47.2908C59.3793 46.5875 57.0417 47.0644 55.6564 48.3311C54.375 49.5032 54.0394 51.1682 54.7347 52.8985C55.2901 54.2758 55.6258 55.8941 56.0147 57.7682C56.5115 60.1578 57.1296 63.1308 58.4443 66.7578C60.5555 72.5853 67.1475 78.7391 68.9856 80.3774V84.757C68.9856 89.094 72.5194 92.6211 76.863 92.6211H85.4903C89.834 92.6211 93.3677 89.0913 93.3677 84.7504V79.489C95.5842 76.4507 96.9068 70.9816 96.9641 70.7418C96.9881 70.6406 97.0001 70.5367 97.0001 70.4328V52.2285C97.0014 49.1862 95.0061 47.1429 92.0371 47.1429ZM94.3374 70.269C93.9218 71.9406 92.6258 76.2083 91.0048 78.1903C90.8103 78.4287 90.7038 78.7258 90.7038 79.0335V84.7477C90.7038 87.6181 88.3648 89.9545 85.4903 89.9545H76.863C73.9886 89.9545 71.6496 87.6221 71.6496 84.7544V79.7701C71.6496 79.3798 71.4791 79.0095 71.1808 78.7564C71.1008 78.6871 63.1169 71.8341 60.9471 65.8481C59.6977 62.4009 59.1249 59.6517 58.6214 57.2234C58.2058 55.2255 57.8475 53.4992 57.2042 51.9021C56.8579 51.0417 57.1256 50.6194 57.396 50.3477C57.9235 49.8202 58.7799 49.6231 59.2568 49.6231C59.3793 49.6231 59.4766 49.6364 59.5365 49.6604C60.4343 50.1199 62.6174 53.2155 63.1822 55.4546C63.4126 56.3643 63.5285 57.2288 63.6297 57.9893C63.8242 59.4452 63.98 60.5934 64.8498 61.2874C65.2441 61.6004 65.7809 61.6643 66.2377 61.4552C66.6946 61.2434 66.993 60.7932 67.0103 60.2897L67.9067 33.229C68.0905 32.7654 68.7432 31.3482 69.8208 31.3482C71.3646 31.3482 71.8414 32.7801 71.8428 32.7468C71.8428 33.3728 71.968 48.8213 71.968 48.8213C71.9733 49.5245 72.5261 50.1026 73.228 50.1399C73.9353 50.2145 74.54 49.6644 74.6226 48.9651L75.214 43.9235C75.4604 43.5399 76.1944 42.6435 77.7022 42.6435C79.0475 42.6435 79.2979 43.7584 79.3539 44.3324L80.189 49.7363C80.2969 50.4303 80.9296 50.9231 81.6236 50.8592C82.3229 50.7966 82.8543 50.2025 82.837 49.5006L82.7544 46.0441C82.8969 45.6991 83.3711 44.9492 84.787 44.9492C86.48 44.9492 86.8343 46.4956 86.8343 47.7943C86.8343 49.4073 87.6069 53.5725 87.6948 54.0413C87.816 54.6913 88.4007 55.1748 89.0601 55.1242C89.7221 55.0963 90.2629 54.5874 90.3295 53.9281C90.5186 52.062 91.3205 49.8069 92.0304 49.8069C93.9325 49.8069 94.3308 51.1243 94.3308 52.2285L94.3374 70.269Z" fill="black"/>
<path id="Vector_4" d="M81.8955 33.6419L81.8956 33.6419L81.8955 33.6419Z" stroke="url(#paint1_linear)" stroke-width="4"/>
<g id="Vector_5">
<mask id="path-5-inside-1" fill="white">
<path d="M70.3603 23.66C71.0956 23.66 71.6923 23.0646 71.6923 22.328V18.332C71.6923 17.5954 71.0956 17 70.3603 17C69.6251 17 69.0283 17.5954 69.0283 18.332V22.328C69.0283 23.0646 69.6251 23.66 70.3603 23.66Z"/>
</mask>
<path d="M70.3603 27.66C73.3021 27.66 75.6923 25.2763 75.6923 22.328H67.6923C67.6923 20.8528 68.889 19.66 70.3603 19.66V27.66ZM75.6923 22.328V18.332H67.6923V22.328H75.6923ZM75.6923 18.332C75.6923 15.3837 73.3021 13 70.3603 13V21C68.889 21 67.6923 19.8071 67.6923 18.332H75.6923ZM70.3603 13C67.4185 13 65.0283 15.3837 65.0283 18.332H73.0283C73.0283 19.8071 71.8316 21 70.3603 21V13ZM65.0283 18.332V22.328H73.0283V18.332H65.0283ZM65.0283 22.328C65.0283 25.2763 67.4185 27.66 70.3603 27.66V19.66C71.8316 19.66 73.0283 20.8528 73.0283 22.328H65.0283Z" fill="url(#paint2_linear)" mask="url(#path-5-inside-1)"/>
</g>
<path id="Vector_6" d="M76.197 24.8298C76.1971 24.8297 76.1971 24.8297 76.1972 24.8296L76.197 24.8298ZM80.1421 23.3537L80.1424 23.3535L80.1421 23.3537Z" stroke="url(#paint3_linear)" stroke-width="4"/>
<path id="Vector_7" d="M63.6818 25.8684C63.6816 25.8682 63.6813 25.868 63.6811 25.8679L63.6818 25.8684Z" stroke="url(#paint4_linear)" stroke-width="4"/>
<g id="Vector_8">
<mask id="path-9-inside-2" fill="white">
<path d="M58.6721 34.3239C58.772 34.3239 58.8718 34.3132 58.9731 34.2906L62.8665 33.3915C63.5831 33.2263 64.0293 32.511 63.8655 31.7944C63.699 31.0765 62.981 30.6276 62.2671 30.7954L58.3737 31.6945C57.6571 31.8597 57.2109 32.575 57.3747 33.2916C57.5185 33.907 58.066 34.3239 58.6721 34.3239Z"/>
</mask>
<path d="M58.9731 34.2906L59.8462 38.1941L59.8597 38.1911L59.8731 38.188L58.9731 34.2906ZM62.8665 33.3915L61.9681 29.4937L61.9665 29.4941L62.8665 33.3915ZM63.8655 31.7944L67.7649 30.9029L67.7621 30.8908L63.8655 31.7944ZM62.2671 30.7954L63.1671 34.6929L63.1748 34.6911L63.1824 34.6893L62.2671 30.7954ZM58.3737 31.6945L59.2721 35.5923L59.2737 35.592L58.3737 31.6945ZM57.3747 33.2916L53.4753 34.1831L53.4775 34.1926L53.4797 34.2021L57.3747 33.2916ZM58.6721 38.3239C59.0612 38.3239 59.454 38.2819 59.8462 38.1941L58.0999 30.387C58.2897 30.3446 58.4827 30.3239 58.6721 30.3239V38.3239ZM59.8731 38.188L63.7665 37.2889L61.9665 29.4941L58.0731 30.3932L59.8731 38.188ZM63.7649 37.2893C66.64 36.6266 68.4185 33.7619 67.7649 30.9029L59.9661 32.6859C59.6401 31.2601 60.5262 29.826 61.9681 29.4937L63.7649 37.2893ZM67.7621 30.8908C67.0999 28.0357 64.2401 26.2226 61.3517 26.9016L63.1824 34.6893C61.7219 35.0326 60.298 34.1173 59.9689 32.6981L67.7621 30.8908ZM61.3671 26.898L57.4737 27.7971L59.2737 35.592L63.1671 34.6929L61.3671 26.898ZM57.4753 27.7967C54.6002 28.4594 52.8217 31.3241 53.4753 34.1831L61.2741 32.4001C61.6001 33.8259 60.7139 35.26 59.2721 35.5923L57.4753 27.7967ZM53.4797 34.2021C54.0538 36.6582 56.2397 38.3239 58.6721 38.3239V30.3239C59.8923 30.3239 60.9833 31.1558 61.2697 32.3811L53.4797 34.2021Z" fill="url(#paint5_linear)" mask="url(#path-9-inside-2)"/>
</g>
</g>
</g>
</g>
<defs>
<linearGradient id="paint0_linear" x1="21.5358" y1="32.3094" x2="41.8671" y2="32.1509" gradientUnits="userSpaceOnUse">
<stop stop-color="#030DFC"/>
<stop offset="1" stop-color="#EB09FF"/>
</linearGradient>
<linearGradient id="paint1_linear" x1="78.2753" y1="33.7636" x2="81.9351" y2="33.7374" gradientUnits="userSpaceOnUse">
<stop stop-color="#030DFC"/>
<stop offset="1" stop-color="#EB09FF"/>
</linearGradient>
<linearGradient id="paint2_linear" x1="69.6196" y1="22.615" x2="71.1061" y2="22.6127" gradientUnits="userSpaceOnUse">
<stop stop-color="#030DFC"/>
<stop offset="1" stop-color="#EB09FF"/>
</linearGradient>
<linearGradient id="paint3_linear" x1="76.5658" y1="25.8685" x2="79.7846" y2="25.8546" gradientUnits="userSpaceOnUse">
<stop stop-color="#030DFC"/>
<stop offset="1" stop-color="#EB09FF"/>
</linearGradient>
<linearGradient id="paint4_linear" x1="60.9443" y1="25.8685" x2="64.1639" y2="25.8546" gradientUnits="userSpaceOnUse">
<stop stop-color="#030DFC"/>
<stop offset="1" stop-color="#EB09FF"/>
</linearGradient>
<linearGradient id="paint5_linear" x1="58.7966" y1="33.7647" x2="62.4559" y2="33.7386" gradientUnits="userSpaceOnUse">
<stop stop-color="#030DFC"/>
<stop offset="1" stop-color="#EB09FF"/>
</linearGradient>
</defs>
</svg>
