<svg width="80" height="81" viewBox="0 0 80 81" fill="none" xmlns="http://www.w3.org/2000/svg">
<path d="M75.7969 2.22363H4.20313C1.88595 2.22363 0 4.10956 0 6.42831V55.6814C0 57.9986 1.88595 59.8846 4.20313 59.8846H6.28124C6.57501 60.3377 6.93281 60.7518 7.34844 61.1142C7.17772 63.5829 8.5889 65.8853 10.8375 66.8658V76.5986C10.8375 78.3228 12.752 79.3597 14.1969 78.4236L17.9734 75.9736L21.75 78.4236C23.1965 79.361 25.1109 78.3229 25.1109 76.5986V66.8643C27.3539 65.8863 28.7712 63.591 28.6 61.1127C29.0141 60.7518 29.3719 60.3377 29.6656 59.8846H75.7969C78.1141 59.8846 80 57.9986 80 55.6814V6.42831C80 4.10956 78.1141 2.22363 75.7969 2.22363ZM75.5594 47.5424C75.5594 48.1893 75.0344 48.7143 74.3875 48.7143C71.0453 48.7143 68.3266 51.4346 68.3266 54.7783C68.3266 55.4252 67.8016 55.9502 67.1547 55.9502H30.5516C30.4422 55.1096 30.1516 54.3127 29.7094 53.6064H66.0641C66.5813 49.9064 69.5172 46.9705 73.2156 46.4518V16.1314C69.3594 15.5908 66.3344 12.4236 66.0109 8.50331H13.9891C13.6656 12.4236 10.6406 15.5908 6.78436 16.1314V46.4518C7.74845 46.5861 8.6797 46.8877 9.53907 47.3424C8.9214 47.8308 8.38333 48.4714 7.99999 49.2049C7.25 48.8814 6.44062 48.7143 5.61249 48.7143C4.96563 48.7143 4.44061 48.1893 4.44061 47.5424V15.0408C4.44061 14.3939 4.96563 13.869 5.61249 13.869C9.15903 13.869 11.916 10.8186 11.6609 7.41425C11.613 6.74927 12.1383 6.15956 12.8297 6.15956H67.1703C67.8626 6.15956 68.387 6.75019 68.3391 7.41425C68.0848 10.8077 70.8301 13.869 74.3875 13.869C75.0344 13.869 75.5594 14.3939 75.5594 15.0408V47.5424ZM40.3609 20.0009C42.8268 20.1818 44.6776 17.5743 43.3229 15.1012C42.5791 13.7438 40.5223 14.8665 41.2672 16.227C41.7365 17.0836 41.1349 17.7081 40.5339 17.6636C39.364 17.5771 38.4827 16.5549 38.5692 15.3848C38.6337 14.5125 38.9676 13.6879 39.5161 13.0174H43.6703C46.7869 13.0174 49.3281 15.5442 49.3281 18.6752V22.969C49.3281 35.1403 30.6719 35.4502 30.6719 22.969V18.6752C30.6719 15.5227 33.2306 13.0174 36.3297 13.0174H36.7855C36.4785 13.7059 36.2884 14.4473 36.2318 15.212C36.05 17.6708 37.9022 19.819 40.3609 20.0009ZM51.6016 24.2439C51.6918 23.4318 51.6719 23.2684 51.6719 19.4518C55.4111 19.4518 55.5925 24.2439 51.6016 24.2439ZM28.3984 24.2439C24.3987 24.2439 24.601 19.4518 28.3281 19.4518C28.3281 23.1763 28.3071 23.4253 28.3984 24.2439ZM60.425 37.5627C61.9738 37.5627 61.9753 39.9064 60.425 39.9064H19.575C18.027 39.9064 18.0243 37.5627 19.575 37.5627H60.425ZM68.5469 29.533H59.2906C57.7426 29.533 57.74 27.1893 59.2906 27.1893H68.5469C70.0948 27.1893 70.0976 29.533 68.5469 29.533ZM68.5469 34.6205H64.2547C62.7067 34.6205 62.704 32.2768 64.2547 32.2768H68.5469C70.0954 32.2768 70.0977 34.6205 68.5469 34.6205ZM51.1172 49.0924H60.425C61.9738 49.0924 61.9753 51.4361 60.425 51.4361H51.1172C49.5675 51.4361 49.5676 49.0924 51.1172 49.0924ZM27.9531 44.9924C26.404 44.9924 26.4036 42.6486 27.9531 42.6486H52.0469C53.596 42.6486 53.5964 44.9924 52.0469 44.9924H27.9531ZM26.7 59.6221C26.3062 59.8846 26.1094 60.3611 26.2016 60.8252C26.6898 63.2698 24.5336 65.4278 22.0875 64.9392C21.6219 64.8471 21.1469 65.0439 20.8844 65.4377C19.5003 67.5122 16.45 67.5149 15.064 65.4377C14.8438 65.108 14.4766 64.9174 14.0891 64.9174C10.3442 64.9174 9.36133 62.7554 9.74688 60.8252C9.83906 60.3596 9.64218 59.8846 9.24686 59.6221C7.17063 58.2346 7.17572 55.1841 9.24686 53.8033C9.64218 53.5392 9.83906 53.0642 9.74688 52.5986C9.25717 50.147 11.4234 47.9974 13.8594 48.4846C14.3266 48.5783 14.8 48.3799 15.064 47.9861C16.4524 45.9086 19.4985 45.9122 20.8844 47.9861C21.1469 48.3799 21.6219 48.5783 22.0875 48.4846C24.5312 47.9958 26.6901 50.1526 26.2016 52.5986C26.1094 53.0642 26.3062 53.5392 26.7 53.8018C28.7771 55.1898 28.7739 58.2361 26.7 59.6221ZM38.5977 26.5485C39.5676 27.1561 40.4324 27.1561 41.4023 26.5485C41.9507 26.2053 42.6738 26.371 43.0176 26.9196C43.3611 27.4681 43.1949 28.1912 42.6465 28.5349C41.7809 29.077 40.8904 29.3482 40 29.3482C39.1096 29.3482 38.2191 29.077 37.3535 28.5349C36.8051 28.1912 36.6389 27.4681 36.9824 26.9196C37.326 26.371 38.0492 26.205 38.5977 26.5485ZM37.1342 21.8329V22.923C37.1342 24.4713 34.7905 24.4736 34.7905 22.923V21.8329C34.7905 20.2846 37.1342 20.2822 37.1342 21.8329ZM42.8658 22.923V21.8329C42.8658 20.2846 45.2095 20.2822 45.2095 21.8329V22.923C45.2095 24.4713 42.8658 24.4736 42.8658 22.923ZM24.4828 56.7127C24.4828 60.3002 21.5625 63.2205 17.9734 63.2205C14.3859 63.2205 11.4656 60.3002 11.4656 56.7127C11.4656 53.1236 14.3859 50.2033 17.9734 50.2033C21.5625 50.2033 24.4828 53.1236 24.4828 56.7127Z" fill="#0D3B5B"/>
</svg>
