<svg width="12" height="12" viewBox="0 0 12 12" fill="none" xmlns="http://www.w3.org/2000/svg">
<g id="close (5) 1" clip-path="url(#clip0_301_267)">
<g id="Group">
<g id="close_1_">
<path id="Vector" d="M1.13754 11.9246C0.843336 11.9417 0.553996 11.8439 0.330533 11.6518C-0.110178 11.2085 -0.110178 10.4925 0.330533 10.0492L9.98066 0.399C10.439 -0.0299203 11.1583 -0.00607686 11.5872 0.452302C11.9751 0.866811 11.9977 1.50392 11.6402 1.94486L1.93317 11.6518C1.71259 11.8412 1.42789 11.9388 1.13754 11.9246Z" fill="#0D3B5B"/>
<path id="Vector_2" d="M10.7763 11.9247C10.4781 11.9234 10.1923 11.805 9.98061 11.595L0.330442 1.94485C-0.0778544 1.46805 -0.0223444 0.750501 0.45445 0.342168C0.880002 -0.0222591 1.5076 -0.0222591 1.93312 0.342168L11.6401 9.99233C12.0984 10.4214 12.1221 11.1407 11.693 11.5989C11.676 11.6172 11.6583 11.6348 11.6401 11.6519C11.4024 11.8586 11.0896 11.9573 10.7763 11.9247Z" fill="#0D3B5B"/>
</g>
</g>
</g>
<defs>
<clipPath id="clip0_301_267">
<rect width="12" height="12" fill="white"/>
</clipPath>
</defs>
</svg>
