<svg width="90" height="48" viewBox="0 0 90 48" fill="none" xmlns="http://www.w3.org/2000/svg">
<path d="M39.4246 12.6301C39.4246 16.083 36.559 18.6274 33.0424 18.6274C29.5257 18.6274 26.6602 16.083 26.6602 12.6301C26.6602 9.15286 29.5257 6.63281 33.0424 6.63281C36.559 6.63281 39.4246 9.15286 39.4246 12.6301ZM36.6307 12.6301C36.6307 10.4724 34.9699 8.99603 33.0424 8.99603C31.1148 8.99603 29.454 10.4724 29.454 12.6301C29.454 14.7662 31.1148 16.2641 33.0424 16.2641C34.9699 16.2641 36.6307 14.7635 36.6307 12.6301Z" fill="#EA4335"/>
<path d="M53.1941 12.6301C53.1941 16.083 50.3286 18.6274 46.8119 18.6274C43.2952 18.6274 40.4297 16.083 40.4297 12.6301C40.4297 9.15556 43.2952 6.63281 46.8119 6.63281C50.3286 6.63281 53.1941 9.15286 53.1941 12.6301ZM50.4003 12.6301C50.4003 10.4724 48.7395 8.99603 46.8119 8.99603C44.8843 8.99603 43.2235 10.4724 43.2235 12.6301C43.2235 14.7662 44.8843 16.2641 46.8119 16.2641C48.7395 16.2641 50.4003 14.7635 50.4003 12.6301Z" fill="#FBBC05"/>
<path d="M66.3879 6.99514V17.7621C66.3879 22.1911 63.617 24 60.3413 24C57.2577 24 55.4019 22.0559 54.702 20.466L57.1344 19.5115C57.5675 20.4877 58.6288 21.6395 60.3384 21.6395C62.4352 21.6395 63.7346 20.4201 63.7346 18.1244V17.2619H63.6371C63.0118 17.9892 61.807 18.6247 60.2868 18.6247C57.1057 18.6247 54.1914 16.0127 54.1914 12.6517C54.1914 9.26642 57.1057 6.63281 60.2868 6.63281C61.8042 6.63281 63.0089 7.26823 63.6371 7.97395H63.7346V6.99784H66.3879V6.99514ZM63.9325 12.6517C63.9325 10.54 62.4381 8.99603 60.5363 8.99603C58.6088 8.99603 56.9938 10.54 56.9938 12.6517C56.9938 14.7418 58.6088 16.2641 60.5363 16.2641C62.4381 16.2641 63.9325 14.7418 63.9325 12.6517Z" fill="#4285F4"/>
<path d="M70.764 0.68457V18.26H68.0391V0.68457H70.764Z" fill="#34A853"/>
<path d="M81.3832 14.6037L83.5517 15.9665C82.8518 16.9426 81.1652 18.6244 78.2509 18.6244C74.6367 18.6244 71.9375 15.9908 71.9375 12.6272C71.9375 9.0607 74.6596 6.62988 77.9382 6.62988C81.2397 6.62988 82.8547 9.10667 83.3824 10.4451L83.6722 11.1265L75.1673 14.4469C75.8185 15.6501 76.831 16.2639 78.2509 16.2639C79.6736 16.2639 80.6603 15.6042 81.3832 14.6037ZM74.7084 12.446L80.3936 10.2207C80.0809 9.47169 79.1401 8.94984 78.0329 8.94984C76.613 8.94984 74.6367 10.1314 74.7084 12.446Z" fill="#EA4335"/>
<path d="M16.3475 11.0698V8.52543H25.4432C25.5321 8.96887 25.578 9.49343 25.578 10.0613C25.578 11.9702 25.0244 14.3307 23.2403 16.0126C21.5049 17.716 19.2876 18.6245 16.3503 18.6245C10.9061 18.6245 6.32812 14.4443 6.32812 9.31227C6.32812 4.18025 10.9061 0 16.3503 0C19.3622 0 21.5077 1.11401 23.1198 2.56601L21.2152 4.36141C20.0592 3.33933 18.493 2.54438 16.3475 2.54438C12.3719 2.54438 9.26251 5.56465 9.26251 9.31227C9.26251 13.0599 12.3719 16.0802 16.3475 16.0802C18.9262 16.0802 20.3948 15.1041 21.3356 14.2172C22.0986 13.4979 22.6006 12.4704 22.7985 11.0671L16.3475 11.0698Z" fill="#4285F4"/>
<path d="M10.6557 37.1228L14.5658 37.697C14.894 37.7517 15.1674 37.9705 15.2768 38.2986C15.3862 38.5994 15.3041 38.9548 15.058 39.1736L12.2143 41.99L12.8979 45.9822C12.9526 46.3103 12.8158 46.6384 12.5424 46.8298C12.269 47.0486 11.9135 47.0486 11.6127 46.9119L8.11272 45.0251L4.58537 46.9119C4.31194 47.0486 3.92912 47.0486 3.68303 46.8298C3.40959 46.6384 3.27287 46.3103 3.32756 45.9822L3.98381 41.99L1.14006 39.1736C0.893969 38.9548 0.811937 38.5994 0.921312 38.2986C1.03069 37.9705 1.30412 37.7517 1.63225 37.697L5.56975 37.1228L7.31975 33.4861C7.45647 33.1853 7.75725 32.9939 8.11272 32.9939C8.44084 32.9939 8.74162 33.1853 8.87834 33.4861L10.6557 37.1228Z" fill="#FFCC41"/>
<path d="M29.1061 37.1228L33.0163 37.697C33.3444 37.7517 33.6178 37.9705 33.7272 38.2986C33.8366 38.5994 33.7546 38.9548 33.5085 39.1736L30.6647 41.99L31.3483 45.9822C31.403 46.3103 31.2663 46.6384 30.9928 46.8298C30.7194 47.0486 30.3639 47.0486 30.0632 46.9119L26.5632 45.0251L23.0358 46.9119C22.7624 47.0486 22.3796 47.0486 22.1335 46.8298C21.86 46.6384 21.7233 46.3103 21.778 45.9822L22.4343 41.99L19.5905 39.1736C19.3444 38.9548 19.2624 38.5994 19.3718 38.2986C19.4811 37.9705 19.7546 37.7517 20.0827 37.697L24.0202 37.1228L25.7702 33.4861C25.9069 33.1853 26.2077 32.9939 26.5632 32.9939C26.8913 32.9939 27.1921 33.1853 27.3288 33.4861L29.1061 37.1228Z" fill="#FFCC41"/>
<path d="M47.5568 37.1228L51.467 37.697C51.7951 37.7517 52.0685 37.9705 52.1779 38.2986C52.2873 38.5994 52.2052 38.9548 51.9592 39.1736L49.1154 41.99L49.799 45.9822C49.8537 46.3103 49.717 46.6384 49.4435 46.8298C49.1701 47.0486 48.8146 47.0486 48.5138 46.9119L45.0138 45.0251L41.4865 46.9119C41.2131 47.0486 40.8302 47.0486 40.5842 46.8298C40.3107 46.6384 40.174 46.3103 40.2287 45.9822L40.8849 41.99L38.0412 39.1736C37.7951 38.9548 37.7131 38.5994 37.8224 38.2986C37.9318 37.9705 38.2052 37.7517 38.5334 37.697L42.4709 37.1228L44.2209 33.4861C44.3576 33.1853 44.6584 32.9939 45.0138 32.9939C45.342 32.9939 45.6427 33.1853 45.7795 33.4861L47.5568 37.1228Z" fill="#FFCC41"/>
<path d="M66.0075 37.1228L69.9177 37.697C70.2458 37.7517 70.5192 37.9705 70.6286 38.2986C70.738 38.5994 70.6559 38.9548 70.4098 39.1736L67.5661 41.99L68.2497 45.9822C68.3044 46.3103 68.1677 46.6384 67.8942 46.8298C67.6208 47.0486 67.2653 47.0486 66.9645 46.9119L63.4645 45.0251L59.9372 46.9119C59.6637 47.0486 59.2809 47.0486 59.0348 46.8298C58.7614 46.6384 58.6247 46.3103 58.6794 45.9822L59.3356 41.99L56.4919 39.1736C56.2458 38.9548 56.1637 38.5994 56.2731 38.2986C56.3825 37.9705 56.6559 37.7517 56.9841 37.697L60.9216 37.1228L62.6716 33.4861C62.8083 33.1853 63.1091 32.9939 63.4645 32.9939C63.7927 32.9939 64.0934 33.1853 64.2302 33.4861L66.0075 37.1228Z" fill="#FFCC41"/>
<path d="M84.4577 37.1228L88.3678 37.697C88.696 37.7517 88.9694 37.9705 89.0788 38.2986C89.1882 38.5994 89.1061 38.9548 88.86 39.1736L86.0163 41.99L86.6999 45.9822C86.7546 46.3103 86.6178 46.6384 86.3444 46.8298C86.071 47.0486 85.7155 47.0486 85.4147 46.9119L81.9147 45.0251L78.3874 46.9119C78.1139 47.0486 77.7311 47.0486 77.485 46.8298C77.2116 46.6384 77.0749 46.3103 77.1296 45.9822L77.7858 41.99L74.9421 39.1736C74.696 38.9548 74.6139 38.5994 74.7233 38.2986C74.8327 37.9705 75.1061 37.7517 75.4343 37.697L79.3718 37.1228L81.1218 33.4861C81.2585 33.1853 81.5593 32.9939 81.9147 32.9939C82.2428 32.9939 82.5436 33.1853 82.6803 33.4861L84.4577 37.1228Z" fill="#FFCC41"/>
</svg>
