<svg width="128" height="66" viewBox="0 0 128 66" fill="none" xmlns="http://www.w3.org/2000/svg">
<path d="M54.8553 20.717C54.8553 26.3807 50.155 30.5542 44.3866 30.5542C38.6183 30.5542 33.918 26.3807 33.918 20.717C33.918 15.0133 38.6183 10.8797 44.3866 10.8797C50.155 10.8797 54.8553 15.0133 54.8553 20.717ZM50.2726 20.717C50.2726 17.1777 47.5484 14.7561 44.3866 14.7561C41.2249 14.7561 38.5006 17.1777 38.5006 20.717C38.5006 24.2208 41.2249 26.6779 44.3866 26.6779C47.5484 26.6779 50.2726 24.2163 50.2726 20.717Z" fill="#EA4335"/>
<path d="M77.4412 20.717C77.4412 26.3807 72.7409 30.5542 66.9726 30.5542C61.2042 30.5542 56.5039 26.3807 56.5039 20.717C56.5039 15.0177 61.2042 10.8797 66.9726 10.8797C72.7409 10.8797 77.4412 15.0133 77.4412 20.717ZM72.8585 20.717C72.8585 17.1777 70.1343 14.7561 66.9726 14.7561C63.8108 14.7561 61.0866 17.1777 61.0866 20.717C61.0866 24.2208 63.8108 26.6779 66.9726 26.6779C70.1343 26.6779 72.8585 24.2163 72.8585 20.717Z" fill="#FBBC05"/>
<path d="M99.0799 11.474V29.135C99.0799 36.3998 94.5349 39.3669 89.1618 39.3669C84.1039 39.3669 81.0597 36.178 79.9117 33.5702L83.9016 32.0045C84.612 33.6056 86.3529 35.495 89.1571 35.495C92.5964 35.495 94.7278 33.4947 94.7278 29.7293V28.3144H94.5678C93.5421 29.5075 91.566 30.5498 89.0724 30.5498C83.8545 30.5498 79.0742 26.2654 79.0742 20.7524C79.0742 15.1996 83.8545 10.8797 89.0724 10.8797C91.5613 10.8797 93.5374 11.922 94.5678 13.0796H94.7278V11.4785H99.0799V11.474ZM95.0524 20.7524C95.0524 17.2886 92.6011 14.7561 89.4817 14.7561C86.3199 14.7561 83.671 17.2886 83.671 20.7524C83.671 24.1808 86.3199 26.6779 89.4817 26.6779C92.6011 26.6779 95.0524 24.1808 95.0524 20.7524Z" fill="#4285F4"/>
<path d="M106.259 1.12286V29.9516H101.789V1.12286H106.259Z" fill="#34A853"/>
<path d="M123.677 23.9543L127.234 26.1897C126.086 27.7908 123.32 30.5495 118.539 30.5495C112.611 30.5495 108.184 26.2296 108.184 20.7122C108.184 14.8622 112.649 10.8749 118.026 10.8749C123.442 10.8749 126.091 14.9376 126.957 17.133L127.432 18.2507L113.481 23.6971C114.549 25.6707 116.21 26.6775 118.539 26.6775C120.873 26.6775 122.492 25.5953 123.677 23.9543ZM112.729 20.415L122.054 16.7649C121.541 15.5363 119.998 14.6803 118.182 14.6803C115.853 14.6803 112.611 16.6185 112.729 20.415Z" fill="#EA4335"/>
<path d="M17.001 18.1577V13.9842H31.9206C32.0665 14.7115 32.1417 15.572 32.1417 16.5034C32.1417 19.6346 31.2337 23.5065 28.3072 26.2652C25.4606 29.0594 21.8237 30.5496 17.0057 30.5496C8.07561 30.5496 0.566406 23.6928 0.566406 15.2748C0.566406 6.85681 8.07561 0 17.0057 0C21.946 0 25.4653 1.8273 28.1096 4.209L24.9854 7.15397C23.0893 5.47746 20.5204 4.17352 17.001 4.17352C10.4799 4.17352 5.37963 9.12763 5.37963 15.2748C5.37963 21.422 10.4799 26.3761 17.001 26.3761C21.2308 26.3761 23.6398 24.775 25.183 23.3202C26.4346 22.1405 27.2579 20.4551 27.5826 18.1532L17.001 18.1577Z" fill="#4285F4"/>
<path d="M29.6569 54.4898L33.5671 55.064C33.8952 55.1187 34.1686 55.3375 34.278 55.6656C34.3874 55.9664 34.3053 56.3218 34.0593 56.5406L31.2155 59.357L31.8991 63.3492C31.9538 63.6773 31.8171 64.0054 31.5436 64.1968C31.2702 64.4156 30.9147 64.4156 30.6139 64.2789L27.1139 62.3922L23.5866 64.2789C23.3132 64.4156 22.9303 64.4156 22.6843 64.1968C22.4108 64.0054 22.2741 63.6773 22.3288 63.3492L22.985 59.357L20.1413 56.5406C19.8952 56.3218 19.8132 55.9664 19.9225 55.6656C20.0319 55.3375 20.3053 55.1187 20.6335 55.064L24.571 54.4898L26.321 50.8531C26.4577 50.5523 26.7585 50.3609 27.1139 50.3609C27.4421 50.3609 27.7428 50.5523 27.8796 50.8531L29.6569 54.4898Z" fill="#FFCC41"/>
<path d="M48.1061 54.4898L52.0163 55.064C52.3444 55.1187 52.6178 55.3375 52.7272 55.6656C52.8366 55.9664 52.7546 56.3218 52.5085 56.5406L49.6647 59.357L50.3483 63.3492C50.403 63.6773 50.2663 64.0054 49.9928 64.1968C49.7194 64.4156 49.3639 64.4156 49.0632 64.2789L45.5632 62.3922L42.0358 64.2789C41.7624 64.4156 41.3796 64.4156 41.1335 64.1968C40.86 64.0054 40.7233 63.6773 40.778 63.3492L41.4343 59.357L38.5905 56.5406C38.3444 56.3218 38.2624 55.9664 38.3718 55.6656C38.4811 55.3375 38.7546 55.1187 39.0827 55.064L43.0202 54.4898L44.7702 50.8531C44.9069 50.5523 45.2077 50.3609 45.5632 50.3609C45.8913 50.3609 46.1921 50.5523 46.3288 50.8531L48.1061 54.4898Z" fill="#FFCC41"/>
<path d="M66.5593 54.4898L70.4694 55.064C70.7975 55.1187 71.071 55.3375 71.1803 55.6656C71.2897 55.9664 71.2077 56.3218 70.9616 56.5406L68.1178 59.357L68.8014 63.3492C68.8561 63.6773 68.7194 64.0054 68.446 64.1968C68.1725 64.4156 67.8171 64.4156 67.5163 64.2789L64.0163 62.3922L60.4889 64.2789C60.2155 64.4156 59.8327 64.4156 59.5866 64.1968C59.3132 64.0054 59.1764 63.6773 59.2311 63.3492L59.8874 59.357L57.0436 56.5406C56.7975 56.3218 56.7155 55.9664 56.8249 55.6656C56.9343 55.3375 57.2077 55.1187 57.5358 55.064L61.4733 54.4898L63.2233 50.8531C63.36 50.5523 63.6608 50.3609 64.0163 50.3609C64.3444 50.3609 64.6452 50.5523 64.7819 50.8531L66.5593 54.4898Z" fill="#FFCC41"/>
<path d="M85.0085 54.4898L88.9186 55.064C89.2468 55.1187 89.5202 55.3375 89.6296 55.6656C89.7389 55.9664 89.6569 56.3218 89.4108 56.5406L86.5671 59.357L87.2507 63.3492C87.3053 63.6773 87.1686 64.0054 86.8952 64.1968C86.6218 64.4156 86.2663 64.4156 85.9655 64.2789L82.4655 62.3922L78.9382 64.2789C78.6647 64.4156 78.2819 64.4156 78.0358 64.1968C77.7624 64.0054 77.6257 63.6773 77.6803 63.3492L78.3366 59.357L75.4928 56.5406C75.2468 56.3218 75.1647 55.9664 75.2741 55.6656C75.3835 55.3375 75.6569 55.1187 75.985 55.064L79.9225 54.4898L81.6725 50.8531C81.8093 50.5523 82.11 50.3609 82.4655 50.3609C82.7936 50.3609 83.0944 50.5523 83.2311 50.8531L85.0085 54.4898Z" fill="#FFCC41"/>
<path d="M103.458 54.4898L107.368 55.064C107.696 55.1187 107.969 55.3375 108.079 55.6656C108.188 55.9664 108.106 56.3218 107.86 56.5406L105.016 59.357L105.7 63.3492C105.755 63.6773 105.618 64.0054 105.344 64.1968C105.071 64.4156 104.716 64.4156 104.415 64.2789L100.915 62.3922L97.3874 64.2789C97.1139 64.4156 96.7311 64.4156 96.485 64.1968C96.2116 64.0054 96.0749 63.6773 96.1296 63.3492L96.7858 59.357L93.9421 56.5406C93.696 56.3218 93.6139 55.9664 93.7233 55.6656C93.8327 55.3375 94.1061 55.1187 94.4343 55.064L98.3718 54.4898L100.122 50.8531C100.258 50.5523 100.559 50.3609 100.915 50.3609C101.243 50.3609 101.544 50.5523 101.68 50.8531L103.458 54.4898Z" fill="#FFCC41"/>
</svg>
