<svg width="20" height="20" viewBox="0 0 20 20" fill="none" xmlns="http://www.w3.org/2000/svg">
<g id="Frame 35859">
<path id="&#239;&#143;&#133;" d="M9.25 17.6479C7.625 15.6137 4 10.7628 4 8.0088C4 4.69144 6.65625 2 10 2C13.3125 2 16 4.69144 16 8.0088C16 10.7628 12.3438 15.6137 10.7188 17.6479C10.3438 18.1174 9.625 18.1174 9.25 17.6479ZM10 10.0117C11.0938 10.0117 12 9.13545 12 8.0088C12 6.91345 11.0938 6.00587 10 6.00587C8.875 6.00587 8 6.91345 8 8.0088C8 9.13545 8.875 10.0117 10 10.0117Z" fill="#49718C"/>
</g>
</svg>
