<svg width="60" height="26" viewBox="0 0 60 26" fill="none" xmlns="http://www.w3.org/2000/svg">
<g clip-path="url(#clip0_1226_3477)">
<path fill-rule="evenodd" clip-rule="evenodd" d="M10.5772 0.32666C9.31191 0.32666 8.0527 1.34488 6.64895 2.23235C4.95281 3.30477 3.13453 4.33043 1.99574 5.01489C-0.0852704 6.26586 0.000497377 7.91046 0.000497377 8.52622V12.4155C0.000497377 13.988 2.08979 13.9588 2.08979 12.4155V8.24563C2.08979 7.29475 2.71284 7.09988 3.25069 6.77252C3.78849 6.44516 9.39641 2.98649 9.78803 2.75846C10.1797 2.53048 10.359 2.38827 10.5812 2.38827C10.8033 2.38827 11.154 2.5013 11.9101 3.00791C12.6661 3.51452 18.2897 6.63999 18.769 6.92451C19.2483 7.20898 20.016 7.51296 20.016 8.32354C20.016 9.13417 19.2522 9.46148 18.8547 9.46148C18.4572 9.46148 18.1455 9.24328 17.6388 8.95487C17.1323 8.66647 13.6638 6.69461 12.9545 6.28148C12.2452 5.86841 11.3099 5.24484 10.6552 5.24484C10.0005 5.24484 9.71208 5.38513 9.31453 5.6112C8.91707 5.83721 5.01211 8.20663 4.81729 8.35474C4.62246 8.50284 3.82745 9.08741 3.82745 10.5527C3.82745 12.018 4.77833 12.7585 5.5733 13.156C6.36831 13.5535 10.6786 16.2425 11.4503 16.2425C12.2219 16.2425 12.4635 15.6346 12.4635 15.1747C12.4635 14.62 11.9614 14.3088 11.3333 13.9276C10.5756 13.4679 9.59788 12.9563 8.6209 12.4467C7.17431 11.6921 5.92408 11.2309 5.92408 10.5293C5.92408 9.89449 7.30217 9.21031 8.32474 8.61194C9.54938 7.89536 10.4611 7.31809 10.546 7.31809C10.71 7.31809 12.7566 8.59015 14.8485 9.80446C16.3381 10.6692 17.7889 11.5971 18.8781 11.5971C20.246 11.5971 22.1049 10.6034 22.1049 8.382C22.1049 6.16064 20.4681 5.43578 19.7082 5.04996C18.7461 4.55304 16.6903 3.35374 14.7627 2.22066C13.1534 1.27469 11.6784 0.32666 10.5772 0.32666Z" fill="url(#paint0_linear_1226_3477)"/>
<path fill-rule="evenodd" clip-rule="evenodd" d="M9.68831 10.6875C9.68831 11.2421 10.1903 11.5534 10.8184 11.9345C11.5762 12.3943 12.5539 12.9058 13.5308 13.4154C14.9775 14.17 16.2277 14.6313 16.2277 15.3328C16.2277 15.9677 14.8496 16.6518 13.827 17.2502C12.6024 17.9668 11.6906 18.5441 11.6057 18.5441C11.4418 18.5441 9.39509 17.272 7.30327 16.0577C5.81361 15.193 4.3629 14.265 3.27369 14.265C1.9058 14.265 0.046875 15.2588 0.046875 17.4801C0.046875 19.7015 1.68366 20.4264 2.44355 20.8122C3.40571 21.3091 5.46142 22.5084 7.38904 23.6415C8.99843 24.5875 10.4734 25.5355 11.5745 25.5355C12.8399 25.5355 14.099 24.5172 15.5028 23.6298C17.199 22.5574 19.0173 21.5318 20.156 20.8473C22.2371 19.5963 22.1512 17.9517 22.1512 17.3359V13.4466C22.1512 11.8741 20.062 11.9034 20.062 13.4466V17.6165C20.062 18.5674 19.4389 18.7623 18.9011 19.0896C18.3632 19.417 12.7553 22.8757 12.3637 23.1037C11.972 23.3317 11.7928 23.4739 11.5706 23.4739C11.3485 23.4739 10.9977 23.3609 10.2417 22.8542C9.48563 22.3476 3.86209 19.2222 3.38274 18.9376C2.9034 18.6532 2.1357 18.3492 2.1357 17.5386C2.1357 16.728 2.89956 16.4006 3.29707 16.4006C3.69458 16.4006 4.00631 16.6189 4.51297 16.9073C5.01953 17.1957 8.48803 19.1676 9.19727 19.5807C9.90652 19.9938 10.8418 20.6173 11.4965 20.6173C12.1513 20.6173 12.4397 20.477 12.8372 20.251C13.2347 20.0249 17.1396 17.6555 17.3344 17.5074C17.5293 17.3593 18.3243 16.7747 18.3243 15.3094C18.3243 13.8441 17.3735 13.1037 16.5784 12.7061C15.7834 12.3086 11.4732 9.61963 10.7015 9.61963C9.9299 9.61963 9.68831 10.2276 9.68831 10.6875Z" fill="url(#paint1_linear_1226_3477)"/>
<path fill-rule="evenodd" clip-rule="evenodd" d="M25.5377 15.6323C25.9279 15.8848 26.6165 16.2062 27.3281 16.2062C28.3381 16.2062 28.9579 15.5864 28.9579 14.5994C28.9579 13.7501 28.6595 13.1762 27.5347 12.4188C26.0885 11.4776 25.3082 10.5365 25.3082 9.25115C25.3082 7.46073 26.6395 6.17529 28.3611 6.17529C29.2332 6.17529 29.8989 6.4737 30.358 6.74915L29.876 8.08052C29.4628 7.80502 28.9808 7.59846 28.4069 7.59846C27.4428 7.59846 26.9609 8.28708 26.9609 8.99861C26.9609 9.75612 27.2363 10.1693 28.3381 10.9268C29.6234 11.7531 30.6335 12.7631 30.6335 14.301C30.6335 16.5275 29.1185 17.6063 27.3052 17.6063C26.4788 17.6063 25.5836 17.3539 25.1016 16.9636L25.5377 15.6323Z" fill="white"/>
<path fill-rule="evenodd" clip-rule="evenodd" d="M34.7675 11.5235H34.8133C35.0199 11.0873 35.2036 10.6513 35.4101 10.284L37.6138 6.35885H39.519L36.5808 11.0415L39.7714 17.4685H37.7974L35.3872 12.2351L34.7675 13.268V17.4685H33V1.58447H34.7675V11.5235Z" fill="white"/>
<path fill-rule="evenodd" clip-rule="evenodd" d="M41.7461 17.4689H43.5136V6.3592H41.7461V17.4689ZM43.6512 3.48995C43.6742 4.17858 43.2381 4.63767 42.5724 4.63767C41.9986 4.63767 41.5625 4.17858 41.5625 3.48995C41.5625 2.80133 42.0216 2.34229 42.5954 2.34229C43.2381 2.34229 43.6512 2.80133 43.6512 3.48995Z" fill="white"/>
<path fill-rule="evenodd" clip-rule="evenodd" d="M45.9609 17.4685H47.7283V1.58447H45.9609V17.4685Z" fill="white"/>
<path fill-rule="evenodd" clip-rule="evenodd" d="M50.293 17.4685H52.0604V1.58447H50.293V17.4685Z" fill="white"/>
<path fill-rule="evenodd" clip-rule="evenodd" d="M54.6041 15.6323C54.9943 15.8848 55.683 16.2062 56.3945 16.2062C57.4045 16.2062 58.0243 15.5864 58.0243 14.5994C58.0243 13.7501 57.7259 13.1762 56.6011 12.4188C55.155 11.4776 54.3746 10.5365 54.3746 9.25115C54.3746 7.46073 55.7059 6.17529 57.4275 6.17529C58.2996 6.17529 58.9654 6.4737 59.4244 6.74915L58.9424 8.08052C58.5292 7.80502 58.0472 7.59846 57.4733 7.59846C56.5093 7.59846 56.0273 8.28708 56.0273 8.99861C56.0273 9.75612 56.3027 10.1693 57.4045 10.9268C58.6899 11.7531 59.6999 12.7631 59.6999 14.301C59.6999 16.5275 58.1849 17.6063 56.3716 17.6063C55.5453 17.6063 54.65 17.3539 54.168 16.9636L54.6041 15.6323Z" fill="white"/>
<path fill-rule="evenodd" clip-rule="evenodd" d="M25.8606 20.4289H25.1914V19.7485H27.272V20.4289H26.5972V23.5385H25.8606V20.4289Z" fill="white"/>
<path fill-rule="evenodd" clip-rule="evenodd" d="M27.8232 21.6147C27.8232 21.3392 27.812 21.0412 27.8008 20.7882H28.4418L28.4811 21.1873H28.498C28.6217 20.895 28.841 20.7432 29.0434 20.7432C29.1165 20.7432 29.1559 20.7432 29.2009 20.7544V21.4854C29.1559 21.4742 29.1053 21.4742 29.0434 21.4742C28.886 21.4742 28.6779 21.581 28.5936 21.8678C28.5767 21.9296 28.5654 22.0252 28.5654 22.1433V23.5378H27.8232V21.6147Z" fill="white"/>
<path fill-rule="evenodd" clip-rule="evenodd" d="M31.0126 22.1996C30.7652 22.2051 30.4277 22.2839 30.4277 22.6662C30.4277 22.9418 30.5795 23.043 30.6921 23.043C30.8101 23.043 30.9451 22.9699 30.9957 22.8068C31.0069 22.7675 31.0126 22.7225 31.0126 22.6775V22.1996ZM31.1138 23.5378L31.0744 23.2679H31.0632C30.9114 23.4816 30.6977 23.5828 30.4559 23.5828C30.0397 23.5828 29.7305 23.2342 29.7305 22.745C29.7305 22.0252 30.3659 21.7272 30.99 21.7216V21.6597C30.99 21.4461 30.8607 21.2886 30.6021 21.2886C30.3828 21.2886 30.2029 21.3448 30.0397 21.4461L29.9049 20.9512C30.0567 20.8613 30.3771 20.7432 30.7595 20.7432C31.5973 20.7432 31.7324 21.328 31.7324 21.8847V22.908C31.7324 23.1274 31.7436 23.3523 31.7773 23.5378H31.1138Z" fill="white"/>
<path fill-rule="evenodd" clip-rule="evenodd" d="M32.7045 23.5377H33.4412V20.788H32.7045V23.5377ZM33.4412 20.057C33.4467 20.2932 33.278 20.4562 33.0532 20.4562C32.8508 20.4562 32.6821 20.2932 32.6876 20.057C32.6821 19.8096 32.862 19.6577 33.0644 19.6577C33.278 19.6577 33.4412 19.8096 33.4412 20.057Z" fill="white"/>
<path fill-rule="evenodd" clip-rule="evenodd" d="M34.4132 21.6147C34.4132 21.3111 34.3963 21.0468 34.3906 20.7882H35.026L35.0597 21.1031H35.071C35.2172 20.8837 35.4534 20.7432 35.7401 20.7432C36.2632 20.7432 36.4711 21.1593 36.4711 21.7721V23.5378H35.7346V21.8171C35.7346 21.581 35.6783 21.3617 35.4646 21.3617C35.3409 21.3617 35.2397 21.4461 35.1891 21.6091C35.1666 21.6653 35.1497 21.7554 35.1497 21.8621V23.5378H34.4132V21.6147Z" fill="white"/>
<path fill-rule="evenodd" clip-rule="evenodd" d="M37.3881 23.5377H38.1247V20.788H37.3881V23.5377ZM38.1247 20.057C38.1303 20.2932 37.9616 20.4562 37.7367 20.4562C37.5343 20.4562 37.3656 20.2932 37.3712 20.057C37.3656 19.8096 37.5455 19.6577 37.748 19.6577C37.9616 19.6577 38.1247 19.8096 38.1247 20.057Z" fill="white"/>
<path fill-rule="evenodd" clip-rule="evenodd" d="M39.046 21.6152C39.046 21.3116 39.0291 21.0473 39.0234 20.7886H39.6588L39.6926 21.1036H39.7038C39.85 20.8842 40.0862 20.7437 40.3729 20.7437C40.896 20.7437 41.1039 21.1598 41.1039 21.7726V23.5383H40.3674V21.8176C40.3674 21.5815 40.3111 21.3622 40.0975 21.3622C39.9737 21.3622 39.8725 21.4466 39.8219 21.6096C39.7994 21.6658 39.7825 21.7558 39.7825 21.8626V23.5383H39.046V21.6152Z" fill="white"/>
<path fill-rule="evenodd" clip-rule="evenodd" d="M43.2493 21.789C43.2493 21.716 43.238 21.6428 43.2211 21.5866C43.1874 21.4685 43.1087 21.3617 42.9849 21.3617C42.7207 21.3617 42.6138 21.7216 42.6138 22.1714C42.6138 22.6831 42.76 22.9417 42.9681 22.9417C43.0636 22.9417 43.1593 22.8911 43.2154 22.7449C43.238 22.6831 43.2493 22.5987 43.2493 22.5256V21.789ZM44.0083 20.7882C43.9971 21.0355 43.9802 21.328 43.9802 21.6597V23.2285C43.9802 23.819 43.8734 24.1451 43.6485 24.3588C43.446 24.55 43.1593 24.6624 42.7544 24.6624C42.5014 24.6624 42.2652 24.6174 42.0684 24.5331L42.2033 23.9651C42.3439 24.027 42.5183 24.0832 42.7319 24.0832C43.103 24.0832 43.2493 23.8358 43.2493 23.4141V23.2454H43.238C43.1424 23.4197 42.9512 23.5209 42.7432 23.5209C42.1246 23.5209 41.8828 22.8461 41.8828 22.1883C41.8828 21.2717 42.299 20.7432 42.8106 20.7432C43.03 20.7432 43.2099 20.8556 43.3166 21.0636H43.328L43.3673 20.7882H44.0083Z" fill="white"/>
<path fill-rule="evenodd" clip-rule="evenodd" d="M48.8282 23.4368C48.6651 23.5043 48.3165 23.5718 48.0409 23.5718C47.608 23.5718 47.2818 23.4481 47.0288 23.195C46.7026 22.8802 46.5283 22.3178 46.5396 21.6655C46.5564 20.2879 47.3437 19.7144 48.1478 19.7144C48.4345 19.7144 48.6482 19.7706 48.7664 19.8269L48.637 20.4623C48.5301 20.406 48.3896 20.3779 48.204 20.3779C47.7035 20.3779 47.3043 20.7209 47.3043 21.7105C47.3043 22.6215 47.6586 22.9476 48.0016 22.9476C48.0691 22.9476 48.1197 22.942 48.1478 22.9308V22.0142H47.8104V21.4125H48.8282V23.4368Z" fill="white"/>
<path fill-rule="evenodd" clip-rule="evenodd" d="M49.8037 21.6147C49.8037 21.3392 49.7925 21.0412 49.7812 20.7882H50.4223L50.4616 21.1873H50.4785C50.6022 20.895 50.8215 20.7432 51.0239 20.7432C51.0969 20.7432 51.1363 20.7432 51.1814 20.7544V21.4854C51.1363 21.4742 51.0857 21.4742 51.0239 21.4742C50.8664 21.4742 50.6584 21.581 50.5741 21.8678C50.5571 21.9296 50.5459 22.0252 50.5459 22.1433V23.5378H49.8037V21.6147Z" fill="white"/>
<path fill-rule="evenodd" clip-rule="evenodd" d="M52.6685 22.1545C52.6685 22.6269 52.7415 23.0205 53.0058 23.0205C53.242 23.0205 53.3038 22.5594 53.3038 22.1545C53.3038 21.7778 53.242 21.2999 52.9946 21.2999C52.7247 21.2999 52.6685 21.7778 52.6685 22.1545ZM54.0405 22.1545C54.0405 23.3017 53.405 23.5828 52.989 23.5828C52.3311 23.5828 51.9375 23.0655 51.9375 22.1714C51.9375 21.1817 52.4548 20.7432 53.0002 20.7432C53.6469 20.7432 54.0405 21.2886 54.0405 22.1545Z" fill="white"/>
<path fill-rule="evenodd" clip-rule="evenodd" d="M56.9183 22.6999C56.9183 22.9923 56.9296 23.2791 56.9408 23.5378H56.3054L56.266 23.2453H56.2548C56.1255 23.4309 55.9006 23.5827 55.6195 23.5827C55.0964 23.5827 54.8828 23.1947 54.8828 22.4525V20.7881H55.625V22.3738C55.625 22.7337 55.6925 22.9642 55.9006 22.9642C56.0243 22.9642 56.103 22.8686 56.1367 22.7787C56.1648 22.7224 56.1817 22.6381 56.1817 22.5425V20.7881H56.9183V22.6999Z" fill="white"/>
<path fill-rule="evenodd" clip-rule="evenodd" d="M58.6263 22.5313C58.6263 22.6268 58.6375 22.7112 58.6657 22.7675C58.7218 22.9361 58.8175 22.9811 58.9018 22.9811C59.1604 22.9811 59.2504 22.5987 59.2504 22.1658C59.2504 21.6428 59.1267 21.3617 58.9074 21.3617C58.795 21.3617 58.6881 21.4685 58.66 21.5978C58.6318 21.6541 58.6263 21.7272 58.6263 21.7947V22.5313ZM57.8896 21.6597C57.8896 21.328 57.8784 21.0468 57.8672 20.7882H58.5082L58.5475 21.103H58.5588C58.6712 20.8781 58.8793 20.7432 59.1323 20.7432C59.7396 20.7432 59.9871 21.3954 59.9871 22.1602C59.9871 23.1385 59.5541 23.5828 59.093 23.5828C58.8681 23.5828 58.7163 23.4422 58.6375 23.3129H58.6263V24.6174H57.8896V21.6597Z" fill="white"/>
</g>
<defs>
<linearGradient id="paint0_linear_1226_3477" x1="-0.0017045" y1="796.12" x2="2210.49" y2="796.12" gradientUnits="userSpaceOnUse">
<stop stop-color="#1577BC"/>
<stop offset="1" stop-color="#5EC8D4"/>
</linearGradient>
<linearGradient id="paint1_linear_1226_3477" x1="0.0461038" y1="805.412" x2="2210.54" y2="805.412" gradientUnits="userSpaceOnUse">
<stop stop-color="#1577BC"/>
<stop offset="1" stop-color="#5EC8D4"/>
</linearGradient>
<clipPath id="clip0_1226_3477">
<rect width="60" height="25.44" fill="white" transform="translate(0 0.279785)"/>
</clipPath>
</defs>
</svg>
