<svg width="422" height="483" viewBox="0 0 422 483" fill="none" xmlns="http://www.w3.org/2000/svg">
<path fill-rule="evenodd" clip-rule="evenodd" d="M141.444 27.2091C162.55 13.1684 182.162 0.121338 201.852 0.121338C220.666 0.121338 245.218 14.7627 272.207 30.857C275.245 32.6688 278.314 34.4989 281.409 36.3286C318.048 57.9895 357.124 80.9162 375.41 90.4162C376.015 90.7245 376.649 91.0451 377.308 91.3778C392.404 99.002 420.966 113.426 420.966 154.114C420.966 196.58 385.633 215.577 359.632 215.577C341.151 215.577 317.194 201.441 292.123 186.648C289.109 184.869 286.078 183.081 283.039 181.307C268.811 173 254.693 164.551 242.284 157.127C220.019 143.803 203.261 133.775 201.26 133.775C200.248 133.775 193.062 138.111 182.107 144.721C175.584 148.656 167.725 153.397 159.038 158.509C156.378 160.076 153.59 161.672 150.76 163.293C132.921 173.512 113.407 184.689 113.407 195.164C113.407 206.09 129.18 213.967 149.894 224.312C154.605 226.665 159.572 229.146 164.667 231.818C183.238 241.56 201.821 251.34 216.224 260.128C228.163 267.416 237.706 273.365 237.706 283.969C237.706 292.76 233.114 304.382 218.447 304.382C207.851 304.382 162.159 277.559 131.908 259.8C120.281 252.974 110.935 247.487 106.74 245.378C91.6297 237.779 73.5553 223.623 73.5553 195.611C73.5553 167.954 88.286 156.71 92.2234 153.704C92.2741 153.666 92.3227 153.628 92.37 153.593C96.0731 150.762 170.297 105.466 177.852 101.145C185.408 96.8233 190.89 94.1413 203.336 94.1413C214.012 94.1413 228.616 102.917 241.064 110.397C243.123 111.635 245.125 112.838 247.039 113.959C258.721 120.802 309.782 150.019 329.469 161.284C332.502 163.02 334.791 164.33 336.075 165.065C337.409 165.829 338.671 166.566 339.876 167.271C347.379 171.654 352.679 174.75 359.188 174.75C366.742 174.75 381.262 168.493 381.262 152.997C381.262 139.53 370.242 133.377 361.375 128.428C360.039 127.682 358.752 126.963 357.558 126.251C354.817 124.614 343.219 118.058 327.953 109.429C292.49 89.3839 237.232 58.1484 227.186 51.3783C212.816 41.6936 206.149 39.5327 201.927 39.5327C198.557 39.5327 195.707 41.2646 190.907 44.1797C189.693 44.9169 188.354 45.7299 186.852 46.6097C181.989 49.4572 134.819 78.658 99.8397 100.312C81.2709 111.807 66.1374 121.176 62.5926 123.346C61.1593 124.223 59.6941 125.051 58.2342 125.875C49.2814 130.932 40.5266 135.878 40.5266 151.507V231.222C40.5266 260.725 0.814141 261.284 0.814141 231.222V156.871C0.814141 156.447 0.812026 155.997 0.809797 155.524C0.750134 142.844 0.608751 112.799 38.739 89.7452C45.726 85.5222 54.0587 80.6187 63.2246 75.2249C82.455 63.9095 105.352 50.4358 127.185 36.5521C132.023 33.4763 136.77 30.3183 141.444 27.2091ZM206.222 222.992C194.283 215.706 184.741 209.754 184.741 199.153C184.741 190.361 189.333 178.739 204 178.739C214.594 178.739 260.286 205.562 290.537 223.32C302.164 230.147 311.51 235.633 315.706 237.743C330.817 245.342 348.89 259.498 348.89 287.51C348.89 315.166 334.16 326.41 330.222 329.416L330.076 329.528C326.373 332.359 252.149 377.655 244.594 381.977C237.038 386.298 231.555 388.98 219.111 388.98C208.431 388.98 193.823 380.2 181.373 372.719C179.317 371.483 177.319 370.282 175.407 369.162C163.653 362.277 112.026 332.736 92.6119 321.627C89.7599 319.996 87.603 318.761 86.3702 318.056C85.0361 317.291 83.7736 316.554 82.5678 315.849C75.0671 311.466 69.7678 308.369 63.2586 308.369C55.703 308.369 41.1838 314.628 41.1838 330.124C41.1838 343.591 52.2043 349.743 61.0707 354.693C62.4068 355.439 63.6939 356.157 64.8871 356.87C67.6273 358.505 79.212 365.054 94.4641 373.675C129.924 393.719 185.211 424.97 195.26 431.742C209.63 441.429 216.297 443.588 220.519 443.588C223.888 443.588 226.739 441.856 231.537 438.942C232.751 438.205 234.09 437.392 235.594 436.511C240.452 433.666 287.555 404.508 322.526 382.858C341.132 371.341 356.304 361.949 359.854 359.775C361.288 358.897 362.754 358.069 364.214 357.245C373.166 352.188 381.92 347.243 381.92 331.614V251.899C381.92 222.397 421.632 221.837 421.632 251.899V326.25C421.632 326.674 421.634 327.124 421.636 327.598C421.696 340.277 421.837 370.323 383.707 393.376C376.711 397.605 368.366 402.516 359.186 407.918C339.964 419.229 317.081 432.695 295.261 446.569C290.422 449.646 285.672 452.805 280.996 455.916C259.892 469.954 240.282 483 220.594 483C201.781 483 177.228 468.358 150.24 452.264C147.202 450.452 144.132 448.622 141.037 446.792C104.398 425.132 65.3236 402.205 47.0354 392.705C46.4308 392.396 45.7971 392.076 45.1377 391.743C30.0418 384.12 1.48019 369.695 1.48019 329.007C1.48019 286.541 36.8139 267.544 62.8142 267.544C81.2945 267.544 105.249 281.678 130.318 296.47C133.334 298.249 136.366 300.039 139.407 301.814C153.633 310.12 167.749 318.567 180.156 325.991C202.424 339.316 219.186 349.346 221.186 349.346C222.198 349.346 229.389 345.007 240.352 338.393C246.872 334.459 254.726 329.721 263.409 324.611C266.069 323.045 268.858 321.448 271.688 319.827C289.526 309.608 309.039 298.431 309.039 287.957C309.039 277.031 293.264 269.153 272.548 258.807C267.838 256.455 262.872 253.975 257.778 251.302C239.208 241.56 220.625 231.781 206.222 222.992Z" fill="rgba(87, 195, 216, 0.08)"/>
</svg>
