<svg width="18" height="16" viewBox="0 0 18 16" fill="none" xmlns="http://www.w3.org/2000/svg">
<path id="Vector" d="M16.6886 13.763L12.9597 10.0338C13.5932 9.02518 13.961 7.83301 13.961 6.55359C13.961 2.93393 11.0266 0 7.4071 0C3.78758 0 0.853516 2.93393 0.853516 6.55359C0.853516 10.1734 3.78744 13.107 7.4071 13.107C8.79944 13.107 10.0891 12.6717 11.1503 11.9321L14.8348 15.6169C15.0909 15.8726 15.4265 16 15.7617 16C16.0973 16 16.4325 15.8726 16.689 15.6169C17.2006 15.1047 17.2006 14.275 16.6886 13.763ZM7.4071 10.9838C4.96063 10.9838 2.97719 9.00046 2.97719 6.55386C2.97719 4.10726 4.96063 2.12381 7.4071 2.12381C9.8537 2.12381 11.837 4.10726 11.837 6.55386C11.837 9.00046 9.8537 10.9838 7.4071 10.9838Z" fill="#0D3B5B"/>
</svg>
