<svg width="170" height="66" viewBox="0 0 170 66" fill="none" xmlns="http://www.w3.org/2000/svg">
<g clip-path="url(#clip0_1502_8200)">
<path d="M44.6713 14.1892H61.8844V17.1892H55.1162V34.0537H51.3944V17.1892H44.6562V14.1892H44.6713ZM61.149 19.6705H64.3305V22.4462H64.3905C64.4956 22.0537 64.6907 21.6752 64.9758 21.3107C65.2609 20.9462 65.6061 20.5958 66.0113 20.3014C66.4165 19.9929 66.8667 19.7546 67.3619 19.5584C67.8572 19.3761 68.3674 19.278 68.8776 19.278C69.2678 19.278 69.553 19.292 69.703 19.306C69.8531 19.3201 70.0032 19.3481 70.1683 19.3621V22.4182C69.9281 22.3761 69.688 22.3481 69.4329 22.3201C69.1778 22.292 68.9377 22.278 68.6976 22.278C68.1273 22.278 67.587 22.3901 67.0768 22.6004C66.5666 22.8107 66.1314 23.1331 65.7562 23.5397C65.381 23.9602 65.0809 24.4649 64.8558 25.0817C64.6306 25.6986 64.5256 26.3995 64.5256 27.1986V34.0397H61.134V19.6705H61.149ZM85.7606 34.0537H82.429V32.049H82.369C81.9488 32.778 81.3335 33.3528 80.5081 33.7873C79.6827 34.2219 78.8423 34.4462 77.9869 34.4462C75.961 34.4462 74.4903 33.9836 73.5899 33.0443C72.6894 32.1051 72.2392 30.6892 72.2392 28.7967V19.6705H75.6308V28.4883C75.6308 29.75 75.8859 30.6472 76.4112 31.1658C76.9214 31.6845 77.6568 31.9509 78.5872 31.9509C79.3076 31.9509 79.8928 31.8528 80.373 31.6425C80.8533 31.4322 81.2435 31.1658 81.5286 30.8154C81.8287 30.4789 82.0388 30.0584 82.1739 29.5817C82.309 29.1051 82.369 28.5864 82.369 28.0257V19.6845H85.7606V34.0537ZM91.5383 29.4415C91.6434 30.3668 92.0185 31.0116 92.6638 31.3901C93.3241 31.7546 94.1045 31.9509 95.0199 31.9509C95.3351 31.9509 95.6953 31.9229 96.1005 31.8808C96.5056 31.8387 96.8958 31.7406 97.241 31.6144C97.6012 31.4883 97.8863 31.292 98.1264 31.0397C98.3515 30.7873 98.4566 30.4649 98.4416 30.0584C98.4265 29.6518 98.2615 29.3154 97.9613 29.063C97.6612 28.7967 97.286 28.6004 96.8208 28.4322C96.3556 28.278 95.8303 28.1378 95.23 28.0257C94.6298 27.9135 94.0295 27.7873 93.4142 27.6612C92.7839 27.535 92.1686 27.3668 91.5833 27.1845C90.998 27.0023 90.4728 26.75 90.0076 26.4275C89.5424 26.1191 89.1672 25.7126 88.8971 25.2219C88.6119 24.7313 88.4769 24.1285 88.4769 23.3995C88.4769 22.6144 88.687 21.9696 89.0922 21.4369C89.4973 20.9042 90.0226 20.4836 90.6379 20.1612C91.2682 19.8387 91.9585 19.6144 92.7239 19.4743C93.4892 19.3481 94.2246 19.278 94.9149 19.278C95.7103 19.278 96.4756 19.3621 97.196 19.5163C97.9163 19.6705 98.5766 19.9229 99.1619 20.2873C99.7472 20.6378 100.227 21.1004 100.618 21.6612C101.008 22.2219 101.248 22.9088 101.353 23.7079H97.8113C97.6462 22.9509 97.286 22.4322 96.7007 22.1799C96.1155 21.9135 95.4401 21.7873 94.6898 21.7873C94.4497 21.7873 94.1645 21.8014 93.8344 21.8434C93.5042 21.8855 93.2041 21.9556 92.9039 22.0537C92.6188 22.1518 92.3787 22.306 92.1686 22.5023C91.9735 22.6986 91.8685 22.9509 91.8685 23.2733C91.8685 23.6658 92.0185 23.9743 92.3037 24.2126C92.5888 24.4509 92.964 24.6472 93.4292 24.8154C93.8944 24.9696 94.4197 25.1098 95.0199 25.2219C95.6202 25.3341 96.2355 25.4602 96.8658 25.5864C97.4811 25.7126 98.0814 25.8808 98.6817 26.063C99.2819 26.2453 99.8072 26.4976 100.272 26.82C100.738 27.1425 101.113 27.535 101.398 28.0116C101.683 28.4883 101.833 29.0911 101.833 29.792C101.833 30.6472 101.623 31.3621 101.203 31.9649C100.783 32.5537 100.242 33.0443 99.5821 33.4088C98.9218 33.7733 98.1714 34.0537 97.361 34.2219C96.5507 34.3901 95.7403 34.4743 94.9449 34.4743C93.9694 34.4743 93.069 34.3761 92.2436 34.1658C91.4182 33.9556 90.6979 33.6472 90.0976 33.2406C89.4973 32.82 89.0171 32.3014 88.672 31.6845C88.3268 31.0677 88.1467 30.3247 88.1167 29.4696H91.5383V29.4415ZM102.734 19.6705H105.3V15.3528H108.691V19.6705H111.753V22.0397H108.691V29.7219C108.691 30.0584 108.706 30.3387 108.736 30.5911C108.766 30.8294 108.841 31.0397 108.946 31.2079C109.052 31.3761 109.217 31.5023 109.442 31.5864C109.667 31.6705 109.952 31.7126 110.342 31.7126C110.582 31.7126 110.822 31.7126 111.062 31.6986C111.303 31.6845 111.543 31.6565 111.783 31.6004V34.0537C111.408 34.0958 111.032 34.1238 110.687 34.1658C110.327 34.2079 109.967 34.2219 109.592 34.2219C108.691 34.2219 107.971 34.1378 107.431 33.9836C106.891 33.8294 106.455 33.5911 106.155 33.2827C105.84 32.9743 105.645 32.5957 105.525 32.1331C105.42 31.6705 105.345 31.1378 105.33 30.549V22.0677H102.764V19.6705H102.734ZM114.154 19.6705H117.365V21.6191H117.425C117.906 20.778 118.566 20.1892 119.421 19.8247C120.277 19.4602 121.192 19.278 122.198 19.278C123.413 19.278 124.464 19.4743 125.364 19.8808C126.265 20.2733 127.015 20.82 127.615 21.521C128.216 22.2219 128.651 23.035 128.951 23.9602C129.251 24.8855 129.401 25.8808 129.401 26.9322C129.401 27.8995 129.266 28.8387 128.996 29.7359C128.726 30.6472 128.321 31.4462 127.78 32.1472C127.24 32.8481 126.55 33.3948 125.709 33.8154C124.869 34.2359 123.894 34.4462 122.753 34.4462C122.258 34.4462 121.763 34.4042 121.267 34.32C120.772 34.2359 120.292 34.0958 119.842 33.9135C119.391 33.7313 118.956 33.4929 118.581 33.1986C118.191 32.9042 117.876 32.5677 117.606 32.1892H117.546V39.3668H114.154V19.6705ZM126.01 26.8761C126.01 26.2313 125.919 25.6004 125.739 24.9836C125.559 24.3668 125.289 23.8341 124.929 23.3574C124.569 22.8808 124.119 22.5023 123.593 22.2219C123.053 21.9415 122.438 21.7873 121.748 21.7873C120.322 21.7873 119.241 22.25 118.521 23.1752C117.801 24.1004 117.44 25.3341 117.44 26.8761C117.44 27.6051 117.531 28.278 117.726 28.8948C117.921 29.5116 118.191 30.0443 118.581 30.4929C118.956 30.9415 119.406 31.292 119.932 31.5443C120.457 31.8107 121.072 31.9369 121.763 31.9369C122.543 31.9369 123.188 31.7827 123.728 31.4883C124.269 31.1939 124.704 30.8014 125.049 30.3387C125.394 29.8621 125.649 29.3294 125.799 28.7266C125.934 28.1238 126.01 27.507 126.01 26.8761ZM131.997 14.1892H135.389V17.1892H131.997V14.1892ZM131.997 19.6705H135.389V34.0537H131.997V19.6705ZM138.42 14.1892H141.812V34.0537H138.42V14.1892ZM152.212 34.4462C150.981 34.4462 149.886 34.25 148.925 33.8715C147.965 33.4929 147.154 32.9602 146.479 32.3014C145.819 31.6285 145.309 30.8294 144.963 29.9042C144.618 28.9789 144.438 27.9556 144.438 26.8481C144.438 25.7546 144.618 24.7453 144.963 23.8201C145.309 22.8948 145.819 22.0958 146.479 21.4229C147.139 20.75 147.965 20.2313 148.925 19.8528C149.886 19.4743 150.981 19.278 152.212 19.278C153.442 19.278 154.538 19.4743 155.498 19.8528C156.459 20.2313 157.269 20.764 157.945 21.4229C158.605 22.0958 159.115 22.8948 159.46 23.8201C159.805 24.7453 159.986 25.7546 159.986 26.8481C159.986 27.9556 159.805 28.9789 159.46 29.9042C159.115 30.8294 158.605 31.6285 157.945 32.3014C157.284 32.9743 156.459 33.4929 155.498 33.8715C154.538 34.25 153.442 34.4462 152.212 34.4462ZM152.212 31.9369C152.962 31.9369 153.623 31.7827 154.178 31.4883C154.733 31.1939 155.183 30.8014 155.543 30.3247C155.904 29.8481 156.159 29.3014 156.339 28.6986C156.504 28.0958 156.594 27.4789 156.594 26.8481C156.594 26.2313 156.504 25.6285 156.339 25.0116C156.174 24.3948 155.904 23.8621 155.543 23.3855C155.183 22.9088 154.733 22.5303 154.178 22.2359C153.623 21.9415 152.962 21.7873 152.212 21.7873C151.461 21.7873 150.801 21.9415 150.246 22.2359C149.691 22.5303 149.24 22.9229 148.88 23.3855C148.52 23.8621 148.265 24.3948 148.085 25.0116C147.92 25.6285 147.83 26.2313 147.83 26.8481C147.83 27.4789 147.92 28.0958 148.085 28.6986C148.25 29.3014 148.52 29.8481 148.88 30.3247C149.24 30.8014 149.691 31.1939 150.246 31.4883C150.801 31.7967 151.461 31.9369 152.212 31.9369ZM160.976 19.6705H163.542V15.3528H166.934V19.6705H169.995V22.0397H166.934V29.7219C166.934 30.0584 166.949 30.3387 166.979 30.5911C167.009 30.8294 167.084 31.0397 167.189 31.2079C167.294 31.3761 167.459 31.5023 167.684 31.5864C167.909 31.6705 168.194 31.7126 168.585 31.7126C168.825 31.7126 169.065 31.7126 169.305 31.6986C169.545 31.6845 169.785 31.6565 170.025 31.6004V34.0537C169.65 34.0958 169.275 34.1238 168.93 34.1658C168.57 34.2079 168.209 34.2219 167.834 34.2219C166.934 34.2219 166.213 34.1378 165.673 33.9836C165.133 33.8294 164.698 33.5911 164.398 33.2827C164.082 32.9743 163.887 32.5957 163.767 32.1331C163.662 31.6705 163.587 31.1378 163.572 30.549V22.0677H161.006V19.6705H160.976Z" fill="#191919"/>
<path d="M40.7142 14.1894H25.1668L20.3646 0.366943L15.5473 14.1894L0 14.1754L12.5909 22.7268L7.77366 36.5352L20.3646 27.9978L32.9405 36.5352L28.1382 22.7268L40.7142 14.1894Z" fill="#00B67A"/>
<path d="M29.2174 25.8525L28.1369 22.7263L20.3633 27.9973L29.2174 25.8525Z" fill="#005128"/>
</g>
<rect x="41" y="49.3669" width="16" height="16" fill="#00B67A"/>
<path fill-rule="evenodd" clip-rule="evenodd" d="M50.4176 55.953H55L51.2934 58.7855L51.2934 58.7856L49.0023 60.5344L51.612 59.8228L51.3083 58.8339L52.7088 63.3669L49.0022 60.5344L45.2912 63.3669L46.711 58.7855L43 55.9483L47.5824 55.953L49.0022 51.3669L50.4176 55.953Z" fill="white"/>
<rect x="59" y="49.3669" width="16" height="16" fill="#00B67A"/>
<path fill-rule="evenodd" clip-rule="evenodd" d="M68.4176 55.953H73L69.2934 58.7855L69.2934 58.7856L67.0023 60.5344L69.612 59.8228L69.3083 58.8339L70.7088 63.3669L67.0022 60.5344L63.2912 63.3669L64.711 58.7855L61 55.9483L65.5824 55.953L67.0022 51.3669L68.4176 55.953Z" fill="white"/>
<rect x="77" y="49.3669" width="16" height="16" fill="#00B67A"/>
<path fill-rule="evenodd" clip-rule="evenodd" d="M86.4176 55.953H91L87.2934 58.7855L87.2934 58.7856L85.0023 60.5344L87.612 59.8228L87.3083 58.8339L88.7088 63.3669L85.0022 60.5344L81.2912 63.3669L82.711 58.7855L79 55.9483L83.5824 55.953L85.0022 51.3669L86.4176 55.953Z" fill="white"/>
<rect x="95" y="49.3669" width="16" height="16" fill="#00B67A"/>
<path fill-rule="evenodd" clip-rule="evenodd" d="M104.418 55.953H109L105.293 58.7855L105.293 58.7856L103.002 60.5344L105.612 59.8228L105.308 58.8339L106.709 63.3669L103.002 60.5344L99.2912 63.3669L100.711 58.7855L97 55.9483L101.582 55.953L103.002 51.3669L104.418 55.953Z" fill="white"/>
<rect x="113" y="49.3669" width="16" height="16" fill="#00B67A"/>
<path fill-rule="evenodd" clip-rule="evenodd" d="M122.418 55.953H127L123.293 58.7855L123.293 58.7856L121.002 60.5344L123.612 59.8228L123.308 58.8339L124.709 63.3669L121.002 60.5344L117.291 63.3669L118.711 58.7855L115 55.9483L119.582 55.953L121.002 51.3669L122.418 55.953Z" fill="white"/>
<defs>
<clipPath id="clip0_1502_8200">
<rect width="170" height="39" fill="white" transform="translate(0 0.366943)"/>
</clipPath>
</defs>
</svg>
