<svg width="287" height="28" viewBox="0 0 287 28" fill="none" xmlns="http://www.w3.org/2000/svg">
<g clip-path="url(#clip0_1263_664)">
<path d="M27.3295 8.50586H37.8599V10.352H33.7193V20.7302H31.4425V10.352H27.3203V8.50586H27.3295ZM37.41 11.879H39.3563V13.5871H39.3931C39.4573 13.3455 39.5767 13.1126 39.7511 12.8883C39.9255 12.664 40.1367 12.4483 40.3846 12.2672C40.6325 12.0774 40.9079 11.9307 41.2108 11.81C41.5138 11.6978 41.826 11.6374 42.1381 11.6374C42.3768 11.6374 42.5512 11.646 42.643 11.6547C42.7349 11.6633 42.8267 11.6806 42.9277 11.6892V13.5698C42.7808 13.544 42.6339 13.5267 42.4778 13.5095C42.3217 13.4922 42.1748 13.4836 42.0279 13.4836C41.6791 13.4836 41.3486 13.5526 41.0364 13.682C40.7243 13.8114 40.458 14.0098 40.2285 14.26C39.999 14.5188 39.8154 14.8294 39.6777 15.209C39.5399 15.5885 39.4757 16.0199 39.4757 16.5116V20.7215H37.4008V11.879H37.41ZM52.4665 20.7302H50.4284V19.4965H50.3916C50.1346 19.9451 49.7582 20.2988 49.2532 20.5662C48.7483 20.8337 48.2342 20.9717 47.7108 20.9717C46.4714 20.9717 45.5717 20.687 45.0209 20.109C44.47 19.531 44.1946 18.6597 44.1946 17.4951V11.879H46.2695V17.3053C46.2695 18.0817 46.4255 18.6338 46.7469 18.953C47.059 19.2722 47.5089 19.4361 48.0781 19.4361C48.5188 19.4361 48.8768 19.3757 49.1706 19.2463C49.4644 19.1169 49.7031 18.953 49.8775 18.7373C50.0611 18.5303 50.1897 18.2715 50.2723 17.9782C50.3549 17.6849 50.3916 17.3657 50.3916 17.0206V11.8876H52.4665V20.7302ZM56.0011 17.8919C56.0654 18.4613 56.2949 18.8581 56.6897 19.091C57.0936 19.3153 57.571 19.4361 58.131 19.4361C58.3238 19.4361 58.5442 19.4189 58.7921 19.393C59.0399 19.3671 59.2786 19.3067 59.4898 19.2291C59.7101 19.1514 59.8846 19.0307 60.0315 18.8754C60.1692 18.7201 60.2334 18.5217 60.2243 18.2715C60.2151 18.0213 60.1141 17.8143 59.9305 17.659C59.7469 17.4951 59.5173 17.3743 59.2327 17.2708C58.9481 17.1759 58.6268 17.0896 58.2596 17.0206C57.8923 16.9516 57.5251 16.8739 57.1487 16.7963C56.7631 16.7187 56.3867 16.6151 56.0286 16.503C55.6706 16.3908 55.3493 16.2355 55.0647 16.0371C54.7801 15.8473 54.5505 15.5972 54.3853 15.2952C54.2108 14.9933 54.1282 14.6223 54.1282 14.1737C54.1282 13.6906 54.2568 13.2938 54.5046 12.966C54.7525 12.6381 55.0738 12.3793 55.4503 12.1809C55.8358 11.9825 56.2582 11.8445 56.7264 11.7582C57.1946 11.6806 57.6445 11.6374 58.0668 11.6374C58.5534 11.6374 59.0216 11.6892 59.4623 11.7841C59.9029 11.879 60.3069 12.0343 60.6649 12.2586C61.023 12.4742 61.3168 12.7589 61.5555 13.104C61.7942 13.4491 61.9411 13.8718 62.0053 14.3635H59.8387C59.7377 13.8977 59.5173 13.5785 59.1593 13.4232C58.8012 13.2593 58.3881 13.1816 57.9291 13.1816C57.7822 13.1816 57.6077 13.1903 57.4058 13.2161C57.2038 13.242 57.0202 13.2852 56.8365 13.3455C56.6621 13.4059 56.5152 13.5008 56.3867 13.6216C56.2673 13.7424 56.2031 13.8977 56.2031 14.0961C56.2031 14.3376 56.2949 14.5274 56.4693 14.6741C56.6438 14.8207 56.8733 14.9415 57.1579 15.045C57.4425 15.1399 57.7638 15.2262 58.131 15.2952C58.4983 15.3642 58.8747 15.4419 59.2603 15.5195C59.6367 15.5972 60.0039 15.7007 60.3712 15.8128C60.7384 15.925 61.0597 16.0803 61.3443 16.2787C61.6289 16.4771 61.8584 16.7187 62.0329 17.012C62.2073 17.3053 62.2991 17.6762 62.2991 18.1076C62.2991 18.6338 62.1706 19.0738 61.9135 19.4448C61.6565 19.8071 61.326 20.109 60.922 20.3333C60.518 20.5576 60.059 20.7302 59.5632 20.8337C59.0675 20.9372 58.5717 20.989 58.0851 20.989C57.4884 20.989 56.9375 20.9286 56.4326 20.7992C55.9277 20.6698 55.487 20.48 55.1197 20.2298C54.7525 19.971 54.4587 19.6518 54.2476 19.2722C54.0364 18.8926 53.9262 18.4354 53.9079 17.9092H56.0011V17.8919ZM62.85 11.879H64.4199V9.22189H66.4947V11.879H68.3676V13.3369H66.4947V18.0644C66.4947 18.2715 66.5039 18.444 66.5223 18.5993C66.5406 18.746 66.5865 18.8754 66.6508 18.9789C66.7151 19.0824 66.8161 19.1601 66.9538 19.2118C67.0915 19.2636 67.2659 19.2895 67.5046 19.2895C67.6515 19.2895 67.7984 19.2895 67.9453 19.2808C68.0922 19.2722 68.2391 19.255 68.386 19.2205V20.7302C68.1565 20.756 67.9269 20.7733 67.7158 20.7992C67.4954 20.8251 67.2751 20.8337 67.0456 20.8337C66.4947 20.8337 66.0541 20.7819 65.7236 20.687C65.393 20.5921 65.1268 20.4455 64.9432 20.2557C64.7504 20.0659 64.631 19.833 64.5576 19.5483C64.4933 19.2636 64.4474 18.9358 64.4382 18.5734V13.3542H62.8683V11.879H62.85ZM69.8365 11.879H71.8012V13.0781H71.838C72.1317 12.5605 72.5357 12.1982 73.059 11.9739C73.5823 11.7496 74.1423 11.6374 74.7574 11.6374C75.5011 11.6374 76.1438 11.7582 76.6946 12.0084C77.2454 12.2499 77.7045 12.5864 78.0717 13.0177C78.439 13.4491 78.7052 13.9494 78.8888 14.5188C79.0724 15.0882 79.1642 15.7007 79.1642 16.3477C79.1642 16.943 79.0816 17.521 78.9163 18.0731C78.7511 18.6338 78.5032 19.1256 78.1727 19.5569C77.8422 19.9882 77.4199 20.3247 76.9058 20.5835C76.3916 20.8423 75.7949 20.9717 75.0971 20.9717C74.7942 20.9717 74.4912 20.9458 74.1882 20.8941C73.8853 20.8423 73.5915 20.756 73.3161 20.6439C73.0406 20.5317 72.7744 20.3851 72.5449 20.2039C72.3062 20.0228 72.1134 19.8157 71.9481 19.5828H71.9114V23.9997H69.8365V11.879ZM77.0894 16.3132C77.0894 15.9164 77.0343 15.5281 76.9241 15.1486C76.814 14.769 76.6487 14.4412 76.4284 14.1478C76.208 13.8545 75.9326 13.6216 75.6113 13.4491C75.2808 13.2765 74.9043 13.1816 74.482 13.1816C73.6098 13.1816 72.9488 13.4663 72.5082 14.0357C72.0675 14.6051 71.8471 15.3642 71.8471 16.3132C71.8471 16.7618 71.9022 17.1759 72.0216 17.5555C72.1409 17.935 72.3062 18.2629 72.5449 18.5389C72.7744 18.815 73.0498 19.0307 73.3712 19.1859C73.6925 19.3499 74.0689 19.4275 74.4912 19.4275C74.9686 19.4275 75.3634 19.3326 75.6939 19.1514C76.0244 18.9703 76.2906 18.7287 76.5018 18.444C76.713 18.1507 76.869 17.8229 76.9608 17.4519C77.0435 17.081 77.0894 16.7014 77.0894 16.3132ZM80.7525 8.50586H82.8274V10.352H80.7525V8.50586ZM80.7525 11.879H82.8274V20.7302H80.7525V11.879ZM84.6819 8.50586H86.7567V20.7302H84.6819V8.50586ZM93.119 20.9717C92.3662 20.9717 91.696 20.8509 91.1084 20.618C90.5209 20.3851 90.0251 20.0573 89.612 19.6518C89.208 19.2377 88.8959 18.746 88.6847 18.1766C88.4736 17.6072 88.3634 16.9775 88.3634 16.2959C88.3634 15.623 88.4736 15.0019 88.6847 14.4325C88.8959 13.8632 89.208 13.3714 89.612 12.9573C90.0159 12.5432 90.5209 12.224 91.1084 11.9911C91.696 11.7582 92.3662 11.6374 93.119 11.6374C93.8718 11.6374 94.5421 11.7582 95.1296 11.9911C95.7172 12.224 96.213 12.5519 96.6261 12.9573C97.0301 13.3714 97.3422 13.8632 97.5534 14.4325C97.7645 15.0019 97.8747 15.623 97.8747 16.2959C97.8747 16.9775 97.7645 17.6072 97.5534 18.1766C97.3422 18.746 97.0301 19.2377 96.6261 19.6518C96.2221 20.0659 95.7172 20.3851 95.1296 20.618C94.5421 20.8509 93.8718 20.9717 93.119 20.9717ZM93.119 19.4275C93.5781 19.4275 93.982 19.3326 94.3217 19.1514C94.6614 18.9703 94.9368 18.7287 95.1572 18.4354C95.3775 18.1421 95.5336 17.8056 95.6438 17.4347C95.7447 17.0637 95.7998 16.6841 95.7998 16.2959C95.7998 15.9164 95.7447 15.5454 95.6438 15.1658C95.5428 14.7862 95.3775 14.4584 95.1572 14.1651C94.9368 13.8718 94.6614 13.6389 94.3217 13.4577C93.982 13.2765 93.5781 13.1816 93.119 13.1816C92.66 13.1816 92.256 13.2765 91.9163 13.4577C91.5767 13.6389 91.3012 13.8804 91.0809 14.1651C90.8606 14.4584 90.7045 14.7862 90.5943 15.1658C90.4933 15.5454 90.4382 15.9164 90.4382 16.2959C90.4382 16.6841 90.4933 17.0637 90.5943 17.4347C90.6953 17.8056 90.8606 18.1421 91.0809 18.4354C91.3012 18.7287 91.5767 18.9703 91.9163 19.1514C92.256 19.3412 92.66 19.4275 93.119 19.4275ZM98.4806 11.879H100.051V9.22189H102.125V11.879H103.998V13.3369H102.125V18.0644C102.125 18.2715 102.135 18.444 102.153 18.5993C102.171 18.746 102.217 18.8754 102.281 18.9789C102.346 19.0824 102.447 19.1601 102.584 19.2118C102.722 19.2636 102.897 19.2895 103.135 19.2895C103.282 19.2895 103.429 19.2895 103.576 19.2808C103.723 19.2722 103.87 19.255 104.017 19.2205V20.7302C103.787 20.756 103.558 20.7733 103.346 20.7992C103.126 20.8251 102.906 20.8337 102.676 20.8337C102.125 20.8337 101.685 20.7819 101.354 20.687C101.024 20.5921 100.757 20.4455 100.574 20.2557C100.381 20.0659 100.262 19.833 100.188 19.5483C100.124 19.2636 100.078 18.9358 100.069 18.5734V13.3542H98.499V11.879H98.4806Z" fill="#191919"/>
<path d="M24.9075 8.50611H15.3962L12.4583 0L9.5113 8.50611L0 8.49748L7.70268 13.7599L4.75565 22.2574L12.4583 17.0036L20.1518 22.2574L17.214 13.7599L24.9075 8.50611Z" fill="#00B67A"/>
<path d="M17.8737 15.6836L17.2127 13.7598L12.457 17.0035L17.8737 15.6836Z" fill="#005128"/>
</g>
<rect x="112" y="5" width="1" height="20" fill="#B7C6D3"/>
<path d="M219.376 21V9.64H226.176V11.416H221.44V14.392H225.264V16.168H221.44V19.224H226.432V21H219.376ZM227.334 21L230.022 16.872L227.398 12.84H229.702L230.966 15.064L231.222 15.576H231.254C231.36 15.3733 231.451 15.2027 231.526 15.064L232.79 12.84H235.094L232.47 16.872L235.174 21H232.902L231.494 18.632L231.254 18.2H231.222C231.147 18.3707 231.072 18.5147 230.998 18.632L229.59 21H227.334ZM235.701 16.92C235.701 15.7253 236.107 14.7173 236.917 13.896C237.739 13.064 238.811 12.648 240.133 12.648C240.72 12.648 241.296 12.7493 241.861 12.952C242.427 13.1547 242.896 13.4587 243.269 13.864L242.357 15.256C241.771 14.6693 241.067 14.376 240.245 14.376C239.509 14.376 238.912 14.6213 238.453 15.112C237.995 15.592 237.765 16.1893 237.765 16.904C237.765 17.6187 238 18.2267 238.469 18.728C238.939 19.2187 239.552 19.464 240.309 19.464C241.195 19.464 241.995 19.1173 242.709 18.424L243.493 19.864C243.109 20.2693 242.613 20.5947 242.005 20.84C241.408 21.0747 240.784 21.192 240.133 21.192C238.811 21.192 237.739 20.7867 236.917 19.976C236.107 19.1547 235.701 18.136 235.701 16.92ZM244.311 16.92C244.311 15.6613 244.695 14.6373 245.463 13.848C246.241 13.048 247.244 12.648 248.471 12.648C249.601 12.648 250.487 13.016 251.127 13.752C251.767 14.4773 252.087 15.4 252.087 16.52C252.087 16.7013 252.065 16.9627 252.023 17.304H246.407C246.471 17.9867 246.732 18.52 247.191 18.904C247.649 19.2773 248.204 19.464 248.855 19.464C249.665 19.464 250.444 19.1653 251.191 18.568L251.991 20.024C251.585 20.3867 251.084 20.6747 250.487 20.888C249.9 21.0907 249.308 21.192 248.711 21.192C247.399 21.192 246.337 20.7813 245.527 19.96C244.716 19.128 244.311 18.1147 244.311 16.92ZM246.455 15.912H250.055C250.044 15.3787 249.884 14.9573 249.575 14.648C249.276 14.3387 248.892 14.184 248.423 14.184C247.911 14.184 247.479 14.344 247.127 14.664C246.775 14.9733 246.551 15.3893 246.455 15.912ZM253.776 18.456V9.64H255.792V18.152C255.792 18.5787 255.856 18.872 255.984 19.032C256.122 19.192 256.336 19.272 256.624 19.272C256.752 19.272 256.853 19.2667 256.928 19.256V21.032C256.64 21.064 256.426 21.08 256.288 21.08C255.957 21.08 255.664 21.0533 255.408 21C255.152 20.936 254.89 20.824 254.624 20.664C254.357 20.4933 254.149 20.2213 254 19.848C253.85 19.4747 253.776 19.0107 253.776 18.456ZM258.401 18.456V9.64H260.417V18.152C260.417 18.5787 260.481 18.872 260.609 19.032C260.747 19.192 260.961 19.272 261.249 19.272C261.377 19.272 261.478 19.2667 261.553 19.256V21.032C261.265 21.064 261.051 21.08 260.913 21.08C260.582 21.08 260.289 21.0533 260.033 21C259.777 20.936 259.515 20.824 259.249 20.664C258.982 20.4933 258.774 20.2213 258.625 19.848C258.475 19.4747 258.401 19.0107 258.401 18.456ZM262.53 16.92C262.53 15.6613 262.914 14.6373 263.682 13.848C264.46 13.048 265.463 12.648 266.69 12.648C267.82 12.648 268.706 13.016 269.346 13.752C269.986 14.4773 270.306 15.4 270.306 16.52C270.306 16.7013 270.284 16.9627 270.242 17.304H264.626C264.69 17.9867 264.951 18.52 265.41 18.904C265.868 19.2773 266.423 19.464 267.074 19.464C267.884 19.464 268.663 19.1653 269.41 18.568L270.21 20.024C269.804 20.3867 269.303 20.6747 268.706 20.888C268.119 21.0907 267.527 21.192 266.93 21.192C265.618 21.192 264.556 20.7813 263.746 19.96C262.935 19.128 262.53 18.1147 262.53 16.92ZM264.674 15.912H268.274C268.263 15.3787 268.103 14.9573 267.794 14.648C267.495 14.3387 267.111 14.184 266.641 14.184C266.13 14.184 265.698 14.344 265.346 14.664C264.994 14.9733 264.77 15.3893 264.674 15.912ZM271.994 21V12.84H273.946V13.8L273.914 14.376H273.946C274.16 13.9387 274.512 13.544 275.002 13.192C275.493 12.8293 276.106 12.648 276.842 12.648C278.741 12.648 279.69 13.6827 279.69 15.752V21H277.658V16.168C277.658 15.624 277.562 15.2133 277.37 14.936C277.189 14.648 276.858 14.504 276.378 14.504C275.674 14.504 275.104 14.76 274.666 15.272C274.24 15.784 274.026 16.4187 274.026 17.176V21H271.994ZM282.191 18.008V14.568H281.135V12.952H282.239V10.616H284.223V12.952H286.079V14.568H284.223V17.752C284.223 18.3387 284.388 18.744 284.719 18.968C285.06 19.1813 285.434 19.288 285.839 19.288C285.978 19.288 286.1 19.2773 286.207 19.256V21.032C285.887 21.064 285.679 21.08 285.583 21.08C285.306 21.08 285.039 21.0587 284.783 21.016C284.527 20.984 284.234 20.904 283.903 20.776C283.572 20.648 283.284 20.4827 283.039 20.28C282.804 20.0667 282.602 19.768 282.431 19.384C282.271 18.9893 282.191 18.5307 282.191 18.008Z" fill="#0D3B5B"/>
<rect x="122" y="7" width="16" height="16" fill="#00B67A"/>
<path fill-rule="evenodd" clip-rule="evenodd" d="M131.418 13.586H136L132.293 16.4186L132.293 16.4187L130.002 18.1674L132.612 17.4558L132.308 16.467L133.709 21L130.002 18.1674L126.291 21L127.711 16.4186L124 13.5814L128.582 13.586L130.002 9L131.418 13.586Z" fill="white"/>
<rect x="140" y="7" width="16" height="16" fill="#00B67A"/>
<path fill-rule="evenodd" clip-rule="evenodd" d="M149.418 13.586H154L150.293 16.4186L150.293 16.4187L148.002 18.1674L150.612 17.4558L150.308 16.467L151.709 21L148.002 18.1674L144.291 21L145.711 16.4186L142 13.5814L146.582 13.586L148.002 9L149.418 13.586Z" fill="white"/>
<rect x="158" y="7" width="16" height="16" fill="#00B67A"/>
<path fill-rule="evenodd" clip-rule="evenodd" d="M167.418 13.586H172L168.293 16.4186L168.293 16.4187L166.002 18.1674L168.612 17.4558L168.308 16.467L169.709 21L166.002 18.1674L162.291 21L163.711 16.4186L160 13.5814L164.582 13.586L166.002 9L167.418 13.586Z" fill="white"/>
<rect x="176" y="7" width="16" height="16" fill="#00B67A"/>
<path fill-rule="evenodd" clip-rule="evenodd" d="M185.418 13.586H190L186.293 16.4186L186.293 16.4187L184.002 18.1674L186.612 17.4558L186.308 16.467L187.709 21L184.002 18.1674L180.291 21L181.711 16.4186L178 13.5814L182.582 13.586L184.002 9L185.418 13.586Z" fill="white"/>
<rect x="194" y="7" width="16" height="16" fill="#00B67A"/>
<path fill-rule="evenodd" clip-rule="evenodd" d="M203.418 13.586H208L204.293 16.4186L204.293 16.4187L202.002 18.1674L204.612 17.4558L204.308 16.467L205.709 21L202.002 18.1674L198.291 21L199.711 16.4186L196 13.5814L200.582 13.586L202.002 9L203.418 13.586Z" fill="white"/>
<defs>
<clipPath id="clip0_1263_664">
<rect width="104" height="24" fill="white"/>
</clipPath>
</defs>
</svg>
