<svg width="28" height="22" viewBox="0 0 28 22" fill="none" xmlns="http://www.w3.org/2000/svg">
<path d="M18.5183 9.79839C18.8319 9.37982 19.2685 9.23862 20.2486 9.23862H24.6115C24.9107 9.32339 25.1734 9.49333 25.374 9.73272L26.619 11.2161C26.7956 11.4265 27.1026 11.4697 27.3307 11.3161C27.5585 11.1626 27.6336 10.8617 27.5048 10.619L26.4171 8.56912C26.3943 8.5259 26.3697 8.48373 26.3456 8.44135L26.3597 7.86228C26.3685 7.49679 26.3267 7.13277 26.2355 6.77966C25.9115 5.52647 24.9669 4.52086 23.7085 4.08949L19.1628 2.53124V1.84076C19.1628 1.40205 18.9182 1.00908 18.5246 0.815214L17.3091 0.216839C16.8553 -0.00660714 16.3176 0.0911639 15.9712 0.459798L15.1519 1.33176C14.9083 1.07852 14.5663 0.920538 14.1878 0.920538C13.4495 0.920538 12.8488 1.52122 12.8488 2.25975C12.8488 2.99807 13.4495 3.59875 14.1878 3.59875C14.5218 3.59875 14.8275 3.47559 15.0623 3.2725L15.9607 4.4554C15.9382 4.49778 15.9181 4.54121 15.9005 4.58611C15.7335 4.58044 15.5686 4.60268 15.4125 4.62996L12.0146 5.19183C11.8673 5.21596 11.7171 5.22833 11.5681 5.22833H9.00972C8.71305 5.22833 8.47261 5.46899 8.47261 5.76545C8.47261 6.06212 8.71305 6.30256 9.00972 6.30256H11.5681C11.7756 6.30256 11.9848 6.28556 12.1898 6.25157L15.5925 5.68907C15.8449 5.64502 15.9057 5.66285 15.9103 5.66432C15.9103 5.66432 15.9282 5.67481 15.967 5.72243L17.036 7.02933L14.1467 8.14447C13.91 8.23574 13.6643 8.29343 13.4136 8.31651C13.3299 8.32407 13.2458 8.32805 13.1612 8.32805H11.1989C10.808 7.96718 10.3563 7.66925 9.85798 7.44937C9.42997 7.25991 8.97364 7.12312 8.50912 7.06332C8.26364 7.03017 8.01334 7.01507 7.75884 7.01947C7.75381 7.01947 7.74898 7.01926 7.74395 7.01926H3.69694V6.3783C3.69694 6.33655 3.73093 6.30256 3.77268 6.30256H4.92768C5.22414 6.30256 5.46479 6.06212 5.46479 5.76545C5.46479 5.46878 5.22414 5.22833 4.92768 5.22833H3.77268C3.13864 5.22833 2.62272 5.74426 2.62272 6.3783V7.01926H1.67082C1.24847 7.01926 0.722689 7.01926 0.569739 7.467C0.4919 7.69464 0.570158 7.94872 0.764651 8.09915L2.35374 9.32905C2.62629 9.53991 2.96639 9.65614 3.3111 9.65614H7.39126C7.74793 9.65614 8.10272 9.70608 8.44576 9.8049C9.51096 10.1116 10.3873 10.8644 10.8514 11.8709L12.9646 17.0227C13.0456 17.2225 13.2466 17.3578 13.4623 17.3578H15.3888C15.6854 17.3578 15.9259 17.1174 15.9259 16.8207V16.8045C15.9315 13.7107 17.5517 11.0877 18.5183 9.79839ZM25.1954 7.04843C25.2028 7.07696 25.2097 7.1057 25.2162 7.13445C25.0303 6.98884 24.8323 6.85834 24.6243 6.74295C24.4095 6.62314 24.1839 6.52034 23.9523 6.43725C23.7488 6.36424 23.5222 6.2992 23.2788 6.2436C22.9899 6.17772 22.7016 6.35837 22.6358 6.64769C22.5697 6.93681 22.7505 7.22488 23.0396 7.29076C23.2413 7.33691 23.4261 7.38979 23.5893 7.44832C23.7704 7.52322 23.949 7.59519 24.1202 7.6917C24.3577 7.82577 24.578 7.98795 24.7771 8.17321C24.7454 8.16755 24.7131 8.1644 24.6808 8.1644L20.2486 8.16419C19.3546 8.16419 18.3433 8.24077 17.6587 9.15386C17.1539 9.82735 16.4844 10.8384 15.9259 12.087V11.8604C15.9259 10.8088 16.3018 9.7858 16.985 8.97951C16.9978 8.9644 17.0104 8.94993 17.023 8.93503C17.0471 8.9067 17.0712 8.87859 17.0951 8.85089C17.106 8.83831 17.1169 8.82572 17.1279 8.81334C17.5865 8.28798 18.0063 7.88577 18.3525 7.63862C18.4656 7.55805 18.5844 7.48252 18.7117 7.42629C18.7919 7.39104 18.9431 7.33712 19.2117 7.27922C19.5014 7.21669 19.6859 6.93093 19.6233 6.64098C19.5608 6.35102 19.275 6.1666 18.9851 6.22912C18.6968 6.29144 18.4583 6.36382 18.2755 6.44439C18.1991 6.47838 18.1213 6.5174 18.0422 6.56251L16.9353 5.20882C16.8824 5.14441 16.8811 5.07538 16.8851 5.03972C16.8891 5.00426 16.9055 4.93712 16.9709 4.88593L18.7266 3.51713L23.3602 5.1056C24.276 5.41968 24.9621 6.14583 25.1954 7.04843ZM14.1878 2.52453C14.0418 2.52453 13.923 2.40578 13.923 2.25975C13.923 2.11372 14.0418 1.99476 14.1878 1.99476C14.3338 1.99476 14.4526 2.11372 14.4526 2.25975C14.4526 2.40578 14.3338 2.52453 14.1878 2.52453ZM16.7542 1.19539C16.775 1.17315 16.8075 1.16727 16.8348 1.1807L18.05 1.77908C18.0735 1.79041 18.0886 1.81474 18.0886 1.84076V2.65272L16.8813 3.59392L16.7395 3.70449L15.6923 2.32584L16.7542 1.19539ZM14.5334 9.14652L15.9053 8.61717C15.3734 9.3515 15.0319 10.2111 14.9043 11.108C14.8688 11.3566 14.8512 11.6093 14.8512 11.8606V16.2836H13.8905L12.6231 10.7379C12.5954 10.6148 12.5568 10.4929 12.5169 10.3733C12.4032 10.0309 12.2536 9.70566 12.0717 9.40227H13.1612C13.6322 9.40227 14.094 9.31625 14.5334 9.14652ZM8.74306 8.77264C8.30351 8.64612 7.84864 8.58192 7.39126 8.58192H3.3111C3.20305 8.58192 3.09647 8.54541 3.01108 8.47932L2.51236 8.09348H3.16004C3.16046 8.09348 3.16109 8.09369 3.16151 8.09369H7.74395C7.74562 8.09369 7.74751 8.09348 7.74919 8.09348C7.97075 8.09369 8.16021 8.10293 8.33687 8.12391C8.74851 8.17615 9.16477 8.29784 9.53676 8.48373C9.92994 8.67361 10.291 8.93125 10.5971 9.24198C11.0123 9.66349 11.3233 10.1763 11.506 10.7371C11.5255 10.7977 11.5434 10.859 11.5602 10.9207C10.9267 9.88274 9.92575 9.11316 8.74306 8.77264Z" fill="#231F20"/>
<path d="M6.04114 12.4181C5.19519 12.4181 4.3998 12.7475 3.80164 13.3456C3.20347 13.9438 2.87407 14.7392 2.87407 15.5851C2.87407 17.3316 4.2949 18.7522 6.04114 18.7522C7.78759 18.7522 9.2082 17.3316 9.2082 15.5853C9.2082 13.8389 7.78738 12.4181 6.04114 12.4181ZM6.04114 17.6782C4.88719 17.678 3.94829 16.7391 3.94829 15.5851C3.94829 15.0262 4.16587 14.5006 4.56115 14.1051C4.95643 13.7101 5.48221 13.4923 6.04114 13.4923C7.19509 13.4923 8.13398 14.4312 8.13398 15.5853C8.13398 16.7393 7.19509 17.6782 6.04114 17.6782Z" fill="#231F20"/>
<path d="M22.3685 12.4181C22.3685 12.4181 22.3685 12.4181 22.3682 12.4181C21.5225 12.4181 20.7271 12.7475 20.129 13.3456C19.5308 13.9438 19.2014 14.7392 19.2014 15.5851C19.2014 17.3316 20.622 18.7522 22.3685 18.7522C24.1147 18.7522 25.5355 17.3316 25.5355 15.5853C25.5355 13.8389 24.1147 12.4181 22.3685 12.4181ZM22.3685 17.6782C21.2145 17.678 20.2756 16.7391 20.2756 15.5851C20.2756 15.0262 20.4932 14.5006 20.8885 14.1051C21.284 13.7101 21.8093 13.4923 22.3685 13.4923C23.5224 13.4923 24.4613 14.4312 24.4613 15.5853C24.4613 16.7393 23.5224 17.6782 22.3685 17.6782Z" fill="#231F20"/>
<path d="M11.3413 14.5931C11.2985 14.5762 11.2547 14.5655 11.211 14.5598C11.0459 13.7256 10.6834 12.9617 10.1742 12.3186L9.78665 11.3959C9.67167 11.1223 9.35696 10.9937 9.08337 11.1086C9.03302 11.1298 8.9877 11.1577 8.94783 11.1911C8.26973 10.7411 7.48232 10.4438 6.63427 10.3483L5.73251 9.95385C5.4606 9.8351 5.144 9.95889 5.02525 10.2308C4.99797 10.2931 4.98391 10.3577 4.98119 10.4219C4.16104 10.59 3.40972 10.9494 2.77609 11.4511L1.84475 11.7912C1.56613 11.8931 1.42283 12.2015 1.52458 12.48C1.55228 12.5559 1.59571 12.6216 1.64921 12.6751C1.20504 13.3433 0.909214 14.1179 0.808926 14.9521L0.385741 15.839C0.257968 16.1067 0.371474 16.4273 0.63919 16.5551C0.713882 16.5905 0.792561 16.6075 0.87019 16.6075C0.87019 16.6075 0.8704 16.6073 0.87061 16.6073C1.03216 17.4256 1.38338 18.1763 1.87685 18.8116L2.2159 19.7421C2.29542 19.9603 2.50124 20.0954 2.72049 20.0954C2.78155 20.0954 2.84365 20.0851 2.9045 20.0629C2.97541 20.0371 3.03731 19.9976 3.08913 19.9489C3.758 20.403 4.53618 20.7074 5.37542 20.8136L6.27948 21.2091C6.34956 21.2397 6.42257 21.2542 6.49454 21.2542C6.70141 21.2542 6.89863 21.1339 6.98696 20.9323C7.0113 20.8767 7.02493 20.8192 7.02955 20.7619C7.86522 20.6027 8.63165 20.2458 9.27786 19.7414L10.1889 19.3634C10.4629 19.2496 10.5927 18.9354 10.479 18.6613C10.4599 18.6154 10.4347 18.5739 10.4054 18.5363C10.8678 17.8548 11.1745 17.0599 11.275 16.2026L11.6399 15.2916C11.7505 15.0161 11.6166 14.7037 11.3413 14.5931ZM6.04114 19.7813C3.72737 19.7813 1.84496 17.8989 1.84496 15.5851C1.84496 13.2714 3.72737 11.3889 6.04114 11.3889C8.35491 11.3889 10.2373 13.2714 10.2373 15.5851C10.2373 17.8989 8.35491 19.7813 6.04114 19.7813Z" fill="#231F20"/>
<path d="M27.6317 16.1807C27.5958 16.1518 27.557 16.1291 27.5167 16.1109C27.6002 15.2645 27.4746 14.4284 27.1735 13.6655L27.0699 12.67C27.039 12.375 26.7749 12.1612 26.4799 12.1914C26.4255 12.1971 26.3741 12.2107 26.3263 12.2311C25.8076 11.604 25.1398 11.0914 24.3558 10.7544L23.607 10.1158C23.3814 9.92318 23.0424 9.95003 22.8498 10.1758C22.8057 10.2276 22.7736 10.2855 22.7524 10.3462C21.9186 10.2696 21.0958 10.3959 20.3438 10.6925L19.3537 10.7486C19.0577 10.7654 18.8311 11.019 18.8479 11.315C18.8525 11.3958 18.8751 11.4709 18.9108 11.5379C18.2921 12.0488 17.7846 12.7046 17.447 13.474L16.785 14.2003C16.5853 14.4196 16.601 14.7593 16.8203 14.959C16.8813 15.0146 16.9516 15.053 17.0255 15.0755C16.9428 15.8933 17.0534 16.7162 17.3519 17.4876L17.4065 18.4662C17.4224 18.7521 17.6593 18.9735 17.9423 18.9735C17.9524 18.9735 17.9625 18.9731 17.9725 18.9726C18.0472 18.9684 18.1171 18.9491 18.18 18.9183C18.6989 19.5597 19.3596 20.0666 20.1176 20.4042L20.8713 21.047C20.9724 21.1333 21.0962 21.1754 21.2195 21.1754C21.3712 21.1754 21.5221 21.1114 21.6285 20.987C21.6677 20.9409 21.6973 20.8899 21.7185 20.8366C21.9027 20.8559 22.0863 20.866 22.2688 20.866C22.9245 20.866 23.566 20.7415 24.1636 20.5108L25.1476 20.4126C25.4428 20.383 25.658 20.1199 25.6287 19.8247C25.6236 19.7747 25.6115 19.7275 25.5941 19.6828C26.2336 19.1648 26.7572 18.4937 27.1017 17.7029L27.7156 16.9356C27.9009 16.704 27.8633 16.366 27.6317 16.1807ZM21.0563 19.6113C19.9836 19.2867 19.1013 18.5639 18.5722 17.5757C18.0433 16.5878 17.9306 15.4527 18.2552 14.3799C18.8032 12.5689 20.4722 11.3986 22.2738 11.3986C22.675 11.3986 23.0831 11.4567 23.4867 11.5788C25.7013 12.2489 26.9578 14.5956 26.2879 16.8101C25.6178 19.0249 23.2708 20.2814 21.0563 19.6113Z" fill="#231F20"/>
<path d="M20.8503 7.00835C21.0385 7.13339 21.2898 7.12647 21.4707 6.99135C21.649 6.85812 21.7275 6.61915 21.6622 6.40598C21.598 6.1968 21.4098 6.04553 21.1919 6.02707C20.9655 6.00797 20.746 6.13994 20.6562 6.34829C20.5551 6.58243 20.6357 6.86756 20.8503 7.00835Z" fill="#231F20"/>
<path d="M6.47314 5.97069C6.55685 6.17484 6.7654 6.30954 6.9857 6.3024C7.20138 6.29548 7.39483 6.15575 7.47099 5.95454C7.55155 5.74221 7.48546 5.49422 7.30964 5.3505C7.13068 5.20426 6.8724 5.1902 6.67812 5.31441C6.46265 5.45246 6.37474 5.73466 6.47314 5.97069Z" fill="#231F20"/>
</svg>
