<svg width="29" height="23" viewBox="0 0 29 23" fill="none" xmlns="http://www.w3.org/2000/svg">
<path d="M13.3147 12.8754C14.0282 12.8754 14.6087 12.2949 14.6087 11.5813C14.6087 10.8678 14.0282 10.2872 13.3147 10.2872C12.6012 10.2872 12.0206 10.8677 12.0206 11.5813C12.0207 12.2949 12.6012 12.8754 13.3147 12.8754ZM13.3147 11.1076C13.5759 11.1076 13.7885 11.3201 13.7885 11.5814C13.7885 11.8426 13.5759 12.0551 13.3147 12.0551C13.0535 12.0551 12.8409 11.8426 12.8409 11.5814C12.8409 11.3201 13.0535 11.1076 13.3147 11.1076Z" fill="black"/>
<path d="M28.0091 17.7896L26.1753 15.0026C25.6892 14.2639 24.871 13.8228 23.9867 13.8228H16.3767V11.5813C16.3767 11.356 16.3515 11.1366 16.3051 10.9251L22.308 4.50816V7.3179H21.9041C21.6775 7.3179 21.4939 7.50154 21.4939 7.72805C21.4939 7.95457 21.6775 8.13821 21.9041 8.13821H22.2948C21.6649 8.32191 21.2032 8.90411 21.2032 9.59251C21.2032 10.4279 21.8829 11.1075 22.7182 11.1075C23.4397 11.1075 24.0646 10.5943 24.204 9.88728C24.2478 9.66503 24.1031 9.44934 23.8809 9.40554C23.6586 9.36152 23.4429 9.50644 23.3991 9.72863C23.3353 10.0523 23.049 10.2872 22.7182 10.2872C22.3351 10.2872 22.0235 9.97555 22.0235 9.59251C22.0235 9.20943 22.3351 8.89777 22.7182 8.89777C22.827 8.89777 22.9313 8.85451 23.0083 8.77762C23.0852 8.70073 23.1284 8.59638 23.1284 8.48755L23.1283 8.13816H23.5321C23.7587 8.13816 23.9423 7.95452 23.9423 7.728C23.9423 7.50148 23.7587 7.31784 23.5321 7.31784H23.1283V4.31659C24.1337 4.12415 24.896 3.23859 24.896 2.17793C24.896 0.977047 23.919 0 22.7181 0C21.5172 0 20.5402 0.977047 20.5402 2.17793C20.5402 2.26368 20.5457 2.34812 20.5554 2.4313L18.1422 4.68858C17.9768 4.84334 17.9681 5.10289 18.1229 5.26832C18.2037 5.35467 18.313 5.39826 18.4225 5.39826C18.5229 5.39826 18.6235 5.36162 18.7026 5.28762L20.8435 3.28497C21.0307 3.60073 21.2952 3.86526 21.611 4.05245L15.9782 10.0738C15.7044 9.59197 15.3039 9.19149 14.8219 8.91773L17.3053 6.59471C17.4707 6.43995 17.4794 6.1804 17.3247 6.01497C17.1698 5.84959 16.9102 5.84079 16.7449 5.99561L13.9705 8.59086C13.759 8.54454 13.5398 8.51944 13.3147 8.51944C12.4302 8.51944 11.6326 8.89684 11.0732 9.49851V3.79198C11.0732 3.26118 10.6414 2.82937 10.1106 2.82937H4.89135C4.23346 2.82937 3.65454 3.2497 3.45077 3.87527L1.18124 10.8445C1.09582 11.1068 1.05251 11.3798 1.05251 11.6558V17.7704C0.735047 17.8544 0.5 18.1432 0.5 18.4867V19.5916C0.5 20.0005 0.832664 20.3332 1.24162 20.3332H2.96263C3.47555 21.5952 4.71433 22.4877 6.1583 22.4877C7.60238 22.4877 8.84121 21.5951 9.35407 20.3329H16.6637C16.8902 20.3329 17.0738 20.1493 17.0738 19.9228C17.0738 19.6962 16.8902 19.5126 16.6637 19.5126H9.57348C9.59486 19.3577 9.60678 19.1999 9.60678 19.0391C9.60678 18.8783 9.59486 18.7204 9.57342 18.5654H19.4265C19.4051 18.7204 19.3932 18.8783 19.3932 19.0391C19.3932 19.1998 19.4051 19.3577 19.4265 19.5126H18.5777C18.3511 19.5126 18.1675 19.6962 18.1675 19.9228C18.1675 20.1493 18.3511 20.3329 18.5777 20.3329H19.6459C20.1588 21.5951 21.3976 22.4877 22.8416 22.4877C24.2856 22.4877 25.5244 21.5952 26.0373 20.3332H27.7583C28.1673 20.3332 28.5 20.0005 28.5 19.5916V18.4867C28.5 18.1658 28.2948 17.8928 28.0091 17.7896ZM22.7181 0.820367C23.4667 0.820367 24.0757 1.42942 24.0757 2.17798C24.0757 2.92655 23.4667 3.5356 22.7181 3.5356C21.9695 3.5356 21.3605 2.92655 21.3605 2.17798C21.3605 1.42942 21.9695 0.820367 22.7181 0.820367ZM26.9978 17.7451H26.0374C25.8392 17.2576 25.5332 16.8251 25.1483 16.4781L25.6168 15.6463L26.9978 17.7451ZM16.7739 17.7451L18.5214 14.6431H19.4813L17.7337 17.7451H16.7739ZM14.8956 17.7451L16.6431 14.6431H17.5799L15.8324 17.7451H14.8956ZM12.9941 17.7451L14.7417 14.6431H15.7016L13.954 17.7451H12.9941ZM11.1158 17.7451L12.8634 14.6431H13.8002L12.0526 17.7451H11.1158ZM11.0733 14.6431H11.922L11.0733 16.1495V14.6431ZM20.4228 14.6431H21.3596L19.612 17.7451H18.6752L20.4228 14.6431ZM22.3011 14.6431H23.3623L22.8282 15.5909C22.4133 15.5925 22.0154 15.6677 21.6469 15.8042L22.3011 14.6431ZM24.2891 14.6692C24.5645 14.7159 24.823 14.8253 25.046 14.988L24.4746 16.0025C24.2346 15.8729 23.9776 15.7709 23.7078 15.7008L24.2891 14.6692ZM13.3148 9.3398C14.5507 9.3398 15.5563 10.3453 15.5563 11.5813V13.8229H11.0733V11.5813C11.0733 10.3453 12.0788 9.3398 13.3148 9.3398ZM4.55623 13.4278C4.57378 13.4278 4.58805 13.4421 4.58805 13.4596V13.9016C4.58805 14.1627 4.37554 14.3753 4.1143 14.3753H3.64054V13.4279H4.55623V13.4278ZM2.82023 14.3753H1.87277V13.4278H2.82023V14.3753ZM1.32031 19.5129V18.5654H2.74306C2.72168 18.7204 2.7097 18.8784 2.7097 19.0392C2.7097 19.2 2.72162 19.358 2.74306 19.5129H1.32031V19.5129ZM6.1583 21.6674C4.70908 21.6674 3.53007 20.4883 3.53007 19.0391C3.53007 17.5899 4.70908 16.4109 6.1583 16.4109C7.60746 16.4109 8.78652 17.5899 8.78652 19.0391C8.78647 20.4883 7.60746 21.6674 6.1583 21.6674ZM6.1583 15.5906C4.71433 15.5906 3.47555 16.4831 2.96263 17.7451H1.87277V15.1955H4.1143C4.8278 15.1955 5.40837 14.615 5.40837 13.9015V13.4595C5.40837 12.9896 5.0261 12.6074 4.55623 12.6074H1.87277V11.6558C1.87277 11.4662 1.90252 11.2787 1.9612 11.0985L4.23073 4.12929C4.32413 3.8424 4.58959 3.64968 4.8913 3.64968H10.1106C10.1891 3.64968 10.2529 3.7135 10.2529 3.79198V17.7451H9.35391C8.84099 16.4831 7.60227 15.5906 6.1583 15.5906ZM22.8417 21.6674C21.3925 21.6674 20.2135 20.4883 20.2135 19.0391C20.2135 17.5899 21.3925 16.4109 22.8417 16.4109C24.2909 16.4109 25.4699 17.5899 25.4699 19.0391C25.4699 20.4883 24.2909 21.6674 22.8417 21.6674ZM27.6797 19.5129H26.2569C26.2783 19.3579 26.2902 19.1999 26.2902 19.0391C26.2902 18.8783 26.2783 18.7204 26.2569 18.5654H27.6797V19.5129Z" fill="black"/>
<path d="M6.15831 17.7451C5.44481 17.7451 4.86424 18.3256 4.86424 19.0392C4.86424 19.7527 5.44475 20.3333 6.15831 20.3333C6.87188 20.3333 7.45238 19.7527 7.45238 19.0392C7.45233 18.3256 6.87182 17.7451 6.15831 17.7451ZM6.15831 19.5129C5.89713 19.5129 5.68455 19.3004 5.68455 19.0391C5.68455 18.7779 5.89707 18.5654 6.15831 18.5654C6.41956 18.5654 6.63207 18.7779 6.63207 19.0391C6.63202 19.3004 6.4195 19.5129 6.15831 19.5129Z" fill="black"/>
<path d="M22.8417 17.7451C22.1281 17.7451 21.5476 18.3256 21.5476 19.0392C21.5476 19.7527 22.1281 20.3333 22.8417 20.3333C23.5552 20.3333 24.1357 19.7527 24.1357 19.0392C24.1357 18.3256 23.5552 17.7451 22.8417 17.7451ZM22.8417 19.5129C22.5805 19.5129 22.368 19.3004 22.368 19.0391C22.368 18.7779 22.5805 18.5654 22.8417 18.5654C23.1028 18.5654 23.3154 18.7779 23.3154 19.0391C23.3154 19.3004 23.1029 19.5129 22.8417 19.5129Z" fill="black"/>
<path d="M8.89534 11.8893H8.12195C7.89543 11.8893 7.71179 12.0729 7.71179 12.2994C7.71179 12.526 7.89543 12.7096 8.12195 12.7096H8.89534C9.12186 12.7096 9.3055 12.526 9.3055 12.2994C9.3055 12.0729 9.12191 11.8893 8.89534 11.8893Z" fill="black"/>
<path d="M9.30548 10.09V5.4492C9.30548 4.97938 8.92326 4.59717 8.45344 4.59717H5.47242C5.09393 4.59717 4.757 4.85157 4.65304 5.21601L4.00007 7.50961C3.93806 7.72748 4.06438 7.95438 4.28226 8.01639C4.50003 8.0783 4.72698 7.95208 4.78905 7.73421L5.44191 5.44083C5.44585 5.42705 5.45842 5.41743 5.47242 5.41743H8.45344C8.47094 5.41743 8.48516 5.43164 8.48516 5.44914V10.0899C8.48516 10.1074 8.47094 10.1216 8.45344 10.1216H4.15117C4.14652 10.1216 4.13564 10.1216 4.12607 10.109C4.11639 10.0962 4.11956 10.0851 4.12077 10.0807L4.26459 9.57482C4.32656 9.35695 4.20012 9.13005 3.98224 9.06814C3.76442 9.00618 3.53747 9.13262 3.47556 9.3505L3.33179 9.85614C3.25785 10.1155 3.30877 10.3878 3.47135 10.6032C3.63388 10.8185 3.88162 10.942 4.15117 10.942H8.45344C8.92326 10.942 9.30548 10.5598 9.30548 10.09Z" fill="black"/>
</svg>
