<svg width="29" height="28" viewBox="0 0 29 28" fill="none" xmlns="http://www.w3.org/2000/svg">
<path d="M14.5 18.794C17.1434 18.794 19.294 16.6434 19.294 14C19.294 11.3566 17.1434 9.20605 14.5 9.20605C11.8566 9.20605 9.70604 11.3566 9.70604 14C9.70604 16.6434 11.8566 18.794 14.5 18.794ZM10.5475 14.4102H12.3758C12.5425 15.2748 13.2252 15.9575 14.0898 16.1242V17.9525C12.2256 17.7605 10.7395 16.2744 10.5475 14.4102ZM14.5 12.6567C15.0977 12.6567 15.6053 13.0492 15.7791 13.5899H13.2209C13.3947 13.0492 13.9023 12.6567 14.5 12.6567ZM15.7791 14.4102C15.6053 14.9509 15.0977 15.3433 14.5 15.3433C13.9023 15.3433 13.3947 14.9509 13.2209 14.4102H15.7791ZM14.9102 17.9525V16.1242C15.7748 15.9575 16.4575 15.2748 16.6242 14.4102H18.4525C18.2605 16.2744 16.7744 17.7605 14.9102 17.9525ZM18.4525 13.5899H16.6242C16.4575 12.7252 15.7748 12.0425 14.9102 11.8758V10.0475C16.7744 10.2395 18.2605 11.7256 18.4525 13.5899ZM14.0898 10.0475V11.8758C13.2252 12.0425 12.5425 12.7252 12.3758 13.5899H10.5475C10.7395 11.7256 12.2256 10.2395 14.0898 10.0475Z" fill="black"/>
<path d="M28.0898 13.5898H26.739C26.637 10.4725 25.3756 7.5565 23.1595 5.34045C20.9435 3.12435 18.0275 1.86298 14.9102 1.76105V0.410156C14.9102 0.183641 14.7265 0 14.5 0C14.2735 0 14.0898 0.183641 14.0898 0.410156V1.76105C10.9725 1.86298 8.0565 3.12435 5.84045 5.34045C3.62435 7.5565 2.36298 10.4725 2.26105 13.5898H0.910156C0.683641 13.5898 0.5 13.7735 0.5 14C0.5 14.2265 0.683641 14.4102 0.910156 14.4102H2.26105C2.36298 17.5275 3.62435 20.4435 5.84045 22.6595C8.0565 24.8756 10.9725 26.137 14.0898 26.239V27.5898C14.0898 27.8164 14.2735 28 14.5 28C14.7265 28 14.9102 27.8164 14.9102 27.5898V26.239C18.0275 26.137 20.9435 24.8756 23.1595 22.6595C25.3756 20.4435 26.637 17.5275 26.739 14.4102H28.0898C28.3164 14.4102 28.5 14.2265 28.5 14C28.5 13.7735 28.3164 13.5898 28.0898 13.5898ZM14.0898 2.58202V3.51641C14.0839 3.51663 14.0779 3.51668 14.0719 3.5169C11.4325 3.62327 8.94949 4.71116 7.08038 6.58033C5.21122 8.44944 4.12332 10.9325 4.01695 13.5719C4.01673 13.5779 4.01668 13.5838 4.01641 13.5898H3.08202C3.29393 7.61496 8.11496 2.79393 14.0898 2.58202ZM3.08202 14.4102H4.01695C4.10719 16.7338 4.96075 18.957 6.46509 20.7452C6.5462 20.8416 6.6623 20.8913 6.77916 20.8913C6.87235 20.8913 6.96609 20.8597 7.04298 20.795C7.21634 20.6491 7.23865 20.3904 7.0928 20.2171C5.71341 18.5774 4.92766 16.5405 4.83792 14.4102H7.92432C8.15084 14.4102 8.33448 14.2265 8.33448 14C8.33448 13.7735 8.15084 13.5898 7.92432 13.5898H4.83737C4.93893 11.1626 5.94102 8.87977 7.6604 7.1604C9.37983 5.44102 11.6626 4.43893 14.0898 4.33737V7.42432C14.0898 7.65084 14.2735 7.83448 14.5 7.83448C14.7265 7.83448 14.9102 7.65084 14.9102 7.42432V4.33792C17.0407 4.42772 19.0774 5.21341 20.7171 6.59285C20.8905 6.7387 21.1492 6.71639 21.295 6.54303C21.4408 6.36973 21.4185 6.11095 21.2452 5.96515C19.457 4.4608 17.234 3.60741 14.9102 3.51706V2.58202C20.885 2.79398 25.7061 7.61496 25.918 13.5898H24.983C24.8928 11.2662 24.0392 9.04302 22.5349 7.25484C22.3891 7.08148 22.1304 7.05917 21.957 7.20502C21.7837 7.35087 21.7614 7.6096 21.9072 7.78291C23.2866 9.4226 24.0723 11.4595 24.1621 13.5898H21.0757C20.8492 13.5898 20.6656 13.7735 20.6656 14C20.6656 14.2265 20.8492 14.4102 21.0757 14.4102H24.1627C24.0611 16.8374 23.059 19.1202 21.3397 20.8396C19.6203 22.559 17.3375 23.5611 14.9102 23.6626V20.5757C14.9102 20.3492 14.7266 20.1655 14.5001 20.1655C14.2735 20.1655 14.0899 20.3492 14.0899 20.5757V23.6621C11.9595 23.5724 9.92271 22.7866 8.28296 21.4071C8.10966 21.2614 7.85093 21.2837 7.70508 21.457C7.55923 21.6303 7.58154 21.8891 7.7549 22.0349C9.54318 23.5393 11.7661 24.3931 14.0899 24.4833V25.418C8.11496 25.2061 3.29393 20.385 3.08202 14.4102ZM14.9102 25.418V24.4836C14.9161 24.4834 14.9221 24.4833 14.9281 24.483C17.5675 24.3767 20.0506 23.2888 21.9197 21.4196C23.7888 19.5505 24.8767 17.0675 24.9831 14.4281C24.9833 14.4221 24.9834 14.4161 24.9836 14.4102H25.918C25.7061 20.385 20.885 25.2061 14.9102 25.418Z" fill="black"/>
</svg>
