<svg width="31" height="14" viewBox="0 0 31 14" fill="none" xmlns="http://www.w3.org/2000/svg">
<path d="M30.4566 6.25434C30.3689 6.05161 30.1633 5.92553 29.9433 5.9379L16.4913 6.71193C16.4769 6.63441 16.4453 6.55894 16.3946 6.49169L14.7976 4.37308C14.7948 4.36946 14.7921 4.36584 14.7892 4.36222C14.4895 3.98544 13.4086 2.75594 12.0818 2.75594H9.70977L8.94581 1.88289C8.84586 1.76866 8.70149 1.70312 8.54962 1.70312H6.83879V0.699385C6.83879 0.408674 6.60309 0.172974 6.31237 0.172974C6.02166 0.172974 5.78596 0.408674 5.78596 0.699385V1.76971C4.87882 2.00403 4.20673 2.82938 4.20673 3.8087V7.41863L2.60828 7.51062C2.60413 7.51082 2.60005 7.51115 2.59597 7.51148C1.75345 7.57998 0.5 8.28425 0.5 9.94456V13.3004C0.5 13.5911 0.735701 13.8268 1.02641 13.8268H21.09C21.9783 13.8268 22.9399 13.7152 23.9522 12.9054C23.9639 12.8961 23.9751 12.8863 23.9859 12.8761L30.3362 6.84517C30.4963 6.69304 30.5444 6.45708 30.4566 6.25434ZM14.2813 5.43715L15.2941 6.78082L7.39185 7.23551V5.43715H14.2813ZM5.25962 3.80883C5.25962 3.22833 5.73194 2.75601 6.31244 2.75601H8.31083L9.07479 3.62906C9.17474 3.74329 9.31911 3.80883 9.47098 3.80883H12.082C12.4854 3.80883 12.9413 4.05282 13.343 4.38433H7.18135C6.71699 4.38433 6.33916 4.76216 6.33916 5.22653V7.29611L5.25968 7.35823V3.80883H5.25962ZM23.2775 12.0968C22.4874 12.7215 21.7637 12.774 21.0899 12.774H1.55282V10.6411L24.2454 9.34958C24.5357 9.33306 24.7576 9.08433 24.7411 8.79408C24.7245 8.50383 24.4762 8.28129 24.1856 8.29847L1.5879 9.58455C1.74615 8.81968 2.39804 8.58622 2.67592 8.56147L28.5688 7.0716L23.2775 12.0968Z" fill="black"/>
</svg>
