<svg width="22" height="22" viewBox="0 0 22 22" fill="none" xmlns="http://www.w3.org/2000/svg">
<path d="M1.83335 22L19.4333 22C20.8502 21.9984 21.9984 20.8502 22 19.4333L22 1.83335C21.9988 0.821304 21.1787 0.00120313 20.1667 0H17.9667C16.9546 0.00120313 16.1345 0.821304 16.1333 1.83335L16.1333 15.0333C16.1327 15.6406 15.6405 16.1327 15.0333 16.1333L1.8333 16.1333C0.821261 16.1346 0.00116116 16.9547 -4.19617e-05 17.9667V20.1667C0.00120413 21.1787 0.821304 21.9988 1.83335 22ZM0.733347 17.9667C0.733992 17.3594 1.22611 16.8673 1.83335 16.8667L15.0333 16.8667C16.0454 16.8654 16.8655 16.0453 16.8667 15.0333L16.8667 1.8333C16.8673 1.22607 17.3595 0.73395 17.9667 0.733305H20.1667C20.7739 0.73395 21.2661 1.22607 21.2667 1.8333L21.2667 19.4333C21.2655 20.4453 20.4454 21.2654 19.4333 21.2667L1.83335 21.2667C1.22611 21.266 0.733992 20.7739 0.733347 20.1667V17.9667V17.9667Z" fill="black"/>
<path d="M2.93334 20.5333C3.74335 20.5333 4.39999 19.8767 4.39999 19.0667C4.39999 18.2567 3.74335 17.6 2.93334 17.6C2.12334 17.6 1.46669 18.2567 1.46669 19.0667C1.46751 19.8763 2.12368 20.5325 2.93334 20.5333ZM2.93334 18.3333C3.33837 18.3333 3.66669 18.6616 3.66669 19.0667C3.66669 19.4717 3.33832 19.8 2.93334 19.8C2.52836 19.8 2.19999 19.4717 2.19999 19.0666C2.20047 18.6618 2.52849 18.3338 2.93334 18.3333Z" fill="black"/>
<path d="M19.0667 20.5333C19.8767 20.5333 20.5333 19.8767 20.5333 19.0667C20.5333 18.2567 19.8767 17.6 19.0667 17.6C18.2566 17.6 17.6 18.2566 17.6 19.0666C17.601 19.8763 18.257 20.5324 19.0667 20.5333ZM19.0667 18.3333C19.4717 18.3333 19.8 18.6616 19.8 19.0667C19.8 19.4717 19.4717 19.8 19.0667 19.8C18.6616 19.8 18.3333 19.4717 18.3333 19.0666C18.3337 18.6618 18.6618 18.3337 19.0667 18.3333Z" fill="black"/>
<path d="M19.0667 12.4667C19.8767 12.4667 20.5333 11.81 20.5333 11C20.5333 10.19 19.8767 9.53337 19.0667 9.53337C18.2567 9.53337 17.6 10.19 17.6 11C17.601 11.8096 18.257 12.4658 19.0667 12.4667ZM19.0667 10.2667C19.4717 10.2667 19.8 10.595 19.8 11C19.8 11.405 19.4717 11.7334 19.0667 11.7334C18.6616 11.7334 18.3334 11.405 18.3334 11C18.3337 10.5952 18.6618 10.2671 19.0667 10.2667Z" fill="black"/>
<path d="M19.0667 4.40002C19.8767 4.40002 20.5333 3.74338 20.5333 2.93337C20.5333 2.12337 19.8767 1.46672 19.0667 1.46672C18.2567 1.46672 17.6 2.12337 17.6 2.93337C17.601 3.74299 18.257 4.39908 19.0667 4.40002ZM19.0667 2.20003C19.4717 2.20003 19.8 2.52835 19.8 2.93337C19.8 3.3384 19.4717 3.66672 19.0667 3.66672C18.6616 3.66672 18.3333 3.3384 18.3333 2.93337C18.3337 2.52852 18.6618 2.20041 19.0667 2.20003Z" fill="black"/>
<path d="M11 20.5333C11.81 20.5333 12.4666 19.8767 12.4666 19.0667C12.4666 18.2567 11.81 17.6 11 17.6C10.19 17.6 9.53334 18.2566 9.53334 19.0666C9.53424 19.8763 10.1904 20.5324 11 20.5333ZM11 18.3333C11.405 18.3333 11.7333 18.6616 11.7333 19.0667C11.7333 19.4717 11.405 19.8 11 19.8C10.595 19.8 10.2666 19.4717 10.2666 19.0666C10.2671 18.6618 10.5951 18.3337 11 18.3333Z" fill="black"/>
</svg>
