<svg width="23" height="24" viewBox="0 0 23 24" fill="none" xmlns="http://www.w3.org/2000/svg">
<path d="M15.5001 17.8682L15.5 17.8682L2.40916 17.8682C1.83452 17.8688 1.36881 18.3345 1.3682 18.9091L1.3682 21.0908C1.36881 21.6655 1.83449 22.1312 2.40911 22.1318C2.40913 22.1318 2.40914 22.1318 2.40916 22.1318L19.8636 22.1318C20.8397 22.1306 21.6307 21.3397 21.6318 20.3635L21.6318 2.90911L21.6318 2.90906M15.5001 17.8682L20.5909 1.81815C21.1931 1.81879 21.6812 2.30684 21.6818 2.90906L21.6318 2.90906M15.5001 17.8682C16.5313 17.8669 17.367 17.0313 17.3682 16L17.3682 16L17.3682 2.90912C17.3688 2.33447 17.8345 1.86876 18.4092 1.86815L20.5909 1.86815M15.5001 17.8682L20.5909 1.86815M21.6318 2.90906C21.6312 2.33444 21.1655 1.86876 20.5909 1.86815M21.6318 2.90906L20.5909 1.86815M2.40905 22.9591L2.40911 22.9591L19.8636 22.9591L19.8637 22.9591C21.2964 22.9575 22.4575 21.7964 22.4591 20.3637L22.4591 20.3636L22.4591 2.9091L22.4591 2.90904C22.4579 1.8778 21.6222 1.04214 20.591 1.04091L20.5909 1.04091L18.4091 1.04091L18.409 1.04091C17.3778 1.04214 16.5421 1.8778 16.5409 2.90904L16.5409 2.9091L16.5409 16C16.5403 16.5746 16.0746 17.0403 15.4999 17.0409L2.40906 17.0409L2.40901 17.0409C1.37776 17.0421 0.542099 17.8778 0.540872 18.9091L0.540872 18.9091L0.540872 21.0909L0.540872 21.091C0.542141 22.1222 1.3778 22.9579 2.40905 22.9591Z" fill="black" stroke="black" stroke-width="0.1"/>
<path d="M3.49991 21.5046L3.49997 21.5046C4.33089 21.5046 5.0045 20.831 5.0045 20.0001C5.0045 19.1691 4.33089 18.4955 3.49997 18.4955C2.66904 18.4955 1.99544 19.1691 1.99544 20.0001L1.99544 20.0001C1.99627 20.8306 2.66937 21.5037 3.49991 21.5046ZM3.50002 19.3228C3.87406 19.3228 4.17725 19.626 4.17725 20.0001C4.17725 20.3741 3.87399 20.6773 3.49997 20.6773C3.12597 20.6773 2.82271 20.3741 2.82268 20.0001C2.82312 19.6262 3.12609 19.3232 3.50002 19.3228Z" fill="black" stroke="black" stroke-width="0.1"/>
<path d="M19.4999 21.5046L19.5 21.5046C20.3309 21.5046 21.0045 20.831 21.0045 20.0001C21.0045 19.1691 20.331 18.4955 19.5 18.4955C18.669 18.4955 17.9955 19.1691 17.9955 20L17.9955 20.0001C17.9964 20.8306 18.6694 21.5036 19.4999 21.5046ZM19.5 19.3228C19.8741 19.3228 20.1773 19.626 20.1773 20.0001C20.1773 20.3741 19.8741 20.6773 19.5 20.6773C19.126 20.6773 18.8227 20.3741 18.8227 20.0001C18.8231 19.6262 19.1262 19.3231 19.5 19.3228Z" fill="black" stroke="black" stroke-width="0.1"/>
<path d="M19.4999 13.5045L19.5 13.5045C20.3309 13.5045 21.0045 12.8309 21.0045 12C21.0045 11.1691 20.3309 10.4955 19.5 10.4955C18.6691 10.4955 17.9955 11.1691 17.9955 12L17.9955 12.0001C17.9964 12.8305 18.6694 13.5036 19.4999 13.5045ZM19.5001 11.3227C19.8741 11.3227 20.1773 11.626 20.1773 12C20.1773 12.3741 19.8741 12.6773 19.5 12.6773C19.126 12.6773 18.8228 12.3741 18.8228 12C18.8231 11.6261 19.1262 11.3231 19.5001 11.3227Z" fill="black" stroke="black" stroke-width="0.1"/>
<path d="M19.4999 5.50453L19.5 5.50453C20.3309 5.50453 21.0045 4.83092 21.0045 4C21.0045 3.16907 20.3309 2.49547 19.5 2.49547C18.6691 2.49547 17.9955 3.16907 17.9955 4L17.9955 4.00006C17.9964 4.83055 18.6694 5.50356 19.4999 5.50453ZM19.5 3.32271C19.8741 3.32274 20.1773 3.62595 20.1773 4C20.1773 4.37406 19.8741 4.67729 19.5 4.67729C19.126 4.67729 18.8227 4.37409 18.8227 4.00005C18.8231 3.62611 19.1262 3.32307 19.5 3.32271Z" fill="black" stroke="black" stroke-width="0.1"/>
<path d="M11.5 21.5046L11.5 21.5046C12.331 21.5046 13.0046 20.831 13.0046 20.0001C13.0046 19.1691 12.331 18.4955 11.5 18.4955C10.6691 18.4955 9.9955 19.1691 9.9955 20L9.9955 20.0001C9.99642 20.8306 10.6695 21.5036 11.5 21.5046ZM11.5001 19.3228C11.8741 19.3228 12.1773 19.626 12.1773 20.0001C12.1773 20.3741 11.8741 20.6773 11.5 20.6773C11.126 20.6773 10.8228 20.3741 10.8227 20.0001C10.8231 19.6262 11.1262 19.3231 11.5001 19.3228Z" fill="black" stroke="black" stroke-width="0.1"/>
</svg>
