<svg width="24" height="24" viewBox="0 0 24 24" fill="none" xmlns="http://www.w3.org/2000/svg">
<path fill-rule="evenodd" clip-rule="evenodd" d="M1 1H13.4L13.4434 1.01154C15.7505 1.6241 17.4312 2.51562 18.8694 4.0676C20.2955 5.60656 21.4628 7.77397 22.7891 10.8915L23 11.3871H18.5876L17.6763 13.3226H16.4384V14.6129H15.0714V20.6968C15.0805 20.8206 15.0936 20.9031 15.1077 20.9577C15.1119 20.974 15.1158 20.9863 15.1191 20.9953C15.1329 20.9971 15.1536 20.999 15.1833 21H17.1653L17.2701 21.1292C17.4498 21.3508 17.5948 21.5599 17.6873 21.8095C17.7806 22.0615 17.8107 22.3273 17.8054 22.651L17.7997 23H9.36358L9.36041 22.6484C9.35716 22.287 9.37783 21.986 9.46804 21.7271C9.56425 21.4511 9.72794 21.2537 9.9488 21.0764L10.044 21H11.6327C11.6342 20.9181 11.6362 20.8197 11.6388 20.7016C11.6468 20.3469 11.6468 20.0282 11.6448 19.7981C11.6438 19.6832 11.6423 19.5906 11.6411 19.5269C11.6404 19.495 11.6399 19.4705 11.6395 19.4539L11.639 19.4353L11.6389 19.4308L11.6389 19.4297L11.6389 19.4295L11.6387 19.4244V14.6129H10.2717V13.3226H8.97842L8.52275 11.3871H4.91268L1 1ZM9.24114 11.3871L9.52973 12.6129H17.1068V11.3871H9.24114ZM17.8055 11.3871V11.4034L17.8131 11.3871H17.8055ZM17.704 10.6774H20.145C19.4083 8.67186 18.7338 7.22271 17.7846 6.13395C16.8437 5.05463 15.6099 4.30494 13.7044 3.75371V6.85123C14.7876 7.0185 15.5868 7.35096 16.2189 7.97364C16.8547 8.60003 17.2866 9.48769 17.704 10.6774ZM13.0057 6.80645V3.64516H2.74448L3.9353 6.80645H13.0057ZM4.20262 7.51613L5.39344 10.6774H16.9604C16.5825 9.64703 16.214 8.95749 15.7324 8.48308C15.1969 7.95555 14.4828 7.65783 13.3341 7.51613H4.20262ZM2.47716 2.93548H13.0057V1.70968H2.01541L2.47716 2.93548ZM13.7044 1.82018C15.6894 2.4014 17.1235 3.21898 18.3606 4.55401C19.6264 5.91997 20.7043 7.84655 21.9347 10.6774H20.8901C20.1148 8.53513 19.3875 6.90211 18.3077 5.66348C17.2219 4.41788 15.8048 3.59785 13.7044 3.01705V1.82018ZM10.9704 13.3226V13.9032H11.1831V13.3226H10.9704ZM11.8818 13.3226V13.9032H12.3374V14.5484H14.3728V13.9032H14.8284V13.3226H11.8818ZM15.5271 13.3226V13.9032H15.7398V13.3226H15.5271ZM14.3728 15.2581H13.9421C14.0975 15.339 14.2418 15.4521 14.3728 15.5933V15.2581ZM14.3728 17.198C14.1522 16.1498 13.6644 15.8226 13.3551 15.8226C13.0458 15.8226 12.558 16.1498 12.3374 17.198V19.4145L12.3375 19.4166L12.338 19.4367C12.3384 19.4543 12.339 19.4799 12.3396 19.5129C12.3409 19.5789 12.3424 19.6741 12.3434 19.7919C12.3448 19.9457 12.3452 20.1383 12.3431 20.3548H14.3726L14.3728 17.198ZM11.8751 21.7097C11.9159 21.7231 11.9635 21.7299 12.0181 21.7243C12.0436 21.7216 12.067 21.7165 12.0885 21.7097H16.8316C16.9319 21.8445 16.9932 21.9511 17.0334 22.0595C17.0582 22.1266 17.0773 22.2007 17.0898 22.2903H10.0681C10.0788 22.1475 10.0985 22.0449 10.1267 21.9639C10.1587 21.872 10.2064 21.7947 10.2945 21.7097H11.8751ZM12.3374 15.5933C12.4684 15.4521 12.6127 15.339 12.768 15.2581H12.3374V15.5933Z" fill="black"/>
</svg>
