<svg width="24" height="24" viewBox="0 0 24 24" fill="none" xmlns="http://www.w3.org/2000/svg">
<path d="M6 11.1311L6.09016 7.209C6.45897 5.36263 6.89273 4.4447 7.98361 2.97129C10.2446 -0.0354585 13.9439 0.776511 15.4221 2.88113C16.9004 4.98575 16.9584 5.51813 17.2705 7.29916L17.3607 11.1311M6 11.1311L6.54098 13.3401H9.11066H9.75307H9.91368M6 11.1311H17.3607M17.3607 11.1311L16.8197 13.3401H13.6639M9.91368 13.3401H10.0743H10.3955H10.8689M9.91368 13.3401V14.3443M9.91368 13.3401H10.8689M9.91368 14.3443H10.8689M9.91368 14.3443C10.6222 14.4767 10.9026 14.638 11.0943 15.1557V15.832M13.6639 14.3443V13.3401M13.6639 14.3443H12.7172M13.6639 14.3443C12.8438 14.5013 12.6271 14.6967 12.4918 15.1557V15.832M13.6639 13.3401H12.7172M10.8689 13.3401H11.6803H12.7172M10.8689 13.3401V14.3443M10.8689 14.3443H12.7172M10.8689 14.3443L11.3197 14.8402H12.2213L12.7172 14.3443M12.7172 14.3443V13.3401M12.4918 17.6352H13.5287H13.7541M12.4918 17.6352V15.832M12.4918 17.6352H11.0943M12.4918 17.6352V19.4836M13.7541 17.6352L13.6639 17.0492C13.3033 16.2377 13.0684 16.0988 12.4918 15.832M13.7541 17.6352V18.1311L13.709 21.332M11.0943 17.6352V19.4836M11.0943 17.6352H9.91368M11.0943 17.6352V15.832M11.0943 19.4836V20.0246H12.4918V19.4836M11.0943 19.4836H12.4918M9.91368 17.6352C9.94676 16.6999 10.1412 16.2705 11.0943 15.832M9.91368 17.6352C9.88059 18.5706 9.83197 18.1311 9.83197 18.1311V21.332M9.83197 21.332H13.709M9.83197 21.332C9.81412 21.6294 9.73669 21.7586 9.47131 21.918M13.709 21.332C13.7594 21.6555 13.8703 21.7645 14.1148 21.918M14.1148 21.918H16.6393C17.0641 22.2022 17.1853 22.4373 17.1803 23H6.40574C6.41526 22.523 6.5166 22.2907 6.81148 21.918H9.47131M14.1148 21.918H9.47131" stroke="black" stroke-width="0.2"/>
<circle cx="11.6804" cy="5.59837" r="2.42459" stroke="black" stroke-width="0.2"/>
</svg>
