<svg width="24" height="24" viewBox="0 0 24 24" fill="none" xmlns="http://www.w3.org/2000/svg">
<path d="M18.6957 11H21.087M18.6957 11H17.7391M18.6957 11L17.7391 13M13.4348 1C18.1811 2.24074 20.2219 4.57126 23 11H21.087M13.4348 1V3M13.4348 1H1L1.76522 3M13.4348 3C18.0554 4.184 19.3933 6.3369 21.087 11M13.4348 3V7M13.4348 3H1.76522M17.7391 11C16.813 8.30612 15.9565 7.30093 13.4348 7M17.7391 11H8.65217M17.7391 11V13M13.4348 7H3.29565M3.29565 7L4.82609 11H8.65217M3.29565 7L1.76522 3M8.65217 11L9.13043 13H10.5652M17.7391 13H16.3043M10.5652 13V14.3333H11.5217M10.5652 13H11.5217M12 21.6667H10.087C9.70119 21.9716 9.60202 22.2695 9.6087 23H17.7391C17.7493 22.3833 17.6202 22.1029 17.2609 21.6667H15.3478M12 21.6667C11.9915 21.7051 11.9831 21.7426 12 21M12 21.6667H15.3478M15.3478 21.6667C15.0481 21.6578 14.911 21.5839 14.8696 21M14.8696 21C14.8696 21 13.1206 21 12 21M14.8696 21V19.6667V17.3333M12 21C12.0169 20.2574 12 19.6667 12 19.6667V17.3333M16.3043 13V14.3333H15.3478M16.3043 13H15.3478M15.3478 13V14.3333M15.3478 13H11.5217M15.3478 14.3333H14.8696V15M11.5217 13V14.3333M11.5217 14.3333H12V15M12 15H14.8696M12 15V17.3333M14.8696 15V17.3333M14.8696 17.3333C14.3913 15 12.4783 15 12 17.3333" stroke="black" stroke-width="0.2"/>
</svg>
