<svg width="31" height="16" viewBox="0 0 31 16" fill="none" xmlns="http://www.w3.org/2000/svg">
<path d="M28.1142 6.07968C28.1022 6.07459 28.09 6.0701 28.0777 6.06589C27.9271 6.01044 27.7686 5.95807 27.5997 5.90999C25.6308 5.3497 21.5435 5.34327 21.3705 5.34327H20.5079L18.8075 2.49327C18.0319 1.19952 17.3048 0.498474 15.6846 0.498474C15.6844 0.498474 15.6839 0.498474 15.6837 0.498474L9.11991 0.499479C7.8206 0.499679 6.53013 1.37403 5.75208 2.78129C5.75 2.78497 5.74799 2.78865 5.74612 2.7924L4.96946 4.27874L2.04339 4.63131C2.03281 4.63258 2.02223 4.63419 2.01172 4.63606C1.07924 4.80555 0.5 5.49823 0.5 6.44383V10.0079C0.5 11.4593 1.71667 12.155 2.64661 12.4035C2.70902 14.1222 4.12592 15.5015 5.85969 15.5015C7.45002 15.5015 8.77357 14.3404 9.02951 12.8214H21.9996C22.2556 14.3404 23.5794 15.5015 25.1702 15.5015C26.7605 15.5015 28.0841 14.3404 28.34 12.8214H29.9643C30.2601 12.8214 30.5 12.5815 30.5 12.2857V9.16626C30.5 8.14184 30.0693 6.81401 28.1142 6.07968ZM29.0915 8.027L27.8438 8.02727V7.50227C27.8438 7.44093 27.8849 7.30673 27.9908 7.18493C28.4871 7.40551 28.8531 7.68515 29.0915 8.027ZM19.2602 5.34327H8.53926C8.44324 5.34327 8.37467 5.30537 8.34935 5.2678C8.31306 5.21397 8.34199 5.11526 8.36141 5.06336L8.93904 3.86437C9.1779 3.37506 9.53208 3.16633 10.1234 3.16633H17.9615L19.2602 5.34327ZM1.57143 6.91633H2.10788C2.40326 6.91633 2.64359 7.15667 2.64359 7.45205V7.99894H1.57143V6.91633ZM5.85969 14.4301C4.67717 14.4301 3.71509 13.4681 3.71509 12.2855C3.71509 11.1032 4.67717 10.1413 5.85969 10.1413C7.04181 10.1413 8.00355 11.1032 8.00355 12.2855C8.00355 13.4681 7.04181 14.4301 5.85969 14.4301ZM25.1702 14.4301C23.9877 14.4301 23.0256 13.4681 23.0256 12.2855C23.0256 11.1032 23.9877 10.1413 25.1702 10.1413C26.3523 10.1413 27.314 11.1032 27.314 12.2855C27.314 13.4681 26.3523 14.4301 25.1702 14.4301ZM29.4286 11.7499H28.34C28.0842 10.2309 26.7606 9.06977 25.1701 9.06977C23.5793 9.06977 22.2554 10.2309 21.9995 11.7499H9.02951C8.77371 10.2309 7.45009 9.06977 5.85962 9.06977C4.42022 9.06977 3.19873 10.0203 2.78971 11.3265C2.28989 11.1696 1.57143 10.8053 1.57143 10.0079V9.07037H3.17931C3.47516 9.07037 3.71502 8.8305 3.71502 8.53466V7.45205C3.71502 6.56591 2.99408 5.8449 2.10788 5.8449H1.82308C1.91783 5.77251 2.03924 5.72182 2.18877 5.69296L5.34192 5.31307C5.52821 5.30303 5.69904 5.19595 5.78777 5.0262L6.69272 3.29423C7.28241 2.23118 8.21201 1.57097 9.12004 1.57084L15.6839 1.56984C15.6842 1.56984 15.6844 1.56984 15.6846 1.56984C16.3822 1.56984 16.8126 1.71963 17.1953 2.09484H10.1233C9.11951 2.09484 8.3971 2.53198 7.97496 3.39669L7.38728 4.61651C7.38219 4.62709 7.3775 4.63774 7.37308 4.64859C7.19589 5.08767 7.22723 5.52039 7.46114 5.86707C7.69257 6.20992 8.09556 6.41457 8.5392 6.41457H21.3705C21.4088 6.41457 24.983 6.41986 26.9359 6.84816C26.8251 7.07196 26.7723 7.30225 26.7723 7.5022V8.56332C26.7723 8.70548 26.8288 8.84175 26.9293 8.94227C27.0298 9.04265 27.166 9.09903 27.308 9.09903C27.3081 9.09903 27.3083 9.09903 27.3084 9.09903L29.4272 9.0983C29.4278 9.12086 29.4285 9.14336 29.4285 9.16626V11.7499H29.4286Z" fill="black"/>
<path d="M22.4978 8.02765H8.53927C8.24342 8.02765 8.00356 8.26751 8.00356 8.56336C8.00356 8.85921 8.24342 9.09907 8.53927 9.09907H22.4978C22.7936 9.09907 23.0335 8.85921 23.0335 8.56336C23.0335 8.26745 22.7936 8.02765 22.4978 8.02765Z" fill="black"/>
<path d="M6.90989 11.7499C6.61404 11.7499 6.37417 11.9897 6.37417 12.2856C6.37417 12.5696 6.14328 12.8006 5.85942 12.8006C5.57542 12.8006 5.34439 12.5696 5.34439 12.2856C5.34439 12.0017 5.57542 11.7708 5.85942 11.7708C6.15526 11.7708 6.39513 11.5309 6.39513 11.2351C6.39513 10.9392 6.15526 10.6993 5.85942 10.6993C4.98466 10.6993 4.27296 11.4109 4.27296 12.2856C4.27296 13.1603 4.98466 13.872 5.85942 13.872C6.73404 13.872 7.4456 13.1603 7.4456 12.2856C7.4456 11.9897 7.2058 11.7499 6.90989 11.7499Z" fill="black"/>
<path d="M26.2204 11.7499C25.9245 11.7499 25.6847 11.9897 25.6847 12.2856C25.6847 12.5696 25.4538 12.8006 25.1699 12.8006C24.8859 12.8006 24.6549 12.5696 24.6549 12.2856C24.6549 12.0017 24.8859 11.7708 25.1699 11.7708C25.4658 11.7708 25.7056 11.5309 25.7056 11.2351C25.7056 10.9392 25.4658 10.6993 25.1699 10.6993C24.2952 10.6993 23.5835 11.4109 23.5835 12.2856C23.5835 13.1603 24.2952 13.872 25.1699 13.872C26.0445 13.872 26.7561 13.1603 26.7561 12.2856C26.7561 11.9897 26.5163 11.7499 26.2204 11.7499Z" fill="black"/>
</svg>
