<svg width="30" height="31" viewBox="0 0 30 31" fill="none" xmlns="http://www.w3.org/2000/svg">
<g clip-path="url(#clip0_2_395)">
<mask id="mask0_2_395" style="mask-type:luminance" maskUnits="userSpaceOnUse" x="0" y="0" width="30" height="31">
<path d="M0 0.468021H30V30.468H0V0.468021Z" fill="white"/>
</mask>
<g mask="url(#mask0_2_395)">
<path fill-rule="evenodd" clip-rule="evenodd" d="M0 21.1165C0 21.6019 0.3935 21.9954 0.878906 21.9954H4.64455C5.12996 21.9954 5.52346 21.6019 5.52346 21.1165V11.7024C5.52346 11.217 5.12996 10.8235 4.64455 10.8235H0.878906C0.3935 10.8235 0 11.217 0 11.7024V21.1165ZM1.75781 20.2375V12.5813H3.76564V20.2375H1.75781Z" fill="#2B3E51"/>
<path fill-rule="evenodd" clip-rule="evenodd" d="M24.4766 21.1165C24.4766 21.6019 24.8701 21.9954 25.3555 21.9954H29.1211C29.6065 21.9954 30 21.6019 30 21.1165V11.7024C30 11.217 29.6065 10.8235 29.1211 10.8235H25.3555C24.8701 10.8235 24.4766 11.217 24.4766 11.7024V21.1165ZM26.2344 20.2375V12.5813H28.2422V20.2375H26.2344Z" fill="#2B3E51"/>
<path fill-rule="evenodd" clip-rule="evenodd" d="M4.64453 12.5803C5.12994 12.5803 5.52344 12.1868 5.52344 11.7014C5.52344 6.46778 9.76634 2.22487 15 2.22487C20.2337 2.22487 24.4766 6.46778 24.4766 11.7014C24.4766 12.1868 24.8701 12.5803 25.3555 12.5803C25.8409 12.5803 26.2344 12.1868 26.2344 11.7014C26.2344 5.49696 21.2045 0.467061 15 0.467061C8.79553 0.467061 3.76562 5.49697 3.76562 11.7014C3.76562 12.1868 4.15912 12.5803 4.64453 12.5803Z" fill="#2B3E51"/>
<path fill-rule="evenodd" clip-rule="evenodd" d="M12.2383 27.7063C12.2383 29.2307 13.4742 30.468 15 30.468C16.5259 30.468 17.7618 29.2307 17.7618 27.7063C17.7618 26.1818 16.5259 24.9446 15 24.9446C13.4742 24.9446 12.2383 26.1818 12.2383 27.7063ZM15 28.7102C14.4455 28.7102 13.9961 28.2605 13.9961 27.7063C13.9961 27.1521 14.4455 26.7024 15 26.7024C15.5546 26.7024 16.004 27.1521 16.004 27.7063C16.004 28.2605 15.5546 28.7102 15 28.7102Z" fill="#2B3E51"/>
<path fill-rule="evenodd" clip-rule="evenodd" d="M16.0039 27.7063C16.0039 28.1917 16.3974 28.5852 16.8828 28.5852H18.7656C22.8894 28.5852 26.2344 25.2414 26.2344 21.1164C26.2344 20.631 25.8409 20.2375 25.3555 20.2375C24.8701 20.2375 24.4766 20.631 24.4766 21.1164C24.4766 24.2704 21.9188 26.8274 18.7656 26.8274H16.8828C16.3974 26.8274 16.0039 27.2209 16.0039 27.7063Z" fill="#2B3E51"/>
<path fill-rule="evenodd" clip-rule="evenodd" d="M21.1192 21.053C21.6046 21.053 21.9981 20.6595 21.9981 20.1741V18.2288H22.0605C22.546 18.2288 22.9395 17.8353 22.9395 17.3499C22.9395 16.8644 22.546 16.4709 22.0605 16.4709H21.9981V11.7014C21.9981 11.346 21.784 11.0255 21.4556 10.8894C21.1272 10.7534 20.7492 10.8285 20.4978 11.0798L21.1192 11.7014C20.4978 11.0798 20.4978 11.0798 20.4978 11.0799L20.0487 11.5287C19.7712 11.8062 19.3876 12.1897 18.9633 12.6137C18.1149 13.4618 17.1041 14.4721 16.4546 15.1212L16.4527 15.1231C15.8661 15.7129 15.5332 16.5135 15.5332 17.3499C15.5332 17.8353 15.9267 18.2288 16.4121 18.2288H20.2403V20.1741C20.2403 20.6595 20.6338 21.053 21.1192 21.053ZM20.2403 16.4709H17.602C17.6321 16.4336 17.6642 16.3978 17.6982 16.3635C18.3479 15.7143 19.3581 14.7045 20.206 13.8569C20.2175 13.8455 20.2289 13.8341 20.2403 13.8227V16.4709Z" fill="#2B3E51"/>
<path fill-rule="evenodd" clip-rule="evenodd" d="M7.53125 20.1741C7.53125 20.6595 7.92475 21.053 8.41016 21.053H13.1172C13.6026 21.053 13.9961 20.6595 13.9961 20.1741C13.9961 19.6887 13.6026 19.2952 13.1172 19.2952H9.59998C9.63007 19.2579 9.66218 19.222 9.69622 19.1877C10.3459 18.5385 11.3561 17.5287 12.204 16.6811C12.6283 16.257 13.0119 15.8736 13.2895 15.5961L13.7384 15.1473L13.7385 15.1472C13.7385 15.1472 13.7385 15.1472 13.1172 14.5256L13.7385 15.1472C13.9034 14.9823 13.9961 14.7587 13.9961 14.5256V14.0549C13.9961 12.2692 12.548 10.8225 10.7637 10.8225C9.90468 10.8225 9.08368 11.1625 8.47658 11.7683L8.47356 11.7714C7.87409 12.3754 7.53125 13.1955 7.53125 14.054V14.0549C7.53125 14.5403 7.92475 14.9338 8.41016 14.9338C8.89556 14.9338 9.28906 14.5403 9.28906 14.0549V14.054C9.28906 13.6648 9.44464 13.2891 9.71975 13.0111C9.99738 12.7349 10.3713 12.5803 10.7637 12.5803C11.5776 12.5803 12.2383 13.2404 12.2383 14.0549V14.1614L12.0467 14.3529C11.7692 14.6304 11.3855 15.0139 10.9613 15.4379C10.1129 16.286 9.1021 17.2963 8.45259 17.9454L8.45061 17.9474C7.86411 18.5372 7.53125 19.3377 7.53125 20.1741Z" fill="#2B3E51"/>
</g>
</g>
<defs>
<clipPath id="clip0_2_395">
<rect width="30" height="30" fill="white" transform="translate(0 0.468018)"/>
</clipPath>
</defs>
</svg>
