<svg width="30" height="30" viewBox="0 0 30 30" fill="none" xmlns="http://www.w3.org/2000/svg">
<g clip-path="url(#clip0_2_982)">
<rect width="30" height="30" rx="15" fill="#EBBD45"/>
<path d="M21.675 17.8167C20.65 17.8167 19.6583 17.65 18.7333 17.35C18.4417 17.25 18.1167 17.325 17.8917 17.55L16.5833 19.1917C14.225 18.0667 12.0167 15.9417 10.8417 13.5L12.4667 12.1167C12.6917 11.8833 12.7583 11.5583 12.6667 11.2667C12.3583 10.3417 12.2 9.35 12.2 8.325C12.2 7.875 11.825 7.5 11.375 7.5H8.49167C8.04167 7.5 7.5 7.7 7.5 8.325C7.5 16.0667 13.9417 22.5 21.675 22.5C22.2667 22.5 22.5 21.975 22.5 21.5167V18.6417C22.5 18.1917 22.125 17.8167 21.675 17.8167Z" fill="#2B3E51"/>
</g>
<defs>
<clipPath id="clip0_2_982">
<rect width="30" height="30" rx="15" fill="white"/>
</clipPath>
</defs>
</svg>
