<svg width="30" height="31" viewBox="0 0 30 31" fill="none" xmlns="http://www.w3.org/2000/svg">
<path fill-rule="evenodd" clip-rule="evenodd" d="M9.62495 1.21802H20.3751C22.1879 1.21799 23.6491 1.21797 24.7983 1.37248C25.9915 1.53291 26.9961 1.8761 27.794 2.67402C28.5919 3.47195 28.9351 4.4766 29.0955 5.66982C29.25 6.81907 29.25 8.28034 29.25 10.0933V15.5413C29.25 17.3542 29.25 18.8155 29.0955 19.9648C28.9351 21.158 28.5919 22.1626 27.794 22.9606C27.134 23.6206 26.3295 23.9719 25.3874 24.1638C24.9072 24.2616 24.375 24.3209 23.7888 24.3573C23.7918 24.3641 23.7948 24.3709 23.7977 24.3777C24.1595 25.2266 23.8508 26.2139 23.029 26.6798C22.782 26.8198 22.5163 26.8702 22.3305 26.899C22.1364 26.9291 21.8939 26.9529 21.6244 26.9793L21.5982 26.9818C21.4248 26.9988 21.3264 27.0087 21.2534 27.019C21.2201 27.0238 21.2026 27.0273 21.1956 27.0288C21.1749 27.037 21.1609 27.047 21.1519 27.0557C21.1451 27.0621 21.1402 27.0687 21.1366 27.0753C21.1351 27.0828 21.1329 27.0949 21.1301 27.1128C21.1197 27.1795 21.1098 27.2707 21.092 27.4379L21.089 27.4653C21.0617 27.7216 21.0366 27.9573 21.0047 28.147C20.9738 28.3299 20.9184 28.5995 20.7644 28.8492C20.2683 29.6537 19.2781 29.9024 18.4632 29.5831C18.2089 29.4836 18.0048 29.3212 17.8576 29.1946C17.7066 29.0649 17.5289 28.8945 17.3299 28.7037L15 26.4698L12.6701 28.7037C12.471 28.8945 12.2933 29.0649 12.1424 29.1946C11.9951 29.3212 11.7911 29.4836 11.5367 29.5832C10.722 29.9024 9.73171 29.6537 9.23561 28.8492C9.08156 28.5995 9.02621 28.3299 8.99535 28.147C8.96334 27.9573 8.93827 27.7215 8.91098 27.4652L8.90805 27.4379C8.89023 27.2707 8.88025 27.1795 8.86994 27.1128C8.86714 27.0949 8.86491 27.0828 8.86338 27.0753C8.85976 27.0687 8.85479 27.0621 8.84805 27.0557C8.83908 27.047 8.82508 27.037 8.8044 27.0288C8.7974 27.0273 8.77984 27.0238 8.74663 27.019C8.67352 27.0087 8.57515 26.9988 8.40183 26.9818L8.37555 26.9793C8.10615 26.9529 7.86354 26.9291 7.66941 26.899C7.48361 26.8702 7.21797 26.8198 6.9709 26.6798C6.14921 26.2139 5.84049 25.2266 6.20228 24.3777C6.2052 24.3709 6.20819 24.3641 6.21118 24.3573C5.68276 24.3245 5.20016 24.2732 4.76168 24.1926C3.75689 24.008 2.90179 23.6564 2.20595 22.9606C1.40807 22.1626 1.06488 21.158 0.904464 19.9648C0.749956 18.8155 0.749975 17.3542 0.750001 15.5413V10.0933C0.749975 8.28034 0.749956 6.81907 0.904464 5.66982C1.06488 4.4766 1.40807 3.47195 2.20595 2.67403C3.00384 1.8761 4.00847 1.53291 5.20163 1.37248C6.35085 1.21797 7.81206 1.21799 9.62495 1.21802ZM8.01802 22.4231L9.09944 21.3863L10.0395 20.4462C10.2069 17.8521 12.3638 15.8 15 15.8C17.6362 15.8 19.7931 17.8521 19.9605 20.4462L20.9006 21.3863L22.0417 22.4803L22.0411 22.4225C23.349 22.4086 24.2814 22.3598 24.9906 22.2153C25.6727 22.0764 26.0806 21.862 26.388 21.5545C26.7549 21.1876 26.9941 20.6725 27.1249 19.6998C27.2595 18.6985 27.2616 17.3714 27.2616 15.4685V10.166C27.2616 8.26323 27.2595 6.93609 27.1249 5.9348C26.9941 4.96206 26.7549 4.44695 26.388 4.08007C26.0211 3.71318 25.5061 3.47398 24.5334 3.3432C23.5321 3.20857 22.2051 3.20647 20.3023 3.20647H9.69767C7.79488 3.20647 6.46786 3.20857 5.46655 3.3432C4.4939 3.47398 3.97881 3.71318 3.61194 4.08007C3.24507 4.44695 3.00587 4.96206 2.8751 5.9348C2.74048 6.93609 2.73837 8.26323 2.73837 10.166V15.4685C2.73837 17.3714 2.74048 18.6985 2.8751 19.6998C3.00587 20.6725 3.24507 21.1876 3.61194 21.5545C3.93466 21.8773 4.36955 22.0989 5.1209 22.2369C5.83457 22.368 6.75571 22.4106 8.01802 22.4231ZM19.5281 22.8251C18.9891 24.0114 17.9977 24.9486 16.7742 25.4163L18.6877 27.2507C18.8573 27.4134 18.9779 27.5287 19.072 27.6142C19.0841 27.5138 19.0975 27.3886 19.1147 27.2272C19.1171 27.2053 19.1194 27.1829 19.1218 27.1602C19.147 26.9167 19.1769 26.6284 19.2775 26.368C19.5002 25.7914 19.9642 25.3558 20.5362 25.1528C20.7939 25.0613 21.0789 25.034 21.3355 25.0095C21.3587 25.0072 21.3817 25.0051 21.4044 25.0028C21.5468 24.9889 21.6633 24.9774 21.7604 24.967C21.6849 24.8931 21.5921 24.8041 21.4764 24.6931L19.5281 22.8251ZM15.0399 23.7535L15 23.7152L14.96 23.7535C13.3313 23.7321 12.0174 22.4051 12.0174 20.7711C12.0174 19.1238 13.3528 17.7884 15 17.7884C16.6472 17.7884 17.9825 19.1238 17.9825 20.7711C17.9825 22.405 16.6687 23.7321 15.0399 23.7535ZM13.2258 25.4163L11.3124 27.2507C11.1427 27.4134 11.0221 27.5287 10.928 27.6142C10.9159 27.5138 10.9024 27.3886 10.8852 27.2272C10.8829 27.2053 10.8806 27.1829 10.8782 27.1602C10.853 26.9167 10.823 26.6284 10.7225 26.368C10.4998 25.7914 10.0358 25.3558 9.46371 25.1528C9.20608 25.0613 8.92103 25.034 8.66442 25.0095C8.64126 25.0072 8.61829 25.0051 8.59564 25.0028C8.45324 24.9889 8.33674 24.9774 8.23958 24.967C8.3151 24.8931 8.40781 24.8041 8.52355 24.6931L10.4719 22.8251C11.0108 24.0114 12.0023 24.9486 13.2258 25.4163ZM10.029 7.51474C10.029 6.96568 10.4742 6.52052 11.0232 6.52052H18.9767C19.5258 6.52052 19.9709 6.96568 19.9709 7.51474C19.9709 8.06387 19.5258 8.50897 18.9767 8.50897H11.0232C10.4742 8.50897 10.029 8.06387 10.029 7.51474ZM7.37793 12.1545C7.37793 11.6054 7.82301 11.1603 8.37211 11.1603H21.6279C22.1769 11.1603 22.6221 11.6054 22.6221 12.1545C22.6221 12.7036 22.1769 13.1487 21.6279 13.1487H8.37211C7.82301 13.1487 7.37793 12.7036 7.37793 12.1545Z" fill="#2B3E51"/>
</svg>
