<svg width="40" height="40" viewBox="0 0 40 40" fill="none" xmlns="http://www.w3.org/2000/svg">
<g clip-path="url(#clip0_3_1011)">
<mask id="mask0_3_1011" style="mask-type:luminance" maskUnits="userSpaceOnUse" x="0" y="0" width="40" height="40">
<path d="M0 3.8147e-06H40V40H0V3.8147e-06Z" fill="white"/>
</mask>
<g mask="url(#mask0_3_1011)">
<path fill-rule="evenodd" clip-rule="evenodd" d="M11.0977 38.9699C12.7492 40.6215 15.5224 40.2331 16.6568 38.1914L20.9904 30.3909L20.9904 30.3908C21.3436 29.7551 21.7465 29.1472 22.1929 28.5699C22.5888 28.0579 22.4947 27.3219 21.9827 26.926C21.4707 26.5301 20.7347 26.6242 20.3388 27.1362C19.8229 27.8034 19.3542 28.5098 18.9416 29.2526M18.9416 29.2527L14.608 37.0531C14.608 37.0531 14.608 37.0531 14.608 37.0531C14.2299 37.7337 13.3054 37.8631 12.7549 37.3126L11.1114 35.669C10.6537 35.2114 9.91172 35.2114 9.45407 35.669C8.99643 36.1267 8.99643 36.8687 9.45407 37.3263L11.0977 38.9699" fill="#2B3D50"/>
<path fill-rule="evenodd" clip-rule="evenodd" d="M26.926 21.9824C27.3219 22.4944 28.0579 22.5885 28.5699 22.1926C29.1473 21.7462 29.7551 21.3433 30.3908 20.9902L38.1913 16.6565C40.2331 15.5222 40.6215 12.749 38.9699 11.0974C38.9699 11.0974 38.9698 11.0974 38.9698 11.0974L37.3264 9.45382C36.8687 8.99617 36.1267 8.99615 35.6691 9.45378C35.2114 9.91142 35.2114 10.6534 35.669 11.1111L37.3126 12.7547C37.8631 13.3052 37.7337 14.2296 37.053 14.6077L29.2527 18.9413C29.2527 18.9413 29.2527 18.9413 29.2526 18.9413C28.5098 19.354 27.8034 19.8226 27.1362 20.3385C26.6242 20.7344 26.5301 21.4704 26.926 21.9824Z" fill="#2B3D50"/>
<path fill-rule="evenodd" clip-rule="evenodd" d="M33.9323 30.4524C34.2782 30.1933 34.4533 29.7648 34.388 29.3376L34.0805 27.3254L35.8196 26.2676C36.1889 26.043 36.4045 25.6334 36.3807 25.2019C36.3569 24.7703 36.0976 24.3869 35.7059 24.2043L28.4579 20.8245C27.8713 20.551 27.1741 20.8048 26.9006 21.3913C26.6271 21.9779 26.8808 22.6752 27.4674 22.9487L32.7309 25.403L32.195 25.729C31.7908 25.9748 31.5741 26.4396 31.6456 26.9073L31.7403 27.5272L26.9418 25.2896C26.3553 25.0161 25.658 25.2698 25.3845 25.8564C25.111 26.443 25.3647 27.1402 25.9513 27.4138L32.7344 30.5767C33.1261 30.7594 33.5865 30.7116 33.9323 30.4524Z" fill="#2B3D50"/>
<path fill-rule="evenodd" clip-rule="evenodd" d="M25.2023 36.3805C25.6338 36.4043 26.0434 36.1887 26.268 35.8194L27.3258 34.0803L29.3381 34.3878C29.7653 34.4531 30.1938 34.278 30.4529 33.9321C30.7121 33.5863 30.7599 33.1259 30.5772 32.7342L27.4142 25.9511C27.1406 25.3645 26.4434 25.1108 25.8568 25.3843C25.2702 25.6578 25.0165 26.3551 25.29 26.9416L27.5276 31.7401L26.9077 31.6454C26.44 31.5739 25.9752 31.7906 25.7294 32.1948L25.4035 32.7307L22.9491 27.4672C22.6756 26.8807 21.9783 26.6269 21.3917 26.9004C20.8052 27.1739 20.5514 27.8712 20.8249 28.4577L24.2047 35.7057C24.3873 36.0974 24.7707 36.3568 25.2023 36.3805Z" fill="#2B3D50"/>
<path fill-rule="evenodd" clip-rule="evenodd" d="M7.32964 36.3069C7.32963 36.3069 7.32965 36.3069 7.32964 36.3069L2.68725 31.6645C2.15198 31.1293 2.25704 30.2346 2.9017 29.8378M2.9017 29.8378L13.1753 23.5156C13.1752 23.5156 13.1753 23.5156 13.1753 23.5156C14.2912 22.8289 15.3229 22.014 16.2493 21.0876L17.0112 20.3257C17.4688 19.8681 17.4688 19.1261 17.0112 18.6684C16.5535 18.2108 15.8115 18.2108 15.3539 18.6684L14.592 19.4303C13.7948 20.2275 12.9071 20.9287 11.947 21.5195L1.67333 27.8418C-0.260591 29.0319 -0.575854 31.716 1.02997 33.3218L5.67239 37.9642C7.27817 39.5699 9.96225 39.2548 11.1524 37.3208C11.1524 37.3208 11.1524 37.3208 11.1524 37.3208L17.4747 27.0472C17.7853 26.5425 18.1278 26.0574 18.499 25.5935C18.9033 25.0881 18.8214 24.3506 18.316 23.9463C17.8106 23.542 17.0732 23.6239 16.6689 24.1293C16.2393 24.6663 15.841 25.2299 15.4786 25.8188C15.4786 25.8188 15.4786 25.8188 15.4786 25.8188L9.15635 36.0924C8.75965 36.7371 7.86496 36.8422 7.32964 36.3069" fill="#2B3D50"/>
<path fill-rule="evenodd" clip-rule="evenodd" d="M23.9463 18.316C24.3506 18.8214 25.0881 18.9033 25.5934 18.499C26.0575 18.1278 26.5426 17.7852 27.0472 17.4746L37.3208 11.1524C39.2548 9.96221 39.57 7.27814 37.9641 5.67233L33.3217 1.02998C31.7159 -0.575787 29.0319 -0.260714 27.8417 1.67336C27.8417 1.67336 27.8417 1.67336 27.8417 1.67336L21.5195 11.947C20.9287 12.9071 20.2275 13.7949 19.4303 14.592L18.6684 15.3539C18.2108 15.8115 18.2108 16.5535 18.6684 17.0112C19.1261 17.4688 19.8681 17.4688 20.3257 17.0112L21.0876 16.2493C22.014 15.3229 22.8289 14.2912 23.5156 13.1753C23.5156 13.1753 23.5156 13.1753 23.5156 13.1753L29.8378 2.90171C30.2345 2.25705 31.1291 2.15196 31.6644 2.68727L36.3069 7.32961C36.8421 7.8649 36.7371 8.75957 36.0924 9.15637M36.0924 9.15637L25.8188 15.4786C25.8188 15.4786 25.8188 15.4786 25.8188 15.4786C25.2299 15.841 24.6662 16.2393 24.1293 16.6689C23.6239 17.0732 23.542 17.8106 23.9463 18.316" fill="#2B3D50"/>
<path fill-rule="evenodd" clip-rule="evenodd" d="M18.2102 21.5249C18.6679 21.0673 18.6679 20.3253 18.2103 19.8677L15.6279 17.2852C15.1703 16.8276 15.1702 16.0857 15.6279 15.628C16.0855 15.1704 16.8275 15.1703 17.2851 15.628L19.8675 18.2103C20.3251 18.668 21.0671 18.668 21.5248 18.2103C21.9824 17.7527 21.9824 17.0107 21.5248 16.553L18.9424 13.9707C17.5695 12.5978 15.3435 12.5977 13.9706 13.9707M13.9706 13.9707C12.5977 15.3436 12.5976 17.5696 13.9706 18.9425C13.9706 18.9425 13.9706 18.9425 13.9707 18.9425L16.553 21.5249C17.0106 21.9826 17.7526 21.9826 18.2102 21.5249" fill="#2B3D50"/>
<path fill-rule="evenodd" clip-rule="evenodd" d="M17.8376 27.2288C20.4309 29.8222 24.6355 29.8222 27.2289 27.2288C29.8222 24.6355 29.8222 20.4309 27.2289 17.8376C24.6355 15.2442 20.4309 15.2442 17.8376 17.8376C15.2442 20.4309 15.2442 24.6355 17.8376 27.2288ZM25.5716 25.5715C23.8935 27.2496 21.1729 27.2496 19.4949 25.5715C17.8168 23.8935 17.8168 21.1729 19.4949 19.4948C21.1729 17.8168 23.8935 17.8168 25.5716 19.4948C27.2496 21.1729 27.2496 23.8935 25.5716 25.5715Z" fill="#2B3D50"/>
</g>
</g>
<defs>
<clipPath id="clip0_3_1011">
<rect width="40" height="40" fill="white"/>
</clipPath>
</defs>
</svg>
