<svg width="24" height="24" viewBox="0 0 24 24" fill="none" xmlns="http://www.w3.org/2000/svg">
<path d="M12 2C6.4775 2 2 6.4775 2 12C2 17.5225 6.4775 22 12 22C17.5225 22 22 17.5225 22 12C22 6.4775 17.5225 2 12 2ZM12.625 16.325V17C12.625 17.345 12.345 17.625 12 17.625C11.655 17.625 11.375 17.345 11.375 17V16.3225C10.735 16.2175 10.1488 15.9563 9.71 15.5675C9.45125 15.3375 9.42875 14.9437 9.6575 14.685C9.88625 14.4262 10.2812 14.405 10.54 14.6325C10.8925 14.945 11.425 15.125 12 15.125C13.0162 15.125 13.875 14.5525 13.875 13.875C13.875 13.1975 13.0162 12.625 12 12.625C10.2775 12.625 8.875 11.5037 8.875 10.125C8.875 8.9175 9.95 7.9075 11.375 7.675V7C11.375 6.655 11.655 6.375 12 6.375C12.345 6.375 12.625 6.655 12.625 7V7.6775C13.265 7.7825 13.8512 8.04375 14.29 8.4325C14.5475 8.6625 14.5725 9.0575 14.3425 9.315C14.1125 9.5725 13.7188 9.595 13.46 9.3675C13.1075 9.055 12.575 8.875 12 8.875C10.9838 8.875 10.125 9.4475 10.125 10.125C10.125 10.8025 10.9838 11.375 12 11.375C13.7238 11.375 15.125 12.4963 15.125 13.875C15.125 15.0825 14.05 16.0925 12.625 16.325Z" fill="#3E78BA"/>
</svg>
