<svg width="40" height="40" viewBox="0 0 40 40" fill="none" xmlns="http://www.w3.org/2000/svg">
<g clip-path="url(#clip0_3_981)">
<path d="M39.238 9.52728L20.4099 2.49603C20.1456 2.39716 19.8544 2.39716 19.5901 2.49603L0.762024 9.52728C0.304871 9.69757 0 10.141 0 10.625V36.4062C0 37.0535 0.524597 37.5781 1.17188 37.5781C1.76544 37.5781 2.25586 37.1368 2.33307 36.5646L2.40387 36.7767C2.60895 37.392 3.27332 37.7222 3.88611 37.518C4.50012 37.3132 4.83185 36.6495 4.62738 36.0358L2.34375 29.1849V12.3135L7.10938 14.0933V22.3438C7.10938 24.1074 8.58978 25.6711 11.2784 26.7465C13.627 27.6859 16.7242 28.2031 20 28.2031C23.2758 28.2031 26.373 27.6859 28.7216 26.7465C31.4102 25.6711 32.8906 24.1074 32.8906 22.3438V14.0933L39.238 11.7227C39.6964 11.5518 40 11.1142 40 10.625C40 10.1358 39.6964 9.69818 39.238 9.52728ZM30.5469 22.3438C30.5469 23.0414 29.4888 23.9151 27.8513 24.5703C25.773 25.4016 22.9846 25.8594 20 25.8594C17.0154 25.8594 14.227 25.4016 12.1487 24.5703C10.5112 23.9154 9.45312 23.0414 9.45312 22.3438V14.9686L19.5901 18.754C19.8544 18.8528 20.1456 18.8528 20.4099 18.754L30.5469 14.9686V22.3438ZM20 16.4053C19.5459 16.2347 7.66846 11.8002 7.65961 11.7969H20C20.6473 11.7969 21.1719 11.2723 21.1719 10.625C21.1719 9.97772 20.6473 9.45312 20 9.45312H7.65961L20 4.84467L35.4785 10.625C34.0274 11.167 21.5237 15.8362 20 16.4053Z" fill="#2B3D50"/>
</g>
<defs>
<clipPath id="clip0_3_981">
<rect width="40" height="40" fill="white"/>
</clipPath>
</defs>
</svg>
