<svg width="16" height="16" viewBox="0 0 16 16" fill="none" xmlns="http://www.w3.org/2000/svg">
<path d="M8.00002 0C7.91412 0 7.83076 0.0101053 7.74569 0.0126316C7.68676 0.00169736 7.62865 0.00757897 7.56968 0.0219079C3.35917 0.247579 0 3.7339 0 7.99998C0 12.4109 3.58907 16 8.00002 16C8.33937 16 8.67119 15.9722 8.99961 15.931C9.00297 15.931 9.00636 15.9335 9.01055 15.9335C9.02065 15.9335 9.03076 15.9259 9.04086 15.9251C11.3196 15.627 13.2977 14.3714 14.5566 12.5718C14.5844 12.5432 14.608 12.5129 14.6274 12.4775C15.4939 11.1992 16.0009 9.65815 16.0009 8.00089C16 3.58903 12.411 0 8.00002 0ZM9.90399 13.4813C9.81052 13.7903 9.23282 14.576 8.79411 15.1124C8.53307 15.1411 8.26864 15.1587 8.00002 15.1587C4.05308 15.1579 0.842132 11.947 0.842132 7.99998C0.842132 5.8324 1.81394 3.89049 3.34149 2.5768C3.50823 2.64079 3.69517 2.66187 3.83159 2.67616C3.89475 2.68204 3.98653 2.69215 4.05221 2.70312C4.08423 2.87491 4.02948 3.26227 3.99916 3.48375C3.94781 3.84924 3.89981 4.19365 3.96549 4.47237C4.06907 4.91195 4.46148 5.61932 4.69224 5.94016C5.04423 6.42857 5.72128 6.9229 6.43793 7.44502C7.33477 8.09934 8.43877 8.90523 8.55751 9.53934C8.51791 9.56713 8.46908 9.59914 8.43119 9.62354C8.21057 9.76584 7.90907 9.96123 7.90907 10.3073C7.90907 10.9128 8.52632 11.3448 9.12253 11.7633C9.42739 11.9772 9.84506 12.2703 9.91832 12.4454C9.99242 12.6248 9.98401 13.2152 9.90399 13.4813ZM14.827 10.1507C14.7949 9.84759 14.7293 9.5781 14.6029 9.40213C14.3276 9.01982 13.7592 8.91455 13.2092 8.81266C12.949 8.76466 12.6248 8.70486 12.5086 8.63247C12.4699 8.60468 12.379 8.49269 12.3183 8.41943C12.1625 8.22826 12.0025 8.0312 11.7861 7.94113C11.5074 7.82574 11.0636 7.85353 10.5853 7.91251C10.2299 7.95628 9.83918 7.95376 9.80969 7.94113C9.20085 7.68849 8.39495 7.07037 8.14062 6.70658C8.17935 6.71499 8.21811 6.72344 8.25601 6.73102C8.60633 6.80681 8.97518 6.85651 9.21095 6.71164C9.71286 6.40173 9.97813 5.65564 10.2349 4.93394C10.3714 4.55077 10.512 4.15413 10.6425 3.97224C10.6686 3.94362 10.7655 3.87541 10.8295 3.82994C11.0905 3.64635 11.4476 3.39458 11.3827 2.99037C11.3036 2.50362 10.773 2.34446 10.3057 2.20386C10.165 2.16174 9.95199 2.09775 9.90064 2.06155C9.87115 2.03546 9.80042 1.93946 9.75411 1.87544C9.57305 1.62786 9.3482 1.31882 8.99034 1.31882C8.64506 1.31882 8.4497 1.62028 8.3074 1.84007C8.29812 1.8544 8.28802 1.87038 8.27709 1.88637C8.19119 1.79459 8.09689 1.66405 8.06152 1.57816C8.01352 1.46278 8.04889 1.05269 8.06657 0.845527C11.9815 0.880817 15.1579 4.07495 15.1579 7.99998C15.1579 8.74947 15.0409 9.47117 14.827 10.1507Z" fill="#2B4F6A"/>
</svg>
