<svg width="40" height="40" viewBox="0 0 40 40" fill="none" xmlns="http://www.w3.org/2000/svg">
<g clip-path="url(#clip0_3_997)">
<path d="M6.73461 13.4692C10.4481 13.4692 13.4693 10.448 13.4693 6.73461C13.4693 3.02117 10.4481 0 6.73461 0C3.02109 0 0 3.02117 0 6.73461C0 10.448 3.02109 13.4692 6.73461 13.4692ZM4.04242 3.61L5.69969 1.95273L10.4816 6.73461L5.69969 11.5165L4.04242 9.85922L7.16703 6.73461L4.04242 3.61Z" fill="#2B3D50"/>
<path d="M33.2654 31.8018C32.4583 31.8018 31.8018 32.4583 31.8018 33.2653C31.8018 34.0724 32.4583 34.7289 33.2654 34.7289C34.0725 34.7289 34.729 34.0724 34.729 33.2653C34.729 32.4583 34.0725 31.8018 33.2654 31.8018Z" fill="#2B3D50"/>
<path d="M33.2655 26.5308C29.5519 26.5308 26.5308 29.5519 26.5308 33.2654C26.5308 36.9788 29.5519 40 33.2655 40C36.979 40 40.0001 36.9788 40.0001 33.2654C40.0001 29.5519 36.979 26.5308 33.2655 26.5308ZM33.2655 37.0727C31.166 37.0727 29.458 35.3647 29.458 33.2654C29.458 31.166 31.166 29.458 33.2655 29.458C35.3648 29.458 37.0728 31.166 37.0728 33.2654C37.0728 35.3647 35.3648 37.0727 33.2655 37.0727Z" fill="#2B3D50"/>
<path d="M20.0002 22.7816C21.5363 22.7816 22.7816 21.5363 22.7816 20.0002C22.7816 18.464 21.5363 17.2188 20.0002 17.2188C18.464 17.2188 17.2188 18.464 17.2188 20.0002C17.2188 21.5363 18.464 22.7816 20.0002 22.7816Z" fill="#2B3D50"/>
<path d="M14.3794 34.5156C14.9677 33.0962 14.294 31.4687 12.8746 30.8803C11.4553 30.292 9.82769 30.9657 9.23935 32.3851C8.65101 33.8044 9.32471 35.432 10.7441 36.0204C12.1635 36.6087 13.7911 35.935 14.3794 34.5156Z" fill="#2B3D50"/>
<path d="M30.7781 7.62304C31.3664 6.20366 30.6927 4.57608 29.2733 3.98774C27.8539 3.3994 26.2264 4.0731 25.638 5.49248C25.0497 6.91186 25.7234 8.53944 27.1428 9.12778C28.5622 9.71612 30.1897 9.04242 30.7781 7.62304Z" fill="#2B3D50"/>
<path d="M24.2418 32.269H16.79C16.8786 32.6457 16.9268 33.0376 16.9268 33.4409C16.9268 33.8442 16.8786 34.2362 16.79 34.6128H24.2871C24.2214 34.1729 24.1869 33.723 24.1869 33.2652C24.1869 32.9286 24.206 32.5963 24.2418 32.269Z" fill="#2B3D50"/>
<path d="M14.9913 18.916H7.84844C3.52078 18.916 0 22.4368 0 26.7645C0 30.7357 2.96477 34.027 6.79703 34.5424C6.71898 34.1875 6.67664 33.8193 6.67664 33.4412C6.67664 33.0041 6.73195 32.5796 6.83539 32.1742C4.2825 31.6971 2.34375 29.4537 2.34375 26.7645C2.34375 23.7291 4.81312 21.2598 7.84844 21.2598H15.032C14.9297 20.8566 14.8748 20.4346 14.8748 20.0001C14.8748 19.6281 14.9157 19.2657 14.9913 18.916Z" fill="#2B3D50"/>
<path d="M32.1518 21.2599C36.4794 21.2599 40.0002 17.7391 40.0002 13.4115C40.0002 9.45273 37.054 6.16984 33.2392 5.63867C33.2937 5.9375 33.3236 6.24484 33.3236 6.55914C33.3236 7.05695 33.2508 7.53789 33.1179 7.99336C35.6938 8.45156 37.6565 10.7059 37.6565 13.4115C37.6565 16.4468 35.1871 18.9162 32.1518 18.9162H25.0089C25.0845 19.2659 25.1254 19.6283 25.1254 20.0002C25.1254 20.4348 25.0706 20.8567 24.9683 21.2599H32.1518Z" fill="#2B3D50"/>
<path d="M23.254 7.90625C23.1368 7.47656 23.0729 7.025 23.0729 6.55867C23.0729 6.21781 23.1071 5.88492 23.1709 5.5625H15.7373C15.787 5.94625 15.8128 6.33734 15.8128 6.73438C15.8128 7.13141 15.787 7.5225 15.7373 7.90625H23.254Z" fill="#2B3D50"/>
</g>
<defs>
<clipPath id="clip0_3_997">
<rect width="40" height="40" fill="white"/>
</clipPath>
</defs>
</svg>
