<svg width="13" height="15" viewBox="0 0 13 15" fill="none" xmlns="http://www.w3.org/2000/svg">
<path d="M0.375 13.4375C0.375 14.1758 0.949219 14.75 1.6875 14.75H11.3125C12.0234 14.75 12.625 14.1758 12.625 13.4375V6H0.375V13.4375ZM9.125 8.07812C9.125 7.91406 9.26172 7.75 9.45312 7.75H10.5469C10.7109 7.75 10.875 7.91406 10.875 8.07812V9.17188C10.875 9.36328 10.7109 9.5 10.5469 9.5H9.45312C9.26172 9.5 9.125 9.36328 9.125 9.17188V8.07812ZM9.125 11.5781C9.125 11.4141 9.26172 11.25 9.45312 11.25H10.5469C10.7109 11.25 10.875 11.4141 10.875 11.5781V12.6719C10.875 12.8633 10.7109 13 10.5469 13H9.45312C9.26172 13 9.125 12.8633 9.125 12.6719V11.5781ZM5.625 8.07812C5.625 7.91406 5.76172 7.75 5.95312 7.75H7.04688C7.21094 7.75 7.375 7.91406 7.375 8.07812V9.17188C7.375 9.36328 7.21094 9.5 7.04688 9.5H5.95312C5.76172 9.5 5.625 9.36328 5.625 9.17188V8.07812ZM5.625 11.5781C5.625 11.4141 5.76172 11.25 5.95312 11.25H7.04688C7.21094 11.25 7.375 11.4141 7.375 11.5781V12.6719C7.375 12.8633 7.21094 13 7.04688 13H5.95312C5.76172 13 5.625 12.8633 5.625 12.6719V11.5781ZM2.125 8.07812C2.125 7.91406 2.26172 7.75 2.45312 7.75H3.54688C3.71094 7.75 3.875 7.91406 3.875 8.07812V9.17188C3.875 9.36328 3.71094 9.5 3.54688 9.5H2.45312C2.26172 9.5 2.125 9.36328 2.125 9.17188V8.07812ZM2.125 11.5781C2.125 11.4141 2.26172 11.25 2.45312 11.25H3.54688C3.71094 11.25 3.875 11.4141 3.875 11.5781V12.6719C3.875 12.8633 3.71094 13 3.54688 13H2.45312C2.26172 13 2.125 12.8633 2.125 12.6719V11.5781ZM11.3125 2.5H10V1.1875C10 0.96875 9.78125 0.75 9.5625 0.75H8.6875C8.44141 0.75 8.25 0.96875 8.25 1.1875V2.5H4.75V1.1875C4.75 0.96875 4.53125 0.75 4.3125 0.75H3.4375C3.19141 0.75 3 0.96875 3 1.1875V2.5H1.6875C0.949219 2.5 0.375 3.10156 0.375 3.8125V5.125H12.625V3.8125C12.625 3.10156 12.0234 2.5 11.3125 2.5Z" fill="#2B3D50"/>
</svg>
