<svg width="20" height="20" viewBox="0 0 20 20" fill="none" xmlns="http://www.w3.org/2000/svg">
<g clip-path="url(#clip0_361_1598)">
<path d="M10.6667 5.33203C10.2987 5.33203 10 5.6307 10 5.9987C10 6.3667 10.2987 6.66536 10.6667 6.66536C12.1373 6.66536 13.3333 7.86136 13.3333 9.33203C13.3333 9.70003 13.632 9.9987 14 9.9987C14.368 9.9987 14.6667 9.70003 14.6667 9.33203C14.6667 7.1267 12.872 5.33203 10.6667 5.33203Z" fill="#3E78BA"/>
<path d="M10.6667 2.66797C10.2987 2.66797 10 2.96664 10 3.33464C10 3.70264 10.2987 4.0013 10.6667 4.0013C13.608 4.0013 16 6.3933 16 9.33464C16 9.70264 16.2987 10.0013 16.6667 10.0013C17.0347 10.0013 17.3333 9.70264 17.3333 9.33464C17.3333 5.65864 14.3427 2.66797 10.6667 2.66797Z" fill="#3E78BA"/>
<path d="M10.6667 0C10.2987 0 10 0.298667 10 0.666667C10 1.03467 10.2987 1.33333 10.6667 1.33333C15.0787 1.33333 18.6667 4.92133 18.6667 9.33333C18.6667 9.70133 18.9653 10 19.3333 10C19.7013 10 20 9.70133 20 9.33333C20 4.18667 15.812 0 10.6667 0Z" fill="#3E78BA"/>
<path d="M18 14.6654C16.064 14.6654 14.22 14.244 12.52 13.4134C12.36 13.3334 12.176 13.324 12.0093 13.3827C11.8413 13.4414 11.704 13.564 11.6267 13.7227L10.5787 15.892C7.86667 14.3787 5.62133 12.1347 4.10933 9.4227L6.27733 8.37203C6.43733 8.2947 6.55867 8.15736 6.61733 7.98936C6.67467 7.8227 6.664 7.6387 6.58533 7.4787C5.75467 5.7787 5.33333 3.9347 5.33333 1.9987C5.33333 1.6307 5.03467 1.33203 4.66667 1.33203H0.666667C0.298667 1.33203 0 1.6307 0 1.9987C0 11.924 8.07467 19.9987 18 19.9987C18.368 19.9987 18.6667 19.7 18.6667 19.332V15.332C18.6667 14.964 18.368 14.6654 18 14.6654Z" fill="#3E78BA"/>
</g>
<defs>
<clipPath id="clip0_361_1598">
<rect width="20" height="20" fill="white"/>
</clipPath>
</defs>
</svg>
