<svg width="20" height="21" viewBox="0 0 20 21" fill="none" xmlns="http://www.w3.org/2000/svg">
<g clip-path="url(#clip0_236_69797)">
<path d="M10.6667 5.83301C10.2987 5.83301 10 6.13167 10 6.49967C10 6.86767 10.2987 7.16634 10.6667 7.16634C12.1373 7.16634 13.3333 8.36234 13.3333 9.83301C13.3333 10.201 13.632 10.4997 14 10.4997C14.368 10.4997 14.6667 10.201 14.6667 9.83301C14.6667 7.62767 12.872 5.83301 10.6667 5.83301Z" fill="#EBBD45"/>
<path d="M10.6667 3.16699C10.2987 3.16699 10 3.46566 10 3.83366C10 4.20166 10.2987 4.50033 10.6667 4.50033C13.608 4.50033 16 6.89233 16 9.83366C16 10.2017 16.2987 10.5003 16.6667 10.5003C17.0347 10.5003 17.3333 10.2017 17.3333 9.83366C17.3333 6.15766 14.3427 3.16699 10.6667 3.16699Z" fill="#EBBD45"/>
<path d="M10.6667 0.5C10.2987 0.5 10 0.798667 10 1.16667C10 1.53467 10.2987 1.83333 10.6667 1.83333C15.0787 1.83333 18.6667 5.42133 18.6667 9.83333C18.6667 10.2013 18.9653 10.5 19.3333 10.5C19.7013 10.5 20 10.2013 20 9.83333C20 4.68667 15.812 0.5 10.6667 0.5Z" fill="#EBBD45"/>
<path d="M18 15.1663C16.064 15.1663 14.22 14.745 12.52 13.9143C12.36 13.8343 12.176 13.825 12.0093 13.8837C11.8413 13.9423 11.704 14.065 11.6267 14.2237L10.5787 16.393C7.86667 14.8797 5.62133 12.6357 4.10933 9.92367L6.27733 8.87301C6.43733 8.79567 6.55867 8.65834 6.61733 8.49034C6.67467 8.32367 6.664 8.13967 6.58533 7.97967C5.75467 6.27967 5.33333 4.43567 5.33333 2.49967C5.33333 2.13167 5.03467 1.83301 4.66667 1.83301H0.666667C0.298667 1.83301 0 2.13167 0 2.49967C0 12.425 8.07467 20.4997 18 20.4997C18.368 20.4997 18.6667 20.201 18.6667 19.833V15.833C18.6667 15.465 18.368 15.1663 18 15.1663Z" fill="#EBBD45"/>
</g>
<defs>
<clipPath id="clip0_236_69797">
<rect width="20" height="20" fill="white" transform="translate(0 0.5)"/>
</clipPath>
</defs>
</svg>
