<svg width="30" height="31" viewBox="0 0 30 31" fill="none" xmlns="http://www.w3.org/2000/svg">
<g clip-path="url(#clip0_2_384)">
<path d="M26.25 24.843H3.75C2.19909 24.843 0.9375 23.5814 0.9375 22.0305V3.28052C0.9375 1.72961 2.19909 0.468018 3.75 0.468018H26.25C27.8009 0.468018 29.0625 1.72961 29.0625 3.28052V22.0305C29.0625 23.5814 27.8009 24.843 26.25 24.843ZM3.75 2.34302C3.23269 2.34302 2.8125 2.76367 2.8125 3.28052V22.0305C2.8125 22.5474 3.23269 22.968 3.75 22.968H26.25C26.7673 22.968 27.1875 22.5474 27.1875 22.0305V3.28052C27.1875 2.76367 26.7673 2.34302 26.25 2.34302H3.75Z" fill="#2B3E51"/>
<path d="M28.125 21.093H1.875C1.35684 21.093 0.9375 20.6732 0.9375 20.1555C0.9375 19.6378 1.35684 19.218 1.875 19.218H28.125C28.6432 19.218 29.0625 19.6378 29.0625 20.1555C29.0625 20.6732 28.6432 21.093 28.125 21.093Z" fill="#2B3E51"/>
<path d="M20.6253 30.4679H9.37526C9.05023 30.4679 8.74901 30.2995 8.57782 30.0235C8.40663 29.747 8.39107 29.4018 8.53667 29.1112L11.3492 23.4862C11.5084 23.1685 11.8325 22.968 12.1878 22.968H17.8128C18.168 22.968 18.4921 23.1685 18.6514 23.4862L21.4639 29.1112C21.6094 29.4019 21.5939 29.747 21.4227 30.0235C21.2515 30.2995 20.9503 30.4679 20.6253 30.4679ZM10.8923 28.5929H19.1083L17.2333 24.8429H12.7673L10.8923 28.5929Z" fill="#2B3E51"/>
<path d="M22.5 30.468H7.5C6.98184 30.468 6.5625 30.0482 6.5625 29.5305C6.5625 29.0128 6.98184 28.593 7.5 28.593H22.5C23.0182 28.593 23.4375 29.0128 23.4375 29.5305C23.4375 30.0482 23.0182 30.468 22.5 30.468Z" fill="#2B3E51"/>
<path d="M11.25 15.468H9.375C7.82409 15.468 6.5625 14.2064 6.5625 12.6555V10.7805C6.5625 9.22961 7.82409 7.96802 9.375 7.96802H11.25C11.7682 7.96802 12.1875 8.38783 12.1875 8.90552V14.5305C12.1875 15.0482 11.7682 15.468 11.25 15.468ZM9.375 9.84302C8.85769 9.84302 8.4375 10.2637 8.4375 10.7805V12.6555C8.4375 13.1724 8.85769 13.593 9.375 13.593H10.3125V9.84302H9.375Z" fill="#2B3E51"/>
<path d="M20.625 15.468H18.75C18.2318 15.468 17.8125 15.0482 17.8125 14.5305V8.90552C17.8125 8.38783 18.2318 7.96802 18.75 7.96802H20.625C22.1759 7.96802 23.4375 9.22961 23.4375 10.7805V12.6555C23.4375 14.2064 22.1759 15.468 20.625 15.468ZM19.6875 13.593H20.625C21.1423 13.593 21.5625 13.1724 21.5625 12.6555V10.7805C21.5625 10.2637 21.1423 9.84302 20.625 9.84302H19.6875V13.593Z" fill="#2B3E51"/>
<path d="M9.45997 9.84302C9.40963 9.84302 9.35741 9.83889 9.30613 9.83064C8.79529 9.74599 8.44916 9.26345 8.53438 8.75261C9.05901 5.5817 11.7781 3.28052 14.9998 3.28052C16.7613 3.28052 18.4093 3.96489 19.6407 5.20774C20.6175 6.17364 21.2511 7.40364 21.4663 8.75861C21.5477 9.26992 21.1989 9.75011 20.688 9.83158C20.1662 9.91399 19.6956 9.56383 19.6151 9.05242C19.4622 8.09477 19.0136 7.22411 18.316 6.5343C17.4325 5.64302 16.2569 5.15552 14.9999 5.15552C12.6992 5.15552 10.7583 6.79708 10.3839 9.05842C10.3078 9.51752 9.91044 9.84302 9.45997 9.84302Z" fill="#2B3E51"/>
<path d="M19.0146 18.2805H17.8125C17.2943 18.2805 16.875 17.8607 16.875 17.343C16.875 16.8253 17.2943 16.4055 17.8125 16.4055H19.0146C19.1711 16.4055 19.2983 16.2778 19.2983 16.1213V15.468C19.2983 14.9503 19.7177 14.5305 20.2358 14.5305C20.754 14.5305 21.1733 14.9503 21.1733 15.468V16.1213C21.1733 17.3119 20.2047 18.2805 19.0146 18.2805Z" fill="#2B3E51"/>
</g>
<defs>
<clipPath id="clip0_2_384">
<rect width="30" height="30" fill="white" transform="translate(0 0.468018)"/>
</clipPath>
</defs>
</svg>
