<svg width="30" height="30" viewBox="0 0 30 30" fill="none" xmlns="http://www.w3.org/2000/svg">
<g id="virtual-assistant 1" clip-path="url(#clip0_2_178)">
<path id="Vector" d="M26.25 24.375H3.75C2.19909 24.375 0.9375 23.1134 0.9375 21.5625V2.8125C0.9375 1.26159 2.19909 0 3.75 0H26.25C27.8009 0 29.0625 1.26159 29.0625 2.8125V21.5625C29.0625 23.1134 27.8009 24.375 26.25 24.375ZM3.75 1.875C3.23269 1.875 2.8125 2.29566 2.8125 2.8125V21.5625C2.8125 22.0793 3.23269 22.5 3.75 22.5H26.25C26.7673 22.5 27.1875 22.0793 27.1875 21.5625V2.8125C27.1875 2.29566 26.7673 1.875 26.25 1.875H3.75Z" fill="#3E78BA"/>
<path id="Vector_2" d="M28.125 20.625H1.875C1.35684 20.625 0.9375 20.2052 0.9375 19.6875C0.9375 19.1698 1.35684 18.75 1.875 18.75H28.125C28.6432 18.75 29.0625 19.1698 29.0625 19.6875C29.0625 20.2052 28.6432 20.625 28.125 20.625Z" fill="#3E78BA"/>
<path id="Vector_3" d="M20.625 30H9.37502C9.04998 30 8.74877 29.8316 8.57758 29.5556C8.40639 29.2791 8.39083 28.9339 8.53642 28.6433L11.3489 23.0183C11.5082 22.7006 11.8323 22.5001 12.1875 22.5001H17.8125C18.1677 22.5001 18.4918 22.7007 18.6511 23.0183L21.4636 28.6433C21.6092 28.934 21.5936 29.2791 21.4225 29.5556C21.2513 29.8316 20.95 30 20.625 30ZM10.8921 28.125H19.108L17.233 24.375H12.7671L10.8921 28.125Z" fill="#3E78BA"/>
<path id="Vector_4" d="M22.5 30H7.5C6.98184 30 6.5625 29.5802 6.5625 29.0625C6.5625 28.5448 6.98184 28.125 7.5 28.125H22.5C23.0182 28.125 23.4375 28.5448 23.4375 29.0625C23.4375 29.5802 23.0182 30 22.5 30Z" fill="#3E78BA"/>
<path id="Vector_5" d="M11.25 15H9.375C7.82409 15 6.5625 13.7384 6.5625 12.1875V10.3125C6.5625 8.76159 7.82409 7.5 9.375 7.5H11.25C11.7682 7.5 12.1875 7.91981 12.1875 8.4375V14.0625C12.1875 14.5802 11.7682 15 11.25 15ZM9.375 9.375C8.85769 9.375 8.4375 9.79566 8.4375 10.3125V12.1875C8.4375 12.7043 8.85769 13.125 9.375 13.125H10.3125V9.375H9.375Z" fill="#3E78BA"/>
<path id="Vector_6" d="M20.625 15H18.75C18.2318 15 17.8125 14.5802 17.8125 14.0625V8.4375C17.8125 7.91981 18.2318 7.5 18.75 7.5H20.625C22.1759 7.5 23.4375 8.76159 23.4375 10.3125V12.1875C23.4375 13.7384 22.1759 15 20.625 15ZM19.6875 13.125H20.625C21.1423 13.125 21.5625 12.7043 21.5625 12.1875V10.3125C21.5625 9.79566 21.1423 9.375 20.625 9.375H19.6875V13.125Z" fill="#3E78BA"/>
<path id="Vector_7" d="M9.4601 9.375C9.40975 9.375 9.35753 9.37088 9.30625 9.36263C8.79541 9.27797 8.44928 8.79544 8.5345 8.28459C9.05913 5.11369 11.7783 2.8125 15 2.8125C16.7614 2.8125 18.4094 3.49687 19.6408 4.73972C20.6177 5.70562 21.2512 6.93563 21.4664 8.29059C21.5478 8.80191 21.199 9.28209 20.6882 9.36356C20.1663 9.44597 19.6957 9.09581 19.6152 8.58441C19.4623 7.62675 19.0137 6.75609 18.3161 6.06628C17.4326 5.175 16.2571 4.6875 15.0001 4.6875C12.6993 4.6875 10.7584 6.32906 10.384 8.59041C10.308 9.0495 9.91057 9.375 9.4601 9.375Z" fill="#3E78BA"/>
<path id="Vector_8" d="M19.0146 17.8125H17.8125C17.2943 17.8125 16.875 17.3927 16.875 16.875C16.875 16.3573 17.2943 15.9375 17.8125 15.9375H19.0146C19.1711 15.9375 19.2983 15.8098 19.2983 15.6533V15C19.2983 14.4823 19.7177 14.0625 20.2358 14.0625C20.754 14.0625 21.1733 14.4823 21.1733 15V15.6533C21.1733 16.8439 20.2047 17.8125 19.0146 17.8125Z" fill="#3E78BA"/>
</g>
<defs>
<clipPath id="clip0_2_178">
<rect width="30" height="30" fill="white"/>
</clipPath>
</defs>
</svg>
