<svg width="24" height="24" viewBox="0 0 24 24" fill="none" xmlns="http://www.w3.org/2000/svg">
<path d="M12 0C5.38327 0 0 5.38327 0 12C0 18.6167 5.38327 24 12 24C18.6167 24 24 18.6167 24 12C24 5.38327 18.6167 0 12 0ZM14.7802 7.005L16.1706 8.22L11.9238 13.0719L10.5335 11.7415L14.7802 7.005ZM8.30365 16.9979L4.23288 12.9231L5.53846 11.6175L9.60981 15.6923L8.30365 16.9979ZM12.0537 17.0435L7.93558 12.9231L9.24173 11.6181L11.9625 14.3417L18.3738 7.005L19.7642 8.22L12.0537 17.0435Z" fill="#00B67A"/>
</svg>
