<svg width="96" height="96" viewBox="0 0 96 96" fill="none" xmlns="http://www.w3.org/2000/svg">
<path d="M76.5 58.5C67.08 58.5 59.343 65.775 58.5765 75H46.5V63H25.5V55.5H46.5V31.5H52.5V46.5H82.5V24.621L92.1975 14.9235C93.6825 13.4385 94.5 11.4645 94.5 9.363C94.5 5.028 90.972 1.5 86.637 1.5C84.537 1.5 82.5615 2.3175 81.0765 3.8025L68.379 16.5H52.5V28.5H46.5V1.5H14.379L1.5 14.379V55.5H22.5V63H1.5V90H46.5V78H58.5765C59.343 87.225 67.08 94.5 76.5 94.5C86.4255 94.5 94.5 86.4255 94.5 76.5C94.5 66.5745 86.4255 58.5 76.5 58.5ZM68.121 21L79.5 9.621L81.879 12L70.5 23.379L68.121 21ZM66.6555 23.7765L72.2235 29.3445L65.9265 31.443C65.2335 31.677 64.5 31.1295 64.5 30.4185C64.5 30.3045 64.5195 30.1845 64.554 30.0765L66.6555 23.7765ZM75 27.879L72.621 25.5L84 14.121L86.379 16.5L75 27.879ZM86.637 4.5C89.319 4.5 91.5 6.681 91.5 9.363C91.5 10.662 90.9945 11.8845 90.0765 12.8025L88.5 14.379L81.621 7.5L83.1975 5.9235C84.1155 5.0055 85.338 4.5 86.637 4.5ZM55.5 19.5H65.379L64.689 20.19L61.707 29.133C61.5705 29.55 61.5 29.982 61.5 30.4185C61.5 32.6685 63.3315 34.5 65.5815 34.5C66.018 34.5 66.45 34.4295 66.8715 34.29L75.81 31.311L79.5 27.621V43.5H55.5V19.5ZM6.621 13.5L13.5 6.621V13.5H6.621ZM10.5 16.5H16.5V10.5H37.5V19.5H10.5V16.5ZM4.5 16.5H7.5V22.5H40.5V7.5H16.5V4.5H43.5V52.5H4.5V16.5ZM43.5 87H4.5V66H43.5V87ZM76.5 91.5C68.229 91.5 61.5 84.771 61.5 76.5C61.5 68.229 68.229 61.5 76.5 61.5C84.771 61.5 91.5 68.229 91.5 76.5C91.5 84.771 84.771 91.5 76.5 91.5Z" fill="#00ADED"/>
<path d="M73.5 83.3791L68.5605 78.4396L66.4395 80.5606L73.5 87.6211L88.0604 73.0606L85.9394 70.9396L73.5 83.3791Z" fill="#00ADED"/>
<path d="M12 81C14.481 81 16.5 78.981 16.5 76.5C16.5 74.019 14.481 72 12 72C9.519 72 7.5 74.019 7.5 76.5C7.5 78.981 9.519 81 12 81ZM12 75C12.828 75 13.5 75.672 13.5 76.5C13.5 77.328 12.828 78 12 78C11.172 78 10.5 77.328 10.5 76.5C10.5 75.672 11.172 75 12 75Z" fill="#00ADED"/>
<path d="M24 81C26.481 81 28.5 78.981 28.5 76.5C28.5 74.019 26.481 72 24 72C21.519 72 19.5 74.019 19.5 76.5C19.5 78.981 21.519 81 24 81ZM24 75C24.828 75 25.5 75.672 25.5 76.5C25.5 77.328 24.828 78 24 78C23.172 78 22.5 77.328 22.5 76.5C22.5 75.672 23.172 75 24 75Z" fill="#00ADED"/>
<path d="M36 81C38.481 81 40.5 78.981 40.5 76.5C40.5 74.019 38.481 72 36 72C33.519 72 31.5 74.019 31.5 76.5C31.5 78.981 33.519 81 36 81ZM36 75C36.828 75 37.5 75.672 37.5 76.5C37.5 77.328 36.828 78 36 78C35.172 78 34.5 77.328 34.5 76.5C34.5 75.672 35.172 75 36 75Z" fill="#00ADED"/>
<path d="M58.5 37.5H76.5V40.5H58.5V37.5Z" fill="#00ADED"/>
<path d="M7.5 25.5H10.5V28.5H7.5V25.5Z" fill="#00ADED"/>
<path d="M13.5 25.5H40.5V28.5H13.5V25.5Z" fill="#00ADED"/>
<path d="M7.5 31.5H40.5V34.5H7.5V31.5Z" fill="#00ADED"/>
<path d="M7.5 49.5H40.5V37.5H7.5V49.5ZM10.5 40.5H37.5V46.5H10.5V40.5Z" fill="#00ADED"/>
</svg>
