<svg width="96" height="96" viewBox="0 0 96 96" fill="none" xmlns="http://www.w3.org/2000/svg">
<g clip-path="url(#clip0)">
<path d="M48.0014 32.6749C47.0772 32.6749 46.3281 33.424 46.3281 34.3482C46.3281 35.2724 47.0772 36.0214 48.0014 36.0214C48.9255 36.0214 49.6746 35.2724 49.6746 34.3482C49.6746 33.4242 48.9255 32.6749 48.0014 32.6749Z" fill="#00ADED"/>
<path d="M92.2927 47.0803V34.2105C92.2927 15.3469 76.9458 0 58.082 0H37.8476C18.9838 0 3.63689 15.3469 3.63689 34.2105V47.1413C2.4697 48.1387 1.72852 49.6209 1.72852 51.273V69.7168C1.72852 72.7132 4.1662 75.1509 7.16245 75.1509H11.054C11.6812 77.6499 13.9464 79.506 16.6372 79.506C20.4405 79.506 23.5346 76.4117 23.5346 72.6086V48.3866C23.5346 44.5834 20.4403 41.4894 16.6372 41.4894C15.5625 41.4894 14.5558 41.7855 13.694 42.3004V34.2109C13.694 20.9512 24.4815 10.164 37.7409 10.164H58.1885C71.4481 10.164 82.2354 20.9514 82.2354 34.2109V42.3004C81.3736 41.7855 80.367 41.4894 79.2922 41.4894C75.4889 41.4894 72.3948 44.5836 72.3948 48.3866V72.6084C72.3948 76.4117 75.4891 79.5058 79.2922 79.5058C81.983 79.5058 84.2482 77.6497 84.8754 75.1507H85.9893V79.5949C85.9893 85.2248 81.4091 89.805 75.7792 89.805H68.0186C67.4163 87.8484 65.5918 86.4221 63.4404 86.4221H53.8254C51.1848 86.4221 49.0365 88.5705 49.0365 91.2111C49.0365 93.8516 51.185 96 53.8256 96H63.4406C65.5919 96 67.4167 94.5739 68.0188 92.6173H75.7794C82.9599 92.6173 88.8016 86.7754 88.8016 79.5951V75.1509H88.8395C91.8358 75.1509 94.2735 72.7132 94.2735 69.7168V51.273C94.2736 49.5868 93.5017 48.0778 92.2927 47.0803ZM63.4406 93.1877H53.8256C52.7356 93.1877 51.849 92.301 51.849 91.2113C51.849 90.1213 52.7356 89.2346 53.8256 89.2346H63.4406C64.5305 89.2346 65.4172 90.1213 65.4172 91.2113C65.4172 92.301 64.5305 93.1877 63.4406 93.1877ZM10.8817 72.3386H7.16245C5.71683 72.3386 4.54083 71.1624 4.54083 69.7168V51.273C4.54083 49.8386 5.70708 48.6514 7.16245 48.6514H10.8817V72.3386ZM16.6372 44.3018C18.8898 44.3018 20.7223 46.1344 20.7223 48.3866V72.6084C20.7223 74.8611 18.8896 76.6935 16.6372 76.6935C15.0142 76.6935 13.6938 75.3731 13.6938 73.7501V47.2586C13.6938 47.2526 13.694 47.2468 13.694 47.2408V47.2161C13.7098 45.6066 15.024 44.3018 16.6372 44.3018ZM58.1887 7.35187H37.7411C22.9308 7.35187 10.8819 19.4008 10.8819 34.2111V45.8391H7.16245C6.92077 45.8391 6.68264 45.855 6.4492 45.8857V34.2107C6.4492 16.8977 20.5346 2.8125 37.8476 2.8125H58.082C75.395 2.8125 89.4804 16.8977 89.4804 34.2107V45.8767C89.2702 45.852 89.0563 45.8391 88.8395 45.8391H85.0477V34.2111C85.0479 19.4008 72.9988 7.35187 58.1887 7.35187ZM91.4613 69.7168C91.4613 71.1624 90.2853 72.3386 88.8397 72.3386H85.0481V69.0024C85.0481 68.2258 84.4186 67.5964 83.642 67.5964C82.8654 67.5964 82.2359 68.2258 82.2359 69.0024V73.7503C82.2359 75.3733 80.9156 76.6937 79.2926 76.6937C77.0399 76.6937 75.2075 74.8611 75.2075 72.6086V48.3866C75.2075 46.1342 77.0401 44.3018 79.2926 44.3018C80.9058 44.3018 82.2202 45.6066 82.2358 47.2163V47.2442C82.2358 47.2494 82.2359 47.2547 82.2359 47.2599V62.3111C82.2359 63.0877 82.8654 63.7172 83.642 63.7172C84.4186 63.7172 85.0481 63.0877 85.0481 62.3111V48.651H88.8397C90.293 48.651 91.4613 49.8358 91.4613 51.2726V69.7168Z" fill="#00ADED"/>
<path d="M49.4078 54.682V39.9625C49.4078 39.1858 48.7784 38.5564 48.0018 38.5564C47.2251 38.5564 46.5957 39.1858 46.5957 39.9625V54.682C46.5957 55.4586 47.2251 56.088 48.0018 56.088C48.7784 56.088 49.4078 55.4586 49.4078 54.682Z" fill="#00ADED"/>
<path d="M51.893 62.9666L58.9277 69.7788C60.3332 71.1403 62.7073 70.1521 62.7073 68.1781V62.8972C62.7073 62.8297 62.7622 62.7746 62.8299 62.7746C66.2837 62.7744 69.0937 59.9643 69.0937 56.5106V31.9044C69.0937 28.4504 66.2837 25.6404 62.8297 25.6404H33.1743C29.7204 25.6404 26.9103 28.4504 26.9103 31.9044V33.3984C26.9103 34.175 27.5398 34.8044 28.3164 34.8044C29.093 34.8044 29.7225 34.175 29.7225 33.3984V31.9044C29.7225 30.0009 31.2708 28.4525 33.1743 28.4525H62.8295C64.733 28.4525 66.2814 30.0009 66.2814 31.9044V56.5104C66.2814 58.4137 64.733 59.9621 62.8297 59.9623C61.2116 59.9623 59.895 61.2789 59.895 62.8972V66.8008L53.8494 60.9464C53.1943 60.3119 52.3314 59.9626 51.4194 59.9626L33.174 59.9632C32.252 59.9632 31.3854 59.6043 30.7333 58.9524C30.0813 58.3004 29.7223 57.4336 29.7223 56.5115V39.9721C29.7223 39.1955 29.0928 38.5661 28.3162 38.5661C27.5396 38.5661 26.9102 39.1955 26.9102 39.9721V56.5115C26.9102 58.1848 27.5617 59.7577 28.7448 60.9408C29.928 62.1239 31.5011 62.7755 33.1742 62.7753L51.4194 62.7748C51.5974 62.7748 51.7655 62.843 51.893 62.9666Z" fill="#00ADED"/>
</g>
<defs>
<clipPath id="clip0">
<rect width="96" height="96" fill="white"/>
</clipPath>
</defs>
</svg>
