<svg width="96" height="96" viewBox="0 0 96 96" fill="none" xmlns="http://www.w3.org/2000/svg">
<path d="M79.5 70.776V67.5H76.5V70.5H73.5V75C73.5 77.481 75.519 79.5 78 79.5C78.828 79.5 79.5 80.1735 79.5 81V82.5H78C77.172 82.5 76.5 81.8265 76.5 81V79.5H73.5V81C73.5 82.953 74.7585 84.603 76.5 85.224V88.5H79.5V85.5H82.5V81C82.5 78.519 80.481 76.5 78 76.5C77.172 76.5 76.5 75.8265 76.5 75V73.5H78C78.828 73.5 79.5 74.1735 79.5 75V76.5H82.5V75C82.5 73.047 81.2415 71.397 79.5 70.776Z" fill="#00ADED"/>
<path d="M78 61.5C69.408 61.5 62.337 68.103 61.5765 76.5H57C56.172 76.5 55.5 75.8265 55.5 75V67.5915C62.9355 64.7355 68.334 57.7815 68.9235 49.5H82.776C83.397 51.2415 85.047 52.5 87 52.5C89.481 52.5 91.5 50.481 91.5 48C91.5 45.519 89.481 43.5 87 43.5C85.047 43.5 83.397 44.7585 82.776 46.5H68.9235C68.334 38.2185 62.9355 31.2645 55.5 28.4085V24C55.5 23.1735 56.172 22.5 57 22.5H69V31.5H90V16.5H95.121L79.5 0.879028L63.879 16.5H69V19.5H57C54.519 19.5 52.5 21.519 52.5 24V27.498C51.5235 27.2835 50.5215 27.1485 49.5 27.0765V13.224C51.2415 12.603 52.5 10.953 52.5 9.00003C52.5 6.51903 50.481 4.50003 48 4.50003C45.519 4.50003 43.5 6.51903 43.5 9.00003C43.5 10.953 44.7585 12.603 46.5 13.224V27.0765C45.4785 27.1485 44.4765 27.2835 43.5 27.498V21C43.5 18.519 41.481 16.5 39 16.5H34.4235C33.663 8.10303 26.592 1.50003 18 1.50003C8.90247 1.50003 1.49997 8.90253 1.49997 18C1.49997 27.0975 8.90247 34.5 18 34.5C26.592 34.5 33.663 27.897 34.4235 19.5H39C39.828 19.5 40.5 20.1735 40.5 21V28.4085C33.0645 31.2645 27.666 38.2185 27.0765 46.5H13.224C12.603 44.7585 10.953 43.5 8.99997 43.5C6.51897 43.5 4.49997 45.519 4.49997 48C4.49997 50.481 6.51897 52.5 8.99997 52.5C10.953 52.5 12.603 51.2415 13.224 49.5H27.0765C27.666 57.7815 33.066 64.7355 40.5 67.5915V78C40.5 78.8265 39.828 79.5 39 79.5H31.5V76.5H35.082L31.0815 64.5H4.91847L0.917969 76.5H4.49997V94.5H31.5V82.5H39C41.481 82.5 43.5 80.481 43.5 78V68.502C44.4765 68.7165 45.4785 68.8515 46.5 68.9235V82.776C44.7585 83.397 43.5 85.047 43.5 87C43.5 89.481 45.519 91.5 48 91.5C50.481 91.5 52.5 89.481 52.5 87C52.5 85.047 51.2415 83.397 49.5 82.776V68.9235C50.5215 68.8515 51.5235 68.7165 52.5 68.502V75C52.5 77.481 54.519 79.5 57 79.5H61.5765C62.337 87.897 69.408 94.5 78 94.5C87.0975 94.5 94.5 87.0975 94.5 78C94.5 68.9025 87.0975 61.5 78 61.5ZM79.5 5.12103L87.879 13.5H87V28.5H72V13.5H71.121L79.5 5.12103ZM18 31.5C10.5555 31.5 4.49997 25.443 4.49997 18C4.49997 10.557 10.5555 4.50003 18 4.50003C25.4445 4.50003 31.5 10.557 31.5 18C31.5 25.443 25.4445 31.5 18 31.5ZM7.08147 67.5H28.92L30.9195 73.5H5.08197L7.08147 67.5ZM7.49997 76.5H16.5V91.5H7.49997V76.5ZM19.5 91.5V76.5H28.5V91.5H19.5ZM40.5 41.4075C40.5 38.4255 42.9255 36 45.9075 36H50.091C53.0745 36 55.5 38.4255 55.5 41.4075C55.5 42.1185 55.35 42.8115 55.0815 43.461C54.663 42.5535 53.9475 41.796 53.013 41.328L48 38.823L42.987 41.3295C42.0525 41.7975 41.337 42.555 40.9185 43.4625C40.6515 42.813 40.5 42.12 40.5 41.4075ZM49.5 55.632C50.685 55.8045 51.8085 56.1765 52.842 56.718L49.5 62.178V55.632ZM43.5 48V45.354C43.5 44.7825 43.818 44.268 44.3295 44.013L48 42.177L51.6705 44.013C52.182 44.268 52.5 44.7825 52.5 45.354V48C52.5 50.481 50.481 52.5 48 52.5C45.519 52.5 43.5 50.481 43.5 48ZM46.5 62.178L43.158 56.718C44.1915 56.1765 45.315 55.8045 46.5 55.632V62.178ZM40.725 58.4895L45.174 65.757C42.5505 65.34 40.11 64.3755 37.9905 62.952C38.5185 61.221 39.468 59.703 40.725 58.4895ZM55.2735 58.488C56.5305 59.7015 57.48 61.2195 58.008 62.9505C55.89 64.374 53.448 65.3385 50.8245 65.7555L55.2735 58.488ZM87 46.5C87.828 46.5 88.5 47.1735 88.5 48C88.5 48.8265 87.828 49.5 87 49.5C86.172 49.5 85.5 48.8265 85.5 48C85.5 47.1735 86.172 46.5 87 46.5ZM48 7.50003C48.828 7.50003 49.5 8.17353 49.5 9.00003C49.5 9.82653 48.828 10.5 48 10.5C47.172 10.5 46.5 9.82653 46.5 9.00003C46.5 8.17353 47.172 7.50003 48 7.50003ZM8.99997 49.5C8.17197 49.5 7.49997 48.8265 7.49997 48C7.49997 47.1735 8.17197 46.5 8.99997 46.5C9.82797 46.5 10.5 47.1735 10.5 48C10.5 48.8265 9.82797 49.5 8.99997 49.5ZM30 48C30 38.0745 38.0745 30 48 30C57.9255 30 66 38.0745 66 48C66 53.067 63.888 57.6435 60.5055 60.918C59.121 57.5235 56.3985 54.864 53.055 53.502C54.4215 52.245 55.3035 50.4975 55.4445 48.534L57.087 46.071C58.011 44.685 58.4985 43.071 58.4985 41.4075C58.5 36.7725 54.7275 33 50.0925 33H45.909C41.2725 33 37.5 36.7725 37.5 41.4075C37.5 43.0725 37.9875 44.685 38.9115 46.071L40.554 48.534C40.695 50.496 41.577 52.245 42.9435 53.502C39.6 54.8625 36.8775 57.5235 35.493 60.918C32.112 57.6435 30 53.067 30 48ZM48 88.5C47.172 88.5 46.5 87.8265 46.5 87C46.5 86.1735 47.172 85.5 48 85.5C48.828 85.5 49.5 86.1735 49.5 87C49.5 87.8265 48.828 88.5 48 88.5ZM78 91.5C70.5555 91.5 64.5 85.443 64.5 78C64.5 70.557 70.5555 64.5 78 64.5C85.4445 64.5 91.5 70.557 91.5 78C91.5 85.443 85.4445 91.5 78 91.5Z" fill="#00ADED"/>
<path d="M22.5 13.5V10.5C22.5 8.8455 21.1545 7.5 19.5 7.5H16.5C14.8455 7.5 13.5 8.8455 13.5 10.5V13.5H10.5C8.8455 13.5 7.5 14.8455 7.5 16.5V19.5C7.5 21.1545 8.8455 22.5 10.5 22.5H13.5V25.5C13.5 27.1545 14.8455 28.5 16.5 28.5H19.5C21.1545 28.5 22.5 27.1545 22.5 25.5V22.5H25.5C27.1545 22.5 28.5 21.1545 28.5 19.5V16.5C28.5 14.8455 27.1545 13.5 25.5 13.5H22.5ZM25.5 19.5H19.5V25.5H16.5V19.5H10.5V16.5H16.5V10.5H19.5V16.5L25.5 16.5045V19.5Z" fill="#00ADED"/>
</svg>
