<svg width="121" height="60" viewBox="0 0 121 60" fill="none" xmlns="http://www.w3.org/2000/svg">
<g clip-path="url(#clip0)">
<path d="M38.5844 0H0.359375V48.65H38.5844V0Z" fill="#001733"/>
<path d="M79.4789 0H41.2539V48.65H79.4789V0Z" fill="#001733"/>
<path d="M120.575 0H82.3496V48.65H120.575V0Z" fill="#001733"/>
<path d="M27.8311 38.778L19.7381 17.916H19.2071L11.4071 38.016C11.1575 38.8066 10.726 39.5276 10.1471 40.121C9.76257 40.4859 9.29623 40.7534 8.78711 40.901V41.564C9.14479 41.518 9.50459 41.4903 9.8651 41.481C10.2518 41.4704 10.7211 41.4647 11.2731 41.464C11.8484 41.464 12.4731 41.4697 13.1471 41.481C13.8211 41.4924 14.4678 41.52 15.0871 41.564V40.901C14.3519 40.925 13.6223 40.7655 12.9641 40.437C12.7196 40.2867 12.5198 40.0735 12.3856 39.8197C12.2514 39.5659 12.1877 39.2808 12.2011 38.994C12.2438 38.0273 12.4687 37.0773 12.8641 36.194L14.2171 32.678H22.2371L24.2731 38.117C24.7151 39.245 24.7818 39.9804 24.4731 40.323C23.8463 40.7667 23.0819 40.9723 22.3171 40.903V41.566C22.7838 41.522 23.3918 41.4944 24.1411 41.483C24.8904 41.4717 25.6974 41.466 26.5621 41.466C27.2028 41.466 27.8441 41.4717 28.4861 41.483C29.1281 41.4944 29.6698 41.522 30.1111 41.566V40.903C29.6918 40.857 29.2917 40.7026 28.9501 40.455C28.4203 40.0182 28.0311 39.4349 27.8311 38.778ZM14.4821 32.012L18.2931 22.112L21.9991 32.012H14.4821Z" fill="white"/>
<path d="M67.282 18.1809C66.53 18.1809 65.767 18.1699 64.993 18.1479C64.219 18.1259 63.5777 18.1039 63.069 18.0819V18.7449C63.6477 18.7399 64.2237 18.8235 64.777 18.9929C64.9603 19.0563 65.1263 19.1617 65.2617 19.3006C65.3971 19.4394 65.4983 19.608 65.557 19.7929C65.7149 20.3819 65.7824 20.9916 65.757 21.6009V29.4229H54.977V21.5969C54.9517 20.9876 55.0192 20.3779 55.177 19.7889C55.2357 19.604 55.3368 19.4354 55.4722 19.2965C55.6077 19.1576 55.7737 19.0523 55.957 18.9889C56.5103 18.8194 57.0864 18.7357 57.665 18.7409V18.0779C57.1564 18.0999 56.5204 18.1219 55.757 18.1439C54.9937 18.1659 54.2254 18.1769 53.452 18.1769C52.59 18.1769 51.783 18.1659 51.031 18.1439C50.279 18.1219 49.671 18.0999 49.207 18.0779V18.7409C49.7857 18.7359 50.3617 18.8195 50.915 18.9889C51.0982 19.0524 51.264 19.1578 51.3992 19.2967C51.5345 19.4356 51.6354 19.6041 51.694 19.7889C51.8519 20.3779 51.9194 20.9876 51.894 21.5969V38.0439C51.9173 38.6475 51.8499 39.2513 51.694 39.8349C51.6387 40.0214 51.5389 40.1916 51.4032 40.331C51.2675 40.4704 51.1 40.5747 50.915 40.6349C50.3593 40.7956 49.7853 40.8846 49.207 40.8999V41.5629C49.6737 41.5189 50.2817 41.4912 51.031 41.4799C51.7804 41.4686 52.5874 41.4629 53.452 41.4629C54.226 41.4629 54.9944 41.4686 55.757 41.4799C56.5197 41.4912 57.1557 41.5189 57.665 41.5629V40.8999C57.0867 40.8848 56.5127 40.7957 55.957 40.6349C55.7719 40.5748 55.6041 40.4706 55.4682 40.3312C55.3324 40.1918 55.2324 40.0215 55.177 39.8349C55.0211 39.2513 54.9537 38.6475 54.977 38.0439V30.0839H65.757V38.0439C65.7804 38.6475 65.7129 39.2513 65.557 39.8349C65.5016 40.0215 65.4017 40.1918 65.2658 40.3312C65.1299 40.4706 64.9622 40.5748 64.777 40.6349C64.2213 40.7956 63.6473 40.8846 63.069 40.8999V41.5629C63.5777 41.5189 64.219 41.4912 64.993 41.4799C65.767 41.4686 66.53 41.4629 67.282 41.4629C68.1447 41.4629 68.952 41.4686 69.704 41.4799C70.456 41.4912 71.064 41.5189 71.528 41.5629V40.8999C70.9497 40.8848 70.3757 40.7957 69.82 40.6349C69.6348 40.5751 69.467 40.471 69.3313 40.3316C69.1955 40.1921 69.0958 40.0216 69.041 39.8349C68.8851 39.2513 68.8177 38.6475 68.841 38.0439V21.5989C68.8157 20.9896 68.8831 20.3799 69.041 19.7909C69.0996 19.6061 69.2005 19.4375 69.3357 19.2986C69.471 19.1597 69.6368 19.0543 69.82 18.9909C70.3733 18.8214 70.9494 18.7377 71.528 18.7429V18.0799C71.0614 18.1019 70.4534 18.1239 69.704 18.1459C68.9547 18.1679 68.1474 18.1796 67.282 18.1809Z" fill="white"/>
<path d="M112.108 39.541C111.868 39.8672 111.596 40.1687 111.295 40.441C111.031 40.666 110.697 40.794 110.349 40.804C110.129 40.8243 109.907 40.7765 109.714 40.6668C109.521 40.5572 109.367 40.3911 109.271 40.191C108.958 39.5198 108.729 38.8125 108.589 38.085L107.76 34.702C107.571 33.5758 107.071 32.5248 106.317 31.667C105.413 30.9032 104.296 30.4345 103.117 30.324C102.99 30.303 102.851 30.29 102.717 30.271C103.397 30.1797 104.064 30.0141 104.706 29.777C105.704 29.4271 106.614 28.8671 107.376 28.135C107.986 27.5375 108.456 26.8125 108.752 26.012C109.005 25.3321 109.141 24.6142 109.152 23.889C109.16 23.0965 108.984 22.313 108.639 21.5996C108.293 20.8862 107.788 20.2622 107.162 19.776C105.836 18.6713 103.836 18.1186 101.162 18.118C100.762 18.118 100.088 18.129 99.1394 18.151C98.1907 18.173 97.1958 18.184 96.1544 18.184C95.4251 18.184 94.6844 18.173 93.9324 18.151C93.1804 18.129 92.5721 18.107 92.1074 18.085V18.748C92.6861 18.7429 93.2621 18.8266 93.8154 18.996C93.9987 19.0594 94.1647 19.1647 94.3001 19.3036C94.4355 19.4425 94.5367 19.6111 94.5954 19.796C94.7533 20.385 94.8207 20.9946 94.7954 21.604V38.054C94.8187 38.6576 94.7513 39.2613 94.5954 39.845C94.54 40.0316 94.4401 40.2019 94.3042 40.3413C94.1683 40.4806 94.0006 40.5849 93.8154 40.645C93.2597 40.8056 92.6857 40.8947 92.1074 40.91V41.573C92.5741 41.529 93.1824 41.5013 93.9324 41.49C94.6824 41.4786 95.4894 41.473 96.3534 41.473C97.1268 41.473 97.8934 41.4786 98.6534 41.49C99.4134 41.5013 100.049 41.529 100.561 41.573V40.91C99.9831 40.8948 99.4091 40.8058 98.8534 40.645C98.6682 40.5852 98.5004 40.4811 98.3646 40.3416C98.2289 40.2022 98.1292 40.0317 98.0744 39.845C97.9185 39.2613 97.8511 38.6576 97.8744 38.054V30.426H101.025C101.745 30.3749 102.458 30.5883 103.031 31.026C103.518 31.475 103.883 32.0399 104.092 32.668C104.378 33.4745 104.606 34.3002 104.774 35.139L105.504 38.456C105.639 39.535 106.129 40.5385 106.897 41.308C107.51 41.7926 108.272 42.0505 109.053 42.038C109.796 42.083 110.533 41.8915 111.159 41.491C111.727 41.0516 112.215 40.5186 112.602 39.915L112.108 39.541ZM100.102 29.757H97.8804V21.6C97.7959 20.8074 97.9579 20.008 98.3444 19.311C98.6189 19.0841 98.9375 18.9169 99.2802 18.82C99.6228 18.7231 99.9818 18.6986 100.334 18.748C102.346 18.748 103.767 19.2286 104.596 20.19C105.49 21.3485 105.932 22.7925 105.84 24.253C105.853 25.1956 105.701 26.1333 105.392 27.024C105.083 27.867 104.483 28.5724 103.701 29.014C102.588 29.5732 101.347 29.8294 100.102 29.757Z" fill="white"/>
<path d="M1.597 56.911V58.302C1.58867 58.4464 1.60977 58.591 1.659 58.727C1.67976 58.7707 1.70987 58.8093 1.74719 58.84C1.78452 58.8708 1.82815 58.893 1.875 58.905C2.03887 58.944 2.20656 58.9648 2.375 58.967V59.121C2.10833 59.1057 1.72967 59.098 1.239 59.098C0.796333 59.098 0.466667 59.1057 0.25 59.121V58.967C0.387161 58.9645 0.523369 58.9436 0.655 58.905C0.695841 58.8909 0.732831 58.8675 0.763035 58.8366C0.793239 58.8057 0.815825 58.7681 0.829 58.727C0.865662 58.5885 0.880839 58.4451 0.874 58.302V54.47C0.880839 54.3269 0.865662 54.1835 0.829 54.045C0.815825 54.0038 0.793239 53.9663 0.763035 53.9354C0.732831 53.9045 0.695841 53.8811 0.655 53.867C0.525072 53.8281 0.390572 53.8066 0.255 53.803V53.65C0.471 53.6653 0.785 53.673 1.197 53.673H2.031C2.129 53.6677 2.23967 53.665 2.363 53.665C2.85875 53.6311 3.35002 53.7778 3.746 54.078C3.90387 54.2147 4.02891 54.3852 4.11183 54.5768C4.19476 54.7685 4.23344 54.9763 4.225 55.185C4.22493 55.4676 4.15992 55.7465 4.035 56C3.89201 56.277 3.66855 56.5043 3.394 56.652C3.02391 56.8432 2.61012 56.9338 2.194 56.915L1.597 56.911ZM2.167 53.804C2.04492 53.7978 1.92285 53.8161 1.808 53.858C1.7681 53.8764 1.73262 53.9031 1.70398 53.9364C1.67533 53.9697 1.6542 54.0088 1.642 54.051C1.60624 54.187 1.59107 54.3275 1.597 54.468V56.758H2.114C2.30799 56.7806 2.50458 56.7556 2.68669 56.685C2.86879 56.6144 3.03092 56.5004 3.159 56.353C3.36659 56.0305 3.46767 55.651 3.448 55.268C3.47761 54.8777 3.37164 54.4892 3.148 54.168C3.02169 54.0381 2.868 53.938 2.69812 53.8751C2.52824 53.8121 2.34645 53.7878 2.166 53.804H2.167ZM13.992 58.733C13.8994 58.8809 13.7788 59.0093 13.637 59.111C13.4946 59.1945 13.3309 59.2348 13.166 59.227C12.9751 59.2342 12.7886 59.168 12.645 59.042C12.4801 58.8614 12.3738 58.6352 12.34 58.393L12.17 57.621C12.1248 57.4116 12.0667 57.2052 11.996 57.003C11.9478 56.8672 11.8639 56.747 11.753 56.655C11.6212 56.5605 11.4609 56.5143 11.299 56.524H10.563V58.301C10.5562 58.4441 10.5713 58.5875 10.608 58.726C10.6212 58.7671 10.6438 58.8047 10.674 58.8356C10.7042 58.8665 10.7412 58.8899 10.782 58.904C10.9136 58.9426 11.0498 58.9635 11.187 58.966V59.12C10.9503 59.1047 10.6233 59.097 10.206 59.097C9.76333 59.097 9.43367 59.1047 9.217 59.12V58.966C9.35416 58.9635 9.49037 58.9426 9.622 58.904C9.66284 58.8899 9.69983 58.8665 9.73004 58.8356C9.76024 58.8047 9.78282 58.7671 9.796 58.726C9.83266 58.5875 9.84784 58.4441 9.841 58.301V54.47C9.84784 54.3269 9.83266 54.1835 9.796 54.045C9.78282 54.0038 9.76024 53.9663 9.73004 53.9354C9.69983 53.9045 9.66284 53.8811 9.622 53.867C9.49037 53.8284 9.35416 53.8075 9.217 53.805V53.652C9.433 53.6673 9.747 53.675 10.159 53.675L10.995 53.668C11.093 53.6627 11.2037 53.66 11.327 53.66C11.8155 53.6287 12.3006 53.7606 12.706 54.035C12.8586 54.1459 12.9822 54.2919 13.0663 54.4608C13.1504 54.6297 13.1925 54.8164 13.189 55.005C13.1866 55.2147 13.1378 55.4214 13.046 55.61C12.9358 55.8306 12.7709 56.0193 12.567 56.158C12.3046 56.3349 12.0041 56.4473 11.69 56.486L11.781 56.501C12.0532 56.5283 12.3111 56.6358 12.522 56.81C12.7016 57.0092 12.8196 57.2562 12.862 57.521L13.055 58.309C13.0841 58.4808 13.1387 58.6473 13.217 58.803C13.2392 58.8452 13.2726 58.8805 13.3135 58.905C13.3544 58.9295 13.4013 58.9423 13.449 58.942C13.5282 58.9445 13.6058 58.9198 13.669 58.872C13.7447 58.8059 13.8119 58.7306 13.869 58.648L13.992 58.733ZM11.134 53.804C11.0118 53.7984 10.8897 53.8175 10.775 53.86C10.7351 53.8784 10.6996 53.9051 10.671 53.9384C10.6423 53.9717 10.6212 54.0108 10.609 54.053C10.5732 54.189 10.5581 54.3295 10.564 54.47V56.37H11.081C11.2702 56.3922 11.4619 56.3734 11.6431 56.3147C11.8244 56.256 11.9908 56.1589 12.131 56.03C12.3345 55.7597 12.4348 55.4257 12.414 55.088C12.4395 54.7421 12.3322 54.3995 12.114 54.13C11.9821 54.0109 11.8268 53.9204 11.6582 53.8643C11.4895 53.8082 11.311 53.7876 11.134 53.804ZM20.642 53.804C20.5048 53.8065 20.3686 53.8274 20.237 53.866C20.1962 53.8801 20.1592 53.9035 20.129 53.9344C20.0988 53.9653 20.0762 54.0028 20.063 54.044C20.0263 54.1825 20.0112 54.3259 20.018 54.469V58.303C20.0112 58.4461 20.0263 58.5895 20.063 58.728C20.0762 58.7691 20.0988 58.8067 20.129 58.8376C20.1592 58.8685 20.1962 58.8919 20.237 58.906C20.3686 58.9446 20.5048 58.9655 20.642 58.968V59.122C20.4053 59.1067 20.0783 59.099 19.661 59.099C19.2183 59.099 18.8887 59.1067 18.672 59.122V58.968C18.8092 58.9655 18.9454 58.9446 19.077 58.906C19.1178 58.8919 19.1548 58.8685 19.185 58.8376C19.2152 58.8067 19.2378 58.7691 19.251 58.728C19.2877 58.5895 19.3028 58.4461 19.296 58.303V54.47C19.3028 54.3269 19.2877 54.1835 19.251 54.045C19.2378 54.0038 19.2152 53.9663 19.185 53.9354C19.1548 53.9045 19.1178 53.8811 19.077 53.867C18.9454 53.8284 18.8092 53.8075 18.672 53.805V53.652C18.888 53.6673 19.2177 53.675 19.661 53.675C20.073 53.675 20.4 53.6673 20.642 53.652V53.804ZM29.756 53.673C29.988 53.673 30.181 53.6653 30.335 53.65V53.804C30.0777 53.8647 29.8743 54.0887 29.725 54.476L27.908 59.156H27.784L25.904 54.301C25.7787 53.9817 25.6003 53.815 25.369 53.801V53.65C25.575 53.6653 25.8503 53.673 26.195 53.673C26.6377 53.673 26.9673 53.6653 27.184 53.65V53.804C27.0405 53.8043 26.8982 53.8289 26.763 53.877C26.7224 53.8947 26.6884 53.9247 26.6656 53.9627C26.6428 54.0007 26.6325 54.0448 26.636 54.089C26.6446 54.2144 26.6754 54.3373 26.727 54.452L28.127 58.167L29.384 54.901C29.4692 54.6997 29.5212 54.4859 29.538 54.268C29.5435 54.2005 29.531 54.1328 29.5018 54.0716C29.4727 54.0105 29.4279 53.9582 29.372 53.92C29.2185 53.8378 29.046 53.7977 28.872 53.804V53.65C29.1653 53.6667 29.4613 53.675 29.76 53.675L29.756 53.673ZM38.616 58.473C38.7393 58.7923 38.917 58.957 39.149 58.967V59.123C38.943 59.1077 38.6677 59.1 38.323 59.1C37.8803 59.1 37.5507 59.1077 37.334 59.123V58.969C37.4775 58.9687 37.6198 58.944 37.755 58.896C37.7959 58.8783 37.8303 58.8483 37.8533 58.8101C37.8762 58.7719 37.8866 58.7274 37.883 58.683C37.8744 58.5576 37.8436 58.4346 37.792 58.32L37.321 57.053H35.448L35.13 57.871C35.0448 58.0723 34.9928 58.2861 34.976 58.504C34.9705 58.5715 34.983 58.6392 35.0122 58.7003C35.0413 58.7615 35.0861 58.8138 35.142 58.852C35.2972 58.9353 35.472 58.9753 35.648 58.968V59.124C35.3547 59.1087 35.0587 59.101 34.76 59.101C34.528 59.101 34.335 59.1087 34.181 59.124V58.97C34.4383 58.9093 34.6417 58.6853 34.791 58.298L36.608 53.618H36.732L38.616 58.473ZM37.256 56.897L36.393 54.588L35.514 56.894L37.256 56.897ZM47.737 53.65C47.701 54.0153 47.683 54.345 47.683 54.639C47.683 54.8963 47.6907 55.1073 47.706 55.272H47.531C47.5078 54.9728 47.4562 54.6764 47.377 54.387C47.3272 54.2092 47.2112 54.0572 47.053 53.962C46.8313 53.8574 46.5867 53.8107 46.342 53.826H45.924V58.221C45.9157 58.3805 45.9368 58.5401 45.986 58.692C46.0053 58.739 46.0346 58.7813 46.0719 58.8159C46.1092 58.8504 46.1536 58.8764 46.202 58.892C46.3649 58.9372 46.533 58.9607 46.702 58.962V59.12C46.4353 59.1047 46.0567 59.097 45.566 59.097C45.0513 59.097 44.6703 59.1047 44.423 59.12V58.966C44.592 58.9647 44.7601 58.9412 44.923 58.896C44.9714 58.8804 45.0158 58.8544 45.0531 58.8199C45.0904 58.7853 45.1197 58.743 45.139 58.696C45.1883 58.5441 45.2093 58.3845 45.201 58.225V53.833H44.784C44.5393 53.8177 44.2947 53.8644 44.073 53.969C43.9148 54.0642 43.7989 54.2162 43.749 54.394C43.6698 54.6834 43.6182 54.9798 43.595 55.279H43.414C43.4293 55.1143 43.437 54.9033 43.437 54.646C43.437 54.3527 43.419 54.023 43.383 53.657C43.8103 53.6723 44.5363 53.68 45.561 53.68C46.5857 53.68 47.3093 53.6717 47.732 53.655L47.737 53.65ZM56.688 58.13C56.688 58.4233 56.706 58.753 56.742 59.119C56.392 59.1037 55.8023 59.096 54.973 59.096C53.9843 59.096 53.2377 59.1037 52.733 59.119V58.965C52.8705 58.9626 53.007 58.9417 53.139 58.903C53.1798 58.8889 53.2168 58.8655 53.247 58.8346C53.2772 58.8037 53.2998 58.7661 53.313 58.725C53.3497 58.5865 53.3648 58.4431 53.358 58.3V54.47C53.3648 54.3269 53.3497 54.1835 53.313 54.045C53.2998 54.0038 53.2772 53.9663 53.247 53.9354C53.2168 53.9045 53.1798 53.8811 53.139 53.867C53.007 53.8283 52.8705 53.8074 52.733 53.805V53.652C53.2377 53.6673 53.9843 53.675 54.973 53.675C55.7303 53.675 56.2683 53.6673 56.587 53.652C56.5531 53.9545 56.5351 54.2586 56.533 54.563C56.5308 54.723 56.5385 54.8829 56.556 55.042H56.378C56.358 54.7891 56.3115 54.5391 56.239 54.296C56.1919 54.1458 56.0898 54.0189 55.953 53.941C55.7618 53.8547 55.5524 53.8162 55.343 53.829H54.702C54.5656 53.8235 54.4292 53.838 54.297 53.872C54.2561 53.8848 54.219 53.9074 54.1887 53.9377C54.1584 53.968 54.1358 54.0051 54.123 54.046C54.0863 54.1845 54.0712 54.3279 54.078 54.471V56.293H54.588C54.7243 56.3044 54.8603 56.2677 54.9725 56.1894C55.0846 56.111 55.1658 55.9959 55.202 55.864C55.2406 55.721 55.2677 55.5753 55.283 55.428L55.306 55.274H55.484C55.4687 55.49 55.461 55.7323 55.461 56.001V56.372C55.461 56.6347 55.476 57.0013 55.506 57.472H55.328C55.3227 57.436 55.3077 57.3113 55.283 57.098C55.2723 56.9168 55.1971 56.7455 55.071 56.615C54.9373 56.5008 54.7646 56.4427 54.589 56.453H54.079V58.307C54.0722 58.4501 54.0873 58.5935 54.124 58.732C54.1368 58.7729 54.1594 58.81 54.1897 58.8403C54.22 58.8706 54.2571 58.8931 54.298 58.906C54.4302 58.94 54.5666 58.9545 54.703 58.949H55.267C55.5168 58.9623 55.7664 58.9189 55.997 58.822C56.1657 58.7357 56.2965 58.59 56.364 58.413C56.4584 58.1454 56.5156 57.8661 56.534 57.583H56.714C56.697 57.7671 56.6896 57.9521 56.692 58.137L56.688 58.13ZM74.105 53.673C74.337 53.673 74.53 53.6653 74.684 53.65V53.804C74.5304 53.8491 74.3922 53.9357 74.2846 54.0543C74.1769 54.1728 74.1041 54.3187 74.074 54.476L72.614 59.156H72.49L71.148 55.181L69.921 59.159H69.797L68.157 54.301C68.049 53.9817 67.8713 53.817 67.624 53.807V53.652C67.836 53.6673 68.1113 53.675 68.45 53.675C68.8207 53.675 69.0987 53.6673 69.284 53.652V53.805C69.1814 53.8052 69.0805 53.8317 68.991 53.882C68.962 53.9047 68.9391 53.9341 68.9242 53.9678C68.9094 54.0015 68.9031 54.0383 68.906 54.075C68.916 54.2044 68.9446 54.3317 68.991 54.453L70.119 57.898L71.061 54.909L70.852 54.299C70.7493 53.9797 70.598 53.815 70.398 53.805V53.65C70.5833 53.6653 70.833 53.673 71.147 53.673C71.5897 53.673 71.9193 53.6653 72.136 53.65V53.804C71.9971 53.8044 71.859 53.8267 71.727 53.87C71.6879 53.8887 71.6557 53.9193 71.6349 53.9573C71.614 53.9953 71.6057 54.039 71.611 54.082C71.6176 54.2089 71.6436 54.334 71.688 54.453L72.8 57.89L73.75 54.901C73.823 54.6999 73.8648 54.4888 73.874 54.275C73.8812 54.207 73.8708 54.1383 73.8438 54.0754C73.8168 54.0126 73.7742 53.9577 73.72 53.916C73.5665 53.8342 73.3937 53.7955 73.22 53.804V53.649C73.5127 53.6657 73.8083 53.674 74.107 53.674L74.105 53.673ZM83.396 58.133C83.396 58.4263 83.414 58.756 83.45 59.122C83.1 59.1067 82.5103 59.099 81.681 59.099C80.6923 59.099 79.9457 59.1067 79.441 59.122V58.968C79.5785 58.9656 79.715 58.9447 79.847 58.906C79.8878 58.8919 79.9248 58.8685 79.955 58.8376C79.9852 58.8067 80.0078 58.7691 80.021 58.728C80.0577 58.5895 80.0728 58.4461 80.066 58.303V54.47C80.0728 54.3269 80.0577 54.1835 80.021 54.045C80.0078 54.0038 79.9852 53.9663 79.955 53.9354C79.9248 53.9045 79.8878 53.8811 79.847 53.867C79.715 53.8283 79.5785 53.8074 79.441 53.805V53.652C79.9457 53.6673 80.6923 53.675 81.681 53.675C82.4383 53.675 82.9763 53.6673 83.295 53.652C83.2611 53.9545 83.2431 54.2586 83.241 54.563C83.2388 54.723 83.2465 54.8829 83.264 55.042H83.086C83.0661 54.7891 83.0195 54.5391 82.947 54.296C82.8999 54.1458 82.7978 54.0189 82.661 53.941C82.4698 53.8547 82.2604 53.8162 82.051 53.829H81.414C81.2773 53.8234 81.1405 53.8379 81.008 53.872C80.9671 53.8848 80.93 53.9074 80.8997 53.9377C80.8694 53.968 80.8468 54.0051 80.834 54.046C80.7973 54.1845 80.7822 54.3279 80.789 54.471V56.293H81.299C81.4354 56.3046 81.5715 56.268 81.6837 56.1896C81.7958 56.1113 81.877 55.996 81.913 55.864C81.9516 55.721 81.9787 55.5753 81.994 55.428L82.014 55.273H82.192C82.1767 55.489 82.169 55.7313 82.169 56V56.371C82.169 56.6337 82.184 57.0003 82.214 57.471H82.036C82.0307 57.435 82.0157 57.3103 81.991 57.097C81.9803 56.9158 81.9051 56.7445 81.779 56.614C81.645 56.4996 81.4719 56.4416 81.296 56.452H80.788V58.306C80.7812 58.4491 80.7963 58.5925 80.833 58.731C80.8458 58.7719 80.8684 58.809 80.8987 58.8393C80.929 58.8696 80.9661 58.8921 81.007 58.905C81.1401 58.9375 81.2772 58.9503 81.414 58.943H81.978C82.2278 58.9563 82.4774 58.9129 82.708 58.816C82.8767 58.7297 83.0075 58.584 83.075 58.407C83.1689 58.1387 83.2254 57.8587 83.243 57.575H83.421C83.4039 57.7598 83.3965 57.9454 83.399 58.131L83.396 58.133ZM92.649 58.473C92.7723 58.7923 92.95 58.957 93.182 58.967V59.123C92.976 59.1077 92.7007 59.1 92.356 59.1C91.9133 59.1 91.5837 59.1077 91.367 59.123V58.969C91.5105 58.9687 91.6528 58.944 91.788 58.896C91.8289 58.8783 91.8633 58.8483 91.8863 58.8101C91.9092 58.7719 91.9196 58.7274 91.916 58.683C91.9074 58.5576 91.8766 58.4346 91.825 58.32L91.354 57.05H89.484L89.166 57.868C89.0808 58.0693 89.0288 58.2831 89.012 58.501C89.0065 58.5685 89.019 58.6362 89.0482 58.6973C89.0773 58.7585 89.1221 58.8108 89.178 58.849C89.3332 58.9323 89.508 58.9723 89.684 58.965V59.121C89.3907 59.1057 89.0947 59.098 88.796 59.098C88.564 59.098 88.371 59.1057 88.217 59.121V58.967C88.4743 58.9063 88.6777 58.6823 88.827 58.295L90.642 53.615H90.766L92.649 58.473ZM91.291 56.894L90.428 54.585L89.546 56.894H91.291ZM99.725 53.804C99.5875 53.8064 99.451 53.8273 99.319 53.866C99.2782 53.8801 99.2412 53.9035 99.211 53.9344C99.1808 53.9653 99.1582 54.0028 99.145 54.044C99.1083 54.1825 99.0932 54.3259 99.1 54.469V58.303C99.0932 58.4461 99.1083 58.5895 99.145 58.728C99.1579 58.7689 99.1804 58.806 99.2107 58.8363C99.241 58.8666 99.2781 58.8891 99.319 58.902C99.4515 58.9361 99.5883 58.9506 99.725 58.945H100.289C100.54 58.9585 100.79 58.9119 101.019 58.809C101.191 58.7134 101.322 58.5578 101.386 58.372C101.48 58.0895 101.537 57.7961 101.556 57.499H101.734C101.719 57.6583 101.711 57.8693 101.711 58.132C101.711 58.4253 101.729 58.755 101.765 59.121C101.415 59.1057 100.825 59.098 99.996 59.098C99.0073 59.098 98.2607 59.1057 97.756 59.121V58.967C97.8935 58.9646 98.03 58.9437 98.162 58.905C98.2028 58.8909 98.2398 58.8675 98.27 58.8366C98.3002 58.8057 98.3228 58.7681 98.336 58.727C98.3727 58.5885 98.3878 58.4451 98.381 58.302V54.47C98.3878 54.3269 98.3727 54.1835 98.336 54.045C98.3228 54.0038 98.3002 53.9663 98.27 53.9354C98.2398 53.9045 98.2028 53.8811 98.162 53.867C98.0301 53.8283 97.8935 53.8074 97.756 53.805V53.652C97.972 53.6673 98.3017 53.675 98.745 53.675C99.157 53.675 99.484 53.6673 99.726 53.652L99.725 53.804ZM110.453 53.65C110.417 54.0153 110.399 54.345 110.399 54.639C110.399 54.8963 110.407 55.1073 110.422 55.272H110.244C110.221 54.9728 110.169 54.6764 110.09 54.387C110.04 54.2092 109.924 54.0572 109.766 53.962C109.544 53.8574 109.3 53.8107 109.055 53.826H108.638V58.221C108.63 58.3805 108.651 58.5401 108.7 58.692C108.719 58.739 108.749 58.7813 108.786 58.8159C108.823 58.8504 108.868 58.8764 108.916 58.892C109.079 58.9372 109.247 58.9607 109.416 58.962V59.12C109.149 59.1047 108.771 59.097 108.28 59.097C107.765 59.097 107.384 59.1047 107.137 59.12V58.966C107.306 58.9647 107.474 58.9412 107.637 58.896C107.685 58.8804 107.73 58.8544 107.767 58.8199C107.804 58.7853 107.834 58.743 107.853 58.696C107.902 58.5441 107.923 58.3845 107.915 58.225V53.833H107.5C107.255 53.8177 107.011 53.8644 106.789 53.969C106.631 54.0642 106.515 54.2162 106.465 54.394C106.386 54.6834 106.334 54.9798 106.311 55.279H106.133C106.148 55.1143 106.156 54.9033 106.156 54.646C106.156 54.3527 106.138 54.023 106.102 53.657C106.529 53.6723 107.255 53.68 108.28 53.68C109.305 53.68 110.028 53.6717 110.45 53.655L110.453 53.65ZM120.653 53.804C120.516 53.8065 120.38 53.8274 120.248 53.866C120.207 53.8801 120.17 53.9035 120.14 53.9344C120.11 53.9653 120.087 54.0028 120.074 54.044C120.037 54.1825 120.022 54.3259 120.029 54.469V58.303C120.022 58.4461 120.037 58.5895 120.074 58.728C120.087 58.7691 120.11 58.8067 120.14 58.8376C120.17 58.8685 120.207 58.8919 120.248 58.906C120.38 58.9446 120.516 58.9655 120.653 58.968V59.122C120.437 59.1067 120.107 59.099 119.664 59.099C119.247 59.099 118.92 59.1067 118.683 59.122V58.968C118.82 58.9655 118.956 58.9446 119.088 58.906C119.129 58.8919 119.166 58.8685 119.196 58.8376C119.226 58.8067 119.249 58.7691 119.262 58.728C119.299 58.5895 119.314 58.4461 119.307 58.303V56.448H116.797V58.303C116.79 58.4461 116.805 58.5895 116.842 58.728C116.855 58.7691 116.878 58.8067 116.908 58.8376C116.938 58.8685 116.975 58.8919 117.016 58.906C117.148 58.9447 117.285 58.9656 117.422 58.968V59.122C117.185 59.1067 116.858 59.099 116.441 59.099C115.998 59.099 115.669 59.1067 115.452 59.122V58.968C115.59 58.9656 115.726 58.9447 115.858 58.906C115.899 58.8919 115.936 58.8685 115.966 58.8376C115.996 58.8067 116.019 58.7691 116.032 58.728C116.069 58.5895 116.084 58.4461 116.077 58.303V54.47C116.084 54.3269 116.069 54.1835 116.032 54.045C116.019 54.0038 115.996 53.9663 115.966 53.9354C115.936 53.9045 115.899 53.8811 115.858 53.867C115.726 53.8283 115.59 53.8074 115.452 53.805V53.652C115.668 53.6673 115.998 53.675 116.441 53.675C116.853 53.675 117.18 53.6673 117.422 53.652V53.805C117.285 53.8074 117.148 53.8283 117.016 53.867C116.975 53.8811 116.938 53.9045 116.908 53.9354C116.878 53.9663 116.855 54.0038 116.842 54.045C116.805 54.1835 116.79 54.3269 116.797 54.47V56.291H119.307V54.47C119.314 54.3269 119.299 54.1835 119.262 54.045C119.249 54.0038 119.226 53.9663 119.196 53.9354C119.166 53.9045 119.129 53.8811 119.088 53.867C118.958 53.8281 118.824 53.8066 118.688 53.803V53.65C118.925 53.6653 119.252 53.673 119.669 53.673C120.112 53.673 120.441 53.6653 120.658 53.65L120.653 53.804Z" fill="#001733" stroke="#001733" stroke-width="0.5"/>
</g>
<defs>
<clipPath id="clip0">
<rect width="120.901" height="59.479" fill="white"/>
</clipPath>
</defs>
</svg>
