<?xml version="1.0" encoding="utf-8"?><svg xmlns="http://www.w3.org/2000/svg" xmlns:xlink="http://www.w3.org/1999/xlink"><symbol viewBox="0 0 25 24" id="arrow" xmlns="http://www.w3.org/2000/svg"><path fill-rule="evenodd" clip-rule="evenodd" d="M12.72 6.97a.75.75 0 011.062 0l4.5 4.5a.753.753 0 010 1.062l-4.5 4.5a.75.75 0 11-1.062-1.062l3.97-3.969-3.97-3.969a.75.75 0 010-1.062z"/><path fill-rule="evenodd" clip-rule="evenodd" d="M6.5 12a.75.75 0 01.75-.75H17a.75.75 0 110 1.5H7.25A.75.75 0 016.5 12z"/></symbol><symbol viewBox="0 0 10 8" id="check" xmlns="http://www.w3.org/2000/svg"><path d="M3.398 7.824L.137 4.582A.476.476 0 010 4.23c0-.143.046-.26.137-.351l.722-.703a.435.435 0 01.342-.156c.137 0 .257.052.361.156L3.75 5.363 8.437.676A.496.496 0 018.8.52c.137 0 .25.052.342.156l.722.703A.476.476 0 0110 1.73c0 .144-.046.26-.137.352L4.102 7.824a.446.446 0 01-.352.156.446.446 0 01-.352-.156z"/></symbol><symbol viewBox="0 0 25 25" id="clock" xmlns="http://www.w3.org/2000/svg"><path d="M22.37 6.578c-.518.25-.735.874-.485 1.391a10.31 10.31 0 011.032 4.531c0 5.744-4.673 10.417-10.417 10.417S2.083 18.244 2.083 12.5 6.756 2.083 12.5 2.083c2.38 0 4.616.778 6.467 2.248A1.041 1.041 0 1020.263 2.7 12.52 12.52 0 0012.5 0C5.608 0 0 5.608 0 12.5S5.608 25 12.5 25 25 19.392 25 12.5c0-1.91-.417-3.74-1.24-5.438a1.04 1.04 0 00-1.39-.484z"/><path d="M12 7a1 1 0 00-1 1v7a1 1 0 001 1h5a1 1 0 000-2h-4V8a1 1 0 00-1-1z"/></symbol><symbol viewBox="0 0 25 24" id="close" xmlns="http://www.w3.org/2000/svg"><rect y="2.558" width="3.618" height="30.116" rx="1.809" transform="rotate(-45 0 2.558)"/><rect x="21.444" y=".188" width="3.618" height="30.057" rx="1.809" transform="rotate(45 21.444 .188)"/></symbol><symbol viewBox="0 0 25 25" id="date" xmlns="http://www.w3.org/2000/svg"><path d="M22.321 2.679h-2.678V.893a.893.893 0 00-1.786 0v1.786H7.143V.893a.893.893 0 10-1.786 0v1.786H2.68A2.678 2.678 0 000 5.357v16.964A2.68 2.68 0 002.679 25H22.32A2.68 2.68 0 0025 22.321V5.357c0-1.48-1.2-2.678-2.679-2.678zm.893 19.642c0 .494-.4.893-.893.893H2.68a.893.893 0 01-.893-.893V10.714h21.428v11.607zm0-13.392H1.786V5.357c0-.493.4-.893.893-.893h2.678V6.25a.893.893 0 101.786 0V4.464h10.714V6.25a.893.893 0 101.786 0V4.464h2.678c.494 0 .893.4.893.893V8.93z"/><path d="M18.466 12.761a.893.893 0 00-1.24 0l-6.512 6.512-2.94-2.94a.893.893 0 00-1.263 1.262l3.572 3.572a.893.893 0 001.262 0l7.143-7.143a.893.893 0 00-.022-1.263z"/></symbol><symbol viewBox="0 0 25 27" id="lamp" xmlns="http://www.w3.org/2000/svg"><g clip-path="url(#fclip0)"><path d="M14.063 27h-3.125c-.729 0-1.562-.675-1.562-2.025v-2.363c0-1.124-.521-2.137-1.355-2.924-1.875-1.575-2.812-3.825-2.812-6.3.104-4.275 3.333-7.65 7.188-7.763 1.979 0 3.854.787 5.208 2.25a8.339 8.339 0 012.187 5.625c0 2.363-.937 4.613-2.708 6.075-.938.788-1.458 2.025-1.458 3.15v2.587c0 .9-.73 1.688-1.563 1.688zM12.501 6.75c-3.334 0-6.146 3.037-6.25 6.637 0 2.138.833 4.163 2.395 5.4 1.146 1.013 1.771 2.363 1.771 3.826v2.362c0 .225 0 .9.521.9h3.125c.313 0 .521-.225.521-.563v-2.587c0-1.463.73-3.038 1.875-4.05 1.458-1.238 2.292-3.15 2.292-5.175 0-1.8-.625-3.488-1.875-4.838A5.912 5.912 0 0012.5 6.75z"/><path d="M15.104 23.625H9.896c-.313 0-.521-.225-.521-.563 0-.337.208-.562.52-.562h5.21c.312 0 .52.225.52.563 0 .337-.208.562-.52.562zM12.5 3.375c-.313 0-.521-.225-.521-.563V.563c0-.337.208-.562.52-.562.313 0 .521.225.521.563v2.25c0 .337-.208.562-.52.562zm6.98 3.15c-.105 0-.313 0-.418-.112a.574.574 0 010-.788l1.459-1.575a.478.478 0 01.729 0 .574.574 0 010 .788l-1.458 1.575s-.209.112-.313.112zm5 7.538h-2.084c-.313 0-.521-.226-.521-.563 0-.338.208-.563.52-.563h2.084c.313 0 .521.226.521.563 0 .338-.208.563-.52.563zm-3.542 9.112c-.105 0-.313 0-.417-.113l-1.459-1.575a.574.574 0 010-.787.478.478 0 01.73 0l1.458 1.575a.574.574 0 010 .788c0 .112-.104.112-.313.112zm-16.875 0c-.104 0-.312 0-.417-.113a.574.574 0 010-.787L5.105 20.7a.478.478 0 01.729 0 .574.574 0 010 .788l-1.458 1.575c-.105.112-.209.112-.313.112zm-1.459-9.112H.521c-.313 0-.521-.226-.521-.563 0-.338.208-.563.52-.563h2.084c.313 0 .521.226.521.563 0 .338-.208.563-.52.563zm2.917-7.538c-.104 0-.312 0-.416-.113L3.646 4.725a.574.574 0 010-.788.478.478 0 01.73 0l1.458 1.575a.574.574 0 010 .788c-.104.112-.208.225-.313.225zm11.145 7.538c-.313 0-.52-.226-.52-.563 0-2.137-1.668-3.938-3.647-3.938-.312 0-.52-.224-.52-.562 0-.338.208-.563.52-.563 2.604 0 4.688 2.25 4.688 5.063 0 .338-.209.563-.521.563z"/></g><defs><clipPath id="fclip0"><path d="M0 0h25v27H0z"/></clipPath></defs></symbol></svg>