<svg width="185" height="66" viewBox="0 0 185 66" fill="none" xmlns="http://www.w3.org/2000/svg">
<path d="M185 66L182.42 60.8348L179.237 65.6514L185 66ZM62.5001 43.5L62.5767 43.0059L62.5001 43.5ZM146.5 43.5L146.285 43.9515L146.5 43.5ZM1.5001 0.5C1.00289 0.447265 1.00288 0.447355 1.00287 0.447448C1.00287 0.447485 1.00285 0.447583 1.00285 0.447656C1.00283 0.447803 1.00281 0.447966 1.0028 0.448146C1.00276 0.448505 1.00271 0.448929 1.00266 0.449418C1.00256 0.450396 1.00244 0.451634 1.00229 0.453131C1.00199 0.456124 1.00159 0.460153 1.00111 0.465206C1.00015 0.475313 0.998862 0.48952 0.997343 0.507749C0.994305 0.544205 0.990349 0.596749 0.986291 0.664745C0.978173 0.800731 0.969642 0.998557 0.967225 1.25312C0.96239 1.76222 0.982003 2.49852 1.07836 3.42118L2.07295 3.31731C1.98084 2.4353 1.96268 1.73698 1.96718 1.26262C1.96943 1.02546 1.97735 0.844348 1.98451 0.72433C1.9881 0.664325 1.99149 0.6196 1.99389 0.590788C1.99509 0.576382 1.99604 0.565955 1.99665 0.559587C1.99695 0.556402 1.99716 0.554233 1.99728 0.553087C1.99734 0.552515 1.99737 0.552198 1.99737 0.552139C1.99738 0.55211 1.99737 0.552144 1.99736 0.552244C1.99736 0.552293 1.99735 0.552359 1.99734 0.552441C1.99734 0.552482 1.99733 0.552555 1.99733 0.552576C1.99732 0.552654 1.99731 0.552735 1.5001 0.5ZM2.35784 9.15335C2.9131 10.7961 3.68459 12.6003 4.75353 14.502L5.62526 14.012C4.58815 12.1669 3.84151 10.4198 3.30518 8.83313L2.35784 9.15335ZM8.02905 19.3431C9.16098 20.7609 10.4719 22.2002 11.9898 23.639L12.6777 22.9132C11.193 21.5059 9.91337 20.1006 8.81055 18.7192L8.02905 19.3431ZM16.4539 27.3892C17.9194 28.4853 19.5222 29.5694 21.275 30.6316L21.7932 29.7764C20.0673 28.7305 18.4915 27.6644 17.0528 26.5884L16.4539 27.3892ZM26.3715 33.4341C28.0233 34.2587 29.7817 35.063 31.6535 35.8414L32.0375 34.918C30.1861 34.1481 28.4487 33.3534 26.8181 32.5394L26.3715 33.4341ZM37.0929 37.9131C38.8412 38.5222 40.6736 39.1098 42.5942 39.6726L42.8754 38.713C40.9703 38.1547 39.1539 37.5722 37.4219 36.9688L37.0929 37.9131ZM48.1835 41.176C49.9961 41.6223 51.8781 42.0479 53.8321 42.4505L54.0339 41.4711C52.092 41.0709 50.2225 40.6482 48.4226 40.205L48.1835 41.176ZM59.5212 43.521C60.4731 43.6839 61.4405 43.8417 62.4235 43.9941L62.5767 43.0059C61.5988 42.8543 60.6366 42.6974 59.6899 42.5354L59.5212 43.521ZM62.4235 43.9941C63.3874 44.1435 64.3967 44.2602 65.4465 44.3477L65.5297 43.3512C64.4999 43.2653 63.5143 43.1513 62.5767 43.0059L62.4235 43.9941ZM71.5414 44.5596C73.4779 44.5502 75.5046 44.4807 77.6016 44.3666L77.5472 43.3681C75.4627 43.4815 73.453 43.5503 71.5365 43.5596L71.5414 44.5596ZM83.6492 43.9422C85.6215 43.7779 87.6364 43.5894 89.68 43.3872L89.5816 42.3921C87.5412 42.5939 85.5317 42.782 83.5662 42.9457L83.6492 43.9422ZM95.6988 42.7701C97.6929 42.5614 99.7008 42.3498 101.712 42.1444L101.61 41.1495C99.5975 41.3551 97.5878 41.5669 95.5947 41.7756L95.6988 42.7701ZM107.725 41.5579C109.744 41.373 111.753 41.2039 113.741 41.06L113.669 40.0626C111.673 40.2071 109.657 40.3768 107.634 40.5621L107.725 41.5579ZM119.761 40.7077C121.812 40.6201 123.825 40.5719 125.784 40.5741L125.786 39.5741C123.809 39.5719 121.782 39.6205 119.718 39.7086L119.761 40.7077ZM131.8 40.7636C133.881 40.9016 135.872 41.1199 137.753 41.4345L137.918 40.4482C135.999 40.1272 133.974 39.9056 131.866 39.7658L131.8 40.7636ZM143.547 42.8485C144.51 43.175 145.424 43.5416 146.285 43.9515L146.715 43.0485C145.815 42.6202 144.864 42.2392 143.868 41.9015L143.547 42.8485ZM146.285 43.9515C147.109 44.3434 147.942 44.7495 148.782 45.1674L149.227 44.2721C148.383 43.8518 147.544 43.4432 146.715 43.0485L146.285 43.9515ZM153.728 47.7192C155.36 48.5879 156.995 49.4837 158.615 50.391L159.104 49.5185C157.478 48.6082 155.837 47.709 154.199 46.8366L153.728 47.7192ZM163.453 53.1558C165.097 54.1134 166.702 55.0663 168.247 55.9965L168.763 55.1398C167.214 54.2073 165.604 53.252 163.956 52.2917L163.453 53.1558ZM173.003 58.9011C174.72 59.9651 176.309 60.9648 177.726 61.8664L178.262 61.0226C176.842 60.1191 175.25 59.1173 173.529 58.051L173.003 58.9011Z" fill="#19714B"/>
</svg>
