<svg width="176" height="52" viewBox="0 0 176 52" fill="none" xmlns="http://www.w3.org/2000/svg">
<path d="M176 52L175.071 46.3017L170.601 49.9553L176 52ZM53.5 29.5L53.4035 29.9906L53.5 29.5ZM137.5 18L137.306 18.4608L137.5 18ZM1 1C0.642497 1.34956 0.642517 1.34958 0.642541 1.3496C0.642553 1.34962 0.642579 1.34964 0.642602 1.34967C0.642649 1.34971 0.642708 1.34977 0.642778 1.34985C0.642918 1.34999 0.643104 1.35018 0.643337 1.35042C0.643803 1.35089 0.644453 1.35156 0.645289 1.35241C0.646961 1.35411 0.649372 1.35657 0.65252 1.35977C0.658817 1.36616 0.668062 1.37554 0.680234 1.38782C0.704579 1.41239 0.740633 1.44862 0.788228 1.49601C0.883418 1.5908 1.02477 1.73025 1.21095 1.91046C1.58328 2.27087 2.13491 2.79435 2.85501 3.44958L3.52802 2.70995C2.81597 2.06204 2.27184 1.54563 1.90646 1.19195C1.72377 1.01511 1.58577 0.878958 1.49383 0.787403C1.44785 0.741626 1.4134 0.706999 1.39062 0.684009C1.37923 0.672514 1.37076 0.663928 1.36524 0.658313C1.36247 0.655506 1.36044 0.653441 1.35915 0.652126C1.35851 0.651469 1.35805 0.650999 1.35777 0.650718C1.35764 0.650578 1.35755 0.650484 1.3575 0.650438C1.35748 0.650415 1.35747 0.650404 1.35747 0.650404C1.35747 0.650404 1.35748 0.650414 1.35748 0.650414C1.35749 0.650426 1.3575 0.650441 1 1ZM7.46277 7.39881C8.8737 8.54325 10.4862 9.7976 12.2838 11.1138L12.8746 10.307C11.0913 9.00123 9.49183 7.75703 8.09272 6.62218L7.46277 7.39881ZM17.2713 14.5832C18.8878 15.6502 20.6056 16.7297 22.4172 17.7998L22.9258 16.9388C21.1294 15.8777 19.4257 14.807 17.8222 13.7486L17.2713 14.5832ZM27.7331 20.756C29.4869 21.6712 31.3089 22.5631 33.1939 23.4163L33.6063 22.5053C31.7392 21.6602 29.934 20.7766 28.1957 19.8695L27.7331 20.756ZM38.8058 25.7586C40.6733 26.4723 42.5913 27.1396 44.5556 27.748L44.8515 26.7928C42.9088 26.191 41.0112 25.5309 39.1628 24.8245L38.8058 25.7586ZM50.4277 29.3481C51.4101 29.579 52.4022 29.7936 53.4035 29.9906L53.5965 29.0094C52.6075 28.8148 51.6273 28.6028 50.6565 28.3746L50.4277 29.3481ZM53.4035 29.9906C54.4162 30.1898 55.4581 30.3156 56.5266 30.3764L56.5834 29.378C55.5561 29.3196 54.56 29.1989 53.5965 29.0094L53.4035 29.9906ZM62.7804 30.0909C64.7565 29.8302 66.8009 29.4254 68.9017 28.9155L68.6658 27.9437C66.5907 28.4474 64.5823 28.8445 62.6496 29.0995L62.7804 30.0909ZM74.8761 27.2589C76.8036 26.6697 78.7696 26.026 80.7659 25.3537L80.4468 24.406C78.4552 25.0767 76.4989 25.7171 74.5837 26.3026L74.8761 27.2589ZM86.6147 23.353C88.5436 22.6899 90.4935 22.0229 92.4599 21.3723L92.1458 20.4229C90.1735 21.0754 88.219 21.7441 86.2896 22.4074L86.6147 23.353ZM98.3343 19.5113C100.303 18.9211 102.282 18.3673 104.264 17.8699L104.021 16.9C102.021 17.4017 100.028 17.9597 98.0471 18.5535L98.3343 19.5113ZM110.266 16.5585C112.294 16.1874 114.32 15.8962 116.337 15.7062L116.244 14.7106C114.193 14.9037 112.139 15.1992 110.086 15.5748L110.266 16.5585ZM122.449 15.4617C124.492 15.4993 126.52 15.6652 128.527 15.9818L128.683 14.994C126.626 14.6696 124.552 14.5002 122.467 14.4619L122.449 15.4617ZM134.451 17.3967C135.409 17.7091 136.361 18.0629 137.306 18.4608L137.694 17.5392C136.723 17.1303 135.745 16.7668 134.761 16.446L134.451 17.3967ZM137.306 18.4608C138.256 18.8608 139.218 19.3184 140.187 19.8264L140.651 18.9407C139.66 18.4211 138.673 17.9513 137.694 17.5392L137.306 18.4608ZM145.672 23.1545C147.402 24.3355 149.129 25.6289 150.832 26.994L151.458 26.2137C149.738 24.8353 147.99 23.5263 146.235 22.3286L145.672 23.1545ZM155.742 31.1699C157.364 32.6252 158.939 34.1107 160.446 35.5861L161.146 34.8714C159.629 33.3872 158.044 31.8917 156.41 30.4256L155.742 31.1699ZM164.979 40.1879C166.578 41.8693 168.047 43.4748 169.351 44.9355L170.097 44.2697C168.787 42.802 167.311 41.1887 165.703 39.4987L164.979 40.1879Z" fill="#19714B"/>
</svg>
