<svg width="176" height="52" viewBox="0 0 176 52" fill="none" xmlns="http://www.w3.org/2000/svg">
<path d="M0 52L2.57964 46.8348L5.76297 51.6514L0 52ZM122.5 29.5L122.304 29.0401L122.5 29.5ZM38.5 29.5L38.7149 29.9515L38.5 29.5ZM175 1C175.264 1.42493 175.263 1.42494 175.263 1.42494C175.263 1.42495 175.263 1.42496 175.263 1.42497C175.263 1.42499 175.263 1.42501 175.263 1.42505C175.263 1.42513 175.263 1.42523 175.263 1.42538C175.262 1.42566 175.262 1.42609 175.261 1.42665C175.259 1.42777 175.256 1.42945 175.253 1.43166C175.245 1.43609 175.235 1.4427 175.221 1.45145C175.192 1.46894 175.15 1.49499 175.095 1.52931C174.983 1.59794 174.818 1.69965 174.603 1.83211C174.172 2.09702 173.538 2.48494 172.728 2.97727L172.209 2.12272C173.017 1.63126 173.649 1.24418 174.079 0.980043C174.294 0.847975 174.459 0.746645 174.569 0.678375C174.625 0.64424 174.667 0.61837 174.695 0.601056C174.709 0.592398 174.719 0.58588 174.726 0.581537C174.73 0.579365 174.732 0.577737 174.734 0.576658C174.735 0.576118 174.735 0.575716 174.736 0.575451C174.736 0.575318 174.736 0.57522 174.736 0.575156C174.736 0.575125 174.736 0.575101 174.736 0.575087C174.736 0.57508 174.736 0.575075 174.736 0.575071C174.736 0.575069 174.736 0.575069 175 1ZM167.592 6.0655C166.046 6.98593 164.311 8.01071 162.431 9.10917L161.927 8.24571C163.804 7.14877 165.537 6.1254 167.08 5.20625L167.592 6.0655ZM157.257 12.1025C155.584 13.0609 153.841 14.0493 152.051 15.0522L151.563 14.1798C153.35 13.1786 155.089 12.1917 156.76 11.2347L157.257 12.1025ZM146.813 17.951C145.074 18.9012 143.311 19.8511 141.542 20.7881L141.074 19.9044C142.839 18.9696 144.598 18.0217 146.334 17.0734L146.813 17.951ZM136.229 23.551C134.424 24.4711 132.631 25.3645 130.869 26.2174L130.433 25.3174C132.188 24.4678 133.975 23.5775 135.775 22.6601L136.229 23.551ZM125.435 28.759C124.505 29.1769 123.591 29.578 122.696 29.9599L122.304 29.0401C123.193 28.6609 124.101 28.2624 125.025 27.8469L125.435 28.759ZM122.696 29.9599C121.776 30.3526 120.802 30.6883 119.782 30.9728L119.513 30.0096C120.496 29.7355 121.428 29.4138 122.304 29.0401L122.696 29.9599ZM113.728 32.0576C111.791 32.2493 109.749 32.3311 107.625 32.3265L107.627 31.3265C109.725 31.3311 111.733 31.2502 113.63 31.0624L113.728 32.0576ZM101.528 32.11C99.5495 31.9834 97.5224 31.8068 95.4619 31.5959L95.5637 30.6011C97.6146 30.8111 99.6288 30.9864 101.592 31.1121L101.528 32.11ZM89.4241 30.9035C87.4311 30.655 85.4203 30.3888 83.405 30.1177L83.5383 29.1267C85.5525 29.3975 87.5596 29.6632 89.5479 29.9111L89.4241 30.9035ZM77.3945 29.3077C75.379 29.0392 73.3715 28.7785 71.3841 28.5384L71.504 27.5456C73.4972 27.7864 75.5091 28.0477 77.5265 28.3165L77.3945 29.3077ZM65.3678 27.8803C63.3145 27.684 61.2994 27.5257 59.3373 27.4206L59.3908 26.4221C61.3696 26.5281 63.3989 26.6875 65.463 26.8848L65.3678 27.8803ZM53.3017 27.2835C51.2035 27.3115 49.1985 27.43 47.3082 27.6612L47.1868 26.6686C49.1199 26.4322 51.1618 26.3119 53.2883 26.2836L53.3017 27.2835ZM41.4642 28.8787C40.4939 29.1855 39.5761 29.5416 38.7149 29.9515L38.2851 29.0485C39.1922 28.6168 40.1534 28.2443 41.1627 27.9252L41.4642 28.8787ZM38.7149 29.9515C37.8913 30.3434 37.0582 30.7495 36.2185 31.1674L35.773 30.2721C36.6176 29.8518 37.4559 29.4432 38.2851 29.0485L38.7149 29.9515ZM31.2716 33.7192C29.6405 34.5879 28.0051 35.4837 26.3847 36.391L25.8962 35.5185C27.5219 34.6082 29.1635 33.709 30.8016 32.8366L31.2716 33.7192ZM21.5475 39.1558C19.9036 40.1134 18.2979 41.0663 16.7527 41.9965L16.2369 41.1398C17.7859 40.2073 19.3957 39.252 21.0441 38.2917L21.5475 39.1558ZM11.9976 44.9011C10.28 45.9651 8.6916 46.9648 7.2744 47.8664L6.73764 47.0226C8.15787 46.1191 9.74968 45.1173 11.471 44.051L11.9976 44.9011Z" fill="#19714B"/>
</svg>
