<svg width="195" height="72" viewBox="0 0 195 72" fill="none" xmlns="http://www.w3.org/2000/svg">
<path d="M3.5 71.5L0.387939 66.637L6.15543 66.3734L3.5 71.5ZM141.5 29.5L141.304 29.0401L141.5 29.5ZM57.5 29.5L57.5788 29.0063L57.5 29.5ZM194 1C194.264 1.42493 194.263 1.42494 194.263 1.42494C194.263 1.42495 194.263 1.42496 194.263 1.42497C194.263 1.42499 194.263 1.42501 194.263 1.42505C194.263 1.42513 194.263 1.42523 194.263 1.42538C194.262 1.42566 194.262 1.42609 194.261 1.42665C194.259 1.42777 194.256 1.42945 194.253 1.43166C194.245 1.43609 194.235 1.4427 194.221 1.45145C194.192 1.46894 194.15 1.49499 194.095 1.52931C193.983 1.59794 193.818 1.69965 193.603 1.83211C193.172 2.09702 192.538 2.48494 191.728 2.97727L191.209 2.12272C192.017 1.63126 192.649 1.24418 193.079 0.980043C193.294 0.847975 193.459 0.746645 193.569 0.678375C193.625 0.64424 193.667 0.61837 193.695 0.601056C193.709 0.592398 193.719 0.58588 193.726 0.581537C193.73 0.579365 193.732 0.577737 193.734 0.576658C193.735 0.576118 193.735 0.575716 193.736 0.575451C193.736 0.575318 193.736 0.57522 193.736 0.575156C193.736 0.575125 193.736 0.575101 193.736 0.575087C193.736 0.57508 193.736 0.575075 193.736 0.575071C193.736 0.575069 193.736 0.575069 194 1ZM186.592 6.0655C185.046 6.98593 183.311 8.01071 181.431 9.10917L180.927 8.24571C182.804 7.14877 184.537 6.1254 186.08 5.20625L186.592 6.0655ZM176.257 12.1025C174.584 13.0609 172.841 14.0493 171.051 15.0522L170.563 14.1798C172.35 13.1786 174.089 12.1917 175.76 11.2347L176.257 12.1025ZM165.813 17.951C164.074 18.9012 162.311 19.8511 160.542 20.7881L160.074 19.9044C161.839 18.9696 163.598 18.0217 165.334 17.0734L165.813 17.951ZM155.229 23.551C153.424 24.4711 151.631 25.3645 149.869 26.2174L149.433 25.3174C151.188 24.4678 152.975 23.5775 154.775 22.6601L155.229 23.551ZM144.435 28.759C143.505 29.1769 142.591 29.578 141.696 29.9599L141.304 29.0401C142.193 28.6609 143.101 28.2624 144.025 27.8469L144.435 28.759ZM141.696 29.9599C140.79 30.3467 139.834 30.7045 138.835 31.035L138.521 30.0856C139.497 29.7629 140.426 29.4148 141.304 29.0401L141.696 29.9599ZM132.919 32.5889C131.011 32.982 129.002 33.3087 126.912 33.5757L126.785 32.5837C128.854 32.3195 130.838 31.9968 132.717 31.6095L132.919 32.5889ZM120.855 34.1736C118.876 34.3173 116.848 34.4189 114.783 34.4831L114.752 33.4836C116.804 33.4198 118.819 33.3189 120.782 33.1763L120.855 34.1736ZM108.714 34.5686C106.707 34.5651 104.68 34.5321 102.646 34.4735L102.675 33.4739C104.701 33.5323 106.719 33.5651 108.716 33.5686L108.714 34.5686ZM96.5841 34.2278C94.558 34.123 92.536 33.9968 90.5298 33.853L90.6013 32.8555C92.6013 32.9989 94.6167 33.1247 96.6358 33.2291L96.5841 34.2278ZM84.484 33.3649C82.4368 33.1818 80.42 32.9837 78.447 32.7751L78.5522 31.7806C80.5201 31.9887 82.5316 32.1863 84.5731 32.3689L84.484 33.3649ZM72.4209 32.0915C70.3408 31.8397 68.3325 31.5805 66.4147 31.3199L66.5494 30.329C68.4626 30.589 70.466 30.8476 72.541 31.0987L72.4209 32.0915ZM60.4022 30.4571C59.3655 30.3002 58.3704 30.1453 57.4212 29.9937L57.5788 29.0063C58.5254 29.1574 59.5178 29.3119 60.5518 29.4683L60.4022 30.4571ZM57.4212 29.9937C56.4302 29.8355 55.4576 29.6943 54.5029 29.5696L54.6324 28.5781C55.5967 28.704 56.5788 28.8466 57.5788 29.0063L57.4212 29.9937ZM48.7497 28.999C46.7423 28.8666 44.8248 28.8141 42.9932 28.835L42.9818 27.835C44.8405 27.8139 46.7837 27.8672 48.8155 28.0012L48.7497 28.999ZM37.2228 29.1654C35.2075 29.3804 33.3144 29.6948 31.5361 30.0968L31.3156 29.1215C33.1334 28.7104 35.0648 28.3899 37.1167 28.1711L37.2228 29.1654ZM26.0311 31.743C24.1532 32.4564 22.4344 33.2822 20.8611 34.1994L20.3574 33.3355C21.9791 32.3901 23.7477 31.5407 25.676 30.8081L26.0311 31.743ZM16.1973 37.5141C14.6996 38.8009 13.3813 40.1842 12.2212 41.6305L11.4412 41.0048C12.638 39.5127 13.9989 38.0845 15.5456 36.7556L16.1973 37.5141ZM9.04323 46.397C8.09517 48.1196 7.31624 49.8771 6.67735 51.6229L5.73827 51.2792C6.39278 49.4907 7.19217 47.6863 8.16714 45.9148L9.04323 46.397ZM5.06631 57.1548C4.61627 59.1747 4.32672 61.1008 4.14505 62.8485L3.15042 62.7451C3.33553 60.9643 3.63074 58.9997 4.09024 56.9374L5.06631 57.1548Z" fill="#19714B"/>
</svg>
