<?xml version="1.0" encoding="utf-8"?>
<!-- Generator: Adobe Illustrator 24.3.0, SVG Export Plug-In . SVG Version: 6.00 Build 0)  -->
<svg version="1.1" id="Layer_1" xmlns="http://www.w3.org/2000/svg" xmlns:xlink="http://www.w3.org/1999/xlink" x="0px" y="0px"
	 viewBox="0 0 1000 1000" style="enable-background:new 0 0 1000 1000;" xml:space="preserve">
<style type="text/css">
	.st0{fill-rule:evenodd;clip-rule:evenodd;fill:#FFB103;}
	.st1{fill:none;}
</style>
<circle class="st0" cx="500" cy="500" r="389.9"/>
<rect x="283.4" y="283.9" class="st1" width="432.9" height="432.9"/>
<g id="_x23_231e20ff">
	<path d="M376.5,268.9c3.5-7.9,12-12.8,20.6-12.1c66.6,0.1,133.3-0.1,199.9,0.1c12.4-0.3,20.1,11.7,21.2,22.8
		c18.2-0.2,36.5-0.1,54.7-0.1c8.3-0.2,16.7,3.9,21.4,10.8c15.4,21.1,31.2,42,46.6,63.1c4,5.4,5,12.4,4,18.9c-3,21.3-6,42.6-9.2,63.9
		c-1,11-10.1,20.5-21.1,21.7c-10.1,0.4-20.1-0.1-30.2,0.3c-5.7,15-21.8,26-38,22.6c-11.9-1.8-20.4-11.9-24.3-22.7
		c-45.9,0.1-91.7-0.1-137.6,0.1c-5,16.7-22.8,30.2-40.5,25.2c-12.3-2.6-20.5-13.7-23.6-25.4c-18.3-0.1-36.6,0.2-55-0.1
		c-8.5-0.2-15.5-7.2-18-15c-3.6-9.4,0.3-19.2,1.5-28.6c-28.7-0.1-57.4,0.1-86.1-0.1c-5.6,1-9.7-5.4-7.2-10.2c1.6-3.9,6.4-4,10-4
		c38.2,0.1,76.4-0.1,114.6,0.1c7.7-1.2,11.1,10.4,4.1,13.6c-6.9,1.1-13.9,0.4-20.8,0.4c-0.7,9.2-8.5,23.7,2.3,29.5
		c18.1,0.8,36.2,0,54.4,0.3c3.6-17.9,21-33.4,39.9-29.6c14.4,2.4,24.2,15.7,26,29.6c28-0.1,56.1,0.1,84.1-0.1
		c5.8,0.2,7.9-6.1,8.3-10.8c8.1-49.6,16.5-99.1,24.7-148.6c1.9-5.7-1-14.7-8.1-14c-65.9-0.1-131.9,0-197.8,0
		c-3.8-0.7-7.2,1.8-8.4,5.3c-1.8,6.7-2.8,13.6-4,20.5c13.1,0.2,26.2-0.6,39.3,0.4c6,3,4.9,14.1-2.7,13.4c-43.8,0.5-87.6,0-131.4,0.2
		c-3.5-0.4-8.6,0.9-10.8-2.8c-4-4.1,0.1-11.9,5.7-11.2c28.5-0.3,57.1,0.1,85.6-0.2C372.3,287.3,372.9,277.7,376.5,268.9
		 M615.9,293.9c-8.3,50.2-16.4,100.4-25.2,150.5c10,0,20.1,0,30.1-0.1c2.2-11.1,7.7-22.3,17.8-28.1c11.7-7.6,28.3-6.2,38.1,3.9
		c6.8,6.2,9.3,15.3,10.4,24.2c8.3-0.1,16.7,0.3,25-0.2c5.5-0.2,9.4-5.2,9.6-10.5c3.1-21.1,6.2-42.3,9.1-63.4c1-4-0.7-7.7-3.1-10.7
		c-14.7-19.5-29-39.3-43.6-58.9c-2.7-3.6-6.2-7.4-11.2-6.8C653.9,293.7,634.9,293.9,615.9,293.9 M646.5,431.6
		c-11.2,6.2-12,25,0.1,30.7c13.5,7.1,28.6-10.5,22.2-23.3C665.7,430.3,654.1,426.1,646.5,431.6 M446.5,434
		c-11.8,5.5-13.5,24.1-1.8,30.7c12.6,8,28.6-7.9,23.8-21C466.1,434.7,454.8,428.7,446.5,434z"/>
	<path d="M619,348.7c1.8-13.5,4.1-26.8,6.5-40.2c17.2,0.1,34.4-0.2,51.6,0.1c7.6,13.6,18.6,25.4,24.4,40
		C674,348.8,646.5,348.8,619,348.7z"/>
	<path d="M346.8,322.2c3.7-1.3,7.6-0.9,11.5-1c25.2,0.1,50.4,0,75.7,0c4.2-0.1,10.5,0.7,10.9,6.1c1.3,5-3.6,9.3-8.5,8.5
		c-26.9,0.2-53.8,0-80.6,0.1c-3.7-0.3-8.5,0.7-11-2.9C341.6,329.9,342.8,324,346.8,322.2z"/>
	<path d="M312.2,348.5c3.7-1.3,7.6-0.9,11.5-1c25.2,0.1,24.9,0,50.2,0c4.2-0.1,10.5,0.7,10.9,6.1c1.3,5-3.6,9.3-8.5,8.5
		c-26.9,0.2-28.2,0-55.1,0.1c-3.7-0.3-8.5,0.7-11-2.9C307,356.2,308.2,350.2,312.2,348.5z"/>
	<path d="M300.7,376.4c2.7-3.3,7.6-1.9,11.2-2.3c37.4,0.3,74.8-0.2,112.2,0.2c4.8-0.4,8.1,6.6,5.3,10.3c-1.6,4.3-6.7,3.2-10.2,3.5
		c-37.5-0.1-75,0.1-112.4-0.1C300.2,389.7,296.2,380.7,300.7,376.4z"/>
</g>
<g>
	<path d="M421.6,512.3v11.9H384v26.2h29.4v11.9H384v38.8h-14.6v-88.8H421.6z"/>
	<path d="M481.3,601.1l-20.4-35.5h-11.1v35.5h-14.6v-88.8h30.7c6.8,0,12.6,1.2,17.3,3.6c4.7,2.4,8.3,5.6,10.6,9.6
		c2.3,4,3.5,8.5,3.5,13.4c0,5.8-1.7,11-5,15.8c-3.4,4.7-8.5,7.9-15.5,9.6l22,36.8H481.3z M449.7,553.9h16.1c5.4,0,9.6-1.4,12.3-4.1
		c2.8-2.7,4.2-6.4,4.2-11s-1.4-8.2-4.1-10.8c-2.7-2.6-6.9-3.9-12.4-3.9h-16.1V553.9z"/>
	<path d="M530.5,524.1v26.1h30.7V562h-30.7v27.2H565v11.9h-49v-88.9h49v11.9H530.5z"/>
	<path d="M597.4,524.1v26.1h30.7V562h-30.7v27.2h34.5v11.9h-49v-88.9h49v11.9H597.4z"/>
	<path d="M270.3,629.9c7.1,3.7,12.5,9,16.4,15.8c3.9,6.8,5.8,14.6,5.8,23.4c0,8.8-1.9,16.6-5.8,23.4c-3.9,6.8-9.4,12.1-16.5,15.8
		c-7.1,3.7-15.4,5.6-24.7,5.6H212v-89.7h33.6C255,624.3,263.3,626.1,270.3,629.9z M263.4,688.2c4.6-4.5,6.9-10.9,6.9-19.2
		c0-8.3-2.3-14.7-6.9-19.3c-4.6-4.6-11-6.9-19.3-6.9h-10.3V695h10.3C252.4,695,258.8,692.8,263.4,688.2z"/>
	<path d="M326.7,641.8v18.1h29.3v16.9h-29.3v19.7h33.1v17.5h-54.9v-89.7h54.9v17.5H326.7z"/>
	<path d="M395.8,697.1h28.6v16.9h-50.5v-89.7h21.8V697.1z"/>
	<path d="M456.7,624.3v89.7h-21.8v-89.7H456.7z"/>
	<path d="M556.7,624.3l-31.8,89.7h-27.3l-31.8-89.7H489l22.2,67.7l22.4-67.7H556.7z"/>
	<path d="M587.6,641.8v18.1h29.3v16.9h-29.3v19.7h33.1v17.5h-54.9v-89.7h54.9v17.5H587.6z"/>
	<path d="M680.6,713.9L662,680.1h-5.2v33.8h-21.8v-89.7h36.7c7.1,0,13.1,1.2,18.1,3.7c5,2.5,8.7,5.9,11.2,10.2
		c2.5,4.3,3.7,9.1,3.7,14.4c0,6-1.7,11.3-5,16c-3.4,4.7-8.3,8-14.9,10l20.7,35.5H680.6z M656.7,664.6h13.5c4,0,7-1,9-2.9
		c2-2,3-4.7,3-8.3c0-3.4-1-6.1-3-8c-2-2-5-2.9-9-2.9h-13.5V664.6z"/>
	<path d="M795.1,624.3l-31,60v29.6h-21.8v-29.6l-31-60h24.8l17.4,37.6l17.2-37.6H795.1z"/>
</g>
</svg>
