<svg xmlns="http://www.w3.org/2000/svg" width="80" height="81" fill="none"><rect width="80" height="80" y=".106" fill="#fff" rx="40"/><path fill="#FFDDB8" d="M58.042 43.39 47.04 45.286l10.807-6.683a3.497 3.497 0 0 0 1.227-4.655 1.673 1.673 0 0 0-2.337-.624l-12.555 7.651 9.697-11.373a3.498 3.498 0 0 0-.189-4.74l-.156-.157a1.672 1.672 0 0 0-2.382.018L39.708 36.521l6.093-12.7a3.496 3.496 0 0 0-1.495-4.59l-.057-.031a1.671 1.671 0 0 0-2.22.602c-1.77 2.904-5.96 9.735-8.198 12.993-.005.008-.01.016-.017.024-1.167 1.683-3.699 1.557-4.708-.226l-2.299-4.059a5.164 5.164 0 0 0-5.465-2.527 1.637 1.637 0 0 0-1.233 2.198c.852 2.211 3.065 7.129 3.065 7.129.972 3.224.873 6.697-.4 9.81a11.74 11.74 0 0 0 19.165 12.749l5.57-5.568a3.014 3.014 0 0 1 1.14-.716l9.005-3.138a3.497 3.497 0 0 0 2.344-3.42v-.068a1.672 1.672 0 0 0-1.956-1.593Z"/><path fill="#F5CCA7" d="m53.88 29.602-5.21 6.106-7.017 4.28 9.694-11.374a3.497 3.497 0 0 0 .248-4.216 1.672 1.672 0 0 1 1.94.306l.156.157a3.496 3.496 0 0 1 .188 4.74v.001ZM57.846 38.603l-7.616 4.713-5.722.984 10.808-6.682a3.5 3.5 0 0 0 1.405-4.281l.018-.01a1.672 1.672 0 0 1 2.336.623 3.496 3.496 0 0 1-1.228 4.655l-.001-.002ZM45.801 23.821l-2.678 5.582-5.946 6.132 6.093-12.7a3.493 3.493 0 0 0-.436-3.713 1.673 1.673 0 0 1 1.416.083l.056.03a3.496 3.496 0 0 1 1.495 4.586ZM57.655 48.471 48.65 51.61c-.43.15-.82.394-1.14.716l-5.57 5.568a11.705 11.705 0 0 1-8.3 3.439 11.708 11.708 0 0 1-8.303-3.439 11.79 11.79 0 0 1-1.122-1.297 11.701 11.701 0 0 0 7.413 2.637 11.7 11.7 0 0 0 8.302-3.44l5.57-5.57c.321-.32.711-.565 1.14-.714l9.005-3.138a3.496 3.496 0 0 0 2.329-2.967l.068-.013a1.673 1.673 0 0 1 1.955 1.592v.068a3.496 3.496 0 0 1-2.344 3.42h.002Z"/><path fill="#E4B78C" d="m46.78 46.232-5.672-5.001 6.262 2.213a.993.993 0 0 0 1.305-.737l.008-.04a2.08 2.08 0 0 0-1.032-2.24l-1.348-.744-2.12 1.292L45.61 39.3l-3.284-1.814-1.5-2.115-1.118 1.152.781-1.629-1.108-1.564a6.956 6.956 0 0 0-4.074-2.755c-.544.837-1.046 1.596-1.476 2.222-.005.008-.01.016-.017.024-1.167 1.683-3.701 1.553-4.712-.23l-.187-.33a6.989 6.989 0 0 0-2.052 6.624c.435 1.954.144 4-.744 5.792 0 0-1.79 2.662-2.512 3.873a.976.976 0 0 0 .503 1.413 3.072 3.072 0 0 0 3.458-.935l1.753-2.15a1.659 1.659 0 0 1 2.785.337l.008.016c.983 2.136 2.76 6.56 3.504 8.441a.992.992 0 0 0 1.24.575l.036-.011a2.08 2.08 0 0 0 1.336-2.543l-2.3-8.057 5.528 8.064a.992.992 0 0 0 1.396.249l.107-.076a2.08 2.08 0 0 0 .586-2.761l-4.548-7.64 6.595 5.744a.99.99 0 0 0 1.433-.13 2.08 2.08 0 0 0-.248-2.854Z"/><path fill="#FBE4CF" d="M49.26 41.258 43 39.045l5.669 5.002a2.081 2.081 0 0 1 .253 2.852.99.99 0 0 1-1.433.13l-6.596-5.745 4.547 7.646a2.08 2.08 0 0 1-.585 2.761l-.108.075a.992.992 0 0 1-1.395-.247l-5.528-8.065 2.3 8.057a2.082 2.082 0 0 1-1.337 2.542l-.036.012a.992.992 0 0 1-1.24-.575c-.744-1.88-2.52-6.305-3.505-8.44L34 45.034a1.659 1.659 0 0 0-2.786-.337l-1.752 2.15a3.073 3.073 0 0 1-3.46.925.975.975 0 0 1-.503-1.405c.721-1.216 2.513-3.878 2.513-3.878.893-1.792 1.184-3.838.748-5.792a6.984 6.984 0 0 1 12.516-5.555l2.941 4.158 5.326 2.941a2.08 2.08 0 0 1 1.032 2.24l-.009.04a.993.993 0 0 1-1.305.737Z"/><path fill="#F2D0B0" d="m50.577 40.481-.009.04a.993.993 0 0 1-1.308.738l-.827-.292a2.08 2.08 0 0 0-1.075-1.737l-5.025-2.773a1.514 1.514 0 0 1-.496-.447l-2.747-3.88a6.974 6.974 0 0 0-7.441-2.728 6.945 6.945 0 0 1 3.919-1.208 6.976 6.976 0 0 1 5.705 2.948l2.943 4.16 5.325 2.94a2.082 2.082 0 0 1 1.033 2.24h.003Z"/><path fill="#FFEDDF" d="M35 41h-2.26A1.742 1.742 0 0 1 31 39.26v-4.52A1.74 1.74 0 0 1 32.74 33h4.52A1.742 1.742 0 0 1 39 34.74V37a2.069 2.069 0 0 1-.6 1.45L36.45 40.4c-.386.384-.907.6-1.451.601Z"/><path fill="#FFBC8C" d="M37.26 33H35v8a2.064 2.064 0 0 0 1.451-.601L38.4 38.45c.383-.386.6-.907.601-1.451v-2.26A1.742 1.742 0 0 0 37.26 33Z"/><path fill="#FFFCF9" d="m36.854 39.995 1.142-1.14V34.74a.736.736 0 0 0-.737-.736h-4.518a.736.736 0 0 0-.737.736v4.588h.003a.737.737 0 0 0 .734.667h4.113Z"/><path fill="#FFD8BA" d="M37.26 34.004H35v5.992h1.854l1.142-1.141V34.74a.736.736 0 0 0-.737-.736Z"/><path fill="#FFFCF9" d="M38.481 37.519H37.26a1.742 1.742 0 0 0-1.74 1.74v1.222A.519.519 0 0 1 35 41a2.064 2.064 0 0 0 1.451-.601L38.4 38.45c.383-.386.6-.907.601-1.451a.519.519 0 0 1-.519.519Z"/></svg>