<svg xmlns="http://www.w3.org/2000/svg" width="80" height="81" fill="none"><rect width="80" height="80" fill="#fff" rx="40" transform="matrix(-1 0 0 1 80 .106)"/><mask id="a" width="40" height="40" x="20" y="20" maskUnits="userSpaceOnUse" style="mask-type:luminance"><path fill="#fff" d="M60 20H20v40h40V20Z"/></mask><g mask="url(#a)"><path fill="#DEF4FF" d="M37.886 60H20.937a.937.937 0 0 1-.937-.937V30.856a.938.938 0 0 1 .938-.937h16.01a.938.938 0 0 1 .938.937V60Z"/><path fill="#C4ECFF" d="M36.26 29.919v20.35a.966.966 0 0 1-1.453.833l-4.39-2.567a4.065 4.065 0 0 0-4.102 7.02L33.928 60h3.957V30.885a.965.965 0 0 0-.966-.966h-.659Z"/><path fill="#FBA615" d="M22.44 39.707V33.14a.781.781 0 0 1 .783-.78h11.443a.781.781 0 0 1 .781.78v6.568a.781.781 0 0 1-.781.781H23.223a.781.781 0 0 1-.781-.78"/><path fill="#FFE02F" d="M22.44 44.503v-.879a.78.78 0 0 1 .783-.778h11.443a.781.781 0 0 1 .781.78v.88a.78.78 0 0 1-.781.78H23.223a.781.781 0 0 1-.781-.78"/><path fill="#8DB9C2" d="M33.697 26.667h-9.508a.938.938 0 0 0-.937.938v2.314h11.382v-2.314a.937.937 0 0 0-.937-.938Z"/><path fill="#7BA0B0" d="M32.52 26.667v3.252h2.114v-2.285a.967.967 0 0 0-.966-.966l-1.148-.001Z"/><path fill="#DEF4FF" d="M30.57 22.44h-3.253v4.227h3.252v-4.228Z"/><path fill="#C3ECFF" d="M27.317 24.39h3.252v-1.95h-3.252v1.95Z"/><path fill="#FFDDB8" d="M57.014 50.244a.8.8 0 0 1-.64-.317c-.524-.695-2.076-2.285-5.317-2.285-3.303 0-5.059 1.65-5.636 2.322a.8.8 0 0 1-.609.28h-4.436c-1.329 0-2.452 1.041-2.49 2.37a2.44 2.44 0 0 0 2.439 2.507h-1.863l-8.866-5.18a2.438 2.438 0 1 0-2.461 4.21l9.793 5.72a.968.968 0 0 0 .487.13h21.779a.805.805 0 0 0 .805-.804v-8.145a.805.805 0 0 0-.805-.805l-2.18-.003Z"/><path fill="#F5CCA7" d="M59.195 50.243h-1.44C56.91 52.845 52.845 59.105 40 60h19.195a.805.805 0 0 0 .805-.806V51.05a.805.805 0 0 0-.805-.805"/><path fill="#F5CCA7" d="M49.817 55.758a.604.604 0 1 0 .854-.854l-.814-.812a.6.6 0 0 0-.426-.176H38.222a2.437 2.437 0 0 0 2.1 1.207h8.857l.638.635Z"/><path fill="#DEF4FF" d="m40.88 21.758-2.805-1.647a.805.805 0 0 0-.41-.111h-11.33a.644.644 0 0 0-.644.645v1.15a.645.645 0 0 0 .644.645h10.68c.14 0 .28.037.402.108l2.195 1.266a.805.805 0 0 0 1.066-.24l.458-.666a.806.806 0 0 0-.256-1.15Z"/><path fill="#FDCB82" d="M44.987 33.271a3.55 3.55 0 1 1-7.1 0c0-1.425 1.874-4.18 2.9-5.577a.805.805 0 0 1 1.298 0c1.025 1.398 2.902 4.152 2.902 5.577Z"/><path fill="#FCB143" d="M42.889 28.834c.079.452.118.91.117 1.37 0 3.075-1.747 5.566-3.902 5.566-.066 0-.131 0-.196-.007a3.55 3.55 0 0 0 6.078-2.491c0-1.1-1.116-2.988-2.097-4.438Z"/></g></svg>