<svg xmlns="http://www.w3.org/2000/svg" width="80" height="81" fill="none"><rect width="80" height="80" fill="#fff" rx="40" transform="matrix(-1 0 0 1 80 .106)"/><path fill="#FEE151" d="M48.474 53.536a15.873 15.873 0 0 1-8.331 2.438c-8.824.078-16.117-7.147-16.117-15.974a15.872 15.872 0 0 1 1.959-7.656l-3.741-1.552a19.908 19.908 0 0 0-2.242 8.95c-.138 10.952 8.633 20.03 19.584 20.256a19.915 19.915 0 0 0 11.038-3.046 2.015 2.015 0 0 0-2.147-3.412l-.003-.004Z"/><path fill="#FCCA12" d="M24.025 40a15.87 15.87 0 0 1 1.96-7.656l-3.741-1.552a19.907 19.907 0 0 0-2.242 8.95v.193a2.011 2.011 0 0 1 4.022.065h.001Z"/><path fill="#FEE151" d="m20.817 30.201 3.912-2.354a.96.96 0 0 1 1.428.591l1.101 4.432a.96.96 0 0 1-1.3 1.12l-5.013-2.079a.96.96 0 0 1-.128-1.71Z"/><path fill="#FBA615" d="M47.64 34.812a4.003 4.003 0 0 0-1.498-2.32 10.124 10.124 0 0 0-12.499.227 4.005 4.005 0 0 0-1.384 2.215 7.82 7.82 0 0 0-1.29 7.74h18.069a7.819 7.819 0 0 0-1.398-7.862Z"/><path fill="#E0910B" d="M32.256 34.934a7.82 7.82 0 0 0-1.29 7.74h5.718c.19-2.387.457-4.478.457-4.478-1.192-1.762-1.35-7.753 2.896-7.753-2.33 0-4.59.804-6.396 2.276a4.006 4.006 0 0 0-1.385 2.215Z"/><path fill="#FFDDB8" d="M31.99 44.751a2.05 2.05 0 1 0 0-4.1 2.05 2.05 0 0 0 0 4.1ZM48.01 44.751a2.05 2.05 0 1 0 0-4.1 2.05 2.05 0 0 0 0 4.1Z"/><path fill="#FFDDB8" d="M46.241 38.492a1.25 1.25 0 0 0-1.063-1.005 2.7 2.7 0 0 0-1.823.423c-.899.588-2.071.944-3.355.944-1.283 0-2.456-.356-3.354-.943a2.69 2.69 0 0 0-1.963-.401 1.25 1.25 0 0 0-.992.976v.006a3.607 3.607 0 0 1-.991 1.837c-.277.271-.442.637-.461 1.024-.006.12-.01.242-.012.364-.036 4.34 3.537 7.895 7.878 7.838a7.774 7.774 0 0 0 7.67-7.773c0-.114 0-.228-.008-.341a1.553 1.553 0 0 0-.49-1.07 3.594 3.594 0 0 1-1.035-1.88h-.001Z"/><path fill="#F5CCA7" d="M36.265 41.783a7.733 7.733 0 0 1 .876-3.587 5.275 5.275 0 0 1-.495-.285 2.69 2.69 0 0 0-1.963-.4 1.25 1.25 0 0 0-.992.975v.006a3.606 3.606 0 0 1-.991 1.838c-.277.27-.442.636-.461 1.023-.006.12-.01.241-.012.364-.036 4.341 3.537 7.895 7.878 7.838a7.744 7.744 0 0 0 1.916-.264 7.776 7.776 0 0 1-5.755-7.508Z"/><path fill="#4E5660" d="M35.625 43.709a.586.586 0 0 1-.585-.586v-.84a.586.586 0 1 1 1.171 0v.841a.586.586 0 0 1-.586.585ZM44.374 43.709a.586.586 0 0 1-.585-.586v-.84a.586.586 0 1 1 1.171 0v.841a.587.587 0 0 1-.586.585ZM40 45.209a2.117 2.117 0 0 1-1.595-.726.587.587 0 0 1 .883-.77.943.943 0 0 0 1.424 0 .588.588 0 0 1 .975.118.587.587 0 0 1-.093.652 2.11 2.11 0 0 1-1.594.726Z"/><path fill="#FFCD4C" d="M31.073 26.467a15.874 15.874 0 0 1 8.33-2.438c8.825-.078 16.118 7.147 16.118 15.974a15.873 15.873 0 0 1-1.959 7.656l3.741 1.552a19.907 19.907 0 0 0 2.242-8.95c.138-10.952-8.633-20.03-19.584-20.256a19.915 19.915 0 0 0-11.038 3.046 2.016 2.016 0 0 0 2.146 3.412l.004.004Z"/><path fill="#F9B400" d="M55.522 40.003a15.871 15.871 0 0 1-1.96 7.656l3.741 1.552a19.907 19.907 0 0 0 2.242-8.95v-.193a2.011 2.011 0 0 1-4.022-.065h-.002Z"/><path fill="#FFCD4C" d="m58.73 49.802-3.912 2.354a.96.96 0 0 1-1.428-.591l-1.101-4.432a.96.96 0 0 1 1.3-1.12l5.013 2.079a.96.96 0 0 1 .128 1.71Z"/></svg>