<svg xmlns="http://www.w3.org/2000/svg" width="80" height="80" fill="none"><rect width="80" height="80" fill="#fff" rx="40"/><path fill="#FCB143" d="M59.54 38.665a22.293 22.293 0 0 0-4.223-4.044 1.703 1.703 0 0 1-.684-1.655c.298-1.935.34-3.901.125-5.848a2.162 2.162 0 0 0-1.883-1.882 22.29 22.29 0 0 0-5.845.127 1.703 1.703 0 0 1-1.654-.684 22.266 22.266 0 0 0-4.044-4.22 2.163 2.163 0 0 0-2.666 0 22.293 22.293 0 0 0-4.044 4.223 1.702 1.702 0 0 1-1.656.68 22.288 22.288 0 0 0-5.848-.125 2.162 2.162 0 0 0-1.882 1.883 22.29 22.29 0 0 0 .127 5.846 1.703 1.703 0 0 1-.684 1.653 22.266 22.266 0 0 0-4.22 4.044 2.163 2.163 0 0 0 0 2.666 22.269 22.269 0 0 0 4.223 4.044 1.704 1.704 0 0 1 .68 1.657 22.288 22.288 0 0 0-.125 5.847 2.163 2.163 0 0 0 1.883 1.883c1.946.214 3.911.172 5.846-.127a1.703 1.703 0 0 1 1.653.684 22.293 22.293 0 0 0 4.044 4.223 2.163 2.163 0 0 0 2.666 0 22.245 22.245 0 0 0 4.044-4.223 1.703 1.703 0 0 1 1.657-.684c1.935.298 3.9.34 5.847.125a2.161 2.161 0 0 0 1.883-1.883 22.26 22.26 0 0 0-.127-5.845 1.703 1.703 0 0 1 .684-1.654c1.58-1.156 3-2.516 4.223-4.044a2.163 2.163 0 0 0 0-2.667Z"/><path fill="#FBA615" d="M54.888 49.965c-26.36 4.194-26.043-15.983-23.103-24.755a22.487 22.487 0 0 0-4.665.027 2.162 2.162 0 0 0-1.883 1.883 22.293 22.293 0 0 0 .126 5.846 1.703 1.703 0 0 1-.684 1.653 22.266 22.266 0 0 0-4.22 4.044 2.163 2.163 0 0 0 0 2.666 22.266 22.266 0 0 0 4.223 4.044 1.704 1.704 0 0 1 .68 1.657 22.288 22.288 0 0 0-.125 5.847 2.162 2.162 0 0 0 1.883 1.883c1.946.215 3.911.172 5.846-.127a1.702 1.702 0 0 1 1.653.684 22.293 22.293 0 0 0 4.044 4.223 2.163 2.163 0 0 0 2.666 0 22.269 22.269 0 0 0 4.044-4.223 1.703 1.703 0 0 1 1.657-.684c1.935.299 3.9.34 5.847.125a2.162 2.162 0 0 0 1.883-1.883c.11-.966.152-1.938.128-2.91Z"/><path fill="#FBF38F" d="M53.782 39.998a13.785 13.785 0 1 1-27.569 0 13.785 13.785 0 0 1 27.57 0Z"/><path fill="#EFE77C" d="M34.125 27.524a13.786 13.786 0 1 0 17.658 19.629C35.425 50.715 29.784 33.95 34.125 27.524Z"/><path fill="#F7EF87" d="M32.982 23.644a.586.586 0 0 1-.542-.362l-.654-1.578a.585.585 0 1 1 1.083-.449l.654 1.578a.587.587 0 0 1-.541.811ZM23.058 33.567a.585.585 0 0 1-.224-.045l-1.578-.653a.586.586 0 1 1 .449-1.083l1.577.654a.586.586 0 0 1-.224 1.127ZM21.48 48.254a.586.586 0 0 1-.224-1.127l1.578-.654a.586.586 0 1 1 .448 1.083l-1.577.653a.583.583 0 0 1-.224.045ZM32.328 59.102a.587.587 0 0 1-.542-.811l.654-1.578a.586.586 0 1 1 1.083.449l-.654 1.577a.586.586 0 0 1-.541.363ZM47.668 59.102a.587.587 0 0 1-.542-.363l-.653-1.577a.588.588 0 0 1 .767-.78.586.586 0 0 1 .315.331l.654 1.578a.587.587 0 0 1-.541.81ZM58.515 48.254a.583.583 0 0 1-.224-.045l-1.578-.654a.586.586 0 0 1 .449-1.082l1.578.654a.586.586 0 0 1-.225 1.127ZM56.938 33.568a.586.586 0 0 1-.225-1.128l1.578-.654a.586.586 0 1 1 .449 1.083l-1.578.653a.585.585 0 0 1-.224.046ZM47.014 23.645a.588.588 0 0 1-.54-.811l.652-1.578a.586.586 0 0 1 1.083.448l-.654 1.578a.585.585 0 0 1-.541.363Z"/><path fill="#FAC1AB" d="M34.788 38.769c0-1.34-1.363-2.426-3.047-2.426-1.684 0-3.047 1.086-3.047 2.426s1.364 2.422 3.047 2.422 3.047-1.082 3.047-2.422ZM51.3 38.769c0-1.34-1.364-2.426-3.047-2.426s-3.047 1.086-3.047 2.426 1.364 2.422 3.047 2.422 3.047-1.082 3.047-2.422Z"/><path fill="#4E5660" d="M34.967 36.716a.586.586 0 0 1-.586-.586.864.864 0 0 0-1.728 0 .586.586 0 1 1-1.172 0 2.036 2.036 0 0 1 4.072 0 .586.586 0 0 1-.586.586ZM47.928 36.716a.586.586 0 0 1-.586-.586.864.864 0 0 0-1.727 0 .586.586 0 1 1-1.172 0 2.036 2.036 0 0 1 4.071 0 .585.585 0 0 1-.586.586ZM39.998 39.11a2.626 2.626 0 0 1-1.98-.9.588.588 0 0 1 .886-.771 1.454 1.454 0 0 0 2.193 0 .586.586 0 1 1 .883.77 2.626 2.626 0 0 1-1.982.901Z"/></svg>