<svg width="56" height="57" viewBox="0 0 56 57" fill="none" xmlns="http://www.w3.org/2000/svg">
<path d="M27.6896 51.3366C40.0607 51.3366 50.0896 41.3078 50.0896 28.9366C50.0896 16.5654 40.0607 6.53662 27.6896 6.53662C15.3184 6.53662 5.28955 16.5654 5.28955 28.9366C5.28955 41.3078 15.3184 51.3366 27.6896 51.3366Z" fill="url(#paint0_radial_52_1298)"/>
<path opacity="0.5" d="M27.6896 51.3366C40.0607 51.3366 50.0896 41.3078 50.0896 28.9366C50.0896 16.5654 40.0607 6.53662 27.6896 6.53662C15.3184 6.53662 5.28955 16.5654 5.28955 28.9366C5.28955 41.3078 15.3184 51.3366 27.6896 51.3366Z" fill="url(#paint1_radial_52_1298)"/>
<path d="M43.1316 36.3848C43.1456 36.2588 43.1596 36.1328 43.1736 36.0208C43.1456 35.6148 42.8936 35.2368 42.4876 35.0968C42.2776 35.0128 42.0536 35.0128 41.8296 35.0688C37.2516 36.3428 32.4916 37.0008 27.6896 37.0008C22.8876 37.0008 18.1276 36.3568 13.5496 35.0688C13.3396 35.0128 13.1016 35.0128 12.8916 35.0968C12.4996 35.2508 12.2476 35.6008 12.2056 36.0068C12.2196 36.1468 12.2336 36.2868 12.2616 36.4408L12.5136 37.4908C12.5696 37.6868 12.6396 37.8968 12.7236 38.1208C14.2916 41.7888 18.3796 48.2428 27.7036 48.2428C37.0136 48.2428 41.1016 41.7748 42.6836 38.1068C42.7536 37.9108 42.8236 37.7288 42.8656 37.5468L43.1316 36.3848Z" fill="url(#paint2_radial_52_1298)"/>
<path d="M27.6892 47.2205C31.3013 47.2205 34.0733 46.1845 36.1873 44.7145C33.8633 43.6365 31.0633 42.9365 27.6892 42.9365C24.3152 42.9365 21.5012 43.6365 19.1772 44.7285C21.3052 46.1985 24.0772 47.2205 27.6892 47.2205Z" fill="url(#paint3_radial_52_1298)"/>
<path d="M42.8654 37.5048L43.1174 36.4268C43.1454 36.2728 43.1594 36.1328 43.1594 36.0068C43.1314 35.6008 42.8654 35.2508 42.4734 35.0968C42.2634 35.0128 42.0394 35.0128 41.8154 35.0688C37.2374 36.3428 32.4774 37.0008 27.6754 37.0008C22.8734 37.0008 18.1134 36.3568 13.5354 35.0688C13.3254 35.0128 13.0874 35.0128 12.8774 35.0968C12.4854 35.2508 12.2334 35.6008 12.1914 36.0068C12.2054 36.1328 12.2194 36.2868 12.2334 36.4408L12.4854 37.5048C12.5414 37.7008 12.6114 37.9108 12.6954 38.1208C13.3254 39.6048 14.3754 41.5368 15.9994 43.3148C14.4734 41.4948 16.3494 40.5008 19.7234 40.9068C23.0834 41.3128 27.6754 41.3268 27.6754 41.3268C27.6754 41.3268 32.2674 41.3128 35.6274 40.9068C38.9874 40.5008 40.8774 41.5088 39.3514 43.3148C40.9894 41.5368 42.0254 39.6048 42.6554 38.1208C42.7394 37.8968 42.8094 37.7008 42.8654 37.5048Z" fill="url(#paint4_linear_52_1298)"/>
<path d="M27.6893 38.0228C22.8453 38.0228 18.0573 37.3788 13.4233 36.0908L13.4793 36.7208C13.5913 37.9248 14.4733 38.9188 15.6493 39.1848C19.5833 40.0528 23.6153 40.4868 27.6753 40.4868C32.0573 40.4868 36.3973 39.9828 40.6253 38.9748C41.2553 38.8208 41.7173 38.2888 41.7873 37.6448L41.9413 36.1048C37.3213 37.3788 32.5333 38.0228 27.6893 38.0228Z" fill="url(#paint5_radial_52_1298)"/>
<path d="M27.6896 51.3366C40.0607 51.3366 50.0896 41.3078 50.0896 28.9366C50.0896 16.5654 40.0607 6.53662 27.6896 6.53662C15.3184 6.53662 5.28955 16.5654 5.28955 28.9366C5.28955 41.3078 15.3184 51.3366 27.6896 51.3366Z" fill="url(#paint6_radial_52_1298)"/>
<path d="M27.6896 51.3366C40.0607 51.3366 50.0896 41.3078 50.0896 28.9366C50.0896 16.5654 40.0607 6.53662 27.6896 6.53662C15.3184 6.53662 5.28955 16.5654 5.28955 28.9366C5.28955 41.3078 15.3184 51.3366 27.6896 51.3366Z" fill="url(#paint7_radial_52_1298)"/>
<path opacity="0.24" d="M45.8054 26.3188C46.0154 26.2908 46.2114 26.2768 46.4074 26.2628C46.4074 26.2768 46.3934 26.3048 46.3934 26.3328L46.3374 33.8928C46.3374 34.5088 45.6374 34.8448 45.1474 34.4668L39.1834 29.8328C39.0994 29.7628 38.9874 29.7488 38.8894 29.7768L31.6794 32.0588C31.0914 32.2408 30.5594 31.6808 30.7694 31.1068L33.2614 24.2048C33.3454 23.9808 33.3034 23.7288 33.1634 23.5328L28.8934 17.5688C28.7534 17.3728 28.7254 17.1348 28.7814 16.9248L29.4954 16.9948C36.1594 17.0788 36.3414 27.4808 45.8054 26.3188Z" fill="url(#paint8_radial_52_1298)"/>
<path d="M41.8018 10.4006L37.3078 16.5886C37.2518 16.6726 37.1398 16.7286 37.0418 16.7146L29.3978 16.5186C28.7818 16.5046 28.4178 17.2046 28.7818 17.6946L33.1498 23.7006C33.2898 23.8966 33.3318 24.1486 33.2478 24.3866L30.7698 31.3866C30.5598 31.9746 31.1198 32.5346 31.7078 32.3386L38.9738 29.9726C39.0718 29.9446 39.1838 29.9586 39.2678 30.0286L45.3298 34.6766C45.8198 35.0546 46.5198 34.7046 46.5198 34.0886V26.4446C46.5198 26.3326 46.5758 26.2346 46.6598 26.1786L52.9598 21.8526C53.4638 21.5026 53.3518 20.7186 52.7638 20.5366L45.4978 18.1706C45.3998 18.1426 45.3158 18.0586 45.2878 17.9606L43.1178 10.6246C42.9498 10.0366 42.1658 9.89656 41.8018 10.4006Z" fill="url(#paint9_radial_52_1298)"/>
<path d="M48.6617 23.4767C50.2997 22.3147 52.5537 21.0687 52.2457 20.3687L52.7777 20.5367C53.3657 20.7327 53.4777 21.5027 52.9737 21.8527L46.6737 26.1787C46.5897 26.2347 46.5337 26.3327 46.5337 26.4447C46.5617 25.1007 47.0237 24.6247 48.6617 23.4767Z" fill="url(#paint10_radial_52_1298)"/>
<path d="M43.1178 10.6246L45.2878 17.9466C45.3158 18.0446 45.3998 18.1286 45.4978 18.1566L52.7778 20.5226C53.3658 20.7186 53.4778 21.4886 52.9738 21.8386L46.8558 26.0526C46.6598 26.1926 46.5338 26.4166 46.5338 26.6686V34.0886C46.5338 34.7046 45.8338 35.0546 45.3438 34.6766L39.2818 30.0286C39.1978 29.9586 39.0858 29.9446 38.9878 29.9726L31.7218 32.3386C31.1338 32.5346 30.5878 31.9606 30.7838 31.3866L33.3178 24.1766C33.3598 24.0786 33.3318 23.9666 33.2758 23.8826L28.7818 17.6946C28.4178 17.1906 28.7818 16.5046 29.3978 16.5186L37.0418 16.7146C37.1538 16.7146 37.2518 16.6726 37.3078 16.5886L41.8018 10.4006C42.1658 9.89656 42.9498 10.0366 43.1178 10.6246Z" fill="url(#paint11_radial_52_1298)"/>
<path d="M43.1178 10.6246L45.2878 17.9466C45.3158 18.0446 45.3998 18.1286 45.4978 18.1566L52.7778 20.5226C53.3658 20.7186 53.4778 21.4886 52.9738 21.8386L46.8558 26.0526C46.6598 26.1926 46.5338 26.4166 46.5338 26.6686V34.0886C46.5338 34.7046 45.8338 35.0546 45.3438 34.6766L39.2818 30.0286C39.1978 29.9586 39.0858 29.9446 38.9878 29.9726L31.7218 32.3386C31.1338 32.5346 30.5878 31.9606 30.7838 31.3866L33.3178 24.1766C33.3598 24.0786 33.3318 23.9666 33.2758 23.8826L28.7818 17.6946C28.4178 17.1906 28.7818 16.5046 29.3978 16.5186L37.0418 16.7146C37.1538 16.7146 37.2518 16.6726 37.3078 16.5886L41.8018 10.4006C42.1658 9.89656 42.9498 10.0366 43.1178 10.6246Z" fill="url(#paint12_radial_52_1298)"/>
<path opacity="0.24" d="M43.1178 10.6246L45.2878 17.9466C45.3158 18.0446 45.3998 18.1286 45.4978 18.1566L52.7778 20.5226C53.3658 20.7186 53.4778 21.4886 52.9738 21.8386L46.8558 26.0526C46.6598 26.1926 46.5338 26.4166 46.5338 26.6686V34.0886C46.5338 34.7046 45.8338 35.0546 45.3438 34.6766L39.2818 30.0286C39.1978 29.9586 39.0858 29.9446 38.9878 29.9726L31.7218 32.3386C31.1338 32.5346 30.5878 31.9606 30.7838 31.3866L33.3178 24.1766C33.3598 24.0786 33.3318 23.9666 33.2758 23.8826L28.7818 17.6946C28.4178 17.1906 28.7818 16.5046 29.3978 16.5186L37.0418 16.7146C37.1538 16.7146 37.2518 16.6726 37.3078 16.5886L41.8018 10.4006C42.1658 9.89656 42.9498 10.0366 43.1178 10.6246Z" fill="url(#paint13_radial_52_1298)"/>
<path opacity="0.24" d="M43.1178 10.6246L45.2878 17.9466C45.3158 18.0446 45.3998 18.1286 45.4978 18.1566L52.7778 20.5226C53.3658 20.7186 53.4778 21.4886 52.9738 21.8386L46.8558 26.0526C46.6598 26.1926 46.5338 26.4166 46.5338 26.6686V34.0886C46.5338 34.7046 45.8338 35.0546 45.3438 34.6766L39.2818 30.0286C39.1978 29.9586 39.0858 29.9446 38.9878 29.9726L31.7218 32.3386C31.1338 32.5346 30.5878 31.9606 30.7838 31.3866L33.3178 24.1766C33.3598 24.0786 33.3318 23.9666 33.2758 23.8826L28.7818 17.6946C28.4178 17.1906 28.7818 16.5046 29.3978 16.5186L37.0418 16.7146C37.1538 16.7146 37.2518 16.6726 37.3078 16.5886L41.8018 10.4006C42.1658 9.89656 42.9498 10.0366 43.1178 10.6246Z" fill="url(#paint14_radial_52_1298)"/>
<path d="M52.7775 20.5225L45.4975 18.1705C45.3995 18.1425 45.3155 18.0585 45.2875 17.9605L43.1175 10.6245C43.1175 10.6245 42.7535 10.9465 43.1875 12.5005C43.4815 13.5085 44.2095 16.2945 44.6295 17.7365C44.8675 18.5485 45.4135 18.6605 46.2255 18.9125L51.6015 20.5645C51.6015 20.5645 52.2035 20.7185 52.7775 20.5225Z" fill="url(#paint15_radial_52_1298)"/>
<path d="M30.7698 31.3866C30.5598 31.9746 31.1198 32.5346 31.7078 32.3386L38.9738 29.9726C39.0718 29.9446 39.1838 29.9586 39.2678 30.0286L45.3298 34.6766C45.8198 35.0546 46.5198 34.7046 46.5198 34.0886V26.4446C46.5198 26.3326 46.5758 26.2346 46.6598 26.1786L52.9598 21.8526C53.4638 21.5026 53.3518 20.7186 52.7638 20.5366L45.4978 18.1706C45.3998 18.1426 45.3158 18.0586 45.2878 17.9606L43.1178 10.6246C42.9358 10.0366 42.1658 9.89656 41.8018 10.4006L37.3078 16.5886C37.2518 16.6726 37.1398 16.7286 37.0418 16.7146L29.3978 16.5186C28.7818 16.5046 28.4178 17.2046 28.7818 17.6946L33.1498 23.7006C33.2898 23.8966 33.3318 24.1486 33.2478 24.3866L30.7698 31.3866ZM31.1618 31.5266L33.6398 24.5266C33.7658 24.1626 33.7098 23.7706 33.4858 23.4486L29.1178 17.4566C29.0058 17.3166 29.0618 17.1626 29.0898 17.1206C29.1178 17.0646 29.2018 16.9526 29.3698 16.9526C29.3698 16.9526 29.3698 16.9526 29.3838 16.9526L37.0278 17.1486C37.2658 17.1626 37.5038 17.0366 37.6438 16.8406L42.1378 10.6526C42.2218 10.5406 42.3198 10.5126 42.3898 10.5126C42.4178 10.5126 42.4318 10.5126 42.4458 10.5126C42.5018 10.5266 42.6558 10.5686 42.6978 10.7366L44.8678 18.0586C44.9378 18.2966 45.1198 18.4786 45.3438 18.5486L52.6098 20.9146C52.7778 20.9706 52.8198 21.1106 52.8338 21.1806C52.8478 21.2366 52.8478 21.3906 52.6938 21.4886L46.3938 25.8146C46.1978 25.9546 46.0718 26.1786 46.0718 26.4306V34.0746C46.0718 34.2566 45.9458 34.3406 45.8898 34.3686C45.8338 34.3966 45.6938 34.4526 45.5538 34.3406L39.4918 29.6926C39.2958 29.5386 39.0438 29.4966 38.8058 29.5806L31.5398 31.9466C31.3718 32.0026 31.2458 31.9046 31.2038 31.8626C31.2038 31.8206 31.1058 31.6946 31.1618 31.5266Z" fill="url(#paint16_radial_52_1298)"/>
<path opacity="0.24" d="M9.57368 26.3186C9.36368 26.2906 9.16768 26.2766 8.97168 26.2626C8.97168 26.2766 8.98568 26.3046 8.98568 26.3326L9.04168 33.8926C9.04168 34.5086 9.74168 34.8446 10.2317 34.4666L16.1957 29.8326C16.2797 29.7626 16.3917 29.7486 16.4897 29.7766L23.6997 32.0586C24.2877 32.2406 24.8197 31.6806 24.6097 31.1066L22.1177 24.1906C22.0337 23.9666 22.0757 23.7146 22.2157 23.5186L26.4857 17.5546C26.6257 17.3586 26.6537 17.1206 26.5977 16.9106L25.8837 16.9806C19.2197 17.0786 19.0377 27.4806 9.57368 26.3186Z" fill="url(#paint17_radial_52_1298)"/>
<path d="M13.5777 10.4005L18.0717 16.5885C18.1277 16.6725 18.2397 16.7285 18.3377 16.7145L25.9817 16.5185C26.5977 16.5045 26.9617 17.2045 26.5977 17.6945L22.2297 23.7005C22.0897 23.8965 22.0477 24.1485 22.1317 24.3865L24.6097 31.3865C24.8197 31.9745 24.2597 32.5345 23.6717 32.3385L16.4057 29.9725C16.3077 29.9445 16.1957 29.9585 16.1117 30.0285L10.0497 34.6765C9.55969 35.0545 8.85969 34.7045 8.85969 34.0885V26.4445C8.85969 26.3325 8.80369 26.2345 8.71969 26.1785L2.41969 21.8525C1.91569 21.5025 2.02769 20.7185 2.61569 20.5365L9.88169 18.1705C9.97969 18.1425 10.0637 18.0585 10.0917 17.9605L12.2617 10.6385C12.4437 10.0365 13.2137 9.89652 13.5777 10.4005Z" fill="url(#paint18_radial_52_1298)"/>
<path d="M6.7317 23.4767C5.09369 22.3147 2.83969 21.0687 3.14769 20.3687L2.61569 20.5367C2.02769 20.7327 1.91569 21.5027 2.41969 21.8527L8.7197 26.1787C8.8037 26.2347 8.8597 26.3327 8.8597 26.4447C8.8317 25.1007 8.3557 24.6247 6.7317 23.4767Z" fill="url(#paint19_radial_52_1298)"/>
<path d="M23.0837 20.6628C24.2457 19.0248 25.9397 17.0928 25.4217 16.5328L25.9817 16.5188C26.5977 16.5048 26.9617 17.2048 26.5977 17.6948L22.1177 23.8828C22.0617 23.9668 22.0337 24.0788 22.0757 24.1768C21.6417 22.9028 21.9217 22.3008 23.0837 20.6628Z" fill="url(#paint20_radial_52_1298)"/>
<path d="M25.9818 16.5184L18.3378 16.7144C18.2258 16.7144 18.1278 16.6724 18.0718 16.5884L13.5778 10.4004C13.5778 10.4004 13.3398 10.8344 14.2778 12.1364C14.8798 12.9904 16.5038 15.3704 17.3858 16.5884C17.8758 17.2884 18.4218 17.2044 19.2758 17.1624L24.9038 16.9244C24.8898 16.9384 25.5198 16.8824 25.9818 16.5184Z" fill="url(#paint21_radial_52_1298)"/>
<path d="M12.2617 10.6246L10.0917 17.9466C10.0637 18.0446 9.97969 18.1286 9.88169 18.1566L2.61569 20.5226C2.02769 20.7186 1.91569 21.4886 2.41969 21.8386L8.53769 26.0526C8.73369 26.1926 8.85969 26.4166 8.85969 26.6686V34.0886C8.85969 34.7046 9.55969 35.0546 10.0497 34.6766L16.1117 30.0286C16.1957 29.9586 16.3077 29.9446 16.4057 29.9726L23.6717 32.3386C24.2597 32.5346 24.8057 31.9606 24.6097 31.3866L22.0617 24.1766C22.0197 24.0786 22.0477 23.9666 22.1037 23.8826L26.5977 17.6946C26.9617 17.1906 26.5977 16.5046 25.9817 16.5186L18.3377 16.7146C18.2257 16.7146 18.1277 16.6726 18.0717 16.5886L13.5777 10.4006C13.2137 9.89656 12.4437 10.0366 12.2617 10.6246Z" fill="url(#paint22_radial_52_1298)"/>
<path d="M12.2617 10.6246L10.0917 17.9466C10.0637 18.0446 9.97969 18.1286 9.88169 18.1566L2.61569 20.5226C2.02769 20.7186 1.91569 21.4886 2.41969 21.8386L8.53769 26.0526C8.73369 26.1926 8.85969 26.4166 8.85969 26.6686V34.0886C8.85969 34.7046 9.55969 35.0546 10.0497 34.6766L16.1117 30.0286C16.1957 29.9586 16.3077 29.9446 16.4057 29.9726L23.6717 32.3386C24.2597 32.5346 24.8057 31.9606 24.6097 31.3866L22.0617 24.1766C22.0197 24.0786 22.0477 23.9666 22.1037 23.8826L26.5977 17.6946C26.9617 17.1906 26.5977 16.5046 25.9817 16.5186L18.3377 16.7146C18.2257 16.7146 18.1277 16.6726 18.0717 16.5886L13.5777 10.4006C13.2137 9.89656 12.4437 10.0366 12.2617 10.6246Z" fill="url(#paint23_radial_52_1298)"/>
<path opacity="0.24" d="M12.2617 10.6246L10.0917 17.9466C10.0637 18.0446 9.97969 18.1286 9.88169 18.1566L2.61569 20.5226C2.02769 20.7186 1.91569 21.4886 2.41969 21.8386L8.53769 26.0526C8.73369 26.1926 8.85969 26.4166 8.85969 26.6686V34.0886C8.85969 34.7046 9.55969 35.0546 10.0497 34.6766L16.1117 30.0286C16.1957 29.9586 16.3077 29.9446 16.4057 29.9726L23.6717 32.3386C24.2597 32.5346 24.8057 31.9606 24.6097 31.3866L22.0617 24.1766C22.0197 24.0786 22.0477 23.9666 22.1037 23.8826L26.5977 17.6946C26.9617 17.1906 26.5977 16.5046 25.9817 16.5186L18.3377 16.7146C18.2257 16.7146 18.1277 16.6726 18.0717 16.5886L13.5777 10.4006C13.2137 9.89656 12.4437 10.0366 12.2617 10.6246Z" fill="url(#paint24_radial_52_1298)"/>
<path opacity="0.24" d="M12.2617 10.6246L10.0917 17.9466C10.0637 18.0446 9.97969 18.1286 9.88169 18.1566L2.61569 20.5226C2.02769 20.7186 1.91569 21.4886 2.41969 21.8386L8.53769 26.0526C8.73369 26.1926 8.85969 26.4166 8.85969 26.6686V34.0886C8.85969 34.7046 9.55969 35.0546 10.0497 34.6766L16.1117 30.0286C16.1957 29.9586 16.3077 29.9446 16.4057 29.9726L23.6717 32.3386C24.2597 32.5346 24.8057 31.9606 24.6097 31.3866L22.0617 24.1766C22.0197 24.0786 22.0477 23.9666 22.1037 23.8826L26.5977 17.6946C26.9617 17.1906 26.5977 16.5046 25.9817 16.5186L18.3377 16.7146C18.2257 16.7146 18.1277 16.6726 18.0717 16.5886L13.5777 10.4006C13.2137 9.89656 12.4437 10.0366 12.2617 10.6246Z" fill="url(#paint25_radial_52_1298)"/>
<path d="M2.61572 20.5225L9.88172 18.1565C9.97972 18.1285 10.0637 18.0445 10.0917 17.9465L12.2617 10.6245C12.2617 10.6245 12.6257 10.9465 12.1917 12.5005C11.8977 13.5085 11.1697 16.2945 10.7497 17.7365C10.5117 18.5485 9.96572 18.6605 9.15372 18.9125L3.77772 20.5645C3.77772 20.5645 3.17572 20.7185 2.61572 20.5225Z" fill="url(#paint26_radial_52_1298)"/>
<path d="M32.3094 20.6628C31.1474 19.0248 29.4534 17.0928 29.9714 16.5328L29.4114 16.5188C28.7954 16.5048 28.4314 17.2048 28.7954 17.6948L33.2894 23.8828C33.3454 23.9668 33.3734 24.0788 33.3314 24.1768C33.7374 22.9028 33.4574 22.3008 32.3094 20.6628Z" fill="url(#paint27_radial_52_1298)"/>
<path d="M17.6516 18.0168C18.5616 19.5568 17.0496 22.1188 14.2916 23.7288C11.5336 25.3388 8.56564 25.4088 7.66964 23.8688C6.77364 22.3288 8.27164 19.7668 11.0296 18.1568C13.7876 16.5468 16.7416 16.4908 17.6516 18.0168Z" fill="url(#paint28_radial_52_1298)"/>
<path d="M44.0696 17.2605C44.9796 18.8005 43.4676 21.3625 40.7096 22.9725C37.9516 24.5825 34.9836 24.6525 34.0876 23.1125C33.1916 21.5725 34.6896 19.0105 37.4476 17.4005C40.2056 15.7905 43.1596 15.7205 44.0696 17.2605Z" fill="url(#paint29_radial_52_1298)"/>
<path d="M22.1457 24.3866C22.0617 24.1626 22.1037 23.8966 22.2437 23.7006L26.5977 17.6946C26.9617 17.1906 26.5977 16.5046 25.9817 16.5186L18.3377 16.7146C18.2257 16.7146 18.1277 16.6726 18.0717 16.5886L13.5777 10.4006C13.2137 9.89656 12.4437 10.0366 12.2617 10.6246L10.0917 17.9466C10.0637 18.0446 9.97969 18.1286 9.88169 18.1566L2.61569 20.5226C2.02769 20.7186 1.91569 21.4886 2.41969 21.8386L8.71969 26.1646C8.80369 26.2206 8.85969 26.3186 8.85969 26.4306V34.0746C8.85969 34.6906 9.55969 35.0406 10.0497 34.6626L16.1117 30.0146C16.1957 29.9446 16.3077 29.9306 16.4057 29.9586L23.6717 32.3246C24.2597 32.5206 24.8057 31.9466 24.6097 31.3726L22.1457 24.3866ZM24.1477 31.8626C24.1057 31.9046 23.9937 32.0026 23.8117 31.9466L16.5457 29.5806C16.3077 29.5106 16.0557 29.5526 15.8597 29.6926L9.79769 34.3546C9.65769 34.4666 9.51769 34.4106 9.46169 34.3826C9.40569 34.3546 9.27969 34.2706 9.27969 34.0886V26.4446C9.27969 26.2066 9.15369 25.9686 8.95769 25.8286L2.65769 21.5026C2.50369 21.4046 2.51769 21.2506 2.51769 21.1946C2.53169 21.1386 2.55969 20.9846 2.74169 20.9286L10.0077 18.5626C10.2457 18.4926 10.4137 18.2966 10.4837 18.0726L12.6537 10.7506C12.7097 10.5826 12.8497 10.5406 12.9057 10.5266C12.9197 10.5266 12.9337 10.5266 12.9617 10.5266C13.0317 10.5266 13.1437 10.5546 13.2137 10.6666L17.7077 16.8546C17.8477 17.0506 18.0857 17.1626 18.3237 17.1626L25.9677 16.9666C25.9677 16.9666 25.9677 16.9666 25.9817 16.9666C26.1497 16.9666 26.2337 17.0926 26.2617 17.1346C26.2897 17.1906 26.3457 17.3306 26.2337 17.4706L21.8657 23.4766C21.6417 23.7846 21.5857 24.1906 21.7117 24.5546L24.1897 31.5546C24.2737 31.6946 24.1897 31.8206 24.1477 31.8626Z" fill="url(#paint30_radial_52_1298)"/>
<defs>
<radialGradient id="paint0_radial_52_1298" cx="0" cy="0" r="1" gradientUnits="userSpaceOnUse" gradientTransform="translate(23.2851 19.8587) scale(27.0227 27.0227)">
<stop stop-color="#FFE030"/>
<stop offset="1" stop-color="#FFB92E"/>
</radialGradient>
<radialGradient id="paint1_radial_52_1298" cx="0" cy="0" r="1" gradientUnits="userSpaceOnUse" gradientTransform="translate(23.2851 19.8587) scale(21.26 21.26)">
<stop stop-color="#FFEA5F"/>
<stop offset="1" stop-color="#FFBC47" stop-opacity="0"/>
</radialGradient>
<radialGradient id="paint2_radial_52_1298" cx="0" cy="0" r="1" gradientUnits="userSpaceOnUse" gradientTransform="translate(27.6903 41.6392) scale(11.9021 11.9021)">
<stop offset="0.00132565" stop-color="#7A4400"/>
<stop offset="1" stop-color="#643800"/>
</radialGradient>
<radialGradient id="paint3_radial_52_1298" cx="0" cy="0" r="1" gradientUnits="userSpaceOnUse" gradientTransform="translate(27.8626 45.5957) scale(9.46967 2.86325)">
<stop offset="0.2479" stop-color="#FF0000"/>
<stop offset="1" stop-color="#C20000"/>
</radialGradient>
<linearGradient id="paint4_linear_52_1298" x1="43.0007" y1="39.177" x2="12.5698" y2="39.177" gradientUnits="userSpaceOnUse">
<stop offset="0.00132565" stop-color="#3C2200"/>
<stop offset="0.5" stop-color="#512D00"/>
<stop offset="1" stop-color="#3C2200"/>
</linearGradient>
<radialGradient id="paint5_radial_52_1298" cx="0" cy="0" r="1" gradientUnits="userSpaceOnUse" gradientTransform="translate(27.691 38.2879) scale(26.1048 26.1048)">
<stop offset="0.00132565" stop-color="white"/>
<stop offset="1" stop-color="#A9BCBE"/>
</radialGradient>
<radialGradient id="paint6_radial_52_1298" cx="0" cy="0" r="1" gradientUnits="userSpaceOnUse" gradientTransform="translate(48.2917 28.1588) rotate(34.2288) scale(12.7117 12.7896)">
<stop stop-color="#FF8000" stop-opacity="0.5"/>
<stop offset="0.995" stop-color="#FF8000" stop-opacity="0"/>
</radialGradient>
<radialGradient id="paint7_radial_52_1298" cx="0" cy="0" r="1" gradientUnits="userSpaceOnUse" gradientTransform="translate(7.09507 28.1629) rotate(145.771) scale(12.7117 12.7896)">
<stop stop-color="#FF8000" stop-opacity="0.5"/>
<stop offset="0.995" stop-color="#FF8000" stop-opacity="0"/>
</radialGradient>
<radialGradient id="paint8_radial_52_1298" cx="0" cy="0" r="1" gradientUnits="userSpaceOnUse" gradientTransform="translate(38.3471 25.0301) rotate(180) scale(18.8431 18.843)">
<stop stop-color="white"/>
<stop offset="1" stop-color="white" stop-opacity="0"/>
</radialGradient>
<radialGradient id="paint9_radial_52_1298" cx="0" cy="0" r="1" gradientUnits="userSpaceOnUse" gradientTransform="translate(41.5451 19.4943) rotate(-170.266) scale(12.2099 12.2099)">
<stop stop-color="#FFEA5F"/>
<stop offset="0.4904" stop-color="#FFE95D"/>
<stop offset="0.667" stop-color="#FFE756"/>
<stop offset="0.793" stop-color="#FFE34B"/>
<stop offset="0.8947" stop-color="#FEDD3A"/>
<stop offset="0.9809" stop-color="#FED524"/>
<stop offset="1" stop-color="#FED31E"/>
</radialGradient>
<radialGradient id="paint10_radial_52_1298" cx="0" cy="0" r="1" gradientUnits="userSpaceOnUse" gradientTransform="translate(49.6135 25.7715) rotate(-130.782) scale(2.25817 6.08035)">
<stop stop-color="#D86D00"/>
<stop offset="0.3292" stop-color="#DC6C0A" stop-opacity="0.6708"/>
<stop offset="0.8792" stop-color="#E86823" stop-opacity="0.1208"/>
<stop offset="1" stop-color="#EB672A" stop-opacity="0"/>
</radialGradient>
<radialGradient id="paint11_radial_52_1298" cx="0" cy="0" r="1" gradientUnits="userSpaceOnUse" gradientTransform="translate(35.5283 33.2717) rotate(-16.5811) scale(6.71332 3.18129)">
<stop stop-color="#D86D00"/>
<stop offset="0.3292" stop-color="#DC6C0A" stop-opacity="0.6708"/>
<stop offset="0.8792" stop-color="#E86823" stop-opacity="0.1208"/>
<stop offset="1" stop-color="#EB672A" stop-opacity="0"/>
</radialGradient>
<radialGradient id="paint12_radial_52_1298" cx="0" cy="0" r="1" gradientUnits="userSpaceOnUse" gradientTransform="translate(37.8061 37.3237) rotate(12.5087) scale(8.87551 9.09905)">
<stop stop-color="#D86D00"/>
<stop offset="0.3292" stop-color="#DC6C0A" stop-opacity="0.6708"/>
<stop offset="0.8792" stop-color="#E86823" stop-opacity="0.1208"/>
<stop offset="1" stop-color="#EB672A" stop-opacity="0"/>
</radialGradient>
<radialGradient id="paint13_radial_52_1298" cx="0" cy="0" r="1" gradientUnits="userSpaceOnUse" gradientTransform="translate(36.599 27.0905) rotate(31.2857) scale(9.38454 7.09328)">
<stop stop-color="#FFA754"/>
<stop offset="0.3697" stop-color="#FFB152" stop-opacity="0.6303"/>
<stop offset="0.9874" stop-color="#FFCA4B" stop-opacity="0.0126062"/>
<stop offset="1" stop-color="#FFCB4B" stop-opacity="0"/>
</radialGradient>
<radialGradient id="paint14_radial_52_1298" cx="0" cy="0" r="1" gradientUnits="userSpaceOnUse" gradientTransform="translate(41.9712 19.2557) rotate(31.2857) scale(5.65427 4.27376)">
<stop stop-color="white"/>
<stop offset="1" stop-color="white" stop-opacity="0"/>
</radialGradient>
<radialGradient id="paint15_radial_52_1298" cx="0" cy="0" r="1" gradientUnits="userSpaceOnUse" gradientTransform="translate(49.7429 13.8764) rotate(56.5612) scale(8.84372 6.08628)">
<stop stop-color="#ED9900"/>
<stop offset="1" stop-color="#ED9900" stop-opacity="0"/>
</radialGradient>
<radialGradient id="paint16_radial_52_1298" cx="0" cy="0" r="1" gradientUnits="userSpaceOnUse" gradientTransform="translate(40.4244 22.317) rotate(180) scale(10.4638 10.4638)">
<stop stop-color="#A3541E" stop-opacity="0.5"/>
<stop offset="0.5109" stop-color="#A5551D" stop-opacity="0.7555"/>
<stop offset="0.695" stop-color="#AC5819" stop-opacity="0.8475"/>
<stop offset="0.8261" stop-color="#B75E12" stop-opacity="0.9131"/>
<stop offset="0.9315" stop-color="#C86609" stop-opacity="0.9657"/>
<stop offset="1" stop-color="#D86D00"/>
</radialGradient>
<radialGradient id="paint17_radial_52_1298" cx="0" cy="0" r="1" gradientUnits="userSpaceOnUse" gradientTransform="translate(17.0376 25.03) scale(18.843 18.8431)">
<stop stop-color="white"/>
<stop offset="1" stop-color="white" stop-opacity="0"/>
</radialGradient>
<radialGradient id="paint18_radial_52_1298" cx="0" cy="0" r="1" gradientUnits="userSpaceOnUse" gradientTransform="translate(13.8413 19.4945) rotate(-9.73431) scale(12.2099)">
<stop stop-color="#FFEA5F"/>
<stop offset="0.4904" stop-color="#FFE95D"/>
<stop offset="0.667" stop-color="#FFE756"/>
<stop offset="0.793" stop-color="#FFE34B"/>
<stop offset="0.8947" stop-color="#FEDD3A"/>
<stop offset="0.9809" stop-color="#FED524"/>
<stop offset="1" stop-color="#FED31E"/>
</radialGradient>
<radialGradient id="paint19_radial_52_1298" cx="0" cy="0" r="1" gradientUnits="userSpaceOnUse" gradientTransform="translate(5.77263 25.7705) rotate(-49.2176) scale(2.25817 6.08036)">
<stop stop-color="#D86D00"/>
<stop offset="0.3292" stop-color="#DC6C0A" stop-opacity="0.6708"/>
<stop offset="0.8792" stop-color="#E86823" stop-opacity="0.1208"/>
<stop offset="1" stop-color="#EB672A" stop-opacity="0"/>
</radialGradient>
<radialGradient id="paint20_radial_52_1298" cx="0" cy="0" r="1" gradientUnits="userSpaceOnUse" gradientTransform="translate(24.5644 22.9076) rotate(-150.251) scale(2.25829 6.08029)">
<stop stop-color="#D86D00"/>
<stop offset="0.3292" stop-color="#DC6C0A" stop-opacity="0.6708"/>
<stop offset="0.8792" stop-color="#E86823" stop-opacity="0.1208"/>
<stop offset="1" stop-color="#EB672A" stop-opacity="0"/>
</radialGradient>
<radialGradient id="paint21_radial_52_1298" cx="0" cy="0" r="1" gradientUnits="userSpaceOnUse" gradientTransform="translate(20.9087 11.2668) rotate(37.0947) scale(8.84242 6.0862)">
<stop stop-color="#ED9900"/>
<stop offset="1" stop-color="#ED9900" stop-opacity="0"/>
</radialGradient>
<radialGradient id="paint22_radial_52_1298" cx="0" cy="0" r="1" gradientUnits="userSpaceOnUse" gradientTransform="translate(19.857 33.2681) rotate(-163.419) scale(6.71331 3.18129)">
<stop stop-color="#D86D00"/>
<stop offset="0.3292" stop-color="#DC6C0A" stop-opacity="0.6708"/>
<stop offset="0.8792" stop-color="#E86823" stop-opacity="0.1208"/>
<stop offset="1" stop-color="#EB672A" stop-opacity="0"/>
</radialGradient>
<radialGradient id="paint23_radial_52_1298" cx="0" cy="0" r="1" gradientUnits="userSpaceOnUse" gradientTransform="translate(17.581 37.3236) rotate(167.491) scale(8.87551 9.09905)">
<stop stop-color="#D86D00"/>
<stop offset="0.3292" stop-color="#DC6C0A" stop-opacity="0.6708"/>
<stop offset="0.8792" stop-color="#E86823" stop-opacity="0.1208"/>
<stop offset="1" stop-color="#EB672A" stop-opacity="0"/>
</radialGradient>
<radialGradient id="paint24_radial_52_1298" cx="0" cy="0" r="1" gradientUnits="userSpaceOnUse" gradientTransform="translate(18.7887 27.0939) rotate(148.714) scale(9.38454 7.09328)">
<stop stop-color="#FFA754"/>
<stop offset="0.3697" stop-color="#FFB152" stop-opacity="0.6303"/>
<stop offset="0.9874" stop-color="#FFCA4B" stop-opacity="0.0126062"/>
<stop offset="1" stop-color="#FFCB4B" stop-opacity="0"/>
</radialGradient>
<radialGradient id="paint25_radial_52_1298" cx="0" cy="0" r="1" gradientUnits="userSpaceOnUse" gradientTransform="translate(13.4164 19.2592) rotate(148.714) scale(5.65427 4.27376)">
<stop stop-color="white"/>
<stop offset="1" stop-color="white" stop-opacity="0"/>
</radialGradient>
<radialGradient id="paint26_radial_52_1298" cx="0" cy="0" r="1" gradientUnits="userSpaceOnUse" gradientTransform="translate(5.64482 13.8731) rotate(123.439) scale(8.84372 6.08627)">
<stop stop-color="#ED9900"/>
<stop offset="1" stop-color="#ED9900" stop-opacity="0"/>
</radialGradient>
<radialGradient id="paint27_radial_52_1298" cx="0" cy="0" r="1" gradientUnits="userSpaceOnUse" gradientTransform="translate(30.8232 22.9061) rotate(-29.7489) scale(2.25829 6.08029)">
<stop stop-color="#D86D00"/>
<stop offset="0.3292" stop-color="#DC6C0A" stop-opacity="0.6708"/>
<stop offset="0.8792" stop-color="#E86823" stop-opacity="0.1208"/>
<stop offset="1" stop-color="#EB672A" stop-opacity="0"/>
</radialGradient>
<radialGradient id="paint28_radial_52_1298" cx="0" cy="0" r="1" gradientUnits="userSpaceOnUse" gradientTransform="translate(12.6606 20.9132) rotate(-31.91) scale(5.82732 3.1364)">
<stop stop-color="white" stop-opacity="0.5"/>
<stop offset="0.995" stop-color="white" stop-opacity="0"/>
</radialGradient>
<radialGradient id="paint29_radial_52_1298" cx="0" cy="0" r="1" gradientUnits="userSpaceOnUse" gradientTransform="translate(39.074 20.1437) rotate(-31.91) scale(5.82732 3.1364)">
<stop stop-color="white" stop-opacity="0.5"/>
<stop offset="0.995" stop-color="white" stop-opacity="0"/>
</radialGradient>
<radialGradient id="paint30_radial_52_1298" cx="0" cy="0" r="1" gradientUnits="userSpaceOnUse" gradientTransform="translate(14.9605 22.317) scale(10.4638 10.4638)">
<stop stop-color="#A3541E" stop-opacity="0.5"/>
<stop offset="0.5109" stop-color="#A5551D" stop-opacity="0.7555"/>
<stop offset="0.695" stop-color="#AC5819" stop-opacity="0.8475"/>
<stop offset="0.8261" stop-color="#B75E12" stop-opacity="0.9131"/>
<stop offset="0.9315" stop-color="#C86609" stop-opacity="0.9657"/>
<stop offset="1" stop-color="#D86D00"/>
</radialGradient>
</defs>
</svg>
