<svg width="56" height="57" viewBox="0 0 56 57" fill="none" xmlns="http://www.w3.org/2000/svg">
<path d="M27.8552 6.53662C26.1208 6.53662 25.4615 7.9248 25.5957 10.6141C25.6848 12.387 26.2819 17.3294 23.7797 19.8339C21.4461 22.1687 20.7674 21.9613 18.1085 24.9762C15.4506 27.99 13.2351 27.3701 10.1337 27.1036C6.23756 26.7695 7.5649 48.4002 10.3109 48.0252C12.26 47.7587 16.6909 47.2269 17.3997 47.2269C18.1085 47.2269 22.9689 50.9939 27.2355 51.039C34.1461 51.111 37.9574 49.8861 37.9574 49.8861L39.9827 45.2897L40.6604 31.2746L37.4247 24.5325C37.4247 24.5325 33.0829 25.2416 31.8426 23.2915C30.6022 21.3414 32.8177 18.9475 32.8177 13.3626C32.8177 7.7776 28.7412 6.53662 27.8552 6.53662Z" fill="url(#paint0_linear_52_1244)"/>
<path d="M38.1988 49.8455L37.9357 48.8861C37.1572 48.8033 36.1552 49.1579 34.7871 49.1472C28.2524 49.0967 22.0055 47.2196 19.325 45.0965C17.5692 43.7062 16.7992 41.856 15.5588 42.3879C14.0285 43.0443 9.68674 44.0651 8.08984 42.043C8.53659 45.5027 9.33342 48.1587 10.3107 48.0254C12.2598 47.759 16.6907 47.2271 17.3995 47.2271C18.1083 47.2271 22.8334 50.8953 27.2354 51.0392C32.9303 51.2251 37.9884 50.2442 37.9884 50.2442L38.1988 49.8455Z" fill="url(#paint1_linear_52_1244)"/>
<path d="M12.9012 28.4693C15.4711 29.1784 17.1034 28.0051 18.4168 26.4085C19.7216 24.8226 20.8535 23.4162 24.1321 21.2888C27.4107 19.1614 26.9897 13.3099 26.7234 11.3598C26.4571 9.40969 26.6343 6.53662 27.8553 6.53662C26.1209 6.53662 25.4616 7.92481 25.5958 10.6141C25.6849 12.387 26.282 17.3294 23.7798 19.834C21.4463 22.1687 20.7676 21.9614 18.1086 24.9763C15.4507 27.9901 13.2352 27.3701 10.1338 27.1037C10.1349 27.7763 10.3314 27.7601 12.9012 28.4693Z" fill="url(#paint2_linear_52_1244)"/>
<path d="M31.8425 23.2915C30.6021 21.3414 32.8176 18.9475 32.8176 13.3626C32.8176 7.7776 28.7421 6.53662 27.8551 6.53662C27.622 6.53662 27.4148 6.56241 27.229 6.61183C30.8438 6.83854 33.0205 11.3996 31.7748 16.1024C30.7643 19.9188 30.2606 22.9788 31.9112 24.7732C32.9787 25.9346 35.1018 25.7369 37.4257 24.5325C37.4246 24.5325 33.0828 25.2416 31.8425 23.2915Z" fill="url(#paint3_linear_52_1244)"/>
<path d="M32.0862 25.2812C29.9599 25.9904 24.5893 27.659 20.5214 31.3497C10.2119 40.7028 27.8132 41.875 31.4483 49.8742C32.1431 51.4031 36.2046 41.8556 36.2046 41.8556L37.518 39.6444L33.7228 29.5328L32.0862 25.2812Z" fill="url(#paint4_linear_52_1244)"/>
<path d="M32.3991 26.0918C30.2727 26.8009 21.5859 32.3687 21.5859 35.1182C21.5859 43.053 27.6019 39.1366 30.8537 48.4994C31.3037 49.7962 32.8941 50.8868 32.8941 50.8868C34.2118 49.8113 36.206 41.8561 36.206 41.8561L37.5194 39.6449L33.7242 29.5332L32.3991 26.0918Z" fill="url(#paint5_linear_52_1244)"/>
<path d="M37.3067 50.4116L41.3767 45.756L42.2735 26.3074L32.0854 25.2803C29.7464 26.5395 29.4758 28.2619 30.3446 31.0275C30.7097 32.1911 29.2245 32.5242 29.1289 35.9141C29.0623 38.2639 30.6001 38.2746 30.6001 38.973C30.6001 39.6714 29.8345 39.6091 29.5799 41.6323C29.217 44.5268 31.6397 44.5827 31.6397 45.2016C31.6397 45.8205 30.2941 46.1879 30.3768 48.5474C30.482 51.5397 24.9278 50.9348 21.1724 48.2122C19.6302 47.0937 18.2847 46.9787 17.2344 47.2323C17.2999 47.2291 17.3557 47.2269 17.3976 47.2269C18.1064 47.2269 22.867 51.0391 27.2335 51.0391C32.3399 51.0391 35.8709 50.7404 37.3067 50.4116Z" fill="url(#paint6_linear_52_1244)"/>
<path d="M38.2433 26.563C35.0978 26.563 33.3699 29.6381 34.5662 32.0008C35.7626 34.3635 32.3508 37.4912 32.7052 39.0309C33.0595 40.5705 33.6803 44.4675 34.1667 45.1122C34.6543 45.7569 33.3688 47.2192 33.3688 47.2192L37.3562 47.707L41.0773 46.0652L40.9441 34.8083L41.3425 27.7599L38.2433 26.563Z" fill="url(#paint7_linear_52_1244)"/>
<path d="M18.1085 24.9761C16.3817 26.9338 14.8417 27.3582 13.1245 27.3421C13.6196 28.1414 13.9643 29.015 13.9289 29.8692C13.8354 32.1083 14.3284 34.8686 14.7053 31.9976C14.992 29.8111 16.474 27.1089 18.2567 24.8096C18.2084 24.8644 18.16 24.9181 18.1085 24.9761Z" fill="url(#paint8_linear_52_1244)"/>
<path d="M40.6258 24.4447C36.9069 24.3029 30.2208 24.0923 30.0715 27.9904C29.9641 30.8173 31.968 31.7445 35.0673 31.8627C38.1666 31.9809 39.7162 32.04 40.9995 32.0883C42.2828 32.1367 46.3207 32.113 46.3605 28.6995C46.4099 24.435 40.6258 24.4447 40.6258 24.4447Z" fill="url(#paint9_linear_52_1244)"/>
<path d="M34.5092 38.5355C33.5126 38.5065 30.5518 39.2532 30.2748 41.1346C30.0568 42.6141 30.8117 44.5255 33.388 44.9768C36.6516 45.5484 42.0898 45.8482 44.1217 45.0875C45.0291 44.7479 45.8206 43.7971 45.8625 42.3562C45.9043 40.9154 44.8347 38.9739 42.5097 38.9062C40.1847 38.8395 38.9734 38.875 37.6482 38.7181C36.0545 38.5312 35.306 38.5591 34.5092 38.5355Z" fill="url(#paint10_linear_52_1244)"/>
<path d="M33.4706 45.1113C32.3409 45.1113 30.9448 46.1084 30.9448 47.7706C30.9448 49.4328 31.3765 50.663 33.8025 51.1282C36.2284 51.5935 40.1159 51.1949 41.5775 50.7296C42.7169 50.3665 43.139 49.3006 43.139 47.5385C43.139 45.7764 42.0436 45.468 40.8473 45.468C39.6509 45.468 38.199 45.6862 37.37 45.6432C35.0546 45.5207 34.6004 45.1113 33.4706 45.1113Z" fill="url(#paint11_linear_52_1244)"/>
<path d="M40.3093 25.2313C37.0618 25.1077 31.223 24.9197 31.106 28.0012C31.0211 30.236 32.7737 30.9752 35.48 31.0784C38.1862 31.1815 45.3062 31.3115 45.3298 28.6136C45.3588 25.242 40.3093 25.2313 40.3093 25.2313Z" fill="url(#paint12_linear_52_1244)"/>
<path d="M34.8087 39.3309C33.941 39.3062 31.5118 39.5125 31.2788 41.3101C31.1209 42.5263 31.7513 44.0886 33.9947 44.4614C36.8373 44.9342 41.5711 45.1878 43.3398 44.5678C44.1291 44.2906 44.8175 43.5138 44.8508 42.3329C44.8851 41.1521 43.7973 39.7048 41.774 39.6457C39.7508 39.5866 38.6737 39.7747 37.5192 39.6436C36.1318 39.4878 35.5025 39.3503 34.8087 39.3309Z" fill="url(#paint13_linear_52_1244)"/>
<path d="M33.9539 45.7173C32.9766 45.7173 31.7695 46.5199 31.7695 47.8587C31.7695 49.1974 32.1433 50.1881 34.2417 50.562C36.3401 50.9359 39.7024 50.6157 40.9675 50.2407C41.9523 49.9485 42.3185 49.09 42.3185 47.6706C42.3185 46.2513 41.3702 46.0042 40.335 46.0042C39.2997 46.0042 38.0443 46.1804 37.327 46.1449C35.3231 46.0471 34.93 45.7173 33.9539 45.7173Z" fill="url(#paint14_linear_52_1244)"/>
<path d="M33.3577 28.0026C33.4383 25.8795 35.1307 24.862 37.2689 24.3936C33.856 24.4731 30.1811 25.1113 30.0705 27.9897C29.9631 30.8166 31.967 31.7439 35.0663 31.8621C35.4078 31.8749 35.7289 31.8878 36.0339 31.8986C34.2942 31.3893 33.2729 30.2407 33.3577 28.0026Z" fill="url(#paint15_linear_52_1244)"/>
<path d="M33.6497 24.7773C31.6641 25.2114 30.1413 26.1505 30.0715 27.9889C29.9823 30.3387 31.3537 31.3755 33.5992 31.7269C29.0438 29.9078 30.6782 25.4274 33.6497 24.7773Z" fill="url(#paint16_linear_52_1244)"/>
<path d="M28.3619 47.1131C27.8368 48.3197 25.3378 48.396 22.7798 47.2818C20.2217 46.1686 18.5744 44.2873 19.0995 43.0796C19.6246 41.873 22.1236 41.7967 24.6817 42.9109C27.2386 44.0251 28.8871 45.9065 28.3619 47.1131Z" fill="url(#paint17_radial_52_1244)"/>
<path d="M43.4116 28.5725C43.3858 30.2035 41.2058 30.9771 38.8207 31.1221C36.8705 31.2403 34.7055 29.8597 34.7613 28.2663C34.8172 26.6729 35.1007 25.261 39.1536 25.4018C41.5419 25.4845 43.4363 26.9791 43.4116 28.5725Z" fill="url(#paint18_radial_52_1244)"/>
<path d="M43.8446 42.9095C43.8307 45.168 41.3489 44.735 38.9638 44.8918C35.9396 45.0917 33.9347 44.1494 33.9336 42.5549C33.9314 40.9604 35.0816 39.799 39.1377 39.7925C41.5272 39.7893 43.8618 40.0085 43.8446 42.9095Z" fill="url(#paint19_radial_52_1244)"/>
<path d="M41.6582 48.6044C41.6464 50.5298 39.3912 50.792 37.2541 50.7931C35.1171 50.7952 32.7975 49.6617 32.7964 48.3025C32.7953 46.9433 33.823 45.9527 37.4496 45.9473C39.5856 45.9441 41.6732 46.131 41.6582 48.6044Z" fill="url(#paint20_radial_52_1244)"/>
<path d="M33.0474 41.5927C33.3868 39.0216 35.3585 39.172 37.619 38.9056C35.017 38.7111 33.9248 38.6831 33.9248 38.6831C33.6821 38.6595 33.4104 38.6584 33.128 38.6874C32.2828 38.8733 31.3249 39.258 30.7557 39.98C30.5624 40.2551 30.4056 40.5795 30.3025 40.9642C30.2918 41.0201 30.281 41.077 30.2746 41.135C30.091 42.6199 30.8116 44.526 33.3878 44.9773C33.7594 45.0428 34.16 45.104 34.5799 45.161C34.7807 45.1868 34.9998 45.2136 35.235 45.2437C35.2983 45.2512 35.3617 45.2588 35.4261 45.2663C34.0043 44.5948 32.7972 43.4827 33.0474 41.5927Z" fill="url(#paint21_linear_52_1244)"/>
<path d="M33.6769 38.6669C33.5019 38.6615 33.3161 38.6679 33.126 38.6873C32.2733 38.8753 31.3068 39.2653 30.7409 39.9992C30.554 40.2699 30.4037 40.5901 30.3027 40.9651C30.292 41.021 30.2845 41.0769 30.2748 41.1349C30.0138 42.5972 30.7376 44.3206 32.9885 44.8911C29.1483 42.7723 30.787 38.669 33.6769 38.6669Z" fill="url(#paint22_linear_52_1244)"/>
<path d="M35.9126 45.5036C34.7775 45.3371 34.3114 45.1104 33.4716 45.1104C32.3419 45.1104 30.9458 46.1074 30.9458 47.7696C30.9458 48.3734 31.0038 48.9193 31.1917 49.3931C31.3829 49.7842 31.661 50.1506 32.0423 50.46C32.4611 50.7523 33.0302 50.979 33.8024 51.1273C34.3211 51.2272 34.9074 51.2863 35.5217 51.3153C34.3361 50.6266 32.3279 50.2559 32.7489 47.9501C33.2139 45.4037 34.7335 45.7475 35.9126 45.5036Z" fill="url(#paint23_linear_52_1244)"/>
<path d="M33.4212 45.1123C32.3011 45.1413 30.9458 46.133 30.9458 47.7705C30.9458 49.293 31.3099 50.4534 33.2365 50.9949C30.2274 49.0609 31.1928 45.7978 33.4212 45.1123Z" fill="url(#paint24_linear_52_1244)"/>
<path d="M46.3605 28.6989C46.3648 28.3164 46.3219 27.9693 46.2413 27.6523C46.541 28.9847 45.3543 30.3084 42.2088 30.9509C40.1244 31.3764 34.5884 31.9082 30.7578 30.3868C31.5847 31.3861 33.1064 31.7858 35.0674 31.861C38.1667 31.9792 39.7163 32.0383 40.9996 32.0866C42.2829 32.1371 46.3197 32.1124 46.3605 28.6989Z" fill="url(#paint25_linear_52_1244)"/>
<path d="M45.8622 42.2662C45.858 40.835 44.7851 38.973 42.5084 38.9074C40.1834 38.8408 38.9721 38.8763 37.6469 38.7194C36.0543 38.5314 35.3058 38.5593 34.509 38.5367C33.9065 38.5195 32.4202 38.7011 31.4097 39.3297C32.5459 39.724 34.3973 40.3171 37.0026 40.1506C43.2451 39.7487 45.0214 40.5041 45.8622 42.2662Z" fill="url(#paint26_linear_52_1244)"/>
<path d="M33.1701 32.0869C31.8417 32.0601 29.7315 32.8423 29.6767 35.6025C29.6219 38.3617 32.035 39.0192 33.0981 39.0407C34.1613 39.0622 37.8781 39.3158 42.4626 39.4071C47.047 39.4984 47.6613 37.0369 47.6871 35.7475C47.7129 34.4571 46.8956 32.1245 44.1378 32.0687C36.1641 31.9086 33.1701 32.0869 33.1701 32.0869Z" fill="url(#paint27_linear_52_1244)"/>
<path d="M33.8832 32.8872C32.7276 32.8646 30.8956 33.4641 30.8537 35.5926C30.8107 37.7222 32.9102 38.2336 33.8338 38.2519C34.7584 38.2701 37.9897 38.4732 41.975 38.5527C45.9602 38.6322 46.4897 36.7347 46.509 35.7387C46.5294 34.7438 46.392 32.943 43.9939 32.8947C37.064 32.7571 33.8832 32.8872 33.8832 32.8872Z" fill="url(#paint28_linear_52_1244)"/>
<path d="M32.5279 35.3361C32.6611 32.5028 34.6381 32.4942 36.8697 32.0054C34.2601 32.0215 33.1701 32.086 33.1701 32.086C31.8417 32.0591 29.7315 32.8413 29.6767 35.6015C29.6219 38.3607 32.035 39.0183 33.0981 39.0398C33.4815 39.0473 34.2107 39.0849 35.1987 39.1343C33.7253 38.5272 32.4302 37.4206 32.5279 35.3361Z" fill="url(#paint29_linear_52_1244)"/>
<path d="M45.3523 35.6295C45.4446 37.8858 42.9392 38.3102 40.552 38.4241C38.1647 38.538 35.5111 37.3314 35.4348 35.7391C35.3586 34.1468 36.4529 32.9327 40.5036 32.7361C42.8909 32.6211 45.2342 32.7307 45.3523 35.6295Z" fill="url(#paint30_radial_52_1244)"/>
<path d="M32.9221 32.0913C31.5947 32.1622 29.7283 33.0089 29.6767 35.6015C29.6241 38.2253 31.802 38.9484 32.9306 39.0311C28.5631 37.268 29.9946 32.3513 32.9221 32.0913Z" fill="url(#paint31_linear_52_1244)"/>
<path d="M47.6792 35.4683C47.1036 39.5511 36.3141 38.8033 30.4839 37.9266C31.2711 38.77 32.4416 39.0257 33.0978 39.0397C34.1609 39.0612 37.8777 39.3147 42.4622 39.4061C47.0467 39.4974 47.6609 37.0359 47.6867 35.7465C47.6878 35.6584 47.6856 35.565 47.6792 35.4683Z" fill="url(#paint32_linear_52_1244)"/>
<path d="M42.2743 44.56C40.1845 44.6524 34.655 45.3401 30.6235 43.1794C31.0735 44.0153 31.9444 44.7255 33.3867 44.978C36.6503 45.5496 42.0885 45.8494 44.1203 45.0887C45.0278 44.7491 45.8193 43.7983 45.8611 42.3574C45.7269 43.6102 44.5338 44.4601 42.2743 44.56Z" fill="url(#paint33_linear_52_1244)"/>
<path d="M42.9789 49.0972C41.6097 50.1394 39.2428 50.755 35.8278 50.1781C33.7186 49.8213 32.2732 49.6999 31.3228 49.6741C31.7029 50.3618 32.4364 50.8668 33.8024 51.1289C36.2283 51.5942 40.1159 51.1955 41.5774 50.7303C42.3281 50.4896 42.7662 49.9438 42.9789 49.0972Z" fill="url(#paint34_linear_52_1244)"/>
<path d="M31.3936 46.2749C33.9237 45.3531 35.164 46.7208 37.8713 46.7208C40.6828 46.7208 42.023 45.5852 43.0218 46.665C42.7082 45.669 41.8104 45.468 40.8471 45.468C39.6508 45.468 38.1989 45.6862 37.3687 45.6432C35.0534 45.5218 34.6002 45.1113 33.4705 45.1113C32.7392 45.1113 31.8972 45.5293 31.3936 46.2749Z" fill="url(#paint35_linear_52_1244)"/>
<path d="M10.312 48.0255C12.2611 47.759 16.692 47.2272 17.4008 47.2272C10.9746 42.6318 13.8322 32.8576 16.2023 27.914C16.5352 27.2199 16.7403 26.6505 16.851 26.167C14.7128 27.798 12.7347 27.3274 10.1337 27.1039C6.23759 26.7698 7.56601 48.4005 10.312 48.0255Z" fill="url(#paint36_linear_52_1244)"/>
<path d="M14.3638 43.5846C13.699 42.6982 14.2747 44.6042 14.8073 45.9784C15.2594 47.1475 11.7918 46.4566 9.13818 46.7435C9.48505 47.5998 9.88132 48.0844 10.312 48.0253C12.2611 47.7588 16.692 47.227 17.4008 47.227C16.401 46.3771 15.0275 44.471 14.3638 43.5846Z" fill="url(#paint37_linear_52_1244)"/>
<path d="M17.3997 47.2283C16.8488 46.7588 16.1841 45.968 15.5859 45.2041C15.5859 45.2041 12.3599 46.8555 8.90088 46.0787C9.2993 47.3422 9.77826 48.0986 10.3109 48.0256C12.2611 47.7602 16.691 47.2283 17.3997 47.2283Z" fill="url(#paint38_linear_52_1244)"/>
<path d="M29.6197 14.8598C28.3568 15.1327 27.3334 13.3878 26.7556 11.3517C26.2831 9.6863 26.9253 7.56535 28.1657 7.32683C29.406 7.08722 30.5508 7.07648 31.2349 10.606C31.6365 12.6851 30.8547 14.5933 29.6197 14.8598Z" fill="url(#paint39_radial_52_1244)"/>
<path d="M33.4213 45.1122C32.7265 45.1853 32.0972 45.5581 31.6644 46.0706C31.2252 46.5875 31.0201 47.2622 31.0652 47.9402C31.0695 48.6225 31.1726 49.3198 31.5592 49.872C31.9425 50.4297 32.5869 50.7617 33.2366 50.9948C32.5665 50.8433 31.8652 50.5661 31.4163 49.9784C30.961 49.3971 30.8558 48.6397 30.8332 47.9445C30.8031 47.2332 31.0297 46.4768 31.5312 45.9525C32.0177 45.4228 32.72 45.0983 33.4213 45.1122Z" fill="#804B24"/>
<path d="M32.3067 38.9277C31.8492 39.1265 31.4272 39.3983 31.0781 39.7368C30.7227 40.0709 30.5337 40.5287 30.4037 40.9928L30.4048 40.9853C30.2373 41.832 30.379 42.7334 30.8763 43.4372C31.3617 44.1506 32.1499 44.6169 32.9876 44.8898C32.1252 44.7233 31.2564 44.3032 30.7109 43.5543C30.4413 43.1858 30.2545 42.7549 30.1643 42.3047C30.073 41.8545 30.1149 41.3839 30.1986 40.9445L30.2008 40.9369C30.3372 40.4491 30.5799 39.9603 30.9804 39.6304C31.3638 39.2898 31.8342 39.0803 32.3067 38.9277Z" fill="#804B24"/>
<path d="M32.9219 32.0903C32.1004 32.1838 31.3057 32.5255 30.7398 33.1003C30.1717 33.6751 29.8646 34.467 29.8152 35.2739C29.7325 36.0776 29.8624 36.9167 30.322 37.5839C30.7752 38.2533 31.5162 38.7024 32.3087 38.9345C31.4969 38.7862 30.6893 38.3855 30.176 37.6882C29.6519 36.9962 29.5134 36.0905 29.5832 35.2546C29.6519 34.4143 29.9816 33.5569 30.6152 32.9735C31.2424 32.3837 32.094 32.0989 32.9219 32.0903Z" fill="#804B24"/>
<path d="M33.6501 24.7773C32.7717 25.018 31.8986 25.35 31.2059 25.9206C30.5079 26.4879 30.1299 27.3635 30.1879 28.2607C30.176 29.1514 30.4671 30.0604 31.1436 30.6503C31.8105 31.2477 32.7104 31.5378 33.5986 31.7269C32.6976 31.6205 31.76 31.3949 31.0266 30.7846C30.2759 30.1829 29.957 29.1858 29.9559 28.2629C29.9076 27.3249 30.3296 26.3428 31.0942 25.782C31.8438 25.2071 32.7534 24.9364 33.6501 24.7773Z" fill="#804B24"/>
<path d="M30.625 43.1782C31.2296 44.2258 32.3916 44.7684 33.5396 44.9231C34.708 45.1036 35.885 45.2272 37.0652 45.3024C38.2432 45.4023 39.4256 45.4646 40.608 45.4603C41.1986 45.4528 41.7903 45.4378 42.3778 45.3797C42.9652 45.3325 43.558 45.2723 44.1228 45.0864C43.0049 45.5065 41.7925 45.5731 40.6112 45.615C39.4235 45.6451 38.2347 45.6118 37.0491 45.5345C35.8656 45.4324 34.6854 45.283 33.5149 45.0757C32.9264 44.979 32.34 44.7963 31.8245 44.4826C31.3112 44.1656 30.8903 43.709 30.625 43.1782Z" fill="#804B24"/>
<path d="M30.4839 37.9263C30.9371 38.3775 31.5202 38.6752 32.1291 38.8267C32.7348 39.0082 33.3716 38.9685 34.0116 38.9975L37.8337 39.1082L41.6535 39.2962C42.9207 39.3736 44.2105 39.3908 45.4251 38.9749C44.2416 39.4799 42.9121 39.5208 41.6503 39.4509L37.8283 39.3403L34.0084 39.1511C33.3802 39.1082 32.7197 39.1383 32.098 38.9352C31.4837 38.7429 30.9092 38.4044 30.4839 37.9263Z" fill="#804B24"/>
<path d="M44.1374 32.0677C43.2235 32.0699 42.3086 32.0957 41.3947 32.0871L38.653 32.0924L35.9124 32.13C34.9996 32.1354 34.0846 32.1408 33.175 32.1773H33.1675C32.2687 32.1623 31.3376 32.4696 30.69 33.1132C30.0296 33.7503 29.7182 34.6776 29.6763 35.6016C29.6838 35.1385 29.7332 34.6711 29.8749 34.2231C30.0188 33.7761 30.2648 33.3581 30.5987 33.0218C31.2646 32.3374 32.2246 31.9979 33.1718 31.9957H33.1643C34.9953 31.8851 36.8241 31.884 38.653 31.913C40.4829 31.9334 42.3107 31.9678 44.1374 32.0677Z" fill="#804B24"/>
<defs>
<linearGradient id="paint0_linear_52_1244" x1="37.5686" y1="28.4191" x2="24.2389" y2="28.954" gradientUnits="userSpaceOnUse">
<stop offset="0.00132565" stop-color="#FFCB4B"/>
<stop offset="1" stop-color="#FFD748"/>
</linearGradient>
<linearGradient id="paint1_linear_52_1244" x1="23.1808" y1="46.9031" x2="22.9128" y2="39.8935" gradientUnits="userSpaceOnUse">
<stop offset="0.00132565" stop-color="#FFCB4B"/>
<stop offset="1" stop-color="#FFD748"/>
</linearGradient>
<linearGradient id="paint2_linear_52_1244" x1="21.4723" y1="20.5151" x2="31.5139" y2="34.872" gradientUnits="userSpaceOnUse">
<stop offset="0.00132565" stop-color="#FFCB4B"/>
<stop offset="1" stop-color="#FFD748"/>
</linearGradient>
<linearGradient id="paint3_linear_52_1244" x1="14.2053" y1="14.795" x2="39.9236" y2="16.7213" gradientUnits="userSpaceOnUse">
<stop offset="0.3118" stop-color="#FFBC47" stop-opacity="0"/>
<stop offset="1" stop-color="#FF8900"/>
</linearGradient>
<linearGradient id="paint4_linear_52_1244" x1="13.7156" y1="37.661" x2="47.4881" y2="37.661" gradientUnits="userSpaceOnUse">
<stop stop-color="#FFBC47" stop-opacity="0"/>
<stop offset="1" stop-color="#FFA754"/>
</linearGradient>
<linearGradient id="paint5_linear_52_1244" x1="8.27028" y1="37.7122" x2="74.9914" y2="39.8377" gradientUnits="userSpaceOnUse">
<stop stop-color="#FFBC47" stop-opacity="0"/>
<stop offset="1" stop-color="#C86F34"/>
</linearGradient>
<linearGradient id="paint6_linear_52_1244" x1="18.8716" y1="46.431" x2="29.9057" y2="40.4517" gradientUnits="userSpaceOnUse">
<stop stop-color="#FFBC47" stop-opacity="0"/>
<stop offset="1" stop-color="#C86F34"/>
</linearGradient>
<linearGradient id="paint7_linear_52_1244" x1="31.5118" y1="37.9414" x2="40.7128" y2="36.7331" gradientUnits="userSpaceOnUse">
<stop stop-color="#643800" stop-opacity="0"/>
<stop offset="1" stop-color="#643800"/>
</linearGradient>
<linearGradient id="paint8_linear_52_1244" x1="15.1819" y1="17.6284" x2="17.1776" y2="50.6734" gradientUnits="userSpaceOnUse">
<stop stop-color="#FFBC47" stop-opacity="0"/>
<stop offset="1" stop-color="#FFA754"/>
</linearGradient>
<linearGradient id="paint9_linear_52_1244" x1="45.73" y1="28.241" x2="32.6735" y2="28.241" gradientUnits="userSpaceOnUse">
<stop offset="0.00132565" stop-color="#FFBC47"/>
<stop offset="1" stop-color="#FFD748"/>
</linearGradient>
<linearGradient id="paint10_linear_52_1244" x1="45.7302" y1="42.0392" x2="32.6666" y2="42.0392" gradientUnits="userSpaceOnUse">
<stop offset="0.00132565" stop-color="#FFBC47"/>
<stop offset="1" stop-color="#FFD748"/>
</linearGradient>
<linearGradient id="paint11_linear_52_1244" x1="45.7303" y1="48.2233" x2="32.6738" y2="48.2233" gradientUnits="userSpaceOnUse">
<stop offset="0.00132565" stop-color="#FFBC47"/>
<stop offset="1" stop-color="#FFD748"/>
</linearGradient>
<linearGradient id="paint12_linear_52_1244" x1="30.9136" y1="28.3058" x2="37.7142" y2="28.1508" gradientUnits="userSpaceOnUse">
<stop offset="0.00132565" stop-color="#FFCB4B"/>
<stop offset="1" stop-color="#FFD748"/>
</linearGradient>
<linearGradient id="paint13_linear_52_1244" x1="42.8062" y1="42.132" x2="35.8741" y2="42.132" gradientUnits="userSpaceOnUse">
<stop offset="0.00132565" stop-color="#FFCB4B"/>
<stop offset="1" stop-color="#FFD748"/>
</linearGradient>
<linearGradient id="paint14_linear_52_1244" x1="42.8062" y1="48.2233" x2="35.874" y2="48.2233" gradientUnits="userSpaceOnUse">
<stop offset="0.00132565" stop-color="#FFCB4B"/>
<stop offset="1" stop-color="#FFD748"/>
</linearGradient>
<linearGradient id="paint15_linear_52_1244" x1="34.3441" y1="28.1459" x2="30.6454" y2="28.1459" gradientUnits="userSpaceOnUse">
<stop offset="0.00132565" stop-color="#FBA23B" stop-opacity="0"/>
<stop offset="1" stop-color="#FBA23B"/>
</linearGradient>
<linearGradient id="paint16_linear_52_1244" x1="33.6794" y1="28.2524" x2="29.4258" y2="28.2524" gradientUnits="userSpaceOnUse">
<stop offset="0.00132565" stop-color="#FFBC47"/>
<stop offset="1" stop-color="#E89043"/>
</linearGradient>
<radialGradient id="paint17_radial_52_1244" cx="0" cy="0" r="1" gradientUnits="userSpaceOnUse" gradientTransform="translate(23.3823 44.1668) rotate(23.5251) scale(5.19266 2.41088)">
<stop stop-color="#FBE07A"/>
<stop offset="1" stop-color="#FFD748" stop-opacity="0"/>
</radialGradient>
<radialGradient id="paint18_radial_52_1244" cx="0" cy="0" r="1" gradientUnits="userSpaceOnUse" gradientTransform="translate(39.0927 28.2732) rotate(2.02718) scale(4.44294 2.91604)">
<stop stop-color="#FBE07A"/>
<stop offset="1" stop-color="#FFD748"/>
</radialGradient>
<radialGradient id="paint19_radial_52_1244" cx="0" cy="0" r="1" gradientUnits="userSpaceOnUse" gradientTransform="translate(38.8779 42.5899) rotate(-0.0544055) scale(4.77143 2.57216)">
<stop stop-color="#FBE07A"/>
<stop offset="1" stop-color="#FFD748" stop-opacity="0"/>
</radialGradient>
<radialGradient id="paint20_radial_52_1244" cx="0" cy="0" r="1" gradientUnits="userSpaceOnUse" gradientTransform="translate(37.2272 48.3733) rotate(-0.0539601) scale(4.36863 2.73422)">
<stop stop-color="#FBE07A"/>
<stop offset="1" stop-color="#FFD748" stop-opacity="0"/>
</radialGradient>
<linearGradient id="paint21_linear_52_1244" x1="34.7872" y1="41.9656" x2="29.4265" y2="41.9656" gradientUnits="userSpaceOnUse">
<stop offset="0.00132565" stop-color="#FBA23B" stop-opacity="0"/>
<stop offset="1" stop-color="#FBA23B"/>
</linearGradient>
<linearGradient id="paint22_linear_52_1244" x1="33.648" y1="41.7781" x2="30.7604" y2="41.7781" gradientUnits="userSpaceOnUse">
<stop offset="0.00132565" stop-color="#FFBC47"/>
<stop offset="1" stop-color="#FBA23B"/>
</linearGradient>
<linearGradient id="paint23_linear_52_1244" x1="34.5945" y1="48.2586" x2="28.3254" y2="47.1072" gradientUnits="userSpaceOnUse">
<stop offset="0.00132565" stop-color="#FBA23B" stop-opacity="0"/>
<stop offset="1" stop-color="#FBA23B"/>
</linearGradient>
<linearGradient id="paint24_linear_52_1244" x1="33.9463" y1="48.0535" x2="31.2964" y2="48.0535" gradientUnits="userSpaceOnUse">
<stop offset="0.00132565" stop-color="#FFBC47"/>
<stop offset="1" stop-color="#FBA23B"/>
</linearGradient>
<linearGradient id="paint25_linear_52_1244" x1="38.1703" y1="27.4183" x2="39.8555" y2="35.574" gradientUnits="userSpaceOnUse">
<stop stop-color="#FFBC47" stop-opacity="0"/>
<stop offset="1" stop-color="#C86F34"/>
</linearGradient>
<linearGradient id="paint26_linear_52_1244" x1="39.4505" y1="43.5322" x2="37.6118" y2="36.8985" gradientUnits="userSpaceOnUse">
<stop stop-color="#FFBC47" stop-opacity="0"/>
<stop offset="1" stop-color="#C86F34"/>
</linearGradient>
<linearGradient id="paint27_linear_52_1244" x1="45.7304" y1="35.7051" x2="32.6739" y2="35.7051" gradientUnits="userSpaceOnUse">
<stop offset="0.00132565" stop-color="#FFBC47"/>
<stop offset="1" stop-color="#FFD748"/>
</linearGradient>
<linearGradient id="paint28_linear_52_1244" x1="32.1472" y1="35.3405" x2="42.1487" y2="35.7058" gradientUnits="userSpaceOnUse">
<stop offset="0.00132565" stop-color="#FFCB4B"/>
<stop offset="0.7382" stop-color="#FFD748"/>
<stop offset="1" stop-color="#FFCB4B"/>
</linearGradient>
<linearGradient id="paint29_linear_52_1244" x1="36.0501" y1="35.5702" x2="28.5778" y2="35.5702" gradientUnits="userSpaceOnUse">
<stop offset="0.00132565" stop-color="#FBA23B" stop-opacity="0"/>
<stop offset="1" stop-color="#FBA23B"/>
</linearGradient>
<radialGradient id="paint30_radial_52_1244" cx="0" cy="0" r="1" gradientUnits="userSpaceOnUse" gradientTransform="translate(40.3885 35.5851) rotate(-2.73606) scale(4.88565 3.20677)">
<stop stop-color="#FBE07A"/>
<stop offset="1" stop-color="#FFD748" stop-opacity="0"/>
</radialGradient>
<linearGradient id="paint31_linear_52_1244" x1="32.5768" y1="35.5611" x2="30.2176" y2="35.5611" gradientUnits="userSpaceOnUse">
<stop offset="0.00132565" stop-color="#FFBC47"/>
<stop offset="1" stop-color="#FBA23B"/>
</linearGradient>
<linearGradient id="paint32_linear_52_1244" x1="38.7898" y1="34.8418" x2="40.2089" y2="43.8618" gradientUnits="userSpaceOnUse">
<stop stop-color="#FFBC47" stop-opacity="0"/>
<stop offset="1" stop-color="#C86F34"/>
</linearGradient>
<linearGradient id="paint33_linear_52_1244" x1="37.8064" y1="41.8198" x2="41.4424" y2="49.7084" gradientUnits="userSpaceOnUse">
<stop stop-color="#FFBC47" stop-opacity="0"/>
<stop offset="1" stop-color="#C86F34"/>
</linearGradient>
<linearGradient id="paint34_linear_52_1244" x1="37.0825" y1="48.7402" x2="37.6146" y2="53.7268" gradientUnits="userSpaceOnUse">
<stop stop-color="#FFBC47" stop-opacity="0"/>
<stop offset="1" stop-color="#C86F34"/>
</linearGradient>
<linearGradient id="paint35_linear_52_1244" x1="37.2079" y1="47.9839" x2="37.2079" y2="44.3767" gradientUnits="userSpaceOnUse">
<stop stop-color="#FFBC47" stop-opacity="0"/>
<stop offset="1" stop-color="#C86F34"/>
</linearGradient>
<linearGradient id="paint36_linear_52_1244" x1="12.855" y1="38.0258" x2="1.54967" y2="55.1082" gradientUnits="userSpaceOnUse">
<stop stop-color="#C86F34" stop-opacity="0"/>
<stop offset="1" stop-color="#C86F34"/>
</linearGradient>
<linearGradient id="paint37_linear_52_1244" x1="12.1086" y1="41.8039" x2="13.9712" y2="50.1146" gradientUnits="userSpaceOnUse">
<stop stop-color="#FFBC47" stop-opacity="0"/>
<stop offset="1" stop-color="#C86F34"/>
</linearGradient>
<linearGradient id="paint38_linear_52_1244" x1="13.2365" y1="43.3634" x2="12.9704" y2="53.536" gradientUnits="userSpaceOnUse">
<stop stop-color="#FFBC47" stop-opacity="0"/>
<stop offset="1" stop-color="#C86F34"/>
</linearGradient>
<radialGradient id="paint39_radial_52_1244" cx="0" cy="0" r="1" gradientUnits="userSpaceOnUse" gradientTransform="translate(29.0118 11.0708) rotate(79.0714) scale(4.6846 2.74812)">
<stop stop-color="#FBE07A"/>
<stop offset="1" stop-color="#FFD748" stop-opacity="0"/>
</radialGradient>
</defs>
</svg>
