<svg width="91" height="40" viewBox="0 0 91 40" fill="none" xmlns="http://www.w3.org/2000/svg">
<rect x="1.5" y="9.5" width="88" height="29" rx="1.5" fill="white"/>
<path d="M11.184 28.038H14.356V29H10.001V19.939H11.184V28.038ZM16.2233 20.719C15.998 20.719 15.8073 20.641 15.6513 20.485C15.4953 20.329 15.4173 20.1383 15.4173 19.913C15.4173 19.6877 15.4953 19.497 15.6513 19.341C15.8073 19.185 15.998 19.107 16.2233 19.107C16.44 19.107 16.622 19.185 16.7693 19.341C16.9253 19.497 17.0033 19.6877 17.0033 19.913C17.0033 20.1383 16.9253 20.329 16.7693 20.485C16.622 20.641 16.44 20.719 16.2233 20.719ZM16.7953 21.876V29H15.6123V21.876H16.7953ZM22.2825 21.746C23.1492 21.746 23.8512 22.0103 24.3885 22.539C24.9259 23.059 25.1945 23.813 25.1945 24.801V29H24.0245V24.97C24.0245 24.2593 23.8469 23.7177 23.4915 23.345C23.1362 22.9637 22.6509 22.773 22.0355 22.773C21.4115 22.773 20.9132 22.968 20.5405 23.358C20.1765 23.748 19.9945 24.3157 19.9945 25.061V29H18.8115V21.876H19.9945V22.89C20.2285 22.526 20.5449 22.2443 20.9435 22.045C21.3509 21.8457 21.7972 21.746 22.2825 21.746ZM31.105 29L28.31 25.854V29H27.127V19.38H28.31V25.035L31.053 21.876H32.704L29.35 25.425L32.717 29H31.105ZM36.8412 25.425C36.8412 24.6883 36.9886 24.047 37.2832 23.501C37.5779 22.9463 37.9852 22.5173 38.5052 22.214C39.0339 21.9107 39.6362 21.759 40.3122 21.759C41.1876 21.759 41.9069 21.9713 42.4702 22.396C43.0422 22.8207 43.4192 23.41 43.6012 24.164H42.3272C42.2059 23.7307 41.9676 23.3883 41.6122 23.137C41.2656 22.8857 40.8322 22.76 40.3122 22.76C39.6362 22.76 39.0902 22.994 38.6742 23.462C38.2582 23.9213 38.0502 24.5757 38.0502 25.425C38.0502 26.283 38.2582 26.946 38.6742 27.414C39.0902 27.882 39.6362 28.116 40.3122 28.116C40.8322 28.116 41.2656 27.9947 41.6122 27.752C41.9589 27.5093 42.1972 27.1627 42.3272 26.712H43.6012C43.4106 27.44 43.0292 28.025 42.4572 28.467C41.8852 28.9003 41.1702 29.117 40.3122 29.117C39.6362 29.117 39.0339 28.9653 38.5052 28.662C37.9852 28.3587 37.5779 27.9297 37.2832 27.375C36.9886 26.8203 36.8412 26.1703 36.8412 25.425ZM48.2867 29.117C47.6194 29.117 47.0127 28.9653 46.4667 28.662C45.9294 28.3587 45.5047 27.9297 45.1927 27.375C44.8894 26.8117 44.7377 26.1617 44.7377 25.425C44.7377 24.697 44.8937 24.0557 45.2057 23.501C45.5264 22.9377 45.9597 22.5087 46.5057 22.214C47.0517 21.9107 47.6627 21.759 48.3387 21.759C49.0147 21.759 49.6257 21.9107 50.1717 22.214C50.7177 22.5087 51.1467 22.9333 51.4587 23.488C51.7794 24.0427 51.9397 24.6883 51.9397 25.425C51.9397 26.1617 51.775 26.8117 51.4457 27.375C51.125 27.9297 50.6874 28.3587 50.1327 28.662C49.578 28.9653 48.9627 29.117 48.2867 29.117ZM48.2867 28.077C48.7114 28.077 49.11 27.9773 49.4827 27.778C49.8554 27.5787 50.1544 27.2797 50.3797 26.881C50.6137 26.4823 50.7307 25.997 50.7307 25.425C50.7307 24.853 50.618 24.3677 50.3927 23.969C50.1674 23.5703 49.8727 23.2757 49.5087 23.085C49.1447 22.8857 48.7504 22.786 48.3257 22.786C47.8924 22.786 47.4937 22.8857 47.1297 23.085C46.7744 23.2757 46.4884 23.5703 46.2717 23.969C46.055 24.3677 45.9467 24.853 45.9467 25.425C45.9467 26.0057 46.0507 26.4953 46.2587 26.894C46.4754 27.2927 46.7614 27.5917 47.1167 27.791C47.472 27.9817 47.862 28.077 48.2867 28.077ZM54.6781 23.189C54.9121 22.7817 55.2588 22.4437 55.7181 22.175C56.1861 21.8977 56.7278 21.759 57.3431 21.759C57.9758 21.759 58.5478 21.9107 59.0591 22.214C59.5791 22.5173 59.9865 22.9463 60.2811 23.501C60.5758 24.047 60.7231 24.684 60.7231 25.412C60.7231 26.1313 60.5758 26.7727 60.2811 27.336C59.9865 27.8993 59.5791 28.337 59.0591 28.649C58.5478 28.961 57.9758 29.117 57.3431 29.117C56.7365 29.117 56.1991 28.9827 55.7311 28.714C55.2718 28.4367 54.9208 28.0943 54.6781 27.687V32.38H53.4951V21.876H54.6781V23.189ZM59.5141 25.412C59.5141 24.8747 59.4058 24.4067 59.1891 24.008C58.9725 23.6093 58.6778 23.306 58.3051 23.098C57.9411 22.89 57.5381 22.786 57.0961 22.786C56.6628 22.786 56.2598 22.8943 55.8871 23.111C55.5231 23.319 55.2285 23.6267 55.0031 24.034C54.7865 24.4327 54.6781 24.8963 54.6781 25.425C54.6781 25.9623 54.7865 26.4347 55.0031 26.842C55.2285 27.2407 55.5231 27.5483 55.8871 27.765C56.2598 27.973 56.6628 28.077 57.0961 28.077C57.5381 28.077 57.9411 27.973 58.3051 27.765C58.6778 27.5483 58.9725 27.2407 59.1891 26.842C59.4058 26.4347 59.5141 25.958 59.5141 25.412ZM62.8913 20.719C62.666 20.719 62.4753 20.641 62.3193 20.485C62.1633 20.329 62.0853 20.1383 62.0853 19.913C62.0853 19.6877 62.1633 19.497 62.3193 19.341C62.4753 19.185 62.666 19.107 62.8913 19.107C63.108 19.107 63.29 19.185 63.4373 19.341C63.5933 19.497 63.6713 19.6877 63.6713 19.913C63.6713 20.1383 63.5933 20.329 63.4373 20.485C63.29 20.641 63.108 20.719 62.8913 20.719ZM63.4633 21.876V29H62.2803V21.876H63.4633ZM71.9795 25.165C71.9795 25.3903 71.9665 25.6287 71.9405 25.88H66.2465C66.2898 26.582 66.5282 27.1323 66.9615 27.531C67.4035 27.921 67.9365 28.116 68.5605 28.116C69.0718 28.116 69.4965 27.999 69.8345 27.765C70.1812 27.5223 70.4238 27.2017 70.5625 26.803H71.8365C71.6458 27.4877 71.2645 28.0467 70.6925 28.48C70.1205 28.9047 69.4098 29.117 68.5605 29.117C67.8845 29.117 67.2778 28.9653 66.7405 28.662C66.2118 28.3587 65.7958 27.9297 65.4925 27.375C65.1892 26.8117 65.0375 26.1617 65.0375 25.425C65.0375 24.6883 65.1848 24.0427 65.4795 23.488C65.7742 22.9333 66.1858 22.5087 66.7145 22.214C67.2518 21.9107 67.8672 21.759 68.5605 21.759C69.2365 21.759 69.8345 21.9063 70.3545 22.201C70.8745 22.4957 71.2732 22.903 71.5505 23.423C71.8365 23.9343 71.9795 24.515 71.9795 25.165ZM70.7575 24.918C70.7575 24.4673 70.6578 24.0817 70.4585 23.761C70.2592 23.4317 69.9862 23.1847 69.6395 23.02C69.3015 22.8467 68.9245 22.76 68.5085 22.76C67.9105 22.76 67.3992 22.9507 66.9745 23.332C66.5585 23.7133 66.3202 24.242 66.2595 24.918H70.7575ZM73.099 25.412C73.099 24.684 73.2464 24.047 73.541 23.501C73.8357 22.9463 74.2387 22.5173 74.75 22.214C75.27 21.9107 75.8507 21.759 76.492 21.759C77.0467 21.759 77.5624 21.889 78.039 22.149C78.5157 22.4003 78.8797 22.734 79.131 23.15V19.38H80.327V29H79.131V27.661C78.897 28.0857 78.5504 28.4367 78.091 28.714C77.6317 28.9827 77.0944 29.117 76.479 29.117C75.8464 29.117 75.27 28.961 74.75 28.649C74.2387 28.337 73.8357 27.8993 73.541 27.336C73.2464 26.7727 73.099 26.1313 73.099 25.412ZM79.131 25.425C79.131 24.8877 79.0227 24.4197 78.806 24.021C78.5894 23.6223 78.2947 23.319 77.922 23.111C77.558 22.8943 77.155 22.786 76.713 22.786C76.271 22.786 75.868 22.89 75.504 23.098C75.14 23.306 74.8497 23.6093 74.633 24.008C74.4164 24.4067 74.308 24.8747 74.308 25.412C74.308 25.958 74.4164 26.4347 74.633 26.842C74.8497 27.2407 75.14 27.5483 75.504 27.765C75.868 27.973 76.271 28.077 76.713 28.077C77.155 28.077 77.558 27.973 77.922 27.765C78.2947 27.5483 78.5894 27.2407 78.806 26.842C79.0227 26.4347 79.131 25.9623 79.131 25.425Z" fill="black"/>
<rect x="1.5" y="9.5" width="88" height="29" rx="1.5" stroke="#E8E8E1"/>
<g clip-path="url(#clip0_1896_19142)">
<path d="M40.5 10.5H39.4325L40.1159 9.67991L45.1159 3.67991L45.5 3.21898L45.8841 3.67991L50.8841 9.67991L51.5675 10.5H50.5H40.5Z" fill="white" stroke="#E8E8E1" stroke-linejoin="round"/>
</g>
<defs>
<clipPath id="clip0_1896_19142">
<rect width="87" height="8" fill="white" transform="matrix(1 0 0 -1 2 10)"/>
</clipPath>
</defs>
</svg>
