<svg width="32" height="32" viewBox="0 0 32 32" fill="none" xmlns="http://www.w3.org/2000/svg">
<path d="M26.9431 6.93651C27.0089 6.93651 27.075 6.91419 27.1293 6.86842C27.2515 6.76558 27.2671 6.58307 27.1642 6.46073L26.7996 6.0279C26.6967 5.90556 26.5141 5.89002 26.392 5.99315C26.2698 6.09599 26.2541 6.2785 26.3571 6.40084L26.7217 6.83367C26.7789 6.90148 26.8607 6.93651 26.9431 6.93651Z" fill="#1C1D1D"/>
<path d="M27.5748 7.84688L27.9396 8.27972C27.9968 8.34752 28.0786 8.38256 28.1609 8.38256C28.2268 8.38256 28.293 8.36024 28.3473 8.31447C28.4695 8.21163 28.485 8.02911 28.382 7.90678L28.0173 7.47394C27.914 7.35161 27.7316 7.33607 27.6096 7.43919C27.4874 7.54203 27.4718 7.72455 27.5748 7.84688Z" fill="#1C1D1D"/>
<path d="M27.6548 6.91368C27.712 6.98148 27.7938 7.01652 27.8761 7.01652C27.9419 7.01652 28.0082 6.9942 28.0624 6.94843L28.4953 6.58368C28.6175 6.48084 28.633 6.29833 28.53 6.17599C28.4269 6.05394 28.2441 6.03784 28.1223 6.14124L27.6895 6.50599C27.5673 6.60883 27.5518 6.79134 27.6548 6.91368Z" fill="#1C1D1D"/>
<path d="M26.2087 8.13167C26.2659 8.19948 26.3477 8.23451 26.4301 8.23451C26.4959 8.23451 26.5622 8.21219 26.6164 8.16642L27.0492 7.80168C27.1714 7.69884 27.187 7.51632 27.084 7.39399C26.9809 7.27165 26.7982 7.25611 26.6763 7.35924L26.2435 7.72398C26.1213 7.82682 26.1057 8.00934 26.2087 8.13167Z" fill="#1C1D1D"/>
<path d="M3.29668 10.4094C3.17448 10.5123 3.1588 10.6948 3.26178 10.8171L3.62639 11.25C3.6836 11.3178 3.76539 11.3528 3.84775 11.3528C3.91358 11.3528 3.97969 11.3305 4.03393 11.2847C4.15613 11.1819 4.17181 10.9994 4.06883 10.877L3.70422 10.4442C3.60124 10.3221 3.41859 10.306 3.29668 10.4094Z" fill="#1C1D1D"/>
<path d="M5.06564 12.7988C5.13147 12.7988 5.19758 12.7765 5.25183 12.7308C5.37402 12.6279 5.3897 12.4454 5.28672 12.3231L4.92212 11.8902C4.81885 11.7682 4.63648 11.7524 4.51457 11.8555C4.39238 11.9583 4.3767 12.1408 4.47968 12.2632L4.84428 12.696C4.90149 12.7638 4.98329 12.7988 5.06564 12.7988Z" fill="#1C1D1D"/>
<path d="M5.02725 10.5575L4.59441 10.9222C4.47222 11.0251 4.45668 11.2076 4.55966 11.3299C4.61687 11.3977 4.69867 11.4328 4.78102 11.4328C4.84685 11.4328 4.91311 11.4104 4.96735 11.3647L5.40019 10.9999C5.52238 10.8971 5.53792 10.7146 5.43494 10.5922C5.33196 10.4699 5.1493 10.4544 5.02725 10.5575Z" fill="#1C1D1D"/>
<path d="M3.58123 11.7755L3.1484 12.1403C3.02621 12.2431 3.01067 12.4256 3.11365 12.548C3.17086 12.6158 3.25265 12.6508 3.33501 12.6508C3.40084 12.6508 3.46709 12.6285 3.52134 12.5827L3.95417 12.218C4.07637 12.1151 4.0919 11.9326 3.98892 11.8103C3.88608 11.6882 3.70314 11.6724 3.58123 11.7755Z" fill="#1C1D1D"/>
<path d="M2.98132 3.10297C2.8782 2.98064 2.69554 2.9651 2.57377 3.06822C2.45158 3.17106 2.4359 3.35357 2.53888 3.47591L2.90349 3.90874C2.9607 3.97655 3.04249 4.01158 3.12485 4.01158C3.19068 4.01158 3.25679 3.98926 3.31103 3.9435C3.43323 3.84065 3.44891 3.65814 3.34593 3.53581L2.98132 3.10297Z" fill="#1C1D1D"/>
<path d="M4.12138 5.3547C4.17859 5.4225 4.26039 5.45754 4.34274 5.45754C4.40857 5.45754 4.47468 5.43522 4.52893 5.38945C4.65112 5.28661 4.6668 5.10409 4.56382 4.98176L4.19922 4.54892C4.0961 4.42687 3.91372 4.41105 3.79167 4.51417C3.66948 4.61701 3.6538 4.79953 3.75678 4.92186L4.12138 5.3547Z" fill="#1C1D1D"/>
<path d="M4.3044 3.2162L3.87143 3.58094C3.74909 3.68378 3.73355 3.8663 3.83654 3.98863C3.89375 4.05644 3.97554 4.09147 4.0579 4.09147C4.12373 4.09147 4.18984 4.06915 4.24408 4.02338L4.67706 3.65864C4.79939 3.5558 4.81493 3.37329 4.71195 3.25095C4.60897 3.1289 4.42632 3.11308 4.3044 3.2162Z" fill="#1C1D1D"/>
<path d="M2.85833 4.43421L2.4255 4.79896C2.30331 4.9018 2.28777 5.08431 2.39075 5.20664C2.44796 5.27445 2.52975 5.30949 2.61211 5.30949C2.67794 5.30949 2.74419 5.28717 2.79844 5.2414L3.23127 4.87665C3.35347 4.77381 3.369 4.5913 3.26602 4.46896C3.16304 4.34691 2.98039 4.33081 2.85833 4.43421Z" fill="#1C1D1D"/>
<path d="M23.182 4.71596C23.182 3.93222 22.5444 3.29456 21.7607 3.29456C20.9785 3.29456 20.3423 3.93222 20.3423 4.71596C20.3423 5.498 20.9785 6.13425 21.7607 6.13425C22.5444 6.13425 23.182 5.498 23.182 4.71596ZM20.9209 4.71596C20.9209 4.2512 21.2976 3.87317 21.7607 3.87317C22.2253 3.87317 22.6033 4.2512 22.6033 4.71596C22.6033 5.17902 22.2253 5.55563 21.7607 5.55563C21.2976 5.55563 20.9209 5.17902 20.9209 4.71596Z" fill="#1C1D1D"/>
<path d="M29.7107 28.1729H29.1365C28.9767 28.1729 28.8472 28.3022 28.8472 28.4622C28.8472 28.6221 28.9767 28.7515 29.1365 28.7515H29.7107C29.8705 28.7515 30 28.6221 30 28.4622C30 28.3022 29.8705 28.1729 29.7107 28.1729Z" fill="#1C1D1D"/>
<path d="M2.2894 28.7515H2.7762C2.93597 28.7515 3.06551 28.6221 3.06551 28.4622C3.06551 28.3022 2.93597 28.1729 2.7762 28.1729H2.2894C2.12963 28.1729 2.00009 28.3022 2.00009 28.4622C2.00009 28.6221 2.12963 28.7515 2.2894 28.7515Z" fill="#1C1D1D"/>
<path d="M2.26414 19.7868C2.11949 22.1447 2.92666 24.3839 4.53522 26.0966C5.40835 27.0247 6.44622 27.7245 7.58808 28.173H3.83958C3.67981 28.173 3.55027 28.3023 3.55027 28.4623C3.55027 28.6222 3.67981 28.7516 3.83958 28.7516H28.0281C28.1879 28.7516 28.3175 28.6222 28.3175 28.4623C28.3175 28.3023 28.1879 28.173 28.0281 28.173H24.3898C27.5248 26.9457 29.7514 23.8884 29.7514 20.322C29.7514 16.6362 27.3704 13.4914 24.0636 12.3544C24.0622 12.3539 24.0607 12.3535 24.0592 12.353C24.5639 11.7408 24.9358 11.037 24.9402 10.2827C24.9473 9.02569 23.9285 7.99672 22.6674 7.98937C22.265 7.98937 21.8427 8.15465 21.4124 8.48012C21.3661 8.51516 21.3024 8.51487 21.2572 8.47984C20.8296 8.15126 20.4072 7.98203 19.998 7.97694C18.7414 7.97694 17.7134 8.9932 17.7064 10.2428C17.7041 11.0096 18.0811 11.7271 18.5918 12.3509C18.5912 12.3511 18.5905 12.3513 18.5899 12.3516C17.6554 12.6698 16.7759 13.1529 16.0006 13.7894C15.0666 13.0231 13.9995 12.4765 12.8545 12.1755L15.2867 9.44722C15.5194 9.18592 15.5136 8.79216 15.2802 8.53557L15.279 8.53426C15.2787 8.53395 15.2785 8.53356 15.2782 8.53324L13.5745 6.69143C13.3727 6.47304 13.0863 6.34788 12.7888 6.34788C9.09958 6.34788 8.7622 6.34723 8.59117 6.34926C8.28489 6.3536 8.02952 6.47943 7.82756 6.68109V6.68199C7.82731 6.68223 7.82701 6.68243 7.82677 6.68268L6.08102 8.52815C6.08014 8.52909 6.07959 8.5302 6.07871 8.53114L6.07724 8.53267C5.82962 8.80508 5.84848 9.20673 6.07156 9.45259L8.53985 12.1693H8.53927C5.08491 13.0661 2.48981 16.1068 2.26414 19.7868ZM13.7403 28.173C14.5554 27.8547 15.3213 27.4125 16.0035 26.8546C16.6769 27.4067 17.4342 27.8547 18.2579 28.173H13.7403ZM18.285 10.2454C18.2902 9.31358 19.0587 8.55556 19.9943 8.55556C20.2722 8.55895 20.5784 8.68806 20.9045 8.93839C21.1558 9.1322 21.5079 9.13333 21.7615 8.94178C22.0891 8.69372 22.394 8.56799 22.6657 8.56799C23.6061 8.57364 24.3669 9.34127 24.3616 10.2793C24.3576 10.9543 23.9624 11.6057 23.4531 12.1686C22.1022 11.8142 20.6324 11.7927 19.1976 12.1664C18.6838 11.5933 18.283 10.9305 18.285 10.2454ZM21.321 12.4731C25.6519 12.4731 29.1728 15.994 29.1728 20.322C29.1728 24.6375 25.6722 28.1525 21.3585 28.173H21.2989C19.4589 28.1678 17.7686 27.5273 16.4316 26.4554C16.7043 26.1897 17.0525 25.8145 17.3487 25.437C18.4799 26.3165 19.8802 26.7997 21.321 26.7997C24.8939 26.7997 27.7986 23.8921 27.7986 20.322C27.7986 16.752 24.8939 13.8473 21.321 13.8473C19.8889 13.8473 18.4944 14.3218 17.3661 15.1926C17.0942 14.8367 16.7875 14.4982 16.4519 14.1829C16.449 14.18 16.4461 14.1771 16.4432 14.1742C17.8261 13.0748 19.5446 12.4731 21.321 12.4731ZM17.693 24.9712C17.9245 24.6356 18.1212 24.3 18.2861 23.9558C18.83 22.8159 19.1049 21.595 19.1049 20.322C19.1049 18.6325 18.6188 17.0326 17.7046 15.667C18.7374 14.8628 20.0104 14.4259 21.321 14.4259C24.5757 14.4259 27.22 17.0702 27.22 20.322C27.22 23.5739 24.5757 26.2211 21.321 26.2211C20.0046 26.2211 18.7259 25.7784 17.693 24.9712ZM12.2087 12.0306C12.2084 12.0306 12.208 12.0305 12.2077 12.0304C12.0834 12.0073 11.9591 11.9871 11.8348 11.9726L12.8196 9.40927H14.5455L12.2087 12.0306ZM11.2373 11.9147C10.876 11.8887 10.5119 11.8887 10.142 11.9118H10.1334C10.1332 11.9118 10.133 11.9118 10.1329 11.9118L9.15292 9.40927H12.1998L11.2373 11.9147ZM12.7892 6.92701C12.8989 6.92701 13.0295 6.97145 13.1264 7.06356C13.1878 7.12354 14.2171 8.23937 14.7652 8.83065H12.9185L12.1596 6.92701H12.7892ZM9.8318 6.92701H11.5369L12.2957 8.83065H9.05559L9.8318 6.92701ZM8.24703 7.08048C8.34441 6.97774 8.49297 6.92701 8.60291 6.92701H9.2069L8.43076 8.83065H6.59143L8.24703 7.08048ZM6.81424 9.40927H8.53164L9.53529 11.9725C9.48984 11.9788 9.38198 11.9907 9.19311 12.0246C9.19237 12.0248 9.19163 12.025 9.19089 12.0251L6.81424 9.40927ZM10.6802 12.4731C12.4826 12.4731 14.1895 13.0719 15.5839 14.1945C17.3528 15.5889 18.5262 17.8033 18.5262 20.322C18.5262 21.5082 18.2688 22.6452 17.7625 23.707C16.5924 26.1664 13.9231 28.1636 10.6969 28.173H10.6364C8.4638 28.1628 6.44753 27.2851 4.95762 25.7003C3.45899 24.1062 2.7068 22.0174 2.84276 19.8215C3.0939 15.7528 6.46625 12.4731 10.6802 12.4731Z" fill="#1C1D1D"/>
<path d="M4.23418 20.996C4.55647 24.1708 7.31219 26.7996 10.6771 26.7996C14.3997 26.7996 17.4319 23.6309 17.1316 19.8041C16.8948 16.7436 14.4127 14.1919 11.3483 13.8819C9.39257 13.6823 7.47735 14.3621 6.09733 15.7451C4.71444 17.1251 4.03745 19.0403 4.23418 20.996ZM16.5559 19.8475C16.6253 20.7559 16.4951 21.6412 16.1682 22.4773C16.119 22.6046 16.0612 22.729 15.9975 22.8563C15.216 21.2077 15.2595 19.3374 15.9975 17.7934C16.3042 18.427 16.5009 19.1213 16.5559 19.8475ZM15.659 17.1858C14.6153 19.0578 14.5452 21.4446 15.6532 23.4465C15.3798 23.8498 15.0017 24.2918 14.7274 24.5661C13.9318 23.3423 13.4747 21.8842 13.4747 20.3219C13.4747 18.7973 13.9087 17.3276 14.7303 16.0575C15.0833 16.3931 15.3957 16.7721 15.659 17.1858ZM6.50525 16.153C7.6191 15.0391 9.11483 14.4258 10.6829 14.4258C10.8854 14.4258 11.0879 14.4374 11.2904 14.4576C12.4043 14.5676 13.4371 15.0102 14.2877 15.6785C13.3764 17.0556 12.8961 18.6555 12.8961 20.3219C12.8961 22.0346 13.4082 23.6316 14.2935 24.9654C13.3211 25.7858 11.8008 26.331 10.1853 26.2007C7.40212 25.975 5.09344 23.7155 4.8099 20.9382C4.63053 19.156 5.24966 17.4115 6.50525 16.153Z" fill="#1C1D1D"/>
</svg>
