<svg width="25" height="24" viewBox="0 0 25 24" fill="none" xmlns="http://www.w3.org/2000/svg">
<g clip-path="url(#clip0_709_447)">
<path d="M24.4246 14.1588C21.5419 10.3309 17.4318 7.6357 12.5419 7.62378C12.5255 7.62373 12.5089 7.62414 12.4923 7.62414C7.61266 7.6275 3.45356 10.3367 0.57545 14.1588C0.525083 14.2258 0.4999 14.3054 0.5 14.385C0.5 14.4646 0.525184 14.5442 0.575802 14.6111C3.69745 18.747 7.97609 21.1485 12.5022 21.1485C17.3077 21.1485 21.4972 18.4896 24.4242 14.6111C24.4766 14.5418 24.5 14.4554 24.5 14.385C24.5001 14.3055 24.4751 14.2258 24.4246 14.1588ZM16.8367 19.595C18.3928 18.33 19.3903 16.4021 19.3903 14.2437C19.3903 12.3696 18.6459 10.6446 17.3841 9.38422C17.7166 9.52567 18.0461 9.6819 18.3722 9.8527C20.433 10.9268 22.2228 12.5405 23.6528 14.3846C21.876 16.6761 19.5901 18.5635 16.8367 19.595ZM7.60899 9.38779C6.35143 10.6482 5.60979 12.3713 5.60979 14.2438C5.60979 16.3997 6.60582 18.3259 8.16042 19.5909C5.44517 18.5696 3.17483 16.7273 1.34775 14.384C3.00347 12.2487 5.0927 10.4561 7.60899 9.38779ZM6.35977 14.2438C6.35977 11.3845 8.55169 8.909 10.2173 8.58945C10.9068 8.45921 11.8149 8.36511 12.7213 8.3813C13.4906 8.39548 14.2435 8.48224 14.9607 8.62826C17.2028 9.60604 18.6403 11.7818 18.6403 14.2438C18.6403 17.6314 15.8872 20.3875 12.5034 20.3875C9.11588 20.3875 6.35977 17.6314 6.35977 14.2438Z" fill="#D4A298"/>
<path d="M12.5619 10.8076C10.5928 10.8076 8.9906 12.4096 8.9906 14.3789C8.9906 16.3482 10.5928 17.9504 12.5619 17.9504C14.531 17.9504 16.1332 16.3482 16.1332 14.3789C16.1332 12.4096 14.531 10.8076 12.5619 10.8076ZM12.5619 17.2004C11.0062 17.2004 9.74058 15.9348 9.74058 14.3789C9.74058 12.8233 11.0062 11.5576 12.5619 11.5576C14.1176 11.5576 15.3832 12.8232 15.3832 14.3789C15.3832 15.9348 14.1176 17.2004 12.5619 17.2004Z" fill="#D4A298"/>
<path d="M12.5619 12.9255C12.3546 12.9255 12.1869 13.0934 12.1869 13.3005C12.1869 13.5076 12.3546 13.6755 12.5619 13.6755C12.9497 13.6755 13.2654 13.991 13.2654 14.3788C13.2654 14.5859 13.4331 14.7538 13.6403 14.7538C13.8476 14.7538 14.0153 14.5859 14.0153 14.3788C14.0154 13.5776 13.3635 12.9255 12.5619 12.9255Z" fill="#D4A298"/>
<path d="M7.15227 7.16812C7.25115 7.35174 7.47996 7.41784 7.66022 7.32007C7.84258 7.22175 7.9107 6.99434 7.81217 6.81213L6.21073 3.84545C6.11261 3.66328 5.88551 3.59552 5.70244 3.69364C5.52042 3.79197 5.45231 4.01957 5.55083 4.20174L7.15227 7.16812Z" fill="#D4A298"/>
<path d="M12.5 6.11527C12.7073 6.11527 12.875 5.94738 12.875 5.74028V2.37499C12.875 2.16789 12.7072 2 12.5 2C12.2927 2 12.125 2.16789 12.125 2.37499V5.74028C12.125 5.94738 12.2927 6.11527 12.5 6.11527Z" fill="#D4A298"/>
<path d="M17.3397 7.32003C17.5192 7.41735 17.7483 7.35245 17.8477 7.16823L19.4491 4.20175C19.5476 4.01958 19.4795 3.79198 19.2975 3.69365C19.1151 3.59553 18.8877 3.66324 18.7892 3.84546L17.1877 6.81189C17.0892 6.9941 17.1573 7.22171 17.3397 7.32003Z" fill="#D4A298"/>
</g>
<defs>
<clipPath id="clip0_709_447">
<rect width="24" height="24" fill="white" transform="translate(0.5)"/>
</clipPath>
</defs>
</svg>
