<svg width="16" height="16" viewBox="0 0 16 16" fill="none" xmlns="http://www.w3.org/2000/svg">
<g clip-path="url(#clip0_594_23404)">
<path d="M4.33366 12.6667H3.00033C2.81633 12.6667 2.66699 12.5173 2.66699 12.3333C2.66699 12.1493 2.81633 12 3.00033 12H4.33366C4.51766 12 4.66699 12.1493 4.66699 12.3333C4.66699 12.5173 4.51766 12.6667 4.33366 12.6667Z" fill="#1C1D1D"/>
<path d="M15.167 12.6667H14.3337C14.1497 12.6667 14.0004 12.5174 14.0004 12.3334C14.0004 12.1494 14.1497 12.0001 14.3337 12.0001H14.8904L15.3397 9.60541C15.3337 8.38008 14.287 7.33341 13.0004 7.33341H10.8117L9.75103 12.0001H11.667C11.851 12.0001 12.0004 12.1494 12.0004 12.3334C12.0004 12.5174 11.851 12.6667 11.667 12.6667H9.3337C9.23237 12.6667 9.13637 12.6207 9.07303 12.5414C9.0097 12.4627 8.9857 12.3587 9.00837 12.2601L10.2204 6.92675C10.255 6.77408 10.3897 6.66675 10.5457 6.66675H13.0004C14.6544 6.66675 16.0004 8.01275 16.0004 9.66675L15.4944 12.3947C15.465 12.5527 15.3277 12.6667 15.167 12.6667Z" fill="#1C1D1D"/>
<path d="M12.9997 14.0001C12.081 14.0001 11.333 13.2527 11.333 12.3334C11.333 11.4141 12.081 10.6667 12.9997 10.6667C13.9183 10.6667 14.6663 11.4141 14.6663 12.3334C14.6663 13.2527 13.9183 14.0001 12.9997 14.0001ZM12.9997 11.3334C12.4483 11.3334 11.9997 11.7821 11.9997 12.3334C11.9997 12.8847 12.4483 13.3334 12.9997 13.3334C13.551 13.3334 13.9997 12.8847 13.9997 12.3334C13.9997 11.7821 13.551 11.3334 12.9997 11.3334Z" fill="#1C1D1D"/>
<path d="M5.66667 14.0001C4.748 14.0001 4 13.2527 4 12.3334C4 11.4141 4.748 10.6667 5.66667 10.6667C6.58533 10.6667 7.33333 11.4141 7.33333 12.3334C7.33333 13.2527 6.58533 14.0001 5.66667 14.0001ZM5.66667 11.3334C5.11533 11.3334 4.66667 11.7821 4.66667 12.3334C4.66667 12.8847 5.11533 13.3334 5.66667 13.3334C6.218 13.3334 6.66667 12.8847 6.66667 12.3334C6.66667 11.7821 6.218 11.3334 5.66667 11.3334Z" fill="#1C1D1D"/>
<path d="M4.33301 6.66667H1.66634C1.48234 6.66667 1.33301 6.51733 1.33301 6.33333C1.33301 6.14933 1.48234 6 1.66634 6H4.33301C4.51701 6 4.66634 6.14933 4.66634 6.33333C4.66634 6.51733 4.51701 6.66667 4.33301 6.66667Z" fill="#1C1D1D"/>
<path d="M4.33366 8.66667H1.00033C0.816326 8.66667 0.666992 8.51733 0.666992 8.33333C0.666992 8.14933 0.816326 8 1.00033 8H4.33366C4.51766 8 4.66699 8.14933 4.66699 8.33333C4.66699 8.51733 4.51766 8.66667 4.33366 8.66667Z" fill="#1C1D1D"/>
<path d="M4.33333 10.6667H0.333333C0.149333 10.6667 0 10.5173 0 10.3333C0 10.1493 0.149333 10 0.333333 10H4.33333C4.51733 10 4.66667 10.1493 4.66667 10.3333C4.66667 10.5173 4.51733 10.6667 4.33333 10.6667Z" fill="#1C1D1D"/>
<path d="M9.33366 12.6667H7.00033C6.81633 12.6667 6.66699 12.5174 6.66699 12.3334C6.66699 12.1494 6.81633 12.0001 7.00033 12.0001H9.06766L10.5823 5.33341H3.00033C2.81633 5.33341 2.66699 5.18408 2.66699 5.00008C2.66699 4.81608 2.81633 4.66675 3.00033 4.66675H11.0003C11.1017 4.66675 11.1977 4.71275 11.261 4.79208C11.3243 4.87075 11.3483 4.97475 11.3257 5.07341L9.65899 12.4067C9.62433 12.5594 9.48899 12.6667 9.33366 12.6667Z" fill="#1C1D1D"/>
</g>
<defs>
<clipPath id="clip0_594_23404">
<rect width="16" height="16" fill="white"/>
</clipPath>
</defs>
</svg>
