<svg width="24" height="24" viewBox="0 0 24 24" fill="none" xmlns="http://www.w3.org/2000/svg">
<path d="M20.8786 6.51714H18.9784C19.324 5.90224 19.0901 4.20696 18.7753 3.26405C17.7441 0.230667 13.6801 3.529 12.976 4.15343C12.6721 3.90951 11.9216 4.02522 11.561 3.99937C11.3714 4.00021 11.1857 4.05343 11.0244 4.15315C10.3266 3.53322 6.25706 0.231613 5.22629 3.26044C4.91149 4.20387 4.67527 5.90133 5.02241 6.51713H3.12135C2.82405 6.51745 2.53902 6.6357 2.32879 6.84592C2.11857 7.05615 2.00032 7.34118 2 7.63848V11.5908C2.00001 11.6899 2.03939 11.785 2.10949 11.8551C2.17958 11.9252 2.27465 11.9646 2.37378 11.9646H3.1064V21.7813C3.10672 22.0786 3.22497 22.3636 3.43519 22.5739C3.64542 22.7841 3.93045 22.9023 4.22775 22.9026C6.21893 22.9028 19.7722 22.9026 19.7722 22.9026C20.0696 22.9023 20.3546 22.7841 20.5648 22.5739C20.775 22.3636 20.8933 22.0786 20.8936 21.7813V11.9646H21.6262C21.7253 11.9646 21.8204 11.9252 21.8905 11.8551C21.9606 11.785 22 11.6899 22 11.5908V7.63849C21.9997 7.34118 21.8814 7.05615 21.6712 6.84592C21.461 6.6357 21.1759 6.51746 20.8786 6.51714ZM13.9605 6.51714C14.9239 5.63124 17.2493 5.11685 18.3757 4.9572C18.4523 5.59554 18.442 6.38712 17.9615 6.51714H13.9605ZM13.5868 11.217C13.5591 11.2141 10.4405 11.2191 10.4132 11.217V7.26471C10.4132 7.26471 13.2839 7.26527 13.5867 7.26471L13.5868 11.217ZM16.7849 2.76068C17.7858 2.51036 18.1191 3.41672 18.2454 4.22212C17.2793 4.3627 14.8502 4.81332 13.4789 5.92279C13.5005 5.5308 13.4849 5.13766 13.4324 4.74861C14.4074 3.8707 15.5469 3.19501 16.7849 2.76068ZM11.5611 4.74697H12.4389C12.5165 4.74709 12.5908 4.77796 12.6456 4.8328C12.7004 4.88765 12.7312 4.96199 12.7313 5.03953V6.51715H11.2687V5.03954C11.2687 4.962 11.2996 4.88765 11.3544 4.8328C11.4092 4.77795 11.4835 4.74709 11.5611 4.74697ZM5.94427 3.4681C6.01958 3.20595 6.19569 2.98433 6.43404 2.85175C6.6724 2.71916 6.95357 2.68642 7.21601 2.7607C8.4537 3.19502 9.59295 3.87052 10.5678 4.7481C10.5181 5.13735 10.5025 5.53019 10.5211 5.92216C9.1496 4.81318 6.72117 4.36269 5.7553 4.22211C5.8088 3.97427 5.8696 3.72163 5.94427 3.4681ZM5.62506 4.95703C6.79455 5.12268 8.95846 5.60348 10.0677 6.51714H6.03906C5.55855 6.38712 5.54847 5.59535 5.62506 4.95703ZM2.74758 7.63849C2.74771 7.53939 2.78713 7.44439 2.8572 7.37432C2.92727 7.30425 3.02227 7.26483 3.12136 7.2647H9.66567V11.217C9.21736 11.2161 3.0161 11.2176 2.74753 11.217L2.74758 7.63849ZM3.85396 21.7813V11.9646H10.1647V22.1551H4.22775C4.12865 22.155 4.03365 22.1155 3.96358 22.0455C3.89351 21.9754 3.85409 21.8804 3.85396 21.7813ZM10.9122 22.1551V11.9646H13.0878V22.1551H10.9122ZM20.146 21.7813C20.1459 21.8804 20.1065 21.9754 20.0364 22.0455C19.9663 22.1155 19.8713 22.155 19.7722 22.1551H13.8353V11.9646H20.146V21.7813ZM21.2524 11.217C21.0142 11.2184 14.7523 11.216 14.3344 11.217L14.3343 7.2647H20.8786C20.9777 7.26483 21.0727 7.30425 21.1428 7.37432C21.2129 7.44439 21.2523 7.53939 21.2524 7.63849V11.217Z" fill="#C1856F"/>
</svg>
