<svg width="25" height="24" viewBox="0 0 25 24" fill="none" xmlns="http://www.w3.org/2000/svg">
<g clip-path="url(#clip0_1896_13784)">
<path fill-rule="evenodd" clip-rule="evenodd" d="M0.5 7L0.5 2.69231C0.5 1.20539 1.70539 -4.76837e-07 3.19231 -4.76837e-07L7.5 -4.76837e-07V1.07692L3.19231 1.07692C2.30016 1.07692 1.57692 1.80016 1.57692 2.69231L1.57692 7H0.5Z" fill="#C1856F"/>
<path fill-rule="evenodd" clip-rule="evenodd" d="M24.5 7V2.69231C24.5 1.20539 23.2946 -4.76837e-07 21.8077 -4.76837e-07L17.5 -4.76837e-07V1.07692L21.8077 1.07692C22.6998 1.07692 23.4231 1.80016 23.4231 2.69231V7H24.5Z" fill="#C1856F"/>
<path fill-rule="evenodd" clip-rule="evenodd" d="M24.5 17V21.3077C24.5 22.7946 23.2946 24 21.8077 24H17.5V22.9231H21.8077C22.6998 22.9231 23.4231 22.1998 23.4231 21.3077V17H24.5Z" fill="#C1856F"/>
<path fill-rule="evenodd" clip-rule="evenodd" d="M0.5 17L0.5 21.3077C0.5 22.7946 1.70539 24 3.19231 24H7.5V22.9231H3.19231C2.30016 22.9231 1.57692 22.1998 1.57692 21.3077L1.57692 17H0.5Z" fill="#C1856F"/>
<g clip-path="url(#clip1_1896_13784)">
<path d="M20.3 7.15501V6.52501C20.3 6.19363 20.0314 5.925 19.7 5.925H17.6C17.2686 5.925 17 6.19363 17 6.52501V7.12502H16.904L16.082 5.06701C15.8536 4.4971 15.3009 4.12391 14.687 4.125H10.064C9.41861 4.12549 8.84592 4.53872 8.64198 5.151L7.98498 7.12498H5.00001C4.17159 7.12498 3.5 7.79657 3.5 8.62499V17.8431C3.5 18.6716 4.17159 19.3432 5.00001 19.3432H20C20.8284 19.3432 21.5 18.6716 21.5 17.8431V8.62499C21.5001 7.9121 20.9985 7.29757 20.3 7.15501ZM17.6 6.52501H19.7V7.12502H17.6V6.52501ZM20.9 17.8431C20.9 18.3402 20.497 18.7431 20 18.7431H5.00001C4.50297 18.7431 4.10001 18.3402 4.10001 17.8431V8.62499C4.10001 8.12796 4.50297 7.725 5.00001 7.725H8.20101C8.33 7.72531 8.44475 7.64319 8.48603 7.52098L9.20001 5.34C9.32383 4.96907 9.67297 4.72051 10.064 4.72501H14.687C15.0551 4.72417 15.3866 4.94755 15.524 5.28902L16.424 7.53603C16.4691 7.64923 16.5782 7.72394 16.7 7.72503H20C20.4971 7.72503 20.9 8.12796 20.9 8.62503L20.9 17.8431Z" fill="#C1856F"/>
<path d="M12.5003 8.84326C10.1807 8.84326 8.30029 10.7237 8.30029 13.0433C8.30029 15.3629 10.1807 17.2433 12.5003 17.2433C14.8199 17.2433 16.7003 15.3629 16.7003 13.0433C16.7003 10.7237 14.8199 8.84326 12.5003 8.84326ZM12.5003 16.6433C10.5121 16.6433 8.9003 15.0315 8.9003 13.0433C8.9003 11.055 10.5121 9.44327 12.5003 9.44327C14.4885 9.44327 16.1003 11.055 16.1003 13.0433C16.1003 15.0315 14.4885 16.6433 12.5003 16.6433Z" fill="#CC9286"/>
</g>
</g>
<defs>
<clipPath id="clip0_1896_13784">
<rect width="24" height="24" fill="white" transform="translate(0.5)"/>
</clipPath>
<clipPath id="clip1_1896_13784">
<rect width="18" height="18" fill="white" transform="translate(3.5 3)"/>
</clipPath>
</defs>
</svg>
