<svg width="25" height="24" viewBox="0 0 25 24" fill="none" xmlns="http://www.w3.org/2000/svg">
<path d="M18.1833 13.0852L18.0605 13.626C20.0592 14.0796 21.3507 14.8667 21.3507 15.6312C21.3507 16.216 20.6107 16.8151 19.3206 17.275C17.9216 17.7737 16.0562 18.0483 14.068 18.0483C12.0803 18.0483 10.2153 17.7736 8.8165 17.275C7.52644 16.8151 6.78652 16.216 6.78652 15.6312C6.78652 15.5859 6.79106 15.5409 6.79975 15.4959C7.11646 15.5483 7.44268 15.5931 7.77677 15.6295C7.77677 15.6301 7.77669 15.6306 7.77669 15.6312C7.77669 16.1709 8.44108 16.603 9.75137 16.9155C10.9077 17.1914 12.4407 17.3432 14.068 17.3432C15.6957 17.3432 17.2289 17.1914 18.3851 16.9155C19.6951 16.6031 20.3594 16.1709 20.3594 15.6312C20.3594 14.7187 18.4415 14.2948 17.0808 14.109C17.594 13.706 17.8648 13.2533 17.8648 12.7763V10.3008C17.8648 10.2223 17.857 10.1438 17.8423 10.0658C18.4439 9.94434 19.0037 9.79296 19.5068 9.61366C21.0534 9.06251 21.9053 8.29307 21.9053 7.44705V4.97166C21.9053 4.12607 21.0535 3.35679 19.5068 2.80544C18.0496 2.28603 16.1181 2 14.068 2C12.0185 2 10.0873 2.28607 8.63028 2.80544C7.0837 3.35679 6.23196 4.12607 6.23196 4.97166V7.44712C6.23196 8.29311 7.0837 9.06254 8.63031 9.61374C10.087 10.1329 12.0181 10.4187 14.068 10.4187C15.2006 10.4187 16.2968 10.3314 17.2969 10.1658C17.3056 10.211 17.3103 10.2561 17.3103 10.3009C17.3103 10.8862 16.5705 11.4857 15.2807 11.9456C13.8822 12.4444 12.017 12.719 10.0287 12.719C8.04037 12.719 6.17501 12.4443 4.77623 11.9456C3.48605 11.4856 2.74609 10.8861 2.74609 10.3009C2.74609 9.53597 4.03877 8.74935 6.03936 8.29683L5.91701 7.75589C3.54941 8.29143 2.19153 9.21902 2.19153 10.3009V12.7763C2.19153 13.6224 3.04331 14.392 4.59 14.9435C5.09317 15.1229 5.65294 15.2744 6.25458 15.396C6.23979 15.4742 6.23196 15.5527 6.23196 15.6312V18.1066C6.23196 18.9522 7.0837 19.7214 8.63028 20.2728C10.0873 20.7922 12.0185 21.0783 14.068 21.0783C16.1181 21.0783 18.0496 20.7922 19.5068 20.2728C21.0535 19.7215 21.9053 18.9522 21.9053 18.1066V15.6312C21.9052 14.55 20.5486 13.622 18.1833 13.0852ZM8.8165 3.32783C10.2153 2.82916 12.0803 2.55456 14.068 2.55456C16.0562 2.55456 17.9216 2.8292 19.3206 3.32783C20.6107 3.78771 21.3507 4.38685 21.3507 4.97162C21.3507 5.55683 20.6107 6.15613 19.3206 6.61585C17.922 7.11425 16.0566 7.38869 14.068 7.38869C12.0799 7.38869 10.2149 7.11421 8.81646 6.61585C7.5264 6.15613 6.78652 5.55683 6.78652 4.97162C6.78652 4.38689 7.52644 3.78771 8.8165 3.32783ZM13.1778 9.84548V8.92673H12.6232V9.81464C12.0037 9.77158 11.4064 9.70082 10.8426 9.60419V8.63706H10.288V9.49847C9.75744 9.38661 9.26307 9.25041 8.81646 9.09127C8.70914 9.05303 8.60601 9.01374 8.5064 8.97366V7.97135H7.9518V8.72102C7.20151 8.33147 6.78648 7.88532 6.78648 7.44708V6.10497C7.19258 6.49624 7.8147 6.84763 8.63024 7.13828C10.0869 7.65742 12.0181 7.94329 14.068 7.94329C16.1183 7.94329 18.0498 7.65738 19.5067 7.13828C20.3223 6.84763 20.9444 6.49624 21.3506 6.10497V7.44712C21.3506 7.8856 20.9351 8.33198 20.1841 8.72164V7.97143H19.6295V8.97413C19.5302 9.01409 19.4274 9.05323 19.3205 9.09135C18.8739 9.25049 18.3796 9.38669 17.849 9.49851V8.63718H17.2944V9.60423C16.7306 9.70086 16.1333 9.77162 15.5139 9.81468V8.92681H14.9593V9.84552C14.6657 9.85785 14.3682 9.86423 14.0679 9.86423C13.768 9.86415 13.4709 9.85777 13.1778 9.84548ZM19.8048 15.6312C19.8048 15.7357 19.5266 16.073 18.2564 16.376C17.1411 16.6421 15.6536 16.7886 14.068 16.7886C12.4828 16.7886 10.9954 16.6421 9.88002 16.376C8.77482 16.1124 8.42061 15.8229 8.34711 15.6832C8.89325 15.7267 9.45634 15.749 10.0287 15.749C12.0788 15.749 14.0102 15.4629 15.4669 14.9434C15.7831 14.8307 16.0697 14.7087 16.3264 14.5789C18.9266 14.8333 19.8048 15.4063 19.8048 15.6312ZM4.46714 14.3038V13.3006H3.91255V14.0512C3.16155 13.6614 2.74609 13.2148 2.74609 12.7763V11.4344C3.15223 11.8257 3.77435 12.1773 4.58996 12.4681C6.04699 12.9876 7.9785 13.2737 10.0287 13.2737C12.0788 13.2737 14.0102 12.9876 15.4669 12.4681C16.2823 12.1773 16.9042 11.8258 17.3102 11.4345V12.7764C17.3102 13.2148 16.8952 13.6611 16.1449 14.0508V13.3007H15.5903V14.3036C15.4908 14.3437 15.3878 14.383 15.2806 14.4212C14.8339 14.5805 14.3394 14.7168 13.8086 14.8288V13.9664H13.254V14.9345C12.6903 15.0312 12.0929 15.102 11.4735 15.1451V14.2572H10.9189V15.1759C10.6257 15.1882 10.3286 15.1946 10.0286 15.1946C9.72828 15.1946 9.43078 15.1882 9.13724 15.1759V14.2572H8.58264V15.145C7.96323 15.1019 7.36585 15.0311 6.8021 14.9344V13.9664H6.2475V14.8286C5.71697 14.7167 5.22264 14.5804 4.77607 14.4212C4.66926 14.3829 4.56644 14.3438 4.46714 14.3038ZM20.1842 19.3807V18.6298H19.6296V19.6332C19.5303 19.6732 19.4275 19.7123 19.3205 19.7505C18.8739 19.9096 18.3796 20.0459 17.8491 20.1578V19.2955H17.2945V20.2635C16.7307 20.3602 16.1334 20.431 15.514 20.4741V19.5863H14.9594V20.505C14.6658 20.5173 14.3683 20.5237 14.068 20.5237C13.768 20.5237 13.4709 20.5173 13.1777 20.505V19.5863H12.6231V20.4742C12.0037 20.4311 11.4064 20.3603 10.8426 20.2636V19.2955H10.288V20.1578C9.75748 20.0459 9.26307 19.9097 8.81642 19.7505C8.7091 19.7122 8.60593 19.6729 8.50636 19.6328V18.6298H7.95176V19.3801C7.20147 18.9906 6.78644 18.5446 6.78644 18.1067V16.7641C7.19255 17.1553 7.81462 17.5067 8.6302 17.7974C10.0872 18.3168 12.0184 18.6029 14.068 18.6029C16.118 18.6029 18.0495 18.3168 19.5067 17.7974C20.3223 17.5067 20.9445 17.1553 21.3506 16.7641V18.1067C21.3507 18.5448 20.9352 18.991 20.1842 19.3807ZM4.292 10.3009C4.292 10.4054 4.57016 10.7429 5.84041 11.0463C6.95599 11.3127 8.44343 11.4594 10.0287 11.4594C12.9154 11.4594 15.0278 10.9731 15.6227 10.4926L15.9712 10.9241C15.164 11.576 12.7759 12.014 10.0287 12.014C8.40131 12.014 6.86808 11.8619 5.71161 11.5857C4.40163 11.2728 3.73744 10.8405 3.73744 10.3008C3.73744 9.44841 5.39576 9.02067 6.78695 8.8119L6.86926 9.36031C4.92198 9.6526 4.292 10.1202 4.292 10.3009ZM9.75129 6.25652C10.908 6.53272 12.441 6.68481 14.068 6.68481C15.6954 6.68481 17.2287 6.53272 18.3851 6.25652C19.6951 5.94368 20.3593 5.51139 20.3593 4.97166C20.3593 4.43194 19.6951 3.99984 18.3851 3.68732C17.2289 3.41151 15.6957 3.25961 14.068 3.25961C12.4407 3.25961 10.9077 3.41151 9.75133 3.68732C8.44104 3.99984 7.77666 4.43198 7.77666 4.97166C7.77669 5.51135 8.44104 5.94364 9.75129 6.25652ZM9.88006 4.22677C10.9955 3.9607 12.4828 3.81417 14.068 3.81417C15.6537 3.81417 17.1412 3.9607 18.2565 4.22677C19.5266 4.52978 19.8048 4.8672 19.8048 4.97162C19.8048 5.07613 19.5266 5.4137 18.2564 5.71706C17.1408 5.98348 15.6534 6.13018 14.068 6.13018C12.4831 6.13018 10.9958 5.98344 9.88014 5.71706C8.60957 5.41366 8.33129 5.07609 8.33129 4.97162C8.33129 4.8672 8.60953 4.52982 9.88006 4.22677ZM22.1915 11.3056V11.8602H21.6122V12.4395H21.0576V11.8602H20.4783V11.3056H21.0576V10.7252H21.6122V11.3056H22.1915ZM4.22801 17.1917H4.8073V17.7463H4.22801V18.3256H3.67341V17.7463H3.09298V17.1917H3.67341V16.6113H4.22801V17.1917ZM3.67345 5.62728H3.09302V5.07268H3.67345V4.49339H4.22804V5.07268H4.80734V5.62728H4.22801V6.20658H3.67341L3.67345 5.62728Z" fill="#C1856F"/>
</svg>
