<svg width="24" height="24" viewBox="0 0 24 24" fill="none" xmlns="http://www.w3.org/2000/svg">
<path fill-rule="evenodd" clip-rule="evenodd" d="M9.17837 11.5306C9.87796 12.1159 10.8061 12.5559 12.2988 13.178C13.458 13.6608 14.7318 13.9396 15.9482 14.3057C17.2771 14.7053 18.5384 15.2065 19.4608 16.2718C20.3384 17.2853 20.8976 18.8012 20.9543 21.1837H3.82408C3.96122 17.5927 5.90776 15.2624 8.44857 14.1522C8.65469 14.062 8.74939 13.8212 8.65878 13.6147C8.56857 13.4082 8.32776 13.3139 8.12163 13.4041C5.21673 14.6735 3 17.3788 3 21.5918C3 21.8171 3.18286 22 3.40816 22H21.3673C21.5927 22 21.7755 21.8171 21.7755 21.5918C21.7755 18.7029 21.1 16.9176 20.078 15.7371C19.0514 14.5522 17.662 13.969 16.1837 13.5241C14.9939 13.1657 13.7465 12.8967 12.6127 12.4241C10.6106 11.5902 9.4302 10.9955 8.68082 9.92857C8.66898 9.91184 7.89796 8.93878 7.89796 7.30612C7.89796 4.82 9.78735 2.80694 12.3878 2.81633C14.8657 2.82531 16.8776 4.82816 16.8776 7.30612C16.8776 8.9649 15.9759 10.4147 14.6367 11.1922C14.442 11.3053 14.3755 11.5551 14.4886 11.7498C14.602 11.9449 14.8518 12.011 15.0465 11.898C16.629 10.9792 17.6939 9.26612 17.6939 7.30612C17.6939 4.37755 15.3163 2 12.3878 2C9.45918 2 7.08163 4.37755 7.08163 7.30612C7.08163 9.02898 7.90449 10.5612 9.17837 11.5306Z" fill="black"/>
</svg>
