<svg width="16" height="16" viewBox="0 0 16 16" fill="none" xmlns="http://www.w3.org/2000/svg">
<path d="M13.6376 6.67862H10.4202C11.6845 4.93406 11.3064 3.21252 11.3752 2.54712C11.3752 1.04067 9.34337 0.612779 8.7688 2.01436C8.37419 2.74445 8.10099 4.74561 6.00454 5.76063L4.93652 6.27804V6.20765C4.93652 5.8934 4.68072 5.6376 4.36647 5.6376H2.5845C1.79872 5.6376 1.15936 6.27696 1.15936 7.06273V13.1772C1.15936 13.9629 1.79872 14.6023 2.5845 14.6023H4.36647C4.68072 14.6023 4.93652 14.3465 4.93652 14.0323V14.0189C6.65052 14.415 7.58668 14.8392 9.19439 14.8392H12.2067C12.8702 14.8392 13.4099 14.2858 13.4099 13.6055C13.4099 13.3215 13.312 13.0627 13.1541 12.8539C13.6009 12.6735 13.919 12.2291 13.919 11.7078C13.919 11.4237 13.8211 11.1649 13.663 10.9561C14.1097 10.7757 14.4279 10.3313 14.4279 9.81001C14.4279 9.51079 14.3192 9.23982 14.1458 9.02591C14.5955 8.80973 14.8407 8.37023 14.8407 7.91196C14.8406 7.23197 14.3009 6.67862 13.6376 6.67862ZM2.5845 14.0323C2.11298 14.0323 1.72942 13.6487 1.72942 13.1772V7.06274C1.72942 6.59122 2.11298 6.20766 2.5845 6.20766H4.36647C4.36647 16.7467 4.36623 5.96778 4.36703 14.0323H2.5845ZM13.6376 8.57527C13.6084 8.57529 11.9191 8.57612 11.9483 8.57611C11.7908 8.57611 11.6633 8.70359 11.6633 8.86113C11.6633 9.01868 11.7908 9.14616 11.9483 9.14616H13.2243C13.5736 9.14616 13.8578 9.44399 13.8578 9.81002C13.8578 10.176 13.5736 10.4739 13.2243 10.4739C13.1619 10.4739 11.3151 10.4739 11.4392 10.4739C11.2817 10.4739 11.1542 10.6014 11.1542 10.7589C11.1542 10.9164 11.2817 11.0439 11.4392 11.0439C11.505 11.0439 12.7521 11.0439 12.7155 11.0439C13.0648 11.0439 13.349 11.3418 13.349 11.7078C13.349 12.0738 13.0648 12.3716 12.7155 12.3716C12.5244 12.3716 10.8615 12.3716 10.9304 12.3716C10.7729 12.3716 10.6454 12.4991 10.6454 12.6567C10.6454 12.8142 10.7729 12.9417 10.9304 12.9417C11.0204 12.9417 12.2489 12.9417 12.2067 12.9417C12.5557 12.9417 12.8399 13.2395 12.8399 13.6055C12.8399 13.9716 12.5557 14.2691 12.2067 14.2691H9.19439C7.67464 14.2691 6.82299 13.8702 4.93652 13.4302V6.91159L6.25282 6.2739C8.60071 5.13701 8.91079 2.93418 9.29654 2.22953C9.6353 1.40339 10.8052 1.66446 10.8052 2.54712C10.7393 3.20702 11.1137 4.77217 9.94425 6.36548L9.62945 6.79524C9.49265 6.9811 9.63467 7.24867 9.85936 7.24867H13.6376C13.9867 7.24867 14.2706 7.54622 14.2706 7.91197C14.2706 8.2867 13.9773 8.57527 13.6376 8.57527Z" fill="#1C1D1D"/>
</svg>
