<svg width="16" height="16" viewBox="0 0 16 16" fill="none" xmlns="http://www.w3.org/2000/svg">
<path d="M14.1252 7.99972H1.87481C1.39238 7.99972 0.999786 7.60712 0.999786 7.12469V4.79129C0.999786 4.30886 1.39238 3.91626 1.87481 3.91626H14.1252C14.6076 3.91626 15.0002 4.30886 15.0002 4.79129V7.12469C15.0002 7.60712 14.6076 7.99972 14.1252 7.99972ZM1.87481 4.49961C1.71439 4.49961 1.58314 4.63028 1.58314 4.79129V7.12469C1.58314 7.2857 1.71439 7.41637 1.87481 7.41637H14.1252C14.2856 7.41637 14.4169 7.2857 14.4169 7.12469V4.79129C14.4169 4.63028 14.2856 4.49961 14.1252 4.49961H1.87481Z" fill="#1C1D1D"/>
<path d="M12.3747 15.0001H3.62439C2.81995 15.0001 2.16602 14.3456 2.16602 13.5417V7.70818C2.16602 7.54717 2.29669 7.4165 2.45769 7.4165C2.6187 7.4165 2.74937 7.54717 2.74937 7.70818V13.5417C2.74937 14.0241 3.14196 14.4167 3.62439 14.4167H12.3747C12.8571 14.4167 13.2497 14.0241 13.2497 13.5417V7.70818C13.2497 7.54717 13.3804 7.4165 13.5414 7.4165C13.7024 7.4165 13.833 7.54717 13.833 7.70818V13.5417C13.833 14.3456 13.1791 15.0001 12.3747 15.0001Z" fill="#1C1D1D"/>
<path d="M7.99968 15.0001C7.83868 15.0001 7.70801 14.8694 7.70801 14.7084V7.70818C7.70801 7.54717 7.83868 7.4165 7.99968 7.4165C8.16069 7.4165 8.29136 7.54717 8.29136 7.70818V14.7084C8.29136 14.8694 8.16069 15.0001 7.99968 15.0001Z" fill="#1C1D1D"/>
<path d="M8.00043 4.49967C7.97942 4.49967 7.95842 4.49734 7.93742 4.49267C7.56991 4.411 5.71077 3.9799 5.21959 3.48872C4.94366 3.21396 4.79199 2.84762 4.79199 2.45794C4.79199 2.06826 4.94366 1.70192 5.21901 1.42658C5.78777 0.857808 6.71297 0.857808 7.28115 1.42658C7.77233 1.91717 8.20343 3.7769 8.2851 4.14499C8.30668 4.24241 8.27693 4.34392 8.20635 4.41392C8.15151 4.46934 8.07684 4.49967 8.00043 4.49967ZM6.25037 1.5835C6.02636 1.5835 5.80177 1.66867 5.63143 1.83901C5.46635 2.00468 5.37534 2.22402 5.37534 2.45794C5.37534 2.69186 5.46635 2.9112 5.63143 3.07688C5.85836 3.3038 6.80689 3.61006 7.60608 3.81423C7.40132 3.01504 7.09565 2.06651 6.86872 1.83959C6.69897 1.66867 6.47438 1.5835 6.25037 1.5835Z" fill="#1C1D1D"/>
<path d="M7.99996 4.49982C7.92354 4.49982 7.84887 4.46949 7.79345 4.41465C7.72287 4.34406 7.69312 4.24256 7.7147 4.14573C7.79637 3.77763 8.22747 1.91849 8.71865 1.42731C9.28742 0.857957 10.2126 0.859124 10.7808 1.42731C11.0567 1.70207 11.2084 2.06841 11.2084 2.45809C11.2084 2.84777 11.0567 3.21411 10.7814 3.48946C10.2902 3.98064 8.43106 4.41173 8.06355 4.4934C8.04196 4.49749 8.02096 4.49982 7.99996 4.49982ZM9.75001 1.58365C9.52601 1.58365 9.30142 1.66882 9.13108 1.83915C8.90416 2.06608 8.59848 3.01461 8.39372 3.8138C9.19291 3.60963 10.1414 3.30337 10.3684 3.07644C10.534 2.91135 10.625 2.69201 10.625 2.45809C10.625 2.22417 10.534 2.00483 10.369 1.83915C10.1986 1.66882 9.97402 1.58365 9.75001 1.58365Z" fill="#1C1D1D"/>
</svg>
