<svg width="24" height="24" viewBox="0 0 24 24" fill="none" xmlns="http://www.w3.org/2000/svg">
<path d="M6.79302 15.6916C6.95352 15.5311 6.95352 15.271 6.79302 15.1105L5.08192 13.3993C4.92142 13.2388 4.66124 13.2388 4.50074 13.3993C4.34023 13.5599 4.34023 13.82 4.50074 13.9805L6.21174 15.6915C6.37224 15.852 6.63252 15.8521 6.79302 15.6916Z" fill="black"/>
<path d="M9.81682 14.195C9.97733 14.0345 9.97733 13.7743 9.81682 13.6138L7.34214 11.1391C7.18164 10.9786 6.92146 10.9786 6.76096 11.1391C6.60046 11.2996 6.60046 11.5598 6.76096 11.7203L9.23564 14.195C9.39614 14.3555 9.65632 14.3555 9.81682 14.195Z" fill="black"/>
<path d="M11.3134 11.1714C11.4739 11.0109 11.4739 10.7507 11.3134 10.5902L9.60227 8.87909C9.44177 8.71858 9.18159 8.71858 9.02109 8.87909C8.86059 9.03959 8.86059 9.29977 9.02109 9.46027L10.7321 11.1713C10.8926 11.3318 11.1529 11.3319 11.3134 11.1714Z" fill="black"/>
<path d="M14.3371 9.6747C14.4976 9.51419 14.4976 9.25402 14.3371 9.09351L11.8624 6.61883C11.7019 6.45833 11.4417 6.45833 11.2812 6.61883C11.1207 6.77934 11.1207 7.03951 11.2812 7.20002L13.7559 9.6747C13.9164 9.8352 14.1766 9.8352 14.3371 9.6747Z" fill="black"/>
<path d="M15.8337 6.65086C15.9942 6.49036 15.9942 6.23018 15.8337 6.06968L14.1226 4.35858C13.9621 4.19807 13.7019 4.19807 13.5414 4.35858C13.3809 4.51908 13.3809 4.77926 13.5414 4.93976L15.2525 6.65077C15.413 6.81127 15.6732 6.81137 15.8337 6.65086Z" fill="black"/>
<path d="M14.8515 1.14846L1.29056 14.7094C1.13006 14.8699 1.13006 15.1301 1.29056 15.2906L7.74286 21.7429C7.90337 21.9034 8.16354 21.9034 8.32405 21.7429L21.885 8.18194C22.0455 8.02144 22.0455 7.76126 21.885 7.60076L19.5257 5.24144C19.3666 5.08239 19.1093 5.08075 18.9482 5.23776C18.7238 5.45648 18.3612 5.45416 18.1398 5.23272C17.9183 5.01129 17.9159 4.64854 18.1347 4.4243C18.2917 4.26321 18.2901 4.00585 18.131 3.8468L15.4327 1.14846C15.2722 0.987953 15.012 0.987953 14.8515 1.14846ZM17.3052 4.1833C17.202 4.38197 17.1481 4.60408 17.1494 4.83403C17.1515 5.20415 17.2968 5.55218 17.5586 5.81391C17.8203 6.07563 18.1682 6.22093 18.5384 6.22306C18.7684 6.22442 18.9904 6.17037 19.1892 6.06731L21.0133 7.89145L8.03355 20.8712L2.16234 15L15.1421 2.02023L17.3052 4.1833Z" fill="black"/>
</svg>
