<svg width="24" height="24" viewBox="0 0 24 24" fill="none" xmlns="http://www.w3.org/2000/svg">
<g clip-path="url(#clip0_594_23352)">
<path d="M15.4785 17.4973L17.5607 19.5795C17.8407 19.8595 18.2081 19.9995 18.5756 19.9995C18.9408 19.9995 19.3039 19.8617 19.5817 19.5839C20.1394 19.0261 20.1394 18.1163 19.5817 17.5585L17.4995 15.4763C17.2326 15.2095 16.8739 15.0585 16.4802 15.0564C16.3949 15.0585 16.3096 15.0673 16.2287 15.0826L15.4894 14.3433C17.447 11.8215 17.237 8.16008 14.9536 5.87663C12.4514 3.37446 8.38098 3.37446 5.87663 5.87663C3.37446 8.3788 3.37446 12.4536 5.87663 14.9557C7.11678 16.1959 8.76812 16.8236 10.4195 16.8236C11.8062 16.8236 13.1907 16.3752 14.3389 15.4829L15.0826 16.2265C14.9995 16.6858 15.1438 17.167 15.4785 17.4973ZM16.4846 15.7125C16.6946 15.7147 16.8914 15.7956 17.0358 15.94L19.118 18.0222C19.2646 18.1688 19.3455 18.3634 19.3455 18.5712C19.3455 18.779 19.2646 18.9737 19.118 19.1202C18.8184 19.4198 18.3262 19.4177 18.0244 19.1158L15.9422 17.0336C15.7344 16.828 15.6622 16.5152 15.7606 16.2331C15.7759 16.185 15.7934 16.1478 15.8131 16.1128C15.8459 16.0493 15.8897 15.9925 15.9356 15.9465C15.9881 15.8941 16.0515 15.8481 16.1193 15.8109C16.1587 15.7891 16.1959 15.7716 16.2353 15.7584C16.314 15.7278 16.4015 15.7147 16.4846 15.7125ZM6.34032 14.4921C4.09405 12.2436 4.09405 8.58877 6.34032 6.34032C7.46454 5.21828 8.94091 4.65616 10.4151 4.65616C11.8915 4.65616 13.3656 5.21828 14.4899 6.34032C16.6049 8.45535 16.7405 11.8849 14.7983 14.1508C14.7961 14.153 14.7961 14.1552 14.7939 14.1574C14.7501 14.2121 14.7042 14.2624 14.643 14.328C14.597 14.3827 14.5467 14.4352 14.4877 14.4921C14.4352 14.5445 14.3805 14.5992 14.3149 14.6561C14.2624 14.7042 14.2121 14.7501 14.1508 14.7983C11.8849 16.7383 8.45316 16.6027 6.34032 14.4921ZM14.9492 14.9601C14.9907 14.9207 15.0279 14.8836 15.0585 14.8486C15.0607 14.8464 15.0607 14.8464 15.0629 14.8442L15.5922 15.3713C15.5507 15.4041 15.5113 15.4391 15.4741 15.4741C15.4391 15.5091 15.4041 15.5485 15.3735 15.5878L14.8464 15.0607C14.8814 15.0279 14.9164 14.9929 14.9492 14.9601Z" fill="#C1856F"/>
</g>
<rect x="0.5" y="0.5" width="23" height="23" rx="1.5" stroke="#CC9286" stroke-dasharray="20 20"/>
<defs>
<clipPath id="clip0_594_23352">
<rect width="16" height="16" fill="white" transform="translate(4 4)"/>
</clipPath>
</defs>
</svg>
