<svg width="24" height="24" viewBox="0 0 24 24" fill="none" xmlns="http://www.w3.org/2000/svg">
<g clip-path="url(#clip0_233_193)">
<path fill-rule="evenodd" clip-rule="evenodd" d="M-3.57628e-07 7L-3.57628e-07 2.69231C-3.57628e-07 1.20539 1.20539 -3.57628e-07 2.69231 -3.57628e-07L7 -3.57628e-07V1.07692L2.69231 1.07692C1.80016 1.07692 1.07692 1.80016 1.07692 2.69231L1.07692 7H-3.57628e-07Z" fill="#C1856F"/>
<path fill-rule="evenodd" clip-rule="evenodd" d="M24 7V2.69231C24 1.20539 22.7946 -3.57628e-07 21.3077 -3.57628e-07L17 -3.57628e-07V1.07692L21.3077 1.07692C22.1998 1.07692 22.9231 1.80016 22.9231 2.69231V7H24Z" fill="#C1856F"/>
<path fill-rule="evenodd" clip-rule="evenodd" d="M24 17V21.3077C24 22.7946 22.7946 24 21.3077 24H17V22.9231H21.3077C22.1998 22.9231 22.9231 22.1998 22.9231 21.3077V17H24Z" fill="#C1856F"/>
<path fill-rule="evenodd" clip-rule="evenodd" d="M-3.57628e-07 17L-3.57628e-07 21.3077C-3.57628e-07 22.7946 1.20539 24 2.69231 24H7V22.9231H2.69231C1.80016 22.9231 1.07692 22.1998 1.07692 21.3077L1.07692 17H-3.57628e-07Z" fill="#C1856F"/>
<path d="M12.3253 19.4C14.7335 19.4 16.7964 17.6516 17.177 15.2591L11.0707 6.11303C10.8435 5.75989 10.4472 5.528 9.999 5.528C9.32243 5.528 8.77406 6.07638 8.77406 6.75295V12.3582L8.47277 11.8309L8.47274 11.8309C7.94077 10.9001 6.64817 10.6892 5.85315 11.4842C5.73027 11.6071 5.46211 11.9918 5.68313 12.4653C5.68314 12.4653 5.68315 12.4653 5.68315 12.4653L7.4789 16.3136L7.47891 16.3136C8.35768 18.1965 10.2476 19.4 12.3253 19.4Z" stroke="#C1856F" stroke-width="0.8"/>
</g>
<defs>
<clipPath id="clip0_233_193">
<rect width="24" height="24" fill="white"/>
</clipPath>
</defs>
</svg>
