<svg width="24" height="24" viewBox="0 0 24 24" fill="none" xmlns="http://www.w3.org/2000/svg">
<g clip-path="url(#clip0_233_193)">
<path fill-rule="evenodd" clip-rule="evenodd" d="M-4.76837e-07 7L-4.76837e-07 2.69231C-4.76837e-07 1.20539 1.20539 -4.76837e-07 2.69231 -4.76837e-07L7 -4.76837e-07V1.07692L2.69231 1.07692C1.80016 1.07692 1.07692 1.80016 1.07692 2.69231L1.07692 7H-4.76837e-07Z" fill="#C1856F"/>
<path fill-rule="evenodd" clip-rule="evenodd" d="M24 7V2.69231C24 1.20539 22.7946 -4.76837e-07 21.3077 -4.76837e-07L17 -4.76837e-07V1.07692L21.3077 1.07692C22.1998 1.07692 22.9231 1.80016 22.9231 2.69231V7H24Z" fill="#C1856F"/>
<path fill-rule="evenodd" clip-rule="evenodd" d="M24 17V21.3077C24 22.7946 22.7946 24 21.3077 24H17V22.9231H21.3077C22.1998 22.9231 22.9231 22.1998 22.9231 21.3077V17H24Z" fill="#C1856F"/>
<path fill-rule="evenodd" clip-rule="evenodd" d="M-4.76837e-07 17L-4.76837e-07 21.3077C-4.76837e-07 22.7946 1.20539 24 2.69231 24H7V22.9231H2.69231C1.80016 22.9231 1.07692 22.1998 1.07692 21.3077L1.07692 17H-4.76837e-07Z" fill="#C1856F"/>
<path fill-rule="evenodd" clip-rule="evenodd" d="M7.8415 16.1445L6.04573 12.2961C5.92785 12.0436 6.0678 11.8353 6.13611 11.767C6.73991 11.1632 7.72113 11.3217 8.12558 12.0294L9.17415 13.8646L9.17417 6.75294C9.17417 6.29729 9.54347 5.928 9.99912 5.928C10.2659 5.928 10.5058 6.04772 10.6665 6.23762C10.7814 6.3734 10.8557 6.54507 10.8703 6.73451L11.275 11.9972L11.4519 6.68977L11.4812 5.81059C11.5493 4.73098 13.1001 4.72862 13.1698 5.81059L13.3759 11.9971L13.9961 6.6215C13.9964 6.61906 13.9967 6.61663 13.997 6.6142C14.0458 6.22403 14.3772 5.928 14.7751 5.928C15.1622 5.928 15.4768 6.24193 15.4768 6.62968V11.9971L16.2046 9.08533C16.2212 9.01905 16.2457 8.95702 16.2768 8.89991C16.4544 8.57333 16.8471 8.40788 17.2153 8.53047C17.2155 8.5306 17.2169 8.53117 17.2196 8.53221C17.273 8.55292 17.8061 8.75948 17.7125 9.34841L16.7821 15.1963C16.4325 17.3939 14.5377 19 12.3254 19C10.4031 19 8.65454 17.8865 7.8415 16.1445ZM17.5721 15.3219C17.1606 17.9094 14.9296 19.8 12.3254 19.8C10.0924 19.8 8.06106 18.5065 7.11656 16.4828L5.32081 12.6345C4.99657 11.9399 5.39296 11.3788 5.57042 11.2013C6.37667 10.3951 7.59575 10.424 8.37417 11.0918V6.75294C8.37417 5.85546 9.10164 5.128 9.99912 5.128C10.2739 5.128 10.5338 5.19434 10.7633 5.31226C11.2322 3.80692 13.4971 3.82786 13.9085 5.38555C14.158 5.22239 14.456 5.128 14.7751 5.128C15.6036 5.128 16.2768 5.79965 16.2768 6.62968V7.84845C16.6351 7.67515 17.0591 7.63527 17.468 7.77143L17.6454 7.83047L17.6788 7.86358C17.6789 7.86363 17.6787 7.86353 17.6788 7.86358C17.7773 7.91514 17.9128 7.99812 18.0469 8.12302C18.3361 8.39224 18.6018 8.84968 18.5026 9.4739L17.5721 15.3219ZM17.5085 7.78621C17.5072 7.7857 17.5083 7.7861 17.5097 7.78664L17.5085 7.78621Z" fill="#C1856F"/>
</g>
<defs>
<clipPath id="clip0_233_193">
<rect width="24" height="24" fill="white"/>
</clipPath>
</defs>
</svg>
