<svg width="24" height="24" viewBox="0 0 24 24" fill="none" xmlns="http://www.w3.org/2000/svg">
<path d="M17.3416 8.15095C16.7494 7.95378 16.115 8.25033 15.8766 8.80899V6.62968C15.8766 6.02079 15.3828 5.528 14.775 5.528C14.1705 5.528 13.6675 5.98089 13.5986 6.57549L13.5986 6.57566L13.5961 6.5976L13.5694 5.79728L13.5696 5.79727L13.5688 5.78489C13.467 4.20289 11.1814 4.20701 11.0818 5.78541L11.0817 5.7854L11.0813 5.79728L11.0707 6.11303C10.8435 5.75989 10.4472 5.528 9.999 5.528C9.32243 5.528 8.77406 6.07638 8.77406 6.75295V12.3582L8.47277 11.8309L8.47274 11.8309C7.94077 10.9001 6.64817 10.6892 5.85315 11.4842C5.73027 11.6071 5.46211 11.9918 5.68313 12.4653C5.68314 12.4653 5.68315 12.4653 5.68315 12.4653L7.4789 16.3136L7.47891 16.3136C8.35768 18.1965 10.2476 19.4 12.3253 19.4C14.7335 19.4 16.7964 17.6516 17.177 15.2591L18.1074 9.41126L18.1075 9.41116C18.1816 8.94444 17.9869 8.61381 17.7742 8.41578C17.6731 8.32162 17.5699 8.25812 17.4934 8.21809C17.4753 8.20858 17.4583 8.20024 17.4429 8.19298L17.4302 8.18048L17.3416 8.15095Z" stroke="#C1856F" stroke-width="0.8"/>
<rect x="0.5" y="0.5" width="23" height="23" rx="1.5" stroke="#CC9286" stroke-dasharray="20 20"/>
</svg>
