<svg width="60" height="60" viewBox="0 0 60 60" fill="none" xmlns="http://www.w3.org/2000/svg">
<g clip-path="url(#clip0)">
<path d="M16.7068 4.47613C16.3625 3.87801 15.596 3.67293 15.0002 4.0184C14.4021 4.36387 14.197 5.12805 14.5436 5.72617L15.7937 7.89168C16.0231 8.29211 16.4456 8.51664 16.8752 8.51664C17.0877 8.51664 17.3025 8.46297 17.5002 8.34941C18.0983 8.00395 18.3034 7.23977 17.9567 6.64164L16.7068 4.47613Z" fill="#0C0B0B"/>
<path d="M7.89082 15.7916L5.72777 14.5416C5.13445 14.2011 4.37039 14.4012 4.02117 14.9993C3.67453 15.5963 3.87961 16.3616 4.47773 16.7071L6.64078 17.9571C6.83859 18.0707 7.0534 18.1244 7.26574 18.1244C7.69547 18.1244 8.11535 17.901 8.34726 17.4994C8.69414 16.9026 8.48906 16.1371 7.89082 15.7916Z" fill="#0C0B0B"/>
<path d="M7.5 30C7.5 29.3091 6.9409 28.75 6.24996 28.75H1.25004C0.559102 28.75 0 29.3091 0 30C0 30.691 0.559102 31.2501 1.25004 31.2501H6.25008C6.9409 31.2501 7.5 30.691 7.5 30Z" fill="#0C0B0B"/>
<path d="M6.64078 42.0423L4.47773 43.2923C3.87961 43.6378 3.67453 44.4032 4.02117 45.0001C4.25308 45.4017 4.67308 45.6251 5.10269 45.6251C5.31515 45.6251 5.53242 45.5714 5.72765 45.4578L7.8907 44.2078C8.48883 43.8623 8.6939 43.097 8.34726 42.5C8.00062 41.8996 7.22918 41.6969 6.64078 42.0423Z" fill="#0C0B0B"/>
<path d="M17.5003 51.6507C16.9046 51.3102 16.138 51.5115 15.7937 52.1085L14.5436 54.274C14.197 54.8721 14.4021 55.6363 15.0002 55.9817C15.198 56.0953 15.4128 56.149 15.6252 56.149C16.0549 56.149 16.4772 55.9243 16.7067 55.524L17.9567 53.3585C18.3036 52.7604 18.0985 51.9962 17.5003 51.6507Z" fill="#0C0B0B"/>
<path d="M30 0C29.3091 0 28.75 0.559102 28.75 1.25004V58.7501C28.75 59.441 29.3091 60.0001 30 60.0001C46.543 60.0001 60 46.5418 60 30.0001C60 13.4584 46.543 0 30 0ZM31.2501 57.4719V2.52809C45.835 3.1848 57.5001 15.2551 57.5001 30C57.5001 44.7449 45.835 56.8152 31.2501 57.4719Z" fill="#FF3C7F"/>
</g>
<defs>
<clipPath id="clip0">
<rect width="60" height="60" fill="white"/>
</clipPath>
</defs>
</svg>
