<svg width="60" height="60" viewBox="0 0 60 60" fill="none" xmlns="http://www.w3.org/2000/svg">
<circle cx="30" cy="30" r="30" fill="#EFAE16"/>
<circle cx="30" cy="29.9999" r="19.56" fill="#F9F8F6"/>
<path d="M21.0775 41.0846H19.746L19.7544 40.2024H21.0775C21.4079 40.2024 21.6865 40.1358 21.9133 40.0026C22.1401 39.8669 22.3109 39.6696 22.4258 39.4107C22.5434 39.1518 22.6022 38.8389 22.6022 38.472V38.2043C22.6022 37.9228 22.5686 37.6752 22.5014 37.4616C22.437 37.248 22.3404 37.0683 22.2115 36.9225C22.0827 36.7767 21.9245 36.6674 21.7369 36.5945C21.5493 36.5191 21.3337 36.4814 21.0901 36.4814H19.7208V35.5954H21.0901C21.4989 35.5954 21.8727 35.6583 22.2115 35.7839C22.5532 35.9071 22.8486 36.0843 23.0978 36.3155C23.347 36.5467 23.5388 36.8232 23.6732 37.1449C23.8104 37.4641 23.879 37.8198 23.879 38.2118V38.472C23.879 38.8615 23.8104 39.2172 23.6732 39.5389C23.5388 39.8606 23.347 40.1371 23.0978 40.3683C22.8514 40.597 22.556 40.7742 22.2115 40.8999C21.8699 41.023 21.4919 41.0846 21.0775 41.0846ZM20.4601 35.5954V41.0846H19.2V35.5954H20.4601Z" fill="#0C0B0B"/>
<path d="M27.6189 36.5342L25.9556 41.0846H24.6157L26.888 35.5954H27.7407L27.6189 36.5342ZM29.0007 41.0846L27.3333 36.5342L27.1988 35.5954H28.0599L30.3448 41.0846H29.0007ZM28.9251 39.0412V39.9272H25.6952V39.0412H28.9251Z" fill="#0C0B0B"/>
<path d="M31.6275 35.5954L32.9044 38.0987L34.1812 35.5954H35.5547L33.5428 39.0865V41.0846H32.2659V39.0865L30.2499 35.5954H31.6275Z" fill="#0C0B0B"/>
<path d="M39.66 39.6482C39.66 39.5502 39.6432 39.4622 39.6096 39.3843C39.5788 39.3039 39.5199 39.231 39.4331 39.1657C39.3463 39.0978 39.2245 39.0312 39.0677 38.9658C38.9109 38.9005 38.7079 38.8326 38.4587 38.7623C38.1815 38.6818 37.9183 38.5914 37.6691 38.4908C37.4227 38.3903 37.2042 38.2734 37.0138 38.1402C36.8262 38.0045 36.6778 37.8474 36.5686 37.669C36.4622 37.4905 36.409 37.2831 36.409 37.0469C36.409 36.8182 36.465 36.6108 36.577 36.4248C36.689 36.2363 36.8458 36.0755 37.0474 35.9423C37.249 35.8065 37.4871 35.7022 37.7615 35.6294C38.0387 35.5565 38.3425 35.52 38.6729 35.52C39.1237 35.52 39.5171 35.5929 39.8532 35.7387C40.1892 35.8845 40.4496 36.0843 40.6344 36.3381C40.822 36.592 40.9158 36.8823 40.9158 37.209H39.6642C39.6642 37.0481 39.6264 36.9074 39.5507 36.7868C39.4779 36.6636 39.3659 36.5668 39.2147 36.4965C39.0663 36.4261 38.8787 36.3909 38.6519 36.3909C38.4335 36.3909 38.2515 36.4211 38.1059 36.4814C37.9603 36.5392 37.8511 36.6184 37.7783 36.7189C37.7055 36.8169 37.6691 36.9275 37.6691 37.0507C37.6691 37.1437 37.6943 37.2279 37.7447 37.3033C37.7979 37.3787 37.8763 37.449 37.9799 37.5144C38.0835 37.5797 38.2109 37.6413 38.3621 37.6991C38.5133 37.7569 38.6883 37.8135 38.8871 37.8688C39.2203 37.9592 39.5129 38.061 39.765 38.1741C40.0198 38.2872 40.2326 38.4142 40.4034 38.5549C40.5742 38.6957 40.703 38.8553 40.7898 39.0337C40.8766 39.2122 40.92 39.4145 40.92 39.6407C40.92 39.8795 40.8682 40.0931 40.7646 40.2816C40.661 40.4701 40.5112 40.6297 40.3152 40.7604C40.1192 40.8911 39.8854 40.9904 39.6138 41.0582C39.3421 41.1261 39.0383 41.16 38.7023 41.16C38.3999 41.16 38.1017 41.1248 37.8077 41.0545C37.5137 40.9816 37.2462 40.8722 37.0054 40.7265C36.7674 40.5807 36.577 40.3947 36.4342 40.1685C36.2914 39.9423 36.22 39.6746 36.22 39.3655H37.4843C37.4843 39.5364 37.5137 39.6809 37.5725 39.799C37.6313 39.9172 37.7139 40.0127 37.8203 40.0856C37.9295 40.1584 38.0583 40.2112 38.2067 40.2439C38.3579 40.2766 38.5231 40.2929 38.7023 40.2929C38.9207 40.2929 39.0999 40.2653 39.2399 40.21C39.3827 40.1547 39.4877 40.078 39.5549 39.98C39.625 39.882 39.66 39.7714 39.66 39.6482Z" fill="#0C0B0B"/>
<path d="M23.4342 23.9822H24.7859C25.219 23.9822 25.5759 23.9087 25.8568 23.7617C26.1377 23.6089 26.3454 23.3973 26.48 23.1269C26.6205 22.8506 26.6907 22.5302 26.6907 22.1658C26.6907 21.8366 26.6263 21.5456 26.4976 21.2928C26.3747 21.0342 26.1845 20.8343 25.927 20.6932C25.6696 20.5462 25.3448 20.4728 24.9527 20.4728C24.6426 20.4728 24.3558 20.5345 24.0925 20.6579C23.8292 20.7814 23.6185 20.9548 23.4605 21.1782C23.3025 21.4016 23.2235 21.672 23.2235 21.9894H20.6868C20.6868 21.284 20.8741 20.6697 21.2486 20.1465C21.6289 19.6233 22.138 19.2148 22.7759 18.9209C23.4137 18.6269 24.1159 18.48 24.8825 18.48C25.7486 18.48 26.5064 18.6211 27.1559 18.9032C27.8054 19.1795 28.3116 19.5881 28.6744 20.1289C29.0372 20.6697 29.2186 21.3398 29.2186 22.1393C29.2186 22.5449 29.125 22.9388 28.9378 23.3209C28.7505 23.6971 28.4813 24.038 28.1302 24.3437C27.785 24.6435 27.3636 24.8845 26.8662 25.0668C26.3688 25.2431 25.81 25.3313 25.1897 25.3313H23.4342V23.9822ZM23.4342 25.9132V24.5994H25.1897C25.8861 24.5994 26.4976 24.6788 27.0242 24.8375C27.5509 24.9962 27.9927 25.2255 28.3497 25.5253C28.7066 25.8192 28.9758 26.169 29.1572 26.5746C29.3386 26.9743 29.4293 27.4181 29.4293 27.906C29.4293 28.5056 29.3152 29.0406 29.087 29.5108C28.8588 29.9752 28.5369 30.3691 28.1214 30.6924C27.7118 31.0157 27.232 31.2626 26.6819 31.4331C26.1318 31.5977 25.532 31.68 24.8825 31.68C24.3441 31.68 23.8146 31.6065 23.2937 31.4595C22.7788 31.3067 22.3107 31.0804 21.8893 30.7806C21.4739 30.4749 21.1403 30.0928 20.8887 29.6343C20.6429 29.1699 20.52 28.6203 20.52 27.9854H23.0568C23.0568 28.3146 23.1387 28.6085 23.3025 28.8672C23.4664 29.1258 23.6917 29.3286 23.9784 29.4756C24.271 29.6225 24.5958 29.696 24.9527 29.696C25.3565 29.696 25.7017 29.6225 25.9885 29.4756C26.2811 29.3227 26.5034 29.1111 26.6556 28.8407C26.8136 28.5644 26.8926 28.244 26.8926 27.8796C26.8926 27.4093 26.8077 27.0331 26.638 26.7509C26.4683 26.4629 26.2255 26.2513 25.9095 26.1161C25.5935 25.9808 25.219 25.9132 24.7859 25.9132H23.4342Z" fill="#0C0B0B"/>
<path d="M39.72 23.9557V26.1778C39.72 27.1418 39.6176 27.9736 39.4128 28.6732C39.208 29.3668 38.9125 29.937 38.5263 30.3838C38.1459 30.8247 37.6924 31.1509 37.1657 31.3625C36.6391 31.5742 36.0539 31.68 35.4102 31.68C34.8953 31.68 34.4154 31.6153 33.9707 31.486C33.5259 31.3508 33.1251 31.1421 32.7681 30.8599C32.417 30.5778 32.1127 30.2221 31.8553 29.793C31.6036 29.358 31.4105 28.8407 31.2759 28.2411C31.1414 27.6415 31.0741 26.9537 31.0741 26.1778V23.9557C31.0741 22.9917 31.1765 22.1658 31.3813 21.478C31.5919 20.7843 31.8875 20.2171 32.2678 19.7762C32.654 19.3353 33.1105 19.012 33.6371 18.8062C34.1638 18.5946 34.749 18.4888 35.3927 18.4888C35.9076 18.4888 36.3845 18.5564 36.8234 18.6916C37.2681 18.8209 37.669 19.0237 38.0259 19.3C38.3829 19.5763 38.6872 19.932 38.9388 20.367C39.1904 20.7961 39.3835 21.3104 39.5181 21.91C39.6527 22.5038 39.72 23.1857 39.72 23.9557ZM37.1833 26.5128V23.6118C37.1833 23.1474 37.157 22.7418 37.1043 22.395C37.0575 22.0482 36.9843 21.7543 36.8848 21.5132C36.7854 21.2664 36.6625 21.0665 36.5162 20.9136C36.3699 20.7608 36.2031 20.6491 36.0159 20.5786C35.8286 20.508 35.6209 20.4728 35.3927 20.4728C35.1059 20.4728 34.8514 20.5286 34.629 20.6403C34.4125 20.752 34.2282 20.9313 34.076 21.1782C33.9239 21.4192 33.8068 21.7425 33.7249 22.1481C33.6488 22.5478 33.6108 23.0358 33.6108 23.6118V26.5128C33.6108 26.9772 33.6342 27.3858 33.681 27.7385C33.7337 28.0912 33.8098 28.3939 33.9092 28.6467C34.0146 28.8936 34.1375 29.0964 34.2779 29.2551C34.4242 29.408 34.591 29.5197 34.7782 29.5902C34.9713 29.6607 35.182 29.696 35.4102 29.696C35.6911 29.696 35.9398 29.6402 36.1563 29.5285C36.3787 29.4109 36.5659 29.2287 36.7181 28.9818C36.8761 28.729 36.9931 28.3998 37.0692 27.9942C37.1453 27.5886 37.1833 27.0948 37.1833 26.5128Z" fill="#0C0B0B"/>
<path fill-rule="evenodd" clip-rule="evenodd" d="M30 58.68C45.8395 58.68 58.68 45.8395 58.68 30C58.68 14.1605 45.8395 1.32 30 1.32C14.1605 1.32 1.32 14.1605 1.32 30C1.32 45.8395 14.1605 58.68 30 58.68ZM30 60C46.5685 60 60 46.5685 60 30C60 13.4315 46.5685 0 30 0C13.4315 0 0 13.4315 0 30C0 46.5685 13.4315 60 30 60Z" fill="#EFAE16"/>
<path fill-rule="evenodd" clip-rule="evenodd" d="M30 48.2399C40.0737 48.2399 48.24 40.0736 48.24 29.9999C48.24 19.9263 40.0737 11.7599 30 11.7599C19.9263 11.7599 11.76 19.9263 11.76 29.9999C11.76 40.0736 19.9263 48.2399 30 48.2399ZM30 49.5599C40.8027 49.5599 49.56 40.8026 49.56 29.9999C49.56 19.1973 40.8027 10.4399 30 10.4399C19.1973 10.4399 10.44 19.1973 10.44 29.9999C10.44 40.8026 19.1973 49.5599 30 49.5599Z" fill="#EFAE16"/>
<path d="M4.37343 19.8105L4.81603 18.9336L9.1583 19.5052L6.11945 16.3513L6.56205 15.4744L10.6721 19.8274L10.3166 20.5317L4.37343 19.8105ZM4.1347 20.2835L4.57557 19.4101L8.25307 21.067L9.68234 21.7884L9.16133 22.8206L4.1347 20.2835ZM6.35992 15.8749L6.80252 14.998L11.8291 17.5351L11.3064 18.5708L9.87711 17.8494L6.35992 15.8749Z" fill="#0C0B0B"/>
<path d="M13.8721 11.0829L14.0626 11.2697C14.3682 11.5694 14.6018 11.8798 14.7635 12.2009C14.9252 12.522 15.0177 12.842 15.0408 13.1608C15.0621 13.4778 15.0149 13.7855 14.8993 14.0838C14.7855 14.3802 14.604 14.6554 14.3549 14.9094C14.1076 15.1616 13.8359 15.3483 13.5399 15.4697C13.2457 15.5892 12.9391 15.6423 12.6199 15.629C12.2989 15.6139 11.9754 15.5295 11.6494 15.3759C11.3252 15.2204 11.0103 14.9928 10.7048 14.6932L10.5143 14.5063C10.2069 14.2048 9.9733 13.8944 9.81343 13.5751C9.65171 13.254 9.55929 12.934 9.53615 12.6152C9.51481 12.2945 9.56105 11.986 9.67486 11.6895C9.79048 11.3913 9.97195 11.116 10.2193 10.8639C10.4684 10.6099 10.7401 10.4231 11.0342 10.3036C11.3302 10.1822 11.6378 10.13 11.957 10.147C12.2781 10.1621 12.6007 10.2474 12.9248 10.4029C13.249 10.5547 13.5648 10.7814 13.8721 11.0829ZM13.2421 12.1062L13.0461 11.914C12.8326 11.7046 12.6259 11.5398 12.426 11.4195C12.2262 11.2993 12.034 11.2228 11.8495 11.1899C11.6651 11.1571 11.492 11.1679 11.3303 11.2223C11.1667 11.2749 11.0163 11.3712 10.8791 11.5111C10.7419 11.651 10.6486 11.8032 10.5991 11.9677C10.5496 12.1286 10.5431 12.301 10.5795 12.4848C10.6177 12.6667 10.6989 12.8564 10.8229 13.054C10.947 13.2515 11.1158 13.4549 11.3293 13.6644L11.5253 13.8566C11.737 14.0642 11.9437 14.229 12.1454 14.3511C12.3453 14.4713 12.5383 14.5487 12.7246 14.5834C12.9091 14.6162 13.0831 14.6063 13.2467 14.5537C13.4102 14.5011 13.5606 14.4048 13.6978 14.2649C13.835 14.1251 13.9284 13.9728 13.9778 13.8083C14.0273 13.6437 14.0329 13.4705 13.9947 13.2885C13.9546 13.1048 13.8725 12.9142 13.7485 12.7166C13.6226 12.5173 13.4538 12.3139 13.2421 12.1062Z" fill="#0C0B0B"/>
<path d="M18.2016 5.20985L20.9824 10.1059L19.9736 10.6789L16.1424 8.51416L18.0064 11.7961L16.9976 12.3691L14.2168 7.47304L15.2256 6.90008L19.0621 9.06623L17.1962 5.7809L18.2016 5.20985Z" fill="#0C0B0B"/>
<path d="M25.7737 7.76804L26.0061 8.64264L23.1094 9.41202L22.8771 8.53742L25.7737 7.76804ZM22.0303 3.87279L23.4757 9.31473L22.3544 9.61255L20.909 4.17061L22.0303 3.87279ZM24.7718 5.51737L24.9982 6.36954L22.479 7.03864L22.2527 6.18647L24.7718 5.51737ZM24.5569 3.2017L24.7902 4.08003L21.8973 4.84841L21.664 3.97008L24.5569 3.2017Z" fill="#0C0B0B"/>
<path d="M27.8549 2.83798L29.0789 5.38307L30.2057 2.79347L31.4701 2.76953L29.6858 6.38497L29.7246 8.43421L28.5492 8.45647L28.5104 6.40722L26.5867 2.86199L27.8549 2.83798Z" fill="#0C0B0B"/>
<path d="M37.9264 7.49261L36.5699 6.99087L36.839 6.24102L37.9779 6.66226C38.1786 6.73649 38.3524 6.77192 38.4993 6.76854C38.6471 6.76275 38.7708 6.72191 38.8704 6.64602C38.9732 6.56861 39.0515 6.45737 39.1051 6.31228C39.1659 6.14786 39.1837 6.00324 39.1584 5.87843C39.1355 5.75451 39.0673 5.64544 38.9537 5.5512C38.8425 5.45786 38.6854 5.37362 38.4823 5.2985L37.7279 5.01946L36.0898 9.44807L35.0017 9.04561L36.955 3.76464L38.7975 4.44614C39.1046 4.55972 39.3683 4.69025 39.5887 4.83772C39.8114 4.98608 39.9855 5.15081 40.111 5.3319C40.2364 5.51298 40.3103 5.71075 40.3327 5.92519C40.356 6.13722 40.322 6.36655 40.2308 6.61319C40.1503 6.83081 40.0265 7.01317 39.8594 7.16027C39.6947 7.30827 39.4857 7.4014 39.2324 7.43965C38.9815 7.4788 38.6858 7.44227 38.3452 7.33004L37.9264 7.49261ZM37.022 9.79285L35.4152 9.19854L36.1535 8.50678L37.3359 8.94412C37.5269 9.01477 37.6941 9.04223 37.8373 9.0265C37.9815 9.00835 38.1023 8.95681 38.1996 8.87188C38.297 8.78695 38.3712 8.67558 38.4222 8.53775C38.4794 8.38299 38.5025 8.23896 38.4913 8.10563C38.4826 7.9732 38.4325 7.85575 38.3413 7.75326C38.2509 7.64836 38.1126 7.56147 37.9264 7.49261L36.8782 7.1049L37.1618 6.36042L38.4675 6.84337L38.6091 7.22973C38.9325 7.34384 39.1702 7.49636 39.3222 7.68729C39.4776 7.87669 39.5656 8.08103 39.5862 8.30031C39.6092 8.52048 39.5813 8.73696 39.5026 8.94975C39.3774 9.28827 39.1981 9.54632 38.9648 9.7239C38.7323 9.89905 38.452 9.9919 38.1237 10.0024C37.7979 10.0139 37.4306 9.94399 37.022 9.79285Z" fill="#0C0B0B"/>
<path d="M44.7172 8.65602L40.7608 11.568L39.7563 10.8519L44.7282 7.48133L45.3675 7.93701L44.7172 8.65602ZM43.0438 13.1954L44.5031 8.50338L44.9613 7.64744L45.6068 8.10761L44.0515 13.9137L43.0438 13.1954ZM44.2038 11.4482L43.6763 12.1882L41.2547 10.462L41.7822 9.72202L44.2038 11.4482Z" fill="#0C0B0B"/>
<path d="M48.2471 15.9918L48.9775 16.8881C48.6691 17.1095 48.3423 17.2411 47.9972 17.2829C47.6537 17.3267 47.3138 17.2728 46.9774 17.1212C46.6427 16.9716 46.3296 16.718 46.038 16.3602C45.81 16.0804 45.6536 15.7905 45.5687 15.4905C45.4859 15.1889 45.471 14.885 45.5243 14.5789C45.5791 14.2748 45.702 13.9767 45.8931 13.6847C46.0841 13.3927 46.3395 13.1164 46.6593 12.8558L46.962 12.609C47.2818 12.3484 47.6048 12.1551 47.931 12.0289C48.2609 11.9031 48.581 11.8451 48.8916 11.8547C49.2037 11.8664 49.4992 11.9433 49.7779 12.0853C50.0566 12.2273 50.3075 12.4352 50.5306 12.709C50.8271 13.0728 51.0111 13.4333 51.0828 13.7906C51.1561 14.1499 51.133 14.493 51.0136 14.8198C50.8957 15.1486 50.7003 15.4476 50.4274 15.7166L49.6945 14.8172C49.8622 14.6639 49.9826 14.5076 50.0556 14.3483C50.1307 14.1874 50.1495 14.0207 50.1121 13.8483C50.0783 13.6763 49.98 13.4903 49.8172 13.2905C49.695 13.1406 49.5604 13.0325 49.4132 12.9662C49.266 12.8999 49.1045 12.8751 48.9287 12.892C48.7529 12.9089 48.5626 12.9692 48.3578 13.0729C48.1566 13.177 47.9401 13.3235 47.7083 13.5125L47.3995 13.7641C47.1737 13.9481 46.9886 14.1272 46.8445 14.3012C46.7023 14.4736 46.6007 14.6429 46.5398 14.8089C46.4825 14.9753 46.4695 15.1389 46.5008 15.2997C46.5356 15.4608 46.6182 15.6213 46.7485 15.7812C46.9016 15.9691 47.0578 16.0996 47.2171 16.1726C47.3764 16.2457 47.5411 16.2661 47.7111 16.234C47.8828 16.2038 48.0614 16.1231 48.2471 15.9918Z" fill="#0C0B0B"/>
<path d="M53.7719 17.8971L48.6403 20.2144L48.1628 19.1571L53.2944 16.8398L53.7719 17.8971ZM55.1598 20.9705L51.7073 20.0812L49.9156 19.4773L50.8306 18.835L52.2742 19.1378L54.5741 19.6735L55.1598 20.9705ZM49.4854 22.0859L51.1746 19.5028L52.1835 19.9892L50.0504 23.3371L49.4854 22.0859Z" fill="#0C0B0B"/>
<path d="M13.0304 46.9355L11.3078 48.3539C11.1705 48.3534 10.9959 48.3219 10.784 48.2592C10.5741 48.1949 10.3436 48.0792 10.0924 47.912C9.84115 47.7448 9.58526 47.503 9.32469 47.1865C9.09362 46.9059 8.92882 46.6125 8.83027 46.3062C8.73371 45.9983 8.70616 45.687 8.74763 45.3724C8.79073 45.0597 8.90478 44.7521 9.08976 44.4494C9.27674 44.1452 9.53741 43.8554 9.87177 43.5801L10.1434 43.3564C10.4778 43.0811 10.8106 42.8789 11.1418 42.7498C11.4746 42.6227 11.7969 42.566 12.1088 42.5797C12.4207 42.5934 12.7152 42.6732 12.9922 42.8191C13.2693 42.965 13.5201 43.1743 13.7446 43.4469C14.056 43.8251 14.25 44.1864 14.3265 44.5308C14.405 44.8736 14.3883 45.1979 14.2762 45.5039C14.1678 45.8103 13.9865 46.0931 13.7325 46.3524L13.0172 45.4837C13.1464 45.3405 13.2404 45.193 13.299 45.0412C13.3577 44.8893 13.3703 44.7303 13.337 44.5641C13.3053 44.3998 13.2149 44.2271 13.0657 44.046C12.9428 43.8968 12.8022 43.7888 12.6438 43.7222C12.489 43.6559 12.3202 43.6313 12.1372 43.6484C11.9542 43.6655 11.7589 43.7244 11.5514 43.8252C11.3438 43.926 11.1256 44.0706 10.8967 44.2591L10.6191 44.4877C10.3922 44.6745 10.2092 44.8619 10.0701 45.0499C9.933 45.2363 9.83997 45.4214 9.79103 45.6053C9.74571 45.7896 9.74564 45.97 9.79081 46.1465C9.83599 46.323 9.92822 46.4959 10.0675 46.6651C10.1839 46.8064 10.2925 46.914 10.3934 46.9878C10.496 47.0637 10.5879 47.1166 10.6693 47.1464C10.7543 47.1766 10.8258 47.1946 10.8838 47.2002L11.6541 46.566L10.9805 45.748L11.6194 45.2219L13.0304 46.9355Z" fill="#0C0B0B"/>
<path d="M17.9168 47.4247L18.8353 48.127L16.5757 51.0824C16.3126 51.4265 16.0173 51.6599 15.6897 51.7827C15.3642 51.907 15.0271 51.9299 14.6782 51.8514C14.3313 51.7745 13.991 51.6084 13.6572 51.3531C13.3233 51.0979 13.0718 50.8114 12.9025 50.4937C12.7353 50.1776 12.668 49.8455 12.7006 49.4972C12.7353 49.1505 12.8841 48.8051 13.1472 48.461L15.4069 45.5057L16.3285 46.2103L14.0688 49.1657C13.9154 49.3664 13.8219 49.5545 13.7883 49.73C13.7547 49.9056 13.7745 50.0684 13.8479 50.2186C13.9233 50.3704 14.043 50.509 14.2068 50.6342C14.3748 50.7626 14.5398 50.8418 14.702 50.8716C14.8662 50.9031 15.0275 50.8788 15.1861 50.7988C15.3466 50.7204 15.5037 50.5808 15.6571 50.3801L17.9168 47.4247Z" fill="#0C0B0B"/>
<path d="M20.9837 50.228L17.669 53.8537L16.5444 53.3466L20.7661 49.0736L21.4817 49.3963L20.9837 50.228ZM20.2249 55.0061L20.744 50.1199L21.027 49.1913L21.7497 49.5171L21.353 55.5148L20.2249 55.0061ZM21.023 53.0668L20.6494 53.8952L17.9384 52.6728L18.312 51.8444L21.023 53.0668Z" fill="#0C0B0B"/>
<path d="M23.8157 50.367L25.875 50.7775C26.2973 50.8617 26.6475 50.9972 26.9257 51.1841C27.2064 51.3715 27.4043 51.6055 27.5192 51.8861C27.6342 52.1666 27.6556 52.4876 27.5835 52.8492C27.5246 53.145 27.4234 53.389 27.2799 53.5813C27.1395 53.7715 26.9641 53.9192 26.7538 54.0245C26.5466 54.1278 26.3133 54.197 26.0539 54.232L25.6558 54.3498L23.8658 53.993L24.0351 53.104L25.3663 53.3694C25.566 53.4092 25.7387 53.4068 25.8843 53.3622C26.0299 53.3176 26.1481 53.2387 26.239 53.1254C26.3325 53.0126 26.3959 52.8727 26.4291 52.7058C26.4644 52.5289 26.462 52.3693 26.422 52.2273C26.382 52.0852 26.3018 51.9667 26.1814 51.8717C26.061 51.7768 25.8996 51.7091 25.6974 51.6688L24.7758 51.4851L23.8527 56.1158L22.7149 55.889L23.8157 50.367ZM25.8021 56.5044L25.0336 53.792L26.2373 54.0241L27.0301 56.694L27.0195 56.7471L25.8021 56.5044Z" fill="#0C0B0B"/>
<path d="M30.743 52.1312L29.3527 56.8428L28.1196 56.88L30.0414 51.1889L30.8261 51.1653L30.743 52.1312ZM32.1551 56.7585L30.4801 52.1391L30.3274 51.1803L31.1199 51.1565L33.3921 56.7213L32.1551 56.7585ZM32.0225 54.6655L32.0498 55.5739L29.0773 55.6634L29.05 54.755L32.0225 54.6655Z" fill="#0C0B0B"/>
<path d="M37.733 49.8404L39.2143 55.2727L38.095 55.5779L34.9195 52.5316L35.9124 56.1731L34.7931 56.4783L33.3118 51.046L34.4311 50.7408L37.6114 53.7898L36.6175 50.1446L37.733 49.8404Z" fill="#0C0B0B"/>
<path d="M40.486 48.3977L43.1511 53.3577L42.1325 53.905L39.4674 48.945L40.486 48.3977ZM42.0121 47.5777L42.4423 48.3782L38.3953 50.5528L37.9651 49.7522L42.0121 47.5777Z" fill="#0C0B0B"/>
<path d="M48.1632 48.5517L48.7455 49.2443L46.4514 51.173L45.8691 50.4803L48.1632 48.5517ZM43.1181 46.6192L46.7415 50.9291L45.8535 51.6757L42.2301 47.3658L43.1181 46.6192ZM46.2989 46.9411L46.8663 47.616L44.8712 49.2933L44.3038 48.6184L46.2989 46.9411ZM45.1192 44.9369L45.704 45.6325L43.4129 47.5587L42.828 46.8631L45.1192 44.9369Z" fill="#0C0B0B"/>
<path d="M51.4651 44.5913L52.1729 45.1551L50.3056 47.4993L49.5978 46.9355L51.4651 44.5913ZM46.1376 43.6947L50.5417 47.2029L49.8189 48.1103L45.4147 44.6021L46.1376 43.6947ZM49.3192 43.3812L50.0088 43.9306L48.3848 45.9693L47.6952 45.4199L49.3192 43.3812ZM47.7664 41.6499L48.4772 42.2161L46.6123 44.5573L45.9014 43.9911L47.7664 41.6499Z" fill="#0C0B0B"/>
<path d="M5.87998 31.385L7.36318 32.2802L6.96958 30.593L8.27998 29.4578L6.55438 29.3114L5.87998 27.7202L5.20558 29.3114L3.47998 29.4578L4.79038 30.593L4.39678 32.2802L5.87998 31.385Z" fill="#0C0B0B"/>
<path d="M54.12 31.385L55.6032 32.2802L55.2096 30.593L56.52 29.4578L54.7944 29.3114L54.12 27.7202L53.4456 29.3114L51.72 29.4578L53.0304 30.593L52.6368 32.2802L54.12 31.385Z" fill="#0C0B0B"/>
</svg>
