<svg width="60" height="58" viewBox="0 0 60 58" fill="none" xmlns="http://www.w3.org/2000/svg">
<path d="M60 28.1792C60 44.6488 42.3858 58 30 58C8.25732 58 4.87022e-05 45.2812 1.06063e-08 28.1792C-5.76306e-05 7.93396 17.614 0 28.3486 0C49.2665 0 60 11.7097 60 28.1792Z" fill="#F9B749"/>
<path d="M21.96 18.816C22.9413 18.816 23.6133 18.6987 23.976 18.464C24.36 18.2293 24.552 17.6853 24.552 16.832V13.888C24.552 13.4187 24.4027 13.0347 24.104 12.736C23.8267 12.4373 23.4427 12.288 22.952 12.288C22.376 12.288 21.96 12.4693 21.704 12.832C21.4693 13.1947 21.352 13.5467 21.352 13.888V15.744H18.088V13.856C18.088 13.1947 18.216 12.5653 18.472 11.968C18.728 11.3707 19.08 10.8587 19.528 10.432C19.976 10.0053 20.4987 9.664 21.096 9.408C21.6933 9.152 22.3333 9.024 23.016 9.024C23.912 9.024 24.648 9.20533 25.224 9.568C25.8213 9.90933 26.2693 10.2613 26.568 10.624C26.7813 10.88 26.9627 11.1467 27.112 11.424C27.2827 11.68 27.4107 11.9893 27.496 12.352C27.6027 12.6933 27.6773 13.12 27.72 13.632C27.784 14.1227 27.816 14.7307 27.816 15.456C27.816 16.2453 27.7947 16.8853 27.752 17.376C27.7307 17.8667 27.6453 18.2827 27.496 18.624C27.368 18.944 27.1653 19.2213 26.888 19.456C26.632 19.6907 26.2693 19.9467 25.8 20.224C26.312 20.544 26.696 20.8427 26.952 21.12C27.2293 21.3973 27.432 21.728 27.56 22.112C27.688 22.4747 27.7627 22.9227 27.784 23.456C27.8053 23.968 27.816 24.6293 27.816 25.44C27.816 26.1867 27.7947 26.8053 27.752 27.296C27.7307 27.7867 27.688 28.2027 27.624 28.544C27.56 28.864 27.4747 29.1413 27.368 29.376C27.2613 29.6107 27.1227 29.856 26.952 30.112C26.5467 30.7093 26.024 31.2107 25.384 31.616C24.744 32 23.9227 32.192 22.92 32.192C22.408 32.192 21.864 32.1067 21.288 31.936C20.712 31.7653 20.1893 31.488 19.72 31.104C19.2507 30.72 18.856 30.2187 18.536 29.6C18.2373 28.9813 18.088 28.224 18.088 27.328V25.472H21.352V27.168C21.352 27.68 21.4907 28.1067 21.768 28.448C22.0667 28.768 22.4613 28.928 22.952 28.928C23.4427 28.928 23.8267 28.768 24.104 28.448C24.4027 28.1067 24.552 27.6587 24.552 27.104V23.84C24.552 23.392 24.5093 23.0293 24.424 22.752C24.36 22.4747 24.232 22.2613 24.04 22.112C23.848 21.9413 23.5813 21.8347 23.24 21.792C22.92 21.728 22.4933 21.696 21.96 21.696V18.816ZM33.2583 27.296C33.2583 27.7653 33.4076 28.16 33.7063 28.48C34.0049 28.7787 34.3889 28.928 34.8583 28.928C35.3276 28.928 35.7116 28.7787 36.0103 28.48C36.3089 28.16 36.4583 27.7653 36.4583 27.296V13.92C36.4583 13.4507 36.3089 13.0667 36.0103 12.768C35.7116 12.448 35.3276 12.288 34.8583 12.288C34.3889 12.288 34.0049 12.448 33.7063 12.768C33.4076 13.0667 33.2583 13.4507 33.2583 13.92V27.296ZM29.9943 13.92C29.9943 13.152 30.1223 12.4693 30.3783 11.872C30.6556 11.2747 31.0183 10.7627 31.4663 10.336C31.9143 9.90933 32.4263 9.58933 33.0023 9.376C33.5996 9.14133 34.2183 9.024 34.8583 9.024C35.4983 9.024 36.1063 9.14133 36.6823 9.376C37.2796 9.58933 37.8023 9.90933 38.2503 10.336C38.6983 10.7627 39.0503 11.2747 39.3063 11.872C39.5836 12.4693 39.7223 13.152 39.7223 13.92V27.296C39.7223 28.064 39.5836 28.7467 39.3063 29.344C39.0503 29.9413 38.6983 30.4533 38.2503 30.88C37.8023 31.3067 37.2796 31.6373 36.6823 31.872C36.1063 32.0853 35.4983 32.192 34.8583 32.192C34.2183 32.192 33.5996 32.0853 33.0023 31.872C32.4263 31.6373 31.9143 31.3067 31.4663 30.88C31.0183 30.4533 30.6556 29.9413 30.3783 29.344C30.1223 28.7467 29.9943 28.064 29.9943 27.296V13.92Z" fill="black"/>
<path d="M20 48.08H20.94C21.5133 48.08 21.92 47.94 22.16 47.66C22.4 47.3667 22.52 46.9133 22.52 46.3V39.44C22.52 38.88 22.4067 38.4467 22.18 38.14C21.9533 37.8333 21.54 37.68 20.94 37.68H20V48.08ZM17.96 35.76H20.98C22.14 35.76 23.0267 36.0867 23.64 36.74C24.2533 37.38 24.56 38.28 24.56 39.44V46.1C24.56 47.4333 24.2333 48.42 23.58 49.06C22.94 49.6867 22.0133 50 20.8 50H17.96V35.76ZM29.3613 39.86H29.3213L28.3213 45.02H30.3613L29.3613 39.86ZM28.5013 35.76H30.2013L33.3813 50H31.3413L30.7413 46.94H27.9613L27.3613 50H25.3213L28.5013 35.76ZM35.192 43.98L32.392 35.76H34.552L36.192 41.42H36.232L37.872 35.76H40.032L37.232 43.98V50H35.192V43.98Z" fill="black"/>
</svg>
