<svg width="51" height="50" viewBox="0 0 51 50" fill="none" xmlns="http://www.w3.org/2000/svg">
<g clip-path="url(#clip0_343_656)">
<path d="M25.7164 50.0806C11.8858 50.0806 0.595459 38.8306 0.595459 24.9597C0.595459 11.0887 11.8858 -0.161316 25.7164 -0.161316C39.5471 -0.161316 50.8374 11.0887 50.8374 24.9597C50.8374 38.8306 39.5471 50.0806 25.7164 50.0806ZM25.7164 1.93546C13.0148 1.93546 2.69223 12.258 2.69223 24.9597C2.69223 37.6613 13.0148 47.9838 25.7164 47.9838C38.418 47.9838 48.7406 37.6613 48.7406 24.9597C48.7406 12.258 38.418 1.93546 25.7164 1.93546Z" fill="#0065A3"/>
<path d="M25.8374 42.8629L26.6438 42.8225L26.2003 41.6532L25.8374 42.8629Z" fill="#0065A3"/>
<path d="M22.7727 41.0484L22.1679 40.9274L22.0066 41.7742L22.6114 41.8952C22.8937 41.9355 23.0953 41.8145 23.1356 41.5726C23.2163 41.2903 23.055 41.0887 22.7727 41.0484Z" fill="#0065A3"/>
<path d="M22.4099 32.8629H24.0228L23.2164 30.5242L22.4099 32.8629Z" fill="#0065A3"/>
<path d="M30.5551 8.91127C30.5954 8.70966 30.5147 8.50805 30.2325 8.4274L29.5873 8.26611L29.426 9.03224L30.0712 9.19353C30.3131 9.27418 30.5147 9.11289 30.5551 8.91127Z" fill="#0065A3"/>
<path d="M31.2808 24.758C32.0066 24.758 32.6115 24.2742 32.6115 23.2661V17.5806C32.6115 16.5726 32.0066 16.0887 31.2808 16.0887C30.555 16.0887 29.9502 16.5726 29.9502 17.5806V23.3064C29.9905 24.3145 30.5954 24.758 31.2808 24.758Z" fill="#0065A3"/>
<path d="M14.5066 12.8629C14.6275 12.8629 14.7888 12.8226 14.9098 12.7016C15.0307 12.5806 15.1114 12.4596 15.1114 12.2984C15.1114 12.0967 15.0307 11.9758 14.6275 11.5322C14.2243 11.0887 14.063 10.9677 13.9017 10.9677C13.7807 10.9677 13.6195 11.008 13.4985 11.129C13.3775 11.25 13.2969 11.4113 13.2969 11.5322C13.2969 11.7338 13.3775 11.8548 13.7807 12.2984C14.184 12.7419 14.3049 12.8226 14.5066 12.8629Z" fill="#0065A3"/>
<path d="M19.063 41.6129L19.1437 40.3629L18.2969 41.2903L19.063 41.6129Z" fill="#0065A3"/>
<path d="M17.3696 29.7177H16.4019V33.9516H17.3696C17.8131 33.9516 18.0954 33.8306 18.3373 33.5484C18.5793 33.2661 18.6196 32.7822 18.6196 31.8145C18.6196 30.8467 18.5793 30.4032 18.3373 30.1209C18.0954 29.8387 17.8131 29.7177 17.3696 29.7177Z" fill="#0065A3"/>
<path d="M34.0631 8.83063L33.176 9.71773L33.9018 10.0806L34.0631 8.83063Z" fill="#0065A3"/>
<path d="M25.7163 3.9516C14.1437 3.9516 4.70825 13.3871 4.70825 24.9597C4.70825 36.5322 14.1437 45.9677 25.7163 45.9677C37.2889 45.9677 46.7244 36.5322 46.7244 24.9597C46.7244 13.3871 37.2889 3.9516 25.7163 3.9516ZM40.4744 12.9839L39.3453 13.7903L41.1599 13.871L41.6034 14.4758L39.9502 14.3548L39.0228 16.4113L38.5792 15.8064L39.305 14.2742L38.6599 14.2339L37.8534 14.7984L37.4905 14.2742L40.1115 12.379L40.4744 12.9839ZM35.9986 10.7661C36.3615 10.3226 36.6034 10.0403 37.0873 9.99999C37.4099 9.95966 37.6921 10.0806 37.9744 10.2822C38.4179 10.6855 38.5792 11.25 38.2163 11.8548L37.7324 11.4516C37.8534 11.2097 37.8534 10.9677 37.6115 10.7661C37.4905 10.6451 37.3292 10.6048 37.2083 10.6451C37.0066 10.6855 36.8857 10.7661 36.4824 11.25C36.0792 11.7339 35.9986 11.8548 35.9986 12.0564C35.9986 12.1774 36.0792 12.3387 36.2002 12.4597C36.4421 12.6613 36.6841 12.621 36.926 12.4597L37.4099 12.8629C36.8857 13.3064 36.2808 13.2661 35.8373 12.8629C35.555 12.621 35.4341 12.3387 35.3937 12.0161C35.3534 11.4919 35.6357 11.1693 35.9986 10.7661ZM34.547 32.6613C34.426 32.5403 34.2647 32.4597 33.9824 32.4193L33.2163 32.2984C32.6518 32.2177 32.2486 32.0564 31.9663 31.7742C31.6437 31.4516 31.4824 31.0484 31.4824 30.4839C31.4824 29.3145 32.3292 28.508 33.7405 28.508C34.6276 28.508 35.2728 28.7097 35.8373 29.2742L35.0308 30.0806C34.6276 29.6774 34.1437 29.6371 33.7002 29.6371C33.0147 29.6371 32.6921 30 32.6921 30.4435C32.6921 30.6048 32.7324 30.7661 32.8937 30.9274C33.0147 31.0484 33.2163 31.129 33.4986 31.1693L34.2647 31.2903C34.8695 31.371 35.2324 31.5322 35.5147 31.7742C35.8776 32.0968 35.9986 32.5806 35.9986 33.1451C35.9986 34.3951 34.9502 35.121 33.5792 35.121C32.6115 35.121 31.8454 34.9193 31.2002 34.2742L32.0066 33.4677C32.4099 33.871 32.9744 34.0322 33.5792 34.0322C34.3453 34.0322 34.7486 33.75 34.7486 33.2258C34.7486 32.9839 34.6679 32.7822 34.547 32.6613ZM34.2647 7.86289L34.7083 8.0645L34.305 11.4919L33.7002 11.2097L33.7808 10.6048L32.7324 10.0806L32.2889 10.5242L31.6841 10.2419L34.2647 7.86289ZM29.3857 6.29031L30.6357 6.57257C31.2405 6.73386 31.5228 7.13708 31.4018 7.7016C31.3212 8.0645 31.0389 8.22579 30.8776 8.26612C31.0389 8.38708 31.2405 8.66934 31.1599 9.07257C31.0389 9.67741 30.555 9.87902 29.9905 9.75805L28.6599 9.43547L29.3857 6.29031ZM26.6437 17.5806C26.6437 14.5968 28.9018 13.0645 31.3212 13.0645C33.7405 13.0645 35.9986 14.5968 35.9986 17.5806V23.2661C35.9986 26.25 33.7405 27.7822 31.3212 27.7822C28.9018 27.7822 26.6437 26.25 26.6437 23.2661V17.5806ZM23.9421 6.0887L24.6276 7.37902L25.1518 6.04837L25.8373 6.00805L24.9502 7.98386L25.0308 9.3145L24.3857 9.35483L24.305 8.02418L23.2163 6.16934L23.9421 6.0887ZM21.805 6.33063L21.926 6.89515L20.4744 7.25805L20.676 7.98386L21.926 7.66128L22.047 8.22579L20.797 8.54837L20.9986 9.3145L22.4502 8.9516L22.5712 9.51612L20.5147 10.0403L19.7083 6.89515L21.805 6.33063ZM16.0792 8.46773L18.1357 9.59676L17.2083 7.86289L17.7728 7.58063L19.305 10.4435L18.8212 10.7258L16.7647 9.55644L17.6921 11.3306L17.1276 11.6129L15.5953 8.74999L16.0792 8.46773ZM13.0953 10.6855C13.3776 10.4435 13.6599 10.3629 13.9824 10.3629C14.426 10.4032 14.7083 10.6855 15.0712 11.0887C15.4341 11.4919 15.7163 11.8145 15.7163 12.2581C15.7163 12.5806 15.5953 12.8629 15.3131 13.1048C15.0308 13.3468 14.7486 13.4677 14.426 13.4274C13.9824 13.3871 13.7002 13.1048 13.3373 12.7016C12.9744 12.2984 12.6921 11.9758 12.6921 11.5322C12.6921 11.2097 12.8131 10.9274 13.0953 10.6855ZM9.62761 14.9193L11.5631 15.2016L10.5953 13.5081L10.9583 12.9839L13.6599 14.7984L13.2566 15.3226L11.6841 14.2742L12.3695 15.4839L12.1276 15.8468L10.7566 15.6855L12.3292 16.7339L11.9663 17.2581L9.2647 15.4435L9.62761 14.9193ZM10.8373 34.3548C10.797 34.3951 10.7163 34.3951 10.676 34.3951C10.555 34.3951 10.4744 34.3548 10.4341 34.2339C8.74051 31.4516 7.81309 28.2258 7.81309 24.9193C7.81309 22.5 8.29696 20.1613 9.22438 17.9435C9.30503 17.7822 9.46632 17.7016 9.62761 17.7822C9.7889 17.8629 9.86954 18.0242 9.7889 18.1855C8.86148 20.3226 8.41793 22.5806 8.41793 24.9193C8.41793 28.1048 9.30503 31.2097 10.9583 33.9113C11.0389 34.0726 10.9986 34.2742 10.8373 34.3548ZM13.5389 35.8468C13.4179 35.7258 13.297 35.6451 13.1357 35.6451C12.9341 35.6451 12.8131 35.7258 12.3695 36.129C11.926 36.5322 11.805 36.6935 11.805 36.8548C11.805 36.9758 11.8453 37.1371 11.9663 37.2581C12.0873 37.4193 12.2486 37.4597 12.4099 37.4597C12.5712 37.4597 12.6921 37.379 12.8131 37.2581L12.8937 37.1774L12.4905 36.7339L12.8937 36.371L13.7002 37.2984L13.3373 37.621C12.9744 37.9435 12.7324 38.0645 12.4099 38.0645C12.047 38.0645 11.7647 37.9032 11.5228 37.621C11.2808 37.3387 11.2002 37.0564 11.2002 36.7339C11.2405 36.2903 11.5228 36.0081 11.926 35.6451C12.3292 35.2822 12.6518 35 13.0953 35C13.4179 35 13.7002 35.121 13.9421 35.4032C14.426 35.9677 14.3453 36.5726 13.9824 37.0161L13.5389 36.5322C13.7405 36.3306 13.7405 36.0887 13.5389 35.8468ZM14.6276 40.4839C14.1034 40.0806 13.9018 39.4355 14.305 38.871L15.555 37.1371L16.0792 37.5L14.8695 39.1935C14.6679 39.5161 14.7083 39.7984 14.9905 40C15.2728 40.2016 15.5953 40.1613 15.797 39.8387L17.0066 38.1451L17.5308 38.508L16.2808 40.2419C15.8373 40.8064 15.1518 40.8468 14.6276 40.4839ZM19.547 43.0242L18.9421 42.7822L18.9824 42.1774L17.9341 41.7339L17.5308 42.1774L16.926 41.9355L19.2647 39.3951L19.7083 39.5968L19.547 43.0242ZM19.1841 34.4758C18.7808 34.879 18.1357 35.0806 17.4905 35.0806H15.1518V28.5887H17.4905C18.176 28.5887 18.7808 28.7903 19.2244 29.1935C19.9502 29.9193 19.8695 30.8064 19.8695 31.7742C19.8292 32.7822 19.9099 33.75 19.1841 34.4758ZM15.1518 23.2661H18.4986C18.4986 24.2742 19.1437 24.7984 19.9905 24.7984C20.8776 24.7984 21.4824 24.2742 21.4824 23.2661C21.4824 22.379 20.8373 21.7339 19.9502 21.7339H19.4663V18.8306H19.9502C20.9583 18.8306 21.3212 18.1048 21.3212 17.4597C21.3212 16.5322 20.676 16.0887 19.9905 16.0887C19.305 16.0887 18.6599 16.5726 18.6599 17.4597H15.3131C15.3131 14.7177 17.4099 13.0645 19.9905 13.0645C22.6921 13.0645 24.6679 14.8387 24.6679 17.379C24.6679 18.9516 23.9018 19.7581 23.176 20.2016C23.9824 20.7661 24.8292 21.6129 24.8292 23.3468C24.8292 26.371 22.5308 27.8226 19.9905 27.8226C17.5712 27.7822 15.1518 26.4919 15.1518 23.2661ZM23.7808 41.6532C23.7002 42.0968 23.3776 42.3387 23.055 42.379L23.4986 43.871L22.7728 43.75L22.3695 42.379L21.926 42.2984L21.6841 43.5887L21.0792 43.4677L21.6437 40.2822L22.8937 40.5242C23.5792 40.6048 23.8615 41.129 23.7808 41.6532ZM24.3857 33.9516H22.0873L21.6841 35.121H20.3534L22.7324 28.629H23.7405L26.0792 35.0806H24.7486L24.3857 33.9516ZM27.047 43.9113L26.8453 43.3468L25.676 43.3871L25.5147 43.9516L24.8695 43.9919L25.9179 40.7258H26.4018L27.6921 43.9113H27.047ZM25.8373 28.5887H27.2083L28.4179 31.2097L29.6276 28.5887H30.9986L29.0631 32.4193V35.0806H27.8131V32.4193L25.8373 28.5887ZM31.1195 43.1855L29.3857 41.5726L29.8695 43.5081L29.2647 43.6693L28.4583 40.5242L29.0228 40.3629L30.7566 41.9758L30.2728 40.0403L30.8776 39.9193L31.6841 43.0645L31.1195 43.1855ZM33.9824 42.0564L32.7728 39.6774L32.0066 40.0403L31.7647 39.5564L33.8212 38.508L34.0631 38.9919L33.297 39.3548L34.5066 41.7339L33.9824 42.0564ZM36.7244 40.4839L34.7486 37.9435L36.4421 36.6129L36.805 37.0564L35.6357 37.9839L36.1195 38.5887L37.1276 37.7822L37.4905 38.2258L36.4824 39.0322L36.9663 39.6371L38.1357 38.7097L38.4986 39.1532L36.7244 40.4839ZM39.6679 37.9435L37.2083 35.8468L38.5792 34.2339L39.0228 34.5968L38.055 35.7258L38.6195 36.2097L39.4663 35.2419L39.9099 35.6048L39.0631 36.5726L39.6679 37.0968L40.6357 35.9677L41.0792 36.3306L39.6679 37.9435ZM41.0389 33.871C40.9986 33.871 40.9179 33.871 40.8776 33.8306C40.7163 33.75 40.676 33.5484 40.7566 33.4274C42.2083 30.8468 42.9744 27.9032 42.9744 24.9597C42.9744 22.3387 42.4099 19.7984 41.2808 17.4597C41.2002 17.2984 41.2808 17.1371 41.4018 17.0564C41.5631 16.9758 41.7244 17.0564 41.805 17.1774C42.9744 19.5968 43.5792 22.2177 43.5792 24.9597C43.5792 28.0242 42.7728 31.0484 41.2808 33.75C41.2405 33.8306 41.1195 33.871 41.0389 33.871Z" fill="#0065A3"/>
<path d="M30.797 7.58063C30.8373 7.37902 30.7163 7.1774 30.4744 7.13708L29.8695 7.01611L29.7083 7.74192L30.3131 7.86289C30.555 7.94353 30.7566 7.82257 30.797 7.58063Z" fill="#0065A3"/>
</g>
<defs>
<clipPath id="clip0_343_656">
<rect width="50" height="50" fill="white" transform="translate(0.635742)"/>
</clipPath>
</defs>
</svg>
