<svg width="61" height="46" viewBox="0 0 61 46" fill="none" xmlns="http://www.w3.org/2000/svg">
<path d="M24.0831 19.8721L24.6243 9.7262C24.6735 9.13803 24.2307 8.6969 23.6403 8.79493C23.0498 8.84394 22.5578 9.3831 22.5086 9.92225L21.9674 20.0682C21.4262 20.4113 20.9833 20.9014 20.7865 21.4896L8.23988 22.5189C7.64945 22.5679 7.15743 23.058 7.10823 23.6462C7.05902 24.2344 7.50185 24.6265 8.09228 24.6265C8.09228 24.6265 8.09228 24.6265 8.14148 24.6265L21.0817 23.5482C21.4754 24.0383 22.0658 24.2834 22.7546 24.2834C24.0339 24.2344 25.1655 23.1561 25.264 21.8817C25.3132 20.9504 24.8211 20.1662 24.0831 19.8721Z" fill="#F9B749"/>
<path d="M31.9703 30.4784L36.036 8.31271L32.1216 8.71095L32.4132 11.5769L29.2677 11.8969L28.6348 5.67578L39.2596 4.59483L39.6222 8.15972L35.7449 30.0943L31.9703 30.4784Z" fill="#0C0B0B"/>
<path d="M39.1858 26.4405L46.025 16.2455L46.5662 15.4613C47.4027 14.1869 48.0423 13.1576 48.4359 12.3244C48.8787 11.4912 49.1247 10.6089 49.2232 9.72666C49.3216 8.89342 49.2231 8.30525 48.9279 7.91314C48.6819 7.52103 48.2391 7.37399 47.6487 7.423C46.8122 7.52103 46.2218 7.91314 45.8282 8.64835C45.4346 9.33455 45.1885 10.3148 45.0901 11.4422L44.9917 12.6185L40.4159 13.2067L40.5143 11.9323C40.7111 9.57962 41.4492 7.61906 42.63 6.09962C43.8601 4.58018 45.5822 3.64892 47.8947 3.40385C50.0104 3.15878 51.5849 3.50187 52.5689 4.53117C53.553 5.56046 53.9958 7.12892 53.799 9.23652C53.7006 10.5109 53.3562 11.7362 52.7657 12.8146C52.2245 13.8929 51.3389 15.2653 50.2564 16.9317L49.8628 17.5199L44.4505 25.4112L51.7325 24.4799L51.3881 28.303L38.8906 29.8715L39.1858 26.4405Z" fill="#0C0B0B"/>
<path d="M24.5258 33.7932L26.8383 33.4991L26.3955 38.3025L28.4128 38.0574L28.8556 33.254L31.1682 32.96L30.0857 44.7233L27.7732 45.0174L28.2652 39.7729L26.2479 40.018L25.7559 45.2625L23.4434 45.5566L24.5258 33.7932Z" fill="#EC4F7F"/>
<path d="M31.8081 43.6936C31.3652 43.1055 31.1684 42.1742 31.316 40.8998L31.7097 36.4886C31.8081 35.2142 32.1525 34.2339 32.7429 33.5477C33.3333 32.8615 34.219 32.4204 35.3998 32.2734C36.5807 32.1263 37.4172 32.3224 37.9092 32.9105C38.352 33.4987 38.5488 34.43 38.4504 35.6553L38.0568 40.0666C37.9584 41.341 37.614 42.3212 37.0235 43.0565C36.4331 43.7917 35.5475 44.2328 34.3666 44.3798C33.0873 44.4779 32.2509 44.2818 31.8081 43.6936ZM35.3014 42.1252C35.449 41.8311 35.5475 41.439 35.5967 40.9488L36.0887 35.3612C36.1379 34.8711 36.0887 34.528 35.9903 34.2829C35.8919 34.0379 35.6459 33.9398 35.2522 33.9888C34.8586 34.0379 34.5634 34.1849 34.4158 34.479C34.2682 34.7731 34.1698 35.1652 34.1206 35.6553L33.6286 41.2429C33.5794 41.7331 33.6286 42.1252 33.727 42.3703C33.8254 42.6153 34.0714 42.7134 34.5142 42.6643C34.8586 42.5663 35.1538 42.4193 35.3014 42.1252Z" fill="#EC4F7F"/>
<path d="M39.7774 43.2033C39.3346 42.9583 39.0394 42.5662 38.8918 42.027C38.7442 41.4879 38.695 40.8017 38.7934 39.9194L39.5314 31.8811L41.7947 31.587L41.0075 39.9684C40.9583 40.5076 40.9583 40.9487 41.1059 41.2428C41.2043 41.5369 41.4503 41.6839 41.8931 41.6349C42.2868 41.5859 42.582 41.3898 42.7296 41.0467C42.8772 40.7036 42.9756 40.2625 43.0248 39.7233L43.812 31.3419L46.1246 31.0479L45.3865 39.0862C45.2881 39.9684 45.1405 40.7036 44.8945 41.2918C44.6485 41.88 44.2549 42.3701 43.7628 42.7132C43.2708 43.0563 42.582 43.3014 41.7455 43.3994C40.8599 43.5464 40.2203 43.4484 39.7774 43.2033Z" fill="#EC4F7F"/>
<path d="M47.0102 30.9492L49.9623 30.5571C51.1924 30.41 52.078 30.5081 52.6685 30.9002C53.2589 31.2923 53.4557 32.0765 53.3573 33.2039C53.3081 33.9881 53.1113 34.5762 52.8653 35.1154C52.6193 35.6055 52.2257 35.9977 51.6844 36.3408L52.7177 41.8793L50.356 42.1734L49.5687 36.9779L48.7323 37.076L48.2403 42.4185L45.9277 42.7126L47.0102 30.9492ZM49.5687 35.6055C50.1099 35.5565 50.5036 35.3605 50.7496 35.0664C50.9956 34.7723 51.1432 34.3312 51.1924 33.743C51.2416 33.1548 51.1924 32.7627 50.9956 32.5177C50.848 32.2726 50.5036 32.1746 49.9623 32.2236L49.1751 32.3216L48.8799 35.7036L49.5687 35.6055Z" fill="#EC4F7F"/>
<path d="M54.0486 40.9975C53.5566 40.4583 53.3598 39.5761 53.4582 38.3507L55.4755 37.7625C55.4263 38.4977 55.4755 39.0369 55.6231 39.38C55.7707 39.7231 56.0167 39.8701 56.4103 39.8211C56.7056 39.7721 56.9024 39.6741 57.05 39.478C57.1976 39.282 57.2468 39.0369 57.296 38.7428C57.3452 38.3017 57.296 37.9096 57.0992 37.6155C56.9516 37.3214 56.6564 36.9783 56.2627 36.6842L55.1803 35.753C54.7375 35.4099 54.4422 35.0177 54.2454 34.5766C54.0486 34.1355 53.9502 33.5963 54.0486 32.9592C54.147 31.9789 54.4914 31.2437 55.0819 30.6555C55.6723 30.0673 56.4595 29.7242 57.4436 29.5772C58.4768 29.4301 59.1657 29.6752 59.5101 30.2144C59.8545 30.8025 60.0021 31.5377 60.0021 32.469L57.9848 33.0082C58.034 32.371 57.9848 31.9299 57.8864 31.6358C57.788 31.3417 57.5912 31.2437 57.2468 31.2927C57.0008 31.3417 56.804 31.4397 56.6072 31.6848C56.4595 31.8808 56.3611 32.1259 56.3119 32.42C56.2627 32.8121 56.3119 33.1062 56.4595 33.3513C56.6072 33.5963 56.8532 33.8414 57.1484 34.1355L58.1816 35.0177C58.6737 35.4589 59.0673 35.9 59.3133 36.4392C59.5593 36.9293 59.6577 37.5665 59.6085 38.3017C59.5593 38.8408 59.4117 39.38 59.1165 39.8701C58.8213 40.3603 58.4768 40.7524 57.9848 41.0465C57.4928 41.3406 57.0008 41.5366 56.4103 41.6346C55.2787 41.7327 54.4914 41.5366 54.0486 40.9975Z" fill="#EC4F7F"/>
<path d="M24.7224 0.0219255C12.4217 0.561081 1.40037 10.9521 0.121107 23.2056C-1.15816 35.4101 7.8459 44.9188 20.0973 44.3307C20.5401 44.3307 20.983 44.2817 21.4258 44.2326L21.8194 40.6546C21.3766 40.7036 20.9338 40.7526 20.4417 40.7526C10.1584 41.2428 2.63043 33.2535 3.71289 23.0586C4.84455 12.7656 14.0454 4.0901 24.3779 3.59996C27.2317 3.45291 29.8394 3.99207 32.1519 5.02136C32.5456 4.72728 33.5788 3.79601 33.9232 3.35489L36.4818 3.0608C33.2344 0.953194 29.1998 -0.174131 24.7224 0.0219255Z" fill="#F9B749"/>
</svg>
