<svg width="58" height="60" viewBox="0 0 58 60" fill="none" xmlns="http://www.w3.org/2000/svg">
<rect y="2" width="58" height="58" rx="29" fill="white"/>
<path d="M29.08 57C28.4831 57 28 56.5151 28 55.9159V54.8074H30.1601C42.7614 54.2379 52.84 43.7698 52.84 30.9823C52.84 25.8615 51.2238 21.1126 48.4766 17.2225C48.1823 16.8057 48.2256 16.2335 48.5949 15.8815L48.7197 15.7627C49.1481 15.3544 49.8369 15.4047 50.1802 15.8868C53.2135 20.1465 55 25.359 55 30.9824C55 45.3282 43.3732 57 29.08 57Z" fill="url(#paint0_linear)"/>
<path d="M28.92 5.00024C29.5169 5.00024 30 5.48479 30 6.0836V7.19124H28.92H27.8399C15.2386 7.7604 5.15996 18.2213 5.15996 31.0002C5.15996 43.7791 15.2386 54.24 27.8399 54.8091H30V55.9169C30 56.5157 29.5169 57.0002 28.92 57.0002C14.6268 57.0002 3 45.3364 3 31.0003C3 16.6642 14.6268 5.00024 28.92 5.00024Z" fill="#FF3C81"/>
<path d="M28.92 5.00024C29.5169 5.00024 30 5.48479 30 6.0836V7.19124H28.9403L24.6073 10.3866C24.1506 10.7234 24.0534 11.3666 24.3902 11.8233C24.727 12.2801 25.3702 12.3773 25.8269 12.0404L32.001 7.48739C32.4954 7.12281 32.5552 6.37782 32.1236 5.9398L26.6885 0.416175C26.2959 0.0170742 25.6346 0.0115887 25.2356 0.40437C24.8368 0.796797 24.8321 1.45831 25.2238 1.85735L28.323 5.00703C28.5215 5.00251 28.7205 5.00024 28.92 5.00024Z" fill="#FF3C81"/>
<path d="M29.5996 20.608H28.2556V21.592H27.1756V19.456H30.8236V20.68L28.7476 28H27.4516L29.5996 20.608ZM21.0767 40.848H21.6407C21.9847 40.848 22.2287 40.764 22.3727 40.596C22.5167 40.42 22.5887 40.148 22.5887 39.78V35.664C22.5887 35.328 22.5207 35.068 22.3847 34.884C22.2487 34.7 22.0007 34.608 21.6407 34.608H21.0767V40.848ZM19.8527 33.456H21.6647C22.3607 33.456 22.8927 33.652 23.2607 34.044C23.6287 34.428 23.8127 34.968 23.8127 35.664V39.66C23.8127 40.46 23.6167 41.052 23.2247 41.436C22.8407 41.812 22.2847 42 21.5567 42H19.8527V33.456ZM26.9335 35.916H26.9095L26.3095 39.012H27.5335L26.9335 35.916ZM26.4175 33.456H27.4375L29.3455 42H28.1215L27.7615 40.164H26.0935L25.7335 42H24.5095L26.4175 33.456ZM30.6719 38.388L28.9919 33.456H30.2879L31.2719 36.852H31.2959L32.2799 33.456H33.5759L31.8959 38.388V42H30.6719V38.388ZM38.3843 35.916H37.1603V35.64C37.1603 35.36 37.0923 35.12 36.9563 34.92C36.8283 34.712 36.6083 34.608 36.2963 34.608C36.1283 34.608 35.9883 34.64 35.8763 34.704C35.7723 34.768 35.6883 34.852 35.6243 34.956C35.5683 35.052 35.5283 35.168 35.5043 35.304C35.4803 35.432 35.4683 35.568 35.4683 35.712C35.4683 35.88 35.4723 36.024 35.4803 36.144C35.4963 36.256 35.5283 36.356 35.5763 36.444C35.6243 36.524 35.6923 36.596 35.7803 36.66C35.8763 36.724 36.0043 36.788 36.1643 36.852L37.1003 37.224C37.3723 37.328 37.5923 37.452 37.7603 37.596C37.9283 37.732 38.0563 37.896 38.1443 38.088C38.2403 38.272 38.3043 38.488 38.3363 38.736C38.3683 38.976 38.3843 39.252 38.3843 39.564C38.3843 39.924 38.3483 40.26 38.2763 40.572C38.2043 40.876 38.0843 41.14 37.9163 41.364C37.7563 41.58 37.5403 41.752 37.2683 41.88C36.9963 42.008 36.6643 42.072 36.2723 42.072C35.9763 42.072 35.7003 42.02 35.4443 41.916C35.1883 41.812 34.9683 41.672 34.7843 41.496C34.6003 41.312 34.4523 41.096 34.3403 40.848C34.2363 40.6 34.1843 40.332 34.1843 40.044V39.588H35.4083V39.972C35.4083 40.196 35.4723 40.4 35.6003 40.584C35.7363 40.76 35.9603 40.848 36.2723 40.848C36.4803 40.848 36.6403 40.82 36.7523 40.764C36.8723 40.7 36.9603 40.616 37.0163 40.512C37.0803 40.4 37.1203 40.264 37.1363 40.104C37.1523 39.944 37.1603 39.768 37.1603 39.576C37.1603 39.352 37.1523 39.168 37.1363 39.024C37.1203 38.88 37.0843 38.764 37.0283 38.676C36.9803 38.588 36.9083 38.516 36.8123 38.46C36.7243 38.404 36.6043 38.344 36.4523 38.28L35.5763 37.92C35.0483 37.704 34.6923 37.42 34.5083 37.068C34.3323 36.708 34.2443 36.26 34.2443 35.724C34.2443 35.404 34.2883 35.1 34.3763 34.812C34.4643 34.524 34.5923 34.276 34.7603 34.068C34.9363 33.86 35.1563 33.696 35.4203 33.576C35.6843 33.448 35.9923 33.384 36.3443 33.384C36.6483 33.384 36.9243 33.44 37.1723 33.552C37.4283 33.664 37.6443 33.812 37.8203 33.996C38.0043 34.18 38.1443 34.388 38.2403 34.62C38.3363 34.844 38.3843 35.076 38.3843 35.316V35.916Z" fill="#0C0B0B"/>
<defs>
<linearGradient id="paint0_linear" x1="33.184" y1="56.9999" x2="41.0172" y2="8.87656" gradientUnits="userSpaceOnUse">
<stop stop-color="#FF3C7F"/>
<stop offset="1" stop-color="#FF3C7F" stop-opacity="0.2"/>
</linearGradient>
</defs>
</svg>
