<svg width="79" height="80" viewBox="0 0 79 80" fill="none" xmlns="http://www.w3.org/2000/svg">
<g clip-path="url(#clip0)">
<path d="M69.7372 27.8595C70.3764 27.8595 70.8945 27.335 70.8945 26.6876V15.3668C70.8945 13.0521 69.1128 11.1468 66.838 11.0291C53.1135 10.3214 45.737 4.63755 42.5617 1.31256C41.7535 0.466115 40.6661 0 39.4999 0C38.3336 0 37.2463 0.466115 36.4383 1.3124C33.2628 4.6374 25.8863 10.3212 12.1614 11.0291C9.88697 11.1468 8.10522 13.052 8.10522 15.3668V48.0403C8.10522 57.4502 13.1048 66.2191 21.1533 70.9249L34.2458 78.5782C35.8665 79.5262 37.6829 80.0002 39.5 80.0002C41.3166 80.0002 43.1337 79.5262 44.7539 78.5784L57.8467 70.9251C65.8949 66.2192 70.8947 57.4504 70.8947 48.0404V32.1569C70.8947 31.5095 70.3765 30.985 69.7374 30.985C69.0983 30.985 68.5801 31.5095 68.5801 32.1569V48.0404C68.5801 56.6157 64.0238 64.6068 56.6895 68.8953L43.5965 76.5488C41.0697 78.0268 37.9301 78.0266 35.4031 76.5486L22.3104 68.8953C14.9761 64.6068 10.4198 56.6157 10.4198 48.0404V15.3668C10.4198 14.3011 11.2367 13.4239 12.2793 13.37C26.797 12.6213 34.6894 6.51514 38.1022 2.94185C38.4702 2.55636 38.9666 2.34401 39.4999 2.34401C40.0331 2.34401 40.5295 2.55636 40.8977 2.94201C44.3101 6.51514 52.2026 12.6213 66.7201 13.37C67.7631 13.424 68.5799 14.3011 68.5799 15.3668V26.6876C68.5799 27.335 69.0981 27.8595 69.7372 27.8595Z" fill="#FF3C7F"/>
<path d="M28.6991 37.3714C29.4562 37.3714 30.1678 37.6967 30.703 38.2873L35.5744 43.6618C35.9386 44.0637 36.5287 44.0634 36.8927 43.6618L42.229 37.7729C42.593 37.371 42.593 36.7197 42.229 36.3179C41.8649 35.9163 41.2746 35.9163 40.9106 36.3179L36.2336 41.4795L32.0215 36.8325C31.1342 35.8532 29.9544 35.314 28.6992 35.314C27.444 35.314 26.2641 35.8533 25.3769 36.8323C24.489 37.8123 24 39.1148 24 40.4999C24 41.8855 24.4891 43.1877 25.3769 44.1666L32.9101 52.48C33.7969 53.4602 34.9771 54 36.2337 54C37.4894 54 38.6692 53.4601 39.5554 52.4807L54.6227 35.8526C55.5109 34.8733 56 33.5712 56 32.1858C56 30.8005 55.511 29.4981 54.6231 28.5182C53.7359 27.5391 52.556 27 51.3008 27C50.0456 27 48.8658 27.5392 47.9785 28.5182L43.9872 32.9227C43.6231 33.3247 43.6231 33.976 43.9872 34.3777C44.3513 34.7794 44.9416 34.7794 45.3055 34.3777L49.2968 29.9731C49.8319 29.3826 50.5436 29.0575 51.3008 29.0575C52.0579 29.0575 52.7695 29.3826 53.3048 29.9732C53.8405 30.5645 54.1356 31.3502 54.1356 32.1858C54.1356 33.0214 53.8406 33.8065 53.3048 34.3974L38.2364 51.0264C37.7019 51.6172 36.9907 51.9425 36.2337 51.9425C35.4758 51.9425 34.7641 51.6172 34.2291 51.0257L26.695 42.7113C26.1595 42.1208 25.8645 41.3355 25.8645 40.4999C25.8645 39.6643 26.1596 38.8785 26.6953 38.2873C27.2303 37.6967 27.942 37.3714 28.6991 37.3714Z" fill="#0C0B0B"/>
</g>
<defs>
<clipPath id="clip0">
<rect width="79" height="80" fill="white"/>
</clipPath>
</defs>
</svg>
