<svg width="70" height="52" viewBox="0 0 70 52" fill="none" xmlns="http://www.w3.org/2000/svg">
<g clip-path="url(#clip0)">
<path d="M19.4785 40.6426L12.9618 43.6423C11.7953 44.1794 10.4459 44.2056 9.25929 43.7146C8.9447 43.5845 8.71241 43.3346 8.6055 43.0111C8.49858 42.6876 8.53646 42.3487 8.71173 42.0564L8.90382 41.7362C9.62227 40.5389 9.7281 39.0558 9.18669 37.7686L8.33315 35.7389C8.12138 35.2352 7.54101 34.9986 7.03774 35.2105C6.53394 35.4224 6.29741 36.0025 6.50933 36.5062L7.36272 38.5359C7.6605 39.2438 7.60226 40.0596 7.20714 40.7183L7.01505 41.0385C6.54583 41.8205 6.44056 42.7658 6.72657 43.6317C7.01259 44.4978 7.66009 45.1944 8.50269 45.543C9.30919 45.8767 10.1681 46.0431 11.0268 46.0431C11.9719 46.0431 12.9165 45.8414 13.7889 45.4398L20.3056 42.44C20.802 42.2116 21.0191 41.6241 20.7907 41.1277C20.5625 40.6314 19.9749 40.4144 19.4785 40.6426Z" fill="#0C0B0B"/>
<path d="M66.4576 34.9257C65.923 34.8133 65.398 35.1543 65.2849 35.689C65.0136 36.9729 64.5286 38.1915 63.8438 39.3107L59.7979 45.9245C58.4706 48.0938 56.0665 49.4016 53.5247 49.3385L49.7999 49.2454C47.6626 49.1919 45.7686 47.8749 44.9747 45.8897L43.4869 42.1703C43.199 41.4506 42.5717 40.9383 41.8092 40.7998C41.0461 40.6613 40.2792 40.9203 39.7567 41.4927L38.8752 42.4581C38.8249 42.5133 38.7652 42.5198 38.7242 42.5152C38.6829 42.5107 38.626 42.4915 38.5888 42.4265L37.2774 40.1313C35.7114 37.3908 32.4045 36.1343 29.4136 37.1429L24.896 38.6667C24.3784 38.8413 24.1 39.4027 24.2749 39.9205C24.4495 40.4385 25.0111 40.7164 25.5286 40.5418L30.0462 39.018C32.1427 38.3105 34.4616 39.1917 35.5594 41.1131L36.8708 43.4084C37.2118 44.0051 37.8232 44.4065 38.506 44.4821C39.1875 44.5573 39.8732 44.3 40.3365 43.7926L41.2178 42.8274C41.2979 42.7399 41.3913 42.7356 41.4555 42.7471C41.5199 42.7589 41.6058 42.7958 41.6498 42.9057L43.1376 46.6251C44.2256 49.3456 46.8213 51.1508 49.7507 51.2241L53.4755 51.3172C53.5511 51.319 53.6263 51.3201 53.7016 51.3201C56.8636 51.3201 59.8307 49.6634 61.4859 46.9579L65.5319 40.3441C66.3345 39.0321 66.9029 37.6039 67.2209 36.099C67.3338 35.5636 66.9922 35.0388 66.4576 34.9257Z" fill="#0C0B0B"/>
<path d="M44.1757 12.4072C45.2085 13.1087 46.4797 13.283 47.6626 12.8851C48.8459 12.4874 49.7536 11.581 50.1528 10.3984L51.8007 5.51845L52.2374 7.75038C52.4854 9.01886 53.722 9.86843 54.9958 9.64353C55.2124 9.60566 55.4192 9.74388 55.4664 9.95921L57.068 17.3003C57.0954 17.4256 57.1469 17.5444 57.2194 17.6498L59.0547 20.3196C59.2466 20.5987 59.556 20.7485 59.8709 20.7485C60.0642 20.7485 60.2593 20.692 60.4306 20.5743C60.8808 20.2648 60.9949 19.6487 60.6855 19.1985L58.9602 16.6888L57.3997 9.5373C57.1256 8.28058 55.919 7.47107 54.6519 7.69474C54.4343 7.73384 54.222 7.58783 54.1793 7.37058L53.0269 1.48019C52.9409 1.03982 52.569 0.712788 52.1214 0.682847C51.6757 0.653179 51.2621 0.92853 51.1186 1.35345L48.2781 9.76521C48.0782 10.3571 47.6242 10.8104 47.0321 11.0093C46.4402 11.2085 45.8042 11.1212 45.2874 10.7702C44.8355 10.4632 44.22 10.5806 43.9131 11.0327C43.6063 11.4847 43.7237 12.1001 44.1757 12.4072Z" fill="#0C0B0B"/>
<path d="M6.64571 21.7117C6.78352 21.7117 6.92352 21.6827 7.05696 21.6217L15.3358 17.8313C15.4758 17.7672 15.599 17.6712 15.6954 17.5511L23.163 8.24927C23.7382 7.53272 24.7475 7.32012 25.5625 7.74436C27.0143 8.49905 28.7654 8.31175 30.0245 7.26708L34.8069 3.29868C35.1792 2.98983 35.6922 2.90356 36.145 3.07323L38.8067 4.07155C39.1626 4.20485 39.438 4.472 39.5826 4.8235C39.7271 5.17514 39.7191 5.55878 39.5598 5.90385C38.8739 7.38958 39.3587 9.13534 40.7123 10.0548C41.1642 10.3618 41.7794 10.2443 42.0866 9.79227C42.3937 9.34014 42.2761 8.72491 41.8241 8.41798C41.2747 8.04473 41.0781 7.33626 41.3564 6.73319C41.7431 5.89524 41.7636 4.92522 41.4129 4.07169C41.0622 3.21829 40.3655 2.54303 39.5016 2.21915L36.8398 1.22083C35.7236 0.802603 34.4606 1.0152 33.5435 1.77618L28.7607 5.74458C28.1159 6.2797 27.219 6.37581 26.4753 5.98903C24.8259 5.13153 22.7839 5.56096 21.6198 7.01087L14.2988 16.13L6.23296 19.8228C5.73612 20.0503 5.51792 20.6374 5.74528 21.1342C5.91167 21.4973 6.27055 21.7117 6.64571 21.7117Z" fill="#0C0B0B"/>
<path d="M9.8117 22.0264C9.26523 22.0264 8.82227 22.4693 8.82227 23.0158V29.3775C8.82227 31.5525 10.5918 33.3222 12.7671 33.3222C14.9422 33.3222 16.7119 31.5527 16.7119 29.3775V23.0158C16.7119 22.4693 16.2689 22.0264 15.7225 22.0264C15.176 22.0264 14.733 22.4693 14.733 23.0158V29.3775C14.733 30.4615 13.8511 31.3435 12.767 31.3435C11.683 31.3435 10.8011 30.4615 10.8011 29.3775V23.0158C10.8011 22.4695 10.358 22.0264 9.8117 22.0264Z" fill="#FF3C81"/>
<path d="M7.19958 33.2758C7.72034 33.1107 8.00855 32.5545 7.84325 32.0336L4.88781 22.7167C4.75751 22.3057 4.37607 22.0264 3.94486 22.0264C3.51365 22.0264 3.1322 22.3055 3.00191 22.7167L0.0465952 32.0336C-0.118698 32.5545 0.169779 33.1107 0.690404 33.2758C1.21048 33.441 1.7672 33.1527 1.93249 32.632L2.23341 31.6832H5.65616L5.95722 32.632C6.09079 33.0534 6.48031 33.3226 6.89989 33.3226C6.99929 33.3223 7.10005 33.3074 7.19958 33.2758ZM2.86122 29.7043L3.94499 26.288L5.02876 29.7043H2.86122Z" fill="#FF3C81"/>
<path d="M41.4928 25.7555C41.4928 23.6993 39.82 22.0264 37.7636 22.0264H35.592C35.0455 22.0264 34.6025 22.4693 34.6025 23.0158V32.3328C34.6025 32.8793 35.0455 33.3222 35.592 33.3222C36.1384 33.3222 36.5814 32.8793 36.5814 32.3328V29.4848H36.666C38.2364 29.4848 39.514 30.7624 39.514 32.3328C39.514 32.8793 39.957 33.3222 40.5035 33.3222C41.0499 33.3222 41.4929 32.8793 41.4929 32.3328C41.4929 30.9316 40.8927 29.6679 39.9359 28.7852C40.8781 28.1078 41.4928 27.0021 41.4928 25.7555ZM37.7636 27.5059H36.666H36.5814V24.0051H37.7636C38.7289 24.0051 39.514 24.7904 39.514 25.7555C39.514 26.7206 38.7289 27.5059 37.7636 27.5059Z" fill="#FF3C81"/>
<path d="M52.551 22.0264C52.0045 22.0264 51.5615 22.4693 51.5615 23.0158V32.3328C51.5615 32.8793 52.0045 33.3222 52.551 33.3222H56.7142C57.2606 33.3222 57.7036 32.8793 57.7036 32.3328V30.5502C57.7036 30.0038 57.2606 29.5608 56.7142 29.5608C56.1677 29.5608 55.7247 30.0038 55.7247 30.5502V31.3434H53.5403V23.0157C53.5403 22.4695 53.0971 22.0264 52.551 22.0264Z" fill="#FF3C81"/>
<path d="M43.4297 33.276C43.5292 33.3077 43.63 33.3226 43.7292 33.3226C44.1488 33.3226 44.5382 33.0534 44.6719 32.632L44.9729 31.6832H48.3957L48.6966 32.632C48.8618 33.1529 49.4182 33.4407 49.9387 33.2758C50.4596 33.1107 50.7478 32.5545 50.5825 32.0336L47.6272 22.7167C47.4969 22.3057 47.1155 22.0264 46.6843 22.0264C46.253 22.0264 45.8716 22.3055 45.7413 22.7167L42.7859 32.0336C42.6206 32.5547 42.909 33.1108 43.4297 33.276ZM46.6844 26.2882L47.7682 29.7045H45.6006L46.6844 26.2882Z" fill="#FF3C81"/>
<path d="M69.9536 32.0336L66.9982 22.7167C66.8679 22.3057 66.4864 22.0264 66.0552 22.0264C65.624 22.0264 65.2426 22.3055 65.1123 22.7167L62.1569 32.0336C61.9917 32.5545 62.2801 33.1107 62.8008 33.2758C63.3208 33.441 63.8776 33.1527 64.0429 32.632L64.3438 31.6832H67.7665L68.0676 32.632C68.2013 33.0534 68.5907 33.3226 69.0103 33.3226C69.1094 33.3226 69.2102 33.3076 69.3098 33.276C69.8306 33.1107 70.1191 32.5545 69.9536 32.0336ZM64.9716 29.7043L66.0554 26.288L67.1391 29.7043H64.9716Z" fill="#FF3C81"/>
<path d="M21.8424 26.7002H21.4112C20.6768 26.7002 20.0793 26.1028 20.0793 25.3683V25.3362C20.0793 24.6017 20.6768 24.0043 21.4112 24.0043H24.1637C24.7101 24.0043 25.1531 23.5613 25.1531 23.0148C25.1531 22.4684 24.7101 22.0254 24.1637 22.0254H21.4112C19.5858 22.0254 18.1006 23.5106 18.1006 25.336V25.3682C18.1006 27.1936 19.5858 28.6788 21.4112 28.6788H21.8424C22.5769 28.6788 23.1744 29.2763 23.1744 30.0107C23.1744 30.7452 22.5769 31.3426 21.8424 31.3426H19.09C18.5436 31.3426 18.1006 31.7856 18.1006 32.3321C18.1006 32.8785 18.5436 33.3215 19.09 33.3215H21.8424C23.6679 33.3215 25.1531 31.8363 25.1531 30.0109C25.1531 28.1854 23.6679 26.7002 21.8424 26.7002Z" fill="#FF3C81"/>
<path d="M29.7763 33.3214C30.3227 33.3214 30.7657 32.8784 30.7657 32.3319V24.0043H32.3258C32.8723 24.0043 33.3152 23.5613 33.3152 23.0148C33.3152 22.4684 32.8723 22.0254 32.3258 22.0254H27.2267C26.6803 22.0254 26.2373 22.4684 26.2373 23.0148C26.2373 23.5613 26.6803 24.0043 27.2267 24.0043H28.7868V32.3319C28.787 32.8784 29.2298 33.3214 29.7763 33.3214Z" fill="#FF3C81"/>
<path d="M59.9924 22.0264C59.4459 22.0264 59.0029 22.4693 59.0029 23.0158V32.3328C59.0029 32.8793 59.4459 33.3222 59.9924 33.3222C60.5388 33.3222 60.9818 32.8793 60.9818 32.3328V23.0158C60.9817 22.4695 60.5388 22.0264 59.9924 22.0264Z" fill="#FF3C81"/>
</g>
<defs>
<clipPath id="clip0">
<rect width="70" height="52" fill="white"/>
</clipPath>
</defs>
</svg>
