<svg width="70" height="52" viewBox="0 0 70 52" fill="none" xmlns="http://www.w3.org/2000/svg">
<g clip-path="url(#clip0)">
<path d="M19.479 40.6431L12.9623 43.6428C11.7958 44.1798 10.4464 44.2061 9.25977 43.7151C8.94518 43.585 8.7129 43.3351 8.60599 43.0116C8.49907 42.6881 8.53694 42.3492 8.71222 42.0569L8.90431 41.7367C9.62276 40.5394 9.72858 39.0563 9.18718 37.7691L8.33364 35.7394C8.12187 35.2357 7.54149 34.9991 7.03823 35.211C6.53442 35.4229 6.2979 36.003 6.50981 36.5066L7.36321 38.5364C7.66099 39.2443 7.60274 40.0601 7.20763 40.7188L7.01554 41.039C6.54632 41.821 6.44105 42.7663 6.72706 43.6321C7.01308 44.4983 7.66058 45.1948 8.50317 45.5435C9.30968 45.8772 10.1685 46.0436 11.0273 46.0436C11.9724 46.0436 12.917 45.8419 13.7894 45.4403L20.3061 42.4405C20.8025 42.2121 21.0196 41.6246 20.7912 41.1281C20.563 40.6319 19.9754 40.4149 19.479 40.6431Z" fill="#0C0B0B"/>
<path d="M66.4573 34.9257C65.9228 34.8133 65.3978 35.1543 65.2847 35.689C65.0133 36.9729 64.5284 38.1915 63.8436 39.3107L59.7976 45.9245C58.4704 48.0938 56.0663 49.4016 53.5244 49.3385L49.7997 49.2454C47.6623 49.1919 45.7684 47.8749 44.9744 45.8897L43.4867 42.1703C43.1987 41.4506 42.5715 40.9383 41.809 40.7998C41.0458 40.6613 40.279 40.9203 39.7564 41.4927L38.875 42.4581C38.8247 42.5133 38.7649 42.5198 38.7239 42.5152C38.6826 42.5107 38.6258 42.4915 38.5886 42.4265L37.2772 40.1313C35.7112 37.3908 32.4042 36.1343 29.4134 37.1429L24.8958 38.6667C24.3782 38.8413 24.0998 39.4027 24.2747 39.9205C24.4493 40.4385 25.0109 40.7164 25.5284 40.5418L30.046 39.018C32.1424 38.3105 34.4613 39.1917 35.5592 41.1131L36.8706 43.4084C37.2115 44.0051 37.823 44.4065 38.5057 44.4821C39.1873 44.5573 39.8729 44.3 40.3363 43.7926L41.2175 42.8274C41.2977 42.7399 41.391 42.7356 41.4553 42.7471C41.5197 42.7589 41.6056 42.7958 41.6496 42.9057L43.1374 46.6251C44.2254 49.3456 46.8211 51.1508 49.7504 51.2241L53.4752 51.3172C53.5508 51.319 53.626 51.3201 53.7013 51.3201C56.8634 51.3201 59.8304 49.6634 61.4857 46.9579L65.5316 40.3441C66.3343 39.0321 66.9026 37.6039 67.2206 36.099C67.3336 35.5636 66.9919 35.0388 66.4573 34.9257Z" fill="#0C0B0B"/>
<path d="M44.1757 12.4067C45.2085 13.1082 46.4797 13.2825 47.6626 12.8846C48.8459 12.4869 49.7536 11.5805 50.1528 10.3979L51.8007 5.51796L52.2374 7.7499C52.4854 9.01837 53.722 9.86794 54.9958 9.64304C55.2124 9.60517 55.4192 9.74339 55.4664 9.95872L57.068 17.2998C57.0954 17.4251 57.1469 17.5439 57.2194 17.6493L59.0547 20.3191C59.2466 20.5982 59.556 20.748 59.8709 20.748C60.0642 20.748 60.2593 20.6916 60.4306 20.5738C60.8808 20.2643 60.9949 19.6483 60.6855 19.198L58.9602 16.6883L57.3997 9.53681C57.1256 8.28009 55.919 7.47058 54.6519 7.69425C54.4343 7.73335 54.222 7.58734 54.1793 7.37009L53.0269 1.4797C52.9409 1.03933 52.569 0.7123 52.1214 0.682358C51.6757 0.65269 51.2621 0.928042 51.1186 1.35296L48.2781 9.76472C48.0782 10.3566 47.6242 10.8099 47.0321 11.0089C46.4402 11.2081 45.8042 11.1207 45.2874 10.7697C44.8355 10.4627 44.22 10.5801 43.9131 11.0322C43.6063 11.4842 43.7237 12.0996 44.1757 12.4067Z" fill="#0C0B0B"/>
<path d="M6.64571 21.7117C6.78352 21.7117 6.92352 21.6827 7.05696 21.6217L15.3358 17.8313C15.4758 17.7672 15.599 17.6712 15.6954 17.5511L23.163 8.24927C23.7382 7.53272 24.7475 7.32012 25.5625 7.74436C27.0143 8.49905 28.7654 8.31175 30.0245 7.26708L34.8069 3.29868C35.1792 2.98983 35.6922 2.90356 36.145 3.07323L38.8067 4.07155C39.1626 4.20485 39.438 4.472 39.5826 4.8235C39.7271 5.17514 39.7191 5.55878 39.5598 5.90385C38.8739 7.38958 39.3587 9.13534 40.7123 10.0548C41.1642 10.3618 41.7794 10.2443 42.0866 9.79227C42.3937 9.34014 42.2761 8.72491 41.8241 8.41798C41.2747 8.04473 41.0781 7.33626 41.3564 6.73319C41.7431 5.89524 41.7636 4.92522 41.4129 4.07169C41.0622 3.21829 40.3655 2.54303 39.5016 2.21915L36.8398 1.22083C35.7236 0.802603 34.4606 1.0152 33.5435 1.77618L28.7607 5.74458C28.1159 6.2797 27.219 6.37581 26.4753 5.98903C24.8259 5.13153 22.7839 5.56096 21.6198 7.01087L14.2988 16.13L6.23296 19.8228C5.73612 20.0503 5.51792 20.6374 5.74528 21.1342C5.91167 21.4973 6.27055 21.7117 6.64571 21.7117Z" fill="#0C0B0B"/>
<path d="M9.81146 22.0264C9.26499 22.0264 8.82202 22.4693 8.82202 23.0158V29.3775C8.82202 31.5525 10.5916 33.3222 12.7669 33.3222C14.942 33.3222 16.7117 31.5527 16.7117 29.3775V23.0158C16.7117 22.4693 16.2687 22.0264 15.7222 22.0264C15.1758 22.0264 14.7328 22.4693 14.7328 23.0158V29.3775C14.7328 30.4615 13.8508 31.3435 12.7668 31.3435C11.6827 31.3435 10.8009 30.4615 10.8009 29.3775V23.0158C10.8009 22.4695 10.3578 22.0264 9.81146 22.0264Z" fill="#FF3C81"/>
<path d="M7.19958 33.2758C7.72034 33.1107 8.00855 32.5545 7.84325 32.0336L4.88781 22.7167C4.75751 22.3057 4.37607 22.0264 3.94486 22.0264C3.51365 22.0264 3.1322 22.3055 3.00191 22.7167L0.0465952 32.0336C-0.118698 32.5545 0.169779 33.1107 0.690404 33.2758C1.21048 33.441 1.7672 33.1527 1.93249 32.632L2.23341 31.6832H5.65616L5.95722 32.632C6.09079 33.0534 6.48031 33.3226 6.89989 33.3226C6.99929 33.3223 7.10005 33.3074 7.19958 33.2758ZM2.86122 29.7043L3.94499 26.288L5.02876 29.7043H2.86122Z" fill="#FF3C81"/>
<path d="M41.4924 25.7555C41.4924 23.6993 39.8196 22.0264 37.7632 22.0264H35.5916C35.0451 22.0264 34.6022 22.4693 34.6022 23.0158V32.3328C34.6022 32.8793 35.0451 33.3222 35.5916 33.3222C36.1381 33.3222 36.581 32.8793 36.581 32.3328V29.4848H36.6657C38.236 29.4848 39.5137 30.7624 39.5137 32.3328C39.5137 32.8793 39.9566 33.3222 40.5031 33.3222C41.0496 33.3222 41.4925 32.8793 41.4925 32.3328C41.4925 30.9316 40.8923 29.6679 39.9356 28.7852C40.8777 28.1078 41.4924 27.0021 41.4924 25.7555ZM37.7632 27.5059H36.6657H36.581V24.0051H37.7632C38.7285 24.0051 39.5137 24.7904 39.5137 25.7555C39.5137 26.7206 38.7285 27.5059 37.7632 27.5059Z" fill="#FF3C81"/>
<path d="M52.5505 22.0264C52.004 22.0264 51.561 22.4693 51.561 23.0158V32.3328C51.561 32.8793 52.004 33.3222 52.5505 33.3222H56.7137C57.2602 33.3222 57.7031 32.8793 57.7031 32.3328V30.5502C57.7031 30.0038 57.2602 29.5608 56.7137 29.5608C56.1672 29.5608 55.7243 30.0038 55.7243 30.5502V31.3434H53.5398V23.0157C53.5398 22.4695 53.0967 22.0264 52.5505 22.0264Z" fill="#FF3C81"/>
<path d="M43.4292 33.2755C43.5287 33.3072 43.6295 33.3221 43.7287 33.3221C44.1483 33.3221 44.5377 33.0529 44.6714 32.6315L44.9725 31.6827H48.3952L48.6961 32.6315C48.8613 33.1524 49.4177 33.4402 49.9382 33.2754C50.4591 33.1102 50.7473 32.554 50.582 32.0331L47.6267 22.7162C47.4964 22.3052 47.115 22.0259 46.6838 22.0259C46.2526 22.0259 45.8711 22.3051 45.7408 22.7162L42.7854 32.0331C42.6201 32.5542 42.9085 33.1103 43.4292 33.2755ZM46.6839 26.2877L47.7677 29.704H45.6001L46.6839 26.2877Z" fill="#FF3C81"/>
<path d="M69.9534 32.0336L66.9979 22.7167C66.8676 22.3057 66.4862 22.0264 66.055 22.0264C65.6238 22.0264 65.2423 22.3055 65.112 22.7167L62.1567 32.0336C61.9914 32.5545 62.2799 33.1107 62.8005 33.2758C63.3206 33.441 63.8773 33.1527 64.0426 32.632L64.3435 31.6832H67.7663L68.0674 32.632C68.2011 33.0534 68.5904 33.3226 69.01 33.3226C69.1092 33.3226 69.2099 33.3076 69.3096 33.276C69.8303 33.1107 70.1188 32.5545 69.9534 32.0336ZM64.9713 29.7043L66.0551 26.288L67.1389 29.7043H64.9713Z" fill="#FF3C81"/>
<path d="M21.8424 26.7007H21.4112C20.6768 26.7007 20.0793 26.1032 20.0793 25.3688V25.3367C20.0793 24.6022 20.6768 24.0047 21.4112 24.0047H24.1637C24.7101 24.0047 25.1531 23.5618 25.1531 23.0153C25.1531 22.4688 24.7101 22.0259 24.1637 22.0259H21.4112C19.5858 22.0259 18.1006 23.5111 18.1006 25.3365V25.3687C18.1006 27.1941 19.5858 28.6793 21.4112 28.6793H21.8424C22.5769 28.6793 23.1744 29.2768 23.1744 30.0112C23.1744 30.7457 22.5769 31.3431 21.8424 31.3431H19.09C18.5436 31.3431 18.1006 31.7861 18.1006 32.3326C18.1006 32.879 18.5436 33.322 19.09 33.322H21.8424C23.6679 33.322 25.1531 31.8368 25.1531 30.0113C25.1531 28.1859 23.6679 26.7007 21.8424 26.7007Z" fill="#FF3C81"/>
<path d="M29.7761 33.3219C30.3226 33.3219 30.7656 32.8789 30.7656 32.3324V24.0047H32.3257C32.8721 24.0047 33.3151 23.5618 33.3151 23.0153C33.3151 22.4688 32.8721 22.0259 32.3257 22.0259H27.2266C26.6802 22.0259 26.2372 22.4688 26.2372 23.0153C26.2372 23.5618 26.6802 24.0047 27.2266 24.0047H28.7867V32.3324C28.7869 32.8789 29.2297 33.3219 29.7761 33.3219Z" fill="#FF3C81"/>
<path d="M59.9921 22.0264C59.4457 22.0264 59.0027 22.4693 59.0027 23.0158V32.3328C59.0027 32.8793 59.4457 33.3222 59.9921 33.3222C60.5386 33.3222 60.9816 32.8793 60.9816 32.3328V23.0158C60.9814 22.4695 60.5386 22.0264 59.9921 22.0264Z" fill="#FF3C81"/>
</g>
<defs>
<clipPath id="clip0">
<rect width="70" height="52" fill="white"/>
</clipPath>
</defs>
</svg>
