<svg width="38" height="36" viewBox="0 0 38 36" fill="none" xmlns="http://www.w3.org/2000/svg">
<path fill-rule="evenodd" clip-rule="evenodd" d="M19 36C24.801 36 29.9947 32.3352 33.4798 28.3316C36.2989 25.0932 38 22.0219 38 17.4375C38 11.5369 35.182 6.8419 30.7891 3.44189C27.5496 0.934637 23.4538 0 19 0C14.7481 0 10.8224 1.17978 7.65669 3.26527C3.00956 6.32664 0 10.2147 0 16.3125C0 21.5834 1.6729 27.201 5.28412 30.869C8.69666 34.3351 13.9017 36 19 36Z" fill="#FF3C81"/>
<path fill-rule="evenodd" clip-rule="evenodd" d="M28.3336 22.9581C25.3587 24.6008 22.2985 25.4792 19.1542 25.5943C15.8648 25.7148 13.0143 24.9387 10.6016 23.2693C13.5094 27.0988 16.3527 29.0377 19.1477 29.0377C22.3026 29.0377 25.359 26.9964 28.3336 22.9581Z" fill="#171616" stroke="#282424"/>
<path fill-rule="evenodd" clip-rule="evenodd" d="M12.3599 11.8487C11.041 10.3801 10.1044 10.3176 9.55026 11.6611C8.99608 13.0046 10.121 14.2119 12.9251 15.283C15.455 14.1179 16.2477 12.7604 15.3031 11.2107C14.3585 9.66101 13.3775 9.87367 12.3599 11.8487Z" fill="#171616"/>
<path fill-rule="evenodd" clip-rule="evenodd" d="M25.0848 11.9088C24.3111 10.0957 23.4211 9.71595 22.4149 10.7695C21.4087 11.823 22.0843 13.3275 24.4418 15.283C27.3094 15.0737 28.5527 14.0892 28.1715 12.3296C27.7904 10.5701 26.7615 10.4298 25.0848 11.9088Z" fill="#171616"/>
</svg>
