<svg width="30" height="30" viewBox="0 0 30 30" fill="none" xmlns="http://www.w3.org/2000/svg">
<g clip-path="url(#clip0)">
<path d="M19.6443 8.36619C19.412 7.12646 18.8649 6.32189 18.3552 5.62707C17.8411 4.92459 17.435 4.36995 17.435 3.40916C17.435 3.16147 17.3005 2.93308 17.0834 2.81259C16.8663 2.69338 16.6013 2.69939 16.3909 2.83125C14.749 3.85999 13.7715 4.81675 13.402 5.7576C13.2189 6.22569 13.1077 6.68112 13.0418 7.09328C12.9706 6.90216 12.9533 6.69378 12.9539 6.61253C12.9613 6.38217 12.8514 6.16311 12.6623 6.03124C12.4718 5.89937 12.2288 5.87208 12.0151 5.95997C11.9536 5.98477 10.6678 6.53992 10.3208 8.36856C7.30944 8.61785 0 9.50999 0 12.2729C0 20.5439 6.72898 27.2729 15 27.2729C23.2711 27.2729 30.0001 20.5439 30.0001 12.2729C30 9.50149 22.6537 8.61306 19.6443 8.36619ZM11.5949 9.19537C11.6142 8.61075 11.7487 8.18798 11.9106 7.88769C11.9905 8.03016 12.0897 8.16932 12.2142 8.29786C12.5731 8.66809 13.0645 8.86382 13.6364 8.86382C14.0133 8.86382 14.3183 8.55885 14.3183 8.18198C14.3183 7.71523 14.3795 7.00213 14.6718 6.25503C14.8123 5.89682 15.2052 5.33949 16.2345 4.58178C16.4576 5.34352 16.8737 5.91216 17.2553 6.43279C17.7826 7.15254 18.2807 7.83239 18.3959 9.15005C18.4019 9.2233 18.4092 9.29656 18.4092 9.37511C18.4092 10.9731 16.8797 12.2728 15.0001 12.2728C13.1204 12.2728 11.591 10.9731 11.591 9.37511L11.5949 9.19537ZM15 25.9092C9.77095 25.9092 5.22608 22.9474 2.93894 18.6165C3.11849 18.6763 3.29357 18.7215 3.47101 18.7901C3.77598 18.908 4.13885 19.2508 4.52301 19.6137C5.18555 20.2389 5.93662 20.9481 6.98127 21.1412C7.76295 21.2863 8.55001 20.996 9.31239 20.717C9.92762 20.4913 10.5668 20.2509 11.0995 20.3016C11.5296 20.3362 12.0403 20.6305 12.581 20.9421C13.2934 21.3529 14.1011 21.8183 15 21.8183C15.8982 21.8183 16.7052 21.3529 17.4176 20.9421C17.9583 20.6305 18.469 20.3362 18.8991 20.3016C19.4311 20.2563 20.069 20.4913 20.6836 20.7177C21.4433 20.9967 22.2297 21.2856 23.0127 21.1425C24.0574 20.9494 24.8078 20.241 25.4703 19.6164C25.8552 19.2528 26.2181 18.9106 26.5237 18.7921C26.7029 18.7229 26.8795 18.6775 27.0607 18.6172C24.7735 22.9477 20.2289 25.9092 15 25.9092ZM27.7932 16.9484L27.6443 16.993C27.127 17.1468 26.5703 17.3126 26.0323 17.5203C25.477 17.7347 25.0189 18.1669 24.5342 18.6243C23.9835 19.1443 23.4142 19.6817 22.765 19.8015C22.3529 19.8767 21.7696 19.663 21.1544 19.4373C20.4372 19.1743 19.6236 18.8694 18.7899 18.9419C18.0535 19.0012 17.3843 19.3874 16.7365 19.7609C16.1179 20.1178 15.5333 20.4547 15 20.4547C14.466 20.4547 13.8814 20.1178 13.2621 19.7609C12.6143 19.3874 11.9451 19.0012 11.2093 18.9419C10.367 18.8713 9.56001 19.1736 8.84289 19.4366C8.22497 19.6637 7.63971 19.8755 7.2289 19.8002C6.57972 19.6804 6.01038 19.1424 5.45907 18.6224C4.975 18.165 4.51822 17.7335 3.96358 17.5184C3.42889 17.3113 2.87559 17.1468 2.3609 16.9937L2.20628 16.9472C1.88412 16.0685 1.65087 15.1497 1.51549 14.1975C4.12326 15.6723 9.70339 16.3639 14.9999 16.3639C20.2964 16.3639 25.8766 15.6723 28.4843 14.1975C28.3489 15.15 28.1156 16.0693 27.7932 16.9484ZM15 15.0001C6.17702 15.0001 1.36368 13.1983 1.36368 12.2728C1.36368 11.6518 4.06963 10.2678 10.269 9.74362C10.4823 11.9186 12.51 13.6364 15 13.6364C17.49 13.6364 19.5177 11.9189 19.731 9.74394C25.9306 10.268 28.6364 11.6513 28.6364 12.2728C28.6364 13.1984 23.823 15.0001 15 15.0001Z" fill="#212529"/>
</g>
<defs>
<clipPath id="clip0">
<rect width="30" height="30" fill="white"/>
</clipPath>
</defs>
</svg>
