<svg width="40" height="20" viewBox="0 0 40 20" fill="none" xmlns="http://www.w3.org/2000/svg">
<path d="M9.92226 1.99234C10.2077 1.34798 10.901 0.948311 11.6025 1.00541C17.0347 1.01356 22.475 0.99725 27.9072 1.01356C28.9186 0.989093 29.5467 1.96787 29.6364 2.87323C31.1208 2.85692 32.6135 2.86508 34.0979 2.86508C34.7749 2.84876 35.4601 3.18318 35.8434 3.74597C37.0995 5.46698 38.3882 7.17168 39.6443 8.89269C39.9706 9.33313 40.0521 9.90408 39.9706 10.4343C39.7259 12.1716 39.4812 13.9089 39.2202 15.6462C39.1386 16.5434 38.3964 17.3183 37.4992 17.4162C36.6754 17.4488 35.8597 17.408 35.0359 17.4406C34.571 18.6641 33.2578 19.5613 31.9365 19.284C30.9659 19.1372 30.2726 18.3134 29.9545 17.4325C26.2107 17.4406 22.475 17.4243 18.7312 17.4406C18.3234 18.8028 16.8715 19.9039 15.4279 19.4961C14.4246 19.284 13.7558 18.3786 13.5029 17.4243C12.0103 17.4162 10.5177 17.4406 9.01689 17.4162C8.32359 17.3999 7.75264 16.8289 7.54873 16.1927C7.2551 15.426 7.5732 14.6267 7.67108 13.86C5.33018 13.8518 2.98928 13.8681 0.648383 13.8518C0.191622 13.9334 -0.14279 13.4114 0.0611206 13.0198C0.191624 12.7017 0.583133 12.6936 0.876765 12.6936C3.99252 12.7017 7.10828 12.6854 10.224 12.7017C10.8521 12.6039 11.1294 13.55 10.5585 13.811C9.99566 13.9007 9.42471 13.8436 8.86192 13.8436C8.80482 14.594 8.16862 15.7767 9.04952 16.2498C10.5258 16.315 12.0021 16.2498 13.4866 16.2743C13.7803 14.8143 15.1995 13.55 16.741 13.86C17.9156 14.0557 18.7149 15.1405 18.8617 16.2743C21.1455 16.2661 23.4375 16.2824 25.7213 16.2661C26.1944 16.2824 26.3656 15.7686 26.3983 15.3852C27.0589 11.3396 27.7441 7.30218 28.4129 3.26474C28.5679 2.79982 28.3313 2.06574 27.7522 2.12284C22.3771 2.11468 16.9939 2.12284 11.6188 2.12284C11.3089 2.06574 11.0315 2.26965 10.9337 2.55513C10.7868 3.10161 10.7053 3.66441 10.6074 4.2272C11.6759 4.24351 12.7444 4.17826 13.8129 4.25983C14.3023 4.50452 14.2125 5.40989 13.5927 5.35279C10.0201 5.39357 6.44761 5.35279 2.87509 5.3691C2.58962 5.33648 2.17364 5.44251 1.9942 5.14072C1.66794 4.80631 2.00235 4.1701 2.45911 4.2272C4.7837 4.20273 7.11644 4.23536 9.44103 4.21089C9.57969 3.49312 9.62862 2.7101 9.92226 1.99234ZM29.4488 4.03145C28.7718 8.12598 28.1111 12.2205 27.3934 16.3069C28.209 16.3069 29.0328 16.3069 29.8484 16.2987C30.0279 15.3934 30.4765 14.4798 31.3003 14.0068C32.2546 13.3869 33.6086 13.5011 34.4079 14.3249C34.9625 14.8306 35.1664 15.5728 35.2562 16.2987C35.9331 16.2906 36.6183 16.3232 37.2953 16.2824C37.7439 16.2661 38.062 15.8583 38.0783 15.426C38.3311 13.705 38.584 11.9758 38.8205 10.2548C38.9021 9.92855 38.7634 9.62677 38.5677 9.38207C37.3687 7.79157 36.2023 6.17659 35.0115 4.57793C34.7912 4.2843 34.5058 3.97435 34.0979 4.02329C32.5482 4.01513 30.9985 4.03145 29.4488 4.03145ZM31.9446 15.2629C31.0311 15.7686 30.9659 17.302 31.9528 17.7669C33.0539 18.346 34.2855 16.9105 33.7635 15.8664C33.5107 15.1568 32.5645 14.8143 31.9446 15.2629ZM15.6318 15.4586C14.6693 15.9072 14.5306 17.4243 15.4849 17.9626C16.5127 18.6152 17.8177 17.3183 17.4262 16.2498C17.2304 15.5157 16.3087 15.0263 15.6318 15.4586Z" fill="#0C0B0B"/>
<path d="M29.7015 8.50118C29.8484 7.40006 30.036 6.31525 30.2317 5.22229C31.6346 5.23044 33.0375 5.20598 34.4404 5.23044C35.0603 6.33972 35.9575 7.30218 36.4306 8.49302C34.1876 8.50933 31.9446 8.50933 29.7015 8.50118Z" fill="#0C0B0B"/>
<path d="M7.49975 6.33952C7.80154 6.23349 8.11964 6.26612 8.43774 6.25796C10.4932 6.26612 12.5486 6.25796 14.6122 6.25796C14.9547 6.2498 15.4686 6.31505 15.5012 6.7555C15.6072 7.16332 15.2076 7.51405 14.8079 7.4488C12.6138 7.46511 10.4198 7.4488 8.23383 7.45695C7.93204 7.43249 7.54053 7.51405 7.33662 7.22042C7.07561 6.96757 7.17349 6.48634 7.49975 6.33952Z" fill="#0C0B0B"/>
<path d="M4.67773 8.48454C4.97951 8.37851 5.29761 8.41114 5.61572 8.40298C7.67114 8.41114 7.64667 8.40298 9.71025 8.40298C10.0528 8.39482 10.5667 8.46007 10.5993 8.90052C10.7053 9.30834 10.3057 9.65907 9.906 9.59382C7.71192 9.61013 7.60589 9.59382 5.4118 9.60198C5.11002 9.57751 4.71851 9.65907 4.5146 9.36544C4.25359 9.11259 4.35147 8.6232 4.67773 8.48454Z" fill="#0C0B0B"/>
<path d="M3.73962 10.7604C3.95984 10.4912 4.35951 10.6054 4.65314 10.5728C7.70365 10.5972 10.7542 10.5564 13.8047 10.5891C14.1962 10.5564 14.4653 11.1274 14.237 11.4292C14.1065 11.7799 13.6905 11.6902 13.405 11.7147C10.3463 11.7065 7.28767 11.7228 4.23716 11.7065C3.69883 11.8452 3.37258 11.1111 3.73962 10.7604Z" fill="#0C0B0B"/>
</svg>
