<svg width="14" height="14" viewBox="0 0 14 14" fill="none" xmlns="http://www.w3.org/2000/svg">
<rect width="14" height="14" fill="#1E1E1E"/>
<g id="Design slide-in/PDP">
<rect width="6561" height="2040" transform="translate(-4807 -1209)" fill="#464646"/>
<g id="Chrome &#226;&#128;&#148; Scrolled" clip-path="url(#clip0_17_3057)">
<rect width="375" height="1129" transform="translate(-36 -734)" fill="#FBFBF9"/>
<g id="Price+with a subscription">
<rect width="375" height="160" transform="translate(-36 -26)" fill="#F9F9F7"/>
<g id="Price+with a subscription_2">
<g id="Btn+logos">
<g id="Btn">
<rect x="-11.5" y="-10" width="326" height="56" rx="28" fill="#2A7B72"/>
</g>
</g>
</g>
</g>
<g id="Frame 35970">
<g id="Frame 1000004558">
<g id="Frame 35943">
<path d="M-11 -10C-11 -11.6569 -9.65685 -13 -8 -13H311C312.657 -13 314 -11.6569 314 -10V136C314 137.657 312.657 139 311 139H-8C-9.65685 139 -11 137.657 -11 136V-10Z" fill="#ECF2F1"/>
<path d="M-11 -10C-11 -11.6569 -9.65685 -13 -8 -13H311C312.657 -13 314 -11.6569 314 -10V136C314 137.657 312.657 139 311 139H-8C-9.65685 139 -11 137.657 -11 136V-10Z" stroke="#D3D3D3" stroke-width="2"/>
<g id="Frame 1000004556">
<g id="Frame 35938">
<g id="checkmark_done_complete">
<path id="close-2" d="M7 14C10.866 14 14 10.866 14 7C14 3.13401 10.866 0 7 0C3.13401 0 0 3.13401 0 7C0 10.866 3.13401 14 7 14Z" fill="#2A7B72"/>
<g id="Rectangle-70">
<path id="Vector" d="M2.46387 7.36441L5.96762 10.8682L11.4179 5.41788L10.25 4.24996L5.96762 8.53233L3.63179 6.19649L2.46387 7.36441Z" fill="white"/>
</g>
</g>
</g>
</g>
</g>
</g>
</g>
</g>
</g>
<defs>
<clipPath id="clip0_17_3057">
<rect width="375" height="1129" fill="white" transform="translate(-36 -734)"/>
</clipPath>
</defs>
</svg>
