<svg width="60" height="60" viewBox="0 0 60 60" fill="none" xmlns="http://www.w3.org/2000/svg">
<path d="M16.7073 4.47624C16.363 3.87811 15.5965 3.67304 15.0007 4.0185C14.4026 4.36397 14.1975 5.12815 14.5441 5.72628L15.7942 7.89179C16.0236 8.29222 16.4461 8.51675 16.8757 8.51675C17.0881 8.51675 17.3029 8.46308 17.5006 8.34952C18.0988 8.00405 18.3038 7.23987 17.9572 6.64175L16.7073 4.47624Z" fill="#0C0B0B"/>
<path d="M7.89082 15.7921L5.72777 14.542C5.13445 14.2015 4.37039 14.4016 4.02117 14.9997C3.67453 15.5967 3.87961 16.3621 4.47773 16.7075L6.64078 17.9576C6.83859 18.0711 7.0534 18.1248 7.26574 18.1248C7.69547 18.1248 8.11535 17.9014 8.34726 17.4998C8.69414 16.903 8.48906 16.1375 7.89082 15.7921Z" fill="#0C0B0B"/>
<path d="M7.5 30.0001C7.5 29.3092 6.9409 28.7501 6.24996 28.7501H1.25004C0.559102 28.7501 0 29.3092 0 30.0001C0 30.691 0.559102 31.2501 1.25004 31.2501H6.25008C6.9409 31.2501 7.5 30.691 7.5 30.0001Z" fill="#0C0B0B"/>
<path d="M6.64029 42.0423L4.47724 43.2924C3.87912 43.6378 3.67404 44.4032 4.02068 45.0002C4.25259 45.4018 4.67259 45.6251 5.1022 45.6251C5.31467 45.6251 5.53193 45.5714 5.72717 45.4579L7.89021 44.2078C8.48834 43.8624 8.69342 43.097 8.34677 42.5001C8.00013 41.8996 7.22869 41.697 6.64029 42.0423Z" fill="#0C0B0B"/>
<path d="M17.4998 51.6504C16.9041 51.3099 16.1375 51.5112 15.7932 52.1082L14.5431 54.2737C14.1965 54.8718 14.4016 55.636 14.9997 55.9814C15.1975 56.095 15.4123 56.1487 15.6247 56.1487C16.0544 56.1487 16.4767 55.924 16.7062 55.5237L17.9562 53.3582C18.3031 52.7601 18.098 51.9959 17.4998 51.6504Z" fill="#0C0B0B"/>
<path d="M30 0C29.3091 0 28.75 0.559102 28.75 1.25004V58.7501C28.75 59.441 29.3091 60.0001 30 60.0001C46.543 60.0001 60 46.5418 60 30.0001C60 13.4584 46.543 0 30 0ZM31.2501 57.4719V2.52809C45.835 3.1848 57.5001 15.2551 57.5001 30C57.5001 44.7449 45.835 56.8152 31.2501 57.4719Z" fill="#FF3C7F"/>
</svg>
