<svg width="24" height="24" viewBox="0 0 24 24" fill="none" xmlns="http://www.w3.org/2000/svg">
<circle cx="11.7077" cy="11.7073" r="9.36585" fill="#999999"/>
<path d="M19.0996 4.9001C15.1996 1.0001 8.79961 1.0001 4.89961 4.9001C0.999609 8.8001 0.999609 15.2001 4.89961 19.1001C8.79961 23.0001 15.0996 23.0001 18.9996 19.1001C22.8996 15.2001 22.9996 8.8001 19.0996 4.9001ZM15.4996 15.5001C15.113 15.8867 14.4862 15.8867 14.0996 15.5001L11.9996 13.4001L9.89961 15.5001C9.51301 15.8867 8.88621 15.8867 8.49961 15.5001C8.11301 15.1135 8.11301 14.4867 8.49961 14.1001L10.5996 12.0001L8.49961 9.9001C8.11301 9.5135 8.11301 8.8867 8.49961 8.5001C8.88621 8.1135 9.51301 8.1135 9.89961 8.5001L11.9996 10.6001L14.0996 8.5001C14.4862 8.1135 15.113 8.1135 15.4996 8.5001C15.8862 8.8867 15.8862 9.5135 15.4996 9.9001L13.3996 12.0001L15.4996 14.1001C15.8862 14.4867 15.8862 15.1135 15.4996 15.5001Z" fill="white"/>
</svg>
