<svg width="41" height="41" viewBox="0 0 41 41" fill="none" xmlns="http://www.w3.org/2000/svg">
<path d="M25.4562 25.7626C25.3118 25.7523 25.1691 25.7996 25.0593 25.8941C24.9494 25.9885 24.8814 26.1226 24.87 26.267L24.7137 28.3485C24.7032 28.4931 24.7504 28.636 24.8451 28.7457C24.9398 28.8555 25.0742 28.9231 25.2187 28.9339H25.2603C25.3981 28.9337 25.5308 28.8815 25.6318 28.7877C25.7328 28.6939 25.7947 28.5654 25.805 28.4279L25.9612 26.3464C25.9715 26.202 25.9241 26.0595 25.8294 25.9501C25.7347 25.8407 25.6005 25.7733 25.4562 25.7626Z" fill="#0C0B0B"/>
<path d="M29.2344 2.05957H11.2656C11.1206 2.05957 10.9815 2.11719 10.8789 2.21975C10.7764 2.32231 10.7188 2.46141 10.7188 2.60645V4.48145C10.7188 4.58988 10.7511 4.69586 10.8115 4.7859C10.8719 4.87594 10.9578 4.94596 11.0581 4.98707L13.0953 32.1889C13.121 32.5022 13.245 32.7994 13.4495 33.038C13.654 33.2767 13.9287 33.4447 14.2344 33.518V37.6064C14.2349 38 14.3914 38.3772 14.6697 38.6555C14.948 38.9338 15.3252 39.0903 15.7188 39.0908H24.7812C25.1748 39.0903 25.552 38.9338 25.8303 38.6555C26.1086 38.3772 26.2651 38 26.2656 37.6064V33.518C26.5715 33.4447 26.8463 33.2766 27.0509 33.0378C27.2554 32.7989 27.3793 32.5015 27.4047 32.188L29.4419 4.98707C29.5422 4.94593 29.628 4.87589 29.6884 4.78587C29.7489 4.69584 29.7812 4.58987 29.7812 4.48145V2.60645C29.7813 2.53462 29.7672 2.46349 29.7397 2.39712C29.7122 2.33075 29.672 2.27044 29.6212 2.21965C29.5704 2.16886 29.5101 2.12858 29.4437 2.10112C29.3773 2.07365 29.3062 2.05953 29.2344 2.05957ZM11.8125 3.15332H28.6875V3.93457H11.8125V3.15332ZM18.9219 37.9971V36.2783H21.5781V37.9971H18.9219ZM24.7812 37.9971H22.6719V35.7314C22.6719 35.6596 22.6578 35.5885 22.6303 35.5221C22.6029 35.4557 22.5626 35.3954 22.5118 35.3447C22.461 35.2939 22.4007 35.2536 22.3343 35.2261C22.268 35.1986 22.1968 35.1845 22.125 35.1846H18.375C18.23 35.1846 18.0909 35.2422 17.9883 35.3447C17.8857 35.4473 17.8281 35.5864 17.8281 35.7314V37.9971H15.7188C15.6151 37.9971 15.5158 37.9559 15.4425 37.8827C15.3693 37.8094 15.3281 37.71 15.3281 37.6064V33.5627H25.1719V37.6064C25.1718 37.71 25.1306 37.8093 25.0574 37.8826C24.9841 37.9558 24.8848 37.997 24.7812 37.9971ZM26.3141 32.1064C26.3076 32.2052 26.2638 32.2977 26.1915 32.3652C26.1192 32.4327 26.0239 32.4702 25.925 32.4699H14.575C14.4763 32.4699 14.3814 32.4323 14.3094 32.3648C14.2374 32.2973 14.1939 32.2049 14.1875 32.1064L12.1581 5.02832H28.3419L26.3141 32.1064Z" fill="#0C0B0B"/>
<path d="M20.25 12.9971C19.4002 12.9971 18.5694 13.2491 17.8628 13.7212C17.1562 14.1934 16.6054 14.8645 16.2802 15.6496C15.955 16.4348 15.8699 17.2987 16.0357 18.1322C16.2015 18.9657 16.6107 19.7314 17.2117 20.3323C17.8126 20.9332 18.5782 21.3425 19.4117 21.5083C20.2452 21.6741 21.1092 21.589 21.8943 21.2637C22.6795 20.9385 23.3506 20.3878 23.8227 19.6812C24.2949 18.9745 24.5469 18.1438 24.5469 17.2939C24.5456 16.1547 24.0925 15.0625 23.287 14.257C22.4814 13.4514 21.3892 12.9983 20.25 12.9971ZM20.25 20.4971C19.6165 20.4971 18.9972 20.3092 18.4704 19.9572C17.9437 19.6053 17.5331 19.105 17.2907 18.5197C17.0483 17.9344 16.9848 17.2904 17.1084 16.669C17.232 16.0477 17.5371 15.477 17.9851 15.029C18.433 14.581 19.0038 14.276 19.6251 14.1524C20.2464 14.0288 20.8905 14.0922 21.4758 14.3346C22.0611 14.5771 22.5613 14.9876 22.9133 15.5144C23.2653 16.0411 23.4531 16.6604 23.4531 17.2939C23.4522 18.1432 23.1145 18.9574 22.5139 19.5579C21.9134 20.1584 21.0992 20.4962 20.25 20.4971Z" fill="#0C0B0B"/>
</svg>
