<svg width="314" height="68" viewBox="0 0 314 68" fill="none" xmlns="http://www.w3.org/2000/svg">
<rect x="0.5" y="0.5" width="313" height="67" rx="3.5" fill="white" stroke="#E8E8E8"/>
<circle cx="35" cy="33" r="24" fill="#F0AD00"/>
<circle cx="35" cy="33" r="21" fill="#F0AD00" stroke="white" stroke-width="2"/>
<path d="M46.9891 31.5309L46.2654 28.6233C46.4633 28.581 46.6118 28.4047 46.6118 28.1935V27.7247C46.6118 26.7068 45.7873 25.8787 44.774 25.8787H41.4778V24.9118C41.4778 24.4109 41.0721 24.0034 40.5735 24.0034H23.7712C23.2725 24.0034 22.8669 24.4109 22.8669 24.9118V32.8816C22.8669 33.1243 23.0628 33.3211 23.3045 33.3211C23.5461 33.3211 23.742 33.1244 23.742 32.8816V24.9118C23.742 24.8956 23.7551 24.8825 23.7712 24.8825H40.5734C40.5895 24.8825 40.6026 24.8956 40.6026 24.9118V32.8817C40.6026 33.1244 40.7985 33.3212 41.0401 33.3212C41.2818 33.3212 41.4777 33.1245 41.4777 32.8817V32.3835H46.6394C46.6398 32.3835 46.6401 32.3836 46.6405 32.3836C46.641 32.3836 46.6413 32.3835 46.6417 32.3835C47.2769 32.384 47.8162 32.8027 48.0014 33.3797H46.6408C46.3992 33.3797 46.2033 33.5765 46.2033 33.8193V34.7569C46.2033 35.5162 46.8183 36.134 47.5743 36.134H48.0702V38.0678H46.9261C46.5502 36.9778 45.5186 36.1926 44.3072 36.1926C43.0958 36.1926 42.0641 36.9778 41.6883 38.0678H41.4776V34.7568C41.4776 34.5141 41.2817 34.3173 41.04 34.3173C40.7984 34.3173 40.6025 34.5141 40.6025 34.7568V38.0677H31.5241C31.1483 36.9777 30.1166 36.1925 28.9052 36.1925C27.6938 36.1925 26.6621 36.9777 26.2863 38.0677H23.7712C23.7551 38.0677 23.742 38.0546 23.742 38.0385V37.0715H25.6381C25.8798 37.0715 26.0757 36.8747 26.0757 36.632C26.0757 36.3892 25.8798 36.1925 25.6381 36.1925H21.4376C21.1959 36.1925 21 36.3892 21 36.632C21 36.8747 21.1959 37.0715 21.4376 37.0715H22.8669V38.0385C22.8669 38.5393 23.2726 38.9468 23.7712 38.9468H26.1348C26.1347 38.9565 26.134 38.9662 26.134 38.9761C26.134 40.5109 27.3772 41.7596 28.9052 41.7596C30.4332 41.7596 31.6764 40.5109 31.6764 38.9761C31.6764 38.9662 31.6758 38.9565 31.6756 38.9468H41.5368C41.5367 38.9565 41.536 38.9662 41.536 38.9761C41.536 40.5109 42.7792 41.7596 44.3072 41.7596C45.8352 41.7596 47.0784 40.5109 47.0784 38.9761C47.0784 38.9662 47.0777 38.9565 47.0776 38.9468H48.5078C48.7494 38.9468 48.9454 38.75 48.9454 38.5073V33.8192C48.9454 32.6617 48.0952 31.7 46.9891 31.5309ZM41.4778 26.7577H44.774C45.3048 26.7577 45.7367 27.1915 45.7367 27.7247V27.754H41.4778V26.7577ZM41.4778 31.5045V28.633H45.3658L46.0805 31.5045H41.4778ZM28.9052 40.8807C27.8597 40.8807 27.0091 40.0264 27.0091 38.9762C27.0091 37.926 27.8597 37.0716 28.9052 37.0716C29.9507 37.0716 30.8013 37.926 30.8013 38.9762C30.8013 40.0264 29.9507 40.8807 28.9052 40.8807ZM44.3073 40.8807C43.2618 40.8807 42.4112 40.0264 42.4112 38.9762C42.4112 37.926 43.2618 37.0716 44.3073 37.0716C45.3528 37.0716 46.2034 37.926 46.2034 38.9762C46.2034 40.0264 45.3528 40.8807 44.3073 40.8807ZM48.0703 35.255H47.5744C47.301 35.255 47.0785 35.0315 47.0785 34.7568V34.2587H48.0703V35.255H48.0703Z" fill="#0C0B0B"/>
<path d="M28.9053 38.0679C28.4066 38.0679 28.001 38.4753 28.001 38.9762C28.001 39.4771 28.4066 39.8845 28.9053 39.8845C29.4039 39.8845 29.8096 39.4771 29.8096 38.9762C29.8096 38.4753 29.4039 38.0679 28.9053 38.0679Z" fill="#0C0B0B"/>
<path d="M44.3072 38.0679C43.8086 38.0679 43.403 38.4753 43.403 38.9762C43.403 39.4771 43.8086 39.8845 44.3072 39.8845C44.8059 39.8845 45.2115 39.4771 45.2115 38.9762C45.2115 38.4753 44.8059 38.0679 44.3072 38.0679Z" fill="#0C0B0B"/>
<path d="M39.1732 36.1926H32.639C32.3974 36.1926 32.2014 36.3894 32.2014 36.6322C32.2014 36.8749 32.3973 37.0717 32.639 37.0717H39.1732C39.4148 37.0717 39.6108 36.8749 39.6108 36.6322C39.6108 36.3894 39.4149 36.1926 39.1732 36.1926Z" fill="#0C0B0B"/>
<path d="M27.9718 34.3174H22.371C22.1294 34.3174 21.9335 34.5141 21.9335 34.7569C21.9335 34.9997 22.1294 35.1964 22.371 35.1964H27.9718C28.2134 35.1964 28.4094 34.9997 28.4094 34.7569C28.4094 34.5141 28.2134 34.3174 27.9718 34.3174Z" fill="#0C0B0B"/>
<path d="M36.2156 28.3514C36.0448 28.1797 35.7677 28.1797 35.5968 28.3514L31.7056 32.2599L29.6814 30.2266C29.5105 30.055 29.2335 30.055 29.0626 30.2266C28.8917 30.3983 28.8917 30.6765 29.0626 30.8482L31.3963 33.1922C31.4817 33.2781 31.5937 33.321 31.7056 33.321C31.8176 33.321 31.9296 33.2781 32.015 33.1922L36.2156 28.973C36.3864 28.8012 36.3864 28.523 36.2156 28.3514Z" fill="black"/>
<path d="M74.1914 25.2871H75.2695C75.2422 25.873 75.123 26.3789 74.9121 26.8047C74.7051 27.2266 74.4023 27.5508 74.0039 27.7773C73.6094 28.0039 73.1152 28.1172 72.5215 28.1172C72.0957 28.1172 71.7109 28.0332 71.3672 27.8652C71.0234 27.6973 70.7285 27.457 70.4824 27.1445C70.2402 26.8281 70.0547 26.4492 69.9258 26.0078C69.7969 25.5664 69.7324 25.0703 69.7324 24.5195V22.9434C69.7324 22.3965 69.7969 21.9023 69.9258 21.4609C70.0586 21.0195 70.248 20.6426 70.4941 20.3301C70.7441 20.0137 71.0469 19.7715 71.4023 19.6035C71.7617 19.4355 72.168 19.3516 72.6211 19.3516C73.1758 19.3516 73.6445 19.4629 74.0273 19.6855C74.4141 19.9043 74.7109 20.2266 74.918 20.6523C75.1289 21.0742 75.2461 21.5918 75.2695 22.2051H74.1914C74.1641 21.7559 74.0938 21.3906 73.9805 21.1094C73.8672 20.8242 73.6992 20.6152 73.4766 20.4824C73.2578 20.3457 72.9727 20.2773 72.6211 20.2773C72.3086 20.2773 72.0371 20.3398 71.8066 20.4648C71.5801 20.5898 71.3926 20.7695 71.2441 21.0039C71.0996 21.2344 70.9902 21.5137 70.916 21.8418C70.8457 22.166 70.8105 22.5293 70.8105 22.9316V24.5195C70.8105 24.8945 70.8398 25.2441 70.8984 25.5684C70.9609 25.8926 71.0586 26.1777 71.1914 26.4238C71.3281 26.666 71.5059 26.8555 71.7246 26.9922C71.9434 27.1289 72.209 27.1973 72.5215 27.1973C72.916 27.1973 73.2285 27.1328 73.459 27.0039C73.6895 26.875 73.8594 26.6699 73.9688 26.3887C74.082 26.1074 74.1562 25.7402 74.1914 25.2871ZM82.7573 22.9961V24.4785C82.7573 25.0801 82.6909 25.6094 82.5581 26.0664C82.4292 26.5195 82.2398 26.8984 81.9898 27.2031C81.7398 27.5078 81.439 27.7363 81.0874 27.8887C80.7359 28.041 80.3394 28.1172 79.898 28.1172C79.4722 28.1172 79.0835 28.041 78.732 27.8887C78.3804 27.7363 78.0777 27.5078 77.8238 27.2031C77.5698 26.8984 77.3726 26.5195 77.232 26.0664C77.0952 25.6094 77.0269 25.0801 77.0269 24.4785V22.9961C77.0269 22.3945 77.0952 21.8672 77.232 21.4141C77.3687 20.957 77.564 20.5762 77.8179 20.2715C78.0718 19.9668 78.3745 19.7383 78.7261 19.5859C79.0777 19.4297 79.4663 19.3516 79.8921 19.3516C80.3335 19.3516 80.73 19.4297 81.0816 19.5859C81.437 19.7383 81.7378 19.9668 81.9839 20.2715C82.2339 20.5762 82.4253 20.957 82.5581 21.4141C82.6909 21.8672 82.7573 22.3945 82.7573 22.9961ZM81.6909 24.4785V22.9844C81.6909 22.5156 81.6519 22.1133 81.5738 21.7773C81.4956 21.4375 81.3804 21.1602 81.228 20.9453C81.0757 20.7305 80.8882 20.5723 80.6655 20.4707C80.4429 20.3652 80.1851 20.3125 79.8921 20.3125C79.6148 20.3125 79.3648 20.3652 79.1421 20.4707C78.9234 20.5723 78.7359 20.7305 78.5796 20.9453C78.4234 21.1602 78.3023 21.4375 78.2163 21.7773C78.1343 22.1133 78.0933 22.5156 78.0933 22.9844V24.4785C78.0933 24.9512 78.1343 25.3574 78.2163 25.6973C78.3023 26.0332 78.4234 26.3105 78.5796 26.5293C78.7398 26.7441 78.9312 26.9043 79.1538 27.0098C79.3765 27.1113 79.6245 27.1621 79.898 27.1621C80.1909 27.1621 80.4488 27.1113 80.6714 27.0098C80.898 26.9043 81.0855 26.7441 81.2339 26.5293C81.3863 26.3105 81.4995 26.0332 81.5738 25.6973C81.6519 25.3574 81.6909 24.9512 81.6909 24.4785ZM90.4854 19.4688V28H89.4014L85.9854 21.4199V28H84.9073V19.4688H85.9854L89.419 26.0664V19.4688H90.4854ZM98.1724 23.752V26.9336C98.0787 27.0586 97.9361 27.2148 97.7447 27.4023C97.5572 27.5898 97.2935 27.7559 96.9537 27.9004C96.6138 28.0449 96.1685 28.1172 95.6177 28.1172C95.1763 28.1172 94.772 28.043 94.4048 27.8945C94.0416 27.7461 93.7271 27.5234 93.4615 27.2266C93.1998 26.9258 92.9966 26.5527 92.8521 26.1074C92.7076 25.6582 92.6353 25.1328 92.6353 24.5312V22.9316C92.6353 22.334 92.6959 21.8105 92.817 21.3613C92.938 20.9121 93.1177 20.5391 93.356 20.2422C93.5982 19.9453 93.897 19.7227 94.2525 19.5742C94.6119 19.4258 95.0298 19.3516 95.5064 19.3516C96.0572 19.3516 96.5259 19.4551 96.9127 19.6621C97.2994 19.8691 97.5982 20.168 97.8091 20.5586C98.024 20.9492 98.1451 21.418 98.1724 21.9648H97.0943C97.067 21.6133 96.9927 21.3125 96.8716 21.0625C96.7505 20.8086 96.5787 20.6152 96.356 20.4824C96.1334 20.3457 95.8502 20.2773 95.5064 20.2773C95.1783 20.2773 94.9009 20.332 94.6744 20.4414C94.4478 20.5508 94.2623 20.7148 94.1177 20.9336C93.9771 21.1523 93.8736 21.4277 93.8072 21.7598C93.7447 22.0918 93.7134 22.4785 93.7134 22.9199V24.5312C93.7134 24.9844 93.7584 25.3789 93.8482 25.7148C93.938 26.0508 94.065 26.3281 94.2291 26.5469C94.397 26.7656 94.5982 26.9297 94.8326 27.0391C95.067 27.1445 95.3306 27.1973 95.6236 27.1973C95.9556 27.1973 96.2173 27.1621 96.4088 27.0918C96.6002 27.0215 96.7466 26.9414 96.8482 26.8516C96.9537 26.7617 97.0377 26.6895 97.1002 26.6348V24.666H95.5357V23.752H98.1724ZM103.141 19.4688V28H102.074V19.4688H103.141ZM105.385 19.4688V20.3945H99.836V19.4688H105.385ZM109.421 20.2246L107.089 28H105.988L108.736 19.4688H109.427L109.421 20.2246ZM111.308 28L108.976 20.2246L108.964 19.4688H109.662L112.41 28H111.308ZM111.308 24.8418V25.7676H107.195V24.8418H111.308ZM116.042 19.4688V28H114.976V19.4688H116.042ZM118.286 19.4688V20.3945H112.737V19.4688H118.286ZM124.04 19.4688H125.118V25.4746C125.118 26.1152 124.995 26.6289 124.749 27.0156C124.503 27.4023 124.178 27.6836 123.776 27.8594C123.378 28.0312 122.948 28.1172 122.487 28.1172C121.995 28.1172 121.551 28.0312 121.157 27.8594C120.762 27.6836 120.448 27.4023 120.214 27.0156C119.983 26.6289 119.868 26.1152 119.868 25.4746V19.4688H120.94V25.4746C120.94 25.9199 121.003 26.2676 121.128 26.5176C121.256 26.7676 121.436 26.9434 121.667 27.0449C121.901 27.1465 122.174 27.1973 122.487 27.1973C122.803 27.1973 123.077 27.1465 123.307 27.0449C123.542 26.9434 123.721 26.7676 123.846 26.5176C123.975 26.2676 124.04 25.9199 124.04 25.4746V19.4688ZM131.668 27.0801V28H128.129V27.0801H131.668ZM128.322 19.4688V28H127.244V19.4688H128.322ZM136.314 20.2246L133.982 28H132.881L135.629 19.4688H136.32L136.314 20.2246ZM138.201 28L135.869 20.2246L135.857 19.4688H136.554L139.302 28H138.201ZM138.201 24.8418V25.7676H134.088V24.8418H138.201ZM142.935 19.4688V28H141.868V19.4688H142.935ZM145.179 19.4688V20.3945H139.63V19.4688H145.179ZM148.044 19.4688V28H146.966V19.4688H148.044ZM155.948 22.9961V24.4785C155.948 25.0801 155.881 25.6094 155.748 26.0664C155.619 26.5195 155.43 26.8984 155.18 27.2031C154.93 27.5078 154.629 27.7363 154.278 27.8887C153.926 28.041 153.53 28.1172 153.088 28.1172C152.662 28.1172 152.274 28.041 151.922 27.8887C151.571 27.7363 151.268 27.5078 151.014 27.2031C150.76 26.8984 150.563 26.5195 150.422 26.0664C150.285 25.6094 150.217 25.0801 150.217 24.4785V22.9961C150.217 22.3945 150.285 21.8672 150.422 21.4141C150.559 20.957 150.754 20.5762 151.008 20.2715C151.262 19.9668 151.565 19.7383 151.916 19.5859C152.268 19.4297 152.656 19.3516 153.082 19.3516C153.524 19.3516 153.92 19.4297 154.272 19.5859C154.627 19.7383 154.928 19.9668 155.174 20.2715C155.424 20.5762 155.615 20.957 155.748 21.4141C155.881 21.8672 155.948 22.3945 155.948 22.9961ZM154.881 24.4785V22.9844C154.881 22.5156 154.842 22.1133 154.764 21.7773C154.686 21.4375 154.571 21.1602 154.418 20.9453C154.266 20.7305 154.078 20.5723 153.856 20.4707C153.633 20.3652 153.375 20.3125 153.082 20.3125C152.805 20.3125 152.555 20.3652 152.332 20.4707C152.114 20.5723 151.926 20.7305 151.77 20.9453C151.614 21.1602 151.492 21.4375 151.406 21.7773C151.324 22.1133 151.283 22.5156 151.283 22.9844V24.4785C151.283 24.9512 151.324 25.3574 151.406 25.6973C151.492 26.0332 151.614 26.3105 151.77 26.5293C151.93 26.7441 152.121 26.9043 152.344 27.0098C152.567 27.1113 152.815 27.1621 153.088 27.1621C153.381 27.1621 153.639 27.1113 153.862 27.0098C154.088 26.9043 154.276 26.7441 154.424 26.5293C154.576 26.3105 154.69 26.0332 154.764 25.6973C154.842 25.3574 154.881 24.9512 154.881 24.4785ZM163.676 19.4688V28H162.592L159.176 21.4199V28H158.097V19.4688H159.176L162.609 26.0664V19.4688H163.676ZM169.751 25.8438C169.751 25.6445 169.728 25.4688 169.681 25.3164C169.634 25.1602 169.552 25.0195 169.435 24.8945C169.318 24.7695 169.154 24.6504 168.943 24.5371C168.732 24.4238 168.464 24.3086 168.14 24.1914C167.788 24.0664 167.47 23.9277 167.185 23.7754C166.9 23.6191 166.656 23.4414 166.452 23.2422C166.253 23.043 166.099 22.8145 165.99 22.5566C165.88 22.2988 165.825 22.0039 165.825 21.6719C165.825 21.3398 165.882 21.0332 165.995 20.752C166.113 20.4707 166.277 20.2266 166.488 20.0195C166.702 19.8086 166.96 19.6445 167.261 19.5273C167.562 19.4102 167.898 19.3516 168.269 19.3516C168.824 19.3516 169.29 19.4746 169.669 19.7207C170.052 19.9629 170.341 20.2812 170.536 20.6758C170.732 21.0664 170.829 21.4844 170.829 21.9297H169.751C169.751 21.6094 169.699 21.3262 169.593 21.0801C169.491 20.8301 169.331 20.6348 169.113 20.4941C168.898 20.3496 168.616 20.2773 168.269 20.2773C167.956 20.2773 167.699 20.3379 167.495 20.459C167.296 20.5801 167.148 20.7441 167.05 20.9512C166.956 21.1582 166.909 21.3945 166.909 21.6602C166.909 21.8398 166.941 22.0039 167.003 22.1523C167.066 22.2969 167.161 22.4316 167.29 22.5566C167.423 22.6816 167.587 22.7969 167.783 22.9023C167.982 23.0078 168.216 23.1094 168.486 23.207C168.904 23.3438 169.261 23.4961 169.558 23.6641C169.855 23.832 170.097 24.0215 170.284 24.2324C170.472 24.4395 170.609 24.6758 170.695 24.9414C170.784 25.2031 170.829 25.5 170.829 25.832C170.829 26.1797 170.771 26.4941 170.654 26.7754C170.54 27.0566 170.374 27.2969 170.156 27.4961C169.937 27.6953 169.673 27.8496 169.365 27.959C169.056 28.0645 168.708 28.1172 168.322 28.1172C167.986 28.1172 167.656 28.0625 167.331 27.9531C167.011 27.8438 166.72 27.6797 166.458 27.4609C166.197 27.2422 165.988 26.9727 165.831 26.6523C165.675 26.3281 165.597 25.9531 165.597 25.5273H166.675C166.675 25.8203 166.718 26.0723 166.804 26.2832C166.89 26.4902 167.009 26.6621 167.161 26.7988C167.314 26.9355 167.488 27.0371 167.683 27.1035C167.882 27.166 168.095 27.1973 168.322 27.1973C168.634 27.1973 168.896 27.1426 169.107 27.0332C169.322 26.9238 169.482 26.7676 169.587 26.5645C169.697 26.3613 169.751 26.1211 169.751 25.8438ZM173.829 19.4688L173.753 25.5918H172.821L172.739 19.4688H173.829ZM172.721 27.4551C172.721 27.2793 172.77 27.1309 172.868 27.0098C172.97 26.8887 173.116 26.8281 173.307 26.8281C173.503 26.8281 173.649 26.8887 173.747 27.0098C173.848 27.1309 173.899 27.2793 173.899 27.4551C173.899 27.623 173.848 27.7676 173.747 27.8887C173.649 28.0098 173.503 28.0703 173.307 28.0703C173.116 28.0703 172.97 28.0098 172.868 27.8887C172.77 27.7676 172.721 27.623 172.721 27.4551ZM179.869 19.4688L181.609 23.752L183.355 19.4688H184.574L182.148 24.8125V28H181.07V24.8125L178.644 19.4688H179.869ZM191.546 22.9961V24.4785C191.546 25.0801 191.48 25.6094 191.347 26.0664C191.218 26.5195 191.029 26.8984 190.779 27.2031C190.529 27.5078 190.228 27.7363 189.876 27.8887C189.525 28.041 189.128 28.1172 188.687 28.1172C188.261 28.1172 187.872 28.041 187.521 27.8887C187.169 27.7363 186.867 27.5078 186.613 27.2031C186.359 26.8984 186.161 26.5195 186.021 26.0664C185.884 25.6094 185.816 25.0801 185.816 24.4785V22.9961C185.816 22.3945 185.884 21.8672 186.021 21.4141C186.158 20.957 186.353 20.5762 186.607 20.2715C186.861 19.9668 187.163 19.7383 187.515 19.5859C187.867 19.4297 188.255 19.3516 188.681 19.3516C189.122 19.3516 189.519 19.4297 189.87 19.5859C190.226 19.7383 190.527 19.9668 190.773 20.2715C191.023 20.5762 191.214 20.957 191.347 21.4141C191.48 21.8672 191.546 22.3945 191.546 22.9961ZM190.48 24.4785V22.9844C190.48 22.5156 190.441 22.1133 190.363 21.7773C190.285 21.4375 190.169 21.1602 190.017 20.9453C189.865 20.7305 189.677 20.5723 189.454 20.4707C189.232 20.3652 188.974 20.3125 188.681 20.3125C188.404 20.3125 188.154 20.3652 187.931 20.4707C187.712 20.5723 187.525 20.7305 187.369 20.9453C187.212 21.1602 187.091 21.4375 187.005 21.7773C186.923 22.1133 186.882 22.5156 186.882 22.9844V24.4785C186.882 24.9512 186.923 25.3574 187.005 25.6973C187.091 26.0332 187.212 26.3105 187.369 26.5293C187.529 26.7441 187.72 26.9043 187.943 27.0098C188.165 27.1113 188.413 27.1621 188.687 27.1621C188.98 27.1621 189.238 27.1113 189.46 27.0098C189.687 26.9043 189.874 26.7441 190.023 26.5293C190.175 26.3105 190.288 26.0332 190.363 25.6973C190.441 25.3574 190.48 24.9512 190.48 24.4785ZM197.71 19.4688H198.788V25.4746C198.788 26.1152 198.665 26.6289 198.419 27.0156C198.173 27.4023 197.849 27.6836 197.446 27.8594C197.048 28.0312 196.618 28.1172 196.157 28.1172C195.665 28.1172 195.222 28.0312 194.827 27.8594C194.433 27.6836 194.118 27.4023 193.884 27.0156C193.653 26.6289 193.538 26.1152 193.538 25.4746V19.4688H194.61V25.4746C194.61 25.9199 194.673 26.2676 194.798 26.5176C194.927 26.7676 195.106 26.9434 195.337 27.0449C195.571 27.1465 195.845 27.1973 196.157 27.1973C196.474 27.1973 196.747 27.1465 196.977 27.0449C197.212 26.9434 197.391 26.7676 197.516 26.5176C197.645 26.2676 197.71 25.9199 197.71 25.4746V19.4688ZM209.492 23.752V26.9336C209.398 27.0586 209.256 27.2148 209.064 27.4023C208.877 27.5898 208.613 27.7559 208.273 27.9004C207.934 28.0449 207.488 28.1172 206.937 28.1172C206.496 28.1172 206.092 28.043 205.725 27.8945C205.361 27.7461 205.047 27.5234 204.781 27.2266C204.519 26.9258 204.316 26.5527 204.172 26.1074C204.027 25.6582 203.955 25.1328 203.955 24.5312V22.9316C203.955 22.334 204.016 21.8105 204.137 21.3613C204.258 20.9121 204.437 20.5391 204.676 20.2422C204.918 19.9453 205.217 19.7227 205.572 19.5742C205.932 19.4258 206.35 19.3516 206.826 19.3516C207.377 19.3516 207.846 19.4551 208.232 19.6621C208.619 19.8691 208.918 20.168 209.129 20.5586C209.344 20.9492 209.465 21.418 209.492 21.9648H208.414C208.387 21.6133 208.312 21.3125 208.191 21.0625C208.07 20.8086 207.898 20.6152 207.676 20.4824C207.453 20.3457 207.17 20.2773 206.826 20.2773C206.498 20.2773 206.221 20.332 205.994 20.4414C205.768 20.5508 205.582 20.7148 205.437 20.9336C205.297 21.1523 205.193 21.4277 205.127 21.7598C205.064 22.0918 205.033 22.4785 205.033 22.9199V24.5312C205.033 24.9844 205.078 25.3789 205.168 25.7148C205.258 26.0508 205.385 26.3281 205.549 26.5469C205.717 26.7656 205.918 26.9297 206.152 27.0391C206.387 27.1445 206.65 27.1973 206.943 27.1973C207.275 27.1973 207.537 27.1621 207.728 27.0918C207.92 27.0215 208.066 26.9414 208.168 26.8516C208.273 26.7617 208.357 26.6895 208.42 26.6348V24.666H206.855V23.752H209.492ZM216.306 27.0801V28H212.603V27.0801H216.306ZM212.796 19.4688V28H211.718V19.4688H212.796ZM215.808 23.1367V24.0566H212.603V23.1367H215.808ZM216.247 19.4688V20.3945H212.603V19.4688H216.247ZM221.022 19.4688V28H219.956V19.4688H221.022ZM223.267 19.4688V20.3945H217.718V19.4688H223.267Z" fill="#515151"/>
<path d="M71.9395 36.0469V46H69.8887V36.0469H71.9395ZM75.9043 40.2988V41.8984H71.3789V40.2988H75.9043ZM76.3828 36.0469V37.6533H71.3789V36.0469H76.3828ZM77.5723 36.0469H81.2842C82.0452 36.0469 82.6992 36.1608 83.2461 36.3887C83.7975 36.6165 84.2214 36.9538 84.5176 37.4004C84.8138 37.847 84.9619 38.3962 84.9619 39.0479C84.9619 39.5811 84.8708 40.0391 84.6885 40.4219C84.5107 40.8001 84.2578 41.1169 83.9297 41.3721C83.6061 41.6227 83.2256 41.8232 82.7881 41.9736L82.1387 42.3154H78.9121L78.8984 40.7158H81.2979C81.6579 40.7158 81.9564 40.652 82.1934 40.5244C82.4303 40.3968 82.6081 40.2191 82.7266 39.9912C82.8496 39.7633 82.9111 39.499 82.9111 39.1982C82.9111 38.8792 82.8519 38.6035 82.7334 38.3711C82.6149 38.1387 82.4349 37.9609 82.1934 37.8379C81.9518 37.7148 81.6488 37.6533 81.2842 37.6533H79.623V46H77.5723V36.0469ZM83.1367 46L80.8672 41.5635L83.0342 41.5498L85.3311 45.9043V46H83.1367ZM93.2197 44.4004V46H87.9219V44.4004H93.2197ZM88.5918 36.0469V46H86.541V36.0469H88.5918ZM92.5293 40.1006V41.6592H87.9219V40.1006H92.5293ZM93.2129 36.0469V37.6533H87.9219V36.0469H93.2129ZM101.095 44.4004V46H95.7969V44.4004H101.095ZM96.4668 36.0469V46H94.416V36.0469H96.4668ZM100.404 40.1006V41.6592H95.7969V40.1006H100.404ZM101.088 36.0469V37.6533H95.7969V36.0469H101.088ZM110.959 43.3955C110.959 43.2178 110.932 43.0583 110.877 42.917C110.827 42.7712 110.731 42.639 110.59 42.5205C110.449 42.3975 110.25 42.2767 109.995 42.1582C109.74 42.0397 109.41 41.9167 109.004 41.7891C108.553 41.6432 108.124 41.4792 107.719 41.2969C107.318 41.1146 106.962 40.9027 106.652 40.6611C106.347 40.415 106.105 40.1302 105.928 39.8066C105.755 39.4831 105.668 39.1071 105.668 38.6787C105.668 38.264 105.759 37.888 105.941 37.5508C106.124 37.209 106.379 36.9173 106.707 36.6758C107.035 36.4297 107.423 36.2406 107.869 36.1084C108.32 35.9762 108.815 35.9102 109.353 35.9102C110.086 35.9102 110.727 36.0423 111.273 36.3066C111.82 36.571 112.244 36.9333 112.545 37.3936C112.85 37.8538 113.003 38.3802 113.003 38.9727H110.966C110.966 38.681 110.904 38.4258 110.781 38.207C110.663 37.9837 110.48 37.8083 110.234 37.6807C109.993 37.5531 109.688 37.4893 109.318 37.4893C108.963 37.4893 108.667 37.5439 108.43 37.6533C108.193 37.7581 108.015 37.9017 107.896 38.084C107.778 38.2617 107.719 38.4622 107.719 38.6855C107.719 38.8542 107.76 39.0068 107.842 39.1436C107.928 39.2803 108.056 39.4079 108.225 39.5264C108.393 39.6449 108.601 39.7565 108.847 39.8613C109.093 39.9661 109.378 40.0687 109.701 40.1689C110.243 40.333 110.72 40.5176 111.13 40.7227C111.545 40.9277 111.891 41.1579 112.169 41.4131C112.447 41.6683 112.657 41.9577 112.798 42.2812C112.939 42.6048 113.01 42.9717 113.01 43.3818C113.01 43.8148 112.925 44.2021 112.757 44.5439C112.588 44.8857 112.344 45.1751 112.025 45.4121C111.706 45.6491 111.326 45.8291 110.884 45.9521C110.442 46.0752 109.947 46.1367 109.4 46.1367C108.908 46.1367 108.423 46.0729 107.944 45.9453C107.466 45.8132 107.031 45.6149 106.639 45.3506C106.251 45.0863 105.941 44.749 105.709 44.3389C105.477 43.9287 105.36 43.4434 105.36 42.8828H107.418C107.418 43.1927 107.466 43.4548 107.562 43.6689C107.657 43.8831 107.792 44.0563 107.965 44.1885C108.143 44.3206 108.352 44.4163 108.594 44.4756C108.84 44.5348 109.109 44.5645 109.4 44.5645C109.756 44.5645 110.048 44.5143 110.275 44.4141C110.508 44.3138 110.679 44.1748 110.788 43.9971C110.902 43.8193 110.959 43.6188 110.959 43.3955ZM121.042 40.1006V41.7002H115.847V40.1006H121.042ZM116.455 36.0469V46H114.404V36.0469H116.455ZM122.505 36.0469V46H120.461V36.0469H122.505ZM126.47 36.0469V46H124.426V36.0469H126.47ZM132.267 42.4521H129.73V40.8525H132.267C132.659 40.8525 132.978 40.7887 133.224 40.6611C133.47 40.529 133.65 40.3467 133.764 40.1143C133.878 39.8818 133.935 39.6198 133.935 39.3281C133.935 39.0319 133.878 38.7562 133.764 38.501C133.65 38.2458 133.47 38.0407 133.224 37.8857C132.978 37.7308 132.659 37.6533 132.267 37.6533H130.441V46H128.391V36.0469H132.267C133.046 36.0469 133.714 36.1882 134.27 36.4707C134.83 36.7487 135.258 37.1338 135.555 37.626C135.851 38.1182 135.999 38.681 135.999 39.3145C135.999 39.957 135.851 40.513 135.555 40.9824C135.258 41.4518 134.83 41.8141 134.27 42.0693C133.714 42.3245 133.046 42.4521 132.267 42.4521ZM141.29 42.4521H138.754V40.8525H141.29C141.682 40.8525 142.001 40.7887 142.247 40.6611C142.493 40.529 142.673 40.3467 142.787 40.1143C142.901 39.8818 142.958 39.6198 142.958 39.3281C142.958 39.0319 142.901 38.7562 142.787 38.501C142.673 38.2458 142.493 38.0407 142.247 37.8857C142.001 37.7308 141.682 37.6533 141.29 37.6533H139.465V46H137.414V36.0469H141.29C142.069 36.0469 142.737 36.1882 143.293 36.4707C143.854 36.7487 144.282 37.1338 144.578 37.626C144.874 38.1182 145.022 38.681 145.022 39.3145C145.022 39.957 144.874 40.513 144.578 40.9824C144.282 41.4518 143.854 41.8141 143.293 42.0693C142.737 42.3245 142.069 42.4521 141.29 42.4521ZM148.618 36.0469V46H146.574V36.0469H148.618ZM158.64 36.0469V46H156.589L152.59 39.3281V46H150.539V36.0469H152.59L156.596 42.7256V36.0469H158.64ZM168.312 40.7979V44.7422C168.158 44.929 167.918 45.1318 167.595 45.3506C167.271 45.5648 166.854 45.7493 166.344 45.9043C165.833 46.0592 165.216 46.1367 164.491 46.1367C163.849 46.1367 163.263 46.0319 162.734 45.8223C162.206 45.6081 161.75 45.2959 161.367 44.8857C160.989 44.4756 160.697 43.9743 160.492 43.3818C160.287 42.7848 160.185 42.1035 160.185 41.3379V40.7158C160.185 39.9502 160.283 39.2689 160.479 38.6719C160.679 38.0749 160.964 37.5713 161.333 37.1611C161.702 36.751 162.142 36.4388 162.652 36.2246C163.163 36.0104 163.73 35.9033 164.354 35.9033C165.22 35.9033 165.931 36.0446 166.487 36.3271C167.043 36.6051 167.467 36.9925 167.759 37.4893C168.055 37.9814 168.237 38.5465 168.306 39.1846H166.316C166.266 38.8473 166.171 38.5534 166.029 38.3027C165.888 38.0521 165.685 37.8561 165.421 37.7148C165.161 37.5736 164.824 37.5029 164.409 37.5029C164.067 37.5029 163.762 37.5736 163.493 37.7148C163.229 37.8516 163.006 38.0544 162.823 38.3232C162.641 38.5921 162.502 38.9248 162.406 39.3213C162.311 39.7178 162.263 40.1781 162.263 40.7021V41.3379C162.263 41.8574 162.313 42.3177 162.413 42.7188C162.513 43.1152 162.661 43.4502 162.857 43.7236C163.058 43.9925 163.304 44.1953 163.596 44.332C163.887 44.4688 164.227 44.5371 164.614 44.5371C164.938 44.5371 165.207 44.5098 165.421 44.4551C165.64 44.4004 165.815 44.3343 165.947 44.2568C166.084 44.1748 166.189 44.0973 166.262 44.0244V42.2607H164.389V40.7979H168.312ZM175.853 44.4209L177.835 36.0469H178.942L179.195 37.4414L177.083 46H175.894L175.853 44.4209ZM174.834 36.0469L176.475 44.4209L176.338 46H175.012L172.804 36.0469H174.834ZM180.938 44.3867L182.559 36.0469H184.589L182.388 46H181.062L180.938 44.3867ZM179.564 36.0469L181.561 44.4551L181.506 46H180.316L178.19 37.4346L178.464 36.0469H179.564ZM193.879 40.791V41.2627C193.879 42.0192 193.776 42.6982 193.571 43.2998C193.366 43.9014 193.077 44.4141 192.703 44.8379C192.329 45.2572 191.883 45.5785 191.363 45.8018C190.848 46.0251 190.276 46.1367 189.647 46.1367C189.023 46.1367 188.451 46.0251 187.932 45.8018C187.417 45.5785 186.97 45.2572 186.592 44.8379C186.214 44.4141 185.92 43.9014 185.71 43.2998C185.505 42.6982 185.402 42.0192 185.402 41.2627V40.791C185.402 40.0299 185.505 39.3509 185.71 38.7539C185.915 38.1523 186.204 37.6396 186.578 37.2158C186.956 36.792 187.403 36.4684 187.918 36.2451C188.438 36.0218 189.009 35.9102 189.634 35.9102C190.263 35.9102 190.835 36.0218 191.35 36.2451C191.869 36.4684 192.316 36.792 192.689 37.2158C193.068 37.6396 193.359 38.1523 193.564 38.7539C193.774 39.3509 193.879 40.0299 193.879 40.791ZM191.808 41.2627V40.7773C191.808 40.2487 191.76 39.7839 191.664 39.3828C191.568 38.9818 191.427 38.6445 191.24 38.3711C191.053 38.0977 190.826 37.8926 190.557 37.7559C190.288 37.6146 189.98 37.5439 189.634 37.5439C189.287 37.5439 188.98 37.6146 188.711 37.7559C188.447 37.8926 188.221 38.0977 188.034 38.3711C187.852 38.6445 187.713 38.9818 187.617 39.3828C187.521 39.7839 187.474 40.2487 187.474 40.7773V41.2627C187.474 41.7868 187.521 42.2516 187.617 42.6572C187.713 43.0583 187.854 43.3978 188.041 43.6758C188.228 43.9492 188.456 44.1566 188.725 44.2979C188.993 44.4391 189.301 44.5098 189.647 44.5098C189.994 44.5098 190.301 44.4391 190.57 44.2979C190.839 44.1566 191.065 43.9492 191.247 43.6758C191.429 43.3978 191.568 43.0583 191.664 42.6572C191.76 42.2516 191.808 41.7868 191.808 41.2627ZM195.355 36.0469H199.067C199.828 36.0469 200.482 36.1608 201.029 36.3887C201.581 36.6165 202.005 36.9538 202.301 37.4004C202.597 37.847 202.745 38.3962 202.745 39.0479C202.745 39.5811 202.654 40.0391 202.472 40.4219C202.294 40.8001 202.041 41.1169 201.713 41.3721C201.389 41.6227 201.009 41.8232 200.571 41.9736L199.922 42.3154H196.695L196.682 40.7158H199.081C199.441 40.7158 199.74 40.652 199.977 40.5244C200.214 40.3968 200.391 40.2191 200.51 39.9912C200.633 39.7633 200.694 39.499 200.694 39.1982C200.694 38.8792 200.635 38.6035 200.517 38.3711C200.398 38.1387 200.218 37.9609 199.977 37.8379C199.735 37.7148 199.432 37.6533 199.067 37.6533H197.406V46H195.355V36.0469ZM200.92 46L198.65 41.5635L200.817 41.5498L203.114 45.9043V46H200.92ZM210.723 44.4004V46H205.712V44.4004H210.723ZM206.375 36.0469V46H204.324V36.0469H206.375ZM214.954 46H212.787L212.801 44.4004H214.954C215.492 44.4004 215.945 44.2796 216.314 44.0381C216.684 43.792 216.962 43.4342 217.148 42.9648C217.34 42.4954 217.436 41.9281 217.436 41.2627V40.7773C217.436 40.2669 217.381 39.818 217.271 39.4307C217.167 39.0433 217.009 38.7174 216.8 38.4531C216.59 38.1888 216.333 37.9906 216.027 37.8584C215.722 37.7217 215.371 37.6533 214.975 37.6533H212.746V36.0469H214.975C215.64 36.0469 216.248 36.1608 216.8 36.3887C217.356 36.612 217.837 36.9333 218.242 37.3525C218.648 37.7718 218.96 38.2731 219.179 38.8564C219.402 39.4352 219.514 40.0801 219.514 40.791V41.2627C219.514 41.9691 219.402 42.6139 219.179 43.1973C218.96 43.7806 218.648 44.2819 218.242 44.7012C217.841 45.1159 217.36 45.4372 216.8 45.665C216.244 45.8883 215.629 46 214.954 46ZM213.949 36.0469V46H211.898V36.0469H213.949ZM223.403 44.4209L225.386 36.0469H226.493L226.746 37.4414L224.634 46H223.444L223.403 44.4209ZM222.385 36.0469L224.025 44.4209L223.889 46H222.562L220.354 36.0469H222.385ZM228.489 44.3867L230.109 36.0469H232.14L229.938 46H228.612L228.489 44.3867ZM227.115 36.0469L229.111 44.4551L229.057 46H227.867L225.741 37.4346L226.015 36.0469H227.115ZM235.435 36.0469V46H233.391V36.0469H235.435ZM240.411 46H238.244L238.258 44.4004H240.411C240.949 44.4004 241.402 44.2796 241.771 44.0381C242.141 43.792 242.419 43.4342 242.605 42.9648C242.797 42.4954 242.893 41.9281 242.893 41.2627V40.7773C242.893 40.2669 242.838 39.818 242.729 39.4307C242.624 39.0433 242.466 38.7174 242.257 38.4531C242.047 38.1888 241.79 37.9906 241.484 37.8584C241.179 37.7217 240.828 37.6533 240.432 37.6533H238.203V36.0469H240.432C241.097 36.0469 241.705 36.1608 242.257 36.3887C242.813 36.612 243.294 36.9333 243.699 37.3525C244.105 37.7718 244.417 38.2731 244.636 38.8564C244.859 39.4352 244.971 40.0801 244.971 40.791V41.2627C244.971 41.9691 244.859 42.6139 244.636 43.1973C244.417 43.7806 244.105 44.2819 243.699 44.7012C243.298 45.1159 242.817 45.4372 242.257 45.665C241.701 45.8883 241.086 46 240.411 46ZM239.406 36.0469V46H237.355V36.0469H239.406ZM253.14 44.4004V46H247.842V44.4004H253.14ZM248.512 36.0469V46H246.461V36.0469H248.512ZM252.449 40.1006V41.6592H247.842V40.1006H252.449ZM253.133 36.0469V37.6533H247.842V36.0469H253.133Z" fill="black"/>
</svg>
