<svg width="68" height="67" viewBox="0 0 68 67" fill="none" xmlns="http://www.w3.org/2000/svg">
<g clip-path="url(#clip0_968_2329)">
<path d="M33.9998 66.7183C52.3459 66.7183 67.2183 51.8459 67.2183 33.4998C67.2183 15.1537 52.3459 0.28125 33.9998 0.28125C15.6537 0.28125 0.78125 15.1537 0.78125 33.4998C0.78125 51.8459 15.6537 66.7183 33.9998 66.7183Z" fill="#EFAE16"/>
<path d="M23.4775 13.811C23.7757 13.1379 24.4999 12.7204 25.2326 12.7801C30.9067 12.7886 36.5894 12.7715 42.2636 12.7886C43.32 12.763 43.976 13.7854 44.0697 14.7311C45.6203 14.714 47.1795 14.7226 48.7301 14.7226C49.4372 14.7055 50.1528 15.0548 50.5533 15.6427C51.8653 17.4404 53.2114 19.221 54.5235 21.0187C54.8643 21.4787 54.9495 22.0751 54.8643 22.6289C54.6087 24.4436 54.3531 26.2583 54.0805 28.073C53.9953 29.0102 53.22 29.8196 52.2828 29.9218C51.4223 29.9559 50.5703 29.9133 49.7098 29.9474C49.2242 31.2253 47.8525 32.1625 46.4723 31.8728C45.4585 31.7195 44.7343 30.859 44.402 29.9388C40.4914 29.9474 36.5894 29.9303 32.6788 29.9474C32.2528 31.3702 30.7363 32.5203 29.2283 32.0943C28.1804 31.8728 27.4818 30.9271 27.2177 29.9303C25.6586 29.9218 24.0994 29.9474 22.5318 29.9218C21.8076 29.9048 21.2112 29.3084 20.9983 28.6438C20.6915 27.843 21.0238 27.0081 21.1261 26.2072C18.6809 26.1987 16.2357 26.2157 13.7905 26.1987C13.3134 26.2839 12.9641 25.7386 13.1771 25.3297C13.3134 24.9974 13.7224 24.9889 14.0291 24.9889C17.2836 24.9974 20.5382 24.9804 23.7927 24.9974C24.4488 24.8952 24.7384 25.8834 24.142 26.1561C23.5542 26.2498 22.9578 26.1902 22.3699 26.1902C22.3103 26.974 21.6458 28.2093 22.5659 28.7035C24.108 28.7716 25.65 28.7035 27.2006 28.729C27.5073 27.204 28.9898 25.8834 30.6 26.2072C31.8269 26.4117 32.6618 27.5448 32.8152 28.729C35.2007 28.7205 37.5947 28.7376 39.9803 28.7205C40.4744 28.7376 40.6533 28.2008 40.6874 27.8004C41.3775 23.5746 42.0932 19.3573 42.7918 15.14C42.9537 14.6544 42.7066 13.8876 42.1017 13.9473C36.4872 13.9387 30.8641 13.9473 25.2496 13.9473C24.9259 13.8876 24.6362 14.1006 24.534 14.3988C24.3806 14.9696 24.2954 15.5575 24.1932 16.1454C25.3093 16.1624 26.4253 16.0942 27.5414 16.1794C28.0526 16.435 27.9589 17.3807 27.3114 17.3211C23.5797 17.3637 19.8481 17.3211 16.1164 17.3381C15.8182 17.304 15.3837 17.4148 15.1963 17.0996C14.8555 16.7503 15.2048 16.0857 15.6819 16.1454C18.1101 16.1198 20.5467 16.1539 22.9748 16.1283C23.1197 15.3786 23.1708 14.5607 23.4775 13.811ZM43.8738 15.9409C43.1667 20.2178 42.4766 24.4947 41.7268 28.7631C42.5788 28.7631 43.4393 28.7631 44.2913 28.7546C44.4787 27.8089 44.9473 26.8547 45.8078 26.3606C46.8046 25.713 48.2189 25.8323 49.0538 26.6928C49.6331 27.221 49.8461 27.9963 49.9399 28.7546C50.647 28.7461 51.3627 28.7802 52.0698 28.7376C52.5384 28.7205 52.8707 28.2945 52.8877 27.843C53.1518 26.0453 53.4159 24.2391 53.663 22.4415C53.7482 22.1007 53.6034 21.7854 53.3989 21.5299C52.1465 19.8685 50.9281 18.1816 49.6843 16.5117C49.4542 16.205 49.156 15.8813 48.7301 15.9324C47.1113 15.9238 45.4925 15.9409 43.8738 15.9409ZM46.4808 27.6726C45.5266 28.2008 45.4585 29.8025 46.4894 30.2882C47.6395 30.8931 48.926 29.3936 48.3807 28.3031C48.1166 27.5618 47.1283 27.204 46.4808 27.6726ZM29.4413 27.8771C28.436 28.3457 28.2912 29.9303 29.288 30.4926C30.3615 31.1742 31.7246 29.8196 31.3157 28.7035C31.1112 27.9367 30.1485 27.4255 29.4413 27.8771Z" fill="#0C0B0B"/>
<path d="M44.1367 20.6098C44.2901 19.4596 44.486 18.3265 44.6905 17.1848C46.1559 17.1933 47.6213 17.1678 49.0867 17.1933C49.7342 18.352 50.6714 19.3574 51.1655 20.6012C48.8226 20.6183 46.4797 20.6183 44.1367 20.6098Z" fill="#0C0B0B"/>
<path d="M20.9436 18.3515C21.2588 18.2407 21.5911 18.2748 21.9234 18.2663C24.0703 18.2748 26.2173 18.2663 28.3728 18.2663C28.7307 18.2578 29.2674 18.3259 29.3015 18.786C29.4122 19.212 28.9948 19.5783 28.5773 19.5102C26.2855 19.5272 23.9937 19.5102 21.7104 19.5187C21.3951 19.4931 20.9862 19.5783 20.7732 19.2716C20.5006 19.0075 20.6028 18.5048 20.9436 18.3515Z" fill="#0C0B0B"/>
<path d="M17.9983 20.5927C18.3135 20.4819 18.6458 20.516 18.9781 20.5075C21.125 20.516 21.0995 20.5075 23.255 20.5075C23.6128 20.499 24.1495 20.5671 24.1836 21.0272C24.2944 21.4532 23.8769 21.8195 23.4594 21.7514C21.1676 21.7684 21.0569 21.7514 18.7651 21.7599C18.4498 21.7343 18.0409 21.8195 17.8279 21.5128C17.5553 21.2487 17.6575 20.7375 17.9983 20.5927Z" fill="#0C0B0B"/>
<path d="M17.0186 22.9694C17.2486 22.6882 17.6661 22.8075 17.9728 22.7734C21.1592 22.799 24.3456 22.7564 27.532 22.7905C27.9409 22.7564 28.2221 23.3528 27.9835 23.668C27.8472 24.0344 27.4127 23.9406 27.1145 23.9662C23.9196 23.9577 20.7247 23.9747 17.5383 23.9577C16.976 24.1025 16.6352 23.3357 17.0186 22.9694Z" fill="#0C0B0B"/>
<path d="M27.3184 34.5488V35.5627H24.115V37.7949H26.6198V38.8087H24.115V42.1144H22.8711V34.5488H27.3184Z" fill="#0C0B0B"/>
<path d="M32.4042 42.1144L30.6661 39.0899H29.7204V42.1144H28.4766V34.5488H31.0921C31.6715 34.5488 32.1656 34.6511 32.566 34.8555C32.9665 35.06 33.2732 35.3326 33.4691 35.6734C33.6651 36.0142 33.7673 36.3976 33.7673 36.8151C33.7673 37.3092 33.6225 37.7523 33.3413 38.1612C33.0517 38.5616 32.6172 38.8343 32.0208 38.9791L33.8951 42.1144H32.4042ZM29.7119 38.093H31.0836C31.5437 38.093 31.9015 37.9738 32.1315 37.7437C32.3701 37.5137 32.4894 37.1985 32.4894 36.8066C32.4894 36.4147 32.3701 36.1079 32.1401 35.8864C31.91 35.6649 31.5522 35.5542 31.0836 35.5542H29.7119V38.093Z" fill="#0C0B0B"/>
<path d="M36.5986 35.5539V37.7775H39.2142V38.7829H36.5986V41.1002H39.538V42.1141H35.3633V34.54H39.538V35.5539H36.5986Z" fill="#0C0B0B"/>
<path d="M42.2979 35.5539V37.7775H44.9134V38.7829H42.2979V41.1002H45.2372V42.1141H41.0625V34.54H45.2372V35.5539H42.2979Z" fill="#0C0B0B"/>
<path d="M10.3731 51.5284C9.93003 51.3495 9.58072 51.0769 9.30809 50.7191C9.04398 50.3612 8.90766 49.9352 8.89062 49.4326H10.8672C10.8928 49.7137 10.995 49.9352 11.1569 50.0801C11.3273 50.2249 11.5403 50.3016 11.8129 50.3016C12.0855 50.3016 12.307 50.2419 12.4689 50.1142C12.6308 49.9864 12.7075 49.8074 12.7075 49.5859C12.7075 49.3985 12.6478 49.2451 12.52 49.1173C12.3922 48.9981 12.2389 48.8958 12.0515 48.8106C11.864 48.734 11.5999 48.6402 11.2591 48.538C10.765 48.3846 10.3645 48.2313 10.0493 48.0779C9.73408 47.9246 9.46997 47.7031 9.23993 47.4049C9.01842 47.1067 8.89914 46.7233 8.89914 46.2377C8.89914 45.5305 9.15474 44.9682 9.67444 44.5678C10.1856 44.1674 10.8587 43.9629 11.6851 43.9629C12.5286 43.9629 13.2016 44.1674 13.7213 44.5678C14.2325 44.9682 14.5137 45.5305 14.5477 46.2462H12.5371C12.52 45.9991 12.4348 45.8032 12.2644 45.6668C12.0941 45.522 11.8811 45.4538 11.6255 45.4538C11.404 45.4538 11.2165 45.5135 11.0802 45.6328C10.9439 45.752 10.8757 45.9224 10.8757 46.1525C10.8757 46.3995 10.995 46.5955 11.225 46.7318C11.4551 46.8681 11.8214 47.0215 12.3156 47.1748C12.8097 47.3452 13.2101 47.4986 13.5169 47.6519C13.8236 47.8053 14.0877 48.0268 14.3177 48.3165C14.5392 48.6062 14.6585 48.981 14.6585 49.4411C14.6585 49.8756 14.5477 50.276 14.3262 50.6253C14.1047 50.9832 13.781 51.2643 13.3635 51.4773C12.946 51.6903 12.4434 51.7925 11.8725 51.7925C11.3188 51.8011 10.8161 51.7159 10.3731 51.5284Z" fill="#0C0B0B"/>
<path d="M22.4199 44.0905V51.7328H20.5626V48.5805H17.6659V51.7243H15.8086V44.082H17.6659V47.0725H20.5626V44.082H22.4199V44.0905Z" fill="#0C0B0B"/>
<path d="M25.6151 44.0908V51.733H23.7578V44.0908H25.6151Z" fill="#0C0B0B"/>
<path d="M32.481 47.7628C32.2766 48.1292 31.9698 48.4274 31.5439 48.6489C31.1264 48.8704 30.5982 48.9897 29.9762 48.9897H28.8261V51.733H26.9688V44.0908H29.9847C30.5982 44.0908 31.1094 44.1931 31.5268 44.4061C31.9443 44.619 32.2595 44.9087 32.4725 45.2751C32.6855 45.6414 32.7877 46.0674 32.7877 46.5445C32.7877 46.9875 32.6855 47.3965 32.481 47.7628ZM30.6322 47.2517C30.8026 47.0813 30.8964 46.8512 30.8964 46.5445C30.8964 46.2378 30.8112 46.0078 30.6322 45.8374C30.4618 45.667 30.1892 45.5903 29.8399 45.5903H28.8261V47.5072H29.8399C30.1977 47.5072 30.4618 47.422 30.6322 47.2517Z" fill="#0C0B0B"/>
<path d="M39.2825 47.7628C39.078 48.1292 38.7713 48.4274 38.3453 48.6489C37.9279 48.8704 37.3997 48.9897 36.7777 48.9897H35.619V51.733H33.7617V44.0908H36.7777C37.3911 44.0908 37.9023 44.1931 38.3198 44.4061C38.7373 44.619 39.0525 44.9087 39.2655 45.2751C39.4785 45.6414 39.5807 46.0674 39.5807 46.5445C39.5807 46.9875 39.4785 47.3965 39.2825 47.7628ZM37.4252 47.2517C37.5956 47.0813 37.6893 46.8512 37.6893 46.5445C37.6893 46.2378 37.6041 46.0078 37.4252 45.8374C37.2548 45.667 36.9822 45.5903 36.6329 45.5903H35.619V47.5072H36.6329C36.9907 47.5072 37.2548 47.422 37.4252 47.2517Z" fill="#0C0B0B"/>
<path d="M42.4081 44.0908V51.733H40.5508V44.0908H42.4081Z" fill="#0C0B0B"/>
<path d="M50.5939 51.7243H48.7365L45.6268 47.0128V51.7243H43.7695V44.082H45.6268L48.7365 48.819V44.082H50.5939V51.7243Z" fill="#0C0B0B"/>
<path d="M57.018 46.5021C56.8817 46.2466 56.6857 46.0506 56.4216 45.9228C56.166 45.7865 55.8593 45.7183 55.51 45.7183C54.9051 45.7183 54.428 45.9143 54.0616 46.3147C53.6953 46.7066 53.5164 47.2348 53.5164 47.8994C53.5164 48.6065 53.7038 49.1518 54.0872 49.5522C54.4706 49.9441 54.9903 50.1486 55.6634 50.1486C56.1234 50.1486 56.5068 50.0293 56.822 49.7993C57.1373 49.5693 57.3673 49.237 57.5121 48.794H55.1522V47.4223H59.1991V49.1518C59.0627 49.6204 58.8242 50.0464 58.5004 50.4468C58.1682 50.8472 57.7507 51.171 57.2395 51.418C56.7283 51.6651 56.1575 51.7844 55.5185 51.7844C54.7603 51.7844 54.0872 51.6225 53.4993 51.2902C52.9115 50.958 52.4514 50.4979 52.1191 49.91C51.7869 49.3222 51.625 48.6491 51.625 47.8994C51.625 47.1411 51.7869 46.4681 52.1191 45.8802C52.4514 45.2923 52.9115 44.8323 53.4993 44.5C54.0872 44.1677 54.7603 44.0059 55.51 44.0059C56.4216 44.0059 57.1969 44.2274 57.8189 44.6704C58.4493 45.1134 58.8583 45.7269 59.0627 46.5107H57.018V46.5021Z" fill="#0C0B0B"/>
<rect x="7" y="31" width="9" height="7" fill="#EFAE16"/>
</g>
<defs>
<clipPath id="clip0_968_2329">
<rect width="67" height="67" fill="white" transform="translate(0.5)"/>
</clipPath>
</defs>
</svg>
