<svg width="85" height="86" viewBox="0 0 85 86" fill="none" xmlns="http://www.w3.org/2000/svg">
<path d="M42.5 76.4916C60.8036 76.4916 75.6415 61.4869 75.6415 42.9777C75.6415 24.4685 60.8036 9.46387 42.5 9.46387C24.1965 9.46387 9.35852 24.4685 9.35852 42.9777C9.35852 61.4869 24.1965 76.4916 42.5 76.4916Z" fill="#EFAE16"/>
<path d="M32.0027 23.1131C32.3002 22.4341 33.0227 22.0129 33.7537 22.0731C39.4147 22.0817 45.0842 22.0645 50.7452 22.0817C51.7992 22.0559 52.4537 23.0874 52.5472 24.0415C54.0942 24.0243 55.6497 24.0329 57.1967 24.0329C57.9022 24.0157 58.6162 24.3681 59.0157 24.9612C60.3247 26.7748 61.6677 28.5713 62.9767 30.3849C63.3167 30.8491 63.4017 31.4508 63.3167 32.0095C63.0617 33.8403 62.8067 35.6712 62.5347 37.502C62.4497 38.4475 61.6762 39.2641 60.7412 39.3672C59.8827 39.4016 59.0327 39.3586 58.1742 39.393C57.6897 40.6824 56.3212 41.6279 54.9442 41.3356C53.9327 41.1809 53.2102 40.3127 52.8787 39.3844C48.9772 39.393 45.0842 39.3758 41.1827 39.393C40.7577 40.8285 39.2447 41.9889 37.7402 41.5591C36.6947 41.3356 35.9977 40.3815 35.7342 39.3758C34.1787 39.3672 32.6232 39.393 31.0592 39.3672C30.3367 39.35 29.7417 38.7484 29.5292 38.0779C29.2232 37.2699 29.5547 36.4276 29.6567 35.6196C27.2172 35.611 24.7777 35.6282 22.3382 35.611C21.8622 35.697 21.5137 35.1468 21.7262 34.7343C21.8622 34.399 22.2702 34.3904 22.5762 34.3904C25.8232 34.399 29.0702 34.3818 32.3172 34.399C32.9717 34.2959 33.2607 35.293 32.6657 35.568C32.0792 35.6626 31.4842 35.6024 30.8977 35.6024C30.8382 36.3932 30.1752 37.6395 31.0932 38.1381C32.6317 38.2068 34.1702 38.1381 35.7172 38.1639C36.0232 36.6253 37.5022 35.293 39.1087 35.6196C40.3327 35.8259 41.1657 36.9691 41.3187 38.1639C43.6987 38.1553 46.0872 38.1725 48.4672 38.1553C48.9602 38.1725 49.1387 37.6309 49.1727 37.227C49.8612 32.9636 50.5752 28.7088 51.2722 24.454C51.4337 23.9641 51.1872 23.1905 50.5837 23.2507C44.9822 23.2421 39.3722 23.2507 33.7707 23.2507C33.4477 23.1905 33.1587 23.4054 33.0567 23.7062C32.9037 24.2821 32.8187 24.8752 32.7167 25.4683C33.8302 25.4855 34.9437 25.4167 36.0572 25.5027C36.5672 25.7606 36.4737 26.7147 35.8277 26.6545C32.1047 26.6975 28.3817 26.6545 24.6587 26.6717C24.3612 26.6373 23.9277 26.749 23.7407 26.431C23.4007 26.0786 23.7492 25.4081 24.2252 25.4683C26.6477 25.4425 29.0787 25.4769 31.5012 25.4511C31.6457 24.6947 31.6967 23.8695 32.0027 23.1131ZM52.3517 25.262C51.6462 29.577 50.9577 33.8919 50.2097 38.1982C51.0597 38.1982 51.9182 38.1982 52.7682 38.1897C52.9552 37.2356 53.4227 36.2729 54.2812 35.7743C55.2757 35.1211 56.6867 35.2414 57.5197 36.1095C58.0977 36.6425 58.3102 37.4247 58.4037 38.1897C59.1092 38.1811 59.8232 38.2154 60.5287 38.1725C60.9962 38.1553 61.3277 37.7255 61.3447 37.2699C61.6082 35.4563 61.8717 33.634 62.1182 31.8204C62.2032 31.4766 62.0587 31.1585 61.8547 30.9007C60.6052 29.2245 59.3897 27.5226 58.1487 25.8379C57.9192 25.5285 57.6217 25.2018 57.1967 25.2534C55.5817 25.2448 53.9667 25.262 52.3517 25.262ZM54.9527 37.098C54.0007 37.6309 53.9327 39.2469 54.9612 39.7368C56.1087 40.3471 57.3922 38.8343 56.8482 37.7341C56.5847 36.9863 55.5987 36.6253 54.9527 37.098ZM37.9527 37.3043C36.9497 37.7771 36.8052 39.3758 37.7997 39.9431C38.8707 40.6308 40.2307 39.2641 39.8227 38.1381C39.6187 37.3645 38.6582 36.8488 37.9527 37.3043Z" fill="#0C0B0B"/>
<path d="M52.6152 29.9723C52.7682 28.8119 52.9637 27.6687 53.1677 26.5169C54.6297 26.5255 56.0917 26.4997 57.5537 26.5255C58.1997 27.6945 59.1347 28.7087 59.6277 29.9637C57.2902 29.9809 54.9527 29.9809 52.6152 29.9723Z" fill="#0C0B0B"/>
<path d="M29.4782 27.6945C29.7927 27.5828 30.1242 27.6172 30.4557 27.6086C32.5977 27.6172 34.7397 27.6086 36.8902 27.6086C37.2472 27.6 37.7827 27.6687 37.8167 28.1329C37.9272 28.5627 37.5107 28.9323 37.0942 28.8635C34.8077 28.8807 32.5212 28.8635 30.2432 28.8721C29.9287 28.8463 29.5207 28.9323 29.3082 28.6228C29.0362 28.3564 29.1382 27.8493 29.4782 27.6945Z" fill="#0C0B0B"/>
<path d="M26.5373 29.9553C26.8518 29.8435 27.1833 29.8779 27.5148 29.8693C29.6568 29.8779 29.6313 29.8693 31.7818 29.8693C32.1388 29.8607 32.6743 29.9295 32.7083 30.3936C32.8188 30.8234 32.4023 31.193 31.9858 31.1243C29.6993 31.1415 29.5888 31.1243 27.3023 31.1329C26.9878 31.1071 26.5798 31.193 26.3673 30.8836C26.0953 30.6171 26.1973 30.1014 26.5373 29.9553Z" fill="#0C0B0B"/>
<path d="M25.5597 32.3535C25.7892 32.0698 26.2057 32.1901 26.5117 32.1558C29.6907 32.1815 32.8697 32.1386 36.0487 32.173C36.4567 32.1386 36.7372 32.7403 36.4992 33.0583C36.3632 33.4279 35.9297 33.3333 35.6322 33.3591C32.4447 33.3505 29.2572 33.3677 26.0782 33.3505C25.5172 33.4967 25.1772 32.7231 25.5597 32.3535Z" fill="#0C0B0B"/>
<path d="M35.836 44.0347V45.0575H32.64V47.3096H35.139V48.3324H32.64V51.6675H31.399V44.0347H35.836Z" fill="#0C0B0B"/>
<path d="M40.9105 51.6675L39.1765 48.6161H38.233V51.6675H36.992V44.0347H39.6015C40.1795 44.0347 40.6725 44.1378 41.072 44.3441C41.4715 44.5504 41.7775 44.8255 41.973 45.1693C42.1685 45.5131 42.2705 45.8999 42.2705 46.3211C42.2705 46.8196 42.126 47.2666 41.8455 47.6792C41.5565 48.0832 41.123 48.3582 40.528 48.5043L42.398 51.6675H40.9105ZM38.2245 47.6104H39.593C40.052 47.6104 40.409 47.4901 40.6385 47.258C40.8765 47.0259 40.9955 46.7079 40.9955 46.3125C40.9955 45.9171 40.8765 45.6076 40.647 45.3842C40.4175 45.1607 40.0605 45.0489 39.593 45.0489H38.2245V47.6104Z" fill="#0C0B0B"/>
<path d="M45.0925 45.0492V47.2927H47.702V48.3069H45.0925V50.6449H48.025V51.6678H43.86V44.0264H48.025V45.0492H45.0925Z" fill="#0C0B0B"/>
<path d="M50.779 45.0492V47.2927H53.3885V48.3069H50.779V50.6449H53.7115V51.6678H49.5465V44.0264H53.7115V45.0492H50.779Z" fill="#0C0B0B"/>
<path d="M18.9295 61.166C18.4875 60.9855 18.139 60.7104 17.867 60.3494C17.6035 59.9884 17.4675 59.5587 17.4505 59.0515H19.4225C19.448 59.3352 19.55 59.5587 19.7115 59.7048C19.8815 59.8509 20.094 59.9283 20.366 59.9283C20.638 59.9283 20.859 59.8681 21.0205 59.7392C21.182 59.6102 21.2585 59.4297 21.2585 59.2062C21.2585 59.0171 21.199 58.8624 21.0715 58.7335C20.944 58.6131 20.791 58.51 20.604 58.424C20.417 58.3467 20.1535 58.2521 19.8135 58.149C19.3205 57.9943 18.921 57.8396 18.6065 57.6848C18.292 57.5301 18.0285 57.3066 17.799 57.0058C17.578 56.7049 17.459 56.3181 17.459 55.8282C17.459 55.1148 17.714 54.5475 18.2325 54.1435C18.7425 53.7395 19.414 53.5332 20.2385 53.5332C21.08 53.5332 21.7515 53.7395 22.27 54.1435C22.78 54.5475 23.0605 55.1148 23.0945 55.8368H21.0885C21.0715 55.5875 20.9865 55.3898 20.8165 55.2523C20.6465 55.1062 20.434 55.0374 20.179 55.0374C19.958 55.0374 19.771 55.0976 19.635 55.2179C19.499 55.3383 19.431 55.5102 19.431 55.7422C19.431 55.9915 19.55 56.1892 19.7795 56.3267C20.009 56.4643 20.3745 56.619 20.8675 56.7737C21.3605 56.9456 21.76 57.1003 22.066 57.2551C22.372 57.4098 22.6355 57.6333 22.865 57.9255C23.086 58.2178 23.205 58.596 23.205 59.0601C23.205 59.4985 23.0945 59.9025 22.8735 60.2549C22.6525 60.6159 22.3295 60.8996 21.913 61.1144C21.4965 61.3293 20.995 61.4325 20.4255 61.4325C19.873 61.4411 19.3715 61.3551 18.9295 61.166Z" fill="#0C0B0B"/>
<path d="M30.9485 53.6619V61.3721H29.0955V58.1917H26.2055V61.3635H24.3525V53.6533H26.2055V56.6703H29.0955V53.6533H30.9485V53.6619Z" fill="#0C0B0B"/>
<path d="M34.136 53.6621V61.3723H32.283V53.6621H34.136Z" fill="#0C0B0B"/>
<path d="M40.987 57.3668C40.783 57.7364 40.477 58.0372 40.052 58.2607C39.6355 58.4842 39.1085 58.6045 38.488 58.6045H37.3405V61.3723H35.4875V53.6621H38.4965C39.1085 53.6621 39.6185 53.7653 40.035 53.9801C40.4515 54.195 40.766 54.4873 40.9785 54.8569C41.191 55.2265 41.293 55.6563 41.293 56.1376C41.293 56.5846 41.191 56.9972 40.987 57.3668ZM39.1425 56.851C39.3125 56.6791 39.406 56.4471 39.406 56.1376C39.406 55.8282 39.321 55.5961 39.1425 55.4242C38.9725 55.2523 38.7005 55.1749 38.352 55.1749H37.3405V57.1089H38.352C38.709 57.1089 38.9725 57.023 39.1425 56.851Z" fill="#0C0B0B"/>
<path d="M47.77 57.3668C47.566 57.7364 47.26 58.0372 46.835 58.2607C46.4185 58.4842 45.8915 58.6045 45.271 58.6045H44.115V61.3723H42.262V53.6621H45.271C45.883 53.6621 46.393 53.7653 46.8095 53.9801C47.226 54.195 47.5405 54.4873 47.753 54.8569C47.9655 55.2265 48.0675 55.6563 48.0675 56.1376C48.0675 56.5846 47.9655 56.9972 47.77 57.3668ZM45.917 56.851C46.087 56.6791 46.1805 56.4471 46.1805 56.1376C46.1805 55.8282 46.0955 55.5961 45.917 55.4242C45.747 55.2523 45.475 55.1749 45.1265 55.1749H44.115V57.1089H45.1265C45.4835 57.1089 45.747 57.023 45.917 56.851Z" fill="#0C0B0B"/>
<path d="M50.8895 53.6621V61.3723H49.0365V53.6621H50.8895Z" fill="#0C0B0B"/>
<path d="M59.058 61.3635H57.205L54.1025 56.6102V61.3635H52.2495V53.6533H54.1025L57.205 58.4324V53.6533H59.058V61.3635Z" fill="#0C0B0B"/>
<path d="M65.467 56.0947C65.331 55.8368 65.1355 55.6391 64.872 55.5102C64.617 55.3726 64.311 55.3039 63.9625 55.3039C63.359 55.3039 62.883 55.5016 62.5175 55.9056C62.152 56.301 61.9735 56.8339 61.9735 57.5043C61.9735 58.2177 62.1605 58.7679 62.543 59.1718C62.9255 59.5672 63.444 59.7735 64.1155 59.7735C64.5745 59.7735 64.957 59.6532 65.2715 59.4211C65.586 59.189 65.8155 58.8538 65.96 58.4068H63.6055V57.023H67.643V58.7679C67.507 59.2406 67.269 59.6704 66.946 60.0744C66.6145 60.4784 66.198 60.805 65.688 61.0543C65.178 61.3035 64.6085 61.4239 63.971 61.4239C63.2145 61.4239 62.543 61.2606 61.9565 60.9253C61.37 60.5901 60.911 60.1259 60.5795 59.5329C60.248 58.9398 60.0865 58.2607 60.0865 57.5043C60.0865 56.7393 60.248 56.0603 60.5795 55.4672C60.911 54.8741 61.37 54.4099 61.9565 54.0747C62.543 53.7395 63.2145 53.5762 63.9625 53.5762C64.872 53.5762 65.6455 53.7997 66.266 54.2466C66.895 54.6936 67.303 55.3125 67.507 56.1033H65.467V56.0947Z" fill="#0C0B0B"/>
</svg>
