<svg width="30" height="24" viewBox="0 0 30 24" fill="none" xmlns="http://www.w3.org/2000/svg">
<path d="M29.25 16.5H28.5V11.4328C28.5 10.8375 28.2609 10.2656 27.8391 9.84375L23.1562 5.16094C22.7344 4.73906 22.1625 4.5 21.5672 4.5H19.5V2.25C19.5 1.00781 18.4922 0 17.25 0H5.25C4.00781 0 3 1.00781 3 2.25V4.5H0.375C0.16875 4.5 0 4.66875 0 4.875V5.625C0 5.83125 0.16875 6 0.375 6H13.125C13.3313 6 13.5 6.16875 13.5 6.375V7.125C13.5 7.33125 13.3313 7.5 13.125 7.5H1.875C1.66875 7.5 1.5 7.66875 1.5 7.875V8.625C1.5 8.83125 1.66875 9 1.875 9H11.625C11.8313 9 12 9.16875 12 9.375V10.125C12 10.3313 11.8313 10.5 11.625 10.5H0.375C0.16875 10.5 0 10.6687 0 10.875V11.625C0 11.8313 0.16875 12 0.375 12H10.125C10.3313 12 10.5 12.1687 10.5 12.375V13.125C10.5 13.3313 10.3313 13.5 10.125 13.5H3V19.5C3 21.9844 5.01562 24 7.5 24C9.98438 24 12 21.9844 12 19.5H18C18 21.9844 20.0156 24 22.5 24C24.9844 24 27 21.9844 27 19.5H29.25C29.6625 19.5 30 19.1625 30 18.75V17.25C30 16.8375 29.6625 16.5 29.25 16.5ZM7.5 21.75C6.25781 21.75 5.25 20.7422 5.25 19.5C5.25 18.2578 6.25781 17.25 7.5 17.25C8.74219 17.25 9.75 18.2578 9.75 19.5C9.75 20.7422 8.74219 21.75 7.5 21.75ZM22.5 21.75C21.2578 21.75 20.25 20.7422 20.25 19.5C20.25 18.2578 21.2578 17.25 22.5 17.25C23.7422 17.25 24.75 18.2578 24.75 19.5C24.75 20.7422 23.7422 21.75 22.5 21.75ZM26.25 12H19.5V6.75H21.5672L26.25 11.4328V12Z" fill="#069B27"/>
</svg>
