<svg width="375" height="84" viewBox="0 0 375 84" fill="none" xmlns="http://www.w3.org/2000/svg">
<rect width="375" height="84" fill="#234799"/>
<path fill-rule="evenodd" clip-rule="evenodd" d="M182.166 11.8028C184.28 11.4205 186.432 11.2164 188.58 11.238C191.764 11.2238 194.949 11.6828 198.014 12.5417C198.777 12.7782 199.566 12.9631 200.285 13.3222C200.553 13.3391 200.797 13.4721 201.047 13.5622C205.473 15.3029 209.538 18.0484 212.642 21.6751C216.097 25.6506 218.313 30.6159 219.313 35.7712C219.858 38.6424 220.149 41.5837 219.922 44.5041C219.56 49.3945 217.611 54.0807 214.729 58.0132C213.882 59.1788 212.961 60.29 211.972 61.338C211.705 61.5949 211.473 61.8974 211.155 62.0953C210.509 62.8989 209.705 63.5522 208.94 64.2358C208.038 65.015 207.104 65.754 206.143 66.4604C205.009 67.2669 203.869 68.0708 202.656 68.7555C201.467 69.5265 200.191 70.1611 198.921 70.7905C197.754 71.4041 196.524 71.8832 195.303 72.3783C193.24 73.1226 191.117 73.8267 188.913 73.9561C187.987 74.0735 187.058 73.9197 186.131 73.9067C181.885 73.629 177.669 72.6972 173.743 71.0409C169.236 69.1226 165.143 66.1223 162.204 62.1726C159.869 59.0808 158.27 55.4757 157.3 51.7329C156.339 47.9782 155.972 44.0881 156.002 40.2169C156.049 36.9147 156.508 33.5994 157.559 30.4625C158.34 28.1596 159.43 25.9661 160.829 23.9789C162.71 21.3018 165.133 19.033 167.857 17.2342L167.845 17.2241C170.493 15.5302 173.353 14.1388 176.366 13.233C178.244 12.5625 180.203 12.1373 182.166 11.8028Z" fill="#0291D1"/>
<path fill-rule="evenodd" clip-rule="evenodd" d="M173.012 43.4299C173.882 43.3893 174.439 43.3688 174.684 43.3688C175.623 43.3688 176.302 43.8856 176.724 44.9191C176.86 45.2456 176.928 45.7961 176.928 46.5715C176.928 48.0806 176.527 49.4201 175.724 50.5896C175.52 50.8886 175.164 51.283 174.654 51.7725C174.144 52.2622 173.692 52.6495 173.297 52.9351C173.175 53.0166 173.1 53.7852 173.073 55.24C173.046 56.4368 172.995 57.2901 172.92 57.8001C172.845 58.31 172.713 58.7556 172.522 59.1361C172.209 59.7073 171.815 59.9927 171.339 59.9927C170.931 59.9927 170.571 59.7752 170.258 59.3399C170.054 59.0816 169.921 58.7248 169.86 58.2691C169.799 57.8137 169.769 56.8652 169.769 55.4238C169.769 55.0024 169.782 53.5129 169.809 50.9568C169.85 46.9176 169.925 44.7964 170.034 44.5926C170.251 44.1303 170.537 43.8311 170.89 43.6954C171.244 43.5594 171.951 43.4711 173.012 43.4299ZM174.174 44.613C173.903 44.5451 173.705 44.5111 173.583 44.5111C173.433 44.5111 173.263 44.552 173.073 44.6334C172.801 44.7561 172.665 44.9668 172.665 45.2657C172.665 45.3203 172.679 45.4972 172.706 45.7961C172.746 46.2586 172.794 47.1698 172.848 48.5295C172.889 49.8347 172.964 50.5419 173.073 50.6507C173.182 50.7594 173.311 50.773 173.46 50.6916C173.678 50.5692 173.95 50.2391 174.276 49.7025C174.603 49.165 174.834 48.6584 174.97 48.1828C175.147 47.6112 175.235 47.0746 175.235 46.5715C175.235 46 175.106 45.5176 174.847 45.1232C174.684 44.8646 174.46 44.6948 174.174 44.613Z" fill="white"/>
<path fill-rule="evenodd" clip-rule="evenodd" d="M179.874 43.1626C180.024 43.013 180.18 42.938 180.343 42.938C180.942 42.938 181.574 43.7881 182.24 45.488C182.526 46.1813 183.002 47.6024 183.668 49.7508C184.335 51.8993 184.776 53.4226 184.994 54.32C185.416 56.0605 185.626 57.2232 185.626 57.8081C185.626 57.9441 185.62 58.0256 185.606 58.0528C185.456 58.5014 184.953 58.7462 184.097 58.787H183.852C183.417 58.787 183.107 58.675 182.924 58.4507C182.74 58.2262 182.567 57.7604 182.404 57.0534C182.377 56.931 182.336 56.7301 182.281 56.4516C182.227 56.1728 182.152 55.8193 182.057 55.3912C181.962 54.9627 181.887 54.619 181.833 54.3609C181.601 53.3138 181.428 52.6679 181.313 52.4231C181.197 52.1784 180.969 52.056 180.629 52.056C180.411 52.056 180.235 52.0628 180.099 52.0762C179.636 52.1034 179.317 52.1479 179.14 52.2089C178.963 52.2703 178.834 52.3686 178.753 52.5046C178.685 52.627 178.548 53.4226 178.345 54.891C178.181 56.1014 178.035 56.9583 177.906 57.4611C177.777 57.9642 177.61 58.3248 177.406 58.5423C177.23 58.7328 177.046 58.8276 176.856 58.8276C176.842 58.8276 176.808 58.8244 176.754 58.8179C176.699 58.8107 176.651 58.8075 176.611 58.8075C176.284 58.7802 176.121 58.617 176.121 58.3177C176.121 58.019 176.318 56.7778 176.713 54.5956C177.107 52.4128 177.447 50.7099 177.733 49.4859C178.535 45.896 179.249 43.7881 179.874 43.1626ZM180.262 45.7529C180.221 45.6305 180.18 45.5695 180.139 45.5695C180.044 45.5695 179.902 45.957 179.711 46.7324C179.331 48.3502 179.14 49.52 179.14 50.2406V50.3425L179.16 50.4036C179.187 50.4853 179.392 50.5262 179.772 50.5262C180.221 50.5126 180.503 50.4782 180.619 50.424C180.734 50.3695 180.792 50.227 180.792 49.9959C180.792 49.6696 180.717 48.9147 180.568 47.7316C180.418 46.5487 180.316 45.8892 180.262 45.7529Z" fill="white"/>
<path fill-rule="evenodd" clip-rule="evenodd" d="M194.043 44.4587C194.165 44.4181 194.396 44.3977 194.736 44.3977H194.94C195.484 44.4113 196.001 44.5882 196.49 44.9278C196.98 45.2679 197.34 45.6827 197.571 46.1722C197.68 46.417 197.735 46.587 197.735 46.6821C197.735 46.7909 197.687 46.8931 197.592 46.9882C197.51 47.0697 197.415 47.1106 197.306 47.1106C197.102 47.1106 196.79 46.9405 196.368 46.6007C195.634 46.0024 195.192 45.7032 195.042 45.7032C194.92 45.7032 194.767 46.0024 194.583 46.6007C194.4 47.1989 194.254 47.8789 194.145 48.6404C193.941 50.1088 193.839 51.6795 193.839 53.3521C193.839 55.6908 194.002 57.0099 194.328 57.3089C194.369 57.3501 194.417 57.3702 194.471 57.3702C194.553 57.3702 194.798 57.2141 195.205 56.9012C196.348 56.0312 197.096 55.5957 197.449 55.5957C197.653 55.5957 197.813 55.6807 197.928 55.8508C198.044 56.0206 198.102 56.2416 198.102 56.5136C198.102 56.7723 198.054 57.0236 197.959 57.2683C197.769 57.8259 197.303 58.4073 196.562 59.0123C195.821 59.6176 195.131 59.988 194.491 60.124C194.274 60.1649 194.056 60.1851 193.839 60.1851C192.792 60.1851 192.016 59.7095 191.514 58.7575C191.405 58.5397 191.34 58.3459 191.32 58.1762C191.299 58.0061 191.289 57.5338 191.289 56.7584C191.303 55.0452 191.408 53.257 191.605 51.3939C191.802 49.531 192.051 48.0558 192.35 46.9678C192.744 45.5129 193.308 44.6762 194.043 44.4587Z" fill="white"/>
<path fill-rule="evenodd" clip-rule="evenodd" d="M203.723 42.6771C203.927 42.5547 204.138 42.4934 204.355 42.4934C204.627 42.4934 204.858 42.5752 205.049 42.7384C205.294 42.9556 205.45 43.2244 205.518 43.5441C205.586 43.8635 205.633 44.6285 205.661 45.8386C205.701 47.2259 205.79 48.769 205.926 50.4689C206.13 53.1207 206.232 54.7658 206.232 55.4049C206.232 55.7587 206.205 56.18 206.15 56.6698C206.055 57.3768 205.939 57.8526 205.803 58.0974C205.667 58.3421 205.45 58.4645 205.151 58.4645H205.049C204.614 58.4509 204.287 58.1925 204.07 57.6897C203.947 57.4449 203.866 57.1729 203.825 56.8737C203.784 56.5747 203.73 55.8606 203.662 54.732C203.594 53.7122 203.526 53.0357 203.458 52.7024C203.39 52.3693 203.281 52.1145 203.131 51.9376C203.023 51.8153 202.893 51.7539 202.744 51.7539C202.703 51.7539 202.574 51.7676 202.356 51.7945C202.152 51.8081 202.013 51.8286 201.938 51.8559C201.863 51.8831 201.785 51.9172 201.704 51.9581C201.622 51.9987 201.575 52.1039 201.561 52.2742C201.547 52.444 201.533 52.6209 201.52 52.8043C201.506 52.988 201.5 53.2973 201.5 53.7326V54.0179C201.5 55.8405 201.384 57.1593 201.153 57.975C201.003 58.519 200.731 58.791 200.337 58.791C200.174 58.791 200.017 58.7436 199.868 58.6482C199.473 58.4171 199.198 57.7543 199.042 56.6591C198.886 55.5649 198.807 53.7667 198.807 51.2644C198.807 50.1492 198.759 48.9391 198.664 47.6339C198.569 46.6001 198.521 45.5734 198.521 44.5536C198.521 43.8875 198.549 43.5065 198.603 43.4116C198.739 43.1666 199.025 43.0442 199.46 43.0442C199.636 43.0442 199.779 43.0715 199.888 43.126C200.106 43.2211 200.31 43.4659 200.5 43.8602C200.691 44.2546 200.82 44.7032 200.888 45.2063C200.888 45.2336 200.963 46.022 201.112 47.5723C201.221 48.7418 201.316 49.4253 201.398 49.6224C201.479 49.8197 201.731 49.9181 202.152 49.9181H202.255C202.676 49.9181 202.965 49.8469 203.121 49.7041C203.277 49.561 203.356 49.2724 203.356 48.8372C203.356 48.6194 203.349 48.4428 203.335 48.3068C203.295 47.7086 203.274 46.8043 203.274 45.5939C203.274 44.166 203.301 43.3639 203.356 43.1873C203.41 42.9696 203.532 42.7995 203.723 42.6771Z" fill="white"/>
<path fill-rule="evenodd" clip-rule="evenodd" d="M183.537 43.2599C183.646 43.2326 184.169 43.2187 185.108 43.2187C185.312 43.2187 185.659 43.2225 186.148 43.2293C186.638 43.2362 187.019 43.2394 187.29 43.2394C189.099 43.2533 190.258 43.2839 190.768 43.3313C191.278 43.3787 191.703 43.491 192.043 43.6679C192.37 43.8448 192.532 44.0554 192.532 44.3002C192.532 44.4362 192.465 44.5722 192.329 44.7082C192.193 44.8305 191.826 44.9971 191.227 45.2074C190.629 45.4184 190.119 45.558 189.697 45.6258L189.045 45.7277V47.2575C189.045 48.4952 189.086 49.6445 189.167 50.7047C189.262 52.0783 189.31 53.71 189.31 55.6001C189.31 56.7154 189.283 57.5995 189.228 58.252C189.174 58.7278 189.086 59.02 188.963 59.1293C188.827 59.2378 188.732 59.292 188.678 59.292C188.623 59.292 188.507 59.2173 188.331 59.068C188.154 58.932 187.991 58.6256 187.841 58.1501C187.42 56.7764 187.127 53.7168 186.964 48.971C186.91 46.9449 186.869 45.9186 186.842 45.8913C186.801 45.8501 186.318 45.7962 185.393 45.7277C184.618 45.6599 184.068 45.582 183.741 45.4934C183.415 45.4051 183.184 45.2726 183.048 45.0954C182.926 44.9325 182.864 44.7283 182.864 44.4839C182.864 44.2119 182.929 43.9532 183.058 43.7085C183.187 43.4634 183.347 43.3144 183.537 43.2599Z" fill="white"/>
<path fill-rule="evenodd" clip-rule="evenodd" d="M165.943 25.3206C166.157 25.2403 166.411 25.2003 166.704 25.2003C167.198 25.2003 167.645 25.2939 168.045 25.4809C168.526 25.7075 168.95 26.0412 169.317 26.4815C169.684 26.9221 169.867 27.3289 169.867 27.7028C169.867 28.1031 169.747 28.4133 169.507 28.6338C169.266 28.8536 168.919 28.9642 168.466 28.9642C168.079 28.9642 167.789 28.9105 167.595 28.8039C167.402 28.6969 167.231 28.5037 167.084 28.2234C166.924 27.9031 166.804 27.7028 166.724 27.6228C166.644 27.5292 166.551 27.4824 166.444 27.4824C166.164 27.4824 165.903 27.8362 165.663 28.5434C165.423 29.251 165.303 30.0516 165.303 30.9458C165.303 31.5597 165.39 31.9334 165.563 32.067C165.737 32.2003 166.277 32.3005 167.185 32.3672C168.065 32.4338 168.713 32.5541 169.126 32.7278C169.54 32.9011 169.861 33.1879 170.087 33.5882C170.287 33.9088 170.388 34.3624 170.388 34.9497C170.388 35.417 170.327 35.9704 170.207 36.611C169.781 38.9734 168.993 40.4348 167.845 40.9954C167.525 41.142 167.078 41.2158 166.504 41.2158C165.997 41.2158 165.61 41.1557 165.343 41.0354C164.742 40.7417 164.145 40.0443 163.551 38.9435C162.957 37.8425 162.66 36.878 162.66 36.0507C162.66 35.5968 162.734 35.2836 162.881 35.11C163.188 34.7494 163.495 34.5695 163.801 34.5695C163.921 34.5695 164.115 34.6427 164.382 34.7894C164.636 34.9364 164.829 35.1565 164.962 35.4501C165.096 35.7438 165.21 36.211 165.303 36.8513C165.41 37.5056 165.523 37.9758 165.643 38.2626C165.763 38.5497 165.937 38.7533 166.164 38.8736C166.244 38.9 166.304 38.9136 166.344 38.9136C166.571 38.9136 166.784 38.6999 166.984 38.2727C167.171 37.8991 167.295 37.5488 167.355 37.2217C167.415 36.8949 167.445 36.4045 167.445 35.7503C167.445 34.9227 167.398 34.4558 167.305 34.3491C167.211 34.2558 166.738 34.1823 165.883 34.1289C165.149 34.0887 164.629 34.0489 164.322 34.0089C163.214 33.8087 162.66 33.0078 162.66 31.6066C162.66 30.2051 163.034 28.7905 163.781 27.3627C164.342 26.3081 165.063 25.6275 165.943 25.3206Z" fill="white"/>
<path fill-rule="evenodd" clip-rule="evenodd" d="M172.105 25.812C172.238 25.6786 172.418 25.612 172.645 25.612C172.872 25.612 173.049 25.6751 173.175 25.8022C173.302 25.9287 173.419 26.1589 173.526 26.4926C173.646 26.8665 173.706 28.0141 173.706 29.9358C173.706 31.751 173.679 33.6061 173.626 35.5012L173.546 38.1036L173.846 38.1436C173.913 38.1569 174.387 38.2038 175.268 38.2838C176.042 38.3504 176.569 38.4174 176.849 38.4841C177.129 38.5507 177.343 38.6574 177.49 38.8044C177.703 39.018 177.81 39.2648 177.81 39.5448C177.81 39.8121 177.713 40.0556 177.52 40.2758C177.326 40.4959 177.056 40.6462 176.709 40.7259C176.495 40.7795 176.149 40.8062 175.668 40.8062C175.001 40.8062 174.29 40.7564 173.536 40.6559C172.782 40.5558 172.271 40.4393 172.004 40.3057C171.564 40.0921 171.344 39.6651 171.344 39.0245V38.4041C171.344 37.0426 171.374 34.9442 171.434 32.108C171.494 29.2718 171.544 27.7204 171.584 27.4535C171.678 26.6262 171.851 26.0789 172.105 25.812Z" fill="white"/>
<path fill-rule="evenodd" clip-rule="evenodd" d="M179.825 25.8522C179.998 25.7452 180.359 25.6919 180.906 25.6919C181.413 25.6919 182.061 25.7185 182.848 25.7719C183.742 25.8385 184.366 25.9387 184.72 26.0723C185.073 26.2057 185.25 26.4326 185.25 26.7529C185.25 26.7663 185.247 26.7897 185.24 26.8229C185.233 26.8566 185.231 26.8863 185.231 26.9132C185.177 27.3002 184.93 27.5603 184.489 27.6937C183.916 27.854 183.122 27.934 182.107 27.934H181.787L181.066 27.894V29.035C181.066 29.7692 181.08 30.3764 181.106 30.857L181.166 31.4973L182.488 31.5574C183.395 31.5841 184.012 31.6644 184.34 31.7977C184.666 31.9313 184.83 32.1713 184.83 32.5186C184.83 32.7586 184.723 32.9722 184.51 33.1589C184.096 33.5595 183.342 33.7595 182.247 33.7595H181.187L181.166 35.9213C181.166 37.3498 181.2 38.1103 181.267 38.2037C181.347 38.3106 181.687 38.3906 182.288 38.444C183.075 38.5373 183.689 38.6375 184.129 38.7441C184.756 38.8911 185.174 39.0378 185.38 39.1847C185.587 39.3314 185.691 39.5518 185.691 39.8452C185.691 40.1524 185.491 40.4126 185.09 40.6259C184.983 40.6929 184.616 40.7261 183.989 40.7261C183.228 40.7261 182.501 40.6929 181.807 40.6259C180.9 40.5593 180.282 40.4126 179.955 40.1856C179.628 39.959 179.412 39.5317 179.305 38.9044C179.198 38.1705 179.098 36.6955 179.004 34.4801C178.911 32.265 178.864 30.3832 178.864 28.8347C178.864 27.7275 178.891 27.0931 178.944 26.9331C179.091 26.4391 179.385 26.0791 179.825 25.8522Z" fill="white"/>
<path fill-rule="evenodd" clip-rule="evenodd" d="M187.707 25.8517C187.881 25.7447 188.241 25.6914 188.788 25.6914C189.295 25.6914 189.943 25.7181 190.73 25.7714C191.624 25.8381 192.248 25.9382 192.602 26.0718C192.956 26.2052 193.133 26.4321 193.133 26.7524C193.133 26.7658 193.129 26.7892 193.122 26.8224C193.116 26.8561 193.112 26.8858 193.112 26.9127C193.059 27.2997 192.812 27.5599 192.372 27.6932C191.798 27.8535 191.004 27.9335 189.989 27.9335H189.669L188.948 27.8935V29.0345C188.948 29.7688 188.962 30.3759 188.988 30.8565L189.048 31.4968L190.37 31.5569C191.277 31.5836 191.895 31.6639 192.221 31.7972C192.549 31.9309 192.712 32.1709 192.712 32.5181C192.712 32.7581 192.605 32.9717 192.392 33.1584C191.978 33.559 191.224 33.759 190.13 33.759H189.068L189.048 35.9208C189.048 37.3493 189.082 38.1099 189.148 38.2032C189.229 38.3102 189.569 38.3902 190.17 38.4435C190.957 38.5368 191.571 38.637 192.011 38.7436C192.639 38.8906 193.056 39.0373 193.262 39.1842C193.469 39.3309 193.573 39.5514 193.573 39.8447C193.573 40.152 193.373 40.4121 192.972 40.6254C192.865 40.6924 192.498 40.7256 191.871 40.7256C191.11 40.7256 190.383 40.6924 189.689 40.6254C188.782 40.5588 188.164 40.4121 187.837 40.1851C187.511 39.9585 187.293 39.5312 187.187 38.9039C187.08 38.17 186.98 36.695 186.886 34.4796C186.793 32.2645 186.746 30.3827 186.746 28.8342C186.746 27.727 186.773 27.0926 186.826 26.9326C186.973 26.4387 187.267 26.0787 187.707 25.8517Z" fill="white"/>
<path fill-rule="evenodd" clip-rule="evenodd" d="M197.75 25.1115C198.604 25.0715 199.151 25.0513 199.392 25.0513C200.313 25.0513 200.98 25.5586 201.394 26.5728C201.527 26.8931 201.594 27.4336 201.594 28.1942C201.594 29.6756 201.2 30.9903 200.413 32.1379C200.213 32.4315 199.862 32.8185 199.361 33.2991C198.861 33.7794 198.417 34.1601 198.031 34.4401C197.91 34.5201 197.837 35.2742 197.81 36.7024C197.784 37.8766 197.733 38.7142 197.66 39.2147C197.587 39.7151 197.457 40.1525 197.27 40.5258C196.963 41.0864 196.576 41.3667 196.108 41.3667C195.708 41.3667 195.355 41.1534 195.048 40.7261C194.848 40.4725 194.717 40.1222 194.657 39.6751C194.597 39.228 194.567 38.2973 194.567 36.8825C194.567 36.4689 194.581 35.0075 194.607 32.4985C194.647 28.5346 194.721 26.4528 194.828 26.2525C195.041 25.7986 195.321 25.5052 195.668 25.3716C196.015 25.238 196.709 25.1515 197.75 25.1115ZM198.891 26.2724C198.624 26.2057 198.431 26.1725 198.311 26.1725C198.164 26.1725 197.997 26.2125 197.81 26.2925C197.543 26.4128 197.41 26.6193 197.41 26.9133C197.41 26.9666 197.423 27.1399 197.45 27.4336C197.49 27.8875 197.537 28.7814 197.59 30.1162C197.63 31.3974 197.704 32.0914 197.81 32.198C197.917 32.305 198.044 32.3183 198.191 32.238C198.404 32.1177 198.671 31.7945 198.991 31.2671C199.312 30.7402 199.539 30.2428 199.672 29.7761C199.845 29.2155 199.932 28.6881 199.932 28.1942C199.932 27.6336 199.806 27.1601 199.552 26.7731C199.392 26.5192 199.172 26.3527 198.891 26.2724Z" fill="white"/>
<path fill-rule="evenodd" clip-rule="evenodd" d="M203.008 27.0728C202.781 26.5655 202.668 26.1385 202.668 25.7916C202.668 25.2973 202.895 25.0505 203.349 25.0505C203.882 25.0505 204.47 25.351 205.11 25.9516C205.684 26.4988 206.385 27.5131 207.212 28.9943C207.759 29.9552 208.08 30.5024 208.173 30.6361L208.373 30.9365L208.533 30.7362C208.587 30.6829 208.947 30.2289 209.614 29.3747C211.15 27.3863 212.257 26.3922 212.938 26.3922H212.998C213.171 26.4055 213.271 26.4254 213.298 26.452C213.324 26.4787 213.338 26.5854 213.338 26.7723C213.338 27.4129 212.237 29.0879 210.035 31.797C209.995 31.8506 209.942 31.9172 209.875 31.9975C209.595 32.3445 209.424 32.6746 209.364 32.9881C209.304 33.3019 209.254 34.2195 209.214 35.7407C209.201 36.0346 209.194 36.2613 209.194 36.4216C209.141 38.1431 209.071 39.2975 208.984 39.8844C208.897 40.472 208.72 40.9058 208.453 41.1858C208.347 41.3061 208.226 41.3662 208.093 41.3662C207.72 41.3662 207.399 41.0658 207.132 40.4652C206.772 39.7312 206.592 38.5703 206.592 36.9819C206.592 36.7016 206.605 36.1478 206.632 35.3205L206.732 33.3184L206.112 32.3978C205.751 31.8372 205.19 30.9063 204.43 29.6049C203.669 28.3039 203.195 27.4594 203.008 27.0728Z" fill="white"/>
<path d="M224.98 21.0965C225.014 21.3082 225.052 21.4778 225.07 21.6496C225.099 21.924 225.238 22.0302 225.513 22.0063C225.805 21.9809 225.879 21.8108 225.863 21.5562C225.825 20.9274 225.761 20.2983 225.768 19.6699C225.77 19.4883 225.936 19.2101 226.093 19.1498C226.376 19.0412 226.583 19.2679 226.611 19.5476C226.778 21.2519 226.939 22.957 227.064 24.6647C227.078 24.8548 226.884 25.2018 226.735 25.2337C226.389 25.3075 226.266 24.9747 226.216 24.6922C226.129 24.1968 226.09 23.6928 226.007 23.1964C225.97 22.9727 225.939 22.712 225.595 22.7281C225.214 22.746 225.248 23.0084 225.251 23.2655C225.255 23.7694 225.292 24.2774 225.239 24.7757C225.214 25.0161 225.015 25.2381 224.894 25.4685C224.73 25.2659 224.462 25.0823 224.421 24.8571C224.29 24.1479 224.236 23.4238 224.169 22.704C224.081 21.7796 223.996 20.8545 223.943 19.9279C223.933 19.767 224.084 19.5969 224.16 19.4311C224.343 19.5436 224.629 19.6177 224.687 19.776C224.838 20.1826 224.887 20.6265 224.98 21.0965Z" fill="white"/>
<path d="M229.991 24.3272C230.273 24.6787 230.216 24.9356 229.837 24.9681C229.29 25.0152 228.734 25.0163 228.186 24.9732C227.781 24.9412 227.685 24.5702 227.643 24.2375C227.5 23.1123 227.375 21.9848 227.25 20.8575C227.217 20.56 227.191 20.2603 227.187 19.9613C227.18 19.4971 227.389 19.2438 227.848 19.2132C228.318 19.1818 228.793 19.1809 229.261 19.2182C229.402 19.2294 229.53 19.4129 229.663 19.5174C229.544 19.6447 229.446 19.8441 229.303 19.8855C228.928 19.9934 228.534 20.0322 228.074 20.1111C228.11 20.533 228.147 20.9755 228.188 21.4572C228.587 21.4572 228.933 21.4307 229.272 21.4701C229.41 21.4862 229.625 21.6361 229.635 21.7414C229.648 21.8678 229.506 22.086 229.381 22.1335C229.049 22.2601 228.691 22.3163 228.277 22.4164C228.314 22.8933 228.338 23.4078 228.409 23.9158C228.422 24.0064 228.618 24.1139 228.744 24.1384C229.144 24.2161 229.551 24.2583 229.991 24.3272Z" fill="white"/>
<path d="M222.185 23.4331C222.005 22.5941 221.828 21.7944 221.677 20.9898C221.632 20.7509 221.539 20.6718 221.301 20.6967C221.019 20.7262 220.724 20.7707 220.454 20.7142C220.284 20.6786 220.07 20.4947 220.02 20.3326C219.944 20.0874 220.088 19.8829 220.386 19.8415C221.275 19.7178 222.163 19.5843 223.052 19.4651C223.173 19.449 223.309 19.4719 223.425 19.514C223.715 19.6195 223.77 19.8111 223.5 19.9848C223.186 20.1873 222.839 20.3401 222.466 20.5354C222.638 22.2258 223.294 23.8785 223.166 25.6506C222.471 25.0825 222.424 24.2359 222.185 23.4331Z" fill="white"/>
<path d="M234.815 30.5047C234.798 26.9604 234.785 23.4599 234.768 19.9595C234.765 19.5143 234.995 19.2383 235.39 19.1169C235.772 18.9994 236.032 19.2479 236.206 19.5399C236.511 20.0533 236.804 20.5773 237.057 21.1178C237.716 22.5245 238.351 23.9426 239.07 25.3521C239.021 24.3612 238.964 23.3705 238.925 22.3791C238.889 21.4656 238.862 20.5513 238.851 19.6372C238.846 19.2203 238.973 18.8463 239.425 18.7063C239.887 18.563 240.31 18.7957 240.445 19.363C240.597 20.0031 240.69 20.6646 240.734 21.3219C240.907 23.9168 241.06 26.5132 241.197 29.1102C241.227 29.674 241.174 30.2435 241.136 30.8088C241.112 31.1553 240.985 31.535 240.601 31.5341C240.318 31.5335 239.978 31.3531 239.769 31.1464C239.532 30.9123 239.397 30.5673 239.246 30.2567C238.514 28.7573 237.792 27.2533 237.066 25.751C236.994 25.6008 236.92 25.4514 236.846 25.3017C236.803 25.3062 236.759 25.3108 236.715 25.3153C236.715 25.7291 236.723 26.1431 236.714 26.5567C236.678 28.3221 236.64 30.0875 236.596 31.8527C236.592 32.0394 236.604 32.267 236.506 32.4016C236.356 32.6076 236.124 32.8733 235.916 32.8833C235.707 32.8934 235.359 32.6646 235.29 32.4654C235.078 31.8456 234.969 31.1902 234.815 30.5047Z" fill="white"/>
<path d="M264.989 29.9514C264.447 30.7987 263.297 30.5592 262.932 29.5096C262.774 29.054 262.695 28.5589 262.657 28.0757C262.415 25.0116 262.174 21.9472 261.978 18.88C261.885 17.4308 262.179 17.0887 263.615 16.88C264.233 16.7901 264.875 16.7948 265.5 16.8407C266.426 16.9087 266.98 17.5022 267.261 18.3387C267.891 20.2169 267.656 21.9718 266.433 23.5631C266.299 23.7376 266.163 23.9103 266.028 24.0848C266.019 24.0961 266.02 24.115 266.009 24.1657C266.277 24.5783 266.588 24.9964 266.834 25.4498C267.291 26.2924 267.706 27.1572 268.146 28.0093C268.268 28.2448 268.392 28.4838 268.551 28.6937C268.845 29.0823 268.865 29.6066 268.565 29.9004C268.271 30.1879 267.683 30.2176 267.347 29.9161C267.14 29.7309 266.959 29.4957 266.83 29.2498C266.362 28.3582 265.92 27.4525 265.468 26.5526C265.399 26.4168 265.327 26.2832 265.199 26.1705C265.243 26.6988 265.293 27.2267 265.33 27.7555C265.381 28.5 265.373 29.2375 264.989 29.9514ZM264.375 18.3282C264.496 19.7594 264.616 21.1907 264.74 22.654C264.911 22.6037 264.966 22.6034 264.997 22.5761C265.966 21.7347 266.325 19.8994 265.681 18.7903C265.507 18.4917 265.153 18.2815 264.846 18.0881C264.763 18.0355 264.547 18.1923 264.375 18.3282Z" fill="white"/>
<path d="M254.321 20.0693C254.471 19.6318 254.646 19.2523 255.148 19.2371C255.538 19.2253 255.811 19.4418 255.944 19.7949C256.009 19.9646 256.012 20.1643 256.012 20.3504C256.015 22.3216 255.957 24.2948 256.031 26.2631C256.069 27.2606 256.335 28.2502 256.511 29.2411C256.544 29.4239 256.623 29.604 256.71 29.7703C256.875 30.0888 257.094 30.3592 257.5 30.3504C257.917 30.3414 258.145 30.0609 258.215 29.7069C258.389 28.8296 258.602 27.9469 258.643 27.0591C258.754 24.649 258.781 22.235 258.846 19.8227C258.866 19.0855 259.069 18.91 259.812 18.9814C260.014 19.0008 260.218 19.046 260.41 19.111C261.091 19.3414 261.294 19.5668 261.267 20.2838C261.193 22.2688 261.106 24.2542 260.97 26.2356C260.898 27.287 260.771 28.3429 260.555 29.3728C260.426 29.9861 260.167 30.6154 259.81 31.1289C258.821 32.5515 257.234 32.6534 256.004 31.4402C255.012 30.4626 254.467 29.2312 254.234 27.899C253.779 25.3045 253.719 22.6975 254.321 20.0693Z" fill="white"/>
<path d="M248.93 32.1227C248.749 32.1394 248.607 32.153 248.466 32.1544C247.746 32.1617 247.489 32.0118 247.302 31.3078C247.047 30.3504 246.856 29.3759 246.635 28.4096C246.54 27.9954 246.442 27.5818 246.333 27.1712C246.293 27.0207 246.254 26.8431 246.152 26.7407C245.664 26.2515 245.077 26.5737 244.535 26.5971C244.203 26.6113 244.026 26.8525 243.974 27.1975C243.796 28.3811 243.61 29.5635 243.408 30.7432C243.358 31.0347 243.258 31.3228 243.142 31.5961C243.071 31.7637 242.956 31.9756 242.808 32.0329C242.578 32.122 242.285 32.1607 242.057 32.0913C241.948 32.0579 241.855 31.7178 241.882 31.5352C242.057 30.3357 242.217 29.1302 242.476 27.9475C243.006 25.5356 243.579 23.1324 244.175 20.736C244.306 20.2112 244.569 19.7052 244.846 19.2346C245.151 18.7159 245.578 18.6762 245.956 19.1417C246.289 19.5515 246.599 20.0144 246.783 20.5049C248.051 23.8821 249.187 27.3008 249.8 30.8696C249.938 31.6757 249.777 31.8998 248.93 32.1227ZM244.888 21.9342C244.722 22.829 244.549 23.7227 244.396 24.6196C244.369 24.7798 244.404 25.0949 244.439 25.0991C244.804 25.143 245.182 25.179 245.54 25.1205C245.643 25.1036 245.775 24.7685 245.759 24.5915C245.674 23.6532 245.549 22.7184 245.43 21.7834C245.4 21.5487 245.338 21.318 245.291 21.0855C245.245 21.0833 245.199 21.0811 245.153 21.0789C245.072 21.3392 244.991 21.5995 244.888 21.9342Z" fill="white"/>
<path d="M271.436 20.0349C271.596 19.7235 271.719 19.4287 271.898 19.1734C272.201 18.7424 272.566 18.6992 272.921 19.0935C273.212 19.4162 273.499 19.7851 273.646 20.1856C274.281 21.9123 274.922 23.6406 275.449 25.4019C275.967 27.1332 276.364 28.9015 276.779 30.6617C276.876 31.0696 277.033 31.5727 276.566 31.878C276.036 32.2243 275.42 32.2832 274.848 32.0379C274.619 31.9396 274.411 31.6147 274.341 31.3535C274.067 30.3201 273.854 29.2705 273.613 28.228C273.524 27.8448 273.427 27.4631 273.321 27.0844C273.283 26.9505 273.24 26.7875 273.142 26.7062C272.631 26.2808 272.055 26.5643 271.508 26.6061C271.13 26.6351 271.023 26.9528 270.97 27.2856C270.783 28.4836 270.61 29.6845 270.388 30.8762C270.321 31.2365 270.148 31.5906 269.961 31.9113C269.775 32.2305 269.408 32.2634 269.123 32.1147C268.98 32.04 268.865 31.7192 268.894 31.535C269.514 27.6642 270.111 23.7869 271.436 20.0349ZM271.428 24.5348C271.393 25.186 271.418 25.2191 271.93 25.2205C272.7 25.2227 272.815 25.1431 272.766 24.5119C272.706 23.7592 272.611 23.009 272.517 22.2595C272.467 21.8636 272.386 21.4716 272.318 21.0778C272.269 21.0768 272.22 21.0758 272.171 21.0748C271.782 22.1644 271.578 23.2989 271.428 24.5348Z" fill="white"/>
<path d="M250.7 19.4817C250.676 18.7445 250.674 18.7631 249.989 18.6992C249.331 18.6379 248.671 18.5686 248.025 18.4357C247.463 18.32 247.242 17.9536 247.315 17.4404C247.402 16.8281 247.678 16.5453 248.268 16.5504C250.145 16.5666 252.022 16.5888 253.898 16.6427C254.265 16.6532 254.649 16.7705 254.983 16.9267C255.176 17.0167 255.389 17.2765 255.402 17.4726C255.412 17.6269 255.161 17.882 254.974 17.9515C254.195 18.2403 253.397 18.4757 252.505 18.7636C252.505 18.8167 252.501 18.9827 252.505 19.1484C252.576 21.7968 252.661 24.445 252.712 27.0938C252.727 27.8794 252.654 28.6672 252.608 29.4532C252.6 29.5891 252.552 29.7371 252.479 29.8517C252.351 30.0531 252.139 30.142 251.981 29.9202C251.776 29.6325 251.543 29.3186 251.478 28.9856C251.279 27.9671 251.087 26.9387 251.016 25.9056C250.868 23.7822 250.801 21.6533 250.7 19.4817Z" fill="white"/>
<path d="M256.921 11.8262C258.248 12.8393 259.322 14.0608 259.917 15.6404C260.164 16.2972 260.307 16.993 260.532 17.7939C260.053 17.7253 259.695 17.7093 259.356 17.6201C256.765 16.9374 255.096 15.3462 254.534 12.6771C254.353 11.8175 254.16 10.9602 253.951 10C254.716 10.0938 255.479 10.1424 256.223 10.2878C257.853 10.6064 259.321 11.2688 260.419 12.5656C261.528 13.8761 261.84 15.3634 261.289 17.1271C260.749 14.556 259.236 12.8841 257.013 11.719C256.935 11.6825 256.906 11.6766 256.856 11.6558C256.76 11.6315 256.685 11.6315 256.533 11.6315C256.673 11.6977 256.739 11.729 256.822 11.7756C256.863 11.8098 256.89 11.8216 256.921 11.8262Z" fill="white"/>
<path d="M277.866 20.702C277.94 20.4368 277.956 20.172 278.09 19.9972C278.235 19.8075 278.488 19.5928 278.697 19.5899C278.903 19.587 279.229 19.7921 279.299 19.9812C279.459 20.4142 279.568 20.8931 279.569 21.3535C279.573 23.8284 279.536 26.3033 279.515 28.7782C279.511 29.2499 279.515 29.7216 279.515 30.2604C280.101 30.321 280.705 30.3761 281.307 30.448C281.681 30.4927 282.057 30.5403 282.423 30.6273C282.828 30.7236 283.084 30.9947 283.117 31.4229C283.15 31.8443 282.947 32.1537 282.582 32.3455C282.419 32.4318 282.232 32.5083 282.051 32.5227C280.833 32.6192 279.624 32.5438 278.438 32.2425C277.879 32.1005 277.594 31.7639 277.603 31.1859C277.655 27.8284 277.727 24.4712 277.796 21.114C277.799 20.9896 277.839 20.866 277.866 20.702Z" fill="white"/>
<path d="M263.831 12.2363C262.906 12.9676 262.394 13.92 262.29 15.2036C261.913 14.512 261.894 13.8872 262.121 13.2455C262.433 12.3599 263.076 11.7656 263.9 11.3802C264.435 11.13 265.011 10.9683 265.632 10.7441C265.55 12.2098 265.684 13.6369 264.475 14.6312C264.014 15.01 263.461 15.2758 262.895 15.5372C262.723 14.2799 263.154 13.276 263.909 12.3188C263.935 12.2468 263.93 12.223 263.925 12.1992C263.894 12.2115 263.863 12.2239 263.831 12.2363Z" fill="white"/>
<path d="M256.811 11.7605C256.745 11.7293 256.679 11.698 256.539 11.6318C256.691 11.6318 256.766 11.6318 256.843 11.6755C256.834 11.7329 256.822 11.7467 256.811 11.7605Z" fill="white"/>
<path d="M256.859 11.6981C256.908 11.6753 256.937 11.6812 256.982 11.709C256.988 11.7396 256.976 11.7575 256.943 11.8002C256.892 11.8203 256.864 11.8085 256.823 11.7743C256.818 11.7452 256.829 11.7314 256.859 11.6981Z" fill="white"/>
<path d="M311.27 20.2545C311.268 19.7346 311.27 19.2613 311.266 18.7881C311.263 18.4548 311.299 18.1337 311.681 18.0306C312.075 17.9243 312.529 17.8781 312.744 18.2872C313.01 18.7921 313.249 19.344 313.339 19.9015C313.524 21.0514 313.596 22.2191 313.727 23.3781C313.796 23.9948 313.946 24.0966 314.657 24.0732C315.322 24.0513 315.536 23.8878 315.539 23.296C315.548 21.6557 315.532 20.0153 315.526 18.3749C315.524 17.9653 315.71 17.6679 316.1 17.5453C316.501 17.4194 316.917 17.4449 317.168 17.8169C317.344 18.0784 317.482 18.4092 317.509 18.7202C317.591 19.6619 317.599 20.6097 317.657 21.554C317.799 23.8991 317.984 26.2423 318.085 28.5892C318.12 29.3826 317.977 30.1872 317.876 30.9816C317.83 31.3372 317.644 31.6492 317.225 31.6903C316.804 31.7315 316.447 31.559 316.301 31.1746C316.124 30.7111 315.988 30.2181 315.928 29.7265C315.822 28.851 315.789 27.9666 315.718 27.0865C315.702 26.8832 315.671 26.679 315.624 26.4804C315.451 25.7435 314.842 25.4739 314.19 25.8705C314.061 25.949 313.964 26.1746 313.954 26.3385C313.917 26.9519 313.948 27.5697 313.905 28.1825C313.836 29.1554 313.748 30.1279 313.629 31.0958C313.578 31.5089 313.422 31.9131 312.918 31.9807C312.541 32.0314 312.108 31.7312 312.001 31.1779C311.797 30.1316 311.632 29.069 311.57 28.0062C311.478 26.4167 311.503 24.8207 311.45 23.2284C311.418 22.2518 311.332 21.2769 311.27 20.2545Z" fill="white"/>
<path d="M293.356 21.2821C293.681 20.357 293.941 19.4434 294.33 18.5886C294.754 17.6551 295.358 17.6292 295.923 18.4942C296.264 19.0169 296.56 19.5875 296.77 20.1746C297.926 23.4066 299 26.6646 299.657 30.0431C299.696 30.2438 299.717 30.448 299.745 30.6508C299.864 31.5055 299.657 31.7838 298.791 31.9363C297.697 32.1287 297.298 31.9094 297.028 30.8432C296.696 29.5314 296.436 28.2018 296.119 26.8859C295.911 26.0207 295.799 25.9593 294.907 26.0133C294.829 26.018 294.75 26.0231 294.671 26.0278C293.787 26.0808 293.68 26.1636 293.537 27.0177C293.346 28.1671 293.186 29.3221 292.981 30.469C292.915 30.835 292.804 31.2185 292.608 31.527C292.47 31.7447 292.169 31.9424 291.914 31.9845C291.458 32.0597 291.269 31.8273 291.343 31.3659C291.568 29.9666 291.773 28.5626 292.055 27.1745C292.453 25.2162 292.914 23.2705 293.356 21.2821ZM295.008 20.4034C294.809 20.2881 294.777 20.281 294.711 20.5777C294.474 21.6526 294.222 22.7267 294.051 23.813C293.922 24.634 293.984 24.6525 294.83 24.6153C295.416 24.5895 295.517 24.5167 295.458 23.9435C295.339 22.7847 295.178 21.6302 295.008 20.4034Z" fill="white"/>
<path d="M285.704 25.0316C285.739 23.3601 285.762 21.7356 285.813 20.112C285.853 18.8643 286.283 18.4201 287.529 18.3228C288.299 18.2627 289.072 18.2283 289.844 18.2121C290.988 18.188 291.783 18.8229 291.952 19.9538C292.264 22.0351 291.803 23.8999 290.274 25.424C289.962 25.7355 289.665 26.0876 289.295 26.3101C288.746 26.6399 288.67 27.1257 288.643 27.6752C288.586 28.8397 288.554 30.0076 288.432 31.1659C288.385 31.6164 288.192 32.0884 287.945 32.4732C287.497 33.172 286.743 33.1679 286.203 32.5376C285.796 32.0628 285.711 31.4877 285.708 30.899C285.698 28.959 285.704 27.0189 285.704 25.0316ZM290.465 20.4381C290.224 19.5465 289.759 19.1709 288.978 19.2353C288.47 19.2771 288.239 19.5212 288.26 20.0291C288.283 20.5792 288.326 21.1285 288.359 21.6782C288.411 22.5417 288.451 23.4062 288.521 24.2682C288.535 24.4316 288.665 24.5854 288.741 24.7436C288.9 24.6596 289.108 24.6146 289.21 24.4856C290.127 23.3241 290.669 22.034 290.465 20.4381Z" fill="white"/>
<path d="M306.239 33.0792C305.301 32.6497 304.824 31.9652 304.825 30.952C304.829 27.761 305.015 24.5886 305.77 21.4736C305.855 21.1242 305.98 20.7798 306.127 20.4511C306.636 19.3128 307.303 18.9572 308.515 19.2338C309.429 19.4422 310.095 20.008 310.453 20.8813C310.522 21.0488 310.503 21.3645 310.392 21.4619C310.282 21.5589 309.967 21.5351 309.81 21.445C309.444 21.2344 309.119 20.9512 308.777 20.6995C308.1 20.2025 307.991 20.2075 307.797 21.0358C307.547 22.1059 307.293 23.1936 307.231 24.2846C307.134 25.996 307.172 27.7169 307.207 29.4326C307.215 29.8474 307.438 30.2578 307.561 30.6702C307.894 30.4844 308.232 30.3071 308.558 30.1106C309.029 29.8267 309.475 29.4952 309.963 29.2463C310.443 29.0016 310.856 29.2213 310.853 29.7559C310.85 30.1916 310.756 30.6876 310.53 31.0497C309.913 32.0393 309.016 32.7628 307.894 33.0866C307.395 33.2308 306.816 33.1004 306.239 33.0792Z" fill="white"/>
<path d="M297.674 19.5622C297.225 19.1775 297.293 18.7355 297.446 18.2834C297.597 17.8378 297.94 17.7146 298.376 17.722C300.315 17.7547 302.255 17.7636 304.194 17.8183C304.608 17.83 305.038 17.9492 305.422 18.1105C305.633 18.1991 305.892 18.4774 305.894 18.6727C305.896 18.8588 305.627 19.1409 305.417 19.2189C304.712 19.4807 303.982 19.6716 303.26 19.886C303.14 19.9215 303.015 19.9385 302.884 19.9658C302.884 21.1705 302.869 22.3619 302.887 23.5529C302.922 25.9641 302.98 28.375 303.015 30.7863C303.019 31.0651 302.964 31.3543 302.884 31.6228C302.754 32.0578 302.435 32.1417 302.168 31.7867C301.957 31.5069 301.768 31.1586 301.718 30.8188C301.496 29.3092 301.269 27.7962 301.155 26.2761C301.011 24.3591 300.975 22.434 300.891 20.5124C300.886 20.3877 300.866 20.2636 300.856 20.1701C299.791 19.9718 298.748 19.7776 297.674 19.5622Z" fill="white"/>
<path d="M324.703 31.3221C324.234 31.3198 323.918 31.1075 323.682 30.7639C322.584 29.1604 322.54 27.4431 323.194 25.681C323.438 25.0225 324.004 24.6825 324.526 24.7378C325.122 24.8009 325.519 25.1905 325.682 25.9276C325.975 27.2546 326.162 28.5922 325.937 29.952C325.795 30.8138 325.471 31.1739 324.703 31.3221ZM324.366 25.6055C323.986 25.6359 323.932 25.946 323.893 26.2159C323.713 27.4756 323.781 28.7265 324.136 29.9503C324.187 30.1249 324.388 30.2558 324.52 30.407C324.628 30.2338 324.797 30.0727 324.835 29.8853C325.046 28.8253 325.023 27.7562 324.823 26.6989C324.753 26.3319 324.563 25.9877 324.366 25.6055Z" fill="white"/>
<path d="M320.8 25.7535C320.517 25.5458 320.384 25.659 320.36 25.9209C320.291 26.6713 320.205 27.4229 320.195 28.1749C320.188 28.722 320.285 29.2713 320.351 29.8178C320.37 29.9812 320.443 30.1384 320.513 30.3719C320.851 30.113 321.121 29.8807 321.418 29.6914C321.545 29.6107 321.821 29.5455 321.867 29.6034C321.968 29.7282 322.021 29.9469 321.993 30.1101C321.884 30.7461 321.004 31.4664 320.358 31.4858C319.797 31.5026 319.316 31.1171 319.317 30.5545C319.321 29.1724 319.366 27.7902 319.411 26.4085C319.418 26.1936 319.494 25.9769 319.562 25.7688C319.693 25.3687 319.907 25.0703 320.395 25.0773C320.879 25.0842 321.407 25.3705 321.547 25.7588C321.579 25.8456 321.561 25.9706 321.519 26.0535C321.502 26.0867 321.343 26.0802 321.271 26.0453C321.117 25.97 320.977 25.8646 320.8 25.7535Z" fill="white"/>
<path d="M327.241 31.167C327.174 30.8109 327.062 30.4737 327.102 30.1557C327.145 29.8164 327.472 29.7526 327.748 29.9727C328.112 30.2625 328.077 31.0178 327.669 31.2363C327.57 31.2895 327.4 31.2119 327.241 31.167Z" fill="white"/>
<path d="M263.853 12.2542C263.864 12.2229 263.895 12.2106 263.927 12.1982C263.931 12.2219 263.936 12.2455 263.926 12.2895C263.899 12.2976 263.885 12.2854 263.853 12.2542Z" fill="white"/>
</svg>
