<svg width="16" height="16" viewBox="0 0 16 16" fill="none" xmlns="http://www.w3.org/2000/svg">
<circle cx="8" cy="8" r="7.5" stroke="#0695DD"/>
<path d="M9.42917 7.5C9.42917 7.852 9.32917 8.4 9.12917 9.144C8.92917 9.88 8.82917 10.36 8.82917 10.584C8.82917 10.808 8.87317 10.92 8.96117 10.92C9.04917 10.92 9.20917 10.88 9.44117 10.8L9.54917 10.752L9.76517 11.352C9.49317 11.56 9.15317 11.744 8.74517 11.904C8.34517 12.064 7.98117 12.144 7.65317 12.144C7.32517 12.144 7.06517 12.052 6.87317 11.868C6.68917 11.684 6.59717 11.42 6.59717 11.076C6.59717 10.724 6.69317 10.192 6.88517 9.48C7.08517 8.76 7.18517 8.304 7.18517 8.112C7.18517 7.816 7.08117 7.536 6.87317 7.272L6.77717 7.14L6.81317 6.936C7.22917 6.808 8.03717 6.744 9.23717 6.744C9.36517 6.888 9.42917 7.14 9.42917 7.5ZM8.52917 5.808C8.16917 5.808 7.88517 5.712 7.67717 5.52C7.47717 5.328 7.37717 5.084 7.37717 4.788C7.37717 4.484 7.50117 4.232 7.74917 4.032C8.00517 3.824 8.31317 3.72 8.67317 3.72C9.03317 3.72 9.31317 3.804 9.51317 3.972C9.71317 4.14 9.81317 4.376 9.81317 4.68C9.81317 4.984 9.68917 5.248 9.44117 5.472C9.20117 5.696 8.89717 5.808 8.52917 5.808Z" fill="#0695DD"/>
</svg>
