<svg width="141" height="30" viewBox="0 0 141 30" fill="none" xmlns="http://www.w3.org/2000/svg">
<path d="M6.95587 14.3777C6.99891 14.6519 7.04937 14.8717 7.07235 15.0943C7.10906 15.4499 7.29011 15.5875 7.64592 15.5565C8.02439 15.5236 8.12051 15.3032 8.10033 14.9733C8.05052 14.1586 7.96838 13.3434 7.97652 12.5292C7.97887 12.2939 8.19436 11.9335 8.39839 11.8553C8.76569 11.7146 9.03376 12.0084 9.06928 12.3708C9.28572 14.579 9.49457 16.7884 9.65711 19.001C9.67521 19.2473 9.42384 19.697 9.23032 19.7383C8.7825 19.834 8.62294 19.4028 8.55807 19.0367C8.44435 18.3948 8.39411 17.7418 8.28676 17.0986C8.23839 16.8088 8.19799 16.4709 7.75268 16.4918C7.25899 16.5149 7.30319 16.855 7.30628 17.188C7.31234 17.841 7.35991 18.4993 7.29126 19.1448C7.25813 19.4564 7.0004 19.7441 6.84436 20.0425C6.63147 19.78 6.28428 19.5422 6.23056 19.2504C6.06141 18.3314 5.99155 17.3932 5.90351 16.4605C5.79044 15.2628 5.68044 14.0642 5.61089 12.8635C5.59881 12.6551 5.79351 12.4347 5.8927 12.2198C6.1293 12.3655 6.50036 12.4616 6.57622 12.6668C6.77101 13.1935 6.8348 13.7687 6.95587 14.3777Z" fill="#488A42"/>
<path d="M13.4512 18.5637C13.8165 19.019 13.7422 19.3519 13.2517 19.394C12.5426 19.455 11.8211 19.4565 11.1114 19.4006C10.5859 19.3592 10.4617 18.8784 10.407 18.4474C10.2221 16.9894 10.0604 15.5285 9.89749 14.0678C9.85451 13.6824 9.82132 13.2941 9.81564 12.9067C9.80681 12.3052 10.0775 11.977 10.6732 11.9373C11.2818 11.8967 11.8976 11.8955 12.5049 11.9438C12.6877 11.9584 12.8527 12.196 13.0258 12.3314C12.872 12.4965 12.745 12.7548 12.559 12.8084C12.0734 12.9482 11.5619 12.9984 10.9659 13.1007C11.0122 13.6474 11.0608 14.2208 11.1137 14.8449C11.6307 14.8449 12.0795 14.8106 12.5183 14.8616C12.6971 14.8824 12.9768 15.0767 12.9899 15.2132C13.0056 15.3769 12.8224 15.6596 12.6607 15.7212C12.2304 15.8852 11.7653 15.9581 11.2289 16.0878C11.2772 16.7056 11.3087 17.3723 11.4002 18.0305C11.4165 18.1479 11.6711 18.2872 11.8347 18.319C12.3529 18.4197 12.8801 18.4743 13.4512 18.5637Z" fill="#488A42"/>
<path d="M3.33202 17.4055C3.09906 16.3184 2.86967 15.2822 2.67354 14.2397C2.61531 13.9302 2.49461 13.8276 2.18614 13.8599C1.82118 13.8982 1.43827 13.9558 1.08885 13.8826C0.868695 13.8364 0.590955 13.5981 0.525931 13.3882C0.427509 13.0704 0.614351 12.8054 0.999886 12.7518C2.15251 12.5915 3.30339 12.4185 4.45679 12.2642C4.61295 12.2433 4.78975 12.273 4.93943 12.3274C5.31518 12.4642 5.38772 12.7124 5.03767 12.9375C4.62977 13.1999 4.18038 13.3978 3.69708 13.6509C3.92009 15.8411 4.77009 17.9826 4.60353 20.2788C3.70285 19.5426 3.6423 18.4457 3.33202 17.4055Z" fill="#488A42"/>
<path d="M19.7055 26.568C19.6824 21.9756 19.6663 17.44 19.6436 12.9044C19.6407 12.3276 19.9385 11.97 20.4502 11.8127C20.9459 11.6604 21.2827 11.9824 21.5078 12.3608C21.9036 13.026 22.2829 13.7049 22.6113 14.4053C23.4657 16.228 24.2888 18.0654 25.2205 19.8917C25.1569 18.6077 25.0832 17.3241 25.0326 16.0396C24.986 14.8558 24.9514 13.6713 24.9371 12.4868C24.9306 11.9466 25.0948 11.462 25.6805 11.2806C26.2801 11.0949 26.8277 11.3965 27.0026 12.1315C27.2 12.961 27.3214 13.8181 27.3781 14.6697C27.6023 18.032 27.8004 21.3961 27.9784 24.7612C28.0171 25.4916 27.9487 26.2296 27.8988 26.962C27.8682 27.411 27.7036 27.903 27.205 27.9018C26.8388 27.901 26.3982 27.6673 26.1273 27.3995C25.8203 27.0961 25.6447 26.649 25.4483 26.2467C24.5001 24.3039 23.5642 22.355 22.6236 20.4085C22.5296 20.2139 22.4334 20.0204 22.3382 19.8264C22.2817 19.8323 22.2251 19.8382 22.1686 19.8441C22.1686 20.3802 22.1778 20.9166 22.167 21.4525C22.1205 23.74 22.0708 26.0274 22.0142 28.3146C22.0082 28.5566 22.0236 28.8514 21.897 29.0259C21.7032 29.2928 21.4021 29.637 21.1322 29.65C20.861 29.6631 20.4101 29.3666 20.3214 29.1085C20.0455 28.3054 19.904 27.4562 19.7055 26.568Z" fill="#FF3C7F"/>
<path d="M58.8191 25.8516C58.117 26.9494 56.6256 26.6392 56.1531 25.2791C55.9481 24.6888 55.845 24.0474 55.7956 23.4213C55.4826 19.4511 55.1704 15.4804 54.9153 11.5062C54.7947 9.62851 55.1768 9.18527 57.0377 8.91482C57.839 8.79836 58.6716 8.80437 59.482 8.86388C60.682 8.95202 61.4005 9.72097 61.7641 10.8048C62.5805 13.2385 62.2765 15.5123 60.6912 17.5741C60.5173 17.8003 60.3403 18.0241 60.1662 18.2501C60.1548 18.2648 60.1561 18.2893 60.141 18.355C60.4881 18.8896 60.8915 19.4313 61.2103 20.0188C61.8026 21.1106 62.3417 22.2311 62.9116 23.3352C63.069 23.6403 63.23 23.95 63.4363 24.222C63.8181 24.7255 63.843 25.4049 63.4543 25.7856C63.0739 26.158 62.3109 26.1965 61.8753 25.8059C61.6076 25.5659 61.3731 25.2612 61.2056 24.9425C60.5984 23.7873 60.0261 22.6138 59.4396 21.4477C59.3511 21.2718 59.257 21.0987 59.0908 20.9527C59.148 21.6372 59.2128 22.3211 59.2605 23.0063C59.3278 23.9709 59.3165 24.9266 58.8191 25.8516ZM58.0229 10.7912C58.1794 12.6457 58.3359 14.5002 58.4959 16.3962C58.7181 16.3311 58.7893 16.3307 58.8301 16.2954C60.0859 15.2051 60.5508 12.8271 59.7159 11.39C59.4911 11.0031 59.0322 10.7307 58.6339 10.4802C58.5256 10.412 58.2465 10.6152 58.0229 10.7912Z" fill="#FF3C7F"/>
<path d="M44.9907 13.0466C45.1853 12.4797 45.4122 11.988 46.0627 11.9683C46.5683 11.953 46.9214 12.2336 47.0949 12.691C47.1784 12.9109 47.1827 13.1696 47.183 13.4108C47.186 15.9649 47.1113 18.5216 47.2073 21.0719C47.2559 22.3644 47.6014 23.6467 47.8298 24.9305C47.872 25.1674 47.9749 25.4008 48.0871 25.6164C48.3018 26.029 48.5847 26.3794 49.1114 26.368C49.6521 26.3562 49.947 25.9929 50.038 25.5341C50.2636 24.3975 50.5406 23.2537 50.5935 22.1034C50.7371 18.9805 50.7724 15.8527 50.8569 12.727C50.8827 11.7719 51.145 11.5445 52.1087 11.637C52.3703 11.6621 52.6345 11.7207 52.8836 11.8049C53.7664 12.1035 54.0295 12.3955 53.9949 13.3245C53.8992 15.8965 53.7864 18.469 53.6096 21.0364C53.5158 22.3986 53.3517 23.7667 53.0717 25.1013C52.905 25.8959 52.5681 26.7113 52.1053 27.3767C50.8234 29.22 48.7671 29.352 47.1717 27.78C45.8861 26.5133 45.18 24.9178 44.8772 23.1917C44.2874 19.83 44.21 16.4519 44.9907 13.0466Z" fill="#FF3C7F"/>
<path d="M38.003 28.6644C37.768 28.6861 37.5845 28.7037 37.4008 28.7056C36.4673 28.715 36.1351 28.5208 35.8922 27.6086C35.5618 26.368 35.3147 25.1054 35.0273 23.8533C34.9042 23.3167 34.7772 22.7807 34.636 22.2487C34.5843 22.0538 34.534 21.8236 34.4015 21.6909C33.7684 21.057 33.0087 21.4746 32.3056 21.5048C31.8752 21.5233 31.6461 21.8358 31.5789 22.2828C31.3482 23.8164 31.1061 25.3484 30.8443 26.877C30.7796 27.2547 30.6503 27.628 30.5003 27.9821C30.4083 28.1993 30.2586 28.4739 30.067 28.5481C29.7693 28.6635 29.3883 28.7137 29.0939 28.6238C28.9522 28.5805 28.8312 28.1399 28.8658 27.9033C29.0932 26.3491 29.3001 24.787 29.637 23.2546C30.3239 20.1294 31.0661 17.0156 31.8393 13.9105C32.0086 13.2305 32.3495 12.575 32.7084 11.9652C33.1039 11.2931 33.657 11.2416 34.1471 11.8447C34.5786 12.3758 34.9805 12.9756 35.2193 13.6111C36.8632 17.9869 38.3365 22.4166 39.1301 27.0408C39.3093 28.0853 39.1008 28.3757 38.003 28.6644ZM32.7627 15.463C32.5476 16.6224 32.3241 17.7804 32.1254 18.9426C32.09 19.1501 32.1357 19.5584 32.1813 19.5639C32.6544 19.6208 33.1439 19.6674 33.6083 19.5916C33.7424 19.5697 33.9128 19.1355 33.8919 18.9062C33.7814 17.6904 33.62 16.4791 33.4651 15.2677C33.4262 14.9636 33.3465 14.6646 33.2856 14.3633C33.2261 14.3605 33.1666 14.3577 33.1071 14.3549C33.0019 14.6922 32.8967 15.0294 32.7627 15.463Z" fill="#FF3C7F"/>
<path d="M67.1779 13.0023C67.3846 12.5987 67.5445 12.2168 67.777 11.886C68.1696 11.3276 68.6429 11.2716 69.1031 11.7825C69.4797 12.2006 69.8524 12.6786 70.0433 13.1976C70.8662 15.4348 71.6973 17.6743 72.38 19.9564C73.051 22.1997 73.5656 24.4909 74.1043 26.7716C74.2292 27.3001 74.4331 27.952 73.8279 28.3475C73.1414 28.7962 72.3429 28.8726 71.6013 28.5547C71.3042 28.4273 71.0338 28.0064 70.9439 27.668C70.5881 26.3289 70.3118 24.9689 69.9993 23.6182C69.8844 23.1216 69.7589 22.6271 69.6212 22.1364C69.5725 21.9629 69.5164 21.7517 69.3898 21.6464C68.7269 21.0952 67.9797 21.4624 67.2711 21.5167C66.7805 21.5543 66.642 21.9658 66.5744 22.3972C66.3311 23.9494 66.1065 25.5053 65.8188 27.0494C65.7318 27.5163 65.5078 27.9752 65.2657 28.3907C65.0247 28.8042 64.5494 28.8468 64.1799 28.6542C63.9943 28.5575 63.8447 28.1418 63.883 27.9031C64.686 22.8876 65.4598 17.8638 67.1779 13.0023ZM67.1669 18.8328C67.1224 19.6766 67.1538 19.7194 67.8181 19.7213C68.8168 19.7242 68.9656 19.621 68.9013 18.8032C68.8246 17.8279 68.7013 16.8558 68.5789 15.8848C68.5143 15.3717 68.4087 14.8638 68.3215 14.3535C68.258 14.3522 68.1945 14.351 68.1311 14.3497C67.6261 15.7614 67.3624 17.2315 67.1669 18.8328Z" fill="#FF3C7F"/>
<path d="M40.2972 12.2854C40.2664 11.3303 40.2642 11.3543 39.3755 11.2716C38.5231 11.1922 37.6664 11.1023 36.8295 10.9302C36.1006 10.7803 35.8153 10.3055 35.9095 9.64052C36.022 8.84712 36.3793 8.48066 37.1446 8.48727C39.5778 8.50828 42.0113 8.53705 44.4434 8.6069C44.9186 8.62055 45.4159 8.77256 45.8497 8.97491C46.0997 9.09152 46.3751 9.42811 46.392 9.68217C46.4054 9.8821 46.0799 10.2127 45.8372 10.3028C44.8284 10.677 43.7939 10.982 42.6368 11.355C42.6368 11.4238 42.6318 11.6388 42.6375 11.8536C42.7294 15.2852 42.8391 18.7164 42.9053 22.1485C42.9249 23.1665 42.8296 24.1872 42.7703 25.2057C42.76 25.3818 42.698 25.5735 42.6033 25.722C42.4371 25.983 42.1622 26.0981 41.9573 25.8108C41.6916 25.438 41.3902 25.0313 41.3059 24.5998C41.0481 23.2801 40.7993 21.9476 40.7065 20.609C40.5156 17.8577 40.4284 15.0992 40.2972 12.2854Z" fill="#FF3C7F"/>
<path d="M48.361 2.36626C50.0823 3.67893 51.4744 5.2616 52.2449 7.30836C52.5652 8.15937 52.7512 9.06094 53.043 10.0987C52.4217 10.0098 51.9576 9.98903 51.5184 9.87341C48.1587 8.98885 45.9955 6.92714 45.267 3.4688C45.0323 2.35497 44.7831 1.24419 44.5117 0C45.5029 0.121511 46.4919 0.184516 47.4564 0.372922C49.5695 0.785672 51.4728 1.64406 52.8957 3.32435C54.3336 5.02228 54.7382 6.94949 54.0233 9.23472C53.3232 5.90325 51.3627 3.73698 48.4814 2.22736C48.3801 2.18002 48.3426 2.1724 48.2767 2.14539C48.1532 2.11401 48.0557 2.11401 47.859 2.11401C48.0404 2.19975 48.1261 2.24027 48.2331 2.30066C48.286 2.34499 48.3215 2.36023 48.361 2.36626Z" fill="#488A42"/>
<path d="M75.5123 13.8668C75.6075 13.5232 75.6283 13.1801 75.8017 12.9536C75.9898 12.7078 76.3179 12.4296 76.5886 12.4258C76.8564 12.4221 77.2783 12.6878 77.3689 12.9328C77.5765 13.494 77.7185 14.1144 77.7194 14.7109C77.7243 17.9177 77.6769 21.1245 77.6497 24.3313C77.6446 24.9424 77.649 25.5536 77.649 26.2518C78.4089 26.3302 79.1918 26.4018 79.972 26.4949C80.457 26.5528 80.945 26.6144 81.4192 26.7272C81.9437 26.852 82.2762 27.2032 82.3192 27.7581C82.3614 28.304 82.0979 28.705 81.6257 28.9534C81.4132 29.0652 81.1715 29.1645 80.9361 29.1831C79.3577 29.3081 77.7908 29.2105 76.2533 28.82C75.5292 28.6361 75.1588 28.1998 75.1704 27.451C75.2382 23.1006 75.332 18.7507 75.4216 14.4007C75.4249 14.2395 75.4761 14.0793 75.5123 13.8668Z" fill="#FF3C7F"/>
<path d="M57.3182 2.89757C56.1184 3.8451 55.4548 5.07918 55.3202 6.74231C54.832 5.84624 54.8073 5.0366 55.1009 4.20511C55.5061 3.05767 56.3391 2.28757 57.4073 1.78824C58.1008 1.46407 58.8479 1.25455 59.653 0.964111C59.5457 2.86319 59.7204 4.71233 58.1529 6.00067C57.5557 6.49147 56.8381 6.83588 56.1048 7.17453C55.881 5.5455 56.4398 4.2447 57.4195 3.00446C57.4525 2.91108 57.4463 2.88024 57.4401 2.84939C57.3995 2.86545 57.3588 2.88151 57.3182 2.89757Z" fill="#488A42"/>
<path d="M48.2179 2.28127C48.1322 2.24075 48.0465 2.20024 47.8652 2.1145C48.0618 2.1145 48.1593 2.1145 48.2591 2.17105C48.2469 2.2455 48.2324 2.26338 48.2179 2.28127Z" fill="#FF3C7F"/>
<path d="M48.2799 2.20009C48.3435 2.17055 48.3809 2.17817 48.4397 2.21416C48.4478 2.25377 48.432 2.27698 48.3891 2.3323C48.3224 2.35838 48.2868 2.34314 48.234 2.29881C48.2273 2.26105 48.2418 2.24316 48.2799 2.20009Z" fill="#FF3C7F"/>
<path d="M118.814 13.2867C118.812 12.613 118.815 11.9998 118.809 11.3866C118.804 10.9548 118.852 10.5387 119.347 10.4052C119.858 10.2674 120.446 10.2075 120.725 10.7376C121.069 11.3918 121.379 12.1069 121.496 12.8293C121.736 14.3192 121.83 15.8322 121.999 17.334C122.089 18.133 122.283 18.2649 123.204 18.2346C124.066 18.2062 124.344 17.9944 124.348 17.2275C124.359 15.1022 124.338 12.9767 124.331 10.8512C124.329 10.3205 124.569 9.93516 125.075 9.7763C125.594 9.61314 126.134 9.64622 126.459 10.1282C126.688 10.467 126.867 10.8957 126.902 11.2986C127.008 12.5188 127.019 13.7469 127.093 14.9704C127.278 18.0091 127.517 21.0452 127.649 24.086C127.694 25.1141 127.509 26.1566 127.377 27.1859C127.318 27.6467 127.076 28.051 126.534 28.1041C125.988 28.1576 125.526 27.934 125.335 27.4359C125.106 26.8354 124.93 26.1967 124.853 25.5597C124.715 24.4252 124.672 23.2794 124.581 22.139C124.559 21.8755 124.519 21.6109 124.458 21.3537C124.234 20.3988 123.445 20.0495 122.599 20.5634C122.432 20.6651 122.306 20.9574 122.293 21.1697C122.245 21.9646 122.285 22.7651 122.23 23.5591C122.141 24.8197 122.026 26.0797 121.872 27.3339C121.807 27.8691 121.603 28.3928 120.95 28.4805C120.461 28.5461 119.9 28.1572 119.761 27.4403C119.498 26.0845 119.283 24.7077 119.203 23.3307C119.083 21.2711 119.117 19.2032 119.048 17.14C119.006 15.8745 118.895 14.6113 118.814 13.2867Z" fill="#488A42"/>
<path d="M95.592 14.6184C96.0136 13.4197 96.3504 12.236 96.8544 11.1284C97.4047 9.91879 98.1868 9.88535 98.919 11.0061C99.3615 11.6834 99.7455 12.4226 100.018 13.1834C101.516 17.3712 102.908 21.5926 103.76 25.9701C103.811 26.2302 103.838 26.4948 103.875 26.7575C104.028 27.865 103.76 28.2256 102.637 28.4232C101.219 28.6725 100.702 28.3884 100.352 27.0068C99.9221 25.3071 99.5843 23.5843 99.1742 21.8793C98.9045 20.7583 98.7588 20.6787 97.603 20.7486C97.501 20.7548 97.399 20.7614 97.2969 20.7675C96.1502 20.8362 96.0118 20.9434 95.8272 22.0501C95.5787 23.5394 95.3716 25.0359 95.1053 26.522C95.0203 26.9963 94.8761 27.4931 94.6222 27.8929C94.443 28.175 94.0532 28.4311 93.7222 28.4857C93.132 28.583 92.8861 28.282 92.9822 27.6841C93.2735 25.871 93.5395 24.0518 93.9054 22.2532C94.4216 19.7159 95.0185 17.1949 95.592 14.6184ZM97.7329 13.4799C97.4754 13.3305 97.4335 13.3213 97.3487 13.7056C97.0416 15.0985 96.7146 16.4902 96.4934 17.8977C96.3261 18.9615 96.4061 18.9855 97.5025 18.9373C98.2629 18.9038 98.3931 18.8095 98.3169 18.0669C98.1628 16.5654 97.9541 15.0695 97.7329 13.4799Z" fill="#488A42"/>
<path d="M85.6724 19.4763C85.7182 17.3105 85.7475 15.2057 85.8139 13.1019C85.8649 11.4852 86.4226 10.9097 88.0383 10.7837C89.0364 10.7058 90.0383 10.6612 91.0393 10.6402C92.5221 10.609 93.5526 11.4316 93.7721 12.897C94.1759 15.5938 93.5787 18.01 91.5971 19.9848C91.1921 20.3884 90.8076 20.8446 90.3273 21.1329C89.6157 21.5602 89.5177 22.1897 89.4826 22.9017C89.4081 24.4106 89.3668 25.9239 89.2092 27.4246C89.1479 28.0084 88.8982 28.62 88.5779 29.1186C87.9963 30.024 87.0193 30.0187 86.3187 29.202C85.791 28.5868 85.6812 27.8416 85.6773 27.0788C85.6645 24.5651 85.6721 22.0514 85.6724 19.4763ZM91.8438 13.5245C91.5313 12.3693 90.9293 11.8825 89.916 11.9659C89.258 12.0201 88.9591 12.3365 88.9859 12.9945C89.015 13.7073 89.071 14.419 89.1137 15.1313C89.1808 16.2502 89.2333 17.3703 89.3246 18.4872C89.3419 18.6989 89.5108 18.8982 89.6097 19.1032C89.8155 18.9944 90.0851 18.936 90.217 18.7689C91.4058 17.2639 92.1089 15.5923 91.8438 13.5245Z" fill="#488A42"/>
<path d="M112.292 29.9035C111.076 29.347 110.457 28.4601 110.459 27.1473C110.463 23.0127 110.705 18.9021 111.683 14.866C111.793 14.4132 111.956 13.9669 112.146 13.5411C112.807 12.0662 113.67 11.6054 115.242 11.9638C116.427 12.2338 117.289 12.9669 117.754 14.0985C117.843 14.3155 117.818 14.7246 117.675 14.8507C117.532 14.9765 117.124 14.9456 116.921 14.8289C116.446 14.5561 116.025 14.1891 115.581 13.8629C114.704 13.219 114.562 13.2254 114.312 14.2987C113.988 15.6852 113.658 17.0946 113.578 18.5082C113.451 20.7256 113.501 22.9555 113.546 25.1786C113.557 25.716 113.845 26.2478 114.006 26.7821C114.437 26.5413 114.875 26.3117 115.297 26.0571C115.908 25.6892 116.486 25.2596 117.119 24.9371C117.741 24.6201 118.276 24.9048 118.272 25.5974C118.269 26.162 118.146 26.8047 117.854 27.2738C117.054 28.5561 115.892 29.4936 114.437 29.9131C113.79 30.0999 113.039 29.931 112.292 29.9035Z" fill="#488A42"/>
<path d="M101.19 12.3896C100.607 11.8912 100.695 11.3185 100.894 10.7327C101.09 10.1554 101.533 9.99575 102.099 10.0053C104.613 10.0476 107.128 10.0592 109.641 10.13C110.178 10.1452 110.735 10.2997 111.233 10.5087C111.507 10.6234 111.842 10.9841 111.845 11.2372C111.847 11.4782 111.499 11.8438 111.226 11.9449C110.313 12.2841 109.365 12.5315 108.43 12.8092C108.274 12.8552 108.112 12.8773 107.942 12.9127C107.942 14.4735 107.923 16.0173 107.946 17.5605C107.992 20.6848 108.068 23.8086 108.113 26.9328C108.118 27.2942 108.047 27.6689 107.943 28.0168C107.774 28.5804 107.36 28.6891 107.014 28.2292C106.741 27.8665 106.496 27.4152 106.431 26.975C106.143 25.019 105.849 23.0586 105.701 21.0889C105.514 18.6051 105.469 16.1106 105.36 13.6209C105.353 13.4592 105.327 13.2984 105.314 13.1773C103.933 12.9204 102.581 12.6688 101.19 12.3896Z" fill="#488A42"/>
<path d="M136.228 27.6275C135.619 27.6245 135.209 27.3494 134.904 26.9042C133.48 24.8266 133.423 22.6013 134.271 20.3182C134.587 19.465 135.321 19.0244 135.998 19.096C136.771 19.1779 137.285 19.6827 137.496 20.6378C137.876 22.3571 138.119 24.0902 137.828 25.8522C137.643 26.9689 137.223 27.4354 136.228 27.6275ZM135.79 20.2203C135.298 20.2598 135.228 20.6616 135.178 21.0112C134.944 22.6435 135.032 24.2643 135.493 25.85C135.558 26.0762 135.819 26.2459 135.99 26.4417C136.13 26.2173 136.35 26.0086 136.398 25.7658C136.671 24.3924 136.643 23.0071 136.382 21.6372C136.292 21.1616 136.046 20.7156 135.79 20.2203Z" fill="#FF3C7F"/>
<path d="M131.167 20.4117C130.801 20.1426 130.628 20.2893 130.597 20.6286C130.508 21.6009 130.396 22.5748 130.384 23.5492C130.375 24.2581 130.499 24.9699 130.585 25.6779C130.61 25.8897 130.704 26.0933 130.796 26.3959C131.234 26.0604 131.583 25.7594 131.968 25.5141C132.133 25.4095 132.49 25.3251 132.551 25.4002C132.681 25.5618 132.749 25.8452 132.713 26.0567C132.573 26.8807 131.432 27.814 130.594 27.8392C129.868 27.8609 129.243 27.3614 129.245 26.6325C129.25 24.8416 129.309 23.0507 129.366 21.2605C129.375 20.982 129.474 20.7013 129.562 20.4316C129.732 19.9131 130.01 19.5265 130.642 19.5356C131.27 19.5445 131.954 19.9155 132.136 20.4186C132.177 20.5311 132.154 20.6931 132.099 20.8005C132.077 20.8435 131.871 20.8351 131.778 20.7898C131.578 20.6923 131.397 20.5557 131.167 20.4117Z" fill="#FF3C7F"/>
<path d="M139.517 27.4261C139.43 26.9647 139.285 26.5278 139.337 26.1158C139.392 25.6761 139.815 25.5934 140.173 25.8786C140.645 26.2541 140.6 27.2327 140.071 27.5158C139.942 27.5848 139.723 27.4842 139.517 27.4261Z" fill="#FF3C7F"/>
<path d="M57.3467 2.92012C57.3618 2.87981 57.4018 2.86398 57.4419 2.84814C57.448 2.87856 57.4541 2.90897 57.4417 2.96551C57.406 2.97595 57.3888 2.96027 57.3467 2.92012Z" fill="#FF3C7F"/>
</svg>
