<svg width="24" height="30" viewBox="0 0 24 30" fill="none" xmlns="http://www.w3.org/2000/svg">
<path fill-rule="evenodd" clip-rule="evenodd" d="M18.25 4.99999H16.1667V0.7C16.1667 0.316146 15.8561 0 15.4722 0H14.0834H12.6945H11.3056H9.9167H8.52783C8.14398 0 7.83337 0.316146 7.83337 0.7V4.99999H5.75004C3.0699 4.99999 0.888916 7.18097 0.888916 9.86111V27.2222C0.888916 28.7542 2.13468 30 3.66671 30H20.3333C21.8653 30 23.1111 28.7542 23.1111 27.2222V9.86111C23.1111 7.18097 20.9301 4.99999 18.25 4.99999ZM14.7778 1.38889H9.2223V4.99999H14.7778V1.38889ZM20.3334 28.611C21.099 28.611 21.7223 27.9878 21.7223 27.2221V9.86111C21.7223 7.94666 20.1645 6.38892 18.2501 6.38892H5.7501C3.83565 6.38892 2.27791 7.94666 2.27791 9.86111V27.2221C2.27791 27.9878 2.90115 28.611 3.66677 28.611H20.3334Z" fill="#212529"/>
<path d="M18.8057 15.0004C17.6665 15.0004 16.0997 15.1879 14.8203 15.5714C14.3186 14.382 13.4639 13.2766 12.2857 12.3671C12.0348 12.1745 11.6876 12.1745 11.4367 12.3671C10.2584 13.2766 9.40379 14.382 8.90203 15.5715C7.62306 15.1879 6.05718 15.0004 4.91675 15.0004C4.5329 15.0004 4.22229 15.311 4.22229 15.6949C4.22229 18.0278 4.92691 19.9735 6.26018 21.3223C7.58055 22.657 9.46518 23.3338 11.8611 23.3338C14.2571 23.3338 16.1417 22.657 17.4621 21.3223C18.7954 19.9735 19.5 18.0278 19.5 15.6949C19.5001 15.311 19.1895 15.0004 18.8057 15.0004ZM7.24767 20.3458C6.11851 19.2037 5.734 17.6799 5.63837 16.4124C6.54696 16.4671 7.61727 16.6273 8.50177 16.8922C8.41571 17.3558 8.37261 17.8248 8.39715 18.2964C8.46121 19.5289 8.92306 20.6892 9.71069 21.6682C8.72013 21.4122 7.88146 20.9865 7.24767 20.3458ZM13.9384 18.2244C13.8645 19.6371 13.1314 20.8951 11.8612 21.8058C10.591 20.895 9.85789 19.637 9.784 18.2244C9.70196 16.649 10.4533 15.0683 11.8612 13.8177C13.2691 15.0683 14.0205 16.649 13.9384 18.2244ZM16.4748 20.3458C15.841 20.9865 15.0023 21.4122 14.0118 21.6682C14.7994 20.6892 15.2612 19.5289 15.3253 18.2964C15.3499 17.8248 15.3068 17.3558 15.2208 16.8923C16.1059 16.6274 17.1761 16.4674 18.0841 16.4125C17.9885 17.6799 17.604 19.2037 16.4748 20.3458Z" fill="#212529"/>
</svg>
