<svg width="113" height="21" viewBox="0 0 113 21" fill="none" xmlns="http://www.w3.org/2000/svg">
<rect x="0.5" y="0.365723" width="20.0265" height="20" fill="#00B67E"/>
<path d="M10.5133 2.58789L12.5275 7.59703L17.9202 7.9622L13.7723 11.4232L15.091 16.658L10.5133 13.7879L5.93558 16.658L7.25426 11.4232L3.1064 7.9622L8.4991 7.59703L10.5133 2.58789Z" fill="white"/>
<rect x="23.4933" y="0.365723" width="20.0265" height="20" fill="#00B67E"/>
<path d="M33.5066 2.58789L35.5208 7.59703L40.9135 7.9622L36.7656 11.4232L38.0843 16.658L33.5066 13.7879L28.9289 16.658L30.2475 11.4232L26.0997 7.9622L31.4924 7.59703L33.5066 2.58789Z" fill="white"/>
<rect x="46.4868" y="0.365723" width="20.0265" height="20" fill="#00B67E"/>
<path d="M56.5001 2.58789L58.5143 7.59703L63.907 7.9622L59.7592 11.4232L61.0778 16.658L56.5001 13.7879L51.9224 16.658L53.2411 11.4232L49.0932 7.9622L54.4859 7.59703L56.5001 2.58789Z" fill="white"/>
<rect x="69.4801" y="0.365723" width="20.0265" height="20" fill="#00B67E"/>
<path d="M79.4934 2.58789L81.5076 7.59703L86.9003 7.9622L82.7524 11.4232L84.0711 16.658L79.4934 13.7879L74.9157 16.658L76.2344 11.4232L72.0865 7.9622L77.4792 7.59703L79.4934 2.58789Z" fill="white"/>
<rect x="92.4735" y="0.365723" width="20.0265" height="20" fill="#00B67E"/>
<path d="M102.487 2.58789L104.501 7.59703L109.894 7.9622L105.746 11.4232L107.065 16.658L102.487 13.7879L97.9091 16.658L99.2278 11.4232L95.0799 7.9622L100.473 7.59703L102.487 2.58789Z" fill="white"/>
</svg>
