<svg width="68" height="68" viewBox="0 0 68 68" fill="none" xmlns="http://www.w3.org/2000/svg">
<g clip-path="url(#clip0_1667_301)">
<path d="M33.9995 67.0843C52.3456 67.0843 67.218 52.2118 67.218 33.8657C67.218 15.5197 52.3456 0.647217 33.9995 0.647217C15.6534 0.647217 0.781006 15.5197 0.781006 33.8657C0.781006 52.2118 15.6534 67.0843 33.9995 67.0843Z" fill="#EFAE16"/>
<path d="M23.4785 14.1764C23.7767 13.5034 24.5009 13.0859 25.2336 13.1455C30.9077 13.1541 36.5904 13.137 42.2645 13.1541C43.321 13.1285 43.977 14.1509 44.0707 15.0966C45.6213 15.0795 47.1804 15.088 48.731 15.088C49.4382 15.071 50.1538 15.4203 50.5543 16.0082C51.8663 17.8058 53.2124 19.5865 54.5245 21.3841C54.8652 21.8442 54.9504 22.4406 54.8652 22.9944C54.6097 24.8091 54.3541 26.6238 54.0814 28.4385C53.9962 29.3757 53.2209 30.185 52.2838 30.2873C51.4233 30.3214 50.5713 30.2788 49.7108 30.3128C49.2252 31.5908 47.8535 32.528 46.4733 32.2383C45.4594 32.085 44.7353 31.2245 44.403 30.3043C40.4924 30.3128 36.5904 30.2958 32.6798 30.3128C32.2538 31.7356 30.7373 32.8858 29.2293 32.4598C28.1814 32.2383 27.4828 31.2926 27.2187 30.2958C25.6595 30.2873 24.1004 30.3128 22.5328 30.2873C21.8086 30.2702 21.2122 29.6739 20.9992 29.0093C20.6925 28.2085 21.0248 27.3735 21.127 26.5727C18.6819 26.5642 16.2367 26.5812 13.7915 26.5642C13.3144 26.6493 12.9651 26.1041 13.1781 25.6951C13.3144 25.3629 13.7234 25.3543 14.0301 25.3543C17.2846 25.3629 20.5392 25.3458 23.7937 25.3629C24.4497 25.2606 24.7394 26.2489 24.143 26.5216C23.5552 26.6153 22.9588 26.5556 22.3709 26.5556C22.3113 27.3395 21.6467 28.5748 22.5669 29.069C24.1089 29.1371 25.651 29.069 27.2016 29.0945C27.5083 27.5695 28.9908 26.2489 30.601 26.5727C31.8278 26.7771 32.6628 27.9103 32.8161 29.0945C35.2017 29.086 37.5957 29.103 39.9812 29.086C40.4754 29.103 40.6543 28.5663 40.6884 28.1659C41.3785 23.9401 42.0941 19.7228 42.7928 15.5055C42.9546 15.0199 42.7076 14.2531 42.1027 14.3127C36.4881 14.3042 30.8651 14.3127 25.2506 14.3127C24.9268 14.2531 24.6372 14.4661 24.5349 14.7643C24.3816 15.3351 24.2964 15.923 24.1941 16.5108C25.3102 16.5279 26.4263 16.4597 27.5424 16.5449C28.0536 16.8005 27.9599 17.7462 27.3124 17.6866C23.5807 17.7292 19.8491 17.6866 16.1174 17.7036C15.8192 17.6695 15.3847 17.7803 15.1973 17.4651C14.8565 17.1157 15.2058 16.4512 15.6829 16.5108C18.111 16.4853 20.5477 16.5194 22.9758 16.4938C23.1207 15.7441 23.1718 14.9262 23.4785 14.1764ZM43.8748 16.3064C43.1676 20.5833 42.4775 24.8602 41.7278 29.1286C42.5798 29.1286 43.4403 29.1286 44.2922 29.1201C44.4797 28.1744 44.9483 27.2202 45.8088 26.726C46.8056 26.0785 48.2198 26.1978 49.0548 27.0583C49.6341 27.5865 49.8471 28.3618 49.9408 29.1201C50.648 29.1116 51.3636 29.1456 52.0708 29.103C52.5394 29.086 52.8716 28.66 52.8887 28.2085C53.1528 26.4108 53.4169 24.6046 53.664 22.8069C53.7492 22.4662 53.6043 22.1509 53.3999 21.8953C52.1474 20.234 50.9291 18.5471 49.6852 16.8772C49.4552 16.5705 49.157 16.2467 48.731 16.2978C47.1123 16.2893 45.4935 16.3064 43.8748 16.3064ZM46.4818 28.0381C45.5276 28.5663 45.4594 30.168 46.4903 30.6536C47.6405 31.2585 48.927 29.7591 48.3817 28.6685C48.1176 27.9273 47.1293 27.5695 46.4818 28.0381ZM29.4423 28.2425C28.437 28.7111 28.2921 30.2958 29.289 30.8581C30.3624 31.5397 31.7256 30.185 31.3167 29.069C31.1122 28.3022 30.1494 27.791 29.4423 28.2425Z" fill="#0C0B0B"/>
<path d="M44.1392 20.9752C44.2925 19.8251 44.4885 18.692 44.6929 17.5503C46.1583 17.5588 47.6237 17.5333 49.0891 17.5588C49.7366 18.7175 50.6738 19.7228 51.168 20.9667C48.825 20.9838 46.4821 20.9838 44.1392 20.9752Z" fill="#0C0B0B"/>
<path d="M20.9465 18.7175C21.2618 18.6067 21.594 18.6408 21.9263 18.6323C24.0733 18.6408 26.2203 18.6323 28.3758 18.6323C28.7336 18.6237 29.2703 18.6919 29.3044 19.152C29.4152 19.5779 28.9977 19.9443 28.5802 19.8761C26.2884 19.8932 23.9966 19.8761 21.7133 19.8847C21.3981 19.8591 20.9891 19.9443 20.7761 19.6376C20.5035 19.3735 20.6057 18.8708 20.9465 18.7175Z" fill="#0C0B0B"/>
<path d="M17.9997 20.9582C18.315 20.8474 18.6473 20.8815 18.9795 20.873C21.1265 20.8815 21.1009 20.873 23.2564 20.873C23.6143 20.8645 24.151 20.9326 24.1851 21.3927C24.2958 21.8187 23.8784 22.185 23.4609 22.1169C21.1691 22.1339 21.0583 22.1169 18.7665 22.1254C18.4513 22.0998 18.0423 22.185 17.8294 21.8783C17.5567 21.6142 17.659 21.103 17.9997 20.9582Z" fill="#0C0B0B"/>
<path d="M17.0191 23.3352C17.2491 23.0541 17.6666 23.1734 17.9733 23.1393C21.1597 23.1648 24.3461 23.1222 27.5325 23.1563C27.9414 23.1222 28.2226 23.7186 27.984 24.0339C27.8477 24.4002 27.4132 24.3065 27.115 24.332C23.9201 24.3235 20.7252 24.3406 17.5388 24.3235C16.9765 24.4684 16.6357 23.7016 17.0191 23.3352Z" fill="#0C0B0B"/>
<path d="M27.3194 34.9138V35.9277H24.116V38.1598H26.6208V39.1737H24.116V42.4794H22.8721V34.9138H27.3194Z" fill="#0C0B0B"/>
<path d="M32.4056 42.4794L30.6676 39.4548H29.7219V42.4794H28.478V34.9138H31.0936C31.6729 34.9138 32.1671 35.0161 32.5675 35.2205C32.9679 35.425 33.2746 35.6976 33.4706 36.0384C33.6666 36.3792 33.7688 36.7626 33.7688 37.1801C33.7688 37.6742 33.624 38.1172 33.3428 38.5262C33.0531 38.9266 32.6186 39.1993 32.0222 39.3441L33.8966 42.4794H32.4056ZM29.7134 38.458H31.0851C31.5451 38.458 31.903 38.3388 32.133 38.1087C32.3716 37.8787 32.4908 37.5635 32.4908 37.1716C32.4908 36.7796 32.3716 36.4729 32.1415 36.2514C31.9115 36.0299 31.5537 35.9191 31.0851 35.9191H29.7134V38.458Z" fill="#0C0B0B"/>
<path d="M36.5989 35.9191V38.1428H39.2145V39.1481H36.5989V41.4655H39.5382V42.4793H35.3635V34.9053H39.5382V35.9191H36.5989Z" fill="#0C0B0B"/>
<path d="M42.2986 35.9191V38.1428H44.9142V39.1481H42.2986V41.4655H45.2379V42.4793H41.0632V34.9053H45.2379V35.9191H42.2986Z" fill="#0C0B0B"/>
<path d="M10.3735 51.8937C9.93052 51.7147 9.58121 51.4421 9.30858 51.0843C9.04447 50.7265 8.90815 50.3005 8.89111 49.7978H10.8677C10.8933 50.079 10.9955 50.3005 11.1574 50.4453C11.3278 50.5901 11.5408 50.6668 11.8134 50.6668C12.086 50.6668 12.3075 50.6072 12.4694 50.4794C12.6313 50.3516 12.708 50.1727 12.708 49.9512C12.708 49.7637 12.6483 49.6104 12.5205 49.4826C12.3927 49.3633 12.2394 49.2611 12.0519 49.1759C11.8645 49.0992 11.6004 49.0055 11.2596 48.9032C10.7655 48.7499 10.365 48.5965 10.0498 48.4432C9.73457 48.2898 9.47046 48.0683 9.24042 47.7701C9.01891 47.4719 8.89963 47.0885 8.89963 46.6029C8.89963 45.8958 9.15523 45.3335 9.67493 44.933C10.1861 44.5326 10.8592 44.3281 11.6856 44.3281C12.529 44.3281 13.2021 44.5326 13.7218 44.933C14.233 45.3335 14.5142 45.8958 14.5482 46.6114H12.5376C12.5205 46.3643 12.4353 46.1684 12.2649 46.0321C12.0945 45.8872 11.8815 45.8191 11.626 45.8191C11.4044 45.8191 11.217 45.8787 11.0807 45.998C10.9444 46.1173 10.8762 46.2877 10.8762 46.5177C10.8762 46.7648 10.9955 46.9607 11.2255 47.097C11.4556 47.2334 11.8219 47.3867 12.3161 47.5401C12.8102 47.7105 13.2106 47.8638 13.5173 48.0172C13.8241 48.1705 14.0882 48.3921 14.3182 48.6817C14.5397 48.9714 14.659 49.3463 14.659 49.8063C14.659 50.2408 14.5482 50.6413 14.3267 50.9906C14.1052 51.3484 13.7815 51.6296 13.364 51.8425C12.9465 52.0555 12.4439 52.1578 11.873 52.1578C11.3192 52.1663 10.8166 52.0811 10.3735 51.8937Z" fill="#0C0B0B"/>
<path d="M22.4202 44.456V52.0982H20.5629V48.9459H17.6661V52.0897H15.8088V44.4475H17.6661V47.4379H20.5629V44.4475H22.4202V44.456Z" fill="#0C0B0B"/>
<path d="M25.6146 44.4559V52.0982H23.7573V44.4559H25.6146Z" fill="#0C0B0B"/>
<path d="M32.4813 48.1279C32.2768 48.4943 31.9701 48.7925 31.5441 49.014C31.1266 49.2355 30.5984 49.3548 29.9765 49.3548H28.8263V52.0982H26.969V44.4559H29.985C30.5984 44.4559 31.1096 44.5582 31.5271 44.7712C31.9445 44.9842 32.2598 45.2738 32.4728 45.6402C32.6858 46.0065 32.788 46.4325 32.788 46.9096C32.788 47.3526 32.6858 47.7616 32.4813 48.1279ZM30.6325 47.6168C30.8029 47.4464 30.8966 47.2163 30.8966 46.9096C30.8966 46.6029 30.8114 46.3729 30.6325 46.2025C30.4621 46.0321 30.1895 45.9554 29.8402 45.9554H28.8263V47.8724H29.8402C30.198 47.8724 30.4621 47.7872 30.6325 47.6168Z" fill="#0C0B0B"/>
<path d="M39.2815 48.1279C39.0771 48.4943 38.7704 48.7925 38.3444 49.014C37.9269 49.2355 37.3987 49.3548 36.7767 49.3548H35.618V52.0982H33.7607V44.4559H36.7767C37.3902 44.4559 37.9013 44.5582 38.3188 44.7712C38.7363 44.9842 39.0515 45.2738 39.2645 45.6402C39.4775 46.0065 39.5797 46.4325 39.5797 46.9096C39.5797 47.3526 39.4775 47.7616 39.2815 48.1279ZM37.4242 47.6168C37.5946 47.4464 37.6883 47.2163 37.6883 46.9096C37.6883 46.6029 37.6032 46.3729 37.4242 46.2025C37.2538 46.0321 36.9812 45.9554 36.6319 45.9554H35.618V47.8724H36.6319C36.9897 47.8724 37.2538 47.7872 37.4242 47.6168Z" fill="#0C0B0B"/>
<path d="M42.4066 44.4559V52.0982H40.5493V44.4559H42.4066Z" fill="#0C0B0B"/>
<path d="M50.5953 52.0896H48.738L45.6283 47.3782V52.0896H43.771V44.4474H45.6283L48.738 49.1844V44.4474H50.5953V52.0896Z" fill="#0C0B0B"/>
<path d="M57.0185 46.867C56.8822 46.6114 56.6862 46.4155 56.4221 46.2877C56.1665 46.1514 55.8598 46.0832 55.5105 46.0832C54.9056 46.0832 54.4285 46.2792 54.0621 46.6796C53.6958 47.0715 53.5169 47.5997 53.5169 48.2643C53.5169 48.9714 53.7043 49.5167 54.0877 49.9171C54.4711 50.309 54.9908 50.5135 55.6638 50.5135C56.1239 50.5135 56.5073 50.3942 56.8225 50.1642C57.1378 49.9341 57.3678 49.6019 57.5126 49.1588H55.1527V47.7872H59.1995V49.5167C59.0632 49.9852 58.8247 50.4112 58.5009 50.8117C58.1687 51.2121 57.7512 51.5358 57.24 51.7829C56.7288 52.03 56.158 52.1493 55.519 52.1493C54.7608 52.1493 54.0877 51.9874 53.4998 51.6551C52.912 51.3228 52.4519 50.8628 52.1196 50.2749C51.7874 49.6871 51.6255 49.014 51.6255 48.2643C51.6255 47.506 51.7874 46.8329 52.1196 46.2451C52.4519 45.6572 52.912 45.1971 53.4998 44.8649C54.0877 44.5326 54.7608 44.3707 55.5105 44.3707C56.4221 44.3707 57.1974 44.5922 57.8193 45.0353C58.4498 45.4783 58.8588 46.0917 59.0632 46.8755H57.0185V46.867Z" fill="#0C0B0B"/>
<rect x="7" y="31.3657" width="9" height="7" fill="#EFAE16"/>
</g>
<defs>
<clipPath id="clip0_1667_301">
<rect width="67" height="67" fill="white" transform="translate(0.5 0.365723)"/>
</clipPath>
</defs>
</svg>
