<svg width="42" height="54" viewBox="0 0 42 54" fill="none" xmlns="http://www.w3.org/2000/svg">
<path d="M22.582 27.1055C22.582 27.9799 23.2896 28.6875 24.1641 28.6875H36.8203C37.6948 28.6875 38.4023 27.9799 38.4023 27.1055V11.0742C38.4023 10.1998 37.6948 9.49219 36.8203 9.49219H24.1641C23.2896 9.49219 22.582 10.1998 22.582 11.0742V27.1055Z" fill="#FF3C7F"/>
<path d="M35.2383 6.32812V3.16406H36.8203C37.6948 3.16406 38.4023 2.45647 38.4023 1.58203C38.4023 0.70759 37.6948 0 36.8203 0H24.1641C23.2896 0 22.582 0.70759 22.582 1.58203C22.582 2.45647 23.2896 3.16406 24.1641 3.16406H25.7461V6.32812H35.2383Z" fill="#FCBC4D"/>
<path d="M27.3281 35.0156H33.6562C34.5307 35.0156 35.2383 34.308 35.2383 33.4336V31.8516H25.7461V33.4336C25.7461 34.308 26.4537 35.0156 27.3281 35.0156Z" fill="#FF3C7F"/>
<path d="M16.7909 22.2539H19.4179V15.9258H16.9338C8.67095 15.9258 1.29236 22.072 0.507879 30.2976C-0.392085 39.7331 7.0038 47.6719 16.2538 47.6719H17.8359V50.8359H8.34368C7.46924 50.8359 6.76165 51.5435 6.76165 52.418C6.76165 53.2924 7.46924 54 8.34368 54H33.6562C34.5306 54 35.2382 53.2924 35.2382 52.418C35.2382 51.5435 34.5306 50.8359 33.6562 50.8359H24.164V47.6719H31.0963C31.6956 47.6719 32.2434 47.3333 32.5113 46.7974L33.6562 44.5078H39.9843C40.858 44.5078 41.5663 43.7995 41.5663 42.9258C41.5663 42.0521 40.858 41.3438 39.9843 41.3438C33.5756 41.3438 19.8553 41.3438 16.2538 41.3438C10.8422 41.3438 6.48838 36.8153 6.77494 31.3412C7.04378 26.2082 11.651 22.2539 16.7909 22.2539V22.2539Z" fill="#FCBC4D"/>
</svg>
