<svg width="375" height="50" viewBox="0 0 375 50" fill="none" xmlns="http://www.w3.org/2000/svg">
<path d="M0.5 50H375.5V1.03093L363.985 0.515468L353.471 3.8147e-06H342.456L329.939 0.515468L319.926 1.03093L310.413 1.5464L303.905 2.06186L299.899 2.57732L294.893 3.09279L285.881 4.12371L277.87 5.15464L269.859 6.18557L261.848 7.2165L253.838 8.24743L246.828 9.27835L239.819 10.3093L233.811 11.3402L226.802 12.3711L219.792 13.4021L212.783 14.433L205.774 15.4639L198.764 16.4948L190.754 17.5258L182.743 18.5567L174.732 19.5876L166.722 20.6186L156.208 21.6495L145.694 22.6804L133.678 23.7113L119.659 24.7423L101.635 25.7732L88.6175 26.2887L63.5841 26.8041H39.5521L21.528 26.2887L6.50801 25.7732L0.5 25.5V50Z" fill="#F1F3F4"/>
</svg>
