<svg width="375" height="50" viewBox="0 0 375 50" fill="none" xmlns="http://www.w3.org/2000/svg">
<path d="M0 50H375V1.03093L363.485 0.515464L352.971 0H341.956L329.439 0.515464L319.426 1.03093L309.913 1.54639L303.405 2.06186L299.399 2.57732L294.393 3.09278L285.381 4.12371L277.37 5.15464L269.359 6.18557L261.348 7.2165L253.338 8.24742L246.328 9.27835L239.319 10.3093L233.311 11.3402L226.302 12.3711L219.292 13.4021L212.283 14.433L205.274 15.4639L198.264 16.4948L190.254 17.5258L182.243 18.5567L174.232 19.5876L166.222 20.6186L155.708 21.6495L145.194 22.6804L133.178 23.7113L119.159 24.7423L101.135 25.7732L88.1175 26.2887L63.0841 26.8041H39.0521L21.028 26.2887L6.00801 25.7732L0 25.5V50Z" fill="#F1F3F4"/>
</svg>
