<svg width="60" height="60" viewBox="0 0 60 60" fill="none" xmlns="http://www.w3.org/2000/svg">
<path d="M29.3787 13.2422H21.8787C21.3815 13.2422 20.9046 13.4324 20.5529 13.7711C20.2013 14.1097 20.0037 14.569 20.0037 15.048V21.9316C18.2955 22.881 16.8766 24.2463 15.8893 25.8907C14.902 27.535 14.3811 29.4005 14.3788 31.2999V33.084L14.375 33.1057L14.3788 33.2357V47.5519C14.3788 48.0308 14.5763 48.4901 14.9279 48.8288C15.2796 49.1674 15.7565 49.3577 16.2537 49.3577H35.0037C35.501 49.3577 35.9779 49.1674 36.3296 48.8288C36.6812 48.4901 36.8787 48.0308 36.8787 47.5519V31.2999C36.8763 29.4005 36.3552 27.5351 35.368 25.8908C34.3807 24.2465 32.9619 22.8811 31.2537 21.9316V15.048C31.2537 14.569 31.0562 14.1097 30.7046 13.7711C30.3529 13.4324 29.876 13.2422 29.3787 13.2422ZM23.7537 20.4653V16.8537H27.5037V20.4653H23.7537ZM33.1306 45.7461H18.1306V34.9115H33.1306V45.7461ZM18.1287 31.2999C18.1287 27.3164 21.4925 24.0768 25.6287 24.0768C29.765 24.0768 33.1287 27.3164 33.1287 31.2999H18.1287ZM33.1306 15.048H36.8806V18.6595H33.1306V15.048ZM38.75 15.048H42.5V18.6595H38.75V15.048ZM38.75 20.4653H42.5V24.0768H38.75V20.4653ZM44.375 15.048H48.125V18.6595H44.375V15.048ZM44.375 20.4653H48.125V24.0768H44.375V20.4653ZM44.375 25.8826H48.125V29.4942H44.375V25.8826Z" fill="black"/>
<path d="M30 0C13.433 0 0 13.433 0 30C0 46.567 13.433 60 30 60C46.567 60 60 46.567 60 30C60 13.433 46.567 0 30 0ZM30 54.9107C16.2455 54.9107 5.08929 43.7545 5.08929 30C5.08929 24.0402 7.18527 18.5625 10.6808 14.2768L45.7232 49.3192C41.4375 52.8147 35.9598 54.9107 30 54.9107ZM49.3192 45.7232L14.2768 10.6808C18.5625 7.18527 24.0402 5.08929 30 5.08929C43.7545 5.08929 54.9107 16.2455 54.9107 30C54.9107 35.9598 52.8147 41.4375 49.3192 45.7232Z" fill="#EC4F7F"/>
</svg>
