<svg width="54" height="63" viewBox="0 0 54 63" fill="none" xmlns="http://www.w3.org/2000/svg">
<path d="M1.05703 61H4.05703V60.05H2.05703V57.91H3.79703V57.01H2.05703V54.95H4.02703V54H1.05703V61ZM7.31234 55.94H8.31234V55.71C8.31234 54.55 7.64234 53.9 6.64234 53.9C6.18234 53.9 5.76234 54.01 5.43234 54.33C5.14234 54.61 4.91234 55.05 4.91234 55.63V55.83C4.91234 56.18 4.92234 56.53 5.06234 56.85C5.26234 57.32 5.62234 57.5 5.98234 57.63L6.71234 57.89C6.82234 57.93 7.06234 58.02 7.19234 58.2C7.32234 58.38 7.35234 58.68 7.35234 58.92V59.18C7.35234 59.39 7.34234 59.68 7.19234 59.87C7.11234 59.97 6.94234 60.12 6.56234 60.12C6.43234 60.12 6.18234 60.1 6.01234 59.89C5.87234 59.71 5.85234 59.43 5.85234 59.27V59.08H4.85234V59.31C4.85234 59.4 4.85234 60.06 5.17234 60.49C5.40234 60.81 5.86234 61.1 6.57234 61.1C7.15234 61.1 7.61234 60.91 7.87234 60.64C8.16234 60.34 8.35234 59.8 8.35234 59.09V58.85C8.35234 58.41 8.32234 58.01 8.05234 57.64C7.79234 57.28 7.44234 57.15 7.14234 57.04L6.53234 56.82C6.38234 56.76 6.18234 56.68 6.07234 56.51C5.94234 56.32 5.91234 55.97 5.91234 55.78C5.91234 55.55 5.93234 55.27 6.12234 55.07C6.28234 54.91 6.47234 54.88 6.61234 54.88C6.90234 54.88 7.05234 55 7.14234 55.11C7.30234 55.31 7.31234 55.6 7.31234 55.75V55.94ZM11.7166 55.94H12.7166V55.71C12.7166 54.55 12.0466 53.9 11.0466 53.9C10.5866 53.9 10.1666 54.01 9.83664 54.33C9.54664 54.61 9.31664 55.05 9.31664 55.63V55.83C9.31664 56.18 9.32664 56.53 9.46664 56.85C9.66664 57.32 10.0266 57.5 10.3866 57.63L11.1166 57.89C11.2266 57.93 11.4666 58.02 11.5966 58.2C11.7266 58.38 11.7566 58.68 11.7566 58.92V59.18C11.7566 59.39 11.7466 59.68 11.5966 59.87C11.5166 59.97 11.3466 60.12 10.9666 60.12C10.8366 60.12 10.5866 60.1 10.4166 59.89C10.2766 59.71 10.2566 59.43 10.2566 59.27V59.08H9.25664V59.31C9.25664 59.4 9.25664 60.06 9.57664 60.49C9.80664 60.81 10.2666 61.1 10.9766 61.1C11.5566 61.1 12.0166 60.91 12.2766 60.64C12.5666 60.34 12.7566 59.8 12.7566 59.09V58.85C12.7566 58.41 12.7266 58.01 12.4566 57.64C12.1966 57.28 11.8466 57.15 11.5466 57.04L10.9366 56.82C10.7866 56.76 10.5866 56.68 10.4766 56.51C10.3466 56.32 10.3166 55.97 10.3166 55.78C10.3166 55.55 10.3366 55.27 10.5266 55.07C10.6866 54.91 10.8766 54.88 11.0166 54.88C11.3066 54.88 11.4566 55 11.5466 55.11C11.7066 55.31 11.7166 55.6 11.7166 55.75V55.94ZM13.8109 61H16.8109V60.05H14.8109V57.91H16.5509V57.01H14.8109V54.95H16.7809V54H13.8109V61ZM17.7563 54V61H18.7563V56.6L20.4263 61H21.4263V54H20.4263V58.4L18.7563 54H17.7563ZM22.2293 54V54.95H23.4693V61H24.4693V54.95H25.7093V54H22.2293ZM26.5063 54V61H27.5063V54H26.5063ZM32.1435 61L30.6135 54H29.7335L28.2035 61H29.2035L29.5335 59.5H30.8135L31.1435 61H32.1435ZM30.6935 58.61H29.6335L30.1535 55.95L30.6935 58.61ZM32.9906 54V61H36.1106V60.05H33.9906V54H32.9906ZM39.3569 59.16C39.3569 59.69 39.3969 60.2 39.8769 60.65C40.1769 60.93 40.5869 61.1 41.1069 61.1C41.6269 61.1 42.0369 60.93 42.3369 60.65C42.8169 60.2 42.8569 59.69 42.8569 59.16V55.84C42.8569 55.31 42.8169 54.8 42.3369 54.35C42.0369 54.07 41.6269 53.9 41.1069 53.9C40.5869 53.9 40.1769 54.07 39.8769 54.35C39.3969 54.8 39.3569 55.31 39.3569 55.84V59.16ZM41.8569 59.31C41.8569 59.52 41.8369 59.73 41.6469 59.92C41.5369 60.03 41.3569 60.12 41.1069 60.12C40.8569 60.12 40.6769 60.03 40.5669 59.92C40.3769 59.73 40.3569 59.52 40.3569 59.31V55.69C40.3569 55.48 40.3769 55.27 40.5669 55.08C40.6769 54.97 40.8569 54.88 41.1069 54.88C41.3569 54.88 41.5369 54.97 41.6469 55.08C41.8369 55.27 41.8569 55.48 41.8569 55.69V59.31ZM44.016 54V61H45.016V54H44.016ZM46.2133 54V61H49.3333V60.05H47.2133V54H46.2133ZM52.0487 55.94H53.0487V55.71C53.0487 54.55 52.3787 53.9 51.3787 53.9C50.9187 53.9 50.4987 54.01 50.1687 54.33C49.8787 54.61 49.6487 55.05 49.6487 55.63V55.83C49.6487 56.18 49.6587 56.53 49.7987 56.85C49.9987 57.32 50.3587 57.5 50.7187 57.63L51.4487 57.89C51.5587 57.93 51.7987 58.02 51.9287 58.2C52.0587 58.38 52.0887 58.68 52.0887 58.92V59.18C52.0887 59.39 52.0787 59.68 51.9287 59.87C51.8487 59.97 51.6787 60.12 51.2987 60.12C51.1687 60.12 50.9187 60.1 50.7487 59.89C50.6087 59.71 50.5887 59.43 50.5887 59.27V59.08H49.5887V59.31C49.5887 59.4 49.5887 60.06 49.9087 60.49C50.1387 60.81 50.5987 61.1 51.3087 61.1C51.8887 61.1 52.3487 60.91 52.6087 60.64C52.8987 60.34 53.0887 59.8 53.0887 59.09V58.85C53.0887 58.41 53.0587 58.01 52.7887 57.64C52.5287 57.28 52.1787 57.15 51.8787 57.04L51.2687 56.82C51.1187 56.76 50.9187 56.68 50.8087 56.51C50.6787 56.32 50.6487 55.97 50.6487 55.78C50.6487 55.55 50.6687 55.27 50.8587 55.07C51.0187 54.91 51.2087 54.88 51.3487 54.88C51.6387 54.88 51.7887 55 51.8787 55.11C52.0387 55.31 52.0487 55.6 52.0487 55.75V55.94Z" fill="#515151"/>
<path d="M26.3861 21.7641C26.3288 21.7069 26.2608 21.6614 26.186 21.6304C26.1112 21.5994 26.031 21.5835 25.95 21.5835C25.869 21.5835 25.7889 21.5994 25.714 21.6304C25.6392 21.6614 25.5712 21.7069 25.514 21.7641C25.4059 21.8723 22.8667 24.4424 22.8667 27.1335C22.8667 28.3734 23.4258 29.3359 24.4409 29.8434C24.9113 30.0747 25.426 30.2021 25.95 30.2169C26.474 30.2021 26.9887 30.0747 27.4592 29.8434C28.4743 29.3359 29.0334 28.3734 29.0334 27.1335C29.0334 24.4424 26.4942 21.8723 26.3861 21.7641ZM26.9389 28.7243C26.6319 28.878 26.2963 28.9663 25.9534 28.9835C25.6082 28.9674 25.2702 28.8791 24.9611 28.7243C24.3817 28.4214 24.1 27.901 24.1 27.1335C24.1 25.5572 25.2863 23.9181 25.95 23.1244C26.6137 23.9184 27.8 25.5572 27.8 27.1335C27.8 27.901 27.5184 28.4214 26.9389 28.7243Z" fill="#56585A"/>
<path d="M19.1667 16.65V25.359C18.2475 24.9017 17.2345 24.6646 16.2079 24.6667H13.6167C13.4531 24.6667 13.2963 24.7316 13.1806 24.8473C13.065 24.9629 13 25.1198 13 25.2833V30.3412C13.002 32.1066 13.7042 33.7992 14.9525 35.0475C16.2008 36.2958 17.8934 36.998 19.6588 37H32.2412C34.0066 36.998 35.6992 36.2958 36.9475 35.0475C38.1958 33.7992 38.898 32.1066 38.9 30.3412V25.2833C38.9 25.1198 38.835 24.9629 38.7194 24.8473C38.6037 24.7316 38.4469 24.6667 38.2833 24.6667H35.6921C34.6655 24.6646 33.6525 24.9016 32.7333 25.3589V16.65C32.7324 15.8325 32.4073 15.0488 31.8292 14.4708C31.2512 13.8927 30.4675 13.5676 29.65 13.5667V12.3333C30.0863 12.3332 30.5085 12.1788 30.842 11.8975C31.1755 11.6163 31.3988 11.2262 31.4726 10.7962C31.5464 10.3662 31.4658 9.92397 31.2452 9.54762C31.0245 9.17126 30.6779 8.885 30.2667 8.7394V5.55C30.2661 5.05952 30.071 4.58928 29.7242 4.24246C29.3774 3.89564 28.9071 3.70055 28.4167 3.7V2.46667C28.4167 1.81247 28.1568 1.18506 27.6942 0.72247C27.2316 0.25988 26.6042 0 25.95 0C25.2958 0 24.6684 0.25988 24.2058 0.72247C23.7432 1.18506 23.4833 1.81247 23.4833 2.46667V3.7C22.9929 3.70055 22.5226 3.89564 22.1758 4.24246C21.829 4.58928 21.6339 5.05952 21.6333 5.55V8.7394C21.2221 8.885 20.8755 9.17126 20.6548 9.54762C20.4342 9.92397 20.3536 10.3662 20.4274 10.7962C20.5012 11.2262 20.7245 11.6163 21.058 11.8975C21.3915 12.1788 21.8137 12.3332 22.25 12.3333V13.5667C21.4325 13.5676 20.6488 13.8927 20.0708 14.4708C19.4927 15.0488 19.1676 15.8325 19.1667 16.65ZM20.4 32.0667V19.7333H31.5V32.0667H20.4ZM14.2333 30.3412V25.9H16.2079C17.2588 25.8974 18.2873 26.2027 19.1667 26.7781V30.8463L17.2071 28.0156C17.114 27.8812 16.9712 27.7892 16.8103 27.7599C16.6494 27.7306 16.4834 27.7665 16.349 27.8596C16.2145 27.9527 16.1225 28.0954 16.0932 28.2563C16.064 28.4173 16.0998 28.5832 16.193 28.7177L19.1667 33.013V33.9167C19.166 34.5842 19.3831 35.2337 19.785 35.7667H19.6588C18.2204 35.765 16.8413 35.1929 15.8242 34.1758C14.8071 33.1587 14.235 31.7796 14.2333 30.3412ZM22.25 35.7667C21.7595 35.7661 21.2893 35.571 20.9425 35.2242C20.5956 34.8774 20.4006 34.4071 20.4 33.9167V33.3H31.5V33.9167C31.4994 34.4071 31.3044 34.8774 30.9575 35.2242C30.6107 35.571 30.1405 35.7661 29.65 35.7667H22.25ZM35.6921 25.9H37.6667V30.3412C37.665 31.7796 37.0929 33.1587 36.0758 34.1758C35.0587 35.1929 33.6796 35.765 32.2412 35.7667H32.115C32.5169 35.2337 32.734 34.5842 32.7333 33.9167V33.013L35.7071 28.7177C35.8002 28.5832 35.836 28.4173 35.8068 28.2563C35.7775 28.0954 35.6855 27.9527 35.551 27.8596C35.4844 27.8135 35.4094 27.781 35.3303 27.7639C35.2511 27.7468 35.1694 27.7454 35.0897 27.7599C34.9288 27.7892 34.786 27.8812 34.6929 28.0156L32.7333 30.8462V26.7781C33.6127 26.2027 34.6413 25.8974 35.6921 25.9ZM31.5 16.65V18.5H20.4V16.65C20.4006 16.1595 20.5956 15.6893 20.9425 15.3425C21.2893 14.9956 21.7595 14.8006 22.25 14.8H29.65C30.1405 14.8006 30.6107 14.9956 30.9575 15.3425C31.3044 15.6893 31.4994 16.1595 31.5 16.65ZM24.7167 2.46667C24.7167 2.13957 24.8466 1.82586 25.0779 1.59457C25.3092 1.36327 25.6229 1.23333 25.95 1.23333C26.2771 1.23333 26.5908 1.36327 26.8221 1.59457C27.0534 1.82586 27.1833 2.13957 27.1833 2.46667V3.7H24.7167V2.46667ZM23.4833 4.93333H28.4167C28.5802 4.93352 28.7369 4.99855 28.8525 5.11415C28.9681 5.22976 29.0331 5.38651 29.0333 5.55V8.63333H27.8V7.4C27.8 7.23645 27.735 7.0796 27.6194 6.96395C27.5037 6.8483 27.3469 6.78333 27.1833 6.78333C27.0198 6.78333 26.8629 6.8483 26.7473 6.96395C26.6316 7.0796 26.5667 7.23645 26.5667 7.4V8.63333H25.3333V7.4C25.3333 7.23645 25.2684 7.0796 25.1527 6.96395C25.0371 6.8483 24.8802 6.78333 24.7167 6.78333C24.5531 6.78333 24.3963 6.8483 24.2806 6.96395C24.165 7.0796 24.1 7.23645 24.1 7.4V8.63333H22.8667V5.55C22.8669 5.38651 22.9319 5.22976 23.0475 5.11415C23.1631 4.99855 23.3198 4.93352 23.4833 4.93333ZM21.6333 10.4833C21.6335 10.3198 21.6985 10.1631 21.8142 10.0475C21.9298 9.93188 22.0865 9.86685 22.25 9.86667H29.65C29.8136 9.86667 29.9704 9.93164 30.086 10.0473C30.2017 10.1629 30.2667 10.3198 30.2667 10.4833C30.2667 10.6469 30.2017 10.8037 30.086 10.9194C29.9704 11.035 29.8136 11.1 29.65 11.1H22.25C22.0865 11.0998 21.9298 11.0348 21.8142 10.9192C21.6985 10.8036 21.6335 10.6468 21.6333 10.4833ZM23.4833 12.3333H28.4167V13.5667H23.4833V12.3333Z" fill="#56585A"/>
</svg>
