<svg width="141" height="45" viewBox="0 0 141 45" fill="none" xmlns="http://www.w3.org/2000/svg">
<path d="M13.6016 17.625V20.2734H1.30859L1.14453 18.2227L8.25781 6.9375H10.9414L8.03516 11.8008L4.49609 17.625H13.6016ZM11.668 6.9375V24H8.29297V6.9375H11.668ZM15.7344 22.3711C15.7344 21.8711 15.9062 21.4531 16.25 21.1172C16.6016 20.7812 17.0664 20.6133 17.6445 20.6133C18.2227 20.6133 18.6836 20.7812 19.0273 21.1172C19.3789 21.4531 19.5547 21.8711 19.5547 22.3711C19.5547 22.8711 19.3789 23.2891 19.0273 23.625C18.6836 23.9609 18.2227 24.1289 17.6445 24.1289C17.0664 24.1289 16.6016 23.9609 16.25 23.625C15.9062 23.2891 15.7344 22.8711 15.7344 22.3711ZM33.9805 6.9375V8.75391L27.3828 24H23.8203L30.418 9.57422H21.9219V6.9375H33.9805Z" fill="black"/>
<path d="M53 8L55.116 13.0875L60.6085 13.5279L56.4238 17.1125L57.7023 22.4721L53 19.6L48.2977 22.4721L49.5762 17.1125L45.3915 13.5279L50.884 13.0875L53 8Z" fill="#F0AD00"/>
<path d="M73 8L75.116 13.0875L80.6085 13.5279L76.4238 17.1125L77.7023 22.4721L73 19.6L68.2977 22.4721L69.5762 17.1125L65.3915 13.5279L70.884 13.0875L73 8Z" fill="#F0AD00"/>
<path d="M93 8L95.116 13.0875L100.608 13.5279L96.4238 17.1125L97.7023 22.4721L93 19.6L88.2977 22.4721L89.5762 17.1125L85.3915 13.5279L90.884 13.0875L93 8Z" fill="#F0AD00"/>
<path d="M113 8L115.116 13.0875L120.608 13.5279L116.424 17.1125L117.702 22.4721L113 19.6L108.298 22.4721L109.576 17.1125L105.392 13.5279L110.884 13.0875L113 8Z" fill="#F0AD00"/>
<path d="M133 8L135.116 13.0875L140.608 13.5279L136.424 17.1125L137.702 22.4721L133 19.6L128.298 22.4721L129.576 17.1125L125.392 13.5279L130.884 13.0875L133 8Z" fill="#F0AD00"/>
<path d="M31.793 37.0098H29.6309L29.6191 36.1016H31.582C31.9062 36.1016 32.1895 36.0469 32.4316 35.9375C32.6738 35.8281 32.8613 35.6719 32.9941 35.4688C33.1309 35.2617 33.1992 35.0156 33.1992 34.7305C33.1992 34.418 33.1387 34.1641 33.0176 33.9688C32.9004 33.7695 32.7188 33.625 32.4727 33.5352C32.2305 33.4414 31.9219 33.3945 31.5469 33.3945H29.8828V41H28.752V32.4688H31.5469C31.9844 32.4688 32.375 32.5137 32.7188 32.6035C33.0625 32.6895 33.3535 32.8262 33.5918 33.0137C33.834 33.1973 34.0176 33.4316 34.1426 33.7168C34.2676 34.002 34.3301 34.3438 34.3301 34.7422C34.3301 35.0938 34.2402 35.4121 34.0605 35.6973C33.8809 35.9785 33.6309 36.209 33.3105 36.3887C32.9941 36.5684 32.623 36.6836 32.1973 36.7344L31.793 37.0098ZM31.7402 41H29.1855L29.8242 40.0801H31.7402C32.0996 40.0801 32.4043 40.0176 32.6543 39.8926C32.9082 39.7676 33.1016 39.5918 33.2344 39.3652C33.3672 39.1348 33.4336 38.8633 33.4336 38.5508C33.4336 38.2344 33.377 37.9609 33.2637 37.7305C33.1504 37.5 32.9727 37.3223 32.7305 37.1973C32.4883 37.0723 32.1758 37.0098 31.793 37.0098H30.1816L30.1934 36.1016H32.3965L32.6367 36.4297C33.0469 36.4648 33.3945 36.582 33.6797 36.7812C33.9648 36.9766 34.1816 37.2266 34.3301 37.5312C34.4824 37.8359 34.5586 38.1719 34.5586 38.5391C34.5586 39.0703 34.4414 39.5195 34.207 39.8867C33.9766 40.25 33.6504 40.5273 33.2285 40.7188C32.8066 40.9062 32.3105 41 31.7402 41ZM39.8027 39.916V36.6523C39.8027 36.4023 39.752 36.1855 39.6504 36.002C39.5527 35.8145 39.4043 35.6699 39.2051 35.5684C39.0059 35.4668 38.7598 35.416 38.4668 35.416C38.1934 35.416 37.9531 35.4629 37.7461 35.5566C37.543 35.6504 37.3828 35.7734 37.2656 35.9258C37.1523 36.0781 37.0957 36.2422 37.0957 36.418H36.0117C36.0117 36.1914 36.0703 35.9668 36.1875 35.7441C36.3047 35.5215 36.4727 35.3203 36.6914 35.1406C36.9141 34.957 37.1797 34.8125 37.4883 34.707C37.8008 34.5977 38.1484 34.543 38.5312 34.543C38.9922 34.543 39.3984 34.6211 39.75 34.7773C40.1055 34.9336 40.3828 35.1699 40.582 35.4863C40.7852 35.7988 40.8867 36.1914 40.8867 36.6641V39.6172C40.8867 39.8281 40.9043 40.0527 40.9395 40.291C40.9785 40.5293 41.0352 40.7344 41.1094 40.9062V41H39.9785C39.9238 40.875 39.8809 40.709 39.8496 40.502C39.8184 40.291 39.8027 40.0957 39.8027 39.916ZM39.9902 37.1562L40.002 37.918H38.9062C38.5977 37.918 38.3223 37.9434 38.0801 37.9941C37.8379 38.041 37.6348 38.1133 37.4707 38.2109C37.3066 38.3086 37.1816 38.4316 37.0957 38.5801C37.0098 38.7246 36.9668 38.8945 36.9668 39.0898C36.9668 39.2891 37.0117 39.4707 37.1016 39.6348C37.1914 39.7988 37.3262 39.9297 37.5059 40.0273C37.6895 40.1211 37.9141 40.168 38.1797 40.168C38.5117 40.168 38.8047 40.0977 39.0586 39.957C39.3125 39.8164 39.5137 39.6445 39.6621 39.4414C39.8145 39.2383 39.8965 39.041 39.9082 38.8496L40.3711 39.3711C40.3438 39.5352 40.2695 39.7168 40.1484 39.916C40.0273 40.1152 39.8652 40.3066 39.6621 40.4902C39.4629 40.6699 39.2246 40.8203 38.9473 40.9414C38.6738 41.0586 38.3652 41.1172 38.0215 41.1172C37.5918 41.1172 37.2148 41.0332 36.8906 40.8652C36.5703 40.6973 36.3203 40.4727 36.1406 40.1914C35.9648 39.9062 35.877 39.5879 35.877 39.2363C35.877 38.8965 35.9434 38.5977 36.0762 38.3398C36.209 38.0781 36.4004 37.8613 36.6504 37.6895C36.9004 37.5137 37.2012 37.3809 37.5527 37.291C37.9043 37.2012 38.2969 37.1562 38.7305 37.1562H39.9902ZM46.2832 39.3184C46.2832 39.1621 46.248 39.0176 46.1777 38.8848C46.1113 38.748 45.9727 38.625 45.7617 38.5156C45.5547 38.4023 45.2422 38.3047 44.8242 38.2227C44.4727 38.1484 44.1543 38.0605 43.8691 37.959C43.5879 37.8574 43.3477 37.7344 43.1484 37.5898C42.9531 37.4453 42.8027 37.2754 42.6973 37.0801C42.5918 36.8848 42.5391 36.6562 42.5391 36.3945C42.5391 36.1445 42.5938 35.9082 42.7031 35.6855C42.8164 35.4629 42.9746 35.2656 43.1777 35.0938C43.3848 34.9219 43.6328 34.7871 43.9219 34.6895C44.2109 34.5918 44.5332 34.543 44.8887 34.543C45.3965 34.543 45.8301 34.6328 46.1895 34.8125C46.5488 34.9922 46.8242 35.2324 47.0156 35.5332C47.207 35.8301 47.3027 36.1602 47.3027 36.5234H46.2188C46.2188 36.3477 46.166 36.1777 46.0605 36.0137C45.959 35.8457 45.8086 35.707 45.6094 35.5977C45.4141 35.4883 45.1738 35.4336 44.8887 35.4336C44.5879 35.4336 44.3438 35.4805 44.1562 35.5742C43.9727 35.6641 43.8379 35.7793 43.752 35.9199C43.6699 36.0605 43.6289 36.209 43.6289 36.3652C43.6289 36.4824 43.6484 36.5879 43.6875 36.6816C43.7305 36.7715 43.8047 36.8555 43.9102 36.9336C44.0156 37.0078 44.1641 37.0781 44.3555 37.1445C44.5469 37.2109 44.791 37.2773 45.0879 37.3438C45.6074 37.4609 46.0352 37.6016 46.3711 37.7656C46.707 37.9297 46.957 38.1309 47.1211 38.3691C47.2852 38.6074 47.3672 38.8965 47.3672 39.2363C47.3672 39.5137 47.3086 39.7676 47.1914 39.998C47.0781 40.2285 46.9121 40.4277 46.6934 40.5957C46.4785 40.7598 46.2207 40.8887 45.9199 40.9824C45.623 41.0723 45.2891 41.1172 44.918 41.1172C44.3594 41.1172 43.8867 41.0176 43.5 40.8184C43.1133 40.6191 42.8203 40.3613 42.6211 40.0449C42.4219 39.7285 42.3223 39.3945 42.3223 39.043H43.4121C43.4277 39.3398 43.5137 39.5762 43.6699 39.752C43.8262 39.9238 44.0176 40.0469 44.2441 40.1211C44.4707 40.1914 44.6953 40.2266 44.918 40.2266C45.2148 40.2266 45.4629 40.1875 45.6621 40.1094C45.8652 40.0312 46.0195 39.9238 46.125 39.7871C46.2305 39.6504 46.2832 39.4941 46.2832 39.3184ZM51.4219 41.1172C50.9805 41.1172 50.5801 41.043 50.2207 40.8945C49.8652 40.7422 49.5586 40.5293 49.3008 40.2559C49.0469 39.9824 48.8516 39.6582 48.7148 39.2832C48.5781 38.9082 48.5098 38.498 48.5098 38.0527V37.8066C48.5098 37.291 48.5859 36.832 48.7383 36.4297C48.8906 36.0234 49.0977 35.6797 49.3594 35.3984C49.6211 35.1172 49.918 34.9043 50.25 34.7598C50.582 34.6152 50.9258 34.543 51.2812 34.543C51.7344 34.543 52.125 34.6211 52.4531 34.7773C52.7852 34.9336 53.0566 35.1523 53.2676 35.4336C53.4785 35.7109 53.6348 36.0391 53.7363 36.418C53.8379 36.793 53.8887 37.2031 53.8887 37.6484V38.1348H49.1543V37.25H52.8047V37.168C52.7891 36.8867 52.7305 36.6133 52.6289 36.3477C52.5312 36.082 52.375 35.8633 52.1602 35.6914C51.9453 35.5195 51.6523 35.4336 51.2812 35.4336C51.0352 35.4336 50.8086 35.4863 50.6016 35.5918C50.3945 35.6934 50.2168 35.8457 50.0684 36.0488C49.9199 36.252 49.8047 36.5 49.7227 36.793C49.6406 37.0859 49.5996 37.4238 49.5996 37.8066V38.0527C49.5996 38.3535 49.6406 38.6367 49.7227 38.9023C49.8086 39.1641 49.9316 39.3945 50.0918 39.5938C50.2559 39.793 50.4531 39.9492 50.6836 40.0625C50.918 40.1758 51.1836 40.2324 51.4805 40.2324C51.8633 40.2324 52.1875 40.1543 52.4531 39.998C52.7188 39.8418 52.9512 39.6328 53.1504 39.3711L53.8066 39.8926C53.6699 40.0996 53.4961 40.2969 53.2852 40.4844C53.0742 40.6719 52.8145 40.8242 52.5059 40.9414C52.2012 41.0586 51.8398 41.1172 51.4219 41.1172ZM59.1504 39.7695V32H60.2402V41H59.2441L59.1504 39.7695ZM54.8848 37.9004V37.7773C54.8848 37.293 54.9434 36.8535 55.0605 36.459C55.1816 36.0605 55.3516 35.7188 55.5703 35.4336C55.793 35.1484 56.0566 34.9297 56.3613 34.7773C56.6699 34.6211 57.0137 34.543 57.3926 34.543C57.791 34.543 58.1387 34.6133 58.4355 34.7539C58.7363 34.8906 58.9902 35.0918 59.1973 35.3574C59.4082 35.6191 59.5742 35.9355 59.6953 36.3066C59.8164 36.6777 59.9004 37.0977 59.9473 37.5664V38.1055C59.9043 38.5703 59.8203 38.9883 59.6953 39.3594C59.5742 39.7305 59.4082 40.0469 59.1973 40.3086C58.9902 40.5703 58.7363 40.7715 58.4355 40.9121C58.1348 41.0488 57.7832 41.1172 57.3809 41.1172C57.0098 41.1172 56.6699 41.0371 56.3613 40.877C56.0566 40.7168 55.793 40.4922 55.5703 40.2031C55.3516 39.9141 55.1816 39.5742 55.0605 39.1836C54.9434 38.7891 54.8848 38.3613 54.8848 37.9004ZM55.9746 37.7773V37.9004C55.9746 38.2168 56.0059 38.5137 56.0684 38.791C56.1348 39.0684 56.2363 39.3125 56.373 39.5234C56.5098 39.7344 56.6836 39.9004 56.8945 40.0215C57.1055 40.1387 57.3574 40.1973 57.6504 40.1973C58.0098 40.1973 58.3047 40.1211 58.5352 39.9688C58.7695 39.8164 58.957 39.6152 59.0977 39.3652C59.2383 39.1152 59.3477 38.8438 59.4258 38.5508V37.1387C59.3789 36.9238 59.3105 36.7168 59.2207 36.5176C59.1348 36.3145 59.0215 36.1348 58.8809 35.9785C58.7441 35.8184 58.5742 35.6914 58.3711 35.5977C58.1719 35.5039 57.9355 35.457 57.6621 35.457C57.3652 35.457 57.1094 35.5195 56.8945 35.6445C56.6836 35.7656 56.5098 35.9336 56.373 36.1484C56.2363 36.3594 56.1348 36.6055 56.0684 36.8867C56.0059 37.1641 55.9746 37.4609 55.9746 37.7773ZM64.6172 37.9004V37.7656C64.6172 37.3086 64.6836 36.8848 64.8164 36.4941C64.9492 36.0996 65.1406 35.7578 65.3906 35.4688C65.6406 35.1758 65.9434 34.9492 66.2988 34.7891C66.6543 34.625 67.0527 34.543 67.4941 34.543C67.9395 34.543 68.3398 34.625 68.6953 34.7891C69.0547 34.9492 69.3594 35.1758 69.6094 35.4688C69.8633 35.7578 70.0566 36.0996 70.1895 36.4941C70.3223 36.8848 70.3887 37.3086 70.3887 37.7656V37.9004C70.3887 38.3574 70.3223 38.7812 70.1895 39.1719C70.0566 39.5625 69.8633 39.9043 69.6094 40.1973C69.3594 40.4863 69.0566 40.7129 68.7012 40.877C68.3496 41.0371 67.9512 41.1172 67.5059 41.1172C67.0605 41.1172 66.6602 41.0371 66.3047 40.877C65.9492 40.7129 65.6445 40.4863 65.3906 40.1973C65.1406 39.9043 64.9492 39.5625 64.8164 39.1719C64.6836 38.7812 64.6172 38.3574 64.6172 37.9004ZM65.7012 37.7656V37.9004C65.7012 38.2168 65.7383 38.5156 65.8125 38.7969C65.8867 39.0742 65.998 39.3203 66.1465 39.5352C66.2988 39.75 66.4883 39.9199 66.7148 40.0449C66.9414 40.166 67.2051 40.2266 67.5059 40.2266C67.8027 40.2266 68.0625 40.166 68.2852 40.0449C68.5117 39.9199 68.6992 39.75 68.8477 39.5352C68.9961 39.3203 69.1074 39.0742 69.1816 38.7969C69.2598 38.5156 69.2988 38.2168 69.2988 37.9004V37.7656C69.2988 37.4531 69.2598 37.1582 69.1816 36.8809C69.1074 36.5996 68.9941 36.3516 68.8418 36.1367C68.6934 35.918 68.5059 35.7461 68.2793 35.6211C68.0566 35.4961 67.7949 35.4336 67.4941 35.4336C67.1973 35.4336 66.9355 35.4961 66.709 35.6211C66.4863 35.7461 66.2988 35.918 66.1465 36.1367C65.998 36.3516 65.8867 36.5996 65.8125 36.8809C65.7383 37.1582 65.7012 37.4531 65.7012 37.7656ZM72.832 36.0137V41H71.748V34.6602H72.7734L72.832 36.0137ZM72.5742 37.5898L72.123 37.5723C72.127 37.1387 72.1914 36.7383 72.3164 36.3711C72.4414 36 72.6172 35.6777 72.8438 35.4043C73.0703 35.1309 73.3398 34.9199 73.6523 34.7715C73.9688 34.6191 74.3184 34.543 74.7012 34.543C75.0137 34.543 75.2949 34.5859 75.5449 34.6719C75.7949 34.7539 76.0078 34.8867 76.1836 35.0703C76.3633 35.2539 76.5 35.4922 76.5938 35.7852C76.6875 36.0742 76.7344 36.4277 76.7344 36.8457V41H75.6445V36.834C75.6445 36.502 75.5957 36.2363 75.498 36.0371C75.4004 35.834 75.2578 35.6875 75.0703 35.5977C74.8828 35.5039 74.6523 35.457 74.3789 35.457C74.1094 35.457 73.8633 35.5137 73.6406 35.627C73.4219 35.7402 73.2324 35.8965 73.0723 36.0957C72.916 36.2949 72.793 36.5234 72.7031 36.7812C72.6172 37.0352 72.5742 37.3047 72.5742 37.5898ZM82.8223 36.2012H83.5957C83.9746 36.2012 84.2871 36.1387 84.5332 36.0137C84.7832 35.8848 84.9688 35.7109 85.0898 35.4922C85.2148 35.2695 85.2773 35.0195 85.2773 34.7422C85.2773 34.4141 85.2227 34.1387 85.1133 33.916C85.0039 33.6934 84.8398 33.5254 84.6211 33.4121C84.4023 33.2988 84.125 33.2422 83.7891 33.2422C83.4844 33.2422 83.2148 33.3027 82.9805 33.4238C82.75 33.541 82.5684 33.709 82.4355 33.9277C82.3066 34.1465 82.2422 34.4043 82.2422 34.7012H81.1582C81.1582 34.2676 81.2676 33.873 81.4863 33.5176C81.7051 33.1621 82.0117 32.8789 82.4062 32.668C82.8047 32.457 83.2656 32.3516 83.7891 32.3516C84.3047 32.3516 84.7559 32.4434 85.1426 32.627C85.5293 32.8066 85.8301 33.0762 86.0449 33.4355C86.2598 33.791 86.3672 34.2344 86.3672 34.7656C86.3672 34.9805 86.3164 35.2109 86.2148 35.457C86.1172 35.6992 85.9629 35.9258 85.752 36.1367C85.5449 36.3477 85.2754 36.5215 84.9434 36.6582C84.6113 36.791 84.2129 36.8574 83.748 36.8574H82.8223V36.2012ZM82.8223 37.0918V36.4414H83.748C84.291 36.4414 84.7402 36.5059 85.0957 36.6348C85.4512 36.7637 85.7305 36.9355 85.9336 37.1504C86.1406 37.3652 86.2852 37.6016 86.3672 37.8594C86.4531 38.1133 86.4961 38.3672 86.4961 38.6211C86.4961 39.0195 86.4277 39.373 86.291 39.6816C86.1582 39.9902 85.9688 40.252 85.7227 40.4668C85.4805 40.6816 85.1953 40.8438 84.8672 40.9531C84.5391 41.0625 84.1816 41.1172 83.7949 41.1172C83.4238 41.1172 83.0742 41.0645 82.7461 40.959C82.4219 40.8535 82.1348 40.7012 81.8848 40.502C81.6348 40.2988 81.4395 40.0508 81.2988 39.7578C81.1582 39.4609 81.0879 39.123 81.0879 38.7441H82.1719C82.1719 39.041 82.2363 39.3008 82.3652 39.5234C82.498 39.7461 82.6855 39.9199 82.9277 40.0449C83.1738 40.166 83.4629 40.2266 83.7949 40.2266C84.127 40.2266 84.4121 40.1699 84.6504 40.0566C84.8926 39.9395 85.0781 39.7637 85.207 39.5293C85.3398 39.2949 85.4062 39 85.4062 38.6445C85.4062 38.2891 85.332 37.998 85.1836 37.7715C85.0352 37.541 84.8242 37.3711 84.5508 37.2617C84.2812 37.1484 83.9629 37.0918 83.5957 37.0918H82.8223ZM91.5527 32.4219V41H90.4688V33.7754L88.2832 34.5723V33.5938L91.3828 32.4219H91.5527ZM97.998 32.4688H100.822C101.463 32.4688 102.004 32.5664 102.445 32.7617C102.891 32.957 103.229 33.2461 103.459 33.6289C103.693 34.0078 103.811 34.4746 103.811 35.0293C103.811 35.4199 103.73 35.7773 103.57 36.1016C103.414 36.4219 103.188 36.6953 102.891 36.9219C102.598 37.1445 102.246 37.3105 101.836 37.4199L101.52 37.543H98.8652L98.8535 36.623H100.857C101.264 36.623 101.602 36.5527 101.871 36.4121C102.141 36.2676 102.344 36.0742 102.48 35.832C102.617 35.5898 102.686 35.3223 102.686 35.0293C102.686 34.7012 102.621 34.4141 102.492 34.168C102.363 33.9219 102.16 33.7324 101.883 33.5996C101.609 33.4629 101.256 33.3945 100.822 33.3945H99.1289V41H97.998V32.4688ZM102.984 41L100.91 37.1328L102.088 37.127L104.191 40.9297V41H102.984ZM107.859 41.1172C107.418 41.1172 107.018 41.043 106.658 40.8945C106.303 40.7422 105.996 40.5293 105.738 40.2559C105.484 39.9824 105.289 39.6582 105.152 39.2832C105.016 38.9082 104.947 38.498 104.947 38.0527V37.8066C104.947 37.291 105.023 36.832 105.176 36.4297C105.328 36.0234 105.535 35.6797 105.797 35.3984C106.059 35.1172 106.355 34.9043 106.688 34.7598C107.02 34.6152 107.363 34.543 107.719 34.543C108.172 34.543 108.562 34.6211 108.891 34.7773C109.223 34.9336 109.494 35.1523 109.705 35.4336C109.916 35.7109 110.072 36.0391 110.174 36.418C110.275 36.793 110.326 37.2031 110.326 37.6484V38.1348H105.592V37.25H109.242V37.168C109.227 36.8867 109.168 36.6133 109.066 36.3477C108.969 36.082 108.812 35.8633 108.598 35.6914C108.383 35.5195 108.09 35.4336 107.719 35.4336C107.473 35.4336 107.246 35.4863 107.039 35.5918C106.832 35.6934 106.654 35.8457 106.506 36.0488C106.357 36.252 106.242 36.5 106.16 36.793C106.078 37.0859 106.037 37.4238 106.037 37.8066V38.0527C106.037 38.3535 106.078 38.6367 106.16 38.9023C106.246 39.1641 106.369 39.3945 106.529 39.5938C106.693 39.793 106.891 39.9492 107.121 40.0625C107.355 40.1758 107.621 40.2324 107.918 40.2324C108.301 40.2324 108.625 40.1543 108.891 39.998C109.156 39.8418 109.389 39.6328 109.588 39.3711L110.244 39.8926C110.107 40.0996 109.934 40.2969 109.723 40.4844C109.512 40.6719 109.252 40.8242 108.943 40.9414C108.639 41.0586 108.277 41.1172 107.859 41.1172ZM113.438 40.0215L115.172 34.6602H116.279L114 41H113.273L113.438 40.0215ZM111.99 34.6602L113.777 40.0508L113.9 41H113.174L110.877 34.6602H111.99ZM118.5 34.6602V41H117.41V34.6602H118.5ZM117.328 32.9785C117.328 32.8027 117.381 32.6543 117.486 32.5332C117.596 32.4121 117.756 32.3516 117.967 32.3516C118.174 32.3516 118.332 32.4121 118.441 32.5332C118.555 32.6543 118.611 32.8027 118.611 32.9785C118.611 33.1465 118.555 33.291 118.441 33.4121C118.332 33.5293 118.174 33.5879 117.967 33.5879C117.756 33.5879 117.596 33.5293 117.486 33.4121C117.381 33.291 117.328 33.1465 117.328 32.9785ZM122.871 41.1172C122.43 41.1172 122.029 41.043 121.67 40.8945C121.314 40.7422 121.008 40.5293 120.75 40.2559C120.496 39.9824 120.301 39.6582 120.164 39.2832C120.027 38.9082 119.959 38.498 119.959 38.0527V37.8066C119.959 37.291 120.035 36.832 120.188 36.4297C120.34 36.0234 120.547 35.6797 120.809 35.3984C121.07 35.1172 121.367 34.9043 121.699 34.7598C122.031 34.6152 122.375 34.543 122.73 34.543C123.184 34.543 123.574 34.6211 123.902 34.7773C124.234 34.9336 124.506 35.1523 124.717 35.4336C124.928 35.7109 125.084 36.0391 125.186 36.418C125.287 36.793 125.338 37.2031 125.338 37.6484V38.1348H120.604V37.25H124.254V37.168C124.238 36.8867 124.18 36.6133 124.078 36.3477C123.98 36.082 123.824 35.8633 123.609 35.6914C123.395 35.5195 123.102 35.4336 122.73 35.4336C122.484 35.4336 122.258 35.4863 122.051 35.5918C121.844 35.6934 121.666 35.8457 121.518 36.0488C121.369 36.252 121.254 36.5 121.172 36.793C121.09 37.0859 121.049 37.4238 121.049 37.8066V38.0527C121.049 38.3535 121.09 38.6367 121.172 38.9023C121.258 39.1641 121.381 39.3945 121.541 39.5938C121.705 39.793 121.902 39.9492 122.133 40.0625C122.367 40.1758 122.633 40.2324 122.93 40.2324C123.312 40.2324 123.637 40.1543 123.902 39.998C124.168 39.8418 124.4 39.6328 124.6 39.3711L125.256 39.8926C125.119 40.0996 124.945 40.2969 124.734 40.4844C124.523 40.6719 124.264 40.8242 123.955 40.9414C123.65 41.0586 123.289 41.1172 122.871 41.1172ZM128.209 39.875L129.838 34.6602H130.553L130.412 35.6973L128.754 41H128.057L128.209 39.875ZM127.113 34.6602L128.502 39.9336L128.602 41H127.869L126.029 34.6602H127.113ZM132.111 39.8926L133.436 34.6602H134.514L132.674 41H131.947L132.111 39.8926ZM130.711 34.6602L132.305 39.7871L132.486 41H131.795L130.09 35.6855L129.949 34.6602H130.711ZM139.318 39.3184C139.318 39.1621 139.283 39.0176 139.213 38.8848C139.146 38.748 139.008 38.625 138.797 38.5156C138.59 38.4023 138.277 38.3047 137.859 38.2227C137.508 38.1484 137.189 38.0605 136.904 37.959C136.623 37.8574 136.383 37.7344 136.184 37.5898C135.988 37.4453 135.838 37.2754 135.732 37.0801C135.627 36.8848 135.574 36.6562 135.574 36.3945C135.574 36.1445 135.629 35.9082 135.738 35.6855C135.852 35.4629 136.01 35.2656 136.213 35.0938C136.42 34.9219 136.668 34.7871 136.957 34.6895C137.246 34.5918 137.568 34.543 137.924 34.543C138.432 34.543 138.865 34.6328 139.225 34.8125C139.584 34.9922 139.859 35.2324 140.051 35.5332C140.242 35.8301 140.338 36.1602 140.338 36.5234H139.254C139.254 36.3477 139.201 36.1777 139.096 36.0137C138.994 35.8457 138.844 35.707 138.645 35.5977C138.449 35.4883 138.209 35.4336 137.924 35.4336C137.623 35.4336 137.379 35.4805 137.191 35.5742C137.008 35.6641 136.873 35.7793 136.787 35.9199C136.705 36.0605 136.664 36.209 136.664 36.3652C136.664 36.4824 136.684 36.5879 136.723 36.6816C136.766 36.7715 136.84 36.8555 136.945 36.9336C137.051 37.0078 137.199 37.0781 137.391 37.1445C137.582 37.2109 137.826 37.2773 138.123 37.3438C138.643 37.4609 139.07 37.6016 139.406 37.7656C139.742 37.9297 139.992 38.1309 140.156 38.3691C140.32 38.6074 140.402 38.8965 140.402 39.2363C140.402 39.5137 140.344 39.7676 140.227 39.998C140.113 40.2285 139.947 40.4277 139.729 40.5957C139.514 40.7598 139.256 40.8887 138.955 40.9824C138.658 41.0723 138.324 41.1172 137.953 41.1172C137.395 41.1172 136.922 41.0176 136.535 40.8184C136.148 40.6191 135.855 40.3613 135.656 40.0449C135.457 39.7285 135.357 39.3945 135.357 39.043H136.447C136.463 39.3398 136.549 39.5762 136.705 39.752C136.861 39.9238 137.053 40.0469 137.279 40.1211C137.506 40.1914 137.73 40.2266 137.953 40.2266C138.25 40.2266 138.498 40.1875 138.697 40.1094C138.9 40.0312 139.055 39.9238 139.16 39.7871C139.266 39.6504 139.318 39.4941 139.318 39.3184Z" fill="black"/>
</svg>
