<svg width="48" height="58" viewBox="0 0 48 58" fill="none" xmlns="http://www.w3.org/2000/svg">
<path d="M46.2 20.1982C46.6692 20.1982 47.0496 19.8179 47.0496 19.3485V11.1409C47.0496 9.46281 45.7415 8.08139 44.0714 7.99609C33.9952 7.48302 28.5795 3.36222 26.2483 0.951605C25.6549 0.337933 24.8566 0 24.0004 0C23.1442 0 22.3459 0.337933 21.7527 0.951492C19.4213 3.36211 14.0056 7.4829 3.92913 7.99609C2.25929 8.08139 0.951172 9.46269 0.951172 11.1409V34.8292C0.951172 41.6514 4.62176 48.0088 10.5308 51.4206L20.143 56.9692C21.3328 57.6565 22.6665 58.0001 24.0005 58.0001C25.3342 58.0001 26.6683 57.6565 27.8578 56.9693L37.4703 51.4207C43.379 48.0089 47.0497 41.6515 47.0497 34.8293V23.3138C47.0497 22.8444 46.6693 22.4641 46.2001 22.4641C45.7309 22.4641 45.3504 22.8444 45.3504 23.3138V34.8293C45.3504 41.0464 42.0053 46.8399 36.6206 49.9491L27.008 55.4978C25.153 56.5694 22.8479 56.5693 20.9926 55.4977L11.3803 49.9491C5.99558 46.8399 2.65047 41.0464 2.65047 34.8293V11.1409C2.65047 10.3683 3.2502 9.73232 4.01568 9.69323C14.6742 9.15048 20.4687 4.72347 22.9743 2.13284C23.2444 1.85336 23.6089 1.69941 24.0004 1.69941C24.3919 1.69941 24.7564 1.85336 25.0267 2.13295C27.532 4.72347 33.3265 9.15048 43.9849 9.69323C44.7506 9.73243 45.3503 10.3683 45.3503 11.1409V19.3485C45.3503 19.8179 45.7307 20.1982 46.2 20.1982Z" fill="#FF3C7F"/>
<path d="M6.37894 22.4642C5.90971 22.4642 5.5293 22.8445 5.5293 23.3138V34.8294C5.5293 40.0211 8.3226 44.8597 12.8193 47.4569L22.432 53.0058C22.9091 53.2809 23.4515 53.4264 24.0006 53.4264C24.5497 53.4264 25.0922 53.2809 25.5697 53.0055L35.1822 47.4568C39.6788 44.8597 42.4721 40.0211 42.4721 34.8294V14.2725C42.4721 13.2694 41.7236 12.4194 40.7316 12.2954C33.1109 11.3369 28.0978 8.44171 25.2331 6.18097C24.5075 5.61012 23.4939 5.61012 22.7674 6.18176C19.9038 8.44171 14.8905 11.3369 7.27062 12.2953C6.27801 12.4194 5.52941 13.2694 5.52941 14.2725V19.3488C5.52941 19.8182 5.90983 20.1985 6.37906 20.1985C6.84829 20.1985 7.22871 19.8182 7.22871 19.3488V14.2725C7.22871 14.1245 7.33723 13.9994 7.48201 13.9814C15.4905 12.9741 20.787 9.90945 23.8192 7.51662C23.9259 7.43244 24.0752 7.43233 24.1813 7.51582C27.2144 9.90945 32.5109 12.9742 40.5202 13.9815C40.6642 13.9994 40.7728 14.1246 40.7728 14.2725V34.8294C40.7728 39.4161 38.305 43.6909 34.3326 45.9853L24.7206 51.5338C24.2818 51.7869 23.7195 51.7867 23.2814 51.5341L13.6691 45.9854C9.69665 43.6909 7.22871 39.4163 7.22871 34.8294V23.3138C7.22859 22.8445 6.84829 22.4642 6.37894 22.4642Z" fill="#FF3C7F"/>
<path d="M15.5243 27.6825C16.0921 27.6825 16.6259 27.9234 17.0273 28.361L20.6808 32.3421C20.9539 32.6398 21.3965 32.6396 21.6695 32.3421L25.6717 27.9799C25.9448 27.6822 25.9448 27.1998 25.6717 26.9022C25.3987 26.6047 24.9559 26.6047 24.683 26.9022L21.1752 30.7255L18.0161 27.2833C17.3507 26.5579 16.4658 26.1585 15.5244 26.1585C14.583 26.1585 13.6981 26.558 13.0327 27.2832C12.3667 28.0091 12 28.9739 12 29.9999C12 31.0263 12.3668 31.9909 13.0327 32.716L18.6826 38.8741C19.3477 39.6002 20.2328 40 21.1753 40C22.117 40 23.0019 39.6001 23.6665 38.8746L34.9671 26.5575C35.6332 25.8321 36 24.8675 36 23.8414C36 22.8152 35.6332 21.8504 34.9673 21.1246C34.3019 20.3993 33.417 20 32.4756 20C31.5342 20 30.6493 20.3994 29.9839 21.1246L26.9904 24.3872C26.7173 24.6849 26.7173 25.1674 26.9904 25.465C27.2635 25.7625 27.7062 25.7625 27.9791 25.465L30.9726 22.2023C31.374 21.7649 31.9077 21.524 32.4756 21.524C33.0434 21.524 33.5772 21.7649 33.9786 22.2024C34.3804 22.6403 34.6017 23.2224 34.6017 23.8414C34.6017 24.4603 34.3805 25.0419 33.9786 25.4795L22.6773 37.7973C22.2764 38.2349 21.743 38.476 21.1753 38.476C20.6069 38.476 20.0731 38.2349 19.6718 37.7968L14.0212 31.638C13.6196 31.2006 13.3984 30.6189 13.3984 29.9999C13.3984 29.3809 13.6197 28.7989 14.0215 28.361C14.4227 27.9234 14.9565 27.6825 15.5243 27.6825Z" fill="#0C0B0B"/>
</svg>
