<svg width="30" height="16" viewBox="0 0 30 16" fill="none" xmlns="http://www.w3.org/2000/svg">
<path d="M27.9319 6.69401L27.2857 4.10946C27.4624 4.07194 27.5949 3.91521 27.5949 3.72744V3.31073C27.5949 2.40595 26.8588 1.66989 25.9541 1.66989H23.011V0.810337C23.011 0.365113 22.6488 0.00292969 22.2036 0.00292969H7.20156C6.75634 0.00292969 6.39416 0.00292969 6.39416 0.810337C6.79315 0.810337 6.90059 0.810337 6.90059 0.810337C6.90059 0.810337 7.20156 0.810337 7.17554 0.810337C7.20156 0.810337 7.18719 0.784314 7.20156 0.784314H22.2036C22.2179 0.784314 22.2296 0.795961 22.2296 0.810337V7.89474C22.2296 8.11048 22.4045 8.28544 22.6203 8.28544C22.836 8.28544 23.011 8.11053 23.011 7.89474V7.45186H27.6196L27.6206 7.45196L27.6217 7.45191C28.1888 7.4523 28.6703 7.82452 28.8357 8.33743H27.6209C27.4052 8.33743 27.2302 8.51234 27.2302 8.72813V9.56156C27.2302 10.2366 27.7793 10.7857 28.4543 10.7857H28.8971V12.5046H27.8756C27.54 11.5357 26.6189 10.8377 25.5373 10.8377C24.4557 10.8377 23.5345 11.5357 23.199 12.5046H23.0109V9.56151C23.0109 9.34577 22.836 9.17081 22.6202 9.17081C22.4044 9.17081 22.2295 9.34572 22.2295 9.56151V12.5045H14.1238C13.7883 11.5356 12.8672 10.8376 11.7855 10.8376C10.7039 10.8376 9.78275 11.5356 9.44723 12.5045H7.20156C7.18719 12.5045 7.17554 12.4929 7.17554 12.4785V11.619H8.86847C9.08421 11.619 9.25917 11.4441 9.25917 11.2283C9.25917 11.0125 9.08426 10.8376 8.86847 10.8376H5.11799C4.90225 10.8376 4.72729 11.0125 4.72729 11.2283C4.72729 11.4441 4.9022 11.619 5.11799 11.619H6.39421V12.4785C6.39421 12.9237 6.75639 13.2859 7.20161 13.2859H9.31194C9.31185 13.2946 9.31126 13.3032 9.31126 13.3119C9.31126 14.6763 10.4213 15.7862 11.7855 15.7862C13.1498 15.7862 14.2598 14.6763 14.2598 13.3119C14.2598 13.3032 14.2592 13.2946 14.2591 13.2859H23.0637C23.0636 13.2946 23.063 13.3032 23.063 13.3119C23.063 14.6763 24.173 15.7862 25.5373 15.7862C26.9016 15.7862 28.0116 14.6763 28.0116 13.3119C28.0116 13.3032 28.011 13.2946 28.0109 13.2859H29.2878C29.5036 13.2859 29.6785 13.111 29.6785 12.8952V8.72803C29.6785 7.69918 28.9194 6.84435 27.9319 6.69401ZM23.011 2.45122H25.9541C26.428 2.45122 26.8136 2.8368 26.8136 3.31073V3.33675H23.011V2.45122ZM23.011 6.67052V4.11809H26.4825L27.1206 6.67052H23.011ZM11.7855 15.005C10.8521 15.005 10.0926 14.2456 10.0926 13.312C10.0926 12.3785 10.8521 11.6191 11.7855 11.6191C12.719 11.6191 13.4785 12.3785 13.4785 13.312C13.4785 14.2456 12.719 15.005 11.7855 15.005ZM25.5374 15.005C24.6039 15.005 23.8444 14.2456 23.8444 13.312C23.8444 12.3785 24.6039 11.6191 25.5374 11.6191C26.4709 11.6191 27.2303 12.3785 27.2303 13.312C27.2303 14.2456 26.4709 15.005 25.5374 15.005ZM28.8972 10.0043H28.4544C28.2103 10.0043 28.0117 9.80566 28.0117 9.56151V9.11872H28.8972L28.8972 10.0043Z" fill="black"/>
<path d="M11.7862 12.5044C11.3409 12.5044 10.9788 12.8666 10.9788 13.3118C10.9788 13.757 11.3409 14.1192 11.7862 14.1192C12.2314 14.1192 12.5936 13.757 12.5936 13.3118C12.5936 12.8666 12.2314 12.5044 11.7862 12.5044Z" fill="black"/>
<path d="M25.5375 12.5044C25.0923 12.5044 24.7301 12.8666 24.7301 13.3118C24.7301 13.757 25.0923 14.1192 25.5375 14.1192C25.9827 14.1192 26.3449 13.757 26.3449 13.3118C26.3449 12.8666 25.9827 12.5044 25.5375 12.5044Z" fill="black"/>
<path d="M20.9536 10.8384H15.1195C14.9037 10.8384 14.7288 11.0133 14.7288 11.2291C14.7288 11.4449 14.9037 11.6198 15.1195 11.6198H20.9536C21.1693 11.6198 21.3443 11.4449 21.3443 11.2291C21.3443 11.0133 21.1694 10.8384 20.9536 10.8384Z" fill="black"/>
<path d="M10.9525 9.17041H5.95185C5.73611 9.17041 5.56116 9.34531 5.56116 9.5611C5.56116 9.77689 5.73606 9.95179 5.95185 9.95179H10.9525C11.1683 9.95179 11.3432 9.77689 11.3432 9.5611C11.3432 9.34531 11.1683 9.17041 10.9525 9.17041Z" fill="black"/>
<path d="M10.8993 2.18213H1.46442C1.05738 2.18213 0.727295 2.34492 0.727295 2.54576C0.727295 2.74661 1.05729 2.9094 1.46442 2.9094H10.8993C11.3063 2.9094 11.6364 2.74661 11.6364 2.54576C11.6364 2.34492 11.3063 2.18213 10.8993 2.18213Z" fill="black"/>
<path d="M11.9369 3.63623H6.93622C6.72048 3.63623 6.54553 3.81113 6.54553 4.02692C6.54553 4.24271 6.72043 4.41761 6.93622 4.41761H11.9369C12.1526 4.41761 12.3276 4.24271 12.3276 4.02692C12.3276 3.81113 12.1526 3.63623 11.9369 3.63623Z" fill="black"/>
<path d="M11.9369 7.27295H6.93622C6.72048 7.27295 6.54553 7.44785 6.54553 7.66364C6.54553 7.87943 6.72043 8.05433 6.93622 8.05433H11.9369C12.1526 8.05433 12.3276 7.87943 12.3276 7.66364C12.3276 7.44785 12.1526 7.27295 11.9369 7.27295Z" fill="black"/>
<path d="M10.2211 5.81836H1.41528C1.03537 5.81836 0.727295 5.98115 0.727295 6.182C0.727295 6.38284 1.03529 6.54563 1.41528 6.54563H10.2211C10.601 6.54563 10.9091 6.38284 10.9091 6.182C10.9091 5.98115 10.601 5.81836 10.2211 5.81836Z" fill="black"/>
</svg>
