<svg width="78" height="50" viewBox="0 0 78 50" fill="none" xmlns="http://www.w3.org/2000/svg">
<path d="M72.3983 20.9194L70.3823 12.8427C70.9335 12.7254 71.347 12.2356 71.347 11.6489V10.3466C71.347 7.51921 69.0504 5.21901 66.2276 5.21901H57.0452V2.53291C57.0452 1.14159 55.9152 0.00976562 54.5261 0.00976562H7.71972C6.33062 0.00976562 5.20061 1.14159 5.20061 2.53291V24.6714C5.20061 25.3456 5.7463 25.8923 6.41957 25.8923C7.09268 25.8923 7.63853 25.3457 7.63853 24.6714V2.53291C7.63853 2.48799 7.67487 2.45159 7.71972 2.45159H54.526C54.5708 2.45159 54.6072 2.48799 54.6072 2.53291V24.6717C54.6072 25.3459 55.1528 25.8926 55.8261 25.8926C56.4992 25.8926 57.0451 25.346 57.0451 24.6717V23.2877H71.424C71.4252 23.2877 71.4261 23.288 71.4272 23.288C71.4284 23.288 71.4295 23.2878 71.4305 23.2878C73.1999 23.289 74.7023 24.4522 75.2183 26.0551H71.4281C70.755 26.0551 70.2091 26.6017 70.2091 27.276V29.8805C70.2091 31.9898 71.9224 33.7059 74.0284 33.7059H75.4099V39.0776H72.2227C71.1757 36.0496 68.3018 33.8685 64.9272 33.8685C61.5525 33.8685 58.6785 36.0496 57.6317 39.0776H57.0448V29.8803C57.0448 29.2061 56.4991 28.6594 55.8258 28.6594C55.1527 28.6594 54.6068 29.206 54.6068 29.8803V39.0773H29.3172C28.2702 36.0493 25.3964 33.8682 22.0217 33.8682C18.647 33.8682 15.773 36.0493 14.7262 39.0773H7.71972C7.67487 39.0773 7.63853 39.0409 7.63853 38.996V36.31H12.9205C13.5936 36.31 14.1394 35.7635 14.1394 35.0891C14.1394 34.4148 13.5937 33.8682 12.9205 33.8682H1.21896C0.545848 33.8682 0 34.4148 0 35.0891C0 35.7635 0.545696 36.31 1.21896 36.31H5.20076V38.996C5.20076 40.3873 6.33077 41.5191 7.71987 41.5191H14.3041C14.3038 41.5462 14.302 41.5732 14.302 41.6004C14.302 45.864 17.7651 49.3325 22.0217 49.3325C26.2782 49.3325 29.7414 45.864 29.7414 41.6004C29.7414 41.573 29.7396 41.5462 29.7393 41.5191H57.2096C57.2093 41.5462 57.2075 41.5732 57.2075 41.6004C57.2075 45.864 60.6706 49.3325 64.9272 49.3325C69.1837 49.3325 72.6469 45.864 72.6469 41.6004C72.6469 41.573 72.6451 41.5462 72.6448 41.5191H76.6288C77.302 41.5191 77.8478 40.9725 77.8478 40.2982V27.2757C77.8478 24.0605 75.4795 21.3892 72.3983 20.9194ZM57.0452 7.66069H66.2276C67.7063 7.66069 68.9093 8.86561 68.9093 10.3466V10.428H57.0452V7.66069ZM57.0452 20.846V12.8696H67.8763L69.8672 20.846H57.0452ZM22.0217 46.8912C19.1092 46.8912 16.7397 44.518 16.7397 41.6007C16.7397 38.6835 19.1092 36.3103 22.0217 36.3103C24.9342 36.3103 27.3036 38.6835 27.3036 41.6007C27.3036 44.518 24.9342 46.8912 22.0217 46.8912ZM64.9275 46.8912C62.015 46.8912 59.6455 44.518 59.6455 41.6007C59.6455 38.6835 62.015 36.3103 64.9275 36.3103C67.8399 36.3103 70.2094 38.6835 70.2094 41.6007C70.2094 44.518 67.8399 46.8912 64.9275 46.8912ZM75.4102 31.264H74.0287C73.2669 31.264 72.6472 30.6433 72.6472 29.8803V28.4966H75.41V31.264H75.4102Z" fill="#0C0B0B"/>
<path d="M22.0218 39.0776C20.6327 39.0776 19.5027 40.2095 19.5027 41.6008C19.5027 42.9921 20.6327 44.1239 22.0218 44.1239C23.4109 44.1239 24.5409 42.9921 24.5409 41.6008C24.5409 40.2095 23.4109 39.0776 22.0218 39.0776Z" fill="#0C0B0B"/>
<path d="M64.9274 39.0776C63.5383 39.0776 62.4083 40.2095 62.4083 41.6008C62.4083 42.9921 63.5383 44.1239 64.9274 44.1239C66.3165 44.1239 67.4465 42.9921 67.4465 41.6008C67.4465 40.2095 66.3165 39.0776 64.9274 39.0776Z" fill="#0C0B0B"/>
<path d="M50.6255 33.8687H32.4231C31.7499 33.8687 31.2041 34.4152 31.2041 35.0896C31.2041 35.7639 31.7498 36.3105 32.4231 36.3105H50.6255C51.2986 36.3105 51.8445 35.7639 51.8445 35.0896C51.8445 34.4152 51.2987 33.8687 50.6255 33.8687Z" fill="#0C0B0B"/>
<path d="M19.4214 28.6597H3.8193C3.14619 28.6597 2.60034 29.2062 2.60034 29.8806C2.60034 30.5549 3.14604 31.1015 3.8193 31.1015H19.4214C20.0945 31.1015 20.6404 30.5549 20.6404 29.8806C20.6404 29.2062 20.0945 28.6597 19.4214 28.6597Z" fill="#0C0B0B"/>
<path d="M42.3862 12.0875C41.9103 11.6108 41.1384 11.6108 40.6625 12.0876L29.8228 22.9446L24.1838 17.2966C23.7078 16.8197 22.936 16.8197 22.4601 17.2966C21.984 17.7734 21.984 18.5463 22.4601 19.0231L28.961 25.5344C29.1989 25.7729 29.5109 25.892 29.8228 25.892C30.1346 25.892 30.4468 25.7729 30.6846 25.5344L42.3861 13.8141C42.8622 13.3372 42.8622 12.5643 42.3862 12.0875Z" fill="#FF3C81"/>
</svg>
