<svg width="25" height="16" viewBox="0 0 25 16" fill="none" xmlns="http://www.w3.org/2000/svg">
<path d="M22.7764 6.69413L22.1561 4.10958C22.3257 4.07206 22.4529 3.91533 22.4529 3.72756V3.31085C22.4529 2.40607 21.7463 1.67001 20.8777 1.67001H18.0524V0.810459C18.0524 0.365235 17.7047 0.00305176 17.2773 0.00305176H2.8753C2.44788 0.00305176 2.10019 0.365235 2.10019 0.810459V7.89477C2.10019 8.11051 2.26809 8.28546 2.47525 8.28546C2.68236 8.28546 2.85032 8.11056 2.85032 7.89477V0.810459C2.85032 0.796083 2.8615 0.784436 2.8753 0.784436H17.2772C17.291 0.784436 17.3022 0.796083 17.3022 0.810459V7.89487C17.3022 8.11061 17.4701 8.28556 17.6773 8.28556C17.8844 8.28556 18.0523 8.11065 18.0523 7.89487V7.45198H22.4766C22.477 7.45198 22.4773 7.45208 22.4776 7.45208C22.478 7.45208 22.4783 7.45203 22.4786 7.45203C23.023 7.45242 23.4853 7.82464 23.6441 8.33755H22.4779C22.2708 8.33755 22.1028 8.51246 22.1028 8.72825V9.56168C22.1028 10.2367 22.63 10.7858 23.278 10.7858H23.703V12.5048H22.7224C22.4002 11.5358 21.516 10.8378 20.4776 10.8378C19.4392 10.8378 18.5549 11.5358 18.2328 12.5048H18.0522V9.56163C18.0522 9.34589 17.8843 9.17094 17.6772 9.17094C17.4701 9.17094 17.3021 9.34584 17.3021 9.56163V12.5047H9.52068C9.19853 11.5357 8.31427 10.8377 7.27591 10.8377C6.23754 10.8377 5.35324 11.5357 5.03113 12.5047H2.8753C2.8615 12.5047 2.85032 12.493 2.85032 12.4786V11.6191H4.47553C4.68264 11.6191 4.8506 11.4442 4.8506 11.2284C4.8506 11.0127 4.68269 10.8377 4.47553 10.8377H0.875064C0.667953 10.8377 0.5 11.0127 0.5 11.2284C0.5 11.4442 0.667906 11.6191 0.875064 11.6191H2.10023V12.4786C2.10023 12.9239 2.44793 13.286 2.87535 13.286H4.90126C4.90117 13.2947 4.90061 13.3033 4.90061 13.3121C4.90061 14.6764 5.9662 15.7863 7.27591 15.7863C8.58562 15.7863 9.65121 14.6764 9.65121 13.3121C9.65121 13.3033 9.65064 13.2947 9.65055 13.286H18.1029C18.1029 13.2947 18.1023 13.3033 18.1023 13.3121C18.1023 14.6764 19.1679 15.7863 20.4776 15.7863C21.7873 15.7863 22.8529 14.6764 22.8529 13.3121C22.8529 13.3033 22.8523 13.2947 22.8522 13.286H24.0781C24.2852 13.286 24.4532 13.1111 24.4532 12.8954V8.72815C24.4532 7.6993 23.7245 6.84447 22.7764 6.69413ZM18.0524 2.45135H20.8777C21.3327 2.45135 21.7029 2.83692 21.7029 3.31085V3.33687H18.0524V2.45135ZM18.0524 6.67064V4.11821H21.385L21.9976 6.67064H18.0524ZM7.27591 15.0051C6.37977 15.0051 5.65069 14.2457 5.65069 13.3122C5.65069 12.3786 6.37977 11.6192 7.27591 11.6192C8.17205 11.6192 8.90112 12.3786 8.90112 13.3122C8.90112 14.2457 8.17205 15.0051 7.27591 15.0051ZM20.4777 15.0051C19.5815 15.0051 18.8525 14.2457 18.8525 13.3122C18.8525 12.3786 19.5815 11.6192 20.4777 11.6192C21.3738 11.6192 22.1029 12.3786 22.1029 13.3122C22.1029 14.2457 21.3738 15.0051 20.4777 15.0051ZM23.7031 10.0044H23.2781C23.0437 10.0044 22.853 9.80578 22.853 9.56163V9.11884H23.7031V10.0044H23.7031Z" fill="#6F6F6F"/>
<path d="M7.27609 12.5048C6.84867 12.5048 6.50098 12.8669 6.50098 13.3122C6.50098 13.7574 6.84867 14.1196 7.27609 14.1196C7.7035 14.1196 8.0512 13.7574 8.0512 13.3122C8.0512 12.8669 7.7035 12.5048 7.27609 12.5048Z" fill="#6F6F6F"/>
<path d="M20.4773 12.5048C20.0498 12.5048 19.7021 12.8669 19.7021 13.3122C19.7021 13.7574 20.0498 14.1196 20.4773 14.1196C20.9047 14.1196 21.2524 13.7574 21.2524 13.3122C21.2524 12.8669 20.9047 12.5048 20.4773 12.5048Z" fill="#6F6F6F"/>
<path d="M16.0774 10.8379H10.4766C10.2695 10.8379 10.1016 11.0128 10.1016 11.2286C10.1016 11.4444 10.2695 11.6193 10.4766 11.6193H16.0774C16.2845 11.6193 16.4524 11.4444 16.4524 11.2286C16.4524 11.0128 16.2845 10.8379 16.0774 10.8379Z" fill="#6F6F6F"/>
<path d="M6.47552 9.17102H1.67487C1.46776 9.17102 1.2998 9.34592 1.2998 9.56171C1.2998 9.7775 1.46771 9.9524 1.67487 9.9524H6.47552C6.68263 9.9524 6.85059 9.7775 6.85059 9.56171C6.85059 9.34592 6.68263 9.17102 6.47552 9.17102Z" fill="#6F6F6F"/>
<path d="M13.5418 3.86793C13.3953 3.7154 13.1578 3.7154 13.0114 3.86798L9.67609 7.3422L7.94103 5.53484C7.79455 5.38226 7.55707 5.38226 7.41064 5.53484C7.26416 5.68743 7.26416 5.93475 7.41064 6.08733L9.41092 8.17095C9.48414 8.24727 9.58014 8.28538 9.67609 8.28538C9.77204 8.28538 9.86809 8.24727 9.94126 8.17095L13.5417 4.42047C13.6882 4.26784 13.6882 4.02052 13.5418 3.86793Z" fill="#6F6F6F"/>
</svg>
