<svg width="60" height="38" viewBox="0 0 60 38" fill="none" xmlns="http://www.w3.org/2000/svg">
<path fill-rule="evenodd" clip-rule="evenodd" d="M5.40039 1.78125H42.6004V29.6875H21.7911C19.68 27.6744 18.0839 26.6678 17.0027 26.6678C15.9215 26.6678 14.3574 27.6744 12.3104 29.6875H5.40039V1.78125Z" fill="#EFAE16"/>
<path d="M55.691 15.8991L54.1402 9.76082C54.5642 9.6717 54.8823 9.29948 54.8823 8.85353V7.86383C54.8823 5.71499 53.1157 3.96684 50.9443 3.96684H43.8809V1.92541C43.8809 0.867998 43.0117 0.0078125 41.9432 0.0078125H5.93825C4.86971 0.0078125 4.00047 0.867998 4.00047 1.92541V18.7506C4.00047 19.263 4.42023 19.6785 4.93813 19.6785C5.45591 19.6785 5.87579 19.2631 5.87579 18.7506V1.92541C5.87579 1.89126 5.90374 1.8636 5.93825 1.8636H41.943C41.9775 1.8636 42.0055 1.89126 42.0055 1.92541V18.7509C42.0055 19.2633 42.4253 19.6788 42.9432 19.6788C43.4609 19.6788 43.8808 19.2634 43.8808 18.7509V17.699H54.9415C54.9425 17.699 54.9432 17.6992 54.944 17.6992C54.9449 17.6992 54.9457 17.6991 54.9466 17.6991C56.3076 17.7001 57.4633 18.5841 57.8602 19.8023H54.9447C54.4269 19.8023 54.007 20.2177 54.007 20.7302V22.7095C54.007 24.3127 55.3249 25.6168 56.9449 25.6168H58.0076V29.6994H55.5559C54.7505 27.3981 52.5399 25.7405 49.944 25.7405C47.3481 25.7405 45.1373 27.3981 44.332 29.6994H43.8806V22.7094C43.8806 22.1971 43.4608 21.7815 42.9429 21.7815C42.4251 21.7815 42.0053 22.1969 42.0053 22.7094V29.6991H22.5517C21.7463 27.3979 19.5357 25.7402 16.9398 25.7402C14.3439 25.7402 12.1331 27.3979 11.3278 29.6991H5.93825C5.90374 29.6991 5.87579 29.6715 5.87579 29.6373V27.596H9.93883C10.4566 27.596 10.8765 27.1806 10.8765 26.6681C10.8765 26.1556 10.4567 25.7402 9.93883 25.7402H0.937661C0.419883 25.7402 0 26.1556 0 26.6681C0 27.1806 0.419766 27.596 0.937661 27.596H4.00059V29.6373C4.00059 30.6947 4.86982 31.5549 5.93836 31.5549H11.0032C11.0029 31.5755 11.0015 31.596 11.0015 31.6167C11.0015 34.857 13.6655 37.4931 16.9398 37.4931C20.214 37.4931 22.878 34.857 22.878 31.6167C22.878 31.5959 22.8766 31.5755 22.8764 31.5549H44.0074C44.0071 31.5755 44.0057 31.596 44.0057 31.6167C44.0057 34.857 46.6697 37.4931 49.944 37.4931C53.2182 37.4931 55.8822 34.857 55.8822 31.6167C55.8822 31.5959 55.8808 31.5755 55.8806 31.5549H58.9453C59.463 31.5549 59.8829 31.1395 59.8829 30.627V20.7299C59.8829 18.2864 58.0612 16.2562 55.691 15.8991ZM43.8809 5.82251H50.9443C52.0818 5.82251 53.0071 6.73825 53.0071 7.86383V7.92564H43.8809V5.82251ZM43.8809 15.8433V9.78131H52.2125L53.744 15.8433H43.8809ZM16.9398 35.6377C14.6994 35.6377 12.8767 33.8341 12.8767 31.617C12.8767 29.3998 14.6994 27.5962 16.9398 27.5962C19.1801 27.5962 21.0028 29.3998 21.0028 31.617C21.0028 33.8341 19.1801 35.6377 16.9398 35.6377ZM49.9442 35.6377C47.7039 35.6377 45.8812 33.8341 45.8812 31.617C45.8812 29.3998 47.7039 27.5962 49.9442 27.5962C52.1846 27.5962 54.0073 29.3998 54.0073 31.617C54.0073 33.8341 52.1846 35.6377 49.9442 35.6377ZM58.0078 23.7611H56.9451C56.3592 23.7611 55.8825 23.2893 55.8825 22.7094V21.6578H58.0077V23.7611H58.0078Z" fill="black"/>
<path d="M16.9397 29.6992C15.8712 29.6992 15.002 30.5594 15.002 31.6168C15.002 32.6742 15.8712 33.5344 16.9397 33.5344C18.0083 33.5344 18.8775 32.6742 18.8775 31.6168C18.8775 30.5594 18.0083 29.6992 16.9397 29.6992Z" fill="black"/>
<path d="M49.9446 29.6992C48.8761 29.6992 48.0068 30.5594 48.0068 31.6168C48.0068 32.6742 48.8761 33.5344 49.9446 33.5344C51.0131 33.5344 51.8824 32.6742 51.8824 31.6168C51.8824 30.5594 51.0131 29.6992 49.9446 29.6992Z" fill="black"/>
<path d="M38.9425 25.7402H24.9406C24.4228 25.7402 24.0029 26.1556 24.0029 26.6681C24.0029 27.1806 24.4227 27.596 24.9406 27.596H38.9425C39.4602 27.596 39.8801 27.1806 39.8801 26.6681C39.8801 26.1556 39.4604 25.7402 38.9425 25.7402Z" fill="black"/>
<path d="M14.9393 21.7812H2.93766C2.41988 21.7812 2 22.1966 2 22.7091C2 23.2216 2.41977 23.637 2.93766 23.637H14.9393C15.4571 23.637 15.877 23.2216 15.877 22.7091C15.877 22.1966 15.4571 21.7812 14.9393 21.7812Z" fill="black"/>
<path d="M32.6044 9.1877C32.2384 8.82543 31.6446 8.82543 31.2785 9.18782L22.9402 17.4391L18.6026 13.1466C18.2364 12.7842 17.6427 12.7842 17.2766 13.1466C16.9104 13.509 16.9104 14.0964 17.2766 14.4588L22.2773 19.4074C22.4603 19.5886 22.7003 19.6791 22.9402 19.6791C23.1801 19.6791 23.4202 19.5886 23.6032 19.4074L32.6043 10.5C32.9705 10.1375 32.9705 9.55009 32.6044 9.1877Z" fill="black"/>
</svg>
