<svg width="357" height="274" viewBox="0 0 357 274" fill="none" xmlns="http://www.w3.org/2000/svg">
<path d="M19.0607 150.423C22.9734 146.717 24.9307 141.859 24.9307 137C24.9307 132.141 22.9734 127.283 19.0607 123.577L5.87001 111.083C1.95731 107.378 0 102.519 0 97.6604C0 92.8035 1.95731 87.945 5.87001 84.2373L19.0607 71.7456C22.9734 68.0379 24.9307 63.1811 24.9307 58.3225C24.9307 53.4639 22.9734 48.6053 19.0607 44.8994L5.87001 32.4059C1.95731 28.7 0 23.8414 0 18.9828C0 14.1242 1.95731 9.26569 5.87001 5.55978C9.78458 1.85211 14.9144 0 20.0422 0H336.958C342.086 0 347.217 1.85388 351.13 5.55978C355.043 9.26569 357 14.1242 357 18.9828C357 23.8414 355.043 28.7 351.13 32.4059L337.941 44.8994C334.027 48.6053 332.069 53.4639 332.071 58.3225C332.071 63.1811 334.027 68.0379 337.941 71.7456L351.13 84.2373C355.043 87.945 357 92.8035 357 97.6604C357 102.519 355.043 107.378 351.13 111.083L337.941 123.577C334.027 127.283 332.071 132.141 332.071 137C332.071 141.859 334.027 146.717 337.941 150.423L351.13 162.917C355.043 166.622 357 171.481 357 176.34C357 181.196 355.043 186.055 351.13 189.763L337.941 202.254C334.027 205.962 332.071 210.819 332.071 215.678C332.071 220.536 334.027 225.395 337.941 229.101L351.13 241.594C355.043 245.3 357 250.159 357 255.017C357 259.876 355.043 264.733 351.13 268.44C347.217 272.146 342.088 274 336.958 274C331.828 274 25.1737 274 20.0422 274C14.9144 274 9.78458 272.146 5.87001 268.44C1.95731 264.733 0 259.876 0 255.017C0 250.159 1.95731 245.3 5.87001 241.594L19.0607 229.101C22.9734 225.395 24.9307 220.536 24.9307 215.678C24.9307 210.819 22.9734 205.96 19.0607 202.254L5.87001 189.763C1.95731 186.055 0 181.196 0 176.34C0 171.481 1.95731 166.622 5.87001 162.915L19.0607 150.423Z" fill="#1F4FCC"/>
</svg>
