<svg width="377" height="274" viewBox="0 0 377 274" fill="none" xmlns="http://www.w3.org/2000/svg">
<path d="M19.0607 150.423C22.9734 146.717 24.9307 141.859 24.9307 137C24.9307 132.141 22.9734 127.283 19.0607 123.577L5.87001 111.083C1.95731 107.378 0 102.519 0 97.6604C0 92.8035 1.95731 87.945 5.87001 84.2373L19.0607 71.7456C22.9734 68.0379 24.9307 63.1811 24.9307 58.3225C24.9307 53.4639 22.9734 48.6053 19.0607 44.8994L5.87001 32.4059C1.95731 28.7 0 23.8414 0 18.9828C0 14.1242 1.95731 9.26569 5.87001 5.55978C9.78457 1.85211 14.9144 0 20.0422 0H356.958C362.086 0 367.217 1.85388 371.13 5.55978C375.043 9.26569 377 14.1242 377 18.9828C377 23.8414 375.043 28.7 371.13 32.4059L357.941 44.8994C354.027 48.6053 352.069 53.4639 352.071 58.3225C352.071 63.1811 354.027 68.0379 357.941 71.7456L371.13 84.2373C375.043 87.945 377 92.8035 377 97.6604C377 102.519 375.043 107.378 371.13 111.083L357.941 123.577C354.027 127.283 352.071 132.141 352.071 137C352.071 141.859 354.027 146.717 357.941 150.423L371.13 162.917C375.043 166.622 377 171.481 377 176.34C377 181.196 375.043 186.055 371.13 189.763L357.941 202.254C354.027 205.962 352.071 210.819 352.071 215.678C352.071 220.536 354.027 225.395 357.941 229.101L371.13 241.594C375.043 245.3 377 250.159 377 255.017C377 259.876 375.043 264.733 371.13 268.44C367.217 272.146 362.088 274 356.958 274C351.828 274 25.1737 274 20.0422 274C14.9144 274 9.78457 272.146 5.87001 268.44C1.95731 264.733 0 259.876 0 255.017C0 250.159 1.95731 245.3 5.87001 241.594L19.0607 229.101C22.9734 225.395 24.9307 220.536 24.9307 215.678C24.9307 210.819 22.9734 205.96 19.0607 202.254L5.87001 189.763C1.95731 186.055 0 181.196 0 176.34C0 171.481 1.95731 166.622 5.87001 162.915L19.0607 150.423Z" fill="#19714B"/>
</svg>
