<svg width="38" height="36" viewBox="0 0 38 36" fill="none" xmlns="http://www.w3.org/2000/svg">
<path fill-rule="evenodd" clip-rule="evenodd" d="M19 36C24.801 36 29.9947 32.3352 33.4798 28.3316C36.2989 25.0932 38 22.0219 38 17.4375C38 11.5369 35.182 6.8419 30.7891 3.44189C27.5496 0.934637 23.4538 0 19 0C14.7481 0 10.8224 1.17978 7.65669 3.26527C3.00956 6.32664 0 10.2147 0 16.3125C0 21.5834 1.6729 27.201 5.28412 30.869C8.69666 34.3351 13.9017 36 19 36Z" fill="#FF3C81"/>
<path fill-rule="evenodd" clip-rule="evenodd" d="M28.3336 22.958C25.3587 24.6007 22.2985 25.4791 19.1542 25.5943C15.8648 25.7147 13.0143 24.9387 10.6016 23.2692C13.5094 27.0987 16.3527 29.0377 19.1477 29.0377C22.3026 29.0377 25.359 26.9963 28.3336 22.958Z" fill="#171616" stroke="#282424"/>
<path fill-rule="evenodd" clip-rule="evenodd" d="M12.3597 11.8485C11.0407 10.3799 10.1042 10.3174 9.55002 11.6609C8.99584 13.0044 10.1208 14.2117 12.9249 15.2828C15.4548 14.1177 16.2475 12.7602 15.3029 11.2105C14.3583 9.6608 13.3772 9.87346 12.3597 11.8485Z" fill="#171616"/>
<path fill-rule="evenodd" clip-rule="evenodd" d="M25.0847 11.9086C24.311 10.0955 23.421 9.71573 22.4148 10.7692C21.4085 11.8228 22.0842 13.3273 24.4417 15.2828C27.3093 15.0735 28.5525 14.089 28.1714 12.3294C27.7903 10.5698 26.7614 10.4296 25.0847 11.9086Z" fill="#171616"/>
</svg>
