<svg width="20" height="30" viewBox="0 0 20 30" fill="none" xmlns="http://www.w3.org/2000/svg">
<path d="M7.5 5.26971V1.87502C7.5 1.52955 7.22045 1.25 6.87498 1.25H3.12498C2.77957 1.25 2.50002 1.52955 2.50002 1.87502V5.26971C0.953086 6.1976 0 7.84285 0 9.6698V27.5C0 28.8788 1.12184 30 2.50002 30H7.5C8.87818 30 10 28.8788 10 27.5V9.6698C10 7.84291 9.04693 6.1976 7.5 5.26971ZM3.75 2.50004H6.25002V3.12506C5.90484 3.12506 5.625 3.40484 5.625 3.75008C5.625 4.09525 5.90484 4.3751 6.25002 4.3751V5.00012H3.75V2.50004ZM8.75004 27.5C8.75004 28.1891 8.1897 28.75 7.50006 28.75H2.50002C1.81031 28.75 1.25004 28.1891 1.25004 27.5V10H8.75004V27.5ZM1.365 8.75C1.61924 7.69355 2.29945 6.784 3.27885 6.24998H6.72123C7.70062 6.78394 8.38084 7.69355 8.63508 8.75H1.365Z" fill="#212529"/>
<path d="M12.5 3.75002C12.5 3.40455 12.2205 3.125 11.875 3.125H10C9.65455 3.125 9.375 3.40455 9.375 3.75002C9.375 4.09549 9.65455 4.37504 10 4.37504H11.875C12.2205 4.37504 12.5 4.09549 12.5 3.75002Z" fill="#212529"/>
<path d="M11.25 5.62502C11.25 5.97049 11.5296 6.25004 11.875 6.25004H14.375C14.7205 6.25004 15.0001 5.97049 15.0001 5.62502C15.0001 5.27955 14.7205 5 14.375 5H11.875C11.5296 5 11.25 5.27955 11.25 5.62502Z" fill="#212529"/>
<path d="M18.1116 2.75572C18.1201 2.67029 18.125 2.58545 18.125 2.49996C18.125 1.12119 17.0031 0 15.625 0C14.2468 0 13.1249 1.12119 13.1249 2.50002C13.1249 2.84549 13.4045 3.12504 13.75 3.12504C14.0954 3.12504 14.375 2.84549 14.375 2.50002C14.375 1.81096 14.9353 1.25004 15.625 1.25004C16.3147 1.25004 16.8749 1.81096 16.8749 2.50002C16.8749 2.64773 16.8456 2.7985 16.787 2.94803C16.7199 3.12018 16.7321 3.31301 16.8212 3.47537C16.9091 3.63709 17.0654 3.75123 17.246 3.78785C18.1176 3.9624 18.7499 4.73514 18.7499 5.625C18.7499 6.47766 18.1689 7.22168 17.3364 7.43408C17.0507 7.50732 16.8628 7.82959 16.8749 8.12502C16.8749 8.99842 15.9337 9.6692 15.0719 9.23771C14.7717 9.08695 14.4054 9.20168 14.2431 9.49775C14.0722 9.81211 13.7706 10.0001 13.4374 10.0001C12.921 10.0001 12.4999 9.57955 12.4999 9.06258C12.4999 8.71711 12.2204 8.43756 11.8749 8.43756C11.5294 8.43756 11.2499 8.71711 11.2499 9.06258C11.2499 10.2686 12.2313 11.2501 13.4374 11.2501C14.0404 11.2501 14.6105 10.9894 15.0182 10.5469C16.4024 10.9071 17.8331 9.94998 18.0772 8.50166C19.2284 8.02254 19.9999 6.89643 19.9999 5.62506C20 4.36219 19.2358 3.241 18.1116 2.75572Z" fill="#212529"/>
</svg>
