<svg width="30" height="30" viewBox="0 0 30 30" fill="none" xmlns="http://www.w3.org/2000/svg">
<path d="M12.5 5.26971V1.87502C12.5 1.52955 12.2204 1.25 11.875 1.25H8.12498C7.77957 1.25 7.50002 1.52955 7.50002 1.87502V5.26971C5.95309 6.1976 5 7.84285 5 9.6698V27.5C5 28.8788 6.12184 30 7.50002 30H12.5C13.8782 30 15 28.8788 15 27.5V9.6698C15 7.84291 14.0469 6.1976 12.5 5.26971ZM8.75 2.50004H11.25V3.12506C10.9048 3.12506 10.625 3.40484 10.625 3.75008C10.625 4.09525 10.9048 4.3751 11.25 4.3751V5.00012H8.75V2.50004ZM13.75 27.5C13.75 28.1891 13.1897 28.75 12.5001 28.75H7.50002C6.81031 28.75 6.25004 28.1891 6.25004 27.5V10H13.75V27.5ZM6.365 8.75C6.61924 7.69355 7.29945 6.784 8.27885 6.24998H11.7212C12.7006 6.78394 13.3808 7.69355 13.6351 8.75H6.365Z" fill="#212529"/>
<path d="M17.5 3.75002C17.5 3.40455 17.2205 3.125 16.875 3.125H15C14.6546 3.125 14.375 3.40455 14.375 3.75002C14.375 4.09549 14.6546 4.37504 15 4.37504H16.875C17.2205 4.37504 17.5 4.09549 17.5 3.75002Z" fill="#212529"/>
<path d="M16.25 5.62502C16.25 5.97049 16.5296 6.25004 16.875 6.25004H19.375C19.7205 6.25004 20.0001 5.97049 20.0001 5.62502C20.0001 5.27955 19.7205 5 19.375 5H16.875C16.5296 5 16.25 5.27955 16.25 5.62502Z" fill="#212529"/>
<path d="M23.1116 2.75572C23.1201 2.67029 23.125 2.58545 23.125 2.49996C23.125 1.12119 22.0031 0 20.625 0C19.2468 0 18.1249 1.12119 18.1249 2.50002C18.1249 2.84549 18.4045 3.12504 18.75 3.12504C19.0954 3.12504 19.375 2.84549 19.375 2.50002C19.375 1.81096 19.9353 1.25004 20.625 1.25004C21.3147 1.25004 21.8749 1.81096 21.8749 2.50002C21.8749 2.64773 21.8456 2.7985 21.787 2.94803C21.7199 3.12018 21.7321 3.31301 21.8212 3.47537C21.9091 3.63709 22.0654 3.75123 22.246 3.78785C23.1176 3.9624 23.7499 4.73514 23.7499 5.625C23.7499 6.47766 23.1689 7.22168 22.3364 7.43408C22.0507 7.50732 21.8628 7.82959 21.8749 8.12502C21.8749 8.99842 20.9337 9.6692 20.0719 9.23771C19.7717 9.08695 19.4054 9.20168 19.2431 9.49775C19.0722 9.81211 18.7706 10.0001 18.4374 10.0001C17.921 10.0001 17.4999 9.57955 17.4999 9.06258C17.4999 8.71711 17.2204 8.43756 16.8749 8.43756C16.5294 8.43756 16.2499 8.71711 16.2499 9.06258C16.2499 10.2686 17.2313 11.2501 18.4374 11.2501C19.0404 11.2501 19.6105 10.9894 20.0182 10.5469C21.4024 10.9071 22.8331 9.94998 23.0772 8.50166C24.2284 8.02254 24.9999 6.89643 24.9999 5.62506C25 4.36219 24.2358 3.241 23.1116 2.75572Z" fill="#212529"/>
</svg>
