<svg width="92" height="17" viewBox="0 0 92 17" fill="none" xmlns="http://www.w3.org/2000/svg">
<rect y="0.285645" width="16.4503" height="16.4286" fill="#00B67E"/>
<path d="M8.22523 2.11084L9.87975 6.22549L14.3095 6.52545L10.9023 9.36841L11.9855 13.6684L8.22523 11.3108L4.46496 13.6684L5.54817 9.36841L2.14099 6.52545L6.57071 6.22549L8.22523 2.11084Z" fill="white"/>
<rect x="18.8873" y="0.285645" width="16.4503" height="16.4286" fill="#00B67E"/>
<path d="M27.1126 2.11084L28.7671 6.22549L33.1968 6.52545L29.7896 9.36841L30.8728 13.6684L27.1126 11.3108L23.3523 13.6684L24.4355 9.36841L21.0283 6.52545L25.458 6.22549L27.1126 2.11084Z" fill="white"/>
<rect x="37.7749" y="0.285645" width="16.4503" height="16.4286" fill="#00B67E"/>
<path d="M46.0001 2.11084L47.6546 6.22549L52.0843 6.52545L48.6771 9.36841L49.7603 13.6684L46.0001 11.3108L42.2398 13.6684L43.323 9.36841L39.9158 6.52545L44.3456 6.22549L46.0001 2.11084Z" fill="white"/>
<rect x="56.6622" y="0.285645" width="16.4503" height="16.4286" fill="#00B67E"/>
<path d="M64.8875 2.11084L66.542 6.22549L70.9717 6.52545L67.5645 9.36841L68.6477 13.6684L64.8875 11.3108L61.1272 13.6684L62.2104 9.36841L58.8032 6.52545L63.2329 6.22549L64.8875 2.11084Z" fill="white"/>
<rect x="75.5497" y="0.285645" width="16.4503" height="16.4286" fill="#00B67E"/>
<path d="M83.7749 2.11084L85.4294 6.22549L89.8591 6.52545L86.4519 9.36841L87.5351 13.6684L83.7749 11.3108L80.0146 13.6684L81.0978 9.36841L77.6906 6.52545L82.1203 6.22549L83.7749 2.11084Z" fill="white"/>
</svg>
