<svg width="54" height="41" viewBox="0 0 54 41" fill="none" xmlns="http://www.w3.org/2000/svg">
<path d="M21.6742 17.8852L22.1613 8.75401C22.2055 8.22466 21.807 7.82765 21.2756 7.91587C20.7442 7.95999 20.3014 8.44522 20.2571 8.93046L19.77 18.0617C19.2829 18.3705 18.8844 18.8116 18.7073 19.341L7.4154 20.2673C6.88402 20.3114 6.4412 20.7525 6.39692 21.2819C6.35263 21.8112 6.75117 22.1641 7.28255 22.1641C7.28255 22.1641 7.28255 22.1641 7.32683 22.1641L18.973 21.1937C19.3272 21.6348 19.8586 21.8554 20.4785 21.8554C21.6299 21.8112 22.6484 20.8408 22.7369 19.6939C22.7812 18.8557 22.3384 18.1499 21.6742 17.8852Z" fill="#F9B749"/>
<path d="M29.8665 9.41572C29.6893 9.54806 29.4236 9.68039 29.0251 9.85684C28.6266 10.0333 28.3166 10.2097 28.1395 10.298C27.2981 10.6509 26.811 10.9155 26.5896 11.0479L26.8996 7.82768C27.5195 7.47478 28.3166 7.03365 29.2465 6.41608C30.1764 5.79851 30.8407 5.26916 31.2392 4.82804L34.5161 4.43103L32.4348 27.2371L28.228 27.7664L29.8665 9.41572Z" fill="#FF3C7F"/>
<path d="M35.2687 23.7963L41.4239 14.6209L41.911 13.9151C42.6638 12.7682 43.2395 11.8419 43.5937 11.0919C43.9923 10.342 44.2137 9.54802 44.3022 8.75399C44.3908 8.00409 44.3022 7.47474 44.0365 7.12184C43.8151 6.76894 43.4166 6.6366 42.8852 6.68072C42.1324 6.76894 41.6011 7.12184 41.2468 7.78352C40.8925 8.4011 40.6711 9.28334 40.5826 10.2979L40.494 11.3566L36.3758 11.886L36.4644 10.739C36.6415 8.62166 37.3057 6.85717 38.3685 5.48968C39.4755 4.1222 41.0254 3.28407 43.1066 3.06351C45.0108 2.84295 46.4278 3.15173 47.3134 4.07809C48.199 5.00445 48.5976 6.41604 48.4205 8.31287C48.3319 9.45979 48.0219 10.5626 47.4905 11.5331C47.0034 12.5035 46.2064 13.7387 45.2322 15.2385L44.8779 15.7678L40.0069 22.8699L46.5606 22.0318L46.2506 25.4725L35.0031 26.8841L35.2687 23.7963Z" fill="#FF3C7F"/>
<path d="M22.0726 30.4131L24.1538 30.1484L23.7553 34.4714L25.5709 34.2509L25.9694 29.9279L28.0506 29.6632L27.0764 40.2502L24.9952 40.5148L25.438 35.7948L23.6225 36.0154L23.1796 40.7354L21.0984 41.0001L22.0726 30.4131Z" fill="#FF3C7F"/>
<path d="M28.6263 39.3238C28.2278 38.7945 28.0507 37.9563 28.1835 36.8094L28.5378 32.8393C28.6263 31.6924 28.9363 30.8101 29.4677 30.1926C29.9991 29.575 30.7961 29.178 31.8589 29.0457C32.9217 28.9133 33.6745 29.0898 34.1173 29.6191C34.5158 30.1485 34.6929 30.9866 34.6044 32.0894L34.2501 36.0595C34.1616 37.2064 33.8516 38.0887 33.3202 38.7504C32.7888 39.412 31.9917 39.809 30.929 39.9414C29.7777 40.0296 29.0249 39.8532 28.6263 39.3238ZM31.7703 37.9122C31.9032 37.6475 31.9917 37.2946 32.036 36.8535L32.4788 31.8247C32.5231 31.3836 32.4788 31.0748 32.3903 30.8543C32.3017 30.6337 32.0803 30.5455 31.7261 30.5896C31.3718 30.6337 31.1061 30.766 30.9733 31.0307C30.8404 31.2954 30.7519 31.6483 30.7076 32.0894L30.2648 37.1182C30.2205 37.5593 30.2648 37.9122 30.3533 38.1328C30.4419 38.3533 30.6633 38.4416 31.0618 38.3975C31.3718 38.3092 31.6375 38.1769 31.7703 37.9122Z" fill="#FF3C7F"/>
<path d="M35.8001 38.8826C35.4016 38.662 35.1359 38.3091 35.003 37.8239C34.8702 37.3387 34.8259 36.7211 34.9145 35.9271L35.5787 28.6927L37.6157 28.428L36.9072 35.9712C36.8629 36.4564 36.8629 36.8534 36.9957 37.1181C37.0843 37.3828 37.3057 37.5151 37.7042 37.471C38.0585 37.4269 38.3242 37.2504 38.457 36.9417C38.5899 36.6329 38.6784 36.2359 38.7227 35.7506L39.4312 28.2074L41.5125 27.9427L40.8483 35.1772C40.7597 35.9712 40.6268 36.6329 40.4054 37.1622C40.184 37.6916 39.8298 38.1327 39.3869 38.4415C38.9441 38.7503 38.3242 38.9708 37.5714 39.059C36.7743 39.1914 36.1987 39.1032 35.8001 38.8826Z" fill="#FF3C7F"/>
<path d="M42.3094 27.8545L44.9663 27.5016C46.0734 27.3693 46.8704 27.4575 47.4018 27.8104C47.9332 28.1633 48.1103 28.8691 48.0218 29.8837C47.9775 30.5895 47.8004 31.1189 47.5789 31.6041C47.3575 32.0452 47.0033 32.3981 46.5162 32.7069L47.4461 37.6916L45.3206 37.9563L44.6121 33.2804L43.8593 33.3686L43.4165 38.1768L41.3352 38.4415L42.3094 27.8545ZM44.6121 32.0452C45.0992 32.0011 45.4534 31.8247 45.6748 31.56C45.8962 31.2953 46.0291 30.8983 46.0734 30.3689C46.1176 29.8396 46.0734 29.4867 45.8962 29.2661C45.7634 29.0456 45.4534 28.9574 44.9663 29.0015L44.2578 29.0897L43.9921 32.1334L44.6121 32.0452Z" fill="#FF3C7F"/>
<path d="M48.6417 36.8976C48.1988 36.4124 48.0217 35.6184 48.1103 34.5156L49.9258 33.9862C49.8815 34.6479 49.9258 35.1332 50.0587 35.4419C50.1915 35.7507 50.4129 35.8831 50.7672 35.839C51.0329 35.7948 51.21 35.7066 51.3428 35.5302C51.4757 35.3537 51.52 35.1332 51.5643 34.8685C51.6085 34.4715 51.5643 34.1186 51.3871 33.8539C51.2543 33.5892 50.9886 33.2804 50.6343 33.0158L49.6601 32.1776C49.2616 31.8688 48.9959 31.5159 48.8188 31.1189C48.6417 30.7219 48.5531 30.2367 48.6417 29.6632C48.7302 28.781 49.0402 28.1193 49.5716 27.59C50.103 27.0606 50.8115 26.7518 51.6971 26.6195C52.627 26.4872 53.247 26.7077 53.5569 27.1929C53.8669 27.7223 53.9998 28.384 53.9998 29.2221L52.1842 29.7073C52.2285 29.1339 52.1842 28.7369 52.0956 28.4722C52.0071 28.2075 51.83 28.1193 51.52 28.1634C51.2986 28.2075 51.1214 28.2958 50.9443 28.5163C50.8115 28.6928 50.7229 28.9133 50.6786 29.178C50.6343 29.5309 50.6786 29.7956 50.8115 30.0161C50.9443 30.2367 51.1657 30.4573 51.4314 30.7219L52.3613 31.516C52.8041 31.913 53.1584 32.31 53.3798 32.7952C53.6012 33.2363 53.6898 33.8098 53.6455 34.4715C53.6012 34.9567 53.4684 35.4419 53.2027 35.8831C52.937 36.3242 52.627 36.6771 52.1842 36.9418C51.7414 37.2064 51.2986 37.3829 50.7672 37.4711C49.7487 37.5593 49.0402 37.3829 48.6417 36.8976Z" fill="#FF3C7F"/>
<path d="M22.2499 0.0197328C11.1795 0.504968 1.26032 9.85677 0.108995 20.8848C-1.04233 31.8688 7.06125 40.4266 18.0874 39.8972C18.486 39.8972 18.8845 39.8531 19.283 39.809L19.6373 36.5888C19.2388 36.6329 18.8402 36.677 18.3974 36.677C9.14249 37.1182 2.36737 29.9279 3.34157 20.7525C4.36005 11.4889 12.6408 3.68105 21.9399 3.23993C24.5083 3.10759 26.8552 3.59283 28.9365 4.51919C29.2907 4.25451 30.2207 3.41638 30.5306 3.01937L32.8333 2.75469C29.9107 0.857866 26.2796 -0.156716 22.2499 0.0197328Z" fill="#F9B749"/>
</svg>
