<svg width="11" height="11" viewBox="0 0 11 11" fill="none" xmlns="http://www.w3.org/2000/svg">
<path fill-rule="evenodd" clip-rule="evenodd" d="M5.79158 0.487305C4.46205 0.487305 3.18697 1.01546 2.24684 1.95558C1.30672 2.89571 0.778564 4.17079 0.778564 5.50033C0.778564 6.82986 1.30672 8.10494 2.24684 9.04507C3.18697 9.98519 4.46205 10.5133 5.79158 10.5133C7.12112 10.5133 8.3962 9.98519 9.33633 9.04507C10.2764 8.10494 10.8046 6.82986 10.8046 5.50033C10.8046 4.17079 10.2764 2.89571 9.33633 1.95558C8.3962 1.01546 7.12112 0.487305 5.79158 0.487305ZM5.79158 9.74211C4.66659 9.74211 3.58768 9.29521 2.79219 8.49972C1.9967 7.70423 1.5498 6.62532 1.5498 5.50033C1.5498 4.37533 1.9967 3.29642 2.79219 2.50093C3.58768 1.70544 4.66659 1.25854 5.79158 1.25854C6.91658 1.25854 7.99549 1.70544 8.79098 2.50093C9.58647 3.29642 10.0334 4.37533 10.0334 5.50033C10.0334 6.62532 9.58647 7.70423 8.79098 8.49972C7.99549 9.29521 6.91658 9.74211 5.79158 9.74211ZM6.987 3.24832C6.85376 3.10958 6.6937 2.99937 6.51654 2.9244C6.29366 2.83516 6.05468 2.79314 5.81472 2.80101C5.58181 2.79678 5.35061 2.84144 5.13604 2.93212C4.95171 3.00924 4.78898 3.12801 4.65787 3.27917C4.53015 3.41809 4.43062 3.58048 4.3648 3.75734C4.30361 3.93699 4.26476 4.12348 4.24912 4.31262H5.19773C5.20211 4.19022 5.24109 4.07156 5.31016 3.97041C5.37923 3.86926 5.47556 3.78976 5.58798 3.74114C5.66249 3.71178 5.74247 3.69889 5.82243 3.70335C5.89141 3.69239 5.96169 3.69239 6.03067 3.70335C6.09404 3.72732 6.15179 3.76407 6.20034 3.81132C6.25392 3.85769 6.29614 3.91574 6.32374 3.98099C6.35533 4.05398 6.3711 4.13284 6.37001 4.21236C6.37001 4.34579 6.34148 4.4769 6.28517 4.59798C6.22916 4.72361 6.15932 4.8426 6.07694 4.95275L5.80701 5.27667C5.71446 5.37693 5.62191 5.4849 5.53708 5.59287C5.45482 5.70035 5.38496 5.81677 5.32884 5.93993C5.27534 6.06131 5.24902 6.19292 5.25172 6.32555V6.83456H6.1772V6.45666C6.17982 6.34354 6.20887 6.23261 6.26204 6.13274C6.32542 6.02171 6.39764 5.91597 6.47798 5.81653L6.75563 5.47719C6.8567 5.36042 6.94948 5.23672 7.03327 5.107C7.1219 4.97472 7.1944 4.83231 7.24922 4.68282C7.30546 4.52434 7.33416 4.35739 7.33405 4.18923C7.33543 4.01402 7.3094 3.83967 7.25693 3.6725C7.19869 3.51325 7.10659 3.36853 6.987 3.24832ZM5.25172 7.2973H6.15406V8.19964H5.25172V7.2973Z" fill="#0C0B0B"/>
</svg>
