<svg width="24" height="24" viewBox="0 0 24 24" fill="none" xmlns="http://www.w3.org/2000/svg">
<path d="M21.4502 19.0005C21.2148 17.8442 20.1318 16.9624 18.9502 17.0005C18.7363 15.959 17.8672 15.1509 16.7363 15.019C16.5658 14.717 16.3196 14.4704 16.0304 14.2939L16.7236 13.9472C16.8926 13.8622 17 13.6894 17 13.5V3.90787C17.5807 3.70083 18 3.15098 18 2.49998C18 1.67283 17.3272 0.999984 16.5 0.999984H6.99998V0.500016C6.99998 0.223641 6.77639 0 6.50002 0H4.5C4.22363 0 3.99998 0.223641 3.99998 0.500016V1.00003H1.5C0.672844 1.00003 0 1.67287 0 2.50003C0 3.15103 0.41925 3.70083 0.999984 3.90792V21.0921C0.41925 21.2992 0 21.849 0 22.5C0 23.3272 0.672844 24 1.5 24H16.5H21.5C22.8789 24 24 22.8784 24 21.5C24 20.105 22.8232 18.957 21.4502 19.0005ZM1.5 2.00002H16.5C16.7754 2.00002 17 2.22412 17 2.50003C17 2.77589 16.7754 3 16.5 3H1.5C1.22461 3 0.999984 2.77589 0.999984 2.49998C0.999984 2.22412 1.22461 2.00002 1.5 2.00002ZM13.584 17.7773L14.584 19.2773C14.709 19.4644 14.9453 19.5454 15.1582 19.4741L16 19.1939V21H2.00002V3.99998H16V13.1909L14.2764 14.0527C14.1338 14.1245 14.0332 14.2602 14.0069 14.418L13.5068 17.418C13.4863 17.543 13.5137 17.6719 13.584 17.7773ZM16.5 23H1.5C1.22461 23 0.999984 22.7759 0.999984 22.5C0.999984 22.2241 1.22461 22 1.5 22H16.5C16.7754 22 17 22.2241 17 22.5C17 22.7759 16.7754 23 16.5 23ZM21.5 23H17.9079C17.9639 22.8428 18 22.6762 18 22.5C18 21.849 17.5807 21.2992 17 21.0921V18.5C17 18.3394 16.9229 18.1885 16.792 18.0943C16.6611 18.0005 16.4951 17.9727 16.3418 18.0259L15.2041 18.4048L14.5254 17.3873L14.9234 15H15C15.418 15 15.7949 15.2685 15.9375 15.668C16.0078 15.8672 16.2881 16 16.5 16C17.3272 16 18 16.6728 17.9922 17.5537C17.9863 17.7119 18.0556 17.8643 18.1797 17.9634C18.3027 18.063 18.4688 18.0977 18.6191 18.0567C18.7666 18.0181 18.8877 18 19 18C19.8271 18 20.5 18.6729 20.4922 19.5538C20.4863 19.712 20.5556 19.8643 20.6797 19.9635C20.8027 20.0626 20.9687 20.0987 21.1191 20.0567C21.2666 20.0182 21.3877 20.0001 21.5 20.0001C22.3271 20.0001 23 20.673 23 21.5001C23 22.3273 22.3272 23 21.5 23Z" fill="#212529"/>
</svg>
