<svg width="314" height="92" viewBox="0 0 314 92" fill="none" xmlns="http://www.w3.org/2000/svg">
<rect width="314" height="92" rx="15" fill="white"/>
<path d="M43.0781 20.9531V21.6719C43.0781 22.526 42.9714 23.2917 42.7578 23.9688C42.5443 24.6458 42.237 25.2214 41.8359 25.6953C41.4349 26.1693 40.9531 26.5312 40.3906 26.7812C39.8333 27.0312 39.2083 27.1562 38.5156 27.1562C37.8438 27.1562 37.2266 27.0312 36.6641 26.7812C36.1068 26.5312 35.6224 26.1693 35.2109 25.6953C34.8047 25.2214 34.4896 24.6458 34.2656 23.9688C34.0417 23.2917 33.9297 22.526 33.9297 21.6719V20.9531C33.9297 20.099 34.0391 19.3359 34.2578 18.6641C34.4818 17.987 34.7969 17.4115 35.2031 16.9375C35.6094 16.4583 36.0911 16.0938 36.6484 15.8438C37.2109 15.5938 37.8281 15.4688 38.5 15.4688C39.1927 15.4688 39.8177 15.5938 40.375 15.8438C40.9375 16.0938 41.4193 16.4583 41.8203 16.9375C42.2266 17.4115 42.5365 17.987 42.75 18.6641C42.9688 19.3359 43.0781 20.099 43.0781 20.9531ZM41.5859 21.6719V20.9375C41.5859 20.2604 41.5156 19.6615 41.375 19.1406C41.2396 18.6198 41.0391 18.1823 40.7734 17.8281C40.5078 17.474 40.1823 17.2057 39.7969 17.0234C39.4167 16.8411 38.9844 16.75 38.5 16.75C38.0312 16.75 37.6068 16.8411 37.2266 17.0234C36.8516 17.2057 36.5286 17.474 36.2578 17.8281C35.9922 18.1823 35.7865 18.6198 35.6406 19.1406C35.4948 19.6615 35.4219 20.2604 35.4219 20.9375V21.6719C35.4219 22.3542 35.4948 22.9583 35.6406 23.4844C35.7865 24.0052 35.9948 24.4453 36.2656 24.8047C36.5417 25.1589 36.8672 25.4271 37.2422 25.6094C37.6224 25.7917 38.0469 25.8828 38.5156 25.8828C39.0052 25.8828 39.4401 25.7917 39.8203 25.6094C40.2005 25.4271 40.5208 25.1589 40.7812 24.8047C41.0469 24.4453 41.2474 24.0052 41.3828 23.4844C41.5182 22.9583 41.5859 22.3542 41.5859 21.6719ZM50.2891 25.0469V18.5469H51.7422V27H50.3594L50.2891 25.0469ZM50.5625 23.2656L51.1641 23.25C51.1641 23.8125 51.1042 24.3333 50.9844 24.8125C50.8698 25.2865 50.6823 25.6979 50.4219 26.0469C50.1615 26.3958 49.8203 26.6693 49.3984 26.8672C48.9766 27.0599 48.4635 27.1562 47.8594 27.1562C47.4479 27.1562 47.0703 27.0964 46.7266 26.9766C46.388 26.8568 46.0964 26.6719 45.8516 26.4219C45.6068 26.1719 45.4167 25.8464 45.2812 25.4453C45.151 25.0443 45.0859 24.5625 45.0859 24V18.5469H46.5312V24.0156C46.5312 24.3958 46.5729 24.7109 46.6562 24.9609C46.7448 25.2057 46.862 25.401 47.0078 25.5469C47.1589 25.6875 47.3255 25.7865 47.5078 25.8438C47.6953 25.901 47.888 25.9297 48.0859 25.9297C48.7005 25.9297 49.1875 25.8125 49.5469 25.5781C49.9062 25.3385 50.1641 25.0182 50.3203 24.6172C50.4818 24.2109 50.5625 23.7604 50.5625 23.2656ZM55.3906 19.875V27H53.9453V18.5469H55.3516L55.3906 19.875ZM58.0312 18.5L58.0234 19.8438C57.9036 19.8177 57.7891 19.8021 57.6797 19.7969C57.5755 19.7865 57.4557 19.7812 57.3203 19.7812C56.987 19.7812 56.6927 19.8333 56.4375 19.9375C56.1823 20.0417 55.9661 20.1875 55.7891 20.375C55.612 20.5625 55.4714 20.7865 55.3672 21.0469C55.2682 21.3021 55.2031 21.5833 55.1719 21.8906L54.7656 22.125C54.7656 21.6146 54.8151 21.1354 54.9141 20.6875C55.0182 20.2396 55.1771 19.8438 55.3906 19.5C55.6042 19.151 55.875 18.8802 56.2031 18.6875C56.5365 18.4896 56.9323 18.3906 57.3906 18.3906C57.4948 18.3906 57.6146 18.4036 57.75 18.4297C57.8854 18.4505 57.9792 18.474 58.0312 18.5ZM66.7188 25.9688C67.0625 25.9688 67.3802 25.8984 67.6719 25.7578C67.9635 25.6172 68.2031 25.4245 68.3906 25.1797C68.5781 24.9297 68.6849 24.6458 68.7109 24.3281H70.0859C70.0599 24.8281 69.8906 25.2943 69.5781 25.7266C69.2708 26.1536 68.8672 26.5 68.3672 26.7656C67.8672 27.026 67.3177 27.1562 66.7188 27.1562C66.0833 27.1562 65.5286 27.0443 65.0547 26.8203C64.5859 26.5964 64.1953 26.2891 63.8828 25.8984C63.5755 25.5078 63.3438 25.0599 63.1875 24.5547C63.0365 24.0443 62.9609 23.5052 62.9609 22.9375V22.6094C62.9609 22.0417 63.0365 21.5052 63.1875 21C63.3438 20.4896 63.5755 20.0391 63.8828 19.6484C64.1953 19.2578 64.5859 18.9505 65.0547 18.7266C65.5286 18.5026 66.0833 18.3906 66.7188 18.3906C67.3802 18.3906 67.9583 18.526 68.4531 18.7969C68.9479 19.0625 69.3359 19.4271 69.6172 19.8906C69.9036 20.349 70.0599 20.8698 70.0859 21.4531H68.7109C68.6849 21.1042 68.5859 20.7891 68.4141 20.5078C68.2474 20.2266 68.0182 20.0026 67.7266 19.8359C67.4401 19.6641 67.1042 19.5781 66.7188 19.5781C66.276 19.5781 65.9036 19.6667 65.6016 19.8438C65.3047 20.0156 65.0677 20.25 64.8906 20.5469C64.7188 20.8385 64.5938 21.1641 64.5156 21.5234C64.4427 21.8776 64.4062 22.2396 64.4062 22.6094V22.9375C64.4062 23.3073 64.4427 23.6719 64.5156 24.0312C64.5885 24.3906 64.7109 24.7161 64.8828 25.0078C65.0599 25.2995 65.2969 25.5339 65.5938 25.7109C65.8958 25.8828 66.2708 25.9688 66.7188 25.9688ZM76.8828 25.0469V18.5469H78.3359V27H76.9531L76.8828 25.0469ZM77.1562 23.2656L77.7578 23.25C77.7578 23.8125 77.6979 24.3333 77.5781 24.8125C77.4635 25.2865 77.276 25.6979 77.0156 26.0469C76.7552 26.3958 76.4141 26.6693 75.9922 26.8672C75.5703 27.0599 75.0573 27.1562 74.4531 27.1562C74.0417 27.1562 73.6641 27.0964 73.3203 26.9766C72.9818 26.8568 72.6901 26.6719 72.4453 26.4219C72.2005 26.1719 72.0104 25.8464 71.875 25.4453C71.7448 25.0443 71.6797 24.5625 71.6797 24V18.5469H73.125V24.0156C73.125 24.3958 73.1667 24.7109 73.25 24.9609C73.3385 25.2057 73.4557 25.401 73.6016 25.5469C73.7526 25.6875 73.9193 25.7865 74.1016 25.8438C74.2891 25.901 74.4818 25.9297 74.6797 25.9297C75.2943 25.9297 75.7812 25.8125 76.1406 25.5781C76.5 25.3385 76.7578 25.0182 76.9141 24.6172C77.0755 24.2109 77.1562 23.7604 77.1562 23.2656ZM85.4609 24.7578C85.4609 24.5495 85.4141 24.3568 85.3203 24.1797C85.2318 23.9974 85.0469 23.8333 84.7656 23.6875C84.4896 23.5365 84.0729 23.4062 83.5156 23.2969C83.0469 23.1979 82.6224 23.0807 82.2422 22.9453C81.8672 22.8099 81.5469 22.6458 81.2812 22.4531C81.0208 22.2604 80.8203 22.0339 80.6797 21.7734C80.5391 21.513 80.4688 21.2083 80.4688 20.8594C80.4688 20.526 80.5417 20.2109 80.6875 19.9141C80.8385 19.6172 81.0495 19.3542 81.3203 19.125C81.5964 18.8958 81.9271 18.7161 82.3125 18.5859C82.6979 18.4557 83.1276 18.3906 83.6016 18.3906C84.2786 18.3906 84.8568 18.5104 85.3359 18.75C85.8151 18.9896 86.1823 19.3099 86.4375 19.7109C86.6927 20.1068 86.8203 20.5469 86.8203 21.0312H85.375C85.375 20.7969 85.3047 20.5703 85.1641 20.3516C85.0286 20.1276 84.8281 19.9427 84.5625 19.7969C84.3021 19.651 83.9818 19.5781 83.6016 19.5781C83.2005 19.5781 82.875 19.6406 82.625 19.7656C82.3802 19.8854 82.2005 20.0391 82.0859 20.2266C81.9766 20.4141 81.9219 20.612 81.9219 20.8203C81.9219 20.9766 81.9479 21.1172 82 21.2422C82.0573 21.362 82.1562 21.474 82.2969 21.5781C82.4375 21.6771 82.6354 21.7708 82.8906 21.8594C83.1458 21.9479 83.4714 22.0365 83.8672 22.125C84.5599 22.2812 85.1302 22.4688 85.5781 22.6875C86.026 22.9062 86.3594 23.1745 86.5781 23.4922C86.7969 23.8099 86.9062 24.1953 86.9062 24.6484C86.9062 25.0182 86.8281 25.3568 86.6719 25.6641C86.5208 25.9714 86.2995 26.237 86.0078 26.4609C85.7214 26.6797 85.3776 26.8516 84.9766 26.9766C84.5807 27.0964 84.1354 27.1562 83.6406 27.1562C82.8958 27.1562 82.2656 27.0234 81.75 26.7578C81.2344 26.4922 80.8438 26.1484 80.5781 25.7266C80.3125 25.3047 80.1797 24.8594 80.1797 24.3906H81.6328C81.6536 24.7865 81.7682 25.1016 81.9766 25.3359C82.1849 25.5651 82.4401 25.7292 82.7422 25.8281C83.0443 25.9219 83.3438 25.9688 83.6406 25.9688C84.0365 25.9688 84.3672 25.9167 84.6328 25.8125C84.9036 25.7083 85.1094 25.5651 85.25 25.3828C85.3906 25.2005 85.4609 24.9922 85.4609 24.7578ZM92.3438 18.5469V19.6562H87.7734V18.5469H92.3438ZM89.3203 16.4922H90.7656V24.9062C90.7656 25.1927 90.8099 25.4089 90.8984 25.5547C90.987 25.7005 91.1016 25.7969 91.2422 25.8438C91.3828 25.8906 91.5339 25.9141 91.6953 25.9141C91.8151 25.9141 91.9401 25.9036 92.0703 25.8828C92.2057 25.8568 92.3073 25.8359 92.375 25.8203L92.3828 27C92.2682 27.0365 92.1172 27.0703 91.9297 27.1016C91.7474 27.138 91.526 27.1562 91.2656 27.1562C90.9115 27.1562 90.5859 27.0859 90.2891 26.9453C89.9922 26.8047 89.7552 26.5703 89.5781 26.2422C89.4062 25.9089 89.3203 25.4609 89.3203 24.8984V16.4922ZM93.5 22.8672V22.6875C93.5 22.0781 93.5885 21.513 93.7656 20.9922C93.9427 20.4661 94.1979 20.0104 94.5312 19.625C94.8646 19.2344 95.2682 18.9323 95.7422 18.7188C96.2161 18.5 96.7474 18.3906 97.3359 18.3906C97.9297 18.3906 98.4635 18.5 98.9375 18.7188C99.4167 18.9323 99.8229 19.2344 100.156 19.625C100.495 20.0104 100.753 20.4661 100.93 20.9922C101.107 21.513 101.195 22.0781 101.195 22.6875V22.8672C101.195 23.4766 101.107 24.0417 100.93 24.5625C100.753 25.0833 100.495 25.5391 100.156 25.9297C99.8229 26.3151 99.4193 26.6172 98.9453 26.8359C98.4766 27.0495 97.9453 27.1562 97.3516 27.1562C96.7578 27.1562 96.224 27.0495 95.75 26.8359C95.276 26.6172 94.8698 26.3151 94.5312 25.9297C94.1979 25.5391 93.9427 25.0833 93.7656 24.5625C93.5885 24.0417 93.5 23.4766 93.5 22.8672ZM94.9453 22.6875V22.8672C94.9453 23.2891 94.9948 23.6875 95.0938 24.0625C95.1927 24.4323 95.3411 24.7604 95.5391 25.0469C95.7422 25.3333 95.9948 25.5599 96.2969 25.7266C96.599 25.888 96.9505 25.9688 97.3516 25.9688C97.7474 25.9688 98.0938 25.888 98.3906 25.7266C98.6927 25.5599 98.9427 25.3333 99.1406 25.0469C99.3385 24.7604 99.487 24.4323 99.5859 24.0625C99.6901 23.6875 99.7422 23.2891 99.7422 22.8672V22.6875C99.7422 22.2708 99.6901 21.8776 99.5859 21.5078C99.487 21.1328 99.3359 20.8021 99.1328 20.5156C98.9349 20.224 98.6849 19.9948 98.3828 19.8281C98.0859 19.6615 97.737 19.5781 97.3359 19.5781C96.9401 19.5781 96.5911 19.6615 96.2891 19.8281C95.9922 19.9948 95.7422 20.224 95.5391 20.5156C95.3411 20.8021 95.1927 21.1328 95.0938 21.5078C94.9948 21.8776 94.9453 22.2708 94.9453 22.6875ZM104.445 20.2266V27H102.992V18.5469H104.367L104.445 20.2266ZM104.148 22.4531L103.477 22.4297C103.482 21.8516 103.557 21.3177 103.703 20.8281C103.849 20.3333 104.065 19.9036 104.352 19.5391C104.638 19.1745 104.995 18.8932 105.422 18.6953C105.849 18.4922 106.344 18.3906 106.906 18.3906C107.302 18.3906 107.667 18.4479 108 18.5625C108.333 18.6719 108.622 18.8464 108.867 19.0859C109.112 19.3255 109.302 19.6328 109.438 20.0078C109.573 20.3828 109.641 20.8359 109.641 21.3672V27H108.195V21.4375C108.195 20.9948 108.12 20.6406 107.969 20.375C107.823 20.1094 107.615 19.9167 107.344 19.7969C107.073 19.6719 106.755 19.6094 106.391 19.6094C105.964 19.6094 105.607 19.6849 105.32 19.8359C105.034 19.987 104.805 20.1953 104.633 20.4609C104.461 20.7266 104.336 21.0312 104.258 21.375C104.185 21.7135 104.148 22.0729 104.148 22.4531ZM109.625 21.6562L108.656 21.9531C108.661 21.4896 108.737 21.0443 108.883 20.6172C109.034 20.1901 109.25 19.8099 109.531 19.4766C109.818 19.1432 110.169 18.8802 110.586 18.6875C111.003 18.4896 111.479 18.3906 112.016 18.3906C112.469 18.3906 112.87 18.4505 113.219 18.5703C113.573 18.6901 113.87 18.875 114.109 19.125C114.354 19.3698 114.539 19.6849 114.664 20.0703C114.789 20.4557 114.852 20.9141 114.852 21.4453V27H113.398V21.4297C113.398 20.9557 113.323 20.5885 113.172 20.3281C113.026 20.0625 112.818 19.8776 112.547 19.7734C112.281 19.6641 111.964 19.6094 111.594 19.6094C111.276 19.6094 110.995 19.6641 110.75 19.7734C110.505 19.8828 110.299 20.0339 110.133 20.2266C109.966 20.4141 109.839 20.6302 109.75 20.875C109.667 21.1198 109.625 21.3802 109.625 21.6562ZM120.547 27.1562C119.958 27.1562 119.424 27.0573 118.945 26.8594C118.471 26.6562 118.062 26.3724 117.719 26.0078C117.38 25.6432 117.12 25.2109 116.938 24.7109C116.755 24.2109 116.664 23.6641 116.664 23.0703V22.7422C116.664 22.0547 116.766 21.4427 116.969 20.9062C117.172 20.3646 117.448 19.9062 117.797 19.5312C118.146 19.1562 118.542 18.8724 118.984 18.6797C119.427 18.487 119.885 18.3906 120.359 18.3906C120.964 18.3906 121.484 18.4948 121.922 18.7031C122.365 18.9115 122.727 19.2031 123.008 19.5781C123.289 19.9479 123.497 20.3854 123.633 20.8906C123.768 21.3906 123.836 21.9375 123.836 22.5312V23.1797H117.523V22H122.391V21.8906C122.37 21.5156 122.292 21.151 122.156 20.7969C122.026 20.4427 121.818 20.151 121.531 19.9219C121.245 19.6927 120.854 19.5781 120.359 19.5781C120.031 19.5781 119.729 19.6484 119.453 19.7891C119.177 19.9245 118.94 20.1276 118.742 20.3984C118.544 20.6693 118.391 21 118.281 21.3906C118.172 21.7812 118.117 22.2318 118.117 22.7422V23.0703C118.117 23.4714 118.172 23.849 118.281 24.2031C118.396 24.5521 118.56 24.8594 118.773 25.125C118.992 25.3906 119.255 25.599 119.562 25.75C119.875 25.901 120.229 25.9766 120.625 25.9766C121.135 25.9766 121.568 25.8724 121.922 25.6641C122.276 25.4557 122.586 25.1771 122.852 24.8281L123.727 25.5234C123.544 25.7995 123.312 26.0625 123.031 26.3125C122.75 26.5625 122.404 26.7656 121.992 26.9219C121.586 27.0781 121.104 27.1562 120.547 27.1562ZM126.969 19.875V27H125.523V18.5469H126.93L126.969 19.875ZM129.609 18.5L129.602 19.8438C129.482 19.8177 129.367 19.8021 129.258 19.7969C129.154 19.7865 129.034 19.7812 128.898 19.7812C128.565 19.7812 128.271 19.8333 128.016 19.9375C127.76 20.0417 127.544 20.1875 127.367 20.375C127.19 20.5625 127.049 20.7865 126.945 21.0469C126.846 21.3021 126.781 21.5833 126.75 21.8906L126.344 22.125C126.344 21.6146 126.393 21.1354 126.492 20.6875C126.596 20.2396 126.755 19.8438 126.969 19.5C127.182 19.151 127.453 18.8802 127.781 18.6875C128.115 18.4896 128.51 18.3906 128.969 18.3906C129.073 18.3906 129.193 18.4036 129.328 18.4297C129.464 18.4505 129.557 18.474 129.609 18.5ZM135.867 24.7578C135.867 24.5495 135.82 24.3568 135.727 24.1797C135.638 23.9974 135.453 23.8333 135.172 23.6875C134.896 23.5365 134.479 23.4062 133.922 23.2969C133.453 23.1979 133.029 23.0807 132.648 22.9453C132.273 22.8099 131.953 22.6458 131.688 22.4531C131.427 22.2604 131.227 22.0339 131.086 21.7734C130.945 21.513 130.875 21.2083 130.875 20.8594C130.875 20.526 130.948 20.2109 131.094 19.9141C131.245 19.6172 131.456 19.3542 131.727 19.125C132.003 18.8958 132.333 18.7161 132.719 18.5859C133.104 18.4557 133.534 18.3906 134.008 18.3906C134.685 18.3906 135.263 18.5104 135.742 18.75C136.221 18.9896 136.589 19.3099 136.844 19.7109C137.099 20.1068 137.227 20.5469 137.227 21.0312H135.781C135.781 20.7969 135.711 20.5703 135.57 20.3516C135.435 20.1276 135.234 19.9427 134.969 19.7969C134.708 19.651 134.388 19.5781 134.008 19.5781C133.607 19.5781 133.281 19.6406 133.031 19.7656C132.786 19.8854 132.607 20.0391 132.492 20.2266C132.383 20.4141 132.328 20.612 132.328 20.8203C132.328 20.9766 132.354 21.1172 132.406 21.2422C132.464 21.362 132.562 21.474 132.703 21.5781C132.844 21.6771 133.042 21.7708 133.297 21.8594C133.552 21.9479 133.878 22.0365 134.273 22.125C134.966 22.2812 135.536 22.4688 135.984 22.6875C136.432 22.9062 136.766 23.1745 136.984 23.4922C137.203 23.8099 137.312 24.1953 137.312 24.6484C137.312 25.0182 137.234 25.3568 137.078 25.6641C136.927 25.9714 136.706 26.237 136.414 26.4609C136.128 26.6797 135.784 26.8516 135.383 26.9766C134.987 27.0964 134.542 27.1562 134.047 27.1562C133.302 27.1562 132.672 27.0234 132.156 26.7578C131.641 26.4922 131.25 26.1484 130.984 25.7266C130.719 25.3047 130.586 24.8594 130.586 24.3906H132.039C132.06 24.7865 132.174 25.1016 132.383 25.3359C132.591 25.5651 132.846 25.7292 133.148 25.8281C133.451 25.9219 133.75 25.9688 134.047 25.9688C134.443 25.9688 134.773 25.9167 135.039 25.8125C135.31 25.7083 135.516 25.5651 135.656 25.3828C135.797 25.2005 135.867 24.9922 135.867 24.7578ZM144.625 19.875V27H143.18V18.5469H144.586L144.625 19.875ZM147.266 18.5L147.258 19.8438C147.138 19.8177 147.023 19.8021 146.914 19.7969C146.81 19.7865 146.69 19.7812 146.555 19.7812C146.221 19.7812 145.927 19.8333 145.672 19.9375C145.417 20.0417 145.201 20.1875 145.023 20.375C144.846 20.5625 144.706 20.7865 144.602 21.0469C144.503 21.3021 144.438 21.5833 144.406 21.8906L144 22.125C144 21.6146 144.049 21.1354 144.148 20.6875C144.253 20.2396 144.411 19.8438 144.625 19.5C144.839 19.151 145.109 18.8802 145.438 18.6875C145.771 18.4896 146.167 18.3906 146.625 18.3906C146.729 18.3906 146.849 18.4036 146.984 18.4297C147.12 18.4505 147.214 18.474 147.266 18.5ZM153.273 25.5547V21.2031C153.273 20.8698 153.206 20.5807 153.07 20.3359C152.94 20.0859 152.742 19.8932 152.477 19.7578C152.211 19.6224 151.883 19.5547 151.492 19.5547C151.128 19.5547 150.807 19.6172 150.531 19.7422C150.26 19.8672 150.047 20.0312 149.891 20.2344C149.74 20.4375 149.664 20.6562 149.664 20.8906H148.219C148.219 20.5885 148.297 20.2891 148.453 19.9922C148.609 19.6953 148.833 19.4271 149.125 19.1875C149.422 18.9427 149.776 18.75 150.188 18.6094C150.604 18.4635 151.068 18.3906 151.578 18.3906C152.193 18.3906 152.734 18.4948 153.203 18.7031C153.677 18.9115 154.047 19.2266 154.312 19.6484C154.583 20.0651 154.719 20.5885 154.719 21.2188V25.1562C154.719 25.4375 154.742 25.737 154.789 26.0547C154.841 26.3724 154.917 26.6458 155.016 26.875V27H153.508C153.435 26.8333 153.378 26.612 153.336 26.3359C153.294 26.0547 153.273 25.7943 153.273 25.5547ZM153.523 21.875L153.539 22.8906H152.078C151.667 22.8906 151.299 22.9245 150.977 22.9922C150.654 23.0547 150.383 23.151 150.164 23.2812C149.945 23.4115 149.779 23.5755 149.664 23.7734C149.549 23.9661 149.492 24.1927 149.492 24.4531C149.492 24.7188 149.552 24.9609 149.672 25.1797C149.792 25.3984 149.971 25.5729 150.211 25.7031C150.456 25.8281 150.755 25.8906 151.109 25.8906C151.552 25.8906 151.943 25.7969 152.281 25.6094C152.62 25.4219 152.888 25.1927 153.086 24.9219C153.289 24.651 153.398 24.388 153.414 24.1328L154.031 24.8281C153.995 25.0469 153.896 25.2891 153.734 25.5547C153.573 25.8203 153.357 26.0755 153.086 26.3203C152.82 26.5599 152.503 26.7604 152.133 26.9219C151.768 27.0781 151.357 27.1562 150.898 27.1562C150.326 27.1562 149.823 27.0443 149.391 26.8203C148.964 26.5964 148.63 26.2969 148.391 25.9219C148.156 25.5417 148.039 25.1172 148.039 24.6484C148.039 24.1953 148.128 23.7969 148.305 23.4531C148.482 23.1042 148.737 22.8151 149.07 22.5859C149.404 22.3516 149.805 22.1745 150.273 22.0547C150.742 21.9349 151.266 21.875 151.844 21.875H153.523ZM160.531 18.5469V19.6562H155.961V18.5469H160.531ZM157.508 16.4922H158.953V24.9062C158.953 25.1927 158.997 25.4089 159.086 25.5547C159.174 25.7005 159.289 25.7969 159.43 25.8438C159.57 25.8906 159.721 25.9141 159.883 25.9141C160.003 25.9141 160.128 25.9036 160.258 25.8828C160.393 25.8568 160.495 25.8359 160.562 25.8203L160.57 27C160.456 27.0365 160.305 27.0703 160.117 27.1016C159.935 27.138 159.714 27.1562 159.453 27.1562C159.099 27.1562 158.773 27.0859 158.477 26.9453C158.18 26.8047 157.943 26.5703 157.766 26.2422C157.594 25.9089 157.508 25.4609 157.508 24.8984V16.4922ZM165.734 27.1562C165.146 27.1562 164.612 27.0573 164.133 26.8594C163.659 26.6562 163.25 26.3724 162.906 26.0078C162.568 25.6432 162.307 25.2109 162.125 24.7109C161.943 24.2109 161.852 23.6641 161.852 23.0703V22.7422C161.852 22.0547 161.953 21.4427 162.156 20.9062C162.359 20.3646 162.635 19.9062 162.984 19.5312C163.333 19.1562 163.729 18.8724 164.172 18.6797C164.615 18.487 165.073 18.3906 165.547 18.3906C166.151 18.3906 166.672 18.4948 167.109 18.7031C167.552 18.9115 167.914 19.2031 168.195 19.5781C168.477 19.9479 168.685 20.3854 168.82 20.8906C168.956 21.3906 169.023 21.9375 169.023 22.5312V23.1797H162.711V22H167.578V21.8906C167.557 21.5156 167.479 21.151 167.344 20.7969C167.214 20.4427 167.005 20.151 166.719 19.9219C166.432 19.6927 166.042 19.5781 165.547 19.5781C165.219 19.5781 164.917 19.6484 164.641 19.7891C164.365 19.9245 164.128 20.1276 163.93 20.3984C163.732 20.6693 163.578 21 163.469 21.3906C163.359 21.7812 163.305 22.2318 163.305 22.7422V23.0703C163.305 23.4714 163.359 23.849 163.469 24.2031C163.583 24.5521 163.747 24.8594 163.961 25.125C164.18 25.3906 164.443 25.599 164.75 25.75C165.062 25.901 165.417 25.9766 165.812 25.9766C166.323 25.9766 166.755 25.8724 167.109 25.6641C167.464 25.4557 167.773 25.1771 168.039 24.8281L168.914 25.5234C168.732 25.7995 168.5 26.0625 168.219 26.3125C167.938 26.5625 167.591 26.7656 167.18 26.9219C166.773 27.0781 166.292 27.1562 165.734 27.1562ZM179.852 25.0469V18.5469H181.305V27H179.922L179.852 25.0469ZM180.125 23.2656L180.727 23.25C180.727 23.8125 180.667 24.3333 180.547 24.8125C180.432 25.2865 180.245 25.6979 179.984 26.0469C179.724 26.3958 179.383 26.6693 178.961 26.8672C178.539 27.0599 178.026 27.1562 177.422 27.1562C177.01 27.1562 176.633 27.0964 176.289 26.9766C175.951 26.8568 175.659 26.6719 175.414 26.4219C175.169 26.1719 174.979 25.8464 174.844 25.4453C174.714 25.0443 174.648 24.5625 174.648 24V18.5469H176.094V24.0156C176.094 24.3958 176.135 24.7109 176.219 24.9609C176.307 25.2057 176.424 25.401 176.57 25.5469C176.721 25.6875 176.888 25.7865 177.07 25.8438C177.258 25.901 177.451 25.9297 177.648 25.9297C178.263 25.9297 178.75 25.8125 179.109 25.5781C179.469 25.3385 179.727 25.0182 179.883 24.6172C180.044 24.2109 180.125 23.7604 180.125 23.2656ZM188.43 24.7578C188.43 24.5495 188.383 24.3568 188.289 24.1797C188.201 23.9974 188.016 23.8333 187.734 23.6875C187.458 23.5365 187.042 23.4062 186.484 23.2969C186.016 23.1979 185.591 23.0807 185.211 22.9453C184.836 22.8099 184.516 22.6458 184.25 22.4531C183.99 22.2604 183.789 22.0339 183.648 21.7734C183.508 21.513 183.438 21.2083 183.438 20.8594C183.438 20.526 183.51 20.2109 183.656 19.9141C183.807 19.6172 184.018 19.3542 184.289 19.125C184.565 18.8958 184.896 18.7161 185.281 18.5859C185.667 18.4557 186.096 18.3906 186.57 18.3906C187.247 18.3906 187.826 18.5104 188.305 18.75C188.784 18.9896 189.151 19.3099 189.406 19.7109C189.661 20.1068 189.789 20.5469 189.789 21.0312H188.344C188.344 20.7969 188.273 20.5703 188.133 20.3516C187.997 20.1276 187.797 19.9427 187.531 19.7969C187.271 19.651 186.951 19.5781 186.57 19.5781C186.169 19.5781 185.844 19.6406 185.594 19.7656C185.349 19.8854 185.169 20.0391 185.055 20.2266C184.945 20.4141 184.891 20.612 184.891 20.8203C184.891 20.9766 184.917 21.1172 184.969 21.2422C185.026 21.362 185.125 21.474 185.266 21.5781C185.406 21.6771 185.604 21.7708 185.859 21.8594C186.115 21.9479 186.44 22.0365 186.836 22.125C187.529 22.2812 188.099 22.4688 188.547 22.6875C188.995 22.9062 189.328 23.1745 189.547 23.4922C189.766 23.8099 189.875 24.1953 189.875 24.6484C189.875 25.0182 189.797 25.3568 189.641 25.6641C189.49 25.9714 189.268 26.237 188.977 26.4609C188.69 26.6797 188.346 26.8516 187.945 26.9766C187.549 27.0964 187.104 27.1562 186.609 27.1562C185.865 27.1562 185.234 27.0234 184.719 26.7578C184.203 26.4922 183.812 26.1484 183.547 25.7266C183.281 25.3047 183.148 24.8594 183.148 24.3906H184.602C184.622 24.7865 184.737 25.1016 184.945 25.3359C185.154 25.5651 185.409 25.7292 185.711 25.8281C186.013 25.9219 186.312 25.9688 186.609 25.9688C187.005 25.9688 187.336 25.9167 187.602 25.8125C187.872 25.7083 188.078 25.5651 188.219 25.3828C188.359 25.2005 188.43 24.9922 188.43 24.7578ZM200.727 25.5547V21.2031C200.727 20.8698 200.659 20.5807 200.523 20.3359C200.393 20.0859 200.195 19.8932 199.93 19.7578C199.664 19.6224 199.336 19.5547 198.945 19.5547C198.581 19.5547 198.26 19.6172 197.984 19.7422C197.714 19.8672 197.5 20.0312 197.344 20.2344C197.193 20.4375 197.117 20.6562 197.117 20.8906H195.672C195.672 20.5885 195.75 20.2891 195.906 19.9922C196.062 19.6953 196.286 19.4271 196.578 19.1875C196.875 18.9427 197.229 18.75 197.641 18.6094C198.057 18.4635 198.521 18.3906 199.031 18.3906C199.646 18.3906 200.188 18.4948 200.656 18.7031C201.13 18.9115 201.5 19.2266 201.766 19.6484C202.036 20.0651 202.172 20.5885 202.172 21.2188V25.1562C202.172 25.4375 202.195 25.737 202.242 26.0547C202.294 26.3724 202.37 26.6458 202.469 26.875V27H200.961C200.888 26.8333 200.831 26.612 200.789 26.3359C200.747 26.0547 200.727 25.7943 200.727 25.5547ZM200.977 21.875L200.992 22.8906H199.531C199.12 22.8906 198.753 22.9245 198.43 22.9922C198.107 23.0547 197.836 23.151 197.617 23.2812C197.398 23.4115 197.232 23.5755 197.117 23.7734C197.003 23.9661 196.945 24.1927 196.945 24.4531C196.945 24.7188 197.005 24.9609 197.125 25.1797C197.245 25.3984 197.424 25.5729 197.664 25.7031C197.909 25.8281 198.208 25.8906 198.562 25.8906C199.005 25.8906 199.396 25.7969 199.734 25.6094C200.073 25.4219 200.341 25.1927 200.539 24.9219C200.742 24.651 200.852 24.388 200.867 24.1328L201.484 24.8281C201.448 25.0469 201.349 25.2891 201.188 25.5547C201.026 25.8203 200.81 26.0755 200.539 26.3203C200.273 26.5599 199.956 26.7604 199.586 26.9219C199.221 27.0781 198.81 27.1562 198.352 27.1562C197.779 27.1562 197.276 27.0443 196.844 26.8203C196.417 26.5964 196.083 26.2969 195.844 25.9219C195.609 25.5417 195.492 25.1172 195.492 24.6484C195.492 24.1953 195.581 23.7969 195.758 23.4531C195.935 23.1042 196.19 22.8151 196.523 22.5859C196.857 22.3516 197.258 22.1745 197.727 22.0547C198.195 21.9349 198.719 21.875 199.297 21.875H200.977ZM209.367 24.7578C209.367 24.5495 209.32 24.3568 209.227 24.1797C209.138 23.9974 208.953 23.8333 208.672 23.6875C208.396 23.5365 207.979 23.4062 207.422 23.2969C206.953 23.1979 206.529 23.0807 206.148 22.9453C205.773 22.8099 205.453 22.6458 205.188 22.4531C204.927 22.2604 204.727 22.0339 204.586 21.7734C204.445 21.513 204.375 21.2083 204.375 20.8594C204.375 20.526 204.448 20.2109 204.594 19.9141C204.745 19.6172 204.956 19.3542 205.227 19.125C205.503 18.8958 205.833 18.7161 206.219 18.5859C206.604 18.4557 207.034 18.3906 207.508 18.3906C208.185 18.3906 208.763 18.5104 209.242 18.75C209.721 18.9896 210.089 19.3099 210.344 19.7109C210.599 20.1068 210.727 20.5469 210.727 21.0312H209.281C209.281 20.7969 209.211 20.5703 209.07 20.3516C208.935 20.1276 208.734 19.9427 208.469 19.7969C208.208 19.651 207.888 19.5781 207.508 19.5781C207.107 19.5781 206.781 19.6406 206.531 19.7656C206.286 19.8854 206.107 20.0391 205.992 20.2266C205.883 20.4141 205.828 20.612 205.828 20.8203C205.828 20.9766 205.854 21.1172 205.906 21.2422C205.964 21.362 206.062 21.474 206.203 21.5781C206.344 21.6771 206.542 21.7708 206.797 21.8594C207.052 21.9479 207.378 22.0365 207.773 22.125C208.466 22.2812 209.036 22.4688 209.484 22.6875C209.932 22.9062 210.266 23.1745 210.484 23.4922C210.703 23.8099 210.812 24.1953 210.812 24.6484C210.812 25.0182 210.734 25.3568 210.578 25.6641C210.427 25.9714 210.206 26.237 209.914 26.4609C209.628 26.6797 209.284 26.8516 208.883 26.9766C208.487 27.0964 208.042 27.1562 207.547 27.1562C206.802 27.1562 206.172 27.0234 205.656 26.7578C205.141 26.4922 204.75 26.1484 204.484 25.7266C204.219 25.3047 204.086 24.8594 204.086 24.3906H205.539C205.56 24.7865 205.674 25.1016 205.883 25.3359C206.091 25.5651 206.346 25.7292 206.648 25.8281C206.951 25.9219 207.25 25.9688 207.547 25.9688C207.943 25.9688 208.273 25.9167 208.539 25.8125C208.81 25.7083 209.016 25.5651 209.156 25.3828C209.297 25.2005 209.367 24.9922 209.367 24.7578Z" fill="black" fill-opacity="0.7"/>
<path d="M224.18 25.4453V27H218.141V25.4453H224.18ZM218.695 15.625V27H216.734V15.625H218.695ZM223.391 20.375V21.9062H218.141V20.375H223.391ZM224.141 15.625V17.1875H218.141V15.625H224.141ZM227.031 18.5469L228.641 21.3516L230.281 18.5469H232.352L229.789 22.6953L232.453 27H230.383L228.664 24.0781L226.945 27H224.867L227.523 22.6953L224.969 18.5469H227.031ZM236.938 25.6562C237.245 25.6562 237.521 25.5964 237.766 25.4766C238.016 25.3516 238.216 25.1797 238.367 24.9609C238.523 24.7422 238.609 24.4896 238.625 24.2031H240.398C240.388 24.75 240.227 25.2474 239.914 25.6953C239.602 26.1432 239.188 26.5 238.672 26.7656C238.156 27.026 237.586 27.1562 236.961 27.1562C236.315 27.1562 235.753 27.0469 235.273 26.8281C234.794 26.6042 234.396 26.2969 234.078 25.9062C233.76 25.5156 233.521 25.0651 233.359 24.5547C233.203 24.0443 233.125 23.4974 233.125 22.9141V22.6406C233.125 22.0573 233.203 21.5104 233.359 21C233.521 20.4844 233.76 20.0312 234.078 19.6406C234.396 19.25 234.794 18.9453 235.273 18.7266C235.753 18.5026 236.312 18.3906 236.953 18.3906C237.63 18.3906 238.224 18.526 238.734 18.7969C239.245 19.0625 239.646 19.4349 239.938 19.9141C240.234 20.388 240.388 20.9401 240.398 21.5703H238.625C238.609 21.2578 238.531 20.9766 238.391 20.7266C238.255 20.4714 238.062 20.2682 237.812 20.1172C237.568 19.9661 237.273 19.8906 236.93 19.8906C236.549 19.8906 236.234 19.9688 235.984 20.125C235.734 20.276 235.539 20.4844 235.398 20.75C235.258 21.0104 235.156 21.3047 235.094 21.6328C235.036 21.9557 235.008 22.2917 235.008 22.6406V22.9141C235.008 23.263 235.036 23.6016 235.094 23.9297C235.151 24.2578 235.25 24.5521 235.391 24.8125C235.536 25.0677 235.734 25.2734 235.984 25.4297C236.234 25.5807 236.552 25.6562 236.938 25.6562ZM245.57 27.1562C244.945 27.1562 244.38 27.0547 243.875 26.8516C243.375 26.6432 242.948 26.3542 242.594 25.9844C242.245 25.6146 241.977 25.1797 241.789 24.6797C241.602 24.1797 241.508 23.6406 241.508 23.0625V22.75C241.508 22.0885 241.604 21.4896 241.797 20.9531C241.99 20.4167 242.258 19.9583 242.602 19.5781C242.945 19.1927 243.352 18.8984 243.82 18.6953C244.289 18.4922 244.797 18.3906 245.344 18.3906C245.948 18.3906 246.477 18.4922 246.93 18.6953C247.383 18.8984 247.758 19.1849 248.055 19.5547C248.357 19.9193 248.581 20.3542 248.727 20.8594C248.878 21.3646 248.953 21.9219 248.953 22.5312V23.3359H242.422V21.9844H247.094V21.8359C247.083 21.4974 247.016 21.1797 246.891 20.8828C246.771 20.5859 246.586 20.3464 246.336 20.1641C246.086 19.9818 245.753 19.8906 245.336 19.8906C245.023 19.8906 244.745 19.9583 244.5 20.0938C244.26 20.224 244.06 20.4141 243.898 20.6641C243.737 20.9141 243.612 21.2161 243.523 21.5703C243.44 21.9193 243.398 22.3125 243.398 22.75V23.0625C243.398 23.4323 243.448 23.776 243.547 24.0938C243.651 24.4062 243.802 24.6797 244 24.9141C244.198 25.1484 244.438 25.3333 244.719 25.4688C245 25.599 245.32 25.6641 245.68 25.6641C246.133 25.6641 246.536 25.5729 246.891 25.3906C247.245 25.2083 247.552 24.9505 247.812 24.6172L248.805 25.5781C248.622 25.8438 248.385 26.099 248.094 26.3438C247.802 26.5833 247.445 26.7786 247.023 26.9297C246.607 27.0807 246.122 27.1562 245.57 27.1562ZM252.438 15V27H250.547V15H252.438ZM256.516 15V27H254.625V15H256.516ZM262.305 27.1562C261.68 27.1562 261.115 27.0547 260.609 26.8516C260.109 26.6432 259.682 26.3542 259.328 25.9844C258.979 25.6146 258.711 25.1797 258.523 24.6797C258.336 24.1797 258.242 23.6406 258.242 23.0625V22.75C258.242 22.0885 258.339 21.4896 258.531 20.9531C258.724 20.4167 258.992 19.9583 259.336 19.5781C259.68 19.1927 260.086 18.8984 260.555 18.6953C261.023 18.4922 261.531 18.3906 262.078 18.3906C262.682 18.3906 263.211 18.4922 263.664 18.6953C264.117 18.8984 264.492 19.1849 264.789 19.5547C265.091 19.9193 265.315 20.3542 265.461 20.8594C265.612 21.3646 265.688 21.9219 265.688 22.5312V23.3359H259.156V21.9844H263.828V21.8359C263.818 21.4974 263.75 21.1797 263.625 20.8828C263.505 20.5859 263.32 20.3464 263.07 20.1641C262.82 19.9818 262.487 19.8906 262.07 19.8906C261.758 19.8906 261.479 19.9583 261.234 20.0938C260.995 20.224 260.794 20.4141 260.633 20.6641C260.471 20.9141 260.346 21.2161 260.258 21.5703C260.174 21.9193 260.133 22.3125 260.133 22.75V23.0625C260.133 23.4323 260.182 23.776 260.281 24.0938C260.385 24.4062 260.536 24.6797 260.734 24.9141C260.932 25.1484 261.172 25.3333 261.453 25.4688C261.734 25.599 262.055 25.6641 262.414 25.6641C262.867 25.6641 263.271 25.5729 263.625 25.3906C263.979 25.2083 264.286 24.9505 264.547 24.6172L265.539 25.5781C265.357 25.8438 265.12 26.099 264.828 26.3438C264.536 26.5833 264.18 26.7786 263.758 26.9297C263.341 27.0807 262.857 27.1562 262.305 27.1562ZM269.023 20.3516V27H267.141V18.5469H268.914L269.023 20.3516ZM268.688 22.4609L268.078 22.4531C268.083 21.8542 268.167 21.3047 268.328 20.8047C268.495 20.3047 268.724 19.875 269.016 19.5156C269.312 19.1562 269.667 18.8802 270.078 18.6875C270.49 18.4896 270.948 18.3906 271.453 18.3906C271.859 18.3906 272.227 18.4479 272.555 18.5625C272.888 18.6719 273.172 18.8516 273.406 19.1016C273.646 19.3516 273.828 19.6771 273.953 20.0781C274.078 20.474 274.141 20.9609 274.141 21.5391V27H272.25V21.5312C272.25 21.125 272.19 20.8047 272.07 20.5703C271.956 20.3307 271.786 20.1615 271.562 20.0625C271.344 19.9583 271.07 19.9062 270.742 19.9062C270.419 19.9062 270.13 19.974 269.875 20.1094C269.62 20.2448 269.404 20.4297 269.227 20.6641C269.055 20.8984 268.922 21.1693 268.828 21.4766C268.734 21.7839 268.688 22.112 268.688 22.4609ZM279.938 18.5469V19.9219H275.172V18.5469H279.938ZM276.547 16.4766H278.43V24.6641C278.43 24.9245 278.466 25.125 278.539 25.2656C278.617 25.401 278.724 25.4922 278.859 25.5391C278.995 25.5859 279.154 25.6094 279.336 25.6094C279.466 25.6094 279.591 25.6016 279.711 25.5859C279.831 25.5703 279.927 25.5547 280 25.5391L280.008 26.9766C279.852 27.0234 279.669 27.0651 279.461 27.1016C279.258 27.138 279.023 27.1562 278.758 27.1562C278.326 27.1562 277.943 27.0807 277.609 26.9297C277.276 26.7734 277.016 26.5208 276.828 26.1719C276.641 25.8229 276.547 25.3594 276.547 24.7812V16.4766Z" fill="black"/>
<path d="M39.7627 65.9443H40.0498V67.5166H39.9336C39.4141 67.5166 38.9515 67.5941 38.5459 67.749C38.1403 67.904 37.7962 68.125 37.5137 68.4121C37.2357 68.6947 37.0215 69.0365 36.8711 69.4375C36.7253 69.8385 36.6523 70.2874 36.6523 70.7842V72.4385C36.6523 72.7939 36.6865 73.1084 36.7549 73.3818C36.8278 73.6507 36.9303 73.8763 37.0625 74.0586C37.1992 74.2363 37.3587 74.3708 37.541 74.4619C37.7233 74.5485 37.9284 74.5918 38.1562 74.5918C38.3704 74.5918 38.5641 74.5462 38.7373 74.4551C38.915 74.3639 39.0654 74.2363 39.1885 74.0723C39.3161 73.9036 39.4118 73.7077 39.4756 73.4844C39.5439 73.2565 39.5781 73.0081 39.5781 72.7393C39.5781 72.4704 39.5439 72.222 39.4756 71.9941C39.4118 71.7663 39.3161 71.5703 39.1885 71.4062C39.0609 71.2376 38.9059 71.1077 38.7236 71.0166C38.5413 70.9255 38.3363 70.8799 38.1084 70.8799C37.7985 70.8799 37.5251 70.9528 37.2881 71.0986C37.0557 71.2399 36.8734 71.4222 36.7412 71.6455C36.609 71.8688 36.5384 72.1035 36.5293 72.3496L35.9346 71.9668C35.9482 71.6159 36.0212 71.2832 36.1533 70.9688C36.29 70.6543 36.4769 70.3763 36.7139 70.1348C36.9554 69.8887 37.2448 69.6973 37.582 69.5605C37.9193 69.4193 38.2998 69.3486 38.7236 69.3486C39.1885 69.3486 39.5964 69.4375 39.9473 69.6152C40.3027 69.793 40.599 70.0368 40.8359 70.3467C41.0729 70.6566 41.2507 71.0143 41.3691 71.4199C41.4876 71.8255 41.5469 72.2585 41.5469 72.7188C41.5469 73.2018 41.4671 73.6507 41.3076 74.0654C41.1527 74.4801 40.9271 74.8424 40.6309 75.1523C40.3392 75.4622 39.9883 75.7038 39.5781 75.877C39.168 76.0501 38.7077 76.1367 38.1973 76.1367C37.6686 76.1367 37.1878 76.041 36.7549 75.8496C36.3265 75.6536 35.9574 75.3802 35.6475 75.0293C35.3376 74.6784 35.0983 74.2614 34.9297 73.7783C34.7656 73.2952 34.6836 72.7666 34.6836 72.1924V71.4268C34.6836 70.6247 34.7998 69.891 35.0322 69.2256C35.2692 68.5557 35.6087 67.9769 36.0508 67.4893C36.4928 66.9971 37.026 66.6165 37.6504 66.3477C38.2747 66.0788 38.9788 65.9443 39.7627 65.9443ZM47.5215 66.0264V76H45.5527V68.2959L43.1875 69.0479V67.4961L47.3096 66.0264H47.5215ZM55.8408 65.9443H56.1279V67.5166H56.0117C55.4922 67.5166 55.0296 67.5941 54.624 67.749C54.2184 67.904 53.8743 68.125 53.5918 68.4121C53.3138 68.6947 53.0996 69.0365 52.9492 69.4375C52.8034 69.8385 52.7305 70.2874 52.7305 70.7842V72.4385C52.7305 72.7939 52.7646 73.1084 52.833 73.3818C52.9059 73.6507 53.0085 73.8763 53.1406 74.0586C53.2773 74.2363 53.4368 74.3708 53.6191 74.4619C53.8014 74.5485 54.0065 74.5918 54.2344 74.5918C54.4486 74.5918 54.6423 74.5462 54.8154 74.4551C54.9932 74.3639 55.1436 74.2363 55.2666 74.0723C55.3942 73.9036 55.4899 73.7077 55.5537 73.4844C55.6221 73.2565 55.6562 73.0081 55.6562 72.7393C55.6562 72.4704 55.6221 72.222 55.5537 71.9941C55.4899 71.7663 55.3942 71.5703 55.2666 71.4062C55.139 71.2376 54.984 71.1077 54.8018 71.0166C54.6195 70.9255 54.4144 70.8799 54.1865 70.8799C53.8766 70.8799 53.6032 70.9528 53.3662 71.0986C53.1338 71.2399 52.9515 71.4222 52.8193 71.6455C52.6872 71.8688 52.6165 72.1035 52.6074 72.3496L52.0127 71.9668C52.0264 71.6159 52.0993 71.2832 52.2314 70.9688C52.3682 70.6543 52.555 70.3763 52.792 70.1348C53.0335 69.8887 53.3229 69.6973 53.6602 69.5605C53.9974 69.4193 54.3779 69.3486 54.8018 69.3486C55.2666 69.3486 55.6745 69.4375 56.0254 69.6152C56.3809 69.793 56.6771 70.0368 56.9141 70.3467C57.151 70.6566 57.3288 71.0143 57.4473 71.4199C57.5658 71.8255 57.625 72.2585 57.625 72.7188C57.625 73.2018 57.5452 73.6507 57.3857 74.0654C57.2308 74.4801 57.0052 74.8424 56.709 75.1523C56.4173 75.4622 56.0664 75.7038 55.6562 75.877C55.2461 76.0501 54.7858 76.1367 54.2754 76.1367C53.7467 76.1367 53.266 76.041 52.833 75.8496C52.4046 75.6536 52.0355 75.3802 51.7256 75.0293C51.4157 74.6784 51.1764 74.2614 51.0078 73.7783C50.8438 73.2952 50.7617 72.7666 50.7617 72.1924V71.4268C50.7617 70.6247 50.8779 69.891 51.1104 69.2256C51.3473 68.5557 51.6868 67.9769 52.1289 67.4893C52.571 66.9971 53.1042 66.6165 53.7285 66.3477C54.3529 66.0788 55.057 65.9443 55.8408 65.9443ZM62.7588 66.0469H66.0537C66.8011 66.0469 67.4323 66.1608 67.9473 66.3887C68.4668 66.6165 68.861 66.9538 69.1299 67.4004C69.4033 67.8424 69.54 68.387 69.54 69.0342C69.54 69.4899 69.4466 69.9069 69.2598 70.2852C69.0775 70.6589 68.8132 70.9779 68.4668 71.2422C68.125 71.502 67.7148 71.6956 67.2363 71.8232L66.8672 71.9668H63.7705L63.7568 70.8936H66.0947C66.5687 70.8936 66.9629 70.8115 67.2773 70.6475C67.5918 70.4788 67.8288 70.2533 67.9883 69.9707C68.1478 69.6882 68.2275 69.376 68.2275 69.0342C68.2275 68.6514 68.1523 68.3164 68.002 68.0293C67.8516 67.7422 67.6146 67.5212 67.291 67.3662C66.972 67.2067 66.5596 67.127 66.0537 67.127H64.0781V76H62.7588V66.0469ZM68.5762 76L66.1562 71.4883L67.5303 71.4814L69.9844 75.918V76H68.5762ZM74.2637 76.1367C73.7487 76.1367 73.2816 76.0501 72.8623 75.877C72.4476 75.6992 72.0898 75.4508 71.7891 75.1318C71.4928 74.8128 71.265 74.4346 71.1055 73.9971C70.946 73.5596 70.8662 73.0811 70.8662 72.5615V72.2744C70.8662 71.6729 70.9551 71.1374 71.1328 70.668C71.3105 70.194 71.5521 69.793 71.8574 69.4648C72.1628 69.1367 72.5091 68.8883 72.8965 68.7197C73.2839 68.5511 73.6849 68.4668 74.0996 68.4668C74.6283 68.4668 75.084 68.5579 75.4668 68.7402C75.8542 68.9225 76.1709 69.1777 76.417 69.5059C76.6631 69.8294 76.8454 70.2122 76.9639 70.6543C77.0824 71.0918 77.1416 71.5703 77.1416 72.0898V72.6572H71.6182V71.625H75.877V71.5293C75.8587 71.2012 75.7904 70.8822 75.6719 70.5723C75.5579 70.2624 75.3757 70.0072 75.125 69.8066C74.8743 69.6061 74.5326 69.5059 74.0996 69.5059C73.8125 69.5059 73.5482 69.5674 73.3066 69.6904C73.0651 69.8089 72.8577 69.9867 72.6846 70.2236C72.5114 70.4606 72.377 70.75 72.2812 71.0918C72.1855 71.4336 72.1377 71.8278 72.1377 72.2744V72.5615C72.1377 72.9124 72.1855 73.2428 72.2812 73.5527C72.3815 73.8581 72.5251 74.127 72.7119 74.3594C72.9033 74.5918 73.1335 74.7741 73.4023 74.9062C73.6758 75.0384 73.9857 75.1045 74.332 75.1045C74.7786 75.1045 75.1569 75.0133 75.4668 74.8311C75.7767 74.6488 76.0479 74.4049 76.2803 74.0996L77.0459 74.708C76.8864 74.9495 76.6836 75.1797 76.4375 75.3984C76.1914 75.6172 75.8883 75.7949 75.5283 75.9316C75.1729 76.0684 74.7513 76.1367 74.2637 76.1367ZM80.7715 74.8584L82.7949 68.6035H84.0869L81.4277 76H80.5801L80.7715 74.8584ZM79.083 68.6035L81.168 74.8926L81.3115 76H80.4639L77.7842 68.6035H79.083ZM86.6777 68.6035V76H85.4062V68.6035H86.6777ZM85.3105 66.6416C85.3105 66.4365 85.3721 66.2633 85.4951 66.1221C85.6227 65.9808 85.8096 65.9102 86.0557 65.9102C86.2972 65.9102 86.4818 65.9808 86.6094 66.1221C86.7415 66.2633 86.8076 66.4365 86.8076 66.6416C86.8076 66.8376 86.7415 67.0062 86.6094 67.1475C86.4818 67.2842 86.2972 67.3525 86.0557 67.3525C85.8096 67.3525 85.6227 67.2842 85.4951 67.1475C85.3721 67.0062 85.3105 66.8376 85.3105 66.6416ZM91.7773 76.1367C91.2624 76.1367 90.7952 76.0501 90.376 75.877C89.9613 75.6992 89.6035 75.4508 89.3027 75.1318C89.0065 74.8128 88.7786 74.4346 88.6191 73.9971C88.4596 73.5596 88.3799 73.0811 88.3799 72.5615V72.2744C88.3799 71.6729 88.4688 71.1374 88.6465 70.668C88.8242 70.194 89.0658 69.793 89.3711 69.4648C89.6764 69.1367 90.0228 68.8883 90.4102 68.7197C90.7975 68.5511 91.1986 68.4668 91.6133 68.4668C92.1419 68.4668 92.5977 68.5579 92.9805 68.7402C93.3678 68.9225 93.6846 69.1777 93.9307 69.5059C94.1768 69.8294 94.359 70.2122 94.4775 70.6543C94.596 71.0918 94.6553 71.5703 94.6553 72.0898V72.6572H89.1318V71.625H93.3906V71.5293C93.3724 71.2012 93.304 70.8822 93.1855 70.5723C93.0716 70.2624 92.8893 70.0072 92.6387 69.8066C92.388 69.6061 92.0462 69.5059 91.6133 69.5059C91.3262 69.5059 91.0618 69.5674 90.8203 69.6904C90.5788 69.8089 90.3714 69.9867 90.1982 70.2236C90.0251 70.4606 89.8906 70.75 89.7949 71.0918C89.6992 71.4336 89.6514 71.8278 89.6514 72.2744V72.5615C89.6514 72.9124 89.6992 73.2428 89.7949 73.5527C89.8952 73.8581 90.0387 74.127 90.2256 74.3594C90.417 74.5918 90.6471 74.7741 90.916 74.9062C91.1895 75.0384 91.4993 75.1045 91.8457 75.1045C92.2923 75.1045 92.6706 75.0133 92.9805 74.8311C93.2904 74.6488 93.5615 74.4049 93.7939 74.0996L94.5596 74.708C94.4001 74.9495 94.1973 75.1797 93.9512 75.3984C93.7051 75.6172 93.402 75.7949 93.042 75.9316C92.6865 76.0684 92.265 76.1367 91.7773 76.1367ZM98.0049 74.6875L99.9053 68.6035H100.739L100.575 69.8135L98.6406 76H97.8271L98.0049 74.6875ZM96.7266 68.6035L98.3467 74.7559L98.4629 76H97.6084L95.4619 68.6035H96.7266ZM102.558 74.708L104.103 68.6035H105.36L103.214 76H102.366L102.558 74.708ZM100.924 68.6035L102.783 74.585L102.995 76H102.188L100.199 69.7998L100.035 68.6035H100.924ZM110.966 74.0381C110.966 73.8558 110.925 73.6872 110.843 73.5322C110.765 73.3727 110.604 73.2292 110.357 73.1016C110.116 72.9694 109.751 72.8555 109.264 72.7598C108.854 72.6732 108.482 72.5706 108.149 72.4521C107.821 72.3337 107.541 72.1901 107.309 72.0215C107.081 71.8529 106.905 71.6546 106.782 71.4268C106.659 71.1989 106.598 70.9323 106.598 70.627C106.598 70.3353 106.661 70.0596 106.789 69.7998C106.921 69.54 107.106 69.3099 107.343 69.1094C107.584 68.9089 107.874 68.7516 108.211 68.6377C108.548 68.5238 108.924 68.4668 109.339 68.4668C109.931 68.4668 110.437 68.5716 110.856 68.7812C111.276 68.9909 111.597 69.2712 111.82 69.6221C112.044 69.9684 112.155 70.3535 112.155 70.7773H110.891C110.891 70.5723 110.829 70.374 110.706 70.1826C110.588 69.9867 110.412 69.8249 110.18 69.6973C109.952 69.5697 109.672 69.5059 109.339 69.5059C108.988 69.5059 108.703 69.5605 108.484 69.6699C108.27 69.7747 108.113 69.9092 108.013 70.0732C107.917 70.2373 107.869 70.4105 107.869 70.5928C107.869 70.7295 107.892 70.8525 107.938 70.9619C107.988 71.0667 108.074 71.1647 108.197 71.2559C108.32 71.3424 108.493 71.4245 108.717 71.502C108.94 71.5794 109.225 71.6569 109.571 71.7344C110.177 71.8711 110.676 72.0352 111.068 72.2266C111.46 72.418 111.752 72.6527 111.943 72.9307C112.135 73.2087 112.23 73.5459 112.23 73.9424C112.23 74.266 112.162 74.5622 112.025 74.8311C111.893 75.0999 111.7 75.3324 111.444 75.5283C111.194 75.7197 110.893 75.8701 110.542 75.9795C110.196 76.0843 109.806 76.1367 109.373 76.1367C108.721 76.1367 108.17 76.0205 107.719 75.7881C107.268 75.5557 106.926 75.2549 106.693 74.8857C106.461 74.5166 106.345 74.127 106.345 73.7168H107.616C107.634 74.0632 107.735 74.3389 107.917 74.5439C108.099 74.7445 108.323 74.888 108.587 74.9746C108.851 75.0566 109.113 75.0977 109.373 75.0977C109.719 75.0977 110.009 75.0521 110.241 74.9609C110.478 74.8698 110.658 74.7445 110.781 74.585C110.904 74.4255 110.966 74.2432 110.966 74.0381Z" fill="#212529"/>
<path d="M40.6562 53.2812V54.8262H33.4854L33.3896 53.6299L37.5391 47.0469H39.1045L37.4092 49.8838L35.3447 53.2812H40.6562ZM39.5283 47.0469V57H37.5596V47.0469H39.5283ZM41.9004 56.0498C41.9004 55.7581 42.0007 55.5143 42.2012 55.3184C42.4062 55.1224 42.6774 55.0244 43.0146 55.0244C43.3519 55.0244 43.6208 55.1224 43.8213 55.3184C44.0264 55.5143 44.1289 55.7581 44.1289 56.0498C44.1289 56.3415 44.0264 56.5853 43.8213 56.7812C43.6208 56.9772 43.3519 57.0752 43.0146 57.0752C42.6774 57.0752 42.4062 56.9772 42.2012 56.7812C42.0007 56.5853 41.9004 56.3415 41.9004 56.0498ZM52.4893 54.2725C52.4893 54.8968 52.3434 55.4232 52.0518 55.8516C51.7601 56.2754 51.359 56.5967 50.8486 56.8154C50.3428 57.0296 49.7686 57.1367 49.126 57.1367C48.4834 57.1367 47.9069 57.0296 47.3965 56.8154C46.8861 56.5967 46.4827 56.2754 46.1865 55.8516C45.8903 55.4232 45.7422 54.8968 45.7422 54.2725C45.7422 53.8532 45.8265 53.4749 45.9951 53.1377C46.1637 52.7959 46.3984 52.5042 46.6992 52.2627C47.0046 52.0166 47.3623 51.8298 47.7725 51.7021C48.1826 51.57 48.6292 51.5039 49.1123 51.5039C49.7594 51.5039 50.3382 51.6178 50.8486 51.8457C51.359 52.0736 51.7601 52.3949 52.0518 52.8096C52.3434 53.2243 52.4893 53.7119 52.4893 54.2725ZM50.5068 54.1426C50.5068 53.8372 50.4476 53.5752 50.3291 53.3564C50.2152 53.1331 50.0534 52.9622 49.8438 52.8438C49.6341 52.7253 49.3903 52.666 49.1123 52.666C48.8343 52.666 48.5905 52.7253 48.3809 52.8438C48.1712 52.9622 48.0072 53.1331 47.8887 53.3564C47.7747 53.5752 47.7178 53.8372 47.7178 54.1426C47.7178 54.4434 47.7747 54.7031 47.8887 54.9219C48.0072 55.1406 48.1712 55.3092 48.3809 55.4277C48.5951 55.5417 48.8434 55.5986 49.126 55.5986C49.4085 55.5986 49.6523 55.5417 49.8574 55.4277C50.0671 55.3092 50.2266 55.1406 50.3359 54.9219C50.4499 54.7031 50.5068 54.4434 50.5068 54.1426ZM52.2773 49.6855C52.2773 50.1914 52.1429 50.6403 51.874 51.0322C51.6051 51.4196 51.2314 51.7227 50.7529 51.9414C50.279 52.1602 49.7367 52.2695 49.126 52.2695C48.5107 52.2695 47.9639 52.1602 47.4854 51.9414C47.0068 51.7227 46.6331 51.4196 46.3643 51.0322C46.0954 50.6403 45.9609 50.1914 45.9609 49.6855C45.9609 49.084 46.0954 48.5781 46.3643 48.168C46.6377 47.7533 47.0114 47.4388 47.4854 47.2246C47.9639 47.0104 48.5062 46.9033 49.1123 46.9033C49.7275 46.9033 50.2721 47.0104 50.7461 47.2246C51.2246 47.4388 51.5983 47.7533 51.8672 48.168C52.1406 48.5781 52.2773 49.084 52.2773 49.6855ZM50.3086 49.7744C50.3086 49.5055 50.2607 49.2731 50.165 49.0771C50.0693 48.8766 49.9326 48.7217 49.7549 48.6123C49.5817 48.5029 49.3675 48.4482 49.1123 48.4482C48.8662 48.4482 48.6543 48.5007 48.4766 48.6055C48.3034 48.7103 48.1689 48.863 48.0732 49.0635C47.9821 49.2594 47.9365 49.4964 47.9365 49.7744C47.9365 50.0433 47.9821 50.2803 48.0732 50.4854C48.1689 50.6859 48.3057 50.8431 48.4834 50.957C48.6611 51.071 48.8753 51.1279 49.126 51.1279C49.3766 51.1279 49.5885 51.071 49.7617 50.957C49.9395 50.8431 50.0739 50.6859 50.165 50.4854C50.2607 50.2803 50.3086 50.0433 50.3086 49.7744ZM57.2539 53.3838V53.2266C57.2539 52.6934 57.3314 52.1989 57.4863 51.7432C57.6413 51.2829 57.8646 50.8841 58.1562 50.5469C58.4479 50.2051 58.8011 49.9408 59.2158 49.7539C59.6305 49.5625 60.0954 49.4668 60.6104 49.4668C61.1299 49.4668 61.597 49.5625 62.0117 49.7539C62.431 49.9408 62.7865 50.2051 63.0781 50.5469C63.3743 50.8841 63.5999 51.2829 63.7549 51.7432C63.9098 52.1989 63.9873 52.6934 63.9873 53.2266V53.3838C63.9873 53.917 63.9098 54.4115 63.7549 54.8672C63.5999 55.3229 63.3743 55.7217 63.0781 56.0635C62.7865 56.4007 62.4333 56.665 62.0186 56.8564C61.6084 57.0433 61.1436 57.1367 60.624 57.1367C60.1045 57.1367 59.6374 57.0433 59.2227 56.8564C58.8079 56.665 58.4525 56.4007 58.1562 56.0635C57.8646 55.7217 57.6413 55.3229 57.4863 54.8672C57.3314 54.4115 57.2539 53.917 57.2539 53.3838ZM58.5186 53.2266V53.3838C58.5186 53.7529 58.5618 54.1016 58.6484 54.4297C58.735 54.7533 58.8649 55.0404 59.0381 55.291C59.2158 55.5417 59.4368 55.7399 59.7012 55.8857C59.9655 56.027 60.2731 56.0977 60.624 56.0977C60.9704 56.0977 61.2734 56.027 61.5332 55.8857C61.7975 55.7399 62.0163 55.5417 62.1895 55.291C62.3626 55.0404 62.4925 54.7533 62.5791 54.4297C62.6702 54.1016 62.7158 53.7529 62.7158 53.3838V53.2266C62.7158 52.862 62.6702 52.5179 62.5791 52.1943C62.4925 51.8662 62.3604 51.5768 62.1826 51.3262C62.0094 51.071 61.7907 50.8704 61.5264 50.7246C61.2666 50.5788 60.9613 50.5059 60.6104 50.5059C60.264 50.5059 59.9587 50.5788 59.6943 50.7246C59.4346 50.8704 59.2158 51.071 59.0381 51.3262C58.8649 51.5768 58.735 51.8662 58.6484 52.1943C58.5618 52.5179 58.5186 52.862 58.5186 53.2266ZM70.0986 55.291V49.6035H71.3701V57H70.1602L70.0986 55.291ZM70.3379 53.7324L70.8643 53.7188C70.8643 54.2109 70.8118 54.6667 70.707 55.0859C70.6068 55.5007 70.4427 55.8607 70.2148 56.166C69.987 56.4714 69.6885 56.7106 69.3193 56.8838C68.9502 57.0524 68.5013 57.1367 67.9727 57.1367C67.6126 57.1367 67.2822 57.0843 66.9814 56.9795C66.6852 56.8747 66.43 56.7129 66.2158 56.4941C66.0016 56.2754 65.8353 55.9906 65.7168 55.6396C65.6029 55.2887 65.5459 54.8672 65.5459 54.375V49.6035H66.8105V54.3887C66.8105 54.7214 66.847 54.9971 66.9199 55.2158C66.9974 55.43 67.0999 55.6009 67.2275 55.7285C67.3597 55.8516 67.5055 55.9382 67.665 55.9883C67.8291 56.0384 67.9977 56.0635 68.1709 56.0635C68.7087 56.0635 69.1348 55.9609 69.4492 55.7559C69.7637 55.5462 69.9893 55.266 70.126 54.915C70.2673 54.5596 70.3379 54.1654 70.3379 53.7324ZM76.3945 49.6035V50.5742H72.3955V49.6035H76.3945ZM73.749 47.8057H75.0137V55.168C75.0137 55.4186 75.0524 55.6077 75.1299 55.7354C75.2074 55.863 75.3076 55.9473 75.4307 55.9883C75.5537 56.0293 75.6859 56.0498 75.8271 56.0498C75.932 56.0498 76.0413 56.0407 76.1553 56.0225C76.2738 55.9997 76.3626 55.9814 76.4219 55.9678L76.4287 57C76.3285 57.0319 76.1963 57.0615 76.0322 57.0889C75.8727 57.1208 75.679 57.1367 75.4512 57.1367C75.1413 57.1367 74.8564 57.0752 74.5967 56.9521C74.3369 56.8291 74.1296 56.624 73.9746 56.3369C73.8242 56.0452 73.749 55.6533 73.749 55.1611V47.8057ZM81.0156 53.3838V53.2266C81.0156 52.6934 81.0931 52.1989 81.248 51.7432C81.403 51.2829 81.6263 50.8841 81.918 50.5469C82.2096 50.2051 82.5628 49.9408 82.9775 49.7539C83.3923 49.5625 83.8571 49.4668 84.3721 49.4668C84.8916 49.4668 85.3587 49.5625 85.7734 49.7539C86.1927 49.9408 86.5482 50.2051 86.8398 50.5469C87.1361 50.8841 87.3617 51.2829 87.5166 51.7432C87.6715 52.1989 87.749 52.6934 87.749 53.2266V53.3838C87.749 53.917 87.6715 54.4115 87.5166 54.8672C87.3617 55.3229 87.1361 55.7217 86.8398 56.0635C86.5482 56.4007 86.195 56.665 85.7803 56.8564C85.3701 57.0433 84.9053 57.1367 84.3857 57.1367C83.8662 57.1367 83.3991 57.0433 82.9844 56.8564C82.5697 56.665 82.2142 56.4007 81.918 56.0635C81.6263 55.7217 81.403 55.3229 81.248 54.8672C81.0931 54.4115 81.0156 53.917 81.0156 53.3838ZM82.2803 53.2266V53.3838C82.2803 53.7529 82.3236 54.1016 82.4102 54.4297C82.4967 54.7533 82.6266 55.0404 82.7998 55.291C82.9775 55.5417 83.1986 55.7399 83.4629 55.8857C83.7272 56.027 84.0348 56.0977 84.3857 56.0977C84.7321 56.0977 85.0352 56.027 85.2949 55.8857C85.5592 55.7399 85.778 55.5417 85.9512 55.291C86.1243 55.0404 86.2542 54.7533 86.3408 54.4297C86.432 54.1016 86.4775 53.7529 86.4775 53.3838V53.2266C86.4775 52.862 86.432 52.5179 86.3408 52.1943C86.2542 51.8662 86.1221 51.5768 85.9443 51.3262C85.7712 51.071 85.5524 50.8704 85.2881 50.7246C85.0283 50.5788 84.723 50.5059 84.3721 50.5059C84.0257 50.5059 83.7204 50.5788 83.4561 50.7246C83.1963 50.8704 82.9775 51.071 82.7998 51.3262C82.6266 51.5768 82.4967 51.8662 82.4102 52.1943C82.3236 52.5179 82.2803 52.862 82.2803 53.2266ZM91.2217 57H89.957V48.8242C89.957 48.291 90.0527 47.8421 90.2441 47.4775C90.4401 47.1084 90.7204 46.8304 91.085 46.6436C91.4495 46.4521 91.8825 46.3564 92.3838 46.3564C92.5296 46.3564 92.6755 46.3656 92.8213 46.3838C92.9717 46.402 93.1175 46.4294 93.2588 46.4658L93.1904 47.498C93.0947 47.4753 92.9854 47.4593 92.8623 47.4502C92.7438 47.4411 92.6253 47.4365 92.5068 47.4365C92.238 47.4365 92.0055 47.4912 91.8096 47.6006C91.6182 47.7054 91.4723 47.8604 91.3721 48.0654C91.2718 48.2705 91.2217 48.5234 91.2217 48.8242V57ZM92.7939 49.6035V50.5742H88.7881V49.6035H92.7939ZM99.2471 52.4678L97.6748 52.0918L98.2422 47.0469H103.834V48.6396H99.8623L99.6162 50.8477C99.7484 50.7702 99.9489 50.6882 100.218 50.6016C100.487 50.5104 100.787 50.4648 101.12 50.4648C101.603 50.4648 102.032 50.54 102.405 50.6904C102.779 50.8408 103.096 51.0596 103.355 51.3467C103.62 51.6338 103.82 51.9847 103.957 52.3994C104.094 52.8141 104.162 53.2835 104.162 53.8076C104.162 54.2497 104.094 54.6712 103.957 55.0723C103.82 55.4688 103.613 55.8242 103.335 56.1387C103.057 56.4486 102.708 56.6924 102.289 56.8701C101.87 57.0479 101.373 57.1367 100.799 57.1367C100.37 57.1367 99.9557 57.0729 99.5547 56.9453C99.1582 56.8177 98.8005 56.6286 98.4814 56.3779C98.167 56.1273 97.9141 55.8242 97.7227 55.4688C97.5358 55.1087 97.4378 54.6986 97.4287 54.2383H99.3838C99.4111 54.5208 99.484 54.7646 99.6025 54.9697C99.7256 55.1702 99.8874 55.3252 100.088 55.4346C100.288 55.5439 100.523 55.5986 100.792 55.5986C101.043 55.5986 101.257 55.5508 101.435 55.4551C101.612 55.3594 101.756 55.2272 101.865 55.0586C101.975 54.8854 102.054 54.6849 102.104 54.457C102.159 54.2246 102.187 53.974 102.187 53.7051C102.187 53.4362 102.155 53.1924 102.091 52.9736C102.027 52.7549 101.929 52.5658 101.797 52.4062C101.665 52.2467 101.496 52.1237 101.291 52.0371C101.09 51.9505 100.856 51.9072 100.587 51.9072C100.222 51.9072 99.9398 51.9642 99.7393 52.0781C99.5433 52.1921 99.3792 52.3219 99.2471 52.4678Z" fill="#212529"/>
<rect x="130.346" y="48" width="27" height="27" fill="#00B67E"/>
<path d="M143.846 51L146.561 57.7623L153.832 58.2553L148.24 62.9277L150.017 69.9947L143.846 66.12L137.674 69.9947L139.452 62.9277L133.86 58.2553L141.13 57.7623L143.846 51Z" fill="white"/>
<rect x="161.346" y="48" width="27" height="27" fill="#00B67E"/>
<path d="M174.846 51L177.561 57.7623L184.832 58.2553L179.24 62.9277L181.017 69.9947L174.846 66.12L168.674 69.9947L170.452 62.9277L164.86 58.2553L172.13 57.7623L174.846 51Z" fill="white"/>
<rect x="192.346" y="48" width="27" height="27" fill="#00B67E"/>
<path d="M205.846 51L208.561 57.7623L215.832 58.2553L210.24 62.9277L212.017 69.9947L205.846 66.12L199.674 69.9947L201.452 62.9277L195.86 58.2553L203.13 57.7623L205.846 51Z" fill="white"/>
<rect x="223.346" y="48" width="27" height="27" fill="#00B67E"/>
<path d="M236.846 51L239.561 57.7623L246.832 58.2553L241.24 62.9277L243.017 69.9947L236.846 66.12L230.674 69.9947L232.452 62.9277L226.86 58.2553L234.13 57.7623L236.846 51Z" fill="white"/>
<rect x="254.346" y="48" width="27" height="27" fill="#00B67E"/>
<path d="M267.846 51L270.561 57.7623L277.832 58.2553L272.24 62.9277L274.017 69.9947L267.846 66.12L261.674 69.9947L263.452 62.9277L257.86 58.2553L265.13 57.7623L267.846 51Z" fill="white"/>
</svg>
