<svg width="315" height="122" viewBox="0 0 315 122" fill="none" xmlns="http://www.w3.org/2000/svg">
<rect width="315" height="122" rx="15" fill="#F9F8F6"/>
<path d="M133.414 32.1719V34H127.359V32.1719H133.414ZM128.125 22.625V34H125.781V22.625H128.125ZM132.625 27.2578V29.0391H127.359V27.2578H132.625ZM133.406 22.625V24.4609H127.359V22.625H133.406ZM136.453 25.5469L137.852 28.1172L139.289 25.5469H141.688L139.297 29.6797L141.797 34H139.391L137.867 31.2812L136.344 34H133.938L136.438 29.6797L134.047 25.5469H136.453ZM146.117 32.3984C146.393 32.3984 146.638 32.3464 146.852 32.2422C147.065 32.1328 147.232 31.9818 147.352 31.7891C147.477 31.5911 147.542 31.3594 147.547 31.0938H149.664C149.659 31.6875 149.5 32.2161 149.188 32.6797C148.875 33.138 148.456 33.5 147.93 33.7656C147.404 34.026 146.815 34.1562 146.164 34.1562C145.508 34.1562 144.935 34.0469 144.445 33.8281C143.961 33.6094 143.557 33.3073 143.234 32.9219C142.911 32.5312 142.669 32.0781 142.508 31.5625C142.346 31.0417 142.266 30.4844 142.266 29.8906V29.6641C142.266 29.0651 142.346 28.5078 142.508 27.9922C142.669 27.4714 142.911 27.0182 143.234 26.6328C143.557 26.2422 143.961 25.9375 144.445 25.7188C144.93 25.5 145.497 25.3906 146.148 25.3906C146.841 25.3906 147.448 25.5234 147.969 25.7891C148.495 26.0547 148.906 26.4349 149.203 26.9297C149.505 27.4193 149.659 28 149.664 28.6719H147.547C147.542 28.3906 147.482 28.1354 147.367 27.9062C147.258 27.6771 147.096 27.4948 146.883 27.3594C146.674 27.2188 146.417 27.1484 146.109 27.1484C145.781 27.1484 145.513 27.2188 145.305 27.3594C145.096 27.4948 144.935 27.6823 144.82 27.9219C144.706 28.1562 144.625 28.4245 144.578 28.7266C144.536 29.0234 144.516 29.3359 144.516 29.6641V29.8906C144.516 30.2188 144.536 30.5339 144.578 30.8359C144.62 31.138 144.698 31.4062 144.812 31.6406C144.932 31.875 145.096 32.0599 145.305 32.1953C145.513 32.3307 145.784 32.3984 146.117 32.3984ZM154.859 34.1562C154.203 34.1562 153.615 34.0521 153.094 33.8438C152.573 33.6302 152.13 33.3359 151.766 32.9609C151.406 32.5859 151.13 32.151 150.938 31.6562C150.745 31.1562 150.648 30.625 150.648 30.0625V29.75C150.648 29.1094 150.74 28.5234 150.922 27.9922C151.104 27.4609 151.365 27 151.703 26.6094C152.047 26.2188 152.464 25.9193 152.953 25.7109C153.443 25.4974 153.995 25.3906 154.609 25.3906C155.208 25.3906 155.74 25.4896 156.203 25.6875C156.667 25.8854 157.055 26.1667 157.367 26.5312C157.685 26.8958 157.924 27.3333 158.086 27.8438C158.247 28.349 158.328 28.9115 158.328 29.5312V30.4688H151.609V28.9688H156.117V28.7969C156.117 28.4844 156.06 28.2057 155.945 27.9609C155.836 27.7109 155.669 27.513 155.445 27.3672C155.221 27.2214 154.935 27.1484 154.586 27.1484C154.289 27.1484 154.034 27.2135 153.82 27.3438C153.607 27.474 153.432 27.6562 153.297 27.8906C153.167 28.125 153.068 28.401 153 28.7188C152.938 29.0312 152.906 29.375 152.906 29.75V30.0625C152.906 30.401 152.953 30.7135 153.047 31C153.146 31.2865 153.284 31.5339 153.461 31.7422C153.643 31.9505 153.862 32.112 154.117 32.2266C154.378 32.3411 154.672 32.3984 155 32.3984C155.406 32.3984 155.784 32.3203 156.133 32.1641C156.487 32.0026 156.792 31.7604 157.047 31.4375L158.141 32.625C157.964 32.8802 157.721 33.125 157.414 33.3594C157.112 33.5938 156.747 33.7865 156.32 33.9375C155.893 34.0833 155.406 34.1562 154.859 34.1562ZM161.984 22V34H159.727V22H161.984ZM166.219 22V34H163.961V22H166.219ZM171.969 34.1562C171.312 34.1562 170.724 34.0521 170.203 33.8438C169.682 33.6302 169.24 33.3359 168.875 32.9609C168.516 32.5859 168.24 32.151 168.047 31.6562C167.854 31.1562 167.758 30.625 167.758 30.0625V29.75C167.758 29.1094 167.849 28.5234 168.031 27.9922C168.214 27.4609 168.474 27 168.812 26.6094C169.156 26.2188 169.573 25.9193 170.062 25.7109C170.552 25.4974 171.104 25.3906 171.719 25.3906C172.318 25.3906 172.849 25.4896 173.312 25.6875C173.776 25.8854 174.164 26.1667 174.477 26.5312C174.794 26.8958 175.034 27.3333 175.195 27.8438C175.357 28.349 175.438 28.9115 175.438 29.5312V30.4688H168.719V28.9688H173.227V28.7969C173.227 28.4844 173.169 28.2057 173.055 27.9609C172.945 27.7109 172.779 27.513 172.555 27.3672C172.331 27.2214 172.044 27.1484 171.695 27.1484C171.398 27.1484 171.143 27.2135 170.93 27.3438C170.716 27.474 170.542 27.6562 170.406 27.8906C170.276 28.125 170.177 28.401 170.109 28.7188C170.047 29.0312 170.016 29.375 170.016 29.75V30.0625C170.016 30.401 170.062 30.7135 170.156 31C170.255 31.2865 170.393 31.5339 170.57 31.7422C170.753 31.9505 170.971 32.112 171.227 32.2266C171.487 32.3411 171.781 32.3984 172.109 32.3984C172.516 32.3984 172.893 32.3203 173.242 32.1641C173.596 32.0026 173.901 31.7604 174.156 31.4375L175.25 32.625C175.073 32.8802 174.831 33.125 174.523 33.3594C174.221 33.5938 173.857 33.7865 173.43 33.9375C173.003 34.0833 172.516 34.1562 171.969 34.1562ZM178.922 27.3516V34H176.672V25.5469H178.781L178.922 27.3516ZM178.594 29.4766H177.984C177.984 28.8516 178.065 28.2891 178.227 27.7891C178.388 27.2839 178.615 26.8542 178.906 26.5C179.198 26.1406 179.544 25.8672 179.945 25.6797C180.352 25.487 180.805 25.3906 181.305 25.3906C181.701 25.3906 182.062 25.4479 182.391 25.5625C182.719 25.6771 183 25.8594 183.234 26.1094C183.474 26.3594 183.656 26.6901 183.781 27.1016C183.911 27.513 183.977 28.0156 183.977 28.6094V34H181.711V28.6016C181.711 28.2266 181.659 27.9349 181.555 27.7266C181.451 27.5182 181.297 27.3724 181.094 27.2891C180.896 27.2005 180.651 27.1562 180.359 27.1562C180.057 27.1562 179.794 27.2161 179.57 27.3359C179.352 27.4557 179.169 27.6224 179.023 27.8359C178.883 28.0443 178.776 28.2891 178.703 28.5703C178.63 28.8516 178.594 29.1536 178.594 29.4766ZM189.828 25.5469V27.1406H184.906V25.5469H189.828ZM186.125 23.4609H188.375V31.4531C188.375 31.6979 188.406 31.8854 188.469 32.0156C188.536 32.1458 188.635 32.237 188.766 32.2891C188.896 32.3359 189.06 32.3594 189.258 32.3594C189.398 32.3594 189.523 32.3542 189.633 32.3438C189.747 32.3281 189.844 32.3125 189.922 32.2969L189.93 33.9531C189.737 34.0156 189.529 34.0651 189.305 34.1016C189.081 34.138 188.833 34.1562 188.562 34.1562C188.068 34.1562 187.635 34.0755 187.266 33.9141C186.901 33.7474 186.62 33.4818 186.422 33.1172C186.224 32.7526 186.125 32.2734 186.125 31.6797V23.4609Z" fill="#212529"/>
<rect x="82" y="47" width="27" height="27" fill="#00B67E"/>
<path d="M95.5 50L98.2156 56.7623L105.486 57.2553L99.8939 61.9277L101.672 68.9947L95.5 65.12L89.3283 68.9947L91.1061 61.9277L85.5139 57.2553L92.7844 56.7623L95.5 50Z" fill="white"/>
<rect x="113" y="47" width="27" height="27" fill="#00B67E"/>
<path d="M126.5 50L129.216 56.7623L136.486 57.2553L130.894 61.9277L132.672 68.9947L126.5 65.12L120.328 68.9947L122.106 61.9277L116.514 57.2553L123.784 56.7623L126.5 50Z" fill="white"/>
<rect x="144" y="47" width="27" height="27" fill="#00B67E"/>
<path d="M157.5 50L160.216 56.7623L167.486 57.2553L161.894 61.9277L163.672 68.9947L157.5 65.12L151.328 68.9947L153.106 61.9277L147.514 57.2553L154.784 56.7623L157.5 50Z" fill="white"/>
<rect x="175" y="47" width="27" height="27" fill="#00B67E"/>
<path d="M188.5 50L191.216 56.7623L198.486 57.2553L192.894 61.9277L194.672 68.9947L188.5 65.12L182.328 68.9947L184.106 61.9277L178.514 57.2553L185.784 56.7623L188.5 50Z" fill="white"/>
<rect x="206" y="47" width="27" height="27" fill="#00B67E"/>
<path d="M219.5 50L222.216 56.7623L229.486 57.2553L223.894 61.9277L225.672 68.9947L219.5 65.12L213.328 68.9947L215.106 61.9277L209.514 57.2553L216.784 56.7623L219.5 50Z" fill="white"/>
<path d="M74.2344 93.75V95.5156H66.0391L65.9297 94.1484L70.6719 86.625H72.4609L70.5234 89.8672L68.1641 93.75H74.2344ZM72.9453 86.625V98H70.6953V86.625H72.9453ZM75.6562 96.9141C75.6562 96.5807 75.7708 96.3021 76 96.0781C76.2344 95.8542 76.5443 95.7422 76.9297 95.7422C77.3151 95.7422 77.6224 95.8542 77.8516 96.0781C78.0859 96.3021 78.2031 96.5807 78.2031 96.9141C78.2031 97.2474 78.0859 97.526 77.8516 97.75C77.6224 97.974 77.3151 98.0859 76.9297 98.0859C76.5443 98.0859 76.2344 97.974 76 97.75C75.7708 97.526 75.6562 97.2474 75.6562 96.9141ZM87.7578 94.8828C87.7578 95.5964 87.5911 96.1979 87.2578 96.6875C86.9245 97.1719 86.4661 97.5391 85.8828 97.7891C85.3047 98.0339 84.6484 98.1562 83.9141 98.1562C83.1797 98.1562 82.5208 98.0339 81.9375 97.7891C81.3542 97.5391 80.8932 97.1719 80.5547 96.6875C80.2161 96.1979 80.0469 95.5964 80.0469 94.8828C80.0469 94.4036 80.1432 93.9714 80.3359 93.5859C80.5286 93.1953 80.7969 92.862 81.1406 92.5859C81.4896 92.3047 81.8984 92.0911 82.3672 91.9453C82.8359 91.7943 83.3464 91.7188 83.8984 91.7188C84.638 91.7188 85.2995 91.849 85.8828 92.1094C86.4661 92.3698 86.9245 92.737 87.2578 93.2109C87.5911 93.6849 87.7578 94.2422 87.7578 94.8828ZM85.4922 94.7344C85.4922 94.3854 85.4245 94.0859 85.2891 93.8359C85.1589 93.5807 84.974 93.3854 84.7344 93.25C84.4948 93.1146 84.2161 93.0469 83.8984 93.0469C83.5807 93.0469 83.3021 93.1146 83.0625 93.25C82.8229 93.3854 82.6354 93.5807 82.5 93.8359C82.3698 94.0859 82.3047 94.3854 82.3047 94.7344C82.3047 95.0781 82.3698 95.375 82.5 95.625C82.6354 95.875 82.8229 96.0677 83.0625 96.2031C83.3073 96.3333 83.5911 96.3984 83.9141 96.3984C84.237 96.3984 84.5156 96.3333 84.75 96.2031C84.9896 96.0677 85.1719 95.875 85.2969 95.625C85.4271 95.375 85.4922 95.0781 85.4922 94.7344ZM87.5156 89.6406C87.5156 90.2188 87.362 90.7318 87.0547 91.1797C86.7474 91.6224 86.3203 91.9688 85.7734 92.2188C85.2318 92.4688 84.612 92.5938 83.9141 92.5938C83.2109 92.5938 82.5859 92.4688 82.0391 92.2188C81.4922 91.9688 81.0651 91.6224 80.7578 91.1797C80.4505 90.7318 80.2969 90.2188 80.2969 89.6406C80.2969 88.9531 80.4505 88.375 80.7578 87.9062C81.0703 87.4323 81.4974 87.0729 82.0391 86.8281C82.5859 86.5833 83.2057 86.4609 83.8984 86.4609C84.6016 86.4609 85.224 86.5833 85.7656 86.8281C86.3125 87.0729 86.7396 87.4323 87.0469 87.9062C87.3594 88.375 87.5156 88.9531 87.5156 89.6406ZM85.2656 89.7422C85.2656 89.4349 85.2109 89.1693 85.1016 88.9453C84.9922 88.7161 84.8359 88.5391 84.6328 88.4141C84.4349 88.2891 84.1901 88.2266 83.8984 88.2266C83.6172 88.2266 83.375 88.2865 83.1719 88.4062C82.974 88.526 82.8203 88.7005 82.7109 88.9297C82.6068 89.1536 82.5547 89.4245 82.5547 89.7422C82.5547 90.0495 82.6068 90.3203 82.7109 90.5547C82.8203 90.7839 82.9766 90.9635 83.1797 91.0938C83.3828 91.224 83.6276 91.2891 83.9141 91.2891C84.2005 91.2891 84.4427 91.224 84.6406 91.0938C84.8438 90.9635 84.9974 90.7839 85.1016 90.5547C85.2109 90.3203 85.2656 90.0495 85.2656 89.7422ZM141.195 92.8203L139.398 92.3906L140.047 86.625H146.438V88.4453H141.898L141.617 90.9688C141.768 90.8802 141.997 90.7865 142.305 90.6875C142.612 90.5833 142.956 90.5312 143.336 90.5312C143.888 90.5312 144.378 90.6172 144.805 90.7891C145.232 90.9609 145.594 91.2109 145.891 91.5391C146.193 91.8672 146.422 92.2682 146.578 92.7422C146.734 93.2161 146.812 93.7526 146.812 94.3516C146.812 94.8568 146.734 95.3385 146.578 95.7969C146.422 96.25 146.185 96.6562 145.867 97.0156C145.549 97.3698 145.151 97.6484 144.672 97.8516C144.193 98.0547 143.625 98.1562 142.969 98.1562C142.479 98.1562 142.005 98.0833 141.547 97.9375C141.094 97.7917 140.685 97.5755 140.32 97.2891C139.961 97.0026 139.672 96.6562 139.453 96.25C139.24 95.8385 139.128 95.3698 139.117 94.8438H141.352C141.383 95.1667 141.466 95.4453 141.602 95.6797C141.742 95.9089 141.927 96.0859 142.156 96.2109C142.385 96.3359 142.654 96.3984 142.961 96.3984C143.247 96.3984 143.492 96.3438 143.695 96.2344C143.898 96.125 144.062 95.974 144.188 95.7812C144.312 95.5833 144.404 95.3542 144.461 95.0938C144.523 94.8281 144.555 94.5417 144.555 94.2344C144.555 93.9271 144.518 93.6484 144.445 93.3984C144.372 93.1484 144.26 92.9323 144.109 92.75C143.958 92.5677 143.766 92.4271 143.531 92.3281C143.302 92.2292 143.034 92.1797 142.727 92.1797C142.31 92.1797 141.987 92.2448 141.758 92.375C141.534 92.5052 141.346 92.6536 141.195 92.8203ZM165.914 86.5078H166.242V88.3047H166.109C165.516 88.3047 164.987 88.3932 164.523 88.5703C164.06 88.7474 163.667 89 163.344 89.3281C163.026 89.651 162.781 90.0417 162.609 90.5C162.443 90.9583 162.359 91.4714 162.359 92.0391V93.9297C162.359 94.3359 162.398 94.6953 162.477 95.0078C162.56 95.3151 162.677 95.5729 162.828 95.7812C162.984 95.9844 163.167 96.138 163.375 96.2422C163.583 96.3411 163.818 96.3906 164.078 96.3906C164.323 96.3906 164.544 96.3385 164.742 96.2344C164.945 96.1302 165.117 95.9844 165.258 95.7969C165.404 95.6042 165.513 95.3802 165.586 95.125C165.664 94.8646 165.703 94.5807 165.703 94.2734C165.703 93.9661 165.664 93.6823 165.586 93.4219C165.513 93.1615 165.404 92.9375 165.258 92.75C165.112 92.5573 164.935 92.4089 164.727 92.3047C164.518 92.2005 164.284 92.1484 164.023 92.1484C163.669 92.1484 163.357 92.2318 163.086 92.3984C162.82 92.5599 162.612 92.7682 162.461 93.0234C162.31 93.2786 162.229 93.5469 162.219 93.8281L161.539 93.3906C161.555 92.9896 161.638 92.6094 161.789 92.25C161.945 91.8906 162.159 91.5729 162.43 91.2969C162.706 91.0156 163.036 90.7969 163.422 90.6406C163.807 90.4792 164.242 90.3984 164.727 90.3984C165.258 90.3984 165.724 90.5 166.125 90.7031C166.531 90.9062 166.87 91.1849 167.141 91.5391C167.411 91.8932 167.615 92.3021 167.75 92.7656C167.885 93.2292 167.953 93.724 167.953 94.25C167.953 94.8021 167.862 95.3151 167.68 95.7891C167.503 96.263 167.245 96.6771 166.906 97.0312C166.573 97.3854 166.172 97.6615 165.703 97.8594C165.234 98.0573 164.708 98.1562 164.125 98.1562C163.521 98.1562 162.971 98.0469 162.477 97.8281C161.987 97.6042 161.565 97.2917 161.211 96.8906C160.857 96.4896 160.583 96.013 160.391 95.4609C160.203 94.9089 160.109 94.3047 160.109 93.6484V92.7734C160.109 91.8568 160.242 91.0182 160.508 90.2578C160.779 89.4922 161.167 88.8307 161.672 88.2734C162.177 87.7109 162.786 87.276 163.5 86.9688C164.214 86.6615 165.018 86.5078 165.914 86.5078ZM174.781 86.6016V98H172.531V89.1953L169.828 90.0547V88.2812L174.539 86.6016H174.781ZM184.289 86.5078H184.617V88.3047H184.484C183.891 88.3047 183.362 88.3932 182.898 88.5703C182.435 88.7474 182.042 89 181.719 89.3281C181.401 89.651 181.156 90.0417 180.984 90.5C180.818 90.9583 180.734 91.4714 180.734 92.0391V93.9297C180.734 94.3359 180.773 94.6953 180.852 95.0078C180.935 95.3151 181.052 95.5729 181.203 95.7812C181.359 95.9844 181.542 96.138 181.75 96.2422C181.958 96.3411 182.193 96.3906 182.453 96.3906C182.698 96.3906 182.919 96.3385 183.117 96.2344C183.32 96.1302 183.492 95.9844 183.633 95.7969C183.779 95.6042 183.888 95.3802 183.961 95.125C184.039 94.8646 184.078 94.5807 184.078 94.2734C184.078 93.9661 184.039 93.6823 183.961 93.4219C183.888 93.1615 183.779 92.9375 183.633 92.75C183.487 92.5573 183.31 92.4089 183.102 92.3047C182.893 92.2005 182.659 92.1484 182.398 92.1484C182.044 92.1484 181.732 92.2318 181.461 92.3984C181.195 92.5599 180.987 92.7682 180.836 93.0234C180.685 93.2786 180.604 93.5469 180.594 93.8281L179.914 93.3906C179.93 92.9896 180.013 92.6094 180.164 92.25C180.32 91.8906 180.534 91.5729 180.805 91.2969C181.081 91.0156 181.411 90.7969 181.797 90.6406C182.182 90.4792 182.617 90.3984 183.102 90.3984C183.633 90.3984 184.099 90.5 184.5 90.7031C184.906 90.9062 185.245 91.1849 185.516 91.5391C185.786 91.8932 185.99 92.3021 186.125 92.7656C186.26 93.2292 186.328 93.724 186.328 94.25C186.328 94.8021 186.237 95.3151 186.055 95.7891C185.878 96.263 185.62 96.6771 185.281 97.0312C184.948 97.3854 184.547 97.6615 184.078 97.8594C183.609 98.0573 183.083 98.1562 182.5 98.1562C181.896 98.1562 181.346 98.0469 180.852 97.8281C180.362 97.6042 179.94 97.2917 179.586 96.8906C179.232 96.4896 178.958 96.013 178.766 95.4609C178.578 94.9089 178.484 94.3047 178.484 93.6484V92.7734C178.484 91.8568 178.617 91.0182 178.883 90.2578C179.154 89.4922 179.542 88.8307 180.047 88.2734C180.552 87.7109 181.161 87.276 181.875 86.9688C182.589 86.6615 183.393 86.5078 184.289 86.5078Z" fill="black"/>
<path d="M93.2031 93.8672V93.6875C93.2031 93.0781 93.2917 92.513 93.4688 91.9922C93.6458 91.4661 93.901 91.0104 94.2344 90.625C94.5677 90.2344 94.9714 89.9323 95.4453 89.7188C95.9193 89.5 96.4505 89.3906 97.0391 89.3906C97.6328 89.3906 98.1667 89.5 98.6406 89.7188C99.1198 89.9323 99.526 90.2344 99.8594 90.625C100.198 91.0104 100.456 91.4661 100.633 91.9922C100.81 92.513 100.898 93.0781 100.898 93.6875V93.8672C100.898 94.4766 100.81 95.0417 100.633 95.5625C100.456 96.0833 100.198 96.5391 99.8594 96.9297C99.526 97.3151 99.1224 97.6172 98.6484 97.8359C98.1797 98.0495 97.6484 98.1562 97.0547 98.1562C96.4609 98.1562 95.9271 98.0495 95.4531 97.8359C94.9792 97.6172 94.5729 97.3151 94.2344 96.9297C93.901 96.5391 93.6458 96.0833 93.4688 95.5625C93.2917 95.0417 93.2031 94.4766 93.2031 93.8672ZM94.6484 93.6875V93.8672C94.6484 94.2891 94.6979 94.6875 94.7969 95.0625C94.8958 95.4323 95.0443 95.7604 95.2422 96.0469C95.4453 96.3333 95.6979 96.5599 96 96.7266C96.3021 96.888 96.6536 96.9688 97.0547 96.9688C97.4505 96.9688 97.7969 96.888 98.0938 96.7266C98.3958 96.5599 98.6458 96.3333 98.8438 96.0469C99.0417 95.7604 99.1901 95.4323 99.2891 95.0625C99.3932 94.6875 99.4453 94.2891 99.4453 93.8672V93.6875C99.4453 93.2708 99.3932 92.8776 99.2891 92.5078C99.1901 92.1328 99.0391 91.8021 98.8359 91.5156C98.638 91.224 98.388 90.9948 98.0859 90.8281C97.7891 90.6615 97.4401 90.5781 97.0391 90.5781C96.6432 90.5781 96.2943 90.6615 95.9922 90.8281C95.6953 90.9948 95.4453 91.224 95.2422 91.5156C95.0443 91.8021 94.8958 92.1328 94.7969 92.5078C94.6979 92.8776 94.6484 93.2708 94.6484 93.6875ZM107.883 96.0469V89.5469H109.336V98H107.953L107.883 96.0469ZM108.156 94.2656L108.758 94.25C108.758 94.8125 108.698 95.3333 108.578 95.8125C108.464 96.2865 108.276 96.6979 108.016 97.0469C107.755 97.3958 107.414 97.6693 106.992 97.8672C106.57 98.0599 106.057 98.1562 105.453 98.1562C105.042 98.1562 104.664 98.0964 104.32 97.9766C103.982 97.8568 103.69 97.6719 103.445 97.4219C103.201 97.1719 103.01 96.8464 102.875 96.4453C102.745 96.0443 102.68 95.5625 102.68 95V89.5469H104.125V95.0156C104.125 95.3958 104.167 95.7109 104.25 95.9609C104.339 96.2057 104.456 96.401 104.602 96.5469C104.753 96.6875 104.919 96.7865 105.102 96.8438C105.289 96.901 105.482 96.9297 105.68 96.9297C106.294 96.9297 106.781 96.8125 107.141 96.5781C107.5 96.3385 107.758 96.0182 107.914 95.6172C108.076 95.2109 108.156 94.7604 108.156 94.2656ZM115.078 89.5469V90.6562H110.508V89.5469H115.078ZM112.055 87.4922H113.5V95.9062C113.5 96.1927 113.544 96.4089 113.633 96.5547C113.721 96.7005 113.836 96.7969 113.977 96.8438C114.117 96.8906 114.268 96.9141 114.43 96.9141C114.549 96.9141 114.674 96.9036 114.805 96.8828C114.94 96.8568 115.042 96.8359 115.109 96.8203L115.117 98C115.003 98.0365 114.852 98.0703 114.664 98.1016C114.482 98.138 114.26 98.1562 114 98.1562C113.646 98.1562 113.32 98.0859 113.023 97.9453C112.727 97.8047 112.49 97.5703 112.312 97.2422C112.141 96.9089 112.055 96.4609 112.055 95.8984V87.4922ZM120.359 93.8672V93.6875C120.359 93.0781 120.448 92.513 120.625 91.9922C120.802 91.4661 121.057 91.0104 121.391 90.625C121.724 90.2344 122.128 89.9323 122.602 89.7188C123.076 89.5 123.607 89.3906 124.195 89.3906C124.789 89.3906 125.323 89.5 125.797 89.7188C126.276 89.9323 126.682 90.2344 127.016 90.625C127.354 91.0104 127.612 91.4661 127.789 91.9922C127.966 92.513 128.055 93.0781 128.055 93.6875V93.8672C128.055 94.4766 127.966 95.0417 127.789 95.5625C127.612 96.0833 127.354 96.5391 127.016 96.9297C126.682 97.3151 126.279 97.6172 125.805 97.8359C125.336 98.0495 124.805 98.1562 124.211 98.1562C123.617 98.1562 123.083 98.0495 122.609 97.8359C122.135 97.6172 121.729 97.3151 121.391 96.9297C121.057 96.5391 120.802 96.0833 120.625 95.5625C120.448 95.0417 120.359 94.4766 120.359 93.8672ZM121.805 93.6875V93.8672C121.805 94.2891 121.854 94.6875 121.953 95.0625C122.052 95.4323 122.201 95.7604 122.398 96.0469C122.602 96.3333 122.854 96.5599 123.156 96.7266C123.458 96.888 123.81 96.9688 124.211 96.9688C124.607 96.9688 124.953 96.888 125.25 96.7266C125.552 96.5599 125.802 96.3333 126 96.0469C126.198 95.7604 126.346 95.4323 126.445 95.0625C126.549 94.6875 126.602 94.2891 126.602 93.8672V93.6875C126.602 93.2708 126.549 92.8776 126.445 92.5078C126.346 92.1328 126.195 91.8021 125.992 91.5156C125.794 91.224 125.544 90.9948 125.242 90.8281C124.945 90.6615 124.596 90.5781 124.195 90.5781C123.799 90.5781 123.451 90.6615 123.148 90.8281C122.852 90.9948 122.602 91.224 122.398 91.5156C122.201 91.8021 122.052 92.1328 121.953 92.5078C121.854 92.8776 121.805 93.2708 121.805 93.6875ZM132.023 98H130.578V88.6562C130.578 88.0469 130.688 87.5339 130.906 87.1172C131.13 86.6953 131.451 86.3776 131.867 86.1641C132.284 85.9453 132.779 85.8359 133.352 85.8359C133.518 85.8359 133.685 85.8464 133.852 85.8672C134.023 85.888 134.19 85.9193 134.352 85.9609L134.273 87.1406C134.164 87.1146 134.039 87.0964 133.898 87.0859C133.763 87.0755 133.628 87.0703 133.492 87.0703C133.185 87.0703 132.919 87.1328 132.695 87.2578C132.477 87.3776 132.31 87.5547 132.195 87.7891C132.081 88.0234 132.023 88.3125 132.023 88.6562V98ZM133.82 89.5469V90.6562H129.242V89.5469H133.82ZM153.992 86.625V100.109H152.828V86.625H153.992ZM192.18 86.625H195.945C196.799 86.625 197.521 86.7552 198.109 87.0156C198.703 87.276 199.154 87.6615 199.461 88.1719C199.773 88.6771 199.93 89.2995 199.93 90.0391C199.93 90.5599 199.823 91.0365 199.609 91.4688C199.401 91.8958 199.099 92.2604 198.703 92.5625C198.312 92.8594 197.844 93.0807 197.297 93.2266L196.875 93.3906H193.336L193.32 92.1641H195.992C196.534 92.1641 196.984 92.0703 197.344 91.8828C197.703 91.6901 197.974 91.4323 198.156 91.1094C198.339 90.7865 198.43 90.4297 198.43 90.0391C198.43 89.6016 198.344 89.2188 198.172 88.8906C198 88.5625 197.729 88.3099 197.359 88.1328C196.995 87.9505 196.523 87.8594 195.945 87.8594H193.688V98H192.18V86.625ZM198.828 98L196.062 92.8438L197.633 92.8359L200.438 97.9062V98H198.828ZM205.328 98.1562C204.74 98.1562 204.206 98.0573 203.727 97.8594C203.253 97.6562 202.844 97.3724 202.5 97.0078C202.161 96.6432 201.901 96.2109 201.719 95.7109C201.536 95.2109 201.445 94.6641 201.445 94.0703V93.7422C201.445 93.0547 201.547 92.4427 201.75 91.9062C201.953 91.3646 202.229 90.9062 202.578 90.5312C202.927 90.1562 203.323 89.8724 203.766 89.6797C204.208 89.487 204.667 89.3906 205.141 89.3906C205.745 89.3906 206.266 89.4948 206.703 89.7031C207.146 89.9115 207.508 90.2031 207.789 90.5781C208.07 90.9479 208.279 91.3854 208.414 91.8906C208.549 92.3906 208.617 92.9375 208.617 93.5312V94.1797H202.305V93H207.172V92.8906C207.151 92.5156 207.073 92.151 206.938 91.7969C206.807 91.4427 206.599 91.151 206.312 90.9219C206.026 90.6927 205.635 90.5781 205.141 90.5781C204.812 90.5781 204.51 90.6484 204.234 90.7891C203.958 90.9245 203.721 91.1276 203.523 91.3984C203.326 91.6693 203.172 92 203.062 92.3906C202.953 92.7812 202.898 93.2318 202.898 93.7422V94.0703C202.898 94.4714 202.953 94.849 203.062 95.2031C203.177 95.5521 203.341 95.8594 203.555 96.125C203.773 96.3906 204.036 96.599 204.344 96.75C204.656 96.901 205.01 96.9766 205.406 96.9766C205.917 96.9766 206.349 96.8724 206.703 96.6641C207.057 96.4557 207.367 96.1771 207.633 95.8281L208.508 96.5234C208.326 96.7995 208.094 97.0625 207.812 97.3125C207.531 97.5625 207.185 97.7656 206.773 97.9219C206.367 98.0781 205.885 98.1562 205.328 98.1562ZM212.766 96.6953L215.078 89.5469H216.555L213.516 98H212.547L212.766 96.6953ZM210.836 89.5469L213.219 96.7344L213.383 98H212.414L209.352 89.5469H210.836ZM219.516 89.5469V98H218.062V89.5469H219.516ZM217.953 87.3047C217.953 87.0703 218.023 86.8724 218.164 86.7109C218.31 86.5495 218.523 86.4688 218.805 86.4688C219.081 86.4688 219.292 86.5495 219.438 86.7109C219.589 86.8724 219.664 87.0703 219.664 87.3047C219.664 87.5286 219.589 87.7214 219.438 87.8828C219.292 88.0391 219.081 88.1172 218.805 88.1172C218.523 88.1172 218.31 88.0391 218.164 87.8828C218.023 87.7214 217.953 87.5286 217.953 87.3047ZM225.344 98.1562C224.755 98.1562 224.221 98.0573 223.742 97.8594C223.268 97.6562 222.859 97.3724 222.516 97.0078C222.177 96.6432 221.917 96.2109 221.734 95.7109C221.552 95.2109 221.461 94.6641 221.461 94.0703V93.7422C221.461 93.0547 221.562 92.4427 221.766 91.9062C221.969 91.3646 222.245 90.9062 222.594 90.5312C222.943 90.1562 223.339 89.8724 223.781 89.6797C224.224 89.487 224.682 89.3906 225.156 89.3906C225.76 89.3906 226.281 89.4948 226.719 89.7031C227.161 89.9115 227.523 90.2031 227.805 90.5781C228.086 90.9479 228.294 91.3854 228.43 91.8906C228.565 92.3906 228.633 92.9375 228.633 93.5312V94.1797H222.32V93H227.188V92.8906C227.167 92.5156 227.089 92.151 226.953 91.7969C226.823 91.4427 226.615 91.151 226.328 90.9219C226.042 90.6927 225.651 90.5781 225.156 90.5781C224.828 90.5781 224.526 90.6484 224.25 90.7891C223.974 90.9245 223.737 91.1276 223.539 91.3984C223.341 91.6693 223.188 92 223.078 92.3906C222.969 92.7812 222.914 93.2318 222.914 93.7422V94.0703C222.914 94.4714 222.969 94.849 223.078 95.2031C223.193 95.5521 223.357 95.8594 223.57 96.125C223.789 96.3906 224.052 96.599 224.359 96.75C224.672 96.901 225.026 96.9766 225.422 96.9766C225.932 96.9766 226.365 96.8724 226.719 96.6641C227.073 96.4557 227.383 96.1771 227.648 95.8281L228.523 96.5234C228.341 96.7995 228.109 97.0625 227.828 97.3125C227.547 97.5625 227.201 97.7656 226.789 97.9219C226.383 98.0781 225.901 98.1562 225.344 98.1562ZM232.461 96.5L234.633 89.5469H235.586L235.398 90.9297L233.188 98H232.258L232.461 96.5ZM231 89.5469L232.852 96.5781L232.984 98H232.008L229.555 89.5469H231ZM237.664 96.5234L239.43 89.5469H240.867L238.414 98H237.445L237.664 96.5234ZM235.797 89.5469L237.922 96.3828L238.164 98H237.242L234.969 90.9141L234.781 89.5469H235.797ZM247.273 95.7578C247.273 95.5495 247.227 95.3568 247.133 95.1797C247.044 94.9974 246.859 94.8333 246.578 94.6875C246.302 94.5365 245.885 94.4062 245.328 94.2969C244.859 94.1979 244.435 94.0807 244.055 93.9453C243.68 93.8099 243.359 93.6458 243.094 93.4531C242.833 93.2604 242.633 93.0339 242.492 92.7734C242.352 92.513 242.281 92.2083 242.281 91.8594C242.281 91.526 242.354 91.2109 242.5 90.9141C242.651 90.6172 242.862 90.3542 243.133 90.125C243.409 89.8958 243.74 89.7161 244.125 89.5859C244.51 89.4557 244.94 89.3906 245.414 89.3906C246.091 89.3906 246.669 89.5104 247.148 89.75C247.628 89.9896 247.995 90.3099 248.25 90.7109C248.505 91.1068 248.633 91.5469 248.633 92.0312H247.188C247.188 91.7969 247.117 91.5703 246.977 91.3516C246.841 91.1276 246.641 90.9427 246.375 90.7969C246.115 90.651 245.794 90.5781 245.414 90.5781C245.013 90.5781 244.688 90.6406 244.438 90.7656C244.193 90.8854 244.013 91.0391 243.898 91.2266C243.789 91.4141 243.734 91.612 243.734 91.8203C243.734 91.9766 243.76 92.1172 243.812 92.2422C243.87 92.362 243.969 92.474 244.109 92.5781C244.25 92.6771 244.448 92.7708 244.703 92.8594C244.958 92.9479 245.284 93.0365 245.68 93.125C246.372 93.2812 246.943 93.4688 247.391 93.6875C247.839 93.9062 248.172 94.1745 248.391 94.4922C248.609 94.8099 248.719 95.1953 248.719 95.6484C248.719 96.0182 248.641 96.3568 248.484 96.6641C248.333 96.9714 248.112 97.237 247.82 97.4609C247.534 97.6797 247.19 97.8516 246.789 97.9766C246.393 98.0964 245.948 98.1562 245.453 98.1562C244.708 98.1562 244.078 98.0234 243.562 97.7578C243.047 97.4922 242.656 97.1484 242.391 96.7266C242.125 96.3047 241.992 95.8594 241.992 95.3906H243.445C243.466 95.7865 243.581 96.1016 243.789 96.3359C243.997 96.5651 244.253 96.7292 244.555 96.8281C244.857 96.9219 245.156 96.9688 245.453 96.9688C245.849 96.9688 246.18 96.9167 246.445 96.8125C246.716 96.7083 246.922 96.5651 247.062 96.3828C247.203 96.2005 247.273 95.9922 247.273 95.7578Z" fill="#212529"/>
</svg>
