<svg width="95" height="23" viewBox="0 0 95 23" fill="none" xmlns="http://www.w3.org/2000/svg">
<path d="M25.2063 8.15076H34.716V9.91518H30.9717V19.8616H28.9193V9.91518H25.1907L25.2063 8.15076ZM34.3087 11.3829H36.0633V13.0224H36.0947C36.1573 12.7882 36.267 12.5696 36.4237 12.351C36.5803 12.1324 36.7683 11.9294 37.0033 11.7577C37.2227 11.5703 37.4733 11.4298 37.7553 11.3205C38.0217 11.2112 38.3037 11.1487 38.5857 11.1487C38.805 11.1487 38.9617 11.1643 39.04 11.1643C39.1183 11.1799 39.2123 11.1956 39.2907 11.1956V12.9912C39.1653 12.96 39.0243 12.9444 38.8833 12.9288C38.7423 12.9131 38.617 12.8975 38.476 12.8975C38.1627 12.8975 37.865 12.96 37.583 13.0849C37.301 13.2098 37.066 13.3972 36.8467 13.6314C36.643 13.8812 36.4707 14.1779 36.3453 14.537C36.22 14.8962 36.1573 15.3178 36.1573 15.7862V19.8147H34.2773L34.3087 11.3829ZM47.9073 19.8616H46.0587V18.6749H46.0273C45.7923 19.1121 45.4477 19.44 44.9933 19.7054C44.539 19.9709 44.069 20.0958 43.599 20.0958C42.4867 20.0958 41.672 19.8303 41.1707 19.2682C40.6693 18.7217 40.4187 17.8785 40.4187 16.7699V11.3829H42.2987V16.5825C42.2987 17.332 42.4397 17.8629 42.7373 18.1596C43.0193 18.4719 43.4267 18.628 43.9437 18.628C44.3353 18.628 44.6643 18.5656 44.9307 18.4406C45.197 18.3157 45.4163 18.1596 45.573 17.9566C45.7453 17.7536 45.855 17.5038 45.9333 17.2227C46.0117 16.9417 46.043 16.6294 46.043 16.3015V11.3829H47.923V19.8616H47.9073ZM51.1033 17.1446C51.166 17.6911 51.3697 18.0659 51.73 18.3001C52.0903 18.5187 52.529 18.628 53.0303 18.628C53.2027 18.628 53.4063 18.6124 53.6257 18.5812C53.845 18.5499 54.0643 18.5031 54.2523 18.425C54.456 18.347 54.6127 18.2377 54.738 18.0815C54.8633 17.9254 54.926 17.738 54.9103 17.5038C54.8947 17.2696 54.8163 17.0666 54.644 16.9104C54.4717 16.7543 54.268 16.645 54.0173 16.5357C53.7667 16.442 53.469 16.3639 53.14 16.3015C52.811 16.239 52.482 16.1609 52.1373 16.0829C51.7927 16.0048 51.448 15.9111 51.119 15.8018C50.79 15.6925 50.508 15.552 50.2417 15.349C49.991 15.1616 49.7717 14.9274 49.6307 14.6307C49.474 14.3341 49.3957 13.9905 49.3957 13.5533C49.3957 13.0849 49.5053 12.7102 49.7403 12.3979C49.9597 12.0856 50.2573 11.8358 50.602 11.6484C50.9467 11.461 51.3383 11.3205 51.7613 11.2424C52.1843 11.1643 52.5917 11.1331 52.9677 11.1331C53.4063 11.1331 53.8293 11.1799 54.221 11.2736C54.6127 11.3673 54.9887 11.5079 55.302 11.7265C55.631 11.9294 55.8973 12.2105 56.101 12.5384C56.3203 12.8663 56.4457 13.2723 56.5083 13.7407H54.55C54.456 13.2879 54.2523 12.9912 53.939 12.8351C53.61 12.6789 53.2497 12.6009 52.8267 12.6009C52.7013 12.6009 52.529 12.6165 52.3567 12.6321C52.1687 12.6633 52.012 12.6945 51.8397 12.757C51.683 12.8195 51.542 12.9131 51.4323 13.0224C51.3227 13.1317 51.26 13.2879 51.26 13.4753C51.26 13.7095 51.3383 13.8812 51.495 14.0218C51.6517 14.1623 51.8553 14.2716 52.1217 14.3809C52.3723 14.4746 52.67 14.5527 52.999 14.6151C53.328 14.6776 53.6727 14.7556 54.0173 14.8337C54.362 14.9118 54.691 15.0055 55.02 15.1148C55.349 15.2241 55.6467 15.3646 55.8973 15.5676C56.148 15.755 56.3673 15.9892 56.524 16.2702C56.6807 16.5513 56.759 16.9104 56.759 17.3164C56.759 17.8161 56.6493 18.2377 56.4143 18.5968C56.1793 18.9403 55.8817 19.237 55.5213 19.4556C55.161 19.6742 54.738 19.8303 54.2993 19.9396C53.845 20.0333 53.4063 20.0958 52.9677 20.0958C52.435 20.0958 51.9337 20.0333 51.4793 19.9084C51.025 19.7835 50.6177 19.5961 50.2887 19.3619C49.9597 19.1121 49.6933 18.8154 49.5053 18.4406C49.3173 18.0815 49.2077 17.6443 49.192 17.129H51.0877V17.1446H51.1033ZM57.2917 11.3829H58.7173V8.82217H60.5973V11.3673H62.2893V12.757H60.5973V17.2852C60.5973 17.4882 60.613 17.6443 60.6287 17.8005C60.6443 17.941 60.6913 18.0659 60.7383 18.1596C60.801 18.2533 60.895 18.3313 61.0047 18.3782C61.13 18.425 61.2867 18.4563 61.506 18.4563C61.6313 18.4563 61.7723 18.4563 61.8977 18.4406C62.023 18.425 62.164 18.4094 62.2893 18.3782V19.8303C62.0857 19.8616 61.882 19.8772 61.6783 19.8928C61.4747 19.924 61.2867 19.924 61.0673 19.924C60.566 19.924 60.1743 19.8772 59.8767 19.7835C59.579 19.6898 59.344 19.5493 59.1717 19.3775C58.9993 19.1901 58.8897 18.9715 58.827 18.7061C58.7643 18.4406 58.733 18.1127 58.7173 17.7692V12.7726H57.2917V11.3517V11.3829ZM63.6053 11.3829H65.3757V12.5384H65.407C65.6733 12.0387 66.0337 11.6952 66.5037 11.4766C66.9737 11.258 67.475 11.1487 68.039 11.1487C68.7127 11.1487 69.2923 11.258 69.7937 11.5079C70.295 11.7421 70.7023 12.0544 71.0313 12.4759C71.3603 12.8819 71.611 13.366 71.7677 13.9125C71.9243 14.459 72.0183 15.0523 72.0183 15.6613C72.0183 16.239 71.94 16.7855 71.799 17.3164C71.6423 17.8473 71.423 18.3313 71.1253 18.7373C70.8277 19.1433 70.4517 19.4712 69.9817 19.721C69.5117 19.9708 68.979 20.0958 68.3523 20.0958C68.086 20.0958 67.804 20.0645 67.5377 20.0177C67.2713 19.9709 67.005 19.8928 66.7543 19.7835C66.5037 19.6742 66.2687 19.5336 66.065 19.3619C65.8457 19.1901 65.6733 18.9871 65.5323 18.7685H65.501V23H63.621V11.3829H63.6053ZM70.1697 15.6301C70.1697 15.2553 70.1227 14.8806 70.013 14.5214C69.919 14.1623 69.7623 13.85 69.5587 13.5689C69.355 13.2879 69.1043 13.0693 68.8223 12.8975C68.5247 12.7258 68.18 12.6477 67.804 12.6477C67.0207 12.6477 66.4253 12.9131 66.018 13.4597C65.6263 14.0062 65.4227 14.74 65.4227 15.6457C65.4227 16.0829 65.4697 16.4732 65.5793 16.8324C65.689 17.1915 65.83 17.5038 66.0493 17.7692C66.253 18.0347 66.5037 18.2377 66.8013 18.3938C67.099 18.5499 67.428 18.628 67.8197 18.628C68.2583 18.628 68.603 18.5343 68.9007 18.3626C69.1983 18.1908 69.4333 17.9566 69.637 17.6911C69.825 17.4101 69.966 17.0978 70.0443 16.7387C70.1227 16.3639 70.1697 16.0048 70.1697 15.6301ZM73.4753 8.15076H75.3553V9.91518H73.4753V8.15076ZM73.4753 11.3829H75.3553V19.8616H73.4753V11.3829ZM77.0317 8.15076H78.9117V19.8616H77.0317V8.15076ZM84.6457 20.0958C83.972 20.0958 83.361 19.9865 82.8283 19.7523C82.2957 19.518 81.857 19.2214 81.481 18.831C81.1207 18.4406 80.8387 17.9566 80.6507 17.4101C80.4627 16.8636 80.353 16.2546 80.353 15.6144C80.353 14.9742 80.447 14.3809 80.6507 13.8344C80.8387 13.2879 81.1207 12.8195 81.481 12.4135C81.8413 12.0231 82.2957 11.7108 82.8283 11.4922C83.361 11.2736 83.972 11.1487 84.6457 11.1487C85.3193 11.1487 85.9303 11.258 86.463 11.4922C86.9957 11.7108 87.4343 12.0231 87.8103 12.4135C88.1707 12.8038 88.4527 13.2879 88.6407 13.8344C88.8287 14.3809 88.9383 14.9742 88.9383 15.6144C88.9383 16.2702 88.8443 16.8636 88.6407 17.4101C88.437 17.9566 88.1707 18.425 87.8103 18.831C87.45 19.2214 86.9957 19.5336 86.463 19.7523C85.9303 19.9709 85.335 20.0958 84.6457 20.0958ZM84.6457 18.6124C85.053 18.6124 85.429 18.5187 85.7267 18.347C86.04 18.1752 86.275 17.941 86.4787 17.6599C86.6823 17.3789 86.8233 17.051 86.9173 16.7074C87.0113 16.3483 87.0583 15.9892 87.0583 15.6144C87.0583 15.2553 87.0113 14.8962 86.9173 14.537C86.8233 14.1779 86.6823 13.8656 86.4787 13.5846C86.275 13.3035 86.0243 13.0849 85.7267 12.9131C85.4133 12.7414 85.053 12.6477 84.6457 12.6477C84.2383 12.6477 83.8623 12.7414 83.5647 12.9131C83.2513 13.0849 83.0163 13.3191 82.8127 13.5846C82.609 13.8656 82.468 14.1779 82.374 14.537C82.28 14.8962 82.233 15.2553 82.233 15.6144C82.233 15.9892 82.28 16.3483 82.374 16.7074C82.468 17.0666 82.609 17.3789 82.8127 17.6599C83.0163 17.941 83.267 18.1752 83.5647 18.347C83.878 18.5343 84.2383 18.6124 84.6457 18.6124ZM89.5023 11.3829H90.928V8.82217H92.808V11.3673H94.5V12.757H92.808V17.2852C92.808 17.4882 92.8237 17.6443 92.8393 17.8005C92.855 17.941 92.902 18.0659 92.949 18.1596C93.0117 18.2533 93.1057 18.3313 93.2153 18.3782C93.3407 18.425 93.4973 18.4563 93.7167 18.4563C93.842 18.4563 93.983 18.4563 94.1083 18.4406C94.2337 18.425 94.3747 18.4094 94.5 18.3782V19.8303C94.2963 19.8616 94.0927 19.8772 93.889 19.8928C93.6853 19.924 93.4973 19.924 93.278 19.924C92.7767 19.924 92.385 19.8772 92.0873 19.7835C91.7897 19.6898 91.5547 19.5493 91.3823 19.3775C91.21 19.1901 91.1003 18.9715 91.0377 18.7061C90.975 18.4406 90.9437 18.1127 90.928 17.7692V12.7726H89.5023V11.3517V11.3829Z" fill="black"/>
<path d="M23.013 8.15072H14.412L11.7643 0L9.101 8.15072L0.5 8.1351L7.456 13.1785L4.79267 21.3293L11.7487 16.2858L18.7047 21.3293L16.057 13.1785L23.013 8.15072Z" fill="#00B67A"/>
<path d="M16.6524 15.021L16.0571 13.1785L11.7644 16.2857L16.6524 15.021Z" fill="#005128"/>
</svg>
