<svg width="74" height="14" viewBox="0 0 74 14" fill="none" xmlns="http://www.w3.org/2000/svg">
<path d="M0 0.00488281H13.875V13.9974H0V0.00488281ZM15.0312 0.00488281H28.9062V13.9974H15.0312V0.00488281ZM30.0625 0.00488281H43.9375V13.9974H30.0625V0.00488281ZM45.0938 0.00488281H58.9688V13.9974H45.0938V0.00488281ZM60.125 0.00488281H74V13.9974H60.125V0.00488281Z" fill="#00B67A"/>
<rect x="68" width="6" height="14" fill="#DCDCE6"/>
<path d="M6.93755 9.43414L9.0477 8.89484L9.92935 11.635L6.93755 9.43414ZM11.7938 5.89228H8.07935L6.93755 2.36499L5.79575 5.89228H2.0813L5.08755 8.07861L3.94575 11.6059L6.952 9.41956L8.802 8.07861L11.7938 5.89228ZM21.9688 9.43414L24.079 8.89484L24.9606 11.635L21.9688 9.43414ZM26.8251 5.89228H23.1106L21.9688 2.36499L20.827 5.89228H17.1125L20.1188 8.07861L18.977 11.6059L21.9833 9.41956L23.8333 8.07861L26.8251 5.89228ZM37 9.43414L39.1102 8.89484L39.9918 11.635L37 9.43414ZM41.8563 5.89228H38.1418L37 2.36499L35.8583 5.89228H32.1438L35.1501 8.07861L34.0083 11.6059L37.0145 9.41956L38.8645 8.07861L41.8563 5.89228ZM52.0313 9.43414L54.1415 8.89484L55.0231 11.635L52.0313 9.43414ZM56.8876 5.89228H53.1731L52.0313 2.36499L50.8895 5.89228H47.175L50.1813 8.07861L49.0395 11.6059L52.0458 9.41956L53.8958 8.07861L56.8876 5.89228ZM67.0626 9.43414L69.1727 8.89484L70.0544 11.635L67.0626 9.43414ZM71.9188 5.89228H68.2043L67.0626 2.36499L65.9208 5.89228H62.2063L65.2126 8.07861L64.0708 11.6059L67.077 9.41956L68.927 8.07861L71.9188 5.89228Z" fill="white"/>
</svg>
