<svg width="163" height="77" viewBox="0 0 163 77" fill="none" xmlns="http://www.w3.org/2000/svg">
<path d="M57.6797 13.4453V15H51.6406V13.4453H57.6797ZM52.1953 3.625V15H50.2344V3.625H52.1953ZM56.8906 8.375V9.90625H51.6406V8.375H56.8906ZM57.6406 3.625V5.1875H51.6406V3.625H57.6406ZM60.5312 6.54688L62.1406 9.35156L63.7812 6.54688H65.8516L63.2891 10.6953L65.9531 15H63.8828L62.1641 12.0781L60.4453 15H58.3672L61.0234 10.6953L58.4688 6.54688H60.5312ZM70.4375 13.6562C70.7448 13.6562 71.0208 13.5964 71.2656 13.4766C71.5156 13.3516 71.7161 13.1797 71.8672 12.9609C72.0234 12.7422 72.1094 12.4896 72.125 12.2031H73.8984C73.888 12.75 73.7266 13.2474 73.4141 13.6953C73.1016 14.1432 72.6875 14.5 72.1719 14.7656C71.6562 15.026 71.0859 15.1562 70.4609 15.1562C69.8151 15.1562 69.2526 15.0469 68.7734 14.8281C68.2943 14.6042 67.8958 14.2969 67.5781 13.9062C67.2604 13.5156 67.0208 13.0651 66.8594 12.5547C66.7031 12.0443 66.625 11.4974 66.625 10.9141V10.6406C66.625 10.0573 66.7031 9.51042 66.8594 9C67.0208 8.48438 67.2604 8.03125 67.5781 7.64062C67.8958 7.25 68.2943 6.94531 68.7734 6.72656C69.2526 6.5026 69.8125 6.39062 70.4531 6.39062C71.1302 6.39062 71.724 6.52604 72.2344 6.79688C72.7448 7.0625 73.1458 7.4349 73.4375 7.91406C73.7344 8.38802 73.888 8.9401 73.8984 9.57031H72.125C72.1094 9.25781 72.0312 8.97656 71.8906 8.72656C71.7552 8.47135 71.5625 8.26823 71.3125 8.11719C71.0677 7.96615 70.7734 7.89062 70.4297 7.89062C70.0495 7.89062 69.7344 7.96875 69.4844 8.125C69.2344 8.27604 69.0391 8.48438 68.8984 8.75C68.7578 9.01042 68.6562 9.30469 68.5938 9.63281C68.5365 9.95573 68.5078 10.2917 68.5078 10.6406V10.9141C68.5078 11.263 68.5365 11.6016 68.5938 11.9297C68.651 12.2578 68.75 12.5521 68.8906 12.8125C69.0365 13.0677 69.2344 13.2734 69.4844 13.4297C69.7344 13.5807 70.0521 13.6562 70.4375 13.6562ZM79.0703 15.1562C78.4453 15.1562 77.8802 15.0547 77.375 14.8516C76.875 14.6432 76.4479 14.3542 76.0938 13.9844C75.7448 13.6146 75.4766 13.1797 75.2891 12.6797C75.1016 12.1797 75.0078 11.6406 75.0078 11.0625V10.75C75.0078 10.0885 75.1042 9.48958 75.2969 8.95312C75.4896 8.41667 75.7578 7.95833 76.1016 7.57812C76.4453 7.19271 76.8516 6.89844 77.3203 6.69531C77.7891 6.49219 78.2969 6.39062 78.8438 6.39062C79.4479 6.39062 79.9766 6.49219 80.4297 6.69531C80.8828 6.89844 81.2578 7.1849 81.5547 7.55469C81.8568 7.91927 82.0807 8.35417 82.2266 8.85938C82.3776 9.36458 82.4531 9.92188 82.4531 10.5312V11.3359H75.9219V9.98438H80.5938V9.83594C80.5833 9.4974 80.5156 9.17969 80.3906 8.88281C80.2708 8.58594 80.0859 8.34635 79.8359 8.16406C79.5859 7.98177 79.2526 7.89062 78.8359 7.89062C78.5234 7.89062 78.2448 7.95833 78 8.09375C77.7604 8.22396 77.5599 8.41406 77.3984 8.66406C77.237 8.91406 77.112 9.21615 77.0234 9.57031C76.9401 9.91927 76.8984 10.3125 76.8984 10.75V11.0625C76.8984 11.4323 76.9479 11.776 77.0469 12.0938C77.151 12.4062 77.3021 12.6797 77.5 12.9141C77.6979 13.1484 77.9375 13.3333 78.2188 13.4688C78.5 13.599 78.8203 13.6641 79.1797 13.6641C79.6328 13.6641 80.0365 13.5729 80.3906 13.3906C80.7448 13.2083 81.0521 12.9505 81.3125 12.6172L82.3047 13.5781C82.1224 13.8438 81.8854 14.099 81.5938 14.3438C81.3021 14.5833 80.9453 14.7786 80.5234 14.9297C80.1068 15.0807 79.6224 15.1562 79.0703 15.1562ZM85.9375 3V15H84.0469V3H85.9375ZM90.0156 3V15H88.125V3H90.0156ZM95.8047 15.1562C95.1797 15.1562 94.6146 15.0547 94.1094 14.8516C93.6094 14.6432 93.1823 14.3542 92.8281 13.9844C92.4792 13.6146 92.2109 13.1797 92.0234 12.6797C91.8359 12.1797 91.7422 11.6406 91.7422 11.0625V10.75C91.7422 10.0885 91.8385 9.48958 92.0312 8.95312C92.224 8.41667 92.4922 7.95833 92.8359 7.57812C93.1797 7.19271 93.5859 6.89844 94.0547 6.69531C94.5234 6.49219 95.0312 6.39062 95.5781 6.39062C96.1823 6.39062 96.7109 6.49219 97.1641 6.69531C97.6172 6.89844 97.9922 7.1849 98.2891 7.55469C98.5911 7.91927 98.8151 8.35417 98.9609 8.85938C99.112 9.36458 99.1875 9.92188 99.1875 10.5312V11.3359H92.6562V9.98438H97.3281V9.83594C97.3177 9.4974 97.25 9.17969 97.125 8.88281C97.0052 8.58594 96.8203 8.34635 96.5703 8.16406C96.3203 7.98177 95.987 7.89062 95.5703 7.89062C95.2578 7.89062 94.9792 7.95833 94.7344 8.09375C94.4948 8.22396 94.2943 8.41406 94.1328 8.66406C93.9714 8.91406 93.8464 9.21615 93.7578 9.57031C93.6745 9.91927 93.6328 10.3125 93.6328 10.75V11.0625C93.6328 11.4323 93.6823 11.776 93.7812 12.0938C93.8854 12.4062 94.0365 12.6797 94.2344 12.9141C94.4323 13.1484 94.6719 13.3333 94.9531 13.4688C95.2344 13.599 95.5547 13.6641 95.9141 13.6641C96.3672 13.6641 96.7708 13.5729 97.125 13.3906C97.4792 13.2083 97.7865 12.9505 98.0469 12.6172L99.0391 13.5781C98.8568 13.8438 98.6198 14.099 98.3281 14.3438C98.0365 14.5833 97.6797 14.7786 97.2578 14.9297C96.8411 15.0807 96.3568 15.1562 95.8047 15.1562ZM102.523 8.35156V15H100.641V6.54688H102.414L102.523 8.35156ZM102.188 10.4609L101.578 10.4531C101.583 9.85417 101.667 9.30469 101.828 8.80469C101.995 8.30469 102.224 7.875 102.516 7.51562C102.812 7.15625 103.167 6.88021 103.578 6.6875C103.99 6.48958 104.448 6.39062 104.953 6.39062C105.359 6.39062 105.727 6.44792 106.055 6.5625C106.388 6.67188 106.672 6.85156 106.906 7.10156C107.146 7.35156 107.328 7.67708 107.453 8.07812C107.578 8.47396 107.641 8.96094 107.641 9.53906V15H105.75V9.53125C105.75 9.125 105.69 8.80469 105.57 8.57031C105.456 8.33073 105.286 8.16146 105.062 8.0625C104.844 7.95833 104.57 7.90625 104.242 7.90625C103.919 7.90625 103.63 7.97396 103.375 8.10938C103.12 8.24479 102.904 8.42969 102.727 8.66406C102.555 8.89844 102.422 9.16927 102.328 9.47656C102.234 9.78385 102.188 10.112 102.188 10.4609ZM113.438 6.54688V7.92188H108.672V6.54688H113.438ZM110.047 4.47656H111.93V12.6641C111.93 12.9245 111.966 13.125 112.039 13.2656C112.117 13.401 112.224 13.4922 112.359 13.5391C112.495 13.5859 112.654 13.6094 112.836 13.6094C112.966 13.6094 113.091 13.6016 113.211 13.5859C113.331 13.5703 113.427 13.5547 113.5 13.5391L113.508 14.9766C113.352 15.0234 113.169 15.0651 112.961 15.1016C112.758 15.138 112.523 15.1562 112.258 15.1562C111.826 15.1562 111.443 15.0807 111.109 14.9297C110.776 14.7734 110.516 14.5208 110.328 14.1719C110.141 13.8229 110.047 13.3594 110.047 12.7812V4.47656Z" fill="black"/>
<rect x="6" y="24" width="27" height="27" fill="#00B67E"/>
<path d="M19.5 27L22.2156 33.7623L29.4861 34.2553L23.8939 38.9277L25.6717 45.9947L19.5 42.12L13.3283 45.9947L15.1061 38.9277L9.51391 34.2553L16.7844 33.7623L19.5 27Z" fill="white"/>
<rect x="37" y="24" width="27" height="27" fill="#00B67E"/>
<path d="M50.5 27L53.2156 33.7623L60.4861 34.2553L54.8939 38.9277L56.6717 45.9947L50.5 42.12L44.3283 45.9947L46.1061 38.9277L40.5139 34.2553L47.7844 33.7623L50.5 27Z" fill="white"/>
<rect x="68" y="24" width="27" height="27" fill="#00B67E"/>
<path d="M81.5 27L84.2156 33.7623L91.4861 34.2553L85.8939 38.9277L87.6717 45.9947L81.5 42.12L75.3283 45.9947L77.1061 38.9277L71.5139 34.2553L78.7844 33.7623L81.5 27Z" fill="white"/>
<rect x="99" y="24" width="27" height="27" fill="#00B67E"/>
<path d="M112.5 27L115.216 33.7623L122.486 34.2553L116.894 38.9277L118.672 45.9947L112.5 42.12L106.328 45.9947L108.106 38.9277L102.514 34.2553L109.784 33.7623L112.5 27Z" fill="white"/>
<rect x="130" y="24" width="27" height="27" fill="#00B67E"/>
<path d="M143.5 27L146.216 33.7623L153.486 34.2553L147.894 38.9277L149.672 45.9947L143.5 42.12L137.328 45.9947L139.106 38.9277L133.514 34.2553L140.784 33.7623L143.5 27Z" fill="white"/>
<path d="M8.00684 70.2812V71.8262H0.835938L0.740234 70.6299L4.88965 64.0469H6.45508L4.75977 66.8838L2.69531 70.2812H8.00684ZM6.87891 64.0469V74H4.91016V64.0469H6.87891ZM9.25098 73.0498C9.25098 72.7581 9.35124 72.5143 9.55176 72.3184C9.75684 72.1224 10.028 72.0244 10.3652 72.0244C10.7025 72.0244 10.9714 72.1224 11.1719 72.3184C11.377 72.5143 11.4795 72.7581 11.4795 73.0498C11.4795 73.3415 11.377 73.5853 11.1719 73.7812C10.9714 73.9772 10.7025 74.0752 10.3652 74.0752C10.028 74.0752 9.75684 73.9772 9.55176 73.7812C9.35124 73.5853 9.25098 73.3415 9.25098 73.0498ZM19.8398 71.2725C19.8398 71.8968 19.694 72.4232 19.4023 72.8516C19.1107 73.2754 18.7096 73.5967 18.1992 73.8154C17.6934 74.0296 17.1191 74.1367 16.4766 74.1367C15.834 74.1367 15.2575 74.0296 14.7471 73.8154C14.2367 73.5967 13.8333 73.2754 13.5371 72.8516C13.2409 72.4232 13.0928 71.8968 13.0928 71.2725C13.0928 70.8532 13.1771 70.4749 13.3457 70.1377C13.5143 69.7959 13.749 69.5042 14.0498 69.2627C14.3551 69.0166 14.7129 68.8298 15.123 68.7021C15.5332 68.57 15.9798 68.5039 16.4629 68.5039C17.11 68.5039 17.6888 68.6178 18.1992 68.8457C18.7096 69.0736 19.1107 69.3949 19.4023 69.8096C19.694 70.2243 19.8398 70.7119 19.8398 71.2725ZM17.8574 71.1426C17.8574 70.8372 17.7982 70.5752 17.6797 70.3564C17.5658 70.1331 17.404 69.9622 17.1943 69.8438C16.9847 69.7253 16.7409 69.666 16.4629 69.666C16.1849 69.666 15.9411 69.7253 15.7314 69.8438C15.5218 69.9622 15.3577 70.1331 15.2393 70.3564C15.1253 70.5752 15.0684 70.8372 15.0684 71.1426C15.0684 71.4434 15.1253 71.7031 15.2393 71.9219C15.3577 72.1406 15.5218 72.3092 15.7314 72.4277C15.9456 72.5417 16.194 72.5986 16.4766 72.5986C16.7591 72.5986 17.0029 72.5417 17.208 72.4277C17.4176 72.3092 17.5771 72.1406 17.6865 71.9219C17.8005 71.7031 17.8574 71.4434 17.8574 71.1426ZM19.6279 66.6855C19.6279 67.1914 19.4935 67.6403 19.2246 68.0322C18.9557 68.4196 18.582 68.7227 18.1035 68.9414C17.6296 69.1602 17.0872 69.2695 16.4766 69.2695C15.8613 69.2695 15.3145 69.1602 14.8359 68.9414C14.3574 68.7227 13.9837 68.4196 13.7148 68.0322C13.446 67.6403 13.3115 67.1914 13.3115 66.6855C13.3115 66.084 13.446 65.5781 13.7148 65.168C13.9883 64.7533 14.362 64.4388 14.8359 64.2246C15.3145 64.0104 15.8568 63.9033 16.4629 63.9033C17.0781 63.9033 17.6227 64.0104 18.0967 64.2246C18.5752 64.4388 18.9489 64.7533 19.2178 65.168C19.4912 65.5781 19.6279 66.084 19.6279 66.6855ZM17.6592 66.7744C17.6592 66.5055 17.6113 66.2731 17.5156 66.0771C17.4199 65.8766 17.2832 65.7217 17.1055 65.6123C16.9323 65.5029 16.7181 65.4482 16.4629 65.4482C16.2168 65.4482 16.0049 65.5007 15.8271 65.6055C15.654 65.7103 15.5195 65.863 15.4238 66.0635C15.3327 66.2594 15.2871 66.4964 15.2871 66.7744C15.2871 67.0433 15.3327 67.2803 15.4238 67.4854C15.5195 67.6859 15.6562 67.8431 15.834 67.957C16.0117 68.071 16.2259 68.1279 16.4766 68.1279C16.7272 68.1279 16.9391 68.071 17.1123 67.957C17.29 67.8431 17.4245 67.6859 17.5156 67.4854C17.6113 67.2803 17.6592 67.0433 17.6592 66.7744ZM24.4268 70.377V70.2334C24.4268 69.6911 24.5042 69.1921 24.6592 68.7363C24.8141 68.276 25.0397 67.8773 25.3359 67.54C25.6322 67.2028 25.9967 66.9408 26.4297 66.7539C26.8626 66.5625 27.3594 66.4668 27.9199 66.4668C28.4805 66.4668 28.9795 66.5625 29.417 66.7539C29.8545 66.9408 30.2214 67.2028 30.5176 67.54C30.8184 67.8773 31.0462 68.276 31.2012 68.7363C31.3561 69.1921 31.4336 69.6911 31.4336 70.2334V70.377C31.4336 70.9147 31.3561 71.4137 31.2012 71.874C31.0462 72.3298 30.8184 72.7285 30.5176 73.0703C30.2214 73.4076 29.8568 73.6696 29.4238 73.8564C28.9909 74.0433 28.4941 74.1367 27.9336 74.1367C27.373 74.1367 26.874 74.0433 26.4365 73.8564C26.0036 73.6696 25.6367 73.4076 25.3359 73.0703C25.0397 72.7285 24.8141 72.3298 24.6592 71.874C24.5042 71.4137 24.4268 70.9147 24.4268 70.377ZM26.3955 70.2334V70.377C26.3955 70.6868 26.4229 70.9762 26.4775 71.2451C26.5322 71.514 26.6188 71.751 26.7373 71.9561C26.8604 72.1566 27.0199 72.3138 27.2158 72.4277C27.4118 72.5417 27.651 72.5986 27.9336 72.5986C28.207 72.5986 28.4417 72.5417 28.6377 72.4277C28.8337 72.3138 28.9909 72.1566 29.1094 71.9561C29.2279 71.751 29.3145 71.514 29.3691 71.2451C29.4284 70.9762 29.458 70.6868 29.458 70.377V70.2334C29.458 69.9326 29.4284 69.6501 29.3691 69.3857C29.3145 69.1169 29.2256 68.8799 29.1025 68.6748C28.984 68.4652 28.8268 68.3011 28.6309 68.1826C28.4349 68.0641 28.1979 68.0049 27.9199 68.0049C27.6419 68.0049 27.4049 68.0641 27.209 68.1826C27.0176 68.3011 26.8604 68.4652 26.7373 68.6748C26.6188 68.8799 26.5322 69.1169 26.4775 69.3857C26.4229 69.6501 26.3955 69.9326 26.3955 70.2334ZM37.0186 72.2295V66.6035H38.9873V74H37.1348L37.0186 72.2295ZM37.2373 70.7119L37.8184 70.6982C37.8184 71.1904 37.7614 71.6484 37.6475 72.0723C37.5335 72.4915 37.3626 72.8561 37.1348 73.166C36.9069 73.4714 36.6198 73.7106 36.2734 73.8838C35.9271 74.0524 35.5192 74.1367 35.0498 74.1367C34.6898 74.1367 34.3571 74.0866 34.0518 73.9863C33.751 73.8815 33.4912 73.7197 33.2725 73.501C33.0583 73.2777 32.8896 72.9928 32.7666 72.6465C32.6481 72.2956 32.5889 71.874 32.5889 71.3818V66.6035H34.5576V71.3955C34.5576 71.6143 34.5827 71.7988 34.6328 71.9492C34.6875 72.0996 34.7627 72.2227 34.8584 72.3184C34.9541 72.4141 35.0658 72.4824 35.1934 72.5234C35.3255 72.5645 35.4714 72.585 35.6309 72.585C36.0365 72.585 36.3555 72.5029 36.5879 72.3389C36.8249 72.1748 36.9912 71.9515 37.0869 71.6689C37.1872 71.3818 37.2373 71.0628 37.2373 70.7119ZM44.1143 66.6035V67.998H39.8076V66.6035H44.1143ZM40.874 64.7783H42.8428V71.7715C42.8428 71.9857 42.8701 72.1497 42.9248 72.2637C42.984 72.3776 43.0706 72.4574 43.1846 72.5029C43.2985 72.5439 43.4421 72.5645 43.6152 72.5645C43.7383 72.5645 43.8477 72.5599 43.9434 72.5508C44.0436 72.5371 44.1279 72.5234 44.1963 72.5098L44.2031 73.959C44.0345 74.0137 43.8522 74.057 43.6562 74.0889C43.4603 74.1208 43.2438 74.1367 43.0068 74.1367C42.5739 74.1367 42.1956 74.0661 41.8721 73.9248C41.5531 73.779 41.307 73.5465 41.1338 73.2275C40.9606 72.9085 40.874 72.4893 40.874 71.9697V64.7783ZM48.4072 70.377V70.2334C48.4072 69.6911 48.4847 69.1921 48.6396 68.7363C48.7946 68.276 49.0202 67.8773 49.3164 67.54C49.6126 67.2028 49.9772 66.9408 50.4102 66.7539C50.8431 66.5625 51.3398 66.4668 51.9004 66.4668C52.4609 66.4668 52.96 66.5625 53.3975 66.7539C53.835 66.9408 54.2018 67.2028 54.498 67.54C54.7988 67.8773 55.0267 68.276 55.1816 68.7363C55.3366 69.1921 55.4141 69.6911 55.4141 70.2334V70.377C55.4141 70.9147 55.3366 71.4137 55.1816 71.874C55.0267 72.3298 54.7988 72.7285 54.498 73.0703C54.2018 73.4076 53.8372 73.6696 53.4043 73.8564C52.9714 74.0433 52.4746 74.1367 51.9141 74.1367C51.3535 74.1367 50.8545 74.0433 50.417 73.8564C49.984 73.6696 49.6172 73.4076 49.3164 73.0703C49.0202 72.7285 48.7946 72.3298 48.6396 71.874C48.4847 71.4137 48.4072 70.9147 48.4072 70.377ZM50.376 70.2334V70.377C50.376 70.6868 50.4033 70.9762 50.458 71.2451C50.5127 71.514 50.5993 71.751 50.7178 71.9561C50.8408 72.1566 51.0003 72.3138 51.1963 72.4277C51.3923 72.5417 51.6315 72.5986 51.9141 72.5986C52.1875 72.5986 52.4222 72.5417 52.6182 72.4277C52.8141 72.3138 52.9714 72.1566 53.0898 71.9561C53.2083 71.751 53.2949 71.514 53.3496 71.2451C53.4089 70.9762 53.4385 70.6868 53.4385 70.377V70.2334C53.4385 69.9326 53.4089 69.6501 53.3496 69.3857C53.2949 69.1169 53.2061 68.8799 53.083 68.6748C52.9645 68.4652 52.8073 68.3011 52.6113 68.1826C52.4154 68.0641 52.1784 68.0049 51.9004 68.0049C51.6224 68.0049 51.3854 68.0641 51.1895 68.1826C50.998 68.3011 50.8408 68.4652 50.7178 68.6748C50.5993 68.8799 50.5127 69.1169 50.458 69.3857C50.4033 69.6501 50.376 69.9326 50.376 70.2334ZM59.1328 74H57.1504V65.9473C57.1504 65.3867 57.2598 64.915 57.4785 64.5322C57.7018 64.1449 58.014 63.8532 58.415 63.6572C58.8206 63.4567 59.3014 63.3564 59.8574 63.3564C60.0397 63.3564 60.2152 63.3701 60.3838 63.3975C60.5524 63.4202 60.7165 63.4499 60.876 63.4863L60.8555 64.9697C60.7689 64.9469 60.6777 64.931 60.582 64.9219C60.4863 64.9128 60.3747 64.9082 60.2471 64.9082C60.0101 64.9082 59.8073 64.9492 59.6387 65.0312C59.4746 65.1087 59.3493 65.2249 59.2627 65.3799C59.1761 65.5348 59.1328 65.724 59.1328 65.9473V74ZM60.6094 66.6035V67.998H56.0498V66.6035H60.6094ZM66.8984 69.4678L65.3262 69.0918L65.8936 64.0469H71.4854V65.6396H67.5137L67.2676 67.8477C67.3997 67.7702 67.6003 67.6882 67.8691 67.6016C68.138 67.5104 68.4388 67.4648 68.7715 67.4648C69.2546 67.4648 69.6829 67.54 70.0566 67.6904C70.4303 67.8408 70.7471 68.0596 71.0068 68.3467C71.2712 68.6338 71.4717 68.9847 71.6084 69.3994C71.7451 69.8141 71.8135 70.2835 71.8135 70.8076C71.8135 71.2497 71.7451 71.6712 71.6084 72.0723C71.4717 72.4688 71.2643 72.8242 70.9863 73.1387C70.7083 73.4486 70.3597 73.6924 69.9404 73.8701C69.5212 74.0479 69.0244 74.1367 68.4502 74.1367C68.0218 74.1367 67.6071 74.0729 67.2061 73.9453C66.8096 73.8177 66.4518 73.6286 66.1328 73.3779C65.8184 73.1273 65.5654 72.8242 65.374 72.4688C65.1872 72.1087 65.0892 71.6986 65.0801 71.2383H67.0352C67.0625 71.5208 67.1354 71.7646 67.2539 71.9697C67.377 72.1702 67.5387 72.3252 67.7393 72.4346C67.9398 72.5439 68.1745 72.5986 68.4434 72.5986C68.694 72.5986 68.9082 72.5508 69.0859 72.4551C69.2637 72.3594 69.4072 72.2272 69.5166 72.0586C69.626 71.8854 69.7057 71.6849 69.7559 71.457C69.8105 71.2246 69.8379 70.974 69.8379 70.7051C69.8379 70.4362 69.806 70.1924 69.7422 69.9736C69.6784 69.7549 69.5804 69.5658 69.4482 69.4062C69.3161 69.2467 69.1475 69.1237 68.9424 69.0371C68.7419 68.9505 68.5072 68.9072 68.2383 68.9072C67.8737 68.9072 67.5911 68.9642 67.3906 69.0781C67.1947 69.1921 67.0306 69.3219 66.8984 69.4678ZM78.1094 64.0469V75.8457H77.0908V64.0469H78.1094ZM88.541 63.9443H88.8281V65.5166H88.7119C88.1924 65.5166 87.7298 65.5941 87.3242 65.749C86.9186 65.904 86.5745 66.125 86.292 66.4121C86.014 66.6947 85.7998 67.0365 85.6494 67.4375C85.5036 67.8385 85.4307 68.2874 85.4307 68.7842V70.4385C85.4307 70.7939 85.4648 71.1084 85.5332 71.3818C85.6061 71.6507 85.7087 71.8763 85.8408 72.0586C85.9775 72.2363 86.137 72.3708 86.3193 72.4619C86.5016 72.5485 86.7067 72.5918 86.9346 72.5918C87.1488 72.5918 87.3424 72.5462 87.5156 72.4551C87.6934 72.3639 87.8438 72.2363 87.9668 72.0723C88.0944 71.9036 88.1901 71.7077 88.2539 71.4844C88.3223 71.2565 88.3564 71.0081 88.3564 70.7393C88.3564 70.4704 88.3223 70.222 88.2539 69.9941C88.1901 69.7663 88.0944 69.5703 87.9668 69.4062C87.8392 69.2376 87.6842 69.1077 87.502 69.0166C87.3197 68.9255 87.1146 68.8799 86.8867 68.8799C86.5768 68.8799 86.3034 68.9528 86.0664 69.0986C85.834 69.2399 85.6517 69.4222 85.5195 69.6455C85.3874 69.8688 85.3167 70.1035 85.3076 70.3496L84.7129 69.9668C84.7266 69.6159 84.7995 69.2832 84.9316 68.9688C85.0684 68.6543 85.2552 68.3763 85.4922 68.1348C85.7337 67.8887 86.0231 67.6973 86.3604 67.5605C86.6976 67.4193 87.0781 67.3486 87.502 67.3486C87.9668 67.3486 88.3747 67.4375 88.7256 67.6152C89.0811 67.793 89.3773 68.0368 89.6143 68.3467C89.8512 68.6566 90.029 69.0143 90.1475 69.4199C90.266 69.8255 90.3252 70.2585 90.3252 70.7188C90.3252 71.2018 90.2454 71.6507 90.0859 72.0654C89.931 72.4801 89.7054 72.8424 89.4092 73.1523C89.1175 73.4622 88.7666 73.7038 88.3564 73.877C87.9463 74.0501 87.486 74.1367 86.9756 74.1367C86.4469 74.1367 85.9661 74.041 85.5332 73.8496C85.1048 73.6536 84.7357 73.3802 84.4258 73.0293C84.1159 72.6784 83.8766 72.2614 83.708 71.7783C83.5439 71.2952 83.4619 70.7666 83.4619 70.1924V69.4268C83.4619 68.6247 83.5781 67.891 83.8105 67.2256C84.0475 66.5557 84.387 65.9769 84.8291 65.4893C85.2712 64.9971 85.8044 64.6165 86.4287 64.3477C87.0531 64.0788 87.7572 63.9443 88.541 63.9443ZM96.2998 64.0264V74H94.3311V66.2959L91.9658 67.0479V65.4961L96.0879 64.0264H96.2998ZM104.619 63.9443H104.906V65.5166H104.79C104.271 65.5166 103.808 65.5941 103.402 65.749C102.997 65.904 102.653 66.125 102.37 66.4121C102.092 66.6947 101.878 67.0365 101.728 67.4375C101.582 67.8385 101.509 68.2874 101.509 68.7842V70.4385C101.509 70.7939 101.543 71.1084 101.611 71.3818C101.684 71.6507 101.787 71.8763 101.919 72.0586C102.056 72.2363 102.215 72.3708 102.397 72.4619C102.58 72.5485 102.785 72.5918 103.013 72.5918C103.227 72.5918 103.421 72.5462 103.594 72.4551C103.771 72.3639 103.922 72.2363 104.045 72.0723C104.173 71.9036 104.268 71.7077 104.332 71.4844C104.4 71.2565 104.435 71.0081 104.435 70.7393C104.435 70.4704 104.4 70.222 104.332 69.9941C104.268 69.7663 104.173 69.5703 104.045 69.4062C103.917 69.2376 103.762 69.1077 103.58 69.0166C103.398 68.9255 103.193 68.8799 102.965 68.8799C102.655 68.8799 102.382 68.9528 102.145 69.0986C101.912 69.2399 101.73 69.4222 101.598 69.6455C101.465 69.8688 101.395 70.1035 101.386 70.3496L100.791 69.9668C100.805 69.6159 100.878 69.2832 101.01 68.9688C101.146 68.6543 101.333 68.3763 101.57 68.1348C101.812 67.8887 102.101 67.6973 102.438 67.5605C102.776 67.4193 103.156 67.3486 103.58 67.3486C104.045 67.3486 104.453 67.4375 104.804 67.6152C105.159 67.793 105.455 68.0368 105.692 68.3467C105.929 68.6566 106.107 69.0143 106.226 69.4199C106.344 69.8255 106.403 70.2585 106.403 70.7188C106.403 71.2018 106.324 71.6507 106.164 72.0654C106.009 72.4801 105.784 72.8424 105.487 73.1523C105.196 73.4622 104.845 73.7038 104.435 73.877C104.024 74.0501 103.564 74.1367 103.054 74.1367C102.525 74.1367 102.044 74.041 101.611 73.8496C101.183 73.6536 100.814 73.3802 100.504 73.0293C100.194 72.6784 99.9548 72.2614 99.7861 71.7783C99.6221 71.2952 99.54 70.7666 99.54 70.1924V69.4268C99.54 68.6247 99.6562 67.891 99.8887 67.2256C100.126 66.5557 100.465 65.9769 100.907 65.4893C101.349 64.9971 101.882 64.6165 102.507 64.3477C103.131 64.0788 103.835 63.9443 104.619 63.9443ZM111.271 64.0469H114.982C115.743 64.0469 116.397 64.1608 116.944 64.3887C117.496 64.6165 117.92 64.9538 118.216 65.4004C118.512 65.847 118.66 66.3962 118.66 67.0479C118.66 67.5811 118.569 68.0391 118.387 68.4219C118.209 68.8001 117.956 69.1169 117.628 69.3721C117.304 69.6227 116.924 69.8232 116.486 69.9736L115.837 70.3154H112.61L112.597 68.7158H114.996C115.356 68.7158 115.655 68.652 115.892 68.5244C116.129 68.3968 116.306 68.2191 116.425 67.9912C116.548 67.7633 116.609 67.499 116.609 67.1982C116.609 66.8792 116.55 66.6035 116.432 66.3711C116.313 66.1387 116.133 65.9609 115.892 65.8379C115.65 65.7148 115.347 65.6533 114.982 65.6533H113.321V74H111.271V64.0469ZM116.835 74L114.565 69.5635L116.732 69.5498L119.029 73.9043V74H116.835ZM123.521 74.1367C122.946 74.1367 122.431 74.0456 121.976 73.8633C121.52 73.6764 121.132 73.4189 120.813 73.0908C120.499 72.7627 120.257 72.3822 120.089 71.9492C119.92 71.5117 119.836 71.0469 119.836 70.5547V70.2812C119.836 69.7207 119.916 69.208 120.075 68.7432C120.235 68.2783 120.463 67.875 120.759 67.5332C121.06 67.1914 121.424 66.9294 121.853 66.7471C122.281 66.5602 122.764 66.4668 123.302 66.4668C123.826 66.4668 124.291 66.5534 124.696 66.7266C125.102 66.8997 125.441 67.1458 125.715 67.4648C125.993 67.7839 126.202 68.1667 126.344 68.6133C126.485 69.0553 126.556 69.5475 126.556 70.0898V70.9102H120.677V69.5977H124.621V69.4473C124.621 69.1738 124.571 68.93 124.471 68.7158C124.375 68.4971 124.229 68.3239 124.033 68.1963C123.837 68.0687 123.587 68.0049 123.281 68.0049C123.021 68.0049 122.798 68.0618 122.611 68.1758C122.424 68.2897 122.272 68.4492 122.153 68.6543C122.039 68.8594 121.953 69.1009 121.894 69.3789C121.839 69.6523 121.812 69.9531 121.812 70.2812V70.5547C121.812 70.8509 121.853 71.1243 121.935 71.375C122.021 71.6257 122.142 71.8421 122.297 72.0244C122.456 72.2067 122.648 72.348 122.871 72.4482C123.099 72.5485 123.356 72.5986 123.644 72.5986C123.999 72.5986 124.329 72.5303 124.635 72.3936C124.945 72.2523 125.211 72.0404 125.435 71.7578L126.392 72.7969C126.237 73.0202 126.025 73.2344 125.756 73.4395C125.492 73.6445 125.173 73.8132 124.799 73.9453C124.425 74.0729 123.999 74.1367 123.521 74.1367ZM130.097 72.5645L131.737 66.6035H133.795L131.3 74H130.056L130.097 72.5645ZM128.969 66.6035L130.616 72.5713L130.65 74H129.399L126.904 66.6035H128.969ZM136.755 66.6035V74H134.779V66.6035H136.755ZM134.656 64.6758C134.656 64.3887 134.757 64.1517 134.957 63.9648C135.158 63.778 135.426 63.6846 135.764 63.6846C136.096 63.6846 136.363 63.778 136.563 63.9648C136.769 64.1517 136.871 64.3887 136.871 64.6758C136.871 64.9629 136.769 65.1999 136.563 65.3867C136.363 65.5736 136.096 65.667 135.764 65.667C135.426 65.667 135.158 65.5736 134.957 65.3867C134.757 65.1999 134.656 64.9629 134.656 64.6758ZM141.786 74.1367C141.212 74.1367 140.697 74.0456 140.241 73.8633C139.785 73.6764 139.398 73.4189 139.079 73.0908C138.765 72.7627 138.523 72.3822 138.354 71.9492C138.186 71.5117 138.102 71.0469 138.102 70.5547V70.2812C138.102 69.7207 138.181 69.208 138.341 68.7432C138.5 68.2783 138.728 67.875 139.024 67.5332C139.325 67.1914 139.69 66.9294 140.118 66.7471C140.547 66.5602 141.03 66.4668 141.567 66.4668C142.091 66.4668 142.556 66.5534 142.962 66.7266C143.368 66.8997 143.707 67.1458 143.98 67.4648C144.258 67.7839 144.468 68.1667 144.609 68.6133C144.751 69.0553 144.821 69.5475 144.821 70.0898V70.9102H138.942V69.5977H142.887V69.4473C142.887 69.1738 142.837 68.93 142.736 68.7158C142.641 68.4971 142.495 68.3239 142.299 68.1963C142.103 68.0687 141.852 68.0049 141.547 68.0049C141.287 68.0049 141.064 68.0618 140.877 68.1758C140.69 68.2897 140.537 68.4492 140.419 68.6543C140.305 68.8594 140.218 69.1009 140.159 69.3789C140.104 69.6523 140.077 69.9531 140.077 70.2812V70.5547C140.077 70.8509 140.118 71.1243 140.2 71.375C140.287 71.6257 140.408 71.8421 140.562 72.0244C140.722 72.2067 140.913 72.348 141.137 72.4482C141.365 72.5485 141.622 72.5986 141.909 72.5986C142.265 72.5986 142.595 72.5303 142.9 72.3936C143.21 72.2523 143.477 72.0404 143.7 71.7578L144.657 72.7969C144.502 73.0202 144.29 73.2344 144.021 73.4395C143.757 73.6445 143.438 73.8132 143.064 73.9453C142.691 74.0729 142.265 74.1367 141.786 74.1367ZM148.055 72.0859L149.593 66.6035H150.844L150.44 68.7568L148.902 74H147.856L148.055 72.0859ZM147.275 66.6035L148.376 72.0791L148.479 74H147.248L145.375 66.6035H147.275ZM152.252 71.9902L153.325 66.6035H155.232L153.359 74H152.136L152.252 71.9902ZM151.015 66.6035L152.546 72.0449L152.758 74H151.705L150.167 68.7637L149.777 66.6035H151.015ZM160.223 71.9561C160.223 71.8148 160.182 71.6872 160.1 71.5732C160.018 71.4593 159.865 71.3545 159.642 71.2588C159.423 71.1585 159.106 71.0674 158.691 70.9854C158.318 70.9033 157.969 70.8008 157.646 70.6777C157.326 70.5501 157.049 70.3975 156.812 70.2197C156.579 70.042 156.397 69.8324 156.265 69.5908C156.132 69.3447 156.066 69.0645 156.066 68.75C156.066 68.4401 156.132 68.1484 156.265 67.875C156.401 67.6016 156.595 67.36 156.846 67.1504C157.101 66.9362 157.411 66.7699 157.775 66.6514C158.145 66.5283 158.559 66.4668 159.02 66.4668C159.662 66.4668 160.214 66.5693 160.674 66.7744C161.139 66.9795 161.494 67.262 161.74 67.6221C161.991 67.9775 162.116 68.3831 162.116 68.8389H160.147C160.147 68.6475 160.106 68.4766 160.024 68.3262C159.947 68.1712 159.824 68.0505 159.655 67.9639C159.491 67.8727 159.277 67.8271 159.013 67.8271C158.794 67.8271 158.605 67.8659 158.445 67.9434C158.286 68.0163 158.163 68.1165 158.076 68.2441C157.994 68.3672 157.953 68.5039 157.953 68.6543C157.953 68.7682 157.976 68.8708 158.021 68.9619C158.072 69.0485 158.151 69.1283 158.261 69.2012C158.37 69.2741 158.511 69.3424 158.685 69.4062C158.862 69.4655 159.081 69.5202 159.341 69.5703C159.874 69.6797 160.35 69.8232 160.77 70.001C161.189 70.1742 161.521 70.4111 161.768 70.7119C162.014 71.0081 162.137 71.3978 162.137 71.8809C162.137 72.209 162.064 72.5098 161.918 72.7832C161.772 73.0566 161.562 73.2959 161.289 73.501C161.016 73.7015 160.688 73.8587 160.305 73.9727C159.926 74.082 159.5 74.1367 159.026 74.1367C158.338 74.1367 157.755 74.0137 157.276 73.7676C156.802 73.5215 156.442 73.2093 156.196 72.8311C155.955 72.4482 155.834 72.0563 155.834 71.6553H157.7C157.709 71.9242 157.778 72.1406 157.905 72.3047C158.037 72.4688 158.204 72.5872 158.404 72.6602C158.609 72.7331 158.83 72.7695 159.067 72.7695C159.323 72.7695 159.535 72.7354 159.703 72.667C159.872 72.5941 159.999 72.4984 160.086 72.3799C160.177 72.2568 160.223 72.1156 160.223 71.9561Z" fill="black"/>
<path d="M82.7783 75.3672H162.649V76.0508H82.7783V75.3672Z" fill="black"/>
</svg>
