<svg width="73" height="72" viewBox="0 0 73 72" fill="none" xmlns="http://www.w3.org/2000/svg">
<g clip-path="url(#clip0)">
<path d="M69.4295 28.814L59.7189 9.22357C59.5142 8.81051 59.2005 8.46098 58.8119 8.21283L47.1617 0.776212C45.7814 -0.104924 43.9985 -0.122932 42.6196 0.730269C38.9133 3.02315 34.9431 2.95395 30.4822 0.518139C29.1272 -0.221765 27.4686 -0.165897 26.1536 0.664049L24.1441 1.93215C24.1417 1.93357 24.1396 1.93513 24.1372 1.93655L14.1973 8.20943C13.8035 8.458 13.486 8.80994 13.2793 9.22711L3.57046 28.814C3.15698 29.6481 3.46638 30.6632 4.27449 31.125L14.8717 37.1805V70.2991C14.8717 71.237 15.6347 72 16.5725 72H56.4274C57.3652 72 58.1283 71.237 58.1283 70.2991V58.9456C58.1283 58.3583 57.6521 57.8821 57.0648 57.8821C56.4774 57.8821 56.0013 58.3583 56.0013 58.9456V69.873H16.9986V23.9281C16.9986 23.3407 16.5225 22.8646 15.9351 22.8646C15.3478 22.8646 14.8717 23.3407 14.8717 23.9281V34.7308L5.62937 29.4496L15.185 10.1716C15.2182 10.1046 15.2693 10.048 15.3325 10.0081L23.9724 4.55557C24.4595 6.31543 25.3168 7.96312 26.498 9.38635C26.7083 9.63989 27.0114 9.77063 27.3169 9.77063C27.5562 9.77063 27.797 9.69037 27.9955 9.52546C28.4476 9.15026 28.5098 8.47984 28.1348 8.02793C27.0068 6.66865 26.231 5.06632 25.8677 3.3595L27.2885 2.46276C27.3328 2.43483 27.378 2.40888 27.4236 2.38449C27.7026 4.37832 28.6243 6.21787 30.0844 7.64819C31.8081 9.33687 34.0866 10.2669 36.5 10.2669C38.8937 10.2669 41.1588 9.34991 42.878 7.68492C44.3649 6.24481 45.3049 4.37931 45.5816 2.35613C45.7325 2.41016 45.879 2.48063 46.0174 2.56897L47.1454 3.28902C46.1186 8.28146 41.6579 11.9684 36.5 11.9684C34.6124 11.9684 32.7495 11.4721 31.1127 10.5334C30.6031 10.2411 29.9532 10.4172 29.6611 10.9267C29.3688 11.4362 29.5451 12.0862 30.0544 12.3783C32.013 13.5015 34.2417 14.0952 36.5 14.0952C42.3942 14.0952 47.5268 10.0677 49.0418 4.49941L57.6674 10.0053C57.7298 10.0453 57.7803 10.1014 57.8132 10.1678L67.3705 29.4493L58.1283 34.7306V23.9278C58.1283 23.3405 57.6521 22.8643 57.0648 22.8643C56.4774 22.8643 56.0013 23.3405 56.0013 23.9278V54.6917C56.0013 55.279 56.4774 55.7552 57.0648 55.7552C57.6521 55.7552 58.1283 55.279 58.1283 54.6917V37.1805L68.7254 31.125C69.5335 30.6632 69.8429 29.6481 69.4295 28.814ZM36.4999 8.13995C34.6464 8.13995 32.8965 7.42571 31.5727 6.12882C30.5412 5.11822 29.8597 3.84204 29.5902 2.45241C34.5072 5.0961 39.1307 5.20514 43.3418 2.77571C42.5945 5.87656 39.8226 8.13995 36.4999 8.13995Z" fill="#FF3C7F"/>
<g clip-path="url(#clip1)">
<path fill-rule="evenodd" clip-rule="evenodd" d="M46.0294 36C48.1307 36 50.0121 34.5987 51.2745 33.068C52.2956 31.8297 52.9118 30.6554 52.9118 28.9026C52.9118 26.6465 51.891 24.8513 50.2998 23.5513C49.1264 22.5927 47.6427 22.2353 46.0294 22.2353C44.4893 22.2353 43.0673 22.6864 41.9206 23.4838C40.2372 24.6543 39.1471 26.1409 39.1471 28.4724C39.1471 30.4878 39.7531 32.6357 41.0612 34.0381C42.2973 35.3634 44.1827 36 46.0294 36Z" fill="#F9B649"/>
<path fill-rule="evenodd" clip-rule="evenodd" d="M49.4104 31.0134C48.3328 31.6415 47.2243 31.9773 46.0853 32.0214C44.8938 32.0674 43.8613 31.7707 42.9873 31.1324C44.0406 32.5966 45.0705 33.3379 46.083 33.3379C47.2258 33.3379 48.3329 32.5574 49.4104 31.0134Z" fill="#171616" stroke="#282424"/>
<path fill-rule="evenodd" clip-rule="evenodd" d="M43.6242 26.7657C43.1464 26.2042 42.8072 26.1802 42.6065 26.6939C42.4057 27.2076 42.8132 27.6692 43.8289 28.0788C44.7453 27.6333 45.0325 27.1143 44.6903 26.5217C44.3481 25.9292 43.9928 26.0105 43.6242 26.7657Z" fill="#171616"/>
<path fill-rule="evenodd" clip-rule="evenodd" d="M48.2336 26.7887C47.9533 26.0954 47.6309 25.9502 47.2665 26.353C46.902 26.7558 47.1467 27.3311 48.0007 28.0788C49.0394 27.9987 49.4897 27.6223 49.3517 26.9495C49.2136 26.2768 48.8409 26.2231 48.2336 26.7887Z" fill="#171616"/>
</g>
</g>
<defs>
<clipPath id="clip0">
<rect width="72" height="72" fill="white" transform="translate(0.5)"/>
</clipPath>
<clipPath id="clip1">
<rect width="13.7647" height="13.7647" fill="white" transform="translate(39.1471 22.2353)"/>
</clipPath>
</defs>
</svg>
