<svg width="72" height="61" viewBox="0 0 72 61" fill="none" xmlns="http://www.w3.org/2000/svg">
<path fill-rule="evenodd" clip-rule="evenodd" d="M11.5 53.9792V49.3125H9.16667C8.71411 49.3123 8.30248 49.0505 8.11055 48.6406C7.91862 48.2308 7.98103 47.7469 8.27067 47.3992L14.104 40.3992C14.3326 40.1451 14.6582 40 15 40C15.3418 40 15.6674 40.1451 15.896 40.3992L21.7293 47.3992C22.019 47.7469 22.0814 48.2308 21.8895 48.6406C21.6975 49.0505 21.2859 49.3123 20.8333 49.3125H18.5V53.9792H32.5V49.3125H30.1667C29.7141 49.3123 29.3025 49.0505 29.1105 48.6406C28.9186 48.2308 28.981 47.7469 29.2707 47.3992L35.104 40.3992C35.3326 40.1451 35.6582 40 36 40C36.3418 40 36.6674 40.1451 36.896 40.3992L42.7293 47.3992C43.019 47.7469 43.0814 48.2308 42.8895 48.6406C42.6975 49.0505 42.2859 49.3123 41.8333 49.3125H39.5V53.9792H53.5V49.3125H51.1667C50.7141 49.3123 50.3025 49.0505 50.1105 48.6406C49.9186 48.2308 49.981 47.7469 50.2707 47.3992L56.104 40.3992C56.3326 40.1451 56.6582 40 57 40C57.3418 40 57.6674 40.1451 57.896 40.3992L63.7293 47.3992C64.019 47.7469 64.0814 48.2308 63.8895 48.6406C63.6975 49.0505 63.2859 49.3123 62.8333 49.3125H60.5V53.9792H67.5C69.2969 53.9869 70.7959 55.3541 70.9687 57.1426C71.1325 58.8378 70 60.646 68.441 60.8462H3.54108C2 60.646 1 59.0797 1 57.4792C1 55.5462 2.567 53.9792 4.5 53.9792H11.5ZM13.8333 48.1458V53.9792H16.1667V48.1458C16.1667 47.5015 16.689 46.9792 17.3333 46.9792H18.3425L15 42.9682L11.6575 46.9792H12.6667C13.311 46.9792 13.8333 47.5015 13.8333 48.1458ZM58.1667 53.9792V48.1458C58.1667 47.5015 58.689 46.9792 59.3333 46.9792H60.3425L57 42.9682L53.6575 46.9792H54.6667C55.311 46.9792 55.8333 47.5015 55.8333 48.1458V53.9792H58.1667ZM37.1667 53.9792V48.1458C37.1667 47.5015 37.689 46.9792 38.3333 46.9792H39.3425L36 42.9682L32.6575 46.9792H33.6667C34.311 46.9792 34.8333 47.5015 34.8333 48.1458V53.9792H37.1667ZM3.33333 57.4792C3.33333 56.8348 3.85567 56.3125 4.5 56.3125H67.5C68.1443 56.3125 68.6667 56.8348 68.6667 57.4792C68.6667 58.1235 68.1443 58.6458 67.5 58.6458H4.5C3.85567 58.6458 3.33333 58.1235 3.33333 57.4792Z" fill="#0C0B0B"/>
<path fill-rule="evenodd" clip-rule="evenodd" d="M11.5253 53.9792V49.3125H9.19198C8.73943 49.3123 8.32779 49.0505 8.13587 48.6406C7.94394 48.2308 8.00635 47.7469 8.29598 47.3992L14.1293 40.3992C14.3579 40.1451 14.6836 40 15.0253 40C15.3671 40 15.6928 40.1451 15.9213 40.3992L21.7547 47.3992C22.0443 47.7469 22.1067 48.2308 21.9148 48.6406C21.7228 49.0505 21.3112 49.3123 20.8587 49.3125H18.5253V53.9792H32.5253V49.3125H30.192C29.7394 49.3123 29.3278 49.0505 29.1359 48.6406C28.9439 48.2308 29.0063 47.7469 29.296 47.3992L35.1293 40.3992C35.3579 40.1451 35.6836 40 36.0253 40C36.3671 40 36.6928 40.1451 36.9213 40.3992L42.7547 47.3992C43.0443 47.7469 43.1067 48.2308 42.9148 48.6406C42.7228 49.0505 42.3112 49.3123 41.8587 49.3125H39.5253V53.9792H53.5253V49.3125H51.192C50.7394 49.3123 50.3278 49.0505 50.1359 48.6406C49.9439 48.2308 50.0064 47.7469 50.296 47.3992L56.1293 40.3992C56.3579 40.1451 56.6836 40 57.0253 40C57.3671 40 57.6928 40.1451 57.9213 40.3992L63.7547 47.3992C64.0443 47.7469 64.1067 48.2308 63.9148 48.6406C63.7228 49.0505 63.3112 49.3123 62.8587 49.3125H60.5253V53.9792H67.5253C67.5301 53.9792 67.5348 53.9792 67.5395 53.9793H4.5C4.50843 53.9792 4.51687 53.9792 4.52532 53.9792H11.5253ZM13.8587 48.1458V53.9792H16.192V48.1458C16.192 47.5015 16.7143 46.9792 17.3587 46.9792H18.3678L15.0253 42.9682L11.6828 46.9792H12.692C13.3363 46.9792 13.8587 47.5015 13.8587 48.1458ZM58.192 53.9792V48.1458C58.192 47.5015 58.7143 46.9792 59.3587 46.9792H60.3678L57.0253 42.9682L53.6828 46.9792H54.692C55.3363 46.9792 55.8587 47.5015 55.8587 48.1458V53.9792H58.192ZM37.192 53.9792V48.1458C37.192 47.5015 37.7143 46.9792 38.3587 46.9792H39.3678L36.0253 42.9682L32.6828 46.9792H33.692C34.3363 46.9792 34.8587 47.5015 34.8587 48.1458V53.9792H37.192Z" fill="#FF3C7F"/>
<path d="M36.0013 35.9997C43.0855 35.9913 48.8263 30.2506 48.8346 23.1664C48.8346 12.272 37.2741 1.74169 36.7818 1.29953C36.3381 0.900158 35.6645 0.900158 35.2208 1.29953C34.7285 1.74169 23.168 12.272 23.168 23.1664C23.1763 30.2506 28.9171 35.9913 36.0013 35.9997ZM36.0013 3.78219C38.5575 6.31153 46.5013 14.8457 46.5013 23.1664C46.5013 28.9654 41.8003 33.6664 36.0013 33.6664C30.2023 33.6664 25.5013 28.9654 25.5013 23.1664C25.5013 14.8574 33.4475 6.31386 36.0013 3.78219Z" fill="#0C0B0B"/>
<path d="M10.3336 35.9996C15.5316 35.947 19.7064 31.6975 19.6669 26.4994C19.6669 18.5778 11.4723 10.9606 11.1223 10.6409C10.6761 10.2317 9.99108 10.2317 9.54495 10.6409C9.19495 10.9606 1.00028 18.5778 1.00028 26.4994C0.960778 31.6975 5.13566 35.947 10.3336 35.9996ZM10.3336 13.1423C12.3169 15.1898 17.3336 20.9274 17.3336 26.4994C17.3751 30.4097 14.2437 33.6157 10.3336 33.6663C6.42349 33.6157 3.29211 30.4097 3.33361 26.4994C3.33361 20.9391 8.35028 15.1921 10.3336 13.1423Z" fill="#0C0B0B"/>
<path d="M61.6656 35.9996C66.8636 35.947 71.0385 31.6975 70.999 26.4994C70.999 18.5778 62.8043 10.9606 62.4543 10.6409C62.0082 10.2317 61.3231 10.2317 60.877 10.6409C60.527 10.9606 52.3323 18.5743 52.3323 26.4994C52.2928 31.6975 56.4677 35.947 61.6656 35.9996ZM61.6656 13.1423C63.649 15.1898 68.6656 20.9274 68.6656 26.4994C68.6656 30.3654 65.5316 33.4994 61.6656 33.4994C57.7996 33.4994 54.6656 30.3654 54.6656 26.4994C54.6656 20.9391 59.6823 15.1921 61.6656 13.1423Z" fill="#0C0B0B"/>
</svg>
