<svg width="55" height="55" viewBox="0 0 55 55" fill="none" xmlns="http://www.w3.org/2000/svg">
<circle cx="27.5" cy="27.5" r="27.5" fill="#C4C4C4"/>
<path d="M13.8018 24.8182L15.304 27.6786L16.8434 24.8182H19.1712L16.8008 28.9091L19.2351 33H16.918L15.304 30.1715L13.7166 33H11.3729L13.8018 28.9091L11.4581 24.8182H13.8018ZM23.9692 33V31.3381L27.8524 27.7425C28.1826 27.4229 28.4596 27.1353 28.6833 26.8796C28.9106 26.6239 29.0828 26.3736 29.2 26.1286C29.3172 25.88 29.3758 25.6119 29.3758 25.3242C29.3758 25.0046 29.303 24.7294 29.1574 24.4986C29.0118 24.2642 28.8129 24.0849 28.5608 23.9606C28.3087 23.8327 28.0228 23.7688 27.7032 23.7688C27.3694 23.7688 27.0782 23.8363 26.8296 23.9712C26.5811 24.1062 26.3893 24.2997 26.2544 24.5518C26.1194 24.804 26.0519 25.104 26.0519 25.4521H23.8627C23.8627 24.7383 24.0242 24.1186 24.3474 23.593C24.6705 23.0675 25.1233 22.6609 25.7057 22.3732C26.2881 22.0856 26.9593 21.9418 27.7192 21.9418C28.5004 21.9418 29.1805 22.0803 29.7593 22.3572C30.3417 22.6307 30.7945 23.0107 31.1176 23.4972C31.4408 23.9837 31.6024 24.5412 31.6024 25.1697C31.6024 25.5817 31.5207 25.9883 31.3573 26.3896C31.1975 26.7908 30.9117 27.2365 30.4997 27.7266C30.0878 28.2131 29.5072 28.7972 28.7579 29.479L27.1652 31.0398V31.1143H31.7462V33H23.9692ZM33.0179 31.0824V29.266L37.5723 22.0909H39.1383V24.6051H38.2115L35.3404 29.1488V29.234H41.8123V31.0824H33.0179ZM38.2541 33V30.5284L38.2967 29.7241V22.0909H40.4593V33H38.2541Z" fill="black"/>
</svg>
