<svg width="71" height="75" viewBox="0 0 71 75" fill="none" xmlns="http://www.w3.org/2000/svg">
<rect y="2.48276" width="71" height="72" rx="35.5" fill="white"/>
<path d="M35.598 70.7586C34.8672 70.7586 34.2759 70.1567 34.2759 69.4128V68.0368H36.9201C52.3459 67.3298 64.6835 54.335 64.6835 38.4607C64.6835 32.0235 62.6547 26.0597 59.2138 21.1968C58.9221 20.7846 58.9652 20.2192 59.3283 19.8683L59.8133 19.3997C60.2428 18.9846 60.9392 19.0355 61.2861 19.5218C65.0851 24.8461 67.3276 31.392 67.3276 38.4609C67.3276 56.2695 53.0948 70.7586 35.598 70.7586Z" fill="url(#paint0_linear)"/>
<path d="M35.402 6.20689C36.1328 6.20689 36.7241 6.8084 36.7241 7.55175V8.92675H35.402H34.0799C18.6541 9.63329 6.31652 22.6193 6.31652 38.4827C6.31652 54.3461 18.6541 67.3321 34.0799 68.0386H36.7241V69.4138C36.7241 70.1571 36.1328 70.7586 35.402 70.7586C17.9053 70.7586 3.67242 56.2794 3.67242 38.4828C3.67242 20.6862 17.9053 6.20689 35.402 6.20689Z" fill="#FF3C81"/>
<path d="M35.402 6.20689C36.1328 6.20689 36.7241 6.8084 36.7241 7.55175V8.92675H35.427L30.1228 12.8934C29.5636 13.3115 29.4447 14.1099 29.857 14.6769C30.2693 15.2439 31.0566 15.3646 31.6157 14.9464L39.1736 9.29439C39.7788 8.84181 39.852 7.91699 39.3237 7.37324L32.6705 0.516328C32.1898 0.0208923 31.3803 0.0140827 30.8918 0.501673C30.4037 0.988824 30.398 1.81002 30.8774 2.30537L34.6713 6.21532C34.9142 6.20971 35.1578 6.20689 35.402 6.20689Z" fill="#FF3C81"/>
<path d="M34.3592 24.7114H33.0152V25.6954H31.9352V23.5595H35.5832V24.7835L33.5072 32.1035H32.2112L34.3592 24.7114Z" fill="#0C0B0B"/>
<path d="M36.6401 30.9514L38.8481 26.7875C38.9601 26.5795 39.0241 26.3995 39.0401 26.2474C39.0561 26.0875 39.0641 25.8914 39.0641 25.6595C39.0641 25.5554 39.0601 25.4475 39.0521 25.3355C39.0441 25.2154 39.0201 25.1114 38.9801 25.0234C38.9481 24.9355 38.8921 24.8635 38.8121 24.8074C38.7321 24.7434 38.6161 24.7114 38.4641 24.7114C38.2801 24.7114 38.1321 24.7634 38.0201 24.8674C37.9161 24.9714 37.8641 25.1235 37.8641 25.3235V26.0194H36.6401V25.3474C36.6401 25.0914 36.6881 24.8514 36.7841 24.6274C36.8801 24.4035 37.0081 24.2074 37.1681 24.0394C37.3361 23.8714 37.5321 23.7394 37.7561 23.6434C37.9801 23.5394 38.2201 23.4874 38.4761 23.4874C38.7961 23.4874 39.0681 23.5474 39.2921 23.6675C39.5241 23.7795 39.7121 23.9355 39.8561 24.1354C40.0081 24.3354 40.1161 24.5634 40.1801 24.8194C40.2521 25.0754 40.2881 25.3474 40.2881 25.6354C40.2881 25.8435 40.2841 26.0194 40.2761 26.1634C40.2681 26.2994 40.2521 26.4315 40.2281 26.5595C40.2041 26.6875 40.1641 26.8155 40.1081 26.9435C40.0521 27.0715 39.9761 27.2274 39.8801 27.4114L38.0801 30.8795H40.2881V32.1035H36.6401V30.9514Z" fill="#0C0B0B"/>
<path d="M23.5518 37.5595H24.7758V41.2194H26.2878V37.5595H27.5118V46.1035H26.2878V42.2994H24.7758V46.1035H23.5518V37.5595Z" fill="#0C0B0B"/>
<path d="M30.0532 44.0875C30.0532 44.3834 30.1332 44.6035 30.2932 44.7474C30.4612 44.8834 30.6572 44.9515 30.8812 44.9515C31.1052 44.9515 31.2972 44.8834 31.4572 44.7474C31.6252 44.6035 31.7092 44.3834 31.7092 44.0875V39.5755C31.7092 39.2795 31.6252 39.0634 31.4572 38.9275C31.2972 38.7835 31.1052 38.7115 30.8812 38.7115C30.6572 38.7115 30.4612 38.7835 30.2932 38.9275C30.1332 39.0634 30.0532 39.2795 30.0532 39.5755V44.0875ZM28.8292 39.5755C28.8292 39.2315 28.8892 38.9275 29.0092 38.6635C29.1292 38.3995 29.2852 38.1834 29.4772 38.0154C29.6772 37.8394 29.8972 37.7074 30.1372 37.6194C30.3852 37.5314 30.6332 37.4874 30.8812 37.4874C31.1292 37.4874 31.3732 37.5314 31.6132 37.6194C31.8612 37.7074 32.0812 37.8394 32.2732 38.0154C32.4732 38.1834 32.6332 38.3995 32.7532 38.6635C32.8732 38.9275 32.9332 39.2315 32.9332 39.5755V44.0875C32.9332 44.4394 32.8732 44.7474 32.7532 45.0114C32.6332 45.2675 32.4732 45.4834 32.2732 45.6595C32.0812 45.8274 31.8612 45.9555 31.6132 46.0435C31.3732 46.1315 31.1292 46.1755 30.8812 46.1755C30.6332 46.1755 30.3852 46.1315 30.1372 46.0435C29.8972 45.9555 29.6772 45.8274 29.4772 45.6595C29.2852 45.4834 29.1292 45.2675 29.0092 45.0114C28.8892 44.7474 28.8292 44.4394 28.8292 44.0875V39.5755Z" fill="#0C0B0B"/>
<path d="M38.2106 44.1835C38.2106 44.4635 38.1586 44.7235 38.0546 44.9635C37.9506 45.2035 37.8066 45.4155 37.6226 45.5995C37.4466 45.7755 37.2386 45.9155 36.9986 46.0195C36.7586 46.1235 36.5026 46.1755 36.2306 46.1755C35.9586 46.1755 35.7026 46.1235 35.4626 46.0195C35.2226 45.9155 35.0106 45.7755 34.8266 45.5995C34.6506 45.4155 34.5106 45.2035 34.4066 44.9635C34.3026 44.7235 34.2506 44.4635 34.2506 44.1835V37.5595H35.4746V44.0634C35.4746 44.3675 35.5466 44.5915 35.6906 44.7355C35.8346 44.8795 36.0146 44.9515 36.2306 44.9515C36.4466 44.9515 36.6266 44.8795 36.7706 44.7355C36.9146 44.5915 36.9866 44.3675 36.9866 44.0634V37.5595H38.2106V44.1835Z" fill="#0C0B0B"/>
<path d="M40.8239 41.3755H41.5199C41.7359 41.3755 41.9079 41.3475 42.0359 41.2915C42.1639 41.2275 42.2599 41.1395 42.3239 41.0275C42.3959 40.9155 42.4439 40.7794 42.4679 40.6194C42.4919 40.4515 42.5039 40.2595 42.5039 40.0435C42.5039 39.8275 42.4919 39.6395 42.4679 39.4795C42.4439 39.3115 42.3919 39.1714 42.3119 39.0595C42.2399 38.9394 42.1359 38.8514 41.9999 38.7955C41.8639 38.7395 41.6839 38.7115 41.4599 38.7115H40.8239V41.3755ZM39.5999 37.5595H41.5679C43.0079 37.5595 43.7279 38.3955 43.7279 40.0675C43.7279 40.5635 43.6479 40.9914 43.4879 41.3514C43.3359 41.7034 43.0639 41.9875 42.6719 42.2035L43.9919 46.1035H42.6959L41.5559 42.4555H40.8239V46.1035H39.5999V37.5595Z" fill="#0C0B0B"/>
<path d="M48.9093 40.0195H47.6853V39.7435C47.6853 39.4635 47.6173 39.2235 47.4813 39.0235C47.3533 38.8155 47.1333 38.7115 46.8213 38.7115C46.6533 38.7115 46.5133 38.7434 46.4013 38.8074C46.2973 38.8714 46.2133 38.9555 46.1493 39.0595C46.0933 39.1554 46.0533 39.2715 46.0293 39.4074C46.0053 39.5354 45.9933 39.6715 45.9933 39.8155C45.9933 39.9835 45.9973 40.1274 46.0053 40.2474C46.0213 40.3594 46.0533 40.4595 46.1013 40.5475C46.1493 40.6275 46.2173 40.6995 46.3053 40.7635C46.4013 40.8274 46.5293 40.8915 46.6893 40.9555L47.6253 41.3274C47.8973 41.4314 48.1173 41.5555 48.2853 41.6995C48.4533 41.8355 48.5813 41.9995 48.6693 42.1915C48.7653 42.3755 48.8293 42.5915 48.8613 42.8395C48.8933 43.0795 48.9093 43.3554 48.9093 43.6674C48.9093 44.0275 48.8733 44.3635 48.8013 44.6755C48.7293 44.9795 48.6093 45.2435 48.4413 45.4675C48.2813 45.6835 48.0653 45.8554 47.7933 45.9834C47.5213 46.1115 47.1893 46.1755 46.7973 46.1755C46.5013 46.1755 46.2253 46.1235 45.9693 46.0195C45.7133 45.9155 45.4933 45.7755 45.3093 45.5995C45.1253 45.4155 44.9773 45.1994 44.8653 44.9515C44.7613 44.7035 44.7093 44.4355 44.7093 44.1475V43.6915H45.9333V44.0755C45.9333 44.2995 45.9973 44.5035 46.1253 44.6875C46.2613 44.8635 46.4853 44.9515 46.7973 44.9515C47.0053 44.9515 47.1653 44.9235 47.2773 44.8675C47.3973 44.8035 47.4853 44.7194 47.5413 44.6154C47.6053 44.5035 47.6453 44.3675 47.6613 44.2075C47.6773 44.0475 47.6853 43.8715 47.6853 43.6795C47.6853 43.4555 47.6773 43.2715 47.6613 43.1275C47.6453 42.9835 47.6093 42.8675 47.5533 42.7795C47.5053 42.6915 47.4333 42.6194 47.3373 42.5634C47.2493 42.5075 47.1293 42.4475 46.9773 42.3835L46.1013 42.0235C45.5733 41.8075 45.2173 41.5235 45.0333 41.1715C44.8573 40.8115 44.7693 40.3634 44.7693 39.8274C44.7693 39.5075 44.8133 39.2035 44.9013 38.9155C44.9893 38.6275 45.1173 38.3795 45.2853 38.1715C45.4613 37.9635 45.6813 37.7995 45.9453 37.6795C46.2093 37.5515 46.5173 37.4874 46.8693 37.4874C47.1733 37.4874 47.4493 37.5435 47.6973 37.6555C47.9533 37.7675 48.1693 37.9154 48.3453 38.0994C48.5293 38.2834 48.6693 38.4914 48.7653 38.7234C48.8613 38.9474 48.9093 39.1795 48.9093 39.4195V40.0195Z" fill="#0C0B0B"/>
<defs>
<linearGradient id="paint0_linear" x1="40.6218" y1="70.7585" x2="50.4755" y2="11.0629" gradientUnits="userSpaceOnUse">
<stop stop-color="#FF3C7F"/>
<stop offset="1" stop-color="#FF3C7F" stop-opacity="0.2"/>
</linearGradient>
</defs>
</svg>
