<svg width="40" height="40" viewBox="0 0 40 40" fill="none" xmlns="http://www.w3.org/2000/svg">
<path d="M23.1659 30.3569C21.8393 31.9675 19.9601 33.6234 19.8955 33.6234C19.877 33.6418 19.1452 32.9962 18.7949 32.67C9.19794 23.7717 9.581 10.0911 19.8879 1.55469C29.3564 9.39673 30.4287 21.5395 23.1659 30.3569Z" fill="#F6A1FF"/>
<path d="M27.7717 15.3494C27.3298 19.0477 25.7945 22.6731 23.1649 25.866C21.8383 27.4767 19.9587 29.1329 19.894 29.1329C19.8859 29.141 13.0446 24.0746 12.002 15.347C12.6028 10.3193 15.2229 5.41749 19.8868 1.55469C24.1853 5.11478 27.125 9.90127 27.7717 15.3494Z" fill="#F9CAFC"/>
<path d="M19.8866 33.4712C19.8069 33.5489 19.1304 34.4521 17.8562 35.5039C17.8031 35.5039 13.4364 39.6443 7.13591 38.1028C4.31643 37.413 1.88169 35.7421 0 33.4712C0.556102 32.7297 1.87375 31.4431 3.22916 30.5539C8.3008 27.2244 14.7699 27.9234 19.2916 32.7928C19.7206 33.2542 19.8611 33.4462 19.8866 33.4712Z" fill="#5FC68F"/>
<path d="M17.7502 31.35C12.992 37.1076 5.52417 37.919 0.0078125 33.459C4.79174 27.6909 12.2437 26.9011 17.7502 31.35Z" fill="#7ADBAE"/>
<path d="M39.7733 33.4677C39.6936 33.5455 39.0171 34.4487 37.7429 35.5005C37.6899 35.5005 33.3231 39.6409 27.0226 38.0994C24.2031 37.4096 21.7684 35.7387 19.8867 33.4677C22.3933 30.4409 25.8919 28.4961 29.83 28.4961C34.7583 28.4961 37.5966 31.435 37.7445 31.435C39.0375 32.5038 39.6852 33.3818 39.7733 33.4677Z" fill="#5FC68F"/>
<path d="M39.7708 33.4724C34.2648 37.9973 26.7486 37.256 21.9258 31.4309C27.0576 27.1934 34.234 27.469 39.1774 32.7924C39.4244 33.0582 39.7786 33.4644 39.7708 33.4724Z" fill="#7ADBAE"/>
<path d="M15.1833 6.76223C13.8722 8.75971 12.9501 10.8855 12.4176 13.0642C10.5933 12.1156 8.57983 11.4332 6.41797 11.0587C6.71146 8.70759 7.40749 6.30436 8.53894 3.91797C11.0135 4.56428 13.2379 5.53295 15.1833 6.76223Z" fill="#F6A1FF"/>
<path d="M33.3619 11.0988C31.2049 11.4949 29.1986 12.199 27.3831 13.17C26.8555 10.9544 25.9245 8.79178 24.5918 6.76223C26.5372 5.53295 28.7616 4.56428 31.2362 3.91797C32.374 6.31799 33.0717 8.73485 33.3619 11.0988Z" fill="#F6A1FF"/>
<path d="M20 33.6269C19.9887 33.627 20.0086 33.6274 19.8945 33.6245C26.5877 28.0757 29.1002 20.3527 27.3829 13.1718C31.237 11.1103 35.605 10.4333 39.8874 10.8384C41.1079 23.8274 32.2539 33.5192 20 33.6269Z" fill="#F6A1FF"/>
<path d="M22.3477 31.297C22.6846 30.9379 23.147 30.3802 23.1656 30.3576C23.1656 30.2618 29.8001 23.2767 27.3834 13.1714C31.0787 11.1948 35.243 10.4916 39.3563 10.7938C39.496 21.5469 32.5286 29.7801 22.3477 31.297Z" fill="#F9CAFC"/>
<path d="M19.8791 33.6252C7.66154 33.3471 -1.10026 23.7565 0.112016 10.8391C4.35251 10.4362 8.63646 11.1009 12.4168 13.0667C10.5044 20.8782 13.6541 28.4534 19.8791 33.6252Z" fill="#F6A1FF"/>
<path d="M16.887 30.6876C7.39824 28.9335 0.712342 21.1698 0.642578 10.7938C4.69254 10.4972 8.77025 11.1694 12.4166 13.0655C10.8146 19.6088 12.8117 25.958 16.887 30.6876Z" fill="#F9CAFC"/>
<path d="M19.8876 13.7435C20.2419 13.7435 20.5291 13.4563 20.5291 13.102V10.536C20.5291 10.1818 20.2419 9.89453 19.8876 9.89453C19.5333 9.89453 19.2461 10.1818 19.2461 10.536V13.102C19.2461 13.4563 19.5333 13.7435 19.8876 13.7435Z" fill="#F6A1FF"/>
<path d="M35.0659 16.4934C34.8005 16.2584 34.3951 16.283 34.1603 16.5482L31.9059 19.0936C31.5391 19.5078 31.8376 20.1605 32.3858 20.1605C32.5631 20.1605 32.7395 20.0874 32.8662 19.9444L35.1206 17.399C35.3556 17.1337 35.331 16.7282 35.0659 16.4934Z" fill="#F6A1FF"/>
<path d="M31.2178 20.8362C30.9525 20.6012 30.5471 20.6259 30.3123 20.8911L20.5284 31.9374V16.9501C20.5284 16.5958 20.2412 16.3086 19.8869 16.3086C19.5326 16.3086 19.2454 16.5958 19.2454 16.9501V31.9374L9.4616 20.8911C9.22665 20.6259 8.82122 20.6014 8.55604 20.8362C8.29078 21.0711 8.26624 21.4765 8.50111 21.7418C8.50111 21.7418 16.9313 31.2598 19.3742 34.0178C19.4532 34.1185 19.5787 34.2153 19.7406 34.2533C20.0692 34.3295 20.5113 34.195 20.613 33.7769L31.2726 21.7418C31.5075 21.4765 31.4829 21.0711 31.2178 20.8362Z" fill="#F6A1FF"/>
<path d="M5.61199 16.5481C5.37696 16.283 4.97161 16.2584 4.70643 16.4933C4.44117 16.7281 4.41663 17.1336 4.6515 17.3988L6.9059 19.9442C7.03268 20.0872 7.20909 20.1603 7.38639 20.1603C7.93495 20.1603 8.23285 19.5072 7.86639 19.0934L5.61199 16.5481Z" fill="#F6A1FF"/>
</svg>
