<svg width="140" height="40" viewBox="0 0 140 40" fill="none" xmlns="http://www.w3.org/2000/svg">
<path d="M139.071 35.2781C139.071 35.7815 138.968 36.28 138.768 36.7451C138.568 37.2102 138.275 37.6327 137.906 37.9885C137.536 38.3443 137.098 38.6264 136.615 38.8187C136.132 39.011 135.615 39.1097 135.093 39.1091H4.90668C3.85151 39.1102 2.83911 38.7072 2.09212 37.9888C1.34513 37.2703 0.924715 36.2953 0.92334 35.2781V4.72668C0.924714 3.70901 1.34496 2.73346 2.0918 2.01423C2.83864 1.295 3.85103 0.890889 4.90668 0.890625H135.092C135.615 0.890625 136.132 0.989855 136.615 1.18265C137.097 1.37544 137.536 1.65802 137.905 2.01424C138.275 2.37046 138.568 2.79336 138.768 3.25876C138.967 3.72417 139.07 4.22297 139.07 4.72668L139.071 35.2781Z" fill="white"/>
<path d="M135.093 40H4.9068C3.60696 39.9997 2.36031 39.5024 1.4404 38.6171C0.520497 37.7318 0.00247325 36.5308 0 35.2777L0 4.7273C0.00192293 3.47359 0.519605 2.27181 1.43948 1.38558C2.35936 0.499356 3.60631 0.00105818 4.9068 0L135.092 0C136.392 0.00158618 137.639 0.500054 138.559 1.38616C139.479 2.27228 139.996 3.47375 139.999 4.7273V35.2777C140.001 37.8824 137.796 40 135.093 40Z" fill="#A6A6A6"/>
<path d="M139.071 35.2781C139.071 35.7815 138.968 36.28 138.768 36.7451C138.568 37.2102 138.275 37.6327 137.906 37.9885C137.536 38.3443 137.098 38.6264 136.615 38.8187C136.132 39.011 135.615 39.1097 135.093 39.1091H4.90668C3.85151 39.1102 2.83911 38.7072 2.09212 37.9888C1.34513 37.2703 0.924715 36.2953 0.92334 35.2781V4.72668C0.924714 3.70901 1.34496 2.73346 2.0918 2.01423C2.83864 1.295 3.85103 0.890889 4.90668 0.890625H135.092C135.615 0.890625 136.132 0.989855 136.615 1.18265C137.097 1.37544 137.536 1.65802 137.905 2.01424C138.275 2.37046 138.568 2.79336 138.768 3.25876C138.967 3.72417 139.07 4.22297 139.07 4.72668L139.071 35.2781Z" fill="black"/>
<path d="M31.2608 19.7895C31.2308 16.5656 33.9991 14.9972 34.1257 14.9241C32.5578 12.7205 30.1278 12.4195 29.2738 12.3954C27.2329 12.1884 25.2532 13.5728 24.2135 13.5728C23.1531 13.5728 21.552 12.4155 19.8265 12.4495C17.6061 12.4825 15.5288 13.7218 14.3895 15.6463C12.0383 19.5704 13.7918 25.337 16.0445 28.5089C17.1713 30.0633 18.488 31.7968 20.2115 31.7358C21.8976 31.6697 22.5274 30.7005 24.5621 30.7005C26.5782 30.7005 27.1696 31.7358 28.9273 31.6968C30.7369 31.6698 31.8761 30.1363 32.9635 28.5689C34.2657 26.7894 34.7887 25.0349 34.8094 24.9449C34.7679 24.9309 31.2961 23.6525 31.2608 19.7895ZM27.9405 10.3089C28.8474 9.21557 29.4679 7.72817 29.2956 6.21875C27.9831 6.27477 26.3416 7.09399 25.3963 8.16329C24.56 9.10554 23.813 10.65 24.006 12.1024C25.4804 12.2084 26.9942 11.3852 27.9405 10.3089Z" fill="white"/>
<path d="M135.093 0H65.3613L92.674 40H135.093C136.393 39.9989 137.64 39.5009 138.56 38.6151C139.479 37.7293 139.997 36.5281 140 35.2747V4.7273C139.998 3.47367 139.48 2.27204 138.56 1.38587C137.64 0.499705 136.393 0.00132228 135.093 0Z" fill="url(#paint0_linear_1468_133801)"/>
<path d="M55.6828 31.5126H53.3264L52.0356 27.6025H47.5491L46.3195 31.5126H44.0254L48.4715 18.201H51.217L55.6828 31.5126ZM51.6465 25.9621L50.4793 22.4861C50.3558 22.131 50.1234 21.2948 49.783 19.9784H49.7415C49.6046 20.5446 49.3856 21.3808 49.0858 22.4861L47.9382 25.9621H51.6465ZM67.0943 26.5953C67.0943 28.2277 66.6346 29.5181 65.7143 30.4653C64.8904 31.3086 63.8663 31.7297 62.6451 31.7297C61.3263 31.7297 60.3779 31.2766 59.8021 30.3683V35.4047H57.5899V25.0688C57.5899 24.0436 57.5619 22.9923 57.5079 21.914H59.4534L59.5769 23.4354H59.6184C60.3561 22.2891 61.4757 21.7159 62.9782 21.7159C64.1527 21.7159 65.1332 22.163 65.9177 23.0583C66.7011 23.9555 67.0943 25.1339 67.0943 26.5953ZM64.8406 26.6733C64.8406 25.739 64.6227 24.9688 64.1849 24.3617C63.7065 23.7305 63.0643 23.4144 62.2591 23.4144C61.7133 23.4144 61.2173 23.5904 60.7743 23.9375C60.3302 24.2876 60.0397 24.7448 59.9038 25.3109C59.8431 25.5226 59.8086 25.7406 59.801 25.9601V27.5615C59.801 28.2587 60.0231 28.8479 60.4672 29.33C60.9113 29.8102 61.4882 30.0512 62.1979 30.0512C63.0311 30.0512 63.6796 29.7401 64.1434 29.123C64.6082 28.5038 64.8406 27.6876 64.8406 26.6733ZM78.5463 26.5953C78.5463 28.2277 78.0866 29.5181 77.1663 30.4653C76.3414 31.3086 75.3183 31.7297 74.096 31.7297C72.7772 31.7297 71.8289 31.2766 71.253 30.3683V35.4047H69.0408V25.0688C69.0408 24.0436 69.0128 22.9923 68.9589 21.914H70.9044L71.0278 23.4354H71.0693C71.806 22.2891 72.9256 21.7159 74.4291 21.7159C75.6026 21.7159 76.5831 22.163 77.3696 23.0583C78.152 23.9555 78.5463 25.1339 78.5463 26.5953ZM76.2916 26.6733C76.2916 25.739 76.0726 24.9688 75.6348 24.3617C75.1564 23.7305 74.5162 23.4144 73.7111 23.4144C73.1653 23.4144 72.6693 23.5904 72.2242 23.9375C71.7801 24.2876 71.4906 24.7448 71.3547 25.3109C71.2872 25.575 71.2509 25.79 71.2509 25.9601V27.5615C71.2509 28.2587 71.474 28.8479 71.916 29.33C72.3601 29.8092 72.937 30.0512 73.6488 30.0512C74.483 30.0512 75.1315 29.7401 75.5943 29.123C76.0592 28.5038 76.2916 27.6876 76.2916 26.6733ZM91.3502 27.7786C91.3502 28.9119 90.9393 29.8332 90.1228 30.5444C89.2242 31.3206 87.9697 31.7097 86.3615 31.7097C84.8756 31.7097 83.6845 31.4336 82.7859 30.8804L83.2974 29.103C84.2676 29.6571 85.3332 29.9332 86.4932 29.9332C87.3275 29.9332 87.976 29.7511 88.4387 29.39C88.9025 29.0279 89.137 28.5438 89.137 27.9396C89.137 27.3985 88.943 26.9454 88.5622 26.5763C88.1793 26.2082 87.5464 25.8651 86.6572 25.55C84.2396 24.6807 83.0297 23.4094 83.0297 21.7369C83.0297 20.6446 83.4572 19.7504 84.3101 19.0512C85.163 18.353 86.294 18.0039 87.701 18.0039C88.9575 18.0039 90.0045 18.215 90.8356 18.6361L90.2805 20.3746C89.4981 19.9664 88.6151 19.7624 87.6273 19.7624C86.8471 19.7624 86.2349 19.9474 85.797 20.3155C85.4287 20.6446 85.2419 21.0457 85.2419 21.5219C85.2419 22.047 85.4546 22.4831 85.8779 22.8252C86.2452 23.1403 86.9155 23.4834 87.8847 23.8515C89.0737 24.3136 89.9474 24.8518 90.5067 25.47C91.0701 26.0881 91.3502 26.8593 91.3502 27.7786ZM98.6829 23.5144H96.2446V28.1747C96.2446 29.36 96.6741 29.9512 97.5354 29.9512C97.9307 29.9512 98.2586 29.9192 98.518 29.8522L98.5792 31.4716C98.1434 31.6287 97.5696 31.7077 96.8588 31.7077C95.9852 31.7077 95.3024 31.4506 94.8096 30.9365C94.3188 30.4223 94.0718 29.5611 94.0718 28.3488V23.5104H92.6192V21.91H94.0718V20.1525L96.2446 19.5203V21.91H98.6829V23.5144ZM109.663 26.6343C109.663 28.1097 109.225 29.321 108.351 30.2683C107.437 31.2435 106.221 31.7297 104.705 31.7297C103.242 31.7297 102.079 31.2626 101.212 30.3293C100.344 29.394 99.9104 28.2157 99.9104 26.7943C99.9104 25.3069 100.359 24.0886 101.252 23.1413C102.147 22.1931 103.353 21.7189 104.869 21.7189C106.33 21.7189 107.504 22.1871 108.392 23.1213C109.24 24.0276 109.663 25.1979 109.663 26.6343ZM107.37 26.6833C107.37 25.8041 107.173 25.0498 106.777 24.4187C106.313 23.6565 105.649 23.2754 104.789 23.2754C103.903 23.2754 103.223 23.6565 102.761 24.4187C102.364 25.0498 102.167 25.8171 102.167 26.7233C102.167 27.6035 102.364 28.3598 102.761 28.9889C103.239 29.7511 103.906 30.1322 104.771 30.1322C105.616 30.1322 106.279 29.7431 106.759 28.9699C107.165 28.3237 107.37 27.5645 107.37 26.6833ZM116.856 23.7895C116.626 23.7495 116.393 23.7297 116.159 23.7305C115.381 23.7305 114.779 24.0126 114.356 24.5807C113.989 25.0809 113.804 25.713 113.804 26.4762V31.5126H111.592V24.9368C111.594 23.9292 111.572 22.9217 111.527 21.915H113.454L113.535 23.7515H113.596C113.831 23.1203 114.198 22.6112 114.702 22.2301C115.164 21.8971 115.725 21.7167 116.301 21.7159C116.506 21.7159 116.69 21.7299 116.854 21.7549L116.856 23.7895ZM126.75 26.2592C126.756 26.5834 126.728 26.9073 126.669 27.2264H120.033C120.057 28.1747 120.379 28.9009 120.995 29.401C121.555 29.8472 122.278 30.0712 123.166 30.0712C124.149 30.0712 125.045 29.9212 125.851 29.6181L126.198 31.0975C125.256 31.4936 124.144 31.6907 122.86 31.6907C121.316 31.6907 120.104 31.2526 119.222 30.3783C118.342 29.5031 117.901 28.3267 117.901 26.8533C117.901 25.4069 118.311 24.2016 119.132 23.2403C119.991 22.2141 121.152 21.7009 122.613 21.7009C124.048 21.7009 125.134 22.2141 125.872 23.2403C126.456 24.0536 126.75 25.0618 126.75 26.2592ZM124.641 25.706C124.656 25.0728 124.511 24.5277 124.211 24.0666C123.828 23.4724 123.239 23.1763 122.449 23.1763C121.726 23.1763 121.137 23.4654 120.688 24.0456C120.32 24.5067 120.101 25.0608 120.034 25.704L124.641 25.706Z" fill="white"/>
<path d="M46.9105 13.4946C46.2952 13.4946 45.7629 13.4656 45.3198 13.4166V6.9808C45.9395 6.88852 46.5657 6.84304 47.1927 6.84477C49.7296 6.84477 50.8979 8.0481 50.8979 10.0096C50.8979 12.2723 49.5179 13.4946 46.9105 13.4946ZM47.2819 7.66999C46.9395 7.66999 46.6479 7.69 46.4062 7.73801V12.6304C46.5369 12.6504 46.788 12.6594 47.1408 12.6594C48.803 12.6594 49.7493 11.7471 49.7493 10.0386C49.7493 8.51523 48.8933 7.66999 47.2819 7.66999ZM54.5389 13.5436C53.1091 13.5436 52.1825 12.5143 52.1825 11.1169C52.1825 9.66054 53.1288 8.62226 54.6198 8.62226C56.0289 8.62226 56.9762 9.60253 56.9762 11.0399C56.9762 12.5143 55.9998 13.5436 54.5389 13.5436ZM54.5804 9.38847C53.7949 9.38847 53.2917 10.0967 53.2917 11.0869C53.2917 12.0582 53.8053 12.7664 54.57 12.7664C55.3347 12.7664 55.8483 12.0092 55.8483 11.0669C55.8483 10.1067 55.3451 9.38847 54.5804 9.38847ZM65.1296 8.71928L63.5992 13.4366H62.6021L61.9681 11.388C61.8104 10.8869 61.6792 10.3785 61.5748 9.8646H61.5541C61.4742 10.3787 61.3227 10.8939 61.1619 11.388L60.4874 13.4366H59.4799L58.0397 8.71928H59.1572L59.7113 10.9619C59.842 11.496 59.952 12.0002 60.0433 12.4763H60.0641C60.144 12.0792 60.2747 11.5831 60.4667 10.9719L61.1619 8.72028H62.048L62.7131 10.9239C62.8739 11.458 63.0046 11.9822 63.1063 12.4773H63.1354C63.2059 11.9922 63.317 11.477 63.4674 10.9239L64.062 8.72028L65.1296 8.71928ZM70.7638 13.4366H69.6764V10.7278C69.6764 9.89361 69.3444 9.47549 68.6896 9.47549C68.0453 9.47549 67.6022 10.0096 67.6022 10.6308V13.4366H66.5148V10.0677C66.5148 9.65054 66.5045 9.20342 66.4744 8.71828H67.431L67.4819 9.44648H67.512C67.8046 8.94234 68.3981 8.62226 69.0632 8.62226C70.0904 8.62226 70.7648 9.37946 70.7648 10.6118L70.7638 13.4366ZM73.7624 13.4366H72.674V6.55469H73.7624V13.4366ZM77.7271 13.5436C76.2983 13.5436 75.3707 12.5143 75.3707 11.1169C75.3707 9.66054 76.317 8.62226 77.807 8.62226C79.2171 8.62226 80.1634 9.60253 80.1634 11.0399C80.1644 12.5143 79.187 13.5436 77.7271 13.5436ZM77.7676 9.38847C76.9821 9.38847 76.4789 10.0967 76.4789 11.0869C76.4789 12.0582 76.9935 12.7664 77.7562 12.7664C78.5219 12.7664 79.0345 12.0092 79.0345 11.0669C79.0355 10.1067 78.5333 9.38847 77.7676 9.38847ZM84.4507 13.4366L84.3719 12.8934H84.3428C84.0108 13.3306 83.5262 13.5436 82.912 13.5436C82.0352 13.5436 81.4127 12.9514 81.4127 12.1552C81.4127 10.9909 82.4596 10.3887 84.2723 10.3887V10.3017C84.2723 9.68055 83.9309 9.36946 83.2565 9.36946C82.774 9.36946 82.3507 9.48649 81.9782 9.71956L81.7571 9.03037C82.2095 8.75829 82.774 8.62226 83.437 8.62226C84.7153 8.62226 85.3607 9.27244 85.3607 10.5738V12.3113C85.3607 12.7874 85.3825 13.1565 85.4313 13.4376L84.4507 13.4366ZM84.3013 11.0869C83.0936 11.0869 82.4876 11.369 82.4876 12.0382C82.4876 12.5333 82.7999 12.7754 83.2336 12.7754C83.7867 12.7754 84.3013 12.3683 84.3013 11.8151V11.0869ZM90.6411 13.4366L90.5902 12.6794H90.5601C90.2478 13.2515 89.7228 13.5436 88.9892 13.5436C87.8095 13.5436 86.9358 12.5433 86.9358 11.1359C86.9358 9.66054 87.8416 8.62126 89.0784 8.62126C89.7332 8.62126 90.197 8.83431 90.4584 9.26243H90.4802V6.55469H91.5687V12.1652C91.5687 12.6214 91.5801 13.0485 91.6091 13.4366H90.6411ZM90.4802 10.6608C90.4802 10.0006 90.0268 9.43748 89.3347 9.43748C88.5285 9.43748 88.0356 10.1267 88.0356 11.0969C88.0356 12.0482 88.5472 12.6994 89.3129 12.6994C89.9967 12.6994 90.4802 12.1262 90.4802 11.447V10.6608ZM98.4697 13.5436C97.041 13.5436 96.1144 12.5143 96.1144 11.1169C96.1144 9.66054 97.0607 8.62226 98.5507 8.62226C99.9608 8.62226 100.907 9.60253 100.907 11.0399C100.908 12.5143 99.9317 13.5436 98.4697 13.5436ZM98.5102 9.38847C97.7258 9.38847 97.2225 10.0967 97.2225 11.0869C97.2225 12.0582 97.7361 12.7664 98.4998 12.7664C99.2656 12.7664 99.7781 12.0092 99.7781 11.0669C99.7802 10.1067 99.277 9.38847 98.5102 9.38847ZM106.755 13.4366H105.667V10.7278C105.667 9.89361 105.334 9.47549 104.68 9.47549C104.035 9.47549 103.593 10.0096 103.593 10.6308V13.4366H102.505V10.0677C102.505 9.65054 102.495 9.20342 102.464 8.71828H103.421L103.472 9.44648H103.502C103.794 8.94234 104.388 8.62126 105.052 8.62126C106.079 8.62126 106.755 9.37846 106.755 10.6108V13.4366ZM114.071 9.5055H112.875V11.7961C112.875 12.3793 113.084 12.6704 113.508 12.6704C113.7 12.6704 113.86 12.6504 113.99 12.6214L114.02 13.4176C113.81 13.4956 113.527 13.5346 113.177 13.5346C112.32 13.5346 111.807 13.0785 111.807 11.8842V9.5055H111.093V8.71928H111.807V7.85505L112.875 7.54396V8.71828H114.071V9.5055ZM119.828 13.4366H118.741V10.7478C118.741 9.90361 118.41 9.47649 117.755 9.47649C117.191 9.47649 116.666 9.84559 116.666 10.5928V13.4366H115.58V6.55469H116.666V9.38847H116.688C117.03 8.87433 117.526 8.62126 118.159 8.62126C119.195 8.62126 119.828 9.39747 119.828 10.6308V13.4366ZM125.725 11.33H122.462C122.483 12.2232 123.096 12.7274 124.004 12.7274C124.486 12.7274 124.931 12.6494 125.323 12.5043L125.492 13.2325C125.029 13.4266 124.484 13.5236 123.85 13.5236C122.32 13.5236 121.414 12.5913 121.414 11.1459C121.414 9.69955 122.342 8.61225 123.728 8.61225C124.978 8.61225 125.763 9.5055 125.763 10.8549C125.77 11.0141 125.757 11.1736 125.725 11.33ZM124.728 10.5828C124.728 9.8546 124.347 9.34045 123.652 9.34045C123.028 9.34045 122.534 9.8646 122.463 10.5828H124.728Z" fill="white"/>
<defs>
<linearGradient id="paint0_linear_1468_133801" x1="102.679" y1="40.1062" x2="102.679" y2="-104.153" gradientUnits="userSpaceOnUse">
<stop stop-color="#1A1A1A" stop-opacity="0.1"/>
<stop offset="0.123" stop-color="#212121" stop-opacity="0.151"/>
<stop offset="0.308" stop-color="#353535" stop-opacity="0.227"/>
<stop offset="0.532" stop-color="#575757" stop-opacity="0.318"/>
<stop offset="0.783" stop-color="#858585" stop-opacity="0.421"/>
<stop offset="1" stop-color="#B3B3B3" stop-opacity="0.51"/>
</linearGradient>
</defs>
</svg>
