<svg width="40" height="40" viewBox="0 0 40 40" fill="none" xmlns="http://www.w3.org/2000/svg">
<g clip-path="url(#clip0_1925_30614)">
<path d="M24.85 25.7641C24.85 29.8315 20.198 30.1503 11.7454 34.6003L10.7656 32.0721C17.7088 26.3311 16.5753 26.9856 19.4259 25.0859C25.1282 25.7987 24.3495 25.7012 24.85 25.7641Z" fill="#5FC68F"/>
<path d="M24.4984 25.7198C23.7998 28.6622 19.7888 29.4059 13.0014 32.7855C12.1968 33.1861 11.2172 32.8109 10.8906 31.9681C18.6211 25.469 17.4034 26.4343 19.4267 25.0859L24.4984 25.7198Z" fill="#7ADBAE"/>
<path d="M9.31402 39.2427C9.38297 39.6388 9.0766 40.0015 8.67451 39.999C7.8638 39.9939 7.10083 39.5011 6.79028 38.7C6.48827 37.9208 6.65229 38.3441 5.95884 36.5533C5.81054 36.1702 5.84675 35.7533 6.03465 35.4114C6.25125 35.0126 6.13747 35.1575 10.7652 32.0703C11.5391 34.0661 11.3228 33.5079 11.745 34.5985C8.73169 36.5175 9.1716 36.2372 8.82895 36.4557C8.83298 36.479 9.31547 39.2512 9.31402 39.2427Z" fill="#F9CFAC"/>
<path d="M8.82972 36.4557L9.11294 38.0825C9.19101 38.5308 8.79214 38.9201 8.34699 38.8257C7.69781 38.6878 7.12919 38.2353 6.8717 37.571C6.43848 36.4533 6.18865 35.8077 6.19268 35.8179C6.07502 35.514 6.20026 35.1169 6.4709 34.9356C6.65743 34.8105 5.43334 35.6277 10.766 32.0703L11.4111 33.734L9.86511 34.7186C9.26447 35.1011 8.88045 35.7455 8.82972 36.4557Z" fill="#FFE4CC"/>
<path d="M33.4844 40.001H29.9764C29.0942 40.001 28.4464 39.1719 28.6603 38.3163C29.0125 36.908 28.8047 38.2822 29.6627 30.7608C26.4394 30.4681 25.3176 30.4987 23.4935 30.51C22.7461 30.5144 21.4007 30.1519 20.7822 29.8318C19.1008 28.9617 18.7484 26.4416 19.4258 25.0859C20.1705 25.1792 19.2249 25.0609 24.8499 25.7641C29.6337 26.9383 27.6974 26.1279 31.4111 27.4165C31.4151 27.4173 31.4175 27.419 31.4207 27.4198C32.5239 27.8036 33.1725 28.9471 32.9368 30.0907C32.6076 31.6887 31.9121 35.0603 31.328 37.8913C33.0688 38.3272 33.5388 38.3389 34.0037 38.9728C34.3166 39.3981 34.0143 40.001 33.4844 40.001Z" fill="#F9CFAC"/>
<path d="M34.1203 39.2344H30.7438C29.8615 39.2344 29.2137 38.4053 29.4277 37.5498C29.7798 36.1415 29.572 37.5157 30.4301 29.9943C27.2067 29.7016 26.085 29.7322 24.2608 29.7435C23.5135 29.7479 22.1681 29.3854 21.5496 29.0653C20.1706 28.3516 19.6859 26.5291 19.9295 25.1484L24.8511 25.7637C29.6349 26.9379 27.6987 26.1274 31.4123 27.4161C31.4163 27.4169 31.4188 27.4186 31.422 27.4194C32.5252 27.8032 33.1737 28.9467 32.9381 30.0903C31.6879 36.1571 31.8991 35.129 31.3292 37.8909L33.0268 38.3159C33.5486 38.4461 34.0525 38.8724 34.1203 39.2344Z" fill="#FFE4CC"/>
<path d="M32.9379 30.0907C32.6465 31.5031 32.8488 30.5228 32.1524 33.8995H29.3057C29.4405 32.7193 29.3693 33.3434 29.6637 30.7608C26.5621 30.4966 25.9735 30.4945 23.4945 30.51C22.7502 30.5149 21.405 30.1536 20.7833 29.8318C19.1388 28.9812 18.7303 26.4864 19.4269 25.0859L24.8509 25.7641C29.6347 26.9383 27.6985 26.1279 31.4121 27.4165C31.4161 27.4173 31.4186 27.419 31.4218 27.4198C32.5279 27.8044 33.1729 28.9513 32.9379 30.0907Z" fill="#5FC68F"/>
<path d="M31.5199 27.4559C32.468 27.8331 32.9875 28.8598 32.7815 29.8592L32.7027 30.2414C32.3846 31.7841 31.0256 32.9042 29.4346 32.9042C29.4144 32.9042 29.3937 33.14 29.6649 30.7607C29.6377 30.7584 29.2212 29.72 28.2271 29.6455C26.0518 29.4825 25.0185 29.5054 23.4956 29.5149C22.7513 29.5197 21.4062 29.1584 20.7844 28.8367C19.786 28.3197 19.2562 27.2214 19.1328 26.1311C19.178 25.7456 19.278 25.3875 19.428 25.0859L24.8521 25.7641C29.6358 26.9383 27.6996 26.1279 31.4132 27.4165C31.4214 27.4181 31.4957 27.4462 31.5199 27.4559Z" fill="#7ADBAE"/>
<path d="M23.7824 8.16136C23.2247 9.17489 22.1253 9.86463 20.8592 9.86463C19.7893 11.8783 20.1245 11.1533 19.3625 13.0443C19.0015 12.6969 18.7026 12.2884 18.483 11.8358C18.0985 11.0409 18.0703 10.434 18.0703 9.67907C18.3657 9.53133 18.6177 9.26263 18.7389 8.91973C19.1471 7.76492 19.2004 7.70605 19.1779 7.32404C20.6574 6.13471 22.8764 6.56462 23.7824 8.16136Z" fill="#6D6D6D"/>
<path d="M24.1727 12.5794C24.1727 13.5156 23.3921 14.2737 22.4292 14.2737C21.2976 14.2737 20.2078 13.8535 19.3633 13.047C20.1171 11.1756 19.7734 11.9137 20.8599 9.86733C22.126 9.86733 23.2251 9.17775 23.7831 8.16406C24.2901 9.04267 24.1727 9.51903 24.1727 12.5794Z" fill="#F9CFAC"/>
<path d="M24.1373 9.1617V11.8536C24.1373 12.7237 23.4623 13.4406 22.5938 13.5366V9.39154C23.0929 9.09316 23.5049 8.66897 23.7832 8.16406C23.9582 8.46728 24.0808 8.80365 24.1373 9.1617Z" fill="#FFE4CC"/>
<path d="M19.1836 7.43731C19.1836 7.74061 19.1183 7.85125 18.7404 8.92034C18.6189 9.26405 18.3663 9.53235 18.0718 9.67968C16.9689 10.2468 15.7043 9.19832 16.1141 8.03818L16.4811 6.99587C16.9892 5.55759 19.1836 5.91371 19.1836 7.43731Z" fill="#6D6D6D"/>
<path d="M24.8519 25.7639L19.4278 25.0857C19.4213 25.0161 18.5739 15.9884 18.5529 15.9464C18.5101 15.5254 18.6988 15.1101 19.048 14.8714C19.5543 14.5261 20.002 14.0311 20.1633 13.7617C20.2209 13.7992 20.1668 13.7753 20.3827 13.9553C21.6583 15.0242 25.5293 17.1018 25.5293 19.6624C25.5293 21.0181 23.6494 23.7967 24.8519 25.7639Z" fill="#B3CEC9"/>
<path d="M24.55 25.0489C22.0942 24.7417 20.1515 22.7719 19.9144 20.2727C19.6533 17.5204 19.4451 15.3908 19.4396 15.3797C19.3968 14.9588 19.5855 14.5434 19.9347 14.3047C20.092 14.1975 20.2412 14.0797 20.3823 13.9531C21.6579 15.0221 25.529 17.0997 25.529 19.6603C25.529 20.8586 24.0588 23.1723 24.55 25.0489Z" fill="#CAE0DD"/>
<path d="M21.8681 1.39115V14.8804C21.8681 15.4175 21.5633 15.8989 21.1117 16.1279C20.2326 16.5764 19.1561 15.9326 19.1561 14.9159V4.63052C19.1561 3.19958 18.5117 3.15289 18.5117 2.40153C18.5117 1.97654 18.7432 1.56284 19.1561 1.35639C19.1561 0.50552 19.9294 -0.129387 20.752 0.0225455C21.3907 0.140366 21.8681 0.719306 21.8681 1.39115Z" fill="#F9CFAC"/>
<path d="M21.869 1.39204V14.8813C21.869 15.4184 21.5642 15.8998 21.1126 16.1288C20.4808 16.012 20.0037 15.4615 20.0037 14.7958V4.51044C20.0037 3.07951 19.3594 3.03281 19.3594 2.28146C19.3594 1.85647 19.5908 1.44276 20.0037 1.23632C20.0037 0.709069 20.3072 0.244965 20.7529 0.0234375C21.3916 0.141258 21.869 0.720198 21.869 1.39204Z" fill="#FFE4CC"/>
</g>
<defs>
<clipPath id="clip0_1925_30614">
<rect width="40" height="40" fill="white"/>
</clipPath>
</defs>
</svg>
