<svg width="40" height="40" viewBox="0 0 40 40" fill="none" xmlns="http://www.w3.org/2000/svg">
<path d="M23.1659 33.3569C21.8393 34.9675 19.9601 36.6234 19.8955 36.6234C19.877 36.6418 19.1452 35.9962 18.7949 35.67C9.19794 26.7717 9.581 13.0911 19.8879 4.55469C29.3564 12.3967 30.4287 24.5395 23.1659 33.3569Z" fill="#F6A1FF"/>
<path d="M27.7736 18.3494C27.3318 22.0477 25.7964 25.6731 23.1668 28.866C21.8403 30.4767 19.9606 32.1329 19.896 32.1329C19.8879 32.141 13.0466 27.0746 12.0039 18.347C12.6048 13.3193 15.2248 8.41749 19.8888 4.55469C24.1872 8.11478 27.127 12.9013 27.7736 18.3494Z" fill="#F9CAFC"/>
<path d="M20 36.6269C19.9887 36.627 20.0086 36.6274 19.8945 36.6245C26.5877 31.0757 29.1002 23.3527 27.3829 16.1718C31.237 14.1103 35.605 13.4333 39.8874 13.8384C41.1079 26.8274 32.2539 36.5192 20 36.6269Z" fill="#F6A1FF"/>
<path d="M22.3477 34.297C22.6846 33.9379 23.147 33.3802 23.1656 33.3576C23.1656 33.2618 29.8001 26.2767 27.3834 16.1714C31.0787 14.1948 35.243 13.4916 39.3563 13.7938C39.496 24.5469 32.5286 32.7801 22.3477 34.297Z" fill="#F9CAFC"/>
<path d="M19.8791 36.6252C7.66154 36.3471 -1.10026 26.7565 0.112016 13.8391C4.35251 13.4362 8.63646 14.1009 12.4168 16.0667C10.5044 23.8782 13.6541 31.4534 19.8791 36.6252Z" fill="#F6A1FF"/>
<path d="M16.889 33.6876C7.40019 31.9335 0.714295 24.1698 0.644531 13.7938C4.6945 13.4972 8.77221 14.1694 12.4185 16.0655C10.8166 22.6088 12.8137 28.958 16.889 33.6876Z" fill="#F9CAFC"/>
<path d="M19.8876 16.7435C20.2419 16.7435 20.5291 16.4563 20.5291 16.102V13.536C20.5291 13.1818 20.2419 12.8945 19.8876 12.8945C19.5333 12.8945 19.2461 13.1818 19.2461 13.536V16.102C19.2461 16.4563 19.5333 16.7435 19.8876 16.7435Z" fill="#F6A1FF"/>
<path d="M35.0678 19.4934C34.8025 19.2584 34.3971 19.283 34.1623 19.5482L31.9079 22.0936C31.541 22.5078 31.8395 23.1605 32.3878 23.1605C32.565 23.1605 32.7415 23.0874 32.8682 22.9444L35.1226 20.399C35.3575 20.1337 35.3329 19.7282 35.0678 19.4934Z" fill="#F6A1FF"/>
<path d="M5.61394 19.5481C5.37891 19.283 4.97356 19.2584 4.70838 19.4933C4.44312 19.7281 4.41859 20.1336 4.65346 20.3988L6.90785 22.9442C7.03463 23.0872 7.21104 23.1603 7.38834 23.1603C7.9369 23.1603 8.2348 22.5072 7.86834 22.0934L5.61394 19.5481Z" fill="#F6A1FF"/>
</svg>
