<svg width="942" height="734" viewBox="0 0 942 734" fill="none" xmlns="http://www.w3.org/2000/svg">
<path d="M923.5 733.5C923.5 733.5 858 599.015 858 527.5C858 455.985 900.5 438.765 900.5 367.25C900.5 295.735 858 278.015 858 206.5C858 134.985 923.5 0.999994 923.5 0.999994" stroke="url(#paint0_linear_902_2350)" stroke-dasharray="4 4"/>
<rect x="808.5" y="147.5" width="99" height="99" rx="49.5" fill="#F9F9F9" stroke="#D6D6D6" stroke-dasharray="4 4"/>
<path d="M840.971 193.98V191.88L847.131 186.39C847.611 185.963 847.944 185.56 848.131 185.18C848.317 184.8 848.411 184.433 848.411 184.08C848.411 183.6 848.307 183.173 848.101 182.8C847.894 182.42 847.607 182.12 847.241 181.9C846.881 181.68 846.464 181.57 845.991 181.57C845.491 181.57 845.047 181.687 844.661 181.92C844.281 182.147 843.984 182.45 843.771 182.83C843.557 183.21 843.457 183.62 843.471 184.06H840.991C840.991 183.1 841.204 182.263 841.631 181.55C842.064 180.837 842.657 180.283 843.411 179.89C844.171 179.497 845.047 179.3 846.041 179.3C846.961 179.3 847.787 179.507 848.521 179.92C849.254 180.327 849.831 180.893 850.251 181.62C850.671 182.34 850.881 183.17 850.881 184.11C850.881 184.797 850.787 185.373 850.601 185.84C850.414 186.307 850.134 186.737 849.761 187.13C849.394 187.523 848.937 187.96 848.391 188.44L844.021 192.31L843.801 191.71H850.881V193.98H840.971ZM857.555 194.3C856.821 194.3 856.138 194.15 855.505 193.85C854.871 193.543 854.325 193.123 853.865 192.59C853.411 192.057 853.085 191.437 852.885 190.73L855.205 190.11C855.298 190.497 855.468 190.83 855.715 191.11C855.968 191.39 856.261 191.607 856.595 191.76C856.935 191.913 857.285 191.99 857.645 191.99C858.111 191.99 858.538 191.877 858.925 191.65C859.311 191.423 859.618 191.12 859.845 190.74C860.071 190.353 860.185 189.927 860.185 189.46C860.185 188.993 860.068 188.57 859.835 188.19C859.608 187.803 859.301 187.5 858.915 187.28C858.528 187.053 858.105 186.94 857.645 186.94C857.091 186.94 856.631 187.04 856.265 187.24C855.905 187.44 855.628 187.653 855.435 187.88L853.375 187.22L853.815 179.6H861.635V181.86H855.105L856.005 181.01L855.685 186.31L855.245 185.77C855.618 185.43 856.051 185.177 856.545 185.01C857.038 184.843 857.515 184.76 857.975 184.76C858.875 184.76 859.671 184.967 860.365 185.38C861.065 185.787 861.611 186.343 862.005 187.05C862.405 187.757 862.605 188.56 862.605 189.46C862.605 190.36 862.371 191.177 861.905 191.91C861.438 192.637 860.821 193.217 860.055 193.65C859.295 194.083 858.461 194.3 857.555 194.3ZM868.384 191.32V187.74H864.804V185.85H868.384V182.28H870.274V185.85H873.834V187.74H870.274V191.32H868.384ZM843.192 212.18C842.56 212.18 841.99 212.07 841.482 211.85C840.978 211.63 840.562 211.316 840.234 210.908C839.91 210.496 839.704 210.008 839.616 209.444L841.116 209.216C841.244 209.728 841.506 210.124 841.902 210.404C842.302 210.684 842.762 210.824 843.282 210.824C843.59 210.824 843.88 210.776 844.152 210.68C844.424 210.584 844.644 210.444 844.812 210.26C844.984 210.076 845.07 209.85 845.07 209.582C845.07 209.462 845.05 209.352 845.01 209.252C844.97 209.148 844.91 209.056 844.83 208.976C844.754 208.896 844.654 208.824 844.53 208.76C844.41 208.692 844.27 208.634 844.11 208.586L841.878 207.926C841.686 207.87 841.478 207.796 841.254 207.704C841.034 207.608 840.824 207.478 840.624 207.314C840.428 207.146 840.266 206.934 840.138 206.678C840.014 206.418 839.952 206.098 839.952 205.718C839.952 205.162 840.092 204.696 840.372 204.32C840.656 203.94 841.036 203.656 841.512 203.468C841.992 203.28 842.524 203.188 843.108 203.192C843.7 203.196 844.228 203.298 844.692 203.498C845.156 203.694 845.544 203.98 845.856 204.356C846.168 204.732 846.388 205.186 846.516 205.718L844.962 205.988C844.898 205.684 844.774 205.426 844.59 205.214C844.41 204.998 844.188 204.834 843.924 204.722C843.664 204.61 843.386 204.55 843.09 204.542C842.802 204.538 842.534 204.582 842.286 204.674C842.042 204.762 841.844 204.89 841.692 205.058C841.544 205.226 841.47 205.422 841.47 205.646C841.47 205.858 841.534 206.032 841.662 206.168C841.79 206.3 841.948 206.406 842.136 206.486C842.328 206.562 842.522 206.626 842.718 206.678L844.266 207.11C844.478 207.166 844.716 207.242 844.98 207.338C845.244 207.434 845.498 207.568 845.742 207.74C845.986 207.912 846.186 208.138 846.342 208.418C846.502 208.698 846.582 209.054 846.582 209.486C846.582 209.934 846.488 210.328 846.3 210.668C846.116 211.004 845.866 211.284 845.55 211.508C845.234 211.732 844.872 211.9 844.464 212.012C844.06 212.124 843.636 212.18 843.192 212.18ZM851.679 212C851.251 212.08 850.831 212.114 850.419 212.102C850.011 212.094 849.645 212.02 849.321 211.88C848.997 211.736 848.751 211.51 848.583 211.202C848.435 210.922 848.357 210.636 848.349 210.344C848.341 210.052 848.337 209.722 848.337 209.354V203.72H849.777V209.27C849.777 209.53 849.779 209.758 849.783 209.954C849.791 210.15 849.833 210.31 849.909 210.434C850.053 210.674 850.283 210.808 850.599 210.836C850.915 210.864 851.275 210.848 851.679 210.788V212ZM847.161 206.654V205.52H851.679V206.654H847.161ZM853.749 214.88L854.997 211.454L855.021 212.462L852.195 205.52H853.701L855.705 210.656H855.321L857.271 205.52H858.717L855.105 214.88H853.749ZM859.731 212V203.18H861.177V212H859.731ZM865.921 212.18C865.265 212.18 864.689 212.038 864.193 211.754C863.697 211.47 863.309 211.076 863.029 210.572C862.753 210.068 862.615 209.488 862.615 208.832C862.615 208.124 862.751 207.51 863.023 206.99C863.295 206.466 863.673 206.06 864.157 205.772C864.641 205.484 865.201 205.34 865.837 205.34C866.509 205.34 867.079 205.498 867.547 205.814C868.019 206.126 868.369 206.568 868.597 207.14C868.825 207.712 868.911 208.386 868.855 209.162H867.421V208.634C867.417 207.93 867.293 207.416 867.049 207.092C866.805 206.768 866.421 206.606 865.897 206.606C865.305 206.606 864.865 206.79 864.577 207.158C864.289 207.522 864.145 208.056 864.145 208.76C864.145 209.416 864.289 209.924 864.577 210.284C864.865 210.644 865.285 210.824 865.837 210.824C866.193 210.824 866.499 210.746 866.755 210.59C867.015 210.43 867.215 210.2 867.355 209.9L868.783 210.332C868.535 210.916 868.151 211.37 867.631 211.694C867.115 212.018 866.545 212.18 865.921 212.18ZM863.689 209.162V208.07H868.147V209.162H863.689ZM872.696 212.18C871.896 212.18 871.246 212 870.746 211.64C870.246 211.28 869.942 210.774 869.834 210.122L871.31 209.894C871.386 210.214 871.554 210.466 871.814 210.65C872.074 210.834 872.402 210.926 872.798 210.926C873.146 210.926 873.414 210.858 873.602 210.722C873.794 210.582 873.89 210.392 873.89 210.152C873.89 210.004 873.854 209.886 873.782 209.798C873.714 209.706 873.562 209.618 873.326 209.534C873.09 209.45 872.728 209.344 872.24 209.216C871.696 209.072 871.264 208.918 870.944 208.754C870.624 208.586 870.394 208.388 870.254 208.16C870.114 207.932 870.044 207.656 870.044 207.332C870.044 206.928 870.15 206.576 870.362 206.276C870.574 205.976 870.87 205.746 871.25 205.586C871.63 205.422 872.078 205.34 872.594 205.34C873.098 205.34 873.544 205.418 873.932 205.574C874.324 205.73 874.64 205.952 874.88 206.24C875.12 206.528 875.268 206.866 875.324 207.254L873.848 207.518C873.812 207.242 873.686 207.024 873.47 206.864C873.258 206.704 872.974 206.614 872.618 206.594C872.278 206.574 872.004 206.626 871.796 206.75C871.588 206.87 871.484 207.04 871.484 207.26C871.484 207.384 871.526 207.49 871.61 207.578C871.694 207.666 871.862 207.754 872.114 207.842C872.37 207.93 872.75 208.038 873.254 208.166C873.77 208.298 874.182 208.45 874.49 208.622C874.802 208.79 875.026 208.992 875.162 209.228C875.302 209.464 875.372 209.75 875.372 210.086C875.372 210.738 875.134 211.25 874.658 211.622C874.186 211.994 873.532 212.18 872.696 212.18Z" fill="#027DB8"/>
<rect x="842.5" y="317.5" width="99" height="99" rx="49.5" fill="#F9F9F9" stroke="#D6D6D6" stroke-dasharray="4 4"/>
<path d="M880.137 364.27C879.417 364.27 878.737 364.13 878.097 363.85C877.457 363.57 876.901 363.173 876.427 362.66C875.961 362.147 875.624 361.54 875.417 360.84L877.747 360.21C877.914 360.783 878.217 361.227 878.657 361.54C879.104 361.847 879.594 361.997 880.127 361.99C880.601 361.99 881.024 361.88 881.397 361.66C881.771 361.44 882.064 361.143 882.277 360.77C882.491 360.39 882.597 359.967 882.597 359.5C882.597 358.787 882.367 358.19 881.907 357.71C881.447 357.23 880.854 356.99 880.127 356.99C879.907 356.99 879.691 357.02 879.477 357.08C879.271 357.14 879.071 357.223 878.877 357.33L877.777 355.43L882.617 351.29L882.827 351.87H875.977V349.6H884.807V351.88L880.917 355.62L880.897 354.91C881.771 354.97 882.514 355.213 883.127 355.64C883.747 356.067 884.221 356.617 884.547 357.29C884.881 357.963 885.047 358.7 885.047 359.5C885.047 360.407 884.824 361.22 884.377 361.94C883.937 362.66 883.344 363.23 882.597 363.65C881.857 364.063 881.037 364.27 880.137 364.27ZM891.908 364.3C891.175 364.3 890.492 364.15 889.858 363.85C889.225 363.543 888.678 363.123 888.218 362.59C887.765 362.057 887.438 361.437 887.238 360.73L889.558 360.11C889.652 360.497 889.822 360.83 890.068 361.11C890.322 361.39 890.615 361.607 890.948 361.76C891.288 361.913 891.638 361.99 891.998 361.99C892.465 361.99 892.892 361.877 893.278 361.65C893.665 361.423 893.972 361.12 894.198 360.74C894.425 360.353 894.538 359.927 894.538 359.46C894.538 358.993 894.422 358.57 894.188 358.19C893.962 357.803 893.655 357.5 893.268 357.28C892.882 357.053 892.458 356.94 891.998 356.94C891.445 356.94 890.985 357.04 890.618 357.24C890.258 357.44 889.982 357.653 889.788 357.88L887.728 357.22L888.168 349.6H895.988V351.86H889.458L890.358 351.01L890.038 356.31L889.598 355.77C889.972 355.43 890.405 355.177 890.898 355.01C891.392 354.843 891.868 354.76 892.328 354.76C893.228 354.76 894.025 354.967 894.718 355.38C895.418 355.787 895.965 356.343 896.358 357.05C896.758 357.757 896.958 358.56 896.958 359.46C896.958 360.36 896.725 361.177 896.258 361.91C895.792 362.637 895.175 363.217 894.408 363.65C893.648 364.083 892.815 364.3 891.908 364.3ZM902.737 361.32V357.74H899.157V355.85H902.737V352.28H904.627V355.85H908.187V357.74H904.627V361.32H902.737ZM863.658 382.18C862.794 382.18 862.054 381.992 861.438 381.616C860.822 381.236 860.348 380.708 860.016 380.032C859.688 379.356 859.524 378.572 859.524 377.68C859.524 376.788 859.688 376.004 860.016 375.328C860.348 374.652 860.822 374.126 861.438 373.75C862.054 373.37 862.794 373.18 863.658 373.18C864.654 373.18 865.484 373.43 866.148 373.93C866.812 374.426 867.278 375.096 867.546 375.94L866.088 376.342C865.92 375.778 865.634 375.338 865.23 375.022C864.826 374.702 864.302 374.542 863.658 374.542C863.078 374.542 862.594 374.672 862.206 374.932C861.822 375.192 861.532 375.558 861.336 376.03C861.144 376.498 861.046 377.048 861.042 377.68C861.042 378.312 861.138 378.864 861.33 379.336C861.526 379.804 861.818 380.168 862.206 380.428C862.594 380.688 863.078 380.818 863.658 380.818C864.302 380.818 864.826 380.658 865.23 380.338C865.634 380.018 865.92 379.578 866.088 379.018L867.546 379.42C867.278 380.264 866.812 380.936 866.148 381.436C865.484 381.932 864.654 382.18 863.658 382.18ZM873.345 382V378.88C873.345 378.676 873.331 378.45 873.303 378.202C873.275 377.954 873.209 377.716 873.105 377.488C873.005 377.256 872.853 377.066 872.649 376.918C872.449 376.77 872.177 376.696 871.833 376.696C871.649 376.696 871.467 376.726 871.287 376.786C871.107 376.846 870.943 376.95 870.795 377.098C870.651 377.242 870.535 377.442 870.447 377.698C870.359 377.95 870.315 378.274 870.315 378.67L869.457 378.304C869.457 377.752 869.563 377.252 869.775 376.804C869.991 376.356 870.307 376 870.723 375.736C871.139 375.468 871.651 375.334 872.259 375.334C872.739 375.334 873.135 375.414 873.447 375.574C873.759 375.734 874.007 375.938 874.191 376.186C874.375 376.434 874.511 376.698 874.599 376.978C874.687 377.258 874.743 377.524 874.767 377.776C874.795 378.024 874.809 378.226 874.809 378.382V382H873.345ZM868.851 382V373.36H870.141V377.908H870.315V382H868.851ZM878.187 382.18C877.719 382.18 877.323 382.092 876.999 381.916C876.675 381.736 876.429 381.498 876.261 381.202C876.097 380.906 876.015 380.58 876.015 380.224C876.015 379.912 876.067 379.632 876.171 379.384C876.275 379.132 876.435 378.916 876.651 378.736C876.867 378.552 877.147 378.402 877.491 378.286C877.751 378.202 878.055 378.126 878.403 378.058C878.755 377.99 879.135 377.928 879.543 377.872C879.955 377.812 880.385 377.748 880.833 377.68L880.317 377.974C880.321 377.526 880.221 377.196 880.017 376.984C879.813 376.772 879.469 376.666 878.985 376.666C878.693 376.666 878.411 376.734 878.139 376.87C877.867 377.006 877.677 377.24 877.569 377.572L876.249 377.158C876.409 376.61 876.713 376.17 877.161 375.838C877.613 375.506 878.221 375.34 878.985 375.34C879.561 375.34 880.067 375.434 880.503 375.622C880.943 375.81 881.269 376.118 881.481 376.546C881.597 376.774 881.667 377.008 881.691 377.248C881.715 377.484 881.727 377.742 881.727 378.022V382H880.461V380.596L880.671 380.824C880.379 381.292 880.037 381.636 879.645 381.856C879.257 382.072 878.771 382.18 878.187 382.18ZM878.475 381.028C878.803 381.028 879.083 380.97 879.315 380.854C879.547 380.738 879.731 380.596 879.867 380.428C880.007 380.26 880.101 380.102 880.149 379.954C880.225 379.77 880.267 379.56 880.275 379.324C880.287 379.084 880.293 378.89 880.293 378.742L880.737 378.874C880.301 378.942 879.927 379.002 879.615 379.054C879.303 379.106 879.035 379.156 878.811 379.204C878.587 379.248 878.389 379.298 878.217 379.354C878.049 379.414 877.907 379.484 877.791 379.564C877.675 379.644 877.585 379.736 877.521 379.84C877.461 379.944 877.431 380.066 877.431 380.206C877.431 380.366 877.471 380.508 877.551 380.632C877.631 380.752 877.747 380.848 877.899 380.92C878.055 380.992 878.247 381.028 878.475 381.028ZM883.409 382V373.18H884.855V382H883.409ZM886.773 382V373.18H888.219V382H886.773ZM892.962 382.18C892.306 382.18 891.73 382.038 891.234 381.754C890.738 381.47 890.35 381.076 890.07 380.572C889.794 380.068 889.656 379.488 889.656 378.832C889.656 378.124 889.792 377.51 890.064 376.99C890.336 376.466 890.714 376.06 891.198 375.772C891.682 375.484 892.242 375.34 892.878 375.34C893.55 375.34 894.12 375.498 894.588 375.814C895.06 376.126 895.41 376.568 895.638 377.14C895.866 377.712 895.952 378.386 895.896 379.162H894.462V378.634C894.458 377.93 894.334 377.416 894.09 377.092C893.846 376.768 893.462 376.606 892.938 376.606C892.346 376.606 891.906 376.79 891.618 377.158C891.33 377.522 891.186 378.056 891.186 378.76C891.186 379.416 891.33 379.924 891.618 380.284C891.906 380.644 892.326 380.824 892.878 380.824C893.234 380.824 893.54 380.746 893.796 380.59C894.056 380.43 894.256 380.2 894.396 379.9L895.824 380.332C895.576 380.916 895.192 381.37 894.672 381.694C894.156 382.018 893.586 382.18 892.962 382.18ZM890.73 379.162V378.07H895.188V379.162H890.73ZM901.541 382V378.88C901.541 378.676 901.527 378.45 901.499 378.202C901.471 377.954 901.405 377.716 901.301 377.488C901.201 377.256 901.049 377.066 900.845 376.918C900.645 376.77 900.373 376.696 900.029 376.696C899.845 376.696 899.663 376.726 899.483 376.786C899.303 376.846 899.139 376.95 898.991 377.098C898.847 377.242 898.731 377.442 898.643 377.698C898.555 377.95 898.511 378.274 898.511 378.67L897.653 378.304C897.653 377.752 897.759 377.252 897.971 376.804C898.187 376.356 898.503 376 898.919 375.736C899.335 375.468 899.847 375.334 900.455 375.334C900.935 375.334 901.331 375.414 901.643 375.574C901.955 375.734 902.203 375.938 902.387 376.186C902.571 376.434 902.707 376.698 902.795 376.978C902.883 377.258 902.939 377.524 902.963 377.776C902.991 378.024 903.005 378.226 903.005 378.382V382H901.541ZM897.047 382V375.52H898.337V377.53H898.511V382H897.047ZM907.294 385.06C906.934 385.06 906.588 385.004 906.256 384.892C905.928 384.78 905.632 384.618 905.368 384.406C905.104 384.198 904.888 383.946 904.72 383.65L906.052 382.99C906.176 383.226 906.35 383.4 906.574 383.512C906.802 383.628 907.044 383.686 907.3 383.686C907.6 383.686 907.868 383.632 908.104 383.524C908.34 383.42 908.522 383.264 908.65 383.056C908.782 382.852 908.844 382.596 908.836 382.288V380.446H909.016V375.52H910.282V382.312C910.282 382.476 910.274 382.632 910.258 382.78C910.246 382.932 910.224 383.08 910.192 383.224C910.096 383.644 909.912 383.988 909.64 384.256C909.368 384.528 909.03 384.73 908.626 384.862C908.226 384.994 907.782 385.06 907.294 385.06ZM907.168 382.18C906.572 382.18 906.052 382.03 905.608 381.73C905.164 381.43 904.82 381.022 904.576 380.506C904.332 379.99 904.21 379.408 904.21 378.76C904.21 378.104 904.332 377.52 904.576 377.008C904.824 376.492 905.174 376.086 905.626 375.79C906.078 375.49 906.61 375.34 907.222 375.34C907.838 375.34 908.354 375.49 908.77 375.79C909.19 376.086 909.508 376.492 909.724 377.008C909.94 377.524 910.048 378.108 910.048 378.76C910.048 379.404 909.94 379.986 909.724 380.506C909.508 381.022 909.186 381.43 908.758 381.73C908.33 382.03 907.8 382.18 907.168 382.18ZM907.39 380.884C907.778 380.884 908.09 380.796 908.326 380.62C908.566 380.44 908.74 380.19 908.848 379.87C908.96 379.55 909.016 379.18 909.016 378.76C909.016 378.336 908.96 377.966 908.848 377.65C908.74 377.33 908.57 377.082 908.338 376.906C908.106 376.726 907.806 376.636 907.438 376.636C907.05 376.636 906.73 376.732 906.478 376.924C906.226 377.112 906.04 377.368 905.92 377.692C905.8 378.012 905.74 378.368 905.74 378.76C905.74 379.156 905.798 379.516 905.914 379.84C906.034 380.16 906.216 380.414 906.46 380.602C906.704 380.79 907.014 380.884 907.39 380.884ZM914.911 382.18C914.255 382.18 913.679 382.038 913.183 381.754C912.687 381.47 912.299 381.076 912.019 380.572C911.743 380.068 911.605 379.488 911.605 378.832C911.605 378.124 911.741 377.51 912.013 376.99C912.285 376.466 912.663 376.06 913.147 375.772C913.631 375.484 914.191 375.34 914.827 375.34C915.499 375.34 916.069 375.498 916.537 375.814C917.009 376.126 917.359 376.568 917.587 377.14C917.815 377.712 917.901 378.386 917.845 379.162H916.411V378.634C916.407 377.93 916.283 377.416 916.039 377.092C915.795 376.768 915.411 376.606 914.887 376.606C914.295 376.606 913.855 376.79 913.567 377.158C913.279 377.522 913.135 378.056 913.135 378.76C913.135 379.416 913.279 379.924 913.567 380.284C913.855 380.644 914.275 380.824 914.827 380.824C915.183 380.824 915.489 380.746 915.745 380.59C916.005 380.43 916.205 380.2 916.345 379.9L917.773 380.332C917.525 380.916 917.141 381.37 916.621 381.694C916.105 382.018 915.535 382.18 914.911 382.18ZM912.679 379.162V378.07H917.137V379.162H912.679ZM921.686 382.18C920.886 382.18 920.236 382 919.736 381.64C919.236 381.28 918.932 380.774 918.824 380.122L920.3 379.894C920.376 380.214 920.544 380.466 920.804 380.65C921.064 380.834 921.392 380.926 921.788 380.926C922.136 380.926 922.404 380.858 922.592 380.722C922.784 380.582 922.88 380.392 922.88 380.152C922.88 380.004 922.844 379.886 922.772 379.798C922.704 379.706 922.552 379.618 922.316 379.534C922.08 379.45 921.718 379.344 921.23 379.216C920.686 379.072 920.254 378.918 919.934 378.754C919.614 378.586 919.384 378.388 919.244 378.16C919.104 377.932 919.034 377.656 919.034 377.332C919.034 376.928 919.14 376.576 919.352 376.276C919.564 375.976 919.86 375.746 920.24 375.586C920.62 375.422 921.068 375.34 921.584 375.34C922.088 375.34 922.534 375.418 922.922 375.574C923.314 375.73 923.63 375.952 923.87 376.24C924.11 376.528 924.258 376.866 924.314 377.254L922.838 377.518C922.802 377.242 922.676 377.024 922.46 376.864C922.248 376.704 921.964 376.614 921.608 376.594C921.268 376.574 920.994 376.626 920.786 376.75C920.578 376.87 920.474 377.04 920.474 377.26C920.474 377.384 920.516 377.49 920.6 377.578C920.684 377.666 920.852 377.754 921.104 377.842C921.36 377.93 921.74 378.038 922.244 378.166C922.76 378.298 923.172 378.45 923.48 378.622C923.792 378.79 924.016 378.992 924.152 379.228C924.292 379.464 924.362 379.75 924.362 380.086C924.362 380.738 924.124 381.25 923.648 381.622C923.176 381.994 922.522 382.18 921.686 382.18Z" fill="#027DB8"/>
<rect x="808.5" y="487.5" width="99" height="99" rx="49.5" fill="#F9F9F9" stroke="#D6D6D6" stroke-dasharray="4 4"/>
<path d="M836.051 533.98V531.88L842.211 526.39C842.691 525.963 843.024 525.56 843.211 525.18C843.397 524.8 843.491 524.433 843.491 524.08C843.491 523.6 843.387 523.173 843.181 522.8C842.974 522.42 842.687 522.12 842.321 521.9C841.961 521.68 841.544 521.57 841.071 521.57C840.571 521.57 840.127 521.687 839.741 521.92C839.361 522.147 839.064 522.45 838.851 522.83C838.637 523.21 838.537 523.62 838.551 524.06H836.071C836.071 523.1 836.284 522.263 836.711 521.55C837.144 520.837 837.737 520.283 838.491 519.89C839.251 519.497 840.127 519.3 841.121 519.3C842.041 519.3 842.867 519.507 843.601 519.92C844.334 520.327 844.911 520.893 845.331 521.62C845.751 522.34 845.961 523.17 845.961 524.11C845.961 524.797 845.867 525.373 845.681 525.84C845.494 526.307 845.214 526.737 844.841 527.13C844.474 527.523 844.017 527.96 843.471 528.44L839.101 532.31L838.881 531.71H845.961V533.98H836.051ZM848.165 527.74V525.85H854.165V527.74H848.165ZM861.413 519.32C862.353 519.32 863.2 519.543 863.953 519.99C864.707 520.43 865.3 521.043 865.733 521.83C866.173 522.61 866.393 523.51 866.393 524.53V528.92C866.393 530.007 866.173 530.957 865.733 531.77C865.3 532.577 864.69 533.2 863.903 533.64C863.117 534.08 862.197 534.3 861.143 534.3C860.417 534.3 859.73 534.177 859.083 533.93C858.437 533.677 857.857 533.29 857.343 532.77L859.073 531.08C859.333 531.38 859.643 531.617 860.003 531.79C860.37 531.957 860.75 532.04 861.143 532.04C861.703 532.04 862.193 531.91 862.613 531.65C863.033 531.383 863.36 531.04 863.593 530.62C863.827 530.193 863.943 529.737 863.943 529.25V526.86L864.373 527.34C863.967 527.82 863.473 528.197 862.893 528.47C862.313 528.737 861.703 528.87 861.063 528.87C860.163 528.87 859.363 528.663 858.663 528.25C857.97 527.837 857.423 527.277 857.023 526.57C856.63 525.857 856.433 525.05 856.433 524.15C856.433 523.25 856.66 522.437 857.113 521.71C857.567 520.977 858.17 520.397 858.923 519.97C859.683 519.537 860.513 519.32 861.413 519.32ZM861.413 521.62C860.947 521.62 860.52 521.733 860.133 521.96C859.747 522.187 859.44 522.493 859.213 522.88C858.987 523.26 858.873 523.683 858.873 524.15C858.873 524.617 858.983 525.043 859.203 525.43C859.43 525.817 859.733 526.123 860.113 526.35C860.5 526.577 860.927 526.69 861.393 526.69C861.86 526.69 862.287 526.577 862.673 526.35C863.06 526.123 863.367 525.817 863.593 525.43C863.827 525.043 863.943 524.617 863.943 524.15C863.943 523.697 863.83 523.28 863.603 522.9C863.377 522.513 863.07 522.203 862.683 521.97C862.303 521.737 861.88 521.62 861.413 521.62ZM874.365 534.3C873.345 534.3 872.445 534.083 871.665 533.65C870.885 533.21 870.275 532.6 869.835 531.82C869.402 531.04 869.185 530.14 869.185 529.12V524.48C869.185 523.46 869.402 522.56 869.835 521.78C870.275 521 870.885 520.393 871.665 519.96C872.445 519.52 873.345 519.3 874.365 519.3C875.385 519.3 876.282 519.52 877.055 519.96C877.835 520.393 878.445 521 878.885 521.78C879.325 522.56 879.545 523.46 879.545 524.48V529.12C879.545 530.14 879.325 531.04 878.885 531.82C878.445 532.6 877.835 533.21 877.055 533.65C876.282 534.083 875.385 534.3 874.365 534.3ZM874.365 532.01C874.872 532.01 875.332 531.89 875.745 531.65C876.158 531.403 876.485 531.077 876.725 530.67C876.965 530.257 877.085 529.797 877.085 529.29V524.3C877.085 523.787 876.965 523.327 876.725 522.92C876.485 522.507 876.158 522.18 875.745 521.94C875.332 521.693 874.872 521.57 874.365 521.57C873.858 521.57 873.398 521.693 872.985 521.94C872.572 522.18 872.245 522.507 872.005 522.92C871.765 523.327 871.645 523.787 871.645 524.3V529.29C871.645 529.797 871.765 530.257 872.005 530.67C872.245 531.077 872.572 531.403 872.985 531.65C873.398 531.89 873.858 532.01 874.365 532.01ZM825.219 552V543.36H826.521L829.509 549.48L832.497 543.36H833.799V552H832.449V546.462L829.797 552H829.221L826.575 546.462V552H825.219ZM835.605 544.536V543.21H837.051V544.536H835.605ZM835.605 552V545.52H837.051V552H835.605ZM843.33 552V548.88C843.33 548.676 843.316 548.45 843.288 548.202C843.26 547.954 843.194 547.716 843.09 547.488C842.99 547.256 842.838 547.066 842.634 546.918C842.434 546.77 842.162 546.696 841.818 546.696C841.634 546.696 841.452 546.726 841.272 546.786C841.092 546.846 840.928 546.95 840.78 547.098C840.636 547.242 840.52 547.442 840.432 547.698C840.344 547.95 840.3 548.274 840.3 548.67L839.442 548.304C839.442 547.752 839.548 547.252 839.76 546.804C839.976 546.356 840.292 546 840.708 545.736C841.124 545.468 841.636 545.334 842.244 545.334C842.724 545.334 843.12 545.414 843.432 545.574C843.744 545.734 843.992 545.938 844.176 546.186C844.36 546.434 844.496 546.698 844.584 546.978C844.672 547.258 844.728 547.524 844.752 547.776C844.78 548.024 844.794 548.226 844.794 548.382V552H843.33ZM838.836 552V545.52H840.126V547.53H840.3V552H838.836ZM851.576 552.18C850.908 552.18 850.338 552.032 849.866 551.736C849.394 551.436 849.032 551.028 848.78 550.512C848.532 549.996 848.406 549.412 848.402 548.76C848.406 548.096 848.536 547.508 848.792 546.996C849.052 546.48 849.42 546.076 849.896 545.784C850.372 545.488 850.938 545.34 851.594 545.34C852.33 545.34 852.952 545.526 853.46 545.898C853.972 546.266 854.306 546.77 854.462 547.41L853.022 547.8C852.91 547.452 852.724 547.182 852.464 546.99C852.204 546.794 851.908 546.696 851.576 546.696C851.2 546.696 850.89 546.786 850.646 546.966C850.402 547.142 850.222 547.386 850.106 547.698C849.99 548.01 849.932 548.364 849.932 548.76C849.932 549.376 850.07 549.874 850.346 550.254C850.622 550.634 851.032 550.824 851.576 550.824C851.96 550.824 852.262 550.736 852.482 550.56C852.706 550.384 852.874 550.13 852.986 549.798L854.462 550.128C854.262 550.788 853.912 551.296 853.412 551.652C852.912 552.004 852.3 552.18 851.576 552.18ZM855.608 552V543.18H857.054V552H855.608ZM860.664 552.18C860.196 552.18 859.8 552.092 859.476 551.916C859.152 551.736 858.906 551.498 858.738 551.202C858.574 550.906 858.492 550.58 858.492 550.224C858.492 549.912 858.544 549.632 858.648 549.384C858.752 549.132 858.912 548.916 859.128 548.736C859.344 548.552 859.624 548.402 859.968 548.286C860.228 548.202 860.532 548.126 860.88 548.058C861.232 547.99 861.612 547.928 862.02 547.872C862.432 547.812 862.862 547.748 863.31 547.68L862.794 547.974C862.798 547.526 862.698 547.196 862.494 546.984C862.29 546.772 861.946 546.666 861.462 546.666C861.17 546.666 860.888 546.734 860.616 546.87C860.344 547.006 860.154 547.24 860.046 547.572L858.726 547.158C858.886 546.61 859.19 546.17 859.638 545.838C860.09 545.506 860.698 545.34 861.462 545.34C862.038 545.34 862.544 545.434 862.98 545.622C863.42 545.81 863.746 546.118 863.958 546.546C864.074 546.774 864.144 547.008 864.168 547.248C864.192 547.484 864.204 547.742 864.204 548.022V552H862.938V550.596L863.148 550.824C862.856 551.292 862.514 551.636 862.122 551.856C861.734 552.072 861.248 552.18 860.664 552.18ZM860.952 551.028C861.28 551.028 861.56 550.97 861.792 550.854C862.024 550.738 862.208 550.596 862.344 550.428C862.484 550.26 862.578 550.102 862.626 549.954C862.702 549.77 862.744 549.56 862.752 549.324C862.764 549.084 862.77 548.89 862.77 548.742L863.214 548.874C862.778 548.942 862.404 549.002 862.092 549.054C861.78 549.106 861.512 549.156 861.288 549.204C861.064 549.248 860.866 549.298 860.694 549.354C860.526 549.414 860.384 549.484 860.268 549.564C860.152 549.644 860.062 549.736 859.998 549.84C859.938 549.944 859.908 550.066 859.908 550.206C859.908 550.366 859.948 550.508 860.028 550.632C860.108 550.752 860.224 550.848 860.376 550.92C860.532 550.992 860.724 551.028 860.952 551.028ZM868.268 552.18C867.468 552.18 866.818 552 866.318 551.64C865.818 551.28 865.514 550.774 865.406 550.122L866.882 549.894C866.958 550.214 867.126 550.466 867.386 550.65C867.646 550.834 867.974 550.926 868.37 550.926C868.718 550.926 868.986 550.858 869.174 550.722C869.366 550.582 869.462 550.392 869.462 550.152C869.462 550.004 869.426 549.886 869.354 549.798C869.286 549.706 869.134 549.618 868.898 549.534C868.662 549.45 868.3 549.344 867.812 549.216C867.268 549.072 866.836 548.918 866.516 548.754C866.196 548.586 865.966 548.388 865.826 548.16C865.686 547.932 865.616 547.656 865.616 547.332C865.616 546.928 865.722 546.576 865.934 546.276C866.146 545.976 866.442 545.746 866.822 545.586C867.202 545.422 867.65 545.34 868.166 545.34C868.67 545.34 869.116 545.418 869.504 545.574C869.896 545.73 870.212 545.952 870.452 546.24C870.692 546.528 870.84 546.866 870.896 547.254L869.42 547.518C869.384 547.242 869.258 547.024 869.042 546.864C868.83 546.704 868.546 546.614 868.19 546.594C867.85 546.574 867.576 546.626 867.368 546.75C867.16 546.87 867.056 547.04 867.056 547.26C867.056 547.384 867.098 547.49 867.182 547.578C867.266 547.666 867.434 547.754 867.686 547.842C867.942 547.93 868.322 548.038 868.826 548.166C869.342 548.298 869.754 548.45 870.062 548.622C870.374 548.79 870.598 548.992 870.734 549.228C870.874 549.464 870.944 549.75 870.944 550.086C870.944 550.738 870.706 551.25 870.23 551.622C869.758 551.994 869.104 552.18 868.268 552.18ZM874.76 552.18C873.96 552.18 873.31 552 872.81 551.64C872.31 551.28 872.006 550.774 871.898 550.122L873.374 549.894C873.45 550.214 873.618 550.466 873.878 550.65C874.138 550.834 874.466 550.926 874.862 550.926C875.21 550.926 875.478 550.858 875.666 550.722C875.858 550.582 875.954 550.392 875.954 550.152C875.954 550.004 875.918 549.886 875.846 549.798C875.778 549.706 875.626 549.618 875.39 549.534C875.154 549.45 874.792 549.344 874.304 549.216C873.76 549.072 873.328 548.918 873.008 548.754C872.688 548.586 872.458 548.388 872.318 548.16C872.178 547.932 872.108 547.656 872.108 547.332C872.108 546.928 872.214 546.576 872.426 546.276C872.638 545.976 872.934 545.746 873.314 545.586C873.694 545.422 874.142 545.34 874.658 545.34C875.162 545.34 875.608 545.418 875.996 545.574C876.388 545.73 876.704 545.952 876.944 546.24C877.184 546.528 877.332 546.866 877.388 547.254L875.912 547.518C875.876 547.242 875.75 547.024 875.534 546.864C875.322 546.704 875.038 546.614 874.682 546.594C874.342 546.574 874.068 546.626 873.86 546.75C873.652 546.87 873.548 547.04 873.548 547.26C873.548 547.384 873.59 547.49 873.674 547.578C873.758 547.666 873.926 547.754 874.178 547.842C874.434 547.93 874.814 548.038 875.318 548.166C875.834 548.298 876.246 548.45 876.554 548.622C876.866 548.79 877.09 548.992 877.226 549.228C877.366 549.464 877.436 549.75 877.436 550.086C877.436 550.738 877.198 551.25 876.722 551.622C876.25 551.994 875.596 552.18 874.76 552.18ZM881.696 552.18C881.04 552.18 880.464 552.038 879.968 551.754C879.472 551.47 879.084 551.076 878.804 550.572C878.528 550.068 878.39 549.488 878.39 548.832C878.39 548.124 878.526 547.51 878.798 546.99C879.07 546.466 879.448 546.06 879.932 545.772C880.416 545.484 880.976 545.34 881.612 545.34C882.284 545.34 882.854 545.498 883.322 545.814C883.794 546.126 884.144 546.568 884.372 547.14C884.6 547.712 884.686 548.386 884.63 549.162H883.196V548.634C883.192 547.93 883.068 547.416 882.824 547.092C882.58 546.768 882.196 546.606 881.672 546.606C881.08 546.606 880.64 546.79 880.352 547.158C880.064 547.522 879.92 548.056 879.92 548.76C879.92 549.416 880.064 549.924 880.352 550.284C880.64 550.644 881.06 550.824 881.612 550.824C881.968 550.824 882.274 550.746 882.53 550.59C882.79 550.43 882.99 550.2 883.13 549.9L884.558 550.332C884.31 550.916 883.926 551.37 883.406 551.694C882.89 552.018 882.32 552.18 881.696 552.18ZM879.464 549.162V548.07H883.922V549.162H879.464ZM888.471 552.18C887.671 552.18 887.021 552 886.521 551.64C886.021 551.28 885.717 550.774 885.609 550.122L887.085 549.894C887.161 550.214 887.329 550.466 887.589 550.65C887.849 550.834 888.177 550.926 888.573 550.926C888.921 550.926 889.189 550.858 889.377 550.722C889.569 550.582 889.665 550.392 889.665 550.152C889.665 550.004 889.629 549.886 889.557 549.798C889.489 549.706 889.337 549.618 889.101 549.534C888.865 549.45 888.503 549.344 888.015 549.216C887.471 549.072 887.039 548.918 886.719 548.754C886.399 548.586 886.169 548.388 886.029 548.16C885.889 547.932 885.819 547.656 885.819 547.332C885.819 546.928 885.925 546.576 886.137 546.276C886.349 545.976 886.645 545.746 887.025 545.586C887.405 545.422 887.853 545.34 888.369 545.34C888.873 545.34 889.319 545.418 889.707 545.574C890.099 545.73 890.415 545.952 890.655 546.24C890.895 546.528 891.043 546.866 891.099 547.254L889.623 547.518C889.587 547.242 889.461 547.024 889.245 546.864C889.033 546.704 888.749 546.614 888.393 546.594C888.053 546.574 887.779 546.626 887.571 546.75C887.363 546.87 887.259 547.04 887.259 547.26C887.259 547.384 887.301 547.49 887.385 547.578C887.469 547.666 887.637 547.754 887.889 547.842C888.145 547.93 888.525 548.038 889.029 548.166C889.545 548.298 889.957 548.45 890.265 548.622C890.577 548.79 890.801 548.992 890.937 549.228C891.077 549.464 891.147 549.75 891.147 550.086C891.147 550.738 890.909 551.25 890.433 551.622C889.961 551.994 889.307 552.18 888.471 552.18Z" fill="#027DB8"/>
<path d="M17 733.5C17 733.5 82.5 599.015 82.5 527.5C82.5 455.985 40 438.765 40 367.25C40 295.735 82.5 278.015 82.5 206.5C82.5001 134.985 17.0001 0.999994 17.0001 0.999994" stroke="url(#paint1_linear_902_2350)" stroke-dasharray="4 4"/>
<rect x="34.5" y="147.5" width="99" height="99" rx="49.5" fill="#F9F9F9" stroke="#D6D6D6" stroke-dasharray="4 4"/>
<path d="M58.0563 194V182.23L55.3563 183.88V181.22L58.0563 179.6H60.5163V194H58.0563ZM69.5058 194.3C68.4858 194.3 67.5858 194.083 66.8058 193.65C66.0258 193.21 65.4158 192.6 64.9758 191.82C64.5424 191.04 64.3258 190.14 64.3258 189.12V184.48C64.3258 183.46 64.5424 182.56 64.9758 181.78C65.4158 181 66.0258 180.393 66.8058 179.96C67.5858 179.52 68.4858 179.3 69.5058 179.3C70.5258 179.3 71.4224 179.52 72.1958 179.96C72.9758 180.393 73.5858 181 74.0258 181.78C74.4658 182.56 74.6858 183.46 74.6858 184.48V189.12C74.6858 190.14 74.4658 191.04 74.0258 191.82C73.5858 192.6 72.9758 193.21 72.1958 193.65C71.4224 194.083 70.5258 194.3 69.5058 194.3ZM69.5058 192.01C70.0124 192.01 70.4724 191.89 70.8858 191.65C71.2991 191.403 71.6258 191.077 71.8658 190.67C72.1058 190.257 72.2258 189.797 72.2258 189.29V184.3C72.2258 183.787 72.1058 183.327 71.8658 182.92C71.6258 182.507 71.2991 182.18 70.8858 181.94C70.4724 181.693 70.0124 181.57 69.5058 181.57C68.9991 181.57 68.5391 181.693 68.1258 181.94C67.7124 182.18 67.3858 182.507 67.1458 182.92C66.9058 183.327 66.7858 183.787 66.7858 184.3V189.29C66.7858 189.797 66.9058 190.257 67.1458 190.67C67.3858 191.077 67.7124 191.403 68.1258 191.65C68.5391 191.89 68.9991 192.01 69.5058 192.01ZM82.6698 194.3C81.6498 194.3 80.7498 194.083 79.9698 193.65C79.1898 193.21 78.5798 192.6 78.1398 191.82C77.7065 191.04 77.4898 190.14 77.4898 189.12V184.48C77.4898 183.46 77.7065 182.56 78.1398 181.78C78.5798 181 79.1898 180.393 79.9698 179.96C80.7498 179.52 81.6498 179.3 82.6698 179.3C83.6898 179.3 84.5865 179.52 85.3598 179.96C86.1398 180.393 86.7498 181 87.1898 181.78C87.6298 182.56 87.8498 183.46 87.8498 184.48V189.12C87.8498 190.14 87.6298 191.04 87.1898 191.82C86.7498 192.6 86.1398 193.21 85.3598 193.65C84.5865 194.083 83.6898 194.3 82.6698 194.3ZM82.6698 192.01C83.1765 192.01 83.6365 191.89 84.0498 191.65C84.4632 191.403 84.7898 191.077 85.0298 190.67C85.2698 190.257 85.3898 189.797 85.3898 189.29V184.3C85.3898 183.787 85.2698 183.327 85.0298 182.92C84.7898 182.507 84.4632 182.18 84.0498 181.94C83.6365 181.693 83.1765 181.57 82.6698 181.57C82.1632 181.57 81.7032 181.693 81.2898 181.94C80.8765 182.18 80.5498 182.507 80.3098 182.92C80.0698 183.327 79.9498 183.787 79.9498 184.3V189.29C79.9498 189.797 80.0698 190.257 80.3098 190.67C80.5498 191.077 80.8765 191.403 81.2898 191.65C81.7032 191.89 82.1632 192.01 82.6698 192.01ZM95.8339 194.3C94.8139 194.3 93.9139 194.083 93.1339 193.65C92.3539 193.21 91.7439 192.6 91.3039 191.82C90.8706 191.04 90.6539 190.14 90.6539 189.12V184.48C90.6539 183.46 90.8706 182.56 91.3039 181.78C91.7439 181 92.3539 180.393 93.1339 179.96C93.9139 179.52 94.8139 179.3 95.8339 179.3C96.8539 179.3 97.7506 179.52 98.5239 179.96C99.3039 180.393 99.9139 181 100.354 181.78C100.794 182.56 101.014 183.46 101.014 184.48V189.12C101.014 190.14 100.794 191.04 100.354 191.82C99.9139 192.6 99.3039 193.21 98.5239 193.65C97.7506 194.083 96.8539 194.3 95.8339 194.3ZM95.8339 192.01C96.3406 192.01 96.8006 191.89 97.2139 191.65C97.6272 191.403 97.9539 191.077 98.1939 190.67C98.4339 190.257 98.5539 189.797 98.5539 189.29V184.3C98.5539 183.787 98.4339 183.327 98.1939 182.92C97.9539 182.507 97.6272 182.18 97.2139 181.94C96.8006 181.693 96.3406 181.57 95.8339 181.57C95.3272 181.57 94.8672 181.693 94.4539 181.94C94.0406 182.18 93.7139 182.507 93.4739 182.92C93.2339 183.327 93.1139 183.787 93.1139 184.3V189.29C93.1139 189.797 93.2339 190.257 93.4739 190.67C93.7139 191.077 94.0406 191.403 94.4539 191.65C94.8672 191.89 95.3272 192.01 95.8339 192.01ZM107.198 191.32V187.74H103.618V185.85H107.198V182.28H109.088V185.85H112.648V187.74H109.088V191.32H107.198ZM65.578 212.18C64.714 212.18 63.974 211.992 63.358 211.616C62.742 211.236 62.268 210.708 61.936 210.032C61.608 209.356 61.444 208.572 61.444 207.68C61.444 206.788 61.608 206.004 61.936 205.328C62.268 204.652 62.742 204.126 63.358 203.75C63.974 203.37 64.714 203.18 65.578 203.18C66.574 203.18 67.404 203.43 68.068 203.93C68.732 204.426 69.198 205.096 69.466 205.94L68.008 206.342C67.84 205.778 67.554 205.338 67.15 205.022C66.746 204.702 66.222 204.542 65.578 204.542C64.998 204.542 64.514 204.672 64.126 204.932C63.742 205.192 63.452 205.558 63.256 206.03C63.064 206.498 62.966 207.048 62.962 207.68C62.962 208.312 63.058 208.864 63.25 209.336C63.446 209.804 63.738 210.168 64.126 210.428C64.514 210.688 64.998 210.818 65.578 210.818C66.222 210.818 66.746 210.658 67.15 210.338C67.554 210.018 67.84 209.578 68.008 209.018L69.466 209.42C69.198 210.264 68.732 210.936 68.068 211.436C67.404 211.932 66.574 212.18 65.578 212.18ZM70.9034 212V203.18H72.3494V212H70.9034ZM75.9586 212.18C75.4906 212.18 75.0946 212.092 74.7706 211.916C74.4466 211.736 74.2006 211.498 74.0326 211.202C73.8686 210.906 73.7866 210.58 73.7866 210.224C73.7866 209.912 73.8386 209.632 73.9426 209.384C74.0466 209.132 74.2066 208.916 74.4226 208.736C74.6386 208.552 74.9186 208.402 75.2626 208.286C75.5226 208.202 75.8266 208.126 76.1746 208.058C76.5266 207.99 76.9066 207.928 77.3146 207.872C77.7266 207.812 78.1566 207.748 78.6046 207.68L78.0886 207.974C78.0926 207.526 77.9926 207.196 77.7886 206.984C77.5846 206.772 77.2406 206.666 76.7566 206.666C76.4646 206.666 76.1826 206.734 75.9106 206.87C75.6386 207.006 75.4486 207.24 75.3406 207.572L74.0206 207.158C74.1806 206.61 74.4846 206.17 74.9326 205.838C75.3846 205.506 75.9926 205.34 76.7566 205.34C77.3326 205.34 77.8386 205.434 78.2746 205.622C78.7146 205.81 79.0406 206.118 79.2526 206.546C79.3686 206.774 79.4386 207.008 79.4626 207.248C79.4866 207.484 79.4986 207.742 79.4986 208.022V212H78.2326V210.596L78.4426 210.824C78.1506 211.292 77.8086 211.636 77.4166 211.856C77.0286 212.072 76.5426 212.18 75.9586 212.18ZM76.2466 211.028C76.5746 211.028 76.8546 210.97 77.0866 210.854C77.3186 210.738 77.5026 210.596 77.6386 210.428C77.7786 210.26 77.8726 210.102 77.9206 209.954C77.9966 209.77 78.0386 209.56 78.0466 209.324C78.0586 209.084 78.0646 208.89 78.0646 208.742L78.5086 208.874C78.0726 208.942 77.6986 209.002 77.3866 209.054C77.0746 209.106 76.8066 209.156 76.5826 209.204C76.3586 209.248 76.1606 209.298 75.9886 209.354C75.8206 209.414 75.6786 209.484 75.5626 209.564C75.4466 209.644 75.3566 209.736 75.2926 209.84C75.2326 209.944 75.2026 210.066 75.2026 210.206C75.2026 210.366 75.2426 210.508 75.3226 210.632C75.4026 210.752 75.5186 210.848 75.6706 210.92C75.8266 210.992 76.0186 211.028 76.2466 211.028ZM83.5627 212.18C82.7627 212.18 82.1127 212 81.6127 211.64C81.1127 211.28 80.8087 210.774 80.7007 210.122L82.1767 209.894C82.2527 210.214 82.4207 210.466 82.6807 210.65C82.9407 210.834 83.2687 210.926 83.6647 210.926C84.0127 210.926 84.2807 210.858 84.4687 210.722C84.6607 210.582 84.7567 210.392 84.7567 210.152C84.7567 210.004 84.7207 209.886 84.6487 209.798C84.5807 209.706 84.4287 209.618 84.1927 209.534C83.9567 209.45 83.5947 209.344 83.1067 209.216C82.5627 209.072 82.1307 208.918 81.8107 208.754C81.4907 208.586 81.2607 208.388 81.1207 208.16C80.9807 207.932 80.9107 207.656 80.9107 207.332C80.9107 206.928 81.0167 206.576 81.2287 206.276C81.4407 205.976 81.7367 205.746 82.1167 205.586C82.4967 205.422 82.9447 205.34 83.4607 205.34C83.9647 205.34 84.4107 205.418 84.7987 205.574C85.1907 205.73 85.5067 205.952 85.7467 206.24C85.9867 206.528 86.1347 206.866 86.1907 207.254L84.7147 207.518C84.6787 207.242 84.5527 207.024 84.3367 206.864C84.1247 206.704 83.8407 206.614 83.4847 206.594C83.1447 206.574 82.8707 206.626 82.6627 206.75C82.4547 206.87 82.3507 207.04 82.3507 207.26C82.3507 207.384 82.3927 207.49 82.4767 207.578C82.5607 207.666 82.7287 207.754 82.9807 207.842C83.2367 207.93 83.6167 208.038 84.1207 208.166C84.6367 208.298 85.0487 208.45 85.3567 208.622C85.6687 208.79 85.8927 208.992 86.0287 209.228C86.1687 209.464 86.2387 209.75 86.2387 210.086C86.2387 210.738 86.0007 211.25 85.5247 211.622C85.0527 211.994 84.3987 212.18 83.5627 212.18ZM90.0549 212.18C89.2549 212.18 88.6049 212 88.1049 211.64C87.6049 211.28 87.3009 210.774 87.1929 210.122L88.6689 209.894C88.7449 210.214 88.9129 210.466 89.1729 210.65C89.4329 210.834 89.7609 210.926 90.1569 210.926C90.5049 210.926 90.7729 210.858 90.9609 210.722C91.1529 210.582 91.2489 210.392 91.2489 210.152C91.2489 210.004 91.2129 209.886 91.1409 209.798C91.0729 209.706 90.9209 209.618 90.6849 209.534C90.4489 209.45 90.0869 209.344 89.5989 209.216C89.0549 209.072 88.6229 208.918 88.3029 208.754C87.9829 208.586 87.7529 208.388 87.6129 208.16C87.4729 207.932 87.4029 207.656 87.4029 207.332C87.4029 206.928 87.5089 206.576 87.7209 206.276C87.9329 205.976 88.2289 205.746 88.6089 205.586C88.9889 205.422 89.4369 205.34 89.9529 205.34C90.4569 205.34 90.9029 205.418 91.2909 205.574C91.6829 205.73 91.9989 205.952 92.2389 206.24C92.4789 206.528 92.6269 206.866 92.6829 207.254L91.2069 207.518C91.1709 207.242 91.0449 207.024 90.8289 206.864C90.6169 206.704 90.3329 206.614 89.9769 206.594C89.6369 206.574 89.3629 206.626 89.1549 206.75C88.9469 206.87 88.8429 207.04 88.8429 207.26C88.8429 207.384 88.8849 207.49 88.9689 207.578C89.0529 207.666 89.2209 207.754 89.4729 207.842C89.7289 207.93 90.1089 208.038 90.6129 208.166C91.1289 208.298 91.5409 208.45 91.8489 208.622C92.1609 208.79 92.3849 208.992 92.5209 209.228C92.6609 209.464 92.7309 209.75 92.7309 210.086C92.7309 210.738 92.4929 211.25 92.0169 211.622C91.5449 211.994 90.8909 212.18 90.0549 212.18ZM96.9911 212.18C96.3351 212.18 95.7591 212.038 95.2631 211.754C94.7671 211.47 94.3791 211.076 94.0991 210.572C93.8231 210.068 93.6851 209.488 93.6851 208.832C93.6851 208.124 93.8211 207.51 94.0931 206.99C94.3651 206.466 94.7431 206.06 95.2271 205.772C95.7111 205.484 96.2711 205.34 96.9071 205.34C97.5791 205.34 98.1491 205.498 98.6171 205.814C99.0891 206.126 99.4391 206.568 99.6671 207.14C99.8951 207.712 99.9811 208.386 99.9251 209.162H98.4911V208.634C98.4871 207.93 98.3631 207.416 98.1191 207.092C97.8751 206.768 97.4911 206.606 96.9671 206.606C96.3751 206.606 95.9351 206.79 95.6471 207.158C95.3591 207.522 95.2151 208.056 95.2151 208.76C95.2151 209.416 95.3591 209.924 95.6471 210.284C95.9351 210.644 96.3551 210.824 96.9071 210.824C97.2631 210.824 97.5691 210.746 97.8251 210.59C98.0851 210.43 98.2851 210.2 98.4251 209.9L99.8531 210.332C99.6051 210.916 99.2211 211.37 98.7011 211.694C98.1851 212.018 97.6151 212.18 96.9911 212.18ZM94.7591 209.162V208.07H99.2171V209.162H94.7591ZM103.766 212.18C102.966 212.18 102.316 212 101.816 211.64C101.316 211.28 101.012 210.774 100.904 210.122L102.38 209.894C102.456 210.214 102.624 210.466 102.884 210.65C103.144 210.834 103.472 210.926 103.868 210.926C104.216 210.926 104.484 210.858 104.672 210.722C104.864 210.582 104.96 210.392 104.96 210.152C104.96 210.004 104.924 209.886 104.852 209.798C104.784 209.706 104.632 209.618 104.396 209.534C104.16 209.45 103.798 209.344 103.31 209.216C102.766 209.072 102.334 208.918 102.014 208.754C101.694 208.586 101.464 208.388 101.324 208.16C101.184 207.932 101.114 207.656 101.114 207.332C101.114 206.928 101.22 206.576 101.432 206.276C101.644 205.976 101.94 205.746 102.32 205.586C102.7 205.422 103.148 205.34 103.664 205.34C104.168 205.34 104.614 205.418 105.002 205.574C105.394 205.73 105.71 205.952 105.95 206.24C106.19 206.528 106.338 206.866 106.394 207.254L104.918 207.518C104.882 207.242 104.756 207.024 104.54 206.864C104.328 206.704 104.044 206.614 103.688 206.594C103.348 206.574 103.074 206.626 102.866 206.75C102.658 206.87 102.554 207.04 102.554 207.26C102.554 207.384 102.596 207.49 102.68 207.578C102.764 207.666 102.932 207.754 103.184 207.842C103.44 207.93 103.82 208.038 104.324 208.166C104.84 208.298 105.252 208.45 105.56 208.622C105.872 208.79 106.096 208.992 106.232 209.228C106.372 209.464 106.442 209.75 106.442 210.086C106.442 210.738 106.204 211.25 105.728 211.622C105.256 211.994 104.602 212.18 103.766 212.18Z" fill="#027DB8"/>
<rect x="0.5" y="317.5" width="99" height="99" rx="49.5" fill="#F9F9F9" stroke="#D6D6D6" stroke-dasharray="4 4"/>
<path d="M32.748 363.98V361.88L38.908 356.39C39.388 355.963 39.7214 355.56 39.908 355.18C40.0947 354.8 40.188 354.433 40.188 354.08C40.188 353.6 40.0847 353.173 39.878 352.8C39.6714 352.42 39.3847 352.12 39.018 351.9C38.658 351.68 38.2414 351.57 37.768 351.57C37.268 351.57 36.8247 351.687 36.438 351.92C36.058 352.147 35.7614 352.45 35.548 352.83C35.3347 353.21 35.2347 353.62 35.248 354.06H32.768C32.768 353.1 32.9814 352.263 33.408 351.55C33.8414 350.837 34.4347 350.283 35.188 349.89C35.948 349.497 36.8247 349.3 37.818 349.3C38.738 349.3 39.5647 349.507 40.298 349.92C41.0314 350.327 41.608 350.893 42.028 351.62C42.448 352.34 42.658 353.17 42.658 354.11C42.658 354.797 42.5647 355.373 42.378 355.84C42.1914 356.307 41.9114 356.737 41.538 357.13C41.1714 357.523 40.7147 357.96 40.168 358.44L35.798 362.31L35.578 361.71H42.658V363.98H32.748ZM50.2421 364.3C49.2221 364.3 48.3221 364.083 47.5421 363.65C46.7621 363.21 46.1521 362.6 45.7121 361.82C45.2788 361.04 45.0621 360.14 45.0621 359.12V354.48C45.0621 353.46 45.2788 352.56 45.7121 351.78C46.1521 351 46.7621 350.393 47.5421 349.96C48.3221 349.52 49.2221 349.3 50.2421 349.3C51.2621 349.3 52.1588 349.52 52.9321 349.96C53.7121 350.393 54.3221 351 54.7621 351.78C55.2021 352.56 55.4221 353.46 55.4221 354.48V359.12C55.4221 360.14 55.2021 361.04 54.7621 361.82C54.3221 362.6 53.7121 363.21 52.9321 363.65C52.1588 364.083 51.2621 364.3 50.2421 364.3ZM50.2421 362.01C50.7488 362.01 51.2088 361.89 51.6221 361.65C52.0354 361.403 52.3621 361.077 52.6021 360.67C52.8421 360.257 52.9621 359.797 52.9621 359.29V354.3C52.9621 353.787 52.8421 353.327 52.6021 352.92C52.3621 352.507 52.0354 352.18 51.6221 351.94C51.2088 351.693 50.7488 351.57 50.2421 351.57C49.7354 351.57 49.2754 351.693 48.8621 351.94C48.4488 352.18 48.1221 352.507 47.8821 352.92C47.6421 353.327 47.5221 353.787 47.5221 354.3V359.29C47.5221 359.797 47.6421 360.257 47.8821 360.67C48.1221 361.077 48.4488 361.403 48.8621 361.65C49.2754 361.89 49.7354 362.01 50.2421 362.01ZM61.6062 361.32V357.74H58.0262V355.85H61.6062V352.28H63.4962V355.85H67.0562V357.74H63.4962V361.32H61.6062ZM22.8439 382V373.36H26.4139C26.4979 373.36 26.6059 373.364 26.7379 373.372C26.8699 373.376 26.9919 373.388 27.1039 373.408C27.6039 373.484 28.0159 373.65 28.3399 373.906C28.6679 374.162 28.9099 374.486 29.0659 374.878C29.2259 375.266 29.3059 375.698 29.3059 376.174C29.3059 376.646 29.2259 377.078 29.0659 377.47C28.9059 377.858 28.6619 378.18 28.3339 378.436C28.0099 378.692 27.5999 378.858 27.1039 378.934C26.9919 378.95 26.8679 378.962 26.7319 378.97C26.5999 378.978 26.4939 378.982 26.4139 378.982H24.2899V382H22.8439ZM24.2899 377.632H26.3539C26.4339 377.632 26.5239 377.628 26.6239 377.62C26.7239 377.612 26.8159 377.596 26.8999 377.572C27.1399 377.512 27.3279 377.406 27.4639 377.254C27.6039 377.102 27.7019 376.93 27.7579 376.738C27.8179 376.546 27.8479 376.358 27.8479 376.174C27.8479 375.99 27.8179 375.802 27.7579 375.61C27.7019 375.414 27.6039 375.24 27.4639 375.088C27.3279 374.936 27.1399 374.83 26.8999 374.77C26.8159 374.746 26.7239 374.732 26.6239 374.728C26.5239 374.72 26.4339 374.716 26.3539 374.716H24.2899V377.632ZM30.508 382V375.52H31.786V377.098L31.63 376.894C31.71 376.678 31.816 376.482 31.948 376.306C32.084 376.126 32.246 375.978 32.434 375.862C32.594 375.754 32.77 375.67 32.962 375.61C33.158 375.546 33.358 375.508 33.562 375.496C33.766 375.48 33.964 375.488 34.156 375.52V376.87C33.964 376.814 33.742 376.796 33.49 376.816C33.242 376.836 33.018 376.906 32.818 377.026C32.618 377.134 32.454 377.272 32.326 377.44C32.202 377.608 32.11 377.8 32.05 378.016C31.99 378.228 31.96 378.458 31.96 378.706V382H30.508ZM38.0458 382.18C37.3978 382.18 36.8318 382.034 36.3478 381.742C35.8638 381.45 35.4878 381.048 35.2198 380.536C34.9558 380.02 34.8238 379.428 34.8238 378.76C34.8238 378.08 34.9598 377.484 35.2318 376.972C35.5038 376.46 35.8818 376.06 36.3658 375.772C36.8498 375.484 37.4098 375.34 38.0458 375.34C38.6978 375.34 39.2658 375.486 39.7498 375.778C40.2338 376.07 40.6098 376.474 40.8778 376.99C41.1458 377.502 41.2798 378.092 41.2798 378.76C41.2798 379.432 41.1438 380.026 40.8718 380.542C40.6038 381.054 40.2278 381.456 39.7438 381.748C39.2598 382.036 38.6938 382.18 38.0458 382.18ZM38.0458 380.824C38.6218 380.824 39.0498 380.632 39.3298 380.248C39.6098 379.864 39.7498 379.368 39.7498 378.76C39.7498 378.132 39.6078 377.632 39.3238 377.26C39.0398 376.884 38.6138 376.696 38.0458 376.696C37.6578 376.696 37.3378 376.784 37.0858 376.96C36.8378 377.132 36.6538 377.374 36.5338 377.686C36.4138 377.994 36.3538 378.352 36.3538 378.76C36.3538 379.388 36.4958 379.89 36.7798 380.266C37.0678 380.638 37.4898 380.824 38.0458 380.824ZM45.3257 385.06C44.9657 385.06 44.6197 385.004 44.2877 384.892C43.9597 384.78 43.6637 384.618 43.3997 384.406C43.1357 384.198 42.9197 383.946 42.7517 383.65L44.0837 382.99C44.2077 383.226 44.3817 383.4 44.6057 383.512C44.8337 383.628 45.0757 383.686 45.3317 383.686C45.6317 383.686 45.8997 383.632 46.1357 383.524C46.3717 383.42 46.5537 383.264 46.6817 383.056C46.8137 382.852 46.8757 382.596 46.8677 382.288V380.446H47.0477V375.52H48.3137V382.312C48.3137 382.476 48.3057 382.632 48.2897 382.78C48.2777 382.932 48.2557 383.08 48.2237 383.224C48.1277 383.644 47.9437 383.988 47.6717 384.256C47.3997 384.528 47.0617 384.73 46.6577 384.862C46.2577 384.994 45.8137 385.06 45.3257 385.06ZM45.1997 382.18C44.6037 382.18 44.0837 382.03 43.6397 381.73C43.1957 381.43 42.8517 381.022 42.6077 380.506C42.3637 379.99 42.2417 379.408 42.2417 378.76C42.2417 378.104 42.3637 377.52 42.6077 377.008C42.8557 376.492 43.2057 376.086 43.6577 375.79C44.1097 375.49 44.6417 375.34 45.2537 375.34C45.8697 375.34 46.3857 375.49 46.8017 375.79C47.2217 376.086 47.5397 376.492 47.7557 377.008C47.9717 377.524 48.0797 378.108 48.0797 378.76C48.0797 379.404 47.9717 379.986 47.7557 380.506C47.5397 381.022 47.2177 381.43 46.7897 381.73C46.3617 382.03 45.8317 382.18 45.1997 382.18ZM45.4217 380.884C45.8097 380.884 46.1217 380.796 46.3577 380.62C46.5977 380.44 46.7717 380.19 46.8797 379.87C46.9917 379.55 47.0477 379.18 47.0477 378.76C47.0477 378.336 46.9917 377.966 46.8797 377.65C46.7717 377.33 46.6017 377.082 46.3697 376.906C46.1377 376.726 45.8377 376.636 45.4697 376.636C45.0817 376.636 44.7617 376.732 44.5097 376.924C44.2577 377.112 44.0717 377.368 43.9517 377.692C43.8317 378.012 43.7717 378.368 43.7717 378.76C43.7717 379.156 43.8297 379.516 43.9457 379.84C44.0657 380.16 44.2477 380.414 44.4917 380.602C44.7357 380.79 45.0457 380.884 45.4217 380.884ZM49.9963 382V375.52H51.2743V377.098L51.1183 376.894C51.1983 376.678 51.3043 376.482 51.4363 376.306C51.5723 376.126 51.7343 375.978 51.9223 375.862C52.0823 375.754 52.2583 375.67 52.4503 375.61C52.6463 375.546 52.8463 375.508 53.0503 375.496C53.2543 375.48 53.4523 375.488 53.6443 375.52V376.87C53.4523 376.814 53.2303 376.796 52.9783 376.816C52.7303 376.836 52.5063 376.906 52.3063 377.026C52.1063 377.134 51.9423 377.272 51.8143 377.44C51.6903 377.608 51.5983 377.8 51.5383 378.016C51.4783 378.228 51.4483 378.458 51.4483 378.706V382H49.9963ZM56.4489 382.18C55.9809 382.18 55.5849 382.092 55.2609 381.916C54.9369 381.736 54.6909 381.498 54.5229 381.202C54.3589 380.906 54.2769 380.58 54.2769 380.224C54.2769 379.912 54.3289 379.632 54.4329 379.384C54.5369 379.132 54.6969 378.916 54.9129 378.736C55.1289 378.552 55.4089 378.402 55.7529 378.286C56.0129 378.202 56.3169 378.126 56.6649 378.058C57.0169 377.99 57.3969 377.928 57.8049 377.872C58.2169 377.812 58.6469 377.748 59.0949 377.68L58.5789 377.974C58.5829 377.526 58.4829 377.196 58.2789 376.984C58.0749 376.772 57.7309 376.666 57.2469 376.666C56.9549 376.666 56.6729 376.734 56.4009 376.87C56.1289 377.006 55.9389 377.24 55.8309 377.572L54.5109 377.158C54.6709 376.61 54.9749 376.17 55.4229 375.838C55.8749 375.506 56.4829 375.34 57.2469 375.34C57.8229 375.34 58.3289 375.434 58.7649 375.622C59.2049 375.81 59.5309 376.118 59.7429 376.546C59.8589 376.774 59.9289 377.008 59.9529 377.248C59.9769 377.484 59.9889 377.742 59.9889 378.022V382H58.7229V380.596L58.9329 380.824C58.6409 381.292 58.2989 381.636 57.9069 381.856C57.5189 382.072 57.0329 382.18 56.4489 382.18ZM56.7369 381.028C57.0649 381.028 57.3449 380.97 57.5769 380.854C57.8089 380.738 57.9929 380.596 58.1289 380.428C58.2689 380.26 58.3629 380.102 58.4109 379.954C58.4869 379.77 58.5289 379.56 58.5369 379.324C58.5489 379.084 58.5549 378.89 58.5549 378.742L58.9989 378.874C58.5629 378.942 58.1889 379.002 57.8769 379.054C57.5649 379.106 57.2969 379.156 57.0729 379.204C56.8489 379.248 56.6509 379.298 56.4789 379.354C56.3109 379.414 56.1689 379.484 56.0529 379.564C55.9369 379.644 55.8469 379.736 55.7829 379.84C55.7229 379.944 55.6929 380.066 55.6929 380.206C55.6929 380.366 55.7329 380.508 55.8129 380.632C55.8929 380.752 56.0089 380.848 56.1609 380.92C56.3169 380.992 56.5089 381.028 56.7369 381.028ZM69.3329 382V378.064C69.3329 377.62 69.2229 377.274 69.0029 377.026C68.7829 376.774 68.4849 376.648 68.1089 376.648C67.8769 376.648 67.6689 376.702 67.4849 376.81C67.3009 376.914 67.1549 377.07 67.0469 377.278C66.9389 377.482 66.8849 377.726 66.8849 378.01L66.2429 377.632C66.2389 377.184 66.3389 376.79 66.5429 376.45C66.7509 376.106 67.0309 375.838 67.3829 375.646C67.7349 375.454 68.1269 375.358 68.5589 375.358C69.2749 375.358 69.8229 375.574 70.2029 376.006C70.5869 376.434 70.7789 376.998 70.7789 377.698V382H69.3329ZM61.5389 382V375.52H62.8169V377.53H62.9969V382H61.5389ZM65.4449 382V378.082C65.4449 377.63 65.3349 377.278 65.1149 377.026C64.8949 376.774 64.5949 376.648 64.2149 376.648C63.8469 376.648 63.5509 376.774 63.3269 377.026C63.1069 377.278 62.9969 377.606 62.9969 378.01L62.3489 377.578C62.3489 377.158 62.4529 376.78 62.6609 376.444C62.8689 376.108 63.1489 375.844 63.5009 375.652C63.8569 375.456 64.2549 375.358 64.6949 375.358C65.1789 375.358 65.5829 375.462 65.9069 375.67C66.2349 375.874 66.4789 376.154 66.6389 376.51C66.8029 376.862 66.8849 377.26 66.8849 377.704V382H65.4449ZM74.8459 382.18C74.0459 382.18 73.3959 382 72.8959 381.64C72.3959 381.28 72.0919 380.774 71.9839 380.122L73.4599 379.894C73.5359 380.214 73.7039 380.466 73.9639 380.65C74.2239 380.834 74.5519 380.926 74.9479 380.926C75.2959 380.926 75.5639 380.858 75.7519 380.722C75.9439 380.582 76.0399 380.392 76.0399 380.152C76.0399 380.004 76.0039 379.886 75.9319 379.798C75.8639 379.706 75.7119 379.618 75.4759 379.534C75.2399 379.45 74.8779 379.344 74.3899 379.216C73.8459 379.072 73.4139 378.918 73.0939 378.754C72.7739 378.586 72.5439 378.388 72.4039 378.16C72.2639 377.932 72.1939 377.656 72.1939 377.332C72.1939 376.928 72.2999 376.576 72.5119 376.276C72.7239 375.976 73.0199 375.746 73.3999 375.586C73.7799 375.422 74.2279 375.34 74.7439 375.34C75.2479 375.34 75.6939 375.418 76.0819 375.574C76.4739 375.73 76.7899 375.952 77.0299 376.24C77.2699 376.528 77.4179 376.866 77.4739 377.254L75.9979 377.518C75.9619 377.242 75.8359 377.024 75.6199 376.864C75.4079 376.704 75.1239 376.614 74.7679 376.594C74.4279 376.574 74.1539 376.626 73.9459 376.75C73.7379 376.87 73.6339 377.04 73.6339 377.26C73.6339 377.384 73.6759 377.49 73.7599 377.578C73.8439 377.666 74.0119 377.754 74.2639 377.842C74.5199 377.93 74.8999 378.038 75.4039 378.166C75.9199 378.298 76.3319 378.45 76.6399 378.622C76.9519 378.79 77.1759 378.992 77.3119 379.228C77.4519 379.464 77.5219 379.75 77.5219 380.086C77.5219 380.738 77.2839 381.25 76.8079 381.622C76.3359 381.994 75.6819 382.18 74.8459 382.18Z" fill="#027DB8"/>
<rect x="34.5" y="487.5" width="99" height="99" rx="49.5" fill="#F9F9F9" stroke="#D6D6D6" stroke-dasharray="4 4"/>
<path d="M72.0441 519.32C72.9841 519.32 73.8308 519.543 74.5841 519.99C75.3375 520.43 75.9308 521.043 76.3641 521.83C76.8041 522.61 77.0241 523.51 77.0241 524.53V528.92C77.0241 530.007 76.8041 530.957 76.3641 531.77C75.9308 532.577 75.3208 533.2 74.5341 533.64C73.7475 534.08 72.8275 534.3 71.7741 534.3C71.0475 534.3 70.3608 534.177 69.7141 533.93C69.0675 533.677 68.4875 533.29 67.9741 532.77L69.7041 531.08C69.9641 531.38 70.2741 531.617 70.6341 531.79C71.0008 531.957 71.3808 532.04 71.7741 532.04C72.3341 532.04 72.8241 531.91 73.2441 531.65C73.6641 531.383 73.9908 531.04 74.2241 530.62C74.4575 530.193 74.5741 529.737 74.5741 529.25V526.86L75.0041 527.34C74.5975 527.82 74.1041 528.197 73.5241 528.47C72.9441 528.737 72.3341 528.87 71.6941 528.87C70.7941 528.87 69.9941 528.663 69.2941 528.25C68.6008 527.837 68.0541 527.277 67.6541 526.57C67.2608 525.857 67.0641 525.05 67.0641 524.15C67.0641 523.25 67.2908 522.437 67.7441 521.71C68.1975 520.977 68.8008 520.397 69.5541 519.97C70.3141 519.537 71.1441 519.32 72.0441 519.32ZM72.0441 521.62C71.5775 521.62 71.1508 521.733 70.7641 521.96C70.3775 522.187 70.0708 522.493 69.8441 522.88C69.6175 523.26 69.5041 523.683 69.5041 524.15C69.5041 524.617 69.6141 525.043 69.8341 525.43C70.0608 525.817 70.3641 526.123 70.7441 526.35C71.1308 526.577 71.5575 526.69 72.0241 526.69C72.4908 526.69 72.9175 526.577 73.3041 526.35C73.6908 526.123 73.9975 525.817 74.2241 525.43C74.4575 525.043 74.5741 524.617 74.5741 524.15C74.5741 523.697 74.4608 523.28 74.2341 522.9C74.0075 522.513 73.7008 522.203 73.3141 521.97C72.9341 521.737 72.5108 521.62 72.0441 521.62ZM84.996 534.3C83.976 534.3 83.076 534.083 82.296 533.65C81.516 533.21 80.906 532.6 80.466 531.82C80.0327 531.04 79.816 530.14 79.816 529.12V524.48C79.816 523.46 80.0327 522.56 80.466 521.78C80.906 521 81.516 520.393 82.296 519.96C83.076 519.52 83.976 519.3 84.996 519.3C86.016 519.3 86.9127 519.52 87.686 519.96C88.466 520.393 89.076 521 89.516 521.78C89.956 522.56 90.176 523.46 90.176 524.48V529.12C90.176 530.14 89.956 531.04 89.516 531.82C89.076 532.6 88.466 533.21 87.686 533.65C86.9127 534.083 86.016 534.3 84.996 534.3ZM84.996 532.01C85.5027 532.01 85.9627 531.89 86.376 531.65C86.7893 531.403 87.116 531.077 87.356 530.67C87.596 530.257 87.716 529.797 87.716 529.29V524.3C87.716 523.787 87.596 523.327 87.356 522.92C87.116 522.507 86.7893 522.18 86.376 521.94C85.9627 521.693 85.5027 521.57 84.996 521.57C84.4893 521.57 84.0293 521.693 83.616 521.94C83.2027 522.18 82.876 522.507 82.636 522.92C82.396 523.327 82.276 523.787 82.276 524.3V529.29C82.276 529.797 82.396 530.257 82.636 530.67C82.876 531.077 83.2027 531.403 83.616 531.65C84.0293 531.89 84.4893 532.01 84.996 532.01ZM96.3601 531.32V527.74H92.7801V525.85H96.3601V522.28H98.2501V525.85H101.81V527.74H98.2501V531.32H96.3601ZM68.5134 552.18C67.9534 552.18 67.4274 552.082 66.9354 551.886C66.4474 551.686 66.0174 551.394 65.6454 551.01C65.2774 550.626 64.9894 550.156 64.7814 549.6C64.5734 549.04 64.4694 548.4 64.4694 547.68C64.4694 546.736 64.6454 545.93 64.9974 545.262C65.3494 544.59 65.8314 544.076 66.4434 543.72C67.0554 543.36 67.7454 543.18 68.5134 543.18C69.5774 543.18 70.4194 543.428 71.0394 543.924C71.6634 544.416 72.0854 545.108 72.3054 546L70.8294 546.234C70.6654 545.722 70.3974 545.314 70.0254 545.01C69.6534 544.702 69.1794 544.548 68.6034 544.548C68.0234 544.54 67.5414 544.666 67.1574 544.926C66.7734 545.186 66.4834 545.552 66.2874 546.024C66.0954 546.496 65.9994 547.048 65.9994 547.68C65.9994 548.312 66.0954 548.862 66.2874 549.33C66.4794 549.794 66.7674 550.156 67.1514 550.416C67.5394 550.676 68.0234 550.81 68.6034 550.818C69.0394 550.822 69.4214 550.744 69.7494 550.584C70.0774 550.42 70.3454 550.174 70.5534 549.846C70.7614 549.514 70.9014 549.1 70.9734 548.604H69.4494V547.47H72.5094C72.5174 547.534 72.5234 547.628 72.5274 547.752C72.5314 547.876 72.5334 547.95 72.5334 547.974C72.5334 548.79 72.3714 549.516 72.0474 550.152C71.7274 550.784 71.2674 551.28 70.6674 551.64C70.0674 552 69.3494 552.18 68.5134 552.18ZM76.1684 552.186C75.6884 552.186 75.2924 552.106 74.9804 551.946C74.6684 551.786 74.4204 551.582 74.2364 551.334C74.0524 551.086 73.9164 550.822 73.8284 550.542C73.7404 550.262 73.6824 549.998 73.6544 549.75C73.6304 549.498 73.6184 549.294 73.6184 549.138V545.52H75.0824V548.64C75.0824 548.84 75.0964 549.066 75.1244 549.318C75.1524 549.566 75.2164 549.806 75.3164 550.038C75.4204 550.266 75.5724 550.454 75.7724 550.602C75.9764 550.75 76.2504 550.824 76.5944 550.824C76.7784 550.824 76.9604 550.794 77.1404 550.734C77.3204 550.674 77.4824 550.572 77.6264 550.428C77.7744 550.28 77.8924 550.078 77.9804 549.822C78.0684 549.566 78.1124 549.242 78.1124 548.85L78.9704 549.216C78.9704 549.768 78.8624 550.268 78.6464 550.716C78.4344 551.164 78.1204 551.522 77.7044 551.79C77.2884 552.054 76.7764 552.186 76.1684 552.186ZM78.2864 552V549.99H78.1124V545.52H79.5644V552H78.2864ZM81.3702 544.536V543.21H82.8162V544.536H81.3702ZM81.3702 552V545.52H82.8162V552H81.3702ZM87.2114 552.18C86.6154 552.18 86.0954 552.03 85.6514 551.73C85.2074 551.43 84.8634 551.022 84.6194 550.506C84.3754 549.99 84.2534 549.408 84.2534 548.76C84.2534 548.104 84.3754 547.52 84.6194 547.008C84.8674 546.492 85.2174 546.086 85.6694 545.79C86.1214 545.49 86.6534 545.34 87.2654 545.34C87.8814 545.34 88.3974 545.49 88.8134 545.79C89.2334 546.086 89.5514 546.492 89.7674 547.008C89.9834 547.524 90.0914 548.108 90.0914 548.76C90.0914 549.404 89.9834 549.986 89.7674 550.506C89.5514 551.022 89.2294 551.43 88.8014 551.73C88.3734 552.03 87.8434 552.18 87.2114 552.18ZM87.4334 550.884C87.8214 550.884 88.1334 550.796 88.3694 550.62C88.6094 550.44 88.7834 550.19 88.8914 549.87C89.0034 549.55 89.0594 549.18 89.0594 548.76C89.0594 548.336 89.0034 547.966 88.8914 547.65C88.7834 547.33 88.6134 547.082 88.3814 546.906C88.1494 546.726 87.8494 546.636 87.4814 546.636C87.0934 546.636 86.7734 546.732 86.5214 546.924C86.2694 547.112 86.0834 547.368 85.9634 547.692C85.8434 548.012 85.7834 548.368 85.7834 548.76C85.7834 549.156 85.8414 549.516 85.9574 549.84C86.0774 550.16 86.2594 550.414 86.5034 550.602C86.7474 550.79 87.0574 550.884 87.4334 550.884ZM89.0594 552V547.452H88.8794V543.36H90.3374V552H89.0594ZM94.9657 552.18C94.3097 552.18 93.7337 552.038 93.2377 551.754C92.7417 551.47 92.3537 551.076 92.0737 550.572C91.7977 550.068 91.6597 549.488 91.6597 548.832C91.6597 548.124 91.7957 547.51 92.0677 546.99C92.3397 546.466 92.7177 546.06 93.2017 545.772C93.6857 545.484 94.2457 545.34 94.8817 545.34C95.5537 545.34 96.1237 545.498 96.5917 545.814C97.0637 546.126 97.4137 546.568 97.6417 547.14C97.8697 547.712 97.9557 548.386 97.8997 549.162H96.4657V548.634C96.4617 547.93 96.3377 547.416 96.0937 547.092C95.8497 546.768 95.4657 546.606 94.9417 546.606C94.3497 546.606 93.9097 546.79 93.6217 547.158C93.3337 547.522 93.1897 548.056 93.1897 548.76C93.1897 549.416 93.3337 549.924 93.6217 550.284C93.9097 550.644 94.3297 550.824 94.8817 550.824C95.2377 550.824 95.5437 550.746 95.7997 550.59C96.0597 550.43 96.2597 550.2 96.3997 549.9L97.8277 550.332C97.5797 550.916 97.1957 551.37 96.6757 551.694C96.1597 552.018 95.5897 552.18 94.9657 552.18ZM92.7337 549.162V548.07H97.1917V549.162H92.7337ZM101.74 552.18C100.94 552.18 100.29 552 99.7904 551.64C99.2904 551.28 98.9864 550.774 98.8784 550.122L100.354 549.894C100.43 550.214 100.598 550.466 100.858 550.65C101.118 550.834 101.446 550.926 101.842 550.926C102.19 550.926 102.458 550.858 102.646 550.722C102.838 550.582 102.934 550.392 102.934 550.152C102.934 550.004 102.898 549.886 102.826 549.798C102.758 549.706 102.606 549.618 102.37 549.534C102.134 549.45 101.772 549.344 101.284 549.216C100.74 549.072 100.308 548.918 99.9884 548.754C99.6684 548.586 99.4384 548.388 99.2984 548.16C99.1584 547.932 99.0884 547.656 99.0884 547.332C99.0884 546.928 99.1944 546.576 99.4064 546.276C99.6184 545.976 99.9144 545.746 100.294 545.586C100.674 545.422 101.122 545.34 101.638 545.34C102.142 545.34 102.588 545.418 102.976 545.574C103.368 545.73 103.684 545.952 103.924 546.24C104.164 546.528 104.312 546.866 104.368 547.254L102.892 547.518C102.856 547.242 102.73 547.024 102.514 546.864C102.302 546.704 102.018 546.614 101.662 546.594C101.322 546.574 101.048 546.626 100.84 546.75C100.632 546.87 100.528 547.04 100.528 547.26C100.528 547.384 100.57 547.49 100.654 547.578C100.738 547.666 100.906 547.754 101.158 547.842C101.414 547.93 101.794 548.038 102.298 548.166C102.814 548.298 103.226 548.45 103.534 548.622C103.846 548.79 104.07 548.992 104.206 549.228C104.346 549.464 104.416 549.75 104.416 550.086C104.416 550.738 104.178 551.25 103.702 551.622C103.23 551.994 102.576 552.18 101.74 552.18Z" fill="#027DB8"/>
<defs>
<linearGradient id="paint0_linear_902_2350" x1="890.5" y1="734" x2="890.75" y2="1.00001" gradientUnits="userSpaceOnUse">
<stop stop-color="#E0E0E0" stop-opacity="0"/>
<stop offset="0.208046" stop-color="#E0E0E0"/>
<stop offset="0.798947" stop-color="#E0E0E0"/>
<stop offset="1" stop-color="#E0E0E0" stop-opacity="0"/>
</linearGradient>
<linearGradient id="paint1_linear_902_2350" x1="50" y1="734" x2="49.7501" y2="1.00001" gradientUnits="userSpaceOnUse">
<stop stop-color="#E0E0E0" stop-opacity="0"/>
<stop offset="0.208046" stop-color="#E0E0E0"/>
<stop offset="0.798947" stop-color="#E0E0E0"/>
<stop offset="1" stop-color="#E0E0E0" stop-opacity="0"/>
</linearGradient>
</defs>
</svg>
