<svg width="18" height="19" viewBox="0 0 18 19" fill="none" xmlns="http://www.w3.org/2000/svg">
<path d="M17.2266 1.69141C18 2.46484 18 3.69531 17.2266 4.46875L16.1719 5.52344L12.7266 2.07812L13.7812 1.02344C14.5547 0.25 15.7852 0.25 16.5586 1.02344L17.2266 1.69141ZM6.04688 8.75781L11.918 2.88672L15.3633 6.33203L9.49219 12.2031C9.28125 12.4141 9 12.5898 8.71875 12.6953L5.58984 13.7148C5.27344 13.8203 4.95703 13.75 4.74609 13.5039C4.5 13.293 4.42969 12.9414 4.53516 12.6602L5.55469 9.53125C5.66016 9.25 5.83594 8.96875 6.04688 8.75781ZM6.75 2.5C7.34766 2.5 7.875 3.02734 7.875 3.625C7.875 4.25781 7.34766 4.75 6.75 4.75H3.375C2.74219 4.75 2.25 5.27734 2.25 5.875V14.875C2.25 15.5078 2.74219 16 3.375 16H12.375C12.9727 16 13.5 15.5078 13.5 14.875V11.5C13.5 10.9023 13.9922 10.375 14.625 10.375C15.2227 10.375 15.75 10.9023 15.75 11.5V14.875C15.75 16.7383 14.2383 18.25 12.375 18.25H3.375C1.47656 18.25 0 16.7383 0 14.875V5.875C0 4.01172 1.47656 2.5 3.375 2.5H6.75Z" fill="#555555"/>
</svg>
