<svg width="40" height="40" viewBox="0 0 40 40" fill="none" xmlns="http://www.w3.org/2000/svg">
<g clip-path="url(#clip0_1925_30594)">
<path d="M34.9676 18.2241L34.9571 18.2403C33.7862 19.4103 33.4733 21.098 32.4136 22.1233V20.3846C32.4136 19.6419 31.8426 19.0024 31.1007 18.9677C30.3096 18.9306 29.6547 19.562 29.6547 20.3451V22.9701C28.7083 22.82 30.1924 22.7123 21.3789 23.7935V18.9661L34.1934 15.8516C34.4015 16.2814 34.0975 17.2741 34.3531 17.6927C34.436 17.8298 34.8349 18.1312 34.9676 18.2241Z" fill="#B3CEC9"/>
<path d="M34.1048 18.0893C33.5311 19.0678 33.1606 20.1105 32.4136 20.8332V20.3679C32.4136 19.6252 31.8426 18.9857 31.1007 18.951C30.3096 18.9139 29.6547 19.5453 29.6547 20.3284V21.68C29.4208 21.6429 29.17 21.5728 28.9652 21.5728L24.8897 22.0728C23.0241 22.3016 21.3789 20.846 21.3789 18.9663C21.3789 18.9557 32.8335 16.1823 32.8204 16.1855C33.5275 16.0136 34.21 16.5307 34.2477 17.2573C34.2555 17.4083 34.3135 17.7333 34.1048 18.0893Z" fill="#CAE0DD"/>
<path d="M38.914 12.804C38.3471 13.8355 37.2285 14.5371 35.9406 14.5371C34.8528 16.5851 35.1939 15.8474 34.418 17.771C34.0511 17.4177 33.7471 17.0024 33.5237 16.5419C33.1021 15.6722 33.1035 14.9949 33.1035 14.3484C33.4028 14.1987 33.6606 13.9261 33.7842 13.5758C34.1975 12.4034 34.2525 12.356 34.2301 11.9524C35.7156 10.7573 37.9829 11.1587 38.914 12.804Z" fill="#6D6D6D"/>
<path d="M39.3107 14.2789C39.3107 17.5284 39.3438 17.4949 39.2139 17.8595C38.9736 18.5353 38.3131 19.02 37.5373 19.02C36.3905 19.02 35.2819 18.5974 34.418 17.7716C35.1938 15.8483 34.8527 16.5856 35.9405 14.5378C37.2267 14.5378 38.353 13.8328 38.9139 12.8047C39.162 13.228 39.3107 13.7394 39.3107 14.2789Z" fill="#F9CFAC"/>
<path d="M39.3092 14.279C39.3092 17.5285 39.3423 17.4951 39.2124 17.8597C38.7436 18.3908 38.2004 18.5874 37.5229 18.3038C36.2398 17.7668 35.6737 16.256 36.2373 14.9844L36.4519 14.5C37.456 14.3508 38.314 13.7718 38.8197 12.9621C38.864 12.9347 38.9084 12.9056 38.9511 12.875C39.1802 13.2944 39.3092 13.7718 39.3092 14.279Z" fill="#FFE4CC"/>
<path d="M34.2345 12.0703C34.2345 12.376 34.1511 12.5341 33.9062 13.23C33.7631 13.6366 33.6693 14.0295 33.1635 14.3187C32.0516 14.9674 30.6831 13.8949 31.1119 12.6816C31.2053 12.417 31.1334 12.6195 31.4853 11.6211C31.7388 10.9016 32.5425 10.5187 33.282 10.7671C33.8676 10.9632 34.2345 11.5003 34.2345 12.0703Z" fill="#6D6D6D"/>
<path d="M21.3788 18.9647V23.7921L6.20703 25.172V22.4131C17.2828 18.153 14.3775 19.3313 16.0836 18.4599C16.7578 18.1147 17.6103 17.7695 18.3232 17.7695C19.3124 17.7695 20.6438 18.4113 21.3788 18.9647Z" fill="#5FC68F"/>
<path d="M21.3797 18.9647C21.3797 20.9669 19.8551 22.6565 17.841 22.8395L7.68564 23.7626C6.89209 23.8347 6.20789 23.2099 6.20789 22.4131C6.20789 22.405 5.93346 22.5186 15.1732 18.9647C15.1732 18.9647 15.4103 18.8042 16.0845 18.4599C16.7587 18.1147 17.6111 17.7695 18.324 17.7695C19.3132 17.7695 20.6447 18.4113 21.3797 18.9647Z" fill="#7ADBAE"/>
<path d="M6.20726 22.4141V25.1729L2.75887 25.8625L2.19194 28.6977C2.11306 29.092 1.69734 29.3171 1.32234 29.1719C0.54871 28.8722 0 28.1208 0 27.2414V24.8995C0 24.2535 0.449194 23.6938 1.07984 23.5535L6.20726 22.4141Z" fill="#F9CFAC"/>
<path d="M6.20726 22.4141C6.20726 23.2031 5.65032 23.8827 4.87637 24.0374L2.75887 24.4608L2.43435 26.0838C2.14613 27.5251 0 27.3441 0 25.8398V24.8995C0 24.2535 0.449194 23.6938 1.07984 23.5535L6.20726 22.4141Z" fill="#FFE4CC"/>
<path d="M38.6216 29.3113H32.4151C30.8914 29.3113 29.6562 28.0762 29.6562 26.5525V20.3452C29.6562 19.8541 29.9135 19.4226 30.3014 19.1783C31.2226 18.5965 32.4151 19.2719 32.4151 20.3847V26.5525C35.5467 26.5525 36.0539 26.6722 36.8919 26.103C37.4866 25.6991 38.3006 25.9096 38.6224 26.5525C38.6273 26.5624 39.1531 26.5121 39.5982 26.9557C40.4612 27.8216 39.8475 29.3113 38.6216 29.3113Z" fill="#F9CFAC"/>
<path d="M40.0008 27.917C39.7887 28.0509 39.5363 28.1283 39.2669 28.1283H33.0597C31.5359 28.1283 30.3008 26.8931 30.3008 25.3694V19.1783C31.222 18.5965 32.4145 19.2719 32.4145 20.3847V26.5525C35.546 26.5525 36.0533 26.6722 36.8913 26.103C37.4859 25.6991 38.3 25.9096 38.6217 26.5525C38.6267 26.5624 39.1525 26.5121 39.5976 26.9557C39.8435 27.2025 39.9967 27.542 40.0008 27.917Z" fill="#FFE4CC"/>
<path d="M38.6257 12.3912C37.0601 13.4209 33.9984 13.4929 32.1113 12.8793C31.5862 12.7085 31.3022 12.1421 31.4854 11.6211C31.9792 10.2167 34.103 10.4755 34.2297 11.9558C35.5775 10.8716 37.5642 11.0977 38.6257 12.3912Z" fill="#797A7A"/>
</g>
<defs>
<clipPath id="clip0_1925_30594">
<rect width="40" height="40" fill="white"/>
</clipPath>
</defs>
</svg>
