<svg width="20" height="20" viewBox="0 0 20 20" fill="none" xmlns="http://www.w3.org/2000/svg">
<path d="M3.94989 16.5867H9.27673C9.62189 16.5867 9.90173 16.3069 9.90173 15.9617C9.90173 15.6166 9.62189 15.3367 9.27673 15.3367H3.94989C3.15033 15.3367 2.5 14.6891 2.5 13.8929V7.24622H14.7217V8.29358C14.7217 8.63873 15.0015 8.91858 15.3467 8.91858C15.6918 8.91858 15.9717 8.63873 15.9717 8.29358V5.58057C15.9717 4.09192 14.7604 2.88068 13.2718 2.88068H12.6025V2.49219C12.6025 2.14703 12.3227 1.86719 11.9775 1.86719C11.6324 1.86719 11.3525 2.14703 11.3525 2.49219V2.88068H5.86761V2.49219C5.86761 2.14703 5.58777 1.86719 5.24261 1.86719C4.89746 1.86719 4.61761 2.14703 4.61761 2.49219V2.88068H3.94989C3.01926 2.88068 2.19707 3.35408 1.71146 4.07265C1.42025 4.5033 1.25 5.02209 1.25 5.57996V13.8929C1.25 15.3782 2.46124 16.5867 3.94989 16.5867ZM14.7202 5.99622H2.5V5.58057C2.5 5.38079 2.54059 5.19036 2.61398 5.01706C2.83405 4.4978 3.34896 4.13251 3.94745 4.13251H4.61761V4.52283C4.61761 4.86798 4.89746 5.14783 5.24261 5.14783C5.58777 5.14783 5.86761 4.86798 5.86761 4.52283V4.13251H11.3525V4.52283C11.3525 4.86798 11.6324 5.14783 11.9775 5.14783C12.3227 5.14783 12.6025 4.86798 12.6025 4.52283V4.13251H13.273C14.071 4.13251 14.7202 4.78192 14.7202 5.57996V5.99622Z" fill="#272727"/>
<path d="M14.4105 9.45312C12.0167 9.45312 10.0693 11.4005 10.0693 13.7943C10.0693 16.188 12.0167 18.1357 14.4105 18.1357C16.8043 18.1357 18.7519 16.188 18.7519 13.7943C18.7519 11.4005 16.8043 9.45312 14.4105 9.45312ZM11.3193 13.7943C11.3193 12.0898 12.7061 10.7031 14.4105 10.7031C16.1152 10.7031 17.5019 12.0898 17.5019 13.7943C17.5019 15.499 16.1152 16.8857 14.4105 16.8857C12.7061 16.8857 11.3193 15.499 11.3193 13.7943Z" fill="#272727"/>
<path d="M15.8301 12.3706C15.586 12.1265 15.1905 12.1265 14.9464 12.3706L14.4085 12.9085L13.8706 12.3706C13.6265 12.1265 13.231 12.1265 12.9868 12.3706C12.7427 12.6147 12.7427 13.0103 12.9868 13.2544L13.5247 13.7923L12.9868 14.3301C12.7427 14.5743 12.7427 14.9698 12.9868 15.2139C13.1089 15.336 13.2688 15.397 13.4287 15.397C13.5886 15.397 13.7485 15.336 13.8706 15.2139L14.4085 14.6761L14.9464 15.2139C15.0684 15.336 15.2283 15.397 15.3882 15.397C15.5482 15.397 15.7081 15.336 15.8301 15.2139C16.0743 14.9698 16.0743 14.5743 15.8301 14.3301L15.2923 13.7923L15.8301 13.2544C16.0743 13.0103 16.0743 12.6147 15.8301 12.3706Z" fill="#272727"/>
</svg>
