<svg width="40" height="40" viewBox="0 0 40 40" fill="none" xmlns="http://www.w3.org/2000/svg">
<path d="M32.0728 34.0026C32.0728 34.3693 31.7728 34.6693 31.4062 34.6693H3.99284C3.62617 34.6693 3.32617 34.3693 3.32617 34.0026C3.32617 33.6359 3.62617 33.3359 3.99284 33.3359H31.4062C31.7728 33.3359 32.0728 33.6359 32.0728 34.0026Z" fill="#027DB8"/>
<path d="M30.7075 26.6574V28.7974C30.7075 30.3307 29.4608 31.5774 27.9275 31.5774H7.4675C5.93417 31.5774 4.6875 30.3307 4.6875 28.7974V14.9441C4.6875 13.4107 5.93417 12.1641 7.4675 12.1641H22.0875V23.1174C22.0875 25.0707 23.6742 26.6574 25.6208 26.6574H30.7075Z" fill="#027DB8"/>
<path d="M34.4484 5.32031H25.615C24.4017 5.32031 23.415 6.30698 23.415 7.52698V23.1203C23.415 24.3336 24.4017 25.327 25.615 25.327H34.4484C35.6617 25.327 36.6484 24.3336 36.6484 23.1203V7.52698C36.6484 6.30031 35.6617 5.32031 34.4484 5.32031ZM32.1417 23.127H27.9284C27.5617 23.127 27.2617 22.827 27.2617 22.4603C27.2617 22.0936 27.5617 21.7936 27.9284 21.7936H32.1417C32.5084 21.7936 32.8084 22.0936 32.8084 22.4603C32.8084 22.827 32.5084 23.127 32.1417 23.127Z" fill="#027DB8"/>
</svg>
