<svg width="225" height="32" viewBox="0 0 225 32" fill="none" xmlns="http://www.w3.org/2000/svg">
<path d="M223.301 0H17.1332V2.90909C17.1332 3.81356 16.3732 4.54545 15.434 4.54545C14.4948 4.54545 13.7348 3.81356 13.7348 2.90909V0H1.69922C0.760004 0 0 0.731891 0 1.63636V9.45455C0 10.359 0.760004 11.0909 1.69922 11.0909C4.51018 11.0909 6.79688 13.293 6.79688 16C6.79688 18.707 4.51018 20.9091 1.69922 20.9091C0.760004 20.9091 0 21.641 0 22.5455V30.3636C0 31.2681 0.760004 32 1.69922 32H13.5938V29.0909C13.5938 28.1864 14.3538 27.4545 15.293 27.4545C16.2322 27.4545 16.9922 28.1864 16.9922 29.0909V32H223.301C224.24 32 225 31.2681 225 30.3636V1.63636C225 0.731891 224.24 0 223.301 0ZM16.9922 22.5455C16.9922 23.4499 16.2322 24.1818 15.293 24.1818C14.3538 24.1818 13.5938 23.4499 13.5938 22.5455V19.2727C13.5938 18.3683 14.3538 17.6364 15.293 17.6364C16.2322 17.6364 16.9922 18.3683 16.9922 19.2727V22.5455ZM16.9922 12.7273C16.9922 13.6317 16.2322 14.3636 15.293 14.3636C14.3538 14.3636 13.5938 13.6317 13.5938 12.7273V9.45455C13.5938 8.55007 14.3538 7.81818 15.293 7.81818C16.2322 7.81818 16.9922 8.55007 16.9922 9.45455V12.7273Z" fill="#F3A83C"/>
</svg>
