<svg width="40" height="40" viewBox="0 0 40 40" fill="none" xmlns="http://www.w3.org/2000/svg">
<g clip-path="url(#clip0_1925_30637)">
<path d="M37.9271 25.2332C37.9271 27.0622 36.1198 27.8913 33.7827 29.3235C33.7827 29.3235 29.6375 35.5405 20.3125 35.5405V28.3421C23.2229 26.6799 28.0686 23.1895 29.6375 20.0525C30.1899 18.9479 30.7092 17.6335 31.1335 16.4945C31.4583 15.6223 31.1118 16.2369 32.902 13.5469H35.4827C35.4827 18.2608 35.4684 17.9155 35.5085 17.9356C36.5692 21.5451 37.9271 22.7275 37.9271 25.2332Z" fill="#B3CEC9"/>
<path d="M37.9036 24.6775C37.1512 25.3598 36.0343 25.9614 34.7593 26.7429C34.7593 26.7429 32.3955 30.2872 27.2238 32.0235C24.3068 33.0026 21.2891 30.8259 21.2891 27.7493C24.0357 26.022 28.0085 23.0923 29.535 20.2501C30.1433 19.1166 30.9299 17.0728 31.3665 15.8541L32.902 13.5469H35.4826C35.4826 18.2608 35.4684 17.9155 35.5084 17.9356C36.4931 21.2864 37.7214 22.5308 37.9036 24.6775Z" fill="#CAE0DD"/>
<path d="M33.7832 18.5337C33.7784 20.0143 32.7542 21.1934 31.5356 21.1934H28.9453C29.8921 19.861 30.7573 17.5575 31.3671 15.8555H31.5848C32.8472 15.8555 33.7885 17.111 33.7832 18.5337Z" fill="#B3CEC9"/>
<path d="M20.3136 28.2879V35.5412C11.4991 35.5412 6.15711 33.2267 2.53533 30.2387C2.08452 29.8661 1.26791 29.1554 0.905487 28.6968C-0.541855 26.8574 -0.236451 24.1184 1.695 22.65L12.4321 14.4911L13.1636 8.09596C14.145 7.11595 15.8175 7.56136 16.1797 8.89596L17.2434 14.0613C17.4386 14.7782 17.2334 15.5473 16.7055 16.0734C14.0134 18.7561 6.483 26.2939 6.32001 26.4557C7.7434 27.2807 9.31437 27.8984 10.9894 28.1379C10.9894 28.1379 11.345 27.8968 12.3579 27.3791C13.3708 26.8605 14.6515 26.3428 15.7225 26.3428C17.2183 26.3428 19.115 27.3845 20.3136 28.2879Z" fill="#F9CFAC"/>
<path d="M19.3176 27.6147V34.5446C12.5595 34.5446 5.94372 33.2195 0.905487 28.697C-0.541855 26.8575 -0.236451 24.1186 1.695 22.6502L12.4321 14.4913L13.1636 8.09612C13.7144 7.54612 14.4829 7.44451 15.116 7.69854C15.193 7.89104 15.1013 7.50289 16.2466 13.0647C16.4418 13.7824 16.2376 14.5507 15.7087 15.0776C13.9143 16.8653 15.7991 14.9832 5.32324 25.4591C5.74905 25.7058 6.18695 25.9341 6.63776 26.1381C6.53211 26.2437 6.42647 26.3502 6.32001 26.4558C7.7434 27.2808 9.31438 27.8986 10.9894 28.1381C10.9894 28.1381 11.345 27.897 12.3579 27.3792C13.3708 26.8607 14.6515 26.3429 15.7225 26.3429C16.9725 26.3429 18.387 27.0486 19.3176 27.6147Z" fill="#FFE4CC"/>
<path d="M20.3137 28.2905V35.5437C11.4991 35.5437 6.1572 33.2292 2.53541 30.2413C1.39654 29.2999 0.778233 28.7113 0.380571 27.8364C-0.417011 26.0848 0.0474252 23.9052 1.69509 22.6526L5.19187 19.9961C9.37551 23.9578 9.00043 23.5907 9.07978 23.6993C8.14139 24.6377 8.26341 24.5147 6.3201 26.4582C7.74349 27.2832 9.31446 27.9009 10.9895 28.1405C10.9895 28.1405 11.3451 27.8993 12.358 27.3816C13.3709 26.863 14.6516 26.3453 15.7225 26.3453C17.217 26.3453 19.1139 27.3862 20.3137 28.2905Z" fill="#5FC68F"/>
<path d="M18.7096 29.3681C18.7096 31.7585 16.643 33.6398 14.252 33.3935C9.11051 32.8637 4.26703 31.3029 0.380571 27.8364C-0.417011 26.0848 0.0474252 23.9052 1.69509 22.6526L5.19187 19.9961C7.59913 22.2756 6.93099 21.643 8.15397 22.8009C7.72575 23.1824 7.17655 23.5743 6.63462 23.9703C5.91228 24.4974 5.63937 25.5506 6.3201 26.4582C7.74349 27.2832 9.31446 27.9009 10.9895 28.1405C10.9895 28.1405 11.3451 27.8993 12.358 27.3816C13.3591 26.8691 14.7185 26.3063 15.8482 26.3476C17.4542 26.4064 18.7096 27.761 18.7096 29.3681Z" fill="#7ADBAE"/>
<path d="M39.4048 7.63864C38.5532 9.18703 36.8734 10.2419 34.9379 10.2419C33.3033 13.3185 33.8155 12.2106 32.6508 15.1008C32.0992 14.5701 31.6419 13.9459 31.3064 13.254C30.6856 11.9702 30.6758 10.9835 30.6758 9.958C31.0317 9.78453 31.3877 9.45373 31.5984 9.02977C31.6734 8.88284 31.6422 8.95485 32.2588 7.20558C32.3497 6.94791 32.3918 6.67332 32.3685 6.3588C34.633 4.53864 38.0222 5.20211 39.4048 7.63864Z" fill="#6D6D6D"/>
<path d="M40.0004 9.85124V14.3843C40.0004 15.815 38.8077 16.9746 37.3367 16.9746C35.6064 16.9746 33.9314 16.3295 32.6504 15.0988C33.8066 12.2323 33.2457 13.4242 34.9375 10.2399C36.873 10.2399 38.5528 9.18511 39.4044 7.63672C39.7843 8.29075 40.0004 9.04721 40.0004 9.85124Z" fill="#F9CFAC"/>
<path d="M40.0004 9.85124V13.198C40.0004 14.6295 38.8076 15.7883 37.3366 15.7883C35.8007 15.7883 34.2505 15.2758 33.002 14.2271C33.7242 12.4342 33.3028 13.3167 34.9374 10.2399C36.8729 10.2399 38.5528 9.18511 39.4044 7.63672C39.7842 8.29075 40.0004 9.04721 40.0004 9.85124Z" fill="#FFE4CC"/>
<path d="M32.3742 6.52938C32.3742 6.99229 32.2773 7.14309 31.6968 8.79552C31.5413 9.2381 31.2326 9.65471 30.7762 9.91641C29.1093 10.8888 27.0386 9.27673 27.6831 7.44713L28.2443 5.85438C28.6258 4.77293 29.8331 4.19793 30.9427 4.57051C31.8323 4.86938 32.3742 5.68349 32.3742 6.52938Z" fill="#6D6D6D"/>
<path d="M33.783 18.0611C33.7781 19.2805 32.7539 20.2514 31.5354 20.2514H16.4353C15.2007 20.2514 13.9974 20.5555 12.9257 21.1224C11.8281 21.7031 10.4692 21.3224 9.84178 20.2514C8.43661 20.2514 7.37306 18.9389 7.70306 17.545C7.93726 16.5605 8.81847 15.8555 9.84178 15.8555H31.5846C32.8091 15.8555 33.7884 16.8538 33.783 18.0611Z" fill="#F9CFAC"/>
<path d="M33.7225 17.541C33.487 18.5168 32.583 19.2345 31.5354 19.2345H16.4354C15.2007 19.2345 13.9975 19.5385 12.9257 20.1055C11.8281 20.6861 10.4693 20.3055 9.84184 19.2345C8.81934 19.2345 7.93708 18.5284 7.70312 17.545C7.93732 16.5605 8.81853 15.8555 9.84184 15.8555H31.5846C32.6081 15.8555 33.4887 16.5601 33.7225 17.541Z" fill="#FFE4CC"/>
<path d="M38.6809 6.69149C38.1769 8.76198 31.7371 9.75512 27.5913 8.4302C27.4882 7.78036 27.6771 7.46383 28.2445 5.85439C28.6258 4.77286 29.8333 4.19794 30.9429 4.57052C31.7615 4.84552 32.2994 5.56407 32.3679 6.35681C34.2208 4.86753 36.9697 4.98036 38.6809 6.69149Z" fill="#797A7A"/>
</g>
<defs>
<clipPath id="clip0_1925_30637">
<rect width="40" height="40" fill="white"/>
</clipPath>
</defs>
</svg>
