<svg width="40" height="40" viewBox="0 0 40 40" fill="none" xmlns="http://www.w3.org/2000/svg">
<g clip-path="url(#clip0_1925_30854)">
<path d="M20 40C31.0457 40 40 31.0457 40 20C40 8.9543 31.0457 0 20 0C8.9543 0 0 8.9543 0 20C0 31.0457 8.9543 40 20 40Z" fill="#5FC68F"/>
<path d="M3.44828 21.7241C3.44828 28.8698 7.19569 35.1405 12.8336 38.6776C5.32759 35.7957 0 28.5198 0 20C0 8.95431 8.95431 0 20 0C23.8991 0 27.5379 1.11638 30.6147 3.04655C28.3897 2.19224 25.9733 1.72414 23.4483 1.72414C12.4026 1.72414 3.44828 10.6784 3.44828 21.7241Z" fill="#5FC68F"/>
<path d="M20.0828 37.1655C29.5173 37.1655 37.1655 29.5173 37.1655 20.0828C37.1655 10.6482 29.5173 3 20.0828 3C10.6482 3 3 10.6482 3 20.0828C3 29.5173 10.6482 37.1655 20.0828 37.1655Z" fill="#DBEEFF"/>
<path d="M8.09038 22.5869C8.09038 28.2387 10.8352 33.2499 15.0645 36.3594C8.03694 34.2412 2.91797 27.7188 2.91797 20.0007C2.91797 10.5662 10.5662 2.91797 20.0007 2.91797C23.7835 2.91797 27.2792 4.14728 30.1094 6.22831C19.1494 2.92771 8.09038 11.1408 8.09038 22.5869Z" fill="#EEF7FF"/>
<path d="M20.0002 34.9688C19.6193 34.9688 19.3105 34.66 19.3105 34.2791V32.6662C19.3105 32.2854 19.6193 31.9766 20.0002 31.9766C20.3811 31.9766 20.6899 32.2854 20.6899 32.6662V34.2791C20.6899 34.6599 20.3811 34.9688 20.0002 34.9688Z" fill="#B5D5F5"/>
<path d="M26.7951 32.4613C27.176 32.4613 27.4848 32.1526 27.4848 31.7717C27.4848 31.3908 27.176 31.082 26.7951 31.082C26.4142 31.082 26.1055 31.3908 26.1055 31.7717C26.1055 32.1526 26.4142 32.4613 26.7951 32.4613Z" fill="#B5D5F5"/>
<path d="M13.2053 32.4613C13.5862 32.4613 13.8949 32.1526 13.8949 31.7717C13.8949 31.3908 13.5862 31.082 13.2053 31.082C12.8244 31.082 12.5156 31.3908 12.5156 31.7717C12.5156 32.1526 12.8244 32.4613 13.2053 32.4613Z" fill="#B5D5F5"/>
<path d="M26.7951 8.92228C27.176 8.92228 27.4848 8.61351 27.4848 8.23262C27.4848 7.85174 27.176 7.54297 26.7951 7.54297C26.4142 7.54297 26.1055 7.85174 26.1055 8.23262C26.1055 8.61351 26.4142 8.92228 26.7951 8.92228Z" fill="#B5D5F5"/>
<path d="M20.0002 8.02349C19.6193 8.02349 19.3105 7.7147 19.3105 7.33384V5.7209C19.3105 5.34004 19.6193 5.03125 20.0002 5.03125C20.3811 5.03125 20.6899 5.34004 20.6899 5.7209V7.33384C20.6899 7.7147 20.3811 8.02349 20.0002 8.02349Z" fill="#B5D5F5"/>
<path d="M13.2053 8.92228C13.5862 8.92228 13.8949 8.61351 13.8949 8.23262C13.8949 7.85174 13.5862 7.54297 13.2053 7.54297C12.8244 7.54297 12.5156 7.85174 12.5156 8.23262C12.5156 8.61351 12.8244 8.92228 13.2053 8.92228Z" fill="#B5D5F5"/>
<path d="M27.3267 12C36.2244 12 36.2244 29 27.3267 29H12.7132C3.76226 29 3.76226 12 12.7132 12H27.3267Z" fill="#7ADBAE"/>
<path d="M11.7079 19.6084C11.4474 19.6084 11.2013 19.5559 10.9698 19.451C10.7382 19.3461 10.5367 19.1975 10.3655 19.0052C10.1966 18.8129 10.0748 18.5856 10 18.3233L10.8431 18.0873C10.9034 18.3021 11.0132 18.4682 11.1724 18.5856C11.334 18.7005 11.5113 18.7567 11.7043 18.7542C11.8756 18.7542 12.0288 18.713 12.1639 18.6305C12.299 18.5481 12.4051 18.437 12.4823 18.2971C12.5595 18.1548 12.5981 17.9962 12.5981 17.8213C12.5981 17.5541 12.5149 17.3305 12.3484 17.1507C12.182 16.9709 11.9673 16.881 11.7043 16.881C11.6247 16.881 11.5463 16.8922 11.4691 16.9147C11.3943 16.9372 11.322 16.9684 11.252 17.0084L10.854 16.2965L12.6053 14.7455L12.6813 14.9628H10.2026V14.1124H13.3978V14.9666L11.9902 16.3677L11.9829 16.1017C12.299 16.1242 12.5679 16.2154 12.7899 16.3752C13.0142 16.5351 13.1855 16.7411 13.3037 16.9934C13.4243 17.2456 13.4846 17.5216 13.4846 17.8213C13.4846 18.161 13.4038 18.4657 13.2422 18.7354C13.083 19.0052 12.8683 19.2187 12.5981 19.3761C12.3303 19.5309 12.0336 19.6084 11.7079 19.6084Z" fill="#555555"/>
<path d="M16.2966 19.6196C15.9275 19.6196 15.6018 19.5384 15.3196 19.3761C15.0373 19.2112 14.8166 18.9827 14.6574 18.6905C14.5006 18.3983 14.4222 18.0611 14.4222 17.679V15.9406C14.4222 15.5585 14.5006 15.2213 14.6574 14.9291C14.8166 14.6369 15.0373 14.4096 15.3196 14.2473C15.6018 14.0824 15.9275 14 16.2966 14C16.6657 14 16.9901 14.0824 17.27 14.2473C17.5522 14.4096 17.7729 14.6369 17.9321 14.9291C18.0914 15.2213 18.171 15.5585 18.171 15.9406V17.679C18.171 18.0611 18.0914 18.3983 17.9321 18.6905C17.7729 18.9827 17.5522 19.2112 17.27 19.3761C16.9901 19.5384 16.6657 19.6196 16.2966 19.6196ZM16.2966 18.7617C16.4799 18.7617 16.6464 18.7167 16.7959 18.6268C16.9455 18.5344 17.0637 18.412 17.1505 18.2597C17.2374 18.1048 17.2808 17.9325 17.2808 17.7427V15.8732C17.2808 15.6809 17.2374 15.5085 17.1505 15.3562C17.0637 15.2013 16.9455 15.079 16.7959 14.989C16.6464 14.8966 16.4799 14.8504 16.2966 14.8504C16.1132 14.8504 15.9468 14.8966 15.7972 14.989C15.6477 15.079 15.5295 15.2013 15.4426 15.3562C15.3558 15.5085 15.3123 15.6809 15.3123 15.8732V17.7427C15.3123 17.9325 15.3558 18.1048 15.4426 18.2597C15.5295 18.412 15.6477 18.5344 15.7972 18.6268C15.9468 18.7167 16.1132 18.7617 16.2966 18.7617Z" fill="#555555"/>
<path d="M19.1132 17.162V16.4539H21.2843V17.162H19.1132Z" fill="#555555"/>
<path d="M24.3884 19.5072V18.6156H22.0798V17.7726L23.748 14.1124H24.7431L23.0749 17.7726H24.3884V16.3677H25.2714V17.7726H25.7599V18.6156H25.2714V19.5072H24.3884Z" fill="#555555"/>
<path d="M28.1727 19.6196C27.9073 19.6196 27.66 19.5634 27.4309 19.451C27.2017 19.3361 27.0039 19.1788 26.8374 18.979C26.6734 18.7792 26.5552 18.5469 26.4828 18.2821L27.3223 18.0499C27.3561 18.1947 27.4176 18.3196 27.5069 18.4245C27.5985 18.5294 27.7047 18.6106 27.8253 18.668C27.9483 18.7255 28.075 18.7542 28.2052 18.7542C28.3741 18.7542 28.5285 18.7117 28.6684 18.6268C28.8083 18.5419 28.9193 18.4282 29.0013 18.2859C29.0833 18.141 29.1243 17.9812 29.1243 17.8063C29.1243 17.6315 29.0821 17.4729 28.9977 17.3305C28.9157 17.1857 28.8047 17.072 28.6648 16.9896C28.5249 16.9047 28.3717 16.8622 28.2052 16.8622C28.005 16.8622 27.8386 16.8997 27.7059 16.9746C27.5756 17.0496 27.4755 17.1295 27.4055 17.2144L26.6601 16.9671L26.8193 14.1124H29.649V14.9591H27.2861L27.6118 14.6406L27.496 16.6262L27.3368 16.4239C27.4719 16.2965 27.6287 16.2016 27.8072 16.1392C27.9857 16.0768 28.1582 16.0455 28.3246 16.0455C28.6503 16.0455 28.9386 16.123 29.1895 16.2778C29.4428 16.4302 29.6406 16.6387 29.7829 16.9035C29.9276 17.1682 30 17.4692 30 17.8063C30 18.1435 29.9156 18.4495 29.7467 18.7242C29.5778 18.9964 29.3547 19.2137 29.0773 19.3761C28.8023 19.5384 28.5007 19.6196 28.1727 19.6196Z" fill="#555555"/>
<path d="M18.7019 27V24.5424C18.7019 24.2651 18.6356 24.0491 18.5029 23.8942C18.3703 23.7369 18.1905 23.6582 17.9638 23.6582C17.8239 23.6582 17.6984 23.6919 17.5875 23.7594C17.4765 23.8243 17.3884 23.9217 17.3233 24.0516C17.2582 24.179 17.2256 24.3313 17.2256 24.5086L16.8384 24.2726C16.836 23.9929 16.8963 23.7469 17.0193 23.5346C17.1448 23.3198 17.3137 23.1524 17.5259 23.0326C17.7382 22.9127 17.9746 22.8527 18.2352 22.8527C18.667 22.8527 18.9975 22.9876 19.2266 23.2573C19.4582 23.5246 19.574 23.8768 19.574 24.3138V27H18.7019ZM14.0015 27V22.9539H14.7723V24.2089H14.8808V27H14.0015ZM16.3572 27V24.5536C16.3572 24.2714 16.2908 24.0516 16.1581 23.8942C16.0255 23.7369 15.8445 23.6582 15.6154 23.6582C15.3934 23.6582 15.2149 23.7369 15.0798 23.8942C14.9472 24.0516 14.8808 24.2564 14.8808 24.5086L14.49 24.2389C14.49 23.9767 14.5527 23.7406 14.6782 23.5308C14.8036 23.321 14.9725 23.1562 15.1848 23.0363C15.3995 22.9139 15.6395 22.8527 15.9049 22.8527C16.1967 22.8527 16.4404 22.9177 16.6358 23.0476C16.8336 23.1749 16.9807 23.3498 17.0772 23.572C17.1761 23.7918 17.2256 24.0403 17.2256 24.3176V27H16.3572Z" fill="#555555"/>
<path d="M20.5902 22.3395V21.5115H21.4622V22.3395H20.5902ZM20.5902 27V22.9539H21.4622V27H20.5902Z" fill="#555555"/>
<path d="M25.2492 27V25.0519C25.2492 24.9245 25.2407 24.7834 25.2238 24.6285C25.207 24.4737 25.1671 24.3251 25.1044 24.1827C25.0441 24.0378 24.9524 23.9192 24.8294 23.8268C24.7088 23.7344 24.5448 23.6882 24.3373 23.6882C24.2263 23.6882 24.1166 23.7069 24.008 23.7444C23.8995 23.7818 23.8006 23.8468 23.7113 23.9392C23.6245 24.0291 23.5545 24.154 23.5014 24.3138C23.4484 24.4712 23.4218 24.6735 23.4218 24.9207L22.9044 24.6922C22.9044 24.3476 22.9683 24.0353 23.0962 23.7556C23.2264 23.4759 23.417 23.2536 23.6679 23.0888C23.9188 22.9214 24.2275 22.8378 24.5942 22.8378C24.8837 22.8378 25.1225 22.8877 25.3107 22.9876C25.4988 23.0875 25.6484 23.2149 25.7594 23.3697C25.8703 23.5246 25.9524 23.6894 26.0054 23.8643C26.0585 24.0391 26.0923 24.2052 26.1068 24.3625C26.1236 24.5174 26.1321 24.6435 26.1321 24.7409V27H25.2492ZM22.5389 27V22.9539H23.3169V24.2089H23.4218V27H22.5389Z" fill="#555555"/>
</g>
<defs>
<clipPath id="clip0_1925_30854">
<rect width="40" height="40" fill="white"/>
</clipPath>
</defs>
</svg>
