<svg width="140" height="40" viewBox="0 0 140 40" fill="none" xmlns="http://www.w3.org/2000/svg">
<path d="M134.815 40H5.18518C2.28148 40 0 37.8 0 35V5C0 2.2 2.28148 0 5.18518 0H134.815C137.719 0 140 2.2 140 5V35C140 37.8 137.719 40 134.815 40Z" fill="black"/>
<path d="M134.815 0.8C137.2 0.8 139.17 2.7 139.17 5V35C139.17 37.3 137.2 39.2 134.815 39.2H5.18518C2.8 39.2 0.82963 37.3 0.82963 35V5C0.82963 2.7 2.8 0.8 5.18518 0.8H134.815ZM134.815 0H5.18518C2.28148 0 0 2.3 0 5V35C0 37.8 2.28148 40 5.18518 40H134.815C137.719 40 140 37.8 140 35V5C140 2.3 137.719 0 134.815 0Z" fill="#A6A6A6"/>
<path d="M49.1553 10.2004C49.1553 11.0004 48.9479 11.7004 48.4294 12.2004C47.8072 12.8004 47.0813 13.1004 46.1479 13.1004C45.2146 13.1004 44.4887 12.8004 43.8664 12.2004C43.2442 11.6004 42.9331 10.9004 42.9331 10.0004C42.9331 9.10039 43.2442 8.40039 43.8664 7.80039C44.4887 7.20039 45.2146 6.90039 46.1479 6.90039C46.5627 6.90039 46.9775 7.00039 47.3924 7.20039C47.8072 7.40039 48.1183 7.60039 48.3257 7.90039L47.8072 8.40039C47.3924 7.90039 46.8738 7.70039 46.1479 7.70039C45.5257 7.70039 44.9035 7.90039 44.4887 8.40039C43.9701 8.80039 43.7627 9.40039 43.7627 10.1004C43.7627 10.8004 43.9701 11.4004 44.4887 11.8004C45.0072 12.2004 45.5257 12.5004 46.1479 12.5004C46.8738 12.5004 47.3924 12.3004 47.9109 11.8004C48.222 11.5004 48.4294 11.1004 48.4294 10.6004H46.1479V9.80039H49.1553V10.2004ZM53.9257 7.70039H51.1257V9.60039H53.7183V10.3004H51.1257V12.2004H53.9257V13.0004H50.2961V7.00039H53.9257V7.70039ZM57.3479 13.0004H56.5183V7.70039H54.7553V7.00039H59.1109V7.70039H57.3479V13.0004ZM62.1183 13.0004V7.00039H62.9479V13.0004H62.1183ZM66.4738 13.0004H65.6442V7.70039H63.8813V7.00039H68.1331V7.70039H66.3701V13.0004H66.4738ZM76.3257 12.2004C75.7035 12.8004 74.9776 13.1004 74.0442 13.1004C73.1109 13.1004 72.385 12.8004 71.7627 12.2004C71.1405 11.6004 70.8294 10.9004 70.8294 10.0004C70.8294 9.10039 71.1405 8.40039 71.7627 7.80039C72.385 7.20039 73.1109 6.90039 74.0442 6.90039C74.9776 6.90039 75.7035 7.20039 76.3257 7.80039C76.9479 8.40039 77.259 9.10039 77.259 10.0004C77.259 10.9004 76.9479 11.6004 76.3257 12.2004ZM72.385 11.7004C72.7998 12.1004 73.422 12.4004 74.0442 12.4004C74.6664 12.4004 75.2887 12.2004 75.7035 11.7004C76.1183 11.3004 76.4294 10.7004 76.4294 10.0004C76.4294 9.30039 76.222 8.70039 75.7035 8.30039C75.2887 7.90039 74.6664 7.60039 74.0442 7.60039C73.422 7.60039 72.7998 7.80039 72.385 8.30039C71.9701 8.70039 71.659 9.30039 71.659 10.0004C71.659 10.7004 71.8664 11.3004 72.385 11.7004ZM78.3998 13.0004V7.00039H79.3331L82.3405 11.7004V7.00039H83.1701V13.0004H82.3405L79.1257 8.10039V13.0004H78.3998Z" fill="white" stroke="white" stroke-width="1.18519" stroke-miterlimit="10"/>
<path d="M70.6221 21.7996C68.1332 21.7996 66.1628 23.5996 66.1628 26.0996C66.1628 28.4996 68.1332 30.3996 70.6221 30.3996C73.111 30.3996 75.0813 28.5996 75.0813 26.0996C75.0813 23.4996 73.111 21.7996 70.6221 21.7996ZM70.6221 28.5996C69.2739 28.5996 68.1332 27.4996 68.1332 25.9996C68.1332 24.4996 69.2739 23.3996 70.6221 23.3996C71.9702 23.3996 73.111 24.3996 73.111 25.9996C73.111 27.4996 71.9702 28.5996 70.6221 28.5996ZM60.9776 21.7996C58.4887 21.7996 56.5184 23.5996 56.5184 26.0996C56.5184 28.4996 58.4887 30.3996 60.9776 30.3996C63.4665 30.3996 65.4369 28.5996 65.4369 26.0996C65.4369 23.4996 63.4665 21.7996 60.9776 21.7996ZM60.9776 28.5996C59.6295 28.5996 58.4887 27.4996 58.4887 25.9996C58.4887 24.4996 59.6295 23.3996 60.9776 23.3996C62.3258 23.3996 63.4665 24.3996 63.4665 25.9996C63.4665 27.4996 62.3258 28.5996 60.9776 28.5996ZM49.4665 23.0996V24.8996H53.9258C53.8221 25.8996 53.4073 26.6996 52.8887 27.1996C52.2665 27.7996 51.2295 28.4996 49.4665 28.4996C46.6665 28.4996 44.5924 26.3996 44.5924 23.6996C44.5924 20.9996 46.7702 18.8996 49.4665 18.8996C50.9184 18.8996 52.0591 19.4996 52.8887 20.1996L54.2369 18.8996C53.0961 17.8996 51.6443 17.0996 49.5702 17.0996C45.8369 17.0996 42.6221 20.0996 42.6221 23.6996C42.6221 27.2996 45.8369 30.2996 49.5702 30.2996C51.6443 30.2996 53.0961 29.6996 54.3406 28.3996C55.585 27.1996 55.9998 25.4996 55.9998 24.1996C55.9998 23.7996 55.9999 23.3996 55.8961 23.0996H49.4665ZM96.548 24.4996C96.1332 23.4996 95.0961 21.7996 92.8147 21.7996C90.5332 21.7996 88.6665 23.4996 88.6665 26.0996C88.6665 28.4996 90.5332 30.3996 93.0221 30.3996C94.9924 30.3996 96.2369 29.1996 96.6517 28.4996L95.1999 27.4996C94.6813 28.1996 94.0591 28.6996 93.0221 28.6996C91.985 28.6996 91.3628 28.2996 90.8443 27.3996L96.7554 24.9996L96.548 24.4996ZM90.5332 25.8996C90.5332 24.2996 91.8813 23.3996 92.8147 23.3996C93.5406 23.3996 94.2665 23.7996 94.4739 24.2996L90.5332 25.8996ZM85.6591 29.9996H87.6295V17.4996H85.6591V29.9996ZM82.548 22.6996C82.0295 22.1996 81.1999 21.6996 80.1628 21.6996C77.985 21.6996 75.911 23.5996 75.911 25.9996C75.911 28.3996 77.8813 30.1996 80.1628 30.1996C81.1999 30.1996 82.0295 29.6996 82.4443 29.1996H82.548V29.7996C82.548 31.3996 81.6147 32.2996 80.1628 32.2996C79.0221 32.2996 78.1924 31.4996 77.985 30.7996L76.3258 31.4996C76.8443 32.5996 78.0887 33.9996 80.2665 33.9996C82.548 33.9996 84.4147 32.6996 84.4147 29.5996V21.9996H82.548V22.6996ZM80.2665 28.5996C78.9184 28.5996 77.7776 27.4996 77.7776 25.9996C77.7776 24.4996 78.9184 23.3996 80.2665 23.3996C81.6147 23.3996 82.6517 24.4996 82.6517 25.9996C82.6517 27.4996 81.6147 28.5996 80.2665 28.5996ZM105.57 17.4996H100.904V29.9996H102.874V25.2996H105.57C107.748 25.2996 109.822 23.7996 109.822 21.3996C109.822 18.9996 107.748 17.4996 105.57 17.4996ZM105.674 23.4996H102.874V19.1996H105.674C107.126 19.1996 107.955 20.3996 107.955 21.2996C107.852 22.3996 107.022 23.4996 105.674 23.4996ZM117.6 21.6996C116.148 21.6996 114.696 22.2996 114.178 23.5996L115.941 24.2996C116.355 23.5996 116.978 23.3996 117.704 23.3996C118.741 23.3996 119.674 23.9996 119.778 24.9996V25.0996C119.467 24.8996 118.637 24.5996 117.807 24.5996C115.941 24.5996 114.074 25.5996 114.074 27.3996C114.074 29.0996 115.629 30.1996 117.289 30.1996C118.637 30.1996 119.259 29.5996 119.778 28.9996H119.881V29.9996H121.748V25.1996C121.541 22.9996 119.778 21.6996 117.6 21.6996ZM117.392 28.5996C116.77 28.5996 115.837 28.2996 115.837 27.4996C115.837 26.4996 116.978 26.1996 117.911 26.1996C118.741 26.1996 119.155 26.3996 119.674 26.5996C119.467 27.7996 118.429 28.5996 117.392 28.5996ZM128.281 21.9996L126.104 27.3996H126L123.718 21.9996H121.644L125.067 29.5996L123.096 33.7996H125.067L130.355 21.9996H128.281ZM110.859 29.9996H112.829V17.4996H110.859V29.9996Z" fill="white"/>
<path d="M10.7849 7.5C10.4738 7.8 10.3701 8.3 10.3701 8.9V31C10.3701 31.6 10.5775 32.1 10.8886 32.4L10.9923 32.5L23.8516 20.1V19.9L10.7849 7.5Z" fill="url(#paint0_linear_1468_133811)"/>
<path d="M27.9994 24.3027L23.7476 20.2027V19.9027L27.9994 15.8027L28.1031 15.9027L33.1846 18.7027C34.6364 19.5027 34.6364 20.8027 33.1846 21.6027L27.9994 24.3027Z" fill="url(#paint1_linear_1468_133811)"/>
<path d="M28.1037 24.2L23.7481 20L10.7852 32.5C11.3037 33 12.0296 33 12.9629 32.6L28.1037 24.2Z" fill="url(#paint2_linear_1468_133811)"/>
<path d="M28.1037 15.8026L12.9629 7.50255C12.0296 7.00255 11.3037 7.10255 10.7852 7.60255L23.7481 20.0026L28.1037 15.8026Z" fill="url(#paint3_linear_1468_133811)"/>
<path opacity="0.2" d="M28 24.1016L12.9629 32.3016C12.1333 32.8016 11.4074 32.7016 10.8889 32.3016L10.7852 32.4016L10.8889 32.5016C11.4074 32.9016 12.1333 33.0016 12.9629 32.5016L28 24.1016Z" fill="black"/>
<path opacity="0.12" d="M10.7849 32.3C10.4738 32 10.3701 31.5 10.3701 30.9V31C10.3701 31.6 10.5775 32.1 10.8886 32.4V32.3H10.7849ZM33.1849 21.3L27.9997 24.1L28.1035 24.2L33.1849 21.4C33.9109 21 34.222 20.5 34.222 20C34.222 20.5 33.8072 20.9 33.1849 21.3Z" fill="black"/>
<path opacity="0.25" d="M12.9627 7.60125L33.1849 18.7012C33.8072 19.1012 34.222 19.5012 34.222 20.0012C34.222 19.5012 33.9109 19.0012 33.1849 18.6012L12.9627 7.50125C11.5109 6.70125 10.3701 7.30125 10.3701 8.90125V9.00125C10.3701 7.50125 11.5109 6.80125 12.9627 7.60125Z" fill="white"/>
<defs>
<linearGradient id="paint0_linear_1468_133811" x1="22.6072" y1="8.71" x2="5.83521" y2="26.1021" gradientUnits="userSpaceOnUse">
<stop stop-color="#00A0FF"/>
<stop offset="0.007" stop-color="#00A1FF"/>
<stop offset="0.26" stop-color="#00BEFF"/>
<stop offset="0.512" stop-color="#00D2FF"/>
<stop offset="0.76" stop-color="#00DFFF"/>
<stop offset="1" stop-color="#00E3FF"/>
</linearGradient>
<linearGradient id="paint1_linear_1468_133811" x1="35.0865" y1="20.0037" x2="9.99334" y2="20.0037" gradientUnits="userSpaceOnUse">
<stop stop-color="#FFE000"/>
<stop offset="0.409" stop-color="#FFBD00"/>
<stop offset="0.775" stop-color="#FFA500"/>
<stop offset="1" stop-color="#FF9C00"/>
</linearGradient>
<linearGradient id="paint2_linear_1468_133811" x1="25.7465" y1="22.296" x2="3.00353" y2="45.8813" gradientUnits="userSpaceOnUse">
<stop stop-color="#FF3A44"/>
<stop offset="1" stop-color="#C31162"/>
</linearGradient>
<linearGradient id="paint3_linear_1468_133811" x1="7.56723" y1="0.178554" x2="17.7235" y2="10.711" gradientUnits="userSpaceOnUse">
<stop stop-color="#32A071"/>
<stop offset="0.069" stop-color="#2DA771"/>
<stop offset="0.476" stop-color="#15CF74"/>
<stop offset="0.801" stop-color="#06E775"/>
<stop offset="1" stop-color="#00F076"/>
</linearGradient>
</defs>
</svg>
