<svg width="20" height="20" viewBox="0 0 20 20" fill="none" xmlns="http://www.w3.org/2000/svg">
<path d="M16.6992 3.74712C13.2242 3.74712 10.243 1.40962 10.2117 1.38462C10.1014 1.29743 9.96485 1.25 9.82422 1.25C9.68358 1.25 9.54706 1.29743 9.43672 1.38462C9.40547 1.40962 6.43672 3.74712 2.94922 3.74712C2.78346 3.74712 2.62449 3.81297 2.50728 3.93018C2.39007 4.04739 2.32422 4.20636 2.32422 4.37212V9.99712C2.32422 14.1909 4.01797 16.2471 9.56797 18.6909C9.64854 18.7271 9.73588 18.7458 9.82422 18.7458C9.91256 18.7458 9.9999 18.7271 10.0805 18.6909C15.6305 16.2471 17.3242 14.1909 17.3242 9.99712V4.37212C17.3242 4.20636 17.2584 4.04739 17.1412 3.93018C17.024 3.81297 16.865 3.74712 16.6992 3.74712ZM16.0742 9.99712C16.0742 13.2346 15.1992 14.9971 9.82422 17.4346C4.44922 14.9971 3.57422 13.2346 3.57422 9.99712V4.99712C5.8257 4.76736 7.97912 3.95767 9.82422 2.64712C11.6693 3.95767 13.8227 4.76736 16.0742 4.99712V9.99712Z" fill="#272727"/>
<path d="M8.39162 9.55099C8.33335 9.49272 8.26416 9.44649 8.18803 9.41496C8.11189 9.38342 8.03028 9.36719 7.94787 9.36719C7.86546 9.36719 7.78385 9.38342 7.70771 9.41496C7.63157 9.44649 7.56239 9.49272 7.50412 9.55099C7.44585 9.60927 7.39962 9.67845 7.36808 9.75459C7.33654 9.83073 7.32031 9.91233 7.32031 9.99474C7.32031 10.0772 7.33654 10.1588 7.36808 10.2349C7.39962 10.311 7.44585 10.3802 7.50412 10.4385L8.75412 11.6885C8.81222 11.7471 8.88135 11.7936 8.95751 11.8253C9.03367 11.857 9.11536 11.8734 9.19787 11.8734C9.28038 11.8734 9.36207 11.857 9.43823 11.8253C9.51439 11.7936 9.58352 11.7471 9.64162 11.6885L12.1416 9.18849C12.1999 9.13022 12.2461 9.06104 12.2777 8.9849C12.3092 8.90876 12.3254 8.82716 12.3254 8.74474C12.3254 8.66233 12.3092 8.58073 12.2777 8.50459C12.2461 8.42845 12.1999 8.35927 12.1416 8.30099C12.0833 8.24272 12.0142 8.19649 11.938 8.16496C11.8619 8.13342 11.7803 8.11719 11.6979 8.11719C11.6155 8.11719 11.5339 8.13342 11.4577 8.16496C11.3816 8.19649 11.3124 8.24272 11.2541 8.30099L9.19787 10.3635L8.39162 9.55099Z" fill="#272727"/>
<path d="M4.82422 10C4.82422 10.9889 5.11746 11.9556 5.66687 12.7779C6.21628 13.6001 6.99717 14.241 7.9108 14.6194C8.82443 14.9978 9.82977 15.0969 10.7997 14.9039C11.7696 14.711 12.6605 14.2348 13.3598 13.5355C14.059 12.8363 14.5352 11.9454 14.7281 10.9755C14.9211 10.0055 14.8221 9.00021 14.4436 8.08658C14.0652 7.17295 13.4243 6.39206 12.6021 5.84265C11.7798 5.29324 10.8131 5 9.82422 5C8.49814 5 7.22637 5.52678 6.28868 6.46447C5.351 7.40215 4.82422 8.67392 4.82422 10ZM13.5742 10C13.5742 10.7417 13.3543 11.4667 12.9422 12.0834C12.5302 12.7001 11.9445 13.1807 11.2593 13.4645C10.5741 13.7484 9.82006 13.8226 9.09263 13.6779C8.3652 13.5333 7.69702 13.1761 7.17257 12.6517C6.64812 12.1272 6.29097 11.459 6.14627 10.7316C6.00158 10.0042 6.07584 9.25016 6.35967 8.56494C6.6435 7.87971 7.12415 7.29404 7.74083 6.88199C8.35751 6.46993 9.08254 6.25 9.82422 6.25C10.8188 6.25 11.7726 6.64509 12.4759 7.34835C13.1791 8.05161 13.5742 9.00544 13.5742 10Z" fill="#272727"/>
</svg>
