<svg width="40" height="40" viewBox="0 0 40 40" fill="none" xmlns="http://www.w3.org/2000/svg">
<path d="M21.3331 23.1132C21.0919 29.5672 21.2944 27.7793 20.6226 32.8906C20.6218 32.8947 20.6218 32.8995 20.621 32.9035C20.4194 34.4221 19.1234 35.5576 17.5911 35.5576H0C0 34.486 0.652097 33.5189 1.65081 33.1197C4.41766 32.0134 4.34919 32.0019 4.73145 32.0019C5.34032 32.0019 5.86452 32.3672 6.09597 32.8906C6.27718 32.8906 5.44645 33.0002 15.8653 31.5293C15.1381 25.0571 13.3753 23.8494 14.2226 20.4463C15.1113 16.8906 20.4444 16.8906 20.4444 16.8906C20.4898 17.2092 21.2862 22.7838 21.3331 23.1132Z" fill="#F9CFAC"/>
<path d="M21.3036 22.9035C21.1092 28.3793 21.264 26.9721 20.6229 31.8511C20.6221 31.8551 20.6221 31.86 20.6213 31.864C20.4197 33.3826 19.1237 34.518 17.5915 34.518H0.214844C0.484199 33.893 0.99307 33.3826 1.65113 33.1197L4.17855 32.1084C4.92404 31.8109 5.77154 32.1564 6.0963 32.8906C6.2775 32.8906 5.44678 33.0002 15.8657 31.5293C15.8253 31.1705 15.7818 30.8301 15.7374 30.5084L15.8657 30.4906C15.3135 25.6143 14.1572 23.5322 14.0237 21.7301C14.0552 21.2761 14.1261 20.835 14.2229 20.4463C15.1116 16.8906 20.4447 16.8906 20.4447 16.8906L21.3036 22.9035Z" fill="#FFE4CC"/>
<path d="M21.3321 23.1132C21.091 29.5672 21.2934 27.7793 20.6216 32.8906C20.6208 32.8947 20.6208 32.8995 20.62 32.9035C20.4184 34.4221 19.1224 35.5576 17.5902 35.5576H11.5547V32.1374L15.8644 31.5293C15.1215 24.9701 13.3731 23.8343 14.2216 20.4463C14.9563 17.5076 18.7257 16.9979 20.0128 16.9092C20.2829 16.8906 20.4434 16.8906 20.4434 16.8906C21.0267 20.9765 20.8244 19.5598 21.3321 23.1132Z" fill="#5FC68F"/>
<path d="M20.9204 20.2293L20.7446 22.0309C20.5035 28.485 20.7059 26.6971 20.0341 31.8084C20.0333 31.8124 20.0333 31.8172 20.0325 31.8213C19.8309 33.3398 18.5349 34.4753 17.0027 34.4753H13.893C12.6018 34.4753 11.5551 33.4286 11.5551 32.1374C11.5551 32.1293 11.4259 32.1556 15.8648 31.5293C15.1219 24.9701 13.3735 23.8343 14.222 20.4463C14.9567 17.5076 18.726 16.9979 20.0131 16.9092C20.2833 16.8906 20.4438 16.8906 20.4438 16.8906L20.9204 20.2293Z" fill="#7ADBAE"/>
<path d="M40 35.5561H34.6669C33.6846 35.5561 32.8887 34.7602 32.8887 33.7779V19.5198C32.8887 17.6683 35.4143 17.019 36.2588 18.761C36.5238 19.3108 36.4443 18.4661 36.4443 32.4448C37.5125 32.5785 38.3978 32.5986 39.2435 33.5569C39.7154 34.0896 40 34.7969 40 35.5561Z" fill="#F9CFAC"/>
<path d="M39.815 34.5167H35.9569C34.9747 34.5167 34.1787 33.7208 34.1787 32.7385C34.1787 17.1819 34.1161 18.2533 34.3247 17.7756C35.4658 17.5541 36.444 18.4657 36.444 19.5692V32.445L37.3529 32.5587C38.4505 32.6957 39.4146 33.428 39.815 34.5167Z" fill="#FFE4CC"/>
<path d="M36.4453 19.6062C36.4453 19.2211 36.3243 18.8578 36.1276 18.5691C35.1506 17.1128 32.8897 17.8088 32.8897 19.557V24.8901C28.9776 24.6627 27.0243 25.6272 21.334 23.1127L20.4453 16.8901C24.0005 16.8901 27.743 21.6144 32.9042 12.582L35.5566 15.1127C36.1717 16.5439 36.5202 18.0749 36.4453 19.6062Z" fill="#B3CEC9"/>
<path d="M36.4442 19.6062C36.4442 19.2211 36.3232 18.8578 36.1265 18.5691C35.1496 17.1128 32.8886 17.8088 32.8886 19.557V23.5998C30.995 23.4901 29.5612 23.6586 27.9402 23.578C24.2184 23.3917 21.1555 20.5828 20.6289 16.8941C24.1299 17.0498 27.8315 21.4574 32.9031 12.582L35.5555 15.1127C36.1706 16.5439 36.5191 18.0749 36.4442 19.6062Z" fill="#CAE0DD"/>
<path d="M38.6001 7.17195C37.8687 8.50099 36.4276 9.40582 34.7679 9.40582C33.3655 12.0461 33.8051 11.0954 32.8058 13.5744C32.3324 13.1187 31.9405 12.5832 31.6526 11.9897C31.09 10.8278 31.1114 9.91808 31.1114 9.16228C31.5133 8.95526 31.8318 8.60978 31.988 8.16631C32.5154 6.67026 32.5871 6.60712 32.5639 6.07437C34.4794 4.53429 37.3975 5.04905 38.6001 7.17195Z" fill="#6D6D6D"/>
<path d="M39.1103 9.07187C39.1103 13.2813 39.1932 13.365 38.8442 14.0017C38.4603 14.7049 37.6998 15.1832 36.8248 15.1832C35.3306 15.1832 33.901 14.6246 32.8047 13.5743C33.804 11.0953 33.3644 12.0458 34.7668 9.40575C36.4053 9.40575 37.8554 8.52083 38.599 7.17188C38.9193 7.71454 39.1103 8.38058 39.1103 9.07187Z" fill="#F9CFAC"/>
<path d="M39.1127 9.07341C39.1127 13.2828 39.1955 13.3666 38.8465 14.0033C36.738 15.1702 33.7447 12.5843 35.0077 9.80543L35.1982 9.38632C36.474 9.26535 37.5877 8.60728 38.2973 7.64761C38.4328 7.54761 38.5619 7.43954 38.6836 7.32422C38.9586 7.84922 39.1127 8.44438 39.1127 9.07341Z" fill="#FFE4CC"/>
<path d="M32.5699 6.22034C32.5699 6.61365 32.3624 6.74696 32.0586 7.96712C31.9402 8.44276 31.7171 8.81671 31.19 9.11792C29.7583 9.94938 27.9916 8.58212 28.5457 7.00825C28.7401 6.45591 28.6302 6.76639 29.0271 5.64131C29.6986 3.73809 32.5699 4.23599 32.5699 6.22034Z" fill="#6D6D6D"/>
<path d="M38.2859 6.70591C36.6984 8.30631 32.0662 8.46195 29.7121 7.31776C29.0912 7.01599 28.7974 6.29486 29.0269 5.64381C29.3524 4.72066 30.3857 4.22147 31.3422 4.543C32.0447 4.77849 32.506 5.39542 32.5648 6.07526C34.3036 4.67736 36.9096 4.95147 38.2859 6.70591Z" fill="#797A7A"/>
</svg>
