<svg width="40" height="40" viewBox="0 0 40 40" fill="none" xmlns="http://www.w3.org/2000/svg">
<g clip-path="url(#clip0_1925_30658)">
<path d="M30.6455 14.4403C30.6141 14.4548 30.5826 14.4701 30.5512 14.4862C29.7028 13.2189 27.7496 13.8385 27.7496 15.3411V16.654L26.2109 17.6919C23.9037 18.4612 21.944 15.3112 22.365 16.154C21.5956 14.6153 18.461 18.4612 18.461 18.4612L13.8457 15.3846C16.8221 11.6673 20.6156 10 23.8456 10C26.513 10 29.0936 12.2928 30.6455 14.4403Z" fill="#B3CEC9"/>
<path d="M18.4611 18.4594C18.2522 24.0448 18.428 23.2666 17.8466 27.6899C17.8458 27.694 17.845 27.698 17.845 27.7012C17.6708 29.0157 16.549 29.998 15.2232 29.998H0C0 29.0724 0.562414 28.2345 1.42821 27.8883C3.82641 26.9296 3.76198 26.9214 4.09431 26.9214C4.62173 26.9214 5.07495 27.2375 5.27495 27.6899C5.43196 27.6899 4.69915 27.7866 13.7297 26.5125C13.3115 22.8506 12.2442 22.7082 11.812 20.6795C11.6413 19.8791 11.6337 18.8442 11.9007 18.0675C12.3354 16.8086 13.8458 15.3828 13.8458 15.3828C14.323 15.701 17.9964 18.1496 18.4611 18.4594Z" fill="#F9CFAC"/>
<path d="M18.426 18.4368C18.2695 23.0021 18.3913 22.5658 17.8453 26.7222C17.8445 26.7262 17.8437 26.7303 17.8437 26.7335C17.6695 28.048 16.5477 29.0303 15.222 29.0303H0.214844C0.455164 28.5206 0.881772 28.1061 1.42693 27.8883L3.614 27.0133C4.24738 26.7587 4.98915 27.0463 5.27366 27.6899C5.43068 27.6899 4.69786 27.7866 13.7284 26.5125C13.6889 26.1666 13.6437 25.8521 13.5937 25.5642L13.7284 25.5448C13.2754 21.5493 11.9104 21.5101 11.7099 19.0126C11.7397 18.6747 11.8018 18.3513 11.8994 18.0675C12.3341 16.8086 13.8445 15.3828 13.8445 15.3828L18.426 18.4368Z" fill="#FFE4CC"/>
<path d="M33.597 30H29.2887C28.4389 30 27.75 29.3111 27.75 28.4613V15.3412C27.75 13.7223 29.9547 13.1925 30.6661 14.6848C30.8954 15.1558 30.8266 14.3462 30.8266 27.308C31.7484 27.4223 32.5165 27.4392 33.2491 28.2701C33.5856 28.6489 33.8183 29.14 33.8838 29.6774C33.9068 29.8545 33.7657 30 33.597 30Z" fill="#F9CFAC"/>
<path d="M33.2402 29.0303H30.2231C29.3733 29.0303 28.6844 28.3415 28.6844 27.4916C28.6844 13.2802 28.6513 14.2264 28.7602 13.8942C29.5021 13.6224 30.3218 13.9613 30.6659 14.6829C30.8951 15.1539 30.8263 14.3443 30.8263 27.3061C31.7094 27.4156 32.7429 27.4307 33.4858 28.58C33.6112 28.7741 33.4713 29.0303 33.2402 29.0303Z" fill="#FFE4CC"/>
<path d="M30.6459 14.4403C30.6145 14.4548 30.583 14.4701 30.5516 14.4862C29.7032 13.2189 27.75 13.8385 27.75 15.3411V15.6112L26.2113 16.6499C23.9041 17.4193 21.9444 14.2693 22.3654 15.1112C22.1181 14.6169 21.6264 14.6788 21.0731 14.9905C19.0827 16.1114 16.5951 16.175 14.4082 14.7169C17.3824 11.3597 20.9541 10 23.846 10C26.5134 10 29.094 12.2928 30.6459 14.4403Z" fill="#CAE0DD"/>
<path d="M18.4612 18.4594C18.2523 24.0448 18.4281 23.2666 17.8467 27.6899C17.8459 27.694 17.8451 27.698 17.8451 27.7012C17.6709 29.0157 16.5491 29.998 15.2233 29.998H10V27.0391L13.7298 26.5125C13.3517 23.1803 12.4267 22.7626 11.9387 21.1699C11.5929 20.0489 11.6363 18.8332 11.9008 18.0675C12.3355 16.8086 13.8459 15.3828 13.8459 15.3828C18.3921 18.413 17.8835 18.074 18.4612 18.4594Z" fill="#5FC68F"/>
<path d="M13.8463 15.3828C16.5926 17.2134 18.1214 20.4016 17.8139 23.6878C17.6996 24.9093 17.4487 26.7065 17.4487 26.7335C17.2745 28.048 16.1527 29.0303 14.8269 29.0303H11.9915C10.8918 29.0303 10.0004 28.1388 10.0004 27.0391C10.0004 27.031 9.88537 27.0554 13.7302 26.5125C13.5326 24.7714 13.1858 23.8247 12.8286 23.0908C12.5487 22.2545 12.2237 21.7344 11.9391 21.1699C11.5933 20.0489 11.6366 18.8332 11.9012 18.0675C12.3443 16.7841 13.8545 15.3883 13.8463 15.3828Z" fill="#7ADBAE"/>
<path d="M37.421 18.3991C37.1864 20.5546 35.0466 21.972 33.0558 21.4208C32.6896 20.1604 33.0179 18.7249 34.034 17.7096C33.2371 15.1088 33.5478 15.9877 32.6836 13.958C33.2521 13.9467 33.8195 14.0346 34.359 14.2217C35.3888 14.579 35.9263 15.1269 36.4202 15.6209C36.1758 16.3545 36.5107 16.8073 37.034 17.8967C37.1425 18.1227 37.2574 18.2463 37.421 18.3991Z" fill="#6D6D6D"/>
<path d="M33.0548 21.4199C32.0439 21.1521 31.6119 20.602 30.8258 19.8167C30.8258 15.0611 30.9164 15.0194 30.5508 14.4844C31.1596 14.1722 31.8962 13.9745 32.6834 13.957C33.5893 16.0857 33.277 15.235 34.0338 17.7086C33.0211 18.7202 32.6886 20.1527 33.0548 21.4199Z" fill="#F9CFAC"/>
<path d="M34.0338 17.7086C33.3306 18.411 32.9564 19.3158 32.9145 20.2231C32.5535 19.9891 32.4402 19.8496 31.6298 19.0392C31.6298 14.2591 31.6601 14.4418 31.5508 14.1103C31.9167 14.0169 32.2828 13.9659 32.6834 13.957C33.5893 16.0857 33.2771 15.235 34.0338 17.7086Z" fill="#FFE4CC"/>
<path d="M39.1072 18.5895C38.3317 18.975 37.404 18.6664 37.0346 17.8976C36.5167 16.8196 36.1759 16.3571 36.4209 15.6218C36.8484 14.2905 38.6993 14.0968 39.3088 15.3677C39.5027 15.7722 39.3773 15.5085 39.8507 16.4984C40.2181 17.2667 39.8854 18.2024 39.1072 18.5895Z" fill="#6D6D6D"/>
<path d="M39.1724 15.91C37.8024 16.9267 35.2474 17.0689 33.5751 16.212C33.3468 15.4653 33.5332 15.9534 32.6836 13.958C33.9382 13.9331 35.1892 14.3898 36.1356 15.3362L36.4202 15.6209C36.8477 14.2896 38.6986 14.0959 39.3081 15.3669C39.3993 15.557 39.3418 15.7843 39.1724 15.91Z" fill="#797A7A"/>
</g>
<defs>
<clipPath id="clip0_1925_30658">
<rect width="40" height="40" fill="white"/>
</clipPath>
</defs>
</svg>
