<svg width="40" height="40" viewBox="0 0 40 40" fill="none" xmlns="http://www.w3.org/2000/svg">
<g clip-path="url(#clip0_2010_14771)">
<path d="M20.0009 39.9979C31.046 39.9979 39.9999 31.0441 39.9999 19.999C39.9999 8.95384 31.046 0 20.0009 0C8.95579 0 0.00195312 8.95384 0.00195312 19.999C0.00195312 31.0441 8.95579 39.9979 20.0009 39.9979Z" fill="#AF469A"/>
<path d="M20.0009 39.9979C31.046 39.9979 39.9999 31.0441 39.9999 19.999C39.9999 8.95384 31.046 0 20.0009 0C8.95579 0 0.00195312 8.95384 0.00195312 19.999C0.00195312 31.0441 8.95579 39.9979 20.0009 39.9979Z" fill="#F9CAFC"/>
<path d="M20.0012 36.1275C28.9086 36.1275 36.1294 28.9066 36.1294 19.9993C36.1294 11.0919 28.9086 3.87109 20.0012 3.87109C11.0939 3.87109 3.87305 11.0919 3.87305 19.9993C3.87305 28.9066 11.0939 36.1275 20.0012 36.1275Z" fill="#279ED6"/>
<path d="M20.0012 36.1275C28.9086 36.1275 36.1294 28.9066 36.1294 19.9993C36.1294 11.0919 28.9086 3.87109 20.0012 3.87109C11.0939 3.87109 3.87305 11.0919 3.87305 19.9993C3.87305 28.9066 11.0939 36.1275 20.0012 36.1275Z" fill="#F6A1FF"/>
<path d="M19.9996 32.257C26.7692 32.257 32.257 26.7692 32.257 19.9996C32.257 13.23 26.7692 7.74219 19.9996 7.74219C13.23 7.74219 7.74219 13.23 7.74219 19.9996C7.74219 26.7692 13.23 32.257 19.9996 32.257Z" fill="#C172B2"/>
<path d="M20.0019 28.3866C24.6337 28.3866 28.3885 24.6318 28.3885 19.9999C28.3885 15.3681 24.6337 11.6133 20.0019 11.6133C15.3701 11.6133 11.6152 15.3681 11.6152 19.9999C11.6152 24.6318 15.3701 28.3866 20.0019 28.3866Z" fill="#9B5391"/>
<path d="M23.9334 11.1764C23.9334 13.2043 23.2711 14.4688 22.6972 15.7721C21.7258 17.9781 18.2781 17.9808 17.3055 15.7721C16.9054 14.8635 15.8837 12.8664 16.087 10.8328C16.275 9.04665 17.9256 7.60156 20.0013 7.60156C22.1363 7.60156 23.9334 9.16801 23.9334 11.1764Z" fill="#F9CFAC"/>
<path d="M23.9146 10.833C23.8064 12.5358 23.2777 13.5644 22.6961 14.8852C21.7247 17.0912 18.277 17.0938 17.3044 14.8852C16.712 13.5398 16.1963 12.5363 16.0859 10.833C16.3975 7.87167 20.4078 6.49069 22.7807 8.6484C23.4081 9.21934 23.825 9.9822 23.9146 10.833Z" fill="#FFE4CC"/>
<path d="M23.9338 11.1764C23.9338 11.7313 23.8797 12.267 23.7814 12.769C23.3216 11.3056 21.8307 10.1821 20.0018 10.1821C18.1779 10.1821 16.6782 11.301 16.2143 12.769C16.1109 12.2355 16.0451 11.7016 16.061 11.1806C16.1243 9.10511 17.809 7.60156 20.0017 7.60156C22.1586 7.60156 23.9338 9.18745 23.9338 11.1764Z" fill="#6D6D6D"/>
<path d="M23.9329 11.1738C23.9329 12.1692 24.04 11.0945 22.9088 10.0641C21.3037 8.60534 18.6989 8.60445 17.0929 10.0641C15.967 11.0877 16.0688 12.1683 16.0688 11.1738C16.0688 9.21756 17.8026 7.57031 19.9953 7.57031C22.1521 7.57031 23.9329 9.18482 23.9329 11.1738Z" fill="#6D6D6D"/>
<path d="M21.9669 6.61756V8.12716H18.0349C18.0349 6.54765 18.0202 6.47233 18.0784 6.2071C18.2678 5.31021 19.0661 4.65234 20.0009 4.65234C21.0871 4.65234 21.9669 5.52996 21.9669 6.61756Z" fill="#6D6D6D"/>
<path d="M25.9169 17.9388C25.6056 17.6268 25.204 17.4582 24.7952 17.4332C24.7209 17.4282 25.348 17.43 15.3158 17.43C14.8635 17.43 14.4207 17.6042 14.0869 17.9388C13.3248 18.8916 13.3956 18.8027 13.3555 18.8541C14.3946 24.4176 15.0867 22.4827 15.0867 31.1912H24.9171C24.9171 25.8033 25.1199 24.8342 25.6411 22.9144C26.5903 19.5374 26.2954 20.313 26.362 20.2121C26.5028 19.6161 26.6483 18.874 26.6483 18.8525C26.6082 18.8036 26.6994 18.9172 25.9169 17.9388Z" fill="#B3CEC9"/>
<path d="M24.9537 17.8558C24.6702 17.5715 24.2973 17.4297 23.9251 17.4297C23.0979 17.4297 17.0549 17.4297 16.2192 17.4297C15.2265 17.4297 15.053 17.8466 14.4375 18.6218C15.1445 22.394 15.8085 22.2783 15.8676 26.8302C15.897 29.0934 17.7384 30.9134 20.0017 30.9134C22.2588 30.9134 24.1063 29.0996 24.1359 26.8302C24.1709 24.1303 24.4038 23.1609 24.7274 22.0049C25.3978 19.6136 25.2811 19.8929 25.326 19.7584C25.4237 19.3488 25.566 18.6478 25.566 18.621C25.532 18.5797 25.6143 18.6823 24.9537 17.8558Z" fill="#CAE0DD"/>
<path d="M16.4536 20.822C14.145 23.1307 14.8762 22.3993 12.1369 25.1387C11.4079 25.8677 10.4216 26.2806 9.39184 26.2902C8.12336 26.2902 7.85378 26.3209 2.01481 26.3209C0.691414 26.3209 -0.305146 25.0695 0.0858815 23.7863C0.334659 22.9571 1.09865 22.3896 1.96804 22.3896C2.42366 21.4784 3.58086 21.1655 4.42194 21.7405C5.60261 22.5486 6.48466 22.3915 9.34669 22.3687L13.7086 18.006C14.4817 17.2344 15.7305 17.237 16.5003 18.0173C17.2643 18.7947 17.2218 20.0538 16.4536 20.822Z" fill="#F9CFAC"/>
<path d="M33.7636 36.4245C33.7636 38.398 32.1644 39.9993 30.1889 39.9993H9.81508C6.96378 39.9993 5.28661 36.8307 6.81758 34.4768C7.18675 33.9081 7.71696 33.4441 8.36266 33.1576L15.0867 31.1914H24.9172L31.6413 33.1576C32.9335 33.7318 33.7636 35.0144 33.7636 36.4245Z" fill="#5FC68F"/>
<path d="M33.7376 35.9991C33.5267 37.7601 32.0285 39.1441 30.1885 39.1441C29.2882 39.1441 28.5536 38.4147 28.5536 37.5092V36.0198L29.6939 35.4497L22.6388 36.4575C22.0354 36.5437 21.4199 36.4439 20.8747 36.1712C19.8873 35.6775 18.9285 35.7011 18.0912 36.1198C17.4829 36.424 16.7887 36.5123 16.123 36.3697L9.16902 34.8795L11.4495 36.0198V37.5092C11.4495 38.4122 10.7176 39.1441 9.81471 39.1441C7.9786 39.1441 6.47715 37.764 6.26562 35.9991C6.41376 34.7557 7.20751 33.6701 8.36229 33.1576L15.0864 31.1914H24.9168L31.6409 33.1576C32.8004 33.6729 33.5894 34.759 33.7376 35.9991Z" fill="#7ADBAE"/>
<path d="M17.052 37.5411C14.878 38.6281 14.6662 38.6524 14.3531 39.1432C14.1928 39.3941 14.103 39.6892 14.103 39.9984H12.1367V36.3125C16.5562 37.4171 15.5878 37.1751 17.052 37.5411Z" fill="#F9CFAC"/>
<path d="M27.8639 36.3125V39.9984H14.1016C14.1016 39.3897 14.4494 38.8417 14.981 38.5759C17.4671 37.3328 16.7911 37.714 18.0412 36.8805C19.0588 36.2028 20.5141 36.623 20.9211 37.8461L20.9824 38.0321L27.8639 36.3125Z" fill="#F9CFAC"/>
<path d="M15.9118 37.2561C14.9255 37.7492 14.7555 37.7996 14.4956 38.0972C13.8824 38.7995 13.1109 39.1432 12.1367 39.1432V36.3125L15.9118 37.2561Z" fill="#FFE4CC"/>
<path d="M27.8653 36.3125V39.1432H15.1158C14.8075 39.1432 14.6905 38.7219 14.9824 38.5759C17.4684 37.3328 16.7924 37.714 18.0425 36.8805C19.0601 36.2028 20.5155 36.623 20.9225 37.8461L20.9837 38.0321L27.8653 36.3125Z" fill="#FFE4CC"/>
<path d="M40.0005 24.3728C39.9916 25.4598 39.0723 26.3218 37.9845 26.3218C34.3216 26.3218 35.9547 26.3281 30.6082 26.2904C30.6238 26.3056 29.0594 26.3335 27.8656 25.1396C25.626 22.9 25.3567 22.6307 23.5489 20.8229C22.3355 19.6095 23.0703 17.531 24.7948 17.4336C25.3172 17.399 25.8803 17.5941 26.2939 18.007L30.6558 22.3696C33.465 22.3921 34.3942 22.5535 35.5806 21.7414C36.4216 21.1665 37.5788 21.4794 38.0345 22.3906C39.1246 22.3906 40.0092 23.2751 40.0005 24.3728Z" fill="#F9CFAC"/>
<path d="M16.9713 18.8173C16.7754 19.4915 16.8966 19.2501 12.1369 24.0098C11.3787 24.768 10.3573 25.1588 9.38303 25.1622C3.95573 25.1804 5.56541 25.192 2.01487 25.192C1.11734 25.192 0.334312 24.6041 0.0859375 23.7864C0.334715 22.9572 1.09871 22.3897 1.9681 22.3897C2.42372 21.4785 3.58092 21.1656 4.422 21.7406C5.60266 22.5487 6.48471 22.3916 9.34674 22.3688L13.7086 18.0061C14.7759 16.9411 16.5633 17.433 16.9713 18.8173Z" fill="#FFE4CC"/>
<path d="M39.9167 23.7863C39.6675 24.604 38.8836 25.1927 37.9845 25.1927C34.3216 25.1927 35.9548 25.199 30.6083 25.1612C30.6238 25.1765 29.0595 25.2043 27.8657 24.0105C23.286 19.4308 23.2331 19.5122 23.0312 18.818C23.4423 17.4235 25.2312 16.9463 26.294 18.0068L30.6558 22.3694C33.4651 22.3919 34.3942 22.5533 35.5806 21.7412C36.4217 21.1663 37.5789 21.4792 38.0345 22.3904C38.9024 22.3904 39.6673 22.9571 39.9167 23.7863Z" fill="#FFE4CC"/>
<path d="M21.9231 6.20822C21.8134 6.89125 20.9941 7.42186 20.0006 7.42186C19.0071 7.42186 18.1878 6.89125 18.0781 6.20822C18.5139 4.14478 21.496 4.18526 21.9231 6.20822Z" fill="#6D6D6D"/>
</g>
<defs>
<clipPath id="clip0_2010_14771">
<rect width="40" height="40" fill="white"/>
</clipPath>
</defs>
</svg>
