<svg width="20" height="20" viewBox="0 0 20 20" fill="none" xmlns="http://www.w3.org/2000/svg">
<g clip-path="url(#clip0_1474_15508)">
<path d="M8.978 9.99933C8.978 9.99933 6.50973 7.42188 5.0689 7.42188C3.62808 7.42188 0 9.99933 0 9.99933C0 9.99933 3.62812 12.5768 5.06894 12.5768C6.50977 12.5768 8.978 9.99933 8.978 9.99933Z" fill="#027DB8"/>
<path d="M9.99981 8.978C9.99981 8.978 12.5773 6.50973 12.5773 5.0689C12.5773 3.62808 9.99981 0 9.99981 0C9.99981 0 7.42236 3.62812 7.42236 5.06894C7.42236 6.50977 9.99981 8.978 9.99981 8.978Z" fill="#027DB8"/>
<path d="M10.0003 11.0234C10.0003 11.0234 7.42285 13.4917 7.42285 14.9325C7.42285 16.3734 10.0003 20.0015 10.0003 20.0015C10.0003 20.0015 12.5778 16.3734 12.5778 14.9325C12.5778 13.4917 10.0003 11.0234 10.0003 11.0234Z" fill="#027DB8"/>
<path d="M11.022 9.99933C11.022 9.99933 13.4902 12.5768 14.9311 12.5768C16.3719 12.5768 20 9.99933 20 9.99933C20 9.99933 16.3719 7.42188 14.9311 7.42188C13.4902 7.42188 11.022 9.99933 11.022 9.99933Z" fill="#027DB8"/>
<path d="M14.9311 6.24679C15.207 6.24679 15.6012 6.28867 16.2317 6.51718C16.7484 4.81741 17.0711 2.92969 17.0711 2.92969C15.9842 3.11306 14.5859 3.41659 13.4766 3.74933C13.7114 4.39157 13.7539 4.79086 13.7539 5.06965C13.7539 5.5649 13.5954 6.114 13.2734 6.72733C13.8868 6.40533 14.4359 6.24679 14.9311 6.24679Z" fill="#027DB8"/>
<path d="M3.74836 6.5242C4.39059 6.2893 4.78989 6.24679 5.06867 6.24679C5.56397 6.24679 6.11291 6.40526 6.72636 6.72733C6.40428 6.11388 6.24581 5.5649 6.24581 5.06965C6.24581 4.79377 6.28769 4.39957 6.5162 3.76906C4.81644 3.25239 2.92871 2.92969 2.92871 2.92969C3.1095 4.00428 3.41491 5.41251 3.74836 6.5242Z" fill="#027DB8"/>
<path d="M16.2514 13.4765C15.6092 13.7114 15.2099 13.7539 14.9311 13.7539C14.4358 13.7539 13.8868 13.5954 13.2734 13.2734C13.5954 13.8868 13.7539 14.4358 13.7539 14.9311C13.7539 15.207 13.712 15.6012 13.4835 16.2317C15.1833 16.7483 17.071 17.071 17.071 17.071C16.8888 15.9883 16.5834 14.5832 16.2514 13.4765Z" fill="#027DB8"/>
<path d="M5.06916 13.7539C4.79328 13.7539 4.39908 13.7121 3.76857 13.4836C3.25191 15.1834 2.9292 17.071 2.9292 17.071C4.01194 16.8888 5.41708 16.5834 6.52375 16.2514C6.28885 15.6092 6.24634 15.2099 6.24634 14.9311C6.24634 14.4358 6.40489 13.8868 6.72685 13.2734C6.11351 13.5954 5.56438 13.7539 5.06916 13.7539Z" fill="#027DB8"/>
</g>
<defs>
<clipPath id="clip0_1474_15508">
<rect width="20" height="20" fill="white"/>
</clipPath>
</defs>
</svg>
