<svg width="40" height="40" viewBox="0 0 40 40" fill="none" xmlns="http://www.w3.org/2000/svg">
<path d="M16.9446 36.2251C16.5526 36.6329 16.0945 36.9695 15.5735 37.2228C14.6188 37.6846 13.8861 37.6914 13.1265 37.6914C12.9728 37.3733 12.6612 37.0726 12.2651 36.9325C10.9325 36.4608 10.9022 36.4124 10.4545 36.4348C9.09717 34.7452 9.6056 32.2281 11.4046 31.2109C12.5718 31.8558 13.337 33.1073 13.337 34.5266C15.7605 35.8149 14.7859 35.3537 16.9446 36.2251Z" fill="#6D6D6D"/>
<path d="M18.3392 32.7457C18.3392 34.1111 17.7915 35.3401 16.9463 36.2242C14.8176 35.365 15.7075 35.7849 13.3387 34.5257C13.3387 33.0998 12.5668 31.849 11.4062 31.2101C12.3972 30.6339 12.9083 30.7673 16.4156 30.7673C17.4791 30.7673 18.3392 31.6534 18.3392 32.7457Z" fill="#F9CFAC"/>
<path d="M17.1474 33.7548C16.7177 34.7789 15.5462 35.2693 14.516 34.8542C14.5076 34.8508 14.5888 34.8929 13.3256 34.221C13.2353 33.0717 12.6425 32.0692 11.773 31.4458C11.6908 31.3433 11.6037 31.2466 11.5117 31.1546C12.4586 30.6488 12.947 30.7707 16.4146 30.7707C16.738 30.7707 17.0429 30.853 17.3107 30.9981C17.8606 31.8779 17.5551 32.7831 17.1474 33.7548Z" fill="#FFE4CC"/>
<path d="M13.2201 38.9362C12.9435 39.7581 12.0676 40.196 11.2651 39.9121L10.0827 39.496C9.27477 39.2106 8.85344 38.3102 9.12943 37.4918C9.3405 36.8636 9.90515 36.4597 10.5038 36.4312C10.9104 36.4188 10.9768 36.4752 12.266 36.932C13.0745 37.2184 13.4953 38.1157 13.2201 38.9362Z" fill="#6D6D6D"/>
<path d="M15.1609 35.496C13.9032 36.4477 12.4267 36.5052 11.1958 35.7621C11.0692 35.6857 9.84607 35.2681 9.83784 35.2654C9.35763 33.6969 10.0313 31.9876 11.4049 31.2109C12.5721 31.8558 13.3374 33.1073 13.3374 34.5266L15.1609 35.496Z" fill="#797A7A"/>
<path d="M12.0091 37.6996C11.7325 38.5215 10.8566 38.9594 10.0541 38.6755L9.07656 38.332C8.83307 37.136 9.95528 36.1184 11.0832 36.5181L11.4898 36.6612C11.9046 36.8072 12.1569 37.2602 12.0091 37.6996Z" fill="#797A7A"/>
<path d="M29.8134 26.1523C29.7765 33.1657 25.453 38.2575 19.8133 39.998C18.4027 39.998 17.1082 39.2022 16.4734 37.9341C16.1415 37.2711 16.2478 37.4838 16 36.9873C16.6568 36.583 17.2538 35.9414 17.4469 35.6105C18.2386 34.4707 18.4528 33.0426 18.2889 32.3029L19.6643 32.0279C21.2009 31.7206 22.4859 30.6727 23.0958 29.2293C23.0993 29.2211 23.0586 29.4326 23.6596 26.1523H29.8134Z" fill="#B3CEC9"/>
<path d="M27.2333 26.1523C26.4304 31.4683 22.6517 35.9557 17.3937 37.5785C16.9865 37.5785 16.5831 37.512 16.1968 37.3817L16 36.9873C17.4438 36.0987 18.3373 34.4763 18.3373 32.7457C18.3373 32.5933 18.3204 32.4449 18.2889 32.3029L19.6643 32.0279C21.1743 31.7259 22.4754 30.6975 23.0958 29.2293L23.6596 26.1523H27.2333Z" fill="#CAE0DD"/>
<path d="M29.8133 25.8219C29.8133 26.9172 29.1173 28.3731 28.4801 29.2311H23.0957C23.7727 6.27512 23.6595 12.4903 23.6595 0C24.5878 0 25.4233 0.565377 25.7685 1.42917L26.6436 3.61567C26.9047 4.27364 26.594 4.9975 25.9669 5.2747C25.9669 5.93525 27.5521 15.7606 28.4801 22.3078C28.4801 22.3078 28.6591 22.5723 29.0439 23.324C29.4286 24.0757 29.8133 25.0266 29.8133 25.8219Z" fill="#F9CFAC"/>
<path d="M28.7668 25.8232C28.7668 26.9185 28.0707 28.3744 27.4336 29.2324H23.0977C23.7755 6.24428 23.6614 12.3642 23.6614 0.257812C24.134 0.503804 24.5155 0.913521 24.722 1.43051L25.5971 3.61701C25.8582 4.27498 25.5475 4.99884 24.9204 5.27604C24.9204 5.93659 26.5056 15.7619 27.4336 22.3091C27.4336 22.3091 27.6126 22.5737 27.9973 23.3254C28.382 24.0771 28.7668 25.028 28.7668 25.8232Z" fill="#FFE4CC"/>
<path d="M29.7657 26.3637L27.3768 29.2309H23.0957L23.6595 10H26.6178C28.1364 19.7161 27.7285 17.005 28.4801 22.3076C28.4801 22.3076 28.6591 22.5722 29.0439 23.3239C29.5408 24.2947 29.9395 25.3258 29.7657 26.3637Z" fill="#5FC68F"/>
<path d="M28.7979 26.3637L26.4089 29.2309H23.0957L23.6595 10H25.65C27.1685 19.7161 26.7607 17.005 27.5123 22.3076C27.5123 22.3076 27.6913 22.5722 28.076 23.3239C28.5729 24.2947 28.9717 25.3258 28.7979 26.3637Z" fill="#7ADBAE"/>
<path d="M30.9559 28.325C30.9559 28.838 30.7889 29.3558 30.4397 29.7921L29.0444 31.5366L28.3322 37.9373C27.8951 39.1874 26.7071 40.0071 25.3827 39.9979C19.1735 39.9548 19.6253 40.0114 19.4523 39.9802C18.0975 39.7406 17.8351 37.8925 19.0829 37.2912C19.6315 37.0266 20.1667 36.9234 20.7581 36.9218C25.4323 36.91 25.2013 36.8993 25.2376 36.8993C25.2464 36.8603 26.7205 30.0734 26.7369 29.9978C29.9851 26.099 29.8051 26.3134 29.8138 26.3047C29.822 26.3128 30.9559 26.9081 30.9559 28.325Z" fill="#F9CFAC"/>
<path d="M30.1499 27.5185C30.1499 28.0315 29.983 28.5493 29.6338 28.9856L28.2385 30.7301L27.5263 37.1307C27.0891 38.3809 25.9012 39.2006 24.5768 39.1914C18.4437 39.1488 18.7232 39.235 18.3746 39.0962C18.1022 38.4069 18.4078 37.6168 19.0835 37.2912C20.0936 36.804 20.4421 36.9114 25.2164 36.8993C25.2516 36.8992 25.1219 37.4356 26.7375 29.9978C30.0222 26.0554 29.7944 26.3247 29.8144 26.3047C29.9103 26.4006 30.1499 26.9637 30.1499 27.5185Z" fill="#FFE4CC"/>
</svg>
