<svg width="40" height="40" viewBox="0 0 40 40" fill="none" xmlns="http://www.w3.org/2000/svg">
<path d="M33.5493 20.4439V23.873H19.3555V18.0664C24.7108 18.0664 27.9098 19.0584 33.5493 20.4439Z" fill="#5FC68F"/>
<path d="M33.5493 20.4439C33.5493 21.9771 32.3071 23.2278 30.7654 23.2278H19.3555V18.0664C24.7108 18.0664 27.9098 19.0584 33.5493 20.4439Z" fill="#7ADBAE"/>
<path d="M39.9986 19.5635V22.5818C39.9986 23.2945 39.4209 23.8722 38.7083 23.8722H33.5469V20.4431L38.0018 21.5375C38.4071 19.9157 38.417 19.4956 38.9902 19.0542C39.4014 18.7375 39.9986 19.0443 39.9986 19.5635Z" fill="#F9CFAC"/>
<path d="M39.9986 19.5635V21.9367C39.9986 22.6493 39.4209 23.227 38.7083 23.227H33.5469V20.4431L38.0018 21.5375C38.4071 19.9157 38.417 19.4956 38.9902 19.0542C39.4014 18.7375 39.9986 19.0443 39.9986 19.5635Z" fill="#FFE4CC"/>
<path d="M6.62531 20.7057C6.09651 21.2552 5.4194 21.6556 4.64866 21.8348C4.14776 21.9494 3.81654 21.9356 3.42282 21.9356C3.10685 21.3509 2.58168 21.2577 1.70908 20.9501C1.52577 20.8855 1.36601 20.8707 1.18165 20.8815C0.0496117 19.4759 0.459862 17.3616 1.97844 16.5C2.95999 17.0388 3.59944 18.0973 3.59944 19.2815C5.51029 20.2966 4.83084 19.9832 6.62531 20.7057Z" fill="#6D6D6D"/>
<path d="M5.03401 20.0428C4.21069 20.5607 3.5264 20.6452 2.60412 20.6452C2.46356 20.3641 2.20782 20.1243 1.88153 20.0089C0.810055 19.6301 0.791829 19.6124 0.589567 19.5928C0.346981 18.3521 0.93417 17.0933 1.97992 16.5C2.21057 16.6266 2.42347 16.7831 2.6138 16.9637C2.72187 17.2855 2.78074 17.6315 2.78074 17.9912L3.46624 18.3557C3.55414 18.6484 3.60092 18.9589 3.60092 19.2815L5.03401 20.0428Z" fill="#6D6D6D"/>
<path d="M7.7951 17.7909C7.7951 18.8768 7.38743 19.9152 6.62734 20.7087C4.83182 19.9858 5.51127 20.2992 3.60147 19.2845C3.60147 18.0796 2.945 17.0337 1.98047 16.503C2.81379 16.0215 3.25783 16.132 6.18217 16.132C7.08598 16.132 7.7951 16.8884 7.7951 17.7909Z" fill="#F9CFAC"/>
<path d="M7.73981 17.3629C7.65392 18.7061 6.04978 19.7496 4.60209 19.0682C4.0303 18.7991 3.6069 18.2909 3.42924 17.6764C3.26843 17.1201 2.96246 16.6285 2.55664 16.2483C3.0723 16.0912 3.12544 16.129 6.18091 16.129C6.92931 16.129 7.55755 16.6524 7.73981 17.3629Z" fill="#FFE4CC"/>
<path d="M3.50218 22.9809C3.27073 23.6704 2.53603 24.0374 1.86263 23.7994L0.870678 23.4502C-0.461042 22.9805 -0.191682 20.9634 1.22391 20.88C1.38569 20.8743 1.53609 20.8893 1.71102 20.951C2.87701 21.362 2.72959 21.3099 2.75217 21.3196C3.38831 21.5733 3.73066 22.303 3.50218 22.9809Z" fill="#6D6D6D"/>
<path d="M5.03317 20.0428C4.19984 20.5671 3.50797 20.6452 2.60328 20.6452C3.14256 21.6948 2.14633 22.898 1.04115 22.5082C-0.0089518 22.1379 0.0407266 22.1567 0 22.1404C0.0303232 21.4735 0.538962 20.9373 1.18228 20.8815C0.050243 19.4759 0.460493 17.3616 1.97907 16.5C2.96062 17.0388 3.60007 18.0973 3.60007 19.2815L5.03317 20.0428Z" fill="#797A7A"/>
<path d="M19.3546 18.0644V23.871C10.4909 23.871 8.77934 23.9384 8.38667 23.6976V23.7242C6.8122 23.4129 5.98662 22.8181 4.51562 21.9355L4.6495 21.8347C5.75654 21.5773 6.67277 20.8405 7.17132 19.9992C9.21895 19.9695 8.86902 18.5354 10.9803 18.1298C12.6765 17.8026 13.2924 18.7096 14.7836 18.7096L19.3546 18.0644Z" fill="#B3CEC9"/>
<path d="M19.3545 18.0664V23.2278C10.9052 23.2278 9.40925 23.3125 9.03166 23.081C7.51171 22.7804 6.67282 22.1996 5.5332 21.5157C6.06846 21.247 6.52758 20.8602 6.87194 20.4261C7.06267 20.2747 7.25203 20.0894 7.33324 19.9947C9.03408 19.8931 9.0865 18.6955 10.3172 18.3261C10.7347 18.1597 11.1882 18.0664 11.6672 18.0664C12.9484 18.0664 13.5099 18.7116 14.7834 18.7116L19.3545 18.0664Z" fill="#CAE0DD"/>
<path d="M23.2259 22.5934C23.2203 23.3072 22.6162 23.8733 21.9025 23.8733H9.0321C8.17506 23.8733 7.56247 23.0518 7.78691 22.245C7.93296 21.6968 8.43571 21.2926 9.0321 21.2926C19.7023 21.2926 19.0116 21.3095 19.3549 21.2531C20.2567 21.1114 20.3098 20.6797 20.942 20.6797C21.3461 20.6797 21.7388 20.8999 21.9356 21.2926C22.6525 21.2926 23.2307 21.8744 23.2259 22.5934Z" fill="#F9CFAC"/>
<path d="M23.1782 22.2426C23.0242 22.7959 22.5016 23.1967 21.9008 23.1967H9.03034C8.44525 23.1967 7.93677 22.8027 7.78516 22.245C7.93121 21.6968 8.43396 21.2926 9.03034 21.2926H18.8184C19.3947 21.2926 19.8599 21.1811 20.3152 20.8724C20.8633 20.4986 21.6291 20.6844 21.9338 21.2926C22.5317 21.2926 23.032 21.6978 23.1782 22.2426Z" fill="#FFE4CC"/>
</svg>
