<svg width="40" height="40" viewBox="0 0 40 40" fill="none" xmlns="http://www.w3.org/2000/svg">
<g clip-path="url(#clip0_1925_30834)">
<path d="M20 40C31.0457 40 40 31.0457 40 20C40 8.9543 31.0457 0 20 0C8.9543 0 0 8.9543 0 20C0 31.0457 8.9543 40 20 40Z" fill="#5FC68F"/>
<path d="M3.44828 21.7241C3.44828 28.8698 7.19569 35.1405 12.8336 38.6776C5.32759 35.7957 0 28.5198 0 20C0 8.95431 8.95431 0 20 0C23.8991 0 27.5379 1.11638 30.6147 3.04655C28.3897 2.19224 25.9733 1.72414 23.4483 1.72414C12.4026 1.72414 3.44828 10.6784 3.44828 21.7241Z" fill="#5FC68F"/>
<path d="M20.0828 37.1655C29.5173 37.1655 37.1655 29.5173 37.1655 20.0828C37.1655 10.6482 29.5173 3 20.0828 3C10.6482 3 3 10.6482 3 20.0828C3 29.5173 10.6482 37.1655 20.0828 37.1655Z" fill="#DBEEFF"/>
<path d="M8.09038 22.5869C8.09038 28.2387 10.8352 33.2499 15.0645 36.3594C8.03694 34.2412 2.91797 27.7188 2.91797 20.0007C2.91797 10.5662 10.5662 2.91797 20.0007 2.91797C23.7835 2.91797 27.2792 4.14728 30.1094 6.22831C19.1494 2.92771 8.09038 11.1408 8.09038 22.5869Z" fill="#EEF7FF"/>
<path d="M20.0002 34.9688C19.6193 34.9688 19.3105 34.66 19.3105 34.2791V32.6662C19.3105 32.2854 19.6193 31.9766 20.0002 31.9766C20.3811 31.9766 20.6899 32.2854 20.6899 32.6662V34.2791C20.6899 34.6599 20.3811 34.9688 20.0002 34.9688Z" fill="#B5D5F5"/>
<path d="M26.7951 32.4613C27.176 32.4613 27.4848 32.1526 27.4848 31.7717C27.4848 31.3908 27.176 31.082 26.7951 31.082C26.4142 31.082 26.1055 31.3908 26.1055 31.7717C26.1055 32.1526 26.4142 32.4613 26.7951 32.4613Z" fill="#B5D5F5"/>
<path d="M13.2053 32.4613C13.5862 32.4613 13.8949 32.1526 13.8949 31.7717C13.8949 31.3908 13.5862 31.082 13.2053 31.082C12.8244 31.082 12.5156 31.3908 12.5156 31.7717C12.5156 32.1526 12.8244 32.4613 13.2053 32.4613Z" fill="#B5D5F5"/>
<path d="M26.7951 8.92228C27.176 8.92228 27.4848 8.61351 27.4848 8.23262C27.4848 7.85174 27.176 7.54297 26.7951 7.54297C26.4142 7.54297 26.1055 7.85174 26.1055 8.23262C26.1055 8.61351 26.4142 8.92228 26.7951 8.92228Z" fill="#B5D5F5"/>
<path d="M20.0002 8.02349C19.6193 8.02349 19.3105 7.7147 19.3105 7.33384V5.7209C19.3105 5.34004 19.6193 5.03125 20.0002 5.03125C20.3811 5.03125 20.6899 5.34004 20.6899 5.7209V7.33384C20.6899 7.7147 20.3811 8.02349 20.0002 8.02349Z" fill="#B5D5F5"/>
<path d="M13.2053 8.92228C13.5862 8.92228 13.8949 8.61351 13.8949 8.23262C13.8949 7.85174 13.5862 7.54297 13.2053 7.54297C12.8244 7.54297 12.5156 7.85174 12.5156 8.23262C12.5156 8.61351 12.8244 8.92228 13.2053 8.92228Z" fill="#B5D5F5"/>
<path d="M27.3267 12C36.2244 12 36.2244 29 27.3267 29H12.7132C3.76226 29 3.76226 12 12.7132 12H27.3267Z" fill="#7ADBAE"/>
<path d="M17.2863 19.6196C16.8937 19.6196 16.5401 19.5372 16.2255 19.3723C15.9137 19.205 15.6659 18.974 15.4822 18.6793C15.2984 18.3845 15.2065 18.0461 15.2065 17.664V16.0231C15.2065 15.6134 15.297 15.2575 15.478 14.9553C15.6617 14.6531 15.9179 14.4196 16.2464 14.2548C16.5777 14.0899 16.9619 14.0075 17.399 14.0075C17.7025 14.0075 17.9906 14.0537 18.2635 14.1461C18.5363 14.236 18.7785 14.3809 18.9901 14.5807L18.2635 15.2138C18.1577 15.1014 18.0282 15.0128 17.8751 14.9478C17.7248 14.8829 17.5661 14.8504 17.399 14.8504C17.1651 14.8504 16.9605 14.9004 16.7851 15.0003C16.6097 15.0977 16.4733 15.2263 16.3759 15.3862C16.2812 15.546 16.2339 15.7171 16.2339 15.8994V16.7948L16.0501 16.615C16.2227 16.4352 16.4301 16.2953 16.6724 16.1954C16.9146 16.093 17.1679 16.0418 17.4324 16.0418C17.8111 16.0418 18.1452 16.1192 18.4347 16.2741C18.7242 16.4264 18.9525 16.6362 19.1196 16.9035C19.2866 17.1682 19.3702 17.4704 19.3702 17.8101C19.3702 18.1473 19.2741 18.4532 19.082 18.728C18.8927 19.0002 18.6407 19.2175 18.3261 19.3798C18.0115 19.5397 17.6649 19.6196 17.2863 19.6196ZM17.2863 18.7542C17.4811 18.7542 17.6593 18.713 17.8208 18.6305C17.9823 18.5456 18.1103 18.432 18.205 18.2896C18.3025 18.1448 18.3512 17.9849 18.3512 17.8101C18.3512 17.6353 18.3038 17.4754 18.2092 17.3305C18.1145 17.1857 17.9865 17.0708 17.825 16.9859C17.6663 16.8985 17.4895 16.8548 17.2946 16.8548C17.0997 16.8548 16.9215 16.8985 16.7601 16.9859C16.5986 17.0708 16.4705 17.1857 16.3759 17.3305C16.2812 17.4754 16.2339 17.6353 16.2339 17.8101C16.2339 17.9799 16.2798 18.1373 16.3717 18.2821C16.4663 18.4245 16.593 18.5394 16.7517 18.6268C16.9132 18.7117 17.0914 18.7542 17.2863 18.7542Z" fill="#555555"/>
<path d="M22.5573 19.6196C22.1314 19.6196 21.7555 19.5384 21.4298 19.3761C21.104 19.2112 20.8493 18.9827 20.6655 18.6905C20.4846 18.3983 20.3941 18.0611 20.3941 17.679V15.9406C20.3941 15.5585 20.4846 15.2213 20.6655 14.9291C20.8493 14.6369 21.104 14.4096 21.4298 14.2473C21.7555 14.0824 22.1314 14 22.5573 14C22.9833 14 23.3578 14.0824 23.6807 14.2473C24.0065 14.4096 24.2612 14.6369 24.445 14.9291C24.6287 15.2213 24.7206 15.5585 24.7206 15.9406V17.679C24.7206 18.0611 24.6287 18.3983 24.445 18.6905C24.2612 18.9827 24.0065 19.2112 23.6807 19.3761C23.3578 19.5384 22.9833 19.6196 22.5573 19.6196ZM22.5573 18.7617C22.7689 18.7617 22.961 18.7167 23.1336 18.6268C23.3063 18.5344 23.4427 18.412 23.5429 18.2597C23.6431 18.1048 23.6932 17.9325 23.6932 17.7427V15.8732C23.6932 15.6809 23.6431 15.5085 23.5429 15.3562C23.4427 15.2013 23.3063 15.079 23.1336 14.989C22.961 14.8966 22.7689 14.8504 22.5573 14.8504C22.3457 14.8504 22.1536 14.8966 21.981 14.989C21.8084 15.079 21.672 15.2013 21.5718 15.3562C21.4715 15.5085 21.4214 15.6809 21.4214 15.8732V17.7427C21.4214 17.9325 21.4715 18.1048 21.5718 18.2597C21.672 18.412 21.8084 18.5344 21.981 18.6268C22.1536 18.7167 22.3457 18.7617 22.5573 18.7617Z" fill="#555555"/>
<path d="M18.4248 27V24.5424C18.4248 24.2651 18.3482 24.0491 18.1951 23.8942C18.042 23.7369 17.8346 23.6582 17.5729 23.6582C17.4114 23.6582 17.2666 23.6919 17.1386 23.7594C17.0105 23.8243 16.9089 23.9217 16.8337 24.0516C16.7585 24.179 16.7209 24.3313 16.7209 24.5086L16.2741 24.2726C16.2713 23.9929 16.3409 23.7469 16.4829 23.5346C16.6277 23.3198 16.8226 23.1524 17.0676 23.0326C17.3126 22.9127 17.5854 22.8527 17.8861 22.8527C18.3844 22.8527 18.7659 22.9876 19.0304 23.2573C19.2976 23.5246 19.4313 23.8768 19.4313 24.3138V27H18.4248ZM13 27V22.9539H13.8895V24.2089H14.0148V27H13ZM15.7187 27V24.5536C15.7187 24.2714 15.6421 24.0516 15.489 23.8942C15.3359 23.7369 15.127 23.6582 14.8626 23.6582C14.6064 23.6582 14.4004 23.7369 14.2445 23.8942C14.0914 24.0516 14.0148 24.2564 14.0148 24.5086L13.5638 24.2389C13.5638 23.9767 13.6362 23.7406 13.7809 23.5308C13.9257 23.321 14.1206 23.1562 14.3656 23.0363C14.6134 22.9139 14.8904 22.8527 15.1967 22.8527C15.5335 22.8527 15.8147 22.9177 16.0402 23.0476C16.2685 23.1749 16.4384 23.3498 16.5497 23.572C16.6639 23.7918 16.7209 24.0403 16.7209 24.3176V27H15.7187Z" fill="#555555"/>
<path d="M20.604 22.3395V21.5115H21.6105V22.3395H20.604ZM20.604 27V22.9539H21.6105V27H20.604Z" fill="#555555"/>
<path d="M25.981 27V25.0519C25.981 24.9245 25.9713 24.7834 25.9518 24.6285C25.9323 24.4737 25.8864 24.3251 25.814 24.1827C25.7444 24.0378 25.6386 23.9192 25.4966 23.8268C25.3574 23.7344 25.1681 23.6882 24.9286 23.6882C24.8006 23.6882 24.6739 23.7069 24.5486 23.7444C24.4233 23.7818 24.3092 23.8468 24.2062 23.9392C24.1059 24.0291 24.0252 24.154 23.9639 24.3138C23.9027 24.4712 23.8721 24.6735 23.8721 24.9207L23.2749 24.6922C23.2749 24.3476 23.3487 24.0353 23.4962 23.7556C23.6466 23.4759 23.8665 23.2536 24.156 23.0888C24.4456 22.9214 24.802 22.8378 25.2251 22.8378C25.5592 22.8378 25.8349 22.8877 26.052 22.9876C26.2692 23.0875 26.4418 23.2149 26.5699 23.3697C26.6979 23.5246 26.7926 23.6894 26.8538 23.8643C26.9151 24.0391 26.9541 24.2052 26.9708 24.3625C26.9903 24.5174 27 24.6435 27 24.7409V27H25.981ZM22.8531 27V22.9539H23.751V24.2089H23.8721V27H22.8531Z" fill="#555555"/>
</g>
<defs>
<clipPath id="clip0_1925_30834">
<rect width="40" height="40" fill="white"/>
</clipPath>
</defs>
</svg>
