<svg width="387" height="683" viewBox="0 0 387 683" fill="none" xmlns="http://www.w3.org/2000/svg">
<path d="M109.922 191.167C111.484 197.583 112.818 204.135 113.901 210.823C114.406 213.932 114.844 217.078 115.245 220.245C118.187 219.01 121.13 217.818 124.078 216.698C130.411 214.292 136.75 212.172 143.089 210.318C144.74 200.698 145.667 190.797 145.667 180.667C145.667 176.521 145.505 172.411 145.208 168.344C141.542 170.12 137.901 172.036 134.307 174.104C125.531 179.177 117.422 184.927 109.922 191.167Z" fill="#F6F6F6"/>
<path d="M175.688 115.542C194.563 111.135 214.646 108.781 235.828 108.495C232.188 79.1979 225.636 58.7396 225.006 56.8177C222.266 48.4687 214.495 43.0469 206.011 43.0469C204.651 43.0469 203.276 43.1875 201.896 43.474C199.917 43.8906 178.933 48.4427 151.745 59.9375C158.927 72.7812 165.037 85.7604 169.969 98.7396C172.089 104.339 173.99 109.937 175.688 115.542Z" fill="#F6F6F6"/>
<path d="M39.4639 488.64C35.1774 493.89 30.7451 498.896 26.1826 503.677C29.5628 512.823 33.7087 521.864 38.7764 530.64C40.8493 534.234 43.042 537.708 45.3337 541.083C47.6253 537.708 49.818 534.234 51.8962 530.64C56.9587 521.864 61.1045 512.828 64.4847 503.677C59.9222 498.896 55.4899 493.89 51.2087 488.64C49.2191 486.198 47.2607 483.693 45.3337 481.151C43.4066 483.693 41.4534 486.198 39.4639 488.64Z" fill="#F6F6F6"/>
<path d="M86.5312 132.026C90.0885 138.182 93.3385 144.568 96.2917 151.151C102.146 146.927 108.151 143.021 114.307 139.469C121.786 135.151 129.578 131.302 137.635 127.88C132.193 109.693 124.458 92.8542 115.932 77.8438C101.047 86.5781 85.9323 97.2917 72.125 110.318C77.4167 117.323 82.2292 124.568 86.5312 132.026Z" fill="#F6F6F6"/>
<path d="M51.2087 194.026C55.4899 188.776 59.9222 183.771 64.4847 178.995C61.1045 169.839 56.9587 160.802 51.8962 152.026C49.818 148.432 47.6253 144.958 45.3337 141.583C43.042 144.958 40.8493 148.432 38.7712 152.026C33.7087 160.802 29.5628 169.839 26.1826 178.99C30.7451 183.771 35.1774 188.776 39.4639 194.026C41.4534 196.469 43.4066 198.974 45.3337 201.516C47.2607 198.974 49.2191 196.469 51.2087 194.026Z" fill="#F6F6F6"/>
<path d="M185.667 180.667C185.667 187.776 185.292 194.927 184.552 202.115C191.74 201.375 198.891 201 206 201C214.615 201 223.287 201.542 232.006 202.62C236.381 184.151 238.099 165.703 238.219 148.443C220.959 148.568 202.516 150.281 184.042 154.656C185.12 163.375 185.667 172.052 185.667 180.667Z" fill="#F6F6F6"/>
<path d="M212.562 252.359C214.635 248.766 216.542 245.13 218.318 241.458C214.255 241.167 210.146 241 206 241C195.865 241 185.964 241.927 176.349 243.578C174.49 249.917 172.375 256.26 169.969 262.594C168.849 265.536 167.656 268.479 166.422 271.422C176.411 272.682 186.125 274.437 195.521 276.724C201.75 269.224 207.495 261.125 212.562 252.359Z" fill="#F6F6F6"/>
<path d="M169.969 583.927C165.036 596.911 158.927 609.885 151.75 622.729C178.937 634.224 199.917 638.776 201.896 639.193C203.271 639.479 204.651 639.62 206.01 639.62C214.49 639.62 222.266 634.198 225.005 625.849C225.635 623.927 232.187 603.469 235.823 574.172C214.641 573.885 194.562 571.531 175.687 567.13C173.99 572.729 172.094 578.333 169.969 583.927Z" fill="#F6F6F6"/>
<path d="M45.3336 602.047C41.0628 606.057 36.6149 609.958 31.9743 613.74C21.2087 622.521 9.43261 630.703 -3.20801 638.234C14.5889 661.781 30.4847 676.214 31.9899 677.568C35.7868 680.969 40.5628 682.667 45.3336 682.667C50.1045 682.667 54.8753 680.969 58.6774 677.568C60.1826 676.214 76.0784 661.781 93.8753 638.234C81.2347 630.703 69.4586 622.521 58.693 613.745C54.0524 609.958 49.6045 606.057 45.3336 602.047Z" fill="#F6F6F6"/>
<path d="M45.3336 80.6146C49.6045 76.6094 54.0524 72.7083 58.693 68.9219C69.4534 60.1458 81.2347 51.9583 93.8753 44.4271C76.0732 20.8854 60.1826 6.45312 58.6774 5.09896C54.8753 1.69792 50.1045 0 45.3336 0C40.5628 0 35.792 1.69792 31.9899 5.09896C30.4847 6.45312 14.5889 20.8854 -3.20801 44.4271C9.43261 51.9635 21.2087 60.1458 31.9743 68.9219C36.6149 72.7083 41.0628 76.6146 45.3336 80.6146Z" fill="#F6F6F6"/>
<path d="M326.729 234.922C338.219 207.734 342.776 186.75 343.193 184.771C345.281 174.792 339.536 164.839 329.849 161.661C327.927 161.031 307.479 154.484 278.187 150.844C277.99 165.557 276.786 179.849 274.568 193.557C273.609 199.469 272.453 205.276 271.125 210.974C276.724 212.677 282.328 214.573 287.927 216.703C300.911 221.635 313.885 227.74 326.729 234.922Z" fill="#F6F6F6"/>
<path d="M166.422 411.245C167.656 414.187 168.849 417.13 169.969 420.073C172.375 426.411 174.495 432.75 176.349 439.088C185.964 440.739 195.87 441.667 206 441.667C210.146 441.667 214.255 441.505 218.323 441.208C216.542 437.542 214.63 433.901 212.562 430.307C207.495 421.542 201.75 413.443 195.521 405.943C186.125 408.229 176.411 409.984 166.422 411.245Z" fill="#F6F6F6"/>
<path d="M245.084 341.333C241.709 339.042 238.24 336.849 234.646 334.771C225.87 329.708 216.834 325.557 207.683 322.177C202.901 326.74 197.896 331.177 192.641 335.458C190.198 337.448 187.693 339.401 185.151 341.333C187.693 343.26 190.198 345.213 192.641 347.208C197.896 351.489 202.901 355.922 207.683 360.484C216.828 357.109 225.87 352.958 234.646 347.891C238.235 345.818 241.709 343.625 245.084 341.333Z" fill="#F6F6F6"/>
<path d="M254.641 300.135C262.099 304.437 269.339 309.25 276.349 314.536C289.375 300.734 300.089 285.62 308.823 270.734C293.813 262.203 276.979 254.474 258.797 249.031C255.37 257.115 251.506 264.901 247.198 272.359C243.646 278.516 239.74 284.521 235.511 290.375C242.084 293.333 248.469 296.568 254.641 300.135Z" fill="#F6F6F6"/>
<path d="M381.567 327.99C380.213 326.479 365.781 310.589 342.239 292.792C334.708 305.432 326.521 317.208 317.744 327.974C313.958 332.615 310.052 337.063 306.052 341.333C310.057 345.604 313.958 350.052 317.744 354.693C326.521 365.458 334.703 377.234 342.234 389.875C365.781 372.078 380.213 356.182 381.567 354.677C388.364 347.078 388.364 335.589 381.567 327.99Z" fill="#F6F6F6"/>
<path d="M96.2913 531.516C93.3382 538.099 90.0882 544.484 86.5361 550.641C82.2288 558.099 77.4163 565.339 72.1299 572.349C85.932 585.375 101.047 596.089 115.937 604.823C124.463 589.807 132.198 572.974 137.64 554.786C129.578 551.365 121.786 547.521 114.307 543.198C108.151 539.646 102.146 535.74 96.2913 531.516Z" fill="#F6F6F6"/>
<path d="M4.1354 550.641C0.578114 544.484 -2.67189 538.104 -5.62501 531.516C-11.4792 535.74 -17.4844 539.646 -23.6406 543.198C-31.1198 547.521 -38.9115 551.365 -46.9688 554.786C-41.526 572.974 -33.7917 589.812 -25.2656 604.818C-10.3802 596.083 4.73436 585.375 18.5364 572.349C13.25 565.339 8.43749 558.099 4.1354 550.641Z" fill="#F6F6F6"/>
<path d="M124.073 465.969C121.13 464.849 118.187 463.656 115.245 462.422C114.844 465.589 114.406 468.729 113.901 471.839C112.812 478.531 111.479 485.083 109.922 491.5C117.422 497.74 125.531 503.495 134.307 508.557C137.901 510.635 141.542 512.547 145.208 514.323C145.505 510.255 145.667 506.151 145.667 502C145.667 491.87 144.74 481.969 143.089 472.349C136.75 470.49 130.411 468.375 124.073 465.969Z" fill="#F6F6F6"/>
<path d="M326.729 447.745C313.885 454.927 300.911 461.037 287.926 465.969C282.327 468.094 276.729 469.995 271.119 471.693C272.452 477.396 273.609 483.198 274.567 489.109C276.786 502.818 277.984 517.109 278.187 531.823C307.479 528.182 327.926 521.635 329.848 521.005C339.531 517.823 345.281 507.875 343.187 497.896C342.775 495.912 338.218 474.932 326.729 447.745Z" fill="#F6F6F6"/>
<path d="M276.354 368.13C269.344 373.417 262.099 378.229 254.646 382.531C248.469 386.099 242.083 389.338 235.516 392.292C239.74 398.146 243.646 404.151 247.203 410.307C251.505 417.766 255.37 425.552 258.797 433.635C276.984 428.193 293.818 420.458 308.823 411.937C300.089 397.047 289.375 381.932 276.354 368.13Z" fill="#F6F6F6"/>
<path d="M206 481.667C198.891 481.667 191.74 481.292 184.552 480.557C185.292 487.74 185.667 494.891 185.667 502C185.667 510.615 185.12 519.292 184.047 528.01C202.516 532.385 220.964 534.099 238.219 534.224C238.099 516.964 236.38 498.516 232.005 480.047C223.286 481.125 214.615 481.667 206 481.667Z" fill="#F6F6F6"/>
<path d="M-5.62468 151.151C-2.67156 144.568 0.578442 138.182 4.13052 132.026C8.43781 124.568 13.2503 117.328 18.5368 110.318C4.72948 97.2917 -10.3799 86.5781 -25.2705 77.8438C-33.7966 92.8542 -41.5309 109.693 -46.9736 127.88C-38.9163 131.302 -31.1195 135.151 -23.6403 139.469C-17.4841 143.021 -11.4789 146.927 -5.62468 151.151Z" fill="#F6F6F6"/>
<path d="M162.485 309.927C161.88 309.87 161.282 309.812 160.677 309.755C143.063 308.109 125.485 306.578 107.953 305.172C115.505 289.281 122.964 273.286 130.349 257.203C130.599 256.656 130.849 256.104 131.099 255.557C130.547 255.812 129.995 256.062 129.448 256.312C113.365 263.693 97.3753 271.156 81.4951 278.698C80.0836 261.167 78.5524 243.583 76.9013 225.963C76.8492 225.365 76.7867 224.766 76.7347 224.161C76.3805 224.656 76.0315 225.151 75.6774 225.646C65.4378 240.083 55.3128 254.552 45.3232 269.036C35.344 254.568 25.2295 240.12 15.0003 225.693C14.6461 225.198 14.2972 224.703 13.943 224.208C13.8857 224.802 13.8284 225.401 13.7763 226C12.1253 243.614 10.5941 261.193 9.18781 278.724C-6.6924 271.182 -22.6768 263.724 -38.7445 256.349C-39.2966 256.094 -39.8486 255.844 -40.4007 255.594C-40.1507 256.135 -39.9007 256.682 -39.6507 257.229C-32.2705 273.307 -24.8122 289.297 -17.2653 305.187C-34.7861 306.594 -52.3538 308.125 -69.9632 309.771C-70.5674 309.828 -71.1715 309.891 -71.7705 309.943C-71.2861 310.292 -70.7965 310.641 -70.307 310.984C-55.8747 321.224 -41.4163 331.338 -26.9372 341.323C-41.4111 351.302 -55.8591 361.417 -70.2861 371.646C-70.7809 372 -71.2705 372.349 -71.7653 372.698C-71.1715 372.755 -70.5726 372.812 -69.9736 372.87C-52.3591 374.521 -34.7809 376.052 -17.2497 377.458C-24.7914 393.338 -32.2497 409.323 -39.6247 425.396C-39.8747 425.943 -40.1299 426.495 -40.3799 427.047C-39.8382 426.797 -39.2913 426.547 -38.7445 426.297C-22.6611 418.917 -6.67677 411.458 9.20864 403.911C10.6201 421.432 12.1513 439 13.7972 456.609C13.8545 457.213 13.9118 457.812 13.9691 458.417C14.318 457.927 14.667 457.443 15.0107 456.953C25.2399 442.531 35.3545 428.083 45.3284 413.614C55.318 428.094 65.4326 442.552 75.6722 456.984C76.0211 457.474 76.3701 457.969 76.719 458.458C76.7763 457.854 76.8336 457.25 76.8909 456.646C78.5367 439.031 80.0732 421.458 81.4795 403.927C97.3701 411.474 113.365 418.937 129.448 426.318C129.995 426.573 130.542 426.823 131.089 427.073C130.839 426.521 130.589 425.969 130.334 425.417C122.953 409.338 115.495 393.354 107.948 377.469C125.485 376.057 143.063 374.526 160.683 372.875C161.282 372.818 161.886 372.76 162.485 372.703C161.99 372.354 161.495 372.005 161.005 371.651C146.573 361.417 132.12 351.302 117.641 341.318C132.125 331.333 146.584 321.213 161.016 310.974C161.505 310.63 161.995 310.281 162.485 309.927Z" fill="#F6F6F6"/>
</svg>
