<svg width="508" height="508" viewBox="0 0 508 508" fill="none" xmlns="http://www.w3.org/2000/svg">
<path d="M302.063 142.257C303.226 147.032 304.218 151.907 305.024 156.884C305.4 159.198 305.726 161.539 306.024 163.895C308.214 162.977 310.404 162.089 312.597 161.256C317.31 159.465 322.027 157.888 326.744 156.508C327.972 149.349 328.662 141.982 328.662 134.443C328.662 131.358 328.542 128.3 328.321 125.273C325.593 126.595 322.883 128.021 320.209 129.56C313.679 133.335 307.644 137.614 302.063 142.257Z" fill="#F6F6F6"/>
<path d="M351.002 85.9776C365.047 82.6987 379.992 80.9469 395.755 80.7337C393.046 58.9327 388.17 43.7088 387.701 42.2787C385.662 36.0659 379.88 32.0312 373.566 32.0312C372.555 32.0312 371.532 32.1359 370.504 32.3491C369.032 32.6591 353.416 36.0465 333.185 44.6002C338.53 54.1578 343.076 63.8161 346.746 73.4744C348.324 77.6409 349.738 81.8073 351.002 85.9776Z" fill="#F6F6F6"/>
<path d="M249.632 363.62C246.442 367.527 243.144 371.251 239.749 374.809C242.264 381.615 245.349 388.343 249.121 394.874C250.663 397.548 252.295 400.133 254 402.645C255.705 400.133 257.337 397.548 258.884 394.874C262.651 388.343 265.736 381.619 268.251 374.809C264.856 371.251 261.558 367.527 258.372 363.62C256.891 361.802 255.434 359.938 254 358.047C252.566 359.938 251.113 361.802 249.632 363.62Z" fill="#F6F6F6"/>
<path d="M284.657 98.2489C287.304 102.83 289.722 107.582 291.92 112.481C296.276 109.337 300.745 106.431 305.326 103.787C310.892 100.574 316.69 97.7102 322.685 95.1638C318.635 81.6298 312.88 69.0995 306.535 57.9297C295.458 64.4293 284.211 72.4017 273.937 82.0949C277.874 87.3077 281.455 92.6989 284.657 98.2489Z" fill="#F6F6F6"/>
<path d="M258.372 144.384C261.558 140.477 264.856 136.753 268.251 133.199C265.736 126.385 262.651 119.661 258.884 113.13C257.337 110.456 255.705 107.871 254 105.359C252.295 107.871 250.663 110.456 249.117 113.13C245.349 119.661 242.264 126.385 239.749 133.195C243.144 136.753 246.442 140.477 249.632 144.384C251.113 146.202 252.566 148.066 254 149.957C255.434 148.066 256.891 146.202 258.372 144.384Z" fill="#F6F6F6"/>
<path d="M358.427 134.44C358.427 139.73 358.148 145.052 357.598 150.4C362.947 149.85 368.268 149.571 373.558 149.571C379.969 149.571 386.422 149.974 392.91 150.776C396.165 137.033 397.444 123.305 397.534 110.461C384.689 110.554 370.965 111.829 357.218 115.085C358.021 121.573 358.427 128.03 358.427 134.44Z" fill="#F6F6F6"/>
<path d="M161.254 73.4744C164.924 63.8161 169.47 54.1578 174.811 44.6002C154.584 36.0504 138.968 32.6591 137.496 32.3491C136.472 32.132 135.445 32.0312 134.43 32.0312C131.783 32.0312 129.225 32.7444 127 34.0273C123.923 35.8023 121.481 38.6743 120.299 42.2748C119.83 43.7088 114.958 58.9288 112.249 80.7298C128.012 80.9469 142.953 82.6987 156.998 85.9737C158.262 81.8073 159.676 77.6409 161.254 73.4744Z" fill="#F6F6F6"/>
<path d="M378.442 187.789C379.985 185.115 381.403 182.409 382.725 179.677C379.702 179.46 376.644 179.336 373.559 179.336C366.016 179.336 358.649 180.026 351.494 181.254C350.11 185.971 348.537 190.692 346.746 195.405C345.913 197.595 345.025 199.784 344.107 201.974C351.541 202.912 358.769 204.218 365.761 205.92C370.396 200.339 374.671 194.312 378.442 187.789Z" fill="#F6F6F6"/>
<path d="M346.746 434.523C343.076 444.185 338.53 453.839 333.189 463.397C353.42 471.951 369.032 475.338 370.505 475.648C371.528 475.861 372.555 475.966 373.566 475.966C379.876 475.966 385.662 471.931 387.701 465.718C388.17 464.288 393.046 449.064 395.751 427.263C379.988 427.05 365.047 425.298 351.002 422.023C349.738 426.19 348.328 430.36 346.746 434.523Z" fill="#F6F6F6"/>
<path d="M254 448.008C250.822 450.992 247.512 453.895 244.058 456.709C236.047 463.243 227.284 469.332 217.878 474.936C231.121 492.459 242.95 503.198 244.07 504.206C246.896 506.737 250.45 508 254 508C257.55 508 261.1 506.737 263.929 504.206C265.049 503.198 276.878 492.459 290.122 474.936C280.715 469.332 271.952 463.243 263.941 456.713C260.488 453.895 257.178 450.992 254 448.008Z" fill="#F6F6F6"/>
<path d="M254 59.9886C257.178 57.0081 260.488 54.1052 263.941 51.2876C271.948 44.7569 280.715 38.6643 290.122 33.06C276.874 15.5417 265.049 4.80203 263.929 3.79434C261.1 1.26349 257.55 0 254 0C250.45 0 246.899 1.26349 244.07 3.79434C242.95 4.80203 231.121 15.5417 217.878 33.06C227.284 38.6682 236.047 44.7569 244.058 51.2876C247.512 54.1052 250.822 57.012 254 59.9886Z" fill="#F6F6F6"/>
<path d="M156.994 422.023C142.953 425.298 128.012 427.05 112.249 427.263C114.958 449.064 119.83 464.284 120.299 465.718C121.481 469.323 123.923 472.191 127 473.966C129.225 475.253 131.783 475.966 134.434 475.966C135.445 475.966 136.468 475.861 137.496 475.648C138.968 475.334 154.584 471.947 174.811 463.397C169.47 453.839 164.924 444.185 161.254 434.523C159.672 430.36 158.262 426.19 156.994 422.023Z" fill="#F6F6F6"/>
<path d="M463.398 174.816C471.948 154.585 475.339 138.969 475.649 137.497C477.203 130.071 472.928 122.664 465.719 120.3C464.289 119.831 449.073 114.959 427.276 112.25C427.129 123.199 426.233 133.834 424.582 144.035C423.869 148.434 423.009 152.755 422.021 156.995C426.187 158.263 430.357 159.673 434.524 161.259C444.186 164.929 453.84 169.471 463.398 174.816Z" fill="#F6F6F6"/>
<path d="M344.107 306.024C345.025 308.213 345.913 310.403 346.746 312.593C348.537 317.31 350.114 322.027 351.494 326.743C358.649 327.972 366.02 328.662 373.559 328.662C376.644 328.662 379.702 328.542 382.729 328.321C381.403 325.592 379.981 322.883 378.442 320.209C374.671 313.686 370.396 307.659 365.761 302.078C358.769 303.78 351.541 305.086 344.107 306.024Z" fill="#F6F6F6"/>
<path d="M402.642 253.997C400.131 252.292 397.549 250.66 394.875 249.114C388.344 245.346 381.62 242.258 374.81 239.742C371.252 243.137 367.528 246.439 363.617 249.625C361.8 251.106 359.935 252.559 358.044 253.997C359.935 255.431 361.8 256.885 363.617 258.369C367.528 261.555 371.252 264.853 374.81 268.248C381.616 265.737 388.344 262.648 394.875 258.877C397.545 257.334 400.131 255.702 402.642 253.997Z" fill="#F6F6F6"/>
<path d="M409.754 223.341C415.304 226.543 420.691 230.124 425.908 234.058C435.601 223.787 443.574 212.54 450.073 201.463C438.903 195.114 426.377 189.363 412.847 185.312C410.297 191.328 407.421 197.122 404.216 202.672C401.572 207.253 398.666 211.722 395.519 216.078C400.41 218.279 405.161 220.686 409.754 223.341Z" fill="#F6F6F6"/>
<path d="M504.205 244.067C503.198 242.943 492.458 231.118 474.94 217.875C469.336 227.281 463.243 236.044 456.712 244.056C453.895 247.509 450.988 250.819 448.011 253.997C450.992 257.175 453.895 260.485 456.712 263.938C463.243 271.949 469.332 280.712 474.936 290.119C492.458 276.875 503.198 265.047 504.205 263.926C509.263 258.272 509.263 249.722 504.205 244.067Z" fill="#F6F6F6"/>
<path d="M44.6018 333.188C36.0519 353.419 32.6645 369.034 32.3506 370.507C31.5716 374.216 32.2537 377.925 34.0288 381.002C35.8077 384.076 38.6758 386.518 42.2802 387.704C43.7104 388.173 58.9265 393.044 80.7236 395.753C80.8748 384.804 81.7662 374.166 83.4172 363.965C84.1342 359.566 84.9908 355.252 85.983 351.008C81.8127 349.745 77.6424 348.33 73.476 346.745C63.8138 343.078 54.1593 338.532 44.6018 333.188Z" fill="#F6F6F6"/>
<path d="M44.6018 174.816C54.1593 169.471 63.8138 164.929 73.476 161.259C77.6424 159.673 81.8127 158.259 85.983 156.995C84.9908 152.755 84.1304 148.434 83.4172 144.035C81.7662 133.834 80.8748 123.199 80.7236 112.25C58.9265 114.955 43.7104 119.831 42.2802 120.3C38.6758 121.478 35.8039 123.924 34.0288 127.001C32.2537 130.074 31.5716 133.784 32.3506 137.493C32.6607 138.969 36.0519 154.585 44.6018 174.816Z" fill="#F6F6F6"/>
<path d="M98.246 284.654C92.696 281.453 87.3087 277.871 82.092 273.938C72.3988 284.208 64.4264 295.456 57.9307 306.532C69.0966 312.881 81.623 318.632 95.1571 322.683C97.7034 316.667 100.583 310.869 103.784 305.319C106.432 300.738 109.334 296.269 112.482 291.913C107.59 289.719 102.839 287.305 98.246 284.654Z" fill="#F6F6F6"/>
<path d="M149.572 373.555C149.572 368.265 149.851 362.943 150.402 357.599C145.053 358.145 139.732 358.424 134.442 358.424C128.035 358.424 121.578 358.021 115.094 357.219C111.838 370.962 110.555 384.69 110.466 397.534C123.31 397.441 137.034 396.17 150.782 392.91C149.979 386.422 149.572 379.965 149.572 373.555Z" fill="#F6F6F6"/>
<path d="M291.92 395.523C289.722 400.422 287.304 405.174 284.661 409.755C281.455 415.305 277.874 420.692 273.94 425.909C284.211 435.602 295.458 443.575 306.539 450.074C312.884 438.901 318.639 426.374 322.689 412.84C316.69 410.294 310.892 407.434 305.326 404.217C300.745 401.573 296.276 398.667 291.92 395.523Z" fill="#F6F6F6"/>
<path d="M223.343 409.755C220.696 405.174 218.278 400.426 216.08 395.523C211.724 398.667 207.255 401.573 202.674 404.217C197.108 407.434 191.31 410.294 185.314 412.84C189.365 426.374 195.12 438.904 201.465 450.07C212.541 443.571 223.789 435.602 234.06 425.909C230.126 420.692 226.544 415.305 223.343 409.755Z" fill="#F6F6F6"/>
<path d="M312.593 346.749C310.404 345.915 308.214 345.028 306.024 344.109C305.726 346.466 305.4 348.803 305.024 351.117C304.214 356.097 303.222 360.973 302.063 365.748C307.644 370.391 313.679 374.673 320.209 378.441C322.883 379.987 325.593 381.409 328.321 382.731C328.542 379.704 328.662 376.65 328.662 373.561C328.662 366.023 327.972 358.655 326.744 351.497C322.027 350.113 317.31 348.539 312.593 346.749Z" fill="#F6F6F6"/>
<path d="M463.398 333.188C453.84 338.532 444.186 343.078 434.524 346.749C430.357 348.33 426.191 349.745 422.017 351.008C423.009 355.252 423.869 359.57 424.582 363.969C426.233 374.169 427.125 384.804 427.276 395.753C449.073 393.044 464.289 388.173 465.719 387.704C472.924 385.335 477.203 377.933 475.645 370.507C475.339 369.03 471.948 353.419 463.398 333.188Z" fill="#F6F6F6"/>
<path d="M425.912 273.938C420.695 277.871 415.304 281.453 409.758 284.654C405.161 287.309 400.41 289.719 395.522 291.917C398.666 296.273 401.572 300.742 404.22 305.323C407.421 310.873 410.297 316.667 412.847 322.683C426.381 318.632 438.907 312.877 450.073 306.536C443.574 295.456 435.601 284.208 425.912 273.938Z" fill="#F6F6F6"/>
<path d="M373.558 358.424C368.268 358.424 362.947 358.145 357.598 357.599C358.148 362.943 358.428 368.265 358.428 373.555C358.428 379.965 358.021 386.422 357.222 392.91C370.966 396.166 384.693 397.441 397.534 397.534C397.445 384.69 396.166 370.962 392.91 357.219C386.422 358.021 379.969 358.424 373.558 358.424Z" fill="#F6F6F6"/>
<path d="M205.941 365.744C204.778 360.965 203.782 356.089 202.976 351.113C202.604 348.799 202.274 346.458 201.976 344.102C199.786 345.024 197.596 345.912 195.407 346.741C190.694 348.532 185.973 350.109 181.256 351.493C180.028 358.647 179.338 366.015 179.338 373.557C179.338 376.642 179.458 379.7 179.679 382.727C182.411 381.402 185.117 379.979 187.791 378.437C194.321 374.666 200.356 370.387 205.941 365.744Z" fill="#F6F6F6"/>
<path d="M195.407 161.26C197.596 162.089 199.786 162.977 201.976 163.899C202.274 161.543 202.6 159.202 202.976 156.888C203.786 151.907 204.778 147.032 205.937 142.257C200.356 137.614 194.321 133.335 187.791 129.564C185.117 128.021 182.411 126.595 179.679 125.273C179.458 128.3 179.338 131.358 179.338 134.443C179.338 141.986 180.028 149.353 181.256 156.508C185.973 157.892 190.694 159.469 195.407 161.26Z" fill="#F6F6F6"/>
<path d="M216.08 112.481C218.278 107.582 220.696 102.83 223.339 98.2489C226.544 92.6989 230.126 87.3116 234.059 82.0949C223.785 72.4017 212.541 64.4293 201.461 57.9297C195.116 69.0995 189.361 81.6298 185.311 95.1638C191.306 97.7102 197.108 100.574 202.674 103.787C207.255 106.431 211.724 109.337 216.08 112.481Z" fill="#F6F6F6"/>
<path d="M161.254 195.405C159.463 190.692 157.886 185.971 156.506 181.254C149.348 180.026 141.98 179.336 134.441 179.336C131.356 179.336 128.298 179.46 125.275 179.677C126.597 182.409 128.019 185.115 129.558 187.789C133.329 194.312 137.604 200.342 142.239 205.92C149.231 204.218 156.46 202.912 163.893 201.974C162.975 199.784 162.087 197.595 161.254 195.405Z" fill="#F6F6F6"/>
<path d="M82.0919 234.058C87.3087 230.124 92.6959 226.546 98.246 223.341C102.839 220.69 107.59 218.279 112.478 216.082C109.334 211.722 106.428 207.253 103.781 202.672C100.579 197.122 97.7034 191.328 95.1532 185.312C81.623 189.363 69.0966 195.118 57.9268 201.463C64.4264 212.54 72.3987 223.787 82.0919 234.058Z" fill="#F6F6F6"/>
<path d="M134.442 149.571C139.732 149.571 145.053 149.85 150.402 150.396C149.851 145.052 149.572 139.73 149.572 134.44C149.572 128.03 149.979 121.573 150.782 115.085C137.034 111.829 123.307 110.554 110.466 110.461C110.555 123.305 111.834 137.033 115.094 150.776C121.578 149.974 128.035 149.571 134.442 149.571Z" fill="#F6F6F6"/>
<path d="M144.383 258.369C146.2 256.888 148.065 255.435 149.956 253.997C148.065 252.563 146.2 251.11 144.383 249.625C140.476 246.439 136.747 243.141 133.19 239.742C126.384 242.258 119.659 245.346 113.129 249.118C110.454 250.66 107.869 252.296 105.358 253.997C107.869 255.702 110.454 257.334 113.125 258.877C119.655 262.648 126.38 265.737 133.193 268.252C136.747 264.857 140.476 261.555 144.383 258.369Z" fill="#F6F6F6"/>
<path d="M51.2914 263.938C54.1052 260.485 57.012 257.175 59.9925 253.997C57.012 250.819 54.1052 247.509 51.2914 244.056C44.7608 236.044 38.6682 227.281 33.0639 217.875C15.5456 231.118 4.80203 242.947 3.79822 244.067C1.26349 246.896 0 250.447 0 253.997C0 257.547 1.26349 261.097 3.79434 263.926C4.80203 265.047 15.5417 276.875 33.0639 290.115C38.6682 280.712 44.757 271.949 51.2914 263.938Z" fill="#F6F6F6"/>
<path d="M156.506 326.743C157.89 322.027 159.463 317.31 161.254 312.593C162.087 310.403 162.975 308.213 163.893 306.024C156.46 305.086 149.231 303.78 142.239 302.078C137.604 307.655 133.329 313.682 129.562 320.205C128.019 322.879 126.597 325.588 125.275 328.321C128.302 328.542 131.356 328.662 134.441 328.662C141.984 328.662 149.348 327.972 156.506 326.743Z" fill="#F6F6F6"/>
<path d="M341.177 230.626C340.727 230.584 340.281 230.541 339.832 230.498C326.724 229.274 313.643 228.134 300.598 227.088C306.218 215.263 311.768 203.361 317.263 191.392C317.449 190.985 317.635 190.575 317.822 190.168C317.411 190.358 317 190.544 316.593 190.73C304.625 196.221 292.726 201.775 280.909 207.387C279.859 194.342 278.719 181.257 277.491 168.146C277.452 167.7 277.405 167.254 277.367 166.805C277.103 167.173 276.843 167.541 276.58 167.909C268.96 178.653 261.426 189.42 253.992 200.198C246.566 189.431 239.04 178.68 231.428 167.944C231.164 167.576 230.904 167.208 230.641 166.84C230.598 167.281 230.556 167.727 230.517 168.173C229.288 181.281 228.149 194.361 227.102 207.407C215.285 201.795 203.391 196.245 191.434 190.757C191.023 190.567 190.612 190.381 190.201 190.195C190.387 190.598 190.574 191.005 190.76 191.412C196.251 203.376 201.802 215.275 207.417 227.099C194.379 228.146 181.307 229.285 168.203 230.51C167.753 230.553 167.304 230.599 166.858 230.638C167.218 230.898 167.583 231.157 167.947 231.413C178.687 239.033 189.446 246.559 200.22 253.989C189.45 261.415 178.698 268.942 167.962 276.554C167.594 276.817 167.23 277.077 166.862 277.337C167.304 277.379 167.749 277.422 168.195 277.465C181.303 278.693 194.383 279.833 207.429 280.879C201.817 292.696 196.267 304.591 190.779 316.551C190.593 316.958 190.403 317.369 190.217 317.78C190.62 317.594 191.027 317.408 191.434 317.222C203.402 311.73 215.297 306.18 227.118 300.564C228.168 313.602 229.308 326.675 230.532 339.779C230.575 340.228 230.618 340.674 230.66 341.123C230.92 340.759 231.18 340.399 231.435 340.034C239.047 329.302 246.574 318.551 253.996 307.784C261.43 318.559 268.956 329.318 276.576 340.058C276.836 340.422 277.095 340.79 277.355 341.154C277.398 340.705 277.44 340.255 277.483 339.806C278.708 326.698 279.851 313.621 280.897 300.576C292.722 306.191 304.625 311.745 316.593 317.237C317 317.427 317.407 317.613 317.814 317.799C317.628 317.388 317.442 316.978 317.252 316.567C311.76 304.602 306.21 292.708 300.594 280.887C313.643 279.837 326.724 278.697 339.836 277.468C340.281 277.426 340.731 277.383 341.177 277.341C340.808 277.081 340.44 276.821 340.076 276.558C329.336 268.942 318.581 261.415 307.807 253.985C318.585 246.556 329.344 239.025 340.084 231.405C340.448 231.15 340.812 230.89 341.177 230.626Z" fill="#F6F6F6"/>
</svg>
