<svg width="379" height="683" viewBox="0 0 379 683" fill="none" xmlns="http://www.w3.org/2000/svg">
<path d="M335.464 488.641C331.177 493.891 326.745 498.896 322.183 503.677C325.563 512.823 329.709 521.865 334.776 530.641C336.849 534.234 339.042 537.708 341.334 541.083C343.625 537.708 345.818 534.234 347.896 530.641C352.959 521.865 357.104 512.828 360.485 503.677C355.922 498.896 351.49 493.891 347.209 488.641C345.219 486.198 343.261 483.693 341.334 481.151C339.407 483.693 337.453 486.198 335.464 488.641Z" fill="#F6F6F6"/>
<path d="M382.531 132.026C386.089 138.182 389.339 144.568 392.292 151.151C398.146 146.927 404.151 143.021 410.307 139.469C417.786 135.151 425.578 131.302 433.635 127.88C428.193 109.693 420.458 92.8542 411.932 77.8438C397.047 86.5781 381.932 97.2917 368.125 110.318C373.417 117.323 378.229 124.568 382.531 132.026Z" fill="#F6F6F6"/>
<path d="M347.209 194.026C351.49 188.776 355.922 183.771 360.485 178.995C357.104 169.839 352.959 160.802 347.896 152.026C345.818 148.432 343.625 144.958 341.334 141.583C339.042 144.958 336.849 148.432 334.771 152.026C329.709 160.802 325.563 169.839 322.183 178.99C326.745 183.771 331.177 188.776 335.464 194.026C337.453 196.469 339.407 198.974 341.334 201.516C343.261 198.974 345.219 196.469 347.209 194.026Z" fill="#F6F6F6"/>
<path d="M216.698 98.7397C221.63 85.7605 227.74 72.7814 234.917 59.9376C207.734 48.448 186.75 43.8907 184.771 43.4741C183.396 43.1824 182.016 43.047 180.651 43.047C177.094 43.047 173.656 44.0053 170.667 45.7293C166.531 48.1147 163.25 51.9741 161.661 56.8126C161.031 58.7397 154.484 79.1928 150.844 108.49C172.026 108.781 192.104 111.136 210.979 115.537C212.677 109.938 214.578 104.339 216.698 98.7397Z" fill="#F6F6F6"/>
<path d="M341.334 602.047C337.063 606.057 332.615 609.958 327.974 613.74C317.209 622.521 305.433 630.703 292.792 638.234C310.589 661.781 326.485 676.214 327.99 677.568C331.787 680.969 336.563 682.667 341.334 682.667C346.104 682.667 350.875 680.969 354.677 677.568C356.183 676.214 372.078 661.781 389.875 638.234C377.235 630.703 365.459 622.521 354.693 613.745C350.052 609.958 345.604 606.057 341.334 602.047Z" fill="#F6F6F6"/>
<path d="M341.334 80.6147C345.604 76.6095 350.052 72.7084 354.693 68.922C365.453 60.1459 377.235 51.9584 389.875 44.4272C372.073 20.8855 356.183 6.45325 354.677 5.09908C350.875 1.69804 346.104 0.00012207 341.334 0.00012207C336.563 0.00012207 331.792 1.69804 327.99 5.09908C326.485 6.45325 310.589 20.8855 292.792 44.4272C305.433 51.9637 317.209 60.1459 327.974 68.922C332.615 72.7084 337.063 76.6147 341.334 80.6147Z" fill="#F6F6F6"/>
<path d="M210.974 567.13C192.104 571.531 172.026 573.885 150.844 574.172C154.484 603.469 161.031 623.922 161.661 625.849C163.25 630.693 166.531 634.547 170.667 636.932C173.656 638.661 177.094 639.62 180.656 639.62C182.016 639.62 183.391 639.479 184.771 639.193C186.75 638.771 207.734 634.219 234.917 622.729C227.74 609.885 221.63 596.911 216.698 583.927C214.573 578.333 212.677 572.729 210.974 567.13Z" fill="#F6F6F6"/>
<path d="M59.9379 447.745C48.4483 474.932 43.8963 495.917 43.4744 497.896C42.4275 502.88 43.3442 507.865 45.7296 512C48.1202 516.13 51.9744 519.411 56.8181 521.005C58.74 521.635 79.1879 528.182 108.48 531.823C108.683 517.109 109.881 502.812 112.099 489.104C113.063 483.193 114.214 477.396 115.547 471.693C109.943 469.995 104.339 468.094 98.74 465.963C85.7556 461.036 72.7817 454.927 59.9379 447.745Z" fill="#F6F6F6"/>
<path d="M59.9379 234.922C72.7817 227.74 85.7556 221.635 98.74 216.703C104.339 214.573 109.943 212.672 115.547 210.974C114.214 205.276 113.058 199.469 112.099 193.557C109.881 179.849 108.683 165.557 108.48 150.844C79.1879 154.479 58.74 161.031 56.8181 161.661C51.9744 163.245 48.115 166.531 45.7296 170.667C43.3442 174.797 42.4275 179.781 43.4744 184.766C43.8911 186.75 48.4483 207.734 59.9379 234.922Z" fill="#F6F6F6"/>
<path d="M132.026 382.531C124.567 378.229 117.328 373.417 110.317 368.13C97.2913 381.932 86.5778 397.047 77.8486 411.932C92.8538 420.463 109.687 428.193 127.875 433.635C131.297 425.552 135.166 417.76 139.468 410.302C143.026 404.146 146.927 398.141 151.156 392.286C144.583 389.338 138.198 386.094 132.026 382.531Z" fill="#F6F6F6"/>
<path d="M201 502C201 494.891 201.375 487.74 202.115 480.557C194.927 481.292 187.776 481.667 180.667 481.667C172.058 481.667 163.381 481.125 154.667 480.047C150.292 498.516 148.568 516.964 148.448 534.224C165.709 534.099 184.151 532.391 202.625 528.01C201.547 519.292 201 510.615 201 502Z" fill="#F6F6F6"/>
<path d="M392.291 531.516C389.338 538.099 386.088 544.484 382.536 550.641C378.229 558.099 373.416 565.339 368.13 572.349C381.932 585.375 397.047 596.089 411.937 604.823C420.463 589.807 428.198 572.974 433.64 554.786C425.578 551.365 417.786 547.521 410.307 543.198C404.151 539.646 398.146 535.74 392.291 531.516Z" fill="#F6F6F6"/>
<path d="M300.135 550.641C296.578 544.484 293.328 538.104 290.375 531.516C284.521 535.74 278.516 539.646 272.359 543.198C264.88 547.521 257.089 551.365 249.031 554.786C254.474 572.974 262.208 589.812 270.734 604.818C285.62 596.083 300.734 585.375 314.536 572.349C309.25 565.339 304.437 558.099 300.135 550.641Z" fill="#F6F6F6"/>
<path d="M276.75 491.5C275.187 485.078 273.849 478.526 272.766 471.838C272.266 468.729 271.823 465.583 271.422 462.417C268.479 463.656 265.536 464.849 262.594 465.964C256.26 468.37 249.917 470.49 243.578 472.349C241.927 481.963 241 491.865 241 502C241 506.146 241.161 510.255 241.458 514.323C245.13 512.542 248.766 510.63 252.359 508.557C261.135 503.49 269.245 497.74 276.75 491.5Z" fill="#F6F6F6"/>
<path d="M262.594 216.703C265.536 217.818 268.479 219.01 271.422 220.25C271.823 217.083 272.26 213.937 272.766 210.828C273.854 204.135 275.187 197.583 276.745 191.167C269.245 184.927 261.135 179.177 252.359 174.109C248.766 172.036 245.13 170.12 241.458 168.344C241.161 172.411 241 176.521 241 180.667C241 190.802 241.927 200.703 243.578 210.318C249.917 212.177 256.26 214.297 262.594 216.703Z" fill="#F6F6F6"/>
<path d="M290.375 151.151C293.328 144.568 296.578 138.182 300.131 132.026C304.438 124.568 309.25 117.328 314.537 110.318C300.729 97.2917 285.62 86.5781 270.729 77.8438C262.203 92.8542 254.469 109.693 249.026 127.88C257.084 131.302 264.881 135.151 272.36 139.469C278.516 143.021 284.521 146.927 290.375 151.151Z" fill="#F6F6F6"/>
<path d="M216.698 262.594C214.291 256.26 212.172 249.917 210.317 243.578C200.698 241.927 190.797 241 180.666 241C176.521 241 172.411 241.167 168.349 241.458C170.125 245.13 172.036 248.766 174.104 252.359C179.172 261.125 184.916 269.229 191.146 276.724C200.541 274.437 210.255 272.682 220.244 271.422C219.01 268.479 217.817 265.536 216.698 262.594Z" fill="#F6F6F6"/>
<path d="M110.318 314.536C117.328 309.25 124.568 304.443 132.026 300.135C138.198 296.573 144.583 293.333 151.151 290.38C146.927 284.521 143.021 278.516 139.464 272.359C135.161 264.901 131.297 257.115 127.87 249.031C109.687 254.474 92.8542 262.208 77.8438 270.734C86.5781 285.62 97.2917 300.734 110.318 314.536Z" fill="#F6F6F6"/>
<path d="M180.667 201C187.776 201 194.927 201.375 202.115 202.109C201.375 194.927 201 187.776 201 180.667C201 172.052 201.547 163.375 202.625 154.656C184.151 150.281 165.703 148.568 148.448 148.443C148.568 165.703 150.287 184.151 154.667 202.62C163.381 201.542 172.058 201 180.667 201Z" fill="#F6F6F6"/>
<path d="M194.026 347.208C196.468 345.219 198.974 343.266 201.515 341.333C198.974 339.406 196.468 337.453 194.026 335.458C188.776 331.177 183.765 326.745 178.984 322.177C169.838 325.557 160.802 329.708 152.026 334.776C148.432 336.849 144.958 339.047 141.583 341.333C144.958 343.625 148.432 345.818 152.021 347.891C160.797 352.958 169.833 357.109 178.989 360.49C183.765 355.927 188.776 351.49 194.026 347.208Z" fill="#F6F6F6"/>
<path d="M68.9271 354.693C72.7083 350.052 76.6146 345.604 80.6198 341.333C76.6146 337.063 72.7083 332.615 68.9271 327.974C60.151 317.208 51.9635 305.432 44.4323 292.792C20.8906 310.589 6.45312 326.484 5.10417 327.99C1.69792 331.792 0 336.563 0 341.333C0 346.104 1.69792 350.875 5.09896 354.677C6.45312 356.182 20.8854 372.078 44.4323 389.87C51.9635 377.234 60.1458 365.458 68.9271 354.693Z" fill="#F6F6F6"/>
<path d="M210.317 439.088C212.177 432.75 214.291 426.411 216.698 420.073C217.817 417.13 219.01 414.187 220.244 411.245C210.255 409.984 200.541 408.229 191.146 405.943C184.916 413.437 179.172 421.536 174.109 430.302C172.036 433.896 170.125 437.536 168.349 441.208C172.416 441.505 176.521 441.667 180.666 441.667C190.802 441.667 200.698 440.739 210.317 439.088Z" fill="#F6F6F6"/>
<path d="M458.485 309.927C457.88 309.87 457.282 309.813 456.677 309.755C439.063 308.109 421.485 306.578 403.953 305.172C411.505 289.281 418.964 273.286 426.349 257.203C426.599 256.656 426.849 256.104 427.099 255.557C426.547 255.813 425.995 256.063 425.448 256.313C409.365 263.693 393.375 271.156 377.495 278.698C376.084 261.167 374.552 243.583 372.901 225.964C372.849 225.365 372.787 224.766 372.735 224.161C372.38 224.656 372.032 225.151 371.677 225.646C361.438 240.083 351.313 254.552 341.323 269.036C331.344 254.568 321.229 240.12 311 225.693C310.646 225.198 310.297 224.703 309.943 224.208C309.886 224.802 309.828 225.401 309.776 226C308.125 243.615 306.594 261.193 305.188 278.724C289.308 271.182 273.323 263.724 257.256 256.349C256.703 256.094 256.151 255.844 255.599 255.594C255.849 256.135 256.099 256.682 256.349 257.229C263.729 273.307 271.188 289.297 278.735 305.188C261.214 306.594 243.646 308.125 226.037 309.771C225.433 309.828 224.828 309.891 224.229 309.943C224.714 310.292 225.203 310.641 225.693 310.984C240.125 321.224 254.584 331.339 269.063 341.323C254.589 351.302 240.141 361.417 225.714 371.646C225.219 372 224.729 372.349 224.235 372.698C224.828 372.755 225.427 372.812 226.026 372.87C243.641 374.521 261.219 376.052 278.75 377.458C271.209 393.339 263.75 409.323 256.375 425.396C256.125 425.943 255.87 426.495 255.62 427.047C256.162 426.797 256.709 426.547 257.256 426.297C273.339 418.917 289.323 411.458 305.209 403.911C306.62 421.432 308.151 439 309.797 456.609C309.854 457.214 309.912 457.812 309.969 458.417C310.318 457.927 310.667 457.443 311.011 456.953C321.24 442.531 331.354 428.083 341.328 413.615C351.318 428.094 361.433 442.552 371.672 456.984C372.021 457.474 372.37 457.969 372.719 458.458C372.776 457.854 372.834 457.25 372.891 456.646C374.537 439.031 376.073 421.458 377.479 403.927C393.37 411.474 409.365 418.938 425.448 426.318C425.995 426.573 426.542 426.823 427.089 427.073C426.839 426.521 426.589 425.969 426.334 425.417C418.953 409.339 411.495 393.354 403.948 377.469C421.485 376.057 439.063 374.526 456.683 372.875C457.282 372.818 457.886 372.76 458.485 372.703C457.99 372.354 457.495 372.005 457.005 371.651C442.573 361.417 428.12 351.302 413.641 341.318C428.125 331.333 442.584 321.214 457.016 310.974C457.505 310.63 457.995 310.281 458.485 309.927Z" fill="#F6F6F6"/>
</svg>
