<svg width="20" height="20" viewBox="0 0 20 20" fill="none" xmlns="http://www.w3.org/2000/svg">
<g clip-path="url(#clip0_1477_15621)">
<path d="M9.99982 14.2213C10.3694 14.2213 10.6691 13.9217 10.6691 13.5521C10.6691 13.1824 10.3694 12.8828 9.99982 12.8828C9.6302 12.8828 9.33057 13.1824 9.33057 13.5521C9.33057 13.9217 9.6302 14.2213 9.99982 14.2213Z" fill="#027DB8"/>
<path d="M9.99982 7.11977C10.3694 7.11977 10.6691 6.82013 10.6691 6.45051C10.6691 6.08089 10.3694 5.78125 9.99982 5.78125C9.6302 5.78125 9.33057 6.08089 9.33057 6.45051C9.33057 6.82013 9.6302 7.11977 9.99982 7.11977Z" fill="#027DB8"/>
<path d="M19.4609 0.539648C19.1133 0.191641 18.6509 0 18.1589 0H11.1476C10.6558 0 10.1934 0.191563 9.84555 0.539414L0.539492 9.84547C0.191563 10.1934 0 10.6557 0 11.1475C0 11.6393 0.191641 12.1016 0.539492 12.4493L7.55059 19.4604C7.89832 19.8084 8.3607 20 8.8525 20C9.34426 20 9.80664 19.8084 10.1545 19.4605L19.4606 10.1545C19.8084 9.80664 20 9.34422 20 8.85238V1.84113C20 1.34906 19.8084 0.886641 19.4609 0.539648ZM10 4.60848C11.0152 4.60848 11.8412 5.43441 11.8412 6.44961C11.8412 7.4648 11.0152 8.29074 10 8.29074C8.98484 8.29074 8.15891 7.4648 8.15891 6.44961C8.15891 5.43441 8.98484 4.60848 10 4.60848ZM10 15.3914C8.98484 15.3914 8.15891 14.5655 8.15891 13.5503C8.15891 12.5351 8.98484 11.7092 10 11.7092C11.0152 11.7092 11.8412 12.5351 11.8412 13.5503C11.8412 14.5655 11.0152 15.3914 10 15.3914ZM13.7656 10.5859H6.23445C5.91086 10.5859 5.64852 10.3236 5.64852 9.99996C5.64852 9.67637 5.91086 9.41402 6.23445 9.41402H13.7656C14.0892 9.41402 14.3516 9.67637 14.3516 9.99996C14.3516 10.3236 14.0893 10.5859 13.7656 10.5859ZM16.2761 4.30988C15.9526 4.30988 15.6901 4.04738 15.6901 3.72395C15.6901 3.40051 15.9526 3.13801 16.2761 3.13801C16.5995 3.13801 16.862 3.40051 16.862 3.72395C16.862 4.04738 16.5995 4.30988 16.2761 4.30988Z" fill="#027DB8"/>
</g>
<defs>
<clipPath id="clip0_1477_15621">
<rect width="20" height="20" fill="white"/>
</clipPath>
</defs>
</svg>
