<svg width="40" height="40" viewBox="0 0 40 40" fill="none" xmlns="http://www.w3.org/2000/svg">
<path d="M31.557 19.2572L25.8082 28.9068C25.8082 28.9068 24.5181 32.3206 21.293 32.3206C20.9721 32.3206 18.375 32.5931 17.6953 31.5514C17.9125 30.9717 17.5316 31.9878 20.0029 25.3986L30.0791 16.5626C30.0953 16.5488 29.9767 16.3457 31.557 19.2572Z" fill="#5FC68F"/>
<path d="M30.015 19.8024L25.2203 27.8505C25.2203 27.8505 23.9302 31.2643 20.7051 31.2643C19.2165 31.2643 18.334 29.8501 18.8048 28.5949L20.0036 25.3986L30.0798 16.5625C30.6239 17.5649 30.6144 18.7964 30.015 19.8024Z" fill="#7ADBAE"/>
<path d="M39.9991 10.4618C39.9991 10.8901 40.087 10.6175 37.2134 15.797C36.677 16.7637 35.3718 16.9637 34.5712 16.201L31.5573 19.2568L30.0898 16.5525C30.8818 15.8617 29.4096 17.1422 38.2172 9.46043C38.8415 8.91595 39.9991 9.46656 39.9991 10.4618Z" fill="#F9CFAC"/>
<path d="M39.7541 9.72859L37.2143 14.3051C36.6782 15.2718 35.3728 15.4718 34.5721 14.709L32.9104 16.3939C32.2375 17.0761 31.0969 16.9146 30.6399 16.0724C30.6355 16.0644 30.427 16.2546 38.2182 9.45929C38.6625 9.07171 39.3872 9.24288 39.7541 9.72859Z" fill="#FFE4CC"/>
<path d="M20.0041 25.3983L17.6965 31.551C11.8366 27.4944 10.3174 26.6545 8.19043 24.2034C7.22853 23.0931 5.80786 19.5438 5.4668 16.613C6.01846 16.8208 6.6239 16.9387 7.25998 16.9387C7.67763 16.9387 8.06465 16.8129 8.38394 16.5977L9.23699 16.9387C10.9058 16.9265 10.8553 16.9257 11.0157 16.9387C12.5661 17.0613 13.8514 18.3594 13.8514 20.0147C13.9376 20.0902 19.9246 25.3291 20.0041 25.3983Z" fill="#B3CEC9"/>
<path d="M19.9538 25.3547C18.9845 27.9393 15.8412 28.9263 13.5682 27.3529C11.8393 26.156 10.3626 25.2069 8.53676 23.1028C7.71112 22.1497 6.54765 19.3995 6.01953 16.7855C6.41542 16.8855 6.83146 16.9387 7.2596 16.9387C7.67726 16.9387 8.06427 16.8129 8.38356 16.5977L9.23661 16.9387C10.9055 16.9265 10.8549 16.9257 11.0153 16.9387C12.5658 17.0613 13.851 18.3594 13.851 20.0147L19.9538 25.3547Z" fill="#CAE0DD"/>
<path d="M8.79457 10.0092C8.16164 11.159 6.91512 11.9419 5.47832 11.9419C4.26502 14.2253 4.64519 13.4029 3.78109 15.5484C3.3715 15.1541 3.03205 14.6913 2.78291 14.1777C2.30913 13.1983 2.31446 12.4403 2.31446 11.7306C2.60665 11.5896 2.89434 11.3068 3.04414 10.9453C3.06487 10.8959 3.02987 10.9885 3.48921 9.6883C3.57218 9.45351 3.58186 9.26774 3.57146 9.0594C5.23103 7.72451 7.7543 8.17732 8.79457 10.0092Z" fill="#6D6D6D"/>
<path d="M9.23658 11.6518C9.23658 15.288 9.30237 15.3274 9.03823 15.8574C8.71532 16.4999 8.03973 16.9395 7.25957 16.9395C5.97483 16.9395 4.73452 16.4623 3.78125 15.547C4.64527 13.4016 4.2651 14.224 5.47848 11.9405C6.91552 11.9405 8.16994 11.1519 8.79474 10.0078C9.07815 10.5104 9.23658 11.0441 9.23658 11.6518Z" fill="#F9CFAC"/>
<path d="M9.23786 11.6504C9.23786 15.2866 9.30365 15.3261 9.03951 15.856C8.67289 16.0766 8.17904 16.2034 7.74405 16.1044C6.05416 15.7197 4.92794 13.8595 5.8055 11.9254C6.97542 11.8278 7.99134 11.2094 8.60815 10.3112C8.692 10.2443 8.77183 10.1741 8.84923 10.1016C9.09756 10.5644 9.23786 11.0917 9.23786 11.6504Z" fill="#FFE4CC"/>
<path d="M3.57658 9.18673C3.57658 9.5232 3.50934 9.61673 3.07346 10.8686C2.95905 11.1974 2.7174 11.5013 2.38247 11.6935C1.15329 12.4217 -0.400264 11.2153 0.0942312 9.86804L0.511 8.68538C0.794007 7.88313 1.68987 7.45564 2.5139 7.733C3.14328 7.94417 3.57658 8.52332 3.57658 9.18673Z" fill="#6D6D6D"/>
<path d="M26.9257 18.4889C26.9185 19.3396 26.1993 20.0144 25.3478 20.0144H10.0453C9.04217 20.0144 8.27265 19.0957 8.51018 18.1188C8.66837 17.4458 9.27736 16.9384 10.0058 16.9384H21.6736C22.4557 16.9384 22.9766 16.7643 23.4579 16.4369C24.1215 15.9862 25.0286 16.2216 25.3874 16.9384C26.2388 16.9384 26.9311 17.6276 26.9257 18.4889Z" fill="#F9CFAC"/>
<path d="M26.8846 18.118C26.7201 18.8018 26.0839 19.3041 25.3494 19.3041H10.0469C9.31317 19.3041 8.67701 18.8026 8.51172 18.1188C8.66991 17.4458 9.2789 16.9384 10.0074 16.9384H21.6751C22.4572 16.9384 22.9781 16.7643 23.4594 16.4369C24.123 15.9862 25.0301 16.2216 25.3889 16.9384C26.1087 16.9384 26.7234 17.434 26.8846 18.118Z" fill="#FFE4CC"/>
<path d="M8.24709 9.29699C7.3992 10.9212 3.76986 11.3608 1.47267 10.6364C0.658969 10.3798 0.227606 9.49034 0.510774 8.6855C0.791845 7.88672 1.68602 7.45455 2.51367 7.73312C3.12161 7.93711 3.52072 8.47006 3.57152 9.05865C4.9526 7.94775 6.98694 8.04652 8.24709 9.29699Z" fill="#797A7A"/>
</svg>
