<svg width="40" height="40" viewBox="0 0 40 40" fill="none" xmlns="http://www.w3.org/2000/svg">
<g clip-path="url(#clip0_1925_30814)">
<path d="M20 40C31.0457 40 40 31.0457 40 20C40 8.9543 31.0457 0 20 0C8.9543 0 0 8.9543 0 20C0 31.0457 8.9543 40 20 40Z" fill="#5FC68F"/>
<path d="M3.44828 21.7241C3.44828 28.8698 7.19569 35.1405 12.8336 38.6776C5.32759 35.7957 0 28.5198 0 20C0 8.95431 8.95431 0 20 0C23.8991 0 27.5379 1.11638 30.6147 3.04655C28.3897 2.19224 25.9733 1.72414 23.4483 1.72414C12.4026 1.72414 3.44828 10.6784 3.44828 21.7241Z" fill="#5FC68F"/>
<path d="M20.0828 37.1655C29.5173 37.1655 37.1655 29.5173 37.1655 20.0828C37.1655 10.6482 29.5173 3 20.0828 3C10.6482 3 3 10.6482 3 20.0828C3 29.5173 10.6482 37.1655 20.0828 37.1655Z" fill="#DBEEFF"/>
<path d="M8.09038 22.5869C8.09038 28.2387 10.8352 33.2499 15.0645 36.3594C8.03694 34.2412 2.91797 27.7188 2.91797 20.0007C2.91797 10.5662 10.5662 2.91797 20.0007 2.91797C23.7835 2.91797 27.2792 4.14728 30.1094 6.22831C19.1494 2.92771 8.09038 11.1408 8.09038 22.5869Z" fill="#EEF7FF"/>
<path d="M20.0002 34.9688C19.6193 34.9688 19.3105 34.66 19.3105 34.2791V32.6662C19.3105 32.2854 19.6193 31.9766 20.0002 31.9766C20.3811 31.9766 20.6899 32.2854 20.6899 32.6662V34.2791C20.6899 34.6599 20.3811 34.9688 20.0002 34.9688Z" fill="#B5D5F5"/>
<path d="M26.7951 32.4613C27.176 32.4613 27.4848 32.1526 27.4848 31.7717C27.4848 31.3908 27.176 31.082 26.7951 31.082C26.4142 31.082 26.1055 31.3908 26.1055 31.7717C26.1055 32.1526 26.4142 32.4613 26.7951 32.4613Z" fill="#B5D5F5"/>
<path d="M13.2053 32.4613C13.5862 32.4613 13.8949 32.1526 13.8949 31.7717C13.8949 31.3908 13.5862 31.082 13.2053 31.082C12.8244 31.082 12.5156 31.3908 12.5156 31.7717C12.5156 32.1526 12.8244 32.4613 13.2053 32.4613Z" fill="#B5D5F5"/>
<path d="M26.7951 8.92228C27.176 8.92228 27.4848 8.61351 27.4848 8.23262C27.4848 7.85174 27.176 7.54297 26.7951 7.54297C26.4142 7.54297 26.1055 7.85174 26.1055 8.23262C26.1055 8.61351 26.4142 8.92228 26.7951 8.92228Z" fill="#B5D5F5"/>
<path d="M20.0002 8.02349C19.6193 8.02349 19.3105 7.7147 19.3105 7.33384V5.7209C19.3105 5.34004 19.6193 5.03125 20.0002 5.03125C20.3811 5.03125 20.6899 5.34004 20.6899 5.7209V7.33384C20.6899 7.7147 20.3811 8.02349 20.0002 8.02349Z" fill="#B5D5F5"/>
<path d="M13.2053 8.92228C13.5862 8.92228 13.8949 8.61351 13.8949 8.23262C13.8949 7.85174 13.5862 7.54297 13.2053 7.54297C12.8244 7.54297 12.5156 7.85174 12.5156 8.23262C12.5156 8.61351 12.8244 8.92228 13.2053 8.92228Z" fill="#B5D5F5"/>
<path d="M27.3267 12C36.2244 12 36.2244 29 27.3267 29H12.7132C3.76226 29 3.76226 12 12.7132 12H27.3267Z" fill="#7ADBAE"/>
<path d="M11.0226 19.5072V15.0977L10 15.7158V14.7193L11.0226 14.1124H11.9543V19.5072H11.0226Z" fill="#555555"/>
<path d="M15.3591 19.6196C14.9727 19.6196 14.6319 19.5384 14.3364 19.3761C14.041 19.2112 13.81 18.9827 13.6433 18.6905C13.4792 18.3983 13.3972 18.0611 13.3972 17.679V15.9406C13.3972 15.5585 13.4792 15.2213 13.6433 14.9291C13.81 14.6369 14.041 14.4096 14.3364 14.2473C14.6319 14.0824 14.9727 14 15.3591 14C15.7454 14 16.085 14.0824 16.3779 14.2473C16.6733 14.4096 16.9043 14.6369 17.071 14.9291C17.2376 15.2213 17.3209 15.5585 17.3209 15.9406V17.679C17.3209 18.0611 17.2376 18.3983 17.071 18.6905C16.9043 18.9827 16.6733 19.2112 16.3779 19.3761C16.085 19.5384 15.7454 19.6196 15.3591 19.6196ZM15.3591 18.7617C15.5509 18.7617 15.7252 18.7167 15.8817 18.6268C16.0383 18.5344 16.162 18.412 16.2529 18.2597C16.3438 18.1048 16.3892 17.9325 16.3892 17.7427V15.8732C16.3892 15.6809 16.3438 15.5085 16.2529 15.3562C16.162 15.2013 16.0383 15.079 15.8817 14.989C15.7252 14.8966 15.5509 14.8504 15.3591 14.8504C15.1672 14.8504 14.9929 14.8966 14.8364 14.989C14.6798 15.079 14.5561 15.2013 14.4652 15.3562C14.3743 15.5085 14.3289 15.6809 14.3289 15.8732V17.7427C14.3289 17.9325 14.3743 18.1048 14.4652 18.2597C14.5561 18.412 14.6798 18.5344 14.8364 18.6268C14.9929 18.7167 15.1672 18.7617 15.3591 18.7617Z" fill="#555555"/>
<path d="M18.3072 17.162V16.4539H20.5797V17.162H18.3072Z" fill="#555555"/>
<path d="M21.4123 19.4997V18.713L23.7454 16.6562C23.9272 16.4963 24.0534 16.3452 24.1241 16.2029C24.1948 16.0605 24.2302 15.9232 24.2302 15.7908C24.2302 15.611 24.191 15.4511 24.1128 15.3112C24.0345 15.1689 23.9259 15.0565 23.7871 14.9741C23.6507 14.8916 23.4929 14.8504 23.3136 14.8504C23.1243 14.8504 22.9563 14.8941 22.8099 14.9816C22.666 15.0665 22.5536 15.1801 22.4728 15.3225C22.392 15.4648 22.3541 15.6184 22.3592 15.7833H21.4199C21.4199 15.4236 21.5007 15.1102 21.6623 14.8429C21.8264 14.5757 22.0511 14.3684 22.3365 14.221C22.6243 14.0737 22.9563 14 23.3326 14C23.681 14 23.9941 14.0774 24.2718 14.2323C24.5496 14.3846 24.768 14.5969 24.9271 14.8692C25.0861 15.1389 25.1657 15.4499 25.1657 15.802C25.1657 16.0593 25.1303 16.2753 25.0596 16.4501C24.9889 16.625 24.8829 16.7861 24.7415 16.9334C24.6026 17.0808 24.4297 17.2444 24.2226 17.4242L22.5675 18.8741L22.4842 18.6493H25.1657V19.4997H21.4123Z" fill="#555555"/>
<path d="M28.0381 19.6196C27.6518 19.6196 27.3109 19.5384 27.0155 19.3761C26.7201 19.2112 26.489 18.9827 26.3224 18.6905C26.1583 18.3983 26.0762 18.0611 26.0762 17.679V15.9406C26.0762 15.5585 26.1583 15.2213 26.3224 14.9291C26.489 14.6369 26.7201 14.4096 27.0155 14.2473C27.3109 14.0824 27.6518 14 28.0381 14C28.4244 14 28.764 14.0824 29.0569 14.2473C29.3523 14.4096 29.5834 14.6369 29.75 14.9291C29.9167 15.2213 30 15.5585 30 15.9406V17.679C30 18.0611 29.9167 18.3983 29.75 18.6905C29.5834 18.9827 29.3523 19.2112 29.0569 19.3761C28.764 19.5384 28.4244 19.6196 28.0381 19.6196ZM28.0381 18.7617C28.23 18.7617 28.4042 18.7167 28.5608 18.6268C28.7173 18.5344 28.841 18.412 28.9319 18.2597C29.0228 18.1048 29.0683 17.9325 29.0683 17.7427V15.8732C29.0683 15.6809 29.0228 15.5085 28.9319 15.3562C28.841 15.2013 28.7173 15.079 28.5608 14.989C28.4042 14.8966 28.23 14.8504 28.0381 14.8504C27.8462 14.8504 27.672 14.8966 27.5154 14.989C27.3589 15.079 27.2352 15.2013 27.1443 15.3562C27.0534 15.5085 27.0079 15.6809 27.0079 15.8732V17.7427C27.0079 17.9325 27.0534 18.1048 27.1443 18.2597C27.2352 18.412 27.3589 18.5344 27.5154 18.6268C27.672 18.7167 27.8462 18.7617 28.0381 18.7617Z" fill="#555555"/>
<path d="M18.6423 27V24.5424C18.6423 24.2651 18.5729 24.0491 18.434 23.8942C18.2952 23.7369 18.1071 23.6582 17.8697 23.6582C17.7233 23.6582 17.592 23.6919 17.4758 23.7594C17.3597 23.8243 17.2675 23.9217 17.1993 24.0516C17.1312 24.179 17.0971 24.3313 17.0971 24.5086L16.6918 24.2726C16.6893 23.9929 16.7524 23.7469 16.8812 23.5346C17.0125 23.3198 17.1892 23.1524 17.4114 23.0326C17.6336 22.9127 17.8811 22.8527 18.1538 22.8527C18.6057 22.8527 18.9517 22.9876 19.1915 23.2573C19.4339 23.5246 19.5551 23.8768 19.5551 24.3138V27H18.6423ZM13.7225 27V22.9539H14.5292V24.2089H14.6428V27H13.7225ZM16.1881 27V24.5536C16.1881 24.2714 16.1187 24.0516 15.9798 23.8942C15.8409 23.7369 15.6515 23.6582 15.4117 23.6582C15.1794 23.6582 14.9925 23.7369 14.8511 23.8942C14.7122 24.0516 14.6428 24.2564 14.6428 24.5086L14.2338 24.2389C14.2338 23.9767 14.2994 23.7406 14.4307 23.5308C14.562 23.321 14.7388 23.1562 14.961 23.0363C15.1857 22.9139 15.4369 22.8527 15.7147 22.8527C16.0202 22.8527 16.2752 22.9177 16.4797 23.0476C16.6868 23.1749 16.8408 23.3498 16.9418 23.572C17.0453 23.7918 17.0971 24.0403 17.0971 24.3176V27H16.1881Z" fill="#555555"/>
<path d="M20.6187 22.3395V21.5115H21.5315V22.3395H20.6187ZM20.6187 27V22.9539H21.5315V27H20.6187Z" fill="#555555"/>
<path d="M25.4953 27V25.0519C25.4953 24.9245 25.4864 24.7834 25.4687 24.6285C25.4511 24.4737 25.4094 24.3251 25.3438 24.1827C25.2806 24.0378 25.1847 23.9192 25.0559 23.8268C24.9297 23.7344 24.758 23.6882 24.5408 23.6882C24.4247 23.6882 24.3098 23.7069 24.1962 23.7444C24.0825 23.7818 23.979 23.8468 23.8856 23.9392C23.7947 24.0291 23.7215 24.154 23.6659 24.3138C23.6104 24.4712 23.5826 24.6735 23.5826 24.9207L23.041 24.6922C23.041 24.3476 23.1079 24.0353 23.2417 23.7556C23.3781 23.4759 23.5775 23.2536 23.8401 23.0888C24.1027 22.9214 24.4259 22.8378 24.8097 22.8378C25.1127 22.8378 25.3627 22.8877 25.5596 22.9876C25.7566 23.0875 25.9131 23.2149 26.0293 23.3697C26.1454 23.5246 26.2313 23.6894 26.2868 23.8643C26.3424 24.0391 26.3777 24.2052 26.3929 24.3625C26.4106 24.5174 26.4194 24.6435 26.4194 24.7409V27H25.4953ZM22.6585 27V22.9539H23.4728V24.2089H23.5826V27H22.6585Z" fill="#555555"/>
</g>
<defs>
<clipPath id="clip0_1925_30814">
<rect width="40" height="40" fill="white"/>
</clipPath>
</defs>
</svg>
