<svg width="16" height="22" viewBox="0 0 16 22" fill="none" xmlns="http://www.w3.org/2000/svg">
<path fill-rule="evenodd" clip-rule="evenodd" d="M12.026 9.57876H3.99691V7.01782C3.99691 5.93996 4.44722 4.95936 5.17561 4.25025C5.90404 3.53909 6.90637 3.09743 8.0104 3.09743C9.11443 3.09743 10.1188 3.53913 10.8451 4.25025C11.5735 4.95936 12.026 5.94 12.026 7.01782V9.57876ZM15.448 10.1177C15.2363 9.91307 14.9769 9.75502 14.6864 9.66588V7.01782C14.6864 5.22476 13.9351 3.59379 12.7253 2.41261C11.5154 1.23143 9.84694 0.5 8.0104 0.5C6.17382 0.5 4.50531 1.23143 3.29546 2.41261C2.08561 3.59379 1.33436 5.22476 1.33436 7.01782V9.65779C1.03554 9.74692 0.767828 9.90695 0.552014 10.1177C0.211688 10.452 0 10.9099 0 11.4164V19.6624C0 20.1689 0.211688 20.6268 0.552014 20.9611C0.894403 21.2933 1.36345 21.5 1.88221 21.5H14.1178C14.6366 21.5 15.1056 21.2933 15.448 20.9611C15.7883 20.6268 16 20.1689 16 19.6624V11.4164C16 10.9099 15.7884 10.452 15.448 10.1177ZM6.69674 13.5437C7.03084 13.2196 7.49155 13.017 8 13.017C8.50845 13.017 8.96912 13.2196 9.30326 13.5437C9.6374 13.87 9.84281 14.3198 9.84281 14.8161C9.84281 15.2031 9.7183 15.5597 9.50661 15.8535C9.3302 16.0966 9.09363 16.2952 8.81763 16.4289V17.2636C8.81763 17.4824 8.72632 17.683 8.57689 17.8268C8.42952 17.9707 8.22617 18.0619 7.99996 18.0619C7.77581 18.0619 7.57039 17.9707 7.42302 17.8268C7.2757 17.683 7.18229 17.4824 7.18229 17.2636V16.4289C6.90835 16.2952 6.67178 16.0966 6.49537 15.8535C6.28162 15.5597 6.1571 15.2031 6.1571 14.8161C6.15719 14.3197 6.36471 13.8699 6.69674 13.5437Z" fill="#027DB8"/>
</svg>
