<svg width="40" height="40" viewBox="0 0 40 40" fill="none" xmlns="http://www.w3.org/2000/svg">
<g clip-path="url(#clip0_1925_30729)">
<path d="M23.7038 22.5927C23.7038 27.0385 17.8898 27.3805 8.64436 32.2474C8.1959 31.088 8.43187 31.6972 7.57422 29.4845C16.1709 22.2588 14.0741 23.333 16.2959 21.8516C23.7806 22.6 22.601 22.482 23.7038 22.5927Z" fill="#5FC68F"/>
<path d="M22.9329 22.5153C22.384 26.304 16.8466 26.8896 8.28872 31.328L7.57422 29.4845C16.1709 22.2588 14.0741 23.333 16.2959 21.8516L22.9329 22.5153Z" fill="#7ADBAE"/>
<path d="M32.5093 38.1481H28.565C27.6005 38.1481 26.8932 37.2425 27.1271 36.307C27.5015 34.8103 27.2761 36.3396 28.2215 28.0515C21.2095 27.4155 21.8842 28.1753 19.3909 27.3805C19.049 27.2716 18.7418 27.1523 18.5192 27.037C16.6821 26.0862 15.5563 23.333 16.2966 21.8516C16.3091 21.8529 23.6952 22.5927 23.7054 22.5927C28.9311 23.8757 26.0747 22.9895 30.1327 24.3983C30.1368 24.3991 30.1392 24.4007 30.1432 24.4015C31.3488 24.8209 32.0571 26.0701 31.7996 27.32C31.1291 30.5763 31.4462 29.0323 30.0424 35.8433L31.8964 36.307C32.7333 36.5155 33.0533 37.1647 33.069 37.1804C33.3206 37.6086 33.0061 38.1481 32.5093 38.1481Z" fill="#F9CFAC"/>
<path d="M33.0691 37.1804H29.5329C28.5684 37.1804 27.8611 36.2748 28.095 35.3393C28.4693 33.8425 28.2439 35.3719 29.1893 27.0838C22.1773 26.4478 22.8521 27.2076 20.3588 26.4128C20.0169 26.3039 19.7096 26.1846 19.4871 26.0693C18.0258 25.3128 17.0145 23.4161 17.0355 21.9258C23.6527 22.5875 23.6971 22.5927 23.7055 22.5927C28.9313 23.8758 26.0749 22.9895 30.1329 24.3983C30.1369 24.3991 30.1393 24.4007 30.1434 24.4016C31.349 24.8209 32.0572 26.0701 31.7998 27.3201C31.5186 28.6854 31.0373 31.0169 30.0426 35.8433L31.8966 36.307C32.7335 36.5156 33.0534 37.1647 33.0691 37.1804Z" fill="#FFE4CC"/>
<path d="M31.7987 27.32C31.4731 28.9005 31.6662 27.9636 30.9407 31.4813H27.8294C27.9616 30.3251 27.8769 31.0674 28.2205 28.0515C24.8754 27.7419 23.5485 27.7655 21.4811 27.7773C20.6674 27.7829 19.1981 27.3886 18.5183 27.037C16.6598 26.0749 15.5635 23.3157 16.2957 21.8516L23.7037 22.5927C28.9302 23.8757 26.0738 22.9895 30.1318 24.3983C30.1358 24.3991 30.1382 24.4007 30.1423 24.4015C31.3523 24.8224 32.0549 26.0759 31.7987 27.32Z" fill="#5FC68F"/>
<path d="M30.2512 24.4417C31.291 24.8563 31.8661 25.9772 31.6542 27.0764C31.5958 27.3796 31.5421 27.6555 31.5421 27.6555C31.1946 29.3407 29.7101 30.5643 27.9721 30.5643C27.9195 30.5643 27.904 30.8431 28.222 28.0515C28.1973 28.0492 27.8179 27.0941 26.9021 27.0227C24.3526 26.8241 23.2036 26.8506 21.4826 26.8604C20.6689 26.866 19.1996 26.4717 18.5197 26.12C17.2238 25.4491 16.2819 23.8814 16.0996 22.4959C16.1351 22.2637 16.1996 22.0467 16.2972 21.8516L23.7051 22.5927C28.9317 23.8757 26.0753 22.9894 30.1333 24.3983C30.1427 24.4002 30.2144 24.427 30.2512 24.4417Z" fill="#7ADBAE"/>
<path d="M14.8145 11.4805C15.3316 14.2403 15.1757 13.4333 15.2088 13.5845C15.923 16.8418 16.2959 16.2255 16.2959 21.8505C23.5334 22.5745 23.6963 22.5916 23.7047 22.5916C23.7153 17.3114 24.0194 16.8052 24.7909 13.5845C24.7909 13.5764 24.8492 13.2744 25.1853 11.4805C23.9531 11.4805 15.9407 11.4805 14.8145 11.4805Z" fill="#B3CEC9"/>
<path d="M6.00063 37.3901C6.06749 37.7736 5.78201 38.1305 5.39298 38.1461C4.46977 38.1833 3.58421 37.6375 3.23156 36.7278C2.90148 35.8766 3.07962 36.3395 2.3227 34.3827C2.07278 33.7366 2.30286 33.0013 2.88156 32.615L7.57424 29.4844C7.85504 30.2094 8.26624 31.2709 8.64438 32.2472C8.2977 32.468 5.74313 34.0951 5.45895 34.2762C5.73644 35.8717 6.00233 37.3997 6.00063 37.3901Z" fill="#F9CFAC"/>
<path d="M5.45955 34.2762L5.81817 36.3386C5.88978 36.7502 5.55672 37.1245 5.14004 37.0934C4.31198 37.0314 3.55256 36.5053 3.23216 35.6794C2.2562 33.1637 2.3233 33.3447 2.32322 33.3134C2.42967 33.0355 2.62088 32.7895 2.88216 32.615L7.57484 29.4844L8.31918 31.4061L6.34373 32.6646C5.79349 33.0151 5.45955 33.6226 5.45955 34.2762Z" fill="#FFE4CC"/>
<path d="M22.9629 6.76631C22.9629 8.29653 22.4645 9.24571 22.0315 10.2292C21.2991 11.8924 18.7014 11.8934 17.9686 10.2292C17.4805 9.12063 17.0371 8.25314 17.0371 6.76623C17.0371 4.38303 20.228 3.16386 22.0953 4.86141C22.6314 5.34883 22.9629 6.0222 22.9629 6.76631Z" fill="#FFE4CC"/>
<path d="M22.9639 6.76773C22.9639 8.28763 22.4796 9.21487 22.0324 10.2306C21.3 11.8944 18.702 11.8943 17.9696 10.2306C17.7293 9.6847 16.863 7.98118 17.0575 6.46048C17.2239 5.12574 18.469 4.07422 20.001 4.07422C21.6732 4.0743 22.9639 5.31227 22.9639 6.76773Z" fill="#F9CFAC"/>
<path d="M22.9437 6.45942C22.8458 7.6994 22.469 8.42963 22.0316 9.42309C21.2991 11.0869 18.7012 11.0868 17.9687 9.42309C17.5385 8.44592 17.1569 7.71763 17.0566 6.45942C17.3309 4.25929 20.3202 3.24946 22.0954 4.86186C22.5566 5.28113 22.8662 5.83846 22.9437 6.45942Z" fill="#FFE4CC"/>
<path d="M22.9635 6.76873C22.9635 7.13566 22.9321 7.50179 22.8684 7.86307C22.7337 7.39211 22.4627 6.97115 22.0958 6.63809C20.4611 5.15327 17.7009 5.87721 17.133 7.86307C16.9262 6.67559 16.9989 5.68133 17.9055 4.86392C19.7873 3.15475 22.9635 4.39812 22.9635 6.76873Z" fill="#6D6D6D"/>
<path d="M21.4827 4.4701H18.5199C18.5199 3.25415 18.5175 3.28987 18.5255 3.2064C18.631 1.94828 20.1627 1.40119 21.0497 2.28545C21.5917 2.82939 21.4827 3.39568 21.4827 4.4701Z" fill="#6D6D6D"/>
<path d="M15.7305 11.4805C16.1564 13.7535 16.028 13.0889 16.0553 13.2133C16.4942 15.2151 16.7953 15.437 16.8988 17.3479C16.9824 18.8906 18.1747 20.144 19.712 20.2978C21.4551 20.4721 23.0133 19.1795 23.1433 17.4227C23.3021 15.277 23.5515 15.327 24.2723 11.4805C21.1107 11.4805 18.8927 11.4805 15.7305 11.4805Z" fill="#CAE0DD"/>
<path d="M39.9995 12.9809C39.9898 13.7986 39.2979 14.4446 38.4801 14.4446H24.4441C23.4521 14.4446 22.7492 13.488 23.0191 12.5607C23.1923 11.9352 23.7702 11.4817 24.4441 11.4817H34.9415C35.6939 11.4817 36.1963 11.314 36.66 10.9986C37.2987 10.5648 38.1729 10.7914 38.5181 11.4817C39.3466 11.4817 40.0086 12.156 39.9995 12.9809Z" fill="#F9CFAC"/>
<path d="M17.0374 12.9631C17.0374 13.7771 16.3784 14.4446 15.5559 14.4446H1.51984C0.176555 14.4446 -0.502387 12.8549 0.433568 11.9148C0.703 11.647 1.07283 11.4817 1.48194 11.4817C1.8271 10.7914 2.70128 10.5648 3.33998 10.9986C3.80368 11.314 4.30609 11.4817 5.0585 11.4817H15.5559C16.3798 11.4817 17.0374 12.1522 17.0374 12.9631Z" fill="#F9CFAC"/>
<path d="M39.9435 12.5575C39.762 13.1849 39.1653 13.6381 38.4806 13.6381H24.4445C23.7663 13.6381 23.1945 13.1825 23.0195 12.5607C23.1928 11.9352 23.7706 11.4817 24.4445 11.4817H34.9419C35.6944 11.4817 36.1968 11.314 36.6605 10.9986C37.2992 10.5648 38.1733 10.7914 38.5185 11.4817C39.1857 11.4817 39.7649 11.9242 39.9435 12.5575Z" fill="#FFE4CC"/>
<path d="M16.9806 12.5607C16.8064 13.1804 16.236 13.6381 15.5556 13.6381H1.51952C0.834856 13.6381 0.23809 13.1849 0.0566406 12.5575C0.234541 11.9265 0.812114 11.4817 1.48162 11.4817C1.82678 10.7914 2.70096 10.5648 3.33966 10.9986C3.80336 11.314 4.30577 11.4817 5.05818 11.4817H15.5556C16.2338 11.4817 16.8064 11.9381 16.9806 12.5607Z" fill="#FFE4CC"/>
<path d="M22.2365 4.99922C21.2422 5.64292 18.7596 5.64267 17.7656 4.99922C18.9146 3.76665 21.0861 3.76512 22.2365 4.99922Z" fill="#797A7A"/>
<path d="M21.477 3.2064C20.7054 3.66237 19.2969 3.66228 18.5254 3.2064C18.6309 1.94828 20.1625 1.40119 21.0495 2.28545C21.2891 2.52577 21.4471 2.84834 21.477 3.2064Z" fill="#797A7A"/>
</g>
<defs>
<clipPath id="clip0_1925_30729">
<rect width="40" height="40" fill="white"/>
</clipPath>
</defs>
</svg>
