<svg width="375" height="694" viewBox="0 0 375 694" fill="none" xmlns="http://www.w3.org/2000/svg">
<g opacity="0.3">
<path d="M408.316 73.8227C399.505 48.5339 390 28.159 383.577 15.5261C377.617 3.79821 364.211 -1.75553 351.704 2.32405C338.217 6.72003 317.067 14.4143 292.932 26.0803C307.5 43.6837 322.336 64.1947 335.25 87.0495C360.528 79.9969 385.5 75.9686 408.316 73.8227Z" fill="#CFE0E7"/>
<path d="M74.0666 26.0786C49.9302 14.4125 28.7811 6.71826 15.2945 2.32228C2.78708 -1.75729 -10.6183 3.79645 -16.5785 15.5243C-23.0019 28.159 -32.5062 48.5339 -41.3176 73.8227C-18.5017 75.9686 6.4725 79.9969 31.7507 87.0478C44.6646 64.1929 59.4999 43.6819 74.0666 26.0786Z" fill="#CFE0E7"/>
<path d="M-243.902 344.047C-226.29 329.472 -205.768 314.631 -182.903 301.712C-189.938 276.405 -193.954 251.401 -196.101 228.642C-221.416 237.458 -241.813 246.973 -254.456 253.402C-266.184 259.362 -271.738 272.768 -267.658 285.275C-263.262 298.762 -255.566 319.913 -243.902 344.047Z" fill="#CFE0E7"/>
<path d="M-267.656 621.685C-271.736 634.192 -266.182 647.597 -254.454 653.557C-241.809 659.986 -221.413 669.501 -196.098 678.318C-193.95 655.558 -189.934 630.552 -182.901 605.248C-205.77 592.329 -226.29 577.486 -243.902 562.912C-255.568 587.049 -263.262 608.198 -267.656 621.685Z" fill="#CFE0E7"/>
<path d="M-41.3159 833.139C-32.5045 858.426 -23.0002 878.8 -16.5768 891.433C-10.6165 903.161 2.78882 908.715 15.2962 904.635C28.7829 900.239 49.9337 892.545 74.0683 880.879C59.4999 863.276 44.6664 842.767 31.7524 819.912C6.47247 826.964 -18.4999 830.993 -41.3159 833.139Z" fill="#CFE0E7"/>
<path d="M292.932 880.881C317.068 892.547 338.217 900.241 351.704 904.637C364.211 908.717 377.617 903.163 383.577 891.435C390 878.8 399.505 858.426 408.316 833.14C385.5 830.994 360.528 826.966 335.25 819.915C322.334 842.766 307.5 863.277 292.932 880.881Z" fill="#CFE0E7"/>
<path d="M610.902 562.912C593.29 577.488 572.768 592.329 549.901 605.248C556.936 630.552 560.952 655.557 563.1 678.316C588.415 669.499 608.811 659.984 621.455 653.556C633.182 647.595 638.736 634.19 634.657 621.683C630.261 608.198 622.566 587.047 610.902 562.912Z" fill="#CFE0E7"/>
<path d="M634.657 285.275C638.736 272.768 633.182 259.362 621.455 253.402C608.809 246.973 588.413 237.458 563.1 228.642C560.952 251.403 556.936 276.407 549.901 301.712C572.768 314.631 593.288 329.472 610.9 344.047C622.566 319.913 630.261 298.762 634.657 285.275Z" fill="#CFE0E7"/>
<path d="M183.508 763.439C138.79 791.768 96.0146 803.843 90.1904 805.409C88.6067 805.835 87.007 806.202 85.3985 806.531C113.296 851.143 148.758 884.506 166.228 899.529C171.234 903.831 177.366 905.981 183.499 905.981C189.633 905.981 195.768 903.829 200.772 899.527C218.239 884.504 253.702 851.143 281.6 806.531C279.988 806.202 278.383 805.833 276.792 805.405C270.931 803.823 228.145 791.696 183.508 763.439Z" fill="#CFE0E7"/>
<path d="M498.321 636.361C493.093 639.371 454.298 661.068 402.679 672.656C391.091 724.301 369.385 763.086 366.373 768.311C365.551 769.739 364.678 771.128 363.773 772.493C415.047 784.313 463.714 782.828 486.689 781.097C493.27 780.601 499.128 777.783 503.465 773.447C507.803 769.11 510.62 763.25 511.115 756.669C512.846 733.694 514.33 685.026 502.511 633.75C501.146 634.655 499.757 635.534 498.321 636.361Z" fill="#CFE0E7"/>
<path d="M-131.326 270.602C-126.094 267.589 -87.296 245.89 -35.6773 234.301C-24.089 182.683 -2.39197 143.888 0.618225 138.661C1.4437 137.229 2.31863 135.837 3.22363 134.468C-48.0486 122.649 -96.7172 124.133 -119.692 125.862C-132.85 126.855 -143.125 137.127 -144.118 150.292C-145.849 173.267 -147.332 221.935 -135.512 273.209C-134.147 272.306 -132.76 271.428 -131.326 270.602Z" fill="#CFE0E7"/>
<path d="M629.548 470.753C633.851 465.747 636 459.615 636 453.482C636 447.348 633.849 441.213 629.547 436.209C614.524 418.74 581.159 383.275 536.544 355.375C536.217 356.98 535.856 358.585 535.426 360.183C533.862 366.002 521.779 408.776 493.464 453.482C521.77 498.175 533.86 540.948 535.426 546.773C535.858 548.372 536.218 549.977 536.545 551.584C581.161 523.686 614.526 488.223 629.548 470.753Z" fill="#CFE0E7"/>
<path d="M-168.428 360.187C-168.857 358.587 -169.218 356.982 -169.545 355.377C-214.161 383.275 -247.525 418.74 -262.548 436.209C-271.149 446.215 -271.153 460.743 -262.546 470.754C-247.524 488.223 -214.159 523.688 -169.543 551.586C-169.216 549.979 -168.856 548.372 -168.424 546.771C-166.867 540.97 -154.8 498.2 -126.464 453.476C-154.773 408.783 -166.86 366.011 -168.428 360.187Z" fill="#CFE0E7"/>
<path d="M366.382 138.663C369.387 143.877 391.091 182.66 402.681 234.303C454.286 245.89 493.084 267.583 498.313 270.593C499.751 271.422 501.143 272.304 502.512 273.209C514.334 221.934 512.849 173.265 511.119 150.288C510.622 143.708 507.806 137.85 503.469 133.512C499.131 129.175 493.271 126.357 486.691 125.862C463.717 124.132 415.049 122.647 363.777 134.467C364.68 135.835 365.557 137.229 366.382 138.663Z" fill="#CFE0E7"/>
<path d="M0.614685 768.293C-2.39551 763.07 -24.0908 724.275 -35.679 672.658C-87.2836 661.072 -126.084 639.378 -131.312 636.368C-132.749 635.539 -134.142 634.659 -135.51 633.752C-147.332 685.028 -145.847 733.696 -144.117 756.673C-143.123 769.831 -132.852 780.106 -119.687 781.099C-96.7119 782.83 -48.0398 784.314 3.23599 772.493C2.32214 771.118 1.44016 769.723 0.614685 768.293Z" fill="#CFE0E7"/>
<path d="M183.489 143.52C228.207 115.193 270.984 103.117 276.808 101.551C278.392 101.125 279.992 100.755 281.598 100.428C253.701 55.8164 218.239 22.455 200.77 7.43236C190.764 -1.16869 176.236 -1.17222 166.225 7.43413C148.757 22.455 113.296 55.8181 85.3985 100.428C87.0106 100.757 88.6137 101.127 90.2046 101.554C96.0729 103.136 138.859 115.271 183.489 143.52Z" fill="#CFE0E7"/>
<path d="M183.499 533.021C227.429 533.021 263.04 497.409 263.04 453.48C263.04 409.55 227.429 373.939 183.499 373.939C139.57 373.939 103.958 409.55 103.958 453.48C103.958 497.409 139.57 533.021 183.499 533.021Z" fill="#CFE0E7"/>
<path d="M320.43 741.831C321.876 739.322 351.534 687.143 356.275 626.255C417.163 621.513 469.342 591.857 471.85 590.412C482.265 584.413 487.343 572.157 484.22 560.549C483.469 557.755 467.543 499.886 427.841 453.48C467.543 407.074 483.469 349.207 484.22 346.41C487.341 334.804 482.266 322.548 471.85 316.547C469.342 315.103 417.161 285.441 356.275 280.706C351.534 219.818 321.876 167.637 320.432 165.129C314.433 154.714 302.176 149.636 290.569 152.761C287.774 153.512 229.905 169.438 183.499 209.14C137.091 169.44 79.2261 153.514 76.4316 152.761C64.8239 149.638 52.5674 154.716 46.5683 165.131C45.1224 167.639 15.4659 219.82 10.7253 280.706C-50.1626 285.446 -102.343 315.105 -104.85 316.549C-115.266 322.55 -120.343 334.806 -117.219 346.412C-116.468 349.207 -100.542 407.075 -60.8406 453.482C-100.542 499.888 -116.468 557.755 -117.219 560.551C-120.341 572.157 -115.266 584.413 -104.85 590.414C-102.342 591.858 -50.1626 621.518 10.7253 626.257C15.4659 687.143 45.1241 739.324 46.5683 741.832C49.5679 747.041 54.1317 750.914 59.3974 753.095C64.663 755.277 70.6269 755.764 76.4316 754.202C79.2261 753.451 137.093 737.525 183.501 697.823C229.907 737.525 287.776 753.449 290.571 754.204C302.177 757.323 314.431 752.245 320.43 741.831ZM183.499 586.048C110.401 586.048 50.9307 526.578 50.9307 453.48C50.9307 380.381 110.401 320.911 183.499 320.911C256.598 320.911 316.068 380.381 316.068 453.48C316.068 526.578 256.598 586.048 183.499 586.048Z" fill="#CFE0E7"/>
</g>
</svg>
