<svg width="320" height="642" viewBox="0 0 320 642" fill="none" xmlns="http://www.w3.org/2000/svg">
<g opacity="0.3">
<path d="M629.418 67.691C621.229 44.1906 612.397 25.2565 606.428 13.517C600.889 2.61848 588.432 -2.54251 576.809 1.24857C564.276 5.33367 544.621 12.4838 522.193 23.3249C535.731 39.6833 549.517 58.7438 561.518 79.9824C585.009 73.4285 608.215 69.6851 629.418 67.691Z" fill="#CFE0E7"/>
<path d="M318.805 23.3232C296.376 12.4822 276.723 5.33202 264.19 1.24692C252.567 -2.54415 240.109 2.61684 234.571 13.5154C228.602 25.2565 219.769 44.1906 211.581 67.691C232.784 69.6851 255.992 73.4285 279.482 79.9808C291.483 58.7422 305.269 39.6817 318.805 23.3232Z" fill="#CFE0E7"/>
<path d="M23.3232 318.806C39.6899 305.261 58.7603 291.47 80.0087 279.464C73.4712 255.947 69.7393 232.711 67.7435 211.561C44.2185 219.755 25.2647 228.597 13.5154 234.571C2.61684 240.109 -2.54415 252.567 1.24692 264.19C5.33202 276.723 12.4838 296.378 23.3232 318.806Z" fill="#CFE0E7"/>
<path d="M1.24857 576.809C-2.54251 588.432 2.61848 600.889 13.517 606.428C25.268 612.402 44.2218 621.244 67.7468 629.437C69.7426 608.287 73.4745 585.05 80.0103 561.535C58.7586 549.529 39.6899 535.736 23.3232 522.193C12.4822 544.623 5.33202 564.276 1.24857 576.809Z" fill="#CFE0E7"/>
<path d="M211.583 773.309C219.771 796.808 228.603 815.742 234.572 827.482C240.111 838.38 252.568 843.541 264.191 839.75C276.724 835.665 296.379 828.515 318.807 817.674C305.269 801.315 291.484 782.256 279.484 761.018C255.992 767.572 232.785 771.315 211.583 773.309Z" fill="#CFE0E7"/>
<path d="M522.193 817.675C544.623 828.516 564.276 835.667 576.809 839.752C588.432 843.543 600.889 838.382 606.428 827.483C612.397 815.742 621.229 796.808 629.418 773.311C608.215 771.317 585.009 767.573 561.518 761.021C549.516 782.256 535.731 801.317 522.193 817.675Z" fill="#CFE0E7"/>
<path d="M817.677 522.193C801.31 535.738 782.24 549.529 760.99 561.535C767.527 585.05 771.259 608.286 773.255 629.436C796.78 621.242 815.734 612.4 827.483 606.426C838.382 600.888 843.543 588.43 839.752 576.807C835.667 564.276 828.516 544.621 817.677 522.193Z" fill="#CFE0E7"/>
<path d="M839.752 264.19C843.543 252.567 838.382 240.109 827.483 234.571C815.732 228.597 796.778 219.755 773.255 211.561C771.259 232.713 767.527 255.949 760.99 279.464C782.24 291.47 801.309 305.261 817.675 318.806C828.516 296.378 835.667 276.723 839.752 264.19Z" fill="#CFE0E7"/>
<path d="M420.508 708.539C378.952 734.865 339.201 746.085 333.789 747.54C332.317 747.936 330.831 748.278 329.336 748.583C355.261 790.041 388.214 821.044 404.45 835.005C409.101 839.003 414.8 841 420.499 841C426.199 841 431.9 839.001 436.551 835.003C452.783 821.043 485.738 790.041 511.663 748.583C510.165 748.278 508.673 747.935 507.195 747.537C501.748 746.067 461.988 734.797 420.508 708.539Z" fill="#CFE0E7"/>
<path d="M713.058 590.447C708.199 593.245 672.148 613.407 624.179 624.176C613.411 672.169 593.24 708.211 590.441 713.066C589.677 714.393 588.866 715.684 588.025 716.952C635.673 727.936 680.898 726.556 702.248 724.948C708.363 724.487 713.807 721.868 717.838 717.839C721.869 713.808 724.487 708.363 724.947 702.248C726.555 680.898 727.935 635.671 716.951 588.021C715.683 588.862 714.392 589.679 713.058 590.447Z" fill="#CFE0E7"/>
<path d="M127.938 250.555C132.8 247.754 168.854 227.59 216.823 216.821C227.591 168.853 247.754 132.801 250.551 127.944C251.318 126.614 252.131 125.319 252.972 124.048C205.326 113.064 160.099 114.444 138.749 116.05C126.522 116.973 116.973 126.518 116.05 138.752C114.442 160.103 113.064 205.329 124.048 252.977C125.316 252.138 126.605 251.322 127.938 250.555Z" fill="#CFE0E7"/>
<path d="M835.005 436.551C839.003 431.899 841 426.201 841 420.501C841 414.801 839.001 409.1 835.003 404.45C821.043 388.216 790.037 355.259 748.577 329.333C748.273 330.824 747.938 332.316 747.539 333.801C746.085 339.208 734.856 378.957 708.544 420.501C734.848 462.034 746.083 501.782 747.539 507.195C747.94 508.681 748.275 510.173 748.579 511.666C790.039 485.741 821.044 452.786 835.005 436.551Z" fill="#CFE0E7"/>
<path d="M93.4598 333.804C93.0606 332.317 92.7255 330.826 92.4217 329.334C50.9613 355.259 19.9559 388.216 5.99563 404.45C-1.99717 413.748 -2.00046 427.249 5.99727 436.552C19.9576 452.786 50.9629 485.743 92.4233 511.667C92.7272 510.174 93.0623 508.681 93.4631 507.193C94.9102 501.802 106.124 462.057 132.456 420.496C106.149 378.963 94.9167 339.216 93.4598 333.804Z" fill="#CFE0E7"/>
<path d="M590.449 127.946C593.241 132.791 613.411 168.831 624.181 216.823C672.136 227.59 708.191 247.749 713.05 250.546C714.387 251.317 715.679 252.136 716.952 252.977C727.938 205.328 726.558 160.101 724.95 138.749C724.488 132.634 721.872 127.19 717.841 123.159C713.81 119.128 708.365 116.51 702.25 116.05C680.901 114.442 635.674 113.062 588.028 124.046C588.867 125.318 589.682 126.614 590.449 127.946Z" fill="#CFE0E7"/>
<path d="M250.548 713.05C247.751 708.196 227.59 672.144 216.821 624.178C168.866 613.411 132.809 593.251 127.951 590.454C126.615 589.684 125.321 588.866 124.05 588.023C113.064 635.673 114.444 680.899 116.052 702.251C116.975 714.479 126.52 724.027 138.754 724.95C160.104 726.558 205.334 727.938 252.984 716.952C252.135 715.674 251.315 714.378 250.548 713.05Z" fill="#CFE0E7"/>
<path d="M420.489 132.46C462.045 106.136 501.797 94.9135 507.21 93.4581C508.681 93.0623 510.168 92.719 511.661 92.4151C485.736 50.958 452.783 19.9559 436.549 5.99563C427.25 -1.99717 413.75 -2.00046 404.446 5.99727C388.214 19.9559 355.261 50.9596 329.336 92.4151C330.834 92.7206 332.324 93.0639 333.802 93.4614C339.256 94.9315 379.016 106.208 420.489 132.46Z" fill="#CFE0E7"/>
<path d="M420.499 494.415C461.322 494.415 494.415 461.322 494.415 420.499C494.415 379.677 461.322 346.583 420.499 346.583C379.677 346.583 346.583 379.677 346.583 420.499C346.583 461.322 379.677 494.415 420.499 494.415Z" fill="#CFE0E7"/>
<path d="M547.747 688.458C549.09 686.128 576.651 637.639 581.057 581.057C637.639 576.65 686.128 549.09 688.458 547.748C698.137 542.174 702.856 530.784 699.953 519.997C699.255 517.4 684.456 463.624 647.562 420.499C684.456 377.375 699.255 323.6 699.953 321.002C702.854 310.216 698.138 298.827 688.458 293.25C686.128 291.908 637.637 264.344 581.057 259.944C576.651 203.362 549.09 154.871 547.748 152.54C542.174 142.862 530.784 138.143 519.997 141.047C517.4 141.745 463.624 156.545 420.499 193.439C377.373 156.546 323.6 141.747 321.003 141.047C310.216 138.145 298.827 142.864 293.252 152.542C291.908 154.873 264.349 203.363 259.944 259.944C203.362 264.349 154.871 291.91 152.542 293.252C142.862 298.828 138.145 310.218 141.047 321.003C141.745 323.6 156.545 377.377 193.439 420.501C156.545 463.625 141.745 517.4 141.047 519.999C138.146 530.784 142.862 542.174 152.542 547.75C154.873 549.092 203.362 576.655 259.944 581.058C264.349 637.639 291.91 686.129 293.252 688.46C296.039 693.301 300.28 696.9 305.174 698.927C310.067 700.954 315.609 701.407 321.003 699.955C323.6 699.257 377.375 684.457 420.501 647.563C463.625 684.457 517.402 699.255 519.999 699.957C530.784 702.856 542.172 698.137 547.747 688.458ZM420.499 543.693C352.57 543.693 297.306 488.428 297.306 420.499C297.306 352.57 352.57 297.306 420.499 297.306C488.428 297.306 543.693 352.57 543.693 420.499C543.693 488.428 488.428 543.693 420.499 543.693Z" fill="#CFE0E7"/>
</g>
</svg>
