<svg width="40" height="40" viewBox="0 0 40 40" fill="none" xmlns="http://www.w3.org/2000/svg">
<g clip-path="url(#clip0_1925_30410)">
<path d="M22.3991 22.8C22.3991 27.5999 16.9105 27.9757 6.93572 33.2271C6.38614 31.8101 6.64815 32.486 5.7793 30.2433C15.0638 22.4395 13.5993 23.6 15.9992 22C22.841 22.8555 21.6298 22.7041 22.3991 22.8Z" fill="#5FC68F"/>
<path d="M21.8362 22.7298C21.0588 26.5741 15.6847 27.2708 6.49944 32.1022L5.7793 30.2433C15.0638 22.4395 13.5993 23.6 15.9992 22L21.8362 22.7298Z" fill="#7ADBAE"/>
<path d="M3.4951 35.4209L4.09089 38.8411C4.15613 39.2156 3.88533 39.5671 3.50639 39.5955C2.52101 39.6695 1.50184 39.135 1.0662 38.0088C0.731211 37.143 0.939028 37.6799 0.108161 35.5363C-0.1628 34.8371 0.0888069 34.0428 0.712179 33.6267L5.7798 30.2461C6.66058 32.5175 6.40575 31.8601 6.93622 33.2299L3.4951 35.4209Z" fill="#F9CFAC"/>
<path d="M2.85003 34.4493L3.25865 36.7953C3.47243 38.0228 2.01666 38.8507 1.0858 38.0226C1.05475 37.995 1.15289 38.228 0.108161 35.5324C-0.1628 34.8332 0.0888069 34.0389 0.712179 33.6227L5.7798 30.2422L6.51526 32.1389L2.85003 34.4493Z" fill="#FFE4CC"/>
<path d="M29.1378 3.6563C28.4805 4.85223 27.183 5.66673 25.6895 5.66673C24.4265 8.04256 24.8221 7.18726 23.9234 9.41825C23.4976 9.00859 23.1444 8.52634 22.8855 7.99248C22.4317 7.05428 22.3984 6.33841 22.3984 5.44738C22.7514 5.27069 23.0455 4.95215 23.1871 4.55144C23.6832 3.1476 23.7278 3.13421 23.7057 2.66842C25.4259 1.28514 28.0523 1.74295 29.1378 3.6563Z" fill="#6D6D6D"/>
<path d="M23.713 2.80287C23.713 3.15158 23.6315 3.3331 23.3502 4.13155C23.1609 4.6688 23.0501 5.07895 22.4711 5.41088C21.1316 6.14957 19.5971 4.92589 20.1026 3.47705L20.5236 2.28192C20.8187 1.44726 21.751 1.00292 22.6082 1.29081C23.2639 1.51105 23.713 2.11531 23.713 2.80287Z" fill="#6D6D6D"/>
<path d="M31.9417 27.9055C31.5898 29.6123 31.7982 28.6006 31.0151 32.3997H27.6555L28.0781 28.6958C24.275 28.3507 22.9508 28.3869 20.7992 28.3998C19.9202 28.4055 18.3332 27.9797 17.5993 27.5999C15.6515 26.5917 15.1804 23.6379 15.9994 22L22.3992 22.8C28.0442 24.1862 25.7588 23.229 30.1418 24.7499C30.1458 24.7507 30.149 24.7532 30.1531 24.754C31.4546 25.2072 32.2201 26.5555 31.9417 27.9055Z" fill="#5FC68F"/>
<path d="M31.9432 27.9055C31.5913 29.6123 31.7997 28.6006 31.0166 32.3997C29.6113 32.3997 28.4999 31.1972 28.6209 29.7892L28.8102 27.5862C25.0071 27.241 22.9523 27.2773 20.8007 27.2902C19.9217 27.2958 18.3347 26.87 17.6008 26.4902C16.4129 25.8749 15.7863 24.562 15.6484 23.2637C15.7 22.7976 15.8194 22.3629 16.0008 22L22.4007 22.8C28.0457 24.1862 25.7603 23.229 30.1432 24.7499C30.1473 24.7507 30.1505 24.7532 30.1545 24.754C31.4561 25.2072 32.2216 26.5555 31.9432 27.9055Z" fill="#7ADBAE"/>
<path d="M32.7969 39.6022H28.4486C27.4075 39.6022 26.6437 38.624 26.8962 37.6143C27.3003 35.9983 27.1253 37.052 27.6559 32.4023H31.0155C30.7748 33.5714 30.976 32.5949 30.0445 37.1135L32.0477 37.6143C32.8774 37.8217 33.4223 38.5436 33.4445 38.9167C33.4687 39.2691 33.1848 39.6022 32.7969 39.6022Z" fill="#F9CFAC"/>
<path d="M33.4441 38.9167H29.3353C28.2942 38.9167 27.5305 37.9385 27.7829 36.9288C28.1871 35.3128 28.0105 36.3796 28.4644 32.4023H31.0151C30.7745 33.5714 30.9757 32.5949 30.0442 37.1135L32.0474 37.6143C32.877 37.8217 33.422 38.5436 33.4441 38.9167Z" fill="#FFE4CC"/>
<path d="M29.6006 5.36669V8.86661C29.6006 9.97142 28.6797 10.8666 27.5434 10.8666C26.1296 10.8666 24.799 10.2906 23.9258 9.41821C24.8245 7.18713 24.4291 8.04235 25.6919 5.66669C27.1854 5.66669 28.4829 4.85219 29.1402 3.65625C29.4337 4.16188 29.6006 4.74574 29.6006 5.36669Z" fill="#F9CFAC"/>
<path d="M29.6003 8.46742C29.3575 9.30773 28.5632 9.92384 27.6205 9.92384C26.3375 9.92384 25.1347 9.46151 24.2246 8.67548C24.7468 7.37931 24.4285 8.04284 25.6915 5.66669C27.185 5.66669 28.4826 4.85219 29.1398 3.65625C29.7399 4.68985 29.6003 5.31895 29.6003 8.46742Z" fill="#FFE4CC"/>
<path d="M29.5997 15.6668C29.5997 17.2668 27.765 19.1006 27.1997 19.6667C26.3997 20.4667 22.3998 22.8013 22.3998 22.8013L16 22.0667C20.1311 19.2093 22.7951 14.4237 23.9579 9.44922C24.454 9.92009 25.0531 10.2919 25.682 10.529C26.9188 11.4559 26.5724 11.1961 27.1997 11.6669C28.1852 12.5753 29.5997 14.3251 29.5997 15.6668Z" fill="#B3CEC9"/>
<path d="M28.4385 15.0464C28.4385 16.6464 26.6039 18.4802 26.0386 19.0463C25.9243 19.1606 25.7447 19.3062 25.5208 19.4718C23.1016 21.2616 20.0845 22.0484 17.0948 21.7052L16.5742 21.6454C18.95 19.8172 22.391 16.0609 23.9144 9.63281C24.9684 10.2018 23.7275 9.31234 26.0385 11.0465C27.024 11.9549 28.4385 13.7046 28.4385 15.0464Z" fill="#CAE0DD"/>
<path d="M39.9908 2.26854C39.9513 2.66853 39.7602 3.03868 39.4755 3.32335L27.6314 15.1674C26.9698 15.8289 25.893 15.8306 25.2315 15.1674C24.5704 14.5063 24.5669 13.4321 25.2315 12.7675C26.8595 11.1395 31.6633 6.3357 33.5022 4.49671C34.1813 3.8177 34.674 2.98788 34.9482 2.08548C35.2051 1.24074 36.0625 0.63221 37.1022 0.8968C38.2187 -0.219947 40.1469 0.671805 39.9908 2.26854Z" fill="#F9CFAC"/>
<path d="M38.8304 2.52575L26.9863 14.3698C26.4085 14.9476 25.5105 15.0237 24.8501 14.5859C24.613 13.9779 24.7404 13.261 25.2315 12.7699C28.436 9.56533 30.8752 7.1262 33.5023 4.49909C34.1813 3.82007 34.674 2.99025 34.9482 2.08785C35.2051 1.24312 36.0625 0.634583 37.1022 0.899173C37.6652 0.336041 38.5597 0.233947 39.2376 0.683856C39.4782 1.29126 39.3516 2.00447 38.8304 2.52575Z" fill="#FFE4CC"/>
<path d="M28.1476 2.55938C27.1325 4.00483 23.7279 4.40506 21.4319 3.90459C20.702 3.74548 20.2738 2.98663 20.522 2.28197C20.8144 1.45182 21.7456 1.00167 22.6066 1.29086C23.2381 1.50295 23.6534 2.05778 23.7066 2.66986C24.9834 1.64311 26.8185 1.59827 28.1476 2.55938Z" fill="#797A7A"/>
</g>
<defs>
<clipPath id="clip0_1925_30410">
<rect width="40" height="40" fill="white"/>
</clipPath>
</defs>
</svg>
