<svg width="40" height="40" viewBox="0 0 40 40" fill="none" xmlns="http://www.w3.org/2000/svg">
<path d="M5.21387 16.145C5.21387 16.7878 9.58534 19.3593 13.314 19.3593C14.7512 19.4449 16.1825 19.1122 17.4347 18.4014C17.096 17.7691 16.8945 17.0726 16.8433 16.3571C16.824 16.2221 16.8111 16.0807 16.8047 15.9328C16.7919 15.7528 16.7854 15.5664 16.7854 15.3735C16.7854 15.2321 16.7919 15.0907 16.8047 14.9428C16.8394 14.5044 16.9125 14.0698 17.0233 13.6442C17.0169 13.6378 17.004 13.6378 16.9976 13.6314C16.6021 13.437 16.1859 13.2882 15.7568 13.1878C14.9556 13.0058 14.1356 12.9195 13.314 12.9306C12.6768 12.934 12.0415 13.0007 11.4175 13.1299C8.24819 13.7342 5.21387 15.6114 5.21387 16.145Z" fill="#027DB8"/>
<path d="M9.16189 5.30936C8.7826 5.68865 9.60547 9.17297 11.4183 11.8473C12.0421 11.7179 12.6771 11.651 13.3142 11.6474C14.1357 11.6362 14.9558 11.7225 15.757 11.9045C15.5751 11.1032 15.4888 10.2832 15.4999 9.46162C15.5032 8.82442 15.57 8.18914 15.6992 7.56517C13.0255 5.75293 9.54118 4.93007 9.16189 5.30936Z" fill="#027DB8"/>
<path d="M22.9576 11.9023C23.1396 11.1011 23.2259 10.2811 23.2148 9.45947C23.2114 8.82227 23.1447 8.18699 23.0155 7.56301C22.4112 4.39369 20.534 1.35938 20.0004 1.35938C19.4669 1.35938 17.5897 4.39369 16.9854 7.56301C16.8562 8.18699 16.7895 8.82227 16.7861 9.45947C16.775 10.2811 16.8613 11.1011 17.0433 11.9023C17.1975 11.9409 17.339 11.9795 17.4804 12.0245C17.9626 10.7773 18.824 9.07375 20.0004 9.07375C21.1769 9.07375 22.0383 10.7773 22.5205 12.0245C22.6619 11.9795 22.8033 11.9409 22.9576 11.9023Z" fill="#027DB8"/>
<path d="M24.3004 7.5664C24.4297 8.19014 24.4967 8.82521 24.5003 9.46221C24.5115 10.2838 24.4251 11.1038 24.2432 11.9051C25.0444 11.7231 25.8645 11.6368 26.6861 11.6479C27.3232 11.6513 27.9585 11.718 28.5825 11.8472C30.3954 9.17292 31.2182 5.6886 30.839 5.30931C30.4597 4.93002 26.9747 5.75353 24.3004 7.5664Z" fill="#027DB8"/>
<path d="M19.9999 10.3594C19.7106 10.3594 18.7592 11.8958 18.3091 13.6444C18.1607 14.2092 18.0809 14.7898 18.0713 15.3737C18.0713 16.8073 18.4056 17.7523 18.9134 18.2602C19.1995 18.5522 19.5911 18.7167 19.9999 18.7167C20.4087 18.7167 20.8002 18.5522 21.0863 18.2602C21.5942 17.7523 21.9285 16.8073 21.9285 15.3737C21.9193 14.7898 21.8394 14.2091 21.6906 13.6444C21.2406 11.8958 20.2892 10.3594 19.9999 10.3594Z" fill="#027DB8"/>
<path d="M28.5826 13.1299C27.9587 13.0007 27.3234 12.934 26.6862 12.9306C25.8646 12.9195 25.0446 13.0058 24.2433 13.1878C23.8172 13.2911 23.4034 13.4398 23.009 13.6314C22.9961 13.6314 22.9897 13.6378 22.9769 13.6442C23.0881 14.0697 23.1613 14.5043 23.1954 14.9428C23.2083 15.0842 23.2147 15.2321 23.2147 15.3735C23.2147 15.5728 23.2083 15.7592 23.1954 15.9328C23.189 16.0807 23.1697 16.2221 23.1569 16.3571C23.1057 17.0726 22.9041 17.7691 22.5654 18.4014C23.8176 19.1122 25.2489 19.4449 26.6862 19.3593C30.4148 19.3593 34.7863 16.7878 34.7863 16.145C34.7863 15.6114 31.752 13.7342 28.5826 13.1299Z" fill="#027DB8"/>
<path d="M33.815 23.8363C33.042 22.0037 31.0845 20.97 29.1352 21.3649C27.1859 21.7597 25.7851 23.4738 25.7862 25.4627C25.7846 25.681 25.8027 25.8989 25.8402 26.1139L26.0286 26.8436V26.8539L26.0382 26.8828L27.4686 31.6638C28.0777 30.0368 29.3531 28.7477 30.9735 28.1213C32.594 27.4948 34.4048 27.5909 35.9499 28.3852L33.8285 23.862C33.8285 23.8555 33.822 23.8465 33.815 23.8363Z" fill="#027DB8"/>
<path d="M2 36.7155C2 37.7806 2.86346 38.6441 3.92859 38.6441H29.4445C28.4309 37.8608 27.6888 36.779 27.3231 35.5513C27.2797 35.4885 27.2482 35.4184 27.2298 35.3443L27.1656 35.0814L24.9503 27.7154H7.78578C6.93475 27.7155 6.11834 27.3785 5.51518 26.7781C5.40698 26.6691 5.30645 26.5526 5.21432 26.4297L2 35.5397L2 36.7155ZM9.07151 36.0727H25.786C26.141 36.0727 26.4288 36.3605 26.4288 36.7155C26.4288 37.0706 26.141 37.3584 25.786 37.3584H9.07151C8.71646 37.3584 8.42864 37.0706 8.42864 36.7155C8.42864 36.3605 8.71646 36.0727 9.07151 36.0727ZM5.21432 36.0727H6.50005C6.85509 36.0727 7.14291 36.3605 7.14291 36.7155C7.14291 37.0706 6.85509 37.3584 6.50005 37.3584H5.21432C4.85928 37.3584 4.57146 37.0706 4.57146 36.7155C4.57146 36.3605 4.85928 36.0727 5.21432 36.0727Z" fill="#027DB8"/>
<path d="M38.0009 33.8211C38.0005 33.2142 37.8844 32.6129 37.6589 32.0494L37.601 31.9041C36.6158 29.6393 34.0773 28.4867 31.7237 29.2353C29.3701 29.984 27.9641 32.3915 28.4684 34.8092C28.9727 37.227 31.2239 38.8716 33.6805 38.617C36.1372 38.3623 38.0032 36.2909 38.0009 33.8211ZM29.6436 33.8211C29.6436 31.8684 31.2266 30.2854 33.1794 30.2854C35.1321 30.2854 36.7151 31.8684 36.7151 33.8211C36.7151 35.7739 35.1321 37.3569 33.1794 37.3569C31.2275 37.3548 29.6458 35.773 29.6436 33.8211Z" fill="#027DB8"/>
<path d="M33.1787 36.0782C34.4214 36.0782 35.4288 35.0708 35.4288 33.8281C35.4288 32.5855 34.4214 31.5781 33.1787 31.5781C31.9361 31.5781 30.9287 32.5855 30.9287 33.8281C30.9287 35.0708 31.9361 36.0782 33.1787 36.0782Z" fill="#027DB8"/>
</svg>
