<svg width="40" height="40" viewBox="0 0 40 40" fill="none" xmlns="http://www.w3.org/2000/svg">
<path d="M16.1494 22.6484L11.251 23.6118C11.6875 25.3517 12.4216 27.003 13.4207 28.4929L17.5368 25.491L16.815 24.5286C16.4056 23.9849 16.1733 23.3286 16.1494 22.6484Z" fill="#027DB8"/>
<path d="M23.71 10.5516L21.6664 8.50781L20.2922 10.798V11.4963C20.2938 13.0517 19.8442 14.5742 18.9979 15.8791L18.4365 18.125H19.5714C20.0928 18.1262 20.6079 18.0095 21.0778 17.7835C21.5478 17.5576 21.9607 17.2283 22.2854 16.8203C22.6137 16.4075 22.8444 15.9258 22.9601 15.4113C23.0759 14.8967 23.0737 14.3627 22.9538 13.8491C22.7276 13.2881 22.6788 12.6712 22.814 12.0816C22.9492 11.492 23.2619 10.958 23.71 10.5516Z" fill="#027DB8"/>
<path d="M29.042 16.022C29.0409 17.0925 28.7856 18.1475 28.2972 19.1001L27.8607 19.9495C27.7748 20.1802 27.7693 20.4332 27.8451 20.6674C27.921 20.9016 28.0737 21.1033 28.2786 21.2398L29.1586 21.8266L30.8227 21.4107L29.83 15.951C29.8123 15.8535 29.7587 15.7661 29.6798 15.7061C29.601 15.6461 29.5025 15.6177 29.4038 15.6266C29.305 15.6355 29.2132 15.681 29.1463 15.7542C29.0795 15.8274 29.0424 15.9229 29.0424 16.022H29.042Z" fill="#027DB8"/>
<path d="M15.4815 18.7501H16.992L17.8111 15.4735C17.8284 15.404 17.8574 15.3379 17.8971 15.2782C18.6449 14.1588 19.0434 12.8426 19.0421 11.4964V10.6251C19.0421 10.5118 19.0729 10.4007 19.1311 10.3035L21.0061 7.17853C21.055 7.09705 21.1218 7.02779 21.2014 6.976C21.2811 6.92421 21.3715 6.89126 21.4658 6.87965C21.5601 6.86805 21.6558 6.87809 21.7456 6.90902C21.8354 6.93994 21.917 6.99094 21.9842 7.05814L25.1055 10.1794L25.1082 10.1822L25.1092 10.1831L25.1107 10.1849C25.1284 10.203 25.145 10.2222 25.1605 10.2423C25.1625 10.245 25.1652 10.2474 25.1672 10.2501L26.9887 12.6787L28.7648 14.0108L29.5397 12.0733L26.7768 9.8629C26.7333 9.82806 26.6946 9.78754 26.6618 9.74243L22.3152 3.76571C22.1559 3.54674 21.9422 3.37312 21.6952 3.26202C21.4482 3.15092 21.1766 3.10617 20.907 3.13221C20.6375 3.15825 20.3794 3.25416 20.1582 3.41048C19.9371 3.5668 19.7606 3.7781 19.6461 4.02353L16.2568 11.286C15.9526 11.9362 15.4988 12.5052 14.9326 12.9466L13.417 14.1252V16.6859C13.417 16.957 13.4704 17.2254 13.5742 17.4759C13.6779 17.7263 13.83 17.9539 14.0217 18.1456C14.2134 18.3373 14.441 18.4893 14.6915 18.593C14.942 18.6967 15.2104 18.7501 15.4815 18.7501Z" fill="#027DB8"/>
<path d="M15.1455 9.205C15.2404 9.31769 15.2924 9.46027 15.2924 9.60758V10.3953L17.8795 4.85156L15.287 5.78125C15.2523 5.7936 15.2231 5.81779 15.2045 5.84956C15.186 5.88134 15.1792 5.91865 15.1854 5.95492L15.2417 6.28039C15.2696 6.4424 15.2326 6.6089 15.1387 6.74383L14.2721 7.98867C14.2525 8.01688 14.2427 8.05078 14.2443 8.08512C14.2459 8.11945 14.2587 8.15231 14.2809 8.17859L15.1455 9.205Z" fill="#027DB8"/>
<path d="M35.7278 32.9146L31.1831 22.6094L29.7181 22.9756L29.9837 25.6328C30.1769 27.5773 30.7246 29.4699 31.5996 31.2171L32.1014 32.2209C32.1567 32.3314 32.1779 32.4559 32.1625 32.5786C32.147 32.7012 32.0955 32.8165 32.0145 32.9099C31.9335 33.0033 31.8267 33.0705 31.7074 33.1032C31.5882 33.1358 31.462 33.1324 31.3447 33.0933L23.8447 30.5933C23.7668 30.5673 23.6948 30.5263 23.6328 30.4725C23.5708 30.4187 23.52 30.3532 23.4833 30.2798L22.9688 29.2506C22.5904 28.4967 22.0395 27.8426 21.361 27.3415C20.6824 26.8403 19.8953 26.5062 19.0634 26.3663L18.5734 26.2846L14.1602 29.5034C14.351 29.7425 14.5491 29.9763 14.7527 30.2025C16.196 31.8074 17.9017 33.1552 19.7969 34.1883L19.8003 34.1902C22.299 35.5484 25.0673 36.3367 27.9066 36.4985L33.0491 36.7841C33.4688 36.8087 33.8887 36.7365 34.2761 36.573C34.6635 36.4096 35.0082 36.1592 35.2834 35.8413C35.6266 35.4454 35.8505 34.9603 35.9292 34.4423C36.0078 33.9243 35.938 33.3946 35.7278 32.9146Z" fill="#027DB8"/>
<path d="M17.2083 35.1139C17.2075 35.1231 17.2062 35.1323 17.2054 35.1415C17.585 35.0632 17.9531 34.9366 18.3005 34.7647C17.7996 34.4574 17.3137 34.1296 16.8428 33.7812C17.1198 34.1676 17.2495 34.6403 17.2083 35.1139Z" fill="#027DB8"/>
<path d="M15.1198 34.1926L13.1745 34.4191C13.1505 34.4219 13.1264 34.4233 13.1022 34.4233H11.2989C11.0492 34.4234 10.8042 34.4905 10.5893 34.6176C10.3744 34.7447 10.1975 34.9271 10.0772 35.1459L9.85648 35.5467C9.82475 35.6044 9.8086 35.6693 9.80962 35.7351C9.81063 35.8009 9.82878 35.8654 9.86227 35.922C9.89576 35.9787 9.94344 36.0256 10.0006 36.0582C10.0578 36.0909 10.1225 36.108 10.1883 36.108H14.0917C14.6774 36.1077 15.2444 35.9019 15.694 35.5266C15.8191 35.4219 15.9071 35.2797 15.9449 35.121C15.9827 34.9624 15.9683 34.7957 15.9039 34.6459C15.8394 34.4961 15.7284 34.371 15.5872 34.2893C15.446 34.2077 15.2822 34.1737 15.1202 34.1926H15.1198Z" fill="#027DB8"/>
<path d="M10.7923 21.4964C10.8576 21.5834 10.8991 21.686 10.9125 21.7939C10.9372 21.991 10.9658 22.1889 10.9984 22.3862L16.3448 21.3348L16.6796 19.9964H15.4816C14.6026 19.9964 13.7596 19.6472 13.1381 19.0257C12.5165 18.4042 12.1673 17.5612 12.1673 16.6822V15.0938L10.9154 16.0675C10.2085 16.6173 9.74579 17.4227 9.62692 18.3103C9.50805 19.1979 9.74251 20.0966 10.2798 20.813L10.7923 21.4964Z" fill="#027DB8"/>
<path d="M13.0661 33.1745L14.9756 32.952C15.3048 32.9136 15.6383 32.9573 15.9466 33.0791C15.1904 32.4511 14.4808 31.7691 13.8233 31.0385C13.5238 30.7057 13.236 30.3571 12.9633 30H6.694C6.41628 30.0006 6.1435 30.0735 5.90259 30.2117C5.66168 30.3499 5.46096 30.5485 5.32025 30.7879L5.21751 30.9635C5.01901 31.3019 4.95266 31.7017 5.03123 32.0861C5.10981 32.4704 5.32776 32.8121 5.64314 33.0455C6.62649 33.7758 7.7241 34.3381 8.89134 34.7095L8.9822 34.5445C9.21051 34.1297 9.54596 33.7838 9.95355 33.5429C10.3611 33.3019 10.8259 33.1749 11.2994 33.1748L13.0661 33.1745Z" fill="#027DB8"/>
</svg>
