<svg width="40" height="40" viewBox="0 0 40 40" fill="none" xmlns="http://www.w3.org/2000/svg">
<path d="M22.2254 2.225V3.93226H17.7754V2.225C17.7754 0.995161 18.7714 0 20.0004 0C21.2299 0 22.2254 0.994355 22.2254 2.225Z" fill="#6D6D6D"/>
<path d="M35.5732 35.953C35.5732 38.1862 33.7636 39.9982 31.5281 39.9982H8.47324C5.24671 39.9982 3.34889 36.4127 5.08131 33.749C5.49905 33.1054 6.09905 32.5804 6.82969 32.2562L14.4386 30.0312H25.5628L33.1716 32.2562C34.634 32.9061 35.5732 34.3574 35.5732 35.953Z" fill="#5FC68F"/>
<path d="M35.5441 35.4716C35.3055 37.4644 33.6101 39.0304 31.528 39.0304C30.5091 39.0304 29.678 38.205 29.678 37.1804V35.495L30.9683 34.8498L22.9848 35.9903C22.3019 36.0879 21.6055 35.9748 20.9886 35.6663C19.8712 35.1077 18.7863 35.1343 17.8388 35.6081C17.1505 35.9523 16.365 36.0523 15.6116 35.8908L7.74251 34.2046L10.3232 35.495V37.1804C10.3232 38.2021 9.49485 39.0304 8.47316 39.0304C6.39542 39.0304 4.69647 37.4688 4.45703 35.4716C4.62469 34.0646 5.52284 32.8361 6.82961 32.2562L14.4385 30.0312H25.5627L33.1715 32.2562C34.4836 32.8393 35.3764 34.0683 35.5441 35.4716Z" fill="#7ADBAE"/>
<path d="M27.5224 16.0717C26.3401 22.3989 25.5635 20.1573 25.5635 30.0329H14.4393C14.4393 20.1123 13.6759 22.469 12.4805 16.0717L15.574 14.666C16.7769 14.3935 17.094 14.4604 22.6087 14.4604C23.2272 14.4604 23.8393 14.5289 24.4361 14.6628C27.8308 16.1859 27.4804 16.018 27.5224 16.0717Z" fill="#B3CEC9"/>
<path d="M14.4055 26.6965L14.1934 23.3594C14.2974 24.1932 14.3667 25.2279 14.4055 26.6965Z" fill="#B3CEC9"/>
<path d="M25.8098 23.3594L25.5977 26.6965C25.6364 25.2279 25.7057 24.1932 25.8098 23.3594Z" fill="#B3CEC9"/>
<path d="M26.454 15.8415C25.6361 20.2186 24.9359 19.9298 24.8034 24.9558C24.76 26.61 23.4305 27.8177 21.8935 27.8177H18.1113C16.5322 27.8177 15.2428 26.5581 15.202 24.9796C15.0717 19.9346 14.359 20.1667 13.5508 15.8415L16.2045 14.6357C17.2362 14.402 17.5078 14.4593 22.2389 14.4593C22.7695 14.4593 23.2946 14.5181 23.8065 14.633C26.719 15.9398 26.418 15.7955 26.454 15.8415Z" fill="#CAE0DD"/>
<path d="M15.2015 24.9563L15.0195 22.0938C15.1087 22.809 15.1682 23.6966 15.2015 24.9563Z" fill="#CAE0DD"/>
<path d="M24.9827 22.0938L24.8008 24.9563C24.8339 23.6967 24.8934 22.8091 24.9827 22.0938Z" fill="#CAE0DD"/>
<path d="M30.8774 26.6979H21.1121C20.4988 26.6979 20 26.2008 20 25.585V18.9108C20.2363 18.8939 20.4508 18.9173 20.6452 18.9729C22.5806 19.5334 22.5806 23.3608 22.5806 23.3608H28.2645C26.7631 21.4493 26.5135 21.1312 23.9129 17.8181C22.9485 16.8537 23.2465 15.2429 24.4347 14.6641C25.4998 14.9002 26.552 15.3591 27.4919 16.0358C27.5372 16.0937 32.7186 22.5726 32.8073 22.6834C34.0868 24.2837 32.9586 26.6979 30.8774 26.6979Z" fill="#F9CFAC"/>
<path d="M20.0023 18.9115V25.5857C20.0023 26.2014 19.5035 26.6986 18.8902 26.6986H9.12488C7.05625 26.6986 5.90698 24.2951 7.19504 22.6841L12.4813 16.0736C13.3676 15.4188 14.4474 14.9226 15.5749 14.668C16.7653 15.258 17.0466 16.8616 16.0894 17.8188C14.1732 20.2599 13.3757 21.2762 11.7378 23.3615H17.4217C17.4217 23.3615 17.4217 19.5341 19.3571 18.9736C19.5515 18.918 19.766 18.8946 20.0023 18.9115Z" fill="#F9CFAC"/>
<path d="M33.1513 25.1967C32.7175 25.5798 32.1481 25.8112 31.5239 25.8112H21.7586C21.1453 25.8112 20.6465 25.3141 20.6465 24.6983V18.9112C23.2271 18.7241 23.2271 23.3612 23.2271 23.3612H28.911C28.911 22.7869 28.7183 22.2288 28.3631 21.7765C26.607 19.5402 27.4619 20.6291 24.5594 16.9314C24.2256 16.5976 24.0344 16.1136 24.0344 15.9846C24.1498 15.4836 24.4574 15.0519 24.8812 14.7773C25.7981 15.0327 26.6943 15.461 27.4933 16.0362C27.5385 16.094 32.72 22.573 32.8086 22.6838C33.3841 23.4036 33.5045 24.3769 33.1513 25.1967Z" fill="#FFE4CC"/>
<path d="M19.3556 18.9103V24.6974C19.3556 25.3131 18.8568 25.8103 18.2435 25.8103H8.47814C7.85395 25.8103 7.28459 25.5788 6.85072 25.1958C6.50354 24.39 6.60854 23.4144 7.19346 22.6829C12.7316 15.7568 12.4693 16.0799 12.4983 16.0587C13.2952 15.4748 14.1878 15.0474 15.1273 14.7812C15.5529 15.0588 15.8539 15.4899 15.9677 15.9837C15.8878 16.3313 15.7128 16.6603 15.4427 16.9304C15.4359 16.9391 11.6308 21.7858 11.6389 21.7755C11.2843 22.2271 11.091 22.7851 11.091 23.3603H16.7749C16.7749 23.3603 16.7749 18.7232 19.3556 18.9103Z" fill="#FFE4CC"/>
<path d="M24.451 7.3811C24.451 9.684 23.7031 11.1041 23.0527 12.5811C21.9524 15.0798 18.0503 15.0798 16.951 12.5811L16.3785 11.2819C15.6221 9.55876 15.4514 7.72239 15.5994 6.79078C15.9106 4.85876 17.7385 3.33594 20.0018 3.33594C22.4436 3.33594 24.451 5.13086 24.451 7.3811Z" fill="#F9CFAC"/>
<path d="M24.4025 6.78954C24.2334 8.54067 23.6793 9.62116 23.0509 11.0484C21.9506 13.5471 18.0494 13.5468 16.9493 11.0484C16.2944 9.56108 15.7718 8.55422 15.5977 6.79035C16.1181 3.55777 20.5297 2.1414 23.1468 4.52019C23.8073 5.12019 24.2606 5.90809 24.4025 6.78954Z" fill="#FFE4CC"/>
<path d="M24.4363 7.07545C20.025 5.244 19.9734 10.2617 15.5597 7.79642C15.554 7.65852 15.5508 7.51981 15.5508 7.3811C15.5508 5.1332 17.5557 3.33594 20 3.33594C22.3111 3.33594 24.2626 4.95295 24.4363 7.07545Z" fill="#6D6D6D"/>
<path d="M16.6637 37.2184C14.2004 38.4501 13.9632 38.4769 13.6096 39.0314C13.4282 39.3152 13.3266 39.6491 13.3266 39.9991H11.1016V35.8281C13.0562 36.3167 14.8281 36.7596 16.6637 37.2184Z" fill="#F9CFAC"/>
<path d="M28.9015 35.8281V39.9991H13.3281C13.3281 39.3102 13.7218 38.6901 14.3233 38.3894C17.137 36.9826 16.3713 37.4142 17.7862 36.4709C18.9377 35.7041 20.5846 36.1796 21.0451 37.5636L21.1144 37.7741L28.9015 35.8281Z" fill="#F9CFAC"/>
<path d="M15.3734 36.8959C14.2542 37.4555 14.0646 37.5113 13.7709 37.8476C13.077 38.6423 12.2039 39.0314 11.1016 39.0314V35.8281L15.3734 36.8959Z" fill="#FFE4CC"/>
<path d="M28.901 35.8281V39.0314H14.4738C14.1249 39.0314 13.9926 38.5546 14.3228 38.3894C17.1365 36.9826 16.3708 37.4142 17.7857 36.4709C18.9373 35.7041 20.5841 36.1796 21.0446 37.5636L21.114 37.7741L28.901 35.8281Z" fill="#FFE4CC"/>
<path d="M23.494 4.87532C22.1681 5.99257 18.1831 6.15652 16.2852 5.15435C17.9556 2.85951 21.6033 2.68378 23.494 4.87532Z" fill="#797A7A"/>
<path d="M22.2254 2.31031C20.896 2.70064 19.0919 2.6908 17.7754 2.26031C17.7754 0.200475 20.1968 -0.721622 21.5746 0.650636C22.0033 1.08104 22.2254 1.61902 22.2254 2.31031Z" fill="#797A7A"/>
</svg>
