<svg width="28" height="28" viewBox="0 0 28 28" fill="none" xmlns="http://www.w3.org/2000/svg">
<g clip-path="url(#clip0)">
<path d="M14.8573 4.47677C14.6467 4.1302 14.4004 3.85915 14.1749 3.62828C13.8333 3.28371 13.5441 3.01672 13.367 2.75384C13.2768 2.6219 13.21 2.49333 13.1615 2.34204C13.1129 2.19085 13.0815 2.01403 13.0811 1.78042V1.00623H11.3936V1.78079C11.3895 2.47872 11.5836 3.08084 11.8671 3.54085C12.0777 3.88742 12.324 4.15815 12.5492 4.38934C12.8911 4.73391 13.1803 5.00058 13.3575 5.26378C13.4476 5.39572 13.5144 5.52429 13.563 5.67553C13.6115 5.82709 13.643 6.00391 13.6433 6.23747C13.6393 6.65296 13.5522 6.88715 13.4138 7.12303C13.3082 7.29853 13.1587 7.47166 12.969 7.66509C12.6876 7.95634 12.3096 8.2824 11.975 8.76634C11.809 9.00765 11.6585 9.29078 11.5549 9.61483C11.4502 9.93915 11.3932 10.301 11.3932 10.6938V11.4688H13.0807V10.6935C13.0847 10.2778 13.1718 10.0435 13.3102 9.80758C13.4158 9.63208 13.5653 9.45895 13.755 9.26526C14.0361 8.97401 14.4141 8.64832 14.749 8.16432C14.9147 7.92301 15.0652 7.63988 15.1692 7.31583C15.2738 6.99183 15.3308 6.63002 15.3308 6.2372C15.3349 5.53895 15.1408 4.93714 14.8573 4.47677Z" fill="#003DA5"/>
<path d="M19.1324 4.47677C18.9214 4.1302 18.6754 3.85915 18.4503 3.62828C18.1081 3.28371 17.8188 3.01672 17.642 2.75384C17.5519 2.6219 17.4851 2.49333 17.4365 2.34204C17.3879 2.19085 17.3565 2.01403 17.3561 1.78042V1.00623H15.6687V1.78079C15.6646 2.47872 15.8587 3.08084 16.1422 3.54085C16.3528 3.88742 16.5991 4.15815 16.8242 4.38934C17.1662 4.73391 17.4554 5.00058 17.6325 5.26378C17.7227 5.39572 17.7891 5.52429 17.8381 5.67553C17.8866 5.82709 17.9181 6.00391 17.9184 6.23747C17.9143 6.65296 17.8269 6.88715 17.6889 7.12303C17.5832 7.29853 17.4337 7.47166 17.2437 7.66509C16.9629 7.95634 16.5846 8.2824 16.2497 8.76634C16.084 9.00765 15.9338 9.29078 15.8299 9.61483C15.7253 9.93915 15.6682 10.301 15.6682 10.6938V11.4688H17.3557V10.6935C17.3598 10.2778 17.4468 10.0435 17.5852 9.80758C17.6908 9.63208 17.8403 9.45895 18.03 9.26526C18.3111 8.97401 18.6891 8.64832 19.024 8.16432C19.1901 7.92301 19.3402 7.63988 19.4442 7.31583C19.5488 6.99183 19.6059 6.63002 19.6059 6.2372C19.6099 5.53895 19.4159 4.93714 19.1324 4.47677Z" fill="#003DA5"/>
<path d="M0.875 13.1562C0.875 20.7982 6.91793 26.9937 14.375 26.9937C21.8321 26.9937 27.8751 20.7982 27.8751 13.1562H0.875ZM3.95637 17.2062C3.75624 16.6618 3.59324 16.0989 3.47475 15.5187H25.2752C25.1568 16.0989 24.9938 16.6618 24.7936 17.2062H3.95637Z" fill="#003DA5"/>
</g>
<defs>
<clipPath id="clip0">
<rect width="27" height="27" fill="white" transform="translate(0.875 0.5)"/>
</clipPath>
</defs>
</svg>
