<svg width="30" height="30" viewBox="0 0 30 30" fill="none" xmlns="http://www.w3.org/2000/svg">
<g clip-path="url(#clip0)">
<path d="M8.24451 7.97799L21.0083 2.31713L15.7233 0.0711267C15.5001 -0.0237089 15.2498 -0.0237089 15.0266 0.0711267L2.33282 5.46567L8.24451 7.97799Z" fill="#003DA5"/>
<path d="M23.3839 3.32666L10.6162 8.98586L15.375 11.0083L28.4172 5.46568L23.3839 3.32666Z" fill="#003DA5"/>
<path d="M14.4582 12.6692L9.29307 10.4742V14.6302C9.29307 15.154 8.8826 15.5786 8.37633 15.5786C7.87006 15.5786 7.45959 15.154 7.45959 14.6302V9.695L1.50986 7.1665V23.8616C1.50986 24.2462 1.73434 24.5927 2.07824 24.7388L14.4582 30V12.6692Z" fill="#003DA5"/>
<path d="M16.2917 12.6692V30L28.6716 24.7388C29.0155 24.5927 29.24 24.2462 29.24 23.8616C29.24 23.2235 29.24 7.86503 29.24 7.1665L16.2917 12.6692Z" fill="#003DA5"/>
</g>
<defs>
<clipPath id="clip0">
<rect width="29" height="30" fill="white" transform="translate(0.875)"/>
</clipPath>
</defs>
</svg>
