<svg width="30" height="30" viewBox="0 0 30 30" fill="none" xmlns="http://www.w3.org/2000/svg">
<path d="M26.5967 10.5762L29.7287 5.79587C29.878 5.56794 29.9155 5.28078 29.8298 5.02004C29.7441 4.75929 29.5454 4.55515 29.2927 4.46849L19.0408 0.952876C18.6775 0.828365 18.2787 0.970279 18.0666 1.29963L15.375 5.47613L12.6835 1.29957C12.4713 0.97022 12.0725 0.828306 11.7092 0.952818L1.4573 4.46844C1.20462 4.5551 1.00581 4.75924 0.920174 5.01998C0.834533 5.28072 0.871973 5.56789 1.02133 5.79587L4.15333 10.5762L1.02139 15.3565C0.872029 15.5845 0.83459 15.8716 0.92023 16.1324C1.00587 16.3931 1.20468 16.5973 1.45735 16.6839L4.3301 17.669V24.6972C4.3301 25.0756 4.56408 25.4114 4.91101 25.531L15.1027 29.0454C15.2734 29.1051 15.4635 29.1092 15.6464 29.0457L25.8389 25.531C26.1859 25.4114 26.4199 25.0755 26.4199 24.6972V17.669L29.2927 16.6839C29.5454 16.5972 29.7442 16.3931 29.8298 16.1323C29.9155 15.8716 29.878 15.5844 29.7287 15.3564L26.5967 10.5762ZM19.121 2.83233L27.6919 5.7715L25.2282 9.5318L16.6989 6.5907L19.121 2.83233ZM3.05807 5.77144L11.629 2.83227L14.051 6.59064L5.52182 9.53174L3.05807 5.77144ZM3.05813 15.3809L5.52182 11.6205L14.0511 14.5617L11.629 18.32C10.1834 17.8243 4.03721 15.7167 3.05813 15.3809ZM14.5254 26.9934L6.02932 24.0637V18.2517L11.7092 20.1995C12.0701 20.3232 12.4699 20.1842 12.6835 19.8527L14.5254 16.9946V26.9934ZM15.375 13.1653L7.8664 10.5761L15.375 7.98698L22.8836 10.5761L15.375 13.1653ZM24.7207 24.0637L16.2246 26.9934V16.9946L18.0666 19.8527C18.2803 20.1844 18.6801 20.3232 19.0408 20.1995L24.7207 18.2517V24.0637ZM19.121 18.3201L16.6989 14.5617L25.2282 11.6206L27.6919 15.381C27.5458 15.431 19.3738 18.2327 19.121 18.3201Z" fill="#8EA8D5"/>
</svg>
