<svg width="23" height="23" viewBox="0 0 23 23" fill="none" xmlns="http://www.w3.org/2000/svg">
<g clip-path="url(#clip0)">
<path d="M20.4 8.10841L22.8839 4.44351C23.0024 4.26877 23.0321 4.04861 22.9641 3.8487C22.8962 3.6488 22.7386 3.49229 22.5382 3.42585L14.4073 0.730548C14.1193 0.635089 13.803 0.743889 13.6347 0.996395L11.5 4.19837L9.36536 0.99635C9.19704 0.743844 8.88075 0.635044 8.59266 0.730503L0.461821 3.42581C0.261425 3.49225 0.103749 3.64876 0.0358273 3.84866C-0.0320944 4.04856 -0.0024011 4.26872 0.116058 4.44351L2.60005 8.10841L0.116103 11.7733C-0.00235618 11.9481 -0.0320495 12.1683 0.0358723 12.3682C0.103794 12.5681 0.261469 12.7246 0.461866 12.791L2.74025 13.5462V18.9346C2.74025 19.2246 2.92583 19.4821 3.20097 19.5738L11.284 22.2681C11.4195 22.3139 11.5702 22.317 11.7153 22.2684L19.799 19.5738C20.0741 19.4821 20.2598 19.2246 20.2598 18.9346V13.5462L22.5382 12.791C22.7386 12.7245 22.8963 12.568 22.9641 12.3681C23.0321 12.1682 23.0024 11.9481 22.8839 11.7733L20.4 8.10841ZM14.471 2.17146L21.2686 4.42482L19.3146 7.30773L12.55 5.05288L14.471 2.17146ZM1.7314 4.42478L8.52901 2.17141L10.45 5.05283L3.68541 7.30768L1.7314 4.42478ZM1.73145 11.792L3.68541 8.9091L10.45 11.1639L8.52906 14.0454C7.38256 13.6653 2.50796 12.0494 1.73145 11.792ZM10.8262 20.695L4.08791 18.4489V13.993L8.59266 15.4863C8.87891 15.5812 9.19596 15.4746 9.36536 15.2204L10.8262 13.0292V20.695ZM11.5 10.0934L5.5449 8.10837L11.5 6.12336L17.4551 8.10837L11.5 10.0934ZM18.9121 18.4489L12.1738 20.695V13.0292L13.6347 15.2204C13.8042 15.4747 14.1213 15.5811 14.4073 15.4863L18.9121 13.993V18.4489ZM14.471 14.0454L12.55 11.164L19.3146 8.90914L21.2686 11.7921C21.1527 11.8305 14.6714 13.9784 14.471 14.0454Z" fill="#003DA5"/>
</g>
<defs>
<clipPath id="clip0">
<rect width="23" height="23" fill="white"/>
</clipPath>
</defs>
</svg>
