<svg width="23" height="23" viewBox="0 0 23 23" fill="none" xmlns="http://www.w3.org/2000/svg">
<g clip-path="url(#clip0)">
<path d="M5.84483 6.11646L15.9679 1.77647L11.7763 0.0545305C11.5992 -0.0181768 11.4008 -0.0181768 11.2237 0.0545305L1.15625 4.19035L5.84483 6.11646Z" fill="#003DA5"/>
<path d="M17.8518 2.55042L7.72571 6.88913L11.4999 8.43966L21.8437 4.19033L17.8518 2.55042Z" fill="#003DA5"/>
<path d="M10.7729 9.71301L6.67644 8.03016V11.2165C6.67644 11.618 6.35089 11.9435 5.94936 11.9435C5.54784 11.9435 5.22229 11.618 5.22229 11.2165V7.43278L0.50354 5.49426V18.2938C0.50354 18.5887 0.681582 18.8543 0.954325 18.9664L10.7729 23V9.71301Z" fill="#003DA5"/>
<path d="M12.2271 9.71301V23L22.0456 18.9664C22.3184 18.8544 22.4964 18.5887 22.4964 18.2938C22.4964 17.8046 22.4964 6.0298 22.4964 5.49426L12.2271 9.71301Z" fill="#003DA5"/>
</g>
<defs>
<clipPath id="clip0">
<rect width="23" height="23" fill="white"/>
</clipPath>
</defs>
</svg>
