<svg width="28" height="28" viewBox="0 0 28 28" fill="none" xmlns="http://www.w3.org/2000/svg">
<g clip-path="url(#clip0)">
<path fill-rule="evenodd" clip-rule="evenodd" d="M2.46875 20.0284C4.74372 24.3787 9.22169 27.3375 14.375 27.3375C19.5284 27.3375 24.0063 24.3787 26.2813 20.0284C26.5604 19.4947 26.8064 18.94 27.0164 18.3672C27.2566 17.7121 27.4497 17.0333 27.5914 16.3353C27.6155 16.2169 27.6381 16.098 27.6591 15.9785C27.801 15.1744 27.8751 14.346 27.8751 13.5H0.875C0.875 14.346 0.949067 15.1744 1.09092 15.9785C1.112 16.098 1.13459 16.217 1.15865 16.3355C1.30042 17.0334 1.49348 17.712 1.7336 18.367C1.94359 18.9398 2.18959 19.4946 2.46875 20.0284ZM5.35277 20.0284C7.35656 22.9608 10.6695 24.859 14.375 24.859C18.0806 24.859 21.3935 22.9608 23.3973 20.0284H5.35277ZM3.49909 15.9785C3.61519 16.5178 3.76961 17.0419 3.95637 17.5499H24.7936C24.9804 17.0419 25.1348 16.5178 25.2509 15.9785C25.2592 15.9399 25.2673 15.9012 25.2752 15.8624H3.47475C3.48266 15.9012 3.49078 15.9399 3.49909 15.9785Z" fill="#8EA8D5"/>
</g>
<defs>
<clipPath id="clip0">
<rect width="27" height="27" fill="white" transform="translate(0.875 0.5)"/>
</clipPath>
</defs>
</svg>
