<svg width="10" height="12" viewBox="0 0 10 12" fill="none" xmlns="http://www.w3.org/2000/svg">
<path d="M5.0084 1V0.5V1ZM1 5H0.5H1ZM1.75158 7.25L1.36174 7.56309C1.36576 7.56809 1.36987 7.57302 1.37407 7.57786L1.75158 7.25ZM5.0084 11L4.6309 11.3279C4.72586 11.4372 4.86358 11.5 5.0084 11.5C5.15323 11.5 5.29094 11.4372 5.38591 11.3279L5.0084 11ZM8.26523 7.25L8.64274 7.57786C8.64694 7.57302 8.65105 7.56809 8.65507 7.56309L8.26523 7.25ZM9.01681 5H9.51681H9.01681ZM6.01155 5C6.01155 5.5513 5.56342 6 5.0084 6V7C6.11372 7 7.01155 6.10556 7.01155 5H6.01155ZM5.0084 6C4.45339 6 4.00525 5.5513 4.00525 5H3.00525C3.00525 6.10556 3.90308 7 5.0084 7V6ZM4.00525 5C4.00525 4.4487 4.45339 4 5.0084 4V3C3.90308 3 3.00525 3.89444 3.00525 5H4.00525ZM5.0084 4C5.56342 4 6.01155 4.4487 6.01155 5H7.01155C7.01155 3.89444 6.11372 3 5.0084 3V4ZM5.0084 0.5C3.81304 0.5 2.66642 0.973851 1.82085 1.81765L2.52722 2.5255C3.18509 1.869 4.07758 1.5 5.0084 1.5V0.5ZM1.82085 1.81765C0.975247 2.66148 0.5 3.80619 0.5 5H1.5C1.5 4.07208 1.86938 3.18196 2.52722 2.5255L1.82085 1.81765ZM0.5 5C0.5 5.50839 0.554055 5.95626 0.694973 6.38049C0.836628 6.80694 1.05774 7.18459 1.36174 7.56309L2.14141 6.93691C1.89525 6.63041 1.74058 6.35606 1.64399 6.06526C1.54666 5.77224 1.5 5.43761 1.5 5H0.5ZM1.37407 7.57786L4.6309 11.3279L5.38591 10.6721L2.12908 6.92214L1.37407 7.57786ZM5.38591 11.3279L8.64274 7.57786L7.88773 6.92214L4.6309 10.6721L5.38591 11.3279ZM8.65507 7.56309C8.95906 7.18459 9.18018 6.80694 9.32183 6.38049C9.46275 5.95626 9.51681 5.50839 9.51681 5H8.51681C8.51681 5.43761 8.47015 5.77224 8.37282 6.06526C8.27623 6.35606 8.12155 6.63041 7.8754 6.93691L8.65507 7.56309ZM9.51681 5C9.51681 3.80619 9.04156 2.66148 8.19596 1.81765L7.48959 2.5255C8.14743 3.18196 8.51681 4.07208 8.51681 5H9.51681ZM8.19596 1.81765C7.35039 0.973851 6.20377 0.5 5.0084 0.5V1.5C5.93923 1.5 6.83172 1.869 7.48959 2.5255L8.19596 1.81765Z" fill="#303133"/>
</svg>
