<svg width="15" height="15" viewBox="0 0 15 15" fill="none" xmlns="http://www.w3.org/2000/svg">
<path d="M5.01814 4.61876L7.06552 0.291756C7.10484 0.20471 7.16628 0.131189 7.24285 0.0795655C7.31942 0.0279418 7.40804 0.000289141 7.49862 -0.000244141C7.67017 -0.000244141 7.84172 0.0967559 7.93453 0.291756L9.9819 4.61876L14.5735 5.31476C14.6879 5.33395 14.7927 5.39467 14.8701 5.48666C14.9474 5.57866 14.9927 5.69631 14.9982 5.81976C15.0047 5.90194 14.9938 5.98464 14.9662 6.06169C14.9386 6.13874 14.895 6.20816 14.8388 6.26476L11.5362 9.62076L12.3143 14.3508C12.3874 14.7938 11.9768 15.1408 11.6149 14.9428L7.49862 12.6868L3.38418 14.9428C3.34114 14.9666 3.29501 14.9834 3.24731 14.9928C2.92671 15.0528 2.6211 14.7388 2.68485 14.3508L3.46292 9.62076L0.16125 6.26476C0.109921 6.21295 0.0691217 6.15045 0.0413845 6.08112C0.0136473 6.0118 -0.000435533 5.93713 1.02622e-05 5.86176C5.90213e-05 5.75519 0.0276286 5.6507 0.0796929 5.55976C0.116627 5.49382 0.166968 5.43758 0.227001 5.39518C0.287034 5.35277 0.355226 5.32529 0.426547 5.31476L5.01814 4.61876ZM7.49862 11.5268C7.57429 11.5264 7.64891 11.5456 7.7161 11.5828L11.1715 13.4768L10.5209 9.51976C10.5056 9.42875 10.5114 9.33512 10.5379 9.24707C10.5643 9.15902 10.6107 9.07925 10.6728 9.01476L13.3979 6.24476L9.59942 5.66876C9.52077 5.65609 9.44616 5.62327 9.382 5.57311C9.31784 5.52295 9.26603 5.45695 9.23101 5.38076L7.49955 1.72276L7.49862 1.72576V11.5258V11.5268Z" fill="#00A8F4"/>
</svg>
