<svg width="15" height="15" viewBox="0 0 15 15" fill="none" xmlns="http://www.w3.org/2000/svg">
<path d="M14.5152 5.28168L10.0185 4.59733L8.00833 0.329883C7.95343 0.213043 7.8631 0.118458 7.75153 0.0609647C7.4717 -0.0836946 7.13166 0.0368549 6.99174 0.329883L4.9816 4.59733L0.484887 5.28168C0.360913 5.30023 0.247566 5.36143 0.160784 5.45416C0.0558699 5.56708 -0.00194268 5.719 4.9848e-05 5.87653C0.00204238 6.03407 0.063677 6.18433 0.17141 6.2943L3.42484 9.6159L2.6562 14.3062C2.63818 14.4153 2.64971 14.5275 2.68948 14.6301C2.72926 14.7327 2.79569 14.8216 2.88125 14.8866C2.9668 14.9517 3.06805 14.9904 3.17353 14.9983C3.279 15.0061 3.38446 14.9829 3.47797 14.9312L7.50004 12.7168L11.5221 14.9312C11.6319 14.9924 11.7594 15.0128 11.8816 14.9905C12.1898 14.9349 12.397 14.6289 12.3439 14.3062L11.5752 9.6159L14.8287 6.2943C14.9172 6.20342 14.9757 6.08473 14.9934 5.95491C15.0412 5.63035 14.8251 5.3299 14.5152 5.28168Z" fill="#00A8F4"/>
</svg>
