<svg width="72" height="11" viewBox="0 0 72 11" fill="none" xmlns="http://www.w3.org/2000/svg">
<path d="M11.6121 3.87341L8.01478 3.37156L6.40666 0.242093C6.36274 0.15641 6.29048 0.0870479 6.20122 0.0448865C5.97736 -0.061197 5.70532 0.0272059 5.59339 0.242093L3.98528 3.37156L0.38791 3.87341C0.288731 3.88701 0.198053 3.93189 0.128627 3.9999C0.0446959 4.08271 -0.00155415 4.19411 3.98784e-05 4.30964C0.0016339 4.42516 0.0509416 4.53535 0.137128 4.616L2.73987 7.05184L2.12496 10.4914C2.11054 10.5714 2.11976 10.6537 2.15159 10.7289C2.18341 10.8042 2.23655 10.8693 2.305 10.9171C2.37344 10.9648 2.45444 10.9931 2.53882 10.9989C2.6232 11.0047 2.70757 10.9876 2.78238 10.9497L6.00003 9.32583L9.21768 10.9497C9.30553 10.9946 9.40754 11.0096 9.5053 10.9932C9.75183 10.9524 9.9176 10.728 9.8751 10.4914L9.26019 7.05184L11.8629 4.616C11.9338 4.54936 11.9805 4.46231 11.9947 4.36711C12.033 4.1291 11.8601 3.90877 11.6121 3.87341V3.87341Z" fill="#2A61F0"/>
<path d="M26.6121 3.87341L23.0148 3.37156L21.4067 0.242093C21.3627 0.15641 21.2905 0.0870479 21.2012 0.0448865C20.9774 -0.061197 20.7053 0.0272059 20.5934 0.242093L18.9853 3.37156L15.3879 3.87341C15.2887 3.88701 15.1981 3.93189 15.1286 3.9999C15.0447 4.08271 14.9984 4.19411 15 4.30964C15.0016 4.42516 15.0509 4.53535 15.1371 4.616L17.7399 7.05184L17.125 10.4914C17.1105 10.5714 17.1198 10.6537 17.1516 10.7289C17.1834 10.8042 17.2366 10.8693 17.305 10.9171C17.3734 10.9648 17.4544 10.9931 17.5388 10.9989C17.6232 11.0047 17.7076 10.9876 17.7824 10.9497L21 9.32583L24.2177 10.9497C24.3055 10.9946 24.4075 11.0096 24.5053 10.9932C24.7518 10.9524 24.9176 10.728 24.8751 10.4914L24.2602 7.05184L26.8629 4.616C26.9338 4.54936 26.9805 4.46231 26.9947 4.36711C27.033 4.1291 26.8601 3.90877 26.6121 3.87341V3.87341Z" fill="#2A61F0"/>
<path d="M41.6121 3.87341L38.0148 3.37156L36.4067 0.242093C36.3627 0.15641 36.2905 0.0870479 36.2012 0.0448865C35.9774 -0.061197 35.7053 0.0272059 35.5934 0.242093L33.9853 3.37156L30.3879 3.87341C30.2887 3.88701 30.1981 3.93189 30.1286 3.9999C30.0447 4.08271 29.9984 4.19411 30 4.30964C30.0016 4.42516 30.0509 4.53535 30.1371 4.616L32.7399 7.05184L32.125 10.4914C32.1105 10.5714 32.1198 10.6537 32.1516 10.7289C32.1834 10.8042 32.2366 10.8693 32.305 10.9171C32.3734 10.9648 32.4544 10.9931 32.5388 10.9989C32.6232 11.0047 32.7076 10.9876 32.7824 10.9497L36 9.32583L39.2177 10.9497C39.3055 10.9946 39.4075 11.0096 39.5053 10.9932C39.7518 10.9524 39.9176 10.728 39.8751 10.4914L39.2602 7.05184L41.8629 4.616C41.9338 4.54936 41.9805 4.46231 41.9947 4.36711C42.033 4.1291 41.8601 3.90877 41.6121 3.87341V3.87341Z" fill="#2A61F0"/>
<path d="M56.6121 3.87341L53.0148 3.37156L51.4067 0.242093C51.3627 0.15641 51.2905 0.0870479 51.2012 0.0448865C50.9774 -0.061197 50.7053 0.0272059 50.5934 0.242093L48.9853 3.37156L45.3879 3.87341C45.2887 3.88701 45.1981 3.93189 45.1286 3.9999C45.0447 4.08271 44.9984 4.19411 45 4.30964C45.0016 4.42516 45.0509 4.53535 45.1371 4.616L47.7399 7.05184L47.125 10.4914C47.1105 10.5714 47.1198 10.6537 47.1516 10.7289C47.1834 10.8042 47.2366 10.8693 47.305 10.9171C47.3734 10.9648 47.4544 10.9931 47.5388 10.9989C47.6232 11.0047 47.7076 10.9876 47.7824 10.9497L51 9.32583L54.2177 10.9497C54.3055 10.9946 54.4075 11.0096 54.5053 10.9932C54.7518 10.9524 54.9176 10.728 54.8751 10.4914L54.2602 7.05184L56.8629 4.616C56.9338 4.54936 56.9805 4.46231 56.9947 4.36711C57.033 4.1291 56.8601 3.90877 56.6121 3.87341V3.87341Z" fill="#2A61F0"/>
<path fill-rule="evenodd" clip-rule="evenodd" d="M65.6518 0.214616C65.6832 0.150784 65.7324 0.0968702 65.7936 0.0590138C65.8059 0.0513991 65.8187 0.0444956 65.8317 0.0383222C65.885 0.0127802 65.9431 0 66.0011 0C66.0736 0.000391063 66.1445 0.0206687 66.2057 0.0585251C66.267 0.0963815 66.3155 0.150784 66.347 0.214616L67.9849 3.38767L71.6581 3.89806C71.7497 3.91213 71.8335 3.95665 71.8954 4.02412C71.9573 4.09158 71.9935 4.17785 71.9979 4.26838C72.0031 4.32865 71.9944 4.38929 71.9723 4.4458C71.9502 4.5023 71.9154 4.5532 71.8704 4.5947L69.2283 7.05571L69.8508 10.5243C69.9093 10.8491 69.5808 11.1036 69.2913 10.9584L65.9992 9.30453L62.7081 10.9579C62.4186 11.1031 62.0901 10.8487 62.1486 10.5238L62.7711 7.05522L60.129 4.59422C60.084 4.55271 60.0491 4.50181 60.0271 4.44531C60.005 4.38881 59.9962 4.32816 60.0015 4.26789C60.0059 4.17736 60.0421 4.09109 60.104 4.02363C60.1658 3.95617 60.2496 3.91164 60.3412 3.89757L64.0145 3.38718L65.6518 0.214616ZM65.9982 8.45341C66.0588 8.45316 66.1185 8.46725 66.1722 8.49447L68.9366 9.88337L68.4161 6.98164C68.4038 6.91491 68.4085 6.84624 68.4296 6.78168C68.4508 6.71711 68.4879 6.65861 68.5376 6.61132L70.7177 4.58004L67.6789 4.15765C67.616 4.14836 67.5563 4.12429 67.5049 4.08751C67.4536 4.05073 67.4122 4.00233 67.3842 3.94645L66.0011 1.26809V8.45292L65.9982 8.45341ZM65.9982 1.2676V8.45341C65.9387 8.45361 65.88 8.46719 65.8271 8.49398L64.6152 9.1029L64.3205 9.25098L63.0628 9.88288L63.5833 6.98116C63.5955 6.91442 63.5909 6.84576 63.5697 6.78119C63.5485 6.71662 63.5115 6.65813 63.4618 6.61083L61.2816 4.57955L64.3205 4.15716C64.3834 4.14787 64.4431 4.1238 64.4944 4.08702C64.5457 4.05024 64.5872 4.00184 64.6152 3.94597L65.9982 1.2676Z" fill="#2A61F0"/>
<path d="M63.5833 6.98116L63.0628 9.88288L64.3205 9.25098L64.6152 9.1029V3.94597C64.5872 4.00184 64.5457 4.05024 64.4944 4.08702C64.4431 4.1238 64.3834 4.14787 64.3205 4.15716L61.2816 4.57955L63.4618 6.61083C63.5115 6.65813 63.5485 6.71662 63.5697 6.78119C63.5909 6.84576 63.5955 6.91442 63.5833 6.98116Z" fill="#2A61F0"/>
</svg>
