<svg width="72" height="11" viewBox="0 0 72 11" fill="none" xmlns="http://www.w3.org/2000/svg">
<path d="M11.6121 3.87341L8.01478 3.37156L6.40666 0.242093C6.36274 0.15641 6.29048 0.0870479 6.20122 0.0448865C5.97736 -0.061197 5.70532 0.0272059 5.59339 0.242093L3.98528 3.37156L0.38791 3.87341C0.288731 3.88701 0.198053 3.93189 0.128627 3.9999C0.0446959 4.08271 -0.00155415 4.19411 3.98784e-05 4.30964C0.0016339 4.42516 0.0509416 4.53535 0.137128 4.616L2.73987 7.05184L2.12496 10.4914C2.11054 10.5714 2.11976 10.6537 2.15159 10.7289C2.18341 10.8042 2.23655 10.8693 2.305 10.9171C2.37344 10.9648 2.45444 10.9931 2.53882 10.9989C2.6232 11.0047 2.70757 10.9876 2.78238 10.9497L6.00003 9.32583L9.21768 10.9497C9.30553 10.9946 9.40754 11.0096 9.5053 10.9932C9.75183 10.9524 9.9176 10.728 9.8751 10.4914L9.26019 7.05184L11.8629 4.616C11.9338 4.54936 11.9805 4.46231 11.9947 4.36711C12.033 4.1291 11.8601 3.90877 11.6121 3.87341V3.87341Z" fill="#51B35E"/>
<path d="M26.6121 3.87341L23.0148 3.37156L21.4067 0.242093C21.3627 0.15641 21.2905 0.0870479 21.2012 0.0448865C20.9774 -0.061197 20.7053 0.0272059 20.5934 0.242093L18.9853 3.37156L15.3879 3.87341C15.2887 3.88701 15.1981 3.93189 15.1286 3.9999C15.0447 4.08271 14.9984 4.19411 15 4.30964C15.0016 4.42516 15.0509 4.53535 15.1371 4.616L17.7399 7.05184L17.125 10.4914C17.1105 10.5714 17.1198 10.6537 17.1516 10.7289C17.1834 10.8042 17.2366 10.8693 17.305 10.9171C17.3734 10.9648 17.4544 10.9931 17.5388 10.9989C17.6232 11.0047 17.7076 10.9876 17.7824 10.9497L21 9.32583L24.2177 10.9497C24.3055 10.9946 24.4075 11.0096 24.5053 10.9932C24.7518 10.9524 24.9176 10.728 24.8751 10.4914L24.2602 7.05184L26.8629 4.616C26.9338 4.54936 26.9805 4.46231 26.9947 4.36711C27.033 4.1291 26.8601 3.90877 26.6121 3.87341V3.87341Z" fill="#51B35E"/>
<path d="M41.6121 3.87341L38.0148 3.37156L36.4067 0.242093C36.3627 0.15641 36.2905 0.0870479 36.2012 0.0448865C35.9774 -0.061197 35.7053 0.0272059 35.5934 0.242093L33.9853 3.37156L30.3879 3.87341C30.2887 3.88701 30.1981 3.93189 30.1286 3.9999C30.0447 4.08271 29.9984 4.19411 30 4.30964C30.0016 4.42516 30.0509 4.53535 30.1371 4.616L32.7399 7.05184L32.125 10.4914C32.1105 10.5714 32.1198 10.6537 32.1516 10.7289C32.1834 10.8042 32.2366 10.8693 32.305 10.9171C32.3734 10.9648 32.4544 10.9931 32.5388 10.9989C32.6232 11.0047 32.7076 10.9876 32.7824 10.9497L36 9.32583L39.2177 10.9497C39.3055 10.9946 39.4075 11.0096 39.5053 10.9932C39.7518 10.9524 39.9176 10.728 39.8751 10.4914L39.2602 7.05184L41.8629 4.616C41.9338 4.54936 41.9805 4.46231 41.9947 4.36711C42.033 4.1291 41.8601 3.90877 41.6121 3.87341V3.87341Z" fill="#51B35E"/>
<path d="M56.6121 3.87341L53.0148 3.37156L51.4067 0.242093C51.3627 0.15641 51.2905 0.0870479 51.2012 0.0448865C50.9774 -0.061197 50.7053 0.0272059 50.5934 0.242093L48.9853 3.37156L45.3879 3.87341C45.2887 3.88701 45.1981 3.93189 45.1286 3.9999C45.0447 4.08271 44.9984 4.19411 45 4.30964C45.0016 4.42516 45.0509 4.53535 45.1371 4.616L47.7399 7.05184L47.125 10.4914C47.1105 10.5714 47.1198 10.6537 47.1516 10.7289C47.1834 10.8042 47.2366 10.8693 47.305 10.9171C47.3734 10.9648 47.4544 10.9931 47.5388 10.9989C47.6232 11.0047 47.7076 10.9876 47.7824 10.9497L51 9.32583L54.2177 10.9497C54.3055 10.9946 54.4075 11.0096 54.5053 10.9932C54.7518 10.9524 54.9176 10.728 54.8751 10.4914L54.2602 7.05184L56.8629 4.616C56.9338 4.54936 56.9805 4.46231 56.9947 4.36711C57.033 4.1291 56.8601 3.90877 56.6121 3.87341V3.87341Z" fill="#51B35E"/>
<path d="M64.0145 3.38718L65.6524 0.214128C65.6839 0.150295 65.733 0.0963819 65.7943 0.0585256C65.8555 0.0206692 65.9264 0.000391063 65.9989 0C66.1361 0 66.2734 0.0711315 66.3476 0.214128L67.9855 3.38718L71.6588 3.89757C71.7504 3.91164 71.8342 3.95617 71.896 4.02363C71.9579 4.09109 71.9941 4.17736 71.9985 4.26789C72.0038 4.32816 71.995 4.38881 71.9729 4.44531C71.9509 4.50181 71.916 4.55271 71.871 4.59422L69.2289 7.05522L69.8514 10.5238C69.9099 10.8487 69.5814 11.1031 69.2919 10.9579L65.9989 9.30356L62.7073 10.9579C62.6729 10.9754 62.636 10.9878 62.5978 10.9946C62.3414 11.0386 62.0969 10.8083 62.1479 10.5238L62.7703 7.05522L60.129 4.59422C60.0879 4.55623 60.0553 4.51039 60.0331 4.45956C60.0109 4.40872 59.9997 4.35396 60 4.29869C60 4.22055 60.0221 4.14392 60.0638 4.07723C60.0933 4.02888 60.1336 3.98764 60.1816 3.95654C60.2296 3.92545 60.2842 3.90529 60.3412 3.89757L64.0145 3.38718V3.38718ZM65.9989 8.45292C66.0594 8.45267 66.1191 8.46676 66.1729 8.49398L68.9372 9.88288L68.4167 6.98116C68.4045 6.91442 68.4091 6.84576 68.4303 6.78119C68.4515 6.71662 68.4885 6.65812 68.5382 6.61083L70.7184 4.57955L67.6795 4.15716C67.6166 4.14787 67.5569 4.1238 67.5056 4.08702C67.4543 4.05024 67.4128 4.00184 67.3848 3.94597L65.9996 1.2635L65.9989 1.2657V8.45218V8.45292Z" fill="#51B35E"/>
</svg>
