<svg width="135" height="135" viewBox="0 0 135 135" fill="none" xmlns="http://www.w3.org/2000/svg">
<g filter="url(#filter0_dd_461_806)">
<rect x="20" y="16" width="95" height="95" rx="10" fill="white"/>
</g>
<path d="M42.6121 73.8734L39.0148 73.3716L37.4067 70.2421C37.3627 70.1564 37.2905 70.087 37.2012 70.0449C36.9774 69.9388 36.7053 70.0272 36.5934 70.2421L34.9853 73.3716L31.3879 73.8734C31.2887 73.887 31.1981 73.9319 31.1286 73.9999C31.0447 74.0827 30.9984 74.1941 31 74.3096C31.0016 74.4252 31.0509 74.5354 31.1371 74.616L33.7399 77.0518L33.125 80.4914C33.1105 80.5714 33.1198 80.6537 33.1516 80.7289C33.1834 80.8042 33.2366 80.8693 33.305 80.9171C33.3734 80.9648 33.4544 80.9931 33.5388 80.9989C33.6232 81.0047 33.7076 80.9876 33.7824 80.9497L37 79.3258L40.2177 80.9497C40.3055 80.9946 40.4075 81.0096 40.5053 80.9932C40.7518 80.9524 40.9176 80.728 40.8751 80.4914L40.2602 77.0518L42.8629 74.616C42.9338 74.5494 42.9805 74.4623 42.9947 74.3671C43.033 74.1291 42.8601 73.9088 42.6121 73.8734Z" fill="#51B35E"/>
<path d="M57.6121 73.8734L54.0148 73.3716L52.4067 70.2421C52.3627 70.1564 52.2905 70.087 52.2012 70.0449C51.9774 69.9388 51.7053 70.0272 51.5934 70.2421L49.9853 73.3716L46.3879 73.8734C46.2887 73.887 46.1981 73.9319 46.1286 73.9999C46.0447 74.0827 45.9984 74.1941 46 74.3096C46.0016 74.4252 46.0509 74.5354 46.1371 74.616L48.7399 77.0518L48.125 80.4914C48.1105 80.5714 48.1198 80.6537 48.1516 80.7289C48.1834 80.8042 48.2366 80.8693 48.305 80.9171C48.3734 80.9648 48.4544 80.9931 48.5388 80.9989C48.6232 81.0047 48.7076 80.9876 48.7824 80.9497L52 79.3258L55.2177 80.9497C55.3055 80.9946 55.4075 81.0096 55.5053 80.9932C55.7518 80.9524 55.9176 80.728 55.8751 80.4914L55.2602 77.0518L57.8629 74.616C57.9338 74.5494 57.9805 74.4623 57.9947 74.3671C58.033 74.1291 57.8601 73.9088 57.6121 73.8734Z" fill="#51B35E"/>
<path d="M72.6121 73.8734L69.0148 73.3716L67.4067 70.2421C67.3627 70.1564 67.2905 70.087 67.2012 70.0449C66.9774 69.9388 66.7053 70.0272 66.5934 70.2421L64.9853 73.3716L61.3879 73.8734C61.2887 73.887 61.1981 73.9319 61.1286 73.9999C61.0447 74.0827 60.9984 74.1941 61 74.3096C61.0016 74.4252 61.0509 74.5354 61.1371 74.616L63.7399 77.0518L63.125 80.4914C63.1105 80.5714 63.1198 80.6537 63.1516 80.7289C63.1834 80.8042 63.2366 80.8693 63.305 80.9171C63.3734 80.9648 63.4544 80.9931 63.5388 80.9989C63.6232 81.0047 63.7076 80.9876 63.7824 80.9497L67 79.3258L70.2177 80.9497C70.3055 80.9946 70.4075 81.0096 70.5053 80.9932C70.7518 80.9524 70.9176 80.728 70.8751 80.4914L70.2602 77.0518L72.8629 74.616C72.9338 74.5494 72.9805 74.4623 72.9947 74.3671C73.033 74.1291 72.8601 73.9088 72.6121 73.8734Z" fill="#51B35E"/>
<path d="M87.6121 73.8734L84.0148 73.3716L82.4067 70.2421C82.3627 70.1564 82.2905 70.087 82.2012 70.0449C81.9774 69.9388 81.7053 70.0272 81.5934 70.2421L79.9853 73.3716L76.3879 73.8734C76.2887 73.887 76.1981 73.9319 76.1286 73.9999C76.0447 74.0827 75.9984 74.1941 76 74.3096C76.0016 74.4252 76.0509 74.5354 76.1371 74.616L78.7399 77.0518L78.125 80.4914C78.1105 80.5714 78.1198 80.6537 78.1516 80.7289C78.1834 80.8042 78.2366 80.8693 78.305 80.9171C78.3734 80.9648 78.4544 80.9931 78.5388 80.9989C78.6232 81.0047 78.7076 80.9876 78.7824 80.9497L82 79.3258L85.2177 80.9497C85.3055 80.9946 85.4075 81.0096 85.5053 80.9932C85.7518 80.9524 85.9176 80.728 85.8751 80.4914L85.2602 77.0518L87.8629 74.616C87.9338 74.5494 87.9805 74.4623 87.9947 74.3671C88.033 74.1291 87.8601 73.9088 87.6121 73.8734Z" fill="#51B35E"/>
<path d="M95.0145 73.3872L96.6524 70.2141C96.6839 70.1503 96.733 70.0964 96.7943 70.0585C96.8555 70.0207 96.9264 70.0004 96.9989 70C97.1361 70 97.2734 70.0711 97.3476 70.2141L98.9855 73.3872L102.659 73.8976C102.75 73.9116 102.834 73.9562 102.896 74.0236C102.958 74.0911 102.994 74.1774 102.999 74.2679C103.004 74.3282 102.995 74.3888 102.973 74.4453C102.951 74.5018 102.916 74.5527 102.871 74.5942L100.229 77.0552L100.851 80.5238C100.91 80.8487 100.581 81.1031 100.292 80.9579L96.9989 79.3036L93.7073 80.9579C93.6729 80.9754 93.636 80.9878 93.5978 80.9946C93.3414 81.0386 93.0969 80.8083 93.1479 80.5238L93.7703 77.0552L91.129 74.5942C91.0879 74.5562 91.0553 74.5104 91.0331 74.4596C91.0109 74.4087 90.9997 74.354 91 74.2987C91 74.2205 91.0221 74.1439 91.0638 74.0772C91.0933 74.0289 91.1336 73.9876 91.1816 73.9565C91.2296 73.9254 91.2842 73.9053 91.3412 73.8976L95.0145 73.3872ZM96.9989 78.4529C97.0594 78.4527 97.1191 78.4668 97.1729 78.494L99.9372 79.8829L99.4167 76.9812C99.4045 76.9144 99.4091 76.8458 99.4303 76.7812C99.4515 76.7166 99.4885 76.6581 99.5382 76.6108L101.718 74.5795L98.6795 74.1572C98.6166 74.1479 98.5569 74.1238 98.5056 74.087C98.4543 74.0502 98.4128 74.0018 98.3848 73.946L96.9996 71.2635L96.9989 71.2657V78.4522V78.4529Z" fill="#51B35E"/>
<path d="M36.66 97.09C36.1467 97.09 35.68 96.9733 35.26 96.74C34.8467 96.5067 34.52 96.1767 34.28 95.75C34.0467 95.3167 33.93 94.8167 33.93 94.25C33.93 93.69 34.05 93.1967 34.29 92.77C34.5367 92.3367 34.87 92.0067 35.29 91.78C35.71 91.5467 36.18 91.43 36.7 91.43C37.22 91.43 37.69 91.5467 38.11 91.78C38.53 92.0067 38.86 92.3333 39.1 92.76C39.3467 93.1867 39.47 93.6833 39.47 94.25C39.47 94.8167 39.3433 95.3167 39.09 95.75C38.8433 96.1767 38.5067 96.5067 38.08 96.74C37.6533 96.9733 37.18 97.09 36.66 97.09ZM36.66 96.29C36.9867 96.29 37.2933 96.2133 37.58 96.06C37.8667 95.9067 38.0967 95.6767 38.27 95.37C38.45 95.0633 38.54 94.69 38.54 94.25C38.54 93.81 38.4533 93.4367 38.28 93.13C38.1067 92.8233 37.88 92.5967 37.6 92.45C37.32 92.2967 37.0167 92.22 36.69 92.22C36.3567 92.22 36.05 92.2967 35.77 92.45C35.4967 92.5967 35.2767 92.8233 35.11 93.13C34.9433 93.4367 34.86 93.81 34.86 94.25C34.86 94.6967 34.94 95.0733 35.1 95.38C35.2667 95.6867 35.4867 95.9167 35.76 96.07C36.0333 96.2167 36.3333 96.29 36.66 96.29ZM43.3365 91.42C44.0032 91.42 44.5432 91.6233 44.9565 92.03C45.3698 92.43 45.5765 93.01 45.5765 93.77V97H44.6765V93.9C44.6765 93.3533 44.5398 92.9367 44.2665 92.65C43.9932 92.3567 43.6198 92.21 43.1465 92.21C42.6665 92.21 42.2832 92.36 41.9965 92.66C41.7165 92.96 41.5765 93.3967 41.5765 93.97V97H40.6665V91.52H41.5765V92.3C41.7565 92.02 41.9998 91.8033 42.3065 91.65C42.6198 91.4967 42.9632 91.42 43.3365 91.42ZM55.009 92.05C54.8157 91.6433 54.5357 91.33 54.169 91.11C53.8023 90.8833 53.3757 90.77 52.889 90.77C52.4023 90.77 51.9623 90.8833 51.569 91.11C51.1823 91.33 50.8757 91.65 50.649 92.07C50.429 92.4833 50.319 92.9633 50.319 93.51C50.319 94.0567 50.429 94.5367 50.649 94.95C50.8757 95.3633 51.1823 95.6833 51.569 95.91C51.9623 96.13 52.4023 96.24 52.889 96.24C53.569 96.24 54.129 96.0367 54.569 95.63C55.009 95.2233 55.2657 94.6733 55.339 93.98H52.559V93.24H56.309V93.94C56.2557 94.5133 56.0757 95.04 55.769 95.52C55.4623 95.9933 55.059 96.37 54.559 96.65C54.059 96.9233 53.5023 97.06 52.889 97.06C52.2423 97.06 51.6523 96.91 51.119 96.61C50.5857 96.3033 50.1623 95.88 49.849 95.34C49.5423 94.8 49.389 94.19 49.389 93.51C49.389 92.83 49.5423 92.22 49.849 91.68C50.1623 91.1333 50.5857 90.71 51.119 90.41C51.6523 90.1033 52.2423 89.95 52.889 89.95C53.629 89.95 54.2823 90.1333 54.849 90.5C55.4223 90.8667 55.839 91.3833 56.099 92.05H55.009ZM58.4222 89.6V97H57.5122V89.6H58.4222ZM59.6331 94.24C59.6331 93.68 59.7465 93.19 59.9731 92.77C60.1998 92.3433 60.5098 92.0133 60.9031 91.78C61.3031 91.5467 61.7465 91.43 62.2331 91.43C62.7131 91.43 63.1298 91.5333 63.4831 91.74C63.8365 91.9467 64.0998 92.2067 64.2731 92.52V91.52H65.1931V97H64.2731V95.98C64.0931 96.3 63.8231 96.5667 63.4631 96.78C63.1098 96.9867 62.6965 97.09 62.2231 97.09C61.7365 97.09 61.2965 96.97 60.9031 96.73C60.5098 96.49 60.1998 96.1533 59.9731 95.72C59.7465 95.2867 59.6331 94.7933 59.6331 94.24ZM64.2731 94.25C64.2731 93.8367 64.1898 93.4767 64.0231 93.17C63.8565 92.8633 63.6298 92.63 63.3431 92.47C63.0631 92.3033 62.7531 92.22 62.4131 92.22C62.0731 92.22 61.7631 92.3 61.4831 92.46C61.2031 92.62 60.9798 92.8533 60.8131 93.16C60.6465 93.4667 60.5631 93.8267 60.5631 94.24C60.5631 94.66 60.6465 95.0267 60.8131 95.34C60.9798 95.6467 61.2031 95.8833 61.4831 96.05C61.7631 96.21 62.0731 96.29 62.4131 96.29C62.7531 96.29 63.0631 96.21 63.3431 96.05C63.6298 95.8833 63.8565 95.6467 64.0231 95.34C64.1898 95.0267 64.2731 94.6633 64.2731 94.25ZM68.6709 97.09C68.2509 97.09 67.8743 97.02 67.5409 96.88C67.2076 96.7333 66.9443 96.5333 66.7509 96.28C66.5576 96.02 66.4509 95.7233 66.4309 95.39H67.3709C67.3976 95.6633 67.5243 95.8867 67.7509 96.06C67.9843 96.2333 68.2876 96.32 68.6609 96.32C69.0076 96.32 69.2809 96.2433 69.4809 96.09C69.6809 95.9367 69.7809 95.7433 69.7809 95.51C69.7809 95.27 69.6743 95.0933 69.4609 94.98C69.2476 94.86 68.9176 94.7433 68.4709 94.63C68.0643 94.5233 67.7309 94.4167 67.4709 94.31C67.2176 94.1967 66.9976 94.0333 66.8109 93.82C66.6309 93.6 66.5409 93.3133 66.5409 92.96C66.5409 92.68 66.6243 92.4233 66.7909 92.19C66.9576 91.9567 67.1943 91.7733 67.5009 91.64C67.8076 91.5 68.1576 91.43 68.5509 91.43C69.1576 91.43 69.6476 91.5833 70.0209 91.89C70.3943 92.1967 70.5943 92.6167 70.6209 93.15H69.7109C69.6909 92.8633 69.5743 92.6333 69.3609 92.46C69.1543 92.2867 68.8743 92.2 68.5209 92.2C68.1943 92.2 67.9343 92.27 67.7409 92.41C67.5476 92.55 67.4509 92.7333 67.4509 92.96C67.4509 93.14 67.5076 93.29 67.6209 93.41C67.7409 93.5233 67.8876 93.6167 68.0609 93.69C68.2409 93.7567 68.4876 93.8333 68.8009 93.92C69.1943 94.0267 69.5143 94.1333 69.7609 94.24C70.0076 94.34 70.2176 94.4933 70.3909 94.7C70.5709 94.9067 70.6643 95.1767 70.6709 95.51C70.6709 95.81 70.5876 96.08 70.4209 96.32C70.2543 96.56 70.0176 96.75 69.7109 96.89C69.4109 97.0233 69.0643 97.09 68.6709 97.09ZM73.8955 97.09C73.4755 97.09 73.0989 97.02 72.7655 96.88C72.4322 96.7333 72.1689 96.5333 71.9755 96.28C71.7822 96.02 71.6755 95.7233 71.6555 95.39H72.5955C72.6222 95.6633 72.7489 95.8867 72.9755 96.06C73.2089 96.2333 73.5122 96.32 73.8855 96.32C74.2322 96.32 74.5055 96.2433 74.7055 96.09C74.9055 95.9367 75.0055 95.7433 75.0055 95.51C75.0055 95.27 74.8989 95.0933 74.6855 94.98C74.4722 94.86 74.1422 94.7433 73.6955 94.63C73.2889 94.5233 72.9555 94.4167 72.6955 94.31C72.4422 94.1967 72.2222 94.0333 72.0355 93.82C71.8555 93.6 71.7655 93.3133 71.7655 92.96C71.7655 92.68 71.8489 92.4233 72.0155 92.19C72.1822 91.9567 72.4189 91.7733 72.7255 91.64C73.0322 91.5 73.3822 91.43 73.7755 91.43C74.3822 91.43 74.8722 91.5833 75.2455 91.89C75.6189 92.1967 75.8189 92.6167 75.8455 93.15H74.9355C74.9155 92.8633 74.7989 92.6333 74.5855 92.46C74.3789 92.2867 74.0989 92.2 73.7455 92.2C73.4189 92.2 73.1589 92.27 72.9655 92.41C72.7722 92.55 72.6755 92.7333 72.6755 92.96C72.6755 93.14 72.7322 93.29 72.8455 93.41C72.9655 93.5233 73.1122 93.6167 73.2855 93.69C73.4655 93.7567 73.7122 93.8333 74.0255 93.92C74.4189 94.0267 74.7389 94.1333 74.9855 94.24C75.2322 94.34 75.4422 94.4933 75.6155 94.7C75.7955 94.9067 75.8889 95.1767 75.8955 95.51C75.8955 95.81 75.8122 96.08 75.6455 96.32C75.4789 96.56 75.2422 96.75 74.9355 96.89C74.6355 97.0233 74.2889 97.09 73.8955 97.09ZM76.8402 94.24C76.8402 93.68 76.9535 93.19 77.1802 92.77C77.4068 92.3433 77.7168 92.0133 78.1102 91.78C78.5102 91.5467 78.9568 91.43 79.4502 91.43C79.8768 91.43 80.2735 91.53 80.6402 91.73C81.0068 91.9233 81.2868 92.18 81.4802 92.5V89.6H82.4002V97H81.4802V95.97C81.3002 96.2967 81.0335 96.5667 80.6802 96.78C80.3268 96.9867 79.9135 97.09 79.4402 97.09C78.9535 97.09 78.5102 96.97 78.1102 96.73C77.7168 96.49 77.4068 96.1533 77.1802 95.72C76.9535 95.2867 76.8402 94.7933 76.8402 94.24ZM81.4802 94.25C81.4802 93.8367 81.3968 93.4767 81.2302 93.17C81.0635 92.8633 80.8368 92.63 80.5502 92.47C80.2702 92.3033 79.9602 92.22 79.6202 92.22C79.2802 92.22 78.9702 92.3 78.6902 92.46C78.4102 92.62 78.1868 92.8533 78.0202 93.16C77.8535 93.4667 77.7702 93.8267 77.7702 94.24C77.7702 94.66 77.8535 95.0267 78.0202 95.34C78.1868 95.6467 78.4102 95.8833 78.6902 96.05C78.9702 96.21 79.2802 96.29 79.6202 96.29C79.9602 96.29 80.2702 96.21 80.5502 96.05C80.8368 95.8833 81.0635 95.6467 81.2302 95.34C81.3968 95.0267 81.4802 94.6633 81.4802 94.25ZM86.328 97.09C85.8146 97.09 85.348 96.9733 84.928 96.74C84.5146 96.5067 84.188 96.1767 83.948 95.75C83.7146 95.3167 83.598 94.8167 83.598 94.25C83.598 93.69 83.718 93.1967 83.958 92.77C84.2046 92.3367 84.538 92.0067 84.958 91.78C85.378 91.5467 85.848 91.43 86.368 91.43C86.888 91.43 87.358 91.5467 87.778 91.78C88.198 92.0067 88.528 92.3333 88.768 92.76C89.0146 93.1867 89.138 93.6833 89.138 94.25C89.138 94.8167 89.0113 95.3167 88.758 95.75C88.5113 96.1767 88.1746 96.5067 87.748 96.74C87.3213 96.9733 86.848 97.09 86.328 97.09ZM86.328 96.29C86.6546 96.29 86.9613 96.2133 87.248 96.06C87.5346 95.9067 87.7646 95.6767 87.938 95.37C88.118 95.0633 88.208 94.69 88.208 94.25C88.208 93.81 88.1213 93.4367 87.948 93.13C87.7746 92.8233 87.548 92.5967 87.268 92.45C86.988 92.2967 86.6846 92.22 86.358 92.22C86.0246 92.22 85.718 92.2967 85.438 92.45C85.1646 92.5967 84.9446 92.8233 84.778 93.13C84.6113 93.4367 84.528 93.81 84.528 94.25C84.528 94.6967 84.608 95.0733 84.768 95.38C84.9346 95.6867 85.1546 95.9167 85.428 96.07C85.7013 96.2167 86.0013 96.29 86.328 96.29ZM92.7245 97.09C92.2111 97.09 91.7445 96.9733 91.3245 96.74C90.9111 96.5067 90.5845 96.1767 90.3445 95.75C90.1111 95.3167 89.9945 94.8167 89.9945 94.25C89.9945 93.69 90.1145 93.1967 90.3545 92.77C90.6011 92.3367 90.9345 92.0067 91.3545 91.78C91.7745 91.5467 92.2445 91.43 92.7645 91.43C93.2845 91.43 93.7545 91.5467 94.1745 91.78C94.5945 92.0067 94.9245 92.3333 95.1645 92.76C95.4111 93.1867 95.5345 93.6833 95.5345 94.25C95.5345 94.8167 95.4078 95.3167 95.1545 95.75C94.9078 96.1767 94.5711 96.5067 94.1445 96.74C93.7178 96.9733 93.2445 97.09 92.7245 97.09ZM92.7245 96.29C93.0511 96.29 93.3578 96.2133 93.6445 96.06C93.9311 95.9067 94.1611 95.6767 94.3345 95.37C94.5145 95.0633 94.6045 94.69 94.6045 94.25C94.6045 93.81 94.5178 93.4367 94.3445 93.13C94.1711 92.8233 93.9445 92.5967 93.6645 92.45C93.3845 92.2967 93.0811 92.22 92.7545 92.22C92.4211 92.22 92.1145 92.2967 91.8345 92.45C91.5611 92.5967 91.3411 92.8233 91.1745 93.13C91.0078 93.4367 90.9245 93.81 90.9245 94.25C90.9245 94.6967 91.0045 95.0733 91.1645 95.38C91.3311 95.6867 91.5511 95.9167 91.8245 96.07C92.0978 96.2167 92.3978 96.29 92.7245 96.29ZM97.6409 92.41C97.8009 92.0967 98.0276 91.8533 98.3209 91.68C98.6209 91.5067 98.9843 91.42 99.4109 91.42V92.36H99.1709C98.1509 92.36 97.6409 92.9133 97.6409 94.02V97H96.7309V91.52H97.6409V92.41Z" fill="#777777"/>
<path d="M20 26C20 20.4772 24.4772 16 30 16H105C110.523 16 115 20.4772 115 26V60H20V26Z" fill="#51B35E"/>
<path fill-rule="evenodd" clip-rule="evenodd" d="M101.328 35.445C101.328 35.3835 101.285 35.3132 101.232 35.2868C101.109 35.2166 100.924 35.1728 100.547 35.1728C99.6948 35.1728 98.9484 35.5943 98.6235 36.3056V35.445C98.6235 35.3747 98.5622 35.3132 98.4832 35.3132H97.2184C97.1481 35.3132 97.0868 35.366 97.0868 35.445V41.2761C97.0868 41.3463 97.1481 41.4078 97.227 41.4078L98.5622 41.4079C98.6322 41.4079 98.6938 41.3463 98.6938 41.2761V38.6504C98.6938 37.4824 99.5105 36.9028 100.555 36.9028C100.801 36.9028 101.047 36.9466 101.17 36.9906C101.258 37.017 101.337 36.9554 101.337 36.8588V35.4361L101.328 35.445ZM92.8274 35.1639C94.698 35.1639 96.0945 36.4549 96.0945 38.3605C96.0945 40.2574 94.698 41.5571 92.8364 41.5571C90.9744 41.5571 89.5869 40.2662 89.5869 38.3605C89.5782 36.4549 90.9657 35.1639 92.8274 35.1639ZM92.8274 39.9765C93.7407 39.9765 94.4434 39.3353 94.4434 38.3605C94.4434 37.3857 93.7407 36.736 92.8274 36.736C91.923 36.736 91.2203 37.3857 91.2203 38.3605C91.2293 39.3353 91.9317 39.9765 92.8274 39.9765ZM85.4331 35.1639C87.3038 35.1639 88.6912 36.4549 88.6912 38.3605C88.6912 40.2574 87.2951 41.5571 85.4418 41.5571C83.5715 41.5571 82.175 40.2662 82.175 38.3605C82.175 36.4549 83.5625 35.1639 85.4331 35.1639ZM85.4331 39.9765C86.3465 39.9765 87.0489 39.3353 87.0489 38.3605C87.0489 37.3857 86.3465 36.736 85.4418 36.736C84.5375 36.736 83.8348 37.3857 83.8348 38.3605C83.8261 39.3441 84.5285 39.9852 85.4331 39.9765ZM81.0511 32.8806C81.1214 32.8806 81.1828 32.9333 81.1828 33.0123V41.2761C81.1828 41.3463 81.1301 41.4078 81.0511 41.4078L79.716 41.4079C79.6457 41.4079 79.5844 41.3463 79.5844 41.2761V40.5561C79.1365 41.1883 78.4515 41.5659 77.5734 41.5659C76.0716 41.5659 74.8159 40.4243 74.8159 38.3606C74.8159 36.2969 76.0716 35.1552 77.5471 35.1552C78.4954 35.1552 79.1718 35.6031 79.5844 36.1914V33.0125C79.5844 32.9422 79.6457 32.8719 79.725 32.8719L81.0511 32.8806ZM78.0476 40.0027C78.9433 40.0027 79.6373 39.3705 79.6373 38.3693C79.6373 37.3595 78.9433 36.736 78.0476 36.736C77.143 36.736 76.4582 37.3857 76.4582 38.3693C76.4582 39.3617 77.143 40.0027 78.0476 40.0027ZM73.9377 39.5724C73.9377 40.96 72.9366 41.5571 71.3207 41.5571C70.2142 41.5571 69.2482 41.2498 68.7038 40.6351C68.6597 40.5823 68.6597 40.512 68.7038 40.4594L69.4676 39.4495C69.5204 39.3792 69.6169 39.3792 69.6697 39.4407C70.0736 39.8623 70.7058 40.1169 71.4788 40.1169C71.9266 40.1169 72.2954 39.9939 72.2954 39.6514C72.2954 39.3178 71.9617 39.2474 70.9431 39.028C70.0473 38.8435 68.9319 38.4307 68.9319 37.1047C68.9319 35.8665 69.9068 35.1639 71.4875 35.1639C72.5325 35.1639 73.2791 35.4801 73.8059 35.9807C73.8587 36.0333 73.8587 36.1123 73.8148 36.1652L73.0857 37.1223C73.042 37.1838 72.9541 37.1925 72.8927 37.1486C72.5413 36.8238 71.9442 36.6304 71.3558 36.6304C70.864 36.6304 70.583 36.7886 70.583 37.0521C70.583 37.3595 70.9167 37.4296 71.9881 37.658C73.0507 37.8863 73.9377 38.2903 73.9377 39.5724ZM67.7904 39.5724C67.7904 40.96 66.7893 41.5571 65.1734 41.5571C64.0581 41.5571 63.101 41.2498 62.5476 40.6351C62.5125 40.5823 62.5125 40.512 62.5476 40.4594L63.3205 39.4582C63.3643 39.388 63.4698 39.388 63.5224 39.4495C63.9264 39.871 64.5587 40.1256 65.3315 40.1256C65.7794 40.1256 66.1482 40.0027 66.1482 39.6602C66.1482 39.3266 65.8146 39.2563 64.7958 39.0367C63.9001 38.8523 62.7848 38.4395 62.7848 37.1134C62.7848 35.8752 63.7507 35.1728 65.3403 35.1728C66.3852 35.1728 67.1319 35.4889 67.6586 35.9895C67.7114 36.0333 67.7114 36.1211 67.6675 36.1737L66.9386 37.1223C66.8948 37.1838 66.7981 37.1925 66.7454 37.1486C66.3942 36.8238 65.7969 36.6304 65.2086 36.6304C64.7167 36.6304 64.4358 36.7886 64.4358 37.0521C64.4358 37.3595 64.7694 37.4296 65.8409 37.658C66.8948 37.8863 67.7816 38.2903 67.7904 39.5724ZM58.7714 35.1815C60.5366 35.1815 61.4235 35.9631 61.4235 37.658V41.2937C61.4235 41.364 61.3621 41.4254 61.2831 41.4254H59.9482C59.878 41.4254 59.8166 41.3728 59.8166 41.2937V40.5999C59.5091 41.0918 58.9033 41.5484 57.9547 41.5484C56.7516 41.5484 55.9086 40.7755 55.9086 39.6514C55.9086 38.5449 56.7341 37.8424 57.8494 37.737L59.5091 37.5876C59.7286 37.5614 59.8166 37.4911 59.8166 37.3419V37.2453C59.8166 36.8939 59.4828 36.6393 58.7627 36.6393C58.1831 36.6393 57.5771 36.8061 57.3137 37.298C57.2786 37.3682 57.1907 37.377 57.1292 37.3331L56.1632 36.6304C56.1105 36.5953 56.0929 36.5164 56.1282 36.4636C56.5496 35.6118 57.5068 35.1903 58.7714 35.1903V35.1815ZM59.8166 38.9489V38.703L58.3236 38.8875C57.8318 38.9577 57.5771 39.2124 57.5771 39.555C57.5771 39.9501 57.8844 40.2047 58.4376 40.2047C59.2807 40.2047 59.8253 39.6163 59.8166 38.9489ZM54.8195 33.0123V41.2761C54.8195 41.3551 54.7581 41.4166 54.6879 41.4166H53.3442C53.274 41.4166 53.2037 41.3551 53.2037 41.2761V33.0123C53.2037 32.9422 53.2652 32.8807 53.3355 32.8807L54.6791 32.8806C54.7581 32.8806 54.8195 32.9422 54.8195 33.0123ZM51.7459 35.3045C51.8161 35.3045 51.8865 35.366 51.8865 35.445V41.0038C51.8865 42.5758 51.14 43.9985 48.5932 43.9985C47.4253 43.9985 46.6173 43.6648 46.0026 43.1291C45.9587 43.094 45.9499 43.0149 46.029 42.8832L46.6261 41.8645C46.6613 41.7943 46.7579 41.7766 46.8193 41.8381C47.3023 42.2684 47.8468 42.4967 48.5318 42.4967C49.8842 42.4967 50.3057 41.803 50.3057 40.9248V40.5384C49.9104 41.1092 49.2343 41.4692 48.365 41.4692C46.749 41.4692 45.5195 40.3628 45.5195 38.3342C45.5195 36.2967 46.8105 35.1638 48.3209 35.1638C49.2519 35.1638 49.9545 35.6118 50.297 36.165V35.4537C50.297 35.3834 50.3584 35.3132 50.4374 35.3132L51.7459 35.3045ZM48.7514 39.9939C49.6558 39.9939 50.3232 39.3617 50.3232 38.3605C50.3232 37.3506 49.6558 36.7271 48.7514 36.7271C47.838 36.7271 47.1618 37.377 47.1618 38.3605C47.1618 39.3441 47.8467 39.9939 48.7514 39.9939Z" fill="white"/>
<path fill-rule="evenodd" clip-rule="evenodd" d="M38.8199 43.2866H32.0081C32.0081 44.235 32.7676 44.9985 33.712 44.9985H38.8199C39.7602 44.9985 40.5198 44.2309 40.5198 43.2866V36.2457C40.5198 36.2135 40.4917 36.1815 40.4595 36.1815H38.8801C38.8479 36.1815 38.8199 36.2095 38.8199 36.2457V43.2866ZM38.8199 32.9985C39.7602 32.9985 40.5198 33.7661 40.5198 34.7146H33.708V41.7554C33.708 41.7876 33.6799 41.8197 33.6437 41.8197H32.0643C32.0322 41.8197 32 41.7916 32 41.7554V34.7146C32 33.7661 32.7596 32.9985 33.704 32.9985H38.8199Z" fill="white"/>
<defs>
<filter id="filter0_dd_461_806" x="0" y="0" width="135" height="135" filterUnits="userSpaceOnUse" color-interpolation-filters="sRGB">
<feFlood flood-opacity="0" result="BackgroundImageFix"/>
<feColorMatrix in="SourceAlpha" type="matrix" values="0 0 0 0 0 0 0 0 0 0 0 0 0 0 0 0 0 0 127 0" result="hardAlpha"/>
<feOffset dy="4"/>
<feGaussianBlur stdDeviation="10"/>
<feComposite in2="hardAlpha" operator="out"/>
<feColorMatrix type="matrix" values="0 0 0 0 0.909804 0 0 0 0 0.921569 0 0 0 0 0.952941 0 0 0 1 0"/>
<feBlend mode="normal" in2="BackgroundImageFix" result="effect1_dropShadow_461_806"/>
<feColorMatrix in="SourceAlpha" type="matrix" values="0 0 0 0 0 0 0 0 0 0 0 0 0 0 0 0 0 0 127 0" result="hardAlpha"/>
<feOffset dy="1"/>
<feGaussianBlur stdDeviation="2"/>
<feComposite in2="hardAlpha" operator="out"/>
<feColorMatrix type="matrix" values="0 0 0 0 0 0 0 0 0 0 0 0 0 0 0 0 0 0 0.03 0"/>
<feBlend mode="normal" in2="effect1_dropShadow_461_806" result="effect2_dropShadow_461_806"/>
<feBlend mode="normal" in="SourceGraphic" in2="effect2_dropShadow_461_806" result="shape"/>
</filter>
</defs>
</svg>
