<svg width="57" height="12" viewBox="0 0 57 12" fill="none" xmlns="http://www.w3.org/2000/svg">
<path fill-rule="evenodd" clip-rule="evenodd" d="M56.3282 3.44498C56.3282 3.38353 56.2845 3.31323 56.2318 3.28684C56.1089 3.21657 55.9243 3.17278 55.5468 3.17278C54.6948 3.17278 53.9484 3.59425 53.6235 4.30562V3.44498C53.6235 3.37467 53.5622 3.31323 53.4832 3.31323H52.2184C52.1481 3.31323 52.0868 3.36597 52.0868 3.44498V9.27615C52.0868 9.34632 52.1481 9.40777 52.227 9.40777L53.5622 9.4079C53.6322 9.4079 53.6938 9.34632 53.6938 9.27615V6.65043C53.6938 5.48237 54.5105 4.90276 55.5555 4.90276C55.8014 4.90276 56.0473 4.94655 56.1702 4.99059C56.2582 5.01698 56.3372 4.95538 56.3372 4.85884V3.43615L56.3282 3.44498ZM47.8274 3.16395C49.698 3.16395 51.0945 4.45489 51.0945 6.36045C51.0945 8.2574 49.698 9.55706 47.8364 9.55706C45.9744 9.55706 44.5869 8.26622 44.5869 6.36045C44.5782 4.45489 45.9657 3.16395 47.8274 3.16395V3.16395ZM47.8274 7.97646C48.7407 7.97646 49.4434 7.33528 49.4434 6.36045C49.4434 5.38571 48.7407 4.73595 47.8274 4.73595C46.923 4.73595 46.2203 5.38571 46.2203 6.36045C46.2293 7.33528 46.9317 7.97646 47.8274 7.97646ZM40.4331 3.16395C42.3038 3.16395 43.6912 4.45489 43.6912 6.36045C43.6912 8.2574 42.2951 9.55706 40.4418 9.55706C38.5715 9.55706 37.175 8.26622 37.175 6.36045C37.175 4.45489 38.5625 3.16395 40.4331 3.16395ZM40.4331 7.97646C41.3465 7.97646 42.0489 7.33528 42.0489 6.36045C42.0489 5.38571 41.3465 4.73595 40.4418 4.73595C39.5375 4.73595 38.8348 5.38571 38.8348 6.36045C38.8261 7.34411 39.5285 7.9852 40.4331 7.97646V7.97646ZM36.0511 0.880582C36.1214 0.880582 36.1827 0.933325 36.1827 1.01233V9.27615C36.1827 9.34632 36.1301 9.40777 36.0511 9.40777L34.716 9.4079C34.6457 9.4079 34.5844 9.34632 34.5844 9.27615V8.55608C34.1365 9.18832 33.4515 9.56589 32.5734 9.56589C31.0716 9.56589 29.8159 8.42433 29.8159 6.36058C29.8159 4.29691 31.0716 3.15522 32.5471 3.15522C33.4954 3.15522 34.1718 3.60308 34.5844 4.19143V1.01245C34.5844 0.942152 34.6457 0.871879 34.725 0.871879L36.0511 0.880582V0.880582ZM33.0476 8.00273C33.9433 8.00273 34.6373 7.37049 34.6373 6.36928C34.6373 5.35945 33.9433 4.73595 33.0476 4.73595C32.143 4.73595 31.4582 5.38571 31.4582 6.36928C31.4582 7.36167 32.143 8.00273 33.0476 8.00273ZM28.9377 7.57239C28.9377 8.96003 27.9366 9.55706 26.3207 9.55706C25.2142 9.55706 24.2482 9.24978 23.7038 8.63508C23.6597 8.58234 23.6597 8.51204 23.7038 8.45942L24.4676 7.4495C24.5204 7.3792 24.6169 7.3792 24.6697 7.44067C25.0736 7.86228 25.7058 8.11695 26.4788 8.11695C26.9266 8.11695 27.2954 7.9939 27.2954 7.6514C27.2954 7.31775 26.9617 7.24745 25.9431 7.02799C25.0473 6.8435 23.9319 6.43072 23.9319 5.10469C23.9319 3.86645 24.9068 3.16395 26.4875 3.16395C27.5325 3.16395 28.2791 3.48007 28.8059 3.98067C28.8587 4.03329 28.8587 4.1123 28.8148 4.16516L28.0857 5.12234C28.042 5.18379 27.9541 5.19252 27.8927 5.1486C27.5413 4.82375 26.9442 4.63044 26.3558 4.63044C25.864 4.63044 25.583 4.78857 25.583 5.05207C25.583 5.35945 25.9167 5.42963 26.9881 5.65804C28.0507 5.88632 28.9377 6.29027 28.9377 7.57239ZM22.7904 7.57239C22.7904 8.96003 21.7893 9.55706 20.1734 9.55706C19.0581 9.55706 18.101 9.24978 17.5476 8.63508C17.5125 8.58234 17.5125 8.51204 17.5476 8.45942L18.3205 7.4582C18.3643 7.38802 18.4698 7.38802 18.5224 7.4495C18.9264 7.87098 19.5587 8.12565 20.3315 8.12565C20.7794 8.12565 21.1482 8.00273 21.1482 7.66022C21.1482 7.32658 20.8146 7.25627 19.7958 7.03672C18.9001 6.85233 17.7848 6.43955 17.7848 5.11339C17.7848 3.87519 18.7507 3.17278 20.3403 3.17278C21.3852 3.17278 22.1319 3.48889 22.6586 3.9895C22.7114 4.03329 22.7114 4.12112 22.6675 4.17374L21.9386 5.12234C21.8948 5.18379 21.7981 5.19252 21.7454 5.1486C21.3942 4.82375 20.7969 4.63044 20.2086 4.63044C19.7167 4.63044 19.4358 4.78857 19.4358 5.05207C19.4358 5.35945 19.7694 5.42963 20.8409 5.65804C21.8948 5.88632 22.7816 6.29027 22.7904 7.57239V7.57239ZM13.7714 3.18148C15.5366 3.18148 16.4235 3.96311 16.4235 5.65804V9.29369C16.4235 9.36398 16.3621 9.42544 16.2831 9.42544H14.9482C14.878 9.42544 14.8166 9.37281 14.8166 9.29369V8.59987C14.5091 9.09178 13.9033 9.54835 12.9547 9.54835C11.7516 9.54835 10.9086 8.77554 10.9086 7.6514C10.9086 6.54494 11.7341 5.84241 12.8494 5.73704L14.5091 5.58764C14.7286 5.56138 14.8166 5.49108 14.8166 5.34192V5.24526C14.8166 4.89393 14.4828 4.63926 13.7627 4.63926C13.1831 4.63926 12.5771 4.8061 12.3137 5.29801C12.2786 5.36819 12.1907 5.37701 12.1292 5.3331L11.1632 4.63044C11.1105 4.59535 11.0929 4.51637 11.1282 4.46363C11.5496 3.61181 12.5068 3.1903 13.7714 3.1903V3.18148ZM14.8166 6.94889V6.70305L13.3236 6.88754C12.8318 6.95772 12.5771 7.21236 12.5771 7.55499C12.5771 7.95011 12.8844 8.20475 13.4376 8.20475C14.2807 8.20475 14.8253 7.61631 14.8166 6.94889V6.94889ZM9.81953 1.01233V9.27615C9.81953 9.35515 9.75808 9.41661 9.6879 9.41661H8.34418C8.27403 9.41661 8.20373 9.35515 8.20373 9.27615V1.01233C8.20373 0.942152 8.26521 0.880706 8.33548 0.880706L9.67907 0.880582C9.75808 0.880582 9.81953 0.942152 9.81953 1.01233ZM6.74595 3.30452C6.81612 3.30452 6.88652 3.36597 6.88652 3.44498V9.00383C6.88652 10.5758 6.13998 11.9985 3.59324 11.9985C2.42531 11.9985 1.61729 11.6648 1.0026 11.1291C0.958684 11.094 0.949852 11.0149 1.02897 10.8832L1.62612 9.86447C1.66133 9.7943 1.75787 9.77664 1.81933 9.83809C2.30227 10.2684 2.8468 10.4967 3.53178 10.4967C4.88421 10.4967 5.30569 9.80301 5.30569 8.92481V8.53842C4.91044 9.1092 4.23429 9.46923 3.36495 9.46923C1.74904 9.46923 0.519531 8.36276 0.519531 6.33419C0.519531 4.29667 1.8105 3.16382 3.32091 3.16382C4.25186 3.16382 4.95448 3.61181 5.29699 4.16504V3.45368C5.29699 3.38341 5.35843 3.31323 5.43744 3.31323L6.74595 3.30452V3.30452ZM3.75137 7.9939C4.6558 7.9939 5.32322 7.36167 5.32322 6.36045C5.32322 5.35062 4.6558 4.72709 3.75137 4.72709C2.83797 4.72709 2.16182 5.37701 2.16182 6.36045C2.16182 7.34411 2.84668 7.9939 3.75137 7.9939" fill="white"/>
</svg>
