<svg width="14" height="14" viewBox="0 0 14 14" fill="none" xmlns="http://www.w3.org/2000/svg">
<path d="M2.63493 0.45205L13.5483 11.3654C14.151 11.9681 14.0369 13.0595 13.5483 13.548C12.9455 14.1507 11.9684 14.1507 11.3657 13.548L0.452367 2.63461C-0.150365 2.03188 -0.0362678 0.940513 0.452367 0.45205C1.0551 -0.150683 2.0322 -0.150683 2.63493 0.45205Z" fill="#5F6B7A"/>
<path d="M0.45205 11.3642L11.3654 0.450903C11.9681 -0.15183 13.0595 -0.0377326 13.548 0.450903C14.1507 1.05364 14.1507 2.03073 13.548 2.63347L2.63461 13.5468C2.03188 14.1495 0.940513 14.0354 0.45205 13.5468C-0.150683 12.9441 -0.150683 11.967 0.45205 11.3642Z" fill="#5F6B7A"/>
</svg>
