<svg width="350" height="251" viewBox="0 0 350 251" fill="none" xmlns="http://www.w3.org/2000/svg">
<g clip-path="url(#clip0_101_1247)">
<line x1="26.5" y1="66.5" x2="349.5" y2="66.5" stroke="white" stroke-opacity="0.1" stroke-linecap="round"/>
<line x1="26.5" y1="145.5" x2="349.5" y2="145.5" stroke="white" stroke-opacity="0.1" stroke-linecap="round"/>
<line x1="25.5" y1="227" x2="25.5" y2="44" stroke="white" stroke-opacity="0.1"/>
<path d="M30.5 202C57.2965 202.512 133 202 173.5 183.5C214 165 303.196 52.5809 350 43.5" stroke="#2DAF6B" stroke-width="2" stroke-linejoin="round"/>
<path d="M30 202.1C30 202.1 56 202.5 143.5 202.5C231 202.5 232.29 202.509 288.895 200C345.5 197.491 348 167.991 348 167.991" stroke="#ED553B" stroke-width="2" stroke-linecap="round"/>
<circle cx="335" cy="186" r="7" fill="#FFCEC6"/>
<circle cx="335.001" cy="186" r="3.70588" fill="#ED553B"/>
<circle cx="36" cy="201" r="7" fill="#BAE5CE"/>
<circle cx="36.0008" cy="201" r="3.70588" fill="#2DAF6B"/>
<rect x="179" y="193.491" width="114" height="18" rx="9" fill="#FFCEC6"/>
<path d="M188.2 205.491H186.97V198.491C187.09 198.491 187.407 198.488 187.92 198.481C188.44 198.475 188.787 198.471 188.96 198.471C189.453 198.471 189.88 198.535 190.24 198.661C190.607 198.781 190.89 198.951 191.09 199.171C191.29 199.385 191.437 199.621 191.53 199.881C191.623 200.135 191.67 200.415 191.67 200.721C191.67 201.355 191.443 201.891 190.99 202.331C190.537 202.771 189.91 202.991 189.11 202.991C188.703 202.991 188.4 202.981 188.2 202.961V205.491ZM189.08 199.621C188.933 199.621 188.64 199.628 188.2 199.641V201.791C188.52 201.825 188.81 201.841 189.07 201.841C189.457 201.841 189.77 201.748 190.01 201.561C190.25 201.368 190.37 201.085 190.37 200.711C190.37 199.985 189.94 199.621 189.08 199.621ZM192.761 202.151L192.471 201.311C192.958 201.025 193.488 200.881 194.061 200.881C194.701 200.881 195.161 201.038 195.441 201.351C195.721 201.665 195.861 202.131 195.861 202.751V205.491H194.861V204.971C194.588 205.358 194.145 205.551 193.531 205.551C193.111 205.551 192.771 205.428 192.511 205.181C192.251 204.935 192.121 204.598 192.121 204.171C192.121 203.698 192.275 203.338 192.581 203.091C192.888 202.838 193.281 202.711 193.761 202.711C194.175 202.711 194.515 202.808 194.781 203.001C194.795 202.608 194.738 202.318 194.611 202.131C194.485 201.938 194.261 201.841 193.941 201.841C193.608 201.841 193.215 201.945 192.761 202.151ZM193.911 204.581C194.298 204.581 194.588 204.445 194.781 204.171V203.711C194.588 203.565 194.325 203.491 193.991 203.491C193.785 203.491 193.611 203.541 193.471 203.641C193.338 203.735 193.271 203.871 193.271 204.051C193.271 204.218 193.331 204.348 193.451 204.441C193.571 204.535 193.725 204.581 193.911 204.581ZM201.38 200.991L199.61 205.491C199.29 206.271 199.004 206.798 198.75 207.071C198.504 207.351 198.21 207.491 197.87 207.491C197.544 207.491 197.22 207.375 196.9 207.141L197.27 206.271C197.45 206.378 197.607 206.431 197.74 206.431C198.014 206.431 198.244 206.198 198.43 205.731L198.53 205.491L196.45 200.991H197.83L198.88 203.451C198.92 203.551 198.994 203.768 199.1 204.101C199.154 203.808 199.207 203.588 199.26 203.441L200.07 200.991H201.38ZM207.599 203.981L208.139 204.821C207.952 205.075 207.699 205.268 207.379 205.401C207.065 205.535 206.722 205.601 206.349 205.601C205.615 205.601 205.025 205.385 204.579 204.951C204.132 204.518 203.909 203.948 203.909 203.241C203.909 202.575 204.129 202.015 204.569 201.561C205.009 201.108 205.565 200.881 206.239 200.881C207.039 200.881 207.642 201.085 208.049 201.491L207.509 202.401C207.209 202.108 206.835 201.961 206.389 201.961C206.055 201.961 205.762 202.081 205.509 202.321C205.262 202.555 205.139 202.861 205.139 203.241C205.139 203.628 205.265 203.941 205.519 204.181C205.779 204.415 206.085 204.531 206.439 204.531C206.879 204.531 207.265 204.348 207.599 203.981ZM209.208 204.941C208.761 204.495 208.538 203.928 208.538 203.241C208.538 202.555 208.761 201.991 209.208 201.551C209.661 201.105 210.254 200.881 210.988 200.881C211.721 200.881 212.311 201.105 212.758 201.551C213.211 201.991 213.438 202.555 213.438 203.241C213.438 203.928 213.211 204.495 212.758 204.941C212.311 205.381 211.721 205.601 210.988 205.601C210.254 205.601 209.661 205.381 209.208 204.941ZM209.768 203.241C209.768 203.615 209.881 203.925 210.108 204.171C210.341 204.411 210.634 204.531 210.988 204.531C211.348 204.531 211.641 204.415 211.868 204.181C212.101 203.941 212.218 203.628 212.218 203.241C212.218 202.868 212.101 202.561 211.868 202.321C211.634 202.081 211.341 201.961 210.988 201.961C210.641 201.961 210.351 202.081 210.118 202.321C209.884 202.555 209.768 202.861 209.768 203.241ZM214.433 204.251V198.491H215.583V203.781C215.583 204.268 215.713 204.511 215.973 204.511C216.12 204.511 216.276 204.451 216.443 204.331L216.683 205.211C216.37 205.465 215.973 205.591 215.493 205.591C214.786 205.591 214.433 205.145 214.433 204.251ZM217.421 204.251V198.491H218.571V203.781C218.571 204.268 218.701 204.511 218.961 204.511C219.108 204.511 219.265 204.451 219.431 204.331L219.671 205.211C219.358 205.465 218.961 205.591 218.481 205.591C217.775 205.591 217.421 205.145 217.421 204.251ZM223.94 204.231L224.27 205.041C223.83 205.415 223.256 205.601 222.55 205.601C221.823 205.601 221.236 205.385 220.79 204.951C220.35 204.518 220.13 203.948 220.13 203.241C220.13 202.568 220.346 202.008 220.78 201.561C221.213 201.108 221.79 200.881 222.51 200.881C223.103 200.881 223.606 201.078 224.02 201.471C224.433 201.858 224.64 202.358 224.64 202.971C224.64 203.225 224.616 203.431 224.57 203.591H221.32C221.366 203.925 221.513 204.185 221.76 204.371C222.006 204.551 222.31 204.641 222.67 204.641C223.176 204.641 223.6 204.505 223.94 204.231ZM222.46 201.841C221.806 201.841 221.413 202.168 221.28 202.821H223.49C223.496 202.541 223.406 202.308 223.22 202.121C223.033 201.935 222.78 201.841 222.46 201.841ZM228.946 203.981L229.486 204.821C229.3 205.075 229.046 205.268 228.726 205.401C228.413 205.535 228.07 205.601 227.696 205.601C226.963 205.601 226.373 205.385 225.926 204.951C225.48 204.518 225.256 203.948 225.256 203.241C225.256 202.575 225.476 202.015 225.916 201.561C226.356 201.108 226.913 200.881 227.586 200.881C228.386 200.881 228.99 201.085 229.396 201.491L228.856 202.401C228.556 202.108 228.183 201.961 227.736 201.961C227.403 201.961 227.11 202.081 226.856 202.321C226.61 202.555 226.486 202.861 226.486 203.241C226.486 203.628 226.613 203.941 226.866 204.181C227.126 204.415 227.433 204.531 227.786 204.531C228.226 204.531 228.613 204.348 228.946 203.981ZM230.31 203.781V199.741H231.46V200.991H232.91V202.071H231.46V203.711C231.46 204.251 231.64 204.521 232 204.521C232.226 204.521 232.456 204.435 232.69 204.261L233.04 205.151C232.68 205.445 232.236 205.591 231.71 205.591C231.216 205.591 230.86 205.441 230.64 205.141C230.42 204.835 230.31 204.381 230.31 203.781ZM234.183 205.491V200.991H235.333V205.491H234.183ZM234.063 199.371C234.063 199.171 234.133 199.011 234.273 198.891C234.413 198.765 234.583 198.701 234.783 198.701C234.956 198.701 235.11 198.765 235.243 198.891C235.376 199.011 235.443 199.171 235.443 199.371C235.443 199.591 235.376 199.768 235.243 199.901C235.11 200.028 234.956 200.091 234.783 200.091C234.576 200.091 234.403 200.028 234.263 199.901C234.13 199.768 234.063 199.591 234.063 199.371ZM237.176 204.941C236.73 204.495 236.506 203.928 236.506 203.241C236.506 202.555 236.73 201.991 237.176 201.551C237.63 201.105 238.223 200.881 238.956 200.881C239.69 200.881 240.28 201.105 240.726 201.551C241.18 201.991 241.406 202.555 241.406 203.241C241.406 203.928 241.18 204.495 240.726 204.941C240.28 205.381 239.69 205.601 238.956 205.601C238.223 205.601 237.63 205.381 237.176 204.941ZM237.736 203.241C237.736 203.615 237.85 203.925 238.076 204.171C238.31 204.411 238.603 204.531 238.956 204.531C239.316 204.531 239.61 204.415 239.836 204.181C240.07 203.941 240.186 203.628 240.186 203.241C240.186 202.868 240.07 202.561 239.836 202.321C239.603 202.081 239.31 201.961 238.956 201.961C238.61 201.961 238.32 202.081 238.086 202.321C237.853 202.555 237.736 202.861 237.736 203.241ZM242.402 205.491V200.991H243.552V201.441C243.878 201.088 244.308 200.911 244.842 200.911C246.075 200.911 246.692 201.558 246.692 202.851V205.491H245.542V203.051C245.542 202.345 245.205 201.991 244.532 201.991C244.165 201.991 243.838 202.135 243.552 202.421V205.491H242.402ZM253.39 203.981L253.93 204.821C253.743 205.075 253.49 205.268 253.17 205.401C252.857 205.535 252.513 205.601 252.14 205.601C251.407 205.601 250.817 205.385 250.37 204.951C249.923 204.518 249.7 203.948 249.7 203.241C249.7 202.575 249.92 202.015 250.36 201.561C250.8 201.108 251.357 200.881 252.03 200.881C252.83 200.881 253.433 201.085 253.84 201.491L253.3 202.401C253 202.108 252.627 201.961 252.18 201.961C251.847 201.961 251.553 202.081 251.3 202.321C251.053 202.555 250.93 202.861 250.93 203.241C250.93 203.628 251.057 203.941 251.31 204.181C251.57 204.415 251.877 204.531 252.23 204.531C252.67 204.531 253.057 204.348 253.39 203.981ZM254.999 204.941C254.552 204.495 254.329 203.928 254.329 203.241C254.329 202.555 254.552 201.991 254.999 201.551C255.452 201.105 256.045 200.881 256.779 200.881C257.512 200.881 258.102 201.105 258.549 201.551C259.002 201.991 259.229 202.555 259.229 203.241C259.229 203.928 259.002 204.495 258.549 204.941C258.102 205.381 257.512 205.601 256.779 205.601C256.045 205.601 255.452 205.381 254.999 204.941ZM255.559 203.241C255.559 203.615 255.672 203.925 255.899 204.171C256.132 204.411 256.425 204.531 256.779 204.531C257.139 204.531 257.432 204.415 257.659 204.181C257.892 203.941 258.009 203.628 258.009 203.241C258.009 202.868 257.892 202.561 257.659 202.321C257.425 202.081 257.132 201.961 256.779 201.961C256.432 201.961 256.142 202.081 255.909 202.321C255.675 202.555 255.559 202.861 255.559 203.241ZM267.054 202.551V205.491H265.904V202.851C265.904 202.278 265.647 201.991 265.134 201.991C264.694 201.991 264.384 202.165 264.204 202.511C264.204 202.531 264.204 202.585 264.204 202.671C264.211 202.751 264.214 202.808 264.214 202.841V205.491H263.064V202.771C263.064 202.531 262.997 202.341 262.864 202.201C262.737 202.061 262.554 201.991 262.314 201.991C261.901 201.991 261.587 202.151 261.374 202.471V205.491H260.224V200.991H261.374V201.491C261.721 201.105 262.191 200.911 262.784 200.911C263.117 200.911 263.397 200.978 263.624 201.111C263.851 201.245 264.007 201.418 264.094 201.631C264.461 201.151 264.967 200.911 265.614 200.911C266.574 200.911 267.054 201.458 267.054 202.551ZM268.222 207.491V200.991H269.372V201.421C269.519 201.268 269.715 201.141 269.962 201.041C270.215 200.935 270.482 200.881 270.762 200.881C271.375 200.881 271.869 201.095 272.242 201.521C272.615 201.948 272.802 202.498 272.802 203.171C272.802 203.871 272.582 204.451 272.142 204.911C271.702 205.371 271.129 205.601 270.422 205.601C269.975 205.601 269.625 205.528 269.372 205.381V207.491H268.222ZM270.402 201.961C270.009 201.961 269.665 202.125 269.372 202.451V204.271C269.639 204.445 269.955 204.531 270.322 204.531C270.709 204.531 271.015 204.408 271.242 204.161C271.469 203.908 271.582 203.588 271.582 203.201C271.582 202.835 271.479 202.538 271.272 202.311C271.065 202.078 270.775 201.961 270.402 201.961ZM274.148 202.151L273.858 201.311C274.345 201.025 274.875 200.881 275.448 200.881C276.088 200.881 276.548 201.038 276.828 201.351C277.108 201.665 277.248 202.131 277.248 202.751V205.491H276.248V204.971C275.975 205.358 275.532 205.551 274.918 205.551C274.498 205.551 274.158 205.428 273.898 205.181C273.638 204.935 273.508 204.598 273.508 204.171C273.508 203.698 273.662 203.338 273.968 203.091C274.275 202.838 274.668 202.711 275.148 202.711C275.562 202.711 275.902 202.808 276.168 203.001C276.182 202.608 276.125 202.318 275.998 202.131C275.872 201.938 275.648 201.841 275.328 201.841C274.995 201.841 274.602 201.945 274.148 202.151ZM275.298 204.581C275.685 204.581 275.975 204.445 276.168 204.171V203.711C275.975 203.565 275.712 203.491 275.378 203.491C275.172 203.491 274.998 203.541 274.858 203.641C274.725 203.735 274.658 203.871 274.658 204.051C274.658 204.218 274.718 204.348 274.838 204.441C274.958 204.535 275.112 204.581 275.298 204.581ZM278.427 205.491V200.991H279.577V201.441C279.904 201.088 280.334 200.911 280.867 200.911C282.1 200.911 282.717 201.558 282.717 202.851V205.491H281.567V203.051C281.567 202.345 281.23 201.991 280.557 201.991C280.19 201.991 279.864 202.135 279.577 202.421V205.491H278.427ZM288.226 200.991L286.456 205.491C286.136 206.271 285.849 206.798 285.596 207.071C285.349 207.351 285.056 207.491 284.716 207.491C284.389 207.491 284.066 207.375 283.746 207.141L284.116 206.271C284.296 206.378 284.453 206.431 284.586 206.431C284.859 206.431 285.089 206.198 285.276 205.731L285.376 205.491L283.296 200.991H284.676L285.726 203.451C285.766 203.551 285.839 203.768 285.946 204.101C285.999 203.808 286.053 203.588 286.106 203.441L286.916 200.991H288.226Z" fill="#ED553B"/>
</g>
<path d="M26.744 242.948V238.1H27.704V239.6H29.684V240.5H27.704V242.852C27.704 243.748 28.024 244.196 28.664 244.196C28.968 244.196 29.252 244.096 29.516 243.896L29.816 244.64C29.448 244.944 28.988 245.096 28.436 245.096C27.844 245.096 27.412 244.916 27.14 244.556C26.876 244.196 26.744 243.66 26.744 242.948ZM31.3155 244.328C30.7875 243.792 30.5235 243.116 30.5235 242.3C30.5235 241.484 30.7875 240.812 31.3155 240.284C31.8515 239.748 32.5475 239.48 33.4035 239.48C34.2595 239.48 34.9515 239.748 35.4795 240.284C36.0155 240.812 36.2835 241.484 36.2835 242.3C36.2835 243.116 36.0155 243.792 35.4795 244.328C34.9515 244.856 34.2595 245.12 33.4035 245.12C32.5475 245.12 31.8515 244.856 31.3155 244.328ZM31.5435 242.3C31.5435 242.86 31.7155 243.32 32.0595 243.68C32.4115 244.04 32.8595 244.22 33.4035 244.22C33.9475 244.22 34.3915 244.044 34.7355 243.692C35.0875 243.332 35.2635 242.868 35.2635 242.3C35.2635 241.74 35.0875 241.28 34.7355 240.92C34.3915 240.56 33.9475 240.38 33.4035 240.38C32.8675 240.38 32.4235 240.56 32.0715 240.92C31.7195 241.272 31.5435 241.732 31.5435 242.3ZM41.6287 245V244.316C41.1487 244.836 40.5767 245.096 39.9127 245.096C39.1207 245.096 38.4887 244.844 38.0167 244.34C37.5447 243.836 37.3087 243.168 37.3087 242.336C37.3087 241.496 37.5847 240.812 38.1367 240.284C38.6967 239.748 39.4047 239.48 40.2607 239.48C40.8127 239.48 41.2687 239.608 41.6287 239.864V236.6H42.5887V245H41.6287ZM40.0927 244.196C40.6847 244.196 41.1967 243.956 41.6287 243.476V240.8C41.1887 240.52 40.7447 240.38 40.2967 240.38C39.7447 240.38 39.2767 240.56 38.8927 240.92C38.5167 241.272 38.3287 241.736 38.3287 242.312C38.3287 242.896 38.4927 243.356 38.8207 243.692C39.1487 244.028 39.5727 244.196 40.0927 244.196ZM44.6012 240.74L44.3492 239.972C44.8772 239.644 45.4772 239.48 46.1492 239.48C46.8932 239.48 47.4252 239.664 47.7452 240.032C48.0652 240.4 48.2252 240.952 48.2252 241.688V245H47.3132V244.304C46.8972 244.824 46.3212 245.084 45.5852 245.084C45.0892 245.084 44.6892 244.936 44.3852 244.64C44.0812 244.336 43.9292 243.928 43.9292 243.416C43.9292 242.88 44.1172 242.46 44.4932 242.156C44.8772 241.852 45.3692 241.7 45.9692 241.7C46.5452 241.7 46.9932 241.816 47.3132 242.048C47.3132 241.472 47.2332 241.044 47.0732 240.764C46.9132 240.484 46.5852 240.344 46.0892 240.344C45.6012 240.344 45.1052 240.476 44.6012 240.74ZM45.9212 244.22C46.4572 244.22 46.9212 243.988 47.3132 243.524V242.84C46.9772 242.6 46.5732 242.48 46.1012 242.48C45.7812 242.48 45.5092 242.556 45.2852 242.708C45.0612 242.86 44.9492 243.08 44.9492 243.368C44.9492 243.632 45.0332 243.84 45.2012 243.992C45.3772 244.144 45.6172 244.22 45.9212 244.22ZM54.7408 239.6L52.5808 245C52.1968 245.936 51.8568 246.568 51.5608 246.896C51.2648 247.232 50.9168 247.4 50.5168 247.4C50.1728 247.4 49.8328 247.288 49.4968 247.064L49.8088 246.332C50.0648 246.452 50.2648 246.512 50.4088 246.512C50.6328 246.512 50.8328 246.416 51.0088 246.224C51.1928 246.032 51.3768 245.72 51.5608 245.288L51.6808 245L49.0888 239.6H50.2408L51.8248 243.032C51.8568 243.104 51.9648 243.376 52.1488 243.848C52.2208 243.584 52.3048 243.308 52.4008 243.02L53.6488 239.6H54.7408Z" fill="#E8ECF1" fill-opacity="0.46"/>
<path d="M290.42 240.2H290.732C291.092 240.2 291.404 240.064 291.668 239.792C291.94 239.52 292.076 239.196 292.076 238.82C292.076 238.396 291.928 238.06 291.632 237.812C291.336 237.564 290.976 237.44 290.552 237.44C290.128 237.44 289.772 237.568 289.484 237.824C289.204 238.08 289.064 238.412 289.064 238.82C289.064 239.196 289.2 239.52 289.472 239.792C289.744 240.064 290.06 240.2 290.42 240.2ZM290.72 241.16H290.456C290 241.16 289.608 241.3 289.28 241.58C288.96 241.86 288.8 242.216 288.8 242.648C288.8 243.088 288.964 243.452 289.292 243.74C289.628 244.02 290.052 244.16 290.564 244.16C291.1 244.16 291.528 244.024 291.848 243.752C292.176 243.472 292.34 243.104 292.34 242.648C292.332 242.192 292.172 241.832 291.86 241.568C291.556 241.296 291.176 241.16 290.72 241.16ZM292.556 244.484C292.02 244.908 291.36 245.12 290.576 245.12C289.792 245.12 289.128 244.912 288.584 244.496C288.048 244.08 287.78 243.524 287.78 242.828C287.78 242.316 287.924 241.868 288.212 241.484C288.508 241.1 288.892 240.84 289.364 240.704V240.668C288.988 240.54 288.672 240.292 288.416 239.924C288.168 239.548 288.044 239.132 288.044 238.676C288.044 238.028 288.284 237.5 288.764 237.092C289.252 236.684 289.852 236.48 290.564 236.48C291.276 236.48 291.876 236.684 292.364 237.092C292.852 237.5 293.096 238.028 293.096 238.676C293.096 239.092 292.972 239.484 292.724 239.852C292.476 240.22 292.14 240.488 291.716 240.656V240.692C292.188 240.772 292.58 241 292.892 241.376C293.204 241.752 293.36 242.212 293.36 242.756C293.36 243.484 293.092 244.06 292.556 244.484ZM295.481 243.944C295.025 243.168 294.797 242.12 294.797 240.8C294.797 239.48 295.021 238.436 295.469 237.668C295.925 236.892 296.609 236.504 297.521 236.504C298.433 236.504 299.113 236.892 299.561 237.668C300.017 238.436 300.245 239.48 300.245 240.8C300.245 242.128 300.021 243.176 299.573 243.944C299.133 244.712 298.457 245.096 297.545 245.096C296.633 245.096 295.945 244.712 295.481 243.944ZM297.521 237.404C296.385 237.404 295.817 238.536 295.817 240.8C295.817 243.064 296.393 244.196 297.545 244.196C298.137 244.196 298.565 243.912 298.829 243.344C299.093 242.776 299.225 241.928 299.225 240.8C299.225 239.68 299.089 238.836 298.817 238.268C298.545 237.692 298.113 237.404 297.521 237.404ZM301.738 241.1V240.26H303.994V237.968H304.894V240.26H307.186V241.1H304.894V243.416H303.994V241.1H301.738ZM319.587 241.46V245H318.627V241.724C318.627 240.844 318.239 240.404 317.463 240.404C317.151 240.404 316.867 240.476 316.611 240.62C316.363 240.764 316.175 240.952 316.047 241.184C316.055 241.248 316.059 241.376 316.059 241.568V245H315.099V241.52C315.099 241.184 314.999 240.916 314.799 240.716C314.599 240.508 314.315 240.404 313.947 240.404C313.347 240.404 312.875 240.648 312.531 241.136V245H311.571V239.6H312.531V240.284C312.731 240.052 312.991 239.864 313.311 239.72C313.639 239.576 313.975 239.504 314.319 239.504C314.735 239.504 315.083 239.588 315.363 239.756C315.651 239.924 315.847 240.152 315.951 240.44C316.151 240.16 316.415 239.936 316.743 239.768C317.079 239.592 317.447 239.504 317.847 239.504C319.007 239.504 319.587 240.156 319.587 241.46ZM321.636 244.328C321.108 243.792 320.844 243.116 320.844 242.3C320.844 241.484 321.108 240.812 321.636 240.284C322.172 239.748 322.868 239.48 323.724 239.48C324.58 239.48 325.272 239.748 325.8 240.284C326.336 240.812 326.604 241.484 326.604 242.3C326.604 243.116 326.336 243.792 325.8 244.328C325.272 244.856 324.58 245.12 323.724 245.12C322.868 245.12 322.172 244.856 321.636 244.328ZM321.864 242.3C321.864 242.86 322.036 243.32 322.38 243.68C322.732 244.04 323.18 244.22 323.724 244.22C324.268 244.22 324.712 244.044 325.056 243.692C325.408 243.332 325.584 242.868 325.584 242.3C325.584 241.74 325.408 241.28 325.056 240.92C324.712 240.56 324.268 240.38 323.724 240.38C323.188 240.38 322.744 240.56 322.392 240.92C322.04 241.272 321.864 241.732 321.864 242.3ZM327.989 245V239.6H328.949V240.26C329.149 240.044 329.409 239.864 329.729 239.72C330.049 239.576 330.377 239.504 330.713 239.504C332.209 239.504 332.957 240.296 332.957 241.88V245H331.997V242.06C331.997 240.956 331.489 240.404 330.473 240.404C329.865 240.404 329.357 240.636 328.949 241.1V245H327.989ZM334.455 242.948V238.1H335.415V239.6H337.395V240.5H335.415V242.852C335.415 243.748 335.735 244.196 336.375 244.196C336.679 244.196 336.963 244.096 337.227 243.896L337.527 244.64C337.159 244.944 336.699 245.096 336.147 245.096C335.555 245.096 335.123 244.916 334.851 244.556C334.587 244.196 334.455 243.66 334.455 242.948ZM338.805 245V236.6H339.765V240.224C339.973 240.016 340.233 239.844 340.545 239.708C340.865 239.572 341.193 239.504 341.529 239.504C343.025 239.504 343.773 240.304 343.773 241.904V245H342.813V242.036C342.813 240.948 342.309 240.404 341.301 240.404C341.013 240.404 340.729 240.468 340.449 240.596C340.169 240.724 339.941 240.888 339.765 241.088V245H338.805ZM348.127 243.536C348.127 243.336 348.027 243.176 347.827 243.056C347.627 242.928 347.383 242.824 347.095 242.744C346.815 242.656 346.531 242.556 346.243 242.444C345.955 242.332 345.711 242.156 345.511 241.916C345.311 241.676 345.211 241.372 345.211 241.004C345.211 240.54 345.379 240.172 345.715 239.9C346.059 239.62 346.503 239.48 347.047 239.48C347.847 239.48 348.467 239.692 348.907 240.116L348.451 240.848C348.059 240.496 347.607 240.32 347.095 240.32C346.831 240.32 346.619 240.388 346.459 240.524C346.307 240.652 346.231 240.808 346.231 240.992C346.231 241.2 346.331 241.372 346.531 241.508C346.731 241.636 346.971 241.744 347.251 241.832C347.539 241.912 347.827 242.008 348.115 242.12C348.403 242.224 348.647 242.392 348.847 242.624C349.047 242.848 349.147 243.136 349.147 243.488C349.147 244.024 348.947 244.432 348.547 244.712C348.147 244.984 347.651 245.12 347.059 245.12C346.643 245.12 346.239 245.032 345.847 244.856C345.463 244.68 345.203 244.488 345.067 244.28L345.607 243.596C345.767 243.78 345.999 243.94 346.303 244.076C346.615 244.212 346.903 244.28 347.167 244.28C347.439 244.28 347.667 244.216 347.851 244.088C348.035 243.952 348.127 243.768 348.127 243.536Z" fill="#E8ECF1" fill-opacity="0.46"/>
<path d="M150.964 245.12C150.372 245.12 149.852 244.996 149.404 244.748C148.964 244.5 148.636 244.144 148.42 243.68L148.972 242.996C149.172 243.372 149.448 243.66 149.8 243.86C150.152 244.06 150.528 244.16 150.928 244.16C151.44 244.16 151.844 244.02 152.14 243.74C152.436 243.452 152.584 243.088 152.584 242.648C152.584 242.2 152.424 241.844 152.104 241.58C151.792 241.316 151.38 241.184 150.868 241.184H150.208V240.224H150.808C151.192 240.224 151.528 240.088 151.816 239.816C152.112 239.536 152.26 239.188 152.26 238.772C152.26 238.356 152.136 238.032 151.888 237.8C151.648 237.56 151.316 237.44 150.892 237.44C150.14 237.44 149.564 237.788 149.164 238.484L148.624 237.824C148.816 237.4 149.116 237.072 149.524 236.84C149.94 236.6 150.42 236.48 150.964 236.48C151.668 236.48 152.228 236.672 152.644 237.056C153.068 237.432 153.28 237.948 153.28 238.604C153.28 239.068 153.168 239.476 152.944 239.828C152.72 240.18 152.396 240.444 151.972 240.62V240.656C152.476 240.736 152.872 240.968 153.16 241.352C153.456 241.728 153.604 242.172 153.604 242.684C153.604 243.42 153.356 244.012 152.86 244.46C152.364 244.9 151.732 245.12 150.964 245.12ZM165.962 241.46V245H165.002V241.724C165.002 240.844 164.614 240.404 163.838 240.404C163.526 240.404 163.242 240.476 162.986 240.62C162.738 240.764 162.55 240.952 162.422 241.184C162.43 241.248 162.434 241.376 162.434 241.568V245H161.474V241.52C161.474 241.184 161.374 240.916 161.174 240.716C160.974 240.508 160.69 240.404 160.322 240.404C159.722 240.404 159.25 240.648 158.906 241.136V245H157.946V239.6H158.906V240.284C159.106 240.052 159.366 239.864 159.686 239.72C160.014 239.576 160.35 239.504 160.694 239.504C161.11 239.504 161.458 239.588 161.738 239.756C162.026 239.924 162.222 240.152 162.326 240.44C162.526 240.16 162.79 239.936 163.118 239.768C163.454 239.592 163.822 239.504 164.222 239.504C165.382 239.504 165.962 240.156 165.962 241.46ZM168.011 244.328C167.483 243.792 167.219 243.116 167.219 242.3C167.219 241.484 167.483 240.812 168.011 240.284C168.547 239.748 169.243 239.48 170.099 239.48C170.955 239.48 171.647 239.748 172.175 240.284C172.711 240.812 172.979 241.484 172.979 242.3C172.979 243.116 172.711 243.792 172.175 244.328C171.647 244.856 170.955 245.12 170.099 245.12C169.243 245.12 168.547 244.856 168.011 244.328ZM168.239 242.3C168.239 242.86 168.411 243.32 168.755 243.68C169.107 244.04 169.555 244.22 170.099 244.22C170.643 244.22 171.087 244.044 171.431 243.692C171.783 243.332 171.959 242.868 171.959 242.3C171.959 241.74 171.783 241.28 171.431 240.92C171.087 240.56 170.643 240.38 170.099 240.38C169.563 240.38 169.119 240.56 168.767 240.92C168.415 241.272 168.239 241.732 168.239 242.3ZM174.364 245V239.6H175.324V240.26C175.524 240.044 175.784 239.864 176.104 239.72C176.424 239.576 176.752 239.504 177.088 239.504C178.584 239.504 179.332 240.296 179.332 241.88V245H178.372V242.06C178.372 240.956 177.864 240.404 176.848 240.404C176.24 240.404 175.732 240.636 175.324 241.1V245H174.364ZM180.83 242.948V238.1H181.79V239.6H183.77V240.5H181.79V242.852C181.79 243.748 182.11 244.196 182.75 244.196C183.054 244.196 183.338 244.096 183.602 243.896L183.902 244.64C183.534 244.944 183.074 245.096 182.522 245.096C181.93 245.096 181.498 244.916 181.226 244.556C180.962 244.196 180.83 243.66 180.83 242.948ZM185.18 245V236.6H186.14V240.224C186.348 240.016 186.608 239.844 186.92 239.708C187.24 239.572 187.568 239.504 187.904 239.504C189.4 239.504 190.148 240.304 190.148 241.904V245H189.188V242.036C189.188 240.948 188.684 240.404 187.676 240.404C187.388 240.404 187.104 240.468 186.824 240.596C186.544 240.724 186.316 240.888 186.14 241.088V245H185.18ZM194.502 243.536C194.502 243.336 194.402 243.176 194.202 243.056C194.002 242.928 193.758 242.824 193.47 242.744C193.19 242.656 192.906 242.556 192.618 242.444C192.33 242.332 192.086 242.156 191.886 241.916C191.686 241.676 191.586 241.372 191.586 241.004C191.586 240.54 191.754 240.172 192.09 239.9C192.434 239.62 192.878 239.48 193.422 239.48C194.222 239.48 194.842 239.692 195.282 240.116L194.826 240.848C194.434 240.496 193.982 240.32 193.47 240.32C193.206 240.32 192.994 240.388 192.834 240.524C192.682 240.652 192.606 240.808 192.606 240.992C192.606 241.2 192.706 241.372 192.906 241.508C193.106 241.636 193.346 241.744 193.626 241.832C193.914 241.912 194.202 242.008 194.49 242.12C194.778 242.224 195.022 242.392 195.222 242.624C195.422 242.848 195.522 243.136 195.522 243.488C195.522 244.024 195.322 244.432 194.922 244.712C194.522 244.984 194.026 245.12 193.434 245.12C193.018 245.12 192.614 245.032 192.222 244.856C191.838 244.68 191.578 244.488 191.442 244.28L191.982 243.596C192.142 243.78 192.374 243.94 192.678 244.076C192.99 244.212 193.278 244.28 193.542 244.28C193.814 244.28 194.042 244.216 194.226 244.088C194.41 243.952 194.502 243.768 194.502 243.536Z" fill="#E8ECF1" fill-opacity="0.46"/>
<line x1="26" y1="226.5" x2="350" y2="226.5" stroke="white" stroke-opacity="0.1"/>
<path d="M36 191L30.8038 183.5L41.1962 183.5L36 191Z" fill="#27548B"/>
<rect x="19" y="157" width="104" height="28" rx="14" fill="#27548B"/>
<path d="M34.7803 166.6L31.7683 171.4V175H30.7483V171.4L27.7723 166.6H28.9483L31.3003 170.44L33.6643 166.6H34.7803ZM34.8312 174.328C34.3032 173.792 34.0392 173.116 34.0392 172.3C34.0392 171.484 34.3032 170.812 34.8312 170.284C35.3672 169.748 36.0632 169.48 36.9192 169.48C37.7752 169.48 38.4672 169.748 38.9952 170.284C39.5312 170.812 39.7992 171.484 39.7992 172.3C39.7992 173.116 39.5312 173.792 38.9952 174.328C38.4672 174.856 37.7752 175.12 36.9192 175.12C36.0632 175.12 35.3672 174.856 34.8312 174.328ZM35.0592 172.3C35.0592 172.86 35.2312 173.32 35.5752 173.68C35.9272 174.04 36.3752 174.22 36.9192 174.22C37.4632 174.22 37.9072 174.044 38.2512 173.692C38.6032 173.332 38.7792 172.868 38.7792 172.3C38.7792 171.74 38.6032 171.28 38.2512 170.92C37.9072 170.56 37.4632 170.38 36.9192 170.38C36.3832 170.38 35.9392 170.56 35.5872 170.92C35.2352 171.272 35.0592 171.732 35.0592 172.3ZM45.9243 169.6V175H44.9643V174.232C44.7563 174.48 44.4843 174.692 44.1483 174.868C43.8203 175.036 43.4563 175.12 43.0563 175.12C42.4323 175.12 41.9443 174.928 41.5923 174.544C41.2403 174.16 41.0643 173.584 41.0643 172.816V169.6H42.0243V172.6C42.0243 173.68 42.4883 174.22 43.4163 174.22C43.7123 174.22 44.0003 174.144 44.2803 173.992C44.5603 173.84 44.7883 173.648 44.9643 173.416V169.6H45.9243ZM47.6648 175V169.6H48.6248V170.236C48.9528 169.748 49.4048 169.504 49.9808 169.504C50.3568 169.504 50.6368 169.572 50.8208 169.708L50.4848 170.608C50.2528 170.472 50.0088 170.404 49.7528 170.404C49.2648 170.404 48.8888 170.66 48.6248 171.172V175H47.6648ZM58.5902 173.524L59.0462 174.22C58.8222 174.508 58.5262 174.732 58.1582 174.892C57.7902 175.044 57.3942 175.12 56.9702 175.12C56.1062 175.12 55.4062 174.864 54.8702 174.352C54.3422 173.832 54.0782 173.148 54.0782 172.3C54.0782 171.508 54.3382 170.84 54.8582 170.296C55.3782 169.752 56.0302 169.48 56.8142 169.48C57.7582 169.48 58.4662 169.716 58.9382 170.188L58.4942 170.944C58.0862 170.568 57.5702 170.38 56.9462 170.38C56.4422 170.38 56.0062 170.564 55.6382 170.932C55.2782 171.292 55.0982 171.748 55.0982 172.3C55.0982 172.876 55.2822 173.34 55.6502 173.692C56.0262 174.044 56.4902 174.22 57.0422 174.22C57.6662 174.22 58.1822 173.988 58.5902 173.524ZM60.2976 175V169.6H61.2576V170.236C61.5856 169.748 62.0376 169.504 62.6136 169.504C62.9896 169.504 63.2696 169.572 63.4536 169.708L63.1176 170.608C62.8856 170.472 62.6416 170.404 62.3856 170.404C61.8976 170.404 61.5216 170.66 61.2576 171.172V175H60.2976ZM68.6357 173.656L68.9357 174.412C68.4157 174.884 67.7397 175.12 66.9077 175.12C66.0357 175.12 65.3357 174.864 64.8077 174.352C64.2797 173.84 64.0157 173.156 64.0157 172.3C64.0157 171.484 64.2637 170.812 64.7597 170.284C65.2557 169.748 65.9357 169.48 66.7997 169.48C67.5117 169.48 68.1077 169.712 68.5877 170.176C69.0677 170.632 69.3077 171.224 69.3077 171.952C69.3077 172.2 69.2877 172.416 69.2477 172.6H65.0957C65.1357 173.104 65.3237 173.5 65.6597 173.788C66.0037 174.076 66.4437 174.22 66.9797 174.22C67.6837 174.22 68.2357 174.032 68.6357 173.656ZM66.7517 170.38C66.2717 170.38 65.8797 170.516 65.5757 170.788C65.2717 171.052 65.0917 171.396 65.0357 171.82H68.3117C68.2877 171.372 68.1357 171.02 67.8557 170.764C67.5837 170.508 67.2157 170.38 66.7517 170.38ZM74.5701 175V174.316C74.0901 174.836 73.5181 175.096 72.8541 175.096C72.0621 175.096 71.4301 174.844 70.9581 174.34C70.4861 173.836 70.2501 173.168 70.2501 172.336C70.2501 171.496 70.5261 170.812 71.0781 170.284C71.6381 169.748 72.3461 169.48 73.2021 169.48C73.7541 169.48 74.2101 169.608 74.5701 169.864V166.6H75.5301V175H74.5701ZM73.0341 174.196C73.6261 174.196 74.1381 173.956 74.5701 173.476V170.8C74.1301 170.52 73.6861 170.38 73.2381 170.38C72.6861 170.38 72.2181 170.56 71.8341 170.92C71.4581 171.272 71.2701 171.736 71.2701 172.312C71.2701 172.896 71.4341 173.356 71.7621 173.692C72.0901 174.028 72.5141 174.196 73.0341 174.196ZM77.5186 175V169.6H78.4786V175H77.5186ZM77.3986 167.572C77.3986 167.404 77.4586 167.268 77.5786 167.164C77.6986 167.052 77.8466 166.996 78.0226 166.996C78.1826 166.996 78.3186 167.052 78.4306 167.164C78.5506 167.268 78.6106 167.404 78.6106 167.572C78.6106 167.764 78.5506 167.916 78.4306 168.028C78.3186 168.14 78.1826 168.196 78.0226 168.196C77.8466 168.196 77.6986 168.14 77.5786 168.028C77.4586 167.916 77.3986 167.764 77.3986 167.572ZM80.3456 172.948V168.1H81.3056V169.6H83.2856V170.5H81.3056V172.852C81.3056 173.748 81.6256 174.196 82.2656 174.196C82.5696 174.196 82.8536 174.096 83.1176 173.896L83.4176 174.64C83.0496 174.944 82.5896 175.096 82.0376 175.096C81.4456 175.096 81.0136 174.916 80.7416 174.556C80.4776 174.196 80.3456 173.66 80.3456 172.948ZM90.1273 173.536C90.1273 173.336 90.0273 173.176 89.8273 173.056C89.6273 172.928 89.3833 172.824 89.0953 172.744C88.8153 172.656 88.5313 172.556 88.2433 172.444C87.9553 172.332 87.7113 172.156 87.5113 171.916C87.3113 171.676 87.2113 171.372 87.2113 171.004C87.2113 170.54 87.3793 170.172 87.7153 169.9C88.0593 169.62 88.5033 169.48 89.0473 169.48C89.8473 169.48 90.4673 169.692 90.9073 170.116L90.4513 170.848C90.0593 170.496 89.6073 170.32 89.0953 170.32C88.8313 170.32 88.6193 170.388 88.4593 170.524C88.3073 170.652 88.2313 170.808 88.2313 170.992C88.2313 171.2 88.3313 171.372 88.5313 171.508C88.7313 171.636 88.9713 171.744 89.2513 171.832C89.5393 171.912 89.8273 172.008 90.1153 172.12C90.4033 172.224 90.6473 172.392 90.8473 172.624C91.0473 172.848 91.1473 173.136 91.1473 173.488C91.1473 174.024 90.9473 174.432 90.5473 174.712C90.1473 174.984 89.6513 175.12 89.0593 175.12C88.6433 175.12 88.2393 175.032 87.8473 174.856C87.4633 174.68 87.2033 174.488 87.0673 174.28L87.6073 173.596C87.7673 173.78 87.9993 173.94 88.3033 174.076C88.6153 174.212 88.9033 174.28 89.1673 174.28C89.4393 174.28 89.6673 174.216 89.8513 174.088C90.0353 173.952 90.1273 173.768 90.1273 173.536ZM96.6996 173.524L97.1556 174.22C96.9316 174.508 96.6356 174.732 96.2676 174.892C95.8996 175.044 95.5036 175.12 95.0796 175.12C94.2156 175.12 93.5156 174.864 92.9796 174.352C92.4516 173.832 92.1876 173.148 92.1876 172.3C92.1876 171.508 92.4476 170.84 92.9676 170.296C93.4876 169.752 94.1396 169.48 94.9236 169.48C95.8676 169.48 96.5756 169.716 97.0476 170.188L96.6036 170.944C96.1956 170.568 95.6796 170.38 95.0556 170.38C94.5516 170.38 94.1156 170.564 93.7476 170.932C93.3876 171.292 93.2076 171.748 93.2076 172.3C93.2076 172.876 93.3916 173.34 93.7596 173.692C94.1356 174.044 94.5996 174.22 95.1516 174.22C95.7756 174.22 96.2916 173.988 96.6996 173.524ZM98.546 174.328C98.018 173.792 97.754 173.116 97.754 172.3C97.754 171.484 98.018 170.812 98.546 170.284C99.082 169.748 99.778 169.48 100.634 169.48C101.49 169.48 102.182 169.748 102.71 170.284C103.246 170.812 103.514 171.484 103.514 172.3C103.514 173.116 103.246 173.792 102.71 174.328C102.182 174.856 101.49 175.12 100.634 175.12C99.778 175.12 99.082 174.856 98.546 174.328ZM98.774 172.3C98.774 172.86 98.946 173.32 99.29 173.68C99.642 174.04 100.09 174.22 100.634 174.22C101.178 174.22 101.622 174.044 101.966 173.692C102.318 173.332 102.494 172.868 102.494 172.3C102.494 171.74 102.318 171.28 101.966 170.92C101.622 170.56 101.178 170.38 100.634 170.38C100.098 170.38 99.654 170.56 99.302 170.92C98.95 171.272 98.774 171.732 98.774 172.3ZM104.899 175V169.6H105.859V170.236C106.187 169.748 106.639 169.504 107.215 169.504C107.591 169.504 107.871 169.572 108.055 169.708L107.719 170.608C107.487 170.472 107.243 170.404 106.987 170.404C106.499 170.404 106.123 170.66 105.859 171.172V175H104.899ZM113.237 173.656L113.537 174.412C113.017 174.884 112.341 175.12 111.509 175.12C110.637 175.12 109.937 174.864 109.409 174.352C108.881 173.84 108.617 173.156 108.617 172.3C108.617 171.484 108.865 170.812 109.361 170.284C109.857 169.748 110.537 169.48 111.401 169.48C112.113 169.48 112.709 169.712 113.189 170.176C113.669 170.632 113.909 171.224 113.909 171.952C113.909 172.2 113.889 172.416 113.849 172.6H109.697C109.737 173.104 109.925 173.5 110.261 173.788C110.605 174.076 111.045 174.22 111.581 174.22C112.285 174.22 112.837 174.032 113.237 173.656ZM111.353 170.38C110.873 170.38 110.481 170.516 110.177 170.788C109.873 171.052 109.693 171.396 109.637 171.82H112.913C112.889 171.372 112.737 171.02 112.457 170.764C112.185 170.508 111.817 170.38 111.353 170.38Z" fill="#E8ECF1"/>
<rect x="174" y="135" width="94" height="22" rx="11" fill="#BAE5CE"/>
<path d="M188.76 142H189.94L187.94 149H186.79L185.1 143.94L183.44 149H182.28L180.19 142H181.57L182.98 146.99L184.54 142H185.76L187.36 147L188.76 142ZM192.266 149H191.116V144.5H192.266V149ZM190.996 142.88C190.996 142.68 191.062 142.52 191.196 142.4C191.336 142.273 191.509 142.21 191.716 142.21C191.896 142.21 192.049 142.273 192.176 142.4C192.309 142.527 192.376 142.687 192.376 142.88C192.376 143.093 192.309 143.267 192.176 143.4C192.049 143.533 191.896 143.6 191.716 143.6C191.509 143.6 191.336 143.533 191.196 143.4C191.062 143.267 190.996 143.093 190.996 142.88ZM193.619 147.29V143.25H194.769V144.5H196.219V145.58H194.769V147.22C194.769 147.76 194.949 148.03 195.309 148.03C195.536 148.03 195.766 147.943 195.999 147.77L196.349 148.66C195.982 148.953 195.539 149.1 195.019 149.1C194.532 149.1 194.176 148.953 193.949 148.66C193.729 148.36 193.619 147.903 193.619 147.29ZM198.473 149H197.323V142H198.473V144.91C198.806 144.583 199.236 144.42 199.763 144.42C200.996 144.42 201.613 145.077 201.613 146.39V149H200.463V146.54C200.463 146.207 200.376 145.95 200.203 145.77C200.029 145.59 199.783 145.5 199.463 145.5C199.076 145.5 198.746 145.637 198.473 145.91V149ZM210.091 147.4L210.561 148.32C210.341 148.553 210.024 148.743 209.611 148.89C209.204 149.037 208.774 149.11 208.321 149.11C207.254 149.11 206.384 148.78 205.711 148.12C205.044 147.46 204.711 146.587 204.711 145.5C204.711 144.46 205.027 143.597 205.661 142.91C206.287 142.23 207.164 141.89 208.291 141.89C209.184 141.89 209.894 142.127 210.421 142.6L209.871 143.51C209.397 143.197 208.871 143.04 208.291 143.04C207.624 143.04 207.077 143.263 206.651 143.71C206.224 144.157 206.011 144.753 206.011 145.5C206.011 146.233 206.234 146.827 206.681 147.28C207.134 147.733 207.717 147.96 208.431 147.96C209.044 147.96 209.597 147.773 210.091 147.4ZM212.603 149H211.453V144.5H212.603V144.94C212.85 144.593 213.193 144.42 213.633 144.42C213.947 144.42 214.18 144.477 214.333 144.59L213.923 145.67C213.73 145.557 213.537 145.5 213.343 145.5C213.01 145.5 212.763 145.66 212.603 145.98V149ZM218.519 147.74L218.849 148.55C218.402 148.923 217.829 149.11 217.129 149.11C216.409 149.11 215.822 148.893 215.369 148.46C214.929 148.033 214.709 147.463 214.709 146.75C214.709 146.083 214.925 145.523 215.359 145.07C215.792 144.617 216.369 144.39 217.089 144.39C217.682 144.39 218.185 144.587 218.599 144.98C219.012 145.373 219.219 145.873 219.219 146.48C219.219 146.747 219.195 146.953 219.149 147.1H215.899C215.945 147.427 216.089 147.683 216.329 147.87C216.575 148.057 216.882 148.15 217.249 148.15C217.749 148.15 218.172 148.013 218.519 147.74ZM217.039 145.35C216.385 145.35 215.992 145.677 215.859 146.33H218.069C218.075 146.043 217.982 145.81 217.789 145.63C217.602 145.443 217.352 145.35 217.039 145.35ZM224.425 149H223.275V148.53C222.928 148.897 222.498 149.08 221.985 149.08C221.352 149.08 220.838 148.873 220.445 148.46C220.058 148.047 219.865 147.493 219.865 146.8C219.865 146.093 220.095 145.517 220.555 145.07C221.022 144.617 221.615 144.39 222.335 144.39C222.715 144.39 223.028 144.463 223.275 144.61V142H224.425V149ZM222.225 148.01C222.618 148.01 222.968 147.857 223.275 147.55V145.74C222.988 145.56 222.692 145.47 222.385 145.47C222.018 145.47 221.712 145.587 221.465 145.82C221.218 146.053 221.095 146.367 221.095 146.76C221.095 147.14 221.202 147.443 221.415 147.67C221.628 147.897 221.898 148.01 222.225 148.01ZM227.022 149H225.872V144.5H227.022V149ZM225.752 142.88C225.752 142.68 225.818 142.52 225.952 142.4C226.092 142.273 226.265 142.21 226.472 142.21C226.652 142.21 226.805 142.273 226.932 142.4C227.065 142.527 227.132 142.687 227.132 142.88C227.132 143.093 227.065 143.267 226.932 143.4C226.805 143.533 226.652 143.6 226.472 143.6C226.265 143.6 226.092 143.533 225.952 143.4C225.818 143.267 225.752 143.093 225.752 142.88ZM228.375 147.29V143.25H229.525V144.5H230.975V145.58H229.525V147.22C229.525 147.76 229.705 148.03 230.065 148.03C230.292 148.03 230.522 147.943 230.755 147.77L231.105 148.66C230.738 148.953 230.295 149.1 229.775 149.1C229.288 149.1 228.932 148.953 228.705 148.66C228.485 148.36 228.375 147.903 228.375 147.29ZM237.338 147.14C237.338 146.927 237.258 146.74 237.098 146.58C236.944 146.413 236.751 146.28 236.518 146.18C236.284 146.073 236.028 145.953 235.748 145.82C235.474 145.68 235.221 145.537 234.988 145.39C234.754 145.237 234.558 145.027 234.398 144.76C234.244 144.487 234.168 144.173 234.168 143.82C234.168 143.28 234.364 142.823 234.758 142.45C235.164 142.077 235.694 141.89 236.348 141.89C237.234 141.89 237.901 142.14 238.348 142.64L237.688 143.56C237.334 143.213 236.921 143.04 236.448 143.04C236.148 143.04 235.908 143.11 235.728 143.25C235.554 143.39 235.468 143.577 235.468 143.81C235.468 143.93 235.491 144.043 235.538 144.15C235.584 144.25 235.634 144.333 235.688 144.4C235.748 144.467 235.841 144.54 235.968 144.62C236.101 144.7 236.204 144.76 236.278 144.8C236.358 144.833 236.488 144.89 236.668 144.97C236.848 145.05 236.974 145.107 237.048 145.14C237.341 145.273 237.598 145.413 237.818 145.56C238.064 145.707 238.261 145.917 238.408 146.19C238.561 146.463 238.638 146.777 238.638 147.13C238.638 147.717 238.414 148.193 237.968 148.56C237.521 148.927 236.964 149.11 236.298 149.11C235.831 149.11 235.368 149.013 234.908 148.82C234.468 148.62 234.168 148.35 234.008 148.01L234.708 147.17C234.894 147.417 235.134 147.61 235.428 147.75C235.728 147.89 236.024 147.96 236.318 147.96C236.624 147.96 236.871 147.887 237.058 147.74C237.244 147.593 237.338 147.393 237.338 147.14ZM240.075 145.66L239.785 144.82C240.272 144.533 240.802 144.39 241.375 144.39C242.002 144.39 242.458 144.543 242.745 144.85C243.032 145.157 243.175 145.627 243.175 146.26V149H242.175V148.48C241.908 148.867 241.465 149.06 240.845 149.06C240.418 149.06 240.075 148.937 239.815 148.69C239.562 148.437 239.435 148.1 239.435 147.68C239.435 147.213 239.585 146.853 239.885 146.6C240.185 146.347 240.582 146.22 241.075 146.22C241.482 146.22 241.822 146.317 242.095 146.51C242.108 146.11 242.048 145.817 241.915 145.63C241.788 145.443 241.568 145.35 241.255 145.35C240.908 145.35 240.515 145.453 240.075 145.66ZM241.225 148.09C241.612 148.09 241.902 147.953 242.095 147.68V147.22C241.908 147.073 241.645 147 241.305 147C241.092 147 240.918 147.05 240.785 147.15C240.652 147.25 240.585 147.387 240.585 147.56C240.585 147.72 240.645 147.85 240.765 147.95C240.885 148.043 241.038 148.09 241.225 148.09ZM243.764 149.61C243.764 149.257 243.894 148.963 244.154 148.73C244.414 148.49 244.771 148.32 245.224 148.22C245.171 148.127 245.144 148.023 245.144 147.91C245.144 147.783 245.177 147.677 245.244 147.59C244.911 147.457 244.647 147.257 244.454 146.99C244.267 146.717 244.174 146.413 244.174 146.08C244.174 145.62 244.351 145.223 244.704 144.89C245.057 144.557 245.521 144.39 246.094 144.39C246.527 144.39 246.911 144.497 247.244 144.71L248.604 144.41L248.644 145.33L247.894 145.5C247.967 145.7 248.004 145.893 248.004 146.08C248.004 146.533 247.827 146.927 247.474 147.26C247.127 147.58 246.667 147.74 246.094 147.74H246.014C246.001 147.793 245.994 147.85 245.994 147.91C245.994 147.997 246.014 148.073 246.054 148.14H246.104C246.804 148.14 247.367 148.263 247.794 148.51C248.227 148.763 248.444 149.13 248.444 149.61C248.444 150.09 248.227 150.457 247.794 150.71C247.367 150.957 246.804 151.08 246.104 151.08C245.384 151.08 244.814 150.953 244.394 150.7C243.974 150.453 243.764 150.09 243.764 149.61ZM244.834 149.61C244.834 149.783 244.944 149.917 245.164 150.01C245.391 150.11 245.704 150.16 246.104 150.16C246.944 150.16 247.364 149.977 247.364 149.61C247.364 149.443 247.254 149.31 247.034 149.21C246.814 149.11 246.504 149.06 246.104 149.06C245.711 149.06 245.401 149.11 245.174 149.21C244.947 149.31 244.834 149.443 244.834 149.61ZM246.094 146.81C246.341 146.81 246.541 146.743 246.694 146.61C246.854 146.477 246.934 146.3 246.934 146.08C246.934 145.853 246.857 145.67 246.704 145.53C246.551 145.39 246.347 145.32 246.094 145.32C245.841 145.32 245.637 145.393 245.484 145.54C245.331 145.68 245.254 145.86 245.254 146.08C245.254 146.293 245.331 146.47 245.484 146.61C245.637 146.743 245.841 146.81 246.094 146.81ZM252.874 147.74L253.204 148.55C252.757 148.923 252.184 149.11 251.484 149.11C250.764 149.11 250.177 148.893 249.724 148.46C249.284 148.033 249.064 147.463 249.064 146.75C249.064 146.083 249.281 145.523 249.714 145.07C250.147 144.617 250.724 144.39 251.444 144.39C252.037 144.39 252.541 144.587 252.954 144.98C253.367 145.373 253.574 145.873 253.574 146.48C253.574 146.747 253.551 146.953 253.504 147.1H250.254C250.301 147.427 250.444 147.683 250.684 147.87C250.931 148.057 251.237 148.15 251.604 148.15C252.104 148.15 252.527 148.013 252.874 147.74ZM251.394 145.35C250.741 145.35 250.347 145.677 250.214 146.33H252.424C252.431 146.043 252.337 145.81 252.144 145.63C251.957 145.443 251.707 145.35 251.394 145.35Z" fill="#2DAF6B"/>
<path d="M257.014 145.945L258.297 144.346L256.434 143.818L256.785 142.787L258.613 143.514L258.502 141.469H259.639L259.516 143.555L261.309 142.834L261.654 143.883L259.762 144.41L261.004 145.975L260.084 146.619L259.006 144.908L257.934 146.566L257.014 145.945Z" fill="#2DAF6B"/>
<circle cx="259" cy="110" r="7" fill="#BAE5CE"/>
<circle cx="259.001" cy="110" r="3.70588" fill="#2DAF6B"/>
<path d="M259 98L253.804 92L264.196 92L259 98Z" fill="#27548B"/>
<rect x="242" y="61" width="33" height="33" rx="16.5" fill="#27548B"/>
<circle cx="258.5" cy="77.5" r="10.5" fill="#27548B"/>
<path d="M254.078 78.6277C253.717 78.6277 253.363 78.7349 253.062 78.9358C252.762 79.1367 252.528 79.4222 252.389 79.7562C252.251 80.0903 252.215 80.4578 252.285 80.8125C252.356 81.1671 252.53 81.4928 252.785 81.7485C253.041 82.0042 253.367 82.1783 253.721 82.2488C254.076 82.3193 254.444 82.2831 254.778 82.1448C255.112 82.0064 255.397 81.7721 255.598 81.4715C255.799 81.1708 255.906 80.8174 255.906 80.4558C255.906 79.9711 255.713 79.5065 255.37 79.1637C255.027 78.821 254.563 78.6282 254.078 78.6277ZM254.078 81.2996C253.911 81.2996 253.748 81.2501 253.609 81.1574C253.471 81.0647 253.362 80.9329 253.299 80.7787C253.235 80.6245 253.218 80.4549 253.251 80.2912C253.283 80.1275 253.364 79.9772 253.482 79.8592C253.6 79.7412 253.75 79.6608 253.914 79.6283C254.077 79.5957 254.247 79.6124 254.401 79.6763C254.555 79.7401 254.687 79.8483 254.78 79.987C254.872 80.1258 254.922 80.2889 254.922 80.4558C254.922 80.6796 254.833 80.8942 254.675 81.0524C254.517 81.2107 254.302 81.2996 254.078 81.2996Z" fill="#E8ECF1"/>
<path d="M264.203 78.6277C263.842 78.6277 263.488 78.7349 263.187 78.9358C262.887 79.1367 262.653 79.4222 262.514 79.7562C262.376 80.0903 262.34 80.4578 262.41 80.8125C262.481 81.1671 262.655 81.4928 262.91 81.7485C263.166 82.0042 263.492 82.1783 263.846 82.2488C264.201 82.3193 264.569 82.2831 264.903 82.1448C265.237 82.0064 265.522 81.7721 265.723 81.4715C265.924 81.1708 266.031 80.8174 266.031 80.4558C266.031 79.9711 265.838 79.5065 265.495 79.1637C265.152 78.821 264.688 78.6282 264.203 78.6277ZM264.203 81.2996C264.036 81.2996 263.873 81.2501 263.734 81.1574C263.596 81.0647 263.487 80.9329 263.424 80.7787C263.36 80.6245 263.343 80.4549 263.376 80.2912C263.408 80.1275 263.489 79.9772 263.607 79.8592C263.725 79.7412 263.875 79.6608 264.039 79.6283C264.202 79.5957 264.372 79.6124 264.526 79.6763C264.68 79.7401 264.812 79.8483 264.905 79.987C264.997 80.1258 265.047 80.2889 265.047 80.4558C265.047 80.6796 264.958 80.8942 264.8 81.0524C264.642 81.2107 264.427 81.2996 264.203 81.2996Z" fill="#E8ECF1"/>
<path d="M266.643 77.1174L263.359 76.5183L260.564 74.1989C260.287 73.9713 259.94 73.8468 259.581 73.8464H255.463C255.23 73.8459 255.001 73.8978 254.792 73.9984C254.583 74.0989 254.399 74.2454 254.255 74.427L252.469 76.5183H251.266C250.93 76.5187 250.608 76.6521 250.371 76.8894C250.134 77.1267 250 77.4484 250 77.7839V79.3308C250 79.7409 250.164 80.1341 250.454 80.4241C250.744 80.7141 251.137 80.8772 251.547 80.8777H251.868C251.806 80.5522 251.816 80.217 251.898 79.896C251.981 79.575 252.133 79.276 252.344 79.0206C252.555 78.7652 252.82 78.5595 253.12 78.4184C253.419 78.2772 253.747 78.204 254.078 78.204C254.41 78.204 254.737 78.2772 255.037 78.4184C255.336 78.5595 255.601 78.7652 255.812 79.0206C256.024 79.276 256.176 79.575 256.258 79.896C256.34 80.217 256.35 80.5522 256.288 80.8777H261.993C261.931 80.5522 261.941 80.217 262.023 79.896C262.106 79.575 262.258 79.276 262.469 79.0206C262.68 78.7652 262.945 78.5595 263.245 78.4184C263.544 78.2772 263.872 78.204 264.203 78.204C264.535 78.204 264.862 78.2772 265.162 78.4184C265.461 78.5595 265.726 78.7652 265.937 79.0206C266.149 79.276 266.301 79.575 266.383 79.896C266.465 80.217 266.475 80.5522 266.413 80.8777H266.453C266.789 80.8773 267.11 80.7439 267.348 80.5066C267.585 80.2693 267.718 79.9476 267.719 79.6121V78.3687C267.72 78.0655 267.612 77.7719 267.415 77.542C267.217 77.3121 266.943 77.1613 266.643 77.1174ZM256.188 76.0964C256.188 76.2083 256.143 76.3156 256.064 76.3948C255.985 76.4739 255.878 76.5183 255.766 76.5183H253.911C253.871 76.5183 253.831 76.5068 253.797 76.4851C253.763 76.4633 253.736 76.4323 253.719 76.3957C253.702 76.359 253.696 76.3183 253.702 76.2784C253.707 76.2384 253.724 76.2009 253.751 76.1703L254.978 74.7324C255.018 74.686 255.067 74.6488 255.122 74.6234C255.178 74.5979 255.238 74.5847 255.299 74.5847H255.766C255.878 74.5847 255.985 74.6292 256.064 74.7083C256.143 74.7874 256.188 74.8947 256.188 75.0066V76.0964ZM258.297 78.0652H257.734C257.622 78.0652 257.515 78.0207 257.436 77.9416C257.357 77.8625 257.312 77.7552 257.312 77.6433C257.312 77.5314 257.357 77.4241 257.436 77.345C257.515 77.2659 257.622 77.2214 257.734 77.2214H258.297C258.409 77.2214 258.516 77.2659 258.595 77.345C258.674 77.4241 258.719 77.5314 258.719 77.6433C258.719 77.7552 258.674 77.8625 258.595 77.9416C258.516 78.0207 258.409 78.0652 258.297 78.0652ZM261.618 76.5287L257.593 76.5193C257.481 76.519 257.374 76.4745 257.295 76.3954C257.216 76.3163 257.172 76.2091 257.172 76.0974V75.0066C257.172 74.8947 257.216 74.7874 257.295 74.7083C257.375 74.6292 257.482 74.5847 257.594 74.5847H259.617C259.712 74.5847 259.804 74.6167 259.878 74.6754L261.75 76.152C261.784 76.1791 261.809 76.2164 261.822 76.2585C261.834 76.3007 261.833 76.3456 261.818 76.3871C261.804 76.4285 261.777 76.4645 261.741 76.4898C261.705 76.5152 261.662 76.5288 261.618 76.5287Z" fill="#E8ECF1"/>
<circle cx="295" cy="77" r="7" fill="#BAE5CE"/>
<circle cx="294.999" cy="77.0008" r="3.70588" fill="#2DAF6B"/>
<path d="M295 65L289.804 59L300.196 59L295 65Z" fill="#27548B"/>
<rect x="278" y="28" width="33" height="33" rx="16.5" fill="#27548B"/>
<path d="M286.776 44.6673L294.251 44.3709L298.799 39.1177L303.146 45.6309L304 45.5082L298.887 38.2464L293.665 39.2133V38.2852L293.235 38.1963L291.939 38.4702V39.5328L290.198 39.8557L286 43.6689V44.6729C286 44.6729 286.429 44.6622 286.776 44.6673Z" fill="#E8ECF1"/>
<path d="M298.771 39.5674L294.381 44.6389L287.213 44.9241V51.0103L293.799 51.8012V51.8034L297.916 51.3231V46.5812L299.81 46.5784V51.1014L302.845 50.7296V45.6728L298.771 39.5674ZM290.009 49.1113L288.101 48.9881V46.5525L290.009 46.5536V49.1113ZM293.236 49.3059L291.017 49.1636V46.5424L293.236 46.5429V49.3059ZM296.981 49.1923L294.638 49.3459V46.5671L296.981 46.5654V49.1923ZM302.297 48.8593L300.528 48.9758V46.5711L302.297 46.5688V48.8593Z" fill="#E8ECF1"/>
<circle cx="334" cy="49" r="7" fill="#BAE5CE"/>
<circle cx="334.001" cy="48.9998" r="3.70588" fill="#2DAF6B"/>
<path d="M334 37L328.804 31L339.196 31L334 37Z" fill="#27548B"/>
<rect x="317" width="33" height="33" rx="16.5" fill="#27548B"/>
<path d="M333.501 13.3406C334.065 13.3406 334.611 13.0783 334.985 12.6282C335.363 12.1738 335.541 11.5569 335.469 10.9544C335.398 10.3635 335.088 9.82255 334.63 9.48343C334.16 9.13598 333.558 9.0224 333.005 9.17442C332.467 9.32201 332.003 9.71471 331.745 10.2382C331.478 10.7783 331.444 11.4325 331.654 12.0006C331.858 12.5501 332.279 12.9934 332.796 13.2033C333.021 13.2943 333.261 13.3406 333.501 13.3406Z" fill="#E8ECF1"/>
<path d="M338.423 9.11259C338.155 8.9142 337.788 8.98487 337.602 9.27041C337.602 9.27041 335.759 12.2671 335.127 13.0696C334.656 13.6683 334.207 13.8355 333.53 13.7357C333.195 13.6864 329.054 12.5881 329.054 12.5881C328.763 12.5132 328.458 12.6911 328.359 12.9916C328.263 13.2818 328.384 13.6133 328.64 13.7568C328.663 13.7699 328.687 13.7813 328.712 13.791L333.204 15.5547C333.23 15.6372 333.45 16.2729 333.575 16.9383C333.655 17.3616 333.688 17.7929 333.711 18.2235C333.727 18.5254 333.723 18.8275 333.72 19.1297C333.716 19.4412 333.764 19.7459 333.88 20.033C333.87 20.4264 333.851 20.8196 333.82 21.2117C333.785 21.6407 333.722 22.0672 333.656 22.4923C333.573 23.0295 333.443 23.2359 333.434 23.2499C333.273 23.315 333.078 23.2927 332.911 23.2693C332.712 23.2414 332.515 23.1912 332.323 23.1309C332.153 23.078 331.986 23.0167 331.821 22.949C331.69 22.8951 331.563 22.8336 331.434 22.7751C331.373 22.7479 331.314 22.7178 331.248 22.7025C331.18 22.6868 331.11 22.6817 331.041 22.6874C330.903 22.6986 330.77 22.7521 330.66 22.8402C330.431 23.0245 330.325 23.3465 330.395 23.6433C330.444 23.8534 330.577 24.0343 330.757 24.1358C331.332 24.4718 331.948 24.76 332.592 24.909C332.94 24.9896 333.302 25.0293 333.657 24.9749C334.025 24.9184 334.376 24.7535 334.643 24.4737C334.707 24.407 334.766 24.3336 334.819 24.2567C334.819 24.257 334.819 24.2572 334.819 24.2574C334.818 24.2584 334.817 24.2595 334.817 24.2605C334.846 24.2089 334.883 24.1614 334.913 24.1108C334.965 24.0248 335.014 23.936 335.058 23.8452C335.147 23.6634 335.224 23.4746 335.292 23.2828C335.428 22.8977 335.533 22.5006 335.623 22.1008C335.683 21.8383 335.736 21.5742 335.784 21.3091C335.884 21.3044 335.983 21.292 336.081 21.2715C336.259 21.6595 336.424 22.0546 336.564 22.4601C336.19 22.6161 336.006 23.0867 336.166 23.4807C336.273 23.7474 336.404 24.0022 336.588 24.2189C336.788 24.4544 337.041 24.6373 337.331 24.7221C337.489 24.7686 337.655 24.7842 337.817 24.7576C338.143 24.703 338.416 24.4324 338.474 24.0662C338.599 23.2778 338.479 22.4719 338.31 21.7012C338.217 21.2836 338.105 20.871 337.98 20.4634C337.899 20.1965 337.814 19.9293 337.715 19.6687C337.696 19.617 337.677 19.5648 337.657 19.5136C337.681 19.3403 337.683 19.1665 337.669 18.9921C337.656 18.8178 337.645 18.643 337.628 18.469C337.588 18.0573 337.534 17.6461 337.462 17.2395C337.31 16.3926 337.097 15.5558 336.785 14.7596C336.7 14.5433 336.608 14.3301 336.507 14.1223L338.607 9.92626C338.747 9.64824 338.672 9.29681 338.423 9.11259C338.672 9.29681 338.155 8.9142 338.423 9.11259Z" fill="#E8ECF1"/>
<path d="M2.964 227.12C2.372 227.12 1.852 226.996 1.404 226.748C0.964 226.5 0.636 226.144 0.42 225.68L0.972 224.996C1.172 225.372 1.448 225.66 1.8 225.86C2.152 226.06 2.528 226.16 2.928 226.16C3.44 226.16 3.844 226.02 4.14 225.74C4.436 225.452 4.584 225.088 4.584 224.648C4.584 224.2 4.424 223.844 4.104 223.58C3.792 223.316 3.38 223.184 2.868 223.184H2.208V222.224H2.808C3.192 222.224 3.528 222.088 3.816 221.816C4.112 221.536 4.26 221.188 4.26 220.772C4.26 220.356 4.136 220.032 3.888 219.8C3.648 219.56 3.316 219.44 2.892 219.44C2.14 219.44 1.564 219.788 1.164 220.484L0.624 219.824C0.816 219.4 1.116 219.072 1.524 218.84C1.94 218.6 2.42 218.48 2.964 218.48C3.668 218.48 4.228 218.672 4.644 219.056C5.068 219.432 5.28 219.948 5.28 220.604C5.28 221.068 5.168 221.476 4.944 221.828C4.72 222.18 4.396 222.444 3.972 222.62V222.656C4.476 222.736 4.872 222.968 5.16 223.352C5.456 223.728 5.604 224.172 5.604 224.684C5.604 225.42 5.356 226.012 4.86 226.46C4.364 226.9 3.732 227.12 2.964 227.12ZM7.73072 225.944C7.27472 225.168 7.04672 224.12 7.04672 222.8C7.04672 221.48 7.27072 220.436 7.71872 219.668C8.17472 218.892 8.85872 218.504 9.77072 218.504C10.6827 218.504 11.3627 218.892 11.8107 219.668C12.2667 220.436 12.4947 221.48 12.4947 222.8C12.4947 224.128 12.2707 225.176 11.8227 225.944C11.3827 226.712 10.7067 227.096 9.79472 227.096C8.88272 227.096 8.19472 226.712 7.73072 225.944ZM9.77072 219.404C8.63472 219.404 8.06672 220.536 8.06672 222.8C8.06672 225.064 8.64272 226.196 9.79472 226.196C10.3867 226.196 10.8147 225.912 11.0787 225.344C11.3427 224.776 11.4747 223.928 11.4747 222.8C11.4747 221.68 11.3387 220.836 11.0667 220.268C10.7947 219.692 10.3627 219.404 9.77072 219.404ZM14.5042 225.944C14.0482 225.168 13.8202 224.12 13.8202 222.8C13.8202 221.48 14.0442 220.436 14.4922 219.668C14.9482 218.892 15.6322 218.504 16.5442 218.504C17.4562 218.504 18.1362 218.892 18.5842 219.668C19.0402 220.436 19.2682 221.48 19.2682 222.8C19.2682 224.128 19.0442 225.176 18.5962 225.944C18.1562 226.712 17.4802 227.096 16.5682 227.096C15.6562 227.096 14.9682 226.712 14.5042 225.944ZM16.5442 219.404C15.4082 219.404 14.8402 220.536 14.8402 222.8C14.8402 225.064 15.4162 226.196 16.5682 226.196C17.1602 226.196 17.5882 225.912 17.8522 225.344C18.1162 224.776 18.2482 223.928 18.2482 222.8C18.2482 221.68 18.1122 220.836 17.8402 220.268C17.5682 219.692 17.1362 219.404 16.5442 219.404Z" fill="#E8ECF1" fill-opacity="0.46"/>
<path d="M1.188 149.824L1.716 145.6H5.508V146.56H2.556L2.244 148.828C2.452 148.772 2.676 148.744 2.916 148.744C3.692 148.744 4.328 148.984 4.824 149.464C5.32 149.936 5.568 150.564 5.568 151.348C5.568 152.188 5.304 152.86 4.776 153.364C4.248 153.868 3.6 154.12 2.832 154.12C2.352 154.12 1.888 154.012 1.44 153.796C1 153.58 0.66 153.264 0.42 152.848L0.972 152.14C1.172 152.46 1.444 152.712 1.788 152.896C2.14 153.072 2.496 153.16 2.856 153.16C3.336 153.16 3.736 152.992 4.056 152.656C4.384 152.32 4.548 151.896 4.548 151.384C4.548 150.872 4.36 150.448 3.984 150.112C3.616 149.776 3.124 149.608 2.508 149.608C1.996 149.608 1.556 149.68 1.188 149.824ZM7.5315 152.944C7.0755 152.168 6.8475 151.12 6.8475 149.8C6.8475 148.48 7.0715 147.436 7.5195 146.668C7.9755 145.892 8.6595 145.504 9.5715 145.504C10.4835 145.504 11.1635 145.892 11.6115 146.668C12.0675 147.436 12.2955 148.48 12.2955 149.8C12.2955 151.128 12.0715 152.176 11.6235 152.944C11.1835 153.712 10.5075 154.096 9.5955 154.096C8.6835 154.096 7.9955 153.712 7.5315 152.944ZM9.5715 146.404C8.4355 146.404 7.8675 147.536 7.8675 149.8C7.8675 152.064 8.4435 153.196 9.5955 153.196C10.1875 153.196 10.6155 152.912 10.8795 152.344C11.1435 151.776 11.2755 150.928 11.2755 149.8C11.2755 148.68 11.1395 147.836 10.8675 147.268C10.5955 146.692 10.1635 146.404 9.5715 146.404ZM14.3049 152.944C13.8489 152.168 13.6209 151.12 13.6209 149.8C13.6209 148.48 13.8449 147.436 14.2929 146.668C14.7489 145.892 15.4329 145.504 16.3449 145.504C17.2569 145.504 17.9369 145.892 18.3849 146.668C18.8409 147.436 19.0689 148.48 19.0689 149.8C19.0689 151.128 18.8449 152.176 18.3969 152.944C17.9569 153.712 17.2809 154.096 16.3689 154.096C15.4569 154.096 14.7689 153.712 14.3049 152.944ZM16.3449 146.404C15.2089 146.404 14.6409 147.536 14.6409 149.8C14.6409 152.064 15.2169 153.196 16.3689 153.196C16.9609 153.196 17.3889 152.912 17.6529 152.344C17.9169 151.776 18.0489 150.928 18.0489 149.8C18.0489 148.68 17.9129 147.836 17.6409 147.268C17.3689 146.692 16.9369 146.404 16.3449 146.404Z" fill="#E8ECF1" fill-opacity="0.46"/>
<path d="M3.42 75.2H3.732C4.092 75.2 4.404 75.064 4.668 74.792C4.94 74.52 5.076 74.196 5.076 73.82C5.076 73.396 4.928 73.06 4.632 72.812C4.336 72.564 3.976 72.44 3.552 72.44C3.128 72.44 2.772 72.568 2.484 72.824C2.204 73.08 2.064 73.412 2.064 73.82C2.064 74.196 2.2 74.52 2.472 74.792C2.744 75.064 3.06 75.2 3.42 75.2ZM3.72 76.16H3.456C3 76.16 2.608 76.3 2.28 76.58C1.96 76.86 1.8 77.216 1.8 77.648C1.8 78.088 1.964 78.452 2.292 78.74C2.628 79.02 3.052 79.16 3.564 79.16C4.1 79.16 4.528 79.024 4.848 78.752C5.176 78.472 5.34 78.104 5.34 77.648C5.332 77.192 5.172 76.832 4.86 76.568C4.556 76.296 4.176 76.16 3.72 76.16ZM5.556 79.484C5.02 79.908 4.36 80.12 3.576 80.12C2.792 80.12 2.128 79.912 1.584 79.496C1.048 79.08 0.78 78.524 0.78 77.828C0.78 77.316 0.924 76.868 1.212 76.484C1.508 76.1 1.892 75.84 2.364 75.704V75.668C1.988 75.54 1.672 75.292 1.416 74.924C1.168 74.548 1.044 74.132 1.044 73.676C1.044 73.028 1.284 72.5 1.764 72.092C2.252 71.684 2.852 71.48 3.564 71.48C4.276 71.48 4.876 71.684 5.364 72.092C5.852 72.5 6.096 73.028 6.096 73.676C6.096 74.092 5.972 74.484 5.724 74.852C5.476 75.22 5.14 75.488 4.716 75.656V75.692C5.188 75.772 5.58 76 5.892 76.376C6.204 76.752 6.36 77.212 6.36 77.756C6.36 78.484 6.092 79.06 5.556 79.484ZM8.48072 78.944C8.02472 78.168 7.79672 77.12 7.79672 75.8C7.79672 74.48 8.02072 73.436 8.46872 72.668C8.92472 71.892 9.60872 71.504 10.5207 71.504C11.4327 71.504 12.1127 71.892 12.5607 72.668C13.0167 73.436 13.2447 74.48 13.2447 75.8C13.2447 77.128 13.0207 78.176 12.5727 78.944C12.1327 79.712 11.4567 80.096 10.5447 80.096C9.63272 80.096 8.94472 79.712 8.48072 78.944ZM10.5207 72.404C9.38472 72.404 8.81672 73.536 8.81672 75.8C8.81672 78.064 9.39272 79.196 10.5447 79.196C11.1367 79.196 11.5647 78.912 11.8287 78.344C12.0927 77.776 12.2247 76.928 12.2247 75.8C12.2247 74.68 12.0887 73.836 11.8167 73.268C11.5447 72.692 11.1127 72.404 10.5207 72.404ZM15.2542 78.944C14.7982 78.168 14.5702 77.12 14.5702 75.8C14.5702 74.48 14.7942 73.436 15.2422 72.668C15.6982 71.892 16.3822 71.504 17.2942 71.504C18.2062 71.504 18.8862 71.892 19.3342 72.668C19.7902 73.436 20.0182 74.48 20.0182 75.8C20.0182 77.128 19.7942 78.176 19.3462 78.944C18.9062 79.712 18.2302 80.096 17.3182 80.096C16.4062 80.096 15.7182 79.712 15.2542 78.944ZM17.2942 72.404C16.1582 72.404 15.5902 73.536 15.5902 75.8C15.5902 78.064 16.1662 79.196 17.3182 79.196C17.9102 79.196 18.3382 78.912 18.6022 78.344C18.8662 77.776 18.9982 76.928 18.9982 75.8C18.9982 74.68 18.8622 73.836 18.5902 73.268C18.3182 72.692 17.8862 72.404 17.2942 72.404Z" fill="#E8ECF1" fill-opacity="0.46"/>
<defs>
<clipPath id="clip0_101_1247">
<rect width="325" height="230" fill="white" transform="translate(25)"/>
</clipPath>
</defs>
</svg>
