<svg width="332" height="47" viewBox="0 0 332 47" fill="none" xmlns="http://www.w3.org/2000/svg">
<path fill-rule="evenodd" clip-rule="evenodd" d="M44.0193 22.583C43.0298 23.5233 41.6907 24.103 40.2162 24.103C37.1645 24.103 34.6904 21.6275 34.6904 18.5751C34.6904 15.5233 37.1645 13.0492 40.2162 13.0492C41.6711 13.0492 42.9929 13.6116 43.9809 14.5309C44.4435 13.3177 45.1109 12.2066 45.9404 11.2389C44.3617 10.0054 42.3755 9.26709 40.2162 9.26709C35.0747 9.26709 30.9083 13.435 30.9083 18.5751C30.9083 23.7158 35.0747 27.883 40.2162 27.883C42.4088 27.883 44.4225 27.1237 46.0128 25.8563C45.1731 24.8956 44.4942 23.7903 44.0193 22.583ZM25.6693 27.7122H29.5339V9.67832H25.6693V27.7122ZM24.4643 9.67899V13.5436H15.4474V17.4082H23.1766V21.2721H15.4474V27.7129H11.582V9.67899H24.4643ZM48.8626 18.5847C48.8626 21.6371 51.3382 24.1112 54.3907 24.1112C57.4431 24.1112 59.9172 21.6371 59.9172 18.5847C59.9172 15.5321 57.4431 13.058 54.3907 13.058C51.3382 13.058 48.8626 15.5321 48.8626 18.5847ZM45.0828 18.5847C45.0828 13.4446 49.2477 9.27669 54.3907 9.27669C59.5329 9.27669 63.6994 13.4446 63.6994 18.5847C63.6994 23.7254 59.5329 27.8933 54.3907 27.8933C49.2477 27.8933 45.0828 23.7254 45.0828 18.5847ZM60.5915 26.4574V26.1708H61.8626V26.4574H61.3979V27.7213H61.0569V26.4574H60.5915ZM62.872 27.2375L62.5094 26.1712H62.0294V27.7217H62.3494V26.6337H62.353L62.733 27.7217H62.9957L63.375 26.6221H63.3802V27.7217H63.6987V26.1712H63.2202L62.8764 27.2375H62.872Z" fill="#1F3D60" fill-opacity="0.7"/>
<path d="M15.3419 32.8102C15.3419 33.1058 15.2741 33.3771 15.1384 33.6243C15.0027 33.8665 14.7944 34.0628 14.5133 34.2131C14.2323 34.3632 13.8833 34.4383 13.4666 34.4383H12.6962V36.27H11.4532V31.1675H13.4666C13.8737 31.1675 14.2177 31.2378 14.4987 31.3783C14.7799 31.5188 14.9906 31.7126 15.1311 31.9598C15.2717 32.2069 15.3419 32.4904 15.3419 32.8102ZM13.3722 33.4498C13.6096 33.4498 13.7865 33.3941 13.9028 33.2826C14.0191 33.1712 14.0772 33.0137 14.0772 32.8102C14.0772 32.6067 14.0191 32.4492 13.9028 32.3377C13.7865 32.2263 13.6096 32.1705 13.3722 32.1705H12.6962V33.4498H13.3722Z" fill="#1F3D60" fill-opacity="0.7"/>
<path d="M18.5904 36.27L17.5292 34.3439H17.2312V36.27H15.9883V31.1675H18.0744C18.4765 31.1675 18.8182 31.2378 19.0992 31.3783C19.3851 31.5188 19.5983 31.7126 19.7389 31.9598C19.8794 32.2021 19.9496 32.4734 19.9496 32.7739C19.9496 33.113 19.8528 33.4159 19.6589 33.6825C19.4699 33.9489 19.1889 34.1379 18.8158 34.2494L19.9932 36.27H18.5904ZM17.2312 33.4644H18.0017C18.2294 33.4644 18.399 33.4086 18.5105 33.2972C18.6268 33.1858 18.6849 33.0283 18.6849 32.8247C18.6849 32.6309 18.6268 32.4783 18.5105 32.3669C18.399 32.2553 18.2294 32.1997 18.0017 32.1997H17.2312V33.4644Z" fill="#1F3D60" fill-opacity="0.7"/>
<path d="M23.1435 36.3203C22.6637 36.3203 22.2228 36.2088 21.8206 35.9859C21.4232 35.763 21.1058 35.4529 20.8684 35.0556C20.6358 34.6534 20.5195 34.2027 20.5195 33.7036C20.5195 33.2045 20.6358 32.7563 20.8684 32.359C21.1058 31.9616 21.4232 31.6515 21.8206 31.4285C22.2228 31.2057 22.6637 31.0942 23.1435 31.0942C23.6232 31.0942 24.0617 31.2057 24.4591 31.4285C24.8612 31.6515 25.1762 31.9616 25.404 32.359C25.6365 32.7563 25.7528 33.2045 25.7528 33.7036C25.7528 34.2027 25.6365 34.6534 25.404 35.0556C25.1713 35.4529 24.8564 35.763 24.4591 35.9859C24.0617 36.2088 23.6232 36.3203 23.1435 36.3203ZM23.1435 35.1864C23.5505 35.1864 23.8752 35.0507 24.1174 34.7794C24.3646 34.508 24.4881 34.1494 24.4881 33.7036C24.4881 33.253 24.3646 32.8944 24.1174 32.6279C23.8752 32.3565 23.5505 32.2208 23.1435 32.2208C22.7316 32.2208 22.4021 32.3541 22.1549 32.6206C21.9126 32.8871 21.7915 33.2481 21.7915 33.7036C21.7915 34.1543 21.9126 34.5152 22.1549 34.7867C22.4021 35.0531 22.7316 35.1864 23.1435 35.1864Z" fill="#1F3D60" fill-opacity="0.7"/>
<path d="M27.7734 33.7111C27.7734 33.2071 27.8825 32.7589 28.1005 32.3664C28.3186 31.969 28.6215 31.6613 29.0091 31.4433C29.4016 31.2204 29.845 31.1089 30.3392 31.1089C30.9449 31.1089 31.4635 31.2688 31.8947 31.5886C32.326 31.9084 32.6143 32.3446 32.7596 32.8969H31.3931C31.2914 32.6838 31.146 32.5214 30.9571 32.41C30.7729 32.2986 30.5622 32.2428 30.3247 32.2428C29.9419 32.2428 29.6317 32.3761 29.3943 32.6426C29.1569 32.9091 29.0382 33.2652 29.0382 33.7111C29.0382 34.1569 29.1569 34.513 29.3943 34.7796C29.6317 35.046 29.9419 35.1793 30.3247 35.1793C30.5622 35.1793 30.7729 35.1236 30.9571 35.0121C31.146 34.9007 31.2914 34.7384 31.3931 34.5252H32.7596C32.6143 35.0775 32.326 35.5137 31.8947 35.8335C31.4635 36.1484 30.9449 36.3059 30.3392 36.3059C29.845 36.3059 29.4016 36.1969 29.0091 35.9788C28.6215 35.756 28.3186 35.4482 28.1005 35.0558C27.8825 34.6632 27.7734 34.215 27.7734 33.7111Z" fill="#1F3D60" fill-opacity="0.7"/>
<path d="M34.7645 32.1633V33.1954H36.4289V34.1549H34.7645V35.2742H36.647V36.27H33.5215V31.1675H36.647V32.1633H34.7645Z" fill="#1F3D60" fill-opacity="0.7"/>
<path d="M40.0553 36.27L38.9941 34.3439H38.696V36.27H37.4531V31.1675H39.5392C39.9414 31.1675 40.283 31.2378 40.5641 31.3783C40.85 31.5188 41.0631 31.7126 41.2037 31.9598C41.3442 32.2021 41.4145 32.4734 41.4145 32.7739C41.4145 33.113 41.3175 33.4159 41.1237 33.6825C40.9348 33.9489 40.6537 34.1379 40.2806 34.2494L41.4581 36.27H40.0553ZM38.696 33.4644H39.4665C39.6943 33.4644 39.8639 33.4086 39.9753 33.2972C40.0916 33.1858 40.1498 33.0283 40.1498 32.8247C40.1498 32.6309 40.0916 32.4783 39.9753 32.3669C39.8639 32.2553 39.6943 32.1997 39.4665 32.1997H38.696V33.4644Z" fill="#1F3D60" fill-opacity="0.7"/>
<path d="M45.8668 31.1675V32.1633H44.5148V36.27H43.2719V32.1633H41.9199V31.1675H45.8668Z" fill="#1F3D60" fill-opacity="0.7"/>
<path d="M47.7331 31.1675V36.27H46.4902V31.1675H47.7331Z" fill="#1F3D60" fill-opacity="0.7"/>
<path d="M51.9545 31.1675V32.1633H49.8758V33.239H51.4312V34.2058H49.8758V36.27H48.6328V31.1675H51.9545Z" fill="#1F3D60" fill-opacity="0.7"/>
<path d="M53.8523 31.1675V36.27H52.6094V31.1675H53.8523Z" fill="#1F3D60" fill-opacity="0.7"/>
<path d="M55.9952 32.1633V33.1954H57.6596V34.1549H55.9952V35.2742H57.8777V36.27H54.7522V31.1675H57.8777V32.1633H55.9952Z" fill="#1F3D60" fill-opacity="0.7"/>
<path d="M60.5952 31.1675C61.1331 31.1675 61.6031 31.2741 62.0053 31.4873C62.4075 31.7006 62.7177 32.001 62.9357 32.3886C63.1586 32.7715 63.27 33.2148 63.27 33.7188C63.27 34.2179 63.1586 34.6613 62.9357 35.0489C62.7177 35.4366 62.4051 35.737 61.998 35.9502C61.5959 36.1634 61.1283 36.27 60.5952 36.27H58.6836V31.1675H60.5952ZM60.5152 35.1943C60.9853 35.1943 61.3511 35.0659 61.6129 34.809C61.8745 34.5522 62.0053 34.1888 62.0053 33.7188C62.0053 33.2487 61.8745 32.8829 61.6129 32.6212C61.3511 32.3596 60.9853 32.2287 60.5152 32.2287H59.9266V35.1943H60.5152Z" fill="#1F3D60" fill-opacity="0.7"/>
<path d="M123.48 19.5949C123.48 19.7385 122.316 22.8122 122.254 22.8361C122.221 22.8505 121.996 22.7595 121.751 22.6446C121.239 22.4004 120.756 22.2759 120.291 22.2807C119.707 22.2807 119.061 22.4961 118.802 22.7739C118.692 22.8936 118.692 22.8984 118.663 24.6554C118.635 26.398 118.692 28.5237 118.793 29.3759C118.874 30.1036 119.07 30.4627 119.468 30.6302C119.602 30.6877 120.444 30.8026 120.717 30.8026C120.736 30.8026 120.751 30.9702 120.741 31.176L120.727 31.5495L117.184 31.559C115.235 31.5638 113.613 31.5542 113.579 31.5303C113.536 31.5016 113.522 31.3915 113.531 31.1617L113.545 30.8313L113.713 30.7978C113.804 30.7786 114.005 30.7403 114.153 30.7116C114.618 30.6254 114.881 30.3717 115.034 29.8786C115.159 29.4764 115.212 28.1934 115.212 25.6129C115.216 22.4579 115.149 21.7158 114.829 21.2897C114.656 21.0599 114.532 20.9977 114.11 20.9163C113.905 20.878 113.684 20.8349 113.627 20.8205C113.531 20.8014 113.522 20.7679 113.522 20.5333C113.522 20.3035 113.536 20.2652 113.627 20.2269C113.77 20.1695 118.515 19.2215 118.663 19.2215H118.783L118.759 19.93C118.745 20.3179 118.726 20.8828 118.716 21.1844L118.692 21.735L118.864 21.4238C119.415 20.4328 120.033 19.8151 120.851 19.4417C121.301 19.2359 121.603 19.1736 122.158 19.1736C122.819 19.1641 123.48 19.3795 123.48 19.5949ZM113.431 27.0875C112.937 29.4046 111.501 31.0181 109.395 31.6308C109.17 31.6979 108.815 31.7745 108.614 31.8032C108.183 31.8606 106.872 31.8606 106.46 31.8032C105.301 31.6356 104.282 31.1425 103.506 30.3765C102.86 29.735 102.438 29.0312 102.132 28.0641C101.648 26.556 101.648 24.6171 102.132 23.1425C102.601 21.711 103.65 20.4663 104.942 19.8199C106.728 18.9247 109.237 18.9821 110.888 19.9539C112.377 20.8301 113.277 22.386 113.526 24.507C113.603 25.1532 113.55 26.5225 113.431 27.0875ZM108.624 20.428C108.169 20.0162 107.46 19.8821 106.948 20.1072C106.201 20.4376 105.723 21.4238 105.498 23.0851C105.335 24.2724 105.354 26.6901 105.531 27.7768C105.809 29.4908 106.369 30.5775 107.154 30.9319C107.47 31.0755 108.049 31.0659 108.38 30.9128C109.285 30.4914 109.768 29.2801 109.926 27.0444C110.146 23.942 109.639 21.3423 108.624 20.428ZM134.979 23.4968C135.104 24.0665 135.152 25.4836 135.066 26.1922C134.994 26.7954 134.793 27.6141 134.587 28.1407C133.797 30.1371 132.107 31.4393 129.861 31.7792C129.344 31.8558 127.721 31.8654 127.022 31.7984C126.548 31.7505 125.098 31.5064 124.59 31.3915L124.241 31.3101L124.27 29.4381C124.337 24.9283 124.341 22.4674 124.303 20.0737C124.26 17.7278 124.25 17.4788 124.159 17.1341C124.045 16.6937 123.882 16.3873 123.681 16.2484C123.604 16.1958 123.393 16.1144 123.216 16.0761C122.618 15.942 122.651 15.9659 122.637 15.693C122.627 15.5351 122.647 15.4345 122.685 15.401C122.728 15.3531 127.616 14.4195 127.774 14.4243C127.817 14.4243 127.827 15.0515 127.803 17.2011C127.788 18.7284 127.784 19.9779 127.798 19.9779C127.812 19.9779 127.989 19.9013 128.195 19.8055C128.813 19.5183 129.383 19.3986 130.206 19.3699C130.757 19.3508 131.011 19.3651 131.293 19.4226C133.136 19.8008 134.501 21.3136 134.979 23.4968ZM131.432 23.9037C131.135 22.2424 130.565 21.2322 129.704 20.8205C129.273 20.6147 128.665 20.5907 128.1 20.7535L127.717 20.8636L127.674 22.3717C127.621 24.2724 127.707 30.7739 127.788 30.8696C127.817 30.9032 127.922 30.9415 128.018 30.9511C128.449 30.9989 128.937 30.9798 129.162 30.9128C129.512 30.8074 129.962 30.4914 130.235 30.1515C130.79 29.4573 131.192 28.3801 131.413 26.9822C131.518 26.3214 131.532 24.4447 131.432 23.9037ZM96.2432 16.0521H97.7513C99.4844 16.0521 99.7669 16.0904 100.38 16.3873C101.27 16.8229 101.916 17.6847 102.486 19.188C102.716 19.796 102.716 19.796 103.228 19.6428L103.568 19.5375L103.535 17.3304C103.516 16.1144 103.492 15.0372 103.472 14.9319L103.444 14.7404L96.8369 14.726C93.2031 14.7164 90.1582 14.7212 90.0721 14.7356L89.9141 14.7643L89.9284 15.1569L89.9428 15.5494L90.4455 15.6117C91.0966 15.6882 91.4892 15.8749 91.719 16.2102C92.2408 16.9713 92.3366 18.0055 92.3318 22.9223C92.3318 28.1599 92.2217 29.4333 91.719 30.094C91.4604 30.4339 91.2498 30.544 90.6609 30.6541C89.8949 30.7978 89.9189 30.7786 89.9189 31.176C89.9189 31.3963 89.938 31.5159 89.9763 31.5303C90.0625 31.5638 98.5125 31.5686 98.6035 31.5351C98.7184 31.492 98.7136 30.8649 98.5939 30.8074C98.546 30.7834 98.2636 30.726 97.962 30.6829C97.6603 30.6398 97.3252 30.5632 97.2199 30.5153C96.6645 30.276 96.3581 29.6105 96.2432 28.4041C96.1618 27.5375 96.0948 25.948 96.0948 24.7703V23.6883L96.6119 23.7026C97.7082 23.7361 98.2732 23.7936 98.503 23.8941C99.0008 24.1144 99.3983 24.7272 99.6089 25.5794L99.719 26.0342L100.112 26.0486L100.504 26.0629V23.1856V20.3083L100.112 20.3227L99.719 20.337L99.6041 20.7918C99.3839 21.6728 99.02 22.2137 98.4934 22.4579C98.278 22.5584 98.1248 22.5871 97.6076 22.6158C97.263 22.635 96.7842 22.6541 96.54 22.6541L96.0996 22.6589V21.2322C96.0996 19.8055 96.1762 16.7703 96.224 16.3011L96.2432 16.0521ZM156.193 26.197C155.791 25.3926 155.049 24.8421 153.498 24.191C152.229 23.6595 151.592 23.2957 151.204 22.8696C150.888 22.5249 150.797 22.2472 150.826 21.7302C150.855 21.2562 150.97 20.9689 151.271 20.653C151.654 20.2461 152.181 20.1024 152.813 20.2317C153.847 20.4519 154.513 21.1652 155.082 22.6829C155.288 23.2239 155.312 23.2383 155.676 23.1042L155.906 23.0181L155.896 22.3956C155.891 22.0557 155.872 21.3328 155.858 20.7966L155.829 19.8199L155.657 19.7481C154.709 19.346 152.904 19.097 151.731 19.2071C150.395 19.3268 149.414 19.7529 148.657 20.5333C147.906 21.3088 147.566 22.2233 147.628 23.3053C147.676 24.2006 147.944 24.8421 148.495 25.407C149.007 25.9289 149.438 26.1778 150.668 26.6613C152.655 27.4369 153.182 27.8965 153.177 28.8541C153.172 29.6632 152.746 30.252 151.961 30.5297C151.683 30.6302 150.975 30.6254 150.596 30.5297C149.61 30.2712 148.854 29.4142 148.207 27.8247L148.04 27.4178L147.844 27.4274C147.738 27.4322 147.59 27.4657 147.518 27.4992L147.384 27.5614L147.398 28.2557C147.403 28.6386 147.422 29.4429 147.441 30.0414L147.47 31.133L147.69 31.2287C148.14 31.425 149.5 31.7218 150.352 31.8127C150.458 31.8223 151.037 31.8271 151.645 31.8223C152.698 31.8127 152.77 31.8032 153.301 31.6643C154.862 31.2574 155.872 30.3861 156.317 29.0647C156.456 28.6578 156.476 28.5381 156.495 27.9348C156.528 27.1401 156.456 26.7236 156.193 26.197ZM146.699 24.0234C146.728 24.3107 146.747 24.6554 146.738 24.7894L146.723 25.0288L143.18 25.0431L139.638 25.0575L139.652 25.4741C139.686 26.4459 139.891 27.3029 140.279 28.0449C140.456 28.3849 140.595 28.5668 140.935 28.9115C141.701 29.6823 142.462 29.9839 143.664 29.9839C144.535 29.9839 145.162 29.8116 145.818 29.3855C146 29.2658 146.187 29.17 146.23 29.17C146.331 29.17 146.56 29.4669 146.56 29.5962C146.56 29.8068 145.876 30.4866 145.206 30.9415C144.655 31.3101 143.788 31.65 143.032 31.7792C142.505 31.8702 141.318 31.8702 140.791 31.7745C138.417 31.3484 136.717 29.6632 136.162 27.1832C136.09 26.8625 136.057 26.5081 136.042 25.8188C136.013 24.7272 136.104 24.0521 136.382 23.2095C136.923 21.5914 137.89 20.4471 139.298 19.7625C140.782 19.0396 142.817 18.9917 144.128 19.6476C145.608 20.3897 146.479 21.8738 146.699 24.0234ZM143.219 24.0377L143.19 23.2909C143.133 21.7733 142.836 20.7487 142.319 20.27C142.127 20.0928 141.869 19.9779 141.648 19.9779C141.596 19.9779 141.433 20.0114 141.289 20.0545C141.083 20.1168 140.969 20.1934 140.715 20.4471C140.246 20.9211 139.906 21.6871 139.69 22.7547C139.604 23.1952 139.513 24.0473 139.547 24.1048C139.571 24.1479 141.72 24.1192 142.721 24.0617L143.219 24.0377Z" fill="#1F3D60" fill-opacity="0.7"/>
<g clip-path="url(#clip0_101_593)">
<path d="M200.524 14.2858C200.524 15.3671 200.544 15.522 201.142 15.5733L201.472 15.6047C201.533 15.646 201.513 15.8313 201.451 15.8616C200.864 15.8412 200.514 15.8313 200.101 15.8313C199.689 15.8313 199.329 15.8417 198.669 15.8616C198.607 15.8313 198.587 15.6554 198.669 15.6047L199.04 15.5733C199.628 15.522 199.679 15.3668 199.679 14.2858V9.68045C199.679 9.36129 199.679 9.35087 199.37 9.35087H198.803C198.36 9.35087 197.794 9.37122 197.536 9.60831C197.289 9.8349 197.186 10.061 197.073 10.319C196.991 10.3811 196.846 10.3294 196.805 10.2469C196.97 9.78369 197.124 9.12428 197.197 8.71205C197.228 8.69145 197.361 8.68194 197.393 8.71205C197.454 9.04188 197.794 9.03146 198.268 9.03146H202.441C202.996 9.03146 203.09 9.01053 203.244 8.74316C203.296 8.72223 203.409 8.73273 203.43 8.77401C203.316 9.19633 203.244 10.0307 203.275 10.3401C203.234 10.4222 203.059 10.4222 203.008 10.3605C202.977 10.1033 202.905 9.72198 202.75 9.60881C202.513 9.43343 202.122 9.35136 201.556 9.35136H200.824C200.515 9.35136 200.525 9.36179 200.525 9.70155V14.2858H200.524ZM207.101 12.5037C206.607 12.5037 206.586 12.5246 206.586 12.8333V14.2858C206.586 15.3676 206.638 15.5121 207.214 15.5738L207.513 15.6047C207.574 15.646 207.554 15.8313 207.492 15.8621C206.937 15.8412 206.585 15.8308 206.184 15.8308C205.741 15.8308 205.391 15.8516 204.99 15.8621C204.927 15.8308 204.907 15.6663 204.968 15.6047L205.144 15.5738C205.721 15.4706 205.741 15.3673 205.741 14.2858V10.577C205.741 9.49589 205.669 9.32051 205.133 9.27923L204.866 9.25879C204.804 9.21776 204.825 9.0322 204.886 9.0011C205.391 9.01152 205.742 9.0322 206.184 9.0322C206.586 9.0322 206.937 9.02153 207.38 9.0011C207.442 9.0322 207.462 9.21776 207.401 9.25879L207.204 9.27923C206.607 9.34144 206.586 9.49564 206.586 10.5772V11.7619C206.586 12.0813 206.607 12.0918 207.102 12.0918H210.048C210.542 12.0918 210.563 12.0813 210.563 11.7619V10.5772C210.563 9.49589 210.542 9.34144 209.935 9.27923L209.739 9.25879C209.678 9.21776 209.698 9.0322 209.76 9.0011C210.175 9.02104 210.591 9.03138 211.006 9.0322C211.408 9.0322 211.758 9.02153 212.221 9.0011C212.284 9.0322 212.304 9.21776 212.242 9.25879L212.026 9.27923C211.428 9.34144 211.407 9.49564 211.407 10.5772V14.2858C211.407 15.3676 211.428 15.5009 212.026 15.5738L212.273 15.6047C212.336 15.646 212.314 15.8313 212.253 15.8621C211.838 15.8423 211.422 15.8318 211.006 15.8308C210.584 15.8308 210.213 15.8412 209.76 15.8621C209.698 15.8308 209.678 15.6663 209.739 15.6047L209.935 15.5738C210.564 15.4706 210.564 15.3673 210.564 14.2858V12.8333C210.564 12.5246 210.542 12.5037 210.049 12.5037H207.101ZM214.854 10.5772C214.854 9.50507 214.833 9.35087 214.226 9.27923L214.06 9.25805C213.999 9.21726 214.02 9.03171 214.081 9.0011C214.524 9.02153 214.874 9.0322 215.297 9.0322H217.234C217.893 9.0322 218.501 9.0322 218.625 9.0011C218.686 9.17598 218.748 9.91771 218.789 10.371C218.748 10.4332 218.584 10.4535 218.531 10.3919C218.377 9.90704 218.284 9.5466 217.748 9.4125C217.532 9.36179 217.202 9.35136 216.749 9.35136H216.008C215.698 9.35136 215.698 9.37171 215.698 9.76326V11.8232C215.698 12.1117 215.73 12.1117 216.038 12.1117H216.636C217.068 12.1117 217.388 12.0913 217.512 12.0505C217.635 12.009 217.708 11.9467 217.759 11.6898L217.842 11.267C217.893 11.2058 218.068 11.2058 218.11 11.2774C218.11 11.5244 218.069 11.9264 218.069 12.3172C218.069 12.6883 218.11 13.0799 218.11 13.3064C218.069 13.3786 217.893 13.3786 217.842 13.3169L217.749 12.9154C217.708 12.7298 217.636 12.5754 217.43 12.5236C217.285 12.4821 217.038 12.4716 216.636 12.4716H216.039C215.73 12.4716 215.699 12.4821 215.699 12.7503V14.2025C215.699 14.7489 215.73 15.0992 215.895 15.2738C216.018 15.3974 216.235 15.5109 217.142 15.5109C217.935 15.5109 218.234 15.4701 218.461 15.3567C218.646 15.2529 218.924 14.893 219.192 14.3569C219.264 14.3062 219.409 14.3366 219.45 14.429C219.378 14.7902 219.12 15.5832 218.986 15.8611C218.059 15.8407 217.142 15.8303 216.225 15.8303H215.298C214.855 15.8303 214.505 15.8407 213.897 15.8611C213.835 15.8303 213.814 15.6653 213.876 15.6042L214.216 15.5728C214.803 15.522 214.855 15.3663 214.855 14.2853L214.854 10.5772ZM173.163 23.3228C172.669 23.3228 172.649 23.3432 172.649 23.6526V25.1051C172.649 26.1869 172.699 26.3307 173.276 26.3931L173.575 26.4234C173.637 26.4648 173.617 26.6498 173.555 26.6814C172.999 26.6605 172.648 26.6501 172.246 26.6501C171.803 26.6501 171.453 26.6709 171.052 26.6814C170.989 26.6501 170.969 26.4856 171.031 26.4234L171.206 26.3931C171.783 26.2894 171.803 26.1866 171.803 25.1051V21.3963C171.803 20.315 171.731 20.1398 171.196 20.0983L170.928 20.0781C170.866 20.0368 170.887 19.851 170.949 19.8207C171.454 19.8311 171.804 19.851 172.247 19.851C172.649 19.851 172.999 19.8406 173.442 19.8207C173.504 19.851 173.525 20.0373 173.463 20.0781L173.266 20.0985C172.669 20.1607 172.649 20.3152 172.649 21.3965V22.5815C172.649 22.9007 172.669 22.9111 173.164 22.9111H176.111C176.605 22.9111 176.626 22.9007 176.626 22.5815V21.3965C176.626 20.3152 176.605 20.1609 175.997 20.0985L175.801 20.0781C175.74 20.0368 175.76 19.851 175.822 19.8207C176.296 19.8411 176.646 19.851 177.068 19.851C177.47 19.851 177.821 19.8406 178.284 19.8207C178.346 19.851 178.367 20.0373 178.305 20.0781L178.088 20.0985C177.491 20.1607 177.47 20.3152 177.47 21.3965V25.1053C177.47 26.1871 177.491 26.321 178.088 26.3934L178.335 26.4237C178.398 26.465 178.377 26.6501 178.315 26.6817C177.9 26.6619 177.484 26.6514 177.068 26.6503C176.646 26.6503 176.275 26.6608 175.822 26.6817C175.759 26.6503 175.739 26.4859 175.801 26.4237L175.997 26.3934C176.625 26.2896 176.625 26.1869 176.625 25.1053V23.6526C176.625 23.3434 176.604 23.3231 176.11 23.3231L173.163 23.3228ZM185.804 22.4367C185.804 21.7982 185.783 20.6134 185.608 20.304C185.536 20.1806 185.35 20.1082 185.093 20.0878L184.835 20.0669C184.773 19.9948 184.794 19.8607 184.856 19.8199C185.247 19.8409 185.639 19.8514 186.03 19.8513C186.464 19.8513 186.741 19.8409 187.112 19.8199C187.195 19.8711 187.184 20.0057 187.132 20.0669L186.885 20.0878C186.628 20.1082 186.433 20.201 186.371 20.3356C186.226 20.6752 186.226 21.8594 186.226 22.4367V23.6014C186.226 24.4979 186.082 25.4451 185.505 26.0633C185.062 26.5473 184.3 26.8155 183.537 26.8155C182.826 26.8155 182.116 26.6814 181.611 26.2486C181.064 25.7954 180.807 25.0426 180.807 23.817V21.3858C180.807 20.3145 180.786 20.1396 180.189 20.0878L179.932 20.0669C179.869 20.0257 179.89 19.8508 179.953 19.8199C180.468 19.8409 180.818 19.8513 181.23 19.8513C181.652 19.8513 181.993 19.8409 182.497 19.8199C182.559 19.8513 182.579 20.0262 182.518 20.0669L182.271 20.0878C181.673 20.1398 181.652 20.3145 181.652 21.3858V23.6109C181.652 25.27 182.167 26.3615 183.744 26.3615C185.238 26.3615 185.804 25.1871 185.804 23.6213L185.804 22.4367ZM190.298 22.7561C190.298 23.034 190.329 23.034 190.639 23.034H191.339C191.761 23.034 192.091 23.0136 192.214 22.9728C192.327 22.9315 192.41 22.8796 192.472 22.6116L192.565 22.1997C192.616 22.138 192.791 22.138 192.832 22.1997C192.832 22.4467 192.791 22.8591 192.791 23.2403C192.791 23.6114 192.832 24.0022 192.832 24.2399C192.791 24.3011 192.637 24.3011 192.565 24.2399L192.461 23.8375C192.41 23.6522 192.327 23.5076 192.132 23.4464C191.988 23.4051 191.73 23.3947 191.339 23.3947H190.638C190.329 23.3947 190.298 23.4051 190.298 23.673V25.1046C190.298 26.1866 190.319 26.3409 190.926 26.3926L191.277 26.4234C191.339 26.4643 191.318 26.6496 191.256 26.6809C190.648 26.66 190.298 26.6496 189.885 26.6496C189.432 26.6496 189.082 26.66 188.598 26.6809C188.536 26.6496 188.515 26.4851 188.577 26.4234L188.834 26.3926C189.431 26.3198 189.453 26.1862 189.453 25.1046V21.3958C189.453 20.3145 189.432 20.1694 188.834 20.0978L188.669 20.0774C188.608 20.0361 188.628 19.8503 188.69 19.8199C189.123 19.8404 189.473 19.8503 189.885 19.8503H191.781C192.44 19.8503 193.038 19.8503 193.172 19.8199C193.172 20.2935 193.182 20.7883 193.203 21.1801C193.172 21.2415 193.028 21.2721 192.956 21.2104C192.873 20.7468 192.75 20.3659 192.235 20.2318C192.008 20.1697 191.668 20.1697 191.235 20.1697H190.607C190.298 20.1697 190.298 20.1905 190.298 20.5821L190.298 22.7561ZM196.488 22.7561C196.488 23.034 196.519 23.034 196.828 23.034H197.529C197.951 23.034 198.281 23.0136 198.405 22.9728C198.518 22.9315 198.601 22.8796 198.663 22.6116L198.755 22.1997C198.806 22.138 198.982 22.138 199.023 22.1997C199.023 22.4467 198.982 22.8591 198.982 23.2403C198.982 23.6114 199.023 24.0022 199.023 24.2399C198.982 24.3011 198.827 24.3011 198.755 24.2399L198.652 23.8375C198.6 23.6522 198.518 23.5076 198.322 23.4464C198.178 23.4051 197.921 23.3947 197.529 23.3947H196.828C196.519 23.3947 196.488 23.4051 196.488 23.673V25.1046C196.488 26.1866 196.509 26.3409 197.117 26.3926L197.467 26.4234C197.529 26.4643 197.508 26.6496 197.447 26.6809C196.838 26.66 196.488 26.6496 196.076 26.6496C195.623 26.6496 195.273 26.66 194.788 26.6809C194.726 26.6496 194.706 26.4851 194.768 26.4234L195.025 26.3926C195.622 26.3198 195.644 26.1862 195.644 25.1046V21.3958C195.644 20.3145 195.623 20.1694 195.025 20.0978L194.861 20.0774C194.799 20.0361 194.819 19.8503 194.881 19.8199C195.314 19.8404 195.664 19.8503 196.076 19.8503H197.973C198.632 19.8503 199.229 19.8503 199.363 19.8199C199.363 20.2935 199.373 20.7883 199.394 21.1801C199.363 21.2415 199.219 21.2721 199.147 21.2104C199.064 20.7468 198.94 20.3659 198.425 20.2318C198.198 20.1697 197.858 20.1697 197.426 20.1697H196.797C196.488 20.1697 196.488 20.1905 196.488 20.5821V22.7561ZM201.887 21.4166C201.887 20.3249 201.867 20.1498 201.259 20.0978L201.001 20.0774C200.939 20.0366 200.961 19.851 201.022 19.8199C201.537 19.8409 201.887 19.8508 202.32 19.8508C202.732 19.8508 203.082 19.8409 203.597 19.8199C203.66 19.8508 203.679 20.0366 203.618 20.0774L203.361 20.0978C202.753 20.149 202.732 20.3249 202.732 21.4166V25.0846C202.732 26.1765 202.753 26.321 203.361 26.3931L203.618 26.4234C203.68 26.4648 203.66 26.6506 203.597 26.6809C203.082 26.66 202.732 26.6506 202.32 26.6506C201.887 26.6506 201.537 26.6605 201.022 26.6809C200.961 26.6506 200.94 26.4851 201.001 26.4234L201.259 26.3931C201.867 26.3203 201.887 26.1765 201.887 25.0846V21.4166ZM211.759 24.8993C211.759 25.2086 211.759 26.4339 211.79 26.7023C211.769 26.7635 211.707 26.8155 211.594 26.8155C211.47 26.6401 211.171 26.2794 210.275 25.2598L207.885 22.5405C207.607 22.2211 206.907 21.3758 206.69 21.1493H206.67C206.628 21.2729 206.618 21.5099 206.618 21.8191V24.065C206.618 24.5492 206.628 25.8884 206.803 26.1973C206.865 26.3112 207.071 26.3727 207.329 26.3931L207.648 26.4244C207.709 26.507 207.7 26.6306 207.627 26.6819C207.226 26.6624 206.824 26.6522 206.422 26.6511C205.989 26.6511 205.711 26.6615 205.35 26.6819C205.278 26.6311 205.267 26.4861 205.33 26.4244L205.607 26.3931C205.845 26.3623 206.009 26.3011 206.061 26.1866C206.205 25.8168 206.194 24.5598 206.194 24.0648V21.0873C206.194 20.7995 206.184 20.5828 205.968 20.3456C205.824 20.2013 205.577 20.1292 205.33 20.0985L205.154 20.0776C205.092 20.0164 205.092 19.8615 205.175 19.8207C205.608 19.8515 206.153 19.8515 206.339 19.8515C206.504 19.8515 206.68 19.8411 206.813 19.8207C207.019 20.3456 208.235 21.7059 208.575 22.0868L209.574 23.2101C210.285 24.0032 210.79 24.5798 211.274 25.0745H211.295C211.335 25.023 211.335 24.8576 211.335 24.6409V22.4362C211.335 21.9522 211.325 20.6129 211.129 20.304C211.068 20.2115 210.903 20.1498 210.491 20.0978L210.315 20.0769C210.244 20.0157 210.254 19.8505 210.336 19.8199C210.81 19.8404 211.161 19.8508 211.552 19.8508C211.995 19.8508 212.263 19.8404 212.614 19.8199C212.696 19.8706 212.696 20.0157 212.634 20.0769L212.49 20.0978C212.16 20.1498 211.954 20.2313 211.913 20.3145C211.737 20.6846 211.759 21.9626 211.759 22.4362L211.759 24.8993ZM220.116 25.5996C220.116 26.0115 220.178 26.259 220.363 26.3312C220.371 26.3399 220.377 26.35 220.38 26.361C220.384 26.372 220.386 26.3836 220.385 26.3952C220.384 26.4068 220.38 26.418 220.375 26.4283C220.369 26.4386 220.362 26.4476 220.353 26.4548C220.229 26.4548 220.044 26.4956 219.848 26.5468C219.303 26.6919 218.561 26.8155 218.004 26.8155C216.779 26.8155 215.655 26.4757 214.861 25.6718C214.244 25.0536 213.914 24.2399 213.914 23.3327C213.914 22.4572 214.203 21.5716 214.841 20.8913C215.531 20.1699 216.551 19.6858 218.107 19.6858C218.695 19.6858 219.24 19.799 219.416 19.8404C219.611 19.8816 219.93 19.9535 220.054 19.9328C220.054 20.2732 220.116 20.8092 220.209 21.4266C220.178 21.5087 219.992 21.5194 219.93 21.4582C219.642 20.3453 218.869 19.9948 217.818 19.9948C215.82 19.9948 214.944 21.4174 214.944 22.9624C214.944 24.9399 215.963 26.4956 218.035 26.4956C218.673 26.4956 219.055 26.3615 219.168 26.1864C219.218 26.1143 219.271 25.9287 219.271 25.5996V25.1871C219.271 24.3215 219.239 24.2604 218.601 24.1875L218.147 24.1367C218.065 24.0954 218.076 23.9096 218.147 23.8792C218.447 23.9002 219.013 23.9096 219.62 23.9096C220.023 23.9096 220.373 23.8997 220.713 23.8792C220.785 23.92 220.795 24.0751 220.723 24.1367L220.558 24.1571C220.124 24.2091 220.115 24.4974 220.115 25.0228V25.5996H220.116ZM225.564 25.1051C225.564 26.1864 225.585 26.3413 226.183 26.3926L226.512 26.4239C226.574 26.4653 226.553 26.6503 226.491 26.6814C225.905 26.661 225.555 26.6506 225.142 26.6506C224.73 26.6506 224.37 26.661 223.71 26.6814C223.648 26.6506 223.628 26.4752 223.71 26.4239L224.081 26.3926C224.668 26.3416 224.72 26.1862 224.72 25.1051V20.4998C224.72 20.1806 224.72 20.1702 224.411 20.1702H223.844C223.401 20.1702 222.835 20.1905 222.577 20.4276C222.33 20.654 222.227 20.8813 222.113 21.1383C222.031 21.2005 221.887 21.1488 221.845 21.0666C222.011 20.6035 222.165 19.944 222.237 19.5319C222.268 19.5112 222.402 19.5013 222.433 19.5319C222.495 19.8617 222.835 19.8513 223.309 19.8513H227.481C228.037 19.8513 228.13 19.8303 228.285 19.5627C228.336 19.542 228.449 19.5526 228.47 19.5938C228.356 20.0166 228.284 20.8505 228.315 21.1597C228.274 21.2425 228.099 21.2425 228.047 21.1801C228.016 20.9226 227.945 20.5415 227.79 20.4281C227.553 20.2528 227.162 20.1707 226.595 20.1707H225.864C225.555 20.1707 225.565 20.1811 225.565 20.5206L225.564 25.1051ZM229.543 23.3228C229.543 21.2629 231.088 19.6861 233.211 19.6861C235.591 19.6861 236.785 21.4062 236.785 23.2203C236.785 25.3008 235.199 26.8155 233.211 26.8155C230.923 26.815 229.543 25.177 229.543 23.3228ZM235.756 23.539C235.756 21.839 235.003 20.0052 233.036 20.0052C231.964 20.0052 230.574 20.7368 230.574 22.9927C230.574 24.5176 231.315 26.4956 233.345 26.4956C234.58 26.4956 235.756 25.5688 235.756 23.539ZM244.595 24.8993C244.595 25.2086 244.595 26.4339 244.625 26.7023C244.605 26.7635 244.543 26.8155 244.43 26.8155C244.306 26.6401 244.007 26.2794 243.111 25.2598L240.722 22.5407C240.443 22.2213 239.743 21.3761 239.526 21.1495H239.506C239.464 21.2731 239.454 21.5102 239.454 21.8193V24.0653C239.454 24.5494 239.464 25.8887 239.639 26.1976C239.701 26.3115 239.908 26.3729 240.165 26.3934L240.485 26.4247C240.546 26.5073 240.535 26.6309 240.463 26.6822C240.062 26.6627 239.66 26.6524 239.259 26.6513C238.825 26.6513 238.547 26.6617 238.187 26.6822C238.115 26.6314 238.104 26.4864 238.166 26.4247L238.444 26.3934C238.681 26.3625 238.846 26.3013 238.898 26.1869C239.042 25.817 239.032 24.5601 239.032 24.065V21.0873C239.032 20.7995 239.022 20.5828 238.805 20.3456C238.66 20.2013 238.413 20.1292 238.166 20.0985L237.991 20.0776C237.929 20.0164 237.929 19.8615 238.012 19.8207C238.445 19.8515 238.99 19.8515 239.176 19.8515C239.341 19.8515 239.516 19.8411 239.65 19.8207C239.856 20.3456 241.071 21.7059 241.411 22.0868L242.411 23.2101C243.121 24.0032 243.627 24.5798 244.11 25.0745H244.131C244.172 25.023 244.172 24.8576 244.172 24.6409V22.4362C244.172 21.9522 244.162 20.6129 243.966 20.304C243.904 20.2115 243.739 20.1498 243.327 20.0978L243.152 20.0769C243.08 20.0157 243.091 19.8505 243.173 19.8199C243.647 19.8404 243.997 19.8508 244.389 19.8508C244.832 19.8508 245.099 19.8404 245.45 19.8199C245.532 19.8706 245.532 20.0157 245.471 20.0769L245.326 20.0978C244.996 20.1498 244.79 20.2313 244.749 20.3145C244.574 20.6846 244.595 21.9626 244.595 22.4362L244.595 24.8993ZM196.42 35.9242C196.42 37.0055 196.441 37.1401 197.1 37.2117L197.379 37.2432C197.44 37.2945 197.42 37.4694 197.357 37.5003C196.77 37.4798 196.431 37.4694 196.018 37.4694C195.586 37.4694 195.215 37.4798 194.762 37.5003C194.699 37.4694 194.679 37.3045 194.741 37.2432L194.957 37.2117C195.555 37.1301 195.575 37.0055 195.575 35.9242V32.1225C195.575 31.2475 195.555 31.0721 195.091 31.0203L194.72 30.9793C194.648 30.9171 194.658 30.7628 194.741 30.7218C195.287 30.6492 195.926 30.6397 196.781 30.6397C197.636 30.6397 198.275 30.7527 198.759 31.0511C199.233 31.35 199.584 31.8859 199.584 32.5971C199.584 33.5444 198.997 34.0187 198.553 34.2354C198.1 34.4515 197.553 34.5441 197.131 34.5441C197.059 34.5128 197.059 34.3583 197.121 34.3379C198.234 34.1316 198.636 33.5031 198.636 32.6071C198.636 31.6079 198.048 30.9589 196.977 30.9589C196.431 30.9589 196.421 31.0004 196.421 31.33V35.9244L196.42 35.9242ZM201.06 34.1416C201.06 32.0818 202.606 30.5047 204.728 30.5047C207.108 30.5047 208.302 32.225 208.302 34.0387C208.302 36.1189 206.716 37.6335 204.728 37.6335C202.441 37.634 201.06 35.9965 201.06 34.1416ZM207.272 34.3583C207.272 32.6579 206.52 30.8241 204.552 30.8241C203.481 30.8241 202.09 31.5561 202.09 33.8118C202.09 35.3371 202.832 37.3141 204.861 37.3141C206.098 37.3149 207.272 36.3881 207.272 34.3583ZM211.701 37.634C210.835 37.634 210.289 37.3662 210.093 37.2525C209.97 37.0261 209.836 36.2948 209.815 35.8107C209.866 35.7391 210.021 35.7179 210.062 35.7804C210.216 36.3053 210.639 37.3149 211.834 37.3149C212.699 37.3149 213.122 36.7485 213.122 36.1299C213.122 35.6761 213.029 35.1717 212.277 34.6871L211.298 34.0486C210.783 33.7083 210.185 33.121 210.185 32.2767C210.185 31.2977 210.947 30.5047 212.287 30.5047C212.607 30.5047 212.978 30.5659 213.245 30.6387C213.379 30.6795 213.524 30.7 213.606 30.7C213.699 30.9469 213.792 31.5243 213.792 31.9566C213.751 32.0188 213.586 32.0497 213.534 31.9879C213.4 31.4935 213.122 30.8233 212.133 30.8233C211.124 30.8233 210.907 31.4935 210.907 31.9671C210.907 32.564 211.401 32.9976 211.783 33.2342L212.607 33.7491C213.256 34.1506 213.895 34.7488 213.895 35.7274C213.895 36.8617 213.04 37.634 211.701 37.634ZM219.02 35.9242C219.02 37.0055 219.041 37.1604 219.638 37.2117L219.968 37.2432C220.029 37.2841 220.009 37.4694 219.948 37.5003C219.361 37.4798 219.01 37.4694 218.597 37.4694C218.186 37.4694 217.825 37.4798 217.165 37.5003C217.104 37.4694 217.083 37.2945 217.165 37.2432L217.536 37.2117C218.124 37.1609 218.175 37.0055 218.175 35.9242V31.3191C218.175 30.9997 218.175 30.9893 217.866 30.9893H217.299C216.857 30.9893 216.29 31.0096 216.032 31.247C215.785 31.473 215.682 31.7001 215.569 31.9571C215.487 32.0193 215.342 31.9676 215.3 31.8854C215.466 31.4221 215.62 30.7626 215.693 30.3507C215.723 30.3298 215.857 30.3198 215.888 30.3507C215.949 30.6805 216.29 30.6701 216.763 30.6701H220.936C221.493 30.6701 221.585 30.6492 221.74 30.3816C221.791 30.3606 221.905 30.3714 221.925 30.4122C221.812 30.835 221.74 31.6685 221.771 31.9785C221.73 32.0606 221.555 32.0606 221.503 31.9989C221.473 31.7419 221.401 31.3604 221.246 31.2475C221.009 31.0721 220.617 30.9898 220.051 30.9898H219.319C219.01 30.9898 219.02 31.0004 219.02 31.3404V35.9242Z" fill="#1F3D60" fill-opacity="0.7"/>
</g>
<g clip-path="url(#clip1_101_593)">
<path d="M285.256 17.9475C284.716 17.3775 284.137 17.0304 283.737 17.0304H283.377V16.7143H283.677C283.816 16.7143 285.456 16.781 285.616 16.781C285.877 16.781 286.634 16.7143 286.795 16.7143H287.115L294.721 25.1557V18.4968C294.721 17.4383 294.261 17.0304 293.104 17.0304H292.763V16.7143H293.123C293.163 16.7143 294.88 16.781 295.019 16.781C295.218 16.781 296.357 16.7143 296.577 16.7143H296.797L296.817 17.0304C295.757 17.112 295.478 17.3981 295.478 18.3348V28.8621H295.119L286.036 18.783V26.3682C286.036 27.9588 286.397 28.3863 287.714 28.3863H288.053V28.7265H287.672C287.393 28.7265 286.016 28.6575 285.695 28.6575C285.516 28.6575 284.237 28.7265 283.958 28.7265H283.637V28.3863C284.977 28.2633 285.258 28.0392 285.258 27.0612V17.9475H285.256ZM299.025 18.0693C299.025 17.2752 298.725 17.0304 297.785 17.0304H297.486V16.7143H298.265C298.805 16.7143 301.722 16.781 301.743 16.781C302.161 16.781 304.934 16.7143 305.531 16.7143H306.329L306.37 19.3312H306.059C305.998 17.9659 305.393 17.4154 303.996 17.4154H301.204V22.0423H303.617C304.555 22.0423 305.074 21.5941 305.213 20.6345L305.57 20.6552V24.3075H305.233C305.074 23.1663 304.495 22.7181 303.099 22.7181H301.184V26.9382C301.184 27.6312 301.524 27.9783 302.201 27.9783H304.196C305.49 27.9783 306.43 27.3864 306.989 26.1624H307.35L306.51 28.7253C305.929 28.7253 303.179 28.6586 302.262 28.6586C301.643 28.6586 298.665 28.7046 297.985 28.7253H297.465V28.3863H297.785C298.725 28.3667 299.026 28.1219 299.026 27.3255V18.0693H299.025ZM318.218 28.8839H317.659L315.379 22.5503L313.04 28.8851H312.5L308.599 18.2532C308.3 17.4373 308.019 17.112 307.499 17.012V16.7132H307.839C308.059 16.7132 309.16 16.781 309.42 16.781C309.639 16.781 310.778 16.7143 311.018 16.7143H311.379V17.0304C310.799 17.0523 310.559 17.2142 310.559 17.5395C310.559 17.7234 310.618 17.9877 310.719 18.2739L313.458 25.8096L315.018 21.5114L313.998 18.6198C313.558 17.3775 313.178 17.0523 312.217 17.0304V16.7143H312.539C312.818 16.7143 314.258 16.781 314.599 16.781C314.878 16.781 316.318 16.7143 316.637 16.7143H317.116V17.0304H316.637C315.977 17.0304 315.658 17.1936 315.658 17.5395C315.658 17.7234 315.738 18.0498 315.858 18.3751L318.517 25.8705L320.617 19.5151C320.877 18.7003 320.996 18.1705 320.996 17.8452C320.996 17.2752 320.717 17.0293 320.098 17.0293H319.738V16.7143H319.838C320.117 16.7143 320.816 16.781 321.236 16.781C321.435 16.781 322.214 16.7143 322.593 16.7143H322.734V17.0304C322.233 17.174 321.975 17.5395 321.577 18.783L318.217 28.8851L318.218 28.8839ZM322.827 25.9383C323.146 26.729 323.425 27.0968 323.963 27.5024C324.641 28.0312 325.537 28.2955 326.533 28.2955C328.247 28.2955 329.403 27.3807 329.403 26.059C329.403 25.0821 328.845 24.5535 326.781 23.5594C324.781 22.5824 324.282 22.0952 323.864 21.6883C323.247 21.0172 322.988 20.4081 322.988 19.5944C322.988 17.7246 324.482 16.4868 326.74 16.4868C327.421 16.4868 328.161 16.5879 328.962 16.7902C329.281 16.8707 329.602 16.912 329.782 16.912C329.941 16.912 330.023 16.8718 330.081 16.7362H330.426L330.465 19.2979H330.181C330.002 18.6876 329.882 18.4244 329.621 18.0911C329.061 17.4188 328.18 17.0534 327.051 17.0534C325.616 17.0534 324.678 17.7441 324.678 18.7819C324.678 19.676 325.219 20.184 327.131 21.0781C329.584 22.2366 331.068 23.2744 331.068 25.1844C331.068 27.3795 329.302 28.8621 326.693 28.8621C325.981 28.856 325.272 28.7677 324.581 28.5989C324.345 28.5443 324.105 28.5101 323.864 28.4966C323.623 28.4966 323.545 28.5379 323.387 28.7265H323.048L323.007 28.4414C322.872 27.637 322.711 26.8348 322.527 26.0395L322.827 25.9372V25.9383ZM260.985 21.4217C260.684 21.4217 260.399 21.4907 260.146 21.6148C259.472 21.9493 259.046 22.6376 259.049 23.3916C259.049 24.4788 259.916 25.3614 260.984 25.3614C262.054 25.3614 262.919 24.4788 262.919 23.3916C262.919 22.3032 262.054 21.4206 260.984 21.4206L260.985 21.4217ZM269.328 21.4217C268.259 21.4217 267.391 22.3032 267.391 23.3916C267.391 24.4788 268.258 25.3614 269.328 25.3614C270.396 25.3614 271.263 24.4788 271.263 23.3916C271.263 22.3032 270.395 21.4206 269.328 21.4206V21.4217Z" fill="#1F3D60" fill-opacity="0.7"/>
<path d="M277.651 27.3321C275.511 27.3321 273.778 25.568 273.778 23.3901C273.778 21.2146 275.511 19.4504 277.651 19.4504C279.485 19.4504 281.02 20.7514 281.42 22.496H279.375C279.216 22.1741 278.97 21.903 278.666 21.713C278.361 21.523 278.01 21.4216 277.651 21.4202C276.58 21.4202 275.713 22.3029 275.713 23.3913C275.713 24.4785 276.58 25.3611 277.65 25.3611C278.009 25.3597 278.362 25.2579 278.667 25.067C278.972 24.8761 279.217 24.6038 279.376 24.2807L281.425 24.2612C281.035 26.0196 279.494 27.3321 277.65 27.3321H277.651ZM269.329 27.3321C267.199 27.3321 265.472 25.5829 265.457 23.4188L265.411 16.5049H267.369L267.381 20.2147C267.954 19.7596 268.619 19.4504 269.329 19.4504C271.467 19.4504 273.2 21.2146 273.2 23.3913C273.2 25.568 271.465 27.3321 269.329 27.3321ZM262.955 27.3321L262.947 26.3449C262.508 26.7919 261.748 27.3321 260.851 27.3321C258.713 27.3321 257.115 25.568 257.115 23.3901C257.115 21.2146 258.848 19.4504 260.985 19.4504C261.319 19.4504 261.644 19.4929 261.954 19.5745C263.624 20.0113 264.857 21.5547 264.857 23.3901V23.4016L264.88 27.3321H262.954H262.955ZM269.329 10.2563C262.201 10.2563 256.424 16.1371 256.424 23.3913C256.424 30.6454 262.201 36.5274 269.329 36.5274C276.454 36.5274 282.233 30.6454 282.233 23.3913C282.233 16.1371 276.454 10.2563 269.329 10.2563Z" fill="#1F3D60" fill-opacity="0.7"/>
</g>
<defs>
<clipPath id="clip0_101_593">
<rect width="75.2812" height="46.3269" fill="white" transform="translate(170.562 0.000488281)"/>
</clipPath>
<clipPath id="clip1_101_593">
<rect width="75.2812" height="46.3269" fill="white" transform="translate(255.844 0.000488281)"/>
</clipPath>
</defs>
</svg>
