<svg width="245" height="33" viewBox="0 0 245 33" fill="none" xmlns="http://www.w3.org/2000/svg">
<g clip-path="url(#clip0_101_640)">
<path d="M0.0373535 29.1865H26.261V3H0.0373535V29.1865Z" fill="#2DAF6B"/>
<path d="M22.3909 14.1414L7.51711 24.931L9.68748 18.2627L4.0061 14.1414H11.0286L13.1985 7.47266L15.3684 14.1414H22.3909ZM13.199 20.8102L17.2611 19.957L18.8795 24.931L13.199 20.8102Z" fill="white"/>
<path d="M29.2617 29.1865H55.4854V3H29.2617V29.1865Z" fill="#2DAF6B"/>
<path d="M29.2617 29.1865H42.3735V3H29.2617V29.1865Z" fill="#2DAF6B"/>
<path d="M42.6878 20.7089L46.1711 19.9572L47.7821 25.0442L42.3196 20.9731L36.6441 25.0442L38.8469 18.3517L33.0801 14.2155H40.2081L42.41 7.52246L44.6128 14.2155H51.7403L42.6878 20.7089Z" fill="white"/>
<path d="M58.4863 29.1865H84.71V3H58.4863V29.1865Z" fill="#2DAF6B"/>
<path d="M58.4863 29.1865H71.5982V3H58.4863V29.1865Z" fill="#2DAF6B"/>
<path d="M80.8419 14.1414L65.9682 24.931L68.1385 18.2627L62.4572 14.1414H69.4796L71.6495 7.47266L73.8195 14.1414L80.8419 14.1414ZM71.6501 20.8102L75.7121 19.957L77.3306 24.931L71.6501 20.8102Z" fill="white"/>
<path d="M87.7109 29.1865H113.935V3H87.7109V29.1865Z" fill="#2DAF6B"/>
<path d="M87.7109 29.1865H100.823V3H87.7109V29.1865Z" fill="#2DAF6B"/>
<path d="M110.064 14.1414L95.1911 24.931L97.3611 18.2627L91.6797 14.1414H98.7022L100.872 7.47266L103.042 14.1414L110.064 14.1414ZM100.873 20.8102L104.935 19.957L106.553 24.931L100.873 20.8102Z" fill="white"/>
<path d="M116.936 29.1865H143.159V3H116.936V29.1865Z" fill="#2DAF6B"/>
<path d="M116.936 29.1865H130.047V3H116.936V29.1865Z" fill="#2DAF6B"/>
<path d="M139.289 14.1414L124.416 24.931L126.586 18.2627L120.904 14.1414H127.927L130.097 7.47266L132.267 14.1414H139.289ZM130.097 20.8102L134.159 19.957L135.778 24.931L130.097 20.8102Z" fill="white"/>
</g>
<path d="M154.528 3.40625V2.27273H161.283V3.40625H158.56V11H157.247V3.40625H154.528ZM161.993 11V4.45455H163.225V5.49432H163.293C163.412 5.14205 163.623 4.86506 163.924 4.66335C164.228 4.45881 164.571 4.35653 164.955 4.35653C165.034 4.35653 165.128 4.35937 165.236 4.36506C165.347 4.37074 165.434 4.37784 165.496 4.38636V5.60511C165.445 5.59091 165.354 5.57528 165.223 5.55824C165.093 5.53835 164.962 5.52841 164.831 5.52841C164.53 5.52841 164.262 5.59233 164.026 5.72017C163.793 5.84517 163.608 6.01989 163.472 6.24432C163.336 6.46591 163.267 6.71875 163.267 7.00284V11H161.993ZM170.745 8.28551V4.45455H172.023V11H170.771V9.86648H170.702C170.552 10.2159 170.31 10.5071 169.978 10.7401C169.648 10.9702 169.238 11.0852 168.746 11.0852C168.326 11.0852 167.954 10.9929 167.63 10.8082C167.309 10.6207 167.056 10.3438 166.871 9.97727C166.69 9.6108 166.599 9.15767 166.599 8.6179V4.45455H167.873V8.46449C167.873 8.91051 167.996 9.26562 168.244 9.52983C168.491 9.79403 168.812 9.92614 169.207 9.92614C169.445 9.92614 169.683 9.86648 169.918 9.74716C170.157 9.62784 170.354 9.44744 170.511 9.20597C170.67 8.96449 170.748 8.65767 170.745 8.28551ZM178.64 6.05256L177.485 6.2571C177.437 6.10937 177.36 5.96875 177.255 5.83523C177.153 5.7017 177.014 5.59233 176.838 5.5071C176.662 5.42187 176.441 5.37926 176.177 5.37926C175.816 5.37926 175.515 5.46023 175.274 5.62216C175.032 5.78125 174.912 5.98722 174.912 6.24006C174.912 6.45881 174.993 6.63494 175.154 6.76847C175.316 6.90199 175.578 7.01136 175.939 7.09659L176.978 7.33523C177.581 7.47443 178.029 7.68892 178.325 7.97869C178.62 8.26847 178.768 8.64489 178.768 9.10795C178.768 9.5 178.654 9.84943 178.427 10.1562C178.203 10.4602 177.889 10.6989 177.485 10.8722C177.085 11.0455 176.62 11.1321 176.092 11.1321C175.359 11.1321 174.761 10.9759 174.298 10.6634C173.835 10.348 173.551 9.90057 173.446 9.32102L174.677 9.13352C174.754 9.45455 174.912 9.69744 175.15 9.86222C175.389 10.0241 175.7 10.1051 176.083 10.1051C176.501 10.1051 176.835 10.0185 177.085 9.84517C177.335 9.66903 177.46 9.45455 177.46 9.2017C177.46 8.99716 177.383 8.82528 177.23 8.68608C177.079 8.54687 176.848 8.44176 176.535 8.37074L175.427 8.12784C174.816 7.98864 174.365 7.76705 174.072 7.46307C173.782 7.15909 173.637 6.77415 173.637 6.30824C173.637 5.92187 173.745 5.58381 173.961 5.29403C174.177 5.00426 174.475 4.77841 174.856 4.61648C175.237 4.4517 175.673 4.36932 176.164 4.36932C176.872 4.36932 177.429 4.52273 177.835 4.82955C178.241 5.13352 178.51 5.54119 178.64 6.05256ZM183.224 4.45455V5.47727H179.649V4.45455H183.224ZM180.608 2.88636H181.882V9.07812C181.882 9.32528 181.919 9.51136 181.993 9.63636C182.067 9.75852 182.162 9.84233 182.278 9.88778C182.398 9.9304 182.527 9.9517 182.666 9.9517C182.768 9.9517 182.858 9.9446 182.935 9.9304C183.011 9.91619 183.071 9.90483 183.114 9.89631L183.344 10.9489C183.27 10.9773 183.165 11.0057 183.028 11.0341C182.892 11.0653 182.722 11.0824 182.517 11.0852C182.182 11.0909 181.869 11.0312 181.58 10.9062C181.29 10.7812 181.055 10.5881 180.876 10.3267C180.697 10.0653 180.608 9.73722 180.608 9.34233V2.88636ZM189.496 4.56534C189.451 4.16193 189.263 3.84943 188.934 3.62784C188.604 3.40341 188.189 3.29119 187.689 3.29119C187.331 3.29119 187.022 3.34801 186.76 3.46165C186.499 3.57244 186.296 3.72585 186.151 3.92188C186.009 4.11506 185.938 4.33523 185.938 4.58239C185.938 4.78977 185.986 4.96875 186.083 5.11932C186.182 5.26989 186.311 5.39631 186.471 5.49858C186.632 5.59801 186.806 5.68182 186.99 5.75C187.175 5.81534 187.353 5.86932 187.523 5.91193L188.375 6.13352C188.654 6.2017 188.939 6.29403 189.232 6.41051C189.525 6.52699 189.796 6.6804 190.046 6.87074C190.296 7.06108 190.498 7.29688 190.651 7.57812C190.807 7.85938 190.885 8.19602 190.885 8.58807C190.885 9.08239 190.757 9.52131 190.502 9.90483C190.249 10.2884 189.881 10.5909 189.398 10.8125C188.918 11.0341 188.337 11.1449 187.655 11.1449C187.002 11.1449 186.436 11.0412 185.959 10.8338C185.482 10.6264 185.108 10.3324 184.838 9.9517C184.569 9.56818 184.419 9.11364 184.391 8.58807H185.712C185.738 8.90341 185.84 9.16619 186.019 9.37642C186.201 9.58381 186.432 9.73864 186.713 9.84091C186.998 9.94034 187.309 9.99006 187.647 9.99006C188.019 9.99006 188.35 9.93182 188.64 9.81534C188.932 9.69602 189.162 9.53125 189.33 9.32102C189.498 9.10795 189.581 8.85937 189.581 8.57528C189.581 8.31676 189.507 8.10511 189.36 7.94034C189.215 7.77557 189.017 7.6392 188.767 7.53125C188.52 7.4233 188.24 7.32812 187.928 7.24574L186.897 6.96449C186.198 6.77415 185.644 6.49432 185.235 6.125C184.828 5.75568 184.625 5.26705 184.625 4.65909C184.625 4.15625 184.762 3.71733 185.034 3.34233C185.307 2.96733 185.676 2.67614 186.142 2.46875C186.608 2.25852 187.134 2.15341 187.719 2.15341C188.31 2.15341 188.831 2.2571 189.283 2.46449C189.738 2.67188 190.096 2.95739 190.357 3.32102C190.618 3.68182 190.755 4.09659 190.766 4.56534H189.496ZM195.114 11.1321C194.48 11.1321 193.935 10.9886 193.477 10.7017C193.023 10.4119 192.673 10.0128 192.429 9.50426C192.185 8.99574 192.062 8.41335 192.062 7.7571C192.062 7.09233 192.188 6.50568 192.438 5.99716C192.688 5.4858 193.04 5.08665 193.494 4.79972C193.949 4.51278 194.484 4.36932 195.101 4.36932C195.598 4.36932 196.041 4.46165 196.43 4.64631C196.82 4.82812 197.134 5.08381 197.372 5.41335C197.614 5.7429 197.757 6.12784 197.803 6.56818H196.562C196.494 6.26136 196.338 5.99716 196.094 5.77557C195.852 5.55398 195.528 5.44318 195.122 5.44318C194.767 5.44318 194.456 5.53693 194.189 5.72443C193.925 5.90909 193.719 6.1733 193.571 6.51705C193.423 6.85795 193.349 7.26136 193.349 7.72727C193.349 8.20455 193.422 8.61648 193.567 8.96307C193.712 9.30966 193.916 9.57812 194.18 9.76847C194.447 9.95881 194.761 10.054 195.122 10.054C195.364 10.054 195.582 10.0099 195.778 9.92188C195.977 9.83097 196.143 9.7017 196.277 9.53409C196.413 9.36648 196.509 9.16477 196.562 8.92898H197.803C197.757 9.35227 197.619 9.73011 197.389 10.0625C197.159 10.3949 196.851 10.6562 196.464 10.8466C196.081 11.0369 195.631 11.1321 195.114 11.1321ZM201.922 11.1321C201.309 11.1321 200.773 10.9915 200.316 10.7102C199.858 10.429 199.503 10.0355 199.25 9.52983C198.998 9.02415 198.871 8.43324 198.871 7.7571C198.871 7.07812 198.998 6.48437 199.25 5.97585C199.503 5.46733 199.858 5.07244 200.316 4.79119C200.773 4.50994 201.309 4.36932 201.922 4.36932C202.536 4.36932 203.071 4.50994 203.529 4.79119C203.986 5.07244 204.341 5.46733 204.594 5.97585C204.847 6.48437 204.973 7.07812 204.973 7.7571C204.973 8.43324 204.847 9.02415 204.594 9.52983C204.341 10.0355 203.986 10.429 203.529 10.7102C203.071 10.9915 202.536 11.1321 201.922 11.1321ZM201.926 10.0625C202.324 10.0625 202.654 9.95739 202.915 9.74716C203.176 9.53693 203.37 9.2571 203.495 8.90767C203.623 8.55824 203.686 8.1733 203.686 7.75284C203.686 7.33523 203.623 6.9517 203.495 6.60227C203.37 6.25 203.176 5.96733 202.915 5.75426C202.654 5.54119 202.324 5.43466 201.926 5.43466C201.526 5.43466 201.194 5.54119 200.929 5.75426C200.668 5.96733 200.473 6.25 200.346 6.60227C200.221 6.9517 200.158 7.33523 200.158 7.75284C200.158 8.1733 200.221 8.55824 200.346 8.90767C200.473 9.2571 200.668 9.53693 200.929 9.74716C201.194 9.95739 201.526 10.0625 201.926 10.0625ZM206.396 11V4.45455H207.627V5.49432H207.695C207.815 5.14205 208.025 4.86506 208.326 4.66335C208.63 4.45881 208.974 4.35653 209.357 4.35653C209.437 4.35653 209.531 4.35937 209.638 4.36506C209.749 4.37074 209.836 4.37784 209.898 4.38636V5.60511C209.847 5.59091 209.756 5.57528 209.626 5.55824C209.495 5.53835 209.364 5.52841 209.234 5.52841C208.933 5.52841 208.664 5.59233 208.428 5.72017C208.195 5.84517 208.011 6.01989 207.874 6.24432C207.738 6.46591 207.67 6.71875 207.67 7.00284V11H206.396ZM213.588 11.1321C212.943 11.1321 212.387 10.9943 211.922 10.7188C211.458 10.4403 211.1 10.0497 210.848 9.54688C210.598 9.04119 210.473 8.44886 210.473 7.76989C210.473 7.09943 210.598 6.50852 210.848 5.99716C211.1 5.4858 211.453 5.08665 211.904 4.79972C212.359 4.51278 212.89 4.36932 213.498 4.36932C213.868 4.36932 214.225 4.4304 214.572 4.55256C214.919 4.67472 215.23 4.86648 215.505 5.12784C215.781 5.3892 215.998 5.72869 216.157 6.14631C216.316 6.56108 216.396 7.06534 216.396 7.65909V8.1108H211.193V7.15625H215.147C215.147 6.82102 215.079 6.52415 214.943 6.26562C214.806 6.00426 214.615 5.7983 214.368 5.64773C214.123 5.49716 213.836 5.42188 213.507 5.42188C213.149 5.42188 212.836 5.50994 212.569 5.68608C212.305 5.85937 212.1 6.08665 211.956 6.3679C211.814 6.64631 211.743 6.94886 211.743 7.27557V8.02131C211.743 8.45881 211.819 8.83097 211.973 9.13778C212.129 9.4446 212.346 9.67898 212.625 9.84091C212.903 10 213.228 10.0795 213.6 10.0795C213.842 10.0795 214.062 10.0455 214.261 9.97727C214.46 9.90625 214.632 9.80114 214.777 9.66193C214.922 9.52273 215.032 9.35085 215.109 9.14631L216.315 9.36364C216.218 9.71875 216.045 10.0298 215.795 10.2969C215.548 10.5611 215.237 10.767 214.862 10.9148C214.49 11.0597 214.065 11.1321 213.588 11.1321ZM220.903 9.46591V8.01278L224.547 2.27273H225.8V4.28409H225.058L222.761 7.91903V7.98722H227.939V9.46591H220.903ZM225.092 11V9.02273L225.126 8.37926V2.27273H226.857V11H225.092ZM230.082 11.1108C229.801 11.1108 229.56 11.0114 229.358 10.8125C229.159 10.6108 229.06 10.3693 229.06 10.0881C229.06 9.80966 229.159 9.57102 229.358 9.37216C229.56 9.1733 229.801 9.07386 230.082 9.07386C230.355 9.07386 230.594 9.1733 230.798 9.37216C231.003 9.57102 231.105 9.80966 231.105 10.0881C231.105 10.2756 231.057 10.4474 230.96 10.6037C230.866 10.7571 230.743 10.8807 230.589 10.9744C230.436 11.0653 230.267 11.1108 230.082 11.1108ZM235.572 2.15341C236.021 2.15341 236.453 2.22869 236.868 2.37926C237.285 2.52983 237.657 2.76989 237.984 3.09943C238.314 3.42898 238.574 3.86648 238.764 4.41193C238.957 4.95455 239.055 5.62074 239.058 6.41051C239.058 7.15199 238.974 7.81392 238.806 8.39631C238.642 8.97585 238.404 9.46875 238.095 9.875C237.785 10.2812 237.412 10.5909 236.974 10.804C236.537 11.0142 236.048 11.1193 235.508 11.1193C234.926 11.1193 234.412 11.0071 233.966 10.7827C233.52 10.5554 233.16 10.2472 232.887 9.85795C232.618 9.46591 232.454 9.02557 232.397 8.53693H234.217C234.288 8.85511 234.437 9.10227 234.664 9.27841C234.892 9.4517 235.173 9.53835 235.508 9.53835C236.076 9.53835 236.508 9.29119 236.804 8.79688C237.099 8.29972 237.248 7.61932 237.251 6.75568H237.191C237.061 7.01136 236.885 7.23153 236.663 7.41619C236.441 7.59801 236.187 7.73864 235.9 7.83807C235.616 7.9375 235.314 7.98722 234.993 7.98722C234.478 7.98722 234.02 7.86648 233.616 7.625C233.213 7.38352 232.895 7.05114 232.662 6.62784C232.429 6.20455 232.312 5.72159 232.312 5.17898C232.309 4.59375 232.444 4.07244 232.717 3.61506C232.99 3.15767 233.37 2.79972 233.859 2.54119C234.35 2.27983 234.922 2.15057 235.572 2.15341ZM235.585 3.60227C235.298 3.60227 235.042 3.67045 234.818 3.80682C234.596 3.94318 234.42 4.12642 234.289 4.35653C234.162 4.58665 234.099 4.84375 234.102 5.12784C234.102 5.41477 234.164 5.6733 234.289 5.90341C234.417 6.13068 234.591 6.3125 234.809 6.44886C235.031 6.58239 235.284 6.64915 235.568 6.64915C235.781 6.64915 235.978 6.60937 236.16 6.52983C236.342 6.45028 236.5 6.34091 236.633 6.2017C236.77 6.05966 236.876 5.89631 236.953 5.71165C237.029 5.52699 237.068 5.33097 237.068 5.12358C237.065 4.84801 237 4.59517 236.872 4.36506C236.744 4.13494 236.568 3.95028 236.343 3.81108C236.119 3.67187 235.866 3.60227 235.585 3.60227Z" fill="white"/>
<path d="M157.933 30.1193C157.297 30.1193 156.73 30.0099 156.233 29.7912C155.739 29.5696 155.348 29.2656 155.061 28.8793C154.777 28.4901 154.631 28.0412 154.622 27.5327H156.48C156.491 27.7457 156.561 27.9332 156.689 28.0952C156.82 28.2543 156.993 28.3778 157.209 28.4659C157.425 28.554 157.668 28.598 157.938 28.598C158.219 28.598 158.467 28.5483 158.683 28.4489C158.899 28.3494 159.068 28.2116 159.19 28.0355C159.313 27.8594 159.374 27.6562 159.374 27.4261C159.374 27.1932 159.308 26.9872 159.178 26.8082C159.05 26.6264 158.865 26.4844 158.624 26.3821C158.385 26.2798 158.101 26.2287 157.771 26.2287H156.957V24.8736H157.771C158.05 24.8736 158.295 24.8253 158.509 24.7287C158.724 24.6321 158.892 24.4986 159.011 24.3281C159.131 24.1548 159.19 23.9531 159.19 23.723C159.19 23.5043 159.138 23.3125 159.033 23.1477C158.93 22.9801 158.786 22.8494 158.598 22.7557C158.413 22.6619 158.197 22.6151 157.95 22.6151C157.7 22.6151 157.472 22.6605 157.264 22.7514C157.057 22.8395 156.891 22.9659 156.766 23.1307C156.641 23.2955 156.574 23.4886 156.565 23.7102H154.797C154.805 23.2074 154.949 22.7642 155.227 22.3807C155.506 21.9972 155.881 21.6974 156.352 21.4815C156.827 21.2628 157.362 21.1534 157.959 21.1534C158.561 21.1534 159.088 21.2628 159.54 21.4815C159.991 21.7003 160.342 21.9957 160.592 22.3679C160.845 22.7372 160.97 23.152 160.967 23.6122C160.97 24.1009 160.818 24.5085 160.511 24.8352C160.207 25.1619 159.811 25.3693 159.322 25.4574V25.5256C159.964 25.608 160.453 25.831 160.788 26.1946C161.126 26.5554 161.294 27.0071 161.291 27.5497C161.294 28.0469 161.151 28.4886 160.861 28.875C160.574 29.2614 160.178 29.5653 159.672 29.7869C159.166 30.0085 158.587 30.1193 157.933 30.1193ZM164.362 28.8068L164.315 29.2756C164.278 29.6506 164.207 30.0241 164.102 30.3963C163.999 30.7713 163.891 31.1108 163.778 31.4148C163.667 31.7188 163.577 31.9574 163.509 32.1307H162.333C162.376 31.9631 162.434 31.7287 162.508 31.4276C162.582 31.1293 162.651 30.794 162.717 30.4219C162.782 30.0497 162.823 29.6705 162.84 29.2841L162.862 28.8068H164.362ZM166.021 30L169.639 22.8409V22.7812H165.425V21.2727H171.548V22.8026L167.926 30H166.021ZM171.978 28.4659V27.0128L175.621 21.2727H176.874V23.2841H176.132L173.836 26.919V26.9872H179.013V28.4659H171.978ZM176.167 30V28.0227L176.201 27.3793V21.2727H177.931V30H176.167ZM183.592 30.1193C183.143 30.1165 182.71 30.0412 182.292 29.8935C181.877 29.7457 181.505 29.5057 181.176 29.1733C180.846 28.8409 180.585 28.4006 180.392 27.8523C180.201 27.304 180.106 26.6307 180.106 25.8324C180.109 25.0994 180.193 24.4446 180.358 23.8679C180.525 23.2884 180.764 22.7969 181.074 22.3935C181.386 21.9901 181.76 21.6832 182.194 21.473C182.629 21.2599 183.116 21.1534 183.656 21.1534C184.238 21.1534 184.752 21.267 185.199 21.4943C185.645 21.7187 186.002 22.0241 186.272 22.4105C186.545 22.7969 186.71 23.2301 186.767 23.7102H184.947C184.876 23.4062 184.727 23.1676 184.5 22.9943C184.272 22.821 183.991 22.7344 183.656 22.7344C183.088 22.7344 182.656 22.9815 182.36 23.4759C182.068 23.9702 181.919 24.642 181.913 25.4915H181.973C182.103 25.233 182.279 25.0128 182.501 24.831C182.725 24.6463 182.98 24.5057 183.264 24.4091C183.551 24.3097 183.853 24.2599 184.172 24.2599C184.689 24.2599 185.149 24.3821 185.552 24.6264C185.956 24.8679 186.274 25.2003 186.507 25.6236C186.74 26.0469 186.856 26.5312 186.856 27.0767C186.856 27.6676 186.718 28.1932 186.443 28.6534C186.17 29.1136 185.788 29.4744 185.297 29.7358C184.808 29.9943 184.24 30.1222 183.592 30.1193ZM183.583 28.6705C183.868 28.6705 184.122 28.6023 184.346 28.4659C184.571 28.3295 184.747 28.1449 184.875 27.9119C185.002 27.679 185.066 27.4176 185.066 27.1278C185.066 26.8381 185.002 26.5781 184.875 26.348C184.75 26.1179 184.576 25.9347 184.355 25.7983C184.133 25.6619 183.88 25.5938 183.596 25.5938C183.383 25.5938 183.186 25.6335 183.004 25.7131C182.825 25.7926 182.667 25.9034 182.531 26.0455C182.397 26.1875 182.292 26.3523 182.216 26.5398C182.139 26.7244 182.1 26.9219 182.1 27.1321C182.1 27.4134 182.164 27.6705 182.292 27.9034C182.423 28.1364 182.599 28.3224 182.821 28.4616C183.045 28.6009 183.299 28.6705 183.583 28.6705ZM191.091 30V23.4545H192.322V24.4943H192.391C192.51 24.142 192.72 23.8651 193.021 23.6634C193.325 23.4588 193.669 23.3565 194.053 23.3565C194.132 23.3565 194.226 23.3594 194.334 23.3651C194.445 23.3707 194.531 23.3778 194.594 23.3864V24.6051C194.543 24.5909 194.452 24.5753 194.321 24.5582C194.19 24.5384 194.06 24.5284 193.929 24.5284C193.628 24.5284 193.359 24.5923 193.124 24.7202C192.891 24.8452 192.706 25.0199 192.57 25.2443C192.433 25.4659 192.365 25.7187 192.365 26.0028V30H191.091ZM198.283 30.1321C197.638 30.1321 197.083 29.9943 196.617 29.7188C196.154 29.4403 195.796 29.0497 195.543 28.5469C195.293 28.0412 195.168 27.4489 195.168 26.7699C195.168 26.0994 195.293 25.5085 195.543 24.9972C195.796 24.4858 196.148 24.0866 196.6 23.7997C197.054 23.5128 197.586 23.3693 198.194 23.3693C198.563 23.3693 198.921 23.4304 199.267 23.5526C199.614 23.6747 199.925 23.8665 200.201 24.1278C200.476 24.3892 200.694 24.7287 200.853 25.1463C201.012 25.5611 201.091 26.0653 201.091 26.6591V27.1108H195.888V26.1562H199.843C199.843 25.821 199.775 25.5241 199.638 25.2656C199.502 25.0043 199.31 24.7983 199.063 24.6477C198.819 24.4972 198.532 24.4219 198.202 24.4219C197.844 24.4219 197.532 24.5099 197.265 24.6861C197 24.8594 196.796 25.0866 196.651 25.3679C196.509 25.6463 196.438 25.9489 196.438 26.2756V27.0213C196.438 27.4588 196.515 27.831 196.668 28.1378C196.824 28.4446 197.042 28.679 197.32 28.8409C197.598 29 197.924 29.0795 198.296 29.0795C198.537 29.0795 198.757 29.0455 198.956 28.9773C199.155 28.9062 199.327 28.8011 199.472 28.6619C199.617 28.5227 199.728 28.3509 199.804 28.1463L201.01 28.3636C200.914 28.7187 200.74 29.0298 200.49 29.2969C200.243 29.5611 199.932 29.767 199.557 29.9148C199.185 30.0597 198.76 30.1321 198.283 30.1321ZM207.917 23.4545L205.543 30H204.18L201.802 23.4545H203.17L204.827 28.4915H204.896L206.549 23.4545H207.917ZM209.114 30V23.4545H210.388V30H209.114ZM209.758 22.4446C209.536 22.4446 209.346 22.3707 209.187 22.223C209.031 22.0724 208.952 21.8935 208.952 21.6861C208.952 21.4759 209.031 21.2969 209.187 21.1491C209.346 20.9986 209.536 20.9233 209.758 20.9233C209.979 20.9233 210.168 20.9986 210.325 21.1491C210.484 21.2969 210.563 21.4759 210.563 21.6861C210.563 21.8935 210.484 22.0724 210.325 22.223C210.168 22.3707 209.979 22.4446 209.758 22.4446ZM214.924 30.1321C214.279 30.1321 213.723 29.9943 213.257 29.7188C212.794 29.4403 212.436 29.0497 212.184 28.5469C211.934 28.0412 211.809 27.4489 211.809 26.7699C211.809 26.0994 211.934 25.5085 212.184 24.9972C212.436 24.4858 212.789 24.0866 213.24 23.7997C213.695 23.5128 214.226 23.3693 214.834 23.3693C215.203 23.3693 215.561 23.4304 215.908 23.5526C216.255 23.6747 216.566 23.8665 216.841 24.1278C217.117 24.3892 217.334 24.7287 217.493 25.1463C217.652 25.5611 217.732 26.0653 217.732 26.6591V27.1108H212.529V26.1562H216.483C216.483 25.821 216.415 25.5241 216.279 25.2656C216.142 25.0043 215.951 24.7983 215.703 24.6477C215.459 24.4972 215.172 24.4219 214.843 24.4219C214.485 24.4219 214.172 24.5099 213.905 24.6861C213.641 24.8594 213.436 25.0866 213.292 25.3679C213.15 25.6463 213.078 25.9489 213.078 26.2756V27.0213C213.078 27.4588 213.155 27.831 213.309 28.1378C213.465 28.4446 213.682 28.679 213.961 28.8409C214.239 29 214.564 29.0795 214.936 29.0795C215.178 29.0795 215.398 29.0455 215.597 28.9773C215.796 28.9062 215.968 28.8011 216.113 28.6619C216.257 28.5227 216.368 28.3509 216.445 28.1463L217.651 28.3636C217.554 28.7187 217.381 29.0298 217.131 29.2969C216.884 29.5611 216.573 29.767 216.198 29.9148C215.826 30.0597 215.401 30.1321 214.924 30.1321ZM220.553 30L218.627 23.4545H219.944L221.226 28.2614H221.29L222.577 23.4545H223.894L225.172 28.2401H225.236L226.51 23.4545H227.827L225.905 30H224.605L223.276 25.2741H223.178L221.848 30H220.553ZM233.941 25.0526L232.786 25.2571C232.738 25.1094 232.661 24.9687 232.556 24.8352C232.454 24.7017 232.315 24.5923 232.138 24.5071C231.962 24.4219 231.742 24.3793 231.478 24.3793C231.117 24.3793 230.816 24.4602 230.575 24.6222C230.333 24.7812 230.212 24.9872 230.212 25.2401C230.212 25.4588 230.293 25.6349 230.455 25.7685C230.617 25.902 230.879 26.0114 231.239 26.0966L232.279 26.3352C232.881 26.4744 233.33 26.6889 233.626 26.9787C233.921 27.2685 234.069 27.6449 234.069 28.108C234.069 28.5 233.955 28.8494 233.728 29.1562C233.504 29.4602 233.19 29.6989 232.786 29.8722C232.386 30.0455 231.921 30.1321 231.393 30.1321C230.66 30.1321 230.062 29.9759 229.599 29.6634C229.136 29.348 228.852 28.9006 228.746 28.321L229.978 28.1335C230.055 28.4545 230.212 28.6974 230.451 28.8622C230.69 29.0241 231.001 29.1051 231.384 29.1051C231.802 29.1051 232.136 29.0185 232.386 28.8452C232.636 28.669 232.761 28.4545 232.761 28.2017C232.761 27.9972 232.684 27.8253 232.531 27.6861C232.38 27.5469 232.148 27.4418 231.836 27.3707L230.728 27.1278C230.117 26.9886 229.665 26.767 229.373 26.4631C229.083 26.1591 228.938 25.7741 228.938 25.3082C228.938 24.9219 229.046 24.5838 229.262 24.294C229.478 24.0043 229.776 23.7784 230.157 23.6165C230.538 23.4517 230.974 23.3693 231.465 23.3693C232.173 23.3693 232.729 23.5227 233.136 23.8295C233.542 24.1335 233.81 24.5412 233.941 25.0526Z" fill="white"/>
<path d="M154 32.3864H190.24V33.2045H154V32.3864Z" fill="white"/>
<path d="M190.234 32.3864H234.61V33.2045H190.234V32.3864Z" fill="white"/>
<path d="M241 24L244 27L241 30" stroke="white" stroke-width="1.5" stroke-linecap="round" stroke-linejoin="round"/>
<defs>
<clipPath id="clip0_101_640">
<rect width="142" height="27" fill="white" transform="translate(0 3)"/>
</clipPath>
</defs>
</svg>
