<svg width="142" height="27" viewBox="0 0 142 27" fill="none" xmlns="http://www.w3.org/2000/svg">
<path d="M0.0373535 26.1865H26.261V0H0.0373535V26.1865Z" fill="#2DAF6B"/>
<path d="M22.3909 11.1414L7.51711 21.931L9.68748 15.2627L4.0061 11.1414H11.0286L13.1985 4.47266L15.3684 11.1414H22.3909ZM13.199 17.8102L17.2611 16.957L18.8795 21.931L13.199 17.8102Z" fill="white"/>
<path d="M29.2617 26.1865H55.4854V0H29.2617V26.1865Z" fill="#2DAF6B"/>
<path d="M29.2617 26.1865H42.3735V0H29.2617V26.1865Z" fill="#2DAF6B"/>
<path d="M42.6878 17.7089L46.1711 16.9572L47.7821 22.0442L42.3196 17.9731L36.6441 22.0442L38.8469 15.3517L33.0801 11.2155H40.2081L42.41 4.52246L44.6128 11.2155H51.7403L42.6878 17.7089Z" fill="white"/>
<path d="M58.4863 26.1865H84.71V0H58.4863V26.1865Z" fill="#2DAF6B"/>
<path d="M58.4863 26.1865H71.5982V0H58.4863V26.1865Z" fill="#2DAF6B"/>
<path d="M80.8419 11.1414L65.9682 21.931L68.1385 15.2627L62.4572 11.1414H69.4796L71.6495 4.47266L73.8195 11.1414L80.8419 11.1414ZM71.6501 17.8102L75.7121 16.957L77.3306 21.931L71.6501 17.8102Z" fill="white"/>
<path d="M87.7109 26.1865H113.935V0H87.7109V26.1865Z" fill="#2DAF6B"/>
<path d="M87.7109 26.1865H100.823V0H87.7109V26.1865Z" fill="#2DAF6B"/>
<path d="M110.064 11.1414L95.1911 21.931L97.3611 15.2627L91.6797 11.1414H98.7022L100.872 4.47266L103.042 11.1414L110.064 11.1414ZM100.873 17.8102L104.935 16.957L106.553 21.931L100.873 17.8102Z" fill="white"/>
<path d="M116.936 26.1865H143.159V0H116.936V26.1865Z" fill="#2DAF6B"/>
<path d="M116.936 26.1865H130.047V0H116.936V26.1865Z" fill="#2DAF6B"/>
<path d="M139.289 11.1414L124.416 21.931L126.586 15.2627L120.904 11.1414H127.927L130.097 4.47266L132.267 11.1414H139.289ZM130.097 17.8102L134.159 16.957L135.778 21.931L130.097 17.8102Z" fill="white"/>
</svg>
