<svg width="350" height="144" viewBox="0 0 350 144" fill="none" xmlns="http://www.w3.org/2000/svg">
<path d="M8.52447 4.46353C8.67415 4.00287 9.32585 4.00287 9.47553 4.46353L10.9084 8.87336C10.9753 9.07937 11.1673 9.21885 11.3839 9.21885H16.0207C16.505 9.21885 16.7064 9.83865 16.3146 10.1234L12.5633 12.8488C12.3881 12.9761 12.3148 13.2018 12.3817 13.4078L13.8145 17.8176C13.9642 18.2783 13.437 18.6613 13.0451 18.3766L9.29389 15.6512C9.11865 15.5239 8.88135 15.5239 8.70611 15.6512L4.95488 18.3766C4.56303 18.6613 4.03578 18.2783 4.18546 17.8176L5.6183 13.4078C5.68524 13.2018 5.61191 12.9761 5.43667 12.8488L1.68544 10.1234C1.29358 9.83866 1.49497 9.21885 1.97933 9.21885H6.6161C6.83272 9.21885 7.02469 9.07937 7.09163 8.87336L8.52447 4.46353Z" fill="#FFB900"/>
<path d="M28.5245 4.46353C28.6741 4.00287 29.3259 4.00287 29.4755 4.46353L30.9084 8.87336C30.9753 9.07937 31.1673 9.21885 31.3839 9.21885H36.0207C36.505 9.21885 36.7064 9.83865 36.3146 10.1234L32.5633 12.8488C32.3881 12.9761 32.3148 13.2018 32.3817 13.4078L33.8145 17.8176C33.9642 18.2783 33.437 18.6613 33.0451 18.3766L29.2939 15.6512C29.1186 15.5239 28.8814 15.5239 28.7061 15.6512L24.9549 18.3766C24.563 18.6613 24.0358 18.2783 24.1855 17.8176L25.6183 13.4078C25.6852 13.2018 25.6119 12.9761 25.4367 12.8488L21.6854 10.1234C21.2936 9.83866 21.495 9.21885 21.9793 9.21885H26.6161C26.8327 9.21885 27.0247 9.07937 27.0916 8.87336L28.5245 4.46353Z" fill="#FFB900"/>
<path d="M48.5245 4.46353C48.6741 4.00287 49.3259 4.00287 49.4755 4.46353L50.9084 8.87336C50.9753 9.07937 51.1673 9.21885 51.3839 9.21885H56.0207C56.505 9.21885 56.7064 9.83865 56.3146 10.1234L52.5633 12.8488C52.3881 12.9761 52.3148 13.2018 52.3817 13.4078L53.8145 17.8176C53.9642 18.2783 53.437 18.6613 53.0451 18.3766L49.2939 15.6512C49.1186 15.5239 48.8814 15.5239 48.7061 15.6512L44.9549 18.3766C44.563 18.6613 44.0358 18.2783 44.1855 17.8176L45.6183 13.4078C45.6852 13.2018 45.6119 12.9761 45.4367 12.8488L41.6854 10.1234C41.2936 9.83866 41.495 9.21885 41.9793 9.21885H46.6161C46.8327 9.21885 47.0247 9.07937 47.0916 8.87336L48.5245 4.46353Z" fill="#FFB900"/>
<path d="M68.5245 4.46353C68.6741 4.00287 69.3259 4.00287 69.4755 4.46353L70.9084 8.87336C70.9753 9.07937 71.1673 9.21885 71.3839 9.21885H76.0207C76.505 9.21885 76.7064 9.83865 76.3146 10.1234L72.5633 12.8488C72.3881 12.9761 72.3148 13.2018 72.3817 13.4078L73.8145 17.8176C73.9642 18.2783 73.437 18.6613 73.0451 18.3766L69.2939 15.6512C69.1186 15.5239 68.8814 15.5239 68.7061 15.6512L64.9549 18.3766C64.563 18.6613 64.0358 18.2783 64.1855 17.8176L65.6183 13.4078C65.6852 13.2018 65.6119 12.9761 65.4367 12.8488L61.6854 10.1234C61.2936 9.83866 61.495 9.21885 61.9793 9.21885H66.6161C66.8327 9.21885 67.0247 9.07937 67.0916 8.87336L68.5245 4.46353Z" fill="#FFB900"/>
<path d="M88.5245 4.46353C88.6741 4.00287 89.3259 4.00287 89.4755 4.46353L90.9084 8.87336C90.9753 9.07937 91.1673 9.21885 91.3839 9.21885H96.0207C96.505 9.21885 96.7064 9.83865 96.3146 10.1234L92.5633 12.8488C92.3881 12.9761 92.3148 13.2018 92.3817 13.4078L93.8145 17.8176C93.9642 18.2783 93.437 18.6613 93.0451 18.3766L89.2939 15.6512C89.1186 15.5239 88.8814 15.5239 88.7061 15.6512L84.9549 18.3766C84.563 18.6613 84.0358 18.2783 84.1855 17.8176L85.6183 13.4078C85.6852 13.2018 85.6119 12.9761 85.4367 12.8488L81.6854 10.1234C81.2936 9.83866 81.495 9.21885 81.9793 9.21885H86.6161C86.8327 9.21885 87.0247 9.07937 87.0916 8.87336L88.5245 4.46353Z" fill="#FFB900"/>
<rect x="111" y="7" width="192" height="10" rx="5" fill="#E8ECF1"/>
<rect x="111" y="7" width="153" height="10" rx="5" fill="#2DAF6B"/>
<path d="M324.16 9.896C324.16 11.9653 323.616 13.6507 322.528 14.952C321.461 16.2213 320.091 16.9627 318.416 17.176L317.808 15.72C320.123 15.2613 321.515 13.96 321.984 11.816C321.493 12.488 320.784 12.824 319.856 12.824C318.917 12.824 318.117 12.4933 317.456 11.832C316.805 11.1813 316.48 10.3547 316.48 9.352C316.48 8.24267 316.859 7.34133 317.616 6.648C318.363 5.96533 319.221 5.624 320.192 5.624C321.419 5.624 322.384 6.01867 323.088 6.808C323.803 7.58667 324.16 8.616 324.16 9.896ZM322.208 9.88C322.208 9.176 322.027 8.6 321.664 8.152C321.301 7.69333 320.811 7.464 320.192 7.464C319.68 7.464 319.259 7.64 318.928 7.992C318.597 8.33333 318.432 8.744 318.432 9.224C318.432 9.74667 318.603 10.1893 318.944 10.552C319.296 10.9147 319.749 11.096 320.304 11.096C321.189 11.096 321.824 10.6907 322.208 9.88ZM329.531 10.328H329.835C330.24 10.328 330.582 10.1893 330.859 9.912C331.136 9.624 331.275 9.28267 331.275 8.888C331.275 8.44 331.126 8.09333 330.827 7.848C330.528 7.592 330.134 7.464 329.643 7.464C329.163 7.464 328.779 7.59733 328.491 7.864C328.203 8.13067 328.059 8.472 328.059 8.888C328.059 9.28267 328.198 9.624 328.475 9.912C328.763 10.1893 329.115 10.328 329.531 10.328ZM329.835 12.168H329.563C329.062 12.168 328.635 12.3173 328.283 12.616C327.931 12.904 327.755 13.2827 327.755 13.752C327.755 14.2107 327.926 14.5893 328.267 14.888C328.619 15.1867 329.083 15.336 329.659 15.336C330.288 15.336 330.768 15.192 331.099 14.904C331.44 14.616 331.606 14.232 331.595 13.752C331.584 13.2613 331.419 12.8773 331.099 12.6C330.779 12.312 330.358 12.168 329.835 12.168ZM325.787 14.104C325.787 13.4213 325.963 12.8293 326.315 12.328C326.667 11.816 327.131 11.464 327.707 11.272V11.224C327.238 11.0213 326.854 10.6853 326.555 10.216C326.256 9.736 326.107 9.18667 326.107 8.568C326.107 7.704 326.448 7 327.131 6.456C327.814 5.90133 328.656 5.624 329.659 5.624C330.672 5.624 331.52 5.90133 332.203 6.456C332.896 7 333.243 7.704 333.243 8.568C333.243 9.13333 333.083 9.66133 332.763 10.152C332.454 10.632 332.038 10.984 331.515 11.208V11.256C332.102 11.384 332.587 11.6933 332.971 12.184C333.355 12.664 333.547 13.2507 333.547 13.944C333.547 14.9467 333.179 15.736 332.443 16.312C331.728 16.888 330.806 17.176 329.675 17.176C328.544 17.176 327.616 16.8987 326.891 16.344C326.155 15.7787 325.787 15.032 325.787 14.104ZM338.213 11.368C337.285 11.368 336.527 11.1067 335.941 10.584C335.354 10.0613 335.061 9.368 335.061 8.504C335.061 7.65067 335.354 6.96267 335.941 6.44C336.527 5.91733 337.285 5.656 338.213 5.656C339.13 5.656 339.882 5.91733 340.469 6.44C341.066 6.97333 341.365 7.66133 341.365 8.504C341.365 9.35733 341.066 10.0507 340.469 10.584C339.882 11.1067 339.13 11.368 338.213 11.368ZM336.789 8.504C336.789 8.92 336.922 9.256 337.189 9.512C337.455 9.75733 337.797 9.88 338.213 9.88C338.639 9.88 338.986 9.75733 339.253 9.512C339.519 9.256 339.653 8.92 339.653 8.504C339.653 8.09867 339.514 7.77333 339.237 7.528C338.97 7.272 338.629 7.144 338.213 7.144C337.797 7.144 337.455 7.272 337.189 7.528C336.922 7.77333 336.789 8.09867 336.789 8.504ZM345.285 17.16C344.357 17.16 343.599 16.8987 343.013 16.376C342.426 15.8533 342.133 15.16 342.133 14.296C342.133 13.4427 342.426 12.7547 343.013 12.232C343.599 11.7093 344.357 11.448 345.285 11.448C346.202 11.448 346.954 11.7093 347.541 12.232C348.138 12.7653 348.437 13.4533 348.437 14.296C348.437 15.1493 348.138 15.8427 347.541 16.376C346.954 16.8987 346.202 17.16 345.285 17.16ZM343.861 14.296C343.861 14.712 343.994 15.048 344.261 15.304C344.527 15.5493 344.869 15.672 345.285 15.672C345.711 15.672 346.058 15.5493 346.325 15.304C346.591 15.048 346.725 14.712 346.725 14.296C346.725 13.8907 346.586 13.5653 346.309 13.32C346.042 13.064 345.701 12.936 345.285 12.936C344.869 12.936 344.527 13.064 344.261 13.32C343.994 13.5653 343.861 13.8907 343.861 14.296ZM338.245 17.176L337.189 16.44L345.269 5.624L346.309 6.408L338.245 17.176Z" fill="#5F6B7A"/>
<path d="M334.632 47H327.592V45.528C328.883 44.2693 329.773 43.3573 330.264 42.792C331.587 41.2773 332.248 40.0027 332.248 38.968C332.248 38.5093 332.125 38.152 331.88 37.896C331.635 37.64 331.283 37.512 330.824 37.512C330.003 37.512 329.464 38.0133 329.208 39.016L327.672 38.328C327.821 37.5067 328.195 36.8613 328.792 36.392C329.4 35.912 330.147 35.672 331.032 35.672C332.035 35.672 332.813 35.96 333.368 36.536C333.923 37.1013 334.2 37.7893 334.2 38.6C334.2 39.176 334.077 39.7893 333.832 40.44C333.587 41.0693 333.304 41.6187 332.984 42.088C332.653 42.5787 332.264 43.0587 331.816 43.528C331.432 43.9547 331.08 44.3173 330.76 44.616C330.6 44.7653 330.339 44.9893 329.976 45.288H334.632V47ZM339.135 41.368C338.207 41.368 337.449 41.1067 336.863 40.584C336.276 40.0613 335.983 39.368 335.983 38.504C335.983 37.6507 336.276 36.9627 336.863 36.44C337.449 35.9173 338.207 35.656 339.135 35.656C340.052 35.656 340.804 35.9173 341.391 36.44C341.988 36.9733 342.287 37.6613 342.287 38.504C342.287 39.3573 341.988 40.0507 341.391 40.584C340.804 41.1067 340.052 41.368 339.135 41.368ZM337.711 38.504C337.711 38.92 337.844 39.256 338.111 39.512C338.377 39.7573 338.719 39.88 339.135 39.88C339.561 39.88 339.908 39.7573 340.175 39.512C340.441 39.256 340.575 38.92 340.575 38.504C340.575 38.0987 340.436 37.7733 340.159 37.528C339.892 37.272 339.551 37.144 339.135 37.144C338.719 37.144 338.377 37.272 338.111 37.528C337.844 37.7733 337.711 38.0987 337.711 38.504ZM346.207 47.16C345.279 47.16 344.521 46.8987 343.935 46.376C343.348 45.8533 343.055 45.16 343.055 44.296C343.055 43.4427 343.348 42.7547 343.935 42.232C344.521 41.7093 345.279 41.448 346.207 41.448C347.124 41.448 347.876 41.7093 348.463 42.232C349.06 42.7653 349.359 43.4533 349.359 44.296C349.359 45.1493 349.06 45.8427 348.463 46.376C347.876 46.8987 347.124 47.16 346.207 47.16ZM344.783 44.296C344.783 44.712 344.916 45.048 345.183 45.304C345.449 45.5493 345.791 45.672 346.207 45.672C346.633 45.672 346.98 45.5493 347.247 45.304C347.513 45.048 347.647 44.712 347.647 44.296C347.647 43.8907 347.508 43.5653 347.231 43.32C346.964 43.064 346.623 42.936 346.207 42.936C345.791 42.936 345.449 43.064 345.183 43.32C344.916 43.5653 344.783 43.8907 344.783 44.296ZM339.167 47.176L338.111 46.44L346.191 35.624L347.231 36.408L339.167 47.176Z" fill="#5F6B7A"/>
<path d="M8.52447 34.4635C8.67415 34.0029 9.32585 34.0029 9.47553 34.4635L10.9084 38.8734C10.9753 39.0794 11.1673 39.2188 11.3839 39.2188H16.0207C16.505 39.2188 16.7064 39.8387 16.3146 40.1234L12.5633 42.8488C12.3881 42.9761 12.3148 43.2018 12.3817 43.4078L13.8145 47.8176C13.9642 48.2783 13.437 48.6613 13.0451 48.3766L9.29389 45.6512C9.11865 45.5239 8.88135 45.5239 8.70611 45.6512L4.95488 48.3766C4.56303 48.6613 4.03578 48.2783 4.18546 47.8176L5.6183 43.4078C5.68524 43.2018 5.61191 42.9761 5.43667 42.8488L1.68544 40.1234C1.29358 39.8387 1.49497 39.2188 1.97933 39.2188H6.6161C6.83272 39.2188 7.02469 39.0794 7.09163 38.8734L8.52447 34.4635Z" fill="#FFB900"/>
<path d="M28.5245 34.4635C28.6741 34.0029 29.3259 34.0029 29.4755 34.4635L30.9084 38.8734C30.9753 39.0794 31.1673 39.2188 31.3839 39.2188H36.0207C36.505 39.2188 36.7064 39.8387 36.3146 40.1234L32.5633 42.8488C32.3881 42.9761 32.3148 43.2018 32.3817 43.4078L33.8145 47.8176C33.9642 48.2783 33.437 48.6613 33.0451 48.3766L29.2939 45.6512C29.1186 45.5239 28.8814 45.5239 28.7061 45.6512L24.9549 48.3766C24.563 48.6613 24.0358 48.2783 24.1855 47.8176L25.6183 43.4078C25.6852 43.2018 25.6119 42.9761 25.4367 42.8488L21.6854 40.1234C21.2936 39.8387 21.495 39.2188 21.9793 39.2188H26.6161C26.8327 39.2188 27.0247 39.0794 27.0916 38.8734L28.5245 34.4635Z" fill="#FFB900"/>
<path d="M48.5245 34.4635C48.6741 34.0029 49.3259 34.0029 49.4755 34.4635L50.9084 38.8734C50.9753 39.0794 51.1673 39.2188 51.3839 39.2188H56.0207C56.505 39.2188 56.7064 39.8387 56.3146 40.1234L52.5633 42.8488C52.3881 42.9761 52.3148 43.2018 52.3817 43.4078L53.8145 47.8176C53.9642 48.2783 53.437 48.6613 53.0451 48.3766L49.2939 45.6512C49.1186 45.5239 48.8814 45.5239 48.7061 45.6512L44.9549 48.3766C44.563 48.6613 44.0358 48.2783 44.1855 47.8176L45.6183 43.4078C45.6852 43.2018 45.6119 42.9761 45.4367 42.8488L41.6854 40.1234C41.2936 39.8387 41.495 39.2188 41.9793 39.2188H46.6161C46.8327 39.2188 47.0247 39.0794 47.0916 38.8734L48.5245 34.4635Z" fill="#FFB900"/>
<path d="M68.5245 34.4635C68.6741 34.0029 69.3259 34.0029 69.4755 34.4635L70.9084 38.8734C70.9753 39.0794 71.1673 39.2188 71.3839 39.2188H76.0207C76.505 39.2188 76.7064 39.8387 76.3146 40.1234L72.5633 42.8488C72.3881 42.9761 72.3148 43.2018 72.3817 43.4078L73.8145 47.8176C73.9642 48.2783 73.437 48.6613 73.0451 48.3766L69.2939 45.6512C69.1186 45.5239 68.8814 45.5239 68.7061 45.6512L64.9549 48.3766C64.563 48.6613 64.0358 48.2783 64.1855 47.8176L65.6183 43.4078C65.6852 43.2018 65.6119 42.9761 65.4367 42.8488L61.6854 40.1234C61.2936 39.8387 61.495 39.2188 61.9793 39.2188H66.6161C66.8327 39.2188 67.0247 39.0794 67.0916 38.8734L68.5245 34.4635Z" fill="#FFB900"/>
<path d="M89 34.618L90.4328 39.0279C90.5667 39.4399 90.9507 39.7188 91.3839 39.7188H96.0207L92.2694 42.4443C91.919 42.6989 91.7723 43.1503 91.9062 43.5623L93.339 47.9721L89.5878 45.2467C89.2373 44.9921 88.7627 44.9921 88.4122 45.2467L84.661 47.9721L86.0938 43.5623C86.2277 43.1503 86.081 42.6989 85.7306 42.4443L81.9793 39.7188H86.6161C87.0493 39.7188 87.4333 39.4399 87.5672 39.0279L89 34.618Z" fill="#E8ECF1" stroke="#E8ECF1"/>
<rect x="111" y="37" width="192" height="10" rx="5" fill="#E8ECF1"/>
<rect x="111" y="37" width="20" height="10" rx="5" fill="#2DAF6B"/>
<path d="M325.208 73.944V75.944L317.784 71.608V70.824L325.208 66.52V68.504L320.312 71.208L325.208 73.944ZM334.163 77H327.123V75.528C328.414 74.2693 329.305 73.3573 329.795 72.792C331.118 71.2773 331.779 70.0027 331.779 68.968C331.779 68.5093 331.657 68.152 331.411 67.896C331.166 67.64 330.814 67.512 330.355 67.512C329.534 67.512 328.995 68.0133 328.739 69.016L327.203 68.328C327.353 67.5067 327.726 66.8613 328.323 66.392C328.931 65.912 329.678 65.672 330.563 65.672C331.566 65.672 332.345 65.96 332.899 66.536C333.454 67.1013 333.731 67.7893 333.731 68.6C333.731 69.176 333.609 69.7893 333.363 70.44C333.118 71.0693 332.835 71.6187 332.515 72.088C332.185 72.5787 331.795 73.0587 331.347 73.528C330.963 73.9547 330.611 74.3173 330.291 74.616C330.131 74.7653 329.87 74.9893 329.507 75.288H334.163V77ZM338.666 71.368C337.738 71.368 336.981 71.1067 336.394 70.584C335.807 70.0613 335.514 69.368 335.514 68.504C335.514 67.6507 335.807 66.9627 336.394 66.44C336.981 65.9173 337.738 65.656 338.666 65.656C339.583 65.656 340.335 65.9173 340.922 66.44C341.519 66.9733 341.818 67.6613 341.818 68.504C341.818 69.3573 341.519 70.0507 340.922 70.584C340.335 71.1067 339.583 71.368 338.666 71.368ZM337.242 68.504C337.242 68.92 337.375 69.256 337.642 69.512C337.909 69.7573 338.25 69.88 338.666 69.88C339.093 69.88 339.439 69.7573 339.706 69.512C339.973 69.256 340.106 68.92 340.106 68.504C340.106 68.0987 339.967 67.7733 339.69 67.528C339.423 67.272 339.082 67.144 338.666 67.144C338.25 67.144 337.909 67.272 337.642 67.528C337.375 67.7733 337.242 68.0987 337.242 68.504ZM345.738 77.16C344.81 77.16 344.053 76.8987 343.466 76.376C342.879 75.8533 342.586 75.16 342.586 74.296C342.586 73.4427 342.879 72.7547 343.466 72.232C344.053 71.7093 344.81 71.448 345.738 71.448C346.655 71.448 347.407 71.7093 347.994 72.232C348.591 72.7653 348.89 73.4533 348.89 74.296C348.89 75.1493 348.591 75.8427 347.994 76.376C347.407 76.8987 346.655 77.16 345.738 77.16ZM344.314 74.296C344.314 74.712 344.447 75.048 344.714 75.304C344.981 75.5493 345.322 75.672 345.738 75.672C346.165 75.672 346.511 75.5493 346.778 75.304C347.045 75.048 347.178 74.712 347.178 74.296C347.178 73.8907 347.039 73.5653 346.762 73.32C346.495 73.064 346.154 72.936 345.738 72.936C345.322 72.936 344.981 73.064 344.714 73.32C344.447 73.5653 344.314 73.8907 344.314 74.296ZM338.698 77.176L337.642 76.44L345.722 65.624L346.762 66.408L338.698 77.176Z" fill="#5F6B7A"/>
<path d="M8.52447 64.4635C8.67415 64.0029 9.32585 64.0029 9.47553 64.4635L10.9084 68.8734C10.9753 69.0794 11.1673 69.2188 11.3839 69.2188H16.0207C16.505 69.2188 16.7064 69.8387 16.3146 70.1234L12.5633 72.8488C12.3881 72.9761 12.3148 73.2018 12.3817 73.4078L13.8145 77.8176C13.9642 78.2783 13.437 78.6613 13.0451 78.3766L9.29389 75.6512C9.11865 75.5239 8.88135 75.5239 8.70611 75.6512L4.95488 78.3766C4.56303 78.6613 4.03578 78.2783 4.18546 77.8176L5.6183 73.4078C5.68524 73.2018 5.61191 72.9761 5.43667 72.8488L1.68544 70.1234C1.29358 69.8387 1.49497 69.2188 1.97933 69.2188H6.6161C6.83272 69.2188 7.02469 69.0794 7.09163 68.8734L8.52447 64.4635Z" fill="#FFB900"/>
<path d="M28.5245 64.4635C28.6741 64.0029 29.3259 64.0029 29.4755 64.4635L30.9084 68.8734C30.9753 69.0794 31.1673 69.2188 31.3839 69.2188H36.0207C36.505 69.2188 36.7064 69.8387 36.3146 70.1234L32.5633 72.8488C32.3881 72.9761 32.3148 73.2018 32.3817 73.4078L33.8145 77.8176C33.9642 78.2783 33.437 78.6613 33.0451 78.3766L29.2939 75.6512C29.1186 75.5239 28.8814 75.5239 28.7061 75.6512L24.9549 78.3766C24.563 78.6613 24.0358 78.2783 24.1855 77.8176L25.6183 73.4078C25.6852 73.2018 25.6119 72.9761 25.4367 72.8488L21.6854 70.1234C21.2936 69.8387 21.495 69.2188 21.9793 69.2188H26.6161C26.8327 69.2188 27.0247 69.0794 27.0916 68.8734L28.5245 64.4635Z" fill="#FFB900"/>
<path d="M48.5245 64.4635C48.6741 64.0029 49.3259 64.0029 49.4755 64.4635L50.9084 68.8734C50.9753 69.0794 51.1673 69.2188 51.3839 69.2188H56.0207C56.505 69.2188 56.7064 69.8387 56.3146 70.1234L52.5633 72.8488C52.3881 72.9761 52.3148 73.2018 52.3817 73.4078L53.8145 77.8176C53.9642 78.2783 53.437 78.6613 53.0451 78.3766L49.2939 75.6512C49.1186 75.5239 48.8814 75.5239 48.7061 75.6512L44.9549 78.3766C44.563 78.6613 44.0358 78.2783 44.1855 77.8176L45.6183 73.4078C45.6852 73.2018 45.6119 72.9761 45.4367 72.8488L41.6854 70.1234C41.2936 69.8387 41.495 69.2188 41.9793 69.2188H46.6161C46.8327 69.2188 47.0247 69.0794 47.0916 68.8734L48.5245 64.4635Z" fill="#FFB900"/>
<path d="M69 64.618L70.4328 69.0279C70.5667 69.4399 70.9507 69.7188 71.3839 69.7188H76.0207L72.2694 72.4443C71.919 72.6989 71.7723 73.1503 71.9062 73.5623L73.339 77.9721L69.5878 75.2467C69.2373 74.9921 68.7627 74.9921 68.4122 75.2467L64.661 77.9721L66.0938 73.5623C66.2277 73.1503 66.081 72.6989 65.7306 72.4443L61.9793 69.7188H66.6161C67.0493 69.7188 67.4333 69.4399 67.5672 69.0279L69 64.618Z" fill="#E8ECF1" stroke="#E8ECF1"/>
<path d="M89 64.618L90.4328 69.0279C90.5667 69.4399 90.9507 69.7188 91.3839 69.7188H96.0207L92.2694 72.4443C91.919 72.6989 91.7723 73.1503 91.9062 73.5623L93.339 77.9721L89.5878 75.2467C89.2373 74.9921 88.7627 74.9921 88.4122 75.2467L84.661 77.9721L86.0938 73.5623C86.2277 73.1503 86.081 72.6989 85.7306 72.4443L81.9793 69.7188H86.6161C87.0493 69.7188 87.4333 69.4399 87.5672 69.0279L89 64.618Z" fill="#E8ECF1" stroke="#E8ECF1"/>
<rect x="111" y="67" width="192" height="10" rx="5" fill="#E8ECF1"/>
<rect x="111" y="67" width="16" height="10" rx="5" fill="#2DAF6B"/>
<path d="M327.208 105.944L319.784 101.608V100.824L327.208 96.52V98.504L322.312 101.208L327.208 103.944V105.944ZM328.883 97.912L331.747 95.768H333.075V107H331.235V98.392L329.859 99.432L328.883 97.912ZM337.47 106.44L345.55 95.624L346.59 96.408L338.526 107.176L337.47 106.44ZM336.222 100.584C335.635 100.051 335.342 99.3573 335.342 98.504C335.342 97.6507 335.635 96.9627 336.222 96.44C336.819 95.9173 337.577 95.656 338.494 95.656C339.411 95.656 340.163 95.9173 340.75 96.44C341.347 96.9627 341.646 97.6507 341.646 98.504C341.646 99.3573 341.347 100.051 340.75 100.584C340.163 101.107 339.411 101.368 338.494 101.368C337.577 101.368 336.819 101.107 336.222 100.584ZM337.07 98.504C337.07 98.92 337.203 99.256 337.47 99.512C337.747 99.7573 338.089 99.88 338.494 99.88C338.921 99.88 339.267 99.7573 339.534 99.512C339.801 99.256 339.934 98.92 339.934 98.504C339.934 98.0987 339.795 97.7733 339.518 97.528C339.251 97.272 338.91 97.144 338.494 97.144C338.089 97.144 337.747 97.272 337.47 97.528C337.203 97.7733 337.07 98.0987 337.07 98.504ZM343.294 106.376C342.707 105.843 342.414 105.149 342.414 104.296C342.414 103.443 342.707 102.755 343.294 102.232C343.891 101.709 344.649 101.448 345.566 101.448C346.483 101.448 347.235 101.709 347.822 102.232C348.419 102.755 348.718 103.443 348.718 104.296C348.718 105.149 348.419 105.843 347.822 106.376C347.235 106.899 346.483 107.16 345.566 107.16C344.649 107.16 343.891 106.899 343.294 106.376ZM344.142 104.296C344.142 104.712 344.275 105.048 344.542 105.304C344.819 105.549 345.161 105.672 345.566 105.672C345.993 105.672 346.339 105.549 346.606 105.304C346.873 105.048 347.006 104.712 347.006 104.296C347.006 103.891 346.867 103.565 346.59 103.32C346.323 103.064 345.982 102.936 345.566 102.936C345.161 102.936 344.819 103.064 344.542 103.32C344.275 103.565 344.142 103.891 344.142 104.296Z" fill="#5F6B7A"/>
<path d="M8.52447 94.4635C8.67415 94.0029 9.32585 94.0029 9.47553 94.4635L10.9084 98.8734C10.9753 99.0794 11.1673 99.2188 11.3839 99.2188H16.0207C16.505 99.2188 16.7064 99.8387 16.3146 100.123L12.5633 102.849C12.3881 102.976 12.3148 103.202 12.3817 103.408L13.8145 107.818C13.9642 108.278 13.437 108.661 13.0451 108.377L9.29389 105.651C9.11865 105.524 8.88135 105.524 8.70611 105.651L4.95488 108.377C4.56303 108.661 4.03578 108.278 4.18546 107.818L5.6183 103.408C5.68524 103.202 5.61191 102.976 5.43667 102.849L1.68544 100.123C1.29358 99.8387 1.49497 99.2188 1.97933 99.2188H6.6161C6.83272 99.2188 7.02469 99.0794 7.09163 98.8734L8.52447 94.4635Z" fill="#FFB900"/>
<path d="M28.5245 94.4635C28.6741 94.0029 29.3259 94.0029 29.4755 94.4635L30.9084 98.8734C30.9753 99.0794 31.1673 99.2188 31.3839 99.2188H36.0207C36.505 99.2188 36.7064 99.8387 36.3146 100.123L32.5633 102.849C32.3881 102.976 32.3148 103.202 32.3817 103.408L33.8145 107.818C33.9642 108.278 33.437 108.661 33.0451 108.377L29.2939 105.651C29.1186 105.524 28.8814 105.524 28.7061 105.651L24.9549 108.377C24.563 108.661 24.0358 108.278 24.1855 107.818L25.6183 103.408C25.6852 103.202 25.6119 102.976 25.4367 102.849L21.6854 100.123C21.2936 99.8387 21.495 99.2188 21.9793 99.2188H26.6161C26.8327 99.2188 27.0247 99.0794 27.0916 98.8734L28.5245 94.4635Z" fill="#FFB900"/>
<path d="M49 94.618L50.4328 99.0279C50.5667 99.4399 50.9507 99.7188 51.3839 99.7188H56.0207L52.2694 102.444C51.919 102.699 51.7723 103.15 51.9062 103.562L53.339 107.972L49.5878 105.247C49.2373 104.992 48.7627 104.992 48.4122 105.247L44.661 107.972L46.0938 103.562C46.2277 103.15 46.081 102.699 45.7306 102.444L41.9793 99.7188H46.6161C47.0493 99.7188 47.4333 99.4399 47.5672 99.0279L49 94.618Z" fill="#E8ECF1" stroke="#E8ECF1"/>
<path d="M69 94.618L70.4328 99.0279C70.5667 99.4399 70.9507 99.7188 71.3839 99.7188H76.0207L72.2694 102.444C71.919 102.699 71.7723 103.15 71.9062 103.562L73.339 107.972L69.5878 105.247C69.2373 104.992 68.7627 104.992 68.4122 105.247L64.661 107.972L66.0938 103.562C66.2277 103.15 66.081 102.699 65.7306 102.444L61.9793 99.7188H66.6161C67.0493 99.7188 67.4333 99.4399 67.5672 99.0279L69 94.618Z" fill="#E8ECF1" stroke="#E8ECF1"/>
<path d="M89 94.618L90.4328 99.0279C90.5667 99.4399 90.9507 99.7188 91.3839 99.7188H96.0207L92.2694 102.444C91.919 102.699 91.7723 103.15 91.9062 103.562L93.339 107.972L89.5878 105.247C89.2373 104.992 88.7627 104.992 88.4122 105.247L84.661 107.972L86.0938 103.562C86.2277 103.15 86.081 102.699 85.7306 102.444L81.9793 99.7188H86.6161C87.0493 99.7188 87.4333 99.4399 87.5672 99.0279L89 94.618Z" fill="#E8ECF1" stroke="#E8ECF1"/>
<rect x="111" y="97" width="192" height="10" rx="5" fill="#E8ECF1"/>
<rect x="111" y="97" width="16" height="10" rx="5" fill="#2DAF6B"/>
<path d="M327.208 135.944L319.784 131.608V130.824L327.208 126.52V128.504L322.312 131.208L327.208 133.944V135.944ZM328.883 127.912L331.747 125.768H333.075V137H331.235V128.392L329.859 129.432L328.883 127.912ZM337.47 136.44L345.55 125.624L346.59 126.408L338.526 137.176L337.47 136.44ZM336.222 130.584C335.635 130.051 335.342 129.357 335.342 128.504C335.342 127.651 335.635 126.963 336.222 126.44C336.819 125.917 337.577 125.656 338.494 125.656C339.411 125.656 340.163 125.917 340.75 126.44C341.347 126.963 341.646 127.651 341.646 128.504C341.646 129.357 341.347 130.051 340.75 130.584C340.163 131.107 339.411 131.368 338.494 131.368C337.577 131.368 336.819 131.107 336.222 130.584ZM337.07 128.504C337.07 128.92 337.203 129.256 337.47 129.512C337.747 129.757 338.089 129.88 338.494 129.88C338.921 129.88 339.267 129.757 339.534 129.512C339.801 129.256 339.934 128.92 339.934 128.504C339.934 128.099 339.795 127.773 339.518 127.528C339.251 127.272 338.91 127.144 338.494 127.144C338.089 127.144 337.747 127.272 337.47 127.528C337.203 127.773 337.07 128.099 337.07 128.504ZM343.294 136.376C342.707 135.843 342.414 135.149 342.414 134.296C342.414 133.443 342.707 132.755 343.294 132.232C343.891 131.709 344.649 131.448 345.566 131.448C346.483 131.448 347.235 131.709 347.822 132.232C348.419 132.755 348.718 133.443 348.718 134.296C348.718 135.149 348.419 135.843 347.822 136.376C347.235 136.899 346.483 137.16 345.566 137.16C344.649 137.16 343.891 136.899 343.294 136.376ZM344.142 134.296C344.142 134.712 344.275 135.048 344.542 135.304C344.819 135.549 345.161 135.672 345.566 135.672C345.993 135.672 346.339 135.549 346.606 135.304C346.873 135.048 347.006 134.712 347.006 134.296C347.006 133.891 346.867 133.565 346.59 133.32C346.323 133.064 345.982 132.936 345.566 132.936C345.161 132.936 344.819 133.064 344.542 133.32C344.275 133.565 344.142 133.891 344.142 134.296Z" fill="#5F6B7A"/>
<path d="M8.52447 124.464C8.67415 124.003 9.32585 124.003 9.47553 124.464L10.9084 128.873C10.9753 129.079 11.1673 129.219 11.3839 129.219H16.0207C16.505 129.219 16.7064 129.839 16.3146 130.123L12.5633 132.849C12.3881 132.976 12.3148 133.202 12.3817 133.408L13.8145 137.818C13.9642 138.278 13.437 138.661 13.0451 138.377L9.29389 135.651C9.11865 135.524 8.88135 135.524 8.70611 135.651L4.95488 138.377C4.56303 138.661 4.03578 138.278 4.18546 137.818L5.6183 133.408C5.68524 133.202 5.61191 132.976 5.43667 132.849L1.68544 130.123C1.29358 129.839 1.49497 129.219 1.97933 129.219H6.6161C6.83272 129.219 7.02469 129.079 7.09163 128.873L8.52447 124.464Z" fill="#FFB900"/>
<path d="M29 124.618L30.4328 129.028C30.5667 129.44 30.9507 129.719 31.3839 129.719H36.0207L32.2694 132.444C31.919 132.699 31.7723 133.15 31.9062 133.562L33.339 137.972L29.5878 135.247C29.2373 134.992 28.7627 134.992 28.4122 135.247L24.661 137.972L26.0938 133.562C26.2277 133.15 26.081 132.699 25.7306 132.444L21.9793 129.719H26.6161C27.0493 129.719 27.4333 129.44 27.5672 129.028L29 124.618Z" fill="#E8ECF1" stroke="#E8ECF1"/>
<path d="M49 124.618L50.4328 129.028C50.5667 129.44 50.9507 129.719 51.3839 129.719H56.0207L52.2694 132.444C51.919 132.699 51.7723 133.15 51.9062 133.562L53.339 137.972L49.5878 135.247C49.2373 134.992 48.7627 134.992 48.4122 135.247L44.661 137.972L46.0938 133.562C46.2277 133.15 46.081 132.699 45.7306 132.444L41.9793 129.719H46.6161C47.0493 129.719 47.4333 129.44 47.5672 129.028L49 124.618Z" fill="#E8ECF1" stroke="#E8ECF1"/>
<path d="M69 124.618L70.4328 129.028C70.5667 129.44 70.9507 129.719 71.3839 129.719H76.0207L72.2694 132.444C71.919 132.699 71.7723 133.15 71.9062 133.562L73.339 137.972L69.5878 135.247C69.2373 134.992 68.7627 134.992 68.4122 135.247L64.661 137.972L66.0938 133.562C66.2277 133.15 66.081 132.699 65.7306 132.444L61.9793 129.719H66.6161C67.0493 129.719 67.4333 129.44 67.5672 129.028L69 124.618Z" fill="#E8ECF1" stroke="#E8ECF1"/>
<path d="M89 124.618L90.4328 129.028C90.5667 129.44 90.9507 129.719 91.3839 129.719H96.0207L92.2694 132.444C91.919 132.699 91.7723 133.15 91.9062 133.562L93.339 137.972L89.5878 135.247C89.2373 134.992 88.7627 134.992 88.4122 135.247L84.661 137.972L86.0938 133.562C86.2277 133.15 86.081 132.699 85.7306 132.444L81.9793 129.719H86.6161C87.0493 129.719 87.4333 129.44 87.5672 129.028L89 124.618Z" fill="#E8ECF1" stroke="#E8ECF1"/>
<rect x="111" y="127" width="192" height="10" rx="5" fill="#E8ECF1"/>
<rect x="111" y="127" width="16" height="10" rx="5" fill="#2DAF6B"/>
</svg>
