<svg width="177" height="41" viewBox="0 0 177 41" fill="none" xmlns="http://www.w3.org/2000/svg">
<path d="M0.0327148 22.1578H22.9322V0H0.0327148V22.1578Z" fill="#2DAF6B"/>
<path d="M19.5526 9.42749L6.56424 18.5571L8.45949 12.9147L3.49829 9.42749H9.63058L11.5254 3.78467L13.4203 9.42749H19.5526ZM11.5259 15.0703L15.0731 14.3483L16.4863 18.5571L11.5259 15.0703Z" fill="white"/>
<path d="M25.5525 22.1578H48.452V0H25.5525V22.1578Z" fill="#2DAF6B"/>
<path d="M25.5525 22.1578H37.0023V0H25.5525V22.1578Z" fill="#2DAF6B"/>
<path d="M37.2766 14.9844L40.3183 14.3484L41.7251 18.6527L36.955 15.2079L31.9989 18.6527L33.9225 12.9898L28.8867 9.48997H35.1112L37.034 3.82666L38.9576 9.48997H45.1816L37.2766 14.9844Z" fill="white"/>
<path d="M51.0725 22.1578H73.972V0H51.0725V22.1578Z" fill="#2DAF6B"/>
<path d="M51.0725 22.1578H62.5223V0H51.0725V22.1578Z" fill="#2DAF6B"/>
<path d="M70.5943 9.42749L57.606 18.5571L59.5012 12.9147L54.54 9.42749H60.6723L62.5672 3.78467L64.4621 9.42749L70.5943 9.42749ZM62.5677 15.0703L66.1148 14.3483L67.5281 18.5571L62.5677 15.0703Z" fill="white"/>
<path d="M76.5928 22.1578H99.4923V0H76.5928V22.1578Z" fill="#2DAF6B"/>
<path d="M76.5928 22.1578H88.0425V0H76.5928V22.1578Z" fill="#2DAF6B"/>
<path d="M96.1127 9.42749L83.1247 18.5571L85.0195 12.9147L80.0583 9.42749H86.1906L88.0855 3.78467L89.9804 9.42749L96.1127 9.42749ZM88.086 15.0703L91.6331 14.3483L93.0464 18.5571L88.086 15.0703Z" fill="white"/>
<path d="M102.113 22.1578H125.012V0H102.113V22.1578Z" fill="#2DAF6B"/>
<path d="M102.113 22.1578H113.563V0H102.113V22.1578Z" fill="#2DAF6B"/>
<path d="M121.633 9.42749L108.645 18.5571L110.54 12.9147L105.578 9.42749H111.711L113.606 3.78467L115.5 9.42749H121.633ZM113.606 15.0703L117.153 14.3483L118.566 18.5571L113.606 15.0703Z" fill="white"/>
<path d="M3.06 30.56H0.12V29.6H7.02V30.56H4.08V38H3.06V30.56ZM7.48416 38H6.52416V32.6H7.48416V33.236C7.80416 32.748 8.25616 32.504 8.84016 32.504C9.21616 32.504 9.49616 32.572 9.68016 32.708L9.34416 33.608C9.11216 33.472 8.86816 33.404 8.61216 33.404C8.12416 33.404 7.74816 33.66 7.48416 34.172V38ZM14.3823 32.6H15.3423V38H14.3823V37.232C13.8783 37.824 13.2423 38.12 12.4743 38.12C11.8423 38.12 11.3503 37.928 10.9983 37.544C10.6543 37.152 10.4823 36.576 10.4823 35.816V32.6H11.4423V35.6C11.4423 36.68 11.9063 37.22 12.8343 37.22C13.1223 37.22 13.4063 37.148 13.6863 37.004C13.9743 36.852 14.2063 36.656 14.3823 36.416V32.6ZM19.8188 36.536C19.8188 36.344 19.7188 36.184 19.5188 36.056C19.3188 35.928 19.0748 35.824 18.7868 35.744C18.5068 35.656 18.2228 35.556 17.9348 35.444C17.6468 35.332 17.4028 35.156 17.2028 34.916C17.0028 34.668 16.9028 34.364 16.9028 34.004C16.9028 33.548 17.0708 33.18 17.4068 32.9C17.7428 32.62 18.1868 32.48 18.7388 32.48C19.5308 32.48 20.1508 32.692 20.5988 33.116L20.1428 33.848C19.7428 33.496 19.2908 33.32 18.7868 33.32C18.5308 33.32 18.3228 33.384 18.1628 33.512C18.0028 33.64 17.9228 33.8 17.9228 33.992C17.9228 34.2 18.0228 34.372 18.2228 34.508C18.4228 34.636 18.6628 34.744 18.9428 34.832C19.2308 34.912 19.5188 35.008 19.8068 35.12C20.0948 35.224 20.3388 35.392 20.5388 35.624C20.7388 35.856 20.8388 36.144 20.8388 36.488C20.8388 37.024 20.6388 37.432 20.2388 37.712C19.8468 37.984 19.3508 38.12 18.7508 38.12C18.3268 38.12 17.9228 38.032 17.5388 37.856C17.1468 37.672 16.8868 37.48 16.7588 37.28L17.2988 36.596C17.4588 36.78 17.6908 36.94 17.9948 37.076C18.3148 37.212 18.6028 37.28 18.8588 37.28C19.1388 37.28 19.3668 37.216 19.5428 37.088C19.7268 36.952 19.8188 36.768 19.8188 36.536ZM22.119 35.948V31.1H23.079V32.6H25.059V33.5H23.079V35.852C23.079 36.748 23.399 37.196 24.039 37.196C24.351 37.196 24.635 37.096 24.891 36.896L25.191 37.64C24.815 37.944 24.355 38.096 23.811 38.096C23.227 38.096 22.799 37.92 22.527 37.568C22.255 37.216 22.119 36.676 22.119 35.948ZM30.5135 35.852C30.5135 35.572 30.4375 35.328 30.2855 35.12C30.1335 34.912 29.9375 34.744 29.6975 34.616C29.4575 34.48 29.1895 34.352 28.8935 34.232C28.6055 34.112 28.3135 33.984 28.0175 33.848C27.7295 33.704 27.4655 33.544 27.2255 33.368C26.9855 33.192 26.7895 32.96 26.6375 32.672C26.4855 32.384 26.4095 32.052 26.4095 31.676C26.4095 31.06 26.6375 30.54 27.0935 30.116C27.5575 29.692 28.1735 29.48 28.9415 29.48C29.4135 29.48 29.8575 29.56 30.2735 29.72C30.6895 29.88 31.0175 30.092 31.2575 30.356L30.7055 31.124C30.2495 30.668 29.6815 30.44 29.0015 30.44C28.5375 30.44 28.1695 30.552 27.8975 30.776C27.6255 31 27.4895 31.3 27.4895 31.676C27.4895 31.956 27.5655 32.2 27.7175 32.408C27.8695 32.616 28.0655 32.784 28.3055 32.912C28.5455 33.04 28.8095 33.164 29.0975 33.284C29.3935 33.396 29.6855 33.52 29.9735 33.656C30.2695 33.792 30.5375 33.948 30.7775 34.124C31.0175 34.292 31.2135 34.524 31.3655 34.82C31.5175 35.116 31.5935 35.456 31.5935 35.84C31.5935 36.528 31.3295 37.08 30.8015 37.496C30.2895 37.912 29.6415 38.12 28.8575 38.12C28.3055 38.12 27.7775 38.008 27.2735 37.784C26.7695 37.56 26.4135 37.252 26.2055 36.86L26.7935 36.164C27.0255 36.468 27.3335 36.712 27.7175 36.896C28.1015 37.072 28.4855 37.16 28.8695 37.16C29.3415 37.16 29.7335 37.044 30.0455 36.812C30.3575 36.572 30.5135 36.252 30.5135 35.852ZM37.2074 36.524L37.6634 37.22C37.1994 37.82 36.5074 38.12 35.5874 38.12C34.7234 38.12 34.0234 37.864 33.4874 37.352C32.9594 36.84 32.6954 36.156 32.6954 35.3C32.6954 34.508 32.9554 33.84 33.4754 33.296C33.9954 32.752 34.6474 32.48 35.4314 32.48C36.3754 32.48 37.0834 32.716 37.5554 33.188L37.1114 33.944C36.6954 33.568 36.1794 33.38 35.5634 33.38C35.0594 33.38 34.6234 33.564 34.2554 33.932C33.8954 34.292 33.7154 34.748 33.7154 35.3C33.7154 35.884 33.8994 36.348 34.2674 36.692C34.6434 37.044 35.1074 37.22 35.6594 37.22C36.2834 37.22 36.7994 36.988 37.2074 36.524ZM39.0538 37.328C38.5258 36.784 38.2618 36.108 38.2618 35.3C38.2618 34.484 38.5258 33.812 39.0538 33.284C39.5898 32.748 40.2858 32.48 41.1418 32.48C41.9978 32.48 42.6898 32.748 43.2178 33.284C43.7538 33.812 44.0218 34.484 44.0218 35.3C44.0218 36.116 43.7538 36.792 43.2178 37.328C42.6898 37.856 41.9978 38.12 41.1418 38.12C40.2938 38.12 39.5978 37.856 39.0538 37.328ZM39.8098 33.92C39.4578 34.272 39.2818 34.732 39.2818 35.3C39.2818 35.868 39.4538 36.328 39.7978 36.68C40.1498 37.04 40.5978 37.22 41.1418 37.22C41.6858 37.22 42.1298 37.044 42.4738 36.692C42.8258 36.332 43.0018 35.868 43.0018 35.3C43.0018 34.748 42.8258 34.288 42.4738 33.92C42.1298 33.56 41.6858 33.38 41.1418 33.38C40.5978 33.38 40.1538 33.56 39.8098 33.92ZM46.367 38H45.407V32.6H46.367V33.236C46.687 32.748 47.139 32.504 47.723 32.504C48.099 32.504 48.379 32.572 48.563 32.708L48.227 33.608C47.995 33.472 47.751 33.404 47.495 33.404C47.007 33.404 46.631 33.66 46.367 34.172V38ZM53.7451 36.656L54.0451 37.412C53.5251 37.884 52.8491 38.12 52.0171 38.12C51.1371 38.12 50.4371 37.864 49.9171 37.352C49.3891 36.84 49.1251 36.156 49.1251 35.3C49.1251 34.492 49.3731 33.82 49.8691 33.284C50.3571 32.748 51.0371 32.48 51.9091 32.48C52.6291 32.48 53.2251 32.712 53.6971 33.176C54.1771 33.632 54.4171 34.224 54.4171 34.952C54.4171 35.184 54.3971 35.4 54.3571 35.6H50.2051C50.2451 36.104 50.4331 36.5 50.7691 36.788C51.1131 37.076 51.5531 37.22 52.0891 37.22C52.7931 37.22 53.3451 37.032 53.7451 36.656ZM51.8611 33.38C51.3891 33.38 50.9971 33.512 50.6851 33.776C50.3811 34.04 50.2011 34.388 50.1451 34.82H53.4211C53.3971 34.372 53.2451 34.02 52.9651 33.764C52.6931 33.508 52.3251 33.38 51.8611 33.38ZM63.2868 38H61.4868V36.2H57.6708V34.856L60.6708 29.6H62.7348L59.9868 34.4H61.4868V32.6H63.2868V34.4H64.2708V36.2H63.2868V38ZM64.9917 36.848C64.9917 36.552 65.1077 36.292 65.3397 36.068C65.5717 35.836 65.8637 35.72 66.2157 35.72C66.5277 35.72 66.7917 35.836 67.0077 36.068C67.2317 36.292 67.3437 36.552 67.3437 36.848C67.3437 37.184 67.2357 37.472 67.0197 37.712C66.8117 37.952 66.5437 38.072 66.2157 38.072C65.8557 38.072 65.5597 37.956 65.3277 37.724C65.1037 37.484 64.9917 37.192 64.9917 36.848ZM74.0561 32.696C74.0561 34.264 73.6401 35.532 72.8081 36.5C71.9761 37.468 70.9201 38.016 69.6401 38.144L69.0521 36.716C70.5641 36.388 71.5201 35.648 71.9201 34.496C71.5921 34.8 71.1561 34.952 70.6121 34.952C69.9241 34.952 69.3241 34.704 68.8121 34.208C68.3161 33.712 68.0681 33.088 68.0681 32.336C68.0681 31.448 68.3601 30.748 68.9441 30.236C69.5361 29.716 70.2081 29.456 70.9601 29.456C71.8881 29.456 72.6361 29.752 73.2041 30.344C73.7721 30.936 74.0561 31.72 74.0561 32.696ZM72.1361 32.684C72.1361 32.268 72.0281 31.928 71.8121 31.664C71.5961 31.392 71.3081 31.256 70.9481 31.256C70.6681 31.256 70.4361 31.352 70.2521 31.544C70.0761 31.728 69.9881 31.948 69.9881 32.204C69.9881 32.508 70.0881 32.764 70.2881 32.972C70.4881 33.172 70.7481 33.272 71.0681 33.272C71.5081 33.272 71.8641 33.076 72.1361 32.684Z" fill="white"/>
<rect x="79" y="33" width="4" height="4" rx="2" fill="white"/>
<path d="M89.892 38.144C89.252 38.144 88.692 38.02 88.212 37.772C87.732 37.516 87.368 37.176 87.12 36.752L88.116 35.42C88.66 36.036 89.212 36.344 89.772 36.344C90.108 36.344 90.368 36.268 90.552 36.116C90.736 35.964 90.828 35.768 90.828 35.528C90.828 34.912 90.352 34.604 89.4 34.604H88.872V32.804H89.352C89.696 32.804 89.972 32.732 90.18 32.588C90.396 32.436 90.504 32.228 90.504 31.964C90.504 31.756 90.44 31.588 90.312 31.46C90.184 31.324 89.992 31.256 89.736 31.256C89.176 31.256 88.692 31.508 88.284 32.012L87.3 30.716C87.812 29.876 88.68 29.456 89.904 29.456C90.648 29.456 91.252 29.652 91.716 30.044C92.188 30.428 92.424 30.948 92.424 31.604C92.424 32.54 92.008 33.196 91.176 33.572V33.608C91.672 33.704 92.056 33.932 92.328 34.292C92.608 34.644 92.748 35.08 92.748 35.6C92.748 36.368 92.476 36.988 91.932 37.46C91.396 37.916 90.716 38.144 89.892 38.144ZM93.8316 37.028C93.8316 36.684 93.9316 36.412 94.1316 36.212C94.3396 36.012 94.6276 35.912 94.9956 35.912C95.3716 35.912 95.6716 36.052 95.8956 36.332C96.1276 36.612 96.2436 36.976 96.2436 37.424C96.2436 37.992 96.0956 38.476 95.7996 38.876C95.5036 39.276 95.0796 39.56 94.5276 39.728L94.0356 38.9C94.3556 38.772 94.5876 38.616 94.7316 38.432C94.9156 38.216 94.9956 38.044 94.9716 37.916C94.9156 37.972 94.7916 38 94.5996 38C94.3996 38 94.2196 37.904 94.0596 37.712C93.9076 37.52 93.8316 37.292 93.8316 37.028ZM100.339 31.4H96.9666V29.6H102.487V30.824L99.6426 38H97.6746L100.339 31.4ZM108.58 38H106.78V36.2H102.964V34.856L105.964 29.6H108.028L105.28 34.4H106.78V32.6H108.58V34.4H109.564V36.2H108.58V38ZM110.285 35.024C110.285 34.304 110.413 33.616 110.669 32.96C110.925 32.296 111.265 31.728 111.689 31.256C112.569 30.312 113.493 29.712 114.461 29.456L115.193 30.812C114.553 31.028 113.989 31.348 113.501 31.772C113.021 32.188 112.661 32.672 112.421 33.224C112.749 32.92 113.241 32.768 113.897 32.768C114.521 32.768 115.061 33.008 115.517 33.488C115.981 33.96 116.213 34.572 116.213 35.324C116.213 36.204 115.929 36.896 115.361 37.4C114.793 37.896 114.133 38.144 113.381 38.144C112.461 38.144 111.713 37.844 111.137 37.244C110.569 36.636 110.285 35.896 110.285 35.024ZM112.205 35.036C112.205 35.444 112.309 35.764 112.517 35.996C112.725 36.228 113.017 36.344 113.393 36.344C113.673 36.344 113.893 36.26 114.053 36.092C114.213 35.924 114.293 35.712 114.293 35.456C114.293 35.152 114.201 34.908 114.017 34.724C113.841 34.54 113.593 34.448 113.273 34.448C112.833 34.448 112.477 34.644 112.205 35.036ZM120.945 38H119.985V32.6H120.945V33.236C121.265 32.748 121.717 32.504 122.301 32.504C122.677 32.504 122.957 32.572 123.141 32.708L122.805 33.608C122.573 33.472 122.329 33.404 122.073 33.404C121.585 33.404 121.209 33.66 120.945 34.172V38ZM128.323 36.656L128.623 37.412C128.103 37.884 127.427 38.12 126.595 38.12C125.715 38.12 125.015 37.864 124.495 37.352C123.967 36.84 123.703 36.156 123.703 35.3C123.703 34.492 123.951 33.82 124.447 33.284C124.935 32.748 125.615 32.48 126.487 32.48C127.207 32.48 127.803 32.712 128.275 33.176C128.755 33.632 128.995 34.224 128.995 34.952C128.995 35.184 128.975 35.4 128.935 35.6H124.783C124.823 36.104 125.011 36.5 125.347 36.788C125.691 37.076 126.131 37.22 126.667 37.22C127.371 37.22 127.923 37.032 128.323 36.656ZM126.439 33.38C125.967 33.38 125.575 33.512 125.263 33.776C124.959 34.04 124.779 34.388 124.723 34.82H127.999C127.975 34.372 127.823 34.02 127.543 33.764C127.271 33.508 126.903 33.38 126.439 33.38ZM133.89 32.6H134.91L132.522 38.048H131.826L129.318 32.6H130.446L131.754 35.516C131.906 35.852 132.058 36.252 132.21 36.716C132.322 36.34 132.47 35.932 132.654 35.492L133.89 32.6ZM137.053 38H136.093V32.6H137.053V38ZM135.973 30.572C135.973 30.404 136.033 30.268 136.153 30.164C136.273 30.052 136.421 29.996 136.597 29.996C136.765 29.996 136.905 30.052 137.017 30.164C137.129 30.268 137.185 30.404 137.185 30.572C137.185 30.756 137.129 30.908 137.017 31.028C136.905 31.14 136.765 31.196 136.597 31.196C136.421 31.196 136.273 31.14 136.153 31.028C136.033 30.908 135.973 30.756 135.973 30.572ZM143.3 36.656L143.6 37.412C143.08 37.884 142.404 38.12 141.572 38.12C140.692 38.12 139.992 37.864 139.472 37.352C138.944 36.84 138.68 36.156 138.68 35.3C138.68 34.492 138.928 33.82 139.424 33.284C139.912 32.748 140.592 32.48 141.464 32.48C142.184 32.48 142.78 32.712 143.252 33.176C143.732 33.632 143.972 34.224 143.972 34.952C143.972 35.184 143.952 35.4 143.912 35.6H139.76C139.8 36.104 139.988 36.5 140.324 36.788C140.668 37.076 141.108 37.22 141.644 37.22C142.348 37.22 142.9 37.032 143.3 36.656ZM141.416 33.38C140.944 33.38 140.552 33.512 140.24 33.776C139.936 34.04 139.756 34.388 139.7 34.82H142.976C142.952 34.372 142.8 34.02 142.52 33.764C142.248 33.508 141.88 33.38 141.416 33.38ZM151.79 32.6H152.762L151.034 38.048H150.194L148.85 34.532C148.786 34.364 148.718 34.144 148.646 33.872C148.574 34.136 148.498 34.368 148.418 34.568L147.11 38.048H146.318L144.53 32.6H145.562L146.618 36.008C146.634 36.064 146.654 36.144 146.678 36.248C146.71 36.352 146.738 36.46 146.762 36.572C146.794 36.676 146.814 36.74 146.822 36.764C146.966 36.268 147.042 36.016 147.05 36.008L148.274 32.6H149.102L150.338 35.996L150.59 36.776C150.646 36.504 150.718 36.228 150.806 35.948L151.79 32.6ZM156.483 36.536C156.483 36.344 156.383 36.184 156.183 36.056C155.983 35.928 155.739 35.824 155.451 35.744C155.171 35.656 154.887 35.556 154.599 35.444C154.311 35.332 154.067 35.156 153.867 34.916C153.667 34.668 153.567 34.364 153.567 34.004C153.567 33.548 153.735 33.18 154.071 32.9C154.407 32.62 154.851 32.48 155.403 32.48C156.195 32.48 156.815 32.692 157.263 33.116L156.807 33.848C156.407 33.496 155.955 33.32 155.451 33.32C155.195 33.32 154.987 33.384 154.827 33.512C154.667 33.64 154.587 33.8 154.587 33.992C154.587 34.2 154.687 34.372 154.887 34.508C155.087 34.636 155.327 34.744 155.607 34.832C155.895 34.912 156.183 35.008 156.471 35.12C156.759 35.224 157.003 35.392 157.203 35.624C157.403 35.856 157.503 36.144 157.503 36.488C157.503 37.024 157.303 37.432 156.903 37.712C156.511 37.984 156.015 38.12 155.415 38.12C154.991 38.12 154.587 38.032 154.203 37.856C153.811 37.672 153.551 37.48 153.423 37.28L153.963 36.596C154.123 36.78 154.355 36.94 154.659 37.076C154.979 37.212 155.267 37.28 155.523 37.28C155.803 37.28 156.031 37.216 156.207 37.088C156.391 36.952 156.483 36.768 156.483 36.536Z" fill="white"/>
<path d="M87 40.4H116.573V41H87V40.4Z" fill="white"/>
<path d="M116.578 40.4H119.122V41H116.578V40.4Z" fill="white"/>
<path d="M119.121 40.4H158.043V41H119.121V40.4Z" fill="white"/>
<path d="M164 32L167 35L164 38" stroke="white" stroke-width="1.5" stroke-linecap="round" stroke-linejoin="round"/>
</svg>
