<svg width="24" height="22" viewBox="0 0 24 22" fill="none" xmlns="http://www.w3.org/2000/svg">
<path d="M23.9033 8.58494L19.6377 1.31636C19.4421 0.983123 19.0143 0.870107 18.6797 1.06333L16.1233 2.53928L13.8205 1.69229C13.1004 1.4274 12.3061 1.49551 11.6416 1.87923L8.14482 3.89809L5.04483 2.10826C4.88002 2.01311 4.68376 1.98887 4.50066 2.04095C4.31766 2.09308 4.16358 2.21711 4.07363 2.38487L0.083584 9.82398C-0.0958535 10.1586 0.0227872 10.5754 0.351662 10.7652L1.93496 11.6794L1.14094 13.0547C0.559365 14.062 0.905725 15.3545 1.91302 15.9361C2.38055 16.206 2.90944 16.2758 3.40027 16.1726C3.55632 16.6492 3.88116 17.0725 4.34869 17.3424C4.81623 17.6123 5.34512 17.682 5.83594 17.5788C5.99199 18.0555 6.31683 18.4787 6.78437 18.7486C7.2519 19.0185 7.78079 19.0883 8.27162 18.9851C8.42771 19.4618 8.75255 19.885 9.22008 20.1549C10.2274 20.7364 11.52 20.3901 12.1015 19.3828L12.1924 19.2254L14.831 20.7489C15.8383 21.3304 17.1309 20.9841 17.7125 19.9768C17.8497 19.739 17.9347 19.4853 17.9721 19.2289C18.8693 19.4652 19.8509 19.0855 20.3365 18.2442C20.5038 17.9545 20.5939 17.6412 20.614 17.3281C21.3815 17.3683 22.1447 16.9873 22.5547 16.2773C22.9646 15.5672 22.913 14.7158 22.4943 14.0712C22.7555 13.8972 22.9818 13.6625 23.149 13.3728C23.7145 12.3933 23.4025 11.1444 22.4588 10.5414L23.7436 9.48362C24.0106 9.26397 24.0782 8.88297 23.9033 8.58494ZM12.3447 3.09709C12.6467 2.92262 13.0076 2.89173 13.3351 3.01215L15.9469 3.97281C16.1429 4.04486 16.3605 4.02615 16.5412 3.92181L18.7782 2.63026L22.3868 8.77928L21.1604 9.78892L12.7151 4.91298C12.4975 4.78736 12.2295 4.78736 12.012 4.91298L8.12504 7.15708C7.80155 7.35278 7.34677 7.23095 7.16457 6.89973C6.96886 6.57634 7.09074 6.12142 7.42191 5.93926L12.3447 3.09709ZM2.61619 14.7182C2.28043 14.5244 2.16497 14.0935 2.35885 13.7578L3.53072 11.728C3.7246 11.3923 4.15543 11.2768 4.49119 11.4707C4.82696 11.6646 4.94241 12.0954 4.74854 12.4312L3.57666 14.4609C3.38283 14.7967 2.95196 14.9121 2.61619 14.7182ZM5.05187 16.1245C4.7161 15.9306 4.60065 15.4998 4.79452 15.164L6.43515 12.3224C6.62902 11.9866 7.05985 11.8712 7.39561 12.065C7.73138 12.2589 7.84683 12.6897 7.65296 13.0255L6.01233 15.8672C5.81851 16.2029 5.38763 16.3184 5.05187 16.1245ZM7.48754 17.5307C7.15177 17.3369 7.03632 16.906 7.23019 16.5703L8.40207 14.5405C8.59594 14.2048 9.02677 14.0893 9.36254 14.2832C9.6983 14.4771 9.81376 14.9079 9.61988 15.2437L8.44801 17.2734C8.25418 17.6092 7.82335 17.7246 7.48754 17.5307ZM9.92326 18.937C9.58749 18.7432 9.47199 18.3123 9.66586 17.9765L10.369 16.7587C10.5629 16.4229 10.9937 16.3075 11.3295 16.5013C11.6653 16.6952 11.7807 17.126 11.5868 17.4618L10.8837 18.6797C10.6899 19.0155 10.2591 19.1309 9.92326 18.937ZM21.3369 15.5741C21.1431 15.9099 20.7122 16.0254 20.3765 15.8315L16.7229 13.7221C16.3867 13.528 15.9566 13.6432 15.7625 13.9795C15.5683 14.3157 15.6835 14.7458 16.0198 14.9399L18.8614 16.5805C19.1972 16.7744 19.3126 17.2052 19.1188 17.541C18.9249 17.8768 18.4941 17.9922 18.1583 17.7984L15.3167 16.1577C14.9804 15.9636 14.5504 16.0788 14.3562 16.4151C14.1621 16.7514 14.2773 17.1814 14.6136 17.3755L16.2374 18.313C16.5731 18.5069 16.6886 18.9377 16.4947 19.2735C16.3008 19.6093 15.87 19.7247 15.5342 19.5309L12.8884 18.0032C13.3474 17.0231 12.9869 15.8343 12.0327 15.2834C11.743 15.1161 11.4297 15.026 11.1165 15.0059C11.1567 14.2383 10.7757 13.4751 10.0657 13.0652C9.77602 12.8979 9.46271 12.8078 9.14954 12.7877C9.1898 12.0202 8.80876 11.257 8.09874 10.847C7.38872 10.4371 6.53729 10.4887 5.89271 10.9074C5.71871 10.6462 5.48401 10.4199 5.19432 10.2527C4.38357 9.78456 3.38832 9.91801 2.72743 10.513L1.64499 9.88815L4.96997 3.68889L6.73857 4.71001L6.71879 4.72145C6.23087 5.00317 5.88183 5.45804 5.73596 6.00226C5.59018 6.54648 5.66499 7.11493 5.94671 7.60286C6.22843 8.09078 6.6833 8.43981 7.22752 8.58569C7.77174 8.73142 8.34019 8.65665 8.82811 8.37494L12.3635 6.33381L21.6739 11.7092C22.0096 11.9031 22.1251 12.334 21.9312 12.6697C21.7373 13.0055 21.3065 13.1209 20.9708 12.9271L18.1291 11.2864C17.7929 11.0923 17.3628 11.2075 17.1687 11.5438C16.9745 11.8801 17.0897 12.3101 17.426 12.5042L21.0796 14.6136C21.4154 14.8075 21.5308 15.2384 21.3369 15.5741Z" fill="url(#paint0_linear_644_752)"/>
<defs>
<linearGradient id="paint0_linear_644_752" x1="5.04" y1="3.47675" x2="15.4934" y2="21.0065" gradientUnits="userSpaceOnUse">
<stop stop-color="#65DE18"/>
<stop offset="1" stop-color="#0393E5"/>
</linearGradient>
</defs>
</svg>
