<svg width="24" height="24" viewBox="0 0 24 24" fill="none" xmlns="http://www.w3.org/2000/svg">
<path d="M20.4844 13.4062H14.7656C14.3773 13.4062 14.0625 13.7211 14.0625 14.1094C14.0625 14.4977 14.3773 14.8125 14.7656 14.8125H20.4844C20.8727 14.8125 21.1875 14.4977 21.1875 14.1094C21.1875 13.7211 20.8727 13.4062 20.4844 13.4062Z" fill="#0092E6"/>
<path d="M20.4844 16.2188H14.7656C14.3773 16.2188 14.0625 16.5336 14.0625 16.9219C14.0625 17.3102 14.3773 17.625 14.7656 17.625H20.4844C20.8727 17.625 21.1875 17.3102 21.1875 16.9219C21.1875 16.5336 20.8727 16.2188 20.4844 16.2188Z" fill="#0092E6"/>
<path d="M21.8906 3.5625H2.10938C0.946266 3.5625 0 4.50877 0 5.67188V18.3281C0 19.4912 0.946266 20.4375 2.10938 20.4375H21.8906C23.0537 20.4375 24 19.4912 24 18.3281V5.67188C24 4.50877 23.0537 3.5625 21.8906 3.5625ZM7.03125 19.0312H2.10938C1.72167 19.0312 1.40625 18.7158 1.40625 18.3281V10.5938H2.92758C3.27839 11.6412 4.35389 12.2722 5.44402 12.0586L4.33683 13.7194C4.12144 14.0425 4.20877 14.479 4.53188 14.6944C4.85494 14.9098 5.29153 14.8225 5.50692 14.4994L7.03125 12.2129V19.0312ZM4.21875 9.88964C4.21875 9.24952 4.93069 8.86645 5.46492 9.2227L6.46678 9.89062L5.46492 10.5585C4.93252 10.9135 4.21875 10.5346 4.21875 9.88964ZM7.03125 8.57681L6.24497 8.05261C5.03105 7.24331 3.38733 7.81514 2.92781 9.18745H1.40625V5.67183C1.40625 5.28417 1.72167 4.96875 2.10938 4.96875H7.03125V8.57681ZM22.5938 18.3282C22.5938 18.7158 22.2783 19.0312 21.8906 19.0312H8.4375V12.2129L9.96183 14.4994C10.1775 14.8229 10.6142 14.9096 10.9369 14.6945C11.26 14.479 11.3473 14.0425 11.1319 13.7194L10.0247 12.0586C11.1099 12.2712 12.1885 11.6462 12.5409 10.5938H22.5938V18.3282ZM9.00197 9.89062L10.0038 9.2227C10.5363 8.86772 11.25 9.24666 11.25 9.89156C11.25 10.5328 10.5371 10.9141 10.0038 10.5585L9.00197 9.89062ZM22.5938 9.1875H12.5412C12.0816 7.81533 10.4378 7.24327 9.22378 8.05266L8.4375 8.57681V4.96875H21.8906C22.2783 4.96875 22.5938 5.28417 22.5938 5.67188V9.1875Z" fill="#0092E6"/>
</svg>
