<svg width="55" height="40" viewBox="0 0 55 40" fill="none" xmlns="http://www.w3.org/2000/svg">
<g id="Layer 1">
<path id="Vector" d="M29.0056 15.2288L25.8172 20.8754C24.6224 22.9801 22.8914 24.7309 20.8002 25.9495C18.709 27.1682 16.3323 27.8113 13.9119 27.8134C11.5943 27.8133 9.31355 27.2341 7.27677 26.1285C5.24 25.023 3.51181 23.426 2.24925 21.4828C0.986697 19.5396 0.229795 17.3117 0.0473285 15.0016C-0.135138 12.6915 0.262614 10.3725 1.20444 8.25518C2.14627 6.13789 3.60232 4.28948 5.44027 2.87791C7.27822 1.46635 9.43981 0.536379 11.7286 0.172515C14.0174 -0.191349 16.3609 0.0224254 18.5461 0.794413C20.7312 1.5664 22.6888 2.87213 24.241 4.59294C24.6552 5.07666 24.8641 5.70302 24.8232 6.33851C24.7822 6.97401 24.4947 7.56839 24.0218 7.99496C23.5489 8.42152 22.928 8.64654 22.2916 8.62205C21.6552 8.59755 21.0535 8.32549 20.6148 7.86384C19.6077 6.74711 18.3375 5.89971 16.9196 5.39866C15.5017 4.8976 13.9811 4.75876 12.4959 4.99477C11.0106 5.23077 9.60796 5.83413 8.41526 6.75001C7.22257 7.6659 6.27768 8.86528 5.66647 10.2391C5.05525 11.613 4.79709 13.1178 4.91544 14.6168C5.03379 16.1158 5.52489 17.5615 6.34413 18.8225C7.16337 20.0835 8.28476 21.1197 9.60641 21.8372C10.9281 22.5546 12.408 22.9304 13.9119 22.9305C15.4681 22.929 16.9961 22.5153 18.3406 21.7317C19.685 20.948 20.7979 19.8223 21.5659 18.469L22.7656 16.3491H18.0821C17.7558 16.3579 17.4311 16.3013 17.1271 16.1826C16.8231 16.0639 16.546 15.8855 16.3121 15.6579C16.0783 15.4303 15.8924 15.1582 15.7654 14.8576C15.6385 14.5569 15.5731 14.2339 15.5731 13.9076C15.5731 13.5813 15.6385 13.2583 15.7654 12.9577C15.8924 12.657 16.0783 12.3849 16.3121 12.1573C16.546 11.9297 16.8231 11.7513 17.1271 11.6326C17.4311 11.5139 17.7558 11.4573 18.0821 11.4661H25.5235L28.1049 6.93804C29.2983 4.83569 31.0268 3.08648 33.1149 1.86795C35.203 0.649424 37.5763 0.00496916 39.994 2.55625e-06H40.0624H40.1309C42.3137 0.00511745 44.4649 0.521667 46.4119 1.50822C48.359 2.49477 50.0477 3.92385 51.3426 5.68084C51.6809 6.20328 51.8069 6.83513 51.695 7.44735C51.5831 8.05957 51.2416 8.60598 50.7404 8.97497C50.2391 9.34396 49.6159 9.5077 48.998 9.43275C48.3801 9.3578 47.8141 9.04981 47.4156 8.57169C46.5751 7.43073 45.4787 6.50269 44.2145 5.86207C42.9503 5.22146 41.5535 4.8861 40.1363 4.88293H40.0678H39.9994C38.4432 4.88444 36.9151 5.29807 35.5707 6.08172C34.2263 6.86538 33.1134 7.9911 32.3453 9.34438L29.0164 15.2251L29.0056 15.2288ZM51.602 11.4643H42.9302C42.604 11.4555 42.2793 11.5121 41.9753 11.6308C41.6713 11.7495 41.3941 11.9279 41.1603 12.1555C40.9264 12.3831 40.7405 12.6552 40.6136 12.9559C40.4866 13.2565 40.4212 13.5795 40.4212 13.9058C40.4212 14.2321 40.4866 14.5551 40.6136 14.8558C40.7405 15.1564 40.9264 15.4285 41.1603 15.6561C41.3941 15.8837 41.6713 16.0621 41.9753 16.1808C42.2793 16.2995 42.604 16.3561 42.9302 16.3473H48.8207C48.3777 17.923 47.5144 19.3486 46.3232 20.4713C45.1319 21.594 43.6577 22.3715 42.0583 22.7205C40.459 23.0696 38.7948 22.977 37.244 22.4527C35.6932 21.9284 34.3144 20.9921 33.255 19.7442C33.0497 19.4924 32.7961 19.2841 32.5092 19.1315C32.2223 18.9789 31.9079 18.8851 31.5843 18.8555C31.2606 18.8259 30.9344 18.8612 30.6246 18.9593C30.3148 19.0574 30.0277 19.2163 29.7801 19.4268C29.5325 19.6372 29.3293 19.8949 29.1826 20.1848C29.0358 20.4747 28.9484 20.791 28.9254 21.1151C28.9025 21.4392 28.9444 21.7646 29.0488 22.0723C29.1532 22.38 29.3179 22.6638 29.5334 22.9071C31.3762 25.0775 33.8409 26.6301 36.5945 27.3552C39.3481 28.0802 42.2579 27.9427 44.9309 26.9612C47.6038 25.9797 49.911 24.2016 51.5409 21.867C53.1708 19.5324 54.0447 16.7538 54.0447 13.9067C54.0447 13.2589 53.7873 12.6377 53.3292 12.1797C52.8712 11.7217 52.2498 11.4643 51.602 11.4643ZM4.78074 39.0562C4.79887 39.2243 4.75348 39.3931 4.65348 39.5294C4.55348 39.6657 4.40611 39.7597 4.24033 39.7929C3.79073 39.9325 3.32224 40.0018 2.85147 39.9982C1.25005 39.9982 0.0935696 38.9355 0.0935696 37.3541C0.0935696 35.7457 1.28428 34.7172 2.81544 34.7172C3.31842 34.7006 3.81647 34.8207 4.25654 35.0648C4.35082 35.113 4.43026 35.1859 4.48641 35.2757C4.54256 35.3654 4.57331 35.4687 4.57538 35.5746C4.57805 35.6472 4.56604 35.7196 4.54008 35.7874C4.51411 35.8553 4.47473 35.9172 4.42428 35.9695C4.37383 36.0218 4.31335 36.0634 4.24646 36.0918C4.17957 36.1202 4.10764 36.1348 4.03497 36.1347C3.90267 36.1296 3.7738 36.0912 3.66029 36.0231C3.40867 35.8763 3.12296 35.798 2.83166 35.7961C2.00302 35.7961 1.37795 36.4625 1.37795 37.3631C1.37795 38.2637 1.91836 38.9445 2.90911 38.9445C3.16841 38.9508 3.42633 38.9049 3.66749 38.8094V37.8945H3.18472C2.71637 37.8945 2.64431 37.5612 2.64431 37.4045C2.64431 37.2478 2.72177 36.9146 3.18472 36.9146H4.11423C4.56818 36.9146 4.78074 37.1272 4.78074 37.5811V39.0562ZM9.26075 38.8869H7.09911L6.84872 39.4903C6.692 39.8667 6.44521 39.9442 6.25246 39.9442C6.17478 39.9477 6.09722 39.9351 6.02464 39.9072C5.95206 39.8793 5.88603 39.8367 5.83071 39.7821C5.77539 39.7274 5.73197 39.6619 5.70318 39.5897C5.67439 39.5175 5.66085 39.4401 5.66341 39.3624C5.66425 39.2447 5.69068 39.1285 5.74087 39.022L7.39994 35.3782C7.62691 34.8757 7.96016 34.7821 8.20155 34.7821C8.44293 34.7821 8.76177 34.8523 8.99595 35.3782L10.6406 39.0076C10.6848 39.1107 10.7087 39.2214 10.7109 39.3336C10.7141 39.4139 10.7008 39.4941 10.6717 39.5691C10.6426 39.6441 10.5983 39.7122 10.5417 39.7694C10.4851 39.8265 10.4173 39.8713 10.3426 39.9011C10.2679 39.9309 10.1878 39.9449 10.1074 39.9424C9.90925 39.9424 9.65345 39.8721 9.49854 39.4813L9.26075 38.8869ZM7.49541 37.9161H8.86445L8.18353 36.25L7.49541 37.9161ZM12.3447 39.8721C11.8691 39.8721 11.6494 39.6524 11.6494 39.1769V35.5476C11.6494 35.0721 11.8691 34.8523 12.3447 34.8523H13.4652C14.89 34.8523 16.3365 35.4485 16.3365 37.3469C16.3365 39.112 14.9045 39.8685 13.5228 39.8685L12.3447 39.8721ZM13.4363 35.888H12.8347V38.822H13.4093C14.274 38.822 15.0756 38.4618 15.0756 37.3469C15.0756 36.232 14.274 35.888 13.4363 35.888ZM21.9514 39.0562C21.9696 39.2243 21.9242 39.3931 21.8242 39.5294C21.7242 39.6657 21.5768 39.7597 21.411 39.7929C20.9614 39.9325 20.4929 40.0018 20.0222 39.9982C18.4207 39.9982 17.2643 38.9355 17.2643 37.3541C17.2643 35.7457 18.455 34.7172 19.9861 34.7172C20.4891 34.7006 20.9872 34.8207 21.4272 35.0648C21.5215 35.113 21.6009 35.1859 21.6571 35.2757C21.7132 35.3654 21.744 35.4687 21.7461 35.5746C21.7487 35.6472 21.7367 35.7196 21.7108 35.7874C21.6848 35.8553 21.6454 35.9172 21.595 35.9695C21.5445 36.0218 21.484 36.0634 21.4171 36.0918C21.3503 36.1202 21.2783 36.1348 21.2057 36.1347C21.0694 36.1285 20.9372 36.0869 20.822 36.0141C20.5703 35.8673 20.2846 35.789 19.9933 35.7871C19.1647 35.7871 18.5396 36.4535 18.5396 37.3541C18.5396 38.2547 19.08 38.9355 20.0708 38.9355C20.3301 38.9418 20.588 38.8959 20.8292 38.8004V37.8855H20.359C19.8907 37.8855 19.8186 37.5522 19.8186 37.3955C19.8186 37.2388 19.8961 36.9056 20.359 36.9056H21.2885C21.7425 36.9056 21.955 37.1182 21.955 37.5721L21.9514 39.0562ZM26.064 36.8228C26.5593 36.8228 26.6242 37.156 26.6242 37.3055C26.6242 37.455 26.5611 37.7954 26.064 37.7954H24.4697V38.8383H26.3035C26.7989 38.8383 26.8782 39.1859 26.8782 39.3552C26.8782 39.5245 26.8007 39.8721 26.3035 39.8721H23.9942C23.5186 39.8721 23.2989 39.6524 23.2989 39.1769V35.5476C23.2989 35.0721 23.5186 34.8523 23.9942 34.8523H26.1702C26.6656 34.8523 26.7449 35.1999 26.7449 35.362C26.7449 35.5241 26.6674 35.879 26.1702 35.879H24.4679V36.821L26.064 36.8228ZM27.9788 35.8862C27.4834 35.8862 27.4042 35.5385 27.4042 35.3692C27.4042 35.1999 27.4816 34.8523 27.9788 34.8523H31.0195C31.5149 34.8523 31.5942 35.1999 31.5942 35.3692C31.5942 35.5385 31.5167 35.8862 31.0195 35.8862H30.1044V39.2651C30.1044 39.8469 29.6937 39.946 29.501 39.946C29.3082 39.946 28.8921 39.8469 28.8921 39.2651V35.888L27.9788 35.8862Z" fill="url(#paint0_linear_644_379)"/>
<g id="Group">
<path id="Vector_2" d="M36.8326 39.2651C36.8326 39.5064 36.7407 39.6253 36.4849 39.719C35.9945 39.9091 35.4726 40.0051 34.9466 40.0018C33.3794 40.0018 32.2661 38.9031 32.2661 37.3577C32.2661 35.8123 33.4154 34.728 34.9394 34.728C35.4984 34.7036 36.0498 34.8658 36.5065 35.1891C36.5562 35.22 36.5976 35.2626 36.6271 35.3131C36.6566 35.3637 36.6733 35.4206 36.6759 35.4791C36.6781 35.5222 36.6715 35.5653 36.6564 35.6058C36.6413 35.6463 36.6182 35.6832 36.5883 35.7144C36.5585 35.7456 36.5226 35.7704 36.4828 35.7872C36.443 35.8041 36.4002 35.8126 36.357 35.8123C36.2586 35.8096 36.1637 35.7748 36.0868 35.7132C35.7547 35.4737 35.3542 35.3474 34.9448 35.353C33.7685 35.353 33.0299 36.268 33.0299 37.3667C33.0299 38.4654 33.7667 39.3804 34.9646 39.3804C35.3685 39.392 35.7694 39.3067 36.1337 39.1318V37.7359H35.2978C35.2553 37.7411 35.2121 37.7371 35.1712 37.724C35.1304 37.711 35.0928 37.6893 35.0612 37.6604C35.0295 37.6314 35.0045 37.596 34.9878 37.5565C34.9711 37.517 34.9632 37.4744 34.9646 37.4315C34.9644 37.3896 34.9733 37.3481 34.9906 37.31C35.0079 37.2718 35.0332 37.2378 35.0648 37.2103C35.0964 37.1827 35.1336 37.1624 35.1738 37.1505C35.214 37.1386 35.2563 37.1356 35.2978 37.1415H36.4183C36.6939 37.1415 36.829 37.2694 36.829 37.545L36.8326 39.2651Z" fill="#A7A9AC"/>
<path id="Vector_3" d="M40.7739 40C39.25 40 38.1223 38.9013 38.1223 37.3559C38.1223 35.8105 39.25 34.7262 40.7739 34.7262C42.2979 34.7262 43.44 35.7889 43.44 37.3559C43.44 38.9229 42.3051 40 40.7739 40ZM40.7739 35.3422C39.6193 35.3422 38.8807 36.2572 38.8807 37.3559C38.8807 38.4546 39.6247 39.3696 40.7739 39.3696C41.9232 39.3696 42.6744 38.469 42.6744 37.3559C42.6744 36.2428 41.9448 35.3422 40.7739 35.3422Z" fill="#A7A9AC"/>
<path id="Vector_4" d="M45.4684 35.9798H45.454V39.5317C45.466 39.5845 45.466 39.6393 45.4539 39.692C45.4419 39.7448 45.4181 39.7941 45.3843 39.8364C45.3506 39.8787 45.3078 39.9129 45.259 39.9363C45.2102 39.9598 45.1568 39.972 45.1027 39.972C45.0486 39.972 44.9952 39.9598 44.9464 39.9363C44.8977 39.9129 44.8548 39.8787 44.8211 39.8364C44.7873 39.7941 44.7635 39.7448 44.7515 39.692C44.7394 39.6393 44.7394 39.5845 44.7514 39.5317V35.3206C44.7514 34.8811 45.0487 34.7965 45.1982 34.7965C45.3477 34.7965 45.5098 34.8595 45.7224 35.1567L48.2893 38.7248H48.3037V35.1945C48.2917 35.1418 48.2917 35.087 48.3038 35.0343C48.3158 34.9815 48.3396 34.9322 48.3734 34.8899C48.4071 34.8476 48.45 34.8134 48.4987 34.7899C48.5475 34.7665 48.6009 34.7543 48.655 34.7543C48.7091 34.7543 48.7625 34.7665 48.8113 34.7899C48.8601 34.8134 48.9029 34.8476 48.9367 34.8899C48.9704 34.9322 48.9942 34.9815 49.0062 35.0343C49.0183 35.087 49.0183 35.1418 49.0063 35.1945V39.4056C49.0063 39.8451 48.7091 39.9298 48.5595 39.9298C48.41 39.9298 48.2479 39.8667 48.0353 39.5695L45.4684 35.9798Z" fill="#A7A9AC"/>
<path id="Vector_5" d="M51.2815 37.5756V39.2489H53.6233C53.667 39.2442 53.7113 39.2488 53.7532 39.2623C53.795 39.2758 53.8336 39.298 53.8663 39.3273C53.899 39.3567 53.9252 39.3927 53.9431 39.4329C53.961 39.473 53.9703 39.5165 53.9703 39.5605C53.9703 39.6045 53.961 39.648 53.9431 39.6882C53.9252 39.7283 53.899 39.7643 53.8663 39.7937C53.8336 39.8231 53.795 39.8453 53.7532 39.8588C53.7113 39.8723 53.667 39.8768 53.6233 39.8721H50.9987C50.9416 39.8823 50.8828 39.8785 50.8275 39.8611C50.7721 39.8437 50.7218 39.8132 50.6807 39.7722C50.6397 39.7312 50.6092 39.6808 50.5918 39.6255C50.5744 39.5701 50.5706 39.5114 50.5808 39.4542V35.272C50.5706 35.2148 50.5744 35.1561 50.5918 35.1007C50.6092 35.0454 50.6397 34.9951 50.6807 34.954C50.7218 34.913 50.7721 34.8825 50.8275 34.8651C50.8828 34.8477 50.9416 34.8439 50.9987 34.8541H53.5044C53.5485 34.8474 53.5936 34.8506 53.6363 34.8634C53.6791 34.8761 53.7185 34.8982 53.7517 34.928C53.7849 34.9577 53.8112 34.9945 53.8285 35.0356C53.8459 35.0767 53.8539 35.1211 53.8521 35.1657C53.8521 35.2576 53.8089 35.4701 53.5044 35.4701H51.2815V36.9723H53.3657C53.6629 36.9723 53.7062 37.1776 53.7062 37.2695C53.7074 37.3129 53.6991 37.3561 53.6819 37.396C53.6647 37.436 53.639 37.4717 53.6066 37.5006C53.5742 37.5296 53.5358 37.5512 53.4942 37.5638C53.4526 37.5765 53.4088 37.5799 53.3657 37.5738L51.2815 37.5756Z" fill="#A7A9AC"/>
</g>
</g>
<defs>
<linearGradient id="paint0_linear_644_379" x1="3.32703" y1="-5.68624" x2="43.308" y2="43.7584" gradientUnits="userSpaceOnUse">
<stop offset="0.17" stop-color="#64DD17"/>
<stop offset="0.82" stop-color="#0091EA"/>
</linearGradient>
</defs>
</svg>
