<svg width="32" height="32" viewBox="0 0 32 32" fill="none" xmlns="http://www.w3.org/2000/svg">
<g clip-path="url(#clip0_96_7813)">
<mask id="mask0_96_7813" style="mask-type:luminance" maskUnits="userSpaceOnUse" x="0" y="0" width="32" height="32">
<path d="M31.3 31.3V0.700003H0.7V31.3H31.3Z" fill="white" stroke="white" stroke-width="1.4"/>
</mask>
<g mask="url(#mask0_96_7813)">
<path d="M18.9081 12.2337L18.9081 12.2338C18.8679 12.3441 18.7457 12.4012 18.6352 12.361L18.9081 12.2337ZM18.9081 12.2337C18.9483 12.1233 18.8914 12.0012 18.7809 11.9609L18.9081 12.2337ZM18.7808 11.9609C18.6704 11.9207 18.5483 11.9776 18.508 12.0881L18.7808 11.9609ZM18.508 12.0882C18.4678 12.1987 18.5248 12.3208 18.6352 12.3609L18.508 12.0882Z" fill="#0092E6" stroke="#0092E6" stroke-width="1.4"/>
<path d="M8.61412 8.48707L8.61411 8.48712C8.57394 8.59749 8.45179 8.65453 8.34125 8.61432L8.61412 8.48707ZM8.61412 8.48707C8.65431 8.37666 8.59745 8.25453 8.48691 8.21426L8.61412 8.48707ZM8.21406 8.34144C8.17384 8.45197 8.23086 8.57412 8.34123 8.61431L8.48686 8.21424C8.37635 8.17405 8.25422 8.23109 8.21406 8.34144Z" fill="#0092E6" stroke="#0092E6" stroke-width="1.4"/>
<path d="M23.5443 14.8867L25.7279 8.88737C22.7924 6.55775 19.1804 5.2431 15.4342 5.14074C11.688 5.03838 8.07601 3.66288 5.14049 1.33326L1.33301 11.6878C4.26859 14.0175 7.94139 15.3321 11.6876 15.4345C13.6168 15.4872 15.5103 15.8614 17.2943 16.5301" stroke="#0092E6" stroke-width="1.4" stroke-miterlimit="10" stroke-linecap="round" stroke-linejoin="round"/>
<path d="M15.2762 10.9121C14.9313 11.8595 13.8837 12.3481 12.9362 12.0032C11.9886 11.6584 11.5001 10.6107 11.845 9.6632C12.1898 8.71571 13.2376 8.22714 14.185 8.57202C15.1326 8.91684 15.6211 9.96456 15.2762 10.9121Z" stroke="#0092E6" stroke-width="1.4" stroke-miterlimit="10" stroke-linecap="round" stroke-linejoin="round"/>
<path d="M13.092 23.6584L13.092 23.6583C13.0518 23.5479 13.1087 23.4258 13.2192 23.3855L13.092 23.6584ZM13.092 23.6584C13.1322 23.7688 13.2543 23.8258 13.3649 23.7856L13.092 23.6584ZM13.3649 23.7856C13.4752 23.7454 13.5322 23.6233 13.4921 23.5128L13.3649 23.7856ZM13.4921 23.5127C13.4518 23.4023 13.3296 23.3454 13.2193 23.3855L13.4921 23.5127Z" fill="#0092E6" stroke="#0092E6" stroke-width="1.4"/>
<path d="M23.385 19.9118L23.385 19.9117C23.3448 19.8013 23.4016 19.6792 23.5122 19.6389L23.385 19.9118ZM23.385 19.9118C23.4252 20.0222 23.5473 20.0792 23.6578 20.039L23.385 19.9118ZM23.6579 20.039C23.7682 19.9988 23.8252 19.8767 23.785 19.7661L23.6579 20.039ZM23.785 19.7661C23.7448 19.6558 23.6227 19.5988 23.5122 19.6389L23.785 19.7661Z" fill="#0092E6" stroke="#0092E6" stroke-width="1.4"/>
<path d="M6.27148 20.312C9.207 17.9824 12.819 16.6678 16.5652 16.5654C20.3114 16.463 23.9234 15.1484 26.8589 12.8188L30.6664 23.1125C27.7308 25.4421 24.058 26.7568 20.3118 26.8591C16.5655 26.9615 12.9536 28.337 10.0181 30.6666L6.27148 20.312Z" stroke="#0092E6" stroke-width="1.4" stroke-miterlimit="10" stroke-linecap="round" stroke-linejoin="round"/>
<path d="M16.7229 22.3367C17.0678 23.2842 18.1155 23.7728 19.0629 23.4279C20.0105 23.0831 20.499 22.0354 20.1542 21.0879C19.8093 20.1404 18.7616 19.6518 17.8141 19.9967C16.8665 20.3415 16.378 21.3892 16.7229 22.3367Z" stroke="#0092E6" stroke-width="1.4" stroke-miterlimit="10" stroke-linecap="round" stroke-linejoin="round"/>
</g>
</g>
<defs>
<clipPath id="clip0_96_7813">
<rect width="32" height="32" fill="white"/>
</clipPath>
</defs>
</svg>
