<svg width="48" height="51" viewBox="0 0 48 51" fill="none" xmlns="http://www.w3.org/2000/svg">
<rect x="0.5" y="3.5" width="47" height="47" rx="23.5" stroke="#D6D9DC"/>
<g clip-path="url(#clip0_89_5162)">
<mask id="mask0_89_5162" style="mask-type:luminance" maskUnits="userSpaceOnUse" x="12" y="15" width="24" height="24">
<path d="M35.3 38.3V15.7H12.7V38.3H35.3Z" fill="white" stroke="white" stroke-width="1.4"/>
</mask>
<g mask="url(#mask0_89_5162)">
<path d="M26.0206 24.1101C26.0186 24.1123 26.0174 24.1146 26.0171 24.1154L26.0315 24.1207L26.0367 24.1063C26.0359 24.106 26.0334 24.1054 26.0304 24.1056C26.0279 24.1057 26.0262 24.1063 26.025 24.1068C26.0239 24.1073 26.0224 24.1083 26.0206 24.1101ZM26.0314 24.1208L26.0171 24.1155C26.0168 24.1164 26.0162 24.1188 26.0164 24.1218C26.0165 24.1243 26.0171 24.1261 26.0176 24.1272C26.0181 24.1284 26.0191 24.1299 26.021 24.1316C26.0232 24.1337 26.0255 24.1348 26.0262 24.1351L26.0314 24.1208ZM26.0421 24.1098C26.0399 24.1078 26.0376 24.1066 26.0368 24.1063L26.0315 24.1207L26.0459 24.1259C26.0462 24.1251 26.0468 24.1227 26.0467 24.1196C26.0465 24.1171 26.046 24.1154 26.0454 24.1142C26.0449 24.1131 26.0439 24.1116 26.0421 24.1098ZM26.0459 24.126L26.0315 24.1208L26.0263 24.1351C26.0271 24.1354 26.0296 24.136 26.0326 24.1359C26.0352 24.1357 26.0369 24.1352 26.038 24.1346C26.0391 24.1341 26.0407 24.1332 26.0424 24.1313C26.0445 24.1291 26.0456 24.1268 26.0459 24.126Z" fill="#29353C" stroke="#29353C" stroke-width="1.4"/>
<path d="M18.3252 21.316C18.3255 21.3152 18.3261 21.3127 18.326 21.3097C18.3258 21.3072 18.3253 21.3054 18.3247 21.3043C18.3242 21.3032 18.3232 21.3016 18.3214 21.2999C18.3192 21.2978 18.3169 21.2967 18.3161 21.2964L18.3108 21.3107L18.3108 21.3108L18.3108 21.3108L18.3056 21.3252C18.3064 21.3255 18.3089 21.3261 18.3119 21.3259C18.3144 21.3258 18.3161 21.3252 18.3173 21.3247C18.3184 21.3242 18.3199 21.3232 18.3217 21.3213C18.3237 21.3192 18.3249 21.3169 18.3252 21.316C18.3252 21.316 18.3252 21.316 18.3252 21.316C18.3252 21.316 18.3252 21.316 18.3252 21.316ZM18.2964 21.3055C18.2961 21.3064 18.2955 21.3088 18.2957 21.3118C18.2958 21.3144 18.2964 21.3161 18.2969 21.3173C18.2974 21.3184 18.2984 21.32 18.3003 21.3217C18.3025 21.3238 18.3047 21.3249 18.3055 21.3252L18.3108 21.3108L18.3108 21.3107L18.3108 21.3107L18.316 21.2963C18.3152 21.2961 18.3127 21.2955 18.3097 21.2956C18.3072 21.2958 18.3054 21.2963 18.3043 21.2968C18.3032 21.2974 18.3017 21.2983 18.2999 21.3002C18.2979 21.3024 18.2967 21.3046 18.2964 21.3055C18.2964 21.3055 18.2964 21.3055 18.2964 21.3055C18.2964 21.3055 18.2964 21.3055 18.2964 21.3055Z" fill="#29353C" stroke="#29353C" stroke-width="1.4"/>
<path d="M29.6585 26.165L31.2962 21.6655C29.0945 19.9183 26.3856 18.9323 23.5759 18.8556C20.7663 18.7788 18.0573 17.7472 15.8556 16L13 23.7659C15.2017 25.5131 17.9563 26.4991 20.7659 26.5759C22.2128 26.6154 23.633 26.8961 24.9709 27.3976" stroke="#29353C" stroke-width="1.4" stroke-miterlimit="10" stroke-linecap="round" stroke-linejoin="round"/>
<path d="M23.4572 23.1841C23.1985 23.8947 22.4128 24.2611 21.7021 24.0024C20.9915 23.7438 20.6251 22.958 20.8837 22.2474C21.1424 21.5368 21.9282 21.1704 22.6388 21.429C23.3494 21.6876 23.7158 22.4734 23.4572 23.1841Z" stroke="#29353C" stroke-width="1.4" stroke-miterlimit="10" stroke-linecap="round" stroke-linejoin="round"/>
<path d="M21.9638 32.6748C21.9629 32.6751 21.9607 32.6763 21.9585 32.6783C21.9566 32.68 21.9556 32.6816 21.9551 32.6827C21.9546 32.6838 21.954 32.6856 21.9539 32.6881C21.9537 32.6911 21.9543 32.6936 21.9546 32.6944L21.969 32.6892L21.9638 32.6748ZM21.969 32.6893L21.9546 32.6945C21.9549 32.6953 21.9561 32.6976 21.9581 32.6998C21.9599 32.7016 21.9614 32.7026 21.9625 32.7031C21.9636 32.7036 21.9654 32.7042 21.9679 32.7043C21.971 32.7045 21.9735 32.7039 21.9743 32.7036L21.969 32.6893ZM21.9638 32.6748L21.9691 32.6891L21.9834 32.6839C21.9831 32.683 21.9819 32.6808 21.9799 32.6786C21.9782 32.6768 21.9766 32.6758 21.9755 32.6753C21.9744 32.6747 21.9726 32.6742 21.9701 32.674C21.9671 32.6739 21.9646 32.6745 21.9638 32.6748ZM21.9842 32.6903C21.9843 32.6873 21.9838 32.6849 21.9835 32.684L21.9691 32.6892L21.9743 32.7036C21.9751 32.7033 21.9774 32.7022 21.9796 32.7001C21.9814 32.6984 21.9824 32.6968 21.9829 32.6957C21.9835 32.6946 21.984 32.6928 21.9842 32.6903Z" fill="#29353C" stroke="#29353C" stroke-width="1.4"/>
<path d="M29.6888 29.8792L29.7032 29.874L29.6888 29.8792ZM29.6888 29.8792L29.6888 29.8793L29.694 29.8937C29.6948 29.8934 29.6971 29.8922 29.6993 29.8902C29.7011 29.8884 29.7021 29.8869 29.7026 29.8858C29.7032 29.8846 29.7037 29.8829 29.7039 29.8803C29.704 29.8773 29.7035 29.8749 29.7032 29.874L29.6888 29.8792ZM29.6835 29.8648C29.6827 29.8652 29.6804 29.8663 29.6782 29.8684C29.6763 29.8701 29.6754 29.8717 29.6748 29.8728C29.6743 29.8739 29.6737 29.8756 29.6736 29.8782C29.6735 29.8812 29.674 29.8837 29.6743 29.8845L29.6887 29.8792L29.6835 29.8648ZM29.6836 29.8648L29.6888 29.8792L29.7032 29.874C29.7028 29.8731 29.7017 29.8709 29.6996 29.8687C29.6979 29.8668 29.6964 29.8659 29.6952 29.8653C29.6941 29.8648 29.6924 29.8642 29.6899 29.8641C29.6868 29.864 29.6843 29.8645 29.6836 29.8648ZM29.6887 29.8792L29.6743 29.8845C29.6743 29.8845 29.6743 29.8845 29.6743 29.8845C29.6747 29.8854 29.6758 29.8876 29.6779 29.8898C29.6796 29.8917 29.6812 29.8927 29.6823 29.8932C29.6834 29.8937 29.6851 29.8943 29.6876 29.8944C29.6907 29.8946 29.6932 29.894 29.694 29.8937L29.6887 29.8793L29.6887 29.8792Z" fill="#29353C" stroke="#29353C" stroke-width="1.4"/>
<path d="M16.7041 30.2341C18.9057 28.4868 21.6147 27.5009 24.4244 27.4241C27.234 27.3473 29.943 26.3613 32.1447 24.6142L35.0003 32.3344C32.7986 34.0816 30.044 35.0676 27.2343 35.1444C24.4246 35.2212 21.7157 36.2528 19.514 38L16.7041 30.2341Z" stroke="#29353C" stroke-width="1.4" stroke-miterlimit="10" stroke-linecap="round" stroke-linejoin="round"/>
<path d="M24.5419 31.7526C24.8006 32.4632 25.5863 32.8296 26.297 32.571C27.0076 32.3124 27.374 31.5266 27.1154 30.816C26.8567 30.1053 26.0709 29.7389 25.3603 29.9976C24.6497 30.2562 24.2833 31.042 24.5419 31.7526Z" stroke="#29353C" stroke-width="1.4" stroke-miterlimit="10" stroke-linecap="round" stroke-linejoin="round"/>
</g>
</g>
<circle cx="40" cy="9" r="8" fill="#0092E6"/>
<path d="M40.3703 13.108C39.8023 13.108 39.2623 13.024 38.7503 12.856C38.2383 12.68 37.8103 12.436 37.4663 12.124L37.8983 11.164C38.2743 11.468 38.6623 11.692 39.0623 11.836C39.4623 11.98 39.8863 12.052 40.3343 12.052C40.9103 12.052 41.3463 11.928 41.6423 11.68C41.9463 11.432 42.0983 11.076 42.0983 10.612C42.0983 10.148 41.9463 9.804 41.6423 9.58C41.3463 9.356 40.9143 9.244 40.3463 9.244H39.0383V8.2H40.2263C40.7303 8.2 41.1263 8.072 41.4143 7.816C41.7103 7.56 41.8583 7.208 41.8583 6.76C41.8583 6.352 41.7223 6.04 41.4503 5.824C41.1783 5.6 40.7903 5.488 40.2863 5.488C39.4303 5.488 38.6823 5.796 38.0423 6.412L37.6103 5.464C37.9383 5.136 38.3463 4.884 38.8343 4.708C39.3303 4.524 39.8463 4.432 40.3823 4.432C41.2303 4.432 41.8903 4.628 42.3623 5.02C42.8343 5.404 43.0703 5.94 43.0703 6.628C43.0703 7.092 42.9503 7.5 42.7103 7.852C42.4783 8.204 42.1543 8.46 41.7383 8.62C42.2423 8.748 42.6303 8.996 42.9023 9.364C43.1743 9.724 43.3103 10.168 43.3103 10.696C43.3103 11.44 43.0463 12.028 42.5183 12.46C41.9983 12.892 41.2823 13.108 40.3703 13.108Z" fill="white"/>
<defs>
<clipPath id="clip0_89_5162">
<rect width="24" height="24" fill="white" transform="translate(12 15)"/>
</clipPath>
</defs>
</svg>
