<svg width="116" height="28" viewBox="0 0 116 28" fill="none" xmlns="http://www.w3.org/2000/svg">
<g clip-path="url(#clip0_864_1538)">
<path fill-rule="evenodd" clip-rule="evenodd" d="M10.0847 6.59075H17.9821C22.2224 6.59075 23.8186 8.73738 23.5719 11.8911C23.1642 17.0976 20.0167 19.9782 15.8416 19.9782H13.7337C13.1609 19.9782 12.7756 20.3573 12.6207 21.3848L11.7257 27.3578C11.6666 27.7452 11.4627 27.9694 11.157 28H6.19503C5.7282 28 5.56307 27.6432 5.68538 26.8706L8.71065 7.72217C8.82889 6.95566 9.24884 6.59075 10.0847 6.59075Z" fill="#009EE3"/>
<path fill-rule="evenodd" clip-rule="evenodd" d="M44.3716 6.23604C47.0361 6.23604 49.4946 7.6814 49.1582 11.2836C48.7505 15.5646 46.4571 17.9335 42.8386 17.9436H39.6768C39.2222 17.9436 39.002 18.3147 38.8838 19.0751L38.2722 22.9627C38.1804 23.5498 37.8787 23.8392 37.4343 23.8392H34.4926C34.0238 23.8392 33.8607 23.5396 33.9646 22.8689L36.3926 7.28795C36.5129 6.52145 36.8003 6.23604 37.3242 6.23604H44.3655H44.3716ZM39.581 14.5779H41.9763C43.4747 14.5209 44.4695 13.4832 44.5694 11.6118C44.6305 10.4559 43.8498 9.62825 42.6083 9.63436L40.3536 9.64456L39.581 14.5779ZM57.1556 22.6467C57.4247 22.402 57.6979 22.2756 57.6592 22.5774L57.5633 23.299C57.5144 23.6762 57.6632 23.8759 58.0139 23.8759H60.6273C61.0677 23.8759 61.2817 23.6986 61.3898 23.0177L63.0002 12.9104C63.0818 12.4028 62.9574 12.1541 62.5722 12.1541H59.6977C59.4388 12.1541 59.3124 12.2988 59.2452 12.6943L59.1392 13.3161C59.0841 13.6402 58.9353 13.6973 58.7967 13.3711C58.3095 12.2173 57.0659 11.6995 55.3311 11.7402C51.3008 11.8238 48.5834 14.8837 48.2918 18.806C48.0676 21.8394 50.2407 24.2225 53.107 24.2225C55.1863 24.2225 56.1159 23.6109 57.1638 22.6528L57.1556 22.6467ZM54.9662 21.0912C53.2313 21.0912 52.0225 19.707 52.2732 18.0109C52.5239 16.3148 54.1467 14.9306 55.8815 14.9306C57.6163 14.9306 58.8252 16.3148 58.5745 18.0109C58.3237 19.707 56.7031 21.0912 54.9662 21.0912ZM68.1151 12.1214H65.4649C64.9186 12.1214 64.6964 12.5292 64.8696 13.0307L68.1599 22.665L64.9328 27.2498C64.6617 27.6331 64.8717 27.9817 65.2529 27.9817H68.2313C68.4049 28.0017 68.5805 27.9715 68.7374 27.8945C68.8943 27.8175 69.0257 27.697 69.116 27.5474L79.2356 13.0327C79.5475 12.5862 79.4007 12.1174 78.889 12.1174H76.0696C75.5865 12.1174 75.3928 12.309 75.1156 12.7106L70.8957 18.8264L69.01 12.6963C68.8999 12.3253 68.6247 12.1214 68.1171 12.1214H68.1151Z" fill="#113984"/>
<path fill-rule="evenodd" clip-rule="evenodd" d="M89.7622 6.23604C92.4266 6.23604 94.8851 7.6814 94.5488 11.2836C94.1411 15.5646 91.8477 17.9335 88.2292 17.9436H85.0694C84.6147 17.9436 84.3946 18.3147 84.2763 19.0751L83.6648 22.9627C83.573 23.5498 83.2713 23.8392 82.8269 23.8392H79.8852C79.4163 23.8392 79.2533 23.5396 79.3572 22.8689L81.7893 7.28387C81.9095 6.51736 82.197 6.23196 82.7209 6.23196H89.7622V6.23604ZM84.9715 14.5779H87.3668C88.8652 14.5209 89.86 13.4832 89.9599 11.6118C90.0211 10.4559 89.2403 9.62825 87.9988 9.63436L85.7441 9.64456L84.9715 14.5779ZM102.546 22.6467C102.815 22.402 103.088 22.2757 103.05 22.5774L102.954 23.299C102.905 23.6762 103.054 23.8759 103.404 23.8759H106.018C106.458 23.8759 106.672 23.6986 106.78 23.0177L108.391 12.9104C108.472 12.4028 108.348 12.1541 107.963 12.1541H105.092C104.833 12.1541 104.707 12.2988 104.64 12.6943L104.534 13.3161C104.479 13.6402 104.33 13.6973 104.191 13.3711C103.704 12.2173 102.461 11.6995 100.726 11.7402C96.6954 11.8238 93.978 14.8837 93.6865 18.806C93.4622 21.8394 95.6353 24.2225 98.5016 24.2225C100.581 24.2225 101.511 23.6109 102.558 22.6528L102.546 22.6467ZM100.359 21.0912C98.6239 21.0912 97.415 19.707 97.6658 18.0109C97.9165 16.3148 99.5392 14.9306 101.274 14.9306C103.009 14.9306 104.218 16.3148 103.967 18.0109C103.716 19.707 102.094 21.0912 100.359 21.0912ZM112.413 23.8922H109.396C109.343 23.8946 109.291 23.8853 109.243 23.8651C109.194 23.8449 109.151 23.8142 109.115 23.7752C109.08 23.7363 109.054 23.69 109.039 23.6398C109.023 23.5895 109.019 23.5365 109.027 23.4845L111.677 6.69472C111.702 6.58014 111.766 6.47748 111.857 6.40346C111.948 6.32943 112.061 6.28839 112.178 6.28701H115.196C115.248 6.28466 115.3 6.29393 115.349 6.31416C115.397 6.33438 115.441 6.36507 115.476 6.40402C115.511 6.44297 115.538 6.48922 115.553 6.53947C115.568 6.58972 115.572 6.64274 115.565 6.69472L112.914 23.4845C112.89 23.5999 112.827 23.7035 112.736 23.7783C112.645 23.8531 112.531 23.8947 112.413 23.8963V23.8922Z" fill="#009EE3"/>
<path fill-rule="evenodd" clip-rule="evenodd" d="M5.14505 3.8147e-06H13.0507C15.2768 3.8147e-06 17.9188 0.0713544 19.6843 1.63087C20.8646 2.67259 21.4843 4.32996 21.3416 6.11577C20.8564 12.152 17.2461 15.534 12.4024 15.534H8.50464C7.84006 15.534 7.40177 15.9744 7.21422 17.1649L6.12561 24.0961C6.05426 24.5446 5.8606 24.8096 5.51404 24.8422H0.635697C0.0954711 24.8422 -0.096158 24.4345 0.0445045 23.5335L3.55087 1.31693C3.69154 0.424028 4.18284 3.8147e-06 5.14505 3.8147e-06Z" fill="#113984"/>
<path fill-rule="evenodd" clip-rule="evenodd" d="M7.32812 16.4616L8.70825 7.72217C8.82853 6.95566 9.24848 6.58871 10.0843 6.58871H17.9818C19.2885 6.58871 20.3465 6.79257 21.1742 7.16971C20.3812 12.5434 16.9054 15.5279 12.3553 15.5279H8.46362C7.94174 15.53 7.55849 15.7909 7.32812 16.4616Z" fill="#172C70"/>
</g>
<defs>
<clipPath id="clip0_864_1538">
<rect width="115.574" height="28" fill="white"/>
</clipPath>
</defs>
</svg>
