<svg width="24" height="24" viewBox="0 0 24 24" fill="none" xmlns="http://www.w3.org/2000/svg">
<path d="M19.6153 6.68391C19.6525 6.38119 19.672 6.07298 19.672 5.76021C19.672 3.13125 17.5408 1 14.9118 1H6.95646C6.45604 1 6.02881 1.36137 5.94579 1.85482L3.01446 19.2776C2.90928 19.9028 3.39121 20.4725 4.02513 20.4725H6.93459C7.435 20.4725 7.87028 20.1114 7.95325 19.6179C7.95325 19.6179 7.9581 19.589 7.96687 19.5369H7.96691L7.56146 21.9468C7.46882 22.4978 7.89356 23 8.45229 23H10.9976C11.4387 23 11.8153 22.6815 11.8884 22.2465L12.6115 17.9488C12.7362 17.2079 13.3776 16.6655 14.1288 16.6655H14.7975C18.4296 16.6655 21.374 13.721 21.374 10.0889C21.374 8.68346 20.6793 7.4411 19.6153 6.68391Z" fill="#002987"/>
<path d="M19.6153 6.68384C19.1601 10.3868 16.0041 13.2542 12.178 13.2542H9.95807C9.45701 13.2542 9.02427 13.5879 8.88853 14.0598L7.56157 21.9467C7.46889 22.4977 7.89363 22.9999 8.45235 22.9999H10.9977C11.4388 22.9999 11.8153 22.6814 11.8885 22.2465L12.6116 17.9487C12.7363 17.2079 13.3776 16.6654 14.1289 16.6654H14.7975C18.4297 16.6654 21.3741 13.721 21.3741 10.0889C21.3741 8.68339 20.6794 7.44103 19.6153 6.68384Z" fill="#0085CC"/>
<path d="M9.95801 13.2542H12.178C16.0041 13.2542 19.1601 10.3868 19.6153 6.68387C18.9326 6.19806 18.0983 5.91138 17.1966 5.91138H11.4022C10.7425 5.91138 10.1793 6.38777 10.0698 7.03832L8.88843 14.0598C9.02417 13.5879 9.45695 13.2542 9.95801 13.2542Z" fill="#00186A"/>
</svg>
