<svg width="33" height="32" viewBox="0 0 33 32" fill="none" xmlns="http://www.w3.org/2000/svg">
<path d="M28.2253 8.93924L28.2049 8.90398C28.1767 8.84537 28.1441 8.78923 28.1077 8.73588L24.2737 2.10734C23.9975 1.6299 23.4833 1.33331 22.9318 1.33331H9.73684C9.18442 1.33331 8.66983 1.6306 8.39376 2.10933L4.49724 8.86921C4.46215 8.93014 4.43685 8.99388 4.41898 9.05863C4.36413 9.20671 4.33398 9.36673 4.33398 9.5337V26.9932C4.33398 28.0405 5.18601 28.8925 6.23326 28.8925H26.4346C27.4819 28.8925 28.3339 28.0405 28.3339 26.9932V9.4697C28.3339 9.44629 28.3332 9.42303 28.332 9.39989C28.343 9.24449 28.3093 9.08425 28.2253 8.93924ZM17.1693 2.94871H22.8942L25.9102 8.16306H17.1693V2.94871ZM9.77446 2.94871H15.5539V8.16306H6.76878L9.77446 2.94871ZM26.7185 26.9933C26.7185 27.1498 26.5912 27.2771 26.4346 27.2771H6.23326C6.07673 27.2771 5.94938 27.1498 5.94938 26.9933V9.77845H26.7185V26.9933Z" fill="#0092E6"/>
<path d="M19.1188 15.9365C18.8608 15.5925 18.4423 15.5925 18.1842 15.9365L15.2335 19.8708L14.0988 18.358C13.8408 18.0139 13.4223 18.0139 13.1643 18.358C12.9062 18.702 12.9062 19.26 13.1643 19.6041L14.7663 21.74C14.8953 21.912 15.0645 21.9981 15.2335 21.9981C15.4026 21.9981 15.5718 21.912 15.7008 21.74L19.1188 17.1826C19.3769 16.8385 19.3769 16.2806 19.1188 15.9365Z" fill="#0092E6"/>
</svg>
