<svg width="48" height="51" viewBox="0 0 48 51" fill="none" xmlns="http://www.w3.org/2000/svg">
<rect x="0.5" y="3.5" width="47" height="47" rx="23.5" stroke="#D6D9DC"/>
<g clip-path="url(#clip0_89_5170)">
<path d="M35.8021 26.9896L31.7685 22.822C31.6361 22.6851 31.4538 22.6078 31.2633 22.6078H28.6858V19.5743C28.6858 19.186 28.371 18.8712 27.9827 18.8712H14.9231C14.5348 18.8712 14.22 19.186 14.22 19.5743V21.6843H13.6877C13.2994 21.6843 12.9846 21.9991 12.9846 22.3874C12.9846 22.7757 13.2994 23.0906 13.6877 23.0906H14.22V24.4975H12.7031C12.3148 24.4975 12 24.8123 12 25.2006C12 25.5889 12.3148 25.9037 12.7031 25.9037H14.22V32.3611C14.22 32.7494 14.5348 33.0642 14.9231 33.0642H16.4198C16.5561 33.518 16.8032 33.9337 17.1477 34.2782C17.6962 34.8267 18.4255 35.1288 19.2013 35.1288C19.977 35.1288 20.7063 34.8267 21.2549 34.2782C21.6034 33.9296 21.8443 33.5136 21.9782 33.0719H28.6928C28.8268 33.5136 29.0677 33.9296 29.4162 34.2782C29.9648 34.8267 30.6941 35.1288 31.4698 35.1288C32.2455 35.1288 32.9748 34.8267 33.5234 34.2782C33.872 33.9296 34.1128 33.5136 34.2468 33.0719H35.2969C35.6852 33.0719 36 32.7571 36 32.3688V27.4786C36 27.296 35.929 27.1207 35.8021 26.9896ZM33.6379 26.7755H28.6661V24.0141H30.9653L33.6379 26.7755ZM15.6262 25.9037H19.2859C19.6742 25.9037 19.989 25.5889 19.989 25.2005C19.989 24.8122 19.6742 24.4974 19.2859 24.4974H15.6262V23.0905H19.8016C20.19 23.0905 20.5048 22.7757 20.5048 22.3874C20.5048 21.9991 20.19 21.6843 19.8016 21.6843H15.6262V20.2774H19.8016H27.2795L27.2598 31.6656H22.0502C21.9435 31.1175 21.6785 30.5945 21.2549 30.1708C20.7063 29.6222 19.977 29.3202 19.2013 29.3202C18.4255 29.3202 17.6962 29.6222 17.1477 30.1708C16.7352 30.5833 16.4621 31.098 16.352 31.6579H15.6262V25.9037ZM20.2605 33.2838C19.9776 33.5667 19.6013 33.7226 19.2013 33.7226C18.8012 33.7226 18.425 33.5667 18.142 33.2838C17.8591 33.0009 17.7033 32.6247 17.7033 32.2245C17.7033 31.8244 17.8591 31.4481 18.142 31.1652C18.425 30.8823 18.8012 30.7265 19.2013 30.7265C19.6013 30.7265 19.9776 30.8823 20.2605 31.1652C20.8446 31.7493 20.8446 32.6997 20.2605 33.2838ZM32.529 33.2838C32.246 33.5667 31.8698 33.7226 31.4697 33.7226C31.0696 33.7226 30.6934 33.5667 30.4105 33.2838C29.8264 32.6997 29.8264 31.7494 30.4105 31.1652C30.6934 30.8823 31.0696 30.7265 31.4697 30.7265C31.8698 30.7265 32.246 30.8823 32.529 31.1652C32.8119 31.4482 32.9677 31.8244 32.9677 32.2246C32.9677 32.6247 32.8119 33.0009 32.529 33.2838ZM34.3187 31.6656C34.212 31.1176 33.947 30.5945 33.5233 30.1708C32.9748 29.6223 32.2455 29.3202 31.4697 29.3202C30.694 29.3202 29.9647 29.6223 29.4161 30.1708C29.0426 30.5444 28.7931 30.9953 28.666 31.4724V28.1817H34.5938V31.6656H34.3187Z" fill="#29353C"/>
</g>
<circle cx="40" cy="9" r="8" fill="#0092E6"/>
<path d="M37.9223 13V12.076L40.7423 9.052C41.1343 8.628 41.4143 8.244 41.5823 7.9C41.7583 7.556 41.8463 7.208 41.8463 6.856C41.8463 5.944 41.3103 5.488 40.2383 5.488C39.4223 5.488 38.6903 5.796 38.0423 6.412L37.5983 5.464C37.9183 5.152 38.3263 4.904 38.8223 4.72C39.3183 4.528 39.8343 4.432 40.3703 4.432C41.2423 4.432 41.9103 4.632 42.3743 5.032C42.8463 5.432 43.0823 6.004 43.0823 6.748C43.0823 7.252 42.9583 7.744 42.7103 8.224C42.4703 8.704 42.0903 9.216 41.5703 9.76L39.4823 11.956H43.4183V13H37.9223Z" fill="white"/>
<defs>
<clipPath id="clip0_89_5170">
<rect width="24" height="24" fill="white" transform="translate(12 15)"/>
</clipPath>
</defs>
</svg>
