<svg width="48" height="50" viewBox="0 0 48 50" fill="none" xmlns="http://www.w3.org/2000/svg">
<rect x="0.5" y="2.5" width="47" height="47" rx="23.5" stroke="#63DD1A"/>
<path d="M29.3554 14H18.6445C18.1841 14.0005 17.7428 14.1836 17.4173 14.5091C17.0918 14.8346 16.9087 15.2759 16.9082 15.7363V36.2638C16.9087 36.7241 17.0918 37.1654 17.4174 37.4909C17.7429 37.8164 18.1842 37.9995 18.6445 38H29.3555C29.8158 37.9995 30.2571 37.8164 30.5826 37.4909C30.9081 37.1654 31.0912 36.7241 31.0917 36.2638V15.7363C31.0912 15.2759 30.9081 14.8346 30.5826 14.5091C30.2571 14.1836 29.8157 14.0005 29.3554 14ZM18.6445 15.125H29.3554C29.5174 15.1252 29.6728 15.1896 29.7874 15.3042C29.902 15.4188 29.9665 15.5742 29.9666 15.7363V33.195H18.0333V15.7363C18.0335 15.5742 18.0979 15.4188 18.2125 15.3042C18.3271 15.1896 18.4825 15.1252 18.6445 15.125H18.6445ZM29.3554 36.875H18.6445C18.4824 36.8748 18.327 36.8104 18.2124 36.6958C18.0978 36.5812 18.0334 36.4258 18.0332 36.2638V34.32H29.9666V36.2638C29.9665 36.4258 29.902 36.5812 29.7874 36.6958C29.6728 36.8104 29.5174 36.8748 29.3554 36.875ZM22.1317 16.8751C22.1317 16.7259 22.1909 16.5829 22.2964 16.4774C22.4019 16.3719 22.545 16.3126 22.6942 16.3126H25.2289C25.3781 16.3126 25.5212 16.3719 25.6267 16.4774C25.7322 16.5829 25.7914 16.7259 25.7914 16.8751C25.7914 17.0243 25.7322 17.1674 25.6267 17.2729C25.5212 17.3784 25.3781 17.4376 25.2289 17.4376H22.6942C22.545 17.4376 22.4019 17.3784 22.2964 17.2729C22.1909 17.1674 22.1317 17.0243 22.1317 16.8751ZM25.2322 35.5975C25.2322 35.7467 25.1729 35.8898 25.0674 35.9953C24.9619 36.1008 24.8189 36.16 24.6697 36.16H23.3303C23.1811 36.16 23.038 36.1008 22.9325 35.9953C22.827 35.8898 22.7678 35.7467 22.7678 35.5975C22.7678 35.4483 22.827 35.3053 22.9325 35.1998C23.038 35.0943 23.1811 35.035 23.3303 35.035H24.6697C24.8189 35.035 24.9619 35.0943 25.0674 35.1998C25.1729 35.3053 25.2322 35.4483 25.2322 35.5975Z" fill="#7EC91C"/>
<circle cx="40" cy="8" r="8" fill="#7EC91C"/>
<path d="M38.125 12C37.9592 12 37.8003 11.9297 37.6831 11.8047L35.1831 9.13805C34.939 8.8777 34.939 8.45559 35.1831 8.19525C35.4272 7.93488 35.8229 7.93491 36.0669 8.19525L38.125 10.3905L43.9331 4.19526C44.1771 3.93491 44.5729 3.93491 44.8169 4.19526C45.061 4.4556 45.061 4.87771 44.8169 5.13805L38.5669 11.8047C38.4497 11.9297 38.2908 12 38.125 12Z" fill="white"/>
</svg>
