<svg width="33" height="32" viewBox="0 0 33 32" fill="none" xmlns="http://www.w3.org/2000/svg">
<path d="M11.1635 11.7972C13.0242 9.84574 15.5338 8.77102 18.2307 8.76994C18.2321 8.76994 18.2332 8.77072 18.2345 8.77072C18.2359 8.77072 18.237 8.76994 18.2383 8.76994C23.6342 8.77199 28.0242 13.1679 28.0242 18.57C28.0242 23.9686 23.6322 28.3606 18.2345 28.3606C15.5391 28.3606 13.0271 27.2884 11.1616 25.3419C10.9672 25.1401 10.7082 25.0422 10.4485 25.0421C10.2027 25.0421 9.9561 25.1294 9.76418 25.3129C9.37043 25.6902 9.35692 26.3156 9.73522 26.7103C11.9443 29.0149 15.0421 30.337 18.2345 30.337C24.7227 30.337 30.0006 25.0581 30.0006 18.57C30.0006 15.679 28.9503 13.0318 27.217 10.9801L28.7229 9.47425C29.1089 9.08823 29.1089 8.46287 28.7229 8.07684C28.3368 7.69081 27.7115 7.69081 27.3255 8.07684L25.8203 9.58198C24.0068 8.04614 21.7258 7.05321 19.2228 6.84343V4.64314H20.7862C21.3324 4.64314 21.7744 4.20114 21.7744 3.65491C21.7744 3.10869 21.3324 2.66669 20.7862 2.66669H15.682C15.1357 2.66669 14.6937 3.10869 14.6937 3.65491C14.6937 4.20114 15.1357 4.64314 15.682 4.64314H17.2463V6.84427C14.4061 7.08735 11.7101 8.35972 9.73329 10.4326C9.35692 10.8282 9.37139 11.4536 9.76611 11.83C9.95809 12.0121 10.2038 12.0986 10.4485 12.099C10.7095 12.0994 10.9693 12.0013 11.1635 11.7972Z" fill="#0092E6"/>
<path d="M20.2108 19.5544H22.525C23.0712 19.5544 23.5132 19.1124 23.5132 18.5661C23.5132 18.0199 23.0712 17.5779 22.525 17.5779H20.2108C19.6655 17.5779 19.2225 17.1349 19.2225 16.5897V14.0853C19.2225 13.5391 18.7805 13.0971 18.2343 13.0971C17.6881 13.0971 17.2461 13.5391 17.2461 14.0853V16.5897C17.2461 18.2245 18.576 19.5544 20.2108 19.5544Z" fill="#0092E6"/>
<path d="M13.6978 18.5661C13.6978 18.0199 13.2558 17.5779 12.7096 17.5779H6.45209C5.90587 17.5779 5.46387 18.0199 5.46387 18.5661C5.46387 19.1123 5.90587 19.5543 6.45209 19.5543H12.7096C13.2558 19.5543 13.6978 19.1123 13.6978 18.5661Z" fill="#0092E6"/>
<path d="M11.5679 14.3054C11.5679 13.7591 11.1259 13.3171 10.5797 13.3171H4.32221C3.77598 13.3171 3.33398 13.7591 3.33398 14.3054C3.33398 14.8516 3.77598 15.2936 4.32221 15.2936H10.5797C11.1259 15.2936 11.5679 14.8516 11.5679 14.3054Z" fill="#0092E6"/>
<path d="M11.5679 22.8259C11.5679 22.2797 11.1259 21.8377 10.5797 21.8377H4.32221C3.77598 21.8377 3.33398 22.2797 3.33398 22.8259C3.33398 23.3722 3.77598 23.8142 4.32221 23.8142H10.5797C11.1259 23.8142 11.5679 23.3722 11.5679 22.8259Z" fill="#0092E6"/>
</svg>
