<svg width="24" height="24" viewBox="0 0 24 24" fill="none" xmlns="http://www.w3.org/2000/svg">
<path d="M7.8724 8.84786C9.26792 7.38429 11.1501 6.57825 13.1728 6.57744C13.1738 6.57744 13.1746 6.57803 13.1757 6.57803C13.1767 6.57803 13.1775 6.57744 13.1785 6.57744C17.2254 6.57898 20.5179 9.87588 20.5179 13.9275C20.5179 17.9764 17.2239 21.2704 13.1757 21.2704C11.1541 21.2704 9.27005 20.4663 7.87095 19.0064C7.72519 18.8551 7.53094 18.7816 7.33615 18.7816C7.15176 18.7816 6.96683 18.847 6.82289 18.9847C6.52758 19.2677 6.51744 19.7367 6.80117 20.0327C8.45795 21.7611 10.7813 22.7528 13.1757 22.7528C18.0418 22.7528 22.0002 18.7936 22.0002 13.9275C22.0002 11.7592 21.2125 9.77387 19.9125 8.23507L21.0419 7.10568C21.3314 6.81616 21.3314 6.34713 21.0419 6.05761C20.7524 5.7681 20.2834 5.7681 19.9938 6.05761L18.865 7.18647C17.5048 6.03459 15.7941 5.28989 13.9168 5.13256V3.48234H15.0894C15.4991 3.48234 15.8306 3.15084 15.8306 2.74117C15.8306 2.3315 15.4991 2 15.0894 2H11.2612C10.8516 2 10.5201 2.3315 10.5201 2.74117C10.5201 3.15084 10.8516 3.48234 11.2612 3.48234H12.4345V5.13319C10.3044 5.3155 8.28234 6.26978 6.79973 7.82441C6.51744 8.12116 6.5283 8.59019 6.82433 8.87247C6.96833 9.00908 7.15262 9.07396 7.33615 9.07423C7.53185 9.07454 7.72673 9.00099 7.8724 8.84786Z" fill="#29353C"/>
<path d="M14.6581 14.6657H16.3937C16.8034 14.6657 17.1349 14.3342 17.1349 13.9245C17.1349 13.5149 16.8034 13.1834 16.3937 13.1834H14.6581C14.2491 13.1834 13.9169 12.8511 13.9169 12.4422V10.5639C13.9169 10.1543 13.5854 9.82275 13.1757 9.82275C12.7661 9.82275 12.4346 10.1543 12.4346 10.5639V12.4422C12.4346 13.6683 13.432 14.6657 14.6581 14.6657Z" fill="#29353C"/>
<path d="M9.77311 13.9246C9.77311 13.515 9.44161 13.1835 9.03194 13.1835H4.33883C3.92916 13.1835 3.59766 13.515 3.59766 13.9246C3.59766 14.3343 3.92916 14.6658 4.33883 14.6658H9.03194C9.44161 14.6658 9.77311 14.3343 9.77311 13.9246Z" fill="#29353C"/>
<path d="M8.17545 10.729C8.17545 10.3193 7.84395 9.98779 7.43428 9.98779H2.74117C2.3315 9.98779 2 10.3193 2 10.729C2 11.1386 2.3315 11.4701 2.74117 11.4701H7.43428C7.84395 11.4701 8.17545 11.1386 8.17545 10.729Z" fill="#29353C"/>
<path d="M8.17545 17.1195C8.17545 16.7098 7.84395 16.3783 7.43428 16.3783H2.74117C2.3315 16.3783 2 16.7098 2 17.1195C2 17.5291 2.3315 17.8606 2.74117 17.8606H7.43428C7.84395 17.8606 8.17545 17.5291 8.17545 17.1195Z" fill="#29353C"/>
</svg>
