<svg width="185" height="16" viewBox="0 0 185 16" fill="none" xmlns="http://www.w3.org/2000/svg">
<path d="M8.4116 0L10.6994 5.69616L16.8232 6.11143L12.1128 10.0472L13.6105 16L8.4116 12.7362L3.21268 16L4.71036 10.0472L0 6.11143L6.1238 5.69616L8.4116 0Z" fill="#00B67E"/>
<path d="M27.8641 5.02328H24.8763V13.2624H23.2245V5.02328H20.2637V3.68076H27.8641V5.02328ZM32.267 7.60286C32.0564 7.56782 31.8391 7.5503 31.615 7.5503C30.8822 7.5503 30.3886 7.83105 30.1342 8.39264V13.2624H28.5355V6.14199H30.0618L30.1014 6.93826C30.488 6.31964 31.0229 6.01034 31.7077 6.01034C31.9351 6.01034 32.1238 6.04108 32.2729 6.10249L32.267 7.60286ZM37.5906 12.5648C37.1214 13.1176 36.4543 13.394 35.5901 13.394C34.8176 13.394 34.2322 13.168 33.8329 12.7162C33.4379 12.2643 33.2408 11.6106 33.2408 10.7551V6.14199H34.8395V10.7354C34.8395 11.6391 35.2152 12.091 35.9649 12.091C36.7415 12.091 37.2663 11.8124 37.5375 11.2553V6.14199H39.1372V13.2624H37.6302L37.5906 12.5648ZM44.7572 11.3276C44.7572 11.0425 44.6385 10.8253 44.4018 10.6761C44.1693 10.527 43.781 10.3954 43.2368 10.2813C42.6927 10.1672 42.2386 10.0224 41.8748 9.84694C41.0762 9.4609 40.6769 8.9015 40.6769 8.16883C40.6769 7.55468 40.9355 7.04136 41.4536 6.62895C41.9708 6.21654 42.6295 6.01034 43.428 6.01034C44.2788 6.01034 44.9653 6.22092 45.4876 6.64209C46.014 7.06326 46.2768 7.60952 46.2768 8.28069H44.6781C44.6781 7.97366 44.5643 7.71919 44.3361 7.51737C44.1078 7.31116 43.8054 7.20806 43.428 7.20806C43.0768 7.20806 42.7895 7.28926 42.5655 7.45158C42.3465 7.6139 42.237 7.83105 42.237 8.10305C42.237 8.34876 42.3397 8.53955 42.5461 8.67558C42.7525 8.81154 43.1686 8.94977 43.7961 9.09018C44.4237 9.22614 44.9148 9.39065 45.2702 9.58371C45.6299 9.77239 45.8952 10.0005 46.0662 10.2681C46.2423 10.5357 46.3299 10.8604 46.3299 11.2421C46.3299 11.8826 46.0646 12.4025 45.5339 12.8017C45.0024 13.1966 44.3074 13.394 43.4474 13.394C42.8637 13.394 42.3439 13.2887 41.8882 13.0781C41.4317 12.8675 41.0762 12.578 40.8218 12.2095C40.5674 11.8409 40.4403 11.4439 40.4403 11.0183H41.9935C42.0154 11.3957 42.1578 11.6874 42.4206 11.8936C42.6842 12.0954 43.033 12.1963 43.4676 12.1963C43.8888 12.1963 44.2089 12.1173 44.4279 11.9594C44.6477 11.797 44.7572 11.5865 44.7572 11.3276ZM49.7321 4.41124V6.14199H50.9889V7.32649H49.7321V11.3013C49.7321 11.5733 49.7852 11.7708 49.8905 11.8936C50 12.012 50.1929 12.0712 50.4691 12.0712C50.6536 12.0712 50.8398 12.0493 51.0285 12.0054V13.2427C50.6646 13.3436 50.3133 13.394 49.9755 13.394C48.7474 13.394 48.1333 12.7162 48.1333 11.3605V7.32649H46.9617V6.14199H48.1333V4.41124H49.7321ZM58.452 9.77459C58.452 10.8758 58.2018 11.7553 57.7015 12.4135C57.2011 13.0671 56.5298 13.394 55.6875 13.394C54.9066 13.394 54.2816 13.1374 53.8124 12.6241V16H52.2128V6.14199H53.6869L53.7526 6.86582C54.2226 6.29555 54.8611 6.01034 55.6681 6.01034C56.5365 6.01034 57.2163 6.33497 57.7082 6.98433C58.2035 7.62923 58.452 8.52641 58.452 9.67586V9.77459ZM56.8591 9.63636C56.8591 8.92567 56.7168 8.3619 56.4312 7.94511C56.1507 7.52832 55.7473 7.31992 55.2208 7.31992C54.5672 7.31992 54.0971 7.58972 53.8124 8.12933V11.2881C54.1022 11.8409 54.5756 12.1173 55.2334 12.1173C55.7422 12.1173 56.1398 11.9133 56.4245 11.5053C56.7143 11.0929 56.8591 10.4699 56.8591 9.63636ZM61.5114 13.2624H59.9126V6.14199H61.5114V13.2624ZM59.8141 4.2928C59.8141 4.04709 59.8907 3.84308 60.044 3.68076C60.2024 3.51844 60.4256 3.43724 60.7154 3.43724C61.0051 3.43724 61.2284 3.51844 61.3867 3.68076C61.5442 3.84308 61.6234 4.04709 61.6234 4.2928C61.6234 4.53405 61.5442 4.73587 61.3867 4.89819C61.2284 5.05613 61.0051 5.13514 60.7154 5.13514C60.4256 5.13514 60.2024 5.05613 60.044 4.89819C59.8907 4.73587 59.8141 4.53405 59.8141 4.2928ZM64.9599 13.2624H63.3612V3.1543H64.9599V13.2624ZM66.4079 9.63636C66.4079 8.93881 66.5461 8.31144 66.8223 7.75423C67.0986 7.19273 67.4869 6.7628 67.9873 6.46444C68.4876 6.1617 69.0621 6.01034 69.7116 6.01034C70.6718 6.01034 71.451 6.31964 72.0474 6.93826C72.6488 7.55687 72.9731 8.37723 73.0211 9.39949L73.0279 9.77459C73.0279 10.4765 72.8922 11.1039 72.6202 11.6567C72.3523 12.2095 71.9665 12.6372 71.4619 12.9399C70.9616 13.2427 70.3829 13.394 69.7242 13.394C68.7201 13.394 67.9149 13.0606 67.3092 12.3938C66.7086 11.7225 66.4079 10.8297 66.4079 9.71537V9.63636ZM68.0067 9.77459C68.0067 10.5073 68.1583 11.082 68.4607 11.4987C68.7639 11.9111 69.1851 12.1173 69.7242 12.1173C70.2641 12.1173 70.6828 11.9067 70.9818 11.4855C71.2842 11.0644 71.4359 10.448 71.4359 9.63636C71.4359 8.91683 71.28 8.34657 70.9683 7.9254C70.6609 7.50423 70.2422 7.29364 69.7116 7.29364C69.1893 7.29364 68.7749 7.50204 68.4674 7.91874C68.1608 8.33115 68.0067 8.94977 68.0067 9.77459ZM76.3846 4.41124V6.14199H77.6414V7.32649H76.3846V11.3013C76.3846 11.5733 76.4368 11.7708 76.5421 11.8936C76.6516 12.012 76.8454 12.0712 77.1217 12.0712C77.3053 12.0712 77.4923 12.0493 77.6809 12.0054V13.2427C77.3162 13.3436 76.9658 13.394 76.628 13.394C75.399 13.394 74.785 12.7162 74.785 11.3605V7.32649H73.6141V6.14199H74.785V4.41124H76.3846Z" fill="#0C0B0B"/>
<path d="M102.274 0H85.6807V16H102.274V0Z" fill="#00B67E"/>
<path d="M93.978 1.77783L95.6469 5.78512L100.115 6.07727L96.6783 8.8461L97.7709 13.0339L93.978 10.7378L90.185 13.0339L91.2776 8.8461L87.8408 6.07727L92.3091 5.78512L93.978 1.77783Z" fill="white"/>
<path d="M122.868 0H106.274V16H122.868V0Z" fill="#00B67E"/>
<path d="M114.571 1.77783L116.24 5.78512L120.708 6.07727L117.271 8.8461L118.364 13.0339L114.571 10.7378L110.778 13.0339L111.87 8.8461L108.434 6.07727L112.902 5.78512L114.571 1.77783Z" fill="white"/>
<path d="M143.461 0H126.867V16H143.461V0Z" fill="#00B67E"/>
<path d="M135.164 1.77783L136.834 5.78512L141.302 6.07727L137.865 8.8461L138.958 13.0339L135.164 10.7378L131.372 13.0339L132.464 8.8461L129.027 6.07727L133.496 5.78512L135.164 1.77783Z" fill="white"/>
<path d="M164.054 0H147.461V16H164.054V0Z" fill="#00B67E"/>
<path d="M155.758 1.77783L157.427 5.78512L161.895 6.07727L158.459 8.8461L159.551 13.0339L155.758 10.7378L151.965 13.0339L153.058 8.8461L149.621 6.07727L154.089 5.78512L155.758 1.77783Z" fill="white"/>
<path d="M184.648 0H168.055V16H184.648V0Z" fill="#00B67E"/>
<path d="M176.352 1.77783L178.021 5.78512L182.489 6.07727L179.052 8.8461L180.145 13.0339L176.352 10.7378L172.559 13.0339L173.652 8.8461L170.215 6.07727L174.683 5.78512L176.352 1.77783Z" fill="white"/>
</svg>
