<svg width="24" height="15" viewBox="0 0 24 15" fill="none" xmlns="http://www.w3.org/2000/svg">
<g id="Visa">
<path id="Rectangle-20" fill-rule="evenodd" clip-rule="evenodd" d="M0 1.3501H24V13.3501H0V1.3501Z" fill="#F6F6F6"/>
<path id="Rectangle-1" fill-rule="evenodd" clip-rule="evenodd" d="M22.2 1.5128e-07C21 2.6528e-07 8.29512 -2.4022e-07 1.2 1.5128e-07C0.6 1.8428e-07 0 0.6 0 1.2V3H24C24 3 24 5.78579 24 1.8C24 0.6 23.4 1.5128e-07 22.2 1.5128e-07Z" fill="#265697"/>
<path id="Rectangle-1_2" fill-rule="evenodd" clip-rule="evenodd" d="M0 12C0 12 1.455e-07 12 0 13.2C-6.9e-08 14.4 0.6 15 1.8 15C8.49348 15 21 15 22.2 15C23.4 15 24 14.4 24 13.2V12H0Z" fill="#D97B16"/>
<g id="Group">
<path id="Shape" fill-rule="evenodd" clip-rule="evenodd" d="M16.7421 4.46727C16.4058 4.33832 15.8787 4.19995 15.2205 4.19995C13.5429 4.19995 12.3612 5.06322 12.3511 6.30038C12.3417 7.21492 13.1948 7.72507 13.8388 8.02954C14.4996 8.3415 14.7218 8.54048 14.7186 8.81904C14.7144 9.24567 14.1909 9.44058 13.7029 9.44058C13.0234 9.44058 12.6624 9.34411 12.1048 9.10648L11.886 9.00534L11.6477 10.4301C12.0442 10.6078 12.7775 10.7617 13.5389 10.7697C15.3236 10.7697 16.4821 9.91633 16.4953 8.59519C16.5017 7.87114 16.0493 7.32016 15.0699 6.86593C14.4764 6.5715 14.113 6.37503 14.1169 6.07689C14.1169 5.81233 14.4245 5.52944 15.0891 5.52944C15.6443 5.52063 16.0465 5.64434 16.3599 5.77329L16.512 5.84673L16.7421 4.46727Z" fill="#265697"/>
<path id="Shape_2" fill-rule="evenodd" clip-rule="evenodd" d="M21.0959 4.31665H19.784C19.3776 4.31665 19.0735 4.42999 18.895 4.84446L16.3735 10.6773H18.1563C18.1563 10.6773 18.4478 9.893 18.5138 9.72081C18.7086 9.72081 20.4405 9.72355 20.6881 9.72355C20.7389 9.94635 20.8946 10.6773 20.8946 10.6773H22.47L21.0959 4.31665ZM19.0024 8.41899C19.1428 8.05228 19.6788 6.63979 19.6788 6.63979C19.6688 6.65672 19.8181 6.27129 19.9039 6.03233L20.0186 6.58107C20.0186 6.58107 20.3437 8.10034 20.4117 8.41892L19.0024 8.41899Z" fill="#265697"/>
<path id="Shape_3" fill-rule="evenodd" clip-rule="evenodd" d="M8.88745 10.6752L9.94894 4.31055H11.6467L10.5845 10.6752H8.88745Z" fill="#265697"/>
<path id="Shape_4" fill-rule="evenodd" clip-rule="evenodd" d="M7.46356 4.31519L5.80138 8.65542L5.62428 7.77339C5.31485 6.75663 4.35076 5.65502 3.27295 5.10351L4.79281 10.6697L6.5891 10.6676L9.26196 4.31519H7.46356Z" fill="#265697"/>
</g>
<path id="Shape_5" fill-rule="evenodd" clip-rule="evenodd" d="M4.25934 4.31128H1.52167L1.5 4.4437C3.62988 4.97053 5.0392 6.24368 5.62421 7.77342L5.02892 4.84861C4.92615 4.44559 4.62808 4.32532 4.25934 4.31128Z" fill="#D97B16"/>
</g>
</svg>
