<svg width="26" height="26" viewBox="0 0 26 26" fill="none" xmlns="http://www.w3.org/2000/svg">
<circle cx="13" cy="13" r="12.5" fill="white" stroke="#F0F2F4"/>
<path d="M13.9146 13L17.8104 9.10421C17.8707 9.04414 17.9185 8.9727 17.9511 8.89403C17.9836 8.81536 18.0002 8.73101 18 8.64588C18.001 8.56094 17.9848 8.47667 17.9522 8.39822C17.9196 8.31978 17.8713 8.2488 17.8104 8.18963C17.7512 8.12868 17.6802 8.08044 17.6018 8.04784C17.5233 8.01525 17.4391 7.99898 17.3541 8.00005C17.269 7.99977 17.1846 8.01638 17.106 8.04893C17.0273 8.08147 16.9559 8.12929 16.8958 8.18963L13 12.0854L9.10421 8.18963C9.04414 8.12929 8.9727 8.08147 8.89403 8.04893C8.81536 8.01638 8.73101 7.99977 8.64588 8.00005C8.56094 7.99898 8.47667 8.01525 8.39822 8.04784C8.31978 8.08044 8.2488 8.12868 8.18963 8.18963C8.12868 8.2488 8.08044 8.31978 8.04784 8.39822C8.01525 8.47667 7.99898 8.56094 8.00005 8.64588C7.99977 8.73101 8.01638 8.81536 8.04893 8.89403C8.08147 8.9727 8.12929 9.04414 8.18963 9.10421L12.0854 13L8.18963 16.8958C8.12929 16.9559 8.08147 17.0273 8.04893 17.106C8.01638 17.1846 7.99977 17.269 8.00005 17.3541C7.99898 17.4391 8.01525 17.5233 8.04784 17.6018C8.08044 17.6802 8.12868 17.7512 8.18963 17.8104C8.2488 17.8713 8.31978 17.9196 8.39822 17.9522C8.47667 17.9848 8.56094 18.001 8.64588 18C8.73101 18.0002 8.81536 17.9836 8.89403 17.9511C8.9727 17.9185 9.04414 17.8707 9.10421 17.8104L13 13.9146L16.8958 17.8104C16.9559 17.8707 17.0273 17.9185 17.106 17.9511C17.1846 17.9836 17.269 18.0002 17.3541 18C17.5252 17.9994 17.6892 17.9312 17.8102 17.8102C17.9312 17.6892 17.9994 17.5252 18 17.3541C18.0002 17.269 17.9836 17.1846 17.9511 17.106C17.9185 17.0273 17.8707 16.9559 17.8104 16.8958L13.9146 13Z" fill="#FA0F48"/>
</svg>
