<svg width="23" height="23" viewBox="0 0 23 23" fill="none" xmlns="http://www.w3.org/2000/svg">
<path d="M11.5 0.5C10.0781 0.5 8.92188 1.65625 8.92188 3.07812C8.92188 4.5 10.0781 5.65625 11.5 5.65625C12.9219 5.65625 14.0781 4.5 14.0781 3.07812C14.0781 1.65625 12.9219 0.5 11.5 0.5Z" fill="#FB7306"/>
<path d="M21.2109 10.168V10.8125C21.2109 11.6098 20.5119 12.2369 19.6354 12.0566C18.7763 9.10802 16.0542 6.94531 12.832 6.94531H8.52579C8.34639 6.94531 8.1777 6.87042 8.06314 6.74014C7.45454 6.05152 6.57771 5.65625 5.65625 5.65625H3.72266C3.30479 5.65625 2.99816 6.04696 3.09639 6.45311L3.74908 9.14136C3.272 9.63988 2.8742 10.2001 2.56198 10.8125C1.2712 10.8125 0.5 11.7328 0.5 12.7461V14.6564C0.5 15.8801 1.44737 16.3269 2.45499 17.0388C2.85404 17.8916 3.41109 18.6463 4.11354 19.2852C4.20859 19.3708 4.36719 19.5514 4.36719 19.795V21.3151C4.36719 21.9212 4.86004 22.4141 5.46616 22.4141H7.77994C8.38257 22.4141 8.87891 22.0063 8.87891 21.125H12.832C12.832 22.0063 13.3284 22.4141 13.931 22.4141H16.2448C16.8509 22.4141 17.3438 21.9212 17.3438 21.3151C17.3438 20.341 17.2334 19.6774 17.9134 18.9799C19.1603 17.6979 19.9219 15.9497 19.9219 14.0352C19.9219 13.8166 19.9085 13.6012 19.889 13.3876C19.9012 13.3877 19.9135 13.3913 19.9256 13.3913C21.3379 13.3913 22.5 12.2425 22.5 10.8125V10.168C22.5 9.31835 21.2109 9.31487 21.2109 10.168ZM5.01172 12.7461C4.65577 12.7461 4.36719 12.4575 4.36719 12.1016C4.36719 11.7455 4.65577 11.457 5.01172 11.457C5.36767 11.457 5.65625 11.7455 5.65625 12.1016C5.65625 12.4575 5.36767 12.7461 5.01172 12.7461ZM12.832 10.8125H9.90079C9.05117 10.8125 9.04769 9.52344 9.90079 9.52344H12.832C13.6817 9.52344 13.6851 10.8125 12.832 10.8125Z" fill="#FB7306"/>
</svg>
