<svg width="40" height="40" viewBox="0 0 40 40" fill="none" xmlns="http://www.w3.org/2000/svg">
<path d="M20.0002 3.33325C10.8168 3.33325 3.3335 10.8166 3.3335 19.9999C3.3335 29.1833 10.8168 36.6666 20.0002 36.6666C29.1835 36.6666 36.6668 29.1833 36.6668 19.9999C36.6668 10.8166 29.1835 3.33325 20.0002 3.33325ZM27.9668 16.1666L18.5168 25.6166C18.2835 25.8499 17.9668 25.9833 17.6335 25.9833C17.3002 25.9833 16.9835 25.8499 16.7502 25.6166L12.0335 20.8999C11.5502 20.4166 11.5502 19.6166 12.0335 19.1333C12.5168 18.6499 13.3168 18.6499 13.8002 19.1333L17.6335 22.9666L26.2002 14.3999C26.6835 13.9166 27.4835 13.9166 27.9668 14.3999C28.4502 14.8833 28.4502 15.6666 27.9668 16.1666Z" fill="#83BE63"/>
</svg>
