<svg width="24" height="24" viewBox="0 0 24 24" fill="none" xmlns="http://www.w3.org/2000/svg">
<path fill-rule="evenodd" clip-rule="evenodd" d="M8.32986 18.6063C7.89467 18.6063 7.46926 18.7354 7.10742 18.9771C6.74557 19.2189 6.46355 19.5626 6.29701 19.9646C6.13048 20.3667 6.0869 20.8091 6.1718 21.2359C6.2567 21.6627 6.46626 22.0548 6.77399 22.3625C7.08171 22.6702 7.47377 22.8798 7.90059 22.9647C8.32742 23.0496 8.76983 23.006 9.17189 22.8395C9.57395 22.673 9.91759 22.3909 10.1594 22.0291C10.4011 21.6673 10.5302 21.2418 10.5302 20.8067C10.5302 20.2231 10.2984 19.6634 9.88573 19.2508C9.47308 18.8381 8.91342 18.6063 8.32986 18.6063ZM18.5981 18.6063C18.1629 18.6063 17.7375 18.7354 17.3756 18.9771C17.0138 19.2189 16.7318 19.5626 16.5652 19.9646C16.3987 20.3667 16.3551 20.8091 16.44 21.2359C16.5249 21.6627 16.7345 22.0548 17.0422 22.3625C17.3499 22.6702 17.742 22.8798 18.1688 22.9647C18.5956 23.0496 19.038 23.006 19.4401 22.8395C19.8422 22.673 20.1858 22.3909 20.4276 22.0291C20.6694 21.6673 20.7984 21.2418 20.7984 20.8067C20.7984 20.2231 20.5666 19.6634 20.1539 19.2508C19.7413 18.8381 19.1816 18.6063 18.5981 18.6063ZM7.20998 13.7963C7.20998 13.7963 15.9196 13.5373 18.3877 13.4906C18.8149 13.4823 19.2305 13.3498 19.5838 13.1093C19.937 12.8687 20.2125 12.5305 20.3767 12.136L22.831 6.24046C22.9702 5.906 23.0247 5.54232 22.9897 5.18173C22.9546 4.82114 22.831 4.47478 22.6299 4.17342C22.4289 3.87205 22.1565 3.62501 21.837 3.45421C21.5174 3.28342 21.1607 3.19417 20.7984 3.19437L5.62528 3.20033L5.57944 2.8767C5.50107 2.35568 5.23834 1.88008 4.83901 1.53636C4.43969 1.19264 3.93029 1.00362 3.4034 1.00367L1.73344 1C1.53892 1 1.35237 1.07727 1.21482 1.21482C1.07727 1.35237 1 1.53892 1 1.73344C1 1.92797 1.07727 2.11452 1.21482 2.25207C1.35237 2.38961 1.53892 2.46689 1.73344 2.46689H3.40295C3.57856 2.46756 3.7481 2.53122 3.88076 2.64629C4.01342 2.76137 4.10038 2.92022 4.12585 3.09398L5.75822 14.0136C5.88792 14.8826 6.32531 15.6761 6.99078 16.2498C7.65625 16.8235 8.50557 17.1392 9.38418 17.1394H20.065C20.2595 17.1394 20.446 17.0622 20.5836 16.9246C20.7211 16.7871 20.7984 16.6005 20.7984 16.406C20.7984 16.2115 20.7211 16.0249 20.5836 15.8874C20.446 15.7498 20.2595 15.6725 20.065 15.6725H9.38418C8.85703 15.6725 8.3474 15.4832 7.94804 15.1392C7.54868 14.7951 7.28612 14.319 7.20815 13.7977L7.20998 13.7963Z" fill="#212121"/>
</svg>
