<svg width="24" height="24" viewBox="0 0 24 24" fill="none" xmlns="http://www.w3.org/2000/svg">
<path d="M19.4325 4.85454C15.4583 4.85454 12.0522 2.18247 12.0164 2.15389C11.8903 2.05422 11.7342 2 11.5735 2C11.4127 2 11.2566 2.05422 11.1305 2.15389C11.0948 2.18247 7.70112 4.85454 3.71446 4.85454C3.52497 4.85454 3.34325 4.92981 3.20926 5.0638C3.07527 5.19778 3 5.37951 3 5.56899V11.9991C3 16.7931 4.93618 19.1437 11.2805 21.9372C11.3727 21.9786 11.4725 22 11.5735 22C11.6745 22 11.7743 21.9786 11.8664 21.9372C18.2108 19.1437 20.147 16.7931 20.147 11.9991V5.56899C20.147 5.37951 20.0717 5.19778 19.9377 5.0638C19.8037 4.92981 19.622 4.85454 19.4325 4.85454ZM11.5735 17.7148C10.443 17.7148 9.33796 17.3795 8.39803 16.7515C7.4581 16.1234 6.72551 15.2308 6.2929 14.1864C5.8603 13.142 5.74711 11.9928 5.96765 10.884C6.18819 9.77531 6.73255 8.75687 7.5319 7.95753C8.33125 7.15818 9.34968 6.61381 10.4584 6.39328C11.5671 6.17274 12.7164 6.28592 13.7608 6.71853C14.8052 7.15113 15.6978 7.88372 16.3259 8.82366C16.9539 9.76359 17.2891 10.8687 17.2891 11.9991C17.2891 13.515 16.6869 14.9688 15.6151 16.0407C14.5432 17.1126 13.0894 17.7148 11.5735 17.7148Z" fill="#773BD9"/>
<path d="M13.2096 10.063L10.8591 12.4207L9.9374 11.4919C9.80181 11.3626 9.62102 11.2915 9.43367 11.2937C9.24632 11.2959 9.06727 11.3713 8.93478 11.5038C8.8023 11.6363 8.72689 11.8154 8.72466 12.0027C8.72243 12.1901 8.79357 12.3709 8.92288 12.5065L10.3518 13.9354C10.4179 14.002 10.4964 14.0549 10.583 14.0912C10.6695 14.1275 10.7624 14.1463 10.8562 14.1467C10.95 14.1471 11.043 14.129 11.1299 14.0934C11.2167 14.0578 11.2957 14.0055 11.3623 13.9394L11.3663 13.9354L14.2241 11.0775C14.3534 10.9419 14.4246 10.7612 14.4224 10.5738C14.4201 10.3865 14.3447 10.2074 14.2122 10.0749C14.0797 9.94244 13.9007 9.86702 13.7133 9.8648C13.526 9.86257 13.3452 9.93371 13.2096 10.063Z" fill="#773BD9"/>
</svg>
