<svg width="24" height="24" viewBox="0 0 24 24" fill="none" xmlns="http://www.w3.org/2000/svg">
<rect width="24" height="24" fill="white"/>
<path d="M12 4.16892C11.6205 4.16892 11.3125 3.86092 11.3125 3.48142V1.6875C11.3125 1.308 11.6205 1 12 1C12.3795 1 12.6875 1.308 12.6875 1.6875V3.48142C12.6875 3.86092 12.3795 4.16892 12 4.16892Z" fill="#E42121"/>
<path d="M18.0232 6.66388C17.8472 6.66388 17.6712 6.59697 17.5374 6.46222C17.2688 6.19364 17.2688 5.75822 17.5374 5.48963L18.806 4.22097C19.0746 3.95239 19.51 3.95239 19.7786 4.22097C20.0472 4.48955 20.0472 4.92497 19.7786 5.19355L18.51 6.46222C18.3752 6.59605 18.1992 6.66388 18.0232 6.66388Z" fill="#E42121"/>
<path d="M22.3125 12.6875H20.5186C20.1391 12.6875 19.8311 12.3795 19.8311 12C19.8311 11.6205 20.1391 11.3125 20.5186 11.3125H22.3125C22.692 11.3125 23 11.6205 23 12C23 12.3795 22.692 12.6875 22.3125 12.6875Z" fill="#E42121"/>
<path d="M19.2919 19.9798C19.1159 19.9798 18.9399 19.9129 18.806 19.7781L17.5374 18.5095C17.2688 18.2409 17.2688 17.8055 17.5374 17.5369C17.806 17.2683 18.2414 17.2683 18.51 17.5369L19.7786 18.8056C20.0472 19.0741 20.0472 19.5096 19.7786 19.7781C19.6439 19.9129 19.4679 19.9798 19.2919 19.9798Z" fill="#E42121"/>
<path d="M4.70778 19.9798C4.53178 19.9798 4.35578 19.9129 4.22195 19.7781C3.95336 19.5096 3.95336 19.0741 4.22195 18.8056L5.49061 17.5369C5.7592 17.2683 6.19461 17.2683 6.46319 17.5369C6.73178 17.8055 6.73178 18.2409 6.46319 18.5095L5.19453 19.7781C5.05978 19.9129 4.88378 19.9798 4.70778 19.9798Z" fill="#E42121"/>
<path d="M3.48142 12.6875H1.6875C1.308 12.6875 1 12.3795 1 12C1 11.6205 1.308 11.3125 1.6875 11.3125H3.48142C3.86092 11.3125 4.16892 11.6205 4.16892 12C4.16892 12.3795 3.86092 12.6875 3.48142 12.6875Z" fill="#E42121"/>
<path d="M5.97644 6.66388C5.80044 6.66388 5.62445 6.59697 5.49061 6.46222L4.22195 5.19355C3.95336 4.92497 3.95336 4.48955 4.22195 4.22097C4.49053 3.95239 4.92595 3.95239 5.19453 4.22097L6.46319 5.48963C6.73178 5.75822 6.73178 6.19364 6.46319 6.46222C6.32753 6.59605 6.15244 6.66388 5.97644 6.66388Z" fill="#E42121"/>
<path d="M14.75 20.25V21.3958C14.75 22.2758 14.0258 23 13.1458 23H10.8542C10.0842 23 9.25 22.4133 9.25 21.13V20.25H14.75Z" fill="#E42121"/>
<path d="M16.0424 7.01273C14.539 5.79356 12.559 5.31689 10.6249 5.72939C8.19571 6.23356 6.22488 8.21356 5.72071 10.6427C5.20738 13.1361 6.14238 15.6111 8.14071 17.1236C8.68154 17.5269 9.05738 18.1502 9.18571 18.8744V18.8836C9.20404 18.8744 9.23154 18.8744 9.24988 18.8744H14.7499C14.7682 18.8744 14.7774 18.8744 14.7957 18.8836V18.8744C14.924 18.1777 15.3365 17.5361 15.969 17.0411C17.5182 15.8127 18.4165 13.9794 18.4165 11.9994C18.4165 10.0561 17.5549 8.24106 16.0424 7.01273Z" fill="#E42121"/>
</svg>
