<svg width="24" height="24" viewBox="0 0 24 24" fill="none" xmlns="http://www.w3.org/2000/svg">
<rect width="24" height="24" fill="white"/>
<path d="M12 4.16892C11.6205 4.16892 11.3125 3.86092 11.3125 3.48142V1.6875C11.3125 1.308 11.6205 1 12 1C12.3795 1 12.6875 1.308 12.6875 1.6875V3.48142C12.6875 3.86092 12.3795 4.16892 12 4.16892Z" fill="#F5DD00"/>
<path d="M18.0232 6.66388C17.8472 6.66388 17.6712 6.59697 17.5374 6.46222C17.2688 6.19364 17.2688 5.75822 17.5374 5.48963L18.806 4.22097C19.0746 3.95239 19.51 3.95239 19.7786 4.22097C20.0472 4.48955 20.0472 4.92497 19.7786 5.19355L18.51 6.46222C18.3752 6.59605 18.1992 6.66388 18.0232 6.66388Z" fill="#F5DD00"/>
<path d="M22.3134 12.6875H20.5195C20.14 12.6875 19.832 12.3795 19.832 12C19.832 11.6205 20.14 11.3125 20.5195 11.3125H22.3134C22.6929 11.3125 23.0009 11.6205 23.0009 12C23.0009 12.3795 22.6929 12.6875 22.3134 12.6875Z" fill="#F5DD00"/>
<path d="M19.2919 19.9796C19.1159 19.9796 18.9399 19.9126 18.806 19.7779L17.5374 18.5092C17.2688 18.2406 17.2688 17.8052 17.5374 17.5366C17.806 17.2681 18.2414 17.2681 18.51 17.5366L19.7786 18.8053C20.0472 19.0739 20.0472 19.5093 19.7786 19.7779C19.6439 19.9126 19.4679 19.9796 19.2919 19.9796Z" fill="#F5DD00"/>
<path d="M4.70876 19.9796C4.53276 19.9796 4.35676 19.9126 4.22292 19.7779C3.95434 19.5093 3.95434 19.0739 4.22292 18.8053L5.49159 17.5366C5.76017 17.2681 6.19559 17.2681 6.46417 17.5366C6.73275 17.8052 6.73275 18.2406 6.46417 18.5092L5.19551 19.7779C5.06076 19.9126 4.88476 19.9796 4.70876 19.9796Z" fill="#F5DD00"/>
<path d="M3.48142 12.6875H1.6875C1.308 12.6875 1 12.3795 1 12C1 11.6205 1.308 11.3125 1.6875 11.3125H3.48142C3.86092 11.3125 4.16892 11.6205 4.16892 12C4.16892 12.3795 3.86092 12.6875 3.48142 12.6875Z" fill="#F5DD00"/>
<path d="M5.97742 6.66388C5.80142 6.66388 5.62542 6.59697 5.49159 6.46222L4.22292 5.19355C3.95434 4.92497 3.95434 4.48955 4.22292 4.22097C4.49151 3.95239 4.92692 3.95239 5.19551 4.22097L6.46417 5.48963C6.73275 5.75822 6.73275 6.19364 6.46417 6.46222C6.3285 6.59605 6.15342 6.66388 5.97742 6.66388Z" fill="#F5DD00"/>
<path d="M14.75 20.25V21.3958C14.75 22.2758 14.0258 23 13.1458 23H10.8542C10.0842 23 9.25 22.4133 9.25 21.13V20.25H14.75Z" fill="#F5DD00"/>
<path d="M16.0424 7.01297C14.539 5.7938 12.559 5.31714 10.6249 5.72964C8.19571 6.2338 6.22488 8.2138 5.72071 10.643C5.20738 13.1363 6.14238 15.6113 8.14071 17.1238C8.68154 17.5271 9.05738 18.1505 9.18571 18.8746V18.8838C9.20404 18.8746 9.23154 18.8746 9.24988 18.8746H14.7499C14.7682 18.8746 14.7774 18.8746 14.7957 18.8838V18.8746C14.924 18.178 15.3365 17.5363 15.969 17.0413C17.5182 15.813 18.4165 13.9796 18.4165 11.9996C18.4165 10.0563 17.5549 8.2413 16.0424 7.01297Z" fill="#F5DD00"/>
</svg>
