<svg width="128" height="24" viewBox="0 0 128 24" fill="none" xmlns="http://www.w3.org/2000/svg">
<path d="M21.4694 9.14906L15.3204 8.21012L12.5643 2.32922C12.3584 1.89026 11.6392 1.89026 11.4333 2.32922L8.67879 8.20816L2.52978 9.1471C2.41622 9.16464 2.30969 9.21319 2.22189 9.28741C2.13409 9.36163 2.06841 9.45864 2.03208 9.5678C1.99574 9.67696 1.99016 9.79404 2.01593 9.90617C2.04171 10.0183 2.09784 10.1211 2.17818 10.2034L6.64383 14.7901L5.58787 21.272C5.56899 21.3879 5.58306 21.5068 5.62849 21.6151C5.67391 21.7235 5.74885 21.8168 5.84474 21.8844C5.94064 21.9521 6.0536 21.9914 6.17074 21.9978C6.28787 22.0042 6.40443 21.9774 6.5071 21.9206L11.9994 18.8812L17.4917 21.9218C17.5945 21.9787 17.7112 22.0055 17.8284 21.9991C17.9457 21.9926 18.0588 21.9532 18.1547 21.8854C18.2507 21.8176 18.3256 21.7241 18.3709 21.6156C18.4162 21.5071 18.4301 21.388 18.411 21.272L17.3562 14.7898L21.8218 10.2054C21.9022 10.1231 21.9583 10.0203 21.9841 9.90813C22.0098 9.796 22.0043 9.67892 21.9679 9.56976C21.9316 9.4606 21.8659 9.36358 21.7781 9.28936C21.6903 9.21515 21.583 9.1666 21.4694 9.14906Z" fill="#FFC107"/>
<path d="M47.4694 9.14906L41.3204 8.21012L38.5643 2.32922C38.3584 1.89026 37.6392 1.89026 37.4333 2.32922L34.6788 8.20816L28.5298 9.1471C28.4162 9.16464 28.3097 9.21319 28.2219 9.28741C28.1341 9.36163 28.0684 9.45864 28.0321 9.5678C27.9957 9.67696 27.9902 9.79404 28.0159 9.90617C28.0417 10.0183 28.0978 10.1211 28.1782 10.2034L32.6438 14.7901L31.5879 21.272C31.569 21.3879 31.5831 21.5068 31.6285 21.6151C31.6739 21.7235 31.7489 21.8168 31.8447 21.8844C31.9406 21.9521 32.0536 21.9914 32.1707 21.9978C32.2879 22.0042 32.4044 21.9774 32.5071 21.9206L37.9994 18.8812L43.4917 21.9218C43.5945 21.9787 43.7112 22.0055 43.8284 21.9991C43.9457 21.9926 44.0588 21.9532 44.1547 21.8854C44.2507 21.8176 44.3256 21.7241 44.3709 21.6156C44.4162 21.5071 44.4301 21.388 44.411 21.272L43.3562 14.7898L47.8218 10.2054C47.9022 10.1231 47.9583 10.0203 47.9841 9.90813C48.0098 9.796 48.0043 9.67892 47.9679 9.56976C47.9316 9.4606 47.8659 9.36358 47.7781 9.28936C47.6903 9.21515 47.583 9.1666 47.4694 9.14906Z" fill="#FFC107"/>
<path d="M73.4694 9.14906L67.3204 8.21012L64.5643 2.32922C64.3584 1.89026 63.6392 1.89026 63.4333 2.32922L60.6788 8.20816L54.5298 9.1471C54.4162 9.16464 54.3097 9.21319 54.2219 9.28741C54.1341 9.36163 54.0684 9.45864 54.0321 9.5678C53.9957 9.67696 53.9902 9.79404 54.0159 9.90617C54.0417 10.0183 54.0978 10.1211 54.1782 10.2034L58.6438 14.7901L57.5879 21.272C57.569 21.3879 57.5831 21.5068 57.6285 21.6151C57.6739 21.7235 57.7489 21.8168 57.8447 21.8844C57.9406 21.9521 58.0536 21.9914 58.1707 21.9978C58.2879 22.0042 58.4044 21.9774 58.5071 21.9206L63.9994 18.8812L69.4917 21.9218C69.5945 21.9787 69.7112 22.0055 69.8284 21.9991C69.9457 21.9926 70.0588 21.9532 70.1547 21.8854C70.2507 21.8176 70.3256 21.7241 70.3709 21.6156C70.4162 21.5071 70.4301 21.388 70.411 21.272L69.3562 14.7898L73.8218 10.2054C73.9022 10.1231 73.9583 10.0203 73.9841 9.90813C74.0098 9.796 74.0043 9.67892 73.9679 9.56976C73.9316 9.4606 73.8659 9.36358 73.7781 9.28936C73.6903 9.21515 73.583 9.1666 73.4694 9.14906Z" fill="#FFC107"/>
<path d="M99.4694 9.14906L93.3204 8.21012L90.5643 2.32922C90.3584 1.89026 89.6392 1.89026 89.4333 2.32922L86.6788 8.20816L80.5298 9.1471C80.4162 9.16464 80.3097 9.21319 80.2219 9.28741C80.1341 9.36163 80.0684 9.45864 80.0321 9.5678C79.9957 9.67696 79.9902 9.79404 80.0159 9.90617C80.0417 10.0183 80.0978 10.1211 80.1782 10.2034L84.6438 14.7901L83.5879 21.272C83.569 21.3879 83.5831 21.5068 83.6285 21.6151C83.6739 21.7235 83.7489 21.8168 83.8447 21.8844C83.9406 21.9521 84.0536 21.9914 84.1707 21.9978C84.2879 22.0042 84.4044 21.9774 84.5071 21.9206L89.9994 18.8812L95.4917 21.9218C95.5945 21.9787 95.7112 22.0055 95.8284 21.9991C95.9457 21.9926 96.0588 21.9532 96.1547 21.8854C96.2507 21.8176 96.3256 21.7241 96.3709 21.6156C96.4162 21.5071 96.4301 21.388 96.411 21.272L95.3562 14.7898L99.8218 10.2054C99.9022 10.1231 99.9583 10.0203 99.9841 9.90813C100.01 9.796 100.004 9.67892 99.9679 9.56976C99.9316 9.4606 99.8659 9.36358 99.7781 9.28936C99.6903 9.21515 99.583 9.1666 99.4694 9.14906Z" fill="#FFC107"/>
<path d="M125.469 9.14906L119.32 8.21012L116.564 2.32922C116.358 1.89026 115.639 1.89026 115.433 2.32922L112.679 8.20816L106.53 9.1471C106.416 9.16464 106.31 9.21319 106.222 9.28741C106.134 9.36163 106.068 9.45864 106.032 9.5678C105.996 9.67696 105.99 9.79404 106.016 9.90617C106.042 10.0183 106.098 10.1211 106.178 10.2034L110.644 14.7901L109.588 21.272C109.569 21.3879 109.583 21.5068 109.628 21.6151C109.674 21.7235 109.749 21.8168 109.845 21.8844C109.941 21.9521 110.054 21.9914 110.171 21.9978C110.288 22.0042 110.404 21.9774 110.507 21.9206L115.999 18.8812L121.492 21.9218C121.594 21.9787 121.711 22.0055 121.828 21.9991C121.946 21.9926 122.059 21.9532 122.155 21.8854C122.251 21.8176 122.326 21.7241 122.371 21.6156C122.416 21.5071 122.43 21.388 122.411 21.272L121.356 14.7898L125.822 10.2054C125.902 10.1231 125.958 10.0203 125.984 9.90813C126.01 9.796 126.004 9.67892 125.968 9.56976C125.932 9.4606 125.866 9.36358 125.778 9.28936C125.69 9.21515 125.583 9.1666 125.469 9.14906Z" fill="#FFC107"/>
</svg>
