<svg width="18" height="18" viewBox="0 0 18 18" fill="none" xmlns="http://www.w3.org/2000/svg">
<path fill-rule="evenodd" clip-rule="evenodd" d="M8.99996 0.666748C4.39996 0.666748 0.666626 4.40008 0.666626 9.00008C0.666626 13.6001 4.39996 17.3334 8.99996 17.3334C13.6 17.3334 17.3333 13.6001 17.3333 9.00008C17.3333 4.40008 13.6 0.666748 8.99996 0.666748ZM8.99996 15.6667C5.32496 15.6667 2.33329 12.6751 2.33329 9.00008C2.33329 5.32508 5.32496 2.33341 8.99996 2.33341C12.675 2.33341 15.6666 5.32508 15.6666 9.00008C15.6666 12.6751 12.675 15.6667 8.99996 15.6667ZM7.33329 10.8084L12.825 5.31675L14 6.50008L7.33329 13.1667L3.99996 9.83341L5.17496 8.65841L7.33329 10.8084Z" fill="#008000"/>
</svg>
