<svg width="42" height="18" viewBox="0 0 42 18" fill="none" xmlns="http://www.w3.org/2000/svg">
<path d="M7.52101 2.63186C7.03758 3.20786 6.26744 3.66429 5.49858 3.59743C5.39701 2.82086 5.78015 1.989 6.22244 1.47343C6.70458 0.885857 7.54801 0.464142 8.23201 0.429428C8.31301 1.24071 7.99672 2.03786 7.5223 2.63186H7.52101ZM8.2243 3.75043C7.10701 3.68229 6.14787 4.392 5.61815 4.392C5.07687 4.392 4.26558 3.78386 3.3823 3.80443C2.23673 3.81857 1.16572 4.473 0.583296 5.526C-0.629132 7.62043 0.268296 10.7216 1.43315 12.429C2.00272 13.2724 2.68415 14.1969 3.58287 14.1711C4.43272 14.1364 4.77472 13.6093 5.79944 13.6093C6.83701 13.6093 7.13144 14.1711 8.03658 14.1506C8.96615 14.1364 9.55501 13.3071 10.1246 12.4637C10.7739 11.5059 11.0413 10.5673 11.0554 10.521C11.0413 10.5004 9.25415 9.81129 9.2413 7.73486C9.22715 5.99271 10.6466 5.16343 10.707 5.11586C9.90987 3.91114 8.65115 3.78386 8.22301 3.75171L8.2243 3.75043ZM14.6734 1.39243V14.0631H16.6213V9.73157H19.3149C21.7719 9.73157 23.4999 8.02414 23.4999 5.55943C23.4999 3.08957 21.8066 1.39371 19.3817 1.39371L14.6734 1.39243ZM16.6213 3.05357H18.8649C20.5517 3.05357 21.5173 3.96386 21.5173 5.56457C21.5173 7.16529 20.5517 8.08329 18.852 8.08329H16.6213V3.05357ZM27.0472 14.157C28.2724 14.157 29.4039 13.5347 29.9207 12.5421H29.9619V14.0631H31.7619V7.75414C31.7619 5.93357 30.3167 4.74943 28.086 4.74943C26.0237 4.74943 24.4963 5.94772 24.4436 7.58829H26.1909C26.3387 6.80529 27.0484 6.29614 28.0333 6.29614C29.2252 6.29614 29.8886 6.858 29.8886 7.89043V8.586L27.465 8.73386C25.2009 8.874 23.982 9.80486 23.982 11.4326C23.982 13.0731 25.242 14.1583 27.0484 14.1583L27.0472 14.157ZM27.5769 12.6566C26.538 12.6566 25.8759 12.1539 25.8759 11.385C25.8759 10.5879 26.5123 10.1186 27.7234 10.044L29.8873 9.91029V10.6264C29.8873 11.8131 28.8896 12.6566 27.5692 12.6566H27.5769ZM34.1662 17.5114C36.06 17.5114 36.9523 16.7747 37.7289 14.5581L41.1437 4.87543H39.1689L36.879 12.3544H36.8379L34.548 4.87543H32.5127L35.808 14.0966L35.6332 14.6584C35.331 15.6034 34.8502 15.9699 33.9926 15.9699C33.8383 15.9699 33.5439 15.9506 33.423 15.9377V17.4587C33.5362 17.4909 34.0196 17.505 34.1597 17.505L34.1662 17.5114Z" fill="#F8F8F8"/>
</svg>
