<svg width="86" height="18" viewBox="0 0 86 18" fill="none" xmlns="http://www.w3.org/2000/svg">
<path d="M43 12.9525L47.635 15.75L46.405 10.4775L50.5 6.93L45.1075 6.4725L43 1.5L40.8925 6.4725L35.5 6.93L39.595 10.4775L38.365 15.75L43 12.9525Z" fill="#FAAC07"/>
<path d="M60 12.9525L64.635 15.75L63.405 10.4775L67.5 6.93L62.1075 6.4725L60 1.5L57.8925 6.4725L52.5 6.93L56.595 10.4775L55.365 15.75L60 12.9525Z" fill="#FAAC07"/>
<path d="M9 12.9525L13.635 15.75L12.405 10.4775L16.5 6.93L11.1075 6.4725L9 1.5L6.8925 6.4725L1.5 6.93L5.595 10.4775L4.365 15.75L9 12.9525Z" fill="#FAAC07"/>
<path d="M26 12.9525L30.635 15.75L29.405 10.4775L33.5 6.93L28.1075 6.4725L26 1.5L23.8925 6.4725L18.5 6.93L22.595 10.4775L21.365 15.75L26 12.9525Z" fill="#FAAC07"/>
<path d="M84.5 6.93L79.1075 6.465L77 1.5L74.8925 6.4725L69.5 6.93L73.595 10.4775L72.365 15.75L77 12.9525L81.635 15.75L80.4125 10.4775L84.5 6.93ZM77 11.55V4.575L78.2825 7.605L81.5675 7.89L79.0775 10.05L79.8275 13.26L77 11.55Z" fill="#FAAC07"/>
</svg>
