<svg width="263" height="24" viewBox="0 0 263 24" fill="none" xmlns="http://www.w3.org/2000/svg">
<path d="M157.863 8.0127V18H156.216V9.96777L153.775 10.7949V9.43457L157.665 8.0127H157.863ZM167.933 8.04688V8.94922L163.954 18H162.218L166.189 9.35938H161.035V8.04688H167.933ZM174.256 7.98535H174.461V9.33203H174.345C173.757 9.33203 173.249 9.42318 172.82 9.60547C172.396 9.78776 172.048 10.0384 171.774 10.3574C171.501 10.6764 171.296 11.0501 171.159 11.4785C171.027 11.9023 170.961 12.3535 170.961 12.832V14.3975C170.961 14.7939 171.004 15.1449 171.091 15.4502C171.177 15.751 171.298 16.0039 171.453 16.209C171.613 16.4095 171.795 16.5622 172 16.667C172.205 16.7718 172.426 16.8242 172.663 16.8242C172.909 16.8242 173.132 16.7741 173.333 16.6738C173.534 16.569 173.704 16.4255 173.846 16.2432C173.987 16.0609 174.094 15.8444 174.167 15.5938C174.24 15.3431 174.276 15.0697 174.276 14.7734C174.276 14.4909 174.24 14.2266 174.167 13.9805C174.099 13.7298 173.996 13.5111 173.859 13.3242C173.723 13.1328 173.552 12.9847 173.347 12.8799C173.146 12.7705 172.914 12.7158 172.649 12.7158C172.321 12.7158 172.023 12.7933 171.754 12.9482C171.49 13.1032 171.275 13.306 171.111 13.5566C170.952 13.8027 170.865 14.0648 170.852 14.3428L170.223 14.1377C170.259 13.7139 170.353 13.3333 170.503 12.9961C170.658 12.6589 170.861 12.3717 171.111 12.1348C171.362 11.8978 171.651 11.7178 171.979 11.5947C172.312 11.4671 172.677 11.4033 173.073 11.4033C173.556 11.4033 173.976 11.4945 174.331 11.6768C174.687 11.859 174.98 12.1074 175.213 12.4219C175.45 12.7318 175.625 13.0872 175.739 13.4883C175.858 13.8848 175.917 14.2995 175.917 14.7324C175.917 15.2109 175.844 15.6576 175.698 16.0723C175.552 16.4824 175.338 16.8424 175.056 17.1523C174.778 17.4622 174.438 17.7038 174.037 17.877C173.641 18.0501 173.189 18.1367 172.684 18.1367C172.15 18.1367 171.674 18.0342 171.255 17.8291C170.84 17.624 170.487 17.3415 170.195 16.9814C169.908 16.6214 169.689 16.2067 169.539 15.7373C169.389 15.2679 169.313 14.7712 169.313 14.2471V13.5635C169.313 12.807 169.409 12.0938 169.601 11.4238C169.792 10.7493 170.086 10.1546 170.482 9.63965C170.883 9.12467 171.396 8.72135 172.021 8.42969C172.645 8.13346 173.39 7.98535 174.256 7.98535ZM184.715 13.502H182.179L182.165 12.251H184.38C184.754 12.251 185.07 12.1963 185.33 12.0869C185.594 11.973 185.795 11.8112 185.932 11.6016C186.068 11.3874 186.137 11.1299 186.137 10.8291C186.137 10.4964 186.073 10.2253 185.945 10.0156C185.818 9.80599 185.622 9.65332 185.357 9.55762C185.098 9.46191 184.765 9.41406 184.359 9.41406H182.698V18H180.982V8.04688H184.359C184.906 8.04688 185.394 8.09928 185.822 8.2041C186.255 8.30892 186.622 8.47298 186.923 8.69629C187.228 8.91504 187.458 9.19303 187.613 9.53027C187.773 9.86751 187.853 10.2686 187.853 10.7334C187.853 11.1436 187.755 11.5195 187.559 11.8613C187.363 12.1986 187.073 12.4743 186.69 12.6885C186.308 12.9027 185.831 13.0303 185.262 13.0713L184.715 13.502ZM184.64 18H181.639L182.411 16.6396H184.64C185.027 16.6396 185.351 16.5758 185.61 16.4482C185.87 16.3161 186.064 16.1361 186.191 15.9082C186.324 15.6758 186.39 15.4046 186.39 15.0947C186.39 14.7712 186.333 14.4909 186.219 14.2539C186.105 14.0124 185.925 13.8278 185.679 13.7002C185.433 13.568 185.111 13.502 184.715 13.502H182.787L182.801 12.251H185.31L185.699 12.7227C186.246 12.7409 186.695 12.8617 187.046 13.085C187.401 13.3083 187.666 13.5977 187.839 13.9531C188.012 14.3086 188.099 14.6914 188.099 15.1016C188.099 15.735 187.96 16.266 187.682 16.6943C187.408 17.1227 187.014 17.4486 186.499 17.6719C185.984 17.8906 185.364 18 184.64 18ZM192.925 18.1367C192.378 18.1367 191.883 18.0479 191.441 17.8701C191.004 17.6878 190.63 17.4349 190.32 17.1113C190.015 16.7878 189.78 16.4072 189.616 15.9697C189.452 15.5322 189.37 15.0605 189.37 14.5547V14.2812C189.37 13.7025 189.454 13.1784 189.623 12.709C189.792 12.2396 190.026 11.8385 190.327 11.5059C190.628 11.1686 190.983 10.9111 191.394 10.7334C191.804 10.5557 192.248 10.4668 192.727 10.4668C193.255 10.4668 193.718 10.5557 194.114 10.7334C194.511 10.9111 194.839 11.1618 195.099 11.4854C195.363 11.8044 195.559 12.1849 195.687 12.627C195.819 13.069 195.885 13.5566 195.885 14.0898V14.7939H190.17V13.6113H194.258V13.4814C194.249 13.1852 194.189 12.9072 194.08 12.6475C193.975 12.3877 193.813 12.1781 193.595 12.0186C193.376 11.859 193.084 11.7793 192.72 11.7793C192.446 11.7793 192.202 11.8385 191.988 11.957C191.779 12.071 191.603 12.2373 191.462 12.4561C191.321 12.6748 191.211 12.9391 191.134 13.249C191.061 13.5544 191.024 13.8984 191.024 14.2812V14.5547C191.024 14.8783 191.068 15.179 191.154 15.457C191.245 15.7305 191.378 15.9697 191.551 16.1748C191.724 16.3799 191.934 16.5417 192.18 16.6602C192.426 16.7741 192.706 16.8311 193.021 16.8311C193.417 16.8311 193.77 16.7513 194.08 16.5918C194.39 16.4323 194.659 16.2067 194.887 15.915L195.755 16.7559C195.595 16.9883 195.388 17.2116 195.133 17.4258C194.878 17.6354 194.565 17.8063 194.196 17.9385C193.832 18.0706 193.408 18.1367 192.925 18.1367ZM199.18 16.3594L200.889 10.6035H201.941L201.654 12.3262L199.932 18H198.988L199.18 16.3594ZM198.175 10.6035L199.508 16.3867L199.617 18H198.564L196.562 10.6035H198.175ZM203.541 16.3184L204.833 10.6035H206.439L204.443 18H203.391L203.541 16.3184ZM202.119 10.6035L203.808 16.291L204.02 18H203.076L201.333 12.3193L201.046 10.6035H202.119ZM210.821 18.1367C210.274 18.1367 209.78 18.0479 209.338 17.8701C208.9 17.6878 208.527 17.4349 208.217 17.1113C207.911 16.7878 207.677 16.4072 207.513 15.9697C207.349 15.5322 207.267 15.0605 207.267 14.5547V14.2812C207.267 13.7025 207.351 13.1784 207.52 12.709C207.688 12.2396 207.923 11.8385 208.224 11.5059C208.524 11.1686 208.88 10.9111 209.29 10.7334C209.7 10.5557 210.145 10.4668 210.623 10.4668C211.152 10.4668 211.614 10.5557 212.011 10.7334C212.407 10.9111 212.735 11.1618 212.995 11.4854C213.259 11.8044 213.455 12.1849 213.583 12.627C213.715 13.069 213.781 13.5566 213.781 14.0898V14.7939H208.066V13.6113H212.154V13.4814C212.145 13.1852 212.086 12.9072 211.977 12.6475C211.872 12.3877 211.71 12.1781 211.491 12.0186C211.272 11.859 210.981 11.7793 210.616 11.7793C210.343 11.7793 210.099 11.8385 209.885 11.957C209.675 12.071 209.5 12.2373 209.358 12.4561C209.217 12.6748 209.108 12.9391 209.03 13.249C208.957 13.5544 208.921 13.8984 208.921 14.2812V14.5547C208.921 14.8783 208.964 15.179 209.051 15.457C209.142 15.7305 209.274 15.9697 209.447 16.1748C209.62 16.3799 209.83 16.5417 210.076 16.6602C210.322 16.7741 210.603 16.8311 210.917 16.8311C211.313 16.8311 211.667 16.7513 211.977 16.5918C212.286 16.4323 212.555 16.2067 212.783 15.915L213.651 16.7559C213.492 16.9883 213.285 17.2116 213.029 17.4258C212.774 17.6354 212.462 17.8063 212.093 17.9385C211.728 18.0706 211.304 18.1367 210.821 18.1367ZM216.721 12.0117V18H215.073V10.6035H216.646L216.721 12.0117ZM218.983 10.5557L218.97 12.0869C218.869 12.0687 218.76 12.055 218.642 12.0459C218.528 12.0368 218.414 12.0322 218.3 12.0322C218.017 12.0322 217.769 12.0732 217.555 12.1553C217.34 12.2327 217.16 12.3467 217.015 12.4971C216.873 12.6429 216.764 12.8206 216.687 13.0303C216.609 13.2399 216.563 13.4746 216.55 13.7344L216.174 13.7617C216.174 13.2969 216.219 12.8662 216.311 12.4697C216.402 12.0732 216.538 11.7246 216.721 11.4238C216.908 11.123 217.14 10.8883 217.418 10.7197C217.701 10.5511 218.026 10.4668 218.396 10.4668C218.496 10.4668 218.603 10.4759 218.717 10.4941C218.835 10.5124 218.924 10.5329 218.983 10.5557ZM223.748 10.6035V11.8066H219.578V10.6035H223.748ZM220.781 8.79199H222.429V15.9561C222.429 16.1839 222.461 16.3594 222.524 16.4824C222.593 16.6009 222.686 16.6807 222.805 16.7217C222.923 16.7627 223.062 16.7832 223.222 16.7832C223.336 16.7832 223.445 16.7764 223.55 16.7627C223.655 16.749 223.739 16.7354 223.803 16.7217L223.81 17.9795C223.673 18.0205 223.513 18.057 223.331 18.0889C223.153 18.1208 222.948 18.1367 222.716 18.1367C222.338 18.1367 222.003 18.0706 221.711 17.9385C221.419 17.8018 221.191 17.5807 221.027 17.2754C220.863 16.9701 220.781 16.5645 220.781 16.0586V8.79199ZM229.47 16.2568V10.6035H231.124V18H229.565L229.47 16.2568ZM229.702 14.7188L230.256 14.7051C230.256 15.2018 230.201 15.6598 230.092 16.0791C229.982 16.4938 229.814 16.8561 229.586 17.166C229.358 17.4714 229.066 17.7106 228.711 17.8838C228.355 18.0524 227.929 18.1367 227.433 18.1367C227.073 18.1367 226.742 18.0843 226.441 17.9795C226.141 17.8747 225.881 17.7129 225.662 17.4941C225.448 17.2754 225.282 16.9906 225.163 16.6396C225.045 16.2887 224.985 15.8695 224.985 15.3818V10.6035H226.633V15.3955C226.633 15.6644 226.665 15.89 226.729 16.0723C226.792 16.25 226.879 16.3936 226.988 16.5029C227.098 16.6123 227.225 16.6898 227.371 16.7354C227.517 16.7809 227.672 16.8037 227.836 16.8037C228.305 16.8037 228.674 16.7126 228.943 16.5303C229.217 16.3434 229.41 16.0928 229.524 15.7783C229.643 15.4639 229.702 15.1107 229.702 14.7188ZM234.446 12.1826V18H232.799V10.6035H234.351L234.446 12.1826ZM234.152 14.0283L233.619 14.0215C233.624 13.4974 233.697 13.0166 233.838 12.5791C233.984 12.1416 234.184 11.7656 234.439 11.4512C234.699 11.1367 235.009 10.8952 235.369 10.7266C235.729 10.5534 236.13 10.4668 236.572 10.4668C236.928 10.4668 237.249 10.5169 237.536 10.6172C237.828 10.7129 238.076 10.8701 238.281 11.0889C238.491 11.3076 238.65 11.5924 238.76 11.9434C238.869 12.2897 238.924 12.7158 238.924 13.2217V18H237.27V13.2148C237.27 12.8594 237.217 12.5791 237.112 12.374C237.012 12.1644 236.864 12.0163 236.668 11.9297C236.477 11.8385 236.237 11.793 235.95 11.793C235.668 11.793 235.415 11.8522 235.191 11.9707C234.968 12.0892 234.779 12.251 234.624 12.4561C234.474 12.6611 234.357 12.8981 234.275 13.167C234.193 13.4359 234.152 13.723 234.152 14.0283ZM245.343 10.6035H246.84V17.7949C246.84 18.4603 246.699 19.0254 246.416 19.4902C246.133 19.9551 245.739 20.3083 245.233 20.5498C244.728 20.7959 244.142 20.9189 243.477 20.9189C243.194 20.9189 242.88 20.8779 242.533 20.7959C242.191 20.7139 241.859 20.5817 241.535 20.3994C241.216 20.2217 240.95 19.987 240.735 19.6953L241.508 18.7246C241.772 19.0391 242.064 19.2692 242.383 19.415C242.702 19.5609 243.037 19.6338 243.388 19.6338C243.766 19.6338 244.087 19.5632 244.352 19.4219C244.62 19.2852 244.828 19.0824 244.974 18.8135C245.119 18.5446 245.192 18.2165 245.192 17.8291V12.2783L245.343 10.6035ZM240.318 14.3838V14.2402C240.318 13.6797 240.387 13.1693 240.523 12.709C240.66 12.2441 240.856 11.8454 241.111 11.5127C241.367 11.1755 241.676 10.918 242.041 10.7402C242.406 10.5579 242.818 10.4668 243.278 10.4668C243.757 10.4668 244.165 10.5534 244.502 10.7266C244.844 10.8997 245.129 11.1481 245.356 11.4717C245.584 11.7907 245.762 12.1735 245.89 12.6201C246.022 13.0622 246.12 13.5544 246.184 14.0967V14.5547C246.124 15.0833 246.024 15.5664 245.883 16.0039C245.742 16.4414 245.555 16.8197 245.322 17.1387C245.09 17.4577 244.803 17.7038 244.461 17.877C244.124 18.0501 243.725 18.1367 243.265 18.1367C242.813 18.1367 242.406 18.0433 242.041 17.8564C241.681 17.6696 241.371 17.4076 241.111 17.0703C240.856 16.7331 240.66 16.3366 240.523 15.8809C240.387 15.4206 240.318 14.9215 240.318 14.3838ZM241.966 14.2402V14.3838C241.966 14.721 241.998 15.0355 242.062 15.3271C242.13 15.6188 242.232 15.8763 242.369 16.0996C242.51 16.3184 242.688 16.4915 242.902 16.6191C243.121 16.7422 243.379 16.8037 243.675 16.8037C244.062 16.8037 244.379 16.7217 244.625 16.5576C244.876 16.3936 245.067 16.1725 245.199 15.8945C245.336 15.612 245.432 15.2975 245.486 14.9512V13.7139C245.459 13.445 245.402 13.1943 245.315 12.9619C245.233 12.7295 245.122 12.5267 244.98 12.3535C244.839 12.1758 244.661 12.0391 244.447 11.9434C244.233 11.8431 243.98 11.793 243.688 11.793C243.392 11.793 243.135 11.8568 242.916 11.9844C242.697 12.112 242.517 12.2874 242.376 12.5107C242.239 12.734 242.137 12.9938 242.068 13.29C242 13.5863 241.966 13.903 241.966 14.2402ZM251.81 18.1367C251.263 18.1367 250.768 18.0479 250.326 17.8701C249.889 17.6878 249.515 17.4349 249.205 17.1113C248.9 16.7878 248.665 16.4072 248.501 15.9697C248.337 15.5322 248.255 15.0605 248.255 14.5547V14.2812C248.255 13.7025 248.339 13.1784 248.508 12.709C248.676 12.2396 248.911 11.8385 249.212 11.5059C249.513 11.1686 249.868 10.9111 250.278 10.7334C250.688 10.5557 251.133 10.4668 251.611 10.4668C252.14 10.4668 252.603 10.5557 252.999 10.7334C253.396 10.9111 253.724 11.1618 253.983 11.4854C254.248 11.8044 254.444 12.1849 254.571 12.627C254.703 13.069 254.77 13.5566 254.77 14.0898V14.7939H249.055V13.6113H253.143V13.4814C253.133 13.1852 253.074 12.9072 252.965 12.6475C252.86 12.3877 252.698 12.1781 252.479 12.0186C252.261 11.859 251.969 11.7793 251.604 11.7793C251.331 11.7793 251.087 11.8385 250.873 11.957C250.663 12.071 250.488 12.2373 250.347 12.4561C250.205 12.6748 250.096 12.9391 250.019 13.249C249.946 13.5544 249.909 13.8984 249.909 14.2812V14.5547C249.909 14.8783 249.952 15.179 250.039 15.457C250.13 15.7305 250.262 15.9697 250.436 16.1748C250.609 16.3799 250.818 16.5417 251.064 16.6602C251.311 16.7741 251.591 16.8311 251.905 16.8311C252.302 16.8311 252.655 16.7513 252.965 16.5918C253.275 16.4323 253.544 16.2067 253.771 15.915L254.64 16.7559C254.48 16.9883 254.273 17.2116 254.018 17.4258C253.762 17.6354 253.45 17.8063 253.081 17.9385C252.716 18.0706 252.293 18.1367 251.81 18.1367ZM257.688 12.1826V18H256.041V10.6035H257.593L257.688 12.1826ZM257.395 14.0283L256.861 14.0215C256.866 13.4974 256.939 13.0166 257.08 12.5791C257.226 12.1416 257.426 11.7656 257.682 11.4512C257.941 11.1367 258.251 10.8952 258.611 10.7266C258.971 10.5534 259.372 10.4668 259.814 10.4668C260.17 10.4668 260.491 10.5169 260.778 10.6172C261.07 10.7129 261.318 10.8701 261.523 11.0889C261.733 11.3076 261.893 11.5924 262.002 11.9434C262.111 12.2897 262.166 12.7158 262.166 13.2217V18H260.512V13.2148C260.512 12.8594 260.459 12.5791 260.354 12.374C260.254 12.1644 260.106 12.0163 259.91 11.9297C259.719 11.8385 259.479 11.793 259.192 11.793C258.91 11.793 258.657 11.8522 258.434 11.9707C258.21 12.0892 258.021 12.251 257.866 12.4561C257.716 12.6611 257.6 12.8981 257.518 13.167C257.436 13.4359 257.395 13.723 257.395 14.0283Z" fill="#7F7F7F"/>
<path d="M21.8055 10.0415H21V10H12V14H17.6515C16.827 16.3285 14.6115 18 12 18C8.6865 18 6 15.3135 6 12C6 8.6865 8.6865 6 12 6C13.5295 6 14.921 6.577 15.9805 7.5195L18.809 4.691C17.023 3.0265 14.634 2 12 2C6.4775 2 2 6.4775 2 12C2 17.5225 6.4775 22 12 22C17.5225 22 22 17.5225 22 12C22 11.3295 21.931 10.675 21.8055 10.0415Z" fill="#FFC107"/>
<path d="M3.15332 7.3455L6.43882 9.755C7.32782 7.554 9.48082 6 12.0003 6C13.5298 6 14.9213 6.577 15.9808 7.5195L18.8093 4.691C17.0233 3.0265 14.6343 2 12.0003 2C8.15932 2 4.82832 4.1685 3.15332 7.3455Z" fill="#FF3D00"/>
<path d="M12.0002 22.0001C14.5832 22.0001 16.9302 21.0116 18.7047 19.4041L15.6097 16.7851C14.5719 17.5743 13.3039 18.0011 12.0002 18.0001C9.39916 18.0001 7.19066 16.3416 6.35866 14.0271L3.09766 16.5396C4.75266 19.7781 8.11366 22.0001 12.0002 22.0001Z" fill="#4CAF50"/>
<path d="M21.8055 10.0415H21V10H12V14H17.6515C17.2571 15.1082 16.5467 16.0766 15.608 16.7855L15.6095 16.7845L18.7045 19.4035C18.4855 19.6025 22 17 22 12C22 11.3295 21.931 10.675 21.8055 10.0415Z" fill="#1976D2"/>
<path d="M43.7979 13.4521V14.7646H36.6201L36.5654 13.7734L40.8584 7.04688H42.1777L40.749 9.49414L38.2812 13.4521H43.7979ZM42.5537 7.04688V17H40.9062V7.04688H42.5537ZM45.5625 16.1797C45.5625 15.9245 45.6491 15.7103 45.8223 15.5371C45.9954 15.3594 46.2301 15.2705 46.5264 15.2705C46.8271 15.2705 47.0618 15.3594 47.2305 15.5371C47.4036 15.7103 47.4902 15.9245 47.4902 16.1797C47.4902 16.4349 47.4036 16.6491 47.2305 16.8223C47.0618 16.9954 46.8271 17.082 46.5264 17.082C46.2301 17.082 45.9954 16.9954 45.8223 16.8223C45.6491 16.6491 45.5625 16.4349 45.5625 16.1797ZM56.3027 14.2861C56.3027 14.9059 56.1592 15.4277 55.8721 15.8516C55.585 16.2754 55.193 16.5967 54.6963 16.8154C54.2041 17.0296 53.6481 17.1367 53.0283 17.1367C52.4085 17.1367 51.8503 17.0296 51.3535 16.8154C50.8568 16.5967 50.4648 16.2754 50.1777 15.8516C49.8906 15.4277 49.7471 14.9059 49.7471 14.2861C49.7471 13.876 49.8268 13.5046 49.9863 13.1719C50.1458 12.8346 50.3714 12.5452 50.6631 12.3037C50.9593 12.0576 51.3057 11.8685 51.7021 11.7363C52.1032 11.6042 52.5407 11.5381 53.0146 11.5381C53.6436 11.5381 54.2064 11.6543 54.7031 11.8867C55.1999 12.1191 55.5895 12.4404 55.8721 12.8506C56.1592 13.2607 56.3027 13.7393 56.3027 14.2861ZM54.6484 14.2041C54.6484 13.8714 54.5801 13.5798 54.4434 13.3291C54.3066 13.0785 54.1152 12.8848 53.8691 12.748C53.623 12.6113 53.3382 12.543 53.0146 12.543C52.6865 12.543 52.4017 12.6113 52.1602 12.748C51.9186 12.8848 51.7295 13.0785 51.5928 13.3291C51.4606 13.5798 51.3945 13.8714 51.3945 14.2041C51.3945 14.5413 51.4606 14.833 51.5928 15.0791C51.7249 15.3206 51.9141 15.5052 52.1602 15.6328C52.4062 15.7604 52.6956 15.8242 53.0283 15.8242C53.361 15.8242 53.6481 15.7604 53.8896 15.6328C54.1312 15.5052 54.318 15.3206 54.4502 15.0791C54.5824 14.833 54.6484 14.5413 54.6484 14.2041ZM56.0771 9.66504C56.0771 10.1618 55.945 10.6038 55.6807 10.9912C55.4209 11.3786 55.0609 11.6839 54.6006 11.9072C54.1403 12.126 53.6162 12.2354 53.0283 12.2354C52.4359 12.2354 51.9072 12.126 51.4424 11.9072C50.9821 11.6839 50.6198 11.3786 50.3555 10.9912C50.0957 10.6038 49.9658 10.1618 49.9658 9.66504C49.9658 9.07259 50.0957 8.57357 50.3555 8.16797C50.6198 7.75781 50.9821 7.44564 51.4424 7.23145C51.9027 7.01725 52.429 6.91016 53.0215 6.91016C53.6139 6.91016 54.1403 7.01725 54.6006 7.23145C55.0609 7.44564 55.4209 7.75781 55.6807 8.16797C55.945 8.57357 56.0771 9.07259 56.0771 9.66504ZM54.4297 9.71973C54.4297 9.4235 54.3704 9.16374 54.252 8.94043C54.138 8.71257 53.9762 8.53483 53.7666 8.40723C53.557 8.27962 53.3086 8.21582 53.0215 8.21582C52.7344 8.21582 52.486 8.27734 52.2764 8.40039C52.0667 8.52344 51.9049 8.69661 51.791 8.91992C51.6771 9.14323 51.6201 9.40983 51.6201 9.71973C51.6201 10.0251 51.6771 10.2917 51.791 10.5195C51.9049 10.7428 52.0667 10.9183 52.2764 11.0459C52.4906 11.1735 52.7412 11.2373 53.0283 11.2373C53.3154 11.2373 53.5638 11.1735 53.7734 11.0459C53.9831 10.9183 54.1449 10.7428 54.2588 10.5195C54.3727 10.2917 54.4297 10.0251 54.4297 9.71973Z" fill="#111111"/>
<path d="M65.1593 17.6644C64.8216 17.8376 64.4383 17.534 64.5066 17.1464L65.2328 13.0077L62.1502 10.0712C61.8623 9.79642 62.0119 9.29417 62.3978 9.23992L66.6836 8.63092L68.5946 4.8448C68.7669 4.50355 69.2333 4.50355 69.4057 4.8448L71.3167 8.63092L75.6024 9.23992C75.9883 9.29417 76.1379 9.79642 75.8492 10.0712L72.7674 13.0077L73.4937 17.1464C73.5619 17.534 73.1787 17.8376 72.8409 17.6644L68.9988 15.6904L65.1584 17.6644H65.1593Z" fill="#FAAC07"/>
<path d="M81.1593 17.6644C80.8216 17.8376 80.4383 17.534 80.5066 17.1464L81.2328 13.0077L78.1502 10.0712C77.8623 9.79642 78.0119 9.29417 78.3978 9.23992L82.6836 8.63092L84.5946 4.8448C84.7669 4.50355 85.2333 4.50355 85.4057 4.8448L87.3167 8.63092L91.6024 9.23992C91.9883 9.29417 92.1379 9.79642 91.8492 10.0712L88.7674 13.0077L89.4937 17.1464C89.5619 17.534 89.1787 17.8376 88.8409 17.6644L84.9988 15.6904L81.1584 17.6644H81.1593Z" fill="#FAAC07"/>
<path d="M97.1593 17.6644C96.8216 17.8376 96.4383 17.534 96.5066 17.1464L97.2328 13.0077L94.1502 10.0712C93.8623 9.79642 94.0119 9.29417 94.3978 9.23992L98.6836 8.63092L100.595 4.8448C100.767 4.50355 101.233 4.50355 101.406 4.8448L103.317 8.63092L107.602 9.23992C107.988 9.29417 108.138 9.79642 107.849 10.0712L104.767 13.0077L105.494 17.1464C105.562 17.534 105.179 17.8376 104.841 17.6644L100.999 15.6904L97.1584 17.6644H97.1593Z" fill="#FAAC07"/>
<path d="M113.159 17.6644C112.822 17.8376 112.438 17.534 112.507 17.1464L113.233 13.0077L110.15 10.0712C109.862 9.79642 110.012 9.29417 110.398 9.23992L114.684 8.63092L116.595 4.8448C116.767 4.50355 117.233 4.50355 117.406 4.8448L119.317 8.63092L123.602 9.23992C123.988 9.29417 124.138 9.79642 123.849 10.0712L120.767 13.0077L121.494 17.1464C121.562 17.534 121.179 17.8376 120.841 17.6644L116.999 15.6904L113.158 17.6644H113.159Z" fill="#FAAC07"/>
<path d="M130.684 8.63025L132.594 4.84435C132.631 4.76819 132.689 4.70386 132.76 4.6587C132.831 4.61353 132.914 4.58933 132.999 4.58887C133.159 4.58887 133.319 4.67374 133.406 4.84435L135.316 8.63025L139.602 9.23921C139.709 9.256 139.807 9.30913 139.879 9.38962C139.951 9.47011 139.993 9.57305 139.998 9.68106C140.004 9.75296 139.994 9.82532 139.968 9.89274C139.943 9.96016 139.902 10.0209 139.85 10.0704L136.767 13.0067L137.493 17.1452C137.562 17.5328 137.178 17.8364 136.841 17.6632L132.999 15.6893L129.159 17.6632C129.118 17.684 129.075 17.6988 129.031 17.7069C128.732 17.7594 128.446 17.4847 128.506 17.1452L129.232 13.0067L126.151 10.0704C126.103 10.0251 126.065 9.9704 126.039 9.90974C126.013 9.84908 126 9.78375 126 9.7178C126 9.62457 126.026 9.53314 126.074 9.45357C126.109 9.39588 126.156 9.34667 126.212 9.30957C126.268 9.27247 126.332 9.24843 126.398 9.23921L130.684 8.63025ZM132.999 14.6744C133.069 14.6741 133.139 14.6909 133.202 14.7234L136.427 16.3805L135.82 12.9184C135.805 12.8387 135.811 12.7568 135.835 12.6798C135.86 12.6027 135.903 12.5329 135.961 12.4765L138.505 10.0529L134.959 9.54894C134.886 9.53785 134.816 9.50914 134.757 9.46525C134.697 9.42137 134.648 9.36362 134.616 9.29695L133 6.0964L132.999 6.09903V14.6735V14.6744Z" fill="#FAAC07"/>
</svg>
