<svg width="87" height="18" viewBox="0 0 87 18" fill="none" xmlns="http://www.w3.org/2000/svg">
<path d="M43 12.9525L47.635 15.75L46.405 10.4775L50.5 6.93L45.1075 6.4725L43 1.5L40.8925 6.4725L35.5 6.93L39.595 10.4775L38.365 15.75L43 12.9525Z" fill="#FAAC07"/>
<path d="M60 12.9525L64.635 15.75L63.405 10.4775L67.5 6.93L62.1075 6.4725L60 1.5L57.8925 6.4725L52.5 6.93L56.595 10.4775L55.365 15.75L60 12.9525Z" fill="#FAAC07"/>
<path d="M76 12.9525L80.635 15.75L79.405 10.4775L83.5 6.93L78.1075 6.4725L76 1.5L73.8925 6.4725L68.5 6.93L72.595 10.4775L71.365 15.75L76 12.9525Z" fill="#FAAC07"/>
<path d="M9 12.9525L13.635 15.75L12.405 10.4775L16.5 6.93L11.1075 6.4725L9 1.5L6.8925 6.4725L1.5 6.93L5.595 10.4775L4.365 15.75L9 12.9525Z" fill="#FAAC07"/>
<path d="M26 12.9525L30.635 15.75L29.405 10.4775L33.5 6.93L28.1075 6.4725L26 1.5L23.8925 6.4725L18.5 6.93L22.595 10.4775L21.365 15.75L26 12.9525Z" fill="#FAAC07"/>
</svg>
