<svg width="28" height="28" viewBox="0 0 28 28" fill="none" xmlns="http://www.w3.org/2000/svg">
<path d="M13.9999 2.33301C7.56692 2.33301 2.33325 7.56667 2.33325 13.9997C2.33325 20.4327 7.56692 25.6663 13.9999 25.6663C20.4329 25.6663 25.6666 20.4327 25.6666 13.9997C25.6666 7.56667 20.4329 2.33301 13.9999 2.33301ZM13.9999 23.333C8.85375 23.333 4.66659 19.1458 4.66659 13.9997C4.66659 8.85351 8.85375 4.66634 13.9999 4.66634C19.1461 4.66634 23.3333 8.85351 23.3333 13.9997C23.3333 19.1458 19.1461 23.333 13.9999 23.333Z" fill="#6FB3FA"/>
<path d="M15.1666 8.16699H12.8333V14.4833L16.6751 18.3252L18.3248 16.6755L15.1666 13.5173V8.16699Z" fill="#6FB3FA"/>
</svg>
