<svg width="30" height="30" viewBox="0 0 30 30" fill="none" xmlns="http://www.w3.org/2000/svg">
<g id="call-center 1" clip-path="url(#clip0_2_189)">
<g id="g1281">
<g id="g1283">
<g id="Clip path group">
<mask id="mask0_2_189" style="mask-type:luminance" maskUnits="userSpaceOnUse" x="0" y="0" width="30" height="30">
<g id="clipPath1289">
<path id="path1287" d="M0 3.8147e-06H30V30H0V3.8147e-06Z" fill="white"/>
</g>
</mask>
<g mask="url(#mask0_2_189)">
<g id="g1285">
<path id="path1291 (Stroke)" fill-rule="evenodd" clip-rule="evenodd" d="M0 20.6484C0 21.1338 0.3935 21.5273 0.878906 21.5273H4.64455C5.12996 21.5273 5.52346 21.1338 5.52346 20.6484V11.2344C5.52346 10.7489 5.12996 10.3554 4.64455 10.3554H0.878906C0.3935 10.3554 0 10.7489 0 11.2344V20.6484ZM1.75781 19.7695V12.1133H3.76564V19.7695H1.75781Z" fill="#3E78BA"/>
<path id="path1293 (Stroke)" fill-rule="evenodd" clip-rule="evenodd" d="M24.4766 20.6484C24.4766 21.1338 24.8701 21.5273 25.3555 21.5273H29.1211C29.6065 21.5273 30 21.1338 30 20.6484V11.2344C30 10.7489 29.6065 10.3554 29.1211 10.3554H25.3555C24.8701 10.3554 24.4766 10.7489 24.4766 11.2344V20.6484ZM26.2344 19.7695V12.1133H28.2422V19.7695H26.2344Z" fill="#3E78BA"/>
<g id="g1295">
<path id="path1297 (Stroke)" fill-rule="evenodd" clip-rule="evenodd" d="M4.64453 12.1123C5.12994 12.1123 5.52344 11.7188 5.52344 11.2334C5.52344 5.99976 9.76634 1.75686 15 1.75686C20.2337 1.75686 24.4766 5.99977 24.4766 11.2334C24.4766 11.7188 24.8701 12.1123 25.3555 12.1123C25.8409 12.1123 26.2344 11.7188 26.2344 11.2334C26.2344 5.02895 21.2045 -0.000956535 15 -0.000956535C8.79553 -0.000956535 3.76562 5.02895 3.76562 11.2334C3.76562 11.7188 4.15912 12.1123 4.64453 12.1123Z" fill="#3E78BA"/>
</g>
<g id="g1299">
<path id="path1301 (Stroke)" fill-rule="evenodd" clip-rule="evenodd" d="M12.2383 27.2382C12.2383 28.7627 13.4742 30 15 30C16.5259 30 17.7618 28.7627 17.7618 27.2382C17.7618 25.7138 16.5259 24.4765 15 24.4765C13.4742 24.4765 12.2383 25.7138 12.2383 27.2382ZM15 28.2422C14.4455 28.2422 13.9961 27.7924 13.9961 27.2382C13.9961 26.6841 14.4455 26.2344 15 26.2344C15.5546 26.2344 16.004 26.6841 16.004 27.2382C16.004 27.7924 15.5546 28.2422 15 28.2422Z" fill="#3E78BA"/>
</g>
<g id="g1303">
<path id="path1305 (Stroke)" fill-rule="evenodd" clip-rule="evenodd" d="M16.0039 27.2383C16.0039 27.7237 16.3974 28.1172 16.8828 28.1172H18.7656C22.8894 28.1172 26.2344 24.7734 26.2344 20.6484C26.2344 20.163 25.8409 19.7695 25.3555 19.7695C24.8701 19.7695 24.4766 20.163 24.4766 20.6484C24.4766 23.8024 21.9188 26.3594 18.7656 26.3594H16.8828C16.3974 26.3594 16.0039 26.7529 16.0039 27.2383Z" fill="#3E78BA"/>
</g>
<g id="g1307">
<path id="path1309 (Stroke)" fill-rule="evenodd" clip-rule="evenodd" d="M21.1192 20.585C21.6046 20.585 21.9981 20.1915 21.9981 19.7061V17.7607H22.0605C22.546 17.7607 22.9395 17.3672 22.9395 16.8818C22.9395 16.3964 22.546 16.0029 22.0605 16.0029H21.9981V11.2334C21.9981 10.8779 21.784 10.5575 21.4556 10.4214C21.1272 10.2854 20.7492 10.3605 20.4978 10.6118L21.1192 11.2334C20.4978 10.6118 20.4978 10.6118 20.4978 10.6118L20.0487 11.0607C19.7712 11.3382 19.3876 11.7216 18.9633 12.1457C18.1149 12.9938 17.1041 14.0041 16.4546 14.6531L16.4527 14.6551C15.8661 15.2449 15.5332 16.0454 15.5332 16.8818C15.5332 17.3672 15.9267 17.7607 16.4121 17.7607H20.2403V19.7061C20.2403 20.1915 20.6338 20.585 21.1192 20.585ZM20.2403 16.0029H17.602C17.6321 15.9656 17.6642 15.9297 17.6982 15.8954C18.3479 15.2463 19.3581 14.2365 20.206 13.3889C20.2175 13.3775 20.2289 13.3661 20.2403 13.3547V16.0029Z" fill="#3E78BA"/>
</g>
<g id="g1311">
<path id="path1313 (Stroke)" fill-rule="evenodd" clip-rule="evenodd" d="M7.53125 19.7061C7.53125 20.1915 7.92475 20.585 8.41016 20.585H13.1172C13.6026 20.585 13.9961 20.1915 13.9961 19.7061C13.9961 19.2206 13.6026 18.8271 13.1172 18.8271H9.59998C9.63007 18.7898 9.66218 18.7539 9.69622 18.7197C10.3459 18.0705 11.3561 17.0607 12.204 16.2131C12.6283 15.789 13.0119 15.4055 13.2895 15.1281L13.7384 14.6793L13.7385 14.6792C13.7385 14.6791 13.7385 14.6791 13.1172 14.0576L13.7385 14.6791C13.9034 14.5143 13.9961 14.2907 13.9961 14.0576V13.5869C13.9961 11.8012 12.548 10.3544 10.7637 10.3544C9.90468 10.3544 9.08368 10.6945 8.47658 11.3003L8.47356 11.3033C7.87409 11.9074 7.53125 12.7275 7.53125 13.5859V13.5869C7.53125 14.0723 7.92475 14.4658 8.41016 14.4658C8.89556 14.4658 9.28906 14.0723 9.28906 13.5869V13.5859C9.28906 13.1968 9.44464 12.8211 9.71975 12.5431C9.99738 12.2668 10.3713 12.1122 10.7637 12.1122C11.5776 12.1122 12.2383 12.7724 12.2383 13.5869V13.6934L12.0467 13.8849C11.7692 14.1624 11.3855 14.5458 10.9613 14.9699C10.1129 15.818 9.1021 16.8283 8.45259 17.4774L8.45061 17.4793C7.86411 18.0692 7.53125 18.8697 7.53125 19.7061Z" fill="#3E78BA"/>
</g>
</g>
</g>
</g>
</g>
</g>
</g>
<defs>
<clipPath id="clip0_2_189">
<rect width="30" height="30" fill="white"/>
</clipPath>
</defs>
</svg>
