<svg width="25" height="24" viewBox="0 0 25 24" fill="none" xmlns="http://www.w3.org/2000/svg">
<path d="M12.5 16C12.2664 16.0005 12.0399 15.9191 11.86 15.77L5.86003 10.77C5.65581 10.6003 5.52739 10.3564 5.50301 10.092C5.47863 9.82753 5.56029 9.56425 5.73003 9.36003C5.89977 9.15581 6.14368 9.02739 6.40811 9.00301C6.67253 8.97863 6.93581 9.06029 7.14003 9.23003L12.5 13.71L17.86 9.39003C17.9623 9.30697 18.08 9.24493 18.2064 9.2075C18.3327 9.17007 18.4652 9.15798 18.5962 9.17192C18.7272 9.18586 18.8542 9.22555 18.9699 9.28873C19.0855 9.3519 19.1875 9.4373 19.27 9.54003C19.3616 9.64285 19.431 9.76348 19.4738 9.89435C19.5166 10.0252 19.5319 10.1635 19.5187 10.3006C19.5056 10.4377 19.4643 10.5705 19.3974 10.6909C19.3305 10.8112 19.2395 10.9165 19.13 11L13.13 15.83C12.9449 15.9555 12.7231 16.0154 12.5 16Z" fill="#193973"/>
</svg>
