<svg width="30" height="30" viewBox="0 0 30 30" fill="none" xmlns="http://www.w3.org/2000/svg">
<g id="diploma (4) 1" clip-path="url(#clip0_2_174)">
<path id="Vector" fill-rule="evenodd" clip-rule="evenodd" d="M9.62495 0.750001H20.3751C22.1879 0.749969 23.6491 0.74995 24.7983 0.904464C25.9915 1.06489 26.9961 1.40808 27.794 2.206C28.5919 3.00393 28.9351 4.00859 29.0955 5.2018C29.25 6.35106 29.25 7.81233 29.25 9.62528V15.0732C29.25 16.8862 29.25 18.3475 29.0955 19.4968C28.9351 20.69 28.5919 21.6946 27.794 22.4925C27.134 23.1526 26.3295 23.5039 25.3874 23.6957C24.9072 23.7935 24.375 23.8529 23.7888 23.8893C23.7918 23.896 23.7948 23.9029 23.7977 23.9097C24.1595 24.7586 23.8508 25.7459 23.029 26.2117C22.782 26.3518 22.5163 26.4022 22.3305 26.431C22.1364 26.4611 21.8939 26.4848 21.6244 26.5113L21.5982 26.5138C21.4248 26.5308 21.3264 26.5406 21.2534 26.551C21.2201 26.5558 21.2026 26.5593 21.1956 26.5608C21.1749 26.569 21.1609 26.579 21.1519 26.5877C21.1451 26.5941 21.1402 26.6007 21.1366 26.6073C21.1351 26.6148 21.1329 26.6269 21.1301 26.6447C21.1197 26.7115 21.1098 26.8027 21.092 26.9699L21.089 26.9973C21.0617 27.2536 21.0366 27.4893 21.0047 27.679C20.9738 27.8619 20.9184 28.1315 20.7644 28.3812C20.2683 29.1856 19.2781 29.4344 18.4632 29.1151C18.2089 29.0156 18.0048 28.8532 17.8576 28.7266C17.7066 28.5969 17.5289 28.4265 17.3299 28.2356L15 26.0018L12.6701 28.2356C12.471 28.4265 12.2933 28.5969 12.1424 28.7266C11.9951 28.8532 11.7911 29.0155 11.5367 29.1152C10.722 29.4344 9.73171 29.1856 9.23561 28.3812C9.08156 28.1315 9.02621 27.8619 8.99535 27.679C8.96334 27.4893 8.93827 27.2535 8.91098 26.9971L8.90805 26.9699C8.89023 26.8027 8.88025 26.7115 8.86994 26.6447C8.86714 26.6269 8.86491 26.6148 8.86338 26.6073C8.85976 26.6007 8.85479 26.5941 8.84805 26.5877C8.83908 26.579 8.82508 26.569 8.8044 26.5608C8.7974 26.5593 8.77984 26.5558 8.74663 26.551C8.67352 26.5406 8.57515 26.5308 8.40183 26.5138L8.37555 26.5113C8.10615 26.4848 7.86354 26.4611 7.66941 26.431C7.48361 26.4022 7.21797 26.3518 6.9709 26.2117C6.14921 25.7459 5.84049 24.7586 6.20228 23.9097C6.2052 23.9029 6.20819 23.896 6.21118 23.8892C5.68276 23.8565 5.20016 23.8052 4.76168 23.7246C3.75689 23.54 2.90179 23.1884 2.20595 22.4925C1.40807 21.6946 1.06488 20.69 0.904464 19.4968C0.749956 18.3475 0.749975 16.8862 0.750001 15.0733V9.62528C0.749975 7.81233 0.749956 6.35106 0.904464 5.2018C1.06488 4.00859 1.40807 3.00393 2.20595 2.20601C3.00384 1.40809 4.00847 1.06489 5.20163 0.904464C6.35085 0.74995 7.81206 0.749969 9.62495 0.750001ZM8.01802 21.9551L9.09944 20.9183L10.0395 19.9782C10.2069 17.3841 12.3638 15.332 15 15.332C17.6362 15.332 19.7931 17.3841 19.9605 19.9782L20.9006 20.9183L22.0417 22.0123L22.0411 21.9545C23.349 21.9406 24.2814 21.8918 24.9906 21.7473C25.6727 21.6084 26.0806 21.394 26.388 21.0865C26.7549 20.7196 26.9941 20.2045 27.1249 19.2318C27.2595 18.2305 27.2616 16.9034 27.2616 15.0005V9.69801C27.2616 7.79521 27.2595 6.46807 27.1249 5.46678C26.9941 4.49404 26.7549 3.97894 26.388 3.61205C26.0211 3.24516 25.5061 3.00596 24.5334 2.87518C23.5321 2.74056 22.2051 2.73845 20.3023 2.73845H9.69767C7.79488 2.73845 6.46786 2.74056 5.46655 2.87518C4.4939 3.00596 3.97881 3.24516 3.61194 3.61205C3.24507 3.97894 3.00587 4.49404 2.8751 5.46678C2.74048 6.46807 2.73837 7.79521 2.73837 9.69801V15.0005C2.73837 16.9034 2.74048 18.2305 2.8751 19.2318C3.00587 20.2045 3.24507 20.7196 3.61194 21.0865C3.93466 21.4092 4.36955 21.6309 5.1209 21.7689C5.83457 21.9 6.75571 21.9426 8.01802 21.9551ZM19.5281 22.3571C18.9891 23.5434 17.9977 24.4806 16.7742 24.9482L18.6877 26.7827C18.8573 26.9454 18.9779 27.0607 19.072 27.1462C19.0841 27.0458 19.0975 26.9206 19.1147 26.7592C19.1171 26.7373 19.1194 26.7149 19.1218 26.6922C19.147 26.4487 19.1769 26.1604 19.2775 25.9C19.5002 25.3234 19.9642 24.8878 20.5362 24.6847C20.7939 24.5933 21.0789 24.566 21.3355 24.5414C21.3587 24.5392 21.3817 24.5371 21.4044 24.5348C21.5468 24.5209 21.6633 24.5094 21.7604 24.499C21.6849 24.4251 21.5921 24.336 21.4764 24.2251L19.5281 22.3571ZM15.0399 23.2855L15 23.2472L14.96 23.2855C13.3313 23.2641 12.0174 21.9371 12.0174 20.3031C12.0174 18.6558 13.3528 17.3204 15 17.3204C16.6472 17.3204 17.9825 18.6558 17.9825 20.3031C17.9825 21.937 16.6687 23.2641 15.0399 23.2855ZM13.2258 24.9482L11.3124 26.7827C11.1427 26.9454 11.0221 27.0607 10.928 27.1462C10.9159 27.0458 10.9024 26.9206 10.8852 26.7592C10.8829 26.7373 10.8806 26.7149 10.8782 26.6922C10.853 26.4487 10.823 26.1604 10.7225 25.9C10.4998 25.3234 10.0358 24.8878 9.46371 24.6847C9.20608 24.5933 8.92103 24.566 8.66442 24.5414C8.64126 24.5392 8.61829 24.5371 8.59564 24.5348C8.45324 24.5209 8.33674 24.5094 8.23958 24.499C8.3151 24.4251 8.40781 24.336 8.52355 24.2251L10.4719 22.3571C11.0108 23.5434 12.0023 24.4806 13.2258 24.9482ZM10.029 7.04673C10.029 6.49766 10.4742 6.0525 11.0232 6.0525H18.9767C19.5258 6.0525 19.9709 6.49766 19.9709 7.04673C19.9709 7.59586 19.5258 8.04095 18.9767 8.04095H11.0232C10.4742 8.04095 10.029 7.59586 10.029 7.04673ZM7.37793 11.6865C7.37793 11.1374 7.82301 10.6922 8.37211 10.6922H21.6279C22.1769 10.6922 22.6221 11.1374 22.6221 11.6865C22.6221 12.2356 22.1769 12.6807 21.6279 12.6807H8.37211C7.82301 12.6807 7.37793 12.2356 7.37793 11.6865Z" fill="#3E78BA"/>
</g>
<defs>
<clipPath id="clip0_2_174">
<rect width="30" height="30" fill="white"/>
</clipPath>
</defs>
</svg>
