<svg xmlns="http://www.w3.org/2000/svg" width="48" height="48" fill="none"><path fill="#193973" fill-rule="evenodd" d="M22.958 3.495c-1.165.455-1.933 1.16-2.489 2.287-1.175 2.38-.276 5.028 2.132 6.278 1.153.599 2.788.594 4.026-.012 1.099-.539 2.054-1.587 2.404-2.64.354-1.061.246-2.763-.233-3.695-1.055-2.054-3.692-3.055-5.84-2.218Zm8.185 6.371c-.81.286-2.004 1.412-2.413 2.279-.722 1.526-.41 3.461.766 4.764.634.702 4.617 4.114 4.925 4.218.395.134-.935-2.928-2.198-5.06-.652-1.1-.932-1.733-.931-2.108 0-1.1 1.092-2.174 2.207-2.175 1.168-.002 2.14 1.102 3.647 4.138 1.504 3.03 2.287 5.933 2.287 8.476 0 .931.057 1.218.274 1.39.571.45 1.527.87 2.199.967l.696.1.06 3.514c.11 6.463.7 12.647 1.28 13.422 1.051 1.404 3.007 1.33 3.822-.146.328-.593.33-.502-.098-4.06-.397-3.306-.584-7.667-.548-12.808.037-5.284.012-5.492-.82-6.836-.451-.727-10.9-9.648-11.753-10.034-.824-.374-2.404-.392-3.402-.04Zm1.503 2.875c-.392.227-.734 1.095-.614 1.555.055.207.41.857.792 1.444.872 1.347 1.752 3.238 2.3 4.947.467 1.461.687 3.97.444 5.075-.183.833-.105 1.222.344 1.705.285.307.528.403 1.016.403 1.258 0 1.725-1.052 1.719-3.873-.006-2.686-.961-5.82-2.717-8.913-1.166-2.053-1.611-2.521-2.392-2.515-.332.002-.733.08-.892.172Zm-6.889 8.4c-2.525 5.26-2.573 5.43-1.714 6.103.5.393 1.46.413 1.897.04.281-.238 4.255-8.25 4.255-8.576 0-.069-.373-.478-.83-.909-.457-.431-.932-.944-1.057-1.14-.216-.34-.337-.129-2.55 4.482Zm13.313 5.77c-.05.246-.287.681-.529.967-.434.515-.44.543-.493 3.029-.092 4.272.442 11.859.893 12.694a2.298 2.298 0 0 0 2.587 1.122c.683-.184 1.569-1.004 1.441-1.335-.113-.295-.516-3.52-.728-5.834-.098-1.074-.224-3.772-.28-5.996l-.1-4.044-.662-.195a6.542 6.542 0 0 1-1.223-.524c-.726-.428-.8-.418-.906.116Z" clip-rule="evenodd"/><path fill="#679BD2" d="M14.764 32.938c.284-1.885 1.436-4.33 2.925-6.203.528-.664.991-1.208 1.028-1.208.038 0 .052.497.032 1.105l-.036 1.104.77.444c.423.245 1.107.797 1.521 1.227.47.488 1.074.916 1.605 1.136.998.412 1.105.777.422 1.427-.555.529-1.053.709-2.31.837-.909.093-1.033.147-1.117.48-.143.571.053 1.493.502 2.356.325.624.42 1.076.49 2.32.057 1.006.166 1.633.312 1.8.3.345 1.211.558 3.185.745.901.086 2.273.343 3.049.571a56.12 56.12 0 0 0 1.949.544c.297.071.662.29.811.488.15.197.258.367.243.378-.016.01-2.45.066-5.41.122l-5.38.103-.532-.562-.53-.562-.743.239c-1.636.525-2.591.584-8.885.545-3.445-.022-6.58-.027-6.968-.013-1.584.06-2.072-.226-1.41-.824.216-.195.314-.482.315-.923 0-.351.074-.905.165-1.23.15-.536.126-.638-.243-1.076-.334-.396-.4-.615-.362-1.203.059-.903.274-.962 1.507-.41l.92.412.986-.4c1.34-.543 3.148-.868 5.447-.981l1.924-.094 1.166-.735c.642-.404 1.478-.853 1.857-.998.642-.245.698-.312.795-.96Z"/></svg>