<svg width="48" height="48" viewBox="0 0 48 48" fill="none" xmlns="http://www.w3.org/2000/svg">
<path fill-rule="evenodd" clip-rule="evenodd" d="M15.9348 1.69852C14.713 2.09702 13.4719 3.23779 13.1071 4.29768C12.474 6.13746 13.1294 8.15908 14.7094 9.23965C15.4471 9.74408 15.7504 9.8525 16.6188 9.92172C18.5707 10.0774 20.0991 9.27683 20.8806 7.68902C21.4022 6.62945 21.4693 5.13684 21.0393 4.16453C20.6841 3.36129 19.7642 2.38354 18.9979 1.99468C18.3071 1.64408 16.6061 1.47967 15.9348 1.69852ZM12.4929 10.258C10.7268 10.6322 9.81552 11.6028 8.81398 14.176C8.40084 15.2375 7.40103 17.7792 6.59197 19.8245C5.78308 21.8696 5.02175 23.9222 4.90031 24.386C4.77872 24.8497 4.53006 27.4252 4.34775 30.1093L4.01614 34.9893L2.17065 39.0161C1.15566 41.2309 0.236122 43.2878 0.127205 43.5871C-0.473561 45.2382 1.15707 46.8532 2.84873 46.2825C3.20396 46.1628 3.63274 45.8848 3.80128 45.6649C3.96982 45.4449 5.04867 43.1947 6.1984 40.6644L8.28895 36.0637L8.49912 32.9754C8.61477 31.2766 8.74778 29.8251 8.79473 29.7495C8.84168 29.6741 9.17171 29.6008 9.5282 29.587C10.4365 29.5517 11.4159 29.0802 12.156 28.3224C12.6701 27.7959 12.9923 27.1619 13.8919 24.9071C14.4996 23.3843 14.9968 22.0905 14.9968 22.0321C14.9968 21.9737 14.8468 21.7714 14.6637 21.5825C12.8147 19.6752 10.7316 15.3285 10.9959 13.9286C11.135 13.1916 11.7712 12.4918 12.4993 12.275C13.0089 12.1231 13.2258 12.1379 13.8245 12.3652C14.667 12.685 14.8684 12.9547 15.3784 14.4447C15.8895 15.9384 16.7374 17.5111 16.8873 17.2438C17.1887 16.7069 17.6571 15.0407 17.6571 14.5059C17.6571 13.5546 17.241 12.4131 16.6394 11.7145C15.6867 10.6083 13.863 9.9676 12.4929 10.258ZM12.0946 13.2992C11.5583 13.8321 11.5983 14.6969 12.2355 16.3614C13.6949 20.1732 16.4776 22.9587 19.3606 23.4936C21.3237 23.8578 22.5858 23.5807 23.0241 22.6898C23.2779 22.1735 23.2829 22.066 23.0763 21.5745C22.7665 20.8372 22.4263 20.6946 20.9786 20.6946C19.9109 20.6946 19.6098 20.6293 18.7801 20.2171C17.1616 19.4132 15.8047 17.5948 14.8226 14.9135C14.5616 14.2006 14.1999 13.4599 14.0192 13.2673C13.5534 12.7718 12.6095 12.7873 12.0946 13.2992ZM18.283 14.5117C18.283 15.2426 18.1669 15.861 17.895 16.5795L17.5069 17.6044L18.3253 18.3782C19.5663 19.5517 20.4576 20.0939 21.0999 20.0661C22.3682 20.011 22.6596 20.0774 23.1928 20.5428L23.7317 21.013L24.0589 20.5996C24.5076 20.0326 24.4957 19.1365 24.0341 18.7207C23.8403 18.5464 23.2026 18.1726 22.6167 17.8903C21.2643 17.2384 19.6336 15.7442 18.8699 14.4576L18.283 13.4689V14.5117ZM12.5724 28.9371C12.1242 29.4294 11.0178 30.0122 10.1564 30.2098C9.19096 30.4313 9.16718 30.5773 9.78719 32.4698L10.2114 33.7643L9.70363 38.9343C9.42445 41.7776 9.19863 44.2791 9.20192 44.493C9.20943 44.9939 9.70863 45.805 10.2103 46.1317C10.7394 46.4763 11.8566 46.4751 12.4453 46.1293C13.3738 45.5843 13.4361 45.3258 13.9968 39.6868C14.2827 36.8122 14.519 34.0953 14.522 33.649C14.5257 33.0813 14.3102 32.2051 13.8051 30.7326C13.4077 29.5747 13.0314 28.6274 12.9686 28.6274C12.9057 28.6274 12.7275 28.7668 12.5724 28.9371Z" fill="#193973"/>
<path d="M26.0681 23.9437C24.0792 22.9016 23.9164 22.783 23.9164 22.3769V21.9375L25.6769 22.8818C30.3253 25.3749 36.7931 28.3467 39.9166 29.4247C41.3247 29.9106 41.4385 29.9804 41.4033 30.3366C41.3669 30.7029 41.4455 30.7418 42.9502 31.1039L44.5351 31.4853L44.8571 32.2428C45.1546 32.9428 45.1621 33.056 44.9561 33.7311C44.8334 34.1329 44.7323 34.5124 44.7313 34.5743C44.7287 34.7485 45.5379 35.1232 46.1723 35.2414C47.2863 35.4492 47.5131 36.3008 46.8335 37.7244C46.5892 38.2363 45.8232 38.8924 45.4681 38.8941C45.1532 38.8956 45.1983 38.3445 45.5712 37.63C45.7969 37.1977 45.9815 36.825 45.9815 36.8018C45.9815 36.7788 45.5795 36.7129 45.0883 36.6555C44.5969 36.5981 44.0243 36.5086 43.8157 36.4565L43.4362 36.362L43.8483 36.9645C44.3251 37.6622 44.3766 38.2781 43.9863 38.6192C43.6476 38.9151 41.5597 39.828 41.2214 39.828C40.5787 39.828 41.1997 39.0176 42.2505 38.4848L42.8229 38.1948L42.3746 37.6643L41.9262 37.1338L40.3617 37.3921C39.5011 37.5342 38.4166 37.6503 37.9517 37.6503H37.1062L37.0076 38.5875C36.9049 39.5646 36.65 40.1868 36.0098 41.024C35.492 41.7012 35.5778 42.2818 36.2632 42.7395C36.5758 42.9482 37.0309 43.0944 37.3678 43.0944C38.0309 43.0944 38.5597 43.4153 38.4339 43.7413C38.3861 43.8653 37.9778 44.0513 37.5268 44.1548L36.7067 44.343L35.515 43.5917C34.0737 42.6832 33.9024 42.3486 34.3061 41.2325C34.641 40.3071 34.5369 39.641 34.0031 39.2934C33.441 38.9272 32.531 37.5027 32.4185 36.8127C32.3223 36.2217 32.2855 36.1923 30.7395 35.4749C29.8701 35.0714 28.8875 34.653 28.5559 34.5452C28.0174 34.3702 27.9783 34.324 28.19 34.1137C28.5969 33.7093 29.5372 33.8177 30.9469 34.4318C31.6721 34.7477 32.4199 35.0061 32.6087 35.0061C32.7975 35.0061 33.3105 34.7224 33.7488 34.3755C34.6394 33.6706 35.9544 33.0904 37.4353 32.7491C37.9788 32.6238 38.7332 32.3463 39.1119 32.1325C39.8822 31.6973 41.0943 30.7124 40.9738 30.6194C40.9308 30.5863 39.9959 30.226 38.8963 29.8191C35.4911 28.5589 30.6026 26.32 26.0681 23.9437Z" fill="#679BD2"/>
<path d="M42.1754 27.5429C42.6641 27.3612 43.3156 27.1501 43.6229 27.0741C44.388 26.8846 45.2424 27.0118 46.1119 27.4449C46.5136 27.6449 47.1105 27.8571 47.4383 27.9163C47.9926 28.0165 48.0311 28.058 47.986 28.508C47.9467 28.9014 47.8388 29.0248 47.4086 29.1679L46.8795 29.3439L47.2939 29.6138C47.6383 29.8381 47.6804 29.9353 47.5436 30.1895C47.4165 30.4254 47.2147 30.4953 46.6593 30.4953C46.2634 30.4953 45.6734 30.5746 45.3479 30.6715C44.8539 30.8187 44.527 30.7914 43.3678 30.5068C41.5732 30.066 41.5306 30.0386 41.7837 29.4866C41.9644 29.0923 41.9502 29.0286 41.6352 28.8207C41.4425 28.6936 41.2868 28.4304 41.2868 28.2321C41.2868 27.9384 41.448 27.8135 42.1754 27.5429Z" fill="#679BD2"/>
</svg>
