<svg xmlns="http://www.w3.org/2000/svg" width="48" height="48" fill="none"><path fill="#193973" fill-rule="evenodd" d="M17.04 1.873c-1.791.586-3.129 2.363-3.129 4.156 0 2.226 1.917 4.136 4.15 4.136 1.44 0 2.285-.352 3.177-1.326 2.47-2.695.785-6.836-2.864-7.041-.518-.03-1.118.004-1.334.075ZM11.46 9.237c-1.542.299-2.171.849-4.187 3.66a4991.26 4991.26 0 0 1-3.182 4.43C1.039 21.57.909 21.762.478 22.652l-.415.858-.053 5.307c-.056 5.686.115 9.441.609 13.41.346 2.777.56 3.315 1.502 3.76.882.418 1.834.248 2.538-.454.53-.53.567-.628.567-1.539 0-.535-.124-1.992-.274-3.236-.307-2.535-.583-7.369-.585-10.263l-.002-1.912h.52c.764 0 1.843-.41 2.502-.953.319-.262.99-1.05 1.49-1.752.5-.701 1.285-1.787 1.743-2.412l.834-1.137-.636-1.36c-.778-1.667-.925-2.135-1.133-3.614-.191-1.363.029-3.42.442-4.13.857-1.473 2.794-1.526 3.747-.103.336.502.353.64.256 2.047-.104 1.506.009 2.956.23 2.956.162 0 1.479-1.812 1.892-2.603.48-.92.574-2.133.251-3.239-.601-2.062-2.912-3.458-5.042-3.046Zm-.32 3.858c-1.029.807-1.054 4.118-.052 6.78.95 2.522 3.626 5.282 6.533 6.738 1.552.777 2.705.353 2.705-.995 0-.746-.365-1.187-1.426-1.726-3.803-1.928-6.063-5.524-5.51-8.765.266-1.557-.19-2.313-1.387-2.305-.285.002-.673.125-.863.273ZM7.16 28.609c-.4.257-1.017.506-1.37.554l-.641.085v2.88c0 3.05.06 3.444 1.037 6.757.755 2.56 1.91 5.692 2.347 6.368.564.872 1.928 1.222 2.87.736 1.185-.61 1.447-1.945.708-3.592-.943-2.098-2.341-6.895-3.435-11.785l-.481-2.146c-.098-.437-.142-.43-1.035.143Z" clip-rule="evenodd"/><path fill="#679BD2" d="M23.144 21.851c0-.304.053-.605.118-.67.064-.066.434-.07.821-.008.83.132 1.585.132 2.974.001.882-.083 1.097-.048 1.625.262.889.522 2.01 2.605 3.64 6.757.36.92 1.167 2.351 2.337 4.15.983 1.51 1.787 2.883 1.787 3.053 0 .17.453 1.02 1.007 1.888.93 1.458 1.362 2.423 1.575 3.512.059.3.241.494.608.647.289.12.624.36.746.533.21.298.375.313 3.19.29 2.839-.024 3-.01 3.719.347.587.29.741.444.704.702-.095.667-.9.76-5.68.662-2.41-.05-6.248-.116-8.53-.146-2.622-.036-4.305-.122-4.577-.234-.547-.227-.558-.69-.026-1.078.392-.284.397-.31.168-.832-.13-.296-.277-.67-.328-.83-.079-.25-.127-.261-.348-.078-.344.284-.678 1.11-.678 1.674 0 .516-.218.647-1.07.644-1.413-.005-1.597-.358-.757-1.456.421-.551.583-.994.854-2.344l.335-1.664-.383-.564c-.386-.566-.698-1.452-.7-1.983 0-.233-.11-.28-.588-.251-1.034.062-1.27 0-1.806-.47-.649-.568-.893-1.34-.893-2.824 0-1.753-.298-2.245-2.348-3.876l-.39-.311.32-.325.32-.325 1.586.773c.872.426 1.663.919 1.758 1.096.246.458.475.399.475-.123 0-.618.289-1.415.726-2.003.203-.273.37-.56.37-.639 0-.293-.57-.62-1.225-.703-.373-.047-.8-.197-.951-.333-.151-.136-.392-.247-.536-.247-.193 0-.262-.139-.262-.53 0-.591.194-.726.87-.605l.46.082-.508-.535c-.377-.396-.509-.677-.509-1.086Z"/></svg>