<svg width="48" height="48" viewBox="0 0 48 48" fill="none" xmlns="http://www.w3.org/2000/svg">
<path fill-rule="evenodd" clip-rule="evenodd" d="M22.9578 3.49548C21.7931 3.94952 21.0253 4.65502 20.4692 5.78161C19.2942 8.16239 20.1932 10.8102 22.6006 12.0602C23.7539 12.659 25.3892 12.6539 26.627 12.0476C27.7258 11.5093 28.6806 10.4609 29.0314 9.40752C29.3846 8.34684 29.2774 6.64548 28.7984 5.71335C27.7428 3.65916 25.106 2.65768 22.9578 3.49548ZM31.1429 9.86624C30.3323 10.1516 29.1394 11.278 28.7296 12.145C28.0082 13.6711 28.3194 15.6062 29.4956 16.9088C30.1299 17.6112 34.1134 21.0226 34.4211 21.1268C34.8162 21.2607 33.4862 18.1992 32.2228 16.0674C31.571 14.9672 31.2912 14.3339 31.2916 13.9588C31.2927 12.8597 32.3838 11.7847 33.4991 11.7836C34.6666 11.7824 35.639 12.8858 37.146 15.922C38.6501 18.9523 39.4333 21.8546 39.4333 24.3985C39.4333 25.329 39.4899 25.6158 39.7074 25.7871C40.2784 26.2373 41.2344 26.6581 41.9056 26.7547L42.6021 26.8552L42.6621 30.3694C42.7725 36.832 43.3623 43.0155 43.9423 43.7905C44.9933 45.1946 46.9485 45.1205 47.7643 43.6454C48.0924 43.0521 48.0946 43.1434 47.6665 39.5845C47.2688 36.2793 47.082 31.9179 47.1178 26.7771C47.1548 21.4929 47.1297 21.2849 46.2972 19.9412C45.8468 19.2144 35.398 10.2929 34.5447 9.90654C33.7206 9.53341 32.1408 9.51466 31.1429 9.86624ZM32.6464 12.7409C32.2543 12.9681 31.9117 13.8362 32.0323 14.2964C32.0866 14.5033 32.4425 15.1531 32.8235 15.7403C33.6964 17.0865 34.5757 18.9776 35.1231 20.6873C35.5911 22.1483 35.8111 24.6574 35.5682 25.7618C35.385 26.5954 35.4633 26.9842 35.9119 27.467C36.1972 27.7742 36.4396 27.8704 36.9277 27.8704C38.1863 27.8704 38.6534 26.8183 38.647 23.9971C38.641 21.3109 37.6857 18.1772 35.9298 15.0839C34.7645 13.0311 34.3189 12.5625 33.5378 12.5686C33.2063 12.5713 32.8052 12.6487 32.6464 12.7409ZM25.7574 21.1413C23.2321 26.4008 23.1845 26.5701 24.0431 27.2438C24.5438 27.6367 25.5026 27.6573 25.9403 27.2847C26.2212 27.0456 30.1949 19.0347 30.1949 18.7078C30.1949 18.639 29.8215 18.2301 29.3649 17.7991C28.9083 17.368 28.4327 16.8547 28.3079 16.6584C28.0917 16.3184 27.9713 16.5303 25.7574 21.1413ZM39.0698 26.9114C39.0204 27.1572 38.7827 27.5922 38.5413 27.878C38.1065 28.3933 38.1019 28.4211 38.0484 30.9065C37.9563 35.1795 38.4896 42.7659 38.9407 43.6007C39.4365 44.5182 40.5277 44.9916 41.5276 44.7229C42.2113 44.5393 43.0966 43.7193 42.9691 43.3877C42.8556 43.0928 42.4532 39.8672 42.2412 37.5541C42.1429 36.4803 42.017 33.782 41.9614 31.5578L41.8604 27.5138L41.1985 27.3192C40.8344 27.2121 40.2844 26.9761 39.9761 26.7946C39.2504 26.3675 39.1769 26.3771 39.0698 26.9114Z" fill="#193973"/>
<path d="M14.7643 32.9383C15.0479 31.0527 16.2004 28.6083 17.6892 26.7355C18.2173 26.071 18.68 25.5273 18.7173 25.5273C18.7547 25.5273 18.7691 26.0243 18.7494 26.6319L18.7134 27.7365L19.4827 28.1805C19.9056 28.4248 20.5903 28.9769 21.0043 29.4074C21.4731 29.8953 22.078 30.3231 22.6093 30.5427C23.6066 30.955 23.7145 31.3199 23.0311 31.97C22.4757 32.4985 21.9781 32.6789 20.7208 32.8074C19.8123 32.9002 19.6883 32.9536 19.6042 33.2879C19.4606 33.8581 19.6571 34.7801 20.1059 35.6429C20.4306 36.2673 20.5263 36.7193 20.5966 37.9623C20.6534 38.9694 20.7618 39.5957 20.908 39.7634C21.2082 40.1077 22.1192 40.3207 24.0926 40.508C24.9944 40.5936 26.3664 40.8507 27.1415 41.0792C27.9165 41.3077 28.7939 41.5526 29.0909 41.6233C29.3881 41.6942 29.7533 41.9135 29.9023 42.1106C30.0514 42.3078 30.1605 42.478 30.145 42.4889C30.1294 42.4997 27.6951 42.5547 24.7356 42.6111L19.3546 42.7135L18.8234 42.152L18.2925 41.5904L17.5496 41.8287C15.9135 42.3541 14.9587 42.4126 8.66464 42.3737C5.21981 42.3524 2.08423 42.3468 1.69669 42.3613C0.113321 42.4207 -0.375219 42.1349 0.287441 41.5367C0.503056 41.342 0.600921 41.0548 0.601547 40.6144C0.602017 40.2626 0.676394 39.7086 0.767056 39.3833C0.916123 38.848 0.892948 38.7456 0.523569 38.3078C0.190047 37.9123 0.123969 37.6925 0.162332 37.1046C0.22105 36.2016 0.436039 36.143 1.66897 36.695L2.58906 37.1068L3.5749 36.7073C4.91479 36.1642 6.72285 35.8386 9.02228 35.7258L10.9457 35.6316L12.1124 34.8968C12.7541 34.4927 13.5897 34.0437 13.9692 33.899C14.6112 33.6545 14.6668 33.5873 14.7643 32.9383Z" fill="#679BD2"/>
</svg>
