<svg width="73" height="72" viewBox="0 0 73 72" fill="none" xmlns="http://www.w3.org/2000/svg">
<path fill-rule="evenodd" clip-rule="evenodd" d="M47.007 2.65148C44.6652 3.48305 43.1798 5.65704 43.1798 8.25316C43.1798 11.6465 45.5986 14.0772 48.9753 14.0772C52.3359 14.0772 54.8231 11.6276 54.8428 8.29851C54.8632 4.87016 52.3179 2.35224 48.8817 2.40109C48.2114 2.41051 47.3679 2.52333 47.007 2.65148ZM46.5799 15.3224C41.9745 16.0321 38.8915 18.4425 36.5105 23.1949C34.6376 26.9336 33.6368 30.9718 33.4067 35.7201L33.2722 38.4969L33.9445 39.1703C34.4099 39.6365 34.8283 39.8437 35.3042 39.8437C36.9127 39.8437 37.4931 38.903 37.4944 36.2949C37.4955 33.9158 37.999 30.879 38.7861 28.5015C39.5555 26.1776 39.9572 25.1664 40.1112 25.1664C40.2122 25.1666 41.5483 41.0157 42.1055 48.8253C42.2129 50.3314 42.3756 55.1663 42.467 59.5695C42.6505 68.4166 42.6271 68.2806 44.121 69.2208C45.5196 70.101 47.7687 69.3742 48.4408 67.8247C48.7037 67.2184 48.6175 56.8586 48.2875 49.4278L48.1539 46.4156H48.9473C49.3836 46.4156 49.7408 46.4805 49.7408 46.5598C49.7408 47.0527 53.5254 67.2254 53.7058 67.694C53.8278 68.0109 54.2224 68.5531 54.5823 68.8988C55.1547 69.4478 55.4025 69.5269 56.5517 69.5269C57.7883 69.5269 57.9103 69.4787 58.6082 68.7161C59.016 68.2701 59.4178 67.6339 59.5009 67.3023C59.5991 66.9104 59.0123 63.2478 57.823 56.8312C56.8172 51.4039 56.01 46.7661 56.029 46.5252C56.8658 36.0151 57.5829 27.7533 57.6658 27.6703C57.7758 27.5599 58.5489 31.0446 58.9325 33.3813C59.0513 34.1042 59.2431 36.3194 59.3588 38.3039C59.6024 42.4812 59.7933 42.97 61.2295 43.0905C62.2856 43.1792 62.9776 42.8142 63.319 41.9886C63.7164 41.028 63.4257 35.549 62.7755 31.7383C61.7986 26.014 59.7454 20.0119 58.2254 18.437C56.04 16.1725 50.5646 14.7081 46.5799 15.3224Z" fill="#193973"/>
<path d="M15.6267 34.4036C15.6282 33.6003 15.689 32.7212 15.7614 32.45C15.8889 31.9735 16.2797 31.7516 16.2797 32.1556C16.2797 32.2649 16.4671 32.3052 16.6961 32.2452C16.9933 32.1672 17.158 32.2828 17.2722 32.6491C17.3601 32.9311 17.7997 33.6056 18.2491 34.1477C19.4045 35.5421 20.8661 37.8598 22.2935 40.5615L23.5211 42.8844L22.0326 43.3232C21.214 43.5644 19.5602 44.0536 18.3574 44.41L16.1704 45.0582L15.7329 44.5382C15.31 44.0354 15.2413 44.0256 13.6553 44.2363C12.7532 44.3563 11.7955 44.4012 11.5269 44.3364C11.0136 44.2122 9.5 42.9863 9.5 42.6945C9.5 42.4369 10.817 41.179 11.7323 40.5628C12.2556 40.2103 12.632 39.7336 12.7938 39.2182C13.1746 38.0068 13.9757 36.8845 14.8435 36.3476C15.6109 35.8722 15.6236 35.8409 15.6267 34.4036Z" fill="#679BD2"/>
<path d="M26.6133 41.7438C28.2069 41.1909 30.2 40.4463 31.042 40.0892C31.8839 39.7321 32.6345 39.432 32.7102 39.4226C32.9965 39.3864 33.4033 40.085 33.2088 40.2787C32.9761 40.5107 29.7352 41.7891 26.7773 42.8161C25.6346 43.2128 24.6997 43.5723 24.6997 43.615C24.6997 43.6575 25.4927 44.3925 26.4619 45.2479C31.4741 49.6721 34.745 54.6206 35.903 59.5318C36.2048 60.812 36.4806 61.9673 36.5156 62.0994C36.5514 62.235 37.4066 62.403 38.483 62.4858C40.6258 62.6508 41.4733 62.9345 40.4281 63.1367C40.0771 63.2046 39.2745 63.3238 38.6442 63.4013C37.727 63.5146 37.3856 63.6773 36.932 64.2171C36.221 65.0636 35.4558 65.2217 30.7139 65.5017C26.3727 65.7578 24.3915 65.666 23.6936 65.1764C23.0369 64.7157 22.8407 64.7225 22.8407 65.206C22.8407 65.4202 22.6874 65.8145 22.5002 66.0822C22.1914 66.5239 21.9773 66.5692 20.1971 66.5692C18.611 66.5692 18.2089 66.5028 18.1019 66.2235C17.9092 65.7205 18.7193 64.7547 19.5044 64.5508C20.0396 64.4119 20.2522 64.1805 20.519 63.4458C20.8871 62.4322 20.9435 62.0333 20.8825 60.8735L20.842 60.1068L20.5299 61.1215C20.3521 61.7001 19.9972 62.2815 19.7041 62.4736C19.4215 62.6591 18.8774 63.2992 18.4951 63.8962C17.9079 64.8125 17.668 65.0027 16.9531 65.117C15.7922 65.303 14.145 65.0502 13.9967 64.6633C13.7065 63.9056 14.6685 63.0642 15.8248 63.0642C16.7396 63.0642 17.698 61.6611 17.6254 60.4277C17.598 59.9627 17.7419 59.0726 17.9453 58.4498C18.4884 56.7865 18.0956 53.3209 17.1512 51.4472C16.5244 50.2034 16.4866 49.9902 16.5452 48.0202L16.6077 45.9196L20.1489 44.8814C24.727 43.5392 24.5835 43.5957 24.0982 43.3228C23.8876 43.2045 23.7155 43.0268 23.7155 42.9283C23.7155 42.8297 25.0196 42.2967 26.6133 41.7438Z" fill="#679BD2"/>
<path d="M35.2211 49.6884C35.4901 48.9657 35.6108 47.6872 35.6904 44.7176C35.7888 41.0397 35.8293 40.7197 36.1947 40.7197C36.7601 40.7197 36.925 42.1241 36.7708 45.6267C36.5943 49.6321 35.9441 51.7478 35.1375 50.9401C34.9121 50.7144 34.928 50.4761 35.2211 49.6884Z" fill="#679BD2"/>
</svg>
