<svg width="48" height="48" viewBox="0 0 48 48" fill="none" xmlns="http://www.w3.org/2000/svg">
<path fill-rule="evenodd" clip-rule="evenodd" d="M17.0399 1.87283C15.249 2.45893 13.9111 4.23612 13.9111 6.02876C13.9111 8.25469 15.8277 10.165 18.0608 10.165C19.5018 10.165 20.3461 9.81273 21.2385 8.8386C23.7079 6.14363 22.0235 2.00347 18.374 1.7976C17.856 1.76841 17.2556 1.80228 17.0399 1.87283ZM11.461 9.2374C9.91931 9.53584 9.28991 10.0859 7.27416 12.8965C6.53537 13.9267 5.10318 15.9202 4.09163 17.3267C1.0393 21.5706 0.909409 21.7622 0.478436 22.6518L0.0626421 23.5103L0.0102182 28.8172C-0.0458051 34.5028 0.124612 38.2583 0.618807 42.2267C0.964649 45.0039 1.17967 45.5424 2.12064 45.9878C3.00262 46.4052 3.95486 46.2346 4.65859 45.5328C5.1894 45.0037 5.22587 44.9046 5.22587 43.9942C5.22587 43.4589 5.1024 42.0025 4.95154 40.7577C4.64451 38.2229 4.36893 33.3893 4.36674 30.4951L4.36517 28.5831H4.88503C5.64917 28.5831 6.72786 28.1723 7.38746 27.63C7.70592 27.3681 8.37616 26.5799 8.87677 25.8784C9.37754 25.1768 10.1622 24.0911 10.6204 23.4657L11.4538 22.3286L10.8183 20.9683C10.0398 19.3024 9.89302 18.834 9.6852 17.3552C9.49381 15.992 9.71384 13.9354 10.1271 13.2251C10.9839 11.7522 12.9206 11.6992 13.8738 13.1222C14.2099 13.6239 14.2272 13.7614 14.13 15.1693C14.0259 16.6752 14.1387 18.1254 14.3599 18.1254C14.5221 18.1254 15.8388 16.3131 16.2515 15.5217C16.7313 14.6014 16.8255 13.3893 16.503 12.2831C15.9019 10.2206 13.5913 8.82487 11.461 9.2374ZM11.1413 13.095C10.1123 13.9017 10.0868 17.213 11.0892 19.8746C12.0393 22.3971 14.7154 25.1575 17.6225 26.6134C19.1736 27.3903 20.3271 26.9656 20.3271 25.6175C20.3271 24.8723 19.962 24.4309 18.9006 23.8924C15.098 21.9637 12.8378 18.3678 13.391 15.1268C13.6568 13.57 13.2018 12.8139 12.0044 12.8219C11.7189 12.8238 11.3307 12.9468 11.1413 13.095ZM7.15867 28.6095C6.75853 28.8665 6.14227 29.1155 5.78939 29.1626L5.14762 29.2485V32.1286C5.14762 35.1783 5.20803 35.5718 6.18515 38.8847C6.94021 41.4447 8.09448 44.5771 8.53171 45.2527C9.09649 46.1252 10.4603 46.475 11.4027 45.9889C12.5868 45.3782 12.8494 44.0436 12.1095 42.3966C11.1673 40.2991 9.76892 35.5016 8.67459 30.6122C8.45362 29.6249 8.23736 28.6593 8.19385 28.466C8.09573 28.0291 8.05239 28.0352 7.15867 28.6095Z" fill="#193973"/>
<path d="M23.1443 21.851C23.1443 21.5474 23.1972 21.2456 23.2617 21.1802C23.3262 21.1148 23.696 21.1115 24.0833 21.173C24.9139 21.3049 25.6679 21.3052 27.0566 21.1742C27.9393 21.091 28.1542 21.1257 28.6822 21.4358C29.5709 21.9581 30.6929 24.0412 32.3217 28.1929C32.6828 29.1132 33.4889 30.5443 34.6595 32.3426C35.6421 33.8523 36.446 35.2264 36.446 35.3964C36.446 35.5662 36.899 36.4158 37.4528 37.2841C38.3825 38.7419 38.8152 39.7067 39.028 40.7959C39.0866 41.0955 39.2694 41.2899 39.6363 41.4427C39.9247 41.563 40.2602 41.8029 40.3817 41.9759C40.5912 42.2741 40.7574 42.2893 43.5711 42.2656C46.4108 42.2417 46.5721 42.2568 47.291 42.6129C47.8783 42.9036 48.0322 43.0571 47.9952 43.3151C47.8998 43.9819 47.0945 44.0755 42.3143 43.9766C39.9044 43.9268 36.0665 43.8609 33.7856 43.8305C31.1632 43.7954 29.4804 43.7095 29.2083 43.597C28.6608 43.3705 28.6495 42.9063 29.1819 42.5195C29.5736 42.235 29.5786 42.2097 29.3498 41.687C29.22 41.3906 29.0726 41.0172 29.0222 40.8572C28.9434 40.6067 28.8952 40.5959 28.6736 40.7792C28.3301 41.0634 27.9955 41.8892 27.9955 42.453C27.9955 42.9689 27.7777 43.1001 26.9264 43.0969C25.513 43.0917 25.3289 42.7385 26.1685 41.6414C26.5905 41.0899 26.752 40.6471 27.0232 39.297L27.3577 37.6325L26.9746 37.0695C26.589 36.5027 26.2766 35.6173 26.2751 35.0863C26.2743 34.8531 26.1649 34.8062 25.6873 34.835C24.6535 34.8971 24.4177 34.8358 23.8809 34.3658C23.2321 33.7975 22.9878 33.0249 22.9878 31.5409C22.9878 29.7881 22.6896 29.2957 20.6405 27.6649L20.2493 27.3535L20.5698 27.0287L20.8902 26.7039L22.4758 27.4773C23.3478 27.9026 24.1391 28.3957 24.2343 28.573C24.4801 29.0309 24.7092 28.9718 24.7092 28.4503C24.7092 27.8317 24.998 27.0349 25.435 26.4474C25.6383 26.1741 25.8047 25.8864 25.8047 25.8082C25.8047 25.5148 25.2344 25.1875 24.5797 25.1049C24.2072 25.0581 23.7792 24.9083 23.6285 24.7723C23.4778 24.6362 23.2367 24.5249 23.0928 24.5249C22.8999 24.5249 22.8313 24.3862 22.8313 23.9953C22.8313 23.4039 23.0246 23.2695 23.7019 23.3903L24.1615 23.4723L23.6529 22.9375C23.2761 22.5414 23.1443 22.26 23.1443 21.851Z" fill="#679BD2"/>
</svg>
