<svg xmlns="http://www.w3.org/2000/svg" width="48" height="48" fill="none"><path fill="#193973" fill-rule="evenodd" d="M29.174 1.838c-2.497 1.154-3.193 4.2-1.416 6.19a3.961 3.961 0 0 0 4.61.96c1.502-.695 2.209-1.711 2.328-3.345.059-.815.012-1.094-.296-1.753-.413-.885-1.09-1.597-1.877-1.977-.797-.383-2.595-.423-3.35-.075Zm-9.328 1.816c-.505.433-.728 1.748-.619 3.641.154 2.644.884 4.536 2.239 5.8.728.679 2.145 1.474 2.639 1.48.472.006.543.294.781 3.143.134 1.604.258 2.931.275 2.95.017.018.46-.054.985-.16 2.049-.411 3.211.471 2.401 1.823-.28.47-1.258 1.006-1.833 1.006-.201 0-.585.18-.853.402l-.487.401.233 2.855c.129 1.57.234 3 .234 3.177 0 .177.13.45.29.608.267.264.273.333.083.913-.113.345-.95 3.256-1.859 6.47-1.793 6.339-1.855 6.739-1.16 7.472.729.77 1.497.953 2.417.574.876-.361.898-.419 2.824-7.243 1.889-6.693 2.267-7.96 2.37-7.96.06 0 .097.694.083 1.542-.06 3.412 1.067 5.991 3.03 6.938.722.348.944.387 1.897.326 1.8-.114 3.38-1.2 4.84-3.327 1.185-1.728 1.246-2.697.23-3.617-.438-.397-.64-.475-1.23-.474-.977 0-1.469.345-2.31 1.618-.844 1.277-1.487 1.853-1.79 1.605-.331-.271-.531-1.364-.531-2.904 0-1.23.045-1.506.297-1.822.27-.337.354-1.096.888-7.943.325-4.165.591-7.638.592-7.718 0-.08.356-.329.79-.552 1.492-.77 2.717-2.426 3.139-4.245.267-1.154.318-3.619.087-4.216-.299-.777-1.124-1.044-1.938-.629-.559.285-.633.563-.662 2.482-.027 1.801-.31 2.684-1.133 3.521l-.443.452-1.586-.786c-1.948-.965-3.287-1.273-5.067-1.165-1.457.088-2.84.532-4.161 1.336-.826.503-.914.526-1.414.363-.762-.248-1.595-1.138-1.995-2.131-.299-.743-.35-1.148-.38-3.048-.02-1.205-.039-2.276-.043-2.38-.003-.104-.17-.35-.37-.548-.475-.468-1.255-.481-1.78-.03Z" clip-rule="evenodd"/><path fill="#679BD2" d="M20.086 14.98c.173-.154.447-.353.608-.441.81-.443 1.397.205 1.396 1.542-.001.83-.361 1.467-1.077 1.905-.96.587-1.272 2.26-.553 2.972.289.285.294.285 1.144-.092 1.13-.5 2.082-.707 2.424-.526.33.175.355.894.041 1.205-.23.228-1.115.522-1.575.523-.38.001-.313.37.164.898l.421.466 1.159-.923c1.659-1.322 3.127-1.929 4.087-1.69.888.22.428 1.54-.537 1.54-.92 0-2.288 1.002-2.948 2.16-.506.885-1.457 1.908-1.775 1.908-.113 0-.344.396-.529.908-.41 1.135-1.638 3.572-2.245 4.455a30.331 30.331 0 0 1-1.318 1.702l-.86 1.035.148.635c.249 1.066.187 2.661-.139 3.576-.43 1.209-.389 1.809.164 2.431.251.283.611.553.8.6.622.154 1.041 1.097.568 1.277-.452.171-.879.08-1.632-.347-1.292-.732-2.24-2.363-1.953-3.356.211-.727-.059-1.5-.69-1.976-.52-.392-.533-.394-.735-.113-.981 1.368-1.775 2.292-2.185 2.542-.32.195-.575.523-.738.945-.243.63-.24.99.025 2.358.056.29.02.558-.09.69-.242.288-1.237.28-1.532-.011-.287-.284-.288-.562-.008-2.024.255-1.336.568-2.2.948-2.615.184-.201.298-.649.371-1.453.122-1.342.565-3.173.884-3.654.12-.182.22-.392.22-.467 0-.24-1.329-1.017-2.506-1.466-1.881-.717-3.768-1.956-3.625-2.38.11-.329.567-.255 2.11.341 2.987 1.155 4.929 1.432 5.632.803.66-.59 1.601-4.454 1.723-7.07.048-1.009.043-2.005-.01-2.214l-.097-.38-.546.29c-1.112.59-2.084.204-1.891-.75.12-.591.82-1.676 1.861-2.883.448-.52.965-1.188 1.15-1.487.645-1.046 1.769-1.551 2.825-1.27.532.142.646.127.921-.119Z"/></svg>