<svg xmlns="http://www.w3.org/2000/svg" width="48" height="48" fill="none"><path fill="#193973" fill-rule="evenodd" d="M15.935 1.699c-1.222.398-2.463 1.539-2.828 2.599-.633 1.84.022 3.861 1.602 4.942.738.504 1.041.612 1.91.682 1.952.155 3.48-.645 4.262-2.233.521-1.06.588-2.552.158-3.524-.355-.804-1.275-1.781-2.041-2.17-.69-.35-2.392-.515-3.063-.296Zm-3.442 8.559c-1.766.374-2.677 1.345-3.679 3.918-.413 1.062-1.413 3.603-2.222 5.649-.809 2.045-1.57 4.097-1.692 4.561-.121.464-.37 3.04-.552 5.723l-.332 4.88-1.845 4.027C1.156 41.231.236 43.288.127 43.587c-.6 1.651 1.03 3.266 2.722 2.695.355-.12.784-.397.952-.617.169-.22 1.248-2.47 2.397-5l2.09-4.601.211-3.089c.116-1.698.249-3.15.296-3.226.047-.075.377-.148.733-.162.909-.035 1.888-.507 2.628-1.265.514-.526.836-1.16 1.736-3.415.608-1.523 1.105-2.817 1.105-2.875 0-.058-.15-.26-.333-.45-1.85-1.907-3.932-6.254-3.668-7.653.139-.737.775-1.437 1.503-1.654.51-.152.727-.137 1.325.09.843.32 1.044.59 1.554 2.08.511 1.493 1.36 3.066 1.51 2.799.3-.537.77-2.203.77-2.738 0-.951-.417-2.093-1.019-2.792-.952-1.106-2.776-1.746-4.146-1.456Zm-.398 3.041c-.537.533-.497 1.398.14 3.062 1.46 3.812 4.243 6.598 7.126 7.133 1.963.364 3.225.087 3.663-.804.254-.517.259-.624.052-1.116-.31-.737-.65-.88-2.097-.88-1.068 0-1.37-.065-2.199-.477-1.618-.804-2.975-2.622-3.957-5.303-.261-.713-.623-1.454-.804-1.647-.466-.495-1.41-.48-1.924.032Zm6.188 1.213c0 .73-.116 1.349-.388 2.067l-.388 1.025.818.774c1.241 1.174 2.133 1.716 2.775 1.688 1.268-.055 1.56.011 2.093.477l.539.47.327-.413c.449-.567.437-1.463-.025-1.88-.194-.174-.831-.547-1.417-.83-1.353-.652-2.983-2.146-3.747-3.432l-.587-.99v1.044Zm-5.71 14.425c-.449.492-1.555 1.075-2.417 1.273-.965.221-.989.367-.369 2.26l.424 1.294-.507 5.17c-.28 2.844-.505 5.345-.502 5.559.007.5.507 1.312 1.008 1.639.53.344 1.647.343 2.235-.003.929-.545.991-.803 1.552-6.442.286-2.875.522-5.592.525-6.038.004-.568-.212-1.444-.717-2.916-.397-1.158-.774-2.106-.836-2.106-.063 0-.242.14-.397.31Z" clip-rule="evenodd"/><path fill="#679BD2" d="M26.068 23.944c-1.989-1.042-2.152-1.161-2.152-1.567v-.44l1.76.945c4.65 2.493 11.117 5.465 14.24 6.543 1.409.486 1.523.555 1.487.912-.036.366.043.405 1.547.767l1.585.381.322.758c.298.7.305.813.1 1.488-.124.402-.225.781-.226.843-.002.175.807.55 1.441.667 1.114.208 1.341 1.06.662 2.483-.245.512-1.01 1.168-1.366 1.17-.315.002-.27-.55.103-1.264.226-.432.41-.805.41-.828 0-.023-.401-.09-.893-.146a14.006 14.006 0 0 1-1.272-.2l-.38-.094.412.602c.477.698.529 1.314.138 1.655-.338.296-2.426 1.209-2.765 1.209-.642 0-.021-.81 1.03-1.343l.572-.29-.448-.53-.449-.531-1.564.258c-.86.142-1.945.258-2.41.258h-.846l-.098.938c-.103.977-.358 1.599-.998 2.436-.518.677-.432 1.258.253 1.715.313.21.768.355 1.105.355.663 0 1.192.321 1.066.647-.048.124-.456.31-.907.414l-.82.188-1.192-.751c-1.441-.909-1.613-1.243-1.209-2.36.335-.925.23-1.591-.303-1.939-.562-.366-1.472-1.79-1.584-2.48-.097-.591-.133-.62-1.68-1.338-.869-.404-1.852-.822-2.183-.93-.539-.175-.578-.221-.366-.431.407-.405 1.347-.296 2.757.318.725.316 1.473.574 1.662.574.188 0 .701-.284 1.14-.63.89-.705 2.205-1.286 3.686-1.627.544-.125 1.298-.403 1.677-.617.77-.435 1.982-1.42 1.862-1.513-.043-.033-.978-.393-2.078-.8-3.405-1.26-8.293-3.499-12.828-5.875Z"/><path fill="#679BD2" d="M42.175 27.543c.49-.182 1.14-.393 1.448-.469.765-.19 1.62-.062 2.489.37.402.2.998.413 1.326.472.555.1.593.142.548.592-.04.393-.147.517-.577.66l-.53.176.415.27c.344.224.386.321.25.575-.127.236-.33.306-.885.306-.396 0-.986.08-1.311.177-.494.147-.821.12-1.98-.165-1.795-.441-1.837-.468-1.584-1.02.18-.395.166-.458-.149-.666-.192-.127-.348-.39-.348-.589 0-.294.161-.418.888-.69Z"/></svg>