<svg xmlns="http://www.w3.org/2000/svg" width="48" height="48" fill="none"><path fill="#193973" fill-rule="evenodd" d="M16.165 3.047c-1.148.41-1.908 1.072-2.46 2.146-.398.773-.468 1.083-.457 2.02.015 1.301.278 1.996 1.097 2.903.828.916 1.644 1.294 2.985 1.382.958.062 1.238.017 1.958-.318 1.574-.734 2.47-1.99 2.603-3.656.25-3.124-2.81-5.517-5.726-4.477Zm-5.086 7.71c-.876.215-1.7.682-2.238 1.27-.585.64-.912 1.084-6.466 8.825-1.209 1.683-1.677 2.84-1.543 3.812.044.315.271 2.28.505 4.365l.426 3.792-.882 4.824C.396 40.297-.001 42.75 0 43.095c.005 2.087 2.822 2.897 3.895 1.118.196-.325.626-2.297 1.27-5.818l.975-5.326-.196-1.979c-.108-1.088-.156-2.082-.107-2.21.048-.127.288-.271.532-.322 1.014-.209 1.827-.962 3.38-3.127l1.524-2.128-.543-1.148c-.885-1.868-1.212-3.36-1.228-5.61-.017-2.271.148-2.91.93-3.596.996-.875 2.557-.549 3.23.675.121.22.17 1.014.142 2.314-.025 1.159.034 2.26.14 2.658l.184.68.446-.544c.87-1.058 1.54-2.365 1.645-3.21.133-1.062-.226-2.33-.916-3.234-.904-1.185-2.814-1.877-4.224-1.531Zm-.167 2.661c-.555.437-.729 1.186-.73 3.14-.002 3.258 1.06 5.938 3.195 8.062 1.323 1.316 3.385 2.575 4.217 2.575.644 0 1.359-.713 1.359-1.355 0-.826-.216-1.083-1.45-1.725-3.11-1.618-4.683-4.658-4.423-8.55l.102-1.526-.47-.47c-.562-.562-1.207-.616-1.8-.15ZM9.306 27.215c-.524.756-1.596 1.614-2.366 1.892-.494.18-.534.24-.447.67.052.26.136 1.213.185 2.118.084 1.545.031 1.958-.867 6.813-.526 2.843-.987 5.25-1.023 5.349-.073.196.42.699.958.976.81.416 2.08.025 2.627-.81.138-.21.682-2.736 1.242-5.764l.997-5.39-.326-3.25c-.18-1.787-.373-3.25-.43-3.25-.056 0-.303.29-.55.646Z" clip-rule="evenodd"/><path fill="#679BD2" d="M18.455 23.336c.282-.52 1.033-1.125 1.594-1.283.784-.221.944-.21 1.645.111.752.346 1.08.692 1.416 1.499.64 1.53-.681 3.376-2.415 3.376-.85 0-1.143-.245-1.027-.86.14-.752-.178-1.569-.82-2.097-.453-.373-.523-.507-.393-.746ZM25.909 24.33c.06-.301.246-.506.599-.66 1.23-.534 2.77-.152 3.372.838.15.247.503.643.785.88.281.237.698.75.927 1.14.319.544.6.79 1.21 1.057 1.562.685 2.336.79 5.26.714 4.886-.126 5.659-.102 6.451.2.73.28.732.28 1.52-.12.91-.462 1.157-.49 1.425-.168.315.38.064.933-.559 1.23-.509.243-.557.318-.456.697.26.974.259 2.612-.004 3.694-.34 1.4-.225 2.312.402 3.187.26.363.584.925.72 1.25.311.745.572 3.583.365 3.97-.192.36-.979.535-1.397.312-.407-.218-.41-.504-.009-.867.406-.367.41-1.346.009-2.193l-.297-.626-.012.498c-.022.858-.593 1.178-1.49.837-.538-.204-.508-.461.08-.683.464-.175.477-.207.38-.887-.117-.81-.451-1.364-2.102-3.483-1.101-1.413-1.229-1.524-1.737-1.523-1.146.001-7.702 1.705-8.128 2.112-.289.276-.603 1.964-.738 3.958-.088 1.31-.16 1.64-.386 1.761-.152.082-.324.363-.381.625-.146.663-.671.965-1.58.906-.409-.027-.77-.128-.802-.225-.032-.096.127-.396.354-.665.333-.396.362-.49.151-.49-.465 0-.185-.535.44-.84.87-.426.97-.762.742-2.484-.422-3.187-.703-4.11-1.65-5.417-.207-.285-.495-.884-.64-1.332-.144-.447-.578-1.492-.963-2.322l-.702-1.509-.947-.107c-.75-.085-1.04-.2-1.395-.554-.686-.687-.601-1.151.324-1.763.531-.352.798-.647.859-.948Z"/></svg>