<svg xmlns="http://www.w3.org/2000/svg" width="73" height="72" fill="none"><path fill="#193973" fill-rule="evenodd" d="M47.007 2.651c-2.342.832-3.827 3.006-3.827 5.602 0 3.393 2.419 5.824 5.795 5.824 3.36 0 5.848-2.45 5.868-5.778.02-3.429-2.525-5.947-5.961-5.898-.67.01-1.514.122-1.875.25Zm-.427 12.671c-4.605.71-7.688 3.12-10.07 7.873-1.872 3.739-2.873 7.777-3.103 12.525l-.135 2.777.672.673c.466.466.884.674 1.36.674 1.609 0 2.19-.941 2.19-3.55.002-2.378.505-5.415 1.292-7.792.77-2.324 1.171-3.336 1.325-3.336.101 0 1.437 15.85 1.995 23.66.107 1.505.27 6.34.361 10.743.184 8.848.16 8.712 1.654 9.652 1.399.88 3.648.153 4.32-1.396.263-.607.176-10.966-.154-18.397l-.133-3.012h.793c.437 0 .794.065.794.144 0 .493 3.784 20.665 3.965 21.134.122.317.516.86.876 1.205.573.549.82.628 1.97.628 1.236 0 1.358-.048 2.056-.81.408-.447.81-1.083.893-1.415.098-.392-.489-4.054-1.678-10.47-1.006-5.428-1.813-10.066-1.794-10.307.837-10.51 1.554-18.772 1.637-18.855.11-.11.883 3.375 1.267 5.711.118.723.31 2.938.426 4.923.243 4.177.434 4.666 1.87 4.786 1.057.09 1.749-.276 2.09-1.101.397-.961.107-6.44-.544-10.25-.976-5.725-3.03-11.727-4.55-13.302-2.185-2.265-7.66-3.729-11.645-3.115Z" clip-rule="evenodd"/><path fill="#679BD2" d="M15.627 34.404c.001-.804.062-1.683.134-1.954.128-.477.519-.698.519-.294 0 .109.187.15.416.09.297-.079.462.037.576.403.088.282.528.957.977 1.499 1.155 1.394 2.617 3.712 4.045 6.413l1.227 2.323-1.488.44c-.819.24-2.473.73-3.676 1.086l-2.187.648-.437-.52c-.423-.503-.492-.512-2.078-.302-.902.12-1.86.165-2.128.1-.513-.124-2.027-1.35-2.027-1.642 0-.257 1.317-1.515 2.232-2.131.524-.353.9-.83 1.062-1.345.38-1.211 1.182-2.334 2.05-2.87.767-.476.78-.507.783-1.944ZM26.613 41.744c1.594-.553 3.587-1.298 4.429-1.655.842-.357 1.593-.657 1.668-.666.286-.037.693.662.499.856-.233.232-3.474 1.51-6.432 2.537-1.142.397-2.077.756-2.077.799 0 .042.793.777 1.762 1.633 5.012 4.424 8.283 9.373 9.441 14.284.302 1.28.578 2.435.613 2.567.035.136.89.304 1.967.387 2.143.165 2.99.449 1.945.65-.35.069-1.153.188-1.784.265-.917.114-1.258.276-1.712.816-.711.847-1.476 1.005-6.218 1.285-4.341.256-6.322.164-7.02-.326-.657-.46-.853-.454-.853.03 0 .214-.154.608-.34.876-.31.442-.524.487-2.304.487-1.586 0-1.988-.066-2.095-.346-.193-.502.617-1.468 1.402-1.672.536-.14.748-.37 1.015-1.105.368-1.014.425-1.413.364-2.572l-.041-.767-.312 1.014c-.178.58-.533 1.16-.826 1.353-.282.185-.827.825-1.209 1.422-.587.916-.827 1.107-1.542 1.221-1.16.186-2.808-.067-2.956-.454-.29-.757.671-1.599 1.828-1.599.915 0 1.873-1.403 1.8-2.636-.027-.465.117-1.355.32-1.978.543-1.664.15-5.13-.794-7.003-.627-1.244-.664-1.457-.606-3.427l.063-2.1 3.54-1.039c4.579-1.342 4.436-1.285 3.95-1.558-.21-.118-.383-.296-.383-.395 0-.098 1.305-.631 2.898-1.184Z"/><path fill="#679BD2" d="M35.221 49.688c.27-.722.39-2 .47-4.97.098-3.678.138-3.998.504-3.998.565 0 .73 1.404.576 4.907-.177 4.005-.827 6.12-1.633 5.313-.226-.226-.21-.464.083-1.252Z"/></svg>