<svg width="48" height="48" viewBox="0 0 48 48" fill="none" xmlns="http://www.w3.org/2000/svg">
<path fill-rule="evenodd" clip-rule="evenodd" d="M29.1738 1.83801C26.6771 2.99195 25.9806 6.03762 27.7581 8.02867C28.916 9.3259 30.7937 9.71664 32.3678 8.98805C33.8697 8.29291 34.5765 7.27701 34.6955 5.64294C34.7547 4.82817 34.7078 4.54904 34.4003 3.89012C33.987 3.0048 33.3105 2.29258 32.5227 1.91338C31.7261 1.5301 29.9276 1.48964 29.1738 1.83801ZM19.8455 3.65422C19.3407 4.08746 19.1176 5.40164 19.2273 7.29527C19.3806 9.93895 20.1108 11.8308 21.4656 13.0942C22.1944 13.7738 23.6113 14.569 24.1046 14.575C24.5766 14.5809 24.6482 14.8688 24.8864 17.718C25.0204 19.3221 25.144 20.6495 25.161 20.6677C25.1779 20.6858 25.6211 20.6143 26.1458 20.5087C28.1945 20.0967 29.3574 20.9794 28.5475 22.3315C28.2662 22.801 27.2891 23.3369 26.7143 23.3369C26.5129 23.3369 26.1289 23.5177 25.8609 23.7386L25.3737 24.1403L25.6072 26.9952C25.7358 28.5653 25.8408 29.995 25.8408 30.1722C25.8408 30.3494 25.9712 30.6228 26.1304 30.7798C26.3981 31.0438 26.4044 31.1127 26.2141 31.6927C26.1008 32.0378 25.2643 34.9493 24.3552 38.1628C22.5618 44.502 22.4996 44.9018 23.1943 45.6353C23.9238 46.4053 24.6923 46.5876 25.6118 46.2089C26.4875 45.8479 26.5099 45.7905 28.4359 38.9662C30.3249 32.2734 30.7025 31.0055 30.8066 31.0055C30.8664 31.0055 30.9033 31.6998 30.8887 32.5484C30.8293 35.96 31.9558 38.5391 33.9194 39.4865C34.6405 39.8344 34.8627 39.8726 35.8164 39.8122C37.6153 39.6983 39.1962 38.6113 40.6553 36.4848C41.8406 34.7571 41.9024 33.7884 40.8862 32.8679C40.4477 32.4707 40.2467 32.3933 39.6563 32.3937C38.6792 32.3945 38.1874 32.739 37.3459 34.0123C36.502 35.2892 35.8594 35.8652 35.5557 35.6167C35.2248 35.3458 35.0249 34.253 35.0249 32.7133C35.0249 31.4836 35.07 31.2075 35.3222 30.8913C35.5911 30.5543 35.676 29.7952 36.21 22.9475C36.5348 18.7832 36.8012 15.3105 36.8019 15.2301C36.8027 15.1498 37.1583 14.901 37.5923 14.6776C39.0845 13.9088 40.3091 12.2524 40.7305 10.4328C40.9976 9.27945 41.049 6.81441 40.8185 6.21655C40.5191 5.4402 39.6939 5.17275 38.8795 5.58802C38.321 5.87285 38.2468 6.15141 38.2181 8.07001C38.1909 9.87147 37.9071 10.7539 37.0851 11.5914L36.6424 12.0428L35.056 11.2569C33.108 10.2919 31.7693 9.98409 29.9885 10.0919C28.5319 10.18 27.1492 10.6242 25.8278 11.4284C25.0018 11.9312 24.9138 11.9538 24.4139 11.7911C23.6517 11.5431 22.8192 10.6535 22.4193 9.65982C22.1205 8.91706 22.0698 8.51157 22.0389 6.6121C22.0193 5.40704 22.0002 4.33592 21.9963 4.23192C21.9925 4.12778 21.8257 3.88136 21.6257 3.68417C21.151 3.21587 20.3715 3.20273 19.8455 3.65422Z" fill="#193973"/>
<path d="M20.0861 14.9801C20.2589 14.8258 20.5325 14.627 20.6942 14.5387C21.504 14.0959 22.0908 14.7444 22.0896 16.0811C22.089 16.9114 21.729 17.5484 21.0132 17.9859C20.0523 18.5729 19.7409 20.2468 20.4604 20.958C20.749 21.2433 20.7541 21.2429 21.6039 20.8663C22.7338 20.3655 23.6855 20.1589 24.0279 20.3401C24.3582 20.5147 24.3828 21.2344 24.069 21.5446C23.8382 21.7728 22.9543 22.0666 22.4943 22.068C22.114 22.0693 22.1814 22.4385 22.6582 22.9658L23.079 23.4316L24.2379 22.5087C25.8969 21.1872 27.365 20.5802 28.3253 20.8185C29.2133 21.0389 28.7531 22.3595 27.7883 22.3595C26.8681 22.3595 25.5005 23.3607 24.8398 24.5181C24.334 25.404 23.3829 26.4272 23.0651 26.4272C22.9518 26.4272 22.7213 26.8228 22.5362 27.3352C22.1263 28.4696 20.8977 30.9069 20.2905 31.7902C20.0386 32.1566 19.4457 32.9222 18.9728 33.4917L18.113 34.5271L18.2611 35.1624C18.5096 36.2277 18.4477 37.8234 18.1225 38.7381C17.6928 39.9467 17.7333 40.5469 18.2858 41.1692C18.5374 41.4523 18.8975 41.7224 19.0864 41.7692C19.7083 41.9235 20.1271 42.8663 19.6535 43.046C19.2019 43.2173 18.7754 43.1266 18.0216 42.6992C16.73 41.9669 15.7812 40.3359 16.0693 39.343C16.2801 38.6163 16.01 37.8429 15.3793 37.3672C14.8592 36.9751 14.8457 36.973 14.6439 37.2544C13.6627 38.6223 12.8688 39.5461 12.4589 39.7964C12.1399 39.9914 11.8839 40.3192 11.7208 40.7412C11.4777 41.3704 11.4816 41.7317 11.7459 43.0992C11.8019 43.3892 11.7669 43.6566 11.6555 43.7893C11.4145 44.0765 10.4188 44.0688 10.1242 43.7776C9.83733 43.4939 9.83615 43.2156 10.1157 41.7541C10.3711 40.4179 10.6841 39.5548 11.0641 39.1391C11.2478 38.938 11.3622 38.4902 11.4354 37.6863C11.5575 36.3441 12.0003 34.5134 12.319 34.0325C12.4397 33.8504 12.5384 33.6399 12.5384 33.5646C12.5384 33.3247 11.2103 32.5479 10.0325 32.0989C8.15151 31.3817 6.26482 30.1432 6.40765 29.7192C6.51846 29.3902 6.97474 29.464 8.51786 30.0603C11.5049 31.215 13.447 31.4916 14.15 30.8626C14.8094 30.2726 15.7512 26.4092 15.8735 23.7935C15.9205 22.7844 15.9156 21.7879 15.8627 21.579L15.7663 21.1994L15.22 21.4888C14.1077 22.0782 13.1361 21.6931 13.329 20.7393C13.4488 20.1475 14.1489 19.0628 15.19 17.856C15.638 17.3365 16.1552 16.6676 16.3391 16.3694C16.9848 15.3229 18.1086 14.8179 19.1654 15.0993C19.6974 15.241 19.8107 15.2263 20.0861 14.9801Z" fill="#679BD2"/>
</svg>
