<svg width="48" height="48" viewBox="0 0 48 48" fill="none" xmlns="http://www.w3.org/2000/svg">
<path fill-rule="evenodd" clip-rule="evenodd" d="M16.1653 3.04744C15.0168 3.45705 14.2574 4.11932 13.7054 5.1926C13.3074 5.96623 13.2374 6.27575 13.2482 7.21338C13.2633 8.51441 13.5258 9.20894 14.3453 10.116C15.1729 11.0322 15.9893 11.41 17.3297 11.4976C18.2875 11.5602 18.5681 11.5146 19.2876 11.1796C20.8624 10.4461 21.7571 9.18983 21.8909 7.52446C22.1416 4.40048 19.081 2.00737 16.1653 3.04744ZM11.0793 10.7565C10.203 10.9717 9.37942 11.4391 8.84092 12.027C8.25575 12.6661 7.92948 13.1114 2.37454 20.8517C1.16612 22.5355 0.698109 23.6926 0.832343 24.6639C0.875886 24.9794 1.10316 26.9439 1.33732 29.0295L1.76305 32.8214L0.880742 37.6446C0.395653 40.2973 -0.000782 42.7496 1.15836e-06 43.0942C0.00454348 45.1823 2.82219 45.9918 3.89465 44.2132C4.09091 43.8876 4.52149 41.9163 5.16556 38.3951L6.13965 33.0694L5.94386 31.0903C5.83626 30.0018 5.78801 29.0075 5.83673 28.8806C5.88544 28.7535 6.12509 28.6085 6.36943 28.5582C7.383 28.3493 8.19638 27.5963 9.74829 25.4306L11.2731 23.3026L10.7296 22.1553C9.84462 20.2873 9.5182 18.7956 9.50159 16.5441C9.48499 14.2738 9.65008 13.635 10.4312 12.9493C11.4277 12.0743 12.9892 12.4004 13.662 13.6241C13.7833 13.8445 13.832 14.6382 13.8041 15.9384C13.7794 17.0966 13.8376 18.1987 13.9446 18.5962L14.1276 19.2754L14.574 18.7322C15.4434 17.6743 16.1133 16.3668 16.2189 15.5217C16.3516 14.4596 15.9926 13.1921 15.3028 12.2878C14.3995 11.1033 12.4887 10.4105 11.0793 10.7565ZM10.9125 13.4184C10.3573 13.8553 10.1831 14.6037 10.1822 16.5582C10.1804 19.816 11.2427 22.4963 13.377 24.6196C14.6999 25.9358 16.7623 27.1955 17.594 27.1955C18.2377 27.1955 18.9526 26.4823 18.9526 25.8398C18.9526 25.0137 18.7369 24.7571 17.5025 24.1149C14.3927 22.4971 12.8202 19.4566 13.0802 15.5656L13.1823 14.0389L12.7119 13.5685C12.1501 13.0066 11.5046 12.9527 10.9125 13.4184ZM9.30643 27.2147C8.78203 27.9715 7.70989 28.829 6.94035 29.1072C6.44602 29.2861 6.40593 29.3461 6.49286 29.7767C6.54548 30.037 6.62881 30.99 6.678 31.8946C6.76211 33.4397 6.70948 33.8526 5.81073 38.7083C5.2846 41.5513 4.82426 43.958 4.78792 44.0566C4.71524 44.253 5.20895 44.756 5.74604 45.0326C6.55567 45.4495 7.82595 45.0583 8.37306 44.2231C8.51074 44.013 9.05519 41.4865 9.61531 38.4593L10.6124 33.0694L10.2859 29.8192C10.1062 28.0315 9.91307 26.5689 9.85668 26.5689C9.80013 26.5689 9.5525 26.8595 9.30643 27.2147Z" fill="#193973"/>
<path d="M18.4549 23.3358C18.7365 22.8161 19.4881 22.2113 20.0494 22.0528C20.8326 21.8317 20.9933 21.8425 21.6941 22.1644C22.4462 22.5097 22.7731 22.8556 23.1105 23.6629C23.7497 25.1928 22.4285 27.0388 20.6946 27.0388C19.8441 27.0388 19.5524 26.7944 19.6679 26.179C19.8088 25.4273 19.4898 24.6104 18.8484 24.0818C18.3954 23.7085 18.3252 23.5752 18.4549 23.3358Z" fill="#679BD2"/>
<path d="M25.9087 24.3303C25.969 24.0287 26.1549 23.8241 26.5078 23.6707C27.7383 23.136 29.2775 23.5183 29.8796 24.5084C30.0297 24.7551 30.3829 25.151 30.6645 25.3878C30.946 25.6248 31.3634 26.1376 31.5918 26.5275C31.9108 27.072 32.1918 27.3174 32.8027 27.5851C34.3642 28.2698 35.1381 28.3749 38.0621 28.2994C42.9482 28.1731 43.721 28.1972 44.513 28.4996C45.2433 28.7785 45.2446 28.7785 46.0335 28.3786C46.9437 27.9173 47.1903 27.8885 47.4583 28.2115C47.7731 28.5909 47.5217 29.1443 46.8994 29.441C46.3903 29.6837 46.3415 29.7585 46.443 30.138C46.7036 31.112 46.7017 32.7496 46.4386 33.8324C46.0984 35.2318 46.2137 36.1441 46.8411 37.0186C47.1015 37.3815 47.4254 37.944 47.561 38.2684C47.8724 39.0139 48.1335 41.8521 47.9263 42.2393C47.7338 42.599 46.947 42.7744 46.5294 42.5507C46.1225 42.333 46.1195 42.047 46.5202 41.6844C46.9257 41.3174 46.9295 40.3384 46.5288 39.4914L46.2323 38.8649L46.2196 39.3628C46.1977 40.2209 45.6269 40.5415 44.7291 40.2002C44.192 39.996 44.2221 39.7389 44.8091 39.5173C45.2737 39.342 45.2873 39.3099 45.1896 38.6303C45.0731 37.8201 44.7388 37.2662 43.0876 35.1473C41.9868 33.7345 41.8593 33.6227 41.3513 33.6235C40.2048 33.6252 33.6493 35.3294 33.2233 35.7364C32.9344 36.0122 32.6198 37.6998 32.4851 39.6943C32.3967 41.0049 32.3243 41.3348 32.0993 41.4552C31.9469 41.5367 31.7752 41.8178 31.7176 42.08C31.5719 42.7432 31.0467 43.0446 30.1389 42.9857C29.729 42.9592 29.3675 42.8582 29.3357 42.7614C29.3039 42.6646 29.4632 42.365 29.6898 42.0957C30.0226 41.7 30.0518 41.6061 29.8414 41.6061C29.3756 41.6061 29.6558 41.0708 30.2814 40.7652C31.1512 40.3404 31.2516 40.0041 31.0235 38.2824C30.6014 35.0946 30.3199 34.1711 29.3723 32.8647C29.1657 32.5798 28.8785 31.9807 28.7339 31.5333C28.5893 31.0858 28.1554 30.0409 27.7695 29.211L27.0681 27.7024L26.1208 27.5953C25.3707 27.5104 25.0804 27.3949 24.726 27.0405C24.0395 26.3539 24.1248 25.8897 25.0499 25.2778C25.581 24.9263 25.8484 24.6314 25.9087 24.3303Z" fill="#679BD2"/>
</svg>
