<svg width="25" height="24" viewBox="0 0 25 24" fill="none" xmlns="http://www.w3.org/2000/svg">
<path d="M11.5489 2.92705C11.8483 2.00574 13.1517 2.00574 13.4511 2.92705L14.9697 7.60081C15.1035 8.01284 15.4875 8.2918 15.9207 8.2918H20.835C21.8037 8.2918 22.2065 9.53141 21.4228 10.1008L17.447 12.9894C17.0966 13.244 16.9499 13.6954 17.0838 14.1074L18.6024 18.7812C18.9017 19.7025 17.8472 20.4686 17.0635 19.8992L13.0878 17.0106C12.7373 16.756 12.2627 16.756 11.9122 17.0106L7.93648 19.8992C7.15276 20.4686 6.09828 19.7025 6.39763 18.7812L7.91623 14.1074C8.05011 13.6954 7.90345 13.244 7.55296 12.9894L3.57722 10.1008C2.79351 9.53141 3.19628 8.2918 4.16501 8.2918H9.07929C9.51252 8.2918 9.89647 8.01284 10.0303 7.60081L11.5489 2.92705Z" fill="url(#paint0_linear_2_1735)"/>
<defs>
<linearGradient id="paint0_linear_2_1735" x1="12.5" y1="0" x2="12.5" y2="24" gradientUnits="userSpaceOnUse">
<stop stop-color="#FFBF06"/>
<stop offset="1" stop-color="#FF9900"/>
</linearGradient>
</defs>
</svg>
