<svg width="26" height="26" viewBox="0 0 26 26" fill="none" xmlns="http://www.w3.org/2000/svg">
<path d="M8.25444 18.2745C7.92744 18.8757 7.35518 19.2478 6.53767 19.391C5.72016 19.5198 4.89522 19.3767 4.06284 18.9616C3.23047 18.5321 2.63591 17.9595 2.27918 17.2438C1.92245 16.5138 1.90759 15.8481 2.23459 15.2469C2.56159 14.6314 3.13385 14.2592 3.95136 14.1304C4.76887 13.9872 5.59382 14.1304 6.42619 14.5598C7.25857 14.9749 7.85312 15.5475 8.20985 16.2776C8.56658 16.9933 8.58145 17.6589 8.25444 18.2745ZM9.32464 11.7899C8.99763 12.4484 8.38822 12.8349 7.49639 12.9494C6.60456 13.0639 5.69043 12.8635 4.75401 12.3482C3.83245 11.8329 3.15615 11.1601 2.7251 10.3299C2.29405 9.49961 2.24202 8.75525 2.56903 8.09678C2.89603 7.42399 3.50545 7.0375 4.39728 6.93729C5.28911 6.82278 6.20323 7.01603 7.13966 7.51704C8.06121 8.03236 8.73752 8.70515 9.16857 9.53539C9.59962 10.3656 9.65164 11.1172 9.32464 11.7899ZM11.3313 10.8237C11.9407 10.4229 12.5427 10.2153 13.1372 10.201C13.7466 10.1724 14.3189 10.2297 14.854 10.3728C15.4039 10.5159 15.9093 10.6949 16.3701 10.9096C16.8457 11.11 17.2619 11.246 17.6187 11.3176C18.4213 11.475 19.4098 11.5538 20.584 11.5538C21.7582 11.5538 22.6872 12.112 23.371 13.2286C24.0547 14.3451 24.181 15.3686 23.75 16.299C23.3338 17.2295 22.7244 17.9381 21.9217 18.4248C21.1191 18.9114 20.3908 19.2264 19.7368 19.3695C19.0976 19.5127 18.5625 19.7345 18.1315 20.0351C17.7004 20.3358 17.3288 20.7509 17.0167 21.2805C16.7194 21.8102 16.2066 22.3684 15.4783 22.9553C14.7499 23.5422 13.8581 23.8858 12.8028 23.986C11.7623 24.0862 10.7962 23.6496 9.90433 22.6762C9.0125 21.7171 8.74495 20.7008 9.10168 19.6272C9.45841 18.5393 9.68137 17.6017 9.77055 16.8144C9.81515 16.4851 9.80028 16.0772 9.72596 15.5905C9.66651 15.0895 9.64421 14.567 9.65908 14.023C9.6888 13.4791 9.80771 12.9351 10.0158 12.3912C10.2239 11.8472 10.6178 11.3533 11.1975 10.9096C11.2123 10.8953 11.2198 10.8881 11.2198 10.8881C11.2346 10.8738 11.2495 10.8666 11.2644 10.8666C11.2792 10.8523 11.2867 10.8452 11.2867 10.8452C11.3015 10.8309 11.3164 10.8237 11.3313 10.8237ZM12.8251 9.32067C12.067 9.42088 11.3387 9.1489 10.6401 8.50474C9.94149 7.86059 9.48814 7.03034 9.28005 6.014C9.05709 5.01198 9.13141 4.12448 9.50301 3.35149C9.88947 2.56419 10.4617 2.12044 11.2198 2.02023C11.9778 1.92003 12.6987 2.19201 13.3825 2.83616C14.0811 3.48032 14.5418 4.31057 14.7648 5.3269C14.9878 6.32892 14.906 7.22359 14.5196 8.01089C14.148 8.78388 13.5831 9.22047 12.8251 9.32067ZM21.3643 6.67963C21.513 7.56714 21.3941 8.36875 21.0076 9.08448C20.636 9.80021 20.1009 10.2153 19.4023 10.3299C18.6889 10.4444 18.0274 10.2297 17.418 9.6857C16.8086 9.14174 16.4296 8.41885 16.2809 7.51704C16.1174 6.62953 16.2289 5.82791 16.6154 5.11218C17.0018 4.39646 17.5443 3.98133 18.2429 3.86682C18.9415 3.7523 19.5956 3.97417 20.205 4.53244C20.8144 5.0764 21.2008 5.79213 21.3643 6.67963Z" fill="#679BD2"/>
</svg>
