<svg width="20" height="20" viewBox="0 0 20 20" fill="none" xmlns="http://www.w3.org/2000/svg">
<path d="M6.34968 14.0579C6.09814 14.5203 5.65794 14.8066 5.02909 14.9167C4.40024 15.0158 3.76566 14.9057 3.12538 14.5864C2.48509 14.2561 2.02774 13.8156 1.75333 13.2651C1.47892 12.7035 1.46749 12.1915 1.71903 11.729C1.97057 11.2555 2.41077 10.9692 3.03962 10.8701C3.66848 10.76 4.30305 10.8701 4.94334 11.2005C5.58363 11.5198 6.04097 11.9602 6.31538 12.5218C6.58979 13.0724 6.60123 13.5844 6.34968 14.0579ZM7.17291 9.06979C6.92137 9.5763 6.45259 9.87361 5.76656 9.9617C5.08054 10.0498 4.37737 9.89563 3.65704 9.49922C2.94815 9.10282 2.42792 8.58529 2.09634 7.94664C1.76476 7.30799 1.72474 6.73541 1.97629 6.22889C2.22783 5.71136 2.69661 5.41406 3.38263 5.33698C4.06866 5.24889 4.77183 5.39754 5.49216 5.78294C6.20105 6.17934 6.72128 6.69687 7.05286 7.33552C7.38444 7.97417 7.42445 8.55226 7.17291 9.06979ZM8.71646 8.32653C9.18525 8.01821 9.64831 7.85855 10.1057 7.84754C10.5744 7.82552 11.0146 7.86956 11.4263 7.97968C11.8493 8.08979 12.2381 8.22743 12.5925 8.3926C12.9584 8.54675 13.2785 8.65136 13.5529 8.70642C14.1703 8.82754 14.9307 8.8881 15.834 8.8881C16.7372 8.8881 17.4518 9.31754 17.9778 10.1764C18.5037 11.0353 18.6009 11.8226 18.2693 12.5383C17.9492 13.2541 17.4804 13.7991 16.863 14.1735C16.2456 14.5479 15.6853 14.7901 15.1822 14.9002C14.6906 15.0103 14.279 15.181 13.9474 15.4123C13.6158 15.6435 13.33 15.9628 13.0899 16.3702C12.8612 16.7776 12.4667 17.2071 11.9065 17.6585C11.3462 18.11 10.6602 18.3743 9.8484 18.4513C9.04804 18.5284 8.30485 18.1926 7.61883 17.4438C6.9328 16.7061 6.727 15.9243 7.00141 15.0984C7.27582 14.2616 7.44732 13.5403 7.51592 12.9347C7.55022 12.6815 7.53879 12.3676 7.48162 11.9933C7.43589 11.6079 7.41874 11.206 7.43017 10.7875C7.45304 10.3691 7.54451 9.95068 7.70458 9.53226C7.86465 9.11383 8.16765 8.73394 8.61356 8.3926C8.62499 8.38159 8.63071 8.37608 8.63071 8.37608C8.64215 8.36507 8.65358 8.35956 8.66501 8.35956C8.67645 8.34855 8.68216 8.34305 8.68216 8.34305C8.6936 8.33203 8.70503 8.32653 8.71646 8.32653ZM9.86555 7.17035C9.28243 7.24743 8.72218 7.03822 8.1848 6.54271C7.64741 6.04721 7.29868 5.40855 7.13861 4.62676C6.9671 3.85597 7.02427 3.17328 7.31012 2.57867C7.60739 1.97305 8.04759 1.63171 8.63071 1.55463C9.21383 1.47755 9.76837 1.68676 10.2943 2.18227C10.8317 2.67777 11.1861 3.31642 11.3577 4.09822C11.5292 4.869 11.4663 5.55721 11.169 6.16282C10.8832 6.75743 10.4487 7.09327 9.86555 7.17035ZM16.4342 5.13878C16.5486 5.82148 16.4571 6.4381 16.1598 6.98867C15.874 7.53923 15.4624 7.85855 14.925 7.94664C14.3762 8.03473 13.8674 7.86956 13.3986 7.45114C12.9298 7.03271 12.6382 6.47664 12.5239 5.78294C12.3981 5.10024 12.4839 4.48361 12.7812 3.93305C13.0784 3.38249 13.4958 3.06316 14.0331 2.97507C14.5705 2.88698 15.0736 3.05766 15.5424 3.4871C16.0112 3.90552 16.3085 4.45608 16.4342 5.13878Z" fill="#679BD2"/>
</svg>
