<svg width="40" height="40" viewBox="0 0 40 40" fill="none" xmlns="http://www.w3.org/2000/svg">
<rect x="0.5" y="0.5" width="39" height="39" rx="19.5" fill="white"/>
<path d="M26.2555 12H24.7601V13.6C24.7601 13.92 24.5109 14.1333 24.2617 14.1333C24.0125 14.1333 23.7632 13.92 23.7632 13.6V12H15.7882V13.6C15.7882 13.92 15.5389 14.1333 15.2897 14.1333C15.0405 14.1333 14.7913 13.92 14.7913 13.6V12H13.296C12.5483 12 12 12.6933 12 13.6V15.52H27.9502V13.6C27.9502 12.6933 27.053 12 26.2555 12ZM12 16.64V26.4C12 27.36 12.5483 28 13.3458 28H26.3053C27.1028 28 28 27.3067 28 26.4V16.64H12ZM16.4361 25.6H15.2399C15.0405 25.6 14.8411 25.44 14.8411 25.1733V23.84C14.8411 23.6267 14.9907 23.4133 15.2399 23.4133H16.486C16.6854 23.4133 16.8847 23.5733 16.8847 23.84V25.1733C16.8349 25.44 16.6854 25.6 16.4361 25.6ZM16.4361 20.8H15.2399C15.0405 20.8 14.8411 20.64 14.8411 20.3733V19.04C14.8411 18.8267 14.9907 18.6133 15.2399 18.6133H16.486C16.6854 18.6133 16.8847 18.7733 16.8847 19.04V20.3733C16.8349 20.64 16.6854 20.8 16.4361 20.8ZM20.4237 25.6H19.1776C18.9782 25.6 18.7788 25.44 18.7788 25.1733V23.84C18.7788 23.6267 18.9283 23.4133 19.1776 23.4133H20.4237C20.6231 23.4133 20.8224 23.5733 20.8224 23.84V25.1733C20.8224 25.44 20.6729 25.6 20.4237 25.6ZM20.4237 20.8H19.1776C18.9782 20.8 18.7788 20.64 18.7788 20.3733V19.04C18.7788 18.8267 18.9283 18.6133 19.1776 18.6133H20.4237C20.6231 18.6133 20.8224 18.7733 20.8224 19.04V20.3733C20.8224 20.64 20.6729 20.8 20.4237 20.8ZM24.4112 25.6H23.1651C22.9657 25.6 22.7664 25.44 22.7664 25.1733V23.84C22.7664 23.6267 22.9159 23.4133 23.1651 23.4133H24.4112C24.6106 23.4133 24.81 23.5733 24.81 23.84V25.1733C24.81 25.44 24.6604 25.6 24.4112 25.6ZM24.4112 20.8H23.1651C22.9657 20.8 22.7664 20.64 22.7664 20.3733V19.04C22.7664 18.8267 22.9159 18.6133 23.1651 18.6133H24.4112C24.6106 18.6133 24.81 18.7733 24.81 19.04V20.3733C24.81 20.64 24.6604 20.8 24.4112 20.8Z" fill="#193973"/>
<rect x="0.5" y="0.5" width="39" height="39" rx="19.5" stroke="#E0E8F0"/>
</svg>
