<svg width="40" height="40" viewBox="0 0 40 40" fill="none" xmlns="http://www.w3.org/2000/svg">
<rect x="0.5" y="0.5" width="39" height="39" rx="19.5" fill="white"/>
<path d="M29 16.6179V15.6687C29 14.5814 28.1186 13.7 27.0312 13.7H12.9688C11.8814 13.7 11 14.5814 11 15.6687V16.6179C11 16.715 11.0787 16.7937 11.1758 16.7937H28.8242C28.9213 16.7937 29 16.715 29 16.6179Z" fill="#193973"/>
<path d="M11 18.0945V24.1062C11 25.1935 11.8814 26.075 12.9688 26.075H27.0312C28.1186 26.075 29 25.1935 29 24.1062V18.0945C29 17.9974 28.9213 17.9187 28.8242 17.9187H11.1758C11.0787 17.9187 11 17.9974 11 18.0945ZM15.5 22.7C15.5 23.0106 15.2481 23.2625 14.9375 23.2625H14.375C14.0644 23.2625 13.8125 23.0106 13.8125 22.7V22.1375C13.8125 21.8268 14.0644 21.575 14.375 21.575H14.9375C15.2481 21.575 15.5 21.8268 15.5 22.1375V22.7Z" fill="#193973"/>
<rect x="0.5" y="0.5" width="39" height="39" rx="19.5" stroke="#E0E8F0"/>
</svg>
