<svg width="40" height="40" viewBox="0 0 40 40" fill="none" xmlns="http://www.w3.org/2000/svg">
<rect x="0.5" y="0.5" width="39" height="39" rx="19.5" fill="white"/>
<g clip-path="url(#clip0_661_4214)">
<path d="M20 10C18.0222 10 16.0888 10.5865 14.4443 11.6853C12.7998 12.7841 11.5181 14.3459 10.7612 16.1732C10.0043 18.0004 9.8063 20.0111 10.1922 21.9509C10.578 23.8907 11.5304 25.6725 12.9289 27.0711C14.3275 28.4696 16.1093 29.422 18.0491 29.8078C19.9889 30.1937 21.9996 29.9957 23.8268 29.2388C25.6541 28.4819 27.2159 27.2002 28.3147 25.5557C29.4135 23.9112 30 21.9778 30 20C30 17.3478 28.9464 14.8043 27.0711 12.9289C25.1957 11.0536 22.6522 10 20 10ZM20.6667 23.84V24.5933C20.6667 24.7701 20.5964 24.9397 20.4714 25.0647C20.3464 25.1898 20.1768 25.26 20 25.26C19.8232 25.26 19.6536 25.1898 19.5286 25.0647C19.4036 24.9397 19.3333 24.7701 19.3333 24.5933V23.8467C19.0023 23.7483 18.6972 23.5777 18.4402 23.3471C18.1831 23.1165 17.9804 22.8317 17.8467 22.5133C17.8105 22.4132 17.7988 22.3059 17.8126 22.2003C17.8263 22.0947 17.8652 21.994 17.9259 21.9065C17.9866 21.819 18.0674 21.7474 18.1615 21.6975C18.2556 21.6477 18.3602 21.6211 18.4667 21.62C18.5983 21.6163 18.728 21.6518 18.8396 21.7218C18.9511 21.7918 19.0394 21.8932 19.0933 22.0133C19.1648 22.1952 19.2896 22.3512 19.4515 22.4607C19.6133 22.5702 19.8046 22.6281 20 22.6267C20.1293 22.6275 20.2574 22.6028 20.3771 22.554C20.4967 22.5051 20.6056 22.4331 20.6973 22.342C20.789 22.2509 20.8618 22.1426 20.9114 22.0232C20.9611 21.9039 20.9867 21.7759 20.9867 21.6467C20.9902 21.5142 20.9674 21.3824 20.9196 21.2589C20.8717 21.1353 20.7998 21.0225 20.708 20.927C20.6162 20.8315 20.5064 20.7551 20.3848 20.7024C20.2633 20.6497 20.1325 20.6217 20 20.62C19.6044 20.6148 19.2164 20.5101 18.8717 20.3157C18.5271 20.1213 18.2369 19.8434 18.0278 19.5074C17.8187 19.1715 17.6974 18.7884 17.675 18.3934C17.6527 17.9983 17.7301 17.604 17.9 17.2467C18.035 16.9529 18.2336 16.6928 18.4815 16.4852C18.7294 16.2777 19.0204 16.1279 19.3333 16.0467V15.28C19.3333 15.1032 19.4036 14.9336 19.5286 14.8086C19.6536 14.6836 19.8232 14.6133 20 14.6133C20.1768 14.6133 20.3464 14.6836 20.4714 14.8086C20.5964 14.9336 20.6667 15.1032 20.6667 15.28V16.0667C21.0297 16.1718 21.3615 16.364 21.6333 16.6267C21.8603 16.8532 22.0394 17.1229 22.16 17.42C22.1884 17.5172 22.1944 17.6197 22.1773 17.7195C22.1602 17.8194 22.1206 17.914 22.0615 17.9963C22.0024 18.0785 21.9253 18.1462 21.8361 18.1943C21.7469 18.2423 21.6479 18.2693 21.5467 18.2733C21.4154 18.2795 21.2853 18.2467 21.1726 18.1791C21.0599 18.1114 20.9697 18.012 20.9133 17.8933C20.8588 17.7749 20.7844 17.6666 20.6933 17.5733C20.5148 17.3977 20.2769 17.2954 20.0267 17.2867C19.7667 17.2902 19.5184 17.3954 19.3352 17.5799C19.152 17.7644 19.0484 18.0133 19.0467 18.2733C19.0477 18.5305 19.1458 18.7777 19.3213 18.9656C19.4968 19.1535 19.7369 19.2682 19.9933 19.2867C20.5541 19.2992 21.0934 19.5052 21.5198 19.8696C21.9462 20.2341 22.2336 20.7347 22.3333 21.2867C22.408 21.8414 22.2807 22.4045 21.9748 22.8732C21.6688 23.342 21.2045 23.6851 20.6667 23.84Z" fill="#193973"/>
</g>
<rect x="0.5" y="0.5" width="39" height="39" rx="19.5" stroke="#E0E8F0"/>
<defs>
<clipPath id="clip0_661_4214">
<rect width="20" height="20" fill="white" transform="translate(10 10)"/>
</clipPath>
</defs>
</svg>
