<svg width="24" height="24" viewBox="0 0 24 24" fill="none" xmlns="http://www.w3.org/2000/svg">
<path d="M19.875 8.9997C19.8761 7.66509 19.538 6.35209 18.8925 5.184C18.2469 4.01591 17.3151 3.03104 16.1845 2.32188C15.0538 1.61273 13.7615 1.20255 12.4289 1.12985C11.0963 1.05716 9.76705 1.32435 8.56601 1.90632C7.36497 2.4883 6.33155 3.36596 5.56277 4.45691C4.79399 5.54786 4.31508 6.81629 4.17102 8.1431C4.02695 9.46991 4.22246 10.8116 4.73917 12.0421C5.25589 13.2726 6.07686 14.3516 7.125 15.1778V22.4997C7.12415 22.5638 7.14016 22.627 7.17142 22.6829C7.20269 22.7388 7.2481 22.7856 7.30313 22.8185C7.3577 22.8517 7.41972 22.8709 7.48356 22.8742C7.5474 22.8774 7.61105 22.8647 7.66875 22.8372L12 20.6716L16.3313 22.8372C16.3886 22.8661 16.4525 22.8798 16.5166 22.877C16.5808 22.8741 16.6432 22.8548 16.6978 22.8209C16.7524 22.7871 16.7973 22.7397 16.8284 22.6835C16.8594 22.6272 16.8755 22.5639 16.875 22.4997V15.1778C17.8102 14.4424 18.5662 13.5042 19.0859 12.4339C19.6056 11.3637 19.8754 10.1894 19.875 8.9997ZM16.125 21.8903L12.1688 19.9122C12.1155 19.889 12.0581 19.877 12 19.877C11.9419 19.877 11.8845 19.889 11.8313 19.9122L7.875 21.8903V15.7028C9.11454 16.4688 10.5429 16.8745 12 16.8745C13.4571 16.8745 14.8855 16.4688 16.125 15.7028V21.8903ZM12 16.1247C10.5908 16.1247 9.21326 15.7068 8.04156 14.9239C6.86986 14.141 5.95663 13.0282 5.41736 11.7263C4.87808 10.4244 4.73699 8.99179 5.0119 7.60968C5.28682 6.22756 5.96542 4.95801 6.96186 3.96156C7.95831 2.96511 9.22787 2.28652 10.61 2.0116C11.9921 1.73668 13.4247 1.87778 14.7266 2.41706C16.0285 2.95633 17.1413 3.86956 17.9242 5.04126C18.7071 6.21296 19.125 7.59051 19.125 8.9997C19.1225 10.8886 18.3711 12.6994 17.0354 14.0351C15.6997 15.3708 13.8889 16.1222 12 16.1247ZM12 4.1247C11.0358 4.1247 10.0933 4.41061 9.2916 4.94628C8.48991 5.48196 7.86507 6.24333 7.49609 7.13412C7.12711 8.02491 7.03057 9.00511 7.21867 9.95076C7.40678 10.8964 7.87107 11.7651 8.55286 12.4468C9.23464 13.1286 10.1033 13.5929 11.0489 13.781C11.9946 13.9691 12.9748 13.8726 13.8656 13.5036C14.7564 13.1346 15.5177 12.5098 16.0534 11.7081C16.5891 10.9064 16.875 9.96388 16.875 8.9997C16.875 7.70677 16.3614 6.46679 15.4471 5.55255C14.5329 4.63831 13.2929 4.1247 12 4.1247ZM12 13.1247C11.1842 13.1247 10.3866 12.8828 9.70827 12.4295C9.02992 11.9762 8.50121 11.332 8.189 10.5783C7.87679 9.82452 7.7951 8.99512 7.95426 8.19495C8.11343 7.39478 8.50629 6.65977 9.08319 6.08288C9.66008 5.50599 10.3951 5.11312 11.1953 4.95396C11.9954 4.79479 12.8248 4.87648 13.5786 5.18869C14.3323 5.50091 14.9766 6.02962 15.4298 6.70797C15.8831 7.38632 16.125 8.18385 16.125 8.9997C16.125 10.0937 15.6904 11.1429 14.9168 11.9165C14.1432 12.6901 13.094 13.1247 12 13.1247Z" fill="#193973"/>
</svg>
