<svg width="120" height="85" viewBox="0 0 120 85" fill="none" xmlns="http://www.w3.org/2000/svg">
<path d="M115.323 7.5236C110.991 2.37443 102.994 0.274048 87.7204 0.274048H32.2785C16.6556 0.274048 8.52271 2.50992 4.20736 7.99199C0 13.337 0 21.2125 0 32.1124V52.8875C0 74.004 4.992 84.7254 32.2785 84.7254H87.7208C100.966 84.7254 108.305 82.872 113.053 78.3279C117.922 73.668 120 66.0596 120 52.8875V32.1124C120 20.6175 119.674 12.6956 115.323 7.5236ZM77.0404 45.3681L51.8644 58.5259C51.3015 58.8201 50.6861 58.9661 50.0714 58.9661C49.3754 58.9661 48.6809 58.7787 48.0658 58.4063C46.9076 57.7045 46.2004 56.4492 46.2004 55.0951V28.8639C46.2004 27.5121 46.9057 26.2579 48.0615 25.5557C49.2178 24.8535 50.6559 24.8055 51.8555 25.4288L77.0315 38.5018C78.3124 39.1668 79.1168 40.4892 79.1187 41.9319C79.1203 43.3757 78.3194 44.7 77.0404 45.3681Z" fill="#EB0504"/>
</svg>
