<svg width="24" height="24" viewBox="0 0 24 24" fill="none" xmlns="http://www.w3.org/2000/svg">
<path d="M13.7405 10.0829C12.6621 9.99271 11.5901 10.3192 10.745 10.9952C9.89995 11.6712 9.34606 12.6453 9.19729 13.7172L8.53023 18.5003C8.10162 21.184 11.4174 23.0064 13.4523 21.2039C14.5775 20.2532 15.0402 18.9173 16.3005 17.9459C17.5698 16.8937 18.9412 16.6476 20.1774 15.8243C22.2992 14.2051 21.218 10.6458 18.5505 10.4847L13.7405 10.0829Z" fill="#729ACD"/>
<path d="M17.7523 3.32896C16.3543 3.34442 15.6382 5.05219 15.6384 6.39465C15.6648 10.5451 19.6834 10.5021 19.7839 6.45005C19.8089 4.7172 18.9146 3.34415 17.7523 3.32896Z" fill="#729ACD"/>
<path d="M12.551 8.32138C13.8436 7.88361 14.397 6.05818 13.7864 4.25536C12.1872 -0.0412133 7.75836 1.45871 9.10248 5.84169C9.71305 7.6445 11.2618 8.75799 12.551 8.32138Z" fill="#729ACD"/>
<path d="M5.17238 13.2516C3.87481 12.9101 2.04016 13.1764 1.67324 14.5255C1.12191 17.0896 6.45701 18.527 7.57192 16.3059C8.15434 15.0234 6.97799 13.7161 5.17238 13.2516Z" fill="#729ACD"/>
<path d="M8.86252 10.79C9.508 9.59167 8.66836 7.87893 6.99261 6.97628C2.89514 4.92009 0.677687 9.03675 4.64742 11.3301C6.32317 12.2327 8.21533 11.9915 8.86252 10.79Z" fill="#729ACD"/>
</svg>
