<svg width="16" height="15" viewBox="0 0 16 15" fill="none" xmlns="http://www.w3.org/2000/svg">
<path d="M14.5 0H10.5C9.67188 0 9 0.719866 9 1.60714V5.89286C9 6.78013 9.67188 7.5 10.5 7.5H13V9.64286C13 10.8248 12.1031 11.7857 11 11.7857H10.75C10.3344 11.7857 10 12.144 10 12.5893V14.1964C10 14.6417 10.3344 15 10.75 15H11C13.7625 15 16 12.6027 16 9.64286V1.60714C16 0.719866 15.3281 0 14.5 0ZM5.5 0H1.5C0.671875 0 0 0.719866 0 1.60714V5.89286C0 6.78013 0.671875 7.5 1.5 7.5H4V9.64286C4 10.8248 3.10313 11.7857 2 11.7857H1.75C1.33438 11.7857 1 12.144 1 12.5893V14.1964C1 14.6417 1.33438 15 1.75 15H2C4.7625 15 7 12.6027 7 9.64286V1.60714C7 0.719866 6.32812 0 5.5 0Z" fill="#679BD2"/>
</svg>
