<svg width="16" height="16" viewBox="0 0 16 16" fill="none" xmlns="http://www.w3.org/2000/svg">
<path d="M14.5 8H12V6C12 4.89687 12.8969 4 14 4H14.25C14.6656 4 15 3.66563 15 3.25V1.75C15 1.33437 14.6656 1 14.25 1H14C11.2375 1 9 3.2375 9 6V13.5C9 14.3281 9.67188 15 10.5 15H14.5C15.3281 15 16 14.3281 16 13.5V9.5C16 8.67188 15.3281 8 14.5 8ZM5.5 8H3V6C3 4.89687 3.89687 4 5 4H5.25C5.66563 4 6 3.66563 6 3.25V1.75C6 1.33437 5.66563 1 5.25 1H5C2.2375 1 0 3.2375 0 6V13.5C0 14.3281 0.671875 15 1.5 15H5.5C6.32812 15 7 14.3281 7 13.5V9.5C7 8.67188 6.32812 8 5.5 8Z" fill="#679BD2"/>
</svg>
