<svg width="26" height="26" viewBox="0 0 26 26" fill="none" xmlns="http://www.w3.org/2000/svg">
<path d="M20.1775 18.8728C22.8874 17.3511 22.7841 16.4381 22.6551 15.6773C21.6744 14.1556 21.3131 15.0181 17.7515 14.1556C16.347 13.3745 13.8824 12.3747 12.1552 13.5588C10.6748 14.3538 11.172 17.5283 10.8865 18.4416C10.601 19.3549 8.95136 20.8776 9.72512 22.2204C10.4989 23.5631 12.7705 22.9051 13.6738 22.2204C14.6648 21.2465 18.3193 19.456 20.1775 18.8728Z" fill="#679BD2"/>
<path d="M8.82795 20.3214C9.36608 19.7926 9.92074 18.9506 10.1308 18.5958C10.2724 18.1643 10.3715 17.733 9.98919 17.1764C9.32077 16.5195 7.7517 15.6178 7.1286 15.2978C6.5055 14.9778 4.79197 14.4072 3.48913 15.6874C2.44685 16.7116 3.30975 18.5726 3.87148 19.3751C4.79197 20.544 5.11768 20.8919 5.88239 21.365C7.2382 22.2039 8.15528 20.9824 8.82795 20.3214Z" fill="#679BD2"/>
<path d="M11.5118 11.0925C10.7156 9.64802 8.90878 7.93274 7.47329 7.16159C5.94206 6.57859 3.89409 8.32773 4.44918 9.92638C5.80811 12.6347 7.62223 15.9214 9.42556 15.3243C11.2289 14.7271 12.6028 12.6723 11.5118 11.0925Z" fill="#679BD2"/>
<path d="M16.9645 7.91565C15.9206 5.32335 15.0856 4.20437 13.814 3.17866C12.1818 2.3768 10.034 4.3641 10.4547 7.33751C11.1175 9.74594 12.5513 12.0058 14.2505 11.8134C15.9498 11.621 17.42 9.59412 16.9645 7.91565Z" fill="#679BD2"/>
<path d="M22.798 12.5866C23.22 11.0526 23.1383 8.04526 20.9889 7.18293C19.3112 6.69396 16.4213 9.27763 16.8512 12.0761C17.186 14.2557 22.376 14.1207 22.798 12.5866Z" fill="#679BD2"/>
</svg>
