<svg width="25" height="24" viewBox="0 0 25 24" fill="none" xmlns="http://www.w3.org/2000/svg">
<g clip-path="url(#clip0_286_24891)">
<path d="M12.5006 24C10.3634 24 8.32528 23.1978 6.76172 21.741L7.72031 20.7122C9.02269 21.9255 10.7204 22.5938 12.5006 22.5938C14.2807 22.5938 15.9784 21.9256 17.2808 20.7123L18.2393 21.7413C16.6758 23.1978 14.6377 24 12.5006 24Z" fill="#37766E"/>
<path d="M12.5007 21.5312C10.99 21.5312 9.54936 20.9641 8.44409 19.9345L9.40264 18.9056C10.2467 19.692 11.347 20.125 12.5007 20.125C13.6543 20.125 14.7545 19.692 15.5985 18.9057L16.5571 19.9346C15.452 20.9642 14.0113 21.5312 12.5007 21.5312Z" fill="#37766E"/>
<path d="M12.5006 19.0883C11.6103 19.0883 10.761 18.7538 10.1091 18.1465L11.0677 17.1177C11.4584 17.4817 11.9673 17.6821 12.5006 17.6821C13.034 17.6821 13.5429 17.4817 13.9335 17.1177L14.8921 18.1467C14.2403 18.7539 13.3909 19.0883 12.5006 19.0883Z" fill="#37766E"/>
<path d="M12.5006 15.8422C12.5005 15.8422 12.5005 15.8422 12.5004 15.8422C10.5199 15.8422 8.51733 15.3416 6.54839 14.3544L6.1604 14.1599V0H18.8397V14.1598L18.4518 14.3543C16.4833 15.3416 14.4809 15.8422 12.5006 15.8422ZM7.56666 13.2847C9.21127 14.0489 10.8691 14.436 12.5004 14.436C14.1316 14.436 15.7891 14.049 17.4334 13.2847V1.40626H7.56666V13.2847Z" fill="#37766E"/>
<path d="M16.027 9.37551H8.97314V3.28143H16.027V9.37551ZM10.3794 7.96926H14.6207V4.68768H10.3794V7.96926Z" fill="#37766E"/>
<path d="M11.7969 11.113H13.2031V12.5193H11.7969V11.113Z" fill="#37766E"/>
</g>
<defs>
<clipPath id="clip0_286_24891">
<rect width="24" height="24" fill="white" transform="translate(0.5)"/>
</clipPath>
</defs>
</svg>
