<svg width="11" height="13" viewBox="0 0 11 13" fill="none" xmlns="http://www.w3.org/2000/svg">
<path d="M9.31487 4.93406C9.2774 4.89014 9.23199 4.89877 9.2082 4.90773C9.18826 4.9153 9.14257 4.93947 9.14889 5.00005C9.15649 5.0728 9.16075 5.14696 9.16156 5.22052C9.16495 5.52566 9.03416 5.82461 8.80275 6.04071C8.57281 6.25541 8.27037 6.37109 7.94835 6.36774C7.50848 6.36248 7.14365 6.14776 6.89328 5.74676C6.68626 5.41519 6.77725 4.98754 6.87358 4.53475C6.92996 4.26972 6.98826 3.99566 6.98826 3.73482C6.98826 1.70386 5.52942 0.532135 4.65983 0.0144472C4.64184 0.0037578 4.62472 0 4.60956 0C4.5849 0 4.56536 0.00995309 4.55573 0.0160468C4.53707 0.0278788 4.5072 0.0548435 4.5168 0.102578C4.84919 1.75454 3.85778 2.74809 2.80816 3.79997C1.72626 4.88422 0.5 6.11315 0.5 8.32954C0.5 10.9049 2.73861 13 5.49025 13C7.75584 13 9.75338 11.5217 10.3478 9.40495C10.7532 7.96168 10.3284 6.1232 9.31487 4.93406ZM5.61474 12.0031C4.92572 12.0325 4.27044 11.8012 3.76994 11.3533C3.27481 10.9102 2.99082 10.2918 2.99082 9.6567C2.99082 8.46485 3.47774 7.58989 4.78736 6.42832C4.80879 6.4093 4.83074 6.40329 4.84987 6.40329C4.8672 6.40329 4.88223 6.40824 4.89257 6.41288C4.91435 6.42271 4.95016 6.44703 4.94533 6.49964C4.89851 7.00961 4.89932 7.4329 4.94772 7.7578C5.07143 8.58768 5.72054 9.14529 6.56304 9.14529C6.9761 9.14529 7.36955 8.9998 7.67093 8.73561C7.7059 8.70494 7.74497 8.70885 7.75994 8.71182C7.77977 8.71583 7.80633 8.72721 7.82025 8.75861C7.9452 9.04098 8.00907 9.34072 8.01004 9.64944C8.01403 10.8917 6.93951 11.9475 5.61474 12.0031Z" fill="#FDB022"/>
</svg>
