<svg width="25" height="24" viewBox="0 0 25 24" fill="none" xmlns="http://www.w3.org/2000/svg">
<path d="M11.75 11.25V8.25H13.25V11.25H16.25V12.75H13.25V15.75H11.75V12.75H8.75V11.25H11.75Z" fill="#37766E"/>
<path fill-rule="evenodd" clip-rule="evenodd" d="M3.5 5.625C3.51533 13.5001 3.8795 19.4825 12.5 22.5C21.1204 19.4825 21.4847 13.5001 21.5 5.625C21.5011 5.04505 21.0568 4.49132 20.5048 4.50937C20.479 4.51021 20.4534 4.51106 20.4279 4.51189C18.4737 4.57628 17.4435 4.61023 13.1129 1.69116C12.7422 1.43357 12.2597 1.439 11.8857 1.69116C7.55636 4.61022 6.52628 4.57628 4.57207 4.51189C4.54661 4.51106 4.52099 4.51021 4.49521 4.50937C3.94556 4.5659 3.49887 5.04505 3.5 5.625ZM7.625 5.625C8.8287 5.21018 10.3991 4.40685 12.5 3C14.6016 4.40691 16.1712 5.2102 17.375 5.625C18.4528 5.99636 19.1647 6.01349 20 6C19.9831 9.76379 19.8616 12.9823 18.875 15.375C17.9482 17.6227 16.1727 19.6132 12.5 21C8.82718 19.6132 7.05177 17.6227 6.125 15.375C5.13842 12.9823 5.0169 9.76379 5 6C5.83532 6.01349 6.54735 5.99638 7.625 5.625Z" fill="#37766E"/>
</svg>
