<svg width="25" height="52" viewBox="0 0 25 52" fill="none" xmlns="http://www.w3.org/2000/svg">
<g clip-path="url(#clip0_286_25291)">
<path d="M17.1813 47.9791C18.6033 48.0716 20.2468 48.7737 21.2625 49.7345C21.6134 50.0487 21.5764 50.4182 21.2256 50.6769C20.0622 51.5454 18.3632 51.9888 16.9044 51.804C15.5378 51.7116 13.9127 50.991 12.8417 50.0117C12.4354 49.6422 12.4908 49.2171 12.9709 48.9584C14.1159 48.2563 15.8148 47.8683 17.1813 47.9791ZM22.2228 39.9229C22.5182 39.4794 22.906 39.4425 23.2569 39.849C24.1987 40.9577 24.882 42.5837 24.9743 43.951C25.122 45.4292 24.6234 47.1477 23.7186 48.2378C23.4231 48.6073 23.0722 48.6073 22.7768 48.2563C21.8534 47.2216 21.1886 45.5771 21.1148 44.1542C21.0409 42.8054 21.4841 41.1055 22.2228 39.9229ZM10.4595 41.5304C11.7891 41.9739 13.1741 43.0456 13.9497 44.2652C14.1713 44.6532 14.0789 45.0042 13.6542 45.1521C12.3061 45.7064 10.5149 45.7064 9.18523 45.1706C7.87409 44.7086 6.48907 43.6 5.7135 42.3804C5.45497 41.937 5.58424 41.5489 6.06441 41.4011C7.37555 41.0131 9.14835 41.0501 10.4595 41.5304ZM17.366 35.0263C17.7538 34.6383 18.1601 34.7122 18.3632 35.2111C18.9911 36.4861 19.2496 38.2414 18.9726 39.6087C18.7325 41.0685 17.8092 42.6022 16.6643 43.4336C16.3134 43.6923 15.9441 43.6184 15.7594 43.212C15.1315 42.0109 14.9284 40.237 15.2239 38.8143C15.4824 37.4839 16.3503 35.9502 17.366 35.0263ZM0.50584 32.2363C0.413588 31.7189 0.708986 31.4417 1.20767 31.4971C2.59269 31.6819 4.16234 32.4395 5.15957 33.4003C6.17517 34.3057 7.00613 35.8579 7.24628 37.2991C7.30166 37.7426 7.06164 38.0381 6.61834 38.0012C5.15957 37.9642 3.5344 37.2621 2.53717 36.2274C1.54008 35.2296 0.708986 33.6221 0.50584 32.2363ZM14.1159 30.2406C14.6329 30.0559 14.9653 30.296 14.9653 30.8319C15.0392 32.1992 14.5406 33.8991 13.7465 35.1187C12.9894 36.3198 11.5121 37.336 10.0901 37.6686C9.6469 37.7611 9.3515 37.5393 9.33299 37.0959C9.25911 35.6361 9.77616 33.9547 10.6073 32.8459C11.4382 31.7189 12.8417 30.6657 14.1159 30.2406ZM10.1639 24.6419C11.1982 23.755 12.8232 23.1267 14.2451 23.0159C14.7253 22.9974 15.0023 23.3116 14.9284 23.7919C14.6145 25.1963 13.6727 26.7298 12.6201 27.6353C11.5675 28.5961 9.88705 29.2244 8.42815 29.1874C8.00336 29.1689 7.76333 28.8548 7.85559 28.4483C8.13262 27.0624 9.05596 25.5289 10.1639 24.6419ZM0.54285 21.5007C0.59823 20.9464 0.949142 20.7432 1.42918 20.9648C2.66657 21.4453 4.01458 22.5724 4.77165 23.755C5.54736 24.993 5.93515 26.7298 5.78738 28.0788C5.732 28.5222 5.39959 28.744 4.9748 28.6146C3.62679 28.2266 2.24177 27.118 1.52157 25.843C0.782871 24.5865 0.376579 22.8496 0.54285 21.5007ZM11.4567 16.6411C12.7309 16.1606 14.4852 16.1237 15.8148 16.5118C16.2949 16.678 16.4427 17.0291 16.1841 17.4542C15.4824 18.6367 14.0974 19.7639 12.7124 20.2996C11.3643 20.8725 9.57301 20.8725 8.24351 20.3181C7.85559 20.1334 7.72633 19.7639 7.96648 19.3942C8.70518 18.1932 10.1086 17.103 11.4567 16.6411ZM3.49753 10.3587C3.71904 9.91524 4.12534 9.84133 4.51312 10.1555C5.51035 11.0793 6.37832 12.613 6.67372 13.9804C6.98776 15.3661 6.78461 17.103 6.15667 18.3595C5.93515 18.7475 5.56573 18.8584 5.23332 18.5813C4.06996 17.7497 3.14661 16.2162 2.90659 14.7933C2.62956 13.4445 2.86958 11.6706 3.49753 10.3587ZM15.7594 9.74894C17.1444 9.49026 18.8803 9.69351 20.136 10.2478C20.5977 10.4511 20.69 10.8576 20.3576 11.2456C19.4528 12.2989 17.92 13.2227 16.5165 13.5368C15.1131 13.9065 13.3403 13.6847 12.1215 12.9271C11.7521 12.6869 11.6783 12.3358 11.9553 12.0032C12.8232 10.9315 14.3375 10.0261 15.7594 9.74894ZM8.76056 2.41333C9.03746 2.00682 9.44375 1.96986 9.79466 2.35789C10.681 3.46656 11.3458 5.07411 11.4382 6.44145C11.549 7.79032 11.0873 9.50874 10.3117 10.7283C10.0532 11.0978 9.68391 11.1348 9.3515 10.8206C8.31726 9.76743 7.61557 8.12292 7.57869 6.70013C7.48631 5.3328 7.96648 3.61437 8.76056 2.41333ZM21.004 0.011239C21.5395 -0.0626715 21.8165 0.23297 21.7611 0.750344C21.5395 2.15464 20.7639 3.7622 19.8221 4.74152C18.8433 5.83169 17.2367 6.60776 15.7963 6.68166C15.3531 6.70013 15.1131 6.44145 15.15 5.99798C15.3162 4.61216 16.0918 3.00461 17.089 2.0253C18.0677 1.04599 19.619 0.23297 21.004 0.011239Z" fill="url(#paint0_linear_286_25291)"/>
</g>
<defs>
<linearGradient id="paint0_linear_286_25291" x1="12.7445" y1="0" x2="12.7445" y2="51.8455" gradientUnits="userSpaceOnUse">
<stop stop-color="#E6EAEB"/>
<stop offset="1" stop-color="#F3F7FB"/>
</linearGradient>
<clipPath id="clip0_286_25291">
<rect width="25" height="52" fill="white" transform="matrix(-1 0 0 1 25 0)"/>
</clipPath>
</defs>
</svg>
