<svg width="22" height="20" viewBox="0 0 22 20" fill="none" xmlns="http://www.w3.org/2000/svg">
<path d="M20.3525 12.475C20.1536 12.475 19.9628 12.554 19.8222 12.6946C19.6815 12.8353 19.6025 13.0261 19.6025 13.225V15.7862C19.6025 16.3899 19.3627 16.9689 18.9358 17.3958C18.5089 17.8227 17.93 18.0625 17.3263 18.0625H4.27625C3.67255 18.0625 3.09358 17.8227 2.6667 17.3958C2.23982 16.9689 2 16.3899 2 15.7862V13.225C2 13.0261 1.92098 12.8353 1.78033 12.6946C1.63968 12.554 1.44891 12.475 1.25 12.475C1.05109 12.475 0.860322 12.554 0.71967 12.6946C0.579018 12.8353 0.5 13.0261 0.5 13.225V15.7862C0.500993 16.7874 0.899165 17.7474 1.60713 18.4553C2.3151 19.1633 3.27503 19.5615 4.27625 19.5625H17.3263C18.3275 19.5615 19.2874 19.1633 19.9954 18.4553C20.7033 17.7474 21.1015 16.7874 21.1025 15.7862V13.225C21.1025 13.0261 21.0235 12.8353 20.8828 12.6946C20.7422 12.554 20.5514 12.475 20.3525 12.475Z" fill="#37766E"/>
<path d="M10.2687 14.665C10.3385 14.7353 10.4214 14.7911 10.5128 14.8292C10.6042 14.8672 10.7022 14.8868 10.8012 14.8868C10.9003 14.8868 10.9983 14.8672 11.0897 14.8292C11.1811 14.7911 11.264 14.7353 11.3337 14.665L15.6012 10.3975C15.7203 10.2542 15.7818 10.0718 15.7737 9.88564C15.7657 9.69952 15.6886 9.52307 15.5576 9.39064C15.4266 9.25821 15.2509 9.17928 15.0649 9.16923C14.8789 9.15918 14.6958 9.21871 14.5512 9.33625L11.5512 12.3363V1.1875C11.5512 0.988588 11.4722 0.797822 11.3316 0.65717C11.1909 0.516518 11.0002 0.4375 10.8012 0.4375C10.6023 0.4375 10.4116 0.516518 10.2709 0.65717C10.1303 0.797822 10.0512 0.988588 10.0512 1.1875V12.325L7.05125 9.325C6.91051 9.18427 6.71964 9.10521 6.52062 9.10521C6.3216 9.10521 6.13073 9.18427 5.99 9.325C5.84926 9.46573 5.7702 9.6566 5.7702 9.85563C5.7702 10.0546 5.84926 10.2455 5.99 10.3862L10.2687 14.665Z" fill="#37766E"/>
</svg>
