<svg width="25" height="24" viewBox="0 0 25 24" fill="none" xmlns="http://www.w3.org/2000/svg">
<g clip-path="url(#clip0_286_24943)">
<path d="M20.9874 3.51478C20.7129 3.24019 20.2676 3.24019 19.9931 3.51478C19.7185 3.78938 19.7185 4.23455 19.9931 4.50914C21.9926 6.5086 23.0937 9.16894 23.0937 12C23.0937 14.8312 21.9926 17.4915 19.9931 19.491C19.7185 19.7655 19.7185 20.2107 19.9931 20.4853C20.2681 20.7604 20.7133 20.7594 20.9874 20.4853C23.2525 18.2203 24.4999 15.2068 24.4999 12C24.4999 8.79328 23.2525 5.77983 20.9874 3.51478Z" fill="#37766E"/>
<path d="M18.8585 5.64378C18.5839 5.36923 18.1387 5.36923 17.8641 5.64378C17.5896 5.91837 17.5896 6.36354 17.8641 6.63814C19.2954 8.06928 20.0836 9.97353 20.0836 12C20.0836 14.0265 19.2954 15.9307 17.8641 17.3619C17.5896 17.6365 17.5896 18.0817 17.8641 18.3563C18.1386 18.6308 18.5838 18.6309 18.8585 18.3563C20.5554 16.6595 21.4899 14.4021 21.4899 12C21.4899 9.59782 20.5553 7.34051 18.8585 5.64378Z" fill="#37766E"/>
<path d="M16.7279 7.77439C16.4533 7.49984 16.0081 7.49984 15.7335 7.77439C15.4589 8.04899 15.459 8.4942 15.7335 8.76875C16.596 9.63116 17.071 10.7788 17.071 12C17.071 13.2213 16.596 14.3689 15.7335 15.2313C15.4589 15.5059 15.4589 15.9511 15.7335 16.2257C16.0081 16.5002 16.4533 16.5003 16.7279 16.2257C17.856 15.0976 18.4773 13.5969 18.4773 12C18.4773 10.403 17.856 8.90244 16.7279 7.77439Z" fill="#37766E"/>
<path d="M1.90625 12C1.90625 9.16892 3.00739 6.50858 5.00689 4.50912C5.28148 4.23458 5.28148 3.78936 5.00689 3.51477C4.73234 3.24022 4.28717 3.24017 4.01253 3.51477C1.74744 5.77981 0.5 8.79326 0.5 12C0.5 15.2068 1.74744 18.2202 4.01253 20.4853C4.28703 20.7598 4.7323 20.7599 5.00689 20.4853C5.28148 20.2107 5.28148 19.7655 5.00689 19.4909C3.00739 17.4915 1.90625 14.8311 1.90625 12Z" fill="#37766E"/>
<path d="M4.9165 12C4.9165 9.97354 5.70471 8.06934 7.13599 6.63815C7.41058 6.36356 7.41058 5.91839 7.13599 5.64379C6.86144 5.3692 6.41622 5.36925 6.14163 5.64379C4.44475 7.34053 3.51025 9.59793 3.51025 12C3.51025 14.4022 4.44475 16.6596 6.14163 18.3563C6.4166 18.6313 6.86177 18.6306 7.13599 18.3563C7.41053 18.0817 7.41053 17.6366 7.13599 17.362C5.70471 15.9308 4.9165 14.0265 4.9165 12Z" fill="#37766E"/>
<path d="M9.26668 7.77443C8.99214 7.49983 8.54692 7.49983 8.27232 7.77443C7.14423 8.90247 6.52295 10.4032 6.52295 12.0001C6.52295 13.5971 7.14423 15.0978 8.27232 16.2258C8.54729 16.5007 8.99246 16.5 9.26668 16.2258C9.54128 15.9512 9.54123 15.506 9.26668 15.2314C8.40418 14.369 7.9292 13.2214 7.9292 12.0002C7.9292 10.7789 8.40418 9.63129 9.26668 8.76888C9.54123 8.49424 9.54123 8.04902 9.26668 7.77443Z" fill="#37766E"/>
<path d="M12.5001 9.0376C10.8666 9.0376 9.5376 10.3666 9.5376 12.0001C9.5376 13.6336 10.8666 14.9626 12.5001 14.9626C14.1336 14.9626 15.4626 13.6336 15.4626 12.0001C15.4626 10.3666 14.1336 9.0376 12.5001 9.0376ZM12.5001 13.5563C11.642 13.5563 10.9438 12.8582 10.9438 12.0001C10.9438 11.142 11.642 10.4438 12.5001 10.4438C13.3582 10.4438 14.0563 11.142 14.0563 12.0001C14.0563 12.8582 13.3582 13.5563 12.5001 13.5563Z" fill="#37766E"/>
</g>
<defs>
<clipPath id="clip0_286_24943">
<rect width="24" height="24" fill="white" transform="translate(0.5)"/>
</clipPath>
</defs>
</svg>
