<svg width="25" height="24" viewBox="0 0 25 24" fill="none" xmlns="http://www.w3.org/2000/svg">
<path d="M9.25893 14.8678C9.54838 14.6089 9.57313 14.1644 9.31429 13.875V13.8749C7.64104 12.0044 7.64104 9.18308 9.31429 7.31249V7.31244C9.57318 7.02304 9.54838 6.57852 9.25898 6.31968L9.25893 6.31963C8.96953 6.06074 8.52501 6.08549 8.26612 6.37494C6.11474 8.78005 6.11474 12.4074 8.26612 14.8125C8.52501 15.1019 8.96953 15.1267 9.25893 14.8678Z" fill="#37766E"/>
<path d="M10.2443 12.79C10.4891 13.0915 10.9319 13.1374 11.2333 12.8926L11.2334 12.8925C11.5348 12.6477 11.5807 12.2049 11.3359 11.9035C11.0355 11.5336 10.8768 11.0817 10.8768 10.5967C10.8768 10.1124 11.0355 9.65797 11.3358 9.28255C11.5784 8.97931 11.5293 8.53686 11.2261 8.29428L11.226 8.29423C10.9228 8.05166 10.4803 8.10083 10.2378 8.40402C9.73582 9.03144 9.47046 9.78964 9.47046 10.5966C9.47041 11.3966 9.74524 12.1755 10.2443 12.79Z" fill="#37766E"/>
<path d="M21.5156 14.5781H21.0261C20.579 13.5509 20.3438 12.4298 20.3438 11.31V10.5938C20.3438 8.89598 19.134 7.47553 17.5312 7.14886V2.10938C17.5312 0.946266 16.585 0 15.4219 0H5.10938C3.94627 0 3 0.946266 3 2.10938V21.8906C3 23.0537 3.94627 24 5.10938 24H15.4219C16.585 24 17.5312 23.0537 17.5312 21.8906V18.6759C18.3496 18.3857 18.9375 17.6041 18.9375 16.6875V15.9844H21.5156C21.9039 15.9844 22.2188 15.6696 22.2188 15.2812C22.2188 14.8929 21.9039 14.5781 21.5156 14.5781ZM12.1026 1.40625L11.6338 2.8125H8.89739L8.42864 1.40625H12.1026ZM16.125 21.8906C16.125 22.2783 15.8096 22.5938 15.4219 22.5938H5.10938C4.72167 22.5938 4.40625 22.2783 4.40625 21.8906V2.10938C4.40625 1.72167 4.72167 1.40625 5.10938 1.40625H6.94631L7.72355 3.738C7.81931 4.02511 8.08795 4.21875 8.39062 4.21875H12.1406C12.4433 4.21875 12.7119 4.02511 12.8077 3.738L13.5849 1.40625H15.4219C15.8096 1.40625 16.125 1.72167 16.125 2.10938V7.14886C14.5223 7.47548 13.3125 8.89598 13.3125 10.5938V11.31C13.3125 12.4298 13.0772 13.5509 12.6302 14.5781H12.1406C11.7523 14.5781 11.4375 14.8929 11.4375 15.2812C11.4375 15.6696 11.7523 15.9844 12.1406 15.9844H14.7188V16.6875C14.7188 17.6041 15.3066 18.3857 16.125 18.6759V21.8906ZM17.5312 16.6875C17.5312 17.0752 17.2158 17.3906 16.8281 17.3906C16.4404 17.3906 16.125 17.0752 16.125 16.6875V15.9844H17.5312V16.6875ZM14.1434 14.5781C14.5216 13.5328 14.7188 12.4208 14.7188 11.31V10.5938C14.7188 9.43064 15.665 8.48438 16.8281 8.48438C17.9912 8.48438 18.9375 9.43064 18.9375 10.5938V11.31C18.9375 12.4208 19.1346 13.5328 19.5128 14.5781H14.1434Z" fill="#37766E"/>
<path d="M11.6719 19.7812H8.85938C8.47106 19.7812 8.15625 20.0961 8.15625 20.4844C8.15625 20.8727 8.47106 21.1875 8.85938 21.1875H11.6719C12.0602 21.1875 12.375 20.8727 12.375 20.4844C12.375 20.0961 12.0602 19.7812 11.6719 19.7812Z" fill="#37766E"/>
</svg>
