<svg width="25" height="24" viewBox="0 0 25 24" fill="none" xmlns="http://www.w3.org/2000/svg">
<g clip-path="url(#clip0_286_25315)">
<path d="M6.125 3.64355C3.02272 3.64355 0.5 6.16698 0.5 9.26855C0.5 12.1003 2.60253 14.45 5.32986 14.8373C5.11152 16.4234 4.50589 17.9326 3.55967 19.2414C3.37564 19.4968 3.38253 19.8429 3.57889 20.0901C3.77155 20.3333 4.10633 20.4255 4.40014 20.3016C8.8647 18.4381 11.75 14.1067 11.75 9.26855C11.75 6.16698 9.22728 3.64355 6.125 3.64355ZM18.875 3.64355C15.7727 3.64355 13.25 6.16698 13.25 9.26855C13.25 12.1003 15.3525 14.45 18.0799 14.8373C17.8615 16.4234 17.2559 17.9326 16.3097 19.2414C16.1256 19.4968 16.1325 19.8429 16.3289 20.0901C16.5215 20.3333 16.8563 20.4255 17.1501 20.3016C21.6147 18.4381 24.5 14.1067 24.5 9.26855C24.5 6.16698 21.9773 3.64355 18.875 3.64355Z" fill="#EFF0F2"/>
</g>
<defs>
<clipPath id="clip0_286_25315">
<rect width="24" height="24" fill="white" transform="translate(0.5)"/>
</clipPath>
</defs>
</svg>
