<svg width="25" height="52" viewBox="0 0 25 52" fill="none" xmlns="http://www.w3.org/2000/svg">
<g clip-path="url(#clip0_286_25305)">
<path d="M7.81866 47.9791C6.39671 48.0716 4.75317 48.7737 3.73751 49.7345C3.38665 50.0487 3.42357 50.4182 3.77443 50.6769C4.93784 51.5454 6.63679 51.9888 8.09565 51.804C9.46219 51.7116 11.0873 50.991 12.1583 50.0117C12.5646 49.6422 12.5092 49.2171 12.0291 48.9584C10.8841 48.2563 9.18518 47.8683 7.81866 47.9791ZM2.77723 39.9229C2.48177 39.4794 2.09396 39.4425 1.7431 39.849C0.801299 40.9577 0.11803 42.5837 0.025696 43.951C-0.122038 45.4292 0.376564 47.1477 1.28143 48.2378C1.5769 48.6073 1.92777 48.6073 2.22324 48.2563C3.14657 47.2216 3.81138 45.5771 3.88525 44.1542C3.9591 42.8054 3.51591 41.1055 2.77723 39.9229ZM14.5405 41.5304C13.2109 41.9739 11.8259 43.0456 11.0503 44.2652C10.8287 44.6532 10.9211 45.0042 11.3458 45.1521C12.6939 45.7064 14.4851 45.7064 15.8148 45.1706C17.1259 44.7086 18.5109 43.6 19.2865 42.3804C19.545 41.937 19.4158 41.5489 18.9356 41.4011C17.6245 41.0131 15.8516 41.0501 14.5405 41.5304ZM7.63399 35.0263C7.24619 34.6383 6.83992 34.7122 6.63679 35.2111C6.00891 36.4861 5.75039 38.2414 6.02738 39.6087C6.26745 41.0685 7.19078 42.6022 8.33572 43.4336C8.68658 43.6923 9.05592 43.6184 9.24059 43.212C9.86845 42.0109 10.0716 40.237 9.77612 38.8143C9.51759 37.4839 8.64966 35.9502 7.63399 35.0263ZM24.4942 32.2363C24.5864 31.7189 24.291 31.4417 23.7923 31.4971C22.4073 31.6819 20.8377 32.4395 19.8404 33.4003C18.8248 34.3057 17.9939 35.8579 17.7537 37.2991C17.6983 37.7426 17.9384 38.0381 18.3817 38.0012C19.8404 37.9642 21.4656 37.2621 22.4628 36.2274C23.4599 35.2296 24.291 33.6221 24.4942 32.2363ZM10.8841 30.2406C10.3671 30.0559 10.0347 30.296 10.0347 30.8319C9.96079 32.1992 10.4594 33.8991 11.2535 35.1187C12.0106 36.3198 13.4879 37.336 14.9099 37.6686C15.3531 37.7611 15.6485 37.5393 15.667 37.0959C15.7409 35.6361 15.2238 33.9547 14.3927 32.8459C13.5618 31.7189 12.1583 30.6657 10.8841 30.2406ZM14.8361 24.6419C13.8018 23.755 12.1768 23.1267 10.7549 23.0159C10.2747 22.9974 9.99773 23.3116 10.0716 23.7919C10.3855 25.1963 11.3273 26.7298 12.3799 27.6353C13.4325 28.5961 15.1129 29.2244 16.5718 29.1874C16.9966 29.1689 17.2367 28.8548 17.1444 28.4483C16.8674 27.0624 15.944 25.5289 14.8361 24.6419ZM24.4571 21.5007C24.4018 20.9464 24.0509 20.7432 23.5708 20.9648C22.3334 21.4453 20.9854 22.5724 20.2284 23.755C19.4526 24.993 19.0648 26.7298 19.2126 28.0788C19.268 28.5222 19.6004 28.744 20.0252 28.6146C21.3732 28.2266 22.7582 27.118 23.4784 25.843C24.2171 24.5865 24.6234 22.8496 24.4571 21.5007ZM13.5433 16.6411C12.2691 16.1606 10.5148 16.1237 9.18518 16.5118C8.70506 16.678 8.55732 17.0291 8.81586 17.4542C9.51759 18.6367 10.9026 19.7639 12.2876 20.2996C13.6357 20.8725 15.427 20.8725 16.7565 20.3181C17.1444 20.1334 17.2737 19.7639 17.0335 19.3942C16.2948 18.1932 14.8914 17.103 13.5433 16.6411ZM21.5025 10.3587C21.281 9.91524 20.8747 9.84133 20.4869 10.1555C19.4896 11.0793 18.6217 12.613 18.3263 13.9804C18.0122 15.3661 18.2154 17.103 18.8433 18.3595C19.0648 18.7475 19.4343 18.8584 19.7667 18.5813C20.93 17.7497 21.8534 16.2162 22.0934 14.7933C22.3704 13.4445 22.1304 11.6706 21.5025 10.3587ZM9.24059 9.74894C7.85559 9.49026 6.11971 9.69351 4.86398 10.2478C4.40231 10.4511 4.30998 10.8576 4.64237 11.2456C5.54724 12.2989 7.07998 13.2227 8.48345 13.5368C9.88693 13.9065 11.6597 13.6847 12.8785 12.9271C13.2479 12.6869 13.3217 12.3358 13.0447 12.0032C12.1768 10.9315 10.6625 10.0261 9.24059 9.74894ZM16.2394 2.41333C15.9625 2.00682 15.5562 1.96986 15.2053 2.35789C14.319 3.46656 13.6542 5.07411 13.5618 6.44145C13.451 7.79032 13.9127 9.50874 14.6883 10.7283C14.9468 11.0978 15.3161 11.1348 15.6485 10.8206C16.6827 9.76743 17.3844 8.12292 17.4213 6.70013C17.5137 5.3328 17.0335 3.61437 16.2394 2.41333ZM3.99604 0.011239C3.4605 -0.0626715 3.1835 0.23297 3.23891 0.750344C3.4605 2.15464 4.23611 3.7622 5.17792 4.74152C6.15665 5.83169 7.76325 6.60776 9.20366 6.68166C9.64686 6.70013 9.88693 6.44145 9.84999 5.99798C9.68379 4.61216 8.9082 3.00461 7.91098 2.0253C6.93226 1.04599 5.38105 0.23297 3.99604 0.011239Z" fill="url(#paint0_linear_286_25305)"/>
</g>
<defs>
<linearGradient id="paint0_linear_286_25305" x1="12.2555" y1="0" x2="12.2555" y2="51.8455" gradientUnits="userSpaceOnUse">
<stop stop-color="#E6EAEB"/>
<stop offset="1" stop-color="#F3F7FB"/>
</linearGradient>
<clipPath id="clip0_286_25305">
<rect width="25" height="52" fill="white"/>
</clipPath>
</defs>
</svg>
