<svg width="25" height="24" viewBox="0 0 25 24" fill="none" xmlns="http://www.w3.org/2000/svg">
<g clip-path="url(#clip0_286_25000)">
<path d="M12.5469 10.6641H13.7188C14.1071 10.6641 14.4219 10.3493 14.4219 9.96094C14.4219 9.57262 14.1071 9.25781 13.7188 9.25781H12.5469C12.1586 9.25781 11.8438 9.57262 11.8438 9.96094C11.8438 10.3493 12.1586 10.6641 12.5469 10.6641Z" fill="#37766E"/>
<path d="M9.54688 9.25781H8.375C7.98669 9.25781 7.67188 9.57262 7.67188 9.96094C7.67188 10.3493 7.98669 10.6641 8.375 10.6641H9.54688C9.93519 10.6641 10.25 10.3493 10.25 9.96094C10.25 9.57262 9.93519 9.25781 9.54688 9.25781Z" fill="#37766E"/>
<path d="M16.7188 10.6641H17.8906C18.2789 10.6641 18.5938 10.3493 18.5938 9.96094C18.5938 9.57262 18.2789 9.25781 17.8906 9.25781H16.7188C16.3304 9.25781 16.0156 9.57262 16.0156 9.96094C16.0156 10.3493 16.3304 10.6641 16.7188 10.6641Z" fill="#37766E"/>
<path d="M5.375 12.4219H4.20312C3.81481 12.4219 3.5 12.7367 3.5 13.125C3.5 13.5133 3.81481 13.8281 4.20312 13.8281H5.375C5.76331 13.8281 6.07812 13.5133 6.07812 13.125C6.07812 12.7367 5.76331 12.4219 5.375 12.4219Z" fill="#37766E"/>
<path d="M9.54688 12.4219H8.375C7.98669 12.4219 7.67188 12.7367 7.67188 13.125C7.67188 13.5133 7.98669 13.8281 8.375 13.8281H9.54688C9.93519 13.8281 10.25 13.5133 10.25 13.125C10.25 12.7367 9.93519 12.4219 9.54688 12.4219Z" fill="#37766E"/>
<path d="M14.4219 13.125C14.4219 12.7367 14.1071 12.4219 13.7188 12.4219H12.5469C12.1586 12.4219 11.8438 12.7367 11.8438 13.125C11.8438 13.5133 12.1586 13.8281 12.5469 13.8281H13.7188C14.1071 13.8281 14.4219 13.5133 14.4219 13.125Z" fill="#37766E"/>
<path d="M5.375 15.5859H4.20312C3.81481 15.5859 3.5 15.9007 3.5 16.2891C3.5 16.6774 3.81481 16.9922 4.20312 16.9922H5.375C5.76331 16.9922 6.07812 16.6774 6.07812 16.2891C6.07812 15.9007 5.76331 15.5859 5.375 15.5859Z" fill="#37766E"/>
<path d="M9.54688 15.5859H8.375C7.98669 15.5859 7.67188 15.9007 7.67188 16.2891C7.67188 16.6774 7.98669 16.9922 8.375 16.9922H9.54688C9.93519 16.9922 10.25 16.6774 10.25 16.2891C10.25 15.9007 9.93519 15.5859 9.54688 15.5859Z" fill="#37766E"/>
<path d="M21.5938 13.0817V3.98438C21.5938 2.5628 20.4372 1.40625 19.0156 1.40625H17.6562V0.703125C17.6562 0.314812 17.3414 0 16.9531 0C16.5648 0 16.25 0.314812 16.25 0.703125V1.40625H13.7188V0.703125C13.7188 0.314812 13.4039 0 13.0156 0C12.6273 0 12.3125 0.314812 12.3125 0.703125V1.40625H9.78125V0.703125C9.78125 0.314812 9.46644 0 9.07812 0C8.68981 0 8.375 0.314812 8.375 0.703125V1.40625H5.84375V0.703125C5.84375 0.314812 5.52894 0 5.14062 0C4.75231 0 4.4375 0.314812 4.4375 0.703125V1.40625H3.07812C1.65655 1.40625 0.5 2.5628 0.5 3.98438V18.0469C0.5 19.21 1.44627 20.1562 2.60938 20.1562H13.1385C13.962 22.3971 16.1177 24 18.6406 24C21.8715 24 24.5 21.3715 24.5 18.1406C24.5 15.986 23.3308 14.0996 21.5938 13.0817ZM1.90625 3.98438C1.90625 3.3382 2.43195 2.8125 3.07812 2.8125H4.4375V3.51562C4.4375 3.90394 4.75231 4.21875 5.14062 4.21875C5.52894 4.21875 5.84375 3.90394 5.84375 3.51562V2.8125H8.375V3.51562C8.375 3.90394 8.68981 4.21875 9.07812 4.21875C9.46644 4.21875 9.78125 3.90394 9.78125 3.51562V2.8125H12.3125V3.51562C12.3125 3.90394 12.6273 4.21875 13.0156 4.21875C13.4039 4.21875 13.7188 3.90394 13.7188 3.51562V2.8125H16.25V3.51562C16.25 3.90394 16.5648 4.21875 16.9531 4.21875C17.3414 4.21875 17.6562 3.90394 17.6562 3.51562V2.8125H19.0156C19.6618 2.8125 20.1875 3.3382 20.1875 3.98438V6.09375H1.90625V3.98438ZM2.60938 18.75C2.22167 18.75 1.90625 18.4346 1.90625 18.0469V7.5H20.1875V12.4889C19.6945 12.3538 19.1759 12.2812 18.6406 12.2812C15.4098 12.2812 12.7812 14.9098 12.7812 18.1406C12.7812 18.3464 12.792 18.5497 12.8128 18.75H2.60938ZM18.6406 22.5938C16.1852 22.5938 14.1875 20.5961 14.1875 18.1406C14.1875 15.6852 16.1852 13.6875 18.6406 13.6875C21.0961 13.6875 23.0938 15.6852 23.0938 18.1406C23.0938 20.5961 21.0961 22.5938 18.6406 22.5938Z" fill="#37766E"/>
<path d="M20.9844 17.4375H19.3438V15.7969C19.3438 15.4086 19.0289 15.0938 18.6406 15.0938C18.2523 15.0938 17.9375 15.4086 17.9375 15.7969V18.1406C17.9375 18.5289 18.2523 18.8438 18.6406 18.8438H20.9844C21.3727 18.8438 21.6875 18.5289 21.6875 18.1406C21.6875 17.7523 21.3727 17.4375 20.9844 17.4375Z" fill="#37766E"/>
</g>
<defs>
<clipPath id="clip0_286_25000">
<rect width="24" height="24" fill="white" transform="translate(0.5)"/>
</clipPath>
</defs>
</svg>
