<svg width="25" height="24" viewBox="0 0 25 24" fill="none" xmlns="http://www.w3.org/2000/svg">
<path d="M21.7451 16.841C22.2974 16.841 22.7451 16.3933 22.7451 15.841C22.7451 15.2887 22.2974 14.841 21.7451 14.841C21.1928 14.841 20.7451 15.2887 20.7451 15.841C20.7451 16.3933 21.1928 16.841 21.7451 16.841Z" fill="#37766E"/>
<path d="M19.564 20.062C20.1162 20.062 20.564 19.6143 20.564 19.062C20.564 18.5097 20.1162 18.062 19.564 18.062C19.0117 18.062 18.564 18.5097 18.564 19.062C18.564 19.6143 19.0117 20.062 19.564 20.062Z" fill="#37766E"/>
<path d="M22.4971 13.004C23.0494 13.004 23.4971 12.5563 23.4971 12.004C23.4971 11.4517 23.0494 11.004 22.4971 11.004C21.9448 11.004 21.4971 11.4517 21.4971 12.004C21.4971 12.5563 21.9448 13.004 22.4971 13.004Z" fill="#37766E"/>
<path d="M16.3252 22.247C16.8775 22.247 17.3252 21.7993 17.3252 21.247C17.3252 20.6947 16.8775 20.247 16.3252 20.247C15.7729 20.247 15.3252 20.6947 15.3252 21.247C15.3252 21.7993 15.7729 22.247 16.3252 22.247Z" fill="#37766E"/>
<path d="M12.5001 21C11.0598 21.0017 9.64013 20.6578 8.36035 19.997C7.08058 19.3363 5.97807 18.378 5.14546 17.2028C4.31285 16.0276 3.77445 14.6697 3.57551 13.2432C3.37656 11.8167 3.52287 10.3633 4.00214 9.00513C4.48142 7.64692 5.27966 6.42358 6.3298 5.43788C7.37995 4.45218 8.65133 3.73291 10.0371 3.34049C11.4229 2.94808 12.8827 2.89398 14.2937 3.18276C15.7047 3.47153 17.0259 4.09473 18.1461 5H16.5001C16.2349 5 15.9805 5.10536 15.793 5.29289C15.6054 5.48043 15.5001 5.73478 15.5001 6C15.5001 6.26522 15.6054 6.51957 15.793 6.70711C15.9805 6.89464 16.2349 7 16.5001 7H20.5001C20.7653 7 21.0196 6.89464 21.2072 6.70711C21.3947 6.51957 21.5001 6.26522 21.5001 6V2C21.5001 1.73478 21.3947 1.48043 21.2072 1.29289C21.0196 1.10536 20.7653 1 20.5001 1C20.2349 1 19.9805 1.10536 19.793 1.29289C19.6054 1.48043 19.5001 1.73478 19.5001 2V3.531C18.1402 2.40675 16.5298 1.62627 14.8047 1.2555C13.0797 0.884729 11.2908 0.934553 9.58908 1.40076C7.88737 1.86697 6.32285 2.73587 5.02767 3.93407C3.73249 5.13228 2.74469 6.62458 2.14772 8.28494C1.55074 9.9453 1.36212 11.7249 1.59779 13.4736C1.83345 15.2222 2.48648 16.8884 3.50172 18.3315C4.51695 19.7745 5.86457 20.9521 7.43075 21.7647C8.99693 22.5772 10.7357 23.0009 12.5001 23C12.7653 23 13.0196 22.8946 13.2072 22.7071C13.3947 22.5196 13.5001 22.2652 13.5001 22C13.5001 21.7348 13.3947 21.4804 13.2072 21.2929C13.0196 21.1054 12.7653 21 12.5001 21Z" fill="#37766E"/>
<path d="M16.207 15.707C16.3945 15.5195 16.4998 15.2652 16.4998 15C16.4998 14.7348 16.3945 14.4805 16.207 14.293L13.5 11.586V6C13.5 5.73478 13.3946 5.48043 13.2071 5.29289C13.0196 5.10536 12.7652 5 12.5 5C12.2348 5 11.9804 5.10536 11.7929 5.29289C11.6054 5.48043 11.5 5.73478 11.5 6V12C11.5001 12.2652 11.6055 12.5195 11.793 12.707L14.793 15.707C14.9805 15.8945 15.2348 15.9998 15.5 15.9998C15.7652 15.9998 16.0195 15.8945 16.207 15.707Z" fill="#37766E"/>
</svg>
