<svg width="96" height="16" viewBox="0 0 96 16" fill="none" xmlns="http://www.w3.org/2000/svg">
<g clip-path="url(#clip0_286_25296)">
<path d="M7.63067 1.288C7.76731 0.95948 8.23269 0.959479 8.36933 1.288L10.0222 5.26198C10.0798 5.40047 10.21 5.4951 10.3596 5.50709L14.6498 5.85103C15.0045 5.87947 15.1483 6.32207 14.8781 6.55354L11.6094 9.35354C11.4954 9.45112 11.4457 9.60423 11.4805 9.75014L12.4791 13.9367C12.5617 14.2828 12.1852 14.5563 11.8816 14.3709L8.2085 12.1274C8.0805 12.0492 7.9195 12.0492 7.7915 12.1274L4.11845 14.3709C3.81481 14.5563 3.43831 14.2828 3.52086 13.9367L4.51951 9.75014C4.55431 9.60423 4.50456 9.45112 4.39065 9.35354L1.12193 6.55354C0.851716 6.32207 0.995526 5.87947 1.35019 5.85103L5.64044 5.50709C5.78995 5.4951 5.9202 5.40047 5.9778 5.26198L7.63067 1.288Z" fill="#F2F4F7"/>
<g clip-path="url(#clip1_286_25296)">
<path d="M7.63067 1.288C7.76731 0.95948 8.23269 0.959479 8.36933 1.288L10.0222 5.26198C10.0798 5.40047 10.21 5.4951 10.3596 5.50709L14.6498 5.85103C15.0045 5.87947 15.1483 6.32207 14.8781 6.55354L11.6094 9.35354C11.4954 9.45112 11.4457 9.60423 11.4805 9.75014L12.4791 13.9367C12.5617 14.2828 12.1852 14.5563 11.8816 14.3709L8.2085 12.1274C8.0805 12.0492 7.9195 12.0492 7.7915 12.1274L4.11845 14.3709C3.81481 14.5563 3.43831 14.2828 3.52086 13.9367L4.51951 9.75014C4.55431 9.60423 4.50456 9.45112 4.39065 9.35354L1.12193 6.55354C0.851716 6.32207 0.995526 5.87947 1.35019 5.85103L5.64044 5.50709C5.78995 5.4951 5.9202 5.40047 5.9778 5.26198L7.63067 1.288Z" fill="#FDB022"/>
</g>
</g>
<g clip-path="url(#clip2_286_25296)">
<path d="M27.6307 1.288C27.7673 0.95948 28.2327 0.959479 28.3693 1.288L30.0222 5.26198C30.0798 5.40047 30.21 5.4951 30.3596 5.50709L34.6498 5.85103C35.0045 5.87947 35.1483 6.32207 34.8781 6.55354L31.6094 9.35354C31.4954 9.45112 31.4457 9.60423 31.4805 9.75014L32.4791 13.9367C32.5617 14.2828 32.1852 14.5563 31.8816 14.3709L28.2085 12.1274C28.0805 12.0492 27.9195 12.0492 27.7915 12.1274L24.1184 14.3709C23.8148 14.5563 23.4383 14.2828 23.5209 13.9367L24.5195 9.75014C24.5543 9.60423 24.5046 9.45112 24.3906 9.35354L21.1219 6.55354C20.8517 6.32207 20.9955 5.87947 21.3502 5.85103L25.6404 5.50709C25.79 5.4951 25.9202 5.40047 25.9778 5.26198L27.6307 1.288Z" fill="#F2F4F7"/>
<g clip-path="url(#clip3_286_25296)">
<path d="M27.6307 1.288C27.7673 0.95948 28.2327 0.959479 28.3693 1.288L30.0222 5.26198C30.0798 5.40047 30.21 5.4951 30.3596 5.50709L34.6498 5.85103C35.0045 5.87947 35.1483 6.32207 34.8781 6.55354L31.6094 9.35354C31.4954 9.45112 31.4457 9.60423 31.4805 9.75014L32.4791 13.9367C32.5617 14.2828 32.1852 14.5563 31.8816 14.3709L28.2085 12.1274C28.0805 12.0492 27.9195 12.0492 27.7915 12.1274L24.1184 14.3709C23.8148 14.5563 23.4383 14.2828 23.5209 13.9367L24.5195 9.75014C24.5543 9.60423 24.5046 9.45112 24.3906 9.35354L21.1219 6.55354C20.8517 6.32207 20.9955 5.87947 21.3502 5.85103L25.6404 5.50709C25.79 5.4951 25.9202 5.40047 25.9778 5.26198L27.6307 1.288Z" fill="#FDB022"/>
</g>
</g>
<g clip-path="url(#clip4_286_25296)">
<path d="M47.6307 1.288C47.7673 0.95948 48.2327 0.959479 48.3693 1.288L50.0222 5.26198C50.0798 5.40047 50.21 5.4951 50.3596 5.50709L54.6498 5.85103C55.0045 5.87947 55.1483 6.32207 54.8781 6.55354L51.6094 9.35354C51.4954 9.45112 51.4457 9.60423 51.4805 9.75014L52.4791 13.9367C52.5617 14.2828 52.1852 14.5563 51.8816 14.3709L48.2085 12.1274C48.0805 12.0492 47.9195 12.0492 47.7915 12.1274L44.1184 14.3709C43.8148 14.5563 43.4383 14.2828 43.5209 13.9367L44.5195 9.75014C44.5543 9.60423 44.5046 9.45112 44.3906 9.35354L41.1219 6.55354C40.8517 6.32207 40.9955 5.87947 41.3502 5.85103L45.6404 5.50709C45.79 5.4951 45.9202 5.40047 45.9778 5.26198L47.6307 1.288Z" fill="#F2F4F7"/>
<g clip-path="url(#clip5_286_25296)">
<path d="M47.6307 1.288C47.7673 0.95948 48.2327 0.959479 48.3693 1.288L50.0222 5.26198C50.0798 5.40047 50.21 5.4951 50.3596 5.50709L54.6498 5.85103C55.0045 5.87947 55.1483 6.32207 54.8781 6.55354L51.6094 9.35354C51.4954 9.45112 51.4457 9.60423 51.4805 9.75014L52.4791 13.9367C52.5617 14.2828 52.1852 14.5563 51.8816 14.3709L48.2085 12.1274C48.0805 12.0492 47.9195 12.0492 47.7915 12.1274L44.1184 14.3709C43.8148 14.5563 43.4383 14.2828 43.5209 13.9367L44.5195 9.75014C44.5543 9.60423 44.5046 9.45112 44.3906 9.35354L41.1219 6.55354C40.8517 6.32207 40.9955 5.87947 41.3502 5.85103L45.6404 5.50709C45.79 5.4951 45.9202 5.40047 45.9778 5.26198L47.6307 1.288Z" fill="#FDB022"/>
</g>
</g>
<g clip-path="url(#clip6_286_25296)">
<path d="M67.6307 1.288C67.7673 0.95948 68.2327 0.959479 68.3693 1.288L70.0222 5.26198C70.0798 5.40047 70.21 5.4951 70.3596 5.50709L74.6498 5.85103C75.0045 5.87947 75.1483 6.32207 74.8781 6.55354L71.6094 9.35354C71.4954 9.45112 71.4457 9.60423 71.4805 9.75014L72.4791 13.9367C72.5617 14.2828 72.1852 14.5563 71.8816 14.3709L68.2085 12.1274C68.0805 12.0492 67.9195 12.0492 67.7915 12.1274L64.1184 14.3709C63.8148 14.5563 63.4383 14.2828 63.5209 13.9367L64.5195 9.75014C64.5543 9.60423 64.5046 9.45112 64.3906 9.35354L61.1219 6.55354C60.8517 6.32207 60.9955 5.87947 61.3502 5.85103L65.6404 5.50709C65.79 5.4951 65.9202 5.40047 65.9778 5.26198L67.6307 1.288Z" fill="#F2F4F7"/>
<g clip-path="url(#clip7_286_25296)">
<path d="M67.6307 1.288C67.7673 0.95948 68.2327 0.959479 68.3693 1.288L70.0222 5.26198C70.0798 5.40047 70.21 5.4951 70.3596 5.50709L74.6498 5.85103C75.0045 5.87947 75.1483 6.32207 74.8781 6.55354L71.6094 9.35354C71.4954 9.45112 71.4457 9.60423 71.4805 9.75014L72.4791 13.9367C72.5617 14.2828 72.1852 14.5563 71.8816 14.3709L68.2085 12.1274C68.0805 12.0492 67.9195 12.0492 67.7915 12.1274L64.1184 14.3709C63.8148 14.5563 63.4383 14.2828 63.5209 13.9367L64.5195 9.75014C64.5543 9.60423 64.5046 9.45112 64.3906 9.35354L61.1219 6.55354C60.8517 6.32207 60.9955 5.87947 61.3502 5.85103L65.6404 5.50709C65.79 5.4951 65.9202 5.40047 65.9778 5.26198L67.6307 1.288Z" fill="#FDB022"/>
</g>
</g>
<g clip-path="url(#clip8_286_25296)">
<path d="M87.6307 1.288C87.7673 0.95948 88.2327 0.959479 88.3693 1.288L90.0222 5.26198C90.0798 5.40047 90.21 5.4951 90.3596 5.50709L94.6498 5.85103C95.0045 5.87947 95.1483 6.32207 94.8781 6.55354L91.6094 9.35354C91.4954 9.45112 91.4457 9.60423 91.4805 9.75014L92.4791 13.9367C92.5617 14.2828 92.1852 14.5563 91.8816 14.3709L88.2085 12.1274C88.0805 12.0492 87.9195 12.0492 87.7915 12.1274L84.1184 14.3709C83.8148 14.5563 83.4383 14.2828 83.5209 13.9367L84.5195 9.75014C84.5543 9.60423 84.5046 9.45112 84.3906 9.35354L81.1219 6.55354C80.8517 6.32207 80.9955 5.87947 81.3502 5.85103L85.6404 5.50709C85.79 5.4951 85.9202 5.40047 85.9778 5.26198L87.6307 1.288Z" fill="#F2F4F7"/>
<g clip-path="url(#clip9_286_25296)">
<path d="M87.6307 1.288C87.7673 0.95948 88.2327 0.959479 88.3693 1.288L90.0222 5.26198C90.0798 5.40047 90.21 5.4951 90.3596 5.50709L94.6498 5.85103C95.0045 5.87947 95.1483 6.32207 94.8781 6.55354L91.6094 9.35354C91.4954 9.45112 91.4457 9.60423 91.4805 9.75014L92.4791 13.9367C92.5617 14.2828 92.1852 14.5563 91.8816 14.3709L88.2085 12.1274C88.0805 12.0492 87.9195 12.0492 87.7915 12.1274L84.1184 14.3709C83.8148 14.5563 83.4383 14.2828 83.5209 13.9367L84.5195 9.75014C84.5543 9.60423 84.5046 9.45112 84.3906 9.35354L81.1219 6.55354C80.8517 6.32207 80.9955 5.87947 81.3502 5.85103L85.6404 5.50709C85.79 5.4951 85.9202 5.40047 85.9778 5.26198L87.6307 1.288Z" fill="#FDB022"/>
</g>
</g>
<defs>
<clipPath id="clip0_286_25296">
<rect width="16" height="16" fill="white"/>
</clipPath>
<clipPath id="clip1_286_25296">
<rect width="16" height="16" fill="white"/>
</clipPath>
<clipPath id="clip2_286_25296">
<rect width="16" height="16" fill="white" transform="translate(20)"/>
</clipPath>
<clipPath id="clip3_286_25296">
<rect width="16" height="16" fill="white" transform="translate(20)"/>
</clipPath>
<clipPath id="clip4_286_25296">
<rect width="16" height="16" fill="white" transform="translate(40)"/>
</clipPath>
<clipPath id="clip5_286_25296">
<rect width="16" height="16" fill="white" transform="translate(40)"/>
</clipPath>
<clipPath id="clip6_286_25296">
<rect width="16" height="16" fill="white" transform="translate(60)"/>
</clipPath>
<clipPath id="clip7_286_25296">
<rect width="16" height="16" fill="white" transform="translate(60)"/>
</clipPath>
<clipPath id="clip8_286_25296">
<rect width="16" height="16" fill="white" transform="translate(80)"/>
</clipPath>
<clipPath id="clip9_286_25296">
<rect width="16" height="16" fill="white" transform="translate(80)"/>
</clipPath>
</defs>
</svg>
