<svg width="25" height="24" viewBox="0 0 25 24" fill="none" xmlns="http://www.w3.org/2000/svg">
<path fill-rule="evenodd" clip-rule="evenodd" d="M16.375 13.78L11.586 10.947C11.148 10.688 10.605 10.684 10.162 10.936C9.72002 11.188 9.44702 11.658 9.44702 12.167V17.833C9.44702 18.342 9.72002 18.812 10.162 19.064C10.605 19.316 11.148 19.312 11.586 19.053L16.375 16.22C16.806 15.965 17.071 15.501 17.071 15C17.071 14.499 16.806 14.035 16.375 13.78ZM10.947 17.688L15.491 15L10.947 12.312V17.688Z" fill="#37766E"/>
<path fill-rule="evenodd" clip-rule="evenodd" d="M1.75 4.222V19.778C1.75 20.566 2.063 21.322 2.621 21.879C3.178 22.437 3.934 22.75 4.722 22.75H20.278C21.066 22.75 21.822 22.437 22.379 21.879C22.937 21.322 23.25 20.566 23.25 19.778C23.25 15.727 23.25 5.769 23.25 4.222C23.25 3.434 22.937 2.678 22.379 2.121C21.822 1.563 21.066 1.25 20.278 1.25C16.43 1.25 8.57 1.25 4.722 1.25C3.934 1.25 3.178 1.563 2.621 2.121C2.063 2.678 1.75 3.434 1.75 4.222ZM3.25 4.222C3.25 3.832 3.405 3.457 3.681 3.181C3.957 2.905 4.332 2.75 4.722 2.75H20.278C20.668 2.75 21.043 2.905 21.319 3.181C21.595 3.457 21.75 3.832 21.75 4.222V19.778C21.75 20.168 21.595 20.543 21.319 20.819C21.043 21.095 20.668 21.25 20.278 21.25H4.722C4.332 21.25 3.957 21.095 3.681 20.819C3.405 20.543 3.25 20.168 3.25 19.778V4.222Z" fill="#37766E"/>
<path fill-rule="evenodd" clip-rule="evenodd" d="M2.5 8.75H22.5C22.914 8.75 23.25 8.414 23.25 8C23.25 7.586 22.914 7.25 22.5 7.25H2.5C2.086 7.25 1.75 7.586 1.75 8C1.75 8.414 2.086 8.75 2.5 8.75Z" fill="#37766E"/>
<path d="M5.5 6C6.05228 6 6.5 5.55228 6.5 5C6.5 4.44772 6.05228 4 5.5 4C4.94772 4 4.5 4.44772 4.5 5C4.5 5.55228 4.94772 6 5.5 6Z" fill="#37766E"/>
<path d="M8.5 6C9.05228 6 9.5 5.55228 9.5 5C9.5 4.44772 9.05228 4 8.5 4C7.94772 4 7.5 4.44772 7.5 5C7.5 5.55228 7.94772 6 8.5 6Z" fill="#37766E"/>
<path d="M11.5 6C12.0523 6 12.5 5.55228 12.5 5C12.5 4.44772 12.0523 4 11.5 4C10.9477 4 10.5 4.44772 10.5 5C10.5 5.55228 10.9477 6 11.5 6Z" fill="#37766E"/>
</svg>
