<svg width="25" height="24" viewBox="0 0 25 24" fill="none" xmlns="http://www.w3.org/2000/svg">
<g clip-path="url(#clip0_286_24983)">
<path d="M14.75 4.5H5.75C5.336 4.5 5 4.836 5 5.25C5 5.664 5.336 6 5.75 6H14.75C15.164 6 15.5 5.664 15.5 5.25C15.5 4.836 15.164 4.5 14.75 4.5Z" fill="#37766E"/>
<path d="M11.75 7.5H5.75C5.336 7.5 5 7.836 5 8.25C5 8.664 5.336 9 5.75 9H11.75C12.164 9 12.5 8.664 12.5 8.25C12.5 7.836 12.164 7.5 11.75 7.5Z" fill="#37766E"/>
<path d="M17 0H3.5C1.8455 0 0.5 1.3455 0.5 3V18C0.5 18.291 0.668 18.5565 0.932 18.6795C1.0325 18.726 1.142 18.75 1.25 18.75C1.4225 18.75 1.5935 18.69 1.73 18.576L6.0215 15H17C18.6545 15 20 13.6545 20 12V3C20 1.3455 18.6545 0 17 0ZM18.5 12C18.5 12.8265 17.828 13.5 17 13.5H5.75C5.5745 13.5 5.405 13.5615 5.27 13.674L2 16.3995V3C2 2.1735 2.672 1.5 3.5 1.5H17C17.828 1.5 18.5 2.1735 18.5 3V12Z" fill="#37766E"/>
<path d="M21.5 6C21.086 6 20.75 6.336 20.75 6.75C20.75 7.164 21.086 7.5 21.5 7.5C22.328 7.5 23 8.1735 23 9V21.6885L20.468 19.6635C20.336 19.5585 20.1695 19.5 20 19.5H9.5C8.672 19.5 8 18.8265 8 18V17.25C8 16.836 7.664 16.5 7.25 16.5C6.836 16.5 6.5 16.836 6.5 17.25V18C6.5 19.6545 7.8455 21 9.5 21H19.736L23.2805 23.8365C23.417 23.9445 23.5835 24 23.75 24C23.8595 24 23.9705 23.976 24.0755 23.9265C24.335 23.8005 24.5 23.538 24.5 23.25V9C24.5 7.3455 23.1545 6 21.5 6Z" fill="#37766E"/>
</g>
<defs>
<clipPath id="clip0_286_24983">
<rect width="24" height="24" fill="white" transform="translate(0.5)"/>
</clipPath>
</defs>
</svg>
