<svg width="32" height="32" viewBox="0 0 32 32" fill="none" xmlns="http://www.w3.org/2000/svg">
<g clip-path="url(#clip0_286_25180)">
<path d="M26.0127 3.34375V28.6562C26.0127 30.2444 24.7271 31.5312 23.1414 31.5312H8.91268C7.32768 31.5312 6.04205 30.2444 6.04205 28.6562V3.34375C6.04205 1.75563 7.32768 0.46875 8.91268 0.46875H23.1414C24.7271 0.46875 26.0127 1.75563 26.0127 3.34375Z" fill="#37766E"/>
<path d="M26.0127 3.34375V28.6562C26.0127 30.2444 24.7271 31.5312 23.1414 31.5312H21.8914C23.4771 31.5312 24.7627 30.2444 24.7627 28.6562V3.34375C24.7627 1.75563 23.4771 0.46875 21.8914 0.46875H23.1414C24.7271 0.46875 26.0127 1.75563 26.0127 3.34375Z" fill="#275852"/>
<path d="M24.1402 3.26625V28.7337C24.1402 29.295 23.6858 29.75 23.1258 29.75H8.92893C8.3683 29.75 7.91455 29.295 7.91455 28.7337V3.26625C7.91455 2.705 8.3683 2.25 8.92893 2.25H10.4108L10.7777 3.38937C10.9308 3.865 11.3727 4.1875 11.8721 4.1875H20.1827C20.6814 4.1875 21.1239 3.865 21.2771 3.38937L21.6439 2.25H23.1258C23.6858 2.25 24.1402 2.705 24.1402 3.26625Z" fill="#D9F0F4"/>
<path d="M24.1402 3.26625V28.7337C24.1402 29.295 23.6858 29.75 23.1258 29.75H21.8758C22.4358 29.75 22.8902 29.295 22.8902 28.7337V3.26625C22.8902 2.705 22.4358 2.25 21.8758 2.25H23.1258C23.6858 2.25 24.1402 2.705 24.1402 3.26625Z" fill="#BAE1E5"/>
<path d="M10.3008 7.54375V12.27C10.3008 12.8025 9.86956 13.2344 9.33769 13.2344H3.10081L0.503937 15.21V7.54375C0.503937 7.01125 0.935187 6.57938 1.46706 6.57938H9.33769C9.86956 6.57938 10.3008 7.01125 10.3008 7.54375Z" fill="#CED2D8"/>
<path d="M10.3008 7.54375V12.27C10.3008 12.8025 9.86955 13.2344 9.33768 13.2344H8.08768C8.61955 13.2344 9.0508 12.8025 9.0508 12.27V7.54375C9.0508 7.01125 8.61955 6.57938 8.08768 6.57938H9.33768C9.86955 6.57938 10.3008 7.01125 10.3008 7.54375Z" fill="#9DA4B0"/>
<path d="M31.5313 13.5912V23.1744L30.2813 22.7325L26.2245 21.2994V15.4662L30.2813 14.0331L31.5313 13.5912Z" fill="#B4C4C4"/>
<path d="M31.5313 13.5912V23.1744L30.2813 22.7325V14.0331L31.5313 13.5912Z" fill="#91A1A1"/>
<path d="M26.2245 13.2894V23.4756C26.2245 23.9994 25.8001 24.4244 25.2758 24.4244H13.8364C13.3126 24.4244 12.8876 23.9994 12.8876 23.4756V13.2894C12.8876 12.7656 13.3126 12.3412 13.8364 12.3412H25.2758C25.8001 12.3412 26.2245 12.7656 26.2245 13.2894Z" fill="#B4C4C4"/>
<path d="M26.2245 13.2894V23.4756C26.2245 23.9994 25.8001 24.4244 25.2758 24.4244H24.0258C24.5501 24.4244 24.9745 23.9994 24.9745 23.4756V13.2894C24.9745 12.7656 24.5501 12.3412 24.0264 12.3412H25.2758C25.8001 12.3412 26.2245 12.7656 26.2245 13.2894Z" fill="#91A1A1"/>
<path d="M17.9299 15.9879V20.7773L21.9107 18.3826L17.9299 15.9879Z" fill="white"/>
<path d="M5.54581 15.1059V24.5913C5.54581 24.8502 5.75562 25.0601 6.01456 25.0601C6.27349 25.0601 6.48331 24.8502 6.48331 24.5913V15.1059C6.48331 14.847 6.27349 14.6371 6.01456 14.6371C5.75562 14.6371 5.54581 14.847 5.54581 15.1059Z" fill="black"/>
<path d="M26.0125 25.8309C25.7536 25.8309 25.5437 26.0408 25.5437 26.2997V28.6562C25.5437 29.9831 24.4644 31.0625 23.1378 31.0625H8.88931C7.56262 31.0625 6.48337 29.9831 6.48337 28.6562V26.8042C6.48337 26.5454 6.27356 26.3355 6.01462 26.3355C5.75568 26.3355 5.54587 26.5454 5.54587 26.8042V28.6562C5.54587 30.5 7.04574 32 8.88931 32H23.1379C24.9814 32 26.4813 30.5 26.4813 28.6562V26.2996C26.4812 26.0408 26.2714 25.8309 26.0125 25.8309Z" fill="black"/>
<path d="M6.01456 5.17331C6.27349 5.17331 6.48331 4.96344 6.48331 4.70456V3.34375C6.48331 2.01694 7.56262 0.9375 8.88924 0.9375H23.1378C24.4645 0.9375 25.5437 2.01694 25.5437 3.34375V10.5659C25.5437 10.8247 25.7536 11.0346 26.0125 11.0346C26.2714 11.0346 26.4812 10.8247 26.4812 10.5659V3.34375C26.4812 1.5 24.9814 0 23.1378 0H8.88931C7.04574 0 5.54587 1.5 5.54587 3.34375V4.70456C5.54581 4.9635 5.75568 5.17331 6.01456 5.17331Z" fill="black"/>
<path d="M24.1377 11.0346C24.3966 11.0346 24.6064 10.8247 24.6064 10.5659V3.26594C24.6064 2.44725 23.9404 1.78125 23.1218 1.78125H21.6379C21.4345 1.78125 21.2542 1.9125 21.1918 2.10613L20.8242 3.24563C20.7329 3.52863 20.4719 3.71875 20.1745 3.71875H11.8525C11.5552 3.71875 11.2941 3.52863 11.2027 3.24556L10.8352 2.10613C10.7727 1.9125 10.5925 1.78125 10.3891 1.78125H8.90519C8.08656 1.78125 7.42062 2.44731 7.42062 3.26594V4.70456C7.42062 4.96344 7.63044 5.17331 7.88937 5.17331C8.14831 5.17331 8.35812 4.96344 8.35812 4.70456V3.26594C8.35812 2.96419 8.60356 2.71875 8.90519 2.71875H10.0477L10.3105 3.53338C10.5272 4.205 11.1469 4.65625 11.8525 4.65625H20.1746C20.8802 4.65625 21.4999 4.205 21.7165 3.53338L21.9792 2.71875H23.1218C23.4235 2.71875 23.6689 2.96425 23.6689 3.26594V10.5658C23.6689 10.8247 23.8788 11.0346 24.1377 11.0346Z" fill="black"/>
<path d="M8.35812 28.734V15.1125C8.35812 14.8537 8.14831 14.6438 7.88937 14.6438C7.63044 14.6438 7.42062 14.8537 7.42062 15.1125V28.734C7.42062 29.5527 8.08656 30.2187 8.90519 30.2187H23.1218C23.9404 30.2187 24.6064 29.5526 24.6064 28.734V26.3025C24.6064 26.0436 24.3966 25.8337 24.1377 25.8337C23.8787 25.8337 23.6689 26.0436 23.6689 26.3025V28.734C23.6689 29.0358 23.4235 29.2812 23.1218 29.2812H8.90519C8.60356 29.2812 8.35812 29.0357 8.35812 28.734Z" fill="black"/>
<path d="M18.5555 2.81163C18.8144 2.81163 19.0242 2.60176 19.0242 2.34288C19.0242 2.08401 18.8144 1.87413 18.5555 1.87413H13.4716C13.2126 1.87413 13.0028 2.08401 13.0028 2.34288C13.0028 2.60176 13.2126 2.81163 13.4716 2.81163H18.5555Z" fill="black"/>
<path d="M18.5555 28.0452C18.8144 28.0452 19.0242 27.8353 19.0242 27.5764C19.0242 27.3176 18.8144 27.1077 18.5555 27.1077H13.4716C13.2126 27.1077 13.0028 27.3176 13.0028 27.5764C13.0028 27.8353 13.2126 28.0452 13.4716 28.0452H18.5555Z" fill="black"/>
<path d="M10.7479 12.2699V7.54387C10.7479 6.75368 10.1051 6.11081 9.31494 6.11081H4.60544C4.3465 6.11081 4.13669 6.32068 4.13669 6.57956C4.13669 6.83843 4.3465 7.04831 4.60544 7.04831H9.315C9.58819 7.04831 9.81044 7.27062 9.81044 7.54387V12.2699C9.81044 12.5432 9.58819 12.7655 9.315 12.7655H3.06944C2.967 12.7655 2.86744 12.7991 2.78588 12.861L0.9375 14.2654V7.54387C0.9375 7.27062 1.15975 7.04831 1.43294 7.04831H2.44812C2.70706 7.04831 2.91687 6.83843 2.91687 6.57956C2.91687 6.32068 2.70706 6.11081 2.44812 6.11081H1.43294C0.642812 6.11081 0 6.75368 0 7.54387V15.2102C0 15.3883 0.100875 15.551 0.260437 15.6302C0.326437 15.6629 0.397687 15.679 0.468688 15.679C0.56925 15.679 0.669187 15.6466 0.752312 15.5835L3.22738 13.7031H9.31494C10.1051 13.703 10.7479 13.0601 10.7479 12.2699Z" fill="black"/>
<path d="M8.34243 8.80901C8.34243 8.55013 8.13261 8.34026 7.87368 8.34026H2.87418C2.61524 8.34026 2.40543 8.55013 2.40543 8.80901C2.40543 9.06788 2.61524 9.27776 2.87418 9.27776H7.87361C8.13255 9.27776 8.34243 9.06788 8.34243 8.80901Z" fill="black"/>
<path d="M2.87418 10.4652C2.61524 10.4652 2.40543 10.6751 2.40543 10.934C2.40543 11.1929 2.61524 11.4027 2.87418 11.4027H7.24868C7.50761 11.4027 7.71743 11.1929 7.71743 10.934C7.71743 10.6751 7.50761 10.4652 7.24868 10.4652H2.87418Z" fill="black"/>
<path d="M31.5313 19.2419C31.7902 19.2419 32 19.0321 32 18.7732V13.591C32 13.4388 31.9261 13.2961 31.8019 13.2083C31.6777 13.1204 31.5186 13.0983 31.3751 13.149L26.6934 14.8032V13.2895C26.6934 12.508 26.0574 11.8722 25.2758 11.8722H17.89C17.6311 11.8722 17.4213 12.0821 17.4213 12.3409C17.4213 12.5998 17.6311 12.8097 17.89 12.8097H25.2758C25.5405 12.8097 25.7559 13.0249 25.7559 13.2895V23.4756C25.7559 23.7402 25.5406 23.9554 25.2758 23.9554H13.8364C13.5718 23.9554 13.3564 23.7402 13.3564 23.4756V13.2896C13.3564 13.025 13.5717 12.8098 13.8364 12.8098H15.7189C15.9778 12.8098 16.1876 12.5999 16.1876 12.341C16.1876 12.0821 15.9778 11.8723 15.7189 11.8723H13.8364C13.0548 11.8723 12.4189 12.5081 12.4189 13.2896V23.4756C12.4189 24.2571 13.0548 24.8929 13.8364 24.8929H25.2758C26.0574 24.8929 26.6934 24.2571 26.6934 23.4756V21.9619L31.3751 23.6161C31.4259 23.6341 31.4787 23.6429 31.5312 23.6429C31.6269 23.6429 31.7217 23.6136 31.8019 23.5569C31.9261 23.469 32 23.3263 32 23.1741V20.9842C32 20.7253 31.7902 20.5154 31.5313 20.5154C31.2723 20.5154 31.0625 20.7253 31.0625 20.9842V22.5113L26.6934 20.9676V15.7975L31.0625 14.2538V18.7731C31.0625 19.0321 31.2723 19.2419 31.5313 19.2419Z" fill="black"/>
<path d="M17.9299 21.246C18.0136 21.246 18.0972 21.2236 18.1715 21.179L22.1523 18.7843C22.2932 18.6995 22.3794 18.5471 22.3794 18.3826C22.3794 18.2181 22.2932 18.0657 22.1523 17.9809L18.1715 15.5862C18.0267 15.4991 17.8462 15.4966 17.6991 15.5798C17.552 15.663 17.4611 15.8189 17.4611 15.9879V20.7773C17.4611 20.9463 17.552 21.1021 17.6991 21.1853C17.7708 21.2258 17.8503 21.246 17.9299 21.246ZM18.3986 16.8169L21.0014 18.3826L18.3986 19.9483V16.8169Z" fill="black"/>
<path d="M21.3559 8.67882H19.3442C19.0853 8.67882 18.8755 8.88869 18.8755 9.14757C18.8755 9.40644 19.0853 9.61632 19.3442 9.61632H21.3559C21.6149 9.61632 21.8247 9.40644 21.8247 9.14757C21.8247 8.88869 21.6149 8.67882 21.3559 8.67882Z" fill="black"/>
<path d="M21.3559 6.49132H18.0944C17.8354 6.49132 17.6256 6.70119 17.6256 6.96007C17.6256 7.21894 17.8354 7.42882 18.0944 7.42882H21.3559C21.6149 7.42882 21.8247 7.21894 21.8247 6.96007C21.8247 6.70119 21.6149 6.49132 21.3559 6.49132Z" fill="black"/>
</g>
<defs>
<clipPath id="clip0_286_25180">
<rect width="32" height="32" fill="white"/>
</clipPath>
</defs>
</svg>
