<svg width="25" height="24" viewBox="0 0 25 24" fill="none" xmlns="http://www.w3.org/2000/svg">
<path fill-rule="evenodd" clip-rule="evenodd" d="M3.5 3C2.94772 3 2.5 3.44772 2.5 4V20C2.5 20.5523 2.94772 21 3.5 21H21.5C22.0523 21 22.5 20.5523 22.5 20V4C22.5 3.44772 22.0523 3 21.5 3H3.5ZM4 8.5V15H21V8.5H4ZM4 7H5.5V4.5H4V7ZM21 7H19.5V4.5H21V7ZM18 4.5V7H15.5V4.5H18ZM11 7H14V4.5H11V7ZM9.5 4.5V7H7V4.5H9.5ZM4 19.5V16.5H5.5V19.5H4ZM19.5 19.5H21V16.5H19.5V19.5ZM18 19.5V16.5H15.5V19.5H18ZM14 19.5H11V16.5H14V19.5ZM9.5 19.5V16.5H7V19.5H9.5Z" fill="#37766E"/>
</svg>
