<svg width="25" height="24" viewBox="0 0 25 24" fill="none" xmlns="http://www.w3.org/2000/svg">
<g clip-path="url(#clip0_286_24956)">
<path d="M13.9818 12.5154C14.3292 12.8628 14.791 13.0541 15.2822 13.0541H17.9152C18.9293 13.0541 19.7542 12.2291 19.7542 11.2151C19.7542 10.201 18.9292 9.37602 17.9152 9.37602H16.044L15.4926 8.82465C16.2774 8.28697 16.7794 7.38502 16.7794 6.38282C16.7794 4.75134 15.4521 3.42395 13.8206 3.42395C11.9346 3.42395 10.5273 5.17155 10.9295 7.01757H9.27384C8.78268 7.01757 8.32083 7.20889 7.97349 7.55627L5.77274 9.75697C5.05404 10.4756 5.05385 11.639 5.77274 12.3578C6.48985 13.0748 7.65658 13.0747 8.37349 12.3577L10.0356 10.6956H10.4063L9.2575 15.1604L7.95579 14.6743C7.00573 14.3197 5.94443 14.8041 5.58974 15.754C5.23419 16.7061 5.71703 17.7646 6.66937 18.1201L9.89868 19.3258C10.9264 19.7096 12.0649 19.1113 12.3277 18.0419L12.4977 17.3502L15.9596 20.8121C16.6767 21.5291 17.8433 21.5291 18.5604 20.8121C19.2773 20.0951 19.2773 18.9283 18.5604 18.2113L13.5796 13.2306L13.7898 12.3233L13.9818 12.5154ZM12.2691 13.9719L17.5344 19.2371C17.6858 19.3885 17.6858 19.6348 17.5345 19.7861C17.3827 19.9378 17.1372 19.9378 16.9855 19.7861L12.6134 15.4141C12.2132 15.0139 11.5305 15.207 11.396 15.7539L10.9188 17.6955C10.8632 17.9218 10.6226 18.0473 10.4061 17.9665L7.17683 16.7608C6.97589 16.6858 6.87389 16.4625 6.94895 16.2614C7.02381 16.0609 7.24782 15.9588 7.44838 16.0335L9.5054 16.8015C9.90941 16.9522 10.3544 16.7193 10.4617 16.3027L12.0445 10.1509C12.1625 9.69246 11.8159 9.24472 11.342 9.24472H9.73517C9.54278 9.24472 9.35828 9.32113 9.22224 9.45722L7.34764 11.3318C7.19632 11.4832 6.95006 11.4831 6.79869 11.3318C6.64698 11.1801 6.64698 10.9346 6.79869 10.7828L8.99944 8.58212C9.0728 8.50875 9.17025 8.46837 9.27389 8.46837H12.0496C12.6503 8.46837 12.991 7.77694 12.6246 7.30063C11.8676 6.31656 12.5692 4.87475 13.8206 4.87475C14.6521 4.87475 15.3286 5.55124 15.3286 6.38277C15.3286 7.10965 14.8107 7.73298 14.0971 7.86491C13.5279 7.9702 13.2973 8.68116 13.7137 9.09756L15.2305 10.6143C15.3666 10.7504 15.5511 10.8268 15.7434 10.8268H17.9152C18.1292 10.8268 18.3033 11.001 18.3033 11.215C18.3033 11.4291 18.1292 11.6032 17.9152 11.6032H15.2822C15.1785 11.6032 15.081 11.5628 15.0077 11.4894L13.891 10.3728C13.4892 9.97087 12.7998 10.1677 12.6714 10.7221L12.0753 13.2952C12.0189 13.5391 12.0921 13.7949 12.2691 13.9719Z" fill="#37766E"/>
<path d="M20.3477 13.4729C20.6309 13.7562 21.0903 13.7562 21.3736 13.4729C22.5854 12.2611 22.5854 10.2895 21.3736 9.0778C21.0904 8.79454 20.631 8.79454 20.3477 9.0778C20.0644 9.36105 20.0644 9.82039 20.3477 10.1037C20.9937 10.7497 20.9937 11.801 20.3477 12.447C20.0644 12.7303 20.0645 13.1896 20.3477 13.4729Z" fill="#37766E"/>
<path d="M23.1319 14.5752C24.9557 12.7515 24.956 9.79943 23.1319 7.97542C22.8487 7.69207 22.3893 7.69216 22.106 7.97542C21.8227 8.25872 21.8227 8.71801 22.106 9.00131C23.3629 10.2581 23.363 12.2923 22.106 13.5494C21.8227 13.8326 21.8227 14.2919 22.106 14.5752C22.3894 14.8586 22.8487 14.8585 23.1319 14.5752Z" fill="#37766E"/>
<path d="M4.65222 9.07783C4.36892 8.79453 3.90963 8.79453 3.62632 9.07783C2.41172 10.2923 2.41162 12.2582 3.62632 13.4729C3.90963 13.7563 4.36892 13.7562 4.65222 13.4729C4.93552 13.1897 4.93552 12.7304 4.65222 12.4471C4.00466 11.7994 4.00461 10.7514 4.65222 10.1037C4.93552 9.82043 4.93552 9.36114 4.65222 9.07783Z" fill="#37766E"/>
<path d="M2.89385 14.5752C3.17716 14.292 3.17716 13.8327 2.89385 13.5493C1.63698 12.2926 1.63688 10.2583 2.89385 9.00131C3.17716 8.71806 3.17716 8.25872 2.89385 7.97542C2.61055 7.69211 2.15126 7.69211 1.86795 7.97542C0.0440877 9.79924 0.0439427 12.7512 1.86795 14.5752C2.15116 14.8585 2.6105 14.8586 2.89385 14.5752Z" fill="#37766E"/>
<path d="M1.25863 5.20226C1.65926 5.20226 1.98406 4.87746 1.98406 4.47683V1.46172H4.99922C5.39985 1.46172 5.72464 1.13692 5.72464 0.73629C5.72464 0.335662 5.39985 0.0108643 4.99922 0.0108643H1.25863C0.858001 0.0108643 0.533203 0.335662 0.533203 0.73629V4.47688C0.533203 4.87746 0.858001 5.20226 1.25863 5.20226Z" fill="#37766E"/>
<path d="M20.0006 1.46172H23.0157V4.47688C23.0157 4.87751 23.3405 5.2023 23.7412 5.2023C24.1418 5.2023 24.4666 4.87751 24.4666 4.47688V0.73629C24.4666 0.335662 24.1418 0.0108643 23.7412 0.0108643H20.0006C19.5999 0.0108643 19.2751 0.335662 19.2751 0.73629C19.2751 1.13692 19.5999 1.46172 20.0006 1.46172Z" fill="#37766E"/>
<path d="M23.7412 18.7977C23.3405 18.7977 23.0157 19.1225 23.0157 19.5232V22.5383H20.0006C19.5999 22.5383 19.2751 22.8631 19.2751 23.2637C19.2751 23.6644 19.5999 23.9892 20.0006 23.9892H23.7412C24.1418 23.9892 24.4666 23.6644 24.4666 23.2637V19.5232C24.4666 19.1225 24.1418 18.7977 23.7412 18.7977Z" fill="#37766E"/>
<path d="M4.99922 22.5383H1.98406V19.5232C1.98406 19.1225 1.65926 18.7977 1.25863 18.7977C0.858001 18.7977 0.533203 19.1225 0.533203 19.5232V23.2637C0.533203 23.6644 0.858001 23.9892 1.25863 23.9892H4.99922C5.39985 23.9892 5.72464 23.6644 5.72464 23.2637C5.72464 22.8631 5.39985 22.5383 4.99922 22.5383Z" fill="#37766E"/>
</g>
<defs>
<clipPath id="clip0_286_24956">
<rect width="24" height="24" fill="white" transform="translate(0.5)"/>
</clipPath>
</defs>
</svg>
