<svg width="236" height="30" viewBox="0 0 236 30" fill="none" xmlns="http://www.w3.org/2000/svg">
<mask id="mask0_2040_1244" style="mask-type:alpha" maskUnits="userSpaceOnUse" x="0" y="0" width="236" height="30">
<rect width="236" height="30" fill="url(#paint0_linear_2040_1244)"/>
</mask>
<g mask="url(#mask0_2040_1244)">
<rect width="236" height="30" fill="url(#paint1_linear_2040_1244)"/>
<circle cx="68.5" cy="15" r="7" fill="#FF5C01"/>
<path d="M76.7633 13.845L75.5166 12.3967C75.2783 12.1217 75.0858 11.6083 75.0858 11.2417V9.68335C75.0858 8.71168 74.2883 7.91418 73.3166 7.91418H71.7583C71.4008 7.91418 70.8783 7.72168 70.6033 7.48335L69.155 6.23668C68.5225 5.69585 67.4866 5.69585 66.845 6.23668L65.4058 7.49251C65.1308 7.72168 64.6083 7.91418 64.2508 7.91418H62.665C61.6933 7.91418 60.8958 8.71168 60.8958 9.68335V11.2508C60.8958 11.6083 60.7033 12.1217 60.4741 12.3967L59.2366 13.8542C58.705 14.4867 58.705 15.5133 59.2366 16.1458L60.4741 17.6033C60.7033 17.8783 60.8958 18.3917 60.8958 18.7492V20.3167C60.8958 21.2883 61.6933 22.0858 62.665 22.0858H64.2508C64.6083 22.0858 65.1308 22.2783 65.4058 22.5167L66.8541 23.7633C67.4866 24.3042 68.5225 24.3042 69.1641 23.7633L70.6125 22.5167C70.8875 22.2783 71.4008 22.0858 71.7675 22.0858H73.3258C74.2975 22.0858 75.095 21.2883 75.095 20.3167V18.7583C75.095 18.4008 75.2875 17.8783 75.5258 17.6033L76.7725 16.155C77.3041 15.5225 77.3041 14.4775 76.7633 13.845ZM71.8133 13.2675L67.3858 17.695C67.2575 17.8233 67.0833 17.8967 66.9 17.8967C66.7166 17.8967 66.5425 17.8233 66.4141 17.695L64.1958 15.4767C63.93 15.2108 63.93 14.7708 64.1958 14.505C64.4616 14.2392 64.9016 14.2392 65.1675 14.505L66.9 16.2375L70.8416 12.2958C71.1075 12.03 71.5475 12.03 71.8133 12.2958C72.0791 12.5617 72.0791 13.0017 71.8133 13.2675Z" fill="white"/>
<path d="M86.696 20.189C86.0147 20.189 85.443 20.0467 84.981 19.762C84.5237 19.4727 84.1783 19.0573 83.945 18.516C83.7163 17.97 83.602 17.312 83.602 16.542V14.764C83.602 13.4993 83.938 12.5333 84.61 11.866C85.2867 11.1987 86.276 10.865 87.578 10.865C87.998 10.865 88.383 10.8977 88.733 10.963C89.0877 11.0237 89.4073 11.103 89.692 11.201C89.9813 11.2943 90.231 11.3993 90.441 11.516L90.595 13.098C90.2543 12.9207 89.8647 12.7667 89.426 12.636C88.9873 12.5007 88.488 12.433 87.928 12.433C87.088 12.433 86.4697 12.6337 86.073 13.035C85.6763 13.4363 85.478 14.0407 85.478 14.848V16.549C85.478 17.2117 85.632 17.7227 85.94 18.082C86.2527 18.4413 86.731 18.621 87.375 18.621C87.6783 18.621 87.9397 18.5743 88.159 18.481C88.3783 18.3877 88.5603 18.2617 88.705 18.103C88.8497 17.9443 88.9593 17.7717 89.034 17.585V15.709L89.286 16.276L87.445 16.283V14.827H90.805V18.551L88.999 18.544C88.9243 18.852 88.803 19.1297 88.635 19.377C88.467 19.6243 88.2267 19.8227 87.914 19.972C87.6013 20.1167 87.1953 20.189 86.696 20.189ZM89.083 18.159H90.805V20H89.02L89.083 18.159ZM96.9352 20.203C95.7032 20.203 94.7956 19.902 94.2122 19.3C93.6289 18.6933 93.3372 17.809 93.3372 16.647V11.054H95.1782V16.689C95.1782 17.3283 95.3159 17.816 95.5912 18.152C95.8712 18.4833 96.3192 18.649 96.9352 18.649C97.5466 18.649 97.9899 18.4833 98.2652 18.152C98.5452 17.816 98.6852 17.3283 98.6852 16.689V11.054H100.526V16.647C100.526 17.809 100.235 18.6933 99.6513 19.3C99.0679 19.902 98.1626 20.203 96.9352 20.203ZM102.205 20L104.844 11.054H107.637L110.269 20H108.414L106.328 12.265H106.16L104.06 20H102.205ZM104.207 17.718V16.255H108.253V17.718H104.207ZM117.457 20L117.254 18.257C117.221 17.9443 117.156 17.683 117.058 17.473C116.96 17.263 116.813 17.1043 116.617 16.997C116.421 16.885 116.15 16.829 115.805 16.829L113.642 16.822V15.408L115.917 15.401C116.426 15.401 116.79 15.2843 117.009 15.051C117.233 14.813 117.345 14.4747 117.345 14.036V13.868C117.345 13.434 117.233 13.105 117.009 12.881C116.79 12.6523 116.421 12.538 115.903 12.538H113.621V11.054H116.162C117.212 11.054 117.977 11.2663 118.458 11.691C118.943 12.1157 119.186 12.72 119.186 13.504V13.7C119.186 14.288 119.044 14.7547 118.759 15.1C118.474 15.4453 118.022 15.6507 117.401 15.716V15.968L116.89 15.716C117.422 15.7533 117.833 15.8653 118.122 16.052C118.416 16.2387 118.631 16.4977 118.766 16.829C118.901 17.1557 119.004 17.5617 119.074 18.047L119.347 20H117.457ZM112.368 20V11.054H114.16V15.912L114.174 16.591V20H112.368ZM121.009 20L123.648 11.054H126.441L129.073 20H127.218L125.132 12.265H124.964L122.864 20H121.009ZM123.011 17.718V16.255H127.057V17.718H123.011ZM133.783 11.054L136.597 17.998H136.688L136.611 14.183V11.054H138.368V20H135.834L132.95 12.93H132.859L132.936 16.864V20H131.172V11.054H133.783ZM143.185 20V11.397H145.026V20H143.185ZM140.637 12.587V11.054H147.56V12.587H140.637ZM149.825 20V11.054H151.631V20H149.825ZM150.364 20V18.467H155.859V20H150.364ZM150.875 16.199V14.708H155.698V16.199H150.875ZM150.357 12.573V11.054H155.803V12.573H150.357ZM158.325 20V11.054H160.131V20H158.325ZM158.864 20V18.467H164.359V20H158.864ZM159.375 16.199V14.708H164.198V16.199H159.375ZM158.857 12.573V11.054H164.303V12.573H158.857ZM168.105 20V18.46H170.135C170.775 18.46 171.253 18.2873 171.57 17.942C171.892 17.592 172.053 17.0927 172.053 16.444V14.589C172.053 13.9403 171.892 13.4433 171.57 13.098C171.253 12.7527 170.775 12.58 170.135 12.58H168.098V11.054H170.198C171.43 11.054 172.357 11.3573 172.977 11.964C173.598 12.5707 173.908 13.4433 173.908 14.582V16.451C173.908 17.5943 173.598 18.4717 172.977 19.083C172.361 19.6943 171.435 20 170.198 20H168.105ZM166.824 20V11.054H168.637V20H166.824Z" fill="white"/>
</g>
<defs>
<linearGradient id="paint0_linear_2040_1244" x1="0.5" y1="2.5" x2="236.5" y2="2.49999" gradientUnits="userSpaceOnUse">
<stop stop-color="#D9D9D9" stop-opacity="0"/>
<stop offset="0.229128" stop-color="#D9D9D9"/>
<stop offset="0.767877" stop-color="#D9D9D9"/>
<stop offset="1" stop-color="#D9D9D9" stop-opacity="0"/>
</linearGradient>
<linearGradient id="paint1_linear_2040_1244" x1="209.5" y1="51" x2="197.94" y2="-15.6172" gradientUnits="userSpaceOnUse">
<stop offset="0.121506" stop-color="#1F72DA"/>
<stop offset="0.515625" stop-color="#A25BB6"/>
<stop offset="1" stop-color="#FF7121"/>
</linearGradient>
</defs>
</svg>
