<svg width="28" height="28" viewBox="0 0 28 28" fill="none" xmlns="http://www.w3.org/2000/svg">
<path d="M1 7.5307L14 1.07129L27 7.53065V8.38379L14 14.8432L1 8.40417V7.5307Z" fill="#EFC75E"/>
<path d="M1 7.53027L14 13.9896L27 7.53027V20.4693L13.9594 26.9287L1 20.4694V7.53027Z" fill="#E7BF55"/>
<path d="M14 26.9088V13.9901L1.08123 7.57129H1V20.4697L13.9594 26.929L14 26.9088Z" fill="#DBB551"/>
<path d="M6.30176 4.91029L19.2814 11.3696L21.9221 10.0697L8.90174 3.61035L6.30176 4.91029Z" fill="#F7E3AF"/>
<path d="M19.2812 11.3693L21.9219 10.0693V14.1318L21.2109 14.0099L20.4594 14.924L19.2812 14.8428C19.2813 14.8427 19.2812 11.3693 19.2812 11.3693Z" fill="#F1D999"/>
<path d="M11.3188 19.1494L6.93127 16.9556C6.68753 16.8338 6.48438 16.976 6.48438 17.2807V20.226C6.48438 20.5307 6.68748 20.876 6.93127 20.9978L11.3391 23.1916C11.5828 23.3134 11.786 23.1713 11.786 22.8665V19.9009C11.7656 19.5962 11.5625 19.2713 11.3188 19.1494ZM10.3234 21.5666L7.5203 20.165C7.39843 20.1041 7.29688 19.9213 7.29688 19.7588C7.29688 19.5963 7.39843 19.515 7.5203 19.5759L10.3234 20.9775C10.4453 21.0384 10.5469 21.2212 10.5469 21.3837C10.5469 21.5462 10.4453 21.6275 10.3234 21.5666ZM10.7297 20.5509L7.5203 18.9259C7.39843 18.8649 7.29688 18.6821 7.29688 18.5196C7.29688 18.3571 7.39843 18.2759 7.5203 18.3368L10.7297 19.9618C10.8516 20.0228 10.9531 20.2056 10.9531 20.3681C10.9532 20.5509 10.8516 20.6118 10.7297 20.5509Z" fill="#F2F2F2"/>
</svg>
