<svg width="28" height="28" viewBox="0 0 28 28" fill="none" xmlns="http://www.w3.org/2000/svg">
<g clip-path="url(#clip0_141_4196)">
<path d="M17.1261 8.96069L8.68848 12.786L15.5085 27.825L19.1808 24.721L23.9242 24.0215L17.1261 8.96069Z" fill="#2B414D"/>
<path d="M10.8746 9.11377L19.3122 12.9391L12.4922 27.9999L8.81993 24.8741L4.05469 24.1746C4.05463 24.1746 10.8746 9.11377 10.8746 9.11377Z" fill="#475F6C"/>
<path d="M24.9294 10.95C24.9294 11.7587 23.7708 12.4364 23.5959 13.2014C23.4211 13.9883 24.1861 15.1032 23.8582 15.8246C23.5085 16.5459 22.1751 16.6333 21.6942 17.2454C21.2133 17.8575 21.4319 19.2127 20.8198 19.7155C20.2078 20.2183 18.9837 19.6936 18.2842 20.0434C17.5847 20.3932 17.2131 21.7046 16.448 21.8795C15.7048 22.0544 14.8086 21.0489 14.0217 21.0489C13.2348 21.0489 12.3385 22.0544 11.5953 21.8795C10.8302 21.7046 10.4587 20.3931 9.75917 20.0434C9.05969 19.6936 7.81374 20.2183 7.22354 19.7155C6.61147 19.2127 6.83009 17.8575 6.34917 17.2454C5.86825 16.6333 4.53488 16.5459 4.18511 15.8246C3.85721 15.1251 4.6223 13.9884 4.44741 13.2014C4.22885 12.4364 3.07031 11.7587 3.07031 10.95C3.07031 10.1412 4.22885 9.46354 4.40373 8.69851C4.57862 7.91161 3.81353 6.79676 4.14143 6.07541C4.4912 5.35405 5.82457 5.26664 6.30549 4.65457C6.78641 4.0425 6.56779 2.68727 7.17986 2.18448C7.79193 1.68169 9.01601 2.20635 9.71549 1.85658C10.415 1.50681 10.7866 0.195313 11.5516 0.0204278C12.2949 -0.154457 13.191 0.851061 13.978 0.851061C14.7649 0.851061 15.6611 -0.154457 16.4044 0.0204278C17.1694 0.195313 17.541 1.50687 18.2405 1.85658C18.94 2.20635 20.1859 1.68169 20.7761 2.18448C21.3882 2.68721 21.1696 4.0425 21.6505 4.65457C22.1314 5.26664 23.4648 5.35405 23.8146 6.07541C24.1425 6.77489 23.3774 7.91156 23.5523 8.69851C23.7708 9.4636 24.9294 10.1412 24.9294 10.95Z" fill="#EFC75E"/>
<path d="M14.0001 6.57829C11.5738 6.57829 9.62833 8.54559 9.62833 10.9501C9.62833 13.3546 11.5956 15.3219 14.0001 15.3219C16.4265 15.3219 18.3719 13.3546 18.3719 10.9501C18.3719 8.54559 16.4264 6.57829 14.0001 6.57829ZM14.0001 12.9174C12.9072 12.9174 12.0328 12.043 12.0328 10.9501C12.0328 9.85714 12.9072 8.98277 14.0001 8.98277C15.0931 8.98277 15.9674 9.85714 15.9674 10.9501C15.9674 12.043 15.0931 12.9174 14.0001 12.9174ZM14.0001 3.08081C9.6502 3.08081 6.13086 6.6001 6.13086 10.9501C6.13086 15.3 9.65015 18.8193 14.0001 18.8193C18.3501 18.8193 21.8693 15.3 21.8693 10.9501C21.8693 6.60015 18.35 3.08081 14.0001 3.08081ZM14.0001 17.5078C10.3716 17.5078 7.44241 14.5787 7.44241 10.9501C7.44241 7.32145 10.3715 4.39236 14.0001 4.39236C17.6287 4.39236 20.5578 7.32145 20.5578 10.9501C20.5578 14.5787 17.6287 17.5078 14.0001 17.5078Z" fill="#D7B354"/>
</g>
<defs>
<clipPath id="clip0_141_4196">
<rect width="28" height="28" fill="white"/>
</clipPath>
</defs>
</svg>
