<svg width="28" height="28" viewBox="0 0 28 28" fill="none" xmlns="http://www.w3.org/2000/svg">
<path d="M14 26C20.6274 26 26 20.6274 26 14C26 7.37258 20.6274 2 14 2C7.37258 2 2 7.37258 2 14C2 20.6274 7.37258 26 14 26Z" fill="#3DB39E"/>
<path d="M24.0501 7.45654L13.4375 18.4441L13.4563 19.6254H13.9438L25.4376 10.3628C25.1001 9.33157 24.6313 8.33781 24.0501 7.45654Z" fill="#37A18E"/>
<path d="M25.775 6.93158L23.6562 4.83156C23.3749 4.55029 22.9062 4.55029 22.6062 4.83156L13.5499 14.1879L9.63108 10.3253C9.34982 10.0441 8.88107 10.0441 8.5811 10.3253L6.70607 12.1816C6.4248 12.4629 6.4248 12.9316 6.70607 13.2129L12.9686 19.4191C13.1374 19.5879 13.3624 19.6441 13.5874 19.6254C13.8124 19.6441 14.0374 19.5878 14.2061 19.4191L25.775 7.98157C26.0562 7.68154 26.0562 7.2128 25.775 6.93158Z" fill="#F2F1EF"/>
<path d="M14.2059 19.4189L25.7748 7.98136C26.056 7.70009 26.056 7.23135 25.7748 6.95008L25.4373 6.63135L13.5684 18.2939L7.00589 11.9001L6.72462 12.1814C6.44336 12.4627 6.44336 12.9314 6.72462 13.2127L12.9872 19.419C13.1559 19.5877 13.3809 19.644 13.6059 19.6252C13.8122 19.6439 14.0372 19.5877 14.2059 19.4189Z" fill="#E6E5E3"/>
</svg>
