<svg width="24" height="24" viewBox="0 0 24 24" fill="none" xmlns="http://www.w3.org/2000/svg">
<g clip-path="url(#clip0_845_1946)">
<path d="M11.6072 10.7937C11.468 10.7937 11.3287 10.752 11.209 10.6682L6.88271 7.21281C6.21207 6.74349 5.88971 6.11462 5.83885 5.29763C5.78799 4.4807 5.58095 4.43687 6.18817 3.88796C6.79534 3.33915 7.61687 2.3867 8.41276 2.51462C8.50787 2.5299 8.60274 2.55038 8.69706 2.57616C9.58084 2.81766 10.2714 3.48404 10.5443 4.35868L12.2704 9.89218C12.3589 10.1758 12.2571 10.4844 12.0172 10.6598C11.8953 10.7491 11.7513 10.7937 11.6072 10.7937ZM7.98329 3.86902C7.67209 3.86902 7.37363 3.98359 7.13162 4.20235C6.83996 4.46598 6.68668 4.8422 6.7111 5.23459C6.73552 5.62693 6.93428 5.98126 7.25635 6.20663L10.3381 8.36316L9.85815 4.77245C9.73403 4.37448 8.80374 4.07607 8.41524 3.94238C8.38759 3.93287 8.35942 3.9242 8.33078 3.91637C8.21476 3.88463 8.09813 3.86902 7.98329 3.86902Z" fill="#DF646E"/>
<path d="M11.9827 10.6599C11.7428 10.4845 12.3333 10.1759 12.4218 9.89229L14.0862 4.35879C14.3591 3.48415 14.3408 3.1309 15.2246 2.8894C15.6019 2.78636 16.0664 2.45472 16.4382 2.5151C16.9373 2.59619 17.4103 2.8196 17.7999 3.17172C18.4072 3.72058 18.7262 4.50396 18.6754 5.3209C18.6245 6.13788 18.2107 6.87555 17.5401 7.34491L12.7909 10.6683C12.6712 10.752 12.5319 10.7938 12.3927 10.7938C12.2487 10.7937 12.1047 10.7491 11.9827 10.6599ZM15.6691 3.91633C15.2383 4.03408 14.9149 4.34608 14.7819 4.77241L13.6618 8.36313L16.7435 6.2066C17.0656 5.98118 17.2643 5.6269 17.2888 5.23455C17.3132 4.84216 17.1599 4.46594 16.8682 4.20232C16.6262 3.98355 16.3278 3.86899 16.0166 3.86899C15.9018 3.86904 15.7852 3.88465 15.6691 3.91633Z" fill="#DF646E"/>
<path d="M10.0675 4.77349C9.93455 4.34716 9.6112 4.03512 9.18038 3.91741C9.06427 3.88568 8.94764 3.87012 8.8328 3.87012C8.68894 3.87012 8.54812 3.89566 8.41406 3.94362C8.80256 4.0773 9.09267 4.37557 9.2168 4.77354L10.2145 7.96601L11.1876 8.36426L10.0675 4.77349Z" fill="#DC4955"/>
<path d="M7.30968 7.3456C6.63904 6.87629 6.22527 6.13857 6.17436 5.32158C6.12351 4.50465 6.44263 3.72127 7.04985 3.17241C7.43943 2.82029 7.91249 2.59758 8.41166 2.51649C7.61582 2.38861 6.80629 2.62365 6.19911 3.17241C5.59185 3.72127 5.27277 4.50465 5.32363 5.32158C5.37449 6.13857 5.7883 6.87624 6.45894 7.3456L11.2081 10.6689C11.3278 10.7527 11.4671 10.7945 11.6063 10.7945C11.7504 10.7945 11.8943 10.7498 12.0163 10.6606C12.0213 10.657 12.0258 10.653 12.0306 10.6493L7.30968 7.3456Z" fill="#DC4955"/>
<path d="M12.5815 9.89249L14.3076 4.35899C14.5805 3.48435 15.271 2.81797 16.1548 2.57647C16.2492 2.55069 16.3441 2.53133 16.4393 2.51605C16.0675 2.45563 15.6814 2.47344 15.3041 2.57647C14.4203 2.81797 13.7298 3.48435 13.4569 4.35899L11.7308 9.89249C11.6423 10.1761 11.744 10.4847 11.984 10.6601C12.1059 10.7493 12.2499 10.7939 12.3939 10.7939C12.5331 10.7939 12.6725 10.7522 12.7922 10.6684L12.8203 10.6487C12.591 10.4716 12.4948 10.1703 12.5815 9.89249Z" fill="#DC4955"/>
<path d="M21.3293 14.7209C21.3293 13.502 22.1458 12.4739 23.2617 12.1535C23.7 12.0276 24.0001 11.6241 24.0001 11.1681V9.31912C24.0001 8.54798 23.375 7.92285 22.6039 7.92285H2.85486C2.08372 7.92285 1.4082 8.54798 1.4082 9.31912V20.1226C1.4082 20.8938 2.08372 21.5189 2.85486 21.5189H22.6039C23.375 21.5189 24.0001 20.8938 24.0001 20.1226V18.2737C24.0001 17.8176 23.7 17.4141 23.2617 17.2883C22.1458 16.9679 21.3293 15.9397 21.3293 14.7209Z" fill="#F9AF38"/>
<path d="M1.66228 20.1226V9.31912C1.66228 8.54798 2.28741 7.92285 3.05855 7.92285H1.39627C0.625125 7.92285 0 8.54798 0 9.31912V20.1226C0 20.8938 0.625125 21.5189 1.39627 21.5189H3.05859C2.28745 21.5189 1.66228 20.8938 1.66228 20.1226Z" fill="#F48931"/>
<path d="M17.4481 10.5152C17.2481 10.5152 17.0859 10.3531 17.0859 10.153V9.52427C17.0859 9.32425 17.2481 9.16211 17.4481 9.16211C17.6481 9.16211 17.8102 9.32425 17.8102 9.52427V10.153C17.8102 10.3531 17.6481 10.5152 17.4481 10.5152Z" fill="#F48931"/>
<path d="M17.4481 12.9566C17.2481 12.9566 17.0859 12.7945 17.0859 12.5945V11.9657C17.0859 11.7657 17.2481 11.6035 17.4481 11.6035C17.6481 11.6035 17.8102 11.7657 17.8102 11.9657V12.5945C17.8102 12.7945 17.6481 12.9566 17.4481 12.9566Z" fill="#F48931"/>
<path d="M17.4481 15.397C17.2481 15.397 17.0859 15.2349 17.0859 15.0349V14.4061C17.0859 14.2061 17.2481 14.0439 17.4481 14.0439C17.6481 14.0439 17.8102 14.2061 17.8102 14.4061V15.0349C17.8102 15.2349 17.6481 15.397 17.4481 15.397Z" fill="#F48931"/>
<path d="M17.4481 17.8384C17.2481 17.8384 17.0859 17.6763 17.0859 17.4763V16.8475C17.0859 16.6475 17.2481 16.4854 17.4481 16.4854C17.6481 16.4854 17.8102 16.6475 17.8102 16.8475V17.4763C17.8102 17.6763 17.6481 17.8384 17.4481 17.8384Z" fill="#F48931"/>
<path d="M17.4481 20.2799C17.2481 20.2799 17.0859 20.1177 17.0859 19.9177V19.2889C17.0859 19.0889 17.2481 18.9268 17.4481 18.9268C17.6481 18.9268 17.8102 19.0889 17.8102 19.2889V19.9177C17.8102 20.1177 17.6481 20.2799 17.4481 20.2799Z" fill="#F48931"/>
<path d="M6.12859 13.8646C5.3103 13.8646 4.64453 13.1988 4.64453 12.3805C4.64453 11.5622 5.3103 10.8965 6.12859 10.8965C6.94694 10.8965 7.61266 11.5622 7.61266 12.3805C7.6127 13.1988 6.94694 13.8646 6.12859 13.8646ZM6.12859 11.6208C5.70967 11.6208 5.36889 11.9616 5.36889 12.3805C5.36889 12.7994 5.70972 13.1402 6.12859 13.1402C6.54752 13.1402 6.88834 12.7994 6.88834 12.3805C6.88834 11.9616 6.54756 11.6208 6.12859 11.6208Z" fill="#DF646E"/>
<path d="M10.8083 18.5453C9.98998 18.5453 9.32422 17.8795 9.32422 17.0612C9.32422 16.2429 9.98998 15.5771 10.8083 15.5771C11.6266 15.5771 12.2923 16.2429 12.2923 17.0612C12.2923 17.8795 11.6266 18.5453 10.8083 18.5453ZM10.8083 16.3015C10.3894 16.3015 10.0486 16.6423 10.0486 17.0612C10.0486 17.4801 10.3894 17.8209 10.8083 17.8209C11.2272 17.8209 11.568 17.4801 11.568 17.0612C11.568 16.6423 11.2272 16.3015 10.8083 16.3015Z" fill="#DF646E"/>
<path d="M5.98296 18.67C5.91186 18.67 5.84 18.6491 5.77714 18.6055C5.61265 18.4916 5.57168 18.2661 5.68554 18.1016L10.6534 10.9275C10.7673 10.7631 10.9929 10.7221 11.1574 10.8359C11.3218 10.9498 11.3628 11.1754 11.2489 11.3399L6.28104 18.514C6.21073 18.6155 6.09781 18.67 5.98296 18.67Z" fill="#DF646E"/>
</g>
<defs>
<clipPath id="clip0_845_1946">
<rect width="24" height="24" fill="white"/>
</clipPath>
</defs>
</svg>
