<svg width="28" height="28" viewBox="0 0 28 28" fill="none" xmlns="http://www.w3.org/2000/svg">
<path d="M22.009 21.6335C21.834 21.3272 21.4183 21.2178 21.112 21.3928C15.4893 24.6308 8.2914 22.7274 5.05345 17.1704C1.83739 11.6133 3.78453 4.45916 9.40718 1.2212C9.71348 1.04617 9.82286 0.630487 9.64782 0.324184C9.47278 0.0178821 9.0571 -0.0914957 8.7508 0.0835421C2.49371 3.6934 0.327765 11.657 3.91579 17.8267C6.14734 21.6772 10.0636 23.9307 14.2204 24.237V26.031H11.7044C11.1575 26.031 10.7199 26.4685 10.7199 27.0155C10.7199 27.5624 11.1575 28 11.7044 28H18.0491C18.596 28 19.0336 27.5624 19.0336 27.0155C19.0336 26.4685 18.596 26.031 18.0491 26.031H15.3581H15.5331V24.2807C17.6553 24.2369 19.7994 23.6681 21.7684 22.5304C22.0746 22.3336 22.1841 21.9398 22.009 21.6335Z" fill="#324D5B"/>
<path d="M15.315 0.871094C21.1127 0.871094 25.8165 5.57489 25.8165 11.3726C25.8165 17.1703 21.1127 21.8741 15.315 21.8741C9.51728 21.8741 4.81348 17.1703 4.81348 11.3726C4.81348 5.57484 9.51728 0.871094 15.315 0.871094Z" fill="#26A6D1"/>
<path d="M23.1743 18.5025C23.8962 15.7021 24.5526 11.6546 22.4742 12.1141C20.4833 12.5517 18.011 13.033 16.8296 13.208C15.6482 13.383 14.2261 12.2016 12.6291 11.3483C12.4103 10.4513 12.3884 9.97004 13.6354 9.05113C14.9044 8.11039 15.4951 9.94815 15.9983 9.40121C16.8296 8.39481 16.2608 7.45407 17.3329 5.26624C18.4049 3.12217 18.5143 3.45036 19.28 1.76576C18.0767 1.28442 16.7421 1 15.3419 1C11.2726 1 7.75021 3.3191 6 6.68831C6.28442 7.27903 6.67821 7.89164 7.22515 8.56985C8.90976 10.6045 10.6819 11.4359 13.4604 13.1424C16.2389 14.827 15.8232 15.5927 15.145 16.3584C14.4668 17.1242 13.4166 20.4059 15.4075 21.4342L16.3046 21.9811C19.0174 21.7186 21.4459 20.4278 23.1743 18.5025Z" fill="#AEC225"/>
<path d="M16.8464 20.3425C11.0487 20.3425 6.34493 15.6387 6.34493 9.84096C6.34493 7.325 7.22007 5.02779 8.68592 3.21191C6.3231 5.15905 4.81348 8.09075 4.81348 11.3725C4.81348 17.1702 9.51728 21.874 15.315 21.874C18.5967 21.874 21.5502 20.3644 23.4755 18.0015C21.6596 19.4673 19.3624 20.3425 16.8464 20.3425Z" fill="#2295BC"/>
<path d="M23.1694 18.2204C21.4191 19.555 19.2313 20.3425 16.8466 20.3425C15.9933 20.3425 15.162 20.2332 14.3743 20.0362C14.5275 20.5613 14.8557 20.9989 15.3807 21.2833C15.7308 21.502 16.0152 21.6771 16.2777 21.8302H16.3434L16.7153 21.7865L16.8685 21.7646L17.2404 21.6989L17.3716 21.677C17.7873 21.5895 18.203 21.4801 18.5968 21.3488L18.728 21.3051C18.8374 21.2613 18.9468 21.2394 19.0343 21.1957L19.2313 21.13L19.5157 20.9988C19.5813 20.9769 19.647 20.9331 19.7344 20.9113L19.997 20.78L20.2157 20.6706L20.4564 20.5394L20.7189 20.3862C20.8064 20.3424 20.872 20.2987 20.9595 20.2331C21.0908 20.1456 21.2002 20.058 21.3314 19.9924L21.5065 19.8611L21.769 19.6642L21.9441 19.533C22.0315 19.4673 22.1191 19.4017 22.1847 19.336C22.2285 19.2923 22.2941 19.2485 22.3378 19.1829L22.5785 18.9641C22.6223 18.9204 22.666 18.8766 22.7316 18.8329L22.9942 18.5703L23.1035 18.461L23.1254 18.4391C23.1475 18.3297 23.1693 18.2641 23.1694 18.2204ZM6.58572 7.6095C6.93579 5.9905 7.67961 4.50281 8.68601 3.23389L8.66412 3.25577C8.53285 3.36515 8.42348 3.4527 8.31404 3.56208L8.20467 3.67145C8.11717 3.75894 8.00774 3.84649 7.92025 3.95587L7.78899 4.08713L7.52646 4.34966C7.48268 4.39344 7.43897 4.43715 7.39519 4.50281L7.13266 4.831C7.08889 4.87478 7.04517 4.94038 7.0014 5.00604L6.82636 5.2248L6.65132 5.46544L6.47629 5.72797C6.43251 5.79363 6.38879 5.85923 6.34502 5.94672L6.21376 6.14365L6.01683 6.49372L5.95117 6.6031C6.14815 6.9094 6.34508 7.23754 6.58572 7.6095Z" fill="#9CAE21"/>
</svg>
