<svg width="28" height="28" viewBox="0 0 28 28" fill="none" xmlns="http://www.w3.org/2000/svg">
<path d="M25.5392 21.2765L27.9575 20.6547C27.9826 20.6482 28 20.6263 28 20.6015V14.0471C28 13.4688 27.5108 13 26.9074 13H6.09243C5.48894 13 5 13.4688 5 14.0471V23.9529C5 24.5312 5.48894 25 6.09243 25H26.9074C27.5108 25 28 24.5312 28 23.9529V22.4365C28 22.4146 27.9863 22.3948 27.9654 22.386L25.5314 21.3802C25.4813 21.3596 25.4865 21.29 25.5392 21.2765Z" fill="#A65D51"/>
<path d="M21.8482 16C23.0365 16 24 15.5091 24 14.9034V13H6.10215C5.49351 13 5 13.2515 5 13.5618V16H21.8482Z" fill="#66362F"/>
<path d="M21.9076 3H1.09265C0.489153 3 0 3.46878 0 4.04714V13.9531C0 14.5312 0.489153 15 1.09265 15H21.9076C22.5108 15 23 14.5312 23 13.9531V4.04714C23 3.46878 22.5108 3 21.9076 3Z" fill="#EAB875"/>
<path d="M23 9.38381V8C22.5531 8.60722 21.741 9.51411 21.2795 9.95148C19.5487 11.5935 17.2743 12.6341 14.8754 12.882C13.0967 13.065 11.3592 12.8299 9.27213 12.5033L9.11924 12.4792C7.28285 12.1924 5.38373 11.8958 3.48658 12.0347C2.31139 12.1212 0.973297 12.5697 0 13.0054V14C0.977435 13.5236 2.4046 13.0312 3.54255 12.9476C5.35237 12.8146 7.20728 13.1045 9.00099 13.3849L9.15365 13.4087C10.8385 13.6725 12.9351 14.0007 14.9538 13.7928C17.5248 13.5271 19.966 12.4085 21.8272 10.6428C22.14 10.3464 22.5893 9.86382 23 9.38381Z" fill="#C68D4E"/>
<path d="M0 4.31676C1.60926 4.50127 3.19319 5.35104 4.72728 6.17454C5.29322 6.47829 5.82765 6.76516 6.3662 7.02201C7.50261 7.56364 8.64973 7.88679 9.77564 7.98248C9.91259 7.99437 10.0471 8.0002 10.1793 7.99999C11.0484 7.99999 11.8059 7.74815 12.3419 7.27448C12.7472 6.91589 12.9678 6.43972 12.9968 5.85952C13.0257 5.28662 12.857 4.61177 12.5094 3.90835C12.3574 3.60105 12.1733 3.29333 11.9688 3H10.9701C11.6269 3.78514 12.2517 4.93178 12.207 5.81887C12.1889 6.17912 12.0629 6.45807 11.8217 6.67135C11.2086 7.21319 10.3185 7.2257 9.84216 7.18463C8.81016 7.09706 7.75407 6.79852 6.70313 6.29754C6.18167 6.04903 5.65528 5.76633 5.09778 5.46716C3.52353 4.62198 1.89882 3.74991 0.17423 3.531C0.163727 3.52621 0.153018 3.52204 0.142103 3.51828C0.0523103 3.67339 0 3.85331 0 4.04595L0 4.31676Z" fill="#C68D4E"/>
<path d="M16.0644 4.92C16.3957 6.27255 16.0364 7.62234 15.1492 8.35891C14.4729 8.92028 13.5681 9.10531 12.9281 9.16149C12.1241 9.2322 11.2829 9.15206 10.4697 9.07467L10.3312 9.06151C7.48397 8.79182 4.42767 8.59756 1.36862 8.99826C0.930858 9.05542 0.365475 9.15893 0 9.22925V10C0.469351 9.90749 1.0695 9.79887 1.48225 9.74505C4.45544 9.35594 7.45259 9.54706 10.2486 9.81163L10.3864 9.82479C11.239 9.90611 12.1207 9.98998 13.0049 9.9124C14.0973 9.81635 15.0264 9.4734 15.6923 8.92048C16.2736 8.43807 16.6823 7.7671 16.8744 6.97985C17.0472 6.27156 17.0416 5.5016 16.8583 4.75304C16.7444 4.28714 16.4358 3.58867 16.1436 3H15.2442C15.5662 3.61695 15.9475 4.44231 16.0644 4.92Z" fill="#C68D4E"/>
<path d="M5.43945 20.1499H10.7681C10.9947 20.1499 11.1782 19.9664 11.1782 19.7397C11.1782 19.5131 10.9947 19.3296 10.7681 19.3296H5.43945V20.1499Z" fill="#66362F"/>
<path d="M27.9999 14.9863H26.1572C25.9306 14.9863 25.7471 15.1698 25.7471 15.3965C25.7471 15.6231 25.9306 15.8066 26.1572 15.8066H27.9999V14.9863Z" fill="#66362F"/>
<path d="M25.5783 21.4271C25.5292 21.4059 25.5343 21.3348 25.586 21.3209L26.9583 20.9526H16.5527C16.3261 20.9526 16.1426 21.1364 16.1426 21.3628C16.1426 21.5894 16.3261 21.7729 16.5527 21.7729H26.3807L25.5783 21.4271Z" fill="#66362F"/>
</svg>
