<svg width="20" height="20" viewBox="0 0 20 20" fill="none" xmlns="http://www.w3.org/2000/svg">
<g clip-path="url(#clip0_152_2305)">
<path d="M0.625 5.3125L10 10L19.375 5.3125V15.3125L10 19.9999L0.625 15.3124V5.3125Z" fill="#DB5449"/>
<path d="M0.625 6.25V9.17186L9.96873 13.75L19.375 9.15623V6.25L10 10.8438L0.625 6.25Z" fill="#C54B42"/>
<path d="M10 19.9999V10L1.25 5.625H0.625V15.3125L10 19.9999Z" fill="#D05045"/>
<path d="M0.625 6.25V9.17186L9.96873 13.75L10 13.7343V10.8281V10.8438L0.625 6.25Z" fill="#BB483E"/>
<path d="M0 4.98437L10 0L20 4.98437V5.64064L10 10.6249L0 5.65623V4.98437Z" fill="#EB6258"/>
<path d="M15.7344 1.57814C15.4063 0.984396 14.7031 0.625 13.875 0.625C11.9844 0.625 10.6563 2.39064 10 3.51564C9.34374 2.39064 8.00002 0.640631 6.12501 0.640631C4.92189 0.640631 4.0625 1.37501 4.0625 2.37501C4.0625 4.15623 6.01563 5.3125 9.93748 5.3125C13.8593 5.3125 15.9375 3.82814 15.9375 2.39064C15.9375 2.1094 15.875 1.82816 15.7344 1.57814ZM6.5313 3.50005C6.09379 3.20318 5.93755 2.87504 5.93755 2.65629C5.93755 2.39068 6.18757 2.18755 6.54693 2.18755C7.39069 2.18755 8.06255 3.29692 8.43753 4.06257C7.45317 3.98441 6.87502 3.71876 6.5313 3.50005ZM13.4688 3.50005C13.125 3.7188 12.5469 3.98441 11.5625 4.06253C11.9219 3.29692 12.5938 2.18751 13.4531 2.18751C13.8125 2.18751 14.0625 2.39064 14.0625 2.65625C14.0625 2.87504 13.9063 3.20314 13.4688 3.50005Z" fill="#EFEFEF"/>
<path d="M0 5L10 9.89062L20 5V8.23436L9.96874 13.125L0 8.23436V5Z" fill="#E2574C"/>
<path d="M13.75 8.48435V8.12499L9.99997 6.09375L6.24998 8.12499V8.48435L3.75 7.39061V6.89061L9.87496 3.65625L9.99997 3.71873L10.125 3.65625L16.2499 6.87498V7.37498L13.75 8.48435Z" fill="#EFEFEF"/>
<path d="M13.75 8.12501V18.1094L16.25 16.8594V6.875L13.75 8.12501Z" fill="#DCDCDC"/>
<path d="M3.75 16.875L6.24998 18.125V8.14064L3.75 6.875C3.75 6.87496 3.75 16.875 3.75 16.875Z" fill="#D1D1D1"/>
</g>
<defs>
<clipPath id="clip0_152_2305">
<rect width="20" height="20" fill="white"/>
</clipPath>
</defs>
</svg>
