<svg width="14" height="14" viewBox="0 0 14 14" fill="none" xmlns="http://www.w3.org/2000/svg">
<g clip-path="url(#clip0_141_4203)">
<path d="M7 0C5.61553 0 4.26216 0.410543 3.11101 1.17971C1.95987 1.94888 1.06266 3.04213 0.532846 4.32122C0.003033 5.6003 -0.13559 7.00777 0.134506 8.36563C0.404603 9.7235 1.07129 10.9708 2.05026 11.9497C3.02922 12.9287 4.2765 13.5954 5.63437 13.8655C6.99224 14.1356 8.3997 13.997 9.67879 13.4672C10.9579 12.9373 12.0511 12.0401 12.8203 10.889C13.5895 9.73785 14 8.38447 14 7C13.998 5.1441 13.2599 3.36479 11.9475 2.05247C10.6352 0.74015 8.8559 0.0020073 7 0V0ZM7 12.8333C5.84628 12.8333 4.71846 12.4912 3.75918 11.8502C2.79989 11.2093 2.05222 10.2982 1.61071 9.23232C1.16919 8.16642 1.05368 6.99353 1.27876 5.86197C1.50384 4.73042 2.05941 3.69102 2.87521 2.87521C3.69102 2.0594 4.73042 1.50383 5.86198 1.27875C6.99353 1.05367 8.16642 1.16919 9.23232 1.6107C10.2982 2.05221 11.2093 2.79989 11.8502 3.75917C12.4912 4.71846 12.8333 5.84628 12.8333 7C12.8316 8.54658 12.2165 10.0293 11.1229 11.1229C10.0293 12.2165 8.54658 12.8316 7 12.8333Z" fill="black"/>
<path d="M7.00065 5.83325H6.41732C6.26261 5.83325 6.11424 5.89471 6.00484 6.00411C5.89544 6.1135 5.83398 6.26188 5.83398 6.41659C5.83398 6.57129 5.89544 6.71967 6.00484 6.82906C6.11424 6.93846 6.26261 6.99992 6.41732 6.99992H7.00065V10.4999C7.00065 10.6546 7.06211 10.803 7.17151 10.9124C7.2809 11.0218 7.42927 11.0833 7.58398 11.0833C7.73869 11.0833 7.88707 11.0218 7.99646 10.9124C8.10586 10.803 8.16732 10.6546 8.16732 10.4999V6.99992C8.16732 6.6905 8.0444 6.39375 7.82561 6.17496C7.60682 5.95617 7.31007 5.83325 7.00065 5.83325Z" fill="black"/>
<path d="M7 4.66675C7.48325 4.66675 7.875 4.275 7.875 3.79175C7.875 3.3085 7.48325 2.91675 7 2.91675C6.51675 2.91675 6.125 3.3085 6.125 3.79175C6.125 4.275 6.51675 4.66675 7 4.66675Z" fill="black"/>
</g>
<defs>
<clipPath id="clip0_141_4203">
<rect width="14" height="14" fill="white"/>
</clipPath>
</defs>
</svg>
