<svg width="74" height="22" viewBox="0 0 74 22" fill="none" xmlns="http://www.w3.org/2000/svg">
<path d="M70.5629 5.13902L68.8368 16.4564C68.8304 16.498 68.8327 16.5405 68.8436 16.5811C68.8546 16.6216 68.8739 16.6591 68.9002 16.691C68.9265 16.7229 68.9592 16.7485 68.996 16.7658C69.0327 16.7831 69.0727 16.7919 69.113 16.7914H71.1558C71.2279 16.792 71.2978 16.7657 71.3529 16.7172C71.4079 16.6687 71.4446 16.6012 71.4561 16.5269L73.1822 5.20951C73.1886 5.16795 73.1863 5.12542 73.1754 5.0849C73.1644 5.04438 73.1451 5.00685 73.1188 4.97493C73.0925 4.94302 73.0598 4.9175 73.023 4.90017C72.9863 4.88283 72.9463 4.87409 72.906 4.87457H70.8632C70.7909 4.87308 70.7206 4.89909 70.6653 4.94776C70.6101 4.99642 70.5737 5.0644 70.5629 5.13902ZM68.3816 8.44172H66.4434C66.3714 8.44098 66.3016 8.46721 66.2466 8.51566C66.1915 8.5641 66.155 8.63154 66.1436 8.70571L66.0795 9.12237C66.0795 9.12237 64.5741 7.41894 61.9088 8.57012C60.3797 9.22923 59.6458 10.591 59.3334 11.5886C59.3334 11.5886 58.3422 14.6206 60.5841 16.2894C60.5841 16.2894 62.663 17.8945 65.0039 16.1907L64.9634 16.4564C64.9541 16.5189 64.9646 16.5828 64.9933 16.6384C65.0221 16.6941 65.0675 16.7383 65.1226 16.7645C65.1592 16.7824 65.1992 16.7914 65.2396 16.7914H67.1791C67.2514 16.7929 67.3218 16.7669 67.377 16.7182C67.4323 16.6695 67.4687 16.6016 67.4794 16.5269L68.6591 8.77665C68.6657 8.73514 68.6634 8.69262 68.6523 8.65216C68.6412 8.6117 68.6217 8.57433 68.595 8.54274C68.5688 8.51054 68.536 8.48477 68.4991 8.46724C68.4623 8.4497 68.4222 8.44084 68.3816 8.44127V8.44172ZM65.5296 12.725C65.454 13.2665 65.1916 13.7606 64.7918 14.1146C64.3902 14.4699 63.8791 14.6617 63.3526 14.6547C63.1462 14.6572 62.9406 14.626 62.7434 14.5622C61.9066 14.2838 61.4291 13.4514 61.5663 12.549C61.6425 12.0077 61.9052 11.514 62.305 11.1603C62.7063 10.8048 63.217 10.6124 63.7433 10.6184C63.9498 10.6161 64.1553 10.6476 64.3525 10.7118C65.1945 10.9883 65.6699 11.8221 65.5318 12.7254H65.5296V12.725ZM55.1799 12.9391C56.231 12.9391 57.2476 12.5494 58.0462 11.8409C58.843 11.1348 59.3706 10.1538 59.533 9.07612C59.8725 6.83437 58.1821 4.87772 55.7857 4.87772H51.9252C51.8532 4.87699 51.7833 4.90329 51.7282 4.95183C51.6732 5.00036 51.6367 5.06791 51.6254 5.14216L49.8988 16.4596C49.8895 16.522 49.9 16.586 49.9287 16.6416C49.9575 16.6972 50.0029 16.7415 50.058 16.7676C50.095 16.7856 50.1346 16.7945 50.1751 16.7945H52.2191C52.2911 16.7953 52.361 16.769 52.4161 16.7204C52.4711 16.6719 52.5076 16.6043 52.519 16.5301L53.0258 13.2067C53.0364 13.132 53.0728 13.0639 53.1281 13.0152C53.1833 12.9664 53.2537 12.9404 53.3261 12.9418L55.1799 12.9391ZM56.8897 8.97421C56.7636 9.80302 56.145 10.4132 54.9614 10.4132H53.4483L53.9077 7.39918H55.3938C56.6174 7.40143 57.0158 8.14898 56.8897 8.97645V8.97421Z" fill="#0070E0"/>
<path d="M47.5693 8.6339L45.2314 12.7219L44.0449 8.66399C44.0263 8.59923 43.988 8.54253 43.9359 8.50244C43.8837 8.46235 43.8205 8.44105 43.7557 8.44174H41.6459C41.5913 8.44097 41.5383 8.46081 41.4966 8.49761C41.455 8.53441 41.4274 8.58568 41.4191 8.64199C41.414 8.67931 41.4177 8.71739 41.4299 8.75288L43.5561 15.5881L41.633 18.8091C41.6166 18.8356 41.6057 18.8654 41.6007 18.8965C41.5958 18.9275 41.597 18.9594 41.6042 18.99C41.6115 19.0206 41.6246 19.0493 41.6429 19.0744C41.6612 19.0995 41.6841 19.1205 41.7104 19.136C41.7456 19.1571 41.7856 19.1679 41.8261 19.1674H44.0986C44.1635 19.1676 44.2273 19.1504 44.2839 19.1174C44.3405 19.0843 44.388 19.0366 44.4217 18.9788L50.3607 8.80182C50.3822 8.76639 50.394 8.72548 50.3948 8.68353C50.3957 8.64159 50.3855 8.6002 50.3654 8.56386C50.3453 8.5274 50.3163 8.49722 50.2812 8.47645C50.2462 8.45568 50.2065 8.44509 50.1662 8.44578H47.8946C47.8294 8.44516 47.7652 8.46215 47.7082 8.49512C47.6512 8.52809 47.6034 8.5759 47.5693 8.6339ZM40.4498 8.44174H38.5099C38.4378 8.44102 38.3677 8.46737 38.3126 8.51599C38.2575 8.5646 38.2209 8.63226 38.2096 8.70664L38.1468 9.12284C38.1468 9.12284 36.6401 7.41941 33.9748 8.5706C32.4462 9.2297 31.7118 10.5915 31.4008 11.5891C31.4008 11.5891 30.4086 14.621 32.6501 16.2899C32.6501 16.2899 34.7295 17.895 37.0704 16.1911L37.0299 16.4569C37.0204 16.5194 37.0308 16.5834 37.0596 16.639C37.0884 16.6947 37.1339 16.7389 37.1891 16.7649C37.2257 16.7829 37.2657 16.7919 37.3061 16.7919H39.2456C39.3176 16.7924 39.3874 16.766 39.4424 16.7175C39.4974 16.669 39.534 16.6016 39.5455 16.5274L40.7256 8.77713C40.7352 8.71461 40.7248 8.65052 40.6961 8.59477C40.6673 8.53902 40.6217 8.49471 40.5664 8.46868C40.5297 8.45105 40.4898 8.44186 40.4494 8.44174H40.4498ZM37.5974 12.7259C37.521 13.2667 37.2586 13.7601 36.8591 14.1137C36.4578 14.4689 35.9471 14.6612 35.4208 14.6552C35.2147 14.6576 35.0094 14.6264 34.8125 14.5627C33.9761 14.2843 33.499 13.4519 33.6362 12.549C33.7127 12.0066 33.9763 11.512 34.3775 11.1581C34.7803 10.8026 35.2927 10.6111 35.8201 10.6188C36.0266 10.6166 36.2327 10.648 36.4297 10.7122C37.2631 10.9888 37.7376 11.8221 37.6 12.7259H37.5978H37.5974ZM27.2481 12.9396C28.2974 12.939 29.3124 12.5493 30.1118 11.8401C30.9079 11.134 31.4349 10.1533 31.5969 9.07615C31.9368 6.83484 30.246 4.87819 27.8505 4.87819H23.9896C23.9175 4.87744 23.8476 4.90366 23.7925 4.95209C23.7374 5.00053 23.7008 5.06798 23.6893 5.14219L21.9683 16.4565C21.9587 16.519 21.9691 16.5831 21.9979 16.6388C22.0266 16.6946 22.0722 16.7389 22.1275 16.7649C22.1641 16.7824 22.2041 16.7919 22.2445 16.7919H24.2873C24.3595 16.7926 24.4295 16.7662 24.4846 16.7176C24.5397 16.669 24.5763 16.6013 24.5876 16.527L25.0935 13.2036C25.1043 13.129 25.1407 13.061 25.196 13.0124C25.2512 12.9637 25.3216 12.9377 25.3938 12.9392H27.2481V12.9396ZM28.9579 8.97423C28.8318 9.80305 28.2136 10.4132 27.03 10.4132H25.5169L25.9755 7.39921H27.4615C28.6856 7.40145 29.0835 8.14946 28.9579 8.97648V8.97423Z" fill="#003087"/>
<path d="M14.0421 5.45962C14.0881 2.9606 12.1129 1.04346 9.39687 1.04346H3.77889C3.64798 1.04339 3.52134 1.09212 3.4218 1.18085C3.32225 1.26959 3.25634 1.3925 3.23594 1.52746L0.984965 16.2059C0.974893 16.2725 0.978755 16.3405 0.996284 16.4053C1.01381 16.4701 1.04459 16.5302 1.0865 16.5814C1.12842 16.6326 1.18046 16.6737 1.23906 16.7019C1.29766 16.7301 1.36142 16.7447 1.42595 16.7447H4.75423L4.23408 20.1435C4.22401 20.21 4.22787 20.278 4.2454 20.3428C4.26293 20.4076 4.29371 20.4677 4.33562 20.5189C4.37753 20.5701 4.42958 20.6112 4.48818 20.6394C4.54678 20.6676 4.61054 20.6823 4.67507 20.6823H7.38639C7.51719 20.6823 7.63378 20.6333 7.73359 20.5449C7.83255 20.456 7.84889 20.3334 7.86954 20.1983L8.66548 15.3116C8.6857 15.1769 8.75152 15.0018 8.85091 14.9129C8.95029 14.824 9.0372 14.7755 9.16842 14.7755H10.8274C13.4875 14.7755 15.7441 12.8022 16.1567 10.0581C16.4488 8.1104 15.6486 6.33782 14.0421 5.45917V5.45962Z" fill="#001C64"/>
<path d="M5.47418 11.3312L4.64513 16.8168L4.12455 20.2578C4.11454 20.3243 4.11846 20.3923 4.13605 20.4571C4.15363 20.5219 4.18446 20.5819 4.22641 20.6331C4.26836 20.6843 4.32044 20.7253 4.37906 20.7535C4.43767 20.7816 4.50144 20.7962 4.56596 20.7961H7.43561C7.56641 20.7961 7.69288 20.7473 7.79227 20.6585C7.89165 20.5698 7.95741 20.447 7.97771 20.3121L8.73406 15.3109C8.75445 15.1761 8.82029 15.0532 8.91975 14.9645C9.0192 14.8758 9.14574 14.827 9.27658 14.8269H10.9657C13.6258 14.8269 15.8824 12.802 16.2954 10.0579C16.588 8.11021 15.6483 6.33764 14.0418 5.45898C14.0375 5.66641 14.0203 5.87339 13.9898 6.07858C13.5772 8.82184 11.3198 10.8472 8.66049 10.8472H6.01671C5.88583 10.8473 5.75929 10.8962 5.65984 10.985C5.56039 11.0738 5.49456 11.1967 5.47418 11.3316" fill="#0070E0"/>
<path d="M4.64506 16.817H1.30646C1.24194 16.817 1.17819 16.8024 1.11961 16.7741C1.06103 16.7459 1.009 16.7048 0.967122 16.6536C0.925243 16.6024 0.894506 16.5423 0.87703 16.4775C0.859555 16.4127 0.855757 16.3447 0.865898 16.2782L3.11687 1.38195C3.13726 1.24707 3.20311 1.12422 3.30257 1.03549C3.40202 0.946765 3.52855 0.897992 3.6594 0.897949H9.39698C12.113 0.897949 14.0882 2.96056 14.0422 5.45913C13.3663 5.08917 12.5721 4.8777 11.7022 4.8777H6.91884C6.78792 4.87764 6.66129 4.92636 6.56174 5.0151C6.4622 5.10384 6.39629 5.22675 6.37589 5.3617L5.47498 11.3313L4.64463 16.817H4.64506Z" fill="#003087"/>
</svg>
