<svg width="28" height="28" viewBox="0 0 28 28" fill="none" xmlns="http://www.w3.org/2000/svg">
<path d="M25.375 4.37499C25.3969 4.37499 14.2844 0.109362 14 0C13.7813 0.0874787 2.60315 4.37499 2.62503 4.37499V12.425C2.62503 18.0031 4.22192 25.2875 14 27.9999C23.7563 25.2874 25.3532 17.8718 25.3532 12.425C25.375 9.66875 25.375 4.37499 25.375 4.37499Z" fill="white"/>
<path d="M23.166 5.88438C23.1879 5.88438 14.2191 2.27498 13.9785 2.1875C13.7816 2.25315 4.76917 5.73125 4.79106 5.70936V12.4687C4.79106 17.15 5.70983 23.5375 13.9785 25.8125C22.2254 23.5375 23.166 17.0406 23.166 12.4687C23.1879 10.15 23.1879 5.88438 23.166 5.88438Z" fill="#3DB39E"/>
<path d="M12.7275 17.8429C12.9424 18.0524 13.3076 18.0524 13.5225 17.8429L19.8389 11.6859C20.0537 11.4764 20.0537 11.1204 19.8389 10.911L19.0654 10.1571C18.8506 9.94764 18.5068 9.94764 18.292 10.1571L13.1357 15.1832L10.708 12.8377C10.4932 12.6283 10.1494 12.6283 9.93457 12.8377L9.16113 13.5916C8.94629 13.801 8.94629 14.1571 9.16113 14.3665L12.7275 17.8429Z" fill="white"/>
</svg>
