<svg width="78" height="14" viewBox="0 0 78 14" fill="none" xmlns="http://www.w3.org/2000/svg">
<path d="M6.25379 0.947389L4.55192 4.32305L0.70307 4.85604C0.0223208 4.95757 -0.239506 5.76976 0.257965 6.25199L3.00714 8.86622L2.35258 12.5465C2.24785 13.2064 2.98096 13.714 3.58316 13.4094L7.01309 11.6581L10.4168 13.4094C11.019 13.714 11.7522 13.2064 11.6474 12.5465L10.9929 8.86622L13.742 6.25199C14.2395 5.76976 13.9777 4.95757 13.2969 4.85604L9.47426 4.32305L7.74621 0.947389C7.4582 0.363628 6.56799 0.338248 6.25379 0.947389Z" fill="#FED503"/>
<path d="M22.2538 0.947389L20.5519 4.32305L16.7031 4.85604C16.0223 4.95757 15.7605 5.76976 16.258 6.25199L19.0071 8.86622L18.3526 12.5465C18.2478 13.2064 18.981 13.714 19.5832 13.4094L23.0131 11.6581L26.4168 13.4094C27.019 13.714 27.7522 13.2064 27.6474 12.5465L26.9929 8.86622L29.742 6.25199C30.2395 5.76976 29.9777 4.95757 29.2969 4.85604L25.4743 4.32305L23.7462 0.947389C23.4582 0.363628 22.568 0.338248 22.2538 0.947389Z" fill="#FED503"/>
<path d="M38.2538 0.947389L36.5519 4.32305L32.7031 4.85604C32.0223 4.95757 31.7605 5.76976 32.258 6.25199L35.0071 8.86622L34.3526 12.5465C34.2478 13.2064 34.981 13.714 35.5832 13.4094L39.0131 11.6581L42.4168 13.4094C43.019 13.714 43.7522 13.2064 43.6474 12.5465L42.9929 8.86622L45.742 6.25199C46.2395 5.76976 45.9777 4.95757 45.2969 4.85604L41.4743 4.32305L39.7462 0.947389C39.4582 0.363628 38.568 0.338248 38.2538 0.947389Z" fill="#FED503"/>
<path d="M54.2538 0.947389L52.5519 4.32305L48.7031 4.85604C48.0223 4.95757 47.7605 5.76976 48.258 6.25199L51.0071 8.86622L50.3526 12.5465C50.2478 13.2064 50.981 13.714 51.5832 13.4094L55.0131 11.6581L58.4168 13.4094C59.019 13.714 59.7522 13.2064 59.6474 12.5465L58.9929 8.86622L61.742 6.25199C62.2395 5.76976 61.9777 4.95757 61.2969 4.85604L57.4743 4.32305L55.7462 0.947389C55.4582 0.363628 54.568 0.338248 54.2538 0.947389Z" fill="#FED503"/>
<path d="M70.2538 0.947389L68.5519 4.32305L64.7031 4.85604C64.0223 4.95757 63.7605 5.76976 64.258 6.25199L67.0071 8.86622L66.3526 12.5465C66.2478 13.2064 66.981 13.714 67.5832 13.4094L71.0131 11.6581L74.4168 13.4094C75.019 13.714 75.7522 13.2064 75.6474 12.5465L74.9929 8.86622L77.742 6.25199C78.2395 5.76976 77.9777 4.95757 77.2969 4.85604L73.4743 4.32305L71.7462 0.947389C71.4582 0.363628 70.568 0.338248 70.2538 0.947389Z" fill="#FED503"/>
</svg>
