<svg width="28" height="28" viewBox="0 0 28 28" fill="none" xmlns="http://www.w3.org/2000/svg">
<path d="M27.125 10.2551C27.125 5.98691 23.8086 2.34915 19.5433 2.19307C17.5041 2.11621 15.5153 2.83791 14 4.20469C12.4847 2.83789 10.4959 2.11619 8.45671 2.19307C4.19136 2.34915 0.875 5.98691 0.875 10.2551C0.874992 12.3769 1.69799 14.4161 3.17084 15.9435L11.7765 24.8678C12.0646 25.1666 12.41 25.4043 12.792 25.5666C13.1741 25.7289 13.5849 25.8126 14 25.8126C14.4151 25.8126 14.8259 25.7289 15.208 25.5666C15.59 25.4043 15.9354 25.1666 16.2235 24.8678L24.8292 15.9435C26.302 14.4161 27.125 12.377 27.125 10.2552V10.2551Z" fill="#2763BB"/>
<path d="M19.5433 2.19307C17.5041 2.11621 15.5153 2.83791 14 4.20469C12.4847 2.83789 10.4959 2.11619 8.45671 2.19307C8.36484 2.19646 8.27624 2.21046 8.18508 2.21702C5.79048 4.48447 4.375 7.269 4.375 10.2814C4.375 16.2746 9.96335 21.372 17.7651 23.2691L24.8292 15.9435C26.302 14.4161 27.125 12.377 27.125 10.2552C27.125 5.9869 23.8086 2.34915 19.5433 2.19307Z" fill="#3079E6"/>
<path d="M1.7832 14C2.14852 14.7121 2.61626 15.3669 3.1715 15.9434L11.7771 24.8677C12.0653 25.1665 12.4107 25.4042 12.7927 25.5665C13.1747 25.7288 13.5856 25.8125 14.0007 25.8125C14.4158 25.8125 14.8266 25.7288 15.2086 25.5665C15.5907 25.4042 15.9361 25.1665 16.2242 24.8677L24.8298 15.9434C25.385 15.3669 25.8526 14.7121 26.2178 14H1.7832Z" fill="#F3A845"/>
<path d="M17.7651 23.269L24.8291 15.9434C25.3844 15.3669 25.8521 14.7122 26.2174 14H5.11816C6.88227 18.3183 11.641 21.7797 17.7651 23.269Z" fill="#EECC61"/>
</svg>
